<?xml version="1.0" encoding="UTF-8"?>
<svg id="OBJECT" xmlns="http://www.w3.org/2000/svg" viewBox="0 0 32 32">
  <defs>
    <style>
      .cls-1 {
        fill: #FD4360;
      }

      .cls-1, .cls-2 {
        stroke-width: 0px;
      }

      .cls-2 {
        fill: #dadada;
      }
    </style>
  </defs>
  <g>
    <path class="cls-2" d="m30,24.9h-1.92c1.9-2.56,2.92-5.65,2.92-8.9,0-8.27-6.73-15-15-15-2.51,0-4.99.63-7.17,1.82-.49.26-.66.87-.4,1.36.26.48.87.66,1.36.4,1.89-1.03,4.04-1.58,6.22-1.58,7.17,0,13,5.83,13,13,0,3.47-1.35,6.74-3.81,9.19-.29.29-.37.72-.22,1.09.15.37.52.62.92.62h4.1c.55,0,1-.45,1-1s-.45-1-1-1Z"/>
    <path class="cls-2" d="m22.22,27.42c-1.89,1.03-4.04,1.58-6.22,1.58-7.17,0-13-5.83-13-13,0-3.47,1.35-6.74,3.81-9.19.29-.29.37-.72.22-1.09-.15-.37-.52-.62-.92-.62H2c-.55,0-1,.45-1,1s.45,1,1,1h1.92c-1.9,2.56-2.92,5.65-2.92,8.9,0,8.27,6.73,15,15,15,2.51,0,4.99-.63,7.17-1.82.49-.26.66-.87.4-1.36-.26-.48-.87-.66-1.36-.4Z"/>
    <path class="cls-2" d="m16,4.5c-6.34,0-11.5,5.16-11.5,11.5s5.16,11.5,11.5,11.5,11.5-5.16,11.5-11.5-5.16-11.5-11.5-11.5Zm0,21c-5.24,0-9.5-4.26-9.5-9.5s4.26-9.5,9.5-9.5,9.5,4.26,9.5,9.5-4.26,9.5-9.5,9.5Z"/>
  </g>
  <g>
    <path class="cls-1" d="m15.14,19.29h-3.18l2.67-2.46c1.03-.95,1.31-2.49.69-3.74-.74-1.5-2.53-2.16-4.07-1.5l-1.63.69c-.51.22-.75.8-.53,1.31.22.51.8.75,1.31.53l1.63-.69c.57-.25,1.22,0,1.5.55.23.46.13,1.03-.25,1.38l-3.5,3.23c-.21.19-.32.46-.32.74v.97c0,.55.45,1,1,1h4.7c.55,0,1-.45,1-1s-.45-1-1-1Z"/>
    <path class="cls-1" d="m22.08,16.26v-4.54c0-.55-.45-1-1-1h-1.21c-.37,0-.7.2-.88.52l-3.01,5.54c-.17.31-.16.69.02.99.18.3.51.49.86.49h3.22v2.03c0,.55.45,1,1,1s1-.45,1-1v-2.03c.52-.04.92-.47.92-1s-.41-.96-.92-1Z"/>
  </g>
</svg>