<?xml version="1.0" encoding="UTF-8"?>
<svg id="OBJECT" xmlns="http://www.w3.org/2000/svg" viewBox="0 0 512 512">
  <defs>
    <style>
      .cls-1 {
        fill: #FD4360;
      }

      .cls-2 {
        fill: #dadada;
      }
    </style>
  </defs>
  <g>
    <path class="cls-2" d="M412.5,0H22.5C10.09,0,0,10.09,0,22.5V399.5c0,12.41,10.09,22.5,22.5,22.5H229.5c4.14,0,7.5-3.36,7.5-7.5s-3.36-7.5-7.5-7.5H22.5c-4.14,0-7.5-3.36-7.5-7.5V75H420v234.5c0,4.14,3.36,7.5,7.5,7.5s7.5-3.36,7.5-7.5V22.5c0-12.41-10.09-22.5-22.5-22.5ZM15,60V22.5c0-4.14,3.36-7.5,7.5-7.5H412.5c4.14,0,7.5,3.36,7.5,7.5V60H15Z"/>
    <path class="cls-2" d="M52.5,30h-15c-4.14,0-7.5,3.36-7.5,7.5s3.36,7.5,7.5,7.5h15c4.14,0,7.5-3.36,7.5-7.5s-3.36-7.5-7.5-7.5Z"/>
    <path class="cls-2" d="M102.5,30h-15c-4.14,0-7.5,3.36-7.5,7.5s3.36,7.5,7.5,7.5h15c4.14,0,7.5-3.36,7.5-7.5s-3.36-7.5-7.5-7.5Z"/>
    <path class="cls-2" d="M152.5,30h-15c-4.14,0-7.5,3.36-7.5,7.5s3.36,7.5,7.5,7.5h15c4.14,0,7.5-3.36,7.5-7.5s-3.36-7.5-7.5-7.5Z"/>
    <path class="cls-2" d="M376,103.5H59c-12.41,0-22.5,10.09-22.5,22.5v140c0,12.41,10.09,22.5,22.5,22.5H376c12.41,0,22.5-10.09,22.5-22.5V126c0-12.41-10.09-22.5-22.5-22.5Zm7.5,162.5c0,4.14-3.36,7.5-7.5,7.5H59c-4.14,0-7.5-3.36-7.5-7.5V126c0-4.14,3.36-7.5,7.5-7.5H376c4.14,0,7.5,3.36,7.5,7.5v140Z"/>
    <path class="cls-2" d="M232.5,138.5h-20c-15.16,0-27.5,12.34-27.5,27.5v60c0,15.16,12.34,27.5,27.5,27.5h20c15.16,0,27.5-12.34,27.5-27.5v-60c0-15.16-12.34-27.5-27.5-27.5Zm12.5,87.5c0,6.89-5.61,12.5-12.5,12.5h-20c-6.89,0-12.5-5.61-12.5-12.5v-60c0-6.89,5.61-12.5,12.5-12.5h20c6.89,0,12.5,5.61,12.5,12.5v60Z"/>
    <path class="cls-2" d="M350,138.5c-4.14,0-7.5,3.36-7.5,7.5v42.5h-32.5c-6.89,0-12.5-5.61-12.5-12.5v-30c0-4.14-3.36-7.5-7.5-7.5s-7.5,3.36-7.5,7.5v30c0,15.16,12.34,27.5,27.5,27.5h32.5v42.5c0,4.14,3.36,7.5,7.5,7.5s7.5-3.36,7.5-7.5v-100c0-4.14-3.36-7.5-7.5-7.5Z"/>
    <path class="cls-2" d="M145,138.5c-4.14,0-7.5,3.36-7.5,7.5v42.5h-32.5c-6.89,0-12.5-5.61-12.5-12.5v-30c0-4.14-3.36-7.5-7.5-7.5s-7.5,3.36-7.5,7.5v30c0,15.16,12.34,27.5,27.5,27.5h32.5v42.5c0,4.14,3.36,7.5,7.5,7.5s7.5-3.36,7.5-7.5v-100c0-4.14-3.36-7.5-7.5-7.5Z"/>
    <path class="cls-2" d="M62.5,317c-12.41,0-22.5,10.09-22.5,22.5v20c0,12.41,10.09,22.5,22.5,22.5h120c12.41,0,22.5-10.09,22.5-22.5v-20c0-12.41-10.09-22.5-22.5-22.5H62.5Zm127.5,22.5v20c0,4.14-3.36,7.5-7.5,7.5H62.5c-4.14,0-7.5-3.36-7.5-7.5v-20c0-4.14,3.36-7.5,7.5-7.5h120c4.14,0,7.5,3.36,7.5,7.5Z"/>
  </g>
  <path class="cls-1" d="M489.5,332h-215c-12.41,0-22.5,10.09-22.5,22.5v135c0,12.41,10.09,22.5,22.5,22.5h215c12.41,0,22.5-10.09,22.5-22.5v-135c0-12.41-10.09-22.5-22.5-22.5Zm-152.2,124.7c2.93,2.93,2.93,7.68,0,10.61-1.46,1.46-3.38,2.2-5.3,2.2s-3.84-.73-5.3-2.2l-40-40c-2.93-2.93-2.93-7.68,0-10.61l40-40c2.93-2.93,7.68-2.93,10.61,0,2.93,2.93,2.93,7.68,0,10.61l-34.7,34.7,34.7,34.7Zm66.97-92.88l-30,120c-.85,3.41-3.91,5.68-7.27,5.68-.6,0-1.21-.07-1.83-.23-4.02-1-6.46-5.08-5.46-9.1l30-120c1.01-4.02,5.08-6.46,9.1-5.46,4.02,1,6.46,5.08,5.46,9.1Zm73.03,63.48l-40,40c-1.46,1.46-3.38,2.2-5.3,2.2s-3.84-.73-5.3-2.2c-2.93-2.93-2.93-7.68,0-10.61l34.7-34.7-34.7-34.7c-2.93-2.93-2.93-7.68,0-10.61,2.93-2.93,7.68-2.93,10.61,0l40,40c2.93,2.93,2.93,7.68,0,10.61Z"/>
</svg>