<?xml version="1.0" encoding="UTF-8"?>
<svg id="OBJECT" xmlns="http://www.w3.org/2000/svg" viewBox="0 0 32 32">
  <defs>
    <style>
      .cls-1 {
        fill: #FD4360;
      }

      .cls-1, .cls-2 {
        stroke-width: 0px;
      }

      .cls-2 {
        fill: #dadada;
      }
    </style>
  </defs>
  <path class="cls-2" d="m30,11.62h-5c-.55,0-1,.45-1,1s.45,1,1,1h1.79l-8.76,6.04-1.42-1.08c-.36-.27-.85-.27-1.21,0l-1.42,1.08-8.76-6.04h1.79c.55,0,1-.45,1-1s-.45-1-1-1H2c-.55,0-1,.45-1,1v17.38c0,.55.45,1,1,1h28c.55,0,1-.45,1-1V12.62c0-.55-.45-1-1-1Zm-1,2.9v13.46l-9.29-7.05,9.29-6.41Zm-13,6.11l11.03,8.37H4.97l11.03-8.37Zm-13,7.35v-13.46l9.29,6.41-9.29,7.05Z"/>
  <g>
    <path class="cls-1" d="m20,9.99c0-2.21-1.79-4-4-4s-4,1.79-4,4,1.79,4,4,4,4-1.79,4-4Zm-4.53,2.38c-.27,0-.52-.1-.71-.29l-1.69-1.68c-.39-.39-.39-1.02,0-1.41.39-.39,1.02-.39,1.41,0l.98.97,2.03-2.05c.39-.39,1.02-.4,1.41,0,.39.39.4,1.02,0,1.41l-2.74,2.77c-.19.19-.44.3-.71.3h0Z"/>
    <path class="cls-1" d="m15.4,18.58c.36-.27.85-.27,1.21,0l1.42,1.08,4.97-3.43V1h-14v15.23l4.97,3.43,1.42-1.08Zm-5.4-8.59c0-3.31,2.69-6,6-6s6,2.69,6,6-2.69,6-6,6-6-2.69-6-6Z"/>
  </g>
</svg>