<?xml version="1.0" encoding="UTF-8"?>
<svg id="OBJECT" xmlns="http://www.w3.org/2000/svg" viewBox="0 0 32 32">
  <defs>
    <style>
      .cls-1 {
        fill: #FD4360;
      }

      .cls-1, .cls-2 {
        stroke-width: 0px;
      }

      .cls-2 {
        fill: #dadada;
      }
    </style>
  </defs>
  <g>
    <path class="cls-2" d="m21,11.62h-12.78v-4.91h6.56v2.66c0,.55.45,1,1,1h3.72c.55,0,1-.45,1-1v-4.38c0-2.21-1.79-4-4-4H6.5c-2.21,0-4,1.79-4,4v6.62h-.5c-.55,0-1,.45-1,1v13c0,1.65,1.35,3,3,3h12.48c.55,0,1-.45,1-1s-.45-1-1-1H4c-.55,0-1-.45-1-1v-12h17v2.88c0,.55.45,1,1,1s1-.45,1-1v-3.88c0-.55-.45-1-1-1ZM4.5,5c0-1.1.9-2,2-2h10c1.1,0,2,.9,2,2v3.38h-1.72v-2.66c0-.55-.45-1-1-1H7.22c-.55,0-1,.45-1,1v5.91h-1.72v-6.62Z"/>
    <path class="cls-2" d="m6,23.62h-1c-.55,0-1,.45-1,1s.45,1,1,1h1c.55,0,1-.45,1-1s-.45-1-1-1Z"/>
    <path class="cls-2" d="m6,14.62h-1c-.55,0-1,.45-1,1s.45,1,1,1h1c.55,0,1-.45,1-1s-.45-1-1-1Z"/>
    <path class="cls-2" d="m18,14.62h-1c-.55,0-1,.45-1,1s.45,1,1,1h1c.55,0,1-.45,1-1s-.45-1-1-1Z"/>
    <path class="cls-2" d="m11.5,25.2c.55,0,1-.45,1-1v-2.32c1.44-.43,2.5-1.76,2.5-3.34,0-1.93-1.57-3.5-3.5-3.5s-3.5,1.57-3.5,3.5c0,1.58,1.06,2.9,2.5,3.34v2.32c0,.55.45,1,1,1Zm-1.5-6.65c0-.83.67-1.5,1.5-1.5s1.5.67,1.5,1.5-.67,1.5-1.5,1.5-1.5-.67-1.5-1.5Z"/>
  </g>
  <g>
    <path class="cls-1" d="m24.5,18c-3.58,0-6.5,2.92-6.5,6.5,0,.46.05.91.14,1.34,1.19-.67,2.49-1.15,3.84-1.42-.12-.3-.19-.63-.19-.98,0-1.49,1.21-2.71,2.71-2.71s2.71,1.22,2.71,2.71c0,.35-.07.68-.19.98,1.36.27,2.65.74,3.84,1.42.09-.43.14-.88.14-1.34,0-3.58-2.92-6.5-6.5-6.5Z"/>
    <path class="cls-1" d="m25.21,23.44c0-.39-.32-.71-.71-.71s-.71.32-.71.71.32.71.71.71.71-.32.71-.71Z"/>
    <path class="cls-1" d="m18.87,27.74c1.12,1.95,3.22,3.26,5.63,3.26s4.51-1.32,5.63-3.26c-1.68-1.01-3.61-1.58-5.63-1.58s-3.95.57-5.63,1.58Z"/>
  </g>
</svg>