<?xml version="1.0" encoding="UTF-8"?>
<svg id="OBJECT" xmlns="http://www.w3.org/2000/svg" viewBox="0 0 32 32">
  <defs>
    <style>
      .cls-1 {
        fill: #FD4360;
      }

      .cls-2 {
        fill: #dadada;
      }
    </style>
  </defs>
  <path class="cls-2" d="m30,29h-.45l-6.71-10.54c-.37-.58-1.32-.58-1.69,0l-2.27,3.56-.92-1.37c-.31-.46-.93-.58-1.39-.28-.46.31-.58.93-.28,1.39l1.41,2.11-3.26,5.13H4.87l4.82-7.24c.31-.46.18-1.08-.28-1.39-.46-.31-1.08-.18-1.39.28l-5.56,8.34h-.46c-.55,0-1,.45-1,1s.45,1,1,1h28c.55,0,1-.45,1-1s-.45-1-1-1Zm-8-8.14l1.25,1.97c-.82.22-1.68.22-2.5,0l1.25-1.97Zm-2.36,3.71c.76.28,1.55.42,2.36.42s1.6-.14,2.36-.42l2.81,4.42h-10.36l2.81-4.42Z"/>
  <path class="cls-1" d="m17,19.2l-3-4.5v-3.7h9c.55,0,1-.45,1-1V3c0-.55-.45-1-1-1h-9c0-.55-.45-1-1-1s-1,.45-1,1v12.7l-3,4.5c2.56.99,5.44.99,8,0Zm3-13.2c0-.55.45-1,1-1s1,.45,1,1v1c0,.55-.45,1-1,1s-1-.45-1-1v-1Z"/>
</svg>