<?xml version="1.0" encoding="UTF-8"?>
<svg id="OBJECT" xmlns="http://www.w3.org/2000/svg" viewBox="0 0 32 32">
  <defs>
    <style>
      .cls-1 {
        fill: #FD4360;
      }

      .cls-1, .cls-2 {
        stroke-width: 0px;
      }

      .cls-2 {
        fill: #dadada;
      }
    </style>
  </defs>
  <path class="cls-1" d="m23.34,15.68c-4.22,0-7.66,3.44-7.66,7.66s3.44,7.66,7.66,7.66,7.66-3.44,7.66-7.66-3.44-7.66-7.66-7.66Zm3.25,8.66h-2.25v2.25c0,.55-.45,1-1,1s-1-.45-1-1v-2.25h-2.25c-.55,0-1-.45-1-1s.45-1,1-1h2.25v-2.25c0-.55.45-1,1-1s1,.45,1,1v2.25h2.25c.55,0,1,.45,1,1s-.45,1-1,1Z"/>
  <path class="cls-2" d="m26.34,7.95c-.52-.61-1.29-.95-2.09-.95h-2.24v-3.27c0-1.51-1.23-2.73-2.73-2.73h-10.55c-1.51,0-2.73,1.23-2.73,2.73v3.27h-2.24c-.81,0-1.57.35-2.09.95-.51.59-.74,1.38-.63,2.15l2.13,14.57c.19,1.33,1.36,2.33,2.72,2.33h7.36c.55,0,1-.45,1-1s-.45-1-1-1h-3.39l-.35-5.25h4.12c.55,0,1-.45,1-1v-6.26h4.29l-.28,1.37c-.11.54.24,1.07.78,1.18.07.01.13.02.2.02.47,0,.88-.33.98-.8l.36-1.77h3.1l-.02.07c-.18.52.1,1.09.62,1.27.52.18,1.09-.1,1.27-.62l1.01-2.93c.02-.06.04-.12.04-.18.11-.77-.12-1.55-.63-2.15ZM7.99,3.73c0-.4.33-.73.73-.73h10.55c.4,0,.73.33.73.73v3.27H7.99v-3.27Zm-.98,8.76l.35,5.26h-3.19l-.77-5.26h3.61Zm.83,12.51h-1.96c-.37,0-.69-.26-.75-.62l-.68-4.63h3.03l.35,5.25Zm4.77-7.25h-3.25l-.35-5.26h3.6v5.26ZM3.11,10.49l-.1-.68c-.04-.27.09-.46.16-.55.14-.17.36-.26.58-.26h20.49c.23,0,.44.1.58.26.07.08.18.25.17.48l-.26.75H3.11Z"/>
</svg>