<?xml version="1.0" encoding="UTF-8"?>
<svg id="OBJECT" xmlns="http://www.w3.org/2000/svg" viewBox="0 0 512 512">
  <defs>
    <style>
      .cls-1 {
        fill: #FD4360;
      }

      .cls-2 {
        fill: #dadada;
      }
    </style>
  </defs>
  <g>
    <path class="cls-2" d="M251,462h10c12.41,0,22.5-10.09,22.5-22.5v-70c0-12.41-10.09-22.5-22.5-22.5h-10c-12.41,0-22.5,10.09-22.5,22.5v70c0,12.41,10.09,22.5,22.5,22.5Zm-7.5-92.5c0-4.14,3.36-7.5,7.5-7.5h10c4.14,0,7.5,3.36,7.5,7.5v70c0,4.14-3.36,7.5-7.5,7.5h-10c-4.14,0-7.5-3.36-7.5-7.5v-70Z"/>
    <path class="cls-2" d="M141,462h10c12.41,0,22.5-10.09,22.5-22.5v-70c0-12.41-10.09-22.5-22.5-22.5h-10c-12.41,0-22.5,10.09-22.5,22.5v70c0,12.41,10.09,22.5,22.5,22.5Zm-7.5-92.5c0-4.14,3.36-7.5,7.5-7.5h10c4.14,0,7.5,3.36,7.5,7.5v70c0,4.14-3.36,7.5-7.5,7.5h-10c-4.14,0-7.5-3.36-7.5-7.5v-70Z"/>
    <path class="cls-2" d="M361,462h10c12.41,0,22.5-10.09,22.5-22.5v-70c0-12.41-10.09-22.5-22.5-22.5h-10c-12.41,0-22.5,10.09-22.5,22.5v70c0,12.41,10.09,22.5,22.5,22.5Zm-7.5-92.5c0-4.14,3.36-7.5,7.5-7.5h10c4.14,0,7.5,3.36,7.5,7.5v70c0,4.14-3.36,7.5-7.5,7.5h-10c-4.14,0-7.5-3.36-7.5-7.5v-70Z"/>
    <path class="cls-2" d="M484.5,227h-49.01c-.87-4.87-2.57-9.45-4.95-13.6L500,45.92c3.33-8.03,2.44-17.14-2.39-24.38-4.83-7.23-12.9-11.55-21.6-11.55-10.54,0-19.96,6.29-23.99,16.02l-69.45,167.46c-15.7,4.26-27.82,17.31-30.72,33.52H160.15c-2.9-16.21-15.01-29.26-30.72-33.52L59.99,26.02c-4.04-9.73-13.45-16.02-23.99-16.02-8.7,0-16.77,4.32-21.6,11.55-4.83,7.23-5.72,16.34-2.39,24.38L81.46,213.4c-2.38,4.15-4.08,8.73-4.95,13.6H27.5c-15.16,0-27.5,12.34-27.5,27.5v50c0,4.14,3.36,7.5,7.5,7.5h12.04l26.49,176.58c2.04,13.57,13.47,23.42,27.2,23.42H438.78c13.72,0,25.16-9.85,27.2-23.42l26.49-176.58h12.04c4.14,0,7.5-3.36,7.5-7.5v-50c0-15.16-12.34-27.5-27.5-27.5Zm-18.63-195.23c1.71-4.11,5.69-6.77,10.14-6.77,3.73,0,7.06,1.78,9.13,4.88,2.07,3.1,2.44,6.85,1.01,10.3l-66.62,160.62c-5.77-4.44-12.71-7.43-20.27-8.42L465.87,31.77Zm-72.2,175.23c15.16,0,27.5,12.34,27.5,27.5s-12.34,27.5-27.5,27.5-27.5-12.34-27.5-27.5,12.34-27.5,27.5-27.5Zm-247.84,27.5c0,15.16-12.34,27.5-27.5,27.5s-27.5-12.34-27.5-27.5,12.34-27.5,27.5-27.5,27.5,12.34,27.5,27.5ZM26.87,29.88c2.07-3.1,5.4-4.88,9.13-4.88,4.45,0,8.43,2.66,10.14,6.77L112.74,192.38c-7.56,1-14.5,3.99-20.27,8.42L25.86,40.18c-1.43-3.44-1.06-7.2,1.01-10.3ZM451.14,486.35c-.93,6.17-6.12,10.65-12.36,10.65H73.22c-6.24,0-11.44-4.48-12.36-10.65l-26.15-174.35H477.29l-26.15,174.35Zm45.86-189.35H15v-42.5c0-6.89,5.61-12.5,12.5-12.5h49.01c3.55,19.87,20.95,35,41.82,35s38.27-15.13,41.82-35h191.69c3.55,19.87,20.95,35,41.82,35s38.27-15.13,41.82-35h49.01c6.89,0,12.5,5.61,12.5,12.5v42.5Z"/>
  </g>
  <g>
    <path class="cls-1" d="M301,90h-30c-4.14,0-7.5-3.36-7.5-7.5v-30c0-1.38-1.12-2.5-2.5-2.5h-10c-1.38,0-2.5,1.12-2.5,2.5v30c0,4.14-3.36,7.5-7.5,7.5h-30c-1.38,0-2.5,1.12-2.5,2.5v10c0,1.38,1.12,2.5,2.5,2.5h30c4.14,0,7.5,3.36,7.5,7.5v30c0,1.38,1.12,2.5,2.5,2.5h10c1.38,0,2.5-1.12,2.5-2.5v-30c0-4.14,3.36-7.5,7.5-7.5h30c1.38,0,2.5-1.12,2.5-2.5v-10c0-1.38-1.12-2.5-2.5-2.5Z"/>
    <path class="cls-1" d="M256,0c-53.76,0-97.5,43.74-97.5,97.5s43.74,97.5,97.5,97.5,97.5-43.74,97.5-97.5S309.76,0,256,0Zm62.5,102.5c0,9.65-7.85,17.5-17.5,17.5h-22.5v22.5c0,9.65-7.85,17.5-17.5,17.5h-10c-9.65,0-17.5-7.85-17.5-17.5v-22.5h-22.5c-9.65,0-17.5-7.85-17.5-17.5v-10c0-9.65,7.85-17.5,17.5-17.5h22.5v-22.5c0-9.65,7.85-17.5,17.5-17.5h10c9.65,0,17.5,7.85,17.5,17.5v22.5h22.5c9.65,0,17.5,7.85,17.5,17.5v10Z"/>
  </g>
</svg>