<?xml version="1.0" encoding="UTF-8"?>
<svg id="OBJECT" xmlns="http://www.w3.org/2000/svg" viewBox="0 0 32 32">
  <defs>
    <style>
      .cls-1 {
        fill: #FD4360;
      }

      .cls-1, .cls-2 {
        stroke-width: 0px;
      }

      .cls-2 {
        fill: #dadada;
      }
    </style>
  </defs>
  <g>
    <path class="cls-2" d="m15,1C7.28,1,1,7.28,1,15s6.28,14,14,14c.5,0,1.04-.03,1.59-.09.55-.06.95-.55.89-1.1-.06-.55-.54-.96-1.1-.89-.48.05-.95.07-1.39.07-6.62,0-12-5.38-12-12S8.38,3,15,3s12,5.38,12,12c0,.44-.03.9-.07,1.39-.06.55.34,1.04.89,1.1.55.06,1.04-.34,1.1-.89.06-.55.09-1.09.09-1.59,0-7.72-6.28-14-14-14Z"/>
    <path class="cls-2" d="m15,4.5c-5.79,0-10.5,4.71-10.5,10.5s4.71,10.5,10.5,10.5c.39,0,.77-.02,1.14-.07.55-.07.94-.56.87-1.11s-.57-.94-1.11-.87c-.29.04-.59.05-.9.05-2.81,0-5.31-1.38-6.85-3.49.97-1.33,2.29-2.34,3.82-2.93.73.86,1.81,1.42,3.03,1.42s2.28-.55,3.01-1.4c.66.25,1.29.56,1.86.96.17.12.38.18.57.18.31,0,.62-.15.82-.43.32-.45.21-1.08-.24-1.39-.65-.46-1.36-.84-2.1-1.14.05-.25.08-.51.08-.78v-3c0-1.65-1.35-3-3-3h-2c-1.65,0-3,1.35-3,3v3c0,.27.03.53.08.78-1.54.62-2.89,1.6-3.98,2.84-.38-.97-.6-2.02-.6-3.12,0-4.69,3.81-8.5,8.5-8.5s8.5,3.81,8.5,8.5c0,.31-.02.61-.05.9-.07.55.32,1.05.87,1.11.54.07,1.05-.32,1.11-.87.04-.37.07-.75.07-1.14,0-5.79-4.71-10.5-10.5-10.5Zm-2,7c0-.55.45-1,1-1h2c.55,0,1,.45,1,1v3c0,1.1-.9,2-2,2s-2-.9-2-2v-3Z"/>
  </g>
  <path class="cls-1" d="m24.5,18c-3.58,0-6.5,2.92-6.5,6.5s2.92,6.5,6.5,6.5,6.5-2.92,6.5-6.5-2.92-6.5-6.5-6.5Zm2.5,7.5h-1.5v1.5c0,.55-.45,1-1,1s-1-.45-1-1v-1.5h-1.5c-.55,0-1-.45-1-1s.45-1,1-1h1.5v-1.5c0-.55.45-1,1-1s1,.45,1,1v1.5h1.5c.55,0,1,.45,1,1s-.45,1-1,1Z"/>
</svg>