<?xml version="1.0" encoding="UTF-8"?>
<svg id="OBJECT" xmlns="http://www.w3.org/2000/svg" viewBox="0 0 32 32">
  <defs>
    <style>
      .cls-1 {
        fill: #FD4360;
      }

      .cls-2 {
        fill: #dadada;
      }
    </style>
  </defs>
  <g>
    <path class="cls-2" d="M6.93,19.46c-.43,.35-.49,.98-.13,1.41,.07,.09,.14,.17,.22,.25,.2,.22,.47,.34,.75,.34,.24,0,.47-.08,.66-.25,.41-.37,.45-1,.09-1.41l-.17-.2c-.35-.42-.98-.49-1.41-.13Z"/>
    <path class="cls-2" d="M10.37,21.35c-.47-.29-1.09-.13-1.37,.34-.29,.47-.13,1.09,.34,1.37,1.55,.94,3.34,1.43,5.16,1.43,.55,0,1-.45,1-1s-.45-1-1-1c-1.46,0-2.88-.4-4.13-1.15Z"/>
    <path class="cls-2" d="M14.5,1C7.06,1,1,7.06,1,14.5s6.06,13.5,13.5,13.5c.63,0,1.25-.04,1.84-.13,.55-.08,.92-.59,.84-1.13-.08-.55-.59-.93-1.13-.84-.5,.07-1.02,.11-1.56,.11-4.25,0-7.96-2.32-9.95-5.76,1.33-2.3,3.43-4.09,5.91-5.03,1.01,1.1,2.44,1.79,4.05,1.79s3.04-.69,4.05-1.79c1.19,.45,2.3,1.08,3.29,1.91,.19,.16,.42,.23,.64,.23,.29,0,.57-.12,.77-.36,.35-.42,.3-1.05-.12-1.41-1.06-.89-2.24-1.6-3.5-2.11,.24-.62,.37-1.28,.37-1.98,0-3.03-2.47-5.5-5.5-5.5s-5.5,2.47-5.5,5.5c0,.7,.14,1.37,.38,1.98-2.32,.96-4.33,2.56-5.8,4.59-.37-1.13-.58-2.33-.58-3.57C3,8.16,8.16,3,14.5,3s11.5,5.16,11.5,11.5c0,.53-.04,1.06-.11,1.56-.08,.55,.3,1.05,.84,1.13,.54,.09,1.05-.3,1.13-.84,.09-.59,.13-1.22,.13-1.84,0-7.44-6.06-13.5-13.5-13.5Zm0,7c1.93,0,3.5,1.57,3.5,3.5s-1.57,3.5-3.5,3.5-3.5-1.57-3.5-3.5,1.57-3.5,3.5-3.5Z"/>
  </g>
  <path class="cls-1" d="M25,19c-3.31,0-6,2.69-6,6s2.69,6,6,6,6-2.69,6-6-2.69-6-6-6Zm2.5,7h-1.5v1.5c0,.55-.45,1-1,1s-1-.45-1-1v-1.5h-1.5c-.55,0-1-.45-1-1s.45-1,1-1h1.5v-1.5c0-.55,.45-1,1-1s1,.45,1,1v1.5h1.5c.55,0,1,.45,1,1s-.45,1-1,1Z"/>
</svg>