<?xml version="1.0" encoding="UTF-8"?>
<svg id="OBJECT" xmlns="http://www.w3.org/2000/svg" viewBox="0 0 32 32">
  <defs>
    <style>
      .cls-1 {
        fill: #FD4360;
      }

      .cls-1, .cls-2 {
        stroke-width: 0px;
      }

      .cls-2 {
        fill: #dadada;
      }
    </style>
  </defs>
  <path class="cls-1" d="m7.76,8.68l3.45,6.37c.16.29.47.48.8.48s.64-.18.8-.48l3.43-6.33c.28-.46.46-.85.57-1.25.43-1.48.17-3.06-.71-4.34-.84-1.22-2.15-1.99-3.61-2.12-.32-.03-.65-.03-.97,0-1.46.13-2.77.9-3.61,2.12-.88,1.28-1.13,2.86-.71,4.33.11.4.29.79.55,1.21Zm3.25-2.36c0-.55.45-1,1-1s1,.45,1,1v1c0,.55-.45,1-1,1s-1-.45-1-1v-1Z"/>
  <path class="cls-2" d="m30,7h-10.73c-.55,0-1,.45-1,1s.45,1,1,1h5.74l-12.86,10.95L3,9.81v-.81h1.74c.55,0,1-.45,1-1s-.45-1-1-1h-2.74c-.55,0-1,.45-1,1v22c0,.55.45,1,1,1h28c.55,0,1-.45,1-1V8c0-.55-.45-1-1-1Zm-7.12,12.56l6.12-5.21v11.99l-6.12-6.78Zm-11.56,2.45c.2.22.47.33.74.33.23,0,.46-.08.65-.24l15.39-13.1h.9v2.73l-8.2,6.98c-.21.17-.33.43-.35.7s.07.54.26.74l7.99,8.86h-3.58l-6.47-7.17c-.36-.4-.98-.44-1.39-.09l-8.52,7.26h-4.11l4.54-3.87c.21-.18.33-.43.35-.7s-.07-.53-.25-.73l-6.25-6.94v-3.97l8.32,9.22Zm11.1,6.99h-10.61l5.99-5.11,4.61,5.11Zm-19.42-1.25v-8l4.08,4.52-4.08,3.48Z"/>
</svg>