<?xml version="1.0" encoding="UTF-8"?>
<svg id="OBJECT" xmlns="http://www.w3.org/2000/svg" viewBox="0 0 32 32">
  <defs>
    <style>
      .cls-1 {
        fill: #FD4360;
      }

      .cls-1, .cls-2 {
        stroke-width: 0px;
      }

      .cls-2 {
        fill: #dadada;
      }
    </style>
  </defs>
  <path class="cls-1" d="m16,12c3.03,0,5.5-2.47,5.5-5.5s-2.47-5.5-5.5-5.5-5.5,2.47-5.5,5.5,2.47,5.5,5.5,5.5Zm-2.24-6.42h1.32v-1.32c0-.51.41-.92.92-.92s.92.41.92.92v1.32h1.32c.51,0,.92.41.92.92s-.41.92-.92.92h-1.32v1.32c0,.51-.41.92-.92.92s-.92-.41-.92-.92v-1.32h-1.32c-.51,0-.92-.41-.92-.92s.41-.92.92-.92Z"/>
  <path class="cls-2" d="m28.66,13.82h-.4l-1.29-4.35c-.31-1.24-1.42-2.11-2.7-2.11-.55,0-1,.45-1,1s.45,1,1,1c.36,0,.67.25.77.64l1.13,3.83H5.83l1.14-3.87c.09-.35.4-.6.76-.6.55,0,1-.45,1-1s-.45-1-1-1c-1.28,0-2.39.87-2.69,2.07l-1.3,4.4h-.4c-1.29,0-2.34,1.05-2.34,2.34v2.23c0,.55.45,1,1,1h.48l1.46,9.69c.2,1.11,1.17,1.92,2.3,1.92h19.51c1.13,0,2.1-.81,2.31-1.95l1.46-9.66h.48c.55,0,1-.45,1-1v-2.23c0-1.29-1.05-2.34-2.34-2.34Zm-25.66,2.34c0-.19.15-.34.34-.34h25.32c.19,0,.34.15.34.34v1.23H3v-1.23Zm17.01,8.82h-8.02l-.12-1.57h8.26l-.12,1.57Zm2.13-1.57h4.76l-.24,1.57h-4.64l.12-1.57Zm-2.28,3.57l-.16,2.02h-7.4l-.16-2.02h7.71Zm-14.75-3.57h4.76l.12,1.57h-4.64l-.24-1.57Zm6.61-2l-.16-2.02h8.88l-.16,2.02h-8.57Zm-2.16-2.02l.16,2.02h-4.9l-.3-2.02h5.05Zm-3.64,9.36l-.27-1.77h4.49l.16,2.02h-4.05c-.16,0-.3-.12-.33-.25Zm19.84.25h-4.05l.16-2.02h4.49l-.26,1.74c-.03.16-.17.28-.33.28Zm1.44-7.59h-4.9l.16-2.02h5.05l-.3,2.02Z"/>
</svg>