<?xml version="1.0" encoding="UTF-8"?>
<svg id="OBJECT" xmlns="http://www.w3.org/2000/svg" viewBox="0 0 32 32">
  <defs>
    <style>
      .cls-1 {
        fill: #FD4360;
      }

      .cls-1, .cls-2 {
        stroke-width: 0px;
      }

      .cls-2 {
        fill: #dadada;
      }
    </style>
  </defs>
  <g>
    <path class="cls-2" d="m21.87,13.86c-1.03-1.46-2.39-2.63-3.95-3.47.05-.29.08-.59.08-.9v-4.5c0-2.21-1.79-4-4-4h-3c-2.21,0-4,1.79-4,4v4.5c0,.3.03.59.08.87-3.72,1.99-6.08,5.88-6.08,10.13v4.5c0,1.65,1.35,3,3,3h10.46c.55,0,1-.45,1-1s-.45-1-1-1H4c-.55,0-1-.45-1-1v-4.5c0-3.41,1.85-6.52,4.77-8.2.96,1.62,2.72,2.7,4.73,2.7s3.77-1.09,4.73-2.71c1.18.68,2.21,1.6,3,2.73.19.28.5.42.82.42.2,0,.4-.06.58-.18.45-.32.56-.94.24-1.39Zm-9.37-.86c-1.93,0-3.5-1.57-3.5-3.5v-4.5c0-1.1.9-2,2-2h3c1.1,0,2,.9,2,2v4.5c0,1.93-1.57,3.5-3.5,3.5Z"/>
    <path class="cls-2" d="m6,22c-.55,0-1,.45-1,1s.45,1,1,1h1c.55,0,1-.45,1-1s-.45-1-1-1h-1Z"/>
    <path class="cls-2" d="m10,22c-.55,0-1,.45-1,1s.45,1,1,1h1c.55,0,1-.45,1-1s-.45-1-1-1h-1Z"/>
  </g>
  <path class="cls-1" d="m24,17c-3.86,0-7,3.14-7,7s3.14,7,7,7,7-3.14,7-7-3.14-7-7-7Zm3,8h-2v2c0,.55-.45,1-1,1s-1-.45-1-1v-2h-2c-.55,0-1-.45-1-1s.45-1,1-1h2v-2c0-.55.45-1,1-1s1,.45,1,1v2h2c.55,0,1,.45,1,1s-.45,1-1,1Z"/>
</svg>