<?xml version="1.0" encoding="UTF-8"?>
<svg id="OBJECT" xmlns="http://www.w3.org/2000/svg" viewBox="0 0 32 32">
  <defs>
    <style>
      .cls-1 {
        fill: #FD4360;
      }

      .cls-1, .cls-2 {
        stroke-width: 0px;
      }

      .cls-2 {
        fill: #dadada;
      }
    </style>
  </defs>
  <path class="cls-1" d="m13,7h6c.55,0,1-.45,1-1v-2.5c0-1.38-1.12-2.5-2.5-2.5h-3c-1.38,0-2.5,1.12-2.5,2.5v2.5c0,.55.45,1,1,1Z"/>
  <path class="cls-1" d="m9.75,22h12.5c1.38,0,2.5-1.12,2.5-2.5V5.5c0-1.38-1.12-2.5-2.5-2.5h-.3c.02.17.05.33.05.5v2.5c0,1.65-1.35,3-3,3h-6c-1.65,0-3-1.35-3-3v-2.5c0-.17.03-.33.05-.5h-.3c-1.38,0-2.5,1.12-2.5,2.5v14c0,1.38,1.12,2.5,2.5,2.5Zm8.62-1.5h-4.73c-.55,0-1-.45-1-1s.45-1,1-1h4.73c.55,0,1,.45,1,1s-.45,1-1,1Zm1.86-4h-.73c-.55,0-1-.45-1-1s.45-1,1-1h.73c.55,0,1,.45,1,1s-.45,1-1,1Zm-7.73-6h7.73c.55,0,1,.45,1,1s-.45,1-1,1h-7.73c-.55,0-1-.45-1-1s.45-1,1-1Zm0,4h4.33c.55,0,1,.45,1,1s-.45,1-1,1h-4.33c-.55,0-1-.45-1-1s.45-1,1-1Z"/>
  <path class="cls-2" d="m30,24.92h-.75v-10.25c0-1.52-1.23-2.75-2.75-2.75-.55,0-1,.45-1,1s.45,1,1,1c.41,0,.75.34.75.75v10.25H4.75v-10.25c0-.41.34-.75.75-.75.55,0,1-.45,1-1s-.45-1-1-1c-1.52,0-2.75,1.23-2.75,2.75v10.25h-.75c-.55,0-1,.45-1,1v2.33c0,1.52,1.23,2.75,2.75,2.75h24.5c1.52,0,2.75-1.23,2.75-2.75v-2.33c0-.55-.45-1-1-1Zm-1,3.33c0,.41-.34.75-.75.75H3.75c-.41,0-.75-.34-.75-.75v-1.33h26v1.33Z"/>
</svg>