<?xml version="1.0" encoding="UTF-8"?>
<svg id="OBJECT" xmlns="http://www.w3.org/2000/svg" viewBox="0 0 32 32">
  <defs>
    <style>
      .cls-1 {
        fill: #FD4360;
      }

      .cls-1, .cls-2 {
        stroke-width: 0px;
      }

      .cls-2 {
        fill: #dadada;
      }
    </style>
  </defs>
  <path class="cls-1" d="m14.82,14.66c0,.65.53,1.17,1.18,1.17s1.18-.53,1.18-1.17-.53-1.18-1.18-1.18-1.18.53-1.18,1.18Z"/>
  <path class="cls-1" d="m8.69,19.24c1.3-1.43,2.87-2.45,4.58-2.99-.28-.47-.45-1.01-.45-1.6,0-1.75,1.42-3.18,3.18-3.18s3.18,1.42,3.18,3.18c0,.59-.17,1.13-.45,1.6,1.71.53,3.28,1.56,4.58,2.99.44-.99.69-2.09.69-3.24,0-4.41-3.59-8-8-8s-8,3.59-8,8c0,1.15.25,2.25.69,3.24Z"/>
  <path class="cls-1" d="m16,17.83c-2.39,0-4.65,1.13-6.31,3.07,1.46,1.88,3.75,3.1,6.31,3.1s4.85-1.22,6.31-3.1c-1.67-1.94-3.92-3.07-6.31-3.07Z"/>
  <g>
    <path class="cls-2" d="m8.43,7.02c.35-.59.57-1.28.57-2.02,0-2.21-1.79-4-4-4S1,2.79,1,5s1.79,4,4,4c.74,0,1.42-.22,2.02-.57l1.27,1.27c.2.2.45.29.71.29s.51-.1.71-.29c.39-.39.39-1.02,0-1.41l-1.27-1.27Zm-5.43-2.02c0-1.1.9-2,2-2s2,.9,2,2-.9,2-2,2-2-.9-2-2Z"/>
    <path class="cls-2" d="m23,10c.26,0,.51-.1.71-.29l1.27-1.27c.59.35,1.28.57,2.02.57,2.21,0,4-1.79,4-4s-1.79-4-4-4-4,1.79-4,4c0,.74.22,1.42.57,2.02l-1.27,1.27c-.39.39-.39,1.02,0,1.41.2.2.45.29.71.29Zm4-7c1.1,0,2,.9,2,2s-.9,2-2,2-2-.9-2-2,.9-2,2-2Z"/>
    <path class="cls-2" d="m8.29,22.29l-1.27,1.27c-.59-.35-1.28-.57-2.02-.57-2.21,0-4,1.79-4,4s1.79,4,4,4,4-1.79,4-4c0-.74-.22-1.42-.57-2.02l1.27-1.27c.39-.39.39-1.02,0-1.41s-1.02-.39-1.41,0Zm-3.29,6.71c-1.1,0-2-.9-2-2s.9-2,2-2,2,.9,2,2-.9,2-2,2Z"/>
    <path class="cls-2" d="m27,23c-.74,0-1.42.22-2.02.57l-1.27-1.27c-.39-.39-1.02-.39-1.41,0s-.39,1.02,0,1.41l1.27,1.27c-.35.59-.57,1.28-.57,2.02,0,2.21,1.79,4,4,4s4-1.79,4-4-1.79-4-4-4Zm0,6c-1.1,0-2-.9-2-2s.9-2,2-2,2,.9,2,2-.9,2-2,2Z"/>
  </g>
</svg>