<?xml version="1.0" encoding="UTF-8"?>
<svg id="OBJECT" xmlns="http://www.w3.org/2000/svg" viewBox="0 0 32 32">
  <defs>
    <style>
      .cls-1 {
        fill: #FD4360;
      }

      .cls-1, .cls-2 {
        stroke-width: 0px;
      }

      .cls-2 {
        fill: #dadada;
      }
    </style>
  </defs>
  <g>
    <path class="cls-2" d="m24.5,6.04h.01c.39,0,.75.15,1.03.42s.43.64.42,1.04c0,.55.44,1,1,1h0c.55,0,1-.44,1-1,0-.93-.35-1.8-1.01-2.46-.66-.66-1.54-.99-2.46-1.01-.55,0-1,.45-1,1,0,.55.45,1,1,1Z"/>
    <path class="cls-2" d="m25.07,3h0c1.06-.04,2.04.4,2.78,1.14s1.15,1.73,1.14,2.78c0,.55.44,1,1,1h0c.55,0,1-.44,1-1,0-1.59-.61-3.09-1.73-4.21s-2.6-1.73-4.18-1.73h-.03c-.55,0-1,.45-1,1,0,.55.45,1,1,1Z"/>
    <path class="cls-2" d="m7.49,4.04c-.92,0-1.79.36-2.44,1.01-.66.66-1.01,1.53-1.01,2.46,0,.55.45,1,1,1h0c.55,0,1-.45,1-1,0-.39.15-.76.42-1.04s.64-.42,1.03-.42c0,0,0,0,.01,0,.55,0,1-.44,1-1,0-.55-.44-1-1-1h-.02Z"/>
    <path class="cls-2" d="m2,7.93h0c.55,0,1-.45,1-1,0-1.05.4-2.04,1.14-2.78s1.72-1.14,2.76-1.14c0,0,.02,0,.03,0,.55,0,1-.44,1-1,0-.55-.44-1-1-1h-.03c-1.58,0-3.06.61-4.18,1.73-1.12,1.12-1.73,2.62-1.73,4.21,0,.55.45,1,1,1Z"/>
    <path class="cls-2" d="m30,17H2c-.55,0-1,.45-1,1v7c0,3.31,2.69,6,6,6h18c3.31,0,6-2.69,6-6v-7c0-.55-.45-1-1-1Zm-1,8c0,2.21-1.79,4-4,4H7c-2.21,0-4-1.79-4-4v-1h11.2c.17,0,.32.08.42.22l1.55,2.33c.19.29.51.45.83.45.19,0,.38-.05.55-.17.46-.31.58-.93.28-1.39l-1.55-2.33c-.47-.7-1.24-1.11-2.08-1.11H3v-3h26v6Z"/>
    <path class="cls-2" d="m20.5,24h.5c.55,0,1-.45,1-1s-.45-1-1-1h-.5c-.55,0-1,.45-1,1s.45,1,1,1Z"/>
    <path class="cls-2" d="m24.5,24h.5c.55,0,1-.45,1-1s-.45-1-1-1h-.5c-.55,0-1,.45-1,1s.45,1,1,1Z"/>
  </g>
  <g>
    <rect class="cls-1" x="13" y="10" width="6" height="5"/>
    <path class="cls-1" d="m28.5,11h-6c-.55,0-1,.45-1,1s.45,1,1,1h1v2h4v-2h1c.55,0,1-.45,1-1s-.45-1-1-1Z"/>
    <path class="cls-1" d="m21.5,5c0-1.1-.9-2-2-2h-7c-1.1,0-2,.9-2,2v3h11v-3Z"/>
    <path class="cls-1" d="m9.5,11H3.5c-.55,0-1,.45-1,1s.45,1,1,1h1v2h4v-2h1c.55,0,1-.45,1-1s-.45-1-1-1Z"/>
  </g>
</svg>