<?xml version="1.0" encoding="UTF-8"?>
<svg id="OBJECT" xmlns="http://www.w3.org/2000/svg" viewBox="0 0 32 32">
  <defs>
    <style>
      .cls-1 {
        fill: #FD4360;
      }

      .cls-1, .cls-2 {
        stroke-width: 0px;
      }

      .cls-2 {
        fill: #dadada;
      }
    </style>
  </defs>
  <g>
    <path class="cls-2" d="m28,14H4c-1.65,0-3,1.35-3,3v3c0,.55.45,1,1,1h.5v4c0,3.31,2.69,6,6,6h15c3.31,0,6-2.69,6-6v-4h.5c.55,0,1-.45,1-1v-3c0-1.65-1.35-3-3-3Zm-25,3c0-.55.45-1,1-1h24c.55,0,1,.45,1,1v2H3v-2Zm24.5,8c0,2.21-1.79,4-4,4h-15c-2.21,0-4-1.79-4-4v-4h23v4Z"/>
    <path class="cls-2" d="m8,25h1c.55,0,1-.45,1-1s-.45-1-1-1h-1c-.55,0-1,.45-1,1s.45,1,1,1Z"/>
    <path class="cls-2" d="m13,25h1c.55,0,1-.45,1-1s-.45-1-1-1h-1c-.55,0-1,.45-1,1s.45,1,1,1Z"/>
    <path class="cls-2" d="m18,25h1c.55,0,1-.45,1-1s-.45-1-1-1h-1c-.55,0-1,.45-1,1s.45,1,1,1Z"/>
    <path class="cls-2" d="m23,25h1c.55,0,1-.45,1-1s-.45-1-1-1h-1c-.55,0-1,.45-1,1s.45,1,1,1Z"/>
  </g>
  <g>
    <path class="cls-1" d="m22,3c0-1.1-.9-2-2-2h-8c-1.1,0-2,.9-2,2v2h12v-2Z"/>
    <rect class="cls-1" x="13" y="7" width="6" height="5"/>
    <path class="cls-1" d="m28.5,9h-6c-.55,0-1,.45-1,1s.45,1,1,1h1v1h4v-1h1c.55,0,1-.45,1-1s-.45-1-1-1Z"/>
    <path class="cls-1" d="m9.5,9H3.5c-.55,0-1,.45-1,1s.45,1,1,1h1v1h4v-1h1c.55,0,1-.45,1-1s-.45-1-1-1Z"/>
  </g>
</svg>