<?xml version="1.0" encoding="UTF-8"?>
<svg id="OBJECT" xmlns="http://www.w3.org/2000/svg" viewBox="0 0 32 32">
  <defs>
    <style>
      .cls-1 {
        fill: #FD4360;
      }

      .cls-2 {
        fill: #dadada;
      }
    </style>
  </defs>
  <g>
    <path class="cls-2" d="M21,1H11c-.55,0-1,.45-1,1s.45,1,1,1h10c2.76,0,5,2.24,5,5V24c0,2.76-2.24,5-5,5h-1.5v-7.5c0-.55-.45-1-1-1s-1,.45-1,1v7.5h-6.5c-.55,0-1,.45-1,1s.45,1,1,1h10c3.86,0,7-3.14,7-7V8c0-3.86-3.14-7-7-7Z"/>
    <path class="cls-2" d="M23.5,12v-4c0-1.38-1.12-2.5-2.5-2.5h-5c-1.38,0-2.5,1.12-2.5,2.5v4c0,1.38,1.12,2.5,2.5,2.5h5c1.38,0,2.5-1.12,2.5-2.5Zm-8,0v-4c0-.28,.22-.5,.5-.5h5c.28,0,.5,.22,.5,.5v4c0,.28-.22,.5-.5,.5h-5c-.28,0-.5-.22-.5-.5Z"/>
    <path class="cls-2" d="M17.5,17.5v.5c0,.55,.45,1,1,1s1-.45,1-1v-.5c0-.55-.45-1-1-1s-1,.45-1,1Z"/>
  </g>
  <path class="cls-1" d="M8,1h-3c-.55,0-1,.45-1,1V30c0,.55,.45,1,1,1h3V1Z"/>
</svg>