<?xml version="1.0" encoding="UTF-8"?>
<svg id="OBJECT" xmlns="http://www.w3.org/2000/svg" viewBox="0 0 32 32">
  <defs>
    <style>
      .cls-1 {
        fill: #FD4360;
      }

      .cls-1, .cls-2 {
        stroke-width: 0px;
      }

      .cls-2 {
        fill: #dadada;
      }
    </style>
  </defs>
  <g>
    <path class="cls-2" d="m11.5,23.5h11c.55,0,1-.45,1-1v-5c0-.55-.45-1-1-1h-11c-.55,0-1,.45-1,1v5c0,.55.45,1,1,1Zm1-5h9v3h-9v-3Z"/>
    <path class="cls-2" d="m11.5,27.5h11c.55,0,1-.45,1-1s-.45-1-1-1h-11c-.55,0-1,.45-1,1s.45,1,1,1Z"/>
    <path class="cls-2" d="m28,6h-1v-1c0-2.21-1.79-4-4-4h-14c-.55,0-1,.45-1,1s.45,1,1,1h14c1.1,0,2,.9,2,2v1h-6c-1.65,0-3,1.35-3,3v2c0,1.65,1.35,3,3,3h6v13c0,1.1-.9,2-2,2h-14c-.55,0-1,.45-1,1s.45,1,1,1h14c2.21,0,4-1.79,4-4v-8h1c1.65,0,3-1.35,3-3v-7c0-1.65-1.35-3-3-3Zm1,3v3h-7v-4h6c.55,0,1,.45,1,1Zm-11,2v-2c0-.55.45-1,1-1h1v4h-1c-.55,0-1-.45-1-1Zm10,6h-1v-3h2v2c0,.55-.45,1-1,1Z"/>
  </g>
  <path class="cls-1" d="m1,2v28c0,.55.45,1,1,1h4V1H2c-.55,0-1,.45-1,1Z"/>
</svg>