<?xml version="1.0" encoding="UTF-8"?>
<svg id="OBJECT" xmlns="http://www.w3.org/2000/svg" viewBox="0 0 32 32">
  <defs>
    <style>
      .cls-1 {
        fill: #FD4360;
      }

      .cls-1, .cls-2 {
        stroke-width: 0px;
      }

      .cls-2 {
        fill: #dadada;
      }
    </style>
  </defs>
  <g>
    <path class="cls-2" d="m22,5h-1c-.55,0-1,.45-1,1s.45,1,1,1h1c.55,0,1-.45,1-1s-.45-1-1-1Z"/>
    <path class="cls-2" d="m18.21,5.91c-.19-.26-.49-.41-.81-.41s-.62.15-.81.41l-2.59,3.56-2.59-3.56c-.38-.52-1.24-.52-1.62,0l-5.1,7c-.33.45-.23,1.07.22,1.4.18.13.38.19.59.19.31,0,.61-.14.81-.41l4.29-5.89,4.29,5.89c.33.45.95.54,1.4.22.45-.33.54-.95.22-1.4l-1.27-1.74,2.16-2.97,3.7,5.08c.2.27.5.41.81.41.2,0,.41-.06.59-.19.45-.33.54-.95.22-1.4l-4.51-6.19Z"/>
    <path class="cls-2" d="m5.5,21c-.55,0-1,.45-1,1s.45,1,1,1h5c.55,0,1-.45,1-1s-.45-1-1-1h-5Z"/>
    <path class="cls-2" d="m26,1H2c-.55,0-1,.45-1,1v24c0,.55.45,1,1,1h11.68c.55,0,1-.45,1-1s-.45-1-1-1H3v-6h12.11c.55,0,1-.45,1-1s-.45-1-1-1H3V3h22v10.68c0,.55.45,1,1,1s1-.45,1-1V2c0-.55-.45-1-1-1Z"/>
  </g>
  <path class="cls-1" d="m23.5,16c-4.14,0-7.5,3.36-7.5,7.5s3.36,7.5,7.5,7.5,7.5-3.36,7.5-7.5-3.36-7.5-7.5-7.5Zm2.56,10.06c-.2.2-.45.29-.71.29s-.51-.1-.71-.29l-1.86-1.86c-.19-.19-.29-.44-.29-.71v-3.71c0-.55.45-1,1-1s1,.45,1,1v3.3l1.56,1.56c.39.39.39,1.02,0,1.41Z"/>
</svg>