<?xml version="1.0" encoding="UTF-8"?>
<svg id="OBJECT" xmlns="http://www.w3.org/2000/svg" viewBox="0 0 32 32">
  <defs>
    <style>
      .cls-1 {
        fill: #FD4360;
      }

      .cls-1, .cls-2 {
        stroke-width: 0px;
      }

      .cls-2 {
        fill: #dadada;
      }
    </style>
  </defs>
  <g>
    <path class="cls-2" d="m24,5.03c.55,0,1-.45,1-1v-2.03c0-.55-.45-1-1-1H5c-.55,0-1,.45-1,1v1h-2c-.55,0-1,.45-1,1s.45,1,1,1h2v6h-2c-.55,0-1,.45-1,1s.45,1,1,1h2v6h-2c-.55,0-1,.45-1,1s.45,1,1,1h2v6h-2c-.55,0-1,.45-1,1s.45,1,1,1h2v1c0,.55.45,1,1,1h19c.55,0,1-.45,1-1v-9.03c0-.55-.45-1-1-1s-1,.45-1,1v8.03h-12V3h12v1.03c0,.55.45,1,1,1Zm-15,23.97h-3V3h3v26Z"/>
    <path class="cls-2" d="m20,25h-6c-.55,0-1,.45-1,1s.45,1,1,1h6c.55,0,1-.45,1-1s-.45-1-1-1Z"/>
    <path class="cls-2" d="m20,21h-6c-.55,0-1,.45-1,1s.45,1,1,1h6c.55,0,1-.45,1-1s-.45-1-1-1Z"/>
  </g>
  <path class="cls-1" d="m24.5,6c-3.58,0-6.5,2.92-6.5,6.5s2.92,6.5,6.5,6.5,6.5-2.92,6.5-6.5-2.92-6.5-6.5-6.5Zm2.56,9.06c-.2.2-.45.29-.71.29s-.51-.1-.71-.29l-1.86-1.86c-.19-.19-.29-.44-.29-.71v-2.79c0-.55.45-1,1-1s1,.45,1,1v2.37l1.56,1.56c.39.39.39,1.02,0,1.41Z"/>
</svg>