<?xml version="1.0" encoding="UTF-8"?>
<svg id="OBJECT" xmlns="http://www.w3.org/2000/svg" viewBox="0 0 32 32">
  <defs>
    <style>
      .cls-1 {
        fill: #FD4360;
      }

      .cls-1, .cls-2 {
        stroke-width: 0px;
      }

      .cls-2 {
        fill: #dadada;
      }
    </style>
  </defs>
  <g>
    <path class="cls-2" d="m22,1H2c-.55,0-1,.45-1,1v28c0,.55.45,1,1,1h20c.55,0,1-.45,1-1V2c0-.55-.45-1-1-1Zm-1,28H3V3h18v26Z"/>
    <path class="cls-2" d="m5.5,27.5h13c.55,0,1-.45,1-1s-.45-1-1-1H5.5c-.55,0-1,.45-1,1s.45,1,1,1Z"/>
    <path class="cls-2" d="m9.5,19.5h9c.55,0,1-.45,1-1s-.45-1-1-1h-9c-.55,0-1,.45-1,1s.45,1,1,1Z"/>
    <path class="cls-2" d="m5.5,19.5h.5c.55,0,1-.45,1-1s-.45-1-1-1h-.5c-.55,0-1,.45-1,1s.45,1,1,1Z"/>
    <path class="cls-2" d="m5.5,23.5h13c.55,0,1-.45,1-1s-.45-1-1-1H5.5c-.55,0-1,.45-1,1s.45,1,1,1Z"/>
    <path class="cls-2" d="m12.75,12h-3c-.55,0-1,.45-1,1s.45,1,1,1h1.25v.5c0,.55.45,1,1,1s1-.45,1-1v-.53c1.26-.13,2.25-1.18,2.25-2.47,0-1.38-1.12-2.5-2.5-2.5h-1.5c-.28,0-.5-.22-.5-.5s.22-.5.5-.5h3c.55,0,1-.45,1-1s-.45-1-1-1h-1.25v-.5c0-.55-.45-1-1-1s-1,.45-1,1v.53c-1.26.13-2.25,1.18-2.25,2.47,0,1.38,1.12,2.5,2.5,2.5h1.5c.28,0,.5.22.5.5s-.22.5-.5.5Z"/>
  </g>
  <g>
    <path class="cls-1" d="m26,23.5c0,1.7.54,3.38,1.5,4.78v1.72c0,.55.45,1,1,1s1-.45,1-1v-1.72c.96-1.4,1.5-3.08,1.5-4.78v-13.5h-5v13.5Z"/>
    <path class="cls-1" d="m29,4h-1c-1.1,0-2,.9-2,2v2h5v-2c0-1.1-.9-2-2-2Z"/>
  </g>
</svg>