<?xml version="1.0" encoding="UTF-8"?>
<svg id="OBJECT" xmlns="http://www.w3.org/2000/svg" viewBox="0 0 32 32">
  <defs>
    <style>
      .cls-1 {
        fill: #FD4360;
      }

      .cls-1, .cls-2 {
        stroke-width: 0px;
      }

      .cls-2 {
        fill: #dadada;
      }
    </style>
  </defs>
  <g>
    <path class="cls-2" d="m18,7.66c.25,0,.5-.09.7-.29.4-.39.4-1.02.02-1.41-1.45-1.48-3.98-1.48-5.43,0-.39.4-.38,1.03.02,1.41.4.39,1.03.38,1.41-.02.69-.7,1.88-.7,2.57,0,.2.2.46.3.71.3Z"/>
    <path class="cls-2" d="m12.71,4.39c.88-.9,2.05-1.39,3.29-1.39s2.41.49,3.29,1.39c.2.2.46.3.71.3s.5-.09.7-.29c.4-.39.4-1.02.02-1.41-1.26-1.29-2.93-2-4.71-2s-3.46.71-4.71,2c-.39.4-.38,1.03.02,1.41.4.39,1.03.38,1.41-.02Z"/>
    <path class="cls-2" d="m15.78,8.2c-.55,0-1,.45-1,1s.45,1,1,1h.44c.55,0,1-.45,1-1s-.45-1-1-1h-.44Z"/>
    <path class="cls-2" d="m28.5,10.97H3.5c-1.38,0-2.5,1.12-2.5,2.5v9c0,1.38,1.12,2.5,2.5,2.5h1.5c.55,0,1-.45,1-1s-.45-1-1-1h-1.5c-.28,0-.5-.22-.5-.5v-9c0-.28.22-.5.5-.5h25c.28,0,.5.22.5.5v9c0,.28-.22.5-.5.5h-1.5c-.55,0-1,.45-1,1s.45,1,1,1h1.5c1.38,0,2.5-1.12,2.5-2.5v-9c0-1.38-1.12-2.5-2.5-2.5Z"/>
    <path class="cls-2" d="m23,13.97h-.5c-.55,0-1,.45-1,1s.45,1,1,1h.5c.55,0,1-.45,1-1s-.45-1-1-1Z"/>
    <path class="cls-2" d="m27,15.97c.55,0,1-.45,1-1s-.45-1-1-1h-.5c-.55,0-1,.45-1,1s.45,1,1,1h.5Z"/>
  </g>
  <path class="cls-1" d="m24,18.97H8c-.55,0-1,.45-1,1v5h18v-5c0-.55-.45-1-1-1Z"/>
  <path class="cls-1" d="m18.67,27c-.55,0-1,.45-1,1v2c0,.55.45,1,1,1s1-.45,1-1v-2c0-.55-.45-1-1-1Z"/>
  <path class="cls-1" d="m13.33,27c-.55,0-1,.45-1,1v2c0,.55.45,1,1,1s1-.45,1-1v-2c0-.55-.45-1-1-1Z"/>
  <path class="cls-1" d="m8,27c-.55,0-1,.45-1,1v2c0,.55.45,1,1,1s1-.45,1-1v-2c0-.55-.45-1-1-1Z"/>
  <path class="cls-1" d="m24,27c-.55,0-1,.45-1,1v2c0,.55.45,1,1,1s1-.45,1-1v-2c0-.55-.45-1-1-1Z"/>
</svg>