<?xml version="1.0" encoding="UTF-8"?>
<svg id="OBJECT" xmlns="http://www.w3.org/2000/svg" viewBox="0 0 32 32">
  <defs>
    <style>
      .cls-1 {
        fill: #FD4360;
      }

      .cls-1, .cls-2 {
        stroke-width: 0px;
      }

      .cls-2 {
        fill: #dadada;
      }
    </style>
  </defs>
  <g>
    <path class="cls-2" d="m28.5,9h-3.58c-.55,0-1,.45-1,1s.45,1,1,1h3.58c.28,0,.5.22.5.5v12c0,.28-.22.5-.5.5h-1v-2c0-1.65-1.35-3-3-3H7.5c-1.65,0-3,1.35-3,3v2h-1c-.28,0-.5-.22-.5-.5v-12c0-.28.22-.5.5-.5h3.58c.55,0,1-.45,1-1s-.45-1-1-1h-3.58c-1.38,0-2.5,1.12-2.5,2.5v12c0,1.38,1.12,2.5,2.5,2.5h25c1.38,0,2.5-1.12,2.5-2.5v-12c0-1.38-1.12-2.5-2.5-2.5ZM6.5,22c0-.55.45-1,1-1h17c.55,0,1,.45,1,1v2H6.5v-2Z"/>
    <path class="cls-2" d="m27,14c.55,0,1-.45,1-1s-.45-1-1-1h-.5c-.55,0-1,.45-1,1s.45,1,1,1h.5Z"/>
    <path class="cls-2" d="m5,12c-.55,0-1,.45-1,1s.45,1,1,1h.5c.55,0,1-.45,1-1s-.45-1-1-1h-.5Z"/>
    <path class="cls-2" d="m27,29h-2.07c-.19,0-.36-.11-.45-.28l-.59-1.17c-.25-.49-.85-.69-1.34-.45-.49.25-.69.85-.45,1.34l.59,1.17c.43.85,1.28,1.38,2.24,1.38h2.07c.55,0,1-.45,1-1s-.45-1-1-1Z"/>
    <path class="cls-2" d="m20,27c-.55,0-1,.45-1,1v2c0,.55.45,1,1,1s1-.45,1-1v-2c0-.55-.45-1-1-1Z"/>
    <path class="cls-2" d="m16,27c-.55,0-1,.45-1,1v2c0,.55.45,1,1,1s1-.45,1-1v-2c0-.55-.45-1-1-1Z"/>
    <path class="cls-2" d="m9.45,27.11c-.5-.25-1.1-.05-1.34.45l-.59,1.17c-.08.17-.26.28-.45.28h-2.07c-.55,0-1,.45-1,1s.45,1,1,1h2.07c.95,0,1.81-.53,2.24-1.38l.59-1.17c.25-.49.05-1.09-.45-1.34Z"/>
    <path class="cls-2" d="m12,27c-.55,0-1,.45-1,1v2c0,.55.45,1,1,1s1-.45,1-1v-2c0-.55-.45-1-1-1Z"/>
  </g>
  <path class="cls-1" d="m16,15c3.86,0,7-3.14,7-7s-3.14-7-7-7-7,3.14-7,7,3.14,7,7,7Zm.19-2.89h-.39c-.55,0-1-.45-1-1s.45-1,1-1h.39c.55,0,1,.45,1,1s-.45,1-1,1Zm2.26-2.49c-.19.19-.45.29-.7.29s-.52-.1-.71-.3c-.56-.56-1.52-.56-2.08,0-.39.39-1.02.4-1.41,0-.39-.39-.4-1.02,0-1.41,1.31-1.33,3.61-1.33,4.92,0,.39.39.39,1.03,0,1.41Zm-6.66-3.98c1.12-1.14,2.62-1.76,4.21-1.76s3.09.63,4.21,1.76c.39.39.39,1.03,0,1.41-.19.19-.45.29-.7.29s-.52-.1-.71-.3c-1.49-1.51-4.09-1.51-5.58,0-.39.39-1.02.4-1.41,0-.39-.39-.4-1.02,0-1.41Z"/>
</svg>