<?xml version="1.0" encoding="UTF-8"?>
<svg id="OBJECT" xmlns="http://www.w3.org/2000/svg" viewBox="0 0 32 32">
  <defs>
    <style>
      .cls-1 {
        fill: #FD4360;
      }

      .cls-2 {
        fill: #dadada;
      }
    </style>
  </defs>
  <path class="cls-2" d="M28.95,13.1l-1.41-.47-1.25-1.25c-.57-.57-1.32-.88-2.12-.88h-5.94l-3.29-7.68c-.47-1.1-1.56-1.82-2.76-1.82h-2.68c-.3,0-.59,.14-.78,.37-.19,.23-.26,.54-.2,.84l1.78,8.29h-3.52l-.43-1.73c-.33-1.34-1.53-2.27-2.91-2.27h-1.44c-.55,0-1,.45-1,1v4c0,.17,.05,.35,.13,.5l3.14,5.49c.71,1.24,2.04,2.02,3.47,2.02h1.22c.55,0,1-.45,1-1s-.45-1-1-1h-1.22c-.72,0-1.38-.39-1.74-1.01l-2.28-3.99H24.17c.27,0,.52,.1,.71,.29l1.41,1.41c.11,.11,.24,.19,.39,.24l1.63,.54c.41,.14,.68,.52,.68,.95v1.56h-7.57c-.55,0-1,.45-1,1s.45,1,1,1h8.57c.55,0,1-.45,1-1v-2.56c0-1.29-.82-2.44-2.05-2.85ZM10.74,3h1.44c.4,0,.76,.24,.92,.61l2.95,6.89h-3.71l-1.61-7.5ZM3.44,8.5c.46,0,.86,.31,.97,.76l.31,1.24h-1.72v-2h.44Z"/>
  <path class="cls-1" d="M17.23,15h-4.73c-.47,0-.88,.33-.98,.79l-3,14c-.06,.3,.01,.6,.2,.84,.19,.23,.48,.37,.78,.37h2.68c1.2,0,2.28-.71,2.76-1.82l4.58-10.7c.33-.77,.25-1.66-.21-2.36s-1.24-1.12-2.09-1.12Z"/>
</svg>