<?xml version="1.0" encoding="UTF-8"?>
<svg id="OBJECT" xmlns="http://www.w3.org/2000/svg" viewBox="0 0 32 32">
  <defs>
    <style>
      .cls-1 {
        fill: #FD4360;
      }

      .cls-2 {
        fill: #dadada;
      }
    </style>
  </defs>
  <path class="cls-2" d="M28,15h-1.52l-1.1-1.37c-.57-.72-1.43-1.13-2.34-1.13h-4.17l-3.56-7.12c-.43-.85-1.28-1.38-2.24-1.38h-3.07c-.32,0-.61,.15-.8,.4-.19,.25-.25,.58-.16,.88l2.16,7.21h-3.53l-1.37-3.43c-.38-.96-1.29-1.57-2.32-1.57h-1.98c-.55,0-1,.45-1,1v5c0,.14,.03,.27,.08,.39l2.61,6.09c.39,.92,1.3,1.52,2.3,1.52h2.96c.55,0,1-.45,1-1s-.45-1-1-1h-2.96c-.2,0-.38-.12-.46-.3l-2.01-4.7H23.04c.3,0,.59,.14,.78,.38l1.4,1.75c.19,.24,.48,.38,.78,.38h2c.55,0,1,.45,1,1v1.5h-8.75c-.55,0-1,.45-1,1s.45,1,1,1h9.75c.55,0,1-.45,1-1v-2.5c0-1.65-1.35-3-3-3ZM3.98,9.5c.21,0,.39,.12,.46,.31l1.07,2.69H3v-3h.98Zm7.36-3.5h1.73c.19,0,.36,.11,.45,.28l3.11,6.22h-3.34l-1.95-6.5Z"/>
  <path class="cls-1" d="M15.94,17h-3.28c-.4,0-.76,.27-.88,.65l-2.75,9.17c-.08,.28-.03,.58,.14,.81,.17,.23,.45,.37,.74,.37h2.82c.87,0,1.66-.49,2.05-1.27l3.21-6.42c.36-.72,.32-1.55-.1-2.23s-1.15-1.09-1.95-1.09Z"/>
</svg>