<?xml version="1.0" encoding="UTF-8"?>
<svg id="OBJECT" xmlns="http://www.w3.org/2000/svg" viewBox="0 0 32 32">
  <defs>
    <style>
      .cls-1 {
        fill: #FD4360;
      }

      .cls-1, .cls-2 {
        stroke-width: 0px;
      }

      .cls-2 {
        fill: #dadada;
      }
    </style>
  </defs>
  <g>
    <path class="cls-2" d="m18.75,7.33V3h.75c.55,0,1-.45,1-1s-.45-1-1-1h-7c-.55,0-1,.45-1,1s.45,1,1,1h.75v4.33c-5.29,1.25-9.25,6-9.25,11.67,0,6.62,5.38,12,12,12s12-5.38,12-12c0-5.67-3.96-10.42-9.25-11.67Zm-3.5-4.33h1.5v4.04c-.25-.02-.5-.04-.75-.04s-.5.02-.75.04V3Zm.75,26c-5.51,0-10-4.49-10-10s4.49-10,10-10,10,4.49,10,10-4.49,10-10,10Z"/>
    <path class="cls-2" d="m29.79,4.68l-1.47-1.47c-1.61-1.61-4.22-1.61-5.82,0l-1.21,1.21c-.39.39-.39,1.02,0,1.41l4.68,4.68c.53.53,1.22.79,1.91.79s1.38-.26,1.91-.79c.78-.78,1.21-1.81,1.21-2.91s-.43-2.13-1.21-2.91Zm-1.41,4.41c-.27.27-.72.27-1,0l-3.97-3.97.5-.5c.83-.83,2.17-.83,3,0l1.47,1.47c.4.4.62.93.62,1.5s-.22,1.1-.62,1.5Z"/>
    <path class="cls-2" d="m6.03,10.5l4.68-4.68c.39-.39.39-1.02,0-1.41l-1.21-1.21c-1.61-1.61-4.22-1.61-5.82,0l-1.47,1.47c-.78.78-1.21,1.81-1.21,2.91s.43,2.13,1.21,2.91c.53.53,1.22.79,1.91.79s1.39-.26,1.91-.79Zm-3.03-2.91c0-.57.22-1.1.62-1.5l1.47-1.47c.83-.83,2.17-.83,3,0l.5.5-3.97,3.97c-.27.27-.72.27-1,0-.4-.4-.62-.93-.62-1.5Z"/>
  </g>
  <path class="cls-1" d="m20.18,12.5h-8.36c-1.54,0-2.79,1.25-2.79,2.79v7.43c0,1.54,1.25,2.79,2.79,2.79h8.36c1.54,0,2.79-1.25,2.79-2.79v-7.43c0-1.54-1.25-2.79-2.79-2.79Zm-.18,6.5c0,1.65-1.35,3-3,3h-2c-1.65,0-3-1.35-3-3v-2c0-.55.45-1,1-1s1,.45,1,1v2c0,.55.45,1,1,1h2c.55,0,1-.45,1-1v-2c0-.55.45-1,1-1s1,.45,1,1v2Z"/>
</svg>