<?xml version="1.0" encoding="UTF-8"?>
<svg id="OBJECT" xmlns="http://www.w3.org/2000/svg" viewBox="0 0 32 32">
  <defs>
    <style>
      .cls-1 {
        fill: #FD4360;
      }

      .cls-1, .cls-2 {
        stroke-width: 0px;
      }

      .cls-2 {
        fill: #dadada;
      }
    </style>
  </defs>
  <g>
    <path class="cls-2" d="m25.5,26.84c2.16-2.32,3.5-5.42,3.5-8.84,0-6.22-4.4-11.44-10.25-12.7v-2.3h.25c.55,0,1-.45,1-1s-.45-1-1-1h-6c-.55,0-1,.45-1,1s.45,1,1,1h.25v2.3c-5.85,1.27-10.25,6.48-10.25,12.7,0,3.42,1.33,6.52,3.5,8.84l-2.24,2.49c-.37.41-.34,1.04.08,1.41.19.17.43.26.67.26.27,0,.55-.11.74-.33l2.22-2.47c2.21,1.75,5,2.8,8.04,2.8s5.82-1.05,8.04-2.8l2.22,2.47c.2.22.47.33.74.33.24,0,.48-.08.67-.26.41-.37.44-1,.08-1.41l-2.24-2.49ZM15.25,3h1.5v2.04c-.25-.01-.5-.04-.75-.04s-.5.02-.75.04v-2.04Zm-10.25,15c0-6.07,4.93-11,11-11s11,4.93,11,11-4.93,11-11,11-11-4.93-11-11Z"/>
    <path class="cls-2" d="m16,10.5c.55,0,1-.45,1-1v-.5c0-.55-.45-1-1-1s-1,.45-1,1v.5c0,.55.45,1,1,1Z"/>
    <path class="cls-2" d="m16,25.5c-.55,0-1,.45-1,1v.5c0,.55.45,1,1,1s1-.45,1-1v-.5c0-.55-.45-1-1-1Z"/>
    <path class="cls-2" d="m24.5,19h.5c.55,0,1-.45,1-1s-.45-1-1-1h-.5c-.55,0-1,.45-1,1s.45,1,1,1Z"/>
    <path class="cls-2" d="m7.5,17h-.5c-.55,0-1,.45-1,1s.45,1,1,1h.5c.55,0,1-.45,1-1s-.45-1-1-1Z"/>
    <path class="cls-2" d="m17,17.52v-3.52c0-.55-.45-1-1-1s-1,.45-1,1v4c0,.3.14.59.38.78l5,4c.18.15.4.22.62.22.29,0,.58-.13.78-.38.35-.43.28-1.06-.16-1.41l-4.62-3.7Z"/>
  </g>
  <g>
    <path class="cls-1" d="m30.71,7.66l-6.36-6.36c-.39-.39-1.02-.39-1.41,0s-.39,1.02,0,1.41l.71.71-1.1,1.1c2.15,1.04,4,2.58,5.43,4.47l.62-.62.71.71c.2.2.45.29.71.29s.51-.1.71-.29c.39-.39.39-1.02,0-1.41Z"/>
    <path class="cls-1" d="m9.07,2.71c.39-.39.39-1.02,0-1.41s-1.02-.39-1.41,0L1.29,7.66c-.39.39-.39,1.02,0,1.41.2.2.45.29.71.29s.51-.1.71-.29l.71-.71.62.62c1.43-1.89,3.28-3.42,5.43-4.47l-1.1-1.1.71-.71Z"/>
  </g>
</svg>