<?xml version="1.0" encoding="UTF-8"?>
<svg id="OBJECT" xmlns="http://www.w3.org/2000/svg" viewBox="0 0 32 32">
  <defs>
    <style>
      .cls-1 {
        fill: #FD4360;
      }

      .cls-2 {
        fill: #dadada;
      }
    </style>
  </defs>
  <g>
    <path class="cls-2" d="M15.42,3.4c-1.67-1.61-3.87-2.44-6.18-2.39C4.7,1.14,1.01,4.94,1,9.48c0,3.08,1.63,5.88,4.3,7.4l2.12,4.76c.37,.82,1.19,1.36,2.09,1.36s1.72-.53,2.09-1.36l2.12-4.76c2.66-1.51,4.3-4.31,4.3-7.38,0-2.32-.92-4.49-2.58-6.1Zm-2.95,11.88c-.2,.1-.36,.27-.46,.48l-2.25,5.07c-.09,.2-.43,.2-.52,0l-2.25-5.07c-.09-.21-.25-.38-.46-.48-2.18-1.13-3.54-3.34-3.53-5.79,0-3.47,2.83-6.38,6.3-6.48,.07,0,.14,0,.21,0,1.7,0,3.3,.65,4.52,1.83,1.27,1.24,1.98,2.89,1.98,4.67,0,2.44-1.35,4.66-3.53,5.78Z"/>
    <path class="cls-2" d="M9.5,4.75c-2.62,0-4.75,2.13-4.75,4.75s2.13,4.75,4.75,4.75,4.75-2.13,4.75-4.75-2.13-4.75-4.75-4.75Zm0,7.5c-1.52,0-2.75-1.23-2.75-2.75s1.23-2.75,2.75-2.75,2.75,1.23,2.75,2.75-1.23,2.75-2.75,2.75Z"/>
  </g>
  <path class="cls-1" d="M30.51,24.89l-5.89-10.09c-.65-1.11-1.84-1.79-3.12-1.79s-2.47,.69-3.12,1.79l-5.89,10.09c-.32,.55-.49,1.18-.49,1.82v.68c0,1.99,1.62,3.61,3.61,3.61h11.78c1.99,0,3.61-1.62,3.61-3.61v-.68c0-.64-.17-1.27-.49-1.82Zm-8.01,2.11c0,.55-.45,1-1,1s-1-.45-1-1v-.5c0-.55,.45-1,1-1s1,.45,1,1v.5Zm0-3.25c0,.55-.45,1-1,1s-1-.45-1-1v-5c0-.55,.45-1,1-1s1,.45,1,1v5Z"/>
</svg>