<?xml version="1.0" encoding="UTF-8"?>
<svg id="OBJECT" xmlns="http://www.w3.org/2000/svg" viewBox="0 0 512 512">
  <defs>
    <style>
      .cls-1 {
        fill: #FD4360;
      }

      .cls-2 {
        fill: #dadada;
      }
    </style>
  </defs>
  <g>
    <path class="cls-2" d="M489.5,0H22.5C10.09,0,0,10.09,0,22.5V489.5c0,12.41,10.09,22.5,22.5,22.5H489.5c12.41,0,22.5-10.09,22.5-22.5V22.5c0-12.41-10.09-22.5-22.5-22.5ZM22.5,15H489.5c4.14,0,7.5,3.36,7.5,7.5V60H15V22.5c0-4.14,3.36-7.5,7.5-7.5ZM489.5,497H22.5c-4.14,0-7.5-3.36-7.5-7.5V75H497V489.5c0,4.14-3.36,7.5-7.5,7.5Z"/>
    <path class="cls-2" d="M356,402H156c-12.41,0-22.5,10.09-22.5,22.5v30c0,12.41,10.09,22.5,22.5,22.5h200c12.41,0,22.5-10.09,22.5-22.5v-30c0-12.41-10.09-22.5-22.5-22.5Zm7.5,52.5c0,4.14-3.36,7.5-7.5,7.5H156c-4.14,0-7.5-3.36-7.5-7.5v-30c0-4.14,3.36-7.5,7.5-7.5h200c4.14,0,7.5,3.36,7.5,7.5v30Z"/>
    <path class="cls-2" d="M87.5,402h-30c-12.41,0-22.5,10.09-22.5,22.5v30c0,12.41,10.09,22.5,22.5,22.5h30c12.41,0,22.5-10.09,22.5-22.5v-30c0-12.41-10.09-22.5-22.5-22.5Zm7.5,52.5c0,4.14-3.36,7.5-7.5,7.5h-30c-4.14,0-7.5-3.36-7.5-7.5v-30c0-4.14,3.36-7.5,7.5-7.5h30c4.14,0,7.5,3.36,7.5,7.5v30Z"/>
    <path class="cls-2" d="M454.5,402h-30c-12.41,0-22.5,10.09-22.5,22.5v30c0,12.41,10.09,22.5,22.5,22.5h30c12.41,0,22.5-10.09,22.5-22.5v-30c0-12.41-10.09-22.5-22.5-22.5Zm7.5,52.5c0,4.14-3.36,7.5-7.5,7.5h-30c-4.14,0-7.5-3.36-7.5-7.5v-30c0-4.14,3.36-7.5,7.5-7.5h30c4.14,0,7.5,3.36,7.5,7.5v30Z"/>
    <path class="cls-2" d="M37.5,45h15c4.14,0,7.5-3.36,7.5-7.5s-3.36-7.5-7.5-7.5h-15c-4.14,0-7.5,3.36-7.5,7.5s3.36,7.5,7.5,7.5Z"/>
    <path class="cls-2" d="M87.5,45h15c4.14,0,7.5-3.36,7.5-7.5s-3.36-7.5-7.5-7.5h-15c-4.14,0-7.5,3.36-7.5,7.5s3.36,7.5,7.5,7.5Z"/>
    <path class="cls-2" d="M137.5,45h15c4.14,0,7.5-3.36,7.5-7.5s-3.36-7.5-7.5-7.5h-15c-4.14,0-7.5,3.36-7.5,7.5s3.36,7.5,7.5,7.5Z"/>
    <path class="cls-2" d="M404.56,157.52c1.32,2.62,3.96,4.14,6.71,4.14,1.13,0,2.28-.26,3.36-.8l26.7-13.41c3.7-1.86,5.2-6.37,3.34-10.07-1.86-3.7-6.37-5.2-10.07-3.34l-26.7,13.41c-3.7,1.86-5.2,6.37-3.34,10.07Z"/>
    <path class="cls-2" d="M410.04,96.23c-3.46-2.28-8.11-1.32-10.39,2.14l-16.42,24.96c-2.28,3.46-1.32,8.11,2.14,10.39,1.27,.84,2.7,1.23,4.11,1.23,2.44,0,4.83-1.19,6.27-3.38l16.42-24.96c2.28-3.46,1.32-8.11-2.14-10.39Z"/>
    <path class="cls-2" d="M412.18,187.11c-.24,4.14,2.92,7.68,7.05,7.92l29.83,1.74c.15,0,.3,.01,.44,.01,3.94,0,7.25-3.08,7.48-7.06,.24-4.14-2.92-7.68-7.05-7.92l-29.83-1.74c-4.15-.25-7.68,2.92-7.92,7.05Z"/>
    <path class="cls-2" d="M70.67,147.44l26.7,13.41c1.08,.54,2.23,.8,3.36,.8,2.75,0,5.39-1.51,6.71-4.14,1.86-3.7,.37-8.21-3.34-10.07l-26.7-13.41c-3.7-1.86-8.21-.37-10.07,3.34-1.86,3.7-.37,8.21,3.34,10.07Z"/>
    <path class="cls-2" d="M112.35,98.38c-2.28-3.46-6.93-4.42-10.39-2.14-3.46,2.28-4.42,6.93-2.14,10.39l16.42,24.96c1.44,2.19,3.83,3.38,6.27,3.38,1.41,0,2.84-.4,4.11-1.23,3.46-2.28,4.42-6.93,2.14-10.39l-16.42-24.96Z"/>
    <path class="cls-2" d="M62.49,196.78c.15,0,.29,0,.44-.01l29.83-1.74c4.13-.24,7.29-3.79,7.05-7.92-.24-4.13-3.77-7.29-7.92-7.05l-29.83,1.74c-4.13,.24-7.29,3.79-7.05,7.92,.23,3.99,3.54,7.06,7.48,7.06Z"/>
  </g>
  <g>
    <rect class="cls-1" x="93.5" y="337" width="325" height="40" rx="15" ry="15"/>
    <path class="cls-1" d="M303.5,202.5c0-26.19-21.31-47.5-47.5-47.5s-47.5,21.31-47.5,47.5,21.31,47.5,47.5,47.5,47.5-21.31,47.5-47.5Zm-22.5,7.5c-4.14,0-7.5-3.36-7.5-7.5,0-9.65-7.85-17.5-17.5-17.5s-17.5,7.85-17.5,17.5c0,4.14-3.36,7.5-7.5,7.5s-7.5-3.36-7.5-7.5c0-17.92,14.58-32.5,32.5-32.5s32.5,14.58,32.5,32.5c0,4.14-3.36,7.5-7.5,7.5Z"/>
    <path class="cls-1" d="M231,259.77c-22.05-9.66-37.5-31.69-37.5-57.27,0-34.46,28.04-62.5,62.5-62.5s62.5,28.04,62.5,62.5c0,25.58-15.45,47.6-37.5,57.27v62.23h102.5v-99.5c0-70.3-57.2-127.5-127.5-127.5s-127.5,57.2-127.5,127.5v99.5h102.5v-62.23Z"/>
    <path class="cls-1" d="M246,264.19v57.81h20v-57.81c-3.26,.53-6.6,.81-10,.81s-6.74-.28-10-.81Z"/>
  </g>
</svg>