<?xml version="1.0" encoding="UTF-8"?>
<svg id="OBJECT" xmlns="http://www.w3.org/2000/svg" viewBox="0 0 32 32">
  <defs>
    <style>
      .cls-1 {
        fill: #FD4360;
      }

      .cls-1, .cls-2 {
        stroke-width: 0px;
      }

      .cls-2 {
        fill: #dadada;
      }
    </style>
  </defs>
  <path class="cls-2" d="m28,23.14v-1.64c0-1.65-1.35-3-3-3h-8v-.5c0-.55-.45-1-1-1s-1,.45-1,1v.5H7c-1.65,0-3,1.35-3,3v1.64c-1.72.45-3,2-3,3.86,0,2.21,1.79,4,4,4s4-1.79,4-4c0-1.86-1.28-3.41-3-3.86v-1.64c0-.55.45-1,1-1h8v2.5c0,.06.02.11.03.17-1.67.48-2.9,2-2.9,3.83,0,2.21,1.79,4,4,4s4-1.79,4-4c0-1.91-1.35-3.51-3.15-3.9,0-.03.02-.06.02-.1v-2.5h8c.55,0,1,.45,1,1v1.64c-1.72.45-3,2-3,3.86,0,2.21,1.79,4,4,4s4-1.79,4-4c0-1.86-1.28-3.41-3-3.86Zm-21,3.86c0,1.1-.9,2-2,2s-2-.9-2-2,.9-2,2-2,2,.9,2,2Zm11.13,0c0,1.1-.9,2-2,2s-2-.9-2-2,.9-2,2-2,2,.9,2,2Zm8.87,2c-1.1,0-2-.9-2-2s.9-2,2-2,2,.9,2,2-.9,2-2,2Z"/>
  <path class="cls-1" d="m16,15c3.86,0,7-3.14,7-7s-3.14-7-7-7-7,3.14-7,7,3.14,7,7,7Zm.56-6.07h-1.12c-1.13,0-2.06-.92-2.06-2.06,0-1.01.73-1.84,1.69-2.02v-.23c0-.52.42-.93.93-.93s.93.42.93.93v.19h.75c.52,0,.93.42.93.93s-.42.93-.93.93h-2.25c-.1,0-.19.09-.19.19s.09.19.19.19h1.12c1.13,0,2.06.92,2.06,2.06,0,1.01-.73,1.84-1.69,2.02v.23c0,.52-.42.93-.93.93s-.93-.42-.93-.93v-.19h-.75c-.52,0-.93-.42-.93-.93s.42-.93.93-.93h2.25c.1,0,.19-.09.19-.19s-.09-.19-.19-.19Z"/>
</svg>