<?xml version="1.0" encoding="UTF-8"?>
<svg id="OBJECT" xmlns="http://www.w3.org/2000/svg" viewBox="0 0 32 32">
  <defs>
    <style>
      .cls-1 {
        fill: #FD4360;
      }

      .cls-1, .cls-2 {
        stroke-width: 0px;
      }

      .cls-2 {
        fill: #dadada;
      }
    </style>
  </defs>
  <g>
    <path class="cls-2" d="m24.63,13.3c-.39.4-.38,1.03.02,1.41.35.34.55.8.55,1.28s-.19.94-.55,1.29c-.39.39-.4,1.02-.02,1.41.2.2.46.3.71.3s.5-.09.7-.29c.74-.72,1.15-1.69,1.15-2.71s-.41-1.99-1.15-2.72c-.39-.38-1.03-.38-1.41.02Z"/>
    <path class="cls-2" d="m29,11.29c-.39-.39-1.03-.38-1.41.02-.39.4-.38,1.03.02,1.41.9.88,1.39,2.05,1.39,3.29s-.5,2.41-1.39,3.29c-.39.39-.4,1.02-.02,1.41.2.2.46.3.71.3s.5-.09.7-.29c1.29-1.26,2-2.93,2-4.71s-.71-3.46-2-4.71Z"/>
    <path class="cls-2" d="m22.8,14.78c-.55,0-1,.45-1,1v.44c0,.55.45,1,1,1s1-.45,1-1v-.44c0-.55-.45-1-1-1Z"/>
    <path class="cls-2" d="m16,1H5C2.79,1,1,2.79,1,5v22c0,2.21,1.79,4,4,4h11c2.21,0,4-1.79,4-4V5c0-2.21-1.79-4-4-4Zm2,26c0,1.1-.9,2-2,2H5c-1.1,0-2-.9-2-2V5c0-1.1.9-2,2-2h11c1.1,0,2,.9,2,2v22Z"/>
    <path class="cls-2" d="m16,13.39H5c-.55,0-1,.45-1,1s.45,1,1,1h11c.55,0,1-.45,1-1s-.45-1-1-1Z"/>
  </g>
  <path class="cls-1" d="m10.5,17c-3.03,0-5.5,2.47-5.5,5.5s2.47,5.5,5.5,5.5,5.5-2.47,5.5-5.5-2.47-5.5-5.5-5.5Zm2.21,6.29c.39.39.39,1.02,0,1.41-.2.2-.45.29-.71.29s-.51-.1-.71-.29l-.79-.79-.79.79c-.2.2-.45.29-.71.29s-.51-.1-.71-.29c-.39-.39-.39-1.02,0-1.41l.79-.79-.79-.79c-.39-.39-.39-1.02,0-1.41s1.02-.39,1.41,0l.79.79.79-.79c.39-.39,1.02-.39,1.41,0s.39,1.02,0,1.41l-.79.79.79.79Z"/>
  <path class="cls-1" d="m10.5,4c-2.21,0-4,1.79-4,4s1.79,4,4,4,4-1.79,4-4-1.79-4-4-4Zm.25,5h-.5c-.55,0-1-.45-1-1s.45-1,1-1h.5c.55,0,1,.45,1,1s-.45,1-1,1Z"/>
</svg>