<?xml version="1.0" encoding="UTF-8"?>
<svg id="OBJECT" xmlns="http://www.w3.org/2000/svg" viewBox="0 0 32 32">
  <defs>
    <style>
      .cls-1 {
        fill: #FD4360;
      }

      .cls-1, .cls-2 {
        stroke-width: 0px;
      }

      .cls-2 {
        fill: #dadada;
      }
    </style>
  </defs>
  <g>
    <path class="cls-2" d="m21.74,14.91c-.26-.49-.86-.68-1.35-.42-.49.26-.67.86-.42,1.35.68,1.29,1.02,2.68,1.02,4.15,0,4.96-4.04,9-9,9S3,24.96,3,20s4.04-9,9-9c1.47,0,2.87.34,4.15,1.02.49.26,1.09.07,1.35-.42.26-.49.07-1.09-.42-1.35-1.55-.82-3.31-1.26-5.09-1.26-6.07,0-11,4.93-11,11s4.93,11,11,11,11-4.93,11-11c0-1.77-.43-3.53-1.26-5.09Z"/>
    <path class="cls-2" d="m17.65,18c.23.62.35,1.3.35,2,0,3.31-2.69,6-6,6s-6-2.69-6-6,2.69-6,6-6c.71,0,1.38.12,2,.35.52.19,1.09-.07,1.28-.59.19-.52-.07-1.09-.59-1.29-.85-.31-1.75-.47-2.7-.47-4.41,0-8,3.59-8,8s3.59,8,8,8,8-3.59,8-8c0-.94-.16-1.85-.47-2.7-.19-.52-.77-.78-1.29-.59-.52.19-.78.77-.59,1.29Z"/>
    <path class="cls-2" d="m11.61,17.28c.55-.08.93-.58.85-1.13-.08-.55-.59-.93-1.13-.85-2.33.33-4.08,2.35-4.08,4.7,0,2.62,2.13,4.75,4.75,4.75,2.35,0,4.37-1.75,4.7-4.08.08-.55-.3-1.05-.85-1.13-.54-.08-1.05.3-1.13.85-.19,1.35-1.36,2.36-2.72,2.36-1.52,0-2.75-1.23-2.75-2.75,0-1.36,1.01-2.53,2.36-2.72Z"/>
  </g>
  <path class="cls-1" d="m30.97,7.43c-.08-.34-.33-.61-.66-.72l-3.77-1.26-1.26-3.77c-.11-.33-.38-.58-.72-.66-.34-.08-.69.02-.94.27l-3.08,3.08c-.81.81-1.09,1.98-.72,3.07l.83,2.48-9.37,9.37c-.39.39-.39,1.02,0,1.41.2.2.45.29.71.29s.51-.1.71-.29l9.37-9.37,2.48.83c.31.1.64.16.95.16.78,0,1.54-.31,2.11-.88l3.08-3.08c.25-.25.35-.6.27-.94Z"/>
</svg>