<?xml version="1.0" encoding="UTF-8"?>
<svg id="OBJECT" xmlns="http://www.w3.org/2000/svg" viewBox="0 0 32 32">
  <defs>
    <style>
      .cls-1 {
        fill: #FD4360;
      }

      .cls-1, .cls-2 {
        stroke-width: 0px;
      }

      .cls-2 {
        fill: #dadada;
      }
    </style>
  </defs>
  <g>
    <path class="cls-2" d="m21.74,14.91c-.26-.49-.86-.67-1.35-.42-.49.26-.67.86-.42,1.35.68,1.28,1.02,2.68,1.02,4.15,0,4.96-4.04,9-9,9S3,24.96,3,20s4.04-9,9-9c1.47,0,2.87.34,4.15,1.02.49.26,1.09.07,1.35-.42.26-.49.07-1.09-.42-1.35-1.55-.82-3.31-1.26-5.09-1.26-6.07,0-11,4.93-11,11s4.93,11,11,11,11-4.93,11-11c0-1.77-.43-3.53-1.26-5.09Z"/>
    <path class="cls-2" d="m16.83,18.73c.11.4.17.83.17,1.27,0,2.76-2.24,5-5,5s-5-2.24-5-5,2.24-5,5-5c.45,0,.88.06,1.27.17.53.15,1.08-.16,1.24-.69.15-.53-.16-1.08-.69-1.24-.58-.17-1.19-.25-1.82-.25-3.86,0-7,3.14-7,7s3.14,7,7,7,7-3.14,7-7c0-.63-.08-1.25-.25-1.82-.15-.53-.7-.84-1.24-.69-.53.15-.84.71-.69,1.24Z"/>
  </g>
  <path class="cls-1" d="m30.97,7.43c-.08-.34-.33-.61-.66-.72l-3.77-1.26-1.26-3.77c-.11-.33-.38-.58-.72-.66-.34-.08-.69.02-.94.27l-3.35,3.35c-1.08,1.08-1.45,2.65-.97,4.09l.63,1.9-7.96,7.96-.29-.29c-.39-.39-1.02-.39-1.41,0s-.39,1.02,0,1.41l2,2c.2.2.45.29.71.29s.51-.1.71-.29c.39-.39.39-1.02,0-1.41l-.29-.29,7.96-7.96,1.9.63c.42.14.85.21,1.27.21,1.04,0,2.05-.41,2.82-1.17l3.35-3.35c.25-.25.35-.6.27-.94Z"/>
</svg>