<?xml version="1.0" encoding="UTF-8"?>
<svg id="OBJECT" xmlns="http://www.w3.org/2000/svg" viewBox="0 0 32 32">
  <defs>
    <style>
      .cls-1 {
        fill: #FD4360;
      }

      .cls-2 {
        fill: #dadada;
      }
    </style>
  </defs>
  <g>
    <path class="cls-2" d="m24,18c0-3.9-1.95-7.5-5.21-9.63-.46-.3-1.08-.17-1.38.29-.3.46-.17,1.08.29,1.38,2.7,1.76,4.31,4.73,4.31,7.95,0,5.24-4.26,9.5-9.5,9.5S3,23.24,3,18s3.88-9.14,8.84-9.48c.55-.04.97-.52.93-1.07-.04-.55-.52-.97-1.07-.93-6,.42-10.7,5.46-10.7,11.48,0,2,.51,3.88,1.42,5.52l-.91,6.34c-.04.29.04.58.23.8.19.22.47.34.76.34h4c.4,0,.76-.24.92-.61l.75-1.75c1.34.55,2.8.85,4.33.85s2.99-.31,4.33-.85l.75,1.75c.16.37.52.61.92.61h4c.29,0,.57-.13.76-.34.19-.22.28-.51.23-.8l-.91-6.34c.9-1.64,1.42-3.52,1.42-5.52ZM5.84,29h-2.19l.45-3.17c.68.72,1.44,1.36,2.28,1.89l-.55,1.28Zm15.51,0h-2.19l-.55-1.28c.84-.53,1.61-1.17,2.28-1.89l.45,3.17Z"/>
    <path class="cls-2" d="m15.41,13.35c1.62,1,2.59,2.74,2.59,4.65,0,3.03-2.47,5.5-5.5,5.5s-5.5-2.47-5.5-5.5c0-2.15,1.27-4.12,3.24-5.01.5-.23.73-.82.5-1.32-.23-.5-.82-.73-1.32-.5-2.68,1.22-4.42,3.9-4.42,6.83,0,4.14,3.36,7.5,7.5,7.5s7.5-3.36,7.5-7.5c0-2.61-1.32-4.98-3.53-6.35-.47-.29-1.09-.15-1.38.32-.29.47-.15,1.09.32,1.38Z"/>
  </g>
  <path class="cls-1" d="m29.28,4.5l1.5-1.88c.24-.3.29-.71.12-1.06-.17-.35-.52-.57-.9-.57h-5c-.3,0-.59.14-.78.38l-1.72,2.15c-6.11.27-11,5.3-11,11.47v2h-1c-.55,0-1,.45-1,1s.45,1,1,1h4c.55,0,1-.45,1-1s-.45-1-1-1h-1v-2c0-5.08,4.01-9.23,9.04-9.48l1.68,2.1c.19.24.48.38.78.38h5c.38,0,.73-.22.9-.57.17-.35.12-.76-.12-1.06l-1.5-1.88Z"/>
</svg>