<?xml version="1.0" encoding="UTF-8"?>
<svg id="OBJECT" xmlns="http://www.w3.org/2000/svg" viewBox="0 0 32 32">
  <defs>
    <style>
      .cls-1 {
        fill: #FD4360;
      }

      .cls-1, .cls-2 {
        stroke-width: 0px;
      }

      .cls-2 {
        fill: #dadada;
      }
    </style>
  </defs>
  <g>
    <path class="cls-2" d="m21.74,14.91c-.26-.49-.86-.67-1.35-.42-.49.26-.67.86-.42,1.35.68,1.28,1.02,2.68,1.02,4.15,0,4.96-4.04,9-9,9S3,24.96,3,20s4.04-9,9-9c1.47,0,2.87.34,4.15,1.02.49.26,1.09.07,1.35-.42.26-.49.07-1.09-.42-1.35-1.55-.82-3.31-1.26-5.09-1.26-6.07,0-11,4.93-11,11s4.93,11,11,11,11-4.93,11-11c0-1.77-.43-3.53-1.26-5.09Z"/>
    <path class="cls-2" d="m16.83,18.73c.11.4.17.83.17,1.27,0,2.76-2.24,5-5,5s-5-2.24-5-5,2.24-5,5-5c.45,0,.88.06,1.27.17.53.15,1.08-.16,1.24-.69.15-.53-.16-1.08-.69-1.24-.58-.17-1.19-.25-1.82-.25-3.86,0-7,3.14-7,7s3.14,7,7,7,7-3.14,7-7c0-.63-.08-1.25-.25-1.82-.15-.53-.7-.84-1.24-.69-.53.15-.84.71-.69,1.24Z"/>
  </g>
  <path class="cls-1" d="m30.98,7.3c-.08-.33-.32-.61-.64-.72l-3.63-1.29-1.29-3.63c-.11-.32-.39-.57-.72-.64-.34-.08-.69.03-.93.27l-3.31,3.31c-.81.81-1.09,2.04-.71,3.12l.81,2.29-9.27,9.27c-.39.39-.39,1.02,0,1.41.2.2.45.29.71.29s.51-.1.71-.29l9.27-9.27,2.29.81c.33.12.66.17,1,.17.78,0,1.56-.31,2.13-.88l3.31-3.31c.24-.24.34-.59.27-.93Z"/>
</svg>