<?xml version="1.0" encoding="UTF-8" standalone="no"?>
<svg
   id="OBJECT"
   viewBox="0 0 32 32"
   version="1.1"
   sodipodi:docname="Amazon.svg"
   inkscape:version="1.2.2 (732a01da63, 2022-12-09)"
   xmlns:inkscape="http://www.inkscape.org/namespaces/inkscape"
   xmlns:sodipodi="http://sodipodi.sourceforge.net/DTD/sodipodi-0.dtd"
   xmlns:xlink="http://www.w3.org/1999/xlink"
   xmlns="http://www.w3.org/2000/svg"
   xmlns:svg="http://www.w3.org/2000/svg">
  <sodipodi:namedview
     id="namedview153"
     pagecolor="#505050"
     bordercolor="#ffffff"
     borderopacity="1"
     inkscape:showpageshadow="0"
     inkscape:pageopacity="0"
     inkscape:pagecheckerboard="1"
     inkscape:deskcolor="#505050"
     showgrid="false"
     inkscape:zoom="9.1592425"
     inkscape:cx="-20.307356"
     inkscape:cy="21.726687"
     inkscape:window-width="1920"
     inkscape:window-height="1009"
     inkscape:window-x="-8"
     inkscape:window-y="-8"
     inkscape:window-maximized="1"
     inkscape:current-layer="OBJECT" />
  <defs
     id="defs140">
    <style
       id="style138">
      .cls-1 {
        fill: #FD4360;
      }

      .cls-1, .cls-2 {
        stroke-width: 0px;
      }

      .cls-2 {
        fill: #dadada;
      }
    </style>
  </defs>
  <path
     d="m 19.616205,19.710581 c -1.719603,1.267487 -4.212065,1.943735 -6.358029,1.943735 -3.008988,0 -5.7178483,-1.112912 -7.7672059,-2.963903 -0.1610123,-0.145556 -0.016747,-0.343922 0.176468,-0.23057 2.2116574,1.286805 4.9462819,2.060951 7.7710709,2.060951 1.905091,0 4.000819,-0.394159 5.927806,-1.212097 0.291111,-0.123658 0.534561,0.190637 0.24989,0.401884"
     id="path8"
     style="fill:#dadada;stroke-width:0.0491322;fill-opacity:1" />
  <path
     d="m 20.331099,18.892643 c -0.218976,-0.280805 -1.45297,-0.132674 -2.006851,-0.06698 -0.168741,0.02061 -0.194501,-0.126234 -0.04251,-0.231858 0.982814,-0.691707 2.595509,-0.492052 2.783571,-0.260196 0.188059,0.233146 -0.04894,1.849705 -0.972513,2.621271 -0.14169,0.118508 -0.276939,0.05539 -0.213823,-0.101761 0.207384,-0.517812 0.672386,-1.678385 0.452122,-1.960477"
     id="path10"
     style="fill:#dadada;stroke-width:0.0491322;fill-opacity:1" />
  <path
     d="m 18.362891,13.710641 v -0.672385 c 0,-0.101761 0.07728,-0.170028 0.170029,-0.170028 h 3.010275 c 0.09661,0 0.173892,0.06955 0.173892,0.170028 v 0.575779 c -0.0012,0.09661 -0.08243,0.222839 -0.226704,0.422494 l -1.55988,2.227115 c 0.57964,-0.01417 1.191485,0.07213 1.717027,0.368393 0.118507,0.06699 0.150709,0.164877 0.159724,0.261484 v 0.717469 c 0,0.0979 -0.108195,0.212534 -0.221553,0.153283 -0.926138,-0.485612 -2.156267,-0.538424 -3.180302,0.0052 -0.10433,0.05667 -0.213823,-0.05667 -0.213823,-0.154572 v -0.681402 c 0,-0.109492 0.0012,-0.296262 0.110776,-0.462426 l 1.807196,-2.591647 h -1.57276 c -0.09661,0 -0.173894,-0.06827 -0.173894,-0.168741"
     id="path12"
     style="fill:#fd4360;stroke-width:0.0491322;fill-opacity:1" />
  <path
     d="M 7.381891,17.905963 H 6.4660561 c -0.087589,-0.0065 -0.157147,-0.07213 -0.163588,-0.15586 V 13.04985 c 0,-0.09403 0.078576,-0.168741 0.1764696,-0.168741 h 0.854006 c 0.088879,0.0038 0.1597247,0.07213 0.1661652,0.157147 v 0.614422 h 0.016747 c 0.2228391,-0.593813 0.6414687,-0.870753 1.2056553,-0.870753 0.5732016,0 0.9312916,0.27694 1.1889106,0.870753 0.2215522,-0.593813 0.7251962,-0.870753 1.2649092,-0.870753 0.383852,0 0.80377,0.158437 1.0601,0.51395 0.289822,0.395445 0.230568,0.969935 0.230568,1.47358 l -0.0012,2.96648 c 0,0.09403 -0.07857,0.170028 -0.176469,0.170028 h -0.914572 c -0.09145,-0.0065 -0.164875,-0.07987 -0.164875,-0.170028 v -2.491173 c 0,-0.198368 0.01803,-0.692995 -0.02576,-0.881058 -0.06827,-0.315581 -0.273076,-0.404461 -0.538423,-0.404461 -0.221553,0 -0.453409,0.148131 -0.54744,0.385142 -0.09403,0.237008 -0.08501,0.63374 -0.08501,0.900377 v 2.491173 c 0,0.09403 -0.07857,0.170028 -0.1764703,0.170028 H 8.9212347 C 8.8284917,17.899463 8.756359,17.826093 8.756359,17.735935 l -0.00122,-2.491173 c 0,-0.524254 0.086302,-1.295823 -0.5641848,-1.295823 -0.6582152,0 -0.6324543,0.752247 -0.6324543,1.295823 v 2.491173 c 0,0.09403 -0.078574,0.170028 -0.1764696,0.170028"
     id="path14"
     style="fill:#fd4360;stroke-width:0.0491322;fill-opacity:1" />
  <path
     d="m 24.308731,12.781925 c 1.358941,0 2.094441,1.167014 2.094441,2.650898 0,1.433648 -0.812787,2.571034 -2.094441,2.571034 -1.334463,0 -2.06095,-1.167012 -2.06095,-2.62127 0,-1.463275 0.735503,-2.600662 2.06095,-2.600662 m 0.0077,0.959631 c -0.67496,0 -0.717467,0.919698 -0.717467,1.492901 0,0.57449 -0.009,1.800754 0.709739,1.800754 0.70974,0 0.74323,-0.989255 0.74323,-1.592084 0,-0.396733 -0.01675,-0.870751 -0.136538,-1.246874 -0.103045,-0.327176 -0.307853,-0.454697 -0.598964,-0.454697"
     id="path16"
     style="fill:#fd4360;stroke-width:0.0491322;fill-opacity:1" />
  <path
     d="m 28.165285,17.905963 h -0.91197 c -0.09145,-0.0065 -0.164875,-0.07987 -0.164875,-0.170028 l -0.0012,-4.701543 c 0.0077,-0.0863 0.08373,-0.153283 0.176468,-0.153283 h 0.848854 c 0.07986,0.0038 0.145553,0.05797 0.163589,0.131386 v 0.718755 h 0.01675 c 0.25633,-0.642758 0.615709,-0.949325 1.248162,-0.949325 0.410902,0 0.811501,0.148132 1.069121,0.553881 0.239586,0.376123 0.239586,1.008579 0.239586,1.463274 v 2.958752 c -0.01032,0.08244 -0.08631,0.148131 -0.176468,0.148131 h -0.91849 c -0.08373,-0.0065 -0.153293,-0.06827 -0.162309,-0.148131 V 15.20483 c 0,-0.513949 0.05925,-1.266197 -0.573201,-1.266197 -0.222838,0 -0.427647,0.14942 -0.529407,0.376124 -0.128808,0.287246 -0.145553,0.573202 -0.145553,0.890073 v 2.531105 c -0.0012,0.09403 -0.08115,0.170028 -0.179045,0.170028"
     id="path18"
     style="fill:#fd4360;stroke-width:0.0491322;fill-opacity:1" />
  <use
     xlink:href="#path30"
     transform="translate(12.00632)"
     id="use28"
     style="fill:#fd4360;fill-opacity:1"
     x="0"
     y="0" />
  <path
     d="m 3.9568511,15.660815 v -0.198366 c -0.6620807,0 -1.3615154,0.141691 -1.3615154,0.922274 0,0.395446 0.2048065,0.66337 0.5564566,0.66337 0.2576186,0 0.4881866,-0.158436 0.633742,-0.416056 0.1803333,-0.316871 0.1713168,-0.614419 0.1713168,-0.971222 m 0.9235636,2.232266 c -0.060538,0.0541 -0.1481316,0.05797 -0.2164004,0.0219 -0.3039915,-0.252469 -0.3580904,-0.369686 -0.525543,-0.61056 -0.5023554,0.512661 -0.8578685,0.665944 -1.5096447,0.665944 -0.7702809,0 -1.3705319,-0.475307 -1.3705319,-1.427207 0,-0.74323 0.4031728,-1.249451 0.9763756,-1.496765 0.4972031,-0.218977 1.1914855,-0.257619 1.7221808,-0.318159 v -0.118507 c 0,-0.217689 0.016746,-0.475307 -0.1107763,-0.663368 C 3.734014,13.777618 3.5201861,13.70806 3.3321244,13.70806 c -0.3490727,0 -0.6607927,0.179046 -0.7367899,0.550017 -0.01545,0.08243 -0.076,0.163588 -0.158435,0.167452 l -0.8887844,-0.09531 c -0.074715,-0.01675 -0.1571481,-0.07728 -0.136539,-0.191925 0.2048078,-1.076846 1.177318,-1.401447 2.0480707,-1.401447 0.445678,0 1.027896,0.118507 1.3795461,0.455985 0.4456817,0.416055 0.4031738,0.971222 0.4031738,1.575338 v 1.427211 c 0,0.428935 0.1777577,0.616996 0.3452089,0.848854 0.059253,0.08243 0.072133,0.181621 -0.00256,0.243449 -0.1867738,0.15586 -0.5191004,0.445682 -0.702011,0.607982 l -0.00252,-0.0025"
     id="path30"
     style="fill:#fd4360;stroke-width:0.0491322;fill-opacity:1" />
</svg>
