<?xml version="1.0" encoding="UTF-8"?>
<svg id="OBJECT" xmlns="http://www.w3.org/2000/svg" viewBox="0 0 32 32">
  <defs>
    <style>
      .cls-1 {
        fill: #FD4360;
      }

      .cls-1, .cls-2 {
        stroke-width: 0px;
      }

      .cls-2 {
        fill: #dadada;
      }
    </style>
  </defs>
  <path class="cls-2" d="m30,1H2c-.55,0-1,.45-1,1s.45,1,1,1h3.05c-.18,2.39-.12,7.93,3.67,11.71.2.2.45.29.71.29s.51-.1.71-.29c.39-.39.39-1.02,0-1.41-1.04-1.04-1.75-2.27-2.22-3.53,5.06-.97,11.13-.97,16.18,0-.47,1.26-1.18,2.49-2.22,3.53-.39.39-.39,1.02,0,1.41.2.2.45.29.71.29s.51-.1.71-.29c3.78-3.78,3.84-9.32,3.67-11.71h3.05c.55,0,1-.45,1-1s-.45-1-1-1Zm-5.35,6.83c-5.39-1.07-11.9-1.07-17.29,0-.42-1.99-.38-3.82-.3-4.83h17.89c.08,1.02.12,2.85-.3,4.83Z"/>
  <g>
    <path class="cls-1" d="m30,29h-3.05c.08-1.09.11-2.83-.25-4.77-.03-.15-.07-.28-.1-.43-6.77-1.02-14.44-1.02-21.21,0-.03.14-.07.28-.1.43-.35,1.94-.32,3.68-.25,4.77h-3.05c-.55,0-1,.45-1,1s.45,1,1,1h28c.55,0,1-.45,1-1s-.45-1-1-1Zm-16-2h-1c-.55,0-1-.45-1-1s.45-1,1-1h1c.55,0,1,.45,1,1s-.45,1-1,1Zm5,0h-1c-.55,0-1-.45-1-1s.45-1,1-1h1c.55,0,1,.45,1,1s-.45,1-1,1Z"/>
    <path class="cls-1" d="m26.01,21.69c-.68-1.87-1.72-3.45-3.07-4.69h-13.88c-1.35,1.24-2.38,2.82-3.07,4.69,6.44-.88,13.57-.88,20.01,0Z"/>
  </g>
</svg>