<?xml version="1.0" encoding="UTF-8"?>
<svg id="OBJECT" xmlns="http://www.w3.org/2000/svg" viewBox="0 0 32 32">
  <defs>
    <style>
      .cls-1 {
        fill: #FD4360;
      }

      .cls-1, .cls-2 {
        stroke-width: 0px;
      }

      .cls-2 {
        fill: #dadada;
      }
    </style>
  </defs>
  <path class="cls-2" d="m28.79,1H3.21c-1.22,0-2.21.99-2.21,2.21v19.58c0,1.22.99,2.21,2.21,2.21h9.79v4h-6c-.55,0-1,.45-1,1s.45,1,1,1h18c.55,0,1-.45,1-1s-.45-1-1-1h-6v-4h9.79c1.22,0,2.21-.99,2.21-2.21V3.21c0-1.22-.99-2.21-2.21-2.21Zm-11.79,28h-2v-4h2v4Zm12-6.21c0,.12-.09.21-.21.21H3.21c-.12,0-.21-.09-.21-.21V3.21c0-.12.09-.21.21-.21h25.58c.12,0,.21.09.21.21v19.58Z"/>
  <g>
    <path class="cls-1" d="m26,19H6c-.55,0-1,.45-1,1s.45,1,1,1h20c.55,0,1-.45,1-1s-.45-1-1-1Z"/>
    <path class="cls-1" d="m12.48,13.26c0-.92-.74-1.66-1.66-1.66h-2.18c-.92,0-1.66.74-1.66,1.66v3.74h5.5v-3.74Z"/>
    <path class="cls-1" d="m18.75,7.26c0-.92-.74-1.66-1.66-1.66h-2.18c-.92,0-1.66.74-1.66,1.66v9.74h5.5V7.26Z"/>
    <path class="cls-1" d="m25,10.26c0-.92-.74-1.66-1.66-1.66h-2.18c-.92,0-1.66.74-1.66,1.66v6.74h5.5v-6.74Z"/>
  </g>
</svg>