<?xml version="1.0" encoding="UTF-8"?>
<svg id="OBJECT" xmlns="http://www.w3.org/2000/svg" viewBox="0 0 32 32">
  <defs>
    <style>
      .cls-1 {
        fill: #FD4360;
      }

      .cls-2 {
        fill: #dadada;
      }
    </style>
  </defs>
  <g>
    <path class="cls-2" d="M14,15.5c.55,0,1-.45,1-1s-.45-1-1-1H7v-3h3c.55,0,1-.45,1-1s-.45-1-1-1h-3v-1.5c0-.55-.45-1-1-1s-1,.45-1,1v15c0,.55,.45,1,1,1s1-.45,1-1v-1.5h5c.55,0,1-.45,1-1s-.45-1-1-1H7v-3h7Z"/>
    <path class="cls-2" d="M21.71,7.29L15.71,1.29c-.19-.19-.44-.29-.71-.29H3.5c-1.38,0-2.5,1.12-2.5,2.5V24.5c0,1.38,1.12,2.5,2.5,2.5H14.69c.55,0,1-.45,1-1s-.45-1-1-1H3.5c-.28,0-.5-.22-.5-.5V3.5c0-.28,.22-.5,.5-.5H14v3.5c0,1.38,1.12,2.5,2.5,2.5h3.5v4c0,.55,.45,1,1,1s1-.45,1-1v-5c0-.27-.11-.52-.29-.71Zm-5.71-.79v-2.09l2.59,2.59h-2.09c-.28,0-.5-.22-.5-.5Z"/>
  </g>
  <g>
    <path class="cls-1" d="M30.49,27.83l-2.67-2.67c-.66,1.09-1.58,2-2.66,2.66l2.67,2.67c.34,.34,.78,.51,1.22,.51s.89-.17,1.22-.51l.22-.22c.67-.67,.67-1.77,0-2.44Z"/>
    <path class="cls-1" d="M27,21c0-3.31-2.69-6-6-6s-6,2.69-6,6,2.69,6,6,6,6-2.69,6-6Zm-2.8-.89l-3.27,3.2c-.19,.19-.45,.29-.7,.29s-.51-.1-.7-.29l-1.73-1.7c-.39-.39-.4-1.02-.01-1.41,.39-.39,1.02-.4,1.41-.01l1.03,1.01,2.57-2.51c.39-.39,1.03-.38,1.41,.01,.39,.39,.38,1.03-.01,1.41Z"/>
  </g>
</svg>