<?xml version="1.0" encoding="UTF-8"?>
<svg id="OBJECT" xmlns="http://www.w3.org/2000/svg" viewBox="0 0 32 32">
  <defs>
    <style>
      .cls-1 {
        fill: #FD4360;
      }

      .cls-1, .cls-2 {
        stroke-width: 0px;
      }

      .cls-2 {
        fill: #dadada;
      }
    </style>
  </defs>
  <path class="cls-2" d="m30,29h-1V8.5c0-1.38-1.12-2.5-2.5-2.5h-2c-1.38,0-2.5,1.12-2.5,2.5v20.5h-2.5v-13.5c0-1.38-1.12-2.5-2.5-2.5h-2c-1.38,0-2.5,1.12-2.5,2.5v13.5h-2.5v-7.5c0-1.38-1.12-2.5-2.5-2.5h-2c-1.38,0-2.5,1.12-2.5,2.5v7.5h-1c-.55,0-1,.45-1,1s.45,1,1,1h28c.55,0,1-.45,1-1s-.45-1-1-1Zm-5.5-21h2c.28,0,.5.22.5.5v1.5h-3v-1.5c0-.28.22-.5.5-.5Zm-.5,4h3v17h-3V12Zm-9,3h2c.28,0,.5.22.5.5v1.5h-3v-1.5c0-.28.22-.5.5-.5Zm-.5,4h3v10h-3v-10Zm-9,2h2c.28,0,.5.22.5.5v1.5h-3v-1.5c0-.28.22-.5.5-.5Zm-.5,4h3v4h-3v-4Z"/>
  <path class="cls-1" d="m3.5,10h11c1.38,0,2.5-1.12,2.5-2.5V3.5c0-1.38-1.12-2.5-2.5-2.5H3.5c-1.38,0-2.5,1.12-2.5,2.5v4c0,1.38,1.12,2.5,2.5,2.5Zm5-5.5h5c.55,0,1,.45,1,1s-.45,1-1,1h-5c-.55,0-1-.45-1-1s.45-1,1-1Zm-5,.5c0-.55.45-1,1-1s1,.45,1,1v1c0,.55-.45,1-1,1s-1-.45-1-1v-1Z"/>
</svg>