<?xml version="1.0" encoding="UTF-8"?>
<svg id="OBJECT" xmlns="http://www.w3.org/2000/svg" viewBox="0 0 32 32">
  <defs>
    <style>
      .cls-1 {
        fill: #FD4360;
      }

      .cls-1, .cls-2 {
        stroke-width: 0px;
      }

      .cls-2 {
        fill: #dadada;
      }
    </style>
  </defs>
  <g>
    <path class="cls-2" d="m30,29h-10.5v-9.5c0-1.38-1.12-2.5-2.5-2.5h-2c-1.38,0-2.5,1.12-2.5,2.5v9.5h-2.5v-3.5c0-1.38-1.12-2.5-2.5-2.5h-2c-1.38,0-2.5,1.12-2.5,2.5v3.5h-1c-.55,0-1,.45-1,1s.45,1,1,1h28c.55,0,1-.45,1-1s-.45-1-1-1Zm-15.5-9.5c0-.28.22-.5.5-.5h2c.28,0,.5.22.5.5v9.5h-3v-9.5Zm-9.5,6c0-.28.22-.5.5-.5h2c.28,0,.5.22.5.5v3.5h-3v-3.5Z"/>
    <path class="cls-2" d="m2,19s.06,0,.08,0c9.91-.83,17.44-9.88,20.55-14.3l.38,2.4c.08.49.5.84.99.84.05,0,.11,0,.16-.01.54-.09.92-.6.83-1.15l-.79-4.94c-.09-.54-.59-.92-1.15-.83l-4.94.79c-.54.09-.92.6-.83,1.15.09.55.6.92,1.15.83l2.69-.43c-2.74,3.9-10,12.89-19.21,13.66-.55.05-.96.53-.91,1.08.04.52.48.92,1,.92Z"/>
  </g>
  <g>
    <path class="cls-1" d="m27.5,11h-4c-.83,0-1.5.67-1.5,1.5v1.5h7v-1.5c0-.83-.67-1.5-1.5-1.5Z"/>
    <rect class="cls-1" x="22" y="16" width="7" height="11"/>
  </g>
</svg>