<?xml version="1.0" encoding="UTF-8"?>
<svg id="OBJECT" xmlns="http://www.w3.org/2000/svg" viewBox="0 0 32 32">
  <defs>
    <style>
      .cls-1 {
        fill: #FD4360;
      }

      .cls-2 {
        fill: #dadada;
      }
    </style>
  </defs>
  <g>
    <path class="cls-2" d="M19.77,26.03l-4.29-4.29c.33-.85,.52-1.77,.52-2.73,0-4.14-3.36-7.5-7.5-7.5S1,14.87,1,19s3.36,7.5,7.5,7.5c.97,0,1.89-.19,2.73-.52l4.29,4.29c.49,.49,1.13,.73,1.77,.73s1.28-.24,1.77-.73l.71-.71c.97-.97,.97-2.56,0-3.54ZM3,19c0-3.03,2.47-5.5,5.5-5.5s5.5,2.47,5.5,5.5-2.47,5.5-5.5,5.5-5.5-2.47-5.5-5.5Zm15.35,9.15l-.71,.71c-.2,.2-.51,.2-.71,0l-3.9-3.9c.53-.41,1.01-.88,1.41-1.41l3.9,3.9c.19,.2,.19,.51,0,.71Z"/>
    <path class="cls-2" d="M10.29,16.7l-2.41,2.47-1.16-1.19c-.38-.39-1.02-.4-1.41-.02-.39,.39-.4,1.02-.02,1.41l1.87,1.92c.19,.19,.45,.3,.71,.3s.53-.11,.71-.3l3.13-3.2c.39-.4,.38-1.03-.02-1.41s-1.03-.38-1.41,.02Z"/>
  </g>
  <g>
    <rect class="cls-1" x="13" y="3.5" width="4" height="9" rx="1" ry="1"/>
    <path class="cls-1" d="M30.58,1.19c-.26-.19-.6-.24-.9-.14l-3.68,1.23v5.72c0,.55-.45,1-1,1s-1-.45-1-1V2.95l-5,1.67v6.77l1.5,.5v3.11c0,1.65,1.35,3,3,3h1c1.65,0,3-1.35,3-3v-.78l2.18,.73c.1,.04,.21,.05,.32,.05,.21,0,.41-.06,.58-.19,.26-.19,.42-.49,.42-.81V2c0-.32-.15-.62-.42-.81Zm-5.08,13.81c0,.55-.45,1-1,1h-1c-.55,0-1-.45-1-1v-2.45l3,1v1.45Z"/>
  </g>
</svg>