<?xml version="1.0" encoding="UTF-8"?>
<svg id="OBJECT" xmlns="http://www.w3.org/2000/svg" viewBox="0 0 32 32">
  <defs>
    <style>
      .cls-1 {
        fill: #FD4360;
      }

      .cls-2 {
        fill: #dadada;
      }
    </style>
  </defs>
  <g>
    <path class="cls-2" d="M25,1H2c-.55,0-1,.45-1,1V28.5c0,1.38,1.12,2.5,2.5,2.5H22.5c.55,0,1-.45,1-1s-.45-1-1-1H3.5c-.28,0-.5-.22-.5-.5V3H24V11.5c0,.55,.45,1,1,1s1-.45,1-1V2c0-.55-.45-1-1-1Z"/>
    <path class="cls-2" d="M4.5,26c0,.55,.45,1,1,1H21.5c.55,0,1-.45,1-1s-.45-1-1-1h-2V12c0-.55-.45-1-1-1s-1,.45-1,1v13h-3v-7c0-.55-.45-1-1-1s-1,.45-1,1v7h-3v-3c0-.55-.45-1-1-1s-1,.45-1,1v3h-2c-.55,0-1,.45-1,1Z"/>
    <path class="cls-2" d="M9.33,13.33h-3.33c-.55,0-1,.45-1,1s.45,1,1,1h1.5v.67c0,.55,.45,1,1,1s1-.45,1-1v-.68c1.39-.09,2.5-1.24,2.5-2.65s-1.2-2.67-2.67-2.67h-1.67c-.37,0-.67-.3-.67-.67s.3-.67,.67-.67h3.33c.55,0,1-.45,1-1s-.45-1-1-1h-1.5v-.67c0-.55-.45-1-1-1s-1,.45-1,1v.68c-1.39,.09-2.5,1.24-2.5,2.65s1.2,2.67,2.67,2.67h1.67c.37,0,.67,.3,.67,.67s-.3,.67-.67,.67Z"/>
    <path class="cls-2" d="M17.5,7c.55,0,1-.45,1-1s-.45-1-1-1h-.5c-.55,0-1,.45-1,1s.45,1,1,1h.5Z"/>
    <path class="cls-2" d="M21.5,5h-.5c-.55,0-1,.45-1,1s.45,1,1,1h.5c.55,0,1-.45,1-1s-.45-1-1-1Z"/>
  </g>
  <rect class="cls-1" x="24" y="14" width="7" height="4"/>
  <path class="cls-1" d="M24,27.43v-7.43h7v7.43c0,1.93-1.57,3.5-3.5,3.5h0c-1.93,0-3.5-1.57-3.5-3.5Z"/>
</svg>