<?xml version="1.0" encoding="UTF-8"?>
<svg id="OBJECT" xmlns="http://www.w3.org/2000/svg" viewBox="0 0 32 32">
  <defs>
    <style>
      .cls-1 {
        fill: #FD4360;
      }

      .cls-1, .cls-2 {
        stroke-width: 0px;
      }

      .cls-2 {
        fill: #dadada;
      }
    </style>
  </defs>
  <g>
    <path class="cls-2" d="m26.5,4H5.5c-1.65,0-3,1.35-3,3v14c0,.55.45,1,1,1s1-.45,1-1V7c0-.55.45-1,1-1h21c.55,0,1,.45,1,1v14c0,.55.45,1,1,1s1-.45,1-1V7c0-1.65-1.35-3-3-3Z"/>
    <path class="cls-2" d="m21.37,12.37h2.63c.55,0,1-.45,1-1s-.45-1-1-1h-.97v-.32c0-.55-.45-1-1-1s-1,.45-1,1v.35c-1.11.17-1.97,1.12-1.97,2.28,0,1.28,1.04,2.32,2.32,2.32h1.32c.17,0,.32.14.32.32s-.14.32-.32.32h-2.63c-.55,0-1,.45-1,1s.45,1,1,1h.97v.32c0,.55.45,1,1,1s1-.45,1-1v-.35c1.11-.17,1.97-1.12,1.97-2.28,0-1.28-1.04-2.32-2.32-2.32h-1.32c-.17,0-.32-.14-.32-.32s.14-.32.32-.32Z"/>
    <path class="cls-2" d="m15.89,10.71h-3.04c-.55,0-1,.45-1,1s.45,1,1,1h3.04c.55,0,1-.45,1-1s-.45-1-1-1Z"/>
    <path class="cls-2" d="m8,12.71h.62c.55,0,1-.45,1-1s-.45-1-1-1h-.62c-.55,0-1,.45-1,1s.45,1,1,1Z"/>
    <path class="cls-2" d="m15.89,15.28h-7.89c-.55,0-1,.45-1,1s.45,1,1,1h7.89c.55,0,1-.45,1-1s-.45-1-1-1Z"/>
  </g>
  <path class="cls-1" d="m1,24v1c0,1.65,1.35,3,3,3h24c1.65,0,3-1.35,3-3v-1H1Z"/>
</svg>