<?xml version="1.0" encoding="UTF-8"?>
<svg id="OBJECT" xmlns="http://www.w3.org/2000/svg" viewBox="0 0 32 32">
  <defs>
    <style>
      .cls-1 {
        fill: #FD4360;
      }

      .cls-1, .cls-2 {
        stroke-width: 0px;
      }

      .cls-2 {
        fill: #dadada;
      }
    </style>
  </defs>
  <path class="cls-1" d="m20.14,12.65l1.94,5.06,5.04-1.93c-.68-1.19-1.7-2.14-2.97-2.71-1.28-.57-2.67-.7-4.01-.41Z"/>
  <path class="cls-1" d="m15.57,16.35c-.71,1.59-.75,3.35-.13,4.97.5,1.3,1.4,2.37,2.55,3.11l2.44-5.47-2.14-5.59c-1.19.68-2.14,1.7-2.71,2.97Z"/>
  <path class="cls-1" d="m27.85,17.64l-5.6,2.15-2.44,5.48c.56.15,1.13.24,1.7.24.79,0,1.57-.14,2.33-.43,1.62-.62,2.9-1.84,3.61-3.42.57-1.28.7-2.67.41-4.01Z"/>
  <g>
    <path class="cls-2" d="m15.25,9h-6c-.55,0-1,.45-1,1s.45,1,1,1h6c.55,0,1-.45,1-1s-.45-1-1-1Z"/>
    <path class="cls-2" d="m9.25,15h3c.55,0,1-.45,1-1s-.45-1-1-1h-3c-.55,0-1,.45-1,1s.45,1,1,1Z"/>
    <path class="cls-2" d="m9.25,19h3c.55,0,1-.45,1-1s-.45-1-1-1h-3c-.55,0-1,.45-1,1s.45,1,1,1Z"/>
    <path class="cls-2" d="m9.25,23h4c.55,0,1-.45,1-1s-.45-1-1-1h-4c-.55,0-1,.45-1,1s.45,1,1,1Z"/>
    <path class="cls-2" d="m9.25,27h6c.55,0,1-.45,1-1s-.45-1-1-1h-6c-.55,0-1,.45-1,1s.45,1,1,1Z"/>
    <path class="cls-2" d="m22.5,11.6c.55,0,1-.45,1-1v-5.1c0-1.38-1.12-2.5-2.5-2.5h-2.3c-.23-1.14-1.24-2-2.45-2h-5c-1.21,0-2.22.86-2.45,2h-2.3c-1.38,0-2.5,1.12-2.5,2.5v23c0,1.38,1.12,2.5,2.5,2.5h14.5c1.38,0,2.5-1.12,2.5-2.5v-1.1c0-.55-.45-1-1-1s-1,.45-1,1v1.1c0,.28-.22.5-.5.5H6.5c-.28,0-.5-.22-.5-.5V5.5c0-.28.22-.5.5-.5h2.25v1c0,.55.45,1,1,1h8c.55,0,1-.45,1-1v-1h2.25c.28,0,.5.22.5.5v5.1c0,.55.45,1,1,1Zm-5.75-6.6h-6v-1.5c0-.28.22-.5.5-.5h5c.28,0,.5.22.5.5v1.5Z"/>
  </g>
</svg>