<?xml version="1.0" encoding="UTF-8"?>
<svg id="OBJECT" xmlns="http://www.w3.org/2000/svg" viewBox="0 0 512 512">
  <defs>
    <style>
      .cls-1 {
        fill: #FD4360;
      }

      .cls-2 {
        fill: #dadada;
      }
    </style>
  </defs>
  <path class="cls-2" d="M489.5,457h-38.86l-13.78-27.56c-3.83-7.67-11.55-12.44-20.12-12.44h-25.09l-79.56-276.05c-1.15-3.98-5.31-6.28-9.28-5.13-3.98,1.15-6.28,5.3-5.13,9.28l78.36,271.89h-34.04l-59.42-263.23c-.91-4.04-4.93-6.58-8.97-5.66-4.04,.91-6.58,4.93-5.67,8.97l12.4,54.93h-53.68l12.66-56.1c.91-4.04-1.62-8.06-5.66-8.97-4.04-.91-8.05,1.62-8.97,5.66l-59.69,264.4h-34.04L210.15,142.23c1.15-3.98-1.15-8.14-5.13-9.28-3.98-1.15-8.14,1.15-9.28,5.13L115.36,417h-20.09c-8.58,0-16.29,4.77-20.12,12.44l-13.78,27.56H22.5c-12.41,0-22.5,10.09-22.5,22.5v25c0,4.14,3.36,7.5,7.5,7.5H504.5c4.14,0,7.5-3.36,7.5-7.5v-25c0-12.41-10.09-22.5-22.5-22.5Zm-186.58-145h-98.83l11.29-50h76.26l11.29,50Zm3.39,15l4.51,20h-114.63l4.52-20h105.6Zm-22.57-100l4.51,20h-69.48l4.52-20h60.45Zm-90.93,135h121.41l12.42,55H180.38l12.42-55Zm-104.24,74.15c1.28-2.56,3.85-4.15,6.71-4.15H416.73c2.86,0,5.43,1.59,6.71,4.15l10.43,20.85H78.14l10.43-20.85Zm408.44,60.85H15v-17.5c0-4.14,3.36-7.5,7.5-7.5H489.5c4.14,0,7.5,3.36,7.5,7.5v17.5Z"/>
  <g>
    <path class="cls-1" d="M256,0C218.78,0,188.5,30.28,188.5,67.5s30.28,67.5,67.5,67.5,67.5-30.28,67.5-67.5S293.22,0,256,0Zm30,75c-4.14,0-7.5-3.36-7.5-7.5,0-12.41-10.09-22.5-22.5-22.5s-22.5,10.09-22.5,22.5c0,4.14-3.36,7.5-7.5,7.5s-7.5-3.36-7.5-7.5c0-20.68,16.82-37.5,37.5-37.5s37.5,16.82,37.5,37.5c0,4.14-3.36,7.5-7.5,7.5Z"/>
    <path class="cls-1" d="M359.53,31.73c-3.19-2.64-7.92-2.2-10.56,.99-2.64,3.19-2.2,7.92,.99,10.56,7.92,6.56,12.28,15.17,12.28,24.22s-4.36,17.66-12.28,24.22c-3.19,2.64-3.63,7.37-.99,10.56,1.48,1.79,3.62,2.72,5.78,2.72,1.69,0,3.38-.56,4.78-1.72,11.42-9.46,17.72-22.17,17.72-35.78s-6.29-26.31-17.72-35.78Z"/>
    <path class="cls-1" d="M392.03,1.73c-3.19-2.64-7.92-2.2-10.56,.99-2.64,3.19-2.2,7.92,.99,10.56,17.59,14.58,27.28,33.83,27.28,54.22s-9.69,39.65-27.28,54.22c-3.19,2.64-3.63,7.37-.99,10.56,1.48,1.79,3.62,2.72,5.78,2.72,1.69,0,3.38-.56,4.78-1.72,21.1-17.48,32.72-40.84,32.72-65.78s-11.62-48.3-32.72-65.78Z"/>
    <path class="cls-1" d="M162.03,43.28c3.19-2.64,3.63-7.37,.99-10.56-2.64-3.19-7.37-3.63-10.56-.99-11.42,9.46-17.72,22.17-17.72,35.78s6.29,26.31,17.72,35.78c1.4,1.16,3.09,1.72,4.78,1.72,2.16,0,4.3-.93,5.78-2.72,2.64-3.19,2.2-7.92-.99-10.56-7.92-6.56-12.28-15.17-12.28-24.22s4.36-17.66,12.28-24.22Z"/>
    <path class="cls-1" d="M129.53,13.28c3.19-2.64,3.63-7.37,.99-10.56-2.64-3.19-7.37-3.63-10.56-.99-21.1,17.48-32.72,40.84-32.72,65.78s11.62,48.3,32.72,65.78c1.4,1.16,3.09,1.72,4.78,1.72,2.16,0,4.3-.93,5.78-2.72,2.64-3.19,2.2-7.92-.99-10.56-17.59-14.58-27.28-33.83-27.28-54.22s9.69-39.65,27.28-54.22Z"/>
  </g>
</svg>