<?xml version="1.0" encoding="UTF-8"?>
<svg id="OBJECT" xmlns="http://www.w3.org/2000/svg" viewBox="0 0 32 32">
  <defs>
    <style>
      .cls-1 {
        fill: #FD4360;
      }

      .cls-1, .cls-2 {
        stroke-width: 0px;
      }

      .cls-2 {
        fill: #dadada;
      }
    </style>
  </defs>
  <g>
    <path class="cls-2" d="m27,25h-2.73l-3.02-11.5c-.14-.53-.69-.86-1.22-.71-.53.14-.85.69-.71,1.22l.66,2.5h-7.94l.66-2.5c.14-.53-.18-1.08-.71-1.22-.53-.14-1.08.18-1.22.71l-3.02,11.5h-2.73c-.55,0-1,.45-1,1v2c0,1.65,1.35,3,3,3h18c1.65,0,3-1.35,3-3v-2c0-.55-.45-1-1-1Zm-4.8,0h-5.2v-6.5h3.5l1.71,6.5Zm-10.7-6.5h3.5v6.5h-5.2l1.71-6.5Zm14.5,9.5c0,.55-.45,1-1,1H7c-.55,0-1-.45-1-1v-1h20v1Z"/>
    <path class="cls-2" d="m24.98,9.58c.2.2.45.3.71.3s.51-.1.7-.29c.7-.69,1.08-1.61,1.08-2.59s-.38-1.9-1.08-2.59c-.39-.39-1.02-.38-1.41,0-.39.39-.38,1.03,0,1.41.32.31.49.73.49,1.16s-.17.85-.49,1.16c-.39.39-.4,1.02,0,1.41Z"/>
    <path class="cls-2" d="m29.14,2.54c-.39-.39-1.03-.39-1.41,0-.39.39-.39,1.03,0,1.41.82.81,1.27,1.89,1.27,3.04s-.45,2.23-1.27,3.04c-.39.39-.39,1.02,0,1.41.2.2.45.3.71.3s.51-.1.7-.29c1.2-1.19,1.86-2.77,1.86-4.46s-.66-3.27-1.86-4.46Z"/>
    <path class="cls-2" d="m5.61,9.59c.19.19.45.29.7.29s.51-.1.71-.3c.39-.39.38-1.03,0-1.41-.32-.31-.49-.73-.49-1.16s.17-.85.49-1.16c.39-.39.4-1.02,0-1.41-.39-.39-1.02-.4-1.41,0-.7.69-1.08,1.61-1.08,2.59s.38,1.9,1.08,2.59Z"/>
    <path class="cls-2" d="m4.27,10.04c-.82-.81-1.27-1.89-1.27-3.04s.45-2.23,1.27-3.04c.39-.39.39-1.02,0-1.41-.39-.39-1.02-.4-1.41,0-1.2,1.19-1.86,2.77-1.86,4.46s.66,3.27,1.86,4.46c.2.19.45.29.7.29s.51-.1.71-.3c.39-.39.39-1.03,0-1.41Z"/>
  </g>
  <path class="cls-1" d="m16,13c3.31,0,6-2.69,6-6s-2.69-6-6-6-6,2.69-6,6,2.69,6,6,6Zm-2.31-6.9c.39-.39,1.02-.39,1.41,0l.49.49,1.29-1.29c.39-.39,1.02-.39,1.41,0s.39,1.02,0,1.41l-2,2c-.2.2-.45.29-.71.29s-.51-.1-.71-.29l-1.2-1.2c-.39-.39-.39-1.02,0-1.41Z"/>
</svg>