<?xml version="1.0" encoding="UTF-8"?>
<svg id="OBJECT" xmlns="http://www.w3.org/2000/svg" viewBox="0 0 32 32">
  <defs>
    <style>
      .cls-1 {
        fill: #FD4360;
      }

      .cls-1, .cls-2 {
        stroke-width: 0px;
      }

      .cls-2 {
        fill: #dadada;
      }
    </style>
  </defs>
  <path class="cls-2" d="m30,25h-4.3l-4.85-13.53c-.19-.52-.76-.79-1.28-.6-.52.19-.79.76-.6,1.28l.2.57-3.17,2.57-3.17-2.57.2-.57c.19-.52-.08-1.09-.6-1.28-.52-.19-1.09.08-1.28.6l-4.85,13.53H2c-.55,0-1,.45-1,1v2c0,1.65,1.35,3,3,3h24c1.65,0,3-1.35,3-3v-2c0-.55-.45-1-1-1Zm-10.11-10.29l1.89,5.27-4.19-3.4,2.3-1.87Zm.54,6.75h-8.86l4.43-3.59,4.43,3.59Zm-8.32-6.75l2.3,1.87-4.19,3.4,1.89-5.27Zm-3.14,8.75h14.05l.55,1.54h-15.16l.55-1.54Zm20.03,4.54c0,.55-.45,1-1,1H4c-.55,0-1-.45-1-1v-1h26v1Z"/>
  <g>
    <path class="cls-1" d="m23.26,3.33c-.37.41-.34,1.04.07,1.41.38.34.58.79.58,1.26s-.21.92-.58,1.26c-.41.37-.44,1-.07,1.41.2.22.47.33.74.33.24,0,.48-.09.67-.26.8-.73,1.24-1.7,1.24-2.74s-.44-2.01-1.24-2.74c-.41-.37-1.04-.34-1.41.07Z"/>
    <path class="cls-1" d="m27.86,1.26c-.41-.37-1.04-.34-1.41.07s-.34,1.04.07,1.41c.96.88,1.49,2.03,1.49,3.26s-.53,2.38-1.49,3.26c-.41.37-.44,1-.07,1.41.2.22.47.33.74.33.24,0,.48-.09.67-.26,1.38-1.26,2.14-2.94,2.14-4.74s-.76-3.48-2.14-4.74Z"/>
    <path class="cls-1" d="m8.74,3.33c-.37-.41-1-.44-1.41-.07-.8.73-1.24,1.7-1.24,2.74s.44,2.01,1.24,2.74c.19.17.43.26.67.26.27,0,.54-.11.74-.33.37-.41.34-1.04-.07-1.41-.38-.34-.58-.79-.58-1.26s.21-.92.58-1.26c.41-.37.44-1,.07-1.41Z"/>
    <path class="cls-1" d="m5.56,1.33c-.37-.41-1-.44-1.41-.07-1.38,1.26-2.14,2.94-2.14,4.74s.76,3.48,2.14,4.74c.19.17.43.26.67.26.27,0,.54-.11.74-.33.37-.41.34-1.04-.07-1.41-.96-.88-1.49-2.03-1.49-3.26s.53-2.38,1.49-3.26c.41-.37.44-1,.07-1.41Z"/>
    <circle class="cls-1" cx="16" cy="6" r="4"/>
  </g>
</svg>