<?xml version="1.0" encoding="UTF-8"?>
<svg id="OBJECT" xmlns="http://www.w3.org/2000/svg" viewBox="0 0 32 32">
  <defs>
    <style>
      .cls-1 {
        fill: #FD4360;
      }

      .cls-1, .cls-2 {
        stroke-width: 0px;
      }

      .cls-2 {
        fill: #dadada;
      }
    </style>
  </defs>
  <path class="cls-2" d="m30,25h-5.3l-4.72-12.79c-.19-.52-.77-.78-1.29-.59-.52.19-.78.77-.59,1.28l.77,2.09h-1.87v-1c0-.55-.45-1-1-1s-1,.45-1,1v1h-1.87l.77-2.09c.19-.52-.07-1.09-.59-1.28-.52-.19-1.09.07-1.29.59l-4.72,12.79H2c-.55,0-1,.45-1,1v2c0,1.65,1.35,3,3,3h24c1.65,0,3-1.35,3-3v-2c0-.55-.45-1-1-1Zm-13-8h2.61l1.13,3.05h-3.74v-3.05Zm0,5.05h4.48l1.09,2.95h-5.56v-2.95Zm-4.61-5.05h2.61v3.05h-3.74l1.13-3.05Zm-1.87,5.05h4.48v2.95h-5.56l1.09-2.95Zm18.48,5.95c0,.55-.45,1-1,1H4c-.55,0-1-.45-1-1v-1h26v1Z"/>
  <g>
    <path class="cls-1" d="m22.75,3.59c-.37.41-.33,1.05.09,1.41.31.27.48.63.48,1s-.17.73-.48,1c-.41.37-.45,1-.09,1.41.2.22.47.34.75.34.24,0,.47-.08.66-.25.75-.66,1.16-1.55,1.16-2.5s-.41-1.84-1.16-2.5c-.41-.37-1.04-.33-1.41.09Z"/>
    <path class="cls-1" d="m27.03,1.75c-.41-.36-1.04-.33-1.41.09-.37.41-.33,1.05.09,1.41.84.74,1.3,1.72,1.3,2.75s-.46,2.01-1.3,2.75c-.41.37-.45,1-.09,1.41.2.22.47.34.75.34.24,0,.47-.08.66-.25,1.27-1.13,1.97-2.64,1.97-4.25s-.7-3.12-1.97-4.25Z"/>
    <path class="cls-1" d="m9.25,3.59c-.37-.41-1-.45-1.41-.09-.75.66-1.16,1.55-1.16,2.5s.41,1.84,1.16,2.5c.19.17.43.25.66.25.28,0,.55-.11.75-.34.37-.41.33-1.05-.09-1.41-.31-.27-.48-.63-.48-1s.17-.73.48-1c.41-.37.45-1,.09-1.41Z"/>
    <path class="cls-1" d="m6.39,1.84c-.37-.41-1-.45-1.41-.09-1.27,1.13-1.97,2.64-1.97,4.25s.7,3.12,1.97,4.25c.19.17.43.25.66.25.28,0,.55-.11.75-.34.37-.41.33-1.05-.09-1.41-.84-.74-1.3-1.72-1.3-2.75s.46-2.01,1.3-2.75c.41-.37.45-1,.09-1.41Z"/>
    <rect class="cls-1" x="12" y="1" width="8" height="10" rx="3" ry="3"/>
  </g>
</svg>