<?xml version="1.0" encoding="UTF-8"?>
<svg id="OBJECT" xmlns="http://www.w3.org/2000/svg" viewBox="0 0 32 32">
  <defs>
    <style>
      .cls-1 {
        fill: #FD4360;
      }

      .cls-1, .cls-2 {
        stroke-width: 0px;
      }

      .cls-2 {
        fill: #dadada;
      }
    </style>
  </defs>
  <path class="cls-2" d="m27,25h-2.26l-4.32-14.4c-.16-.53-.71-.83-1.25-.67-.53.16-.83.72-.67,1.25l.82,2.73h-6.66l.82-2.73c.16-.53-.14-1.09-.67-1.25-.53-.16-1.09.14-1.25.67l-4.32,14.4h-2.26c-.55,0-1,.45-1,1v2c0,1.65,1.35,3,3,3h18c1.65,0,3-1.35,3-3v-2c0-.55-.45-1-1-1Zm-4.34,0h-5.66v-4.09h4.43l1.23,4.09Zm-2.73-9.09l.9,3h-3.83v-1c0-.55-.45-1-1-1s-1,.45-1,1v1h-3.83l.9-3h7.86Zm-9.36,5h4.43v4.09h-5.66l1.23-4.09Zm15.43,7.09c0,.55-.45,1-1,1H7c-.55,0-1-.45-1-1v-1h20v1Z"/>
  <g>
    <path class="cls-1" d="m24.26,3.33c-.37.41-.34,1.04.07,1.41.38.34.58.79.58,1.26s-.21.92-.58,1.26c-.41.37-.44,1-.07,1.41.2.22.47.33.74.33.24,0,.48-.09.67-.26.8-.73,1.24-1.7,1.24-2.74s-.44-2.01-1.24-2.74c-.41-.37-1.04-.34-1.41.07Z"/>
    <path class="cls-1" d="m28.86,1.26c-.41-.37-1.04-.34-1.41.07-.37.41-.34,1.04.07,1.41.96.88,1.49,2.03,1.49,3.26s-.53,2.38-1.49,3.26c-.41.37-.44,1-.07,1.41.2.22.47.33.74.33.24,0,.48-.09.67-.26,1.38-1.26,2.14-2.94,2.14-4.74s-.76-3.48-2.14-4.74Z"/>
    <path class="cls-1" d="m7.74,3.33c-.37-.41-1-.44-1.41-.07-.8.73-1.24,1.7-1.24,2.74s.44,2.01,1.24,2.74c.19.17.43.26.67.26.27,0,.54-.11.74-.33.37-.41.34-1.04-.07-1.41-.38-.34-.58-.79-.58-1.26s.21-.92.58-1.26c.41-.37.44-1,.07-1.41Z"/>
    <path class="cls-1" d="m4.56,1.33c-.37-.41-1-.44-1.41-.07-1.38,1.26-2.14,2.94-2.14,4.74s.76,3.48,2.14,4.74c.19.17.43.26.67.26.27,0,.54-.11.74-.33.37-.41.34-1.04-.07-1.41-.96-.88-1.49-2.03-1.49-3.26s.53-2.38,1.49-3.26c.41-.37.44-1,.07-1.41Z"/>
    <circle class="cls-1" cx="16" cy="6" r="4"/>
  </g>
</svg>