<?xml version="1.0" encoding="UTF-8"?>
<svg id="OBJECT" xmlns="http://www.w3.org/2000/svg" viewBox="0 0 32 32">
  <defs>
    <style>
      .cls-1 {
        fill: #FD4360;
      }

      .cls-2 {
        fill: #dadada;
      }
    </style>
  </defs>
  <path class="cls-2" d="M25,25h-1.7l-3.3-14.62c-.12-.54-.66-.87-1.2-.75-.54,.12-.88,.66-.76,1.2l.43,1.88h-4.94l.43-1.88c.12-.54-.22-1.07-.76-1.2-.54-.12-1.07,.22-1.2,.75l-3.3,14.62h-1.7c-1.65,0-3,1.35-3,3v2c0,.55,.45,1,1,1H27c.55,0,1-.45,1-1v-2c0-1.65-1.35-3-3-3Zm-3.75,0h-4.25v-4.06h3.33l.92,4.06Zm-2.33-10.3l.96,4.24h-2.88v-1.94c0-.55-.45-1-1-1s-1,.45-1,1v1.94h-2.88l.96-4.24h5.84Zm-7.25,6.24h3.33v4.06h-4.25l.92-4.06Zm14.33,8.06H6v-1c0-.55,.45-1,1-1H25c.55,0,1,.45,1,1v1Z"/>
  <g>
    <circle class="cls-1" cx="16" cy="5" r="4"/>
    <path class="cls-1" d="M24.15,2.98c-.39,.39-.39,1.02,0,1.41,.67,.67,.67,1.77,0,2.45-.39,.39-.39,1.02,0,1.41,.19,.2,.45,.29,.71,.29s.51-.1,.71-.29c1.45-1.46,1.45-3.82,0-5.28-.39-.39-1.02-.39-1.41,0Z"/>
    <path class="cls-1" d="M29.21,1.29c-.39-.39-1.02-.39-1.41,0s-.39,1.02,0,1.41c1.61,1.61,1.61,4.22,0,5.83-.39,.39-.39,1.02,0,1.41,.2,.2,.45,.29,.71,.29s.51-.1,.71-.29c2.39-2.39,2.39-6.27,0-8.66Z"/>
    <path class="cls-1" d="M7.85,2.98c-.39-.39-1.02-.39-1.41,0-1.45,1.46-1.45,3.82,0,5.28,.2,.2,.45,.29,.71,.29s.51-.1,.71-.29c.39-.39,.39-1.02,0-1.41-.67-.67-.67-1.77,0-2.45,.39-.39,.39-1.02,0-1.41Z"/>
    <path class="cls-1" d="M4.2,1.29c-.39-.39-1.02-.39-1.41,0C.4,3.68,.4,7.56,2.79,9.95c.2,.2,.45,.29,.71,.29s.51-.1,.71-.29c.39-.39,.39-1.02,0-1.41-1.61-1.61-1.61-4.22,0-5.83,.39-.39,.39-1.02,0-1.41Z"/>
  </g>
</svg>