<?xml version="1.0" encoding="UTF-8"?>
<svg id="OBJECT" xmlns="http://www.w3.org/2000/svg" viewBox="0 0 512 512">
  <defs>
    <style>
      .cls-1 {
        fill: #FD4360;
      }

      .cls-2 {
        fill: #dadada;
      }
    </style>
  </defs>
  <g>
    <path class="cls-2" d="M344.02,91.34c1.46,1.42,3.34,2.12,5.23,2.12s3.91-.76,5.38-2.27c12.69-13.06,12.69-34.31,0-47.38-2.89-2.97-7.63-3.04-10.61-.15-2.97,2.89-3.04,7.63-.15,10.61,7.09,7.3,7.09,19.17,0,26.47-2.89,2.97-2.82,7.72,.15,10.61Z"/>
    <path class="cls-2" d="M368.93,119.03c1.46,1.42,3.34,2.12,5.23,2.12s3.91-.76,5.38-2.27c27.52-28.33,27.52-74.43,0-102.76-2.89-2.97-7.63-3.04-10.61-.15-2.97,2.89-3.04,7.63-.15,10.61,21.92,22.57,21.92,59.29,0,81.86-2.89,2.97-2.82,7.72,.15,10.61Z"/>
    <path class="cls-2" d="M396.48,122.27c-2.89,2.97-2.82,7.72,.15,10.61,1.46,1.42,3.34,2.12,5.23,2.12s3.91-.76,5.38-2.27c34.94-35.97,34.94-94.49,0-130.45-2.89-2.97-7.63-3.04-10.61-.15-2.97,2.89-3.04,7.63-.15,10.61,29.34,30.2,29.34,79.35,0,109.55Z"/>
    <path class="cls-2" d="M162.76,93.46c1.88,0,3.77-.71,5.23-2.12,2.97-2.89,3.04-7.63,.15-10.61-7.09-7.3-7.09-19.17,0-26.47,2.89-2.97,2.82-7.72-.15-10.61-2.97-2.89-7.72-2.82-10.61,.15-12.69,13.06-12.69,34.31,0,47.38,1.47,1.51,3.42,2.27,5.38,2.27Z"/>
    <path class="cls-2" d="M132.46,118.88c1.47,1.51,3.42,2.27,5.38,2.27s3.77-.7,5.23-2.12c2.97-2.89,3.04-7.63,.15-10.61-21.92-22.57-21.92-59.29,0-81.86,2.89-2.97,2.82-7.72-.15-10.61-2.97-2.89-7.72-2.82-10.61,.15-27.52,28.33-27.52,74.43,0,102.76Z"/>
    <path class="cls-2" d="M110.14,135c1.88,0,3.77-.7,5.23-2.12,2.97-2.89,3.04-7.63,.15-10.61-29.34-30.2-29.34-79.35,0-109.55,2.89-2.97,2.82-7.72-.15-10.61-2.97-2.89-7.72-2.82-10.61,.15-34.94,35.97-34.94,94.49,0,130.45,1.47,1.51,3.42,2.27,5.38,2.27Z"/>
    <path class="cls-2" d="M421,457h-24.18l-81.39-318.06c-1.03-4.01-5.11-6.43-9.13-5.41-4.01,1.03-6.43,5.11-5.41,9.13l80.44,314.34h-24.52l-77.48-302.8c-1.03-4.01-5.11-6.43-9.12-5.41-4.01,1.03-6.43,5.11-5.41,9.12l12.94,50.58h-43.51l12.94-50.58c1.03-4.01-1.39-8.1-5.41-9.12-4.01-1.03-8.1,1.39-9.12,5.41l-77.48,302.8h-24.52L211.1,142.66c1.03-4.01-1.39-8.1-5.41-9.13-4.01-1.02-8.1,1.39-9.13,5.41L115.18,457h-24.18c-9.65,0-17.5,7.85-17.5,17.5v20c0,9.65,7.85,17.5,17.5,17.5H421c9.65,0,17.5-7.85,17.5-17.5v-20c0-9.65-7.85-17.5-17.5-17.5Zm-115.1-138.5h-99.8l14.07-55h71.66l14.07,55Zm3.84,15l6.4,25h-120.27l6.4-25h107.48Zm-28.15-110l6.4,25h-63.98l6.4-25h51.19Zm-89.57,150h127.95l21.36,83.5h-37.84v-17.5c0-12.41-10.09-22.5-22.5-22.5h-50c-12.41,0-22.5,10.09-22.5,22.5v17.5h-37.84l21.36-83.5Zm96.47,83.5h-65v-17.5c0-4.14,3.36-7.5,7.5-7.5h50c4.14,0,7.5,3.36,7.5,7.5v17.5Zm135,37.5c0,1.38-1.12,2.5-2.5,2.5H91c-1.38,0-2.5-1.12-2.5-2.5v-20c0-1.38,1.12-2.5,2.5-2.5h29.97s.02,0,.03,0c0,0,.02,0,.02,0h39.95s.02,0,.03,0c0,0,.02,0,.02,0h189.94s.02,0,.02,0c.01,0,.02,0,.03,0h39.95s.02,0,.02,0c.01,0,.02,0,.03,0h29.97c1.38,0,2.5,1.12,2.5,2.5v20Z"/>
  </g>
  <g>
    <path class="cls-1" d="M344.02,43.66c-2.97,2.89-3.04,7.63-.15,10.61,7.09,7.3,7.09,19.17,0,26.47-2.89,2.97-2.82,7.72,.15,10.61,1.46,1.42,3.34,2.12,5.23,2.12s3.91-.76,5.38-2.27c12.69-13.06,12.69-34.31,0-47.38-2.89-2.97-7.63-3.04-10.61-.15Z"/>
    <path class="cls-1" d="M379.54,16.12c-2.89-2.97-7.63-3.04-10.61-.15-2.97,2.89-3.04,7.63-.15,10.61,21.92,22.57,21.92,59.29,0,81.86-2.89,2.97-2.82,7.72,.15,10.61,1.46,1.42,3.34,2.12,5.23,2.12s3.91-.76,5.38-2.27c27.52-28.33,27.52-74.43,0-102.76Z"/>
    <path class="cls-1" d="M407.24,2.27c-2.89-2.97-7.63-3.04-10.61-.15-2.97,2.89-3.04,7.63-.15,10.61,29.34,30.2,29.34,79.35,0,109.55-2.89,2.97-2.82,7.72,.15,10.61,1.46,1.42,3.34,2.12,5.23,2.12s3.91-.76,5.38-2.27c34.94-35.97,34.94-94.49,0-130.45Z"/>
    <path class="cls-1" d="M167.98,43.66c-2.97-2.89-7.72-2.82-10.61,.15-12.69,13.06-12.69,34.31,0,47.38,1.47,1.51,3.42,2.27,5.38,2.27s3.77-.71,5.23-2.12c2.97-2.89,3.04-7.63,.15-10.61-7.09-7.3-7.09-19.17,0-26.47,2.89-2.97,2.82-7.72-.15-10.61Z"/>
    <path class="cls-1" d="M143.07,15.97c-2.97-2.89-7.72-2.82-10.61,.15-27.52,28.33-27.52,74.43,0,102.76,1.47,1.51,3.42,2.27,5.38,2.27s3.77-.7,5.23-2.12c2.97-2.89,3.04-7.63,.15-10.61-21.92-22.57-21.92-59.29,0-81.86,2.89-2.97,2.82-7.72-.15-10.61Z"/>
    <path class="cls-1" d="M115.52,12.73c2.89-2.97,2.82-7.72-.15-10.61-2.97-2.89-7.72-2.82-10.61,.15-34.94,35.97-34.94,94.49,0,130.45,1.47,1.51,3.42,2.27,5.38,2.27s3.77-.7,5.23-2.12c2.97-2.89,3.04-7.63,.15-10.61-29.34-30.2-29.34-79.35,0-109.55Z"/>
    <path class="cls-1" d="M256,0c-37.22,0-67.5,30.28-67.5,67.5s30.28,67.5,67.5,67.5,67.5-30.28,67.5-67.5S293.22,0,256,0Zm7.5,97.5c0,4.14-3.36,7.5-7.5,7.5s-7.5-3.36-7.5-7.5v-30c0-4.14,3.36-7.5,7.5-7.5s7.5,3.36,7.5,7.5v30Zm17.5-22.5c-4.14,0-7.5-3.36-7.5-7.5,0-12.41-7.85-22.5-17.5-22.5s-17.5,10.09-17.5,22.5c0,4.14-3.36,7.5-7.5,7.5s-7.5-3.36-7.5-7.5c0-20.68,14.58-37.5,32.5-37.5s32.5,16.82,32.5,37.5c0,4.14-3.36,7.5-7.5,7.5Z"/>
  </g>
</svg>