<?xml version="1.0" encoding="UTF-8"?>
<svg id="OBJECT" xmlns="http://www.w3.org/2000/svg" viewBox="0 0 32 32">
  <defs>
    <style>
      .cls-1 {
        fill: #FD4360;
      }

      .cls-1, .cls-2 {
        stroke-width: 0px;
      }

      .cls-2 {
        fill: #dadada;
      }
    </style>
  </defs>
  <g>
    <path class="cls-2" d="m5.5,23c0,.55.45,1,1,1h1c.55,0,1-.45,1-1s-.45-1-1-1h-1c-.55,0-1,.45-1,1Z"/>
    <path class="cls-2" d="m24.5,24h1c.55,0,1-.45,1-1s-.45-1-1-1h-1c-.55,0-1,.45-1,1s.45,1,1,1Z"/>
    <path class="cls-2" d="m30,25h-.5v-13c0-1.65-1.35-3-3-3-.55,0-1,.45-1,1s.45,1,1,1,1,.45,1,1v13H4.5v-13c0-.55.45-1,1-1s1-.45,1-1-.45-1-1-1c-1.65,0-3,1.35-3,3v13h-.5c-.55,0-1,.45-1,1v2c0,1.65,1.35,3,3,3h24c1.65,0,3-1.35,3-3v-2c0-.55-.45-1-1-1Zm-1,3c0,.55-.45,1-1,1H4c-.55,0-1-.45-1-1v-1h26v1Z"/>
  </g>
  <g>
    <path class="cls-1" d="m23,2.74c-4.76,0-6.2-1.36-6.26-1.42-.18-.2-.45-.31-.72-.32-.27,0-.57.11-.76.32-.01.01-1.43,1.42-6.26,1.42-.55,0-1,.45-1,1v6.02c0,3.5,2.07,6.71,5.4,8.38l2.15,1.08c.14.07.29.11.45.11s.31-.04.45-.11l2.15-1.08c3.33-1.67,5.4-4.88,5.4-8.38V3.74c0-.55-.45-1-1-1Zm-1.5,6.95c0,2.62-1.59,5.04-4.16,6.32l-.89.45c-.14.07-.29.11-.45.11s-.31-.04-.45-.11l-.89-.45h0c-2.57-1.28-4.16-3.71-4.16-6.32v-3.59c0-.5.37-.93.87-.99,1.62-.21,3.04-.58,4.22-1.11.26-.12.55-.12.81,0,1.18.53,2.6.9,4.22,1.11.5.06.87.49.87.99v3.59Z"/>
    <path class="cls-1" d="m12.5,6.96v2.73c0,1.85,1.17,3.59,3.05,4.53l.45.22.45-.22c1.88-.94,3.05-2.68,3.05-4.53v-2.73c-1.29-.22-2.46-.54-3.5-.96-1.04.42-2.21.74-3.5.96Z"/>
  </g>
</svg>