<?xml version="1.0" encoding="UTF-8" standalone="no"?>
<svg
   id="OBJECT"
   viewBox="0 0 32 32"
   version="1.1"
   sodipodi:docname="Review.svg"
   xml:space="preserve"
   inkscape:version="1.2.2 (732a01da63, 2022-12-09)"
   xmlns:inkscape="http://www.inkscape.org/namespaces/inkscape"
   xmlns:sodipodi="http://sodipodi.sourceforge.net/DTD/sodipodi-0.dtd"
   xmlns="http://www.w3.org/2000/svg"
   xmlns:svg="http://www.w3.org/2000/svg"><sodipodi:namedview
     id="namedview17"
     pagecolor="#505050"
     bordercolor="#ffffff"
     borderopacity="1"
     inkscape:showpageshadow="0"
     inkscape:pageopacity="0"
     inkscape:pagecheckerboard="1"
     inkscape:deskcolor="#505050"
     showgrid="false"
     inkscape:zoom="12.953125"
     inkscape:cx="14.089264"
     inkscape:cy="20.612786"
     inkscape:window-width="1920"
     inkscape:window-height="1009"
     inkscape:window-x="-8"
     inkscape:window-y="-8"
     inkscape:window-maximized="1"
     inkscape:current-layer="OBJECT" /><defs
     id="defs4"><style
       id="style2">
      .cls-1 {
        fill: #FD4360;
      }

      .cls-1, .cls-2 {
        stroke-width: 0px;
      }

      .cls-2 {
        fill: #dadada;
      }
    </style></defs><path
     style="fill:#fd4360;fill-opacity:1;stroke-width:0.030499"
     d="m 31.13401,21.833859 -7.078005,0.06016 c 0,0 -0.131879,-1.296347 -0.299686,-1.864943 -0.167806,-0.568595 -0.403077,-1.162029 -0.403077,-1.162029 0,0 -0.03834,-0.187966 -0.395295,-0.779056 -0.356939,-0.591089 -0.48029,-0.760258 -0.48029,-0.760258 l 5.706257,-4.151065 c 0.34717,0.318131 2.73463,3.99227 2.906114,7.5696 z"
     id="path4381"
     sodipodi:nodetypes="ccscscccc" /><path
     style="fill:#fd4360;fill-opacity:1;stroke-width:0.030499"
     d="m 4.2238616,13.186394 5.6827126,4.187266 c 0,0 -0.7277807,1.066757 -0.9271889,1.62506 -0.1993911,0.558303 -0.3589015,1.176423 -0.3589015,1.176423 0,0 -0.079758,0.174469 -0.1395682,0.862376 -0.059827,0.687909 -0.059827,0.897272 -0.059827,0.897272 l -7.0411704,0.0041 C 1.2774797,22.271107 0.98873161,17.423729 4.2238571,13.186403 Z"
     id="path528"
     sodipodi:nodetypes="ccscsccc" /><circle
     style="fill:#dadada;fill-opacity:1;stroke:none;stroke-width:0.18368;stroke-dasharray:none"
     id="path1232"
     cx="4.9384294"
     cy="18.589846"
     r="2.0290427" /><circle
     style="fill:#fd4360;fill-opacity:1;stroke:none;stroke-width:0.250785;stroke-dasharray:none"
     id="path1286"
     cx="4.2027702"
     cy="17.851772"
     r="0.28875396" /><circle
     style="fill:#fd4360;fill-opacity:1;stroke:none;stroke-width:0.250785;stroke-dasharray:none"
     id="circle1288"
     cx="5.6284337"
     cy="17.831831"
     r="0.28875396" /><path
     style="fill:#fd4360;fill-opacity:1;stroke:none;stroke-width:0.18368;stroke-dasharray:none"
     d="m 3.602208,19.574188 c 0,0 0.1818649,-0.492204 0.6316152,-0.695105 0.435143,-0.196314 0.7021889,-0.145405 0.7028592,-0.14456 0,0 0.6031718,-0.02991 0.9371516,0.269181 0.3339961,0.29909 0.3770477,0.596116 0.3770477,0.596116 -0.019507,0.204961 -0.099033,0.258819 -0.2923031,0.07185 -0.12575,-0.206286 -0.1894295,-0.493499 -0.8673671,-0.603165 -0.6779375,-0.109667 -0.9221916,0.234287 -0.9221916,0.234287 0,0 -0.1847001,0.219785 -0.1894294,0.244257 -0.0502,0.259626 -0.3926448,0.429345 -0.3773825,0.02714 z"
     id="path1344"
     sodipodi:nodetypes="cscsccscsc" /><path
     style="fill:#fd4360;fill-opacity:1;stroke-width:0.030499"
     d="m 11.624654,7.8110054 2.099521,6.7393226 c 0,0 -1.218167,0.428613 -1.709459,0.760417 -0.491276,0.331805 -0.887173,0.735426 -0.887173,0.735426 0,0 -0.266275,0.09336 -0.721844,0.612253 -0.4555698,0.518896 -0.4949488,0.7158 -0.4949488,0.7158 L 4.2243817,13.191096 C 4.4154371,12.918024 6.7357168,9.3948724 11.624654,7.8110036 Z"
     id="path2072"
     sodipodi:nodetypes="ccscscccc" /><circle
     style="fill:#dadada;fill-opacity:1;stroke:none;stroke-width:0.18368;stroke-dasharray:none"
     id="circle2074"
     cx="9.3091888"
     cy="12.583559"
     r="2.0290427" /><circle
     style="fill:#fd4360;fill-opacity:1;stroke:none;stroke-width:0.250785;stroke-dasharray:none"
     id="circle2076"
     cx="8.5735502"
     cy="11.845484"
     r="0.28875396" /><circle
     style="fill:#fd4360;fill-opacity:1;stroke:none;stroke-width:0.250785;stroke-dasharray:none"
     id="circle2078"
     cx="9.9992142"
     cy="11.825548"
     r="0.28875396" /><path
     style="fill:#fd4360;fill-opacity:1;stroke:none;stroke-width:0.18368;stroke-dasharray:none"
     d="m 7.9732877,13.616329 c 0,0 -0.017627,0.05993 0.021145,0.112794 0.038772,0.05287 0.095176,0.08636 0.1674259,0.06697 0.072263,-0.01938 0.1427553,-0.128656 0.1815302,-0.169192 0.038772,-0.04054 0.1797693,-0.121606 0.3648213,-0.169191 0.185052,-0.04758 0.606258,-0.03173 0.606258,-0.03173 0,0 0.3789261,0.01763 0.5287251,0.05993 0.149816,0.0423 0.3278078,0.186815 0.3278078,0.186815 0,0 0.102219,0.135704 0.139233,0.135704 0.03702,0 0.123368,0.0282 0.165664,-0.08107 0.0423,-0.109271 0.03173,-0.165666 -0.04582,-0.243212 -0.07755,-0.07755 -0.393013,-0.361295 -0.9199769,-0.384206 -0.5269644,-0.02291 -0.7666394,0.03172 -0.7666394,0.03172 0,0 -0.1850691,0.02292 -0.3754047,0.114556 -0.1903347,0.09165 -0.3947746,0.370106 -0.3947746,0.370106 z"
     id="path2117" /><path
     style="fill:#fd4360;fill-opacity:1;stroke-width:0.030499"
     d="m 20.781329,7.8108902 -2.232583,6.7169408 c 0,0 -1.26932,-0.294541 -1.861624,-0.319678 -0.592304,-0.02514 -1.22994,0.0055 -1.22994,0.0055 0,0 -0.190268,-0.02452 -0.865036,0.122034 -0.674768,0.146556 -0.874746,0.208549 -0.874746,0.208549 L 11.635304,7.8020074 C 12.048627,7.5764061 16.297513,6.5057761 19.738,7.5006685 Z"
     id="path2845"
     sodipodi:nodetypes="ccscscccc" /><path
     style="fill:#fd4360;fill-opacity:1;stroke-width:0.030499"
     d="m 28.210601,13.152809 -5.721691,4.167015 c 0,0 -0.861497,-0.977617 -1.328789,-1.342436 -0.467293,-0.364819 -1.003917,-0.71059 -1.003917,-0.71059 0,0 -0.140542,-0.130565 -0.774757,-0.403637 -0.634216,-0.273071 -0.83297,-0.338896 -0.83297,-0.338896 l 2.225875,-6.6961275 c 0.46746,0.056759 4.54689,1.6559541 6.767705,4.4657015 z"
     id="path4299"
     sodipodi:nodetypes="ccscscccc" /><circle
     style="fill:#dadada;fill-opacity:1;stroke:none;stroke-width:0.18368;stroke-dasharray:none"
     id="circle4301"
     cx="16.217842"
     cy="10.27128"
     r="2.0290427" /><circle
     style="fill:#fd4360;fill-opacity:1;stroke:none;stroke-width:0.250785;stroke-dasharray:none"
     id="circle4303"
     cx="15.482183"
     cy="9.533206"
     r="0.28875396" /><circle
     style="fill:#fd4360;fill-opacity:1;stroke:none;stroke-width:0.250785;stroke-dasharray:none"
     id="circle4305"
     cx="16.907848"
     cy="9.5132666"
     r="0.28875396" /><circle
     style="fill:#dadada;fill-opacity:1;stroke:none;stroke-width:0.18368;stroke-dasharray:none"
     id="circle4309"
     cx="23.239269"
     cy="12.555364"
     r="2.0290427" /><circle
     style="fill:#fd4360;fill-opacity:1;stroke:none;stroke-width:0.250785;stroke-dasharray:none"
     id="circle4311"
     cx="22.503599"
     cy="11.817288"
     r="0.28875396" /><circle
     style="fill:#fd4360;fill-opacity:1;stroke:none;stroke-width:0.250785;stroke-dasharray:none"
     id="circle4313"
     cx="23.929277"
     cy="11.797346"
     r="0.28875396" /><path
     style="fill:#fd4360;fill-opacity:1;stroke:none;stroke-width:0.18368;stroke-dasharray:none"
     d="m 21.903365,13.261504 c 0,0 -0.01763,-0.05993 0.02115,-0.112794 0.03875,-0.05287 0.09516,-0.08635 0.167426,-0.06697 0.07225,0.01938 0.142755,0.128656 0.18153,0.169191 0.03875,0.04054 0.179752,0.121606 0.364804,0.169191 0.185053,0.04758 0.606275,0.03173 0.606275,0.03173 0,0 0.37892,-0.01763 0.528724,-0.05993 0.149804,-0.0423 0.327807,-0.186814 0.327807,-0.186814 0,0 0.10222,-0.135706 0.13923,-0.135706 0.03701,0 0.123368,-0.0282 0.165667,0.08107 0.0423,0.10927 0.03172,0.165667 -0.04582,0.243213 -0.07754,0.07754 -0.393016,0.361294 -0.919977,0.384204 -0.526958,0.02291 -0.76665,-0.03172 -0.76665,-0.03172 0,0 -0.185052,-0.02291 -0.375387,-0.114557 -0.190352,-0.09164 -0.394774,-0.370106 -0.394774,-0.370106 z"
     id="path4315" /><circle
     style="fill:#dadada;fill-opacity:1;stroke:none;stroke-width:0.18368;stroke-dasharray:none"
     id="circle4317"
     cx="27.412653"
     cy="18.561646"
     r="2.0290427" /><circle
     style="fill:#fd4360;fill-opacity:1;stroke:none;stroke-width:0.250785;stroke-dasharray:none"
     id="circle4319"
     cx="26.676994"
     cy="17.82357"
     r="0.28875396" /><circle
     style="fill:#fd4360;fill-opacity:1;stroke:none;stroke-width:0.250785;stroke-dasharray:none"
     id="circle4321"
     cx="28.102657"
     cy="17.803635"
     r="0.28875396" /><path
     style="fill:#fd4360;fill-opacity:1;stroke:none;stroke-width:0.18368;stroke-dasharray:none"
     d="m 26.048235,19.0807 c 0,0 0.181868,0.492201 0.631616,0.695104 0.435146,0.196314 0.702182,0.145405 0.702857,0.144561 0,0 0.603167,0.02991 0.937155,-0.269182 0.333984,-0.29909 0.377034,-0.596116 0.377034,-0.596116 -0.01949,-0.204961 -0.09902,-0.258818 -0.292293,-0.07185 -0.12576,0.206287 -0.189424,0.4935 -0.867364,0.603166 -0.677939,0.109666 -0.922196,-0.234287 -0.922196,-0.234287 0,0 -0.184694,-0.219785 -0.189423,-0.244258 -0.0502,-0.259628 -0.392655,-0.429345 -0.377386,-0.02714 z"
     id="path4325"
     sodipodi:nodetypes="cscsccscsc" /><rect
     style="fill:#fd4360;fill-opacity:1;stroke:none;stroke-width:0.0914678;stroke-dasharray:none"
     id="rect4379"
     width="2.3475268"
     height="0.29608443"
     x="15.01234"
     y="10.955092"
     ry="0.14804222" /><path
     id="path5109"
     style="fill:#dadada;fill-opacity:1;stroke:none;stroke-width:0.18368;stroke-dasharray:none"
     d="m 21.561452,14.557479 -6.866349,6.302323 c 0,0 -0.67673,1.127964 -0.04226,2.044416 0.634466,0.916451 1.466295,0.831821 1.466295,0.831821 0,0 0.497045,0.01825 0.940707,-0.250938 0.443645,-0.269182 0.623063,-0.613164 0.623063,-0.613164 z m -5.364733,6.203606 a 1.1772885,1.1772885 0 0 1 1.177279,1.177372 1.1772885,1.1772885 0 0 1 -1.177279,1.177284 1.1772885,1.1772885 0 0 1 -1.177381,-1.177284 1.1772885,1.1772885 0 0 1 1.177381,-1.177372 z" /></svg>
