<?xml version="1.0" encoding="UTF-8"?>
<svg id="OBJECT" xmlns="http://www.w3.org/2000/svg" viewBox="0 0 512 512">
  <defs>
    <style>
      .cls-1 {
        fill: #FD4360;
      }

      .cls-2 {
        fill: #dadada;
      }
    </style>
  </defs>
  <g>
    <path class="cls-2" d="M92.5,230h-5c-12.41,0-22.5,10.09-22.5,22.5v87.5h-19c-4.14,0-7.5,3.36-7.5,7.5v30c0,4.14,3.36,7.5,7.5,7.5h240c4.14,0,7.5-3.36,7.5-7.5v-30c0-4.14-3.36-7.5-7.5-7.5h-19V182.5c0-12.41-10.09-22.5-22.5-22.5h-5c-12.41,0-22.5,10.09-22.5,22.5v157.5h-26V122.5c0-12.41-10.09-22.5-22.5-22.5h-5c-12.41,0-22.5,10.09-22.5,22.5v217.5h-26v-87.5c0-12.41-10.09-22.5-22.5-22.5Zm-12.5,22.5c0-4.14,3.36-7.5,7.5-7.5h5c4.14,0,7.5,3.36,7.5,7.5v87.5h-20v-87.5Zm198.5,117.5H53.5v-15h225v15Zm-46.5-187.5c0-4.14,3.36-7.5,7.5-7.5h5c4.14,0,7.5,3.36,7.5,7.5v157.5h-20V182.5Zm-76-60c0-4.14,3.36-7.5,7.5-7.5h5c4.14,0,7.5,3.36,7.5,7.5v217.5h-20V122.5Z"/>
    <path class="cls-2" d="M314.5,30h-10c-4.14,0-7.5,3.36-7.5,7.5s3.36,7.5,7.5,7.5h10c4.14,0,7.5-3.36,7.5-7.5s-3.36-7.5-7.5-7.5Z"/>
    <path class="cls-2" d="M354.5,30h-10c-4.14,0-7.5,3.36-7.5,7.5s3.36,7.5,7.5,7.5h10c4.14,0,7.5-3.36,7.5-7.5s-3.36-7.5-7.5-7.5Z"/>
    <path class="cls-2" d="M394.5,30h-10c-4.14,0-7.5,3.36-7.5,7.5s3.36,7.5,7.5,7.5h10c4.14,0,7.5-3.36,7.5-7.5s-3.36-7.5-7.5-7.5Z"/>
    <path class="cls-2" d="M424.5,0H7.5C3.36,0,0,3.36,0,7.5V417.5c0,4.14,3.36,7.5,7.5,7.5H288.78c4.14,0,7.5-3.36,7.5-7.5s-3.36-7.5-7.5-7.5H15V75H417v221.17c0,4.14,3.36,7.5,7.5,7.5s7.5-3.36,7.5-7.5V7.5c0-4.14-3.36-7.5-7.5-7.5ZM15,60V15H417V60H15Z"/>
    <path class="cls-2" d="M379.5,90h-60c-12.41,0-22.5,10.09-22.5,22.5v20c0,12.41,10.09,22.5,22.5,22.5h60c12.41,0,22.5-10.09,22.5-22.5v-20c0-12.41-10.09-22.5-22.5-22.5Zm7.5,42.5c0,4.14-3.36,7.5-7.5,7.5h-60c-4.14,0-7.5-3.36-7.5-7.5v-20c0-4.14,3.36-7.5,7.5-7.5h60c4.14,0,7.5,3.36,7.5,7.5v20Z"/>
    <path class="cls-2" d="M394.5,170h-50c-4.14,0-7.5,3.36-7.5,7.5s3.36,7.5,7.5,7.5h50c4.14,0,7.5-3.36,7.5-7.5s-3.36-7.5-7.5-7.5Z"/>
    <path class="cls-2" d="M314.5,170h-10c-4.14,0-7.5,3.36-7.5,7.5s3.36,7.5,7.5,7.5h10c4.14,0,7.5-3.36,7.5-7.5s-3.36-7.5-7.5-7.5Z"/>
  </g>
  <path class="cls-1" d="M504.68,469.32l-29.79-29.79c-8.2,14.83-20.15,27.31-34.56,36.15l29,29c4.72,4.72,11,7.32,17.68,7.32s12.96-2.6,17.68-7.32h0c4.72-4.72,7.32-11,7.32-17.68s-2.6-12.96-7.32-17.68Z"/>
  <path class="cls-1" d="M472,392.5c0-45.49-37.01-82.5-82.5-82.5s-82.5,37.01-82.5,82.5,37.01,82.5,82.5,82.5,82.5-37.01,82.5-82.5Zm-82.5,57.5c-31.71,0-57.5-25.79-57.5-57.5s25.79-57.5,57.5-57.5,57.5,25.79,57.5,57.5-25.79,57.5-57.5,57.5Z"/>
  <circle class="cls-1" cx="389.5" cy="392.5" r="42.5"/>
</svg>