<?xml version="1.0" encoding="UTF-8"?>
<svg id="OBJECT" xmlns="http://www.w3.org/2000/svg" viewBox="0 0 32 32">
  <defs>
    <style>
      .cls-1 {
        fill: #FD4360;
      }

      .cls-1, .cls-2 {
        stroke-width: 0px;
      }

      .cls-2 {
        fill: #dadada;
      }
    </style>
  </defs>
  <g>
    <path class="cls-2" d="m30,9c-.55,0-1,.45-1,1v18c0,.55-.45,1-1,1H4c-.55,0-1-.45-1-1V10c0-.55-.45-1-1-1s-1,.45-1,1v18c0,1.65,1.35,3,3,3h24c1.65,0,3-1.35,3-3V10c0-.55-.45-1-1-1Z"/>
    <path class="cls-2" d="m7,27.5h18c1.38,0,2.5-1.12,2.5-2.5v-.5c0-1.38-1.12-2.5-2.5-2.5H7c-1.38,0-2.5,1.12-2.5,2.5v.5c0,1.38,1.12,2.5,2.5,2.5Zm-.5-3c0-.28.22-.5.5-.5h18c.28,0,.5.22.5.5v.5c0,.28-.22.5-.5.5H7c-.28,0-.5-.22-.5-.5v-.5Z"/>
    <path class="cls-2" d="m6.25,20.5c.55,0,1-.45,1-1v-3h2v3c0,.55.45,1,1,1s1-.45,1-1v-6.5c0-1.38-1.12-2.5-2.5-2.5h-1c-1.38,0-2.5,1.12-2.5,2.5v6.5c0,.55.45,1,1,1Zm1-7.5c0-.28.22-.5.5-.5h1c.28,0,.5.22.5.5v1.5h-2v-1.5Z"/>
    <path class="cls-2" d="m15.25,20.5c.55,0,1-.45,1-1v-3h1.5c1.38,0,2.5-1.12,2.5-2.5v-1c0-1.38-1.12-2.5-2.5-2.5h-2.5c-.55,0-1,.45-1,1v8c0,.55.45,1,1,1Zm1-8h1.5c.28,0,.5.22.5.5v1c0,.28-.22.5-.5.5h-1.5v-2Z"/>
    <path class="cls-2" d="m22.75,18.5c-.55,0-1,.45-1,1s.45,1,1,1h3c.55,0,1-.45,1-1s-.45-1-1-1h-.5v-6h.5c.55,0,1-.45,1-1s-.45-1-1-1h-3c-.55,0-1,.45-1,1s.45,1,1,1h.5v6h-.5Z"/>
  </g>
  <path class="cls-1" d="m28,1H4c-1.65,0-3,1.35-3,3v3h30v-3c0-1.65-1.35-3-3-3ZM5.5,5h-.5c-.55,0-1-.45-1-1s.45-1,1-1h.5c.55,0,1,.45,1,1s-.45,1-1,1Zm4,0h-.5c-.55,0-1-.45-1-1s.45-1,1-1h.5c.55,0,1,.45,1,1s-.45,1-1,1Zm4,0h-.5c-.55,0-1-.45-1-1s.45-1,1-1h.5c.55,0,1,.45,1,1s-.45,1-1,1Z"/>
</svg>