<?xml version="1.0" encoding="UTF-8"?>
<svg id="OBJECT" xmlns="http://www.w3.org/2000/svg" viewBox="0 0 32 32">
  <defs>
    <style>
      .cls-1 {
        fill: #FD4360;
      }

      .cls-1, .cls-2 {
        stroke-width: 0px;
      }

      .cls-2 {
        fill: #dadada;
      }
    </style>
  </defs>
  <path class="cls-2" d="m25.29,11.25l-4.14-8.45c-.55-1.09-1.69-1.8-2.9-1.8-.86,0-1.66.33-2.24.91-.6-.59-1.39-.91-2.24-.91-1.22,0-2.36.71-2.91,1.81l-4.14,8.43c-.42.83-.52,1.78-.31,2.67l1.11,4.77-.61.38c-.47.29-.61.91-.31,1.38.29.47.91.61,1.38.31l1.21-.76c.36-.23.54-.66.44-1.07l-1.27-5.47c-.11-.44-.05-.91.16-1.33L12.64,3.7c.36-.73,1.41-.92,2-.32.23.22.36.53.36.89,0,.17-.03.33-.1.49l-3.45,8.05s0,.04-.02.05c-.03.09-.05.19-.06.29,0,.02-.01,4.35-.01,4.35,0,.55.45,1,1,1s1-.45,1-1v-3.29h1.13c.28,0,.5.22.5.5v5.46c0,.58-.26,1.14-.7,1.52l-3.44,2.92c-.42.36-.47.99-.12,1.41.2.23.48.35.76.35.23,0,.46-.08.65-.24l3.45-2.93c.15-.13.27-.28.4-.42.13.15.25.3.4.43l3.44,2.92c.19.16.42.24.65.24.28,0,.56-.12.76-.35.36-.42.31-1.05-.12-1.41l-3.43-2.91c-.45-.39-.7-.94-.7-1.52v-5.46c0-.28.22-.5.5-.5h1.13v3.29c0,.55.45,1,1,1s1-.45,1-1c0,0-.01-4.33-.01-4.35,0-.1-.02-.19-.06-.29,0-.02,0-.04-.02-.05l-3.45-8.05c-.07-.15-.1-.32-.1-.52,0-.33.13-.64.38-.88.54-.55,1.62-.38,1.98.33l4.14,8.45c.2.41.26.88.15,1.33l-1.27,5.46c-.1.42.08.85.44,1.07l1.21.76c.17.1.35.15.53.15.33,0,.66-.17.85-.47.29-.47.15-1.08-.31-1.38l-.61-.38,1.11-4.76c.21-.9.11-1.85-.31-2.67Zm-7.17.96h-.61c-.57,0-1.08.2-1.5.51-.42-.32-.93-.51-1.5-.51h-.61l2.11-4.94,2.11,4.94Z"/>
  <g>
    <path class="cls-1" d="m1.94,21.08c-1.12,1.06-1.25,2.79-.31,4.01l3.67,4.75c.5.65,1.23,1.06,2.05,1.15.11.01.22.02.33.02.7,0,1.37-.24,1.91-.69l1.15-.96-7.26-9.74-1.54,1.46Zm2.35,1.68l.34.34c.39.39.39,1.02,0,1.41-.2.2-.45.29-.71.29s-.51-.1-.71-.29l-.34-.34c-.39-.39-.39-1.02,0-1.41s1.02-.39,1.41,0Z"/>
    <path class="cls-1" d="m30.06,21.08l-1.54-1.46-7.26,9.74,1.15.96c.54.45,1.21.69,1.91.69.11,0,.22,0,.33-.02.82-.09,1.54-.5,2.05-1.15l3.67-4.75c.95-1.22.81-2.95-.31-4.01Zm-.93,3.1l-.34.34c-.2.2-.45.29-.71.29s-.51-.1-.71-.29c-.39-.39-.39-1.02,0-1.41l.34-.34c.39-.39,1.02-.39,1.41,0s.39,1.02,0,1.41Z"/>
  </g>
</svg>