<?xml version="1.0" encoding="UTF-8"?>
<svg id="OBJECT" xmlns="http://www.w3.org/2000/svg" viewBox="0 0 512 512">
  <defs>
    <style>
      .cls-1 {
        fill: #FD4360;
      }

      .cls-2 {
        fill: #dadada;
      }
    </style>
  </defs>
  <g>
    <path class="cls-2" d="M489.5,0H22.5C10.09,0,0,10.09,0,22.5V372.5c0,12.41,10.09,22.5,22.5,22.5H188.5v62H121c-12.41,0-22.5,10.09-22.5,22.5v25c0,4.14,3.36,7.5,7.5,7.5H406c4.14,0,7.5-3.36,7.5-7.5v-25c0-12.41-10.09-22.5-22.5-22.5h-67.5v-62h166c12.41,0,22.5-10.09,22.5-22.5V22.5c0-12.41-10.09-22.5-22.5-22.5ZM22.5,15H489.5c4.14,0,7.5,3.36,7.5,7.5V320H15V22.5c0-4.14,3.36-7.5,7.5-7.5ZM398.5,479.5v17.5H113.5v-17.5c0-4.14,3.36-7.5,7.5-7.5H391c4.14,0,7.5,3.36,7.5,7.5Zm-130-22.5h-25v-27.5c0-4.14,3.36-7.5,7.5-7.5h10c4.14,0,7.5,3.36,7.5,7.5v27.5Zm40,0h-25v-27.5c0-12.41-10.09-22.5-22.5-22.5h-10c-12.41,0-22.5,10.09-22.5,22.5v27.5h-25v-62h105v62Zm181-77H22.5c-4.14,0-7.5-3.36-7.5-7.5v-37.5H497v37.5c0,4.14-3.36,7.5-7.5,7.5Z"/>
    <path class="cls-2" d="M213.5,350h-15c-4.14,0-7.5,3.36-7.5,7.5s3.36,7.5,7.5,7.5h15c4.14,0,7.5-3.36,7.5-7.5s-3.36-7.5-7.5-7.5Z"/>
    <path class="cls-2" d="M263.5,350h-15c-4.14,0-7.5,3.36-7.5,7.5s3.36,7.5,7.5,7.5h15c4.14,0,7.5-3.36,7.5-7.5s-3.36-7.5-7.5-7.5Z"/>
    <path class="cls-2" d="M313.5,350h-15c-4.14,0-7.5,3.36-7.5,7.5s3.36,7.5,7.5,7.5h15c4.14,0,7.5-3.36,7.5-7.5s-3.36-7.5-7.5-7.5Z"/>
    <path class="cls-2" d="M327.5,295h127c12.41,0,22.5-10.09,22.5-22.5V72.5c0-12.41-10.09-22.5-22.5-22.5h-127c-12.41,0-22.5,10.09-22.5,22.5v200c0,12.41,10.09,22.5,22.5,22.5Zm127-15h-127c-4.14,0-7.5-3.36-7.5-7.5V125h142v147.5c0,4.14-3.36,7.5-7.5,7.5Zm-127-215h127c4.14,0,7.5,3.36,7.5,7.5v37.5h-142v-37.5c0-4.14,3.36-7.5,7.5-7.5Z"/>
    <path class="cls-2" d="M441,145h-60c-4.14,0-7.5,3.36-7.5,7.5s3.36,7.5,7.5,7.5h60c4.14,0,7.5-3.36,7.5-7.5s-3.36-7.5-7.5-7.5Z"/>
    <path class="cls-2" d="M341,160h10c4.14,0,7.5-3.36,7.5-7.5s-3.36-7.5-7.5-7.5h-10c-4.14,0-7.5,3.36-7.5,7.5s3.36,7.5,7.5,7.5Z"/>
    <path class="cls-2" d="M441,210h-60c-4.14,0-7.5,3.36-7.5,7.5s3.36,7.5,7.5,7.5h60c4.14,0,7.5-3.36,7.5-7.5s-3.36-7.5-7.5-7.5Z"/>
    <path class="cls-2" d="M341,225h10c4.14,0,7.5-3.36,7.5-7.5s-3.36-7.5-7.5-7.5h-10c-4.14,0-7.5,3.36-7.5,7.5s3.36,7.5,7.5,7.5Z"/>
    <path class="cls-2" d="M441,177.5h-100c-4.14,0-7.5,3.36-7.5,7.5s3.36,7.5,7.5,7.5h100c4.14,0,7.5-3.36,7.5-7.5s-3.36-7.5-7.5-7.5Z"/>
    <path class="cls-2" d="M441,242.5h-100c-4.14,0-7.5,3.36-7.5,7.5s3.36,7.5,7.5,7.5h100c4.14,0,7.5-3.36,7.5-7.5s-3.36-7.5-7.5-7.5Z"/>
    <path class="cls-2" d="M346,99c4.14,0,7.5-3.36,7.5-7.5v-8c0-4.14-3.36-7.5-7.5-7.5s-7.5,3.36-7.5,7.5v8c0,4.14,3.36,7.5,7.5,7.5Z"/>
    <path class="cls-2" d="M436,99c4.14,0,7.5-3.36,7.5-7.5v-8c0-4.14-3.36-7.5-7.5-7.5s-7.5,3.36-7.5,7.5v8c0,4.14,3.36,7.5,7.5,7.5Z"/>
    <path class="cls-2" d="M137.5,295h110c4.14,0,7.5-3.36,7.5-7.5s-3.36-7.5-7.5-7.5h-110c-4.14,0-7.5,3.36-7.5,7.5s3.36,7.5,7.5,7.5Z"/>
    <path class="cls-2" d="M57.5,295h10c4.14,0,7.5-3.36,7.5-7.5s-3.36-7.5-7.5-7.5h-10c-4.14,0-7.5,3.36-7.5,7.5s3.36,7.5,7.5,7.5Z"/>
    <path class="cls-2" d="M97.5,295h10c4.14,0,7.5-3.36,7.5-7.5s-3.36-7.5-7.5-7.5h-10c-4.14,0-7.5,3.36-7.5,7.5s3.36,7.5,7.5,7.5Z"/>
  </g>
  <g>
    <path class="cls-1" d="M165,205v-12.5h-25v12.5c0,6.89,5.61,12.5,12.5,12.5s12.5-5.61,12.5-12.5Z"/>
    <path class="cls-1" d="M201.14,192.5h-21.14v12.5c0,15.16-12.34,27.5-27.5,27.5s-27.5-12.34-27.5-27.5v-12.5h-21.14c-5.62,0-11.26-1.29-16.32-3.74l-42.54-20.56v56.8c0,12.41,10.09,22.5,22.5,22.5H237.5c12.41,0,22.5-10.09,22.5-22.5v-56.8l-42.54,20.56c-5.05,2.44-10.7,3.74-16.32,3.74Z"/>
    <path class="cls-1" d="M262.5,72.5h-42.5v-17.5c0-12.41-10.09-22.5-22.5-22.5H107.5c-12.41,0-22.5,10.09-22.5,22.5v17.5H42.5c-4.14,0-7.5,3.36-7.5,7.5v52.59c0,8.57,4.99,16.53,12.71,20.26l46.36,22.41c3.04,1.47,6.42,2.24,9.79,2.24h97.28c3.37,0,6.76-.78,9.79-2.24l46.36-22.41s0,0,0,0c7.72-3.73,12.71-11.68,12.71-20.26v-52.59c0-4.14-3.36-7.5-7.5-7.5ZM82.5,127.5h-10c-4.14,0-7.5-3.36-7.5-7.5s3.36-7.5,7.5-7.5h10c4.14,0,7.5,3.36,7.5,7.5s-3.36,7.5-7.5,7.5Zm115,0H107.5c-4.14,0-7.5-3.36-7.5-7.5s3.36-7.5,7.5-7.5h90c4.14,0,7.5,3.36,7.5,7.5s-3.36,7.5-7.5,7.5Zm7.5-55H100v-17.5c0-4.14,3.36-7.5,7.5-7.5h90c4.14,0,7.5,3.36,7.5,7.5v17.5Zm27.5,55h-10c-4.14,0-7.5-3.36-7.5-7.5s3.36-7.5,7.5-7.5h10c4.14,0,7.5,3.36,7.5,7.5s-3.36,7.5-7.5,7.5Z"/>
  </g>
</svg>