<?xml version="1.0" encoding="UTF-8"?>
<svg id="OBJECT" xmlns="http://www.w3.org/2000/svg" viewBox="0 0 32 32">
  <defs>
    <style>
      .cls-1 {
        fill: #FD4360;
      }

      .cls-1, .cls-2 {
        stroke-width: 0px;
      }

      .cls-2 {
        fill: #dadada;
      }
    </style>
  </defs>
  <g>
    <path class="cls-2" d="m5.5,23h.5c.55,0,1-.45,1-1s-.45-1-1-1h-.5c-.55,0-1,.45-1,1s.45,1,1,1Z"/>
    <path class="cls-2" d="m24,15c-.34,0-.67.03-1,.08V2c0-.55-.45-1-1-1H2c-.55,0-1,.45-1,1v28c0,.55.45,1,1,1h20c.55,0,1-.45,1-1v-1.08c.33.05.66.08,1,.08,3.86,0,7-3.14,7-7s-3.14-7-7-7Zm-3,14H3V3h18v12.69c-2.07.99-3.58,2.96-3.92,5.31h-7.58c-.55,0-1,.45-1,1s.45,1,1,1h7.58c.1.71.31,1.38.61,2H5.5c-.55,0-1,.45-1,1s.45,1,1,1h13.61c.55.54,1.19.98,1.89,1.31v.69Zm3-2c-2.76,0-5-2.24-5-5s2.24-5,5-5,5,2.24,5,5-2.24,5-5,5Z"/>
    <path class="cls-2" d="m25.29,20.08l-1.73,1.73-.86-.86c-.39-.39-1.02-.39-1.41,0s-.39,1.02,0,1.41l1.56,1.56c.2.2.45.29.71.29s.51-.1.71-.29l2.44-2.44c.39-.39.39-1.02,0-1.41s-1.02-.39-1.41,0Z"/>
  </g>
  <g>
    <path class="cls-1" d="m16.46,11.01c-.82,1.65-2.5,2.79-4.46,2.79s-3.65-1.15-4.46-2.79c-.95,1.06-1.54,2.46-1.54,3.99v1.5c0,1.38,1.12,2.5,2.5,2.5h7c1.38,0,2.5-1.12,2.5-2.5v-1.5c0-1.53-.58-2.93-1.54-3.99Z"/>
    <path class="cls-1" d="m12,11.8c1.65,0,3-1.35,3-3v-1.2c0-1.43-1.17-2.6-2.6-2.6h-.8c-1.43,0-2.6,1.17-2.6,2.6v1.2c0,1.65,1.35,3,3,3Z"/>
  </g>
</svg>