<?xml version="1.0" encoding="UTF-8"?>
<svg id="OBJECT" xmlns="http://www.w3.org/2000/svg" viewBox="0 0 32 32">
  <defs>
    <style>
      .cls-1 {
        fill: #FD4360;
      }

      .cls-1, .cls-2 {
        stroke-width: 0px;
      }

      .cls-2 {
        fill: #dadada;
      }
    </style>
  </defs>
  <g>
    <path class="cls-2" d="m28.5,21.5h-2v-5.32c2.66-1.3,4.5-4.03,4.5-7.18,0-4.41-3.59-8-8-8-3.72,0-6.85,2.56-7.74,6h-.76c-1.65,0-3,1.35-3,3v18c0,1.65,1.35,3,3,3h3c.77,0,1.47-.3,2-.78.53.48,1.23.78,2,.78h2c1.65,0,3-1.35,3-3v-.5h2c1.38,0,2.5-1.12,2.5-2.5v-1c0-1.38-1.12-2.5-2.5-2.5ZM23,3c3.31,0,6,2.69,6,6s-2.69,6-6,6-6-2.69-6-6,2.69-6,6-6Zm-5.5,26h-3c-.55,0-1-.45-1-1V10c0-.55.45-1,1-1h.5c0,2.74,1.39,5.17,3.5,6.61v12.39c0,.55-.45,1-1,1Zm6,0h-2c-.55,0-1-.45-1-1v-11.41c.79.26,1.63.41,2.5.41.51,0,1.01-.05,1.5-.15v11.15c0,.55-.45,1-1,1Zm5.5-4c0,.28-.22.5-.5.5h-2v-2h2c.28,0,.5.22.5.5v1Z"/>
    <path class="cls-2" d="m20.54,9.21c-.39.39-.39,1.03,0,1.41.39.39,1.03.38,1.41,0,.56-.56,1.52-.56,2.08,0,.2.2.45.3.71.3s.51-.1.7-.29c.39-.39.4-1.02,0-1.41-1.31-1.33-3.61-1.33-4.92,0Z"/>
    <path class="cls-2" d="m18.8,8.06c.39.39,1.02.38,1.41,0,1.49-1.51,4.09-1.51,5.58,0,.2.2.45.3.71.3s.51-.1.7-.29c.39-.39.4-1.02,0-1.41-1.12-1.14-2.62-1.76-4.21-1.76s-3.09.63-4.21,1.76c-.39.39-.39,1.03,0,1.41Z"/>
    <path class="cls-2" d="m23.19,11.11h-.39c-.55,0-1,.45-1,1s.45,1,1,1h.39c.55,0,1-.45,1-1s-.45-1-1-1Z"/>
  </g>
  <g>
    <path class="cls-1" d="m1,23v3c0,.55.45,1,1,1h1.5v-5h-1.5c-.55,0-1,.45-1,1Z"/>
    <path class="cls-1" d="m1,12v3c0,.55.45,1,1,1h1.5v-5h-1.5c-.55,0-1,.45-1,1Z"/>
    <rect class="cls-1" x="5.5" y="7" width="5" height="24" rx="2" ry="2"/>
  </g>
</svg>