<?xml version="1.0" encoding="UTF-8"?>
<svg id="OBJECT" xmlns="http://www.w3.org/2000/svg" viewBox="0 0 32 32">
  <defs>
    <style>
      .cls-1 {
        fill: #FD4360;
      }

      .cls-1, .cls-2 {
        stroke-width: 0px;
      }

      .cls-2 {
        fill: #dadada;
      }
    </style>
  </defs>
  <g>
    <path class="cls-2" d="m28,1h-7c-1.65,0-3,1.35-3,3v24c0,1.65,1.35,3,3,3h7c1.65,0,3-1.35,3-3V4c0-1.65-1.35-3-3-3Zm1,27c0,.55-.45,1-1,1h-7c-.55,0-1-.45-1-1V4c0-.55.45-1,1-1h7c.55,0,1,.45,1,1v24Z"/>
    <path class="cls-2" d="m24.5,20.5c-1.79,0-3.25,1.46-3.25,3.25s1.46,3.25,3.25,3.25,3.25-1.46,3.25-3.25-1.46-3.25-3.25-3.25Zm0,4.5c-.69,0-1.25-.56-1.25-1.25s.56-1.25,1.25-1.25,1.25.56,1.25,1.25-.56,1.25-1.25,1.25Z"/>
    <path class="cls-2" d="m24.5,19c.55,0,1-.45,1-1v-8c0-.55-.45-1-1-1s-1,.45-1,1v8c0,.55.45,1,1,1Z"/>
    <path class="cls-2" d="m24.5,7.5c.55,0,1-.45,1-1v-.5c0-.55-.45-1-1-1s-1,.45-1,1v.5c0,.55.45,1,1,1Z"/>
  </g>
  <g>
    <circle class="cls-1" cx="7.5" cy="24.75" r="1.25"/>
    <path class="cls-1" d="m12,1H3c-1.1,0-2,.9-2,2v26c0,1.1.9,2,2,2h9c1.1,0,2-.9,2-2V3c0-1.1-.9-2-2-2Zm-5.5,4c0-.55.45-1,1-1s1,.45,1,1v.5c0,.55-.45,1-1,1s-1-.45-1-1v-.5Zm0,4c0-.55.45-1,1-1s1,.45,1,1v8c0,.55-.45,1-1,1s-1-.45-1-1v-8Zm1,19c-1.79,0-3.25-1.46-3.25-3.25s1.46-3.25,3.25-3.25,3.25,1.46,3.25,3.25-1.46,3.25-3.25,3.25Z"/>
  </g>
</svg>