<?xml version="1.0" encoding="UTF-8"?>
<svg id="OBJECT" xmlns="http://www.w3.org/2000/svg" viewBox="0 0 32 32">
  <defs>
    <style>
      .cls-1 {
        fill: #FD4360;
      }

      .cls-1, .cls-2 {
        stroke-width: 0px;
      }

      .cls-2 {
        fill: #dadada;
      }
    </style>
  </defs>
  <g>
    <path class="cls-2" d="m28,13H4c-1.65,0-3,1.35-3,3v8c0,1.3.84,2.4,2,2.82v3.18c0,.55.45,1,1,1s1-.45,1-1v-3h22v3c0,.55.45,1,1,1s1-.45,1-1v-3.18c1.16-.41,2-1.51,2-2.82v-8c0-1.65-1.35-3-3-3Zm1,11c0,.55-.45,1-1,1H4c-.55,0-1-.45-1-1v-8c0-.55.45-1,1-1h24c.55,0,1,.45,1,1v8Z"/>
    <path class="cls-2" d="m23,17.5c-.55,0-1,.45-1,1v1.5c0,.28-.22.5-.5.5h-11c-.28,0-.5-.22-.5-.5v-1.5c0-.55-.45-1-1-1s-1,.45-1,1v1.5c0,1.38,1.12,2.5,2.5,2.5h11c1.38,0,2.5-1.12,2.5-2.5v-1.5c0-.55-.45-1-1-1Z"/>
  </g>
  <path class="cls-1" d="m29.5,1H2.5c-.83,0-1.5.67-1.5,1.5v7c0,.83.67,1.5,1.5,1.5h27c.83,0,1.5-.67,1.5-1.5V2.5c0-.83-.67-1.5-1.5-1.5Zm-5.5,5c0,1.38-1.12,2.5-2.5,2.5h-11c-1.38,0-2.5-1.12-2.5-2.5v-1.5c0-.55.45-1,1-1s1,.45,1,1v1.5c0,.28.22.5.5.5h11c.28,0,.5-.22.5-.5v-1.5c0-.55.45-1,1-1s1,.45,1,1v1.5Z"/>
</svg>