<?xml version="1.0" encoding="UTF-8"?>
<svg id="OBJECT" xmlns="http://www.w3.org/2000/svg" viewBox="0 0 32 32">
  <defs>
    <style>
      .cls-1 {
        fill: #FD4360;
      }

      .cls-1, .cls-2 {
        stroke-width: 0px;
      }

      .cls-2 {
        fill: #dadada;
      }
    </style>
  </defs>
  <g>
    <path class="cls-2" d="m19,1h-7c-.77,0-1.47.3-2,.78-.53-.48-1.23-.78-2-.78h-4c-1.65,0-3,1.35-3,3v24c0,1.65,1.35,3,3,3h4c.77,0,1.47-.3,2-.78.53.48,1.23.78,2,.78h7c1.65,0,3-1.35,3-3V4c0-1.65-1.35-3-3-3Zm-11,28h-4c-.55,0-1-.45-1-1V4c0-.55.45-1,1-1h4c.55,0,1,.45,1,1v24c0,.55-.45,1-1,1Zm12-1c0,.55-.45,1-1,1h-7c-.55,0-1-.45-1-1V4c0-.55.45-1,1-1h7c.55,0,1,.45,1,1v24Z"/>
    <path class="cls-2" d="m15.5,20c-1.93,0-3.5,1.57-3.5,3.5s1.57,3.5,3.5,3.5,3.5-1.57,3.5-3.5-1.57-3.5-3.5-3.5Zm0,5c-.83,0-1.5-.67-1.5-1.5s.67-1.5,1.5-1.5,1.5.67,1.5,1.5-.67,1.5-1.5,1.5Z"/>
    <path class="cls-2" d="m15.5,18c.55,0,1-.45,1-1v-7c0-.55-.45-1-1-1s-1,.45-1,1v7c0,.55.45,1,1,1Z"/>
    <path class="cls-2" d="m15.5,7.5c.55,0,1-.45,1-1v-.5c0-.55-.45-1-1-1s-1,.45-1,1v.5c0,.55.45,1,1,1Z"/>
    <path class="cls-2" d="m6.5,24h-1c-.55,0-1,.45-1,1s.45,1,1,1h1c.55,0,1-.45,1-1s-.45-1-1-1Z"/>
    <path class="cls-2" d="m6,22c.55,0,1-.45,1-1v-11c0-.55-.45-1-1-1s-1,.45-1,1v11c0,.55.45,1,1,1Z"/>
    <path class="cls-2" d="m6,7.5c.55,0,1-.45,1-1v-.5c0-.55-.45-1-1-1s-1,.45-1,1v.5c0,.55.45,1,1,1Z"/>
  </g>
  <path class="cls-1" d="m29.5,1h-4c-.83,0-1.5.67-1.5,1.5v27c0,.83.67,1.5,1.5,1.5h4c.83,0,1.5-.67,1.5-1.5V2.5c0-.83-.67-1.5-1.5-1.5Zm-3,5c0-.55.45-1,1-1s1,.45,1,1v.5c0,.55-.45,1-1,1s-1-.45-1-1v-.5Zm0,4c0-.55.45-1,1-1s1,.45,1,1v11c0,.55-.45,1-1,1s-1-.45-1-1v-11Zm1.5,16h-1c-.55,0-1-.45-1-1s.45-1,1-1h1c.55,0,1,.45,1,1s-.45,1-1,1Z"/>
</svg>