<?xml version="1.0" encoding="UTF-8"?>
<svg id="OBJECT" xmlns="http://www.w3.org/2000/svg" viewBox="0 0 32 32">
  <defs>
    <style>
      .cls-1 {
        fill: #FD4360;
      }

      .cls-1, .cls-2 {
        stroke-width: 0px;
      }

      .cls-2 {
        fill: #dadada;
      }
    </style>
  </defs>
  <path class="cls-1" d="m21.3,15.2c-2.92-2.92-7.68-2.92-10.61,0-2.92,2.92-2.92,7.68,0,10.61,1.46,1.46,3.38,2.19,5.3,2.19s3.84-.73,5.3-2.19c2.92-2.92,2.92-7.68,0-10.61Zm-2.1,7.1c.39.39.39,1.02,0,1.41-.2.2-.45.29-.71.29s-.51-.1-.71-.29l-1.79-1.79-1.79,1.79c-.2.2-.45.29-.71.29s-.51-.1-.71-.29c-.39-.39-.39-1.02,0-1.41l1.79-1.79-1.79-1.79c-.39-.39-.39-1.02,0-1.41s1.02-.39,1.41,0l1.79,1.79,1.79-1.79c.39-.39,1.02-.39,1.41,0s.39,1.02,0,1.41l-1.79,1.79,1.79,1.79Z"/>
  <g>
    <path class="cls-2" d="m30,6.5c.55,0,1-.45,1-1v-3.5c0-.55-.45-1-1-1H2c-.55,0-1,.45-1,1v3.5c0,.55.45,1,1,1h3v3.5h-1c-1.65,0-3,1.35-3,3v15c0,1.65,1.35,3,3,3h24c1.65,0,3-1.35,3-3v-15c0-1.65-1.35-3-3-3h-1v-3.5h3ZM3,3h26v1.5H3v-1.5Zm26,10v15c0,.55-.45,1-1,1H4c-.55,0-1-.45-1-1v-15c0-.55.45-1,1-1h24c.55,0,1,.45,1,1Zm-4-3H7v-3.5h18v3.5Z"/>
    <path class="cls-2" d="m26.5,22c.55,0,1-.45,1-1v-1c0-.55-.45-1-1-1s-1,.45-1,1v1c0,.55.45,1,1,1Z"/>
    <path class="cls-2" d="m5.5,22c.55,0,1-.45,1-1v-1c0-.55-.45-1-1-1s-1,.45-1,1v1c0,.55.45,1,1,1Z"/>
  </g>
</svg>