<?xml version="1.0" encoding="UTF-8"?>
<svg id="OBJECT" xmlns="http://www.w3.org/2000/svg" viewBox="0 0 32 32">
  <defs>
    <style>
      .cls-1 {
        fill: #FD4360;
      }

      .cls-1, .cls-2 {
        stroke-width: 0px;
      }

      .cls-2 {
        fill: #dadada;
      }
    </style>
  </defs>
  <g>
    <path class="cls-2" d="m25,1H7c-1.65,0-3,1.35-3,3v24c0,1.65,1.35,3,3,3h18c1.65,0,3-1.35,3-3V4c0-1.65-1.35-3-3-3ZM7,3h18c.55,0,1,.45,1,1v17.18c-.31-.11-.65-.18-1-.18H7c-.35,0-.69.07-1,.18V4c0-.55.45-1,1-1Zm19,25c0,.55-.45,1-1,1H7c-.55,0-1-.45-1-1v-4c0-.55.45-1,1-1h18c.55,0,1,.45,1,1v4Z"/>
    <path class="cls-2" d="m9.5,25h-1c-.55,0-1,.45-1,1s.45,1,1,1h1c.55,0,1-.45,1-1s-.45-1-1-1Z"/>
    <path class="cls-2" d="m13.5,25h-1c-.55,0-1,.45-1,1s.45,1,1,1h1c.55,0,1-.45,1-1s-.45-1-1-1Z"/>
    <path class="cls-2" d="m23.5,25h-6c-.55,0-1,.45-1,1s.45,1,1,1h6c.55,0,1-.45,1-1s-.45-1-1-1Z"/>
  </g>
  <path class="cls-1" d="m23,9c-1.65,0-3-1.35-3-3,0-.55-.45-1-1-1h-10c-.55,0-1,.45-1,1v11c0,.55.45,1,1,1h14c.55,0,1-.45,1-1v-7c0-.55-.45-1-1-1Zm-8.5,6h-1c-.55,0-1-.45-1-1s.45-1,1-1h1c.55,0,1,.45,1,1s-.45,1-1,1Zm4,0h-1c-.55,0-1-.45-1-1s.45-1,1-1h1c.55,0,1,.45,1,1s-.45,1-1,1Z"/>
</svg>