<?xml version="1.0" encoding="UTF-8"?>
<svg id="OBJECT" xmlns="http://www.w3.org/2000/svg" viewBox="0 0 32 32">
  <defs>
    <style>
      .cls-1 {
        fill: #FD4360;
      }

      .cls-1, .cls-2 {
        stroke-width: 0px;
      }

      .cls-2 {
        fill: #dadada;
      }
    </style>
  </defs>
  <path class="cls-1" d="m16.39,1.08c-.25-.11-.54-.11-.79,0L1.8,7h28.41L16.39,1.08Z"/>
  <path class="cls-2" d="m30,29h-2V10c0-.55-.45-1-1-1s-1,.45-1,1v19h-2.5V12.64c0-.55-.45-1-1-1h-13c-.55,0-1,.45-1,1v16.36h-2.5V10c0-.55-.45-1-1-1s-1,.45-1,1v19h-2c-.55,0-1,.45-1,1s.45,1,1,1h28c.55,0,1-.45,1-1s-.45-1-1-1Zm-8.5-9h-11v-2h11v2Zm0,2v2h-11v-2h11Zm0-8.36v2.36h-11v-2.36h11Zm-11,12.36h11v3h-11v-3Z"/>
</svg>