<?xml version="1.0" encoding="UTF-8"?>
<svg id="OBJECT" xmlns="http://www.w3.org/2000/svg" viewBox="0 0 32 32">
  <defs>
    <style>
      .cls-1 {
        fill: #FD4360;
      }

      .cls-2 {
        fill: #dadada;
      }
    </style>
  </defs>
  <g>
    <path class="cls-2" d="M6,22c-.55,0-1,.45-1,1s.45,1,1,1H14c.55,0,1-.45,1-1s-.45-1-1-1H6Z"/>
    <path class="cls-2" d="M17,17.5H6c-.55,0-1,.45-1,1s.45,1,1,1h11c.55,0,1-.45,1-1s-.45-1-1-1Z"/>
    <path class="cls-2" d="M17,13H6c-.55,0-1,.45-1,1s.45,1,1,1h11c.55,0,1-.45,1-1s-.45-1-1-1Z"/>
    <path class="cls-2" d="M21.71,7.29L15.71,1.29c-.19-.19-.44-.29-.71-.29H3.5c-1.38,0-2.5,1.12-2.5,2.5V25.5c0,1.38,1.12,2.5,2.5,2.5H14.08c.55,0,1-.45,1-1s-.45-1-1-1H3.5c-.28,0-.5-.22-.5-.5V3.5c0-.28,.22-.5,.5-.5H14v3.5c0,1.38,1.12,2.5,2.5,2.5h3.5v5.8c0,.55,.45,1,1,1s1-.45,1-1v-6.8c0-.27-.11-.52-.29-.71Zm-5.71-.79v-2.09l2.59,2.59h-2.09c-.28,0-.5-.22-.5-.5Z"/>
    <path class="cls-2" d="M6,7h.5c.55,0,1-.45,1-1s-.45-1-1-1h-.5c-.55,0-1,.45-1,1s.45,1,1,1Z"/>
    <path class="cls-2" d="M10.5,7c.55,0,1-.45,1-1s-.45-1-1-1h-.5c-.55,0-1,.45-1,1s.45,1,1,1h.5Z"/>
  </g>
  <path class="cls-1" d="M30.57,25.97l-4.02-7.23c-.6-1.07-1.73-1.74-2.96-1.74h-.2c-1.23,0-2.36,.67-2.96,1.74l-4.02,7.23c-.28,.5-.43,1.07-.43,1.64,0,1.87,1.52,3.38,3.38,3.38h8.23c1.87,0,3.38-1.52,3.38-3.38,0-.57-.15-1.14-.43-1.64Zm-6.07,1.15c0,.55-.45,1-1,1s-1-.45-1-1v-.5c0-.55,.45-1,1-1s1,.45,1,1v.5Zm0-3.25c0,.55-.45,1-1,1s-1-.45-1-1v-3c0-.55,.45-1,1-1s1,.45,1,1v3Z"/>
</svg>