<?xml version="1.0" encoding="UTF-8"?>
<svg id="OBJECT" xmlns="http://www.w3.org/2000/svg" viewBox="0 0 32 32">
  <defs>
    <style>
      .cls-1 {
        fill: #FD4360;
      }

      .cls-1, .cls-2 {
        stroke-width: 0px;
      }

      .cls-2 {
        fill: #dadada;
      }
    </style>
  </defs>
  <g>
    <path class="cls-2" d="m21,1h-12.39c-.27,0-.53.11-.72.3L1.28,8.07c-.18.19-.28.44-.28.7v18.23c0,.55.45,1,1,1h10.26c.55,0,1-.45,1-1s-.45-1-1-1H3V9.77h4.11c1.38,0,2.5-1.12,2.5-2.5V3h10.39v9.29c0,.55.45,1,1,1s1-.45,1-1V2c0-.55-.45-1-1-1ZM7.11,7.77h-2.74l3.24-3.32v2.82c0,.28-.22.5-.5.5Z"/>
    <path class="cls-2" d="m17,10h-4c-.55,0-1,.45-1,1s.45,1,1,1h4c.55,0,1-.45,1-1s-.45-1-1-1Z"/>
    <path class="cls-2" d="m12.9,18h-6.79c-.55,0-1,.45-1,1s.45,1,1,1h6.79c.55,0,1-.45,1-1s-.45-1-1-1Z"/>
    <path class="cls-2" d="m15.9,14h-4.79c-.55,0-1,.45-1,1s.45,1,1,1h4.79c.55,0,1-.45,1-1s-.45-1-1-1Z"/>
    <path class="cls-2" d="m6.1,16h1.79c.55,0,1-.45,1-1s-.45-1-1-1h-1.79c-.55,0-1,.45-1,1s.45,1,1,1Z"/>
    <path class="cls-2" d="m6.1,22c-.55,0-1,.45-1,1s.45,1,1,1h5.79c.55,0,1-.45,1-1s-.45-1-1-1h-5.79Z"/>
  </g>
  <path class="cls-1" d="m23,15c-4.41,0-8,3.59-8,8s3.59,8,8,8,8-3.59,8-8-3.59-8-8-8Zm-.65,7h1.3c1.27,0,2.3,1.03,2.3,2.3,0,1.15-.85,2.09-1.94,2.26v.33c0,.55-.45,1-1,1s-1-.45-1-1v-.3h-.94c-.55,0-1-.45-1-1s.45-1,1-1h2.59c.16,0,.3-.13.3-.3s-.13-.3-.3-.3h-1.3c-1.27,0-2.3-1.03-2.3-2.3,0-1.15.85-2.09,1.94-2.26v-.33c0-.55.45-1,1-1s1,.45,1,1v.3h.94c.55,0,1,.45,1,1s-.45,1-1,1h-2.59c-.16,0-.3.13-.3.3s.13.3.3.3Z"/>
</svg>