<?xml version="1.0" encoding="UTF-8"?>
<svg id="OBJECT" xmlns="http://www.w3.org/2000/svg" viewBox="0 0 32 32">
  <defs>
    <style>
      .cls-1 {
        fill: #FD4360;
      }

      .cls-2 {
        fill: #dadada;
      }
    </style>
  </defs>
  <g>
    <path class="cls-2" d="M27.71,8.29L20.71,1.29c-.19-.19-.44-.29-.71-.29H7c-1.65,0-3,1.35-3,3V28c0,1.65,1.35,3,3,3H25c1.65,0,3-1.35,3-3V9c0-.27-.11-.52-.29-.71Zm-6.71-3.88l3.59,3.59h-2.59c-.55,0-1-.45-1-1v-2.59Zm4,24.59H7c-.55,0-1-.45-1-1V4c0-.55,.45-1,1-1h12V7c0,1.65,1.35,3,3,3h4V28c0,.55-.45,1-1,1Z"/>
    <path class="cls-2" d="M20,26h-.5c-.55,0-1,.45-1,1s.45,1,1,1h.5c.55,0,1-.45,1-1s-.45-1-1-1Z"/>
    <path class="cls-2" d="M24,26h-.5c-.55,0-1,.45-1,1s.45,1,1,1h.5c.55,0,1-.45,1-1s-.45-1-1-1Z"/>
  </g>
  <path class="cls-1" d="M17,19h-3v-2h1c.55,0,1-.45,1-1s-.45-1-1-1h-1v-2h1c.55,0,1-.45,1-1s-.45-1-1-1h-1v-2h1c.55,0,1-.45,1-1s-.45-1-1-1h-1v-2h-2v2h-1c-.55,0-1,.45-1,1s.45,1,1,1h1v2h-1c-.55,0-1,.45-1,1s.45,1,1,1h1v2h-1c-.55,0-1,.45-1,1s.45,1,1,1h1v2h-3c-.55,0-1,.45-1,1s.45,1,1,1h.85l-.41,2.89c-.15,1.03,.16,2.08,.85,2.87s1.68,1.24,2.72,1.24,2.04-.45,2.72-1.24,.99-1.83,.85-2.87l-.41-2.89h.85c.55,0,1-.45,1-1s-.45-1-1-1Z"/>
</svg>