<?xml version="1.0" encoding="UTF-8"?>
<svg id="OBJECT" xmlns="http://www.w3.org/2000/svg" viewBox="0 0 32 32">
  <defs>
    <style>
      .cls-1 {
        fill: #FD4360;
      }

      .cls-2 {
        fill: #dadada;
      }
    </style>
  </defs>
  <g>
    <path class="cls-2" d="M11.5,16c1.38,0,2.5-1.12,2.5-2.5V5.62c0-.66-.27-1.3-.73-1.77l-2.12-2.12c-.47-.47-1.11-.73-1.77-.73H3.5c-1.38,0-2.5,1.12-2.5,2.5V13.5c0,1.38,1.12,2.5,2.5,2.5H11.5ZM3,13.5V3.5c0-.28,.22-.5,.5-.5h5.88c.13,0,.26,.05,.35,.15l2.12,2.12c.09,.09,.15,.22,.15,.35v7.88c0,.28-.22,.5-.5,.5H3.5c-.28,0-.5-.22-.5-.5Z"/>
    <path class="cls-2" d="M5,8h3c.55,0,1-.45,1-1s-.45-1-1-1h-3c-.55,0-1,.45-1,1s.45,1,1,1Z"/>
    <path class="cls-2" d="M5,12h5c.55,0,1-.45,1-1s-.45-1-1-1H5c-.55,0-1,.45-1,1s.45,1,1,1Z"/>
    <path class="cls-2" d="M28.21,9.54c-.39-.39-1.02-.39-1.41,0l-.79,.79v-2.84c0-2.21-1.79-4-4-4h-1c-.55,0-1,.45-1,1s.45,1,1,1h1c1.1,0,2,.9,2,2v2.84l-.79-.79c-.39-.39-1.02-.39-1.41,0s-.39,1.02,0,1.41l2.5,2.5c.2,.2,.45,.29,.71,.29s.51-.1,.71-.29l2.5-2.5c.39-.39,.39-1.02,0-1.41Z"/>
    <path class="cls-2" d="M18.5,3.5h-.5c-.55,0-1,.45-1,1s.45,1,1,1h.5c.55,0,1-.45,1-1s-.45-1-1-1Z"/>
    <path class="cls-2" d="M11,26.5h-1c-1.1,0-2-.9-2-2v-2.84l.79,.79c.2,.2,.45,.29,.71,.29s.51-.1,.71-.29c.39-.39,.39-1.02,0-1.41l-2.5-2.5c-.39-.39-1.02-.39-1.41,0l-2.5,2.5c-.39,.39-.39,1.02,0,1.41s1.02,.39,1.41,0l.79-.79v2.84c0,2.21,1.79,4,4,4h1c.55,0,1-.45,1-1s-.45-1-1-1Z"/>
    <path class="cls-2" d="M14,26.5h-.5c-.55,0-1,.45-1,1s.45,1,1,1h.5c.55,0,1-.45,1-1s-.45-1-1-1Z"/>
  </g>
  <path class="cls-1" d="M28.5,16h-5.88c-.66,0-1.3,.27-1.77,.73l-2.12,2.12c-.47,.47-.73,1.11-.73,1.77v7.88c0,1.38,1.12,2.5,2.5,2.5h8c1.38,0,2.5-1.12,2.5-2.5v-10c0-1.38-1.12-2.5-2.5-2.5Zm-1.5,11h-5c-.55,0-1-.45-1-1s.45-1,1-1h5c.55,0,1,.45,1,1s-.45,1-1,1Zm0-4h-3c-.55,0-1-.45-1-1s.45-1,1-1h3c.55,0,1,.45,1,1s-.45,1-1,1Z"/>
</svg>