<?xml version="1.0" encoding="UTF-8"?>
<svg id="OBJECT" xmlns="http://www.w3.org/2000/svg" viewBox="0 0 32 32">
  <defs>
    <style>
      .cls-1 {
        fill: #FD4360;
      }

      .cls-1, .cls-2 {
        stroke-width: 0px;
      }

      .cls-2 {
        fill: #dadada;
      }
    </style>
  </defs>
  <g>
    <path class="cls-2" d="m17,5v1c0,.55.45,1,1,1s1-.45,1-1v-1c0-.55-.45-1-1-1s-1,.45-1,1Z"/>
    <path class="cls-2" d="m13,5v1c0,.55.45,1,1,1s1-.45,1-1v-1c0-.55-.45-1-1-1s-1,.45-1,1Z"/>
    <path class="cls-2" d="m21,9.88c.55,0,1-.45,1-1v-4.88c0-1.65-1.35-3-3-3h-11c-.27,0-.52.11-.71.29L1.29,7.29c-.19.19-.29.44-.29.71v20c0,1.65,1.35,3,3,3h15c1.65,0,3-1.35,3-3,0-.55-.45-1-1-1s-1,.45-1,1-.45,1-1,1H4c-.55,0-1-.45-1-1v-11.18l1.48,1.4c.39.37.99.37,1.37,0l2.49-2.35,2.48,2.35c.19.18.44.27.69.27s.49-.09.69-.27l2.49-2.35,1.07,1.01c.4.38,1.03.36,1.41-.04.38-.4.36-1.04-.04-1.41l-1.76-1.66c-.38-.36-.99-.36-1.37,0l-2.49,2.35-2.48-2.35c-.39-.36-.99-.36-1.37,0l-2.49,2.35-2.17-2.05v-5.07h3c1.65,0,3-1.35,3-3v-3h10c.55,0,1,.45,1,1v4.88c0,.55.45,1,1,1Zm-15-2.88h-1.59l2.59-2.59v1.59c0,.55-.45,1-1,1Z"/>
    <path class="cls-2" d="m6,27h7c.55,0,1-.45,1-1s-.45-1-1-1h-7c-.55,0-1,.45-1,1s.45,1,1,1Z"/>
    <path class="cls-2" d="m6,23.5h5c.55,0,1-.45,1-1s-.45-1-1-1h-5c-.55,0-1,.45-1,1s.45,1,1,1Z"/>
  </g>
  <path class="cls-1" d="m30.65,20.26l-3.83-7.52c-.54-1.07-1.63-1.74-2.83-1.74s-2.29.67-2.83,1.74l-3.83,7.52c-.23.44-.34.94-.34,1.44v.13c0,1.75,1.42,3.17,3.17,3.17h7.65c1.75,0,3.17-1.42,3.17-3.17v-.13c0-.5-.12-.99-.35-1.44Zm-5.65,1.14c0,.55-.45,1-1,1s-1-.45-1-1v-.33c0-.55.45-1,1-1s1,.45,1,1v.33Zm0-3.66c0,.55-.45,1-1,1s-1-.45-1-1v-3.14c0-.55.45-1,1-1s1,.45,1,1v3.14Z"/>
</svg>