<?xml version="1.0" encoding="UTF-8"?>
<svg id="OBJECT" xmlns="http://www.w3.org/2000/svg" viewBox="0 0 32 32">
  <defs>
    <style>
      .cls-1 {
        fill: #FD4360;
      }

      .cls-1, .cls-2 {
        stroke-width: 0px;
      }

      .cls-2 {
        fill: #dadada;
      }
    </style>
  </defs>
  <g>
    <path class="cls-2" d="m27.72,7.43l-5.85-6.12c-.19-.2-.45-.31-.72-.31h-10.65c-1.38,0-2.5,1.12-2.5,2.5v21c0,1.38,1.12,2.5,2.5,2.5h15c1.38,0,2.5-1.12,2.5-2.5V8.12c0-.26-.1-.5-.28-.69Zm-5.57-2.94l2.51,2.63h-2.01c-.28,0-.5-.22-.5-.5v-2.13Zm3.35,20.51h-15c-.28,0-.5-.22-.5-.5V3.5c0-.28.22-.5.5-.5h9.65v3.62c0,1.38,1.12,2.5,2.5,2.5h3.35v15.38c0,.28-.22.5-.5.5Z"/>
    <path class="cls-2" d="m15.21,12.79c-.39-.39-1.02-.39-1.41,0l-2,2c-.39.39-.39,1.02,0,1.41l2,2c.2.2.45.29.71.29s.51-.1.71-.29c.39-.39.39-1.02,0-1.41l-1.29-1.29,1.29-1.29c.39-.39.39-1.02,0-1.41Z"/>
    <path class="cls-2" d="m22.21,12.79c-.39-.39-1.02-.39-1.41,0s-.39,1.02,0,1.41l1.29,1.29-1.29,1.29c-.39.39-.39,1.02,0,1.41.2.2.45.29.71.29s.51-.1.71-.29l2-2c.39-.39.39-1.02,0-1.41l-2-2Z"/>
    <path class="cls-2" d="m19.27,11.04c-.53-.15-1.08.16-1.24.69l-2,7c-.15.53.16,1.08.69,1.24.09.03.18.04.28.04.43,0,.83-.29.96-.73l2-7c.15-.53-.16-1.08-.69-1.24Z"/>
  </g>
  <path class="cls-1" d="m6,24.5V5.05c-1.14.23-2,1.24-2,2.45v21c0,1.38,1.12,2.5,2.5,2.5h15c1.21,0,2.22-.86,2.45-2h-13.45c-2.48,0-4.5-2.02-4.5-4.5Z"/>
</svg>