<?xml version="1.0" encoding="UTF-8"?>
<svg id="OBJECT" xmlns="http://www.w3.org/2000/svg" viewBox="0 0 32 32">
  <defs>
    <style>
      .cls-1 {
        fill: #FD4360;
      }

      .cls-2 {
        fill: #dadada;
      }
    </style>
  </defs>
  <g>
    <path class="cls-2" d="M28,13.83c0-1.38-1.12-2.5-2.5-2.5-.55,0-1,.45-1,1s.45,1,1,1c.28,0,.5,.22,.5,.5v5.33c0,.28-.22,.5-.5,.5H6.5c-.28,0-.5-.22-.5-.5v-5.33c0-.28,.22-.5,.5-.5,.55,0,1-.45,1-1s-.45-1-1-1c-1.38,0-2.5,1.12-2.5,2.5v5.33c0,.57,.2,1.08,.51,1.5-.32,.42-.51,.93-.51,1.5v6.33c0,1.38,1.12,2.5,2.5,2.5H25.5c1.38,0,2.5-1.12,2.5-2.5v-6.33c0-.57-.2-1.08-.51-1.5,.32-.42,.51-.93,.51-1.5v-5.33Zm-2,14.67c0,.28-.22,.5-.5,.5H6.5c-.28,0-.5-.22-.5-.5v-6.33c0-.28,.22-.5,.5-.5H25.5c.28,0,.5,.22,.5,.5v6.33Z"/>
    <path class="cls-2" d="M20,23.08c-.55,0-1,.45-1,1v1c0,.28-.22,.5-.5,.5h-5c-.28,0-.5-.22-.5-.5v-1c0-.55-.45-1-1-1s-1,.45-1,1v1c0,1.38,1.12,2.5,2.5,2.5h5c1.38,0,2.5-1.12,2.5-2.5v-1c0-.55-.45-1-1-1Z"/>
    <path class="cls-2" d="M13.5,18.25h5c1.38,0,2.5-1.12,2.5-2.5v-1c0-.55-.45-1-1-1s-1,.45-1,1v1c0,.28-.22,.5-.5,.5h-5c-.28,0-.5-.22-.5-.5v-1c0-.55-.45-1-1-1s-1,.45-1,1v1c0,1.38,1.12,2.5,2.5,2.5Z"/>
  </g>
  <path class="cls-1" d="M26.5,1H5.5c-.83,0-1.5,.67-1.5,1.5v5.6c0,.83,.67,1.5,1.5,1.5H26.5c.83,0,1.5-.67,1.5-1.5V2.5c0-.83-.67-1.5-1.5-1.5Zm-5.5,4.05c0,1.38-1.12,2.5-2.5,2.5h-5c-1.38,0-2.5-1.12-2.5-2.5v-1c0-.55,.45-1,1-1s1,.45,1,1v1c0,.28,.22,.5,.5,.5h5c.28,0,.5-.22,.5-.5v-1c0-.55,.45-1,1-1s1,.45,1,1v1Z"/>
</svg>