<?xml version="1.0" encoding="UTF-8"?>
<svg id="OBJECT" xmlns="http://www.w3.org/2000/svg" viewBox="0 0 32 32">
  <defs>
    <style>
      .cls-1 {
        fill: #FD4360;
      }

      .cls-1, .cls-2 {
        stroke-width: 0px;
      }

      .cls-2 {
        fill: #dadada;
      }
    </style>
  </defs>
  <g>
    <path class="cls-2" d="m27,11.37c-.55,0-1,.45-1,1v16.63H6V3h10.63c.55,0,1-.45,1-1s-.45-1-1-1H5c-.55,0-1,.45-1,1v28c0,.55.45,1,1,1h22c.55,0,1-.45,1-1V12.37c0-.55-.45-1-1-1Z"/>
    <path class="cls-2" d="m12,25c-.55,0-1,.45-1,1s.45,1,1,1h8c.55,0,1-.45,1-1s-.45-1-1-1h-8Z"/>
    <path class="cls-2" d="m24,22c0-.55-.45-1-1-1h-14c-.55,0-1,.45-1,1s.45,1,1,1h14c.55,0,1-.45,1-1Z"/>
    <path class="cls-2" d="m8,18c0,.55.45,1,1,1h14c.55,0,1-.45,1-1s-.45-1-1-1h-14c-.55,0-1,.45-1,1Z"/>
    <path class="cls-2" d="m11.59,11.48h-2.59c-.55,0-1,.45-1,1s.45,1,1,1h.94v.3c0,.55.45,1,1,1s1-.45,1-1v-.33c1.1-.17,1.94-1.12,1.94-2.26,0-1.27-1.03-2.3-2.3-2.3h-1.3c-.16,0-.3-.13-.3-.3s.13-.3.3-.3h2.59c.55,0,1-.45,1-1s-.45-1-1-1h-.94v-.3c0-.55-.45-1-1-1s-1,.45-1,1v.33c-1.1.17-1.94,1.12-1.94,2.26,0,1.27,1.03,2.3,2.3,2.3h1.3c.16,0,.3.13.3.3s-.13.3-.3.3Z"/>
  </g>
  <polygon class="cls-1" points="19.63 1.59 19.63 9.37 27.41 9.37 19.63 1.59"/>
</svg>