<?xml version="1.0" encoding="UTF-8"?>
<svg id="OBJECT" xmlns="http://www.w3.org/2000/svg" viewBox="0 0 32 32">
  <defs>
    <style>
      .cls-1 {
        fill: #FD4360;
      }

      .cls-2 {
        fill: #dadada;
      }
    </style>
  </defs>
  <g>
    <path class="cls-2" d="M23.71,14.29l-4-4c-.19-.19-.44-.29-.71-.29H10.5c-1.38,0-2.5,1.12-2.5,2.5V28.5c0,1.38,1.12,2.5,2.5,2.5h11c1.38,0,2.5-1.12,2.5-2.5V15c0-.27-.11-.52-.29-.71Zm-4.29-.3l.19-.96,1.36,1.36-.96,.19c-.23,.04-.38-.07-.45-.14-.07-.07-.18-.22-.14-.45Zm2.08,15.01H10.5c-.28,0-.5-.22-.5-.5V12.5c0-.28,.22-.5,.5-.5h7.28l-.32,1.6c-.16,.82,.09,1.67,.68,2.26,.47,.47,1.11,.73,1.76,.73,.16,0,.33-.02,.49-.05l1.6-.32v12.28c0,.28-.22,.5-.5,.5Z"/>
    <path class="cls-2" d="M19.5,25h-7c-.55,0-1,.45-1,1s.45,1,1,1h7c.55,0,1-.45,1-1s-.45-1-1-1Z"/>
    <path class="cls-2" d="M19.5,21h-7c-.55,0-1,.45-1,1s.45,1,1,1h7c.55,0,1-.45,1-1s-.45-1-1-1Z"/>
    <path class="cls-2" d="M12.5,19h4c.55,0,1-.45,1-1s-.45-1-1-1h-4c-.55,0-1,.45-1,1s.45,1,1,1Z"/>
  </g>
  <path class="cls-1" d="M27.92,10.11c-.4-2.2-2.24-3.9-4.5-4.09-1.21-2.99-4.15-5.02-7.42-5.02-2.47,0-4.76,1.17-6.25,3.03h3.96c.55,0,1,.45,1,1s-.45,1-1,1h-5.2c-2.23,.22-4.04,1.9-4.43,4.08-1.76,.42-3.08,2-3.08,3.89,0,2.21,1.79,4,4,4h1v-5.5c0-2.48,2.02-4.5,4.5-4.5h8.5c.8,0,1.55,.31,2.12,.88l4,4c.57,.57,.88,1.32,.88,2.12v3h1c2.21,0,4-1.79,4-4,0-1.89-1.32-3.48-3.08-3.89Z"/>
</svg>