<?xml version="1.0" encoding="UTF-8"?>
<svg id="OBJECT" xmlns="http://www.w3.org/2000/svg" viewBox="0 0 32 32">
  <defs>
    <style>
      .cls-1 {
        fill: #FD4360;
      }

      .cls-2 {
        fill: #dadada;
      }
    </style>
  </defs>
  <g>
    <path class="cls-2" d="M27.71,8.29L20.71,1.29c-.19-.19-.44-.29-.71-.29H7c-1.65,0-3,1.35-3,3V14.04c0,.29,.13,.57,.35,.76l4.1,3.46c.34,.29,.82,.31,1.19,.07l3.96-2.59,4.03,3.5c.19,.16,.42,.25,.66,.25s.47-.08,.66-.25l3.96-3.44,3.45,2.91c.3,.25,.71,.31,1.07,.14,.35-.16,.58-.52,.58-.91V9c0-.27-.11-.52-.29-.71Zm-6.71-3.88l3.59,3.59h-2.59c-.55,0-1-.45-1-1v-2.59Zm2.54,9.32c-.38-.32-.93-.31-1.3,0l-3.95,3.43-3.94-3.43c-.19-.16-.42-.25-.66-.25-.19,0-.38,.05-.55,.16l-3.97,2.59-3.17-2.68V4c0-.55,.45-1,1-1h12V7c0,1.65,1.35,3,3,3h4v5.81l-2.46-2.07Z"/>
    <path class="cls-2" d="M8.5,4h-.5c-.55,0-1,.45-1,1s.45,1,1,1h.5c.55,0,1-.45,1-1s-.45-1-1-1Z"/>
    <path class="cls-2" d="M14.5,4h-2.5c-.55,0-1,.45-1,1s.45,1,1,1h2.5c.55,0,1-.45,1-1s-.45-1-1-1Z"/>
  </g>
  <path class="cls-1" d="M23.54,19.74c-.38-.32-.93-.31-1.3,0l-2.96,2.57c-.56,.49-1.4,.49-1.97,0l-2.96-2.57c-.34-.29-.83-.33-1.2-.08l-3.04,1.98c-.55,.36-1.28,.32-1.79-.11l-2.67-2.26c-.3-.25-.71-.31-1.07-.14-.35,.16-.58,.52-.58,.91v7.96c0,1.66,1.34,3,3,3H25c1.66,0,3-1.34,3-3v-4.04c0-.29-.13-.57-.36-.76l-4.1-3.46Zm-3.54,8.26h-2.5c-.55,0-1-.45-1-1s.45-1,1-1h2.5c.55,0,1,.45,1,1s-.45,1-1,1Zm4,0h-.5c-.55,0-1-.45-1-1s.45-1,1-1h.5c.55,0,1,.45,1,1s-.45,1-1,1Z"/>
</svg>