<?xml version="1.0" encoding="UTF-8"?>
<svg id="OBJECT" xmlns="http://www.w3.org/2000/svg" viewBox="0 0 512 512">
  <defs>
    <style>
      .cls-1 {
        fill: #FD4360;
      }

      .cls-2 {
        fill: #dadada;
      }
    </style>
  </defs>
  <g>
    <path class="cls-2" d="M431,100h-32.5v-32.5c0-4.14-3.36-7.5-7.5-7.5H203.5V27.5c0-15.16-12.34-27.5-27.5-27.5h-25c-15.16,0-27.5,12.34-27.5,27.5V60h-42.5c-4.14,0-7.5,3.36-7.5,7.5V464.5c0,4.14,3.36,7.5,7.5,7.5h32.5v32.5c0,4.14,3.36,7.5,7.5,7.5H431c4.14,0,7.5-3.36,7.5-7.5V107.5c0-4.14-3.36-7.5-7.5-7.5Zm-182.5-25h95v35h-95v-35ZM138.5,27.5c0-6.89,5.61-12.5,12.5-12.5h25c6.89,0,12.5,5.61,12.5,12.5V60h-50V27.5Zm-50,47.5h35v32.5c0,15.16,12.34,27.5,27.5,27.5h35c4.14,0,7.5-3.36,7.5-7.5s-3.36-7.5-7.5-7.5h-35c-6.89,0-12.5-5.61-12.5-12.5v-32.5h95v42.5c0,4.14,3.36,7.5,7.5,7.5h110c4.14,0,7.5-3.36,7.5-7.5v-42.5h25V457H88.5V75ZM423.5,497H128.5v-25H391c4.14,0,7.5-3.36,7.5-7.5V115h25V497Z"/>
    <path class="cls-2" d="M361,160h-80c-4.14,0-7.5,3.36-7.5,7.5s3.36,7.5,7.5,7.5h80c4.14,0,7.5-3.36,7.5-7.5s-3.36-7.5-7.5-7.5Z"/>
    <path class="cls-2" d="M241,175h10c4.14,0,7.5-3.36,7.5-7.5s-3.36-7.5-7.5-7.5h-10c-4.14,0-7.5,3.36-7.5,7.5s3.36,7.5,7.5,7.5Z"/>
    <path class="cls-2" d="M361,200h-120c-4.14,0-7.5,3.36-7.5,7.5s3.36,7.5,7.5,7.5h120c4.14,0,7.5-3.36,7.5-7.5s-3.36-7.5-7.5-7.5Z"/>
    <path class="cls-2" d="M268.5,85h-5c-4.14,0-7.5,3.36-7.5,7.5s3.36,7.5,7.5,7.5h5c4.14,0,7.5-3.36,7.5-7.5s-3.36-7.5-7.5-7.5Z"/>
    <path class="cls-2" d="M298.5,85h-5c-4.14,0-7.5,3.36-7.5,7.5s3.36,7.5,7.5,7.5h5c4.14,0,7.5-3.36,7.5-7.5s-3.36-7.5-7.5-7.5Z"/>
    <path class="cls-2" d="M328.5,85h-5c-4.14,0-7.5,3.36-7.5,7.5s3.36,7.5,7.5,7.5h5c4.14,0,7.5-3.36,7.5-7.5s-3.36-7.5-7.5-7.5Z"/>
  </g>
  <g>
    <path class="cls-1" d="M346,250H126c-12.41,0-22.5,10.09-22.5,22.5v147c0,12.41,10.09,22.5,22.5,22.5h220c12.41,0,22.5-10.09,22.5-22.5v-147c0-12.41-10.09-22.5-22.5-22.5Zm-205,33.5h10c4.14,0,7.5,3.36,7.5,7.5s-3.36,7.5-7.5,7.5h-10c-4.14,0-7.5-3.36-7.5-7.5s3.36-7.5,7.5-7.5Zm190,125H141c-4.14,0-7.5-3.36-7.5-7.5s3.36-7.5,7.5-7.5h190c4.14,0,7.5,3.36,7.5,7.5s-3.36,7.5-7.5,7.5Zm-197.5-44.17c0-4.14,3.36-7.5,7.5-7.5h10c4.14,0,7.5,3.36,7.5,7.5s-3.36,7.5-7.5,7.5h-10c-4.14,0-7.5-3.36-7.5-7.5Zm197.5,7.5H181c-4.14,0-7.5-3.36-7.5-7.5s3.36-7.5,7.5-7.5h150c4.14,0,7.5,3.36,7.5,7.5s-3.36,7.5-7.5,7.5Zm0-36.67H141c-4.14,0-7.5-3.36-7.5-7.5s3.36-7.5,7.5-7.5h190c4.14,0,7.5,3.36,7.5,7.5s-3.36,7.5-7.5,7.5Zm0-36.67H181c-4.14,0-7.5-3.36-7.5-7.5s3.36-7.5,7.5-7.5h150c4.14,0,7.5,3.36,7.5,7.5s-3.36,7.5-7.5,7.5Z"/>
    <rect class="cls-1" x="103.5" y="150" width="115" height="75" rx="22.5" ry="22.5"/>
  </g>
</svg>