<?xml version="1.0" encoding="UTF-8"?>
<svg id="OBJECT" xmlns="http://www.w3.org/2000/svg" viewBox="0 0 512 512">
  <defs>
    <style>
      .cls-1 {
        fill: #FD4360;
      }

      .cls-2 {
        fill: #dadada;
      }
    </style>
  </defs>
  <g>
    <path class="cls-2" d="M177.5,133.5c4.14,0,7.5-3.36,7.5-7.5v-5c0-4.14-3.36-7.5-7.5-7.5s-7.5,3.36-7.5,7.5v5c0,4.14,3.36,7.5,7.5,7.5Z"/>
    <path class="cls-2" d="M217.5,0c-25.37,0-46.16,19.99-47.44,45.04-.86-.03-1.72-.04-2.56-.04-45.49,0-82.5,37.01-82.5,82.5,0,1.72,.06,3.48,.18,5.24C33.99,152.03,0,200.81,0,256s33.99,103.97,85.18,123.26c-.12,1.76-.18,3.51-.18,5.24,0,45.49,37.01,82.5,82.5,82.5,.85,0,1.7-.02,2.56-.04,1.28,25.05,22.07,45.04,47.44,45.04s47.5-21.31,47.5-47.5V47.5c0-26.19-21.31-47.5-47.5-47.5Zm0,497c-17.92,0-32.5-14.58-32.5-32.5v-48.5c0-4.14-3.36-7.5-7.5-7.5s-7.5,3.36-7.5,7.5v35.95c-.84,.03-1.68,.05-2.5,.05-37.22,0-67.5-30.28-67.5-67.5,0-.94,.03-1.89,.07-2.85h27.43c4.14,0,7.5-3.36,7.5-7.5s-3.36-7.5-7.5-7.5h-33.06c-47.56-16.02-79.44-60.34-79.44-110.65s31.88-94.63,79.44-110.65h33.06c4.14,0,7.5-3.36,7.5-7.5s-3.36-7.5-7.5-7.5h-27.43c-.04-.96-.07-1.91-.07-2.85,0-37.22,30.28-67.5,67.5-67.5,.82,0,1.66,.02,2.5,.05v35.95c0,4.14,3.36,7.5,7.5,7.5s7.5-3.36,7.5-7.5V47.5c0-17.92,14.58-32.5,32.5-32.5s32.5,14.58,32.5,32.5v116h-72.5c-15.16,0-27.5,12.34-27.5,27.5v20h-23.92l-8.11-20.29c-1.14-2.85-3.9-4.71-6.96-4.71h-19.87c-4.14,0-7.5,3.36-7.5,7.5s3.36,7.5,7.5,7.5h14.79l8.11,20.29c1.14,2.85,3.9,4.71,6.96,4.71h29v22.5H81c-4.14,0-7.5,3.36-7.5,7.5s3.36,7.5,7.5,7.5h69v22.5h-29c-3.07,0-5.82,1.87-6.96,4.71l-8.11,20.29h-14.79c-4.14,0-7.5,3.36-7.5,7.5s3.36,7.5,7.5,7.5h19.87c3.07,0,5.82-1.87,6.96-4.71l8.11-20.29h23.92v20c0,15.16,12.34,27.5,27.5,27.5h72.5v116c0,17.92-14.58,32.5-32.5,32.5Zm-20-293.5c-4.14,0-7.5,3.36-7.5,7.5v90c0,4.14,3.36,7.5,7.5,7.5h52.5v25h-72.5c-6.89,0-12.5-5.61-12.5-12.5V191c0-6.89,5.61-12.5,12.5-12.5h72.5v25h-52.5Zm52.5,15v75h-45v-75h45Z"/>
    <path class="cls-2" d="M177.5,378.5c-4.14,0-7.5,3.36-7.5,7.5v5c0,4.14,3.36,7.5,7.5,7.5s7.5-3.36,7.5-7.5v-5c0-4.14-3.36-7.5-7.5-7.5Z"/>
    <path class="cls-2" d="M225,246h5c4.14,0,7.5-3.36,7.5-7.5s-3.36-7.5-7.5-7.5h-5c-4.14,0-7.5,3.36-7.5,7.5s3.36,7.5,7.5,7.5Z"/>
    <path class="cls-2" d="M225,281h5c4.14,0,7.5-3.36,7.5-7.5s-3.36-7.5-7.5-7.5h-5c-4.14,0-7.5,3.36-7.5,7.5s3.36,7.5,7.5,7.5Z"/>
    <path class="cls-2" d="M322.5,148.5h-25c-4.14,0-7.5,3.36-7.5,7.5v200c0,4.14,3.36,7.5,7.5,7.5h25c12.41,0,22.5-10.09,22.5-22.5V171c0-12.41-10.09-22.5-22.5-22.5Zm7.5,192.5c0,4.14-3.36,7.5-7.5,7.5h-17.5V163.5h17.5c4.14,0,7.5,3.36,7.5,7.5v170Z"/>
    <path class="cls-2" d="M56,248.5h-5c-4.14,0-7.5,3.36-7.5,7.5s3.36,7.5,7.5,7.5h5c4.14,0,7.5-3.36,7.5-7.5s-3.36-7.5-7.5-7.5Z"/>
  </g>
  <g>
    <path class="cls-1" d="M474.5,218.5c-18.11,0-33.26,12.9-36.75,30h-70.25c-4.14,0-7.5,3.36-7.5,7.5s3.36,7.5,7.5,7.5h70.25c3.48,17.1,18.64,30,36.75,30,20.68,0,37.5-16.82,37.5-37.5s-16.82-37.5-37.5-37.5Z"/>
    <circle class="cls-1" cx="484.5" cy="146" r="27.5"/>
    <path class="cls-1" d="M435.31,138.5c-9.7,0-18.28,6.18-21.35,15.38l-14.87,44.62h-31.59c-4.14,0-7.5,3.36-7.5,7.5s3.36,7.5,7.5,7.5h37c3.23,0,6.09-2.07,7.12-5.13l16.58-49.74c1.02-3.07,3.88-5.13,7.12-5.13h7.36c-.44-2.44-.68-4.94-.68-7.5s.24-5.06,.68-7.5h-7.36Z"/>
    <circle class="cls-1" cx="426" cy="27.5" r="27.5"/>
    <path class="cls-1" d="M327.5,123.5h56.52c9.4,0,17.89-5.93,21.13-14.76l14.38-39.24c-5.08-.78-9.86-2.47-14.19-4.88l-14.28,38.96c-1.08,2.94-3.91,4.92-7.04,4.92h-56.52c-4.14,0-7.5,3.36-7.5,7.5s3.36,7.5,7.5,7.5Z"/>
    <path class="cls-1" d="M302.5,108.5h-5c-4.14,0-7.5,3.36-7.5,7.5s3.36,7.5,7.5,7.5h5c4.14,0,7.5-3.36,7.5-7.5s-3.36-7.5-7.5-7.5Z"/>
    <circle class="cls-1" cx="484.5" cy="366" r="27.5"/>
    <path class="cls-1" d="M435.31,358.5c-3.23,0-6.09-2.06-7.12-5.13l-16.58-49.74c-1.02-3.06-3.89-5.13-7.12-5.13h-37c-4.14,0-7.5,3.36-7.5,7.5s3.36,7.5,7.5,7.5h31.59l14.87,44.62c3.07,9.2,11.65,15.38,21.35,15.38h7.36c-.44-2.44-.68-4.94-.68-7.5s.24-5.06,.68-7.5h-7.36Z"/>
    <circle class="cls-1" cx="426" cy="484.5" r="27.5"/>
    <path class="cls-1" d="M419.53,442.49l-14.38-39.24c-3.24-8.83-11.73-14.76-21.13-14.76h-56.52c-4.14,0-7.5,3.36-7.5,7.5s3.36,7.5,7.5,7.5h56.52c3.13,0,5.96,1.98,7.04,4.92l14.28,38.96c4.32-2.42,9.11-4.1,14.19-4.88Z"/>
    <path class="cls-1" d="M302.5,388.5h-5c-4.14,0-7.5,3.36-7.5,7.5s3.36,7.5,7.5,7.5h5c4.14,0,7.5-3.36,7.5-7.5s-3.36-7.5-7.5-7.5Z"/>
  </g>
</svg>