<?xml version="1.0" encoding="UTF-8"?>
<svg id="OBJECT" xmlns="http://www.w3.org/2000/svg" viewBox="0 0 32 32">
  <defs>
    <style>
      .cls-1 {
        fill: #FD4360;
      }

      .cls-1, .cls-2 {
        stroke-width: 0px;
      }

      .cls-2 {
        fill: #dadada;
      }
    </style>
  </defs>
  <g>
    <path class="cls-2" d="m23.53,5.57c-.55,0-1,.45-1,1,0,.55.45,1,1,1h.01c.5,0,.98.2,1.33.55.36.36.55.83.55,1.34,0,.55.44,1,1,1h0c.55,0,1-.44,1-1,0-1.05-.4-2.03-1.14-2.77-.74-.74-1.7-1.15-2.77-1.14Z"/>
    <path class="cls-2" d="m29.02,3.98c-1.28-1.28-2.98-1.98-4.79-1.98h-.03c-.55,0-1,.45-1,1,0,.55.45,1,1,1h.03c1.28,0,2.47.49,3.37,1.39.91.9,1.4,2.11,1.39,3.4,0,.55.44,1,1,1h0c.55,0,1-.44,1-1,0-1.83-.69-3.54-1.98-4.82Z"/>
    <path class="cls-2" d="m23.71,8.97c-.39-.39-1.02-.39-1.41,0s-.39,1.02,0,1.41l.32.32c.2.2.45.29.71.29s.51-.1.71-.29c.39-.39.39-1.02,0-1.41l-.32-.32Z"/>
    <path class="cls-2" d="m19.59,1.19c-.23-.17-.51-.23-.79-.17L3.8,4.02c-.42.08-.74.42-.79.85l-2,15c-.04.29.05.57.24.79.19.22.46.34.75.34h19c.28,0,.56-.12.75-.33s.28-.5.25-.78L19.99,1.89c-.03-.28-.18-.53-.4-.7ZM4.9,5.84l13.23-2.65.27,2.44-13.84,2.77.34-2.57Zm-1.75,13.16l1.13-8.5,14.34-2.87.71,6.37h-8.33c-.55,0-1,.45-1,1s.45,1,1,1h8.55l.33,3H3.14Z"/>
    <path class="cls-2" d="m7.5,14h-.5c-.55,0-1,.45-1,1s.45,1,1,1h.5c.55,0,1-.45,1-1s-.45-1-1-1Z"/>
  </g>
  <g>
    <path class="cls-1" d="m1,26c0,2.76,2.24,5,5,5h1v-8H1v3Z"/>
    <path class="cls-1" d="m9,23v8h8c2.76,0,5-2.24,5-5v-3h-13Zm7,4h-4c-.55,0-1-.45-1-1s.45-1,1-1h4c.55,0,1,.45,1,1s-.45,1-1,1Zm3,0h-.5c-.55,0-1-.45-1-1s.45-1,1-1h.5c.55,0,1,.45,1,1s-.45,1-1,1Z"/>
  </g>
</svg>