<?xml version="1.0" encoding="UTF-8"?>
<svg id="OBJECT" xmlns="http://www.w3.org/2000/svg" viewBox="0 0 512 512">
  <defs>
    <style>
      .cls-1 {
        fill: #FD4360;
      }

      .cls-2 {
        fill: #dadada;
      }
    </style>
  </defs>
  <g>
    <path class="cls-2" d="M504.5,447h-26V194.5c0-15.16-12.34-27.5-27.5-27.5h-115c-4.14,0-7.5,3.36-7.5,7.5s3.36,7.5,7.5,7.5h115c6.89,0,12.5,5.61,12.5,12.5v252.5H48.5V194.5c0-6.89,5.61-12.5,12.5-12.5h115c4.14,0,7.5-3.36,7.5-7.5s-3.36-7.5-7.5-7.5H61c-15.16,0-27.5,12.34-27.5,27.5v252.5H7.5c-4.14,0-7.5,3.36-7.5,7.5v30c0,15.16,12.34,27.5,27.5,27.5H484.5c15.16,0,27.5-12.34,27.5-27.5v-30c0-4.14-3.36-7.5-7.5-7.5Zm-7.5,37.5c0,6.89-5.61,12.5-12.5,12.5H27.5c-6.89,0-12.5-5.61-12.5-12.5v-22.5H497v22.5Z"/>
    <path class="cls-2" d="M106,252c-4.14,0-7.5,3.36-7.5,7.5s3.36,7.5,7.5,7.5h10c4.14,0,7.5-3.36,7.5-7.5s-3.36-7.5-7.5-7.5h-10Z"/>
    <path class="cls-2" d="M146,252c-4.14,0-7.5,3.36-7.5,7.5s3.36,7.5,7.5,7.5h10c4.14,0,7.5-3.36,7.5-7.5s-3.36-7.5-7.5-7.5h-10Z"/>
    <path class="cls-2" d="M366,267c4.14,0,7.5-3.36,7.5-7.5s-3.36-7.5-7.5-7.5h-10c-4.14,0-7.5,3.36-7.5,7.5s3.36,7.5,7.5,7.5h10Z"/>
    <path class="cls-2" d="M406,267c4.14,0,7.5-3.36,7.5-7.5s-3.36-7.5-7.5-7.5h-10c-4.14,0-7.5,3.36-7.5,7.5s3.36,7.5,7.5,7.5h10Z"/>
    <path class="cls-2" d="M183.52,229.5c0-4.14-3.36-7.5-7.5-7.5H91c-12.41,0-22.5,10.09-22.5,22.5v160c0,12.41,10.09,22.5,22.5,22.5H421c12.41,0,22.5-10.09,22.5-22.5V244.5c0-12.41-10.09-22.5-22.5-22.5h-85.02c-4.14,0-7.5,3.36-7.5,7.5s3.36,7.5,7.5,7.5h85.02c4.14,0,7.5,3.36,7.5,7.5v97.5H83.5v-97.5c0-4.14,3.36-7.5,7.5-7.5h85.02c4.14,0,7.5-3.36,7.5-7.5Zm-10.02,182.5v-55h165v55H173.5Zm255-7.5c0,4.14-3.36,7.5-7.5,7.5h-67.5v-55h75v47.5Zm-270-47.5v55H91c-4.14,0-7.5-3.36-7.5-7.5v-47.5h75Z"/>
  </g>
  <g>
    <path class="cls-1" d="M212.64,78.24l2.97,1.19,32.03-12.81c.28-.11,.57-.2,.86-.3V16.42L208.79,.54c-2.31-.93-4.93-.64-6.99,.75-2.06,1.4-3.3,3.72-3.3,6.21V57.35c0,9.25,5.55,17.45,14.14,20.89Z"/>
    <path class="cls-1" d="M310.2,1.29c-2.06-1.4-4.68-1.68-6.99-.75l-39.71,15.89v49.89c.29,.1,.58,.18,.86,.3l32.03,12.81,2.97-1.19c8.59-3.44,14.14-11.64,14.14-20.89V7.5c0-2.49-1.23-4.82-3.3-6.21Z"/>
    <path class="cls-1" d="M198.5,215h115v-65h-115v65Zm77.5-40c0-4.14,3.36-7.5,7.5-7.5s7.5,3.36,7.5,7.5v15c0,4.14-3.36,7.5-7.5,7.5s-7.5-3.36-7.5-7.5v-15Zm-27.5,0c0-4.14,3.36-7.5,7.5-7.5s7.5,3.36,7.5,7.5v15c0,4.14-3.36,7.5-7.5,7.5s-7.5-3.36-7.5-7.5v-15Zm-27.5,0c0-4.14,3.36-7.5,7.5-7.5s7.5,3.36,7.5,7.5v15c0,4.14-3.36,7.5-7.5,7.5s-7.5-3.36-7.5-7.5v-15Z"/>
    <path class="cls-1" d="M223.83,281.37l27.48,21.99c1.37,1.1,3.03,1.64,4.69,1.64s3.32-.55,4.69-1.64l27.48-21.99c15.75-12.6,24.9-31.26,25.3-51.37h-114.93c.39,20.11,9.55,38.77,25.3,51.37Z"/>
    <path class="cls-1" d="M299.36,96.77l-40.57-16.23c-1.79-.72-3.78-.72-5.57,0l-40.57,16.23c-8.59,3.44-14.14,11.64-14.14,20.89v17.34h115v-17.34c0-9.25-5.55-17.45-14.14-20.89Z"/>
  </g>
</svg>