<?xml version="1.0" encoding="UTF-8"?>
<svg id="OBJECT" xmlns="http://www.w3.org/2000/svg" viewBox="0 0 32 32">
  <defs>
    <style>
      .cls-1 {
        fill: #FD4360;
      }

      .cls-1, .cls-2 {
        stroke-width: 0px;
      }

      .cls-2 {
        fill: #dadada;
      }
    </style>
  </defs>
  <g>
    <path class="cls-1" d="m15.88,13.57c.36-.18.76-.28,1.18-.28,1.49,0,2.71,1.22,2.71,2.71s-1.22,2.71-2.71,2.71c-.43,0-.82-.11-1.18-.28-.57,1.41-1.62,2.58-2.95,3.3.92.49,1.96.78,3.08.78,3.58,0,6.5-2.92,6.5-6.5s-2.92-6.5-6.5-6.5c-1.11,0-2.16.28-3.08.78,1.33.72,2.38,1.89,2.95,3.3Z"/>
    <path class="cls-1" d="m16.35,16.01c0,.38.32.7.71.7s.71-.32.71-.71-.32-.71-.71-.71-.7.31-.71.7c0,0,0,0,0,.01s0,0,0,.01Z"/>
    <path class="cls-1" d="m14.35,16.02s0-.01,0-.02,0-.01,0-.02c0-2.03-1.37-3.72-3.22-4.27-1.01,1.15-1.63,2.65-1.63,4.29s.62,3.15,1.63,4.29c1.85-.55,3.21-2.25,3.22-4.27Z"/>
  </g>
  <path class="cls-2" d="m30,1H2c-.55,0-1,.45-1,1v8c0,.55.45,1,1,1h4v17c0,1.65,1.35,3,3,3h14c1.65,0,3-1.35,3-3V11h4c.55,0,1-.45,1-1V2c0-.55-.45-1-1-1Zm-10.91,28h-6.18c-.42-2.51-2.4-4.49-4.91-4.91V7.91c2.51-.42,4.49-2.4,4.91-4.91h6.18c.42,2.51,2.4,4.49,4.91,4.91v16.18c-2.51.42-4.49,2.4-4.91,4.91Zm4.91-23.14c-1.4-.36-2.49-1.46-2.86-2.86h2.86v2.86Zm-13.14-2.86c-.36,1.4-1.46,2.49-2.86,2.86v-2.86h2.86Zm-7.86,6V3h3v6h-3Zm5,19v-1.86c1.4.36,2.49,1.46,2.86,2.86h-1.86c-.55,0-1-.45-1-1Zm15,1h-1.86c.36-1.4,1.46-2.49,2.86-2.86v1.86c0,.55-.45,1-1,1Zm6-20h-3V3h3v6Z"/>
</svg>