<?xml version="1.0" encoding="UTF-8"?>
<svg id="OBJECT" xmlns="http://www.w3.org/2000/svg" viewBox="0 0 32 32">
  <defs>
    <style>
      .cls-1 {
        fill: #FD4360;
      }

      .cls-1, .cls-2 {
        stroke-width: 0px;
      }

      .cls-2 {
        fill: #dadada;
      }
    </style>
  </defs>
  <g>
    <path class="cls-2" d="m28,1H4c-1.65,0-3,1.35-3,3v6c0,1.65,1.35,3,3,3h1.5c.55,0,1-.45,1-1s-.45-1-1-1h-1.5c-.55,0-1-.45-1-1v-6c0-.55.45-1,1-1h24c.55,0,1,.45,1,1v6c0,.55-.45,1-1,1h-1.5c-.55,0-1,.45-1,1s.45,1,1,1h1.5c1.65,0,3-1.35,3-3v-6c0-1.65-1.35-3-3-3Z"/>
    <path class="cls-2" d="m27,7c0-.55-.45-1-1-1H6c-.55,0-1,.45-1,1s.45,1,1,1h20c.55,0,1-.45,1-1Z"/>
  </g>
  <g>
    <path class="cls-1" d="m14.5,10v21h9V10h-9Zm5.25,2.5c0-.55.45-1,1-1s1,.45,1,1v5c0,.55-.45,1-1,1s-1-.45-1-1v-5Zm-3.5,0c0-.55.45-1,1-1s1,.45,1,1v1c0,.55-.45,1-1,1s-1-.45-1-1v-1Zm0,4.5c0-.55.45-1,1-1s1,.45,1,1v.5c0,.55-.45,1-1,1s-1-.45-1-1v-.5Zm5.75,9c0,1.38-1.12,2.5-2.5,2.5h-1c-1.38,0-2.5-1.12-2.5-2.5v-3c0-1.38,1.12-2.5,2.5-2.5h1c1.38,0,2.5,1.12,2.5,2.5v3Z"/>
    <rect class="cls-1" x="18" y="22.5" width="2" height="4" rx=".5" ry=".5"/>
    <rect class="cls-1" x="8.5" y="10" width="4" height="21"/>
  </g>
</svg>