<?xml version="1.0" encoding="UTF-8"?>
<svg id="OBJECT" xmlns="http://www.w3.org/2000/svg" viewBox="0 0 32 32">
  <defs>
    <style>
      .cls-1 {
        fill: #FD4360;
      }

      .cls-1, .cls-2 {
        stroke-width: 0px;
      }

      .cls-2 {
        fill: #dadada;
      }
    </style>
  </defs>
  <g>
    <path class="cls-2" d="m27,10.5v-3c0-1.38-1.12-2.5-2.5-2.5H7.5c-1.38,0-2.5,1.12-2.5,2.5v3c0,1.38,1.12,2.5,2.5,2.5h17c1.38,0,2.5-1.12,2.5-2.5Zm-20,0v-3c0-.28.22-.5.5-.5h17c.28,0,.5.22.5.5v3c0,.28-.22.5-.5.5H7.5c-.28,0-.5-.22-.5-.5Z"/>
    <path class="cls-2" d="m28,1H4c-1.65,0-3,1.35-3,3v18c0,1.65,1.35,3,3,3,.55,0,1-.45,1-1s-.45-1-1-1-1-.45-1-1V4c0-.55.45-1,1-1h24c.55,0,1,.45,1,1v18c0,.55-.45,1-1,1h-11c-.55,0-1,.45-1,1s.45,1,1,1h11c1.65,0,3-1.35,3-3V4c0-1.65-1.35-3-3-3Z"/>
    <path class="cls-2" d="m21,15h-1c-.55,0-1,.45-1,1s.45,1,1,1h1c.55,0,1-.45,1-1s-.45-1-1-1Z"/>
    <path class="cls-2" d="m26,15h-1c-.55,0-1,.45-1,1s.45,1,1,1h1c.55,0,1-.45,1-1s-.45-1-1-1Z"/>
    <path class="cls-2" d="m21,19h-1c-.55,0-1,.45-1,1s.45,1,1,1h1c.55,0,1-.45,1-1s-.45-1-1-1Z"/>
    <path class="cls-2" d="m26,19h-1c-.55,0-1,.45-1,1s.45,1,1,1h1c.55,0,1-.45,1-1s-.45-1-1-1Z"/>
  </g>
  <path class="cls-1" d="m15,17H6c-.55,0-1,.45-1,1s.45,1,1,1h1v11c0,.55.45,1,1,1h5c.55,0,1-.45,1-1v-11h1c.55,0,1-.45,1-1s-.45-1-1-1Z"/>
</svg>