<?xml version="1.0" encoding="UTF-8"?>
<svg id="OBJECT" xmlns="http://www.w3.org/2000/svg" viewBox="0 0 32 32">
  <defs>
    <style>
      .cls-1 {
        fill: #FD4360;
      }

      .cls-1, .cls-2 {
        stroke-width: 0px;
      }

      .cls-2 {
        fill: #dadada;
      }
    </style>
  </defs>
  <path class="cls-2" d="m21.64,20.83l-1.24-1.24c-.97-.97-2.56-.97-3.54,0l-3.74,3.74c-1.19,1.19-3.27,1.19-4.46,0-1.23-1.23-1.23-3.23,0-4.46l3.74-3.74c.47-.47.73-1.1.73-1.77s-.26-1.3-.73-1.77l-1.24-1.24c-.98-.98-2.56-.97-3.54,0l-3.74,3.74C.03,17.96.03,24.24,3.9,28.1c1.93,1.93,4.47,2.9,7,2.9s5.07-.97,7-2.9l3.74-3.74c.47-.47.73-1.1.73-1.77s-.26-1.3-.73-1.77Zm-12.59-9.05c.1-.1.23-.15.35-.15s.26.05.35.15l1.24,1.24c.13.13.15.28.15.35s-.02.23-.15.35l-1.59,1.59-1.94-1.94,1.59-1.59Zm-3.74,14.92c-3.08-3.08-3.08-8.1,0-11.18l.74-.74,1.94,1.94-.74.74c-2.01,2.01-2.01,5.28,0,7.29.97.97,2.27,1.51,3.64,1.51s2.67-.54,3.65-1.51l.74-.74,1.94,1.94-.74.74c-3.08,3.08-8.1,3.08-11.18,0Zm14.92-3.74l-1.59,1.59-1.94-1.94,1.59-1.59c.13-.13.28-.15.35-.15s.23.02.35.15l1.24,1.24c.13.13.15.28.15.35s-.02.23-.15.35Z"/>
  <path class="cls-1" d="m22.5,1c-4.69,0-8.5,3.81-8.5,8.5s3.81,8.5,8.5,8.5,8.5-3.81,8.5-8.5S27.19,1,22.5,1Zm-.83,7.5h1.67c1.47,0,2.67,1.2,2.67,2.67s-1.11,2.56-2.5,2.65v.68c0,.55-.45,1-1,1s-1-.45-1-1v-.67h-1.5c-.55,0-1-.45-1-1s.45-1,1-1h3.33c.37,0,.67-.3.67-.67s-.3-.67-.67-.67h-1.67c-1.47,0-2.67-1.2-2.67-2.67s1.11-2.56,2.5-2.65v-.68c0-.55.45-1,1-1s1,.45,1,1v.67h1.5c.55,0,1,.45,1,1s-.45,1-1,1h-3.33c-.37,0-.67.3-.67.67s.3.67.67.67Z"/>
</svg>