<?xml version="1.0" encoding="UTF-8"?>
<svg id="OBJECT" xmlns="http://www.w3.org/2000/svg" viewBox="0 0 512 512">
  <defs>
    <style>
      .cls-1 {
        fill: #FD4360;
      }

      .cls-2 {
        fill: #dadada;
      }
    </style>
  </defs>
  <g>
    <path class="cls-2" d="M354.5,0c-86.85,0-157.5,70.65-157.5,157.5s70.65,157.5,157.5,157.5,157.5-70.65,157.5-157.5S441.35,0,354.5,0Zm0,300c-78.57,0-142.5-63.92-142.5-142.5S275.93,15,354.5,15s142.5,63.92,142.5,142.5-63.93,142.5-142.5,142.5Z"/>
    <path class="cls-2" d="M307.42,340.12c-4.53-4.53-10.77-6.62-17.12-5.73-6.38,.9-11.82,4.65-14.94,10.3-6.95,12.57-15.85,24.31-26.45,34.92-45.27,45.27-108.23,55.96-140.35,23.84-15.24-15.24-21.36-37.99-17.24-64.07,4.26-26.96,18.85-54.05,41.08-76.28,10.6-10.6,22.35-19.5,34.92-26.45,5.65-3.12,9.4-8.57,10.3-14.94,.9-6.35-1.19-12.58-5.73-17.12l-45.4-45.4c-2.37-2.37-6.03-2.88-8.96-1.25-18.66,10.42-35.94,23.52-51.36,38.93C27.76,235.28,4.46,284.27,.58,334.83c-3.92,50.99,12.32,97.47,45.72,130.88,30.13,30.13,70.9,46.3,116.02,46.3,4.9,0,9.86-.19,14.85-.58,50.56-3.89,99.55-27.18,137.95-65.59,15.42-15.42,28.51-32.7,38.93-51.36,1.63-2.93,1.13-6.59-1.25-8.96l-45.4-45.4ZM119.94,173.86l41.33,41.33c1.6,1.6,1.62,3.46,1.48,4.42-.23,1.67-1.22,3.09-2.71,3.91-13.26,7.33-25.67,16.65-36.91,27.66l-45.01-45.01c12.73-12.52,26.76-23.38,41.82-32.31ZM56.9,455.1c-30.26-30.26-44.95-72.56-41.37-119.12,3.3-42.91,21.73-84.69,52.23-118.95l45.08,45.07c-19.43,22.5-32.21,48.7-36.35,74.94-4.89,30.95,2.73,58.3,21.45,77.02,15.02,15.02,35.6,22.9,59.14,22.89,5.79,0,11.77-.48,17.88-1.44,26.23-4.14,52.44-16.92,74.94-36.35l45.07,45.07c-73.5,65.36-177.92,71-238.06,10.87Zm248.93-21.21l-45.01-45.01c11.01-11.25,20.33-23.65,27.66-36.91,.82-1.48,2.25-2.47,3.91-2.71,.96-.14,2.81-.12,4.42,1.48,0,0,0,0,0,0l41.33,41.33c-8.94,15.06-19.8,29.09-32.31,41.82Z"/>
  </g>
  <g>
    <path class="cls-1" d="M318.05,142.92c-6.9-8.25-11.05-18.86-11.05-30.42,0-26.19,21.31-47.5,47.5-47.5s47.5,21.31,47.5,47.5c0,11.56-4.16,22.17-11.05,30.42,33.65,10.42,60.57,34.69,74.85,65.72,7.19-15.57,11.2-32.9,11.2-51.15,0-67.55-54.95-122.5-122.5-122.5s-122.5,54.95-122.5,122.5c0,18.25,4.02,35.57,11.2,51.15,14.28-31.03,41.2-55.3,74.85-65.72Z"/>
    <path class="cls-1" d="M376.35,154.66c-6.55,3.41-13.97,5.34-21.85,5.34s-15.3-1.94-21.85-5.34c-38.11,7.85-68.06,35.39-80,70.83,22,32.84,59.44,54.51,101.85,54.51s79.85-21.67,101.85-54.51c-11.95-35.44-41.89-62.98-80-70.83Z"/>
    <circle class="cls-1" cx="354.5" cy="112.5" r="32.5"/>
  </g>
</svg>