<?xml version="1.0" encoding="UTF-8"?>
<svg id="OBJECT" xmlns="http://www.w3.org/2000/svg" viewBox="0 0 32 32">
  <defs>
    <style>
      .cls-1 {
        fill: #FD4360;
      }

      .cls-1, .cls-2 {
        stroke-width: 0px;
      }

      .cls-2 {
        fill: #dadada;
      }
    </style>
  </defs>
  <g>
    <path class="cls-2" d="m10,26.5c.26,0,.51-.1.71-.29l4.79-4.79.38.38c.58.58,1.35.88,2.12.88s1.53-.29,2.12-.88l.38-.38,4.79,4.79c.2.2.45.29.71.29s.51-.1.71-.29c.39-.39.39-1.02,0-1.41l-4.79-4.79,4.79-4.79c.39-.39.39-1.02,0-1.41s-1.02-.39-1.41,0l-6.59,6.59c-.39.39-1.02.39-1.41,0l-3.14-3.14c-.39-.39-1.02-.39-1.41,0s-.39,1.02,0,1.41l1.34,1.34-4.79,4.79c-.39.39-.39,1.02,0,1.41.2.2.45.29.71.29Z"/>
    <path class="cls-2" d="m28.5,9h-9.55c-.55,0-1,.45-1,1s.45,1,1,1h9.55c.28,0,.5.22.5.5v17c0,.28-.22.5-.5.5H7.5c-.28,0-.5-.22-.5-.5v-9.96c0-.55-.45-1-1-1s-1,.45-1,1v9.96c0,1.38,1.12,2.5,2.5,2.5h21c1.38,0,2.5-1.12,2.5-2.5V11.5c0-1.38-1.12-2.5-2.5-2.5Z"/>
  </g>
  <path class="cls-1" d="m16,8.5c0-4.14-3.36-7.5-7.5-7.5S1,4.36,1,8.5s3.36,7.5,7.5,7.5,7.5-3.36,7.5-7.5Zm-8.5,0v-4c0-.55.45-1,1-1s1,.45,1,1v3.59l1.71,1.71c.39.39.39,1.02,0,1.41-.2.2-.45.29-.71.29s-.51-.1-.71-.29l-2-2c-.19-.19-.29-.44-.29-.71Z"/>
</svg>