<?xml version="1.0" encoding="UTF-8"?>
<svg id="OBJECT" xmlns="http://www.w3.org/2000/svg" viewBox="0 0 512 512">
  <defs>
    <style>
      .cls-1 {
        fill: #FD4360;
      }

      .cls-2 {
        fill: #dadada;
      }
    </style>
  </defs>
  <g>
    <path class="cls-2" d="M464.5,0H244.5c-26.19,0-47.5,21.31-47.5,47.5v220c0,26.19,21.31,47.5,47.5,47.5h220c26.19,0,47.5-21.31,47.5-47.5V47.5c0-26.19-21.31-47.5-47.5-47.5Zm32.5,267.5c0,17.92-14.58,32.5-32.5,32.5H244.5c-17.92,0-32.5-14.58-32.5-32.5V47.5c0-17.92,14.58-32.5,32.5-32.5h220c17.92,0,32.5,14.58,32.5,32.5v220Z"/>
    <path class="cls-2" d="M290.09,349.48c-4.37-4.37-10.38-6.37-16.49-5.51-6.14,.87-11.38,4.48-14.39,9.92-6.52,11.79-14.87,22.81-24.82,32.76-42.43,42.43-101.41,52.5-131.47,22.43s-20-89.04,22.43-131.47c9.95-9.95,20.98-18.3,32.76-24.82,5.44-3.01,9.05-8.25,9.92-14.39,.86-6.11-1.15-12.12-5.51-16.49l-42.73-42.73c-2.37-2.37-6.03-2.88-8.96-1.25-17.6,9.83-33.9,22.18-48.44,36.72C26.18,250.88,4.21,297.09,.54,344.77c-3.7,48.12,11.63,91.99,43.16,123.52,28.45,28.44,66.92,43.7,109.51,43.7,4.62,0,9.3-.18,14.01-.54,47.69-3.67,93.9-25.64,130.12-61.86,14.54-14.54,26.89-30.83,36.71-48.44,1.63-2.93,1.13-6.59-1.25-8.96l-42.73-42.73ZM113.25,193.86l38.66,38.66c1.37,1.37,1.38,2.96,1.27,3.78-.2,1.43-1.05,2.65-2.32,3.36-12.39,6.85-23.99,15.54-34.52,25.8l-41.74-41.74c11.78-11.54,24.75-21.58,38.66-29.86ZM54.31,457.69C-2.03,401.35,3.17,303.57,64.24,234.59l41.8,41.8c-18.19,21.17-30.16,45.79-34.05,70.43-4.62,29.27,2.59,55.15,20.31,72.87,17.72,17.72,43.6,24.93,72.87,20.31,24.65-3.89,49.27-15.86,70.43-34.05l41.8,41.8c-68.99,61.07-166.77,66.27-223.1,9.93Zm233.97-20.28l-41.74-41.74c10.26-10.53,18.95-22.13,25.8-34.52,.71-1.28,1.93-2.12,3.36-2.32,.83-.11,2.41-.1,3.78,1.27l38.66,38.66c-8.29,13.91-18.32,26.87-29.86,38.66Z"/>
  </g>
  <g>
    <path class="cls-1" d="M367,222.5v-12.5h-25v12.5c0,6.89,5.61,12.5,12.5,12.5s12.5-5.61,12.5-12.5Z"/>
    <path class="cls-1" d="M403.14,210h-21.14v12.5c0,15.16-12.34,27.5-27.5,27.5s-27.5-12.34-27.5-27.5v-12.5h-21.14c-5.62,0-11.26-1.29-16.32-3.74l-42.54-20.56v56.8c0,12.41,10.09,22.5,22.5,22.5h170c12.41,0,22.5-10.09,22.5-22.5v-56.8l-42.54,20.56c-5.05,2.44-10.7,3.74-16.32,3.74Z"/>
    <path class="cls-1" d="M464.5,90h-42.5v-17.5c0-12.41-10.09-22.5-22.5-22.5h-90c-12.41,0-22.5,10.09-22.5,22.5v17.5h-42.5c-4.14,0-7.5,3.36-7.5,7.5v52.59c0,8.57,4.99,16.53,12.71,20.26l46.36,22.41c3.04,1.47,6.42,2.24,9.79,2.24h97.28c3.37,0,6.76-.78,9.79-2.24l46.36-22.41s0,0,0,0c7.72-3.73,12.71-11.68,12.71-20.26v-52.59c0-4.14-3.36-7.5-7.5-7.5Zm-180,55h-10c-4.14,0-7.5-3.36-7.5-7.5s3.36-7.5,7.5-7.5h10c4.14,0,7.5,3.36,7.5,7.5s-3.36,7.5-7.5,7.5Zm115,0h-90c-4.14,0-7.5-3.36-7.5-7.5s3.36-7.5,7.5-7.5h90c4.14,0,7.5,3.36,7.5,7.5s-3.36,7.5-7.5,7.5Zm7.5-55h-105v-17.5c0-4.14,3.36-7.5,7.5-7.5h90c4.14,0,7.5,3.36,7.5,7.5v17.5Zm27.5,55h-10c-4.14,0-7.5-3.36-7.5-7.5s3.36-7.5,7.5-7.5h10c4.14,0,7.5,3.36,7.5,7.5s-3.36,7.5-7.5,7.5Z"/>
  </g>
</svg>