<?xml version="1.0" encoding="UTF-8"?>
<svg id="OBJECT" xmlns="http://www.w3.org/2000/svg" viewBox="0 0 32 32">
  <defs>
    <style>
      .cls-1 {
        fill: #FD4360;
      }

      .cls-1, .cls-2 {
        stroke-width: 0px;
      }

      .cls-2 {
        fill: #dadada;
      }
    </style>
  </defs>
  <path class="cls-2" d="m22.71,21.78l-3.29-3.29c-.39-.39-1.02-.39-1.41,0l-4.27,4.27c-1.24,1.24-3.26,1.24-4.5,0-1.24-1.24-1.24-3.26,0-4.5l4.27-4.27c.19-.19.29-.44.29-.71s-.11-.52-.29-.71l-3.29-3.29c-.38-.38-1.04-.38-1.41,0l-4.93,4.93c-1.86,1.86-2.88,4.32-2.88,6.95s1.02,5.09,2.88,6.95,4.32,2.88,6.95,2.88,5.09-1.02,6.95-2.88l4.93-4.93c.19-.19.29-.44.29-.71s-.11-.52-.29-.71Zm-13.19-10.36l1.87,1.87-1.21,1.21-1.87-1.87,1.21-1.21Zm6.85,15.29c-1.48,1.48-3.44,2.29-5.54,2.29s-4.06-.81-5.54-2.29-2.29-3.44-2.29-5.54.81-4.06,2.29-5.54l1.59-1.59,1.87,1.87-.94.94c-2.02,2.02-2.02,5.31,0,7.33,2.02,2.02,5.31,2.02,7.33,0l.94-.94,1.87,1.87-1.59,1.59Zm3.01-3.01l-1.87-1.87,1.21-1.21,1.87,1.87-1.21,1.21Z"/>
  <g>
    <path class="cls-1" d="m30,1c-.55,0-1,.45-1,1v.17l-2.91.53v3.31c0,.55-.45,1-1,1s-1-.45-1-1v-2.94l-4.09.74v8.4l1,.18v2.12c0,1.38,1.12,2.5,2.5,2.5h.61c.91,0,1.75-.5,2.19-1.3l1.18-2.14,1.52.28v.17c0,.55.45,1,1,1s1-.45,1-1V2c0-.55-.45-1-1-1Zm-5.45,13.74c-.09.16-.26.26-.44.26h-.61c-.28,0-.5-.22-.5-.5v-1.76l2.41.44-.85,1.56Z"/>
    <path class="cls-1" d="m14,8.5c0,1.1.9,2,2,2h2v-5h-4v3Z"/>
  </g>
</svg>