<?xml version="1.0" encoding="UTF-8"?>
<svg id="OBJECT" xmlns="http://www.w3.org/2000/svg" viewBox="0 0 32 32">
  <defs>
    <style>
      .cls-1 {
        fill: #FD4360;
      }

      .cls-1, .cls-2 {
        stroke-width: 0px;
      }

      .cls-2 {
        fill: #dadada;
      }
    </style>
  </defs>
  <path class="cls-2" d="m30,1c-.55,0-1,.45-1,1v.13l-13.14,1.88c-.49.07-.86.49-.86.99v.5h-3c-.55,0-1,.45-1,1v3c0,1.65,1.35,3,3,3h1v.5c0,.5.37.92.86.99l2.14.31v3.2c0,1.38,1.12,2.5,2.5,2.5h2.51c1,0,1.9-.59,2.3-1.52l1.27-2.96,2.42.35v.13c0,.55.45,1,1,1s1-.45,1-1V2c0-.55-.45-1-1-1ZM14,10.5c-.55,0-1-.45-1-1v-2h2v3h-1Zm9.47,7.2c-.08.18-.26.3-.46.3h-2.51c-.28,0-.5-.22-.5-.5v-2.92l4.53.65-1.06,2.47Zm-6.47-5.56v-6.27l7.09-1.01v5.15c0,.55.45,1,1,1s1-.45,1-1v-5.43l2.91-.42v9.69l-12-1.71Z"/>
  <g>
    <path class="cls-1" d="m14.28,21.32c-.94,2.27-3.17,3.88-5.78,3.88s-4.84-1.6-5.78-3.88c-1.07,1.3-1.72,2.96-1.72,4.78v1.95c0,1.63,1.32,2.95,2.95,2.95h9.1c1.63,0,2.95-1.32,2.95-2.95v-1.95c0-1.81-.65-3.48-1.72-4.78Z"/>
    <path class="cls-1" d="m8.5,23.2c2.34,0,4.25-1.91,4.25-4.25v-1.95c0-1.98-1.62-3.6-3.6-3.6h-1.3c-1.98,0-3.6,1.62-3.6,3.6v1.95c0,2.34,1.91,4.25,4.25,4.25Z"/>
  </g>
</svg>