<?xml version="1.0" encoding="UTF-8"?>
<svg id="OBJECT" xmlns="http://www.w3.org/2000/svg" viewBox="0 0 32 32">
  <defs>
    <style>
      .cls-1 {
        fill: #FD4360;
      }

      .cls-2 {
        fill: #dadada;
      }
    </style>
  </defs>
  <g>
    <path class="cls-2" d="M24.5,6h-5v-2c0-1.65-1.35-3-3-3h-1c-1.65,0-3,1.35-3,3v2h-4.5c-.27,0-.52,.11-.71,.29L1.29,12.29c-.19,.19-.29,.44-.29,.71v11.5c0,1.38,1.12,2.5,2.5,2.5H24.5c1.38,0,2.5-1.12,2.5-2.5V8.5c0-1.38-1.12-2.5-2.5-2.5Zm-10-2c0-.55,.45-1,1-1h1c.55,0,1,.45,1,1v2h-3v-2Zm-7.5,5.41v2.09c0,.28-.22,.5-.5,.5h-2.09l2.59-2.59Zm18,15.09c0,.28-.22,.5-.5,.5H3.5c-.28,0-.5-.22-.5-.5V14h3.5c1.38,0,2.5-1.12,2.5-2.5v-3.5h3.5v2c0,1.65,1.35,3,3,3h2c.55,0,1-.45,1-1s-.45-1-1-1h-2c-.55,0-1-.45-1-1v-2h10c.28,0,.5,.22,.5,.5V24.5Z"/>
    <path class="cls-2" d="M22,21H6c-.55,0-1,.45-1,1s.45,1,1,1H22c.55,0,1-.45,1-1s-.45-1-1-1Z"/>
    <path class="cls-2" d="M22,17H10c-.55,0-1,.45-1,1s.45,1,1,1h12c.55,0,1-.45,1-1s-.45-1-1-1Z"/>
    <path class="cls-2" d="M6,19h.5c.55,0,1-.45,1-1s-.45-1-1-1h-.5c-.55,0-1,.45-1,1s.45,1,1,1Z"/>
  </g>
  <path class="cls-1" d="M29,10.05v14.45c0,2.48-2.02,4.5-4.5,4.5H5.05c.23,1.14,1.24,2,2.45,2H28.5c1.38,0,2.5-1.12,2.5-2.5V12.5c0-1.21-.86-2.22-2-2.45Z"/>
</svg>