<?xml version="1.0" encoding="UTF-8"?>
<svg id="OBJECT" xmlns="http://www.w3.org/2000/svg" viewBox="0 0 32 32">
  <defs>
    <style>
      .cls-1 {
        fill: #FD4360;
      }

      .cls-2 {
        fill: #dadada;
      }
    </style>
  </defs>
  <path class="cls-2" d="M20.7,22.22l-3.21-3.21c-.39-.39-1.02-.39-1.41,0l-4.18,4.18c-.82,.82-2.26,.82-3.08,0-.41-.41-.64-.96-.64-1.54s.23-1.13,.64-1.54l4.17-4.18c.39-.39,.39-1.02,0-1.41l-3.21-3.21c-.38-.38-1.04-.38-1.41,0l-4.82,4.82C.15,19.52,.15,25.05,3.55,28.45c1.7,1.7,3.93,2.55,6.17,2.55s4.47-.85,6.17-2.55l4.82-4.82c.39-.39,.39-1.02,0-1.41ZM9.07,13.42l1.8,1.8-1.16,1.16-1.8-1.8,1.16-1.16Zm5.4,13.62c-2.62,2.62-6.89,2.62-9.51,0-2.62-2.62-2.62-6.89,0-9.51l1.54-1.54,1.8,1.8-.9,.9c-.79,.79-1.22,1.84-1.22,2.96s.43,2.17,1.22,2.96c.79,.79,1.84,1.22,2.96,1.22s2.17-.44,2.96-1.22l.9-.9,1.8,1.8-1.54,1.54Zm2.96-2.96l-1.8-1.8,1.16-1.16,1.8,1.8-1.16,1.16Z"/>
  <path class="cls-1" d="M23,1c-4.41,0-8,3.59-8,8s3.59,8,8,8,8-3.59,8-8S27.41,1,23,1Zm-.75,7h1.5c1.38,0,2.5,1.12,2.5,2.5,0,1.29-.99,2.35-2.25,2.47v.53c0,.55-.45,1-1,1s-1-.45-1-1v-.5h-1.25c-.55,0-1-.45-1-1s.45-1,1-1h3c.28,0,.5-.22,.5-.5s-.22-.5-.5-.5h-1.5c-1.38,0-2.5-1.12-2.5-2.5,0-1.29,.99-2.35,2.25-2.47v-.53c0-.55,.45-1,1-1s1,.45,1,1v.5h1.25c.55,0,1,.45,1,1s-.45,1-1,1h-3c-.28,0-.5,.22-.5,.5s.22,.5,.5,.5Z"/>
</svg>