<?xml version="1.0" encoding="UTF-8"?>
<svg id="OBJECT" xmlns="http://www.w3.org/2000/svg" viewBox="0 0 32 32">
  <defs>
    <style>
      .cls-1 {
        fill: #FD4360;
      }

      .cls-2 {
        fill: #dadada;
      }
    </style>
  </defs>
  <g>
    <path class="cls-2" d="M25,1H12c-.27,0-.52,.11-.71,.29l-7,7c-.19,.19-.29,.44-.29,.71V28c0,1.65,1.35,3,3,3H25c1.65,0,3-1.35,3-3V4c0-1.65-1.35-3-3-3Zm-14,3.41v2.59c0,.55-.45,1-1,1h-2.59l3.59-3.59Zm15,23.59c0,.55-.45,1-1,1H7c-.55,0-1-.45-1-1V10h4c1.65,0,3-1.35,3-3V3h12c.55,0,1,.45,1,1V28Z"/>
    <path class="cls-2" d="M23,25h-2c-.55,0-1,.45-1,1s.45,1,1,1h2c.55,0,1-.45,1-1s-.45-1-1-1Z"/>
  </g>
  <path class="cls-1" d="M23.08,5.19c-.26-.19-.6-.24-.9-.14l-4.63,1.54c-1.23,.41-2.05,1.55-2.05,2.85v9.56h-4c-1.65,0-3,1.35-3,3v2c0,1.65,1.35,3,3,3h3c1.65,0,3-1.35,3-3V13.72l3.95-1.32c1.23-.41,2.05-1.55,2.05-2.85v-3.56c0-.32-.15-.62-.42-.81Z"/>
</svg>