<?xml version="1.0" encoding="UTF-8"?>
<svg id="OBJECT" xmlns="http://www.w3.org/2000/svg" viewBox="0 0 32 32">
  <defs>
    <style>
      .cls-1 {
        fill: #FD4360;
      }

      .cls-1, .cls-2 {
        stroke-width: 0px;
      }

      .cls-2 {
        fill: #dadada;
      }
    </style>
  </defs>
  <g>
    <path class="cls-2" d="m30.82,11.43l-6.43-9.18c-.55-.78-1.44-1.25-2.39-1.25s-1.85.47-2.39,1.25l-6.43,9.18c-.21.31-.24.7-.07,1.04.17.33.51.54.89.54h3.5v17c0,.55.45,1,1,1h7c.55,0,1-.45,1-1V13h3.5c.37,0,.71-.21.89-.54.17-.33.15-.73-.07-1.04Zm-11.32,17.57v-2h5v2h-5Zm3-18c-.55,0-1,.45-1,1s.45,1,1,1h2v12h-5v-13c0-.55-.45-1-1-1h-2.58l5.33-7.61c.34-.49,1.16-.49,1.51,0l5.33,7.61h-5.58Z"/>
    <path class="cls-2" d="m22,6c-.55,0-1,.45-1,1v1c0,.55.45,1,1,1s1-.45,1-1v-1c0-.55-.45-1-1-1Z"/>
  </g>
  <g>
    <path class="cls-1" d="m13.53,22.13c-.91,2.16-3.05,3.67-5.53,3.67s-4.62-1.52-5.53-3.67c-.92,1.18-1.47,2.66-1.47,4.27v1.2c0,1.88,1.53,3.4,3.4,3.4h7.2c1.88,0,3.4-1.53,3.4-3.4v-1.2c0-1.61-.55-3.09-1.47-4.27Z"/>
    <path class="cls-1" d="m8,23.8c2.21,0,4-1.79,4-4v-1.8c0-1.88-1.53-3.4-3.4-3.4h-1.2c-1.88,0-3.4,1.53-3.4,3.4v1.8c0,2.21,1.79,4,4,4Z"/>
  </g>
</svg>