<?xml version="1.0" encoding="UTF-8"?>
<svg id="OBJECT" xmlns="http://www.w3.org/2000/svg" viewBox="0 0 32 32">
  <defs>
    <style>
      .cls-1 {
        fill: #FD4360;
      }

      .cls-1, .cls-2 {
        stroke-width: 0px;
      }

      .cls-2 {
        fill: #dadada;
      }
    </style>
  </defs>
  <g>
    <path class="cls-2" d="m30,29h-10.5v-10.5c0-1.38-1.12-2.5-2.5-2.5h-2c-1.38,0-2.5,1.12-2.5,2.5v10.5h-2.5v-4.5c0-1.38-1.12-2.5-2.5-2.5h-2c-1.38,0-2.5,1.12-2.5,2.5v4.5h-1c-.55,0-1,.45-1,1s.45,1,1,1h28c.55,0,1-.45,1-1s-.45-1-1-1Zm-15.5-10.5c0-.28.22-.5.5-.5h2c.28,0,.5.22.5.5v10.5h-3v-10.5Zm-9.5,6c0-.28.22-.5.5-.5h2c.28,0,.5.22.5.5v4.5h-3v-4.5Z"/>
    <path class="cls-2" d="m4.09,18.41c.25,0,.49-.09.68-.27l14.73-13.83v2.69c0,.55.45,1,1,1s1-.45,1-1V2c0-.55-.45-1-1-1h-5c-.55,0-1,.45-1,1s.45,1,1,1h2.47L3.4,16.68c-.4.38-.42,1.01-.04,1.41.2.21.46.32.73.32Z"/>
  </g>
  <path class="cls-1" d="m29,12c0-1.1-.9-2-2-2h-3c-1.1,0-2,.9-2,2v15h7v-15Z"/>
</svg>