<?xml version="1.0" encoding="UTF-8"?>
<svg id="OBJECT" xmlns="http://www.w3.org/2000/svg" viewBox="0 0 32 32">
  <defs>
    <style>
      .cls-1 {
        fill: #FD4360;
      }

      .cls-2 {
        fill: #dadada;
      }
    </style>
  </defs>
  <g>
    <path class="cls-2" d="M30.5,23.73L21.01,3.89c-.84-1.75-2.64-2.89-4.58-2.89h-.86c-1.94,0-3.74,1.13-4.58,2.89L1.5,23.73c-.33,.68-.5,1.44-.5,2.19,0,2.8,2.28,5.08,5.08,5.08H25.92c2.8,0,5.08-2.28,5.08-5.08,0-.75-.17-1.51-.5-2.19Zm-4.58,5.27H6.08c-1.7,0-3.08-1.38-3.08-3.08,0-.46,.1-.92,.3-1.33L12.79,4.75c.51-1.06,1.6-1.75,2.77-1.75h.86c1.18,0,2.27,.69,2.77,1.75l9.49,19.85c.2,.41,.3,.87,.3,1.33,0,1.7-1.38,3.08-3.08,3.08Z"/>
    <path class="cls-2" d="M24.5,24h-2c-.55,0-1,.45-1,1s.45,1,1,1h2c.55,0,1-.45,1-1s-.45-1-1-1Z"/>
    <path class="cls-2" d="M9.5,24h-2c-.55,0-1,.45-1,1s.45,1,1,1h2c.55,0,1-.45,1-1s-.45-1-1-1Z"/>
  </g>
  <g>
    <path class="cls-1" d="M14.92,19h2.17c1.03,0,1.9-.79,1.99-1.82l.64-7.1c.09-1.04-.26-2.09-.97-2.86-.71-.77-1.71-1.22-2.76-1.21-1.05,0-2.05,.45-2.76,1.22-.71,.77-1.06,1.82-.96,2.86l.66,7.1c.1,1.03,.96,1.82,1.99,1.82Z"/>
    <rect class="cls-1" x="13.01" y="21" width="6" height="6" rx="2" ry="2" transform="translate(-.03 .02) rotate(-.07)"/>
  </g>
</svg>