<?xml version="1.0" encoding="UTF-8"?>
<svg id="OBJECT" xmlns="http://www.w3.org/2000/svg" viewBox="0 0 512 512">
  <defs>
    <style>
      .cls-1 {
        fill: #FD4360;
      }

      .cls-2 {
        fill: #dadada;
      }
    </style>
  </defs>
  <g>
    <path class="cls-2" d="M206,487c4.14,0,7.5-3.36,7.5-7.5v-10c0-4.14-3.36-7.5-7.5-7.5s-7.5,3.36-7.5,7.5v10c0,4.14,3.36,7.5,7.5,7.5Z"/>
    <path class="cls-2" d="M239.33,487c4.14,0,7.5-3.36,7.5-7.5v-10c0-4.14-3.36-7.5-7.5-7.5s-7.5,3.36-7.5,7.5v10c0,4.14,3.36,7.5,7.5,7.5Z"/>
    <path class="cls-2" d="M272.67,487c4.14,0,7.5-3.36,7.5-7.5v-10c0-4.14-3.36-7.5-7.5-7.5s-7.5,3.36-7.5,7.5v10c0,4.14,3.36,7.5,7.5,7.5Z"/>
    <path class="cls-2" d="M306,487c4.14,0,7.5-3.36,7.5-7.5v-10c0-4.14-3.36-7.5-7.5-7.5s-7.5,3.36-7.5,7.5v10c0,4.14,3.36,7.5,7.5,7.5Z"/>
    <path class="cls-2" d="M461,467h-5c-4.14,0-7.5,3.36-7.5,7.5s3.36,7.5,7.5,7.5h5c4.14,0,7.5-3.36,7.5-7.5s-3.36-7.5-7.5-7.5Z"/>
    <path class="cls-2" d="M56,467h-5c-4.14,0-7.5,3.36-7.5,7.5s3.36,7.5,7.5,7.5h5c4.14,0,7.5-3.36,7.5-7.5s-3.36-7.5-7.5-7.5Z"/>
    <path class="cls-2" d="M439.5,150c-17.92,0-32.5,14.58-32.5,32.5s14.58,32.5,32.5,32.5,32.5-14.58,32.5-32.5-14.58-32.5-32.5-32.5Zm0,50c-9.65,0-17.5-7.85-17.5-17.5s7.85-17.5,17.5-17.5,17.5,7.85,17.5,17.5-7.85,17.5-17.5,17.5Z"/>
    <path class="cls-2" d="M72.5,150c-17.92,0-32.5,14.58-32.5,32.5s14.58,32.5,32.5,32.5,32.5-14.58,32.5-32.5-14.58-32.5-32.5-32.5Zm0,50c-9.65,0-17.5-7.85-17.5-17.5s7.85-17.5,17.5-17.5,17.5,7.85,17.5,17.5-7.85,17.5-17.5,17.5Z"/>
    <path class="cls-2" d="M439.5,110h-11.41c-3.74-33.7-32.4-60-67.09-60-2.82,0-5.65,.18-8.45,.53C330.55,18.8,294.82,0,256,0s-74.55,18.8-96.55,50.53c-2.8-.35-5.62-.53-8.45-.53-34.68,0-63.34,26.3-67.09,60h-11.41C32.52,110,0,142.52,0,182.5s32.52,72.5,72.5,72.5h48.72l-32.46,51.94c-3.44,5.5-5.25,11.83-5.25,18.32,0,21.91,17.83,39.74,39.74,39.74h80.26v72h-27.5c-12.41,0-22.5,10.09-22.5,22.5v7.5H81c-4.14,0-7.5,3.36-7.5,7.5s3.36,7.5,7.5,7.5h72.5v7.5c0,12.41,10.09,22.5,22.5,22.5h160c12.41,0,22.5-10.09,22.5-22.5v-7.5h72.5c4.14,0,7.5-3.36,7.5-7.5s-3.36-7.5-7.5-7.5h-72.5v-7.5c0-12.41-10.09-22.5-22.5-22.5h-27.5v-72h80.26c21.91,0,39.74-17.83,39.74-39.74,0-6.48-1.82-12.82-5.25-18.32l-32.46-51.94h48.72c39.98,0,72.5-32.52,72.5-72.5s-32.52-72.5-72.5-72.5Zm-221,255h15v72h-15v-72Zm30,72v-72h15v72h-15Zm95,22.5v30c0,4.14-3.36,7.5-7.5,7.5H176c-4.14,0-7.5-3.36-7.5-7.5v-30c0-4.14,3.36-7.5,7.5-7.5h160c4.14,0,7.5,3.36,7.5,7.5Zm-50-22.5h-15v-72h15v72Zm120-111.74c0,13.64-11.1,24.74-24.74,24.74H123.24c-13.64,0-24.74-11.1-24.74-24.74,0-3.67,1.03-7.26,2.97-10.37L239.41,94.19c3.6-5.76,9.8-9.19,16.59-9.19s12.99,3.44,16.59,9.19l137.94,220.7c1.95,3.11,2.97,6.7,2.97,10.37Zm26-85.26h-58.09l-96.1-153.75c-6.36-10.17-17.31-16.25-29.31-16.25s-22.95,6.07-29.31,16.25l-96.1,153.75h-58.09c-31.71,0-57.5-25.79-57.5-57.5s25.79-57.5,57.5-57.5h63.5c4.14,0,7.5-3.36,7.5-7.5s-3.36-7.5-7.5-7.5h-36.96c3.65-25.41,25.55-45,51.96-45,3.54,0,7.08,.36,10.53,1.06,3.05,.62,6.16-.71,7.83-3.33,18.93-29.88,51.33-47.72,86.64-47.72s67.71,17.84,86.64,47.72c1.67,2.63,4.78,3.96,7.83,3.33,3.44-.7,6.98-1.06,10.53-1.06,26.4,0,48.3,19.59,51.96,45h-36.96c-4.14,0-7.5,3.36-7.5,7.5s3.36,7.5,7.5,7.5h63.5c31.71,0,57.5,25.79,57.5,57.5s-25.79,57.5-57.5,57.5Z"/>
    <path class="cls-2" d="M351,110h-5c-4.14,0-7.5,3.36-7.5,7.5s3.36,7.5,7.5,7.5h5c4.14,0,7.5-3.36,7.5-7.5s-3.36-7.5-7.5-7.5Z"/>
    <path class="cls-2" d="M166,110h-5c-4.14,0-7.5,3.36-7.5,7.5s3.36,7.5,7.5,7.5h5c4.14,0,7.5-3.36,7.5-7.5s-3.36-7.5-7.5-7.5Z"/>
  </g>
  <g>
    <path class="cls-1" d="M256,140c-9.14,0-17.93,3.87-24.11,10.61-6.18,6.74-9.27,15.83-8.48,24.94l6.82,78.47c.79,9.11,8.29,15.98,17.43,15.98h16.66c9.15,0,16.64-6.87,17.43-15.98l6.82-78.47c.79-9.11-2.3-18.2-8.48-24.94-6.18-6.74-14.97-10.61-24.11-10.61Z"/>
    <rect class="cls-1" x="231" y="285" width="50" height="50" rx="17.5" ry="17.5"/>
    <rect class="cls-1" x="323.5" y="280" width="55" height="55" rx="22.5" ry="22.5"/>
    <rect class="cls-1" x="133.5" y="280" width="55" height="55" rx="22.5" ry="22.5"/>
  </g>
</svg>