<?xml version="1.0" encoding="UTF-8"?>
<svg id="OBJECT" xmlns="http://www.w3.org/2000/svg" viewBox="0 0 512 512">
  <defs>
    <style>
      .cls-1 {
        fill: #FD4360;
      }

      .cls-2 {
        fill: #dadada;
      }
    </style>
  </defs>
  <g>
    <path class="cls-2" d="M37.5,45h15c4.14,0,7.5-3.36,7.5-7.5s-3.36-7.5-7.5-7.5h-15c-4.14,0-7.5,3.36-7.5,7.5s3.36,7.5,7.5,7.5Z"/>
    <path class="cls-2" d="M87.5,45h15c4.14,0,7.5-3.36,7.5-7.5s-3.36-7.5-7.5-7.5h-15c-4.14,0-7.5,3.36-7.5,7.5s3.36,7.5,7.5,7.5Z"/>
    <path class="cls-2" d="M137.5,45h15c4.14,0,7.5-3.36,7.5-7.5s-3.36-7.5-7.5-7.5h-15c-4.14,0-7.5,3.36-7.5,7.5s3.36,7.5,7.5,7.5Z"/>
    <path class="cls-2" d="M489.5,0H22.5C10.09,0,0,10.09,0,22.5V342.5c0,12.41,10.09,22.5,22.5,22.5H98.19l-53.98,88.08c-3.73,6.09-5.7,13.08-5.7,20.22,0,21.34,17.36,38.7,38.7,38.7H434.8c21.34,0,38.7-17.36,38.7-38.7,0-7.14-1.97-14.13-5.7-20.22l-53.98-88.08h75.69c12.41,0,22.5-10.09,22.5-22.5V22.5c0-12.41-10.09-22.5-22.5-22.5ZM22.5,15H489.5c4.14,0,7.5,3.36,7.5,7.5V60H15V22.5c0-4.14,3.36-7.5,7.5-7.5ZM458.5,473.3c0,13.07-10.63,23.7-23.7,23.7H77.2c-13.07,0-23.7-10.63-23.7-23.7,0-4.37,1.21-8.65,3.49-12.38L233.27,173.31c4.28-6.98,12.02-11.31,20.21-11.31h5.06c8.19,0,15.93,4.34,20.21,11.31l176.27,287.6c2.29,3.73,3.49,8.01,3.49,12.38Zm31-123.3h-84.88l-113.09-184.52c-6.99-11.4-19.63-18.48-32.99-18.48h-5.06c-13.37,0-26.01,7.08-32.99,18.48l-113.09,184.52H22.5c-4.14,0-7.5-3.36-7.5-7.5V75H497V342.5c0,4.14-3.36,7.5-7.5,7.5Z"/>
    <path class="cls-2" d="M346,472h10c4.14,0,7.5-3.36,7.5-7.5s-3.36-7.5-7.5-7.5h-10c-4.14,0-7.5,3.36-7.5,7.5s3.36,7.5,7.5,7.5Z"/>
    <path class="cls-2" d="M386,472h10c4.14,0,7.5-3.36,7.5-7.5s-3.36-7.5-7.5-7.5h-10c-4.14,0-7.5,3.36-7.5,7.5s3.36,7.5,7.5,7.5Z"/>
    <path class="cls-2" d="M126,457h-10c-4.14,0-7.5,3.36-7.5,7.5s3.36,7.5,7.5,7.5h10c4.14,0,7.5-3.36,7.5-7.5s-3.36-7.5-7.5-7.5Z"/>
    <path class="cls-2" d="M166,457h-10c-4.14,0-7.5,3.36-7.5,7.5s3.36,7.5,7.5,7.5h10c4.14,0,7.5-3.36,7.5-7.5s-3.36-7.5-7.5-7.5Z"/>
  </g>
  <g>
    <rect class="cls-1" x="367" y="110" width="115" height="95" rx="22.5" ry="22.5"/>
    <path class="cls-1" d="M434.5,220h-50c-4.14,0-7.5,3.36-7.5,7.5s3.36,7.5,7.5,7.5h50c4.14,0,7.5-3.36,7.5-7.5s-3.36-7.5-7.5-7.5Z"/>
    <path class="cls-1" d="M464.5,220h-10c-4.14,0-7.5,3.36-7.5,7.5s3.36,7.5,7.5,7.5h10c4.14,0,7.5-3.36,7.5-7.5s-3.36-7.5-7.5-7.5Z"/>
    <rect class="cls-1" x="30" y="110" width="115" height="95" rx="22.5" ry="22.5"/>
    <path class="cls-1" d="M127.5,220h-50c-4.14,0-7.5,3.36-7.5,7.5s3.36,7.5,7.5,7.5h50c4.14,0,7.5-3.36,7.5-7.5s-3.36-7.5-7.5-7.5Z"/>
    <path class="cls-1" d="M57.5,220h-10c-4.14,0-7.5,3.36-7.5,7.5s3.36,7.5,7.5,7.5h10c4.14,0,7.5-3.36,7.5-7.5s-3.36-7.5-7.5-7.5Z"/>
    <path class="cls-1" d="M256,227c-10.61,0-20.47,4.25-27.75,11.98-7.28,7.72-10.95,17.81-10.33,28.41l7.26,123.44c.7,11.88,10.56,21.18,22.46,21.18h16.71c11.9,0,21.76-9.3,22.46-21.18l7.26-123.44c.62-10.6-3.04-20.69-10.33-28.41-7.28-7.72-17.14-11.98-27.75-11.98Z"/>
    <rect class="cls-1" x="226" y="427" width="60" height="55" rx="22.5" ry="22.5"/>
  </g>
</svg>