<?xml version="1.0" encoding="UTF-8"?>
<svg id="OBJECT" xmlns="http://www.w3.org/2000/svg" viewBox="0 0 32 32">
  <defs>
    <style>
      .cls-1 {
        fill: #FD4360;
      }

      .cls-1, .cls-2 {
        stroke-width: 0px;
      }

      .cls-2 {
        fill: #dadada;
      }
    </style>
  </defs>
  <g>
    <path class="cls-2" d="m16,1C9.11,1,3.5,6.61,3.5,13.5s5.61,12.5,12.5,12.5,12.5-5.61,12.5-12.5S22.89,1,16,1Zm0,23c-5.79,0-10.5-4.71-10.5-10.5S10.21,3,16,3s10.5,4.71,10.5,10.5-4.71,10.5-10.5,10.5Z"/>
    <path class="cls-2" d="m16,4.5c-4.96,0-9,4.04-9,9s4.04,9,9,9,9-4.04,9-9-4.04-9-9-9Zm0,16c-3.86,0-7-3.14-7-7s3.14-7,7-7,7,3.14,7,7-3.14,7-7,7Z"/>
    <path class="cls-2" d="m18,16.5h-1v-7c0-.35-.18-.67-.47-.85s-.66-.2-.97-.04l-2,1c-.49.25-.69.85-.45,1.34.25.49.85.69,1.34.45l.55-.28v5.38h-1c-.55,0-1,.45-1,1s.45,1,1,1h4c.55,0,1-.45,1-1s-.45-1-1-1Z"/>
  </g>
  <g>
    <path class="cls-1" d="m29.61,18.46c-1.29,3.54-3.92,6.42-7.28,8.06v3.48c0,.4.24.77.62.92.12.05.25.08.38.08.26,0,.52-.1.71-.29l2.63-2.63,2.63,2.63c.29.29.72.37,1.09.22.37-.15.62-.52.62-.92v-6.23c0-1.89-.5-3.71-1.39-5.31Z"/>
    <path class="cls-1" d="m2.39,18.46c-.9,1.6-1.39,3.42-1.39,5.31v6.23c0,.4.24.77.62.92.37.15.8.07,1.09-.22l2.63-2.63,2.63,2.63c.19.19.45.29.71.29.13,0,.26-.02.38-.08.37-.15.62-.52.62-.92v-3.48c-3.36-1.64-5.98-4.53-7.28-8.06Z"/>
  </g>
</svg>