<?xml version="1.0" encoding="UTF-8"?>
<svg id="OBJECT" xmlns="http://www.w3.org/2000/svg" viewBox="0 0 32 32">
  <defs>
    <style>
      .cls-1 {
        fill: #FD4360;
      }

      .cls-1, .cls-2 {
        stroke-width: 0px;
      }

      .cls-2 {
        fill: #dadada;
      }
    </style>
  </defs>
  <g>
    <path class="cls-2" d="m28,18h-2v-3c0-3.86-3.14-7-7-7h-6c-3.86,0-7,3.14-7,7v3h-2c-1.65,0-3,1.35-3,3v5c0,1.65,1.35,3,3,3h2.18c.41,1.16,1.51,2,2.82,2h14c1.3,0,2.4-.84,2.82-2h2.18c1.65,0,3-1.35,3-3v-5c0-1.65-1.35-3-3-3ZM3,26v-5c0-.55.45-1,1-1h2v7h-2c-.55,0-1-.45-1-1Zm21,2c0,.55-.45,1-1,1h-14c-.55,0-1-.45-1-1v-13c0-2.76,2.24-5,5-5h6c2.76,0,5,2.24,5,5v13Zm5-2c0,.55-.45,1-1,1h-2v-7h2c.55,0,1,.45,1,1v5Z"/>
    <path class="cls-2" d="m17,12h-2c-.55,0-1,.45-1,1s.45,1,1,1h2c.55,0,1-.45,1-1s-.45-1-1-1Z"/>
  </g>
  <g>
    <path class="cls-1" d="m21.5,1h-1c-1.38,0-2.5,1.12-2.5,2.5v2.5h1c1.85,0,3.57.56,5,1.52V3.5c0-1.38-1.12-2.5-2.5-2.5Z"/>
    <path class="cls-1" d="m14,6v-2.5c0-1.38-1.12-2.5-2.5-2.5h-1c-1.38,0-2.5,1.12-2.5,2.5v4.02c1.43-.96,3.15-1.52,5-1.52h1Z"/>
    <path class="cls-1" d="m21,20h-10c-.55,0-1,.45-1,1v4c0,1.65,1.35,3,3,3h6c1.65,0,3-1.35,3-3v-4c0-.55-.45-1-1-1Z"/>
  </g>
</svg>