<?xml version="1.0" encoding="UTF-8"?>
<svg id="OBJECT" xmlns="http://www.w3.org/2000/svg" viewBox="0 0 32 32">
  <defs>
    <style>
      .cls-1 {
        fill: #FD4360;
      }

      .cls-1, .cls-2 {
        stroke-width: 0px;
      }

      .cls-2 {
        fill: #dadada;
      }
    </style>
  </defs>
  <rect class="cls-1" x="25" y="12" width="6" height="8"/>
  <rect class="cls-1" x="19" y="12" width="4" height="8"/>
  <path class="cls-1" d="m19,27h11c.55,0,1-.45,1-1v-4h-12v5Z"/>
  <path class="cls-1" d="m30,5h-11v5h12v-4c0-.55-.45-1-1-1Z"/>
  <path class="cls-2" d="m16,5H2c-.55,0-1,.45-1,1v20c0,.55.45,1,1,1h14c.55,0,1-.45,1-1V6c0-.55-.45-1-1-1Zm-1,2v3H3v-3h12ZM3,20v-8h4v8H3Zm6-8h6v8h-6v-8Zm-6,13v-3h12v3H3Z"/>
</svg>