<?xml version="1.0" encoding="UTF-8"?>
<svg id="OBJECT" xmlns="http://www.w3.org/2000/svg" viewBox="0 0 32 32">
  <defs>
    <style>
      .cls-1 {
        fill: #FD4360;
      }

      .cls-1, .cls-2 {
        stroke-width: 0px;
      }

      .cls-2 {
        fill: #dadada;
      }
    </style>
  </defs>
  <path class="cls-2" d="m30,12h-.62l-.75-6h1.37c.55,0,1-.45,1-1s-.45-1-1-1h-10v-.5c0-1.38-1.12-2.5-2.5-2.5h-3c-1.38,0-2.5,1.12-2.5,2.5v3c0,1.38,1.12,2.5,2.5,2.5h.5v8h-1.5c-.55,0-1,.45-1,1v7h-3.5c-1.65,0-3,1.35-3,3v1h-2.5c-.55,0-1,.45-1,1s.45,1,1,1h25c.55,0,1-.45,1-1s-.45-1-1-1h-2.5v-1c0-1.65-1.35-3-3-3h-3.5v-7c0-.55-.45-1-1-1h-1.5v-8h.5c1.38,0,2.5-1.12,2.5-2.5v-.5h3.37l-.75,6h-.62c-.55,0-1,.45-1,1v3c0,2.21,1.79,4,4,4h2c2.21,0,4-1.79,4-4v-3c0-.55-.45-1-1-1Zm-6,16v1H8v-1c0-.55.45-1,1-1h14c.55,0,1,.45,1,1Zm-6.5-3h-3v-6h3v6Zm.5-18.5c0,.28-.22.5-.5.5h-3c-.28,0-.5-.22-.5-.5v-3c0-.28.22-.5.5-.5h3c.28,0,.5.22.5.5v3Zm7.38-.5h1.23l.75,6h-2.73l.75-6Zm3.62,10c0,1.1-.9,2-2,2h-2c-1.1,0-2-.9-2-2v-2h6v2Z"/>
  <g>
    <path class="cls-1" d="m1,14v3c0,1.66,1.34,3,3,3h4c1.66,0,3-1.34,3-3v-3H1Z"/>
    <path class="cls-1" d="m2,6h1.37l-.75,6h2.02l.75-6h1.23l.75,6h2.02l-.75-6h1.37v-2H2c-.55,0-1,.45-1,1s.45,1,1,1Z"/>
  </g>
</svg>