<?xml version="1.0" encoding="UTF-8"?>
<svg id="OBJECT" xmlns="http://www.w3.org/2000/svg" viewBox="0 0 32 32">
  <defs>
    <style>
      .cls-1 {
        fill: #FD4360;
      }

      .cls-1, .cls-2 {
        stroke-width: 0px;
      }

      .cls-2 {
        fill: #dadada;
      }
    </style>
  </defs>
  <path class="cls-2" d="m27,29h-2v-3c0-.55-.45-1-1-1h-4.5v-6c0-.55-.45-1-1-1h-1.5v-9.14c1.72-.45,3-2,3-3.86,0-2.21-1.79-4-4-4s-4,1.79-4,4c0,1.86,1.28,3.41,3,3.86v9.14h-1.5c-.55,0-1,.45-1,1v6h-4.5c-.55,0-1,.45-1,1v3h-2c-.55,0-1,.45-1,1s.45,1,1,1h22c.55,0,1-.45,1-1s-.45-1-1-1ZM14,5c0-1.1.9-2,2-2s2,.9,2,2-.9,2-2,2-2-.9-2-2Zm.5,15h3v5h-3v-5Zm-5.5,7h14v2h-14v-2Z"/>
  <g>
    <path class="cls-1" d="m21,14.28c0,2.61,1.9,4.94,4.5,5.2,2.98.29,5.5-2.05,5.5-4.98v-2h-10v1.78Z"/>
    <path class="cls-1" d="m23.74,6l-1.06,4.5h2.06l1.06-4.5h.42l1.06,4.5h2.06l-1.06-4.5h1.74c.55,0,1-.45,1-1s-.45-1-1-1h-8.09c.06.33.09.66.09,1s-.04.67-.09,1h1.83Z"/>
    <path class="cls-1" d="m1,14.5c0,2.92,2.52,5.27,5.5,4.98,2.6-.25,4.5-2.59,4.5-5.2v-1.78H1v2Z"/>
    <path class="cls-1" d="m2,6h1.74l-1.06,4.5h2.06l1.06-4.5h.42l1.06,4.5h2.06l-1.06-4.5h1.83c-.06-.33-.09-.66-.09-1s.04-.67.09-1H2c-.55,0-1,.45-1,1s.45,1,1,1Z"/>
  </g>
</svg>