<?xml version="1.0" encoding="UTF-8"?>
<svg id="OBJECT" xmlns="http://www.w3.org/2000/svg" viewBox="0 0 32 32">
  <defs>
    <style>
      .cls-1 {
        fill: #FD4360;
      }

      .cls-2 {
        fill: #dadada;
      }
    </style>
  </defs>
  <path class="cls-2" d="m30,14h-.28l-1.33-4h1.61c.55,0,1-.45,1-1s-.45-1-1-1h-7.22l-.81-3.24c-.11-.44-.51-.76-.97-.76h-2v-.5c0-1.38-1.12-2.5-2.5-2.5h-1c-1.38,0-2.5,1.12-2.5,2.5v.5h-2c-.46,0-.86.31-.97.76l-.81,3.24H2c-.55,0-1,.45-1,1s.45,1,1,1h1.61l-1.33,4h-.28c-.55,0-1,.45-1,1v2c0,2.21,1.79,4,4,4h2c2.21,0,4-1.79,4-4v-2c0-.55-.45-1-1-1h-.28l-1.33-4h1.61c.46,0,.86-.31.97-.76l.81-3.24h1.22v.5c0,1.21.86,2.22,2,2.45v10.05c0,.55.45,1,1,1s1-.45,1-1v-10.05c1.14-.23,2-1.24,2-2.45v-.5h1.22l.81,3.24c.11.44.51.76.97.76h1.61l-1.33,4h-.28c-.55,0-1,.45-1,1v2c0,2.21,1.79,4,4,4h2c2.21,0,4-1.79,4-4v-2c0-.55-.45-1-1-1Zm-21,3c0,1.1-.9,2-2,2h-2c-1.1,0-2-.9-2-2v-1h6v1Zm-1.39-3h-3.22l1.33-4h.56l1.33,4Zm9.39-7.5c0,.28-.22.5-.5.5h-1c-.28,0-.5-.22-.5-.5v-3c0-.28.22-.5.5-.5h1c.28,0,.5.22.5.5v3Zm8.72,3.5h.56l1.33,4h-3.22l1.33-4Zm3.28,7c0,1.1-.9,2-2,2h-2c-1.1,0-2-.9-2-2v-1h6v1Z"/>
  <g>
    <path class="cls-1" d="m27,29h-2v-.5c0-.83-.67-1.5-1.5-1.5h-15c-.83,0-1.5.67-1.5,1.5v.5h-2c-.55,0-1,.45-1,1s.45,1,1,1h22c.55,0,1-.45,1-1s-.45-1-1-1Z"/>
    <rect class="cls-1" x="12.5" y="22" width="7" height="3"/>
  </g>
</svg>