<?xml version="1.0" encoding="UTF-8"?>
<svg id="OBJECT" xmlns="http://www.w3.org/2000/svg" viewBox="0 0 32 32">
  <defs>
    <style>
      .cls-1 {
        fill: #FD4360;
      }

      .cls-2 {
        fill: #dadada;
      }
    </style>
  </defs>
  <path class="cls-2" d="M30,14.5h-.28l-1.33-4h1.61c.55,0,1-.45,1-1s-.45-1-1-1h-6c-.55,0-1-.45-1-1v-2.5c0-.55-.45-1-1-1h-2.14c-.45-1.72-2-3-3.86-3s-3.41,1.28-3.86,3h-2.14c-.55,0-1,.45-1,1v2.5c0,.55-.45,1-1,1H2c-.55,0-1,.45-1,1s.45,1,1,1h1.61l-1.33,4h-.28c-.55,0-1,.45-1,1v2c0,1.65,1.35,3,3,3h4c1.65,0,3-1.35,3-3v-2c0-.55-.45-1-1-1h-.28l-1.35-4.04c1.48-.19,2.63-1.44,2.63-2.96v-1.5h1.14c.36,1.4,1.46,2.49,2.86,2.86v10.14c0,.55,.45,1,1,1s1-.45,1-1V8.86c1.4-.36,2.49-1.46,2.86-2.86h1.14v1.5c0,1.53,1.15,2.78,2.63,2.96l-1.35,4.04h-.28c-.55,0-1,.45-1,1v2c0,1.65,1.35,3,3,3h4c1.65,0,3-1.35,3-3v-2c0-.55-.45-1-1-1Zm-21,3c0,.55-.45,1-1,1H4c-.55,0-1-.45-1-1v-1h6v1Zm-4.61-3l1.33-4h.56l1.33,4h-3.22Zm11.61-7.5c-1.1,0-2-.9-2-2s.9-2,2-2,2,.9,2,2-.9,2-2,2Zm9.72,3.5h.56l1.33,4h-3.22l1.33-4Zm3.28,7c0,.55-.45,1-1,1h-4c-.55,0-1-.45-1-1v-1h6v1Z"/>
  <g>
    <path class="cls-1" d="M19.5,23c0-1.1-.9-2-2-2h-3c-1.1,0-2,.9-2,2v1h7v-1Z"/>
    <path class="cls-1" d="M26,29h-6.5v-3h-7v3H6c-.55,0-1,.45-1,1s.45,1,1,1H26c.55,0,1-.45,1-1s-.45-1-1-1Z"/>
  </g>
</svg>