<?xml version="1.0" encoding="UTF-8"?>
<svg id="OBJECT" xmlns="http://www.w3.org/2000/svg" viewBox="0 0 32 32">
  <defs>
    <style>
      .cls-1 {
        fill: #FD4360;
      }

      .cls-1, .cls-2 {
        stroke-width: 0px;
      }

      .cls-2 {
        fill: #dadada;
      }
    </style>
  </defs>
  <g>
    <path class="cls-2" d="m30.15,24.57l-10.15-12.92v-3.65c0-.55-.45-1-1-1s-1,.45-1,1v4c0,.22.08.44.21.62l6.91,8.8c-2.58.88-5.85,1.42-8.7.09-2.77-1.29-5.4-2.04-7.85-2.25l4.92-6.26h2.51c.55,0,1-.45,1-1s-.45-1-1-1h-2v-3c0-.55-.45-1-1-1s-1,.45-1,1v3.65L1.85,24.57c-.55.7-.85,1.57-.85,2.45,0,2.19,1.78,3.97,3.97,3.97h22.06c2.19,0,3.97-1.78,3.97-3.97,0-.89-.3-1.76-.85-2.45Zm-3.12,4.43H4.97c-1.09,0-1.97-.88-1.97-1.97,0-.44.15-.87.42-1.22l3.62-4.61c2.59-.03,5.45.68,8.53,2.12,1.52.71,3.12.99,4.69.99,2.23,0,4.39-.56,6.17-1.23l2.15,2.74c.27.35.42.78.42,1.22,0,1.09-.88,1.97-1.97,1.97Z"/>
    <path class="cls-2" d="m7.5,26h-.5c-.55,0-1,.45-1,1s.45,1,1,1h.5c.55,0,1-.45,1-1s-.45-1-1-1Z"/>
    <path class="cls-2" d="m11.5,26h-.5c-.55,0-1,.45-1,1s.45,1,1,1h.5c.55,0,1-.45,1-1s-.45-1-1-1Z"/>
  </g>
  <rect class="cls-1" x="9.5" y="1" width="13" height="4" rx="1.5" ry="1.5"/>
</svg>