<?xml version="1.0" encoding="UTF-8"?>
<svg id="OBJECT" xmlns="http://www.w3.org/2000/svg" viewBox="0 0 32 32">
  <defs>
    <style>
      .cls-1 {
        fill: #FD4360;
      }

      .cls-1, .cls-2 {
        stroke-width: 0px;
      }

      .cls-2 {
        fill: #dadada;
      }
    </style>
  </defs>
  <g>
    <path class="cls-2" d="m28.33,5.63L15.33,1.06c-.21-.08-.45-.08-.66,0L1.67,5.63c-.4.14-.67.52-.67.94v4.25c0,.55.45,1,1,1h2.71v7.21h-.86c-.55,0-1,.45-1,1v3.34h-.86c-.55,0-1,.45-1,1v3.5c0,.55.45,1,1,1h12.1c.55,0,1-.45,1-1s-.45-1-1-1H3v-1.5h10.1c.55,0,1-.45,1-1s-.45-1-1-1h-.82v-3.34c0-.55-.45-1-1-1h-.86v-7.21h9.14v2.21c0,.55.45,1,1,1s1-.45,1-1v-2.21h1.71v1.21c0,.55.45,1,1,1s1-.45,1-1v-1.21h2.71c.55,0,1-.45,1-1v-4.25c0-.42-.27-.8-.67-.94ZM4.86,23.37v-2.34h5.43v2.34h-5.43Zm3.57-4.34h-1.71v-7.21h1.71v7.21Zm18.57-9.21H3v-2.54L15,3.06l12,4.22v2.54Z"/>
    <path class="cls-2" d="m13,6.41h-1c-.55,0-1,.45-1,1s.45,1,1,1h1c.55,0,1-.45,1-1s-.45-1-1-1Z"/>
    <path class="cls-2" d="m17,8.41h1c.55,0,1-.45,1-1s-.45-1-1-1h-1c-.55,0-1,.45-1,1s.45,1,1,1Z"/>
  </g>
  <path class="cls-1" d="m23.5,16c-4.14,0-7.5,3.36-7.5,7.5s3.36,7.5,7.5,7.5,7.5-3.36,7.5-7.5-3.36-7.5-7.5-7.5Zm-.6,6.5h1.2c1.21,0,2.2.99,2.2,2.2,0,1.08-.78,1.97-1.81,2.16v.24c0,.55-.45,1-1,1s-1-.45-1-1v-.2h-.81c-.55,0-1-.45-1-1s.45-1,1-1h2.41c.11,0,.2-.09.2-.2s-.09-.2-.2-.2h-1.2c-1.21,0-2.2-.99-2.2-2.2,0-1.08.78-1.97,1.81-2.16v-.24c0-.55.45-1,1-1s1,.45,1,1v.2h.81c.55,0,1,.45,1,1s-.45,1-1,1h-2.41c-.11,0-.2.09-.2.2s.09.2.2.2Z"/>
</svg>