<?xml version="1.0" encoding="UTF-8"?>
<svg id="OBJECT" xmlns="http://www.w3.org/2000/svg" viewBox="0 0 512 512">
  <defs>
    <style>
      .cls-1 {
        fill: #FD4360;
      }

      .cls-2 {
        fill: #dadada;
      }
    </style>
  </defs>
  <path class="cls-2" d="M416,105c12.41,0,22.5-10.09,22.5-22.5V22.5c0-12.41-10.09-22.5-22.5-22.5H96c-12.41,0-22.5,10.09-22.5,22.5v60c0,12.41,10.09,22.5,22.5,22.5h12.5v25h-12.5c-12.41,0-22.5,10.09-22.5,22.5v60c0,12.41,10.09,22.5,22.5,22.5h12.5v25h-12.5c-12.41,0-22.5,10.09-22.5,22.5v60c0,12.41,10.09,22.5,22.5,22.5h62.5v42.5c0,4.14,3.36,7.5,7.5,7.5h27.5v49.5c0,4.14-3.36,7.5-7.5,7.5h-58.55c-3.27-11.53-13.89-20-26.45-20-15.16,0-27.5,12.34-27.5,27.5s12.34,27.5,27.5,27.5c12.56,0,23.18-8.47,26.45-20h58.55c12.41,0,22.5-10.09,22.5-22.5v-49.5h40v32.88c-14.32,3.4-25,16.28-25,31.62,0,17.92,14.58,32.5,32.5,32.5s32.5-14.58,32.5-32.5c0-15.34-10.68-28.22-25-31.62v-32.88h40v49.5c0,12.41,10.09,22.5,22.5,22.5h58.55c3.27,11.53,13.89,20,26.45,20,15.16,0,27.5-12.34,27.5-27.5s-12.34-27.5-27.5-27.5c-12.56,0-23.18,8.47-26.45,20h-58.55c-4.14,0-7.5-3.36-7.5-7.5v-49.5h27.5c4.14,0,7.5-3.36,7.5-7.5v-42.5h62.5c12.41,0,22.5-10.09,22.5-22.5v-60c0-12.41-10.09-22.5-22.5-22.5h-12.5v-25h12.5c12.41,0,22.5-10.09,22.5-22.5v-60c0-12.41-10.09-22.5-22.5-22.5h-12.5v-25h12.5ZM101,492c-6.89,0-12.5-5.61-12.5-12.5s5.61-12.5,12.5-12.5,12.5,5.61,12.5,12.5-5.61,12.5-12.5,12.5Zm172.5-12.5c0,9.65-7.85,17.5-17.5,17.5s-17.5-7.85-17.5-17.5,7.85-17.5,17.5-17.5,17.5,7.85,17.5,17.5Zm137.5-12.5c6.89,0,12.5,5.61,12.5,12.5s-5.61,12.5-12.5,12.5-12.5-5.61-12.5-12.5,5.61-12.5,12.5-12.5ZM88.5,82.5V22.5c0-4.14,3.36-7.5,7.5-7.5H416c4.14,0,7.5,3.36,7.5,7.5v60c0,4.14-3.36,7.5-7.5,7.5H96c-4.14,0-7.5-3.36-7.5-7.5Zm250,317.5H173.5v-35h165v35Zm85-117.5v60c0,4.14-3.36,7.5-7.5,7.5H96c-4.14,0-7.5-3.36-7.5-7.5v-60c0-4.14,3.36-7.5,7.5-7.5H416c4.14,0,7.5,3.36,7.5,7.5Zm-35-22.5H123.5v-25H388.5v25Zm35-107.5v60c0,4.14-3.36,7.5-7.5,7.5H96c-4.14,0-7.5-3.36-7.5-7.5v-60c0-4.14,3.36-7.5,7.5-7.5H416c4.14,0,7.5,3.36,7.5,7.5Zm-35-22.5H123.5v-25H388.5v25Z"/>
  <g>
    <rect class="cls-1" x="103.5" y="30" width="65" height="45" rx="7.5" ry="7.5"/>
    <rect class="cls-1" x="183.5" y="30" width="65" height="45" rx="7.5" ry="7.5"/>
    <path class="cls-1" d="M311,60h80c4.14,0,7.5-3.36,7.5-7.5s-3.36-7.5-7.5-7.5h-80c-4.14,0-7.5,3.36-7.5,7.5s3.36,7.5,7.5,7.5Z"/>
    <path class="cls-1" d="M286,45h-5c-4.14,0-7.5,3.36-7.5,7.5s3.36,7.5,7.5,7.5h5c4.14,0,7.5-3.36,7.5-7.5s-3.36-7.5-7.5-7.5Z"/>
    <rect class="cls-1" x="103.5" y="160" width="65" height="45" rx="7.5" ry="7.5"/>
    <rect class="cls-1" x="183.5" y="160" width="65" height="45" rx="7.5" ry="7.5"/>
    <path class="cls-1" d="M391,175h-80c-4.14,0-7.5,3.36-7.5,7.5s3.36,7.5,7.5,7.5h80c4.14,0,7.5-3.36,7.5-7.5s-3.36-7.5-7.5-7.5Z"/>
    <path class="cls-1" d="M286,175h-5c-4.14,0-7.5,3.36-7.5,7.5s3.36,7.5,7.5,7.5h5c4.14,0,7.5-3.36,7.5-7.5s-3.36-7.5-7.5-7.5Z"/>
    <rect class="cls-1" x="103.5" y="290" width="65" height="45" rx="7.5" ry="7.5"/>
    <rect class="cls-1" x="183.5" y="290" width="65" height="45" rx="7.5" ry="7.5"/>
    <path class="cls-1" d="M391,305h-80c-4.14,0-7.5,3.36-7.5,7.5s3.36,7.5,7.5,7.5h80c4.14,0,7.5-3.36,7.5-7.5s-3.36-7.5-7.5-7.5Z"/>
    <path class="cls-1" d="M286,305h-5c-4.14,0-7.5,3.36-7.5,7.5s3.36,7.5,7.5,7.5h5c4.14,0,7.5-3.36,7.5-7.5s-3.36-7.5-7.5-7.5Z"/>
  </g>
</svg>