<?xml version="1.0" encoding="UTF-8"?>
<svg id="OBJECT" xmlns="http://www.w3.org/2000/svg" viewBox="0 0 32 32">
  <defs>
    <style>
      .cls-1 {
        fill: #FD4360;
      }

      .cls-1, .cls-2 {
        stroke-width: 0px;
      }

      .cls-2 {
        fill: #dadada;
      }
    </style>
  </defs>
  <g>
    <path class="cls-2" d="m12,4c-.55,0-1,.45-1,1s.45,1,1,1h2c.55,0,1-.45,1-1s-.45-1-1-1h-2Z"/>
    <path class="cls-2" d="m21,7c.55,0,1-.45,1-1v-2c0-1.65-1.35-3-3-3H7c-1.65,0-3,1.35-3,3v24c0,1.65,1.35,3,3,3h12c1.65,0,3-1.35,3-3v-4c0-.55-.45-1-1-1s-1,.45-1,1v1H6V4c0-.55.45-1,1-1h12c.55,0,1,.45,1,1v2c0,.55.45,1,1,1Zm-1,20v1c0,.55-.45,1-1,1H7c-.55,0-1-.45-1-1v-1h14Z"/>
  </g>
  <g>
    <path class="cls-1" d="m21.86,17.14c-2.75,0-4.99-1.08-6.14-2.78v.64c0,2.04,2.64,3.57,6.14,3.57s6.14-1.54,6.14-3.57v-.64c-1.16,1.7-3.39,2.78-6.14,2.78Z"/>
    <path class="cls-1" d="m21.86,20.57c-2.75,0-4.99-1.08-6.14-2.78v.64c0,2.04,2.64,3.57,6.14,3.57s6.14-1.54,6.14-3.57v-.64c-1.16,1.7-3.39,2.78-6.14,2.78Z"/>
    <path class="cls-1" d="m21.86,15.14c3.5,0,6.14-1.54,6.14-3.57s-2.64-3.57-6.14-3.57-6.14,1.54-6.14,3.57,2.64,3.57,6.14,3.57Zm1.33-4.57h.38c.55,0,1,.45,1,1s-.45,1-1,1h-.38c-.55,0-1-.45-1-1s.45-1,1-1Zm-3.05,0h.38c.55,0,1,.45,1,1s-.45,1-1,1h-.38c-.55,0-1-.45-1-1s.45-1,1-1Z"/>
  </g>
</svg>