<?xml version="1.0" encoding="UTF-8"?>
<svg id="OBJECT" xmlns="http://www.w3.org/2000/svg" viewBox="0 0 32 32">
  <defs>
    <style>
      .cls-1 {
        fill: #FD4360;
      }

      .cls-1, .cls-2 {
        stroke-width: 0px;
      }

      .cls-2 {
        fill: #dadada;
      }
    </style>
  </defs>
  <g>
    <path class="cls-2" d="m13.98,6.99h-1c-.55,0-1,.45-1,1s.45,1,1,1h1c.55,0,1-.45,1-1s-.45-1-1-1Z"/>
    <path class="cls-2" d="m26.63,7.04c-.8-2.12-2.81-3.54-5.13-3.54-.86,0-1.72.2-2.48.59-.42.22-1.05.21-1.37-.23C15.57,1.02,11.82.19,8.52,1.84c-2.01,1-3.32,3.02-3.51,5.26-2.28.46-4.01,2.48-4.01,4.9,0,2.76,2.24,5,5,5h1.64c.55,0,1-.45,1-1s-.45-1-1-1h-1.64c-1.65,0-3-1.35-3-3s1.34-3,3-3h3.97c.55-.01,1-.46,1-1.01s-.45-1-1-1h-2.91c.21-1.45,1.07-2.71,2.36-3.36,2.83-1.41,5.36-.31,6.62,1.41.86,1.19,2.5,1.54,3.89.83.49-.25,1.02-.38,1.58-.38,1.64,0,3.04,1.12,3.4,2.72.1.46.51.78.97.78h.13c1.65,0,3,1.35,3,3s-1.35,3-3,3h-1.64c-.55,0-1,.45-1,1s.45,1,1,1h1.64c2.76,0,5-2.24,5-5,0-2.54-1.91-4.65-4.37-4.96Z"/>
  </g>
  <g>
    <path class="cls-1" d="m16,27.93c-1.53,0-3.01-.32-4.28-.92-.65-.31-1.22-.69-1.72-1.12v.95c0,2.34,2.64,4.17,6,4.17s6-1.83,6-4.17v-.95c-.5.43-1.07.81-1.72,1.12-1.26.6-2.74.92-4.28.92Z"/>
    <path class="cls-1" d="m16,22.86c-1.53,0-3.01-.32-4.29-.93-.65-.31-1.22-.69-1.71-1.12v.94c0,1.39.96,2.67,2.58,3.44,1,.48,2.19.73,3.42.73s2.42-.25,3.42-.73c1.61-.76,2.58-2.05,2.58-3.44v-.95c-.5.43-1.07.81-1.72,1.12-1.26.6-2.75.92-4.28.92Z"/>
    <path class="cls-1" d="m12.58,20.13c1,.48,2.19.73,3.42.73s2.42-.25,3.42-.73c1.61-.76,2.58-2.05,2.58-3.44,0-2.34-2.64-4.17-6-4.17s-6,1.83-6,4.17c0,1.39.96,2.67,2.58,3.44Zm2.56-4.44h1.74c.55,0,1,.45,1,1s-.45,1-1,1h-1.74c-.55,0-1-.45-1-1s.45-1,1-1Z"/>
  </g>
</svg>