<?xml version="1.0" encoding="UTF-8"?>
<svg id="OBJECT" xmlns="http://www.w3.org/2000/svg" viewBox="0 0 32 32">
  <defs>
    <style>
      .cls-1 {
        fill: #FD4360;
      }

      .cls-1, .cls-2 {
        stroke-width: 0px;
      }

      .cls-2 {
        fill: #dadada;
      }
    </style>
  </defs>
  <g>
    <path class="cls-2" d="m16.83,21.08h-3.33c-.55,0-1,.45-1,1s.45,1,1,1h1.5v.67c0,.55.45,1,1,1s1-.45,1-1v-.68c1.39-.09,2.5-1.24,2.5-2.65s-1.2-2.67-2.67-2.67h-1.67c-.37,0-.67-.3-.67-.67s.3-.67.67-.67h3.33c.55,0,1-.45,1-1s-.45-1-1-1h-1.5v-.67c0-.55-.45-1-1-1s-1,.45-1,1v.68c-1.39.09-2.5,1.24-2.5,2.65s1.2,2.67,2.67,2.67h1.67c.37,0,.67.3.67.67s-.3.67-.67.67Z"/>
    <path class="cls-2" d="m30,25.5h-1.5v-13.5c0-.55-.45-1-1-1s-1,.45-1,1v13.5h-1.5v-13.5c0-.55-.45-1-1-1s-1,.45-1,1v13.5h-14v-13.5c0-.55-.45-1-1-1s-1,.45-1,1v13.5h-1.5v-13.5c0-.55-.45-1-1-1s-1,.45-1,1v13.5h-1.5c-.55,0-1,.45-1,1v3.5c0,.55.45,1,1,1h28c.55,0,1-.45,1-1v-3.5c0-.55-.45-1-1-1Zm-1,3.5H3v-1.5h26v1.5Z"/>
  </g>
  <path class="cls-1" d="m30.41,6.09L19.41,1.09c-.13-.06-.27-.09-.41-.09h-6c-.14,0-.28.03-.41.09L1.59,6.09c-.36.16-.59.52-.59.91v3h30v-3c0-.39-.23-.75-.59-.91Zm-19.66.91h-.5c-.55,0-1-.45-1-1s.45-1,1-1h.5c.55,0,1,.45,1,1s-.45,1-1,1Zm7.25,0h-4c-.55,0-1-.45-1-1s.45-1,1-1h4c.55,0,1,.45,1,1s-.45,1-1,1Zm3.75,0h-.5c-.55,0-1-.45-1-1s.45-1,1-1h.5c.55,0,1,.45,1,1s-.45,1-1,1Z"/>
</svg>