<?xml version="1.0" encoding="UTF-8"?>
<svg id="OBJECT" xmlns="http://www.w3.org/2000/svg" viewBox="0 0 32 32">
  <defs>
    <style>
      .cls-1 {
        fill: #FD4360;
      }

      .cls-1, .cls-2 {
        stroke-width: 0px;
      }

      .cls-2 {
        fill: #dadada;
      }
    </style>
  </defs>
  <path class="cls-1" d="m11,3.5c0-1.38-1.12-2.5-2.5-2.5H3.5c-1.38,0-2.5,1.12-2.5,2.5v2.5c0,.55.45,1,1,1h8c.55,0,1-.45,1-1v-2.5Z"/>
  <path class="cls-2" d="m30.35,15.82l-19-7c-.52-.19-1.09.07-1.28.59s.07,1.09.59,1.28l3.98,1.47v9.12l-5.63,2.05v-13.33c0-.55-.45-1-1-1s-1,.45-1,1v19h-2V10c0-.55-.45-1-1-1s-1,.45-1,1v20c0,.55.45,1,1,1h4c.55,0,1-.45,1-1v-4.54l21.34-7.76c.39-.14.66-.52.66-.94s-.26-.8-.65-.94Zm-13.71,4.74v-7.66l10.46,3.85-10.46,3.8Z"/>
</svg>