<?xml version="1.0" encoding="UTF-8"?>
<svg id="OBJECT" xmlns="http://www.w3.org/2000/svg" viewBox="0 0 32 32">
  <defs>
    <style>
      .cls-1 {
        fill: #FD4360;
      }

      .cls-1, .cls-2 {
        stroke-width: 0px;
      }

      .cls-2 {
        fill: #dadada;
      }
    </style>
  </defs>
  <g>
    <path class="cls-2" d="m29.05,20l1.89-5.68c.1-.31.05-.64-.14-.9-.19-.26-.49-.42-.81-.42h-8v-2c0-1.65-1.35-3-3-3h-10c-.55,0-1,.45-1,1s.45,1,1,1h10c.55,0,1,.45,1,1v9.34c-.46-.22-.96-.34-1.5-.34h-9.5c-.55,0-1,.45-1,1s.45,1,1,1h4v1.5c0,1.93,1.57,3.5,3.5,3.5h13.5c.32,0,.62-.15.81-.42.19-.26.24-.6.14-.9l-1.89-5.68Zm-12.55,5c-.83,0-1.5-.67-1.5-1.5v-1.5h3.5c.83,0,1.5.67,1.5,1.5s-.67,1.5-1.5,1.5h-2Zm10.55-4.68l1.56,4.68h-6.96c.22-.46.35-.96.35-1.5v-8.5h6.61l-1.56,4.68c-.07.21-.07.43,0,.63Z"/>
    <path class="cls-2" d="m11.5,14c.55,0,1-.45,1-1s-.45-1-1-1h-.5c-.55,0-1,.45-1,1s.45,1,1,1h.5Z"/>
    <path class="cls-2" d="m15.5,14c.55,0,1-.45,1-1s-.45-1-1-1h-.5c-.55,0-1,.45-1,1s.45,1,1,1h.5Z"/>
  </g>
  <path class="cls-1" d="m9,2c0-.55-.45-1-1-1H2c-.55,0-1,.45-1,1v3c0,.55.45,1,1,1h1v25h4V6h1c.55,0,1-.45,1-1v-3Z"/>
</svg>