<?xml version="1.0" encoding="UTF-8"?>
<svg id="OBJECT" xmlns="http://www.w3.org/2000/svg" viewBox="0 0 512 512">
  <defs>
    <style>
      .cls-1 {
        fill: #FD4360;
      }

      .cls-2 {
        fill: #dadada;
      }
    </style>
  </defs>
  <path class="cls-2" d="M504.5,457h-26v-107.5c0-12.41-10.09-22.5-22.5-22.5h-50c-12.41,0-22.5,10.09-22.5,22.5v107.5h-80v-172.5c0-4.14-3.36-7.5-7.5-7.5s-7.5,3.36-7.5,7.5v172.5h-65v-172.5c0-4.14-3.36-7.5-7.5-7.5s-7.5,3.36-7.5,7.5v172.5h-80v-107.5c0-12.41-10.09-22.5-22.5-22.5H56c-12.41,0-22.5,10.09-22.5,22.5v107.5H7.5c-4.14,0-7.5,3.36-7.5,7.5v25c0,12.41,10.09,22.5,22.5,22.5H489.5c12.41,0,22.5-10.09,22.5-22.5v-25c0-4.14-3.36-7.5-7.5-7.5Zm-98.5-115h50c4.14,0,7.5,3.36,7.5,7.5v27.5h-65v-27.5c0-4.14,3.36-7.5,7.5-7.5Zm-7.5,50h65v65h-65v-65ZM56,342h50c4.14,0,7.5,3.36,7.5,7.5v27.5H48.5v-27.5c0-4.14,3.36-7.5,7.5-7.5Zm-7.5,50H113.5v65H48.5v-65Zm448.5,97.5c0,4.14-3.36,7.5-7.5,7.5H22.5c-4.14,0-7.5-3.36-7.5-7.5v-17.5H497v17.5Z"/>
  <g>
    <path class="cls-1" d="M263.5,7.5c0-4.14-3.36-7.5-7.5-7.5s-7.5,3.36-7.5,7.5V217h15V7.5Z"/>
    <path class="cls-1" d="M288.5,232h-65c-8.28,0-15,6.72-15,15v20h95v-20c0-8.28-6.72-15-15-15Z"/>
    <path class="cls-1" d="M388.5,123.02V35c0-8.28-6.72-15-15-15h-95V120h97.5c4.5,0,8.75,1.09,12.5,3.02Zm-77.5-58.02h-10c-4.14,0-7.5-3.36-7.5-7.5s3.36-7.5,7.5-7.5h10c4.14,0,7.5,3.36,7.5,7.5s-3.36,7.5-7.5,7.5Zm40,0h-10c-4.14,0-7.5-3.36-7.5-7.5s3.36-7.5,7.5-7.5h10c4.14,0,7.5,3.36,7.5,7.5s-3.36,7.5-7.5,7.5Z"/>
    <path class="cls-1" d="M388.5,147.5c0-6.89-5.61-12.5-12.5-12.5h-67.5v25h67.5c6.89,0,12.5-5.61,12.5-12.5Z"/>
    <path class="cls-1" d="M456,60h-52.5v87.5c0,15.16-12.34,27.5-27.5,27.5h80c15.16,0,27.5-12.34,27.5-27.5v-60c0-15.16-12.34-27.5-27.5-27.5Z"/>
  </g>
</svg>