<?xml version="1.0" encoding="UTF-8"?>
<svg id="OBJECT" xmlns="http://www.w3.org/2000/svg" viewBox="0 0 32 32">
  <defs>
    <style>
      .cls-1 {
        fill: #FD4360;
      }

      .cls-2 {
        fill: #dadada;
      }
    </style>
  </defs>
  <g>
    <path class="cls-2" d="M15,23h-1.25V3.5c0-1.38-1.12-2.5-2.5-2.5h-.5c-1.38,0-2.5,1.12-2.5,2.5V23h-1.25c-1.65,0-3,1.35-3,3v4c0,.55,.45,1,1,1h12c.55,0,1-.45,1-1v-4c0-1.65-1.35-3-3-3ZM10.25,3.5c0-.28,.22-.5,.5-.5h.5c.28,0,.5,.22,.5,.5V23h-1.5V3.5Zm5.75,25.5H6v-3c0-.55,.45-1,1-1H15c.55,0,1,.45,1,1v3Z"/>
    <path class="cls-2" d="M13.5,26h-5c-.55,0-1,.45-1,1s.45,1,1,1h5c.55,0,1-.45,1-1s-.45-1-1-1Z"/>
  </g>
  <path class="cls-1" d="M25.14,10.5l2.74-5.02c.17-.31,.16-.69-.02-.99-.18-.3-.51-.49-.86-.49H15.76v13h11.24c.35,0,.68-.19,.86-.49,.18-.3,.19-.68,.02-.99l-2.74-5.02Zm-5.39,2.25c0,.55-.45,1-1,1s-1-.45-1-1v-.5c0-.55,.45-1,1-1s1,.45,1,1v.5Zm0-4c0,.55-.45,1-1,1s-1-.45-1-1v-.5c0-.55,.45-1,1-1s1,.45,1,1v.5Z"/>
</svg>