<?xml version="1.0" encoding="UTF-8"?>
<svg id="OBJECT" xmlns="http://www.w3.org/2000/svg" viewBox="0 0 32 32">
  <defs>
    <style>
      .cls-1 {
        fill: #FD4360;
      }

      .cls-2 {
        fill: #dadada;
      }
    </style>
  </defs>
  <path class="cls-2" d="M14,25h-2V3.5c0-1.38-1.12-2.5-2.5-2.5h-1c-1.38,0-2.5,1.12-2.5,2.5V25h-2c-1.65,0-3,1.35-3,3v2c0,.55,.45,1,1,1h14c.55,0,1-.45,1-1v-2c0-1.65-1.35-3-3-3ZM8,3.5c0-.28,.22-.5,.5-.5h1c.28,0,.5,.22,.5,.5V25h-2V3.5Zm7,25.5H3v-1c0-.55,.45-1,1-1H14c.55,0,1,.45,1,1v1Z"/>
  <g>
    <path class="cls-1" d="M24,15.35V5c0-1.1-.9-2-2-2H13V15h9.5c.54,0,1.04,.13,1.5,.35ZM15.5,7h-.5c-.55,0-1-.45-1-1s.45-1,1-1h.5c.55,0,1,.45,1,1s-.45,1-1,1Zm4,0h-.5c-.55,0-1-.45-1-1s.45-1,1-1h.5c.55,0,1,.45,1,1s-.45,1-1,1Z"/>
    <path class="cls-1" d="M24,18.5c0-.83-.67-1.5-1.5-1.5h-4c-.83,0-1.5,.67-1.5,1.5s.67,1.5,1.5,1.5h4c.83,0,1.5-.67,1.5-1.5Z"/>
    <path class="cls-1" d="M30,8h-4v10.5c0,1.93-1.57,3.5-3.5,3.5h7.5c.55,0,1-.45,1-1V9c0-.55-.45-1-1-1Z"/>
  </g>
</svg>