<?xml version="1.0" encoding="UTF-8"?>
<svg id="OBJECT" xmlns="http://www.w3.org/2000/svg" viewBox="0 0 32 32">
  <defs>
    <style>
      .cls-1 {
        fill: #FD4360;
      }

      .cls-2 {
        fill: #dadada;
      }
    </style>
  </defs>
  <path class="cls-2" d="m30,29h-1v-4c0-.55-.45-1-1-1v-9c0-.55-.45-1-1-1s-1,.45-1,1v9h-1v-9c0-.55-.45-1-1-1s-1,.45-1,1v9c-.55,0-1,.45-1,1v4h-2.5v-4c0-.55-.45-1-1-1v-9c0-.55-.45-1-1-1s-1,.45-1,1v9h-1v-9c0-.55-.45-1-1-1s-1,.45-1,1v9c-.55,0-1,.45-1,1v4h-2.5v-4c0-.55-.45-1-1-1v-9c0-.55-.45-1-1-1s-1,.45-1,1v9h-1v-9c0-.55-.45-1-1-1s-1,.45-1,1v9c-.55,0-1,.45-1,1v4h-1c-.55,0-1,.45-1,1s.45,1,1,1h28c.55,0,1-.45,1-1s-.45-1-1-1Zm-22,0h-3v-3h3v3Zm9.5,0h-3v-3h3v3Zm9.5,0h-3v-3h3v3Z"/>
  <g>
    <path class="cls-1" d="m30.36,6.07L17.36,1.07c-.12-.04-.24-.07-.36-.07h-2c-.12,0-.24.02-.36.07L1.64,6.07c-.39.15-.64.52-.64.93v5h30v-5c0-.41-.25-.79-.64-.93Zm-20.11,1.68h-2c-.55,0-1-.45-1-1s.45-1,1-1h2c.55,0,1,.45,1,1s-.45,1-1,1Zm5.75,2.25c-1.79,0-3.25-1.46-3.25-3.25s1.46-3.25,3.25-3.25,3.25,1.46,3.25,3.25-1.46,3.25-3.25,3.25Zm7.75-2.25h-2c-.55,0-1-.45-1-1s.45-1,1-1h2c.55,0,1,.45,1,1s-.45,1-1,1Z"/>
    <circle class="cls-1" cx="16" cy="6.75" r="1.25"/>
  </g>
</svg>