<?xml version="1.0" encoding="UTF-8"?>
<svg id="OBJECT" xmlns="http://www.w3.org/2000/svg" viewBox="0 0 32 32">
  <defs>
    <style>
      .cls-1 {
        fill: #FD4360;
      }

      .cls-1, .cls-2 {
        stroke-width: 0px;
      }

      .cls-2 {
        fill: #dadada;
      }
    </style>
  </defs>
  <g>
    <path class="cls-2" d="m30,29h-1v-15c0-.55-.45-1-1-1s-1,.45-1,1v15h-1.5v-15c0-.55-.45-1-1-1s-1,.45-1,1v15h-15v-15c0-.55-.45-1-1-1s-1,.45-1,1v15h-1.5v-15c0-.55-.45-1-1-1s-1,.45-1,1v15h-1c-.55,0-1,.45-1,1s.45,1,1,1h28c.55,0,1-.45,1-1s-.45-1-1-1Z"/>
    <path class="cls-2" d="m16.92,23.67h-3.67c-.55,0-1,.45-1,1s.45,1,1,1h1.75v.83c0,.55.45,1,1,1s1-.45,1-1v-.84c1.52-.05,2.75-1.29,2.75-2.82s-1.27-2.83-2.83-2.83h-1.83c-.46,0-.83-.37-.83-.83s.37-.83.83-.83h3.67c.55,0,1-.45,1-1s-.45-1-1-1h-1.75v-.83c0-.55-.45-1-1-1s-1,.45-1,1v.84c-1.52.05-2.75,1.29-2.75,2.82s1.27,2.83,2.83,2.83h1.83c.46,0,.83.37.83.83s-.37.83-.83.83Z"/>
  </g>
  <path class="cls-1" d="m30.29,5.04L17.29,1.04c-.1-.03-.19-.04-.29-.04h-2c-.1,0-.2.02-.29.04L1.71,5.04c-.42.13-.71.52-.71.96v5h30v-5c0-.44-.29-.83-.71-.96Zm-20.29,2.96h-1c-.55,0-1-.45-1-1s.45-1,1-1h1c.55,0,1,.45,1,1s-.45,1-1,1Zm8,0h-4c-.55,0-1-.45-1-1s.45-1,1-1h4c.55,0,1,.45,1,1s-.45,1-1,1Zm5,0h-1c-.55,0-1-.45-1-1s.45-1,1-1h1c.55,0,1,.45,1,1s-.45,1-1,1Z"/>
</svg>