<?xml version="1.0" encoding="UTF-8"?>
<svg id="OBJECT" xmlns="http://www.w3.org/2000/svg" viewBox="0 0 32 32">
  <defs>
    <style>
      .cls-1 {
        fill: #FD4360;
      }

      .cls-2 {
        fill: #dadada;
      }
    </style>
  </defs>
  <g>
    <path class="cls-2" d="M16.83,21.33h-3.33c-.55,0-1,.45-1,1s.45,1,1,1h1.5v.67c0,.55,.45,1,1,1s1-.45,1-1v-.68c1.39-.09,2.5-1.24,2.5-2.65s-1.2-2.67-2.67-2.67h-1.67c-.37,0-.67-.3-.67-.67s.3-.67,.67-.67h3.33c.55,0,1-.45,1-1s-.45-1-1-1h-1.5v-.67c0-.55-.45-1-1-1s-1,.45-1,1v.68c-1.39,.09-2.5,1.24-2.5,2.65s1.2,2.67,2.67,2.67h1.67c.37,0,.67,.3,.67,.67s-.3,.67-.67,.67Z"/>
    <path class="cls-2" d="M30,29h-.5v-4c0-.55-.45-1-1-1h-.25V13c0-.55-.45-1-1-1s-1,.45-1,1v11h-1.5V13c0-.55-.45-1-1-1s-1,.45-1,1v11h-.25c-.55,0-1,.45-1,1v4H10.5v-4c0-.55-.45-1-1-1h-.25V13c0-.55-.45-1-1-1s-1,.45-1,1v11h-1.5V13c0-.55-.45-1-1-1s-1,.45-1,1v11h-.25c-.55,0-1,.45-1,1v4h-.5c-.55,0-1,.45-1,1s.45,1,1,1H30c.55,0,1-.45,1-1s-.45-1-1-1Zm-6.5-3h4v3h-4v-3Zm-19,0h4v3H4.5v-3Z"/>
  </g>
  <path class="cls-1" d="M30.45,7.11L18.45,1.11c-.14-.07-.29-.11-.45-.11h-4c-.16,0-.31,.04-.45,.11L1.55,7.11c-.34,.17-.55,.52-.55,.89v2H31v-2c0-.38-.21-.73-.55-.89Zm-16.45,.89h-1c-.55,0-1-.45-1-1s.45-1,1-1h1c.55,0,1,.45,1,1s-.45,1-1,1Zm5,0h-1c-.55,0-1-.45-1-1s.45-1,1-1h1c.55,0,1,.45,1,1s-.45,1-1,1Z"/>
</svg>