<?xml version="1.0" encoding="UTF-8"?>
<svg id="OBJECT" xmlns="http://www.w3.org/2000/svg" viewBox="0 0 32 32">
  <defs>
    <style>
      .cls-1 {
        fill: #FD4360;
      }

      .cls-1, .cls-2 {
        stroke-width: 0px;
      }

      .cls-2 {
        fill: #dadada;
      }
    </style>
  </defs>
  <g>
    <path class="cls-2" d="m28.33,5.63L15.33,1.06c-.21-.08-.45-.08-.66,0L1.67,5.63c-.4.14-.67.52-.67.94v4.25c0,.55.45,1,1,1h2.71v7.21h-.86c-.55,0-1,.45-1,1v3.34h-.86c-.55,0-1,.45-1,1v3.5c0,.55.45,1,1,1h13.68c.55,0,1-.45,1-1s-.45-1-1-1H3v-1.5h10.68c.55,0,1-.45,1-1s-.45-1-1-1h-1.39v-3.34c0-.55-.45-1-1-1h-.86v-7.21h9.14v2.21c0,.55.45,1,1,1s1-.45,1-1v-2.21h1.71v1.21c0,.55.45,1,1,1s1-.45,1-1v-1.21h2.71c.55,0,1-.45,1-1v-4.25c0-.42-.27-.8-.67-.94ZM4.86,23.38v-2.34h5.43v2.34h-5.43Zm3.57-4.34h-1.71v-7.21h1.71v7.21Zm18.57-9.21H3v-2.54L15,3.06l12,4.22v2.54Z"/>
    <path class="cls-2" d="m13,6.41h-1c-.55,0-1,.45-1,1s.45,1,1,1h1c.55,0,1-.45,1-1s-.45-1-1-1Z"/>
    <path class="cls-2" d="m17,8.41h1c.55,0,1-.45,1-1s-.45-1-1-1h-1c-.55,0-1,.45-1,1s.45,1,1,1Z"/>
  </g>
  <path class="cls-1" d="m30.12,17.88c-4.21,0-5.42-1.75-5.46-1.8-.16-.26-.45-.41-.75-.41h0c-.31,0-.61.18-.76.45,0,.02-1.05,1.76-5.27,1.76-.48,0-.88.39-.88.88v2.85c0,5.19,3.48,7.69,6.5,9.3.13.07.27.1.41.1s.28-.03.41-.1c3.11-1.64,6.68-4.19,6.68-9.3v-2.85c0-.48-.39-.88-.88-.88Zm-3.34,4.52l-2.66,2.66c-.16.16-.39.26-.62.26s-.45-.09-.62-.26l-1.68-1.68c-.34-.34-.34-.9,0-1.24s.9-.34,1.24,0l1.06,1.06,2.04-2.04c.34-.34.9-.34,1.24,0s.34.9,0,1.24Z"/>
</svg>