<?xml version="1.0" encoding="UTF-8"?>
<svg id="OBJECT" xmlns="http://www.w3.org/2000/svg" viewBox="0 0 32 32">
  <defs>
    <style>
      .cls-1 {
        fill: #FD4360;
      }

      .cls-1, .cls-2 {
        stroke-width: 0px;
      }

      .cls-2 {
        fill: #dadada;
      }
    </style>
  </defs>
  <path class="cls-2" d="m30,29h-1V7.5c0-1.38-1.12-2.5-2.5-2.5h-2c-1.38,0-2.5,1.12-2.5,2.5v21.5h-2.5v-11.5c0-1.38-1.12-2.5-2.5-2.5h-2c-1.38,0-2.5,1.12-2.5,2.5v11.5h-2.5v-4.5c0-1.38-1.12-2.5-2.5-2.5h-2c-1.38,0-2.5,1.12-2.5,2.5v4.5h-1c-.55,0-1,.45-1,1s.45,1,1,1h28c.55,0,1-.45,1-1s-.45-1-1-1Zm-6-21.5c0-.28.22-.5.5-.5h2c.28,0,.5.22.5.5v21.5h-3V7.5Zm-9.5,10c0-.28.22-.5.5-.5h2c.28,0,.5.22.5.5v11.5h-3v-11.5Zm-9.5,7c0-.28.22-.5.5-.5h2c.28,0,.5.22.5.5v4.5h-3v-4.5Z"/>
  <path class="cls-1" d="m3.38,13.08h8.25c1.31,0,2.38-1.07,2.38-2.38V3.38c0-1.31-1.07-2.38-2.38-2.38H3.38c-1.31,0-2.38,1.07-2.38,2.38v7.33c0,1.31,1.07,2.38,2.38,2.38Zm.62-8.04c0-.55.45-1,1-1s1,.45,1,1v2c0,.55.45,1,1,1h1c.55,0,1-.45,1-1v-2c0-.55.45-1,1-1s1,.45,1,1v2c0,1.65-1.35,3-3,3h-1c-1.65,0-3-1.35-3-3v-2Z"/>
</svg>