<?xml version="1.0" encoding="UTF-8"?>
<svg id="OBJECT" xmlns="http://www.w3.org/2000/svg" viewBox="0 0 32 32">
  <defs>
    <style>
      .cls-1 {
        fill: #FD4360;
      }

      .cls-1, .cls-2 {
        stroke-width: 0px;
      }

      .cls-2 {
        fill: #dadada;
      }
    </style>
  </defs>
  <g>
    <path class="cls-2" d="m6.5,4.46h-.5v-2.46c0-.55-.45-1-1-1s-1,.45-1,1v2.46h-.5c-1.38,0-2.5,1.12-2.5,2.5v17.43c0,1.38,1.12,2.5,2.5,2.5h.5v3.11c0,.55.45,1,1,1s1-.45,1-1v-3.11h.5c1.38,0,2.5-1.12,2.5-2.5V6.96c0-1.38-1.12-2.5-2.5-2.5Zm.5,19.93c0,.28-.22.5-.5.5h-3c-.28,0-.5-.22-.5-.5V6.96c0-.28.22-.5.5-.5h3c.28,0,.5.22.5.5v17.43Z"/>
    <path class="cls-2" d="m17.5,10.46h-.5v-2.46c0-.55-.45-1-1-1s-1,.45-1,1v2.46h-.5c-1.38,0-2.5,1.12-2.5,2.5v11.43c0,1.38,1.12,2.5,2.5,2.5h.5v3.11c0,.55.45,1,1,1s1-.45,1-1v-3.11h.5c1.38,0,2.5-1.12,2.5-2.5v-11.43c0-1.38-1.12-2.5-2.5-2.5Zm.5,13.93c0,.28-.22.5-.5.5h-3c-.28,0-.5-.22-.5-.5v-11.43c0-.28.22-.5.5-.5h3c.28,0,.5.22.5.5v11.43Z"/>
  </g>
  <path class="cls-1" d="m28.5,3.46h-.5v-1.46c0-.55-.45-1-1-1s-1,.45-1,1v1.46h-.5c-1.38,0-2.5,1.12-2.5,2.5v10.43c0,1.38,1.12,2.5,2.5,2.5h.5v3.11c0,.55.45,1,1,1s1-.45,1-1v-3.11h.5c1.38,0,2.5-1.12,2.5-2.5V5.96c0-1.38-1.12-2.5-2.5-2.5Z"/>
</svg>