<?xml version="1.0" encoding="UTF-8"?>
<svg id="OBJECT" xmlns="http://www.w3.org/2000/svg" viewBox="0 0 32 32">
  <defs>
    <style>
      .cls-1 {
        fill: #FD4360;
      }

      .cls-1, .cls-2 {
        stroke-width: 0px;
      }

      .cls-2 {
        fill: #dadada;
      }
    </style>
  </defs>
  <g>
    <path class="cls-2" d="m22.69,17.67c-.35-.43-.98-.5-1.41-.15l-10.6,8.53-4.74-4.74,8.53-10.6c.35-.43.28-1.06-.15-1.41-.43-.35-1.06-.28-1.41.15L1.71,23.39c-1.02,1.24-.93,3.03.21,4.17l2.52,2.52c.61.61,1.4.92,2.2.92.69,0,1.39-.23,1.96-.7l13.94-11.22c.43-.35.5-.98.15-1.41Zm-15.35,11.08c-.44.36-1.08.33-1.49-.07l-2.52-2.52c-.41-.41-.44-1.04-.07-1.5l1.43-1.78,4.43,4.43-1.78,1.44Z"/>
    <path class="cls-2" d="m12.68,15.19l-2.33,2.32c-1.03,1.03-1.03,2.71,0,3.74l.39.39h0c.52.51,1.19.77,1.87.77s1.35-.26,1.87-.77l2.32-2.32c.5-.5.77-1.16.77-1.87s-.27-1.37-.77-1.87l-.39-.39c-1-1-2.74-1-3.74,0Zm-.52,5.04l-.39-.39c-.25-.25-.25-.66,0-.91l.46-.46,1.3,1.3-.46.46c-.25.25-.66.25-.91,0Zm2.85-3.62l.39.39c.12.12.19.28.19.46s-.07.33-.19.46l-.46.46-1.3-1.3.46-.46c.24-.24.67-.24.91,0Z"/>
  </g>
  <path class="cls-1" d="m30.71,11.74c-.39-.39-1.02-.39-1.41,0l-.79.79-2.07-2.07.79-.78c.39-.39.39-1.02,0-1.41s-1.02-.39-1.41,0l-.79.78-2.07-2.07.78-.79c.39-.39.39-1.02,0-1.41-.39-.39-1.02-.39-1.41,0l-.78.79-2.07-2.07.79-.79c.39-.39.39-1.02,0-1.41s-1.02-.39-1.41,0l-3.85,3.85c-.78.78-.78,2.05,0,2.83l9.03,9.03c.78.78,2.05.78,2.83,0l3.85-3.85c.39-.39.39-1.02,0-1.41Zm-9.45-2.57c-.2.2-.45.29-.71.29s-.51-.1-.71-.29l-.75-.75c-.39-.39-.39-1.02,0-1.41s1.02-.39,1.41,0l.75.75c.39.39.39,1.02,0,1.41Zm3.73,3.73c-.2.2-.45.29-.71.29s-.51-.1-.71-.29l-.75-.75c-.39-.39-.39-1.02,0-1.41s1.02-.39,1.41,0l.75.75c.39.39.39,1.02,0,1.41Z"/>
</svg>