<?xml version="1.0" encoding="UTF-8"?>
<svg id="OBJECT" xmlns="http://www.w3.org/2000/svg" viewBox="0 0 32 32">
  <defs>
    <style>
      .cls-1 {
        fill: #FD4360;
      }

      .cls-1, .cls-2 {
        stroke-width: 0px;
      }

      .cls-2 {
        fill: #dadada;
      }
    </style>
  </defs>
  <rect class="cls-1" x="5" y="5" width="10" height="10" rx="3" ry="3"/>
  <rect class="cls-1" x="5" y="17" width="10" height="10" rx="3" ry="3"/>
  <rect class="cls-1" x="17" y="5" width="10" height="10" rx="3" ry="3"/>
  <path class="cls-1" d="m18,23h8c.55,0,1-.45,1-1s-.45-1-1-1h-8c-.55,0-1,.45-1,1s.45,1,1,1Z"/>
  <path class="cls-1" d="m18,19h8c.55,0,1-.45,1-1s-.45-1-1-1h-8c-.55,0-1,.45-1,1s.45,1,1,1Z"/>
  <path class="cls-1" d="m18,27h8c.55,0,1-.45,1-1s-.45-1-1-1h-8c-.55,0-1,.45-1,1s.45,1,1,1Z"/>
  <g>
    <path class="cls-2" d="m14,29H4c-.55,0-1-.45-1-1v-10c0-.55-.45-1-1-1s-1,.45-1,1v10c0,1.65,1.35,3,3,3h10c.55,0,1-.45,1-1s-.45-1-1-1Z"/>
    <path class="cls-2" d="m28,1h-10c-.55,0-1,.45-1,1s.45,1,1,1h10c.55,0,1,.45,1,1v10c0,.55.45,1,1,1s1-.45,1-1V4c0-1.65-1.35-3-3-3Z"/>
    <path class="cls-2" d="m30,17c-.55,0-1,.45-1,1v10c0,.55-.45,1-1,1h-10c-.55,0-1,.45-1,1s.45,1,1,1h10c1.65,0,3-1.35,3-3v-10c0-.55-.45-1-1-1Z"/>
    <path class="cls-2" d="m14,1H4c-1.65,0-3,1.35-3,3v10c0,.55.45,1,1,1s1-.45,1-1V4c0-.55.45-1,1-1h10c.55,0,1-.45,1-1s-.45-1-1-1Z"/>
  </g>
</svg>