<?xml version="1.0" encoding="UTF-8"?>
<svg id="OBJECT" xmlns="http://www.w3.org/2000/svg" viewBox="0 0 32 32">
  <defs>
    <style>
      .cls-1 {
        fill: #FD4360;
      }

      .cls-1, .cls-2 {
        stroke-width: 0px;
      }

      .cls-2 {
        fill: #dadada;
      }
    </style>
  </defs>
  <path class="cls-1" d="m4.5,27.5h23V4.5H4.5v23ZM22.57,8.33c0-.61.49-1.1,1.1-1.1s1.1.49,1.1,1.1v4.38c0,.61-.49,1.1-1.1,1.1s-1.1-.49-1.1-1.1v-4.38Zm0,7.67c0-.61.49-1.1,1.1-1.1s1.1.49,1.1,1.1v7.67c0,.61-.49,1.1-1.1,1.1s-1.1-.49-1.1-1.1v-7.67Zm-4.93-7.67c0-.61.49-1.1,1.1-1.1s1.1.49,1.1,1.1v.55c0,.61-.49,1.1-1.1,1.1s-1.1-.49-1.1-1.1v-.55Zm0,4.38c0-.61.49-1.1,1.1-1.1s1.1.49,1.1,1.1v10.95c0,.61-.49,1.1-1.1,1.1s-1.1-.49-1.1-1.1v-10.95Zm-4.93-4.38c0-.61.49-1.1,1.1-1.1s1.1.49,1.1,1.1v7.67c0,.61-.49,1.1-1.1,1.1s-1.1-.49-1.1-1.1v-7.67Zm0,10.95c0-.61.49-1.1,1.1-1.1s1.1.49,1.1,1.1v4.38c0,.61-.49,1.1-1.1,1.1s-1.1-.49-1.1-1.1v-4.38Zm-4.93-10.95c0-.61.49-1.1,1.1-1.1s1.1.49,1.1,1.1v10.95c0,.61-.49,1.1-1.1,1.1s-1.1-.49-1.1-1.1v-10.95Zm0,14.79c0-.61.49-1.1,1.1-1.1s1.1.49,1.1,1.1v.55c0,.61-.49,1.1-1.1,1.1s-1.1-.49-1.1-1.1v-.55Z"/>
  <path class="cls-2" d="m30,1H2c-.55,0-1,.45-1,1v28c0,.55.45,1,1,1h28c.55,0,1-.45,1-1V2c0-.55-.45-1-1-1Zm-1,28H3V3h26v26Z"/>
</svg>