<?xml version="1.0" encoding="UTF-8"?>
<svg id="OBJECT" xmlns="http://www.w3.org/2000/svg" viewBox="0 0 32 32">
  <defs>
    <style>
      .cls-1 {
        fill: #FD4360;
      }

      .cls-1, .cls-2 {
        stroke-width: 0px;
      }

      .cls-2 {
        fill: #dadada;
      }
    </style>
  </defs>
  <g>
    <path class="cls-2" d="m24.57,5H7.43c-1.34,0-2.43,1.09-2.43,2.43v17.14c0,1.34,1.09,2.43,2.43,2.43h17.14c1.34,0,2.43-1.09,2.43-2.43V7.43c0-1.34-1.09-2.43-2.43-2.43Zm.43,19.57c0,.24-.19.43-.43.43H7.43c-.24,0-.43-.19-.43-.43V7.43c0-.24.19-.43.43-.43h17.14c.24,0,.43.19.43.43v17.14Z"/>
    <path class="cls-2" d="m9.33,12.14c-.55,0-1,.45-1,1v9.52c0,.55.45,1,1,1s1-.45,1-1v-9.52c0-.55-.45-1-1-1Z"/>
    <path class="cls-2" d="m9.33,8.33c-.55,0-1,.45-1,1v.48c0,.55.45,1,1,1s1-.45,1-1v-.48c0-.55-.45-1-1-1Z"/>
    <path class="cls-2" d="m13.78,8.33c-.55,0-1,.45-1,1v9.52c0,.55.45,1,1,1s1-.45,1-1v-9.52c0-.55-.45-1-1-1Z"/>
    <path class="cls-2" d="m13.78,21.19c-.55,0-1,.45-1,1v.48c0,.55.45,1,1,1s1-.45,1-1v-.48c0-.55-.45-1-1-1Z"/>
    <path class="cls-2" d="m18.22,12.14c-.55,0-1,.45-1,1v9.52c0,.55.45,1,1,1s1-.45,1-1v-9.52c0-.55-.45-1-1-1Z"/>
    <path class="cls-2" d="m18.22,8.33c-.55,0-1,.45-1,1v.48c0,.55.45,1,1,1s1-.45,1-1v-.48c0-.55-.45-1-1-1Z"/>
    <path class="cls-2" d="m22.67,8.33c-.55,0-1,.45-1,1v9.52c0,.55.45,1,1,1s1-.45,1-1v-9.52c0-.55-.45-1-1-1Z"/>
    <path class="cls-2" d="m22.67,21.19c-.55,0-1,.45-1,1v.48c0,.55.45,1,1,1s1-.45,1-1v-.48c0-.55-.45-1-1-1Z"/>
  </g>
  <g>
    <path class="cls-1" d="m8.5,1H3.5c-1.38,0-2.5,1.12-2.5,2.5v5c0,1.38,1.12,2.5,2.5,2.5v-4.5c0-1.66,1.34-3,3-3h4.5c0-1.38-1.12-2.5-2.5-2.5Z"/>
    <path class="cls-1" d="m28.5,1h-5c-1.38,0-2.5,1.12-2.5,2.5h4.5c1.66,0,3,1.34,3,3v4.5c1.38,0,2.5-1.12,2.5-2.5V3.5c0-1.38-1.12-2.5-2.5-2.5Z"/>
    <path class="cls-1" d="m3.5,25.5v-4.5c-1.38,0-2.5,1.12-2.5,2.5v5c0,1.38,1.12,2.5,2.5,2.5h5c1.38,0,2.5-1.12,2.5-2.5h-4.5c-1.66,0-3-1.34-3-3Z"/>
    <path class="cls-1" d="m28.5,21v4.5c0,1.66-1.34,3-3,3h-4.5c0,1.38,1.12,2.5,2.5,2.5h5c1.38,0,2.5-1.12,2.5-2.5v-5c0-1.38-1.12-2.5-2.5-2.5Z"/>
  </g>
</svg>