<?xml version="1.0" encoding="UTF-8"?>
<svg id="OBJECT" xmlns="http://www.w3.org/2000/svg" viewBox="0 0 32 32">
  <defs>
    <style>
      .cls-1 {
        fill: #FD4360;
      }

      .cls-1, .cls-2 {
        stroke-width: 0px;
      }

      .cls-2 {
        fill: #dadada;
      }
    </style>
  </defs>
  <path class="cls-1" d="m25.22,4.18c-2.62-2.06-5.83-3.18-9.22-3.18-.36,0-.72.03-1.08.05,1.39,3.2,3.43,6.23,5.99,8.92,1.58-1.92,3.02-3.86,4.31-5.79Z"/>
  <path class="cls-1" d="m26.73,5.53c-1.31,1.96-2.78,3.92-4.39,5.86,2.61,2.42,5.53,4.36,8.6,5.69.03-.36.05-.72.05-1.08,0-3.94-1.52-7.65-4.27-10.47Z"/>
  <g>
    <path class="cls-2" d="m29.7,19.1c-.53-.16-1.09.14-1.25.67-.62,2.04-1.75,3.92-3.26,5.43-1.91,1.91-4.27,3.1-6.74,3.57-1.04-2.84-2.68-5.55-4.81-7.96,1.02-.85,2.03-1.76,3.02-2.72l2.87,2.87c.2.2.45.29.71.29s.51-.1.71-.29c.39-.39.39-1.02,0-1.41l-2.87-2.87c.88-.91,1.74-1.84,2.52-2.79.35-.43.29-1.06-.13-1.41-.43-.35-1.06-.29-1.41.13-.74.9-1.55,1.78-2.39,2.65L7.55,6.15c1.37-1.17,2.96-2.07,4.68-2.6.53-.16.83-.72.67-1.25-.16-.53-.71-.83-1.25-.67-2.35.72-4.52,2.02-6.27,3.76C-.46,11.25-.46,20.77,5.39,26.61c2.92,2.92,6.77,4.39,10.61,4.39s7.68-1.46,10.61-4.39c1.74-1.74,3.04-3.91,3.76-6.27.16-.53-.14-1.09-.67-1.25Zm-17.44.25c-2.67-2.61-5.76-4.6-9.03-5.8.41-2.16,1.38-4.23,2.9-6l9.12,9.12c-.97.94-1.97,1.84-2.99,2.68Zm-9.24-3.75c2.75,1.09,5.37,2.8,7.66,5.01-1.68,1.27-3.37,2.37-5.02,3.27-1.85-2.43-2.73-5.36-2.64-8.27Zm4.01,9.81c1.68-.94,3.37-2.07,5.05-3.35,1.87,2.11,3.34,4.46,4.32,6.92-3.37.1-6.76-1.09-9.37-3.57Z"/>
    <path class="cls-2" d="m22.71,24.14c.2.2.45.29.71.29s.51-.1.71-.29c.39-.39.39-1.02,0-1.41l-.71-.71c-.39-.39-1.02-.39-1.41,0-.39.39-.39,1.02,0,1.41l.71.71Z"/>
  </g>
</svg>