<?xml version="1.0" encoding="UTF-8"?>
<svg id="OBJECT" xmlns="http://www.w3.org/2000/svg" viewBox="0 0 32 32">
  <defs>
    <style>
      .cls-1 {
        fill: #FD4360;
      }

      .cls-1, .cls-2 {
        stroke-width: 0px;
      }

      .cls-2 {
        fill: #dadada;
      }
    </style>
  </defs>
  <circle class="cls-1" cx="16" cy="16" r="3.5"/>
  <path class="cls-2" d="m26,1H6c-.55,0-1,.45-1,1v28c0,.55.45,1,1,1h20c.55,0,1-.45,1-1V2c0-.55-.45-1-1-1Zm-5.74,2c0,2.21-1.79,4-4,4s-4-1.79-4-4h8Zm-8,26c0-2.21,1.79-4,4-4s4,1.79,4,4h-8Zm10,0c0-3.31-2.69-6-6-6s-6,2.69-6,6h-3.26v-12h3.1c.55,0,1-.45,1-1s-.45-1-1-1h-3.1V3h3.26c0,3.31,2.69,6,6,6s6-2.69,6-6h2.74v12h-3.1c-.55,0-1,.45-1,1s.45,1,1,1h3.1v12h-2.74Z"/>
</svg>