<?xml version="1.0" encoding="UTF-8"?>
<svg id="OBJECT" xmlns="http://www.w3.org/2000/svg" viewBox="0 0 32 32">
  <defs>
    <style>
      .cls-1 {
        fill: #FD4360;
      }

      .cls-1, .cls-2 {
        stroke-width: 0px;
      }

      .cls-2 {
        fill: #dadada;
      }
    </style>
  </defs>
  <g>
    <path class="cls-2" d="m19,13H4c-1.65,0-3,1.35-3,3v12c0,1.65,1.35,3,3,3h15c1.65,0,3-1.35,3-3v-12c0-1.65-1.35-3-3-3Zm-15,2h15c.55,0,1,.45,1,1v8H3v-8c0-.55.45-1,1-1Zm15,14H4c-.55,0-1-.45-1-1v-2h17v2c0,.55-.45,1-1,1Z"/>
    <path class="cls-2" d="m17,19c.55,0,1-.45,1-1v-1c0-.55-.45-1-1-1s-1,.45-1,1v1c0,.55.45,1,1,1Z"/>
    <path class="cls-2" d="m13,19c.55,0,1-.45,1-1v-1c0-.55-.45-1-1-1s-1,.45-1,1v1c0,.55.45,1,1,1Z"/>
    <path class="cls-2" d="m24.61,1h-11.22c-1.32,0-2.39,1.07-2.39,2.39v3.23c0,1.32,1.07,2.39,2.39,2.39h2.89l.46,1.37c.33.98,1.24,1.63,2.26,1.63s1.94-.66,2.26-1.63l.46-1.37h2.89c1.32,0,2.39-1.07,2.39-2.39v-3.23c0-1.32-1.07-2.39-2.39-2.39Zm.39,5.61c0,.21-.17.39-.39.39h-3.61c-.43,0-.81.28-.95.68l-.68,2.05c-.11.32-.63.32-.74,0l-.68-2.05c-.14-.41-.52-.68-.95-.68h-3.61c-.21,0-.39-.17-.39-.39v-3.23c0-.21.17-.39.39-.39h11.22c.21,0,.39.17.39.39v3.23Z"/>
    <path class="cls-2" d="m23,4h-8c-.55,0-1,.45-1,1s.45,1,1,1h8c.55,0,1-.45,1-1s-.45-1-1-1Z"/>
  </g>
  <path class="cls-1" d="m30.58,13.19c-.26-.19-.6-.24-.9-.14l-2.18.73v5.22c0,.55-.45,1-1,1s-1-.45-1-1v-4.55l-1.5.5v14.11l5.68,1.89c.1.03.21.05.32.05.21,0,.41-.06.58-.19.26-.19.42-.49.42-.81V14c0-.32-.15-.62-.42-.81Zm-3.08,9.81c0,.55-.45,1-1,1s-1-.45-1-1v-.5c0-.55.45-1,1-1s1,.45,1,1v.5Z"/>
</svg>