<?xml version="1.0" encoding="UTF-8"?>
<svg id="OBJECT" xmlns="http://www.w3.org/2000/svg" viewBox="0 0 32 32">
  <defs>
    <style>
      .cls-1 {
        fill: #FD4360;
      }

      .cls-1, .cls-2 {
        stroke-width: 0px;
      }

      .cls-2 {
        fill: #dadada;
      }
    </style>
  </defs>
  <g>
    <path class="cls-2" d="m21.61,8.08h0c.6-.03,1.2.23,1.64.67.44.44.67,1.02.67,1.64,0,.55.44,1,1,1h0c.55,0,1-.44,1-1,0-1.16-.44-2.25-1.26-3.06-.82-.82-1.86-1.24-3.06-1.26-.55,0-1,.45-1,1,0,.55.45,1,1,1Z"/>
    <path class="cls-2" d="m22.38,4h0c1.53-.01,2.92.57,3.99,1.63,1.06,1.06,1.64,2.48,1.63,3.99,0,.55.44,1,1,1h0c.55,0,1-.44,1-1,.01-2.05-.78-3.97-2.22-5.41-1.44-1.44-3.34-2.21-5.41-2.22-.55,0-1,.45-1,1,0,.55.45,1,1,1Z"/>
    <path class="cls-2" d="m20.66,11.71c.2.2.45.29.71.29s.51-.1.71-.29c.39-.39.39-1.02,0-1.41l-.37-.37c-.39-.39-1.02-.39-1.41,0s-.39,1.02,0,1.41l.37.37Z"/>
    <path class="cls-2" d="m30,15H2c-.55,0-1,.45-1,1v7c0,1.86,1.28,3.41,3,3.86v3.14c0,.55.45,1,1,1h3c.38,0,.73-.21.89-.55l1.72-3.45h10.76l1.72,3.45c.17.34.52.55.89.55h3c.55,0,1-.45,1-1v-3.14c1.72-.45,3-2,3-3.86v-7c0-.55-.45-1-1-1ZM7.38,29h-1.38v-2h2.38l-1,2Zm17.24,0l-1-2h2.38v2h-1.38Zm4.38-6c0,1.1-.9,2-2,2H5c-1.1,0-2-.9-2-2v-1h7.38c.66,0,1.3-.27,1.77-.73l1.56-1.56c.39-.39.39-1.02,0-1.41s-1.02-.39-1.41,0l-1.56,1.56c-.09.09-.22.15-.35.15H3v-3h26v6Z"/>
    <path class="cls-2" d="m15.5,22h.5c.55,0,1-.45,1-1s-.45-1-1-1h-.5c-.55,0-1,.45-1,1s.45,1,1,1Z"/>
    <path class="cls-2" d="m19.5,22h.5c.55,0,1-.45,1-1s-.45-1-1-1h-.5c-.55,0-1,.45-1,1s.45,1,1,1Z"/>
  </g>
  <path class="cls-1" d="m4,5c0-1.1.9-2,2-2h2v2.5c0,1.38,1.12,2.5,2.5,2.5h5c1.38,0,2.5-1.12,2.5-2.5v-2c0-1.38-1.12-2.5-2.5-2.5H6c-2.21,0-4,1.79-4,4v8h2V5Z"/>
</svg>