<?xml version="1.0" encoding="UTF-8"?>
<svg id="OBJECT" xmlns="http://www.w3.org/2000/svg" viewBox="0 0 32 32">
  <defs>
    <style>
      .cls-1 {
        fill: #FD4360;
      }

      .cls-1, .cls-2 {
        stroke-width: 0px;
      }

      .cls-2 {
        fill: #dadada;
      }
    </style>
  </defs>
  <g>
    <path class="cls-2" d="m14,19H5c-.55,0-1,.45-1,1v8c0,1.65,1.35,3,3,3h5c1.65,0,3-1.35,3-3v-8c0-.55-.45-1-1-1Zm-1,9c0,.55-.45,1-1,1h-5c-.55,0-1-.45-1-1v-1h4.5c.55,0,1-.45,1-1s-.45-1-1-1h-4.5v-4h7v7Z"/>
    <path class="cls-2" d="m27.72,8.31c-.19-.2-.45-.31-.72-.31h-9c-.27,0-.54.11-.72.31-.19.2-.29.46-.28.74l.91,19.1c.08,1.6,1.39,2.86,3,2.86h3.19c1.6,0,2.92-1.25,3-2.86l.91-19.1c.01-.27-.09-.54-.28-.74Zm-1.77,1.69l-.19,4h-6.52l-.19-4h6.9Zm-1.86,19h-3.19c-.54,0-.97-.42-1-.95l-.57-12.05h6.33l-.57,12.05c-.03.53-.46.95-1,.95Z"/>
  </g>
  <g>
    <rect class="cls-1" x="5" y="14" width="9" height="3"/>
    <path class="cls-1" d="m13,4.89c0-.87-.39-1.68-1.07-2.23l-1.3-1.04c-.5-.4-1.14-.62-1.78-.62-1.57,0-2.85,1.28-2.85,2.85v8.15h7v-7.11Z"/>
  </g>
</svg>