<?xml version="1.0" encoding="UTF-8"?>
<svg id="OBJECT" xmlns="http://www.w3.org/2000/svg" viewBox="0 0 32 32">
  <defs>
    <style>
      .cls-1 {
        fill: #FD4360;
      }

      .cls-1, .cls-2 {
        stroke-width: 0px;
      }

      .cls-2 {
        fill: #dadada;
      }
    </style>
  </defs>
  <circle class="cls-1" cx="25.5" cy="25.5" r="5.5"/>
  <path class="cls-2" d="m30.11,4.78l-2.9-2.9c-1.15-1.15-3.16-1.15-4.31,0l-10.86,10.86c-.08.08-.14.16-.18.25l-4.24,7.07-5.71,5.71c-1.19,1.19-1.19,3.12,0,4.31.58.58,1.34.89,2.16.89s1.58-.32,2.16-.89l5.71-5.71,7.07-4.24c.09-.05.18-.11.25-.18l10.86-10.86c.58-.58.89-1.34.89-2.16s-.32-1.58-.89-2.16ZM4.79,28.68c-.39.4-1.08.4-1.48,0-.41-.41-.41-1.07,0-1.48l5.09-5.09,1.48,1.48-5.1,5.09Zm6.66-6.35l-1.79-1.79,3.29-5.48,3.98,3.98-5.48,3.29ZM28.69,7.67l-10.15,10.15-4.38-4.38L24.31,3.29c.4-.4,1.09-.4,1.48,0l2.9,2.9c.2.2.31.46.31.74s-.11.54-.31.74Z"/>
</svg>