<?xml version="1.0" encoding="UTF-8"?>
<svg id="OBJECT" xmlns="http://www.w3.org/2000/svg" viewBox="0 0 32 32">
  <defs>
    <style>
      .cls-1 {
        fill: #FD4360;
      }

      .cls-1, .cls-2 {
        stroke-width: 0px;
      }

      .cls-2 {
        fill: #dadada;
      }
    </style>
  </defs>
  <path class="cls-2" d="m30,29h-1v-14.35c0-.55-.45-1-1-1s-1,.45-1,1v1.35h-9c-.55,0-1,.45-1,1v9c0,.55.45,1,1,1h9v2h-12v-12c0-.55-.45-1-1-1h-6c-.55,0-1,.45-1,1v12h-2v-14.35c0-.55-.45-1-1-1s-1,.45-1,1v14.35h-1c-.55,0-1,.45-1,1s.45,1,1,1h28c.55,0,1-.45,1-1s-.45-1-1-1Zm-3-11v3h-8v-3h8Zm-8,7v-2h8v2h-8Zm-10-7h4v11h-4v-11Z"/>
  <g>
    <path class="cls-1" d="m1,7v1.5c0,2.48,2.02,4.5,4.5,4.5,1.41,0,2.67-.65,3.5-1.67.83,1.02,2.09,1.67,3.5,1.67s2.67-.65,3.5-1.67c.83,1.02,2.09,1.67,3.5,1.67s2.67-.65,3.5-1.67c.83,1.02,2.09,1.67,3.5,1.67,2.48,0,4.5-2.02,4.5-4.5v-1.5H1Z"/>
    <path class="cls-1" d="m4,3h1v2h22v-2h1c.55,0,1-.45,1-1s-.45-1-1-1H4c-.55,0-1,.45-1,1s.45,1,1,1Z"/>
  </g>
</svg>