<?xml version="1.0" encoding="UTF-8"?>
<svg id="OBJECT" xmlns="http://www.w3.org/2000/svg" viewBox="0 0 32 32">
  <defs>
    <style>
      .cls-1 {
        fill: #FD4360;
      }

      .cls-1, .cls-2 {
        stroke-width: 0px;
      }

      .cls-2 {
        fill: #dadada;
      }
    </style>
  </defs>
  <g>
    <path class="cls-2" d="m22,12.68c-.55,0-1,.45-1,1v4.32c0,2.76-2.24,5-5,5s-5-2.24-5-5v-1.34c0-.55-.45-1-1-1s-1,.45-1,1v1.34c0,2.15.97,4.07,2.5,5.35v3.49c0,1.07.58,2.07,1.51,2.6l2.49,1.42c.15.09.32.13.5.13s.34-.04.5-.13l2.49-1.42c.93-.53,1.51-1.53,1.51-2.6v-3.49c1.53-1.29,2.5-3.21,2.5-5.35v-4.32c0-.55-.45-1-1-1Zm-3.5,14.16c0,.36-.19.69-.5.87l-2,1.14-2-1.14c-.31-.18-.5-.51-.5-.87v-2.31c.78.3,1.62.47,2.5.47s1.72-.17,2.5-.47v2.31Z"/>
    <path class="cls-2" d="m16,21.55c1.04,0,2.08-.4,2.87-1.19.39-.39.39-1.02,0-1.41s-1.02-.39-1.41,0c-.8.8-2.11.8-2.91,0-.39-.39-1.02-.39-1.41,0-.39.39-.39,1.02,0,1.41.79.79,1.83,1.19,2.87,1.19Z"/>
  </g>
  <path class="cls-1" d="m29,21.54v-7.54c0-7.17-5.83-13-13-13S3,6.83,3,14v7.54c-1.29,1.81-2,4.01-2,6.23v1.23c0,.3.14.59.37.78.24.19.55.26.84.2l7.29-1.56v-4.2c-1.6-1.67-2.5-3.89-2.5-6.22v-1.01c-.53-.02-.96-.45-.96-.99s.45-1,1-1c7.2,0,7.94-5.46,7.97-5.69.05-.45.41-.81.86-.87.45-.06.89.19,1.06.61.05.12,1.53,3.26,8.02,2.61.55-.06,1.04.35,1.09.9.05.55-.35,1.04-.9,1.09-.05,0-.09,0-.14,0v4.35c0,2.33-.9,4.55-2.5,6.22v4.2l7.29,1.56c.07.01.14.02.21.02.23,0,.45-.08.63-.22.23-.19.37-.48.37-.78v-1.23c0-2.22-.71-4.42-2-6.23ZM6.5,12.96s-.06,0-.09,0c-.51,0-.95-.39-1-.91-.05-.55.36-1.04.91-1.08,4.69-.41,4.82-3.92,4.83-4.07.01-.55.45-1,1.02-.98.55.01.99.47.98,1.02-.04,1.88-1.48,5.56-6.65,6.02Z"/>
</svg>