<?xml version="1.0" encoding="UTF-8"?>
<svg id="OBJECT" xmlns="http://www.w3.org/2000/svg" viewBox="0 0 32 32">
  <defs>
    <style>
      .cls-1 {
        fill: #FD4360;
      }

      .cls-1, .cls-2 {
        stroke-width: 0px;
      }

      .cls-2 {
        fill: #dadada;
      }
    </style>
  </defs>
  <g>
    <path class="cls-2" d="m24.5,6.04h0c.4,0,.76.15,1.04.42.28.27.43.64.42,1.04,0,.55.44,1,1,1h0c.55,0,1-.44,1-1,0-.93-.35-1.8-1.01-2.46-.66-.66-1.52-.96-2.46-1.01-.55,0-1,.45-1,1,0,.55.45,1,1,1Z"/>
    <path class="cls-2" d="m29.27,2.73c-1.11-1.11-2.6-1.73-4.18-1.73h-.03c-.55,0-1,.45-1,1,0,.55.45,1,1,1h0c1.04-.05,2.04.4,2.78,1.14.74.74,1.15,1.73,1.14,2.78,0,.55.44,1,1,1h0c.55,0,1-.44,1-1,0-1.59-.61-3.09-1.73-4.21Z"/>
    <path class="cls-2" d="m7.49,4.04c-.92,0-1.79.36-2.44,1.01-.66.66-1.01,1.53-1.01,2.46,0,.55.45,1,1,1h0c.55,0,1-.45,1-1,0-.39.15-.76.42-1.04.27-.27.64-.42,1.03-.42,0,0,0,0,.01,0,.55,0,1-.44,1-1,0-.55-.44-1-1-1h-.02Z"/>
    <path class="cls-2" d="m6.9,3h.02c.55,0,1-.44,1-1,0-.55-.44-1-1-1h-.03c-1.58,0-3.06.61-4.18,1.73-1.12,1.12-1.73,2.62-1.73,4.21,0,.55.45,1,1,1h0c.55,0,1-.45,1-1,0-1.05.4-2.04,1.14-2.78.74-.74,1.72-1.14,2.76-1.14Z"/>
    <path class="cls-2" d="m18.5,9.5c-.55,0-1,.45-1,1s.45,1,1,1c.28,0,.5.22.5.5v3.5c0,.55.45,1,1,1s1-.45,1-1v-3.5c0-1.38-1.12-2.5-2.5-2.5Z"/>
    <path class="cls-2" d="m19.5,19h-.5c-.55,0-1,.45-1,1s.45,1,1,1h.5c.55,0,1-.45,1-1s-.45-1-1-1Z"/>
    <path class="cls-2" d="m27,23h-.88l-1.62-3.24v-7.76c0-2.79-1.92-5.13-4.5-5.8v-1.2c0-2.21-1.79-4-4-4s-4,1.79-4,4v1.2c-2.58.67-4.5,3.01-4.5,5.8v7.76l-1.62,3.24h-.88c-.55,0-1,.45-1,1s.45,1,1,1h22c.55,0,1-.45,1-1s-.45-1-1-1ZM16,3c1.1,0,2,.9,2,2v1h-4v-1c0-1.1.9-2,2-2Zm-6.88,18h6.38c.55,0,1-.45,1-1s-.45-1-1-1h-6v-7c0-2.21,1.79-4,4-4h5c2.21,0,4,1.79,4,4v8c0,.16.04.31.11.45l1.28,2.55h-15.76l1-2Z"/>
  </g>
  <path class="cls-1" d="m11,28c0,1.66,1.34,3,3,3h4c1.66,0,3-1.34,3-3v-1h-10v1Z"/>
</svg>