<?xml version="1.0" encoding="UTF-8"?>
<svg id="OBJECT" xmlns="http://www.w3.org/2000/svg" viewBox="0 0 32 32">
  <defs>
    <style>
      .cls-1 {
        fill: #FD4360;
      }

      .cls-1, .cls-2 {
        stroke-width: 0px;
      }

      .cls-2 {
        fill: #dadada;
      }
    </style>
  </defs>
  <g>
    <path class="cls-2" d="m30.71,6.29c-.39-.39-1.02-.39-1.41,0l-2.4,2.4c-.39.39-.39,1.02,0,1.41.2.2.45.29.71.29s.51-.1.71-.29l2.4-2.4c.39-.39.39-1.02,0-1.41Z"/>
    <path class="cls-2" d="m27.71,4.29c-.39-.39-1.02-.39-1.41,0l-1.4,1.4c-.39.39-.39,1.02,0,1.41.2.2.45.29.71.29s.51-.1.71-.29l1.4-1.4c.39-.39.39-1.02,0-1.41Z"/>
    <path class="cls-2" d="m2.71,6.29c-.39-.39-1.02-.39-1.41,0s-.39,1.02,0,1.41l2.4,2.4c.2.2.45.29.71.29s.51-.1.71-.29c.39-.39.39-1.02,0-1.41l-2.4-2.4Z"/>
    <path class="cls-2" d="m7.11,7.11c.39-.39.39-1.02,0-1.41l-1.4-1.4c-.39-.39-1.02-.39-1.41,0s-.39,1.02,0,1.41l1.4,1.4c.2.2.45.29.71.29s.51-.1.71-.29Z"/>
    <path class="cls-2" d="m19.5,18h-.5c-.55,0-1,.45-1,1s.45,1,1,1h.5c.55,0,1-.45,1-1s-.45-1-1-1Z"/>
    <path class="cls-2" d="m24.5,18.76v-7.76c0-2.76-2.24-5-5-5v-2c0-1.65-1.35-3-3-3h-1c-1.65,0-3,1.35-3,3v2c-2.76,0-5,2.24-5,5v7.76l-1.39,2.79c-.25.49-.05,1.09.45,1.34s1.09.05,1.34-.45l1.22-2.45h6.38c.55,0,1-.45,1-1s-.45-1-1-1h-6v-7c0-1.65,1.35-3,3-3h7c1.65,0,3,1.35,3,3v8c0,.16.04.31.11.45l1.5,3c.18.35.53.55.9.55.15,0,.3-.03.45-.11.49-.25.69-.85.45-1.34l-1.39-2.79ZM14.5,4c0-.55.45-1,1-1h1c.55,0,1,.45,1,1v2h-3v-2Z"/>
  </g>
  <path class="cls-1" d="m28,24H4c-.55,0-1,.45-1,1s.45,1,1,1h7v2c0,1.66,1.34,3,3,3h4c1.66,0,3-1.34,3-3v-2h7c.55,0,1-.45,1-1s-.45-1-1-1Z"/>
</svg>