<?xml version="1.0" encoding="UTF-8"?>
<svg id="OBJECT" xmlns="http://www.w3.org/2000/svg" viewBox="0 0 32 32">
  <defs>
    <style>
      .cls-1 {
        fill: #FD4360;
      }

      .cls-2 {
        fill: #dadada;
      }
    </style>
  </defs>
  <path class="cls-2" d="M30.94,19.35c-.17-.76-.67-1.38-1.46-1.75-1.14-.54-2.51-.3-3.4,.6l-3.66,3.68-4.03-5.01c-.76-.95-1.9-1.49-3.12-1.49h-2.08c-1.49,0-2.85,.82-3.54,2.14l-.21,.39h-1.43v-.05c0-1.38-1.12-2.5-2.5-2.5H2c-.55,0-1,.45-1,1v12c0,.55,.45,1,1,1h3.5c1.38,0,2.5-1.12,2.5-2.5v-.05h2.19l1.41,2.28c.73,1.19,2.01,1.9,3.4,1.9h5.72c1.2,0,2.33-.53,3.09-1.46l6.61-8.05c.49-.6,.68-1.38,.51-2.14ZM6,26.87c0,.28-.22,.5-.5,.5H3v-10h2.5c.28,0,.5,.22,.5,.5v9Zm22.89-6.65l-6.61,8.05c-.38,.46-.94,.73-1.55,.73h-5.72c-.7,0-1.33-.35-1.7-.95l-1.71-2.76c-.18-.29-.5-.47-.85-.47h-2.75v-4.9h2.04c.37,0,.71-.21,.89-.54l.49-.93c.35-.66,1.02-1.07,1.77-1.07h2.08c.61,0,1.18,.27,1.56,.75l4.17,5.18-.97,.98c-.38,.39-1.01,.39-1.4,.02l-3.12-3.01c-.4-.38-1.03-.37-1.41,.03-.38,.4-.37,1.03,.03,1.41l3.12,3.01c1.17,1.13,3.06,1.11,4.21-.05l6.06-6.09c.3-.3,.75-.38,1.22-.16,.19,.09,.25,.25,.27,.34s.03,.26-.1,.43Z"/>
  <g>
    <path class="cls-1" d="M27.46,7.01c-.82,1.65-2.5,2.79-4.46,2.79s-3.65-1.15-4.46-2.79c-.95,1.06-1.54,2.46-1.54,3.99v1c0,1.65,1.35,3,3,3h6c1.65,0,3-1.35,3-3v-1c0-1.53-.58-2.93-1.54-3.99Z"/>
    <path class="cls-1" d="M23,7.8c1.65,0,3-1.35,3-3v-1.2c0-1.43-1.17-2.6-2.6-2.6h-.8c-1.43,0-2.6,1.17-2.6,2.6v1.2c0,1.65,1.35,3,3,3Z"/>
  </g>
</svg>