<?xml version="1.0" encoding="UTF-8"?>
<svg id="OBJECT" xmlns="http://www.w3.org/2000/svg" viewBox="0 0 32 32">
  <defs>
    <style>
      .cls-1 {
        fill: #FD4360;
      }

      .cls-1, .cls-2 {
        stroke-width: 0px;
      }

      .cls-2 {
        fill: #dadada;
      }
    </style>
  </defs>
  <circle class="cls-1" cx="25.5" cy="18.67" r="5.5"/>
  <path class="cls-1" d="m21.12,24.75v5.25c0,.38.21.73.55.89s.75.13,1.05-.09l2.78-2.08,2.78,2.08c.18.13.39.2.6.2.15,0,.31-.03.45-.11.34-.17.55-.52.55-.89v-5.25c-1.23.89-2.74,1.42-4.38,1.42s-3.14-.53-4.38-1.42Z"/>
  <g>
    <path class="cls-2" d="m24.29,1H3.71c-1.5,0-2.71,1.22-2.71,2.71v3.43c0,.55.45,1,1,1h.71v15.15c0,1.49,1.22,2.71,2.72,2.71h11.69c.55,0,1-.45,1-1s-.45-1-1-1H5.43c-.4,0-.72-.32-.72-.71v-15.15h4.86v2.12c0,.38.21.73.55.89s.75.13,1.05-.09l2.83-2.12,2.83,2.12c.18.13.39.2.6.2.15,0,.31-.03.45-.11.34-.17.55-.52.55-.89v-2.12h4.86v2.2c0,.55.45,1,1,1s1-.45,1-1v-2.2h.71c.55,0,1-.45,1-1v-3.43c0-1.5-1.22-2.71-2.71-2.71ZM3.72,6.14s0,0-.01,0,0,0-.01,0h-.7v-2.43c0-.39.32-.71.71-.71h5.86v3.14H3.72Zm12.71,2.12l-1.83-1.37c-.18-.13-.39-.2-.6-.2s-.42.07-.6.2l-1.83,1.37V3h4.86v5.26Zm2-5.26h5.86c.39,0,.71.32.71.71v2.43h-.7s0,0-.01,0,0,0-.01,0h-5.85v-3.14Z"/>
    <path class="cls-2" d="m11.47,20.16h-3.92c-.55,0-1,.45-1,1s.45,1,1,1h3.92c.55,0,1-.45,1-1s-.45-1-1-1Z"/>
    <path class="cls-2" d="m11.47,16.16h-3.92c-.55,0-1,.45-1,1s.45,1,1,1h3.92c.55,0,1-.45,1-1s-.45-1-1-1Z"/>
  </g>
</svg>