<?xml version="1.0" encoding="UTF-8"?>
<svg id="OBJECT" xmlns="http://www.w3.org/2000/svg" viewBox="0 0 32 32">
  <defs>
    <style>
      .cls-1 {
        fill: #FD4360;
      }

      .cls-1, .cls-2 {
        stroke-width: 0px;
      }

      .cls-2 {
        fill: #dadada;
      }
    </style>
  </defs>
  <path class="cls-1" d="m12.56,17.04v5.04c0,.63.72.99,1.23.61l1.46-1.1c.44-.33,1.05-.33,1.5,0l1.46,1.1c.5.38,1.23.02,1.23-.61v-5.04c-1.03.53-2.2.84-3.44.84s-2.41-.31-3.44-.84Z"/>
  <circle class="cls-1" cx="16" cy="10.39" r="5"/>
  <path class="cls-2" d="m27.45,3.74C20.17.09,11.83.09,4.55,3.74c-.34.17-.55.52-.55.89v12.66c0,4.11,2.04,7.89,5.33,9.87l6.15,3.7c.16.1.34.14.52.14s.36-.05.52-.14l6.15-3.7c3.29-1.98,5.33-5.76,5.33-9.87V4.63c0-.38-.21-.72-.55-.89Zm-1.45,13.55c0,3.41-1.67,6.53-4.36,8.15l-5.64,3.39-5.64-3.39c-2.69-1.62-4.36-4.74-4.36-8.15V5.26c6.39-3,13.61-3,20,0v12.03Z"/>
</svg>