<?xml version="1.0" encoding="UTF-8"?>
<svg id="OBJECT" xmlns="http://www.w3.org/2000/svg" viewBox="0 0 32 32">
  <defs>
    <style>
      .cls-1 {
        fill: #FD4360;
      }

      .cls-1, .cls-2 {
        stroke-width: 0px;
      }

      .cls-2 {
        fill: #dadada;
      }
    </style>
  </defs>
  <path class="cls-2" d="m27.57,16.13c.27-1,.43-2.05.43-3.13,0-6.62-5.38-12-12-12S4,6.38,4,13c0,1.09.16,2.13.43,3.13C2.12,18.55-.06,22.88,1.56,30.22c.08.36.35.64.7.74.09.03.19.04.28.04.26,0,.52-.1.71-.29l2.15-2.15,1.66,2.07c.24.3.62.43.99.35.37-.08.66-.37.76-.74,0-.03.77-3.04,2.66-6.14,1.4.57,2.93.9,4.53.9s3.13-.32,4.53-.9c1.89,3.1,2.65,6.1,2.66,6.14.09.37.38.65.76.74.37.08.76-.05.99-.35l1.66-2.07,2.15,2.15c.19.19.45.29.71.29.09,0,.19-.01.28-.04.35-.1.62-.39.7-.74,1.63-7.33-.56-11.67-2.87-14.08ZM7.45,27.92l-1.19-1.48c-.18-.22-.44-.36-.72-.37-.29-.01-.56.09-.76.29l-1.59,1.59c-.56-4,.13-7.24,2.05-9.68,1,2.03,2.55,3.74,4.46,4.92-1.07,1.78-1.79,3.5-2.24,4.73Zm-1.45-14.92c0-5.51,4.49-10,10-10s10,4.49,10,10-4.49,10-10,10-10-4.49-10-10Zm22.82,14.94l-1.59-1.59c-.2-.2-.46-.31-.76-.29-.28.01-.55.15-.72.37l-1.19,1.48c-.44-1.23-1.17-2.95-2.24-4.73,1.91-1.19,3.46-2.89,4.46-4.92,1.92,2.44,2.61,5.69,2.05,9.68Z"/>
  <path class="cls-1" d="m20.18,6.5h-8.36c-1.54,0-2.79,1.25-2.79,2.79v7.43c0,1.54,1.25,2.79,2.79,2.79h8.36c1.54,0,2.79-1.25,2.79-2.79v-7.43c0-1.54-1.25-2.79-2.79-2.79Zm-.18,6.5c0,1.65-1.35,3-3,3h-2c-1.65,0-3-1.35-3-3v-2c0-.55.45-1,1-1s1,.45,1,1v2c0,.55.45,1,1,1h2c.55,0,1-.45,1-1v-2c0-.55.45-1,1-1s1,.45,1,1v2Z"/>
</svg>