<?xml version="1.0" encoding="UTF-8"?>
<svg id="OBJECT" xmlns="http://www.w3.org/2000/svg" viewBox="0 0 32 32">
  <defs>
    <style>
      .cls-1 {
        fill: #FD4360;
      }

      .cls-1, .cls-2 {
        stroke-width: 0px;
      }

      .cls-2 {
        fill: #dadada;
      }
    </style>
  </defs>
  <g>
    <path class="cls-2" d="m14.5,1C7.06,1,1,7.06,1,14.5c0,1.63.3,3.18.83,4.62,0,.02.01.03.02.05,1.91,5.14,6.85,8.83,12.65,8.83.58,0,1.12-.04,1.64-.11.55-.08.93-.58.85-1.13s-.58-.93-1.13-.85c-.43.06-.87.09-1.36.09-1.28,0-2.52-.22-3.67-.61-.52-.96-.97-2.06-1.33-3.28,1.61.26,3.31.39,5,.39.53,0,1.05-.01,1.56-.04.55-.03.97-.51.94-1.06-.03-.55-.51-.96-1.06-.94-2.27.14-4.73-.06-6.93-.48-.27-1.41-.43-2.92-.48-4.48h4.97c.55,0,1-.45,1-1s-.45-1-1-1h-4.97c.05-1.57.21-3.08.48-4.49,1.71-.33,3.57-.51,5.49-.51s3.77.18,5.48.51c.34,1.73.52,3.54.52,5.42,0,.55.45,1,1,1s1-.45,1-1c0-1.69-.13-3.34-.39-4.92,1.23.36,2.33.81,3.3,1.33.35,1.05.55,2.16.58,3.33.02.55.5.98,1.03.97.55-.02.99-.48.97-1.03-.21-7.35-6.13-13.11-13.49-13.11Zm-6.48,4c-.27.73-.49,1.51-.69,2.33-.81.2-1.59.43-2.33.69.81-1.18,1.84-2.21,3.02-3.02Zm-3.02,15.97c.72.26,1.51.48,2.32.68.2.82.43,1.6.69,2.33-1.18-.81-2.21-1.83-3.02-3.02Zm1.88-1.49c-1.24-.36-2.34-.81-3.28-1.31-.29-.85-.48-1.75-.56-2.67h3.48c.04,1.37.16,2.71.36,3.99Zm-.36-5.99h-3.48c.08-.93.27-1.82.56-2.67.96-.52,2.06-.97,3.28-1.33-.2,1.28-.32,2.62-.36,4Zm2.98-6.61c.35-1.22.8-2.32,1.33-3.28,1.15-.39,2.39-.61,3.67-.61s2.52.22,3.67.6c.51.94.96,2.04,1.32,3.29-1.59-.25-3.27-.39-4.99-.39s-3.4.14-5,.39Zm12.16.44c-.2-.83-.43-1.62-.69-2.36,1.21.82,2.24,1.85,3.06,3.06-.74-.27-1.54-.5-2.36-.7Z"/>
    <path class="cls-2" d="m17.5,13.5h-.5c-.55,0-1,.45-1,1s.45,1,1,1h.5c.55,0,1-.45,1-1s-.45-1-1-1Z"/>
  </g>
  <g>
    <path class="cls-1" d="m24.86,26.14c-2.75,0-4.99-1.08-6.14-2.78v.64c0,2.04,2.64,3.57,6.14,3.57s6.14-1.54,6.14-3.57v-.64c-1.16,1.7-3.39,2.78-6.14,2.78Z"/>
    <path class="cls-1" d="m24.86,29.57c-2.75,0-4.99-1.08-6.14-2.78v.64c0,2.04,2.64,3.57,6.14,3.57s6.14-1.54,6.14-3.57v-.64c-1.16,1.7-3.39,2.78-6.14,2.78Z"/>
    <path class="cls-1" d="m24.86,24.14c3.5,0,6.14-1.54,6.14-3.57s-2.64-3.57-6.14-3.57-6.14,1.54-6.14,3.57,2.64,3.57,6.14,3.57Zm1.33-4.57h.38c.55,0,1,.45,1,1s-.45,1-1,1h-.38c-.55,0-1-.45-1-1s.45-1,1-1Zm-3.05,0h.38c.55,0,1,.45,1,1s-.45,1-1,1h-.38c-.55,0-1-.45-1-1s.45-1,1-1Z"/>
  </g>
</svg>