<?xml version="1.0" encoding="UTF-8"?>
<svg id="OBJECT" xmlns="http://www.w3.org/2000/svg" viewBox="0 0 512 512">
  <defs>
    <style>
      .cls-1 {
        fill: #FD4360;
      }

      .cls-2 {
        fill: #dadada;
      }
    </style>
  </defs>
  <g>
    <path class="cls-2" d="M382.18,17.98C348.36,6.39,303.55,0,256,0s-92.36,6.39-126.18,17.98c-36.85,12.63-56.32,29.76-56.32,49.52V207.5c0,19.76,19.48,36.89,56.32,49.52,33.82,11.59,78.63,17.98,126.18,17.98s92.36-6.39,126.18-17.98c36.85-12.63,56.32-29.76,56.32-49.52V67.5c0-19.76-19.48-36.89-56.32-49.52Zm-126.18-2.98c98.71,0,167.5,27.67,167.5,52.5s-68.79,52.5-167.5,52.5-167.5-27.67-167.5-52.5S157.29,15,256,15Zm0,245c-98.71,0-167.5-27.67-167.5-52.5v-42.01c9.46,8.1,23.31,15.36,41.32,21.53,33.82,11.59,78.63,17.98,126.18,17.98s92.36-6.39,126.18-17.98c18.01-6.18,31.86-13.43,41.32-21.53v42.01c0,24.83-68.79,52.5-167.5,52.5Zm0-70c-98.71,0-167.5-27.67-167.5-52.5v-42.01c9.46,8.1,23.31,15.36,41.32,21.53,33.82,11.59,78.63,17.98,126.18,17.98s92.36-6.39,126.18-17.98c18.01-6.18,31.86-13.43,41.32-21.53v42.01c0,24.83-68.79,52.5-167.5,52.5Z"/>
    <path class="cls-2" d="M183.5,92.5h35c12.41,0,22.5-10.09,22.5-22.5v-5c0-12.41-10.09-22.5-22.5-22.5h-35c-12.41,0-22.5,10.09-22.5,22.5v5c0,12.41,10.09,22.5,22.5,22.5Zm-7.5-27.5c0-4.14,3.36-7.5,7.5-7.5h35c4.14,0,7.5,3.36,7.5,7.5v5c0,4.14-3.36,7.5-7.5,7.5h-35c-4.14,0-7.5-3.36-7.5-7.5v-5Z"/>
    <path class="cls-2" d="M293.5,92.5h35c12.41,0,22.5-10.09,22.5-22.5v-5c0-12.41-10.09-22.5-22.5-22.5h-35c-12.41,0-22.5,10.09-22.5,22.5v5c0,12.41,10.09,22.5,22.5,22.5Zm-7.5-27.5c0-4.14,3.36-7.5,7.5-7.5h35c4.14,0,7.5,3.36,7.5,7.5v5c0,4.14-3.36,7.5-7.5,7.5h-35c-4.14,0-7.5-3.36-7.5-7.5v-5Z"/>
    <path class="cls-2" d="M301,424.5c-4.14,0-7.5,3.36-7.5,7.5v15c0,4.14,3.36,7.5,7.5,7.5s7.5-3.36,7.5-7.5v-15c0-4.14-3.36-7.5-7.5-7.5Z"/>
    <path class="cls-2" d="M271,424.5c-4.14,0-7.5,3.36-7.5,7.5v15c0,4.14,3.36,7.5,7.5,7.5s7.5-3.36,7.5-7.5v-15c0-4.14-3.36-7.5-7.5-7.5Z"/>
    <path class="cls-2" d="M241,424.5c-4.14,0-7.5,3.36-7.5,7.5v15c0,4.14,3.36,7.5,7.5,7.5s7.5-3.36,7.5-7.5v-15c0-4.14-3.36-7.5-7.5-7.5Z"/>
    <path class="cls-2" d="M211,424.5c-4.14,0-7.5,3.36-7.5,7.5v15c0,4.14,3.36,7.5,7.5,7.5s7.5-3.36,7.5-7.5v-15c0-4.14-3.36-7.5-7.5-7.5Z"/>
    <path class="cls-2" d="M211,305h30c4.14,0,7.5-3.36,7.5-7.5s-3.36-7.5-7.5-7.5h-30c-4.14,0-7.5,3.36-7.5,7.5s3.36,7.5,7.5,7.5Z"/>
    <path class="cls-2" d="M271,305h30c4.14,0,7.5-3.36,7.5-7.5s-3.36-7.5-7.5-7.5h-30c-4.14,0-7.5,3.36-7.5,7.5s3.36,7.5,7.5,7.5Z"/>
    <path class="cls-2" d="M371,432h-22.5v-17.5c0-12.41-10.09-22.5-22.5-22.5h-17.5v-64.5c0-4.14-3.36-7.5-7.5-7.5h-30c-4.14,0-7.5,3.36-7.5,7.5v64.5h-15v-64.5c0-4.14-3.36-7.5-7.5-7.5h-30c-4.14,0-7.5,3.36-7.5,7.5v64.5h-17.5c-12.41,0-22.5,10.09-22.5,22.5v17.5h-22.5c-4.14,0-7.5,3.36-7.5,7.5s3.36,7.5,7.5,7.5h22.5v17.5c0,12.41,10.09,22.5,22.5,22.5h140c12.41,0,22.5-10.09,22.5-22.5v-17.5h22.5c4.14,0,7.5-3.36,7.5-7.5s-3.36-7.5-7.5-7.5Zm-92.5-97h15v57h-15v-57Zm-60,0h15v57h-15v-57Zm115,129.5c0,4.14-3.36,7.5-7.5,7.5H186c-4.14,0-7.5-3.36-7.5-7.5v-50c0-4.14,3.36-7.5,7.5-7.5h140c4.14,0,7.5,3.36,7.5,7.5v50Z"/>
  </g>
  <g>
    <path class="cls-1" d="M457,438.95v25.55c0,4.14-3.36,7.5-7.5,7.5s-7.5-3.36-7.5-7.5v-25.55l-55-30v65.55c0,2.74,1.5,5.27,3.91,6.58l55,30c1.12,.61,2.36,.92,3.59,.92s2.47-.31,3.59-.92l55-30c2.41-1.31,3.91-3.84,3.91-6.58v-65.55l-55,30Z"/>
    <path class="cls-1" d="M504.5,395.96l-51.41-28.04c-2.24-1.22-4.94-1.22-7.18,0l-51.41,28.04,55,30,55-30Z"/>
    <path class="cls-1" d="M70,464.5c0,4.14-3.36,7.5-7.5,7.5s-7.5-3.36-7.5-7.5v-25.55L0,408.95v65.55c0,2.74,1.5,5.27,3.91,6.58l55,30c1.12,.61,2.36,.92,3.59,.92s2.47-.31,3.59-.92l55-30c2.41-1.31,3.91-3.84,3.91-6.58v-65.55l-55,30v25.55Z"/>
    <path class="cls-1" d="M117.5,395.96l-51.41-28.04c-2.24-1.22-4.94-1.22-7.18,0l-51.41,28.04,55,30,55-30Z"/>
  </g>
</svg>