<?xml version="1.0" encoding="UTF-8"?>
<svg id="OBJECT" xmlns="http://www.w3.org/2000/svg" viewBox="0 0 32 32">
  <defs>
    <style>
      .cls-1 {
        fill: #FD4360;
      }

      .cls-1, .cls-2 {
        stroke-width: 0px;
      }

      .cls-2 {
        fill: #dadada;
      }
    </style>
  </defs>
  <path class="cls-1" d="m27,1H5c-.55,0-1,.46-1,1.03v3.1h24v-3.1c0-.57-.45-1.03-1-1.03Z"/>
  <g>
    <path class="cls-2" d="m9.4,10.81h13.2c.55,0,1-.45,1-1s-.45-1-1-1h-13.2c-.55,0-1,.45-1,1s.45,1,1,1Z"/>
    <path class="cls-2" d="m9.4,14.95h1.1c.55,0,1-.45,1-1s-.45-1-1-1h-1.1c-.55,0-1,.45-1,1s.45,1,1,1Z"/>
    <path class="cls-2" d="m22.6,17.09h-3.3c-.55,0-1,.45-1,1s.45,1,1,1h3.3c.55,0,1-.45,1-1s-.45-1-1-1Z"/>
    <path class="cls-2" d="m22.6,12.95h-8.25c-.55,0-1,.45-1,1s.45,1,1,1h8.25c.55,0,1-.45,1-1s-.45-1-1-1Z"/>
    <path class="cls-2" d="m9.4,19.09h5.5c.55,0,1-.45,1-1s-.45-1-1-1h-5.5c-.55,0-1,.45-1,1s.45,1,1,1Z"/>
    <path class="cls-2" d="m22.6,21.22h-5.5c-.55,0-1,.45-1,1s.45,1,1,1h5.5c.55,0,1-.45,1-1s-.45-1-1-1Z"/>
    <path class="cls-2" d="m27,7.28c-.55,0-1,.45-1,1v16.17H6V8.28c0-.55-.45-1-1-1s-1,.45-1,1v19.34c0,1.87,1.39,3.39,3.1,3.39h17.8c1.71,0,3.1-1.52,3.1-3.39V8.28c0-.55-.45-1-1-1Zm-2.1,21.72H7.1c-.6,0-1.1-.64-1.1-1.39v-1.17h20v1.17c0,.75-.5,1.39-1.1,1.39Z"/>
  </g>
</svg>