<?xml version="1.0" encoding="UTF-8"?>
<svg id="OBJECT" xmlns="http://www.w3.org/2000/svg" viewBox="0 0 32 32">
  <defs>
    <style>
      .cls-1 {
        fill: #FD4360;
      }

      .cls-1, .cls-2 {
        stroke-width: 0px;
      }

      .cls-2 {
        fill: #dadada;
      }
    </style>
  </defs>
  <g>
    <path class="cls-2" d="m24,24c-.55,0-1,.45-1,1v2.41l-2.67,1.46-3.19-1.74c-.3-.16-.66-.16-.96,0l-3.19,1.74-3.19-1.74c-.3-.16-.66-.16-.96,0l-3.18,1.74-2.67-1.45V5c0-1.1.9-2,2-2h18c.55,0,1-.45,1-1s-.45-1-1-1H5C2.79,1,1,2.79,1,5v23c0,.37.2.7.52.88l3.67,2c.15.08.31.12.48.12s.33-.04.48-.12l3.18-1.74,3.19,1.74c.3.16.66.16.96,0l3.19-1.74,3.19,1.74c.3.16.66.16.96,0l3.67-2c.32-.17.52-.51.52-.88v-3c0-.55-.45-1-1-1Z"/>
    <path class="cls-2" d="m9.67,13.17h-3.67c-.55,0-1,.45-1,1s.45,1,1,1h1.75v.83c0,.55.45,1,1,1s1-.45,1-1v-.84c1.52-.05,2.75-1.29,2.75-2.82s-1.27-2.83-2.83-2.83h-1.83c-.46,0-.83-.37-.83-.83s.37-.83.83-.83h3.67c.55,0,1-.45,1-1s-.45-1-1-1h-1.75v-.83c0-.55-.45-1-1-1s-1,.45-1,1v.84c-1.52.05-2.75,1.29-2.75,2.82s1.27,2.83,2.83,2.83h1.83c.46,0,.83.37.83.83s-.37.83-.83.83Z"/>
    <path class="cls-2" d="m21,18h-12c-.55,0-1,.45-1,1s.45,1,1,1h12c.55,0,1-.45,1-1s-.45-1-1-1Z"/>
    <path class="cls-2" d="m4,19c0,.55.45,1,1,1h.5c.55,0,1-.45,1-1s-.45-1-1-1h-.5c-.55,0-1,.45-1,1Z"/>
    <path class="cls-2" d="m21,13.5h-5c-.55,0-1,.45-1,1s.45,1,1,1h5c.55,0,1-.45,1-1s-.45-1-1-1Z"/>
    <path class="cls-2" d="m21,9.5h-5c-.55,0-1,.45-1,1s.45,1,1,1h5c.55,0,1-.45,1-1s-.45-1-1-1Z"/>
    <path class="cls-2" d="m21,5.5h-5c-.55,0-1,.45-1,1s.45,1,1,1h5c.55,0,1-.45,1-1s-.45-1-1-1Z"/>
    <path class="cls-2" d="m5,24h16c.55,0,1-.45,1-1s-.45-1-1-1H5c-.55,0-1,.45-1,1s.45,1,1,1Z"/>
  </g>
  <g>
    <path class="cls-1" d="m28,3c-1.66,0-3,1.34-3,3v8h6V6c0-1.66-1.34-3-3-3Z"/>
    <rect class="cls-1" x="25" y="16" width="6" height="5"/>
  </g>
</svg>