<?xml version="1.0" encoding="UTF-8"?>
<svg id="OBJECT" xmlns="http://www.w3.org/2000/svg" viewBox="0 0 32 32">
  <defs>
    <style>
      .cls-1 {
        fill: #FD4360;
      }

      .cls-1, .cls-2 {
        stroke-width: 0px;
      }

      .cls-2 {
        fill: #dadada;
      }
    </style>
  </defs>
  <path class="cls-1" d="m28,1H4c-1.65,0-3,1.35-3,3v6c0,.55.45,1,1,1h1v-4.92c0-1.65,1.35-3,3-3h20c1.65,0,3,1.35,3,3v4.92h1c.55,0,1-.45,1-1v-6c0-1.65-1.35-3-3-3Z"/>
  <g>
    <path class="cls-2" d="m26,5.08H6c-.55,0-1,.45-1,1v23.92c0,.55.45,1,1,1h20c.55,0,1-.45,1-1V6.08c0-.55-.45-1-1-1Zm-1,23.92H7V7.08h18v21.92Z"/>
    <path class="cls-2" d="m18,13.63h4c.55,0,1-.45,1-1s-.45-1-1-1h-4c-.55,0-1,.45-1,1s.45,1,1,1Z"/>
    <path class="cls-2" d="m18,17.63h4c.55,0,1-.45,1-1s-.45-1-1-1h-4c-.55,0-1,.45-1,1s.45,1,1,1Z"/>
    <path class="cls-2" d="m10,22.63h12c.55,0,1-.45,1-1s-.45-1-1-1h-12c-.55,0-1,.45-1,1s.45,1,1,1Z"/>
    <path class="cls-2" d="m10,26.63h8c.55,0,1-.45,1-1s-.45-1-1-1h-8c-.55,0-1,.45-1,1s.45,1,1,1Z"/>
    <path class="cls-2" d="m22,24.63h-1c-.55,0-1,.45-1,1s.45,1,1,1h1c.55,0,1-.45,1-1s-.45-1-1-1Z"/>
    <path class="cls-2" d="m12.6,15.46h-2.41c-.55,0-1,.45-1,1s.45,1,1,1h.81v.2c0,.55.45,1,1,1s1-.45,1-1v-.24c1.02-.19,1.81-1.08,1.81-2.16,0-1.21-.99-2.2-2.2-2.2h-1.2c-.11,0-.2-.09-.2-.2s.09-.2.2-.2h2.41c.55,0,1-.45,1-1s-.45-1-1-1h-.81v-.2c0-.55-.45-1-1-1s-1,.45-1,1v.24c-1.02.19-1.81,1.08-1.81,2.16,0,1.22.99,2.2,2.2,2.2h1.2c.11,0,.2.09.2.2s-.09.2-.2.2Z"/>
  </g>
</svg>