<?xml version="1.0" encoding="UTF-8"?>
<svg id="OBJECT" xmlns="http://www.w3.org/2000/svg" viewBox="0 0 32 32">
  <defs>
    <style>
      .cls-1 {
        fill: #FD4360;
      }

      .cls-1, .cls-2 {
        stroke-width: 0px;
      }

      .cls-2 {
        fill: #dadada;
      }
    </style>
  </defs>
  <g>
    <path class="cls-2" d="m30,18h-5V7c0-.55-.45-1-1-1h-5.29c-.55,0-1,.45-1,1s.45,1,1,1h4.29v19c0,.73.2,1.41.54,2h-15.54c-1.1,0-2-.9-2-2v-9.26c0-.55-.45-1-1-1s-1,.45-1,1v9.26c0,2.21,1.79,4,4,4h19c2.21,0,4-1.79,4-4v-8c0-.55-.45-1-1-1Zm-1,2v2h-4v-2h4Zm-2,9c-1.1,0-2-.9-2-2v-3h4v3c0,1.1-.9,2-2,2Z"/>
    <path class="cls-2" d="m19,12h2c.55,0,1-.45,1-1s-.45-1-1-1h-2c-.55,0-1,.45-1,1s.45,1,1,1Z"/>
    <path class="cls-2" d="m19,16h2c.55,0,1-.45,1-1s-.45-1-1-1h-2c-.55,0-1,.45-1,1s.45,1,1,1Z"/>
    <path class="cls-2" d="m12.5,22h8c.55,0,1-.45,1-1s-.45-1-1-1h-8c-.55,0-1,.45-1,1s.45,1,1,1Z"/>
    <path class="cls-2" d="m8.5,22h.5c.55,0,1-.45,1-1s-.45-1-1-1h-.5c-.55,0-1,.45-1,1s.45,1,1,1Z"/>
    <path class="cls-2" d="m12.5,26h8c.55,0,1-.45,1-1s-.45-1-1-1h-8c-.55,0-1,.45-1,1s.45,1,1,1Z"/>
    <path class="cls-2" d="m8.5,26h.5c.55,0,1-.45,1-1s-.45-1-1-1h-.5c-.55,0-1,.45-1,1s.45,1,1,1Z"/>
  </g>
  <path class="cls-1" d="m16,8.5c0-4.14-3.36-7.5-7.5-7.5S1,4.36,1,8.5s3.36,7.5,7.5,7.5,7.5-3.36,7.5-7.5Zm-8.5,4.19v-.4h-1.09c-.55,0-1-.45-1-1s.45-1,1-1h2.79c.22,0,.4-.18.4-.4s-.18-.4-.4-.4h-1.4c-1.32,0-2.4-1.07-2.4-2.4,0-1.22.92-2.22,2.09-2.37v-.43c0-.55.45-1,1-1s1,.45,1,1v.4h1.09c.55,0,1,.45,1,1s-.45,1-1,1h-2.79c-.22,0-.4.18-.4.4s.18.4.4.4h1.4c1.32,0,2.4,1.07,2.4,2.4,0,1.22-.92,2.22-2.09,2.37v.43c0,.55-.45,1-1,1s-1-.45-1-1Z"/>
</svg>