<?xml version="1.0" encoding="UTF-8"?>
<svg id="OBJECT" xmlns="http://www.w3.org/2000/svg" viewBox="0 0 512 512">
  <defs>
    <style>
      .cls-1 {
        fill: #FD4360;
      }

      .cls-2 {
        fill: #dadada;
      }
    </style>
  </defs>
  <g>
    <path class="cls-2" d="M474.5,218.5c-3.78,0-7.43,.57-10.87,1.61-52.66-61.46-128.01-96.61-207.63-96.61S101.03,158.65,48.37,220.11c-3.44-1.04-7.09-1.61-10.87-1.61-20.68,0-37.5,16.82-37.5,37.5s16.82,37.5,37.5,37.5c3.78,0,7.43-.57,10.87-1.61,52.66,61.46,128.01,96.61,207.63,96.61s154.97-35.15,207.63-96.61c3.44,1.04,7.09,1.61,10.87,1.61,20.68,0,37.5-16.82,37.5-37.5s-16.82-37.5-37.5-37.5ZM15,256c0-12.41,10.09-22.5,22.5-22.5s22.5,10.09,22.5,22.5-10.09,22.5-22.5,22.5-22.5-10.09-22.5-22.5Zm46.82,28.51c8.06-6.88,13.18-17.11,13.18-28.51s-5.12-21.63-13.18-28.51c18.1-20.64,38.95-38.04,61.71-51.83-9.86,24.87-15.03,52.23-15.03,80.34s5.17,55.48,15.03,80.34c-22.77-13.79-43.61-31.19-61.71-51.83Zm83.64,63.73c-14.36-27.4-21.95-59.23-21.95-92.24s7.6-64.84,21.95-92.24c34.21-16.45,71.85-25.26,110.55-25.26s76.33,8.8,110.55,25.26c14.36,27.4,21.95,59.23,21.95,92.24s-7.6,64.84-21.95,92.24c-34.21,16.45-71.85,25.26-110.55,25.26s-76.33-8.8-110.55-25.26Zm243.02-11.9c9.86-24.87,15.03-52.23,15.03-80.34s-5.17-55.48-15.03-80.34c22.77,13.79,43.61,31.19,61.71,51.83-8.06,6.88-13.19,17.11-13.19,28.51s5.12,21.63,13.19,28.51c-18.1,20.64-38.95,38.04-61.71,51.83Zm86.03-57.84c-12.41,0-22.5-10.09-22.5-22.5s10.09-22.5,22.5-22.5,22.5,10.09,22.5,22.5-10.09,22.5-22.5,22.5Z"/>
    <path class="cls-2" d="M331.49,238.5c-.65-2.79-2.83-4.97-5.62-5.62-23.07-5.33-41.42-23.68-46.75-46.75-.65-2.79-2.83-4.97-5.62-5.62-5.77-1.33-11.66-2.01-17.5-2.01-42.73,0-77.5,34.77-77.5,77.5s34.77,77.5,77.5,77.5,77.5-34.77,77.5-77.5c0-5.85-.68-11.74-2.01-17.5Zm-75.49,80c-34.46,0-62.5-28.04-62.5-62.5s28.04-62.5,62.5-62.5c3.25,0,6.53,.26,9.78,.78,7.45,24.78,27.17,44.5,51.95,51.95,.52,3.25,.78,6.52,.78,9.78,0,34.46-28.04,62.5-62.5,62.5Z"/>
  </g>
  <g>
    <circle class="cls-1" cx="256" cy="32.5" r="32.5"/>
    <path class="cls-1" d="M256,108.5c4.14,0,7.5-3.36,7.5-7.5v-21.6c-2.44,.39-4.95,.6-7.5,.6s-5.06-.21-7.5-.6v21.6c0,4.14,3.36,7.5,7.5,7.5Z"/>
    <circle class="cls-1" cx="396" cy="27.5" r="27.5"/>
    <path class="cls-1" d="M347.3,35.83c-11.25,3.75-18.8,14.23-18.8,26.09v24.09c0,4.14,3.36,7.5,7.5,7.5s7.5-3.36,7.5-7.5v-24.09c0-5.39,3.43-10.15,8.55-11.86l6.65-2.22c-2.38-4.34-4.01-9.14-4.75-14.23l-6.64,2.22Z"/>
    <path class="cls-1" d="M336,123.5c4.14,0,7.5-3.36,7.5-7.5v-5c0-4.14-3.36-7.5-7.5-7.5s-7.5,3.36-7.5,7.5v5c0,4.14,3.36,7.5,7.5,7.5Z"/>
    <circle class="cls-1" cx="116" cy="27.5" r="27.5"/>
    <path class="cls-1" d="M164.7,35.83l-6.64-2.21c-.74,5.09-2.37,9.89-4.75,14.23l6.65,2.22c5.11,1.71,8.55,6.47,8.55,11.86v24.09c0,4.14,3.36,7.5,7.5,7.5s7.5-3.36,7.5-7.5v-24.09c0-11.85-7.56-22.34-18.8-26.09Z"/>
    <path class="cls-1" d="M176,103.5c-4.14,0-7.5,3.36-7.5,7.5v5c0,4.14,3.36,7.5,7.5,7.5s7.5-3.36,7.5-7.5v-5c0-4.14-3.36-7.5-7.5-7.5Z"/>
    <circle class="cls-1" cx="256" cy="479.5" r="32.5"/>
    <path class="cls-1" d="M248.5,432.6c2.44-.39,4.95-.6,7.5-.6s5.06,.21,7.5,.6v-21.6c0-4.14-3.36-7.5-7.5-7.5s-7.5,3.36-7.5,7.5v21.6Z"/>
    <circle class="cls-1" cx="396" cy="484.5" r="27.5"/>
    <path class="cls-1" d="M343.5,450.09v-24.09c0-4.14-3.36-7.5-7.5-7.5s-7.5,3.36-7.5,7.5v24.09c0,11.85,7.56,22.34,18.8,26.09l6.64,2.22c.74-5.09,2.37-9.89,4.75-14.23l-6.65-2.22c-5.11-1.7-8.55-6.47-8.55-11.86Z"/>
    <path class="cls-1" d="M336,408.5c4.14,0,7.5-3.36,7.5-7.5v-5c0-4.14-3.36-7.5-7.5-7.5s-7.5,3.36-7.5,7.5v5c0,4.14,3.36,7.5,7.5,7.5Z"/>
    <circle class="cls-1" cx="116" cy="484.5" r="27.5"/>
    <path class="cls-1" d="M176,418.5c-4.14,0-7.5,3.36-7.5,7.5v24.09c0,5.39-3.43,10.15-8.55,11.86l-6.65,2.22c2.38,4.34,4.01,9.14,4.75,14.23l6.64-2.21c11.25-3.75,18.8-14.24,18.8-26.09v-24.09c0-4.14-3.36-7.5-7.5-7.5Z"/>
    <path class="cls-1" d="M176,388.5c-4.14,0-7.5,3.36-7.5,7.5v5c0,4.14,3.36,7.5,7.5,7.5s7.5-3.36,7.5-7.5v-5c0-4.14-3.36-7.5-7.5-7.5Z"/>
  </g>
</svg>