<?xml version="1.0" encoding="UTF-8" standalone="no"?>
<svg
   id="OBJECT"
   viewBox="0 0 32 32"
   version="1.1"
   sodipodi:docname="blogging (2).svg"
   inkscape:version="1.2.2 (732a01da63, 2022-12-09)"
   xmlns:inkscape="http://www.inkscape.org/namespaces/inkscape"
   xmlns:sodipodi="http://sodipodi.sourceforge.net/DTD/sodipodi-0.dtd"
   xmlns="http://www.w3.org/2000/svg"
   xmlns:svg="http://www.w3.org/2000/svg">
  <sodipodi:namedview
     id="namedview31"
     pagecolor="#505050"
     bordercolor="#ffffff"
     borderopacity="1"
     inkscape:showpageshadow="0"
     inkscape:pageopacity="0"
     inkscape:pagecheckerboard="1"
     inkscape:deskcolor="#505050"
     showgrid="false"
     inkscape:zoom="2.2898106"
     inkscape:cx="-140.84134"
     inkscape:cy="-0.87343467"
     inkscape:window-width="1920"
     inkscape:window-height="1009"
     inkscape:window-x="-8"
     inkscape:window-y="-8"
     inkscape:window-maximized="1"
     inkscape:current-layer="OBJECT" />
  <defs
     id="defs4">
    <style
       id="style2">
      .cls-1 {
        fill: #FD4360;
      }

      .cls-1, .cls-2 {
        stroke-width: 0px;
      }

      .cls-2 {
        fill: #dadada;
      }
    </style>
  </defs>
  <g
     id="g14">
    <path
       class="cls-2"
       d="m28,1H4c-1.65,0-3,1.35-3,3v24c0,1.65,1.35,3,3,3h24c1.65,0,3-1.35,3-3V4c0-1.65-1.35-3-3-3ZM4,3h24c.55,0,1,.45,1,1v3H3v-3c0-.55.45-1,1-1Zm24,26H4c-.55,0-1-.45-1-1V9h26v19c0,.55-.45,1-1,1Z"
       id="path6" />
    <path
       class="cls-2"
       d="m5,6h.5c.55,0,1-.45,1-1s-.45-1-1-1h-.5c-.55,0-1,.45-1,1s.45,1,1,1Z"
       id="path8" />
    <path
       class="cls-2"
       d="m9,6h.5c.55,0,1-.45,1-1s-.45-1-1-1h-.5c-.55,0-1,.45-1,1s.45,1,1,1Z"
       id="path10" />
    <path
       class="cls-2"
       d="m13,6h.5c.55,0,1-.45,1-1s-.45-1-1-1h-.5c-.55,0-1,.45-1,1s.45,1,1,1Z"
       id="path12" />
  </g>
  <path
     class="cls-1"
     d="M 6.9232295,23.049543 H 12.206186 V 10.264777 H 6.9232295 c -0.9685422,0 -1.7609858,0.575314 -1.7609858,1.278477 v 10.227813 c 0,0.703162 0.7924436,1.278476 1.7609858,1.278476 z"
     id="path16" />
  <path
     class="cls-1"
     d="M 25.874116,10.187576 H 16.92478 v 12.784766 h 8.949336 c 0.703163,0 1.278477,-0.575314 1.278477,-1.278476 V 11.466053 c 0,-0.703163 -0.575314,-1.278477 -1.278477,-1.278477 z"
     id="path18" />
  <path
     class="cls-1"
     d="M 25.551524,25.104688 H 6.8019129 c -0.8593573,0 -1.5624678,0.575314 -1.5624678,1.278476 0,0.703163 0.7031105,1.278477 1.5624678,1.278477 H 25.551524 c 0.859359,0 1.562469,-0.575314 1.562469,-1.278477 0,-0.703162 -0.70311,-1.278476 -1.562469,-1.278476 z"
     id="path20" />
</svg>
