<?xml version="1.0" encoding="UTF-8"?>
<svg id="OBJECT" xmlns="http://www.w3.org/2000/svg" viewBox="0 0 32 32">
  <defs>
    <style>
      .cls-1 {
        fill: #FD4360;
      }

      .cls-1, .cls-2 {
        stroke-width: 0px;
      }

      .cls-2 {
        fill: #dadada;
      }
    </style>
  </defs>
  <g>
    <path class="cls-2" d="m28,1H4c-1.65,0-3,1.35-3,3v24c0,1.65,1.35,3,3,3h24c1.65,0,3-1.35,3-3V4c0-1.65-1.35-3-3-3ZM4,3h24c.55,0,1,.45,1,1v3H3v-3c0-.55.45-1,1-1Zm24,26H4c-.55,0-1-.45-1-1V9h26v19c0,.55-.45,1-1,1Z"/>
    <path class="cls-2" d="m5,6h.5c.55,0,1-.45,1-1s-.45-1-1-1h-.5c-.55,0-1,.45-1,1s.45,1,1,1Z"/>
    <path class="cls-2" d="m9,6h.5c.55,0,1-.45,1-1s-.45-1-1-1h-.5c-.55,0-1,.45-1,1s.45,1,1,1Z"/>
    <path class="cls-2" d="m13,6h.5c.55,0,1-.45,1-1s-.45-1-1-1h-.5c-.55,0-1,.45-1,1s.45,1,1,1Z"/>
  </g>
  <g>
    <path class="cls-1" d="m14.5,21.5h3v-10h-3c-.55,0-1,.45-1,1v8c0,.55.45,1,1,1Z"/>
    <path class="cls-1" d="m26.5,11.5h-7v10h7c.55,0,1-.45,1-1v-8c0-.55-.45-1-1-1Z"/>
    <path class="cls-1" d="m26.5,23.5h-12c-.55,0-1,.45-1,1s.45,1,1,1h12c.55,0,1-.45,1-1s-.45-1-1-1Z"/>
    <path class="cls-1" d="m4.5,20.13c1.09-.56,2.27-.87,3.5-.87s2.41.3,3.5.87v-3.63h-7v3.63Z"/>
    <path class="cls-1" d="m4.58,22.43c.1.46.31.9.61,1.26l1.8,2.17v.64c0,.55.45,1,1,1s1-.45,1-1v-.64l1.8-2.17c.31-.37.51-.8.61-1.26-1.02-.76-2.19-1.17-3.42-1.17s-2.4.41-3.42,1.17Z"/>
    <path class="cls-1" d="m10.5,10.5h-5c-.55,0-1,.45-1,1v3h7v-3c0-.55-.45-1-1-1Z"/>
  </g>
</svg>