<?xml version="1.0" encoding="UTF-8" standalone="no"?>
<svg
   id="OBJECT"
   viewBox="0 0 32 32"
   version="1.1"
   sodipodi:docname="Blue Ocean.svg"
   xml:space="preserve"
   inkscape:version="1.2.2 (732a01da63, 2022-12-09)"
   xmlns:inkscape="http://www.inkscape.org/namespaces/inkscape"
   xmlns:sodipodi="http://sodipodi.sourceforge.net/DTD/sodipodi-0.dtd"
   xmlns="http://www.w3.org/2000/svg"
   xmlns:svg="http://www.w3.org/2000/svg"><sodipodi:namedview
     id="namedview17"
     pagecolor="#505050"
     bordercolor="#ffffff"
     borderopacity="1"
     inkscape:showpageshadow="0"
     inkscape:pageopacity="0"
     inkscape:pagecheckerboard="1"
     inkscape:deskcolor="#505050"
     showgrid="false"
     inkscape:zoom="3.2382813"
     inkscape:cx="-55.276236"
     inkscape:cy="2.7792521"
     inkscape:window-width="1920"
     inkscape:window-height="1009"
     inkscape:window-x="-8"
     inkscape:window-y="-8"
     inkscape:window-maximized="1"
     inkscape:current-layer="OBJECT" /><defs
     id="defs4"><style
       id="style2">
      .cls-1 {
        fill: #FD4360;
      }

      .cls-1, .cls-2 {
        stroke-width: 0px;
      }

      .cls-2 {
        fill: #dadada;
      }
    </style></defs><path
     style="fill:#dadada;fill-opacity:1;stroke:none;stroke-width:0.128205;stroke-opacity:0.976471"
     d="m 1.8730239,7.976926 c 0,0 2.8330183,2.162042 8.7227161,1.1182982 5.889699,-1.043745 10.959317,-1.901105 10.959317,-1.901105 0,0 0.877244,-0.1055844 1.602101,-0.1582976 0.724855,-0.052713 3.083941,0.026357 3.98014,0.1581593 0.896184,0.1318027 3.09712,0.7116795 3.09712,0.7116795 l 0.02638,4.4018726 c 0,0 -2.807185,-1.159776 -5.482574,-1.120237 -2.675388,0.03953 -3.690192,0.131783 -3.690192,0.131783 0,0 -2.859901,0.250406 -6.681886,1.265208 -3.821985,1.014802 -7.2485908,0.711679 -7.2485908,0.711679 0,0 -2.0427864,0 -3.4661459,-0.382198 -1.4233622,-0.382198 -1.871457,-0.711681 -1.871457,-0.711681 z"
     id="path366" /><path
     style="fill:#dadada;fill-opacity:1;stroke:#fe4461;stroke-width:0.128205;stroke-opacity:0.976471"
     d="m 1.649364,14.030901 c 0,0 2.8330195,2.162041 8.722717,1.118298 5.889699,-1.043745 10.959311,-1.901105 10.959311,-1.901105 0,0 0.877245,-0.105585 1.602113,-0.158298 0.724858,-0.05271 3.083944,0.02636 3.980127,0.158159 0.896198,0.131783 3.097134,0.711678 3.097134,0.711678 l 0.02638,4.401874 c 0,0 -2.807185,-1.159777 -5.482573,-1.120236 -2.675389,0.03955 -3.690193,0.131782 -3.690193,0.131782 0,0 -2.859895,0.250404 -6.681881,1.265208 -3.821985,1.014802 -7.24859,0.71168 -7.24859,0.71168 0,0 -2.0427861,0 -3.4661456,-0.382199 -1.4233596,-0.3822 -1.8714543,-0.711679 -1.8714543,-0.711679 z"
     id="path368" /><path
     style="fill:#fd4360;fill-opacity:1;stroke:#fe4461;stroke-width:0.128205;stroke-opacity:0.976471"
     d="m 1.8730239,19.883322 c 0,0 2.8330183,2.162041 8.7227161,1.118298 5.889699,-1.043747 10.959317,-1.901107 10.959317,-1.901107 0,0 0.877244,-0.105584 1.602101,-0.158298 0.724855,-0.05271 3.083941,0.02636 3.98014,0.15816 0.896184,0.131783 3.09712,0.711679 3.09712,0.711679 l 0.02638,4.401874 c 0,0 -2.807185,-1.159775 -5.482574,-1.120238 -2.675388,0.03955 -3.690192,0.131783 -3.690192,0.131783 0,0 -2.859901,0.250405 -6.681886,1.265209 -3.821985,1.014803 -7.2485908,0.71168 -7.2485908,0.71168 0,0 -2.0427864,0 -3.4661459,-0.3822 -1.4233622,-0.382197 -1.871457,-0.71168 -1.871457,-0.71168 z"
     id="path370" /></svg>
