<?xml version="1.0" encoding="UTF-8"?>
<svg id="OBJECT" xmlns="http://www.w3.org/2000/svg" viewBox="0 0 32 32">
  <defs>
    <style>
      .cls-1 {
        fill: #FD4360;
      }

      .cls-1, .cls-2 {
        stroke-width: 0px;
      }

      .cls-2 {
        fill: #dadada;
      }
    </style>
  </defs>
  <path class="cls-1" d="m22,21.92c0-4.96-4.04-9-9-9s-9,4.04-9,9,4.04,9,9,9,9-4.04,9-9Zm-12.87-4.11l.76-.76c.39-.39,1.02-.39,1.41,0s.39,1.02,0,1.41l-.76.76c-.2.2-.45.29-.71.29s-.51-.1-.71-.29c-.39-.39-.39-1.02,0-1.41Zm2.94,4.38l-.76.76c-.2.2-.45.29-.71.29s-.51-.1-.71-.29c-.39-.39-.39-1.02,0-1.41l.76-.76c.39-.39,1.02-.39,1.41,0,.39.39.39,1.02,0,1.41Zm3.04-2.97l-.76.76c-.2.2-.45.29-.71.29s-.51-.1-.71-.29c-.39-.39-.39-1.02,0-1.41l.76-.76c.39-.39,1.02-.39,1.41,0s.39,1.02,0,1.41Z"/>
  <path class="cls-2" d="m27.64,18.84l-1.86-5.02v-5.82h.11c.55,0,1-.45,1-1v-2.55c0-1.9-1.55-3.45-3.45-3.45h-2.88c-1.9,0-3.45,1.55-3.45,3.45v2.55c0,.55.45,1,1,1h.11v4c0,.55.45,1,1,1s1-.45,1-1v-4h3.56v5h-1.56c-.55,0-1,.45-1,1s.45,1,1,1h1.86l1.68,4.54c.16.42.24.87.24,1.32v4.14h-2c-.55,0-1,.45-1,1s.45,1,1,1h2v1.5c0,.28-.22.5-.5.5h-4c-.55,0-1,.45-1,1s.45,1,1,1h4c1.38,0,2.5-1.12,2.5-2.5v-7.64c0-.69-.12-1.37-.36-2.02Zm-8.53-14.39c0-.8.65-1.45,1.45-1.45h2.88c.8,0,1.45.65,1.45,1.45v1.55h-5.78v-1.55Z"/>
</svg>