<?xml version="1.0" encoding="UTF-8"?>
<svg id="OBJECT" xmlns="http://www.w3.org/2000/svg" viewBox="0 0 32 32">
  <defs>
    <style>
      .cls-1 {
        fill: #FD4360;
      }

      .cls-1, .cls-2 {
        stroke-width: 0px;
      }

      .cls-2 {
        fill: #dadada;
      }
    </style>
  </defs>
  <g>
    <path class="cls-2" d="m26.91,17.29l-3.87-4.87c-.34-.43-.97-.5-1.4-.16-.43.34-.5.97-.16,1.4l3.87,4.87c.42.52.65,1.19.65,1.86v5.6c0,1.65-1.35,3-3,3h-14c-1.65,0-3-1.35-3-3v-5.6c0-.68.23-1.34.65-1.87l3.87-4.87c.34-.43.27-1.06-.16-1.4-.43-.34-1.06-.27-1.4.16l-3.87,4.87c-.7.88-1.09,1.98-1.09,3.11v5.6c0,2.76,2.24,5,5,5h14c2.76,0,5-2.24,5-5v-5.6c0-1.13-.39-2.24-1.09-3.11Z"/>
    <path class="cls-2" d="m16.75,23.5h-3c-.55,0-1,.45-1,1s.45,1,1,1h1.25v.5c0,.55.45,1,1,1s1-.45,1-1v-.53c1.26-.13,2.25-1.18,2.25-2.47,0-1.38-1.12-2.5-2.5-2.5h-1.5c-.28,0-.5-.22-.5-.5s.22-.5.5-.5h3c.55,0,1-.45,1-1s-.45-1-1-1h-1.25v-.5c0-.55-.45-1-1-1s-1,.45-1,1v.53c-1.26.13-2.25,1.18-2.25,2.47,0,1.38,1.12,2.5,2.5,2.5h1.5c.28,0,.5.22.5.5s-.22.5-.5.5Z"/>
    <path class="cls-2" d="m21.75,23c.55,0,1-.45,1-1v-1c0-.55-.45-1-1-1s-1,.45-1,1v1c0,.55.45,1,1,1Z"/>
    <path class="cls-2" d="m9.25,21v1c0,.55.45,1,1,1s1-.45,1-1v-1c0-.55-.45-1-1-1s-1,.45-1,1Z"/>
  </g>
  <path class="cls-1" d="m8,10.04c0,.55.45,1,1,1h14c.55,0,1-.45,1-1s-.45-1-1-1h-1.66l2.59-6.67c.13-.34.07-.73-.17-1.01-.24-.28-.61-.41-.97-.33l-5.8,1.2v3.81c0,.55-.45,1-1,1s-1-.45-1-1v-3.81l-5.8-1.2c-.36-.07-.73.05-.97.33-.24.28-.3.67-.17,1.01l2.59,6.67h-1.66c-.55,0-1,.45-1,1Z"/>
</svg>