<?xml version="1.0" encoding="UTF-8"?>
<svg id="OBJECT" xmlns="http://www.w3.org/2000/svg" viewBox="0 0 32 32">
  <defs>
    <style>
      .cls-1 {
        fill: #FD4360;
      }

      .cls-1, .cls-2 {
        stroke-width: 0px;
      }

      .cls-2 {
        fill: #dadada;
      }
    </style>
  </defs>
  <g>
    <path class="cls-2" d="m26,7.91c-.05-.52-.48-.91-1-.91h-3.5v-3c0-1.65-1.35-3-3-3h-5c-1.65,0-3,1.35-3,3v3h-3.5c-.52,0-.95.39-1,.91l-1.36,15c-.05.55.36,1.04.91,1.09.54.04,1.04-.36,1.09-.91l1.28-14.09h16.17l1.28,14.09c.05.52.48.91,1,.91.03,0,.06,0,.09,0,.55-.05.96-.54.91-1.09l-1.36-15Zm-6.5-.91h-7v-3c0-.55.45-1,1-1h5c.55,0,1,.45,1,1v3Z"/>
    <path class="cls-2" d="m16,10c-3.58,0-6.5,2.92-6.5,6.5s2.92,6.5,6.5,6.5,6.5-2.92,6.5-6.5-2.92-6.5-6.5-6.5Zm0,11c-1.29,0-2.45-.55-3.27-1.43.84-.9,2.02-1.42,3.27-1.42s2.43.52,3.27,1.42c-.82.87-1.98,1.43-3.27,1.43Zm-.71-5.56c0-.39.32-.71.71-.71s.71.32.71.71-.32.71-.71.71-.71-.32-.71-.71Zm5,2.33c-.55-.49-1.19-.87-1.87-1.15.18-.36.28-.76.28-1.18,0-1.49-1.21-2.71-2.71-2.71s-2.71,1.22-2.71,2.71c0,.43.11.82.28,1.18-.68.27-1.31.66-1.87,1.15-.12-.41-.21-.83-.21-1.28,0-2.48,2.02-4.5,4.5-4.5s4.5,2.02,4.5,4.5c0,.45-.09.87-.21,1.28Z"/>
  </g>
  <path class="cls-1" d="m4.36,26l-.36,3.91c-.03.28.07.56.26.76s.46.33.74.33h22c.28,0,.55-.12.74-.33s.28-.48.26-.76l-.36-3.91H4.36Z"/>
</svg>