<?xml version="1.0" encoding="UTF-8"?>
<svg id="OBJECT" xmlns="http://www.w3.org/2000/svg" viewBox="0 0 32 32">
  <defs>
    <style>
      .cls-1 {
        fill: #FD4360;
      }

      .cls-1, .cls-2 {
        stroke-width: 0px;
      }

      .cls-2 {
        fill: #dadada;
      }
    </style>
  </defs>
  <path class="cls-2" d="m23,8h-4v-4c0-1.65-1.35-3-3-3h-7c-1.65,0-3,1.35-3,3v4H2c-.55,0-1,.45-1,1v19c0,.55.45,1,1,1h12c.55,0,1-.45,1-1s-.45-1-1-1H3v-4h11c.55,0,1-.45,1-1s-.45-1-1-1H3v-11h3v3c0,.55.45,1,1,1s1-.45,1-1v-3h9v3c0,.55.45,1,1,1s1-.45,1-1v-3h3v5c0,.55.45,1,1,1s1-.45,1-1v-6c0-.55-.45-1-1-1Zm-15,0v-4c0-.55.45-1,1-1h7c.55,0,1,.45,1,1v4h-9Z"/>
  <path class="cls-1" d="m28,17h-9c-1.65,0-3,1.35-3,3v8c0,1.65,1.35,3,3,3h9c1.65,0,3-1.35,3-3v-8c0-1.65-1.35-3-3-3Zm-.5,7c0,1.65-1.35,3-3,3h-2c-1.65,0-3-1.35-3-3v-2c0-.55.45-1,1-1s1,.45,1,1v2c0,.55.45,1,1,1h2c.55,0,1-.45,1-1v-2c0-.55.45-1,1-1s1,.45,1,1v2Z"/>
</svg>