<?xml version="1.0" encoding="UTF-8"?>
<svg id="OBJECT" xmlns="http://www.w3.org/2000/svg" viewBox="0 0 32 32">
  <defs>
    <style>
      .cls-1 {
        fill: #FD4360;
      }

      .cls-1, .cls-2 {
        stroke-width: 0px;
      }

      .cls-2 {
        fill: #dadada;
      }
    </style>
  </defs>
  <g>
    <path class="cls-2" d="m20.79,14.43c-.1-.15-.23-.28-.36-.41l-4.43-4.43v-1.59h1c.55,0,1-.45,1-1s-.45-1-1-1h-.52l1.45-3.63c.12-.31.09-.66-.1-.93s-.5-.44-.83-.44H7c-.33,0-.64.16-.83.44s-.22.62-.1.93l1.45,3.63h-.52c-.55,0-1,.45-1,1s.45,1,1,1h1v1.59l-4.43,4.43c-1.64,1.63-2.57,3.9-2.57,6.21,0,4.84,3.94,8.78,8.78,8.78h4.22c.55,0,1-.45,1-1s-.45-1-1-1h-4.22c-3.74,0-6.78-3.04-6.78-6.78,0-1.78.72-3.53,1.99-4.79l4.72-4.72c.19-.19.29-.44.29-.71v-2h4v2c0,.27.11.52.29.71l4.72,4.72s.1.09.14.15c.19.28.5.43.82.43.2,0,.4-.06.57-.18.45-.32.56-.94.24-1.39ZM15.52,3l-1.2,3h-4.65l-1.2-3h7.05Z"/>
    <path class="cls-2" d="m10.21,15.15c.39-.39.39-1.02,0-1.41-.39-.39-1.02-.39-1.41,0l-2.75,2.75c-1,1-1.55,2.32-1.55,3.73,0,2.91,2.37,5.28,5.28,5.28.55,0,1-.45,1-1s-.45-1-1-1c-1.81,0-3.28-1.47-3.28-3.28,0-.88.34-1.7.96-2.32l2.75-2.75Z"/>
    <path class="cls-2" d="m11.64,13.31c.26,0,.51-.1.71-.29l.36-.36c.39-.39.39-1.02,0-1.41s-1.02-.39-1.41,0l-.36.36c-.39.39-.39,1.02,0,1.41.2.2.45.29.71.29Z"/>
  </g>
  <path class="cls-1" d="m28,17h-9c-1.65,0-3,1.35-3,3v8c0,1.65,1.35,3,3,3h9c1.65,0,3-1.35,3-3v-8c0-1.65-1.35-3-3-3Zm-.5,7c0,1.65-1.35,3-3,3h-2c-1.65,0-3-1.35-3-3v-2c0-.55.45-1,1-1s1,.45,1,1v2c0,.55.45,1,1,1h2c.55,0,1-.45,1-1v-2c0-.55.45-1,1-1s1,.45,1,1v2Z"/>
</svg>