<?xml version="1.0" encoding="UTF-8"?>
<svg id="OBJECT" xmlns="http://www.w3.org/2000/svg" viewBox="0 0 32 32">
  <defs>
    <style>
      .cls-1 {
        fill: #FD4360;
      }

      .cls-1, .cls-2 {
        stroke-width: 0px;
      }

      .cls-2 {
        fill: #dadada;
      }
    </style>
  </defs>
  <g>
    <path class="cls-2" d="m7.46,18.49c-.39-.39-1.02-.39-1.41,0-1,1-1.55,2.32-1.55,3.73,0,2.91,2.37,5.28,5.28,5.28.55,0,1-.45,1-1s-.45-1-1-1c-1.81,0-3.28-1.47-3.28-3.28,0-.88.34-1.7.96-2.32.39-.39.39-1.02,0-1.41Z"/>
    <path class="cls-2" d="m18.85,1.47c-.18-.29-.5-.47-.85-.47H6c-.35,0-.67.18-.85.47-.18.29-.2.66-.04.97l2.28,4.55h-.38c-.55,0-1,.45-1,1s.45,1,1,1h1v2.59l-4.43,4.43c-1.64,1.63-2.57,3.9-2.57,6.21,0,4.84,3.94,8.78,8.78,8.78h4.44c.98,0,1.93-.16,2.82-.47.43-.11.74-.5.74-.97,0-.67-.72-1.17-1.35-.94-.7.25-1.44.38-2.22.38h-4.44c-3.74,0-6.78-3.04-6.78-6.78,0-1.78.72-3.53,1.99-4.79l4.72-4.72c.19-.19.29-.44.29-.71v-3h4v3c0,.27.11.52.29.71l1.6,1.6c.39.39,1.02.39,1.41,0s.39-1.02,0-1.41l-1.31-1.31v-2.59h1c.55,0,1-.45,1-1s-.45-1-1-1h-.38l2.28-4.55c.15-.31.14-.68-.04-.97Zm-9.23,5.53l-2-4h8.76l-2,4h-4.76Z"/>
  </g>
  <path class="cls-1" d="m23.5,14c-4.14,0-7.5,3.36-7.5,7.5s3.36,7.5,7.5,7.5,7.5-3.36,7.5-7.5-3.36-7.5-7.5-7.5Zm-.75,6.5h1.5c1.38,0,2.5,1.12,2.5,2.5,0,1.29-.99,2.35-2.25,2.47v.53c0,.55-.45,1-1,1s-1-.45-1-1v-.5h-1.25c-.55,0-1-.45-1-1s.45-1,1-1h3c.28,0,.5-.22.5-.5s-.22-.5-.5-.5h-1.5c-1.38,0-2.5-1.12-2.5-2.5,0-1.29.99-2.35,2.25-2.47v-.53c0-.55.45-1,1-1s1,.45,1,1v.5h1.25c.55,0,1,.45,1,1s-.45,1-1,1h-3c-.28,0-.5.22-.5.5s.22.5.5.5Z"/>
</svg>