<?xml version="1.0" encoding="UTF-8"?>
<svg id="OBJECT" xmlns="http://www.w3.org/2000/svg" viewBox="0 0 32 32">
  <defs>
    <style>
      .cls-1 {
        fill: #FD4360;
      }

      .cls-1, .cls-2 {
        stroke-width: 0px;
      }

      .cls-2 {
        fill: #dadada;
      }
    </style>
  </defs>
  <path class="cls-2" d="m21,8h-4v-4c0-1.65-1.35-3-3-3h-5c-1.65,0-3,1.35-3,3v4H2c-.55,0-1,.45-1,1v16c0,1.65,1.35,3,3,3h9.73c.55,0,1-.45,1-1s-.45-1-1-1H4c-.55,0-1-.45-1-1v-2h9c.55,0,1-.45,1-1s-.45-1-1-1H3v-11h3v2c0,.55.45,1,1,1s1-.45,1-1v-2h7v2c0,.55.45,1,1,1s1-.45,1-1v-2h3v5c0,.55.45,1,1,1s1-.45,1-1v-6c0-.55-.45-1-1-1Zm-13,0v-4c0-.55.45-1,1-1h5c.55,0,1,.45,1,1v4h-7Z"/>
  <path class="cls-1" d="m30.97,27.9l-1.22-8.57c-.19-1.33-1.34-2.33-2.69-2.33h-7.31c-1.34,0-2.5,1-2.69,2.33l-1.22,8.57c-.11.78.12,1.57.64,2.16s1.26.94,2.05.94h9.76c.79,0,1.54-.34,2.05-.94s.75-1.38.64-2.16Zm-4.42-3.47c0,1.5-1.22,2.71-2.71,2.71h-.86c-1.5,0-2.71-1.22-2.71-2.71v-2.57c0-.55.45-1,1-1s1,.45,1,1v2.57c0,.39.32.71.71.71h.86c.39,0,.71-.32.71-.71v-2.57c0-.55.45-1,1-1s1,.45,1,1v2.57Z"/>
</svg>