<?xml version="1.0" encoding="UTF-8"?>
<svg id="OBJECT" xmlns="http://www.w3.org/2000/svg" viewBox="0 0 32 32">
  <defs>
    <style>
      .cls-1 {
        fill: #FD4360;
      }

      .cls-1, .cls-2 {
        stroke-width: 0px;
      }

      .cls-2 {
        fill: #dadada;
      }
    </style>
  </defs>
  <path class="cls-1" d="m28.55,16.19h-9.1c-1.35,0-2.45,1.1-2.45,2.45v9.91c0,1.35,1.1,2.45,2.45,2.45h9.1c1.35,0,2.45-1.1,2.45-2.45v-9.91c0-1.35-1.1-2.45-2.45-2.45Zm-1.46,7.05c0,1.41-1.14,2.55-2.55,2.55h-1.08c-1.41,0-2.55-1.14-2.55-2.55v-1.98c0-.52.42-.93.93-.93s.93.42.93.93v1.98c0,.38.31.68.68.68h1.08c.38,0,.68-.31.68-.68v-1.98c0-.52.42-.93.93-.93s.93.42.93.93v1.98Z"/>
  <path class="cls-2" d="m22.96,11.53v-4.25c0-1.35-1.09-2.44-2.44-2.44h-1.88v-1.4c0-1.35-1.09-2.44-2.44-2.44h-6.72c-1.35,0-2.44,1.09-2.44,2.44v1.4h-1.88c-1.35,0-2.44,1.09-2.44,2.44v4.25l-1.7,12.71c-.09.7.13,1.4.59,1.93.46.53,1.13.83,1.83.83h11.56c.55,0,1-.45,1-1s-.45-1-1-1H3.44c-.17,0-.28-.09-.33-.15-.05-.06-.13-.18-.11-.35l.18-1.34h11.82c.55,0,1-.45,1-1s-.45-1-1-1H3.45l1.15-8.56h16.5l.24,1.67c.08.55.58.92,1.13.85.55-.08.93-.58.85-1.13l-.35-2.46ZM9.04,3.44c0-.24.2-.44.44-.44h6.72c.24,0,.44.2.44.44v1.4h-7.6v-1.4Zm-3.88,3.4h1.88v1.88c0,.55.45,1,1,1s1-.45,1-1v-1.88h7.6v1.88c0,.55.45,1,1,1s1-.45,1-1v-1.88h1.88c.24,0,.44.2.44.44v3.32H4.72v-3.32c0-.25.19-.44.44-.44Z"/>
</svg>