<?xml version="1.0" encoding="UTF-8"?>
<svg id="OBJECT" xmlns="http://www.w3.org/2000/svg" viewBox="0 0 512 512">
  <defs>
    <style>
      .cls-1 {
        fill: #FD4360;
      }

      .cls-2 {
        fill: #dadada;
      }
    </style>
  </defs>
  <g>
    <path class="cls-2" d="M201,327h110c9.65,0,17.5-7.85,17.5-17.5v-20c0-9.65-7.85-17.5-17.5-17.5h-110c-9.65,0-17.5,7.85-17.5,17.5v20c0,9.65,7.85,17.5,17.5,17.5Zm-2.5-37.5c0-1.38,1.12-2.5,2.5-2.5h110c1.38,0,2.5,1.12,2.5,2.5v20c0,1.38-1.12,2.5-2.5,2.5h-110c-1.38,0-2.5-1.12-2.5-2.5v-20Z"/>
    <path class="cls-2" d="M126,327h20c9.65,0,17.5-7.85,17.5-17.5v-20c0-9.65-7.85-17.5-17.5-17.5h-20c-9.65,0-17.5,7.85-17.5,17.5v20c0,9.65,7.85,17.5,17.5,17.5Zm-2.5-37.5c0-1.38,1.12-2.5,2.5-2.5h20c1.38,0,2.5,1.12,2.5,2.5v20c0,1.38-1.12,2.5-2.5,2.5h-20c-1.38,0-2.5-1.12-2.5-2.5v-20Z"/>
    <path class="cls-2" d="M366,327h20c9.65,0,17.5-7.85,17.5-17.5v-20c0-9.65-7.85-17.5-17.5-17.5h-20c-9.65,0-17.5,7.85-17.5,17.5v20c0,9.65,7.85,17.5,17.5,17.5Zm-2.5-37.5c0-1.38,1.12-2.5,2.5-2.5h20c1.38,0,2.5,1.12,2.5,2.5v20c0,1.38-1.12,2.5-2.5,2.5h-20c-1.38,0-2.5-1.12-2.5-2.5v-20Z"/>
    <path class="cls-2" d="M211,467h-30c-4.14,0-7.5,3.36-7.5,7.5s3.36,7.5,7.5,7.5h30c4.14,0,7.5-3.36,7.5-7.5s-3.36-7.5-7.5-7.5Z"/>
    <path class="cls-2" d="M331,467h-30c-4.14,0-7.5,3.36-7.5,7.5s3.36,7.5,7.5,7.5h30c4.14,0,7.5-3.36,7.5-7.5s-3.36-7.5-7.5-7.5Z"/>
    <path class="cls-2" d="M271,467h-30c-4.14,0-7.5,3.36-7.5,7.5s3.36,7.5,7.5,7.5h30c4.14,0,7.5-3.36,7.5-7.5s-3.36-7.5-7.5-7.5Z"/>
    <path class="cls-2" d="M489.5,367h-46v-7.04c6.2-6.69,10-15.64,10-25.46v-100c0-4.14-3.36-7.5-7.5-7.5h-92.5v-57.5c0-12.41-10.09-22.5-22.5-22.5H181c-12.41,0-22.5,10.09-22.5,22.5v57.5H66c-4.14,0-7.5,3.36-7.5,7.5v100c0,9.82,3.8,18.77,10,25.46v7.04H22.5c-12.41,0-22.5,10.09-22.5,22.5v80c0,12.41,10.09,22.5,22.5,22.5h46.14c1.25,11.23,10.8,20,22.36,20H421c11.56,0,21.11-8.77,22.36-20h46.14c12.41,0,22.5-10.09,22.5-22.5v-80c0-12.41-10.09-22.5-22.5-22.5Zm0,15c4.14,0,7.5,3.36,7.5,7.5v37.5h-53.5v-45h46ZM181,162h150c4.14,0,7.5,3.36,7.5,7.5v17.5H173.5v-17.5c0-4.14,3.36-7.5,7.5-7.5Zm-7.5,40h165v25H173.5v-25Zm-100,40H438.5v92.5c0,12.41-10.09,22.5-22.5,22.5H96c-12.41,0-22.5-10.09-22.5-22.5v-92.5Zm255,180h25v7.5c0,4.14-3.36,7.5-7.5,7.5h-10c-4.14,0-7.5-3.36-7.5-7.5v-7.5Zm0-15v-35h25v35h-25Zm-170,15h25v7.5c0,4.14-3.36,7.5-7.5,7.5h-10c-4.14,0-7.5-3.36-7.5-7.5v-7.5Zm0-15v-35h25v35h-25Zm-136-25h46v45H15v-37.5c0-4.14,3.36-7.5,7.5-7.5Zm-7.5,87.5v-27.5h53.5v35H22.5c-4.14,0-7.5-3.36-7.5-7.5Zm406,27.5H91c-4.14,0-7.5-3.36-7.5-7.5v-119.65c3.91,1.39,8.12,2.15,12.5,2.15h47.5v35h-2.5c-4.14,0-7.5,3.36-7.5,7.5s3.36,7.5,7.5,7.5h2.5v7.5c0,12.41,10.09,22.5,22.5,22.5h10c12.41,0,22.5-10.09,22.5-22.5v-7.5h2.5c4.14,0,7.5-3.36,7.5-7.5s-3.36-7.5-7.5-7.5h-2.5v-35h115v35h-2.5c-4.14,0-7.5,3.36-7.5,7.5s3.36,7.5,7.5,7.5h2.5v7.5c0,12.41,10.09,22.5,22.5,22.5h10c12.41,0,22.5-10.09,22.5-22.5v-7.5h2.5c4.14,0,7.5-3.36,7.5-7.5s-3.36-7.5-7.5-7.5h-2.5v-35h47.5c4.38,0,8.59-.76,12.5-2.15v119.65c0,4.14-3.36,7.5-7.5,7.5Zm68.5-20h-46v-35h53.5v27.5c0,4.14-3.36,7.5-7.5,7.5Z"/>
  </g>
  <g>
    <rect class="cls-1" x="148.5" width="215" height="40"/>
    <path class="cls-1" d="M418.5,182h-5v-31.3c-2.38,.84-4.9,1.3-7.5,1.3s-5.12-.46-7.5-1.3v31.3h-5c-8.28,0-15,6.72-15,15v15h55v-15c0-8.28-6.72-15-15-15Z"/>
    <path class="cls-1" d="M421.06,16.65L389.35,.79c-1.11-.56-2.32-.81-3.53-.78h-7.33s0,109.49,0,109.49c0,1.99,.79,3.9,2.2,5.3l20,20c1.46,1.46,3.38,2.2,5.3,2.2s3.84-.73,5.3-2.2l20-20c1.41-1.41,2.2-3.31,2.2-5.3V36.77c0-8.58-4.77-16.29-12.44-20.12Z"/>
    <path class="cls-1" d="M118.5,182h-5v-31.3c-2.38,.84-4.9,1.3-7.5,1.3s-5.12-.46-7.5-1.3v31.3h-5c-8.28,0-15,6.72-15,15v15h55v-15c0-8.28-6.72-15-15-15Z"/>
    <path class="cls-1" d="M122.65,.79l-31.71,15.85c-7.67,3.84-12.44,11.55-12.44,20.12V109.5c0,1.99,.79,3.9,2.2,5.3l20,20c1.46,1.46,3.38,2.2,5.3,2.2s3.84-.73,5.3-2.2l20-20c1.41-1.41,2.2-3.31,2.2-5.3V0h-7.33c-1.2-.02-2.42,.23-3.53,.79Z"/>
  </g>
</svg>