<?xml version="1.0" encoding="UTF-8"?>
<svg id="OBJECT" xmlns="http://www.w3.org/2000/svg" viewBox="0 0 512 512">
  <defs>
    <style>
      .cls-1 {
        fill: #FD4360;
      }

      .cls-2 {
        fill: #dadada;
      }
    </style>
  </defs>
  <g>
    <path class="cls-2" d="M503.41,15.41c-.32-3.63-3.19-6.5-6.82-6.82-37.85-3.31-78.65,12.94-109.15,43.45-13.2,13.2-23.73,28.2-31.3,44.6-1.32,2.85-.72,6.23,1.5,8.45l49.27,49.27c1.44,1.44,3.36,2.2,5.31,2.2,1.06,0,2.14-.23,3.14-.69,16.4-7.58,31.41-18.11,44.6-31.3,30.51-30.51,46.75-71.31,43.45-109.16Zm-54.05,98.55c-10.67,10.67-22.63,19.41-35.61,26.02l-41.72-41.72c6.61-12.98,15.35-24.94,26.02-35.61,25.65-25.66,59.14-40.1,90.77-39.46,.65,31.63-13.8,65.12-39.46,90.77Z"/>
    <path class="cls-2" d="M314.71,102.86c-2.01-2.01-4.98-2.71-7.68-1.81l-41.54,13.84c-4.31,1.44-8.28,3.89-11.49,7.1L42.33,333.68c-5.35,5.35-9.27,12.01-11.36,19.28L1.73,455.02c-4.47,15.6-.12,32.42,11.36,43.89,8.49,8.49,19.91,13.08,31.6,13.08,4.1,0,8.24-.57,12.29-1.73l102.06-29.25c7.27-2.08,13.94-6.01,19.28-11.36l211.68-211.68c3.21-3.21,5.67-7.18,7.1-11.49l13.85-41.54c.9-2.7,.2-5.67-1.81-7.68l-94.43-94.43ZM167.71,459.06c-3.55,3.55-7.98,6.16-12.81,7.54l-48.37,13.86-36.63-36.64c-2.93-2.93-7.68-2.93-10.61,0-2.93,2.93-2.93,7.68,0,10.61l30.75,30.75-37.2,10.66c-10.36,2.97-21.53,.08-29.15-7.54-7.62-7.62-10.51-18.79-7.54-29.16l29.25-102.06c1.38-4.83,3.99-9.26,7.54-12.81l21.56-21.56,114.78,114.78-21.56,21.56Zm32.17-32.17l-114.78-114.78L229.3,167.92l114.78,114.78-144.19,144.19Zm182.99-185.13c-.7,2.11-1.9,4.05-3.48,5.62l-24.71,24.71-114.78-114.78,24.71-24.71c1.57-1.57,3.52-2.77,5.63-3.48l37.14-12.38,87.87,87.87-12.38,37.14Z"/>
    <path class="cls-2" d="M52.25,426.18c-2.93-2.93-7.68-2.93-10.61,0-2.93,2.93-2.93,7.68,0,10.61l1.9,1.9c1.46,1.46,3.38,2.2,5.3,2.2s3.84-.73,5.3-2.2c2.93-2.93,2.93-7.68,0-10.61l-1.9-1.9Z"/>
    <path class="cls-2" d="M202.78,229.79l-55.8,55.8c-14.62,14.62-14.62,38.41,0,53.03l26.39,26.39c7.31,7.31,16.91,10.97,26.52,10.97s19.21-3.66,26.52-10.97l55.8-55.8c14.62-14.62,14.62-38.41,0-53.03h0l-26.39-26.39c-14.62-14.62-38.41-14.62-53.03,0Zm13.02,124.62c-8.77,8.77-23.05,8.77-31.82,0l-26.39-26.39c-8.77-8.77-8.77-23.05,0-31.82l22.6-22.6,58.21,58.21-22.6,22.6Zm55.8-87.62c8.77,8.77,8.77,23.05,0,31.82l-22.6,22.6-58.21-58.21,22.6-22.6c4.39-4.39,10.15-6.58,15.91-6.58s11.52,2.19,15.91,6.58l26.39,26.39Z"/>
  </g>
  <g>
    <path class="cls-1" d="M431.8,304.82c-.58-3.79-3.94-6.5-7.75-6.35l-55.86,2.54-51.26,51.26,12.19-.1h.06c4.11,0,7.46,3.32,7.5,7.44,.03,4.14-3.3,7.53-7.44,7.56l-27.44,.22-38.7,38.7,107.04-.87c7.76-.06,15.06-3.12,20.54-8.61l37.36-37.36c6.6-6.6,9.69-16.05,8.26-25.27l-4.51-29.17Zm-71.27,62.1l-5.05,.04h-.06c-4.11,0-7.46-3.32-7.5-7.44-.03-4.14,3.3-7.53,7.44-7.56l5.05-.04h.06c4.11,0,7.46,3.32,7.5,7.44,.03,4.14-3.3,7.53-7.44,7.56Z"/>
    <path class="cls-1" d="M207.18,80.2l-29.17-4.51c-9.22-1.42-18.67,1.66-25.27,8.26l-37.36,37.36c-5.49,5.49-8.54,12.78-8.61,20.54l-.87,107.04,38.7-38.7,.22-27.44c.03-4.12,3.39-7.44,7.5-7.44h.06c4.14,.03,7.47,3.42,7.44,7.56l-.1,12.19,51.26-51.26,2.54-55.86c.17-3.83-2.56-7.17-6.35-7.75Zm-47.14,76.44c-.03,4.12-3.39,7.44-7.5,7.44h-.06c-4.14-.03-7.47-3.42-7.44-7.56l.04-5.05c.03-4.12,3.39-7.44,7.5-7.44h.06c4.14,.03,7.47,3.42,7.44,7.56l-.04,5.05Z"/>
    <path class="cls-1" d="M475.98,243.77l-33.67,33.67c-2.93,2.93-2.93,7.68,0,10.61,1.46,1.46,3.38,2.2,5.3,2.2s3.84-.73,5.3-2.2l33.67-33.67c2.93-2.93,2.93-7.68,0-10.61s-7.68-2.93-10.61,0Z"/>
    <path class="cls-1" d="M509.8,220.55c-2.93-2.93-7.68-2.93-10.61,0l-3.87,3.87c-2.93,2.93-2.93,7.68,0,10.61,1.46,1.46,3.38,2.2,5.3,2.2s3.84-.73,5.3-2.2l3.87-3.87c2.93-2.93,2.93-7.68,0-10.61Z"/>
    <path class="cls-1" d="M268.22,25.42c-2.93-2.93-7.68-2.93-10.61,0l-33.67,33.67c-2.93,2.93-2.93,7.68,0,10.61,1.46,1.46,3.38,2.2,5.3,2.2s3.84-.73,5.3-2.2l33.67-33.67c2.93-2.93,2.93-7.68,0-10.61Z"/>
    <path class="cls-1" d="M282.27,18.87c1.92,0,3.84-.73,5.3-2.2l3.87-3.87c2.93-2.93,2.93-7.68,0-10.61-2.93-2.93-7.68-2.93-10.61,0l-3.87,3.87c-2.93,2.93-2.93,7.68,0,10.61,1.46,1.46,3.38,2.2,5.3,2.2Z"/>
  </g>
</svg>