<?xml version="1.0" encoding="UTF-8"?>
<svg id="OBJECT" xmlns="http://www.w3.org/2000/svg" viewBox="0 0 32 32">
  <defs>
    <style>
      .cls-1 {
        fill: #FD4360;
      }

      .cls-1, .cls-2 {
        stroke-width: 0px;
      }

      .cls-2 {
        fill: #dadada;
      }
    </style>
  </defs>
  <g>
    <path class="cls-2" d="m21.67,6h-8.17c-.55,0-1,.45-1,1s.45,1,1,1h8.17c.55,0,1-.45,1-1s-.45-1-1-1Z"/>
    <path class="cls-2" d="m15.5,10h-2c-.55,0-1,.45-1,1s.45,1,1,1h2c.55,0,1-.45,1-1s-.45-1-1-1Z"/>
    <path class="cls-2" d="m24.75,6h-.5c-.55,0-1,.45-1,1s.45,1,1,1h.5c.55,0,1-.45,1-1s-.45-1-1-1Z"/>
    <path class="cls-2" d="m7.25,8h3c.55,0,1-.45,1-1s-.45-1-1-1h-1.25v-.5c0-.55-.45-1-1-1s-1,.45-1,1v.53c-1.26.13-2.25,1.18-2.25,2.47,0,1.38,1.12,2.5,2.5,2.5h1.5c.28,0,.5.22.5.5s-.22.5-.5.5h-3c-.55,0-1,.45-1,1s.45,1,1,1h1.25v.5c0,.55.45,1,1,1s1-.45,1-1v-.53c1.26-.13,2.25-1.18,2.25-2.47,0-1.38-1.12-2.5-2.5-2.5h-1.5c-.28,0-.5-.22-.5-.5s.22-.5.5-.5Z"/>
    <path class="cls-2" d="m28,1H4c-1.65,0-3,1.35-3,3v15c0,1.65,1.35,3,3,3h9.28c.55,0,1-.45,1-1s-.45-1-1-1H4c-.55,0-1-.45-1-1V4c0-.55.45-1,1-1h24c.55,0,1,.45,1,1v15c0,.55.45,1,1,1s1-.45,1-1V4c0-1.65-1.35-3-3-3Z"/>
  </g>
  <circle class="cls-1" cx="22" cy="19.42" r="6"/>
  <path class="cls-1" d="m18,26.33v3.67c0,.38.21.72.55.89.34.17.74.13,1.05-.09l2.4-1.8,2.4,1.8c.18.13.39.2.6.2.15,0,.31-.04.45-.11.34-.17.55-.52.55-.89v-3.67c-1.18.68-2.54,1.08-4,1.08s-2.82-.4-4-1.08Z"/>
</svg>