<?xml version="1.0" encoding="UTF-8"?>
<svg id="OBJECT" xmlns="http://www.w3.org/2000/svg" viewBox="0 0 32 32">
  <defs>
    <style>
      .cls-1 {
        fill: #FD4360;
      }

      .cls-1, .cls-2 {
        stroke-width: 0px;
      }

      .cls-2 {
        fill: #dadada;
      }
    </style>
  </defs>
  <g>
    <path class="cls-2" d="m27,1H8c-2.21,0-4,1.79-4,4v16.5c0,.55.45,1,1,1s1-.45,1-1V5c0-1.1.9-2,2-2h2v12.5c0,.55.45,1,1,1s1-.45,1-1V3h14v18.5c0,.55.45,1,1,1s1-.45,1-1V2c0-.55-.45-1-1-1Z"/>
    <path class="cls-2" d="m11,18c-.55,0-1,.45-1,1v.5c0,.55.45,1,1,1s1-.45,1-1v-.5c0-.55-.45-1-1-1Z"/>
    <path class="cls-2" d="m21.5,5h-5c-1.38,0-2.5,1.12-2.5,2.5v5c0,1.38,1.12,2.5,2.5,2.5h5c1.38,0,2.5-1.12,2.5-2.5v-5c0-1.38-1.12-2.5-2.5-2.5Zm.5,7.5c0,.28-.22.5-.5.5h-5c-.28,0-.5-.22-.5-.5v-5c0-.28.22-.5.5-.5h5c.28,0,.5.22.5.5v5Z"/>
  </g>
  <path class="cls-1" d="m4,27v1c0,1.66,1.34,3,3,3h21v-2.5h-10c-.55,0-1-.45-1-1s.45-1,1-1h10v-2.5H7c-1.66,0-3,1.34-3,3Zm10-.5h1c.55,0,1,.45,1,1s-.45,1-1,1h-1c-.55,0-1-.45-1-1s.45-1,1-1Z"/>
</svg>