<?xml version="1.0" encoding="UTF-8"?>
<svg id="OBJECT" xmlns="http://www.w3.org/2000/svg" viewBox="0 0 32 32">
  <defs>
    <style>
      .cls-1 {
        fill: #FD4360;
      }

      .cls-2 {
        fill: #dadada;
      }
    </style>
  </defs>
  <path class="cls-2" d="m30,20h-1V5c0-.55-.45-1-1-1h-5c-.55,0-1,.45-1,1v1h-4c-.55,0-1,.45-1,1v13H2c-.55,0-1,.45-1,1v2.5c0,1.38,1.12,2.5,2.5,2.5h.5v4c0,.55.45,1,1,1h3c.48,0,.89-.34.98-.8l.84-4.2h12.36l.84,4.2c.09.47.5.8.98.8h3c.55,0,1-.45,1-1v-4h.5c1.38,0,2.5-1.12,2.5-2.5v-2.5c0-.55-.45-1-1-1Zm-6,0v-10h3v10h-3Zm3-14v2h-3v-2h3Zm-5,2v2h-3v-2h3Zm-3,4h3v8h-3v-8ZM7.18,29h-1.18v-3h1.78l-.6,3Zm18.82,0h-1.18l-.6-3h1.78v3Zm3-5.5c0,.28-.22.5-.5.5H3.5c-.28,0-.5-.22-.5-.5v-1.5h26v1.5Z"/>
  <g>
    <path class="cls-1" d="m16,1h-3c-1.64,0-3.09.81-4,2.03-.91-1.23-2.36-2.03-4-2.03h-3c-.55,0-1,.45-1,1v1c0,2.76,2.24,5,5,5h2v2h-3v2h8v-2h-3v-2h2c2.76,0,5-2.24,5-5v-1c0-.55-.45-1-1-1Z"/>
    <polygon class="cls-1" points="6 18 12 18 13 14 5 14 6 18"/>
  </g>
</svg>