<?xml version="1.0" encoding="UTF-8"?>
<svg id="OBJECT" xmlns="http://www.w3.org/2000/svg" viewBox="0 0 32 32">
  <defs>
    <style>
      .cls-1 {
        fill: #FD4360;
      }

      .cls-1, .cls-2 {
        stroke-width: 0px;
      }

      .cls-2 {
        fill: #dadada;
      }
    </style>
  </defs>
  <g>
    <path class="cls-2" d="m23,9h-14c-2.21,0-4,1.79-4,4v9c0,2.21,1.79,4,4,4h1.43l1.68,2.8c.81,1.36,2.3,2.2,3.89,2.2s3.07-.84,3.89-2.2l1.68-2.8h1.43c2.21,0,4-1.79,4-4v-9c0-2.21-1.79-4-4-4Zm2,13c0,1.1-.9,2-2,2h-2c-.35,0-.68.18-.86.49l-1.97,3.29c-.46.76-1.29,1.23-2.17,1.23s-1.72-.47-2.17-1.23l-1.06-1.77h2.23c.55,0,1-.45,1-1s-.45-1-1-1h-6c-1.1,0-2-.9-2-2v-9c0-1.1.9-2,2-2h14c1.1,0,2,.9,2,2v9Z"/>
    <path class="cls-2" d="m22.5,20h-13c-.55,0-1,.45-1,1s.45,1,1,1h13c.55,0,1-.45,1-1s-.45-1-1-1Z"/>
    <path class="cls-2" d="m22.5,16.5h-13c-.55,0-1,.45-1,1s.45,1,1,1h13c.55,0,1-.45,1-1s-.45-1-1-1Z"/>
    <path class="cls-2" d="m22.5,13h-9c-.55,0-1,.45-1,1s.45,1,1,1h9c.55,0,1-.45,1-1s-.45-1-1-1Z"/>
    <path class="cls-2" d="m9.5,15h.5c.55,0,1-.45,1-1s-.45-1-1-1h-.5c-.55,0-1,.45-1,1s.45,1,1,1Z"/>
  </g>
  <g>
    <path class="cls-1" d="m30,13.5h-1v8h1c.55,0,1-.45,1-1v-6c0-.55-.45-1-1-1Z"/>
    <path class="cls-1" d="m1,14.5v6c0,.55.45,1,1,1h1v-8h-1c-.55,0-1,.45-1,1Z"/>
    <path class="cls-1" d="m16,1c-1.38,0-2.5,1.12-2.5,2.5,0,1.02.62,1.9,1.5,2.29v1.21h2v-1.21c.88-.39,1.5-1.27,1.5-2.29,0-1.38-1.12-2.5-2.5-2.5Z"/>
    <path class="cls-1" d="m21.76,1.03l-1.76.44c-.54.13-.86.67-.73,1.21.11.46.52.76.97.76.08,0,.16,0,.24-.03l1.76-.44c.54-.13.86-.67.73-1.21-.13-.54-.67-.87-1.21-.73Z"/>
    <path class="cls-1" d="m22.24,5.03l-1.76-.44c-.53-.13-1.08.2-1.21.73-.13.54.2,1.08.73,1.21l1.76.44c.08.02.16.03.24.03.45,0,.86-.3.97-.76.13-.54-.2-1.08-.73-1.21Z"/>
    <path class="cls-1" d="m12,1.47l-1.76-.44c-.53-.13-1.08.2-1.21.73-.13.54.2,1.08.73,1.21l1.76.44c.08.02.16.03.24.03.45,0,.86-.3.97-.76.13-.54-.2-1.08-.73-1.21Z"/>
    <path class="cls-1" d="m11.52,4.59l-1.76.44c-.54.13-.86.67-.73,1.21.11.46.52.76.97.76.08,0,.16,0,.24-.03l1.76-.44c.54-.13.86-.67.73-1.21-.13-.54-.67-.86-1.21-.73Z"/>
  </g>
</svg>