<?xml version="1.0" encoding="UTF-8"?>
<svg id="OBJECT" xmlns="http://www.w3.org/2000/svg" viewBox="0 0 32 32">
  <defs>
    <style>
      .cls-1 {
        fill: #FD4360;
      }

      .cls-1, .cls-2 {
        stroke-width: 0px;
      }

      .cls-2 {
        fill: #dadada;
      }
    </style>
  </defs>
  <path class="cls-1" d="m30.66,7.17c-.38-.74-1.02-1.29-1.8-1.54l-2.34-.77c-1.62-.53-3.38.36-3.91,1.98l-.38,1.15s.09,0,.13.01l8,2.61s.07.04.11.06l.38-1.15c.26-.79.19-1.63-.18-2.37Z"/>
  <polygon class="cls-1" points="21.78 12.45 21.78 13.46 22.06 14.22 27.71 16.07 28.95 12.26 22.52 10.16 21.78 12.45"/>
  <path class="cls-1" d="m27.37,18.06l-4.43-1.45.57,1.54c.32.87.49,1.78.49,2.71v4.81l2.3.75s.01,0,.02.01l1.06-3.24c.19-.58.27-1.18.25-1.79l-.13-3.33s-.09,0-.13-.02Z"/>
  <path class="cls-1" d="m24,27.78v.72c0,.92-.28,1.78-.76,2.49.33,0,.67-.09.97-.24.54-.28.95-.75,1.14-1.33l.36-1.09s-.02,0-.03,0l-1.68-.55Z"/>
  <path class="cls-1" d="m30.66,7.17c-.38-.74-1.02-1.29-1.8-1.54l-2.34-.77c-1.62-.53-3.38.36-3.91,1.98l-.38,1.15s.09,0,.13.01l8,2.61s.07.04.11.06l.38-1.15c.26-.79.19-1.63-.18-2.37Z"/>
  <path class="cls-2" d="m21.64,18.84l-1.86-5.02v-5.82h.11c.55,0,1-.45,1-1v-2.55c0-1.9-1.55-3.45-3.45-3.45h-2.88c-1.9,0-3.45,1.55-3.45,3.45v2.55c0,.55.45,1,1,1h.11v5.82l-.63,1.71-.62-.78-1.5-4.59c.49-.19.76-.73.6-1.24l-.68-2.08c-.53-1.63-2.29-2.51-3.91-1.98l-2.34.77c-.79.26-1.43.81-1.8,1.54s-.44,1.58-.18,2.37l.68,2.08c.14.42.53.69.95.69.09,0,.18-.02.26-.04l1.5,4.59-.18,4.56c-.02.61.06,1.21.25,1.79l2.03,6.22c.19.58.59,1.05,1.14,1.33.33.17.68.25,1.03.25.24,0,.48-.04.71-.11l1.4-.46c.43.35.97.57,1.57.57h7c1.38,0,2.5-1.12,2.5-2.5v-7.64c0-.69-.12-1.37-.36-2.02Zm-1.64,2.02v4.14h-8v-4.13c0-.46.08-.91.24-1.34l1.68-4.53h4.16l1.68,4.54c.16.42.24.87.24,1.32ZM13.11,4.45c0-.8.65-1.45,1.45-1.45h2.88c.8,0,1.45.65,1.45,1.45v1.55h-5.78v-1.55Zm4.67,3.55v5h-3.56v-5h3.56Zm-11.59,7.45l-1.24-3.8,2.63-.86,1.24,3.8-2.62.86Zm-3.07-7.37c.13-.26.36-.46.64-.55l2.34-.77c.11-.04.23-.05.34-.05.46,0,.9.29,1.05.76l.37,1.13-4.44,1.45-.37-1.13c-.09-.28-.07-.58.06-.84Zm3.24,13.42l.16-4.05,3.2-1.05,1.05,1.33-.41,1.11c-.24.65-.36,1.34-.36,2.04v4.15l-2.43.79-1.06-3.24c-.11-.35-.17-.72-.15-1.09Zm2.54,7.5c-.09.03-.17,0-.22-.02-.05-.02-.11-.07-.14-.17l-.35-1.09,1.81-.59v1.37s.01.08.01.12l-1.11.36Zm10.59.01h-7c-.28,0-.5-.22-.5-.5v-1.5h8v1.5c0,.28-.22.5-.5.5Z"/>
</svg>