<?xml version="1.0" encoding="UTF-8"?>
<svg id="OBJECT" xmlns="http://www.w3.org/2000/svg" viewBox="0 0 32 32">
  <defs>
    <style>
      .cls-1 {
        fill: #FD4360;
      }

      .cls-1, .cls-2 {
        stroke-width: 0px;
      }

      .cls-2 {
        fill: #dadada;
      }
    </style>
  </defs>
  <g>
    <path class="cls-2" d="m28.5,11c-.55,0-1,.45-1,1v17H4.5V12c0-.55-.45-1-1-1s-1,.45-1,1v18c0,.55.45,1,1,1h25c.55,0,1-.45,1-1V12c0-.55-.45-1-1-1Z"/>
    <path class="cls-2" d="m9.5,27h13c1.38,0,2.5-1.12,2.5-2.5v-2c0-1.38-1.12-2.5-2.5-2.5h-13c-1.38,0-2.5,1.12-2.5,2.5v2c0,1.38,1.12,2.5,2.5,2.5Zm-.5-4.5c0-.28.22-.5.5-.5h13c.28,0,.5.22.5.5v2c0,.28-.22.5-.5.5h-13c-.28,0-.5-.22-.5-.5v-2Z"/>
  </g>
  <g>
    <path class="cls-1" d="m1,3v5h8V1H3c-1.1,0-2,.9-2,2Z"/>
    <path class="cls-1" d="m29,1h-6v7h8V3c0-1.1-.9-2-2-2Z"/>
    <rect class="cls-1" x="11" y="1" width="10" height="3"/>
    <path class="cls-1" d="m11,13c0,.35.18.67.47.85.29.18.66.2.97.04l3.55-1.78,3.55,1.78c.14.07.29.11.45.11.18,0,.37-.05.53-.15.29-.18.47-.5.47-.85v-7h-10v7Z"/>
  </g>
</svg>