<?xml version="1.0" encoding="UTF-8"?>
<svg id="OBJECT" xmlns="http://www.w3.org/2000/svg" viewBox="0 0 32 32">
  <defs>
    <style>
      .cls-1 {
        fill: #FD4360;
      }

      .cls-1, .cls-2 {
        stroke-width: 0px;
      }

      .cls-2 {
        fill: #dadada;
      }
    </style>
  </defs>
  <g>
    <path class="cls-2" d="m30,9c-.55,0-1,.45-1,1v18c0,.55-.45,1-1,1H4c-.55,0-1-.45-1-1V10c0-.55-.45-1-1-1s-1,.45-1,1v18c0,1.65,1.35,3,3,3h24c1.65,0,3-1.35,3-3V10c0-.55-.45-1-1-1Z"/>
    <path class="cls-2" d="m6,27h12c.55,0,1-.45,1-1v-5c0-.55-.45-1-1-1H6c-.55,0-1,.45-1,1v5c0,.55.45,1,1,1Zm1-5h10v3H7v-3Z"/>
    <path class="cls-2" d="m6,18h6c.55,0,1-.45,1-1s-.45-1-1-1h-6c-.55,0-1,.45-1,1s.45,1,1,1Z"/>
  </g>
  <g>
    <path class="cls-1" d="m1,3v4h15V1H3c-1.1,0-2,.9-2,2Z"/>
    <path class="cls-1" d="m18,12.38l2.55-1.28c.28-.14.61-.14.89,0l2.55,1.28V1h-6v11.38Z"/>
    <path class="cls-1" d="m29,1h-3v6h5V3c0-1.1-.9-2-2-2Z"/>
  </g>
</svg>