<?xml version="1.0" encoding="UTF-8"?>
<svg id="OBJECT" xmlns="http://www.w3.org/2000/svg" viewBox="0 0 32 32">
  <defs>
    <style>
      .cls-1 {
        fill: #FD4360;
      }

      .cls-1, .cls-2 {
        stroke-width: 0px;
      }

      .cls-2 {
        fill: #dadada;
      }
    </style>
  </defs>
  <path class="cls-1" d="m8.99,31h16c.83,0,1.5-.67,1.5-1.5v-2.5H7.49v2.5c0,.83.67,1.5,1.5,1.5Z"/>
  <path class="cls-2" d="m25,1h-14c-1.65,0-3,1.35-3,3v1h-1c-1.65,0-3,1.35-3,3v8.98c0,.96.46,1.87,1.24,2.43l4.29,3.1v1.49c0,.55.45,1,1,1s1-.45,1-1v-2c0-.32-.15-.62-.41-.81l-4.71-3.4c-.26-.19-.41-.49-.41-.81v-8.98c0-.55.45-1,1-1h8.92c.55,0,1,.45,1,1v2c0,.55-.45,1-1,1h-4.46c-.55,0-1,.45-1,1v6c0,.55.45,1,1,1s1-.45,1-1v-1h12.54c.35,0,.69-.07,1-.18v1.26c0,.29-.13.57-.35.76l-2.83,2.4c-.22.19-.35.47-.35.76v2c0,.55.45,1,1,1s1-.45,1-1v-1.54l2.48-2.1c.67-.57,1.06-1.4,1.06-2.29V4c0-1.65-1.35-3-3-3Zm0,14h-12.54v-2h3.46c1.65,0,3-1.35,3-3v-2c0-1.65-1.35-3-3-3h-5.92v-1c0-.55.45-1,1-1h14c.55,0,1,.45,1,1v10c0,.55-.45,1-1,1Z"/>
</svg>