<?xml version="1.0" encoding="UTF-8"?>
<svg id="OBJECT" xmlns="http://www.w3.org/2000/svg" viewBox="0 0 32 32">
  <defs>
    <style>
      .cls-1 {
        fill: #FD4360;
      }

      .cls-1, .cls-2 {
        stroke-width: 0px;
      }

      .cls-2 {
        fill: #dadada;
      }
    </style>
  </defs>
  <path class="cls-2" d="m26.99,9.33c0-.1.01-.2.01-.3,0-1.21-.54-2.41-1.54-3.39-1.33-1.3-2.5-1.64-3.5-1.64-.24-1.69-1.7-3-3.46-3-.98,0-1.86.4-2.5,1.05-.64-.65-1.52-1.05-2.5-1.05-1.76,0-3.22,1.31-3.46,3h-.04c-.98,0-2.15.36-3.46,1.64-1,.98-1.54,2.18-1.54,3.39,0,.1,0,.2.01.3-2.46,1.77-4.01,5.09-4.01,8.67,0,5.51,3.59,10,8,10,.35,0,.7-.04,1.04-.1.2,1.74,1.67,3.1,3.46,3.1.98,0,1.86-.4,2.5-1.05.64.65,1.52,1.05,2.5,1.05,1.79,0,3.26-1.36,3.46-3.1.35.06.69.1,1.04.1,4.41,0,8-4.49,8-10,0-3.58-1.56-6.9-4.01-8.67Zm-3.99,16.67c-.33,0-.67-.05-1-.13v-3.87c0-.55-.45-1-1-1s-1,.45-1,1v5.5c0,.83-.67,1.5-1.5,1.5s-1.5-.67-1.5-1.5v-4.5c0-.55-.45-1-1-1s-1,.45-1,1v4.5c0,.83-.67,1.5-1.5,1.5s-1.5-.67-1.5-1.5v-5.5c0-.55-.45-1-1-1s-1,.45-1,1v3.87c-.33.08-.67.13-1,.13-3.31,0-6-3.59-6-8,0-3.16,1.41-6.03,3.59-7.31.37-.22.56-.65.47-1.07-.04-.2-.06-.4-.07-.6,0-.89.58-1.6.94-1.95,1.26-1.23,2.08-1.15,2.81-.96.3.08.62.01.86-.18.24-.19.39-.48.39-.79v-.64c0-.83.67-1.5,1.5-1.5s1.5.67,1.5,1.5v.5c0,.55.45,1,1,1s1-.45,1-1v-.5c0-.83.67-1.5,1.5-1.5s1.5.67,1.5,1.5v.64c0,.31.14.6.39.79.25.19.56.25.86.18.73-.19,1.55-.27,2.81.96.35.34.94,1.06.94,1.95,0,.2-.02.4-.07.6-.09.42.1.85.47,1.07,2.18,1.29,3.59,4.16,3.59,7.31,0,4.41-2.69,8-6,8Z"/>
  <path class="cls-1" d="m23,14c0-3.86-3.14-7-7-7s-7,3.14-7,7,3.14,7,7,7,7-3.14,7-7Zm-3.54-.96l-3.32,3.32c-.2.2-.45.29-.71.29s-.51-.1-.71-.29l-2.18-2.18c-.39-.39-.39-1.02,0-1.41s1.02-.39,1.41,0l1.47,1.47,2.62-2.62c.39-.39,1.02-.39,1.41,0s.39,1.02,0,1.41Z"/>
</svg>