<?xml version="1.0" encoding="UTF-8"?>
<svg id="OBJECT" xmlns="http://www.w3.org/2000/svg" viewBox="0 0 32 32">
  <defs>
    <style>
      .cls-1 {
        fill: #FD4360;
      }

      .cls-1, .cls-2 {
        stroke-width: 0px;
      }

      .cls-2 {
        fill: #dadada;
      }
    </style>
  </defs>
  <g>
    <path class="cls-2" d="m28,17h-1.59c-.2-.77-.38-1.27-.41-1.35-.15-.39-.52-.65-.94-.65h-14.11c-.42,0-.79.26-.94.65-.12.31-2.78,7.69,1.08,11.5.55.54,1.31.85,2.1.85h9.63c.79,0,1.55-.31,2.1-.85.36-.35.64-.74.9-1.15h2.19c1.65,0,3-1.35,3-3v-3c0-1.65-1.35-3-3-3Zm-4.49,8.73c-.18.17-.43.27-.7.27h-9.63c-.27,0-.52-.1-.7-.27-2.38-2.35-1.32-7.01-.81-8.73h12.66c.5,1.72,1.57,6.38-.81,8.73Zm5.49-2.73c0,.55-.45,1-1,1h-1.33c.44-1.69.37-3.49.15-5h1.19c.55,0,1,.45,1,1v3Z"/>
    <path class="cls-2" d="m28,29H8c-.55,0-1,.45-1,1s.45,1,1,1h20c.55,0,1-.45,1-1s-.45-1-1-1Z"/>
    <path class="cls-2" d="m13.5,18h-.5c-.55,0-1,.45-1,1s.45,1,1,1h.5c.55,0,1-.45,1-1s-.45-1-1-1Z"/>
    <path class="cls-2" d="m17.5,18h-.5c-.55,0-1,.45-1,1s.45,1,1,1h.5c.55,0,1-.45,1-1s-.45-1-1-1Z"/>
  </g>
  <path class="cls-1" d="m14.5,7.75c0-3.72-3.03-6.75-6.75-6.75S1,4.03,1,7.75s3.03,6.75,6.75,6.75,6.75-3.03,6.75-6.75Zm-7.75,0v-2.46c0-.55.45-1,1-1s1,.45,1,1v2.05l1.35,1.35c.39.39.39,1.02,0,1.41-.2.2-.45.29-.71.29s-.51-.1-.71-.29l-1.64-1.64c-.19-.19-.29-.44-.29-.71Z"/>
</svg>