<?xml version="1.0" encoding="UTF-8"?>
<svg id="OBJECT" xmlns="http://www.w3.org/2000/svg" viewBox="0 0 32 32">
  <defs>
    <style>
      .cls-1 {
        fill: #FD4360;
      }

      .cls-1, .cls-2 {
        stroke-width: 0px;
      }

      .cls-2 {
        fill: #dadada;
      }
    </style>
  </defs>
  <path class="cls-2" d="m28.5,7h-5.5v-2c0-2.21-1.79-4-4-4h-6c-2.21,0-4,1.79-4,4v2H3.5c-1.38,0-2.5,1.12-2.5,2.5v8.5c0,.47.33.88.79.98l14,3c.07.01.14.02.21.02s.14,0,.21-.02l14-3c.46-.1.79-.51.79-.98v-8.5c0-1.38-1.12-2.5-2.5-2.5Zm.5,2.5v3.5h-1c-1.65,0-3-1.35-3-3v-1h3.5c.28,0,.5.22.5.5ZM11,5c0-1.1.9-2,2-2h6c1.1,0,2,.9,2,2v2h-10v-2Zm-7.5,4h3.5v1c0,1.65-1.35,3-3,3h-1v-3.5c0-.28.22-.5.5-.5Zm12.5,10.98l-13-2.79v-2.19h1c2.76,0,5-2.24,5-5v-1h14v1c0,2.76,2.24,5,5,5h1v2.19l-13,2.79Z"/>
  <g>
    <path class="cls-1" d="m14.5,27h3c.55,0,1-.45,1-1v-2.51l-2.29.49c-.07.01-.14.02-.21.02s-.14,0-.21-.02l-2.29-.49v2.51c0,.55.45,1,1,1Z"/>
    <path class="cls-1" d="m20.5,23.06v2.94c0,1.66-1.34,3-3,3h-3c-1.66,0-3-1.34-3-3v-2.94l-9.5-2.04v7.98c0,1.1.9,2,2,2h24c1.1,0,2-.9,2-2v-7.98l-9.5,2.04Z"/>
  </g>
</svg>