<?xml version="1.0" encoding="UTF-8"?>
<svg id="OBJECT" xmlns="http://www.w3.org/2000/svg" viewBox="0 0 32 32">
  <defs>
    <style>
      .cls-1 {
        fill: #FD4360;
      }

      .cls-1, .cls-2 {
        stroke-width: 0px;
      }

      .cls-2 {
        fill: #dadada;
      }
    </style>
  </defs>
  <path class="cls-2" d="m28.5,6h-4.5v-2.5c0-1.38-1.12-2.5-2.5-2.5h-11c-1.38,0-2.5,1.12-2.5,2.5v2.5H3.5c-1.38,0-2.5,1.12-2.5,2.5v8.5c0,.45.3.84.73.96l13.45,3.84c.27.08.55.12.82.12s.55-.04.82-.12l13.45-3.84c.43-.12.73-.52.73-.96v-8.5c0-1.38-1.12-2.5-2.5-2.5ZM10,3.5c0-.28.22-.5.5-.5h11c.28,0,.5.22.5.5v2.5h-12v-2.5Zm-6.5,4.5h25c.28,0,.5.22.5.5v2.75l-13,3.71-13-3.71v-2.75c0-.28.22-.5.5-.5Zm12.77,11.88c-.18.05-.37.05-.55,0l-12.73-3.63v-2.92l12.73,3.64c.09.03.18.04.27.04s.19-.01.27-.04l12.73-3.64v2.92l-12.73,3.63Z"/>
  <g>
    <path class="cls-1" d="m19.5,23.04v2.46c0,1.38-1.12,2.5-2.5,2.5h-2c-1.38,0-2.5-1.12-2.5-2.5v-2.46l-10.5-3v8.46c0,1.38,1.12,2.5,2.5,2.5h23c1.38,0,2.5-1.12,2.5-2.5v-8.46l-10.5,3Zm-12,5.96h-1c-.55,0-1-.45-1-1s.45-1,1-1h1c.55,0,1,.45,1,1s-.45,1-1,1Zm18,0h-1c-.55,0-1-.45-1-1s.45-1,1-1h1c.55,0,1,.45,1,1s-.45,1-1,1Z"/>
    <path class="cls-1" d="m15,26h2c.28,0,.5-.22.5-.5v-1.89l-1.23.35c-.09.03-.18.04-.27.04s-.19-.01-.27-.04l-1.23-.35v1.89c0,.28.22.5.5.5Z"/>
  </g>
</svg>