<?xml version="1.0" encoding="UTF-8"?>
<svg id="OBJECT" xmlns="http://www.w3.org/2000/svg" viewBox="0 0 32 32">
  <defs>
    <style>
      .cls-1 {
        fill: #FD4360;
      }

      .cls-1, .cls-2 {
        stroke-width: 0px;
      }

      .cls-2 {
        fill: #dadada;
      }
    </style>
  </defs>
  <g>
    <path class="cls-2" d="m30,18.5c-.55,0-1,.45-1,1v9c0,.28-.22.5-.5.5H3.5c-.28,0-.5-.22-.5-.5v-1.5h18c.55,0,1-.45,1-1s-.45-1-1-1H3v-5.5c0-.55-.45-1-1-1s-1,.45-1,1v9c0,1.38,1.12,2.5,2.5,2.5h25c1.38,0,2.5-1.12,2.5-2.5v-9c0-.55-.45-1-1-1Z"/>
    <path class="cls-2" d="m24,27h1c.55,0,1-.45,1-1s-.45-1-1-1h-1c-.55,0-1,.45-1,1s.45,1,1,1Z"/>
  </g>
  <g>
    <path class="cls-1" d="m16.61,16.55h-1.22c-.34,0-.61.27-.61.61v2.44c0,.34.27.61.61.61h1.22c.34,0,.61-.27.61-.61v-2.44c0-.34-.27-.61-.61-.61Z"/>
    <path class="cls-1" d="m29.5,7h-4.5v-3c0-1.65-1.35-3-3-3h-12c-1.65,0-3,1.35-3,3v3H2.5c-.83,0-1.5.67-1.5,1.5v8.5h11.6c.27-1.42,1.43-2.5,2.83-2.5h1.15c1.39,0,2.56,1.08,2.83,2.5h11.6v-8.5c0-.83-.67-1.5-1.5-1.5Zm-20.5,0v-3c0-.55.45-1,1-1h12c.55,0,1,.45,1,1v3h-14Z"/>
  </g>
</svg>