<?xml version="1.0" encoding="UTF-8"?>
<svg id="OBJECT" xmlns="http://www.w3.org/2000/svg" viewBox="0 0 32 32">
  <defs>
    <style>
      .cls-1 {
        fill: #FD4360;
      }

      .cls-1, .cls-2 {
        stroke-width: 0px;
      }

      .cls-2 {
        fill: #dadada;
      }
    </style>
  </defs>
  <g>
    <path class="cls-2" d="m30,7h-5v-3c0-1.65-1.35-3-3-3h-12c-1.65,0-3,1.35-3,3v3H2c-.55,0-1,.45-1,1v9c0,.45.3.84.73.96l14,4c.09.03.18.04.27.04s.18-.01.27-.04l14-4c.43-.12.73-.52.73-.96v-9c0-.55-.45-1-1-1Zm-21-3c0-.55.45-1,1-1h12c.55,0,1,.45,1,1v3h-14v-3Zm20,12.25l-13,3.71-13-3.71v-7.25h26v7.25Z"/>
    <path class="cls-2" d="m11,13h10c.55,0,1-.45,1-1s-.45-1-1-1h-10c-.55,0-1,.45-1,1s.45,1,1,1Z"/>
    <path class="cls-2" d="m6,13h1c.55,0,1-.45,1-1s-.45-1-1-1h-1c-.55,0-1,.45-1,1s.45,1,1,1Z"/>
    <path class="cls-2" d="m25,13h1c.55,0,1-.45,1-1s-.45-1-1-1h-1c-.55,0-1,.45-1,1s.45,1,1,1Z"/>
  </g>
  <g>
    <path class="cls-1" d="m22.5,26h1c.28,0,.5-.22.5-.5v-3.75l-2,.57v3.17c0,.28.22.5.5.5Z"/>
    <path class="cls-1" d="m26,21.18v4.32c0,1.38-1.12,2.5-2.5,2.5h-1c-1.38,0-2.5-1.12-2.5-2.5v-2.6l-3.73,1.06c-.09.03-.18.04-.27.04s-.18-.01-.27-.04l-3.73-1.06v2.6c0,1.38-1.12,2.5-2.5,2.5h-1c-1.38,0-2.5-1.12-2.5-2.5v-4.32l-4-1.14v8.96c0,1.1.9,2,2,2h24c1.1,0,2-.9,2-2v-8.96l-4,1.14Z"/>
    <path class="cls-1" d="m8.5,26h1c.28,0,.5-.22.5-.5v-3.17l-2-.57v3.75c0,.28.22.5.5.5Z"/>
  </g>
</svg>