<?xml version="1.0" encoding="UTF-8"?>
<svg id="OBJECT" xmlns="http://www.w3.org/2000/svg" viewBox="0 0 32 32">
  <defs>
    <style>
      .cls-1 {
        fill: #FD4360;
      }

      .cls-1, .cls-2 {
        stroke-width: 0px;
      }

      .cls-2 {
        fill: #dadada;
      }
    </style>
  </defs>
  <g>
    <path class="cls-2" d="m18,10.28h-4c-.55,0-1,.45-1,1s.45,1,1,1h4c.55,0,1-.45,1-1s-.45-1-1-1Z"/>
    <path class="cls-2" d="m30,6h-5.5v-2c0-1.65-1.35-3-3-3h-11c-1.65,0-3,1.35-3,3v2H2c-.55,0-1,.45-1,1v10c0,2.21,1.79,4,4,4h1v2c0,.27.11.52.29.71l2,2c.2.2.45.29.71.29s.51-.1.71-.29l2-2c.19-.19.29-.44.29-.71v-2h8v2c0,.27.11.52.29.71l2,2c.2.2.45.29.71.29s.51-.1.71-.29l2-2c.19-.19.29-.44.29-.71v-2h1c2.21,0,4-1.79,4-4V7c0-.55-.45-1-1-1Zm-20.5-2c0-.55.45-1,1-1h11c.55,0,1,.45,1,1v2h-13v-2Zm-4.5,15c-1.1,0-2-.9-2-2v-9h3v11h-1Zm4,4.59l-1-1v-14.59h2v14.59l-1,1Zm3-4.59v-11h8v11h-8Zm11,4.59l-1-1v-14.59h2v14.59l-1,1Zm6-6.59c0,1.1-.9,2-2,2h-1v-11h3v9Z"/>
  </g>
  <path class="cls-1" d="m29,22.65v.35c0,1.07-.42,2.07-1.17,2.83l-2,2c-.76.76-1.76,1.17-2.83,1.17s-2.07-.42-2.83-1.17l-2-2c-.76-.75-1.17-1.76-1.17-2.83h-2c0,1.07-.42,2.07-1.17,2.83l-2,2c-.76.76-1.76,1.17-2.83,1.17s-2.07-.42-2.83-1.17l-2-2c-.76-.75-1.17-1.76-1.17-2.83v-.35c-.17-.06-.34-.13-.5-.2v5.55c0,1.65,1.35,3,3,3h21c1.65,0,3-1.35,3-3v-5.55c-.16.07-.33.14-.5.2Z"/>
</svg>