<?xml version="1.0" encoding="UTF-8"?>
<svg id="OBJECT" xmlns="http://www.w3.org/2000/svg" viewBox="0 0 32 32">
  <defs>
    <style>
      .cls-1 {
        fill: #FD4360;
      }

      .cls-1, .cls-2 {
        stroke-width: 0px;
      }

      .cls-2 {
        fill: #dadada;
      }
    </style>
  </defs>
  <path class="cls-2" d="m30,7h-10.76l-5.79-2.89c-.14-.07-.29-.11-.45-.11H2c-.55,0-1,.45-1,1v19c0,.55.45,1,1,1h10.76l5.79,2.89c.14.07.29.11.45.11h11c.55,0,1-.45,1-1V8c0-.55-.45-1-1-1Zm-16-.38l4,2v16.76l-4-2V6.62Zm-2-.62v3H3v-3h9ZM3,11h9v12H3v-12Zm26,15h-9V9h9v17Z"/>
  <g>
    <path class="cls-1" d="m10,14h-5c-.55,0-1,.45-1,1s.45,1,1,1h5c.55,0,1-.45,1-1s-.45-1-1-1Z"/>
    <path class="cls-1" d="m10,18h-5c-.55,0-1,.45-1,1s.45,1,1,1h5c.55,0,1-.45,1-1s-.45-1-1-1Z"/>
    <rect class="cls-1" x="21.5" y="10.5" width="6" height="10" rx="1" ry="1"/>
    <path class="cls-1" d="m26.5,22.5h-4c-.55,0-1,.45-1,1s.45,1,1,1h4c.55,0,1-.45,1-1s-.45-1-1-1Z"/>
  </g>
</svg>