<?xml version="1.0" encoding="UTF-8"?>
<svg id="OBJECT" xmlns="http://www.w3.org/2000/svg" viewBox="0 0 32 32">
  <defs>
    <style>
      .cls-1 {
        fill: #FD4360;
      }

      .cls-1, .cls-2 {
        stroke-width: 0px;
      }

      .cls-2 {
        fill: #dadada;
      }
    </style>
  </defs>
  <g>
    <path class="cls-2" d="m28,1H4c-1.65,0-3,1.35-3,3v15c0,1.65,1.35,3,3,3h8v2.5h-2.2c-1.18,0-2.26.7-2.74,1.78l-1.21,2.72h-2.85c-.55,0-1,.45-1,1s.45,1,1,1h26c.55,0,1-.45,1-1s-.45-1-1-1h-2.85l-1.21-2.72c-.48-1.08-1.56-1.78-2.74-1.78h-2.2v-2.5h8c1.65,0,3-1.35,3-3V4c0-1.65-1.35-3-3-3Zm-4.89,26.09l.85,1.91h-15.92l.85-1.91c.16-.36.52-.59.91-.59h12.4c.4,0,.75.23.91.59Zm-5.11-2.59h-4v-2.5h4v2.5Zm11-5.5c0,.55-.45,1-1,1H4c-.55,0-1-.45-1-1V4c0-.55.45-1,1-1h24c.55,0,1,.45,1,1v15Z"/>
    <path class="cls-2" d="m6,4h-1c-.55,0-1,.45-1,1s.45,1,1,1h1c.55,0,1-.45,1-1s-.45-1-1-1Z"/>
    <path class="cls-2" d="m27,4h-1c-.55,0-1,.45-1,1s.45,1,1,1h1c.55,0,1-.45,1-1s-.45-1-1-1Z"/>
  </g>
  <g>
    <path class="cls-1" d="m17,16.18c0,.55-.45,1-1,1s-1-.45-1-1v-4.62h-1.59v4.62c0,1.43,1.16,2.59,2.59,2.59s2.59-1.16,2.59-2.59v-4.62h-1.59v4.62Z"/>
    <path class="cls-1" d="m17.56,8.01c0-.86-.7-1.56-1.56-1.56s-1.56.7-1.56,1.56v1.55h3.13v-1.55Z"/>
    <path class="cls-1" d="m22.47,9.99l.93-1.96c.24-.5.03-1.09-.47-1.33-.5-.23-1.1-.03-1.33.47l-.66,1.39h-1.35s-.02,0-.03,0v1.99s.02,0,.03,0h1.98c.39,0,.74-.22.9-.57Z"/>
    <path class="cls-1" d="m11.06,8.56l-.66-1.39c-.24-.5-.83-.71-1.33-.47-.5.24-.71.83-.47,1.33l.93,1.96c.17.35.52.57.9.57h1.98s.02,0,.03,0v-1.99s-.02,0-.03,0h-1.35Z"/>
    <path class="cls-1" d="m22.47,15.56c-.17-.35-.52-.57-.9-.57h-.98v1.18c0,.28-.03.55-.08.82h.43l.66,1.39c.17.36.53.57.9.57.14,0,.29-.03.43-.1.5-.24.71-.83.47-1.33l-.93-1.96Z"/>
    <path class="cls-1" d="m22.5,11.78h-1.91v2h1.91c.55,0,1-.45,1-1s-.45-1-1-1Z"/>
    <path class="cls-1" d="m11.41,14.99h-.98c-.39,0-.74.22-.9.57l-.93,1.96c-.24.5-.03,1.09.47,1.33.14.07.29.1.43.1.37,0,.73-.21.9-.57l.66-1.39h.43c-.05-.27-.08-.54-.08-.82v-1.18Z"/>
    <path class="cls-1" d="m9.5,13.78h1.91v-2h-1.91c-.55,0-1,.45-1,1s.45,1,1,1Z"/>
    <path class="cls-1" d="m13.92,5.12l-.76-.76c-.39-.39-1.02-.39-1.41,0s-.39,1.02,0,1.41l.94.94c.25-.64.68-1.19,1.24-1.59Z"/>
    <path class="cls-1" d="m20.28,4.34c-.39-.39-1.02-.39-1.41,0l-.79.79c.55.4.98.95,1.24,1.59l.96-.96c.39-.39.39-1.02,0-1.41Z"/>
  </g>
</svg>