<?xml version="1.0" encoding="UTF-8"?>
<svg id="OBJECT" xmlns="http://www.w3.org/2000/svg" viewBox="0 0 32 32">
  <defs>
    <style>
      .cls-1 {
        fill: #FD4360;
      }

      .cls-1, .cls-2 {
        stroke-width: 0px;
      }

      .cls-2 {
        fill: #dadada;
      }
    </style>
  </defs>
  <g>
    <path class="cls-2" d="m30,14H2c-.55,0-1,.45-1,1v3c0,.55.45,1,1,1h2.39c.28,1.09.71,2.13,1.28,3.09l-1.68,1.69c-.39.39-.39,1.02,0,1.41l2.83,2.83c.39.39,1.02.39,1.41,0l1.69-1.68c.97.57,2,1,3.09,1.28v2.39c0,.55.45,1,1,1h4c.55,0,1-.45,1-1v-2.39c1.09-.28,2.13-.71,3.09-1.28l1.69,1.68c.39.39,1.02.39,1.41,0l2.83-2.83c.39-.39.39-1.02,0-1.41l-1.68-1.69c.57-.97,1-2,1.28-3.09h2.39c.55,0,1-.45,1-1v-3c0-.55-.45-1-1-1Zm-8,2c0,3.31-2.69,6-6,6s-6-2.69-6-6h12Zm7,1h-2.19c-.48,0-.9.34-.98.82-.26,1.39-.79,2.69-1.59,3.84-.27.4-.22.93.12,1.27l1.55,1.55-1.41,1.41-1.55-1.55c-.34-.34-.88-.39-1.27-.12-1.16.8-2.45,1.33-3.84,1.59-.47.09-.82.5-.82.98v2.19h-2v-2.19c0-.48-.34-.9-.82-.98-1.39-.26-2.69-.79-3.84-1.59-.4-.27-.93-.22-1.27.12l-1.55,1.55-1.41-1.41,1.55-1.55c.34-.34.39-.88.12-1.27-.8-1.16-1.33-2.45-1.59-3.84-.09-.47-.5-.82-.98-.82h-2.19v-1h5c0,4.41,3.59,8,8,8s8-3.59,8-8h5v1Z"/>
    <path class="cls-2" d="m13.75,19h.5c.55,0,1-.45,1-1s-.45-1-1-1h-.5c-.55,0-1,.45-1,1s.45,1,1,1Z"/>
    <path class="cls-2" d="m17.75,19h.5c.55,0,1-.45,1-1s-.45-1-1-1h-.5c-.55,0-1,.45-1,1s.45,1,1,1Z"/>
  </g>
  <g>
    <rect class="cls-1" x="23" y="5" width="3" height="8"/>
    <rect class="cls-1" x="6" y="5" width="3" height="8"/>
    <path class="cls-1" d="m20,1h-8c-.55,0-1,.45-1,1v11h10V2c0-.55-.45-1-1-1Zm-3,10.5h-2c-.55,0-1-.45-1-1s.45-1,1-1h2c.55,0,1,.45,1,1s-.45,1-1,1Zm0-3h-2c-.55,0-1-.45-1-1s.45-1,1-1h2c.55,0,1,.45,1,1s-.45,1-1,1Zm0-3h-2c-.55,0-1-.45-1-1s.45-1,1-1h2c.55,0,1,.45,1,1s-.45,1-1,1Z"/>
  </g>
</svg>