<?xml version="1.0" encoding="UTF-8"?>
<svg id="OBJECT" xmlns="http://www.w3.org/2000/svg" viewBox="0 0 32 32">
  <defs>
    <style>
      .cls-1 {
        fill: #FD4360;
      }

      .cls-1, .cls-2 {
        stroke-width: 0px;
      }

      .cls-2 {
        fill: #dadada;
      }
    </style>
  </defs>
  <path class="cls-1" d="m16,18.52c3.86,0,7-3.14,7-7s-3.14-7-7-7-7,3.14-7,7,3.14,7,7,7Zm.56-6h-1.11c-1.16,0-2.11-.95-2.11-2.11,0-1.01.72-1.86,1.67-2.06v-.16c0-.55.45-1,1-1s1,.45,1,1v.11h.67c.55,0,1,.45,1,1s-.45,1-1,1h-2.22c-.06,0-.11.05-.11.11s.05.11.11.11h1.11c1.16,0,2.11.95,2.11,2.11,0,1.01-.72,1.86-1.67,2.06v.16c0,.55-.45,1-1,1s-1-.45-1-1v-.11h-.67c-.55,0-1-.45-1-1s.45-1,1-1h2.22c.06,0,.11-.05.11-.11s-.05-.11-.11-.11Z"/>
  <g>
    <path class="cls-2" d="m25.95,6.72c.27,0,.54-.11.74-.32l1.97-2.14c.37-.41.35-1.04-.06-1.41-.41-.37-1.04-.35-1.41.06l-1.97,2.14c-.37.41-.35,1.04.06,1.41.19.18.43.26.68.26Z"/>
    <path class="cls-2" d="m21.96,4.41s.03,0,.04,0c.55-.02.98-.49.96-1.04l-.06-1.41c-.02-.55-.47-.99-1.04-.96-.55.02-.98.49-.96,1.04l.06,1.41c.02.54.47.96,1,.96Z"/>
    <path class="cls-2" d="m29.96,8.44l-1.41.06c-.55.02-.98.49-.96,1.04.02.54.47.96,1,.96.01,0,.03,0,.04,0l1.41-.06c.55-.02.98-.49.96-1.04-.02-.55-.49-.99-1.04-.96Z"/>
    <path class="cls-2" d="m5.31,6.4c.2.21.47.32.74.32.24,0,.48-.09.68-.26.41-.37.43-1.01.06-1.41l-1.97-2.14c-.37-.41-1-.43-1.41-.06-.41.37-.43,1.01-.06,1.41l1.97,2.14Z"/>
    <path class="cls-2" d="m10,4.41s.03,0,.04,0c.53,0,.98-.42,1-.96l.06-1.41c.02-.55-.4-1.02-.96-1.04-.56-.04-1.02.4-1.04.96l-.06,1.41c-.02.55.4,1.02.96,1.04Z"/>
    <path class="cls-2" d="m3.46,8.5l-1.41-.06c-.54-.03-1.02.41-1.04.96-.02.55.41,1.02.96,1.04l1.41.06s.03,0,.04,0c.53,0,.98-.42,1-.96.02-.55-.41-1.02-.96-1.04Z"/>
    <path class="cls-2" d="m23.08,17.03c-.48-.27-1.09-.1-1.36.38-.27.48-.1,1.09.38,1.36,2.1,1.19,3.4,3.43,3.4,5.84v3.73c0,.37-.29.66-.66.66h-2.9v-4.46c0-.55-.45-1-1-1s-1,.45-1,1v4.46h-7.95v-4.46c0-.55-.45-1-1-1s-1,.45-1,1v4.46h-2.83c-.37,0-.66-.29-.66-.66v-3.73c0-2.41,1.3-4.65,3.4-5.84.48-.27.65-.88.38-1.36-.27-.48-.88-.65-1.36-.38-2.72,1.55-4.42,4.45-4.42,7.58v3.73c0,1.47,1.19,2.66,2.66,2.66h17.68c1.47,0,2.66-1.19,2.66-2.66v-3.73c0-3.13-1.69-6.03-4.42-7.58Z"/>
  </g>
</svg>