<?xml version="1.0" encoding="UTF-8"?>
<svg id="OBJECT" xmlns="http://www.w3.org/2000/svg" viewBox="0 0 32 32">
  <defs>
    <style>
      .cls-1 {
        fill: #FD4360;
      }

      .cls-1, .cls-2 {
        stroke-width: 0px;
      }

      .cls-2 {
        fill: #dadada;
      }
    </style>
  </defs>
  <g>
    <path class="cls-2" d="m24,16h-8c-1.65,0-3-1.35-3-3v-4.5c0-1.65,1.35-3,3-3h4c.55,0,1-.45,1-1s-.45-1-1-1h-4c-2.76,0-5,2.24-5,5v4.5c0,2.76,2.24,5,5,5h8c1.1,0,2,.9,2,2v3c0,1.1-.9,2-2,2h-8c-.55,0-1,.45-1,1s.45,1,1,1h8c2.21,0,4-1.79,4-4v-3c0-2.21-1.79-4-4-4Z"/>
    <path class="cls-2" d="m30,1h-6c-.55,0-1,.45-1,1v10c0,.55.45,1,1,1s1-.45,1-1v-4h5c.55,0,1-.45,1-1V2c0-.55-.45-1-1-1Zm-1,5h-4v-3h4v3Z"/>
  </g>
  <g>
    <path class="cls-1" d="m12.02,23.73c-.86,1.92-2.78,3.27-5.02,3.27s-4.17-1.35-5.02-3.27c-.62.94-.98,2.06-.98,3.27v1c0,1.65,1.35,3,3,3h6c1.65,0,3-1.35,3-3v-1c0-1.21-.36-2.33-.98-3.27Z"/>
    <path class="cls-1" d="m7,25c1.93,0,3.5-1.57,3.5-3.5v-1.5c0-1.65-1.35-3-3-3h-1c-1.65,0-3,1.35-3,3v1.5c0,1.93,1.57,3.5,3.5,3.5Z"/>
  </g>
</svg>