<?xml version="1.0" encoding="UTF-8"?>
<svg id="OBJECT" xmlns="http://www.w3.org/2000/svg" viewBox="0 0 32 32">
  <defs>
    <style>
      .cls-1 {
        fill: #FD4360;
      }

      .cls-2 {
        fill: #dadada;
      }
    </style>
  </defs>
  <path class="cls-2" d="M30.71,6.24L25.76,1.29c-.39-.39-1.02-.39-1.41,0s-.39,1.02,0,1.41l.35,.35-1.3,1.3c-2.28-1.49-4.99-2.36-7.9-2.36C7.5,2,1,8.5,1,16.5s6.5,14.5,14.5,14.5,14.5-6.5,14.5-14.5c0-2.91-.87-5.62-2.36-7.9l1.3-1.3,.35,.35c.2,.2,.45,.29,.71,.29s.51-.1,.71-.29c.39-.39,.39-1.02,0-1.41ZM15.5,29c-6.89,0-12.5-5.61-12.5-12.5S8.61,4,15.5,4s12.5,5.61,12.5,12.5-5.61,12.5-12.5,12.5ZM26.42,6.99c-.44-.5-.91-.98-1.41-1.41l1.1-1.1,1.41,1.41-1.1,1.1Z"/>
  <g>
    <path class="cls-1" d="M15.5,5.5c-6.07,0-11,4.93-11,11s4.93,11,11,11,11-4.93,11-11S21.57,5.5,15.5,5.5Zm5.96,6.29l-1.95,6.55c-.31,1.05-1.12,1.86-2.17,2.17l-6.55,1.95c-.09,.03-.19,.04-.29,.04-.26,0-.52-.1-.71-.29-.26-.26-.36-.64-.25-.99l1.95-6.55c.31-1.05,1.12-1.86,2.17-2.17l6.55-1.95c.35-.11,.73,0,.99,.25s.36,.64,.25,.99Z"/>
    <path class="cls-1" d="M13.41,15.23l-1.42,4.78,4.78-1.42c.4-.12,.7-.43,.82-.82l1.42-4.78-4.78,1.42c-.4,.12-.7,.43-.82,.82Zm1.12,.82l.53-.53c.39-.39,1.02-.39,1.41,0,.39,.39,.39,1.02,0,1.41l-.53,.53c-.2,.19-.45,.29-.71,.29s-.51-.1-.71-.29c-.39-.39-.39-1.02,0-1.41Z"/>
  </g>
</svg>