<?xml version="1.0" encoding="UTF-8"?>
<svg id="OBJECT" xmlns="http://www.w3.org/2000/svg" viewBox="0 0 32 32">
  <defs>
    <style>
      .cls-1 {
        fill: #FD4360;
      }

      .cls-2 {
        fill: #dadada;
      }
    </style>
  </defs>
  <g>
    <path class="cls-2" d="m27,8c-.55,0-1,.45-1,1v7.72h-9v-8c0-.55-.45-1-1-1s-1,.45-1,1v8H6v-7.72c0-.55-.45-1-1-1s-1,.45-1,1v21c0,.55.45,1,1,1s1-.45,1-1v-1.28h20v1.28c0,.55.45,1,1,1s1-.45,1-1V9c0-.55-.45-1-1-1ZM6,18.72h9v8H6v-8Zm11,8v-8h9v8h-9Z"/>
    <path class="cls-2" d="m20.5,13.46h2c.55,0,1-.45,1-1s-.45-1-1-1h-2c-.55,0-1,.45-1,1s.45,1,1,1Z"/>
    <path class="cls-2" d="m9.5,13.46h2c.55,0,1-.45,1-1s-.45-1-1-1h-2c-.55,0-1,.45-1,1s.45,1,1,1Z"/>
    <path class="cls-2" d="m22.5,21.72h-2c-.55,0-1,.45-1,1s.45,1,1,1h2c.55,0,1-.45,1-1s-.45-1-1-1Z"/>
    <path class="cls-2" d="m11.5,21.72h-2c-.55,0-1,.45-1,1s.45,1,1,1h2c.55,0,1-.45,1-1s-.45-1-1-1Z"/>
  </g>
  <path class="cls-1" d="m27,1H5c-.55,0-1,.45-1,1v5h24V2c0-.55-.45-1-1-1Zm-10,4h-2c-.55,0-1-.45-1-1s.45-1,1-1h2c.55,0,1,.45,1,1s-.45,1-1,1Z"/>
</svg>