<?xml version="1.0" encoding="UTF-8"?>
<svg id="OBJECT" xmlns="http://www.w3.org/2000/svg" viewBox="0 0 32 32">
  <defs>
    <style>
      .cls-1 {
        fill: #FD4360;
      }

      .cls-1, .cls-2 {
        stroke-width: 0px;
      }

      .cls-2 {
        fill: #dadada;
      }
    </style>
  </defs>
  <g>
    <path class="cls-2" d="m18,1H2c-.55,0-1,.45-1,1v28c0,.55.45,1,1,1h16c2.76,0,5-2.24,5-5V6c0-2.76-2.24-5-5-5ZM3,3h2v26h-2V3Zm18,23c0,1.65-1.35,3-3,3H7V3h11c1.65,0,3,1.35,3,3v20Z"/>
    <path class="cls-2" d="m17.5,5h-7c-.55,0-1,.45-1,1s.45,1,1,1h7c.55,0,1-.45,1-1s-.45-1-1-1Z"/>
    <path class="cls-2" d="m17.5,9h-7c-.55,0-1,.45-1,1s.45,1,1,1h7c.55,0,1-.45,1-1s-.45-1-1-1Z"/>
    <path class="cls-2" d="m12,25c-.55,0-1,.45-1,1v1c0,.55.45,1,1,1s1-.45,1-1v-1c0-.55-.45-1-1-1Z"/>
    <path class="cls-2" d="m16,25c-.55,0-1,.45-1,1v1c0,.55.45,1,1,1s1-.45,1-1v-1c0-.55-.45-1-1-1Z"/>
  </g>
  <g>
    <path class="cls-1" d="m28.5,1h-2c-.83,0-1.5.67-1.5,1.5v2.5h5v-2.5c0-.83-.67-1.5-1.5-1.5Z"/>
    <path class="cls-1" d="m25,24.7c0,.39.1.78.28,1.11l1.22,2.2v2c0,.55.45,1,1,1s1-.45,1-1v-2l1.08-1.94h0c.28-.5.42-1.07.42-1.66V7h-5v17.7Z"/>
  </g>
</svg>