<?xml version="1.0" encoding="UTF-8"?>
<svg id="OBJECT" xmlns="http://www.w3.org/2000/svg" viewBox="0 0 32 32">
  <defs>
    <style>
      .cls-1 {
        fill: #FD4360;
      }

      .cls-1, .cls-2 {
        stroke-width: 0px;
      }

      .cls-2 {
        fill: #dadada;
      }
    </style>
  </defs>
  <path class="cls-1" d="m11.55,15.89c.34.17.74.13,1.05-.09l3.4-2.55,3.4,2.55c.18.13.39.2.6.2.15,0,.31-.03.45-.11.34-.17.55-.52.55-.89V1h-10v14c0,.38.21.73.55.89Z"/>
  <path class="cls-1" d="m9,1H3c-1.1,0-2,.9-2,2v4h8V1Z"/>
  <path class="cls-1" d="m29,1h-6v6h8V3c0-1.1-.9-2-2-2Z"/>
  <g>
    <path class="cls-2" d="m28,9c-.55,0-1,.45-1,1v18c0,.55-.45,1-1,1H6c-.55,0-1-.45-1-1V10c0-.55-.45-1-1-1s-1,.45-1,1v18c0,1.65,1.35,3,3,3h20c1.65,0,3-1.35,3-3V10c0-.55-.45-1-1-1Z"/>
    <path class="cls-2" d="m9,27h14c.55,0,1-.45,1-1v-4c0-.55-.45-1-1-1h-14c-.55,0-1,.45-1,1v4c0,.55.45,1,1,1Zm1-4h12v2h-12v-2Z"/>
  </g>
</svg>