<?xml version="1.0" encoding="UTF-8"?>
<svg id="OBJECT" xmlns="http://www.w3.org/2000/svg" viewBox="0 0 32 32">
  <defs>
    <style>
      .cls-1 {
        fill: #FD4360;
      }

      .cls-1, .cls-2 {
        stroke-width: 0px;
      }

      .cls-2 {
        fill: #dadada;
      }
    </style>
  </defs>
  <path class="cls-2" d="m28,11H4c-1.65,0-3,1.35-3,3v3c0,.55.45,1,1,1h.5v10c0,1.65,1.35,3,3,3h21c1.65,0,3-1.35,3-3v-10h.5c.55,0,1-.45,1-1v-3c0-1.65-1.35-3-3-3Zm1,3v2h-7v-3h6c.55,0,1,.45,1,1Zm-17,2v-3h8v3h-8Zm6.5,2v11h-5v-11h5ZM3,14c0-.55.45-1,1-1h6v3H3v-2Zm1.5,14v-10h7v11h-6c-.55,0-1-.45-1-1Zm23,0c0,.55-.45,1-1,1h-6v-11h7v10Z"/>
  <g>
    <path class="cls-1" d="m8.33,3h1.2c.54,0,1.06.2,1.47.54.51-.46,1.1-.84,1.75-1.1l-.02-.02c-.82-.9-1.98-1.42-3.2-1.42h-1.2c-2.38,0-4.33,1.94-4.33,4.33,0,1.05.38,2.06,1.07,2.85l.72.82h2.66l-1.88-2.14c-.37-.42-.58-.97-.58-1.53,0-1.28,1.04-2.33,2.33-2.33Z"/>
    <path class="cls-1" d="m23.67,1h-1.2c-1.22,0-2.38.52-3.2,1.42l-.02.02c.65.26,1.24.64,1.75,1.1.41-.34.93-.54,1.47-.54h1.2c1.28,0,2.33,1.04,2.33,2.33,0,.56-.2,1.11-.58,1.53l-1.88,2.14h2.66l.72-.82c.69-.79,1.07-1.8,1.07-2.85,0-2.38-1.94-4.33-4.33-4.33Z"/>
    <path class="cls-1" d="m17,4h-2c-2.21,0-4,1.79-4,4v1h10v-1c0-2.21-1.79-4-4-4Z"/>
  </g>
</svg>