<?xml version="1.0" encoding="UTF-8"?>
<svg id="OBJECT" xmlns="http://www.w3.org/2000/svg" viewBox="0 0 32 32">
  <defs>
    <style>
      .cls-1 {
        fill: #FD4360;
      }

      .cls-1, .cls-2 {
        stroke-width: 0px;
      }

      .cls-2 {
        fill: #dadada;
      }
    </style>
  </defs>
  <g>
    <path class="cls-2" d="m16,21c-.55,0-1,.45-1,1v.5c0,.55.45,1,1,1s1-.45,1-1v-.5c0-.55-.45-1-1-1Z"/>
    <path class="cls-2" d="m30.86,19.49l-3-5c-.18-.3-.51-.49-.86-.49H5c-.35,0-.68.18-.86.49l-3,5c-.19.31-.19.69-.01,1.01.18.31.51.51.87.51h3v9c0,.55.45,1,1,1h20c.55,0,1-.45,1-1v-9h3c.36,0,.69-.19.87-.51.18-.31.17-.7-.01-1.01Zm-25.29-3.49h8.67l-1.8,3H3.77l1.8-3Zm19.43,13h-8v-3c0-.55-.45-1-1-1s-1,.45-1,1v3H7v-8h6c.35,0,.68-.18.86-.49l2.14-3.57,2.14,3.57c.18.3.51.49.86.49h6v8Zm-5.43-10l-1.8-3h8.67l1.8,3h-8.67Z"/>
  </g>
  <path class="cls-1" d="m12.25,12.17h7.5c1.24,0,2.25-1.01,2.25-2.25V3.25c0-1.24-1.01-2.25-2.25-2.25h-7.5c-1.24,0-2.25,1.01-2.25,2.25v6.67c0,1.24,1.01,2.25,2.25,2.25Zm.25-7.58c0-.55.45-1,1-1s1,.45,1,1v2c0,.55.45,1,1,1h1c.55,0,1-.45,1-1v-2c0-.55.45-1,1-1s1,.45,1,1v2c0,1.65-1.35,3-3,3h-1c-1.65,0-3-1.35-3-3v-2Z"/>
</svg>