<?xml version="1.0" encoding="UTF-8"?>
<svg id="OBJECT" xmlns="http://www.w3.org/2000/svg" viewBox="0 0 32 32">
  <defs>
    <style>
      .cls-1 {
        fill: #FD4360;
      }

      .cls-1, .cls-2 {
        stroke-width: 0px;
      }

      .cls-2 {
        fill: #dadada;
      }
    </style>
  </defs>
  <g>
    <path class="cls-2" d="m27.57,1H11.43c-1.89,0-3.43,1.54-3.43,3.43v13.15c0,1.89,1.54,3.43,3.43,3.43h2.95l2.05,4.11c.58,1.17,1.76,1.89,3.07,1.89s2.48-.73,3.07-1.89l2.05-4.11h2.95c1.89,0,3.43-1.54,3.43-3.43V4.43c0-1.89-1.54-3.43-3.43-3.43Zm1.43,16.57c0,.79-.64,1.43-1.43,1.43h-7.57c-.55,0-1,.45-1,1s.45,1,1,1h2.38l-1.61,3.21c-.24.49-.73.79-1.28.79s-1.03-.3-1.28-.79l-2.33-4.66c-.17-.34-.52-.55-.89-.55h-3.57c-.79,0-1.43-.64-1.43-1.43V4.43c0-.79.64-1.43,1.43-1.43h16.15c.79,0,1.43.64,1.43,1.43v13.15Z"/>
    <path class="cls-2" d="m26.5,10h-14c-.55,0-1,.45-1,1s.45,1,1,1h14c.55,0,1-.45,1-1s-.45-1-1-1Z"/>
    <path class="cls-2" d="m26.5,14.5h-14c-.55,0-1,.45-1,1s.45,1,1,1h14c.55,0,1-.45,1-1s-.45-1-1-1Z"/>
    <path class="cls-2" d="m26.5,5.5h-10c-.55,0-1,.45-1,1s.45,1,1,1h10c.55,0,1-.45,1-1s-.45-1-1-1Z"/>
    <path class="cls-2" d="m12.5,7.5h.5c.55,0,1-.45,1-1s-.45-1-1-1h-.5c-.55,0-1,.45-1,1s.45,1,1,1Z"/>
  </g>
  <path class="cls-1" d="m13.15,23h-1.72c-2.99,0-5.43-2.43-5.43-5.43v-7.19h-2.04c-1.63,0-2.96,1.33-2.96,2.96v9.83c0,1.63,1.33,2.96,2.96,2.96h4.94c.55,0,1,.45,1,1s-.45,1-1,1h-1.67l.61,1.22c.51,1.01,1.52,1.64,2.65,1.64s2.15-.63,2.65-1.64l1.6-3.19c-.03-.06-.07-.11-.1-.17l-1.5-3Zm-8.24.14h-1.05c-.55,0-1-.45-1-1s.45-1,1-1h1.05c.55,0,1,.45,1,1s-.45,1-1,1Z"/>
</svg>