<?xml version="1.0" encoding="UTF-8"?>
<svg id="OBJECT" xmlns="http://www.w3.org/2000/svg" viewBox="0 0 32 32">
  <defs>
    <style>
      .cls-1 {
        fill: #FD4360;
      }

      .cls-1, .cls-2 {
        stroke-width: 0px;
      }

      .cls-2 {
        fill: #dadada;
      }
    </style>
  </defs>
  <path class="cls-1" d="m25.62,10h-3.8v5h6.3v-2.5c0-1.38-1.12-2.5-2.5-2.5Z"/>
  <path class="cls-1" d="m10.19,11v-1h-3.57c-1.38,0-2.5,1.12-2.5,2.5v2.5h6.07v-4Z"/>
  <path class="cls-1" d="m12.61,19.92c.27.19.61.23.91.13l2.48-.88,2.48.88c.11.04.22.06.33.06.2,0,.41-.06.58-.18.27-.19.42-.49.42-.82v-9.1h-7.63v9.1c0,.32.16.63.42.82Z"/>
  <g>
    <path class="cls-2" d="m25.5,16c-.55,0-1,.45-1,1v12H7.5v-12c0-.55-.45-1-1-1s-1,.45-1,1v13c0,.55.45,1,1,1h19c.55,0,1-.45,1-1v-13c0-.55-.45-1-1-1Z"/>
    <path class="cls-2" d="m9.17,27c0,.55.45,1,1,1h7.65c.55,0,1-.45,1-1s-.45-1-1-1h-7.65c-.55,0-1,.45-1,1Z"/>
    <path class="cls-2" d="m20.83,28h1c.55,0,1-.45,1-1s-.45-1-1-1h-1c-.55,0-1,.45-1,1s.45,1,1,1Z"/>
    <path class="cls-2" d="m16,8c.55,0,1-.45,1-1V2c0-.55-.45-1-1-1s-1,.45-1,1v5c0,.55.45,1,1,1Z"/>
    <path class="cls-2" d="m21.88,8c.26,0,.51-.1.71-.29l2.24-2.24c.39-.39.39-1.02,0-1.41-.39-.39-1.02-.39-1.41,0l-2.24,2.24c-.39.39-.39,1.02,0,1.41.2.2.45.29.71.29Z"/>
    <path class="cls-2" d="m9.41,7.71c.2.2.45.29.71.29s.51-.1.71-.29c.39-.39.39-1.02,0-1.41l-2.24-2.24c-.39-.39-1.02-.39-1.41,0-.39.39-.39,1.02,0,1.41l2.24,2.24Z"/>
  </g>
</svg>