<?xml version="1.0" encoding="UTF-8"?>
<svg id="OBJECT" xmlns="http://www.w3.org/2000/svg" viewBox="0 0 32 32">
  <defs>
    <style>
      .cls-1 {
        fill: #FD4360;
      }

      .cls-1, .cls-2 {
        stroke-width: 0px;
      }

      .cls-2 {
        fill: #dadada;
      }
    </style>
  </defs>
  <g>
    <path class="cls-2" d="m17.5,14h-.5c-.55,0-1,.45-1,1s.45,1,1,1h.5c.55,0,1-.45,1-1s-.45-1-1-1Z"/>
    <path class="cls-2" d="m26,5h-4.76v-1c0-.55.45-1,1-1h4.76c.55,0,1-.45,1-1s-.45-1-1-1h-4.76c-1.65,0-3,1.35-3,3v1H6c-2.76,0-5,2.24-5,5v9c0,.55.45,1,1,1h28c.55,0,1-.45,1-1v-9c0-2.76-2.24-5-5-5ZM3,10c0-1.65,1.35-3,3-3h2c1.65,0,3,1.35,3,3v8H3v-8Zm10,8v-8c0-1.13-.39-2.16-1.03-3h7.27v3.76c0,.55.45,1,1,1s1-.45,1-1v-3.76h4.76c1.65,0,3,1.35,3,3v4h-8c-.55,0-1,.45-1,1s.45,1,1,1h8v2H13Z"/>
    <path class="cls-2" d="m8,13c-.55,0-1,.45-1,1v1c0,.55.45,1,1,1s1-.45,1-1v-1c0-.55-.45-1-1-1Z"/>
  </g>
  <path class="cls-1" d="m24,29h-5v-7h-6v7h-5c-.55,0-1,.45-1,1s.45,1,1,1h16c.55,0,1-.45,1-1s-.45-1-1-1Z"/>
</svg>