<?xml version="1.0" encoding="UTF-8"?>
<svg id="OBJECT" xmlns="http://www.w3.org/2000/svg" viewBox="0 0 32 32">
  <defs>
    <style>
      .cls-1 {
        fill: #FD4360;
      }

      .cls-1, .cls-2 {
        stroke-width: 0px;
      }

      .cls-2 {
        fill: #dadada;
      }
    </style>
  </defs>
  <path class="cls-1" d="m2,12h2v2h2v-2h9v2h2v-2h1c.55,0,1-.45,1-1V2c0-.55-.45-1-1-1H2c-.55,0-1,.45-1,1v9c0,.55.45,1,1,1ZM10.25,4h4c.55,0,1,.45,1,1s-.45,1-1,1h-4c-.55,0-1-.45-1-1s.45-1,1-1Zm-4.5,0h1c.55,0,1,.45,1,1s-.45,1-1,1h-1c-.55,0-1-.45-1-1s.45-1,1-1Zm0,3h8.5c.55,0,1,.45,1,1s-.45,1-1,1H5.75c-.55,0-1-.45-1-1s.45-1,1-1Z"/>
  <g>
    <path class="cls-2" d="m30,13h-8c-.55,0-1,.45-1,1v2H2c-.55,0-1,.45-1,1v13c0,.55.45,1,1,1h28c.55,0,1-.45,1-1V14c0-.55-.45-1-1-1ZM3,18h18v11H3v-11Zm26,11h-6v-14h6v14Z"/>
    <path class="cls-2" d="m25.5,18.75h1c.55,0,1-.45,1-1s-.45-1-1-1h-1c-.55,0-1,.45-1,1s.45,1,1,1Z"/>
    <path class="cls-2" d="m7.5,20.5h-1c-.55,0-1,.45-1,1s.45,1,1,1h1c.55,0,1-.45,1-1s-.45-1-1-1Z"/>
    <path class="cls-2" d="m12.5,20.5h-1c-.55,0-1,.45-1,1s.45,1,1,1h1c.55,0,1-.45,1-1s-.45-1-1-1Z"/>
    <path class="cls-2" d="m16.5,22.5h1c.55,0,1-.45,1-1s-.45-1-1-1h-1c-.55,0-1,.45-1,1s.45,1,1,1Z"/>
    <path class="cls-2" d="m7.5,24.5h-1c-.55,0-1,.45-1,1s.45,1,1,1h1c.55,0,1-.45,1-1s-.45-1-1-1Z"/>
    <path class="cls-2" d="m12.5,24.5h-1c-.55,0-1,.45-1,1s.45,1,1,1h1c.55,0,1-.45,1-1s-.45-1-1-1Z"/>
    <path class="cls-2" d="m17.5,24.5h-1c-.55,0-1,.45-1,1s.45,1,1,1h1c.55,0,1-.45,1-1s-.45-1-1-1Z"/>
  </g>
</svg>