<?xml version="1.0" encoding="UTF-8"?>
<svg id="OBJECT" xmlns="http://www.w3.org/2000/svg" viewBox="0 0 32 32">
  <defs>
    <style>
      .cls-1 {
        fill: #FD4360;
      }

      .cls-1, .cls-2 {
        stroke-width: 0px;
      }

      .cls-2 {
        fill: #dadada;
      }
    </style>
  </defs>
  <g>
    <path class="cls-2" d="m25,1H7c-1.65,0-3,1.35-3,3v24c0,1.65,1.35,3,3,3h18c1.65,0,3-1.35,3-3V4c0-1.65-1.35-3-3-3Zm1,27c0,.55-.45,1-1,1H7c-.55,0-1-.45-1-1V4c0-.55.45-1,1-1h18c.55,0,1,.45,1,1v24Z"/>
    <path class="cls-2" d="m23.5,4.5h-15c-.55,0-1,.45-1,1v6c0,.55.45,1,1,1h15c.55,0,1-.45,1-1v-6c0-.55-.45-1-1-1Zm-1,6h-13v-4h13v4Z"/>
    <path class="cls-2" d="m13,9.5h1c.55,0,1-.45,1-1s-.45-1-1-1h-1c-.55,0-1,.45-1,1s.45,1,1,1Z"/>
    <path class="cls-2" d="m18,9.5h1c.55,0,1-.45,1-1s-.45-1-1-1h-1c-.55,0-1,.45-1,1s.45,1,1,1Z"/>
  </g>
  <g>
    <rect class="cls-1" x="18.5" y="15.5" width="6" height="11" rx="1" ry="1"/>
    <rect class="cls-1" x="7.5" y="15.5" width="8" height="4.5" rx="1" ry="1"/>
    <rect class="cls-1" x="7.5" y="22" width="8" height="4.5" rx="1" ry="1"/>
  </g>
</svg>