<?xml version="1.0" encoding="UTF-8"?>
<svg id="OBJECT" xmlns="http://www.w3.org/2000/svg" viewBox="0 0 32 32">
  <defs>
    <style>
      .cls-1 {
        fill: #FD4360;
      }

      .cls-1, .cls-2 {
        stroke-width: 0px;
      }

      .cls-2 {
        fill: #dadada;
      }
    </style>
  </defs>
  <g>
    <path class="cls-2" d="m20,1H4c-1.65,0-3,1.35-3,3v24c0,1.65,1.35,3,3,3h16c.55,0,1-.45,1-1s-.45-1-1-1H4c-.55,0-1-.45-1-1v-12h12.65c.55,0,1-.45,1-1s-.45-1-1-1H3V4c0-.55.45-1,1-1h16c.55,0,1,.45,1,1v6.37c0,.55.45,1,1,1s1-.45,1-1v-6.37c0-1.65-1.35-3-3-3Z"/>
    <path class="cls-2" d="m18.69,11v-5c0-.55-.45-1-1-1H6.31c-.55,0-1,.45-1,1v5c0,.55.45,1,1,1h11.38c.55,0,1-.45,1-1Zm-2-1H7.31v-3h9.38v3Z"/>
    <path class="cls-2" d="m7.75,17.5h-1.5c-.55,0-1,.45-1,1s.45,1,1,1h1.5c.55,0,1-.45,1-1s-.45-1-1-1Z"/>
    <path class="cls-2" d="m7.75,21.5h-1.5c-.55,0-1,.45-1,1s.45,1,1,1h1.5c.55,0,1-.45,1-1s-.45-1-1-1Z"/>
    <path class="cls-2" d="m7.75,25.5h-1.5c-.55,0-1,.45-1,1s.45,1,1,1h1.5c.55,0,1-.45,1-1s-.45-1-1-1Z"/>
    <path class="cls-2" d="m12.75,17.5h-1.5c-.55,0-1,.45-1,1s.45,1,1,1h1.5c.55,0,1-.45,1-1s-.45-1-1-1Z"/>
    <path class="cls-2" d="m12.75,21.5h-1.5c-.55,0-1,.45-1,1s.45,1,1,1h1.5c.55,0,1-.45,1-1s-.45-1-1-1Z"/>
    <path class="cls-2" d="m12.75,25.5h-1.5c-.55,0-1,.45-1,1s.45,1,1,1h1.5c.55,0,1-.45,1-1s-.45-1-1-1Z"/>
    <path class="cls-2" d="m16.75,25.5h-.5c-.55,0-1,.45-1,1s.45,1,1,1h.5c.55,0,1-.45,1-1s-.45-1-1-1Z"/>
  </g>
  <path class="cls-1" d="m24,27c3.86,0,7-3.14,7-7s-3.14-7-7-7-7,3.14-7,7,3.14,7,7,7Zm.56-6.1h-1.13c-1.12,0-2.03-.91-2.03-2.03,0-1,.73-1.84,1.69-2v-.26c0-.5.4-.9.9-.9s.9.4.9.9v.23h.79c.5,0,.9.4.9.9s-.4.9-.9.9h-2.26c-.12,0-.23.1-.23.23s.1.23.23.23h1.13c1.12,0,2.03.91,2.03,2.03,0,1-.73,1.84-1.69,2v.26c0,.5-.4.9-.9.9s-.9-.4-.9-.9v-.23h-.79c-.5,0-.9-.4-.9-.9s.4-.9.9-.9h2.26c.12,0,.23-.1.23-.23s-.1-.23-.23-.23Z"/>
</svg>