<?xml version="1.0" encoding="UTF-8"?>
<svg id="OBJECT" xmlns="http://www.w3.org/2000/svg" viewBox="0 0 32 32">
  <defs>
    <style>
      .cls-1 {
        fill: #FD4360;
      }

      .cls-1, .cls-2 {
        stroke-width: 0px;
      }

      .cls-2 {
        fill: #dadada;
      }
    </style>
  </defs>
  <g>
    <path class="cls-2" d="m25.5,1H6.5c-1.38,0-2.5,1.12-2.5,2.5v25c0,1.38,1.12,2.5,2.5,2.5h19c1.38,0,2.5-1.12,2.5-2.5V3.5c0-1.38-1.12-2.5-2.5-2.5Zm.5,27.5c0,.28-.22.5-.5.5H6.5c-.28,0-.5-.22-.5-.5V3.5c0-.28.22-.5.5-.5h19c.28,0,.5.22.5.5v25Z"/>
    <path class="cls-2" d="m14,14.5h-5c-.55,0-1,.45-1,1v11c0,.55.45,1,1,1h5c.55,0,1-.45,1-1v-11c0-.55-.45-1-1-1Zm-1,11h-3v-9h3v9Z"/>
    <path class="cls-2" d="m23,14.5h-5c-.55,0-1,.45-1,1v4c0,.55.45,1,1,1h5c.55,0,1-.45,1-1v-4c0-.55-.45-1-1-1Zm-1,4h-3v-2h3v2Z"/>
    <path class="cls-2" d="m23,21.5h-5c-.55,0-1,.45-1,1v4c0,.55.45,1,1,1h5c.55,0,1-.45,1-1v-4c0-.55-.45-1-1-1Zm-1,4h-3v-2h3v2Z"/>
  </g>
  <path class="cls-1" d="m23.5,4.5h-15c-.55,0-1,.45-1,1v6c0,.55.45,1,1,1h15c.55,0,1-.45,1-1v-6c0-.55-.45-1-1-1Zm-11.5,5h-.5c-.55,0-1-.45-1-1s.45-1,1-1h.5c.55,0,1,.45,1,1s-.45,1-1,1Zm4,0h-.5c-.55,0-1-.45-1-1s.45-1,1-1h.5c.55,0,1,.45,1,1s-.45,1-1,1Z"/>
</svg>