<?xml version="1.0" encoding="UTF-8"?>
<svg id="OBJECT" xmlns="http://www.w3.org/2000/svg" viewBox="0 0 32 32">
  <defs>
    <style>
      .cls-1 {
        fill: #FD4360;
      }

      .cls-1, .cls-2 {
        stroke-width: 0px;
      }

      .cls-2 {
        fill: #dadada;
      }
    </style>
  </defs>
  <path class="cls-1" d="m28,1H4c-1.65,0-3,1.35-3,3v10h30V4c0-1.65-1.35-3-3-3Zm-1.31,9c0,.55-.45,1-1,1H6.31c-.55,0-1-.45-1-1v-5c0-.55.45-1,1-1h19.38c.55,0,1,.45,1,1v5Z"/>
  <rect class="cls-1" x="7.31" y="6" width="17.38" height="3"/>
  <g>
    <path class="cls-2" d="m30,17c-.55,0-1,.45-1,1v10c0,.55-.45,1-1,1H4c-.55,0-1-.45-1-1v-10c0-.55-.45-1-1-1s-1,.45-1,1v10c0,1.65,1.35,3,3,3h24c1.65,0,3-1.35,3-3v-10c0-.55-.45-1-1-1Z"/>
    <path class="cls-2" d="m6.85,19.5h2.15c.55,0,1-.45,1-1s-.45-1-1-1h-2.15c-.55,0-1,.45-1,1s.45,1,1,1Z"/>
    <path class="cls-2" d="m14.38,19.5h2.15c.55,0,1-.45,1-1s-.45-1-1-1h-2.15c-.55,0-1,.45-1,1s.45,1,1,1Z"/>
    <path class="cls-2" d="m23,19.5h2.15c.55,0,1-.45,1-1s-.45-1-1-1h-2.15c-.55,0-1,.45-1,1s.45,1,1,1Z"/>
    <path class="cls-2" d="m6.85,23.5h2.15c.55,0,1-.45,1-1s-.45-1-1-1h-2.15c-.55,0-1,.45-1,1s.45,1,1,1Z"/>
    <path class="cls-2" d="m14.38,23.5h2.15c.55,0,1-.45,1-1s-.45-1-1-1h-2.15c-.55,0-1,.45-1,1s.45,1,1,1Z"/>
    <path class="cls-2" d="m23,23.5h2.15c.55,0,1-.45,1-1s-.45-1-1-1h-2.15c-.55,0-1,.45-1,1s.45,1,1,1Z"/>
    <path class="cls-2" d="m6.85,27.5h2.15c.55,0,1-.45,1-1s-.45-1-1-1h-2.15c-.55,0-1,.45-1,1s.45,1,1,1Z"/>
    <path class="cls-2" d="m14.38,27.5h2.15c.55,0,1-.45,1-1s-.45-1-1-1h-2.15c-.55,0-1,.45-1,1s.45,1,1,1Z"/>
    <path class="cls-2" d="m23,27.5h2.15c.55,0,1-.45,1-1s-.45-1-1-1h-2.15c-.55,0-1,.45-1,1s.45,1,1,1Z"/>
  </g>
</svg>