<?xml version="1.0" encoding="UTF-8"?>
<svg id="OBJECT" xmlns="http://www.w3.org/2000/svg" viewBox="0 0 32 32">
  <defs>
    <style>
      .cls-1 {
        fill: #FD4360;
      }

      .cls-1, .cls-2 {
        stroke-width: 0px;
      }

      .cls-2 {
        fill: #dadada;
      }
    </style>
  </defs>
  <g>
    <path class="cls-2" d="m24,20.94c-.55,0-1,.45-1,1v6.06c0,.55-.45,1-1,1H4c-.55,0-1-.45-1-1V4c0-.55.45-1,1-1h18c.55,0,1,.45,1,1.06,0,.55.45.97,1,.97s1-.48,1-1.03c0-1.65-1.35-3-3-3H4c-1.65,0-3,1.35-3,3v24c0,1.65,1.35,3,3,3h18c1.65,0,3-1.35,3-3v-6.06c0-.55-.45-1-1-1Z"/>
    <path class="cls-2" d="m16.5,27.5h2c1.38,0,2.5-1.12,2.5-2.5v-4.52c0-.55-.45-1-1-1s-1,.45-1,1v4.52c0,.28-.22.5-.5.5h-2c-.28,0-.5-.22-.5-.5v-8c0-.26.19-.47.45-.49.55-.05.96-.54.91-1.09-.05-.55-.53-.96-1.09-.91-1.29.12-2.27,1.19-2.27,2.49v8c0,1.38,1.12,2.5,2.5,2.5Z"/>
    <path class="cls-2" d="m12,17c0-1.38-1.12-2.5-2.5-2.5h-2c-1.38,0-2.5,1.12-2.5,2.5v.5c0,1.38,1.12,2.5,2.5,2.5h2c1.38,0,2.5-1.12,2.5-2.5v-.5Zm-2,.5c0,.28-.22.5-.5.5h-2c-.28,0-.5-.22-.5-.5v-.5c0-.28.22-.5.5-.5h2c.28,0,.5.22.5.5v.5Z"/>
    <path class="cls-2" d="m9.5,22h-2c-1.38,0-2.5,1.12-2.5,2.5v.5c0,1.38,1.12,2.5,2.5,2.5h2c1.38,0,2.5-1.12,2.5-2.5v-.5c0-1.38-1.12-2.5-2.5-2.5Zm.5,3c0,.28-.22.5-.5.5h-2c-.28,0-.5-.22-.5-.5v-.5c0-.28.22-.5.5-.5h2c.28,0,.5.22.5.5v.5Z"/>
    <path class="cls-2" d="m17.12,11.5c0-.55-.45-1-1-1H7c-.28,0-.5-.22-.5-.5v-3c0-.28.22-.5.5-.5h12c.11,0,.17.03.19.04.46.31,1.08.18,1.39-.28.31-.46.18-1.08-.28-1.39-.37-.25-.82-.38-1.29-.38H7c-1.38,0-2.5,1.12-2.5,2.5v3c0,1.38,1.12,2.5,2.5,2.5h9.12c.55,0,1-.45,1-1Z"/>
  </g>
  <path class="cls-1" d="m25,7c-3.31,0-6,2.69-6,6s2.69,6,6,6,6-2.69,6-6-2.69-6-6-6Zm2.11,8.11c-.2.2-.45.29-.71.29s-.51-.1-.71-.29l-1.4-1.4c-.19-.19-.29-.44-.29-.71v-2.2c0-.55.45-1,1-1s1,.45,1,1v1.79l1.11,1.11c.39.39.39,1.02,0,1.41Z"/>
</svg>