<?xml version="1.0" encoding="UTF-8"?>
<svg id="OBJECT" xmlns="http://www.w3.org/2000/svg" viewBox="0 0 32 32">
  <defs>
    <style>
      .cls-1 {
        fill: #FD4360;
      }

      .cls-1, .cls-2 {
        stroke-width: 0px;
      }

      .cls-2 {
        fill: #dadada;
      }
    </style>
  </defs>
  <path class="cls-1" d="m23.5,16c-4.14,0-7.5,3.36-7.5,7.5s3.36,7.5,7.5,7.5,7.5-3.36,7.5-7.5-3.36-7.5-7.5-7.5Zm3.05,9.99c-.2.24-.49.37-.78.37-.22,0-.45-.07-.63-.23l-2.27-1.86c-.23-.19-.37-.47-.37-.77v-3.2c0-.55.45-1,1-1s1,.45,1,1v2.73l1.91,1.56c.43.35.49.98.14,1.41Z"/>
  <g>
    <path class="cls-2" d="m16.24,15H6c-.55,0-1,.45-1,1s.45,1,1,1h10.24c.55,0,1-.45,1-1s-.45-1-1-1Z"/>
    <path class="cls-2" d="m19,11.5h-9c-.55,0-1,.45-1,1s.45,1,1,1h9c.55,0,1-.45,1-1s-.45-1-1-1Z"/>
    <path class="cls-2" d="m6,13.5h1c.55,0,1-.45,1-1s-.45-1-1-1h-1c-.55,0-1,.45-1,1s.45,1,1,1Z"/>
    <path class="cls-2" d="m6,18.5c-.55,0-1,.45-1,1s.45,1,1,1h3.22c.55,0,1-.45,1-1s-.45-1-1-1h-3.22Z"/>
    <path class="cls-2" d="m12,18.5c-.55,0-1,.45-1,1s.45,1,1,1h1.57c.55,0,1-.45,1-1s-.45-1-1-1h-1.57Z"/>
    <path class="cls-2" d="m21.5,3h-1.73v-1c0-.55-.45-1-1-1s-1,.45-1,1v1h-4.27v-1c0-.55-.45-1-1-1s-1,.45-1,1v1h-4.27v-1c0-.55-.45-1-1-1s-1,.45-1,1v1h-1.73c-1.38,0-2.5,1.12-2.5,2.5v16c0,1.38,1.12,2.5,2.5,2.5h10.53c.55,0,1-.45,1-1s-.45-1-1-1H3.5c-.28,0-.5-.22-.5-.5v-11.5h19v4.03c0,.55.45,1,1,1s1-.45,1-1V5.5c0-1.38-1.12-2.5-2.5-2.5ZM3,8v-2.5c0-.28.22-.5.5-.5h1.73v1c0,.55.45,1,1,1s1-.45,1-1v-1h4.27v1c0,.55.45,1,1,1s1-.45,1-1v-1h4.27v1c0,.55.45,1,1,1s1-.45,1-1v-1h1.73c.28,0,.5.22.5.5v2.5H3Z"/>
  </g>
</svg>