<?xml version="1.0" encoding="UTF-8"?>
<svg id="OBJECT" xmlns="http://www.w3.org/2000/svg" viewBox="0 0 32 32">
  <defs>
    <style>
      .cls-1 {
        fill: #FD4360;
      }

      .cls-1, .cls-2 {
        stroke-width: 0px;
      }

      .cls-2 {
        fill: #dadada;
      }
    </style>
  </defs>
  <g>
    <path class="cls-2" d="m30,10.82c-.55,0-1,.45-1,1v17.18H3V11.82c0-.55-.45-1-1-1s-1,.45-1,1v18.18c0,.55.45,1,1,1h28c.55,0,1-.45,1-1V11.82c0-.55-.45-1-1-1Z"/>
    <path class="cls-2" d="m6.4,15.26h3.92c.55,0,1-.45,1-1s-.45-1-1-1h-3.92c-.55,0-1,.45-1,1s.45,1,1,1Z"/>
    <path class="cls-2" d="m14.04,15.26h3.92c.55,0,1-.45,1-1s-.45-1-1-1h-3.92c-.55,0-1,.45-1,1s.45,1,1,1Z"/>
    <path class="cls-2" d="m21.67,15.26h3.92c.55,0,1-.45,1-1s-.45-1-1-1h-3.92c-.55,0-1,.45-1,1s.45,1,1,1Z"/>
    <path class="cls-2" d="m6.4,19h3.92c.55,0,1-.45,1-1s-.45-1-1-1h-3.92c-.55,0-1,.45-1,1s.45,1,1,1Z"/>
    <path class="cls-2" d="m14.04,19h3.92c.55,0,1-.45,1-1s-.45-1-1-1h-3.92c-.55,0-1,.45-1,1s.45,1,1,1Z"/>
    <path class="cls-2" d="m21.67,19h3.92c.55,0,1-.45,1-1s-.45-1-1-1h-3.92c-.55,0-1,.45-1,1s.45,1,1,1Z"/>
    <path class="cls-2" d="m6.4,22.74h3.92c.55,0,1-.45,1-1s-.45-1-1-1h-3.92c-.55,0-1,.45-1,1s.45,1,1,1Z"/>
    <path class="cls-2" d="m14.04,22.74h3.92c.55,0,1-.45,1-1s-.45-1-1-1h-3.92c-.55,0-1,.45-1,1s.45,1,1,1Z"/>
    <path class="cls-2" d="m21.67,22.74h3.92c.55,0,1-.45,1-1s-.45-1-1-1h-3.92c-.55,0-1,.45-1,1s.45,1,1,1Z"/>
    <path class="cls-2" d="m6.4,26.48h3.92c.55,0,1-.45,1-1s-.45-1-1-1h-3.92c-.55,0-1,.45-1,1s.45,1,1,1Z"/>
    <path class="cls-2" d="m14.04,26.48h3.92c.55,0,1-.45,1-1s-.45-1-1-1h-3.92c-.55,0-1,.45-1,1s.45,1,1,1Z"/>
  </g>
  <g>
    <path class="cls-1" d="m30,2.82h-4.09v3.15c0,.55-.45,1-1,1s-1-.45-1-1v-3.15h-3.09v3.15c0,.55-.45,1-1,1s-1-.45-1-1v-3.15h-5.64v3.15c0,.55-.45,1-1,1s-1-.45-1-1v-3.15h-3.09v3.15c0,.55-.45,1-1,1s-1-.45-1-1v-3.15H2c-.55,0-1,.45-1,1v5.33h30V3.82c0-.55-.45-1-1-1Z"/>
    <path class="cls-1" d="m8.09,2c0-.55-.45-1-1-1s-1,.45-1,1v.82h2v-.82Z"/>
    <path class="cls-1" d="m13.18,2c0-.55-.45-1-1-1s-1,.45-1,1v.82h2v-.82Z"/>
    <path class="cls-1" d="m20.82,2c0-.55-.45-1-1-1s-1,.45-1,1v.82h2v-.82Z"/>
    <path class="cls-1" d="m25.91,2c0-.55-.45-1-1-1s-1,.45-1,1v.82h2v-.82Z"/>
  </g>
</svg>