<?xml version="1.0" encoding="UTF-8"?>
<svg id="OBJECT" xmlns="http://www.w3.org/2000/svg" viewBox="0 0 32 32">
  <defs>
    <style>
      .cls-1 {
        fill: #FD4360;
      }

      .cls-1, .cls-2 {
        stroke-width: 0px;
      }

      .cls-2 {
        fill: #dadada;
      }
    </style>
  </defs>
  <path class="cls-2" d="m28.5,5v-1.5c0-1.38-1.12-2.5-2.5-2.5h-2c-1.38,0-2.5,1.12-2.5,2.5v1.5h-11v-1.5c0-1.38-1.12-2.5-2.5-2.5h-2c-1.38,0-2.5,1.12-2.5,2.5v1.5c-1.38,0-2.5,1.12-2.5,2.5v21c0,1.38,1.12,2.5,2.5,2.5h25c1.38,0,2.5-1.12,2.5-2.5V7.5c0-1.38-1.12-2.5-2.5-2.5Zm-5-1.5c0-.28.22-.5.5-.5h2c.28,0,.5.22.5.5v1.5h-3v-1.5Zm-18,0c0-.28.22-.5.5-.5h2c.28,0,.5.22.5.5v1.5h-3v-1.5Zm-2,3.5h25c.28,0,.5.22.5.5v2.5H3v-2.5c0-.28.22-.5.5-.5Zm25,22H3.5c-.28,0-.5-.22-.5-.5V12h26v16.5c0,.28-.22.5-.5.5Z"/>
  <g>
    <rect class="cls-1" x="13" y="14" width="6" height="5.5" rx="1.5" ry="1.5"/>
    <rect class="cls-1" x="13" y="21.5" width="6" height="5.5" rx="1.5" ry="1.5"/>
    <rect class="cls-1" x="21" y="14" width="6" height="5.5" rx="1.5" ry="1.5"/>
    <rect class="cls-1" x="21" y="21.5" width="6" height="5.5" rx="1.5" ry="1.5"/>
    <rect class="cls-1" x="5" y="21.5" width="6" height="5.5" rx="1.5" ry="1.5"/>
    <rect class="cls-1" x="5" y="14" width="6" height="5.5" rx="1.5" ry="1.5"/>
  </g>
</svg>