<?xml version="1.0" encoding="UTF-8"?>
<svg id="OBJECT" xmlns="http://www.w3.org/2000/svg" viewBox="0 0 32 32">
  <defs>
    <style>
      .cls-1 {
        fill: #FD4360;
      }

      .cls-1, .cls-2 {
        stroke-width: 0px;
      }

      .cls-2 {
        fill: #dadada;
      }
    </style>
  </defs>
  <path class="cls-2" d="m28,4v-2c0-.55-.45-1-1-1s-1,.45-1,1v2h-5.33v-2c0-.55-.45-1-1-1s-1,.45-1,1v2h-5.33v-2c0-.55-.45-1-1-1s-1,.45-1,1v2h-5.33v-2c0-.55-.45-1-1-1s-1,.45-1,1v2c-1.65,0-3,1.35-3,3v21c0,1.65,1.35,3,3,3h24c1.65,0,3-1.35,3-3V7c0-1.65-1.35-3-3-3ZM4,6h24c.55,0,1,.45,1,1v2H3v-2c0-.55.45-1,1-1Zm24,23H4c-.55,0-1-.45-1-1V11h26v17c0,.55-.45,1-1,1Z"/>
  <g>
    <path class="cls-1" d="m6,15.5h1c.55,0,1-.45,1-1s-.45-1-1-1h-1c-.55,0-1,.45-1,1s.45,1,1,1Z"/>
    <path class="cls-1" d="m25,15.5h1c.55,0,1-.45,1-1s-.45-1-1-1h-1c-.55,0-1,.45-1,1s.45,1,1,1Z"/>
    <path class="cls-1" d="m26.96,20.05c-4.14-4.44-10.68-4.55-10.97-4.55-.28,0-6.82.11-10.96,4.55-.39.42-.61.98-.61,1.57v2.37c0,.13.02.25.07.37.09.23.95,2.13,4.57,2.13.22,0,.45,0,.69-.02.3-.02.6-.1.88-.23l.58-.28c.93-.45,1.44-1.43,1.29-2.45l-.17-1.11c2.43-.53,4.94-.52,7.36,0l-.17,1.1c-.16,1.01.37,2.02,1.29,2.46l.58.28c.28.13.58.21.87.23,4.2.25,5.16-1.87,5.25-2.11.05-.12.07-.24.07-.37v-2.37c0-.59-.22-1.15-.61-1.57Z"/>
  </g>
</svg>