<?xml version="1.0" encoding="UTF-8"?>
<svg id="OBJECT" xmlns="http://www.w3.org/2000/svg" viewBox="0 0 32 32">
  <defs>
    <style>
      .cls-1 {
        fill: #FD4360;
      }

      .cls-1, .cls-2 {
        stroke-width: 0px;
      }

      .cls-2 {
        fill: #dadada;
      }
    </style>
  </defs>
  <g>
    <path class="cls-2" d="m30,4h-1.5v-2c0-.55-.45-1-1-1s-1,.45-1,1v2h-3.75v-2c0-.55-.45-1-1-1s-1,.45-1,1v2h-3.75v-2c0-.55-.45-1-1-1s-1,.45-1,1v2h-3.75v-2c0-.55-.45-1-1-1s-1,.45-1,1v2h-3.75v-2c0-.55-.45-1-1-1s-1,.45-1,1v2h-1.5c-.55,0-1,.45-1,1v25c0,.55.45,1,1,1h28c.55,0,1-.45,1-1V5c0-.55-.45-1-1-1Zm-1,2v2H3v-2h26ZM3,29V10h26v19H3Z"/>
    <path class="cls-2" d="m26,12h-1c-.55,0-1,.45-1,1s.45,1,1,1h1c.55,0,1-.45,1-1s-.45-1-1-1Z"/>
    <path class="cls-2" d="m22,12h-1c-.55,0-1,.45-1,1s.45,1,1,1h1c.55,0,1-.45,1-1s-.45-1-1-1Z"/>
  </g>
  <path class="cls-1" d="m22.67,19.72c-.23-.23-.54-.33-.86-.28-.29.05-.54.07-.77.07-2.78,0-5.04-2.26-5.04-5.04,0-.23.02-.48.07-.77.05-.31-.06-.63-.28-.86-.23-.23-.54-.33-.86-.28-3.45.53-5.96,3.46-5.96,6.95,0,3.88,3.16,7.04,7.04,7.04,3.49,0,6.42-2.51,6.95-5.96.05-.31-.06-.63-.28-.86Z"/>
</svg>