<?xml version="1.0" encoding="UTF-8"?>
<svg id="OBJECT" xmlns="http://www.w3.org/2000/svg" viewBox="0 0 32 32">
  <defs>
    <style>
      .cls-1 {
        fill: #FD4360;
      }

      .cls-1, .cls-2 {
        stroke-width: 0px;
      }

      .cls-2 {
        fill: #dadada;
      }
    </style>
  </defs>
  <path class="cls-2" d="m30,4h-1v-2c0-.55-.45-1-1-1s-1,.45-1,1v2h-4v-2c0-.55-.45-1-1-1s-1,.45-1,1v2h-4v-2c0-.55-.45-1-1-1s-1,.45-1,1v2h-4v-2c0-.55-.45-1-1-1s-1,.45-1,1v2h-4v-2c0-.55-.45-1-1-1s-1,.45-1,1v2h-1c-.55,0-1,.45-1,1v25c0,.55.45,1,1,1h28c.55,0,1-.45,1-1V5c0-.55-.45-1-1-1Zm-1,2v3H3v-3h26ZM3,29V11h26v18H3Z"/>
  <g>
    <rect class="cls-1" x="4.5" y="13" width="6" height="6" rx="2" ry="2"/>
    <rect class="cls-1" x="13" y="13" width="6" height="6" rx="2" ry="2"/>
    <rect class="cls-1" x="21.5" y="13" width="6" height="6" rx="2" ry="2"/>
    <rect class="cls-1" x="4.5" y="21" width="6" height="6" rx="2" ry="2"/>
    <rect class="cls-1" x="13" y="21" width="6" height="6" rx="2" ry="2"/>
    <rect class="cls-1" x="21.5" y="21" width="6" height="6" rx="2" ry="2"/>
  </g>
</svg>