<?xml version="1.0" encoding="UTF-8"?>
<svg id="OBJECT" xmlns="http://www.w3.org/2000/svg" viewBox="0 0 32 32">
  <defs>
    <style>
      .cls-1 {
        fill: #FD4360;
      }

      .cls-1, .cls-2 {
        stroke-width: 0px;
      }

      .cls-2 {
        fill: #dadada;
      }
    </style>
  </defs>
  <g>
    <path class="cls-2" d="m28.06,1H3.94c-1.62,0-2.94,1.32-2.94,2.94v17.11c0,1.62,1.32,2.94,2.94,2.94h5.54l4.12,5.77c.55.77,1.45,1.23,2.4,1.23s1.84-.46,2.39-1.23l4.12-5.77h5.54c1.62,0,2.94-1.32,2.94-2.94V3.94c0-1.62-1.32-2.94-2.94-2.94Zm.94,20.06c0,.52-.42.94-.94.94h-12.06c-.55,0-1,.45-1,1s.45,1,1,1h4.06l-3.29,4.6c-.35.49-1.18.49-1.53,0l-4.42-6.19c-.19-.26-.49-.42-.81-.42H3.94c-.52,0-.94-.42-.94-.94V3.94c0-.52.42-.94.94-.94h24.11c.52,0,.94.42.94.94v17.11Z"/>
    <path class="cls-2" d="m26.5,17.5h-3.5c-.55,0-1,.45-1,1s.45,1,1,1h3.5c.55,0,1-.45,1-1s-.45-1-1-1Z"/>
    <path class="cls-2" d="m26.5,4.5h-12.5c-.55,0-1,.45-1,1s.45,1,1,1h12.5c.55,0,1-.45,1-1s-.45-1-1-1Z"/>
    <path class="cls-2" d="m26.5,8.83h-8.5c-.55,0-1,.45-1,1s.45,1,1,1h8.5c.55,0,1-.45,1-1s-.45-1-1-1Z"/>
    <path class="cls-2" d="m14.5,8.83h-.5c-.55,0-1,.45-1,1s.45,1,1,1h.5c.55,0,1-.45,1-1s-.45-1-1-1Z"/>
    <path class="cls-2" d="m26.5,13.17h-3.5c-.55,0-1,.45-1,1s.45,1,1,1h3.5c.55,0,1-.45,1-1s-.45-1-1-1Z"/>
  </g>
  <path class="cls-1" d="m19.86,15.33l-1.29-1.29c-.55-.56-1.37-.77-2.13-.57l-2.2.59c-1.38-.8-2.51-1.93-3.31-3.31l.59-2.2c.2-.76-.01-1.57-.57-2.13l-1.29-1.29c-.86-.86-2.25-.86-3.11,0l-1.76,1.76c-.2.2-.3.47-.29.75v.15s0,0,0,0c.15,3.33,1.53,6.45,3.88,8.81s5.48,3.73,8.81,3.88h.15s.03,0,.04,0c.26,0,.52-.1.71-.29l1.76-1.76c.86-.86.86-2.25,0-3.11Z"/>
</svg>