<?xml version="1.0" encoding="UTF-8"?>
<svg id="OBJECT" xmlns="http://www.w3.org/2000/svg" viewBox="0 0 32 32">
  <defs>
    <style>
      .cls-1 {
        fill: #FD4360;
      }

      .cls-1, .cls-2 {
        stroke-width: 0px;
      }

      .cls-2 {
        fill: #dadada;
      }
    </style>
  </defs>
  <g>
    <path class="cls-2" d="m22,20h-12c-3.31,0-6,2.69-6,6v4c0,.55.45,1,1,1h22c.55,0,1-.45,1-1v-4c0-3.31-2.69-6-6-6Zm4,9h-3v-2c0-.55-.45-1-1-1s-1,.45-1,1v2h-10v-2c0-.55-.45-1-1-1s-1,.45-1,1v2h-3v-3c0-2.21,1.79-4,4-4h12c2.21,0,4,1.79,4,4v3Z"/>
    <path class="cls-2" d="m16,19c.85,0,1.69-.22,2.42-.63.48-.27.65-.88.38-1.36-.27-.48-.88-.65-1.36-.38-.43.24-.93.37-1.44.37-1.65,0-3-1.35-3-3v-5c0-.55.45-1,1-1h4c.55,0,1,.45,1,1v2.5c0,.55.45,1,1,1s1-.45,1-1v-2.5c0-1.65-1.35-3-3-3h-4c-1.65,0-3,1.35-3,3v5c0,2.76,2.24,5,5,5Z"/>
  </g>
  <path class="cls-1" d="m25,6.5h-1v-.5c0-2.76-2.24-5-5-5h-6c-2.76,0-5,2.24-5,5v.5h-1c-1.65,0-3,1.35-3,3v3c0,1.65,1.35,3,3,3s3-1.35,3-3v-6.5c0-1.65,1.35-3,3-3h6c1.65,0,3,1.35,3,3v7.5h-5c-.55,0-1,.45-1,1s.45,1,1,1h8c1.65,0,3-1.35,3-3v-3c0-1.65-1.35-3-3-3Z"/>
</svg>