<?xml version="1.0" encoding="UTF-8"?>
<svg id="OBJECT" xmlns="http://www.w3.org/2000/svg" viewBox="0 0 32 32">
  <defs>
    <style>
      .cls-1 {
        fill: #FD4360;
      }

      .cls-2 {
        fill: #dadada;
      }
    </style>
  </defs>
  <path class="cls-2" d="M20.26,22.08c-.25-.22-.54-.39-.86-.5l-.71-.25c-1.06-.37-2.23,0-2.9,.9l-.86,1.17c-2.55-1.63-4.72-3.8-6.35-6.35l1.17-.85c.9-.66,1.28-1.85,.91-2.91l-.25-.71c-.11-.31-.28-.61-.5-.86-3.17-3.59-5.62-2.67-5.89-2.55-.12,.05-.22,.12-.31,.21l-1.96,1.96c-.46,.46-.73,1.06-.75,1.69-.25,7.02,5.02,12.46,5.25,12.7,.22,.22,5.43,5.25,12.21,5.25,.16,0,.32,0,.48,0,.63-.02,1.23-.29,1.69-.75l1.96-1.96c.09-.09,.16-.19,.21-.31,.12-.27,1.04-2.72-2.55-5.89Zm.73,4.98l-1.77,1.77c-.1,.1-.23,.16-.35,.16-6.14,.22-11.17-4.62-11.2-4.66-.05-.05-4.89-5.08-4.67-11.22,0-.12,.06-.25,.17-.35l1.76-1.76c.42-.04,1.7,.03,3.49,2.05,.05,.05,.09,.12,.11,.2l.25,.71c.08,.23,0,.48-.19,.62l-1,.72c-.04-.07-.08-.14-.12-.21l-.58-1.19c-.24-.5-.84-.7-1.34-.45-.5,.24-.7,.84-.45,1.34l.58,1.19c2.2,4.46,5.87,8.13,10.33,10.33l1.19,.58c.14,.07,.29,.1,.44,.1,.37,0,.72-.2,.9-.56,.24-.5,.04-1.09-.46-1.34l-1.19-.58c-.07-.04-.14-.08-.21-.12l.73-1c.14-.2,.4-.27,.62-.19l.71,.25c.07,.02,.14,.06,.19,.11,2.04,1.81,2.1,3.1,2.06,3.48Z"/>
  <g>
    <rect class="cls-1" x="12" y="3.5" width="4" height="10" rx="1" ry="1"/>
    <path class="cls-1" d="M30.59,1.2c-.25-.19-.58-.24-.89-.15l-3.71,1.14v6.82c0,.55-.45,1-1,1s-1-.45-1-1V2.8l-6,1.85v7.71l1.5,.46v3.18c0,1.65,1.35,3,3,3h2c1.65,0,3-1.35,3-3v-.72l2.21,.68c.1,.03,.2,.04,.29,.04,.21,0,.42-.07,.59-.2,.26-.19,.41-.49,.41-.8V2c0-.32-.15-.62-.41-.8Zm-5.09,14.8c0,.55-.45,1-1,1h-2c-.55,0-1-.45-1-1v-2.57l4,1.23v1.34Z"/>
  </g>
</svg>