<?xml version="1.0" encoding="UTF-8"?>
<svg id="OBJECT" xmlns="http://www.w3.org/2000/svg" viewBox="0 0 32 32">
  <defs>
    <style>
      .cls-1 {
        fill: #FD4360;
      }

      .cls-1, .cls-2 {
        stroke-width: 0px;
      }

      .cls-2 {
        fill: #dadada;
      }
    </style>
  </defs>
  <path class="cls-2" d="m30,1c-.55,0-1,.45-1,1v.13l-13.14,1.88c-.49.07-.86.49-.86.99v.5h-3c-.55,0-1,.45-1,1v3c0,1.65,1.35,3,3,3h1v.5c0,.5.37.92.86.99l2.14.31v3.2c0,1.38,1.12,2.5,2.5,2.5h2.51c1,0,1.9-.59,2.3-1.52l1.27-2.96,2.42.35v.13c0,.55.45,1,1,1s1-.45,1-1V2c0-.55-.45-1-1-1ZM14,10.5c-.55,0-1-.45-1-1v-2h2v3h-1Zm9.47,7.2c-.08.18-.26.3-.46.3h-2.51c-.28,0-.5-.22-.5-.5v-2.92l4.53.65-1.06,2.47Zm-6.47-5.56v-6.27l7.09-1.01v5.15c0,.55.45,1,1,1s1-.45,1-1v-5.43l2.91-.42v9.69l-12-1.71Z"/>
  <path class="cls-1" d="m21.98,23.84c-.28-.62-.78-1.11-1.41-1.38l-3.68-1.6c-.34-.15-.73-.1-1.02.13l-2.03,1.59c.63.3,1.28.56,1.97.73.54.13.86.67.73,1.21-.11.46-.52.76-.97.76-.08,0-.16,0-.24-.03-4.37-1.07-7.74-4.45-8.82-8.81-.13-.54.2-1.08.73-1.21.54-.13,1.08.2,1.21.73.2.8.5,1.56.88,2.27l1.66-2.12c.21-.27.27-.62.16-.94l-1.02-3.02c-.22-.66-.69-1.21-1.3-1.54l-2.27-1.23c-1.07-.58-2.41-.38-3.26.47l-1.88,1.88c-.16.16-.25.36-.28.58-.53,3.94.41,7.93,2.63,11.23l.1.15c1.18,1.75,2.67,3.24,4.42,4.42l.15.1c2.7,1.82,5.86,2.77,9.08,2.77.72,0,1.44-.05,2.15-.14.22-.03.42-.13.58-.28l1.94-1.94c.81-.81,1.04-2.06.56-3.1l-.77-1.69Z"/>
</svg>