<?xml version="1.0" encoding="UTF-8"?>
<svg id="OBJECT" xmlns="http://www.w3.org/2000/svg" viewBox="0 0 32 32">
  <defs>
    <style>
      .cls-1 {
        fill: #FD4360;
      }

      .cls-1, .cls-2 {
        stroke-width: 0px;
      }

      .cls-2 {
        fill: #dadada;
      }
    </style>
  </defs>
  <path class="cls-2" d="m21.19,23.75c-.33-.44-.95-.54-1.4-.21l-7.14,5.26c-.38.27-.91.27-1.28,0l-7.93-5.84c-.28-.2-.43-.52-.43-.86s.16-.66.43-.86l1.29-.94,5.46,4.01c.55.4,1.19.61,1.83.61s1.28-.2,1.82-.6l1.85-1.36c.44-.33.54-.95.21-1.4-.33-.44-.95-.54-1.4-.21l-1.85,1.36c-.38.28-.9.28-1.27,0l-7.93-5.83c-.28-.21-.44-.52-.44-.87s.16-.66.43-.86l1.28-.94,5.46,4.02c.36.27.78.45,1.2.53.06.01.12.02.18.02.47,0,.89-.34.98-.82.1-.54-.26-1.06-.8-1.17-.12-.02-.25-.08-.37-.17l-7.93-5.84c-.28-.2-.43-.52-.43-.86s.16-.66.43-.86l7.92-5.84c.38-.27.91-.27,1.28,0l1.85,1.36c.45.33,1.07.23,1.4-.21.33-.44.23-1.07-.21-1.4l-1.86-1.36c-1.09-.79-2.55-.79-3.64,0L2.25,7.44c-.79.59-1.25,1.49-1.25,2.47s.45,1.88,1.25,2.47l.78.57-.78.58c-.79.59-1.24,1.49-1.24,2.47s.45,1.89,1.25,2.48l.78.57-.78.58c-.79.59-1.25,1.49-1.25,2.47s.45,1.88,1.25,2.47l7.94,5.84c.54.39,1.18.59,1.82.59s1.28-.2,1.83-.59l7.15-5.26c.44-.33.54-.95.21-1.4Z"/>
  <path class="cls-1" d="m22,4c-4.96,0-9,4.04-9,9s4.04,9,9,9,9-4.04,9-9-4.04-9-9-9Zm-3.11,10.47c.39.39.39,1.02,0,1.41-.2.2-.45.29-.71.29s-.51-.1-.71-.29l-2.18-2.18c-.39-.39-.39-1.02,0-1.41l2.18-2.18c.39-.39,1.02-.39,1.41,0s.39,1.02,0,1.41l-1.47,1.47,1.47,1.47Zm5.16-5.02l-2.18,7.64c-.13.44-.53.73-.96.73-.09,0-.18-.01-.28-.04-.53-.15-.84-.71-.69-1.24l2.18-7.64c.15-.53.71-.84,1.24-.69.53.15.84.71.69,1.24Zm2.47,6.43c-.2.2-.45.29-.71.29s-.51-.1-.71-.29c-.39-.39-.39-1.02,0-1.41l1.47-1.47-1.47-1.47c-.39-.39-.39-1.02,0-1.41s1.02-.39,1.41,0l2.18,2.18c.39.39.39,1.02,0,1.41l-2.18,2.18Z"/>
</svg>