<?xml version="1.0" encoding="UTF-8"?>
<svg id="OBJECT" xmlns="http://www.w3.org/2000/svg" viewBox="0 0 32 32">
  <defs>
    <style>
      .cls-1 {
        fill: #FD4360;
      }

      .cls-1, .cls-2 {
        stroke-width: 0px;
      }

      .cls-2 {
        fill: #dadada;
      }
    </style>
  </defs>
  <g>
    <path class="cls-2" d="m30.5,15.13l-3.73-2.13,3.73-2.13c.31-.18.5-.51.5-.87s-.19-.69-.5-.87L16.5,1.13c-.31-.18-.69-.18-.99,0L1.5,9.13c-.31.18-.5.51-.5.87s.19.69.5.87l3.73,2.13-3.73,2.13c-.31.18-.5.51-.5.87s.19.69.5.87l14,8c.15.09.33.13.5.13s.34-.04.5-.13l14-8c.31-.18.5-.51.5-.87s-.19-.69-.5-.87ZM16,3.15l11.98,6.85-11.98,6.85-11.98-6.85,11.98-6.85Zm0,19.7l-11.98-6.85,3.23-1.85,8.25,4.72c.15.09.33.13.5.13s.34-.04.5-.13l8.25-4.72,3.23,1.85-11.98,6.85Z"/>
    <path class="cls-2" d="m10,9h-1c-.55,0-1,.45-1,1s.45,1,1,1h1c.55,0,1-.45,1-1s-.45-1-1-1Z"/>
    <path class="cls-2" d="m19.5,10c0-.55-.45-1-1-1h-5c-.55,0-1,.45-1,1s.45,1,1,1h5c.55,0,1-.45,1-1Z"/>
    <path class="cls-2" d="m22,11h1c.55,0,1-.45,1-1s-.45-1-1-1h-1c-.55,0-1,.45-1,1s.45,1,1,1Z"/>
  </g>
  <path class="cls-1" d="m30.5,21.13l-1.72-.98-11.29,6.45c-.45.26-.97.4-1.49.4s-1.04-.14-1.49-.4l-11.29-6.45-1.72.98c-.31.18-.5.51-.5.87s.19.69.5.87l14,8c.15.09.33.13.5.13s.34-.04.5-.13l14-8c.31-.18.5-.51.5-.87s-.19-.69-.5-.87Z"/>
</svg>