<?xml version="1.0" encoding="UTF-8"?>
<svg id="OBJECT" xmlns="http://www.w3.org/2000/svg" viewBox="0 0 512 512">
  <defs>
    <style>
      .cls-1 {
        fill: #FD4360;
      }

      .cls-2 {
        fill: #dadada;
      }
    </style>
  </defs>
  <g>
    <path class="cls-2" d="M489.5,243.5h-232c-12.41,0-22.5,10.09-22.5,22.5v17.5h-35v-55.54c0-4.14-3.36-7.5-7.5-7.5s-7.5,3.36-7.5,7.5V489.5c0,4.14-3.36,7.5-7.5,7.5h-17.5v-112.5c0-9.65-7.85-17.5-17.5-17.5h-50c-9.65,0-17.5,7.85-17.5,17.5v112.5h-17.5c-4.14,0-7.5-3.36-7.5-7.5V227.96c0-4.14-3.36-7.5-7.5-7.5s-7.5,3.36-7.5,7.5V489.5c0,12.41,10.09,22.5,22.5,22.5h120c12.41,0,22.5-10.09,22.5-22.5v-91h35v17.5c0,12.41,10.09,22.5,22.5,22.5h232c12.41,0,22.5-10.09,22.5-22.5v-150c0-12.41-10.09-22.5-22.5-22.5ZM90,384.5c0-1.38,1.12-2.5,2.5-2.5h50c1.38,0,2.5,1.12,2.5,2.5v112.5h-55v-112.5Zm110-1v-85h35v85h-35Zm297,32.5c0,4.14-3.36,7.5-7.5,7.5h-232c-4.14,0-7.5-3.36-7.5-7.5v-150c0-4.14,3.36-7.5,7.5-7.5h232c4.14,0,7.5,3.36,7.5,7.5v150Z"/>
    <path class="cls-2" d="M474.5,273.5h-202c-4.14,0-7.5,3.36-7.5,7.5v120c0,4.14,3.36,7.5,7.5,7.5h202c4.14,0,7.5-3.36,7.5-7.5v-120c0-4.14-3.36-7.5-7.5-7.5Zm-7.5,120h-187v-105h187v105Z"/>
    <path class="cls-2" d="M125,467h-15c-4.14,0-7.5,3.36-7.5,7.5s3.36,7.5,7.5,7.5h15c4.14,0,7.5-3.36,7.5-7.5s-3.36-7.5-7.5-7.5Z"/>
    <path class="cls-2" d="M125,432h-15c-4.14,0-7.5,3.36-7.5,7.5s3.36,7.5,7.5,7.5h15c4.14,0,7.5-3.36,7.5-7.5s-3.36-7.5-7.5-7.5Z"/>
    <path class="cls-2" d="M125,397h-15c-4.14,0-7.5,3.36-7.5,7.5s3.36,7.5,7.5,7.5h15c4.14,0,7.5-3.36,7.5-7.5s-3.36-7.5-7.5-7.5Z"/>
    <path class="cls-2" d="M92.5,352h50c9.65,0,17.5-7.85,17.5-17.5v-20c0-9.65-7.85-17.5-17.5-17.5h-50c-9.65,0-17.5,7.85-17.5,17.5v20c0,9.65,7.85,17.5,17.5,17.5Zm-2.5-37.5c0-1.38,1.12-2.5,2.5-2.5h50c1.38,0,2.5,1.12,2.5,2.5v20c0,1.38-1.12,2.5-2.5,2.5h-50c-1.38,0-2.5-1.12-2.5-2.5v-20Z"/>
    <path class="cls-2" d="M302.5,328.5c4.14,0,7.5-3.36,7.5-7.5v-10c0-4.14-3.36-7.5-7.5-7.5s-7.5,3.36-7.5,7.5v10c0,4.14,3.36,7.5,7.5,7.5Z"/>
    <path class="cls-2" d="M332.5,328.5c4.14,0,7.5-3.36,7.5-7.5v-10c0-4.14-3.36-7.5-7.5-7.5s-7.5,3.36-7.5,7.5v10c0,4.14,3.36,7.5,7.5,7.5Z"/>
    <path class="cls-2" d="M404.5,378.5h30c9.65,0,17.5-7.85,17.5-17.5v-10c0-9.65-7.85-17.5-17.5-17.5h-30c-9.65,0-17.5,7.85-17.5,17.5v10c0,9.65,7.85,17.5,17.5,17.5Zm-2.5-27.5c0-1.38,1.12-2.5,2.5-2.5h30c1.38,0,2.5,1.12,2.5,2.5v10c0,1.38-1.12,2.5-2.5,2.5h-30c-1.38,0-2.5-1.12-2.5-2.5v-10Z"/>
  </g>
  <g>
    <path class="cls-1" d="M117.5,45c-39.98,0-72.5,32.52-72.5,72.5s32.52,72.5,72.5,72.5,72.5-32.52,72.5-72.5S157.48,45,117.5,45Zm0,120c-26.19,0-47.5-21.31-47.5-47.5s21.31-47.5,47.5-47.5c4.03,0,8.03,.51,11.91,1.51,3.23,.83,5.52,3.7,5.62,7.03,.45,14.34,10.45,26.85,24.31,30.43,3.23,.83,5.52,3.7,5.62,7.03v.27c.02,.41,.04,.82,.04,1.23,0,26.19-21.31,47.5-47.5,47.5Z"/>
    <path class="cls-1" d="M117.5,0C52.71,0,0,52.71,0,117.5s52.71,117.5,117.5,117.5,117.5-52.71,117.5-117.5S182.29,0,117.5,0Zm0,205c-48.25,0-87.5-39.25-87.5-87.5S69.25,30,117.5,30s87.5,39.25,87.5,87.5-39.25,87.5-87.5,87.5Z"/>
    <path class="cls-1" d="M120.63,85.15c-1.04-.1-2.09-.15-3.13-.15-17.92,0-32.5,14.58-32.5,32.5s14.58,32.5,32.5,32.5c16.54,0,30.24-12.43,32.25-28.44-15.3-6.19-26.43-20.12-29.11-36.42Z"/>
  </g>
</svg>