<?xml version="1.0" encoding="UTF-8"?>
<svg id="OBJECT" xmlns="http://www.w3.org/2000/svg" viewBox="0 0 32 32">
  <defs>
    <style>
      .cls-1 {
        fill: #FD4360;
      }

      .cls-1, .cls-2 {
        stroke-width: 0px;
      }

      .cls-2 {
        fill: #dadada;
      }
    </style>
  </defs>
  <g>
    <path class="cls-2" d="m18,7.66c.25,0,.5-.09.7-.29.4-.39.4-1.02.02-1.41-1.45-1.48-3.98-1.48-5.43,0-.39.4-.38,1.03.02,1.41.4.39,1.03.38,1.41-.02.69-.7,1.88-.7,2.57,0,.2.2.46.3.71.3Z"/>
    <path class="cls-2" d="m12.71,4.39c.88-.9,2.05-1.39,3.29-1.39s2.41.49,3.29,1.39c.2.2.46.3.71.3s.5-.09.7-.29c.4-.39.4-1.02.02-1.41-1.26-1.29-2.93-2-4.71-2s-3.46.71-4.71,2c-.39.4-.38,1.03.02,1.41.4.39,1.03.38,1.41-.02Z"/>
    <path class="cls-2" d="m15.78,8.2c-.55,0-1,.45-1,1s.45,1,1,1h.44c.55,0,1-.45,1-1s-.45-1-1-1h-.44Z"/>
    <path class="cls-2" d="m28,8h-5.76c-1.14,0-2.17.64-2.68,1.66l-1.17,2.34h-8.38v-1.5c0-1.38-1.12-2.5-2.5-2.5h-1c-1.38,0-2.5,1.12-2.5,2.5v1.5c-1.65,0-3,1.35-3,3v13c0,1.65,1.35,3,3,3h24c1.65,0,3-1.35,3-3V11c0-1.65-1.35-3-3-3Zm-22,2.5c0-.28.22-.5.5-.5h1c.28,0,.5.22.5.5v1.5h-2v-1.5Zm-3,17.5v-7h4c.55,0,1,.45,1,1v7h-4c-.55,0-1-.45-1-1Zm26,0c0,.55-.45,1-1,1H10v-7c0-1.65-1.35-3-3-3H3v-4c0-.55.45-1,1-1h21c.55,0,1-.45,1-1s-.45-1-1-1h-4.38l.72-1.45c.17-.34.51-.55.89-.55h5.76c.55,0,1,.45,1,1v17Z"/>
    <path class="cls-2" d="m7,15h-2c-.55,0-1,.45-1,1s.45,1,1,1h2c.55,0,1-.45,1-1s-.45-1-1-1Z"/>
    <path class="cls-2" d="m5.5,22c-.55,0-1,.45-1,1v4c0,.55.45,1,1,1s1-.45,1-1v-4c0-.55-.45-1-1-1Z"/>
  </g>
  <path class="cls-1" d="m22,22.5c-.55,0-1-.45-1-1s.45-1,1-1h4.91c-.48-2.83-2.94-5-5.91-5-3.31,0-6,2.69-6,6s2.69,6,6,6c2.97,0,5.43-2.17,5.91-5h-4.91Z"/>
</svg>