<?xml version="1.0" encoding="UTF-8"?>
<svg id="OBJECT" xmlns="http://www.w3.org/2000/svg" viewBox="0 0 512 512">
  <defs>
    <style>
      .cls-1 {
        fill: #FD4360;
      }

      .cls-2 {
        fill: #dadada;
      }
    </style>
  </defs>
  <g>
    <path class="cls-2" d="M228.5,133.5h-5c-4.14,0-7.5,3.36-7.5,7.5s3.36,7.5,7.5,7.5h5c4.14,0,7.5-3.36,7.5-7.5s-3.36-7.5-7.5-7.5Z"/>
    <path class="cls-2" d="M489.5,133.5h-7.5v-22.5c0-9.65-7.85-17.5-17.5-17.5h-60c-9.65,0-17.5,7.85-17.5,17.5v22.5h-25.59l-14.87-44.62c-3.07-9.2-11.65-15.38-21.35-15.38H186.81c-9.7,0-18.28,6.18-21.35,15.38l-14.87,44.62h-40.59v-32.5c0-9.65-7.85-17.5-17.5-17.5h-30c-9.65,0-17.5,7.85-17.5,17.5v32.5H22.5c-12.41,0-22.5,10.09-22.5,22.5v240c0,12.41,10.09,22.5,22.5,22.5h122.16c4.14,0,7.5-3.36,7.5-7.5s-3.36-7.5-7.5-7.5h-59.66V226c0-12.41-10.09-22.5-22.5-22.5H15v-47.5c0-4.14,3.36-7.5,7.5-7.5H156c3.23,0,6.09-2.07,7.12-5.13l16.58-49.74c1.02-3.07,3.88-5.13,7.12-5.13h138.38c3.23,0,6.09,2.06,7.12,5.13l13.29,39.87h-89.59c-4.14,0-7.5,3.36-7.5,7.5s3.36,7.5,7.5,7.5h233.5c4.14,0,7.5,3.36,7.5,7.5v127.5h-57.5c-12.41,0-22.5,10.09-22.5,22.5v97.5h-49.66c-4.14,0-7.5,3.36-7.5,7.5s3.36,7.5,7.5,7.5h122.16c12.41,0,22.5-10.09,22.5-22.5V156c0-12.41-10.09-22.5-22.5-22.5ZM62.5,218.5c4.14,0,7.5,3.36,7.5,7.5v177.5H22.5c-4.14,0-7.5-3.36-7.5-7.5V218.5H62.5Zm-2.5-117.5c0-1.38,1.12-2.5,2.5-2.5h30c1.38,0,2.5,1.12,2.5,2.5v32.5H60v-32.5Zm342,10c0-1.38,1.12-2.5,2.5-2.5h60c1.38,0,2.5,1.12,2.5,2.5v22.5h-65v-22.5Zm87.5,292.5h-57.5v-97.5c0-4.14,3.36-7.5,7.5-7.5h57.5v97.5c0,4.14-3.36,7.5-7.5,7.5Z"/>
    <path class="cls-2" d="M464.5,218.5c9.65,0,17.5-7.85,17.5-17.5v-20c0-9.65-7.85-17.5-17.5-17.5h-50c-9.65,0-17.5,7.85-17.5,17.5v20c0,9.65,7.85,17.5,17.5,17.5h50Zm-52.5-17.5v-20c0-1.38,1.12-2.5,2.5-2.5h50c1.38,0,2.5,1.12,2.5,2.5v20c0,1.38-1.12,2.5-2.5,2.5h-50c-1.38,0-2.5-1.12-2.5-2.5Z"/>
    <path class="cls-2" d="M231,111c0-4.14-3.36-7.5-7.5-7.5h-15c-4.14,0-7.5,3.36-7.5,7.5s3.36,7.5,7.5,7.5h15c4.14,0,7.5-3.36,7.5-7.5Z"/>
    <path class="cls-2" d="M263.5,118.5c4.14,0,7.5-3.36,7.5-7.5s-3.36-7.5-7.5-7.5h-15c-4.14,0-7.5,3.36-7.5,7.5s3.36,7.5,7.5,7.5h15Z"/>
    <path class="cls-2" d="M303.5,118.5c4.14,0,7.5-3.36,7.5-7.5s-3.36-7.5-7.5-7.5h-15c-4.14,0-7.5,3.36-7.5,7.5s3.36,7.5,7.5,7.5h15Z"/>
    <path class="cls-2" d="M42.5,388.5c4.14,0,7.5-3.36,7.5-7.5v-100c0-4.14-3.36-7.5-7.5-7.5s-7.5,3.36-7.5,7.5v100c0,4.14,3.36,7.5,7.5,7.5Z"/>
    <path class="cls-2" d="M42.5,258.5c4.14,0,7.5-3.36,7.5-7.5v-10c0-4.14-3.36-7.5-7.5-7.5s-7.5,3.36-7.5,7.5v10c0,4.14,3.36,7.5,7.5,7.5Z"/>
    <path class="cls-2" d="M472,313.5h-15c-4.14,0-7.5,3.36-7.5,7.5s3.36,7.5,7.5,7.5h15c4.14,0,7.5-3.36,7.5-7.5s-3.36-7.5-7.5-7.5Z"/>
    <path class="cls-2" d="M472,343.5h-15c-4.14,0-7.5,3.36-7.5,7.5s3.36,7.5,7.5,7.5h15c4.14,0,7.5-3.36,7.5-7.5s-3.36-7.5-7.5-7.5Z"/>
    <path class="cls-2" d="M472,373.5h-15c-4.14,0-7.5,3.36-7.5,7.5s3.36,7.5,7.5,7.5h15c4.14,0,7.5-3.36,7.5-7.5s-3.36-7.5-7.5-7.5Z"/>
  </g>
  <g>
    <path class="cls-1" d="M256,228.5c-45.49,0-82.5,37.01-82.5,82.5s37.01,82.5,82.5,82.5,82.5-37.01,82.5-82.5-37.01-82.5-82.5-82.5Zm35.63,139.84c-1.51,.94-3.08,1.83-4.66,2.64-1.1,.57-2.27,.83-3.43,.83-2.72,0-5.34-1.48-6.67-4.06-1.9-3.68-.45-8.21,3.23-10.1,1.23-.63,2.44-1.32,3.61-2.05,3.52-2.19,8.14-1.11,10.33,2.41,2.19,3.52,1.11,8.14-2.41,10.33Zm16.96-15.02c-1.48,1.84-3.65,2.79-5.85,2.79-1.65,0-3.31-.54-4.7-1.66-3.23-2.6-3.73-7.32-1.13-10.55,16.85-20.91,15.22-51.02-3.79-70.03-2.93-2.93-2.93-7.68,0-10.61,2.93-2.93,7.68-2.93,10.61,0,24.44,24.44,26.53,63.15,4.86,90.05Z"/>
    <path class="cls-1" d="M256,183.5c-70.3,0-127.5,57.2-127.5,127.5s57.2,127.5,127.5,127.5,127.5-57.2,127.5-127.5-57.2-127.5-127.5-127.5Zm0,225c-53.76,0-97.5-43.74-97.5-97.5s43.74-97.5,97.5-97.5,97.5,43.74,97.5,97.5-43.74,97.5-97.5,97.5Z"/>
  </g>
</svg>