<?xml version="1.0" encoding="UTF-8"?>
<svg id="OBJECT" xmlns="http://www.w3.org/2000/svg" viewBox="0 0 32 32">
  <defs>
    <style>
      .cls-1 {
        fill: #FD4360;
      }

      .cls-1, .cls-2 {
        stroke-width: 0px;
      }

      .cls-2 {
        fill: #dadada;
      }
    </style>
  </defs>
  <g>
    <path class="cls-2" d="m28,7h-4.28l-1.32-3.95c-.41-1.23-1.55-2.05-2.85-2.05h-7.12c-1.29,0-2.44.82-2.85,2.05l-1.32,3.95h-4.28c-1.65,0-3,1.35-3,3v18c0,1.65,1.35,3,3,3h24c1.65,0,3-1.35,3-3V10c0-1.65-1.35-3-3-3Zm0,22H4c-.55,0-1-.45-1-1v-4h3.08c.55,0,1-.45,1-1s-.45-1-1-1h-3.08v-6h3.08c.55,0,1-.45,1-1s-.45-1-1-1h-3.08v-4c0-.55.45-1,1-1h5c.43,0,.81-.28.95-.68l1.54-4.63c.14-.41.52-.68.95-.68h7.12c.43,0,.81.27.95.68l1.11,3.32h-.62c-.55,0-1,.45-1,1s.45,1,1,1h7.01c.55,0,1,.45,1,1v4h-3.08c-.55,0-1,.45-1,1s.45,1,1,1h3.08v6h-3.08c-.55,0-1,.45-1,1s.45,1,1,1h3.08v4c0,.55-.45,1-1,1Z"/>
    <path class="cls-2" d="m17.5,5h-3c-.55,0-1,.45-1,1s.45,1,1,1h3c.55,0,1-.45,1-1s-.45-1-1-1Z"/>
  </g>
  <g>
    <path class="cls-1" d="m16,10c-4.96,0-9,4.04-9,9s4.04,9,9,9,9-4.04,9-9-4.04-9-9-9Zm0,16c-3.86,0-7-3.14-7-7s3.14-7,7-7,7,3.14,7,7-3.14,7-7,7Z"/>
    <path class="cls-1" d="m20.82,18.28c-1.38-.5-2.31-1.81-2.32-3.26,0-.04.02-.16.02-.19.02-.44-.25-.83-.66-.98-3.77-1.37-7.36,1.52-7.36,5.16,0,3.03,2.47,5.5,5.5,5.5s5.33-2.3,5.48-5.23c.02-.44-.25-.84-.66-.99Z"/>
  </g>
</svg>