<?xml version="1.0" encoding="UTF-8"?>
<svg id="OBJECT" xmlns="http://www.w3.org/2000/svg" viewBox="0 0 32 32">
  <defs>
    <style>
      .cls-1 {
        fill: #FD4360;
      }

      .cls-1, .cls-2 {
        stroke-width: 0px;
      }

      .cls-2 {
        fill: #dadada;
      }
    </style>
  </defs>
  <g>
    <path class="cls-2" d="m23,1h-14c-2.76,0-5,2.24-5,5v5c0,2.76,2.24,5,5,5h3.5v5h-2c-.55,0-1,.45-1,1s.45,1,1,1h11c.55,0,1-.45,1-1s-.45-1-1-1h-2v-5h3.5c2.76,0,5-2.24,5-5v-5c0-2.76-2.24-5-5-5Zm-5.5,20h-3v-5h3v5Zm8.5-10c0,1.65-1.35,3-3,3h-14c-1.65,0-3-1.35-3-3v-5c0-1.65,1.35-3,3-3h14c1.65,0,3,1.35,3,3v5Z"/>
    <path class="cls-2" d="m24,17.23h-2.5c-.55,0-1,.45-1,1s.45,1,1,1h2.5c1.1,0,2,.9,2,2v3.27c0,1.1-.9,2-2,2h-1.59c-.55,0-1,.45-1,1s.45,1,1,1h1.59c2.21,0,4-1.79,4-4v-3.27c0-2.21-1.79-4-4-4Z"/>
    <path class="cls-2" d="m17.46,24.29c-.39-.39-1.02-.39-1.41,0s-.39,1.02,0,1.41l.79.79h-8.84c-1.1,0-2-.9-2-2v-3.27c0-1.1.9-2,2-2h2.5c.55,0,1-.45,1-1s-.45-1-1-1h-2.5c-2.21,0-4,1.79-4,4v3.27c0,2.21,1.79,4,4,4h8.84l-.79.79c-.39.39-.39,1.02,0,1.41.2.2.45.29.71.29s.51-.1.71-.29l2.5-2.5c.39-.39.39-1.02,0-1.41l-2.5-2.5Z"/>
  </g>
  <g>
    <path class="cls-1" d="m19.6,6.96c-1.06-.17-1.89-1-2.06-2.06-.07-.43-.4-.76-.83-.83-.23-.04-.47-.07-.71-.07-2.48,0-4.5,2.02-4.5,4.5s2.02,4.5,4.5,4.5,4.5-2.02,4.5-4.5c0-.24-.03-.48-.07-.71-.07-.43-.4-.76-.83-.83Z"/>
    <path class="cls-1" d="m23.5,7c-.55,0-1,.45-1,1v1c0,.55.45,1,1,1s1-.45,1-1v-1c0-.55-.45-1-1-1Z"/>
    <path class="cls-1" d="m8.5,7c-.55,0-1,.45-1,1v1c0,.55.45,1,1,1s1-.45,1-1v-1c0-.55-.45-1-1-1Z"/>
  </g>
</svg>