<?xml version="1.0" encoding="UTF-8"?>
<svg id="OBJECT" xmlns="http://www.w3.org/2000/svg" viewBox="0 0 32 32">
  <defs>
    <style>
      .cls-1 {
        fill: #FD4360;
      }

      .cls-2 {
        fill: #dadada;
      }
    </style>
  </defs>
  <g>
    <path class="cls-2" d="M28,7h-3.28l-1.32-3.95c-.41-1.23-1.55-2.05-2.85-2.05H11.44c-1.29,0-2.44,.82-2.85,2.05l-1.32,3.95h-3.28c-1.65,0-3,1.35-3,3V28c0,1.65,1.35,3,3,3H28c1.65,0,3-1.35,3-3V10c0-1.65-1.35-3-3-3Zm1,21c0,.55-.45,1-1,1H4c-.55,0-1-.45-1-1V10c0-.55,.45-1,1-1h4c.43,0,.81-.28,.95-.68l1.54-4.63c.14-.41,.52-.68,.95-.68h9.12c.43,0,.81,.27,.95,.68l1.54,4.63c.14,.41,.52,.68,.95,.68h4c.55,0,1,.45,1,1V28Z"/>
    <path class="cls-2" d="M17.5,5h-3c-.55,0-1,.45-1,1s.45,1,1,1h3c.55,0,1-.45,1-1s-.45-1-1-1Z"/>
  </g>
  <g>
    <path class="cls-1" d="M16,9c-4.96,0-9,4.04-9,9s4.04,9,9,9,9-4.04,9-9-4.04-9-9-9Zm0,16c-3.86,0-7-3.14-7-7s3.14-7,7-7,7,3.14,7,7-3.14,7-7,7Z"/>
    <path class="cls-1" d="M20.98,17.81c-.02-.44-.32-.82-.75-.93-1.28-.34-2.18-1.45-2.23-2.78-.02-.44-.32-.82-.74-.93-.46-.12-.87-.18-1.27-.18-2.76,0-5,2.24-5,5s2.24,5,5,5,5-2.24,5-5c0-.08,0-.15-.02-.19Z"/>
  </g>
</svg>