<?xml version="1.0" encoding="UTF-8"?>
<svg id="OBJECT" xmlns="http://www.w3.org/2000/svg" viewBox="0 0 32 32">
  <defs>
    <style>
      .cls-1 {
        fill: #FD4360;
      }

      .cls-2 {
        fill: #dadada;
      }
    </style>
  </defs>
  <path class="cls-2" d="M30,25v-5c0-.13-.03-.26-.08-.39-.05-.12-.12-.23-.22-.32l-4-4c-.19-.19-.44-.29-.71-.29h-3v-2c0-.55-.45-1-1-1h-1.63c-.55,0-1,.45-1,1s.45,1,1,1h.63v11H4V14h.63c.55,0,1-.45,1-1s-.45-1-1-1h-1.63c-.55,0-1,.45-1,1v12c-.55,0-1,.45-1,1s.45,1,1,1h2v.5c0,1.93,1.57,3.5,3.5,3.5s3.5-1.57,3.5-3.5v-.5h11v.5c0,1.93,1.57,3.5,3.5,3.5s3.5-1.57,3.5-3.5v-.5h1c.55,0,1-.45,1-1s-.45-1-1-1Zm-8-8h2.59l2,2h-1.59c-.55,0-1,.45-1,1s.45,1,1,1h3v4h-6v-8Zm-13,10.5c0,.83-.67,1.5-1.5,1.5s-1.5-.67-1.5-1.5v-.5h3v.5Zm18,0c0,.83-.67,1.5-1.5,1.5s-1.5-.67-1.5-1.5v-.5h3v.5Z"/>
  <circle class="cls-1" cx="12" cy="8.38" r="2"/>
  <path class="cls-1" d="M8.31,14.76l1.78,4c.33,.75,1.08,1.24,1.91,1.24s1.58-.49,1.91-1.24l1.78-4c2.28-1.32,3.69-3.73,3.69-6.38,0-2.01-.8-3.89-2.24-5.29-1.44-1.4-3.33-2.13-5.36-2.08-3.93,.12-7.14,3.42-7.15,7.36,0,2.66,1.4,5.08,3.69,6.4Zm3.69-10.38c2.21,0,4,1.79,4,4s-1.79,4-4,4-4-1.79-4-4,1.79-4,4-4Z"/>
</svg>