<?xml version="1.0" encoding="UTF-8"?>
<svg id="OBJECT" xmlns="http://www.w3.org/2000/svg" viewBox="0 0 32 32">
  <defs>
    <style>
      .cls-1 {
        fill: #FD4360;
      }

      .cls-1, .cls-2 {
        stroke-width: 0px;
      }

      .cls-2 {
        fill: #dadada;
      }
    </style>
  </defs>
  <g>
    <path class="cls-2" d="m29.34,6.56l-2.2-1.11c-.14-.07-.3-.11-.46-.11-.55,0-1,.45-1,1,0,.4.24.75.59.91l2.17,1.1c.34.17.56.51.56.9v18.76c0,.55-.45,1-1,1h-11v-14c0-.55-.45-1-1-1s-1,.45-1,1v14H4c-.55,0-1-.45-1-1V9.24c0-.38.21-.72.56-.9l2.12-1.07c.37-.15.63-.51.63-.93,0-.55-.45-1-1-1-.16,0-.31.04-.45.11l-2.2,1.11c-1.03.51-1.66,1.54-1.66,2.68v18.76c0,1.65,1.35,3,3,3h24c1.65,0,3-1.35,3-3V9.24c0-1.14-.64-2.17-1.66-2.68Z"/>
    <path class="cls-2" d="m20,23h6c.55,0,1-.45,1-1s-.45-1-1-1h-6c-.55,0-1,.45-1,1s.45,1,1,1Z"/>
    <path class="cls-2" d="m5,22c0,.55.45,1,1,1h6c.55,0,1-.45,1-1s-.45-1-1-1h-6c-.55,0-1,.45-1,1Z"/>
  </g>
  <g>
    <polygon class="cls-1" points="10 1 16 11.05 22 1 10 1"/>
    <path class="cls-1" d="m24.83,4.45l-1.35-2.03-5.68,9.53,2.06.96c.14.06.28.09.42.09.36,0,.7-.19.88-.53l3.72-7c.17-.33.15-.72-.05-1.02Z"/>
    <path class="cls-1" d="m7.17,4.45c-.2.31-.22.7-.05,1.02l3.72,7c.25.47.82.66,1.31.44l2.06-.96L8.52,2.42l-1.35,2.03Z"/>
  </g>
</svg>