<?xml version="1.0" encoding="UTF-8"?>
<svg id="OBJECT" xmlns="http://www.w3.org/2000/svg" viewBox="0 0 32 32">
  <defs>
    <style>
      .cls-1 {
        fill: #FD4360;
      }

      .cls-1, .cls-2 {
        stroke-width: 0px;
      }

      .cls-2 {
        fill: #dadada;
      }
    </style>
  </defs>
  <g>
    <path class="cls-2" d="m10.29,7.59c.55,0,.99-.44,1-.99,0-.55-.44-1.01-.99-1.01-1.29,0-2.46.47-3.35,1.36s-1.37,2.08-1.36,3.35c0,.55.45.99,1,.99h.01c.55,0,.99-.46.99-1.01,0-.73.27-1.41.77-1.92.5-.5,1.17-.77,1.88-.77.01,0,.03,0,.04,0Z"/>
    <path class="cls-2" d="m10.4,2.01c0-.55-.44-1-.99-1.01-2.26,0-4.4.84-5.99,2.43S.98,7.14,1,9.41c0,.55.45.99,1,.99h.01c.55,0,.99-.46.99-1.01-.02-1.73.63-3.34,1.84-4.55,1.21-1.21,2.84-1.83,4.55-1.84.6,0,1-.44,1.01-.99Z"/>
    <path class="cls-2" d="m11.3,11.71l.41-.41c.39-.39.39-1.02,0-1.41s-1.02-.39-1.41,0l-.41.41c-.39.39-.39,1.02,0,1.41.2.2.45.29.71.29s.51-.1.71-.29Z"/>
    <path class="cls-2" d="m30.21,1.77c-1.02-1.03-2.82-1.03-3.84,0l-2.16,2.16c-.17-.12-.36-.2-.57-.2-.27,0-.52.11-.71.29l-12.13,12.13c-.39.39-.39,1.02,0,1.41l3.64,3.64c.19.19.44.29.71.29s.52-.11.71-.29l9.03-9.03.51.51c.48.48.48,1.27,0,1.75l-3.17,3.17c-.39.39-.39,1.02,0,1.41.2.2.45.29.71.29s.51-.1.71-.29l3.17-3.17c1.26-1.26,1.26-3.32,0-4.58l-.51-.51,1.69-1.69c.36-.36.37-.92.07-1.31l2.16-2.16c1.06-1.06,1.06-2.78,0-3.84Zm-15.06,17.31l-2.23-2.23,1.82-1.82,2.23,2.23-1.82,1.82Zm3.24-3.23l-2.23-2.23,7.48-7.48,2.23,2.23-7.48,7.48Zm10.41-11.65l-2.14,2.14-1.01-1.01,2.14-2.14c.27-.27.74-.27,1.01,0,.28.28.28.73,0,1.01Z"/>
  </g>
  <path class="cls-1" d="m4.36,23.4c-.41.41-.71.93-.86,1.49l-.78,2.98-1.43,1.43c-.39.39-.39,1.02,0,1.41.2.2.45.29.71.29s.51-.1.71-.29l1.43-1.43,2.98-.78h0c.56-.15,1.08-.44,1.49-.85l5.13-5.13-4.24-4.24-5.13,5.13Z"/>
</svg>