<?xml version="1.0" encoding="UTF-8"?>
<svg id="OBJECT" xmlns="http://www.w3.org/2000/svg" viewBox="0 0 32 32">
  <defs>
    <style>
      .cls-1 {
        fill: #FD4360;
      }

      .cls-1, .cls-2 {
        stroke-width: 0px;
      }

      .cls-2 {
        fill: #dadada;
      }
    </style>
  </defs>
  <path class="cls-2" d="m30,8c.55,0,1-.45,1-1V2c0-.55-.45-1-1-1h-5.5c-.55,0-1,.45-1,1v9h-1c-.55,0-1,.45-1,1v13.5h-1v-9.5c0-.55-.45-1-1-1h-4c-.55,0-1,.45-1,1v9.5H2c-.55,0-1,.45-1,1v2c0,1.38,1.12,2.5,2.5,2.5h25c1.38,0,2.5-1.12,2.5-2.5v-2c0-.55-.45-1-1-1h-2.5v-13.5c0-.55-.45-1-1-1h-1v-3h4.5Zm-4.5-5h3.5v3h-3.5v-3Zm-9,14h2v8.5h-2v-8.5Zm12.5,11.5c0,.28-.22.5-.5.5H3.5c-.28,0-.5-.22-.5-.5v-1h26v1Zm-5.5-3v-12.5h2v12.5h-2Z"/>
  <g>
    <path class="cls-1" d="m11.46,16.01c-.82,1.65-2.5,2.79-4.46,2.79s-3.65-1.15-4.46-2.79c-.95,1.06-1.54,2.46-1.54,3.99v1.5c0,1.38,1.12,2.5,2.5,2.5h7c1.38,0,2.5-1.12,2.5-2.5v-1.5c0-1.53-.58-2.93-1.54-3.99Z"/>
    <path class="cls-1" d="m7,16.8c1.65,0,3-1.35,3-3v-1.2c0-1.43-1.17-2.6-2.6-2.6h-.8c-1.43,0-2.6,1.17-2.6,2.6v1.2c0,1.65,1.35,3,3,3Z"/>
  </g>
</svg>