<?xml version="1.0" encoding="UTF-8"?>
<svg id="OBJECT" xmlns="http://www.w3.org/2000/svg" viewBox="0 0 32 32">
  <defs>
    <style>
      .cls-1 {
        fill: #FD4360;
      }

      .cls-1, .cls-2 {
        stroke-width: 0px;
      }

      .cls-2 {
        fill: #dadada;
      }
    </style>
  </defs>
  <g>
    <path class="cls-2" d="m26,12h-8c-.55,0-1,.45-1,1v5h-7c-.55,0-1,.45-1,1v4H2c-.55,0-1,.45-1,1v6c0,.55.45,1,1,1h24c.55,0,1-.45,1-1V13c0-.55-.45-1-1-1Zm-1,17H3v-4h6v1c0,.55.45,1,1,1s1-.45,1-1v-6h6v1c0,.55.45,1,1,1s1-.45,1-1v-7h6v15Z"/>
    <path class="cls-2" d="m21.5,28h1c.55,0,1-.45,1-1s-.45-1-1-1h-1c-.55,0-1,.45-1,1s.45,1,1,1Z"/>
    <path class="cls-2" d="m17.5,26c-.55,0-1,.45-1,1s.45,1,1,1h1c.55,0,1-.45,1-1s-.45-1-1-1h-1Z"/>
  </g>
  <path class="cls-1" d="m30,1h-8c-.55,0-1,.45-1,1v8h2v-2h7c.55,0,1-.45,1-1V2c0-.55-.45-1-1-1Z"/>
</svg>