<?xml version="1.0" encoding="UTF-8"?>
<svg id="OBJECT" xmlns="http://www.w3.org/2000/svg" viewBox="0 0 32 32">
  <defs>
    <style>
      .cls-1 {
        fill: #FD4360;
      }

      .cls-1, .cls-2 {
        stroke-width: 0px;
      }

      .cls-2 {
        fill: #dadada;
      }
    </style>
  </defs>
  <path class="cls-1" d="m25.33,24.5H2.28l-1.15,2c-.18.31-.18.69,0,1,.18.31.51.5.87.5h23c.31,0,.61-.15.8-.4.19-.25.25-.58.16-.88l-.64-2.23Z"/>
  <g>
    <path class="cls-2" d="m30.9,15.57c-.17-.35-.52-.57-.9-.57h-3v-3c0-.55-.45-1-1-1h-1.5v-6c0-.55-.45-1-1-1s-1,.45-1,1v6h-1.71c-.55,0-1,.45-1,1v3h-2.79v-3.5c0-1.38-1.12-2.5-2.5-2.5h-.89v-4c0-.55-.45-1-1-1h-5.21c-.55,0-1,.45-1,1v4h-.89c-1.38,0-2.5,1.12-2.5,2.5v3.5h-1c-.31,0-.6.14-.79.39s-.25.57-.17.87l1.73,6.5c.12.45.52.74.97.74.09,0,.17-.01.26-.03.53-.14.85-.69.71-1.22l-.33-1.24h14.13c.55,0,1-.45,1-1s-.45-1-1-1H3.83l-.53-2h24.62l-3.9,4.88c-.34.43-.27,1.06.16,1.41.43.35,1.06.27,1.41-.16l5.2-6.5c.24-.3.29-.71.12-1.06Zm-9.11-2.57h3.21v2h-3.21v-2Zm-13.4-7h3.21v3h-3.21v-3Zm-3.39,5.5c0-.28.22-.5.5-.5h9c.28,0,.5.22.5.5v3.5H5v-3.5Z"/>
    <path class="cls-2" d="m8.5,12h-1c-.55,0-1,.45-1,1s.45,1,1,1h1c.55,0,1-.45,1-1s-.45-1-1-1Z"/>
    <path class="cls-2" d="m12.5,12h-1c-.55,0-1,.45-1,1s.45,1,1,1h1c.55,0,1-.45,1-1s-.45-1-1-1Z"/>
    <path class="cls-2" d="m22.5,19h-1c-.55,0-1,.45-1,1s.45,1,1,1h1c.55,0,1-.45,1-1s-.45-1-1-1Z"/>
  </g>
</svg>