<?xml version="1.0" encoding="UTF-8"?>
<svg id="OBJECT" xmlns="http://www.w3.org/2000/svg" viewBox="0 0 32 32">
  <defs>
    <style>
      .cls-1 {
        fill: #FD4360;
      }

      .cls-1, .cls-2 {
        stroke-width: 0px;
      }

      .cls-2 {
        fill: #dadada;
      }
    </style>
  </defs>
  <g>
    <path class="cls-2" d="m15.5,7h1c.55,0,1-.45,1-1s-.45-1-1-1h-1c-.55,0-1,.45-1,1s.45,1,1,1Z"/>
    <path class="cls-2" d="m20,19h-.5v-8.46l1.05-.7c.28-.19.45-.5.45-.83v-5c0-1.65-1.35-3-3-3h-4c-1.65,0-3,1.35-3,3v5c0,.33.17.65.45.83l1.05.7v8.46h-.5c-1.65,0-3,1.35-3,3v2c0,.55.45,1,1,1s1-.45,1-1v-2c0-.55.45-1,1-1h8c.55,0,1,.45,1,1v2c0,.55.45,1,1,1s1-.45,1-1v-2c0-1.65-1.35-3-3-3Zm-5.95-9.83l-1.05-.7v-4.46c0-.55.45-1,1-1h4c.55,0,1,.45,1,1v4.46l-1.05.7c-.28.19-.45.5-.45.83v9h-3v-9c0-.33-.17-.65-.45-.83Z"/>
  </g>
  <path class="cls-1" d="m27,29h-.72l-.5-2H6.22l-.5,2h-.72c-.55,0-1,.45-1,1s.45,1,1,1h22c.55,0,1-.45,1-1s-.45-1-1-1Z"/>
</svg>