<?xml version="1.0" encoding="UTF-8"?>
<svg id="OBJECT" xmlns="http://www.w3.org/2000/svg" viewBox="0 0 32 32">
  <defs>
    <style>
      .cls-1 {
        fill: #FD4360;
      }

      .cls-1, .cls-2 {
        stroke-width: 0px;
      }

      .cls-2 {
        fill: #dadada;
      }
    </style>
  </defs>
  <g>
    <path class="cls-2" d="m21,29h-1v-3c0-.55-.45-1-1-1h-2v-3c0-.55-.45-1-1-1h-1.5v-9.59l1.12-1.12c.57-.57.88-1.32.88-2.12v-4.17c0-1.65-1.35-3-3-3h-4c-1.65,0-3,1.35-3,3v4.17c0,.8.31,1.55.88,2.12l1.12,1.12v9.59h-1.5c-.55,0-1,.45-1,1v3h-2c-.55,0-1,.45-1,1v3h-1c-.55,0-1,.45-1,1s.45,1,1,1h19c.55,0,1-.45,1-1s-.45-1-1-1ZM10.21,10.29l-1.41-1.41c-.19-.19-.29-.44-.29-.71v-4.17c0-.55.45-1,1-1h4c.55,0,1,.45,1,1v4.17c0,.26-.11.52-.29.71l-1.41,1.41c-.19.19-.29.44-.29.71v10h-2v-10c0-.27-.11-.52-.29-.71Zm-2.21,12.71h7v2h-7v-2Zm-3,4h13v2H5v-2Z"/>
    <path class="cls-2" d="m12,7c.55,0,1-.45,1-1s-.45-1-1-1h-1c-.55,0-1,.45-1,1s.45,1,1,1h1Z"/>
  </g>
  <path class="cls-1" d="m23.5,7.5c-4.14,0-7.5,3.36-7.5,7.5s3.36,7.5,7.5,7.5,7.5-3.36,7.5-7.5-3.36-7.5-7.5-7.5Zm-.65,6.5h1.3c1.27,0,2.3,1.03,2.3,2.3,0,1.15-.85,2.09-1.95,2.26v.34c0,.55-.45,1-1,1s-1-.45-1-1v-.3h-.95c-.55,0-1-.45-1-1s.45-1,1-1h2.6c.17,0,.3-.13.3-.3s-.13-.3-.3-.3h-1.3c-1.27,0-2.3-1.03-2.3-2.3,0-1.15.85-2.09,1.95-2.26v-.34c0-.55.45-1,1-1s1,.45,1,1v.3h.95c.55,0,1,.45,1,1s-.45,1-1,1h-2.6c-.17,0-.3.13-.3.3s.13.3.3.3Z"/>
</svg>