<?xml version="1.0" encoding="UTF-8"?>
<svg id="OBJECT" xmlns="http://www.w3.org/2000/svg" viewBox="0 0 32 32">
  <defs>
    <style>
      .cls-1 {
        fill: #FD4360;
      }

      .cls-1, .cls-2 {
        stroke-width: 0px;
      }

      .cls-2 {
        fill: #dadada;
      }
    </style>
  </defs>
  <path class="cls-2" d="m30.07,2.66l-.76-.76c-1.19-1.19-3.27-1.19-4.47,0l-2.29,2.29c-.15.15-.25.35-.28.57l-.14,1.01-3.64,3.64-1.01-1.01c-.32-.32-.83-.39-1.22-.15l-3.15,1.89-.83-.83c-1.19-1.19-3.27-1.19-4.47,0l-1.53,1.53c-.19.19-.29.44-.29.71s.11.52.29.71l13.45,13.45c.19.19.44.29.71.29s.52-.11.71-.29l1.53-1.53c.6-.6.93-1.39.93-2.23s-.33-1.64-.93-2.23l-.83-.83,1.89-3.15c.24-.39.17-.9-.15-1.22l-1.01-1.01,3.64-3.64,1.01-.14c.21-.03.41-.13.57-.28l2.29-2.29c.6-.6.93-1.39.93-2.23s-.33-1.64-.93-2.23Zm-8.81,20.08l-.82.82-12.03-12.03.82-.82c.44-.44,1.2-.44,1.64,0l10.39,10.4c.22.22.34.51.34.82s-.12.6-.34.82Zm-6.69-11.16l2.05-1.23,5,5-1.23,2.05-5.82-5.82Zm14.09-5.87l-2.05,2.05-1.01.14c-.21.03-.41.13-.57.28l-3.87,3.87-1.26-1.26,3.87-3.87c.15-.15.25-.35.28-.57l.14-1.01,2.05-2.05c.44-.44,1.2-.44,1.64,0l.76.76c.22.22.34.51.34.82s-.12.6-.34.82Z"/>
  <path class="cls-1" d="m8.22,17.01c-.07,0-.14-.01-.22-.01-3.86,0-7,3.14-7,7s3.14,7,7,7,7-3.14,7-7c0-.07,0-.14-.01-.22l-6.77-6.77Zm2.99,6.17l-3.06,3.06c-.2.2-.45.29-.71.29s-.51-.1-.71-.29l-1.94-1.94c-.39-.39-.39-1.02,0-1.41s1.02-.39,1.41,0l1.24,1.24,2.35-2.35c.39-.39,1.02-.39,1.41,0s.39,1.02,0,1.41Z"/>
</svg>