<?xml version="1.0" encoding="UTF-8"?>
<svg id="OBJECT" xmlns="http://www.w3.org/2000/svg" viewBox="0 0 32 32">
  <defs>
    <style>
      .cls-1 {
        fill: #FD4360;
      }

      .cls-1, .cls-2 {
        stroke-width: 0px;
      }

      .cls-2 {
        fill: #dadada;
      }
    </style>
  </defs>
  <g>
    <path class="cls-2" d="m20.17,23.24c.71-2.89,3.57-4.33,3.6-4.34.34-.17.56-.52.56-.9,0-.38-.22-.73-.56-.9-.03-.01-2.89-1.45-3.6-4.34-.11-.45-.51-.76-.97-.76h-7.2v2h6.46c.68,1.9,2,3.21,3.03,4-1.03.79-2.35,2.1-3.03,4h-6.46v2h7.2c.46,0,.86-.31.97-.76Z"/>
    <path class="cls-2" d="m30,14.5c.55,0,1-.45,1-1s-.45-1-1-1h-2v-2.5h2c.55,0,1-.45,1-1s-.45-1-1-1H13c-.55,0-1,.45-1,1s.45,1,1,1h13v16h-13c-.55,0-1,.45-1,1s.45,1,1,1h17c.55,0,1-.45,1-1s-.45-1-1-1h-2v-2.5h2c.55,0,1-.45,1-1s-.45-1-1-1h-2v-2.5h2c.55,0,1-.45,1-1s-.45-1-1-1h-2v-2.5h2Z"/>
    <path class="cls-2" d="m13,20c.55,0,1-.45,1-1v-2c0-.55-.45-1-1-1s-1,.45-1,1v2c0,.55.45,1,1,1Z"/>
    <path class="cls-2" d="m18,19v-2c0-.55-.45-1-1-1s-1,.45-1,1v2c0,.55.45,1,1,1s1-.45,1-1Z"/>
  </g>
  <g>
    <path class="cls-1" d="m5.5,4c-2.52,0-4.5,1.54-4.5,3.5v13c1.16-.93,2.74-1.5,4.5-1.5s3.34.57,4.5,1.5V7.5c0-1.96-1.98-3.5-4.5-3.5Z"/>
    <ellipse class="cls-1" cx="5.5" cy="24.5" rx="4.5" ry="3.5"/>
  </g>
</svg>