<?xml version="1.0" encoding="UTF-8"?>
<svg id="OBJECT" xmlns="http://www.w3.org/2000/svg" viewBox="0 0 512 512">
  <defs>
    <style>
      .cls-1 {
        fill: #FD4360;
      }

      .cls-2 {
        fill: #dadada;
      }
    </style>
  </defs>
  <g>
    <path class="cls-2" d="M227,244.5v70c0,9.65,7.85,17.5,17.5,17.5h10c9.65,0,17.5-7.85,17.5-17.5v-70c0-9.65-7.85-17.5-17.5-17.5h-10c-9.65,0-17.5,7.85-17.5,17.5Zm15,0c0-1.38,1.12-2.5,2.5-2.5h10c1.38,0,2.5,1.12,2.5,2.5v70c0,1.38-1.12,2.5-2.5,2.5h-10c-1.38,0-2.5-1.12-2.5-2.5v-70Z"/>
    <path class="cls-2" d="M314.5,332h10c9.65,0,17.5-7.85,17.5-17.5v-70c0-9.65-7.85-17.5-17.5-17.5h-10c-9.65,0-17.5,7.85-17.5,17.5v70c0,9.65,7.85,17.5,17.5,17.5Zm-2.5-87.5c0-1.38,1.12-2.5,2.5-2.5h10c1.38,0,2.5,1.12,2.5,2.5v70c0,1.38-1.12,2.5-2.5,2.5h-10c-1.38,0-2.5-1.12-2.5-2.5v-70Z"/>
    <path class="cls-2" d="M384.5,332h10c9.65,0,17.5-7.85,17.5-17.5v-70c0-9.65-7.85-17.5-17.5-17.5h-10c-9.65,0-17.5,7.85-17.5,17.5v70c0,9.65,7.85,17.5,17.5,17.5Zm-2.5-87.5c0-1.38,1.12-2.5,2.5-2.5h10c1.38,0,2.5,1.12,2.5,2.5v70c0,1.38-1.12,2.5-2.5,2.5h-10c-1.38,0-2.5-1.12-2.5-2.5v-70Z"/>
    <path class="cls-2" d="M494.5,407H230.13l-10.16-35h199.9c12.03,0,22.56-7.7,26.21-19.16l65.57-206.06c.73-2.28,.32-4.77-1.09-6.7-1.41-1.93-3.66-3.07-6.05-3.07h-65.84c-4.14,0-7.5,3.36-7.5,7.5s3.36,7.5,7.5,7.5h55.58l-7.95,25h-80.33c-4.14,0-7.5,3.36-7.5,7.5s3.36,7.5,7.5,7.5h75.56l-49.73,156.29c-1.66,5.21-6.45,8.71-11.91,8.71H215.62l-47.9-165h65.33c4.14,0,7.5-3.36,7.5-7.5s-3.36-7.5-7.5-7.5h-69.68l-7.26-25h44.24c4.14,0,7.5-3.36,7.5-7.5s-3.36-7.5-7.5-7.5h-48.59l-7.95-27.38c-2.16-7.43-9.07-12.62-16.81-12.62H7.5c-4.14,0-7.5,3.36-7.5,7.5v30c0,4.14,3.36,7.5,7.5,7.5H108.87l86.34,297.38c2.16,7.43,9.07,12.62,16.81,12.62h34.99v22.5c0,20.68,16.82,37.5,37.5,37.5s37.5-16.82,37.5-37.5v-22.5h75v22.5c0,20.68,16.82,37.5,37.5,37.5s37.5-16.82,37.5-37.5v-22.5h22.5c9.65,0,17.5-7.85,17.5-17.5v-10c0-9.65-7.85-17.5-17.5-17.5Zm-187.5,67.5c0,12.41-10.09,22.5-22.5,22.5s-22.5-10.09-22.5-22.5v-22.5h45v22.5Zm150,0c0,12.41-10.09,22.5-22.5,22.5s-22.5-10.09-22.5-22.5v-22.5h45v22.5Zm40-40c0,1.38-1.12,2.5-2.5,2.5H212.01c-1.11,0-2.09-.74-2.4-1.8L121.7,132.41c-.93-3.21-3.87-5.41-7.2-5.41H15v-15H126.99c1.11,0,2.09,.74,2.4,1.8l73.42,252.91s0,.02,0,.03l14.47,49.85c.93,3.21,3.87,5.41,7.2,5.41H494.5c1.38,0,2.5,1.12,2.5,2.5v10Z"/>
  </g>
  <g>
    <circle class="cls-1" cx="359.5" cy="145" r="12.5"/>
    <path class="cls-1" d="M319.5,0c-57.9,0-105,47.1-105,105s47.1,105,105,105,105-47.1,105-105S377.4,0,319.5,0Zm-67.5,65c0-15.16,12.34-27.5,27.5-27.5s27.5,12.34,27.5,27.5-12.34,27.5-27.5,27.5-27.5-12.34-27.5-27.5Zm22.8,95.3c-1.46,1.46-3.38,2.2-5.3,2.2s-3.84-.73-5.3-2.2c-2.93-2.93-2.93-7.68,0-10.61l100-100c2.93-2.93,7.68-2.93,10.61,0,2.93,2.93,2.93,7.68,0,10.61l-100,100Zm84.7,12.2c-15.16,0-27.5-12.34-27.5-27.5s12.34-27.5,27.5-27.5,27.5,12.34,27.5,27.5-12.34,27.5-27.5,27.5Z"/>
    <circle class="cls-1" cx="279.5" cy="65" r="12.5"/>
  </g>
</svg>