<?xml version="1.0" encoding="UTF-8"?>
<svg id="OBJECT" xmlns="http://www.w3.org/2000/svg" viewBox="0 0 32 32">
  <defs>
    <style>
      .cls-1 {
        fill: #FD4360;
      }

      .cls-1, .cls-2 {
        stroke-width: 0px;
      }

      .cls-2 {
        fill: #dadada;
      }
    </style>
  </defs>
  <g>
    <path class="cls-2" d="m30,17c.55,0,1-.45,1-1v-3.11c0-1.38-1.12-2.5-2.5-2.5h-2.02c-.51-.84-1.27-1.52-2.18-1.94-.5-.23-1.1,0-1.32.49-.23.5,0,1.1.49,1.32.87.4,1.5,1.2,1.69,2.15l1.12,5.58H5.72l1.12-5.58c.19-.95.82-1.75,1.69-2.15.5-.23.72-.82.49-1.32-.23-.5-.82-.72-1.32-.49-.91.42-1.67,1.1-2.18,1.94h-2.02c-1.38,0-2.5,1.12-2.5,2.5v3.11c0,.55.45,1,1,1s1-.45,1-1v-3.11c0-.28.22-.5.5-.5h1.31l-1.13,5.64c-1.5.16-2.67,1.42-2.67,2.97v4c0,.55.45,1,1,1h1.5v2c0,1.65,1.35,3,3,3h2c1.65,0,3-1.35,3-3v-2h9v2c0,1.65,1.35,3,3,3h2c1.65,0,3-1.35,3-3v-2h1.5c.55,0,1-.45,1-1v-4c0-1.54-1.17-2.8-2.67-2.97l-1.13-5.64h1.31c.28,0,.5.22.5.5v3.11c0,.55.45,1,1,1Zm-19,7v-4h10v4h-10Zm-8-3c0-.55.45-1,1-1h5v4H3v-3Zm6.5,7c0,.55-.45,1-1,1h-2c-.55,0-1-.45-1-1v-2h4v2Zm17,0c0,.55-.45,1-1,1h-2c-.55,0-1-.45-1-1v-2h4v2Zm2.5-7v3h-6v-4h5c.55,0,1,.45,1,1Z"/>
    <path class="cls-2" d="m18,21h-4c-.55,0-1,.45-1,1s.45,1,1,1h4c.55,0,1-.45,1-1s-.45-1-1-1Z"/>
  </g>
  <path class="cls-1" d="m16,13c3.31,0,6-2.69,6-6s-2.69-6-6-6-6,2.69-6,6,2.69,6,6,6Zm-2.66-6.58l1.97-2.77c.32-.45.94-.56,1.39-.24.45.32.56.94.24,1.39l-.85,1.19h1.75c.37,0,.72.21.89.54s.14.73-.07,1.04l-1.97,2.77c-.19.27-.5.42-.82.42-.2,0-.4-.06-.58-.19-.45-.32-.56-.94-.24-1.39l.85-1.19h-1.75c-.37,0-.72-.21-.89-.54s-.14-.73.07-1.04Z"/>
</svg>