<?xml version="1.0" encoding="UTF-8"?>
<svg id="OBJECT" xmlns="http://www.w3.org/2000/svg" viewBox="0 0 512 512">
  <defs>
    <style>
      .cls-1 {
        fill: #FD4360;
      }

      .cls-2 {
        fill: #dadada;
      }
    </style>
  </defs>
  <g>
    <path class="cls-2" d="M439.5,110h-11.41c-3.74-33.7-32.4-60-67.09-60-2.82,0-5.65,.18-8.45,.53C330.55,18.8,294.82,0,256,0s-74.55,18.8-96.55,50.53c-2.8-.35-5.62-.53-8.45-.53-34.68,0-63.34,26.3-67.09,60h-11.41C32.52,110,0,142.52,0,182.5s32.52,72.5,72.5,72.5h46v234.5c0,12.41,10.09,22.5,22.5,22.5h230c12.41,0,22.5-10.09,22.5-22.5V255h46c39.98,0,72.5-32.52,72.5-72.5s-32.52-72.5-72.5-72.5Zm-68.5,387H141c-4.14,0-7.5-3.36-7.5-7.5V159.5c0-4.14,3.36-7.5,7.5-7.5h166.5l-6.55,52.43c-.87,6.94,1.47,13.76,6.42,18.7,4.27,4.27,9.93,6.59,15.86,6.59,.94,0,1.89-.06,2.84-.18l52.43-6.55V489.5c0,4.14-3.36,7.5-7.5,7.5Zm-55.17-290.71l5.71-45.65,48.31,48.31-45.65,5.71c-2.32,.29-4.59-.49-6.23-2.14-1.65-1.65-2.43-3.92-2.14-6.23Zm123.67,33.71h-46v-25.5c0-1.99-.79-3.9-2.2-5.3l-70-70c-1.41-1.41-3.31-2.2-5.3-2.2H141c-12.41,0-22.5,10.09-22.5,22.5v80.5h-46c-31.71,0-57.5-25.79-57.5-57.5s25.79-57.5,57.5-57.5h18.5c4.14,0,7.5-3.36,7.5-7.5,0-28.95,23.55-52.5,52.5-52.5,3.54,0,7.08,.35,10.53,1.06,3.05,.62,6.16-.71,7.83-3.34,18.93-29.88,51.33-47.72,86.64-47.72s67.71,17.84,86.64,47.72c1.67,2.63,4.78,3.96,7.83,3.34,3.44-.7,6.98-1.06,10.53-1.06,26.4,0,48.3,19.59,51.96,45h-36.96c-4.14,0-7.5,3.36-7.5,7.5s3.36,7.5,7.5,7.5h63.5c31.71,0,57.5,25.79,57.5,57.5s-25.79,57.5-57.5,57.5Z"/>
    <path class="cls-2" d="M346,457h-10c-4.14,0-7.5,3.36-7.5,7.5s3.36,7.5,7.5,7.5h10c4.14,0,7.5-3.36,7.5-7.5s-3.36-7.5-7.5-7.5Z"/>
    <path class="cls-2" d="M176,457h-10c-4.14,0-7.5,3.36-7.5,7.5s3.36,7.5,7.5,7.5h10c4.14,0,7.5-3.36,7.5-7.5s-3.36-7.5-7.5-7.5Z"/>
    <path class="cls-2" d="M356,110h-10c-4.14,0-7.5,3.36-7.5,7.5s3.36,7.5,7.5,7.5h10c4.14,0,7.5-3.36,7.5-7.5s-3.36-7.5-7.5-7.5Z"/>
    <path class="cls-2" d="M444.5,155c-15.16,0-27.5,12.34-27.5,27.5s12.34,27.5,27.5,27.5,27.5-12.34,27.5-27.5-12.34-27.5-27.5-27.5Zm0,40c-6.89,0-12.5-5.61-12.5-12.5s5.61-12.5,12.5-12.5,12.5,5.61,12.5,12.5-5.61,12.5-12.5,12.5Z"/>
    <path class="cls-2" d="M67.5,155c-15.16,0-27.5,12.34-27.5,27.5s12.34,27.5,27.5,27.5,27.5-12.34,27.5-27.5-12.34-27.5-27.5-27.5Zm0,40c-6.89,0-12.5-5.61-12.5-12.5s5.61-12.5,12.5-12.5,12.5,5.61,12.5,12.5-5.61,12.5-12.5,12.5Z"/>
  </g>
  <g>
    <path class="cls-1" d="M322.56,340.86l-45.14-81.26c-4.32-7.77-12.52-12.6-21.41-12.6s-17.1,4.83-21.41,12.6l-45.14,81.26c-1.29,2.32-1.26,5.16,.09,7.45,1.35,2.29,3.81,3.7,6.46,3.7h32.5v92.5c0,9.65,7.85,17.5,17.5,17.5h20c9.65,0,17.5-7.85,17.5-17.5v-92.5h32.5c2.66,0,5.12-1.41,6.46-3.7,1.35-2.29,1.38-5.12,.09-7.45Z"/>
    <rect class="cls-1" x="148.5" y="167" width="50" height="50" rx="17.5" ry="17.5"/>
    <rect class="cls-1" x="218.5" y="167" width="50" height="50" rx="17.5" ry="17.5"/>
  </g>
</svg>