<?xml version="1.0" encoding="UTF-8"?>
<svg id="OBJECT" xmlns="http://www.w3.org/2000/svg" viewBox="0 0 32 32">
  <defs>
    <style>
      .cls-1 {
        fill: #FD4360;
      }

      .cls-2 {
        fill: #dadada;
      }
    </style>
  </defs>
  <g>
    <path class="cls-2" d="M30.8,6.41c-.19-.26-.49-.41-.8-.41H11c-.55,0-1,.45-1,1s.45,1,1,1H28.65l-3.17,10.29c-.13,.42-.51,.71-.96,.71H11c-.55,0-1,.45-1,1s.45,1,1,1h13.52c1.33,0,2.48-.85,2.87-2.12l3.57-11.59c.09-.3,.04-.63-.15-.89Z"/>
    <path class="cls-2" d="M14,16.5v-6c0-.55-.45-1-1-1s-1,.45-1,1v6c0,.55,.45,1,1,1s1-.45,1-1Z"/>
    <path class="cls-2" d="M19,16.5v-6c0-.55-.45-1-1-1s-1,.45-1,1v6c0,.55,.45,1,1,1s1-.45,1-1Z"/>
    <path class="cls-2" d="M24,16.5v-6c0-.55-.45-1-1-1s-1,.45-1,1v6c0,.55,.45,1,1,1s1-.45,1-1Z"/>
  </g>
  <g>
    <path class="cls-1" d="M27,24H10c-.55,0-1-.45-1-1V4c0-1.65-1.35-3-3-3H2c-.55,0-1,.45-1,1s.45,1,1,1H6c.55,0,1,.45,1,1V23c0,1.65,1.35,3,3,3H27c.55,0,1-.45,1-1s-.45-1-1-1Z"/>
    <path class="cls-1" d="M19.5,29c0,1.1,.9,2,2,2h2c1.1,0,2-.9,2-2v-1h-6v1Z"/>
    <path class="cls-1" d="M10.5,29c0,1.1,.9,2,2,2h2c1.1,0,2-.9,2-2v-1h-6v1Z"/>
  </g>
</svg>