<?xml version="1.0" encoding="UTF-8"?>
<svg id="OBJECT" xmlns="http://www.w3.org/2000/svg" viewBox="0 0 32 32">
  <defs>
    <style>
      .cls-1 {
        fill: #FD4360;
      }

      .cls-2 {
        fill: #dadada;
      }
    </style>
  </defs>
  <g>
    <path class="cls-2" d="M25.5,20c.55,0,1-.45,1-1v-1c0-.55-.45-1-1-1s-1,.45-1,1v1c0,.55,.45,1,1,1Z"/>
    <path class="cls-2" d="M6.5,17c-.55,0-1,.45-1,1v1c0,.55,.45,1,1,1s1-.45,1-1v-1c0-.55-.45-1-1-1Z"/>
    <path class="cls-2" d="M30,21h-.5v-4c0-1.65-1.35-3-3-3H5.5c-1.65,0-3,1.35-3,3v4h-.5c-.55,0-1,.45-1,1s.45,1,1,1h3v2c0,1.65,1.35,3,3,3h1c1.65,0,3-1.35,3-3v-2h8v2c0,1.65,1.35,3,3,3h1c1.65,0,3-1.35,3-3v-2h3c.55,0,1-.45,1-1s-.45-1-1-1ZM4.5,17c0-.55,.45-1,1-1H26.5c.55,0,1,.45,1,1v4h-6.5v-1.5c0-1.38-1.12-2.5-2.5-2.5h-5c-1.38,0-2.5,1.12-2.5,2.5v1.5H4.5v-4Zm14.5,4h-6v-1.5c0-.28,.22-.5,.5-.5h5c.28,0,.5,.22,.5,.5v1.5Zm-9,4c0,.55-.45,1-1,1h-1c-.55,0-1-.45-1-1v-2h3v2Zm15,0c0,.55-.45,1-1,1h-1c-.55,0-1-.45-1-1v-2h3v2Z"/>
  </g>
  <path class="cls-1" d="M28.5,6.74h-3.13l-.07-.33c-.28-1.4-1.52-2.41-2.94-2.41H9.64c-1.43,0-2.66,1.01-2.94,2.41l-.07,.33H3.5c-1.38,0-2.5,1.12-2.5,2.5v2c0,.55,.45,1,1,1s1-.45,1-1v-2c0-.28,.22-.5,.5-.5h2.73l-.65,3.26H26.42l-.65-3.26h2.73c.28,0,.5,.22,.5,.5v2c0,.55,.45,1,1,1s1-.45,1-1v-2c0-1.38-1.12-2.5-2.5-2.5Z"/>
</svg>