<?xml version="1.0" encoding="UTF-8"?>
<svg id="OBJECT" xmlns="http://www.w3.org/2000/svg" viewBox="0 0 512 512">
  <defs>
    <style>
      .cls-1 {
        fill: #FD4360;
      }

      .cls-2 {
        fill: #dadada;
      }
    </style>
  </defs>
  <g>
    <path class="cls-2" d="M196.92,353.5h-31.83c-3.14,0-5.95,1.96-7.04,4.91-3.02,8.2-4.55,16.92-4.55,25.92,0,20.9,8.48,40.49,22.68,52.41,1.39,1.17,3.11,1.76,4.82,1.76s3.43-.58,4.82-1.76c14.2-11.92,22.68-31.51,22.68-52.41,0-9.01-1.53-17.73-4.55-25.92-1.09-2.95-3.9-4.91-7.04-4.91Zm-15.92,66.98c-7.92-9.21-12.5-22.24-12.5-36.14,0-5.45,.69-10.75,2.06-15.83h20.88c1.37,5.08,2.06,10.38,2.06,15.83,0,13.9-4.58,26.93-12.5,36.14Z"/>
    <path class="cls-2" d="M346.92,353.5h-31.83c-3.14,0-5.95,1.96-7.04,4.91-3.02,8.2-4.55,16.92-4.55,25.92,0,20.9,8.48,40.49,22.68,52.41,1.39,1.17,3.11,1.76,4.82,1.76s3.43-.58,4.82-1.76c14.2-11.92,22.68-31.51,22.68-52.41,0-9.01-1.53-17.73-4.55-25.92-1.09-2.95-3.9-4.91-7.04-4.91Zm-15.92,66.98c-7.92-9.21-12.5-22.24-12.5-36.14,0-5.45,.69-10.75,2.06-15.83h20.88c1.37,5.08,2.06,10.38,2.06,15.83,0,13.9-4.58,26.93-12.5,36.14Z"/>
    <path class="cls-2" d="M221,223.5h-10c-4.14,0-7.5,3.36-7.5,7.5s3.36,7.5,7.5,7.5h10c4.14,0,7.5-3.36,7.5-7.5s-3.36-7.5-7.5-7.5Z"/>
    <path class="cls-2" d="M261,223.5h-10c-4.14,0-7.5,3.36-7.5,7.5s3.36,7.5,7.5,7.5h10c4.14,0,7.5-3.36,7.5-7.5s-3.36-7.5-7.5-7.5Z"/>
    <path class="cls-2" d="M301,223.5h-10c-4.14,0-7.5,3.36-7.5,7.5s3.36,7.5,7.5,7.5h10c4.14,0,7.5-3.36,7.5-7.5s-3.36-7.5-7.5-7.5Z"/>
    <path class="cls-2" d="M273.37,125.89c-3.65-1.96-8.2-.59-10.16,3.05l-2.19,4.07c-1.96,3.65-.6,8.2,3.05,10.16,1.13,.61,2.35,.9,3.55,.9,2.67,0,5.26-1.43,6.61-3.95l2.19-4.07c1.96-3.65,.6-8.2-3.05-10.16Z"/>
    <path class="cls-2" d="M393.5,253.7v-72.7c0-14.87-11.87-27.02-26.64-27.48l-11.26-45.02h27.89c4.14,0,7.5,3.36,7.5,7.5v17.59c0,4.14,3.36,7.5,7.5,7.5s7.5-3.36,7.5-7.5v-17.59c0-12.41-10.09-22.5-22.5-22.5h-31.68c-3.35-11.81-14.08-20-26.43-20H186.62c-12.35,0-23.09,8.19-26.43,20h-31.68c-12.41,0-22.5,10.09-22.5,22.5v17.59c0,4.14,3.36,7.5,7.5,7.5s7.5-3.36,7.5-7.5v-17.59c0-4.14,3.36-7.5,7.5-7.5h27.89l-11.26,45.02c-14.77,.46-26.64,12.6-26.64,27.48v72.7c-8.47,1.22-15,8.5-15,17.3v20c0,4.14,3.36,7.5,7.5,7.5h29.14l8.58,34.32c.83,3.34,3.83,5.68,7.28,5.68h50c3.44,0,6.44-2.34,7.28-5.68l8.58-34.32h68.29l8.58,34.32c.83,3.34,3.83,5.68,7.28,5.68h50c3.44,0,6.44-2.34,7.28-5.68l8.58-34.32h29.14c4.14,0,7.5-3.36,7.5-7.5v-20c0-8.8-6.53-16.08-15-17.3Zm-55.99-155.73l13.88,55.53h-124.36l34.97-65h22.97l-10.49,19.5c-1.96,3.65-.6,8.2,3.05,10.16,1.13,.61,2.35,.9,3.55,.9,2.67,0,5.26-1.43,6.61-3.95l14.32-26.61h23.38c5.75,0,10.73,3.89,12.13,9.47Zm-150.9-9.47h58.35l-34.97,65h-49.39l13.88-55.53c1.39-5.57,6.38-9.47,12.13-9.47Zm-40.62,80h220c6.89,0,12.5,5.61,12.5,12.5v72.5h-30v-37.5c0-12.41-10.09-22.5-22.5-22.5H186c-12.41,0-22.5,10.09-22.5,22.5v37.5h-30v-72.5c0-6.89,5.61-12.5,12.5-12.5Zm187.5,85H178.5v-37.5c0-4.14,3.36-7.5,7.5-7.5h140c4.14,0,7.5,3.36,7.5,7.5v37.5Zm-133.36,70h-38.29l-6.25-25h50.79l-6.25,25Zm150,0h-38.29l-6.25-25h50.79l-6.25,25Zm43.36-40H118.5v-12.5c0-1.38,1.12-2.5,2.5-2.5H391c1.38,0,2.5,1.12,2.5,2.5v12.5Z"/>
  </g>
  <g>
    <path class="cls-1" d="M493.24,196.49l-84.74-14.3v46.31h103.5v-9.82c0-11.02-7.89-20.35-18.76-22.19Z"/>
    <path class="cls-1" d="M437.38,268.37c1.02,3.06,3.89,5.13,7.12,5.13h40c4.14,0,7.5-3.36,7.5-7.5v-22.5h-62.91l8.29,24.87Z"/>
    <path class="cls-1" d="M0,218.68v9.82H103.5v-46.31l-84.74,14.3c-10.87,1.83-18.76,11.17-18.76,22.19Z"/>
    <path class="cls-1" d="M20,266c0,4.14,3.36,7.5,7.5,7.5h40c3.23,0,6.09-2.07,7.12-5.13l8.29-24.87H20v22.5Z"/>
  </g>
</svg>