<?xml version="1.0" encoding="UTF-8"?>
<svg id="OBJECT" xmlns="http://www.w3.org/2000/svg" viewBox="0 0 32 32">
  <defs>
    <style>
      .cls-1 {
        fill: #FD4360;
      }

      .cls-1, .cls-2 {
        stroke-width: 0px;
      }

      .cls-2 {
        fill: #dadada;
      }
    </style>
  </defs>
  <path class="cls-2" d="m30,5H12c-.55,0-1,.45-1,1s.45,1,1,1h2.5v5h-2.5c-.55,0-1,.45-1,1s.45,1,1,1h2.5v5h-2.5c-.55,0-1,.45-1,1s.45,1,1,1h14c2.76,0,5-2.24,5-5V6c0-.55-.45-1-1-1Zm-1,7h-4.5v-5h4.5v5Zm-12.5-5h6v5h-6v-5Zm0,7h6v5h-6v-5Zm9.5,5h-1.5v-5h4.5v2c0,1.65-1.35,3-3,3Z"/>
  <path class="cls-1" d="m26.5,24H10c-.55,0-1-.45-1-1V4c0-1.65-1.35-3-3-3H2c-.55,0-1,.45-1,1s.45,1,1,1h4c.55,0,1,.45,1,1v19c0,1.65,1.35,3,3,3h2v1.5c0,1.93,1.57,3.5,3.5,3.5s3.5-1.57,3.5-3.5v-1.5h4v1.5c0,1.93,1.57,3.5,3.5,3.5s3.5-1.57,3.5-3.5-1.57-3.5-3.5-3.5Z"/>
</svg>