<?xml version="1.0" encoding="UTF-8"?>
<svg id="OBJECT" xmlns="http://www.w3.org/2000/svg" viewBox="0 0 32 32">
  <defs>
    <style>
      .cls-1 {
        fill: #FD4360;
      }

      .cls-1, .cls-2 {
        stroke-width: 0px;
      }

      .cls-2 {
        fill: #dadada;
      }
    </style>
  </defs>
  <g>
    <path class="cls-2" d="m30,7H8c-.55,0-1,.45-1,1s.45,1,1,1h21v9c0,1.1-.9,2-2,2H8c-.55,0-1,.45-1,1s.45,1,1,1h19c2.21,0,4-1.79,4-4v-10c0-.55-.45-1-1-1Z"/>
    <path class="cls-2" d="m17.75,18.5c1.38,0,2.5-1.12,2.5-2.5v-3c0-1.38-1.12-2.5-2.5-2.5h-.5c-1.38,0-2.5,1.12-2.5,2.5v3c0,1.38,1.12,2.5,2.5,2.5h.5Zm-1-2.5v-3c0-.28.22-.5.5-.5h.5c.28,0,.5.22.5.5v3c0,.28-.22.5-.5.5h-.5c-.28,0-.5-.22-.5-.5Z"/>
    <path class="cls-2" d="m24.75,18.5c1.38,0,2.5-1.12,2.5-2.5v-3c0-1.38-1.12-2.5-2.5-2.5h-.5c-1.38,0-2.5,1.12-2.5,2.5v3c0,1.38,1.12,2.5,2.5,2.5h.5Zm-1-2.5v-3c0-.28.22-.5.5-.5h.5c.28,0,.5.22.5.5v3c0,.28-.22.5-.5.5h-.5c-.28,0-.5-.22-.5-.5Z"/>
    <path class="cls-2" d="m10.25,18.5h.5c1.38,0,2.5-1.12,2.5-2.5v-3c0-1.38-1.12-2.5-2.5-2.5h-.5c-1.38,0-2.5,1.12-2.5,2.5v3c0,1.38,1.12,2.5,2.5,2.5Zm-.5-5.5c0-.28.22-.5.5-.5h.5c.28,0,.5.22.5.5v3c0,.28-.22.5-.5.5h-.5c-.28,0-.5-.22-.5-.5v-3Z"/>
  </g>
  <path class="cls-1" d="m27,25H7c-.55,0-1-.45-1-1V3.4c0-1.32-1.08-2.4-2.4-2.4h-1.6c-.55,0-1,.45-1,1s.45,1,1,1h1.6c.22,0,.4.18.4.4v20.6c0,1.65,1.35,3,3,3h2v.5c0,1.93,1.57,3.5,3.5,3.5s3.5-1.57,3.5-3.5v-.5h5v.5c0,1.93,1.57,3.5,3.5,3.5s3.5-1.57,3.5-3.5v-1.5c0-.55-.45-1-1-1Z"/>
</svg>