<?xml version="1.0" encoding="UTF-8"?>
<svg id="OBJECT" xmlns="http://www.w3.org/2000/svg" viewBox="0 0 32 32">
  <defs>
    <style>
      .cls-1 {
        fill: #FD4360;
      }

      .cls-1, .cls-2 {
        stroke-width: 0px;
      }

      .cls-2 {
        fill: #dadada;
      }
    </style>
  </defs>
  <g>
    <path class="cls-2" d="m24.5,9H3.5c-1.38,0-2.5,1.12-2.5,2.5v14c0,1.38,1.12,2.5,2.5,2.5h21c1.38,0,2.5-1.12,2.5-2.5v-14c0-1.38-1.12-2.5-2.5-2.5ZM3.5,11h21c.28,0,.5.22.5.5v3.5H3v-3.5c0-.28.22-.5.5-.5Zm21,15H3.5c-.28,0-.5-.22-.5-.5v-8.5h22v8.5c0,.28-.22.5-.5.5Z"/>
    <path class="cls-2" d="m22.5,22.25h-7c-.55,0-1,.45-1,1s.45,1,1,1h7c.55,0,1-.45,1-1s-.45-1-1-1Z"/>
    <path class="cls-2" d="m22.5,18.75h-3c-.55,0-1,.45-1,1s.45,1,1,1h3c.55,0,1-.45,1-1s-.45-1-1-1Z"/>
    <path class="cls-2" d="m15.5,20.75h.5c.55,0,1-.45,1-1s-.45-1-1-1h-.5c-.55,0-1,.45-1,1s.45,1,1,1Z"/>
    <path class="cls-2" d="m10,18.5h-3c-1.38,0-2.5,1.12-2.5,2.5v1c0,1.38,1.12,2.5,2.5,2.5h3c1.38,0,2.5-1.12,2.5-2.5v-1c0-1.38-1.12-2.5-2.5-2.5Zm.5,3.5c0,.28-.22.5-.5.5h-3c-.28,0-.5-.22-.5-.5v-1c0-.28.22-.5.5-.5h3c.28,0,.5.22.5.5v1Z"/>
  </g>
  <path class="cls-1" d="m28.5,4H7.5c-1.38,0-2.5,1.12-2.5,2.5v.5h21c1.66,0,3,1.34,3,3v12.95c1.14-.23,2-1.24,2-2.45V6.5c0-1.38-1.12-2.5-2.5-2.5Z"/>
</svg>