<?xml version="1.0" encoding="UTF-8"?>
<svg id="OBJECT" xmlns="http://www.w3.org/2000/svg" viewBox="0 0 32 32">
  <defs>
    <style>
      .cls-1 {
        fill: #FD4360;
      }

      .cls-1, .cls-2 {
        stroke-width: 0px;
      }

      .cls-2 {
        fill: #dadada;
      }
    </style>
  </defs>
  <g>
    <path class="cls-2" d="m26.5,25.5h-8c-.55,0-1,.45-1,1s.45,1,1,1h8c.55,0,1-.45,1-1s-.45-1-1-1Z"/>
    <path class="cls-2" d="m28.5,10h-3.5v-1c0-.55-.45-1-1-1h-4v-4c0-1.65-1.35-3-3-3h-2c-1.65,0-3,1.35-3,3v4h-4c-.55,0-1,.45-1,1v1h-3.5c-1.38,0-2.5,1.12-2.5,2.5v16c0,1.38,1.12,2.5,2.5,2.5h25c1.38,0,2.5-1.12,2.5-2.5V12.5c0-1.38-1.12-2.5-2.5-2.5Zm-14.5-6c0-.55.45-1,1-1h2c.55,0,1,.45,1,1v4h-4v-4Zm-5,6h14v2h-14v-2Zm20,18.5c0,.28-.22.5-.5.5H3.5c-.28,0-.5-.22-.5-.5V12.5c0-.28.22-.5.5-.5h3.5v1c0,.55.45,1,1,1h16c.55,0,1-.45,1-1v-1h3.5c.28,0,.5.22.5.5v16Z"/>
    <path class="cls-2" d="m16.25,4h-.5c-.55,0-1,.45-1,1s.45,1,1,1h.5c.55,0,1-.45,1-1s-.45-1-1-1Z"/>
  </g>
  <g>
    <rect class="cls-1" x="17.5" y="16.5" width="10" height="7" rx="1" ry="1"/>
    <path class="cls-1" d="m10,22.9c1.79,0,3.25-1.46,3.25-3.25v-1.35c0-1.54-1.26-2.8-2.8-2.8h-.9c-1.54,0-2.8,1.26-2.8,2.8v1.35c0,1.79,1.46,3.25,3.25,3.25Z"/>
    <path class="cls-1" d="m10,24.9c-2.02,0-3.76-1.16-4.64-2.84-.55.86-.86,1.88-.86,2.94v1.5c0,.55.45,1,1,1h9c.55,0,1-.45,1-1v-1.5c0-1.06-.31-2.08-.86-2.94-.88,1.68-2.62,2.84-4.64,2.84Z"/>
  </g>
</svg>