<?xml version="1.0" encoding="UTF-8"?>
<svg id="OBJECT" xmlns="http://www.w3.org/2000/svg" viewBox="0 0 32 32">
  <defs>
    <style>
      .cls-1 {
        fill: #FD4360;
      }

      .cls-1, .cls-2 {
        stroke-width: 0px;
      }

      .cls-2 {
        fill: #dadada;
      }
    </style>
  </defs>
  <g>
    <path class="cls-2" d="m28,7h-3.5v-3.5c0-1.38-1.12-2.5-2.5-2.5h-2c-1.21,0-2.22.86-2.45,2H5c-2.21,0-4,1.79-4,4v16c0,2.21,1.79,4,4,4s4-1.79,4-4V5h8.5v2h-3.5c-1.65,0-3,1.35-3,3v18c0,1.65,1.35,3,3,3h14c1.65,0,3-1.35,3-3V10c0-1.65-1.35-3-3-3ZM7,23c0,1.1-.9,2-2,2s-2-.9-2-2V7c0-1.1.9-2,2-2h2v18ZM19.5,3.5c0-.28.22-.5.5-.5h2c.28,0,.5.22.5.5v3.5h-3v-3.5Zm9.5,24.5c0,.55-.45,1-1,1h-14c-.55,0-1-.45-1-1V10c0-.55.45-1,1-1h14c.55,0,1,.45,1,1v18Z"/>
    <path class="cls-2" d="m27,25h-8c-.55,0-1,.45-1,1s.45,1,1,1h8c.55,0,1-.45,1-1s-.45-1-1-1Z"/>
    <path class="cls-2" d="m15.5,25h-.5c-.55,0-1,.45-1,1s.45,1,1,1h.5c.55,0,1-.45,1-1s-.45-1-1-1Z"/>
  </g>
  <g>
    <path class="cls-1" d="m25.46,16.51c-.82,1.65-2.5,2.79-4.46,2.79s-3.65-1.15-4.46-2.79c-.95,1.06-1.54,2.46-1.54,3.99v.5c0,1.38,1.12,2.5,2.5,2.5h7c1.38,0,2.5-1.12,2.5-2.5v-.5c0-1.53-.58-2.93-1.54-3.99Z"/>
    <path class="cls-1" d="m21,17.3c1.65,0,3-1.35,3-3v-1.2c0-1.43-1.17-2.6-2.6-2.6h-.8c-1.43,0-2.6,1.17-2.6,2.6v1.2c0,1.65,1.35,3,3,3Z"/>
  </g>
</svg>