<?xml version="1.0" encoding="UTF-8"?>
<svg id="OBJECT" xmlns="http://www.w3.org/2000/svg" viewBox="0 0 32 32">
  <defs>
    <style>
      .cls-1 {
        fill: #FD4360;
      }

      .cls-1, .cls-2 {
        stroke-width: 0px;
      }

      .cls-2 {
        fill: #dadada;
      }
    </style>
  </defs>
  <rect class="cls-1" x="1" y="11" width="30" height="2"/>
  <path class="cls-1" d="m9.08,6.76c.11-.45.51-.76.97-.76h11.79c.46,0,.86.31.98.8l.65,2.2h2.08l-.81-2.73c-.33-1.34-1.53-2.27-2.91-2.27h-11.79c-1.38,0-2.58.93-2.9,2.23l-.82,2.77h2.08l.66-2.24Z"/>
  <path class="cls-2" d="m28.68,15.02c-.54-.09-1.06.26-1.16.81l-.31,1.68h-5.84l.13-1.39c.05-.55-.36-1.04-.91-1.09-.56-.04-1.04.36-1.09.91l-.14,1.57h-6.72l-.14-1.57c-.05-.55-.52-.95-1.09-.91-.55.05-.96.54-.91,1.09l.13,1.39h-5.84l-.31-1.68c-.1-.54-.62-.9-1.16-.81-.54.1-.9.62-.8,1.16l1.78,9.77c.22,1.19,1.25,2.05,2.46,2.05h18.5c1.21,0,2.24-.86,2.46-2.05l1.78-9.77c.1-.54-.26-1.06-.8-1.16Zm-1.83,4.48l-.36,2h-5.48l.18-2h5.66Zm-7.67,0l-.18,2h-5.99l-.18-2h6.36Zm-.36,4l-.23,2.5h-5.17l-.23-2.5h5.63Zm-8-4l.18,2h-5.48l-.36-2h5.66Zm-4.55,6.09l-.38-2.09h5.3l.23,2.5h-4.65c-.24,0-.45-.17-.49-.41Zm18.99.41h-4.65l.23-2.5h5.3l-.38,2.09c-.04.24-.25.41-.49.41Z"/>
</svg>