<?xml version="1.0" encoding="UTF-8"?>
<svg id="OBJECT" xmlns="http://www.w3.org/2000/svg" viewBox="0 0 32 32">
  <defs>
    <style>
      .cls-1 {
        fill: #FD4360;
      }

      .cls-1, .cls-2 {
        stroke-width: 0px;
      }

      .cls-2 {
        fill: #dadada;
      }
    </style>
  </defs>
  <g>
    <path class="cls-2" d="m24.5,9H3.5c-1.38,0-2.5,1.12-2.5,2.5v14c0,1.38,1.12,2.5,2.5,2.5h21c1.38,0,2.5-1.12,2.5-2.5v-14c0-1.38-1.12-2.5-2.5-2.5ZM3.5,11h21c.28,0,.5.22.5.5v2.5H3v-2.5c0-.28.22-.5.5-.5Zm21,15H3.5c-.28,0-.5-.22-.5-.5v-9.5h22v9.5c0,.28-.22.5-.5.5Z"/>
    <path class="cls-2" d="m22.5,21.75h-7c-.55,0-1,.45-1,1s.45,1,1,1h7c.55,0,1-.45,1-1s-.45-1-1-1Z"/>
    <path class="cls-2" d="m22.5,18.25h-7c-.55,0-1,.45-1,1s.45,1,1,1h7c.55,0,1-.45,1-1s-.45-1-1-1Z"/>
    <path class="cls-2" d="m10,17.5h-3c-1.38,0-2.5,1.12-2.5,2.5v2c0,1.38,1.12,2.5,2.5,2.5h3c1.38,0,2.5-1.12,2.5-2.5v-2c0-1.38-1.12-2.5-2.5-2.5Zm.5,4.5c0,.28-.22.5-.5.5h-3c-.28,0-.5-.22-.5-.5v-2c0-.28.22-.5.5-.5h3c.28,0,.5.22.5.5v2Z"/>
  </g>
  <path class="cls-1" d="m28.5,4H7.5c-1.38,0-2.5,1.12-2.5,2.5v.5h19.5c2.48,0,4.5,2.02,4.5,4.5v11.45c1.14-.23,2-1.24,2-2.45V6.5c0-1.38-1.12-2.5-2.5-2.5Z"/>
</svg>