<?xml version="1.0" encoding="UTF-8"?>
<svg id="OBJECT" xmlns="http://www.w3.org/2000/svg" viewBox="0 0 32 32">
  <defs>
    <style>
      .cls-1 {
        fill: #FD4360;
      }

      .cls-1, .cls-2 {
        stroke-width: 0px;
      }

      .cls-2 {
        fill: #dadada;
      }
    </style>
  </defs>
  <g>
    <path class="cls-2" d="m24,13H8c-.55,0-1,.45-1,1v14c0,1.65,1.35,3,3,3h12c1.65,0,3-1.35,3-3v-14c0-.55-.45-1-1-1Zm-1,15c0,.55-.45,1-1,1h-12c-.55,0-1-.45-1-1v-9.06l4.9,3.5c.51.36,1.11.56,1.74.56h7.36v5Zm-10.23-8.82c1.13-.43,2.59-.75,3.71-.26.75.33,1.32,1.03,1.69,2.08h-2.52c-.21,0-.41-.06-.58-.19l-2.29-1.64Zm10.23,1.82h-2.75c-.53-1.96-1.52-3.27-2.98-3.91-2.37-1.05-5.19.12-6.39.74l-1.88-1.34v-1.49h14v6Z"/>
    <path class="cls-2" d="m12,26h-1c-.55,0-1,.45-1,1s.45,1,1,1h1c.55,0,1-.45,1-1s-.45-1-1-1Z"/>
    <path class="cls-2" d="m14,27c0,.55.45,1,1,1h1c.55,0,1-.45,1-1s-.45-1-1-1h-1c-.55,0-1,.45-1,1Z"/>
  </g>
  <g>
    <circle class="cls-1" cx="16" cy="6.5" r="1.5"/>
    <path class="cls-1" d="m22,1h-12c-.55,0-1,.45-1,1v9h14V2c0-.55-.45-1-1-1Zm-6,9c-1.93,0-3.5-1.57-3.5-3.5s1.57-3.5,3.5-3.5,3.5,1.57,3.5,3.5-1.57,3.5-3.5,3.5Z"/>
  </g>
</svg>