<?xml version="1.0" encoding="UTF-8"?>
<svg id="OBJECT" xmlns="http://www.w3.org/2000/svg" viewBox="0 0 32 32">
  <defs>
    <style>
      .cls-1 {
        fill: #FD4360;
      }

      .cls-1, .cls-2 {
        stroke-width: 0px;
      }

      .cls-2 {
        fill: #dadada;
      }
    </style>
  </defs>
  <g>
    <path class="cls-2" d="m25,17.5h-4c-1.38,0-2.5,1.12-2.5,2.5v2c0,1.38,1.12,2.5,2.5,2.5h4c1.38,0,2.5-1.12,2.5-2.5v-2c0-1.38-1.12-2.5-2.5-2.5Zm.5,4.5c0,.28-.22.5-.5.5h-4c-.28,0-.5-.22-.5-.5v-2c0-.28.22-.5.5-.5h4c.28,0,.5.22.5.5v2Z"/>
    <path class="cls-2" d="m26.5,13.5h-7c-.55,0-1,.45-1,1s.45,1,1,1h7c.55,0,1-.45,1-1s-.45-1-1-1Z"/>
    <path class="cls-2" d="m28.5,7h-9v-2c0-.55-.45-1-1-1h-5c-.55,0-1,.45-1,1v2H3.5c-1.38,0-2.5,1.12-2.5,2.5v16c0,1.38,1.12,2.5,2.5,2.5h25c1.38,0,2.5-1.12,2.5-2.5V9.5c0-1.38-1.12-2.5-2.5-2.5Zm-14-1h3v2.5c0,.83-.67,1.5-1.5,1.5s-1.5-.67-1.5-1.5v-2.5Zm14.5,19.5c0,.28-.22.5-.5.5H3.5c-.28,0-.5-.22-.5-.5V9.5c0-.28.22-.5.5-.5h9.05c.25,1.69,1.69,3,3.45,3s3.2-1.31,3.45-3h9.05c.28,0,.5.22.5.5v16Z"/>
  </g>
  <g>
    <path class="cls-1" d="m10.5,18.3c1.65,0,3-1.35,3-3v-1.2c0-1.43-1.17-2.6-2.6-2.6h-.8c-1.43,0-2.6,1.17-2.6,2.6v1.2c0,1.65,1.35,3,3,3Z"/>
    <path class="cls-1" d="m14.96,17.52c-.82,1.64-2.5,2.78-4.46,2.78s-3.64-1.14-4.46-2.78c-.97,1.08-1.54,2.48-1.54,3.98v.5c0,1.38,1.12,2.5,2.5,2.5h7c1.38,0,2.5-1.12,2.5-2.5v-.5c0-1.5-.57-2.9-1.54-3.98Z"/>
  </g>
</svg>