<?xml version="1.0" encoding="UTF-8"?>
<svg id="OBJECT" xmlns="http://www.w3.org/2000/svg" viewBox="0 0 32 32">
  <defs>
    <style>
      .cls-1 {
        fill: #FD4360;
      }

      .cls-1, .cls-2 {
        stroke-width: 0px;
      }

      .cls-2 {
        fill: #dadada;
      }
    </style>
  </defs>
  <g>
    <path class="cls-2" d="m26,4H2c-.55,0-1,.45-1,1v17c0,.55.45,1,1,1h24c.55,0,1-.45,1-1V5c0-.55-.45-1-1-1Zm-1,2v3H3v-3h22ZM3,21v-10h22v10H3Z"/>
    <path class="cls-2" d="m22.5,17h-7c-.55,0-1,.45-1,1s.45,1,1,1h7c.55,0,1-.45,1-1s-.45-1-1-1Z"/>
    <path class="cls-2" d="m22.5,13h-7c-.55,0-1,.45-1,1s.45,1,1,1h7c.55,0,1-.45,1-1s-.45-1-1-1Z"/>
    <path class="cls-2" d="m11.5,12.5h-6c-.55,0-1,.45-1,1v5c0,.55.45,1,1,1h6c.55,0,1-.45,1-1v-5c0-.55-.45-1-1-1Zm-1,5h-4v-3h4v3Z"/>
  </g>
  <path class="cls-1" d="m30,9h-1v14c0,1.1-.9,2-2,2H5v2c0,.55.45,1,1,1h24c.55,0,1-.45,1-1V10c0-.55-.45-1-1-1Z"/>
</svg>