<?xml version="1.0" encoding="UTF-8"?>
<svg id="OBJECT" xmlns="http://www.w3.org/2000/svg" viewBox="0 0 32 32">
  <defs>
    <style>
      .cls-1 {
        fill: #FD4360;
      }

      .cls-2 {
        fill: #dadada;
      }
    </style>
  </defs>
  <g>
    <path class="cls-2" d="M28,11H4c-1.65,0-3,1.35-3,3v14c0,1.65,1.35,3,3,3H28c1.65,0,3-1.35,3-3V14c0-1.65-1.35-3-3-3Zm0,18H4c-.55,0-1-.45-1-1V14c0-.55,.45-1,1-1H28c.55,0,1,.45,1,1v3h-7c-1.65,0-3,1.35-3,3v2c0,1.65,1.35,3,3,3h7v3c0,.55-.45,1-1,1Zm-6-6c-.55,0-1-.45-1-1v-2c0-.55,.45-1,1-1h2v4h-2Zm4-4h3v4h-3v-4Z"/>
    <path class="cls-2" d="M7,14.5c-.55,0-1,.45-1,1v1c0,.55,.45,1,1,1s1-.45,1-1v-1c0-.55-.45-1-1-1Z"/>
    <path class="cls-2" d="M7,19.5c-.55,0-1,.45-1,1v1c0,.55,.45,1,1,1s1-.45,1-1v-1c0-.55-.45-1-1-1Z"/>
    <path class="cls-2" d="M7,24.5c-.55,0-1,.45-1,1v1c0,.55,.45,1,1,1s1-.45,1-1v-1c0-.55-.45-1-1-1Z"/>
  </g>
  <g>
    <path class="cls-1" d="M21.91,2.09c-.61-.7-1.49-1.09-2.41-1.09-.8,0-1.56,.31-2.15,.85l6.26,7.15h4.34l-6.04-6.91Z"/>
    <path class="cls-1" d="M12.5,1c-.92,0-1.8,.4-2.41,1.09l-6.04,6.91H20.95L14.91,2.09c-.61-.7-1.49-1.09-2.41-1.09Z"/>
  </g>
</svg>