<?xml version="1.0" encoding="UTF-8"?>
<svg id="OBJECT" xmlns="http://www.w3.org/2000/svg" viewBox="0 0 32 32">
  <defs>
    <style>
      .cls-1 {
        fill: #FD4360;
      }

      .cls-2 {
        fill: #dadada;
      }
    </style>
  </defs>
  <g>
    <path class="cls-2" d="M28.5,9H3.5c-1.38,0-2.5,1.12-2.5,2.5V28.5c0,1.38,1.12,2.5,2.5,2.5H28.5c1.38,0,2.5-1.12,2.5-2.5V11.5c0-1.38-1.12-2.5-2.5-2.5Zm0,20H3.5c-.28,0-.5-.22-.5-.5V11.5c0-.28,.22-.5,.5-.5H28.5c.28,0,.5,.22,.5,.5v4.5h-9.5c-1.38,0-2.5,1.12-2.5,2.5v3c0,1.38,1.12,2.5,2.5,2.5h9.5v4.5c0,.28-.22,.5-.5,.5Zm-9-7c-.28,0-.5-.22-.5-.5v-3c0-.28,.22-.5,.5-.5h2.5v4h-2.5Zm4.5-4h5v4h-5v-4Z"/>
    <path class="cls-2" d="M7,13.5c-.55,0-1,.45-1,1v1c0,.55,.45,1,1,1s1-.45,1-1v-1c0-.55-.45-1-1-1Z"/>
    <path class="cls-2" d="M7,18.5c-.55,0-1,.45-1,1v1c0,.55,.45,1,1,1s1-.45,1-1v-1c0-.55-.45-1-1-1Z"/>
    <path class="cls-2" d="M7,23.5c-.55,0-1,.45-1,1v1c0,.55,.45,1,1,1s1-.45,1-1v-1c0-.55-.45-1-1-1Z"/>
  </g>
  <g>
    <path class="cls-1" d="M13.21,1.29c-.39-.39-1.02-.39-1.41,0L6.09,7h4.17L14.59,2.67l-1.38-1.38Z"/>
    <path class="cls-1" d="M20.21,1.29c-.39-.39-1.02-.39-1.41,0l-5.71,5.71h12.83L20.21,1.29Z"/>
  </g>
</svg>