<?xml version="1.0" encoding="UTF-8"?>
<svg id="OBJECT" xmlns="http://www.w3.org/2000/svg" viewBox="0 0 32 32">
  <defs>
    <style>
      .cls-1 {
        fill: #FD4360;
      }

      .cls-1, .cls-2 {
        stroke-width: 0px;
      }

      .cls-2 {
        fill: #dadada;
      }
    </style>
  </defs>
  <g>
    <path class="cls-2" d="m16,1H4c-1.65,0-3,1.35-3,3v24c0,1.65,1.35,3,3,3h12c.55,0,1-.45,1-1s-.45-1-1-1H4c-.55,0-1-.45-1-1V4c0-.55.45-1,1-1h12c.55,0,1,.45,1,1v3.55c0,.55.45,1,1,1s1-.45,1-1v-3.55c0-1.65-1.35-3-3-3Z"/>
    <path class="cls-2" d="m7.75,4c-.55,0-1,.45-1,1s.45,1,1,1h4.5c.55,0,1-.45,1-1s-.45-1-1-1h-4.5Z"/>
  </g>
  <g>
    <path class="cls-1" d="m26.81,20.03c-.06,0-.1.04-.1.1v1.36c0,.06.05.1.1.1h4.19v-1.56h-4.19Z"/>
    <path class="cls-1" d="m24.31,21.49v-1.36c0-1.38,1.12-2.5,2.5-2.5h1.8v-2.37h-14.94v3.82c0,.66-.54,1.2-1.2,1.2s-1.2-.54-1.2-1.2v-3.82h-2.95c-.25,0-.49-.03-.72-.07-.07-.01-.14-.04-.21-.06-.13-.03-.27-.06-.39-.11v8.18c0,1.74,1.42,3.17,3.17,3.17h18.45v-2.37h-1.8c-1.38,0-2.5-1.12-2.5-2.5Zm-10.64,1.77c0,.66-.54,1.2-1.2,1.2s-1.2-.54-1.2-1.2v-1.03c0-.66.54-1.2,1.2-1.2s1.2.54,1.2,1.2v1.03Z"/>
    <path class="cls-1" d="m8.32,12.86h18.03v-2.65H8.32c-.73,0-1.32.59-1.32,1.32s.59,1.32,1.32,1.32Z"/>
  </g>
</svg>