<?xml version="1.0" encoding="UTF-8"?>
<svg id="OBJECT" xmlns="http://www.w3.org/2000/svg" viewBox="0 0 32 32">
  <defs>
    <style>
      .cls-1 {
        fill: #FD4360;
      }

      .cls-1, .cls-2 {
        stroke-width: 0px;
      }

      .cls-2 {
        fill: #dadada;
      }
    </style>
  </defs>
  <g>
    <path class="cls-2" d="m26.5,24.5h-8c-.55,0-1,.45-1,1s.45,1,1,1h8c.55,0,1-.45,1-1s-.45-1-1-1Z"/>
    <path class="cls-2" d="m28,9h-6v-2c0-.55-.45-1-1-1h-2v-3h2.5c.55,0,1-.45,1-1s-.45-1-1-1h-11c-.55,0-1,.45-1,1s.45,1,1,1h2.5v3h-2c-.55,0-1,.45-1,1v2h-6c-1.65,0-3,1.35-3,3v16c0,1.65,1.35,3,3,3h24c1.65,0,3-1.35,3-3V12c0-1.65-1.35-3-3-3ZM15,3h2v3h-2v-3Zm-3,5h8v3c0,.55-.45,1-1,1h-6c-.55,0-1-.45-1-1v-3Zm17,20c0,.55-.45,1-1,1H4c-.55,0-1-.45-1-1V12c0-.55.45-1,1-1h6c0,1.65,1.35,3,3,3h6c1.65,0,3-1.35,3-3h6c.55,0,1,.45,1,1v16Z"/>
    <path class="cls-2" d="m15.5,11h1c.55,0,1-.45,1-1s-.45-1-1-1h-1c-.55,0-1,.45-1,1s.45,1,1,1Z"/>
  </g>
  <g>
    <rect class="cls-1" x="17.5" y="15.5" width="10" height="7" rx="2" ry="2"/>
    <path class="cls-1" d="m10,20.25c1.38,0,2.5-1.12,2.5-2.5v-1.04c0-1.19-.97-2.15-2.15-2.15h-.69c-1.19,0-2.15.97-2.15,2.15v1.04c0,1.38,1.12,2.5,2.5,2.5Z"/>
    <path class="cls-1" d="m10,22.25c-1.68,0-3.12-.93-3.9-2.29-1.01,1.01-1.6,2.38-1.6,3.85v.9c0,1.54,1.26,2.8,2.8,2.8h5.4c1.54,0,2.8-1.26,2.8-2.8v-.9c0-1.47-.59-2.84-1.6-3.85-.77,1.36-2.22,2.29-3.9,2.29Z"/>
  </g>
</svg>