<?xml version="1.0" encoding="UTF-8"?>
<svg id="OBJECT" xmlns="http://www.w3.org/2000/svg" viewBox="0 0 32 32">
  <defs>
    <style>
      .cls-1 {
        fill: #FD4360;
      }

      .cls-1, .cls-2 {
        stroke-width: 0px;
      }

      .cls-2 {
        fill: #dadada;
      }
    </style>
  </defs>
  <g>
    <path class="cls-2" d="m18.25,17.18c.25,0,.51-.1.7-.29.39-.39.4-1.02,0-1.41-.79-.8-1.84-1.24-2.96-1.24s-2.17.44-2.96,1.24c-.39.39-.39,1.03,0,1.41.39.39,1.03.39,1.41,0,.82-.83,2.25-.83,3.08,0,.2.2.45.3.71.3Z"/>
    <path class="cls-2" d="m12.21,13.59c1.01-1.02,2.36-1.59,3.79-1.59s2.78.56,3.79,1.59c.2.2.45.3.71.3s.51-.1.7-.29c.39-.39.4-1.02,0-1.41-1.39-1.4-3.24-2.18-5.21-2.18s-3.82.77-5.21,2.18c-.39.39-.39,1.03,0,1.41.39.39,1.03.38,1.41,0Z"/>
    <path class="cls-2" d="m15.75,18c-.55,0-1,.45-1,1s.45,1,1,1h.5c.55,0,1-.45,1-1s-.45-1-1-1h-.5Z"/>
    <path class="cls-2" d="m30,29h-.5v-15.64c0-.55-.45-1-1-1s-1,.45-1,1v15.64h-7v-2.17c0-.27.1-.52.29-.71l1.42-1.42c.39.19.82.3,1.29.3,1.65,0,3-1.35,3-3s-1.35-3-3-3-3,1.35-3,3c0,.46.11.89.3,1.29l-1.42,1.42c-.57.57-.88,1.32-.88,2.12v2.17h-1.5v-6c0-.55-.45-1-1-1s-1,.45-1,1v6h-1.5v-2.17c0-.8-.31-1.56-.88-2.12l-1.42-1.42c.19-.39.3-.82.3-1.29,0-1.65-1.35-3-3-3s-3,1.35-3,3,1.35,3,3,3c.46,0,.89-.11,1.29-.3l1.42,1.42c.19.19.29.44.29.71v2.17h-7v-15.64c0-.55-.45-1-1-1s-1,.45-1,1v15.64h-.5c-.55,0-1,.45-1,1s.45,1,1,1h28c.55,0,1-.45,1-1s-.45-1-1-1Zm-6.5-8c.55,0,1,.45,1,1s-.45,1-1,1-1-.45-1-1,.45-1,1-1Zm-16,1c0-.55.45-1,1-1s1,.45,1,1-.45,1-1,1-1-.45-1-1Z"/>
  </g>
  <path class="cls-1" d="m30.39,7.08L16.39,1.08c-.25-.11-.54-.11-.79,0L1.61,7.08c-.37.16-.61.52-.61.92v3.34l14.61-6.26c.25-.11.54-.11.79,0l14.61,6.26v-3.34c0-.4-.24-.76-.61-.92Z"/>
</svg>