<?xml version="1.0" encoding="UTF-8"?>
<svg id="OBJECT" xmlns="http://www.w3.org/2000/svg" viewBox="0 0 32 32">
  <defs>
    <style>
      .cls-1 {
        fill: #FD4360;
      }

      .cls-1, .cls-2 {
        stroke-width: 0px;
      }

      .cls-2 {
        fill: #dadada;
      }
    </style>
  </defs>
  <g>
    <path class="cls-2" d="m26,11h-10.5v-2h2.5c.55,0,1-.45,1-1V2c0-.55-.45-1-1-1H6c-.55,0-1,.45-1,1v6c0,.55.45,1,1,1h2.5v2h-2.5c-1.65,0-3,1.35-3,3v7c0,.55.45,1,1,1s1-.45,1-1v-7c0-.55.45-1,1-1h20c.55,0,1,.45,1,1v7c0,.55.45,1,1,1s1-.45,1-1v-7c0-1.65-1.35-3-3-3Zm-9-4h-6V3h6v4ZM7,3h2v4h-2V3Zm3.5,6h3v2h-3v-2Z"/>
    <path class="cls-2" d="m24.5,18.5H7.5c-.55,0-1,.45-1,1s.45,1,1,1h17c.55,0,1-.45,1-1s-.45-1-1-1Z"/>
    <path class="cls-2" d="m19.17,16.5c.55,0,1-.45,1-1s-.45-1-1-1h-1c-.55,0-1,.45-1,1s.45,1,1,1h1Z"/>
    <path class="cls-2" d="m13.83,16.5c.55,0,1-.45,1-1s-.45-1-1-1h-1c-.55,0-1,.45-1,1s.45,1,1,1h1Z"/>
    <path class="cls-2" d="m24.5,14.5h-1c-.55,0-1,.45-1,1s.45,1,1,1h1c.55,0,1-.45,1-1s-.45-1-1-1Z"/>
    <path class="cls-2" d="m7.5,16.5h1c.55,0,1-.45,1-1s-.45-1-1-1h-1c-.55,0-1,.45-1,1s.45,1,1,1Z"/>
  </g>
  <g>
    <path class="cls-1" d="m13,27h6c.55,0,1-.45,1-1v-2h-8v2c0,.55.45,1,1,1Z"/>
    <path class="cls-1" d="m22,24v2c0,1.66-1.34,3-3,3h-6c-1.66,0-3-1.34-3-3v-2H1v5c0,1.1.9,2,2,2h26c1.1,0,2-.9,2-2v-5h-9Z"/>
  </g>
</svg>