<?xml version="1.0" encoding="UTF-8"?>
<svg id="OBJECT" xmlns="http://www.w3.org/2000/svg" viewBox="0 0 32 32">
  <defs>
    <style>
      .cls-1 {
        fill: #FD4360;
      }

      .cls-1, .cls-2 {
        stroke-width: 0px;
      }

      .cls-2 {
        fill: #dadada;
      }
    </style>
  </defs>
  <path class="cls-1" d="m26,21.27h-8c-.55,0-1,.45-1,1s.45,1,1,1h.33v6.73c0,.55.45,1,1,1h5.33c.55,0,1-.45,1-1v-6.73h.33c.55,0,1-.45,1-1s-.45-1-1-1Z"/>
  <path class="cls-1" d="m5.5,7h1.5v1.46h2v-1.46h2v1.46h2v-1.46h1.5c.55,0,1-.45,1-1V2c0-.55-.45-1-1-1H5.5c-.55,0-1,.45-1,1v4c0,.55.45,1,1,1Z"/>
  <g>
    <path class="cls-2" d="m28,16h-9v-3.5c0-1.65-1.35-3-3-3H4c-1.65,0-3,1.35-3,3v15c0,.55.45,1,1,1h13c.55,0,1-.45,1-1s-.45-1-1-1H3v-14c0-.55.45-1,1-1h12c.55,0,1,.45,1,1v4.5c0,.55.45,1,1,1h10c.55,0,1,.45,1,1v7.5h-.33c-.55,0-1,.45-1,1s.45,1,1,1h1.33c.55,0,1-.45,1-1v-8.5c0-1.65-1.35-3-3-3Z"/>
    <path class="cls-2" d="m15,14c0-.55-.45-1-1-1H6c-.55,0-1,.45-1,1v4c0,.55.45,1,1,1h8c.55,0,1-.45,1-1v-4Zm-2,3h-6v-2h6v2Z"/>
    <path class="cls-2" d="m6.8,20h-.8c-.55,0-1,.45-1,1s.45,1,1,1h.8c.55,0,1-.45,1-1s-.45-1-1-1Z"/>
    <path class="cls-2" d="m10.4,20h-.8c-.55,0-1,.45-1,1s.45,1,1,1h.8c.55,0,1-.45,1-1s-.45-1-1-1Z"/>
    <path class="cls-2" d="m14,20h-.8c-.55,0-1,.45-1,1s.45,1,1,1h.8c.55,0,1-.45,1-1s-.45-1-1-1Z"/>
    <path class="cls-2" d="m6.8,23h-.8c-.55,0-1,.45-1,1s.45,1,1,1h.8c.55,0,1-.45,1-1s-.45-1-1-1Z"/>
    <path class="cls-2" d="m10.4,23h-.8c-.55,0-1,.45-1,1s.45,1,1,1h.8c.55,0,1-.45,1-1s-.45-1-1-1Z"/>
    <path class="cls-2" d="m14,23h-.8c-.55,0-1,.45-1,1s.45,1,1,1h.8c.55,0,1-.45,1-1s-.45-1-1-1Z"/>
  </g>
</svg>