<?xml version="1.0" encoding="UTF-8"?>
<svg id="OBJECT" xmlns="http://www.w3.org/2000/svg" viewBox="0 0 32 32">
  <defs>
    <style>
      .cls-1 {
        fill: #FD4360;
      }

      .cls-1, .cls-2 {
        stroke-width: 0px;
      }

      .cls-2 {
        fill: #dadada;
      }
    </style>
  </defs>
  <g>
    <path class="cls-2" d="m15.75,27.5h.5c1.38,0,2.5-1.12,2.5-2.5v-2c0-1.38-1.12-2.5-2.5-2.5h-.5c-1.38,0-2.5,1.12-2.5,2.5v2c0,1.38,1.12,2.5,2.5,2.5Zm-.5-4.5c0-.28.22-.5.5-.5h.5c.28,0,.5.22.5.5v2c0,.28-.22.5-.5.5h-.5c-.28,0-.5-.22-.5-.5v-2Z"/>
    <path class="cls-2" d="m22.75,27.5h.5c1.38,0,2.5-1.12,2.5-2.5v-2c0-1.38-1.12-2.5-2.5-2.5h-.5c-1.38,0-2.5,1.12-2.5,2.5v2c0,1.38,1.12,2.5,2.5,2.5Zm-.5-4.5c0-.28.22-.5.5-.5h.5c.28,0,.5.22.5.5v2c0,.28-.22.5-.5.5h-.5c-.28,0-.5-.22-.5-.5v-2Z"/>
    <path class="cls-2" d="m8.75,27.5h.5c1.38,0,2.5-1.12,2.5-2.5v-2c0-1.38-1.12-2.5-2.5-2.5h-.5c-1.38,0-2.5,1.12-2.5,2.5v2c0,1.38,1.12,2.5,2.5,2.5Zm-.5-4.5c0-.28.22-.5.5-.5h.5c.28,0,.5.22.5.5v2c0,.28-.22.5-.5.5h-.5c-.28,0-.5-.22-.5-.5v-2Z"/>
    <path class="cls-2" d="m28.5,13H3.5c-1.38,0-2.5,1.12-2.5,2.5v2.5c0,.55.45,1,1,1h.5v8c0,2.21,1.79,4,4,4h19c2.21,0,4-1.79,4-4v-8h.5c.55,0,1-.45,1-1v-2.5c0-1.38-1.12-2.5-2.5-2.5ZM3,15.5c0-.28.22-.5.5-.5h25c.28,0,.5.22.5.5v1.5H3v-1.5Zm24.5,11.5c0,1.1-.9,2-2,2H6.5c-1.1,0-2-.9-2-2v-8h23v8Z"/>
  </g>
  <g>
    <path class="cls-1" d="m11.33,1c-.89,0-1.7.5-2.09,1.29l-4.35,8.71h5.24l3.31-6.61c.37-.73.33-1.58-.1-2.28-.43-.7-1.17-1.11-1.99-1.11Z"/>
    <path class="cls-1" d="m22.77,2.29c-.4-.8-1.2-1.29-2.09-1.29-.82,0-1.56.42-1.99,1.11-.43.7-.47,1.55-.1,2.28l3.31,6.61h5.24l-4.35-8.71Z"/>
  </g>
</svg>