<?xml version="1.0" encoding="UTF-8"?>
<svg id="OBJECT" xmlns="http://www.w3.org/2000/svg" viewBox="0 0 512 512">
  <defs>
    <style>
      .cls-1 {
        fill: #FD4360;
      }

      .cls-2 {
        fill: #dadada;
      }
    </style>
  </defs>
  <g>
    <path class="cls-2" d="M193.08,256.12c-6.97-11.79-19.8-19.12-33.5-19.12h-4.15c-13.7,0-26.53,7.33-33.5,19.12L5.41,453.29c-3.54,5.99-5.41,12.84-5.41,19.8,0,21.46,17.46,38.91,38.91,38.91h237.18c21.46,0,38.91-17.46,38.91-38.91,0-6.96-1.87-13.8-5.41-19.8l-116.51-197.18Zm83.01,240.88H38.91c-13.19,0-23.91-10.73-23.91-23.91,0-4.28,1.15-8.48,3.33-12.17l116.51-197.18c4.28-7.25,12.17-11.75,20.59-11.75h4.15c8.42,0,16.3,4.5,20.59,11.75l116.51,197.18c2.18,3.68,3.33,7.89,3.33,12.17,0,13.19-10.73,23.91-23.91,23.91Z"/>
    <path class="cls-2" d="M157.5,297c-9.8,0-19.25,4.11-25.93,11.29s-10.11,16.89-9.41,26.67l7.86,110.08c.28,3.92,3.55,6.97,7.48,6.97h40c3.93,0,7.2-3.04,7.48-6.97l7.86-110.08c.7-9.78-2.73-19.5-9.41-26.67s-16.13-11.29-25.93-11.29Zm20.38,36.89l-7.37,103.11h-26.03l-7.37-103.11c-.41-5.72,1.52-11.18,5.43-15.38s9.22-6.51,14.95-6.51,11.05,2.31,14.95,6.51,5.84,9.66,5.43,15.38Z"/>
    <path class="cls-2" d="M177.5,467h-40c-4.14,0-7.5,3.36-7.5,7.5s3.36,7.5,7.5,7.5h40c4.14,0,7.5-3.36,7.5-7.5s-3.36-7.5-7.5-7.5Z"/>
    <path class="cls-2" d="M504.5,295h-65c-12.41,0-22.5,10.09-22.5,22.5v32.5h-50v-100h22.5c2.84,0,5.44-1.61,6.71-4.15l20-40c1.85-3.71,.35-8.21-3.35-10.06-3.71-1.85-8.21-.35-10.06,3.35l-17.93,35.85h-90.73l-17.93-35.85c-1.85-3.7-6.36-5.2-10.06-3.35-3.7,1.85-5.21,6.36-3.35,10.06l20,40c1.27,2.54,3.87,4.15,6.71,4.15h22.5v127.5c0,15.16,12.34,27.5,27.5,27.5h77.5v32.5c0,12.41,10.09,22.5,22.5,22.5h65c4.14,0,7.5-3.36,7.5-7.5v-150c0-4.14-3.36-7.5-7.5-7.5Zm-165,95c-6.89,0-12.5-5.61-12.5-12.5v-127.5h25v107.5c0,4.14,3.36,7.5,7.5,7.5h57.5v25h-77.5Zm157.5,55h-57.5c-4.14,0-7.5-3.36-7.5-7.5v-120c0-4.14,3.36-7.5,7.5-7.5h57.5v135Z"/>
    <path class="cls-2" d="M457,345h15c4.14,0,7.5-3.36,7.5-7.5s-3.36-7.5-7.5-7.5h-15c-4.14,0-7.5,3.36-7.5,7.5s3.36,7.5,7.5,7.5Z"/>
    <path class="cls-2" d="M457,385h15c4.14,0,7.5-3.36,7.5-7.5s-3.36-7.5-7.5-7.5h-15c-4.14,0-7.5,3.36-7.5,7.5s3.36,7.5,7.5,7.5Z"/>
    <path class="cls-2" d="M457,425h15c4.14,0,7.5-3.36,7.5-7.5s-3.36-7.5-7.5-7.5h-15c-4.14,0-7.5,3.36-7.5,7.5s3.36,7.5,7.5,7.5Z"/>
  </g>
  <g>
    <path class="cls-1" d="M142.3,78.27c-13.78,20.16-13.78,48.31,0,68.46,1.4,2.04,3.71,3.27,6.19,3.27h33.51V75h-33.51c-2.48,0-4.79,1.22-6.19,3.27Z"/>
    <rect class="cls-1" x="322" y="135" width="15" height="15" rx="2.5" ry="2.5"/>
    <rect class="cls-1" x="242" y="135" width="35" height="15" rx="2.5" ry="2.5"/>
    <path class="cls-1" d="M324,96l-23.25-31h-103.75v100c0,8.28,6.72,15,15,15h255c8.28,0,15-6.72,15-15v-60h-140c-7.08,0-13.75-3.33-18-9Zm-32,51.5c0,9.65-7.85,17.5-17.5,17.5h-30c-9.65,0-17.5-7.85-17.5-17.5v-10c0-9.65,7.85-17.5,17.5-17.5h30c9.65,0,17.5,7.85,17.5,17.5v10Zm60-10v10c0,9.65-7.85,17.5-17.5,17.5h-10c-9.65,0-17.5-7.85-17.5-17.5v-10c0-9.65,7.85-17.5,17.5-17.5h10c9.65,0,17.5,7.85,17.5,17.5Z"/>
    <path class="cls-1" d="M489.5,0H114.5c-2.7,0-5.2,1.45-6.53,3.8-1.33,2.35-1.29,5.24,.1,7.55l23.18,38.64H424.5c4.14,0,7.5,3.36,7.5,7.5s-3.36,7.5-7.5,7.5h-105l16.5,22c1.41,1.88,3.65,3,6,3h170V22.5c0-12.41-10.09-22.5-22.5-22.5Zm-25,65h-10c-4.14,0-7.5-3.36-7.5-7.5s3.36-7.5,7.5-7.5h10c4.14,0,7.5,3.36,7.5,7.5s-3.36,7.5-7.5,7.5Z"/>
  </g>
</svg>