<?xml version="1.0" encoding="UTF-8"?>
<svg id="OBJECT" xmlns="http://www.w3.org/2000/svg" viewBox="0 0 32 32">
  <defs>
    <style>
      .cls-1 {
        fill: #FD4360;
      }

      .cls-1, .cls-2 {
        stroke-width: 0px;
      }

      .cls-2 {
        fill: #dadada;
      }
    </style>
  </defs>
  <g>
    <path class="cls-2" d="m18.5,19.5h1.5c1.38,0,2.5-1.12,2.5-2.5v-5c0-1.38-1.12-2.5-2.5-2.5h-1.5c-1.38,0-2.5,1.12-2.5,2.5v5c0,1.38,1.12,2.5,2.5,2.5Zm1.5-2h-1.5c-.28,0-.5-.22-.5-.5v-1.5h2.5v1.5c0,.28-.22.5-.5.5Zm-1.5-6h1.5c.28,0,.5.22.5.5v1.5h-2.5v-1.5c0-.28.22-.5.5-.5Z"/>
    <path class="cls-2" d="m29.96,9.59c-.16-.36-.52-.59-.91-.59h-3.05v-1c0-.55-.45-1-1-1s-1,.45-1,1v13H3v-13c0-.55-.45-1-1-1s-1,.45-1,1v14c0,.55.45,1,1,1h7.5v2.75H2c-.55,0-1,.45-1,1s.45,1,1,1h7.58c.35,1.85,1.98,3.25,3.92,3.25,2.21,0,4-1.79,4-4v-4h7.5c.55,0,1-.45,1-1v-2h3.05c.4,0,.75-.23.91-.59,1.39-3.12,1.39-6.69,0-9.81Zm-14.46,17.41c0,1.1-.9,2-2,2s-2-.9-2-2v-4h4v4Zm12.87-9h-2.37v-7h2.37c.83,2.25.83,4.75,0,7Z"/>
    <path class="cls-2" d="m11.88,16.61c.25,0,.51-.1.7-.29.39-.39.4-1.02,0-1.41-.76-.76-1.76-1.19-2.84-1.19s-2.08.42-2.84,1.19c-.39.39-.39,1.03,0,1.41.39.39,1.03.38,1.41,0,.76-.76,2.07-.76,2.83,0,.2.2.45.3.71.3Z"/>
    <path class="cls-2" d="m6.21,13.2c.95-.96,2.2-1.48,3.54-1.48s2.59.53,3.54,1.48c.2.2.45.3.71.3s.51-.1.7-.29c.39-.39.4-1.02,0-1.41-1.32-1.34-3.09-2.07-4.96-2.07s-3.64.74-4.96,2.07c-.39.39-.39,1.03,0,1.41.39.39,1.03.39,1.41,0Z"/>
    <path class="cls-2" d="m9.51,17.28c-.55,0-1,.45-1,1s.45,1,1,1h.47c.55,0,1-.45,1-1s-.45-1-1-1h-.47Z"/>
    <path class="cls-2" d="m13.5,28c.55,0,1-.45,1-1v-.5c0-.55-.45-1-1-1s-1,.45-1,1v.5c0,.55.45,1,1,1Z"/>
  </g>
  <path class="cls-1" d="m30.93,2.37c.12-.31.09-.66-.1-.93s-.5-.44-.83-.44H2c-.55,0-1,.45-1,1v4h28.48l1.45-3.63Z"/>
</svg>