<?xml version="1.0" encoding="UTF-8"?>
<svg id="OBJECT" xmlns="http://www.w3.org/2000/svg" viewBox="0 0 32 32">
  <defs>
    <style>
      .cls-1 {
        fill: #FD4360;
      }

      .cls-1, .cls-2 {
        stroke-width: 0px;
      }

      .cls-2 {
        fill: #dadada;
      }
    </style>
  </defs>
  <path class="cls-1" d="m29,4h-2.31v12h2.31c1.1,0,2-.9,2-2V6c0-1.1-.9-2-2-2Z"/>
  <path class="cls-1" d="m1,25v5c0,.55.45,1,1,1h5v-7H2c-.55,0-1,.45-1,1Z"/>
  <g>
    <path class="cls-2" d="m23.69,11.95h-1.23v-3.9h1.23c.55,0,1-.45,1-1s-.45-1-1-1h-1.23V2c0-.55-.45-1-1-1H4c-1.65,0-3,1.35-3,3v12c0,1.65,1.35,3,3,3h4.46v3c0,.55.45,1,1,1h4v2.19c0,.72-.59,1.31-1.31,1.31h-2.16c-.55,0-1,.45-1,1s.45,1,1,1h2.16c1.82,0,3.31-1.48,3.31-3.31v-2.19h2c.38,0,.73-.21.89-.55l1.72-3.45h1.38c.55,0,1-.45,1-1v-4.05h1.23c.55,0,1-.45,1-1s-.45-1-1-1ZM3,16V4c0-.55.45-1,1-1h1v14h-1c-.55,0-1-.45-1-1Zm13.84,5h-6.38v-2h7.38l-1,2Zm3.62-4H7V3h13.46v14Z"/>
    <path class="cls-2" d="m14.37,4h-4c-.55,0-1,.45-1,1s.45,1,1,1h4c.55,0,1-.45,1-1s-.45-1-1-1Z"/>
    <path class="cls-2" d="m18.46,4h-1c-.55,0-1,.45-1,1s.45,1,1,1h1c.55,0,1-.45,1-1s-.45-1-1-1Z"/>
  </g>
</svg>