<?xml version="1.0" encoding="UTF-8"?>
<svg id="OBJECT" xmlns="http://www.w3.org/2000/svg" viewBox="0 0 32 32">
  <defs>
    <style>
      .cls-1 {
        fill: #FD4360;
      }

      .cls-1, .cls-2 {
        stroke-width: 0px;
      }

      .cls-2 {
        fill: #dadada;
      }
    </style>
  </defs>
  <g>
    <path class="cls-2" d="m29.9,8.38c-.19-.24-.48-.38-.78-.38h-3.11v-1h3c.55,0,1-.45,1-1V2c0-.55-.45-1-1-1H7c-.55,0-1,.45-1,1v15c0,.55.45,1,1,1h18c.55,0,1-.45,1-1v-2h3.11c.3,0,.59-.14.78-.38,1.47-1.84,1.47-4.41,0-6.25ZM8,3h20v2h-13c-.55,0-1,.45-1,1s.45,1,1,1h4.13l-.67,1h-10.46V3Zm0,13v-6h11c.33,0,.65-.17.83-.45l1.7-2.55h2.46v9H8Zm20.59-3h-2.59v-3h2.59c.54.93.54,2.07,0,3Z"/>
    <path class="cls-2" d="m10.5,13h-.5c-.55,0-1,.45-1,1s.45,1,1,1h.5c.55,0,1-.45,1-1s-.45-1-1-1Z"/>
    <path class="cls-2" d="m14.5,13h-.5c-.55,0-1,.45-1,1s.45,1,1,1h.5c.55,0,1-.45,1-1s-.45-1-1-1Z"/>
  </g>
  <path class="cls-1" d="m10,21c0,.55.45,1,1,1h4v3.5c0,.55-.45,1-1,1h-4v2h4c1.65,0,3-1.35,3-3v-3.5h4c.55,0,1-.45,1-1v-2h-12v2Z"/>
  <path class="cls-1" d="m6,24H1v7h5c1.1,0,2-.9,2-2v-3c0-1.1-.9-2-2-2Z"/>
</svg>