<?xml version="1.0" encoding="UTF-8"?>
<svg id="OBJECT" xmlns="http://www.w3.org/2000/svg" viewBox="0 0 32 32">
  <defs>
    <style>
      .cls-1 {
        fill: #FD4360;
      }

      .cls-1, .cls-2 {
        stroke-width: 0px;
      }

      .cls-2 {
        fill: #dadada;
      }
    </style>
  </defs>
  <g>
    <path class="cls-2" d="m8,12h-4c-1.65,0-3,1.35-3,3v7c0,1.65,1.35,3,3,3h4c.55,0,1-.45,1-1v-11c0-.55-.45-1-1-1Zm-1,11h-3c-.55,0-1-.45-1-1v-7c0-.55.45-1,1-1h3v9Z"/>
    <path class="cls-2" d="m28,12h-4c-.55,0-1,.45-1,1v11c0,.55.45,1,1,1h2v.94c0,1.69-1.37,3.06-3.06,3.06h-1.94v2h1.94c2.79,0,5.06-2.27,5.06-5.06v-.94c1.65,0,3-1.35,3-3v-7c0-1.65-1.35-3-3-3Zm1,10c0,.55-.45,1-1,1h-3v-9h3c.55,0,1,.45,1,1v7Z"/>
  </g>
  <g>
    <path class="cls-1" d="m11,28v2c0,.55.45,1,1,1h7v-4h-7c-.55,0-1,.45-1,1Z"/>
    <path class="cls-1" d="m21,1h-10c-3.86,0-7,3.14-7,7,0,.55.45,1,1,1s1-.45,1-1c0-2.76,2.24-5,5-5h10c2.76,0,5,2.24,5,5,0,.55.45,1,1,1s1-.45,1-1c0-3.86-3.14-7-7-7Z"/>
  </g>
</svg>