<?xml version="1.0" encoding="UTF-8"?>
<svg id="OBJECT" xmlns="http://www.w3.org/2000/svg" viewBox="0 0 32 32">
  <defs>
    <style>
      .cls-1 {
        fill: #FD4360;
      }

      .cls-1, .cls-2 {
        stroke-width: 0px;
      }

      .cls-2 {
        fill: #dadada;
      }
    </style>
  </defs>
  <g>
    <path class="cls-2" d="m21.5,7c.55,0,1-.45,1-1s-.45-1-1-1h-11c-.55,0-1,.45-1,1s.45,1,1,1h11Z"/>
    <path class="cls-2" d="m5.5,7h1c.55,0,1-.45,1-1s-.45-1-1-1h-1c-.55,0-1,.45-1,1s.45,1,1,1Z"/>
    <path class="cls-2" d="m26.5,7c.55,0,1-.45,1-1s-.45-1-1-1h-1c-.55,0-1,.45-1,1s.45,1,1,1h1Z"/>
    <path class="cls-2" d="m5.5,11h21c.55,0,1-.45,1-1s-.45-1-1-1H5.5c-.55,0-1,.45-1,1s.45,1,1,1Z"/>
    <path class="cls-2" d="m30,1H2c-.55,0-1,.45-1,1v20c0,.55.45,1,1,1h5.11c.55,0,1-.45,1-1s-.45-1-1-1H3V3h26v18h-4.11c-.55,0-1,.45-1,1s.45,1,1,1h5.11c.55,0,1-.45,1-1V2c0-.55-.45-1-1-1Z"/>
  </g>
  <g>
    <path class="cls-1" d="m11.5,26.7v3.3c0,.36.19.69.5.87.31.18.69.18,1,0l3-1.72,3,1.72c.15.09.32.13.5.13s.35-.04.5-.13c.31-.18.5-.51.5-.87v-3.3c-1.31.82-2.85,1.3-4.5,1.3s-3.19-.48-4.5-1.3Z"/>
    <path class="cls-1" d="m16,13c-3.58,0-6.5,2.92-6.5,6.5s2.92,6.5,6.5,6.5,6.5-2.92,6.5-6.5-2.92-6.5-6.5-6.5Zm2.71,5.99l-2.44,2.44c-.2.2-.45.29-.71.29s-.51-.1-.71-.29l-1.56-1.56c-.39-.39-.39-1.02,0-1.41s1.02-.39,1.41,0l.86.86,1.73-1.73c.39-.39,1.02-.39,1.41,0s.39,1.02,0,1.41Z"/>
  </g>
</svg>