<?xml version="1.0" encoding="UTF-8"?>
<svg id="OBJECT" xmlns="http://www.w3.org/2000/svg" viewBox="0 0 32 32">
  <defs>
    <style>
      .cls-1 {
        fill: #FD4360;
      }

      .cls-2 {
        fill: #dadada;
      }
    </style>
  </defs>
  <g>
    <path class="cls-2" d="m26,14h-1c-.55,0-1,.45-1,1s.45,1,1,1h1c.55,0,1-.45,1-1s-.45-1-1-1Z"/>
    <path class="cls-2" d="m6,14c-.55,0-1,.45-1,1s.45,1,1,1h1c.55,0,1-.45,1-1s-.45-1-1-1h-1Z"/>
    <path class="cls-2" d="m27,10v-4c0-.55-.45-1-1-1H6c-.55,0-1,.45-1,1v4c0,.55.45,1,1,1h20c.55,0,1-.45,1-1Zm-2-1H7v-2h18v2Z"/>
    <path class="cls-2" d="m30,1H2c-.55,0-1,.45-1,1v19c0,.55.45,1,1,1h6.35c.55,0,1-.45,1-1s-.45-1-1-1H3V3h26v17h-5.35c-.55,0-1,.45-1,1s.45,1,1,1h6.35c.55,0,1-.45,1-1V2c0-.55-.45-1-1-1Z"/>
  </g>
  <g>
    <path class="cls-1" d="m12,25.92v4.08c0,.37.2.71.53.88.32.17.72.15,1.03-.05l2.45-1.63,2.45,1.63c.17.11.36.17.55.17.16,0,.32-.04.47-.12.33-.17.53-.51.53-.88v-4.08c-1.18.68-2.54,1.08-4,1.08s-2.82-.4-4-1.08Z"/>
    <path class="cls-1" d="m16,13c-3.31,0-6,2.69-6,6s2.69,6,6,6,6-2.69,6-6-2.69-6-6-6Zm3.23,4.93l-3.28,3.5c-.19.2-.45.32-.73.32s-.54-.11-.73-.32l-1.72-1.83c-.38-.4-.36-1.04.04-1.41.4-.38,1.04-.36,1.41.04l.99,1.05,2.56-2.72c.38-.4,1.01-.42,1.41-.04.4.38.42,1.01.04,1.41Z"/>
  </g>
</svg>