<?xml version="1.0" encoding="UTF-8"?>
<svg id="OBJECT" xmlns="http://www.w3.org/2000/svg" viewBox="0 0 32 32">
  <defs>
    <style>
      .cls-1 {
        fill: #FD4360;
      }

      .cls-1, .cls-2 {
        stroke-width: 0px;
      }

      .cls-2 {
        fill: #dadada;
      }
    </style>
  </defs>
  <g>
    <path class="cls-2" d="m30,1H2c-.55,0-1,.45-1,1v19c0,.55.45,1,1,1h5.71c.55,0,1-.45,1-1s-.45-1-1-1H3V3h26v17h-4.71c-.55,0-1,.45-1,1s.45,1,1,1h5.71c.55,0,1-.45,1-1V2c0-.55-.45-1-1-1Z"/>
    <path class="cls-2" d="m26,5H10c-.55,0-1,.45-1,1s.45,1,1,1h16c.55,0,1-.45,1-1s-.45-1-1-1Z"/>
    <path class="cls-2" d="m6,7h.5c.55,0,1-.45,1-1s-.45-1-1-1h-.5c-.55,0-1,.45-1,1s.45,1,1,1Z"/>
    <path class="cls-2" d="m22,9H6c-.55,0-1,.45-1,1s.45,1,1,1h16c.55,0,1-.45,1-1s-.45-1-1-1Z"/>
    <path class="cls-2" d="m26,11c.55,0,1-.45,1-1s-.45-1-1-1h-.5c-.55,0-1,.45-1,1s.45,1,1,1h.5Z"/>
    <path class="cls-2" d="m26,19h1c.55,0,1-.45,1-1s-.45-1-1-1h-1c-.55,0-1,.45-1,1s.45,1,1,1Z"/>
    <path class="cls-2" d="m5,17c-.55,0-1,.45-1,1s.45,1,1,1h1c.55,0,1-.45,1-1s-.45-1-1-1h-1Z"/>
  </g>
  <g>
    <path class="cls-1" d="m11,26.36v3.64c0,.35.18.67.47.85.29.18.66.2.97.04l3.55-1.78,3.55,1.78c.14.07.29.11.45.11.18,0,.37-.05.53-.15.29-.18.47-.5.47-.85v-3.64c-1.41,1.03-3.13,1.64-5,1.64s-3.59-.61-5-1.64Z"/>
    <path class="cls-1" d="m16,26c3.58,0,6.5-2.92,6.5-6.5s-2.92-6.5-6.5-6.5-6.5,2.92-6.5,6.5,2.92,6.5,6.5,6.5Zm-3.05-7.55c.39-.39,1.02-.39,1.41,0l1.08,1.08,2.19-2.19c.39-.39,1.02-.39,1.41,0,.39.39.39,1.02,0,1.41l-2.9,2.9c-.19.19-.44.29-.71.29s-.52-.11-.71-.29l-1.79-1.79c-.39-.39-.39-1.02,0-1.41Z"/>
  </g>
</svg>