<?xml version="1.0" encoding="UTF-8"?>
<svg id="OBJECT" xmlns="http://www.w3.org/2000/svg" viewBox="0 0 32 32">
  <defs>
    <style>
      .cls-1 {
        fill: #FD4360;
      }

      .cls-1, .cls-2 {
        stroke-width: 0px;
      }

      .cls-2 {
        fill: #dadada;
      }
    </style>
  </defs>
  <g>
    <path class="cls-2" d="m15,13c0-.55-.45-1-1-1H6c-.55,0-1,.45-1,1s.45,1,1,1h8c.55,0,1-.45,1-1Z"/>
    <path class="cls-2" d="m26,7H6c-.55,0-1,.45-1,1s.45,1,1,1h20c.55,0,1-.45,1-1s-.45-1-1-1Z"/>
    <path class="cls-2" d="m6,17c-.55,0-1,.45-1,1s.45,1,1,1h6c.55,0,1-.45,1-1s-.45-1-1-1h-6Z"/>
    <path class="cls-2" d="m30,1H2c-.55,0-1,.45-1,1v22c0,.55.45,1,1,1h12.12c.55,0,1-.45,1-1s-.45-1-1-1H3V3h26v20h-.12c-.55,0-1,.45-1,1s.45,1,1,1h1.12c.55,0,1-.45,1-1V2c0-.55-.45-1-1-1Z"/>
  </g>
  <path class="cls-1" d="m17.12,24.75v5.25c0,.38.21.72.55.89.34.17.75.13,1.05-.09l2.78-2.08,2.78,2.08c.18.13.39.2.6.2.15,0,.31-.04.45-.11.34-.17.55-.52.55-.89v-5.25c-1.23.89-2.74,1.42-4.38,1.42s-3.14-.53-4.38-1.42Z"/>
  <circle class="cls-1" cx="21.5" cy="18.67" r="5.5"/>
</svg>