<?xml version="1.0" encoding="UTF-8"?>
<svg id="OBJECT" xmlns="http://www.w3.org/2000/svg" viewBox="0 0 32 32">
  <defs>
    <style>
      .cls-1 {
        fill: #FD4360;
      }

      .cls-1, .cls-2 {
        stroke-width: 0px;
      }

      .cls-2 {
        fill: #dadada;
      }
    </style>
  </defs>
  <g>
    <path class="cls-2" d="m14,20h-1c-.55,0-1,.45-1,1s.45,1,1,1h1c.55,0,1-.45,1-1s-.45-1-1-1Z"/>
    <path class="cls-2" d="m19,20h-1c-.55,0-1,.45-1,1s.45,1,1,1h1c.55,0,1-.45,1-1s-.45-1-1-1Z"/>
    <path class="cls-2" d="m28,7h-2V2c0-.55-.45-1-1-1H2c-.55,0-1,.45-1,1v1.87c0,1.05.56,2.03,1.46,2.57l3.54,2.13v15.43c0,.55.45,1,1,1s1-.45,1-1V3h16v21c0,.55.45,1,1,1s1-.45,1-1v-10h3v8c0,.55.45,1,1,1s1-.45,1-1v-12c0-1.65-1.35-3-3-3ZM3.49,4.73c-.3-.18-.49-.51-.49-.86v-.87h3v3.23l-2.51-1.51Zm22.51,4.27h2c.55,0,1,.45,1,1v2h-3v-3Z"/>
    <path class="cls-2" d="m14.46,12.94c.82-.84,2.25-.84,3.07,0,.2.2.46.3.71.3s.5-.09.7-.29c.39-.39.4-1.02.02-1.41-.79-.81-1.84-1.25-2.96-1.25s-2.17.45-2.96,1.25c-.39.4-.38,1.03.02,1.41.4.39,1.03.38,1.41-.02Z"/>
    <path class="cls-2" d="m16,6c-1.97,0-3.82.78-5.21,2.21-.39.4-.38,1.03.02,1.41.4.39,1.03.38,1.41-.02,1.01-1.04,2.36-1.61,3.79-1.61s2.77.57,3.79,1.61c.2.2.46.3.71.3s.5-.09.7-.29c.39-.39.4-1.02.02-1.41-1.39-1.42-3.24-2.21-5.21-2.21Z"/>
    <path class="cls-2" d="m16.25,14.1h-.5c-.55,0-1,.45-1,1s.45,1,1,1h.5c.55,0,1-.45,1-1s-.45-1-1-1Z"/>
  </g>
  <path class="cls-1" d="m6,29c0,1.1.9,2,2,2h16c1.1,0,2-.9,2-2v-3H6v3Z"/>
</svg>