<?xml version="1.0" encoding="UTF-8"?>
<svg id="OBJECT" xmlns="http://www.w3.org/2000/svg" viewBox="0 0 32 32">
  <defs>
    <style>
      .cls-1 {
        fill: #FD4360;
      }

      .cls-1, .cls-2 {
        stroke-width: 0px;
      }

      .cls-2 {
        fill: #dadada;
      }
    </style>
  </defs>
  <path class="cls-2" d="m23.78,20.65c-.28-.24-.61-.44-.96-.56l-.85-.3c-1.2-.42-2.5-.01-3.25,1.01l-1.14,1.56c-3.2-2.01-5.93-4.73-7.94-7.94l1.56-1.13c1.01-.74,1.43-2.08,1.02-3.26l-.3-.86c-.12-.35-.32-.68-.56-.96-3.71-4.21-6.53-3.15-6.84-3.01-.12.05-.22.12-.31.21l-2.35,2.35c-.52.52-.81,1.19-.84,1.89-.29,8.33,5.97,14.81,6.25,15.09.26.26,6.46,6.24,14.51,6.24.19,0,.38,0,.57,0,.7-.03,1.38-.32,1.89-.84l2.35-2.35c.09-.09.16-.19.21-.31.13-.31,1.19-3.13-3.01-6.84Zm1.2,5.92l-2.17,2.17c-.16.16-.36.25-.55.26-.16,0-.32,0-.49,0-7.24,0-13.06-5.61-13.11-5.66-.06-.06-5.92-6.15-5.66-13.61,0-.19.1-.4.26-.55l2.16-2.16c.49-.07,2.14-.07,4.43,2.52.07.08.13.19.17.3l.3.86c.12.35,0,.75-.3.97l-1.38,1c-.08-.16-.17-.3-.25-.46l-.7-1.42c-.25-.5-.85-.7-1.34-.46-.5.24-.7.84-.46,1.34l.7,1.42c2.62,5.32,6.99,9.69,12.31,12.31l1.42.7c.14.07.29.1.44.1.37,0,.72-.21.9-.56.24-.5.04-1.1-.46-1.34l-1.43-.7c-.16-.08-.31-.17-.46-.25l1.01-1.38c.22-.3.61-.43.97-.3l.85.3c.11.04.22.1.3.17,2.61,2.31,2.59,3.97,2.53,4.42Z"/>
  <path class="cls-1" d="m30.95,11.25l-1.39-7.64c-.28-1.51-1.59-2.61-3.13-2.61h-7.27c-1.54,0-2.86,1.1-3.13,2.61l-1.39,7.64c-.17.93.08,1.88.69,2.61s1.5,1.14,2.44,1.14h10.04c.95,0,1.84-.42,2.44-1.14s.86-1.68.69-2.61Zm-4.7-3.86c0,1.9-1.55,3.45-3.45,3.45s-3.46-1.55-3.46-3.45v-1.23c0-.55.45-1,1-1s1,.45,1,1v1.23c0,.8.65,1.45,1.46,1.45s1.45-.65,1.45-1.45v-1.23c0-.55.45-1,1-1s1,.45,1,1v1.23Z"/>
</svg>