<?xml version="1.0" encoding="UTF-8"?>
<svg id="OBJECT" xmlns="http://www.w3.org/2000/svg" viewBox="0 0 32 32">
  <defs>
    <style>
      .cls-1 {
        fill: #FD4360;
      }

      .cls-1, .cls-2 {
        stroke-width: 0px;
      }

      .cls-2 {
        fill: #dadada;
      }
    </style>
  </defs>
  <path class="cls-2" d="m27.66,4.25c-.22-.19-.51-.28-.79-.24-4.92.67-10.26-2.81-10.32-2.84-.33-.22-.77-.22-1.1,0-.05.03-5.41,3.51-10.32,2.84-.28-.04-.58.05-.79.24-.22.19-.34.46-.34.75v11.28c0,5.13,2.8,9.84,7.3,12.29l4.22,2.3c.15.08.31.12.48.12s.33-.04.48-.12l4.22-2.3c4.5-2.46,7.3-7.16,7.3-12.29V5c0-.29-.12-.56-.34-.75Zm-1.66,12.04c0,4.39-2.4,8.43-6.25,10.53l-3.75,2.04-3.75-2.04c-3.86-2.1-6.25-6.14-6.25-10.53V6.09c4.35.15,8.52-2.04,10-2.91,1.48.87,5.67,3.06,10,2.91v10.2Z"/>
  <g>
    <path class="cls-1" d="m20.48,18.14c-.19-.17-.43-.31-.67-.39l-.46-.16c-.83-.29-1.75,0-2.27.71l-.36.49c-1.39-.93-2.58-2.12-3.51-3.51l.48-.35c.71-.51,1-1.45.71-2.28l-.16-.45c-.08-.24-.22-.48-.39-.67-2.2-2.5-4-1.82-4.2-1.73-.12.05-.22.12-.31.21l-1.26,1.26c-.36.36-.57.83-.59,1.33-.16,4.66,3.32,8.27,3.49,8.43.15.14,3.59,3.48,8.1,3.48.11,0,.21,0,.32,0,.5-.02.97-.23,1.33-.59l1.26-1.26c.09-.09.16-.19.21-.31.09-.2.77-1.99-1.73-4.2Z"/>
    <path class="cls-1" d="m17.13,13.16c.49-.03.95.13,1.26.45.32.32.48.77.45,1.26-.03.55.39,1.03.94,1.06.02,0,.04,0,.06,0,.52,0,.96-.41,1-.94.07-1.08-.3-2.07-1.03-2.8-.73-.73-1.72-1.09-2.8-1.03-.55.03-.97.51-.94,1.06.03.55.53.98,1.06.94Z"/>
    <path class="cls-1" d="m22.72,9.28c-1.25-1.25-2.96-1.88-4.83-1.76-.55.03-.97.51-.94,1.06.03.55.51.99,1.06.94,1.29-.08,2.46.34,3.29,1.18.84.84,1.26,2.01,1.18,3.3-.03.55.39,1.02.94,1.06.02,0,.04,0,.06,0,.52,0,.96-.41,1-.94.11-1.86-.51-3.58-1.77-4.83Z"/>
  </g>
</svg>