<?xml version="1.0" encoding="UTF-8" standalone="no"?>
<svg
   id="OBJECT"
   viewBox="0 0 32 32"
   version="1.1"
   sodipodi:docname="Changelog.svg"
   xml:space="preserve"
   inkscape:version="1.2.2 (732a01da63, 2022-12-09)"
   xmlns:inkscape="http://www.inkscape.org/namespaces/inkscape"
   xmlns:sodipodi="http://sodipodi.sourceforge.net/DTD/sodipodi-0.dtd"
   xmlns="http://www.w3.org/2000/svg"
   xmlns:svg="http://www.w3.org/2000/svg"><sodipodi:namedview
     id="namedview13"
     pagecolor="#505050"
     bordercolor="#ffffff"
     borderopacity="1"
     inkscape:showpageshadow="0"
     inkscape:pageopacity="0"
     inkscape:pagecheckerboard="1"
     inkscape:deskcolor="#505050"
     showgrid="false"
     inkscape:zoom="0.80957031"
     inkscape:cx="-190.84198"
     inkscape:cy="153.16767"
     inkscape:window-width="1920"
     inkscape:window-height="1009"
     inkscape:window-x="-8"
     inkscape:window-y="-8"
     inkscape:window-maximized="1"
     inkscape:current-layer="OBJECT" /><defs
     id="defs4"><style
       id="style2">
      .cls-1 {
        fill: #FD4360;
      }

      .cls-1, .cls-2 {
        stroke-width: 0px;
      }

      .cls-2 {
        fill: #dadada;
      }
    </style></defs><path
     style="fill:#fd4360;stroke-width:0.177831"
     d="m 8.5215472,27.032935 c 0.070803,-0.0708 2.2184588,-2.186991 2.2184588,-2.186991 0,0 1.38457,1.156432 2.556734,1.565509 1.172164,0.409077 2.824208,0.660817 2.824208,0.660817 l 0.08654,2.981545 c 0,0 -3.886237,0.291075 -7.6859378,-3.02088 z"
     id="path368" /><path
     style="fill:#fd4360;stroke-width:0.177831"
     d="m 4.8111107,14.127414 c 0,0 -0.4783935,0.07788 -0.5673971,-0.36714 -0.089004,-0.445017 -0.07788,-8.5332116 -0.07788,-8.5332116 0,0 0.022249,-0.5006455 0.3782645,-0.5451465 0.3560138,-0.044502 2.3697177,0 2.3697177,0 0,0 0.4116422,0 0.4227675,0.3337627 0.011125,0.3337642 0.022249,3.6157685 0.022249,3.6157685 0,0 0.022249,0.166881 0.267011,0.01112 0.2447594,-0.155756 0.723153,-0.7009026 0.723153,-0.7009026 0,0 0.3560146,-0.445018 2.4587225,-1.7355679 2.102708,-1.2905463 5.940985,-1.6243105 5.940985,-1.6243105 0,0 1.000682,-0.1031779 3.376479,0.4003009 2.375796,0.5034801 4.830261,2.3285959 4.830261,2.3285959 0,0 3.508626,3.2568851 4.27958,6.4665691 0.770953,3.209685 0.330187,5.84613 0.330187,5.84613 0,0 -0.255885,3.304256 -3.326506,6.686389 -3.070622,3.382134 -8.232825,3.871654 -8.232825,3.871654 l -0.089,-3.24863 c 0,0 5.874232,-0.534021 7.698805,-5.384713 1.824571,-4.850691 0.311512,-7.387292 0.311512,-7.387292 0,0 -1.068043,-3.782649 -5.0287,-5.4292149 -3.960656,-1.6465643 -7.120281,-0.4450163 -7.120281,-0.4450163 0,0 -1.713318,0.6675253 -2.759109,1.5575613 -1.0457924,0.8900339 -1.2015482,1.0902929 -1.2015482,1.0902929 0,0 -0.044498,0.111255 0.3337632,0.111255 0.378264,0 2.848113,-0.0445 2.848113,-0.0445 0,0 0.645275,-0.02225 0.667526,0.333762 0.02225,0.356015 0.089,2.24734 0.089,2.24734 0,0 0.04451,0.556272 -0.645276,0.600774 -0.689777,0.0445 -8.2995779,-0.05562 -8.2995779,-0.05562 z"
     id="path362" /><path
     style="fill:#dadada;stroke-width:0.177831;fill-opacity:1"
     d="m 16.203561,10.055504 c 0,-0.05563 -0.02225,-0.4005159 0.233634,-0.5340219 0.255887,-0.133505 0.923412,-0.06675 0.923412,-0.06675 0,0 0.36714,0.07788 0.344889,0.411641 -0.02225,0.3337639 0.01112,6.9645269 0.01112,6.9645269 l 4.027408,4.005158 c 0,0 0.300387,0.233634 0.178008,0.500645 -0.12238,0.26701 -0.712029,0.745404 -0.712029,0.745404 0,0 -0.189132,0.211383 -0.645275,-0.222509 C 20.10859,21.425706 16.214686,17.46505 16.214686,17.46505 Z"
     id="path364" /><path
     style="fill:#fd4360;stroke-width:0.177831"
     d="m 4.2325874,18.132573 c 0,-0.089 -0.07788,-0.589649 0.3782645,-0.678652 0.4561436,-0.089 2.2250881,0 2.2250881,0 0,0 0.4895204,0.07788 0.5117712,0.445018 0.022249,0.367139 -0.033374,0.75653 0,0.956788 0.033374,0.200258 0.3337623,1.290551 0.3337623,1.290551 0,0 0.5673987,1.624314 0.8121582,2.002578 0.2447594,0.378265 1.1014182,1.457433 1.1014182,1.457433 l -2.225088,2.169461 c 0,0 -3.0444847,-2.941715 -3.1373745,-7.643177 z"
     id="path366" /></svg>
