<?xml version="1.0" encoding="UTF-8"?>
<svg id="OBJECT" xmlns="http://www.w3.org/2000/svg" viewBox="0 0 32 32">
  <defs>
    <style>
      .cls-1 {
        fill: #FD4360;
      }

      .cls-1, .cls-2 {
        stroke-width: 0px;
      }

      .cls-2 {
        fill: #dadada;
      }
    </style>
  </defs>
  <g>
    <path class="cls-2" d="m21,14.5V3.5c0-1.38-1.12-2.5-2.5-2.5H3.5c-1.38,0-2.5,1.12-2.5,2.5v11c0,1.02.62,1.9,1.5,2.29v12.21h-.5c-.55,0-1,.45-1,1s.45,1,1,1h18c.55,0,1-.45,1-1s-.45-1-1-1h-.5v-12.21c.88-.39,1.5-1.27,1.5-2.29ZM3,3.5c0-.28.22-.5.5-.5h15c.28,0,.5.22.5.5v11c0,.28-.22.5-.5.5H3.5c-.28,0-.5-.22-.5-.5V3.5Zm1.5,25.5v-12h13v12H4.5Z"/>
    <path class="cls-2" d="m14.5,22h-7c-.55,0-1,.45-1,1s.45,1,1,1h7c.55,0,1-.45,1-1s-.45-1-1-1Z"/>
    <path class="cls-2" d="m14.5,25.5h-7c-.55,0-1,.45-1,1s.45,1,1,1h7c.55,0,1-.45,1-1s-.45-1-1-1Z"/>
    <path class="cls-2" d="m7.5,20.5h7c.55,0,1-.45,1-1s-.45-1-1-1h-7c-.55,0-1,.45-1,1s.45,1,1,1Z"/>
    <path class="cls-2" d="m8.67,10h2.73l-1.37,1.92c-.32.45-.21,1.07.24,1.39.18.12.38.19.58.19.31,0,.62-.15.82-.42l2.49-3.5c.22-.31.25-.71.07-1.04s-.51-.54-.89-.54h-2.73l1.37-1.92c.32-.45.21-1.07-.24-1.39-.45-.32-1.08-.21-1.39.24l-2.49,3.5c-.22.31-.25.71-.07,1.04s.51.54.89.54Z"/>
  </g>
  <path class="cls-1" d="m28,11h-2v-1.65c0-.41.25-.78.63-.93l3.74-1.5c.51-.21.76-.79.56-1.3-.21-.51-.79-.76-1.3-.56l-3.74,1.5c-1.14.46-1.88,1.56-1.88,2.78v9.65c0,.55.45,1,1,1h1.5v8.25c0,.41-.34.75-.75.75s-.75-.34-.75-.75v-5.25c0-.55-.45-1-1-1h-2.5v2h1.5v4.25c0,1.52,1.23,2.75,2.75,2.75s2.75-1.23,2.75-2.75v-8.25h1.5c.55,0,1-.45,1-1v-5c0-1.66-1.34-3-3-3Z"/>
</svg>