<?xml version="1.0" encoding="UTF-8"?>
<svg id="OBJECT" xmlns="http://www.w3.org/2000/svg" viewBox="0 0 32 32">
  <defs>
    <style>
      .cls-1 {
        fill: #FD4360;
      }

      .cls-1, .cls-2 {
        stroke-width: 0px;
      }

      .cls-2 {
        fill: #dadada;
      }
    </style>
  </defs>
  <g>
    <path class="cls-2" d="m4.45,19c0,.55.45,1,1,1h20c.55,0,1-.45,1-1s-.45-1-1-1H5.45c-.55,0-1,.45-1,1Z"/>
    <path class="cls-2" d="m30,25c.55,0,1-.45,1-1v-11c0-.55-.45-1-1-1h-2.25c-.55,0-1,.45-1,1s.45,1,1,1h1.25v9H3v-9h1.25c.55,0,1-.45,1-1s-.45-1-1-1h-2.25c-.55,0-1,.45-1,1v11c0,.55.45,1,1,1h1v4h-1c-.55,0-1,.45-1,1s.45,1,1,1h28c.55,0,1-.45,1-1s-.45-1-1-1h-1v-4h1Zm-3,4H5v-4h22v4Z"/>
  </g>
  <g>
    <circle class="cls-1" cx="16" cy="11" r="4"/>
    <path class="cls-1" d="m16,1c-5.51,0-10,4.49-10,10,0,1.8.49,3.51,1.37,5h5.32c-1.62-1.08-2.69-2.91-2.69-5,0-3.31,2.69-6,6-6s6,2.69,6,6c0,2.09-1.07,3.92-2.69,5h5.32c.87-1.49,1.37-3.2,1.37-5,0-5.51-4.49-10-10-10Z"/>
  </g>
</svg>