<?xml version="1.0" encoding="UTF-8"?>
<svg id="OBJECT" xmlns="http://www.w3.org/2000/svg" viewBox="0 0 512 512">
  <defs>
    <style>
      .cls-1 {
        fill: #FD4360;
      }

      .cls-2 {
        fill: #dadada;
      }
    </style>
  </defs>
  <g>
    <path class="cls-2" d="M352.5,237H22.5c-12.41,0-22.5,10.09-22.5,22.5v230c0,12.41,10.09,22.5,22.5,22.5H352.5c12.41,0,22.5-10.09,22.5-22.5v-230c0-12.41-10.09-22.5-22.5-22.5ZM15,489.5v-230c0-4.14,3.36-7.5,7.5-7.5H352.5c4.14,0,7.5,3.36,7.5,7.5v37.5H217.5c-15.16,0-27.5,12.34-27.5,27.5v172.5H22.5c-4.14,0-7.5-3.36-7.5-7.5Zm290-177.5h15v32.5c0,1.38-1.12,2.5-2.5,2.5h-10c-1.38,0-2.5-1.12-2.5-2.5v-32.5Zm-60,0h15v32.5c0,1.38-1.12,2.5-2.5,2.5h-10c-1.38,0-2.5-1.12-2.5-2.5v-32.5Zm107.5,185H205v-172.5c0-6.89,5.61-12.5,12.5-12.5h12.5v32.5c0,9.65,7.85,17.5,17.5,17.5h10c9.65,0,17.5-7.85,17.5-17.5v-32.5h15v32.5c0,9.65,7.85,17.5,17.5,17.5h10c9.65,0,17.5-7.85,17.5-17.5v-32.5h25v177.5c0,4.14-3.36,7.5-7.5,7.5Z"/>
    <path class="cls-2" d="M302.5,417h-40c-9.65,0-17.5,7.85-17.5,17.5v20c0,9.65,7.85,17.5,17.5,17.5h40c9.65,0,17.5-7.85,17.5-17.5v-20c0-9.65-7.85-17.5-17.5-17.5Zm2.5,37.5c0,1.38-1.12,2.5-2.5,2.5h-40c-1.38,0-2.5-1.12-2.5-2.5v-20c0-1.38,1.12-2.5,2.5-2.5h40c1.38,0,2.5,1.12,2.5,2.5v20Z"/>
    <path class="cls-2" d="M137.5,325.2H57.5c-9.65,0-17.5,7.85-17.5,17.5v30c0,9.65,7.85,17.5,17.5,17.5h80c9.65,0,17.5-7.85,17.5-17.5v-30c0-9.65-7.85-17.5-17.5-17.5Zm2.5,47.5c0,1.38-1.12,2.5-2.5,2.5H57.5c-1.38,0-2.5-1.12-2.5-2.5v-30c0-1.38,1.12-2.5,2.5-2.5h80c1.38,0,2.5,1.12,2.5,2.5v30Z"/>
    <path class="cls-2" d="M137.5,405.2H57.5c-9.65,0-17.5,7.85-17.5,17.5v10c0,9.65,7.85,17.5,17.5,17.5h80c9.65,0,17.5-7.85,17.5-17.5v-10c0-9.65-7.85-17.5-17.5-17.5Zm-82.5,27.5v-10c0-1.38,1.12-2.5,2.5-2.5h22.5v15h-22.5c-1.38,0-2.5-1.12-2.5-2.5Zm85,0c0,1.38-1.12,2.5-2.5,2.5h-42.5v-15h42.5c1.38,0,2.5,1.12,2.5,2.5v10Z"/>
  </g>
  <g>
    <path class="cls-1" d="M107.5,187H47.5c-4.14,0-7.5,3.36-7.5,7.5v27.5H115v-27.5c0-4.14-3.36-7.5-7.5-7.5Z"/>
    <path class="cls-1" d="M227.41,92.5v83.72c0,12.41-10.09,22.5-22.5,22.5h-11.48c-12.41,0-22.5-10.09-22.5-22.5V37.5c0-20.68-16.82-37.5-37.5-37.5h-25.93c-20.68,0-37.5,16.82-37.5,37.5V172h15V37.5c0-12.41,10.09-22.5,22.5-22.5h25.93c12.41,0,22.5,10.09,22.5,22.5V176.22c0,20.68,16.82,37.5,37.5,37.5h11.48c20.68,0,37.5-16.82,37.5-37.5V92.5c0-4.14,3.36-7.5,7.5-7.5h12.09v-15h-12.09c-12.41,0-22.5,10.09-22.5,22.5Z"/>
    <path class="cls-1" d="M277,57.5v40c0,4.14,3.36,7.5,7.5,7.5h32.5V50h-32.5c-4.14,0-7.5,3.36-7.5,7.5Z"/>
    <path class="cls-1" d="M344.8,26.59l-12.8,12.8V115.61l12.8,12.8c4.25,4.25,9.9,6.59,15.91,6.59h46.29V20h-46.29c-6.01,0-11.66,2.34-15.91,6.59Zm32.2,30.91c0-4.14,3.36-7.5,7.5-7.5s7.5,3.36,7.5,7.5v40c0,4.14-3.36,7.5-7.5,7.5s-7.5-3.36-7.5-7.5V57.5Z"/>
    <rect class="cls-1" x="422" width="30" height="155" rx="10" ry="10"/>
    <path class="cls-1" d="M502,30h-35v35h35c5.52,0,10-4.48,10-10v-15c0-5.52-4.48-10-10-10Z"/>
    <path class="cls-1" d="M502,90h-35v35h35c5.52,0,10-4.48,10-10v-15c0-5.52-4.48-10-10-10Z"/>
  </g>
</svg>