<?xml version="1.0" encoding="UTF-8"?>
<svg id="OBJECT" xmlns="http://www.w3.org/2000/svg" viewBox="0 0 32 32">
  <defs>
    <style>
      .cls-1 {
        fill: #FD4360;
      }

      .cls-1, .cls-2 {
        stroke-width: 0px;
      }

      .cls-2 {
        fill: #dadada;
      }
    </style>
  </defs>
  <g>
    <path class="cls-2" d="m22,14.5h-3c-.55,0-1,.45-1,1s.45,1,1,1h3c.55,0,1-.45,1-1s-.45-1-1-1Z"/>
    <path class="cls-2" d="m22,10h-3c-.55,0-1,.45-1,1s.45,1,1,1h3c.55,0,1-.45,1-1s-.45-1-1-1Z"/>
    <path class="cls-2" d="m22,5.5h-5c-.55,0-1,.45-1,1s.45,1,1,1h5c.55,0,1-.45,1-1s-.45-1-1-1Z"/>
    <path class="cls-2" d="m14.44,9.61c.03-.2.06-.4.06-.61v-1.5c0-1.65-1.35-3-3-3h-1c-1.65,0-3,1.35-3,3v1.5c0,.21.03.41.06.61-1.6,1.11-2.56,2.92-2.56,4.89v.5c0,1.38,1.12,2.5,2.5,2.5h7c1.38,0,2.5-1.12,2.5-2.5v-.5c0-1.97-.96-3.78-2.56-4.89Zm-4.94-2.11c0-.55.45-1,1-1h1c.55,0,1,.45,1,1v1.5c0,.83-.67,1.5-1.5,1.5s-1.5-.67-1.5-1.5v-1.5Zm5.5,7.5c0,.28-.22.5-.5.5h-7c-.28,0-.5-.22-.5-.5v-.5c0-1.21.56-2.33,1.49-3.08.64.66,1.53,1.08,2.51,1.08s1.88-.42,2.51-1.08c.93.75,1.49,1.86,1.49,3.08v.5Z"/>
    <path class="cls-2" d="m24.05,1H3.95c-1.63,0-2.95,1.33-2.95,2.95v20.09c0,1.63,1.33,2.95,2.95,2.95.99,0,1.91-.49,2.46-1.32l3.12-4.68h14.51c1.63,0,2.95-1.33,2.95-2.95V3.95c0-1.63-1.33-2.95-2.95-2.95Zm.95,17.05c0,.53-.43.95-.95.95H5c-.55,0-1,.45-1,1s.45,1,1,1h2.13l-2.38,3.58c-.18.27-.47.42-.79.42-.53,0-.95-.43-.95-.95V3.95c0-.53.43-.95.95-.95h20.09c.53,0,.95.43.95.95v14.09Z"/>
  </g>
  <path class="cls-1" d="m29,9.19v8.85c0,2.73-2.22,4.95-4.95,4.95h-13.04c.01,1.66,1.36,3,3.02,3h11.97c.55,0,1,.45,1,1s-.45,1-1,1h-1.88l1.49,1.86c.58.72,1.44,1.14,2.36,1.14,1.67,0,3.03-1.36,3.03-3.03v-15.95c0-1.31-.84-2.41-2-2.84Z"/>
</svg>