<?xml version="1.0" encoding="UTF-8"?>
<svg id="OBJECT" xmlns="http://www.w3.org/2000/svg" viewBox="0 0 32 32">
  <defs>
    <style>
      .cls-1 {
        fill: #FD4360;
      }

      .cls-1, .cls-2 {
        stroke-width: 0px;
      }

      .cls-2 {
        fill: #dadada;
      }
    </style>
  </defs>
  <g>
    <path class="cls-2" d="m23.17,1H3.83c-1.56,0-2.83,1.27-2.83,2.83v14.35c0,1.56,1.27,2.83,2.83,2.83h1.59l3.19,5.58c.5.88,1.44,1.42,2.45,1.42.91,0,1.77-.44,2.3-1.18l4.16-5.82h5.66c1.56,0,2.83-1.27,2.83-2.83V3.83c0-1.56-1.27-2.83-2.83-2.83Zm.83,17.17c0,.46-.37.83-.83.83h-12.17c-.55,0-1,.45-1,1s.45,1,1,1h4.06l-3.32,4.65c-.33.46-1.11.42-1.39-.07l-3.47-6.08c-.18-.31-.51-.5-.87-.5h-2.17c-.46,0-.83-.37-.83-.83V3.83c0-.46.37-.83.83-.83h19.35c.46,0,.83.37.83.83v14.35Z"/>
    <path class="cls-2" d="m21,10H6c-.55,0-1,.45-1,1s.45,1,1,1h15c.55,0,1-.45,1-1s-.45-1-1-1Z"/>
    <path class="cls-2" d="m21,15H6c-.55,0-1,.45-1,1s.45,1,1,1h15c.55,0,1-.45,1-1s-.45-1-1-1Z"/>
    <path class="cls-2" d="m21,5h-11c-.55,0-1,.45-1,1s.45,1,1,1h11c.55,0,1-.45,1-1s-.45-1-1-1Z"/>
    <path class="cls-2" d="m6,7h.5c.55,0,1-.45,1-1s-.45-1-1-1h-.5c-.55,0-1,.45-1,1s.45,1,1,1Z"/>
  </g>
  <path class="cls-1" d="m28.65,10.52h-.65v7.65c0,2.66-2.17,4.83-4.83,4.83h-4.63l-2.02,2.83h5.56c.55,0,1,.45,1,1s-.45,1-1,1h-2.52l1.56,2.19c.44.62,1.16.98,1.91.98.84,0,1.62-.45,2.04-1.18l2.28-3.99h1.29c1.3,0,2.35-1.05,2.35-2.35v-10.6c0-1.3-1.05-2.35-2.35-2.35Z"/>
</svg>