<?xml version="1.0" encoding="UTF-8"?>
<svg id="OBJECT" xmlns="http://www.w3.org/2000/svg" viewBox="0 0 32 32">
  <defs>
    <style>
      .cls-1 {
        fill: #FD4360;
      }

      .cls-1, .cls-2 {
        stroke-width: 0px;
      }

      .cls-2 {
        fill: #dadada;
      }
    </style>
  </defs>
  <g>
    <path class="cls-2" d="m22.15,1H3.85c-1.57,0-2.85,1.28-2.85,2.85v12.29c0,1.57,1.28,2.85,2.85,2.85h.15v3.15c0,1.57,1.28,2.85,2.85,2.85,1.09,0,2.07-.6,2.55-1.58l2.21-4.42h.38c.55,0,1-.45,1-1s-.45-1-1-1h-3c-.55,0-1,.45-1,1s.45,1,1,1h.38l-1.76,3.53c-.15.29-.44.47-.76.47-.47,0-.85-.38-.85-.85v-4.15c0-.55-.45-1-1-1h-1.15c-.47,0-.85-.38-.85-.85V3.85c0-.47.38-.85.85-.85h18.29c.47,0,.85.38.85.85v7.15c0,.55.45,1,1,1s1-.45,1-1V3.85c0-1.57-1.28-2.85-2.85-2.85Z"/>
    <path class="cls-2" d="m20.5,5h-11c-.55,0-1,.45-1,1s.45,1,1,1h11c.55,0,1-.45,1-1s-.45-1-1-1Z"/>
    <path class="cls-2" d="m5.5,7h1c.55,0,1-.45,1-1s-.45-1-1-1h-1c-.55,0-1,.45-1,1s.45,1,1,1Z"/>
    <path class="cls-2" d="m20.5,9H5.5c-.55,0-1,.45-1,1s.45,1,1,1h15c.55,0,1-.45,1-1s-.45-1-1-1Z"/>
    <path class="cls-2" d="m5.5,13c-.55,0-1,.45-1,1s.45,1,1,1h5c.55,0,1-.45,1-1s-.45-1-1-1h-5Z"/>
  </g>
  <path class="cls-1" d="m28.65,14h-12.3c-1.29,0-2.35,1.05-2.35,2.35v7.94c0,1.29,1.05,2.35,2.35,2.35h6.49l1.53,3.07c.4.8,1.21,1.3,2.1,1.3,1.29,0,2.35-1.05,2.35-2.35v-2.02c1.22-.09,2.18-1.1,2.18-2.34v-7.94c0-1.29-1.05-2.35-2.35-2.35Zm-10.15,3.32h5c.55,0,1,.45,1,1s-.45,1-1,1h-5c-.55,0-1-.45-1-1s.45-1,1-1Zm8,6h-8c-.55,0-1-.45-1-1s.45-1,1-1h8c.55,0,1,.45,1,1s-.45,1-1,1Zm0-4h-.5c-.55,0-1-.45-1-1s.45-1,1-1h.5c.55,0,1,.45,1,1s-.45,1-1,1Z"/>
</svg>