<?xml version="1.0" encoding="UTF-8"?>
<svg id="OBJECT" xmlns="http://www.w3.org/2000/svg" viewBox="0 0 32 32">
  <defs>
    <style>
      .cls-1 {
        fill: #FD4360;
      }

      .cls-1, .cls-2 {
        stroke-width: 0px;
      }

      .cls-2 {
        fill: #dadada;
      }
    </style>
  </defs>
  <g>
    <path class="cls-2" d="m22.5,1H3.5c-1.38,0-2.5,1.12-2.5,2.5v22.5c0,.39.23.75.59.91.13.06.27.09.41.09.24,0,.47-.08.66-.25l7.72-6.75h12.12c1.38,0,2.5-1.12,2.5-2.5V3.5c0-1.38-1.12-2.5-2.5-2.5Zm.5,16.5c0,.28-.22.5-.5.5H6c-.55,0-1,.45-1,1s.45,1,1,1h1.34l-4.34,3.8V3.5c0-.28.22-.5.5-.5h19c.28,0,.5.22.5.5v14Z"/>
    <path class="cls-2" d="m7.5,8.5h3c.55,0,1-.45,1-1s-.45-1-1-1h-1.25v-.5c0-.55-.45-1-1-1s-1,.45-1,1v.53c-1.26.13-2.25,1.18-2.25,2.47,0,1.38,1.12,2.5,2.5,2.5h1.5c.28,0,.5.22.5.5s-.22.5-.5.5h-3c-.55,0-1,.45-1,1s.45,1,1,1h1.25v.5c0,.55.45,1,1,1s1-.45,1-1v-.53c1.26-.13,2.25-1.18,2.25-2.47,0-1.38-1.12-2.5-2.5-2.5h-1.5c-.28,0-.5-.22-.5-.5s.22-.5.5-.5Z"/>
    <path class="cls-2" d="m20,9.52h-6c-.55,0-1,.45-1,1s.45,1,1,1h6c.55,0,1-.45,1-1s-.45-1-1-1Z"/>
    <path class="cls-2" d="m20,13.27h-6c-.55,0-1,.45-1,1s.45,1,1,1h6c.55,0,1-.45,1-1s-.45-1-1-1Z"/>
    <path class="cls-2" d="m20,5.77h-6c-.55,0-1,.45-1,1s.45,1,1,1h6c.55,0,1-.45,1-1s-.45-1-1-1Z"/>
  </g>
  <path class="cls-1" d="m28.64,8.82h-1.64v8.68c0,2.48-2.02,4.5-4.5,4.5h-11.37l-2.13,1.86v.05c0,1.3,1.06,2.36,2.36,2.36h12.81l5.17,4.48c.19.16.42.24.65.24.14,0,.28-.03.42-.09.36-.16.58-.52.58-.91V11.18c0-1.3-1.06-2.36-2.36-2.36Zm-14.14,16.32h-.5c-.55,0-1-.45-1-1s.45-1,1-1h.5c.55,0,1,.45,1,1s-.45,1-1,1Zm4,0h-.5c-.55,0-1-.45-1-1s.45-1,1-1h.5c.55,0,1,.45,1,1s-.45,1-1,1Z"/>
</svg>