<?xml version="1.0" encoding="UTF-8"?>
<svg id="OBJECT" xmlns="http://www.w3.org/2000/svg" viewBox="0 0 32 32">
  <defs>
    <style>
      .cls-1 {
        fill: #FD4360;
      }

      .cls-1, .cls-2 {
        stroke-width: 0px;
      }

      .cls-2 {
        fill: #dadada;
      }
    </style>
  </defs>
  <path class="cls-1" d="m10,15.5v-4.5H3.5c-1.38,0-2.5,1.12-2.5,2.5v13.5c0,.39.23.75.58.91.13.06.28.09.42.09.23,0,.47-.08.65-.24l3.22-2.76h11.63c1.38,0,2.5-1.12,2.5-2.5v-2.5h-5.5c-2.48,0-4.5-2.02-4.5-4.5Zm-3,7.5h-1c-.55,0-1-.45-1-1s.45-1,1-1h1c.55,0,1,.45,1,1s-.45,1-1,1Zm4,0h-1c-.55,0-1-.45-1-1s.45-1,1-1h1c.55,0,1,.45,1,1s-.45,1-1,1Zm5-1c0,.55-.45,1-1,1h-1c-.55,0-1-.45-1-1s.45-1,1-1h1c.55,0,1,.45,1,1Z"/>
  <g>
    <path class="cls-2" d="m28.5,4h-14c-1.38,0-2.5,1.12-2.5,2.5v9c0,1.38,1.12,2.5,2.5,2.5h11.55l3.2,3.66c.19.22.47.34.75.34.12,0,.24-.02.35-.06.39-.15.65-.52.65-.94V6.5c0-1.38-1.12-2.5-2.5-2.5Zm.5,14.34l-1.75-2c-.19-.22-.46-.34-.75-.34h-12c-.28,0-.5-.22-.5-.5V6.5c0-.28.22-.5.5-.5h14c.28,0,.5.22.5.5v11.84Z"/>
    <path class="cls-2" d="m17,10h5c.55,0,1-.45,1-1s-.45-1-1-1h-5c-.55,0-1,.45-1,1s.45,1,1,1Z"/>
    <path class="cls-2" d="m26,8h-1c-.55,0-1,.45-1,1s.45,1,1,1h1c.55,0,1-.45,1-1s-.45-1-1-1Z"/>
    <path class="cls-2" d="m26,12h-9c-.55,0-1,.45-1,1s.45,1,1,1h9c.55,0,1-.45,1-1s-.45-1-1-1Z"/>
  </g>
</svg>