<?xml version="1.0" encoding="UTF-8"?>
<svg id="OBJECT" xmlns="http://www.w3.org/2000/svg" viewBox="0 0 32 32">
  <defs>
    <style>
      .cls-1 {
        fill: #FD4360;
      }

      .cls-1, .cls-2 {
        stroke-width: 0px;
      }

      .cls-2 {
        fill: #dadada;
      }
    </style>
  </defs>
  <g>
    <path class="cls-2" d="m26.55,1H5.45C2.99,1,1,2.99,1,5.45v14.11c0,2.45,1.99,4.45,4.45,4.45h3.97l2.72,4.76c.79,1.38,2.27,2.24,3.86,2.24s3.07-.86,3.86-2.24l2.72-4.76h3.97c2.45,0,4.45-1.99,4.45-4.45V5.45c0-2.45-1.99-4.45-4.45-4.45Zm2.45,18.55c0,1.35-1.1,2.45-2.45,2.45h-4.55c-.36,0-.69.19-.87.5l-3.01,5.26c-.43.76-1.25,1.23-2.12,1.23s-1.69-.47-2.12-1.23l-2.15-3.77h5.28c.55,0,1-.45,1-1s-.45-1-1-1H5.45c-1.35,0-2.45-1.1-2.45-2.45V5.45c0-1.35,1.1-2.45,2.45-2.45h21.11c1.35,0,2.45,1.1,2.45,2.45v14.11Z"/>
    <path class="cls-2" d="m26.5,17.5h-7c-.55,0-1,.45-1,1s.45,1,1,1h7c.55,0,1-.45,1-1s-.45-1-1-1Z"/>
    <path class="cls-2" d="m26.5,13.5h-5c-.55,0-1,.45-1,1s.45,1,1,1h5c.55,0,1-.45,1-1s-.45-1-1-1Z"/>
    <path class="cls-2" d="m26.5,5.5h-8c-.55,0-1,.45-1,1s.45,1,1,1h8c.55,0,1-.45,1-1s-.45-1-1-1Z"/>
    <path class="cls-2" d="m16,6.5c0-.55-.45-1-1-1h-.5c-.55,0-1,.45-1,1s.45,1,1,1h.5c.55,0,1-.45,1-1Z"/>
    <path class="cls-2" d="m26.5,9.5h-10c-.55,0-1,.45-1,1s.45,1,1,1h10c.55,0,1-.45,1-1s-.45-1-1-1Z"/>
  </g>
  <path class="cls-1" d="m18.21,13.32c-.25-.26-.63-.35-.97-.26-.44.12-.9.18-1.36.18-2.82,0-5.12-2.3-5.12-5.12,0-.46.06-.92.18-1.36.1-.35,0-.72-.26-.97-.25-.25-.62-.36-.97-.25-3.07.85-5.21,3.67-5.21,6.84,0,3.92,3.19,7.12,7.12,7.12,3.18,0,5.99-2.14,6.85-5.21.1-.35,0-.72-.26-.98Z"/>
</svg>