<?xml version="1.0" encoding="UTF-8"?>
<svg id="OBJECT" xmlns="http://www.w3.org/2000/svg" viewBox="0 0 32 32">
  <defs>
    <style>
      .cls-1 {
        fill: #FD4360;
      }

      .cls-1, .cls-2 {
        stroke-width: 0px;
      }

      .cls-2 {
        fill: #dadada;
      }
    </style>
  </defs>
  <g>
    <path class="cls-2" d="m8,26c0,.55.45,1,1,1h6c.55,0,1-.45,1-1s-.45-1-1-1h-6c-.55,0-1,.45-1,1Z"/>
    <path class="cls-2" d="m12.5,6c.55,0,1-.45,1-1s-.45-1-1-1h-1c-.55,0-1,.45-1,1s.45,1,1,1h1Z"/>
    <path class="cls-2" d="m19,6.5c.55,0,1-.45,1-1v-1.5c0-1.65-1.35-3-3-3H7c-1.65,0-3,1.35-3,3v24c0,1.65,1.35,3,3,3h10c1.65,0,3-1.35,3-3v-1.53c0-.55-.45-1-1-1s-1,.45-1,1v1.53c0,.55-.45,1-1,1H7c-.55,0-1-.45-1-1V4c0-.55.45-1,1-1h10c.55,0,1,.45,1,1v1.5c0,.55.45,1,1,1Z"/>
  </g>
  <path class="cls-1" d="m24.12,7.5h-8.69c-2.14,0-3.88,1.74-3.88,3.88v5.77c0,2.14,1.74,3.88,3.88,3.88h3.19c.55,0,1,.45,1,1s-.45,1-1,1h-1.51l.04.06c.59.88,1.57,1.41,2.63,1.41s2.04-.53,2.63-1.41l1.37-2.06h.35c2.14,0,3.88-1.74,3.88-3.88v-5.77c0-2.14-1.74-3.88-3.88-3.88Zm-.15,9.79h-8.38c-.55,0-1-.45-1-1s.45-1,1-1h8.38c.55,0,1,.45,1,1s-.45,1-1,1Zm0-4.04h-8.38c-.55,0-1-.45-1-1s.45-1,1-1h8.38c.55,0,1,.45,1,1s-.45,1-1,1Z"/>
</svg>