<?xml version="1.0" encoding="UTF-8"?>
<svg id="OBJECT" xmlns="http://www.w3.org/2000/svg" viewBox="0 0 32 32">
  <defs>
    <style>
      .cls-1 {
        fill: #FD4360;
      }

      .cls-1, .cls-2 {
        stroke-width: 0px;
      }

      .cls-2 {
        fill: #dadada;
      }
    </style>
  </defs>
  <g>
    <path class="cls-2" d="m7.5,26c0,.55.45,1,1,1h7c.55,0,1-.45,1-1s-.45-1-1-1h-7c-.55,0-1,.45-1,1Z"/>
    <path class="cls-2" d="m12.5,6c.55,0,1-.45,1-1s-.45-1-1-1h-1c-.55,0-1,.45-1,1s.45,1,1,1h1Z"/>
    <path class="cls-2" d="m19,7c.55,0,1-.45,1-1v-2c0-1.65-1.35-3-3-3H7c-1.65,0-3,1.35-3,3v24c0,1.65,1.35,3,3,3h10c1.65,0,3-1.35,3-3v-1.07c0-.55-.45-1-1-1s-1,.45-1,1v1.07c0,.55-.45,1-1,1H7c-.55,0-1-.45-1-1V4c0-.55.45-1,1-1h10c.55,0,1,.45,1,1v2c0,.55.45,1,1,1Z"/>
  </g>
  <path class="cls-1" d="m24.57,8h-12.15c-1.89,0-3.43,1.54-3.43,3.43v6.15c0,1.89,1.54,3.43,3.43,3.43h1.95l1.05,2.11c.58,1.17,1.76,1.89,3.07,1.89s2.48-.73,3.07-1.89l1.05-2.11h1.95c1.89,0,3.43-1.54,3.43-3.43v-6.15c0-1.89-1.54-3.43-3.43-3.43Zm-11.07,3.75h.5c.55,0,1,.45,1,1s-.45,1-1,1h-.5c-.55,0-1-.45-1-1s.45-1,1-1Zm10,5.5h-10c-.55,0-1-.45-1-1s.45-1,1-1h10c.55,0,1,.45,1,1s-.45,1-1,1Zm0-3.5h-6c-.55,0-1-.45-1-1s.45-1,1-1h6c.55,0,1,.45,1,1s-.45,1-1,1Z"/>
</svg>