<?xml version="1.0" encoding="UTF-8"?>
<svg id="OBJECT" xmlns="http://www.w3.org/2000/svg" viewBox="0 0 512 512">
  <defs>
    <style>
      .cls-1 {
        fill: #FD4360;
      }

      .cls-2 {
        fill: #dadada;
      }
    </style>
  </defs>
  <g>
    <path class="cls-2" d="M166,482h10c4.14,0,7.5-3.36,7.5-7.5s-3.36-7.5-7.5-7.5h-10c-4.14,0-7.5,3.36-7.5,7.5s3.36,7.5,7.5,7.5Z"/>
    <path class="cls-2" d="M206,482h10c4.14,0,7.5-3.36,7.5-7.5s-3.36-7.5-7.5-7.5h-10c-4.14,0-7.5,3.36-7.5,7.5s3.36,7.5,7.5,7.5Z"/>
    <path class="cls-2" d="M246,482h10c4.14,0,7.5-3.36,7.5-7.5s-3.36-7.5-7.5-7.5h-10c-4.14,0-7.5,3.36-7.5,7.5s3.36,7.5,7.5,7.5Z"/>
    <path class="cls-2" d="M341,65c4.14,0,7.5-3.36,7.5-7.5V22.5c0-12.41-10.09-22.5-22.5-22.5H96c-12.41,0-22.5,10.09-22.5,22.5V489.5c0,12.41,10.09,22.5,22.5,22.5h230c12.41,0,22.5-10.09,22.5-22.5V247.5c0-4.14-3.36-7.5-7.5-7.5s-7.5,3.36-7.5,7.5v189.5H88.5V22.5c0-4.14,3.36-7.5,7.5-7.5h42.5v12.5c0,12.41,10.09,22.5,22.5,22.5h100c12.41,0,22.5-10.09,22.5-22.5V15h42.5c4.14,0,7.5,3.36,7.5,7.5V57.5c0,4.14,3.36,7.5,7.5,7.5Zm-7.5,387v37.5c0,4.14-3.36,7.5-7.5,7.5H96c-4.14,0-7.5-3.36-7.5-7.5v-37.5h245ZM268.5,27.5c0,4.14-3.36,7.5-7.5,7.5h-100c-4.14,0-7.5-3.36-7.5-7.5V15h115v12.5Z"/>
    <path class="cls-2" d="M103.5,389.5v10c0,12.41,10.09,22.5,22.5,22.5h80c12.41,0,22.5-10.09,22.5-22.5v-10c0-22.53-12.25-43.15-31.34-54.17,4-5.96,6.34-13.13,6.34-20.83,0-20.68-16.82-37.5-37.5-37.5s-37.5,16.82-37.5,37.5c0,7.7,2.34,14.87,6.34,20.83-19.09,11.02-31.34,31.64-31.34,54.17Zm62.5-97.5c12.41,0,22.5,10.09,22.5,22.5s-10.09,22.5-22.5,22.5-22.5-10.09-22.5-22.5,10.09-22.5,22.5-22.5Zm-19.81,54.32c5.75,3.6,12.54,5.68,19.81,5.68s14.06-2.09,19.81-5.68c16.7,7.68,27.69,24.58,27.69,43.18v10c0,4.14-3.36,7.5-7.5,7.5H126c-4.14,0-7.5-3.36-7.5-7.5v-10c0-18.6,10.98-35.5,27.69-43.18Z"/>
  </g>
  <path class="cls-1" d="M416,80H206c-12.41,0-22.5,10.09-22.5,22.5v100c0,12.41,10.09,22.5,22.5,22.5h20.28c6.08,27.07-2.18,53.96-2.27,54.24-.79,2.48-.23,5.2,1.48,7.17,1.44,1.66,3.51,2.59,5.67,2.59,.4,0,.81-.03,1.21-.1,27.66-4.52,49.02-21.64,61.67-48.9h-21.97c-4.14,0-7.5-3.36-7.5-7.5s3.36-7.5,7.5-7.5h143.93c12.41,0,22.5-10.09,22.5-22.5V102.5c0-12.41-10.09-22.5-22.5-22.5Zm-195,30h10c4.14,0,7.5,3.36,7.5,7.5s-3.36,7.5-7.5,7.5h-10c-4.14,0-7.5-3.36-7.5-7.5s3.36-7.5,7.5-7.5Zm180,85H221c-4.14,0-7.5-3.36-7.5-7.5s3.36-7.5,7.5-7.5h180c4.14,0,7.5,3.36,7.5,7.5s-3.36,7.5-7.5,7.5Zm0-35H221c-4.14,0-7.5-3.36-7.5-7.5s3.36-7.5,7.5-7.5h180c4.14,0,7.5,3.36,7.5,7.5s-3.36,7.5-7.5,7.5Zm0-35h-140c-4.14,0-7.5-3.36-7.5-7.5s3.36-7.5,7.5-7.5h140c4.14,0,7.5,3.36,7.5,7.5s-3.36,7.5-7.5,7.5Z"/>
</svg>