<?xml version="1.0" encoding="UTF-8"?>
<svg id="OBJECT" xmlns="http://www.w3.org/2000/svg" viewBox="0 0 32 32">
  <defs>
    <style>
      .cls-1 {
        fill: #FD4360;
      }

      .cls-1, .cls-2 {
        stroke-width: 0px;
      }

      .cls-2 {
        fill: #dadada;
      }
    </style>
  </defs>
  <g>
    <path class="cls-2" d="m21,1H5C2.79,1,1,2.79,1,5v11c0,2.21,1.79,4,4,4h3.38l2.28,4.55c.45.89,1.34,1.45,2.34,1.45s1.9-.55,2.34-1.45l2.28-4.55h3.38c2.21,0,4-1.79,4-4V5c0-2.21-1.79-4-4-4Zm2,15c0,1.1-.9,2-2,2h-7c-.55,0-1,.45-1,1s.45,1,1,1h1.38l-1.83,3.66c-.21.42-.89.42-1.11,0l-2.55-5.11c-.17-.34-.52-.55-.89-.55h-4c-1.1,0-2-.9-2-2V5c0-1.1.9-2,2-2h16c1.1,0,2,.9,2,2v11Z"/>
    <path class="cls-2" d="m19.5,5.5h-9c-.55,0-1,.45-1,1s.45,1,1,1h9c.55,0,1-.45,1-1s-.45-1-1-1Z"/>
    <path class="cls-2" d="m6.5,7.5h.5c.55,0,1-.45,1-1s-.45-1-1-1h-.5c-.55,0-1,.45-1,1s.45,1,1,1Z"/>
    <path class="cls-2" d="m19.5,9.5H6.5c-.55,0-1,.45-1,1s.45,1,1,1h13c.55,0,1-.45,1-1s-.45-1-1-1Z"/>
    <path class="cls-2" d="m19.5,13.5H6.5c-.55,0-1,.45-1,1s.45,1,1,1h13c.55,0,1-.45,1-1s-.45-1-1-1Z"/>
  </g>
  <path class="cls-1" d="m28,11h-1v5c0,3.31-2.69,6-6,6h-2.15l-1.5,3h2.65c.55,0,1,.45,1,1s-.45,1-1,1h-2.62l1.28,2.55c.45.89,1.34,1.45,2.34,1.45s1.9-.55,2.34-1.45l2.28-4.55h2.38c1.65,0,3-1.35,3-3v-8c0-1.65-1.35-3-3-3Zm0,11h-1c-.55,0-1-.45-1-1s.45-1,1-1h1c.55,0,1,.45,1,1s-.45,1-1,1Z"/>
</svg>