<?xml version="1.0" encoding="UTF-8"?>
<svg id="OBJECT" xmlns="http://www.w3.org/2000/svg" viewBox="0 0 32 32">
  <defs>
    <style>
      .cls-1 {
        fill: #FD4360;
      }

      .cls-1, .cls-2 {
        stroke-width: 0px;
      }

      .cls-2 {
        fill: #dadada;
      }
    </style>
  </defs>
  <g>
    <path class="cls-2" d="m27,1H10c-2.21,0-4,1.79-4,4v11c0,2.21,1.79,4,4,4h8.34l2.35,5.47c.4.93,1.3,1.53,2.31,1.53s1.92-.6,2.31-1.52l2.37-5.53c1.88-.33,3.32-1.97,3.32-3.94V5c0-2.21-1.79-4-4-4Zm2,15c0,1.1-.9,2-2,2-.4,0-.76.24-.92.61l-2.61,6.08c-.16.38-.78.38-.95,0l-2.01-4.69h1.48c.55,0,1-.45,1-1s-.45-1-1-1h-12c-1.1,0-2-.9-2-2V5c0-1.1.9-2,2-2h17c1.1,0,2,.9,2,2v11Z"/>
    <path class="cls-2" d="m26,9.5h-15c-.55,0-1,.45-1,1s.45,1,1,1h15c.55,0,1-.45,1-1s-.45-1-1-1Z"/>
    <path class="cls-2" d="m26,14h-15c-.55,0-1,.45-1,1s.45,1,1,1h15c.55,0,1-.45,1-1s-.45-1-1-1Z"/>
    <path class="cls-2" d="m26,5h-10c-.55,0-1,.45-1,1s.45,1,1,1h10c.55,0,1-.45,1-1s-.45-1-1-1Z"/>
    <path class="cls-2" d="m11,7h1c.55,0,1-.45,1-1s-.45-1-1-1h-1c-.55,0-1,.45-1,1s.45,1,1,1Z"/>
  </g>
  <path class="cls-1" d="m4,16v-4.96c-1.69.21-3,1.64-3,3.38v9.15c0,1.89,1.54,3.43,3.43,3.43h.46l1.05,2.11c.58,1.17,1.76,1.89,3.07,1.89s2.48-.73,3.07-1.89l1.05-2.11h.46c1.89,0,3.43-1.54,3.43-3.43v-1.57h-7c-3.31,0-6-2.69-6-6Zm.5,9.5h-.5c-.55,0-1-.45-1-1s.45-1,1-1h.5c.55,0,1,.45,1,1s-.45,1-1,1Zm4,0h-.5c-.55,0-1-.45-1-1s.45-1,1-1h.5c.55,0,1,.45,1,1s-.45,1-1,1Z"/>
</svg>