<?xml version="1.0" encoding="UTF-8"?>
<svg id="OBJECT" xmlns="http://www.w3.org/2000/svg" viewBox="0 0 32 32">
  <defs>
    <style>
      .cls-1 {
        fill: #FD4360;
      }

      .cls-1, .cls-2 {
        stroke-width: 0px;
      }

      .cls-2 {
        fill: #dadada;
      }
    </style>
  </defs>
  <g>
    <path class="cls-2" d="m27,20.57c-.55,0-1,.45-1,1v.5c0,.55.45,1,1,1s1-.45,1-1v-.5c0-.55-.45-1-1-1Z"/>
    <path class="cls-2" d="m28.65,13h-3.65V3.85c0-1.57-1.28-2.85-2.85-2.85H3.85c-1.57,0-2.85,1.28-2.85,2.85v14.29c0,1.57,1.28,2.85,2.85,2.85h.15v3.15c0,1.57,1.28,2.85,2.85,2.85,1.09,0,2.07-.6,2.55-1.58l2.21-4.42h1.38v3.29c0,1.29,1.05,2.35,2.35,2.35h7.49l1.53,3.07c.4.8,1.21,1.3,2.1,1.3,1.29,0,2.35-1.05,2.35-2.35v-2.02c1.22-.09,2.18-1.1,2.18-2.34v-8.94c0-1.29-1.05-2.35-2.35-2.35Zm-19.65,6c-.55,0-1,.45-1,1s.45,1,1,1h.38l-1.76,3.53c-.15.29-.44.47-.76.47-.47,0-.85-.38-.85-.85v-4.15c0-.55-.45-1-1-1h-1.15c-.47,0-.85-.38-.85-.85V3.85c0-.47.38-.85.85-.85h18.29c.47,0,.85.38.85.85v14.29c0,.47-.38.85-.85.85h-13.15Zm20,5.29c0,.19-.16.35-.35.35h-.83c-.55,0-1,.45-1,1v3.01c0,.32-.52.44-.66.16l-1.81-3.62c-.17-.34-.52-.55-.89-.55h-8.11c-.19,0-.35-.16-.35-.35v-3.29h7.15c1.57,0,2.85-1.28,2.85-2.85v-3.15h3.65c.19,0,.35.16.35.35v8.94Z"/>
  </g>
  <path class="cls-1" d="m13,4c-3.86,0-7,3.14-7,7s3.14,7,7,7,7-3.14,7-7-3.14-7-7-7Zm2.42,9.42c-.2.2-.45.29-.71.29s-.51-.1-.71-.29l-1.71-1.71c-.19-.19-.29-.44-.29-.71v-2.57c0-.55.45-1,1-1s1,.45,1,1v2.16l1.42,1.42c.39.39.39,1.02,0,1.41Z"/>
</svg>