<?xml version="1.0" encoding="UTF-8"?>
<svg id="OBJECT" xmlns="http://www.w3.org/2000/svg" viewBox="0 0 32 32">
  <defs>
    <style>
      .cls-1 {
        fill: #FD4360;
      }

      .cls-2 {
        fill: #dadada;
      }
    </style>
  </defs>
  <g>
    <path class="cls-2" d="M15.44,9.11c.03-.2,.06-.4,.06-.61v-1.5c0-1.65-1.35-3-3-3h-1c-1.65,0-3,1.35-3,3v1.5c0,.21,.03,.41,.06,.61-1.6,1.11-2.56,2.92-2.56,4.89v1c0,1.65,1.35,3,3,3h6c1.65,0,3-1.35,3-3v-1c0-1.97-.96-3.78-2.56-4.89Zm-4.94-2.11c0-.55,.45-1,1-1h1c.55,0,1,.45,1,1v1.5c0,.83-.67,1.5-1.5,1.5s-1.5-.67-1.5-1.5v-1.5Zm5.5,8c0,.55-.45,1-1,1h-6c-.55,0-1-.45-1-1v-1c0-1.21,.56-2.33,1.49-3.08,.64,.66,1.53,1.08,2.51,1.08s1.88-.41,2.51-1.08c.93,.75,1.49,1.86,1.49,3.08v1Z"/>
    <path class="cls-2" d="M19,1H5C2.79,1,1,2.79,1,5v14c0,2.21,1.79,4,4,4h2.43l2.19,3.66c.5,.83,1.41,1.34,2.37,1.34s1.88-.51,2.37-1.34l1.62-2.7c.28-.47,.13-1.09-.34-1.37-.47-.29-1.09-.13-1.37,.34l-1.62,2.7c-.28,.46-1.04,.46-1.31,0l-1.58-2.63h2.23c.55,0,1-.45,1-1s-.45-1-1-1H5c-1.1,0-2-.9-2-2V5c0-1.1,.9-2,2-2h14c1.1,0,2,.9,2,2V15c0,.55,.45,1,1,1s1-.45,1-1V5c0-2.21-1.79-4-4-4Z"/>
  </g>
  <path class="cls-1" d="M28,17h-8c-1.65,0-3,1.35-3,3v5c0,1.65,1.35,3,3,3h.46l1.15,1.72c.53,.8,1.43,1.28,2.39,1.28,.84,0,1.61-.38,2.15-1h-1.15c-.55,0-1-.45-1-1s.45-1,1-1h3c1.65,0,3-1.35,3-3v-5c0-1.65-1.35-3-3-3Zm-1.5,8h-5c-.55,0-1-.45-1-1s.45-1,1-1h5c.55,0,1,.45,1,1s-.45,1-1,1Zm0-3h-5c-.55,0-1-.45-1-1s.45-1,1-1h5c.55,0,1,.45,1,1s-.45,1-1,1Z"/>
</svg>