<?xml version="1.0" encoding="UTF-8"?>
<svg id="OBJECT" xmlns="http://www.w3.org/2000/svg" viewBox="0 0 32 32">
  <defs>
    <style>
      .cls-1 {
        fill: #FD4360;
      }

      .cls-1, .cls-2 {
        stroke-width: 0px;
      }

      .cls-2 {
        fill: #dadada;
      }
    </style>
  </defs>
  <g>
    <path class="cls-2" d="m22.13,1H3.87c-1.58,0-2.87,1.29-2.87,2.87v12.26c0,1.58,1.29,2.87,2.87,2.87h1.6l3.15,4.72c.53.8,1.43,1.28,2.39,1.28s1.85-.48,2.39-1.28l3.15-4.72h5.6c1.58,0,2.87-1.29,2.87-2.87V3.87c0-1.58-1.29-2.87-2.87-2.87Zm.87,15.13c0,.48-.39.87-.87.87h-11.13c-.55,0-1,.45-1,1s.45,1,1,1h3.13l-2.41,3.61c-.32.48-1.12.48-1.45,0l-3.45-5.17c-.19-.28-.5-.45-.83-.45h-2.13c-.48,0-.87-.39-.87-.87V3.87c0-.48.39-.87.87-.87h18.26c.48,0,.87.39.87.87v12.26Z"/>
    <path class="cls-2" d="m20.5,13.5H5.5c-.55,0-1,.45-1,1s.45,1,1,1h15c.55,0,1-.45,1-1s-.45-1-1-1Z"/>
    <path class="cls-2" d="m20.5,9H5.5c-.55,0-1,.45-1,1s.45,1,1,1h15c.55,0,1-.45,1-1s-.45-1-1-1Z"/>
    <path class="cls-2" d="m20.5,4.5h-11c-.55,0-1,.45-1,1s.45,1,1,1h11c.55,0,1-.45,1-1s-.45-1-1-1Z"/>
    <path class="cls-2" d="m5.5,6.5h1c.55,0,1-.45,1-1s-.45-1-1-1h-1c-.55,0-1,.45-1,1s.45,1,1,1Z"/>
  </g>
  <path class="cls-1" d="m28.5,11h-1.5v5.13c0,2.68-2.18,4.87-4.87,4.87h-4.53l-2.55,3.83c-.33.5-.75.92-1.22,1.26h7.71c.55,0,1,.45,1,1s-.45,1-1,1h-2.38l.91,1.37c.64.96,1.72,1.54,2.88,1.54s2.23-.58,2.87-1.54l2.25-3.37h.42c1.38,0,2.5-1.12,2.5-2.5v-10.09c0-1.38-1.12-2.5-2.5-2.5Zm-6.25,13.55h-1c-.55,0-1-.45-1-1s.45-1,1-1h1c.55,0,1,.45,1,1s-.45,1-1,1Zm5,0h-1c-.55,0-1-.45-1-1s.45-1,1-1h1c.55,0,1,.45,1,1s-.45,1-1,1Z"/>
</svg>