<?xml version="1.0" encoding="UTF-8"?>
<svg id="OBJECT" xmlns="http://www.w3.org/2000/svg" viewBox="0 0 32 32">
  <defs>
    <style>
      .cls-1 {
        fill: #FD4360;
      }

      .cls-2 {
        fill: #dadada;
      }
    </style>
  </defs>
  <g>
    <path class="cls-2" d="m23.57,9H4.43c-1.89,0-3.43,1.54-3.43,3.43v11.15c0,1.89,1.54,3.43,3.43,3.43h2.45l1.05,2.11c.58,1.17,1.76,1.89,3.07,1.89s2.48-.73,3.07-1.89l1.05-2.11h8.45c1.89,0,3.43-1.54,3.43-3.43v-11.15c0-1.89-1.54-3.43-3.43-3.43Zm1.43,14.57c0,.79-.64,1.43-1.43,1.43h-9.07c-.38,0-.73.21-.89.55l-1.33,2.66c-.24.49-.73.79-1.28.79s-1.03-.3-1.28-.79l-1.33-2.66c-.17-.34-.52-.55-.89-.55h-3.07c-.79,0-1.43-.64-1.43-1.43v-11.15c0-.79.64-1.43,1.43-1.43h19.15c.79,0,1.43.64,1.43,1.43v11.15Z"/>
    <path class="cls-2" d="m7.5,16h3c.55,0,1-.45,1-1s-.45-1-1-1h-1.25v-.5c0-.55-.45-1-1-1s-1,.45-1,1v.53c-1.26.13-2.25,1.18-2.25,2.47,0,1.38,1.12,2.5,2.5,2.5h1.5c.28,0,.5.22.5.5s-.22.5-.5.5h-3c-.55,0-1,.45-1,1s.45,1,1,1h1.25v.5c0,.55.45,1,1,1s1-.45,1-1v-.53c1.26-.13,2.25-1.18,2.25-2.47,0-1.38-1.12-2.5-2.5-2.5h-1.5c-.28,0-.5-.22-.5-.5s.22-.5.5-.5Z"/>
    <path class="cls-2" d="m22,21h-7.5c-.55,0-1,.45-1,1s.45,1,1,1h7.5c.55,0,1-.45,1-1s-.45-1-1-1Z"/>
    <path class="cls-2" d="m22,17h-7.5c-.55,0-1,.45-1,1s.45,1,1,1h7.5c.55,0,1-.45,1-1s-.45-1-1-1Z"/>
    <path class="cls-2" d="m22,13h-3.5c-.55,0-1,.45-1,1s.45,1,1,1h3.5c.55,0,1-.45,1-1s-.45-1-1-1Z"/>
    <path class="cls-2" d="m14.5,15h.5c.55,0,1-.45,1-1s-.45-1-1-1h-.5c-.55,0-1,.45-1,1s.45,1,1,1Z"/>
  </g>
  <path class="cls-1" d="m27.78,4.67h-1.95l-.94-1.88c-.55-1.1-1.65-1.78-2.88-1.78s-2.33.68-2.88,1.78l-.94,1.88h-7.95c-1.47,0-2.69.99-3.08,2.33h17.86c2.21,0,4,1.79,4,4v10.09c1.17-.48,2-1.64,2-2.98V7.89c0-1.78-1.45-3.23-3.22-3.23Z"/>
</svg>