<?xml version="1.0" encoding="UTF-8"?>
<svg id="OBJECT" xmlns="http://www.w3.org/2000/svg" viewBox="0 0 32 32">
  <defs>
    <style>
      .cls-1 {
        fill: #FD4360;
      }

      .cls-1, .cls-2 {
        stroke-width: 0px;
      }

      .cls-2 {
        fill: #dadada;
      }
    </style>
  </defs>
  <g>
    <path class="cls-2" d="m21.28,11H3.72c-1.5,0-2.72,1.22-2.72,2.72v8.55c0,1.5,1.22,2.72,2.72,2.72h3.77l2.64,4.63c.48.85,1.39,1.37,2.36,1.37s1.88-.53,2.36-1.37l2.64-4.63h3.77c1.5,0,2.72-1.22,2.72-2.72v-8.55c0-1.5-1.22-2.72-2.72-2.72Zm.72,11.28c0,.4-.32.72-.72.72h-8.21c-.55,0-1,.45-1,1s.45,1,1,1h2.13l-2.08,3.64c-.26.45-1,.45-1.26,0l-2.93-5.13c-.18-.31-.51-.5-.87-.5H3.72c-.4,0-.72-.32-.72-.72v-8.55c0-.4.32-.72.72-.72h17.55c.4,0,.72.32.72.72v8.55Z"/>
    <path class="cls-2" d="m19.5,19H5.5c-.55,0-1,.45-1,1s.45,1,1,1h14c.55,0,1-.45,1-1s-.45-1-1-1Z"/>
    <path class="cls-2" d="m19.5,15h-10c-.55,0-1,.45-1,1s.45,1,1,1h10c.55,0,1-.45,1-1s-.45-1-1-1Z"/>
    <path class="cls-2" d="m5.5,17h.5c.55,0,1-.45,1-1s-.45-1-1-1h-.5c-.55,0-1,.45-1,1s.45,1,1,1Z"/>
  </g>
  <path class="cls-1" d="m28.28,7h-3.77l-2.64-4.63c-.48-.85-1.39-1.37-2.36-1.37s-1.88.53-2.36,1.37l-1.5,2.63h2.29c.55,0,1,.45,1,1s-.45,1-1,1h-7.21c-1.25,0-2.29.85-2.61,2h13.17c2.6,0,4.72,2.12,4.72,4.72v7.28h2.28c1.5,0,2.72-1.22,2.72-2.72v-8.55c0-1.5-1.22-2.72-2.72-2.72Zm1.22,8.5c0,.55-.45,1-1,1s-1-.45-1-1v-1c0-.55.45-1,1-1s1,.45,1,1v1Zm0-4c0,.55-.45,1-1,1s-1-.45-1-1v-1c0-.55.45-1,1-1s1,.45,1,1v1Z"/>
</svg>