<?xml version="1.0" encoding="UTF-8"?>
<svg id="OBJECT" xmlns="http://www.w3.org/2000/svg" viewBox="0 0 32 32">
  <defs>
    <style>
      .cls-1 {
        fill: #FD4360;
      }

      .cls-1, .cls-2 {
        stroke-width: 0px;
      }

      .cls-2 {
        fill: #dadada;
      }
    </style>
  </defs>
  <path class="cls-2" d="m29.22,7.72l.9-.9c1.17-1.17,1.17-3.07,0-4.24l-.71-.71c-1.17-1.17-3.07-1.17-4.24,0l-10.91,10.91c-1.16-.5-2.43-.78-3.77-.78-5.24,0-9.5,4.26-9.5,9.5s4.26,9.5,9.5,9.5,9.5-4.26,9.5-9.5c0-1.34-.28-2.61-.78-3.77l1.17-1.17,1.04,1.04c.47.47,1.1.73,1.77.73s1.3-.26,1.77-.73l.35-.35c.97-.97.97-2.56,0-3.53l-1.04-1.04,1.06-1.06,1.04,1.04c.47.47,1.1.73,1.77.73s1.29-.26,1.77-.73l.35-.35c.47-.47.73-1.1.73-1.77s-.26-1.29-.73-1.77l-1.04-1.04ZM10.5,29c-4.14,0-7.5-3.36-7.5-7.5s3.36-7.5,7.5-7.5,7.5,3.36,7.5,7.5-3.36,7.5-7.5,7.5Zm5.56-15.18L26.59,3.29c.39-.39,1.02-.39,1.41,0l.71.71c.39.39.39,1.02,0,1.41l-10.52,10.52c-.59-.81-1.31-1.53-2.12-2.12Zm7.84,1.32c.2.2.2.51,0,.71l-.35.35c-.19.2-.51.2-.71,0l-1.04-1.04,1.06-1.06,1.04,1.04Zm4.95-4.24l-.35.35c-.2.2-.51.2-.71,0l-1.04-1.04,1.06-1.06,1.04,1.04c.13.13.15.28.15.35s-.02.23-.15.35Z"/>
  <g>
    <path class="cls-1" d="m10.5,21.93c1.72,0,3.12-1.4,3.12-3.12v-1.28c0-1.49-1.21-2.7-2.7-2.7h-.85c-1.49,0-2.7,1.21-2.7,2.7v1.28c0,1.72,1.4,3.12,3.12,3.12Z"/>
    <path class="cls-1" d="m15.01,21.2c-.86,1.62-2.55,2.73-4.51,2.73s-3.64-1.12-4.51-2.73c-.47.79-.74,1.71-.74,2.66,0,1.33,1.08,2.42,2.42,2.42h5.67c1.33,0,2.42-1.08,2.42-2.42,0-.96-.27-1.87-.74-2.66Z"/>
  </g>
</svg>