<?xml version="1.0" encoding="UTF-8"?>
<svg id="OBJECT" xmlns="http://www.w3.org/2000/svg" viewBox="0 0 32 32">
  <defs>
    <style>
      .cls-1 {
        fill: #FD4360;
      }

      .cls-1, .cls-2 {
        stroke-width: 0px;
      }

      .cls-2 {
        fill: #dadada;
      }
    </style>
  </defs>
  <g>
    <path class="cls-2" d="m30.02,10.25L21.75,1.98c-1.3-1.3-3.42-1.3-4.72,0l-6.62,6.62c-1.3,1.3-1.3,3.42,0,4.73l8.28,8.28c.65.65,1.51.98,2.36.98s1.71-.33,2.36-.98l6.62-6.62c1.3-1.3,1.3-3.42,0-4.72Zm-1.41,3.31l-6.62,6.62c-.52.52-1.37.52-1.9,0l-8.28-8.28c-.52-.52-.52-1.37,0-1.9l.95-.95,2.6,2.6c.2.2.45.29.71.29s.51-.1.71-.29c.39-.39.39-1.02,0-1.41l-2.6-2.6,4.26-4.26c.26-.26.6-.39.95-.39s.69.13.95.39l4.26,4.26-1.94,1.94c-.65.65-.94,1.58-.75,2.49l.64,3.22c.09.48.51.8.98.8.07,0,.13,0,.2-.02.54-.11.89-.64.78-1.18l-.64-3.22c-.05-.25.03-.5.21-.68l1.94-1.94,2.6,2.6c.52.52.52,1.37,0,1.9Z"/>
    <path class="cls-2" d="m18.85,12.32c-.39-.39-1.02-.39-1.42,0-.39.39-.39,1.02,0,1.41l.41.41c.2.2.45.29.71.29s.51-.1.71-.29c.39-.39.39-1.02,0-1.41l-.41-.41Z"/>
    <path class="cls-2" d="m20.09,5.29c-.39-.39-1.02-.39-1.42,0-.39.39-.39,1.02,0,1.41l.41.41c.2.19.45.29.71.29s.51-.1.71-.29c.39-.39.39-1.02,0-1.41l-.41-.41Z"/>
  </g>
  <path class="cls-1" d="m1.73,23.89c-.47.47-.73,1.1-.73,1.77v4.34c0,.55.45,1,1,1h4.34c.67,0,1.29-.26,1.77-.73l1.04-1.04c.25-.25.35-.62.26-.96l-.38-1.45c-.07-.25.07-.42.13-.48s.23-.19.48-.13l1.45.38c.34.09.71,0,.96-.26.25-.25.35-.62.26-.96l-.38-1.44c-.07-.25.07-.42.13-.48.06-.06.23-.19.48-.13l1.44.38c.34.09.71,0,.96-.26l1.36-1.36-6.38-6.38L1.73,23.89Z"/>
</svg>