<?xml version="1.0" encoding="UTF-8"?>
<svg id="OBJECT" xmlns="http://www.w3.org/2000/svg" viewBox="0 0 32 32">
  <defs>
    <style>
      .cls-1 {
        fill: #FD4360;
      }

      .cls-1, .cls-2 {
        stroke-width: 0px;
      }

      .cls-2 {
        fill: #dadada;
      }
    </style>
  </defs>
  <g>
    <path class="cls-2" d="m18.58,7.02c.39-.39.4-1.02,0-1.41-1.38-1.39-3.79-1.39-5.17,0-.39.39-.39,1.03,0,1.41.39.39,1.02.38,1.41,0,.62-.63,1.71-.63,2.33,0,.2.2.45.3.71.3s.51-.1.7-.29Z"/>
    <path class="cls-2" d="m12.96,4.27c.81-.82,1.89-1.27,3.04-1.27s2.23.45,3.04,1.27c.2.2.45.3.71.3s.51-.1.7-.29c.39-.39.4-1.02,0-1.41-1.19-1.2-2.77-1.87-4.46-1.87s-3.27.66-4.46,1.87c-.39.39-.39,1.03,0,1.41.39.39,1.02.39,1.41,0Z"/>
    <path class="cls-2" d="m16.21,7.67h-.42c-.55,0-1,.45-1,1s.45,1,1,1h.42c.55,0,1-.45,1-1s-.45-1-1-1Z"/>
    <path class="cls-2" d="m28.5,11H3.5c-1.38,0-2.5,1.12-2.5,2.5v15c0,1.38,1.12,2.5,2.5,2.5h25c1.38,0,2.5-1.12,2.5-2.5v-15c0-1.38-1.12-2.5-2.5-2.5ZM3.5,13h25c.28,0,.5.22.5.5v1.5H3v-1.5c0-.28.22-.5.5-.5Zm25,16H3.5c-.28,0-.5-.22-.5-.5v-11.5h26v11.5c0,.28-.22.5-.5.5Z"/>
  </g>
  <g>
    <rect class="cls-1" x="4.5" y="18.5" width="10" height="9" rx="2.5" ry="2.5"/>
    <path class="cls-1" d="m25,22h-8.5v2h4v2.5c0,.55.45,1,1,1s1-.45,1-1v-2.5h2.5c.28,0,.5.22.5.5v2c0,.55.45,1,1,1s1-.45,1-1v-2c0-1.38-1.12-2.5-2.5-2.5Z"/>
  </g>
</svg>