<?xml version="1.0" encoding="UTF-8"?>
<svg id="OBJECT" xmlns="http://www.w3.org/2000/svg" viewBox="0 0 32 32">
  <defs>
    <style>
      .cls-1 {
        fill: #FD4360;
      }

      .cls-1, .cls-2 {
        stroke-width: 0px;
      }

      .cls-2 {
        fill: #dadada;
      }
    </style>
  </defs>
  <g>
    <path class="cls-2" d="m19,1H2c-.55,0-1,.45-1,1v28c0,.55.45,1,1,1h17c.55,0,1-.45,1-1V2c0-.55-.45-1-1-1Zm-1,28H3V3h15v26Z"/>
    <path class="cls-2" d="m5.5,10.5h4c.55,0,1-.45,1-1v-4c0-.55-.45-1-1-1h-4c-.55,0-1,.45-1,1v4c0,.55.45,1,1,1Zm1-4h2v2h-2v-2Z"/>
    <path class="cls-2" d="m12.5,7h3c.55,0,1-.45,1-1s-.45-1-1-1h-3c-.55,0-1,.45-1,1s.45,1,1,1Z"/>
    <path class="cls-2" d="m12.5,10h3c.55,0,1-.45,1-1s-.45-1-1-1h-3c-.55,0-1,.45-1,1s.45,1,1,1Z"/>
    <path class="cls-2" d="m5.5,19h4c.55,0,1-.45,1-1v-4c0-.55-.45-1-1-1h-4c-.55,0-1,.45-1,1v4c0,.55.45,1,1,1Zm1-4h2v2h-2v-2Z"/>
    <path class="cls-2" d="m12.5,15.5h3c.55,0,1-.45,1-1s-.45-1-1-1h-3c-.55,0-1,.45-1,1s.45,1,1,1Z"/>
    <path class="cls-2" d="m12.5,18.5h3c.55,0,1-.45,1-1s-.45-1-1-1h-3c-.55,0-1,.45-1,1s.45,1,1,1Z"/>
    <path class="cls-2" d="m5.5,27.5h4c.55,0,1-.45,1-1v-4c0-.55-.45-1-1-1h-4c-.55,0-1,.45-1,1v4c0,.55.45,1,1,1Zm1-4h2v2h-2v-2Z"/>
    <path class="cls-2" d="m12.5,24h3c.55,0,1-.45,1-1s-.45-1-1-1h-3c-.55,0-1,.45-1,1s.45,1,1,1Z"/>
    <path class="cls-2" d="m12.5,27h3c.55,0,1-.45,1-1s-.45-1-1-1h-3c-.55,0-1,.45-1,1s.45,1,1,1Z"/>
  </g>
  <g>
    <path class="cls-1" d="m28.5,9h-1v-2h-5v10h5v-6h1c.28,0,.5.22.5.5v6.5c0,.55.45,1,1,1s1-.45,1-1v-6.5c0-1.38-1.12-2.5-2.5-2.5Z"/>
    <path class="cls-1" d="m22.5,24.76c0,1.07.35,2.07.98,2.83l.52.63v1.79c0,.55.45,1,1,1s1-.45,1-1v-1.79l.52-.63c.63-.76.98-1.76.98-2.83v-5.76h-5v5.76Z"/>
    <path class="cls-1" d="m26.5,2.5c0-.83-.67-1.5-1.5-1.5s-1.5.67-1.5,1.5v2.5h3v-2.5Z"/>
  </g>
</svg>