<?xml version="1.0" encoding="UTF-8"?>
<svg id="OBJECT" xmlns="http://www.w3.org/2000/svg" viewBox="0 0 32 32">
  <defs>
    <style>
      .cls-1 {
        fill: #FD4360;
      }

      .cls-1, .cls-2 {
        stroke-width: 0px;
      }

      .cls-2 {
        fill: #dadada;
      }
    </style>
  </defs>
  <g>
    <path class="cls-2" d="m27,1H5c-.55,0-1,.45-1,1v28c0,.55.45,1,1,1h22c.55,0,1-.45,1-1V2c0-.55-.45-1-1-1Zm-1,28H6V3h20v26Z"/>
    <path class="cls-2" d="m8.5,28h5c.55,0,1-.45,1-1v-5c0-.55-.45-1-1-1h-5c-.55,0-1,.45-1,1v5c0,.55.45,1,1,1Zm1-5h3v3h-3v-3Z"/>
    <path class="cls-2" d="m17.5,24h6c.55,0,1-.45,1-1s-.45-1-1-1h-6c-.55,0-1,.45-1,1s.45,1,1,1Z"/>
    <path class="cls-2" d="m17.5,27h6c.55,0,1-.45,1-1s-.45-1-1-1h-6c-.55,0-1,.45-1,1s.45,1,1,1Z"/>
  </g>
  <g>
    <rect class="cls-1" x="7.5" y="4" width="7" height="7" rx="1" ry="1"/>
    <path class="cls-1" d="m17.5,7h6c.55,0,1-.45,1-1s-.45-1-1-1h-6c-.55,0-1,.45-1,1s.45,1,1,1Z"/>
    <path class="cls-1" d="m23.5,8h-6c-.55,0-1,.45-1,1s.45,1,1,1h6c.55,0,1-.45,1-1s-.45-1-1-1Z"/>
    <rect class="cls-1" x="7.5" y="12.5" width="7" height="7" rx="1" ry="1"/>
    <path class="cls-1" d="m23.5,13.5h-6c-.55,0-1,.45-1,1s.45,1,1,1h6c.55,0,1-.45,1-1s-.45-1-1-1Z"/>
    <path class="cls-1" d="m23.5,16.5h-6c-.55,0-1,.45-1,1s.45,1,1,1h6c.55,0,1-.45,1-1s-.45-1-1-1Z"/>
  </g>
</svg>