<?xml version="1.0" encoding="UTF-8"?>
<svg id="OBJECT" xmlns="http://www.w3.org/2000/svg" viewBox="0 0 32 32">
  <defs>
    <style>
      .cls-1 {
        fill: #FD4360;
      }

      .cls-1, .cls-2 {
        stroke-width: 0px;
      }

      .cls-2 {
        fill: #dadada;
      }
    </style>
  </defs>
  <path class="cls-2" d="m22,1H2c-.55,0-1,.45-1,1v28c0,.55.45,1,1,1h20c.55,0,1-.45,1-1V2c0-.55-.45-1-1-1Zm-1,2v4H3V3h18ZM3,29V9h18v20H3Z"/>
  <path class="cls-2" d="m18.5,11h-9c-.55,0-1,.45-1,1s.45,1,1,1h9c.55,0,1-.45,1-1s-.45-1-1-1Z"/>
  <path class="cls-2" d="m5.5,13h.5c.55,0,1-.45,1-1s-.45-1-1-1h-.5c-.55,0-1,.45-1,1s.45,1,1,1Z"/>
  <path class="cls-2" d="m18.5,15H5.5c-.55,0-1,.45-1,1s.45,1,1,1h13c.55,0,1-.45,1-1s-.45-1-1-1Z"/>
  <path class="cls-2" d="m18.5,21h-9c-.55,0-1,.45-1,1s.45,1,1,1h9c.55,0,1-.45,1-1s-.45-1-1-1Z"/>
  <path class="cls-2" d="m5.5,23h.5c.55,0,1-.45,1-1s-.45-1-1-1h-.5c-.55,0-1,.45-1,1s.45,1,1,1Z"/>
  <path class="cls-2" d="m18.5,25H5.5c-.55,0-1,.45-1,1s.45,1,1,1h13c.55,0,1-.45,1-1s-.45-1-1-1Z"/>
  <path class="cls-2" d="m5,6h.5c.55,0,1-.45,1-1s-.45-1-1-1h-.5c-.55,0-1,.45-1,1s.45,1,1,1Z"/>
  <path class="cls-2" d="m18.5,6h.5c.55,0,1-.45,1-1s-.45-1-1-1h-.5c-.55,0-1,.45-1,1s.45,1,1,1Z"/>
  <g>
    <path class="cls-1" d="m30,1h-4c-.55,0-1,.45-1,1v3h6v-3c0-.55-.45-1-1-1Z"/>
    <path class="cls-1" d="m25,25.17c0,.8.31,1.55.88,2.12l1.12,1.12v1.59c0,.55.45,1,1,1s1-.45,1-1v-1.59l1.12-1.12c.57-.57.88-1.32.88-2.12V7h-6v18.17Z"/>
  </g>
</svg>