<?xml version="1.0" encoding="UTF-8"?>
<svg id="OBJECT" xmlns="http://www.w3.org/2000/svg" viewBox="0 0 32 32">
  <defs>
    <style>
      .cls-1 {
        fill: #FD4360;
      }

      .cls-1, .cls-2 {
        stroke-width: 0px;
      }

      .cls-2 {
        fill: #dadada;
      }
    </style>
  </defs>
  <g>
    <path class="cls-2" d="m27,20c0-.55-.45-1-1-1h-14c-.55,0-1,.45-1,1s.45,1,1,1h14c.55,0,1-.45,1-1Z"/>
    <path class="cls-2" d="m12,17h14c.55,0,1-.45,1-1s-.45-1-1-1h-14c-.55,0-1,.45-1,1s.45,1,1,1Z"/>
    <path class="cls-2" d="m26,13c.55,0,1-.45,1-1s-.45-1-1-1h-10c-.55,0-1,.45-1,1s.45,1,1,1h10Z"/>
    <path class="cls-2" d="m12,13h.5c.55,0,1-.45,1-1s-.45-1-1-1h-.5c-.55,0-1,.45-1,1s.45,1,1,1Z"/>
    <path class="cls-2" d="m30,7H11c-.55,0-1,.45-1,1s.45,1,1,1h18v14h-6c-.55,0-1,.45-1,1s.45,1,1,1h7c.55,0,1-.45,1-1V8c0-.55-.45-1-1-1Z"/>
  </g>
  <g>
    <path class="cls-1" d="m7,20.54V4.56c-.59-.34-1.27-.56-2-.56-2.21,0-4,1.79-4,4v16c0-2.21,1.79-4,4-4,.73,0,1.41.2,2,.54Z"/>
    <path class="cls-1" d="m8,25c-.54,0-.97-.42-1-.95-.03-.72-.31-1.43-.95-1.77-1.52-.81-3.06.28-3.06,1.73v2c0,1.1.9,2,2,2h15v-3h-12Z"/>
  </g>
</svg>