<?xml version="1.0" encoding="UTF-8"?>
<svg id="OBJECT" xmlns="http://www.w3.org/2000/svg" viewBox="0 0 32 32">
  <defs>
    <style>
      .cls-1 {
        fill: #FD4360;
      }

      .cls-1, .cls-2 {
        stroke-width: 0px;
      }

      .cls-2 {
        fill: #dadada;
      }
    </style>
  </defs>
  <g>
    <path class="cls-2" d="m19,25h-5.5c-.55,0-1-.45-1-1s.45-1,1-1h5.5c.55,0,1,.45,1,1s-.45,1-1,1Z"/>
    <path class="cls-2" d="m17,21h-3.5c-.55,0-1-.45-1-1s.45-1,1-1h3.5c.55,0,1,.45,1,1s-.45,1-1,1Z"/>
  </g>
  <g>
    <path class="cls-2" d="m9,26h-3c-.55,0-1-.45-1-1s.45-1,1-1h3c.28,0,.5-.22.5-.5s-.22-.5-.5-.5h-1.5c-1.38,0-2.5-1.12-2.5-2.5s1.12-2.5,2.5-2.5h3c.55,0,1,.45,1,1s-.45,1-1,1h-3c-.28,0-.5.22-.5.5s.22.5.5.5h1.5c1.38,0,2.5,1.12,2.5,2.5s-1.12,2.5-2.5,2.5Z"/>
    <path class="cls-2" d="m8.25,19.88c-.55,0-1-.45-1-1v-1.38c0-.55.45-1,1-1s1,.45,1,1v1.38c0,.55-.45,1-1,1Z"/>
    <path class="cls-2" d="m8.25,27.5c-.55,0-1-.45-1-1v-1.38c0-.55.45-1,1-1s1,.45,1,1v1.38c0,.55-.45,1-1,1Z"/>
  </g>
  <path class="cls-2" d="m30,31H2c-.55,0-1-.45-1-1V14c0-.55.45-1,1-1h16c.55,0,1,.45,1,1s-.45,1-1,1H3v14h26v-14h-1c-.55,0-1-.45-1-1s.45-1,1-1h2c.55,0,1,.45,1,1v16c0,.55-.45,1-1,1Z"/>
  <g>
    <path class="cls-1" d="m20.5,20.5c0,1.7.54,3.38,1.5,4.78v1.72c0,.55.45,1,1,1s1-.45,1-1v-1.72c.96-1.4,1.5-3.08,1.5-4.78V7h-5v13.5Z"/>
    <path class="cls-1" d="m23.5,1h-1c-1.1,0-2,.9-2,2v2h5v-2c0-1.1-.9-2-2-2Z"/>
  </g>
</svg>