<?xml version="1.0" encoding="UTF-8"?>
<svg id="OBJECT" xmlns="http://www.w3.org/2000/svg" viewBox="0 0 32 32">
  <defs>
    <style>
      .cls-1 {
        fill: #FD4360;
      }

      .cls-1, .cls-2 {
        stroke-width: 0px;
      }

      .cls-2 {
        fill: #dadada;
      }
    </style>
  </defs>
  <circle class="cls-1" cx="16" cy="7" r="6"/>
  <g>
    <path class="cls-2" d="m25,23h-.5v-1.55c0-1.35-1.1-2.45-2.45-2.45h-.29l-1.33-4.68c-.15-.53-.7-.84-1.23-.69-.53.15-.84.7-.69,1.23l1.17,4.14h-7.35l1.17-4.14c.15-.53-.16-1.08-.69-1.23-.53-.15-1.08.16-1.23.69l-1.33,4.68h-.29c-1.35,0-2.45,1.1-2.45,2.45v1.55h-.5c-1.65,0-3,1.35-3,3v4c0,.55.45,1,1,1h22c.55,0,1-.45,1-1v-4c0-1.65-1.35-3-3-3Zm-15.5-1.55c0-.25.2-.45.45-.45h12.1c.25,0,.45.2.45.45v1.55h-13v-1.55Zm16.5,7.55H6v-1h13c.55,0,1-.45,1-1s-.45-1-1-1H6c0-.55.45-1,1-1h18c.55,0,1,.45,1,1v3Z"/>
    <path class="cls-2" d="m23.5,26h-1c-.55,0-1,.45-1,1s.45,1,1,1h1c.55,0,1-.45,1-1s-.45-1-1-1Z"/>
  </g>
</svg>