<?xml version="1.0" encoding="UTF-8"?>
<svg id="OBJECT" xmlns="http://www.w3.org/2000/svg" viewBox="0 0 32 32">
  <defs>
    <style>
      .cls-1 {
        fill: #FD4360;
      }

      .cls-1, .cls-2 {
        stroke-width: 0px;
      }

      .cls-2 {
        fill: #dadada;
      }
    </style>
  </defs>
  <g>
    <path class="cls-2" d="m24,1c-3.86,0-7,3.14-7,7s3.14,7,7,7,7-3.14,7-7-3.14-7-7-7Zm0,12c-2.76,0-5-2.24-5-5s2.24-5,5-5,5,2.24,5,5-2.24,5-5,5Z"/>
    <path class="cls-2" d="m25.54,5.92l-2.03,2.03-1.05-1.05c-.39-.39-1.02-.39-1.41,0s-.39,1.02,0,1.41l1.76,1.76c.2.2.45.29.71.29s.51-.1.71-.29l2.74-2.74c.39-.39.39-1.02,0-1.41s-1.02-.39-1.41,0Z"/>
    <path class="cls-2" d="m12.64,7.47c.07-.3.11-.6.11-.92v-1.95c0-1.98-1.62-3.6-3.6-3.6h-1.3c-1.98,0-3.6,1.62-3.6,3.6v1.95c0,.32.04.62.11.92-2.09,1.38-3.36,3.69-3.36,6.23v1.95c0,1.63,1.32,2.95,2.95,2.95h9.1c1.63,0,2.95-1.32,2.95-2.95v-1.95c0-2.54-1.27-4.85-3.36-6.23Zm-6.39-2.87c0-.88.72-1.6,1.6-1.6h1.3c.88,0,1.6.72,1.6,1.6v1.95c0,1.24-1.01,2.25-2.25,2.25s-2.25-1.01-2.25-2.25v-1.95Zm7.75,11.05c0,.52-.43.95-.95.95H3.95c-.52,0-.95-.43-.95-.95v-1.95c0-1.78.85-3.41,2.26-4.43.78.93,1.93,1.53,3.24,1.53s2.46-.6,3.24-1.53c1.41,1.03,2.26,2.65,2.26,4.43v1.95Z"/>
  </g>
  <path class="cls-1" d="m26.49,23.26l2.64-1.42c.35-.19.54-.57.48-.96-.06-.39-.36-.7-.74-.77l-10.76-2.09c-.3-.06-.62.04-.83.25-.22.22-.31.53-.25.83l2.09,10.76c.07.39.38.68.77.74.39.06.77-.13.96-.48l1.42-2.64,2.81,2.81c.47.47,1.08.7,1.69.7s1.23-.23,1.7-.7l.84-.84c.45-.45.7-1.05.7-1.69s-.25-1.24-.7-1.7l-2.81-2.81Z"/>
</svg>