<?xml version="1.0" encoding="UTF-8"?>
<svg id="OBJECT" xmlns="http://www.w3.org/2000/svg" viewBox="0 0 32 32">
  <defs>
    <style>
      .cls-1 {
        fill: #FD4360;
      }

      .cls-2 {
        fill: #dadada;
      }
    </style>
  </defs>
  <path class="cls-2" d="M25.5,18.55V8c0-.31-.15-.61-.4-.8l-2-1.5c-.44-.33-1.07-.24-1.4,.2-.33,.44-.24,1.07,.2,1.4l1.6,1.2v14.5H8.5V8.5l1.6-1.2c.44-.33,.53-.96,.2-1.4-.33-.44-.96-.53-1.4-.2l-2,1.5c-.25,.19-.4,.48-.4,.8v10.55c-3.49,1.3-5.5,3.26-5.5,5.45,0,3.99,6.45,7,15,7s15-3.01,15-7c0-2.19-2.01-4.15-5.5-5.45Zm-9.5,10.45c-7.66,0-13-2.63-13-5,0-1.16,1.32-2.37,3.5-3.31v2.31h-.5c-.55,0-1,.45-1,1s.45,1,1,1H26c.55,0,1-.45,1-1s-.45-1-1-1h-.5v-2.31c2.18,.94,3.5,2.15,3.5,3.31,0,2.37-5.34,5-13,5Z"/>
  <path class="cls-1" d="M20.5,3c0-1.1-.9-2-2-2h-5c-1.1,0-2,.9-2,2V21h9V3Zm-5,14.5c0,.55-.45,1-1,1s-1-.45-1-1v-.5c0-.55,.45-1,1-1s1,.45,1,1v.5Zm0-4c0,.55-.45,1-1,1s-1-.45-1-1v-.5c0-.55,.45-1,1-1s1,.45,1,1v.5Zm0-4c0,.55-.45,1-1,1s-1-.45-1-1v-.5c0-.55,.45-1,1-1s1,.45,1,1v.5Zm0-4c0,.55-.45,1-1,1s-1-.45-1-1v-.5c0-.55,.45-1,1-1s1,.45,1,1v.5Zm3,12c0,.55-.45,1-1,1s-1-.45-1-1v-.5c0-.55,.45-1,1-1s1,.45,1,1v.5Zm0-4c0,.55-.45,1-1,1s-1-.45-1-1v-.5c0-.55,.45-1,1-1s1,.45,1,1v.5Zm0-4c0,.55-.45,1-1,1s-1-.45-1-1v-.5c0-.55,.45-1,1-1s1,.45,1,1v.5Zm0-4c0,.55-.45,1-1,1s-1-.45-1-1v-.5c0-.55,.45-1,1-1s1,.45,1,1v.5Z"/>
</svg>