<?xml version="1.0" encoding="UTF-8"?>
<svg id="OBJECT" xmlns="http://www.w3.org/2000/svg" viewBox="0 0 512 512">
  <defs>
    <style>
      .cls-1 {
        fill: #FD4360;
      }

      .cls-2 {
        fill: #dadada;
      }
    </style>
  </defs>
  <g>
    <path class="cls-2" d="M347.11,134.1h119.77c13.85,0,25.11-11.27,25.11-25.11,0-11.11-7.25-20.56-17.27-23.86,1.1-4.66,1.55-9.46,1.35-14.35-1.13-27.34-23.44-49.62-50.77-50.73-23.3-.96-44.48,13.64-52.16,35.23-13.67,3.51-23.99,14.75-26.39,28.6-13.68,.2-24.75,11.39-24.75,25.11s11.27,25.11,25.11,25.11Zm0-35.23h6.64c2.05,0,4.01-.84,5.42-2.32s2.16-3.48,2.07-5.52c-.01-.32-.03-.64-.03-.96,0-10.69,8-19.63,18.6-20.81,3.11-.35,5.68-2.58,6.44-5.61,4.38-17.31,20.52-29.34,38.43-28.62,19.59,.79,35.58,16.77,36.39,36.37,.18,4.28-.35,8.46-1.56,12.48h-28.24c-4.14,0-7.5,3.36-7.5,7.5s3.36,7.5,7.5,7.5h35.59c5.58,0,10.11,4.54,10.11,10.11s-4.54,10.11-10.11,10.11h-119.77c-5.58,0-10.11-4.54-10.11-10.11s4.54-10.11,10.11-10.11Z"/>
    <path class="cls-2" d="M401.24,98.87h2.06c4.14,0,7.5-3.36,7.5-7.5s-3.36-7.5-7.5-7.5h-2.06c-4.14,0-7.5,3.36-7.5,7.5s3.36,7.5,7.5,7.5Z"/>
    <path class="cls-2" d="M257.5,262h10c4.14,0,7.5-3.36,7.5-7.5s-3.36-7.5-7.5-7.5h-10c-4.14,0-7.5,3.36-7.5,7.5s3.36,7.5,7.5,7.5Z"/>
    <path class="cls-2" d="M292.5,262h10c4.14,0,7.5-3.36,7.5-7.5s-3.36-7.5-7.5-7.5h-10c-4.14,0-7.5,3.36-7.5,7.5s3.36,7.5,7.5,7.5Z"/>
    <path class="cls-2" d="M327.5,262h10c4.14,0,7.5-3.36,7.5-7.5s-3.36-7.5-7.5-7.5h-10c-4.14,0-7.5,3.36-7.5,7.5s3.36,7.5,7.5,7.5Z"/>
    <path class="cls-2" d="M257.5,298h10c4.14,0,7.5-3.36,7.5-7.5s-3.36-7.5-7.5-7.5h-10c-4.14,0-7.5,3.36-7.5,7.5s3.36,7.5,7.5,7.5Z"/>
    <path class="cls-2" d="M292.5,298h10c4.14,0,7.5-3.36,7.5-7.5s-3.36-7.5-7.5-7.5h-10c-4.14,0-7.5,3.36-7.5,7.5s3.36,7.5,7.5,7.5Z"/>
    <path class="cls-2" d="M327.5,298h10c4.14,0,7.5-3.36,7.5-7.5s-3.36-7.5-7.5-7.5h-10c-4.14,0-7.5,3.36-7.5,7.5s3.36,7.5,7.5,7.5Z"/>
    <path class="cls-2" d="M257.5,334h10c4.14,0,7.5-3.36,7.5-7.5s-3.36-7.5-7.5-7.5h-10c-4.14,0-7.5,3.36-7.5,7.5s3.36,7.5,7.5,7.5Z"/>
    <path class="cls-2" d="M292.5,334h10c4.14,0,7.5-3.36,7.5-7.5s-3.36-7.5-7.5-7.5h-10c-4.14,0-7.5,3.36-7.5,7.5s3.36,7.5,7.5,7.5Z"/>
    <path class="cls-2" d="M327.5,334h10c4.14,0,7.5-3.36,7.5-7.5s-3.36-7.5-7.5-7.5h-10c-4.14,0-7.5,3.36-7.5,7.5s3.36,7.5,7.5,7.5Z"/>
    <path class="cls-2" d="M257.5,370h10c4.14,0,7.5-3.36,7.5-7.5s-3.36-7.5-7.5-7.5h-10c-4.14,0-7.5,3.36-7.5,7.5s3.36,7.5,7.5,7.5Z"/>
    <path class="cls-2" d="M292.5,370h10c4.14,0,7.5-3.36,7.5-7.5s-3.36-7.5-7.5-7.5h-10c-4.14,0-7.5,3.36-7.5,7.5s3.36,7.5,7.5,7.5Z"/>
    <path class="cls-2" d="M327.5,370h10c4.14,0,7.5-3.36,7.5-7.5s-3.36-7.5-7.5-7.5h-10c-4.14,0-7.5,3.36-7.5,7.5s3.36,7.5,7.5,7.5Z"/>
    <path class="cls-2" d="M257.5,406h10c4.14,0,7.5-3.36,7.5-7.5s-3.36-7.5-7.5-7.5h-10c-4.14,0-7.5,3.36-7.5,7.5s3.36,7.5,7.5,7.5Z"/>
    <path class="cls-2" d="M292.5,406h10c4.14,0,7.5-3.36,7.5-7.5s-3.36-7.5-7.5-7.5h-10c-4.14,0-7.5,3.36-7.5,7.5s3.36,7.5,7.5,7.5Z"/>
    <path class="cls-2" d="M327.5,406h10c4.14,0,7.5-3.36,7.5-7.5s-3.36-7.5-7.5-7.5h-10c-4.14,0-7.5,3.36-7.5,7.5s3.36,7.5,7.5,7.5Z"/>
    <path class="cls-2" d="M257.5,442h10c4.14,0,7.5-3.36,7.5-7.5s-3.36-7.5-7.5-7.5h-10c-4.14,0-7.5,3.36-7.5,7.5s3.36,7.5,7.5,7.5Z"/>
    <path class="cls-2" d="M292.5,442h10c4.14,0,7.5-3.36,7.5-7.5s-3.36-7.5-7.5-7.5h-10c-4.14,0-7.5,3.36-7.5,7.5s3.36,7.5,7.5,7.5Z"/>
    <path class="cls-2" d="M327.5,442h10c4.14,0,7.5-3.36,7.5-7.5s-3.36-7.5-7.5-7.5h-10c-4.14,0-7.5,3.36-7.5,7.5s3.36,7.5,7.5,7.5Z"/>
    <path class="cls-2" d="M392.5,330.75h10c4.14,0,7.5-3.36,7.5-7.5s-3.36-7.5-7.5-7.5h-10c-4.14,0-7.5,3.36-7.5,7.5s3.36,7.5,7.5,7.5Z"/>
    <path class="cls-2" d="M432.5,330.75h10c4.14,0,7.5-3.36,7.5-7.5s-3.36-7.5-7.5-7.5h-10c-4.14,0-7.5,3.36-7.5,7.5s3.36,7.5,7.5,7.5Z"/>
    <path class="cls-2" d="M392.5,368.25h10c4.14,0,7.5-3.36,7.5-7.5s-3.36-7.5-7.5-7.5h-10c-4.14,0-7.5,3.36-7.5,7.5s3.36,7.5,7.5,7.5Z"/>
    <path class="cls-2" d="M432.5,368.25h10c4.14,0,7.5-3.36,7.5-7.5s-3.36-7.5-7.5-7.5h-10c-4.14,0-7.5,3.36-7.5,7.5s3.36,7.5,7.5,7.5Z"/>
    <path class="cls-2" d="M392.5,405.75h10c4.14,0,7.5-3.36,7.5-7.5s-3.36-7.5-7.5-7.5h-10c-4.14,0-7.5,3.36-7.5,7.5s3.36,7.5,7.5,7.5Z"/>
    <path class="cls-2" d="M432.5,405.75h10c4.14,0,7.5-3.36,7.5-7.5s-3.36-7.5-7.5-7.5h-10c-4.14,0-7.5,3.36-7.5,7.5s3.36,7.5,7.5,7.5Z"/>
    <path class="cls-2" d="M402.5,428.25h-10c-4.14,0-7.5,3.36-7.5,7.5s3.36,7.5,7.5,7.5h10c4.14,0,7.5-3.36,7.5-7.5s-3.36-7.5-7.5-7.5Z"/>
    <path class="cls-2" d="M432.5,443.25h10c4.14,0,7.5-3.36,7.5-7.5s-3.36-7.5-7.5-7.5h-10c-4.14,0-7.5,3.36-7.5,7.5s3.36,7.5,7.5,7.5Z"/>
    <path class="cls-2" d="M97.5,402c-4.14,0-7.5,3.36-7.5,7.5v20c0,4.14,3.36,7.5,7.5,7.5s7.5-3.36,7.5-7.5v-20c0-4.14-3.36-7.5-7.5-7.5Z"/>
    <path class="cls-2" d="M127.5,402c-4.14,0-7.5,3.36-7.5,7.5v20c0,4.14,3.36,7.5,7.5,7.5s7.5-3.36,7.5-7.5v-20c0-4.14-3.36-7.5-7.5-7.5Z"/>
    <path class="cls-2" d="M157.5,402c-4.14,0-7.5,3.36-7.5,7.5v20c0,4.14,3.36,7.5,7.5,7.5s7.5-3.36,7.5-7.5v-20c0-4.14-3.36-7.5-7.5-7.5Z"/>
    <path class="cls-2" d="M187.5,402c-4.14,0-7.5,3.36-7.5,7.5v20c0,4.14,3.36,7.5,7.5,7.5s7.5-3.36,7.5-7.5v-20c0-4.14-3.36-7.5-7.5-7.5Z"/>
    <path class="cls-2" d="M504.5,457h-29.5v-172.5c0-3.58-2.52-6.65-6.03-7.35l-93.97-18.79v-63.85c0-2.27-1.02-4.41-2.78-5.83-1.76-1.42-4.07-1.98-6.29-1.5l-140,30c-3.46,.74-5.93,3.8-5.93,7.33v112.5H52.5c-9.65,0-17.5,7.85-17.5,17.5v10c0,8.8,6.53,16.08,15,17.3v75.2H7.5c-4.14,0-7.5,3.36-7.5,7.5v25c0,12.41,10.09,22.5,22.5,22.5H489.5c12.41,0,22.5-10.09,22.5-22.5v-25c0-4.14-3.36-7.5-7.5-7.5Zm-44.5-166.35v166.35h-85v-183.35l85,17Zm-100-86.87v253.22h-125V230.56l125-26.79ZM50,354.5c0-1.38,1.12-2.5,2.5-2.5H220v15H52.5c-1.38,0-2.5-1.12-2.5-2.5v-10Zm15,27.5H220v75H65v-75Zm432,107.5c0,4.14-3.36,7.5-7.5,7.5H22.5c-4.14,0-7.5-3.36-7.5-7.5v-17.5H497v17.5Z"/>
  </g>
  <g>
    <path class="cls-1" d="M170,32.8v-5.3c0-15.16-12.34-27.5-27.5-27.5s-27.5,12.34-27.5,27.5v5.3c8.8-1.83,18.02-2.8,27.5-2.8s18.7,.97,27.5,2.8Z"/>
    <path class="cls-1" d="M275,112.5H10c-5.52,0-10,4.48-10,10s4.48,10,10,10H275c5.52,0,10-4.48,10-10s-4.48-10-10-10Z"/>
    <path class="cls-1" d="M142.5,45c-42.76,0-79.18,22-92.29,52.5H234.79c-13.11-30.5-49.53-52.5-92.29-52.5Z"/>
    <path class="cls-1" d="M104.02,193.75c5.23,1.78,8.63,6.95,8.27,12.55l-7.75,115.7h75.93l-7.75-115.68c-.36-5.62,3.04-10.79,8.26-12.57,25.85-8.8,45.11-25.8,53.84-46.25H50.18c8.73,20.45,27.98,37.45,53.84,46.25Z"/>
  </g>
</svg>