<?xml version="1.0" encoding="UTF-8"?>
<svg id="OBJECT" xmlns="http://www.w3.org/2000/svg" viewBox="0 0 512 512">
  <defs>
    <style>
      .cls-1 {
        fill: #FD4360;
      }

      .cls-2 {
        fill: #dadada;
      }
    </style>
  </defs>
  <g>
    <path class="cls-2" d="M408.5,120.2v-52.7c0-1.16-.27-2.31-.79-3.35l-25.85-51.71c-3.84-7.67-11.55-12.44-20.12-12.44H150.27c-8.58,0-16.29,4.77-20.12,12.44l-25.85,51.71c-.52,1.04-.79,2.19-.79,3.35v52.7c-8.47,1.22-15,8.5-15,17.3v20c0,8.8,6.53,16.08,15,17.3v22.7c0,4.14,3.36,7.5,7.5,7.5s7.5-3.36,7.5-7.5v-22.5h45v22.5c0,4.14,3.36,7.5,7.5,7.5s7.5-3.36,7.5-7.5v-22.7c8.47-1.22,15-8.5,15-17.3v-20c0-8.8-6.53-16.08-15-17.3v-45.2h155v45.2c-8.47,1.22-15,8.5-15,17.3v20c0,8.8,6.53,16.08,15,17.3v22.7c0,4.14,3.36,7.5,7.5,7.5s7.5-3.36,7.5-7.5v-22.5h45v22.5c0,4.14,3.36,7.5,7.5,7.5s7.5-3.36,7.5-7.5v-22.7c8.47-1.22,15-8.5,15-17.3v-20c0-8.8-6.53-16.08-15-17.3ZM143.56,19.15c1.28-2.56,3.85-4.15,6.71-4.15h211.46c2.86,0,5.43,1.59,6.71,4.15l20.43,40.85h-65.36v-12.5c0-9.65-7.85-17.5-17.5-17.5h-100c-9.65,0-17.5,7.85-17.5,17.5v12.5H123.14l20.43-40.85Zm164.94,40.85h-105v-12.5c0-1.38,1.12-2.5,2.5-2.5h100c1.38,0,2.5,1.12,2.5,2.5v12.5Zm-130,97.5c0,1.38-1.12,2.5-2.5,2.5H106c-1.38,0-2.5-1.12-2.5-2.5v-20c0-1.38,1.12-2.5,2.5-2.5h70c1.38,0,2.5,1.12,2.5,2.5v20Zm-15-37.5h-45v-45h45v45Zm230-45v45h-45v-45h45Zm15,82.5c0,1.38-1.12,2.5-2.5,2.5h-70c-1.38,0-2.5-1.12-2.5-2.5v-20c0-1.38,1.12-2.5,2.5-2.5h70c1.38,0,2.5,1.12,2.5,2.5v20Z"/>
    <path class="cls-2" d="M378.5,395c4.14,0,7.5-3.36,7.5-7.5s-3.36-7.5-7.5-7.5h-15c-4.14,0-7.5,3.36-7.5,7.5s3.36,7.5,7.5,7.5h15Z"/>
    <path class="cls-2" d="M401,370c-4.14,0-7.5,3.36-7.5,7.5v20.79c0,2-.78,3.89-2.2,5.3l-8.75,8.75c-3.46-1.81-7.39-2.84-11.55-2.84s-8.09,1.03-11.55,2.84l-8.75-8.75c-1.42-1.42-2.2-3.3-2.2-5.3v-20.79c0-4.14-3.36-7.5-7.5-7.5s-7.5,3.36-7.5,7.5v20.79c0,6.01,2.34,11.66,6.59,15.91l8.75,8.75c-1.81,3.46-2.84,7.39-2.84,11.55,0,11.17,7.37,20.66,17.5,23.85v20.93c0,4.14,3.36,7.5,7.5,7.5s7.5-3.36,7.5-7.5v-20.93c10.13-3.19,17.5-12.68,17.5-23.85,0-4.17-1.03-8.09-2.84-11.55l8.75-8.75c4.25-4.25,6.59-9.9,6.59-15.91v-20.79c0-4.14-3.36-7.5-7.5-7.5Zm-30,74.5c-5.51,0-10-4.49-10-10s4.49-10,10-10,10,4.49,10,10-4.49,10-10,10Z"/>
    <path class="cls-2" d="M171,370c-4.14,0-7.5,3.36-7.5,7.5v20.79c0,2-.78,3.89-2.2,5.3l-8.75,8.75c-3.46-1.81-7.39-2.84-11.55-2.84s-8.09,1.03-11.55,2.84l-8.75-8.75c-1.42-1.42-2.2-3.3-2.2-5.3v-20.79c0-4.14-3.36-7.5-7.5-7.5s-7.5,3.36-7.5,7.5v20.79c0,6.01,2.34,11.66,6.59,15.91l8.75,8.75c-1.81,3.46-2.84,7.39-2.84,11.55,0,11.17,7.37,20.66,17.5,23.85v20.93c0,4.14,3.36,7.5,7.5,7.5s7.5-3.36,7.5-7.5v-20.93c10.13-3.19,17.5-12.68,17.5-23.85,0-4.17-1.03-8.09-2.84-11.55l8.75-8.75c4.25-4.25,6.59-9.9,6.59-15.91v-20.79c0-4.14-3.36-7.5-7.5-7.5Zm-30,74.5c-5.51,0-10-4.49-10-10s4.49-10,10-10,10,4.49,10,10-4.49,10-10,10Z"/>
    <path class="cls-2" d="M371,492c-4.14,0-7.5,3.36-7.5,7.5v5c0,4.14,3.36,7.5,7.5,7.5s7.5-3.36,7.5-7.5v-5c0-4.14-3.36-7.5-7.5-7.5Z"/>
    <path class="cls-2" d="M148.5,395c4.14,0,7.5-3.36,7.5-7.5s-3.36-7.5-7.5-7.5h-15c-4.14,0-7.5,3.36-7.5,7.5s3.36,7.5,7.5,7.5h15Z"/>
    <path class="cls-2" d="M141,492c-4.14,0-7.5,3.36-7.5,7.5v5c0,4.14,3.36,7.5,7.5,7.5s7.5-3.36,7.5-7.5v-5c0-4.14-3.36-7.5-7.5-7.5Z"/>
  </g>
  <g>
    <rect class="cls-1" x="343.5" y="295" width="55" height="20"/>
    <rect class="cls-1" x="343.5" y="260" width="55" height="20"/>
    <path class="cls-1" d="M401,220h-60c-20.68,0-37.5,16.82-37.5,37.5v60c0,20.68,16.82,37.5,37.5,37.5h60c20.68,0,37.5-16.82,37.5-37.5v-60c0-20.68-16.82-37.5-37.5-37.5Zm12.5,97.5c0,6.89-5.61,12.5-12.5,12.5h-60c-6.89,0-12.5-5.61-12.5-12.5v-60c0-6.89,5.61-12.5,12.5-12.5h60c6.89,0,12.5,5.61,12.5,12.5v60Z"/>
    <rect class="cls-1" x="113.5" y="295" width="55" height="20"/>
    <rect class="cls-1" x="113.5" y="260" width="55" height="20"/>
    <path class="cls-1" d="M171,220h-60c-20.68,0-37.5,16.82-37.5,37.5v60c0,20.68,16.82,37.5,37.5,37.5h60c20.68,0,37.5-16.82,37.5-37.5v-60c0-20.68-16.82-37.5-37.5-37.5Zm12.5,97.5c0,6.89-5.61,12.5-12.5,12.5h-60c-6.89,0-12.5-5.61-12.5-12.5v-60c0-6.89,5.61-12.5,12.5-12.5h60c6.89,0,12.5,5.61,12.5,12.5v60Z"/>
  </g>
</svg>