<?xml version="1.0" encoding="UTF-8"?>
<svg id="OBJECT" xmlns="http://www.w3.org/2000/svg" viewBox="0 0 32 32">
  <defs>
    <style>
      .cls-1 {
        fill: #FD4360;
      }

      .cls-1, .cls-2 {
        stroke-width: 0px;
      }

      .cls-2 {
        fill: #dadada;
      }
    </style>
  </defs>
  <g>
    <path class="cls-2" d="m30.97,10.45c-.08-.34-.33-.61-.66-.72-3.78-1.26-6.79-4.27-8.05-8.05-.11-.33-.38-.58-.72-.66-.34-.08-.69.02-.94.27l-5.68,5.68c-.71.71-1.03,1.73-.84,2.72l.39,2.07s-.01,0-.02.02l-2.17,2.17c-.99.99-.99,2.6,0,3.58l2.17,2.17c.49.49,1.14.74,1.79.74s1.3-.25,1.79-.74l2.17-2.17s.01-.01.02-.02l2.07.39c.19.04.38.05.56.05.8,0,1.58-.32,2.15-.89l5.68-5.68c.25-.25.35-.6.27-.94Zm-12.17,5.67l-2.17,2.17c-.21.21-.55.21-.75,0l-2.17-2.17c-.21-.21-.21-.55,0-.76l2.17-2.17c.1-.1.24-.16.38-.16s.28.06.38.16l2.17,2.17c.1.1.16.23.16.38s-.05.28-.16.38Zm3.87-.18l-1.73-.33c-.03-.63-.28-1.22-.73-1.66l-2.17-2.17c-.45-.45-1.05-.68-1.66-.71l-.33-1.75c-.06-.34.04-.69.29-.93l.99-.99c1.47,3.2,4.06,5.79,7.26,7.26l-.99.99c-.25.24-.6.35-.93.29Zm3.45-2.8c-3.32-1.29-5.98-3.95-7.26-7.26l2.09-2.09c1.47,3.2,4.06,5.79,7.26,7.26l-2.09,2.09Z"/>
    <path class="cls-2" d="m16.78,14.85c-.39-.39-1.02-.39-1.41,0-.39.39-.39,1.02,0,1.41l.36.36c.2.19.45.29.71.29s.51-.1.71-.29c.39-.39.39-1.02,0-1.41l-.36-.36Z"/>
  </g>
  <g>
    <path class="cls-1" d="m15.61,24.79l-.88-.88.36-.36c.42-.42.7-.94.82-1.51l.07-.33c-.69-.04-1.34-.25-1.92-.6l-.11.51c-.04.2-.14.38-.28.52l-3.33,3.33c-.61.61-.95,1.42-.95,2.29s.34,1.68.95,2.29c.63.63,1.46.95,2.29.95s1.66-.32,2.29-.95l.68-.68c1.26-1.26,1.26-3.32,0-4.58Zm-1.41,3.17l-.68.68c-.48.48-1.27.48-1.75,0-.23-.23-.36-.54-.36-.88s.13-.64.36-.88l1.56-1.56.88.88c.48.48.48,1.27,0,1.75Z"/>
    <path class="cls-1" d="m10.38,18.04l.5-.11c-.35-.58-.55-1.23-.6-1.92l-.33.07c-.57.12-1.1.41-1.51.82l-.35.36-.88-.88c-1.26-1.26-3.32-1.26-4.58,0l-.68.68c-1.26,1.26-1.26,3.32,0,4.58.61.61,1.42.95,2.29.95s1.68-.34,2.29-.95l3.33-3.33c.14-.14.32-.24.52-.28Zm-5.26,2.2c-.47.47-1.28.47-1.75,0-.48-.48-.48-1.27,0-1.75l.68-.68c.24-.24.56-.36.88-.36s.63.12.88.36l.88.88-1.56,1.56Z"/>
  </g>
</svg>