<?xml version="1.0" encoding="UTF-8"?>
<svg id="OBJECT" xmlns="http://www.w3.org/2000/svg" viewBox="0 0 32 32">
  <defs>
    <style>
      .cls-1 {
        fill: #FD4360;
      }

      .cls-1, .cls-2 {
        stroke-width: 0px;
      }

      .cls-2 {
        fill: #dadada;
      }
    </style>
  </defs>
  <path class="cls-2" d="m30,12.75c.55,0,1-.45,1-1s-.45-1-1-1h-2v-2.25h2c.55,0,1-.45,1-1s-.45-1-1-1h-2v-1.5c0-.55-.45-1-1-1h-1.5v-2c0-.55-.45-1-1-1s-1,.45-1,1v2h-2.25v-2c0-.55-.45-1-1-1s-1,.45-1,1v2h-2.25v-2c0-.55-.45-1-1-1s-1,.45-1,1v2h-2.25v-2c0-.55-.45-1-1-1s-1,.45-1,1v2h-2.25v-2c0-.55-.45-1-1-1s-1,.45-1,1v2h-1.5c-.55,0-1,.45-1,1v1.5h-2c-.55,0-1,.45-1,1s.45,1,1,1h2v2.25h-2c-.55,0-1,.45-1,1s.45,1,1,1h2v2.25h-2c-.55,0-1,.45-1,1s.45,1,1,1h2v2.25h-2c-.55,0-1,.45-1,1s.45,1,1,1h2v2.25h-2c-.55,0-1,.45-1,1s.45,1,1,1h2v1.5c0,.55.45,1,1,1h1.5v2c0,.55.45,1,1,1s1-.45,1-1v-2h2.25v2c0,.55.45,1,1,1s1-.45,1-1v-2h2.25v2c0,.55.45,1,1,1s1-.45,1-1v-2h2.25v2c0,.55.45,1,1,1s1-.45,1-1v-2h2.25v2c0,.55.45,1,1,1s1-.45,1-1v-2h1.5c.55,0,1-.45,1-1v-1.5h2c.55,0,1-.45,1-1s-.45-1-1-1h-2v-2.25h2c.55,0,1-.45,1-1s-.45-1-1-1h-2v-2.25h2c.55,0,1-.45,1-1s-.45-1-1-1h-2v-2.25h2Zm-4,13.25H6V6h20v20Z"/>
  <g>
    <path class="cls-1" d="m17.35,7.5h-6.71c-1.73,0-3.14,1.41-3.14,3.14v1.14h3.2c1.18,0,2.22.8,2.52,1.94l.63,2.35h1.16c.55,0,1,.45,1,1s-.45,1-1,1h-1.92c-.45,0-.85-.3-.97-.74l-.82-3.09c-.07-.27-.31-.45-.59-.45h-3.2v7.57c0,1.73,1.41,3.14,3.14,3.14h1.68v-1.68c0-.55.45-1,1-1s1,.45,1,1v1.68h3.36v-1.68c0-.55.45-1,1-1s1,.45,1,1v1.68h1.68c1.73,0,3.14-1.41,3.14-3.14v-6.71c-3.57-.76-6.38-3.58-7.15-7.15Zm1.93,10.57h-.54c-.55,0-1-.45-1-1s.45-1,1-1h.54c.55,0,1,.45,1,1s-.45,1-1,1Z"/>
    <path class="cls-1" d="m24.5,12.58v-1.94c0-1.73-1.41-3.14-3.14-3.14h-1.94c.68,2.46,2.62,4.4,5.08,5.08Z"/>
  </g>
</svg>