<?xml version="1.0" encoding="UTF-8"?>
<svg id="OBJECT" xmlns="http://www.w3.org/2000/svg" viewBox="0 0 512 512">
  <defs>
    <style>
      .cls-1 {
        fill: #FD4360;
      }

      .cls-2 {
        fill: #dadada;
      }
    </style>
  </defs>
  <g>
    <path class="cls-2" d="M490.73,340.29c-12.34-16.54-29.49-29.38-48.73-36.56v-51.87c11.23-1.25,20-10.8,20-22.36v-10c0-12.41-10.09-22.5-22.5-22.5h-70c-12.41,0-22.5,10.09-22.5,22.5v10c0,11.56,8.77,21.11,20,22.36v51.87c-19.24,7.19-36.39,20.02-48.73,36.56-13.92,18.66-21.27,40.86-21.27,64.21,0,59.28,48.22,107.5,107.5,107.5s107.5-48.22,107.5-107.5c0-23.34-7.36-45.54-21.27-64.21Zm-128.73-110.79v-10c0-4.14,3.36-7.5,7.5-7.5h70c4.14,0,7.5,3.36,7.5,7.5v10c0,4.14-3.36,7.5-7.5,7.5h-70c-4.14,0-7.5-3.36-7.5-7.5Zm14.75,86.74c3.13-.98,5.25-3.88,5.25-7.16v-57.08h45v57.08c0,3.28,2.13,6.17,5.25,7.16,21.4,6.72,38.91,20.57,50.31,38.47-19.81-1.22-47.88-.08-84.08,8.3-35.6,8.24-60.96,5.91-77.46,1.49,10.78-22.6,30.57-40.35,55.73-48.25Zm27.75,180.76c-51,0-92.5-41.5-92.5-92.5,0-8.95,1.27-17.66,3.65-25.92,11.64,3.32,24.33,4.99,37.99,4.99,14.94,0,31.04-1.99,48.21-5.96,40.58-9.39,70.1-9.27,88.71-7.17,4.17,10.6,6.43,22.1,6.43,34.05,0,51-41.5,92.5-92.5,92.5Z"/>
    <path class="cls-2" d="M471.09,427.36c-3.75-1.76-8.22-.15-9.98,3.6-8.67,18.47-25.79,31.6-45.8,35.1-4.08,.71-6.81,4.6-6.09,8.68,.64,3.64,3.8,6.21,7.38,6.21,.43,0,.87-.04,1.3-.11,24.81-4.35,46.04-20.61,56.79-43.5,1.76-3.75,.15-8.22-3.6-9.98Z"/>
    <path class="cls-2" d="M474.88,402.92c-4.13-.34-7.75,2.72-8.1,6.85-.05,.59-.11,1.18-.17,1.77-.47,4.12,2.49,7.83,6.6,8.3,.29,.03,.57,.05,.86,.05,3.76,0,7.01-2.82,7.44-6.65,.08-.73,.16-1.47,.22-2.21,.35-4.13-2.72-7.75-6.85-8.1Z"/>
    <path class="cls-2" d="M168.3,332.29v-80.43c11.23-1.25,20-10.8,20-22.36v-10c0-12.41-10.09-22.5-22.5-22.5H95.8c-12.41,0-22.5,10.09-22.5,22.5v10c0,11.56,8.77,21.11,20,22.36v80.43L4.47,469.56c-5.56,8.59-5.96,19.09-1.07,28.08,4.89,8.99,13.92,14.36,24.16,14.36H234.04c10.23,0,19.27-5.37,24.16-14.36,4.89-8.99,4.49-19.49-1.07-28.08l-88.82-137.28Zm-80-102.79v-10c0-4.14,3.36-7.5,7.5-7.5h70c4.14,0,7.5,3.36,7.5,7.5v10c0,4.14-3.36,7.5-7.5,7.5H95.8c-4.14,0-7.5-3.36-7.5-7.5Zm18.8,109.07c.79-1.21,1.2-2.63,1.2-4.07v-82.5h45v82.5c0,1.45,.42,2.86,1.2,4.07l36.35,56.18c-17.75,.03-37.14,2.45-57.86,7.24-31.16,7.21-52.86,4.72-67.03,.16l41.14-63.58Zm137.92,151.9c-2.22,4.09-6.33,6.53-10.98,6.53H27.56c-4.65,0-8.76-2.44-10.98-6.53s-2.04-8.86,.49-12.76l40.5-62.59c9.53,3.54,22.34,6.39,38.82,6.39,11.49,0,24.78-1.39,39.98-4.91,23.59-5.46,45.21-7.67,64.35-6.6l43.81,67.71c2.53,3.91,2.71,8.68,.49,12.76Z"/>
    <path class="cls-2" d="M115.8,467h-10c-4.14,0-7.5,3.36-7.5,7.5s3.36,7.5,7.5,7.5h10c4.14,0,7.5-3.36,7.5-7.5s-3.36-7.5-7.5-7.5Z"/>
    <path class="cls-2" d="M155.8,467h-10c-4.14,0-7.5,3.36-7.5,7.5s3.36,7.5,7.5,7.5h10c4.14,0,7.5-3.36,7.5-7.5s-3.36-7.5-7.5-7.5Z"/>
  </g>
  <g>
    <path class="cls-1" d="M354.5,0h-2.11c-8.83,0-17.24,1.99-24.75,5.58-7.52-3.58-15.92-5.58-24.75-5.58h-70.5c-8.83,0-17.24,1.99-24.75,5.58-7.52-3.58-15.92-5.58-24.75-5.58h-2.11c-31.71,0-57.5,25.79-57.5,57.5v124.5h15V57.5c0-23.43,19.07-42.5,42.5-42.5h2.11c3.29,0,6.5,.37,9.59,1.08-9.36,9.02-15.69,21.24-17.23,35.07l-1.75,15.71c-1.08,9.7,2.04,19.43,8.55,26.7,6.51,7.27,15.84,11.44,25.6,11.44s19.09-4.17,25.6-11.44c6.51-7.27,9.62-17,8.55-26.7l-1.75-15.71c-1.54-13.83-7.87-26.04-17.23-35.07,3.09-.71,6.29-1.08,9.59-1.08h70.5c3.29,0,6.5,.37,9.59,1.08-9.36,9.02-15.69,21.24-17.23,35.07l-1.75,15.7c-1.08,9.7,2.04,19.43,8.54,26.7,6.51,7.27,15.84,11.44,25.6,11.44s19.09-4.17,25.6-11.44c6.51-7.27,9.62-17,8.54-26.7l-1.75-15.71c-1.54-13.83-7.87-26.04-17.23-35.07,3.09-.71,6.3-1.08,9.59-1.08h2.11c23.43,0,42.5,19.07,42.5,42.5v124.5h15V57.5c0-31.71-25.79-57.5-57.5-57.5ZM225.12,52.81l1.75,15.71c.62,5.54-1.09,10.89-4.81,15.04-3.72,4.16-8.84,6.45-14.42,6.45s-10.7-2.29-14.42-6.45c-3.72-4.16-5.43-9.5-4.81-15.04l1.75-15.71c1.38-12.41,7.99-23.07,17.49-29.87,9.5,6.8,16.11,17.46,17.49,29.87Zm120,0l1.75,15.71c.62,5.54-1.09,10.89-4.81,15.04-3.72,4.16-8.84,6.45-14.42,6.45s-10.7-2.29-14.42-6.45-5.43-9.5-4.81-15.04l1.75-15.71c1.38-12.41,7.99-23.07,17.49-29.87,9.5,6.8,16.11,17.46,17.49,29.87Z"/>
    <path class="cls-1" d="M271.83,99.78c-2.54-1.71-5.86-1.71-8.39,0-16,10.8-29.38,26.16-38.7,44.41-9.55,18.7-14.6,40.08-14.6,61.81s5.05,43.11,14.6,61.81c5.49,10.74,12.39,20.47,20.4,28.87v-90.68c0-12.41,10.09-22.5,22.5-22.5s22.5,10.09,22.5,22.5v90.68c8.01-8.4,14.91-18.13,20.4-28.87,9.55-18.7,14.6-40.08,14.6-61.81s-5.05-43.11-14.6-61.81c-9.32-18.25-22.71-33.61-38.7-44.41Z"/>
    <path class="cls-1" d="M267.63,198.5c-4.14,0-7.5,3.36-7.5,7.5v150c0,4.14,3.36,7.5,7.5,7.5s7.5-3.36,7.5-7.5V206c0-4.14-3.36-7.5-7.5-7.5Z"/>
  </g>
</svg>