<?xml version="1.0" encoding="UTF-8"?>
<svg id="OBJECT" xmlns="http://www.w3.org/2000/svg" viewBox="0 0 512 512">
  <defs>
    <style>
      .cls-1 {
        fill: #FD4360;
      }

      .cls-2 {
        fill: #dadada;
      }
    </style>
  </defs>
  <path class="cls-2" d="M489.5,197H96.92L491.95,91.15c5.81-1.56,10.66-5.28,13.66-10.48,3-5.21,3.8-11.27,2.25-17.07l-15.55-58.04c-.51-1.92-1.77-3.56-3.49-4.55-1.72-.99-3.77-1.26-5.69-.75L93.2,104.73c-3.95-10.36-13.98-17.73-25.7-17.73H27.5c-15.16,0-27.5,12.34-27.5,27.5V504.5c0,4.14,3.36,7.5,7.5,7.5H504.5c4.14,0,7.5-3.36,7.5-7.5V219.5c0-12.41-10.09-22.5-22.5-22.5Zm7.5,22.5v57.5h-60.36l32.5-65h20.36c4.14,0,7.5,3.36,7.5,7.5Zm-417-22.5H15v-35H80v35ZM15,277v-65h60.36l-32.5,65H15Zm77.14-65h77.48l-32.5,65H59.64l32.5-65Zm94.25,0h77.48l-32.5,65h-77.48l32.5-65Zm94.25,0h77.48l-32.5,65h-77.48l32.5-65Zm94.25,0h77.48l-32.5,65h-77.48l32.5-65ZM455.22,23.26l24.54-6.58,13.61,50.79c.52,1.94,.25,3.96-.75,5.69s-2.62,2.98-4.55,3.49l-46.31,12.41,13.47-65.81Zm-85.44,22.89l69.25-18.55-13.47,65.81-69.25,18.55,13.47-65.81Zm-85.44,22.89l69.25-18.55-13.47,65.81-69.25,18.55,13.47-65.81Zm-85.44,22.89l69.25-18.55-13.47,65.81-69.25,18.55,13.47-65.81Zm-29.67,70.15l-74.22,19.89v-62.2l87.69-23.5-13.47,65.81ZM27.5,102h40c6.89,0,12.5,5.61,12.5,12.5v32.5H15v-32.5c0-6.89,5.61-12.5,12.5-12.5ZM15,497v-205H497v205H15Z"/>
  <g>
    <rect class="cls-1" x="160" y="362" width="35" height="65" rx="7.5" ry="7.5"/>
    <path class="cls-1" d="M307.5,312H57.5c-12.41,0-22.5,10.09-22.5,22.5v120c0,12.41,10.09,22.5,22.5,22.5h250c12.41,0,22.5-10.09,22.5-22.5v-120c0-12.41-10.09-22.5-22.5-22.5Zm-175,130h-50c-4.14,0-7.5-3.36-7.5-7.5s3.36-7.5,7.5-7.5h17.5v-61.42l-14.71,5.89c-3.84,1.54-8.21-.33-9.75-4.18-1.54-3.85,.33-8.21,4.18-9.75l25-10c2.31-.92,4.93-.64,6.99,.75,2.06,1.4,3.29,3.72,3.29,6.21v72.5h17.5c4.14,0,7.5,3.36,7.5,7.5s-3.36,7.5-7.5,7.5Zm77.5-22.5c0,12.41-10.09,22.5-22.5,22.5h-20c-12.41,0-22.5-10.09-22.5-22.5v-50c0-12.41,10.09-22.5,22.5-22.5h20c12.41,0,22.5,10.09,22.5,22.5v50Zm72.5,22.5h-50c-4.14,0-7.5-3.36-7.5-7.5s3.36-7.5,7.5-7.5h17.5v-61.42l-14.71,5.89c-3.84,1.54-8.21-.33-9.75-4.18s.33-8.21,4.18-9.75l25-10c2.31-.92,4.93-.64,6.99,.75,2.06,1.4,3.29,3.72,3.29,6.21v72.5h17.5c4.14,0,7.5,3.36,7.5,7.5s-3.36,7.5-7.5,7.5Z"/>
    <path class="cls-1" d="M454.5,312h-77c-12.41,0-22.5,10.09-22.5,22.5v120c0,12.41,10.09,22.5,22.5,22.5h77c12.41,0,22.5-10.09,22.5-22.5v-120c0-12.41-10.09-22.5-22.5-22.5Zm-13.5,130h-50c-4.14,0-7.5-3.36-7.5-7.5s3.36-7.5,7.5-7.5h50c4.14,0,7.5,3.36,7.5,7.5s-3.36,7.5-7.5,7.5Zm0-40h-50c-4.14,0-7.5-3.36-7.5-7.5s3.36-7.5,7.5-7.5h50c4.14,0,7.5,3.36,7.5,7.5s-3.36,7.5-7.5,7.5Zm0-40h-50c-4.14,0-7.5-3.36-7.5-7.5s3.36-7.5,7.5-7.5h50c4.14,0,7.5,3.36,7.5,7.5s-3.36,7.5-7.5,7.5Z"/>
  </g>
</svg>