<?xml version="1.0" encoding="UTF-8"?>
<svg id="OBJECT" xmlns="http://www.w3.org/2000/svg" viewBox="0 0 32 32">
  <defs>
    <style>
      .cls-1 {
        fill: #FD4360;
      }

      .cls-1, .cls-2 {
        stroke-width: 0px;
      }

      .cls-2 {
        fill: #dadada;
      }
    </style>
  </defs>
  <g>
    <path class="cls-2" d="m30.37,20.59c.41-.52.63-1.16.63-1.82v-5.38c0-.29-.04-.57-.12-.84l-1.96-6.56c-.41-1.38-1.79-2.22-3.21-1.94-1.5.29-2.49,1.75-2.21,3.25l.98,5.29-2.66,2.54c-.58.55-.91,1.33-.91,2.13v2.52c0,.59.17,1.16.5,1.65l.69,1.03v1.74c-1.1.25-1.92,1.23-1.92,2.4v3.41c0,.55.45,1,1,1h8.76c.55,0,1-.45,1-1v-3.41c0-1.26-.95-2.29-2.17-2.43v-1.53l1.6-2.04Zm-1.43,6v2.41h-6.76v-2.41c0-.25.21-.46.46-.46h5.84c.25,0,.46.21.46.46Zm-1.96-4.93c-.14.18-.21.39-.21.62v1.85h-2.67v-1.98c0-.2-.06-.39-.17-.56l-.86-1.28c-.11-.16-.16-.34-.16-.53v-2.52c0-.26.11-.51.29-.69l2.04-1.94.23.51c.21.46.19,1-.05,1.44l-.43.77c-.27.48-.09,1.09.39,1.36.15.08.32.12.48.12.35,0,.7-.19.88-.52l.43-.77c.55-.99.59-2.2.12-3.24l-.76-1.67-1.05-5.7c-.08-.43.2-.84.63-.92.41-.08.79.16.91.55l1.96,6.56c.03.09.04.18.04.27v5.38c0,.21-.07.42-.2.58l-1.82,2.31Z"/>
    <path class="cls-2" d="m9.9,24.2v-1.74l.69-1.03c.33-.49.5-1.06.5-1.65v-2.52c0-.8-.33-1.58-.91-2.13l-2.66-2.54.98-5.29c.28-1.5-.71-2.96-2.21-3.25-1.41-.28-2.79.56-3.21,1.94l-1.96,6.56c-.08.27-.12.56-.12.84v5.38c0,.66.22,1.31.63,1.82l1.6,2.04v1.53c-1.22.14-2.17,1.17-2.17,2.43v3.41c0,.55.45,1,1,1h8.76c.55,0,1-.45,1-1v-3.41c0-1.17-.82-2.15-1.92-2.4Zm-6.7-4.84c-.13-.17-.2-.37-.2-.58v-5.38c0-.09.01-.18.04-.27l1.96-6.56c.12-.39.5-.63.91-.55.42.08.71.5.63.92l-1.05,5.7-.76,1.67c-.47,1.03-.43,2.24.12,3.24l.43.77c.18.33.52.52.88.52.16,0,.33-.04.48-.12.48-.27.66-.87.39-1.36l-.43-.77c-.24-.44-.26-.98-.05-1.44l.23-.51,2.04,1.94c.19.18.29.43.29.69v2.52c0,.19-.06.37-.16.53l-.86,1.28c-.11.17-.17.36-.17.56v1.98h-2.67v-1.85c0-.22-.08-.44-.21-.62l-1.82-2.31Zm6.62,9.65H3.06v-2.41c0-.25.21-.46.46-.46h5.84c.25,0,.46.21.46.46v2.41Z"/>
  </g>
  <g>
    <path class="cls-1" d="m20.46,7.01c-.82,1.65-2.5,2.79-4.46,2.79s-3.65-1.15-4.46-2.79c-.95,1.06-1.54,2.46-1.54,3.99v1c0,1.65,1.35,3,3,3h6c1.65,0,3-1.35,3-3v-1c0-1.53-.58-2.93-1.54-3.99Z"/>
    <path class="cls-1" d="m16,7.8c1.65,0,3-1.35,3-3v-1.2c0-1.43-1.17-2.6-2.6-2.6h-.8c-1.43,0-2.6,1.17-2.6,2.6v1.2c0,1.65,1.35,3,3,3Z"/>
  </g>
</svg>