<?xml version="1.0" encoding="UTF-8"?>
<svg id="OBJECT" xmlns="http://www.w3.org/2000/svg" viewBox="0 0 32 32">
  <defs>
    <style>
      .cls-1 {
        fill: #FD4360;
      }

      .cls-1, .cls-2 {
        stroke-width: 0px;
      }

      .cls-2 {
        fill: #dadada;
      }
    </style>
  </defs>
  <path class="cls-2" d="m13.94,19.57c.03-.19.06-.38.06-.57v-3c0-1.65-1.35-3-3-3h-2c-1.65,0-3,1.35-3,3v3c0,.2.03.39.06.57-3.02,1.19-5.06,4.11-5.06,7.43v1.5c0,1.38,1.12,2.5,2.5,2.5h13c1.38,0,2.5-1.12,2.5-2.5v-1.5c0-3.31-2.04-6.23-5.06-7.43Zm-5.94-3.57c0-.55.45-1,1-1h2c.55,0,1,.45,1,1v3c0,1.1-.9,2-2,2s-2-.9-2-2v-3Zm9,12.5c0,.28-.22.5-.5.5h-1.5v-2c0-.55-.45-1-1-1s-1,.45-1,1v2h-6v-2c0-.55-.45-1-1-1s-1,.45-1,1v2h-1.5c-.28,0-.5-.22-.5-.5v-1.5c0-2.5,1.55-4.69,3.84-5.57.73.95,1.87,1.57,3.16,1.57s2.43-.62,3.16-1.57c2.29.88,3.84,3.07,3.84,5.57v1.5Z"/>
  <path class="cls-1" d="m28,1h-12.46c-1.65,0-3,1.35-3,3v6.54c0,1.65,1.35,3,3,3h5.08c.55,0,1,.45,1,1s-.45,1-1,1h-1.51l.04.06c.59.88,1.57,1.41,2.63,1.41s2.04-.53,2.63-1.41l1.37-2.06h2.23c1.65,0,3-1.35,3-3v-6.54c0-1.65-1.35-3-3-3Zm-10.73,3.52h.5c.55,0,1,.45,1,1s-.45,1-1,1h-.5c-.55,0-1-.45-1-1s.45-1,1-1Zm9,5.5h-9c-.55,0-1-.45-1-1s.45-1,1-1h9c.55,0,1,.45,1,1s-.45,1-1,1Zm0-3.5h-5c-.55,0-1-.45-1-1s.45-1,1-1h5c.55,0,1,.45,1,1s-.45,1-1,1Z"/>
</svg>