<?xml version="1.0" encoding="UTF-8"?>
<svg id="OBJECT" xmlns="http://www.w3.org/2000/svg" viewBox="0 0 32 32">
  <defs>
    <style>
      .cls-1 {
        fill: #FD4360;
      }

      .cls-1, .cls-2 {
        stroke-width: 0px;
      }

      .cls-2 {
        fill: #dadada;
      }
    </style>
  </defs>
  <path class="cls-2" d="m28,31H4c-1.65,0-3-1.35-3-3V4c0-1.65,1.35-3,3-3h24c1.65,0,3,1.35,3,3v24c0,1.65-1.35,3-3,3ZM4,3c-.55,0-1,.45-1,1v24c0,.55.45,1,1,1h24c.55,0,1-.45,1-1V4c0-.55-.45-1-1-1H4Z"/>
  <g>
    <path class="cls-1" d="m26.5,4.5H5.5c-.55,0-1,.45-1,1v21c0,.55.45,1,1,1h21c.55,0,1-.45,1-1V5.5c0-.55-.45-1-1-1Zm-3.29,18.71c-.2.2-.45.29-.71.29s-.51-.1-.71-.29l-4.14-4.14c-.49.27-1.05.43-1.65.43-1.93,0-3.5-1.57-3.5-3.5,0-1.58,1.06-2.9,2.5-3.34v-2.77c0-.55.45-1,1-1s1,.45,1,1v2.77c1.44.43,2.5,1.76,2.5,3.34,0,.6-.17,1.16-.43,1.65l4.14,4.14c.39.39.39,1.02,0,1.41Z"/>
    <circle class="cls-1" cx="16" cy="16" r="1.5"/>
  </g>
</svg>