<?xml version="1.0" encoding="UTF-8"?>
<svg id="OBJECT" xmlns="http://www.w3.org/2000/svg" viewBox="0 0 32 32">
  <defs>
    <style>
      .cls-1 {
        fill: #FD4360;
      }

      .cls-1, .cls-2 {
        stroke-width: 0px;
      }

      .cls-2 {
        fill: #dadada;
      }
    </style>
  </defs>
  <g>
    <path class="cls-2" d="m13.5,4.5c-4.96,0-9,4.04-9,9,0,3.9,2.49,7.34,6.19,8.55.1.03.21.05.31.05.42,0,.81-.27.95-.69.17-.52-.11-1.09-.64-1.26-2.88-.94-4.81-3.62-4.81-6.65,0-3.86,3.14-7,7-7s7,3.14,7,7c0,.76-.12,1.49-.36,2.17-.18.52.1,1.09.62,1.27.52.18,1.09-.1,1.27-.62.31-.89.46-1.84.46-2.83,0-4.96-4.04-9-9-9Z"/>
    <path class="cls-2" d="m13.5,1C6.61,1,1,6.61,1,13.5c0,5.82,4.11,10.95,9.78,12.21.07.02.15.02.22.02.46,0,.87-.32.98-.78.12-.54-.22-1.07-.76-1.19-4.76-1.05-8.22-5.37-8.22-10.25C3,7.71,7.71,3,13.5,3s10.5,4.71,10.5,10.5c0,.82-.1,1.64-.29,2.42-.13.54.2,1.08.73,1.21.54.14,1.08-.2,1.21-.73.23-.94.35-1.92.35-2.9,0-6.89-5.61-12.5-12.5-12.5Z"/>
    <path class="cls-2" d="m14.5,13.09v-3.59c0-.55-.45-1-1-1s-1,.45-1,1v4c0,.27.11.52.29.71l2,2c.2.2.45.29.71.29s.51-.1.71-.29c.39-.39.39-1.02,0-1.41l-1.71-1.71Z"/>
  </g>
  <path class="cls-1" d="m25,18h-11c-.55,0-1,.45-1,1v11c0,.55.45,1,1,1h11c.55,0,1-.45,1-1v-11c0-.55-.45-1-1-1Zm-7.75,9.5h-.5c-.55,0-1-.45-1-1s.45-1,1-1h.5c.55,0,1,.45,1,1s-.45,1-1,1Zm0-4h-.5c-.55,0-1-.45-1-1s.45-1,1-1h.5c.55,0,1,.45,1,1s-.45,1-1,1Z"/>
  <path class="cls-1" d="m30.56,18.17c-.28-.19-.63-.22-.93-.1l-1.63.65v11.55l1.63.65c.12.05.25.07.37.07.2,0,.39-.06.56-.17.27-.19.44-.5.44-.83v-11c0-.33-.17-.64-.44-.83Z"/>
</svg>