<?xml version="1.0" encoding="UTF-8"?>
<svg id="OBJECT" xmlns="http://www.w3.org/2000/svg" viewBox="0 0 32 32">
  <defs>
    <style>
      .cls-1 {
        fill: #FD4360;
      }

      .cls-1, .cls-2 {
        stroke-width: 0px;
      }

      .cls-2 {
        fill: #dadada;
      }
    </style>
  </defs>
  <g>
    <path class="cls-2" d="m30.94,15.65c-2.35-6.37-8.36-10.65-14.94-10.65S3.41,9.28,1.06,15.65c-.08.22-.08.47,0,.69,2.12,5.75,7.1,9.79,12.99,10.53.04,0,.08,0,.12,0,.5,0,.93-.37.99-.88.07-.55-.32-1.05-.87-1.12-5.03-.63-9.3-4.02-11.23-8.89,2.15-5.4,7.3-9,12.93-9s11,3.76,13.06,9.35c.19.52.77.78,1.29.59.52-.19.78-.77.59-1.29Z"/>
    <path class="cls-2" d="m22.34,13.24c-1.78-.56-3.14-1.97-3.64-3.76-.09-.34-.36-.6-.7-.7-.67-.18-1.34-.28-2-.28-4.14,0-7.5,3.36-7.5,7.5,0,3.31,2.21,6.27,5.38,7.2.09.03.19.04.28.04.43,0,.83-.28.96-.72.16-.53-.15-1.09-.68-1.24-2.32-.68-3.94-2.85-3.94-5.28,0-3.35,3.02-6.03,6.46-5.41.8,2.17,2.54,3.85,4.77,4.56.53.17,1.09-.12,1.26-.65.17-.53-.12-1.09-.65-1.26Z"/>
    <path class="cls-2" d="m16,4c.55,0,1-.45,1-1v-1c0-.55-.45-1-1-1s-1,.45-1,1v1c0,.55.45,1,1,1Z"/>
    <path class="cls-2" d="m8.37,4.3c.14.42.53.68.95.68.1,0,.21-.02.32-.05.52-.17.81-.74.63-1.26l-.32-.97c-.17-.52-.74-.81-1.26-.63-.52.17-.81.74-.63,1.26l.32.97Z"/>
    <path class="cls-2" d="m22.36,4.93c.11.04.21.05.32.05.42,0,.81-.26.95-.68l.32-.97c.17-.52-.11-1.09-.63-1.26-.53-.18-1.09.11-1.26.63l-.32.97c-.17.52.11,1.09.63,1.26Z"/>
  </g>
  <path class="cls-1" d="m24,17c-3.86,0-7,3.14-7,7s3.14,7,7,7,7-3.14,7-7-3.14-7-7-7Zm2.71,8.29c.39.39.39,1.02,0,1.41-.2.2-.45.29-.71.29s-.51-.1-.71-.29l-1.29-1.29-1.29,1.29c-.2.2-.45.29-.71.29s-.51-.1-.71-.29c-.39-.39-.39-1.02,0-1.41l1.29-1.29-1.29-1.29c-.39-.39-.39-1.02,0-1.41s1.02-.39,1.41,0l1.29,1.29,1.29-1.29c.39-.39,1.02-.39,1.41,0s.39,1.02,0,1.41l-1.29,1.29,1.29,1.29Z"/>
</svg>