<?xml version="1.0" encoding="UTF-8"?>
<svg id="OBJECT" xmlns="http://www.w3.org/2000/svg" viewBox="0 0 32 32">
  <defs>
    <style>
      .cls-1 {
        fill: #FD4360;
      }

      .cls-1, .cls-2 {
        stroke-width: 0px;
      }

      .cls-2 {
        fill: #dadada;
      }
    </style>
  </defs>
  <g>
    <path class="cls-2" d="m27.5,10h-1.5c0-2.48-2.02-4.5-4.5-4.5-.1,0-.2,0-.31.01-1.42-2.93-4.52-4.74-7.82-4.49-3.69.28-6.83,3.27-7.31,6.95-.09.68-.08,1.35,0,2.02h-1.57c-1.93,0-3.5,1.57-3.5,3.5s1.57,3.5,3.5,3.5h23c1.93,0,3.5-1.57,3.5-3.5s-1.57-3.5-3.5-3.5Zm0,5H4.5c-.83,0-1.5-.67-1.5-1.5s.67-1.5,1.5-1.5h11.34c.55,0,1-.45,1-1s-.45-1-1-1h-7.75c-.1-.58-.12-1.18-.04-1.77.36-2.76,2.71-5,5.48-5.21,2.68-.2,5.21,1.42,6.12,3.96.18.49.7.77,1.2.63.26-.07.46-.1.66-.1,1.38,0,2.5,1.12,2.5,2.5,0,.21-.04.44-.12.71h.01c-.03.1-.06.19-.06.29,0,.55.45,1,1,1h2.66c.83,0,1.5.67,1.5,1.5s-.67,1.5-1.5,1.5Z"/>
    <path class="cls-2" d="m19.84,10h-.5c-.55,0-1,.45-1,1s.45,1,1,1h.5c.55,0,1-.45,1-1s-.45-1-1-1Z"/>
  </g>
  <g>
    <path class="cls-1" d="m26,22c-.77,0-1.46.3-1.99.77l-1.99-1.08c-.32-.18-.52-.51-.52-.88v-1.81h-2v1.81c0,1.1.6,2.11,1.56,2.63l1.98,1.08c-.02.15-.05.31-.05.47,0,1.65,1.35,3,3,3s3-1.35,3-3-1.35-3-3-3Z"/>
    <path class="cls-1" d="m12.5,19h-2v1.81c0,.37-.2.7-.52.88l-1.99,1.08c-.53-.48-1.22-.77-1.99-.77-1.65,0-3,1.35-3,3s1.35,3,3,3,3-1.35,3-3c0-.16-.02-.32-.05-.47l1.98-1.08c.96-.53,1.56-1.54,1.56-2.63v-1.81Z"/>
    <path class="cls-1" d="m17,24.16v-5.16h-2v5.16c-1.44.43-2.5,1.76-2.5,3.34,0,1.93,1.57,3.5,3.5,3.5s3.5-1.57,3.5-3.5c0-1.58-1.06-2.9-2.5-3.34Z"/>
  </g>
</svg>