<?xml version="1.0" encoding="UTF-8"?>
<svg id="OBJECT" xmlns="http://www.w3.org/2000/svg" viewBox="0 0 512 512">
  <defs>
    <style>
      .cls-1 {
        fill: #FD4360;
      }

      .cls-2 {
        fill: #dadada;
      }
    </style>
  </defs>
  <g>
    <path class="cls-2" d="M137.85,155c-4.14,0-7.5,3.36-7.5,7.5v5c0,4.14,3.36,7.5,7.5,7.5s7.5-3.36,7.5-7.5v-5c0-4.14-3.36-7.5-7.5-7.5Z"/>
    <path class="cls-2" d="M374.15,155c-4.14,0-7.5,3.36-7.5,7.5v5c0,4.14,3.36,7.5,7.5,7.5s7.5-3.36,7.5-7.5v-5c0-4.14-3.36-7.5-7.5-7.5Z"/>
    <path class="cls-2" d="M256,40c-37.22,0-67.5,30.28-67.5,67.5s30.28,67.5,67.5,67.5,67.5-30.28,67.5-67.5-30.28-67.5-67.5-67.5Zm0,120c-28.95,0-52.5-23.55-52.5-52.5s23.55-52.5,52.5-52.5,52.5,23.55,52.5,52.5-23.55,52.5-52.5,52.5Z"/>
    <path class="cls-2" d="M371,220h-10c-9.65,0-17.5,7.85-17.5,17.5v40c0,9.65,7.85,17.5,17.5,17.5h10c9.65,0,17.5-7.85,17.5-17.5v-40c0-9.65-7.85-17.5-17.5-17.5Zm2.5,57.5c0,1.38-1.12,2.5-2.5,2.5h-10c-1.38,0-2.5-1.12-2.5-2.5v-40c0-1.38,1.12-2.5,2.5-2.5h10c1.38,0,2.5,1.12,2.5,2.5v40Z"/>
    <path class="cls-2" d="M311,220H141c-9.65,0-17.5,7.85-17.5,17.5v40c0,9.65,7.85,17.5,17.5,17.5h170c9.65,0,17.5-7.85,17.5-17.5v-40c0-9.65-7.85-17.5-17.5-17.5Zm2.5,57.5c0,1.38-1.12,2.5-2.5,2.5H141c-1.38,0-2.5-1.12-2.5-2.5v-40c0-1.38,1.12-2.5,2.5-2.5h170c1.38,0,2.5,1.12,2.5,2.5v40Z"/>
    <path class="cls-2" d="M291,250h-100c-4.14,0-7.5,3.36-7.5,7.5s3.36,7.5,7.5,7.5h100c4.14,0,7.5-3.36,7.5-7.5s-3.36-7.5-7.5-7.5Z"/>
    <path class="cls-2" d="M166,250h-5c-4.14,0-7.5,3.36-7.5,7.5s3.36,7.5,7.5,7.5h5c4.14,0,7.5-3.36,7.5-7.5s-3.36-7.5-7.5-7.5Z"/>
    <path class="cls-2" d="M256,75.34c-13.34,0-25.87,5.19-35.3,14.62-2.93,2.93-2.93,7.68,0,10.61,2.93,2.93,7.68,2.93,10.61,0,6.6-6.6,15.37-10.23,24.7-10.23s18.1,3.63,24.7,10.23c1.46,1.46,3.38,2.2,5.3,2.2s3.84-.73,5.3-2.2c2.93-2.93,2.93-7.68,0-10.61-9.43-9.43-21.97-14.62-35.3-14.62Z"/>
    <path class="cls-2" d="M256,100c-7.67,0-14.88,2.99-20.3,8.41-2.93,2.93-2.93,7.68,0,10.61,2.93,2.93,7.68,2.93,10.61,0,2.59-2.59,6.03-4.02,9.7-4.02s7.11,1.43,9.7,4.02c1.46,1.46,3.38,2.2,5.3,2.2s3.84-.73,5.3-2.2c2.93-2.93,2.93-7.68,0-10.61-5.42-5.42-12.63-8.41-20.3-8.41Z"/>
    <path class="cls-2" d="M258.5,124.66h-5c-4.14,0-7.5,3.36-7.5,7.5s3.36,7.5,7.5,7.5h5c4.14,0,7.5-3.36,7.5-7.5s-3.36-7.5-7.5-7.5Z"/>
    <path class="cls-2" d="M466.96,170.06c.03-.86,.04-1.72,.04-2.56,0-45.49-37.01-82.5-82.5-82.5-1.72,0-3.48,.06-5.24,.18C359.97,33.99,311.19,0,256,0s-103.97,33.99-123.26,85.18c-1.76-.12-3.51-.18-5.24-.18-45.49,0-82.5,37.01-82.5,82.5,0,.85,.01,1.7,.04,2.56C19.99,171.35,0,192.13,0,217.5s21.31,47.5,47.5,47.5h41v37.5c0,12.41,10.09,22.5,22.5,22.5H401c12.41,0,22.5-10.09,22.5-22.5v-37.5h41c26.19,0,47.5-21.31,47.5-47.5s-19.99-46.15-45.04-47.44Zm-58.46,132.44c0,4.14-3.36,7.5-7.5,7.5H111c-4.14,0-7.5-3.36-7.5-7.5v-90c0-4.14,3.36-7.5,7.5-7.5H401c4.14,0,7.5,3.36,7.5,7.5v90Zm56-52.5h-41v-37.5c0-12.41-10.09-22.5-22.5-22.5H111c-12.41,0-22.5,10.09-22.5,22.5v37.5H47.5c-17.92,0-32.5-14.58-32.5-32.5s14.58-32.5,32.5-32.5h5.68c2.16,0,4.22-.93,5.64-2.56,1.42-1.63,2.08-3.79,1.79-5.93-.41-3.07-.62-6.1-.62-9.01,0-37.22,30.28-67.5,67.5-67.5,.94,0,1.89,.03,2.85,.07v37.43c0,4.14,3.36,7.5,7.5,7.5s7.5-3.36,7.5-7.5v-43.06c16.02-47.56,60.34-79.44,110.65-79.44s94.63,31.88,110.65,79.44v43.06c0,4.14,3.36,7.5,7.5,7.5s7.5-3.36,7.5-7.5v-37.43c.96-.04,1.91-.07,2.85-.07,37.22,0,67.5,30.28,67.5,67.5,0,2.9-.21,5.93-.62,9.01-.29,2.14,.37,4.31,1.79,5.93,1.42,1.63,3.48,2.56,5.64,2.56h5.68c17.92,0,32.5,14.58,32.5,32.5s-14.58,32.5-32.5,32.5Z"/>
  </g>
  <g>
    <path class="cls-1" d="M241,412.04h30c4.14,0,7.5-3.36,7.5-7.5s-3.36-7.5-7.5-7.5h-30c-4.14,0-7.5,3.36-7.5,7.5s3.36,7.5,7.5,7.5Z"/>
    <circle class="cls-1" cx="256" cy="469.5" r="42.5"/>
    <circle class="cls-1" cx="406" cy="419.5" r="32.5"/>
    <circle class="cls-1" cx="106" cy="419.5" r="32.5"/>
    <path class="cls-1" d="M241,382.04h30c4.14,0,7.5-3.36,7.5-7.5v-34.54h-45v34.54c0,4.14,3.36,7.5,7.5,7.5Z"/>
    <path class="cls-1" d="M355.62,401.23l-31.17-6.56c-3.45-.73-5.95-3.81-5.95-7.34v-47.33h-15v47.33c0,10.58,7.51,19.84,17.86,22.02l31.17,6.56c.52,.11,1.04,.16,1.55,.16,3.47,0,6.59-2.42,7.33-5.96,.85-4.05-1.74-8.03-5.79-8.88Z"/>
    <path class="cls-1" d="M193.5,387.33c0,3.53-2.5,6.61-5.95,7.34l-31.17,6.56c-4.05,.85-6.65,4.83-5.79,8.88,.74,3.53,3.86,5.96,7.33,5.96,.51,0,1.03-.05,1.55-.16l31.17-6.56c10.35-2.18,17.86-11.44,17.86-22.02v-47.33h-15v47.33Z"/>
  </g>
</svg>