<?xml version="1.0" encoding="UTF-8"?>
<svg id="OBJECT" xmlns="http://www.w3.org/2000/svg" viewBox="0 0 32 32">
  <defs>
    <style>
      .cls-1 {
        fill: #FD4360;
      }

      .cls-1, .cls-2 {
        stroke-width: 0px;
      }

      .cls-2 {
        fill: #dadada;
      }
    </style>
  </defs>
  <g>
    <path class="cls-2" d="m22.5,11h-13c-1.1,0-2,.9-2,2v16c0,1.1.9,2,2,2h8c.27,0,.52-.11.71-.29l6-6c.19-.19.29-.44.29-.71v-11c0-1.1-.9-2-2-2Zm-13,2h13s0,10,0,10h-3.5c-1.38,0-2.5,1.12-2.5,2.5v3.5h-7V13Zm11.59,12l-2.59,2.59v-2.09c0-.28.22-.5.5-.5h2.09Z"/>
    <path class="cls-2" d="m11.5,17h9c.55,0,1-.45,1-1s-.45-1-1-1h-9c-.55,0-1,.45-1,1s.45,1,1,1Z"/>
    <path class="cls-2" d="m11.5,21h9c.55,0,1-.45,1-1s-.45-1-1-1h-9c-.55,0-1,.45-1,1s.45,1,1,1Z"/>
    <path class="cls-2" d="m13.5,23h-2c-.55,0-1,.45-1,1s.45,1,1,1h2c.55,0,1-.45,1-1s-.45-1-1-1Z"/>
  </g>
  <path class="cls-1" d="m28.5,11.14s0-.1,0-.14c0-2.01-1.5-3.66-3.43-3.94h-5.98c-.55,0-1-.45-1-1s.45-1,1-1h4.73c-1.56-2.43-4.51-4.06-7.82-4.06-4.12,0-7.7,2.53-8.71,6-2.11.11-3.79,1.86-3.79,4,0,.05,0,.1,0,.14-1.45.43-2.5,1.77-2.5,3.36,0,1.93,1.57,3.5,3.5,3.5h1v-5c0-2.21,1.79-4,4-4h13c2.21,0,4,1.79,4,4v5h1c1.93,0,3.5-1.57,3.5-3.5,0-1.58-1.06-2.92-2.5-3.36Zm-12.75-4.09h-.5c-.55,0-1-.45-1-1s.45-1,1-1h.5c.55,0,1,.45,1,1s-.45,1-1,1Z"/>
</svg>