<?xml version="1.0" encoding="UTF-8"?>
<svg id="OBJECT" xmlns="http://www.w3.org/2000/svg" viewBox="0 0 512 512">
  <defs>
    <style>
      .cls-1 {
        fill: #FD4360;
      }

      .cls-2 {
        fill: #dadada;
      }
    </style>
  </defs>
  <g>
    <path class="cls-2" d="M206,462c-4.14,0-7.5,3.36-7.5,7.5v10c0,4.14,3.36,7.5,7.5,7.5s7.5-3.36,7.5-7.5v-10c0-4.14-3.36-7.5-7.5-7.5Z"/>
    <path class="cls-2" d="M239.33,462c-4.14,0-7.5,3.36-7.5,7.5v10c0,4.14,3.36,7.5,7.5,7.5s7.5-3.36,7.5-7.5v-10c0-4.14-3.36-7.5-7.5-7.5Z"/>
    <path class="cls-2" d="M272.67,462c-4.14,0-7.5,3.36-7.5,7.5v10c0,4.14,3.36,7.5,7.5,7.5s7.5-3.36,7.5-7.5v-10c0-4.14-3.36-7.5-7.5-7.5Z"/>
    <path class="cls-2" d="M306,462c-4.14,0-7.5,3.36-7.5,7.5v10c0,4.14,3.36,7.5,7.5,7.5s7.5-3.36,7.5-7.5v-10c0-4.14-3.36-7.5-7.5-7.5Z"/>
    <path class="cls-2" d="M431,467h-72.5v-7.5c0-12.41-10.09-22.5-22.5-22.5h-27.5v-59.5c0-4.14-3.36-7.5-7.5-7.5s-7.5,3.36-7.5,7.5v59.5h-15v-59.5c0-4.14-3.36-7.5-7.5-7.5s-7.5,3.36-7.5,7.5v59.5h-15v-59.5c0-4.14-3.36-7.5-7.5-7.5s-7.5,3.36-7.5,7.5v59.5h-15v-59.5c0-4.14-3.36-7.5-7.5-7.5s-7.5,3.36-7.5,7.5v59.5h-27.5c-12.41,0-22.5,10.09-22.5,22.5v7.5H81c-4.14,0-7.5,3.36-7.5,7.5s3.36,7.5,7.5,7.5h72.5v7.5c0,12.41,10.09,22.5,22.5,22.5h160c12.41,0,22.5-10.09,22.5-22.5v-7.5h72.5c4.14,0,7.5-3.36,7.5-7.5s-3.36-7.5-7.5-7.5Zm-87.5,22.5c0,4.14-3.36,7.5-7.5,7.5H176c-4.14,0-7.5-3.36-7.5-7.5v-30c0-4.14,3.36-7.5,7.5-7.5h160c4.14,0,7.5,3.36,7.5,7.5v30Z"/>
    <path class="cls-2" d="M461,467h-5c-4.14,0-7.5,3.36-7.5,7.5s3.36,7.5,7.5,7.5h5c4.14,0,7.5-3.36,7.5-7.5s-3.36-7.5-7.5-7.5Z"/>
    <path class="cls-2" d="M56,467h-5c-4.14,0-7.5,3.36-7.5,7.5s3.36,7.5,7.5,7.5h5c4.14,0,7.5-3.36,7.5-7.5s-3.36-7.5-7.5-7.5Z"/>
    <path class="cls-2" d="M472,172.5c0-15.16-12.34-27.5-27.5-27.5s-27.5,12.34-27.5,27.5,12.34,27.5,27.5,27.5,27.5-12.34,27.5-27.5Zm-40,0c0-6.89,5.61-12.5,12.5-12.5s12.5,5.61,12.5,12.5-5.61,12.5-12.5,12.5-12.5-5.61-12.5-12.5Z"/>
    <path class="cls-2" d="M67.5,145c-15.16,0-27.5,12.34-27.5,27.5s12.34,27.5,27.5,27.5,27.5-12.34,27.5-27.5-12.34-27.5-27.5-27.5Zm0,40c-6.89,0-12.5-5.61-12.5-12.5s5.61-12.5,12.5-12.5,12.5,5.61,12.5,12.5-5.61,12.5-12.5,12.5Z"/>
    <path class="cls-2" d="M449.5,110h-21.41c-3.74-33.7-32.4-60-67.09-60-2.82,0-5.65,.18-8.45,.53C330.55,18.8,294.82,0,256,0s-74.55,18.8-96.55,50.53c-2.8-.35-5.62-.53-8.45-.53-34.68,0-63.34,26.3-67.09,60h-21.41C28.04,110,0,138.04,0,172.5s28.04,62.5,62.5,62.5h63.5c4.14,0,7.5-3.36,7.5-7.5s-3.36-7.5-7.5-7.5H62.5c-26.19,0-47.5-21.31-47.5-47.5s21.31-47.5,47.5-47.5h53.5c4.14,0,7.5-3.36,7.5-7.5s-3.36-7.5-7.5-7.5h-16.96c3.65-25.41,25.55-45,51.96-45,3.54,0,7.08,.36,10.53,1.06,3.05,.62,6.16-.71,7.83-3.33,18.93-29.88,51.33-47.72,86.64-47.72s67.71,17.84,86.64,47.72c1.67,2.63,4.78,3.96,7.83,3.33,3.44-.7,6.98-1.06,10.53-1.06,26.4,0,48.3,19.59,51.96,45h-16.96c-4.14,0-7.5,3.36-7.5,7.5s3.36,7.5,7.5,7.5h53.5c26.19,0,47.5,21.31,47.5,47.5s-21.31,47.5-47.5,47.5h-63.5c-4.14,0-7.5,3.36-7.5,7.5s3.36,7.5,7.5,7.5h63.5c34.46,0,62.5-28.04,62.5-62.5s-28.04-62.5-62.5-62.5Z"/>
  </g>
  <g>
    <path class="cls-1" d="M259.3,117.13l134.15,65.67,.04-31.49c0-2.86-1.62-5.48-4.19-6.74l-129.92-63.8c-2.08-1.02-4.51-1.02-6.6,0l-130.08,63.48c-2.57,1.26-4.21,3.87-4.21,6.73l-.04,31.88L252.7,117.13c2.08-1.02,4.51-1.02,6.6,0Z"/>
    <rect class="cls-1" x="118.5" y="325" width="275" height="30" rx="10" ry="10"/>
    <path class="cls-1" d="M246,225c-12.41,0-22.5,10.09-22.5,22.5v62.5h65v-62.5c0-12.41-10.09-22.5-22.5-22.5h-20Z"/>
    <path class="cls-1" d="M363.5,310v-125.16l-107.5-52.62-107.5,52.62v125.16h60v-62.5c0-20.68,16.82-37.5,37.5-37.5h20c20.68,0,37.5,16.82,37.5,37.5v62.5h60Z"/>
  </g>
</svg>