<?xml version="1.0" encoding="UTF-8"?>
<svg id="OBJECT" xmlns="http://www.w3.org/2000/svg" viewBox="0 0 512 512">
  <defs>
    <style>
      .cls-1 {
        fill: #FD4360;
      }

      .cls-2 {
        fill: #dadada;
      }
    </style>
  </defs>
  <g>
    <path class="cls-2" d="M263.5,437.75v-49.61c0-4.14-3.36-7.5-7.5-7.5s-7.5,3.36-7.5,7.5v49.61c-17.1,3.48-30,18.64-30,36.75,0,20.68,16.82,37.5,37.5,37.5s37.5-16.82,37.5-37.5c0-18.11-12.9-33.26-30-36.75Zm-7.5,59.25c-12.41,0-22.5-10.09-22.5-22.5s10.09-22.5,22.5-22.5,22.5,10.09,22.5,22.5-10.09,22.5-22.5,22.5Z"/>
    <path class="cls-2" d="M391,397c-18.11,0-33.26,12.9-36.75,30h-18.25c-6.89,0-12.5-5.61-12.5-12.5v-36.36c0-4.14-3.36-7.5-7.5-7.5s-7.5,3.36-7.5,7.5v36.36c0,15.16,12.34,27.5,27.5,27.5h18.25c3.48,17.1,18.64,30,36.75,30,20.68,0,37.5-16.82,37.5-37.5s-16.82-37.5-37.5-37.5Zm0,60c-12.41,0-22.5-10.09-22.5-22.5s10.09-22.5,22.5-22.5,22.5,10.09,22.5,22.5-10.09,22.5-22.5,22.5Z"/>
    <path class="cls-2" d="M196,370.64c-4.14,0-7.5,3.36-7.5,7.5v36.36c0,6.89-5.61,12.5-12.5,12.5h-18.25c-3.48-17.1-18.64-30-36.75-30-20.68,0-37.5,16.82-37.5,37.5s16.82,37.5,37.5,37.5c18.11,0,33.26-12.9,36.75-30h18.25c15.16,0,27.5-12.34,27.5-27.5v-36.36c0-4.14-3.36-7.5-7.5-7.5Zm-75,86.36c-12.41,0-22.5-10.09-22.5-22.5s10.09-22.5,22.5-22.5,22.5,10.09,22.5,22.5-10.09,22.5-22.5,22.5Z"/>
    <path class="cls-2" d="M472,172.5c0-15.16-12.34-27.5-27.5-27.5s-27.5,12.34-27.5,27.5,12.34,27.5,27.5,27.5,27.5-12.34,27.5-27.5Zm-40,0c0-6.89,5.61-12.5,12.5-12.5s12.5,5.61,12.5,12.5-5.61,12.5-12.5,12.5-12.5-5.61-12.5-12.5Z"/>
    <path class="cls-2" d="M67.5,145c-15.16,0-27.5,12.34-27.5,27.5s12.34,27.5,27.5,27.5,27.5-12.34,27.5-27.5-12.34-27.5-27.5-27.5Zm0,40c-6.89,0-12.5-5.61-12.5-12.5s5.61-12.5,12.5-12.5,12.5,5.61,12.5,12.5-5.61,12.5-12.5,12.5Z"/>
    <path class="cls-2" d="M449.5,110h-21.41c-3.74-33.7-32.4-60-67.09-60-2.82,0-5.65,.18-8.45,.53C330.55,18.8,294.82,0,256,0s-74.55,18.8-96.55,50.53c-2.8-.35-5.62-.53-8.45-.53-34.68,0-63.34,26.3-67.09,60h-21.41C28.04,110,0,138.04,0,172.5s28.04,62.5,62.5,62.5h33.5c4.14,0,7.5-3.36,7.5-7.5s-3.36-7.5-7.5-7.5H62.5c-26.19,0-47.5-21.31-47.5-47.5s21.31-47.5,47.5-47.5h63.5c4.14,0,7.5-3.36,7.5-7.5s-3.36-7.5-7.5-7.5h-26.96c3.65-25.41,25.55-45,51.96-45,3.54,0,7.08,.36,10.53,1.06,3.05,.62,6.17-.71,7.83-3.33,18.93-29.88,51.33-47.72,86.64-47.72s67.71,17.84,86.64,47.72c1.67,2.63,4.78,3.96,7.83,3.33,3.44-.7,6.98-1.06,10.53-1.06,26.4,0,48.3,19.59,51.96,45h-26.96c-4.14,0-7.5,3.36-7.5,7.5s3.36,7.5,7.5,7.5h63.5c26.19,0,47.5,21.31,47.5,47.5s-21.31,47.5-47.5,47.5h-33.5c-4.14,0-7.5,3.36-7.5,7.5s3.36,7.5,7.5,7.5h33.5c34.46,0,62.5-28.04,62.5-62.5s-28.04-62.5-62.5-62.5Z"/>
  </g>
  <g>
    <path class="cls-1" d="M386,200h-26.05c-2.45-9.32-6.14-18.2-11.01-26.55l18.43-18.43c2.93-2.93,2.93-7.68,0-10.61l-28.28-28.28c-2.93-2.93-7.68-2.93-10.61,0l-18.43,18.43c-8.34-4.87-17.23-8.55-26.55-11.01v-26.05c0-4.14-3.36-7.5-7.5-7.5h-40c-4.14,0-7.5,3.36-7.5,7.5v26.05c-9.32,2.45-18.21,6.14-26.55,11.01l-18.43-18.43c-2.93-2.93-7.68-2.93-10.61,0l-28.28,28.28c-2.93,2.93-2.93,7.68,0,10.61l18.43,18.43c-4.87,8.34-8.56,17.23-11.01,26.55h-26.05c-4.14,0-7.5,3.36-7.5,7.5v40c0,4.14,3.36,7.5,7.5,7.5h26.05c2.45,9.32,6.14,18.21,11.01,26.55l-18.43,18.43c-1.41,1.41-2.2,3.31-2.2,5.3s.79,3.9,2.2,5.3l28.28,28.28c2.93,2.93,7.68,2.93,10.61,0l18.43-18.43c8.34,4.87,17.23,8.56,26.55,11.01v26.05c0,4.14,3.36,7.5,7.5,7.5h40c4.14,0,7.5-3.36,7.5-7.5v-26.05c9.32-2.45,18.2-6.14,26.55-11.01l18.43,18.43c2.93,2.93,7.68,2.93,10.61,0l28.28-28.28c2.93-2.93,2.93-7.68,0-10.61l-18.43-18.43c4.87-8.34,8.56-17.23,11.01-26.55h26.05c4.14,0,7.5-3.36,7.5-7.5v-40c0-4.14-3.36-7.5-7.5-7.5Zm-130,110c-45.49,0-82.5-37.01-82.5-82.5s37.01-82.5,82.5-82.5,82.5,37.01,82.5,82.5-37.01,82.5-82.5,82.5Z"/>
    <path class="cls-1" d="M256,160c-37.22,0-67.5,30.28-67.5,67.5s30.28,67.5,67.5,67.5,67.5-30.28,67.5-67.5-30.28-67.5-67.5-67.5Zm37.62,50.12l-42.01,45c-1.42,1.52-3.4,2.38-5.48,2.38s-4.06-.86-5.48-2.38l-22.27-23.86c-2.83-3.03-2.66-7.77,.36-10.6s7.77-2.66,10.6,.36l16.79,17.99,36.53-39.13c2.83-3.03,7.57-3.19,10.6-.36,3.03,2.83,3.19,7.57,.36,10.6Z"/>
  </g>
</svg>