<?xml version="1.0" encoding="UTF-8"?>
<svg id="OBJECT" xmlns="http://www.w3.org/2000/svg" viewBox="0 0 512 512">
  <defs>
    <style>
      .cls-1 {
        fill: #FD4360;
      }

      .cls-2 {
        fill: #dadada;
      }
    </style>
  </defs>
  <g>
    <path class="cls-2" d="M427.5,347h-52.5v-42.5c0-4.14-3.36-7.5-7.5-7.5H175.99c-2.62,0-5.08-1.4-6.43-3.64l-21.26-35.44c-4.04-6.74-11.44-10.92-19.29-10.92H7.5c-4.14,0-7.5,3.36-7.5,7.5v230c0,15.16,12.34,27.5,27.5,27.5H407.5c15.16,0,27.5-12.34,27.5-27.5v-130c0-4.14-3.36-7.5-7.5-7.5Zm-7.5,15v25h-45v-25h45ZM27.5,497c-6.89,0-12.5-5.61-12.5-12.5v-222.5h114.01c2.62,0,5.08,1.4,6.43,3.64l21.26,35.44c4.04,6.74,11.44,10.92,19.29,10.92h184.01v172.5c0,4.5,1.09,8.75,3.01,12.5H27.5Zm380,0h-20c-6.89,0-12.5-5.61-12.5-12.5v-82.5h45v82.5c0,6.89-5.61,12.5-12.5,12.5Z"/>
    <path class="cls-2" d="M97.5,422H57.5c-9.65,0-17.5,7.85-17.5,17.5v15c0,9.65,7.85,17.5,17.5,17.5h40c9.65,0,17.5-7.85,17.5-17.5v-15c0-9.65-7.85-17.5-17.5-17.5Zm2.5,32.5c0,1.38-1.12,2.5-2.5,2.5H57.5c-1.38,0-2.5-1.12-2.5-2.5v-15c0-1.38,1.12-2.5,2.5-2.5h40c1.38,0,2.5,1.12,2.5,2.5v15Z"/>
    <path class="cls-2" d="M197.5,422h-40c-9.65,0-17.5,7.85-17.5,17.5v15c0,9.65,7.85,17.5,17.5,17.5h40c9.65,0,17.5-7.85,17.5-17.5v-15c0-9.65-7.85-17.5-17.5-17.5Zm2.5,32.5c0,1.38-1.12,2.5-2.5,2.5h-40c-1.38,0-2.5-1.12-2.5-2.5v-15c0-1.38,1.12-2.5,2.5-2.5h40c1.38,0,2.5,1.12,2.5,2.5v15Z"/>
  </g>
  <g>
    <path class="cls-1" d="M372,200c0,4.14,3.36,7.5,7.5,7.5s7.5-3.36,7.5-7.5v-50h-15v50Z"/>
    <path class="cls-1" d="M379.5,213.75c-4.14,0-7.5,3.36-7.5,7.5v6.25c0,4.14,3.36,7.5,7.5,7.5s7.5-3.36,7.5-7.5v-6.25c0-4.14-3.36-7.5-7.5-7.5Z"/>
    <path class="cls-1" d="M471.57,195.29l-32.6-9.38c-3.19-.92-5.43-3.88-5.43-7.21v-28.71h-15v28.71c0,9.97,6.69,18.87,16.28,21.62l32.6,9.38c.69,.2,1.39,.29,2.08,.29,3.26,0,6.26-2.14,7.2-5.43,1.15-3.98-1.15-8.14-5.13-9.28Z"/>
    <path class="cls-1" d="M325.45,178.71c0,3.32-2.23,6.29-5.43,7.21l-32.6,9.38c-3.98,1.15-6.28,5.3-5.13,9.28,.95,3.29,3.95,5.43,7.2,5.43,.69,0,1.38-.09,2.08-.29l32.6-9.38c9.58-2.76,16.28-11.65,16.28-21.62v-28.71h-15v28.71Z"/>
    <path class="cls-1" d="M477.83,66.67h-7.82c-4.75-12.89-15.84-22.7-29.18-25.7C430.41,16.28,406.31,0,379.5,0s-50.91,16.28-61.34,40.96c-13.33,3-24.42,12.81-29.18,25.7h-7.82c-18.84,0-34.17,15.33-34.17,34.17s15.33,34.17,34.17,34.17h196.67c18.84,0,34.17-15.33,34.17-34.17s-15.33-34.17-34.17-34.17Zm-114.78,28.33h-6.58c-4.14,0-7.5-3.36-7.5-7.5s3.36-7.5,7.5-7.5h6.58c4.14,0,7.5,3.36,7.5,7.5s-3.36,7.5-7.5,7.5Zm39.47,0h-6.58c-4.14,0-7.5-3.36-7.5-7.5s3.36-7.5,7.5-7.5h6.58c4.14,0,7.5,3.36,7.5,7.5s-3.36,7.5-7.5,7.5Z"/>
  </g>
</svg>