<?xml version="1.0" encoding="UTF-8"?>
<svg id="OBJECT" xmlns="http://www.w3.org/2000/svg" viewBox="0 0 512 512">
  <defs>
    <style>
      .cls-1 {
        fill: #FD4360;
      }

      .cls-2 {
        fill: #dadada;
      }
    </style>
  </defs>
  <g>
    <path class="cls-2" d="M401,377c-18.11,0-33.26,12.9-36.75,30h-28.25c-6.89,0-12.5-5.61-12.5-12.5v-86.36c0-4.14-3.36-7.5-7.5-7.5s-7.5,3.36-7.5,7.5v86.36c0,15.16,12.34,27.5,27.5,27.5h28.25c3.48,17.1,18.64,30,36.75,30,20.68,0,37.5-16.82,37.5-37.5s-16.82-37.5-37.5-37.5Zm0,60c-12.41,0-22.5-10.09-22.5-22.5s10.09-22.5,22.5-22.5,22.5,10.09,22.5,22.5-10.09,22.5-22.5,22.5Z"/>
    <path class="cls-2" d="M196,300.64c-4.14,0-7.5,3.36-7.5,7.5v86.36c0,6.89-5.61,12.5-12.5,12.5h-28.25c-3.48-17.1-18.64-30-36.75-30-20.68,0-37.5,16.82-37.5,37.5s16.82,37.5,37.5,37.5c18.11,0,33.26-12.9,36.75-30h28.25c15.16,0,27.5-12.34,27.5-27.5v-86.36c0-4.14-3.36-7.5-7.5-7.5Zm-85,136.36c-12.41,0-22.5-10.09-22.5-22.5s10.09-22.5,22.5-22.5,22.5,10.09,22.5,22.5-10.09,22.5-22.5,22.5Z"/>
    <path class="cls-2" d="M449.5,110h-21.41c-3.74-33.7-32.4-60-67.09-60-2.82,0-5.65,.18-8.45,.53C330.55,18.8,294.82,0,256,0s-74.55,18.8-96.55,50.53c-2.8-.35-5.62-.53-8.45-.53-34.68,0-63.34,26.3-67.09,60h-21.41C28.04,110,0,138.04,0,172.5s28.04,62.5,62.5,62.5h33.5c4.14,0,7.5-3.36,7.5-7.5s-3.36-7.5-7.5-7.5H62.5c-26.19,0-47.5-21.31-47.5-47.5s21.31-47.5,47.5-47.5h73.5c4.14,0,7.5-3.36,7.5-7.5s-3.36-7.5-7.5-7.5h-36.96c3.65-25.41,25.55-45,51.96-45,3.54,0,7.08,.35,10.53,1.06,3.05,.62,6.16-.71,7.83-3.34,18.93-29.88,51.32-47.72,86.64-47.72s67.71,17.84,86.64,47.72c1.67,2.63,4.78,3.96,7.83,3.34,3.44-.7,6.98-1.06,10.53-1.06,26.4,0,48.3,19.59,51.96,45h-26.96c-4.14,0-7.5,3.36-7.5,7.5s3.36,7.5,7.5,7.5h63.5c26.19,0,47.5,21.31,47.5,47.5s-21.31,47.5-47.5,47.5h-33.5c-4.14,0-7.5,3.36-7.5,7.5s3.36,7.5,7.5,7.5h33.5c34.46,0,62.5-28.04,62.5-62.5s-28.04-62.5-62.5-62.5Z"/>
    <path class="cls-2" d="M221,90h-20c-12.41,0-22.5,10.09-22.5,22.5v10c0,12.41,10.09,22.5,22.5,22.5h20c12.41,0,22.5-10.09,22.5-22.5v-10c0-12.41-10.09-22.5-22.5-22.5Zm7.5,32.5c0,4.14-3.36,7.5-7.5,7.5h-20c-4.14,0-7.5-3.36-7.5-7.5v-10c0-4.14,3.36-7.5,7.5-7.5h20c4.14,0,7.5,3.36,7.5,7.5v10Z"/>
    <path class="cls-2" d="M333.5,122.5v-10c0-12.41-10.09-22.5-22.5-22.5h-20c-12.41,0-22.5,10.09-22.5,22.5v10c0,12.41,10.09,22.5,22.5,22.5h20c12.41,0,22.5-10.09,22.5-22.5Zm-50,0v-10c0-4.14,3.36-7.5,7.5-7.5h20c4.14,0,7.5,3.36,7.5,7.5v10c0,4.14-3.36,7.5-7.5,7.5h-20c-4.14,0-7.5-3.36-7.5-7.5Z"/>
  </g>
  <g>
    <path class="cls-1" d="M256,315.64c4.14,0,7.5-3.36,7.5-7.5v-10c0-4.14-3.36-7.5-7.5-7.5s-7.5,3.36-7.5,7.5v10c0,4.14,3.36,7.5,7.5,7.5Z"/>
    <path class="cls-1" d="M248.5,402.47c2.46-.3,4.96-.47,7.5-.47s5.04,.17,7.5,.47v-64.32c0-4.14-3.36-7.5-7.5-7.5s-7.5,3.36-7.5,7.5v64.32Z"/>
    <circle class="cls-1" cx="256" cy="464.5" r="47.5"/>
    <path class="cls-1" d="M371,180.64H141c-12.41,0-22.5,10.09-22.5,22.5v50c0,12.41,10.09,22.5,22.5,22.5h230c12.41,0,22.5-10.09,22.5-22.5v-50c0-12.41-10.09-22.5-22.5-22.5Zm-207.5,52.5c0,4.14-3.36,7.5-7.5,7.5s-7.5-3.36-7.5-7.5v-10c0-4.14,3.36-7.5,7.5-7.5s7.5,3.36,7.5,7.5v10Zm30,0c0,4.14-3.36,7.5-7.5,7.5s-7.5-3.36-7.5-7.5v-10c0-4.14,3.36-7.5,7.5-7.5s7.5,3.36,7.5,7.5v10Zm30,0c0,4.14-3.36,7.5-7.5,7.5s-7.5-3.36-7.5-7.5v-10c0-4.14,3.36-7.5,7.5-7.5s7.5,3.36,7.5,7.5v10Zm132.5,2.5h-100c-4.14,0-7.5-3.36-7.5-7.5s3.36-7.5,7.5-7.5h100c4.14,0,7.5,3.36,7.5,7.5s-3.36,7.5-7.5,7.5Z"/>
  </g>
</svg>