<?xml version="1.0" encoding="UTF-8"?>
<svg id="OBJECT" xmlns="http://www.w3.org/2000/svg" viewBox="0 0 512 512">
  <defs>
    <style>
      .cls-1 {
        fill: #FD4360;
      }

      .cls-2 {
        fill: #dadada;
      }
    </style>
  </defs>
  <g>
    <path class="cls-2" d="M492,330.14V22.5c0-12.41-10.09-22.5-22.5-22.5H99.5c-12.41,0-22.5,10.09-22.5,22.5v236.7C31.58,280.24,0,326.25,0,379.5c0,73.06,59.44,132.5,132.5,132.5,67.82,0,123.89-51.22,131.59-117h225.41c12.41,0,22.5-10.09,22.5-22.5v-20c0-11.56-8.77-21.11-20-22.36ZM92,22.5c0-4.14,3.36-7.5,7.5-7.5H469.5c4.14,0,7.5,3.36,7.5,7.5V330H255.4c-19.65-48.61-67.33-83-122.9-83-14.12,0-27.73,2.23-40.5,6.34V22.5Zm40.5,474.5c-64.79,0-117.5-52.71-117.5-117.5s52.71-117.5,117.5-117.5,117.5,52.71,117.5,117.5-52.71,117.5-117.5,117.5Zm364.5-124.5c0,4.14-3.36,7.5-7.5,7.5h-224.51c0-.17,0-.33,0-.5,0-11.93-1.59-23.49-4.57-34.5h229.07c4.14,0,7.5,3.36,7.5,7.5v20Z"/>
    <path class="cls-2" d="M138.22,191.63l19.56,29.97c1.14,1.75,2.97,2.95,5.03,3.3,.41,.07,.83,.1,1.25,.1,1.65,0,3.27-.54,4.59-1.57l82.33-63.73,17.93,32.66c2.75,5,7.58,8.43,13.27,9.41,5.74,.99,11.5-.64,15.83-4.48l91.72-81.51,8.66,19.83c1.3,2.97,4.37,4.77,7.58,4.46,3.23-.31,5.89-2.65,6.61-5.81l19.24-85.11c.57-2.5-.19-5.12-1.99-6.94-1.81-1.82-4.42-2.59-6.92-2.04l-86.58,18.91c-3.19,.7-5.57,3.38-5.87,6.64-.3,3.25,1.54,6.33,4.55,7.6l20.73,8.75-60.46,53.73-18.09-32.95c-2.62-4.78-7.23-8.17-12.63-9.29-5.45-1.14-11.1,.16-15.49,3.55l-109.15,84.49c-3.09,2.39-3.83,6.76-1.69,10.03Zm120.02-82.66c.91-.7,2.09-.97,3.25-.73,.65,.13,1.84,.55,2.54,1.82l22.62,41.2c1.1,2,3.05,3.39,5.3,3.78,2.25,.39,4.55-.27,6.26-1.78l76.37-67.87c1.92-1.71,2.84-4.29,2.42-6.83-.42-2.54-2.11-4.69-4.48-5.69l-9.89-4.17,51.97-11.35-11.6,51.32-3.65-8.35c-.96-2.2-2.92-3.81-5.26-4.32-2.35-.52-4.8,.12-6.59,1.72l-99.44,88.37c-1.26,1.12-2.73,1.02-3.31,.91-.68-.12-1.94-.51-2.67-1.85l-22.16-40.36c-1.06-1.92-2.9-3.29-5.05-3.73-2.15-.45-4.38,.07-6.12,1.41l-82.84,64.13-11.33-17.37,103.68-80.25Z"/>
    <path class="cls-2" d="M297,230v35c0,4.14,3.36,7.5,7.5,7.5h140c4.14,0,7.5-3.36,7.5-7.5v-35c0-4.14-3.36-7.5-7.5-7.5h-140c-4.14,0-7.5,3.36-7.5,7.5Zm15,7.5h125v20h-125v-20Z"/>
    <path class="cls-2" d="M444.5,287.5h-110c-4.14,0-7.5,3.36-7.5,7.5s3.36,7.5,7.5,7.5h110c4.14,0,7.5-3.36,7.5-7.5s-3.36-7.5-7.5-7.5Z"/>
    <path class="cls-2" d="M309.5,287.5h-5c-4.14,0-7.5,3.36-7.5,7.5s3.36,7.5,7.5,7.5h5c4.14,0,7.5-3.36,7.5-7.5s-3.36-7.5-7.5-7.5Z"/>
    <path class="cls-2" d="M142,47.5c0-4.14-3.36-7.5-7.5-7.5h-10c-4.14,0-7.5,3.36-7.5,7.5s3.36,7.5,7.5,7.5h10c4.14,0,7.5-3.36,7.5-7.5Z"/>
    <path class="cls-2" d="M164.5,55h10c4.14,0,7.5-3.36,7.5-7.5s-3.36-7.5-7.5-7.5h-10c-4.14,0-7.5,3.36-7.5,7.5s3.36,7.5,7.5,7.5Z"/>
    <path class="cls-2" d="M204.5,55h10c4.14,0,7.5-3.36,7.5-7.5s-3.36-7.5-7.5-7.5h-10c-4.14,0-7.5,3.36-7.5,7.5s3.36,7.5,7.5,7.5Z"/>
  </g>
  <g>
    <circle class="cls-1" cx="132.5" cy="352" r="27.5"/>
    <path class="cls-1" d="M54.35,407.11c11.28-14.11,26.26-24.93,43.01-31.24-4.64-6.81-7.36-15.03-7.36-23.87,0-23.43,19.07-42.5,42.5-42.5s42.5,19.07,42.5,42.5c0,8.84-2.72,17.06-7.36,23.87,16.76,6.31,31.74,17.14,43.01,31.24,4.32,5.41,8.04,11.24,11.13,17.39,6.85-13.53,10.71-28.82,10.71-45,0-55.14-44.86-100-100-100s-100,44.86-100,100c0,16.18,3.87,31.47,10.71,45,3.09-6.14,6.81-11.98,11.13-17.39Z"/>
    <path class="cls-1" d="M155.56,387.67c-6.65,4.31-14.56,6.83-23.06,6.83s-16.41-2.52-23.06-6.83c-26.72,7.48-47.4,27.16-56.64,52.15,18.28,24.09,47.2,39.67,79.7,39.67s61.42-15.59,79.7-39.67c-9.24-24.99-29.92-44.67-56.64-52.15Z"/>
  </g>
</svg>