<?xml version="1.0" encoding="UTF-8"?>
<svg id="OBJECT" xmlns="http://www.w3.org/2000/svg" viewBox="0 0 32 32">
  <defs>
    <style>
      .cls-1 {
        fill: #FD4360;
      }

      .cls-1, .cls-2 {
        stroke-width: 0px;
      }

      .cls-2 {
        fill: #dadada;
      }
    </style>
  </defs>
  <g>
    <path class="cls-2" d="m5.5,23c0,.55.45,1,1,1h1c.55,0,1-.45,1-1s-.45-1-1-1h-1c-.55,0-1,.45-1,1Z"/>
    <path class="cls-2" d="m24.5,24h1c.55,0,1-.45,1-1s-.45-1-1-1h-1c-.55,0-1,.45-1,1s.45,1,1,1Z"/>
    <path class="cls-2" d="m30,25h-.5v-13c0-1.65-1.35-3-3-3-.55,0-1,.45-1,1s.45,1,1,1,1,.45,1,1v13H4.5v-13c0-.55.45-1,1-1s1-.45,1-1-.45-1-1-1c-1.65,0-3,1.35-3,3v13h-.5c-.55,0-1,.45-1,1v2c0,1.65,1.35,3,3,3h24c1.65,0,3-1.35,3-3v-2c0-.55-.45-1-1-1Zm-1,3c0,.55-.45,1-1,1H4c-.55,0-1-.45-1-1v-1h26v1Z"/>
  </g>
  <path class="cls-1" d="m16,17c4.41,0,8-3.59,8-8S20.41,1,16,1s-8,3.59-8,8,3.59,8,8,8Zm2.66-9.22c-.39-.39-.39-1.02,0-1.41.39-.39,1.02-.39,1.41,0l1.92,1.93c.39.39.39,1.02,0,1.41l-1.92,1.93c-.2.2-.45.29-.71.29s-.51-.1-.71-.29c-.39-.39-.39-1.02,0-1.41l1.22-1.22-1.22-1.22Zm-4.59,4.31l1.93-6.74c.15-.53.71-.84,1.24-.69.53.15.84.71.69,1.24l-1.93,6.74c-.13.44-.53.73-.96.73-.09,0-.18-.01-.28-.04-.53-.15-.84-.71-.69-1.24Zm-4.08-3.8l1.92-1.93c.39-.39,1.02-.39,1.41,0,.39.39.39,1.02,0,1.41l-1.22,1.22,1.22,1.22c.39.39.39,1.02,0,1.41-.2.2-.45.29-.71.29s-.51-.1-.71-.29l-1.92-1.93c-.39-.39-.39-1.02,0-1.41Z"/>
</svg>