<?xml version="1.0" encoding="UTF-8"?>
<svg id="OBJECT" xmlns="http://www.w3.org/2000/svg" viewBox="0 0 32 32">
  <defs>
    <style>
      .cls-1 {
        fill: #FD4360;
      }

      .cls-1, .cls-2 {
        stroke-width: 0px;
      }

      .cls-2 {
        fill: #dadada;
      }
    </style>
  </defs>
  <g>
    <path class="cls-2" d="m27,7h-2.98c-.5-.75-1.11-1.49-1.86-2.22-.19-.18-.44-.28-.7-.28H6.54c-.26,0-.51.1-.7.28-6.42,6.22-3.18,13.48-1.49,16.31.89,1.48,2.52,2.41,4.28,2.41h10.76c1.75,0,3.39-.92,4.28-2.41.33-.55.71-1.26,1.07-2.09h2.28c2.21,0,4-1.79,4-4v-4c0-2.21-1.79-4-4-4Zm-20.05-.5h14.1c1.68,1.73,2.5,3.54,2.8,5.29-2.33,1.27-5.95,2.26-10.75.69-2.78-.91-5.8-1.04-9-.4.25-1.84,1.07-3.75,2.85-5.58Zm14.99,13.57c-.53.88-1.51,1.43-2.56,1.43h-10.76c-1.05,0-2.03-.55-2.56-1.43-.87-1.46-1.83-3.57-2.02-5.93,3.03-.68,5.86-.61,8.44.24,1.98.65,3.79.91,5.42.91,2.43,0,4.46-.58,6.07-1.32-.15,2.43-1.14,4.61-2.03,6.1Zm7.06-5.07c0,1.1-.9,2-2,2h-1.57c.66-2.31.87-5.13-.33-8h1.9c1.1,0,2,.9,2,2v4Z"/>
    <path class="cls-2" d="m18,3.5c.55,0,1-.45,1-1v-.5c0-.55-.45-1-1-1s-1,.45-1,1v.5c0,.55.45,1,1,1Z"/>
    <path class="cls-2" d="m14,3.5c.55,0,1-.45,1-1v-.5c0-.55-.45-1-1-1s-1,.45-1,1v.5c0,.55.45,1,1,1Z"/>
    <path class="cls-2" d="m10,3.5c.55,0,1-.45,1-1v-.5c0-.55-.45-1-1-1s-1,.45-1,1v.5c0,.55.45,1,1,1Z"/>
  </g>
  <path class="cls-1" d="m26,25.5H2c-.55,0-1,.45-1,1s.45,1,1,1h1.42l1.71,3c.18.31.51.5.87.5h16c.36,0,.69-.19.87-.5l1.71-3h1.42c.55,0,1-.45,1-1s-.45-1-1-1Z"/>
</svg>