<?xml version="1.0" encoding="UTF-8"?>
<svg id="OBJECT" xmlns="http://www.w3.org/2000/svg" viewBox="0 0 32 32">
  <defs>
    <style>
      .cls-1 {
        fill: #FD4360;
      }

      .cls-2 {
        fill: #dadada;
      }
    </style>
  </defs>
  <g>
    <path class="cls-2" d="m27,5h-1.72l-.53-2.11c-.28-1.11-1.28-1.89-2.43-1.89h-12.66c-1.15,0-2.15.78-2.43,1.89l-.53,2.11h-1.72c-.55,0-1,.45-1,1v5c0,.55.45,1,1,1h1.6l.28,2.61c.05.51.49.89.99.89.03,0,.07,0,.11,0,.55-.06.95-.55.89-1.1l-.25-2.39h14.78l-.25,2.39c-.06.55.34,1.04.89,1.1.04,0,.07,0,.11,0,.51,0,.94-.38.99-.89l.28-2.61h1.6c.55,0,1-.45,1-1v-5c0-.55-.45-1-1-1Zm-17.81-1.62c.06-.22.26-.38.49-.38h12.66c.23,0,.43.16.49.38l.41,1.62h-14.44l.41-1.62Zm16.81,6.62H6v-3h20v3Z"/>
    <path class="cls-2" d="m22.98,25.51c-.54-.05-1.04.34-1.1.89l-.23,2.16c-.03.25-.24.44-.5.44h-10.3c-.26,0-.47-.19-.5-.45l-.23-2.16c-.06-.55-.55-.94-1.1-.89-.55.06-.95.55-.89,1.1l.23,2.16c.13,1.27,1.2,2.24,2.48,2.24h10.3c1.28,0,2.35-.96,2.48-2.23l.23-2.16c.06-.55-.34-1.04-.89-1.1Z"/>
  </g>
  <path class="cls-1" d="m25,16.5H7c-.55,0-1,.45-1,1v6c0,.55.45,1,1,1h18c.55,0,1-.45,1-1v-6c0-.55-.45-1-1-1Zm-15,1.5h.5c.55,0,1,.45,1,1s-.45,1-1,1h-.5c-.55,0-1-.45-1-1s.45-1,1-1Zm8,5h-8c-.55,0-1-.45-1-1s.45-1,1-1h8c.55,0,1,.45,1,1s-.45,1-1,1Zm4,0h-.5c-.55,0-1-.45-1-1s.45-1,1-1h.5c.55,0,1,.45,1,1s-.45,1-1,1Zm0-3h-8c-.55,0-1-.45-1-1s.45-1,1-1h8c.55,0,1,.45,1,1s-.45,1-1,1Z"/>
</svg>