<?xml version="1.0" encoding="UTF-8"?>
<svg id="OBJECT" xmlns="http://www.w3.org/2000/svg" viewBox="0 0 32 32">
  <defs>
    <style>
      .cls-1 {
        fill: #FD4360;
      }

      .cls-1, .cls-2 {
        stroke-width: 0px;
      }

      .cls-2 {
        fill: #dadada;
      }
    </style>
  </defs>
  <g>
    <path class="cls-2" d="m25,12.01c-.55-.07-1.04.33-1.1.88l-1.69,15.22c-.06.51-.48.89-1,.89h-10.42c-.51,0-.94-.38-1-.89l-1.69-15.22c-.06-.55-.56-.95-1.1-.88-.55.06-.94.56-.88,1.1l1.69,15.22c.17,1.52,1.45,2.67,2.98,2.67h10.42c1.54,0,2.82-1.15,2.98-2.67l1.69-15.22c.06-.55-.33-1.04-.88-1.1Z"/>
    <path class="cls-2" d="m16,25.5c3.03,0,5.5-2.47,5.5-5.5s-2.47-5.5-5.5-5.5-5.5,2.47-5.5,5.5,2.47,5.5,5.5,5.5Zm0-2c-.6,0-1.16-.17-1.65-.43l4.72-4.72c.27.49.43,1.05.43,1.65,0,1.93-1.57,3.5-3.5,3.5Zm0-7c.6,0,1.16.17,1.65.43l-4.72,4.72c-.27-.49-.43-1.05-.43-1.65,0-1.93,1.57-3.5,3.5-3.5Z"/>
  </g>
  <g>
    <rect class="cls-1" x="4" y="7" width="24" height="3"/>
    <path class="cls-1" d="m25,2c0-.29-.12-.56-.34-.75-.21-.19-.5-.28-.79-.24L7.88,3.01c-.5.06-.88.49-.88.99v1h18v-3Z"/>
  </g>
</svg>