<?xml version="1.0" encoding="UTF-8"?>
<svg id="OBJECT" xmlns="http://www.w3.org/2000/svg" viewBox="0 0 32 32">
  <defs>
    <style>
      .cls-1 {
        fill: #FD4360;
      }

      .cls-1, .cls-2 {
        stroke-width: 0px;
      }

      .cls-2 {
        fill: #dadada;
      }
    </style>
  </defs>
  <g>
    <path class="cls-2" d="m28.5,17h-1.5c0-.55-.45-1-1-1h-12c-.55,0-1,.45-1,1v7c0,2.21,1.79,4,4,4h6c2.21,0,4-1.79,4-4h1c1.65,0,3-1.35,3-3v-1.5c0-1.38-1.12-2.5-2.5-2.5Zm-3.5,7c0,1.1-.9,2-2,2h-6c-1.1,0-2-.9-2-2v-6h10v6Zm4-3c0,.55-.45,1-1,1h-1v-3h1.5c.28,0,.5.22.5.5v1.5Z"/>
    <path class="cls-2" d="m17.75,21h.5c.55,0,1-.45,1-1s-.45-1-1-1h-.5c-.55,0-1,.45-1,1s.45,1,1,1Z"/>
    <path class="cls-2" d="m21.75,21h.5c.55,0,1-.45,1-1s-.45-1-1-1h-.5c-.55,0-1,.45-1,1s.45,1,1,1Z"/>
    <path class="cls-2" d="m29,29H11c-.55,0-1,.45-1,1s.45,1,1,1h18c.55,0,1-.45,1-1s-.45-1-1-1Z"/>
  </g>
  <path class="cls-1" d="m16,8.5c0-4.14-3.36-7.5-7.5-7.5S1,4.36,1,8.5s3.36,7.5,7.5,7.5,7.5-3.36,7.5-7.5Zm-4.79,2.71c-.2.2-.45.29-.71.29s-.51-.1-.71-.29l-2-2c-.19-.19-.29-.44-.29-.71v-3c0-.55.45-1,1-1s1,.45,1,1v2.59l1.71,1.71c.39.39.39,1.02,0,1.41Z"/>
</svg>