<?xml version="1.0" encoding="UTF-8"?>
<svg id="OBJECT" xmlns="http://www.w3.org/2000/svg" viewBox="0 0 32 32">
  <defs>
    <style>
      .cls-1 {
        fill: #FD4360;
      }

      .cls-1, .cls-2 {
        stroke-width: 0px;
      }

      .cls-2 {
        fill: #dadada;
      }
    </style>
  </defs>
  <path class="cls-2" d="m21,23.98c-.55,0-1,.47-1,1.02s-.45,1-1,1H4c-.55,0-1-.45-1-1v-2c0-.55.45-1,1-1h9.07c.55,0,1-.45,1-1s-.45-1-1-1H4c-.55,0-1-.45-1-1v-2c0-.55.45-1,1-1h6.17c.55,0,1-.45,1-1s-.45-1-1-1h-6.17c-.55,0-1-.45-1-1v-2c0-.55.45-1,1-1h6.69c.55,0,1-.45,1-1s-.45-1-1-1h-6.69c-1.65,0-3,1.35-3,3v2c0,.77.3,1.47.78,2-.48.53-.78,1.23-.78,2v2c0,.77.3,1.47.78,2-.48.53-.78,1.23-.78,2v2c0,1.65,1.35,3,3,3h15c1.65,0,3-1.35,3-3v-.04c0-.55-.45-.98-1-.98Z"/>
  <path class="cls-1" d="m22,4c-4.96,0-9,4.04-9,9s4.04,9,9,9,9-4.04,9-9-4.04-9-9-9Zm-.83,8h1.67c1.47,0,2.67,1.2,2.67,2.67s-1.11,2.56-2.5,2.65v.68c0,.55-.45,1-1,1s-1-.45-1-1v-.67h-1.5c-.55,0-1-.45-1-1s.45-1,1-1h3.33c.37,0,.67-.3.67-.67s-.3-.67-.67-.67h-1.67c-1.47,0-2.67-1.2-2.67-2.67s1.11-2.56,2.5-2.65v-.68c0-.55.45-1,1-1s1,.45,1,1v.67h1.5c.55,0,1,.45,1,1s-.45,1-1,1h-3.33c-.37,0-.67.3-.67.67s.3.67.67.67Z"/>
</svg>