<?xml version="1.0" encoding="UTF-8"?>
<svg id="OBJECT" xmlns="http://www.w3.org/2000/svg" viewBox="0 0 32 32">
  <defs>
    <style>
      .cls-1 {
        fill: #FD4360;
      }

      .cls-1, .cls-2 {
        stroke-width: 0px;
      }

      .cls-2 {
        fill: #dadada;
      }
    </style>
  </defs>
  <path class="cls-2" d="m22.99,23.92c-.01-.55-.48-.95-1.02-.97-.55,0-.99.46-.98,1.01v1.04c0,.55-.44,1-.99,1H4c-.55,0-1-.45-1-1v-2c0-.55.45-1,1-1h10.35c.55,0,1-.45,1-1s-.45-1-1-1H4c-.55,0-1-.45-1-1v-2c0-.55.45-1,1-1h7.06c.55,0,1-.45,1-1s-.45-1-1-1h-7.06c-.55,0-1-.45-1-1v-2c0-.55.45-1,1-1h7.52c.55,0,1-.45,1-1s-.45-1-1-1h-7.52c-1.65,0-3,1.35-3,3v2c0,.77.3,1.47.78,2-.48.53-.78,1.23-.78,2v2c0,.77.3,1.47.78,2-.48.53-.78,1.23-.78,2v2c0,1.65,1.35,3,3,3h16c1.65,0,3-1.35,3-3,0-.02,0-1.06,0-1.08Z"/>
  <path class="cls-1" d="m22,4c-4.96,0-9,4.04-9,9s4.04,9,9,9,9-4.04,9-9-4.04-9-9-9Zm-.92,8h1.83c1.56,0,2.83,1.27,2.83,2.83s-1.23,2.78-2.75,2.82v.84c0,.55-.45,1-1,1s-1-.45-1-1v-.83h-1.75c-.55,0-1-.45-1-1s.45-1,1-1h3.67c.46,0,.83-.37.83-.83s-.37-.83-.83-.83h-1.83c-1.56,0-2.83-1.27-2.83-2.83s1.23-2.78,2.75-2.82v-.84c0-.55.45-1,1-1s1,.45,1,1v.83h1.75c.55,0,1,.45,1,1s-.45,1-1,1h-3.67c-.46,0-.83.37-.83.83s.37.83.83.83Z"/>
</svg>