<?xml version="1.0" encoding="UTF-8"?>
<svg id="OBJECT" xmlns="http://www.w3.org/2000/svg" viewBox="0 0 32 32">
  <defs>
    <style>
      .cls-1 {
        fill: #FD4360;
      }

      .cls-1, .cls-2 {
        stroke-width: 0px;
      }

      .cls-2 {
        fill: #dadada;
      }
    </style>
  </defs>
  <g>
    <path class="cls-2" d="m31,14c0-1.65-1.35-3-3-3h-6.03c-.26-5.56-4.85-10-10.47-10S1,5.71,1,11.5c0,4.18,2.46,7.78,6,9.47v1.03c0,1.65,1.35,3,3,3,.55,0,1-.45,1-1s-.45-1-1-1-1-.45-1-1v-.31c.8.2,1.64.31,2.5.31,2.85,0,5.44-1.15,7.33-3h9.17c.55,0,1,.45,1,1v2c0,.55-.45,1-1,1s-1,.45-1,1,.45,1,1,1c1.65,0,3-1.35,3-3v-2c0-.77-.3-1.47-.78-2,.48-.53.78-1.23.78-2v-2Zm-2,0v2c0,.55-.45,1-1,1h-7.57c.74-1.2,1.24-2.55,1.45-4h6.12c.55,0,1,.45,1,1Zm-17.5,6c-4.69,0-8.5-3.81-8.5-8.5S6.81,3,11.5,3s8.5,3.81,8.5,8.5-3.81,8.5-8.5,8.5Z"/>
    <path class="cls-2" d="m10.58,8.83h3.67c.55,0,1-.45,1-1s-.45-1-1-1h-1.75v-.83c0-.55-.45-1-1-1s-1,.45-1,1v.84c-1.52.05-2.75,1.29-2.75,2.82s1.27,2.83,2.83,2.83h1.83c.46,0,.83.37.83.83s-.37.83-.83.83h-3.67c-.55,0-1,.45-1,1s.45,1,1,1h1.75v.83c0,.55.45,1,1,1s1-.45,1-1v-.84c1.52-.05,2.75-1.29,2.75-2.82s-1.27-2.83-2.83-2.83h-1.83c-.46,0-.83-.37-.83-.83s.37-.83.83-.83Z"/>
    <path class="cls-2" d="m18,10.5h-.5c-.55,0-1,.45-1,1s.45,1,1,1h.5c.55,0,1-.45,1-1s-.45-1-1-1Z"/>
    <path class="cls-2" d="m5.5,10.5h-.5c-.55,0-1,.45-1,1s.45,1,1,1h.5c.55,0,1-.45,1-1s-.45-1-1-1Z"/>
  </g>
  <rect class="cls-1" x="7" y="26" width="24" height="5" rx="2" ry="2"/>
</svg>