<?xml version="1.0" encoding="UTF-8"?>
<svg id="OBJECT" xmlns="http://www.w3.org/2000/svg" viewBox="0 0 512 512">
  <defs>
    <style>
      .cls-1 {
        fill: #FD4360;
      }

      .cls-2 {
        fill: #dadada;
      }
    </style>
  </defs>
  <g>
    <path class="cls-2" d="M353.5,137.5c0-53.76-43.74-97.5-97.5-97.5s-97.5,43.74-97.5,97.5,43.74,97.5,97.5,97.5,97.5-43.74,97.5-97.5Zm-180,0c0-45.49,37.01-82.5,82.5-82.5s82.5,37.01,82.5,82.5-37.01,82.5-82.5,82.5-82.5-37.01-82.5-82.5Z"/>
    <path class="cls-2" d="M301.37,107.26c-2.89-2.96-7.64-3.02-10.61-.13l-45.98,44.89-23.54-22.98c-2.97-2.89-7.71-2.83-10.61,.13-2.89,2.96-2.84,7.71,.13,10.61l28.78,28.09c1.46,1.42,3.35,2.13,5.24,2.13s3.78-.71,5.24-2.13l51.22-50c2.96-2.89,3.02-7.64,.13-10.61Z"/>
    <path class="cls-2" d="M238.5,395h5c4.14,0,7.5-3.36,7.5-7.5s-3.36-7.5-7.5-7.5h-5c-4.14,0-7.5,3.36-7.5,7.5s3.36,7.5,7.5,7.5Z"/>
    <path class="cls-2" d="M268.5,395h5c4.14,0,7.5-3.36,7.5-7.5s-3.36-7.5-7.5-7.5h-5c-4.14,0-7.5,3.36-7.5,7.5s3.36,7.5,7.5,7.5Z"/>
    <path class="cls-2" d="M341,290h-4.38v-11.55c0-17.11,6.48-33.23,18.24-45.39,24.92-25.77,38.64-59.71,38.64-95.56s-13.75-69.86-38.71-95.64C329.88,16.14,296.5,1.31,260.78,.08c-37.58-1.29-73.13,12.24-100.08,38.09-26.92,25.82-41.9,60.71-42.19,98.25-.28,36.31,13.48,70.67,38.73,96.73,11.7,12.08,18.14,28.16,18.14,45.29v11.55h-4.38c-12.41,0-22.5,10.09-22.5,22.5,0,5.76,2.18,11.02,5.75,15-3.57,3.98-5.75,9.24-5.75,15,0,12.41,10.09,22.5,22.5,22.5h27.5v37.5c0,12.41,10.09,22.5,22.5,22.5h70c12.41,0,22.5-10.09,22.5-22.5v-37.5h27.5c12.41,0,22.5-10.09,22.5-22.5,0-5.76-2.18-11.02-5.75-15,3.57-3.98,5.75-9.24,5.75-15,0-12.41-10.09-22.5-22.5-22.5Zm-172.99-67.28c-22.5-23.22-34.75-53.83-34.5-86.18,.26-33.46,13.6-64.55,37.57-87.54,24.01-23.02,55.69-35.1,89.19-33.93,66.3,2.27,118.23,56.04,118.23,122.43,0,31.94-12.22,62.17-34.42,85.13-14.48,14.98-22.45,34.8-22.45,55.82v11.55H190.38v-11.55c0-21.05-7.94-40.84-22.37-55.73Zm2.99,82.28h170c4.14,0,7.5,3.36,7.5,7.5s-3.36,7.5-7.5,7.5H171c-4.14,0-7.5-3.36-7.5-7.5s3.36-7.5,7.5-7.5Zm127.5,97.5c0,4.14-3.36,7.5-7.5,7.5h-70c-4.14,0-7.5-3.36-7.5-7.5v-37.5h85v37.5Zm42.5-52.5H171c-4.14,0-7.5-3.36-7.5-7.5s3.36-7.5,7.5-7.5h170c4.14,0,7.5,3.36,7.5,7.5s-3.36,7.5-7.5,7.5Z"/>
  </g>
  <g>
    <path class="cls-1" d="M72.5,432c20.68,0,37.5-16.82,37.5-37.5v-30c0-15.16-12.34-27.5-27.5-27.5h-20c-15.16,0-27.5,12.34-27.5,27.5v30c0,20.68,16.82,37.5,37.5,37.5Z"/>
    <path class="cls-1" d="M120.66,415.37c-8.09,18.59-26.63,31.63-48.16,31.63s-40.07-13.04-48.16-31.63c-14.92,13.29-24.34,32.63-24.34,54.13v20c0,12.41,10.09,22.5,22.5,22.5h7.5v-22.5c0-4.14,3.36-7.5,7.5-7.5s7.5,3.36,7.5,7.5v22.5h55v-22.5c0-4.14,3.36-7.5,7.5-7.5s7.5,3.36,7.5,7.5v22.5h7.5c12.41,0,22.5-10.09,22.5-22.5v-20c0-21.5-9.42-40.84-24.34-54.13Z"/>
    <path class="cls-1" d="M439.5,432c20.68,0,37.5-16.82,37.5-37.5v-30c0-15.16-12.34-27.5-27.5-27.5h-20c-15.16,0-27.5,12.34-27.5,27.5v30c0,20.68,16.82,37.5,37.5,37.5Z"/>
    <path class="cls-1" d="M487.66,415.37c-8.09,18.59-26.63,31.63-48.16,31.63s-40.07-13.04-48.16-31.63c-14.92,13.29-24.34,32.63-24.34,54.13v20c0,12.41,10.09,22.5,22.5,22.5h7.5v-22.5c0-4.14,3.36-7.5,7.5-7.5s7.5,3.36,7.5,7.5v22.5h55v-22.5c0-4.14,3.36-7.5,7.5-7.5s7.5,3.36,7.5,7.5v22.5h7.5c12.41,0,22.5-10.09,22.5-22.5v-20c0-21.5-9.42-40.84-24.34-54.13Z"/>
  </g>
</svg>