<?xml version="1.0" encoding="UTF-8"?>
<svg id="OBJECT" xmlns="http://www.w3.org/2000/svg" viewBox="0 0 32 32">
  <defs>
    <style>
      .cls-1 {
        fill: #FD4360;
      }

      .cls-1, .cls-2 {
        stroke-width: 0px;
      }

      .cls-2 {
        fill: #dadada;
      }
    </style>
  </defs>
  <path class="cls-2" d="m15,6.5c.55,0,1-.45,1-1v-2c0-1.38-1.12-2.5-2.5-2.5h-7c-1.38,0-2.5,1.12-2.5,2.5v25c0,1.38,1.12,2.5,2.5,2.5h7c1.38,0,2.5-1.12,2.5-2.5v-2c0-.55-.45-1-1-1h-5v-1.5h4c.55,0,1-.45,1-1s-.45-1-1-1h-4v-2.67h4c.55,0,1-.45,1-1s-.45-1-1-1h-4v-2.67h4c.55,0,1-.45,1-1s-.45-1-1-1h-4v-2.67h4c.55,0,1-.45,1-1s-.45-1-1-1h-4v-1.5h5Zm-1,21v1c0,.28-.22.5-.5.5h-7c-.28,0-.5-.22-.5-.5V3.5c0-.28.22-.5.5-.5h7c.28,0,.5.22.5.5v1h-5c-.55,0-1,.45-1,1v21c0,.55.45,1,1,1h5Z"/>
  <g>
    <path class="cls-1" d="m26,19.5h-3v2h3c.55,0,1-.45,1-1s-.45-1-1-1Z"/>
    <path class="cls-1" d="m26,12.5h-3v2h3c.55,0,1-.45,1-1s-.45-1-1-1Z"/>
    <path class="cls-1" d="m26,16h-3v2h3c.55,0,1-.45,1-1s-.45-1-1-1Z"/>
    <path class="cls-1" d="m25,6h-4.5c-1.66,0-3,1.34-3,3v22h3.5V10.5c0-.55.45-1,1-1h6v-.5c0-1.66-1.34-3-3-3Z"/>
  </g>
</svg>