<?xml version="1.0" encoding="UTF-8"?>
<svg id="OBJECT" xmlns="http://www.w3.org/2000/svg" viewBox="0 0 32 32">
  <defs>
    <style>
      .cls-1 {
        fill: #FD4360;
      }

      .cls-1, .cls-2 {
        stroke-width: 0px;
      }

      .cls-2 {
        fill: #dadada;
      }
    </style>
  </defs>
  <g>
    <path class="cls-2" d="m31,1.96c-.02-.52-.44-.93-.95-.95-.19-.01-18.41-.66-23.49,16.72-.1.35,0,.73.25.99l6.48,6.48c.19.19.45.29.71.29.09,0,.19-.01.28-.04C31.66,20.37,31,2.14,31,1.96Zm-3.07,7.58c-.72-1.05-1.53-2.05-2.47-2.99-.94-.94-1.94-1.75-2.99-2.47,2.8-.85,5.24-1.04,6.53-1.08-.03,1.29-.23,3.74-1.08,6.53Zm-19.28,8.19c.43-1.35.95-2.57,1.53-3.69.87,1.56,2.02,3.06,3.37,4.42,1.36,1.36,2.86,2.5,4.42,3.37-1.12.58-2.34,1.1-3.69,1.53l-5.63-5.63Zm11.36,2.89c-1.77-.82-3.5-2.03-5.04-3.57-1.54-1.54-2.75-3.27-3.57-5.05,2.44-3.59,5.63-5.76,8.69-7.06,1.41.79,2.75,1.8,3.96,3.02,1.22,1.22,2.23,2.55,3.02,3.96-1.3,3.05-3.47,6.25-7.06,8.69Z"/>
    <path class="cls-2" d="m22.91,10.5l.29-.29c.39-.39.39-1.02,0-1.41s-1.02-.39-1.41,0l-.31.31c-.95-.74-2.32-.68-3.19.19-.46.46-.71,1.06-.71,1.71s.25,1.25.71,1.71l1,1c.11.11.12.23.12.29s-.02.19-.12.29c-.21.21-.37.21-.59,0l-2-2c-.39-.39-1.02-.39-1.41,0s-.39,1.02,0,1.41l.79.79-.29.29c-.39.39-.39,1.02,0,1.41.2.2.45.29.71.29s.51-.1.71-.29l.31-.31c.42.33.93.52,1.48.52.65,0,1.25-.25,1.71-.71.46-.46.71-1.06.71-1.71s-.25-1.25-.71-1.71l-1-1c-.11-.11-.12-.23-.12-.29s.02-.19.12-.29c.16-.16.42-.16.59,0l2,2c.39.39,1.02.39,1.41,0s.39-1.02,0-1.41l-.79-.79Z"/>
  </g>
  <g>
    <path class="cls-1" d="m24.97,22.04l-.05-.27c-2.26,2.11-5.15,3.94-8.85,5.21l.71,3.24c.08.36.34.64.7.75.09.03.19.04.28.04.26,0,.52-.1.71-.29l5.56-5.56c.81-.82,1.17-1.98.96-3.11Z"/>
    <path class="cls-1" d="m1.79,15.23l3.24.71c1.26-3.7,3.1-6.59,5.22-8.85l-.29-.06c-1.13-.21-2.29.14-3.11.96L1.29,13.55c-.26.26-.36.64-.25.99.1.35.39.62.75.7Z"/>
    <path class="cls-1" d="m8.12,23.88c-.39-.39-1.02-.39-1.41,0l-5.42,5.42c-.39.39-.39,1.02,0,1.41.2.2.45.29.71.29s.51-.1.71-.29l5.42-5.42c.39-.39.39-1.02,0-1.41Z"/>
    <path class="cls-1" d="m9.29,26.46l-1.72,1.72c-.39.39-.39,1.02,0,1.41.2.2.45.29.71.29s.51-.1.71-.29l1.72-1.72c.39-.39.39-1.02,0-1.41s-1.02-.39-1.41,0Z"/>
    <path class="cls-1" d="m4.12,21.29l-1.72,1.72c-.39.39-.39,1.02,0,1.41.2.2.45.29.71.29s.51-.1.71-.29l1.72-1.72c.39-.39.39-1.02,0-1.41s-1.02-.39-1.41,0Z"/>
  </g>
</svg>