<?xml version="1.0" encoding="UTF-8"?>
<svg id="OBJECT" xmlns="http://www.w3.org/2000/svg" viewBox="0 0 512 512">
  <defs>
    <style>
      .cls-1 {
        fill: #FD4360;
      }

      .cls-2 {
        fill: #dadada;
      }
    </style>
  </defs>
  <g>
    <path class="cls-2" d="M334.5,275c75.82,0,137.5-61.68,137.5-137.5S410.32,0,334.5,0,197,61.68,197,137.5s61.68,137.5,137.5,137.5Zm0-260c67.55,0,122.5,54.95,122.5,122.5s-54.95,122.5-122.5,122.5-122.5-54.95-122.5-122.5S266.95,15,334.5,15Z"/>
    <path class="cls-2" d="M504.61,349.01c-11.71-10.36-28.54-12.46-42.39-5.46l-.96-1.84c-3.74-7.19-10.73-11.56-18.24-12.2l-.28-.8c-4.02-11.45-16.41-17.7-27.94-14.31l-.96-3.11c-1.81-5.89-5.83-10.7-11.31-13.54-5.48-2.83-11.72-3.34-17.58-1.41l-56.07,18.39c-10.16-6.34-23.13-7.81-34.88-2.9l-43.35,18.12-39.94-21.98c-5.53-3.04-11.79-4.65-18.1-4.65h-44.87c-11.79,0-23.03,5.64-30.08,15.09l-18.9,25.33h-23.72v-4.42c0-12.41-10.09-22.5-22.5-22.5H7.5c-4.14,0-7.5,3.36-7.5,7.5v180.18c0,4.14,3.36,7.5,7.5,7.5H52.56c12.41,0,22.5-10.09,22.5-22.5v-4.42h45.96l24.29,19.32c4.91,3.91,11.07,6.06,17.35,6.06h145.02c5.63,0,11.06-1.68,15.71-4.85l179.05-122.12c5.62-3.83,9.08-9.92,9.51-16.71,.43-6.79-2.25-13.26-7.34-17.77ZM60.06,489.5c0,4.14-3.36,7.5-7.5,7.5H15v-165.18H52.56c4.14,0,7.5,3.36,7.5,7.5v150.18Zm377.66-144.31c3.8-1.8,8.3-.29,10.24,3.44l1.17,2.25-139.13,78.45c-6.95,3.92-15.55,3.85-22.44-.18l-12.13-7.1,162.3-76.86Zm-48.07-34.6c2-.66,4.13-.48,6.01,.48,1.87,.97,3.25,2.61,3.86,4.63l1.08,3.52-55.5,18.94c-.23-2.75-.97-5.46-2.22-7.97l-.12-.23c-.58-1.16-1.22-2.28-1.9-3.36l48.78-16Zm-52.09,45.99l81.17-27.7c3.81-1.3,7.97,.55,9.6,4.15l-168.6,79.84-12.08-7.07,12.23-14.98,72.01-30.72c2.07-.88,3.98-2.08,5.67-3.53Zm159.42,9.26c-.13,2.14-1.23,4.05-2.99,5.26l-179.04,122.12c-2.15,1.47-4.66,2.24-7.26,2.24H162.67c-2.9,0-5.75-.99-8.02-2.8l-23.51-18.69v-49.65c0-4.14-3.36-7.5-7.5-7.5s-7.5,3.36-7.5,7.5v45.77h-41.08v-111.35h27.49c2.37,0,4.6-1.12,6.01-3.01l21.15-28.34c4.23-5.67,10.98-9.06,18.06-9.06h44.87c3.79,0,7.54,.97,10.86,2.79l43.11,23.73c2,1.1,4.4,1.23,6.51,.35l46.69-19.52c11.16-4.67,24.14,.16,29.55,10.99l.12,.23c.86,1.72,.96,3.65,.3,5.45s-2,3.21-3.76,3.96l-73.71,31.45c-1.12,.48-2.1,1.21-2.87,2.15l-18.94,23.2c-1.39,1.7-1.96,3.92-1.57,6.07s1.7,4.04,3.59,5.14l47.46,27.77c11.48,6.72,25.8,6.83,37.39,.3l150.69-84.97c8.56-4.83,19.26-3.7,26.62,2.82,1.6,1.42,2.45,3.46,2.31,5.59Z"/>
    <path class="cls-2" d="M123.64,376.82c-4.14,0-7.5,3.36-7.5,7.5v10c0,4.14,3.36,7.5,7.5,7.5s7.5-3.36,7.5-7.5v-10c0-4.14-3.36-7.5-7.5-7.5Z"/>
  </g>
  <path class="cls-1" d="M334.5,30c-59.28,0-107.5,48.22-107.5,107.5s48.22,107.5,107.5,107.5,107.5-48.22,107.5-107.5-48.22-107.5-107.5-107.5Zm-60,115h-10c-4.14,0-7.5-3.36-7.5-7.5s3.36-7.5,7.5-7.5h10c4.14,0,7.5,3.36,7.5,7.5s-3.36,7.5-7.5,7.5Zm81.04,41.65v15.85c0,4.14-3.36,7.5-7.5,7.5s-7.5-3.36-7.5-7.5v-14.17h-12.08v14.17c0,4.14-3.36,7.5-7.5,7.5s-7.5-3.36-7.5-7.5v-14.17h-4.96c-4.14,0-7.5-3.36-7.5-7.5s3.36-7.5,7.5-7.5h37.5c7.44,0,13.5-6.35,13.5-14.17s-6.06-14.17-13.5-14.17h-23c-15.71,0-28.5-13.08-28.5-29.17,0-12.66,7.92-23.45,18.96-27.48v-15.85c0-4.14,3.36-7.5,7.5-7.5s7.5,3.36,7.5,7.5v14.17h12.08v-14.17c0-4.14,3.36-7.5,7.5-7.5s7.5,3.36,7.5,7.5v14.17h4.96c4.14,0,7.5,3.36,7.5,7.5s-3.36,7.5-7.5,7.5h-37.5c-7.44,0-13.5,6.35-13.5,14.17s6.06,14.17,13.5,14.17h23c15.71,0,28.5,13.08,28.5,29.17,0,12.66-7.92,23.45-18.96,27.48Zm48.96-41.65h-10c-4.14,0-7.5-3.36-7.5-7.5s3.36-7.5,7.5-7.5h10c4.14,0,7.5,3.36,7.5,7.5s-3.36,7.5-7.5,7.5Z"/>
</svg>