<?xml version="1.0" encoding="UTF-8"?>
<svg id="OBJECT" xmlns="http://www.w3.org/2000/svg" viewBox="0 0 32 32">
  <defs>
    <style>
      .cls-1 {
        fill: #FD4360;
      }

      .cls-2 {
        fill: #dadada;
      }
    </style>
  </defs>
  <g>
    <path class="cls-2" d="M22.5,1H9.5c-1.38,0-2.5,1.12-2.5,2.5v7c0,1.38,1.12,2.5,2.5,2.5h2.88l1.31,2.62c.43,.85,1.28,1.38,2.24,1.38h.15c.95,0,1.81-.53,2.24-1.38l1.31-2.62h2.88c1.38,0,2.5-1.12,2.5-2.5V3.5c0-1.38-1.12-2.5-2.5-2.5Zm.5,9.5c0,.28-.22,.5-.5,.5h-3.5c-.38,0-.73,.21-.89,.55l-1.58,3.17c-.09,.17-.26,.28-.45,.28h-.15c-.19,0-.36-.11-.45-.28l-1.58-3.17c-.17-.34-.52-.55-.89-.55h-3.5c-.28,0-.5-.22-.5-.5V3.5c0-.28,.22-.5,.5-.5h13c.28,0,.5,.22,.5,.5v7Z"/>
    <path class="cls-2" d="M11.81,21.14c.11-.36,.19-.74,.19-1.14v-2c0-1.65-1.35-3-3-3h-2c-1.65,0-3,1.35-3,3v2c0,.4,.08,.78,.19,1.14-1.96,1.28-3.19,3.49-3.19,5.86v1c0,1.65,1.35,3,3,3H12c1.65,0,3-1.35,3-3v-1c0-2.37-1.23-4.58-3.19-5.86Zm-5.81-3.14c0-.55,.45-1,1-1h2c.55,0,1,.45,1,1v2c0,1.1-.9,2-2,2s-2-.9-2-2v-2Zm7,10c0,.55-.45,1-1,1H4c-.55,0-1-.45-1-1v-1c0-1.67,.85-3.22,2.21-4.14,.72,.7,1.7,1.14,2.79,1.14s2.07-.44,2.79-1.14c1.36,.92,2.21,2.47,2.21,4.14v1Z"/>
    <path class="cls-2" d="M20.5,7.75H11.5c-.55,0-1,.45-1,1s.45,1,1,1h9c.55,0,1-.45,1-1s-.45-1-1-1Z"/>
    <path class="cls-2" d="M20.5,4.25h-5c-.55,0-1,.45-1,1s.45,1,1,1h5c.55,0,1-.45,1-1s-.45-1-1-1Z"/>
    <path class="cls-2" d="M11.5,6.25h.5c.55,0,1-.45,1-1s-.45-1-1-1h-.5c-.55,0-1,.45-1,1s.45,1,1,1Z"/>
  </g>
  <g>
    <path class="cls-1" d="M28.89,22c-.91,1.78-2.76,3-4.89,3s-3.98-1.22-4.89-3c-1.3,1.27-2.11,3.04-2.11,5v1c0,1.65,1.35,3,3,3h8c1.65,0,3-1.35,3-3v-1c0-1.96-.81-3.73-2.11-5Z"/>
    <path class="cls-1" d="M24,23c1.93,0,3.5-1.57,3.5-3.5v-1.5c0-1.65-1.35-3-3-3h-1c-1.65,0-3,1.35-3,3v1.5c0,1.93,1.57,3.5,3.5,3.5Z"/>
  </g>
</svg>