<?xml version="1.0" encoding="UTF-8"?>
<svg id="OBJECT" xmlns="http://www.w3.org/2000/svg" viewBox="0 0 32 32">
  <defs>
    <style>
      .cls-1 {
        fill: #FD4360;
      }

      .cls-1, .cls-2 {
        stroke-width: 0px;
      }

      .cls-2 {
        fill: #dadada;
      }
    </style>
  </defs>
  <g>
    <path class="cls-2" d="m12.29,15.21h1.86c.55,0,1-.45,1-1s-.45-1-1-1h-1.86c-.55,0-1,.45-1,1s.45,1,1,1Z"/>
    <path class="cls-2" d="m17.86,15.21h1.86c.55,0,1-.45,1-1s-.45-1-1-1h-1.86c-.55,0-1,.45-1,1s.45,1,1,1Z"/>
    <path class="cls-2" d="m12.29,19.86h1.86c.55,0,1-.45,1-1s-.45-1-1-1h-1.86c-.55,0-1,.45-1,1s.45,1,1,1Z"/>
    <path class="cls-2" d="m17.86,19.86h1.86c.55,0,1-.45,1-1s-.45-1-1-1h-1.86c-.55,0-1,.45-1,1s.45,1,1,1Z"/>
    <path class="cls-2" d="m30,29h-4.64V9.57c0-.55-.45-1-1-1H7.64c-.55,0-1,.45-1,1v19.43H2c-.55,0-1,.45-1,1s.45,1,1,1h28c.55,0,1-.45,1-1s-.45-1-1-1ZM8.64,10.57h14.71v18.43h-2.64v-5.5c0-.55-.45-1-1-1h-7.43c-.55,0-1,.45-1,1v5.5h-2.64V10.57Zm8.36,13.93h1.71v4.5h-1.71v-4.5Zm-2,4.5h-1.71v-4.5h1.71v4.5Z"/>
  </g>
  <g>
    <path class="cls-1" d="m12.79,1.14c-.31-.18-.69-.18-1,0L3.51,5.84c-.31.18-.51.51-.51.87v20.29h1.64V9.57c0-1.65,1.35-3,3-3h5.64V2c0-.36-.19-.69-.5-.86Z"/>
    <path class="cls-1" d="m28.49,5.84L20.21,1.13c-.31-.18-.69-.17-1,0-.31.18-.5.51-.5.86v4.57h5.64c1.65,0,3,1.35,3,3v17.43h1.64V6.71c0-.36-.19-.69-.51-.87Z"/>
  </g>
</svg>