<?xml version="1.0" encoding="UTF-8"?>
<svg id="OBJECT" xmlns="http://www.w3.org/2000/svg" viewBox="0 0 32 32">
  <defs>
    <style>
      .cls-1 {
        fill: #FD4360;
      }

      .cls-1, .cls-2 {
        stroke-width: 0px;
      }

      .cls-2 {
        fill: #dadada;
      }
    </style>
  </defs>
  <g>
    <path class="cls-2" d="m12.5,1h-7.05c-.49,0-.97.15-1.39.42l-1.95,1.3c-.7.46-1.11,1.24-1.11,2.08v10.7c0,1.38,1.12,2.5,2.5,2.5h9c1.38,0,2.5-1.12,2.5-2.5V3.5c0-1.38-1.12-2.5-2.5-2.5Zm.5,14.5c0,.28-.22.5-.5.5H3.5c-.28,0-.5-.22-.5-.5V4.8c0-.17.08-.32.22-.42l1.95-1.3c.08-.06.18-.08.28-.08h7.05c.28,0,.5.22.5.5v12Z"/>
    <path class="cls-2" d="m10.5,12h-5c-.55,0-1,.45-1,1s.45,1,1,1h5c.55,0,1-.45,1-1s-.45-1-1-1Z"/>
    <path class="cls-2" d="m10.5,8.5h-5c-.55,0-1,.45-1,1s.45,1,1,1h5c.55,0,1-.45,1-1s-.45-1-1-1Z"/>
    <path class="cls-2" d="m10.5,5h-2c-.55,0-1,.45-1,1s.45,1,1,1h2c.55,0,1-.45,1-1s-.45-1-1-1Z"/>
    <path class="cls-2" d="m26.71,8.54c-.39-.39-1.02-.39-1.41,0l-.79.79v-3.34c0-1.38-1.12-2.5-2.5-2.5h-2.5c-.55,0-1,.45-1,1s.45,1,1,1h2.5c.28,0,.5.22.5.5v3.34l-.79-.79c-.39-.39-1.02-.39-1.41,0s-.39,1.02,0,1.41l2.5,2.5c.2.2.45.29.71.29s.51-.1.71-.29l2.5-2.5c.39-.39.39-1.02,0-1.41Z"/>
    <path class="cls-2" d="m12.5,26.5h-2.5c-.28,0-.5-.22-.5-.5v-3.34l.79.79c.2.2.45.29.71.29s.51-.1.71-.29c.39-.39.39-1.02,0-1.41l-2.5-2.5c-.39-.39-1.02-.39-1.41,0l-2.5,2.5c-.39.39-.39,1.02,0,1.41s1.02.39,1.41,0l.79-.79v3.34c0,1.38,1.12,2.5,2.5,2.5h2.5c.55,0,1-.45,1-1s-.45-1-1-1Z"/>
  </g>
  <path class="cls-1" d="m29.89,15.72l-1.96-1.3c-.41-.27-.89-.42-1.39-.42h-7.05c-1.38,0-2.5,1.12-2.5,2.5v12c0,1.38,1.12,2.5,2.5,2.5h9c1.38,0,2.5-1.12,2.5-2.5v-10.7c0-.84-.42-1.62-1.11-2.08Zm-8.39,2.28h2c.55,0,1,.45,1,1s-.45,1-1,1h-2c-.55,0-1-.45-1-1s.45-1,1-1Zm5,9h-5c-.55,0-1-.45-1-1s.45-1,1-1h5c.55,0,1,.45,1,1s-.45,1-1,1Zm0-3.5h-5c-.55,0-1-.45-1-1s.45-1,1-1h5c.55,0,1,.45,1,1s-.45,1-1,1Z"/>
</svg>