<?xml version="1.0" encoding="UTF-8"?>
<svg id="OBJECT" xmlns="http://www.w3.org/2000/svg" viewBox="0 0 32 32">
  <defs>
    <style>
      .cls-1 {
        fill: #FD4360;
      }

      .cls-1, .cls-2 {
        stroke-width: 0px;
      }

      .cls-2 {
        fill: #dadada;
      }
    </style>
  </defs>
  <g>
    <path class="cls-2" d="m20,11H4c-1.65,0-3,1.35-3,3v10c0,1.65,1.35,3,3,3h5v2h-2c-.55,0-1,.45-1,1s.45,1,1,1h10c.55,0,1-.45,1-1s-.45-1-1-1h-2v-2h5c1.65,0,3-1.35,3-3v-10c0-1.65-1.35-3-3-3Zm-16,2h16c.55,0,1,.45,1,1v7H3v-7c0-.55.45-1,1-1Zm9,16h-2v-2h2v2Zm7-4H4c-.55,0-1-.45-1-1v-1h18v1c0,.55-.45,1-1,1Z"/>
    <path class="cls-2" d="m5,16.75c.55,0,1-.45,1-1v-.5c0-.55-.45-1-1-1s-1,.45-1,1v.5c0,.55.45,1,1,1Z"/>
    <path class="cls-2" d="m9,16.75c.55,0,1-.45,1-1v-.5c0-.55-.45-1-1-1s-1,.45-1,1v.5c0,.55.45,1,1,1Z"/>
  </g>
  <g>
    <path class="cls-1" d="m29,1h-1v12.76c0,.38.21.72.55.89l2.45,1.19V3c0-1.1-.9-2-2-2Z"/>
    <path class="cls-1" d="m26,13.76V1h-5c-1.1,0-2,.9-2,2v6h3c1.66,0,3,1.34,3,3v14c0,1.66-1.34,3-3,3h-3c0,1.1.9,2,2,2h8c1.1,0,2-.9,2-2v-2h-4c-.55,0-1-.45-1-1s.45-1,1-1h4v-6.92l-3.33-1.62c-1.03-.52-1.67-1.54-1.67-2.69Z"/>
  </g>
</svg>