<?xml version="1.0" encoding="UTF-8"?>
<svg id="OBJECT" xmlns="http://www.w3.org/2000/svg" viewBox="0 0 32 32">
  <defs>
    <style>
      .cls-1 {
        fill: #FD4360;
      }

      .cls-1, .cls-2 {
        stroke-width: 0px;
      }

      .cls-2 {
        fill: #dadada;
      }
    </style>
  </defs>
  <path class="cls-2" d="m30.93,19.38c-.19-.83-.73-1.51-1.5-1.87-1.04-.49-2.28-.27-3.07.53l-3.81,3.66-3-4.53c-.74-1.12-1.99-1.79-3.33-1.79h-2.91c-1.49,0-2.85.82-3.54,2.14l-.21.39h-1.61c-.22-1.44-1.45-2.55-2.95-2.55h-3c-.55,0-1,.45-1,1v13c0,.55.45,1,1,1h3c1.65,0,3-1.35,3-3v-.55h2.32l1.41,2.28c.73,1.19,2.01,1.9,3.4,1.9h5.72c1.2,0,2.33-.53,3.09-1.46l6.43-7.83c.54-.65.74-1.5.55-2.33ZM5,28.37h-2v-11h2c.55,0,1,.45,1,1v9c0,.55-.45,1-1,1Zm23.83-7.93l-6.43,7.83c-.38.46-.95.73-1.55.73h-5.72c-.7,0-1.33-.35-1.7-.95l-1.71-2.76c-.18-.29-.5-.47-.85-.47h-2.88v-4.9h2.17c.37,0,.71-.21.89-.54l.49-.93c.35-.66,1.03-1.07,1.77-1.07h2.91c.67,0,1.3.33,1.67.9l3.2,4.83-.96.92c-.41.35-1.04.3-1.39-.11l-1.59-1.81c-.36-.42-1-.46-1.41-.09-.42.36-.46,1-.09,1.41l1.59,1.81c1.06,1.22,2.94,1.36,4.23.28l6.3-6.05c.21-.22.54-.27.82-.15.28.13.37.37.4.5.03.13.05.38-.15.62Z"/>
  <path class="cls-1" d="m18.4,14h9.21c.89,0,1.73-.39,2.3-1.08.57-.68.81-1.58.65-2.46l-1.27-7c-.26-1.43-1.5-2.46-2.95-2.46h-6.66c-1.45,0-2.69,1.04-2.95,2.46l-1.27,7c-.16.88.08,1.77.65,2.46.57.69,1.41,1.08,2.3,1.08Zm1.35-8.19c0-.55.45-1,1-1s1,.45,1,1v1.12c0,.69.56,1.25,1.25,1.25s1.25-.56,1.25-1.25v-1.12c0-.55.45-1,1-1s1,.45,1,1v1.12c0,1.79-1.46,3.25-3.25,3.25s-3.25-1.46-3.25-3.25v-1.12Z"/>
</svg>