<?xml version="1.0" encoding="UTF-8"?>
<svg id="OBJECT" xmlns="http://www.w3.org/2000/svg" viewBox="0 0 32 32">
  <defs>
    <style>
      .cls-1 {
        fill: #fd4460;
      }

      .cls-1, .cls-2 {
        stroke-width: 0px;
      }

      .cls-2 {
        fill: #dadada;
      }
    </style>
  </defs>
  <g>
    <path class="cls-2" d="m11.5,15.5h-1c-.55,0-1,.45-1,1s.45,1,1,1h1c.55,0,1-.45,1-1s-.45-1-1-1Z"/>
    <path class="cls-2" d="m16.5,15.5h-1c-.55,0-1,.45-1,1s.45,1,1,1h1c.55,0,1-.45,1-1s-.45-1-1-1Z"/>
    <path class="cls-2" d="m21.5,15.5h-1c-.55,0-1,.45-1,1s.45,1,1,1h1c.55,0,1-.45,1-1s-.45-1-1-1Z"/>
    <path class="cls-2" d="m12.5,9h-.5c-.55,0-1,.45-1,1s.45,1,1,1h.5c.55,0,1-.45,1-1s-.45-1-1-1Z"/>
    <path class="cls-2" d="m27,9h-1.11c-.39-1.95-1.91-3.49-3.91-3.88-1.4-2.52-4.09-4.12-6.99-4.12s-5.58,1.6-6.99,4.12c-2.03.4-3.58,1.99-3.93,3.99-1.76.42-3.08,2-3.08,3.89,0,2.21,1.79,4,4,4h1v1c0,1.38,1.12,2.5,2.5,2.5h15c1.38,0,2.5-1.12,2.5-2.5v-1h1c2.21,0,4-1.79,4-4s-1.79-4-4-4Zm-3,9c0,.28-.22.5-.5.5h-15c-.28,0-.5-.22-.5-.5v-3c0-.28.22-.5.5-.5h15c.28,0,.5.22.5.5v3Zm3-3h-1c0-1.38-1.12-2.5-2.5-2.5h-15c-1.38,0-2.5,1.12-2.5,2.5h-1c-1.1,0-2-.9-2-2s.9-2,2-2c.55,0,1-.45,1-1,0-1.56,1.18-2.84,2.75-2.97.36-.03.67-.25.82-.57.99-2.1,3.12-3.46,5.43-3.46s4.44,1.36,5.43,3.46c.15.32.46.54.82.57,1.21.1,2.19.89,2.57,1.97h-8.33c-.55,0-1,.45-1,1s.45,1,1,1h11.51c1.1,0,2,.9,2,2s-.9,2-2,2Z"/>
  </g>
  <path class="cls-1" d="m9.21,21.88l-1.42,1.42c-.39-.19-.82-.3-1.29-.3-1.65,0-3,1.35-3,3s1.35,3,3,3,3-1.35,3-3c0-.46-.11-.89-.3-1.29l1.42-1.42c.49-.49.77-1.12.85-1.79h-2.03c-.05.14-.12.27-.23.38Z"/>
  <path class="cls-1" d="m25.5,23c-.46,0-.89.11-1.29.3l-1.42-1.42c-.11-.11-.18-.24-.23-.38h-2.03c.07.68.36,1.31.85,1.79l1.42,1.42c-.19.39-.3.82-.3,1.29,0,1.65,1.35,3,3,3s3-1.35,3-3-1.35-3-3-3Z"/>
  <path class="cls-1" d="m17,23.14v-1.64h-2v1.64c-1.72.45-3,2-3,3.86,0,2.21,1.79,4,4,4s4-1.79,4-4c0-1.86-1.28-3.41-3-3.86Z"/>
</svg>