<?xml version="1.0" encoding="UTF-8"?>
<svg id="OBJECT" xmlns="http://www.w3.org/2000/svg" viewBox="0 0 32 32">
  <defs>
    <style>
      .cls-1 {
        fill: #FD4360;
      }

      .cls-2 {
        fill: #dadada;
      }
    </style>
  </defs>
  <g>
    <path class="cls-2" d="M30.71,5.96L26.04,1.29c-.39-.39-1.02-.39-1.41,0s-.39,1.02,0,1.41l.29,.29-1.42,1.42c-2.3-1.52-5.04-2.42-8-2.42C7.5,2,1,8.5,1,16.5s6.5,14.5,14.5,14.5,14.5-6.5,14.5-14.5c0-2.96-.89-5.71-2.42-8l1.42-1.42,.29,.29c.2,.2,.45,.29,.71,.29s.51-.1,.71-.29c.39-.39,.39-1.02,0-1.41ZM15.5,29c-6.89,0-12.5-5.61-12.5-12.5S8.61,4,15.5,4s12.5,5.61,12.5,12.5-5.61,12.5-12.5,12.5ZM26.34,6.91c-.39-.44-.81-.86-1.25-1.25l1.24-1.24,1.25,1.25-1.24,1.24Z"/>
    <path class="cls-2" d="M15.5,5.5c-6.07,0-11,4.93-11,11s4.93,11,11,11,11-4.93,11-11S21.57,5.5,15.5,5.5Zm0,20c-4.96,0-9-4.04-9-9S10.54,7.5,15.5,7.5s9,4.04,9,9-4.04,9-9,9Z"/>
  </g>
  <path class="cls-1" d="M20.71,11.29c-.23-.23-.55-.33-.87-.28l-4.9,.79c-2.13,.34-3.8,2.01-4.14,4.14l-.79,4.9c-.05,.32,.05,.64,.28,.87,.19,.19,.44,.29,.71,.29,.05,0,.11,0,.16-.01l4.9-.79c2.13-.34,3.8-2.01,4.14-4.14l.79-4.9c.05-.32-.05-.64-.28-.87Zm-4.45,5.96c-.2,.2-.45,.29-.71,.29s-.51-.1-.71-.29l-.1-.1c-.39-.39-.39-1.02,0-1.41s1.02-.39,1.41,0l.1,.1c.39,.39,.39,1.02,0,1.41Z"/>
</svg>