<?xml version="1.0" encoding="UTF-8"?>
<svg id="OBJECT" xmlns="http://www.w3.org/2000/svg" viewBox="0 0 32 32">
  <defs>
    <style>
      .cls-1 {
        fill: #FD4360;
      }

      .cls-1, .cls-2 {
        stroke-width: 0px;
      }

      .cls-2 {
        fill: #dadada;
      }
    </style>
  </defs>
  <path class="cls-1" d="m23,15c-4.41,0-8,3.59-8,8s3.59,8,8,8,8-3.59,8-8-3.59-8-8-8Zm-.74,7h1.48c1.37,0,2.48,1.11,2.48,2.48,0,1.28-.98,2.32-2.22,2.46v.51c0,.55-.45,1-1,1s-1-.45-1-1v-.48h-1.22c-.55,0-1-.45-1-1s.45-1,1-1h2.96c.27,0,.48-.22.48-.48s-.22-.48-.48-.48h-1.48c-1.37,0-2.48-1.11-2.48-2.48,0-1.28.98-2.32,2.22-2.46v-.51c0-.55.45-1,1-1s1,.45,1,1v.48h1.22c.55,0,1,.45,1,1s-.45,1-1,1h-2.96c-.27,0-.48.22-.48.48s.22.48.48.48Z"/>
  <g>
    <path class="cls-2" d="m26.42,4.36c-.34-.44-.96-.52-1.4-.19l-2.31,1.77c-.44.34-.52.96-.19,1.4.2.26.5.39.8.39.21,0,.42-.07.61-.21l2.31-1.77c.44-.34.52-.96.19-1.4Z"/>
    <path class="cls-2" d="m26.79,10.11l-1.4-.19c-.55-.07-1.05.31-1.12.86-.07.55.31,1.05.86,1.12l1.4.19s.09,0,.13,0c.49,0,.92-.37.99-.87.07-.55-.31-1.05-.86-1.12Z"/>
    <path class="cls-2" d="m20.11,1.37c-.55-.07-1.05.31-1.12.86l-.19,1.4c-.07.55.31,1.05.86,1.12.04,0,.09,0,.13,0,.49,0,.92-.37.99-.87l.19-1.4c.07-.55-.31-1.05-.86-1.12Z"/>
    <path class="cls-2" d="m15.86,10.46c.32-.72.5-1.51.5-2.35v-4.04c0-1.69-1.38-3.07-3.07-3.07h-5.58c-1.69,0-3.07,1.38-3.07,3.07v4.04c0,.83.18,1.62.49,2.34-2.48,1.16-4.14,3.67-4.14,6.48v6.4c0,1.65,1.35,3,3,3h2.98s.01,0,.02,0,.01,0,.02,0h6.26c.55,0,1-.45,1-1s-.45-1-1-1h-5.28v-4.4c0-.55-.45-1-1-1s-1,.45-1,1v4.4h-2c-.55,0-1-.45-1-1v-6.4c0-2.14,1.32-4.02,3.28-4.79,1.06,1.1,2.54,1.79,4.19,1.79h.08c1.63,0,3.11-.68,4.17-1.77,1.18.46,2.16,1.31,2.73,2.44.18.35.53.55.9.55.15,0,.3-.03.45-.11.49-.25.69-.85.45-1.34-.72-1.44-1.92-2.58-3.37-3.25Zm-5.32,1.47h-.08c-1.26,0-2.37-.62-3.07-1.57,0,0,0,0,0,0-.47-.63-.75-1.41-.75-2.25v-4.04c0-.59.48-1.07,1.07-1.07h5.58c.59,0,1.07.48,1.07,1.07v4.04c0,.85-.29,1.62-.75,2.25,0,0,0,0-.01.01-.7.94-1.8,1.55-3.05,1.55Z"/>
  </g>
</svg>