<?xml version="1.0" encoding="UTF-8"?>
<svg id="OBJECT" xmlns="http://www.w3.org/2000/svg" viewBox="0 0 32 32">
  <defs>
    <style>
      .cls-1 {
        fill: #FD4360;
      }

      .cls-1, .cls-2 {
        stroke-width: 0px;
      }

      .cls-2 {
        fill: #dadada;
      }
    </style>
  </defs>
  <g>
    <path class="cls-2" d="m27.38,10.02c-.39-1.53-1.66-2.71-3.24-2.97-1.07-3.55-4.37-6.05-8.14-6.05s-7.07,2.5-8.14,6.05c-1.58.25-2.85,1.44-3.24,2.97-2.03.19-3.62,1.9-3.62,3.98,0,2.21,1.79,4,4,4h22c2.21,0,4-1.79,4-4,0-2.08-1.59-3.79-3.62-3.98Zm-16.38,4.98c0-2.76,2.24-5,5-5s5,2.24,5,5c0,.33-.05.67-.12,1h-9.77c-.07-.33-.12-.67-.12-1Zm16,1h-4.09c.05-.33.09-.67.09-1,0-3.86-3.14-7-7-7s-7,3.14-7,7c0,.33.04.67.09,1h-4.09c-1.1,0-2-.9-2-2s.9-2,2-2h.5c.55,0,1-.45,1-1,0-1.1.9-2,1.94-2,.03,0,.13.01.16.02.49.02.93-.32,1.03-.8.61-3.02,3.29-5.21,6.37-5.21s5.76,2.19,6.37,5.21c.1.48.54.82,1.03.8.05,0,.11,0,.1-.01,1.1,0,2,.9,2,2,0,.55.45,1,1,1h.5c1.1,0,2,.9,2,2s-.9,2-2,2Z"/>
    <path class="cls-2" d="m17,13h-2c-.55,0-1,.45-1,1s.45,1,1,1h2c.55,0,1-.45,1-1s-.45-1-1-1Z"/>
  </g>
  <g>
    <path class="cls-1" d="m26,23c-.77,0-1.46.3-1.99.77l-1.99-1.08c-.32-.18-.52-.51-.52-.88v-1.81h-2v1.81c0,1.1.6,2.11,1.56,2.63l1.98,1.08c-.02.15-.05.31-.05.47,0,1.65,1.35,3,3,3s3-1.35,3-3-1.35-3-3-3Z"/>
    <path class="cls-1" d="m12.5,20h-2v1.81c0,.37-.2.7-.52.88l-1.99,1.08c-.53-.48-1.22-.77-1.99-.77-1.65,0-3,1.35-3,3s1.35,3,3,3,3-1.35,3-3c0-.16-.02-.32-.05-.47l1.98-1.08c.96-.53,1.56-1.53,1.56-2.63v-1.81Z"/>
    <path class="cls-1" d="m17,24.16v-4.16h-2v4.16c-1.44.43-2.5,1.76-2.5,3.34,0,1.93,1.57,3.5,3.5,3.5s3.5-1.57,3.5-3.5c0-1.58-1.06-2.9-2.5-3.34Z"/>
  </g>
</svg>