<?xml version="1.0" encoding="UTF-8"?>
<svg id="OBJECT" xmlns="http://www.w3.org/2000/svg" viewBox="0 0 32 32">
  <defs>
    <style>
      .cls-1 {
        fill: #FD4360;
      }

      .cls-1, .cls-2 {
        stroke-width: 0px;
      }

      .cls-2 {
        fill: #dadada;
      }
    </style>
  </defs>
  <path class="cls-2" d="m28,1h-6c-1.65,0-3,1.35-3,3v5c0,.55.45,1,1,1s1-.45,1-1v-5c0-.55.45-1,1-1h3v9.76c0,1.14.64,2.17,1.66,2.68l2.34,1.17v5.38h-4c-.55,0-1,.45-1,1s.45,1,1,1h4v4c0,.55-.45,1-1,1h-8c-.55,0-1,.45-1,1s.45,1,1,1h8c1.65,0,3-1.35,3-3V4c0-1.65-1.35-3-3-3Zm-.45,12.66c-.34-.17-.55-.51-.55-.89V3h1c.55,0,1,.45,1,1v10.38l-1.45-.72Z"/>
  <path class="cls-1" d="m16.5,29h-2v-2h6.5c.55,0,1-.45,1-1v-14c0-.55-.45-1-1-1H2c-.55,0-1,.45-1,1v14c0,.55.45,1,1,1h6.5v2h-2c-.55,0-1,.45-1,1s.45,1,1,1h10c.55,0,1-.45,1-1s-.45-1-1-1Zm-2.43-8.29c-.19.19-.45.29-.7.29s-.52-.1-.71-.3c-.62-.64-1.7-.64-2.32,0-.38.4-1.02.4-1.41.02-.39-.39-.4-1.02-.02-1.41,1.38-1.41,3.8-1.41,5.18,0,.39.39.38,1.03-.02,1.41Zm-3.78,1.67c0-.55.45-1,1-1h.42c.55,0,1,.45,1,1s-.45,1-1,1h-.42c-.55,0-1-.45-1-1Zm-3.24-4.45c-.39-.39-.4-1.02-.02-1.41,1.19-1.22,2.78-1.89,4.46-1.89s3.27.67,4.46,1.89c.39.39.38,1.03-.02,1.41-.19.19-.45.29-.7.29s-.52-.1-.71-.3c-.81-.83-1.89-1.29-3.04-1.29s-2.22.46-3.04,1.29c-.39.4-1.02.4-1.41.02Zm3.45,9.07h2v2h-2v-2Z"/>
</svg>