<?xml version="1.0" encoding="UTF-8"?>
<svg id="OBJECT" xmlns="http://www.w3.org/2000/svg" viewBox="0 0 512 512">
  <defs>
    <style>
      .cls-1 {
        fill: #FD4360;
      }

      .cls-2 {
        fill: #dadada;
      }
    </style>
  </defs>
  <g>
    <path class="cls-2" d="M504.5,447h-26V194.5c0-15.16-12.34-27.5-27.5-27.5h-37.5V22.5c0-12.41-10.09-22.5-22.5-22.5H121c-12.41,0-22.5,10.09-22.5,22.5V167H61c-15.16,0-27.5,12.34-27.5,27.5v252.5H7.5c-4.14,0-7.5,3.36-7.5,7.5v30c0,15.16,12.34,27.5,27.5,27.5H484.5c15.16,0,27.5-12.34,27.5-27.5v-30c0-4.14-3.36-7.5-7.5-7.5ZM113.5,22.5c0-4.14,3.36-7.5,7.5-7.5H391c4.14,0,7.5,3.36,7.5,7.5V362.5c0,4.14-3.36,7.5-7.5,7.5H121c-4.14,0-7.5-3.36-7.5-7.5V22.5ZM48.5,194.5c0-6.89,5.61-12.5,12.5-12.5h37.5v180.5c0,12.41,10.09,22.5,22.5,22.5H391c12.41,0,22.5-10.09,22.5-22.5V182h37.5c6.89,0,12.5,5.61,12.5,12.5v252.5H48.5V194.5ZM497,484.5c0,6.89-5.61,12.5-12.5,12.5H27.5c-6.89,0-12.5-5.61-12.5-12.5v-22.5H497v22.5Z"/>
    <path class="cls-2" d="M436,340c-4.14,0-7.5,3.36-7.5,7.5v15c0,20.68-16.82,37.5-37.5,37.5h-15c-4.14,0-7.5,3.36-7.5,7.5s3.36,7.5,7.5,7.5h15c28.95,0,52.5-23.55,52.5-52.5v-15c0-4.14-3.36-7.5-7.5-7.5Z"/>
    <path class="cls-2" d="M136,400h-15c-20.68,0-37.5-16.82-37.5-37.5v-15c0-4.14-3.36-7.5-7.5-7.5s-7.5,3.36-7.5,7.5v15c0,28.95,23.55,52.5,52.5,52.5h15c4.14,0,7.5-3.36,7.5-7.5s-3.36-7.5-7.5-7.5Z"/>
    <path class="cls-2" d="M356,45h15c4.14,0,7.5-3.36,7.5-7.5s-3.36-7.5-7.5-7.5h-15c-4.14,0-7.5,3.36-7.5,7.5s3.36,7.5,7.5,7.5Z"/>
    <path class="cls-2" d="M141,45h15c4.14,0,7.5-3.36,7.5-7.5s-3.36-7.5-7.5-7.5h-15c-4.14,0-7.5,3.36-7.5,7.5s3.36,7.5,7.5,7.5Z"/>
  </g>
  <g>
    <path class="cls-1" d="M366.53,285.38c-3.07-9.2-11.65-15.38-21.35-15.38h-11.75c.03-.83,.06-1.66,.06-2.5v-22.5h32.5c4.14,0,7.5-3.36,7.5-7.5s-3.36-7.5-7.5-7.5h-32.5v-25h11.69c9.7,0,18.28-6.18,21.35-15.38l6.58-19.74c1.31-3.93-.81-8.18-4.74-9.49-3.93-1.31-8.18,.81-9.49,4.74l-6.58,19.74c-1.02,3.07-3.88,5.13-7.12,5.13h-11.69v-20h-70v97.5c0,4.14-3.36,7.5-7.5,7.5s-7.5-3.36-7.5-7.5v-97.5h-70v20h-11.69c-3.23,0-6.09-2.06-7.12-5.13l-6.58-19.74c-1.31-3.93-5.56-6.05-9.49-4.74-3.93,1.31-6.05,5.56-4.74,9.49l6.58,19.74c3.07,9.2,11.65,15.38,21.35,15.38h11.69v25h-32.5c-4.14,0-7.5,3.36-7.5,7.5s3.36,7.5,7.5,7.5h32.5v22.5c0,.84,.04,1.67,.06,2.5h-11.75c-9.7,0-18.28,6.18-21.35,15.38l-6.58,19.74c-1.31,3.93,.81,8.18,4.74,9.49,.79,.26,1.59,.39,2.37,.39,3.14,0,6.07-1.99,7.11-5.13l6.58-19.74c1.02-3.07,3.88-5.13,7.12-5.13h13.71c7.96,34.33,38.77,60,75.48,60s67.53-25.67,75.48-60h13.71c3.23,0,6.09,2.06,7.12,5.13l6.58,19.74c1.05,3.14,3.97,5.13,7.11,5.13,.79,0,1.59-.12,2.37-.39,3.93-1.31,6.05-5.56,4.74-9.49l-6.58-19.74Zm-103.03,12.12c0,4.14-3.36,7.5-7.5,7.5s-7.5-3.36-7.5-7.5v-5c0-4.14,3.36-7.5,7.5-7.5s7.5,3.36,7.5,7.5v5Z"/>
    <path class="cls-1" d="M208.69,54.64c14.39,4.66,19.29,20.83,20.86,29.01-3.81,5.32-6.05,11.83-6.05,18.86v17.5h65v-17.5c0-7.03-2.25-13.53-6.05-18.86,1.58-8.18,6.47-24.35,20.86-29.01,3.94-1.28,6.1-5.5,4.83-9.44-1.28-3.94-5.51-6.1-9.44-4.83-17.45,5.65-25.41,21.07-29.01,32.67-4.16-1.94-8.8-3.03-13.68-3.03s-9.52,1.09-13.68,3.03c-3.59-11.59-11.56-27.02-29.01-32.67-3.94-1.27-8.17,.88-9.44,4.83-1.28,3.94,.89,8.17,4.83,9.44Z"/>
    <path class="cls-1" d="M333.5,150c0-8.28-6.72-15-15-15h-125c-8.28,0-15,6.72-15,15v5h155v-5Z"/>
  </g>
</svg>