<?xml version="1.0" encoding="UTF-8"?>
<svg id="OBJECT" xmlns="http://www.w3.org/2000/svg" viewBox="0 0 32 32">
  <defs>
    <style>
      .cls-1 {
        fill: #FD4360;
      }

      .cls-1, .cls-2 {
        stroke-width: 0px;
      }

      .cls-2 {
        fill: #dadada;
      }
    </style>
  </defs>
  <g>
    <path class="cls-2" d="m30,11h-15c-.55,0-1,.45-1,1v11c0,.55.45,1,1,1h4v2h-1.5c-.55,0-1,.45-1,1s.45,1,1,1h10c.55,0,1-.45,1-1s-.45-1-1-1h-1.5v-2h4c.55,0,1-.45,1-1v-11c0-.55-.45-1-1-1Zm-6,15h-3v-2h3v2Zm5-4h-13v-9h13v9Z"/>
    <path class="cls-2" d="m18.25,16h.5c.55,0,1-.45,1-1s-.45-1-1-1h-.5c-.55,0-1,.45-1,1s.45,1,1,1Z"/>
    <path class="cls-2" d="m22.25,16h.5c.55,0,1-.45,1-1s-.45-1-1-1h-.5c-.55,0-1,.45-1,1s.45,1,1,1Z"/>
  </g>
  <g>
    <path class="cls-1" d="m5,17.65V4h-3c-.55,0-1,.45-1,1v14.92l3.37-1.35c.38-.15.63-.52.63-.93Z"/>
    <path class="cls-1" d="m9,24h3V5c0-.55-.45-1-1-1h-4v13.65c0,1.23-.74,2.33-1.89,2.79l-4.11,1.65v4.92c0,.55.45,1,1,1h9c.55,0,1-.45,1-1v-1h-3c-.55,0-1-.45-1-1s.45-1,1-1Z"/>
  </g>
</svg>