<?xml version="1.0" encoding="UTF-8"?>
<svg id="OBJECT" xmlns="http://www.w3.org/2000/svg" viewBox="0 0 32 32">
  <defs>
    <style>
      .cls-1 {
        fill: #FD4360;
      }

      .cls-1, .cls-2 {
        stroke-width: 0px;
      }

      .cls-2 {
        fill: #dadada;
      }
    </style>
  </defs>
  <path class="cls-2" d="m26,21c-1.45,0-2.74.63-3.66,1.62l-5.11-3.1c.49-1.07.77-2.26.77-3.52,0-4.69-3.81-8.5-8.5-8.5S1,11.31,1,16s3.81,8.5,8.5,8.5c2.72,0,5.13-1.29,6.69-3.27l5.12,3.1c-.19.53-.31,1.08-.31,1.67,0,2.76,2.24,5,5,5s5-2.24,5-5-2.24-5-5-5ZM9.5,9.5c3.58,0,6.5,2.92,6.5,6.5,0,.77-.14,1.5-.39,2.19-.73-.76-1.59-1.37-2.55-1.81.2-.47.32-.99.32-1.53,0-2.14-1.74-3.88-3.88-3.88s-3.88,1.74-3.88,3.88c0,.54.11,1.06.32,1.53-.95.44-1.82,1.05-2.55,1.81-.25-.68-.39-1.42-.39-2.19,0-3.58,2.92-6.5,6.5-6.5Zm-1.88,5.35c0-1.04.85-1.88,1.88-1.88s1.88.84,1.88,1.88-.85,1.88-1.88,1.88-1.88-.85-1.88-1.88Zm1.88,7.65c-2.05,0-3.88-.96-5.07-2.44.74-.93,1.71-1.64,2.83-2.05.63.45,1.4.72,2.24.72s1.6-.27,2.24-.72c1.12.41,2.09,1.12,2.83,2.05-1.19,1.49-3.02,2.44-5.07,2.44Zm16.5,6.5c-1.65,0-3-1.35-3-3s1.35-3,3-3,3,1.35,3,3-1.35,3-3,3Z"/>
  <path class="cls-1" d="m18.95,11.44l3.4-2.06c.91.99,2.21,1.62,3.66,1.62,2.76,0,5-2.24,5-5s-2.24-5-5-5-5,2.24-5,5c0,.59.12,1.15.31,1.67l-3.4,2.06c.4.53.75,1.1,1.04,1.71Z"/>
</svg>