<?xml version="1.0" encoding="UTF-8"?>
<svg id="OBJECT" xmlns="http://www.w3.org/2000/svg" viewBox="0 0 32 32">
  <defs>
    <style>
      .cls-1 {
        fill: #FD4360;
      }

      .cls-1, .cls-2 {
        stroke-width: 0px;
      }

      .cls-2 {
        fill: #dadada;
      }
    </style>
  </defs>
  <g>
    <path class="cls-2" d="m16,1C7.73,1,1,7.73,1,16s6.73,15,15,15,15-6.73,15-15S24.27,1,16,1Zm0,28c-7.17,0-13-5.83-13-13S8.83,3,16,3s13,5.83,13,13-5.83,13-13,13Z"/>
    <path class="cls-2" d="m16,4.5c-6.34,0-11.5,5.16-11.5,11.5s5.16,11.5,11.5,11.5,11.5-5.16,11.5-11.5-5.16-11.5-11.5-11.5Zm0,21c-5.24,0-9.5-4.26-9.5-9.5s4.26-9.5,9.5-9.5,9.5,4.26,9.5,9.5-4.26,9.5-9.5,9.5Z"/>
  </g>
  <g>
    <path class="cls-1" d="m11.75,13.16s0,0,0,0h0s-2.13,6.38-2.13,6.38c-.27.81-.06,1.69.54,2.3.43.43,1,.66,1.58.66.24,0,.48-.04.71-.12l6.38-2.13s0,0,0,0l-7.09-7.09Z"/>
    <path class="cls-1" d="m20.25,18.84s0,0,0,0l2.13-6.38c.27-.81.06-1.69-.54-2.3-.6-.6-1.48-.81-2.3-.54l-6.38,2.13s0,0,0,0l7.09,7.09Z"/>
  </g>
</svg>