<?xml version="1.0" encoding="UTF-8"?>
<svg id="OBJECT" xmlns="http://www.w3.org/2000/svg" viewBox="0 0 512 512">
  <defs>
    <style>
      .cls-1 {
        fill: #FD4360;
      }

      .cls-2 {
        fill: #dadada;
      }
    </style>
  </defs>
  <g>
    <path class="cls-2" d="M241,45c4.14,0,7.5-3.36,7.5-7.5s-3.36-7.5-7.5-7.5h-30c-4.14,0-7.5,3.36-7.5,7.5s3.36,7.5,7.5,7.5h30Z"/>
    <path class="cls-2" d="M186,45c4.14,0,7.5-3.36,7.5-7.5s-3.36-7.5-7.5-7.5h-5c-4.14,0-7.5,3.36-7.5,7.5s3.36,7.5,7.5,7.5h5Z"/>
    <path class="cls-2" d="M256,387h-90c-15.16,0-27.5,12.34-27.5,27.5s12.34,27.5,27.5,27.5h90c15.16,0,27.5-12.34,27.5-27.5s-12.34-27.5-27.5-27.5Zm0,40h-90c-6.89,0-12.5-5.61-12.5-12.5s5.61-12.5,12.5-12.5h90c6.89,0,12.5,5.61,12.5,12.5s-5.61,12.5-12.5,12.5Z"/>
    <path class="cls-2" d="M341,102c4.14,0,7.5-3.36,7.5-7.5V42.5c0-23.43-19.07-42.5-42.5-42.5H116c-23.43,0-42.5,19.07-42.5,42.5V469.5c0,23.43,19.07,42.5,42.5,42.5h190c23.43,0,42.5-19.07,42.5-42.5v-95c0-4.14-3.36-7.5-7.5-7.5s-7.5,3.36-7.5,7.5v95c0,15.16-12.34,27.5-27.5,27.5H116c-15.16,0-27.5-12.34-27.5-27.5V42.5c0-15.16,12.34-27.5,27.5-27.5h190c15.16,0,27.5,12.34,27.5,27.5v52c0,4.14,3.36,7.5,7.5,7.5Z"/>
    <path class="cls-2" d="M311,102c4.14,0,7.5-3.36,7.5-7.5V52.5c0-12.41-10.09-22.5-22.5-22.5h-14.19c-9.7,0-18.28,6.18-21.35,15.38l-3.16,9.49c-1.02,3.07-3.88,5.13-7.12,5.13h-78.38c-3.23,0-6.09-2.06-7.12-5.13l-3.16-9.49c-3.07-9.2-11.65-15.38-21.35-15.38h-14.19c-12.41,0-22.5,10.09-22.5,22.5V459.5c0,12.41,10.09,22.5,22.5,22.5h170c12.41,0,22.5-10.09,22.5-22.5v-85c0-4.14-3.36-7.5-7.5-7.5s-7.5,3.36-7.5,7.5v85c0,4.14-3.36,7.5-7.5,7.5H126c-4.14,0-7.5-3.36-7.5-7.5V52.5c0-4.14,3.36-7.5,7.5-7.5h14.19c3.23,0,6.09,2.06,7.12,5.13l3.16,9.49c3.07,9.2,11.65,15.38,21.35,15.38h78.38c9.7,0,18.28-6.18,21.35-15.38l3.16-9.49c1.02-3.07,3.88-5.13,7.12-5.13h14.19c4.14,0,7.5,3.36,7.5,7.5v42c0,4.14,3.36,7.5,7.5,7.5Z"/>
  </g>
  <g>
    <path class="cls-1" d="M431,117H191c-4.14,0-7.5,3.36-7.5,7.5v45c0,17.92,14.58,32.5,32.5,32.5h30c10.04,0,19.03-4.58,25-11.75,5.97,7.18,14.96,11.75,25,11.75h30c10.04,0,19.03-4.58,25-11.75,5.97,7.18,14.96,11.75,25,11.75h30c17.92,0,32.5-14.58,32.5-32.5v-45c0-4.14-3.36-7.5-7.5-7.5Z"/>
    <path class="cls-1" d="M321,267h-20c-12.41,0-22.5,10.09-22.5,22.5v62.5h65v-62.5c0-12.41-10.09-22.5-22.5-22.5Z"/>
    <path class="cls-1" d="M431,337h-7.5v-123.35c-5.42,2.16-11.32,3.35-17.5,3.35h-30c-8.96,0-17.58-2.51-25-7.11-7.42,4.61-16.04,7.11-25,7.11h-30c-8.96,0-17.58-2.51-25-7.11-7.42,4.61-16.04,7.11-25,7.11h-30c-6.18,0-12.08-1.2-17.5-3.35v123.35h-7.5c-4.14,0-7.5,3.36-7.5,7.5s3.36,7.5,7.5,7.5h72.5v-62.5c0-20.68,16.82-37.5,37.5-37.5h20c20.68,0,37.5,16.82,37.5,37.5v62.5h72.5c4.14,0,7.5-3.36,7.5-7.5s-3.36-7.5-7.5-7.5Z"/>
  </g>
</svg>