<?xml version="1.0" encoding="UTF-8"?>
<svg id="OBJECT" xmlns="http://www.w3.org/2000/svg" viewBox="0 0 32 32">
  <defs>
    <style>
      .cls-1 {
        fill: #FD4360;
      }

      .cls-2 {
        fill: #dadada;
      }
    </style>
  </defs>
  <path class="cls-2" d="M22.66,3.18c-.17-1.24-1.23-2.18-2.48-2.18H11.82c-1.25,0-2.32,.94-2.48,2.18l-2.57,19.69c-.07,.55,.31,1.05,.86,1.12,.55,.07,1.05-.32,1.12-.86l.25-1.88h14.01l.25,1.88c.07,.5,.5,.87,.99,.87,.04,0,.09,0,.13,0,.55-.07,.93-.57,.86-1.12L22.66,3.18Zm-1.09,7.07H10.43l.33-2.5h10.48l.33,2.5Zm.26,2l.33,2.5H9.84l.33-2.5h11.66ZM11.82,3h8.36c.25,0,.46,.19,.5,.44l.3,2.31H11.02l.3-2.31c.03-.26,.24-.44,.5-.44Zm-2.56,16.25l.33-2.5h12.83l.33,2.5H9.26Z"/>
  <path class="cls-1" d="M26.5,26H5.5c-.83,0-1.5,.67-1.5,1.5v3.5H28v-3.5c0-.83-.67-1.5-1.5-1.5Z"/>
</svg>