<?xml version="1.0" encoding="UTF-8"?>
<svg id="OBJECT" xmlns="http://www.w3.org/2000/svg" viewBox="0 0 32 32">
  <defs>
    <style>
      .cls-1 {
        fill: #FD4360;
      }

      .cls-1, .cls-2 {
        stroke-width: 0px;
      }

      .cls-2 {
        fill: #dadada;
      }
    </style>
  </defs>
  <g>
    <path class="cls-2" d="m22,1h-12c-1.65,0-3,1.35-3,3v2c0,.55.45,1,1,1s1-.45,1-1v-2c0-.55.45-1,1-1h12c.55,0,1,.45,1,1v2c0,.55.45,1,1,1s1-.45,1-1v-2c0-1.65-1.35-3-3-3Z"/>
    <path class="cls-2" d="m24,25c-.55,0-1,.45-1,1v2c0,.55-.45,1-1,1h-12c-.55,0-1-.45-1-1v-2c0-.55-.45-1-1-1s-1,.45-1,1v2c0,1.65,1.35,3,3,3h12c1.65,0,3-1.35,3-3v-2c0-.55-.45-1-1-1Z"/>
    <path class="cls-2" d="m15,20v-8c0-2.28-3.01-4-7-4s-7,1.72-7,4v8c0,2.28,3.01,4,7,4s7-1.72,7-4Zm-7-10c3.05,0,5,1.18,5,2s-1.95,2-5,2-5-1.18-5-2,1.95-2,5-2Zm-5,4.85c1.25.72,3,1.15,5,1.15s3.75-.43,5-1.15v1.15c0,.82-1.95,2-5,2s-5-1.18-5-2v-1.15Zm0,5.15v-1.15c1.25.72,3,1.15,5,1.15s3.75-.43,5-1.15v1.15c0,.82-1.95,2-5,2s-5-1.18-5-2Z"/>
    <path class="cls-2" d="m6,13h.44c.55,0,1-.45,1-1s-.45-1-1-1h-.44c-.55,0-1,.45-1,1s.45,1,1,1Z"/>
    <path class="cls-2" d="m9.56,13h.44c.55,0,1-.45,1-1s-.45-1-1-1h-.44c-.55,0-1,.45-1,1s.45,1,1,1Z"/>
  </g>
  <g>
    <path class="cls-1" d="m24,18c-3.13,0-5.67-1.15-7-2.97v.97c0,2.28,3.01,4,7,4s7-1.72,7-4v-.97c-1.33,1.82-3.87,2.97-7,2.97Z"/>
    <path class="cls-1" d="m24,22c-3.13,0-5.67-1.15-7-2.97v.97c0,2.28,3.01,4,7,4s7-1.72,7-4v-.97c-1.33,1.82-3.87,2.97-7,2.97Z"/>
    <path class="cls-1" d="m24,16c3.99,0,7-1.72,7-4s-3.01-4-7-4-7,1.72-7,4,3.01,4,7,4Zm1.56-5h.44c.55,0,1,.45,1,1s-.45,1-1,1h-.44c-.55,0-1-.45-1-1s.45-1,1-1Zm-3.56,0h.44c.55,0,1,.45,1,1s-.45,1-1,1h-.44c-.55,0-1-.45-1-1s.45-1,1-1Z"/>
  </g>
</svg>