<?xml version="1.0" encoding="UTF-8"?>
<svg id="OBJECT" xmlns="http://www.w3.org/2000/svg" viewBox="0 0 32 32">
  <defs>
    <style>
      .cls-1 {
        fill: #FD4360;
      }

      .cls-1, .cls-2 {
        stroke-width: 0px;
      }

      .cls-2 {
        fill: #dadada;
      }
    </style>
  </defs>
  <path class="cls-1" d="m28.5,25.5H3.5c-1.38,0-2.5,1.12-2.5,2.5v.5c0,1.38,1.12,2.5,2.5,2.5h25c1.38,0,2.5-1.12,2.5-2.5v-.5c0-1.38-1.12-2.5-2.5-2.5Z"/>
  <g>
    <path class="cls-2" d="m27.45,22.18L20.79,2.72c-.34-1.03-1.29-1.72-2.38-1.72h-4.82c-1.08,0-2.04.69-2.37,1.71l-6.66,19.47c-.18.52.1,1.09.62,1.27.52.17,1.09-.1,1.27-.62l.31-.91h10.69c.55,0,1-.45,1-1s-.45-1-1-1H7.44l.96-2.79h15.2l1.95,5.71c.14.42.53.68.95.68.11,0,.22-.02.32-.05.52-.18.8-.75.62-1.27ZM13.11,3.34c.07-.21.26-.34.47-.34h4.82c.22,0,.41.14.48.36l2.56,7.47h-10.9l2.56-7.48Zm-4.03,11.77l.78-2.29h12.26l.78,2.29h-13.83Z"/>
    <path class="cls-2" d="m21.55,19.91h-1.39c-.55,0-1,.45-1,1s.45,1,1,1h1.39c.55,0,1-.45,1-1s-.45-1-1-1Z"/>
  </g>
</svg>