<?xml version="1.0" encoding="UTF-8"?>
<svg id="OBJECT" xmlns="http://www.w3.org/2000/svg" viewBox="0 0 32 32">
  <defs>
    <style>
      .cls-1 {
        fill: #FD4360;
      }

      .cls-1, .cls-2 {
        stroke-width: 0px;
      }

      .cls-2 {
        fill: #dadada;
      }
    </style>
  </defs>
  <g>
    <path class="cls-2" d="m10.44,23.11c.03-.2.06-.4.06-.61v-1.5c0-1.65-1.35-3-3-3h-1c-1.65,0-3,1.35-3,3v1.5c0,.21.03.41.06.61-1.6,1.11-2.56,2.92-2.56,4.89v.5c0,1.38,1.12,2.5,2.5,2.5h7c1.38,0,2.5-1.12,2.5-2.5v-.5c0-1.97-.96-3.78-2.56-4.89Zm-4.94-2.11c0-.55.45-1,1-1h1c.55,0,1,.45,1,1v1.5c0,.83-.67,1.5-1.5,1.5s-1.5-.67-1.5-1.5v-1.5Zm5.5,7.5c0,.28-.22.5-.5.5H3.5c-.28,0-.5-.22-.5-.5v-.5c0-1.21.56-2.33,1.49-3.08.64.66,1.53,1.08,2.51,1.08s1.88-.42,2.51-1.08c.93.75,1.49,1.86,1.49,3.08v.5Z"/>
    <path class="cls-2" d="m24,9c0-4.41-3.59-8-8-8s-8,3.59-8,8c0,4.07,3.06,7.44,7,7.93v1.61l-3.15,2.7c-.42.36-.47.99-.11,1.41.36.42.99.47,1.41.11l2.85-2.44,2.85,2.44c.19.16.42.24.65.24.28,0,.56-.12.76-.35.36-.42.31-1.05-.11-1.41l-3.15-2.7v-1.61c3.94-.49,7-3.86,7-7.93Zm-8-6c3.31,0,6,2.69,6,6,0,.8-.16,1.56-.44,2.25-.72-.69-1.56-1.24-2.48-1.62.26-.49.42-1.04.42-1.63,0-1.93-1.57-3.5-3.5-3.5s-3.5,1.57-3.5,3.5c0,.59.16,1.14.42,1.63-.92.38-1.76.93-2.48,1.62-.28-.7-.44-1.46-.44-2.25,0-3.31,2.69-6,6-6Zm-1.5,5c0-.83.67-1.5,1.5-1.5s1.5.67,1.5,1.5-.67,1.5-1.5,1.5-1.5-.67-1.5-1.5Zm-2.95,5.02c.81-.9,1.85-1.53,3.04-1.81.43.19.9.3,1.4.3s.97-.11,1.4-.3c1.19.29,2.23.92,3.04,1.81-1.1,1.22-2.68,1.98-4.45,1.98s-3.35-.77-4.45-1.98Z"/>
  </g>
  <g>
    <path class="cls-1" d="m29.56,24.11c-.82,1.7-2.55,2.89-4.56,2.89s-3.74-1.19-4.56-2.89c-.89,1.05-1.44,2.4-1.44,3.89v.5c0,1.38,1.12,2.5,2.5,2.5h7c1.38,0,2.5-1.12,2.5-2.5v-.5c0-1.48-.54-2.84-1.44-3.89Z"/>
    <path class="cls-1" d="m25,25c1.7,0,3.08-1.38,3.08-3.08v-1.25c0-1.47-1.2-2.67-2.67-2.67h-.83c-1.47,0-2.67,1.2-2.67,2.67v1.25c0,1.7,1.38,3.08,3.08,3.08Z"/>
  </g>
</svg>