<?xml version="1.0" encoding="UTF-8"?>
<svg id="OBJECT" xmlns="http://www.w3.org/2000/svg" viewBox="0 0 512 512">
  <defs>
    <style>
      .cls-1 {
        fill: #FD4360;
      }

      .cls-2 {
        fill: #dadada;
      }
    </style>
  </defs>
  <g>
    <path class="cls-2" d="M489.5,100h-86.87C379.61,41.51,322.56,0,256,0S132.39,41.51,109.37,100H22.5c-12.41,0-22.5,10.09-22.5,22.5V409.5c0,12.41,10.09,22.5,22.5,22.5H208.5v35h-57.5c-12.41,0-22.5,10.09-22.5,22.5v15c0,4.14,3.36,7.5,7.5,7.5h240c4.14,0,7.5-3.36,7.5-7.5v-15c0-12.41-10.09-22.5-22.5-22.5h-57.5v-35h186c12.41,0,22.5-10.09,22.5-22.5V122.5c0-12.41-10.09-22.5-22.5-22.5ZM256,15c78.58,0,142.5,63.93,142.5,142.5s-63.92,142.5-142.5,142.5S113.5,236.07,113.5,157.5,177.42,15,256,15Zm105,467c4.14,0,7.5,3.36,7.5,7.5v7.5H143.5v-7.5c0-4.14,3.36-7.5,7.5-7.5h210Zm-137.5-15v-35h65v35h-65Zm273.5-57.5c0,4.14-3.36,7.5-7.5,7.5H22.5c-4.14,0-7.5-3.36-7.5-7.5v-37.5H497v37.5Zm0-52.5H15V122.5c0-4.14,3.36-7.5,7.5-7.5H104.33c-3.79,13.53-5.83,27.78-5.83,42.5,0,86.85,70.65,157.5,157.5,157.5s157.5-70.65,157.5-157.5c0-14.72-2.04-28.97-5.83-42.5h81.83c4.14,0,7.5,3.36,7.5,7.5v234.5Z"/>
    <path class="cls-2" d="M102.5,272H62.5c-12.41,0-22.5,10.09-22.5,22.5v15c0,12.41,10.09,22.5,22.5,22.5h40c12.41,0,22.5-10.09,22.5-22.5v-15c0-12.41-10.09-22.5-22.5-22.5Zm7.5,37.5c0,4.14-3.36,7.5-7.5,7.5H62.5c-4.14,0-7.5-3.36-7.5-7.5v-15c0-4.14,3.36-7.5,7.5-7.5h40c4.14,0,7.5,3.36,7.5,7.5v15Z"/>
    <path class="cls-2" d="M449.5,272h-40c-12.41,0-22.5,10.09-22.5,22.5v15c0,12.41,10.09,22.5,22.5,22.5h40c12.41,0,22.5-10.09,22.5-22.5v-15c0-12.41-10.09-22.5-22.5-22.5Zm7.5,37.5c0,4.14-3.36,7.5-7.5,7.5h-40c-4.14,0-7.5-3.36-7.5-7.5v-15c0-4.14,3.36-7.5,7.5-7.5h40c4.14,0,7.5,3.36,7.5,7.5v15Z"/>
    <path class="cls-2" d="M198.5,402h15c4.14,0,7.5-3.36,7.5-7.5s-3.36-7.5-7.5-7.5h-15c-4.14,0-7.5,3.36-7.5,7.5s3.36,7.5,7.5,7.5Z"/>
    <path class="cls-2" d="M248.5,402h15c4.14,0,7.5-3.36,7.5-7.5s-3.36-7.5-7.5-7.5h-15c-4.14,0-7.5,3.36-7.5,7.5s3.36,7.5,7.5,7.5Z"/>
    <path class="cls-2" d="M298.5,402h15c4.14,0,7.5-3.36,7.5-7.5s-3.36-7.5-7.5-7.5h-15c-4.14,0-7.5,3.36-7.5,7.5s3.36,7.5,7.5,7.5Z"/>
  </g>
  <g>
    <path class="cls-1" d="M373.59,191.84c3.19-10.9,4.91-22.42,4.91-34.34s-1.72-23.44-4.91-34.34c-15.99-5.11-34.48-9.06-54.61-11.71,1.33,14.82,2.01,30.26,2.01,46.05s-.69,31.23-2.01,46.05c20.13-2.65,38.62-6.6,54.61-11.71Z"/>
    <path class="cls-1" d="M191,157.5c0-15.78,.69-31.23,2.01-46.05-20.13,2.65-38.62,6.6-54.61,11.71-3.19,10.9-4.91,22.42-4.91,34.34s1.72,23.44,4.91,34.34c15.99,5.11,34.48,9.06,54.61,11.71-1.33-14.82-2.01-30.26-2.01-46.05Z"/>
    <path class="cls-1" d="M317.36,96.14c17.83,2.2,34.54,5.37,49.57,9.43-12.16-25.88-33.12-46.83-58.99-59,4.06,15.03,7.23,31.74,9.43,49.57Z"/>
    <path class="cls-1" d="M303.77,205.27c1.47-15.29,2.23-31.32,2.23-47.77s-.76-32.48-2.23-47.77c-15.29-1.47-31.32-2.23-47.77-2.23s-32.48,.76-47.77,2.23c-1.47,15.29-2.23,31.32-2.23,47.77s.76,32.48,2.23,47.77c15.29,1.47,31.32,2.23,47.77,2.23s32.48-.76,47.77-2.23Z"/>
    <path class="cls-1" d="M194.64,96.14c2.2-17.83,5.37-34.54,9.43-49.57-25.88,12.16-46.83,33.12-59,59,15.03-4.06,31.74-7.23,49.57-9.43Z"/>
    <path class="cls-1" d="M302.05,220.49c-14.82,1.33-30.26,2.01-46.05,2.01s-31.23-.69-46.05-2.01c2.65,20.13,6.6,38.62,11.71,54.61,10.9,3.19,22.42,4.91,34.34,4.91s23.44-1.72,34.34-4.91c5.11-15.99,9.06-34.48,11.71-54.61Z"/>
    <path class="cls-1" d="M317.36,218.86c-2.2,17.83-5.37,34.54-9.43,49.57,25.88-12.16,46.83-33.12,59-59-15.03,4.06-31.74,7.23-49.57,9.43Z"/>
    <path class="cls-1" d="M209.95,94.51c14.82-1.33,30.26-2.01,46.05-2.01s31.23,.69,46.05,2.01c-2.65-20.13-6.6-38.62-11.71-54.61-10.9-3.19-22.42-4.91-34.34-4.91s-23.44,1.72-34.34,4.91c-5.11,15.99-9.06,34.48-11.71,54.61Z"/>
    <path class="cls-1" d="M194.64,218.86c-17.83-2.2-34.54-5.37-49.57-9.43,12.16,25.88,33.12,46.83,58.99,59-4.06-15.03-7.23-31.74-9.43-49.57Z"/>
  </g>
</svg>