<?xml version="1.0" encoding="UTF-8"?>
<svg id="OBJECT" xmlns="http://www.w3.org/2000/svg" viewBox="0 0 512 512">
  <defs>
    <style>
      .cls-1 {
        fill: #FD4360;
      }

      .cls-2 {
        fill: #dadada;
      }
    </style>
  </defs>
  <g>
    <path class="cls-2" d="M205,256c0-56.52-45.98-102.5-102.5-102.5S0,199.48,0,256s45.98,102.5,102.5,102.5,102.5-45.98,102.5-102.5Zm-129.61,83.19c-3.31-8.9-6.04-19.08-8.13-30.11,11.31,1.25,23.13,1.92,35.24,1.92s23.93-.66,35.24-1.92c-2.08,11.03-4.82,21.21-8.13,30.11-8.54,2.79-17.65,4.31-27.11,4.31s-18.57-1.52-27.11-4.31ZM15,256c0-9.46,1.52-18.57,4.31-27.11,8.9-3.31,19.08-6.04,30.11-8.13-1.25,11.31-1.92,23.13-1.92,35.24s.66,23.93,1.92,35.24c-11.03-2.08-21.21-4.82-30.11-8.13-2.79-8.54-4.31-17.65-4.31-27.11Zm47.5,0c0-12.89,.82-25.6,2.35-37.65,12.05-1.53,24.76-2.35,37.65-2.35s25.6,.82,37.65,2.35c1.53,12.05,2.35,24.76,2.35,37.65s-.82,25.6-2.35,37.65c-12.05,1.53-24.76,2.35-37.65,2.35s-25.6-.82-37.65-2.35c-1.53-12.05-2.35-24.76-2.35-37.65Zm127.5,0c0,9.46-1.52,18.57-4.31,27.11-8.9,3.31-19.08,6.04-30.11,8.13,1.25-11.31,1.92-23.13,1.92-35.24s-.66-23.93-1.92-35.24c11.03,2.08,21.21,4.82,30.11,8.13,2.79,8.54,4.31,17.65,4.31,27.11Zm-41.86,74.62c2.09-7.45,3.86-15.38,5.26-23.72,8.33-1.41,16.27-3.17,23.72-5.26-7.24,11.79-17.19,21.74-28.98,28.98Zm28.98-120.27c-7.45-2.09-15.38-3.86-23.72-5.26-1.41-8.33-3.17-16.27-5.26-23.72,11.79,7.24,21.74,17.19,28.98,28.98Zm-47.51-37.55c3.31,8.9,6.04,19.08,8.13,30.11-11.31-1.25-23.13-1.92-35.24-1.92s-23.93,.66-35.24,1.92c2.08-11.03,4.82-21.21,8.13-30.11,8.54-2.79,17.65-4.31,27.11-4.31s18.57,1.52,27.11,4.31Zm-72.76,8.57c-2.09,7.45-3.86,15.38-5.26,23.72-8.33,1.41-16.27,3.17-23.72,5.26,7.24-11.79,17.19-21.74,28.98-28.98Zm-28.98,120.27c7.45,2.09,15.38,3.86,23.72,5.26,1.41,8.33,3.17,16.27,5.26,23.72-11.79-7.24-21.74-17.19-28.98-28.98Z"/>
    <path class="cls-2" d="M489.5,0h-170c-12.41,0-22.5,10.09-22.5,22.5v110c0,12.41,10.09,22.5,22.5,22.5h52.5v25h-27.5c-4.14,0-7.5,3.36-7.5,7.5s3.36,7.5,7.5,7.5h120c4.14,0,7.5-3.36,7.5-7.5s-3.36-7.5-7.5-7.5h-27.5v-25h52.5c12.41,0,22.5-10.09,22.5-22.5V22.5c0-12.41-10.09-22.5-22.5-22.5Zm-67.5,180h-35v-25h35v25Zm75-47.5c0,4.14-3.36,7.5-7.5,7.5h-170c-4.14,0-7.5-3.36-7.5-7.5V22.5c0-4.14,3.36-7.5,7.5-7.5h170c4.14,0,7.5,3.36,7.5,7.5v110Z"/>
    <path class="cls-2" d="M434.5,110h-10c-4.14,0-7.5,3.36-7.5,7.5s3.36,7.5,7.5,7.5h10c4.14,0,7.5-3.36,7.5-7.5s-3.36-7.5-7.5-7.5Z"/>
    <path class="cls-2" d="M474.5,110h-10c-4.14,0-7.5,3.36-7.5,7.5s3.36,7.5,7.5,7.5h10c4.14,0,7.5-3.36,7.5-7.5s-3.36-7.5-7.5-7.5Z"/>
    <path class="cls-2" d="M234.5,70h-101.59c-9.34,0-17.81,5.88-21.08,14.62l-16.36,43.75c-1.45,3.88,.52,8.2,4.4,9.65,.87,.32,1.75,.48,2.62,.48,3.04,0,5.9-1.86,7.03-4.88l16.36-43.75c1.09-2.92,3.91-4.87,7.03-4.87h101.59c4.14,0,7.5-3.36,7.5-7.5s-3.36-7.5-7.5-7.5Z"/>
    <path class="cls-2" d="M234.5,427h-101.59c-3.11,0-5.94-1.96-7.02-4.87l-16.36-43.75c-1.45-3.88-5.77-5.85-9.65-4.4-3.88,1.45-5.85,5.77-4.4,9.65l16.36,43.75c3.27,8.74,11.74,14.62,21.08,14.62h101.59c4.14,0,7.5-3.36,7.5-7.5s-3.36-7.5-7.5-7.5Z"/>
    <path class="cls-2" d="M274.5,70h-10c-4.14,0-7.5,3.36-7.5,7.5s3.36,7.5,7.5,7.5h10c4.14,0,7.5-3.36,7.5-7.5s-3.36-7.5-7.5-7.5Z"/>
    <path class="cls-2" d="M274.5,427h-10c-4.14,0-7.5,3.36-7.5,7.5s3.36,7.5,7.5,7.5h10c4.14,0,7.5-3.36,7.5-7.5s-3.36-7.5-7.5-7.5Z"/>
  </g>
  <path class="cls-1" d="M489.5,317h-170c-12.41,0-22.5,10.09-22.5,22.5v110c0,12.41,10.09,22.5,22.5,22.5h52.5v25h-27.5c-4.14,0-7.5,3.36-7.5,7.5s3.36,7.5,7.5,7.5h120c4.14,0,7.5-3.36,7.5-7.5s-3.36-7.5-7.5-7.5h-27.5v-25h52.5c12.41,0,22.5-10.09,22.5-22.5v-110c0-12.41-10.09-22.5-22.5-22.5Zm-67.5,180h-35v-25h35v25Zm12.5-55h-10c-4.14,0-7.5-3.36-7.5-7.5s3.36-7.5,7.5-7.5h10c4.14,0,7.5,3.36,7.5,7.5s-3.36,7.5-7.5,7.5Zm40,0h-10c-4.14,0-7.5-3.36-7.5-7.5s3.36-7.5,7.5-7.5h10c4.14,0,7.5,3.36,7.5,7.5s-3.36,7.5-7.5,7.5Z"/>
</svg>