<?xml version="1.0" encoding="UTF-8"?>
<svg id="OBJECT" xmlns="http://www.w3.org/2000/svg" viewBox="0 0 32 32">
  <defs>
    <style>
      .cls-1 {
        fill: #FD4360;
      }

      .cls-1, .cls-2 {
        stroke-width: 0px;
      }

      .cls-2 {
        fill: #dadada;
      }
    </style>
  </defs>
  <g>
    <path class="cls-2" d="m20.01,17.18c0-.27-.11-.52-.29-.71l-4.19-4.19c-.39-.39-1.02-.39-1.41,0l-3.49,3.49-.34-.34c-.38-.38-1.04-.38-1.41,0l-3.5,3.49c-.56.56-.87,1.31-.87,2.11s.31,1.54.87,2.11l1.04,1.04-2.56,2.56c-.21.21-.45.15-.54.11-.09-.04-.31-.16-.31-.46V5c0-1.1.9-2,2-2h8c.55,0,1-.45,1-1s-.45-1-1-1H5C2.79,1,1,2.79,1,5v21.38c0,1.01.61,1.92,1.54,2.31.31.13.64.19.96.19.65,0,1.29-.25,1.77-.73l2.56-2.56,1.04,1.04c.56.56,1.31.87,2.11.87s1.54-.31,2.1-.87l3.5-3.5c.39-.39.39-1.02,0-1.41l-.34-.34,3.49-3.49c.19-.19.29-.44.29-.71Zm-8.35,8.03c-.37.37-1.01.37-1.38,0l-3.5-3.5c-.18-.18-.29-.43-.29-.69s.1-.51.29-.69l2.79-2.79,4.88,4.88-2.79,2.79Zm3.15-5.25l-2.78-2.78,2.78-2.78,2.78,2.78-2.78,2.78Z"/>
    <path class="cls-2" d="m13.94,16.65c-.39.39-.39,1.02,0,1.41.2.2.45.29.71.29s.51-.1.71-.29l.35-.35c.39-.39.39-1.02,0-1.41s-1.02-.39-1.41,0l-.35.35Z"/>
    <path class="cls-2" d="m17,3h1c.55,0,1-.45,1-1s-.45-1-1-1h-1c-.55,0-1,.45-1,1s.45,1,1,1Z"/>
  </g>
  <g>
    <path class="cls-1" d="m23.43,15.87c.27,0,.52-.11.71-.29l3.19-3.19-7.71-7.71-3.19,3.19c-.39.39-.39,1.02,0,1.41l6.29,6.29c.19.19.44.29.71.29Z"/>
    <path class="cls-1" d="m15,29h-1c-.55,0-1,.45-1,1s.45,1,1,1h1c.55,0,1-.45,1-1s-.45-1-1-1Z"/>
    <path class="cls-1" d="m29.46,3.31c-.94-.39-2.01-.18-2.72.54l-2.56,2.56,1.41,1.41,2.56-2.56c.21-.21.45-.15.54-.11.09.04.31.16.31.46v21.38c0,1.1-.9,2-2,2h-8c-.55,0-1,.45-1,1s.45,1,1,1h8c2.21,0,4-1.79,4-4V5.62c0-1.01-.61-1.92-1.54-2.31Z"/>
  </g>
</svg>