<?xml version="1.0" encoding="UTF-8"?>
<svg id="OBJECT" xmlns="http://www.w3.org/2000/svg" viewBox="0 0 32 32">
  <defs>
    <style>
      .cls-1 {
        fill: #FD4360;
      }

      .cls-1, .cls-2 {
        stroke-width: 0px;
      }

      .cls-2 {
        fill: #dadada;
      }
    </style>
  </defs>
  <path class="cls-2" d="m30,24h-5v-3.4c0-1.43-1.17-2.6-2.6-2.6h-1.8c-1.43,0-2.6,1.17-2.6,2.6v3.4h-2.39l-1.31-2.62c-.43-.85-1.28-1.38-2.24-1.38h-3.07c-.55,0-1,.45-1,1s.45,1,1,1h3.07c.19,0,.36.11.45.28l.86,1.72H2c-.55,0-1,.45-1,1v3c0,1.65,1.35,3,3,3h24c1.65,0,3-1.35,3-3v-3c0-.55-.45-1-1-1Zm-10-3.4c0-.33.27-.6.6-.6h1.8c.33,0,.6.27.6.6v3.4h-3v-3.4Zm9,7.4c0,.55-.45,1-1,1H4c-.55,0-1-.45-1-1v-2h26v2Z"/>
  <g>
    <path class="cls-1" d="m3.87,13.26c-.57.57-.88,1.32-.88,2.12v6.61h2v-6.61c0-.27.1-.52.29-.71l2.72-2.72,1.77,1.77c.47.47,1.1.73,1.77.73s1.3-.26,1.77-.73l1.05-1.05-4.95-4.95-5.53,5.53Z"/>
    <path class="cls-1" d="m20.37,3.12l-1.41-1.41c-.94-.94-2.59-.94-3.54,0l-4.61,4.61,4.95,4.95,4.61-4.61c.97-.98.97-2.56,0-3.54Z"/>
  </g>
</svg>