<?xml version="1.0" encoding="UTF-8"?>
<svg id="OBJECT" xmlns="http://www.w3.org/2000/svg" viewBox="0 0 32 32">
  <defs>
    <style>
      .cls-1 {
        fill: #FD4360;
      }

      .cls-1, .cls-2 {
        stroke-width: 0px;
      }

      .cls-2 {
        fill: #dadada;
      }
    </style>
  </defs>
  <path class="cls-2" d="m28.79,1H3.21c-1.22,0-2.21.99-2.21,2.21v19.58c0,1.22.99,2.21,2.21,2.21h9.79v4h-6c-.55,0-1,.45-1,1s.45,1,1,1h18c.55,0,1-.45,1-1s-.45-1-1-1h-6v-4h9.79c1.22,0,2.21-.99,2.21-2.21V3.21c0-1.22-.99-2.21-2.21-2.21Zm-11.79,28h-2v-4h2v4Zm12-6.21c0,.12-.09.21-.21.21H3.21c-.12,0-.21-.09-.21-.21V3.21c0-.12.09-.21.21-.21h25.58c.12,0,.21.09.21.21v19.58Z"/>
  <g>
    <path class="cls-1" d="m15.99,14.16h.01c2.28,0,4.14-1.86,4.14-4.14v-2.87c0-1.3-1.05-2.35-2.35-2.35h-3.59c-1.3,0-2.35,1.05-2.35,2.35v2.87c0,2.28,1.86,4.14,4.14,4.14Z"/>
    <path class="cls-1" d="m21.71,12.29c-.9,2.27-3.12,3.87-5.7,3.87h-.01c-2.58,0-4.8-1.61-5.7-3.87-1.07,1.07-1.72,2.52-1.72,4.13v2.07c0,1.5,1.22,2.72,2.72,2.72h9.43c1.5,0,2.72-1.22,2.72-2.72v-2.07c0-1.6-.65-3.06-1.72-4.13Z"/>
  </g>
</svg>