<?xml version="1.0" encoding="UTF-8"?>
<svg id="OBJECT" xmlns="http://www.w3.org/2000/svg" viewBox="0 0 32 32">
  <defs>
    <style>
      .cls-1 {
        fill: #FD4360;
      }

      .cls-1, .cls-2 {
        stroke-width: 0px;
      }

      .cls-2 {
        fill: #dadada;
      }
    </style>
  </defs>
  <g>
    <path class="cls-2" d="m28,1H4c-1.65,0-3,1.35-3,3v24c0,1.65,1.35,3,3,3h24c1.65,0,3-1.35,3-3V4c0-1.65-1.35-3-3-3ZM4,3h24c.55,0,1,.45,1,1v3H3v-3c0-.55.45-1,1-1Zm24,26H4c-.55,0-1-.45-1-1V9h26v19c0,.55-.45,1-1,1Z"/>
    <path class="cls-2" d="m5,6h.5c.55,0,1-.45,1-1s-.45-1-1-1h-.5c-.55,0-1,.45-1,1s.45,1,1,1Z"/>
    <path class="cls-2" d="m9,6h.5c.55,0,1-.45,1-1s-.45-1-1-1h-.5c-.55,0-1,.45-1,1s.45,1,1,1Z"/>
    <path class="cls-2" d="m13,6h.5c.55,0,1-.45,1-1s-.45-1-1-1h-.5c-.55,0-1,.45-1,1s.45,1,1,1Z"/>
  </g>
  <g>
    <path class="cls-1" d="m16,17.9c1.79,0,3.25-1.46,3.25-3.25v-1.35c0-1.54-1.26-2.8-2.8-2.8h-.9c-1.54,0-2.8,1.26-2.8,2.8v1.35c0,1.79,1.46,3.25,3.25,3.25Z"/>
    <path class="cls-1" d="m13,22.5h6c1.38,0,2.5-1.12,2.5-2.5,0-1.06-.31-2.08-.86-2.94-.88,1.68-2.61,2.84-4.64,2.84s-3.76-1.16-4.64-2.84c-.55.86-.86,1.88-.86,2.94,0,1.38,1.12,2.5,2.5,2.5Z"/>
    <path class="cls-1" d="m26.5,23.95h-2v-.45c0-.55-.45-1-1-1s-1,.45-1,1v.45H5.5c-.55,0-1,.45-1,1s.45,1,1,1h17v.55c0,.55.45,1,1,1s1-.45,1-1v-.55h2c.55,0,1-.45,1-1s-.45-1-1-1Z"/>
  </g>
</svg>