<?xml version="1.0" encoding="UTF-8"?>
<svg id="OBJECT" xmlns="http://www.w3.org/2000/svg" viewBox="0 0 32 32">
  <defs>
    <style>
      .cls-1 {
        fill: #FD4360;
      }

      .cls-1, .cls-2 {
        stroke-width: 0px;
      }

      .cls-2 {
        fill: #dadada;
      }
    </style>
  </defs>
  <g>
    <path class="cls-2" d="m27,22.5h-.5v-6c0-.55-.45-1-1-1s-1,.45-1,1v6h-.5c-.55,0-1,.45-1,1s.45,1,1,1h.5v2c0,.55.45,1,1,1s1-.45,1-1v-2h.5c.55,0,1-.45,1-1s-.45-1-1-1Z"/>
    <path class="cls-2" d="m21,18h-.5v-1.5c0-.55-.45-1-1-1s-1,.45-1,1v1.5h-.5c-.55,0-1,.45-1,1s.45,1,1,1h.5v6.5c0,.55.45,1,1,1s1-.45,1-1v-6.5h.5c.55,0,1-.45,1-1s-.45-1-1-1Z"/>
    <path class="cls-2" d="m28,12h-9v-.5c0-.55-.45-1-1-1s-1,.45-1,1v1c0,1.66-2.88,3.5-7,3.5s-7-1.84-7-3.5v-1c0-.55-.45-1-1-1s-1,.45-1,1v1c0,2.66,2.95,4.82,7,5.36v10.14c0,1.65,1.35,3,3,3h17c1.65,0,3-1.35,3-3v-13c0-1.65-1.35-3-3-3Zm1,16c0,.55-.45,1-1,1H11c-.55,0-1-.45-1-1v-10c.87,0,1.71-.08,2.5-.21v4.71h-.5c-.55,0-1,.45-1,1s.45,1,1,1h.5v2c0,.55.45,1,1,1s1-.45,1-1v-2h.5c.55,0,1-.45,1-1s-.45-1-1-1h-.5v-5.22c2.02-.7,3.53-1.87,4.16-3.28h9.34c.55,0,1,.45,1,1v13Z"/>
  </g>
  <path class="cls-1" d="m10,12c5.05,0,9-2.42,9-5.5S15.05,1,10,1,1,3.42,1,6.5s3.95,5.5,9,5.5Zm4.03-6.5h.47c.55,0,1,.45,1,1s-.45,1-1,1h-.47c-.55,0-1-.45-1-1s.45-1,1-1Zm-5.03,0h2c.55,0,1,.45,1,1s-.45,1-1,1h-2c-.55,0-1-.45-1-1s.45-1,1-1Zm-3.5,0h.47c.55,0,1,.45,1,1s-.45,1-1,1h-.47c-.55,0-1-.45-1-1s.45-1,1-1Z"/>
</svg>