<?xml version="1.0" encoding="UTF-8"?>
<svg id="OBJECT" xmlns="http://www.w3.org/2000/svg" viewBox="0 0 32 32">
  <defs>
    <style>
      .cls-1 {
        fill: #FD4360;
      }

      .cls-1, .cls-2 {
        stroke-width: 0px;
      }

      .cls-2 {
        fill: #dadada;
      }
    </style>
  </defs>
  <path class="cls-2" d="m18.5,31h-5c-.55,0-1-.45-1-1v-2.01c-.87-.25-1.71-.6-2.5-1.04l-1.42,1.42c-.39.39-1.02.39-1.41,0l-3.54-3.54c-.39-.39-.39-1.02,0-1.41l1.42-1.42c-.44-.8-.79-1.64-1.04-2.5h-2c-.55,0-1-.45-1-1v-5c0-.55.45-1,1-1h2c.25-.87.6-1.71,1.04-2.5l-1.42-1.42c-.39-.39-.39-1.02,0-1.41l3.54-3.54c.19-.19.44-.29.71-.29h0c.27,0,.52.11.71.29l1.42,1.42c.8-.44,1.64-.79,2.5-1.04v-2.01c0-.55.45-1,1-1h5c.55,0,1,.45,1,1v2.01c.87.25,1.71.6,2.5,1.04l1.42-1.42c.38-.38,1.04-.38,1.41,0l3.54,3.54c.39.39.39,1.02,0,1.41l-1.42,1.42c.44.8.79,1.64,1.04,2.5h2c.55,0,1,.45,1,1v5c0,.55-.45,1-1,1h-2c-.25.87-.6,1.71-1.04,2.5l1.42,1.42c.39.39.39,1.02,0,1.41l-3.54,3.54c-.39.39-1.02.39-1.41,0l-1.42-1.42c-.8.44-1.64.79-2.5,1.04v2.01c0,.55-.45,1-1,1Zm-4-2h3v-1.78c0-.47.33-.87.78-.98,1.18-.26,2.31-.73,3.34-1.39.39-.25.91-.2,1.24.14l1.26,1.26,2.12-2.12-1.26-1.26c-.33-.33-.39-.85-.14-1.24.66-1.03,1.13-2.16,1.39-3.34.1-.46.51-.78.98-.78h1.78v-3h-1.78c-.47,0-.87-.33-.98-.78-.26-1.18-.73-2.31-1.39-3.34-.25-.4-.2-.91.14-1.24l1.26-1.26-2.12-2.12-1.26,1.26c-.33.33-.85.39-1.24.14-1.04-.66-2.16-1.13-3.34-1.39-.46-.1-.78-.51-.78-.98v-1.78h-3v1.78c0,.47-.33.87-.78.98-1.18.26-2.31.73-3.34,1.39-.39.25-.91.19-1.24-.14l-1.26-1.26-2.12,2.12,1.26,1.26c.33.33.39.85.14,1.24-.66,1.03-1.13,2.16-1.39,3.34-.1.46-.51.78-.98.78h-1.78v3h1.78c.47,0,.87.33.98.78.26,1.18.73,2.31,1.39,3.34.25.4.2.91-.14,1.24l-1.26,1.26,2.12,2.12,1.26-1.26c.33-.33.85-.39,1.24-.14,1.04.66,2.16,1.13,3.34,1.39.46.1.78.51.78.98v1.78Z"/>
  <g>
    <path class="cls-1" d="m13.06,8c-1.07,0-1.94.87-1.94,1.94v.52c-.62.35-1.09.94-1.29,1.64-1.36.89-2.21,2.63-2.21,4.6,0,2.59,1.52,4.74,3.5,5.14v-2.7c0-.55.45-1,1-1s1,.45,1,1v3.93c0,.52.42.94.94.94s.94-.42.94-.94v-13.12c0-1.07-.87-1.94-1.94-1.94Z"/>
    <path class="cls-1" d="m22.16,12.1c-.2-.7-.66-1.29-1.29-1.64v-.52c0-1.07-.87-1.94-1.94-1.94s-1.94.87-1.94,1.94v13.12c0,.52.42.94.94.94s.94-.42.94-.94v-3.93c0-.55.45-1,1-1s1,.45,1,1v2.7c1.98-.39,3.5-2.55,3.5-5.14,0-1.97-.85-3.72-2.21-4.6Z"/>
  </g>
</svg>