<?xml version="1.0" encoding="UTF-8"?>
<svg id="OBJECT" xmlns="http://www.w3.org/2000/svg" viewBox="0 0 32 32">
  <defs>
    <style>
      .cls-1 {
        fill: #FD4360;
      }

      .cls-1, .cls-2 {
        stroke-width: 0px;
      }

      .cls-2 {
        fill: #dadada;
      }
    </style>
  </defs>
  <path class="cls-2" d="m30.96,25.73c-.13-.44-.54-.71-.98-.71l-1.07-2.42c-.2-.44-.68-.68-1.16-.57l-.18.05c-.18-1.35.34-2.68.35-2.69.13-.31.09-.66-.09-.94-.19-.28-.5-.44-.83-.45-5.81-.04-9.56,2.17-11,3.21-1.44-1.04-5.13-3.21-10.91-3.21h-.1c-.33,0-.64.17-.83.44s-.22.63-.09.93c0,.02.53,1.35.35,2.7l-.18-.05c-.48-.12-.96.12-1.16.57l-1.07,2.42c-.44,0-.85.26-.98.71-.15.53.16,1.08.69,1.24l14,4c.09.03.18.04.27.04s.18-.01.27-.04l14-4c.53-.15.84-.71.69-1.24Zm-5.34-3.16l-8.63,2.16v-1.76c.94-.71,3.91-2.63,8.67-2.93-.13.71-.2,1.6-.05,2.53Zm-19.3-2.53c4.77.29,7.74,2.22,8.67,2.93v1.76l-8.63-2.16c.16-.92.09-1.82-.05-2.53Zm9.67,8.92l-12.02-3.43.6-1.35,11.18,2.8c.08.02.16.03.24.03s.16,0,.24-.03l11.18-2.8.6,1.35-12.02,3.43Z"/>
  <g>
    <path class="cls-1" d="m24,1c-.55,0-1,.45-1,1v.15l-2.91.48v4.36c0,.55-.45,1-1,1s-1-.45-1-1V2.97l-5.09.85v8.36l1,.17v2.15c0,1.38,1.12,2.5,2.5,2.5h.61c.91,0,1.75-.5,2.19-1.3l1.24-2.26,2.45.41v.15c0,.55.45,1,1,1s1-.45,1-1V2c0-.55-.45-1-1-1Zm-6.45,13.74c-.09.16-.26.26-.44.26h-.61c-.28,0-.5-.22-.5-.5v-1.82l2.46.41-.91,1.65Z"/>
    <rect class="cls-1" x="7" y="5" width="4" height="6"/>
  </g>
</svg>