<?xml version="1.0" encoding="UTF-8"?>
<svg id="OBJECT" xmlns="http://www.w3.org/2000/svg" viewBox="0 0 32 32">
  <defs>
    <style>
      .cls-1 {
        fill: #FD4360;
      }

      .cls-2 {
        fill: #dadada;
      }
    </style>
  </defs>
  <g>
    <path class="cls-2" d="M24,29h-2v-5h2c.55,0,1-.45,1-1s-.45-1-1-1H4c-1.65,0-3,1.35-3,3v3c0,1.65,1.35,3,3,3H24c.55,0,1-.45,1-1s-.45-1-1-1Zm-21-1v-3c0-.55,.45-1,1-1H20v1.5H10.17c-.55,0-1,.45-1,1s.45,1,1,1h9.83v1.5H4c-.55,0-1-.45-1-1Z"/>
    <path class="cls-2" d="M6.67,25.5h-.5c-.55,0-1,.45-1,1s.45,1,1,1h.5c.55,0,1-.45,1-1s-.45-1-1-1Z"/>
    <path class="cls-2" d="M2,19c-.55,0-1,.45-1,1s.45,1,1,1H14c1.65,0,3-1.35,3-3v-1c0-1.65-1.35-3-3-3H2c-.55,0-1,.45-1,1s.45,1,1,1h2v3H2Zm4-3H14c.55,0,1,.45,1,1v1c0,.55-.45,1-1,1H6v-3Z"/>
  </g>
  <g>
    <rect class="cls-1" x="12" y="3.5" width="4" height="9" rx="1" ry="1"/>
    <path class="cls-1" d="M30.59,1.2c-.25-.19-.58-.24-.89-.15l-3.71,1.14V8c0,.55-.45,1-1,1s-1-.45-1-1V2.8l-6,1.85v6.71l1.5,.46v3.18c0,1.65,1.35,3,3,3h2c1.65,0,3-1.35,3-3v-.72l2.21,.68c.1,.03,.2,.04,.29,.04,.21,0,.42-.07,.59-.2,.26-.19,.41-.49,.41-.8V2c0-.32-.15-.62-.41-.8Zm-5.09,13.8c0,.55-.45,1-1,1h-2c-.55,0-1-.45-1-1v-2.57l4,1.23v1.34Z"/>
  </g>
</svg>