<?xml version="1.0" encoding="UTF-8"?>
<svg id="OBJECT" xmlns="http://www.w3.org/2000/svg" viewBox="0 0 32 32">
  <defs>
    <style>
      .cls-1 {
        fill: #FD4360;
      }

      .cls-1, .cls-2 {
        stroke-width: 0px;
      }

      .cls-2 {
        fill: #dadada;
      }
    </style>
  </defs>
  <g>
    <path class="cls-2" d="m28.5,16h-10c-1.38,0-2.5,1.12-2.5,2.5v7c0,1.38,1.12,2.5,2.5,2.5h2v1h-1.5c-.55,0-1,.45-1,1s.45,1,1,1h9c.55,0,1-.45,1-1s-.45-1-1-1h-1.5v-1h2c1.38,0,2.5-1.12,2.5-2.5v-7c0-1.38-1.12-2.5-2.5-2.5Zm-4,13h-2v-1h2v1Zm4.5-3.5c0,.28-.22.5-.5.5h-10c-.28,0-.5-.22-.5-.5v-7c0-.28.22-.5.5-.5h10c.28,0,.5.22.5.5v7Z"/>
    <path class="cls-2" d="m27,19c-.55,0-1,.45-1,1v.5c0,.55.45,1,1,1s1-.45,1-1v-.5c0-.55-.45-1-1-1Z"/>
    <path class="cls-2" d="m24,19c-.55,0-1,.45-1,1v.5c0,.55.45,1,1,1s1-.45,1-1v-.5c0-.55-.45-1-1-1Z"/>
    <path class="cls-2" d="m23.21,8.79c-.39-.39-1.02-.39-1.41,0s-.39,1.02,0,1.41l3,3c.2.2.45.29.71.29s.51-.1.71-.29l3-3c.39-.39.39-1.02,0-1.41s-1.02-.39-1.41,0l-1.29,1.29v-3.59c0-1.65-1.35-3-3-3h-1c-.55,0-1,.45-1,1s.45,1,1,1h1c.55,0,1,.45,1,1v3.59l-1.29-1.29Z"/>
    <path class="cls-2" d="m18.5,5.5h.5c.55,0,1-.45,1-1s-.45-1-1-1h-.5c-.55,0-1,.45-1,1s.45,1,1,1Z"/>
    <path class="cls-2" d="m8.79,23.21c.2.2.45.29.71.29s.51-.1.71-.29c.39-.39.39-1.02,0-1.41l-3-3c-.39-.39-1.02-.39-1.41,0l-3,3c-.39.39-.39,1.02,0,1.41s1.02.39,1.41,0l1.29-1.29v3.59c0,1.65,1.35,3,3,3h1c.55,0,1-.45,1-1s-.45-1-1-1h-1c-.55,0-1-.45-1-1v-3.59l1.29,1.29Z"/>
    <path class="cls-2" d="m13.5,26.5h-.5c-.55,0-1,.45-1,1s.45,1,1,1h.5c.55,0,1-.45,1-1s-.45-1-1-1Z"/>
  </g>
  <path class="cls-1" d="m16,3.5c0-1.38-1.12-2.5-2.5-2.5H3.5c-1.38,0-2.5,1.12-2.5,2.5v7c0,1.38,1.12,2.5,2.5,2.5h2v1h-1.5c-.55,0-1,.45-1,1s.45,1,1,1h9c.55,0,1-.45,1-1s-.45-1-1-1h-1.5v-1h2c1.38,0,2.5-1.12,2.5-2.5V3.5Zm-10,2c0,.55-.45,1-1,1s-1-.45-1-1v-.5c0-.55.45-1,1-1s1,.45,1,1v.5Zm1,0v-.5c0-.55.45-1,1-1s1,.45,1,1v.5c0,.55-.45,1-1,1s-1-.45-1-1Zm2.5,8.5h-2v-1h2v1Z"/>
</svg>