<?xml version="1.0" encoding="UTF-8"?>
<svg id="OBJECT" xmlns="http://www.w3.org/2000/svg" viewBox="0 0 32 32">
  <defs>
    <style>
      .cls-1 {
        fill: #FD4360;
      }

      .cls-2 {
        fill: #dadada;
      }
    </style>
  </defs>
  <g>
    <path class="cls-2" d="M14.5,26.5c0,.55,.45,1,1,1h11c.55,0,1-.45,1-1s-.45-1-1-1h-.5V14.5c0-.55-.45-1-1-1s-1,.45-1,1v11h-2v-8c0-.55-.45-1-1-1s-1,.45-1,1v8h-2v-5c0-.55-.45-1-1-1s-1,.45-1,1v5h-.5c-.55,0-1,.45-1,1Z"/>
    <path class="cls-2" d="M30.71,7.29L24.71,1.29c-.19-.19-.44-.29-.71-.29H9.5c-1.38,0-2.5,1.12-2.5,2.5v4.5c0,.55,.45,1,1,1s1-.45,1-1V3.5c0-.28,.22-.5,.5-.5h13.5v3.5c0,1.38,1.12,2.5,2.5,2.5h3.5V28.5c0,.28-.22,.5-.5,.5H9.5c-.28,0-.5-.22-.5-.5v-1.5c0-.55-.45-1-1-1s-1,.45-1,1v1.5c0,1.38,1.12,2.5,2.5,2.5H28.5c1.38,0,2.5-1.12,2.5-2.5V8c0-.27-.11-.52-.29-.71Zm-5.71-.79v-2.09l2.59,2.59h-2.09c-.28,0-.5-.22-.5-.5Z"/>
    <path class="cls-2" d="M12.5,7c.55,0,1-.45,1-1s-.45-1-1-1h-.5c-.55,0-1,.45-1,1s.45,1,1,1h.5Z"/>
    <path class="cls-2" d="M19.5,7c.55,0,1-.45,1-1s-.45-1-1-1h-3.5c-.55,0-1,.45-1,1s.45,1,1,1h3.5Z"/>
  </g>
  <path class="cls-1" d="M11,10H3c-1.1,0-2,.9-2,2v11c0,1.1,.9,2,2,2H11c1.1,0,2-.9,2-2V12c0-1.1-.9-2-2-2Zm-5,11.5c0,.55-.45,1-1,1s-1-.45-1-1v-.5c0-.55,.45-1,1-1s1,.45,1,1v.5Zm0-4c0,.55-.45,1-1,1s-1-.45-1-1v-.5c0-.55,.45-1,1-1s1,.45,1,1v.5Zm4,4c0,.55-.45,1-1,1s-1-.45-1-1v-.5c0-.55,.45-1,1-1s1,.45,1,1v.5Zm0-4c0,.55-.45,1-1,1s-1-.45-1-1v-.5c0-.55,.45-1,1-1s1,.45,1,1v.5Zm-.5-3H4.5c-.55,0-1-.45-1-1s.45-1,1-1h5c.55,0,1,.45,1,1s-.45,1-1,1Z"/>
</svg>