<?xml version="1.0" encoding="UTF-8"?>
<svg id="OBJECT" xmlns="http://www.w3.org/2000/svg" viewBox="0 0 32 32">
  <defs>
    <style>
      .cls-1 {
        fill: #FD4360;
      }

      .cls-1, .cls-2 {
        stroke-width: 0px;
      }

      .cls-2 {
        fill: #dadada;
      }
    </style>
  </defs>
  <g>
    <path class="cls-2" d="m18.5,6c0-.55-.45-1-1-1h-9c-.55,0-1,.45-1,1s.45,1,1,1h9c.55,0,1-.45,1-1Z"/>
    <path class="cls-2" d="m8.5,11.33h6.54c.55,0,1-.45,1-1s-.45-1-1-1h-6.54c-.55,0-1,.45-1,1s.45,1,1,1Z"/>
    <path class="cls-2" d="m8.5,15.67h5.54c.55,0,1-.45,1-1s-.45-1-1-1h-5.54c-.55,0-1,.45-1,1s.45,1,1,1Z"/>
    <path class="cls-2" d="m8.5,20h7.61c.55,0,1-.45,1-1s-.45-1-1-1h-7.61c-.55,0-1,.45-1,1s.45,1,1,1Z"/>
    <path class="cls-2" d="m23,5c.55,0,1-.45,1-1v-2c0-.55-.45-1-1-1H5c-.55,0-1,.45-1,1v22h-2c-.55,0-1,.45-1,1v2.5c0,1.93,1.57,3.5,3.5,3.5h16c1.93,0,3.5-1.57,3.5-3.5v-3.5c0-.55-.45-1-1-1s-1,.45-1,1v3.5c0,.83-.67,1.5-1.5,1.5s-1.5-.67-1.5-1.5v-2.5c0-.55-.45-1-1-1H6V3h16v1c0,.55.45,1,1,1Zm-5.66,24H4.5c-.83,0-1.5-.67-1.5-1.5v-1.5h14v1.5c0,.54.12,1.04.34,1.5Z"/>
  </g>
  <path class="cls-1" d="m23.5,6.5c-4.14,0-7.5,3.36-7.5,7.5s3.36,7.5,7.5,7.5,7.5-3.36,7.5-7.5-3.36-7.5-7.5-7.5Zm-.7,6.5h1.4c1.32,0,2.4,1.08,2.4,2.4,0,1.22-.92,2.22-2.1,2.37v.43c0,.55-.45,1-1,1s-1-.45-1-1v-.4h-1.1c-.55,0-1-.45-1-1s.45-1,1-1h2.8c.22,0,.4-.18.4-.4s-.18-.4-.4-.4h-1.4c-1.32,0-2.4-1.08-2.4-2.4,0-1.22.92-2.22,2.1-2.37v-.43c0-.55.45-1,1-1s1,.45,1,1v.4h1.1c.55,0,1,.45,1,1s-.45,1-1,1h-2.8c-.22,0-.4.18-.4.4s.18.4.4.4Z"/>
</svg>