<?xml version="1.0" encoding="UTF-8"?>
<svg id="OBJECT" xmlns="http://www.w3.org/2000/svg" viewBox="0 0 32 32">
  <defs>
    <style>
      .cls-1 {
        fill: #FD4360;
      }

      .cls-2 {
        fill: #dadada;
      }
    </style>
  </defs>
  <g>
    <path class="cls-2" d="M25,17H7c-1.65,0-3,1.35-3,3v8c0,1.65,1.35,3,3,3H25c1.65,0,3-1.35,3-3v-8c0-1.65-1.35-3-3-3Zm1,11c0,.55-.45,1-1,1H7c-.55,0-1-.45-1-1v-8c0-.55,.45-1,1-1H25c.55,0,1,.45,1,1v8Z"/>
    <path class="cls-2" d="M20.17,20.83c-.19-.21-.46-.33-.74-.33s-.55,.12-.74,.33l-2.69,2.94-2.69-2.94c-.38-.41-1.1-.41-1.48,0l-4.57,5c-.37,.41-.34,1.04,.06,1.41,.19,.18,.43,.26,.67,.26,.27,0,.54-.11,.74-.33l3.83-4.19,2.07,2.27-.53,.58c-.37,.41-.34,1.04,.06,1.41,.41,.37,1.04,.34,1.41-.06l3.83-4.19,3.83,4.19c.2,.22,.47,.33,.74,.33,.24,0,.48-.09,.67-.26,.41-.37,.44-1.01,.06-1.41l-4.57-5Z"/>
    <path class="cls-2" d="M15,12.5V5.62c0-.66-.27-1.3-.73-1.77l-2.12-2.12c-.47-.47-1.11-.73-1.77-.73H3.5c-1.38,0-2.5,1.12-2.5,2.5V12.5c0,1.38,1.12,2.5,2.5,2.5H12.5c1.38,0,2.5-1.12,2.5-2.5Zm-12,0V3.5c0-.28,.22-.5,.5-.5h6.88c.13,0,.26,.05,.35,.15l2.12,2.12c.09,.09,.15,.22,.15,.35v6.88c0,.28-.22,.5-.5,.5H3.5c-.28,0-.5-.22-.5-.5Z"/>
    <path class="cls-2" d="M10.5,9H5.5c-.55,0-1,.45-1,1s.45,1,1,1h5c.55,0,1-.45,1-1s-.45-1-1-1Z"/>
    <path class="cls-2" d="M5.5,7h3c.55,0,1-.45,1-1s-.45-1-1-1h-3c-.55,0-1,.45-1,1s.45,1,1,1Z"/>
  </g>
  <path class="cls-1" d="M30.32,3.05l-6-2c-.31-.1-.64-.05-.9,.14-.26,.19-.42,.49-.42,.81V8h-3c-1.65,0-3,1.35-3,3v1c0,1.65,1.35,3,3,3h2c1.65,0,3-1.35,3-3V3.39l4.68,1.56c.53,.18,1.09-.11,1.27-.63,.17-.52-.11-1.09-.63-1.27Z"/>
</svg>