<?xml version="1.0" encoding="UTF-8"?>
<svg id="OBJECT" xmlns="http://www.w3.org/2000/svg" viewBox="0 0 32 32">
  <defs>
    <style>
      .cls-1 {
        fill: #FD4360;
      }

      .cls-1, .cls-2 {
        stroke-width: 0px;
      }

      .cls-2 {
        fill: #dadada;
      }
    </style>
  </defs>
  <path class="cls-2" d="m30.24,25.1l-6.59-6.59c.86-1.65,1.35-3.52,1.35-5.51,0-6.62-5.38-12-12-12S1,6.38,1,13s5.38,12,12,12c1.99,0,3.85-.49,5.51-1.35l6.59,6.59c.5.5,1.17.76,1.83.76s1.32-.25,1.83-.76l1.49-1.49c1.01-1.01,1.01-2.65,0-3.65ZM3,13C3,7.49,7.49,3,13,3s10,4.49,10,10-4.49,10-10,10S3,18.51,3,13Zm17.23,9.55c.87-.66,1.65-1.44,2.32-2.32l2.96,2.96-2.32,2.32-2.96-2.96Zm8.6,4.79l-1.49,1.49c-.23.23-.6.23-.82,0l-1.9-1.9,2.32-2.32,1.9,1.9c.23.23.23.6,0,.82Z"/>
  <g>
    <path class="cls-1" d="m16.69,17.69c0-1.1-.49-2.11-1.32-2.8-.61.61-1.44.98-2.37.98s-1.76-.38-2.37-.98c-.83.69-1.32,1.7-1.32,2.8v2.96c1.12.54,2.37.85,3.69.85s2.57-.31,3.69-.85v-2.96Z"/>
    <path class="cls-1" d="m14.34,12.53v-1.41c0-.48-.39-.88-.88-.88h-.94c-.48,0-.88.39-.88.88v1.41c0,.74.6,1.34,1.34,1.34s1.34-.6,1.34-1.34Z"/>
    <path class="cls-1" d="m13,4.5c-4.69,0-8.5,3.81-8.5,8.5,0,2.5,1.09,4.74,2.81,6.3v-1.61c0-1.85.9-3.56,2.4-4.61-.03-.18-.05-.36-.05-.54v-1.41c0-1.59,1.29-2.88,2.88-2.88h.94c1.59,0,2.88,1.29,2.88,2.88v1.41c0,.19-.03.36-.05.54,1.5,1.06,2.4,2.76,2.4,4.61v1.61c1.72-1.56,2.81-3.8,2.81-6.3,0-4.69-3.81-8.5-8.5-8.5Z"/>
  </g>
</svg>