<?xml version="1.0" encoding="UTF-8"?>
<svg id="OBJECT" xmlns="http://www.w3.org/2000/svg" viewBox="0 0 32 32">
  <defs>
    <style>
      .cls-1 {
        fill: #FD4360;
      }

      .cls-1, .cls-2 {
        stroke-width: 0px;
      }

      .cls-2 {
        fill: #dadada;
      }
    </style>
  </defs>
  <g>
    <path class="cls-2" d="m30,1H13c-.55,0-1,.45-1,1s.45,1,1,1h16v26H13c-.55,0-1,.45-1,1s.45,1,1,1h17c.55,0,1-.45,1-1V2c0-.55-.45-1-1-1Z"/>
    <path class="cls-2" d="m25,20.93h-9c-.55,0-1,.45-1,1s.45,1,1,1h9c.55,0,1-.45,1-1s-.45-1-1-1Z"/>
    <path class="cls-2" d="m25,24.93h-9c-.55,0-1,.45-1,1s.45,1,1,1h9c.55,0,1-.45,1-1s-.45-1-1-1Z"/>
    <path class="cls-2" d="m20.5,5.07c-3.86,0-7,3.14-7,7s3.14,7,7,7,7-3.14,7-7-3.14-7-7-7Zm0,2c2.76,0,5,2.24,5,5,0,.55-.11,1.06-.27,1.56-.65-.59-1.39-1.06-2.21-1.37.21-.4.34-.85.34-1.33,0-1.58-1.29-2.86-2.86-2.86s-2.86,1.29-2.86,2.86c0,.48.13.93.34,1.33-.81.31-1.56.78-2.21,1.37-.16-.49-.27-1.01-.27-1.56,0-2.76,2.24-5,5-5Zm-.86,3.85c0-.48.39-.86.86-.86s.86.39.86.86-.39.86-.86.86-.86-.39-.86-.86Zm.86,6.15c-1.47,0-2.77-.65-3.69-1.65.94-1.03,2.27-1.63,3.69-1.63s2.75.6,3.69,1.63c-.92,1.01-2.22,1.65-3.69,1.65Z"/>
  </g>
  <path class="cls-1" d="m4,4c-.55,0-1,.45-1,1s.45,1,1,1h1v-2h-1Z"/>
  <path class="cls-1" d="m4,7c-.55,0-1,.45-1,1s.45,1,1,1h1v-2h-1Z"/>
  <path class="cls-1" d="m4,26c-.55,0-1,.45-1,1s.45,1,1,1h1v-2h-1Z"/>
  <path class="cls-1" d="m4,23c-.55,0-1,.45-1,1s.45,1,1,1h1v-2h-1Z"/>
  <path class="cls-1" d="m5,2v2h3c.55,0,1,.45,1,1s-.45,1-1,1h-3v1h3c.55,0,1,.45,1,1s-.45,1-1,1h-3v14h3c.55,0,1,.45,1,1s-.45,1-1,1h-3v1h3c.55,0,1,.45,1,1s-.45,1-1,1h-3v2c0,.55.45,1,1,1h4V1h-4c-.55,0-1,.45-1,1Z"/>
</svg>