<?xml version="1.0" encoding="UTF-8"?>
<svg id="OBJECT" xmlns="http://www.w3.org/2000/svg" viewBox="0 0 32 32">
  <defs>
    <style>
      .cls-1 {
        fill: #FD4360;
      }

      .cls-1, .cls-2 {
        stroke-width: 0px;
      }

      .cls-2 {
        fill: #dadada;
      }
    </style>
  </defs>
  <g>
    <path class="cls-2" d="m14.5,25H5.5c-.55,0-1,.45-1,1s.45,1,1,1h9c.55,0,1-.45,1-1s-.45-1-1-1Z"/>
    <path class="cls-2" d="m14.5,21H5.5c-.55,0-1,.45-1,1s.45,1,1,1h9c.55,0,1-.45,1-1s-.45-1-1-1Z"/>
    <path class="cls-2" d="m16.5,18c0-.55-.45-1-1-1H5.5c-.55,0-1,.45-1,1s.45,1,1,1h10c.55,0,1-.45,1-1Z"/>
    <path class="cls-2" d="m19.5,14c0-.55-.45-1-1-1h-9c-.55,0-1,.45-1,1s.45,1,1,1h9c.55,0,1-.45,1-1Z"/>
    <path class="cls-2" d="m5.5,15h.5c.55,0,1-.45,1-1s-.45-1-1-1h-.5c-.55,0-1,.45-1,1s.45,1,1,1Z"/>
    <path class="cls-2" d="m18.5,9h-6c-.55,0-1,.45-1,1s.45,1,1,1h6c.55,0,1-.45,1-1s-.45-1-1-1Z"/>
    <path class="cls-2" d="m22,8.58c.55,0,1-.45,1-1V2c0-.55-.45-1-1-1h-14c-.27,0-.52.11-.71.29L1.29,7.29c-.19.19-.29.44-.29.71v22c0,.55.45,1,1,1h20c.55,0,1-.45,1-1v-3.94c0-.55-.45-1-1-1s-1,.45-1,1v2.94H3V9h5c.55,0,1-.45,1-1V3h12v4.58c0,.55.45,1,1,1Zm-17.59-1.58l2.59-2.59v2.59h-2.59Z"/>
  </g>
  <g>
    <path class="cls-1" d="m18.52,20.31c-.08.16-.11.34-.09.51l.23,2.5-.56,1.21c-.23.5-.02,1.1.48,1.33.14.06.28.09.42.09.38,0,.74-.21.91-.58l.56-1.21,2.07-1.43c.15-.1.26-.24.34-.4l6.13-13.15-4.36-2.03-6.13,13.15Z"/>
    <path class="cls-1" d="m30.86,3.59c-.21-.59-.64-1.05-1.2-1.31l-.13-.06c-1.16-.54-2.55-.04-3.1,1.13l-.93,2,4.36,2.03.93-2c.26-.56.29-1.2.08-1.78Z"/>
  </g>
</svg>