<?xml version="1.0" encoding="UTF-8"?>
<svg id="OBJECT" xmlns="http://www.w3.org/2000/svg" viewBox="0 0 32 32">
  <defs>
    <style>
      .cls-1 {
        fill: #FD4360;
      }

      .cls-1, .cls-2 {
        stroke-width: 0px;
      }

      .cls-2 {
        fill: #dadada;
      }
    </style>
  </defs>
  <path class="cls-2" d="m30,16h-1.05c-.16-2.22-.83-4.29-1.9-6.1l2.07-2.07.18.18c.2.2.45.29.71.29s.51-.1.71-.29c.39-.39.39-1.02,0-1.41l-5.29-5.29c-.39-.39-1.02-.39-1.41,0s-.39,1.02,0,1.41l.18.18-2.07,2.07c-1.81-1.07-3.88-1.75-6.1-1.9v-1.05c0-.55-.45-1-1-1s-1,.45-1,1v1.05C6.75,3.57,1,9.62,1,17s6.28,14,14,14,13.43-5.75,13.95-13h1.05c.55,0,1-.45,1-1s-.45-1-1-1Zm-4.41-11.7l2.12,2.12-1.81,1.81c-.63-.78-1.34-1.49-2.12-2.12l1.81-1.81Zm-10.59,24.7c-6.62,0-12-5.38-12-12S8.38,5,15,5s12,5.38,12,12-5.38,12-12,12Z"/>
  <path class="cls-1" d="m15,7c-5.51,0-10,4.49-10,10s4.49,10,10,10c.55,0,1-.45,1-1v-8h8c.55,0,1-.45,1-1,0-5.51-4.49-10-10-10Z"/>
</svg>