<?xml version="1.0" encoding="UTF-8"?>
<svg id="OBJECT" xmlns="http://www.w3.org/2000/svg" viewBox="0 0 32 32">
  <defs>
    <style>
      .cls-1 {
        fill: #FD4360;
      }

      .cls-1, .cls-2 {
        stroke-width: 0px;
      }

      .cls-2 {
        fill: #dadada;
      }
    </style>
  </defs>
  <path class="cls-2" d="m23.82,23.39l-3.17-2.31c-.31-.23-.72-.26-1.06-.07l-3.14,1.68c-2.73-2-5.14-4.41-7.14-7.14l1.68-3.14c.18-.34.15-.75-.07-1.06l-2.31-3.17c-.5-.68-1.26-1.1-2.09-1.17-.83-.06-1.65.24-2.25.83l-2.38,2.38c-.72.72-1.03,1.74-.83,2.71.19.88.51,1.87.97,2.95,2.66,6.29,7.79,11.42,14.08,14.08,1.09.46,2.08.79,2.96.97.2.04.4.06.6.06.78,0,1.54-.31,2.11-.89l2.38-2.38c.59-.59.9-1.41.83-2.25-.07-.84-.49-1.6-1.17-2.09Zm-1.08,2.93l-2.38,2.38c-.24.24-.58.35-.88.29-.75-.16-1.62-.45-2.59-.86-5.82-2.46-10.56-7.2-13.02-13.02-.41-.97-.7-1.84-.86-2.59-.06-.3.04-.64.29-.88l2.38-2.38c.25-.25.54-.26.68-.25.15.01.43.07.63.35l1.94,2.66-.89,1.66c-.16-.26-.34-.51-.49-.78-.28-.48-.89-.63-1.37-.35-.48.28-.63.89-.35,1.37,2.98,5.04,7.21,9.28,12.25,12.25.16.09.33.14.51.14.34,0,.68-.18.86-.49.28-.48.12-1.09-.35-1.37-.27-.16-.52-.33-.78-.5l1.66-.89,2.66,1.94c.28.2.34.48.35.63.01.15,0,.43-.25.68Z"/>
  <g>
    <path class="cls-1" d="m23.5,9.5v-1.5c0-.55-.45-1-1-1h-1c-.55,0-1,.45-1,1v1.5c0,.83.67,1.5,1.5,1.5s1.5-.67,1.5-1.5Z"/>
    <path class="cls-1" d="m22,13c-.99,0-1.88-.41-2.51-1.08-.93.75-1.49,1.86-1.49,3.08v3.05c1.21.6,2.56.95,4,.95s2.79-.35,4-.95v-3.05c0-1.21-.56-2.33-1.49-3.08-.64.66-1.53,1.08-2.51,1.08Z"/>
    <path class="cls-1" d="m22,1c-4.96,0-9,4.04-9,9,0,2.66,1.16,5.04,3,6.69v-1.69c0-1.97.96-3.78,2.56-4.89-.03-.2-.06-.4-.06-.61v-1.5c0-1.65,1.35-3,3-3h1c1.65,0,3,1.35,3,3v1.5c0,.21-.03.41-.06.61,1.6,1.11,2.56,2.92,2.56,4.89v1.69c1.84-1.65,3-4.03,3-6.69,0-4.96-4.04-9-9-9Z"/>
  </g>
</svg>