<?xml version="1.0" encoding="UTF-8"?>
<svg id="OBJECT" xmlns="http://www.w3.org/2000/svg" viewBox="0 0 32 32">
  <defs>
    <style>
      .cls-1 {
        fill: #FD4360;
      }

      .cls-1, .cls-2 {
        stroke-width: 0px;
      }

      .cls-2 {
        fill: #dadada;
      }
    </style>
  </defs>
  <g>
    <path class="cls-2" d="m10.44,22.11c.03-.2.06-.4.06-.61v-1.5c0-1.65-1.35-3-3-3h-1c-1.65,0-3,1.35-3,3v1.5c0,.21.03.41.06.61-1.6,1.11-2.56,2.92-2.56,4.89v1.5c0,1.38,1.12,2.5,2.5,2.5h7c1.38,0,2.5-1.12,2.5-2.5v-1.5c0-1.97-.96-3.78-2.56-4.89Zm-4.94-2.11c0-.55.45-1,1-1h1c.55,0,1,.45,1,1v1.5c0,.83-.67,1.5-1.5,1.5s-1.5-.67-1.5-1.5v-1.5Zm5.5,8.5c0,.28-.22.5-.5.5H3.5c-.28,0-.5-.22-.5-.5v-1.5c0-1.21.56-2.33,1.49-3.08.64.66,1.53,1.08,2.51,1.08s1.88-.42,2.51-1.08c.93.75,1.49,1.86,1.49,3.08v1.5Z"/>
    <path class="cls-2" d="m28.44,22.11c.03-.2.06-.4.06-.61v-1.5c0-1.65-1.35-3-3-3h-1c-1.65,0-3,1.35-3,3v1.5c0,.21.03.41.06.61-1.6,1.11-2.56,2.92-2.56,4.89v1.5c0,1.38,1.12,2.5,2.5,2.5h7c1.38,0,2.5-1.12,2.5-2.5v-1.5c0-1.97-.96-3.78-2.56-4.89Zm-4.94-2.11c0-.55.45-1,1-1h1c.55,0,1,.45,1,1v1.5c0,.83-.67,1.5-1.5,1.5s-1.5-.67-1.5-1.5v-1.5Zm5.5,8.5c0,.28-.22.5-.5.5h-7c-.28,0-.5-.22-.5-.5v-1.5c0-1.21.56-2.33,1.49-3.08.64.66,1.53,1.08,2.51,1.08s1.88-.42,2.51-1.08c.93.75,1.49,1.86,1.49,3.08v1.5Z"/>
  </g>
  <g>
    <path class="cls-1" d="m18,12h-1v-2h-2v2h-1c-1.38,0-2.5,1.12-2.5,2.5v2.5c0,.22.07.43.2.6l1.5,2c.33.44.96.53,1.4.2.44-.33.53-.96.2-1.4l-1.3-1.73v-2.17c0-.28.22-.5.5-.5h4c.28,0,.5.22.5.5v2.17l-1.3,1.73c-.33.44-.24,1.07.2,1.4.18.13.39.2.6.2.3,0,.6-.14.8-.4l1.5-2c.13-.17.2-.38.2-.6v-2.5c0-1.38-1.12-2.5-2.5-2.5Z"/>
    <path class="cls-1" d="m27,1H5c-.55,0-1,.45-1,1s.45,1,1,1h7v5h8V3h7c.55,0,1-.45,1-1s-.45-1-1-1Zm-10,4c0,.55-.45,1-1,1s-1-.45-1-1v-1c0-.55.45-1,1-1s1,.45,1,1v1Z"/>
  </g>
</svg>