<?xml version="1.0" encoding="UTF-8"?>
<svg id="OBJECT" xmlns="http://www.w3.org/2000/svg" viewBox="0 0 32 32">
  <defs>
    <style>
      .cls-1 {
        fill: #FD4360;
      }

      .cls-1, .cls-2 {
        stroke-width: 0px;
      }

      .cls-2 {
        fill: #dadada;
      }
    </style>
  </defs>
  <path class="cls-2" d="m30.08,7.5l.85-2.13c.12-.31.08-.66-.1-.93-.19-.27-.5-.44-.83-.44h-4v-2c0-.55-.45-1-1-1H5c-.55,0-1,.45-1,1v1h-2c-.55,0-1,.45-1,1s.45,1,1,1h2v3.75h-2c-.55,0-1,.45-1,1s.45,1,1,1h2v3.75h-2c-.55,0-1,.45-1,1s.45,1,1,1h2v3.75h-2c-.55,0-1,.45-1,1s.45,1,1,1h2v3.75h-2c-.55,0-1,.45-1,1s.45,1,1,1h2v2c0,.55.45,1,1,1h20c.55,0,1-.45,1-1V11h4c.33,0,.64-.16.83-.44.19-.27.22-.62.1-.93l-.85-2.13Zm-6.08,21.5H6V3h18v26Zm4.07-21.13l.45,1.13h-2.52v-3h2.52l-.45,1.13c-.09.24-.09.5,0,.74Z"/>
  <g>
    <rect class="cls-1" x="7.5" y="21.5" width="15" height="6" rx="1" ry="1"/>
    <path class="cls-1" d="m15,11.3c1.65,0,3-1.35,3-3v-1.2c0-1.43-1.17-2.6-2.6-2.6h-.8c-1.43,0-2.6,1.17-2.6,2.6v1.2c0,1.65,1.35,3,3,3Z"/>
    <path class="cls-1" d="m12,18.5h6c1.65,0,3-1.35,3-3v-1c0-1.5-.57-2.9-1.54-3.98-.82,1.64-2.5,2.78-4.46,2.78s-3.64-1.14-4.46-2.78c-.97,1.08-1.54,2.48-1.54,3.98v1c0,1.65,1.35,3,3,3Z"/>
  </g>
</svg>