<?xml version="1.0" encoding="UTF-8"?>
<svg id="OBJECT" xmlns="http://www.w3.org/2000/svg" viewBox="0 0 32 32">
  <defs>
    <style>
      .cls-1 {
        fill: #FD4360;
      }

      .cls-1, .cls-2 {
        stroke-width: 0px;
      }

      .cls-2 {
        fill: #dadada;
      }
    </style>
  </defs>
  <g>
    <path class="cls-2" d="m28,1h-13c-.55,0-1,.45-1,1s.45,1,1,1h13c.55,0,1,.45,1,1v24c0,.55-.45,1-1,1h-13c-.55,0-1,.45-1,1s.45,1,1,1h13c1.65,0,3-1.35,3-3V4c0-1.65-1.35-3-3-3Z"/>
    <path class="cls-2" d="m18.5,25c-.55,0-1,.45-1,1s.45,1,1,1h5c.55,0,1-.45,1-1s-.45-1-1-1h-5Z"/>
    <path class="cls-2" d="m15,18c0,.55.45,1,1,1h10c.55,0,1-.45,1-1s-.45-1-1-1h-10c-.55,0-1,.45-1,1Z"/>
    <path class="cls-2" d="m16,23h10c.55,0,1-.45,1-1s-.45-1-1-1h-10c-.55,0-1,.45-1,1s.45,1,1,1Z"/>
    <path class="cls-2" d="m21.6,11.41h-2.41c-.55,0-1,.45-1,1s.45,1,1,1h.81v.2c0,.55.45,1,1,1s1-.45,1-1v-.24c1.02-.19,1.81-1.08,1.81-2.16,0-1.22-.99-2.2-2.2-2.2h-1.2c-.11,0-.2-.09-.2-.2s.09-.2.2-.2h2.41c.55,0,1-.45,1-1s-.45-1-1-1h-.81v-.2c0-.55-.45-1-1-1s-1,.45-1,1v.24c-1.02.19-1.81,1.08-1.81,2.16,0,1.22.99,2.2,2.2,2.2h1.2c.11,0,.2.09.2.2s-.09.2-.2.2Z"/>
  </g>
  <path class="cls-1" d="m3,2v2.45h3c.55,0,1,.45,1,1s-.45,1-1,1h-3v2h3c.55,0,1,.45,1,1s-.45,1-1,1h-3v10h3c.55,0,1,.45,1,1s-.45,1-1,1h-3v2h3c.55,0,1,.45,1,1s-.45,1-1,1h-3v3.55c0,.55.45,1,1,1h7V1h-7c-.55,0-1,.45-1,1Z"/>
  <path class="cls-1" d="m2,4.45c-.55,0-1,.45-1,1s.45,1,1,1h1v-2h-1Z"/>
  <path class="cls-1" d="m2,8.45c-.55,0-1,.45-1,1s.45,1,1,1h1v-2h-1Z"/>
  <path class="cls-1" d="m2,20.45c-.55,0-1,.45-1,1s.45,1,1,1h1v-2h-1Z"/>
  <path class="cls-1" d="m2,24.45c-.55,0-1,.45-1,1s.45,1,1,1h1v-2h-1Z"/>
</svg>