<?xml version="1.0" encoding="UTF-8"?>
<svg id="OBJECT" xmlns="http://www.w3.org/2000/svg" viewBox="0 0 32 32">
  <defs>
    <style>
      .cls-1 {
        fill: #FD4360;
      }

      .cls-1, .cls-2 {
        stroke-width: 0px;
      }

      .cls-2 {
        fill: #dadada;
      }
    </style>
  </defs>
  <g>
    <path class="cls-2" d="m22,1h-14c-.27,0-.52.11-.71.29L1.29,7.29c-.19.19-.29.44-.29.71v22c0,.55.45,1,1,1h20c.55,0,1-.45,1-1V2c0-.55-.45-1-1-1Zm-15,3.41v2.59h-2.59l2.59-2.59Zm14,24.59H3V9h5c.55,0,1-.45,1-1V3h12v26Z"/>
    <path class="cls-2" d="m18.5,21H5.5c-.55,0-1,.45-1,1s.45,1,1,1h13c.55,0,1-.45,1-1s-.45-1-1-1Z"/>
    <path class="cls-2" d="m18.5,25H5.5c-.55,0-1,.45-1,1s.45,1,1,1h13c.55,0,1-.45,1-1s-.45-1-1-1Z"/>
    <path class="cls-2" d="m18.5,17H5.5c-.55,0-1,.45-1,1s.45,1,1,1h13c.55,0,1-.45,1-1s-.45-1-1-1Z"/>
    <path class="cls-2" d="m18.5,13h-10c-.55,0-1,.45-1,1s.45,1,1,1h10c.55,0,1-.45,1-1s-.45-1-1-1Z"/>
    <path class="cls-2" d="m5.5,15h.5c.55,0,1-.45,1-1s-.45-1-1-1h-.5c-.55,0-1,.45-1,1s.45,1,1,1Z"/>
    <path class="cls-2" d="m12.5,11h6c.55,0,1-.45,1-1s-.45-1-1-1h-6c-.55,0-1,.45-1,1s.45,1,1,1Z"/>
  </g>
  <g>
    <rect class="cls-1" x="26" y="7" width="5" height="3"/>
    <rect class="cls-1" x="26" y="12" width="5" height="7"/>
    <path class="cls-1" d="m26,21.78c0,2.2.53,4.33,1.51,6.19,0,0,0,.02,0,.03v2c0,.55.45,1,1,1s1-.45,1-1v-2s0-.02,0-.03c.98-1.86,1.51-3.99,1.51-6.19v-.78h-5v.78Z"/>
    <path class="cls-1" d="m30,2.5c0-.83-.67-1.5-1.5-1.5s-1.5.67-1.5,1.5v2.5h3v-2.5Z"/>
  </g>
</svg>