<?xml version="1.0" encoding="UTF-8"?>
<svg id="OBJECT" xmlns="http://www.w3.org/2000/svg" viewBox="0 0 32 32">
  <defs>
    <style>
      .cls-1 {
        fill: #FD4360;
      }

      .cls-2 {
        fill: #dadada;
      }
    </style>
  </defs>
  <g>
    <path class="cls-2" d="M5,15c1.65,0,3-1.35,3-3V3.62l2.55,1.28c.49,.25,1.09,.05,1.34-.45,.25-.49,.05-1.09-.45-1.34L7.45,1.11c-.31-.15-.68-.14-.97,.04-.29,.18-.47,.5-.47,.85v6h-2c-1.65,0-3,1.35-3,3v1c0,1.65,1.35,3,3,3h1Zm-2-3v-1c0-.55,.45-1,1-1h2v2c0,.55-.45,1-1,1h-1c-.55,0-1-.45-1-1Z"/>
    <path class="cls-2" d="M20.59,15.2c-.25-.19-.58-.24-.89-.15l-12.05,3.71c-.43-.74-1.23-1.25-2.15-1.25H3c-.55,0-1,.45-1,1v7c0,.55,.45,1,1,1h2.5c.92,0,1.72-.51,2.15-1.25l1.85,.57v2.68c0,1.38,1.12,2.5,2.5,2.5h4c1.35,0,2.45-1.08,2.49-2.42l1.21,.37c.1,.03,.2,.04,.29,.04,.21,0,.42-.07,.59-.2,.26-.19,.41-.49,.41-.8v-12c0-.32-.15-.62-.41-.8ZM6,24c0,.28-.22,.5-.5,.5h-1.5v-5h1.5c.28,0,.5,.22,.5,.5v4Zm10.5,4.5c0,.28-.22,.5-.5,.5h-4c-.28,0-.5-.22-.5-.5v-2.07l5,1.54v.53Zm2.5-1.85l-11-3.39v-2.52l6-1.85v3.11c0,.55,.45,1,1,1s1-.45,1-1v-3.72l3-.92v9.29Z"/>
  </g>
  <path class="cls-1" d="M28,1h-11c-1.65,0-3,1.35-3,3v4c0,1.65,1.35,3,3,3h4.5c.55,0,1,.45,1,1s-.45,1-1,1h-2l.6,.8c.56,.75,1.46,1.2,2.4,1.2s1.84-.45,2.4-1.2l2.1-2.8h1c1.65,0,3-1.35,3-3V4c0-1.65-1.35-3-3-3Zm-10,6.25h-.5c-.55,0-1-.45-1-1s.45-1,1-1h.5c.55,0,1,.45,1,1s-.45,1-1,1Zm9.5,0h-6c-.55,0-1-.45-1-1s.45-1,1-1h6c.55,0,1,.45,1,1s-.45,1-1,1Z"/>
</svg>