<?xml version="1.0" encoding="UTF-8"?>
<svg id="OBJECT" xmlns="http://www.w3.org/2000/svg" viewBox="0 0 32 32">
  <defs>
    <style>
      .cls-1 {
        fill: #FD4360;
      }

      .cls-1, .cls-2 {
        stroke-width: 0px;
      }

      .cls-2 {
        fill: #dadada;
      }
    </style>
  </defs>
  <g>
    <path class="cls-2" d="m30,1H13c-.55,0-1,.45-1,1s.45,1,1,1h16v26H13c-.55,0-1,.45-1,1s.45,1,1,1h17c.55,0,1-.45,1-1V2c0-.55-.45-1-1-1Z"/>
    <path class="cls-2" d="m26,25.74h-11c-.55,0-1,.45-1,1s.45,1,1,1h11c.55,0,1-.45,1-1s-.45-1-1-1Z"/>
    <path class="cls-2" d="m26,21.74h-11c-.55,0-1,.45-1,1s.45,1,1,1h11c.55,0,1-.45,1-1s-.45-1-1-1Z"/>
    <path class="cls-2" d="m20.5,4.26c-4.14,0-7.5,3.36-7.5,7.5s3.36,7.5,7.5,7.5,7.5-3.36,7.5-7.5-3.36-7.5-7.5-7.5Zm0,2c3.03,0,5.5,2.47,5.5,5.5,0,.58-.09,1.13-.26,1.66-.58-.57-1.25-1.05-1.99-1.4.15-.39.24-.81.24-1.25,0-1.93-1.57-3.5-3.5-3.5s-3.5,1.57-3.5,3.5c0,.44.09.86.24,1.25-.74.36-1.4.83-1.99,1.4-.17-.52-.26-1.08-.26-1.66,0-3.03,2.47-5.5,5.5-5.5Zm1.5,4.5c0,.83-.67,1.5-1.5,1.5s-1.5-.67-1.5-1.5.67-1.5,1.5-1.5,1.5.67,1.5,1.5Zm-1.5,6.5c-1.7,0-3.21-.77-4.22-1.98.6-.73,1.38-1.28,2.26-1.62.56.38,1.24.61,1.96.61s1.4-.22,1.96-.61c.88.34,1.66.9,2.26,1.62-1.01,1.21-2.53,1.98-4.22,1.98Z"/>
  </g>
  <path class="cls-1" d="m4,2v1h-2c-.55,0-1,.45-1,1s.45,1,1,1h2v2h-2c-.55,0-1,.45-1,1s.45,1,1,1h2v14h-2c-.55,0-1,.45-1,1s.45,1,1,1h2v2h-2c-.55,0-1,.45-1,1s.45,1,1,1h2v1c0,.55.45,1,1,1h5V1h-5c-.55,0-1,.45-1,1Z"/>
</svg>