<?xml version="1.0" encoding="UTF-8"?>
<svg id="OBJECT" xmlns="http://www.w3.org/2000/svg" viewBox="0 0 32 32">
  <defs>
    <style>
      .cls-1 {
        fill: #FD4360;
      }

      .cls-2 {
        fill: #dadada;
      }
    </style>
  </defs>
  <path class="cls-2" d="M30.22,7.57l-.79-.79c-1.04-1.04-2.74-1.04-3.78,0L8.85,23.57c-.82,.82-1.27,1.92-1.27,3.08v1.36l-1.29,1.29c-.39,.39-.39,1.02,0,1.41,.2,.2,.45,.29,.71,.29s.51-.1,.71-.29l1.29-1.29h1.36c1.16,0,2.26-.45,3.08-1.27L30.22,11.36c.51-.5,.78-1.18,.78-1.89s-.28-1.39-.78-1.89ZM12.08,23.17l12.3-12.3,1.75,1.75-12.3,12.29c-.39-.75-1-1.35-1.75-1.74Zm-1.73,4.25h-.77v-.77c0-.63,.24-1.22,.69-1.66l.27-.27c.89,.16,1.59,.86,1.75,1.74l-.27,.27c-.44,.44-1.03,.69-1.66,.69ZM28.8,9.94l-1.27,1.27-1.75-1.75,1.27-1.27c.26-.26,.69-.26,.96,0l.79,.79c.13,.13,.2,.3,.2,.48s-.07,.35-.2,.48Z"/>
  <path class="cls-1" d="M15,1H4c-1.65,0-3,1.35-3,3v7c0,1.65,1.35,3,3,3h4.5c.55,0,1,.45,1,1s-.45,1-1,1h-2l.6,.8c.56,.75,1.46,1.2,2.4,1.2s1.84-.45,2.4-1.2l2.1-2.8h1c1.65,0,3-1.35,3-3V4c0-1.65-1.35-3-3-3ZM5.5,4.75h5c.55,0,1,.45,1,1s-.45,1-1,1H5.5c-.55,0-1-.45-1-1s.45-1,1-1Zm8,5.5H5.5c-.55,0-1-.45-1-1s.45-1,1-1H13.5c.55,0,1,.45,1,1s-.45,1-1,1Z"/>
</svg>