<?xml version="1.0" encoding="UTF-8"?>
<svg id="OBJECT" xmlns="http://www.w3.org/2000/svg" viewBox="0 0 32 32">
  <defs>
    <style>
      .cls-1 {
        fill: #FD4360;
      }

      .cls-2 {
        fill: #dadada;
      }
    </style>
  </defs>
  <path class="cls-2" d="m27,1H7c-.55,0-1,.45-1,1v1h-1c-.55,0-1,.45-1,1s.45,1,1,1h1v6h-1c-.55,0-1,.45-1,1s.45,1,1,1h1v6h-1c-.55,0-1,.45-1,1s.45,1,1,1h1v6h-1c-.55,0-1,.45-1,1s.45,1,1,1h1v1c0,.55.45,1,1,1h20c.55,0,1-.45,1-1V2c0-.55-.45-1-1-1Zm-1,28H8V3h18v26Z"/>
  <g>
    <rect class="cls-1" x="10" y="21" width="14" height="6" rx="2" ry="2"/>
    <path class="cls-1" d="m16.41,10.94c2.11.4,3.94-1.42,3.53-3.53-.22-1.17-1.18-2.13-2.36-2.36-2.11-.4-3.93,1.42-3.53,3.53.22,1.17,1.18,2.13,2.36,2.36Z"/>
    <path class="cls-1" d="m13.5,17.5h7c.83,0,1.5-.67,1.5-1.5v-.5c0-1.5-.68-2.83-1.73-3.75-.88.77-2.02,1.25-3.27,1.25s-2.39-.48-3.27-1.25c-1.05.92-1.73,2.25-1.73,3.75v.5c0,.83.67,1.5,1.5,1.5Z"/>
  </g>
</svg>