<?xml version="1.0" encoding="UTF-8"?>
<svg id="OBJECT" xmlns="http://www.w3.org/2000/svg" viewBox="0 0 32 32">
  <defs>
    <style>
      .cls-1 {
        fill: #FD4360;
      }

      .cls-1, .cls-2 {
        stroke-width: 0px;
      }

      .cls-2 {
        fill: #dadada;
      }
    </style>
  </defs>
  <g>
    <path class="cls-2" d="m10.5,16h11c.55,0,1-.45,1-1v-4c0-.55-.45-1-1-1h-11c-.55,0-1,.45-1,1v4c0,.55.45,1,1,1Zm1-4h9v2h-9v-2Z"/>
    <path class="cls-2" d="m25.5,1H6.5c-1.38,0-2.5,1.12-2.5,2.5v3.5c0,.55.45,1,1,1h.5v9.5c0,1.38,1.12,2.5,2.5,2.5h16c1.38,0,2.5-1.12,2.5-2.5v-9.5h.5c.55,0,1-.45,1-1v-3.5c0-1.38-1.12-2.5-2.5-2.5ZM6,3.5c0-.28.22-.5.5-.5h19c.28,0,.5.22.5.5v2.5H6v-2.5Zm18.5,14c0,.28-.22.5-.5.5H8c-.28,0-.5-.22-.5-.5v-9.5h17v9.5Z"/>
  </g>
  <path class="cls-1" d="m28,22H4c-1.65,0-3,1.35-3,3v3c0,1.65,1.35,3,3,3h24c1.65,0,3-1.35,3-3v-3c0-1.65-1.35-3-3-3Zm-21.5,5.5h-1c-.55,0-1-.45-1-1s.45-1,1-1h1c.55,0,1,.45,1,1s-.45,1-1,1Zm6.67,0h-1c-.55,0-1-.45-1-1s.45-1,1-1h1c.55,0,1,.45,1,1s-.45,1-1,1Zm6.67,0h-1c-.55,0-1-.45-1-1s.45-1,1-1h1c.55,0,1,.45,1,1s-.45,1-1,1Zm6.67,0h-1c-.55,0-1-.45-1-1s.45-1,1-1h1c.55,0,1,.45,1,1s-.45,1-1,1Z"/>
</svg>