<?xml version="1.0" encoding="UTF-8"?>
<svg id="OBJECT" xmlns="http://www.w3.org/2000/svg" viewBox="0 0 32 32">
  <defs>
    <style>
      .cls-1 {
        fill: #FD4360;
      }

      .cls-1, .cls-2 {
        stroke-width: 0px;
      }

      .cls-2 {
        fill: #dadada;
      }
    </style>
  </defs>
  <g>
    <path class="cls-2" d="m12.5,15c-.55,0-1,.45-1,1s.45,1,1,1h.5c.55,0,1-.45,1-1s-.45-1-1-1h-.5Z"/>
    <path class="cls-2" d="m20.95,17.05c-.39-.39-1.02-.39-1.41,0l-4.95,4.95h-5.17l-5-5h4.59c.55,0,1-.45,1-1s-.45-1-1-1H3v-4h11.12c.55,0,1-.45,1-1s-.45-1-1-1h-1.12V2c0-.55-.45-1-1-1s-1,.45-1,1v7h-3v-5c0-.43-.28-.81-.68-.95l-3-1c-.53-.18-1.09.11-1.27.63-.17.52.11,1.09.63,1.27l2.32.77v4.28H2c-.55,0-1,.45-1,1v6c0,.27.11.52.29.71l6.71,6.71v6.59c0,.32.15.62.42.81.17.12.38.19.58.19.11,0,.21-.02.32-.05l4.64-1.54c1.22-.42,2.05-1.56,2.05-2.85v-3.15l4.95-4.95c.39-.39.39-1.02,0-1.41Zm-7.63,10.46l-3.31,1.1v-4.61h4v2.56c0,.43-.28.81-.69.95Z"/>
  </g>
  <path class="cls-1" d="m23.5,1c-4.14,0-7.5,3.36-7.5,7.5s3.36,7.5,7.5,7.5,7.5-3.36,7.5-7.5-3.36-7.5-7.5-7.5Zm-.7,6.5h1.4c1.32,0,2.4,1.07,2.4,2.4,0,1.22-.92,2.22-2.09,2.37v.43c0,.55-.45,1-1,1s-1-.45-1-1v-.4h-1.09c-.55,0-1-.45-1-1s.45-1,1-1h2.79c.22,0,.4-.18.4-.4s-.18-.4-.4-.4h-1.4c-1.32,0-2.4-1.07-2.4-2.4,0-1.22.92-2.22,2.09-2.37v-.43c0-.55.45-1,1-1s1,.45,1,1v.4h1.09c.55,0,1,.45,1,1s-.45,1-1,1h-2.79c-.22,0-.4.18-.4.4s.18.4.4.4Z"/>
</svg>