<?xml version="1.0" encoding="UTF-8"?>
<svg id="OBJECT" xmlns="http://www.w3.org/2000/svg" viewBox="0 0 32 32">
  <defs>
    <style>
      .cls-1 {
        fill: #FD4360;
      }

      .cls-2 {
        fill: #dadada;
      }
    </style>
  </defs>
  <g>
    <path class="cls-2" d="M9,4c-.55,0-1,.45-1,1s.45,1,1,1h1c.55,0,1-.45,1-1s-.45-1-1-1h-1Z"/>
    <path class="cls-2" d="M17,6c.55,0,1-.45,1-1v-1c0-1.65-1.35-3-3-3H4c-1.65,0-3,1.35-3,3V28c0,1.65,1.35,3,3,3H15c1.65,0,3-1.35,3-3v-3.07c0-.55-.45-1-1-1s-1,.45-1,1v.07H3V4c0-.55,.45-1,1-1H15c.55,0,1,.45,1,1v1c0,.55,.45,1,1,1Zm-1,21v1c0,.55-.45,1-1,1H4c-.55,0-1-.45-1-1v-1h13Z"/>
  </g>
  <path class="cls-1" d="M28,7H11c-1.65,0-3,1.35-3,3v6c0,1.65,1.35,3,3,3h1l2.1,2.8c.56,.75,1.46,1.2,2.4,1.2s1.84-.45,2.4-1.2l.6-.8h-2c-.55,0-1-.45-1-1s.45-1,1-1h10.5c1.65,0,3-1.35,3-3v-6c0-1.65-1.35-3-3-3Zm-15.5,3h.5c.55,0,1,.45,1,1s-.45,1-1,1h-.5c-.55,0-1-.45-1-1s.45-1,1-1Zm14,6H12.5c-.55,0-1-.45-1-1s.45-1,1-1h14c.55,0,1,.45,1,1s-.45,1-1,1Zm0-4h-10c-.55,0-1-.45-1-1s.45-1,1-1h10c.55,0,1,.45,1,1s-.45,1-1,1Z"/>
</svg>