<?xml version="1.0" encoding="UTF-8"?>
<svg id="OBJECT" xmlns="http://www.w3.org/2000/svg" viewBox="0 0 32 32">
  <defs>
    <style>
      .cls-1 {
        fill: #FD4360;
      }

      .cls-1, .cls-2 {
        stroke-width: 0px;
      }

      .cls-2 {
        fill: #dadada;
      }
    </style>
  </defs>
  <g>
    <path class="cls-2" d="m30,16h-2v-2c0-.55-.45-1-1-1s-1,.45-1,1v6.32l-3.12,1.25c-1.14.46-1.88,1.55-1.88,2.79v4.65h-10v-4.65c0-1.23-.74-2.33-1.89-2.79l-3.11-1.25v-6.32c0-.55-.45-1-1-1s-1,.45-1,1v2h-2c-.55,0-1,.45-1,1v6c0,.55.45,1,1,1h2v3c0,2.21,1.79,4,4,4h16c2.21,0,4-1.79,4-4v-3h2c.55,0,1-.45,1-1v-6c0-.55-.45-1-1-1ZM3,22v-4h1v4h-1Zm3,5v-4.52l2.37.95c.38.15.63.52.63.93v4.65h-1c-1.1,0-2-.9-2-2Zm18,2h-1v-4.65c0-.41.25-.78.63-.93l2.37-.95v4.52c0,1.1-.9,2-2,2Zm5-7h-1v-4h1v4Z"/>
    <path class="cls-2" d="m18.25,22.73c.25,0,.51-.1.7-.29.39-.39.4-1.02,0-1.41-.79-.8-1.84-1.24-2.96-1.24s-2.17.44-2.96,1.24c-.39.39-.38,1.03,0,1.41.39.39,1.03.39,1.41,0,.82-.83,2.26-.83,3.08,0,.2.2.45.3.71.3Z"/>
    <path class="cls-2" d="m12.21,19.14c1.01-1.02,2.36-1.59,3.79-1.59s2.78.56,3.79,1.59c.2.2.45.3.71.3s.51-.1.7-.29c.39-.39.4-1.02,0-1.42-1.39-1.4-3.24-2.18-5.21-2.18s-3.82.77-5.21,2.18c-.39.39-.38,1.03,0,1.42.39.39,1.03.38,1.42,0Z"/>
    <path class="cls-2" d="m15.75,23.56c-.55,0-1,.45-1,1s.45,1,1,1h.5c.55,0,1-.45,1-1s-.45-1-1-1h-.5Z"/>
  </g>
  <path class="cls-1" d="m3,12h26c.55,0,1-.45,1-1s-.45-1-1-1h-1v-1c0-2.21-1.79-4-4-4h-4v-1c0-1.65-1.35-3-3-3h-2c-1.65,0-3,1.35-3,3v1h-4c-2.21,0-4,1.79-4,4v1h-1c-.55,0-1,.45-1,1s.45,1,1,1ZM14,4c0-.55.45-1,1-1h2c.55,0,1,.45,1,1v1h-4v-1Z"/>
</svg>