<?xml version="1.0" encoding="UTF-8"?>
<svg id="OBJECT" xmlns="http://www.w3.org/2000/svg" viewBox="0 0 32 32">
  <defs>
    <style>
      .cls-1 {
        fill: #FD4360;
      }

      .cls-2 {
        fill: #dadada;
      }
    </style>
  </defs>
  <g>
    <path class="cls-2" d="M21,25H11c-.55,0-1,.45-1,1s.45,1,1,1h10c.55,0,1-.45,1-1s-.45-1-1-1Z"/>
    <path class="cls-2" d="M6.91,25h-.91c-.55,0-1,.45-1,1s.45,1,1,1h.91c.55,0,1-.45,1-1s-.45-1-1-1Z"/>
    <path class="cls-2" d="M25.09,27h.91c.55,0,1-.45,1-1s-.45-1-1-1h-.91c-.55,0-1,.45-1,1s.45,1,1,1Z"/>
    <path class="cls-2" d="M20.32,23h.91c.55,0,1-.45,1-1s-.45-1-1-1h-.91c-.55,0-1,.45-1,1s.45,1,1,1Z"/>
    <path class="cls-2" d="M15.55,23h.91c.55,0,1-.45,1-1s-.45-1-1-1h-.91c-.55,0-1,.45-1,1s.45,1,1,1Z"/>
    <path class="cls-2" d="M10.77,23h.91c.55,0,1-.45,1-1s-.45-1-1-1h-.91c-.55,0-1,.45-1,1s.45,1,1,1Z"/>
    <path class="cls-2" d="M6,21c-.55,0-1,.45-1,1s.45,1,1,1h.91c.55,0,1-.45,1-1s-.45-1-1-1h-.91Z"/>
    <path class="cls-2" d="M25.09,23h.91c.55,0,1-.45,1-1s-.45-1-1-1h-.91c-.55,0-1,.45-1,1s.45,1,1,1Z"/>
    <path class="cls-2" d="M31,15.5v-1c0-1.38-1.12-2.5-2.5-2.5H3.5c-1.38,0-2.5,1.12-2.5,2.5v1c0,1.38,1.12,2.5,2.5,2.5h.09l-1.85,1.85c-.47,.47-.73,1.11-.73,1.77v6.88c0,1.38,1.12,2.5,2.5,2.5H28.5c1.38,0,2.5-1.12,2.5-2.5v-6.88c0-.66-.27-1.3-.73-1.77l-1.85-1.85h.09c1.38,0,2.5-1.12,2.5-2.5Zm-28,0v-1c0-.28,.22-.5,.5-.5H28.5c.28,0,.5,.22,.5,.5v1c0,.28-.22,.5-.5,.5H3.5c-.28,0-.5-.22-.5-.5Zm25.85,5.77c.09,.09,.15,.22,.15,.35v6.88c0,.28-.22,.5-.5,.5H3.5c-.28,0-.5-.22-.5-.5v-6.88c0-.13,.05-.26,.15-.35l3.27-3.27H25.59l3.27,3.27Z"/>
  </g>
  <path class="cls-1" d="M26.27,2.85l-1.12-1.12c-.47-.47-1.11-.73-1.77-.73H7.5c-1.38,0-2.5,1.12-2.5,2.5v6.5H27V4.62c0-.66-.27-1.3-.73-1.77Zm-16.27-.1h.5c.55,0,1,.45,1,1s-.45,1-1,1h-.5c-.55,0-1-.45-1-1s.45-1,1-1Zm12,5.5H10c-.55,0-1-.45-1-1s.45-1,1-1h12c.55,0,1,.45,1,1s-.45,1-1,1Zm0-3.5H14c-.55,0-1-.45-1-1s.45-1,1-1h8c.55,0,1,.45,1,1s-.45,1-1,1Z"/>
</svg>