<?xml version="1.0" encoding="UTF-8"?>
<svg id="OBJECT" xmlns="http://www.w3.org/2000/svg" viewBox="0 0 32 32">
  <defs>
    <style>
      .cls-1 {
        fill: #FD4360;
      }

      .cls-2 {
        fill: #dadada;
      }
    </style>
  </defs>
  <g>
    <path class="cls-2" d="m30,29h-1V10h1c.55,0,1-.45,1-1s-.45-1-1-1h-14c-.55,0-1,.45-1,1v20H2c-.55,0-1,.45-1,1s.45,1,1,1h28c.55,0,1-.45,1-1s-.45-1-1-1Zm-13-19h10v19h-1.5v-6.5c0-1.38-1.12-2.5-2.5-2.5h-2c-1.38,0-2.5,1.12-2.5,2.5v6.5h-1.5V10Zm6.5,19h-3v-6.5c0-.28.22-.5.5-.5h2c.28,0,.5.22.5.5v6.5Z"/>
    <path class="cls-2" d="m19,14h1c.55,0,1-.45,1-1s-.45-1-1-1h-1c-.55,0-1,.45-1,1s.45,1,1,1Z"/>
    <path class="cls-2" d="m24,14h1c.55,0,1-.45,1-1s-.45-1-1-1h-1c-.55,0-1,.45-1,1s.45,1,1,1Z"/>
    <path class="cls-2" d="m19,18h1c.55,0,1-.45,1-1s-.45-1-1-1h-1c-.55,0-1,.45-1,1s.45,1,1,1Z"/>
    <path class="cls-2" d="m24,18h1c.55,0,1-.45,1-1s-.45-1-1-1h-1c-.55,0-1,.45-1,1s.45,1,1,1Z"/>
  </g>
  <path class="cls-1" d="m2,3h1v24h10V1H2c-.55,0-1,.45-1,1s.45,1,1,1Zm6.75,3c0-.55.45-1,1-1s1,.45,1,1v1c0,.55-.45,1-1,1s-1-.45-1-1v-1Zm0,5.67c0-.55.45-1,1-1s1,.45,1,1v1c0,.55-.45,1-1,1s-1-.45-1-1v-1Zm0,5.67c0-.55.45-1,1-1s1,.45,1,1v1c0,.55-.45,1-1,1s-1-.45-1-1v-1Zm0,5.67c0-.55.45-1,1-1s1,.45,1,1v1c0,.55-.45,1-1,1s-1-.45-1-1v-1ZM5.25,6c0-.55.45-1,1-1s1,.45,1,1v1c0,.55-.45,1-1,1s-1-.45-1-1v-1Zm0,5.67c0-.55.45-1,1-1s1,.45,1,1v1c0,.55-.45,1-1,1s-1-.45-1-1v-1Zm0,5.67c0-.55.45-1,1-1s1,.45,1,1v1c0,.55-.45,1-1,1s-1-.45-1-1v-1Zm0,5.67c0-.55.45-1,1-1s1,.45,1,1v1c0,.55-.45,1-1,1s-1-.45-1-1v-1Z"/>
</svg>