<?xml version="1.0" encoding="UTF-8"?>
<svg id="OBJECT" xmlns="http://www.w3.org/2000/svg" viewBox="0 0 32 32">
  <defs>
    <style>
      .cls-1 {
        fill: #FD4360;
      }

      .cls-1, .cls-2 {
        stroke-width: 0px;
      }

      .cls-2 {
        fill: #dadada;
      }
    </style>
  </defs>
  <g>
    <path class="cls-2" d="m14,19H5c-.28,0-.55.12-.74.33-.19.21-.28.49-.25.77l.82,8.2c.15,1.54,1.44,2.7,2.99,2.7h3.38c1.55,0,2.83-1.16,2.99-2.7l.82-8.2c.03-.28-.06-.56-.25-.77-.19-.21-.46-.33-.74-.33Zm-1.81,9.1c-.05.51-.48.9-1,.9h-3.38c-.52,0-.94-.39-1-.9l-.31-3.1h3.1c.55,0,1-.45,1-1s-.45-1-1-1h-3.3l-.2-2h6.79l-.71,7.1Z"/>
    <path class="cls-2" d="m27.72,8.31c-.19-.2-.45-.31-.72-.31h-.5v-3c0-.55-.45-1-1-1h-6c-.55,0-1,.45-1,1v3h-.5c-.27,0-.54.11-.72.31-.19.2-.29.46-.28.74l.91,19.09c.08,1.6,1.39,2.86,3,2.86h3.19c1.6,0,2.92-1.25,3-2.86l.91-19.09c.01-.27-.09-.54-.28-.74Zm-7.22-2.31h4v2h-4v-2Zm4.59,22.05c-.03.53-.46.95-1,.95h-3.19c-.53,0-.97-.42-1-.95l-.29-6.05h5.76l-.29,6.05Zm.38-8.05h-5.95l-.48-10h6.9l-.48,10Z"/>
  </g>
  <path class="cls-1" d="m8,9h.5v8h2v-8h.5c.83,0,1.5-.67,1.5-1.5V2.5c0-.83-.67-1.5-1.5-1.5h-3c-.83,0-1.5.67-1.5,1.5v5c0,.83.67,1.5,1.5,1.5Z"/>
</svg>