<?xml version="1.0" encoding="UTF-8" standalone="no"?>
<svg
   id="OBJECT"
   viewBox="0 0 32 32"
   version="1.1"
   sodipodi:docname="Grammar Fix.svg"
   xml:space="preserve"
   inkscape:version="1.2.2 (732a01da63, 2022-12-09)"
   xmlns:inkscape="http://www.inkscape.org/namespaces/inkscape"
   xmlns:sodipodi="http://sodipodi.sourceforge.net/DTD/sodipodi-0.dtd"
   xmlns="http://www.w3.org/2000/svg"
   xmlns:svg="http://www.w3.org/2000/svg"><sodipodi:namedview
     id="namedview27"
     pagecolor="#505050"
     bordercolor="#ffffff"
     borderopacity="1"
     inkscape:showpageshadow="0"
     inkscape:pageopacity="0"
     inkscape:pagecheckerboard="1"
     inkscape:deskcolor="#505050"
     showgrid="false"
     inkscape:zoom="9.1592427"
     inkscape:cx="42.579939"
     inkscape:cy="12.664803"
     inkscape:window-width="1920"
     inkscape:window-height="1009"
     inkscape:window-x="-8"
     inkscape:window-y="-8"
     inkscape:window-maximized="1"
     inkscape:current-layer="OBJECT" /><defs
     id="defs4"><rect
       x="-48.328105"
       y="-29.027744"
       width="26.094089"
       height="39.990349"
       id="rect545" /><style
       id="style2">
      .cls-1 {
        fill: #FD4360;
      }

      .cls-1, .cls-2 {
        stroke-width: 0px;
      }

      .cls-2 {
        fill: #dadada;
      }
    </style></defs><text
     xml:space="preserve"
     id="text543"
     style="font-size:14.6667px;font-family:'Times New Roman';-inkscape-font-specification:'Times New Roman, ';text-align:justify;white-space:pre;shape-inside:url(#rect545);fill:#fd4360;fill-opacity:1;stroke-width:0.917"
     transform="matrix(2.0811904,0,0,2.0811904,106.95215,62.849736)"><tspan
       x="-48.328125"
       y="-16.008875"
       id="tspan925">T</tspan></text><g
     id="g489"
     transform="matrix(0.54095128,0,0,0.54095128,55.532092,-0.98156281)"><g
       id="g904"
       transform="translate(12.028147,-16.037529)"><circle
         style="fill:#dadada;stroke-width:0.917"
         id="path405"
         cx="-66.326439"
         cy="28.65295"
         r="2.1289971" /><path
         style="fill:#dadada;stroke-width:0.917"
         d="m -70.446319,33.003618 1.544029,-1.273824 -0.308806,-0.849216 -1.428227,1.04222 z"
         id="path461" /><path
         style="fill:#dadada;stroke-width:0.917"
         d="m -62.340168,24.164053 -1.544029,1.273824 0.308806,0.849216 1.428227,-1.04222 z"
         id="path463" /><path
         style="fill:#dadada;stroke-width:0.917"
         d="m -62.340168,24.164053 -1.544029,1.273824 0.308806,0.849216 1.428227,-1.04222 z"
         id="path465" /><path
         style="fill:#dadada;stroke-width:0.917"
         d="m -70.52352,24.202653 1.544029,1.273824 -0.308806,0.849216 -1.428227,-1.04222 z"
         id="path467" /><path
         style="fill:#dadada;stroke-width:0.917"
         d="m -62.224365,33.196622 -1.544029,-1.273824 0.308806,-0.849216 1.428227,1.04222 z"
         id="path469" /><path
         style="fill:#dadada;stroke-width:0.917"
         d="m -66.509046,24.781664 -0.295058,-0.44832 -0.04094,-3.725745 0.327538,-0.354833 0.341185,0.395775 v 3.712098 z"
         id="path471" /><path
         style="fill:#dadada;stroke-width:0.917"
         d="m -66.316042,36.902291 -0.295058,-0.44832 -0.04094,-3.725745 0.327538,-0.354833 0.341185,0.395775 v 3.712098 z"
         id="path473" /><path
         style="fill:#dadada;stroke-width:0.917"
         d="m -62.599015,28.694967 0.44832,-0.295057 3.725745,-0.04094 0.354833,0.327537 -0.395775,0.341186 h -3.712098 z"
         id="path475" /><path
         style="fill:#dadada;stroke-width:0.917"
         d="m -74.526638,28.579165 0.44832,-0.295057 3.725745,-0.04094 0.354833,0.327537 -0.395775,0.341186 h -3.712098 z"
         id="path477" /></g></g></svg>
