<?xml version="1.0" encoding="UTF-8"?>
<svg id="OBJECT" xmlns="http://www.w3.org/2000/svg" viewBox="0 0 32 32">
  <defs>
    <style>
      .cls-1 {
        fill: #FD4360;
      }

      .cls-1, .cls-2 {
        stroke-width: 0px;
      }

      .cls-2 {
        fill: #dadada;
      }
    </style>
  </defs>
  <g>
    <path class="cls-2" d="m27.61,1.21c-.26-.2-.61-.27-.93-.16-3.67,1.22-7.7,1.22-11.37,0-.32-.11-.67-.05-.93.16-.26.21-.41.53-.38.86l1.87,26.14c.11,1.56,1.43,2.79,2.99,2.79h4.28c1.57,0,2.88-1.22,2.99-2.79l1.87-26.14c.02-.33-.12-.66-.38-.86Zm-11.22,6.22c1.51.36,3.06.54,4.61.54s3.1-.18,4.61-.54l-1.18,16.57h-6.85l-1.18-16.57Zm9.51-4.06l-.14,1.96c-3.1.85-6.42.85-9.52,0l-.14-1.96c3.2.81,6.6.81,9.8,0Zm-2.76,25.64h-4.28c-.52,0-.96-.41-1-.93l-.15-2.07h6.57l-.15,2.07c-.04.52-.48.93-1,.93Z"/>
    <path class="cls-2" d="m21.5,9h-1c-1.38,0-2.5,1.12-2.5,2.5v2c0,1.38,1.12,2.5,2.5,2.5h1c1.38,0,2.5-1.12,2.5-2.5v-2c0-1.38-1.12-2.5-2.5-2.5Zm.5,4.5c0,.28-.22.5-.5.5h-1c-.28,0-.5-.22-.5-.5v-2c0-.28.22-.5.5-.5h1c.28,0,.5.22.5.5v2Z"/>
  </g>
  <g>
    <path class="cls-1" d="m4.95,19.69c-1.16,1.09-1.27,2.9-.25,4.12l.78.93h0c.59.7,1.44,1.07,2.3,1.07.63,0,1.26-.2,1.8-.6l1.74-1.3-4.79-5.71-1.58,1.49Z"/>
    <polygon class="cls-1" points="12.73 12.38 7.99 16.83 12.92 22.71 13.44 22.32 12.73 12.38"/>
  </g>
</svg>