<?xml version="1.0" encoding="UTF-8"?>
<svg id="OBJECT" xmlns="http://www.w3.org/2000/svg" viewBox="0 0 32 32">
  <defs>
    <style>
      .cls-1 {
        fill: #FD4360;
      }

      .cls-1, .cls-2 {
        stroke-width: 0px;
      }

      .cls-2 {
        fill: #dadada;
      }
    </style>
  </defs>
  <path class="cls-1" d="m28.59,1h-13.18c-1.33,0-2.41,1.08-2.41,2.41v13.65c0,.42.26.79.65.94.11.04.23.06.35.06.28,0,.56-.12.75-.34l3-3.42h10.84c1.33,0,2.41-1.08,2.41-2.41V3.41c0-1.33-1.08-2.41-2.41-2.41Zm-6.59,9.64h-4c-.55,0-1-.45-1-1s.45-1,1-1h4c.55,0,1,.45,1,1s-.45,1-1,1Zm4,0h-1c-.55,0-1-.45-1-1s.45-1,1-1h1c.55,0,1,.45,1,1s-.45,1-1,1Zm0-4h-8c-.55,0-1-.45-1-1s.45-1,1-1h8c.55,0,1,.45,1,1s-.45,1-1,1Z"/>
  <path class="cls-2" d="m11.55,22.29c.09-.32.15-.64.15-.99v-2.02c0-1.67-1.36-3.03-3.03-3.03h-1.35c-1.67,0-3.03,1.36-3.03,3.03v2.02c0,.34.06.67.15.99-2.1,1.13-3.45,3.33-3.45,5.76v.67c0,1.26,1.03,2.29,2.29,2.29h9.43c1.26,0,2.29-1.03,2.29-2.29v-.67c0-2.44-1.35-4.64-3.45-5.76Zm-5.25-3.01c0-.57.46-1.03,1.03-1.03h1.35c.57,0,1.03.46,1.03,1.03v2.02c0,.94-.76,1.7-1.7,1.7s-1.7-.76-1.7-1.7v-2.02Zm6.7,9.44c0,.16-.13.29-.29.29H3.29c-.16,0-.29-.13-.29-.29v-.67c0-1.73.98-3.28,2.49-4.05.66.61,1.54,1,2.51,1s1.85-.38,2.51-1c1.51.77,2.49,2.32,2.49,4.05v.67Z"/>
</svg>