<?xml version="1.0" encoding="UTF-8"?>
<svg id="OBJECT" xmlns="http://www.w3.org/2000/svg" viewBox="0 0 32 32">
  <defs>
    <style>
      .cls-1 {
        fill: #FD4360;
      }

      .cls-1, .cls-2 {
        stroke-width: 0px;
      }

      .cls-2 {
        fill: #dadada;
      }
    </style>
  </defs>
  <g>
    <path class="cls-2" d="m25,13H7c-1.65,0-3,1.35-3,3v2c0,.55.45,1,1,1h1v9c0,1.65,1.35,3,3,3h14c1.65,0,3-1.35,3-3v-9h1c.55,0,1-.45,1-1v-2c0-1.65-1.35-3-3-3Zm-1,15c0,.55-.45,1-1,1h-14c-.55,0-1-.45-1-1v-9h16v9Zm2-11H6v-1c0-.55.45-1,1-1h18c.55,0,1,.45,1,1v1Z"/>
    <path class="cls-2" d="m13,27h6c1.65,0,3-1.35,3-3v-1c0-1.65-1.35-3-3-3h-6c-1.65,0-3,1.35-3,3v1c0,1.65,1.35,3,3,3Zm-1-4c0-.55.45-1,1-1h6c.55,0,1,.45,1,1v1c0,.55-.45,1-1,1h-6c-.55,0-1-.45-1-1v-1Z"/>
  </g>
  <g>
    <path class="cls-1" d="m9,1c-1.65,0-3,1.57-3,3.5,0,1.52.84,2.8,2,3.28v4.22h2v-4.22c1.16-.48,2-1.77,2-3.28,0-1.93-1.35-3.5-3-3.5Z"/>
    <path class="cls-1" d="m16,1c-1.65,0-3,1.57-3,3.5,0,1.52.84,2.8,2,3.28v4.22h2v-4.22c1.16-.48,2-1.77,2-3.28,0-1.93-1.35-3.5-3-3.5Z"/>
    <path class="cls-1" d="m23,1c-1.65,0-3,1.57-3,3.5,0,1.52.84,2.8,2,3.28v4.22h2v-4.22c1.16-.48,2-1.77,2-3.28,0-1.93-1.35-3.5-3-3.5Z"/>
  </g>
</svg>