<?xml version="1.0" encoding="UTF-8"?>
<svg id="OBJECT" xmlns="http://www.w3.org/2000/svg" viewBox="0 0 32 32">
  <defs>
    <style>
      .cls-1 {
        fill: #FD4360;
      }

      .cls-1, .cls-2 {
        stroke-width: 0px;
      }

      .cls-2 {
        fill: #dadada;
      }
    </style>
  </defs>
  <path class="cls-1" d="m4,27.9c0,1.71,1.39,3.1,3.1,3.1h17.8c1.71,0,3.1-1.39,3.1-3.1v-1.35H4v1.35Z"/>
  <g>
    <path class="cls-2" d="m24.9,1H7.1c-1.71,0-3.1,1.39-3.1,3.1v18.8c0,.55.45,1,1,1s1-.45,1-1v-13.9h2c.55,0,1-.45,1-1s-.45-1-1-1h-2v-2.9c0-.61.49-1.1,1.1-1.1h17.8c.61,0,1.1.49,1.1,1.1v2.9h-2c-.55,0-1,.45-1,1s.45,1,1,1h2v13.9c0,.55.45,1,1,1s1-.45,1-1V4.1c0-1.71-1.39-3.1-3.1-3.1Z"/>
    <path class="cls-2" d="m12,9h2c.55,0,1-.45,1-1s-.45-1-1-1h-2c-.55,0-1,.45-1,1s.45,1,1,1Z"/>
    <path class="cls-2" d="m20,7h-2c-.55,0-1,.45-1,1s.45,1,1,1h2c.55,0,1-.45,1-1s-.45-1-1-1Z"/>
    <path class="cls-2" d="m19.29,12.29l-8,8c-.39.39-.39,1.02,0,1.41.2.2.45.29.71.29s.51-.1.71-.29l8-8c.39-.39.39-1.02,0-1.41s-1.02-.39-1.41,0Z"/>
    <path class="cls-2" d="m11,13.97c0,.55.45,1,1,1s1-.45,1-1v-.97c0-.55-.45-1-1-1s-1,.45-1,1v.97Z"/>
    <path class="cls-2" d="m20,19.03c-.55,0-1,.45-1,1v.97c0,.55.45,1,1,1s1-.45,1-1v-.97c0-.55-.45-1-1-1Z"/>
  </g>
</svg>