<?xml version="1.0" encoding="UTF-8"?>
<svg id="OBJECT" xmlns="http://www.w3.org/2000/svg" viewBox="0 0 512 512">
  <defs>
    <style>
      .cls-1 {
        fill: #FD4360;
      }

      .cls-2 {
        fill: #dadada;
      }
    </style>
  </defs>
  <g>
    <path class="cls-2" d="M489.5,231h-86v-30h46c12.41,0,22.5-10.09,22.5-22.5v-5c0-12.41-10.09-22.5-22.5-22.5h-46v-20c0-12.41-10.09-22.5-22.5-22.5h-20V62.5c0-12.41-10.09-22.5-22.5-22.5h-5c-12.41,0-22.5,10.09-22.5,22.5v46h-30V22.5c0-12.41-10.09-22.5-22.5-22.5h-5c-12.41,0-22.5,10.09-22.5,22.5V108.5h-30V62.5c0-12.41-10.09-22.5-22.5-22.5h-5c-12.41,0-22.5,10.09-22.5,22.5v46h-20c-12.41,0-22.5,10.09-22.5,22.5v20H62.5c-12.41,0-22.5,10.09-22.5,22.5v5c0,12.41,10.09,22.5,22.5,22.5h46v30H22.5c-12.41,0-22.5,10.09-22.5,22.5v5c0,12.41,10.09,22.5,22.5,22.5H108.5v30H62.5c-12.41,0-22.5,10.09-22.5,22.5v5c0,12.41,10.09,22.5,22.5,22.5h46v20c0,12.41,10.09,22.5,22.5,22.5h20v46c0,12.41,10.09,22.5,22.5,22.5h5c12.41,0,22.5-10.09,22.5-22.5v-46h30v86c0,12.41,10.09,22.5,22.5,22.5h5c12.41,0,22.5-10.09,22.5-22.5v-86h30v46c0,12.41,10.09,22.5,22.5,22.5h5c12.41,0,22.5-10.09,22.5-22.5v-46h20c12.41,0,22.5-10.09,22.5-22.5v-20h46c12.41,0,22.5-10.09,22.5-22.5v-5c0-12.41-10.09-22.5-22.5-22.5h-46v-30h86c12.41,0,22.5-10.09,22.5-22.5v-5c0-12.41-10.09-22.5-22.5-22.5Zm-40-65c4.14,0,7.5,3.36,7.5,7.5v5c0,4.14-3.36,7.5-7.5,7.5h-46v-20h46Zm-123.5-103.5c0-4.14,3.36-7.5,7.5-7.5h5c4.14,0,7.5,3.36,7.5,7.5v46h-20V62.5ZM246,22.5c0-4.14,3.36-7.5,7.5-7.5h5c4.14,0,7.5,3.36,7.5,7.5V108.5h-20V22.5Zm-80,40c0-4.14,3.36-7.5,7.5-7.5h5c4.14,0,7.5,3.36,7.5,7.5v46h-20V62.5ZM62.5,186c-4.14,0-7.5-3.36-7.5-7.5v-5c0-4.14,3.36-7.5,7.5-7.5h46v20H62.5Zm-40,80c-4.14,0-7.5-3.36-7.5-7.5v-5c0-4.14,3.36-7.5,7.5-7.5H108.5v20H22.5Zm40,80c-4.14,0-7.5-3.36-7.5-7.5v-5c0-4.14,3.36-7.5,7.5-7.5h46v20H62.5Zm123.5,103.5c0,4.14-3.36,7.5-7.5,7.5h-5c-4.14,0-7.5-3.36-7.5-7.5v-46h20v46Zm80,40c0,4.14-3.36,7.5-7.5,7.5h-5c-4.14,0-7.5-3.36-7.5-7.5v-86h20v86Zm80-40c0,4.14-3.36,7.5-7.5,7.5h-5c-4.14,0-7.5-3.36-7.5-7.5v-46h20v46Zm42.5-68.5c0,4.14-3.36,7.5-7.5,7.5H131c-4.14,0-7.5-3.36-7.5-7.5V131c0-4.14,3.36-7.5,7.5-7.5h250c4.14,0,7.5,3.36,7.5,7.5v250Zm61-55c4.14,0,7.5,3.36,7.5,7.5v5c0,4.14-3.36,7.5-7.5,7.5h-46v-20h46Zm47.5-67.5c0,4.14-3.36,7.5-7.5,7.5h-86v-20h86c4.14,0,7.5,3.36,7.5,7.5v5Z"/>
    <path class="cls-2" d="M366,138.5c-4.14,0-7.5,3.36-7.5,7.5v10c0,4.14,3.36,7.5,7.5,7.5s7.5-3.36,7.5-7.5v-10c0-4.14-3.36-7.5-7.5-7.5Z"/>
    <path class="cls-2" d="M146,138.5c-4.14,0-7.5,3.36-7.5,7.5v10c0,4.14,3.36,7.5,7.5,7.5s7.5-3.36,7.5-7.5v-10c0-4.14-3.36-7.5-7.5-7.5Z"/>
    <path class="cls-2" d="M366,348.5c-4.14,0-7.5,3.36-7.5,7.5v10c0,4.14,3.36,7.5,7.5,7.5s7.5-3.36,7.5-7.5v-10c0-4.14-3.36-7.5-7.5-7.5Z"/>
    <path class="cls-2" d="M146,348.5c-4.14,0-7.5,3.36-7.5,7.5v10c0,4.14,3.36,7.5,7.5,7.5s7.5-3.36,7.5-7.5v-10c0-4.14-3.36-7.5-7.5-7.5Z"/>
  </g>
  <g>
    <path class="cls-1" d="M256,183.5c-39.98,0-72.5,32.52-72.5,72.5s32.52,72.5,72.5,72.5,72.5-32.52,72.5-72.5-32.52-72.5-72.5-72.5Zm40.3,102.2c2.93,2.93,2.93,7.68,0,10.61-1.46,1.46-3.38,2.2-5.3,2.2s-3.84-.73-5.3-2.2l-29.7-29.7-29.7,29.7c-1.46,1.46-3.38,2.2-5.3,2.2s-3.84-.73-5.3-2.2c-2.93-2.93-2.93-7.68,0-10.61l29.7-29.7-29.7-29.7c-2.93-2.93-2.93-7.68,0-10.61,2.93-2.93,7.68-2.93,10.61,0l29.7,29.7,29.7-29.7c2.93-2.93,7.68-2.93,10.61,0,2.93,2.93,2.93,7.68,0,10.61l-29.7,29.7,29.7,29.7Z"/>
    <path class="cls-1" d="M256,138.5c-64.79,0-117.5,52.71-117.5,117.5s52.71,117.5,117.5,117.5,117.5-52.71,117.5-117.5-52.71-117.5-117.5-117.5Zm0,205c-48.25,0-87.5-39.25-87.5-87.5s39.25-87.5,87.5-87.5,87.5,39.25,87.5,87.5-39.25,87.5-87.5,87.5Z"/>
  </g>
</svg>