<?xml version="1.0" encoding="UTF-8"?>
<svg id="OBJECT" xmlns="http://www.w3.org/2000/svg" viewBox="0 0 512 512">
  <defs>
    <style>
      .cls-1 {
        fill: #FD4360;
      }

      .cls-2 {
        fill: #dadada;
      }
    </style>
  </defs>
  <path class="cls-2" d="M494.5,233.5h-81v-20h51c9.65,0,17.5-7.85,17.5-17.5v-10c0-9.65-7.85-17.5-17.5-17.5h-51v-47.5c0-12.41-10.09-22.5-22.5-22.5h-47.5V47.5c0-9.65-7.85-17.5-17.5-17.5h-10c-9.65,0-17.5,7.85-17.5,17.5v51h-20V17.5c0-9.65-7.85-17.5-17.5-17.5h-10c-9.65,0-17.5,7.85-17.5,17.5V98.5h-20V47.5c0-9.65-7.85-17.5-17.5-17.5h-10c-9.65,0-17.5,7.85-17.5,17.5v51h-47.5c-12.41,0-22.5,10.09-22.5,22.5v47.5H47.5c-9.65,0-17.5,7.85-17.5,17.5v10c0,9.65,7.85,17.5,17.5,17.5h51v20H17.5c-9.65,0-17.5,7.85-17.5,17.5v10c0,9.65,7.85,17.5,17.5,17.5H98.5v20H47.5c-9.65,0-17.5,7.85-17.5,17.5v10c0,9.65,7.85,17.5,17.5,17.5h51v47.5c0,12.41,10.09,22.5,22.5,22.5h47.5v51c0,9.65,7.85,17.5,17.5,17.5h10c9.65,0,17.5-7.85,17.5-17.5v-51h20v81c0,9.65,7.85,17.5,17.5,17.5h10c9.65,0,17.5-7.85,17.5-17.5v-81h20v51c0,9.65,7.85,17.5,17.5,17.5h10c9.65,0,17.5-7.85,17.5-17.5v-51h47.5c12.41,0,22.5-10.09,22.5-22.5v-47.5h51c9.65,0,17.5-7.85,17.5-17.5v-10c0-9.65-7.85-17.5-17.5-17.5h-51v-20h81c9.65,0,17.5-7.85,17.5-17.5v-10c0-9.65-7.85-17.5-17.5-17.5Zm-30-50c1.38,0,2.5,1.12,2.5,2.5v10c0,1.38-1.12,2.5-2.5,2.5h-51v-15h51ZM313.5,47.5c0-1.38,1.12-2.5,2.5-2.5h10c1.38,0,2.5,1.12,2.5,2.5v51h-15V47.5Zm-65-30c0-1.38,1.12-2.5,2.5-2.5h10c1.38,0,2.5,1.12,2.5,2.5V98.5h-15V17.5Zm-65,30c0-1.38,1.12-2.5,2.5-2.5h10c1.38,0,2.5,1.12,2.5,2.5v51h-15V47.5ZM47.5,198.5c-1.38,0-2.5-1.12-2.5-2.5v-10c0-1.38,1.12-2.5,2.5-2.5h51v15H47.5Zm-30,65c-1.38,0-2.5-1.12-2.5-2.5v-10c0-1.38,1.12-2.5,2.5-2.5H98.5v15H17.5Zm30,65c-1.38,0-2.5-1.12-2.5-2.5v-10c0-1.38,1.12-2.5,2.5-2.5h51v15H47.5Zm151,136c0,1.38-1.12,2.5-2.5,2.5h-10c-1.38,0-2.5-1.12-2.5-2.5v-51h15v51Zm65,30c0,1.38-1.12,2.5-2.5,2.5h-10c-1.38,0-2.5-1.12-2.5-2.5v-81h15v81Zm65-30c0,1.38-1.12,2.5-2.5,2.5h-10c-1.38,0-2.5-1.12-2.5-2.5v-51h15v51Zm70-73.5c0,4.14-3.36,7.5-7.5,7.5H121c-4.14,0-7.5-3.36-7.5-7.5V121c0-4.14,3.36-7.5,7.5-7.5H391c4.14,0,7.5,3.36,7.5,7.5V391Zm66-77.5c1.38,0,2.5,1.12,2.5,2.5v10c0,1.38-1.12,2.5-2.5,2.5h-51v-15h51Zm32.5-52.5c0,1.38-1.12,2.5-2.5,2.5h-81v-15h81c1.38,0,2.5,1.12,2.5,2.5v10Z"/>
  <g>
    <path class="cls-1" d="M356,128.5H156c-15.16,0-27.5,12.34-27.5,27.5v200c0,15.16,12.34,27.5,27.5,27.5h200c15.16,0,27.5-12.34,27.5-27.5V156c0-15.16-12.34-27.5-27.5-27.5Zm-92.5,212.5c0,4.14-3.36,7.5-7.5,7.5s-7.5-3.36-7.5-7.5v-5c0-4.14,3.36-7.5,7.5-7.5s7.5,3.36,7.5,7.5v5Zm67.5-72.5h-30v34.96c0,1.11,.75,2.1,1.81,2.4l27.75,7.93c3.98,1.14,6.29,5.29,5.15,9.27-.94,3.29-3.94,5.44-7.21,5.44-.68,0-1.38-.09-2.06-.29l-27.75-7.93c-7.47-2.14-12.69-9.05-12.69-16.83v-34.96h-22.5v42.5c0,4.14-3.36,7.5-7.5,7.5s-7.5-3.36-7.5-7.5v-42.5h-22.5v34.96c0,7.77-5.22,14.69-12.69,16.83l-27.75,7.93c-.69,.2-1.38,.29-2.06,.29-3.26,0-6.27-2.15-7.21-5.44-1.14-3.98,1.17-8.13,5.15-9.27l27.75-7.93c1.07-.31,1.81-1.29,1.81-2.4v-34.96h-30c-15.16,0-27.5-12.34-27.5-27.5s12.34-27.5,27.5-27.5h5.01c3.94-9.38,12.2-16.52,22.11-19.02,8.4-18.7,27.12-30.98,47.89-30.98s39.48,12.28,47.89,30.98c9.91,2.5,18.16,9.65,22.11,19.02h5.01c15.16,0,27.5,12.34,27.5,27.5s-12.34,27.5-27.5,27.5Z"/>
    <path class="cls-1" d="M331,228.5h-10.5c-3.57,0-6.64-2.51-7.35-6.01-1.51-7.45-7.85-13.16-15.41-13.91-2.91-.29-5.38-2.23-6.35-4.98-5.26-15.01-19.48-25.1-35.39-25.1s-30.13,10.09-35.39,25.1c-.96,2.75-3.44,4.7-6.35,4.98-7.56,.74-13.9,6.46-15.41,13.91-.71,3.5-3.78,6.01-7.35,6.01h-10.5c-6.89,0-12.5,5.61-12.5,12.5s5.61,12.5,12.5,12.5h150c6.89,0,12.5-5.61,12.5-12.5s-5.61-12.5-12.5-12.5Zm-87.5,10h-5c-4.14,0-7.5-3.36-7.5-7.5s3.36-7.5,7.5-7.5h5c4.14,0,7.5,3.36,7.5,7.5s-3.36,7.5-7.5,7.5Zm30,0h-5c-4.14,0-7.5-3.36-7.5-7.5s3.36-7.5,7.5-7.5h5c4.14,0,7.5,3.36,7.5,7.5s-3.36,7.5-7.5,7.5Z"/>
  </g>
</svg>