<?xml version="1.0" encoding="UTF-8"?>
<svg id="OBJECT" xmlns="http://www.w3.org/2000/svg" viewBox="0 0 512 512">
  <defs>
    <style>
      .cls-1 {
        fill: #FD4360;
      }

      .cls-2 {
        fill: #dadada;
      }
    </style>
  </defs>
  <g>
    <path class="cls-2" d="M489.5,258.5h-28.09c-11.87-42.11-58.46-69.84-60.53-71.06-2.91-1.7-6.59-1.26-9.01,1.08-2.42,2.34-2.98,6.01-1.37,8.97,11.37,20.88,8.26,45.48,4.32,61h-55.32c-12.41,0-22.5,10.09-22.5,22.5v110c0,12.41,10.09,22.5,22.5,22.5h150c12.41,0,22.5-10.09,22.5-22.5v-110c0-12.41-10.09-22.5-22.5-22.5Zm7.5,132.5c0,4.14-3.36,7.5-7.5,7.5h-150c-4.14,0-7.5-3.36-7.5-7.5v-110c0-4.14,3.36-7.5,7.5-7.5h61.02c3.31,0,6.23-2.17,7.18-5.34,3.71-12.33,8.04-32.99,4.18-54.22,12.23,10.3,27.15,25.86,33.79,44.56h-15.15c-4.14,0-7.5,3.36-7.5,7.5s3.36,7.5,7.5,7.5h58.98c4.14,0,7.5,3.36,7.5,7.5v110Z"/>
    <path class="cls-2" d="M474.5,328.5h-120c-4.14,0-7.5,3.36-7.5,7.5s3.36,7.5,7.5,7.5h120c4.14,0,7.5-3.36,7.5-7.5s-3.36-7.5-7.5-7.5Z"/>
    <path class="cls-2" d="M474.5,291h-90c-4.14,0-7.5,3.36-7.5,7.5s3.36,7.5,7.5,7.5h90c4.14,0,7.5-3.36,7.5-7.5s-3.36-7.5-7.5-7.5Z"/>
    <path class="cls-2" d="M354.5,306h5c4.14,0,7.5-3.36,7.5-7.5s-3.36-7.5-7.5-7.5h-5c-4.14,0-7.5,3.36-7.5,7.5s3.36,7.5,7.5,7.5Z"/>
    <path class="cls-2" d="M444.5,366h-90c-4.14,0-7.5,3.36-7.5,7.5s3.36,7.5,7.5,7.5h90c4.14,0,7.5-3.36,7.5-7.5s-3.36-7.5-7.5-7.5Z"/>
    <path class="cls-2" d="M474.5,366h-5c-4.14,0-7.5,3.36-7.5,7.5s3.36,7.5,7.5,7.5h5c4.14,0,7.5-3.36,7.5-7.5s-3.36-7.5-7.5-7.5Z"/>
    <path class="cls-2" d="M267.5,370h-2.5v-29.02c0-21.51,8.14-41.77,22.93-57.07,30.35-31.39,47.07-72.73,47.07-116.41s-16.75-85.1-47.16-116.51C257.5,19.66,216.83,1.59,173.32,.1,127.54-1.46,84.23,15.02,51.4,46.5,18.61,77.95,.35,120.46,0,166.2c-.34,44.23,16.42,86.08,47.18,117.84,14.71,15.19,22.81,35.41,22.81,56.95v29.02h-2.5c-12.41,0-22.5,10.09-22.5,22.5,0,5.76,2.18,11.02,5.75,15-3.57,3.98-5.75,9.24-5.75,15,0,12.41,10.09,22.5,22.5,22.5h32.5v44.5c0,12.41,10.09,22.5,22.5,22.5h90c12.41,0,22.5-10.09,22.5-22.5v-44.5h32.5c12.41,0,22.5-10.09,22.5-22.5,0-5.76-2.18-11.02-5.75-15,3.57-3.98,5.75-9.24,5.75-15,0-12.41-10.09-22.5-22.5-22.5ZM57.96,273.59c-28.01-28.91-43.26-67.01-42.95-107.28,.32-41.65,16.93-80.35,46.78-108.98C91.67,28.67,131.08,13.67,172.81,15.09c82.54,2.82,147.19,69.77,147.19,152.41,0,39.76-15.22,77.4-42.85,105.98-17.51,18.11-27.15,42.08-27.15,67.5v29.02h-30v-24.5c0-12.41-10.09-22.5-22.5-22.5h-60c-12.41,0-22.5,10.09-22.5,22.5v24.5h-30v-29.02c0-25.46-9.6-49.39-27.04-67.39Zm147.04,71.91v24.5h-75v-24.5c0-4.14,3.36-7.5,7.5-7.5h60c4.14,0,7.5,3.36,7.5,7.5Zm-20,151.5h-35v-14.5c0-4.14,3.36-7.5,7.5-7.5h20c4.14,0,7.5,3.36,7.5,7.5v14.5Zm35-7.5c0,4.14-3.36,7.5-7.5,7.5h-12.5v-14.5c0-12.41-10.09-22.5-22.5-22.5h-20c-12.41,0-22.5,10.09-22.5,22.5v14.5h-12.5c-4.14,0-7.5-3.36-7.5-7.5v-44.5h105v44.5Zm47.5-59.5H67.5c-4.14,0-7.5-3.36-7.5-7.5s3.36-7.5,7.5-7.5h200c4.14,0,7.5,3.36,7.5,7.5s-3.36,7.5-7.5,7.5Zm0-30H67.5c-4.14,0-7.5-3.36-7.5-7.5s3.36-7.5,7.5-7.5h200c4.14,0,7.5,3.36,7.5,7.5s-3.36,7.5-7.5,7.5Z"/>
  </g>
  <g>
    <path class="cls-1" d="M189.36,167.94c-6.16,4.43-13.71,7.06-21.86,7.06s-15.7-2.62-21.86-7.06c-21.44,5.86-39.47,20.03-50.28,39.52,14.1,25.34,41.14,42.54,72.14,42.54s58.04-17.19,72.14-42.54c-10.82-19.49-28.84-33.66-50.28-39.52Z"/>
    <path class="cls-1" d="M134.71,155.66c-2.99-5.38-4.71-11.58-4.71-18.16,0-20.68,16.82-37.5,37.5-37.5s37.5,16.82,37.5,37.5c0,6.59-1.71,12.78-4.71,18.16,18.72,6.65,34.84,18.82,46.39,34.93,2.14-7.33,3.31-15.08,3.31-23.09,0-45.49-37.01-82.5-82.5-82.5s-82.5,37.01-82.5,82.5c0,8.02,1.17,15.76,3.31,23.09,11.55-16.11,27.68-28.28,46.39-34.93Z"/>
    <circle class="cls-1" cx="167.5" cy="137.5" r="22.5"/>
    <path class="cls-1" d="M167.5,40c-70.3,0-127.5,57.2-127.5,127.5s57.2,127.5,127.5,127.5,127.5-57.2,127.5-127.5-57.2-127.5-127.5-127.5Zm0,225c-53.76,0-97.5-43.74-97.5-97.5s43.74-97.5,97.5-97.5,97.5,43.74,97.5,97.5-43.74,97.5-97.5,97.5Z"/>
  </g>
</svg>