<?xml version="1.0" encoding="UTF-8"?>
<svg id="OBJECT" xmlns="http://www.w3.org/2000/svg" viewBox="0 0 32 32">
  <defs>
    <style>
      .cls-1 {
        fill: #FD4360;
      }

      .cls-1, .cls-2 {
        stroke-width: 0px;
      }

      .cls-2 {
        fill: #dadada;
      }
    </style>
  </defs>
  <path class="cls-1" d="m28,4H4c-1.65,0-3,1.35-3,3v3h30v-3c0-1.65-1.35-3-3-3Z"/>
  <g>
    <path class="cls-2" d="m30,12c-.55,0-1,.45-1,1v12c0,.55-.45,1-1,1H4c-.55,0-1-.45-1-1v-12c0-.55-.45-1-1-1s-1,.45-1,1v12c0,1.65,1.35,3,3,3h24c1.65,0,3-1.35,3-3v-12c0-.55-.45-1-1-1Z"/>
    <path class="cls-2" d="m6,23.75h6c.55,0,1-.45,1-1v-7.5c0-.55-.45-1-1-1h-6c-.55,0-1,.45-1,1v7.5c0,.55.45,1,1,1Zm1-7.5h4v5.5h-4v-5.5Z"/>
    <path class="cls-2" d="m17.5,18h7c.55,0,1-.45,1-1s-.45-1-1-1h-7c-.55,0-1,.45-1,1s.45,1,1,1Z"/>
    <path class="cls-2" d="m17.5,22h7c.55,0,1-.45,1-1s-.45-1-1-1h-7c-.55,0-1,.45-1,1s.45,1,1,1Z"/>
  </g>
</svg>