<?xml version="1.0" encoding="UTF-8"?>
<svg id="OBJECT" xmlns="http://www.w3.org/2000/svg" viewBox="0 0 32 32">
  <defs>
    <style>
      .cls-1 {
        fill: #FD4360;
      }

      .cls-1, .cls-2 {
        stroke-width: 0px;
      }

      .cls-2 {
        fill: #dadada;
      }
    </style>
  </defs>
  <g>
    <path class="cls-2" d="m24,8H4c-1.65,0-3,1.35-3,3v14c0,1.65,1.35,3,3,3h20c1.65,0,3-1.35,3-3v-14c0-1.65-1.35-3-3-3Zm-20,2h20c.55,0,1,.45,1,1v2.58H3v-2.58c0-.55.45-1,1-1Zm20,16H4c-.55,0-1-.45-1-1v-9.42h22v9.42c0,.55-.45,1-1,1Z"/>
    <path class="cls-2" d="m9,22h-3c-.55,0-1,.45-1,1s.45,1,1,1h3c.55,0,1-.45,1-1s-.45-1-1-1Z"/>
    <path class="cls-2" d="m13,19h-7c-.55,0-1,.45-1,1s.45,1,1,1h7c.55,0,1-.45,1-1s-.45-1-1-1Z"/>
    <path class="cls-2" d="m21.57,17.79h-5c-.55,0-1,.45-1,1v4c0,.55.45,1,1,1h5c.55,0,1-.45,1-1v-4c0-.55-.45-1-1-1Zm-1,4h-3v-2h3v2Z"/>
  </g>
  <path class="cls-1" d="m28,4H8c-1.3,0-2.4.84-2.82,2h18.82c2.76,0,5,2.24,5,5v12.82c1.16-.41,2-1.51,2-2.82V7c0-1.65-1.35-3-3-3Z"/>
</svg>