<?xml version="1.0" encoding="UTF-8"?>
<svg id="OBJECT" xmlns="http://www.w3.org/2000/svg" viewBox="0 0 32 32">
  <defs>
    <style>
      .cls-1 {
        fill: #FD4360;
      }

      .cls-2 {
        fill: #dadada;
      }
    </style>
  </defs>
  <g>
    <path class="cls-2" d="m24.5,8H3.5c-1.38,0-2.5,1.12-2.5,2.5v15c0,1.38,1.12,2.5,2.5,2.5h21c1.38,0,2.5-1.12,2.5-2.5v-15c0-1.38-1.12-2.5-2.5-2.5ZM3.5,10h21c.28,0,.5.22.5.5v3.5H3v-3.5c0-.28.22-.5.5-.5Zm21,16H3.5c-.28,0-.5-.22-.5-.5v-9.5h22v9.5c0,.28-.22.5-.5.5Z"/>
    <path class="cls-2" d="m9.5,18h-3c-1.38,0-2.5,1.12-2.5,2.5v1c0,1.38,1.12,2.5,2.5,2.5h3c1.38,0,2.5-1.12,2.5-2.5v-1c0-1.38-1.12-2.5-2.5-2.5Zm.5,3.5c0,.28-.22.5-.5.5h-3c-.28,0-.5-.22-.5-.5v-1c0-.28.22-.5.5-.5h3c.28,0,.5.22.5.5v1Z"/>
    <path class="cls-2" d="m23,21h-4c-.55,0-1,.45-1,1s.45,1,1,1h4c.55,0,1-.45,1-1s-.45-1-1-1Z"/>
    <path class="cls-2" d="m16,21h-1c-.55,0-1,.45-1,1s.45,1,1,1h1c.55,0,1-.45,1-1s-.45-1-1-1Z"/>
  </g>
  <path class="cls-1" d="m28.5,4H7.5c-1.21,0-2.22.86-2.45,2h20.95c1.66,0,3,1.34,3,3v14.95c1.14-.23,2-1.24,2-2.45V6.5c0-1.38-1.12-2.5-2.5-2.5Z"/>
</svg>