<?xml version="1.0" encoding="UTF-8"?>
<svg id="OBJECT" xmlns="http://www.w3.org/2000/svg" viewBox="0 0 512 512">
  <defs>
    <style>
      .cls-1 {
        fill: #FD4360;
      }

      .cls-2 {
        fill: #dadada;
      }
    </style>
  </defs>
  <g>
    <path class="cls-2" d="M295.65,472h10c4.14,0,7.5-3.36,7.5-7.5s-3.36-7.5-7.5-7.5h-10c-4.14,0-7.5,3.36-7.5,7.5s3.36,7.5,7.5,7.5Z"/>
    <path class="cls-2" d="M371,377h-30.47c-8.12-23.63-32.05-41.65-62.03-47.75v-30.81c.61,0,1.24,.03,1.84,.03,39.29,0,62.02-14.38,74.4-26.99,14.79-15.07,18.44-30.98,18.59-31.65,.79-3.58-1.12-7.21-4.53-8.58-42.96-17.27-72.88-2.73-90.3,12.28v-27.29c0-4.14-3.36-7.5-7.5-7.5s-7.5,3.36-7.5,7.5v111c-2.48-.16-4.98-.25-7.5-.25s-5.02,.09-7.5,.25v-111c0-4.14-3.36-7.5-7.5-7.5s-7.5,3.36-7.5,7.5v27.29c-17.42-15.01-47.34-29.55-90.3-12.28-3.4,1.37-5.32,5-4.53,8.58,.15,.67,3.79,16.57,18.59,31.65,12.37,12.61,35.1,26.99,74.4,26.99,.6,0,1.23-.02,1.84-.03v30.81c-29.98,6.1-53.91,24.12-62.03,47.75h-30.47c-12.41,0-22.5,10.09-22.5,22.5v25c0,4.14,3.36,7.5,7.5,7.5h14.14l18.58,74.32c.83,3.34,3.83,5.68,7.28,5.68h180c3.44,0,6.44-2.34,7.28-5.68l18.58-74.32h14.14c4.14,0,7.5-3.36,7.5-7.5v-25c0-12.41-10.09-22.5-22.5-22.5Zm-14.52-134.28c-5.68,12.86-24.36,41.4-77.98,40.73v-18.49c12.34-15.19,37.47-35.45,77.98-22.23Zm-201.01,.02c40.54-13.25,65.68,7.02,78.03,22.22v18.49c-54,.71-72.46-27.79-78.03-40.71Zm100.53,99.26c30.76,0,58.15,14.52,68.3,35H187.7c10.15-20.48,37.54-35,68.3-35Zm84.14,155H171.86l-6.25-25h100.04c4.14,0,7.5-3.36,7.5-7.5s-3.36-7.5-7.5-7.5h-103.79l-6.25-25h200.79l-16.25,65Zm38.36-80H133.5v-17.5c0-4.14,3.36-7.5,7.5-7.5h230c4.14,0,7.5,3.36,7.5,7.5v17.5Z"/>
  </g>
  <g>
    <path class="cls-1" d="M256,0c-53.76,0-97.5,43.74-97.5,97.5s43.74,97.5,97.5,97.5,97.5-43.74,97.5-97.5S309.76,0,256,0Zm18.96,139.88v12.62c0,4.14-3.36,7.5-7.5,7.5s-7.5-3.36-7.5-7.5v-10.83h-7.92v10.83c0,4.14-3.36,7.5-7.5,7.5s-7.5-3.36-7.5-7.5v-10.83h-3.04c-4.14,0-7.5-3.36-7.5-7.5s3.36-7.5,7.5-7.5h31.73c5.66,0,10.27-4.86,10.27-10.83s-4.61-10.83-10.27-10.83h-19.46c-13.93,0-25.27-11.59-25.27-25.83,0-10.92,6.66-20.26,16.04-24.04v-12.62c0-4.14,3.36-7.5,7.5-7.5s7.5,3.36,7.5,7.5v10.83h7.92v-10.83c0-4.14,3.36-7.5,7.5-7.5s7.5,3.36,7.5,7.5v10.83h3.04c4.14,0,7.5,3.36,7.5,7.5s-3.36,7.5-7.5,7.5h-31.73c-5.66,0-10.27,4.86-10.27,10.83s4.61,10.83,10.27,10.83h19.46c13.93,0,25.27,11.59,25.27,25.83,0,10.92-6.66,20.26-16.04,24.04Z"/>
    <path class="cls-1" d="M431,90h-45c-4.14,0-7.5,3.36-7.5,7.5s3.36,7.5,7.5,7.5h45c4.14,0,7.5-3.36,7.5-7.5s-3.36-7.5-7.5-7.5Z"/>
    <path class="cls-1" d="M376.01,61.25c1.27,0,2.56-.32,3.74-1.01l38.97-22.5c3.59-2.07,4.82-6.66,2.75-10.25s-6.66-4.82-10.25-2.75l-38.97,22.5c-3.59,2.07-4.82,6.66-2.75,10.25,1.39,2.41,3.91,3.75,6.5,3.75Z"/>
    <path class="cls-1" d="M418.72,157.25l-38.97-22.5c-3.59-2.07-8.17-.84-10.25,2.75s-.84,8.17,2.75,10.25l38.97,22.5c1.18,.68,2.47,1.01,3.74,1.01,2.59,0,5.11-1.35,6.5-3.75,2.07-3.59,.84-8.17-2.75-10.25Z"/>
    <path class="cls-1" d="M133.5,97.5c0-4.14-3.36-7.5-7.5-7.5h-45c-4.14,0-7.5,3.36-7.5,7.5s3.36,7.5,7.5,7.5h45c4.14,0,7.5-3.36,7.5-7.5Z"/>
    <path class="cls-1" d="M139.75,47.25l-38.97-22.5c-3.59-2.07-8.17-.84-10.25,2.75-2.07,3.59-.84,8.17,2.75,10.25l38.97,22.5c1.18,.68,2.47,1.01,3.74,1.01,2.59,0,5.11-1.35,6.5-3.75,2.07-3.59,.84-8.17-2.75-10.25Z"/>
    <path class="cls-1" d="M132.25,134.75l-38.97,22.5c-3.59,2.07-4.82,6.66-2.75,10.25,1.39,2.41,3.91,3.75,6.5,3.75,1.27,0,2.56-.32,3.74-1.01l38.97-22.5c3.59-2.07,4.82-6.66,2.75-10.25s-6.66-4.82-10.25-2.75Z"/>
  </g>
</svg>