<?xml version="1.0" encoding="UTF-8"?>
<svg id="OBJECT" xmlns="http://www.w3.org/2000/svg" viewBox="0 0 32 32">
  <defs>
    <style>
      .cls-1 {
        fill: #FD4360;
      }

      .cls-2 {
        fill: #dadada;
      }
    </style>
  </defs>
  <path class="cls-2" d="M30,29h-1.5V8.5c0-1.38-1.12-2.5-2.5-2.5h-1c-1.38,0-2.5,1.12-2.5,2.5V29h-3.5v-7.5c0-1.38-1.12-2.5-2.5-2.5h-1c-1.38,0-2.5,1.12-2.5,2.5v7.5h-3.5v-2.5c0-1.38-1.12-2.5-2.5-2.5h-1c-1.38,0-2.5,1.12-2.5,2.5v2.5h-1.5c-.55,0-1,.45-1,1s.45,1,1,1H30c.55,0,1-.45,1-1s-.45-1-1-1Zm-5-21h1c.28,0,.5,.22,.5,.5v2.5h-2v-2.5c0-.28,.22-.5,.5-.5Zm-.5,5h2V29h-2V13Zm-9.5,8.5c0-.28,.22-.5,.5-.5h1c.28,0,.5,.22,.5,.5v7.5h-2v-7.5Zm-9.5,5c0-.28,.22-.5,.5-.5h1c.28,0,.5,.22,.5,.5v2.5h-2v-2.5Z"/>
  <path class="cls-1" d="M8.5,1C4.36,1,1,4.36,1,8.5s3.36,7.5,7.5,7.5,7.5-3.36,7.5-7.5S12.64,1,8.5,1Zm-.75,6.5h1.5c1.38,0,2.5,1.12,2.5,2.5,0,1.29-.99,2.35-2.25,2.47v.53c0,.55-.45,1-1,1s-1-.45-1-1v-.5h-1.25c-.55,0-1-.45-1-1s.45-1,1-1h3c.28,0,.5-.22,.5-.5s-.22-.5-.5-.5h-1.5c-1.38,0-2.5-1.12-2.5-2.5,0-1.29,.99-2.35,2.25-2.47v-.53c0-.55,.45-1,1-1s1,.45,1,1v.5h1.25c.55,0,1,.45,1,1s-.45,1-1,1h-3c-.28,0-.5,.22-.5,.5s.22,.5,.5,.5Z"/>
</svg>