<?xml version="1.0" encoding="UTF-8"?>
<svg id="OBJECT" xmlns="http://www.w3.org/2000/svg" viewBox="0 0 32 32">
  <defs>
    <style>
      .cls-1 {
        fill: #FD4360;
      }

      .cls-2 {
        fill: #dadada;
      }
    </style>
  </defs>
  <g>
    <path class="cls-2" d="M22,10c-3.11,0-5.86,1.59-7.48,4H6.5c-1.65,0-3,1.35-3,3v1c0,.77,.3,1.47,.78,2-.48,.53-.78,1.23-.78,2v1c0,.77,.3,1.47,.78,2-.48,.53-.78,1.23-.78,2v1c0,1.65,1.35,3,3,3h11c1.65,0,3-1.35,3-3v-.14c.49,.08,.99,.14,1.5,.14,4.96,0,9-4.04,9-9s-4.04-9-9-9ZM5.5,23v-1c0-.55,.45-1,1-1h6.73c.25,1.09,.69,2.1,1.29,3H6.5c-.55,0-1-.45-1-1Zm0-6c0-.55,.45-1,1-1h7.03c-.33,.94-.53,1.95-.53,3H6.5c-.55,0-1-.45-1-1v-1Zm13,11c0,.55-.45,1-1,1H6.5c-.55,0-1-.45-1-1v-1c0-.55,.45-1,1-1h9.86c.65,.52,1.37,.96,2.14,1.29v.71Zm3.5-2c-3.86,0-7-3.14-7-7s3.14-7,7-7,7,3.14,7,7-3.14,7-7,7Z"/>
    <path class="cls-2" d="M21.25,17h3c.55,0,1-.45,1-1s-.45-1-1-1h-1.25v-.5c0-.55-.45-1-1-1s-1,.45-1,1v.53c-1.26,.13-2.25,1.18-2.25,2.47,0,1.38,1.12,2.5,2.5,2.5h1.5c.28,0,.5,.22,.5,.5s-.22,.5-.5,.5h-3c-.55,0-1,.45-1,1s.45,1,1,1h1.25v.5c0,.55,.45,1,1,1s1-.45,1-1v-.53c1.26-.13,2.25-1.18,2.25-2.47,0-1.38-1.12-2.5-2.5-2.5h-1.5c-.28,0-.5-.22-.5-.5s.22-.5,.5-.5Z"/>
  </g>
  <path class="cls-1" d="M7.68,9.01c1.04,0,2.15-.24,3.32-.68v3.68h2v-3.68c1.17,.45,2.28,.68,3.32,.68,.92,0,1.78-.18,2.59-.53,3.05-1.33,4.02-4.68,4.06-4.82,.12-.42-.05-.87-.42-1.11-2.28-1.48-4.45-1.9-6.45-1.26-1.96,.63-3.29,2.16-4.1,3.38-.8-1.23-2.14-2.75-4.1-3.38-2-.65-4.17-.22-6.45,1.26-.37,.24-.54,.69-.42,1.11,.04,.14,1.01,3.49,4.06,4.82,.81,.35,1.67,.53,2.59,.53Z"/>
</svg>