<?xml version="1.0" encoding="UTF-8"?>
<svg id="OBJECT" xmlns="http://www.w3.org/2000/svg" viewBox="0 0 32 32">
  <defs>
    <style>
      .cls-1 {
        fill: #FD4360;
      }

      .cls-2 {
        fill: #dadada;
      }
    </style>
  </defs>
  <g>
    <path class="cls-2" d="m11.17,20.27c.97-.87,1.58-2.12,1.58-3.52,0-2.62-2.13-4.75-4.75-4.75s-4.75,2.13-4.75,4.75c0,1.4.62,2.65,1.58,3.52-2.27,1.16-3.83,3.52-3.83,6.23v1.5c0,1.65,1.35,3,3,3h8c1.65,0,3-1.35,3-3v-1.5c0-2.72-1.56-5.08-3.83-6.23Zm-5.92-3.52c0-1.52,1.23-2.75,2.75-2.75s2.75,1.23,2.75,2.75-1.23,2.75-2.75,2.75-2.75-1.23-2.75-2.75Zm7.75,11.25c0,.55-.45,1-1,1H4c-.55,0-1-.45-1-1v-1.5c0-2.76,2.24-5,5-5s5,2.24,5,5v1.5Z"/>
    <path class="cls-2" d="m24.66,22c-.56-.06-1.03.36-1.08.91l-.47,5.63c-.02.26-.23.46-.49.46h-3.24c-.26,0-.47-.2-.49-.46l-.47-5.62c-.04-.55-.52-.97-1.08-.91-.55.05-.96.53-.91,1.08l.47,5.61c.1,1.29,1.19,2.3,2.49,2.3h3.24c1.29,0,2.39-1.01,2.49-2.3l.47-5.62c.05-.55-.36-1.03-.91-1.08Z"/>
    <path class="cls-2" d="m6.25,26h-.5c-.55,0-1,.45-1,1s.45,1,1,1h.5c.55,0,1-.45,1-1s-.45-1-1-1Z"/>
    <path class="cls-2" d="m10.25,26h-.5c-.55,0-1,.45-1,1s.45,1,1,1h.5c.55,0,1-.45,1-1s-.45-1-1-1Z"/>
  </g>
  <g>
    <path class="cls-1" d="m25,17h-8c-.28,0-.55.12-.74.32-.19.21-.28.48-.26.76l.24,2.92h9.51l.24-2.92c.02-.28-.07-.55-.26-.76-.19-.21-.46-.32-.74-.32Z"/>
    <path class="cls-1" d="m30,1h-4c-2.09,0-3.92,1.07-5,2.69-1.08-1.62-2.91-2.69-5-2.69h-4c-.55,0-1,.45-1,1v1c0,3.31,2.69,6,6,6h3v6h2v-6h3c3.31,0,6-2.69,6-6v-1c0-.55-.45-1-1-1Z"/>
  </g>
</svg>