<?xml version="1.0" encoding="UTF-8"?>
<svg id="OBJECT" xmlns="http://www.w3.org/2000/svg" viewBox="0 0 32 32">
  <defs>
    <style>
      .cls-1 {
        fill: #FD4360;
      }

      .cls-1, .cls-2 {
        stroke-width: 0px;
      }

      .cls-2 {
        fill: #dadada;
      }
    </style>
  </defs>
  <g>
    <path class="cls-2" d="m26.71,20.34c-.26-.26-.63-.35-.97-.26-.97.27-1.98.4-2.99.4-6.2,0-11.24-5.04-11.24-11.24,0-1.01.14-2.01.4-2.99.1-.35,0-.72-.26-.97s-.63-.35-.97-.26C4.98,6.62,1,11.86,1,17.76c0,7.3,5.94,13.24,13.24,13.24,5.91,0,11.14-3.98,12.73-9.68.1-.35,0-.72-.25-.97Zm-12.47,8.66c-6.2,0-11.24-5.04-11.24-11.24,0-4.44,2.65-8.43,6.62-10.22-.07.57-.11,1.14-.11,1.71,0,7.3,5.94,13.24,13.24,13.24.57,0,1.14-.04,1.71-.11-1.79,3.97-5.78,6.62-10.22,6.62Z"/>
    <path class="cls-2" d="m16.03,25.29c-.58.14-1.19.21-1.79.21-4.27,0-7.74-3.47-7.74-7.74,0-.55-.45-1-1-1s-1,.45-1,1c0,5.37,4.37,9.74,9.74,9.74.76,0,1.52-.09,2.26-.27.54-.13.87-.67.74-1.21-.13-.54-.67-.87-1.21-.74Z"/>
    <path class="cls-2" d="m18.52,24.19c-.09.06-.19.12-.28.18-.47.29-.62.9-.34,1.37.19.31.52.48.86.48.18,0,.36-.05.52-.15.12-.08.25-.15.36-.23.46-.31.58-.93.27-1.39-.31-.46-.93-.58-1.39-.27Z"/>
  </g>
  <path class="cls-1" d="m30.87,6.35c-.36-1.1-1.33-1.8-2.48-1.8h-1.84l-.57-1.75c-.36-1.1-1.33-1.8-2.48-1.8s-2.13.71-2.48,1.8l-.57,1.75h-1.84c-1.15,0-2.13.71-2.48,1.8-.36,1.1.02,2.24.95,2.92l1.49,1.08-.57,1.75c-.36,1.1.02,2.24.95,2.92.93.68,2.14.68,3.07,0l1.49-1.08,1.49,1.08c.47.34,1,.51,1.53.51s1.07-.17,1.53-.51c.93-.68,1.3-1.82.95-2.92l-.57-1.75,1.49-1.08c.93-.68,1.3-1.82.95-2.92Z"/>
</svg>