<?xml version="1.0" encoding="UTF-8"?>
<svg id="OBJECT" xmlns="http://www.w3.org/2000/svg" viewBox="0 0 512 512">
  <defs>
    <style>
      .cls-1 {
        fill: #FD4360;
      }

      .cls-2 {
        fill: #dadada;
      }
    </style>
  </defs>
  <g>
    <path class="cls-2" d="M256,295c81.33,0,147.5-66.17,147.5-147.5S337.33,0,256,0,108.5,66.17,108.5,147.5s66.17,147.5,147.5,147.5Zm0-280c73.06,0,132.5,59.44,132.5,132.5s-59.44,132.5-132.5,132.5S123.5,220.56,123.5,147.5,182.94,15,256,15Z"/>
    <path class="cls-2" d="M434.14,354.52c-34.74-16.04-73.82-18.8-113.01-7.98-16.06,4.43-29.02,10.26-37.64,14.73v-23.76c0-15.16-12.34-27.5-27.5-27.5s-27.5,12.34-27.5,27.5v23.76c-8.61-4.47-21.57-10.29-37.64-14.73-39.19-10.82-78.27-8.06-113.01,7.98-3.65,1.68-5.32,5.94-3.79,9.66,.4,.98,10.12,24.1,35.52,41.61,14.4,9.92,35.71,19.14,65.21,19.14,15.56,0,33.41-2.58,53.71-8.96v41.03H126c-4.14,0-7.5,3.36-7.5,7.5v20c0,15.16,12.34,27.5,27.5,27.5h220c15.16,0,27.5-12.34,27.5-27.5v-20c0-4.14-3.36-7.5-7.5-7.5h-102.5v-41.03c20.3,6.38,38.14,8.96,53.71,8.96,29.49,0,50.81-9.22,65.21-19.14,25.41-17.51,35.12-40.63,35.52-41.61,1.53-3.72-.14-7.98-3.79-9.66Zm-315.44,39.33c-14.28-9.67-22.95-21.6-27.29-28.84,29.73-11.85,61.63-13.25,94.96-4.16,20.48,5.59,35.74,13.79,42.13,17.56v21.78c-44.43,15.04-81.35,12.92-109.79-6.35Zm259.79,90.65c0,6.89-5.61,12.5-12.5,12.5H146c-6.89,0-12.5-5.61-12.5-12.5v-12.5h245v12.5Zm-135-27.5v-119.5c0-6.89,5.61-12.5,12.5-12.5s12.5,5.61,12.5,12.5v119.5h-25Zm149.79-63.15c-28.44,19.26-65.37,21.39-109.79,6.35v-21.78c6.39-3.77,21.65-11.97,42.13-17.56,33.33-9.1,65.23-7.69,94.96,4.16-4.35,7.25-13.02,19.17-27.29,28.84Z"/>
  </g>
  <g>
    <path class="cls-1" d="M256,150c20.68,0,37.5-16.82,37.5-37.5v-30c0-15.16-12.34-27.5-27.5-27.5h-20c-15.16,0-27.5,12.34-27.5,27.5v30c0,20.68,16.82,37.5,37.5,37.5Z"/>
    <path class="cls-1" d="M304.16,133.37c-8.09,18.59-26.63,31.63-48.16,31.63s-40.07-13.04-48.16-31.63c-14.92,13.29-24.34,32.63-24.34,54.13v15c0,12.41,10.09,22.5,22.5,22.5h7.5v-17.5c0-4.14,3.36-7.5,7.5-7.5s7.5,3.36,7.5,7.5v17.5h55v-17.5c0-4.14,3.36-7.5,7.5-7.5s7.5,3.36,7.5,7.5v17.5h7.5c12.41,0,22.5-10.09,22.5-22.5v-15c0-21.5-9.42-40.84-24.34-54.13Z"/>
  </g>
</svg>