<?xml version="1.0" encoding="UTF-8"?>
<svg id="OBJECT" xmlns="http://www.w3.org/2000/svg" viewBox="0 0 32 32">
  <defs>
    <style>
      .cls-1 {
        fill: #FD4360;
      }

      .cls-1, .cls-2 {
        stroke-width: 0px;
      }

      .cls-2 {
        fill: #dadada;
      }
    </style>
  </defs>
  <path class="cls-2" d="m31,10.28c0-.78-.3-1.52-.86-2.07l-1.36-1.36c-1.1-1.1-3.03-1.1-4.13,0l-1.34,1.34c-.39-.36-1-.36-1.38.02s-.38.99-.02,1.38l-12.44,12.44c-.88.88-1.47,2.05-1.64,3.29l-.41,2.84-1.12,1.12c-.39.39-.39,1.02,0,1.41.2.2.45.29.71.29s.51-.1.71-.29l1.12-1.12,2.84-.41c1.24-.18,2.4-.76,3.29-1.64l12.44-12.44c.19.18.43.27.67.27.26,0,.51-.1.71-.29.38-.38.38-.99.02-1.38l1.34-1.34c.55-.55.86-1.29.86-2.07Zm-16.21,13.34l10.56-10.56.63.63-10.77,10.77c-.11-.29-.25-.57-.42-.83Zm9.15-11.98l-10.56,10.56c-.26-.17-.54-.31-.83-.42l10.77-10.77.63.63Zm-12.55,15.55h0l-1.85.26.26-1.85c.11-.79.48-1.53,1.04-2.1.71-.02,1.4.23,1.91.74s.77,1.2.75,1.91c-.57.55-1.32.92-2.11,1.04ZM28.73,10.94l-1.33,1.33-2.66-2.66,1.33-1.33c.17-.17.41-.27.65-.27s.48.1.65.27l1.36,1.36c.17.17.27.41.27.65s-.1.48-.27.65Z"/>
  <g>
    <path class="cls-1" d="m15.09,4.96c-.19-.67-.64-1.24-1.24-1.58v-.08c0-1.27-1.03-2.3-2.3-2.3-.79,0-1.43.64-1.43,1.43v13.2c0,.48.39.87.87.87s.87-.39.87-.87v-3.82c0-.55.45-1,1-1s1,.45,1,1v2.6c1.91-.4,3.38-2.48,3.38-4.98,0-1.91-.82-3.6-2.14-4.46Z"/>
    <path class="cls-1" d="m6.68,1c-1.27,0-2.3,1.03-2.3,2.3v.08c-.6.34-1.04.91-1.24,1.58-1.31.86-2.14,2.55-2.14,4.46,0,2.5,1.46,4.59,3.38,4.98v-2.6c0-.55.45-1,1-1s1,.45,1,1v3.82c0,.48.39.87.87.87s.87-.39.87-.87V2.43c0-.79-.64-1.43-1.43-1.43Z"/>
  </g>
</svg>