<?xml version="1.0" encoding="UTF-8"?>
<svg id="OBJECT" xmlns="http://www.w3.org/2000/svg" viewBox="0 0 32 32">
  <defs>
    <style>
      .cls-1 {
        fill: #FD4360;
      }

      .cls-2 {
        fill: #dadada;
      }
    </style>
  </defs>
  <g>
    <path class="cls-2" d="M30.76,14.35c-.19-.22-.47-.35-.76-.35h-7v-1c0-2.37-1.23-4.58-3.19-5.86,.11-.36,.19-.74,.19-1.14v-2c0-1.65-1.35-3-3-3h-2c-1.65,0-3,1.35-3,3v2c0,.4,.08,.78,.19,1.14-1.96,1.28-3.19,3.49-3.19,5.86v1H2c-.29,0-.57,.13-.76,.35-.19,.22-.27,.52-.23,.81l1.64,10c.09,.55,.61,.91,1.15,.83,.54-.09,.91-.6,.83-1.15l-1.45-8.84H28.82l-1.45,8.84c-.09,.54,.28,1.06,.83,1.15,.05,0,.11,.01,.16,.01,.48,0,.91-.35,.99-.84l1.64-10c.05-.29-.04-.59-.23-.81ZM14,4c0-.55,.45-1,1-1h2c.55,0,1,.45,1,1v2c0,1.1-.9,2-2,2s-2-.9-2-2v-2Zm-3,9c0-1.67,.85-3.22,2.21-4.14,.72,.7,1.7,1.14,2.79,1.14s2.07-.44,2.79-1.14c1.36,.92,2.21,2.47,2.21,4.14v1H11v-1Z"/>
    <path class="cls-2" d="M18.5,17.5h-5c-1.38,0-2.5,1.12-2.5,2.5v1c0,1.38,1.12,2.5,2.5,2.5h5c1.38,0,2.5-1.12,2.5-2.5v-1c0-1.38-1.12-2.5-2.5-2.5Zm.5,3.5c0,.28-.22,.5-.5,.5h-5c-.28,0-.5-.22-.5-.5v-1c0-.28,.22-.5,.5-.5h5c.28,0,.5,.22,.5,.5v1Z"/>
  </g>
  <path class="cls-1" d="M1,27v2.5c0,.83,.67,1.5,1.5,1.5H29.5c.83,0,1.5-.67,1.5-1.5v-2.5H1Z"/>
</svg>