<?xml version="1.0" encoding="UTF-8"?>
<svg id="OBJECT" xmlns="http://www.w3.org/2000/svg" viewBox="0 0 512 512">
  <defs>
    <style>
      .cls-1 {
        fill: #FD4360;
      }

      .cls-2 {
        fill: #dadada;
      }
    </style>
  </defs>
  <g>
    <path class="cls-2" d="M381,247h-27.5V97.5C353.5,43.74,309.76,0,256,0s-97.5,43.74-97.5,97.5V247h-27.5c-12.41,0-22.5,10.09-22.5,22.5v220c0,12.41,10.09,22.5,22.5,22.5h250c12.41,0,22.5-10.09,22.5-22.5v-220c0-12.41-10.09-22.5-22.5-22.5ZM173.5,97.5c0-45.49,37.01-82.5,82.5-82.5s82.5,37.01,82.5,82.5V247h-15V97.5c0-37.22-30.28-67.5-67.5-67.5s-67.5,30.28-67.5,67.5V247h-15V97.5Zm135,149.5h-105V97.5c0-28.95,23.55-52.5,52.5-52.5s52.5,23.55,52.5,52.5V247Zm-177.5,15h250c4.14,0,7.5,3.36,7.5,7.5v187.5H123.5v-187.5c0-4.14,3.36-7.5,7.5-7.5Zm250,235H131c-4.14,0-7.5-3.36-7.5-7.5v-17.5H388.5v17.5c0,4.14-3.36,7.5-7.5,7.5Z"/>
    <path class="cls-2" d="M221,352h10v25c0,13.79,11.21,25,25,25s25-11.21,25-25v-25h10c12.41,0,22.5-10.09,22.5-22.5v-20c0-12.41-10.09-22.5-22.5-22.5h-70c-12.41,0-22.5,10.09-22.5,22.5v20c0,12.41,10.09,22.5,22.5,22.5Zm45,25c0,5.51-4.49,10-10,10s-10-4.49-10-10v-25h20v25Zm-52.5-67.5c0-4.14,3.36-7.5,7.5-7.5h70c4.14,0,7.5,3.36,7.5,7.5v20c0,4.14-3.36,7.5-7.5,7.5h-70c-4.14,0-7.5-3.36-7.5-7.5v-20Z"/>
    <path class="cls-2" d="M146,442h15c4.14,0,7.5-3.36,7.5-7.5s-3.36-7.5-7.5-7.5h-15c-4.14,0-7.5,3.36-7.5,7.5s3.36,7.5,7.5,7.5Z"/>
    <path class="cls-2" d="M351,442h15c4.14,0,7.5-3.36,7.5-7.5s-3.36-7.5-7.5-7.5h-15c-4.14,0-7.5,3.36-7.5,7.5s3.36,7.5,7.5,7.5Z"/>
  </g>
  <g>
    <path class="cls-1" d="M479.5,327c-15.34,0-28.22,10.68-31.62,25h-21.88v15h21.88c3.4,14.32,16.28,25,31.62,25,17.92,0,32.5-14.58,32.5-32.5s-14.58-32.5-32.5-32.5Z"/>
    <path class="cls-1" d="M489.5,427c-9.78,0-18.11,6.27-21.21,15h-7.08c-3.45,0-6.44-2.34-7.28-5.68l-7.16-28.64c-.83-3.34-3.83-5.68-7.28-5.68h-13.5v15h7.64l5.74,22.96c2.51,10.03,11.49,17.04,21.83,17.04h7.08c3.1,8.73,11.43,15,21.21,15,12.41,0,22.5-10.09,22.5-22.5s-10.09-22.5-22.5-22.5Z"/>
    <path class="cls-1" d="M446.78,311.32l7.16-28.64c.84-3.35,3.83-5.68,7.28-5.68h7.08c3.1,8.73,11.43,15,21.21,15,12.41,0,22.5-10.09,22.5-22.5s-10.09-22.5-22.5-22.5c-9.78,0-18.11,6.27-21.21,15h-7.08c-10.34,0-19.32,7.01-21.83,17.04l-5.74,22.96h-7.64v15h13.5c3.44,0,6.44-2.34,7.28-5.68Z"/>
    <path class="cls-1" d="M32.5,327c-17.92,0-32.5,14.58-32.5,32.5s14.58,32.5,32.5,32.5c15.34,0,28.22-10.68,31.62-25h21.88v-15h-21.88c-3.4-14.32-16.28-25-31.62-25Z"/>
    <path class="cls-1" d="M65.22,407.68l-7.16,28.64c-.84,3.34-3.83,5.68-7.28,5.68h-7.08c-3.1-8.73-11.43-15-21.21-15-12.41,0-22.5,10.09-22.5,22.5s10.09,22.5,22.5,22.5c9.78,0,18.11-6.27,21.21-15h7.08c10.34,0,19.32-7.01,21.83-17.04l5.74-22.96h7.64v-15h-13.5c-3.44,0-6.44,2.34-7.28,5.68Z"/>
    <path class="cls-1" d="M72.62,279.04c-2.51-10.04-11.49-17.04-21.83-17.04h-7.08c-3.1-8.73-11.43-15-21.21-15-12.41,0-22.5,10.09-22.5,22.5s10.09,22.5,22.5,22.5c9.78,0,18.11-6.27,21.21-15h7.08c3.45,0,6.44,2.34,7.28,5.68l7.16,28.64c.83,3.34,3.83,5.68,7.28,5.68h13.5v-15h-7.64l-5.74-22.96Z"/>
  </g>
</svg>