<?xml version="1.0" encoding="UTF-8"?>
<svg id="OBJECT" xmlns="http://www.w3.org/2000/svg" viewBox="0 0 32 32">
  <defs>
    <style>
      .cls-1 {
        fill: #FD4360;
      }

      .cls-1, .cls-2 {
        stroke-width: 0px;
      }

      .cls-2 {
        fill: #dadada;
      }
    </style>
  </defs>
  <g>
    <path class="cls-2" d="m13.21,11.85h3.15c.55,0,1-.45,1-1s-.45-1-1-1h-1.36v-.57c0-.55-.45-1-1-1s-1,.45-1,1v.6c-1.32.11-2.36,1.21-2.36,2.55,0,1.42,1.16,2.57,2.57,2.57h1.57c.32,0,.57.26.57.57s-.26.57-.57.57h-3.15c-.55,0-1,.45-1,1s.45,1,1,1h1.36v.57c0,.55.45,1,1,1s1-.45,1-1v-.6c1.32-.11,2.36-1.21,2.36-2.55,0-1.42-1.16-2.57-2.57-2.57h-1.57c-.32,0-.57-.26-.57-.57s.26-.57.57-.57Z"/>
    <path class="cls-2" d="m14,1C6.83,1,1,6.83,1,14c0,6.03,4.26,11.36,10.14,12.68.07.02.15.02.22.02.46,0,.87-.32.97-.78.12-.54-.22-1.07-.76-1.19-4.97-1.12-8.58-5.63-8.58-10.73C3,7.93,7.93,3,14,3s11,4.93,11,11c0,.55.45,1,1,1s1-.45,1-1c0-7.17-5.83-13-13-13Z"/>
    <path class="cls-2" d="m14,4.5c-5.24,0-9.5,4.26-9.5,9.5s4.26,9.5,9.5,9.5c.55,0,1-.45,1-1s-.45-1-1-1c-4.14,0-7.5-3.36-7.5-7.5s3.36-7.5,7.5-7.5,7.5,3.36,7.5,7.5c0,.55.45,1,1,1s1-.45,1-1c0-5.24-4.26-9.5-9.5-9.5Z"/>
  </g>
  <path class="cls-1" d="m30.52,26.44l-5.53-8.62c-.55-.85-1.48-1.36-2.49-1.36s-1.95.51-2.49,1.36l-5.53,8.62c-.59.93-.63,2.06-.11,3.02.53.97,1.5,1.54,2.6,1.54h11.06c1.1,0,2.07-.58,2.6-1.54.53-.96.49-2.09-.11-3.02Zm-7.11.77c0,.51-.41.92-.92.92s-.92-.41-.92-.92v-.47c0-.51.41-.92.92-.92s.92.41.92.92v.47Zm0-2.98c0,.51-.41.92-.92.92s-.92-.41-.92-.92v-2.66c0-.51.41-.92.92-.92s.92.41.92.92v2.66Z"/>
</svg>