<?xml version="1.0" encoding="UTF-8"?>
<svg id="OBJECT" xmlns="http://www.w3.org/2000/svg" viewBox="0 0 32 32">
  <defs>
    <style>
      .cls-1 {
        fill: #FD4360;
      }

      .cls-1, .cls-2 {
        stroke-width: 0px;
      }

      .cls-2 {
        fill: #dadada;
      }
    </style>
  </defs>
  <g>
    <path class="cls-2" d="m6,12h-1c-.55,0-1,.45-1,1s.45,1,1,1h1c.55,0,1-.45,1-1s-.45-1-1-1Z"/>
    <path class="cls-2" d="m17.33,12h-1c-.55,0-1,.45-1,1s.45,1,1,1h1c.55,0,1-.45,1-1s-.45-1-1-1Z"/>
    <path class="cls-2" d="m11.67,12h-1c-.55,0-1,.45-1,1s.45,1,1,1h1c.55,0,1-.45,1-1s-.45-1-1-1Z"/>
    <path class="cls-2" d="m23,12h-1c-.55,0-1,.45-1,1s.45,1,1,1h1c.55,0,1-.45,1-1s-.45-1-1-1Z"/>
    <path class="cls-2" d="m6,16.5h-1c-.55,0-1,.45-1,1s.45,1,1,1h1c.55,0,1-.45,1-1s-.45-1-1-1Z"/>
    <path class="cls-2" d="m11.67,16.5h-1c-.55,0-1,.45-1,1s.45,1,1,1h1c.55,0,1-.45,1-1s-.45-1-1-1Z"/>
    <path class="cls-2" d="m6,21h-1c-.55,0-1,.45-1,1s.45,1,1,1h1c.55,0,1-.45,1-1s-.45-1-1-1Z"/>
    <path class="cls-2" d="m11.67,21h-1c-.55,0-1,.45-1,1s.45,1,1,1h1c.55,0,1-.45,1-1s-.45-1-1-1Z"/>
    <path class="cls-2" d="m25,4.05v-2.05c0-.55-.45-1-1-1s-1,.45-1,1v2h-4.67v-2c0-.55-.45-1-1-1s-1,.45-1,1v2h-4.67v-2c0-.55-.45-1-1-1s-1,.45-1,1v2h-4.67v-2c0-.55-.45-1-1-1s-1,.45-1,1v2.05c-1.14.23-2,1.24-2,2.45v18c0,1.38,1.12,2.5,2.5,2.5h11.18c.55,0,1-.45,1-1s-.45-1-1-1H3.5c-.28,0-.5-.22-.5-.5v-14.5h22v4.68c0,.55.45,1,1,1s1-.45,1-1V6.5c0-1.21-.86-2.22-2-2.45ZM3,8v-1.5c0-.28.22-.5.5-.5h21c.28,0,.5.22.5.5v1.5H3Z"/>
  </g>
  <path class="cls-1" d="m24,17c-3.86,0-7,3.14-7,7s3.14,7,7,7,7-3.14,7-7-3.14-7-7-7Zm2.71,9.71c-.2.2-.45.29-.71.29s-.51-.1-.71-.29l-2-2c-.19-.19-.29-.44-.29-.71v-3c0-.55.45-1,1-1s1,.45,1,1v2.59l1.71,1.71c.39.39.39,1.02,0,1.41Z"/>
</svg>