<?xml version="1.0" encoding="UTF-8"?>
<svg id="OBJECT" xmlns="http://www.w3.org/2000/svg" viewBox="0 0 32 32">
  <defs>
    <style>
      .cls-1 {
        fill: #FD4360;
      }

      .cls-1, .cls-2 {
        stroke-width: 0px;
      }

      .cls-2 {
        fill: #dadada;
      }
    </style>
  </defs>
  <g>
    <path class="cls-2" d="m6,11c-.55,0-1,.45-1,1s.45,1,1,1h2.37c.55,0,1-.45,1-1s-.45-1-1-1h-2.37Z"/>
    <path class="cls-2" d="m10,24h-5c-.55,0-1,.45-1,1s.45,1,1,1h5c.55,0,1-.45,1-1s-.45-1-1-1Z"/>
    <path class="cls-2" d="m28,11h-.53c-.55,0-1,.45-1,1s.45,1,1,1h.53c.55,0,1,.45,1,1v5h-7c-1.65,0-3,1.35-3,3v1c0,1.65,1.35,3,3,3h7v2c0,.55-.45,1-1,1h-14v-7c0-1.65-1.35-3-3-3H3v-11c0-.55.45-1,1-1h5c.55,0,1-.45,1-1s-.45-1-1-1h-5c-1.65,0-3,1.35-3,3v20c0,1.65,1.35,3,3,3h24c1.65,0,3-1.35,3-3v-14c0-1.65-1.35-3-3-3ZM3,28v-7h8c.55,0,1,.45,1,1v7H4c-.55,0-1-.45-1-1Zm18-5v-1c0-.55.45-1,1-1h1v3h-1c-.55,0-1-.45-1-1Zm4,1v-3h4v3h-4Z"/>
  </g>
  <path class="cls-1" d="m18,1c-4.14,0-7.5,3.36-7.5,7.5s3.36,7.5,7.5,7.5,7.5-3.36,7.5-7.5-3.36-7.5-7.5-7.5Zm3.21,8.93l-2.5,2.53c-.19.19-.44.3-.71.3s-.52-.11-.71-.3l-2.5-2.53c-.39-.39-.38-1.03,0-1.41.39-.39,1.03-.39,1.41,0l.79.8v-4.07c0-.55.45-1,1-1s1,.45,1,1v4.07l.79-.8c.39-.39,1.02-.4,1.41,0,.39.39.4,1.02,0,1.41Z"/>
</svg>