<?xml version="1.0" encoding="UTF-8"?>
<svg id="OBJECT" xmlns="http://www.w3.org/2000/svg" viewBox="0 0 32 32">
  <defs>
    <style>
      .cls-1 {
        fill: #FD4360;
      }

      .cls-1, .cls-2 {
        stroke-width: 0px;
      }

      .cls-2 {
        fill: #dadada;
      }
    </style>
  </defs>
  <g>
    <path class="cls-2" d="m29,10c-.55,0-1,.45-1,1v14H4v-2h19.5c1.38,0,2.5-1.12,2.5-2.5v-5c0-1.38-1.12-2.5-2.5-2.5H4v-2c0-.55-.45-1-1-1s-1,.45-1,1v15c0,.08,0,.16.03.24l.62,2.48c.33,1.34,1.53,2.27,2.91,2.27h20.88c1.38,0,2.58-.93,2.91-2.27l.62-2.48c.02-.08.03-.16.03-.24v-15c0-.55-.45-1-1-1Zm-5.5,5c.28,0,.5.22.5.5v5c0,.28-.22.5-.5.5H4v-6h19.5Zm2.94,14H5.56c-.46,0-.86-.31-.97-.76l-.31-1.24h23.44l-.31,1.24c-.11.45-.51.76-.97.76Z"/>
    <path class="cls-2" d="m10.5,19h11c.55,0,1-.45,1-1s-.45-1-1-1h-11c-.55,0-1,.45-1,1s.45,1,1,1Z"/>
    <path class="cls-2" d="m6.5,19h1c.55,0,1-.45,1-1s-.45-1-1-1h-1c-.55,0-1,.45-1,1s.45,1,1,1Z"/>
  </g>
  <path class="cls-1" d="m29,1H3c-1.1,0-2,.9-2,2v5h30V3c0-1.1-.9-2-2-2Zm-8,4.5h-1c-.55,0-1-.45-1-1s.45-1,1-1h1c.55,0,1,.45,1,1s-.45,1-1,1Zm5,0h-1c-.55,0-1-.45-1-1s.45-1,1-1h1c.55,0,1,.45,1,1s-.45,1-1,1Z"/>
</svg>