<?xml version="1.0" encoding="UTF-8"?>
<svg id="OBJECT" xmlns="http://www.w3.org/2000/svg" viewBox="0 0 32 32">
  <defs>
    <style>
      .cls-1 {
        fill: #FD4360;
      }

      .cls-2 {
        fill: #dadada;
      }
    </style>
  </defs>
  <g>
    <path class="cls-2" d="m28,11h-3v-2c0-.55-.45-1-1-1H8c-.55,0-1,.45-1,1v14c0,.55.45,1,1,1s1-.45,1-1v-13h14v13c0,.55.45,1,1,1s1-.45,1-1v-2h3c1.65,0,3-1.35,3-3v-4c0-1.65-1.35-3-3-3Zm1,7c0,.55-.45,1-1,1h-3v-6h3c.55,0,1,.45,1,1v4Z"/>
    <path class="cls-2" d="m16,6c.55,0,1-.45,1-1v-3c0-.55-.45-1-1-1s-1,.45-1,1v3c0,.55.45,1,1,1Z"/>
    <path class="cls-2" d="m21,6c.55,0,1-.45,1-1v-3c0-.55-.45-1-1-1s-1,.45-1,1v3c0,.55.45,1,1,1Z"/>
    <path class="cls-2" d="m11,6c.55,0,1-.45,1-1v-3c0-.55-.45-1-1-1s-1,.45-1,1v3c0,.55.45,1,1,1Z"/>
    <path class="cls-2" d="m15.17,15.17h3.33c.55,0,1-.45,1-1s-.45-1-1-1h-1.5v-.67c0-.55-.45-1-1-1s-1,.45-1,1v.68c-1.39.09-2.5,1.24-2.5,2.65s1.2,2.67,2.67,2.67h1.67c.37,0,.67.3.67.67s-.3.67-.67.67h-3.33c-.55,0-1,.45-1,1s.45,1,1,1h1.5v.67c0,.55.45,1,1,1s1-.45,1-1v-.68c1.39-.09,2.5-1.24,2.5-2.65s-1.2-2.67-2.67-2.67h-1.67c-.37,0-.67-.3-.67-.67s.3-.67.67-.67Z"/>
  </g>
  <path class="cls-1" d="m30,25H2c-.31,0-.6.14-.79.38-.19.24-.26.56-.18.86l.62,2.49c.33,1.34,1.53,2.27,2.91,2.27h22.88c1.38,0,2.58-.93,2.91-2.27l.62-2.49c.07-.3,0-.62-.18-.86-.19-.24-.48-.38-.79-.38Z"/>
</svg>