<?xml version="1.0" encoding="UTF-8"?>
<svg id="OBJECT" xmlns="http://www.w3.org/2000/svg" viewBox="0 0 32 32">
  <defs>
    <style>
      .cls-1 {
        fill: #FD4360;
      }

      .cls-1, .cls-2 {
        stroke-width: 0px;
      }

      .cls-2 {
        fill: #dadada;
      }
    </style>
  </defs>
  <g>
    <path class="cls-2" d="m28.5,20.5h1.5c.55,0,1-.45,1-1v-5.5c0-.55-.45-1-1-1H2c-.55,0-1,.45-1,1v5.5c0,.55.45,1,1,1h1.5c.83,0,1.5.67,1.5,1.5s-.67,1.5-1.5,1.5h-1.5c-.55,0-1,.45-1,1v5.5c0,.55.45,1,1,1h28c.55,0,1-.45,1-1v-5.5c0-.55-.45-1-1-1h-1.5c-.83,0-1.5-.67-1.5-1.5s.67-1.5,1.5-1.5Zm0,5h.5v3.5H3v-3.5h.5c1.93,0,3.5-1.57,3.5-3.5s-1.57-3.5-3.5-3.5h-.5v-3.5h26v3.5h-.5c-1.93,0-3.5,1.57-3.5,3.5s1.57,3.5,3.5,3.5Z"/>
    <path class="cls-2" d="m20.11,16.71c-.44-.34-1.06-.26-1.4.18l-7,9c-.34.44-.26,1.06.17,1.4.18.14.4.21.61.21.3,0,.59-.13.79-.39l7-9c.34-.44.26-1.06-.17-1.4Z"/>
    <path class="cls-2" d="m20,23.5c-.55,0-1,.45-1,1v2c0,.55.45,1,1,1s1-.45,1-1v-2c0-.55-.45-1-1-1Z"/>
    <path class="cls-2" d="m13,19.5v-2c0-.55-.45-1-1-1s-1,.45-1,1v2c0,.55.45,1,1,1s1-.45,1-1Z"/>
  </g>
  <path class="cls-1" d="m2.36,11h26.5l-.46-1.27c-.09-.25-.28-.45-.52-.56-.24-.11-.52-.13-.77-.03l-1.15.42c-.54.2-1.14-.08-1.34-.62-.2-.54.08-1.14.62-1.34l1.15-.42c.25-.09.45-.28.56-.52.11-.24.12-.52.03-.77l-1.54-4.23c-.19-.52-.77-.79-1.28-.6L2.66,8.9c-.25.09-.45.28-.56.52-.11.24-.12.52-.03.76l.3.82ZM21.68,3.42l.19-.07c.52-.19,1.09.08,1.28.6.19.52-.08,1.09-.6,1.28l-.19.07c-.11.04-.23.06-.34.06-.41,0-.79-.25-.94-.66-.19-.52.08-1.09.6-1.28Zm-10.02,3.65l7.69-2.8c.52-.19,1.09.08,1.28.6.19.52-.08,1.09-.6,1.28l-7.69,2.8c-.11.04-.23.06-.34.06-.41,0-.79-.25-.94-.66-.19-.52.08-1.09.6-1.28Z"/>
</svg>