<?xml version="1.0" encoding="UTF-8"?>
<svg id="OBJECT" xmlns="http://www.w3.org/2000/svg" viewBox="0 0 512 512">
  <defs>
    <style>
      .cls-1 {
        fill: #FD4360;
      }

      .cls-2 {
        fill: #dadada;
      }
    </style>
  </defs>
  <g>
    <path class="cls-2" d="M504.5,213.5h-190c-1.48,0-2.93,.44-4.16,1.26l-25.84,17.23-25.84-17.23c-1.23-.82-2.68-1.26-4.16-1.26H7.5c-4.14,0-7.5,3.36-7.5,7.5v210c0,4.14,3.36,7.5,7.5,7.5H254.5c1.48,0,2.93-.44,4.16-1.26l25.84-17.23,25.84,17.23c1.23,.82,2.68,1.26,4.16,1.26h190c4.14,0,7.5-3.36,7.5-7.5V221c0-4.14-3.36-7.5-7.5-7.5Zm-252.27,210H15V228.5H252.23l24.77,16.51v161.97l-24.77,16.51Zm244.77,0h-180.23l-24.77-16.51V245.01l24.77-16.51h180.23v195Z"/>
    <path class="cls-2" d="M372,316c15.16,0,27.5-12.34,27.5-27.5s-12.34-27.5-27.5-27.5-27.5,12.34-27.5,27.5,12.34,27.5,27.5,27.5Zm0-40c6.89,0,12.5,5.61,12.5,12.5s-5.61,12.5-12.5,12.5-12.5-5.61-12.5-12.5,5.61-12.5,12.5-12.5Z"/>
    <path class="cls-2" d="M447,336c-15.16,0-27.5,12.34-27.5,27.5s12.34,27.5,27.5,27.5,27.5-12.34,27.5-27.5-12.34-27.5-27.5-27.5Zm0,40c-6.89,0-12.5-5.61-12.5-12.5s5.61-12.5,12.5-12.5,12.5,5.61,12.5,12.5-5.61,12.5-12.5,12.5Z"/>
    <path class="cls-2" d="M354.2,381.3c1.46,1.46,3.38,2.2,5.3,2.2s3.84-.73,5.3-2.2l100-100c2.93-2.93,2.93-7.68,0-10.61-2.93-2.93-7.68-2.93-10.61,0l-100,100c-2.93,2.93-2.93,7.68,0,10.61Z"/>
    <path class="cls-2" d="M217.5,253.5H57.5c-9.65,0-17.5,7.85-17.5,17.5v20c0,9.65,7.85,17.5,17.5,17.5H217.5c9.65,0,17.5-7.85,17.5-17.5v-20c0-9.65-7.85-17.5-17.5-17.5Zm2.5,37.5c0,1.38-1.12,2.5-2.5,2.5H57.5c-1.38,0-2.5-1.12-2.5-2.5v-20c0-1.38,1.12-2.5,2.5-2.5H217.5c1.38,0,2.5,1.12,2.5,2.5v20Z"/>
    <path class="cls-2" d="M227.5,323.5H87.5c-4.14,0-7.5,3.36-7.5,7.5s3.36,7.5,7.5,7.5H227.5c4.14,0,7.5-3.36,7.5-7.5s-3.36-7.5-7.5-7.5Z"/>
    <path class="cls-2" d="M47.5,338.5h10c4.14,0,7.5-3.36,7.5-7.5s-3.36-7.5-7.5-7.5h-10c-4.14,0-7.5,3.36-7.5,7.5s3.36,7.5,7.5,7.5Z"/>
    <path class="cls-2" d="M227.5,353.5H47.5c-4.14,0-7.5,3.36-7.5,7.5s3.36,7.5,7.5,7.5H227.5c4.14,0,7.5-3.36,7.5-7.5s-3.36-7.5-7.5-7.5Z"/>
    <path class="cls-2" d="M227.5,383.5H47.5c-4.14,0-7.5,3.36-7.5,7.5s3.36,7.5,7.5,7.5H227.5c4.14,0,7.5-3.36,7.5-7.5s-3.36-7.5-7.5-7.5Z"/>
  </g>
  <g>
    <path class="cls-1" d="M425.07,79.7c-.35-1.96-1.46-3.7-3.08-4.84-1.63-1.14-3.65-1.59-5.61-1.24l-152.99,27.01c-1.46,.26-2.81,.94-3.88,1.97l-11.18,10.69,15.35,87.18c1.14,.51,2.25,1.11,3.3,1.81l17.52,11.68,17.52-11.68c3.71-2.47,8.02-3.78,12.48-3.78h131.49l-20.92-118.8Zm-32,92.17c-.44,.08-.88,.11-1.31,.11-3.57,0-6.74-2.56-7.38-6.2l-3.93-22.35c-.35-1.97-1.44-3.69-3.08-4.84-1.64-1.15-3.63-1.59-5.61-1.24l-33.07,5.84c-4.08,.72-7.97-2-8.69-6.08-.72-4.08,2-7.97,6.08-8.69l33.07-5.84c5.92-1.04,11.89,.28,16.82,3.73s8.21,8.61,9.25,14.53l3.93,22.35c.72,4.08-2.01,7.97-6.09,8.69Z"/>
    <path class="cls-1" d="M219.4,109.68c-1.36-.6-2.86-.78-4.32-.52L16.2,144.28c-4.08,.72-6.8,4.61-6.08,8.69l4.29,24.38,119.95-21.18c4.07-.72,7.97,2,8.69,6.08,.72,4.08-2,7.97-6.08,8.69l-119.96,21.18,1.12,6.38H248.11l-14.54-82.6-14.16-6.22Zm-49.76,55.48l-4,.71c-.44,.08-.88,.12-1.31,.12-3.57,0-6.73-2.56-7.38-6.2-.72-4.08,2-7.97,6.08-8.69l4-.71c4.08-.72,7.97,2,8.69,6.08,.72,4.08-2,7.97-6.08,8.69Z"/>
  </g>
</svg>