<?xml version="1.0" encoding="UTF-8"?>
<svg id="OBJECT" xmlns="http://www.w3.org/2000/svg" viewBox="0 0 32 32">
  <defs>
    <style>
      .cls-1 {
        fill: #FD4360;
      }

      .cls-2 {
        fill: #dadada;
      }
    </style>
  </defs>
  <g>
    <path class="cls-2" d="m27,1H5c-.55,0-1,.45-1,1v28c0,.55.45,1,1,1h22c.55,0,1-.45,1-1V2c0-.55-.45-1-1-1Zm-1,28H6V3h20v26Z"/>
    <path class="cls-2" d="m12,27h12c.55,0,1-.45,1-1s-.45-1-1-1h-12c-.55,0-1,.45-1,1s.45,1,1,1Z"/>
    <path class="cls-2" d="m8,27h.5c.55,0,1-.45,1-1s-.45-1-1-1h-.5c-.55,0-1,.45-1,1s.45,1,1,1Z"/>
    <path class="cls-2" d="m12,23.5h12c.55,0,1-.45,1-1s-.45-1-1-1h-12c-.55,0-1,.45-1,1s.45,1,1,1Z"/>
    <path class="cls-2" d="m8,23.5h.5c.55,0,1-.45,1-1s-.45-1-1-1h-.5c-.55,0-1,.45-1,1s.45,1,1,1Z"/>
    <path class="cls-2" d="m12,20h12c.55,0,1-.45,1-1s-.45-1-1-1h-12c-.55,0-1,.45-1,1s.45,1,1,1Z"/>
    <path class="cls-2" d="m8,20h.5c.55,0,1-.45,1-1s-.45-1-1-1h-.5c-.55,0-1,.45-1,1s.45,1,1,1Z"/>
    <path class="cls-2" d="m19.5,6h.5c.55,0,1-.45,1-1s-.45-1-1-1h-.5c-.55,0-1,.45-1,1s.45,1,1,1Z"/>
    <path class="cls-2" d="m23.5,6h.5c.55,0,1-.45,1-1s-.45-1-1-1h-.5c-.55,0-1,.45-1,1s.45,1,1,1Z"/>
  </g>
  <rect class="cls-1" x="18" y="11" width="7" height="5" rx="1.5" ry="1.5"/>
  <g>
    <path class="cls-1" d="m11.41,9.44c2.11.4,3.94-1.42,3.53-3.53-.22-1.17-1.18-2.13-2.36-2.36-2.11-.4-3.93,1.42-3.53,3.53.22,1.17,1.18,2.13,2.36,2.36Z"/>
    <path class="cls-1" d="m15.27,10.25c-.88.77-2.02,1.25-3.27,1.25s-2.39-.48-3.27-1.25c-1.05.92-1.73,2.25-1.73,3.75v.5c0,.83.67,1.5,1.5,1.5h7c.83,0,1.5-.67,1.5-1.5v-.5c0-1.5-.68-2.83-1.73-3.75Z"/>
  </g>
</svg>