<?xml version="1.0" encoding="UTF-8"?>
<svg id="OBJECT" xmlns="http://www.w3.org/2000/svg" viewBox="0 0 32 32">
  <defs>
    <style>
      .cls-1 {
        fill: #FD4360;
      }

      .cls-1, .cls-2 {
        stroke-width: 0px;
      }

      .cls-2 {
        fill: #dadada;
      }
    </style>
  </defs>
  <g>
    <path class="cls-2" d="m27,5h-3v-3c0-.55-.45-1-1-1H5c-.55,0-1,.45-1,1v24c0,.55.45,1,1,1h3v3c0,.55.45,1,1,1h18c.55,0,1-.45,1-1V6c0-.55-.45-1-1-1ZM6,3h16v22H6V3Zm20,26H10v-2h13c.55,0,1-.45,1-1V7h2v22Z"/>
    <path class="cls-2" d="m19.5,21.5h-11c-.55,0-1,.45-1,1s.45,1,1,1h11c.55,0,1-.45,1-1s-.45-1-1-1Z"/>
    <path class="cls-2" d="m19.5,17.5h-7c-.55,0-1,.45-1,1s.45,1,1,1h7c.55,0,1-.45,1-1s-.45-1-1-1Z"/>
    <path class="cls-2" d="m8.5,19.5h.5c.55,0,1-.45,1-1s-.45-1-1-1h-.5c-.55,0-1,.45-1,1s.45,1,1,1Z"/>
  </g>
  <g>
    <path class="cls-1" d="m14,11.9c1.79,0,3.25-1.46,3.25-3.25v-1.35c0-1.54-1.26-2.8-2.8-2.8h-.9c-1.54,0-2.8,1.26-2.8,2.8v1.35c0,1.79,1.46,3.25,3.25,3.25Z"/>
    <path class="cls-1" d="m18.89,10.53c-.76,1.97-2.66,3.37-4.89,3.37s-4.13-1.41-4.89-3.37c-.39.76-.61,1.6-.61,2.47v2.5h11v-2.5c0-.87-.22-1.72-.61-2.47Z"/>
  </g>
</svg>