<?xml version="1.0" encoding="UTF-8"?>
<svg id="OBJECT" xmlns="http://www.w3.org/2000/svg" viewBox="0 0 32 32">
  <defs>
    <style>
      .cls-1 {
        fill: #FD4360;
      }

      .cls-1, .cls-2 {
        stroke-width: 0px;
      }

      .cls-2 {
        fill: #dadada;
      }
    </style>
  </defs>
  <g>
    <path class="cls-2" d="m29,22h-1c-1.65,0-3-1.35-3-3v-5h4c.55,0,1-.45,1-1s-.45-1-1-1h-4v-4c0-3.31-2.69-6-6-6s-6,2.69-6,6v4h-4c-.55,0-1,.45-1,1s.45,1,1,1h4v5c0,1.65-1.35,3-3,3h-1c-.55,0-1,.45-1,1s.45,1,1,1h1c2.76,0,5-2.24,5-5v-5h8v5c0,2.76,2.24,5,5,5h1c.55,0,1-.45,1-1s-.45-1-1-1Zm-14-10v-4c0-2.21,1.79-4,4-4s4,1.79,4,4v4h-8Z"/>
    <path class="cls-2" d="m5,1c-.55,0-1,.45-1,1v1h-2c-.55,0-1,.45-1,1s.45,1,1,1h2v2.62h-2c-.55,0-1,.45-1,1s.45,1,1,1h2v2.62h-2c-.55,0-1,.45-1,1s.45,1,1,1h2v2.62h-2c-.55,0-1,.45-1,1s.45,1,1,1h2v2.62h-2c-.55,0-1,.45-1,1s.45,1,1,1h2v1c0,.55.45,1,1,1s1-.45,1-1V2c0-.55-.45-1-1-1Z"/>
  </g>
  <path class="cls-1" d="m4,27.5v1.5c0,1.1.9,2,2,2h23c1.1,0,2-.9,2-2v-1.5H4Z"/>
</svg>