<?xml version="1.0" encoding="UTF-8"?>
<svg id="OBJECT" xmlns="http://www.w3.org/2000/svg" viewBox="0 0 32 32">
  <defs>
    <style>
      .cls-1 {
        fill: #FD4360;
      }

      .cls-1, .cls-2 {
        stroke-width: 0px;
      }

      .cls-2 {
        fill: #dadada;
      }
    </style>
  </defs>
  <path class="cls-2" d="m28,11h-2c0-5.51-4.49-10-10-10S6,5.49,6,11h-2c-1.65,0-3,1.35-3,3v8c0,1.65,1.35,3,3,3h1c1.65,0,3-1.35,3-3v-11c0-4.41,3.59-8,8-8s8,3.59,8,8v16c0,1.1-.9,2-2,2h-1.25l-.48-1.69c-.31-1.07-1.29-1.81-2.4-1.81h-4.37c-1.38,0-2.5,1.12-2.5,2.5v.5c0,1.38,1.12,2.5,2.5,2.5h8.5c2.21,0,4-1.79,4-4v-2h2c1.65,0,3-1.35,3-3v-8c0-1.65-1.35-3-3-3ZM6,22c0,.55-.45,1-1,1h-1c-.55,0-1-.45-1-1v-8c0-.55.45-1,1-1h2v9Zm7.5,7c-.28,0-.5-.22-.5-.5v-.5c0-.28.22-.5.5-.5h4.37c.22,0,.42.15.48.36l.32,1.14h-5.17Zm15.5-7c0,.55-.45,1-1,1h-2v-10h2c.55,0,1,.45,1,1v8Z"/>
  <path class="cls-1" d="m16,23.5c3.31,0,6-2.69,6-6v-5c0-2.21-1.79-4-4-4h-4c-2.21,0-4,1.79-4,4v5c0,3.31,2.69,6,6,6Zm-3.21-5.21c.39-.39,1.02-.39,1.41,0,.99.99,2.6.99,3.59,0,.39-.39,1.02-.39,1.41,0s.39,1.02,0,1.41c-.88.88-2.05,1.33-3.21,1.33s-2.32-.44-3.21-1.33c-.39-.39-.39-1.02,0-1.41Z"/>
</svg>