<?xml version="1.0" encoding="UTF-8"?>
<svg id="OBJECT" xmlns="http://www.w3.org/2000/svg" viewBox="0 0 32 32">
  <defs>
    <style>
      .cls-1 {
        fill: #FD4360;
      }

      .cls-1, .cls-2 {
        stroke-width: 0px;
      }

      .cls-2 {
        fill: #dadada;
      }
    </style>
  </defs>
  <path class="cls-2" d="m14.67,18.86c.15-.47.25-.95.25-1.46v-3.49c0-1.48-1.2-2.68-2.68-2.68h-4.46c-1.48,0-2.68,1.2-2.68,2.68v3.49c0,.51.1,1,.25,1.46-2.6,1.07-4.33,3.59-4.33,6.49v2.52c0,1.72,1.4,3.13,3.13,3.13h11.75c1.72,0,3.13-1.4,3.13-3.13v-2.52c0-2.9-1.73-5.42-4.33-6.49Zm-7.58-4.95c0-.38.31-.68.68-.68h4.46c.38,0,.68.31.68.68v3.49c0,1.61-1.31,2.91-2.91,2.91s-2.91-1.31-2.91-2.91v-3.49Zm9.91,13.97c0,.62-.5,1.13-1.13,1.13H4.13c-.62,0-1.13-.5-1.13-1.13v-2.52c0-2.16,1.35-4.01,3.33-4.72.9,1.02,2.2,1.68,3.67,1.68s2.77-.66,3.67-1.68c1.99.71,3.33,2.56,3.33,4.72v2.52Z"/>
  <path class="cls-1" d="m28.38,1h-10.76c-1.44,0-2.62,1.17-2.62,2.62v6.76c0,1.44,1.17,2.62,2.62,2.62h1.76l1.28,2.55c.45.89,1.34,1.45,2.34,1.45s1.9-.55,2.34-1.45l1.28-2.55h1.76c1.44,0,2.62-1.17,2.62-2.62V3.62c0-1.44-1.17-2.62-2.62-2.62Zm-1.88,8.5h-7c-.55,0-1-.45-1-1s.45-1,1-1h7c.55,0,1,.45,1,1s-.45,1-1,1Zm0-3h-7c-.55,0-1-.45-1-1s.45-1,1-1h7c.55,0,1,.45,1,1s-.45,1-1,1Z"/>
</svg>