<?xml version="1.0" encoding="UTF-8" standalone="no"?>
<svg
   id="OBJECT"
   viewBox="0 0 32 32"
   version="1.1"
   sodipodi:docname="Cost-Benefit.svg"
   xml:space="preserve"
   inkscape:version="1.2.2 (732a01da63, 2022-12-09)"
   xmlns:inkscape="http://www.inkscape.org/namespaces/inkscape"
   xmlns:sodipodi="http://sodipodi.sourceforge.net/DTD/sodipodi-0.dtd"
   xmlns="http://www.w3.org/2000/svg"
   xmlns:svg="http://www.w3.org/2000/svg"><sodipodi:namedview
     id="namedview11"
     pagecolor="#505050"
     bordercolor="#ffffff"
     borderopacity="1"
     inkscape:showpageshadow="0"
     inkscape:pageopacity="0"
     inkscape:pagecheckerboard="1"
     inkscape:deskcolor="#505050"
     showgrid="false"
     inkscape:zoom="3.2382813"
     inkscape:cx="-82.14234"
     inkscape:cy="37.365501"
     inkscape:window-width="1920"
     inkscape:window-height="1009"
     inkscape:window-x="-8"
     inkscape:window-y="-8"
     inkscape:window-maximized="1"
     inkscape:current-layer="OBJECT" /><defs
     id="defs4"><style
       id="style2">
      .cls-1 {
        fill: #FD4360;
      }

      .cls-1, .cls-2 {
        stroke-width: 0px;
      }

      .cls-2 {
        fill: #dadada;
      }
    </style></defs><path
     class="cls-1"
     d="m 16,23.5 c 4.14,0 7.5,-3.36 7.5,-7.5 0,-4.14 -3.36,-7.5 -7.5,-7.5 -4.14,0 -7.5,3.36 -7.5,7.5 0,4.14 3.36,7.5 7.5,7.5 z M 16.6,17 h -1.2 c -1.21,0 -2.2,-0.99 -2.2,-2.2 0,-1.08 0.78,-1.97 1.81,-2.16 V 12.4 c 0,-0.55 0.45,-1 1,-1 0.55,0 1,0.45 1,1 v 0.2 h 0.81 c 0.55,0 1,0.45 1,1 0,0.55 -0.45,1 -1,1 h -2.41 c -0.11,0 -0.2,0.09 -0.2,0.2 0,0.11 0.09,0.2 0.2,0.2 h 1.2 c 1.21,0 2.2,0.99 2.2,2.2 0,1.08 -0.78,1.97 -1.81,2.16 v 0.24 c 0,0.55 -0.45,1 -1,1 -0.55,0 -1,-0.45 -1,-1 v -0.2 h -0.81 c -0.55,0 -1,-0.45 -1,-1 0,-0.55 0.45,-1 1,-1 h 2.41 c 0.11,0 0.2,-0.09 0.2,-0.2 0,-0.11 -0.09,-0.2 -0.2,-0.2 z"
     id="path6" /><g
     id="g480"
     transform="translate(0.21835867,0.27294834)"><path
       style="fill:#dadada;stroke:#dadada;stroke-width:0.0135869"
       d="M 8.2898001,8.4771619 C 8.2428227,8.4686069 8.1695203,8.4478659 8.1268725,8.4310719 7.9619486,8.3661129 7.7700464,8.2895155 7.5925019,8.2177811 7.4907538,8.1766733 7.3786872,8.1361472 7.3434646,8.1277271 c -0.035207,-0.00842 -0.064037,-0.020862 -0.064037,-0.027646 0,-0.00678 -0.062792,-0.032071 -0.1395426,-0.056189 -0.07675,-0.024119 -0.1467914,-0.053493 -0.1556425,-0.065276 -0.00887,-0.011782 -0.030748,-0.021424 -0.048637,-0.021424 -0.0294,0 -0.3168953,-0.1094349 -0.5621164,-0.2139589 C 6.3213377,7.7210046 6.2615478,7.6995474 6.2406154,7.6955502 6.2196674,7.6915524 6.1598931,7.670088 6.1077461,7.6478489 6.0555939,7.6256099 5.9104669,7.5688676 5.7852404,7.5217531 5.6600088,7.4746367 5.5319357,7.4234894 5.5006278,7.4080904 5.4693096,7.3926915 5.3892717,7.3626836 5.3227463,7.3414065 5.2562157,7.3201288 5.2017872,7.2973115 5.2017872,7.2907005 c 0,-0.00661 -0.028829,-0.018828 -0.064036,-0.027152 C 5.0794489,7.2497726 4.8856074,7.1744495 4.5925171,7.0516831 4.5313532,7.0260649 4.4660255,7.0018337 4.4473383,6.9978366 4.4286718,6.9938388 4.3755862,6.9721996 4.3294229,6.94975 4.2832751,6.9272989 4.2188341,6.9011357 4.1862611,6.8916076 4.1232927,6.8731894 3.6107722,6.6680629 3.4272907,6.5878461 3.3670549,6.5615103 3.2945043,6.535475 3.266069,6.5299893 3.2376544,6.524505 3.203671,6.5112642 3.190594,6.5005694 3.1775275,6.4898734 3.1312708,6.4695736 3.0878296,6.4554576 3.0443781,6.44134 2.9739431,6.4137877 2.9312901,6.3942271 2.8886682,6.3746651 2.8025171,6.3387174 2.7399012,6.3143403 2.4773929,6.2121393 2.2486347,6.1125674 2.0393571,6.0094123 1.6944983,5.8394274 1.7035671,5.6389551 2.0640902,5.4631273 2.1540369,5.4192599 2.2660568,5.3639725 2.313029,5.3402667 c 0.046977,-0.023706 0.101017,-0.043102 0.1201035,-0.043102 0.019081,0 0.063114,-0.019623 0.097833,-0.043607 0.034741,-0.023984 0.07673,-0.043664 0.093348,-0.043733 0.016644,-6.65e-5 0.075055,-0.021447 0.1298412,-0.047509 0.054786,-0.02606 0.1572447,-0.069987 0.2276901,-0.097614 0.07044,-0.027627 0.1352648,-0.055335 0.1440589,-0.061573 0.00881,-0.00624 0.060028,-0.027752 0.113845,-0.047808 0.1289706,-0.048063 0.2922871,-0.1193453 0.407361,-0.1778056 0.051125,-0.025981 0.1048903,-0.047271 0.1194346,-0.047308 0.014518,-4.98e-5 0.064861,-0.018068 0.1118229,-0.04007 0.046977,-0.022001 0.1855867,-0.082476 0.308065,-0.1343875 C 4.3089053,4.5038374 4.462593,4.4369277 4.5279621,4.407061 4.5933311,4.377194 4.6604166,4.352665 4.6770402,4.352552 4.6936842,4.3524355 4.7356682,4.332722 4.7703882,4.30874 4.8051282,4.284756 4.8512042,4.265133 4.872826,4.265133 4.894448,4.265133 4.942717,4.24657 4.9800962,4.223884 5.0174812,4.201197 5.0682902,4.176668 5.0930183,4.169375 5.1349143,4.157019 5.2567341,4.105718 5.5669665,3.969781 5.6366445,3.939248 5.7270734,3.903273 5.7679168,3.889835 5.8087758,3.876398 5.8721382,3.847415 5.9087505,3.82543 5.9453575,3.803445 5.9925165,3.785457 6.0135371,3.785457 c 0.021,0 0.065587,-0.019623 0.099026,-0.043607 0.033444,-0.023984 0.077995,-0.043607 0.099021,-0.043607 0.021,0 0.068807,-0.018561 0.1061865,-0.041249 0.037385,-0.022686 0.088495,-0.047216 0.113591,-0.054509 0.025096,-0.00729 0.1077211,-0.04038 0.1836005,-0.073526 0.3959688,-0.1729598 0.5162071,-0.2231787 0.5343603,-0.2231787 0.010993,0 0.052303,-0.019623 0.091819,-0.043607 0.039511,-0.023984 0.088987,-0.043607 0.1099406,-0.043607 0.020948,0 0.063772,-0.016673 0.095158,-0.037047 0.03137,-0.020375 0.1015511,-0.052468 0.1559329,-0.071315 0.054377,-0.018847 0.1234116,-0.046328 0.1534025,-0.061069 0.264406,-0.1299512 0.3791326,-0.1641188 0.5872695,-0.174903 0.1765956,-0.00915 0.2657023,0.01989 0.357189,0.1164095 0.057607,0.060775 0.059406,0.083025 0.059406,0.7338032 v 0.6711281 l 4.1509521,0.00382 c 3.590951,0.00331 4.157703,0.00669 4.20104,0.025059 0.02753,0.011681 0.07755,0.028052 0.111102,0.036383 0.03355,0.00833 0.09302,0.047833 0.132154,0.087782 l 0.07115,0.072635 0.008,1.052171 c 0.0089,1.1737619 0.0112,1.1576857 -0.176316,1.250512 -0.07133,0.035306 -0.13807,0.052475 -0.23596,0.060698 -0.07508,0.00631 -1.926344,0.011856 -4.113936,0.012332 L 8.9301902,6.997841 v 0.6395688 c 0,0.4166891 -0.0099,0.6395689 -0.028466,0.6395689 -0.015659,0 -0.028467,0.01414 -0.028467,0.031427 0,0.054801 -0.1333619,0.1530992 -0.2313922,0.1705522 -0.1100133,0.01958 -0.2382626,0.01894 -0.3520558,-0.0018 z"
       id="path375" /><rect
       style="fill:#dadada;stroke:#dadada;stroke-width:0.762953"
       id="rect429"
       width="17.082563"
       height="1.9513545"
       x="8.9782362"
       y="4.7871904"
       ry="0.13377224" /></g><g
     id="g486"
     transform="matrix(-1,0,0,1,32.316763,20.034407)"><path
       style="fill:#dadada;stroke:#dadada;stroke-width:0.0135869"
       d="M 8.2898001,8.4771619 C 8.2428227,8.4686069 8.1695203,8.4478659 8.1268725,8.4310719 7.9619486,8.3661129 7.7700464,8.2895155 7.5925019,8.2177811 7.4907538,8.1766733 7.3786872,8.1361472 7.3434646,8.1277271 c -0.035207,-0.00842 -0.064037,-0.020862 -0.064037,-0.027646 0,-0.00678 -0.062792,-0.032071 -0.1395426,-0.056189 -0.07675,-0.024119 -0.1467914,-0.053493 -0.1556425,-0.065276 -0.00887,-0.011782 -0.030748,-0.021424 -0.048637,-0.021424 -0.0294,0 -0.3168953,-0.1094349 -0.5621164,-0.2139589 C 6.3213377,7.7210046 6.2615478,7.6995474 6.2406154,7.6955502 6.2196674,7.6915524 6.1598931,7.670088 6.1077461,7.6478489 6.0555939,7.6256099 5.9104669,7.5688676 5.7852404,7.5217531 5.6600088,7.4746367 5.5319357,7.4234894 5.5006278,7.4080904 5.4693096,7.3926915 5.3892717,7.3626836 5.3227463,7.3414065 5.2562157,7.3201288 5.2017872,7.2973115 5.2017872,7.2907005 c 0,-0.00661 -0.028829,-0.018828 -0.064036,-0.027152 C 5.0794489,7.2497726 4.8856074,7.1744495 4.5925171,7.0516831 4.5313532,7.0260649 4.4660255,7.0018337 4.4473383,6.9978366 4.4286718,6.9938388 4.3755862,6.9721996 4.3294229,6.94975 4.2832751,6.9272989 4.2188341,6.9011357 4.1862611,6.8916076 4.1232927,6.8731894 3.6107722,6.6680629 3.4272907,6.5878461 3.3670549,6.5615103 3.2945043,6.535475 3.266069,6.5299893 3.2376544,6.524505 3.203671,6.5112642 3.190594,6.5005694 3.1775275,6.4898734 3.1312708,6.4695736 3.0878296,6.4554576 3.0443781,6.44134 2.9739431,6.4137877 2.9312901,6.3942271 2.8886682,6.3746651 2.8025171,6.3387174 2.7399012,6.3143403 2.4773929,6.2121393 2.2486347,6.1125674 2.0393571,6.0094123 1.6944983,5.8394274 1.7035671,5.6389551 2.0640902,5.4631273 2.1540369,5.4192599 2.2660568,5.3639725 2.313029,5.3402667 c 0.046977,-0.023706 0.101017,-0.043102 0.1201035,-0.043102 0.019081,0 0.063114,-0.019623 0.097833,-0.043607 0.034741,-0.023984 0.07673,-0.043664 0.093348,-0.043733 0.016644,-6.65e-5 0.075055,-0.021447 0.1298412,-0.047509 0.054786,-0.02606 0.1572447,-0.069987 0.2276901,-0.097614 0.07044,-0.027627 0.1352648,-0.055335 0.1440589,-0.061573 0.00881,-0.00624 0.060028,-0.027752 0.113845,-0.047808 0.1289706,-0.048063 0.2922871,-0.1193453 0.407361,-0.1778056 0.051125,-0.025981 0.1048903,-0.047271 0.1194346,-0.047308 0.014518,-4.98e-5 0.064861,-0.018068 0.1118229,-0.04007 0.046977,-0.022001 0.1855867,-0.082476 0.308065,-0.1343875 C 4.3089053,4.5038374 4.462593,4.4369277 4.5279621,4.407061 4.5933311,4.377194 4.6604166,4.352665 4.6770402,4.352552 4.6936842,4.3524355 4.7356682,4.332722 4.7703882,4.30874 4.8051282,4.284756 4.8512042,4.265133 4.872826,4.265133 4.894448,4.265133 4.942717,4.24657 4.9800962,4.223884 5.0174812,4.201197 5.0682902,4.176668 5.0930183,4.169375 5.1349143,4.157019 5.2567341,4.105718 5.5669665,3.969781 5.6366445,3.939248 5.7270734,3.903273 5.7679168,3.889835 5.8087758,3.876398 5.8721382,3.847415 5.9087505,3.82543 5.9453575,3.803445 5.9925165,3.785457 6.0135371,3.785457 c 0.021,0 0.065587,-0.019623 0.099026,-0.043607 0.033444,-0.023984 0.077995,-0.043607 0.099021,-0.043607 0.021,0 0.068807,-0.018561 0.1061865,-0.041249 0.037385,-0.022686 0.088495,-0.047216 0.113591,-0.054509 0.025096,-0.00729 0.1077211,-0.04038 0.1836005,-0.073526 0.3959688,-0.1729598 0.5162071,-0.2231787 0.5343603,-0.2231787 0.010993,0 0.052303,-0.019623 0.091819,-0.043607 0.039511,-0.023984 0.088987,-0.043607 0.1099406,-0.043607 0.020948,0 0.063772,-0.016673 0.095158,-0.037047 0.03137,-0.020375 0.1015511,-0.052468 0.1559329,-0.071315 0.054377,-0.018847 0.1234116,-0.046328 0.1534025,-0.061069 0.264406,-0.1299512 0.3791326,-0.1641188 0.5872695,-0.174903 0.1765956,-0.00915 0.2657023,0.01989 0.357189,0.1164095 0.057607,0.060775 0.059406,0.083025 0.059406,0.7338032 v 0.6711281 l 4.1509521,0.00382 c 3.590951,0.00331 4.157703,0.00669 4.20104,0.025059 0.02753,0.011681 0.07755,0.028052 0.111102,0.036383 0.03355,0.00833 0.09302,0.047833 0.132154,0.087782 l 0.07115,0.072635 0.008,1.052171 c 0.0089,1.1737619 0.0112,1.1576857 -0.176316,1.250512 -0.07133,0.035306 -0.13807,0.052475 -0.23596,0.060698 -0.07508,0.00631 -1.926344,0.011856 -4.113936,0.012332 L 8.9301902,6.997841 v 0.6395688 c 0,0.4166891 -0.0099,0.6395689 -0.028466,0.6395689 -0.015659,0 -0.028467,0.01414 -0.028467,0.031427 0,0.054801 -0.1333619,0.1530992 -0.2313922,0.1705522 -0.1100133,0.01958 -0.2382626,0.01894 -0.3520558,-0.0018 z"
       id="path482" /><rect
       style="fill:#dadada;stroke:#dadada;stroke-width:0.762953"
       id="rect484"
       width="17.082563"
       height="1.9513545"
       x="8.9782362"
       y="4.7871904"
       ry="0.13377224" /></g></svg>
