<?xml version="1.0" encoding="UTF-8"?>
<svg id="OBJECT" xmlns="http://www.w3.org/2000/svg" viewBox="0 0 32 32">
  <defs>
    <style>
      .cls-1 {
        fill: #FD4360;
      }

      .cls-1, .cls-2 {
        stroke-width: 0px;
      }

      .cls-2 {
        fill: #dadada;
      }
    </style>
  </defs>
  <path class="cls-1" d="m28.5,1h-11c-1.38,0-2.5,1.12-2.5,2.5v13.5c0,.41.25.78.63.93.12.05.25.07.37.07.27,0,.53-.11.72-.31l4.52-4.69h7.26c1.38,0,2.5-1.12,2.5-2.5V3.5c0-1.38-1.12-2.5-2.5-2.5Zm-9,3.25h5c.55,0,1,.45,1,1s-.45,1-1,1h-5c-.55,0-1-.45-1-1s.45-1,1-1Zm7,5.5h-7c-.55,0-1-.45-1-1s.45-1,1-1h7c.55,0,1,.45,1,1s-.45,1-1,1Z"/>
  <path class="cls-2" d="m24.27,23.67l-2.4-2.4c-1.29-1.29-3.4-1.29-4.69,0l-.69.69c-2.73-1.47-4.99-3.73-6.46-6.46l.69-.69c1.29-1.29,1.29-3.4,0-4.69l-2.4-2.4c-.94-.95-2.59-.95-3.54,0l-2.67,2.67c-1.24,1.24-1.48,3.21-.6,5.03,3.11,6.45,8.6,11.94,15.05,15.05.73.35,1.48.52,2.2.52,1.08,0,2.08-.38,2.83-1.13l2.67-2.67c.47-.47.73-1.1.73-1.77s-.26-1.3-.73-1.77Zm-1.41,2.12l-2.67,2.67c-.63.63-1.71.72-2.74.22-6.05-2.92-11.2-8.07-14.12-14.12-.5-1.04-.41-2.11.22-2.74l2.67-2.67c.13-.13.28-.15.35-.15s.23.02.35.15l2.4,2.4c.51.51.51,1.35,0,1.86l-1.21,1.2c-.3.3-.37.78-.18,1.16,1.75,3.61,4.7,6.56,8.33,8.32.38.18.84.1,1.14-.2l1.2-1.21c.51-.51,1.35-.51,1.86,0l2.4,2.4c.13.13.15.28.15.35s-.02.23-.15.35Z"/>
</svg>