<?xml version="1.0" encoding="UTF-8"?>
<svg id="OBJECT" xmlns="http://www.w3.org/2000/svg" viewBox="0 0 512 512">
  <defs>
    <style>
      .cls-1 {
        fill: #FD4360;
      }

      .cls-2 {
        fill: #dadada;
      }
    </style>
  </defs>
  <g>
    <path class="cls-2" d="M484.5,57h-42.5V22.5c0-12.41-10.09-22.5-22.5-22.5h-30c-12.41,0-22.5,10.09-22.5,22.5V57h-51.69c-9.7,0-18.28,6.18-21.35,15.38h0s-14.87,44.62-14.87,44.62h-94.09v-27.5c0-12.41-10.09-22.5-22.5-22.5H72.5c-12.41,0-22.5,10.09-22.5,22.5v27.5H27.5c-15.16,0-27.5,12.34-27.5,27.5V484.5c0,15.16,12.34,27.5,27.5,27.5H484.5c15.16,0,27.5-12.34,27.5-27.5V84.5c0-15.16-12.34-27.5-27.5-27.5Zm-102.5-34.5c0-4.14,3.36-7.5,7.5-7.5h30c4.14,0,7.5,3.36,7.5,7.5V57h-45V22.5ZM65,89.5c0-4.14,3.36-7.5,7.5-7.5h90c4.14,0,7.5,3.36,7.5,7.5v27.5H65v-27.5ZM15,202H52.5c4.14,0,7.5,3.36,7.5,7.5v210c0,4.14-3.36,7.5-7.5,7.5H15V202Zm0,282.5v-42.5H52.5c12.41,0,22.5-10.09,22.5-22.5V209.5c0-12.41-10.09-22.5-22.5-22.5H15v-42.5c0-6.89,5.61-12.5,12.5-12.5H404.5c4.14,0,7.5-3.36,7.5-7.5s-3.36-7.5-7.5-7.5h-109.59l13.29-39.87c1.02-3.07,3.88-5.13,7.12-5.13h169.19c6.89,0,12.5,5.61,12.5,12.5V357h-42.5c-15.16,0-27.5,12.34-27.5,27.5v112.5H27.5c-6.89,0-12.5-5.61-12.5-12.5Zm469.5,12.5h-42.5v-112.5c0-6.89,5.61-12.5,12.5-12.5h42.5v112.5c0,6.89-5.61,12.5-12.5,12.5Z"/>
    <path class="cls-2" d="M434.5,132h10c4.14,0,7.5-3.36,7.5-7.5s-3.36-7.5-7.5-7.5h-10c-4.14,0-7.5,3.36-7.5,7.5s3.36,7.5,7.5,7.5Z"/>
    <path class="cls-2" d="M429.5,202h30c12.41,0,22.5-10.09,22.5-22.5v-10c0-12.41-10.09-22.5-22.5-22.5h-30c-12.41,0-22.5,10.09-22.5,22.5v10c0,12.41,10.09,22.5,22.5,22.5Zm-7.5-32.5c0-4.14,3.36-7.5,7.5-7.5h30c4.14,0,7.5,3.36,7.5,7.5v10c0,4.14-3.36,7.5-7.5,7.5h-30c-4.14,0-7.5-3.36-7.5-7.5v-10Z"/>
    <path class="cls-2" d="M37.5,273.67c-4.14,0-7.5,3.36-7.5,7.5v10c0,4.14,3.36,7.5,7.5,7.5s7.5-3.36,7.5-7.5v-10c0-4.14-3.36-7.5-7.5-7.5Z"/>
    <path class="cls-2" d="M37.5,330.33c-4.14,0-7.5,3.36-7.5,7.5v10c0,4.14,3.36,7.5,7.5,7.5s7.5-3.36,7.5-7.5v-10c0-4.14-3.36-7.5-7.5-7.5Z"/>
    <path class="cls-2" d="M37.5,217c-4.14,0-7.5,3.36-7.5,7.5v10c0,4.14,3.36,7.5,7.5,7.5s7.5-3.36,7.5-7.5v-10c0-4.14-3.36-7.5-7.5-7.5Z"/>
    <path class="cls-2" d="M37.5,387c-4.14,0-7.5,3.36-7.5,7.5v10c0,4.14,3.36,7.5,7.5,7.5s7.5-3.36,7.5-7.5v-10c0-4.14-3.36-7.5-7.5-7.5Z"/>
    <path class="cls-2" d="M479.5,392h-20c-4.14,0-7.5,3.36-7.5,7.5s3.36,7.5,7.5,7.5h20c4.14,0,7.5-3.36,7.5-7.5s-3.36-7.5-7.5-7.5Z"/>
    <path class="cls-2" d="M479.5,427h-20c-4.14,0-7.5,3.36-7.5,7.5s3.36,7.5,7.5,7.5h20c4.14,0,7.5-3.36,7.5-7.5s-3.36-7.5-7.5-7.5Z"/>
    <path class="cls-2" d="M479.5,462h-20c-4.14,0-7.5,3.36-7.5,7.5s3.36,7.5,7.5,7.5h20c4.14,0,7.5-3.36,7.5-7.5s-3.36-7.5-7.5-7.5Z"/>
  </g>
  <g>
    <path class="cls-1" d="M256,252c-34.46,0-62.5,28.04-62.5,62.5s28.04,62.5,62.5,62.5,62.5-28.04,62.5-62.5-28.04-62.5-62.5-62.5Zm0,100c-20.68,0-37.5-16.82-37.5-37.5s16.82-37.5,37.5-37.5c4.14,0,7.5,3.36,7.5,7.5,0,12.41,10.09,22.5,22.5,22.5,4.14,0,7.5,3.36,7.5,7.5,0,20.68-16.82,37.5-37.5,37.5Z"/>
    <path class="cls-1" d="M249.46,292.97c-9.23,2.81-15.96,11.4-15.96,21.53,0,12.41,10.09,22.5,22.5,22.5,10.13,0,18.72-6.74,21.53-15.96-13.89-3.22-24.85-14.18-28.07-28.07Z"/>
    <path class="cls-1" d="M256,202c-62.03,0-112.5,50.47-112.5,112.5s50.47,112.5,112.5,112.5,112.5-50.47,112.5-112.5-50.47-112.5-112.5-112.5Zm0,190c-42.73,0-77.5-34.77-77.5-77.5s34.77-77.5,77.5-77.5,77.5,34.77,77.5,77.5-34.77,77.5-77.5,77.5Z"/>
    <path class="cls-1" d="M256,157c-86.85,0-157.5,70.65-157.5,157.5s70.65,157.5,157.5,157.5,157.5-70.65,157.5-157.5-70.65-157.5-157.5-157.5Zm0,285c-70.3,0-127.5-57.2-127.5-127.5s57.2-127.5,127.5-127.5,127.5,57.2,127.5,127.5-57.2,127.5-127.5,127.5Z"/>
  </g>
</svg>