<?xml version="1.0" encoding="UTF-8"?>
<svg id="OBJECT" xmlns="http://www.w3.org/2000/svg" viewBox="0 0 32 32">
  <defs>
    <style>
      .cls-1 {
        fill: #FD4360;
      }

      .cls-2 {
        fill: #dadada;
      }
    </style>
  </defs>
  <path class="cls-2" d="M30.54,10.16c-.28-.18-.64-.21-.95-.08l-7.59,3.38v-.96c0-1.38-1.12-2.5-2.5-2.5H10.5V6h11c.55,0,1-.45,1-1s-.45-1-1-1H2c-.55,0-1,.45-1,1s.45,1,1,1h2.5v4h-1c-1.38,0-2.5,1.12-2.5,2.5v13c0,1.38,1.12,2.5,2.5,2.5H19.5c1.38,0,2.5-1.12,2.5-2.5v-.96l7.59,3.38c.13,.06,.27,.09,.41,.09,.19,0,.38-.05,.54-.16,.28-.18,.46-.5,.46-.84V11c0-.34-.17-.65-.46-.84ZM6.5,6h2v4h-2V6Zm13.5,19.5c0,.28-.22,.5-.5,.5H3.5c-.28,0-.5-.22-.5-.5V12.5c0-.28,.22-.5,.5-.5H19.5c.28,0,.5,.22,.5,.5v13Zm9-.04l-7-3.11v-6.7l2.5-1.11v4.96c0,.55,.45,1,1,1s1-.45,1-1v-5.85l2.5-1.11v12.92Z"/>
  <path class="cls-1" d="M16,13.5H7c-1.38,0-2.5,1.12-2.5,2.5v6c0,1.38,1.12,2.5,2.5,2.5h9c1.38,0,2.5-1.12,2.5-2.5v-6c0-1.38-1.12-2.5-2.5-2.5Zm-5.5,6c0,.55-.45,1-1,1s-1-.45-1-1v-1c0-.55,.45-1,1-1s1,.45,1,1v1Zm4,0c0,.55-.45,1-1,1s-1-.45-1-1v-1c0-.55,.45-1,1-1s1,.45,1,1v1Z"/>
</svg>