<?xml version="1.0" encoding="UTF-8"?>
<svg id="OBJECT" xmlns="http://www.w3.org/2000/svg" viewBox="0 0 32 32">
  <defs>
    <style>
      .cls-1 {
        fill: #FD4360;
      }

      .cls-2 {
        fill: #dadada;
      }
    </style>
  </defs>
  <g>
    <path class="cls-2" d="M28,7h-4.28l-1.32-3.95c-.41-1.23-1.55-2.05-2.85-2.05h-7.12c-1.29,0-2.44,.82-2.85,2.05l-1.32,3.95H4c-1.65,0-3,1.35-3,3V28c0,1.65,1.35,3,3,3H28c1.65,0,3-1.35,3-3V10c0-1.65-1.35-3-3-3Zm1,21c0,.55-.45,1-1,1H4c-.55,0-1-.45-1-1V10c0-.55,.45-1,1-1h5c.43,0,.81-.28,.95-.68l1.54-4.63c.14-.41,.52-.68,.95-.68h7.12c.43,0,.81,.27,.95,.68l1.11,3.32h-3.63c-.55,0-1,.45-1,1s.45,1,1,1h10.02c.55,0,1,.45,1,1V28Z"/>
    <path class="cls-2" d="M17.5,5c0-.55-.45-1-1-1h-1c-.55,0-1,.45-1,1s.45,1,1,1h1c.55,0,1-.45,1-1Z"/>
    <path class="cls-2" d="M6.5,10h-1c-.55,0-1,.45-1,1s.45,1,1,1h1c.55,0,1-.45,1-1s-.45-1-1-1Z"/>
  </g>
  <g>
    <path class="cls-1" d="M16,10.5c-4.69,0-8.5,3.81-8.5,8.5s3.81,8.5,8.5,8.5,8.5-3.81,8.5-8.5-3.81-8.5-8.5-8.5Zm0,15c-3.58,0-6.5-2.92-6.5-6.5s2.92-6.5,6.5-6.5,6.5,2.92,6.5,6.5-2.92,6.5-6.5,6.5Z"/>
    <path class="cls-1" d="M20.97,18.68c-.03-.4-.29-.74-.66-.87-1.12-.4-1.88-1.43-1.96-2.62-.03-.4-.28-.74-.66-.88-3.4-1.24-6.7,1.37-6.7,4.69,0,2.76,2.24,5,5,5s5-2.24,5-5c0-.1,0-.19-.03-.32Z"/>
  </g>
</svg>