<?xml version="1.0" encoding="UTF-8"?>
<svg id="OBJECT" xmlns="http://www.w3.org/2000/svg" viewBox="0 0 512 512">
  <defs>
    <style>
      .cls-1 {
        fill: #FD4360;
      }

      .cls-2 {
        fill: #dadada;
      }
    </style>
  </defs>
  <g>
    <path class="cls-2" d="M384.5,238.5c15.16,0,27.5-12.34,27.5-27.5v-62.5h2.5c8.91,0,16.26-6.69,17.35-15.31,17.15,6.42,39.15,10.31,47.65,10.31,17.92,0,32.5-14.58,32.5-32.5s-14.58-32.5-32.5-32.5c-8.5,0-30.5,3.89-47.65,10.31-1.08-8.62-8.44-15.31-17.35-15.31h-20c-8.91,0-16.26,6.69-17.35,15.31-17.15-6.42-39.15-10.31-47.65-10.31-17.92,0-32.5,14.58-32.5,32.5s14.58,32.5,32.5,32.5c8.5,0,30.5-3.89,47.65-10.31,1.08,8.62,8.44,15.31,17.35,15.31h2.5v62.5c0,6.89-5.61,12.5-12.5,12.5h-16v-12.5c0-9.65-7.85-17.5-17.5-17.5h-47.5v-17.5c0-12.41-10.09-22.5-22.5-22.5h-50c-12.41,0-22.5,10.09-22.5,22.5v17.5h-47.5c-9.65,0-17.5,7.85-17.5,17.5v12.5h-16c-6.89,0-12.5-5.61-12.5-12.5v-62.5h2.5c8.91,0,16.26-6.69,17.35-15.31,17.15,6.42,39.15,10.31,47.65,10.31,17.92,0,32.5-14.58,32.5-32.5s-14.58-32.5-32.5-32.5c-8.5,0-30.5,3.89-47.65,10.31-1.08-8.62-8.44-15.31-17.35-15.31h-20c-8.91,0-16.26,6.69-17.35,15.31-17.15-6.42-39.15-10.31-47.65-10.31C14.58,78.5,0,93.08,0,111s14.58,32.5,32.5,32.5c8.5,0,30.5-3.89,47.65-10.31,1.08,8.62,8.44,15.31,17.35,15.31h2.5v62.5c0,15.16,12.34,27.5,27.5,27.5h16v15.6l-103.95,8.67c-9,.75-16.05,8.41-16.05,17.43v10.8c0,9.65,7.85,17.5,17.5,17.5h22.5v27.5c0,12.41,10.09,22.5,22.5,22.5h10c12.41,0,22.5-10.09,22.5-22.5v-27.5h45.05c4.14,0,7.5-3.36,7.5-7.5s-3.36-7.5-7.5-7.5h-5.05v-82.5c0-1.38,1.12-2.5,2.5-2.5h190c1.38,0,2.5,1.12,2.5,2.5v82.5h-5.05c-4.14,0-7.5,3.36-7.5,7.5s3.36,7.5,7.5,7.5h45.05v27.5c0,12.41,10.09,22.5,22.5,22.5h10c12.41,0,22.5-10.09,22.5-22.5v-27.5h22.5c9.65,0,17.5-7.85,17.5-17.5v-10.8c0-9.03-7.05-16.69-16.05-17.43l-103.95-8.67v-15.6h16Zm112.5-127.5c0,9.65-7.85,17.5-17.5,17.5-8.36,0-32.5-4.72-47.5-11.44v-12.13c15-6.71,39.14-11.44,47.5-11.44,9.65,0,17.5,7.85,17.5,17.5Zm-185,0c0-9.65,7.85-17.5,17.5-17.5,8.36,0,32.5,4.72,47.5,11.44v12.13c-15,6.71-39.14,11.44-47.5,11.44-9.65,0-17.5-7.85-17.5-17.5Zm80,20v-40c0-1.38,1.12-2.5,2.5-2.5h20c1.38,0,2.5,1.12,2.5,2.5v40c0,1.38-1.12,2.5-2.5,2.5h-20c-1.38,0-2.5-1.12-2.5-2.5Zm-192-20c0,9.65-7.85,17.5-17.5,17.5-8.36,0-32.5-4.72-47.5-11.44v-12.13c15-6.71,39.14-11.44,47.5-11.44,9.65,0,17.5,7.85,17.5,17.5Zm-185,0c0-9.65,7.85-17.5,17.5-17.5,8.36,0,32.5,4.72,47.5,11.44v12.13c-15,6.71-39.14,11.44-47.5,11.44-9.65,0-17.5-7.85-17.5-17.5Zm80,20v-40c0-1.38,1.12-2.5,2.5-2.5h20c1.38,0,2.5,1.12,2.5,2.5v40c0,1.38-1.12,2.5-2.5,2.5h-20c-1.38,0-2.5-1.12-2.5-2.5Zm8.5,205c0,4.14-3.36,7.5-7.5,7.5h-10c-4.14,0-7.5-3.36-7.5-7.5v-27.5h25v27.5Zm-62.5-42.5c-1.38,0-2.5-1.12-2.5-2.5v-10.8c0-1.29,1.01-2.38,2.29-2.49l102.71-8.56v24.35H41Zm182.5-117.5c0-4.14,3.36-7.5,7.5-7.5h50c4.14,0,7.5,3.36,7.5,7.5v17.5h-65v-17.5Zm210,160c0,4.14-3.36,7.5-7.5,7.5h-10c-4.14,0-7.5-3.36-7.5-7.5v-27.5h25v27.5Zm37.71-58.29c1.28,.11,2.29,1.2,2.29,2.49v10.8c0,1.38-1.12,2.5-2.5,2.5h-102.5v-24.35l102.71,8.56Z"/>
    <path class="cls-2" d="M211,223.5h-10c-4.14,0-7.5,3.36-7.5,7.5s3.36,7.5,7.5,7.5h10c4.14,0,7.5-3.36,7.5-7.5s-3.36-7.5-7.5-7.5Z"/>
    <path class="cls-2" d="M261,223.5h-10c-4.14,0-7.5,3.36-7.5,7.5s3.36,7.5,7.5,7.5h10c4.14,0,7.5-3.36,7.5-7.5s-3.36-7.5-7.5-7.5Z"/>
    <path class="cls-2" d="M311,223.5h-10c-4.14,0-7.5,3.36-7.5,7.5s3.36,7.5,7.5,7.5h10c4.14,0,7.5-3.36,7.5-7.5s-3.36-7.5-7.5-7.5Z"/>
  </g>
  <g>
    <path class="cls-1" d="M256,303.5c-26.19,0-47.5,21.31-47.5,47.5s21.31,47.5,47.5,47.5,47.5-21.31,47.5-47.5-21.31-47.5-47.5-47.5Zm31.99,53.23c-2.76,15.51-16.22,26.77-31.99,26.77-17.92,0-32.5-14.58-32.5-32.5s14.58-32.5,32.5-32.5c2.34,0,4.7,.26,7.01,.77,3.93,.87,6.48,4.68,5.77,8.64-.19,1.04-.28,2.08-.28,3.09,0,8.15,5.77,15.34,13.72,17.09,3.93,.86,6.48,4.68,5.77,8.64Z"/>
    <path class="cls-1" d="M253.61,333.66c-8.52,1.17-15.11,8.5-15.11,17.34,0,9.65,7.85,17.5,17.5,17.5,6.37,0,12.04-3.41,15.1-8.63-9.78-5.09-16.55-15-17.49-26.2Z"/>
    <path class="cls-1" d="M256,263.5c-48.25,0-87.5,39.25-87.5,87.5s39.25,87.5,87.5,87.5,87.5-39.25,87.5-87.5-39.25-87.5-87.5-87.5Zm0,150c-34.46,0-62.5-28.04-62.5-62.5s28.04-62.5,62.5-62.5,62.5,28.04,62.5,62.5-28.04,62.5-62.5,62.5Z"/>
  </g>
</svg>