<?xml version="1.0" encoding="UTF-8"?>
<svg id="OBJECT" xmlns="http://www.w3.org/2000/svg" viewBox="0 0 512 512">
  <defs>
    <style>
      .cls-1 {
        fill: #FD4360;
      }

      .cls-2 {
        fill: #dadada;
      }
    </style>
  </defs>
  <g>
    <path class="cls-2" d="M211,37h-33c-3.31,0-6.23,2.17-7.18,5.34l-4.82,16.05-4.82-16.05c-.95-3.17-3.87-5.34-7.18-5.34H81c-2.31,0-4.49,1.06-5.91,2.88s-1.92,4.19-1.36,6.43l27.82,111.28c-7.49,1.98-13.04,8.8-13.04,16.9v20c0,9.65,7.85,17.5,17.5,17.5h7.75l9.76,292.75c.13,4.04,3.45,7.25,7.5,7.25h30c4.04,0,7.36-3.21,7.5-7.25l9.76-292.75h7.75c9.65,0,17.5-7.85,17.5-17.5v-20c0-8.11-5.55-14.92-13.04-16.9l27.82-111.28c.56-2.24,.06-4.61-1.36-6.43s-3.6-2.88-5.91-2.88Zm-57.25,460h-15.49l-4.17-125h23.82l-4.17,125Zm4.67-140h-24.82l-4.83-145h34.49l-4.83,145Zm30.09-162.5c0,1.38-1.12,2.5-2.5,2.5H106c-1.38,0-2.5-1.12-2.5-2.5v-20c0-1.38,1.12-2.5,2.5-2.5h80c1.38,0,2.5,1.12,2.5,2.5v20Zm-13.36-37.5h-58.29l-26.25-105h57.81l10.4,34.66c.95,3.17,3.87,5.34,7.18,5.34s6.23-2.17,7.18-5.34l10.4-34.66h17.81l-26.25,105Z"/>
    <path class="cls-2" d="M121.9,84.4c4.02-1,6.46-5.08,5.46-9.09l-.66-2.62c-1-4.02-5.08-6.46-9.09-5.46-4.02,1-6.46,5.08-5.46,9.09l.66,2.62c.85,3.41,3.91,5.68,7.27,5.68,.6,0,1.21-.07,1.82-.23Z"/>
    <path class="cls-2" d="M133.36,99.34c-1-4.02-5.08-6.46-9.09-5.46-4.02,1-6.46,5.08-5.46,9.1l8.34,33.34c.85,3.41,3.91,5.68,7.27,5.68,.6,0,1.21-.07,1.82-.23,4.02-1,6.46-5.08,5.46-9.1l-8.34-33.34Z"/>
    <path class="cls-2" d="M368.87,202.69c-2.3-.71-4.62-1.33-6.96-1.91l-8-184.04c-.41-9.39-8.09-16.74-17.48-16.74h-10.85c-9.4,0-17.08,7.35-17.48,16.74l-8,184.05c-2.34,.58-4.66,1.2-6.97,1.91-2.77,.86-5.24,2.61-6.96,4.94-1.74,2.36-2.67,5.17-2.67,8.1v31.98c0,4.14,3.36,7.5,7.5,7.5s7.5-3.36,7.5-7.5v-30.98c10.54-3.14,21.46-4.74,32.5-4.74s21.97,1.6,32.5,4.74v30.98c0,4.14,3.36,7.5,7.5,7.5s7.5-3.36,7.5-7.5v-31.98c0-6.02-3.87-11.26-9.63-13.05ZM323.08,17.39c.06-1.34,1.16-2.39,2.5-2.39h10.85c1.34,0,2.44,1.05,2.5,2.39l.98,22.61h-17.81l.98-22.61Zm7.92,179.61c-5.29,0-10.55,.34-15.77,.99l6.22-142.99h19.12l6.22,142.99c-5.22-.64-10.49-.99-15.77-.99Z"/>
  </g>
  <g>
    <path class="cls-1" d="M421.2,327.6c-9.05-22.46-20.45-42.25-32.91-57.38h-23.58c11.81,50.32,18.79,121.24,18.79,164.11,0,23.85-2.02,46.74-5.75,66.97,35.92-17.42,60.75-54.26,60.75-96.79,0-21.59-6.31-49.62-17.3-76.9Z"/>
    <path class="cls-1" d="M297.29,270.22h-23.58c-12.46,15.14-23.86,34.93-32.91,57.38-11,27.28-17.3,55.3-17.3,76.9,0,42.53,24.83,79.37,60.75,96.79-3.74-20.23-5.75-43.12-5.75-66.97,0-42.87,6.98-113.78,18.79-164.11Z"/>
    <path class="cls-1" d="M312.71,270.22c-12.06,49.33-19.21,121.1-19.21,164.11,0,26.34,2.65,51.93,7.4,73.38,9.56,2.79,19.65,4.29,30.1,4.29s20.54-1.5,30.1-4.29c4.75-21.45,7.4-47.04,7.4-73.38,0-43.01-7.16-114.77-19.21-164.11h-36.57Z"/>
  </g>
</svg>