<?xml version="1.0" encoding="UTF-8"?>
<svg id="OBJECT" xmlns="http://www.w3.org/2000/svg" viewBox="0 0 512 512">
  <defs>
    <style>
      .cls-1 {
        fill: #FD4360;
      }

      .cls-2 {
        fill: #dadada;
      }
    </style>
  </defs>
  <g>
    <path class="cls-2" d="M40,317.5v20c0,9.65,7.85,17.5,17.5,17.5H246c9.65,0,17.5-7.85,17.5-17.5v-20c0-9.65-7.85-17.5-17.5-17.5H57.5c-9.65,0-17.5,7.85-17.5,17.5Zm208.5,0v20c0,1.38-1.12,2.5-2.5,2.5H57.5c-1.38,0-2.5-1.12-2.5-2.5v-20c0-1.38,1.12-2.5,2.5-2.5H246c1.38,0,2.5,1.12,2.5,2.5Z"/>
    <path class="cls-2" d="M384.5,355h20c9.65,0,17.5-7.85,17.5-17.5v-20c0-9.65-7.85-17.5-17.5-17.5h-20c-9.65,0-17.5,7.85-17.5,17.5v20c0,9.65,7.85,17.5,17.5,17.5Zm-2.5-37.5c0-1.38,1.12-2.5,2.5-2.5h20c1.38,0,2.5,1.12,2.5,2.5v20c0,1.38-1.12,2.5-2.5,2.5h-20c-1.38,0-2.5-1.12-2.5-2.5v-20Z"/>
    <path class="cls-2" d="M304.5,355h20c9.65,0,17.5-7.85,17.5-17.5v-20c0-9.65-7.85-17.5-17.5-17.5h-20c-9.65,0-17.5,7.85-17.5,17.5v20c0,9.65,7.85,17.5,17.5,17.5Zm-2.5-37.5c0-1.38,1.12-2.5,2.5-2.5h20c1.38,0,2.5,1.12,2.5,2.5v20c0,1.38-1.12,2.5-2.5,2.5h-20c-1.38,0-2.5-1.12-2.5-2.5v-20Z"/>
    <path class="cls-2" d="M62.5,165h70c12.41,0,22.5-10.09,22.5-22.5v-30c0-12.41-10.09-22.5-22.5-22.5H62.5c-12.41,0-22.5,10.09-22.5,22.5v30c0,12.41,10.09,22.5,22.5,22.5Zm-7.5-52.5c0-4.14,3.36-7.5,7.5-7.5h70c4.14,0,7.5,3.36,7.5,7.5v30c0,4.14-3.36,7.5-7.5,7.5H62.5c-4.14,0-7.5-3.36-7.5-7.5v-30Z"/>
    <path class="cls-2" d="M40,242.5c0,12.41,10.09,22.5,22.5,22.5h70c12.41,0,22.5-10.09,22.5-22.5v-30c0-12.41-10.09-22.5-22.5-22.5H62.5c-12.41,0-22.5,10.09-22.5,22.5v30Zm15-30c0-4.14,3.36-7.5,7.5-7.5h70c4.14,0,7.5,3.36,7.5,7.5v30c0,4.14-3.36,7.5-7.5,7.5H62.5c-4.14,0-7.5-3.36-7.5-7.5v-30Z"/>
    <path class="cls-2" d="M454.5,290c-4.14,0-7.5,3.36-7.5,7.5v70c0,6.89-5.61,12.5-12.5,12.5H27.5c-6.89,0-12.5-5.61-12.5-12.5V77.5c0-6.89,5.61-12.5,12.5-12.5H214.5c4.14,0,7.5-3.36,7.5-7.5s-3.36-7.5-7.5-7.5H125V22.5c0-12.41-10.09-22.5-22.5-22.5h-30c-12.41,0-22.5,10.09-22.5,22.5v27.5H27.5C12.34,50,0,62.34,0,77.5V367.5c0,15.16,12.34,27.5,27.5,27.5H95.92l14.34,35.86c3.44,8.59,11.64,14.14,20.89,14.14h62.34v22h-37.5c-12.41,0-22.5,10.09-22.5,22.5v15c0,4.14,3.36,7.5,7.5,7.5h180c4.14,0,7.5-3.36,7.5-7.5v-15c0-12.41-10.09-22.5-22.5-22.5h-37.5v-22h62.34c9.25,0,17.45-5.55,20.89-14.14l14.34-35.86h68.42c15.16,0,27.5-12.34,27.5-27.5v-70c0-4.14-3.36-7.5-7.5-7.5ZM65,22.5c0-4.14,3.36-7.5,7.5-7.5h30c4.14,0,7.5,3.36,7.5,7.5v27.5h-45V22.5Zm83.5,467c0-4.14,3.36-7.5,7.5-7.5h37.5v15h-45v-7.5Zm157.5-7.5c4.14,0,7.5,3.36,7.5,7.5v7.5h-45v-15h37.5Zm-52.5,15h-45v-52h45v52Zm84.31-71.71c-1.15,2.86-3.88,4.71-6.96,4.71H131.16c-3.08,0-5.82-1.85-6.96-4.71l-12.11-30.29h237.84l-12.11,30.29Z"/>
  </g>
  <g>
    <path class="cls-1" d="M380.56,105.56c-1.99-.38-4.02-.56-6.06-.56-17.92,0-32.5,14.58-32.5,32.5s14.58,32.5,32.5,32.5,32.5-14.58,32.5-32.5c0-2.04-.19-4.07-.57-6.06-11.74-4.82-21.06-14.13-25.88-25.88Z"/>
    <path class="cls-1" d="M374.5,75c-34.46,0-62.5,28.04-62.5,62.5s28.04,62.5,62.5,62.5,62.5-28.04,62.5-62.5-28.04-62.5-62.5-62.5Zm47.5,62.5c0,26.19-21.31,47.5-47.5,47.5s-47.5-21.31-47.5-47.5,21.31-47.5,47.5-47.5c4.75,0,9.45,.7,13.96,2.09,2.38,.73,4.24,2.59,4.97,4.97,3.17,10.31,11.21,18.35,21.51,21.51,2.38,.73,4.24,2.59,4.97,4.97,1.39,4.52,2.09,9.21,2.09,13.96Z"/>
    <path class="cls-1" d="M451.5,35h-154c-14.06,0-25.5,11.44-25.5,25.5V214.5c0,14.06,11.44,25.5,25.5,25.5h154c14.06,0,25.5-11.44,25.5-25.5V60.5c0-14.06-11.44-25.5-25.5-25.5Zm-77,180c-42.73,0-77.5-34.77-77.5-77.5s34.77-77.5,77.5-77.5,77.5,34.77,77.5,77.5-34.77,77.5-77.5,77.5Z"/>
    <path class="cls-1" d="M484.5,0h-220c-15.16,0-27.5,12.34-27.5,27.5V247.5c0,15.16,12.34,27.5,27.5,27.5h220c15.16,0,27.5-12.34,27.5-27.5V27.5c0-15.16-12.34-27.5-27.5-27.5Zm7.5,214.5c0,22.33-18.17,40.5-40.5,40.5h-154c-22.33,0-40.5-18.17-40.5-40.5V60.5c0-22.33,18.17-40.5,40.5-40.5h154c22.33,0,40.5,18.17,40.5,40.5V214.5Z"/>
  </g>
</svg>