<?xml version="1.0" encoding="UTF-8"?>
<svg id="OBJECT" xmlns="http://www.w3.org/2000/svg" viewBox="0 0 512 512">
  <defs>
    <style>
      .cls-1 {
        fill: #FD4360;
      }

      .cls-2 {
        fill: #dadada;
      }
    </style>
  </defs>
  <g>
    <path class="cls-2" d="M211,435h90c4.14,0,7.5-3.36,7.5-7.5s-3.36-7.5-7.5-7.5h-90c-4.14,0-7.5,3.36-7.5,7.5s3.36,7.5,7.5,7.5Z"/>
    <path class="cls-2" d="M176,435h10c4.14,0,7.5-3.36,7.5-7.5s-3.36-7.5-7.5-7.5h-10c-4.14,0-7.5,3.36-7.5,7.5s3.36,7.5,7.5,7.5Z"/>
    <path class="cls-2" d="M326,435h10c4.14,0,7.5-3.36,7.5-7.5s-3.36-7.5-7.5-7.5h-10c-4.14,0-7.5,3.36-7.5,7.5s3.36,7.5,7.5,7.5Z"/>
    <path class="cls-2" d="M230.88,200h50c9.65,0,17.5-7.85,17.5-17.5v-10c0-9.65-7.85-17.5-17.5-17.5h-50c-9.65,0-17.5,7.85-17.5,17.5v10c0,9.65,7.85,17.5,17.5,17.5Zm-2.5-27.5c0-1.38,1.12-2.5,2.5-2.5h50c1.38,0,2.5,1.12,2.5,2.5v10c0,1.38-1.12,2.5-2.5,2.5h-50c-1.38,0-2.5-1.12-2.5-2.5v-10Z"/>
    <path class="cls-2" d="M176,200h10c9.65,0,17.5-7.85,17.5-17.5v-10c0-9.65-7.85-17.5-17.5-17.5h-10c-9.65,0-17.5,7.85-17.5,17.5v10c0,9.65,7.85,17.5,17.5,17.5Zm-2.5-27.5c0-1.38,1.12-2.5,2.5-2.5h10c1.38,0,2.5,1.12,2.5,2.5v10c0,1.38-1.12,2.5-2.5,2.5h-10c-1.38,0-2.5-1.12-2.5-2.5v-10Z"/>
    <path class="cls-2" d="M326,200h10c9.65,0,17.5-7.85,17.5-17.5v-10c0-9.65-7.85-17.5-17.5-17.5h-10c-9.65,0-17.5,7.85-17.5,17.5v10c0,9.65,7.85,17.5,17.5,17.5Zm-2.5-27.5c0-1.38,1.12-2.5,2.5-2.5h10c1.38,0,2.5,1.12,2.5,2.5v10c0,1.38-1.12,2.5-2.5,2.5h-10c-1.38,0-2.5-1.12-2.5-2.5v-10Z"/>
    <path class="cls-2" d="M307.43,280c-4.14,0-7.5,3.36-7.5,7.5v80c0,4.14,3.36,7.5,7.5,7.5s7.5-3.36,7.5-7.5v-80c0-4.14-3.36-7.5-7.5-7.5Z"/>
    <path class="cls-2" d="M307.43,250c-4.14,0-7.5,3.36-7.5,7.5v5c0,4.14,3.36,7.5,7.5,7.5s7.5-3.36,7.5-7.5v-5c0-4.14-3.36-7.5-7.5-7.5Z"/>
    <path class="cls-2" d="M273.14,250c-4.14,0-7.5,3.36-7.5,7.5v80c0,4.14,3.36,7.5,7.5,7.5s7.5-3.36,7.5-7.5v-80c0-4.14-3.36-7.5-7.5-7.5Z"/>
    <path class="cls-2" d="M273.14,355c-4.14,0-7.5,3.36-7.5,7.5v5c0,4.14,3.36,7.5,7.5,7.5s7.5-3.36,7.5-7.5v-5c0-4.14-3.36-7.5-7.5-7.5Z"/>
    <path class="cls-2" d="M238.86,280c-4.14,0-7.5,3.36-7.5,7.5v80c0,4.14,3.36,7.5,7.5,7.5s7.5-3.36,7.5-7.5v-80c0-4.14-3.36-7.5-7.5-7.5Z"/>
    <path class="cls-2" d="M238.86,250c-4.14,0-7.5,3.36-7.5,7.5v5c0,4.14,3.36,7.5,7.5,7.5s7.5-3.36,7.5-7.5v-5c0-4.14-3.36-7.5-7.5-7.5Z"/>
    <path class="cls-2" d="M204.57,250c-4.14,0-7.5,3.36-7.5,7.5v80c0,4.14,3.36,7.5,7.5,7.5s7.5-3.36,7.5-7.5v-80c0-4.14-3.36-7.5-7.5-7.5Z"/>
    <path class="cls-2" d="M204.57,355c-4.14,0-7.5,3.36-7.5,7.5v5c0,4.14,3.36,7.5,7.5,7.5s7.5-3.36,7.5-7.5v-5c0-4.14-3.36-7.5-7.5-7.5Z"/>
    <path class="cls-2" d="M376,280c-4.14,0-7.5,3.36-7.5,7.5v80c0,4.14,3.36,7.5,7.5,7.5s7.5-3.36,7.5-7.5v-80c0-4.14-3.36-7.5-7.5-7.5Z"/>
    <path class="cls-2" d="M376,250c-4.14,0-7.5,3.36-7.5,7.5v5c0,4.14,3.36,7.5,7.5,7.5s7.5-3.36,7.5-7.5v-5c0-4.14-3.36-7.5-7.5-7.5Z"/>
    <path class="cls-2" d="M341.71,250c-4.14,0-7.5,3.36-7.5,7.5v80c0,4.14,3.36,7.5,7.5,7.5s7.5-3.36,7.5-7.5v-80c0-4.14-3.36-7.5-7.5-7.5Z"/>
    <path class="cls-2" d="M341.71,355c-4.14,0-7.5,3.36-7.5,7.5v5c0,4.14,3.36,7.5,7.5,7.5s7.5-3.36,7.5-7.5v-5c0-4.14-3.36-7.5-7.5-7.5Z"/>
    <path class="cls-2" d="M170.29,280c-4.14,0-7.5,3.36-7.5,7.5v80c0,4.14,3.36,7.5,7.5,7.5s7.5-3.36,7.5-7.5v-80c0-4.14-3.36-7.5-7.5-7.5Z"/>
    <path class="cls-2" d="M170.29,250c-4.14,0-7.5,3.36-7.5,7.5v5c0,4.14,3.36,7.5,7.5,7.5s7.5-3.36,7.5-7.5v-5c0-4.14-3.36-7.5-7.5-7.5Z"/>
    <path class="cls-2" d="M136,250c-4.14,0-7.5,3.36-7.5,7.5v80c0,4.14,3.36,7.5,7.5,7.5s7.5-3.36,7.5-7.5v-80c0-4.14-3.36-7.5-7.5-7.5Z"/>
    <path class="cls-2" d="M136,355c-4.14,0-7.5,3.36-7.5,7.5v5c0,4.14,3.36,7.5,7.5,7.5s7.5-3.36,7.5-7.5v-5c0-4.14-3.36-7.5-7.5-7.5Z"/>
    <path class="cls-2" d="M421,390h-7.5V235h7.5c4.14,0,7.5-3.36,7.5-7.5s-3.36-7.5-7.5-7.5h-37.62v-77.5c0-4.14-3.36-7.5-7.5-7.5s-7.5,3.36-7.5,7.5v77.5H143.38v-77.5c0-4.14-3.36-7.5-7.5-7.5s-7.5,3.36-7.5,7.5v77.5h-37.38c-4.14,0-7.5,3.36-7.5,7.5s3.36,7.5,7.5,7.5h7.5v155h-7.5c-4.14,0-7.5,3.36-7.5,7.5s3.36,7.5,7.5,7.5h47.5v52.5c0,4.14,3.36,7.5,7.5,7.5h12.5v24.5c0,12.41,10.09,22.5,22.5,22.5h150c12.41,0,22.5-10.09,22.5-22.5v-24.5h12.5c4.14,0,7.5-3.36,7.5-7.5v-52.5h47.5c4.14,0,7.5-3.36,7.5-7.5s-3.36-7.5-7.5-7.5ZM113.5,235H398.5v155H113.5V235Zm60,254.5v-24.5h25v32h-17.5c-4.14,0-7.5-3.36-7.5-7.5Zm125-24.5v32h-35v-32h35Zm-50,32h-35v-32h35v32Zm90-7.5c0,4.14-3.36,7.5-7.5,7.5h-17.5v-32h25v24.5Zm20-39.5H153.5v-45h205v45Z"/>
  </g>
  <g>
    <path class="cls-1" d="M431,0h-50c-2.84,0-5.44,1.6-6.71,4.15l-17.93,35.85h24.32c4.11,0,7.69,3.16,7.81,7.27,.13,4.25-3.28,7.73-7.5,7.73h-89.69c-4.11,0-7.69-3.16-7.81-7.27-.13-4.25,3.28-7.73,7.5-7.73h24.63l-17.93-35.85c-1.27-2.54-3.87-4.15-6.71-4.15h-70c-2.84,0-5.44,1.6-6.71,4.15l-17.93,35.85h24.32c4.11,0,7.69,3.16,7.81,7.27,.13,4.25-3.28,7.73-7.5,7.73h-89.69c-4.11,0-7.69-3.16-7.81-7.27-.13-4.25,3.28-7.73,7.5-7.73h24.64L137.71,4.15c-1.27-2.54-3.87-4.15-6.71-4.15h-50c-4.14,0-7.5,3.36-7.5,7.5V87.5c0,1.16,.27,2.31,.79,3.35l9.05,18.09c3.39,6.78,10.31,11.06,17.89,11.06h82.27v-27.5c0-12.43,10.07-22.5,22.5-22.5h100c12.43,0,22.5,10.07,22.5,22.5v27.5h82.27c7.58,0,14.5-4.28,17.89-11.06l9.05-18.09c.52-1.04,.79-2.19,.79-3.35V7.5c0-4.14-3.36-7.5-7.5-7.5Z"/>
    <path class="cls-1" d="M306,85h-100c-4.14,0-7.5,3.36-7.5,7.5v27.5h115v-27.5c0-4.14-3.36-7.5-7.5-7.5Zm-35,25h-30c-4.14,0-7.5-3.36-7.5-7.5s3.36-7.5,7.5-7.5h30c4.14,0,7.5,3.36,7.5,7.5s-3.36,7.5-7.5,7.5Z"/>
  </g>
</svg>