<?xml version="1.0" encoding="UTF-8"?>
<svg id="OBJECT" xmlns="http://www.w3.org/2000/svg" viewBox="0 0 32 32">
  <defs>
    <style>
      .cls-1 {
        fill: #FD4360;
      }

      .cls-1, .cls-2 {
        stroke-width: 0px;
      }

      .cls-2 {
        fill: #dadada;
      }
    </style>
  </defs>
  <path class="cls-2" d="m26.88,10.01c-.39-1.99-1.93-3.51-3.88-3.91v-1.11c0-2.21-1.79-4-4-4-1.19,0-2.27.53-3,1.36-.73-.83-1.81-1.36-3-1.36-2.21,0-4,1.79-4,4v1.11c-1.95.39-3.49,1.91-3.88,3.91-2.52,1.4-4.12,4.09-4.12,6.99s1.6,5.58,4.12,6.99c.4,2.03,1.98,3.58,3.99,3.93.42,1.76,2,3.08,3.89,3.08,1.19,0,2.27-.53,3-1.36.73.83,1.81,1.36,3,1.36,1.89,0,3.48-1.32,3.89-3.08,2.01-.36,3.59-1.9,3.99-3.93,2.52-1.4,4.12-4.09,4.12-6.99s-1.6-5.58-4.12-6.99Zm-1.34,12.42c-.32.15-.54.47-.57.82-.13,1.57-1.41,2.75-2.97,2.75-.55,0-1,.45-1,1,0,1.1-.9,2-2,2s-2-.9-2-2c0-.55-.45-1-1-1s-1,.45-1,1c0,1.1-.9,2-2,2s-2-.9-2-2c0-.55-.45-1-1-1-1.56,0-2.84-1.18-2.97-2.75-.03-.36-.25-.67-.57-.82-2.1-.99-3.46-3.12-3.46-5.43s1.36-4.44,3.46-5.43c.32-.15.54-.47.57-.82.1-1.21.89-2.19,1.97-2.57v1.82c0,.55.45,1,1,1s1-.45,1-1v-5c0-1.1.9-2,2-2s2,.9,2,2v3c0,.55.45,1,1,1s1-.45,1-1v-3c0-1.1.9-2,2-2s2,.9,2,2v5c0,.55.45,1,1,1s1-.45,1-1v-1.82c1.08.38,1.87,1.36,1.97,2.57.03.36.25.67.57.82,2.1.99,3.46,3.12,3.46,5.43s-1.36,4.44-3.46,5.43Z"/>
  <path class="cls-1" d="m23,18c0-3.86-3.14-7-7-7s-7,3.14-7,7,3.14,7,7,7,7-3.14,7-7Zm-6.79,4.38h-.42c-.55,0-1-.45-1-1s.45-1,1-1h.42c.55,0,1,.45,1,1s-.45,1-1,1Zm2.37-2.67c-.19.19-.45.29-.7.29s-.52-.1-.71-.3c-.62-.64-1.7-.64-2.32,0-.39.4-1.02.4-1.41.02-.4-.39-.4-1.02-.02-1.41,1.38-1.41,3.8-1.41,5.18,0,.39.4.38,1.03-.02,1.41Zm1.88-2.78c-.19.19-.45.29-.7.29s-.52-.1-.71-.3c-.81-.83-1.89-1.29-3.04-1.29s-2.22.46-3.04,1.29c-.39.4-1.02.4-1.41.02-.4-.39-.4-1.02-.02-1.41,1.19-1.22,2.78-1.89,4.46-1.89s3.27.67,4.46,1.89c.39.4.38,1.03-.02,1.41Z"/>
</svg>