<?xml version="1.0" encoding="UTF-8"?>
<svg id="OBJECT" xmlns="http://www.w3.org/2000/svg" viewBox="0 0 32 32">
  <defs>
    <style>
      .cls-1 {
        fill: #FD4360;
      }

      .cls-1, .cls-2 {
        stroke-width: 0px;
      }

      .cls-2 {
        fill: #dadada;
      }
    </style>
  </defs>
  <g>
    <rect class="cls-1" x="8" y="9" width="7.6" height="7.6" rx="2.5" ry="2.5"/>
    <rect class="cls-1" x="8" y="17.4" width="7.6" height="7.6" rx="2.5" ry="2.5"/>
    <rect class="cls-1" x="16.4" y="9" width="7.6" height="7.6" rx="2.5" ry="2.5"/>
    <path class="cls-1" d="m23,20.2h-5.6c-.55,0-1,.45-1,1s.45,1,1,1h5.6c.55,0,1-.45,1-1s-.45-1-1-1Z"/>
    <path class="cls-1" d="m23,17.4h-5.6c-.55,0-1,.45-1,1s.45,1,1,1h5.6c.55,0,1-.45,1-1s-.45-1-1-1Z"/>
    <path class="cls-1" d="m23,23h-5.6c-.55,0-1,.45-1,1s.45,1,1,1h5.6c.55,0,1-.45,1-1s-.45-1-1-1Z"/>
  </g>
  <g>
    <path class="cls-2" d="m25,1H7c-1.65,0-3,1.35-3,3v24c0,1.65,1.35,3,3,3h18c1.65,0,3-1.35,3-3V4c0-1.65-1.35-3-3-3Zm1,27c0,.55-.45,1-1,1H7c-.55,0-1-.45-1-1V4c0-.55.45-1,1-1h18c.55,0,1,.45,1,1v24Z"/>
    <path class="cls-2" d="m18.82,4h-6c-.55,0-1,.45-1,1s.45,1,1,1h6c.55,0,1-.45,1-1s-.45-1-1-1Z"/>
  </g>
</svg>