<?xml version="1.0" encoding="UTF-8"?>
<svg id="OBJECT" xmlns="http://www.w3.org/2000/svg" viewBox="0 0 32 32">
  <defs>
    <style>
      .cls-1 {
        fill: #FD4360;
      }

      .cls-1, .cls-2 {
        stroke-width: 0px;
      }

      .cls-2 {
        fill: #dadada;
      }
    </style>
  </defs>
  <path class="cls-2" d="m28.5,1H3.5c-1.38,0-2.5,1.12-2.5,2.5v5.5c0,.55.45,1,1,1h.5v18.5c0,1.38,1.12,2.5,2.5,2.5h22c1.38,0,2.5-1.12,2.5-2.5V10h.5c.55,0,1-.45,1-1V3.5c0-1.38-1.12-2.5-2.5-2.5Zm.5,2.5v4.5h-8V3h7.5c.28,0,.5.22.5.5Zm-16,4.5V3h6v5h-6ZM3,3.5c0-.28.22-.5.5-.5h7.5v5H3V3.5Zm24.5,25c0,.28-.22.5-.5.5H5c-.28,0-.5-.22-.5-.5V10h23v18.5Z"/>
  <path class="cls-1" d="m23.5,11.5h-15c-1.38,0-2.5,1.12-2.5,2.5v11c0,1.38,1.12,2.5,2.5,2.5h15c1.38,0,2.5-1.12,2.5-2.5v-11c0-1.38-1.12-2.5-2.5-2.5Zm-13,12.14c0,.55-.45,1-1,1s-1-.45-1-1v-8.27c0-.55.45-1,1-1s1,.45,1,1v8.27Zm4.33,0c0,.55-.45,1-1,1s-1-.45-1-1v-4.73c0-.55.45-1,1-1s1,.45,1,1v4.73Zm0-7.68c0,.55-.45,1-1,1s-1-.45-1-1v-.59c0-.55.45-1,1-1s1,.45,1,1v.59Zm4.33,7.68c0,.55-.45,1-1,1s-1-.45-1-1v-8.27c0-.55.45-1,1-1s1,.45,1,1v8.27Zm4.33,0c0,.55-.45,1-1,1s-1-.45-1-1v-.59c0-.55.45-1,1-1s1,.45,1,1v.59Zm0-3.55c0,.55-.45,1-1,1s-1-.45-1-1v-4.73c0-.55.45-1,1-1s1,.45,1,1v4.73Z"/>
</svg>