<?xml version="1.0" encoding="UTF-8"?>
<svg id="OBJECT" xmlns="http://www.w3.org/2000/svg" viewBox="0 0 32 32">
  <defs>
    <style>
      .cls-1 {
        fill: #FD4360;
      }

      .cls-2 {
        fill: #dadada;
      }
    </style>
  </defs>
  <g>
    <path class="cls-2" d="M5.5,24h-.5c-.55,0-1,.45-1,1s.45,1,1,1h.5c.55,0,1-.45,1-1s-.45-1-1-1Z"/>
    <path class="cls-2" d="M9.5,24h-.5c-.55,0-1,.45-1,1s.45,1,1,1h.5c.55,0,1-.45,1-1s-.45-1-1-1Z"/>
    <path class="cls-2" d="M23,16H14.62l-1.72-3.45c-.17-.34-.52-.55-.89-.55H5c-.55,0-1,.45-1,1v8H2c-.55,0-1,.45-1,1v5.5c0,1.93,1.57,3.5,3.5,3.5H20.5c1.93,0,3.5-1.57,3.5-3.5v-10.5c0-.55-.45-1-1-1ZM4.5,29c-.83,0-1.5-.67-1.5-1.5v-4.5h14v4.5c0,.54,.12,1.04,.34,1.5H4.5Zm17.5-1.5c0,.83-.67,1.5-1.5,1.5s-1.5-.67-1.5-1.5v-5.5c0-.55-.45-1-1-1H6v-7h5.38l1,2h-2.38c-.55,0-1,.45-1,1s.45,1,1,1h12v9.5Z"/>
  </g>
  <path class="cls-1" d="M30.6,9.38l-3.75-6.75c-.56-1-1.61-1.62-2.76-1.62h-.18c-1.15,0-2.2,.62-2.76,1.62l-3.75,6.75c-.26,.47-.4,1-.4,1.53,0,1.74,1.42,3.16,3.16,3.16h7.69c1.74,0,3.16-1.42,3.16-3.16,0-.54-.14-1.07-.4-1.53Zm-5.6,1.16c0,.55-.45,1-1,1s-1-.45-1-1v-.5c0-.55,.45-1,1-1s1,.45,1,1v.5Zm0-3.25c0,.55-.45,1-1,1s-1-.45-1-1v-2c0-.55,.45-1,1-1s1,.45,1,1v2Z"/>
</svg>