<?xml version="1.0" encoding="UTF-8"?>
<svg id="OBJECT" xmlns="http://www.w3.org/2000/svg" viewBox="0 0 32 32">
  <defs>
    <style>
      .cls-1 {
        fill: #FD4360;
      }

      .cls-1, .cls-2 {
        stroke-width: 0px;
      }

      .cls-2 {
        fill: #dadada;
      }
    </style>
  </defs>
  <g>
    <path class="cls-2" d="m14.61,20c0-.55-.45-1-1-1H5.5c-.55,0-1,.45-1,1s.45,1,1,1h8.11c.55,0,1-.45,1-1Z"/>
    <path class="cls-2" d="m5.5,23c-.55,0-1,.45-1,1s.45,1,1,1h6.52c.55,0,1-.45,1-1s-.45-1-1-1h-6.52Z"/>
    <path class="cls-2" d="m10.67,8.67h3.33c.55,0,1-.45,1-1s-.45-1-1-1h-1.5v-.67c0-.55-.45-1-1-1s-1,.45-1,1v.68c-1.39.09-2.5,1.24-2.5,2.65s1.2,2.67,2.67,2.67h1.67c.37,0,.67.3.67.67s-.3.67-.67.67h-3.33c-.55,0-1,.45-1,1s.45,1,1,1h1.5v.67c0,.55.45,1,1,1s1-.45,1-1v-.68c1.39-.09,2.5-1.24,2.5-2.65s-1.2-2.67-2.67-2.67h-1.67c-.37,0-.67-.3-.67-.67s.3-.67.67-.67Z"/>
    <path class="cls-2" d="m21,9.66c.55,0,1-.45,1-1V2c0-.55-.45-1-1-1H2c-.55,0-1,.45-1,1v28c0,.55.45,1,1,1h19c.55,0,1-.45,1-1v-2.5c0-.55-.45-1-1-1s-1,.45-1,1v1.5H3V3h17v5.66c0,.55.45,1,1,1Z"/>
  </g>
  <path class="cls-1" d="m30.58,20.45l-4.45-8.2c-.61-1.12-1.77-1.81-3.04-1.81h-.18c-1.27,0-2.44.69-3.04,1.81l-4.45,8.2c-.27.51-.42,1.08-.42,1.65,0,1.91,1.55,3.46,3.46,3.46h9.07c1.91,0,3.46-1.55,3.46-3.46,0-.58-.14-1.15-.42-1.65Zm-6.58,1.55c0,.55-.45,1-1,1s-1-.45-1-1v-.35c0-.55.45-1,1-1s1,.45,1,1v.35Zm0-3.8c0,.55-.45,1-1,1s-1-.45-1-1v-4.2c0-.55.45-1,1-1s1,.45,1,1v4.2Z"/>
</svg>