<?xml version="1.0" encoding="UTF-8"?>
<svg id="OBJECT" xmlns="http://www.w3.org/2000/svg" viewBox="0 0 32 32">
  <defs>
    <style>
      .cls-1 {
        fill: #FD4360;
      }

      .cls-1, .cls-2 {
        stroke-width: 0px;
      }

      .cls-2 {
        fill: #dadada;
      }
    </style>
  </defs>
  <path class="cls-1" d="m5.59,20.1c-.12.12-.21.28-.26.44l-1.77,6.48-2.27,2.27c-.39.39-.39,1.02,0,1.41.2.2.45.29.71.29s.51-.1.71-.29l2.27-2.27,6.48-1.77c.17-.05.32-.13.44-.26l1.13-1.13-6.31-6.31-1.13,1.13Z"/>
  <path class="cls-2" d="m30.93,12.75c-.23-1.25-1.07-2.31-2.23-2.82l-3.04-1.35-2.25-2.25-1.35-3.04c-.52-1.16-1.57-2-2.82-2.23-1.26-.23-2.54.17-3.44,1.07-.26.26-.43.61-.48.97l-1.17,8.33-5.62,5.63c-.39.39-.39,1.02,0,1.41.39.39,1.02.39,1.41,0l5.14-5.15,3.58,3.58-5.15,5.15c-.39.39-.39,1.02,0,1.41.19.19.45.29.71.29s.51-.1.71-.29l5.62-5.62,8.33-1.17c.37-.05.71-.22.97-.48.9-.9,1.3-2.19,1.07-3.44Zm-8.47-4.54l1.33,1.33-3.86,5.79-3.26-3.26,5.79-3.86Zm-3.58-5.17c.61.11,1.11.51,1.36,1.08l1.09,2.45-4.93,3.28.89-6.36c.43-.39,1.01-.56,1.59-.45Zm9.64,11.67l-6.36.89,3.28-4.93,2.45,1.09c.57.25.96.75,1.08,1.36.11.58-.05,1.16-.45,1.59Z"/>
</svg>