<?xml version="1.0" encoding="UTF-8"?>
<svg id="OBJECT" xmlns="http://www.w3.org/2000/svg" viewBox="0 0 32 32">
  <defs>
    <style>
      .cls-1 {
        fill: #FD4360;
      }

      .cls-1, .cls-2 {
        stroke-width: 0px;
      }

      .cls-2 {
        fill: #dadada;
      }
    </style>
  </defs>
  <g>
    <path class="cls-2" d="m30,4h-9v-.5c0-1.38-1.12-2.5-2.5-2.5h-5c-1.38,0-2.5,1.12-2.5,2.5v.5H2c-.55,0-1,.45-1,1s.45,1,1,1h5v6c0,.55.45,1,1,1s1-.45,1-1v-6h2v.5c0,1.38,1.12,2.5,2.5,2.5h5c1.38,0,2.5-1.12,2.5-2.5v-.5h2v6c0,.55.45,1,1,1s1-.45,1-1v-6h5c.55,0,1-.45,1-1s-.45-1-1-1Zm-11,2.5c0,.28-.22.5-.5.5h-5c-.28,0-.5-.22-.5-.5v-3c0-.28.22-.5.5-.5h5c.28,0,.5.22.5.5v3Z"/>
    <path class="cls-2" d="m17,4h-2c-.55,0-1,.45-1,1s.45,1,1,1h2c.55,0,1-.45,1-1s-.45-1-1-1Z"/>
    <path class="cls-2" d="m8,15c-3.99,0-7,1.72-7,4v8c0,2.28,3.01,4,7,4s7-1.72,7-4v-8c0-2.28-3.01-4-7-4Zm0,14c-3.05,0-5-1.18-5-2v-1.15c1.25.72,3,1.15,5,1.15s3.75-.43,5-1.15v1.15c0,.82-1.95,2-5,2Zm0-4c-3.05,0-5-1.18-5-2v-1.15c1.25.72,3,1.15,5,1.15s3.75-.43,5-1.15v1.15c0,.82-1.95,2-5,2Zm0-4c-3.05,0-5-1.18-5-2s1.95-2,5-2,5,1.18,5,2-1.95,2-5,2Z"/>
    <path class="cls-2" d="m6.44,18h-.44c-.55,0-1,.45-1,1s.45,1,1,1h.44c.55,0,1-.45,1-1s-.45-1-1-1Z"/>
    <path class="cls-2" d="m10,18h-.44c-.55,0-1,.45-1,1s.45,1,1,1h.44c.55,0,1-.45,1-1s-.45-1-1-1Z"/>
  </g>
  <g>
    <path class="cls-1" d="m24,25c-3.13,0-5.67-1.15-7-2.97v.97c0,2.28,3.01,4,7,4s7-1.72,7-4v-.97c-1.33,1.82-3.87,2.97-7,2.97Z"/>
    <path class="cls-1" d="m24,29c-3.13,0-5.67-1.15-7-2.97v.97c0,2.28,3.01,4,7,4s7-1.72,7-4v-.97c-1.33,1.82-3.87,2.97-7,2.97Z"/>
    <path class="cls-1" d="m24,23c3.99,0,7-1.72,7-4s-3.01-4-7-4-7,1.72-7,4,3.01,4,7,4Zm1.56-5h.44c.55,0,1,.45,1,1s-.45,1-1,1h-.44c-.55,0-1-.45-1-1s.45-1,1-1Zm-3.56,0h.44c.55,0,1,.45,1,1s-.45,1-1,1h-.44c-.55,0-1-.45-1-1s.45-1,1-1Z"/>
  </g>
</svg>