<?xml version="1.0" encoding="UTF-8"?>
<svg id="OBJECT" xmlns="http://www.w3.org/2000/svg" viewBox="0 0 32 32">
  <defs>
    <style>
      .cls-1 {
        fill: #FD4360;
      }

      .cls-1, .cls-2 {
        stroke-width: 0px;
      }

      .cls-2 {
        fill: #dadada;
      }
    </style>
  </defs>
  <g>
    <path class="cls-2" d="m30,9c.55,0,1-.45,1-1V2c0-.55-.45-1-1-1H2c-.55,0-1,.45-1,1v6c0,.55.45,1,1,1h2v3h-2c-.55,0-1,.45-1,1v6c0,.55.45,1,1,1h28c.55,0,1-.45,1-1v-6c0-.55-.45-1-1-1h-2v-3h2Zm-1-2h-7V3h7v4ZM3,3h17v4H3V3Zm0,11h17v4H3v-4Zm26,4h-7v-4h7v4Zm-3-6H6v-3h20v3Z"/>
    <path class="cls-2" d="m14,4H5c-.55,0-1,.45-1,1s.45,1,1,1h9c.55,0,1-.45,1-1s-.45-1-1-1Z"/>
    <path class="cls-2" d="m18,4h-1c-.55,0-1,.45-1,1s.45,1,1,1h1c.55,0,1-.45,1-1s-.45-1-1-1Z"/>
    <path class="cls-2" d="m25,6h1c.55,0,1-.45,1-1s-.45-1-1-1h-1c-.55,0-1,.45-1,1s.45,1,1,1Z"/>
    <path class="cls-2" d="m14,15H5c-.55,0-1,.45-1,1s.45,1,1,1h9c.55,0,1-.45,1-1s-.45-1-1-1Z"/>
    <path class="cls-2" d="m18,15h-1c-.55,0-1,.45-1,1s.45,1,1,1h1c.55,0,1-.45,1-1s-.45-1-1-1Z"/>
    <path class="cls-2" d="m25,17h1c.55,0,1-.45,1-1s-.45-1-1-1h-1c-.55,0-1,.45-1,1s.45,1,1,1Z"/>
  </g>
  <g>
    <path class="cls-1" d="m22,23h-12c-.55,0-1,.45-1,1v6c0,.55.45,1,1,1h12c.55,0,1-.45,1-1v-6c0-.55-.45-1-1-1Zm-5,5h-2c-.55,0-1-.45-1-1s.45-1,1-1h2c.55,0,1,.45,1,1s-.45,1-1,1Z"/>
    <path class="cls-1" d="m30,26h-5v2h5c.55,0,1-.45,1-1s-.45-1-1-1Z"/>
    <path class="cls-1" d="m1,27c0,.55.45,1,1,1h5v-2H2c-.55,0-1,.45-1,1Z"/>
  </g>
</svg>