<?xml version="1.0" encoding="UTF-8"?>
<svg id="OBJECT" xmlns="http://www.w3.org/2000/svg" viewBox="0 0 32 32">
  <defs>
    <style>
      .cls-1 {
        fill: #FD4360;
      }

      .cls-1, .cls-2 {
        stroke-width: 0px;
      }

      .cls-2 {
        fill: #dadada;
      }
    </style>
  </defs>
  <g>
    <path class="cls-2" d="m16,3.5h-6.5c-1.38,0-2.5,1.12-2.5,2.5v1.5c0,.55.45,1,1,1s1-.45,1-1v-1.5c0-.28.22-.5.5-.5h6.5c.55,0,1-.45,1-1s-.45-1-1-1Z"/>
    <path class="cls-2" d="m16,26.5h-6.5c-.28,0-.5-.22-.5-.5v-1.5c0-.55-.45-1-1-1s-1,.45-1,1v1.5c0,1.38,1.12,2.5,2.5,2.5h6.5c.55,0,1-.45,1-1s-.45-1-1-1Z"/>
    <path class="cls-2" d="m29.89,2.72l-1.96-1.3c-.41-.27-.89-.42-1.39-.42h-5.05c-1.38,0-2.5,1.12-2.5,2.5v9c0,1.38,1.12,2.5,2.5,2.5h7c1.38,0,2.5-1.12,2.5-2.5v-7.7c0-.84-.42-1.62-1.11-2.08Zm-.89,9.78c0,.28-.22.5-.5.5h-7c-.28,0-.5-.22-.5-.5V3.5c0-.28.22-.5.5-.5h5.05c.1,0,.19.03.28.08l1.95,1.3c.14.09.22.25.22.42v7.7Z"/>
    <path class="cls-2" d="m26.5,8.75h-3c-.55,0-1,.45-1,1s.45,1,1,1h3c.55,0,1-.45,1-1s-.45-1-1-1Z"/>
    <path class="cls-2" d="m23.5,7.25h2c.55,0,1-.45,1-1s-.45-1-1-1h-2c-.55,0-1,.45-1,1s.45,1,1,1Z"/>
    <path class="cls-2" d="m29.89,18.72l-1.96-1.3c-.41-.27-.89-.42-1.39-.42h-5.05c-1.38,0-2.5,1.12-2.5,2.5v9c0,1.38,1.12,2.5,2.5,2.5h7c1.38,0,2.5-1.12,2.5-2.5v-7.7c0-.84-.42-1.62-1.11-2.08Zm-.89,9.78c0,.28-.22.5-.5.5h-7c-.28,0-.5-.22-.5-.5v-9c0-.28.22-.5.5-.5h5.05c.1,0,.19.03.28.08l1.95,1.3c.14.09.22.25.22.42v7.7Z"/>
    <path class="cls-2" d="m26.5,24.75h-3c-.55,0-1,.45-1,1s.45,1,1,1h3c.55,0,1-.45,1-1s-.45-1-1-1Z"/>
    <path class="cls-2" d="m23.5,23.25h2c.55,0,1-.45,1-1s-.45-1-1-1h-2c-.55,0-1,.45-1,1s.45,1,1,1Z"/>
  </g>
  <g>
    <path class="cls-1" d="m8,20c-3.13,0-5.67-1.15-7-2.97v.97c0,2.28,3.01,4,7,4s7-1.72,7-4v-.97c-1.33,1.82-3.87,2.97-7,2.97Z"/>
    <path class="cls-1" d="m8,18c3.99,0,7-1.72,7-4s-3.01-4-7-4-7,1.72-7,4,3.01,4,7,4Zm1.56-5h.44c.55,0,1,.45,1,1s-.45,1-1,1h-.44c-.55,0-1-.45-1-1s.45-1,1-1Zm-3.56,0h.44c.55,0,1,.45,1,1s-.45,1-1,1h-.44c-.55,0-1-.45-1-1s.45-1,1-1Z"/>
  </g>
</svg>