<?xml version="1.0" encoding="UTF-8"?>
<svg id="OBJECT" xmlns="http://www.w3.org/2000/svg" viewBox="0 0 32 32">
  <defs>
    <style>
      .cls-1 {
        fill: #FD4360;
      }

      .cls-1, .cls-2 {
        stroke-width: 0px;
      }

      .cls-2 {
        fill: #dadada;
      }
    </style>
  </defs>
  <path class="cls-2" d="m31,16.5c0-1.86-1.28-3.41-3-3.86v-2.78c1.72-.45,3-2,3-3.86,0-2.21-1.79-4-4-4-1.97,0-3.6,1.43-3.93,3.3l-4.32.33c-.55.04-.96.52-.92,1.07.04.52.48.92,1,.92.03,0,.05,0,.08,0l4.33-.33c.43,1.26,1.47,2.23,2.77,2.57v2.78c-.8.21-1.5.66-2.03,1.27l-5.24-2.56c-.5-.24-1.09-.04-1.34.46-.24.5-.04,1.1.46,1.34l5.22,2.55c-.05.26-.08.52-.08.8,0,1.86,1.28,3.41,3,3.86v2.78c-.36.09-.7.24-1.02.42l-8.35-8.35c-.39-.39-1.02-.39-1.41,0s-.39,1.02,0,1.41l8.35,8.35c-.18.3-.32.63-.41.98l-2.82-.03c-.47-1.68-2-2.93-3.84-2.93-.27,0-.54.03-.8.08l-2.55-5.22c-.24-.5-.84-.7-1.34-.46-.5.24-.7.84-.46,1.34l2.56,5.24c-.57.49-1,1.14-1.22,1.88l-2.89-.03c-.38-1.22-1.32-2.18-2.52-2.59l.33-4.32c.04-.55-.37-1.03-.92-1.07-.57-.05-1.03.37-1.07.92l-.33,4.32c-1.87.34-3.29,1.97-3.29,3.93,0,2.21,1.79,4,4,4,1.92,0,3.53-1.37,3.91-3.18l2.68.03c.39,1.8,1.99,3.15,3.9,3.15s3.46-1.31,3.88-3.07l2.75.03c.43,1.74,2,3.04,3.87,3.04,2.21,0,4-1.79,4-4,0-1.86-1.28-3.41-3-3.86v-2.78c1.72-.45,3-2,3-3.86ZM6,29c-1.1,0-2-.9-2-2s.9-2,2-2,2,.9,2,2-.9,2-2,2Zm10.5,0c-1.1,0-2-.9-2-2,0-.79.46-1.47,1.13-1.79,0,0,0,0,0,0,0,0,0,0,0,0,.26-.13.55-.21.87-.21,1.1,0,2,.9,2,2s-.9,2-2,2ZM25,6c0-1.1.9-2,2-2s2,.9,2,2-.9,2-2,2-2-.9-2-2Zm0,10.5c0-.31.08-.61.21-.87,0,0,0,0,0,0,0,0,0,0,0,0,.33-.67,1-1.13,1.79-1.13,1.1,0,2,.9,2,2s-.9,2-2,2-2-.9-2-2Zm4,10.5c0,1.1-.9,2-2,2s-2-.9-2-2c0-.55.22-1.05.59-1.41,0,0,0,0,0,0s0,0,0,0c.36-.36.86-.59,1.41-.59,1.1,0,2,.9,2,2Z"/>
  <path class="cls-1" d="m4.92,11.16c.22-.22.35-.52.35-.84v-4.7c0-.55.45-1,1-1s1,.45,1,1v4.7c0,.85-.33,1.65-.93,2.25l-2.09,2.09c1.21.84,2.68,1.33,4.26,1.33,4.14,0,7.5-3.36,7.5-7.5,0-1.84-.67-3.52-1.76-4.82l-2.16,2.16c-.22.22-.35.52-.35.84v4.7c0,.55-.45,1-1,1s-1-.45-1-1v-4.7c0-.85.33-1.65.93-2.25l2.09-2.09c-1.21-.84-2.68-1.33-4.26-1.33C4.36,1,1,4.36,1,8.5c0,1.84.67,3.52,1.76,4.82l2.16-2.16Z"/>
</svg>