<?xml version="1.0" encoding="UTF-8"?>
<svg id="OBJECT" xmlns="http://www.w3.org/2000/svg" viewBox="0 0 32 32">
  <defs>
    <style>
      .cls-1 {
        fill: #FD4360;
      }

      .cls-1, .cls-2 {
        stroke-width: 0px;
      }

      .cls-2 {
        fill: #dadada;
      }
    </style>
  </defs>
  <g>
    <path class="cls-2" d="m30,23.5c-.55,0-1,.45-1,1v1c0,1.66-2.88,3.5-7,3.5s-7-1.84-7-3.5v-1c0-.55-.45-1-1-1s-1,.45-1,1v1c0,3.08,3.95,5.5,9,5.5s9-2.42,9-5.5v-1c0-.55-.45-1-1-1Z"/>
    <path class="cls-2" d="m11.14,23.1l-1.14.72-1.72-1.08c-1.04-.65-1.94-1.46-2.7-2.38l2.81-1.9c.83-.56,1.32-1.49,1.32-2.48v-3.88c0-.55-.45-1-1-1s-1,.45-1,1v3.88c0,.33-.16.64-.44.83l-2.84,1.92c-.93-1.65-1.43-3.53-1.43-5.51v-7.14c3.74.07,5.92-1.4,7-2.49.61.62,1.6,1.35,3,1.87v4.19c0,.55.45,1,1,1s1-.45,1-1v-3.7c.62.09,1.27.15,2,.13v6.37c0,.55.45,1,1,1s1-.45,1-1v-7.43c0-.28-.12-.55-.33-.74-.21-.19-.48-.28-.77-.25-5.22.51-6.96-2.39-7.03-2.51-.17-.31-.51-.51-.87-.51-.37,0-.7.19-.88.5-.07.12-1.82,3.03-7.03,2.52-.28-.03-.56.06-.77.25s-.33.46-.33.74v8.2c0,2.72.83,5.29,2.3,7.44,0,0,0,.02.01.03,0,.01.02.02.02.03,1.01,1.47,2.31,2.74,3.88,3.72l2.25,1.41c.16.1.35.15.53.15s.37-.05.53-.15l1.67-1.05c.47-.29.61-.91.31-1.38-.29-.47-.91-.61-1.38-.31Z"/>
    <path class="cls-2" d="m7.71,8.71v.54c0,.55.45,1,1,1s1-.45,1-1v-.54c0-.55-.45-1-1-1s-1,.45-1,1Z"/>
    <path class="cls-2" d="m14,11.45c-.55,0-1,.45-1,1v.54c0,.55.45,1,1,1s1-.45,1-1v-.54c0-.55-.45-1-1-1Z"/>
  </g>
  <path class="cls-1" d="m13,19.5c0,3.08,3.95,5.5,9,5.5s9-2.42,9-5.5-3.95-5.5-9-5.5-9,2.42-9,5.5Zm13.03-1h.47c.55,0,1,.45,1,1s-.45,1-1,1h-.47c-.55,0-1-.45-1-1s.45-1,1-1Zm-5.03,0h2c.55,0,1,.45,1,1s-.45,1-1,1h-2c-.55,0-1-.45-1-1s.45-1,1-1Zm-3.5,0h.47c.55,0,1,.45,1,1s-.45,1-1,1h-.47c-.55,0-1-.45-1-1s.45-1,1-1Z"/>
</svg>