<?xml version="1.0" encoding="UTF-8"?>
<svg id="OBJECT" xmlns="http://www.w3.org/2000/svg" viewBox="0 0 32 32">
  <defs>
    <style>
      .cls-1 {
        fill: #FD4360;
      }

      .cls-1, .cls-2 {
        stroke-width: 0px;
      }

      .cls-2 {
        fill: #dadada;
      }
    </style>
  </defs>
  <g>
    <path class="cls-2" d="m24,14.67c-.55,0-1,.45-1,1v2c0,1.42-2.99,3-7,3s-7-1.58-7-3v-2c0-.55-.45-1-1-1s-1,.45-1,1v7c0,2.85,3.87,5,9,5s9-2.15,9-5v-7c0-.55-.45-1-1-1Zm-1,8c0,1.42-2.99,3-7,3s-7-1.58-7-3v-1.79c1.62,1.1,4.11,1.79,7,1.79s5.38-.68,7-1.79v1.79Z"/>
    <path class="cls-2" d="m30.71,27.29c-.39-.39-1.02-.39-1.41,0l-.29.29V2c0-.55-.45-1-1-1s-1,.45-1,1v28c0,.4.24.77.62.92.12.05.25.08.38.08.26,0,.52-.1.71-.29l2-2c.39-.39.39-1.02,0-1.41Z"/>
    <path class="cls-2" d="m4.38,1.08c-.37-.16-.8-.07-1.09.22l-2,2c-.39.39-.39,1.02,0,1.41s1.02.39,1.41,0l.29-.29v25.59c0,.55.45,1,1,1s1-.45,1-1V2c0-.4-.24-.77-.62-.92Z"/>
  </g>
  <path class="cls-1" d="m16,5.67c-5.13,0-9,2.15-9,5s3.87,5,9,5,9-2.15,9-5-3.87-5-9-5Zm-2.07,6h-.59c-.55,0-1-.45-1-1s.45-1,1-1h.59c.55,0,1,.45,1,1s-.45,1-1,1Zm4.74,0h-.59c-.55,0-1-.45-1-1s.45-1,1-1h.59c.55,0,1,.45,1,1s-.45,1-1,1Z"/>
</svg>