<?xml version="1.0" encoding="UTF-8"?>
<svg id="OBJECT" xmlns="http://www.w3.org/2000/svg" viewBox="0 0 32 32">
  <defs>
    <style>
      .cls-1 {
        fill: #FD4360;
      }

      .cls-1, .cls-2 {
        stroke-width: 0px;
      }

      .cls-2 {
        fill: #dadada;
      }
    </style>
  </defs>
  <g>
    <path class="cls-2" d="m16,4c-7.27,0-15,2.1-15,6v6c0,3.9,7.73,6,15,6s15-2.1,15-6v-6c0-3.9-7.73-6-15-6Zm0,2c7.94,0,13,2.37,13,4s-5.06,4-13,4S3,11.63,3,10s5.06-4,13-4Zm0,14c-7.94,0-13-2.37-13-4v-2.89c2.77,1.89,7.99,2.89,13,2.89s10.23-1,13-2.89v2.89c0,1.63-5.06,4-13,4Z"/>
    <path class="cls-2" d="m8.5,11h1c.55,0,1-.45,1-1s-.45-1-1-1h-1c-.55,0-1,.45-1,1s.45,1,1,1Z"/>
    <path class="cls-2" d="m13,11h6c.55,0,1-.45,1-1s-.45-1-1-1h-6c-.55,0-1,.45-1,1s.45,1,1,1Z"/>
    <path class="cls-2" d="m22.5,11h1c.55,0,1-.45,1-1s-.45-1-1-1h-1c-.55,0-1,.45-1,1s.45,1,1,1Z"/>
  </g>
  <path class="cls-1" d="m1,20.08v1.92c0,3.9,7.73,6,15,6s15-2.1,15-6v-1.92c-3.02,2.68-9.02,3.92-15,3.92s-11.98-1.24-15-3.92Z"/>
</svg>