<?xml version="1.0" encoding="UTF-8"?>
<svg id="OBJECT" xmlns="http://www.w3.org/2000/svg" viewBox="0 0 32 32">
  <defs>
    <style>
      .cls-1 {
        fill: #FD4360;
      }

      .cls-1, .cls-2 {
        stroke-width: 0px;
      }

      .cls-2 {
        fill: #dadada;
      }
    </style>
  </defs>
  <g>
    <path class="cls-2" d="m13.5,28h5c.55,0,1-.45,1-1s-.45-1-1-1h-5c-.55,0-1,.45-1,1s.45,1,1,1Z"/>
    <path class="cls-2" d="m30,26h-.5c-.55,0-1,.45-1,1s.45,1,1,1h.5c.55,0,1-.45,1-1s-.45-1-1-1Z"/>
    <path class="cls-2" d="m2.5,26h-.5c-.55,0-1,.45-1,1s.45,1,1,1h.5c.55,0,1-.45,1-1s-.45-1-1-1Z"/>
    <path class="cls-2" d="m26,10.62c-.55,0-1,.45-1,1v2c0,1.65-3.85,3.5-9,3.5s-9-1.85-9-3.5v-2c0-.55-.45-1-1-1s-1,.45-1,1v2c0,2.66,3.4,4.75,8.25,5.33v4.05h-1.25c-1.38,0-2.5,1.12-2.5,2.5v.5h-3.5c-.55,0-1,.45-1,1s.45,1,1,1h3.5v.5c0,1.38,1.12,2.5,2.5,2.5h8c1.38,0,2.5-1.12,2.5-2.5v-.5h3.5c.55,0,1-.45,1-1s-.45-1-1-1h-3.5v-.5c0-1.38-1.12-2.5-2.5-2.5h-1.25v-4.05c4.85-.58,8.25-2.68,8.25-5.33v-2c0-.55-.45-1-1-1Zm-5.5,14.88v3c0,.28-.22.5-.5.5h-8c-.28,0-.5-.22-.5-.5v-3c0-.28.22-.5.5-.5h8c.28,0,.5.22.5.5Zm-3.75-2.5h-1.5v-3.9c.25,0,.5.02.75.02s.5-.01.75-.02v3.9Z"/>
  </g>
  <path class="cls-1" d="m16,1c-6.27,0-11,2.36-11,5.5s4.73,5.5,11,5.5,11-2.36,11-5.5S22.27,1,16,1Zm-4.17,6.5h-.56c-.55,0-1-.45-1-1s.45-1,1-1h.56c.55,0,1,.45,1,1s-.45,1-1,1Zm5.44,0h-2.55c-.55,0-1-.45-1-1s.45-1,1-1h2.55c.55,0,1,.45,1,1s-.45,1-1,1Zm3.45,0h-.56c-.55,0-1-.45-1-1s.45-1,1-1h.56c.55,0,1,.45,1,1s-.45,1-1,1Z"/>
</svg>