<?xml version="1.0" encoding="UTF-8"?>
<svg id="OBJECT" xmlns="http://www.w3.org/2000/svg" viewBox="0 0 32 32">
  <defs>
    <style>
      .cls-1 {
        fill: #FD4360;
      }

      .cls-1, .cls-2 {
        stroke-width: 0px;
      }

      .cls-2 {
        fill: #dadada;
      }
    </style>
  </defs>
  <g>
    <path class="cls-2" d="m11,1C5.3,1,1,3.15,1,6v10c0,2.85,4.3,5,10,5,1,0,1.95-.07,2.82-.2.55-.08.92-.59.84-1.14s-.59-.92-1.14-.84c-.77.12-1.62.18-2.52.18-4.88,0-8-1.78-8-3v-1.94c1.79,1.19,4.65,1.94,8,1.94s6.3-.77,8.09-2c.16.35.5.6.91.6.55,0,1-.45,1-1v-7.6c0-2.85-4.3-5-10-5Zm0,2c4.88,0,8,1.78,8,3s-3.12,3-8,3S3,7.22,3,6s3.12-3,8-3Zm0,11c-4.88,0-8-1.78-8-3v-1.94c1.79,1.19,4.65,1.94,8,1.94s6.21-.75,8-1.94v1.94c0,1.22-3.12,3-8,3Z"/>
    <path class="cls-2" d="m6.75,7h.5c.55,0,1-.45,1-1s-.45-1-1-1h-.5c-.55,0-1,.45-1,1s.45,1,1,1Z"/>
    <path class="cls-2" d="m10.75,7h.5c.55,0,1-.45,1-1s-.45-1-1-1h-.5c-.55,0-1,.45-1,1s.45,1,1,1Z"/>
    <path class="cls-2" d="m14.75,7h.5c.55,0,1-.45,1-1s-.45-1-1-1h-.5c-.55,0-1,.45-1,1s.45,1,1,1Z"/>
  </g>
  <path class="cls-1" d="m23,15c-4.41,0-8,3.59-8,8s3.59,8,8,8,8-3.59,8-8-3.59-8-8-8Zm4.5,8c0,1.38-1.12,2.5-2.5,2.5h-2.09l.29.29c.39.39.39,1.02,0,1.41-.2.2-.45.29-.71.29s-.51-.1-.71-.29l-2-2c-.39-.39-.39-1.02,0-1.41l2-2c.39-.39,1.02-.39,1.41,0s.39,1.02,0,1.41l-.29.29h2.09c.28,0,.5-.22.5-.5v-2c0-.28-.22-.5-.5-.5h-5.5c-.55,0-1-.45-1-1s.45-1,1-1h5.5c1.38,0,2.5,1.12,2.5,2.5v2Z"/>
</svg>