<?xml version="1.0" encoding="UTF-8"?>
<svg id="OBJECT" xmlns="http://www.w3.org/2000/svg" viewBox="0 0 32 32">
  <defs>
    <style>
      .cls-1 {
        fill: #FD4360;
      }

      .cls-1, .cls-2 {
        stroke-width: 0px;
      }

      .cls-2 {
        fill: #dadada;
      }
    </style>
  </defs>
  <g>
    <path class="cls-2" d="m19.7,5.78c-1.05-2.82-4.83-4.78-9.2-4.78C5.17,1,1,3.8,1,7.38v17.24c0,3.58,4.17,6.38,9.5,6.38,3.21,0,6.18-1.06,7.93-2.84.39-.39.38-1.03,0-1.41-.39-.39-1.03-.38-1.41,0-1.36,1.38-3.86,2.24-6.51,2.24-4.07,0-7.5-2.01-7.5-4.38v-4.68c.56.48,1.21.91,1.98,1.27,1.59.76,3.5,1.17,5.52,1.17.53,0,1.01-.03,1.45-.08.55-.06.94-.56.88-1.11-.06-.55-.56-.95-1.11-.88-.37.04-.77.06-1.23.06-1.72,0-3.33-.34-4.66-.97-1.78-.84-2.84-2.11-2.84-3.41v-4.68c.56.48,1.21.91,1.98,1.28,1.61.77,3.52,1.18,5.52,1.18.56,0,1.03-.03,1.47-.09.55-.08.93-.58.85-1.13-.08-.55-.59-.93-1.13-.85-.34.05-.72.07-1.19.07-1.71,0-3.32-.34-4.66-.98-1.78-.84-2.84-2.11-2.84-3.41,0-2.37,3.43-4.38,7.5-4.38,3.49,0,6.57,1.46,7.32,3.48.19.52.77.78,1.29.59.52-.19.78-.77.59-1.29Z"/>
    <path class="cls-2" d="m8.25,6.38c-.55,0-1,.45-1,1s.45,1,1,1h.5c.55,0,1-.45,1-1s-.45-1-1-1h-.5Z"/>
    <path class="cls-2" d="m12.25,6.38c-.55,0-1,.45-1,1s.45,1,1,1h.5c.55,0,1-.45,1-1s-.45-1-1-1h-.5Z"/>
  </g>
  <g>
    <path class="cls-1" d="m22.5,8.5c-4.69,0-8.5,3.81-8.5,8.5s3.81,8.5,8.5,8.5,8.5-3.81,8.5-8.5-3.81-8.5-8.5-8.5Zm4.09,12.47c0,.55-.45,1-1,1h-6.18c-.55,0-1-.45-1-1v-4.12c0-.55.45-1,1-1h.29v-1.99c0-1.54,1.26-2.8,2.8-2.8s2.8,1.26,2.8,2.8v1.99h.29c.55,0,1,.45,1,1v4.12Z"/>
    <polygon class="cls-1" points="20.7 17.85 20.41 17.85 20.41 19.97 24.59 19.97 24.59 17.85 24.3 17.85 20.7 17.85"/>
    <path class="cls-1" d="m23.3,13.86c0-.44-.36-.8-.8-.8s-.8.36-.8.8v1.99h1.6v-1.99Z"/>
  </g>
</svg>