<?xml version="1.0" encoding="UTF-8"?>
<svg id="OBJECT" xmlns="http://www.w3.org/2000/svg" viewBox="0 0 512 512">
  <defs>
    <style>
      .cls-1 {
        fill: #FD4360;
      }

      .cls-2 {
        fill: #dadada;
      }
    </style>
  </defs>
  <g>
    <path class="cls-2" d="M454.5,200c15.16,0,27.5-12.34,27.5-27.5s-12.34-27.5-27.5-27.5-27.5,12.34-27.5,27.5,12.34,27.5,27.5,27.5Zm0-40c6.89,0,12.5,5.61,12.5,12.5s-5.61,12.5-12.5,12.5-12.5-5.61-12.5-12.5,5.61-12.5,12.5-12.5Z"/>
    <path class="cls-2" d="M30,172.5c0,15.16,12.34,27.5,27.5,27.5s27.5-12.34,27.5-27.5-12.34-27.5-27.5-27.5-27.5,12.34-27.5,27.5Zm40,0c0,6.89-5.61,12.5-12.5,12.5s-12.5-5.61-12.5-12.5,5.61-12.5,12.5-12.5,12.5,5.61,12.5,12.5Z"/>
    <path class="cls-2" d="M263.5,437.75v-49.61c0-4.14-3.36-7.5-7.5-7.5s-7.5,3.36-7.5,7.5v49.61c-17.1,3.48-30,18.64-30,36.75,0,20.68,16.82,37.5,37.5,37.5s37.5-16.82,37.5-37.5c0-18.11-12.9-33.26-30-36.75Zm-7.5,59.25c-12.41,0-22.5-10.09-22.5-22.5s10.09-22.5,22.5-22.5,22.5,10.09,22.5,22.5-10.09,22.5-22.5,22.5Z"/>
    <path class="cls-2" d="M391,397c-18.11,0-33.26,12.9-36.75,30h-18.25c-6.89,0-12.5-5.61-12.5-12.5v-26.36c0-4.14-3.36-7.5-7.5-7.5s-7.5,3.36-7.5,7.5v26.36c0,15.16,12.34,27.5,27.5,27.5h18.25c3.48,17.1,18.64,30,36.75,30,20.68,0,37.5-16.82,37.5-37.5s-16.82-37.5-37.5-37.5Zm0,60c-12.41,0-22.5-10.09-22.5-22.5s10.09-22.5,22.5-22.5,22.5,10.09,22.5,22.5-10.09,22.5-22.5,22.5Z"/>
    <path class="cls-2" d="M196,380.64c-4.14,0-7.5,3.36-7.5,7.5v26.36c0,6.89-5.61,12.5-12.5,12.5h-18.25c-3.48-17.1-18.64-30-36.75-30-20.68,0-37.5,16.82-37.5,37.5s16.82,37.5,37.5,37.5c18.11,0,33.26-12.9,36.75-30h18.25c15.16,0,27.5-12.34,27.5-27.5v-26.36c0-4.14-3.36-7.5-7.5-7.5Zm-75,76.36c-12.41,0-22.5-10.09-22.5-22.5s10.09-22.5,22.5-22.5,22.5,10.09,22.5,22.5-10.09,22.5-22.5,22.5Z"/>
    <path class="cls-2" d="M106,285c-4.14,0-7.5,3.36-7.5,7.5v25c0,14.82,16.65,26.77,49.5,35.53,28.94,7.72,67.3,11.97,108,11.97s79.05-4.25,108-11.97c32.85-8.76,49.5-20.71,49.5-35.53v-25c0-4.14-3.36-7.5-7.5-7.5s-7.5,3.36-7.5,7.5v25c0,3.74-8.02,12.94-38.37,21.04-27.72,7.39-64.7,11.46-104.13,11.46s-76.41-4.07-104.13-11.46c-30.35-8.09-38.37-17.3-38.37-21.04v-25c0-4.14-3.36-7.5-7.5-7.5Z"/>
    <path class="cls-2" d="M449.5,110h-21.41c-3.74-33.7-32.4-60-67.09-60-2.82,0-5.65,.18-8.45,.53C330.55,18.8,294.82,0,256,0s-74.55,18.8-96.55,50.53c-2.8-.35-5.62-.53-8.45-.53-34.68,0-63.34,26.3-67.09,60h-21.41C28.04,110,0,138.04,0,172.5s28.04,62.5,62.5,62.5h13.5c4.14,0,7.5-3.36,7.5-7.5s-3.36-7.5-7.5-7.5h-13.5c-26.19,0-47.5-21.31-47.5-47.5s21.31-47.5,47.5-47.5h53.5c4.14,0,7.5-3.36,7.5-7.5s-3.36-7.5-7.5-7.5h-16.96c3.65-25.41,25.55-45,51.96-45,3.54,0,7.08,.35,10.53,1.06,3.05,.62,6.16-.71,7.83-3.34,18.93-29.88,51.32-47.72,86.64-47.72s67.71,17.84,86.64,47.72c1.67,2.63,4.78,3.96,7.83,3.34,3.44-.7,6.98-1.06,10.53-1.06,26.4,0,48.3,19.59,51.96,45h-16.96c-4.14,0-7.5,3.36-7.5,7.5s3.36,7.5,7.5,7.5h53.5c26.19,0,47.5,21.31,47.5,47.5s-21.31,47.5-47.5,47.5h-13.5c-4.14,0-7.5,3.36-7.5,7.5s3.36,7.5,7.5,7.5h13.5c34.46,0,62.5-28.04,62.5-62.5s-28.04-62.5-62.5-62.5Z"/>
    <path class="cls-2" d="M221,125c12.41,0,22.5-10.09,22.5-22.5v-10c0-12.41-10.09-22.5-22.5-22.5h-20c-12.41,0-22.5,10.09-22.5,22.5v10c0,12.41,10.09,22.5,22.5,22.5h20Zm-27.5-22.5v-10c0-4.14,3.36-7.5,7.5-7.5h20c4.14,0,7.5,3.36,7.5,7.5v10c0,4.14-3.36,7.5-7.5,7.5h-20c-4.14,0-7.5-3.36-7.5-7.5Z"/>
    <path class="cls-2" d="M311,125c12.41,0,22.5-10.09,22.5-22.5v-10c0-12.41-10.09-22.5-22.5-22.5h-20c-12.41,0-22.5,10.09-22.5,22.5v10c0,12.41,10.09,22.5,22.5,22.5h20Zm-27.5-22.5v-10c0-4.14,3.36-7.5,7.5-7.5h20c4.14,0,7.5,3.36,7.5,7.5v10c0,4.14-3.36,7.5-7.5,7.5h-20c-4.14,0-7.5-3.36-7.5-7.5Z"/>
  </g>
  <g>
    <path class="cls-1" d="M367.86,237.52c-30.17,8.04-69.89,12.48-111.86,12.48s-81.7-4.43-111.86-12.48c-18.36-4.9-32.08-10.72-41.95-17.8-1.32-.95-2.54-1.9-3.69-2.87v35.64c0,14.82,16.65,26.77,49.5,35.53,28.94,7.72,67.3,11.97,108,11.97s79.05-4.25,108-11.97c32.85-8.76,49.5-20.71,49.5-35.53v-35.64c-1.15,.96-2.37,1.92-3.69,2.87-9.87,7.08-23.59,12.91-41.95,17.8Z"/>
    <path class="cls-1" d="M148,223.03c28.94,7.72,67.3,11.97,108,11.97s79.05-4.25,108-11.97c32.85-8.76,49.5-20.71,49.5-35.53s-16.65-26.77-49.5-35.53c-28.94-7.72-67.3-11.97-108-11.97s-79.05,4.25-108,11.97c-32.85,8.76-49.5,20.71-49.5,35.53s16.65,26.77,49.5,35.53Zm143-44.99h10c4.14,0,7.5,3.36,7.5,7.5s-3.36,7.5-7.5,7.5h-10c-4.14,0-7.5-3.36-7.5-7.5s3.36-7.5,7.5-7.5Zm-40,0h10c4.14,0,7.5,3.36,7.5,7.5s-3.36,7.5-7.5,7.5h-10c-4.14,0-7.5-3.36-7.5-7.5s3.36-7.5,7.5-7.5Zm-40,0h10c4.14,0,7.5,3.36,7.5,7.5s-3.36,7.5-7.5,7.5h-10c-4.14,0-7.5-3.36-7.5-7.5s3.36-7.5,7.5-7.5Z"/>
  </g>
</svg>