<?xml version="1.0" encoding="UTF-8"?>
<svg id="OBJECT" xmlns="http://www.w3.org/2000/svg" viewBox="0 0 32 32">
  <defs>
    <style>
      .cls-1 {
        fill: #FD4360;
      }

      .cls-1, .cls-2 {
        stroke-width: 0px;
      }

      .cls-2 {
        fill: #dadada;
      }
    </style>
  </defs>
  <g>
    <rect class="cls-1" x="5" y="5" width="8" height="8" rx="1" ry="1"/>
    <path class="cls-1" d="m16,8h10c.55,0,1-.45,1-1s-.45-1-1-1h-10c-.55,0-1,.45-1,1s.45,1,1,1Z"/>
    <path class="cls-1" d="m26,15H6c-.55,0-1,.45-1,1s.45,1,1,1h20c.55,0,1-.45,1-1s-.45-1-1-1Z"/>
    <path class="cls-1" d="m26,19H9.8c-.55,0-1,.45-1,1s.45,1,1,1h16.2c.55,0,1-.45,1-1s-.45-1-1-1Z"/>
    <path class="cls-1" d="m7,19h-1c-.55,0-1,.45-1,1s.45,1,1,1h1c.55,0,1-.45,1-1s-.45-1-1-1Z"/>
    <path class="cls-1" d="m16,12h6c.55,0,1-.45,1-1s-.45-1-1-1h-6c-.55,0-1,.45-1,1s.45,1,1,1Z"/>
    <path class="cls-1" d="m26,10h-1c-.55,0-1,.45-1,1s.45,1,1,1h1c.55,0,1-.45,1-1s-.45-1-1-1Z"/>
  </g>
  <path class="cls-2" d="m27.96,1H4.04c-1.68,0-3.04,1.37-3.04,3.04v18.91c0,1.68,1.37,3.04,3.04,3.04h7.46v3h-4.5c-.55,0-1,.45-1,1s.45,1,1,1h18c.55,0,1-.45,1-1s-.45-1-1-1h-4.5v-3h7.46c1.68,0,3.04-1.37,3.04-3.04V4.04c0-1.68-1.37-3.04-3.04-3.04Zm-9.46,28h-5v-3h5v3Zm10.5-6.04c0,.58-.47,1.04-1.04,1.04H4.04c-.58,0-1.04-.47-1.04-1.04V4.04c0-.58.47-1.04,1.04-1.04h23.91c.58,0,1.04.47,1.04,1.04v18.91Z"/>
</svg>