<?xml version="1.0" encoding="UTF-8"?>
<svg id="OBJECT" xmlns="http://www.w3.org/2000/svg" viewBox="0 0 32 32">
  <defs>
    <style>
      .cls-1 {
        fill: #FD4360;
      }

      .cls-1, .cls-2 {
        stroke-width: 0px;
      }

      .cls-2 {
        fill: #dadada;
      }
    </style>
  </defs>
  <g>
    <path class="cls-2" d="m7,15c-.55,0-1,.45-1,1v5c0,2.85,4.3,5,10,5s10-2.15,10-5v-5c0-.55-.45-1-1-1s-1,.45-1,1v1c0,1.22-3.12,3-8,3s-8-1.78-8-3v-1c0-.55-.45-1-1-1Zm9,7c3.35,0,6.21-.75,8-1.94v.94c0,1.22-3.12,3-8,3s-8-1.78-8-3v-.94c1.79,1.19,4.65,1.94,8,1.94Z"/>
    <path class="cls-2" d="m16,5c.55,0,1-.45,1-1v-2c0-.55-.45-1-1-1s-1,.45-1,1v2c0,.55.45,1,1,1Z"/>
    <path class="cls-2" d="m26.76,1.03l-3.24.81c-.89.22-1.51,1.02-1.51,1.94v1.22c0,.55.45,1,1,1s1-.45,1-1v-1.22l3.24-.81c.54-.13.86-.68.73-1.21-.13-.54-.68-.86-1.21-.73Z"/>
    <path class="cls-2" d="m4.76,2.97l3.24.81v1.22c0,.55.45,1,1,1s1-.45,1-1v-1.22c0-.92-.62-1.72-1.51-1.94l-3.24-.81c-.54-.13-1.08.19-1.21.73-.13.54.19,1.08.73,1.21Z"/>
    <path class="cls-2" d="m16,27c-.55,0-1,.45-1,1v2c0,.55.45,1,1,1s1-.45,1-1v-2c0-.55-.45-1-1-1Z"/>
    <path class="cls-2" d="m27.24,29.03l-3.24-.81v-1.22c0-.55-.45-1-1-1s-1,.45-1,1v1.22c0,.92.62,1.72,1.51,1.94l3.24.81c.08.02.16.03.24.03.45,0,.86-.3.97-.76.13-.54-.19-1.08-.73-1.21Z"/>
    <path class="cls-2" d="m9,26c-.55,0-1,.45-1,1v1.22l-3.24.81c-.54.13-.86.68-.73,1.21.11.45.52.76.97.76.08,0,.16,0,.24-.03l3.24-.81c.89-.22,1.51-1.02,1.51-1.94v-1.22c0-.55-.45-1-1-1Z"/>
    <path class="cls-2" d="m30,9c-.55,0-1,.45-1,1v12c0,.55.45,1,1,1s1-.45,1-1v-12c0-.55-.45-1-1-1Z"/>
    <path class="cls-2" d="m2,9c-.55,0-1,.45-1,1v12c0,.55.45,1,1,1s1-.45,1-1v-12c0-.55-.45-1-1-1Z"/>
  </g>
  <path class="cls-1" d="m16,6c-5.7,0-10,2.15-10,5s4.3,5,10,5,10-2.15,10-5-4.3-5-10-5Zm-3.75,6h-.5c-.55,0-1-.45-1-1s.45-1,1-1h.5c.55,0,1,.45,1,1s-.45,1-1,1Zm4,0h-.5c-.55,0-1-.45-1-1s.45-1,1-1h.5c.55,0,1,.45,1,1s-.45,1-1,1Zm4,0h-.5c-.55,0-1-.45-1-1s.45-1,1-1h.5c.55,0,1,.45,1,1s-.45,1-1,1Z"/>
</svg>