<?xml version="1.0" encoding="UTF-8"?>
<svg id="OBJECT" xmlns="http://www.w3.org/2000/svg" viewBox="0 0 512 512">
  <defs>
    <style>
      .cls-1 {
        fill: #FD4360;
      }

      .cls-2 {
        fill: #dadada;
      }
    </style>
  </defs>
  <g>
    <path class="cls-2" d="M416,125c12.41,0,22.5-10.09,22.5-22.5V22.5c0-12.41-10.09-22.5-22.5-22.5H96c-12.41,0-22.5,10.09-22.5,22.5V102.5c0,12.41,10.09,22.5,22.5,22.5h2.5v20h-2.5c-12.41,0-22.5,10.09-22.5,22.5v80c0,12.41,10.09,22.5,22.5,22.5H416c12.41,0,22.5-10.09,22.5-22.5v-80c0-12.41-10.09-22.5-22.5-22.5h-2.5v-20h2.5ZM88.5,102.5V22.5c0-4.14,3.36-7.5,7.5-7.5H416c4.14,0,7.5,3.36,7.5,7.5V102.5c0,4.14-3.36,7.5-7.5,7.5H96c-4.14,0-7.5-3.36-7.5-7.5Zm335,65v80c0,4.14-3.36,7.5-7.5,7.5H96c-4.14,0-7.5-3.36-7.5-7.5v-80c0-4.14,3.36-7.5,7.5-7.5H416c4.14,0,7.5,3.36,7.5,7.5Zm-25-22.5H113.5v-20H398.5v20Z"/>
    <path class="cls-2" d="M401,37.5h-130c-4.14,0-7.5,3.36-7.5,7.5v35c0,4.14,3.36,7.5,7.5,7.5h130c4.14,0,7.5-3.36,7.5-7.5V45c0-4.14-3.36-7.5-7.5-7.5Zm-7.5,35h-115v-20h115v20Z"/>
    <path class="cls-2" d="M136,30c-17.92,0-32.5,14.58-32.5,32.5s14.58,32.5,32.5,32.5,32.5-14.58,32.5-32.5-14.58-32.5-32.5-32.5Zm0,50c-9.65,0-17.5-7.85-17.5-17.5s7.85-17.5,17.5-17.5,17.5,7.85,17.5,17.5-7.85,17.5-17.5,17.5Z"/>
    <path class="cls-2" d="M216,30c-17.92,0-32.5,14.58-32.5,32.5s14.58,32.5,32.5,32.5,32.5-14.58,32.5-32.5-14.58-32.5-32.5-32.5Zm0,50c-9.65,0-17.5-7.85-17.5-17.5s7.85-17.5,17.5-17.5,17.5,7.85,17.5,17.5-7.85,17.5-17.5,17.5Z"/>
    <path class="cls-2" d="M271,232.5h130c4.14,0,7.5-3.36,7.5-7.5v-35c0-4.14-3.36-7.5-7.5-7.5h-130c-4.14,0-7.5,3.36-7.5,7.5v35c0,4.14,3.36,7.5,7.5,7.5Zm7.5-35h115v20h-115v-20Z"/>
    <path class="cls-2" d="M136,240c17.92,0,32.5-14.58,32.5-32.5s-14.58-32.5-32.5-32.5-32.5,14.58-32.5,32.5,14.58,32.5,32.5,32.5Zm0-50c9.65,0,17.5,7.85,17.5,17.5s-7.85,17.5-17.5,17.5-17.5-7.85-17.5-17.5,7.85-17.5,17.5-17.5Z"/>
    <path class="cls-2" d="M216,240c17.92,0,32.5-14.58,32.5-32.5s-14.58-32.5-32.5-32.5-32.5,14.58-32.5,32.5,14.58,32.5,32.5,32.5Zm0-50c9.65,0,17.5,7.85,17.5,17.5s-7.85,17.5-17.5,17.5-17.5-7.85-17.5-17.5,7.85-17.5,17.5-17.5Z"/>
  </g>
  <g>
    <rect class="cls-1" x="138.5" y="285" width="235" height="30"/>
    <circle class="cls-1" cx="256" cy="469.5" r="42.5"/>
    <path class="cls-1" d="M271,397.04h-30c-4.14,0-7.5,3.36-7.5,7.5s3.36,7.5,7.5,7.5h30c4.14,0,7.5-3.36,7.5-7.5s-3.36-7.5-7.5-7.5Z"/>
    <circle class="cls-1" cx="406" cy="419.5" r="32.5"/>
    <circle class="cls-1" cx="106" cy="419.5" r="32.5"/>
    <path class="cls-1" d="M278.5,330h-45v44.54c0,4.14,3.36,7.5,7.5,7.5h30c4.14,0,7.5-3.36,7.5-7.5v-44.54Z"/>
    <path class="cls-1" d="M355.62,401.23l-31.17-6.56c-3.45-.73-5.95-3.81-5.95-7.34v-57.33h-15v57.33c0,10.58,7.51,19.84,17.86,22.02l31.17,6.56c.52,.11,1.04,.16,1.55,.16,3.47,0,6.59-2.42,7.33-5.96,.85-4.05-1.74-8.03-5.79-8.88Z"/>
    <path class="cls-1" d="M193.5,387.33c0,3.53-2.5,6.61-5.95,7.34l-31.17,6.56c-4.05,.85-6.65,4.83-5.79,8.88,.74,3.53,3.86,5.96,7.33,5.96,.51,0,1.03-.05,1.55-.16l31.17-6.56c10.35-2.18,17.86-11.44,17.86-22.02v-57.33h-15v57.33Z"/>
  </g>
</svg>