<?xml version="1.0" encoding="UTF-8"?>
<svg id="OBJECT" xmlns="http://www.w3.org/2000/svg" viewBox="0 0 32 32">
  <defs>
    <style>
      .cls-1 {
        fill: #FD4360;
      }

      .cls-1, .cls-2 {
        stroke-width: 0px;
      }

      .cls-2 {
        fill: #dadada;
      }
    </style>
  </defs>
  <path class="cls-2" d="m27.06,17.43c-.66-.78-1.79-1.53-2.95-1.94-1.36-.48-2.55-.43-3.39.11l-3.72-3.44V2c0-.55-.45-1-1-1s-1,.45-1,1v10.17l-3.72,3.44c-.85-.55-2.03-.59-3.39-.11-1.16.41-2.29,1.15-2.95,1.94-.69.82-1.01,1.85-.92,2.92.09,1.06.6,2.03,1.41,2.72.73.61,1.63.94,2.56.94.12,0,.24,0,.36-.02,1.06-.09,2.03-.6,2.72-1.41.66-.78,1.19-2.03,1.39-3.24.13-.77.11-1.46-.04-2.05l2.58-2.39v4.11c0,.06.02.11.03.17-2.49.83-4.03,4.69-4.03,6.83,0,2.76,2.24,5,5,5s5-2.24,5-5c0-2.14-1.54-6-4.03-6.83,0-.06.03-.11.03-.17v-4.11l2.58,2.39c-.15.59-.16,1.28-.04,2.05.2,1.22.74,2.46,1.39,3.24.69.82,1.65,1.32,2.72,1.41.12.01.24.02.36.02.94,0,1.84-.33,2.56-.94.82-.69,1.32-1.65,1.41-2.72.09-1.06-.23-2.1-.92-2.92Zm-16.58,1.57c-.14.86-.52,1.78-.95,2.29-.34.41-.83.66-1.36.71-.53.05-1.05-.12-1.46-.46-.41-.34-.66-.83-.71-1.36-.05-.53.12-1.05.46-1.46h0c.43-.51,1.27-1.05,2.08-1.33.41-.14.8-.22,1.1-.22.26,0,.47.05.59.16.27.23.37.89.23,1.68Zm5.52,10c-1.65,0-3-1.35-3-3,0-.36.05-.76.15-1.16,1.88-.43,3.82-.43,5.7,0,.1.41.15.8.15,1.16,0,1.65-1.35,3-3,3Zm1.95-6.36c-1.29-.17-2.6-.17-3.89,0,.57-.94,1.28-1.64,1.95-1.64s1.38.7,1.95,1.64Zm7.34-1.11c-.41.34-.93.51-1.46.46-.53-.05-1.01-.3-1.36-.71-.43-.51-.81-1.43-.95-2.29-.13-.79-.04-1.45.23-1.68.12-.1.33-.16.59-.16.31,0,.69.07,1.1.22.82.29,1.66.83,2.08,1.33h0c.34.41.51.93.46,1.46-.05.53-.3,1.01-.71,1.36Z"/>
  <g>
    <path class="cls-1" d="m27.06,8.43c-.66-.78-1.79-1.53-2.95-1.94-1.13-.4-2.15-.44-2.95-.12l-2.16-1.5v2.44l.75.53c-.28.68-.37,1.52-.21,2.5.2,1.22.74,2.46,1.39,3.24.69.82,1.65,1.32,2.72,1.41.12.01.24.02.36.02.94,0,1.84-.33,2.56-.94.82-.69,1.32-1.65,1.41-2.72.09-1.06-.23-2.1-.92-2.92Z"/>
    <path class="cls-1" d="m7.89,6.49c-1.16.41-2.29,1.15-2.95,1.94-.69.82-1.01,1.85-.92,2.92.09,1.06.6,2.03,1.41,2.72.73.61,1.63.94,2.56.94.12,0,.24,0,.36-.02,1.06-.09,2.03-.6,2.72-1.41.66-.78,1.19-2.03,1.39-3.24.16-.98.07-1.82-.21-2.5l.75-.52v-2.44l-2.16,1.5c-.8-.32-1.81-.28-2.95.12Z"/>
  </g>
</svg>