<?xml version="1.0" encoding="UTF-8"?>
<svg id="OBJECT" xmlns="http://www.w3.org/2000/svg" viewBox="0 0 512 512">
  <defs>
    <style>
      .cls-1 {
        fill: #FD4360;
      }

      .cls-2 {
        fill: #dadada;
      }
    </style>
  </defs>
  <g>
    <path class="cls-2" d="M504.5,457h-26V219.5c0-12.41-10.09-22.5-22.5-22.5h-33.91c-4.14,0-7.5,3.36-7.5,7.5s3.36,7.5,7.5,7.5h33.91c4.14,0,7.5,3.36,7.5,7.5v197.5H48.5V219.5c0-4.14,3.36-7.5,7.5-7.5h33.91c4.14,0,7.5-3.36,7.5-7.5s-3.36-7.5-7.5-7.5H56c-12.41,0-22.5,10.09-22.5,22.5v237.5H7.5c-4.14,0-7.5,3.36-7.5,7.5v25c0,12.41,10.09,22.5,22.5,22.5H489.5c12.41,0,22.5-10.09,22.5-22.5v-25c0-4.14-3.36-7.5-7.5-7.5Zm-456-25H463.5v25H48.5v-25Zm448.5,57.5c0,4.14-3.36,7.5-7.5,7.5H22.5c-4.14,0-7.5-3.36-7.5-7.5v-17.5H497v17.5Z"/>
    <path class="cls-2" d="M406,397h20c12.41,0,22.5-10.09,22.5-22.5v-5c0-12.41-10.09-22.5-22.5-22.5h-20c-12.41,0-22.5,10.09-22.5,22.5v5c0,12.41,10.09,22.5,22.5,22.5Zm-7.5-27.5c0-4.14,3.36-7.5,7.5-7.5h20c4.14,0,7.5,3.36,7.5,7.5v5c0,4.14-3.36,7.5-7.5,7.5h-20c-4.14,0-7.5-3.36-7.5-7.5v-5Z"/>
    <path class="cls-2" d="M63.5,369.5v5c0,12.41,10.09,22.5,22.5,22.5h20c12.41,0,22.5-10.09,22.5-22.5v-5c0-12.41-10.09-22.5-22.5-22.5h-20c-12.41,0-22.5,10.09-22.5,22.5Zm50,0v5c0,4.14-3.36,7.5-7.5,7.5h-20c-4.14,0-7.5-3.36-7.5-7.5v-5c0-4.14,3.36-7.5,7.5-7.5h20c4.14,0,7.5,3.36,7.5,7.5Z"/>
  </g>
  <g>
    <path class="cls-1" d="M278.5,47.5c0-1.38,1.12-2.5,2.5-2.5h22.5V0h-22.5c-26.23,0-47.5,21.27-47.5,47.5v22.5h45v-22.5Z"/>
    <path class="cls-1" d="M321,42.5c4.14,0,7.5-3.36,7.5-7.5V10c0-4.14-3.36-7.5-7.5-7.5s-7.5,3.36-7.5,7.5v25c0,4.14,3.36,7.5,7.5,7.5Z"/>
    <path class="cls-1" d="M333.5,111.98v-26.98H178.5v23.73h87.5c4.14,0,7.5,3.36,7.5,7.5s-3.36,7.5-7.5,7.5h-103.84c-33.57,27.78-53.66,69.51-53.66,113.77,0,81.33,66.17,147.5,147.5,147.5s147.5-66.17,147.5-147.5c0-51.04-26.71-98.73-70-125.52Zm-42.5-3.25h5c4.14,0,7.5,3.36,7.5,7.5s-3.36,7.5-7.5,7.5h-5c-4.14,0-7.5-3.36-7.5-7.5s3.36-7.5,7.5-7.5ZM144,248.16c-.09-.94-.17-1.88-.23-2.82-.28-4.13,2.84-7.71,6.97-8,4.13-.27,7.71,2.84,8,6.97,.06,.82,.12,1.64,.2,2.45,.39,4.12-2.64,7.78-6.77,8.17-.24,.02-.47,.03-.71,.03-3.83,0-7.09-2.91-7.46-6.8Zm90.58,92.43c-.94,3.3-3.94,5.45-7.21,5.45-.68,0-1.37-.09-2.05-.29-36.37-10.32-65.85-39.2-76.92-75.37-1.21-3.96,1.02-8.15,4.98-9.37,3.96-1.21,8.15,1.01,9.37,4.98,9.6,31.35,35.15,56.38,66.67,65.33,3.98,1.13,6.3,5.28,5.17,9.26Zm21.42-25.47c-41.36,0-75-33.65-75-75s33.64-75,75-75,75,33.65,75,75-33.64,75-75,75Z"/>
    <path class="cls-1" d="M256,180.11c-33.08,0-60,26.92-60,60s26.92,60,60,60,60-26.92,60-60-26.92-60-60-60Zm32.8,82.2c2.93,2.93,2.93,7.68,0,10.61-1.46,1.46-3.38,2.2-5.3,2.2s-3.84-.73-5.3-2.2l-22.2-22.2-22.2,22.2c-1.46,1.46-3.38,2.2-5.3,2.2s-3.84-.73-5.3-2.2c-2.93-2.93-2.93-7.68,0-10.61l22.2-22.2-22.2-22.2c-2.93-2.93-2.93-7.68,0-10.61,2.93-2.93,7.68-2.93,10.61,0l22.2,22.2,22.2-22.2c2.93-2.93,7.68-2.93,10.61,0,2.93,2.93,2.93,7.68,0,10.61l-22.2,22.2,22.2,22.2Z"/>
  </g>
</svg>