<?xml version="1.0" encoding="UTF-8"?>
<svg id="OBJECT" xmlns="http://www.w3.org/2000/svg" viewBox="0 0 32 32">
  <defs>
    <style>
      .cls-1 {
        fill: #FD4360;
      }

      .cls-1, .cls-2 {
        stroke-width: 0px;
      }

      .cls-2 {
        fill: #dadada;
      }
    </style>
  </defs>
  <g>
    <path class="cls-2" d="m26.29,4.29l-3.41,3.41c-1.06-.94-2.23-1.74-3.49-2.38-1.19-.59-2.62-.37-3.56.58l-2.16,2.16c-.39-.04-.78-.06-1.17-.06-6.34,0-11.5,5.16-11.5,11.5s5.16,11.5,11.5,11.5,11.5-5.16,11.5-11.5c0-.4-.02-.79-.06-1.17l2.16-2.16c.94-.94,1.17-2.37.58-3.56-.63-1.27-1.44-2.44-2.38-3.49l3.41-3.41c.39-.39.39-1.02,0-1.41s-1.02-.39-1.41,0Zm-13.79,24.71c-5.24,0-9.5-4.26-9.5-9.5s4.26-9.5,9.5-9.5,9.5,4.26,9.5,9.5-4.26,9.5-9.5,9.5Zm12.18-14.24l-1.23,1.23c-1.13-3.52-3.92-6.31-7.44-7.44l1.23-1.23c.33-.33.84-.41,1.25-.2,2.75,1.37,5.02,3.64,6.39,6.39.21.42.13.92-.2,1.26Z"/>
    <path class="cls-2" d="m30.71,1.29c-.39-.39-1.02-.39-1.41,0l-.5.5c-.39.39-.39,1.02,0,1.41.2.2.45.29.71.29s.51-.1.71-.29l.5-.5c.39-.39.39-1.02,0-1.41Z"/>
  </g>
  <path class="cls-1" d="m12.5,11.75c-4.27,0-7.75,3.48-7.75,7.75s3.48,7.75,7.75,7.75c.55,0,1-.45,1-1v-5.75h5.75c.55,0,1-.45,1-1,0-4.27-3.48-7.75-7.75-7.75Z"/>
</svg>