<?xml version="1.0" encoding="UTF-8"?>
<svg id="OBJECT" xmlns="http://www.w3.org/2000/svg" viewBox="0 0 32 32">
  <defs>
    <style>
      .cls-1 {
        fill: #FD4360;
      }

      .cls-1, .cls-2 {
        stroke-width: 0px;
      }

      .cls-2 {
        fill: #dadada;
      }
    </style>
  </defs>
  <path class="cls-2" d="m16,12c-5.24,0-9.5,4.26-9.5,9.5s4.26,9.5,9.5,9.5,9.5-4.26,9.5-9.5-4.26-9.5-9.5-9.5Zm-4.31,15.63v-.81c0-1.33.62-2.55,1.65-3.35.67.71,1.61,1.17,2.66,1.17s1.99-.45,2.66-1.17c1.03.81,1.65,2.03,1.65,3.35v.81c-1.22.86-2.71,1.37-4.31,1.37s-3.09-.51-4.31-1.37Zm2.66-6.66v-1.59c0-.62.5-1.12,1.12-1.12h1.06c.62,0,1.12.5,1.12,1.12v1.59c0,.91-.74,1.66-1.66,1.66s-1.66-.74-1.66-1.66Zm7.86,4.74c-.29-1.64-1.22-3.1-2.62-4.06.04-.22.07-.45.07-.68v-1.59c0-1.72-1.4-3.12-3.12-3.12h-1.06c-1.72,0-3.12,1.4-3.12,3.12v1.59c0,.23.03.46.07.68-1.39.96-2.32,2.42-2.62,4.06-.82-1.2-1.3-2.65-1.3-4.21,0-4.14,3.36-7.5,7.5-7.5s7.5,3.36,7.5,7.5c0,1.56-.48,3.01-1.3,4.21Z"/>
  <g>
    <path class="cls-1" d="m20.71,5.29l-4-4c-.39-.39-1.02-.39-1.41,0l-4,4c-.39.39-.39,1.02,0,1.41s1.02.39,1.41,0l.29-.29v4c.96-.26,1.96-.41,3-.41s2.04.15,3,.41v-4l.29.29c.2.2.45.29.71.29s.51-.1.71-.29c.39-.39.39-1.02,0-1.41Z"/>
    <path class="cls-1" d="m30.71,8.29l-3-3c-.39-.39-1.02-.39-1.41,0s-.39,1.02,0,1.41l1.29,1.29h-3.27c-1.83,0-3.35,1.24-3.83,2.91.65.27,1.26.61,1.84.99.05-1.06.92-1.9,1.99-1.9h3.27l-1.29,1.29c-.39.39-.39,1.02,0,1.41.2.2.45.29.71.29s.51-.1.71-.29l3-3c.39-.39.39-1.02,0-1.41Z"/>
    <path class="cls-1" d="m7.69,8h-3.27l1.29-1.29c.39-.39.39-1.02,0-1.41s-1.02-.39-1.41,0l-3,3c-.39.39-.39,1.02,0,1.41l3,3c.2.2.45.29.71.29s.51-.1.71-.29c.39-.39.39-1.02,0-1.41l-1.29-1.29h3.27c1.07,0,1.94.85,1.99,1.9.58-.38,1.19-.72,1.84-.99-.48-1.67-2-2.91-3.83-2.91Z"/>
  </g>
</svg>