<?xml version="1.0" encoding="UTF-8"?>
<svg id="OBJECT" xmlns="http://www.w3.org/2000/svg" viewBox="0 0 32 32">
  <defs>
    <style>
      .cls-1 {
        fill: #FD4360;
      }

      .cls-1, .cls-2 {
        stroke-width: 0px;
      }

      .cls-2 {
        fill: #dadada;
      }
    </style>
  </defs>
  <path class="cls-2" d="m28,9h-3.68c-.55,0-1,.45-1,1s.45,1,1,1h3.27l-10.59,10.59c-.53.54-1.47.54-2,0L4.41,11h3.27c.55,0,1-.45,1-1s-.45-1-1-1h-3.68c-1.65,0-3,1.35-3,3v16c0,1.65,1.35,3,3,3h24c1.65,0,3-1.35,3-3V12c0-1.65-1.35-3-3-3Zm-6.59,11l7.59-7.59v15.17l-7.59-7.59Zm-5.41,4c.91,0,1.77-.36,2.41-1l1.59-1.59,7.59,7.59H4.41l7.59-7.59,1.59,1.59c.64.64,1.5,1,2.41,1Zm-5.41-4l-7.59,7.59v-15.17l7.59,7.59Z"/>
  <path class="cls-1" d="m16,14c3.58,0,6.5-2.92,6.5-6.5s-2.92-6.5-6.5-6.5-6.5,2.92-6.5,6.5,2.92,6.5,6.5,6.5Zm-1-9.29c0-.55.45-1,1-1s1,.45,1,1v2.37l1.56,1.56c.39.39.39,1.02,0,1.41-.2.2-.45.29-.71.29s-.51-.1-.71-.29l-1.86-1.86c-.19-.19-.29-.44-.29-.71v-2.79Z"/>
</svg>