<?xml version="1.0" encoding="UTF-8"?>
<svg id="OBJECT" xmlns="http://www.w3.org/2000/svg" viewBox="0 0 32 32">
  <defs>
    <style>
      .cls-1 {
        fill: #FD4360;
      }

      .cls-2 {
        fill: #dadada;
      }
    </style>
  </defs>
  <g>
    <path class="cls-2" d="M14,19h-5c-.55,0-1,.45-1,1s.45,1,1,1h5c.55,0,1-.45,1-1s-.45-1-1-1Z"/>
    <path class="cls-2" d="M19,14.5H9c-.55,0-1,.45-1,1s.45,1,1,1h10c.55,0,1-.45,1-1s-.45-1-1-1Z"/>
    <path class="cls-2" d="M9,12h6c.55,0,1-.45,1-1s-.45-1-1-1h-6c-.55,0-1,.45-1,1s.45,1,1,1Z"/>
    <path class="cls-2" d="M23.71,7.29L17.71,1.29c-.19-.19-.44-.29-.71-.29H6.5c-1.38,0-2.5,1.12-2.5,2.5V24.5c0,1.38,1.12,2.5,2.5,2.5h6.71c.55,0,1-.45,1-1s-.45-1-1-1H6.5c-.28,0-.5-.22-.5-.5V3.5c0-.28,.22-.5,.5-.5h9.5v3.5c0,1.38,1.12,2.5,2.5,2.5h3.5v7.21c0,.55,.45,1,1,1s1-.45,1-1V8c0-.27-.11-.52-.29-.71Zm-5.71-.79v-2.09l2.59,2.59h-2.09c-.28,0-.5-.22-.5-.5Z"/>
  </g>
  <path class="cls-1" d="M21.5,18c-3.58,0-6.5,2.92-6.5,6.5s2.92,6.5,6.5,6.5,6.5-2.92,6.5-6.5-2.92-6.5-6.5-6.5Zm2.46,7.54c.39,.39,.39,1.02,0,1.41-.2,.2-.45,.29-.71,.29s-.51-.1-.71-.29l-1.04-1.04-1.04,1.04c-.2,.2-.45,.29-.71,.29s-.51-.1-.71-.29c-.39-.39-.39-1.02,0-1.41l1.04-1.04-1.04-1.04c-.39-.39-.39-1.02,0-1.41s1.02-.39,1.41,0l1.04,1.04,1.04-1.04c.39-.39,1.02-.39,1.41,0s.39,1.02,0,1.41l-1.04,1.04,1.04,1.04Z"/>
</svg>