<?xml version="1.0" encoding="UTF-8"?>
<svg id="OBJECT" xmlns="http://www.w3.org/2000/svg" viewBox="0 0 32 32">
  <defs>
    <style>
      .cls-1 {
        fill: #FD4360;
      }

      .cls-1, .cls-2 {
        stroke-width: 0px;
      }

      .cls-2 {
        fill: #dadada;
      }
    </style>
  </defs>
  <path class="cls-1" d="m12,9.5c0-3.03-2.47-5.5-5.5-5.5S1,6.47,1,9.5s2.47,5.5,5.5,5.5,5.5-2.47,5.5-5.5Zm-5.99,2.13c-.22,0-.44-.09-.6-.25l-1.57-1.57c-.33-.33-.33-.87,0-1.2.33-.33.87-.33,1.2,0l.97.97,1.95-1.97c.33-.33.87-.33,1.2,0,.33.33.33.86,0,1.2l-2.55,2.57c-.16.16-.37.25-.6.25h0Z"/>
  <g>
    <path class="cls-2" d="m28,11h-5v-2c0-.55-.45-1-1-1h-7.21c-.55,0-1,.45-1,1s.45,1,1,1h6.21v12H6v-4.61c0-.55-.45-1-1-1s-1,.45-1,1v5.61c0,.55.45,1,1,1h1c0,2.21,1.79,4,4,4s4-1.79,4-4h7c0,2.21,1.79,4,4,4s4-1.79,4-4h1c.55,0,1-.45,1-1v-9c0-1.65-1.35-3-3-3Zm-18,15c-1.1,0-2-.9-2-2h4c0,1.1-.9,2-2,2Zm15,0c-1.1,0-2-.9-2-2h4c0,1.1-.9,2-2,2Zm-2-4v-9h5c.55,0,1,.45,1,1v1h-3.17c-.55,0-1,.45-1,1s.45,1,1,1h3.17v5h-6Z"/>
    <path class="cls-2" d="m8,21h5c.55,0,1-.45,1-1s-.45-1-1-1h-5c-.55,0-1,.45-1,1s.45,1,1,1Z"/>
    <path class="cls-2" d="m17,21c.55,0,1-.45,1-1s-.45-1-1-1h-1c-.55,0-1,.45-1,1s.45,1,1,1h1Z"/>
  </g>
</svg>