<?xml version="1.0" encoding="UTF-8"?>
<svg id="OBJECT" xmlns="http://www.w3.org/2000/svg" viewBox="0 0 32 32">
  <defs>
    <style>
      .cls-1 {
        fill: #FD4360;
      }

      .cls-1, .cls-2 {
        stroke-width: 0px;
      }

      .cls-2 {
        fill: #dadada;
      }
    </style>
  </defs>
  <g>
    <path class="cls-2" d="m22,8h-2.5v-3c0-.55-.45-1-1-1H5.5c-.55,0-1,.45-1,1v3h-2.5c-.55,0-1,.45-1,1v14c0,.55.45,1,1,1h2v.5c0,1.93,1.57,3.5,3.5,3.5s3.5-1.57,3.5-3.5v-.5h11c.55,0,1-.45,1-1v-14c0-.55-.45-1-1-1Zm-11.5-2h3v3.52l-1.13-.45c-.24-.09-.5-.09-.74,0l-1.13.45v-3.52Zm-4,0h2v5c0,.33.16.64.44.83.27.19.62.22.93.1l2.13-.85,2.13.85c.12.05.25.07.37.07.2,0,.39-.06.56-.17.27-.19.44-.5.44-.83v-5h2v12H6.5V6Zm2.5,18.5c0,.83-.67,1.5-1.5,1.5s-1.5-.67-1.5-1.5v-.5h3v.5Zm12-2.5H3v-12h1.5v9c0,.55.45,1,1,1h13c.55,0,1-.45,1-1v-9h1.5v12Z"/>
    <path class="cls-2" d="m15,14h-6c-.55,0-1,.45-1,1s.45,1,1,1h6c.55,0,1-.45,1-1s-.45-1-1-1Z"/>
  </g>
  <g>
    <path class="cls-1" d="m25,25c0,1.66,1.34,3,3,3s3-1.34,3-3v-1h-6v1Z"/>
    <path class="cls-1" d="m28,18c-.55,0-1-.45-1-1s.45-1,1-1h2.41l-3.71-3.71c-.19-.19-.44-.29-.71-.29h-1v10h6v-4h-3Z"/>
  </g>
</svg>