<?xml version="1.0" encoding="UTF-8"?>
<svg id="OBJECT" xmlns="http://www.w3.org/2000/svg" viewBox="0 0 512 512">
  <defs>
    <style>
      .cls-1 {
        fill: #FD4360;
      }

      .cls-2 {
        fill: #dadada;
      }
    </style>
  </defs>
  <g>
    <path class="cls-2" d="M378.5,283.5h10c4.14,0,7.5-3.36,7.5-7.5s-3.36-7.5-7.5-7.5h-10c-4.14,0-7.5,3.36-7.5,7.5s3.36,7.5,7.5,7.5Z"/>
    <path class="cls-2" d="M419.5,353.5c-15.16,0-27.5,12.34-27.5,27.5s12.34,27.5,27.5,27.5,27.5-12.34,27.5-27.5-12.34-27.5-27.5-27.5Zm0,40c-6.89,0-12.5-5.61-12.5-12.5s5.61-12.5,12.5-12.5,12.5,5.61,12.5,12.5-5.61,12.5-12.5,12.5Z"/>
    <path class="cls-2" d="M494.5,348.5v-87.5c0-12.41-10.09-22.5-22.5-22.5h-27.05l-24.16-56.36c-3.55-8.28-11.67-13.64-20.68-13.64h-72.61v-22.5c0-4.14-3.36-7.5-7.5-7.5s-7.5,3.36-7.5,7.5v202.5H139.9c-10.38-15.08-27.75-25-47.4-25s-37.03,9.92-47.4,25h-7.6V146c0-4.14-3.36-7.5-7.5-7.5s-7.5,3.36-7.5,7.5v202.5h-5c-9.65,0-17.5,7.85-17.5,17.5v20c0,9.65,7.85,17.5,17.5,17.5h22.09c8.77,20.56,29.19,35,52.91,35s44.14-14.44,52.91-35h221.18c8.77,20.56,29.19,35,52.91,35s44.14-14.44,52.91-35h22.09c9.65,0,17.5-7.85,17.5-17.5v-20c0-9.65-7.85-17.5-17.5-17.5Zm-27.6,0c-5.65-8.21-13.37-14.89-22.4-19.27v-8.23c0-4.14,3.36-7.5,7.5-7.5h27.5v35h-12.6Zm-66.79-165c3,0,5.71,1.78,6.89,4.55l21.62,50.45h-101.13v-55h72.61Zm-72.61,70h144.5c4.14,0,7.5,3.36,7.5,7.5v37.5h-27.5c-12.41,0-22.5,10.09-22.5,22.5v3.39c-3.25-.57-6.59-.89-10-.89-19.65,0-37.03,9.92-47.4,25h-44.6v-95ZM17.5,388.5c-1.38,0-2.5-1.12-2.5-2.5v-20c0-1.38,1.12-2.5,2.5-2.5h20.23c-1.77,5.52-2.73,11.4-2.73,17.5,0,2.54,.18,5.04,.51,7.5H17.5Zm75,35c-23.43,0-42.5-19.07-42.5-42.5s19.07-42.5,42.5-42.5,42.5,19.07,42.5,42.5-19.07,42.5-42.5,42.5Zm56.99-35c.32-2.46,.51-4.96,.51-7.5,0-6.1-.96-11.98-2.73-17.5h217.46c-1.77,5.52-2.73,11.4-2.73,17.5,0,2.54,.18,5.04,.51,7.5H149.49Zm270.01,35c-23.43,0-42.5-19.07-42.5-42.5s19.07-42.5,42.5-42.5,42.5,19.07,42.5,42.5-19.07,42.5-42.5,42.5Zm77.5-37.5c0,1.38-1.12,2.5-2.5,2.5h-18.01c.32-2.46,.51-4.96,.51-7.5,0-6.1-.96-11.98-2.73-17.5h20.23c1.38,0,2.5,1.12,2.5,2.5v20Z"/>
    <path class="cls-2" d="M92.5,353.5c-15.16,0-27.5,12.34-27.5,27.5s12.34,27.5,27.5,27.5,27.5-12.34,27.5-27.5-12.34-27.5-27.5-27.5Zm0,40c-6.89,0-12.5-5.61-12.5-12.5s5.61-12.5,12.5-12.5,12.5,5.61,12.5,12.5-5.61,12.5-12.5,12.5Z"/>
    <path class="cls-2" d="M180,333.5h100c9.65,0,17.5-7.85,17.5-17.5v-50c0-9.65-7.85-17.5-17.5-17.5h-100c-9.65,0-17.5,7.85-17.5,17.5v50c0,9.65,7.85,17.5,17.5,17.5Zm-2.5-67.5c0-1.38,1.12-2.5,2.5-2.5h100c1.38,0,2.5,1.12,2.5,2.5v50c0,1.38-1.12,2.5-2.5,2.5h-100c-1.38,0-2.5-1.12-2.5-2.5v-50Z"/>
    <path class="cls-2" d="M200,306c4.14,0,7.5-3.36,7.5-7.5v-15c0-4.14-3.36-7.5-7.5-7.5s-7.5,3.36-7.5,7.5v15c0,4.14,3.36,7.5,7.5,7.5Z"/>
    <path class="cls-2" d="M230,306c4.14,0,7.5-3.36,7.5-7.5v-15c0-4.14-3.36-7.5-7.5-7.5s-7.5,3.36-7.5,7.5v15c0,4.14,3.36,7.5,7.5,7.5Z"/>
    <path class="cls-2" d="M260,306c4.14,0,7.5-3.36,7.5-7.5v-15c0-4.14-3.36-7.5-7.5-7.5s-7.5,3.36-7.5,7.5v15c0,4.14,3.36,7.5,7.5,7.5Z"/>
  </g>
  <g>
    <path class="cls-1" d="M337.5,73.5h-90v50h90c5.52,0,10-4.48,10-10v-30c0-5.52-4.48-10-10-10Z"/>
    <path class="cls-1" d="M2.5,83.5v30c0,5.52,4.48,10,10,10H102.5v-50H12.5c-5.52,0-10,4.48-10,10Z"/>
    <path class="cls-1" d="M117.5,210.78c0,2.15,.82,4.27,2.4,5.73,2.52,2.31,6.15,2.61,8.95,.92l46.14-27.68,46.14,27.68c1.19,.71,2.52,1.07,3.86,1.07s2.71-.37,3.92-1.1c2.29-1.4,3.58-4.01,3.58-6.7V73.5H117.5V210.78Zm37.5-107.28h40c4.14,0,7.5,3.36,7.5,7.5s-3.36,7.5-7.5,7.5h-40c-4.14,0-7.5-3.36-7.5-7.5s3.36-7.5,7.5-7.5Zm0,30h40c4.14,0,7.5,3.36,7.5,7.5s-3.36,7.5-7.5,7.5h-40c-4.14,0-7.5-3.36-7.5-7.5s3.36-7.5,7.5-7.5Z"/>
  </g>
</svg>