<?xml version="1.0" encoding="UTF-8"?>
<svg id="OBJECT" xmlns="http://www.w3.org/2000/svg" viewBox="0 0 512 512">
  <defs>
    <style>
      .cls-1 {
        fill: #FD4360;
      }

      .cls-2 {
        fill: #dadada;
      }
    </style>
  </defs>
  <g>
    <path class="cls-2" d="M65,317.5c0,9.65,7.85,17.5,17.5,17.5H212.5c9.65,0,17.5-7.85,17.5-17.5v-10c0-9.65-7.85-17.5-17.5-17.5H82.5c-9.65,0-17.5,7.85-17.5,17.5v10Zm15-10c0-1.38,1.12-2.5,2.5-2.5H212.5c1.38,0,2.5,1.12,2.5,2.5v10c0,1.38-1.12,2.5-2.5,2.5H82.5c-1.38,0-2.5-1.12-2.5-2.5v-10Z"/>
    <path class="cls-2" d="M82.5,275h60c9.65,0,17.5-7.85,17.5-17.5v-10c0-9.65-7.85-17.5-17.5-17.5h-60c-9.65,0-17.5,7.85-17.5,17.5v10c0,9.65,7.85,17.5,17.5,17.5Zm-2.5-27.5c0-1.38,1.12-2.5,2.5-2.5h60c1.38,0,2.5,1.12,2.5,2.5v10c0,1.38-1.12,2.5-2.5,2.5h-60c-1.38,0-2.5-1.12-2.5-2.5v-10Z"/>
    <path class="cls-2" d="M230,247.5c0-9.65-7.85-17.5-17.5-17.5h-20c-9.65,0-17.5,7.85-17.5,17.5v10c0,9.65,7.85,17.5,17.5,17.5h20c9.65,0,17.5-7.85,17.5-17.5v-10Zm-15,10c0,1.38-1.12,2.5-2.5,2.5h-20c-1.38,0-2.5-1.12-2.5-2.5v-10c0-1.38,1.12-2.5,2.5-2.5h20c1.38,0,2.5,1.12,2.5,2.5v10Z"/>
    <path class="cls-2" d="M327.5,120H157.5c-12.41,0-22.5,10.09-22.5,22.5v20c0,12.41,10.09,22.5,22.5,22.5h170c12.41,0,22.5-10.09,22.5-22.5v-20c0-12.41-10.09-22.5-22.5-22.5Zm7.5,42.5c0,4.14-3.36,7.5-7.5,7.5H157.5c-4.14,0-7.5-3.36-7.5-7.5v-20c0-4.14,3.36-7.5,7.5-7.5h170c4.14,0,7.5,3.36,7.5,7.5v20Z"/>
    <path class="cls-2" d="M462.5,0H22.5C10.09,0,0,10.09,0,22.5v50c0,12.41,10.09,22.5,22.5,22.5h2.5V352.5c0,12.41,10.09,22.5,22.5,22.5h239.79c4.14,0,7.5-3.36,7.5-7.5s-3.36-7.5-7.5-7.5H47.5c-4.14,0-7.5-3.36-7.5-7.5V95H445v196.04c0,4.14,3.36,7.5,7.5,7.5s7.5-3.36,7.5-7.5V95h2.5c12.41,0,22.5-10.09,22.5-22.5V22.5c0-12.41-10.09-22.5-22.5-22.5Zm7.5,72.5c0,4.14-3.36,7.5-7.5,7.5H22.5c-4.14,0-7.5-3.36-7.5-7.5V22.5c0-4.14,3.36-7.5,7.5-7.5H462.5c4.14,0,7.5,3.36,7.5,7.5v50Z"/>
  </g>
  <g>
    <circle class="cls-1" cx="446.45" cy="447" r="12.5"/>
    <path class="cls-1" d="M406.45,302c-57.9,0-105,47.1-105,105s47.1,105,105,105,105-47.1,105-105-47.1-105-105-105Zm-67.5,65c0-15.16,12.34-27.5,27.5-27.5s27.5,12.34,27.5,27.5-12.34,27.5-27.5,27.5-27.5-12.34-27.5-27.5Zm22.8,95.3c-1.46,1.46-3.38,2.2-5.3,2.2s-3.84-.73-5.3-2.2c-2.93-2.93-2.93-7.68,0-10.61l100-100c2.93-2.93,7.68-2.93,10.61,0,2.93,2.93,2.93,7.68,0,10.61l-100,100Zm84.7,12.2c-15.16,0-27.5-12.34-27.5-27.5s12.34-27.5,27.5-27.5,27.5,12.34,27.5,27.5-12.34,27.5-27.5,27.5Z"/>
    <circle class="cls-1" cx="366.45" cy="367" r="12.5"/>
  </g>
</svg>