<?xml version="1.0" encoding="UTF-8" standalone="no"?>
<svg
   id="OBJECT"
   viewBox="0 0 32 32"
   version="1.1"
   sodipodi:docname="Depoiment.svg"
   inkscape:version="1.2.2 (732a01da63, 2022-12-09)"
   xmlns:inkscape="http://www.inkscape.org/namespaces/inkscape"
   xmlns:sodipodi="http://sodipodi.sourceforge.net/DTD/sodipodi-0.dtd"
   xmlns="http://www.w3.org/2000/svg"
   xmlns:svg="http://www.w3.org/2000/svg">
  <sodipodi:namedview
     id="namedview27"
     pagecolor="#505050"
     bordercolor="#ffffff"
     borderopacity="1"
     inkscape:showpageshadow="0"
     inkscape:pageopacity="0"
     inkscape:pagecheckerboard="1"
     inkscape:deskcolor="#505050"
     showgrid="false"
     inkscape:zoom="6.4765625"
     inkscape:cx="5.4813028"
     inkscape:cy="-5.86731"
     inkscape:window-width="1920"
     inkscape:window-height="1009"
     inkscape:window-x="-8"
     inkscape:window-y="-8"
     inkscape:window-maximized="1"
     inkscape:current-layer="OBJECT" />
  <defs
     id="defs4">
    <style
       id="style2">
      .cls-1 {
        fill: #FD4360;
      }

      .cls-1, .cls-2 {
        stroke-width: 0px;
      }

      .cls-2 {
        fill: #dadada;
      }
    </style>
  </defs>
  <path
     class="cls-2"
     d="M 22,1 H 2 C 1.45,1 1,1.45 1,2 v 28 c 0,0.55 0.45,1 1,1 h 20 c 0.55,0 1,-0.45 1,-1 V 2 C 23,1.45 22.55,1 22,1 Z M 21,29 H 3 V 3 h 18 z"
     id="path6" />
  <path
     class="cls-2"
     d="m 5.5,27.5 h 13 c 0.55,0 1,-0.45 1,-1 0,-0.55 -0.45,-1 -1,-1 h -13 c -0.55,0 -1,0.45 -1,1 0,0.55 0.45,1 1,1 z"
     id="path8" />
  <path
     class="cls-2"
     d="m 9.5,19.5 h 9 c 0.55,0 1,-0.45 1,-1 0,-0.55 -0.45,-1 -1,-1 h -9 c -0.55,0 -1,0.45 -1,1 0,0.55 0.45,1 1,1 z"
     id="path10" />
  <path
     class="cls-2"
     d="M 5.5,19.5 H 6 c 0.55,0 1,-0.45 1,-1 0,-0.55 -0.45,-1 -1,-1 H 5.5 c -0.55,0 -1,0.45 -1,1 0,0.55 0.45,1 1,1 z"
     id="path12" />
  <path
     class="cls-2"
     d="m 5.5,23.5 h 13 c 0.55,0 1,-0.45 1,-1 0,-0.55 -0.45,-1 -1,-1 h -13 c -0.55,0 -1,0.45 -1,1 0,0.55 0.45,1 1,1 z"
     id="path14" />
  <g
     id="g24">
    <path
       class="cls-1"
       d="m26,23.5c0,1.7.54,3.38,1.5,4.78v1.72c0,.55.45,1,1,1s1-.45,1-1v-1.72c.96-1.4,1.5-3.08,1.5-4.78v-13.5h-5v13.5Z"
       id="path20" />
    <path
       class="cls-1"
       d="m29,4h-1c-1.1,0-2,.9-2,2v2h5v-2c0-1.1-.9-2-2-2Z"
       id="path22" />
  </g>
  <path
     class="cls-2"
     d="m 5.5,7.5 h 13 c 0.55,0 1,-0.45 1,-1 0,-0.55 -0.45,-1 -1,-1 h -13 c -0.55,0 -1,0.45 -1,1 0,0.55 0.45,1 1,1 z"
     id="path316" />
  <path
     class="cls-2"
     d="m 5.5,11.5 h 13 c 0.55,0 1,-0.45 1,-1 0,-0.55 -0.45,-1 -1,-1 h -13 c -0.55,0 -1,0.45 -1,1 0,0.55 0.45,1 1,1 z"
     id="path318" />
  <path
     class="cls-2"
     d="m 5.5,15.5 h 13 c 0.55,0 1,-0.45 1,-1 0,-0.55 -0.45,-1 -1,-1 h -13 c -0.55,0 -1,0.45 -1,1 0,0.55 0.45,1 1,1 z"
     id="path320" />
</svg>
