<?xml version="1.0" encoding="UTF-8"?>
<svg id="OBJECT" xmlns="http://www.w3.org/2000/svg" viewBox="0 0 512 512">
  <defs>
    <style>
      .cls-1 {
        fill: #FD4360;
      }

      .cls-2 {
        fill: #dadada;
      }
    </style>
  </defs>
  <g>
    <path class="cls-2" d="M461.74,237.62l-18.02-67.26c-1.07-4-5.19-6.38-9.19-5.3-4,1.07-6.38,5.18-5.3,9.19l.63,2.36-27.24,7.3c-6.43-17.72-15.2-34.33-25.96-49.44l19.09-19.09,10.11,10.11c4.65,4.65,10.76,6.97,16.86,6.97s12.21-2.32,16.86-6.97l15.41-15.41c9.3-9.3,9.3-24.43,0-33.73L385.66,6.99c-9.3-9.3-24.43-9.3-33.73,0l-15.41,15.41c-9.3,9.3-9.3,24.43,0,33.73l10.11,10.11-19.09,19.09c-15.11-10.75-31.71-19.52-49.43-25.95l7.3-27.24,2.36,.63c.65,.17,1.3,.26,1.95,.26,3.31,0,6.34-2.21,7.24-5.56,1.07-4-1.3-8.11-5.3-9.19L224.38,.26c-4-1.07-8.11,1.3-9.19,5.3-1.07,4,1.3,8.11,5.3,9.19l2.36,.63-8.51,31.75c-2.28-.07-4.56-.13-6.86-.13C93.08,47,0,140.09,0,254.5s93.08,207.5,207.5,207.5c30.79,0,60.44-6.6,88.13-19.61,3.75-1.76,5.36-6.23,3.6-9.98-1.76-3.75-6.23-5.36-9.98-3.6-25.68,12.07-53.19,18.19-81.75,18.19-106.15,0-192.5-86.36-192.5-192.5S101.35,62,207.5,62s192.5,86.36,192.5,192.5c0,9.84-.75,19.73-2.23,29.38-.63,4.09,2.18,7.92,6.28,8.55,4.1,.63,7.92-2.18,8.55-6.28,1.59-10.4,2.4-21.05,2.4-31.65,0-2.3-.05-4.58-.13-6.86l31.75-8.51,.63,2.36c.9,3.35,3.93,5.56,7.24,5.56,.64,0,1.3-.08,1.95-.26,4-1.07,6.38-5.18,5.3-9.19ZM347.12,33.01l15.41-15.41c3.45-3.45,9.06-3.45,12.51,0l69.36,69.36c3.45,3.45,3.45,9.06,0,12.51l-15.41,15.41c-3.45,3.45-9.06,3.45-12.51,0l-69.36-69.36c-3.45-3.45-3.45-9.06,0-12.51Zm-109.77-13.74l33.55,8.99-7.1,26.52c-11.06-3.12-22.48-5.34-34.2-6.59l7.75-28.92Zm102.18,75.28l17.7-17.7,27.93,27.93-17.7,17.7c-8.41-10.17-17.76-19.52-27.93-27.93Zm74.29,137.85c-1.25-11.72-3.47-23.14-6.59-34.2l26.51-7.1,8.99,33.56-28.92,7.75Z"/>
    <path class="cls-2" d="M295.87,147.45l-14.3,3.52c-14.46,3.56-27.41,12.04-36.46,23.88l-25.73,33.66c-3.8-.98-7.78-1.51-11.88-1.51-26.19,0-47.5,21.31-47.5,47.5s21.31,47.5,47.5,47.5,47.5-21.31,47.5-47.5c0-4.1-.52-8.08-1.51-11.88l33.66-25.73c11.83-9.05,20.31-21.99,23.88-36.46l3.52-14.3c1.28-5.22-.28-10.81-4.07-14.61-3.8-3.8-9.39-5.36-14.61-4.08Zm-88.37,139.55c-17.92,0-32.5-14.58-32.5-32.5s14.58-32.5,32.5-32.5,32.5,14.58,32.5,32.5-14.58,32.5-32.5,32.5Zm88.97-110.16c-2.75,11.16-9.29,21.15-18.42,28.13l-30.81,23.55c-3.59-5.47-8.28-10.16-13.75-13.75l23.55-30.81c6.98-9.13,16.97-15.67,28.13-18.42l14.29-3.52c.15-.04,.31,0,.42,.12,.11,.11,.15,.27,.12,.42l-3.52,14.29Z"/>
    <path class="cls-2" d="M207.5,77c-97.87,0-177.5,79.63-177.5,177.5s79.63,177.5,177.5,177.5c28.53,0,55.78-6.57,81-19.52,3.68-1.89,5.14-6.41,3.24-10.1-1.89-3.68-6.42-5.14-10.1-3.24-23.08,11.85-48.02,17.86-74.15,17.86-89.6,0-162.5-72.9-162.5-162.5S117.9,92,207.5,92s162.5,72.9,162.5,162.5c0,10.18-.96,20.42-2.85,30.42-.77,4.07,1.9,7.99,5.97,8.76,4.07,.76,7.99-1.91,8.76-5.97,2.07-10.92,3.12-22.1,3.12-33.21,0-97.87-79.63-177.5-177.5-177.5Z"/>
    <path class="cls-2" d="M215,134.5v-20c0-4.14-3.36-7.5-7.5-7.5s-7.5,3.36-7.5,7.5v20c0,4.14,3.36,7.5,7.5,7.5s7.5-3.36,7.5-7.5Z"/>
    <path class="cls-2" d="M200,374.5v20c0,4.14,3.36,7.5,7.5,7.5s7.5-3.36,7.5-7.5v-20c0-4.14-3.36-7.5-7.5-7.5s-7.5,3.36-7.5,7.5Z"/>
    <path class="cls-2" d="M347.5,247h-20c-4.14,0-7.5,3.36-7.5,7.5s3.36,7.5,7.5,7.5h20c4.14,0,7.5-3.36,7.5-7.5s-3.36-7.5-7.5-7.5Z"/>
    <path class="cls-2" d="M67.5,247c-4.14,0-7.5,3.36-7.5,7.5s3.36,7.5,7.5,7.5h20c4.14,0,7.5-3.36,7.5-7.5s-3.36-7.5-7.5-7.5h-20Z"/>
  </g>
  <g>
    <circle class="cls-1" cx="382" cy="382" r="12.5"/>
    <circle class="cls-1" cx="447" cy="447" r="12.5"/>
    <path class="cls-1" d="M414.5,317c-53.76,0-97.5,43.74-97.5,97.5s43.74,97.5,97.5,97.5,97.5-43.74,97.5-97.5-43.74-97.5-97.5-97.5Zm-32.5,37.5c15.16,0,27.5,12.34,27.5,27.5s-12.34,27.5-27.5,27.5-27.5-12.34-27.5-27.5,12.34-27.5,27.5-27.5Zm-12.2,115.3c-1.46,1.46-3.38,2.2-5.3,2.2s-3.84-.73-5.3-2.2c-2.93-2.93-2.93-7.68,0-10.61l100-100c2.93-2.93,7.68-2.93,10.61,0,2.93,2.93,2.93,7.68,0,10.61l-100,100Zm77.2,4.7c-15.16,0-27.5-12.34-27.5-27.5s12.34-27.5,27.5-27.5,27.5,12.34,27.5,27.5-12.34,27.5-27.5,27.5Z"/>
  </g>
</svg>