<?xml version="1.0" encoding="UTF-8"?>
<svg id="OBJECT" xmlns="http://www.w3.org/2000/svg" viewBox="0 0 32 32">
  <defs>
    <style>
      .cls-1 {
        fill: #FD4360;
      }

      .cls-1, .cls-2 {
        stroke-width: 0px;
      }

      .cls-2 {
        fill: #dadada;
      }
    </style>
  </defs>
  <path class="cls-1" d="m4,28c0,1.65,1.35,3,3,3h18c1.65,0,3-1.35,3-3v-1.56H4v1.56Z"/>
  <g>
    <path class="cls-2" d="m25,1h-5c-.55,0-1,.45-1,1,0,1.65-1.35,3-3,3s-3-1.35-3-3c0-.55-.45-1-1-1h-5c-1.65,0-3,1.35-3,3v19c0,.55.45,1,1,1s1-.45,1-1V4c0-.55.45-1,1-1h4.1c.46,2.28,2.48,4,4.9,4s4.43-1.72,4.9-4h4.1c.55,0,1,.45,1,1v19c0,.55.45,1,1,1s1-.45,1-1V4c0-1.65-1.35-3-3-3Z"/>
    <path class="cls-2" d="m19.29,11.29l-8,8c-.39.39-.39,1.02,0,1.41.2.2.45.29.71.29s.51-.1.71-.29l8-8c.39-.39.39-1.02,0-1.41s-1.02-.39-1.41,0Z"/>
    <path class="cls-2" d="m13,12.97v-.97c0-.55-.45-1-1-1s-1,.45-1,1v.97c0,.55.45,1,1,1s1-.45,1-1Z"/>
    <path class="cls-2" d="m20,18.03c-.55,0-1,.45-1,1v.97c0,.55.45,1,1,1s1-.45,1-1v-.97c0-.55-.45-1-1-1Z"/>
  </g>
</svg>