<?xml version="1.0" encoding="UTF-8" standalone="no"?>
<svg
   id="OBJECT"
   viewBox="0 0 32 32"
   version="1.1"
   sodipodi:docname="Product-Description.svg"
   inkscape:version="1.2.2 (732a01da63, 2022-12-09)"
   xmlns:inkscape="http://www.inkscape.org/namespaces/inkscape"
   xmlns:sodipodi="http://sodipodi.sourceforge.net/DTD/sodipodi-0.dtd"
   xmlns="http://www.w3.org/2000/svg"
   xmlns:svg="http://www.w3.org/2000/svg">
  <sodipodi:namedview
     id="namedview25"
     pagecolor="#505050"
     bordercolor="#ffffff"
     borderopacity="1"
     inkscape:showpageshadow="0"
     inkscape:pageopacity="0"
     inkscape:pagecheckerboard="1"
     inkscape:deskcolor="#505050"
     showgrid="false"
     inkscape:zoom="9.1592425"
     inkscape:cx="-2.620304"
     inkscape:cy="15.831003"
     inkscape:window-width="1920"
     inkscape:window-height="1009"
     inkscape:window-x="-8"
     inkscape:window-y="-8"
     inkscape:window-maximized="1"
     inkscape:current-layer="OBJECT" />
  <defs
     id="defs4">
    <style
       id="style2">
      .cls-1 {
        fill: #FD4360;
      }

      .cls-1, .cls-2 {
        stroke-width: 0px;
      }

      .cls-2 {
        fill: #dadada;
      }
    </style>
  </defs>
  <path
     class="cls-1"
     d="m28,1H4c-1.65,0-3,1.35-3,3v6c0,.55.45,1,1,1h1v-4.92c0-1.65,1.35-3,3-3h20c1.65,0,3,1.35,3,3v4.92h1c.55,0,1-.45,1-1v-6c0-1.65-1.35-3-3-3Z"
     id="path6" />
  <path
     class="cls-2"
     d="M 26,5.08 H 6 c -0.55,0 -1,0.45 -1,1 V 30 c 0,0.55 0.45,1 1,1 h 20 c 0.55,0 1,-0.45 1,-1 V 6.08 c 0,-0.55 -0.45,-1 -1,-1 z M 25,29 H 7 V 7.08 h 18 z"
     id="path8" />
  <path
     class="cls-2"
     d="m 18,13.63 h 4 c 0.55,0 1,-0.45 1,-1 0,-0.55 -0.45,-1 -1,-1 h -4 c -0.55,0 -1,0.45 -1,1 0,0.55 0.45,1 1,1 z"
     id="path10" />
  <path
     class="cls-2"
     d="m 18,17.63 h 4 c 0.55,0 1,-0.45 1,-1 0,-0.55 -0.45,-1 -1,-1 h -4 c -0.55,0 -1,0.45 -1,1 0,0.55 0.45,1 1,1 z"
     id="path12" />
  <path
     class="cls-2"
     d="m 10,22.63 h 12 c 0.55,0 1,-0.45 1,-1 0,-0.55 -0.45,-1 -1,-1 H 10 c -0.55,0 -1,0.45 -1,1 0,0.55 0.45,1 1,1 z"
     id="path14" />
  <path
     class="cls-2"
     d="m 10,26.63 h 8 c 0.55,0 1,-0.45 1,-1 0,-0.55 -0.45,-1 -1,-1 h -8 c -0.55,0 -1,0.45 -1,1 0,0.55 0.45,1 1,1 z"
     id="path16" />
  <path
     class="cls-2"
     d="m 22,24.63 h -1 c -0.55,0 -1,0.45 -1,1 0,0.55 0.45,1 1,1 h 1 c 0.55,0 1,-0.45 1,-1 0,-0.55 -0.45,-1 -1,-1 z"
     id="path18" />
  <rect
     style="fill:#dadada;stroke-width:0.956773"
     id="rect367"
     width="14.359469"
     height="2.084439"
     x="8.6851625"
     y="11.541616"
     ry="1.0422195" />
  <rect
     style="fill:#dadada;stroke-width:0.956773"
     id="rect416"
     width="14.359469"
     height="2.084439"
     x="8.7237635"
     y="15.594692"
     ry="1.0422195" />
</svg>
