<?xml version="1.0" encoding="UTF-8"?>
<svg id="OBJECT" xmlns="http://www.w3.org/2000/svg" viewBox="0 0 512 512">
  <defs>
    <style>
      .cls-1 {
        fill: #FD4360;
      }

      .cls-2 {
        fill: #dadada;
      }
    </style>
  </defs>
  <g>
    <path class="cls-2" d="M296.05,235c12.41,0,22.5-10.09,22.5-22.5v-10c0-12.41-10.09-22.5-22.5-22.5s-22.5,10.09-22.5,22.5v10c0,12.41,10.09,22.5,22.5,22.5Zm-7.5-32.5c0-4.14,3.36-7.5,7.5-7.5s7.5,3.36,7.5,7.5v10c0,4.14-3.36,7.5-7.5,7.5s-7.5-3.36-7.5-7.5v-10Z"/>
    <path class="cls-2" d="M296.05,305c12.41,0,22.5-10.09,22.5-22.5v-10c0-12.41-10.09-22.5-22.5-22.5s-22.5,10.09-22.5,22.5v10c0,12.41,10.09,22.5,22.5,22.5Zm-7.5-32.5c0-4.14,3.36-7.5,7.5-7.5s7.5,3.36,7.5,7.5v10c0,4.14-3.36,7.5-7.5,7.5s-7.5-3.36-7.5-7.5v-10Z"/>
    <path class="cls-2" d="M374.1,365h90.4c4.14,0,7.5-3.36,7.5-7.5s-3.36-7.5-7.5-7.5h-90.4c-4.14,0-7.5,3.36-7.5,7.5s3.36,7.5,7.5,7.5Z"/>
    <path class="cls-2" d="M344.5,365h5.08c4.14,0,7.5-3.36,7.5-7.5s-3.36-7.5-7.5-7.5h-5.08c-4.14,0-7.5,3.36-7.5,7.5s3.36,7.5,7.5,7.5Z"/>
    <path class="cls-2" d="M486.96,95.37l-49.08-26.34c-3.65-1.96-8.2-.59-10.16,3.06-1.96,3.65-.59,8.2,3.06,10.15l49.08,26.34c10.57,5.66,17.13,16.63,17.13,28.63V407.5c0,17.92-14.58,32.5-32.5,32.5H204.68c3.45-10.38,5.32-21.48,5.32-33,0-57.9-47.1-105-105-105-2.69,0-5.36,.1-8,.3V137c0-11.88,6.48-22.81,16.9-28.51l47.59-26.05c3.63-1.99,4.97-6.55,2.98-10.18-1.99-3.63-6.54-4.97-10.18-2.98l-47.59,26.05c-15.24,8.34-24.7,24.3-24.7,41.67v167.54C35.13,315.06,0,357,0,407c0,57.9,47.1,105,105,105,40.61,0,75.91-23.18,93.37-57H464.5c26.19,0,47.5-21.31,47.5-47.5V137.22c0-17.54-9.6-33.57-25.04-41.85ZM105,497c-49.63,0-90-40.37-90-90s40.37-90,90-90,90,40.37,90,90-40.37,90-90,90Z"/>
    <path class="cls-2" d="M72.5,402c15.16,0,27.5-12.34,27.5-27.5s-12.34-27.5-27.5-27.5-27.5,12.34-27.5,27.5,12.34,27.5,27.5,27.5Zm0-40c6.89,0,12.5,5.61,12.5,12.5s-5.61,12.5-12.5,12.5-12.5-5.61-12.5-12.5,5.61-12.5,12.5-12.5Z"/>
    <path class="cls-2" d="M137.5,412c-15.16,0-27.5,12.34-27.5,27.5s12.34,27.5,27.5,27.5,27.5-12.34,27.5-27.5-12.34-27.5-27.5-27.5Zm0,40c-6.89,0-12.5-5.61-12.5-12.5s5.61-12.5,12.5-12.5,12.5,5.61,12.5,12.5-5.61,12.5-12.5,12.5Z"/>
    <path class="cls-2" d="M160.3,351.7c-2.93-2.93-7.68-2.93-10.61,0l-100,100c-2.93,2.93-2.93,7.68,0,10.61,1.46,1.46,3.38,2.2,5.3,2.2s3.84-.73,5.3-2.2l100-100c2.93-2.93,2.93-7.68,0-10.61Z"/>
  </g>
  <g>
    <path class="cls-1" d="M178.94,56.14c-2.32,2.31-2.88,5.85-1.38,8.76,.37,.72,36.83,72.08,27.83,110.92-.74,3.19,.68,6.49,3.51,8.16,2.83,1.66,6.41,1.29,8.84-.91,.35-.32,31.13-27.78,61.54-27.78L212.55,22.8l-33.61,33.34Z"/>
    <path class="cls-1" d="M364.23,9.71c-44.85-12.96-92.24-12.95-137.09,.05l-.61,.18c-1.08,.31-2.05,.86-2.87,1.58l72.11,143.2L367.96,11.37c-1.07-.89-2.36-1.47-3.73-1.66Z"/>
    <path class="cls-1" d="M413.17,56.14l-33.99-33.71-66.9,132.86c30.6-.34,61.74,27.46,62.1,27.78,1.42,1.29,3.22,1.95,5.04,1.95,1.3,0,2.61-.34,3.79-1.03,2.83-1.66,4.25-4.97,3.51-8.16-8.99-38.78,27.46-110.2,27.83-110.92,1.5-2.91,.94-6.46-1.38-8.76Z"/>
  </g>
</svg>