<?xml version="1.0" encoding="UTF-8"?>
<svg id="OBJECT" xmlns="http://www.w3.org/2000/svg" viewBox="0 0 512 512">
  <defs>
    <style>
      .cls-1 {
        fill: #FD4360;
      }

      .cls-2 {
        fill: #dadada;
      }
    </style>
  </defs>
  <g>
    <path class="cls-2" d="M57.5,417h-10c-4.14,0-7.5,3.36-7.5,7.5s3.36,7.5,7.5,7.5h10c4.14,0,7.5-3.36,7.5-7.5s-3.36-7.5-7.5-7.5Z"/>
    <path class="cls-2" d="M97.5,417h-10c-4.14,0-7.5,3.36-7.5,7.5s3.36,7.5,7.5,7.5h10c4.14,0,7.5-3.36,7.5-7.5s-3.36-7.5-7.5-7.5Z"/>
    <path class="cls-2" d="M137.5,417h-10c-4.14,0-7.5,3.36-7.5,7.5s3.36,7.5,7.5,7.5h10c4.14,0,7.5-3.36,7.5-7.5s-3.36-7.5-7.5-7.5Z"/>
    <path class="cls-2" d="M303.85,65c-4.14,0-7.5,3.36-7.5,7.5v15.85c-11.04,4.03-18.96,14.82-18.96,27.48,0,16.08,12.79,29.17,28.5,29.17h23c7.44,0,13.5,6.36,13.5,14.17s-6.06,14.17-13.5,14.17h-37.5c-4.14,0-7.5,3.36-7.5,7.5s3.36,7.5,7.5,7.5h4.96v14.17c0,4.14,3.36,7.5,7.5,7.5s7.5-3.36,7.5-7.5v-14.17h12.08v14.17c0,4.14,3.36,7.5,7.5,7.5s7.5-3.36,7.5-7.5v-15.85c11.04-4.03,18.96-14.82,18.96-27.48,0-16.08-12.79-29.17-28.5-29.17h-23c-7.44,0-13.5-6.36-13.5-14.17s6.06-14.17,13.5-14.17h37.5c4.14,0,7.5-3.36,7.5-7.5s-3.36-7.5-7.5-7.5h-4.96v-14.17c0-4.14-3.36-7.5-7.5-7.5s-7.5,3.36-7.5,7.5v14.17h-12.08v-14.17c0-4.14-3.36-7.5-7.5-7.5Z"/>
    <path class="cls-2" d="M402.4,225h-130c-4.14,0-7.5,3.36-7.5,7.5s3.36,7.5,7.5,7.5h130c4.14,0,7.5-3.36,7.5-7.5s-3.36-7.5-7.5-7.5Z"/>
    <path class="cls-2" d="M232.4,240h10c4.14,0,7.5-3.36,7.5-7.5s-3.36-7.5-7.5-7.5h-10c-4.14,0-7.5,3.36-7.5,7.5s3.36,7.5,7.5,7.5Z"/>
    <path class="cls-2" d="M232.4,280h70c4.14,0,7.5-3.36,7.5-7.5s-3.36-7.5-7.5-7.5h-70c-4.14,0-7.5,3.36-7.5,7.5s3.36,7.5,7.5,7.5Z"/>
    <path class="cls-2" d="M440.86,.8c-2.54-1.27-5.58-1-7.85,.71l-35.53,26.63L361.94,1.5c-2.67-2-6.33-2-9,0l-35.54,26.63L281.87,1.5c-2.67-2-6.33-2-9,0l-35.54,26.63L201.79,1.5C200.49,.53,198.91,0,197.29,0c-4.14,0-7.5,3.36-7.5,7.5V171.83H65.98C29.6,171.83,0,201.43,0,237.8V504.5c0,4.14,3.36,7.5,7.5,7.5H247.71c4.14,0,7.5-3.36,7.5-7.5v-126.68h46.96c4.14,0,7.5-3.36,7.5-7.5s-3.36-7.5-7.5-7.5h-108.29c6.78-7.73,10.91-17.85,10.91-28.92V22.49l28.05,21.01c2.67,2,6.33,2,8.99,0l35.54-26.63,35.54,26.63c2.67,2,6.33,2,9,0l35.54-26.63,35.54,26.63c2.67,2,6.33,2,9,0l28.03-21V293.22c0,4.14,3.36,7.5,7.5,7.5s7.5-3.36,7.5-7.5V7.5c0-2.84-1.6-5.44-4.14-6.71ZM15,497v-25H240.21v25H15Zm225.21-40H15V237.8c0-28.11,22.87-50.98,50.98-50.98s50.98,22.87,50.98,50.98v96.1c0,24.22,19.7,43.92,43.92,43.92h79.34v79.18Zm-108.26-123.09v-96.1c0-20.51-9.41-38.87-24.14-50.98h81.98v147.08c0,15.95-12.97,28.92-28.92,28.92s-28.92-12.97-28.92-28.92Z"/>
  </g>
  <g>
    <circle class="cls-1" cx="447" cy="442" r="12.5"/>
    <circle class="cls-1" cx="382" cy="377" r="12.5"/>
    <path class="cls-1" d="M414.5,312c-53.76,0-97.5,43.74-97.5,97.5s43.74,97.5,97.5,97.5,97.5-43.74,97.5-97.5-43.74-97.5-97.5-97.5Zm-32.5,37.5c15.16,0,27.5,12.34,27.5,27.5s-12.34,27.5-27.5,27.5-27.5-12.34-27.5-27.5,12.34-27.5,27.5-27.5Zm-12.2,115.3c-1.46,1.46-3.38,2.2-5.3,2.2s-3.84-.73-5.3-2.2c-2.93-2.93-2.93-7.68,0-10.61l100-100c2.93-2.93,7.68-2.93,10.61,0,2.93,2.93,2.93,7.68,0,10.61l-100,100Zm77.2,4.7c-15.16,0-27.5-12.34-27.5-27.5s12.34-27.5,27.5-27.5,27.5,12.34,27.5,27.5-12.34,27.5-27.5,27.5Z"/>
  </g>
</svg>