<?xml version="1.0" encoding="UTF-8"?>
<svg id="OBJECT" xmlns="http://www.w3.org/2000/svg" viewBox="0 0 32 32">
  <defs>
    <style>
      .cls-1 {
        fill: #FD4360;
      }

      .cls-1, .cls-2 {
        stroke-width: 0px;
      }

      .cls-2 {
        fill: #dadada;
      }
    </style>
  </defs>
  <g>
    <path class="cls-2" d="m30,9c-.55,0-1,.45-1,1v18c0,.55-.45,1-1,1H4c-.55,0-1-.45-1-1V10c0-.55-.45-1-1-1s-1,.45-1,1v18c0,1.65,1.35,3,3,3h24c1.65,0,3-1.35,3-3V10c0-.55-.45-1-1-1Z"/>
    <path class="cls-2" d="m9.89,20.37c.2.21.46.32.73.32.24,0,.49-.09.68-.27.4-.38.43-1.01.05-1.41l-1.98-2.13,1.98-2.13c.38-.4.35-1.04-.05-1.41-.4-.38-1.04-.35-1.41.05l-2.62,2.81c-.36.38-.36.98,0,1.36l2.62,2.81Z"/>
    <path class="cls-2" d="m20.7,20.42c.19.18.44.27.68.27.27,0,.54-.11.73-.32l2.62-2.81c.36-.38.36-.98,0-1.36l-2.62-2.81c-.38-.4-1.01-.43-1.41-.05-.4.38-.43,1.01-.05,1.41l1.98,2.13-1.98,2.13c-.38.4-.35,1.04.05,1.41Z"/>
    <path class="cls-2" d="m14.73,22.35c.08.02.15.03.23.03.45,0,.87-.31.97-.77l2.1-9c.13-.54-.21-1.08-.75-1.2-.54-.12-1.08.21-1.2.75l-2.1,9c-.13.54.21,1.08.75,1.2Z"/>
    <path class="cls-2" d="m8.5,24.62c-.55,0-1,.45-1,1s.45,1,1,1h1c.55,0,1-.45,1-1s-.45-1-1-1h-1Z"/>
    <path class="cls-2" d="m22.5,24.62c-.55,0-1,.45-1,1s.45,1,1,1h1c.55,0,1-.45,1-1s-.45-1-1-1h-1Z"/>
    <path class="cls-2" d="m13,26.62h6c.55,0,1-.45,1-1s-.45-1-1-1h-6c-.55,0-1,.45-1,1s.45,1,1,1Z"/>
  </g>
  <path class="cls-1" d="m28,1H4c-1.65,0-3,1.35-3,3v3h30v-3c0-1.65-1.35-3-3-3ZM5.5,5h-.5c-.55,0-1-.45-1-1s.45-1,1-1h.5c.55,0,1,.45,1,1s-.45,1-1,1Zm4,0h-.5c-.55,0-1-.45-1-1s.45-1,1-1h.5c.55,0,1,.45,1,1s-.45,1-1,1Zm4,0h-.5c-.55,0-1-.45-1-1s.45-1,1-1h.5c.55,0,1,.45,1,1s-.45,1-1,1Z"/>
</svg>