<?xml version="1.0" encoding="UTF-8"?>
<svg id="OBJECT" xmlns="http://www.w3.org/2000/svg" viewBox="0 0 32 32">
  <defs>
    <style>
      .cls-1 {
        fill: #FD4360;
      }

      .cls-1, .cls-2 {
        stroke-width: 0px;
      }

      .cls-2 {
        fill: #dadada;
      }
    </style>
  </defs>
  <g>
    <path class="cls-2" d="m10.97,10.94c-.39-.39-1.02-.39-1.41,0l-1.85,1.85c-.19.19-.29.44-.29.71s.11.52.29.71l1.85,1.85c.2.2.45.29.71.29s.51-.1.71-.29c.39-.39.39-1.02,0-1.41l-1.14-1.14,1.14-1.14c.39-.39.39-1.02,0-1.41Z"/>
    <path class="cls-2" d="m17.45,10.94c-.39-.39-1.02-.39-1.41,0s-.39,1.02,0,1.41l1.14,1.14-1.14,1.14c-.39.39-.39,1.02,0,1.41.2.2.45.29.71.29s.51-.1.71-.29l1.85-1.85c.19-.19.29-.44.29-.71s-.11-.52-.29-.71l-1.85-1.85Z"/>
    <path class="cls-2" d="m13.46,9.99l-1.85,6.48c-.15.53.16,1.08.69,1.24.09.03.18.04.28.04.44,0,.84-.29.96-.73l1.85-6.48c.15-.53-.16-1.08-.69-1.24-.53-.15-1.08.16-1.24.69Z"/>
    <path class="cls-2" d="m13.5,1C6.61,1,1,6.61,1,13.5s5.61,12.5,12.5,12.5c.48,0,.92-.03,1.34-.08.55-.07.94-.57.87-1.12s-.57-.94-1.12-.87c-.34.04-.69.06-1.1.06-5.79,0-10.5-4.71-10.5-10.5S7.71,3,13.5,3s10.5,4.71,10.5,10.5c0,.4-.02.76-.06,1.1-.07.55.32,1.05.87,1.12.54.07,1.05-.32,1.12-.87.05-.42.08-.86.08-1.34,0-6.89-5.61-12.5-12.5-12.5Z"/>
    <path class="cls-2" d="m13.5,4.35c-5.05,0-9.15,4.1-9.15,9.15s4.1,9.15,9.15,9.15c.42,0,.82-.03,1.23-.09.5-.05.89-.48.89-1,0-.61-.57-1.08-1.17-.99-.32.05-.63.08-.96.08-3.94,0-7.15-3.21-7.15-7.15s3.21-7.15,7.15-7.15,7.15,3.21,7.15,7.15c0,.33-.03.64-.08.96-.09.54.28,1.06.83,1.15.54.09,1.06-.28,1.15-.83.07-.43.1-.84.1-1.28,0-5.05-4.1-9.15-9.15-9.15Z"/>
  </g>
  <g>
    <path class="cls-1" d="m24,17c-3.86,0-7,3.14-7,7,0,.79.14,1.55.38,2.26,1.21-.54,2.48-.94,3.8-1.17-.22-.43-.35-.91-.35-1.43,0-1.75,1.42-3.18,3.18-3.18s3.18,1.42,3.18,3.18c0,.52-.14,1-.35,1.43,1.32.23,2.59.63,3.8,1.17.24-.71.38-1.47.38-2.26,0-3.86-3.14-7-7-7Z"/>
    <path class="cls-1" d="m25.18,23.66c0-.65-.53-1.18-1.18-1.18s-1.18.53-1.18,1.18.53,1.18,1.18,1.18,1.18-.53,1.18-1.18Z"/>
    <path class="cls-1" d="m18.31,28.06c1.27,1.78,3.35,2.94,5.69,2.94s4.42-1.16,5.69-2.94c-1.77-.78-3.7-1.23-5.69-1.23s-3.92.44-5.69,1.23Z"/>
  </g>
</svg>