<?xml version="1.0" encoding="UTF-8"?>
<svg id="OBJECT" xmlns="http://www.w3.org/2000/svg" viewBox="0 0 32 32">
  <defs>
    <style>
      .cls-1 {
        fill: #FD4360;
      }

      .cls-1, .cls-2 {
        stroke-width: 0px;
      }

      .cls-2 {
        fill: #dadada;
      }
    </style>
  </defs>
  <g>
    <path class="cls-2" d="m28,1H4c-1.65,0-3,1.35-3,3v15c0,1.65,1.35,3,3,3h7.98v2.5h-2.2c-1.18,0-2.26.7-2.74,1.78l-1.21,2.72h-2.85c-.55,0-1,.45-1,1s.45,1,1,1h26c.55,0,1-.45,1-1s-.45-1-1-1h-2.85l-1.21-2.72c-.48-1.08-1.56-1.78-2.74-1.78h-2.2v-2.5h8.02c1.65,0,3-1.35,3-3V4c0-1.65-1.35-3-3-3Zm-4.91,26.09l.85,1.91h-15.92l.85-1.91c.16-.36.52-.59.91-.59h12.4c.39,0,.75.23.91.59Zm-5.11-2.59h-4v-2.5h4v2.5Zm11.02-5.5c0,.55-.45,1-1,1H4c-.55,0-1-.45-1-1V4c0-.55.45-1,1-1h24c.55,0,1,.45,1,1v15Z"/>
    <path class="cls-2" d="m6,4h-1c-.55,0-1,.45-1,1s.45,1,1,1h1c.55,0,1-.45,1-1s-.45-1-1-1Z"/>
    <path class="cls-2" d="m27,4h-1c-.55,0-1,.45-1,1s.45,1,1,1h1c.55,0,1-.45,1-1s-.45-1-1-1Z"/>
  </g>
  <g>
    <path class="cls-1" d="m21,13.73h-10c-.55,0-1,.45-1,1s.45,1,1,1h1.5v2c0,.55.45,1,1,1h5c.55,0,1-.45,1-1v-2h1.5c.55,0,1-.45,1-1s-.45-1-1-1Z"/>
    <path class="cls-1" d="m12.13,11.73h7.73l1.09-3.43c.16-.49-.09-1.02-.57-1.22-2.16-.91-3.12-2.33-3.39-2.81v4.21c0,.55-.45,1-1,1s-1-.45-1-1v-4.21c-.27.48-1.23,1.9-3.39,2.81-.48.2-.72.73-.57,1.22l1.09,3.43Z"/>
  </g>
</svg>