<?xml version="1.0" encoding="UTF-8"?>
<svg id="OBJECT" xmlns="http://www.w3.org/2000/svg" viewBox="0 0 32 32">
  <defs>
    <style>
      .cls-1 {
        fill: #FD4360;
      }

      .cls-1, .cls-2 {
        stroke-width: 0px;
      }

      .cls-2 {
        fill: #dadada;
      }
    </style>
  </defs>
  <path class="cls-2" d="m28,8h-6v-2h1c.55,0,1-.45,1-1s-.45-1-1-1h-14c-.55,0-1,.45-1,1s.45,1,1,1h1v2h-6c-1.65,0-3,1.35-3,3v10c0,1.65,1.35,3,3,3h1v2h-2c-.55,0-1,.45-1,1s.45,1,1,1h26c.55,0,1-.45,1-1s-.45-1-1-1h-2v-2h1c1.65,0,3-1.35,3-3v-10c0-1.65-1.35-3-3-3Zm-16-2h8v2h-8v-2Zm13,20H7v-2h18v2Zm4-5c0,.55-.45,1-1,1H4c-.55,0-1-.45-1-1v-10c0-.55.45-1,1-1h24c.55,0,1,.45,1,1v10Z"/>
  <g>
    <rect class="cls-1" x="5" y="11.5" width="7" height="9" rx="2.5" ry="2.5"/>
    <rect class="cls-1" x="20" y="11.5" width="7" height="9" rx="2.5" ry="2.5"/>
    <path class="cls-1" d="m16.5,13h-1c-.55,0-1,.45-1,1s.45,1,1,1h1c.55,0,1-.45,1-1s-.45-1-1-1Z"/>
    <path class="cls-1" d="m16.5,17h-1c-.55,0-1,.45-1,1s.45,1,1,1h1c.55,0,1-.45,1-1s-.45-1-1-1Z"/>
  </g>
</svg>