<?xml version="1.0" encoding="UTF-8"?>
<svg id="OBJECT" xmlns="http://www.w3.org/2000/svg" viewBox="0 0 32 32">
  <defs>
    <style>
      .cls-1 {
        fill: #FD4360;
      }

      .cls-1, .cls-2 {
        stroke-width: 0px;
      }

      .cls-2 {
        fill: #dadada;
      }
    </style>
  </defs>
  <g>
    <path class="cls-2" d="m26.07,1H7.83c-1.65,0-3,1.35-3,3v10.01h-1.9c-.55,0-1,.45-1,1v9.99c0,.55.45,1,1,1s1-.45,1-1v-8.99h3.81v8.99c0,.55.45,1,1,1s1-.45,1-1v-9.99c0-.55-.45-1-1-1h-1.9V4c0-.55.45-1,1-1h6.24v7c0,.55.45,1,1,1h14c.55,0,1-.45,1-1v-5c0-2.21-1.79-4-4-4Zm2,8h-12V3h10c1.1,0,2,.9,2,2v4Z"/>
    <path class="cls-2" d="m23.07,21h-2c-1.65,0-3,1.35-3,3v1c0,.55.45,1,1,1s1-.45,1-1v-1c0-.55.45-1,1-1h2c.55,0,1,.45,1,1v1c0,.55.45,1,1,1s1-.45,1-1v-1c0-1.65-1.35-3-3-3Z"/>
    <path class="cls-2" d="m19.07,14v-1c0-.55-.45-1-1-1s-1,.45-1,1v1c0,.55.45,1,1,1s1-.45,1-1Z"/>
    <path class="cls-2" d="m23.07,14v-1c0-.55-.45-1-1-1s-1,.45-1,1v1c0,.55.45,1,1,1s1-.45,1-1Z"/>
    <path class="cls-2" d="m26.07,12c-.55,0-1,.45-1,1v1c0,.55.45,1,1,1s1-.45,1-1v-1c0-.55-.45-1-1-1Z"/>
    <path class="cls-2" d="m20.07,5h-1c-.55,0-1,.45-1,1s.45,1,1,1h1c.55,0,1-.45,1-1s-.45-1-1-1Z"/>
  </g>
  <path class="cls-1" d="m1,27v1c0,1.65,1.35,3,3,3h24c1.65,0,3-1.35,3-3v-1H1Z"/>
</svg>