<?xml version="1.0" encoding="UTF-8"?>
<svg id="OBJECT" xmlns="http://www.w3.org/2000/svg" viewBox="0 0 32 32">
  <defs>
    <style>
      .cls-1 {
        fill: #FD4360;
      }

      .cls-1, .cls-2 {
        stroke-width: 0px;
      }

      .cls-2 {
        fill: #dadada;
      }
    </style>
  </defs>
  <path class="cls-2" d="m28.5,10.85h-1c-1.38,0-2.5,1.12-2.5,2.5v4.65H7v-4.65c0-1.38-1.12-2.5-2.5-2.5h-1c-1.38,0-2.5,1.12-2.5,2.5v.3c0,1.38,1.12,2.5,2.5,2.5h1.5v4.85c0,1.65,1.35,3,3,3h5v2.01c-1.04.03-1.96.71-2.29,1.7l-.43,1.29h-1.28c-.55,0-1,.45-1,1s.45,1,1,1h2c.43,0,.81-.28.95-.68l.66-1.97c.07-.2.26-.34.47-.34h5.84c.22,0,.41.14.47.34l.66,1.97c.14.41.52.68.95.68h2c.55,0,1-.45,1-1s-.45-1-1-1h-1.28l-.43-1.29c-.33-1-1.25-1.67-2.29-1.7v-2.01h5c1.65,0,3-1.35,3-3v-4.85h1.5c1.38,0,2.5-1.12,2.5-2.5v-.3c0-1.38-1.12-2.5-2.5-2.5ZM3,13.65v-.3c0-.28.22-.5.5-.5h1c.28,0,.5.22.5.5v.8h-1.5c-.28,0-.5-.22-.5-.5Zm14,12.35h-2v-2h2v2Zm8-5c0,.55-.45,1-1,1H8c-.55,0-1-.45-1-1v-1h18v1Zm4-7.35c0,.28-.22.5-.5.5h-1.5v-.8c0-.28.22-.5.5-.5h1c.28,0,.5.22.5.5v.3Z"/>
  <path class="cls-1" d="m7.42,7h17.16l.24-1.26c.22-1.17-.09-2.37-.85-3.29s-1.88-1.45-3.08-1.45h-9.77c-1.19,0-2.32.53-3.08,1.45s-1.07,2.12-.85,3.29l.24,1.26Z"/>
  <path class="cls-1" d="m24.21,9H7.8l1.31,7h13.78l1.31-7Zm-9.21,5c0,.55-.45,1-1,1s-1-.45-1-1v-2c0-.55.45-1,1-1s1,.45,1,1v2Zm3,1c-.55,0-1-.45-1-1v-2c0-.55.45-1,1-1s1,.45,1,1v2c0,.55-.45,1-1,1Z"/>
</svg>