<?xml version="1.0" encoding="UTF-8"?>
<svg id="OBJECT" xmlns="http://www.w3.org/2000/svg" viewBox="0 0 512 512">
  <defs>
    <style>
      .cls-1 {
        fill: #FD4360;
      }

      .cls-2 {
        fill: #dadada;
      }
    </style>
  </defs>
  <g>
    <path class="cls-2" d="M504.5,158.5h-73.5c-12.41,0-22.5,10.09-22.5,22.5v87.5h-35V82.5c0-5.76-2.18-11.02-5.75-15,3.57-3.98,5.75-9.24,5.75-15V22.5c0-12.41-10.09-22.5-22.5-22.5H161c-12.41,0-22.5,10.09-22.5,22.5v30c0,5.76,2.18,11.02,5.75,15-3.57,3.98-5.75,9.24-5.75,15v186h-35v-87.5c0-12.41-10.09-22.5-22.5-22.5H7.5c-4.14,0-7.5,3.36-7.5,7.5v35c0,12.41,10.09,22.5,22.5,22.5H88.5v97.5c0,12.41,10.09,22.5,22.5,22.5h79.59l8.29,24.87c1.02,3.06,3.89,5.13,7.12,5.13h22.5v45h-57.5c-12.41,0-22.5,10.09-22.5,22.5v6.88c-14.32,3.4-25,16.28-25,31.62,0,17.92,14.58,32.5,32.5,32.5s32.5-14.58,32.5-32.5c0-15.34-10.68-28.22-25-31.62v-6.88c0-4.14,3.36-7.5,7.5-7.5h77.5v14.38c-14.32,3.4-25,16.28-25,31.62,0,17.92,14.58,32.5,32.5,32.5s32.5-14.58,32.5-32.5c0-15.34-10.68-28.22-25-31.62v-14.38h77.5c4.14,0,7.5,3.36,7.5,7.5v6.88c-14.32,3.4-25,16.28-25,31.62,0,17.92,14.58,32.5,32.5,32.5s32.5-14.58,32.5-32.5c0-15.34-10.68-28.22-25-31.62v-6.88c0-12.41-10.09-22.5-22.5-22.5h-57.5v-45h22.5c3.23,0,6.09-2.07,7.12-5.13l8.29-24.87h79.59c12.41,0,22.5-10.09,22.5-22.5v-97.5h66c12.41,0,22.5-10.09,22.5-22.5v-35c0-4.14-3.36-7.5-7.5-7.5ZM173.5,479.5c0,9.65-7.85,17.5-17.5,17.5s-17.5-7.85-17.5-17.5,7.85-17.5,17.5-17.5,17.5,7.85,17.5,17.5Zm100,0c0,9.65-7.85,17.5-17.5,17.5s-17.5-7.85-17.5-17.5,7.85-17.5,17.5-17.5,17.5,7.85,17.5,17.5Zm100,0c0,9.65-7.85,17.5-17.5,17.5s-17.5-7.85-17.5-17.5,7.85-17.5,17.5-17.5,17.5,7.85,17.5,17.5ZM153.5,22.5c0-4.14,3.36-7.5,7.5-7.5h190c4.14,0,7.5,3.36,7.5,7.5v30c0,4.14-3.36,7.5-7.5,7.5H161c-4.14,0-7.5-3.36-7.5-7.5V22.5Zm0,60c0-4.14,3.36-7.5,7.5-7.5h190c4.14,0,7.5,3.36,7.5,7.5v186H153.5V82.5ZM15,201v-27.5H81c4.14,0,7.5,3.36,7.5,7.5v27.5H22.5c-4.14,0-7.5-3.36-7.5-7.5Zm253.5,217.5h-25v-45h25v45Zm32.09-60h-89.19l-5-15h99.19l-5,15Zm107.91-37.5c0,4.14-3.36,7.5-7.5,7.5H111c-4.14,0-7.5-3.36-7.5-7.5v-37.5H408.5v37.5Zm88.5-120c0,4.14-3.36,7.5-7.5,7.5h-66v-27.5c0-4.14,3.36-7.5,7.5-7.5h66v27.5Z"/>
    <path class="cls-2" d="M296,50c4.14,0,7.5-3.36,7.5-7.5v-10c0-4.14-3.36-7.5-7.5-7.5s-7.5,3.36-7.5,7.5v10c0,4.14,3.36,7.5,7.5,7.5Z"/>
    <path class="cls-2" d="M256,50c4.14,0,7.5-3.36,7.5-7.5v-10c0-4.14-3.36-7.5-7.5-7.5s-7.5,3.36-7.5,7.5v10c0,4.14,3.36,7.5,7.5,7.5Z"/>
    <path class="cls-2" d="M216,50c4.14,0,7.5-3.36,7.5-7.5v-10c0-4.14-3.36-7.5-7.5-7.5s-7.5,3.36-7.5,7.5v10c0,4.14,3.36,7.5,7.5,7.5Z"/>
    <path class="cls-2" d="M176,50c4.14,0,7.5-3.36,7.5-7.5v-10c0-4.14-3.36-7.5-7.5-7.5s-7.5,3.36-7.5,7.5v10c0,4.14,3.36,7.5,7.5,7.5Z"/>
    <path class="cls-2" d="M336,50c4.14,0,7.5-3.36,7.5-7.5v-10c0-4.14-3.36-7.5-7.5-7.5s-7.5,3.36-7.5,7.5v10c0,4.14,3.36,7.5,7.5,7.5Z"/>
  </g>
  <g>
    <circle class="cls-1" cx="256" cy="151.75" r="22.5"/>
    <path class="cls-1" d="M256,84.25c-48.25,0-87.5,39.25-87.5,87.5,0,14.39,3.5,27.99,9.68,39.98,9.51-18.5,25.45-33.33,45.35-41.26-3.19-5.51-5.03-11.91-5.03-18.72,0-20.68,16.82-37.5,37.5-37.5s37.5,16.82,37.5,37.5c0,6.82-1.84,13.21-5.03,18.72,19.9,7.92,35.84,22.76,45.35,41.26,6.18-11.99,9.68-25.58,9.68-39.98,0-48.25-39.25-87.5-87.5-87.5Z"/>
    <path class="cls-1" d="M277.45,182.48c-6.08,4.26-13.48,6.77-21.45,6.77s-15.36-2.51-21.45-6.77c-21.96,6.77-38.93,23.38-46.59,44.22,16.05,19.84,40.59,32.55,68.04,32.55s51.99-12.71,68.04-32.55c-7.66-20.83-24.64-37.44-46.59-44.22Z"/>
  </g>
</svg>