<?xml version="1.0" encoding="UTF-8"?>
<svg id="OBJECT" xmlns="http://www.w3.org/2000/svg" viewBox="0 0 32 32">
  <defs>
    <style>
      .cls-1 {
        fill: #FD4360;
      }

      .cls-1, .cls-2 {
        stroke-width: 0px;
      }

      .cls-2 {
        fill: #dadada;
      }
    </style>
  </defs>
  <g>
    <path class="cls-2" d="m30,13h-2v-5c0-.55-.45-1-1-1h-4c-.55,0-1,.45-1,1v5h-7v-2h4c.55,0,1-.45,1-1V2c0-.55-.45-1-1-1H3c-.55,0-1,.45-1,1v8c0,.55.45,1,1,1h4v2H2c-.55,0-1,.45-1,1s.45,1,1,1v15c0,.55.45,1,1,1s1-.45,1-1v-4h13c.55,0,1-.45,1-1s-.45-1-1-1H4v-6h25c.55,0,1-.45,1-1v-2c.55,0,1-.45,1-1s-.45-1-1-1Zm-6-4h2v4h-2v-4ZM4,3h14v6H4V3Zm5,8h4v2h-4v-2Zm19,5H4v-1h24v1Z"/>
    <path class="cls-2" d="m6.5,4h-.5c-.55,0-1,.45-1,1s.45,1,1,1h.5c.55,0,1-.45,1-1s-.45-1-1-1Z"/>
    <path class="cls-2" d="m10.5,4h-.5c-.55,0-1,.45-1,1s.45,1,1,1h.5c.55,0,1-.45,1-1s-.45-1-1-1Z"/>
  </g>
  <path class="cls-1" d="m20,30c0,.55.45,1,1,1s1-.45,1-1v-2h6v2c0,.55.45,1,1,1s1-.45,1-1v-10h-10v10Zm6-7.5c0-.55.45-1,1-1s1,.45,1,1v2c0,.55-.45,1-1,1s-1-.45-1-1v-2Z"/>
</svg>