<?xml version="1.0" encoding="UTF-8"?>
<svg id="OBJECT" xmlns="http://www.w3.org/2000/svg" viewBox="0 0 32 32">
  <defs>
    <style>
      .cls-1 {
        fill: #FD4360;
      }

      .cls-1, .cls-2 {
        stroke-width: 0px;
      }

      .cls-2 {
        fill: #dadada;
      }
    </style>
  </defs>
  <path class="cls-2" d="m24,25h-4v-1c0-1.65-1.35-3-3-3h-6c-.55,0-1,.45-1,1v3h-3v-4.44c0-1.38-.93-2.58-2.27-2.91l-1.73-.43v-2.01c0-.31.15-.62.38-.79l7.62-5.45c.45-.32.55-.95.23-1.4s-.95-.55-1.4-.23l-7.63,5.46c-.75.56-1.21,1.46-1.21,2.4v12.79c0,1.65,1.35,3,3,3h18c1.65,0,3-1.35,3-3v-2c0-.55-.45-1-1-1Zm-12-2h5c.55,0,1,.45,1,1v1h-6v-2Zm-7.76-3.41c.45.11.76.51.76.97v4.44h-2v-5.72l1.24.31Zm18.76,8.41c0,.55-.45,1-1,1H4c-.55,0-1-.45-1-1v-1h20v1Z"/>
  <g>
    <path class="cls-1" d="m25.89,3.57c-1.42-1.69-3.94-1.91-5.63-.49l-.38.32-.96-1.15c-.6-.72-1.45-1.16-2.38-1.24-.93-.09-1.84.2-2.55.81-.72.6-1.16,1.44-1.24,2.38-.08.93.21,1.84.81,2.55l.96,1.15-.38.32c-.82.69-1.32,1.65-1.41,2.71-.09,1.06.23,2.1.92,2.92l1.29,1.53,12.26-10.28-1.29-1.53Z"/>
    <path class="cls-1" d="m26.42,9.65l-.64-.77-6.89,5.78.64.77c.69.82,1.65,1.32,2.72,1.41.12.01.24.02.36.02.94,0,1.84-.33,2.56-.94l.77-.64c1.69-1.42,1.91-3.95.49-5.63Z"/>
    <path class="cls-1" d="m27.6,16.5c-.35-.42-.99-.48-1.41-.12-.42.35-.48.99-.12,1.41l.64.77c.2.24.48.36.77.36.23,0,.46-.08.64-.23.42-.35.48-.99.12-1.41l-.64-.77Z"/>
    <path class="cls-1" d="m30.34,13.37l-.94-.34c-.52-.19-1.09.08-1.28.6s.08,1.09.6,1.28l.94.34c.11.04.23.06.34.06.41,0,.79-.25.94-.66.19-.52-.08-1.09-.6-1.28Z"/>
    <path class="cls-1" d="m23.14,17.8c-.54.1-.91.61-.81,1.16l.17.98c.09.49.51.83.98.83.06,0,.12,0,.17-.01.54-.1.91-.61.81-1.16l-.17-.98c-.1-.54-.61-.91-1.16-.81Z"/>
  </g>
</svg>