<?xml version="1.0" encoding="UTF-8"?>
<svg id="OBJECT" xmlns="http://www.w3.org/2000/svg" viewBox="0 0 32 32">
  <defs>
    <style>
      .cls-1 {
        fill: #FD4360;
      }

      .cls-2 {
        fill: #dadada;
      }
    </style>
  </defs>
  <g>
    <path class="cls-2" d="M11.68,19.05L1.68,22.38c-.37,.12-.63,.45-.68,.84s.14,.77,.48,.97l3.95,2.37,2.37,3.95c.18,.3,.51,.49,.86,.49,.04,0,.07,0,.11,0,.39-.04,.72-.31,.84-.68l3.33-10c.12-.36,.03-.76-.24-1.02-.27-.27-.66-.36-1.02-.24Zm-3.28,8.57l-1.38-2.3c-.08-.14-.2-.26-.34-.34l-2.3-1.38,6.04-2.01-2.01,6.04Z"/>
    <path class="cls-2" d="M24,18.61h-5c-1.1,0-2-.9-2-2v-3.09c0-1.1,.9-2,2-2h3.25c.55,0,1-.45,1-1s-.45-1-1-1h-3.25c-2.21,0-4,1.79-4,4v3.09c0,2.21,1.79,4,4,4h5c1.1,0,2,.9,2,2v.91c0,1.1-.9,2-2,2H14.4c-.55,0-1,.45-1,1s.45,1,1,1h9.6c2.21,0,4-1.79,4-4v-.91c0-2.21-1.79-4-4-4Z"/>
  </g>
  <path class="cls-1" d="M31,5c0-2.21-1.79-4-4-4s-4,1.79-4,4c0,1.86,1.28,3.41,3,3.86v2.1c-.88,.39-1.5,1.27-1.5,2.29,0,1.38,1.12,2.5,2.5,2.5s2.5-1.12,2.5-2.5c0-1.02-.62-1.9-1.5-2.29v-2.1c1.72-.45,3-2,3-3.86Z"/>
</svg>