<?xml version="1.0" encoding="UTF-8"?>
<svg id="OBJECT" xmlns="http://www.w3.org/2000/svg" viewBox="0 0 32 32">
  <defs>
    <style>
      .cls-1 {
        fill: #FD4360;
      }

      .cls-1, .cls-2 {
        stroke-width: 0px;
      }

      .cls-2 {
        fill: #dadada;
      }
    </style>
  </defs>
  <g>
    <path class="cls-2" d="m23.54,27.43c1.04,0,2.01-.4,2.75-1.14.74-.74,1.14-1.72,1.14-2.77,0-.55-.45-1-1-1h0c-.55,0-1,.45-1,1,0,.51-.19.99-.55,1.34-.36.35-.83.55-1.33.55,0,0,0,0-.01,0-.55,0-1,.44-1,1,0,.55.44,1,1,1h.02Z"/>
    <path class="cls-2" d="m30,23.2h0c-.55,0-1,.45-1,1,0,1.29-.49,2.49-1.39,3.4-.9.9-2.1,1.39-3.37,1.39-.01,0-.02,0-.03,0-.55,0-1,.44-1,1,0,.55.44,1,1,1h.03c1.81,0,3.51-.7,4.79-1.98,1.29-1.29,1.99-3,1.98-4.82,0-.55-.45-1-1-1Z"/>
    <path class="cls-2" d="m23.71,24.03l.32-.32c.39-.39.39-1.02,0-1.41s-1.02-.39-1.41,0l-.32.32c-.39.39-.39,1.02,0,1.41.2.2.45.29.71.29s.51-.1.71-.29Z"/>
    <path class="cls-2" d="m26,19c.47,0,.87-.33.98-.78l1.78-8c.12-.54-.22-1.07-.76-1.19-.54-.11-1.07.22-1.19.76l-1.61,7.22h-8.95l1.51-6.78c.12-.54-.22-1.07-.76-1.19-.54-.11-1.07.22-1.19.76l-1.61,7.22h-2.95l1.51-6.78c.12-.54-.22-1.07-.76-1.19-.54-.11-1.07.22-1.19.76l-1.61,7.22h-2.4l-1.61-7.22c-.12-.54-.66-.87-1.19-.76-.54.12-.88.65-.76,1.19l1.78,8c.1.46.51.78.98.78h20Z"/>
    <path class="cls-2" d="m20.56,15.48c.07.02.15.02.22.02.46,0,.87-.32.98-.78l.45-2c.12-.54-.22-1.07-.76-1.19-.54-.11-1.07.22-1.19.76l-.45,2c-.12.54.22,1.07.76,1.19Z"/>
    <path class="cls-2" d="m10.1,23.3c.56-.42,1.4-1.05,1.4-2.3,0-.55-.45-1-1-1s-1,.45-1,1c0,.21-.1.32-.6.7-.56.42-1.4,1.05-1.4,2.3s.84,1.88,1.4,2.3c.5.38.6.49.6.7s-.1.32-.6.7c-.56.42-1.4,1.05-1.4,2.3,0,.55.45,1,1,1s1-.45,1-1c0-.21.1-.32.6-.7.56-.42,1.4-1.05,1.4-2.3s-.84-1.88-1.4-2.3c-.5-.38-.6-.49-.6-.7s.1-.32.6-.7Z"/>
    <path class="cls-2" d="m15.1,23.3c.56-.42,1.4-1.05,1.4-2.3,0-.55-.45-1-1-1s-1,.45-1,1c0,.21-.1.32-.6.7-.56.42-1.4,1.05-1.4,2.3s.84,1.88,1.4,2.3c.5.38.6.49.6.7s-.1.32-.6.7c-.56.42-1.4,1.05-1.4,2.3,0,.55.45,1,1,1s1-.45,1-1c0-.21.1-.32.6-.7.56-.42,1.4-1.05,1.4-2.3s-.84-1.88-1.4-2.3c-.5-.38-.6-.49-.6-.7s.1-.32.6-.7Z"/>
  </g>
  <path class="cls-1" d="m29,1H3c-1.1,0-2,.9-2,2v3c0,1.1.9,2,2,2h26c1.1,0,2-.9,2-2v-3c0-1.1-.9-2-2-2ZM6.5,5.5h-1c-.55,0-1-.45-1-1s.45-1,1-1h1c.55,0,1,.45,1,1s-.45,1-1,1Zm4,0h-1c-.55,0-1-.45-1-1s.45-1,1-1h1c.55,0,1,.45,1,1s-.45,1-1,1Zm16,0h-12c-.55,0-1-.45-1-1s.45-1,1-1h12c.55,0,1,.45,1,1s-.45,1-1,1Z"/>
</svg>