<?xml version="1.0" encoding="UTF-8"?>
<svg id="OBJECT" xmlns="http://www.w3.org/2000/svg" viewBox="0 0 32 32">
  <defs>
    <style>
      .cls-1 {
        fill: #FD4360;
      }

      .cls-1, .cls-2 {
        stroke-width: 0px;
      }

      .cls-2 {
        fill: #dadada;
      }
    </style>
  </defs>
  <path class="cls-1" d="m13.28,14h-7.56c-2.6,0-4.72,2.12-4.72,4.72v7.56c0,2.6,2.12,4.72,4.72,4.72h7.56c2.6,0,4.72-2.12,4.72-4.72v-7.56c0-2.6-2.12-4.72-4.72-4.72Zm-3.31,9.44h-.94c-.52,0-.94-.42-.94-.94s.42-.94.94-.94h.94c.52,0,.94.42.94.94s-.42.94-.94.94Z"/>
  <g>
    <path class="cls-2" d="m26,1h-8c-2.76,0-5,2.24-5,5v5c0,.55.45,1,1,1s1-.45,1-1v-5c0-1.65,1.35-3,3-3h8c1.65,0,3,1.35,3,3v8c0,1.65-1.35,3-3,3h-5c-.55,0-1,.45-1,1s.45,1,1,1h5c2.76,0,5-2.24,5-5V6c0-2.76-2.24-5-5-5Z"/>
    <path class="cls-2" d="m18.5,8.5h1c.55,0,1-.45,1-1s-.45-1-1-1h-1c-.55,0-1,.45-1,1s.45,1,1,1Z"/>
    <path class="cls-2" d="m24.5,8.5h1c.55,0,1-.45,1-1s-.45-1-1-1h-1c-.55,0-1,.45-1,1s.45,1,1,1Z"/>
    <path class="cls-2" d="m20.5,12.5c0-.55-.45-1-1-1h-1c-.55,0-1,.45-1,1s.45,1,1,1h1c.55,0,1-.45,1-1Z"/>
    <path class="cls-2" d="m24.5,13.5h1c.55,0,1-.45,1-1s-.45-1-1-1h-1c-.55,0-1,.45-1,1s.45,1,1,1Z"/>
    <path class="cls-2" d="m10,4h-3.08c-1.61,0-2.92,1.31-2.92,2.92v3.08c0,.55.45,1,1,1s1-.45,1-1v-3.08c0-.51.41-.92.92-.92h3.08c.55,0,1-.45,1-1s-.45-1-1-1Z"/>
    <path class="cls-2" d="m27,21c-.55,0-1,.45-1,1v3.08c0,.51-.41.92-.92.92h-3.08c-.55,0-1,.45-1,1s.45,1,1,1h3.08c1.61,0,2.92-1.31,2.92-2.92v-3.08c0-.55-.45-1-1-1Z"/>
  </g>
</svg>