<?xml version="1.0" encoding="UTF-8"?>
<svg id="OBJECT" xmlns="http://www.w3.org/2000/svg" viewBox="0 0 512 512">
  <defs>
    <style>
      .cls-1 {
        fill: #FD4360;
      }

      .cls-2 {
        fill: #dadada;
      }
    </style>
  </defs>
  <g>
    <path class="cls-2" d="M504.5,457h-21V179.5c0-12.41-10.09-22.5-22.5-22.5h-4.85c-4.14,0-7.5,3.36-7.5,7.5s3.36,7.5,7.5,7.5h4.85c4.14,0,7.5,3.36,7.5,7.5V457H43.5V179.5c0-4.14,3.36-7.5,7.5-7.5h100.56l-26.85,18.8c-4.92,3.45-8.21,8.6-9.25,14.52-1.04,5.92,.28,11.89,3.73,16.81l4.3,6.14-22.53,15.77c-1.63,1.14-2.74,2.88-3.08,4.84-.35,1.96,.1,3.97,1.24,5.6l43.02,61.44c1.46,2.08,3.79,3.2,6.15,3.2,1.49,0,2.99-.44,4.3-1.36l22.53-15.77,12.53,17.9,49.3,105.09c.94,2,2.72,3.49,4.86,4.06,.64,.17,1.29,.25,1.93,.25,1.52,0,3.03-.46,4.3-1.36l23.27-16.3c8.38-5.87,11.75-16.67,8.19-26.27l-19.14-51.52,13.06-9.15c10.16-7.12,12.64-21.17,5.53-31.34l-12.91-18.43,10.24-7.17c10.16-7.12,12.64-21.17,5.53-31.34l-60.23-86.01c-7.12-10.16-21.17-12.64-31.34-5.53l-17.26,12.09H51c-12.41,0-22.5,10.09-22.5,22.5V457H7.5c-4.14,0-7.5,3.36-7.5,7.5v25c0,12.41,10.09,22.5,22.5,22.5H489.5c12.41,0,22.5-10.09,22.5-22.5v-25c0-4.14-3.36-7.5-7.5-7.5ZM150.13,301.19l-34.41-49.15,16.38-11.47,34.41,49.15-16.38,11.47Zm112.59,98.18l-15.97,11.18-43.11-91.89,27.84-19.49,33.97,91.45c1.19,3.2,.07,6.8-2.73,8.76Zm3.95-97.38c2.37,3.39,1.55,8.07-1.84,10.45l-9.86,6.9-10.8-29.06,9.59-6.71,12.91,18.43Zm-67.81-144.79c1.31-.91,2.81-1.35,4.29-1.35,2.37,0,4.7,1.11,6.15,3.2l60.23,86.01c1.15,1.64,1.59,3.63,1.24,5.6-.35,1.97-1.44,3.69-3.08,4.84l-71.68,50.19-64.53-92.15c-1.15-1.64-1.59-3.63-1.24-5.6,.35-1.97,1.44-3.69,3.08-4.84l65.53-45.89ZM497,489.5c0,4.14-3.36,7.5-7.5,7.5H22.5c-4.14,0-7.5-3.36-7.5-7.5v-17.5H497v17.5Z"/>
    <path class="cls-2" d="M162.82,226.56c1.49,0,2.99-.44,4.3-1.36l40.96-28.68c3.39-2.38,4.22-7.05,1.84-10.45-2.38-3.39-7.05-4.22-10.45-1.84l-40.96,28.68c-3.39,2.38-4.22,7.05-1.84,10.45,1.46,2.08,3.79,3.2,6.15,3.2Z"/>
    <path class="cls-2" d="M173.88,247.93c1.46,2.08,3.79,3.2,6.15,3.2,1.49,0,2.99-.44,4.3-1.36l40.96-28.68c3.39-2.38,4.22-7.05,1.84-10.45-2.38-3.39-7.05-4.22-10.45-1.84l-40.96,28.68c-3.39,2.38-4.22,7.05-1.84,10.45Z"/>
    <path class="cls-2" d="M191.09,272.51c1.46,2.08,3.79,3.2,6.15,3.2,1.49,0,2.99-.44,4.3-1.36l40.96-28.68c3.39-2.38,4.22-7.05,1.84-10.45-2.38-3.39-7.05-4.22-10.45-1.84l-40.96,28.68c-3.39,2.38-4.22,7.05-1.84,10.45Z"/>
    <path class="cls-2" d="M376,432h40c12.41,0,22.5-10.09,22.5-22.5v-10c0-12.41-10.09-22.5-22.5-22.5h-40c-12.41,0-22.5,10.09-22.5,22.5v10c0,12.41,10.09,22.5,22.5,22.5Zm-7.5-32.5c0-4.14,3.36-7.5,7.5-7.5h40c4.14,0,7.5,3.36,7.5,7.5v10c0,4.14-3.36,7.5-7.5,7.5h-40c-4.14,0-7.5-3.36-7.5-7.5v-10Z"/>
    <path class="cls-2" d="M136,377h-40c-12.41,0-22.5,10.09-22.5,22.5v10c0,12.41,10.09,22.5,22.5,22.5h40c12.41,0,22.5-10.09,22.5-22.5v-10c0-12.41-10.09-22.5-22.5-22.5Zm7.5,32.5c0,4.14-3.36,7.5-7.5,7.5h-40c-4.14,0-7.5-3.36-7.5-7.5v-10c0-4.14,3.36-7.5,7.5-7.5h40c4.14,0,7.5,3.36,7.5,7.5v10Z"/>
  </g>
  <g>
    <path class="cls-1" d="M450.16,185.7L326.84,9.59c-7.12-10.16-21.17-12.64-31.34-5.53l-14.34,10.04,149.13,212.98,14.34-10.04c10.16-7.12,12.64-21.17,5.53-31.34Z"/>
    <path class="cls-1" d="M227.9,133.3l74.8,106.83c.49,.69,.92,1.41,1.32,2.14l101.16-24.9L281.89,41.29l-53.99,92.01Zm58.08-29.82l.95-1.61c2.1-3.57,6.69-4.77,10.26-2.67,3.57,2.1,4.77,6.69,2.67,10.26l-.95,1.61c-1.4,2.38-3.9,3.71-6.48,3.71-1.29,0-2.6-.33-3.79-1.03-3.57-2.1-4.77-6.69-2.67-10.26Zm.86,28.18l-17.58,29.96c-1.4,2.38-3.9,3.71-6.48,3.71-1.29,0-2.6-.33-3.79-1.03-3.57-2.1-4.77-6.69-2.67-10.26l17.58-29.96c2.1-3.57,6.69-4.77,10.26-2.67,3.57,2.1,4.77,6.69,2.67,10.26Z"/>
  </g>
</svg>