<?xml version="1.0" encoding="UTF-8"?>
<svg id="OBJECT" xmlns="http://www.w3.org/2000/svg" viewBox="0 0 32 32">
  <defs>
    <style>
      .cls-1 {
        fill: #FD4360;
      }

      .cls-1, .cls-2 {
        stroke-width: 0px;
      }

      .cls-2 {
        fill: #dadada;
      }
    </style>
  </defs>
  <path class="cls-2" d="m30,4H2c-.55,0-1,.45-1,1v18c0,.55.45,1,1,1h1.5v3c0,.55.45,1,1,1h23c.55,0,1-.45,1-1v-3h1.5c.55,0,1-.45,1-1V5c0-.55-.45-1-1-1Zm-3.5,22H5.5v-2h21v2Zm2.5-4H3V6h26v16Z"/>
  <g>
    <circle class="cls-1" cx="16" cy="14" r="5.5"/>
    <path class="cls-1" d="m26,12h1c.55,0,1-.45,1-1s-.45-1-1-1h-1c-.55,0-1-.45-1-1v-1c0-.55-.45-1-1-1s-1,.45-1,1v1c0,1.65,1.35,3,3,3Z"/>
    <path class="cls-1" d="m27,16h-1c-1.65,0-3,1.35-3,3v1c0,.55.45,1,1,1s1-.45,1-1v-1c0-.55.45-1,1-1h1c.55,0,1-.45,1-1s-.45-1-1-1Z"/>
    <path class="cls-1" d="m8,7c-.55,0-1,.45-1,1v1c0,.55-.45,1-1,1h-1c-.55,0-1,.45-1,1s.45,1,1,1h1c1.65,0,3-1.35,3-3v-1c0-.55-.45-1-1-1Z"/>
    <path class="cls-1" d="m6,16h-1c-.55,0-1,.45-1,1s.45,1,1,1h1c.55,0,1,.45,1,1v1c0,.55.45,1,1,1s1-.45,1-1v-1c0-1.65-1.35-3-3-3Z"/>
  </g>
</svg>