<?xml version="1.0" encoding="UTF-8"?>
<svg id="OBJECT" xmlns="http://www.w3.org/2000/svg" viewBox="0 0 32 32">
  <defs>
    <style>
      .cls-1 {
        fill: #FD4360;
      }

      .cls-1, .cls-2 {
        stroke-width: 0px;
      }

      .cls-2 {
        fill: #dadada;
      }
    </style>
  </defs>
  <g>
    <path class="cls-2" d="m24.5,10H3.5c-1.38,0-2.5,1.12-2.5,2.5v13c0,1.38,1.12,2.5,2.5,2.5h21c1.38,0,2.5-1.12,2.5-2.5v-13c0-1.38-1.12-2.5-2.5-2.5Zm.5,15.5c0,.28-.22.5-.5.5H3.5c-.28,0-.5-.22-.5-.5v-13c0-.28.22-.5.5-.5h21c.28,0,.5.22.5.5v13Z"/>
    <path class="cls-2" d="m13.33,17.33h2.67c.55,0,1-.45,1-1s-.45-1-1-1h-1v-.33c0-.55-.45-1-1-1s-1,.45-1,1v.37c-1.13.16-2,1.13-2,2.3,0,1.29,1.05,2.33,2.33,2.33h1.33c.18,0,.33.15.33.33s-.15.33-.33.33h-2.67c-.55,0-1,.45-1,1s.45,1,1,1h1v.33c0,.55.45,1,1,1s1-.45,1-1v-.37c1.13-.16,2-1.13,2-2.3,0-1.29-1.05-2.33-2.33-2.33h-1.33c-.18,0-.33-.15-.33-.33s.15-.33.33-.33Z"/>
    <path class="cls-2" d="m8.34,18h-2.06c-.55,0-1,.45-1,1s.45,1,1,1h2.06c.55,0,1-.45,1-1s-.45-1-1-1Z"/>
    <path class="cls-2" d="m21.71,18h-2.06c-.55,0-1,.45-1,1s.45,1,1,1h2.06c.55,0,1-.45,1-1s-.45-1-1-1Z"/>
  </g>
  <path class="cls-1" d="m28.5,4H7.5c-1.38,0-2.5,1.12-2.5,2.5v1.5h19.5c2.48,0,4.5,2.02,4.5,4.5v9.45c1.14-.23,2-1.24,2-2.45V6.5c0-1.38-1.12-2.5-2.5-2.5Z"/>
</svg>