<?xml version="1.0" encoding="UTF-8"?>
<svg id="OBJECT" xmlns="http://www.w3.org/2000/svg" viewBox="0 0 32 32">
  <defs>
    <style>
      .cls-1 {
        fill: #FD4360;
      }

      .cls-1, .cls-2 {
        stroke-width: 0px;
      }

      .cls-2 {
        fill: #dadada;
      }
    </style>
  </defs>
  <g>
    <path class="cls-2" d="m25,15h2c.55,0,1-.45,1-1s-.45-1-1-1h-2c-.55,0-1,.45-1,1s.45,1,1,1Z"/>
    <path class="cls-2" d="m5,13c-.55,0-1,.45-1,1s.45,1,1,1h2c.55,0,1-.45,1-1s-.45-1-1-1h-2Z"/>
    <path class="cls-2" d="m30,4H2c-.55,0-1,.45-1,1v18c0,.55.45,1,1,1h1.5v3c0,.55.45,1,1,1h23c.55,0,1-.45,1-1v-3h1.5c.55,0,1-.45,1-1V5c0-.55-.45-1-1-1Zm-1,4c-1.1,0-2-.9-2-2h2v2Zm0,2v8c-2.21,0-4,1.79-4,4H7c0-2.21-1.79-4-4-4v-8c2.21,0,4-1.79,4-4h18c0,2.21,1.79,4,4,4ZM3,6h2c0,1.1-.9,2-2,2v-2Zm0,14c1.1,0,2,.9,2,2h-2v-2Zm23.5,6H5.5v-2h21v2Zm2.5-4h-2c0-1.1.9-2,2-2v2Z"/>
  </g>
  <path class="cls-1" d="m16,7.25c-3.72,0-6.75,3.03-6.75,6.75s3.03,6.75,6.75,6.75,6.75-3.03,6.75-6.75-3.03-6.75-6.75-6.75Zm2.35,9.1c-.2.2-.45.29-.71.29s-.51-.1-.71-.29l-1.64-1.64c-.19-.19-.29-.44-.29-.71v-2.46c0-.55.45-1,1-1s1,.45,1,1v2.05l1.35,1.35c.39.39.39,1.02,0,1.41Z"/>
</svg>