<?xml version="1.0" encoding="UTF-8"?>
<svg id="OBJECT" xmlns="http://www.w3.org/2000/svg" viewBox="0 0 32 32">
  <defs>
    <style>
      .cls-1 {
        fill: #FD4360;
      }

      .cls-1, .cls-2 {
        stroke-width: 0px;
      }

      .cls-2 {
        fill: #dadada;
      }
    </style>
  </defs>
  <g>
    <path class="cls-1" d="m13.57,14.12c-.18-.36-.28-.76-.28-1.18,0-1.49,1.22-2.71,2.71-2.71s2.71,1.22,2.71,2.71c0,.43-.11.82-.28,1.18,1.41.57,2.58,1.62,3.3,2.95.49-.92.78-1.96.78-3.08,0-3.58-2.92-6.5-6.5-6.5s-6.5,2.92-6.5,6.5c0,1.11.28,2.16.78,3.08.72-1.33,1.89-2.38,3.3-2.95Z"/>
    <path class="cls-1" d="m16.01,13.65c.38,0,.7-.32.7-.71s-.32-.71-.71-.71-.71.32-.71.71.31.7.7.71c0,0,0,0,.01,0s0,0,.01,0Z"/>
    <path class="cls-1" d="m16.02,15.65s-.01,0-.02,0-.01,0-.02,0c-2.03,0-3.72,1.37-4.27,3.22,1.15,1.01,2.65,1.63,4.29,1.63s3.15-.62,4.29-1.63c-.55-1.85-2.25-3.21-4.27-3.22Z"/>
  </g>
  <g>
    <path class="cls-2" d="m28,4H4c-1.65,0-3,1.35-3,3v14c0,1.65,1.35,3,3,3h24c1.65,0,3-1.35,3-3V7c0-1.65-1.35-3-3-3Zm1,3v1.86c-1.4-.36-2.49-1.46-2.86-2.86h1.86c.55,0,1,.45,1,1Zm-4.91,15H7.91c-.42-2.51-2.4-4.49-4.91-4.91v-6.18c2.51-.42,4.49-2.4,4.91-4.91h16.18c.42,2.51,2.4,4.49,4.91,4.91v6.18c-2.51.42-4.49,2.4-4.91,4.91ZM4,6h1.86c-.36,1.4-1.46,2.49-2.86,2.86v-1.86c0-.55.45-1,1-1Zm-1,15v-1.86c1.4.36,2.49,1.46,2.86,2.86h-1.86c-.55,0-1-.45-1-1Zm25,1h-1.86c.36-1.4,1.46-2.49,2.86-2.86v1.86c0,.55-.45,1-1,1Z"/>
    <path class="cls-2" d="m27,26H5c-.55,0-1,.45-1,1s.45,1,1,1h22c.55,0,1-.45,1-1s-.45-1-1-1Z"/>
  </g>
</svg>