<?xml version="1.0" encoding="UTF-8"?>
<svg id="OBJECT" xmlns="http://www.w3.org/2000/svg" viewBox="0 0 32 32">
  <defs>
    <style>
      .cls-1 {
        fill: #FD4360;
      }

      .cls-1, .cls-2 {
        stroke-width: 0px;
      }

      .cls-2 {
        fill: #dadada;
      }
    </style>
  </defs>
  <path class="cls-2" d="m28.79,1H3.21c-1.22,0-2.21.99-2.21,2.21v19.58c0,1.22.99,2.21,2.21,2.21h9.79v4h-6c-.55,0-1,.45-1,1s.45,1,1,1h18c.55,0,1-.45,1-1s-.45-1-1-1h-6v-4h9.79c1.22,0,2.21-.99,2.21-2.21V3.21c0-1.22-.99-2.21-2.21-2.21Zm-13.79,28v-4h2v4h-2Zm14-6.21c0,.12-.09.21-.21.21H3.21c-.12,0-.21-.09-.21-.21V3.21c0-.12.09-.21.21-.21h25.58c.12,0,.21.09.21.21v19.58Z"/>
  <path class="cls-1" d="m16,5.5c-4.14,0-7.5,3.36-7.5,7.5s3.36,7.5,7.5,7.5,7.5-3.36,7.5-7.5-3.36-7.5-7.5-7.5Zm-.6,6.5h1.2c1.21,0,2.2.99,2.2,2.2,0,1.08-.78,1.97-1.81,2.16v.24c0,.55-.45,1-1,1s-1-.45-1-1v-.2h-.81c-.55,0-1-.45-1-1s.45-1,1-1h2.41c.11,0,.2-.09.2-.2s-.09-.2-.2-.2h-1.2c-1.21,0-2.2-.99-2.2-2.2,0-1.08.78-1.97,1.81-2.16v-.24c0-.55.45-1,1-1s1,.45,1,1v.2h.81c.55,0,1,.45,1,1s-.45,1-1,1h-2.41c-.11,0-.2.09-.2.2s.09.2.2.2Z"/>
</svg>