<?xml version="1.0" encoding="UTF-8"?>
<svg id="OBJECT" xmlns="http://www.w3.org/2000/svg" viewBox="0 0 32 32">
  <defs>
    <style>
      .cls-1 {
        fill: #FD4360;
      }

      .cls-2 {
        fill: #dadada;
      }
    </style>
  </defs>
  <g>
    <path class="cls-2" d="m28.5,4H3.5c-1.38,0-2.5,1.12-2.5,2.5v15c0,1.38,1.12,2.5,2.5,2.5h25c1.38,0,2.5-1.12,2.5-2.5V6.5c0-1.38-1.12-2.5-2.5-2.5Zm.5,2.5v3.4c-1.96-.4-3.5-1.94-3.9-3.9h3.4c.28,0,.5.22.5.5Zm-5.92,15.5h-14.16c-.44-3.06-2.86-5.48-5.92-5.92v-4.16c3.06-.44,5.48-2.86,5.92-5.92h14.16c.44,3.06,2.86,5.48,5.92,5.92v4.16c-3.06.44-5.48,2.86-5.92,5.92ZM3.5,6h3.4c-.4,1.96-1.94,3.5-3.9,3.9v-3.4c0-.28.22-.5.5-.5Zm-.5,15.5v-3.4c1.96.4,3.5,1.94,3.9,3.9h-3.4c-.28,0-.5-.22-.5-.5Zm25.5.5h-3.4c.4-1.96,1.94-3.5,3.9-3.9v3.4c0,.28-.22.5-.5.5Z"/>
    <path class="cls-2" d="m15.17,11.67h3.33c.55,0,1-.45,1-1s-.45-1-1-1h-1.5v-.67c0-.55-.45-1-1-1s-1,.45-1,1v.68c-1.39.09-2.5,1.24-2.5,2.65s1.2,2.67,2.67,2.67h1.67c.37,0,.67.3.67.67s-.3.67-.67.67h-3.33c-.55,0-1,.45-1,1s.45,1,1,1h1.5v.67c0,.55.45,1,1,1s1-.45,1-1v-.68c1.39-.09,2.5-1.24,2.5-2.65s-1.2-2.67-2.67-2.67h-1.67c-.37,0-.67-.3-.67-.67s.3-.67.67-.67Z"/>
    <path class="cls-2" d="m23.5,13h-1c-.55,0-1,.45-1,1s.45,1,1,1h1c.55,0,1-.45,1-1s-.45-1-1-1Z"/>
    <path class="cls-2" d="m9.5,13h-1c-.55,0-1,.45-1,1s.45,1,1,1h1c.55,0,1-.45,1-1s-.45-1-1-1Z"/>
  </g>
  <g>
    <path class="cls-1" d="m3,26v1c0,.55.45,1,1,1h24c.55,0,1-.45,1-1v-1H3Z"/>
    <path class="cls-1" d="m16.83,16.33h-3.33c-.55,0-1,.45-1,1s.45,1,1,1h1.5v.67c0,.55.45,1,1,1s1-.45,1-1v-.68c1.39-.09,2.5-1.24,2.5-2.65s-1.2-2.67-2.67-2.67h-1.67c-.37,0-.67-.3-.67-.67s.3-.67.67-.67h3.33c.55,0,1-.45,1-1s-.45-1-1-1h-1.5v-.67c0-.55-.45-1-1-1s-1,.45-1,1v.68c-1.39.09-2.5,1.24-2.5,2.65s1.2,2.67,2.67,2.67h1.67c.37,0,.67.3.67.67s-.3.67-.67.67Z"/>
    <path class="cls-1" d="m22.5,15h1c.55,0,1-.45,1-1s-.45-1-1-1h-1c-.55,0-1,.45-1,1s.45,1,1,1Z"/>
    <path class="cls-1" d="m8.5,15h1c.55,0,1-.45,1-1s-.45-1-1-1h-1c-.55,0-1,.45-1,1s.45,1,1,1Z"/>
  </g>
</svg>