<?xml version="1.0" encoding="UTF-8"?>
<svg id="OBJECT" xmlns="http://www.w3.org/2000/svg" viewBox="0 0 32 32">
  <defs>
    <style>
      .cls-1 {
        fill: #FD4360;
      }

      .cls-1, .cls-2 {
        stroke-width: 0px;
      }

      .cls-2 {
        fill: #dadada;
      }
    </style>
  </defs>
  <g>
    <path class="cls-2" d="m30,13H2c-.55,0-1,.45-1,1v16c0,.55.45,1,1,1h28c.55,0,1-.45,1-1V14c0-.55-.45-1-1-1Zm-1,4h-1c-.55,0-1-.45-1-1v-1h2v2Zm-4,11v1H7v-1c0-1.65-1.35-3-3-3h-1v-6h1c1.65,0,3-1.35,3-3v-1h18v1c0,1.65,1.35,3,3,3h1v6h-1c-1.65,0-3,1.35-3,3ZM5,15v1c0,.55-.45,1-1,1h-1v-2h2Zm-2,12h1c.55,0,1,.45,1,1v1h-2v-2Zm24,2v-1c0-.55.45-1,1-1h1v2h-2Z"/>
    <path class="cls-2" d="m16,16.5c-3.03,0-5.5,2.47-5.5,5.5s2.47,5.5,5.5,5.5,5.5-2.47,5.5-5.5-2.47-5.5-5.5-5.5Zm0,9c-1.93,0-3.5-1.57-3.5-3.5s1.57-3.5,3.5-3.5,3.5,1.57,3.5,3.5-1.57,3.5-3.5,3.5Z"/>
    <path class="cls-2" d="m26,21h-2c-.55,0-1,.45-1,1s.45,1,1,1h2c.55,0,1-.45,1-1s-.45-1-1-1Z"/>
    <path class="cls-2" d="m8,21h-2c-.55,0-1,.45-1,1s.45,1,1,1h2c.55,0,1-.45,1-1s-.45-1-1-1Z"/>
  </g>
  <g>
    <path class="cls-1" d="m23.7,5.47l2.34-1.09-1.31-2.8c-.23-.5-.83-.72-1.33-.48l-2.91,1.36,1.04,2.23c.38.82,1.36,1.17,2.17.79Z"/>
    <path class="cls-1" d="m14.33,10.07c-.47.22-.86.54-1.17.93h5.15c-.63-.79-1.59-1.24-2.58-1.24-.47,0-.94.1-1.39.31Z"/>
    <path class="cls-1" d="m26.88,6.19l-2.34,1.09c-.5.23-1.02.34-1.53.34-1.37,0-2.68-.78-3.3-2.1l-1.04-2.23L2.16,11h8.7c.51-1.21,1.43-2.19,2.63-2.74,2.66-1.24,5.82-.09,7.06,2.57.03.06.04.12.06.17h8.52l-2.24-4.81Z"/>
  </g>
</svg>