<?xml version="1.0" encoding="UTF-8"?>
<svg id="OBJECT" xmlns="http://www.w3.org/2000/svg" viewBox="0 0 32 32">
  <defs>
    <style>
      .cls-1 {
        fill: #FD4360;
      }

      .cls-2 {
        fill: #dadada;
      }
    </style>
  </defs>
  <path class="cls-2" d="M27,19h-4V2c0-.55-.45-1-1-1H5c-.55,0-1,.45-1,1V28.5c0,1.38,1.12,2.5,2.5,2.5H25.5c1.38,0,2.5-1.12,2.5-2.5v-8.5c0-.55-.45-1-1-1Zm-6-13h-1c-1.1,0-2-.9-2-2v-1h3v3ZM9,3v1c0,1.1-.9,2-2,2h-1V3h3Zm-2.5,26c-.28,0-.5-.22-.5-.5V8h1c2.21,0,4-1.79,4-4v-1h5v1c0,2.21,1.79,4,4,4h1V28.5c0,.17,.02,.34,.05,.5H6.5Zm19.5-.5c0,.28-.22,.5-.5,.5h-2c-.28,0-.5-.22-.5-.5v-7.5h3v7.5Z"/>
  <g>
    <circle class="cls-1" cx="13.5" cy="20" r="6"/>
    <path class="cls-1" d="M13.5,12c.55,0,1-.45,1-1v-2c0-.55-.45-1-1-1s-1,.45-1,1v2c0,.55,.45,1,1,1Z"/>
  </g>
</svg>