<?xml version="1.0" encoding="UTF-8"?>
<svg id="OBJECT" xmlns="http://www.w3.org/2000/svg" viewBox="0 0 32 32">
  <defs>
    <style>
      .cls-1 {
        fill: #FD4360;
      }

      .cls-2 {
        fill: #dadada;
      }
    </style>
  </defs>
  <g>
    <path class="cls-2" d="M16,11.5c-2.48,0-4.5,2.02-4.5,4.5s2.02,4.5,4.5,4.5,4.5-2.02,4.5-4.5-2.02-4.5-4.5-4.5Zm0,7c-1.38,0-2.5-1.12-2.5-2.5s1.12-2.5,2.5-2.5,2.5,1.12,2.5,2.5-1.12,2.5-2.5,2.5Z"/>
    <path class="cls-2" d="M30.89,15.55l-2-4c-.25-.49-.85-.69-1.34-.45-.49,.25-.69,.85-.45,1.34l.28,.55h-4.68c-.32,0-.61,.15-.8,.4-.19,.25-.25,.58-.16,.88,.17,.56,.25,1.14,.25,1.71s-.08,1.15-.25,1.71c-.09,.3-.03,.63,.16,.88,.19,.25,.49,.4,.8,.4h4.68l-.28,.55c-.25,.49-.05,1.09,.45,1.34,.14,.07,.3,.11,.45,.11,.37,0,.72-.2,.9-.55l2-4c.14-.28,.14-.61,0-.89Zm-6.96,1.45c.04-.33,.06-.67,.06-1s-.02-.67-.06-1h4.45l.5,1-.5,1h-4.45Z"/>
    <path class="cls-2" d="M10.1,13.4c-.19-.25-.49-.4-.8-.4H4.62l.28-.55c.25-.49,.05-1.09-.45-1.34-.49-.25-1.09-.05-1.34,.45L1.11,15.55c-.14,.28-.14,.61,0,.89l2,4c.18,.35,.53,.55,.9,.55,.15,0,.3-.03,.45-.11,.49-.25,.69-.85,.45-1.34l-.28-.55h4.68c.32,0,.61-.15,.8-.4,.19-.25,.25-.58,.16-.88-.17-.56-.25-1.14-.25-1.71s.08-1.15,.25-1.71c.09-.3,.03-.63-.16-.88Zm-2.03,3.6H3.62l-.5-1,.5-1h4.45c-.04,.33-.06,.67-.06,1s.02,.67,.06,1Z"/>
  </g>
  <g>
    <path class="cls-1" d="M12.45,4.89l3.55-1.78,3.55,1.78c.14,.07,.3,.11,.45,.11,.37,0,.72-.2,.9-.55,.25-.49,.05-1.09-.45-1.34l-4-2c-.28-.14-.61-.14-.89,0l-4,2c-.49,.25-.69,.85-.45,1.34,.25,.49,.85,.69,1.34,.45Z"/>
    <path class="cls-1" d="M19,6.62l-3-1.5-3,1.5v2.68c0,.32,.15,.61,.4,.8,.25,.19,.58,.25,.88,.16,1.12-.33,2.31-.33,3.43,0,.09,.03,.19,.04,.29,.04,.21,0,.42-.07,.6-.2,.25-.19,.4-.49,.4-.8v-2.68Z"/>
    <path class="cls-1" d="M20,27c-.15,0-.3,.03-.45,.11l-3.55,1.78-3.55-1.78c-.49-.25-1.09-.05-1.34,.45-.25,.49-.05,1.09,.45,1.34l4,2c.28,.14,.61,.14,.89,0l4-2c.49-.25,.69-.85,.45-1.34-.18-.35-.53-.55-.9-.55Z"/>
    <path class="cls-1" d="M18,21.71c-.1,0-.19,.01-.29,.04-1.12,.33-2.31,.33-3.43,0-.3-.09-.63-.03-.88,.16-.25,.19-.4,.49-.4,.8v2.68l3,1.5,3-1.5v-2.68c0-.32-.15-.61-.4-.8-.17-.13-.38-.2-.6-.2Z"/>
  </g>
</svg>