<?xml version="1.0" encoding="UTF-8"?>
<svg id="OBJECT" xmlns="http://www.w3.org/2000/svg" viewBox="0 0 32 32">
  <defs>
    <style>
      .cls-1 {
        fill: #FD4360;
      }

      .cls-2 {
        fill: #dadada;
      }
    </style>
  </defs>
  <path class="cls-2" d="m30.71,6.29l-2.5-2.5c-.39-.39-1.02-.39-1.41,0s-.39,1.02,0,1.41l.79.79h-4.59c-1.65,0-3,1.35-3,3v.76c-.94-.37-1.95-.62-3-.71v-4.64l1.29,1.29c.2.2.45.29.71.29s.51-.1.71-.29c.39-.39.39-1.02,0-1.41l-3-3c-.39-.39-1.02-.39-1.41,0l-3,3c-.39.39-.39,1.02,0,1.41s1.02.39,1.41,0l1.29-1.29v4.64c-1.05.1-2.06.34-3,.71v-.76c0-1.65-1.35-3-3-3h-4.59l.79-.79c.39-.39.39-1.02,0-1.41s-1.02-.39-1.41,0l-2.5,2.5c-.39.39-.39,1.02,0,1.41l2.5,2.5c.2.2.45.29.71.29s.51-.1.71-.29c.39-.39.39-1.02,0-1.41l-.79-.79h4.59c.55,0,1,.45,1,1v1.79c-3.01,1.97-5,5.36-5,9.21,0,6.07,4.93,11,11,11s11-4.93,11-11c0-3.85-1.99-7.24-5-9.21v-1.79c0-.55.45-1,1-1h4.59l-.79.79c-.39.39-.39,1.02,0,1.41.2.2.45.29.71.29s.51-.1.71-.29l2.5-2.5c.39-.39.39-1.02,0-1.41Zm-5.71,13.71c0,4.96-4.04,9-9,9s-9-4.04-9-9,4.04-9,9-9,9,4.04,9,9Z"/>
  <g>
    <circle class="cls-1" cx="16" cy="16" r="3"/>
    <path class="cls-1" d="m19.27,19.75c-.88.77-2.02,1.25-3.27,1.25s-2.39-.48-3.27-1.25c-1.05.92-1.73,2.25-1.73,3.75v.5c0,1.38,1.12,2.5,2.5,2.5h5c1.38,0,2.5-1.12,2.5-2.5v-.5c0-1.5-.68-2.83-1.73-3.75Z"/>
  </g>
</svg>