<?xml version="1.0" encoding="UTF-8"?>
<svg id="OBJECT" xmlns="http://www.w3.org/2000/svg" viewBox="0 0 32 32">
  <defs>
    <style>
      .cls-1 {
        fill: #FD4360;
      }

      .cls-1, .cls-2 {
        stroke-width: 0px;
      }

      .cls-2 {
        fill: #dadada;
      }
    </style>
  </defs>
  <g>
    <path class="cls-2" d="m27.86,6.49l-3-5c-.18-.3-.51-.49-.86-.49H5c-.55,0-1,.45-1,1v10c0,.55.45,1,1,1h7v9c0,.55.45,1,1,1s1-.45,1-1v-9h2v9c0,.55.45,1,1,1s1-.45,1-1v-9h6c.35,0,.68-.18.86-.49l3-5c.19-.32.19-.71,0-1.03Zm-4.42,4.51H6V3h17.43l2.4,4-2.4,4Z"/>
    <path class="cls-2" d="m22,7.75h-14c-.55,0-1,.45-1,1s.45,1,1,1h14c.55,0,1-.45,1-1s-.45-1-1-1Z"/>
    <path class="cls-2" d="m22,4.25h-10c-.55,0-1,.45-1,1s.45,1,1,1h10c.55,0,1-.45,1-1s-.45-1-1-1Z"/>
    <path class="cls-2" d="m8,6.25h.5c.55,0,1-.45,1-1s-.45-1-1-1h-.5c-.55,0-1,.45-1,1s.45,1,1,1Z"/>
  </g>
  <path class="cls-1" d="m25,29h-2v-4H7v4h-2c-.55,0-1,.45-1,1s.45,1,1,1h20c.55,0,1-.45,1-1s-.45-1-1-1Z"/>
</svg>