<?xml version="1.0" encoding="UTF-8"?>
<svg id="OBJECT" xmlns="http://www.w3.org/2000/svg" viewBox="0 0 32 32">
  <defs>
    <style>
      .cls-1 {
        fill: #FD4360;
      }

      .cls-1, .cls-2 {
        stroke-width: 0px;
      }

      .cls-2 {
        fill: #dadada;
      }
    </style>
  </defs>
  <g>
    <path class="cls-2" d="m16,13c-4.96,0-9,4.04-9,9s4.04,9,9,9,9-4.04,9-9-4.04-9-9-9Zm0,16c-2.22,0-4.21-1.05-5.49-2.67.81-1.03,1.88-1.81,3.11-2.26.67.48,1.49.78,2.38.78s1.71-.29,2.38-.78c1.23.45,2.31,1.23,3.11,2.26-1.28,1.62-3.26,2.67-5.49,2.67Zm0-6.15c-1.15,0-2.08-.93-2.08-2.08s.93-2.08,2.08-2.08,2.08.93,2.08,2.08-.93,2.08-2.08,2.08Zm6.55,1.61c-.8-.85-1.77-1.53-2.83-2.02.23-.51.36-1.07.36-1.66,0-2.25-1.83-4.08-4.08-4.08s-4.08,1.83-4.08,4.08c0,.59.13,1.15.36,1.66-1.07.48-2.03,1.17-2.83,2.02-.29-.76-.45-1.59-.45-2.45,0-3.86,3.14-7,7-7s7,3.14,7,7c0,.86-.16,1.69-.45,2.45Z"/>
    <path class="cls-2" d="m30.89,9.18l-2-4c-.25-.49-.85-.69-1.34-.45-.49.25-.69.85-.45,1.34l1.28,2.55h-2.18c-1.11,0-2.12.61-2.64,1.58l-1.43,2.68c-.26.49-.08,1.09.41,1.35.15.08.31.12.47.12.36,0,.7-.19.88-.53l1.43-2.68c.17-.33.51-.53.88-.53h2.18l-1.28,2.55c-.25.49-.05,1.09.45,1.34.14.07.3.11.45.11.37,0,.72-.2.9-.55l2-4c.14-.28.14-.61,0-.89Z"/>
    <path class="cls-2" d="m9,14.36c.16,0,.32-.04.47-.12.49-.26.67-.87.41-1.35l-1.43-2.68c-.52-.98-1.54-1.58-2.64-1.58h-2.18l1.28-2.55c.25-.49.05-1.09-.45-1.34-.5-.24-1.09-.05-1.34.45l-2,4c-.14.28-.14.61,0,.89l2,4c.18.35.53.55.9.55.15,0,.3-.03.45-.11.49-.25.69-.85.45-1.34l-1.28-2.55h2.18c.37,0,.71.2.88.53l1.43,2.68c.18.34.53.53.88.53Z"/>
  </g>
  <path class="cls-1" d="m10.5,6.3l1-.57v6.25c1.38-.62,2.9-.97,4.5-.97s3.12.35,4.5.97v-6.25l1,.57c.16.09.33.13.5.13.35,0,.68-.18.87-.5.27-.48.11-1.09-.37-1.36l-6-3.43c-.31-.18-.69-.18-.99,0l-6,3.43c-.48.27-.65.88-.37,1.36.27.48.88.65,1.36.37Zm6.5.7c0,.55-.45,1-1,1s-1-.45-1-1v-1c0-.55.45-1,1-1s1,.45,1,1v1Z"/>
</svg>