<?xml version="1.0" encoding="UTF-8"?>
<svg id="OBJECT" xmlns="http://www.w3.org/2000/svg" viewBox="0 0 32 32">
  <defs>
    <style>
      .cls-1 {
        fill: #FD4360;
      }

      .cls-1, .cls-2 {
        stroke-width: 0px;
      }

      .cls-2 {
        fill: #dadada;
      }
    </style>
  </defs>
  <g>
    <path class="cls-2" d="m27.92,21.61c.05-.26.08-.53.08-.81v-1.8c0-1.87-1.53-3.4-3.4-3.4h-1.2c-1.87,0-3.4,1.53-3.4,3.4v1.8c0,.28.03.55.08.81-1.92,1.29-3.08,3.44-3.08,5.79v.2c0,1.87,1.53,3.4,3.4,3.4h7.2c1.87,0,3.4-1.53,3.4-3.4v-.2c0-2.35-1.17-4.5-3.08-5.79Zm-5.92-2.61c0-.77.63-1.4,1.4-1.4h1.2c.77,0,1.4.63,1.4,1.4v1.8c0,1.1-.9,2-2,2s-2-.9-2-2v-1.8Zm7,8.6c0,.77-.63,1.4-1.4,1.4h-7.2c-.77,0-1.4-.63-1.4-1.4v-.2c0-1.59.75-3.05,2-3.98.73.84,1.8,1.38,3,1.38s2.27-.54,3-1.38c1.25.94,2,2.39,2,3.98v.2Z"/>
    <path class="cls-2" d="m11.92,21.61c.05-.26.08-.53.08-.81v-1.8c0-1.87-1.53-3.4-3.4-3.4h-1.2c-1.87,0-3.4,1.53-3.4,3.4v1.8c0,.28.03.55.08.81-1.92,1.29-3.08,3.44-3.08,5.79v.2c0,1.87,1.53,3.4,3.4,3.4h7.2c1.87,0,3.4-1.53,3.4-3.4v-.2c0-2.35-1.17-4.5-3.08-5.79Zm-5.92-2.61c0-.77.63-1.4,1.4-1.4h1.2c.77,0,1.4.63,1.4,1.4v1.8c0,1.1-.9,2-2,2s-2-.9-2-2v-1.8Zm7,8.6c0,.77-.63,1.4-1.4,1.4h-7.2c-.77,0-1.4-.63-1.4-1.4v-.2c0-1.59.75-3.05,2-3.98.73.84,1.8,1.38,3,1.38s2.27-.54,3-1.38c1.25.94,2,2.39,2,3.98v.2Z"/>
  </g>
  <path class="cls-1" d="m19.88,15h-2.88c-.55,0-1-.45-1-1s.45-1,1-1h7.92c1.7,0,3.08-1.38,3.08-3.08v-5.84c0-1.7-1.38-3.08-3.08-3.08H7.08c-1.7,0-3.08,1.38-3.08,3.08v5.84c0,1.7,1.38,3.08,3.08,3.08h3.44l3.07,3.84c.59.73,1.46,1.16,2.41,1.16s1.82-.42,2.41-1.16l1.48-1.84Zm-7.38-10.75h11c.55,0,1,.45,1,1s-.45,1-1,1h-11c-.55,0-1-.45-1-1s.45-1,1-1Zm-4,0h.5c.55,0,1,.45,1,1s-.45,1-1,1h-.5c-.55,0-1-.45-1-1s.45-1,1-1Zm0,5.5c-.55,0-1-.45-1-1s.45-1,1-1h15c.55,0,1,.45,1,1s-.45,1-1,1h-15Z"/>
</svg>