<?xml version="1.0" encoding="UTF-8"?>
<svg id="OBJECT" xmlns="http://www.w3.org/2000/svg" viewBox="0 0 32 32">
  <defs>
    <style>
      .cls-1 {
        fill: #FD4360;
      }

      .cls-1, .cls-2 {
        stroke-width: 0px;
      }

      .cls-2 {
        fill: #dadada;
      }
    </style>
  </defs>
  <g>
    <path class="cls-2" d="m27,13H5c-.55,0-1,.45-1,1s.45,1,1,1h1v3c0,.55.45,1,1,1h1.5v10h-1.5c-.55,0-1,.45-1,1s.45,1,1,1h18c.55,0,1-.45,1-1s-.45-1-1-1h-1.5v-10h1.5c.55,0,1-.45,1-1v-3h1c.55,0,1-.45,1-1s-.45-1-1-1Zm-5.5,16h-11v-10h11v10Zm2.5-12H8v-2h16v2Z"/>
    <path class="cls-2" d="m14,27.5c.55,0,1-.45,1-1v-5c0-.55-.45-1-1-1s-1,.45-1,1v5c0,.55.45,1,1,1Z"/>
    <path class="cls-2" d="m18,27.5c.55,0,1-.45,1-1v-5c0-.55-.45-1-1-1s-1,.45-1,1v5c0,.55.45,1,1,1Z"/>
  </g>
  <g>
    <path class="cls-1" d="m20.46,7.01c-.82,1.65-2.5,2.79-4.46,2.79s-3.65-1.15-4.46-2.79c-.95,1.06-1.54,2.46-1.54,3.99h12c0-1.53-.58-2.93-1.54-3.99Z"/>
    <path class="cls-1" d="m16,7.8c1.65,0,3-1.35,3-3v-1.2c0-1.43-1.17-2.6-2.6-2.6h-.8c-1.43,0-2.6,1.17-2.6,2.6v1.2c0,1.65,1.35,3,3,3Z"/>
  </g>
</svg>