<?xml version="1.0" encoding="UTF-8"?>
<svg id="OBJECT" xmlns="http://www.w3.org/2000/svg" viewBox="0 0 512 512">
  <defs>
    <style>
      .cls-1 {
        fill: #FD4360;
      }

      .cls-2 {
        fill: #dadada;
      }
    </style>
  </defs>
  <g>
    <path class="cls-2" d="M416,265H96c-12.41,0-22.5,10.09-22.5,22.5v10c0,12.41,10.09,22.5,22.5,22.5h23.42l18.03,137h-16.45c-12.41,0-22.5,10.09-22.5,22.5v25c0,4.14,3.36,7.5,7.5,7.5H406c4.14,0,7.5-3.36,7.5-7.5v-25c0-12.41-10.09-22.5-22.5-22.5h-16.45l18.03-137h23.42c12.41,0,22.5-10.09,22.5-22.5v-10c0-12.41-10.09-22.5-22.5-22.5Zm-17.5,214.5v17.5H113.5v-17.5c0-4.14,3.36-7.5,7.5-7.5H391c4.14,0,7.5,3.36,7.5,7.5Zm-39.08-22.5H152.58l-18.03-137h242.9l-18.03,137Zm64.08-159.5c0,4.14-3.36,7.5-7.5,7.5H96c-4.14,0-7.5-3.36-7.5-7.5v-10c0-4.14,3.36-7.5,7.5-7.5H416c4.14,0,7.5,3.36,7.5,7.5v10Z"/>
    <path class="cls-2" d="M251,437h10c12.41,0,22.5-10.09,22.5-22.5v-52c0-12.41-10.09-22.5-22.5-22.5h-10c-12.41,0-22.5,10.09-22.5,22.5v52c0,12.41,10.09,22.5,22.5,22.5Zm-7.5-74.5c0-4.14,3.36-7.5,7.5-7.5h10c4.14,0,7.5,3.36,7.5,7.5v52c0,4.14-3.36,7.5-7.5,7.5h-10c-4.14,0-7.5-3.36-7.5-7.5v-52Z"/>
    <path class="cls-2" d="M160.44,365.66l7.37,52c1.56,11.03,11.14,19.34,22.28,19.34h.92c12.41,0,22.5-10.09,22.5-22.5v-52c0-12.41-10.09-22.5-22.5-22.5h-8.28c-6.52,0-12.71,2.82-16.99,7.75-4.28,4.92-6.2,11.45-5.29,17.91Zm16.61-8.07c1.45-1.67,3.46-2.58,5.66-2.58h8.28c4.14,0,7.5,3.36,7.5,7.5v52c0,4.14-3.36,7.5-7.5,7.5h-.92c-3.71,0-6.91-2.77-7.43-6.45l-7.37-52c-.31-2.18,.32-4.3,1.76-5.97Z"/>
    <path class="cls-2" d="M321,437h.92c11.14,0,20.72-8.32,22.28-19.34l7.37-52c.92-6.46-1.01-12.98-5.29-17.91-4.28-4.92-10.47-7.75-16.99-7.75h-8.28c-12.41,0-22.5,10.09-22.5,22.5v52c0,12.41,10.09,22.5,22.5,22.5Zm-7.5-74.5c0-4.14,3.36-7.5,7.5-7.5h8.28c2.21,0,4.22,.92,5.66,2.58,1.45,1.67,2.07,3.79,1.76,5.97l-7.37,52c-.52,3.68-3.71,6.45-7.43,6.45h-.92c-4.14,0-7.5-3.36-7.5-7.5v-52Z"/>
  </g>
  <g>
    <path class="cls-1" d="M256,135c28.95,0,52.5-23.55,52.5-52.5V32.5c0-17.92-14.58-32.5-32.5-32.5h-40c-17.92,0-32.5,14.58-32.5,32.5v50c0,28.95,23.55,52.5,52.5,52.5Zm-20.3-44.02c2.93-2.93,7.68-2.93,10.61,0,2.59,2.59,6.03,4.02,9.7,4.02s7.11-1.43,9.7-4.02c2.93-2.93,7.68-2.93,10.61,0,2.93,2.93,2.93,7.68,0,10.61-5.42,5.42-12.63,8.41-20.3,8.41s-14.88-2.99-20.3-8.41c-2.93-2.93-2.93-7.68,0-10.61Z"/>
    <path class="cls-1" d="M388.5,225h-72.5c-4.2,0-7.47-3.45-7.5-7.65-.14-17.55-24.12-32.35-52.5-32.35s-52.36,14.8-52.5,32.35c-.03,4.2-3.3,7.65-7.5,7.65H123.5c-8.28,0-15,6.72-15,15v10H403.5v-10c0-8.28-6.72-15-15-15Zm-112.5,0h-40c-4.14,0-7.5-3.36-7.5-7.5s3.36-7.5,7.5-7.5h40c4.14,0,7.5,3.36,7.5,7.5s-3.36,7.5-7.5,7.5Z"/>
    <path class="cls-1" d="M209.41,182.98c12.55-8.37,29.1-12.98,46.59-12.98s34.04,4.61,46.59,12.98c10.9,7.27,17.85,16.67,20.11,27.02h55.81v-7.5c0-43.49-22.79-81.76-57.05-103.5-7.38,29.27-33.92,51-65.45,51s-58.07-21.73-65.45-51c-34.26,21.74-57.05,60.01-57.05,103.5v7.5h55.81c2.26-10.35,9.2-19.76,20.11-27.02Z"/>
  </g>
</svg>