<?xml version="1.0" encoding="UTF-8"?>
<svg id="OBJECT" xmlns="http://www.w3.org/2000/svg" viewBox="0 0 512 512">
  <defs>
    <style>
      .cls-1 {
        fill: #FD4360;
      }

      .cls-2 {
        fill: #dadada;
      }
    </style>
  </defs>
  <g>
    <path class="cls-2" d="M504.5,457H7.5c-4.14,0-7.5,3.36-7.5,7.5v25c0,12.41,10.09,22.5,22.5,22.5H489.5c12.41,0,22.5-10.09,22.5-22.5v-25c0-4.14-3.36-7.5-7.5-7.5Zm-7.5,32.5c0,4.14-3.36,7.5-7.5,7.5H22.5c-4.14,0-7.5-3.36-7.5-7.5v-17.5H497v17.5Z"/>
    <path class="cls-2" d="M52.5,432h100c12.41,0,22.5-10.09,22.5-22.5v-30c0-26.38-14.27-50.42-36.92-63.17,1.24-3.72,1.92-7.7,1.92-11.83v-30c0-15.16-12.34-27.5-27.5-27.5h-20c-15.16,0-27.5,12.34-27.5,27.5v30c0,4.13,.68,8.11,1.92,11.83-22.65,12.75-36.92,36.79-36.92,63.17v30c0,12.41,10.09,22.5,22.5,22.5Zm27.5-157.5c0-6.89,5.61-12.5,12.5-12.5h20c6.89,0,12.5,5.61,12.5,12.5v30c0,12.41-10.09,22.5-22.5,22.5s-22.5-10.09-22.5-22.5v-30Zm-35,105c0-20.97,11.38-40.08,29.43-50.18,6.88,7.77,16.91,12.68,28.07,12.68s21.2-4.91,28.07-12.68c18.05,10.1,29.43,29.2,29.43,50.18v30c0,4.14-3.36,7.5-7.5,7.5h-7.5v-32.5c0-4.14-3.36-7.5-7.5-7.5s-7.5,3.36-7.5,7.5v32.5h-55v-32.5c0-4.14-3.36-7.5-7.5-7.5s-7.5,3.36-7.5,7.5v32.5h-7.5c-4.14,0-7.5-3.36-7.5-7.5v-30Z"/>
    <path class="cls-2" d="M359.5,432h100c12.41,0,22.5-10.09,22.5-22.5v-30c0-26.38-14.27-50.42-36.92-63.17,1.24-3.72,1.92-7.7,1.92-11.83v-30c0-15.16-12.34-27.5-27.5-27.5h-20c-15.16,0-27.5,12.34-27.5,27.5v30c0,4.13,.68,8.11,1.92,11.83-22.65,12.75-36.92,36.79-36.92,63.17v30c0,12.41,10.09,22.5,22.5,22.5Zm27.5-157.5c0-6.89,5.61-12.5,12.5-12.5h20c6.89,0,12.5,5.61,12.5,12.5v30c0,12.41-10.09,22.5-22.5,22.5s-22.5-10.09-22.5-22.5v-30Zm-35,105c0-20.97,11.38-40.08,29.43-50.18,6.88,7.77,16.91,12.68,28.07,12.68s21.2-4.91,28.07-12.68c18.05,10.1,29.43,29.2,29.43,50.18v30c0,4.14-3.36,7.5-7.5,7.5h-7.5v-32.5c0-4.14-3.36-7.5-7.5-7.5s-7.5,3.36-7.5,7.5v32.5h-55v-32.5c0-4.14-3.36-7.5-7.5-7.5s-7.5,3.36-7.5,7.5v32.5h-7.5c-4.14,0-7.5-3.36-7.5-7.5v-30Z"/>
    <path class="cls-2" d="M243.5,332h25c4.14,0,7.5-3.36,7.5-7.5s-3.36-7.5-7.5-7.5h-25c-4.14,0-7.5,3.36-7.5,7.5s3.36,7.5,7.5,7.5Z"/>
    <path class="cls-2" d="M193.5,332h15c4.14,0,7.5-3.36,7.5-7.5s-3.36-7.5-7.5-7.5h-15c-4.14,0-7.5,3.36-7.5,7.5s3.36,7.5,7.5,7.5Z"/>
    <path class="cls-2" d="M303.5,332h15c4.14,0,7.5-3.36,7.5-7.5s-3.36-7.5-7.5-7.5h-15c-4.14,0-7.5,3.36-7.5,7.5s3.36,7.5,7.5,7.5Z"/>
  </g>
  <path class="cls-1" d="M410.43,0H101.57c-15.48,0-28.07,12.59-28.07,28.07V186.93c0,15.48,12.59,28.07,28.07,28.07h85.78l46.57,59.27c5.36,6.82,13.4,10.73,22.08,10.73s16.72-3.91,22.08-10.73l46.57-59.27h85.78c15.48,0,28.07-12.59,28.07-28.07V28.07c0-15.48-12.59-28.07-28.07-28.07ZM126,45h10c4.14,0,7.5,3.36,7.5,7.5s-3.36,7.5-7.5,7.5h-10c-4.14,0-7.5-3.36-7.5-7.5s3.36-7.5,7.5-7.5Zm260,125H126c-4.14,0-7.5-3.36-7.5-7.5s3.36-7.5,7.5-7.5H386c4.14,0,7.5,3.36,7.5,7.5s-3.36,7.5-7.5,7.5ZM118.5,125.83c0-4.14,3.36-7.5,7.5-7.5h220c4.14,0,7.5,3.36,7.5,7.5s-3.36,7.5-7.5,7.5H126c-4.14,0-7.5-3.36-7.5-7.5Zm267.5,7.5h-10c-4.14,0-7.5-3.36-7.5-7.5s3.36-7.5,7.5-7.5h10c4.14,0,7.5,3.36,7.5,7.5s-3.36,7.5-7.5,7.5Zm0-36.67H126c-4.14,0-7.5-3.36-7.5-7.5s3.36-7.5,7.5-7.5H386c4.14,0,7.5,3.36,7.5,7.5s-3.36,7.5-7.5,7.5Zm0-36.67H166c-4.14,0-7.5-3.36-7.5-7.5s3.36-7.5,7.5-7.5h220c4.14,0,7.5,3.36,7.5,7.5s-3.36,7.5-7.5,7.5Z"/>
</svg>