<?xml version="1.0" encoding="UTF-8"?>
<svg id="OBJECT" xmlns="http://www.w3.org/2000/svg" viewBox="0 0 32 32">
  <defs>
    <style>
      .cls-1 {
        fill: #FD4360;
      }

      .cls-2 {
        fill: #dadada;
      }
    </style>
  </defs>
  <g>
    <path class="cls-2" d="m29,12.57V4.43c0-1.89-1.54-3.43-3.43-3.43H6.43c-1.89,0-3.43,1.54-3.43,3.43v8.15c0,1.89,1.54,3.43,3.43,3.43h5.45l1.05,2.11c.58,1.17,1.76,1.89,3.07,1.89s2.48-.73,3.07-1.89l1.05-2.11h5.45c1.89,0,3.43-1.54,3.43-3.43Zm-9.5,1.43c-.38,0-.73.21-.89.55l-1.33,2.66c-.24.49-.73.79-1.28.79s-1.03-.3-1.28-.79l-1.33-2.66c-.17-.34-.52-.55-.89-.55h-6.07c-.79,0-1.43-.64-1.43-1.43V4.43c0-.79.64-1.43,1.43-1.43h19.15c.79,0,1.43.64,1.43,1.43v8.15c0,.79-.64,1.43-1.43,1.43h-6.07Z"/>
    <path class="cls-2" d="m28.64,23.77c.53-.61.86-1.4.86-2.27,0-1.93-1.57-3.5-3.5-3.5s-3.5,1.57-3.5,3.5c0,.87.33,1.66.86,2.27-1.41.88-2.36,2.44-2.36,4.23v.5c0,1.38,1.12,2.5,2.5,2.5h5c1.38,0,2.5-1.12,2.5-2.5v-.5c0-1.79-.95-3.34-2.36-4.23Zm-4.14-2.27c0-.83.67-1.5,1.5-1.5s1.5.67,1.5,1.5-.67,1.5-1.5,1.5-1.5-.67-1.5-1.5Zm4.5,7c0,.28-.22.5-.5.5h-5c-.28,0-.5-.22-.5-.5v-.5c0-1.65,1.35-3,3-3s3,1.35,3,3v.5Z"/>
    <path class="cls-2" d="m24,5.25h-12c-.55,0-1,.45-1,1s.45,1,1,1h12c.55,0,1-.45,1-1s-.45-1-1-1Z"/>
    <path class="cls-2" d="m8,7.25h1c.55,0,1-.45,1-1s-.45-1-1-1h-1c-.55,0-1,.45-1,1s.45,1,1,1Z"/>
    <path class="cls-2" d="m20,9.75h-12c-.55,0-1,.45-1,1s.45,1,1,1h12c.55,0,1-.45,1-1s-.45-1-1-1Z"/>
    <path class="cls-2" d="m24,9.75h-1c-.55,0-1,.45-1,1s.45,1,1,1h1c.55,0,1-.45,1-1s-.45-1-1-1Z"/>
  </g>
  <g>
    <circle class="cls-1" cx="6" cy="20.5" r="3"/>
    <path class="cls-1" d="m9.27,24.25c-.88.77-2.02,1.25-3.27,1.25s-2.39-.48-3.27-1.25c-1.05.92-1.73,2.25-1.73,3.75v.5c0,1.38,1.12,2.5,2.5,2.5h5c1.38,0,2.5-1.12,2.5-2.5v-.5c0-1.5-.68-2.83-1.73-3.75Z"/>
  </g>
</svg>