<?xml version="1.0" encoding="UTF-8"?>
<svg id="OBJECT" xmlns="http://www.w3.org/2000/svg" viewBox="0 0 32 32">
  <defs>
    <style>
      .cls-1 {
        fill: #FD4360;
      }

      .cls-1, .cls-2 {
        stroke-width: 0px;
      }

      .cls-2 {
        fill: #dadada;
      }
    </style>
  </defs>
  <g>
    <path class="cls-2" d="m28,2h-10c-1.65,0-3,1.35-3,3v6c0,1.65,1.35,3,3,3h10c1.65,0,3-1.35,3-3v-6c0-1.65-1.35-3-3-3Zm1,9c0,.55-.45,1-1,1h-10c-.55,0-1-.45-1-1v-6c0-.55.45-1,1-1h10c.55,0,1,.45,1,1v6Z"/>
    <path class="cls-2" d="m26.5,8.75h-7c-.55,0-1,.45-1,1s.45,1,1,1h7c.55,0,1-.45,1-1s-.45-1-1-1Z"/>
    <path class="cls-2" d="m26.5,5.25h-3c-.55,0-1,.45-1,1s.45,1,1,1h3c.55,0,1-.45,1-1s-.45-1-1-1Z"/>
    <path class="cls-2" d="m19.5,7.25h.5c.55,0,1-.45,1-1s-.45-1-1-1h-.5c-.55,0-1,.45-1,1s.45,1,1,1Z"/>
    <path class="cls-2" d="m28.44,22.11c.03-.2.06-.4.06-.61v-1.5c0-1.65-1.35-3-3-3h-1c-1.65,0-3,1.35-3,3v1.5c0,.21.03.41.06.61-1.6,1.11-2.56,2.92-2.56,4.89v1c0,1.65,1.35,3,3,3h6c1.65,0,3-1.35,3-3v-1c0-1.97-.96-3.78-2.56-4.89Zm-4.94-2.11c0-.55.45-1,1-1h1c.55,0,1,.45,1,1v1.5c0,.83-.67,1.5-1.5,1.5s-1.5-.67-1.5-1.5v-1.5Zm5.5,8c0,.55-.45,1-1,1h-6c-.55,0-1-.45-1-1v-1c0-1.21.56-2.33,1.49-3.08.64.66,1.53,1.08,2.51,1.08s1.88-.42,2.51-1.08c.93.75,1.49,1.86,1.49,3.08v1Z"/>
    <path class="cls-2" d="m14,18H4c-1.65,0-3,1.35-3,3v6c0,1.65,1.35,3,3,3h10c1.65,0,3-1.35,3-3v-6c0-1.65-1.35-3-3-3Zm1,9c0,.55-.45,1-1,1H4c-.55,0-1-.45-1-1v-6c0-.55.45-1,1-1h10c.55,0,1,.45,1,1v6Z"/>
    <path class="cls-2" d="m12.5,24.75h-7c-.55,0-1,.45-1,1s.45,1,1,1h7c.55,0,1-.45,1-1s-.45-1-1-1Z"/>
    <path class="cls-2" d="m5.5,23.25h3c.55,0,1-.45,1-1s-.45-1-1-1h-3c-.55,0-1,.45-1,1s.45,1,1,1Z"/>
    <path class="cls-2" d="m12.5,21.25h-.5c-.55,0-1,.45-1,1s.45,1,1,1h.5c.55,0,1-.45,1-1s-.45-1-1-1Z"/>
  </g>
  <g>
    <path class="cls-1" d="m12.02,7.73c-.86,1.92-2.78,3.27-5.02,3.27s-4.17-1.35-5.02-3.27c-.62.94-.98,2.06-.98,3.27v1c0,1.65,1.35,3,3,3h6c1.65,0,3-1.35,3-3v-1c0-1.21-.36-2.33-.98-3.27Z"/>
    <path class="cls-1" d="m7,9c1.93,0,3.5-1.57,3.5-3.5v-1.5c0-1.65-1.35-3-3-3h-1c-1.65,0-3,1.35-3,3v1.5c0,1.93,1.57,3.5,3.5,3.5Z"/>
  </g>
</svg>