<?xml version="1.0" encoding="UTF-8"?>
<svg id="OBJECT" xmlns="http://www.w3.org/2000/svg" viewBox="0 0 32 32">
  <defs>
    <style>
      .cls-1 {
        fill: #FD4360;
      }

      .cls-1, .cls-2 {
        stroke-width: 0px;
      }

      .cls-2 {
        fill: #dadada;
      }
    </style>
  </defs>
  <path class="cls-2" d="m25.71,6.39l-5.09-5.09c-.39-.39-1.02-.39-1.41,0s-.39,1.02,0,1.41l.84.84-3.94,1.97-3.13-3.13c-.39-.39-1.02-.39-1.41,0l-1.46,1.46c-2.28,2.28-2.69,5.82-1.13,8.58-.6.7-.97,1.59-.97,2.58,0,.66.18,1.28.47,1.84l-1.88,6.9c-.15.53.17,1.08.7,1.23.09.02.18.04.26.04.44,0,.84-.29.96-.74l1.57-5.77c.57.31,1.22.51,1.91.51.24,0,.47-.03.7-.07l.96,5.25c.09.48.51.82.98.82.06,0,.12,0,.18-.02.54-.1.9-.62.8-1.16l-1.06-5.78s0,0,0,0c1.1.62,2.31.94,3.53.94,1.85,0,3.69-.7,5.06-2.08l1.46-1.46c.39-.39.39-1.02,0-1.41l-3.13-3.13,1.97-3.94.84.84c.2.2.45.29.71.29s.51-.1.71-.29c.39-.39.39-1.02,0-1.41Zm-15.71,8.61c0-1.1.9-2,2-2s2,.9,2,2-.9,2-2,2-2-.9-2-2Zm11.75.48c-1.59,1.59-4.05,1.92-6.01.91.16-.44.27-.9.27-1.4,0-2.21-1.79-4-4-4-.49,0-.96.1-1.4.27-1.01-1.96-.68-4.42.91-6.01l.75-.75,10.23,10.23-.75.75Zm-1.75-6.08l-2.4-2.4,3.94-1.97.44.44-1.97,3.94Z"/>
  <path class="cls-1" d="m4,27v2c0,1.1.9,2,2,2h20c1.1,0,2-.9,2-2v-2H4Z"/>
</svg>