<?xml version="1.0" encoding="UTF-8"?>
<svg id="OBJECT" xmlns="http://www.w3.org/2000/svg" viewBox="0 0 32 32">
  <defs>
    <style>
      .cls-1 {
        fill: #FD4360;
      }

      .cls-1, .cls-2 {
        stroke-width: 0px;
      }

      .cls-2 {
        fill: #dadada;
      }
    </style>
  </defs>
  <g>
    <path class="cls-2" d="m25.24,20.28l-6-1.5c-.54-.14-1.08.19-1.21.73-.13.54.19,1.08.73,1.21l.24.06v3.22c0,.55.45,1,1,1s1-.45,1-1v-2.72l2,.5v2.22c0,.55.45,1,1,1s1-.45,1-1v-1.75s0,0,0,0c.45,0,.86-.3.97-.76.13-.54-.19-1.08-.73-1.21Z"/>
    <path class="cls-2" d="m12,20c-.55,0-1,.45-1,1v3c0,.55.45,1,1,1s1-.45,1-1v-3c0-.55-.45-1-1-1Z"/>
    <path class="cls-2" d="m15.26,16.92c.29.04.57.06.85.06,1.78,0,3.51-.69,4.8-1.98l.9-.9.04.04c.2.2.45.29.71.29s.51-.1.71-.29c.39-.39.39-1.02,0-1.41l-2.97-2.97,1.32-2.19.68.68c.2.2.45.29.71.29s.51-.1.71-.29c.39-.39.39-1.02,0-1.41l-5.54-5.54c-.39-.39-1.02-.39-1.41,0s-.39,1.02,0,1.41l.68.68-2.19,1.32-2.97-2.97c-.39-.39-1.02-.39-1.41,0s-.39,1.02,0,1.41l.04.04-.9.9c-2.05,2.05-2.53,5.12-1.32,7.69-.43.64-.68,1.4-.68,2.22,0,.92.33,1.76.85,2.44l-1.82,7.32c-.13.54.19,1.08.73,1.21.08.02.16.03.24.03.45,0,.86-.3.97-.76l1.62-6.51c.44.17.91.27,1.41.27s.97-.1,1.41-.27l1.62,6.51c.11.45.52.76.97.76.08,0,.16,0,.24-.03.54-.13.86-.68.73-1.21l-1.71-6.84Zm3.62-12.07l1.27,1.27-1.32,2.19-2.15-2.15,2.19-1.32Zm-7.47.66l.9-.9,8.09,8.09-.9.9c-.96.96-2.29,1.45-3.63,1.38.08-.31.13-.63.13-.96,0-2.21-1.79-4-4-4-.62,0-1.2.16-1.73.41-.57-1.7-.16-3.6,1.14-4.91Zm-1.41,8.5c0-1.1.9-2,2-2s2,.9,2,2-.9,2-2,2-2-.9-2-2Z"/>
  </g>
  <path class="cls-1" d="m5.5,27c-.83,0-1.5.67-1.5,1.5v1c0,.83.67,1.5,1.5,1.5h21c.83,0,1.5-.67,1.5-1.5v-2.5H5.5Z"/>
</svg>