<?xml version="1.0" encoding="UTF-8"?>
<svg id="OBJECT" xmlns="http://www.w3.org/2000/svg" viewBox="0 0 32 32">
  <defs>
    <style>
      .cls-1 {
        fill: #FD4360;
      }

      .cls-2 {
        fill: #dadada;
      }
    </style>
  </defs>
  <g>
    <path class="cls-2" d="M15,14c0-1.91-.75-3.69-2.13-5.02-1.37-1.33-3.18-2.02-5.09-1.97-3.73,.11-6.77,3.25-6.78,6.98,0,2.51,1.32,4.81,3.48,6.06l1.67,3.75c.33,.73,1.05,1.2,1.85,1.2s1.53-.47,1.85-1.2l1.67-3.75c2.16-1.25,3.48-3.54,3.48-6.05Zm-4.72,4.44c-.2,.1-.36,.27-.46,.48l-1.85,4.06-1.8-4.06c-.09-.21-.25-.38-.46-.48-1.68-.87-2.72-2.57-2.72-4.46,0-2.67,2.18-4.91,4.84-4.99,.05,0,.11,0,.16,0,1.31,0,2.54,.5,3.48,1.41,.98,.95,1.52,2.22,1.52,3.59,0,1.88-1.04,3.58-2.72,4.44Z"/>
    <path class="cls-2" d="M28.87,8.98c-1.37-1.33-3.18-2.02-5.09-1.97-3.73,.11-6.77,3.25-6.78,6.98,0,2.51,1.32,4.81,3.48,6.06l1.67,3.75c.33,.73,1.05,1.2,1.85,1.2s1.53-.47,1.85-1.2l1.67-3.75c2.16-1.25,3.48-3.54,3.48-6.05,0-1.91-.75-3.69-2.13-5.02Zm-2.59,9.47c-.2,.1-.36,.27-.46,.48l-1.85,4.06-1.8-4.06c-.09-.21-.25-.38-.46-.48-1.68-.87-2.72-2.57-2.72-4.46,0-2.67,2.18-4.91,4.84-4.99,.05,0,.11,0,.16,0,1.31,0,2.54,.5,3.48,1.41,.98,.95,1.52,2.22,1.52,3.59,0,1.88-1.04,3.58-2.72,4.44Z"/>
    <path class="cls-2" d="M12.75,22.8h-.5c-.55,0-1,.45-1,1s.45,1,1,1h.5c.55,0,1-.45,1-1s-.45-1-1-1Z"/>
    <path class="cls-2" d="M16.25,22.8h-.5c-.55,0-1,.45-1,1s.45,1,1,1h.5c.55,0,1-.45,1-1s-.45-1-1-1Z"/>
    <path class="cls-2" d="M19.75,22.8h-.5c-.55,0-1,.45-1,1s.45,1,1,1h.5c.55,0,1-.45,1-1s-.45-1-1-1Z"/>
  </g>
  <g>
    <circle class="cls-1" cx="8" cy="14" r="3.5"/>
    <circle class="cls-1" cx="24" cy="14" r="3.5"/>
  </g>
</svg>