<?xml version="1.0" encoding="UTF-8"?>
<svg id="OBJECT" xmlns="http://www.w3.org/2000/svg" viewBox="0 0 32 32">
  <defs>
    <style>
      .cls-1 {
        fill: #FD4360;
      }

      .cls-2 {
        fill: #dadada;
      }
    </style>
  </defs>
  <path class="cls-2" d="M25,25v-2.25c0-1.52-1.23-2.75-2.75-2.75s-2.75,1.23-2.75,2.75v2.25h-2.5v-4.94c0-.55-.45-1-1-1s-1,.45-1,1v4.94h-5.72l1.7-6.78c.13-.54-.19-1.08-.73-1.21-.53-.13-1.08,.19-1.21,.73l-1.82,7.26h-.22c-1.65,0-3,1.35-3,3v2c0,.55,.45,1,1,1H27c.55,0,1-.45,1-1v-2c0-1.65-1.35-3-3-3Zm-3.5-2.25c0-.41,.34-.75,.75-.75s.75,.34,.75,.75v2.25h-1.5v-2.25Zm4.5,6.25H6v-1c0-.55,.45-1,1-1H25c.55,0,1,.45,1,1v1Z"/>
  <path class="cls-1" d="M24.24,15.44l-3.81-3.81,1.41-4.24,.27,.27c.2,.2,.45,.29,.71,.29s.51-.1,.71-.29c.39-.39,.39-1.02,0-1.41l-4.24-4.24c-.39-.39-1.02-.39-1.41,0s-.39,1.02,0,1.41l.27,.27-4.24,1.41-3.81-3.81c-.39-.39-1.02-.39-1.41,0s-.39,1.02,0,1.41l.75,.75c-2.82,3.53-2.61,8.71,.66,11.98,1.7,1.7,3.96,2.64,6.36,2.64,2.07,0,4.03-.7,5.61-1.97l.75,.75c.2,.2,.45,.29,.71,.29s.51-.1,.71-.29c.39-.39,.39-1.02,0-1.41Zm-5.39-5.39l-3.37-3.37,4.24-1.41,.54,.54-1.41,4.24Z"/>
</svg>