<?xml version="1.0" encoding="UTF-8"?>
<svg id="OBJECT" xmlns="http://www.w3.org/2000/svg" viewBox="0 0 512 512">
  <defs>
    <style>
      .cls-1 {
        fill: #FD4360;
      }

      .cls-2 {
        fill: #dadada;
      }
    </style>
  </defs>
  <g>
    <path class="cls-2" d="M197.65,267.07c16.54,0,30-13.46,30-30s-13.46-30-30-30-30,13.46-30,30,13.46,30,30,30Zm0-45c8.27,0,15,6.73,15,15s-6.73,15-15,15-15-6.73-15-15,6.73-15,15-15Z"/>
    <path class="cls-2" d="M197.65,352c4.14,0,7.5-3.36,7.5-7.5v-10c0-4.14-3.36-7.5-7.5-7.5s-7.5,3.36-7.5,7.5v10c0,4.14,3.36,7.5,7.5,7.5Z"/>
    <path class="cls-2" d="M416,457h-27.5v-37.5c0-12.41-10.09-22.5-22.5-22.5h-20c-12.41,0-22.5,10.09-22.5,22.5v37.5h-40.07l-46.87-177.64c3.04-2.8,5.76-5.92,8.14-9.3,10.42,3.3,21.15,4.95,31.84,4.95,21.21,0,42.2-6.41,60.07-18.88,3.4-2.37,4.23-7.04,1.86-10.44-2.37-3.4-7.04-4.23-10.44-1.86-22.31,15.57-50.31,20.11-76.29,12.71,2.2-6.08,3.4-12.64,3.4-19.47,0-31.71-25.79-57.5-57.5-57.5-9.16,0-17.81,2.16-25.5,5.98-13.68-28.97-10.99-63.56,7.53-90.08,2.37-3.4,1.54-8.07-1.85-10.44-3.4-2.37-8.07-1.54-10.44,1.85-22.05,31.57-24.86,72.94-7.79,107.14-11.91,10.54-19.44,25.93-19.44,43.05s7.17,31.77,18.59,42.29l-46.87,177.64h-15.87c-12.41,0-22.5,10.09-22.5,22.5v10c0,12.41,10.09,22.5,22.5,22.5H416c12.41,0,22.5-10.09,22.5-22.5v-10c0-12.41-10.09-22.5-22.5-22.5Zm-77.5-37.5c0-4.14,3.36-7.5,7.5-7.5h20c4.14,0,7.5,3.36,7.5,7.5v37.5h-35v-37.5ZM155.15,237.07c0-23.43,19.07-42.5,42.5-42.5s42.5,19.07,42.5,42.5-19.07,42.5-42.5,42.5-42.5-19.07-42.5-42.5Zm16.71,51.37c7.76,3.91,16.52,6.13,25.79,6.13s18.03-2.22,25.79-6.13l44.47,168.56h-62.76v-82.5c0-4.14-3.36-7.5-7.5-7.5s-7.5,3.36-7.5,7.5v82.5h-62.76l44.47-168.56Zm251.64,201.06c0,4.14-3.36,7.5-7.5,7.5H96c-4.14,0-7.5-3.36-7.5-7.5v-10c0-4.14,3.36-7.5,7.5-7.5H416c4.14,0,7.5,3.36,7.5,7.5v10Z"/>
  </g>
  <g>
    <rect class="cls-1" x="269.37" y="19.65" width="26.38" height="242.59" transform="translate(-16.9 241.08) rotate(-45)"/>
    <path class="cls-1" d="M371.6,131.6l18.28-54.86c8.43-1.07,16.22-4.86,22.33-10.97h0c15.02-15.02,15.02-39.47,0-54.5-7.28-7.28-16.96-11.29-27.25-11.29s-19.97,4.01-27.25,11.29c-6.26,6.26-9.9,14.15-10.94,22.32l-54.88,18.29L247.63,7.63c-4.35-4.35-10.13-6.74-16.28-6.74s-11.93,2.39-16.28,6.74l-12.98,12.98,200.8,200.8,12.98-12.98c4.35-4.35,6.74-10.13,6.74-16.28s-2.39-11.93-6.74-16.28l-44.27-44.27Zm-67.85-67.85l44.15-14.72c1.73,6.14,4.99,11.92,9.81,16.74,4.73,4.73,10.47,8.07,16.74,9.83l-14.71,44.13-55.99-55.99Z"/>
  </g>
</svg>