<?xml version="1.0" encoding="UTF-8"?>
<svg id="OBJECT" xmlns="http://www.w3.org/2000/svg" viewBox="0 0 32 32">
  <defs>
    <style>
      .cls-1 {
        fill: #FD4360;
      }

      .cls-1, .cls-2 {
        stroke-width: 0px;
      }

      .cls-2 {
        fill: #dadada;
      }
    </style>
  </defs>
  <g>
    <path class="cls-2" d="m23.35,14.54c2.14,0,3.88-1.74,3.88-3.88v-5.77c0-2.14-1.74-3.88-3.88-3.88h-14.69c-2.14,0-3.88,1.74-3.88,3.88v5.77c0,2.14,1.74,3.88,3.88,3.88h3.35l1.37,2.06c.59.88,1.57,1.4,2.63,1.4s2.04-.52,2.63-1.41l1.37-2.06h3.35Zm-4.72-1.55l-1.67,2.5c-.43.64-1.49.64-1.92,0l-.63-.95h1.44c.55,0,1-.45,1-1s-.45-1-1-1h-7.19c-1.04,0-1.88-.85-1.88-1.88v-5.77c0-1.04.85-1.88,1.88-1.88h14.69c1.04,0,1.88.85,1.88,1.88v5.77c0,1.04-.85,1.88-1.88,1.88h-3.88c-.33,0-.65.17-.83.45Z"/>
    <path class="cls-2" d="m13,6.77h10c.55,0,1-.45,1-1s-.45-1-1-1h-10c-.55,0-1,.45-1,1s.45,1,1,1Z"/>
    <path class="cls-2" d="m9,6.77h.5c.55,0,1-.45,1-1s-.45-1-1-1h-.5c-.55,0-1,.45-1,1s.45,1,1,1Z"/>
    <path class="cls-2" d="m19,8.77h-10c-.55,0-1,.45-1,1s.45,1,1,1h10c.55,0,1-.45,1-1s-.45-1-1-1Z"/>
    <path class="cls-2" d="m24,9.77c0-.55-.45-1-1-1h-.5c-.55,0-1,.45-1,1s.45,1,1,1h.5c.55,0,1-.45,1-1Z"/>
    <path class="cls-2" d="m28.44,22.11c.03-.2.06-.4.06-.61v-1.5c0-1.65-1.35-3-3-3h-1c-1.65,0-3,1.35-3,3v1.5c0,.21.03.41.06.61-1.6,1.11-2.56,2.92-2.56,4.89v1.5c0,1.38,1.12,2.5,2.5,2.5h7c1.38,0,2.5-1.12,2.5-2.5v-1.5c0-1.97-.96-3.78-2.56-4.89Zm-4.94-2.11c0-.55.45-1,1-1h1c.55,0,1,.45,1,1v1.5c0,.83-.67,1.5-1.5,1.5s-1.5-.67-1.5-1.5v-1.5Zm5.5,8.5c0,.28-.22.5-.5.5h-7c-.28,0-.5-.22-.5-.5v-1.5c0-1.21.56-2.33,1.49-3.08.64.66,1.53,1.08,2.51,1.08s1.88-.41,2.51-1.08c.93.75,1.49,1.86,1.49,3.08v1.5Z"/>
  </g>
  <g>
    <path class="cls-1" d="m11.46,23.01c-.82,1.65-2.5,2.79-4.46,2.79s-3.65-1.15-4.46-2.79c-.95,1.06-1.54,2.46-1.54,3.99v1.5c0,1.38,1.12,2.5,2.5,2.5h7c1.38,0,2.5-1.12,2.5-2.5v-1.5c0-1.53-.58-2.93-1.54-3.99Z"/>
    <path class="cls-1" d="m7,23.8c1.65,0,3-1.35,3-3v-1.2c0-1.43-1.17-2.6-2.6-2.6h-.8c-1.43,0-2.6,1.17-2.6,2.6v1.2c0,1.65,1.35,3,3,3Z"/>
  </g>
</svg>