<?xml version="1.0" encoding="UTF-8"?>
<svg id="OBJECT" xmlns="http://www.w3.org/2000/svg" viewBox="0 0 32 32">
  <defs>
    <style>
      .cls-1 {
        fill: #FD4360;
      }

      .cls-1, .cls-2 {
        stroke-width: 0px;
      }

      .cls-2 {
        fill: #dadada;
      }
    </style>
  </defs>
  <g>
    <path class="cls-2" d="m27.71,6.29l-5-5c-.19-.19-.44-.29-.71-.29h-13c-.55,0-1,.45-1,1v24c0,.55.45,1,1,1h18c.55,0,1-.45,1-1V7c0-.27-.11-.52-.29-.71Zm-5.26-.89l.22-1.32,2.25,2.25-1.32.22c-.33.05-.64-.05-.87-.28s-.33-.55-.28-.87Zm-12.45,19.6V3h10.82l-.35,2.07c-.16.95.15,1.93.84,2.61.57.57,1.33.88,2.12.88.16,0,.33-.01.49-.04l2.07-.35v16.82H10Z"/>
    <path class="cls-2" d="m23.5,21h-11c-.55,0-1,.45-1,1s.45,1,1,1h11c.55,0,1-.45,1-1s-.45-1-1-1Z"/>
    <path class="cls-2" d="m23.5,17h-11c-.55,0-1,.45-1,1s.45,1,1,1h11c.55,0,1-.45,1-1s-.45-1-1-1Z"/>
    <path class="cls-2" d="m23.5,13h-7c-.55,0-1,.45-1,1s.45,1,1,1h7c.55,0,1-.45,1-1s-.45-1-1-1Z"/>
    <path class="cls-2" d="m12.5,15h.5c.55,0,1-.45,1-1s-.45-1-1-1h-.5c-.55,0-1,.45-1,1s.45,1,1,1Z"/>
    <path class="cls-2" d="m12.5,11h6c.55,0,1-.45,1-1s-.45-1-1-1h-6c-.55,0-1,.45-1,1s.45,1,1,1Z"/>
  </g>
  <path class="cls-1" d="m6,26V5h-1c-.55,0-1,.45-1,1v24c0,.55.45,1,1,1h18c.55,0,1-.45,1-1v-1h-15c-1.65,0-3-1.35-3-3Z"/>
</svg>