<?xml version="1.0" encoding="UTF-8"?>
<svg id="OBJECT" xmlns="http://www.w3.org/2000/svg" viewBox="0 0 32 32">
  <defs>
    <style>
      .cls-1 {
        fill: #FD4360;
      }

      .cls-2 {
        fill: #dadada;
      }
    </style>
  </defs>
  <g>
    <path class="cls-2" d="M22.71,8.29L15.71,1.29c-.19-.19-.44-.29-.71-.29H4c-1.65,0-3,1.35-3,3V28c0,1.65,1.35,3,3,3H20c1.65,0,3-1.35,3-3V9c0-.27-.11-.52-.29-.71Zm-6.71-3.88l3.59,3.59h-2.59c-.55,0-1-.45-1-1v-2.59Zm4,24.59H4c-.55,0-1-.45-1-1V4c0-.55,.45-1,1-1H14V7c0,1.65,1.35,3,3,3h4V28c0,.55-.45,1-1,1Z"/>
    <path class="cls-2" d="M18,24H6c-.55,0-1,.45-1,1s.45,1,1,1h12c.55,0,1-.45,1-1s-.45-1-1-1Z"/>
    <path class="cls-2" d="M18,19.33H6c-.55,0-1,.45-1,1s.45,1,1,1h12c.55,0,1-.45,1-1s-.45-1-1-1Z"/>
    <path class="cls-2" d="M18,14.67H6c-.55,0-1,.45-1,1s.45,1,1,1h12c.55,0,1-.45,1-1s-.45-1-1-1Z"/>
    <path class="cls-2" d="M6,12h5c.55,0,1-.45,1-1s-.45-1-1-1H6c-.55,0-1,.45-1,1s.45,1,1,1Z"/>
  </g>
  <g>
    <path class="cls-1" d="M25.01,24.89c.03,1.02,.44,1.97,1.16,2.69l.83,.83v1.59c0,.55,.45,1,1,1s1-.45,1-1v-1.59l.83-.83c.72-.72,1.12-1.68,1.16-2.69-1.87-.95-4.1-.95-5.97,0Z"/>
    <path class="cls-1" d="M25,22.72c1.93-.72,4.07-.72,6,0V7h-6v15.72Z"/>
    <path class="cls-1" d="M28.5,1h-1c-1.38,0-2.5,1.12-2.5,2.5v1.5h6v-1.5c0-1.38-1.12-2.5-2.5-2.5Z"/>
  </g>
</svg>