<?xml version="1.0" encoding="UTF-8"?>
<svg id="OBJECT" xmlns="http://www.w3.org/2000/svg" viewBox="0 0 32 32">
  <defs>
    <style>
      .cls-1 {
        fill: #FD4360;
      }

      .cls-1, .cls-2 {
        stroke-width: 0px;
      }

      .cls-2 {
        fill: #dadada;
      }
    </style>
  </defs>
  <g>
    <path class="cls-2" d="m23,1h-12.15c-.27,0-.53.11-.72.31l-5.85,6.12c-.18.19-.28.43-.28.69v17.88c0,.55.45,1,1,1h18c.55,0,1-.45,1-1V2c0-.55-.45-1-1-1Zm-13.15,3.5v2.63h-2.51l2.51-2.63Zm12.15,20.5H6v-15.88h4.85c.55,0,1-.45,1-1V3h10.15v22Z"/>
    <path class="cls-2" d="m17.7,11.24h-2.59c-.55,0-1,.45-1,1s.45,1,1,1h.94v.3c0,.55.45,1,1,1s1-.45,1-1v-.33c1.1-.17,1.94-1.12,1.94-2.26,0-1.27-1.03-2.3-2.3-2.3h-1.3c-.16,0-.3-.13-.3-.3s.13-.3.3-.3h2.59c.55,0,1-.45,1-1s-.45-1-1-1h-.94v-.3c0-.55-.45-1-1-1s-1,.45-1,1v.33c-1.1.17-1.94,1.12-1.94,2.26,0,1.27,1.03,2.3,2.3,2.3h1.3c.16,0,.3.13.3.3s-.13.3-.3.3Z"/>
    <path class="cls-2" d="m11.75,12.24h-3.1c-.55,0-1,.45-1,1s.45,1,1,1h3.1c.55,0,1-.45,1-1s-.45-1-1-1Z"/>
    <path class="cls-2" d="m19,16.24h-10.35c-.55,0-1,.45-1,1s.45,1,1,1h10.35c.55,0,1-.45,1-1s-.45-1-1-1Z"/>
    <path class="cls-2" d="m14.76,20.24h-6.11c-.55,0-1,.45-1,1s.45,1,1,1h6.11c.55,0,1-.45,1-1s-.45-1-1-1Z"/>
    <path class="cls-2" d="m19,20.24h-.93c-.55,0-1,.45-1,1s.45,1,1,1h.93c.55,0,1-.45,1-1s-.45-1-1-1Z"/>
  </g>
  <path class="cls-1" d="m27,5h-.89v21c0,1.65-1.35,3-3,3h-15.11v1c0,.55.45,1,1,1h18c.55,0,1-.45,1-1V6c0-.55-.45-1-1-1Z"/>
</svg>