<?xml version="1.0" encoding="UTF-8"?>
<svg id="OBJECT" xmlns="http://www.w3.org/2000/svg" viewBox="0 0 32 32">
  <defs>
    <style>
      .cls-1 {
        fill: #FD4360;
      }

      .cls-1, .cls-2 {
        stroke-width: 0px;
      }

      .cls-2 {
        fill: #dadada;
      }
    </style>
  </defs>
  <g>
    <path class="cls-2" d="m18,20.33H6c-.55,0-1,.45-1,1s.45,1,1,1h12c.55,0,1-.45,1-1s-.45-1-1-1Z"/>
    <path class="cls-2" d="m9,16.67c0,.55.45,1,1,1h5.04c.55,0,1-.45,1-1s-.45-1-1-1h-5.04c-.55,0-1,.45-1,1Z"/>
    <path class="cls-2" d="m6,17.67h.5c.55,0,1-.45,1-1s-.45-1-1-1h-.5c-.55,0-1,.45-1,1s.45,1,1,1Z"/>
    <path class="cls-2" d="m18,25h-8c-.55,0-1,.45-1,1s.45,1,1,1h8c.55,0,1-.45,1-1s-.45-1-1-1Z"/>
    <path class="cls-2" d="m6,25c-.55,0-1,.45-1,1s.45,1,1,1h.5c.55,0,1-.45,1-1s-.45-1-1-1h-.5Z"/>
    <path class="cls-2" d="m14.08,11H6c-.55,0-1,.45-1,1s.45,1,1,1h8.08c.55,0,1-.45,1-1s-.45-1-1-1Z"/>
    <path class="cls-2" d="m23,6c.55,0,1-.45,1-1v-1c0-1.65-1.35-3-3-3h-13c-.27,0-.52.11-.71.29L1.29,7.29c-.19.19-.29.44-.29.71v20c0,1.65,1.35,3,3,3h17c1.65,0,3-1.35,3-3v-5c0-.55-.45-1-1-1s-1,.45-1,1v5c0,.55-.45,1-1,1H4c-.55,0-1-.45-1-1V9h3c1.65,0,3-1.35,3-3v-3h12c.55,0,1,.45,1,1v1c0,.55.45,1,1,1Zm-17,1h-1.59l2.59-2.59v1.59c0,.55-.45,1-1,1Z"/>
  </g>
  <path class="cls-1" d="m24,7c-3.86,0-7,3.14-7,7s3.14,7,7,7,7-3.14,7-7-3.14-7-7-7Zm2.71,9.71c-.2.2-.45.29-.71.29s-.51-.1-.71-.29l-2-2c-.19-.19-.29-.44-.29-.71v-3c0-.55.45-1,1-1s1,.45,1,1v2.59l1.71,1.71c.39.39.39,1.02,0,1.41Z"/>
</svg>