<?xml version="1.0" encoding="UTF-8"?>
<svg id="OBJECT" xmlns="http://www.w3.org/2000/svg" viewBox="0 0 32 32">
  <defs>
    <style>
      .cls-1 {
        fill: #FD4360;
      }

      .cls-1, .cls-2 {
        stroke-width: 0px;
      }

      .cls-2 {
        fill: #dadada;
      }
    </style>
  </defs>
  <path class="cls-1" d="m23.95,3c-.23-1.14-1.24-2-2.45-2H6.5c-1.38,0-2.5,1.12-2.5,2.5v21c0,1.21.86,2.22,2,2.45V7.5c0-2.48,2.02-4.5,4.5-4.5h13.45Z"/>
  <g>
    <path class="cls-2" d="m25.5,5h-15c-1.38,0-2.5,1.12-2.5,2.5v21c0,1.38,1.12,2.5,2.5,2.5h10.5c.27,0,.52-.11.71-.29l6-6c.19-.19.29-.44.29-.71V7.5c0-1.38-1.12-2.5-2.5-2.5Zm-15.5,23.5V7.5c0-.28.22-.5.5-.5h15c.28,0,.5.22.5.5v15.5h-3.5c-1.38,0-2.5,1.12-2.5,2.5v3.5h-9.5c-.28,0-.5-.22-.5-.5Zm14.59-3.5l-2.59,2.59v-2.09c0-.28.22-.5.5-.5h2.09Z"/>
    <path class="cls-2" d="m13,19h10c.55,0,1-.45,1-1s-.45-1-1-1h-10c-.55,0-1,.45-1,1s.45,1,1,1Z"/>
    <path class="cls-2" d="m17,25h-4c-.55,0-1,.45-1,1s.45,1,1,1h4c.55,0,1-.45,1-1s-.45-1-1-1Z"/>
    <path class="cls-2" d="m13,23h4c.55,0,1-.45,1-1s-.45-1-1-1h-4c-.55,0-1,.45-1,1s.45,1,1,1Z"/>
    <path class="cls-2" d="m13,15.34h4c.55,0,1-.45,1-1v-4.34c0-.55-.45-1-1-1h-4c-.55,0-1,.45-1,1v4.34c0,.55.45,1,1,1Zm1-4.34h2v2.34h-2v-2.34Z"/>
    <path class="cls-2" d="m21,11h2c.55,0,1-.45,1-1s-.45-1-1-1h-2c-.55,0-1,.45-1,1s.45,1,1,1Z"/>
    <path class="cls-2" d="m21,15h2c.55,0,1-.45,1-1s-.45-1-1-1h-2c-.55,0-1,.45-1,1s.45,1,1,1Z"/>
  </g>
</svg>