<?xml version="1.0" encoding="UTF-8"?>
<svg id="OBJECT" xmlns="http://www.w3.org/2000/svg" viewBox="0 0 32 32">
  <defs>
    <style>
      .cls-1 {
        fill: #FD4360;
      }

      .cls-1, .cls-2 {
        stroke-width: 0px;
      }

      .cls-2 {
        fill: #dadada;
      }
    </style>
  </defs>
  <g>
    <path class="cls-2" d="m23,1h-12c-.27,0-.52.11-.71.29l-6,6c-.19.19-.29.44-.29.71v18c0,.55.45,1,1,1h18c.55,0,1-.45,1-1V2c0-.55-.45-1-1-1Zm-13,3.41v2.59h-2.59l2.59-2.59Zm12,20.59H6V9h5c.55,0,1-.45,1-1V3h10v22Z"/>
    <path class="cls-2" d="m19.5,21h-11c-.55,0-1,.45-1,1s.45,1,1,1h11c.55,0,1-.45,1-1s-.45-1-1-1Z"/>
    <path class="cls-2" d="m19.5,17h-11c-.55,0-1,.45-1,1s.45,1,1,1h11c.55,0,1-.45,1-1s-.45-1-1-1Z"/>
    <path class="cls-2" d="m19.5,13h-8c-.55,0-1,.45-1,1s.45,1,1,1h8c.55,0,1-.45,1-1s-.45-1-1-1Z"/>
    <path class="cls-2" d="m8.5,15h.5c.55,0,1-.45,1-1s-.45-1-1-1h-.5c-.55,0-1,.45-1,1s.45,1,1,1Z"/>
    <path class="cls-2" d="m15.5,11h4c.55,0,1-.45,1-1s-.45-1-1-1h-4c-.55,0-1,.45-1,1s.45,1,1,1Z"/>
  </g>
  <path class="cls-1" d="m27,5h-1v21c0,1.65-1.35,3-3,3h-15v1c0,.55.45,1,1,1h18c.55,0,1-.45,1-1V6c0-.55-.45-1-1-1Z"/>
</svg>