<?xml version="1.0" encoding="UTF-8"?>
<svg id="OBJECT" xmlns="http://www.w3.org/2000/svg" viewBox="0 0 512 512">
  <defs>
    <style>
      .cls-1 {
        fill: #FD4360;
      }

      .cls-2 {
        fill: #dadada;
      }
    </style>
  </defs>
  <g>
    <path class="cls-2" d="M156,373.5h200c4.14,0,7.5-3.36,7.5-7.5s-3.36-7.5-7.5-7.5H156c-4.14,0-7.5,3.36-7.5,7.5s3.36,7.5,7.5,7.5Z"/>
    <path class="cls-2" d="M156,189.5h200c4.14,0,7.5-3.36,7.5-7.5s-3.36-7.5-7.5-7.5H156c-4.14,0-7.5,3.36-7.5,7.5s3.36,7.5,7.5,7.5Z"/>
    <path class="cls-2" d="M156,281.5h200c4.14,0,7.5-3.36,7.5-7.5s-3.36-7.5-7.5-7.5H156c-4.14,0-7.5,3.36-7.5,7.5s3.36,7.5,7.5,7.5Z"/>
    <path class="cls-2" d="M196,143.5h160c4.14,0,7.5-3.36,7.5-7.5s-3.36-7.5-7.5-7.5H196c-4.14,0-7.5,3.36-7.5,7.5s3.36,7.5,7.5,7.5Z"/>
    <path class="cls-2" d="M156,143.5h10c4.14,0,7.5-3.36,7.5-7.5s-3.36-7.5-7.5-7.5h-10c-4.14,0-7.5,3.36-7.5,7.5s3.36,7.5,7.5,7.5Z"/>
    <path class="cls-2" d="M356,220.5H196c-4.14,0-7.5,3.36-7.5,7.5s3.36,7.5,7.5,7.5h160c4.14,0,7.5-3.36,7.5-7.5s-3.36-7.5-7.5-7.5Z"/>
    <path class="cls-2" d="M156,235.5h10c4.14,0,7.5-3.36,7.5-7.5s-3.36-7.5-7.5-7.5h-10c-4.14,0-7.5,3.36-7.5,7.5s3.36,7.5,7.5,7.5Z"/>
    <path class="cls-2" d="M356,312.5H196c-4.14,0-7.5,3.36-7.5,7.5s3.36,7.5,7.5,7.5h160c4.14,0,7.5-3.36,7.5-7.5s-3.36-7.5-7.5-7.5Z"/>
    <path class="cls-2" d="M156,327.5h10c4.14,0,7.5-3.36,7.5-7.5s-3.36-7.5-7.5-7.5h-10c-4.14,0-7.5,3.36-7.5,7.5s3.36,7.5,7.5,7.5Z"/>
    <path class="cls-2" d="M391,0H121c-4.14,0-7.5,3.36-7.5,7.5V397h-32.5c-4.14,0-7.5,3.36-7.5,7.5v30c0,20.68,16.82,37.5,37.5,37.5h250c20.68,0,37.5-16.82,37.5-37.5V7.5c0-4.14-3.36-7.5-7.5-7.5ZM111,457c-12.41,0-22.5-10.09-22.5-22.5v-22.5h235v22.5c0,8.43,2.8,16.23,7.52,22.5H111Zm272.5-22.5c0,12.41-10.09,22.5-22.5,22.5s-22.5-10.09-22.5-22.5v-30c0-4.14-3.36-7.5-7.5-7.5H128.5V15h255V434.5Z"/>
    <path class="cls-2" d="M276,63.5h80c4.14,0,7.5-3.36,7.5-7.5s-3.36-7.5-7.5-7.5h-80c-4.14,0-7.5,3.36-7.5,7.5s3.36,7.5,7.5,7.5Z"/>
    <path class="cls-2" d="M236,63.5h10c4.14,0,7.5-3.36,7.5-7.5s-3.36-7.5-7.5-7.5h-10c-4.14,0-7.5,3.36-7.5,7.5s3.36,7.5,7.5,7.5Z"/>
    <path class="cls-2" d="M236,93.5h120c4.14,0,7.5-3.36,7.5-7.5s-3.36-7.5-7.5-7.5h-120c-4.14,0-7.5,3.36-7.5,7.5s3.36,7.5,7.5,7.5Z"/>
  </g>
  <g>
    <path class="cls-1" d="M431,40h-17.5V449.5c0,20.68-16.82,37.5-37.5,37.5H153.5v17.5c0,4.14,3.36,7.5,7.5,7.5H431c4.14,0,7.5-3.36,7.5-7.5V47.5c0-4.14-3.36-7.5-7.5-7.5Z"/>
    <rect class="cls-1" x="148.5" y="38.5" width="65" height="65" rx="22.5" ry="22.5"/>
  </g>
</svg>