<?xml version="1.0" encoding="UTF-8"?>
<svg id="OBJECT" xmlns="http://www.w3.org/2000/svg" viewBox="0 0 32 32">
  <defs>
    <style>
      .cls-1 {
        fill: #FD4360;
      }

      .cls-1, .cls-2 {
        stroke-width: 0px;
      }

      .cls-2 {
        fill: #dadada;
      }
    </style>
  </defs>
  <path class="cls-2" d="m18,31h-4c-.55,0-1-.45-1-1v-2.39c-1.09-.28-2.13-.71-3.09-1.28l-1.69,1.68c-.39.39-1.02.39-1.41,0l-2.83-2.83c-.39-.39-.39-1.02,0-1.41l1.69-1.69c-.57-.97-1-2-1.28-3.09h-2.39c-.55,0-1-.45-1-1v-4c0-.55.45-1,1-1h2.39c.28-1.09.71-2.13,1.28-3.09l-1.69-1.69c-.39-.39-.39-1.02,0-1.41l2.83-2.83c.39-.39,1.02-.39,1.41,0l1.69,1.68c.97-.57,2-1,3.09-1.28v-2.39c0-.55.45-1,1-1h4c.55,0,1,.45,1,1v2.39c1.09.28,2.13.71,3.09,1.28l1.69-1.68c.39-.39,1.02-.39,1.41,0l2.83,2.83c.39.39.39,1.02,0,1.41l-1.69,1.69c.57.97,1,2,1.28,3.09h2.39c.55,0,1,.45,1,1v4c0,.55-.45,1-1,1h-2.39c-.28,1.09-.71,2.13-1.28,3.09l1.69,1.69c.39.39.39,1.02,0,1.41l-2.83,2.83c-.39.39-1.02.39-1.41,0l-1.69-1.68c-.97.57-2,1-3.09,1.28v2.39c0,.55-.45,1-1,1Zm-3-2h2v-2.19c0-.48.34-.9.82-.98,1.39-.26,2.69-.79,3.85-1.59.4-.27.93-.22,1.27.12l1.55,1.55,1.41-1.41-1.55-1.55c-.34-.34-.39-.88-.12-1.27.8-1.16,1.33-2.45,1.59-3.84.09-.47.5-.82.98-.82h2.19v-2h-2.19c-.48,0-.9-.34-.98-.82-.26-1.39-.79-2.69-1.59-3.84-.27-.4-.23-.93.12-1.27l1.55-1.55-1.41-1.41-1.55,1.55c-.34.34-.88.39-1.27.12-1.16-.8-2.45-1.33-3.85-1.59-.47-.09-.82-.5-.82-.98v-2.19h-2v2.19c0,.48-.34.9-.82.98-1.39.26-2.69.79-3.85,1.59-.4.28-.93.22-1.27-.12l-1.55-1.55-1.41,1.41,1.55,1.55c.34.34.39.88.12,1.27-.8,1.16-1.33,2.45-1.59,3.84-.09.47-.5.82-.98.82h-2.19v2h2.19c.48,0,.9.34.98.82.26,1.39.79,2.69,1.59,3.84.27.4.23.93-.12,1.27l-1.55,1.55,1.41,1.41,1.55-1.55c.34-.34.88-.39,1.27-.12,1.16.8,2.45,1.33,3.85,1.59.47.09.82.5.82.98v2.19Z"/>
  <g>
    <path class="cls-1" d="m19.88,15h4.55c-.37-3.12-2.43-5.72-5.24-6.87.44,2.08.69,4.4.69,6.84,0,0,0,.02,0,.03Z"/>
    <path class="cls-1" d="m16,7.5c-.35,0-.68.03-1.02.07-.55,2.17-.87,4.73-.87,7.41,0,0,0,.02,0,.03h3.77s0-.02,0-.03c0-2.68-.31-5.24-.87-7.41-.33-.04-.67-.07-1.02-.07Z"/>
    <path class="cls-1" d="m15.64,24.48c.12,0,.24.02.36.02s.24-.01.36-.02c.78-2.03,1.29-4.65,1.45-7.48h-3.64c.17,2.83.68,5.45,1.45,7.48Z"/>
    <path class="cls-1" d="m12.12,14.97c0-2.44.25-4.76.69-6.84-2.81,1.15-4.87,3.75-5.24,6.87h4.55s0-.02,0-.03Z"/>
    <path class="cls-1" d="m18.62,24.08c3.1-1.01,5.42-3.75,5.81-7.08h-4.61c-.14,2.6-.56,5.03-1.2,7.08Z"/>
    <path class="cls-1" d="m7.56,17c.39,3.33,2.71,6.07,5.81,7.08-.64-2.05-1.06-4.48-1.2-7.08h-4.61Z"/>
  </g>
</svg>