<?xml version="1.0" encoding="UTF-8"?>
<svg id="OBJECT" xmlns="http://www.w3.org/2000/svg" viewBox="0 0 32 32">
  <defs>
    <style>
      .cls-1 {
        fill: #FD4360;
      }

      .cls-1, .cls-2 {
        stroke-width: 0px;
      }

      .cls-2 {
        fill: #dadada;
      }
    </style>
  </defs>
  <g>
    <path class="cls-2" d="m29.32,15.1c-1-2.54-3.01-4.43-5.52-5.17-3.9-1.15-6.17-3.54-6.8-4.29v-3.65c0-.55-.45-1-1-1s-1,.45-1,1v3.65c-.64.75-2.91,3.13-6.8,4.29-2.51.74-4.52,2.63-5.52,5.17-1.08,2.74-.84,5.89.64,8.41.28.48.89.63,1.37.35.48-.28.63-.89.35-1.37-1.17-1.99-1.36-4.48-.51-6.66.77-1.97,2.32-3.42,4.23-3.98,3.69-1.09,6.08-3.13,7.24-4.33,1.15,1.2,3.55,3.24,7.24,4.33,1.91.57,3.45,2.02,4.23,3.98.86,2.18.67,4.66-.51,6.66-.28.48-.12,1.09.35,1.37.16.09.33.14.51.14.34,0,.68-.18.86-.49,1.48-2.52,1.72-5.66.64-8.41Z"/>
    <path class="cls-2" d="m22.67,13.77c-2.21-.65-4.25-1.68-6.07-3.05-.36-.27-.85-.27-1.21,0-1.82,1.37-3.86,2.4-6.07,3.05-2.18.64-3.24,2.79-3.32,4.64-.02.55.4,1.02.96,1.04.55.03,1.02-.4,1.04-.96.05-1.14.65-2.44,1.89-2.81,2.2-.65,4.25-1.64,6.1-2.94,1.85,1.3,3.91,2.29,6.1,2.94,1.24.37,1.84,1.67,1.89,2.81.02.54.47.96,1,.96.02,0,.03,0,.04,0,.55-.02.98-.49.96-1.04-.08-1.84-1.14-3.99-3.32-4.64Z"/>
    <path class="cls-2" d="m11,20h-1c-.55,0-1,.45-1,1s.45,1,1,1h1c.55,0,1-.45,1-1s-.45-1-1-1Z"/>
    <path class="cls-2" d="m16.5,20h-1c-.55,0-1,.45-1,1s.45,1,1,1h1c.55,0,1-.45,1-1s-.45-1-1-1Z"/>
    <path class="cls-2" d="m22,20h-1c-.55,0-1,.45-1,1s.45,1,1,1h1c.55,0,1-.45,1-1s-.45-1-1-1Z"/>
  </g>
  <rect class="cls-1" x="1" y="26" width="30" height="5" rx="1.5" ry="1.5"/>
</svg>