<?xml version="1.0" encoding="UTF-8"?>
<svg id="OBJECT" xmlns="http://www.w3.org/2000/svg" viewBox="0 0 32 32">
  <defs>
    <style>
      .cls-1 {
        fill: #FD4360;
      }

      .cls-1, .cls-2 {
        stroke-width: 0px;
      }

      .cls-2 {
        fill: #dadada;
      }
    </style>
  </defs>
  <path class="cls-1" d="m30.72,8.49c-.34-.73-.94-1.28-1.69-1.55l-7.24-2.63s0,0,0,0c-.97-.35-2.01-.17-2.79.39v8.46c0-.11.01-.22.05-.33.19-.52.76-.78,1.28-.6l.79.29c.52.19.79.76.6,1.28-.15.41-.53.66-.94.66-.11,0-.23-.02-.34-.06l-.79-.29c-.38-.14-.62-.48-.65-.85v2.49l8.84,3.22,2.98-8.18c.27-.75.24-1.57-.1-2.29Zm-8.86,1.97l-.79-.29c-.52-.19-.79-.76-.6-1.28.19-.52.76-.79,1.28-.6l.79.29c.52.19.79.76.6,1.28-.15.41-.53.66-.94.66-.11,0-.23-.02-.34-.06Zm3.78,4.76c-.15.41-.53.66-.94.66-.11,0-.23-.02-.34-.06l-.79-.29c-.52-.19-.79-.76-.6-1.28.19-.52.77-.79,1.28-.6l.79.29c.52.19.79.76.6,1.28Zm1.43-3.93c-.15.41-.53.66-.94.66-.11,0-.23-.02-.34-.06l-.79-.29c-.52-.19-.79-.76-.6-1.28.19-.52.76-.79,1.28-.6l.79.29c.52.19.79.76.6,1.28Z"/>
  <path class="cls-1" d="m19,21.98s0,0,0,0l.79.29c.52.19.79.76.6,1.28-.15.41-.53.66-.94.66-.11,0-.23-.02-.34-.06l-.11-.04v3.9c0,.77-.19,1.5-.5,2.15l1.84.67c.33.12.68.18,1.03.18.43,0,.86-.09,1.27-.28.73-.34,1.28-.94,1.55-1.69l2.98-8.18-8.16-2.97v4.1Z"/>
  <g>
    <path class="cls-2" d="m14,1H4c-1.65,0-3,1.35-3,3v24c0,1.65,1.35,3,3,3h10c1.65,0,3-1.35,3-3V4c0-1.65-1.35-3-3-3ZM4,3h10c.55,0,1,.45,1,1v11H3V4c0-.55.45-1,1-1Zm10,26H4c-.55,0-1-.45-1-1v-11h12v11c0,.55-.45,1-1,1Z"/>
    <path class="cls-2" d="m8.5,10h1c.55,0,1-.45,1-1s-.45-1-1-1h-1c-.55,0-1,.45-1,1s.45,1,1,1Z"/>
    <path class="cls-2" d="m7,19.5h-1c-.55,0-1,.45-1,1s.45,1,1,1h1c.55,0,1-.45,1-1s-.45-1-1-1Z"/>
    <path class="cls-2" d="m12,19.5h-1c-.55,0-1,.45-1,1s.45,1,1,1h1c.55,0,1-.45,1-1s-.45-1-1-1Z"/>
    <path class="cls-2" d="m12,24.5h-1c-.55,0-1,.45-1,1s.45,1,1,1h1c.55,0,1-.45,1-1s-.45-1-1-1Z"/>
    <path class="cls-2" d="m7,24.5h-1c-.55,0-1,.45-1,1s.45,1,1,1h1c.55,0,1-.45,1-1s-.45-1-1-1Z"/>
  </g>
</svg>