<?xml version="1.0" encoding="UTF-8"?>
<svg id="OBJECT" xmlns="http://www.w3.org/2000/svg" viewBox="0 0 32 32">
  <defs>
    <style>
      .cls-1 {
        fill: #FD4360;
      }

      .cls-2 {
        fill: #dadada;
      }
    </style>
  </defs>
  <g>
    <path class="cls-2" d="M27.71,8.29L20.71,1.29c-.19-.19-.44-.29-.71-.29H7c-1.65,0-3,1.35-3,3V28c0,1.65,1.35,3,3,3H25c1.65,0,3-1.35,3-3V9c0-.27-.11-.52-.29-.71Zm-6.71-3.88l3.59,3.59h-2.59c-.55,0-1-.45-1-1v-2.59Zm4,24.59H7c-.55,0-1-.45-1-1V4c0-.55,.45-1,1-1h12V7c0,1.65,1.35,3,3,3h4V28c0,.55-.45,1-1,1Z"/>
    <path class="cls-2" d="M9.5,5h-.5c-.55,0-1,.45-1,1s.45,1,1,1h.5c.55,0,1-.45,1-1s-.45-1-1-1Z"/>
    <path class="cls-2" d="M14.5,5h-1.5c-.55,0-1,.45-1,1s.45,1,1,1h1.5c.55,0,1-.45,1-1s-.45-1-1-1Z"/>
  </g>
  <path class="cls-1" d="M21.51,19.5c-.16-.3-.48-.5-.83-.5h-1.88v-6.56c0-.52-.42-.94-.94-.94h-3.75c-.52,0-.94,.42-.94,.94v6.56h-1.88c-.35,0-.66,.19-.83,.5-.16,.3-.15,.67,.05,.96l3.23,4.84c.5,.75,1.34,1.2,2.24,1.2s1.74-.45,2.24-1.2l3.23-4.84c.19-.29,.21-.66,.05-.96Z"/>
</svg>