<?xml version="1.0" encoding="UTF-8"?>
<svg id="OBJECT" xmlns="http://www.w3.org/2000/svg" viewBox="0 0 32 32">
  <defs>
    <style>
      .cls-1 {
        fill: #FD4360;
      }

      .cls-2 {
        fill: #dadada;
      }
    </style>
  </defs>
  <g>
    <path class="cls-2" d="M5.5,24h-.5c-.55,0-1,.45-1,1s.45,1,1,1h.5c.55,0,1-.45,1-1s-.45-1-1-1Z"/>
    <path class="cls-2" d="M9.5,24h-.5c-.55,0-1,.45-1,1s.45,1,1,1h.5c.55,0,1-.45,1-1s-.45-1-1-1Z"/>
    <path class="cls-2" d="M23,16H14.62l-1.72-3.45c-.17-.34-.52-.55-.89-.55H5c-.55,0-1,.45-1,1v8H2c-.55,0-1,.45-1,1v5.5c0,1.93,1.57,3.5,3.5,3.5H20.5c1.93,0,3.5-1.57,3.5-3.5v-10.5c0-.55-.45-1-1-1ZM4.5,29c-.83,0-1.5-.67-1.5-1.5v-4.5h14v4.5c0,.54,.12,1.04,.34,1.5H4.5Zm17.5-1.5c0,.83-.67,1.5-1.5,1.5s-1.5-.67-1.5-1.5v-5.5c0-.55-.45-1-1-1H6v-7h5.38l1,2h-2.38c-.55,0-1,.45-1,1s.45,1,1,1h12v9.5Z"/>
  </g>
  <path class="cls-1" d="M30.85,7.93l-3.16,4.74c-.49,.73-1.31,1.17-2.19,1.17s-1.7-.44-2.19-1.17l-3.16-4.74c-.19-.28-.21-.64-.05-.94,.16-.3,.47-.48,.81-.48h1.83V1.92c0-.51,.41-.92,.92-.92h3.67c.51,0,.92,.41,.92,.92V6.5h1.83c.34,0,.65,.19,.81,.48,.16,.3,.14,.66-.05,.94Z"/>
</svg>