<?xml version="1.0" encoding="UTF-8"?>
<svg id="OBJECT" xmlns="http://www.w3.org/2000/svg" viewBox="0 0 32 32">
  <defs>
    <style>
      .cls-1 {
        fill: #FD4360;
      }

      .cls-1, .cls-2 {
        stroke-width: 0px;
      }

      .cls-2 {
        fill: #dadada;
      }
    </style>
  </defs>
  <g>
    <path class="cls-2" d="m16.56,6.57c.5.01.98.19,1.33.54.35.35.54.82.54,1.33,0,.55.44,1,.99,1.01h.01c.55,0,.99-.44,1-.99.01-1.05-.39-2.03-1.12-2.77-.74-.74-1.74-1.13-2.77-1.12-.55,0-.99.46-.99,1.01,0,.55.45,1,1.01.99Z"/>
    <path class="cls-2" d="m17.24,3h.01c1.29-.02,2.48.47,3.38,1.37.9.9,1.38,2.1,1.37,3.38,0,.55.44,1,.99,1.01h.01c.55,0,.99-.44,1-.99.02-1.83-.67-3.54-1.95-4.81-1.28-1.28-3.01-1.97-4.81-1.95-.55,0-1,.46-.99,1.01,0,.55.45.99,1,.99Z"/>
    <path class="cls-2" d="m15.61,9.71c.2.2.45.29.71.29s.51-.1.71-.29c.39-.39.39-1.02,0-1.41l-.32-.32c-.39-.39-1.02-.39-1.42,0-.39.39-.39,1.02,0,1.41l.32.32Z"/>
    <path class="cls-2" d="m26.5,14.5h-1c-.55,0-1,.45-1,1s.45,1,1,1h1c.55,0,1-.45,1-1s-.45-1-1-1Z"/>
    <path class="cls-2" d="m26.5,17.5h-1c-.55,0-1,.45-1,1s.45,1,1,1h1c.55,0,1-.45,1-1s-.45-1-1-1Z"/>
    <path class="cls-2" d="m26,20.5c-.55,0-1,.45-1,1v5c0,.55.45,1,1,1s1-.45,1-1v-5c0-.55-.45-1-1-1Z"/>
    <path class="cls-2" d="m28,11h-13.25c-.55,0-1,.45-1,1s.45,1,1,1h6.25v16H4c-.55,0-1-.45-1-1v-14c0-.55.45-1,1-1h1.25c.55,0,1-.45,1-1s-.45-1-1-1h-1.25c-1.65,0-3,1.35-3,3v14c0,1.65,1.35,3,3,3h24c1.65,0,3-1.35,3-3v-14c0-1.65-1.35-3-3-3Zm1,17c0,.55-.45,1-1,1h-5V13h5c.55,0,1,.45,1,1v14Z"/>
    <path class="cls-2" d="m19,19c.55,0,1-.45,1-1v-1.5c0-1.38-1.12-2.5-2.5-2.5h-1.5c-.55,0-1,.45-1,1s.45,1,1,1h1.5c.28,0,.5.22.5.5v1.5c0,.55.45,1,1,1Z"/>
    <path class="cls-2" d="m16,28h1.5c1.38,0,2.5-1.12,2.5-2.5v-1.5c0-.55-.45-1-1-1s-1,.45-1,1v1.5c0,.28-.22.5-.5.5h-1.5c-.55,0-1,.45-1,1s.45,1,1,1Z"/>
    <path class="cls-2" d="m5,24v1.5c0,1.38,1.12,2.5,2.5,2.5h1.5c.55,0,1-.45,1-1s-.45-1-1-1h-1.5c-.28,0-.5-.22-.5-.5v-1.5c0-.55-.45-1-1-1s-1,.45-1,1Z"/>
  </g>
  <g>
    <path class="cls-1" d="m10.5,1h-1c-.83,0-1.5.67-1.5,1.5v2.5h4v-2.5c0-.83-.67-1.5-1.5-1.5Z"/>
    <path class="cls-1" d="m8,18.88c0,.23.05.46.16.67l.95,1.89c.17.34.52.55.89.55s.72-.21.89-.55l.95-1.89c.05-.23.1-.44.16-.67V7h-4v11.88Z"/>
  </g>
</svg>