<?xml version="1.0" encoding="UTF-8"?>
<svg id="OBJECT" xmlns="http://www.w3.org/2000/svg" viewBox="0 0 512 512">
  <defs>
    <style>
      .cls-1 {
        fill: #FD4360;
      }

      .cls-2 {
        fill: #dadada;
      }
    </style>
  </defs>
  <g>
    <path class="cls-2" d="M504.5,208.5h-22.5v-52.5c0-4.14-3.36-7.5-7.5-7.5h-12.5v-40h42.5c4.14,0,7.5-3.36,7.5-7.5s-3.36-7.5-7.5-7.5h-42.5v-12.5c0-4.14-3.36-7.5-7.5-7.5s-7.5,3.36-7.5,7.5v12.5h-42.5c-4.14,0-7.5,3.36-7.5,7.5s3.36,7.5,7.5,7.5h42.5v40h-12.5c-4.14,0-7.5,3.36-7.5,7.5v52.5h-65.59l-13.73-41.2c-3.75-11.25-14.23-18.8-26.09-18.8H190.42c-11.86,0-22.34,7.56-26.09,18.8l-13.73,41.2H85v-52.5c0-4.14-3.36-7.5-7.5-7.5h-12.5v-40h42.5c4.14,0,7.5-3.36,7.5-7.5s-3.36-7.5-7.5-7.5h-42.5v-12.5c0-4.14-3.36-7.5-7.5-7.5s-7.5,3.36-7.5,7.5v12.5H7.5c-4.14,0-7.5,3.36-7.5,7.5s3.36,7.5,7.5,7.5H50v40h-12.5c-4.14,0-7.5,3.36-7.5,7.5v52.5H7.5c-4.14,0-7.5,3.36-7.5,7.5v23.09c0,13.47,9.64,24.88,22.92,27.12l95.58,16.13v43.66c0,9.65,7.85,17.5,17.5,17.5h11.42c4.14,0,7.5-3.36,7.5-7.5s-3.36-7.5-7.5-7.5h-11.42c-1.38,0-2.5-1.12-2.5-2.5v-102.5h245v102.5c0,1.38-1.12,2.5-2.5,2.5h-11.42c-4.14,0-7.5,3.36-7.5,7.5s3.36,7.5,7.5,7.5h11.42c9.65,0,17.5-7.85,17.5-17.5v-43.66l95.58-16.13c13.28-2.24,22.92-13.65,22.92-27.12v-23.09c0-4.14-3.36-7.5-7.5-7.5ZM45,163.5h25v45h-25v-45Zm-19.58,87.92c-6.04-1.02-10.42-6.2-10.42-12.33v-15.59H118.5v43.63l-93.08-15.71Zm153.14-79.37c1.7-5.11,6.47-8.55,11.86-8.55h131.17c5.39,0,10.15,3.44,11.86,8.55l12.15,36.45H166.41l12.15-36.45Zm263.44-8.55h25v45h-25v-45Zm55,75.59c0,6.12-4.38,11.31-10.42,12.33l-93.08,15.71v-43.63h103.5v15.59Z"/>
    <path class="cls-2" d="M238.5,178.5h-15c-4.14,0-7.5,3.36-7.5,7.5s3.36,7.5,7.5,7.5h15c4.14,0,7.5-3.36,7.5-7.5s-3.36-7.5-7.5-7.5Z"/>
    <path class="cls-2" d="M288.5,178.5h-15c-4.14,0-7.5,3.36-7.5,7.5s3.36,7.5,7.5,7.5h15c4.14,0,7.5-3.36,7.5-7.5s-3.36-7.5-7.5-7.5Z"/>
    <path class="cls-2" d="M361.3,240.7c-2.93-2.93-7.68-2.93-10.61,0l-5,5c-2.93,2.93-2.93,7.68,0,10.61,1.46,1.46,3.38,2.2,5.3,2.2s3.84-.73,5.3-2.2l5-5c2.93-2.93,2.93-7.68,0-10.61Z"/>
    <path class="cls-2" d="M161.3,240.7c-2.93-2.93-7.68-2.93-10.61,0-2.93,2.93-2.93,7.68,0,10.61l5,5c1.46,1.46,3.38,2.2,5.3,2.2s3.84-.73,5.3-2.2c2.93-2.93,2.93-7.68,0-10.61l-5-5Z"/>
  </g>
  <g>
    <path class="cls-1" d="M256.01,333.5h0c-9.65,0-17.5,7.85-17.5,17.5s7.85,17.5,17.5,17.5,17.5-7.85,17.5-17.5h0c-7.86-3.3-14.2-9.64-17.49-17.5Z"/>
    <path class="cls-1" d="M256,303.5c-26.19,0-47.5,21.31-47.5,47.5s21.31,47.5,47.5,47.5,47.5-21.31,47.5-47.5-21.31-47.5-47.5-47.5Zm0,80c-17.92,0-32.5-14.58-32.5-32.5s14.58-32.5,32.5-32.5c2.46,0,4.92,.28,7.34,.84,2.79,.65,4.97,2.83,5.62,5.62,1.49,6.46,6.63,11.59,13.08,13.08,2.79,.65,4.97,2.83,5.62,5.62,.56,2.42,.84,4.88,.84,7.33,0,17.92-14.58,32.5-32.5,32.5Z"/>
    <path class="cls-1" d="M256,263.5c-48.25,0-87.5,39.25-87.5,87.5s39.25,87.5,87.5,87.5,87.5-39.25,87.5-87.5-39.25-87.5-87.5-87.5Zm0,150c-34.46,0-62.5-28.04-62.5-62.5s28.04-62.5,62.5-62.5,62.5,28.04,62.5,62.5-28.04,62.5-62.5,62.5Z"/>
  </g>
</svg>