<?xml version="1.0" encoding="UTF-8"?>
<svg id="OBJECT" xmlns="http://www.w3.org/2000/svg" viewBox="0 0 32 32">
  <defs>
    <style>
      .cls-1 {
        fill: #FD4360;
      }

      .cls-1, .cls-2 {
        stroke-width: 0px;
      }

      .cls-2 {
        fill: #dadada;
      }
    </style>
  </defs>
  <g>
    <path class="cls-2" d="m18,7.6c.25,0,.51-.1.7-.29.39-.39.4-1.02,0-1.41-1.45-1.46-3.97-1.46-5.42,0-.39.39-.38,1.03,0,1.41.39.39,1.03.39,1.42,0,.69-.7,1.89-.7,2.58,0,.2.2.45.3.71.3Z"/>
    <path class="cls-2" d="m12.71,4.38c.88-.89,2.05-1.38,3.29-1.38s2.41.49,3.29,1.38c.2.2.45.3.71.3s.51-.1.7-.29c.39-.39.4-1.02,0-1.41-1.26-1.27-2.93-1.97-4.71-1.97s-3.45.7-4.71,1.97c-.39.39-.38,1.03,0,1.41.39.39,1.02.38,1.41,0Z"/>
    <path class="cls-2" d="m15.78,8.11c-.55,0-1,.45-1,1s.45,1,1,1h.45c.55,0,1-.45,1-1s-.45-1-1-1h-.45Z"/>
    <path class="cls-2" d="m16,20.5c-1.93,0-3.5,1.57-3.5,3.5s1.57,3.5,3.5,3.5,3.5-1.57,3.5-3.5-1.57-3.5-3.5-3.5Zm0,5c-.83,0-1.5-.67-1.5-1.5s.67-1.5,1.5-1.5,1.5.67,1.5,1.5-.67,1.5-1.5,1.5Z"/>
    <path class="cls-2" d="m23,21.82h-.35c-.92-2.79-3.55-4.82-6.65-4.82s-5.73,2.02-6.65,4.82h-2.35v-7h16c.55,0,1-.45,1-1s-.45-1-1-1H7v-2.82c0-.55-.45-1-1-1h-1v-4h1c.55,0,1-.45,1-1s-.45-1-1-1H2c-.55,0-1,.45-1,1s.45,1,1,1h1v4h-1c-.55,0-1,.45-1,1v15c0,1.65,1.35,3,3,3s3-1.35,3-3v-1.18h2.01c0,.06,0,.12,0,.18,0,3.86,3.14,7,7,7s7-3.14,7-7c0-.06,0-.12,0-.18h0c.55,0,1-.45,1-1s-.45-1-1-1ZM5,11v3h-2v-3h2Zm-1,15c-.55,0-1-.45-1-1v-9h2v9c0,.55-.45,1-1,1Zm12,3c-2.76,0-5-2.24-5-5s2.24-5,5-5,5,2.24,5,5-2.24,5-5,5Z"/>
  </g>
  <g>
    <path class="cls-1" d="m25,26c0,1.1.9,2,2,2h2c1.1,0,2-.9,2-2v-10h-6v10Z"/>
    <path class="cls-1" d="m29,5h1c.55,0,1-.45,1-1s-.45-1-1-1h-4c-.55,0-1,.45-1,1s.45,1,1,1h1v4h-2v5h6v-5h-2v-4Z"/>
  </g>
</svg>