<?xml version="1.0" encoding="UTF-8"?>
<svg id="OBJECT" xmlns="http://www.w3.org/2000/svg" viewBox="0 0 32 32">
  <defs>
    <style>
      .cls-1 {
        fill: #FD4360;
      }

      .cls-1, .cls-2 {
        stroke-width: 0px;
      }

      .cls-2 {
        fill: #dadada;
      }
    </style>
  </defs>
  <g>
    <path class="cls-2" d="m18.5,8.82c.25,0,.5-.09.7-.29.4-.39.4-1.02.02-1.41-.86-.88-2-1.36-3.21-1.36s-2.36.48-3.21,1.36c-.39.39-.38,1.03.02,1.41.39.39,1.03.38,1.41-.02.96-.98,2.61-.98,3.57,0,.2.2.46.3.71.3Z"/>
    <path class="cls-2" d="m11.71,4.82c1.15-1.17,2.67-1.82,4.29-1.82s3.14.64,4.29,1.82c.2.2.46.3.71.3s.5-.09.7-.29c.4-.39.4-1.02.02-1.41-1.52-1.56-3.55-2.42-5.71-2.42s-4.19.86-5.71,2.42c-.39.39-.38,1.03.02,1.41.4.39,1.03.38,1.41-.02Z"/>
    <path class="cls-2" d="m15.72,10c-.55,0-1,.45-1,1s.45,1,1,1h.56c.55,0,1-.45,1-1s-.45-1-1-1h-.56Z"/>
    <path class="cls-2" d="m23.5,17h-15c-.55,0-1,.45-1,1v6c0,1.65,1.35,3,3,3h1v1c0,1.65,1.35,3,3,3h3c1.65,0,3-1.35,3-3v-1h1c1.65,0,3-1.35,3-3v-6c0-.55-.45-1-1-1Zm-5,11c0,.55-.45,1-1,1h-3c-.55,0-1-.45-1-1v-4c0-.55.45-1,1-1h3c.55,0,1,.45,1,1v4Zm4-4c0,.55-.45,1-1,1h-1v-1c0-1.65-1.35-3-3-3h-3c-1.65,0-3,1.35-3,3v1h-1c-.55,0-1-.45-1-1v-5h13v5Z"/>
    <path class="cls-2" d="m16.5,25h-1c-.55,0-1,.45-1,1s.45,1,1,1h1c.55,0,1-.45,1-1s-.45-1-1-1Z"/>
  </g>
  <g>
    <path class="cls-1" d="m30,17h-1.5v-3h1.5c.55,0,1-.45,1-1s-.45-1-1-1h-1.5v-1c0-.55-.45-1-1-1s-1,.45-1,1v1h-1.5c-.55,0-1,.45-1,1s.45,1,1,1h1.5v3h-.5v6.39l2.95-.98c1.23-.41,2.05-1.55,2.05-2.85v-1.56c0-.55-.45-1-1-1Z"/>
    <path class="cls-1" d="m7,12h-1.5v-1c0-.55-.45-1-1-1s-1,.45-1,1v1h-1.5c-.55,0-1,.45-1,1s.45,1,1,1h1.5v3h-1.5c-.55,0-1,.45-1,1v1.56c0,1.29.82,2.44,2.05,2.85l2.95.98v-6.39h-.5v-3h1.5c.55,0,1-.45,1-1s-.45-1-1-1Z"/>
  </g>
</svg>