<?xml version="1.0" encoding="UTF-8" standalone="no"?>
<svg
   id="OBJECT"
   viewBox="0 0 32 32"
   version="1.1"
   sodipodi:docname="Ebook.svg"
   inkscape:version="1.2.2 (732a01da63, 2022-12-09)"
   xml:space="preserve"
   xmlns:inkscape="http://www.inkscape.org/namespaces/inkscape"
   xmlns:sodipodi="http://sodipodi.sourceforge.net/DTD/sodipodi-0.dtd"
   xmlns="http://www.w3.org/2000/svg"
   xmlns:svg="http://www.w3.org/2000/svg"><sodipodi:namedview
     id="namedview153"
     pagecolor="#505050"
     bordercolor="#ffffff"
     borderopacity="1"
     inkscape:showpageshadow="0"
     inkscape:pageopacity="0"
     inkscape:pagecheckerboard="1"
     inkscape:deskcolor="#505050"
     showgrid="false"
     inkscape:zoom="8.0000004"
     inkscape:cx="6.0624997"
     inkscape:cy="20.374999"
     inkscape:window-width="1920"
     inkscape:window-height="1009"
     inkscape:window-x="-8"
     inkscape:window-y="-8"
     inkscape:window-maximized="1"
     inkscape:current-layer="OBJECT" /><defs
     id="defs140"><style
       id="style138">
      .cls-1 {
        fill: #FD4360;
      }

      .cls-1, .cls-2 {
        stroke-width: 0px;
      }

      .cls-2 {
        fill: #dadada;
      }
    </style></defs><path
     style="fill:#dadada;fill-opacity:1;stroke-width:0.114629"
     d="m 22.964673,4.0169771 4.407371,2.1276981 -16.603641,1.3298109 c 0,0 -2.2290119,-0.1899733 -3.2295369,-0.747227 C 6.5383412,6.1700047 5.9430902,5.7014048 5.9430902,5.7014048 Z"
     id="path848" /><path
     style="fill:#dadada;fill-opacity:1;stroke-width:0.114629"
     d="m 10.876056,28.431675 0.671235,-0.02533 0.0795,-21.4271539 -0.949275,0.1432866 z"
     id="path1728" /><path
     style="fill:#fe4360;fill-opacity:1;stroke-width:0.114629"
     d="M 22.99,3.3584043 V 4.1689555 L 5.9684204,5.7140697 c 0,0 1.0638465,0.9625294 2.3809957,1.2918158 1.3171469,0.3292871 1.8237399,0.4306055 2.0263759,0.4306055 0.202641,0 0.430605,0.025327 0.430605,0.025327 l 0.076,20.97302 c 0,0 -2.0770429,-0.303957 -3.0649009,-0.734562 C 6.8296317,27.269671 5.99375,26.737746 5.8671013,26.560438 5.7404525,26.38313 5.3858365,25.825876 5.3858365,25.825876 L 5.3351761,4.9035155 Z"
     id="path361" /><path
     style="fill:#fe4360;stroke-width:0.114629"
     d="m 11.540964,28.409511 -0.02533,-20.97302 15.831085,-1.3678054 0.05066,4.4073744 -10.131894,0.88654 0.05066,3.799461 8.232161,-0.759893 0.05066,4.331385 -8.308153,0.607914 0.07598,3.698141 9.929259,-0.810552 0.07598,4.787319 z"
     id="path363" /></svg>
