<?xml version="1.0" encoding="UTF-8"?>
<svg id="OBJECT" xmlns="http://www.w3.org/2000/svg" viewBox="0 0 32 32">
  <defs>
    <style>
      .cls-1 {
        fill: #FD4360;
      }

      .cls-1, .cls-2 {
        stroke-width: 0px;
      }

      .cls-2 {
        fill: #dadada;
      }
    </style>
  </defs>
  <g>
    <path class="cls-2" d="m8.5,20.5c-.55,0-1,.45-1,1v.5c0,.55.45,1,1,1s1-.45,1-1v-.5c0-.55-.45-1-1-1Z"/>
    <path class="cls-2" d="m27.5,1H3.5c-1.38,0-2.5,1.12-2.5,2.5v4.5c0,.55.45,1,1,1h.5v16.5c0,1.38,1.12,2.5,2.5,2.5h7.56c.55,0,1-.45,1-1s-.45-1-1-1h-7.56c-.28,0-.5-.22-.5-.5V9h3v9c0,.55.45,1,1,1s1-.45,1-1v-9h17v4.03c0,.55.45,1,1,1s1-.45,1-1v-4.03h.5c.55,0,1-.45,1-1V3.5c0-1.38-1.12-2.5-2.5-2.5ZM3,3.5c0-.28.22-.5.5-.5h24c.28,0,.5.22.5.5v3.5H3v-3.5Z"/>
  </g>
  <g>
    <path class="cls-1" d="m19.88,16.23c-1.34-.7-2.85-1.08-4.41-1.04-.3,0-.58.15-.76.39-2.1,2.74-2.44,6.49-.87,9.56.71,1.39,1.78,2.53,3.05,3.37-1.01-2.96-.82-6.27.64-9.13.61-1.2,1.42-2.26,2.36-3.15Z"/>
    <path class="cls-1" d="m29,15.42c-.18-.24-.46-.38-.76-.39-3.76-.11-7.24,1.96-8.94,5.27-1.6,3.11-1.34,6.88.58,9.78l2.18-4.24-.96-2.22c-.22-.51.02-1.1.52-1.31.51-.22,1.1.02,1.31.52l.3.71,2.24-4.36c.25-.49.85-.68,1.35-.43.49.25.69.86.43,1.35l-.87,1.69.96-.15c.55-.09,1.06.29,1.15.83.09.55-.29,1.06-.83,1.14l-2.4.38-3.61,7.02c3.48-.13,6.69-2.13,8.28-5.25,1.7-3.31,1.33-7.37-.94-10.33Z"/>
  </g>
</svg>