<?xml version="1.0" encoding="UTF-8"?>
<svg id="OBJECT" xmlns="http://www.w3.org/2000/svg" viewBox="0 0 32 32">
  <defs>
    <style>
      .cls-1 {
        fill: #FD4360;
      }

      .cls-1, .cls-2 {
        stroke-width: 0px;
      }

      .cls-2 {
        fill: #dadada;
      }
    </style>
  </defs>
  <path class="cls-2" d="m30.95,20.27c-.16-.81-.68-1.48-1.43-1.83-.9-.43-1.98-.29-2.74.35l-4.37,3.66-2.34-3.54c-.99-1.5-2.66-2.39-4.45-2.39h-.85c-1.78,0-3.42.88-4.41,2.32h-2.37c-.02-1.36-1.13-2.47-2.5-2.47h-3.5c-.55,0-1,.45-1,1v12c0,.55.45,1,1,1h3.5c1.28,0,2.32-.97,2.47-2.21h2.16c1.68,1.81,4.03,2.83,6.51,2.83h1.92c2.48,0,4.86-1.04,6.54-2.86l5.21-5.64c.56-.61.79-1.42.63-2.23Zm-24.95,7.61c0,.28-.22.5-.5.5h-2.5v-10h2.5c.28,0,.5.22.5.5v9Zm22.85-6.73l-5.21,5.64c-1.3,1.41-3.16,2.22-5.08,2.22h-1.92c-2.05,0-3.98-.9-5.3-2.47-.19-.23-.47-.36-.77-.36h-2.58v-5.33h2.93c.37,0,.71-.21.89-.54.58-1.1,1.71-1.79,2.96-1.79h.85c1.12,0,2.16.56,2.78,1.5l2.47,3.73-.75.62c-.41.35-1.04.3-1.39-.11l-1.35-1.54c-.36-.42-1-.46-1.41-.09-.42.36-.46,1-.09,1.41l1.35,1.54c1.07,1.22,2.94,1.36,4.18.32l6.66-5.57c.17-.14.41-.17.61-.08.23.11.29.3.32.41.02.11.03.31-.14.49Z"/>
  <path class="cls-1" d="m22.75,15.5c4,0,7.25-3.25,7.25-7.25s-3.25-7.25-7.25-7.25-7.25,3.25-7.25,7.25,3.25,7.25,7.25,7.25Zm-1-9.93c0-.55.45-1,1-1s1,.45,1,1v2.26l1.49,1.49c.39.39.39,1.02,0,1.41-.2.2-.45.29-.71.29s-.51-.1-.71-.29l-1.79-1.79c-.19-.19-.29-.44-.29-.71v-2.68Z"/>
</svg>