<?xml version="1.0" encoding="UTF-8"?>
<svg id="OBJECT" xmlns="http://www.w3.org/2000/svg" viewBox="0 0 32 32">
  <defs>
    <style>
      .cls-1 {
        fill: #FD4360;
      }

      .cls-1, .cls-2 {
        stroke-width: 0px;
      }

      .cls-2 {
        fill: #dadada;
      }
    </style>
  </defs>
  <g>
    <path class="cls-2" d="m22,8.66c.55,0,1-.45,1-1V3.5c0-1.38-1.12-2.5-2.5-2.5h-12.5c-.27,0-.52.11-.71.29L1.29,7.29c-.19.19-.29.44-.29.71v20.5c0,1.38,1.12,2.5,2.5,2.5h17c1.38,0,2.5-1.12,2.5-2.5v-2.94c0-.55-.45-1-1-1s-1,.45-1,1v2.94c0,.28-.22.5-.5.5H3.5c-.28,0-.5-.22-.5-.5V9.15l3.22.46c.15.02.29.03.43.03.79,0,1.54-.31,2.11-.88.67-.67.98-1.6.85-2.55l-.46-3.22h11.35c.28,0,.5.22.5.5v4.16c0,.55.45,1,1,1Zm-14.65-1.31c-.22.22-.54.33-.85.28l-2.38-.34,3.17-3.17.34,2.38c.04.31-.06.62-.28.85Z"/>
    <path class="cls-2" d="m19,13c0-.55-.45-1-1-1h-8c-.55,0-1,.45-1,1s.45,1,1,1h8c.55,0,1-.45,1-1Z"/>
    <path class="cls-2" d="m6,14h.5c.55,0,1-.45,1-1s-.45-1-1-1h-.5c-.55,0-1,.45-1,1s.45,1,1,1Z"/>
    <path class="cls-2" d="m16,17.33c0-.55-.45-1-1-1H6c-.55,0-1,.45-1,1s.45,1,1,1h9c.55,0,1-.45,1-1Z"/>
    <path class="cls-2" d="m12,20.67h-6c-.55,0-1,.45-1,1s.45,1,1,1h6c.55,0,1-.45,1-1s-.45-1-1-1Z"/>
    <path class="cls-2" d="m12,25h-6c-.55,0-1,.45-1,1s.45,1,1,1h6c.55,0,1-.45,1-1s-.45-1-1-1Z"/>
  </g>
  <g>
    <path class="cls-1" d="m29.87,4.68l-.73-.42c-1.08-.63-2.48-.25-3.1.83l-.56.97,4.66,2.69.56-.97c.62-1.08.25-2.47-.83-3.1Z"/>
    <path class="cls-1" d="m17.62,19.65c-.3.52-.38,1.14-.23,1.72l.38,1.4-.64,1.11c-.28.48-.11,1.09.37,1.37.16.09.33.13.5.13.35,0,.68-.18.87-.5l.64-1.11,1.4-.38h0c.58-.16,1.08-.54,1.38-1.06l6.85-11.87-4.66-2.69-6.85,11.87Z"/>
  </g>
</svg>