<?xml version="1.0" encoding="UTF-8"?>
<svg id="OBJECT" xmlns="http://www.w3.org/2000/svg" viewBox="0 0 32 32">
  <defs>
    <style>
      .cls-1 {
        fill: #FD4360;
      }

      .cls-2 {
        fill: #dadada;
      }
    </style>
  </defs>
  <path class="cls-2" d="M25.22,2.55l-.79-.79c-1.01-1.01-2.77-1.01-3.78,0L3.85,18.55c-.82,.82-1.27,1.91-1.27,3.08v1.36l-1.29,1.29c-.39,.39-.39,1.02,0,1.41,.2,.2,.45,.29,.71,.29s.51-.1,.71-.29l1.29-1.29h1.36c1.16,0,2.26-.45,3.08-1.27L25.22,6.33c1.04-1.04,1.04-2.74,0-3.78ZM7.08,18.15L19.38,5.85l1.75,1.75-12.3,12.3c-.39-.75-1-1.35-1.75-1.75Zm-1.73,4.25h-.77v-.77c0-.63,.24-1.22,.69-1.66l.27-.27c.89,.16,1.59,.86,1.75,1.75l-.27,.27c-.44,.44-1.04,.69-1.66,.69ZM23.8,4.92l-1.27,1.27-1.75-1.75,1.27-1.27c.26-.26,.7-.25,.96,0l.79,.79c.26,.26,.26,.69,0,.96Z"/>
  <path class="cls-1" d="M28,18h-1l-2.1-2.8c-.56-.75-1.46-1.2-2.4-1.2s-1.84,.45-2.4,1.2l-.6,.8h2c.55,0,1,.45,1,1s-.45,1-1,1h-4.5c-1.65,0-3,1.35-3,3v7c0,1.65,1.35,3,3,3h11c1.65,0,3-1.35,3-3v-7c0-1.65-1.35-3-3-3Zm-1.5,9.25h-8c-.55,0-1-.45-1-1s.45-1,1-1h8c.55,0,1,.45,1,1s-.45,1-1,1Zm0-3.5h-4c-.55,0-1-.45-1-1s.45-1,1-1h4c.55,0,1,.45,1,1s-.45,1-1,1Z"/>
</svg>