<?xml version="1.0" encoding="UTF-8"?>
<svg id="OBJECT" xmlns="http://www.w3.org/2000/svg" viewBox="0 0 32 32">
  <defs>
    <style>
      .cls-1 {
        fill: #FD4360;
      }

      .cls-1, .cls-2 {
        stroke-width: 0px;
      }

      .cls-2 {
        fill: #dadada;
      }
    </style>
  </defs>
  <g>
    <path class="cls-2" d="m6.5,22c-.55,0-1,.45-1,1s.45,1,1,1h1c.55,0,1-.45,1-1s-.45-1-1-1h-1Z"/>
    <path class="cls-2" d="m25.5,24c.55,0,1-.45,1-1s-.45-1-1-1h-1c-.55,0-1,.45-1,1s.45,1,1,1h1Z"/>
    <path class="cls-2" d="m30,25h-.5v-12c0-1.65-1.35-3-3-3h-4.5c-.55,0-1,.45-1,1s.45,1,1,1h4.5c.55,0,1,.45,1,1v12H4.5v-12c0-.55.45-1,1-1h4.5c.55,0,1-.45,1-1s-.45-1-1-1h-4.5c-1.65,0-3,1.35-3,3v12h-.5c-.55,0-1,.45-1,1v2c0,1.65,1.35,3,3,3h24c1.65,0,3-1.35,3-3v-2c0-.55-.45-1-1-1Zm-1,3c0,.55-.45,1-1,1H4c-.55,0-1-.45-1-1v-1h26v1Z"/>
  </g>
  <g>
    <path class="cls-1" d="m12,15.99c1.24-.56,2.61-.87,4-.87s2.76.3,4,.87V6.74h-8v9.25Z"/>
    <path class="cls-1" d="m12.26,18.1l2.74,3.08v.84c0,.55.45,1,1,1s1-.45,1-1v-.84l2.74-3.08c-1.13-.63-2.42-.98-3.74-.98s-2.61.35-3.74.98Z"/>
    <path class="cls-1" d="m19,1h-6c-.55,0-1,.45-1,1v2.74h8v-2.74c0-.55-.45-1-1-1Z"/>
  </g>
</svg>