<?xml version="1.0" encoding="UTF-8"?>
<svg id="OBJECT" xmlns="http://www.w3.org/2000/svg" viewBox="0 0 32 32">
  <defs>
    <style>
      .cls-1 {
        fill: #FD4360;
      }

      .cls-1, .cls-2 {
        stroke-width: 0px;
      }

      .cls-2 {
        fill: #dadada;
      }
    </style>
  </defs>
  <g>
    <path class="cls-2" d="m30,29h-1v-5h1c.55,0,1-.45,1-1s-.45-1-1-1h-5v-3h1c.55,0,1-.45,1-1s-.45-1-1-1H8c-1.65,0-3,1.35-3,3v1c0,.35.07.69.18,1h-1.18c-1.65,0-3,1.35-3,3v3c0,1.65,1.35,3,3,3h26c.55,0,1-.45,1-1s-.45-1-1-1ZM7,21v-1c0-.55.45-1,1-1h15v3h-15c-.55,0-1-.45-1-1Zm-4,7v-3c0-.55.45-1,1-1h23v1.5H10c-.55,0-1,.45-1,1s.45,1,1,1h17v1.5H4c-.55,0-1-.45-1-1Z"/>
    <path class="cls-2" d="m7,25.5h-1c-.55,0-1,.45-1,1s.45,1,1,1h1c.55,0,1-.45,1-1s-.45-1-1-1Z"/>
  </g>
  <g>
    <path class="cls-1" d="m30,1H2c-.55,0-1,.45-1,1s.45,1,1,1h1v1h26v-1h1c.55,0,1-.45,1-1s-.45-1-1-1Z"/>
    <path class="cls-1" d="m6.5,10c0,.42.27.8.67.94l8.5,3c.11.04.22.06.33.06s.23-.02.33-.06l8.5-3c.4-.14.67-.52.67-.94v-4H6.5v4Zm11.5-2h1c.55,0,1,.45,1,1s-.45,1-1,1h-1c-.55,0-1-.45-1-1s.45-1,1-1Zm-5,0h1c.55,0,1,.45,1,1s-.45,1-1,1h-1c-.55,0-1-.45-1-1s.45-1,1-1Z"/>
    <path class="cls-1" d="m27,10c0,.55.45,1,1,1s1-.45,1-1v-4h-2v4Z"/>
  </g>
</svg>