<?xml version="1.0" encoding="UTF-8"?>
<svg id="OBJECT" xmlns="http://www.w3.org/2000/svg" viewBox="0 0 512 512">
  <defs>
    <style>
      .cls-1 {
        fill: #FD4360;
      }

      .cls-2 {
        fill: #dadada;
      }
    </style>
  </defs>
  <g>
    <path class="cls-2" d="M474.5,263.5c-1.85,0-3.66,.27-5.42,.75-51.77,8.13-104.54,13.32-156.98,15.47,.32-1.98,.66-3.95,1.02-5.92l.27-1.45c.4-2.19-.19-4.44-1.62-6.15-1.42-1.71-3.54-2.7-5.76-2.7h-100c-2.23,0-4.35,.99-5.77,2.71-1.42,1.72-2.01,3.98-1.6,6.17,.46,2.44,.88,4.89,1.28,7.34-52.44-2.15-105.21-7.34-156.98-15.47-1.76-.48-3.57-.75-5.42-.75-21.38,0-37.5,33.32-37.5,77.5s16.12,77.5,37.5,77.5c1.85,0,3.66-.27,5.43-.75,50.51-7.93,101.97-13.07,153.11-15.31-1.84,8.08-4,16.09-6.48,24.02l-.72,2.31c-.9,2.87,0,6,2.3,7.95,1.39,1.18,3.12,1.79,4.86,1.79,1.14,0,2.29-.26,3.35-.79l56.65-28.32,56.65,28.32c2.7,1.35,5.94,.95,8.23-1.01,2.29-1.96,3.19-5.1,2.27-7.97l-.27-.85c-2.66-8.38-4.96-16.87-6.92-25.44,51.14,2.24,102.6,7.38,153.11,15.31,1.77,.49,3.57,.75,5.43,.75,21.38,0,37.5-33.32,37.5-77.5s-16.12-77.5-37.5-77.5Zm-25.02,18.83c-5.21,9.42-9.06,21.91-11.02,36.38-43.14,5.78-86.98,9.54-130.52,11.19,.04-11.72,.73-23.43,2.06-35.08,46.53-1.81,93.32-6,139.48-12.49Zm-152.39-3.83c-1.32,8.3-2.32,16.64-3.02,25h-76.15c-.69-8.36-1.69-16.7-3.01-25h82.18Zm-93.03,51.39c-43.54-1.65-87.38-5.41-130.52-11.19-1.96-14.47-5.81-26.96-11.02-36.38,46.17,6.49,92.96,10.67,139.48,12.49,1.33,11.65,2.02,23.36,2.06,35.08Zm-189.06,11.11c0-38.15,13.33-62.5,22.5-62.5s22.5,24.35,22.5,62.5-13.33,62.5-22.5,62.5-22.5-24.35-22.5-62.5Zm47.52,58.68c7.74-13.99,12.48-34.73,12.48-58.68,0-2.36-.06-4.69-.15-6.98,42.63,5.6,85.92,9.25,128.91,10.87-.61,14.22-2.17,28.39-4.66,42.41-45.55,1.87-91.37,6.02-136.59,12.38Zm200.98-3.31v-35.36c0-4.14-3.36-7.5-7.5-7.5s-7.5,3.36-7.5,7.5v35.36l-40.5,20.25c8.43-31.96,12.06-65.12,10.82-98.11h74.35c-1.24,33,2.39,66.15,10.82,98.11l-40.49-20.25Zm44.74-51.48c42.99-1.62,86.28-5.27,128.91-10.87-.09,2.3-.15,4.62-.15,6.98,0,23.95,4.74,44.69,12.48,58.68-45.22-6.35-91.04-10.5-136.59-12.38-2.49-14.02-4.05-28.19-4.66-42.41Zm166.26,58.61c-9.17,0-22.5-24.35-22.5-62.5s13.33-62.5,22.5-62.5,22.5,24.35,22.5,62.5-13.33,62.5-22.5,62.5Z"/>
    <path class="cls-2" d="M474.5,348.5c-4.14,0-7.5,3.36-7.5,7.5v10c0,4.14,3.36,7.5,7.5,7.5s7.5-3.36,7.5-7.5v-10c0-4.14-3.36-7.5-7.5-7.5Z"/>
    <path class="cls-2" d="M474.5,308.5c-4.14,0-7.5,3.36-7.5,7.5v10c0,4.14,3.36,7.5,7.5,7.5s7.5-3.36,7.5-7.5v-10c0-4.14-3.36-7.5-7.5-7.5Z"/>
    <path class="cls-2" d="M45,356c0-4.14-3.36-7.5-7.5-7.5s-7.5,3.36-7.5,7.5v10c0,4.14,3.36,7.5,7.5,7.5s7.5-3.36,7.5-7.5v-10Z"/>
    <path class="cls-2" d="M37.5,333.5c4.14,0,7.5-3.36,7.5-7.5v-10c0-4.14-3.36-7.5-7.5-7.5s-7.5,3.36-7.5,7.5v10c0,4.14,3.36,7.5,7.5,7.5Z"/>
  </g>
  <g>
    <path class="cls-1" d="M256,203.5c-2.28,0-4.54-.34-6.71-1.02l-110.79-34.62v24.48c0,12.37,8.33,23.28,20.26,26.53l95.26,25.98c.65,.18,1.31,.26,1.97,.26s1.33-.09,1.97-.26l95.26-25.98c11.93-3.25,20.26-14.16,20.26-26.53v-24.48l-110.79,34.62c-2.17,.68-4.43,1.02-6.71,1.02Z"/>
    <path class="cls-1" d="M418.24,123.84l-160-50c-1.46-.46-3.02-.46-4.47,0L93.76,123.84c-3.13,.98-5.26,3.88-5.26,7.16s2.13,6.18,5.26,7.16l160,50c.73,.23,1.48,.34,2.24,.34s1.51-.11,2.24-.34l140.26-43.83v53.28c0,4.14,3.36,7.5,7.5,7.5s7.5-3.36,7.5-7.5v-57.97l4.74-1.48c3.13-.98,5.26-3.88,5.26-7.16s-2.13-6.18-5.26-7.16Zm-204.74,14.66h-15c-4.14,0-7.5-3.36-7.5-7.5s3.36-7.5,7.5-7.5h15c4.14,0,7.5,3.36,7.5,7.5s-3.36,7.5-7.5,7.5Zm50,0h-15c-4.14,0-7.5-3.36-7.5-7.5s3.36-7.5,7.5-7.5h15c4.14,0,7.5,3.36,7.5,7.5s-3.36,7.5-7.5,7.5Zm50,0h-15c-4.14,0-7.5-3.36-7.5-7.5s3.36-7.5,7.5-7.5h15c4.14,0,7.5,3.36,7.5,7.5s-3.36,7.5-7.5,7.5Z"/>
  </g>
</svg>