<?xml version="1.0" encoding="UTF-8"?>
<svg id="OBJECT" xmlns="http://www.w3.org/2000/svg" viewBox="0 0 32 32">
  <defs>
    <style>
      .cls-1 {
        fill: #FD4360;
      }

      .cls-1, .cls-2 {
        stroke-width: 0px;
      }

      .cls-2 {
        fill: #dadada;
      }
    </style>
  </defs>
  <path class="cls-2" d="m24,4H4c-1.65,0-3,1.35-3,3v14c0,1.65,1.35,3,3,3h20c1.65,0,3-1.35,3-3V7c0-1.65-1.35-3-3-3Zm-8.76,11.25c-.9.98-2.62.94-3.47-.08L4.14,6h19.59l-8.48,9.25Zm-7.05-1.25l-5.2,6.24V7.76l5.2,6.24Zm1.3,1.56l.74.89c.82.98,2.02,1.55,3.31,1.55,1.2,0,2.36-.51,3.17-1.4l1.03-1.12,5.98,6.52H4.14l5.36-6.44Zm9.61-1.56l5.89-6.43v12.86l-5.89-6.43Z"/>
  <path class="cls-1" d="m29,8.18v12.82c0,2.76-2.24,5-5,5H5.18c.41,1.16,1.51,2,2.82,2h20c1.65,0,3-1.35,3-3v-14c0-1.3-.84-2.4-2-2.82Z"/>
</svg>