<?xml version="1.0" encoding="UTF-8"?>
<svg id="OBJECT" xmlns="http://www.w3.org/2000/svg" viewBox="0 0 32 32">
  <defs>
    <style>
      .cls-1 {
        fill: #FD4360;
      }

      .cls-1, .cls-2 {
        stroke-width: 0px;
      }

      .cls-2 {
        fill: #dadada;
      }
    </style>
  </defs>
  <g>
    <path class="cls-2" d="m28,9h-1.08c-.55,0-1,.45-1,1s.45,1,1,1h1.08c.55,0,1,.45,1,1v16c0,.55-.45,1-1,1H4c-.55,0-1-.45-1-1V12c0-.55.45-1,1-1h1.08c.55,0,1-.45,1-1s-.45-1-1-1h-1.08c-1.65,0-3,1.35-3,3v16c0,1.65,1.35,3,3,3h24c1.65,0,3-1.35,3-3V12c0-1.65-1.35-3-3-3Z"/>
    <path class="cls-2" d="m4.16,14.96c-.3.47-.16,1.08.31,1.38l6.53,4.16-6.53,4.15c-.47.3-.6.91-.31,1.38.19.3.51.46.84.46.18,0,.37-.05.54-.16l7.32-4.66,1.8,1.14c.41.26.88.39,1.34.39s.93-.13,1.34-.39l1.8-1.14,7.32,4.66c.17.11.35.16.54.16.33,0,.65-.16.84-.46.3-.47.16-1.08-.31-1.38l-6.53-4.15,6.53-4.16c.47-.3.6-.91.31-1.38-.3-.47-.92-.6-1.38-.31l-10.2,6.49c-.16.1-.37.1-.54,0l-10.19-6.49c-.46-.3-1.08-.16-1.38.31Z"/>
  </g>
  <path class="cls-1" d="m16,17c4.41,0,8-3.59,8-8S20.41,1,16,1s-8,3.59-8,8,3.59,8,8,8Zm-1.55-9.61c-.49.25-1.09.05-1.34-.45-.25-.49-.05-1.09.45-1.34l2-1c.31-.15.68-.14.97.04.29.18.47.5.47.85v6h1c.55,0,1,.45,1,1s-.45,1-1,1h-4c-.55,0-1-.45-1-1s.45-1,1-1h1v-4.38l-.55.28Z"/>
</svg>