<?xml version="1.0" encoding="UTF-8"?>
<svg id="OBJECT" xmlns="http://www.w3.org/2000/svg" viewBox="0 0 32 32">
  <defs>
    <style>
      .cls-1 {
        fill: #FD4360;
      }

      .cls-1, .cls-2 {
        stroke-width: 0px;
      }

      .cls-2 {
        fill: #dadada;
      }
    </style>
  </defs>
  <path class="cls-1" d="m14.15,16.64c.52-.41,1.18-.64,1.85-.64s1.33.23,1.85.64l6.15,4.83V2.5c0-.83-.67-1.5-1.5-1.5h-13c-.83,0-1.5.67-1.5,1.5v18.97l6.15-4.83Zm4.35-1.64h-5c-.55,0-1-.45-1-1s.45-1,1-1h5c.55,0,1,.45,1,1s-.45,1-1,1Zm1.5-11h1c.55,0,1,.45,1,1s-.45,1-1,1h-1c-.55,0-1-.45-1-1s.45-1,1-1Zm-9,0h6c.55,0,1,.45,1,1s-.45,1-1,1h-6c-.55,0-1-.45-1-1s.45-1,1-1Zm0,4.5h10c.55,0,1,.45,1,1s-.45,1-1,1h-10c-.55,0-1-.45-1-1s.45-1,1-1Z"/>
  <path class="cls-2" d="m30.97,12.86c-.01-.08-.02-.15-.05-.22-.03-.07-.07-.13-.11-.19-.03-.04-.04-.09-.08-.13,0,0-.01,0-.02-.01-.05-.06-.12-.09-.19-.13-.05-.03-.08-.07-.13-.09-.04-.02-.09-.02-.14-.03-.08-.02-.16-.05-.24-.05,0,0-.01,0-.02,0h-3.5c-.55,0-1,.45-1,1s.45,1,1,1h.95l-2.13,1.98c-.4.38-.43,1.01-.05,1.41.2.21.46.32.73.32.24,0,.49-.09.68-.27l2.32-2.15v12.65l-12.38-9.73c-.36-.29-.87-.29-1.24,0L3,27.94v-12.65l2.32,2.15c.19.18.44.27.68.27.27,0,.54-.11.73-.32.38-.4.35-1.04-.05-1.41l-2.13-1.98h.95c.55,0,1-.45,1-1s-.45-1-1-1h-3.5s-.01,0-.02,0c-.08,0-.16.03-.23.05-.05.01-.1.01-.15.03-.05.02-.08.06-.13.08-.07.04-.14.08-.19.14,0,0-.01,0-.02.01-.04.04-.05.09-.08.13-.04.06-.09.12-.11.19-.03.07-.03.15-.05.22,0,.05-.03.09-.03.14v17c0,.55.45,1,1,1h28c.55,0,1-.45,1-1V13s-.02-.09-.03-.14Zm-14.97,7.41l11.11,8.73H4.89l11.11-8.73Z"/>
</svg>