<?xml version="1.0" encoding="UTF-8"?>
<svg id="OBJECT" xmlns="http://www.w3.org/2000/svg" viewBox="0 0 32 32">
  <defs>
    <style>
      .cls-1 {
        fill: #FD4360;
      }

      .cls-1, .cls-2 {
        stroke-width: 0px;
      }

      .cls-2 {
        fill: #dadada;
      }
    </style>
  </defs>
  <g>
    <path class="cls-2" d="m28,12h-1c-.55,0-1,.45-1,1s.45,1,1,1h1c.55,0,1,.45,1,1v13c0,.55-.45,1-1,1H4c-.55,0-1-.45-1-1v-13c0-.55.45-1,1-1h1c.55,0,1-.45,1-1s-.45-1-1-1h-1c-1.65,0-3,1.35-3,3v13c0,1.65,1.35,3,3,3h24c1.65,0,3-1.35,3-3v-13c0-1.65-1.35-3-3-3Z"/>
    <path class="cls-2" d="m16,24c.11,0,.21-.02.32-.05l11-3.67c.52-.17.81-.74.63-1.26-.17-.52-.74-.81-1.27-.63l-10.68,3.56-10.68-3.56c-.53-.18-1.09.11-1.27.63-.17.52.11,1.09.63,1.26l11,3.67c.1.03.21.05.32.05Z"/>
    <path class="cls-2" d="m6,25c-.55,0-1,.45-1,1s.45,1,1,1h1c.55,0,1-.45,1-1s-.45-1-1-1h-1Z"/>
    <path class="cls-2" d="m10,25c-.55,0-1,.45-1,1s.45,1,1,1h1c.55,0,1-.45,1-1s-.45-1-1-1h-1Z"/>
  </g>
  <path class="cls-1" d="m24,17.28V3c0-1.1-.9-2-2-2h-12c-1.1,0-2,.9-2,2v14.28l8,2.67,8-2.67Zm-9-2.28v-.67h-1.5c-.55,0-1-.45-1-1s.45-1,1-1h3.33c.37,0,.67-.3.67-.67s-.3-.67-.67-.67h-1.67c-1.47,0-2.67-1.2-2.67-2.67s1.11-2.56,2.5-2.65v-.68c0-.55.45-1,1-1s1,.45,1,1v.67h1.5c.55,0,1,.45,1,1s-.45,1-1,1h-3.33c-.37,0-.67.3-.67.67s.3.67.67.67h1.67c1.47,0,2.67,1.2,2.67,2.67s-1.11,2.56-2.5,2.65v.68c0,.55-.45,1-1,1s-1-.45-1-1Z"/>
</svg>