<?xml version="1.0" encoding="UTF-8"?>
<svg id="OBJECT" xmlns="http://www.w3.org/2000/svg" viewBox="0 0 32 32">
  <defs>
    <style>
      .cls-1 {
        fill: #FD4360;
      }

      .cls-1, .cls-2 {
        stroke-width: 0px;
      }

      .cls-2 {
        fill: #dadada;
      }
    </style>
  </defs>
  <g>
    <path class="cls-2" d="m24.5,4H3.5c-1.38,0-2.5,1.12-2.5,2.5v15c0,1.38,1.12,2.5,2.5,2.5h21c1.38,0,2.5-1.12,2.5-2.5V6.5c0-1.38-1.12-2.5-2.5-2.5Zm.5,17.5c0,.28-.22.5-.5.5H3.5c-.28,0-.5-.22-.5-.5V6.5c0-.28.22-.5.5-.5h21c.28,0,.5.22.5.5v15Z"/>
    <path class="cls-2" d="m23.27,8.36c-.35-.43-.98-.49-1.41-.14l-7.23,5.95c-.37.3-.9.3-1.27,0l-7.23-5.95c-.43-.35-1.06-.29-1.41.14-.35.43-.29,1.06.14,1.41l5.13,4.23-5.13,4.23c-.43.35-.49.98-.14,1.41.2.24.48.36.77.36.22,0,.45-.07.63-.23l5.44-4.48.52.43c.55.46,1.23.68,1.91.68s1.35-.23,1.91-.68l.52-.43,5.44,4.48c.19.15.41.23.63.23.29,0,.58-.12.77-.36.35-.43.29-1.06-.14-1.41l-5.13-4.23,5.13-4.23c.43-.35.49-.98.14-1.41Z"/>
  </g>
  <path class="cls-1" d="m29,8.05v13.45c0,2.48-2.02,4.5-4.5,4.5H5.05c.23,1.14,1.24,2,2.45,2h21c1.38,0,2.5-1.12,2.5-2.5v-15c0-1.21-.86-2.22-2-2.45Z"/>
</svg>