<?xml version="1.0" encoding="UTF-8"?>
<svg id="OBJECT" xmlns="http://www.w3.org/2000/svg" viewBox="0 0 512 512">
  <defs>
    <style>
      .cls-1 {
        fill: #FD4360;
      }

      .cls-2 {
        fill: #dadada;
      }
    </style>
  </defs>
  <g>
    <path class="cls-2" d="M484.5,217h-46V22.5c0-12.41-10.09-22.5-22.5-22.5H96c-12.41,0-22.5,10.09-22.5,22.5V217H27.5c-15.16,0-27.5,12.34-27.5,27.5v240c0,15.16,12.34,27.5,27.5,27.5H484.5c15.16,0,27.5-12.34,27.5-27.5V244.5c0-15.16-12.34-27.5-27.5-27.5Zm12.5,27.5v240c0,.91-.1,1.8-.29,2.65l-133.46-122.65,133.46-122.65c.19,.86,.29,1.74,.29,2.65Zm-12.5-12.5c.24,0,.48,.02,.72,.04l-46.72,42.93v-42.97h46ZM96,15H416c4.14,0,7.5,3.36,7.5,7.5V288.76l-137.85,126.69c-8.11,7.45-18.64,11.56-29.65,11.56s-21.54-4.1-29.65-11.56l-137.85-126.69V22.5c0-4.14,3.36-7.5,7.5-7.5ZM15.29,487.15c-.19-.86-.29-1.74-.29-2.65V244.5c0-.91,.1-1.8,.29-2.65l133.46,122.65L15.29,487.15Zm58.21-255.15v42.97l-46.72-42.93c.24-.01,.47-.04,.72-.04h46ZM27.5,497c-.24,0-.48-.02-.72-.04l133.05-122.28,56.37,51.8c10.88,10,25.02,15.51,39.8,15.51s28.92-5.51,39.8-15.51l56.37-51.8,133.05,122.28c-.24,.01-.47,.04-.72,.04H27.5Z"/>
    <path class="cls-2" d="M213.5,467h-15c-4.14,0-7.5,3.36-7.5,7.5s3.36,7.5,7.5,7.5h15c4.14,0,7.5-3.36,7.5-7.5s-3.36-7.5-7.5-7.5Z"/>
    <path class="cls-2" d="M263.5,467h-15c-4.14,0-7.5,3.36-7.5,7.5s3.36,7.5,7.5,7.5h15c4.14,0,7.5-3.36,7.5-7.5s-3.36-7.5-7.5-7.5Z"/>
    <path class="cls-2" d="M313.5,467h-15c-4.14,0-7.5,3.36-7.5,7.5s3.36,7.5,7.5,7.5h15c4.14,0,7.5-3.36,7.5-7.5s-3.36-7.5-7.5-7.5Z"/>
  </g>
  <g>
    <path class="cls-1" d="M278.01,206.65c.42-4.79-1.05-9.45-4.14-13.13l-47.2-56.25c-6.38-7.6-17.75-8.59-25.34-2.22l-42.86,35.96c-3.68,3.09-5.94,7.43-6.36,12.21-.42,4.79,1.05,9.45,4.14,13.13l53.94,64.29c1.48,1.77,3.61,2.68,5.75,2.68,1.7,0,3.41-.58,4.82-1.75l50.89-42.7c3.68-3.09,5.94-7.43,6.36-12.21Zm-70.98-11.12c-1.41,1.18-3.12,1.75-4.82,1.75-2.14,0-4.27-.91-5.75-2.68-2.66-3.17-2.25-7.9,.92-10.57l10-8.39c3.17-2.66,7.9-2.25,10.57,.92,2.66,3.17,2.25,7.9-.92,10.57l-10,8.39Zm25.69,10.31l-10,8.39c-1.41,1.18-3.12,1.75-4.82,1.75-2.14,0-4.27-.91-5.75-2.68-2.66-3.17-2.25-7.9,.92-10.57l10-8.39c3.17-2.66,7.9-2.25,10.57,.92,2.66,3.17,2.25,7.9-.92,10.57Z"/>
    <path class="cls-1" d="M259.6,248.56l-29.2,24.5c-2.57,2.16-5.59,3.69-8.8,4.53l29.1,43.03c1.19,1.76,3.07,2.93,5.17,3.23,.35,.05,.69,.07,1.04,.07,1.75,0,3.46-.61,4.82-1.75l12.01-10.08c8.19-6.87,10.41-18.66,5.27-28.04l-19.42-35.49Z"/>
    <path class="cls-1" d="M139.55,214.27c-3.17,2.66-3.59,7.39-.92,10.57l33.71,40.18c1.28,1.52,3.11,2.48,5.09,2.65,.22,.02,.44,.03,.65,.03,1.76,0,3.46-.62,4.82-1.75l7.13-5.98-43.36-51.67-7.13,5.98Z"/>
    <path class="cls-1" d="M373.37,173.93L263.24,42.68c-2.66-3.17-7.39-3.59-10.57-.92-3.17,2.66-3.59,7.39-.92,10.57l5.89,7.03-28.79,60.63c3.5,1.94,6.67,4.51,9.31,7.66l47.2,56.25c3.6,4.29,6,9.31,7.07,14.66l63.76-21.74,5.69,6.78c1.48,1.77,3.61,2.68,5.75,2.68,1.7,0,3.41-.58,4.82-1.75,3.17-2.66,3.59-7.39,.92-10.57Z"/>
  </g>
</svg>