<?xml version="1.0" encoding="UTF-8"?>
<svg id="OBJECT" xmlns="http://www.w3.org/2000/svg" viewBox="0 0 512 512">
  <defs>
    <style>
      .cls-1 {
        fill: #FD4360;
      }

      .cls-2 {
        fill: #dadada;
      }
    </style>
  </defs>
  <g>
    <path class="cls-2" d="M206,462c-4.14,0-7.5,3.36-7.5,7.5v10c0,4.14,3.36,7.5,7.5,7.5s7.5-3.36,7.5-7.5v-10c0-4.14-3.36-7.5-7.5-7.5Z"/>
    <path class="cls-2" d="M239.33,462c-4.14,0-7.5,3.36-7.5,7.5v10c0,4.14,3.36,7.5,7.5,7.5s7.5-3.36,7.5-7.5v-10c0-4.14-3.36-7.5-7.5-7.5Z"/>
    <path class="cls-2" d="M272.67,462c-4.14,0-7.5,3.36-7.5,7.5v10c0,4.14,3.36,7.5,7.5,7.5s7.5-3.36,7.5-7.5v-10c0-4.14-3.36-7.5-7.5-7.5Z"/>
    <path class="cls-2" d="M306,462c-4.14,0-7.5,3.36-7.5,7.5v10c0,4.14,3.36,7.5,7.5,7.5s7.5-3.36,7.5-7.5v-10c0-4.14-3.36-7.5-7.5-7.5Z"/>
    <path class="cls-2" d="M431,467h-72.5v-7.5c0-12.41-10.09-22.5-22.5-22.5h-27.5v-49.5c0-4.14-3.36-7.5-7.5-7.5s-7.5,3.36-7.5,7.5v49.5h-15v-49.5c0-4.14-3.36-7.5-7.5-7.5s-7.5,3.36-7.5,7.5v49.5h-15v-49.5c0-4.14-3.36-7.5-7.5-7.5s-7.5,3.36-7.5,7.5v49.5h-15v-49.5c0-4.14-3.36-7.5-7.5-7.5s-7.5,3.36-7.5,7.5v49.5h-27.5c-12.41,0-22.5,10.09-22.5,22.5v7.5H81c-4.14,0-7.5,3.36-7.5,7.5s3.36,7.5,7.5,7.5h72.5v7.5c0,12.41,10.09,22.5,22.5,22.5h160c12.41,0,22.5-10.09,22.5-22.5v-7.5h72.5c4.14,0,7.5-3.36,7.5-7.5s-3.36-7.5-7.5-7.5Zm-87.5,22.5c0,4.14-3.36,7.5-7.5,7.5H176c-4.14,0-7.5-3.36-7.5-7.5v-30c0-4.14,3.36-7.5,7.5-7.5h160c4.14,0,7.5,3.36,7.5,7.5v30Z"/>
    <path class="cls-2" d="M461,467h-5c-4.14,0-7.5,3.36-7.5,7.5s3.36,7.5,7.5,7.5h5c4.14,0,7.5-3.36,7.5-7.5s-3.36-7.5-7.5-7.5Z"/>
    <path class="cls-2" d="M56,467h-5c-4.14,0-7.5,3.36-7.5,7.5s3.36,7.5,7.5,7.5h5c4.14,0,7.5-3.36,7.5-7.5s-3.36-7.5-7.5-7.5Z"/>
    <path class="cls-2" d="M482,182.5c0-15.16-12.34-27.5-27.5-27.5s-27.5,12.34-27.5,27.5,12.34,27.5,27.5,27.5,27.5-12.34,27.5-27.5Zm-40,0c0-6.89,5.61-12.5,12.5-12.5s12.5,5.61,12.5,12.5-5.61,12.5-12.5,12.5-12.5-5.61-12.5-12.5Z"/>
    <path class="cls-2" d="M30,182.5c0,15.16,12.34,27.5,27.5,27.5s27.5-12.34,27.5-27.5-12.34-27.5-27.5-27.5-27.5,12.34-27.5,27.5Zm40,0c0,6.89-5.61,12.5-12.5,12.5s-12.5-5.61-12.5-12.5,5.61-12.5,12.5-12.5,12.5,5.61,12.5,12.5Z"/>
    <path class="cls-2" d="M351,125c4.14,0,7.5-3.36,7.5-7.5s-3.36-7.5-7.5-7.5h-5c-4.14,0-7.5,3.36-7.5,7.5s3.36,7.5,7.5,7.5h5Z"/>
    <path class="cls-2" d="M166,125c4.14,0,7.5-3.36,7.5-7.5s-3.36-7.5-7.5-7.5h-5c-4.14,0-7.5,3.36-7.5,7.5s3.36,7.5,7.5,7.5h5Z"/>
    <path class="cls-2" d="M439.5,110h-11.41c-3.74-33.7-32.4-60-67.09-60-2.82,0-5.65,.18-8.45,.53C330.55,18.8,294.82,0,256,0s-74.55,18.8-96.55,50.53c-2.8-.35-5.62-.53-8.45-.53-34.68,0-63.34,26.3-67.09,60h-11.41C32.52,110,0,142.52,0,182.5s32.52,72.5,72.5,72.5h13.5c4.14,0,7.5-3.36,7.5-7.5s-3.36-7.5-7.5-7.5h-13.5c-31.71,0-57.5-25.79-57.5-57.5s25.79-57.5,57.5-57.5h63.5c4.14,0,7.5-3.36,7.5-7.5s-3.36-7.5-7.5-7.5h-36.96c3.65-25.41,25.55-45,51.96-45,3.54,0,7.08,.36,10.53,1.06,3.05,.62,6.17-.71,7.83-3.33,18.93-29.88,51.33-47.72,86.64-47.72s67.71,17.84,86.64,47.72c1.67,2.63,4.78,3.96,7.83,3.33,3.44-.7,6.98-1.06,10.53-1.06,26.4,0,48.3,19.59,51.96,45h-36.96c-4.14,0-7.5,3.36-7.5,7.5s3.36,7.5,7.5,7.5h63.5c31.71,0,57.5,25.79,57.5,57.5s-25.79,57.5-57.5,57.5h-13.5c-4.14,0-7.5,3.36-7.5,7.5s3.36,7.5,7.5,7.5h13.5c39.98,0,72.5-32.52,72.5-72.5s-32.52-72.5-72.5-72.5Z"/>
    <path class="cls-2" d="M231,120h50c12.41,0,22.5-10.09,22.5-22.5v-15c0-12.41-10.09-22.5-22.5-22.5h-50c-12.41,0-22.5,10.09-22.5,22.5v15c0,12.41,10.09,22.5,22.5,22.5Zm-7.5-37.5c0-4.14,3.36-7.5,7.5-7.5h50c4.14,0,7.5,3.36,7.5,7.5v15c0,4.14-3.36,7.5-7.5,7.5h-50c-4.14,0-7.5-3.36-7.5-7.5v-15Z"/>
  </g>
  <g>
    <path class="cls-1" d="M400.62,165.26l-86.44,93.09,85.87,92.47c2.2-3.95,3.46-8.5,3.46-13.33V177.5c0-4.39-1.04-8.55-2.88-12.24Z"/>
    <path class="cls-1" d="M256,290c5.29,0,10.38-2.22,13.98-6.1l120.5-129.77c-4.21-2.62-9.17-4.14-14.48-4.14H136c-5.31,0-10.27,1.52-14.48,4.14l120.5,129.77c3.6,3.88,8.69,6.1,13.98,6.1Z"/>
    <path class="cls-1" d="M111.38,165.26c-1.84,3.69-2.88,7.84-2.88,12.24v160c0,4.83,1.26,9.38,3.46,13.33l85.87-92.47-86.44-93.09Z"/>
    <path class="cls-1" d="M280.97,294.11c-6.43,6.92-15.53,10.89-24.97,10.89s-18.55-3.97-24.97-10.89l-22.96-24.73-85.51,92.09c3.98,2.24,8.57,3.53,13.45,3.53h240c4.88,0,9.47-1.29,13.45-3.53l-85.51-92.09-22.96,24.73Z"/>
  </g>
</svg>