<?xml version="1.0" encoding="UTF-8"?>
<svg id="OBJECT" xmlns="http://www.w3.org/2000/svg" viewBox="0 0 32 32">
  <defs>
    <style>
      .cls-1 {
        fill: #FD4360;
      }

      .cls-2 {
        fill: #dadada;
      }
    </style>
  </defs>
  <g>
    <path class="cls-2" d="m28.5,4H7.5c-1.38,0-2.5,1.12-2.5,2.5v15c0,1.38,1.12,2.5,2.5,2.5h21c1.38,0,2.5-1.12,2.5-2.5V6.5c0-1.38-1.12-2.5-2.5-2.5Zm.5,17.5c0,.28-.22.5-.5.5H7.5c-.28,0-.5-.22-.5-.5V6.5c0-.28.22-.5.5-.5h21c.28,0,.5.22.5.5v15Z"/>
    <path class="cls-2" d="m25.38,9.72l-7.38,5.87-7.38-5.87c-.43-.34-1.06-.27-1.41.16-.34.43-.27,1.06.16,1.4l3.29,2.62-2.38,2.97c-.35.43-.28,1.06.16,1.41.18.15.41.22.62.22.29,0,.58-.13.78-.38l2.38-2.98,3.14,2.5c.18.15.4.22.62.22s.44-.07.62-.22l3.14-2.5,2.38,2.98c.2.25.49.38.78.38.22,0,.44-.07.62-.22.43-.35.5-.97.16-1.41l-2.38-2.97,3.29-2.62c.43-.34.5-.97.16-1.4-.34-.43-.97-.5-1.41-.16Z"/>
  </g>
  <path class="cls-1" d="m3,23v-14.95c-1.14.23-2,1.24-2,2.45v15c0,1.38,1.12,2.5,2.5,2.5h21c1.21,0,2.22-.86,2.45-2H6c-1.66,0-3-1.34-3-3Z"/>
</svg>