<?xml version="1.0" encoding="UTF-8"?>
<svg id="OBJECT" xmlns="http://www.w3.org/2000/svg" viewBox="0 0 32 32">
  <defs>
    <style>
      .cls-1 {
        fill: #FD4360;
      }

      .cls-2 {
        fill: #dadada;
      }
    </style>
  </defs>
  <path class="cls-2" d="M30.97,12.89L27.98,1.74c-.08-.31-.3-.56-.6-.67-.29-.12-.63-.08-.9,.08l-9.46,5.94c-.61-.53-1.46-.76-2.29-.53l-.53,.14c-.65,.17-1.18,.59-1.52,1.17s-.42,1.25-.25,1.9l1.06,3.97c.17,.65,.59,1.18,1.16,1.52,.39,.22,.81,.34,1.25,.34,.22,0,.44-.03,.65-.09l.7-.19c.6-.16,1.1-.55,1.42-1.09,.09-.15,.15-.31,.2-.48l1.54,.06,.71,2.65c.33,1.24,1.46,2.06,2.68,2.06,.24,0,.48-.03,.72-.1l1.72-.46c1.48-.4,2.36-1.92,1.96-3.4l-.13-.47,1.9,.07s.03,0,.04,0c.3,0,.59-.14,.78-.38,.2-.25,.27-.58,.18-.88Zm-14.04,.33s-.09,.12-.2,.16l-.7,.19c-.18,.04-.31-.01-.38-.05-.07-.04-.19-.13-.23-.3l-1.06-3.97c-.05-.17,.01-.31,.05-.38,.04-.07,.13-.19,.3-.23l.53-.14s.09-.02,.13-.02c.22,0,.42,.15,.48,.37l1.11,4.13c.03,.12,0,.21-.03,.25Zm9.33,1.85c.11,.41-.14,.84-.55,.95l-1.72,.46c-.42,.11-.84-.14-.95-.55l-.55-2.06,3.48,.13,.29,1.07Zm-7.56-3.34l-.77-2.86,4.53-2.84,.91,3.38c.12,.45,.52,.74,.96,.74,.09,0,.17-.01,.26-.03,.53-.14,.85-.69,.71-1.22l-1.06-3.97,2.16-1.36,2.29,8.54-9.98-.37Z"/>
  <path class="cls-1" d="M17.5,17H3.5c-1.38,0-2.5,1.12-2.5,2.5v9c0,1.38,1.12,2.5,2.5,2.5h14c1.38,0,2.5-1.12,2.5-2.5v-9c0-1.38-1.12-2.5-2.5-2.5Zm-1.29,5.21l-3.59,3.59c-.58,.58-1.35,.88-2.12,.88s-1.54-.29-2.12-.88l-3.59-3.59c-.39-.39-.39-1.02,0-1.41s1.02-.39,1.41,0l3.59,3.59c.39,.39,1.02,.39,1.41,0l3.59-3.59c.39-.39,1.02-.39,1.41,0s.39,1.02,0,1.41Z"/>
</svg>