<?xml version="1.0" encoding="UTF-8"?>
<svg id="OBJECT" xmlns="http://www.w3.org/2000/svg" viewBox="0 0 32 32">
  <defs>
    <style>
      .cls-1 {
        fill: #FD4360;
      }

      .cls-1, .cls-2 {
        stroke-width: 0px;
      }

      .cls-2 {
        fill: #dadada;
      }
    </style>
  </defs>
  <path class="cls-2" d="m30,13h-4V2c0-.55-.45-1-1-1H7c-.55,0-1,.45-1,1v11H2c-.55,0-1,.45-1,1v16c0,.55.45,1,1,1h28c.55,0,1-.45,1-1V14c0-.55-.45-1-1-1Zm-6-10v16.28l-8,2.67-8-2.67V3h16Zm5,26H3v-14h3v3.61l-.68-.23c-.53-.18-1.09.11-1.27.63-.17.52.11,1.09.63,1.26l6.12,2.04-2.04,2.03c-.39.39-.39,1.02,0,1.41.2.2.45.29.71.29s.51-.1.71-.29l2.75-2.74,2.75.92c.1.03.21.05.32.05s.21-.02.32-.05l2.75-.92,2.75,2.74c.2.19.45.29.71.29s.51-.1.71-.29c.39-.39.39-1.02,0-1.41l-2.04-2.03,6.12-2.04c.52-.17.81-.74.63-1.26-.17-.52-.74-.81-1.27-.63l-.68.23v-3.61h3v14Z"/>
  <g>
    <path class="cls-1" d="m16,13c1.93,0,3.5-1.57,3.5-3.5v-1.5c0-1.65-1.35-3-3-3h-1c-1.65,0-3,1.35-3,3v1.5c0,1.93,1.57,3.5,3.5,3.5Z"/>
    <path class="cls-1" d="m21.02,11.74c-.86,1.92-2.78,3.26-5.02,3.26s-4.16-1.34-5.02-3.26c-.63.95-.98,2.07-.98,3.26v.5c0,1.38,1.12,2.5,2.5,2.5h7c1.38,0,2.5-1.12,2.5-2.5v-.5c0-1.18-.36-2.31-.98-3.26Z"/>
  </g>
</svg>