<?xml version="1.0" encoding="UTF-8"?>
<svg id="OBJECT" xmlns="http://www.w3.org/2000/svg" viewBox="0 0 32 32">
  <defs>
    <style>
      .cls-1 {
        fill: #FD4360;
      }

      .cls-1, .cls-2 {
        stroke-width: 0px;
      }

      .cls-2 {
        fill: #dadada;
      }
    </style>
  </defs>
  <g>
    <path class="cls-2" d="m24.5,1H3.5c-1.38,0-2.5,1.12-2.5,2.5v17c0,1.38,1.12,2.5,2.5,2.5h21c1.38,0,2.5-1.12,2.5-2.5V3.5c0-1.38-1.12-2.5-2.5-2.5Zm.5,19.5c0,.28-.22.5-.5.5H3.5c-.28,0-.5-.22-.5-.5V3.5c0-.28.22-.5.5-.5h21c.28,0,.5.22.5.5v17Z"/>
    <path class="cls-2" d="m22.71,5.79c-.39-.39-1.02-.39-1.41,0l-6.59,6.59c-.39.39-1.02.39-1.41,0l-6.59-6.59c-.39-.39-1.02-.39-1.41,0s-.39,1.02,0,1.41l4.79,4.79-4.79,4.79c-.39.39-.39,1.02,0,1.41.2.2.45.29.71.29s.51-.1.71-.29l4.79-4.79.38.38c.58.58,1.35.88,2.12.88s1.54-.29,2.12-.88l.38-.38,4.79,4.79c.2.2.45.29.71.29s.51-.1.71-.29c.39-.39.39-1.02,0-1.41l-4.79-4.79,4.79-4.79c.39-.39.39-1.02,0-1.41Z"/>
  </g>
  <path class="cls-1" d="m29,9.05v11.45c0,2.48-2.02,4.5-4.5,4.5H5v3.5c0,1.38,1.12,2.5,2.5,2.5h21c1.38,0,2.5-1.12,2.5-2.5V11.5c0-1.21-.86-2.22-2-2.45ZM11,29h-1c-.55,0-1-.45-1-1s.45-1,1-1h1c.55,0,1,.45,1,1s-.45,1-1,1Zm5,0h-1c-.55,0-1-.45-1-1s.45-1,1-1h1c.55,0,1,.45,1,1s-.45,1-1,1Zm5,0h-1c-.55,0-1-.45-1-1s.45-1,1-1h1c.55,0,1,.45,1,1s-.45,1-1,1Z"/>
</svg>