<?xml version="1.0" encoding="UTF-8"?>
<svg id="OBJECT" xmlns="http://www.w3.org/2000/svg" viewBox="0 0 32 32">
  <defs>
    <style>
      .cls-1 {
        fill: #FD4360;
      }

      .cls-2 {
        fill: #dadada;
      }
    </style>
  </defs>
  <path class="cls-2" d="M24,4H4c-1.65,0-3,1.35-3,3v14c0,1.65,1.35,3,3,3H24c1.65,0,3-1.35,3-3V7c0-1.65-1.35-3-3-3Zm-4.79,10l5.79-6.13v12.26l-5.79-6.13Zm4.79-8s0,0,.01,0L14.96,15.59c-.5,.53-1.42,.53-1.92,0L3.99,6s0,0,.01,0H24ZM3,20.13V7.87l5.79,6.13-5.79,6.13Zm1,1.87s0,0-.01,0l6.18-6.54,1.42,1.5c.62,.66,1.5,1.04,2.41,1.04s1.79-.38,2.41-1.04l1.42-1.5,6.18,6.54s0,0-.01,0H4Z"/>
  <path class="cls-1" d="M29,8v14c0,2.21-1.79,4-4,4H5c0,1.1,.9,2,2,2H29c1.1,0,2-.9,2-2V10c0-1.1-.9-2-2-2Z"/>
</svg>