<?xml version="1.0" encoding="UTF-8"?>
<svg id="OBJECT" xmlns="http://www.w3.org/2000/svg" viewBox="0 0 32 32">
  <defs>
    <style>
      .cls-1 {
        fill: #FD4360;
      }

      .cls-1, .cls-2 {
        stroke-width: 0px;
      }

      .cls-2 {
        fill: #dadada;
      }
    </style>
  </defs>
  <path class="cls-1" d="m24,17c-3.86,0-7,3.14-7,7s3.14,7,7,7,7-3.14,7-7-3.14-7-7-7Zm3.22,9.63c-.2.24-.49.37-.77.37-.22,0-.45-.07-.63-.23l-2.45-2c-.23-.19-.37-.47-.37-.77v-3.45c0-.55.45-1,1-1s1,.45,1,1v2.97l2.08,1.7c.43.35.49.98.14,1.41Z"/>
  <g>
    <path class="cls-2" d="m24.29,1H3.71c-1.5,0-2.71,1.22-2.71,2.71v3.43c0,.55.45,1,1,1h.71v15.14c0,1.5,1.22,2.71,2.71,2.71h8.87c.55,0,1-.45,1-1s-.45-1-1-1H5.43c-.39,0-.71-.32-.71-.71v-15.14h4.86v2.12c0,.38.21.73.55.89.34.17.74.13,1.05-.09l2.83-2.12,2.83,2.12c.18.13.39.2.6.2.15,0,.31-.03.45-.11.34-.17.55-.52.55-.89v-2.12h4.86v5.98c0,.55.45,1,1,1s1-.45,1-1v-5.98h.71c.55,0,1-.45,1-1v-3.43c0-1.5-1.22-2.71-2.71-2.71ZM3,6.14v-2.43c0-.39.32-.71.71-.71h5.86v3.14H3Zm13.43,2.12l-1.83-1.37c-.18-.13-.39-.2-.6-.2s-.42.07-.6.2l-1.83,1.37V3h4.86v5.26Zm2-5.26h5.86c.39,0,.71.32.71.71v2.43h-6.57v-3.14Z"/>
    <path class="cls-2" d="m11.47,20.16h-3.92c-.55,0-1,.45-1,1s.45,1,1,1h3.92c.55,0,1-.45,1-1s-.45-1-1-1Z"/>
    <path class="cls-2" d="m11.47,16.16h-3.92c-.55,0-1,.45-1,1s.45,1,1,1h3.92c.55,0,1-.45,1-1s-.45-1-1-1Z"/>
  </g>
</svg>