<?xml version="1.0" encoding="UTF-8"?>
<svg id="OBJECT" xmlns="http://www.w3.org/2000/svg" viewBox="0 0 512 512">
  <defs>
    <style>
      .cls-1 {
        fill: #FD4360;
      }

      .cls-2 {
        fill: #dadada;
      }
    </style>
  </defs>
  <g>
    <path class="cls-2" d="M361,417c-4.14,0-7.5,3.36-7.5,7.5v5c0,4.14,3.36,7.5,7.5,7.5s7.5-3.36,7.5-7.5v-5c0-4.14-3.36-7.5-7.5-7.5Z"/>
    <path class="cls-2" d="M141,437c4.14,0,7.5-3.36,7.5-7.5v-5c0-4.14-3.36-7.5-7.5-7.5s-7.5,3.36-7.5,7.5v5c0,4.14,3.36,7.5,7.5,7.5Z"/>
    <path class="cls-2" d="M394.44,307.95l-90.94-33.68v-22.06c0-4.14-3.36-7.5-7.5-7.5s-7.5,3.36-7.5,7.5v23.74l-32.5,26.82-32.5-26.82v-23.74c0-4.14-3.36-7.5-7.5-7.5s-7.5,3.36-7.5,7.5v22.06l-90.94,33.68c-26.35,9.76-44.06,35.2-44.06,63.3v133.25c0,4.14,3.36,7.5,7.5,7.5H431c4.14,0,7.5-3.36,7.5-7.5v-133.25c0-28.1-17.71-53.54-44.06-63.3Zm-110.76,175.12l-7.24,13.93h-40.89l-7.24-13.93c-5.99-11.53-7.49-24.8-4.23-37.37l22.42-71.41h18.99l22.42,71.41c3.26,12.58,1.76,25.84-4.23,37.37Zm-18.09-123.79h-19.19l-9.51-28.53,19.1-9.82,19.1,9.82-9.51,28.53Zm-56.75-46.02l9.92-21.76,23.68,19.54-23.35,12.01c-4.41,2.26-7.7-.38-8.61-1.24-.91-.86-3.7-4.03-1.65-8.54Zm60.71-2.22l23.68-19.54,9.92,21.76c2.05,4.5-.74,7.67-1.65,8.54-.91,.86-4.21,3.51-8.61,1.24l-23.35-12.01Zm-181.06,60.21c0-21.86,13.77-41.64,34.27-49.23l78.93-29.23-6.5,14.25c-4.04,8.85-2.1,18.9,4.94,25.62,4.33,4.13,9.84,6.28,15.45,6.28,2.6,0,5.22-.46,7.76-1.4l9.77,29.32-23.4,74.53c-.04,.11-.07,.23-.1,.34-4.26,16.23-2.35,33.37,5.39,48.27l3.64,7.01h-70.15v-42.5c0-4.14-3.36-7.5-7.5-7.5s-7.5,3.36-7.5,7.5v42.5h-45v-125.75Zm335,125.75h-55v-42.5c0-4.14-3.36-7.5-7.5-7.5s-7.5,3.36-7.5,7.5v42.5h-60.15l3.64-7.01c7.74-14.89,9.65-32.03,5.39-48.27-.03-.11-.06-.23-.1-.34l-23.4-74.53,9.77-29.32c2.54,.94,5.16,1.4,7.76,1.4,5.61,0,11.12-2.14,15.45-6.28,7.04-6.71,8.97-16.77,4.94-25.62l-6.5-14.25,78.93,29.23c20.5,7.59,34.27,27.38,34.27,49.23v125.75Z"/>
  </g>
  <g>
    <path class="cls-1" d="M308.53,123.19l-.02-.17c-.63-6.69-4.37-12.37-10.27-15.57-6-3.25-13.25-3.27-19.39-.05-6.03,3.17-12.16,5.06-18.2,5.64-18.87,1.79-39.57-5.3-53.6-11.56-1.11-.49-2-.1-2.43,.18-.42,.27-1.13,.91-1.13,2.08v18.76c0,4.14-3.36,7.5-7.5,7.5h-7.5v47.5c0,37.22,30.28,67.5,67.5,67.5s67.5-30.28,67.5-67.5v-47.5h-7.5c-3.88,0-7.11-2.95-7.47-6.81Zm-24.73,80.3c-7.67,7.67-17.73,11.5-27.8,11.5s-20.14-3.83-27.8-11.5c-2.93-2.93-2.93-7.68,0-10.61,2.93-2.93,7.68-2.93,10.61,0,9.48,9.48,24.91,9.48,34.39,0,2.93-2.93,7.68-2.93,10.61,0s2.93,7.68,0,10.61Z"/>
    <path class="cls-1" d="M188.5,104.17c0-5.45,2.32-10.73,6.59-14.11,5.2-4.12,12.11-4.95,18.08-2.28,12.4,5.53,30.45,11.81,46.08,10.33,4.09-.39,8.34-1.73,12.64-3.98,10.57-5.55,23.1-5.49,33.51,.15,8.21,4.45,14.19,11.94,16.78,20.74h23.82V53.19c0-12.58-7.99-23.8-19.89-27.9-4.99-1.72-10.16-2.05-15.07-1.12-6.49,1.22-11.1,7.05-11.1,13.66h0c0,4.11-3.17,7.69-7.27,7.81-4.25,.13-7.73-3.28-7.73-7.5v-10.34c0-3.89-1.59-7.65-4.49-10.25C267.88,6.22,251.34-.22,233.71,0c-37.71,.47-67.71,31.92-67.71,69.63v45.36h22.5v-10.83Zm35.1-71.3c2.88-2.95,7.61-3.02,10.58-.15,.51,.49,10.81,10.01,25.19,6.88,4.05-.88,8.04,1.69,8.92,5.73,.88,4.05-1.69,8.04-5.73,8.92-3.14,.68-6.15,.98-9,.98-17.58,0-29.27-11.21-29.84-11.76-2.96-2.9-3.02-7.64-.12-10.61Zm-25.88,16.42c2.89-2.96,7.62-3.02,10.59-.14,.93,.9,22.55,21.29,53.25,14.6,4.04-.88,8.04,1.69,8.92,5.73,.88,4.05-1.69,8.04-5.73,8.92-5.43,1.18-10.63,1.69-15.56,1.69-30.29,0-50.39-19.26-51.36-20.21-2.96-2.9-3.02-7.64-.12-10.61Z"/>
    <path class="cls-1" d="M343.5,130h-5v45h5c8.28,0,15-6.72,15-15v-15c0-8.28-6.72-15-15-15Z"/>
    <path class="cls-1" d="M153.5,145v15c0,8.28,6.72,15,15,15h5v-45h-5c-8.28,0-15,6.72-15,15Z"/>
  </g>
</svg>