<?xml version="1.0" encoding="UTF-8"?>
<svg id="OBJECT" xmlns="http://www.w3.org/2000/svg" viewBox="0 0 32 32">
  <defs>
    <style>
      .cls-1 {
        fill: #FD4360;
      }

      .cls-1, .cls-2 {
        stroke-width: 0px;
      }

      .cls-2 {
        fill: #dadada;
      }
    </style>
  </defs>
  <g>
    <path class="cls-2" d="m22.07,25.59l-3.88-3.88c.51-1.13.81-2.38.81-3.71,0-4.96-4.04-9-9-9S1,13.04,1,18s4.04,9,9,9c1.32,0,2.57-.29,3.71-.81l3.88,3.88c.62.62,1.43.93,2.24.93s1.62-.31,2.24-.93c1.24-1.24,1.24-3.25,0-4.49ZM3,18c0-3.86,3.14-7,7-7s7,3.14,7,7-3.14,7-7,7-7-3.14-7-7Zm17.66,10.66c-.46.45-1.2.46-1.66,0l-3.53-3.53c.62-.48,1.18-1.04,1.66-1.66l3.53,3.53c.46.46.46,1.2,0,1.66Z"/>
    <path class="cls-2" d="m10.71,12.79c-.39-.39-1.02-.39-1.41,0l-3,3c-.39.39-.39,1.02,0,1.41s1.02.39,1.41,0l1.29-1.29v6.59c0,.55.45,1,1,1s1-.45,1-1v-6.59l1.29,1.29c.2.2.45.29.71.29s.51-.1.71-.29c.39-.39.39-1.02,0-1.41l-3-3Z"/>
  </g>
  <g>
    <path class="cls-1" d="m30.02,7.73c-.86,1.92-2.78,3.27-5.02,3.27s-4.17-1.35-5.02-3.27c-.62.94-.98,2.06-.98,3.27v1c0,1.65,1.35,3,3,3h6c1.65,0,3-1.35,3-3v-1c0-1.21-.36-2.33-.98-3.27Z"/>
    <path class="cls-1" d="m25,9c1.93,0,3.5-1.57,3.5-3.5v-1.5c0-1.65-1.35-3-3-3h-1c-1.65,0-3,1.35-3,3v1.5c0,1.93,1.57,3.5,3.5,3.5Z"/>
  </g>
</svg>