<?xml version="1.0" encoding="UTF-8"?>
<svg id="OBJECT" xmlns="http://www.w3.org/2000/svg" viewBox="0 0 512 512">
  <defs>
    <style>
      .cls-1 {
        fill: #FD4360;
      }

      .cls-2 {
        fill: #dadada;
      }
    </style>
  </defs>
  <g>
    <path class="cls-2" d="M256,235c64.79,0,117.5-52.71,117.5-117.5S320.79,0,256,0s-117.5,52.71-117.5,117.5,52.71,117.5,117.5,117.5Zm0-220c56.52,0,102.5,45.98,102.5,102.5s-45.98,102.5-102.5,102.5-102.5-45.98-102.5-102.5S199.48,15,256,15Z"/>
    <path class="cls-2" d="M489.5,260H22.5c-12.41,0-22.5,10.09-22.5,22.5v207c0,12.41,10.09,22.5,22.5,22.5H489.5c12.41,0,22.5-10.09,22.5-22.5v-207c0-12.41-10.09-22.5-22.5-22.5ZM15,489.5v-207c0-4.14,3.36-7.5,7.5-7.5H200v222H22.5c-4.14,0-7.5-3.36-7.5-7.5Zm482,0c0,4.14-3.36,7.5-7.5,7.5H215v-222H489.5c4.14,0,7.5,3.36,7.5,7.5v207Z"/>
    <path class="cls-2" d="M37.5,323.5H115v10c0,4.14,3.36,7.5,7.5,7.5h30c4.14,0,7.5-3.36,7.5-7.5v-10h17.5c4.14,0,7.5-3.36,7.5-7.5s-3.36-7.5-7.5-7.5h-17.5v-10c0-4.14-3.36-7.5-7.5-7.5h-30c-4.14,0-7.5,3.36-7.5,7.5v10H37.5c-4.14,0-7.5,3.36-7.5,7.5s3.36,7.5,7.5,7.5Zm92.5-17.5h15v20h-15v-20Z"/>
    <path class="cls-2" d="M177.5,378.5H100v-10c0-4.14-3.36-7.5-7.5-7.5h-30c-4.14,0-7.5,3.36-7.5,7.5v10h-17.5c-4.14,0-7.5,3.36-7.5,7.5s3.36,7.5,7.5,7.5h17.5v10c0,4.14,3.36,7.5,7.5,7.5h30c4.14,0,7.5-3.36,7.5-7.5v-10h77.5c4.14,0,7.5-3.36,7.5-7.5s-3.36-7.5-7.5-7.5Zm-92.5,17.5h-15v-20h15v20Z"/>
    <path class="cls-2" d="M177.5,448.5h-17.5v-10c0-4.14-3.36-7.5-7.5-7.5h-30c-4.14,0-7.5,3.36-7.5,7.5v10H37.5c-4.14,0-7.5,3.36-7.5,7.5s3.36,7.5,7.5,7.5H115v10c0,4.14,3.36,7.5,7.5,7.5h30c4.14,0,7.5-3.36,7.5-7.5v-10h17.5c4.14,0,7.5-3.36,7.5-7.5s-3.36-7.5-7.5-7.5Zm-32.5,17.5h-15v-20h15v20Z"/>
    <path class="cls-2" d="M267.5,358.5h-20c-9.65,0-17.5,7.85-17.5,17.5v20c0,9.65,7.85,17.5,17.5,17.5h20c9.65,0,17.5-7.85,17.5-17.5v-20c0-9.65-7.85-17.5-17.5-17.5Zm2.5,37.5c0,1.38-1.12,2.5-2.5,2.5h-20c-1.38,0-2.5-1.12-2.5-2.5v-20c0-1.38,1.12-2.5,2.5-2.5h20c1.38,0,2.5,1.12,2.5,2.5v20Z"/>
    <path class="cls-2" d="M474.5,363.5h-127c-4.14,0-7.5,3.36-7.5,7.5s3.36,7.5,7.5,7.5h127c4.14,0,7.5-3.36,7.5-7.5s-3.36-7.5-7.5-7.5Z"/>
    <path class="cls-2" d="M307.5,378.5h10c4.14,0,7.5-3.36,7.5-7.5s-3.36-7.5-7.5-7.5h-10c-4.14,0-7.5,3.36-7.5,7.5s3.36,7.5,7.5,7.5Z"/>
    <path class="cls-2" d="M474.5,393.5h-167c-4.14,0-7.5,3.36-7.5,7.5s3.36,7.5,7.5,7.5h167c4.14,0,7.5-3.36,7.5-7.5s-3.36-7.5-7.5-7.5Z"/>
    <path class="cls-2" d="M267.5,290h-20c-9.65,0-17.5,7.85-17.5,17.5v20c0,9.65,7.85,17.5,17.5,17.5h20c9.65,0,17.5-7.85,17.5-17.5v-20c0-9.65-7.85-17.5-17.5-17.5Zm2.5,37.5c0,1.38-1.12,2.5-2.5,2.5h-20c-1.38,0-2.5-1.12-2.5-2.5v-20c0-1.38,1.12-2.5,2.5-2.5h20c1.38,0,2.5,1.12,2.5,2.5v20Z"/>
    <path class="cls-2" d="M474.5,295h-127c-4.14,0-7.5,3.36-7.5,7.5s3.36,7.5,7.5,7.5h127c4.14,0,7.5-3.36,7.5-7.5s-3.36-7.5-7.5-7.5Z"/>
    <path class="cls-2" d="M307.5,310h10c4.14,0,7.5-3.36,7.5-7.5s-3.36-7.5-7.5-7.5h-10c-4.14,0-7.5,3.36-7.5,7.5s3.36,7.5,7.5,7.5Z"/>
    <path class="cls-2" d="M474.5,325h-167c-4.14,0-7.5,3.36-7.5,7.5s3.36,7.5,7.5,7.5h167c4.14,0,7.5-3.36,7.5-7.5s-3.36-7.5-7.5-7.5Z"/>
    <path class="cls-2" d="M267.5,427h-20c-9.65,0-17.5,7.85-17.5,17.5v20c0,9.65,7.85,17.5,17.5,17.5h20c9.65,0,17.5-7.85,17.5-17.5v-20c0-9.65-7.85-17.5-17.5-17.5Zm2.5,37.5c0,1.38-1.12,2.5-2.5,2.5h-20c-1.38,0-2.5-1.12-2.5-2.5v-20c0-1.38,1.12-2.5,2.5-2.5h20c1.38,0,2.5,1.12,2.5,2.5v20Z"/>
    <path class="cls-2" d="M474.5,432h-127c-4.14,0-7.5,3.36-7.5,7.5s3.36,7.5,7.5,7.5h127c4.14,0,7.5-3.36,7.5-7.5s-3.36-7.5-7.5-7.5Z"/>
    <path class="cls-2" d="M307.5,447h10c4.14,0,7.5-3.36,7.5-7.5s-3.36-7.5-7.5-7.5h-10c-4.14,0-7.5,3.36-7.5,7.5s3.36,7.5,7.5,7.5Z"/>
    <path class="cls-2" d="M474.5,462h-167c-4.14,0-7.5,3.36-7.5,7.5s3.36,7.5,7.5,7.5h167c4.14,0,7.5-3.36,7.5-7.5s-3.36-7.5-7.5-7.5Z"/>
  </g>
  <g>
    <path class="cls-1" d="M431,110h-30c-4.14,0-7.5,3.36-7.5,7.5s3.36,7.5,7.5,7.5h30c4.14,0,7.5-3.36,7.5-7.5s-3.36-7.5-7.5-7.5Z"/>
    <path class="cls-1" d="M391.01,71.8c1.4,0,2.81-.39,4.07-1.2l25.98-16.8c3.48-2.25,4.47-6.89,2.23-10.37-2.25-3.48-6.89-4.48-10.37-2.23l-25.98,16.8c-3.48,2.25-4.47,6.89-2.23,10.37,1.44,2.22,3.84,3.43,6.3,3.43Z"/>
    <path class="cls-1" d="M421.05,181.2l-25.98-16.8c-3.48-2.25-8.12-1.25-10.37,2.23-2.25,3.48-1.25,8.12,2.23,10.37l25.98,16.8c1.26,.81,2.67,1.2,4.07,1.2,2.46,0,4.87-1.21,6.3-3.43,2.25-3.48,1.25-8.12-2.23-10.37Z"/>
    <path class="cls-1" d="M118.5,117.5c0-4.14-3.36-7.5-7.5-7.5h-30c-4.14,0-7.5,3.36-7.5,7.5s3.36,7.5,7.5,7.5h30c4.14,0,7.5-3.36,7.5-7.5Z"/>
    <path class="cls-1" d="M125.07,58l-25.98-16.8c-3.48-2.25-8.12-1.25-10.37,2.23-2.25,3.48-1.25,8.12,2.23,10.37l25.98,16.8c1.26,.81,2.67,1.2,4.07,1.2,2.46,0,4.87-1.21,6.3-3.43,2.25-3.48,1.25-8.12-2.23-10.37Z"/>
    <path class="cls-1" d="M116.93,164.4l-25.98,16.8c-3.48,2.25-4.47,6.89-2.23,10.37,1.44,2.22,3.84,3.43,6.3,3.43,1.4,0,2.81-.39,4.07-1.2l25.98-16.8c3.48-2.25,4.47-6.89,2.23-10.37-2.25-3.48-6.89-4.48-10.37-2.23Z"/>
    <circle class="cls-1" cx="256" cy="97.5" r="22.5"/>
    <path class="cls-1" d="M256,30c-48.25,0-87.5,39.25-87.5,87.5,0,14.39,3.5,27.99,9.68,39.98,9.51-18.5,25.45-33.33,45.35-41.26-3.19-5.51-5.03-11.91-5.03-18.72,0-20.68,16.82-37.5,37.5-37.5s37.5,16.82,37.5,37.5c0,6.82-1.84,13.21-5.03,18.72,19.9,7.92,35.84,22.76,45.35,41.26,6.18-11.99,9.68-25.58,9.68-39.98,0-48.25-39.25-87.5-87.5-87.5Z"/>
    <path class="cls-1" d="M277.45,128.23c-6.08,4.26-13.48,6.77-21.45,6.77s-15.36-2.51-21.45-6.77c-21.96,6.77-38.93,23.38-46.59,44.22,16.05,19.84,40.59,32.55,68.04,32.55s51.99-12.71,68.04-32.55c-7.66-20.83-24.64-37.44-46.59-44.22Z"/>
  </g>
</svg>