<?xml version="1.0" encoding="UTF-8"?>
<svg id="OBJECT" xmlns="http://www.w3.org/2000/svg" viewBox="0 0 32 32">
  <defs>
    <style>
      .cls-1 {
        fill: #FD4360;
      }

      .cls-2 {
        fill: #dadada;
      }
    </style>
  </defs>
  <g>
    <path class="cls-2" d="M30.93,15.64c-2.47-6.46-8.34-10.64-14.93-10.64S3.54,9.18,1.07,15.64c-.09,.23-.09,.48,0,.71,2.47,6.46,8.34,10.64,14.93,10.64s12.46-4.18,14.93-10.64c.09-.23,.09-.48,0-.71Zm-14.93,9.36c-5.64,0-10.67-3.52-12.92-9,2.25-5.48,7.28-9,12.92-9s10.67,3.52,12.92,9c-2.25,5.48-7.28,9-12.92,9Z"/>
    <path class="cls-2" d="M16,3.83c.55,0,1-.45,1-1v-.83c0-.55-.45-1-1-1s-1,.45-1,1v.83c0,.55,.45,1,1,1Z"/>
    <path class="cls-2" d="M7.84,4.84c.15,.41,.53,.66,.94,.66,.11,0,.23-.02,.34-.06,.52-.19,.79-.76,.61-1.28l-.28-.78c-.19-.52-.76-.79-1.28-.61s-.79,.76-.61,1.28l.28,.78Z"/>
    <path class="cls-2" d="M22.88,5.44c.11,.04,.22,.06,.34,.06,.41,0,.8-.25,.94-.66l.28-.78c.19-.52-.09-1.09-.61-1.28-.52-.19-1.09,.08-1.28,.61l-.28,.78c-.19,.52,.09,1.09,.61,1.28Z"/>
    <path class="cls-2" d="M16,28.17c-.55,0-1,.45-1,1v.83c0,.55,.45,1,1,1s1-.45,1-1v-.83c0-.55-.45-1-1-1Z"/>
    <path class="cls-2" d="M9.12,26.56c-.52-.19-1.09,.08-1.28,.61l-.28,.78c-.19,.52,.09,1.09,.61,1.28,.11,.04,.22,.06,.34,.06,.41,0,.8-.25,.94-.66l.28-.78c.19-.52-.09-1.09-.61-1.28Z"/>
    <path class="cls-2" d="M24.16,27.16c-.19-.52-.76-.79-1.28-.61-.52,.19-.79,.76-.61,1.28l.28,.78c.15,.41,.53,.66,.94,.66,.11,0,.23-.02,.34-.06,.52-.19,.79-.76,.61-1.28l-.28-.78Z"/>
  </g>
  <g>
    <path class="cls-1" d="M20.46,15.51c-.82,1.65-2.5,2.79-4.46,2.79s-3.65-1.15-4.46-2.79c-.95,1.06-1.54,2.46-1.54,3.99,0,1.65,1.35,3,3,3h6c1.65,0,3-1.35,3-3,0-1.53-.58-2.93-1.54-3.99Z"/>
    <path class="cls-1" d="M16,16.3c1.65,0,3-1.35,3-3v-1.2c0-1.43-1.17-2.6-2.6-2.6h-.8c-1.43,0-2.6,1.17-2.6,2.6v1.2c0,1.65,1.35,3,3,3Z"/>
  </g>
</svg>