<?xml version="1.0" encoding="UTF-8"?>
<svg id="OBJECT" xmlns="http://www.w3.org/2000/svg" viewBox="0 0 32 32">
  <defs>
    <style>
      .cls-1 {
        fill: #FD4360;
      }

      .cls-1, .cls-2 {
        stroke-width: 0px;
      }

      .cls-2 {
        fill: #dadada;
      }
    </style>
  </defs>
  <path class="cls-2" d="m28.5,5h-1v-1.5c0-1.38-1.12-2.5-2.5-2.5h-4c-1.38,0-2.5,1.12-2.5,2.5v1.5h-1c-1.38,0-2.5,1.12-2.5,2.5v3.5c0,.45.3.84.73.96l.27.08v4.46c0,1.38,1.12,2.5,2.5,2.5h9c1.38,0,2.5-1.12,2.5-2.5v-4.46l.27-.08c.43-.12.73-.52.73-.96v-3.5c0-1.38-1.12-2.5-2.5-2.5Zm-8-1.5c0-.28.22-.5.5-.5h4c.28,0,.5.22.5.5v1.5h-5v-1.5Zm-3.5,4c0-.28.22-.5.5-.5h11c.28,0,.5.22.5.5v2.75l-6,1.71-6-1.71v-2.75Zm11,9c0,.28-.22.5-.5.5h-9c-.28,0-.5-.22-.5-.5v-3.89l1,.29v1.1c0,.55.45,1,1,1s1-.45,1-1v-.53l1.73.49c.09.03.18.04.27.04s.19-.01.27-.04l1.73-.49v.53c0,.55.45,1,1,1s1-.45,1-1v-1.1l1-.29v3.89Z"/>
  <g>
    <path class="cls-1" d="m14.28,21.32c-.94,2.27-3.17,3.88-5.78,3.88s-4.84-1.6-5.78-3.88c-1.07,1.3-1.72,2.96-1.72,4.78v1.95c0,1.63,1.32,2.95,2.95,2.95h9.1c1.63,0,2.95-1.32,2.95-2.95v-1.95c0-1.81-.65-3.48-1.72-4.78Z"/>
    <path class="cls-1" d="m8.5,23.2c2.34,0,4.25-1.91,4.25-4.25v-1.95c0-1.98-1.62-3.6-3.6-3.6h-1.3c-1.98,0-3.6,1.62-3.6,3.6v1.95c0,2.34,1.91,4.25,4.25,4.25Z"/>
  </g>
</svg>