<?xml version="1.0" encoding="UTF-8"?>
<svg id="OBJECT" xmlns="http://www.w3.org/2000/svg" viewBox="0 0 32 32">
  <defs>
    <style>
      .cls-1 {
        fill: #FD4360;
      }

      .cls-1, .cls-2 {
        stroke-width: 0px;
      }

      .cls-2 {
        fill: #dadada;
      }
    </style>
  </defs>
  <g>
    <path class="cls-2" d="m6.5,13.5c-.55,0-1,.45-1,1v5c0,.55.45,1,1,1h9c.55,0,1-.45,1-1v-5c0-.55-.45-1-1-1H6.5Zm1,2h2.5v3h-2.5v-3Zm7,3h-2.5v-3h2.5v3Z"/>
    <path class="cls-2" d="m30,29h-15v-4.5c.55,0,1-.45,1-1s-.45-1-1-1H7c-.55,0-1,.45-1,1s.45,1,1,1v4.5h-3V12h13c.55,0,1-.45,1-1s-.45-1-1-1H3c-.55,0-1,.45-1,1v18c-.55,0-1,.45-1,1s.45,1,1,1h28c.55,0,1-.45,1-1s-.45-1-1-1Zm-21-4.5h4v4.5h-4v-4.5Z"/>
  </g>
  <path class="cls-1" d="m30,1h-10v26h10V1Zm-5.75,20c0,.55-.45,1-1,1s-1-.45-1-1v-1c0-.55.45-1,1-1s1,.45,1,1v1Zm0-5c0,.55-.45,1-1,1s-1-.45-1-1v-1c0-.55.45-1,1-1s1,.45,1,1v1Zm0-5c0,.55-.45,1-1,1s-1-.45-1-1v-1c0-.55.45-1,1-1s1,.45,1,1v1Zm0-5c0,.55-.45,1-1,1s-1-.45-1-1v-1c0-.55.45-1,1-1s1,.45,1,1v1Zm3.5,15c0,.55-.45,1-1,1s-1-.45-1-1v-1c0-.55.45-1,1-1s1,.45,1,1v1Zm0-5c0,.55-.45,1-1,1s-1-.45-1-1v-1c0-.55.45-1,1-1s1,.45,1,1v1Zm0-5c0,.55-.45,1-1,1s-1-.45-1-1v-1c0-.55.45-1,1-1s1,.45,1,1v1Zm0-5c0,.55-.45,1-1,1s-1-.45-1-1v-1c0-.55.45-1,1-1s1,.45,1,1v1Z"/>
</svg>