<?xml version="1.0" encoding="UTF-8"?>
<svg id="OBJECT" xmlns="http://www.w3.org/2000/svg" viewBox="0 0 32 32">
  <defs>
    <style>
      .cls-1 {
        fill: #FD4360;
      }

      .cls-1, .cls-2 {
        stroke-width: 0px;
      }

      .cls-2 {
        fill: #dadada;
      }
    </style>
  </defs>
  <path class="cls-2" d="m26.95,24.46c-.18-.97-.82-1.79-1.72-2.2l-2.89-1.3c-1.13-.51-2.43-.28-3.32.58l-.96.92-.88-.61c-2.76-1.91-5.13-4.28-7.04-7.04l-.61-.88.92-.96c.86-.89,1.08-2.19.58-3.32l-1.3-2.88c-.41-.9-1.23-1.54-2.2-1.72-.97-.18-1.97.13-2.66.83l-3,3c-.66.66-.98,1.61-.85,2.53.67,4.84,2.93,9.4,6.38,12.85l.33.33c3.45,3.45,8.01,5.72,12.85,6.38.13.02.27.03.4.03.79,0,1.57-.32,2.13-.88l3-3c.7-.7,1.01-1.69.83-2.66Zm-2.24,1.25l-3,3c-.22.22-.54.33-.85.29-4.41-.61-8.56-2.67-11.71-5.82l-.33-.33c-3.14-3.14-5.21-7.3-5.82-11.71-.04-.31.06-.63.28-.85l3-3c.24-.24.56-.34.89-.28.33.06.6.27.73.57l1.3,2.89c.17.38.09.81-.19,1.11l-.64.67-.17-.25c-.31-.46-.94-.57-1.39-.25-.45.31-.57.94-.25,1.39l1.94,2.8c2.05,2.96,4.59,5.5,7.55,7.55l2.8,1.94c.17.12.37.18.57.18.32,0,.63-.15.82-.43.31-.45.2-1.08-.25-1.39l-.25-.17.67-.64c.3-.29.74-.36,1.11-.19l2.89,1.3c.3.14.51.4.57.73.06.33-.04.65-.28.89Z"/>
  <path class="cls-1" d="m28,1h-10c-1.65,0-3,1.35-3,3v9c0,1.65,1.35,3,3,3h10c1.65,0,3-1.35,3-3V4c0-1.65-1.35-3-3-3Zm-1,7.5c0,1.65-1.35,3-3,3h-2c-1.65,0-3-1.35-3-3v-2c0-.55.45-1,1-1s1,.45,1,1v2c0,.55.45,1,1,1h2c.55,0,1-.45,1-1v-2c0-.55.45-1,1-1s1,.45,1,1v2Z"/>
</svg>