<?xml version="1.0" encoding="UTF-8"?>
<svg id="OBJECT" xmlns="http://www.w3.org/2000/svg" viewBox="0 0 32 32">
  <defs>
    <style>
      .cls-1 {
        fill: #FD4360;
      }

      .cls-1, .cls-2 {
        stroke-width: 0px;
      }

      .cls-2 {
        fill: #dadada;
      }
    </style>
  </defs>
  <g>
    <path class="cls-2" d="m17.5,1c-6.68,0-12.29,4.78-13.34,11.37-.09.55.29,1.06.83,1.15.56.09,1.06-.29,1.14-.83.09-.54.22-1.07.38-1.58,1.06-.51,2.32-.96,3.74-1.3-.08.58-.15,1.17-.2,1.77-.04.55.37,1.03.92,1.08.03,0,.05,0,.08,0,.52,0,.95-.4,1-.92.06-.8.16-1.58.28-2.34,3.38-.52,7.08-.51,10.31,0,.21,1.34.33,2.71.37,4.1h-3.02c-.55,0-1,.45-1,1s.45,1,1,1h3.02c-.04,1.39-.17,2.76-.38,4.1-1.62.26-3.36.4-5.14.4-.55,0-1,.45-1,1s.45,1,1,1c1.62,0,3.22-.11,4.74-.32-.35,1.44-.8,2.72-1.32,3.8-1.08.34-2.22.52-3.41.52-1.11,0-2.21-.16-3.25-.48-.53-.16-1.09.14-1.25.67-.16.53.14,1.09.67,1.25,1.23.37,2.52.56,3.83.56,7.44,0,13.5-6.06,13.5-13.5S24.94,1,17.5,1Zm9.77,7.46c-.9-.3-1.88-.56-2.91-.78-.21-1.03-.47-2.02-.78-2.92,1.5.94,2.76,2.2,3.69,3.7Zm-19.57,0c.94-1.53,2.21-2.8,3.72-3.74-.31.92-.59,1.91-.8,2.95-1.03.22-2.01.48-2.91.78Zm5.05-1.15c.34-1.42.78-2.7,1.31-3.79,1.09-.34,2.24-.53,3.44-.53s2.33.18,3.41.52c.53,1.08.98,2.36,1.32,3.79-3.02-.4-6.35-.41-9.48,0Zm11.98,2.49c1.42.34,2.69.79,3.76,1.3.24.77.39,1.57.46,2.39h-3.93c-.03-1.25-.13-2.49-.29-3.69Zm.29,5.69h3.93c-.07.82-.22,1.62-.46,2.39-1.09.53-2.36.96-3.76,1.3.16-1.21.25-2.44.29-3.69Zm-1.45,8.75c.31-.91.57-1.89.79-2.93,1.03-.21,2-.48,2.91-.78-.93,1.5-2.2,2.78-3.7,3.71Z"/>
    <path class="cls-2" d="m16.5,15.5c.55,0,1-.45,1-1s-.45-1-1-1h-.5c-.55,0-1,.45-1,1s.45,1,1,1h.5Z"/>
  </g>
  <path class="cls-1" d="m7,15.57c-3.31,0-6,2.69-6,6,0,5.29,5.28,9.11,5.5,9.27.15.11.32.16.5.16s.35-.05.5-.16c.22-.16,5.5-3.98,5.5-9.27,0-3.31-2.69-6-6-6Zm0,9.21c-1.93,0-3.5-1.57-3.5-3.5s1.57-3.5,3.5-3.5,3.5,1.57,3.5,3.5-1.57,3.5-3.5,3.5Z"/>
</svg>