<?xml version="1.0" encoding="UTF-8"?>
<svg id="OBJECT" xmlns="http://www.w3.org/2000/svg" viewBox="0 0 512 512">
  <defs>
    <style>
      .cls-1 {
        fill: #FD4360;
      }

      .cls-2 {
        fill: #dadada;
      }
    </style>
  </defs>
  <g>
    <path class="cls-2" d="M142.5,472H449.5c12.41,0,22.5-10.09,22.5-22.5v-30c0-12.41-10.09-22.5-22.5-22.5H142.5c-12.41,0-22.5,10.09-22.5,22.5v30c0,12.41,10.09,22.5,22.5,22.5Zm314.5-52.5v30c0,4.14-3.36,7.5-7.5,7.5h-47.5v-45h47.5c4.14,0,7.5,3.36,7.5,7.5Zm-322,0c0-4.14,3.36-7.5,7.5-7.5h244.5v45H142.5c-4.14,0-7.5-3.36-7.5-7.5v-30Z"/>
    <path class="cls-2" d="M504.5,87H197.23c-4.14,0-7.5,3.36-7.5,7.5s3.36,7.5,7.5,7.5H497v45H178.4c-4.14,0-7.5,3.36-7.5,7.5s3.36,7.5,7.5,7.5H497V497H95v-239.5c0-4.14-3.36-7.5-7.5-7.5s-7.5,3.36-7.5,7.5v247c0,4.14,3.36,7.5,7.5,7.5H504.5c4.14,0,7.5-3.36,7.5-7.5V94.5c0-4.14-3.36-7.5-7.5-7.5Z"/>
    <path class="cls-2" d="M394.5,132c4.14,0,7.5-3.36,7.5-7.5s-3.36-7.5-7.5-7.5h-10c-4.14,0-7.5,3.36-7.5,7.5s3.36,7.5,7.5,7.5h10Z"/>
    <path class="cls-2" d="M434.5,132c4.14,0,7.5-3.36,7.5-7.5s-3.36-7.5-7.5-7.5h-10c-4.14,0-7.5,3.36-7.5,7.5s3.36,7.5,7.5,7.5h10Z"/>
    <path class="cls-2" d="M474.5,132c4.14,0,7.5-3.36,7.5-7.5s-3.36-7.5-7.5-7.5h-10c-4.14,0-7.5,3.36-7.5,7.5s3.36,7.5,7.5,7.5h10Z"/>
    <path class="cls-2" d="M161,442h20c4.14,0,7.5-3.36,7.5-7.5s-3.36-7.5-7.5-7.5h-20c-4.14,0-7.5,3.36-7.5,7.5s3.36,7.5,7.5,7.5Z"/>
    <path class="cls-2" d="M211,442h20c4.14,0,7.5-3.36,7.5-7.5s-3.36-7.5-7.5-7.5h-20c-4.14,0-7.5,3.36-7.5,7.5s3.36,7.5,7.5,7.5Z"/>
    <path class="cls-2" d="M261,442h100c4.14,0,7.5-3.36,7.5-7.5s-3.36-7.5-7.5-7.5h-100c-4.14,0-7.5,3.36-7.5,7.5s3.36,7.5,7.5,7.5Z"/>
    <path class="cls-2" d="M398.5,279.5c0-56.52-45.98-102.5-102.5-102.5s-102.5,45.98-102.5,102.5,45.98,102.5,102.5,102.5,102.5-45.98,102.5-102.5Zm-129.61,83.19c-3.31-8.9-6.04-19.08-8.13-30.11,11.31,1.25,23.13,1.92,35.24,1.92s23.93-.66,35.24-1.92c-2.08,11.03-4.82,21.21-8.13,30.11-8.54,2.79-17.65,4.31-27.11,4.31s-18.57-1.52-27.11-4.31Zm-60.39-83.19c0-9.46,1.52-18.57,4.31-27.11,8.9-3.31,19.08-6.04,30.11-8.13-1.25,11.31-1.92,23.13-1.92,35.24s.66,23.93,1.92,35.24c-11.03-2.08-21.21-4.82-30.11-8.13-2.79-8.54-4.31-17.65-4.31-27.11Zm47.5,0c0-12.89,.82-25.6,2.35-37.65,12.05-1.53,24.76-2.35,37.65-2.35s25.6,.82,37.65,2.35c1.53,12.05,2.35,24.76,2.35,37.65s-.82,25.6-2.35,37.65c-12.05,1.53-24.76,2.35-37.65,2.35s-25.6-.82-37.65-2.35c-1.53-12.05-2.35-24.76-2.35-37.65Zm127.5,0c0,9.46-1.52,18.57-4.31,27.11-8.9,3.31-19.08,6.04-30.11,8.13,1.25-11.31,1.92-23.13,1.92-35.24s-.66-23.93-1.92-35.24c11.03,2.08,21.21,4.82,30.11,8.13,2.79,8.54,4.31,17.65,4.31,27.11Zm-41.86,74.62c2.09-7.45,3.86-15.38,5.26-23.72,8.33-1.41,16.27-3.17,23.72-5.26-7.24,11.79-17.19,21.74-28.98,28.98Zm28.98-120.27c-7.45-2.09-15.38-3.86-23.72-5.26-1.41-8.33-3.17-16.27-5.26-23.72,11.79,7.24,21.74,17.19,28.98,28.98Zm-47.51-37.55c3.31,8.9,6.04,19.08,8.13,30.11-11.31-1.25-23.13-1.92-35.24-1.92s-23.93,.66-35.24,1.92c2.08-11.03,4.82-21.21,8.13-30.11,8.54-2.79,17.65-4.31,27.11-4.31s18.57,1.52,27.11,4.31Zm-72.76,8.57c-2.09,7.45-3.86,15.38-5.26,23.72-8.33,1.41-16.27,3.17-23.72,5.26,7.24-11.79,17.19-21.74,28.98-28.98Zm-28.98,120.27c7.45,2.09,15.38,3.86,23.72,5.26,1.41,8.33,3.17,16.27,5.26,23.72-11.79-7.24-21.74-17.19-28.98-28.98Z"/>
  </g>
  <circle class="cls-1" cx="87.5" cy="87.5" r="42.5"/>
  <path class="cls-1" d="M87.5,235c1.78,0,3.55-.63,4.97-1.89,3.37-2.98,82.53-73.91,82.53-145.61C175,39.25,135.75,0,87.5,0S0,39.25,0,87.5c0,71.7,79.16,142.63,82.53,145.61,1.42,1.26,3.2,1.89,4.97,1.89ZM30,87.5c0-31.71,25.79-57.5,57.5-57.5s57.5,25.79,57.5,57.5-25.79,57.5-57.5,57.5-57.5-25.79-57.5-57.5Z"/>
</svg>