<?xml version="1.0" encoding="UTF-8"?>
<svg id="OBJECT" xmlns="http://www.w3.org/2000/svg" viewBox="0 0 512 512">
  <defs>
    <style>
      .cls-1 {
        fill: #FD4360;
      }

      .cls-2 {
        fill: #dadada;
      }
    </style>
  </defs>
  <g>
    <path class="cls-2" d="M386,417h-28.84c-5.85-23.53-24.43-40-46.16-40-2.54,0-5.09,.23-7.61,.7-7.72-3.83-16.1-6.67-24.89-8.45v-52.42c2.63-.48,7.07,.18,13.23,6.21,9.58,9.38,26.42,19.16,45.47,19.16,.6,0,1.21,0,1.82-.03,14.93-.49,28.62-7.23,39.6-19.49,5.46-6.1,9.88-12.84,13.12-20.02,3.54-7.84,1.69-16.65-4.69-22.45-6.37-5.78-15.29-6.75-22.73-2.48-7.21,4.14-16.13,4.81-26.52,2.01-27.8-7.51-47.63-3.41-59.28,1.26v-23.4c0-4.14-3.36-7.5-7.5-7.5s-7.5,3.36-7.5,7.5v109.66c-2.48-.16-4.98-.25-7.5-.25s-5.02,.09-7.5,.25v-109.66c0-4.14-3.36-7.5-7.5-7.5s-7.5,3.36-7.5,7.5v23.4c-11.65-4.67-31.48-8.77-59.28-1.26-10.39,2.81-19.31,2.13-26.52-2.01-7.44-4.27-16.36-3.3-22.73,2.48-6.39,5.79-8.23,14.6-4.69,22.45,3.24,7.18,7.65,13.92,13.12,20.02,10.98,12.26,24.67,19,39.6,19.49,.61,.02,1.21,.03,1.82,.03,19.04,0,35.88-9.78,45.47-19.16,6.16-6.03,10.6-6.69,13.23-6.21v52.42c-8.78,1.79-17.17,4.62-24.89,8.45-2.52-.46-5.07-.7-7.61-.7-21.73,0-40.31,16.47-46.16,40h-28.84c-4.14,0-7.5,3.36-7.5,7.5s3.36,7.5,7.5,7.5h9.14l14.79,59.17c3.07,12.27,14.04,20.83,26.68,20.83h158.77c12.64,0,23.61-8.57,26.68-20.83l14.79-59.17h9.14c4.14,0,7.5-3.36,7.5-7.5s-3.36-7.5-7.5-7.5Zm-52.13-122.79c14.37,3.88,27.12,2.71,37.9-3.48,2.51-1.44,4.46-.07,5.19,.58,.73,.66,2.3,2.5,1.1,5.17-2.61,5.78-6.18,11.23-10.62,16.18-8.3,9.27-18.03,14.15-28.92,14.5-15.06,.46-28.98-7.7-36.3-14.86-8.75-8.57-17.07-10.95-23.72-10.55v-4.22c6.47-3.78,24.72-11.6,55.37-3.33Zm-124.08,18.1c-7.11,6.96-20.42,14.88-34.99,14.88-.44,0-.87,0-1.31-.02-10.89-.36-20.62-5.24-28.92-14.5-4.44-4.95-8.01-10.4-10.62-16.18-1.21-2.67,.37-4.51,1.1-5.17,.72-.65,2.67-2.02,5.19-.58,10.78,6.19,23.54,7.36,37.9,3.48,30.59-8.26,48.83-.48,55.37,3.34v4.21c-6.65-.4-14.96,1.98-23.72,10.55Zm-8.78,79.69c2.26,0,4.54,.29,6.78,.87,1.82,.47,3.75,.24,5.4-.65,12.5-6.68,27.31-10.22,42.82-10.22s30.31,3.53,42.82,10.22c1.66,.88,3.58,1.12,5.4,.65,2.24-.57,4.52-.87,6.78-.87,13.64,0,25.55,10.11,30.56,25H170.44c5.01-14.89,16.92-25,30.56-25Zm146.51,95.53c-1.39,5.57-6.38,9.47-12.13,9.47H176.62c-5.75,0-10.73-3.89-12.13-9.47l-13.88-55.53h210.79l-13.88,55.53Z"/>
    <path class="cls-2" d="M226,472h60c4.14,0,7.5-3.36,7.5-7.5s-3.36-7.5-7.5-7.5h-60c-4.14,0-7.5,3.36-7.5,7.5s3.36,7.5,7.5,7.5Z"/>
    <path class="cls-2" d="M186,472h10c4.14,0,7.5-3.36,7.5-7.5s-3.36-7.5-7.5-7.5h-10c-4.14,0-7.5,3.36-7.5,7.5s3.36,7.5,7.5,7.5Z"/>
    <path class="cls-2" d="M316,472h10c4.14,0,7.5-3.36,7.5-7.5s-3.36-7.5-7.5-7.5h-10c-4.14,0-7.5,3.36-7.5,7.5s3.36,7.5,7.5,7.5Z"/>
  </g>
  <g>
    <path class="cls-1" d="M316,205.1h-120c-8.28,0-15,6.72-15,15s6.72,15,15,15h120c8.28,0,15-6.72,15-15s-6.72-15-15-15Z"/>
    <path class="cls-1" d="M200.86,143.84c4.69,4.22,7.45,10.11,7.62,16.26h95.03c.17-6.16,2.84-11.99,7.4-16.06,17.53-15.64,27.58-38.08,27.58-61.54s-8.83-43.37-24.86-59.02C297.62,7.82,276.46-.5,254.01,.02c-21.42,.5-41.57,9.27-56.74,24.69-15.16,15.41-23.6,35.7-23.77,57.13-.18,23.6,9.79,46.2,27.36,62Zm19.74-70.35c2.88-2.98,7.62-3.07,10.61-.2l17.43,16.79,32.16-30.99c2.98-2.87,7.73-2.78,10.61,.2,2.87,2.98,2.79,7.73-.2,10.61l-37.37,36c-1.45,1.4-3.33,2.1-5.2,2.1s-3.75-.7-5.2-2.1l-22.63-21.81c-2.98-2.87-3.07-7.62-.2-10.61Z"/>
    <rect class="cls-1" x="208.5" y="175.1" width="95" height="15"/>
  </g>
</svg>