<?xml version="1.0" encoding="UTF-8"?>
<svg id="OBJECT" xmlns="http://www.w3.org/2000/svg" viewBox="0 0 32 32">
  <defs>
    <style>
      .cls-1 {
        fill: #FD4360;
      }

      .cls-1, .cls-2 {
        stroke-width: 0px;
      }

      .cls-2 {
        fill: #dadada;
      }
    </style>
  </defs>
  <path class="cls-1" d="m12,9.5c0-3.03-2.47-5.5-5.5-5.5S1,6.47,1,9.5s2.47,5.5,5.5,5.5,5.5-2.47,5.5-5.5Zm-6.35,0v-2.29c0-.47.38-.85.85-.85s.85.38.85.85v1.89l1.32,1.08c.36.3.42.83.12,1.19-.17.2-.41.31-.66.31-.19,0-.38-.06-.54-.19l-1.63-1.33c-.2-.16-.31-.4-.31-.66Z"/>
  <g>
    <path class="cls-2" d="m28,11h-5v-2c0-.55-.45-1-1-1h-7.21c-.55,0-1,.45-1,1s.45,1,1,1h6.21v12H6v-4.61c0-.55-.45-1-1-1s-1,.45-1,1v5.61c0,.55.45,1,1,1h1c0,2.21,1.79,4,4,4s4-1.79,4-4h7c0,2.21,1.79,4,4,4s4-1.79,4-4h1c.55,0,1-.45,1-1v-9c0-1.65-1.35-3-3-3Zm-18,15c-1.1,0-2-.9-2-2h4c0,1.1-.9,2-2,2Zm15,0c-1.1,0-2-.9-2-2h4c0,1.1-.9,2-2,2Zm-2-4v-9h5c.55,0,1,.45,1,1v1h-3.17c-.55,0-1,.45-1,1s.45,1,1,1h3.17v5h-6Z"/>
    <path class="cls-2" d="m8,21h5c.55,0,1-.45,1-1s-.45-1-1-1h-5c-.55,0-1,.45-1,1s.45,1,1,1Z"/>
    <path class="cls-2" d="m17,21c.55,0,1-.45,1-1s-.45-1-1-1h-1c-.55,0-1,.45-1,1s.45,1,1,1h1Z"/>
  </g>
</svg>