<?xml version="1.0" encoding="UTF-8"?>
<svg id="OBJECT" xmlns="http://www.w3.org/2000/svg" viewBox="0 0 32 32">
  <defs>
    <style>
      .cls-1 {
        fill: #FD4360;
      }

      .cls-1, .cls-2 {
        stroke-width: 0px;
      }

      .cls-2 {
        fill: #dadada;
      }
    </style>
  </defs>
  <path class="cls-1" d="m6.38,23.96c.26.19.6.23.91.12l1.71-.61,1.71.61c.11.04.22.06.33.06.2,0,.41-.06.58-.18.27-.19.42-.49.42-.82v-5.96h-6.09v5.96c0,.33.16.63.42.82Z"/>
  <path class="cls-1" d="m3.95,17.18h-1.45c-.83,0-1.5.67-1.5,1.5v1.2h2.95v-2.7Z"/>
  <path class="cls-1" d="m15.5,17.18h-1.45v2.7h2.95v-1.2c0-.83-.67-1.5-1.5-1.5Z"/>
  <path class="cls-1" d="m14.05,23c0,.9-.33,1.79-1.01,2.39-.56.5-1.26.76-1.99.76-.34,0-.68-.06-1.01-.17l-1.04-.37-1.04.37c-.33.12-.66.17-1,.17-.8,0-1.57-.32-2.15-.9s-.85-1.4-.85-2.21v-1.14s-1.86,0-1.86,0v9.12h13.82v-9.12h-1.86v1.11Z"/>
  <g>
    <path class="cls-2" d="m23.5,20.88v-6c0-.55-.45-1-1-1s-1,.45-1,1v6c0,.55.45,1,1,1s1-.45,1-1Z"/>
    <path class="cls-2" d="m30,1H11c-.55,0-1,.45-1,1v12.18c0,.55.45,1,1,1s1-.45,1-1V3h17v26h-1.5V5.75c0-.55-.45-1-1-1h-12c-.55,0-1,.45-1,1v8.25c0,.55.45,1,1,1s1-.45,1-1v-7.25h10v22.25h-6.5c-.55,0-1,.45-1,1s.45,1,1,1h11c.55,0,1-.45,1-1V2c0-.55-.45-1-1-1Z"/>
  </g>
</svg>