<?xml version="1.0" encoding="UTF-8"?>
<svg id="OBJECT" xmlns="http://www.w3.org/2000/svg" viewBox="0 0 32 32">
  <defs>
    <style>
      .cls-1 {
        fill: #FD4360;
      }

      .cls-1, .cls-2 {
        stroke-width: 0px;
      }

      .cls-2 {
        fill: #dadada;
      }
    </style>
  </defs>
  <g>
    <path class="cls-2" d="m28.44,22.11c.03-.2.06-.4.06-.61v-1.5c0-1.65-1.35-3-3-3h-1c-1.65,0-3,1.35-3,3v1.5c0,.21.03.41.06.61-1.6,1.11-2.56,2.92-2.56,4.89v1.5c0,1.38,1.12,2.5,2.5,2.5h7c1.38,0,2.5-1.12,2.5-2.5v-1.5c0-1.97-.96-3.78-2.56-4.89Zm-4.94-2.11c0-.55.45-1,1-1h1c.55,0,1,.45,1,1v1.5c0,.83-.67,1.5-1.5,1.5s-1.5-.67-1.5-1.5v-1.5Zm5.5,8.5c0,.28-.22.5-.5.5h-7c-.28,0-.5-.22-.5-.5v-1.5c0-1.21.56-2.33,1.49-3.08.64.66,1.53,1.08,2.51,1.08s1.88-.42,2.51-1.08c.93.75,1.49,1.86,1.49,3.08v1.5Z"/>
    <path class="cls-2" d="m15.79,21.17l-1.79-.45c-.11-1.52-1.37-2.72-2.91-2.72H3.92c-1.61,0-2.92,1.31-2.92,2.92v6.16c0,1.61,1.31,2.92,2.92,2.92h7.16c1.54,0,2.81-1.2,2.91-2.72l1.79-.45c1.3-.33,2.21-1.49,2.21-2.83s-.91-2.51-2.21-2.83Zm-.48,3.73l-2.54.64c-.45.11-.76.51-.76.97v.58c0,.51-.41.92-.92.92H3.92c-.51,0-.92-.41-.92-.92v-6.16c0-.51.41-.92.92-.92h7.16c.51,0,.92.41.92.92v.58c0,.46.31.86.76.97l2.54.64c.41.1.7.47.7.89s-.29.79-.7.89Z"/>
    <path class="cls-2" d="m10,23h-1c-.55,0-1,.45-1,1s.45,1,1,1h1c.55,0,1-.45,1-1s-.45-1-1-1Z"/>
    <path class="cls-2" d="m6,23h-1c-.55,0-1,.45-1,1s.45,1,1,1h1c.55,0,1-.45,1-1s-.45-1-1-1Z"/>
  </g>
  <g>
    <path class="cls-1" d="m28.08,2h-7.16c-1.54,0-2.81,1.2-2.91,2.72l-1.79.45c-1.3.33-2.21,1.49-2.21,2.83s.91,2.51,2.21,2.83l1.79.45c.11,1.52,1.37,2.72,2.91,2.72h7.16c1.61,0,2.92-1.31,2.92-2.92v-6.16c0-1.61-1.31-2.92-2.92-2.92Zm-5.08,7h-1c-.55,0-1-.45-1-1s.45-1,1-1h1c.55,0,1,.45,1,1s-.45,1-1,1Zm4,0h-1c-.55,0-1-.45-1-1s.45-1,1-1h1c.55,0,1,.45,1,1s-.45,1-1,1Z"/>
    <path class="cls-1" d="m7,9.8c-1.96,0-3.65-1.15-4.46-2.79-.95,1.06-1.54,2.46-1.54,3.99v1.5c0,1.38,1.12,2.5,2.5,2.5h7c1.38,0,2.5-1.12,2.5-2.5v-1.5c0-1.53-.58-2.93-1.54-3.99-.82,1.65-2.5,2.79-4.46,2.79Z"/>
    <path class="cls-1" d="m7,7.8c1.65,0,3-1.35,3-3v-1.2c0-1.43-1.17-2.6-2.6-2.6h-.8c-1.43,0-2.6,1.17-2.6,2.6v1.2c0,1.65,1.35,3,3,3Z"/>
  </g>
</svg>