<?xml version="1.0" encoding="UTF-8"?>
<svg id="OBJECT" xmlns="http://www.w3.org/2000/svg" viewBox="0 0 32 32">
  <defs>
    <style>
      .cls-1 {
        fill: #FD4360;
      }

      .cls-1, .cls-2 {
        stroke-width: 0px;
      }

      .cls-2 {
        fill: #dadada;
      }
    </style>
  </defs>
  <path class="cls-1" d="m23.97,10.15c-.48-3.48-3.39-6.19-6.97-6.35v-.81c0-.55-.45-1-1-1s-1,.45-1,1v.81c-3.57.15-6.49,2.86-6.97,6.35h15.93Z"/>
  <path class="cls-1" d="m24.95,14.59l.78-2.44H6.27l.78,2.44c.13.41.52.7.95.7h16c.44,0,.82-.28.95-.7Z"/>
  <g>
    <path class="cls-2" d="m30.71,19.77l-2.02-2.02c-1.17-1.17-3.07-1.17-4.24,0l-4.77,4.77h-.14v-1.52c0-1.65-1.35-3-3-3h-7.53c0-.55-.45-1-1-1H2c-.55,0-1,.45-1,1v12c0,.55.45,1,1,1h6c.55,0,1-.45,1-1h12.1c.53,0,1.04-.21,1.42-.59l8.19-8.23c.39-.39.39-1.02,0-1.41ZM3,29v-10h4v10s0,0,0,0h-4Zm18.1-1h-12.1v-8h7.53c.55,0,1,.45,1,1v1.52h-2.74c-.55,0-1,.45-1,1s.45,1,1,1h5.29c.27,0,.52-.11.71-.29l5.07-5.07c.39-.39,1.02-.39,1.41,0l1.32,1.32-7.48,7.52Z"/>
    <path class="cls-2" d="m12.19,22.52h-.5c-.55,0-1,.45-1,1s.45,1,1,1h.5c.55,0,1-.45,1-1s-.45-1-1-1Z"/>
    <path class="cls-2" d="m26.88,8.7c.2,0,.41-.06.58-.19l2.68-1.92c.45-.32.55-.95.23-1.4-.32-.45-.95-.55-1.4-.23l-2.68,1.92c-.45.32-.55.95-.23,1.4.2.27.5.42.81.42Z"/>
    <path class="cls-2" d="m28.92,12.05c-.53-.15-1.08.15-1.24.68-.15.53.15,1.08.68,1.24l1.36.4c.09.03.19.04.28.04.43,0,.83-.28.96-.72.15-.53-.15-1.08-.68-1.24l-1.36-.4Z"/>
    <path class="cls-2" d="m23.08,4.32c.09.03.19.04.28.04.43,0,.83-.28.96-.72l.4-1.36c.15-.53-.15-1.08-.68-1.24-.53-.15-1.08.15-1.24.68l-.4,1.36c-.15.53.15,1.08.68,1.24Z"/>
    <path class="cls-2" d="m4.54,8.51c.18.13.38.19.58.19.31,0,.62-.14.81-.42.32-.45.22-1.07-.23-1.4l-2.68-1.92c-.45-.32-1.07-.22-1.4.23s-.22,1.07.23,1.4l2.68,1.92Z"/>
    <path class="cls-2" d="m2,14.4c.09,0,.19-.01.28-.04l1.36-.4c.53-.16.83-.71.68-1.24-.15-.53-.71-.83-1.24-.68l-1.36.4c-.53.16-.83.71-.68,1.24.13.44.53.72.96.72Z"/>
    <path class="cls-2" d="m7.68,3.64c.13.44.53.72.96.72.09,0,.19-.01.28-.04.53-.16.83-.71.68-1.24l-.4-1.36c-.16-.53-.71-.83-1.24-.68-.53.16-.83.71-.68,1.24l.4,1.36Z"/>
  </g>
</svg>