<?xml version="1.0" encoding="UTF-8"?>
<svg id="OBJECT" xmlns="http://www.w3.org/2000/svg" viewBox="0 0 32 32">
  <defs>
    <style>
      .cls-1 {
        fill: #FD4360;
      }

      .cls-1, .cls-2 {
        stroke-width: 0px;
      }

      .cls-2 {
        fill: #dadada;
      }
    </style>
  </defs>
  <path class="cls-1" d="m11.5,7.5c-3.31,0-6,2.69-6,6s2.69,6,6,6,6-2.69,6-6-2.69-6-6-6Zm2.92,5.32l-2.74,2.77c-.19.19-.44.3-.71.3h0c-.27,0-.52-.11-.71-.29l-1.69-1.68c-.39-.39-.39-1.02,0-1.42.39-.39,1.02-.39,1.41,0l.98.98,2.03-2.05c.39-.39,1.02-.39,1.41,0,.39.39.4,1.02,0,1.41Z"/>
  <path class="cls-2" d="m30.92,14.63s-.05-.09-.08-.13c-.03-.06-.06-.12-.1-.17l-4.5-5c-.19-.21-.46-.33-.74-.33h-3.5v-1.57c0-1.89-1.54-3.43-3.43-3.43H4.43c-1.89,0-3.43,1.54-3.43,3.43v14.57c0,.55.45,1,1,1h2v1c0,2.21,1.79,4,4,4s4-1.79,4-4v-1h9v1c0,2.21,1.79,4,4,4s4-1.79,4-4v-1h1c.55,0,1-.45,1-1v-7c0-.13-.03-.25-.08-.37Zm-20.92,9.37c0,1.1-.9,2-2,2s-2-.9-2-2v-1h4v1Zm10-3H3V7.43c0-.79.64-1.43,1.43-1.43h14.13c.79,0,1.43.64,1.43,1.43v13.57Zm7,3c0,1.1-.9,2-2,2s-2-.9-2-2v-1h4v1Zm-5-3v-10h3.05l2.7,3h-2.75c-.55,0-1,.45-1,1s.45,1,1,1h4v5h-7Z"/>
</svg>