<?xml version="1.0" encoding="UTF-8"?>
<svg id="OBJECT" xmlns="http://www.w3.org/2000/svg" viewBox="0 0 512 512">
  <defs>
    <style>
      .cls-1 {
        fill: #FD4360;
      }

      .cls-2 {
        fill: #dadada;
      }
    </style>
  </defs>
  <g>
    <path class="cls-2" d="M87.5,337C39.25,337,0,376.25,0,424.5s39.25,87.5,87.5,87.5,87.5-39.25,87.5-87.5-39.25-87.5-87.5-87.5Zm0,160c-25.2,0-47.43-12.93-60.43-32.5,9.23-13.9,23.11-24.33,38.99-29.26,6.08,4.26,13.47,6.76,21.44,6.76s15.36-2.51,21.44-6.76c15.87,4.93,29.75,15.36,38.99,29.26-13,19.57-35.23,32.5-60.43,32.5Zm0-70c-12.41,0-22.5-10.09-22.5-22.5s10.09-22.5,22.5-22.5,22.5,10.09,22.5,22.5-10.09,22.5-22.5,22.5Zm68.04,22.55c-9.42-11.62-21.74-20.71-35.59-26.28,3.21-5.53,5.06-11.93,5.06-18.77,0-20.68-16.82-37.5-37.5-37.5s-37.5,16.82-37.5,37.5c0,6.84,1.85,13.25,5.06,18.77-13.86,5.57-26.17,14.65-35.59,26.28-2.88-7.81-4.46-16.25-4.46-25.05,0-39.98,32.52-72.5,72.5-72.5s72.5,32.52,72.5,72.5c0,8.8-1.58,17.24-4.46,25.05Z"/>
    <path class="cls-2" d="M424.5,337c-48.25,0-87.5,39.25-87.5,87.5s39.25,87.5,87.5,87.5,87.5-39.25,87.5-87.5-39.25-87.5-87.5-87.5Zm0,15c39.98,0,72.5,32.52,72.5,72.5,0,8.8-1.58,17.24-4.46,25.05-9.42-11.62-21.74-20.71-35.59-26.28,3.21-5.53,5.06-11.93,5.06-18.77,0-20.68-16.82-37.5-37.5-37.5s-37.5,16.82-37.5,37.5c0,6.84,1.85,13.25,5.06,18.77-13.86,5.57-26.17,14.65-35.59,26.28-2.88-7.81-4.46-16.25-4.46-25.05,0-39.98,32.52-72.5,72.5-72.5Zm-22.5,52.5c0-12.41,10.09-22.5,22.5-22.5s22.5,10.09,22.5,22.5-10.09,22.5-22.5,22.5-22.5-10.09-22.5-22.5Zm22.5,92.5c-25.2,0-47.43-12.93-60.43-32.5,9.23-13.9,23.11-24.33,38.99-29.26,6.08,4.26,13.47,6.76,21.44,6.76s15.36-2.51,21.44-6.76c15.87,4.93,29.75,15.36,38.99,29.26-13,19.57-35.23,32.5-60.43,32.5Z"/>
    <path class="cls-2" d="M256,235c64.79,0,117.5-52.71,117.5-117.5S320.79,0,256,0s-117.5,52.71-117.5,117.5,52.71,117.5,117.5,117.5Zm0-220c56.52,0,102.5,45.98,102.5,102.5s-45.98,102.5-102.5,102.5-102.5-45.98-102.5-102.5S199.48,15,256,15Z"/>
    <path class="cls-2" d="M330.94,363.44l-45.39-28.01c.87-2.81,1.34-5.79,1.34-8.88,0-14.27-10.02-26.24-23.39-29.26v-45.11c0-4.14-3.36-7.5-7.5-7.5s-7.5,3.36-7.5,7.5v45.57c-12.47,3.64-21.61,15.17-21.61,28.8,0,2.75,.38,5.41,1.07,7.94l-46.9,28.95c-3.52,2.17-4.62,6.8-2.44,10.32,1.42,2.3,3.87,3.56,6.39,3.56,1.34,0,2.71-.36,3.93-1.12l46.51-28.7c5.45,5.58,13.05,9.05,21.44,9.05s15.36-3.19,20.76-8.37l45.41,28.03c1.23,.76,2.59,1.12,3.93,1.12,2.51,0,4.97-1.26,6.39-3.56,2.17-3.52,1.08-8.15-2.44-10.32Zm-74.05-21.89c-8.27,0-15-6.73-15-15s6.73-15,15-15,15,6.73,15,15-6.73,15-15,15Z"/>
  </g>
  <g>
    <circle class="cls-1" cx="256" cy="97.5" r="22.5"/>
    <path class="cls-1" d="M256,30c-48.25,0-87.5,39.25-87.5,87.5,0,14.39,3.5,27.99,9.68,39.98,9.51-18.5,25.45-33.33,45.35-41.26-3.19-5.51-5.03-11.91-5.03-18.72,0-20.68,16.82-37.5,37.5-37.5s37.5,16.82,37.5,37.5c0,6.82-1.84,13.21-5.03,18.72,19.9,7.92,35.84,22.76,45.35,41.26,6.18-11.99,9.68-25.58,9.68-39.98,0-48.25-39.25-87.5-87.5-87.5Z"/>
    <path class="cls-1" d="M277.45,128.23c-6.08,4.26-13.48,6.77-21.45,6.77s-15.36-2.51-21.45-6.77c-21.96,6.77-38.93,23.38-46.59,44.22,16.05,19.84,40.59,32.55,68.04,32.55s51.99-12.71,68.04-32.55c-7.66-20.83-24.64-37.44-46.59-44.22Z"/>
  </g>
</svg>