<?xml version="1.0" encoding="UTF-8"?>
<svg id="OBJECT" xmlns="http://www.w3.org/2000/svg" viewBox="0 0 32 32">
  <defs>
    <style>
      .cls-1 {
        fill: #FD4360;
      }

      .cls-1, .cls-2 {
        stroke-width: 0px;
      }

      .cls-2 {
        fill: #dadada;
      }
    </style>
  </defs>
  <path class="cls-2" d="m30,13.5h-1.11l-.76-6.5h1.88c.55,0,1-.45,1-1s-.45-1-1-1h-9.1c-.46-2.28-2.48-4-4.9-4s-4.43,1.72-4.9,4H2c-.55,0-1,.45-1,1s.45,1,1,1h1.88l-.76,6.5h-1.11c-.55,0-1,.45-1,1v2c0,2.21,1.79,4,4,4h3c2.21,0,4-1.79,4-4v-2c0-.55-.45-1-1-1h-1.11l-.76-6.5h1.98c.4,1.96,1.94,3.5,3.9,3.9v9.1h-.5c-1.38,0-2.5,1.12-2.5,2.5v1.5c0,.55.45,1,1,1s1-.45,1-1v-1.5c0-.28.22-.5.5-.5h3c.28,0,.5.22.5.5v1.5c0,.55.45,1,1,1s1-.45,1-1v-1.5c0-1.38-1.12-2.5-2.5-2.5h-.5v-9.1c1.96-.4,3.5-1.94,3.9-3.9h1.98l-.76,6.5h-1.11c-.55,0-1,.45-1,1v2c0,2.21,1.79,4,4,4h3c2.21,0,4-1.79,4-4v-2c0-.55-.45-1-1-1Zm-20,3c0,1.1-.9,2-2,2h-3c-1.1,0-2-.9-2-2v-1h7v1Zm-2.12-3h-2.75l.76-6.5h1.22l.76,6.5Zm8.12-4.5c-1.65,0-3-1.35-3-3s1.35-3,3-3,3,1.35,3,3-1.35,3-3,3Zm8.89-2h1.22l.76,6.5h-2.75l.76-6.5Zm4.11,9.5c0,1.1-.9,2-2,2h-3c-1.1,0-2-.9-2-2v-1h7v1Z"/>
  <path class="cls-1" d="m28,29h-3v-1c0-.55-.45-1-1-1H8c-.55,0-1,.45-1,1v1h-3c-.55,0-1,.45-1,1s.45,1,1,1h24c.55,0,1-.45,1-1s-.45-1-1-1Z"/>
</svg>