<?xml version="1.0" encoding="UTF-8"?>
<svg id="OBJECT" xmlns="http://www.w3.org/2000/svg" viewBox="0 0 32 32">
  <defs>
    <style>
      .cls-1 {
        fill: #FD4360;
      }

      .cls-2 {
        fill: #dadada;
      }
    </style>
  </defs>
  <path class="cls-2" d="M28.44,22.11c.03-.2,.06-.4,.06-.61v-1.5c0-1.65-1.35-3-3-3h-1c-1.65,0-3,1.35-3,3v1.5c0,.21,.03,.42,.06,.62-.38,.27-.73,.59-1.04,.94-.09-.1-.18-.21-.28-.31-.25-.25-.52-.47-.81-.66,.03-.19,.06-.39,.06-.59v-1.5c0-1.65-1.35-3-3-3h-1c-1.65,0-3,1.35-3,3v1.5c0,.2,.03,.39,.06,.59-.41,.28-.76,.61-1.08,.98-.31-.35-.66-.67-1.04-.94,.04-.2,.06-.41,.06-.62v-1.5c0-1.65-1.35-3-3-3h-1c-1.65,0-3,1.35-3,3v1.5c0,.21,.03,.41,.06,.61-1.6,1.11-2.56,2.92-2.56,4.89v1c0,1.65,1.35,3,3,3H28c1.65,0,3-1.35,3-3v-1c0-1.97-.96-3.78-2.56-4.89Zm-4.94-2.11c0-.55,.45-1,1-1h1c.55,0,1,.45,1,1v1.5c0,.83-.67,1.5-1.5,1.5s-1.5-.67-1.5-1.5v-1.5Zm-9,0c0-.55,.45-1,1-1h1c.55,0,1,.45,1,1v1.5c0,.83-.67,1.5-1.5,1.5s-1.5-.67-1.5-1.5v-1.5Zm1.5,5c1,0,1.89-.42,2.53-1.09,.1,.08,.21,.16,.3,.26,.75,.76,1.17,1.77,1.17,2.84v2H12v-2c0-1.22,.55-2.34,1.47-3.09,.64,.67,1.53,1.09,2.53,1.09Zm-10.5-5c0-.55,.45-1,1-1h1c.55,0,1,.45,1,1v1.5c0,.83-.67,1.5-1.5,1.5s-1.5-.67-1.5-1.5v-1.5Zm-2.5,8v-1c0-1.21,.56-2.33,1.49-3.08,.64,.66,1.53,1.08,2.51,1.08s1.87-.41,2.51-1.07c.34,.28,.64,.62,.87,.99-.24,.65-.38,1.35-.38,2.08v2H4c-.55,0-1-.45-1-1Zm26,0c0,.55-.45,1-1,1h-6v-2c0-.72-.13-1.43-.38-2.09,.23-.37,.53-.71,.87-.98,.64,.66,1.53,1.07,2.51,1.07s1.88-.41,2.51-1.08c.93,.75,1.49,1.86,1.49,3.08v1Z"/>
  <g>
    <path class="cls-1" d="M16,1c-3.86,0-7,3.14-7,7s3.14,7,7,7,7-3.14,7-7-3.14-7-7-7Zm3.2,6.11l-3.27,3.2c-.19,.19-.45,.29-.7,.29s-.51-.1-.7-.29l-1.73-1.7c-.39-.39-.4-1.02-.01-1.41,.38-.4,1.02-.4,1.41-.01l1.03,1.01,2.57-2.51c.39-.39,1.03-.38,1.41,.01,.39,.39,.38,1.03-.01,1.41Z"/>
    <path class="cls-1" d="M27.5,7h-1.5c-.55,0-1,.45-1,1s.45,1,1,1h1.5c.55,0,1-.45,1-1s-.45-1-1-1Z"/>
    <path class="cls-1" d="M25,5.38c.17,0,.34-.04,.5-.13l1.3-.75c.48-.28,.64-.89,.37-1.37-.28-.48-.89-.64-1.37-.37l-1.3,.75c-.48,.28-.64,.89-.37,1.37,.19,.32,.52,.5,.87,.5Z"/>
    <path class="cls-1" d="M26.8,11.51l-1.3-.75c-.48-.28-1.09-.11-1.37,.37-.28,.48-.11,1.09,.37,1.37l1.3,.75c.16,.09,.33,.13,.5,.13,.35,0,.68-.18,.87-.5,.28-.48,.11-1.09-.37-1.37Z"/>
    <path class="cls-1" d="M7,8c0-.55-.45-1-1-1h-1.5c-.55,0-1,.45-1,1s.45,1,1,1h1.5c.55,0,1-.45,1-1Z"/>
    <path class="cls-1" d="M7.5,3.51l-1.3-.75c-.48-.28-1.09-.11-1.37,.37-.28,.48-.11,1.09,.37,1.37l1.3,.75c.16,.09,.33,.13,.5,.13,.35,0,.68-.18,.87-.5,.28-.48,.11-1.09-.37-1.37Z"/>
    <path class="cls-1" d="M6.5,10.76l-1.3,.75c-.48,.28-.64,.89-.37,1.37,.19,.32,.52,.5,.87,.5,.17,0,.34-.04,.5-.13l1.3-.75c.48-.28,.64-.89,.37-1.37-.28-.48-.89-.64-1.37-.37Z"/>
  </g>
</svg>