<?xml version="1.0" encoding="UTF-8"?>
<svg id="OBJECT" xmlns="http://www.w3.org/2000/svg" viewBox="0 0 32 32">
  <defs>
    <style>
      .cls-1 {
        fill: #FD4360;
      }

      .cls-1, .cls-2 {
        stroke-width: 0px;
      }

      .cls-2 {
        fill: #dadada;
      }
    </style>
  </defs>
  <path class="cls-2" d="m21.46,15.99c.19-.56.32-1.14.32-1.76v-4.15c0-1.65-1.39-2.98-3.1-2.98h-5.38c-1.71,0-3.1,1.34-3.1,2.98v4.15c0,.62.13,1.2.32,1.76-3.14,1.21-5.25,4.13-5.25,7.48v4.02c0,1.94,1.63,3.51,3.64,3.51h14.14c2.01,0,3.64-1.57,3.64-3.51v-4.02c0-3.35-2.11-6.27-5.25-7.48Zm-9.11-5.91c0-.51.43-.92.95-.92h5.38c.53,0,.95.41.95.92v4.15c0,1.93-1.63,3.5-3.64,3.5h-.02c-2,0-3.64-1.57-3.64-3.5v-4.15Zm12.22,17.41c0,.8-.67,1.45-1.5,1.45h-14.14c-.83,0-1.5-.65-1.5-1.45v-4.02c0-2.59,1.7-4.81,4.19-5.64,1.06,1.2,2.62,1.97,4.38,1.97h.02c1.76,0,3.31-.78,4.38-1.97,2.49.83,4.19,3.06,4.19,5.64v4.02Z"/>
  <g>
    <path class="cls-1" d="m26.46,5.05V1.44c0-.24-.22-.44-.48-.44h-4.96c-.27,0-.48.2-.48.44v3.61c0,.11.02.22.04.33,1.18.44,2.14,1.28,2.73,2.34.07,0,.13.02.19.02h.02c1.63,0,2.95-1.21,2.95-2.69Z"/>
    <path class="cls-1" d="m8.07,10.45c-1.47-.1-2.78-.71-3.73-1.63-2,.73-3.33,2.48-3.33,4.49v2.61c0,.5.44.9.99.9h3.75c.68-.75,1.46-1.41,2.36-1.95-.02-.21-.03-.43-.03-.64v-3.78Z"/>
    <path class="cls-1" d="m10.98,1.21h-4.96c-.27,0-.48.2-.48.44v3.61c0,1.48,1.32,2.69,2.95,2.69h.02s.04,0,.07,0c.58-1.18,1.6-2.11,2.88-2.57,0-.04.01-.07.01-.11V1.65c0-.24-.22-.44-.48-.44Z"/>
    <path class="cls-1" d="m27.67,8.61c-.95.92-2.26,1.53-3.73,1.63v3.98c0,.21-.01.43-.03.64.82.49,1.54,1.08,2.18,1.74h3.93c.55,0,.99-.4.99-.9v-2.61c0-2.01-1.34-3.76-3.33-4.49Z"/>
  </g>
</svg>