<?xml version="1.0" encoding="UTF-8"?>
<svg id="OBJECT" xmlns="http://www.w3.org/2000/svg" viewBox="0 0 32 32">
  <defs>
    <style>
      .cls-1 {
        fill: #FD4360;
      }

      .cls-1, .cls-2 {
        stroke-width: 0px;
      }

      .cls-2 {
        fill: #dadada;
      }
    </style>
  </defs>
  <g>
    <path class="cls-2" d="m30,9c-.55,0-1,.45-1,1v18c0,.55-.45,1-1,1H4c-.55,0-1-.45-1-1V10c0-.55-.45-1-1-1s-1,.45-1,1v18c0,1.65,1.35,3,3,3h24c1.65,0,3-1.35,3-3V10c0-.55-.45-1-1-1Z"/>
    <path class="cls-2" d="m15.5,20.5h1c1.38,0,2.5-1.12,2.5-2.5v-5c0-1.38-1.12-2.5-2.5-2.5h-1c-1.38,0-2.5,1.12-2.5,2.5v5c0,1.38,1.12,2.5,2.5,2.5Zm-.5-7.5c0-.28.22-.5.5-.5h1c.28,0,.5.22.5.5v5c0,.28-.22.5-.5.5h-1c-.28,0-.5-.22-.5-.5v-5Z"/>
    <path class="cls-2" d="m7.5,16.5h1.5v3c0,.55.45,1,1,1s1-.45,1-1v-8c0-.55-.45-1-1-1s-1,.45-1,1v3h-1.5c-.28,0-.5-.22-.5-.5v-2.5c0-.55-.45-1-1-1s-1,.45-1,1v2.5c0,1.38,1.12,2.5,2.5,2.5Z"/>
    <path class="cls-2" d="m23.5,16.5h1.5v3c0,.55.45,1,1,1s1-.45,1-1v-8c0-.55-.45-1-1-1s-1,.45-1,1v3h-1.5c-.28,0-.5-.22-.5-.5v-2.5c0-.55-.45-1-1-1s-1,.45-1,1v2.5c0,1.38,1.12,2.5,2.5,2.5Z"/>
    <path class="cls-2" d="m7,27.5h18c1.38,0,2.5-1.12,2.5-2.5v-.5c0-1.38-1.12-2.5-2.5-2.5H7c-1.38,0-2.5,1.12-2.5,2.5v.5c0,1.38,1.12,2.5,2.5,2.5Zm-.5-3c0-.28.22-.5.5-.5h18c.28,0,.5.22.5.5v.5c0,.28-.22.5-.5.5H7c-.28,0-.5-.22-.5-.5v-.5Z"/>
  </g>
  <path class="cls-1" d="m28,1H4c-1.65,0-3,1.35-3,3v3h30v-3c0-1.65-1.35-3-3-3ZM5.5,5h-.5c-.55,0-1-.45-1-1s.45-1,1-1h.5c.55,0,1,.45,1,1s-.45,1-1,1Zm4,0h-.5c-.55,0-1-.45-1-1s.45-1,1-1h.5c.55,0,1,.45,1,1s-.45,1-1,1Zm4,0h-.5c-.55,0-1-.45-1-1s.45-1,1-1h.5c.55,0,1,.45,1,1s-.45,1-1,1Z"/>
</svg>