<?xml version="1.0" encoding="UTF-8"?>
<svg id="OBJECT" xmlns="http://www.w3.org/2000/svg" viewBox="0 0 32 32">
  <defs>
    <style>
      .cls-1 {
        fill: #FD4360;
      }

      .cls-1, .cls-2 {
        stroke-width: 0px;
      }

      .cls-2 {
        fill: #dadada;
      }
    </style>
  </defs>
  <g>
    <path class="cls-2" d="m28,1H4c-1.65,0-3,1.35-3,3v15c0,1.65,1.35,3,3,3h8v2.5h-2.2c-1.18,0-2.26.7-2.74,1.78l-1.21,2.72h-2.85c-.55,0-1,.45-1,1s.45,1,1,1h26c.55,0,1-.45,1-1s-.45-1-1-1h-2.85l-1.21-2.72c-.48-1.08-1.56-1.78-2.74-1.78h-2.2v-2.5h8c1.65,0,3-1.35,3-3V4c0-1.65-1.35-3-3-3Zm-4.89,26.09l.85,1.91h-15.92l.85-1.91c.16-.36.52-.59.91-.59h12.4c.39,0,.75.23.91.59Zm-5.11-2.59h-4v-2.5h4v2.5Zm11-5.5c0,.55-.45,1-1,1H4c-.55,0-1-.45-1-1V4c0-.55.45-1,1-1h24c.55,0,1,.45,1,1v15Z"/>
    <path class="cls-2" d="m6,4h-1c-.55,0-1,.45-1,1s.45,1,1,1h1c.55,0,1-.45,1-1s-.45-1-1-1Z"/>
    <path class="cls-2" d="m27,4h-1c-.55,0-1,.45-1,1s.45,1,1,1h1c.55,0,1-.45,1-1s-.45-1-1-1Z"/>
    <path class="cls-2" d="m6,17h-1c-.55,0-1,.45-1,1s.45,1,1,1h1c.55,0,1-.45,1-1s-.45-1-1-1Z"/>
    <path class="cls-2" d="m27,17h-1c-.55,0-1,.45-1,1s.45,1,1,1h1c.55,0,1-.45,1-1s-.45-1-1-1Z"/>
  </g>
  <path class="cls-1" d="m16,4.5c-3.86,0-7,3.14-7,7s3.14,7,7,7,7-3.14,7-7-3.14-7-7-7Zm1.04,11.24c0,.55-.45,1-1,1s-1-.45-1-1v-.41c0-.55.45-1,1-1s1,.45,1,1v.41Zm0-3.79c0,.55-.45,1-1,1s-1-.45-1-1v-4.21c0-.55.45-1,1-1s1,.45,1,1v4.21Z"/>
</svg>