<?xml version="1.0" encoding="UTF-8"?>
<svg id="OBJECT" xmlns="http://www.w3.org/2000/svg" viewBox="0 0 32 32">
  <defs>
    <style>
      .cls-1 {
        fill: #FD4360;
      }

      .cls-2 {
        fill: #dadada;
      }
    </style>
  </defs>
  <path class="cls-2" d="M28,11h-5.33c-1.65,0-3,1.35-3,3v3h-6.33c-1.65,0-3,1.35-3,3v3H4c-1.65,0-3,1.35-3,3v4c0,.55,.45,1,1,1H30c.55,0,1-.45,1-1V14c0-1.65-1.35-3-3-3ZM3,26c0-.55,.45-1,1-1h6.33v4H3v-3Zm9.33,3v-9c0-.55,.45-1,1-1h6.33v4h-4.33c-.55,0-1,.45-1,1s.45,1,1,1h4.33v4h-7.33Zm9.33,0V14c0-.55,.45-1,1-1h5.33c.55,0,1,.45,1,1v3h-4.33c-.55,0-1,.45-1,1s.45,1,1,1h4.33v10h-7.33Z"/>
  <g>
    <path class="cls-1" d="M11.46,7.01c-.82,1.65-2.5,2.79-4.46,2.79s-3.65-1.15-4.46-2.79c-.95,1.06-1.54,2.46-1.54,3.99v1c0,1.65,1.35,3,3,3h6c1.65,0,3-1.35,3-3v-1c0-1.53-.58-2.93-1.54-3.99Z"/>
    <path class="cls-1" d="M7,7.8c1.65,0,3-1.35,3-3v-1.2c0-1.43-1.17-2.6-2.6-2.6h-.8c-1.43,0-2.6,1.17-2.6,2.6v1.2c0,1.65,1.35,3,3,3Z"/>
  </g>
</svg>