<?xml version="1.0" encoding="UTF-8"?>
<svg id="OBJECT" xmlns="http://www.w3.org/2000/svg" viewBox="0 0 32 32">
  <defs>
    <style>
      .cls-1 {
        fill: #FD4360;
      }

      .cls-1, .cls-2 {
        stroke-width: 0px;
      }

      .cls-2 {
        fill: #dadada;
      }
    </style>
  </defs>
  <path class="cls-2" d="m30,29h-.5v-9c0-2.76-2.24-5-5-5h-1.5v-3c0-.55-.45-1-1-1s-1,.45-1,1v3h-2v-3c0-.55-.45-1-1-1s-1,.45-1,1v3h-2v-3c0-.55-.45-1-1-1s-1,.45-1,1v3h-2v-3c0-.55-.45-1-1-1s-1,.45-1,1v3h-1.5c-2.76,0-5,2.24-5,5v9h-.5c-.55,0-1,.45-1,1s.45,1,1,1h28c.55,0,1-.45,1-1s-.45-1-1-1ZM4.5,20c0-1.65,1.35-3,3-3h17c1.65,0,3,1.35,3,3v9h-2v-9c0-.55-.45-1-1-1H7.5c-.55,0-1,.45-1,1v9h-2v-9Zm13,8.5v.5h-3v-.5c0-.83.67-1.5,1.5-1.5s1.5.67,1.5,1.5Zm1.39-1.97l3.09-3.09c.39-.39.39-1.02,0-1.41s-1.02-.39-1.41,0l-3.24,3.24c-.41-.17-.85-.26-1.32-.26-1.93,0-3.5,1.57-3.5,3.5v.5h-4v-8h15v8h-4v-.5c0-.73-.23-1.41-.61-1.97Z"/>
  <path class="cls-1" d="m6,9h20c1.1,0,2-.9,2-2V1H4v3h11c.55,0,1,.45,1,1s-.45,1-1,1H4v1c0,1.1.9,2,2,2Zm13-5h1c.55,0,1,.45,1,1s-.45,1-1,1h-1c-.55,0-1-.45-1-1s.45-1,1-1Z"/>
</svg>