<?xml version="1.0" encoding="UTF-8"?>
<svg id="OBJECT" xmlns="http://www.w3.org/2000/svg" viewBox="0 0 32 32">
  <defs>
    <style>
      .cls-1 {
        fill: #FD4360;
      }

      .cls-1, .cls-2 {
        stroke-width: 0px;
      }

      .cls-2 {
        fill: #dadada;
      }
    </style>
  </defs>
  <path class="cls-2" d="m28,15c1.65,0,3-1.35,3-3v-2c0-.55-.45-1-1-1H2c-.55,0-1,.45-1,1v2c0,1.65,1.35,3,3,3h7.5v2h-5.5c-1.65,0-3,1.35-3,3v9h-1c-.55,0-1,.45-1,1s.45,1,1,1h28c.55,0,1-.45,1-1s-.45-1-1-1h-1v-9c0-1.65-1.35-3-3-3h-5.5v-2h7.5ZM3,12v-1h26v1c0,.55-.45,1-1,1H4c-.55,0-1-.45-1-1Zm20.5,17h-4v-.5c0-.56-.15-1.09-.39-1.56l2.02-1.66c.43-.35.49-.98.14-1.41-.35-.43-.98-.49-1.41-.14l-2.13,1.75c-.51-.3-1.1-.48-1.74-.48-1.93,0-3.5,1.57-3.5,3.5v.5h-4v-6.5h15v6.5Zm-6-.5v.5h-3v-.5c0-.83.67-1.5,1.5-1.5s1.5.67,1.5,1.5Zm9.5-8.5v9h-1.5v-7.5c0-.55-.45-1-1-1H7.5c-.55,0-1,.45-1,1v7.5h-1.5v-9c0-.55.45-1,1-1h20c.55,0,1,.45,1,1Zm-8.5-3h-5v-2h5v2Z"/>
  <g>
    <rect class="cls-1" x="5" y="1" width="6" height="6"/>
    <rect class="cls-1" x="13" y="1" width="14" height="6"/>
  </g>
</svg>