<?xml version="1.0" encoding="UTF-8"?>
<svg id="OBJECT" xmlns="http://www.w3.org/2000/svg" viewBox="0 0 32 32">
  <defs>
    <style>
      .cls-1 {
        fill: #FD4360;
      }

      .cls-1, .cls-2 {
        stroke-width: 0px;
      }

      .cls-2 {
        fill: #dadada;
      }
    </style>
  </defs>
  <g>
    <path class="cls-2" d="m27.9,9.1c-.42-1.81-2.04-3.15-4.02-3.1-1.28-2.98-4.4-5-7.88-5s-6.59,2.02-7.88,5c-1.98-.04-3.61,1.29-4.02,3.1-1.77.41-3.1,2-3.1,3.9,0,2.21,1.79,4,4,4h2c.55,0,1-.45,1-1s-.45-1-1-1h-2c-1.1,0-2-.9-2-2s.9-2,2-2c.55,0,1-.45,1-1,0-1.1.9-2,2-2,.15,0,.32.03.52.08.52.14,1.06-.16,1.22-.68.78-2.59,3.35-4.4,6.26-4.4s5.48,1.81,6.26,4.4c.16.52.7.82,1.22.68.2-.06.37-.08.52-.08,1.1,0,2,.9,2,2,0,.55.45,1,1,1,1.1,0,2,.9,2,2s-.9,2-2,2h-2c-.55,0-1,.45-1,1s.45,1,1,1h2c2.21,0,4-1.79,4-4,0-1.9-1.33-3.49-3.1-3.9Z"/>
    <path class="cls-2" d="m17,15h-2c-.55,0-1,.45-1,1s.45,1,1,1h2c.55,0,1-.45,1-1s-.45-1-1-1Z"/>
    <path class="cls-2" d="m15,7c0-.55-.45-1-1-1h-1c-.55,0-1,.45-1,1s.45,1,1,1h1c.55,0,1-.45,1-1Z"/>
    <path class="cls-2" d="m19,6h-1c-.55,0-1,.45-1,1s.45,1,1,1h1c.55,0,1-.45,1-1s-.45-1-1-1Z"/>
  </g>
  <path class="cls-1" d="m21.5,11h-1c-.55,0-1,.45-1,1v7h-7v-7c0-.55-.45-1-1-1h-1c-.55,0-1,.45-1,1v18c0,.55.45,1,1,1h1c.55,0,1-.45,1-1v-2h7v2c0,.55.45,1,1,1h1c.55,0,1-.45,1-1V12c0-.55-.45-1-1-1Zm-2,15h-7v-1.5h7v1.5Zm0-3.5h-7v-1.5h7v1.5Z"/>
</svg>