<?xml version="1.0" encoding="UTF-8"?>
<svg id="OBJECT" xmlns="http://www.w3.org/2000/svg" viewBox="0 0 32 32">
  <defs>
    <style>
      .cls-1 {
        fill: #FD4360;
      }

      .cls-1, .cls-2 {
        stroke-width: 0px;
      }

      .cls-2 {
        fill: #dadada;
      }
    </style>
  </defs>
  <path class="cls-2" d="m28,1H4c-1.65,0-3,1.35-3,3v24c0,1.65,1.35,3,3,3h24c1.65,0,3-1.35,3-3V4c0-1.65-1.35-3-3-3ZM4,3h24c.55,0,1,.45,1,1v18h-4c-1.65,0-3,1.35-3,3v4h-12v-4c0-1.65-1.35-3-3-3H3V4c0-.55.45-1,1-1Zm-1,25v-4h4c.55,0,1,.45,1,1v4h-4c-.55,0-1-.45-1-1Zm25,1h-4v-4c0-.55.45-1,1-1h4v4c0,.55-.45,1-1,1Z"/>
  <g>
    <rect class="cls-1" x="5" y="5" width="22" height="7" rx="2" ry="2"/>
    <path class="cls-1" d="m16,19.19c-1.12,0-2.17.45-2.97,1.25-.39.4-.38,1.03.02,1.41.4.39,1.03.38,1.41-.02.82-.84,2.25-.84,3.07,0,.2.2.46.3.72.3s.5-.09.7-.29c.4-.39.4-1.02.02-1.41-.79-.81-1.84-1.25-2.97-1.25Z"/>
    <path class="cls-1" d="m16,14.9c-1.97,0-3.82.78-5.21,2.21-.39.39-.38,1.03.02,1.41.4.39,1.03.38,1.41-.02,1.01-1.04,2.36-1.6,3.79-1.6s2.77.57,3.79,1.6c.2.2.46.3.71.3s.5-.09.7-.29c.4-.39.4-1.02.02-1.41-1.39-1.42-3.24-2.21-5.21-2.21Z"/>
    <path class="cls-1" d="m16.25,23h-.5c-.55,0-1,.45-1,1s.45,1,1,1h.5c.55,0,1-.45,1-1s-.45-1-1-1Z"/>
  </g>
</svg>