<?xml version="1.0" encoding="UTF-8"?>
<svg id="OBJECT" xmlns="http://www.w3.org/2000/svg" viewBox="0 0 32 32">
  <defs>
    <style>
      .cls-1 {
        fill: #FD4360;
      }

      .cls-1, .cls-2 {
        stroke-width: 0px;
      }

      .cls-2 {
        fill: #dadada;
      }
    </style>
  </defs>
  <path class="cls-2" d="m30,15h-15c-.55,0-1,.45-1,1v6h-2.32l-1.25-3.12c-.46-1.14-1.55-1.88-2.79-1.88H2c-.55,0-1,.45-1,1v4c0,.55.45,1,1,1h3.32l1.25,3.12c.46,1.14,1.55,1.88,2.79,1.88h18.65c1.65,0,3-1.35,3-3v-9c0-.55-.45-1-1-1Zm-12.5,2v2c0,.55.45,1,1,1s1-.45,1-1v-2h2v2c0,.55.45,1,1,1s1-.45,1-1v-2h2v2c0,.55.45,1,1,1s1-.45,1-1v-2h1.5v5h-13v-5h1.5Zm10.5,9H9.35c-.41,0-.78-.25-.93-.63l-1.5-3.74c-.15-.38-.52-.63-.93-.63h-3v-2h4.65c.41,0,.78.25.93.63l1.5,3.74c.15.38.52.63.93.63h18v1c0,.55-.45,1-1,1Z"/>
  <path class="cls-1" d="m26.17,4.11c-.43-.22-.96-.1-1.25.29-.29.38-.27.92.06,1.28.1.1.35.38.08,1.18-.28.84-.89,1.39-1.54,1.39h-4.52c-1.01,0-1.93.51-2.6,1.42-.68.93-.98,2.14-.89,3.33h13.7c1.4-6.55-3-8.87-3.05-8.89Z"/>
</svg>