<?xml version="1.0" encoding="UTF-8"?>
<svg id="OBJECT" xmlns="http://www.w3.org/2000/svg" viewBox="0 0 32 32">
  <defs>
    <style>
      .cls-1 {
        fill: #FD4360;
      }

      .cls-1, .cls-2 {
        stroke-width: 0px;
      }

      .cls-2 {
        fill: #dadada;
      }
    </style>
  </defs>
  <g>
    <path class="cls-2" d="m16,21c1.93,0,3.5-1.57,3.5-3.5s-1.57-3.5-3.5-3.5-3.5,1.57-3.5,3.5,1.57,3.5,3.5,3.5Zm0-5c.83,0,1.5.67,1.5,1.5s-.67,1.5-1.5,1.5-1.5-.67-1.5-1.5.67-1.5,1.5-1.5Z"/>
    <path class="cls-2" d="m30,29h-6v-13.28l1,.57c.16.09.33.13.5.13.35,0,.68-.18.87-.5.27-.48.11-1.09-.37-1.36l-9-5.14v-2.42h5c.35,0,.67-.18.85-.47s.2-.66.04-.97l-.78-1.55.78-1.55c.16-.31.14-.68-.04-.97s-.5-.47-.85-.47h-6c-.55,0-1,.45-1,1v7.42l-9,5.14c-.48.27-.65.88-.37,1.36.27.48.88.65,1.36.37l1-.57v13.28H2c-.55,0-1,.45-1,1s.45,1,1,1h28c.55,0,1-.45,1-1s-.45-1-1-1ZM17,3h3.38l-.28.55c-.14.28-.14.61,0,.89l.28.55h-3.38v-2Zm-7,11.58l6-3.43,6,3.43v14.42h-2.5v-4c.55,0,1-.45,1-1s-.45-1-1-1h-7c-.55,0-1,.45-1,1s.45,1,1,1v4h-2.5v-14.42Zm7.5,10.42v4h-3v-4h3Z"/>
  </g>
  <g>
    <path class="cls-1" d="m29,19h-3v8h3v-6c.55,0,1-.45,1-1s-.45-1-1-1Z"/>
    <path class="cls-1" d="m2,20c0,.55.45,1,1,1v6h3v-8h-3c-.55,0-1,.45-1,1Z"/>
  </g>
</svg>