<?xml version="1.0" encoding="UTF-8"?>
<svg id="OBJECT" xmlns="http://www.w3.org/2000/svg" viewBox="0 0 32 32">
  <defs>
    <style>
      .cls-1 {
        fill: #FD4360;
      }

      .cls-1, .cls-2 {
        stroke-width: 0px;
      }

      .cls-2 {
        fill: #dadada;
      }
    </style>
  </defs>
  <g>
    <path class="cls-2" d="m12.82,7h1.37c.55,0,1-.45,1-1s-.45-1-1-1h-1.37c-.55,0-1,.45-1,1s.45,1,1,1Z"/>
    <path class="cls-2" d="m17.82,7h1.37c.55,0,1-.45,1-1s-.45-1-1-1h-1.37c-.55,0-1,.45-1,1s.45,1,1,1Z"/>
    <path class="cls-2" d="m12.82,11h1.37c.55,0,1-.45,1-1s-.45-1-1-1h-1.37c-.55,0-1,.45-1,1s.45,1,1,1Z"/>
    <path class="cls-2" d="m17.82,11h1.37c.55,0,1-.45,1-1s-.45-1-1-1h-1.37c-.55,0-1,.45-1,1s.45,1,1,1Z"/>
    <path class="cls-2" d="m14.18,15c.55,0,1-.45,1-1s-.45-1-1-1h-1.37c-.55,0-1,.45-1,1s.45,1,1,1h1.37Z"/>
    <path class="cls-2" d="m17.82,15h1.37c.55,0,1-.45,1-1s-.45-1-1-1h-1.37c-.55,0-1,.45-1,1s.45,1,1,1Z"/>
    <path class="cls-2" d="m30,29h-7V2c0-.55-.45-1-1-1h-12c-.55,0-1,.45-1,1v27H2c-.55,0-1,.45-1,1s.45,1,1,1h28c.55,0,1-.45,1-1s-.45-1-1-1ZM11,3h10v26h-2v-9c0-.55-.45-1-1-1h-4c-.55,0-1,.45-1,1v9h-2V3Zm6,26h-2v-8h2v8Z"/>
  </g>
  <g>
    <path class="cls-1" d="m28,13h-3v14h4v-13c0-.55-.45-1-1-1Z"/>
    <path class="cls-1" d="m3,11v16h4V10h-3c-.55,0-1,.45-1,1Z"/>
  </g>
</svg>