<?xml version="1.0" encoding="UTF-8"?>
<svg id="OBJECT" xmlns="http://www.w3.org/2000/svg" viewBox="0 0 512 512">
  <defs>
    <style>
      .cls-1 {
        fill: #FD4360;
      }

      .cls-2 {
        fill: #dadada;
      }
    </style>
  </defs>
  <g>
    <path class="cls-2" d="M266,33.5H126c-4.14,0-7.5,3.36-7.5,7.5s3.36,7.5,7.5,7.5h140c4.14,0,7.5-3.36,7.5-7.5s-3.36-7.5-7.5-7.5Z"/>
    <path class="cls-2" d="M86,48.5h10c4.14,0,7.5-3.36,7.5-7.5s-3.36-7.5-7.5-7.5h-10c-4.14,0-7.5,3.36-7.5,7.5s3.36,7.5,7.5,7.5Z"/>
    <path class="cls-2" d="M226,73.5H86c-4.14,0-7.5,3.36-7.5,7.5s3.36,7.5,7.5,7.5H226c4.14,0,7.5-3.36,7.5-7.5s-3.36-7.5-7.5-7.5Z"/>
    <path class="cls-2" d="M266,73.5h-10c-4.14,0-7.5,3.36-7.5,7.5s3.36,7.5,7.5,7.5h10c4.14,0,7.5-3.36,7.5-7.5s-3.36-7.5-7.5-7.5Z"/>
    <path class="cls-2" d="M203.5,194.5c0-9.65-7.85-17.5-17.5-17.5h-20c-9.65,0-17.5,7.85-17.5,17.5v20c0,9.65,7.85,17.5,17.5,17.5h20c9.65,0,17.5-7.85,17.5-17.5v-20Zm-15,20c0,1.38-1.12,2.5-2.5,2.5h-20c-1.38,0-2.5-1.12-2.5-2.5v-20c0-1.38,1.12-2.5,2.5-2.5h20c1.38,0,2.5,1.12,2.5,2.5v20Z"/>
    <path class="cls-2" d="M133.5,194.5c0-9.65-7.85-17.5-17.5-17.5h-20c-9.65,0-17.5,7.85-17.5,17.5v20c0,9.65,7.85,17.5,17.5,17.5h20c9.65,0,17.5-7.85,17.5-17.5v-20Zm-15,20c0,1.38-1.12,2.5-2.5,2.5h-20c-1.38,0-2.5-1.12-2.5-2.5v-20c0-1.38,1.12-2.5,2.5-2.5h20c1.38,0,2.5,1.12,2.5,2.5v20Z"/>
    <path class="cls-2" d="M273.5,194.5c0-9.65-7.85-17.5-17.5-17.5h-20c-9.65,0-17.5,7.85-17.5,17.5v20c0,9.65,7.85,17.5,17.5,17.5h20c9.65,0,17.5-7.85,17.5-17.5v-20Zm-15,20c0,1.38-1.12,2.5-2.5,2.5h-20c-1.38,0-2.5-1.12-2.5-2.5v-20c0-1.38,1.12-2.5,2.5-2.5h20c1.38,0,2.5,1.12,2.5,2.5v20Z"/>
    <path class="cls-2" d="M186,257h-20c-9.65,0-17.5,7.85-17.5,17.5v20c0,9.65,7.85,17.5,17.5,17.5h20c9.65,0,17.5-7.85,17.5-17.5v-20c0-9.65-7.85-17.5-17.5-17.5Zm2.5,37.5c0,1.38-1.12,2.5-2.5,2.5h-20c-1.38,0-2.5-1.12-2.5-2.5v-20c0-1.38,1.12-2.5,2.5-2.5h20c1.38,0,2.5,1.12,2.5,2.5v20Z"/>
    <path class="cls-2" d="M116,257h-20c-9.65,0-17.5,7.85-17.5,17.5v20c0,9.65,7.85,17.5,17.5,17.5h20c9.65,0,17.5-7.85,17.5-17.5v-20c0-9.65-7.85-17.5-17.5-17.5Zm2.5,37.5c0,1.38-1.12,2.5-2.5,2.5h-20c-1.38,0-2.5-1.12-2.5-2.5v-20c0-1.38,1.12-2.5,2.5-2.5h20c1.38,0,2.5,1.12,2.5,2.5v20Z"/>
    <path class="cls-2" d="M256,257h-20c-9.65,0-17.5,7.85-17.5,17.5v20c0,9.65,7.85,17.5,17.5,17.5h20c9.65,0,17.5-7.85,17.5-17.5v-20c0-9.65-7.85-17.5-17.5-17.5Zm2.5,37.5c0,1.38-1.12,2.5-2.5,2.5h-20c-1.38,0-2.5-1.12-2.5-2.5v-20c0-1.38,1.12-2.5,2.5-2.5h20c1.38,0,2.5,1.12,2.5,2.5v20Z"/>
    <path class="cls-2" d="M116,399.5c-4.14,0-7.5,3.36-7.5,7.5v15c0,4.14,3.36,7.5,7.5,7.5s7.5-3.36,7.5-7.5v-15c0-4.14-3.36-7.5-7.5-7.5Z"/>
    <path class="cls-2" d="M504.5,467H183.5v-112.5c0-4.14-3.36-7.5-7.5-7.5H86c-4.14,0-7.5,3.36-7.5,7.5v112.5h-15V162h225v232.5c0,4.14,3.36,7.5,7.5,7.5s7.5-3.36,7.5-7.5V154.5c0-4.14-3.36-7.5-7.5-7.5h-47.5v-25h47.5c4.14,0,7.5-3.36,7.5-7.5V7.5c0-4.14-3.36-7.5-7.5-7.5H56c-4.14,0-7.5,3.36-7.5,7.5V114.5c0,4.14,3.36,7.5,7.5,7.5h47.5v25H56c-4.14,0-7.5,3.36-7.5,7.5V467H7.5c-4.14,0-7.5,3.36-7.5,7.5v15c0,12.41,10.09,22.5,22.5,22.5H489.5c12.41,0,22.5-10.09,22.5-22.5v-15c0-4.14-3.36-7.5-7.5-7.5ZM193.5,122v25h-35v-25h35Zm40,25h-25v-25h25v25ZM63.5,15h225V107H63.5V15Zm55,107h25v25h-25v-25Zm-25,240h75v105H93.5v-105Zm403.5,127.5c0,4.14-3.36,7.5-7.5,7.5H22.5c-4.14,0-7.5-3.36-7.5-7.5v-7.5H497v7.5Z"/>
  </g>
  <g>
    <path class="cls-1" d="M346,417h-100c-4.14,0-7.5,3.36-7.5,7.5v27.5h115v-27.5c0-4.14-3.36-7.5-7.5-7.5Z"/>
    <path class="cls-1" d="M318.5,217v185h27.5c12.43,0,22.5,10.07,22.5,22.5v27.5h95V217h-145Zm37.5,165h-10c-4.14,0-7.5-3.36-7.5-7.5s3.36-7.5,7.5-7.5h10c4.14,0,7.5,3.36,7.5,7.5s-3.36,7.5-7.5,7.5Zm0-40h-10c-4.14,0-7.5-3.36-7.5-7.5s3.36-7.5,7.5-7.5h10c4.14,0,7.5,3.36,7.5,7.5s-3.36,7.5-7.5,7.5Zm0-40h-10c-4.14,0-7.5-3.36-7.5-7.5s3.36-7.5,7.5-7.5h10c4.14,0,7.5,3.36,7.5,7.5s-3.36,7.5-7.5,7.5Zm0-40h-10c-4.14,0-7.5-3.36-7.5-7.5s3.36-7.5,7.5-7.5h10c4.14,0,7.5,3.36,7.5,7.5s-3.36,7.5-7.5,7.5Zm40,120h-10c-4.14,0-7.5-3.36-7.5-7.5s3.36-7.5,7.5-7.5h10c4.14,0,7.5,3.36,7.5,7.5s-3.36,7.5-7.5,7.5Zm0-40h-10c-4.14,0-7.5-3.36-7.5-7.5s3.36-7.5,7.5-7.5h10c4.14,0,7.5,3.36,7.5,7.5s-3.36,7.5-7.5,7.5Zm0-40h-10c-4.14,0-7.5-3.36-7.5-7.5s3.36-7.5,7.5-7.5h10c4.14,0,7.5,3.36,7.5,7.5s-3.36,7.5-7.5,7.5Zm0-40h-10c-4.14,0-7.5-3.36-7.5-7.5s3.36-7.5,7.5-7.5h10c4.14,0,7.5,3.36,7.5,7.5s-3.36,7.5-7.5,7.5Zm40,120h-10c-4.14,0-7.5-3.36-7.5-7.5s3.36-7.5,7.5-7.5h10c4.14,0,7.5,3.36,7.5,7.5s-3.36,7.5-7.5,7.5Zm0-40h-10c-4.14,0-7.5-3.36-7.5-7.5s3.36-7.5,7.5-7.5h10c4.14,0,7.5,3.36,7.5,7.5s-3.36,7.5-7.5,7.5Zm0-40h-10c-4.14,0-7.5-3.36-7.5-7.5s3.36-7.5,7.5-7.5h10c4.14,0,7.5,3.36,7.5,7.5s-3.36,7.5-7.5,7.5Zm0-40h-10c-4.14,0-7.5-3.36-7.5-7.5s3.36-7.5,7.5-7.5h10c4.14,0,7.5,3.36,7.5,7.5s-3.36,7.5-7.5,7.5Z"/>
  </g>
</svg>