<?xml version="1.0" encoding="UTF-8"?>
<svg id="OBJECT" xmlns="http://www.w3.org/2000/svg" viewBox="0 0 32 32">
  <defs>
    <style>
      .cls-1 {
        fill: #FD4360;
      }

      .cls-1, .cls-2 {
        stroke-width: 0px;
      }

      .cls-2 {
        fill: #dadada;
      }
    </style>
  </defs>
  <g>
    <path class="cls-2" d="m22.69,12.97c-.2-.19-.47-.3-.74-.28-2.98.11-5.18-2.33-5.2-2.35-.38-.43-1.13-.43-1.51,0-.02.03-2.21,2.47-5.2,2.35-.26-.01-.54.09-.74.28s-.31.45-.31.72v5.04c0,3.42,1.86,6.57,4.85,8.22l1.67.92c.15.08.32.12.48.12s.33-.04.48-.12l1.67-.92c2.99-1.65,4.85-4.8,4.85-8.22v-5.04c0-.27-.11-.53-.31-.72Zm-1.69,5.77c0,2.69-1.46,5.17-3.82,6.47l-1.18.65-1.18-.65c-2.35-1.3-3.82-3.78-3.82-6.47v-4.07c2.28-.22,4.05-1.46,5-2.27.95.82,2.72,2.05,5,2.27v4.07Z"/>
    <path class="cls-2" d="m14.47,18.14c-.38-.4-1.02-.41-1.41-.03-.4.38-.41,1.02-.03,1.41l1.61,1.67c.19.2.45.31.72.31s.53-.11.72-.31l2.89-3c.38-.4.37-1.03-.03-1.41-.4-.38-1.03-.37-1.41.03l-2.17,2.25-.89-.92Z"/>
  </g>
  <path class="cls-1" d="m27.38,13.02c-.39-1.53-1.66-2.71-3.24-2.97-1.07-3.55-4.37-6.05-8.14-6.05s-7.07,2.5-8.14,6.05c-1.58.26-2.85,1.44-3.24,2.97-2.03.19-3.62,1.9-3.62,3.98,0,2.21,1.79,4,4,4h2.25c-.15-.74-.25-1.49-.25-2.27v-5.04c0-.82.34-1.61.93-2.17.55-.53,1.31-.83,2.07-.83h.25c1.94,0,3.49-1.66,3.5-1.68.55-.63,1.37-1,2.25-1s1.69.37,2.25,1c0,0,1.58,1.68,3.51,1.68h.25c.75,0,1.5.3,2.06.83.58.56.92,1.35.92,2.17v5.04c0,.77-.1,1.53-.25,2.27h2.25c2.21,0,4-1.79,4-4,0-2.08-1.59-3.79-3.62-3.98Z"/>
</svg>