<?xml version="1.0" encoding="UTF-8"?>
<svg id="OBJECT" xmlns="http://www.w3.org/2000/svg" viewBox="0 0 32 32">
  <defs>
    <style>
      .cls-1 {
        fill: #FD4360;
      }

      .cls-2 {
        fill: #dadada;
      }
    </style>
  </defs>
  <g>
    <path class="cls-2" d="M14,22H6c-.55,0-1,.45-1,1s.45,1,1,1H14c.55,0,1-.45,1-1s-.45-1-1-1Z"/>
    <path class="cls-2" d="M14,17.5H6c-.55,0-1,.45-1,1s.45,1,1,1H14c.55,0,1-.45,1-1s-.45-1-1-1Z"/>
    <path class="cls-2" d="M14,13H6c-.55,0-1,.45-1,1s.45,1,1,1H14c.55,0,1-.45,1-1s-.45-1-1-1Z"/>
    <path class="cls-2" d="M21.71,7.29L15.71,1.29c-.19-.19-.44-.29-.71-.29H3.5c-1.38,0-2.5,1.12-2.5,2.5V25.5c0,1.38,1.12,2.5,2.5,2.5h14c.55,0,1-.45,1-1s-.45-1-1-1H3.5c-.28,0-.5-.22-.5-.5V3.5c0-.28,.22-.5,.5-.5H14v3.5c0,1.38,1.12,2.5,2.5,2.5h3.5v4.52c0,.55,.45,1,1,1s1-.45,1-1v-5.52c0-.27-.11-.52-.29-.71Zm-5.71-.79v-2.09l2.59,2.59h-2.09c-.28,0-.5-.22-.5-.5Z"/>
    <path class="cls-2" d="M6,7h.5c.55,0,1-.45,1-1s-.45-1-1-1h-.5c-.55,0-1,.45-1,1s.45,1,1,1Z"/>
    <path class="cls-2" d="M10.5,7c.55,0,1-.45,1-1s-.45-1-1-1h-.5c-.55,0-1,.45-1,1s.45,1,1,1h.5Z"/>
  </g>
  <path class="cls-1" d="M30.66,16.88c-.21-.19-.5-.28-.78-.24-2.13,.25-4.07-2.22-4.08-2.24-.19-.25-.48-.39-.79-.39h0c-.31,0-.6,.15-.79,.39-.02,.03-1.96,2.51-4.08,2.24-.28-.04-.57,.05-.78,.24-.21,.19-.34,.46-.34,.75v6.01c0,1.85,.84,3.57,2.29,4.72l3.09,2.43c.18,.14,.4,.21,.62,.21s.44-.07,.62-.21l3.09-2.43c1.46-1.14,2.29-2.86,2.29-4.72v-6.01c0-.29-.12-.56-.34-.75Zm-2.68,4.8l-2.78,3c-.19,.21-.46,.32-.73,.32s-.54-.12-.73-.32l-1.72-1.86c-.38-.41-.35-1.04,.05-1.41,.4-.38,1.04-.35,1.41,.05l.99,1.07,2.04-2.21c.38-.41,1.01-.43,1.41-.06,.41,.38,.43,1.01,.06,1.41Z"/>
</svg>