<?xml version="1.0" encoding="UTF-8"?>
<svg id="OBJECT" xmlns="http://www.w3.org/2000/svg" viewBox="0 0 32 32">
  <defs>
    <style>
      .cls-1 {
        fill: #FD4360;
      }

      .cls-1, .cls-2 {
        stroke-width: 0px;
      }

      .cls-2 {
        fill: #dadada;
      }
    </style>
  </defs>
  <path class="cls-1" d="m19.38,6.2h-6.75c-1.17,0-2.12.95-2.12,2.12v7.35c0,1.17.95,2.12,2.12,2.12h6.75c1.17,0,2.12-.95,2.12-2.12v-7.35c0-1.17-.95-2.12-2.12-2.12Zm-.78,5.53c0,1.21-.99,2.2-2.2,2.2h-.8c-1.21,0-2.2-.99-2.2-2.2v-1.47c0-.55.45-1,1-1s1,.45,1,1v1.47c0,.11.09.2.2.2h.8c.11,0,.2-.09.2-.2v-1.47c0-.55.45-1,1-1s1,.45,1,1v1.47Z"/>
  <g>
    <path class="cls-2" d="m27,12c0-6.07-4.93-11-11-11S5,5.93,5,12c0,4.43,2.63,8.24,6.41,9.98l2.28,5.48c.39.93,1.3,1.54,2.31,1.54s1.92-.6,2.31-1.54l2.28-5.48c3.78-1.74,6.41-5.56,6.41-9.98Zm-20,0c0-4.96,4.04-9,9-9s9,4.04,9,9-4.04,9-9,9-9-4.04-9-9Zm9.46,14.69c-.16.38-.77.37-.92,0l-1.62-3.9c.68.13,1.37.2,2.09.2s1.41-.07,2.08-.2l-1.62,3.9Z"/>
    <path class="cls-2" d="m11.45,26.66c-.51-1.02-1.54-1.66-2.68-1.66H2c-.55,0-1,.45-1,1v4c0,.55.45,1,1,1h10c.35,0,.67-.18.85-.47s.2-.66.04-.97l-1.45-2.89Zm-8.45,2.34v-2h5.76c.38,0,.72.21.89.55l.72,1.45H3Z"/>
    <path class="cls-2" d="m30,25h-6.76c-1.14,0-2.17.64-2.68,1.66l-1.45,2.89c-.16.31-.14.68.04.97s.5.47.85.47h10c.55,0,1-.45,1-1v-4c0-.55-.45-1-1-1Zm-1,4h-7.38l.72-1.45c.17-.34.51-.55.89-.55h5.76v2Z"/>
  </g>
</svg>