<?xml version="1.0" encoding="UTF-8"?>
<svg id="OBJECT" xmlns="http://www.w3.org/2000/svg" viewBox="0 0 512 512">
  <defs>
    <style>
      .cls-1 {
        fill: #FD4360;
      }

      .cls-2 {
        fill: #dadada;
      }
    </style>
  </defs>
  <g>
    <path class="cls-2" d="M459.65,135.94c-.52-1.92-1.77-3.56-3.49-4.55l-13.55-7.82c-5.35-3.09-11.59-3.91-17.56-2.31-5.97,1.6-10.96,5.43-14.05,10.78l-131.84,228.35-12.46-7.19c-3.59-2.07-8.17-.84-10.25,2.75-2.07,3.59-.84,8.17,2.75,10.25l5.68,3.28-56.22,97.38c-7.82,13.54-3.16,30.92,10.38,38.74l4.52,2.61c4.37,2.52,9.22,3.81,14.13,3.81,2.46,0,4.94-.32,7.39-.98,7.32-1.96,13.43-6.65,17.22-13.21l56.22-97.38,5.68,3.28c1.18,.68,2.47,1.01,3.74,1.01,2.59,0,5.11-1.35,6.5-3.75,2.07-3.59,.84-8.17-2.75-10.25l-12.46-7.19,139.66-241.9c.99-1.72,1.26-3.77,.75-5.69ZM241.19,496.53c-3.45,.92-7.05,.45-10.14-1.33l-4.52-2.61c-6.38-3.68-8.57-11.87-4.89-18.25l6.68-11.57,27.66,15.97-6.68,11.57c-1.78,3.09-4.67,5.3-8.11,6.22Zm22.29-30.78l-27.66-15.97,42.04-72.82,27.66,15.97-42.04,72.82Zm42.77-89.72l-14.11-8.14,131.84-228.35c1.09-1.88,2.84-3.23,4.95-3.79,2.1-.56,4.3-.27,6.18,.81l7.05,4.07-135.91,235.4Z"/>
    <path class="cls-2" d="M126.85,390.72l-12.46-7.19L254.06,141.63c2.07-3.59,.84-8.17-2.75-10.25l-13.55-7.82c-5.35-3.09-11.59-3.91-17.56-2.31-5.97,1.6-10.96,5.43-14.05,10.78L74.31,360.38l-12.46-7.19c-3.59-2.07-8.17-.84-10.25,2.75s-.84,8.17,2.75,10.25l5.68,3.28L3.81,466.84c-3.79,6.56-4.79,14.2-2.83,21.52s6.65,13.43,13.21,17.22l4.52,2.61c4.46,2.57,9.32,3.79,14.13,3.79,9.81,0,19.36-5.09,24.61-14.17l56.22-97.38,5.68,3.28c1.18,.68,2.47,1.01,3.74,1.01,2.59,0,5.11-1.35,6.5-3.75,2.07-3.59,.84-8.17-2.75-10.25Zm92.28-251.19c1.09-1.88,2.84-3.23,4.94-3.79,2.1-.56,4.3-.27,6.18,.81l7.05,4.07L101.41,376.03l-14.11-8.14L219.14,139.53ZM26.21,495.2l-4.52-2.61c-3.09-1.78-5.3-4.67-6.22-8.11-.92-3.45-.45-7.05,1.33-10.14l6.68-11.57,27.66,15.97-6.68,11.57c-3.68,6.38-11.87,8.57-18.25,4.89Zm32.43-29.45l-27.66-15.97,42.04-72.82,27.66,15.97-42.04,72.82Z"/>
  </g>
  <path class="cls-1" d="M511.41,13.4c-.92-2.17-2.8-3.78-5.08-4.35l-27.87-6.98c-30.19-7.56-62.15,5.99-77.71,32.94l-101.78,176.29c-14.02,24.28-12.24,54.47,4.52,76.93l94.51-163.7c5.09-8.82,13.32-15.14,23.16-17.77,3.24-.87,6.58-1.31,9.91-1.31,6.65,0,13.23,1.77,19.03,5.12l6.48,3.74,54.41-94.25c1.18-2.04,1.33-4.51,.41-6.68Zm-56.39,54.65l-5,8.66c-1.39,2.41-3.91,3.75-6.5,3.75-1.27,0-2.56-.32-3.74-1.01-3.59-2.07-4.82-6.66-2.75-10.25l5-8.66c2.07-3.59,6.66-4.82,10.25-2.75,3.59,2.07,4.82,6.66,2.75,10.25Zm20-34.64l-5,8.66c-1.39,2.41-3.91,3.75-6.5,3.75-1.27,0-2.56-.32-3.74-1.01-3.59-2.07-4.82-6.66-2.75-10.25l5-8.66c2.07-3.59,6.66-4.82,10.25-2.75,3.59,2.07,4.82,6.66,2.75,10.25Z"/>
  <path class="cls-1" d="M193.14,124.54c5.09-8.82,13.32-15.14,23.16-17.77,3.24-.87,6.58-1.31,9.91-1.31,6.65,0,13.23,1.77,19.03,5.12l6.48,3.74,54.41-94.25c1.18-2.04,1.33-4.51,.41-6.68-.92-2.17-2.8-3.78-5.08-4.35l-27.87-6.98c-30.19-7.56-62.15,5.99-77.71,32.94L94.11,211.31c-14.02,24.28-12.24,54.47,4.52,76.93L193.14,124.54Zm59.03-89.98l5-8.66c2.07-3.59,6.66-4.82,10.25-2.75,3.59,2.07,4.82,6.66,2.75,10.25l-5,8.66c-1.39,2.41-3.91,3.75-6.5,3.75-1.27,0-2.56-.32-3.74-1.01-3.59-2.07-4.82-6.66-2.75-10.25Zm-20,34.64l5-8.66c2.07-3.59,6.66-4.82,10.25-2.75,3.59,2.07,4.82,6.66,2.75,10.25l-5,8.66c-1.39,2.41-3.91,3.75-6.5,3.75-1.27,0-2.56-.32-3.74-1.01-3.59-2.07-4.82-6.66-2.75-10.25Z"/>
</svg>