<?xml version="1.0" encoding="UTF-8"?>
<svg id="OBJECT" xmlns="http://www.w3.org/2000/svg" viewBox="0 0 32 32">
  <defs>
    <style>
      .cls-1 {
        fill: #FD4360;
      }

      .cls-1, .cls-2 {
        stroke-width: 0px;
      }

      .cls-2 {
        fill: #dadada;
      }
    </style>
  </defs>
  <path class="cls-2" d="m30,14h-10.5v-2.4c1.46.08,2.92.21,4.38.39.04,0,.08,0,.12,0,.24,0,.48-.09.66-.25.22-.19.34-.46.34-.75V2c0-.29-.12-.56-.34-.75-.21-.19-.5-.28-.79-.24-5.23.65-10.53.65-15.75,0-.29-.04-.57.05-.79.24-.22.19-.34.46-.34.75v9c0,.29.12.56.34.75.21.19.5.28.79.24,1.45-.18,2.91-.31,4.38-.39v2.4H2c-.55,0-1,.45-1,1s.45,1,1,1v3c0,.55.45,1,1,1h9c.55,0,1-.45,1-1v-3h15v14c0,.55.45,1,1,1s1-.45,1-1v-14c.55,0,1-.45,1-1s-.45-1-1-1ZM9,3.12c4.65.5,9.35.5,14,0v6.75c-2.33-.25-4.66-.37-7-.37s-4.67.12-7,.37V3.12Zm5.5,8.4c1-.02,2-.02,3,0v2.47h-3v-2.47Zm-3.5,6.47h-7v-2h7v2Z"/>
  <g>
    <path class="cls-1" d="m2,31h11v-10H2v10Zm7-6.5c0-.55.45-1,1-1s1,.45,1,1v3c0,.55-.45,1-1,1s-1-.45-1-1v-3Z"/>
    <rect class="cls-1" x="15" y="25" width="11" height="2"/>
  </g>
</svg>