<?xml version="1.0" encoding="UTF-8"?>
<svg id="OBJECT" xmlns="http://www.w3.org/2000/svg" viewBox="0 0 32 32">
  <defs>
    <style>
      .cls-1 {
        fill: #FD4360;
      }

      .cls-1, .cls-2 {
        stroke-width: 0px;
      }

      .cls-2 {
        fill: #dadada;
      }
    </style>
  </defs>
  <g>
    <path class="cls-2" d="m20,1h-8c-2.76,0-5,2.24-5,5v12c0,2.76,2.24,5,5,5h8c2.76,0,5-2.24,5-5V6c0-2.76-2.24-5-5-5Zm3,17c0,1.65-1.35,3-3,3h-8c-1.65,0-3-1.35-3-3V6c0-1.65,1.35-3,3-3h8c1.65,0,3,1.35,3,3v12Z"/>
    <path class="cls-2" d="m18.5,8.5c-.39-.39-1.02-.39-1.41,0l-5.8,5.8c-.39.39-.39,1.02,0,1.41.2.2.45.29.71.29s.51-.1.71-.29l5.8-5.8c.39-.39.39-1.02,0-1.41Z"/>
    <path class="cls-2" d="m19.29,6.29l-.17.17c-.39.39-.39,1.02,0,1.41.2.2.45.29.71.29s.51-.1.71-.29l.17-.17c.39-.39.39-1.02,0-1.41s-1.02-.39-1.41,0Z"/>
    <path class="cls-2" d="m19.28,11.28l-3,3c-.39.39-.39,1.02,0,1.41.2.2.45.29.71.29s.51-.1.71-.29l3-3c.39-.39.39-1.02,0-1.41s-1.02-.39-1.41,0Z"/>
  </g>
  <path class="cls-1" d="m27,29h-6.15l-.67-4h-8.36l-.67,4h-6.15c-.55,0-1,.45-1,1s.45,1,1,1h22c.55,0,1-.45,1-1s-.45-1-1-1Zm-10-.75c0,.55-.45,1-1,1s-1-.45-1-1v-.5c0-.55.45-1,1-1s1,.45,1,1v.5Z"/>
</svg>