<?xml version="1.0" encoding="UTF-8"?>
<svg id="OBJECT" xmlns="http://www.w3.org/2000/svg" viewBox="0 0 32 32">
  <defs>
    <style>
      .cls-1 {
        fill: #FD4360;
      }

      .cls-1, .cls-2 {
        stroke-width: 0px;
      }

      .cls-2 {
        fill: #dadada;
      }
    </style>
  </defs>
  <g>
    <path class="cls-2" d="m10,27.5h12c.55,0,1-.45,1-1v-4c0-.55-.45-1-1-1h-12c-.55,0-1,.45-1,1v4c0,.55.45,1,1,1Zm1-4h10v2h-10v-2Z"/>
    <path class="cls-2" d="m27,18h-12.98V7.16c0-.94-.31-1.87-.87-2.62l-1.15-1.53v-1.01c0-.55-.45-1-1-1s-1,.45-1,1v1.01l-1.15,1.53c-.56.75-.87,1.68-.87,2.62v10.84h-2.98c-.55,0-1,.45-1,1s.45,1,1,1h.5v8c0,1.65,1.35,3,3,3h15c1.65,0,3-1.35,3-3v-8h.5c.55,0,1-.45,1-1s-.45-1-1-1ZM10.45,5.74l.55-.73.55.73c.27.37.43.81.46,1.26-.56.48-1.45.48-2.02,0,.03-.45.19-.9.46-1.26Zm-.47,3.49c.33.1.67.17,1.02.17s.69-.07,1.02-.17v8.77h-2.04v-8.77Zm14.52,18.77c0,.55-.45,1-1,1h-15c-.55,0-1-.45-1-1v-8h17v8Z"/>
  </g>
  <g>
    <path class="cls-1" d="m21.15,2.5c0-.83-.67-1.5-1.5-1.5h-.5c-.83,0-1.5.67-1.5,1.5v2.5h3.5v-2.5Z"/>
    <path class="cls-1" d="m16.06,13.01c-.04.95-.07,1.96-.07,2.99h6.81c0-1.03-.02-2.04-.07-2.99h-6.68Z"/>
    <path class="cls-1" d="m26.9,15.36c-.54-1.13-.74-3.06-.57-5.41.06-.76-.21-1.52-.73-2.08-.52-.56-1.25-.87-2.01-.87h-7.03c-.12.92-.27,2.32-.39,4.01h6.45c-.05-.73-.11-1.4-.17-2.01h1.14c.21,0,.4.08.54.24.14.15.21.36.2.57-.14,1.91-.12,4.57.76,6.42.17.36.53.57.9.57.14,0,.29-.03.43-.1.5-.24.71-.83.47-1.33Z"/>
  </g>
</svg>