<?xml version="1.0" encoding="UTF-8"?>
<svg id="OBJECT" xmlns="http://www.w3.org/2000/svg" viewBox="0 0 32 32">
  <defs>
    <style>
      .cls-1 {
        fill: #FD4360;
      }

      .cls-1, .cls-2 {
        stroke-width: 0px;
      }

      .cls-2 {
        fill: #dadada;
      }
    </style>
  </defs>
  <g>
    <path class="cls-2" d="m5.5,4v-2c0-.55-.45-1-1-1s-1,.45-1,1v2c-1.38,0-2.5,1.12-2.5,2.5v13c0,1.38,1.12,2.5,2.5,2.5v2c0,.55.45,1,1,1s1-.45,1-1v-2c1.38,0,2.5-1.12,2.5-2.5V6.5c0-1.38-1.12-2.5-2.5-2.5Zm.5,15.5c0,.28-.22.5-.5.5h-2c-.28,0-.5-.22-.5-.5V6.5c0-.28.22-.5.5-.5h2c.28,0,.5.22.5.5v13Z"/>
    <path class="cls-2" d="m14.5,4v-2c0-.55-.45-1-1-1s-1,.45-1,1v2c-1.38,0-2.5,1.12-2.5,2.5v6c0,1.38,1.12,2.5,2.5,2.5v3c0,.55.45,1,1,1s1-.45,1-1v-3c1.38,0,2.5-1.12,2.5-2.5v-6c0-1.38-1.12-2.5-2.5-2.5Zm.5,8.5c0,.28-.22.5-.5.5h-2c-.28,0-.5-.22-.5-.5v-6c0-.28.22-.5.5-.5h2c.28,0,.5.22.5.5v6Z"/>
  </g>
  <path class="cls-1" d="m23,15c-4.41,0-8,3.59-8,8s3.59,8,8,8,8-3.59,8-8-3.59-8-8-8Zm-.7,7h1.4c1.32,0,2.4,1.08,2.4,2.4,0,1.22-.92,2.22-2.1,2.37v.43c0,.55-.45,1-1,1s-1-.45-1-1v-.4h-1.1c-.55,0-1-.45-1-1s.45-1,1-1h2.8c.22,0,.4-.18.4-.4s-.18-.4-.4-.4h-1.4c-1.32,0-2.4-1.08-2.4-2.4,0-1.22.92-2.22,2.1-2.37v-.43c0-.55.45-1,1-1s1,.45,1,1v.4h1.1c.55,0,1,.45,1,1s-.45,1-1,1h-2.8c-.22,0-.4.18-.4.4s.18.4.4.4Z"/>
</svg>