<?xml version="1.0" encoding="UTF-8"?>
<svg id="OBJECT" xmlns="http://www.w3.org/2000/svg" viewBox="0 0 32 32">
  <defs>
    <style>
      .cls-1 {
        fill: #FD4360;
      }

      .cls-1, .cls-2 {
        stroke-width: 0px;
      }

      .cls-2 {
        fill: #dadada;
      }
    </style>
  </defs>
  <path class="cls-1" d="m11.25,7h9c.55,0,1-.45,1-1v-2c0-1.65-1.35-3-3-3h-5c-1.65,0-3,1.35-3,3v2c0,.55.45,1,1,1Z"/>
  <g>
    <path class="cls-2" d="m25.46,3h-2.22c-.55,0-1,.45-1,1s.45,1,1,1h2.22c.29,0,.54.22.54.5v23c0,.28-.24.5-.54.5H6.54c-.29,0-.54-.22-.54-.5V5.5c0-.28.24-.5.54-.5h1.71c.55,0,1-.45,1-1s-.45-1-1-1h-1.71c-1.4,0-2.54,1.12-2.54,2.5v23c0,1.38,1.14,2.5,2.54,2.5h18.93c1.4,0,2.54-1.12,2.54-2.5V5.5c0-1.38-1.14-2.5-2.54-2.5Z"/>
    <path class="cls-2" d="m23.71,22.29c-.39-.39-1.02-.39-1.41,0l-.79.79-.79-.79c-.39-.39-1.02-.39-1.41,0s-.39,1.02,0,1.41l.79.79-.79.79c-.39.39-.39,1.02,0,1.41.2.2.45.29.71.29s.51-.1.71-.29l.79-.79.79.79c.2.2.45.29.71.29s.51-.1.71-.29c.39-.39.39-1.02,0-1.41l-.79-.79.79-.79c.39-.39.39-1.02,0-1.41Z"/>
    <path class="cls-2" d="m15.91,23.5c-.55,0-1,.45-1,1s.45,1,1,1h1c.55,0,1-.45,1-1s-.45-1-1-1h-1Z"/>
    <path class="cls-2" d="m17.67,13.5h3.33c.55,0,1,.45,1,1v2.43c0,.55-.45,1-1,1h-10.33c-1.65,0-3,1.35-3,3v1.57c0,1.65,1.35,3,3,3h2.38c.55,0,1-.45,1-1s-.45-1-1-1h-2.38c-.55,0-1-.45-1-1v-1.57c0-.55.45-1,1-1h10.33c1.65,0,3-1.35,3-3v-2.43c0-1.65-1.35-3-3-3h-3.33c-.55,0-1,.45-1,1s.45,1,1,1Z"/>
    <path class="cls-2" d="m7.67,12.5c0,2.21,1.79,4,4,4s4-1.79,4-4-1.79-4-4-4-4,1.79-4,4Zm4-2c1.1,0,2,.9,2,2s-.9,2-2,2-2-.9-2-2,.9-2,2-2Z"/>
  </g>
</svg>