<?xml version="1.0" encoding="UTF-8"?>
<svg id="OBJECT" xmlns="http://www.w3.org/2000/svg" viewBox="0 0 32 32">
  <defs>
    <style>
      .cls-1 {
        fill: #FD4360;
      }

      .cls-1, .cls-2 {
        stroke-width: 0px;
      }

      .cls-2 {
        fill: #dadada;
      }
    </style>
  </defs>
  <path class="cls-2" d="m30,22h-.5V3h.5c.55,0,1-.45,1-1s-.45-1-1-1H2c-.55,0-1,.45-1,1s.45,1,1,1h.5v19h-.5c-.55,0-1,.45-1,1s.45,1,1,1h13v5h-1c-.55,0-1,.45-1,1s.45,1,1,1h4c.55,0,1-.45,1-1s-.45-1-1-1h-1v-5h13c.55,0,1-.45,1-1s-.45-1-1-1ZM4.5,3h23v19H4.5V3Z"/>
  <g>
    <path class="cls-1" d="m26.71,7.29l-2.5-2.5c-.39-.39-1.02-.39-1.41,0s-.39,1.02,0,1.41l.79.79h-1.59c-1.65,0-3,1.35-3,3v7.5c0,.55-.45,1-1,1h-7c-.55,0-1,.45-1,1s.45,1,1,1h7c1.65,0,3-1.35,3-3v-7.5c0-.55.45-1,1-1h1.59l-.79.79c-.39.39-.39,1.02,0,1.41.2.2.45.29.71.29s.51-.1.71-.29l2.5-2.5c.39-.39.39-1.02,0-1.41Z"/>
    <path class="cls-1" d="m7.5,18.5h-.5c-.55,0-1,.45-1,1s.45,1,1,1h.5c.55,0,1-.45,1-1s-.45-1-1-1Z"/>
    <path class="cls-1" d="m11.5,15.5c3.03,0,5.5-2.47,5.5-5.5s-2.47-5.5-5.5-5.5-5.5,2.47-5.5,5.5,2.47,5.5,5.5,5.5Zm-2.71-6.79c-.39-.39-.39-1.02,0-1.41s1.02-.39,1.41,0l1.29,1.29,1.29-1.29c.39-.39,1.02-.39,1.41,0s.39,1.02,0,1.41l-1.29,1.29,1.29,1.29c.39.39.39,1.02,0,1.41-.2.2-.45.29-.71.29s-.51-.1-.71-.29l-1.29-1.29-1.29,1.29c-.2.2-.45.29-.71.29s-.51-.1-.71-.29c-.39-.39-.39-1.02,0-1.41l1.29-1.29-1.29-1.29Z"/>
  </g>
</svg>