<?xml version="1.0" encoding="UTF-8"?>
<svg id="OBJECT" xmlns="http://www.w3.org/2000/svg" viewBox="0 0 32 32">
  <defs>
    <style>
      .cls-1 {
        fill: #FD4360;
      }

      .cls-1, .cls-2 {
        stroke-width: 0px;
      }

      .cls-2 {
        fill: #dadada;
      }
    </style>
  </defs>
  <g>
    <path class="cls-2" d="m28,1H4c-1.65,0-3,1.35-3,3v4c0,1.65,1.35,3,3,3h24c1.65,0,3-1.35,3-3v-4c0-1.65-1.35-3-3-3Zm-13,2h2v2h-2v-2Zm-8,0h2v2h-2v-2Zm22,5c0,.55-.45,1-1,1H4c-.55,0-1-.45-1-1v-4c0-.55.45-1,1-1h1v3c0,.55.45,1,1,1h4c.55,0,1-.45,1-1v-3h2v3c0,.55.45,1,1,1h4c.55,0,1-.45,1-1v-3h9c.55,0,1,.45,1,1v4Z"/>
    <path class="cls-2" d="m26,5h-4c-.55,0-1,.45-1,1s.45,1,1,1h4c.55,0,1-.45,1-1s-.45-1-1-1Z"/>
    <path class="cls-2" d="m25.5,16h-8.5v-2c0-.55-.45-1-1-1s-1,.45-1,1v2H6.5c-1.38,0-2.5,1.12-2.5,2.5v2.5c0,.55.45,1,1,1s1-.45,1-1v-2.5c0-.28.22-.5.5-.5h8.5v3c0,.55.45,1,1,1s1-.45,1-1v-3h8.5c.28,0,.5.22.5.5v2.5c0,.55.45,1,1,1s1-.45,1-1v-2.5c0-1.38-1.12-2.5-2.5-2.5Z"/>
  </g>
  <rect class="cls-1" x="23" y="23" width="8" height="8" rx="3" ry="3"/>
  <rect class="cls-1" x="12" y="23" width="8" height="8" rx="3" ry="3"/>
  <rect class="cls-1" x="1" y="23" width="8" height="8" rx="3" ry="3"/>
</svg>