<?xml version="1.0" encoding="UTF-8"?>
<svg id="OBJECT" xmlns="http://www.w3.org/2000/svg" viewBox="0 0 32 32">
  <defs>
    <style>
      .cls-1 {
        fill: #FD4360;
      }

      .cls-2 {
        fill: #dadada;
      }
    </style>
  </defs>
  <g>
    <path class="cls-2" d="m27.03,11.68l-3.87-2.13v-.84c0-1.27-.81-2.41-2.01-2.83l-2.35-.83v-3.04c0-.55-.45-1-1-1h-1.5c-1.93,0-3.5,1.57-3.5,3.5v.33l-.18.03c-3.09.5-5.49,3.03-5.84,6.14l-.77,6.98c-.03.27.05.54.23.75l2.17,2.6v3.67c0,.55.45,1,1,1s1-.45,1-1v-4.04c0-.23-.08-.46-.23-.64l-2.12-2.55.72-6.55c.25-2.23,1.96-4.03,4.17-4.39l1.02-.17c.48-.08.84-.5.84-.99v-1.18c0-.83.67-1.5,1.5-1.5h.5v2.75c0,.42.27.8.67.94l3.02,1.06c.4.14.67.52.67.94v1.43c0,.36.2.7.52.88l3.7,2.04-.26.96c-.16.59-.57,1.07-1.13,1.31-.56.25-1.19.22-1.73-.06l-2.2-1.15c-.31-.16-.68-.15-.98.03-.3.18-.48.51-.48.86v6.89c0,.55.45,1,1,1s1-.45,1-1v-1.52l1.02.41v4.22c0,.55.45,1,1,1s1-.45,1-1v-4.89c0-.41-.25-.77-.63-.93l-2.4-.97v-1.56l.73.38c1.08.56,2.34.61,3.46.12,1.12-.49,1.94-1.45,2.26-2.62l.46-1.71c.12-.44-.08-.91-.48-1.14Z"/>
    <path class="cls-2" d="m19.07,9.44l-.35-.35c-.39-.39-1.02-.39-1.41,0s-.39,1.02,0,1.41l.35.35c.2.2.45.29.71.29s.51-.1.71-.29c.39-.39.39-1.02,0-1.41Z"/>
  </g>
  <path class="cls-1" d="m27,29h-.22l-.5-2H5.72l-.5,2h-.22c-.55,0-1,.45-1,1s.45,1,1,1h22c.55,0,1-.45,1-1s-.45-1-1-1Z"/>
</svg>