<?xml version="1.0" encoding="UTF-8"?>
<svg id="OBJECT" xmlns="http://www.w3.org/2000/svg" viewBox="0 0 32 32">
  <defs>
    <style>
      .cls-1 {
        fill: #FD4360;
      }

      .cls-2 {
        fill: #dadada;
      }
    </style>
  </defs>
  <g>
    <path class="cls-2" d="M27,1H5c-1.38,0-2.5,1.12-2.5,2.5v15.5c0,.55,.45,1,1,1s1-.45,1-1V3.5c0-.28,.22-.5,.5-.5H27c.28,0,.5,.22,.5,.5v15.5c0,.55,.45,1,1,1s1-.45,1-1V3.5c0-1.38-1.12-2.5-2.5-2.5Z"/>
    <path class="cls-2" d="M22.71,9.79c-.39-.39-1.02-.39-1.41,0s-.39,1.02,0,1.41l1.29,1.29h-5.09c-.28,0-.5-.22-.5-.5V7c0-1.38-1.12-2.5-2.5-2.5H7c-.55,0-1,.45-1,1s.45,1,1,1h7.5c.28,0,.5,.22,.5,.5v5c0,1.38,1.12,2.5,2.5,2.5h5.09l-1.29,1.29c-.39,.39-.39,1.02,0,1.41,.2,.2,.45,.29,.71,.29s.51-.1,.71-.29l3-3c.39-.39,.39-1.02,0-1.41l-3-3Z"/>
    <path class="cls-2" d="M12.21,11.29c-.39-.39-1.02-.39-1.41,0l-1.04,1.04-1.04-1.04c-.39-.39-1.02-.39-1.41,0s-.39,1.02,0,1.41l1.04,1.04-1.04,1.04c-.39,.39-.39,1.02,0,1.41,.2,.2,.45,.29,.71,.29s.51-.1,.71-.29l1.04-1.04,1.04,1.04c.2,.2,.45,.29,.71,.29s.51-.1,.71-.29c.39-.39,.39-1.02,0-1.41l-1.04-1.04,1.04-1.04c.39-.39,.39-1.02,0-1.41Z"/>
  </g>
  <g>
    <rect class="cls-1" x="1" y="21" width="30" height="2"/>
    <path class="cls-1" d="M25.5,29h-1.92c-.22,0-.41-.14-.47-.34l-1.22-3.66h-2.11l1.43,4.29c.34,1.02,1.29,1.71,2.37,1.71h1.92c.55,0,1-.45,1-1s-.45-1-1-1Z"/>
    <path class="cls-1" d="M8.89,28.66c-.07,.2-.26,.34-.47,.34h-1.92c-.55,0-1,.45-1,1s.45,1,1,1h1.92c1.08,0,2.03-.69,2.37-1.71l1.43-4.29h-2.11l-1.22,3.66Z"/>
  </g>
</svg>