<?xml version="1.0" encoding="UTF-8"?>
<svg id="OBJECT" xmlns="http://www.w3.org/2000/svg" viewBox="0 0 512 512">
  <defs>
    <style>
      .cls-1 {
        fill: #FD4360;
      }

      .cls-2 {
        fill: #dadada;
      }
    </style>
  </defs>
  <g>
    <path class="cls-2" d="M489.5,50h-17.5V22.5c0-12.41-10.09-22.5-22.5-22.5h-50c-12.41,0-22.5,10.09-22.5,22.5v27.5H135V22.5c0-12.41-10.09-22.5-22.5-22.5H62.5c-12.41,0-22.5,10.09-22.5,22.5v27.5H22.5C10.09,50,0,60.09,0,72.5V489.5c0,12.41,10.09,22.5,22.5,22.5H489.5c12.41,0,22.5-10.09,22.5-22.5V72.5c0-12.41-10.09-22.5-22.5-22.5Zm-97.5-27.5c0-4.14,3.36-7.5,7.5-7.5h50c4.14,0,7.5,3.36,7.5,7.5v27.5h-65V22.5Zm-337,0c0-4.14,3.36-7.5,7.5-7.5h50c4.14,0,7.5,3.36,7.5,7.5v27.5H55V22.5ZM22.5,65H489.5c4.14,0,7.5,3.36,7.5,7.5v47.5H15v-20H374.5c4.14,0,7.5-3.36,7.5-7.5s-3.36-7.5-7.5-7.5H15v-12.5c0-4.14,3.36-7.5,7.5-7.5ZM489.5,497H22.5c-4.14,0-7.5-3.36-7.5-7.5V135H497V489.5c0,4.14-3.36,7.5-7.5,7.5Z"/>
    <path class="cls-2" d="M137.5,175H67.5c-12.41,0-22.5,10.09-22.5,22.5v70c0,12.41,10.09,22.5,22.5,22.5h70c12.41,0,22.5-10.09,22.5-22.5v-70c0-12.41-10.09-22.5-22.5-22.5Zm7.5,92.5c0,4.14-3.36,7.5-7.5,7.5H67.5c-4.14,0-7.5-3.36-7.5-7.5v-70c0-4.14,3.36-7.5,7.5-7.5h70c4.14,0,7.5,3.36,7.5,7.5v70Z"/>
    <path class="cls-2" d="M291,175h-70c-12.41,0-22.5,10.09-22.5,22.5v70c0,12.41,10.09,22.5,22.5,22.5h70c12.41,0,22.5-10.09,22.5-22.5v-70c0-12.41-10.09-22.5-22.5-22.5Zm7.5,92.5c0,4.14-3.36,7.5-7.5,7.5h-70c-4.14,0-7.5-3.36-7.5-7.5v-70c0-4.14,3.36-7.5,7.5-7.5h70c4.14,0,7.5,3.36,7.5,7.5v70Z"/>
    <path class="cls-2" d="M137.5,342H67.5c-12.41,0-22.5,10.09-22.5,22.5v70c0,12.41,10.09,22.5,22.5,22.5h70c12.41,0,22.5-10.09,22.5-22.5v-70c0-12.41-10.09-22.5-22.5-22.5Zm7.5,92.5c0,4.14-3.36,7.5-7.5,7.5H67.5c-4.14,0-7.5-3.36-7.5-7.5v-70c0-4.14,3.36-7.5,7.5-7.5h70c4.14,0,7.5,3.36,7.5,7.5v70Z"/>
    <path class="cls-2" d="M444.5,342h-70c-12.41,0-22.5,10.09-22.5,22.5v70c0,12.41,10.09,22.5,22.5,22.5h70c12.41,0,22.5-10.09,22.5-22.5v-70c0-12.41-10.09-22.5-22.5-22.5Zm7.5,92.5c0,4.14-3.36,7.5-7.5,7.5h-70c-4.14,0-7.5-3.36-7.5-7.5v-70c0-4.14,3.36-7.5,7.5-7.5h70c4.14,0,7.5,3.36,7.5,7.5v70Z"/>
    <path class="cls-2" d="M449.5,100h5c4.14,0,7.5-3.36,7.5-7.5s-3.36-7.5-7.5-7.5h-5c-4.14,0-7.5,3.36-7.5,7.5s3.36,7.5,7.5,7.5Z"/>
    <path class="cls-2" d="M409.5,100h5c4.14,0,7.5-3.36,7.5-7.5s-3.36-7.5-7.5-7.5h-5c-4.14,0-7.5,3.36-7.5,7.5s3.36,7.5,7.5,7.5Z"/>
  </g>
  <g>
    <path class="cls-1" d="M256,337c-34.46,0-62.5,28.04-62.5,62.5s28.04,62.5,62.5,62.5,62.5-28.04,62.5-62.5-28.04-62.5-62.5-62.5Zm27.94,52.66l-28.45,30c-1.42,1.49-3.38,2.34-5.44,2.34s-4.03-.85-5.44-2.34l-16.55-17.45c-2.85-3.01-2.72-7.75,.28-10.6,3.01-2.85,7.75-2.72,10.6,.28l11.11,11.71,23.01-24.26c2.85-3,7.6-3.13,10.6-.28,3.01,2.85,3.13,7.6,.28,10.6Z"/>
    <path class="cls-1" d="M409.5,170c-34.46,0-62.5,28.04-62.5,62.5s28.04,62.5,62.5,62.5,62.5-28.04,62.5-62.5-28.04-62.5-62.5-62.5Zm27.94,52.66l-28.45,30c-1.42,1.49-3.38,2.34-5.44,2.34s-4.03-.85-5.44-2.34l-16.55-17.45c-2.85-3.01-2.72-7.75,.28-10.6,3.01-2.85,7.75-2.72,10.6,.28l11.11,11.71,23.01-24.26c2.85-3.01,7.6-3.13,10.6-.28,3.01,2.85,3.13,7.6,.28,10.6Z"/>
  </g>
</svg>