<?xml version="1.0" encoding="UTF-8"?>
<svg id="OBJECT" xmlns="http://www.w3.org/2000/svg" viewBox="0 0 32 32">
  <defs>
    <style>
      .cls-1 {
        fill: #FD4360;
      }

      .cls-1, .cls-2 {
        stroke-width: 0px;
      }

      .cls-2 {
        fill: #dadada;
      }
    </style>
  </defs>
  <g>
    <path class="cls-2" d="m9,15c-4.41,0-8,3.59-8,8s3.59,8,8,8,8-3.59,8-8-3.59-8-8-8Zm0,14c-3.31,0-6-2.69-6-6s2.69-6,6-6,6,2.69,6,6-2.69,6-6,6Z"/>
    <path class="cls-2" d="m11.82,19.27c0-.55-.45-1-1-1-1.73,0-3.23.94-4.06,2.33h-1.33c-.55,0-1,.45-1,1s.45,1,1,1h.69c-.01.13-.04.26-.04.4s.03.27.04.4h-.69c-.55,0-1,.45-1,1s.45,1,1,1h1.33c.83,1.39,2.33,2.33,4.06,2.33.55,0,1-.45,1-1s-.45-1-1-1c-.46,0-.9-.13-1.28-.33h.23c.55,0,1-.45,1-1s-.45-1-1-1h-1.65c-.02-.13-.04-.26-.04-.4s.02-.27.04-.4h1.65c.55,0,1-.45,1-1s-.45-1-1-1h-.23c.38-.21.81-.33,1.28-.33.55,0,1-.45,1-1Z"/>
    <path class="cls-2" d="m5,13c.55,0,1-.45,1-1v-4c0-1.1.9-2,2-2h4c.55,0,1-.45,1-1s-.45-1-1-1h-4c-2.21,0-4,1.79-4,4v4c0,.55.45,1,1,1Z"/>
    <path class="cls-2" d="m27,19c-.55,0-1,.45-1,1v4c0,1.1-.9,2-2,2h-4c-.55,0-1,.45-1,1s.45,1,1,1h4c2.21,0,4-1.79,4-4v-4c0-.55-.45-1-1-1Z"/>
  </g>
  <path class="cls-1" d="m23,1c-4.41,0-8,3.59-8,8s3.59,8,8,8,8-3.59,8-8S27.41,1,23,1Zm-.65,7h1.3c1.27,0,2.3,1.03,2.3,2.3,0,1.15-.85,2.09-1.94,2.26v.33c0,.55-.45,1-1,1s-1-.45-1-1v-.3h-.94c-.55,0-1-.45-1-1s.45-1,1-1h2.59c.16,0,.3-.13.3-.3s-.13-.3-.3-.3h-1.3c-1.27,0-2.3-1.03-2.3-2.3,0-1.15.85-2.09,1.94-2.26v-.33c0-.55.45-1,1-1s1,.45,1,1v.3h.94c.55,0,1,.45,1,1s-.45,1-1,1h-2.59c-.16,0-.3.13-.3.3s.13.3.3.3Z"/>
</svg>