<?xml version="1.0" encoding="UTF-8"?>
<svg id="OBJECT" xmlns="http://www.w3.org/2000/svg" viewBox="0 0 32 32">
  <defs>
    <style>
      .cls-1 {
        fill: #FD4360;
      }

      .cls-1, .cls-2 {
        stroke-width: 0px;
      }

      .cls-2 {
        fill: #dadada;
      }
    </style>
  </defs>
  <g>
    <path class="cls-2" d="m22.5,14c-4.69,0-8.5,3.81-8.5,8.5s3.81,8.5,8.5,8.5,8.5-3.81,8.5-8.5-3.81-8.5-8.5-8.5Zm0,15c-3.58,0-6.5-2.92-6.5-6.5s2.92-6.5,6.5-6.5,6.5,2.92,6.5,6.5-2.92,6.5-6.5,6.5Z"/>
    <path class="cls-2" d="m22.5,17.5c-2.76,0-5,2.24-5,5s2.24,5,5,5,5-2.24,5-5-2.24-5-5-5Zm0,8c-1.65,0-3-1.35-3-3s1.35-3,3-3,3,1.35,3,3-1.35,3-3,3Z"/>
    <path class="cls-2" d="m20,6h2c1.1,0,2,.9,2,2v1.59l-1.29-1.29c-.39-.39-1.02-.39-1.41,0s-.39,1.02,0,1.41l3,3c.2.2.45.29.71.29s.51-.1.71-.29l3-3c.39-.39.39-1.02,0-1.41s-1.02-.39-1.41,0l-1.29,1.29v-1.59c0-2.21-1.79-4-4-4h-2c-.55,0-1,.45-1,1s.45,1,1,1Z"/>
    <path class="cls-2" d="m12,26h-2c-1.1,0-2-.9-2-2v-1.59l1.29,1.29c.2.2.45.29.71.29s.51-.1.71-.29c.39-.39.39-1.02,0-1.41l-3-3c-.39-.39-1.02-.39-1.41,0l-3,3c-.39.39-.39,1.02,0,1.41s1.02.39,1.41,0l1.29-1.29v1.59c0,2.21,1.79,4,4,4h2c.55,0,1-.45,1-1s-.45-1-1-1Z"/>
  </g>
  <path class="cls-1" d="m9.5,18c4.69,0,8.5-3.81,8.5-8.5S14.19,1,9.5,1,1,4.81,1,9.5s3.81,8.5,8.5,8.5Zm.83-7.5h-1.67c-1.47,0-2.67-1.2-2.67-2.67s1.11-2.56,2.5-2.65v-.68c0-.55.45-1,1-1s1,.45,1,1v.67h1.5c.55,0,1,.45,1,1s-.45,1-1,1h-3.33c-.37,0-.67.3-.67.67s.3.67.67.67h1.67c1.47,0,2.67,1.2,2.67,2.67s-1.11,2.56-2.5,2.65v.68c0,.55-.45,1-1,1s-1-.45-1-1v-.67h-1.5c-.55,0-1-.45-1-1s.45-1,1-1h3.33c.37,0,.67-.3.67-.67s-.3-.67-.67-.67Z"/>
</svg>