<?xml version="1.0" encoding="UTF-8"?>
<svg id="OBJECT" xmlns="http://www.w3.org/2000/svg" viewBox="0 0 512 512">
  <defs>
    <style>
      .cls-1 {
        fill: #FD4360;
      }

      .cls-2 {
        fill: #dadada;
      }
    </style>
  </defs>
  <path class="cls-2" d="M489.5,0h-10c-5.76,0-11.02,2.17-15,5.74-3.98-3.57-9.24-5.74-15-5.74h-10c-12.41,0-22.5,10.09-22.5,22.5v57.5h-58.2c-6.94-10.68-18.68-17.06-31.43-17.06h-13.53v-.58c0-16.56-13.48-30.04-30.04-30.04-7.26,0-13.93,2.59-19.12,6.89-5.21-8.93-14.89-14.95-25.96-14.95s-20.75,6.02-25.96,14.95c-5.2-4.3-11.86-6.89-19.12-6.89-14.58,0-26.77,10.45-29.48,24.25-4.55-2.78-9.9-4.38-15.61-4.38-15.81,0-28.8,12.28-29.95,27.81h-23.59V22.5c0-12.41-10.09-22.5-22.5-22.5h-10c-5.76,0-11.02,2.17-15,5.74-3.98-3.57-9.24-5.74-15-5.74h-10C10.09,0,0,10.09,0,22.5V202.5c0,12.41,10.09,22.5,22.5,22.5h10c5.76,0,11.02-2.17,15-5.74,3.98,3.57,9.24,5.74,15,5.74h10c12.41,0,22.5-10.09,22.5-22.5v-57.5h23.89c.74,4.57,2.51,8.8,5.07,12.43v19.59c0,8.21,2.19,16.28,6.34,23.35l44.58,76.02v43.12c0,4.14,3.36,7.5,7.5,7.5s7.5-3.36,7.5-7.5v-45.16c0-1.33-.36-2.64-1.03-3.79l-45.61-77.77c-2.8-4.77-4.28-10.22-4.28-15.76v-8.35c3.01,1.02,6.23,1.58,9.59,1.58,10.77,0,20.23-5.7,25.54-14.24,5.26,4.52,12.09,7.26,19.55,7.26,11.07,0,20.75-6.02,25.96-14.95,5.2,4.3,11.87,6.89,19.12,6.89s13.93-2.59,19.12-6.89c3.26,5.58,8.25,10.02,14.24,12.57-3.45,2.71-7.17,6.17-10.63,10.52-9.61,12.05-19.13,33.32-9.95,66.27,1.11,3.99,5.25,6.32,9.24,5.21,3.99-1.11,6.32-5.25,5.21-9.24-14.04-50.36,23.24-66.13,24.8-66.76,1.51-.6,2.79-1.67,3.64-3.05l22.36-36.4c1.42-2.31,1.48-5.22,.16-7.59s-3.83-3.84-6.55-3.84h-21.77c-21.91,0-39.99-16.71-42.16-38.06h80.94c7.67,0,14.73,3.85,18.89,10.28l21.06,32.55c14.86,22.97,14.89,52.67,.07,75.67l-47.54,73.84c-.78,1.21-1.19,2.62-1.19,4.06v45.16c0,4.14,3.36,7.5,7.5,7.5s7.5-3.36,7.5-7.5v-42.95l46.34-71.98c11.56-17.94,15.67-39.23,12.36-59.57h24.64v57.5c0,12.41,10.09,22.5,22.5,22.5h10c5.76,0,11.02-2.17,15-5.74,3.98,3.57,9.24,5.74,15,5.74h10c12.41,0,22.5-10.09,22.5-22.5V22.5c0-12.41-10.09-22.5-22.5-22.5Zm-205.71,47.32c8.29,0,15.04,6.75,15.04,15.04v.57h-30.08v-.57c0-8.29,6.75-15.04,15.04-15.04ZM32.5,210h-10c-4.14,0-7.5-3.36-7.5-7.5V22.5c0-4.14,3.36-7.5,7.5-7.5h10c4.14,0,7.5,3.36,7.5,7.5V202.5c0,4.14-3.36,7.5-7.5,7.5Zm47.5-7.5c0,4.14-3.36,7.5-7.5,7.5h-10c-4.14,0-7.5-3.36-7.5-7.5V22.5c0-4.14,3.36-7.5,7.5-7.5h10c4.14,0,7.5,3.36,7.5,7.5V202.5Zm15-107.5h23.5v35h-23.5v-35Zm53.54,60.24c-8.29,0-15.04-6.75-15.04-15.04v-57.96c0-8.29,6.75-15.04,15.04-15.04s15.04,6.75,15.04,15.04v57.96c0,8.29-6.75,15.04-15.04,15.04Zm45.08-6.99c-8.29,0-15.04-6.75-15.04-15.04V62.37c0-8.29,6.75-15.04,15.04-15.04s15.04,6.75,15.04,15.04v62.79c0,2.79,.39,5.49,1.11,8.06h-1.11c0,8.29-6.75,15.04-15.04,15.04Zm103.33-17.26l-10.45,17.01c-.89,.16-1.8,.25-2.71,.25-8.29,0-15.04-6.75-15.04-15.04v-5.76c6.19,2.29,12.87,3.54,19.84,3.54h8.36Zm-43.2-11.83v5.99c0,8.29-6.75,15.04-15.04,15.04s-15.04-6.75-15.04-15.04V54.31c0-8.29,6.75-15.04,15.04-15.04s15.04,6.75,15.04,15.04v8.63h-15.04c-1.99,0-3.9,.79-5.3,2.2-1.41,1.41-2.2,3.31-2.2,5.3v3.17c0,18.55,8.85,35.06,22.54,45.55Zm134.74,10.84c-2.16-6.03-5.01-11.86-8.58-17.37l-11.4-17.63h48.49v35h-28.51Zm61.01,80h-10c-4.14,0-7.5-3.36-7.5-7.5V22.5c0-4.14,3.36-7.5,7.5-7.5h10c4.14,0,7.5,3.36,7.5,7.5V202.5c0,4.14-3.36,7.5-7.5,7.5Zm47.5-7.5c0,4.14-3.36,7.5-7.5,7.5h-10c-4.14,0-7.5-3.36-7.5-7.5V22.5c0-4.14,3.36-7.5,7.5-7.5h10c4.14,0,7.5,3.36,7.5,7.5V202.5Z"/>
  <g>
    <path class="cls-1" d="M371.49,342H136.49c-8.28,0-15,6.72-15,15v20H386.49v-20c0-8.28-6.72-15-15-15Z"/>
    <path class="cls-1" d="M263.5,457v-10c0-4.14-3.36-7.5-7.5-7.5h-17.5v25h17.5c4.14,0,7.5-3.36,7.5-7.5Z"/>
    <rect class="cls-1" x="143.5" y="439.5" width="80" height="25"/>
    <path class="cls-1" d="M143.5,424.5h112.5c12.41,0,22.5,10.09,22.5,22.5v10c0,12.41-10.09,22.5-22.5,22.5h-112.5v32.5h225v-120H143.5v32.5Z"/>
  </g>
</svg>