<?xml version="1.0" encoding="UTF-8"?>
<svg id="OBJECT" xmlns="http://www.w3.org/2000/svg" viewBox="0 0 512 512">
  <defs>
    <style>
      .cls-1 {
        fill: #FD4360;
      }

      .cls-2 {
        fill: #dadada;
      }
    </style>
  </defs>
  <g>
    <path class="cls-2" d="M431,45c4.14,0,7.5-3.36,7.5-7.5v-15c0-12.41-10.09-22.5-22.5-22.5H96c-12.41,0-22.5,10.09-22.5,22.5v15c0,4.14,3.36,7.5,7.5,7.5h17.5V330h-17.5c-4.14,0-7.5,3.36-7.5,7.5v15c0,11.56,8.77,21.11,20,22.36v122.14h-12.5c-4.14,0-7.5,3.36-7.5,7.5s3.36,7.5,7.5,7.5H431c4.14,0,7.5-3.36,7.5-7.5s-3.36-7.5-7.5-7.5h-12.5v-122.14c11.23-1.25,20-10.8,20-22.36v-15c0-4.14-3.36-7.5-7.5-7.5h-17.5V45h17.5ZM88.5,22.5c0-4.14,3.36-7.5,7.5-7.5H416c4.14,0,7.5,3.36,7.5,7.5v7.5H88.5v-7.5Zm20,474.5v-122H403.5v122H108.5Zm315-144.5c0,4.14-3.36,7.5-7.5,7.5H96c-4.14,0-7.5-3.36-7.5-7.5v-7.5H423.5v7.5Zm-25-22.5H113.5V45H398.5V330Z"/>
    <path class="cls-2" d="M361,400h-110c-12.41,0-22.5,10.09-22.5,22.5v27c0,12.41,10.09,22.5,22.5,22.5h110c12.41,0,22.5-10.09,22.5-22.5v-27c0-12.41-10.09-22.5-22.5-22.5Zm7.5,49.5c0,4.14-3.36,7.5-7.5,7.5h-110c-4.14,0-7.5-3.36-7.5-7.5v-27c0-4.14,3.36-7.5,7.5-7.5h110c4.14,0,7.5,3.36,7.5,7.5v27Z"/>
    <path class="cls-2" d="M181,400h-30c-12.41,0-22.5,10.09-22.5,22.5v27c0,12.41,10.09,22.5,22.5,22.5h30c12.41,0,22.5-10.09,22.5-22.5v-27c0-12.41-10.09-22.5-22.5-22.5Zm7.5,49.5c0,4.14-3.36,7.5-7.5,7.5h-30c-4.14,0-7.5-3.36-7.5-7.5v-27c0-4.14,3.36-7.5,7.5-7.5h30c4.14,0,7.5,3.36,7.5,7.5v27Z"/>
    <path class="cls-2" d="M271,428.5h-10c-4.14,0-7.5,3.36-7.5,7.5s3.36,7.5,7.5,7.5h10c4.14,0,7.5-3.36,7.5-7.5s-3.36-7.5-7.5-7.5Z"/>
    <path class="cls-2" d="M311,428.5h-10c-4.14,0-7.5,3.36-7.5,7.5s3.36,7.5,7.5,7.5h10c4.14,0,7.5-3.36,7.5-7.5s-3.36-7.5-7.5-7.5Z"/>
    <path class="cls-2" d="M351,428.5h-10c-4.14,0-7.5,3.36-7.5,7.5s3.36,7.5,7.5,7.5h10c4.14,0,7.5-3.36,7.5-7.5s-3.36-7.5-7.5-7.5Z"/>
  </g>
  <g>
    <path class="cls-1" d="M360.49,155.9c0-17.82-11.46-33.21-27.49-38.07-2.67-14.64-15.13-25.75-30.05-25.75-.94,0-1.88,.04-2.8,.13-1.83-12.54-12.65-22.2-25.69-22.2-3.92,0-7.63,.88-10.96,2.44v230.13c3.33,1.56,7.05,2.44,10.96,2.44s7.63-.89,10.96-2.45v-48.37c0-4.14,3.36-7.5,7.5-7.5s7.5,3.36,7.5,7.5v28.63c.84,.07,1.68,.11,2.53,.11,14.92,0,27.37-11.11,30.05-25.75,16.03-4.87,27.48-20.25,27.49-38.07,8.31-8.23,13.01-19.54,13.01-31.6s-4.7-23.37-13.01-31.6Zm-17.05,34.24c-.49,3.78-3.71,6.54-7.43,6.54-.32,0-.64-.02-.97-.06-16.55-2.13-26.9-9.65-33.38-18.16-7.08,2.86-10.89,11.39-10.93,11.48-1.21,2.85-3.99,4.57-6.91,4.57-.98,0-1.97-.19-2.93-.6-3.81-1.62-5.59-6.02-3.97-9.84,.27-.64,5.74-13.18,17.55-18.83-.07-.18-.14-.36-.2-.54-4.77-13.22-3.77-25.65-3.73-26.17,.35-4.13,3.99-7.19,8.12-6.83,4.12,.35,7.17,3.98,6.83,8.09-.02,.22-.72,10.12,3.04,20.23,4.69,12.58,14.25,19.89,28.42,21.71,4.11,.53,7.01,4.29,6.48,8.4Z"/>
    <path class="cls-1" d="M211.85,92.2c-.93-.09-1.86-.13-2.81-.13-14.92,0-27.37,11.11-30.05,25.75-16.03,4.87-27.48,20.25-27.49,38.07-8.31,8.23-13.01,19.54-13.01,31.6s4.7,23.37,13.01,31.6c0,17.82,11.46,33.2,27.49,38.07,2.68,14.64,15.13,25.75,30.05,25.75,.85,0,1.7-.04,2.53-.11v-28.63c0-4.14,3.36-7.5,7.5-7.5s7.5,3.36,7.5,7.5v48.37c3.33,1.56,7.04,2.45,10.96,2.45s7.63-.88,10.96-2.44V72.44c-3.33-1.56-7.05-2.44-10.96-2.44-13.04,0-23.86,9.66-25.69,22.2Zm19.25,101.72c-.96,.41-1.95,.6-2.93,.6-2.91,0-5.67-1.7-6.89-4.54-.11-.24-3.93-8.68-10.95-11.51-6.47,8.51-16.82,16.02-33.38,18.16-.33,.04-.65,.06-.97,.06-3.72,0-6.94-2.76-7.43-6.54-.53-4.11,2.37-7.87,6.48-8.4,14.17-1.83,23.73-9.13,28.42-21.71,3.79-10.17,3.05-20.13,3.04-20.23-.33-4.12,2.74-7.74,6.86-8.08,4.12-.35,7.74,2.7,8.09,6.82,.04,.52,1.04,12.95-3.73,26.17-.06,.18-.14,.36-.2,.54,11.81,5.65,17.28,18.19,17.55,18.83,1.62,3.81-.16,8.22-3.97,9.84Z"/>
  </g>
</svg>