<?xml version="1.0" encoding="UTF-8"?>
<svg id="OBJECT" xmlns="http://www.w3.org/2000/svg" viewBox="0 0 32 32">
  <defs>
    <style>
      .cls-1 {
        fill: #FD4360;
      }

      .cls-1, .cls-2 {
        stroke-width: 0px;
      }

      .cls-2 {
        fill: #dadada;
      }
    </style>
  </defs>
  <g>
    <path class="cls-2" d="m28.5,9h-2.5v-3c0-1.65-1.35-3-3-3h-1.05c-.23-1.14-1.24-2-2.45-2h-7c-1.21,0-2.22.86-2.45,2h-1.05c-1.65,0-3,1.35-3,3v3h-2.5c-1.38,0-2.5,1.12-2.5,2.5v9c0,1.38,1.12,2.5,2.5,2.5h7c1.38,0,2.5-1.12,2.5-2.5v-9c0-1.38-1.12-2.5-2.5-2.5h-2.5v-3c0-.55.45-1,1-1h1.05c.23,1.14,1.24,2,2.45,2h7c1.21,0,2.22-.86,2.45-2h1.05c.55,0,1,.45,1,1v3h-2.5c-1.38,0-2.5,1.12-2.5,2.5v9c0,1.38,1.12,2.5,2.5,2.5h7c1.38,0,2.5-1.12,2.5-2.5v-9c0-1.38-1.12-2.5-2.5-2.5Zm-17.5,2.5v9c0,.28-.22.5-.5.5H3.5c-.28,0-.5-.22-.5-.5v-9c0-.28.22-.5.5-.5h7c.28,0,.5.22.5.5Zm9-7c0,.28-.22.5-.5.5h-7c-.28,0-.5-.22-.5-.5v-1c0-.28.22-.5.5-.5h7c.28,0,.5.22.5.5v1Zm9,16c0,.28-.22.5-.5.5h-7c-.28,0-.5-.22-.5-.5v-9c0-.28.22-.5.5-.5h7c.28,0,.5.22.5.5v9Z"/>
    <path class="cls-2" d="m27.46,13.54c-.39-.39-1.02-.39-1.41,0l-1.04,1.04-1.04-1.04c-.39-.39-1.02-.39-1.41,0s-.39,1.02,0,1.41l1.04,1.04-1.04,1.04c-.39.39-.39,1.02,0,1.41.2.2.45.29.71.29s.51-.1.71-.29l1.04-1.04,1.04,1.04c.2.2.45.29.71.29s.51-.1.71-.29c.39-.39.39-1.02,0-1.41l-1.04-1.04,1.04-1.04c.39-.39.39-1.02,0-1.41Z"/>
    <path class="cls-2" d="m5.69,18.14c.19.19.44.29.71.29s.52-.11.71-.29l2.87-2.87c.39-.39.39-1.02,0-1.41s-1.02-.39-1.41,0l-2.16,2.16-.95-.96c-.39-.39-1.02-.39-1.41,0-.39.39-.39,1.02,0,1.41l1.66,1.66Z"/>
  </g>
  <path class="cls-1" d="m24,26c0,.55-.45,1-1,1h-1.05c-.23-1.14-1.24-2-2.45-2h-7c-1.21,0-2.22.86-2.45,2h-1.05c-.55,0-1-.45-1-1v-1h-2v1c0,1.65,1.35,3,3,3h1.05c.23,1.14,1.24,2,2.45,2h7c1.21,0,2.22-.86,2.45-2h1.05c1.65,0,3-1.35,3-3v-1h-2v1Z"/>
</svg>