<?xml version="1.0" encoding="UTF-8"?>
<svg id="OBJECT" xmlns="http://www.w3.org/2000/svg" viewBox="0 0 32 32">
  <defs>
    <style>
      .cls-1 {
        fill: #FD4360;
      }

      .cls-1, .cls-2 {
        stroke-width: 0px;
      }

      .cls-2 {
        fill: #dadada;
      }
    </style>
  </defs>
  <g>
    <path class="cls-2" d="m27,24c-.55,0-1,.45-1,1v3c0,.55-.45,1-1,1h-5c-.55,0-1-.45-1-1v-3c0-.55-.45-1-1-1s-1,.45-1,1v3c0,1.65,1.35,3,3,3h5c1.65,0,3-1.35,3-3v-3c0-.55-.45-1-1-1Z"/>
    <path class="cls-2" d="m14,8H5c-.27,0-.54.11-.72.31-.19.2-.29.46-.28.74l.91,19.1c.08,1.6,1.39,2.86,3,2.86h3.19c1.6,0,2.92-1.25,3-2.86l.91-19.1c.01-.27-.09-.54-.28-.74-.19-.2-.45-.31-.72-.31Zm-1.91,20.05c-.03.53-.46.95-1,.95h-3.19c-.53,0-.97-.42-1-.95l-.29-6.05h5.76l-.29,6.05Zm.38-8.05h-5.95l-.48-10h6.9l-.48,10Z"/>
  </g>
  <g>
    <rect class="cls-1" x="17" y="19" width="11" height="3"/>
    <path class="cls-1" d="m19.5,7c-.55,0-1,.45-1,1s.45,1,1,1h2v5h-2.5v3h7v-3h-2.5v-5h2c.55,0,1-.45,1-1s-.45-1-1-1h-2v-2h2c.55,0,1-.45,1-1s-.45-1-1-1h-2v-1c0-.55-.45-1-1-1s-1,.45-1,1v1h-2c-.55,0-1,.45-1,1s.45,1,1,1h2v2h-2Z"/>
  </g>
</svg>