<?xml version="1.0" encoding="UTF-8"?>
<svg id="OBJECT" xmlns="http://www.w3.org/2000/svg" viewBox="0 0 512 512">
  <defs>
    <style>
      .cls-1 {
        fill: #FD4360;
      }

      .cls-2 {
        fill: #dadada;
      }
    </style>
  </defs>
  <g>
    <path class="cls-2" d="M509.8,2.2c-1.53-1.53-3.65-2.32-5.8-2.18l-96.66,6.44c-9.53,.64-18.48,5.23-24.53,12.61l-208.54,253.72c-2.63,3.2-2.17,7.93,1.03,10.56,3.2,2.63,7.93,2.17,10.56-1.03L394.4,28.59c3.44-4.19,8.52-6.8,13.94-7.17l88.11-5.87-5.87,88.11c-.36,5.42-2.97,10.5-7.17,13.95l-253.72,208.54c-3.2,2.63-3.66,7.36-1.03,10.56,1.48,1.8,3.63,2.74,5.8,2.74,1.68,0,3.36-.56,4.76-1.71l253.72-208.54c7.38-6.06,11.98-15,12.61-24.54l6.44-96.66c.14-2.16-.65-4.27-2.18-5.8Z"/>
    <path class="cls-2" d="M384.52,127.48c-2.93-2.93-7.68-2.93-10.61,0l-165.27,165.27c-2.93,2.93-2.93,7.68,0,10.61,1.46,1.46,3.38,2.2,5.3,2.2s3.84-.73,5.3-2.2l165.27-165.27c2.93-2.93,2.93-7.68,0-10.61Z"/>
    <path class="cls-2" d="M413.43,109.17l9.64-9.64c2.93-2.93,2.93-7.68,0-10.61-2.93-2.93-7.68-2.93-10.61,0l-9.64,9.64c-2.93,2.93-2.93,7.68,0,10.61,1.46,1.46,3.38,2.2,5.3,2.2s3.84-.73,5.3-2.2Z"/>
    <path class="cls-2" d="M111.37,423.75l-40.06,40.06-23.12-23.12,40.06-40.06c2.93-2.93,2.93-7.68,0-10.61-2.93-2.93-7.68-2.93-10.61,0L8.19,459.47c-5.28,5.28-8.19,12.3-8.19,19.76s2.91,14.48,8.19,19.76l4.82,4.82c5.28,5.28,12.29,8.19,19.76,8.19s14.48-2.91,19.76-8.19l69.45-69.45c2.93-2.93,2.93-7.68,0-10.61-2.93-2.93-7.68-2.93-10.61,0Zm-69.45,69.45c-2.45,2.45-5.7,3.8-9.16,3.8s-6.7-1.35-9.15-3.8l-4.82-4.82c-2.45-2.44-3.79-5.69-3.79-9.15s1.35-6.71,3.8-9.15l18.79-18.79,23.12,23.12-18.79,18.79Z"/>
  </g>
  <g>
    <circle class="cls-1" cx="155.64" cy="356.36" r="22.5"/>
    <path class="cls-1" d="M223.14,356.36c0-37.22-30.28-67.5-67.5-67.5s-67.5,30.28-67.5,67.5,30.28,67.5,67.5,67.5,67.5-30.28,67.5-67.5Zm-67.5,37.5c-20.68,0-37.5-16.82-37.5-37.5s16.82-37.5,37.5-37.5,37.5,16.82,37.5,37.5-16.82,37.5-37.5,37.5Z"/>
    <path class="cls-1" d="M232.07,387.36c-8.38,20.6-24.85,37.06-45.45,45.45l20.34,15.82,40.93-40.93-15.82-20.34Z"/>
    <path class="cls-1" d="M291.84,429.71c-1.87-6.19-6.98-10.82-13.32-12.09l-16.12-3.22-48.73,48.73,3.22,16.12c1.27,6.34,5.9,11.44,12.09,13.32,1.68,.51,3.39,.75,5.08,.75,4.57,0,9.03-1.79,12.36-5.13l41.04-41.04c4.57-4.57,6.25-11.26,4.38-17.45Z"/>
    <path class="cls-1" d="M124.64,279.93l-20.34-15.82-40.93,40.93,15.82,20.34c8.38-20.6,24.85-37.06,45.45-45.45Z"/>
    <path class="cls-1" d="M94.38,233.48c-1.27-6.34-5.9-11.44-12.09-13.32-6.19-1.88-12.87-.2-17.45,4.37l-41.04,41.04c-4.57,4.57-6.25,11.26-4.37,17.45,1.87,6.19,6.98,10.82,13.32,12.09l16.12,3.22,48.73-48.73-3.22-16.12Z"/>
  </g>
</svg>