<?xml version="1.0" encoding="UTF-8" standalone="no"?>
<svg
   id="OBJECT"
   viewBox="0 0 32 32"
   version="1.1"
   sodipodi:docname="FAQ.svg"
   inkscape:version="1.2.2 (732a01da63, 2022-12-09)"
   xml:space="preserve"
   xmlns:inkscape="http://www.inkscape.org/namespaces/inkscape"
   xmlns:sodipodi="http://sodipodi.sourceforge.net/DTD/sodipodi-0.dtd"
   xmlns="http://www.w3.org/2000/svg"
   xmlns:svg="http://www.w3.org/2000/svg"><sodipodi:namedview
     id="namedview17"
     pagecolor="#505050"
     bordercolor="#ffffff"
     borderopacity="1"
     inkscape:showpageshadow="0"
     inkscape:pageopacity="0"
     inkscape:pagecheckerboard="1"
     inkscape:deskcolor="#505050"
     showgrid="false"
     inkscape:zoom="12.953125"
     inkscape:cx="1.7370326"
     inkscape:cy="15.054282"
     inkscape:window-width="1920"
     inkscape:window-height="1009"
     inkscape:window-x="-8"
     inkscape:window-y="-8"
     inkscape:window-maximized="1"
     inkscape:current-layer="OBJECT" /><defs
     id="defs4"><style
       id="style2">
      .cls-1 {
        fill: #FD4360;
      }

      .cls-1, .cls-2 {
        stroke-width: 0px;
      }

      .cls-2 {
        fill: #dadada;
      }
    </style></defs><rect
     style="fill:#dadada;fill-opacity:1;stroke-width:0.215214"
     id="rect1856"
     width="17.647541"
     height="8.2859125"
     x="5.1382656"
     y="8.3888769"
     ry="0.0067519955" /><path
     style="fill:#fd4360;fill-opacity:1;stroke-width:0.467849"
     d="M 18.336518,13.506421 C 17.12241,12.76617 17.21486,10.800969 18.49231,10.19478 c 0.529791,-0.251402 1.336493,-0.187232 1.7774,0.141382 0.853374,0.63604 1.05513,2.137746 0.370453,2.757366 -0.199687,0.180716 -0.226657,0.167943 -0.467216,-0.221295 -0.297429,-0.481248 -0.367548,-0.494702 -0.89129,-0.171009 -0.437853,0.270608 -0.473702,0.403128 -0.210645,0.778692 0.171408,0.244723 0.166771,0.258441 -0.08722,0.258028 -0.147538,-2.84e-4 -0.438809,-0.104426 -0.647271,-0.231523 z"
     id="path446"
     sodipodi:nodetypes="sssssssss" /><path
     style="fill:#fd4360;fill-opacity:1;stroke-width:0.467849"
     d="m 12.243073,12.312029 c 0,-0.255061 0.410144,-1.597281 0.489804,-1.597281 0.04654,0 0.09408,0.157724 0.132297,0.301637 0.03821,0.143913 0.167853,0.470263 0.261436,0.774078 l 0.166519,0.559663 -0.514127,-0.0073 c -0.284734,-0.004 -0.535929,0.0341 -0.535929,-0.03083 z"
     id="path448"
     sodipodi:nodetypes="sssscss" /><path
     style="fill:#fd4360;fill-opacity:1;stroke-width:0.467849"
     d="M 7.3769184,23.014274 V 19.951843 L 6.4717659,19.830657 C 4.8006221,19.606913 3.6902509,18.870381 3.0879936,17.586122 L 2.7833242,16.936451 v -4.884327 c 0,-4.7209351 0.0082,-4.902032 0.2448736,-5.4135571 C 3.5570437,5.4956113 4.4899115,4.8247078 5.9155353,4.5620383 6.8340856,4.3927976 20.863811,4.3889704 21.90359,4.5576852 c 1.50728,0.2445617 2.415609,0.9051786 3.02189,2.1977834 l 0.302491,0.6449203 0.03543,4.4496701 c 0.02965,3.723031 0.006,4.564584 -0.144846,5.153354 -0.228483,0.891857 -0.719979,1.608294 -1.422618,2.073704 -1.061814,0.703315 -1.34638,0.744963 -5.583601,0.817186 l -3.859417,0.06578 -1.313076,1.162935 c -0.722187,0.639614 -2.269287,2.015855 -3.4379963,3.058312 l -2.1249259,1.895375 z m 13.9925176,-7.132833 0.440171,-0.299104 -0.291482,-0.497372 -0.291478,-0.497372 0.393896,-0.381781 c 0.886334,-0.859068 1.186476,-2.483071 0.671423,-3.632892 -0.326789,-0.729529 -1.169839,-1.533393 -1.851856,-1.76578 -2.231592,-0.760379 -4.486546,0.821533 -4.486546,3.147433 0,1.883015 1.696474,3.444356 3.549049,3.266347 0.577995,-0.05554 0.579223,-0.05491 0.884354,0.448329 0.168057,0.277168 0.358826,0.505597 0.423932,0.507618 0.0651,0.0021 0.316445,-0.13092 0.558537,-0.295426 z M 7.2606266,13.917348 v -1.216556 l 1.0175677,-0.0336 1.0175676,-0.0336 0.034875,-0.668686 0.034874,-0.668688 H 8.313067 7.260622 V 10.656603 10.016987 H 8.5398503 9.8190775 V 9.377374 8.73776 H 7.783941 5.7488068 v 3.19807 3.198073 H 6.5047139 7.260622 Z m 4.1705184,0.45644 0.272604,-0.760112 1.04964,0.03328 1.049639,0.03328 0.246734,0.69776 0.246731,0.697763 0.794518,0.03461 c 0.772315,0.03364 0.792248,0.02745 0.713273,-0.221379 -0.04469,-0.140787 -0.566708,-1.569327 -1.160044,-3.174526 L 13.565437,8.795918 12.750922,8.761988 11.936407,8.728058 11.63823,9.517893 c -0.619902,1.64202 -2.0517355,5.530933 -2.0517355,5.572582 0,0.02388 0.353709,0.04343 0.7860215,0.04343 h 0.786022 z"
     id="path442"
     sodipodi:nodetypes="ccsscssssscsssscssccscccsssssssscccccccccccccccccccccccccccssscccssscc" /><path
     style="fill:#dadada;fill-opacity:1;stroke-width:0.467849"
     d="m 21.558659,28.206002 c -1.506431,-1.337183 -3.108343,-2.757234 -3.559801,-3.155671 l -0.820832,-0.724423 -2.419926,-0.03149 -2.41992,-0.03149 1.555622,-1.39552 1.555625,-1.395523 3.958924,-0.06767 c 4.363485,-0.07458 4.649507,-0.116337 5.717014,-0.834693 0.727101,-0.489286 1.27095,-1.216858 1.5262,-2.041779 0.180241,-0.582504 0.204517,-1.194814 0.204517,-5.158391 V 8.871923 l 0.451187,0.252717 c 0.72774,0.407618 1.325987,1.179712 1.591564,2.054064 0.222285,0.731829 0.233076,1.02691 0.195991,5.359383 -0.02767,3.232079 -0.08157,4.711094 -0.182704,5.01256 -0.198583,0.591965 -0.812897,1.468542 -1.304013,1.860721 -0.536747,0.428619 -1.616266,0.805448 -2.52366,0.880937 l -0.724996,0.06032 -0.03092,3.142306 -0.03092,3.142303 z"
     id="path444" /></svg>
