<?xml version="1.0" encoding="UTF-8"?>
<svg id="OBJECT" xmlns="http://www.w3.org/2000/svg" viewBox="0 0 512 512">
  <defs>
    <style>
      .cls-1 {
        fill: #FD4360;
      }

      .cls-2 {
        fill: #dadada;
      }
    </style>
  </defs>
  <g>
    <path class="cls-2" d="M181.29,172.51c0-4.14-3.36-7.5-7.5-7.5s-7.5,3.36-7.5,7.5v35c0,4.14,3.36,7.5,7.5,7.5s7.5-3.36,7.5-7.5v-35Z"/>
    <path class="cls-2" d="M173.79,225.01c-4.14,0-7.5,3.36-7.5,7.5v15c0,4.14,3.36,7.5,7.5,7.5s7.5-3.36,7.5-7.5v-15c0-4.14-3.36-7.5-7.5-7.5Z"/>
    <path class="cls-2" d="M338.41,91.21l-54.52-38.68L242.27,11.25l-.14,.14c-.9-.94-2.04-1.65-3.32-2.02l-.58-.17c-42.33-12.27-87.09-12.27-129.42,0l-.58,.17c-1.75,.51-3.23,1.64-4.21,3.14L63.64,52.58,11.18,91.27c-7,5.16-11.18,13.43-11.18,22.13v214.11c0,15.16,12.34,27.5,27.5,27.5h23.53c-8.59,14.52-13.53,31.44-13.53,49.5,0,53.76,43.74,97.5,97.5,97.5s97.5-43.74,97.5-97.5c0-18.06-4.94-34.98-13.53-49.5h18.01c4.14,0,7.5-3.36,7.5-7.5s-3.36-7.5-7.5-7.5h-28.92c-17.88-20.22-44-33-73.05-33s-55.17,12.78-73.05,33H27.5c-6.89,0-12.5-5.61-12.5-12.5V113.41c0-3.95,1.9-7.71,5.08-10.06l45.62-33.65c8.77,18.95,29.02,67.24,22.32,96.12-.74,3.2,.68,6.5,3.51,8.16,1.18,.69,2.49,1.03,3.79,1.03,1.82,0,3.63-.66,5.04-1.95,.38-.35,38.1-34.13,69.96-24.22,.98,.46,2.07,.73,3.2,.73,.05,0,.1,0,.15-.01,.86,.01,1.72-.11,2.55-.4,31.96-10.94,70.61,23.55,70.99,23.9,1.42,1.29,3.22,1.95,5.04,1.95,1.3,0,2.61-.34,3.79-1.03,2.83-1.66,4.25-4.97,3.51-8.16-6.71-28.96,13.66-77.43,22.39-96.27l47.78,33.9c3.3,2.34,5.27,6.15,5.27,10.19v90c0,4.14,3.36,7.5,7.5,7.5s7.5-3.36,7.5-7.5V113.64c0-8.9-4.33-17.28-11.59-22.43Zm-203.41,230.8c45.49,0,82.5,37.01,82.5,82.5s-37.01,82.5-82.5,82.5-82.5-37.01-82.5-82.5,37.01-82.5,82.5-82.5ZM225.89,21.41l-52.36,103.99L121.16,21.41c34.42-8.55,70.3-8.55,104.73,0ZM104.28,151.25c-.72-34.46-19.7-77-26.63-91.43l30.72-30.47,51.73,102.73c-21.69-.74-42.61,10.29-55.82,19.17Zm139.03,0c-13.31-8.96-34.48-20.09-56.35-19.16L238.86,29l31.07,30.82c-6.93,14.43-25.9,56.97-26.63,91.43Z"/>
    <path class="cls-2" d="M126.15,412.01h17.69c4.77,0,8.65,4.11,8.65,9.17s-3.88,9.17-8.65,9.17h-28.85c-4.14,0-7.5,3.36-7.5,7.5s3.36,7.5,7.5,7.5h2.08v9.17c0,4.14,3.36,7.5,7.5,7.5s7.5-3.36,7.5-7.5v-9.17h5.83v9.17c0,4.14,3.36,7.5,7.5,7.5s7.5-3.36,7.5-7.5v-11.02c8.55-3.64,14.58-12.27,14.58-22.32,0-13.33-10.61-24.17-23.65-24.17h-17.69c-4.77,0-8.65-4.11-8.65-9.17s3.88-9.17,8.65-9.17h28.85c4.14,0,7.5-3.36,7.5-7.5s-3.36-7.5-7.5-7.5h-2.08v-9.17c0-4.14-3.36-7.5-7.5-7.5s-7.5,3.36-7.5,7.5v9.17h-5.83v-9.17c0-4.14-3.36-7.5-7.5-7.5s-7.5,3.36-7.5,7.5v11.02c-8.55,3.64-14.58,12.27-14.58,22.32,0,13.33,10.61,24.17,23.65,24.17Z"/>
  </g>
  <g>
    <path class="cls-1" d="M493.22,397.85l-77.87-47.94c-5.64-3.47-12.6-3.88-18.6-1.08-6,2.8-10.17,8.38-11.13,14.94l-13.33,90.47c-.43,2.9,.87,5.78,3.32,7.38,2.45,1.6,5.61,1.63,8.09,.07l23.06-14.48,25.74,55.2c1.87,4.02,5.2,7.07,9.37,8.58,1.85,.67,3.77,1.01,5.69,1.01,2.39,0,4.77-.52,7.01-1.56l28.83-13.44c8.3-3.87,11.9-13.76,8.03-22.06l-25.74-55.2,25.92-8.36c2.79-.9,4.79-3.33,5.14-6.24,.35-2.91-1.02-5.75-3.51-7.28Z"/>
    <path class="cls-1" d="M464.5,226.13h-160c-26.19,0-47.5,21.31-47.5,47.5v60c0,26.19,21.31,47.5,47.5,47.5h63.4l2.88-19.54c1.71-11.56,9.04-21.41,19.63-26.35,4.63-2.16,9.56-3.25,14.65-3.25,5.73,0,11.35,1.43,16.39,4.14h33.05c6.89,0,12.5-5.61,12.5-12.5v-40c0-6.89-5.61-12.5-12.5-12.5h-140c-6.89,0-12.5,5.61-12.5,12.5v40c0,6.89,5.61,12.5,12.5,12.5h3.76c4.14,0,7.5,3.36,7.5,7.5s-3.36,7.5-7.5,7.5h-3.76c-15.16,0-27.5-12.34-27.5-27.5v-40c0-15.16,12.34-27.5,27.5-27.5h140c15.16,0,27.5,12.34,27.5,27.5v40c0,15.16-12.34,27.5-27.5,27.5h-8.56l40.21,24.75c15.33-7.89,25.84-23.86,25.84-42.25v-60c0-26.19-21.31-47.5-47.5-47.5Zm-123.05,110h2.29c4.14,0,7.5,3.36,7.5,7.5s-3.36,7.5-7.5,7.5h-2.29c-4.14,0-7.5-3.36-7.5-7.5s3.36-7.5,7.5-7.5Z"/>
  </g>
</svg>