<?xml version="1.0" encoding="UTF-8"?>
<svg id="OBJECT" xmlns="http://www.w3.org/2000/svg" viewBox="0 0 32 32">
  <defs>
    <style>
      .cls-1 {
        fill: #FD4360;
      }

      .cls-1, .cls-2 {
        stroke-width: 0px;
      }

      .cls-2 {
        fill: #dadada;
      }
    </style>
  </defs>
  <g>
    <path class="cls-2" d="m24.79,5.28l-2.2-1.1-2.88-2.88c-.19-.19-.44-.29-.71-.29h-10c-.27,0-.52.11-.71.29l-2.88,2.88-2.2,1.1c-1.36.68-2.21,2.05-2.21,3.58v14.15c0,2.21,1.79,4,4,4h9.68c.55,0,1-.45,1-1s-.45-1-1-1H5c-1.1,0-2-.9-2-2v-14.15c0-.76.42-1.45,1.11-1.79l1.27-.64,1.32,4.5c.26.87.88,1.57,1.71,1.92.38.16.77.24,1.17.24.48,0,.96-.12,1.4-.35l2.02-1.07v3.34c0,.55.45,1,1,1s1-.45,1-1v-3.34l2.02,1.07c.8.42,1.74.47,2.57.12s1.46-1.05,1.71-1.92l1.32-4.5,1.27.64c.68.34,1.11,1.03,1.11,1.79v5.83c0,.55.45,1,1,1s1-.45,1-1v-5.83c0-1.53-.85-2.9-2.21-3.58Zm-10.79,2.84l-3.2-5.11h6.39l-3.2,5.11Zm-3.96,2.85c-.27.14-.58.16-.86.04-.28-.12-.49-.35-.57-.64l-1.49-5.08,1.69-1.69,3.76,6.02-2.54,1.35Zm9.34-.6c-.08.29-.29.52-.57.64-.28.12-.59.1-.86-.04l-2.54-1.35,3.76-6.02,1.69,1.69-1.49,5.08Z"/>
    <path class="cls-2" d="m12.01,19h-6.01c-.55,0-1,.45-1,1s.45,1,1,1h6.01c.55,0,1-.45,1-1s-.45-1-1-1Z"/>
  </g>
  <path class="cls-1" d="m24,17c-3.86,0-7,3.14-7,7s3.14,7,7,7,7-3.14,7-7-3.14-7-7-7Zm-4.21,4.67v-.58c0-.55.45-1,1-1s1,.45,1,1v.58c0,.55-.45,1-1,1s-1-.45-1-1Zm2.45,6.42c-.2.27-.5.41-.81.41-.21,0-.41-.06-.59-.19-.45-.33-.54-.95-.21-1.4l5.13-7c.33-.44.95-.54,1.4-.21.45.33.54.95.21,1.4l-5.13,7Zm5.97-1.17c0,.55-.45,1-1,1s-1-.45-1-1v-.58c0-.55.45-1,1-1s1,.45,1,1v.58Z"/>
</svg>