<?xml version="1.0" encoding="UTF-8"?>
<svg id="OBJECT" xmlns="http://www.w3.org/2000/svg" viewBox="0 0 32 32">
  <defs>
    <style>
      .cls-1 {
        fill: #FD4360;
      }

      .cls-1, .cls-2 {
        stroke-width: 0px;
      }

      .cls-2 {
        fill: #dadada;
      }
    </style>
  </defs>
  <g>
    <path class="cls-1" d="m15.35,8.3h2.59c.55,0,1-.45,1-1s-.45-1-1-1h-.94v-.3c0-.55-.45-1-1-1s-1,.45-1,1v.33c-1.1.17-1.94,1.12-1.94,2.26,0,1.27,1.03,2.3,2.3,2.3h1.3c.16,0,.3.13.3.3s-.13.3-.3.3h-2.59c-.55,0-1,.45-1,1s.45,1,1,1h.94v.3c0,.55.45,1,1,1s1-.45,1-1v-.33c1.1-.17,1.94-1.12,1.94-2.26,0-1.27-1.03-2.3-2.3-2.3h-1.3c-.16,0-.3-.13-.3-.3s.13-.3.3-.3Z"/>
    <path class="cls-1" d="m9,7.04c-.55,0-1,.45-1,1v2c0,.55.45,1,1,1s1-.45,1-1v-2c0-.55-.45-1-1-1Z"/>
    <path class="cls-1" d="m23,7.04c-.55,0-1,.45-1,1v2c0,.55.45,1,1,1s1-.45,1-1v-2c0-.55-.45-1-1-1Z"/>
  </g>
  <g>
    <path class="cls-2" d="m25,1H7c-1.65,0-3,1.35-3,3v24c0,1.65,1.35,3,3,3h18c1.65,0,3-1.35,3-3V4c0-1.65-1.35-3-3-3Zm1,27c0,.55-.45,1-1,1H7c-.55,0-1-.45-1-1V4c0-.55.45-1,1-1h18c.55,0,1,.45,1,1v24Z"/>
    <path class="cls-2" d="m23,25h-14c-.55,0-1,.45-1,1s.45,1,1,1h14c.55,0,1-.45,1-1s-.45-1-1-1Z"/>
    <path class="cls-2" d="m23,21h-14c-.55,0-1,.45-1,1s.45,1,1,1h14c.55,0,1-.45,1-1s-.45-1-1-1Z"/>
    <path class="cls-2" d="m23,17h-10c-.55,0-1,.45-1,1s.45,1,1,1h10c.55,0,1-.45,1-1s-.45-1-1-1Z"/>
    <path class="cls-2" d="m9,19h.5c.55,0,1-.45,1-1s-.45-1-1-1h-.5c-.55,0-1,.45-1,1s.45,1,1,1Z"/>
  </g>
</svg>