<?xml version="1.0" encoding="UTF-8"?>
<svg id="OBJECT" xmlns="http://www.w3.org/2000/svg" viewBox="0 0 32 32">
  <defs>
    <style>
      .cls-1 {
        fill: #FD4360;
      }

      .cls-1, .cls-2 {
        stroke-width: 0px;
      }

      .cls-2 {
        fill: #dadada;
      }
    </style>
  </defs>
  <g>
    <path class="cls-2" d="m22.61,7.08s0,0,.02,0c.62,0,1.19.24,1.62.67.44.44.67,1.02.67,1.64,0,.55.44,1,1,1h0c.55,0,1-.44,1-1,0-1.16-.44-2.25-1.26-3.06-.82-.81-1.92-1.25-3.06-1.26-.55,0-1,.45-1,1,0,.55.45,1,1,1Z"/>
    <path class="cls-2" d="m23.37,3h.03c1.5,0,2.9.58,3.96,1.63,1.06,1.06,1.64,2.48,1.63,3.99,0,.55.44,1,1,1h0c.55,0,1-.44,1-1,0-2.05-.78-3.97-2.22-5.41-1.43-1.43-3.34-2.22-5.37-2.22h-.04c-.55,0-1,.45-1,1,0,.55.45,1,1,1Z"/>
    <path class="cls-2" d="m21.66,10.71c.2.2.45.29.71.29s.51-.1.71-.29c.39-.39.39-1.02,0-1.41l-.37-.37c-.39-.39-1.02-.39-1.41,0s-.39,1.02,0,1.41l.37.37Z"/>
    <path class="cls-2" d="m27,12H2c-.55,0-1,.45-1,1v6c0,.55.45,1,1,1h3v4h-3c-.55,0-1,.45-1,1v3c0,1.65,1.35,3,3,3h12c1.65,0,3-1.35,3-3v-3c0-.55-.45-1-1-1h-3v-4h7v4c0,.55.45,1,1,1h7c.55,0,1-.45,1-1v-8c0-2.21-1.79-4-4-4Zm-10,16c0,.55-.45,1-1,1H4c-.55,0-1-.45-1-1v-2h14v2Zm-4-4h-6v-4h6v4Zm16-1h-5v-3h2c.55,0,1-.45,1-1s-.45-1-1-1H3v-4h24c1.1,0,2,.9,2,2v7Z"/>
  </g>
  <path class="cls-1" d="m4,9.5c.15,0,.3-.03.45-.11l.55-.28v.88h8v-4.88l4.45-2.22c.49-.25.69-.85.45-1.34s-.85-.69-1.34-.45L3.55,7.61c-.49.25-.69.85-.45,1.34.18.35.53.55.9.55Z"/>
</svg>