<?xml version="1.0" encoding="UTF-8"?>
<svg id="OBJECT" xmlns="http://www.w3.org/2000/svg" viewBox="0 0 32 32">
  <defs>
    <style>
      .cls-1 {
        fill: #FD4360;
      }

      .cls-1, .cls-2 {
        stroke-width: 0px;
      }

      .cls-2 {
        fill: #dadada;
      }
    </style>
  </defs>
  <path class="cls-1" d="m25.11,21.66c-.3-.02-.62.12-.91.41-.39.39-1.02.39-1.41,0-.27-.27-.56-.41-.86-.41-.02,0-.03,0-.05,0-.28.01-.56.15-.78.37-.21.22-.34.49-.35.76-.01.31.12.6.41.88l2.34,2.33,2.34-2.33c.28-.28.42-.58.41-.88-.01-.27-.14-.55-.35-.76-.22-.22-.5-.36-.78-.37Z"/>
  <path class="cls-1" d="m23.5,16c-4.14,0-7.5,3.36-7.5,7.5s3.36,7.5,7.5,7.5,7.5-3.36,7.5-7.5-3.36-7.5-7.5-7.5Zm3.75,9.09l-3.05,3.03c-.2.19-.45.29-.71.29s-.51-.1-.71-.29l-3.05-3.03c-1.49-1.48-1.16-3.37-.06-4.47.94-.95,2.46-1.35,3.82-.52.53-.31,1.12-.47,1.7-.43.78.04,1.53.38,2.1.96.57.58.9,1.32.93,2.09.03.61-.13,1.52-.99,2.38Z"/>
  <g>
    <path class="cls-2" d="m18.54,5.33c-.55,0-1,.45-1,1v3.83c0,.59-.47,1.07-1.04,1.07h-4.87c-.58,0-1.04-.48-1.04-1.07v-3.83c0-.55-.45-1-1-1s-1,.45-1,1v3.83c0,1.69,1.37,3.07,3.04,3.07h4.87c1.68,0,3.04-1.38,3.04-3.07v-3.83c0-.55-.45-1-1-1Z"/>
    <path class="cls-2" d="m24.4,3.7c-.18-1.54-1.48-2.7-3.02-2.7H6.62c-1.54,0-2.84,1.16-3.02,2.7L1.02,25.42c-.1.88.17,1.75.75,2.41.58.65,1.4,1.02,2.27,1.02h10.2c.55,0,1-.45,1-1s-.45-1-1-1H4.04c-.3,0-.57-.12-.77-.35-.21-.23-.3-.53-.26-.85l.17-1.46h9.82c.55,0,1-.45,1-1s-.45-1-1-1H3.42L5.58,3.94c.06-.54.51-.94,1.04-.94h14.76c.53,0,.97.4,1.04.96l1.37,9.53c.08.55.58.92,1.13.85.55-.08.93-.58.85-1.13l-1.37-9.51Z"/>
  </g>
</svg>