<?xml version="1.0" encoding="UTF-8"?>
<svg id="OBJECT" xmlns="http://www.w3.org/2000/svg" viewBox="0 0 32 32">
  <defs>
    <style>
      .cls-1 {
        fill: #FD4360;
      }

      .cls-2 {
        fill: #dadada;
      }
    </style>
  </defs>
  <g>
    <path class="cls-2" d="M9.5,1C4.81,1,1,4.81,1,9.5c0,8.19,7.64,13.14,7.96,13.34,.16,.1,.35,.16,.54,.16s.37-.05,.54-.16c.33-.21,7.96-5.16,7.96-13.34,0-4.69-3.81-8.5-8.5-8.5Zm0,19.78c-1.65-1.23-6.5-5.35-6.5-11.28,0-3.58,2.92-6.5,6.5-6.5s6.5,2.92,6.5,6.5c0,5.91-4.86,10.04-6.5,11.28Z"/>
    <path class="cls-2" d="M9.5,4.5c-2.76,0-5,2.24-5,5s2.24,5,5,5,5-2.24,5-5-2.24-5-5-5Zm0,8c-1.65,0-3-1.35-3-3s1.35-3,3-3,3,1.35,3,3-1.35,3-3,3Z"/>
  </g>
  <path class="cls-1" d="M30.88,21.28c-.32-.99-1.2-1.63-2.24-1.63h-2.6l-.8-2.47c-.32-.99-1.2-1.63-2.24-1.63s-1.92,.64-2.24,1.63l-.8,2.47h-2.6c-1.04,0-1.92,.64-2.24,1.63-.32,.99,.01,2.02,.86,2.63l2.1,1.53-.8,2.47c-.32,.99,.02,2.02,.86,2.63,.42,.31,.9,.46,1.38,.46s.96-.15,1.38-.46l2.1-1.53,2.1,1.53c.84,.61,1.93,.61,2.77,0,.84-.61,1.18-1.64,.86-2.63l-.8-2.47,2.1-1.53c.84-.61,1.18-1.64,.86-2.63Z"/>
</svg>