<?xml version="1.0" encoding="UTF-8"?>
<svg id="OBJECT" xmlns="http://www.w3.org/2000/svg" viewBox="0 0 32 32">
  <defs>
    <style>
      .cls-1 {
        fill: #FD4360;
      }

      .cls-1, .cls-2 {
        stroke-width: 0px;
      }

      .cls-2 {
        fill: #dadada;
      }
    </style>
  </defs>
  <path class="cls-1" d="m26.63,21.66l2.25,2.25c.1.1.12.22.12.28s-.01.18-.12.28l-.28.28,1.41,1.41.28-.28c.45-.45.7-1.05.7-1.69s-.25-1.24-.7-1.69l-2.25-2.25-1.41,1.41Z"/>
  <path class="cls-1" d="m27.9,26.88h0s0,0,0,0l-3.24-3.24-2.63,2.63,3.9,3.9c.56.56,1.29.84,2.02.84s1.47-.28,2.02-.84l.61-.61-2.68-2.68s0,0,0,0Z"/>
  <path class="cls-1" d="m25.93,19.54l.7-.7-.8-.8c-.78-.78-2.05-.78-2.83,0l-5.16,5.16c-.78.78-.78,2.05,0,2.83l.8.8,7.28-7.28h0Z"/>
  <g>
    <path class="cls-2" d="m28.71,3.49c-.39-.39-1.02-.39-1.41,0l-11.29,11.29L4.71,3.49c-.39-.39-1.02-.39-1.41,0s-.39,1.02,0,1.41l11.29,11.29-3.3,3.3-2.58-2.58c-.39-.39-1.02-.39-1.41,0l-2.63,2.63-2.96,2.96c-.45.45-.7,1.05-.7,1.7s.25,1.24.7,1.69l.28.28c-1.07,1.12-1.05,2.89.04,3.99.56.56,1.29.83,2.02.83s1.46-.28,2.02-.84l3.9-3.9,1.27,1.27c.2.2.45.29.71.29s.51-.1.71-.29l2.63-2.63c.19-.19.29-.44.29-.71s-.11-.52-.29-.71l-2.58-2.58,3.3-3.3,1,1c.2.2.45.29.71.29s.51-.1.71-.29c.39-.39.39-1.02,0-1.41l-1-1,11.29-11.29c.39-.39.39-1.02,0-1.41ZM3.12,23.91l2.25-2.25.56.56-2.53,2.53-.28-.28c-.1-.1-.12-.22-.12-.28s.01-.18.12-.28Zm1.55,4.84c-.34.34-.88.33-1.22,0-.34-.34-.34-.88,0-1.22l3.9-3.9,1.22,1.22-3.9,3.9Zm7.29-3.34l-5.17-5.17,1.22-1.22,5.17,5.17-1.22,1.22Z"/>
    <path class="cls-2" d="m16,7c.55,0,1-.45,1-1V2c0-.55-.45-1-1-1s-1,.45-1,1v4c0,.55.45,1,1,1Z"/>
    <path class="cls-2" d="m11.79,6.71c.2.2.45.29.71.29s.51-.1.71-.29c.39-.39.39-1.02,0-1.41l-2-2c-.39-.39-1.02-.39-1.41,0s-.39,1.02,0,1.41l2,2Z"/>
    <path class="cls-2" d="m19.5,7c.26,0,.51-.1.71-.29l2-2c.39-.39.39-1.02,0-1.41s-1.02-.39-1.41,0l-2,2c-.39.39-.39,1.02,0,1.41.2.2.45.29.71.29Z"/>
  </g>
</svg>