<?xml version="1.0" encoding="UTF-8"?>
<svg id="OBJECT" xmlns="http://www.w3.org/2000/svg" viewBox="0 0 512 512">
  <defs>
    <style>
      .cls-1 {
        fill: #FD4360;
      }

      .cls-2 {
        fill: #dadada;
      }
    </style>
  </defs>
  <g>
    <path class="cls-2" d="M187.53,370.25H106.97v-101.99l3.34,2.23c1.28,.85,2.72,1.26,4.15,1.26,2.42,0,4.8-1.17,6.25-3.34,2.3-3.45,1.37-8.1-2.08-10.4l-30-20c-2.52-1.68-5.8-1.68-8.32,0l-30,20c-3.45,2.3-4.38,6.95-2.08,10.4,2.3,3.45,6.96,4.38,10.4,2.08l3.34-2.23v124.49c0,12.41,10.09,22.5,22.5,22.5h103.06c4.14,0,7.5-3.36,7.5-7.5v-30c0-4.14-3.36-7.5-7.5-7.5Zm-7.5,30H84.47c-4.14,0-7.5-3.36-7.5-7.5v-134.49l7.5-5,7.5,5v119.49c0,4.14,3.36,7.5,7.5,7.5h80.56v15Z"/>
    <path class="cls-2" d="M463.77,243.59c-2.3-3.45-6.95-4.38-10.4-2.08l-3.34,2.23V119.25c0-12.41-10.09-22.5-22.5-22.5h-103.06c-4.14,0-7.5,3.36-7.5,7.5v30c0,4.14,3.36,7.5,7.5,7.5h80.56v101.99l-3.34-2.23c-3.45-2.3-8.1-1.37-10.4,2.08-2.3,3.45-1.37,8.1,2.08,10.4l30,20c1.26,.84,2.71,1.26,4.16,1.26s2.9-.42,4.16-1.26l30-20c3.45-2.3,4.38-6.95,2.08-10.4Zm-36.24,15.15l-7.5-5v-119.49c0-4.14-3.36-7.5-7.5-7.5h-80.56v-15h95.56c4.14,0,7.5,3.36,7.5,7.5V253.74l-7.5,5Z"/>
    <path class="cls-2" d="M277.5,40h-125.37L134.21,4.15c-1.27-2.54-3.87-4.15-6.71-4.15H47.5c-4.14,0-7.5,3.36-7.5,7.5V60H7.5c-4.14,0-7.5,3.36-7.5,7.5v115c0,12.41,10.09,22.5,22.5,22.5h240c12.41,0,22.5-10.09,22.5-22.5V47.5c0-4.14-3.36-7.5-7.5-7.5ZM32.5,190h-10c-4.14,0-7.5-3.36-7.5-7.5V75h25v107.5c0,4.14-3.36,7.5-7.5,7.5Zm237.5-7.5c0,4.14-3.36,7.5-7.5,7.5H53.71c.83-2.35,1.29-4.87,1.29-7.5V15H122.87l12.5,25h-27.86c-4.14,0-7.5,3.36-7.5,7.5s3.36,7.5,7.5,7.5h162.5v127.5Z"/>
    <path class="cls-2" d="M135,137.5v30c0,4.14,3.36,7.5,7.5,7.5h35c4.14,0,7.5-3.36,7.5-7.5v-30c0-4.14-3.36-7.5-7.5-7.5h-35c-4.14,0-7.5,3.36-7.5,7.5Zm15,7.5h20v15h-20v-15Z"/>
    <path class="cls-2" d="M212.5,175h35c4.14,0,7.5-3.36,7.5-7.5v-30c0-4.14-3.36-7.5-7.5-7.5h-35c-4.14,0-7.5,3.36-7.5,7.5v30c0,4.14,3.36,7.5,7.5,7.5Zm7.5-30h20v15h-20v-15Z"/>
  </g>
  <g>
    <path class="cls-1" d="M267,489.5v-122.5h-40v122.5c0,4.14,3.36,7.5,7.5,7.5h25c4.14,0,7.5-3.36,7.5-7.5Z"/>
    <rect class="cls-1" x="447" y="452" width="20" height="15"/>
    <path class="cls-1" d="M504.5,347h-170c-4.14,0-7.5-3.36-7.5-7.5s3.36-7.5,7.5-7.5h37.13l-10.43-20.85c-1.27-2.54-3.87-4.15-6.71-4.15h-72.5v182.5c0,12.41-10.09,22.5-22.5,22.5h230c12.41,0,22.5-10.09,22.5-22.5v-135c0-4.14-3.36-7.5-7.5-7.5Zm-92.5,127.5c0,4.14-3.36,7.5-7.5,7.5h-35c-4.14,0-7.5-3.36-7.5-7.5v-30c0-4.14,3.36-7.5,7.5-7.5h35c4.14,0,7.5,3.36,7.5,7.5v30Zm70,0c0,4.14-3.36,7.5-7.5,7.5h-35c-4.14,0-7.5-3.36-7.5-7.5v-30c0-4.14,3.36-7.5,7.5-7.5h35c4.14,0,7.5,3.36,7.5,7.5v30Z"/>
    <rect class="cls-1" x="377" y="452" width="20" height="15"/>
  </g>
</svg>