<?xml version="1.0" encoding="UTF-8"?>
<svg id="OBJECT" xmlns="http://www.w3.org/2000/svg" viewBox="0 0 32 32">
  <defs>
    <style>
      .cls-1 {
        fill: #FD4360;
      }

      .cls-2 {
        fill: #dadada;
      }
    </style>
  </defs>
  <g>
    <path class="cls-2" d="M24,5.35c.55,0,1-.45,1-1v-.85c0-1.38-1.12-2.5-2.5-2.5H8c-.27,0-.52,.11-.71,.29L1.29,7.29c-.19,.19-.29,.44-.29,.71V28.5c0,1.38,1.12,2.5,2.5,2.5H22.5c1.38,0,2.5-1.12,2.5-2.5v-4.85c0-.55-.45-1-1-1s-1,.45-1,1v4.85c0,.28-.22,.5-.5,.5H3.5c-.28,0-.5-.22-.5-.5V9h3.5c1.38,0,2.5-1.12,2.5-2.5V3h13.5c.28,0,.5,.22,.5,.5v.85c0,.55,.45,1,1,1ZM6.5,7h-2.09l2.59-2.59v2.09c0,.28-.22,.5-.5,.5Z"/>
    <path class="cls-2" d="M6.5,27h13c.55,0,1-.45,1-1s-.45-1-1-1H6.5c-.55,0-1,.45-1,1s.45,1,1,1Z"/>
    <path class="cls-2" d="M9.5,22c0,.55,.45,1,1,1h7c.55,0,1-.45,1-1s-.45-1-1-1h-7c-.55,0-1,.45-1,1Z"/>
    <path class="cls-2" d="M6.5,23h.5c.55,0,1-.45,1-1s-.45-1-1-1h-.5c-.55,0-1,.45-1,1s.45,1,1,1Z"/>
    <path class="cls-2" d="M12.5,17H6.5c-.55,0-1,.45-1,1s.45,1,1,1h6c.55,0,1-.45,1-1s-.45-1-1-1Z"/>
  </g>
  <g>
    <rect class="cls-1" x="12" y="7" width="4" height="9" rx="1" ry="1"/>
    <path class="cls-1" d="M30.59,4.7c-.25-.19-.58-.24-.89-.15l-3.71,1.14v5.82c0,.55-.45,1-1,1s-1-.45-1-1V6.3l-6,1.85v6.71l1.5,.46v3.68c0,1.38,1.12,2.5,2.5,2.5h4c1.38,0,2.5-1.12,2.5-2.5v-.92l1.21,.37c.1,.03,.2,.04,.29,.04,.21,0,.42-.07,.59-.2,.26-.19,.41-.49,.41-.8V5.5c0-.32-.15-.62-.41-.8Zm-4.09,14.3c0,.28-.22,.5-.5,.5h-4c-.28,0-.5-.22-.5-.5v-3.07l5,1.54v1.53Z"/>
  </g>
</svg>