<?xml version="1.0" encoding="UTF-8"?>
<svg id="OBJECT" xmlns="http://www.w3.org/2000/svg" viewBox="0 0 32 32">
  <defs>
    <style>
      .cls-1 {
        fill: #FD4360;
      }

      .cls-2 {
        fill: #dadada;
      }
    </style>
  </defs>
  <g>
    <path class="cls-2" d="M27.71,7.29L21.71,1.29c-.19-.19-.44-.29-.71-.29H10.5c-1.38,0-2.5,1.12-2.5,2.5V24.5c0,1.38,1.12,2.5,2.5,2.5h15c1.38,0,2.5-1.12,2.5-2.5V8c0-.27-.11-.52-.29-.71Zm-5.71-2.88l2.59,2.59h-2.09c-.28,0-.5-.22-.5-.5v-2.09Zm3.5,20.59H10.5c-.28,0-.5-.22-.5-.5V3.5c0-.28,.22-.5,.5-.5h9.5v3.5c0,1.38,1.12,2.5,2.5,2.5h3.5v15.5c0,.28-.22,.5-.5,.5Z"/>
    <path class="cls-2" d="M23,21H13c-.55,0-1,.45-1,1s.45,1,1,1h10c.55,0,1-.45,1-1s-.45-1-1-1Z"/>
    <path class="cls-2" d="M23,16.5H13c-.55,0-1,.45-1,1s.45,1,1,1h10c.55,0,1-.45,1-1s-.45-1-1-1Z"/>
    <path class="cls-2" d="M13,14h7c.55,0,1-.45,1-1s-.45-1-1-1h-7c-.55,0-1,.45-1,1s.45,1,1,1Z"/>
  </g>
  <path class="cls-1" d="M6,24.5V5.05c-1.14,.23-2,1.24-2,2.45V28.5c0,1.38,1.12,2.5,2.5,2.5h15c1.21,0,2.22-.86,2.45-2H10.5c-2.48,0-4.5-2.02-4.5-4.5Z"/>
</svg>