<?xml version="1.0" encoding="UTF-8"?>
<svg id="OBJECT" xmlns="http://www.w3.org/2000/svg" viewBox="0 0 32 32">
  <defs>
    <style>
      .cls-1 {
        fill: #FD4360;
      }

      .cls-1, .cls-2 {
        stroke-width: 0px;
      }

      .cls-2 {
        fill: #dadada;
      }
    </style>
  </defs>
  <g>
    <path class="cls-2" d="m8.5,13c0,.55.45,1,1,1h6c.55,0,1-.45,1-1s-.45-1-1-1h-6c-.55,0-1,.45-1,1Z"/>
    <path class="cls-2" d="m5.5,14h.5c.55,0,1-.45,1-1s-.45-1-1-1h-.5c-.55,0-1,.45-1,1s.45,1,1,1Z"/>
    <path class="cls-2" d="m5.5,18.33h9c.55,0,1-.45,1-1s-.45-1-1-1H5.5c-.55,0-1,.45-1,1s.45,1,1,1Z"/>
    <path class="cls-2" d="m5.5,22.67h8.5c.55,0,1-.45,1-1s-.45-1-1-1H5.5c-.55,0-1,.45-1,1s.45,1,1,1Z"/>
    <path class="cls-2" d="m5.5,27h13c.55,0,1-.45,1-1s-.45-1-1-1H5.5c-.55,0-1,.45-1,1s.45,1,1,1Z"/>
    <path class="cls-2" d="m19,7v-2c0-.55-.45-1-1-1s-1,.45-1,1v2c0,.55.45,1,1,1s1-.45,1-1Z"/>
    <path class="cls-2" d="m15,7v-2c0-.55-.45-1-1-1s-1,.45-1,1v2c0,.55.45,1,1,1s1-.45,1-1Z"/>
    <path class="cls-2" d="m22,10.18c.55,0,1-.45,1-1V2c0-.55-.45-1-1-1h-13c-.27,0-.52.11-.71.29L1.29,8.29c-.19.19-.29.44-.29.71v21c0,.55.45,1,1,1h20c.55,0,1-.45,1-1v-2.18c0-.55-.45-1-1-1s-1,.45-1,1v1.18H3V10h4c1.65,0,3-1.35,3-3V3h11v6.18c0,.55.45,1,1,1Zm-15-2.18h-2.59l3.59-3.59v2.59c0,.55-.45,1-1,1Z"/>
  </g>
  <path class="cls-1" d="m24,11.5c-3.86,0-7,3.14-7,7s3.14,7,7,7,7-3.14,7-7-3.14-7-7-7Zm3.46,6.04l-3.32,3.32c-.2.2-.45.29-.71.29s-.51-.1-.71-.29l-2.18-2.18c-.39-.39-.39-1.02,0-1.41s1.02-.39,1.41,0l1.47,1.47,2.62-2.62c.39-.39,1.02-.39,1.41,0s.39,1.02,0,1.41Z"/>
</svg>