<?xml version="1.0" encoding="UTF-8"?>
<svg id="OBJECT" xmlns="http://www.w3.org/2000/svg" viewBox="0 0 32 32">
  <defs>
    <style>
      .cls-1 {
        fill: #FD4360;
      }

      .cls-1, .cls-2 {
        stroke-width: 0px;
      }

      .cls-2 {
        fill: #dadada;
      }
    </style>
  </defs>
  <g>
    <path class="cls-2" d="m27,5h-9v-1.5c0-1.38-1.12-2.5-2.5-2.5h-1c-1.38,0-2.5,1.12-2.5,2.5v1.5h-3c-.55,0-1,.45-1,1v20c0,.55.45,1,1,1h18c.55,0,1-.45,1-1V6c0-.55-.45-1-1-1Zm-13-1.5c0-.28.22-.5.5-.5h1c.28,0,.5.22.5.5v1.5h-2v-1.5Zm12,21.5H10V7h2v1.5c0,1.38,1.12,2.5,2.5,2.5h.65c.55,0,1-.45,1-1s-.45-1-1-1h-.65c-.28,0-.5-.22-.5-.5v-1.5h12v18Z"/>
    <path class="cls-2" d="m23.5,13h-7c-.55,0-1,.45-1,1s.45,1,1,1h7c.55,0,1-.45,1-1s-.45-1-1-1Z"/>
    <path class="cls-2" d="m12.5,15h.5c.55,0,1-.45,1-1s-.45-1-1-1h-.5c-.55,0-1,.45-1,1s.45,1,1,1Z"/>
    <path class="cls-2" d="m23.5,17h-11c-.55,0-1,.45-1,1s.45,1,1,1h11c.55,0,1-.45,1-1s-.45-1-1-1Z"/>
    <path class="cls-2" d="m23.5,21h-11c-.55,0-1,.45-1,1s.45,1,1,1h11c.55,0,1-.45,1-1s-.45-1-1-1Z"/>
    <path class="cls-2" d="m22.5,11h1c.55,0,1-.45,1-1s-.45-1-1-1h-1c-.55,0-1,.45-1,1s.45,1,1,1Z"/>
    <path class="cls-2" d="m18.5,11h1c.55,0,1-.45,1-1s-.45-1-1-1h-1c-.55,0-1,.45-1,1s.45,1,1,1Z"/>
  </g>
  <path class="cls-1" d="m6,27V9h-1c-.55,0-1,.45-1,1v20c0,.55.45,1,1,1h18c.55,0,1-.45,1-1v-1H8c-1.1,0-2-.9-2-2Z"/>
</svg>