<?xml version="1.0" encoding="UTF-8"?>
<svg id="OBJECT" xmlns="http://www.w3.org/2000/svg" viewBox="0 0 32 32">
  <defs>
    <style>
      .cls-1 {
        fill: #FD4360;
      }

      .cls-1, .cls-2 {
        stroke-width: 0px;
      }

      .cls-2 {
        fill: #dadada;
      }
    </style>
  </defs>
  <g>
    <path class="cls-2" d="m26.5,14.93c.55,0,1-.45,1-1s-.45-1-1-1h-1c-.55,0-1,.45-1,1s.45,1,1,1h1Z"/>
    <path class="cls-2" d="m22.5,14.93c.55,0,1-.45,1-1s-.45-1-1-1h-1c-.55,0-1,.45-1,1s.45,1,1,1h1Z"/>
    <path class="cls-2" d="m30.41,10.73c-.46-.51-1.12-.8-1.82-.8h-.38v-3.02c0-1.29-1.07-2.34-2.39-2.34h-9.24l-2.75-3.22c-.19-.22-.47-.35-.76-.35h-4.89c-1.32,0-2.39,1.05-2.39,2.34v6.59h-.38c-.7,0-1.36.29-1.82.8-.44.49-.65,1.15-.58,1.8l.35,3.05c.06.55.56.95,1.11.88.55-.06.94-.56.88-1.11l-.35-3.05c-.01-.11.04-.19.08-.24.08-.09.2-.14.33-.14h23.18c.13,0,.25.05.33.14.04.05.09.13.08.24l-1.08,9.23h-12.72c-.55,0-1,.45-1,1s.45,1,1,1h12.49l-.25,2.16c-.02.18-.2.31-.41.31h-12.17c-.55,0-1,.45-1,1s.45,1,1,1h12.17c1.23,0,2.25-.89,2.39-2.07l1.57-13.39c.07-.65-.14-1.31-.58-1.8ZM7.79,3.34c0-.19.18-.34.39-.34h4.43l1.34,1.57h-2.73c-.55,0-1,.45-1,1s.45,1,1,1h14.59c.22,0,.39.15.39.34v3.02H7.79V3.34Z"/>
  </g>
  <path class="cls-1" d="m12.14,18.57c-3.42,0-4.46-.96-4.51-1.01-.16-.17-.38-.26-.61-.27-.22,0-.48.09-.65.27-.01.01-1.03,1.01-4.51,1.01-.47,0-.86.38-.86.86v4.42c0,2.62,1.55,5.02,4.04,6.27l1.58.79c.12.06.25.09.38.09s.26-.03.38-.09l1.58-.79c2.49-1.24,4.04-3.65,4.04-6.27v-4.42c0-.47-.38-.86-.86-.86Zm-1.44,4.42l-3.72,3.72c-.19.19-.44.29-.71.29s-.52-.11-.71-.29l-2.28-2.28c-.39-.39-.39-1.02,0-1.41s1.02-.39,1.41,0l1.57,1.57,3.01-3.01c.39-.39,1.02-.39,1.41,0s.39,1.02,0,1.41Z"/>
</svg>