<?xml version="1.0" encoding="UTF-8"?>
<svg id="OBJECT" xmlns="http://www.w3.org/2000/svg" viewBox="0 0 32 32">
  <defs>
    <style>
      .cls-1 {
        fill: #FD4360;
      }

      .cls-1, .cls-2 {
        stroke-width: 0px;
      }

      .cls-2 {
        fill: #dadada;
      }
    </style>
  </defs>
  <g>
    <path class="cls-2" d="m27.71,7.29l-6-6c-.19-.19-.44-.29-.71-.29h-10.5c-1.38,0-2.5,1.12-2.5,2.5v21c0,1.38,1.12,2.5,2.5,2.5h15c1.38,0,2.5-1.12,2.5-2.5V8c0-.27-.11-.52-.29-.71Zm-6-3.17l3.17,3.17-2.38.34c-.31.04-.62-.06-.85-.28-.22-.22-.33-.53-.28-.85l.34-2.38Zm3.79,20.88h-15c-.28,0-.5-.22-.5-.5V3.5c0-.28.22-.5.5-.5h9.35l-.46,3.22c-.13.94.17,1.87.85,2.55.57.57,1.32.88,2.11.88.14,0,.29-.01.43-.03l3.22-.46v15.35c0,.28-.22.5-.5.5Z"/>
    <path class="cls-2" d="m23.5,21h-11c-.55,0-1,.45-1,1s.45,1,1,1h11c.55,0,1-.45,1-1s-.45-1-1-1Z"/>
    <path class="cls-2" d="m23.5,16.5h-11c-.55,0-1,.45-1,1s.45,1,1,1h11c.55,0,1-.45,1-1s-.45-1-1-1Z"/>
    <path class="cls-2" d="m23.5,12h-7c-.55,0-1,.45-1,1s.45,1,1,1h7c.55,0,1-.45,1-1s-.45-1-1-1Z"/>
    <path class="cls-2" d="m12.5,14h.5c.55,0,1-.45,1-1s-.45-1-1-1h-.5c-.55,0-1,.45-1,1s.45,1,1,1Z"/>
  </g>
  <path class="cls-1" d="m6,24.5V5.05c-1.14.23-2,1.24-2,2.45v21c0,1.38,1.12,2.5,2.5,2.5h15c1.21,0,2.22-.86,2.45-2h-13.45c-2.48,0-4.5-2.02-4.5-4.5Z"/>
</svg>