<?xml version="1.0" encoding="UTF-8"?>
<svg id="OBJECT" xmlns="http://www.w3.org/2000/svg" viewBox="0 0 512 512">
  <defs>
    <style>
      .cls-1 {
        fill: #FD4360;
      }

      .cls-2 {
        fill: #dadada;
      }
    </style>
  </defs>
  <g>
    <path class="cls-2" d="M416,0H146c-12.41,0-22.5,10.09-22.5,22.5v27.5h-27.5c-12.41,0-22.5,10.09-22.5,22.5V489.5c0,12.41,10.09,22.5,22.5,22.5H366c12.41,0,22.5-10.09,22.5-22.5v-27.5h27.5c12.41,0,22.5-10.09,22.5-22.5V22.5c0-12.41-10.09-22.5-22.5-22.5Zm-50,497H96c-4.14,0-7.5-3.36-7.5-7.5V72.5c0-4.14,3.36-7.5,7.5-7.5h197.5v57.5c0,12.41,10.09,22.5,22.5,22.5h57.5V489.5c0,4.14-3.36,7.5-7.5,7.5Zm-57.5-421.39l54.39,54.39h-46.89c-4.14,0-7.5-3.36-7.5-7.5v-46.89Zm115,363.89c0,4.14-3.36,7.5-7.5,7.5h-27.5V137.5c0-1.99-.79-3.9-2.2-5.3l-80-80c-1.41-1.41-3.31-2.2-5.3-2.2H138.5V22.5c0-4.14,3.36-7.5,7.5-7.5H416c4.14,0,7.5,3.36,7.5,7.5V439.5Z"/>
    <path class="cls-2" d="M271,417h-80c-9.65,0-17.5,7.85-17.5,17.5v20c0,9.65,7.85,17.5,17.5,17.5h80c9.65,0,17.5-7.85,17.5-17.5v-20c0-9.65-7.85-17.5-17.5-17.5Zm2.5,37.5c0,1.38-1.12,2.5-2.5,2.5h-80c-1.38,0-2.5-1.12-2.5-2.5v-20c0-1.38,1.12-2.5,2.5-2.5h80c1.38,0,2.5,1.12,2.5,2.5v20Z"/>
    <path class="cls-2" d="M141,417h-10c-9.65,0-17.5,7.85-17.5,17.5v20c0,9.65,7.85,17.5,17.5,17.5h10c9.65,0,17.5-7.85,17.5-17.5v-20c0-9.65-7.85-17.5-17.5-17.5Zm2.5,37.5c0,1.38-1.12,2.5-2.5,2.5h-10c-1.38,0-2.5-1.12-2.5-2.5v-20c0-1.38,1.12-2.5,2.5-2.5h10c1.38,0,2.5,1.12,2.5,2.5v20Z"/>
    <path class="cls-2" d="M331,417h-10c-9.65,0-17.5,7.85-17.5,17.5v20c0,9.65,7.85,17.5,17.5,17.5h10c9.65,0,17.5-7.85,17.5-17.5v-20c0-9.65-7.85-17.5-17.5-17.5Zm2.5,37.5c0,1.38-1.12,2.5-2.5,2.5h-10c-1.38,0-2.5-1.12-2.5-2.5v-20c0-1.38,1.12-2.5,2.5-2.5h10c1.38,0,2.5,1.12,2.5,2.5v20Z"/>
    <path class="cls-2" d="M121,105h15c4.14,0,7.5-3.36,7.5-7.5s-3.36-7.5-7.5-7.5h-15c-4.14,0-7.5,3.36-7.5,7.5s3.36,7.5,7.5,7.5Z"/>
    <path class="cls-2" d="M193.5,97.5c0-4.14-3.36-7.5-7.5-7.5h-15c-4.14,0-7.5,3.36-7.5,7.5s3.36,7.5,7.5,7.5h15c4.14,0,7.5-3.36,7.5-7.5Z"/>
    <path class="cls-2" d="M361,30h-10c-4.14,0-7.5,3.36-7.5,7.5s3.36,7.5,7.5,7.5h10c4.14,0,7.5-3.36,7.5-7.5s-3.36-7.5-7.5-7.5Z"/>
    <path class="cls-2" d="M401,30h-10c-4.14,0-7.5,3.36-7.5,7.5s3.36,7.5,7.5,7.5h10c4.14,0,7.5-3.36,7.5-7.5s-3.36-7.5-7.5-7.5Z"/>
  </g>
  <g>
    <path class="cls-1" d="M271.79,308.29c1.12-13.21,1.71-26.92,1.71-40.79s-.59-27.58-1.71-40.79c-13.21-1.12-26.92-1.71-40.79-1.71s-27.58,.59-40.79,1.71c-1.12,13.21-1.71,26.92-1.71,40.79s.59,27.58,1.71,40.79c13.21,1.12,26.92,1.71,40.79,1.71s27.58-.59,40.79-1.71Z"/>
    <path class="cls-1" d="M334.14,297.82c2.83-9.62,4.36-19.8,4.36-30.32s-1.53-20.7-4.36-30.32c-13.91-3.83-29.93-6.84-47.13-8.91,.99,12.68,1.5,25.82,1.5,39.23s-.51,26.56-1.5,39.23c17.21-2.07,33.22-5.08,47.13-8.91Z"/>
    <path class="cls-1" d="M173.5,267.5c0-13.41,.51-26.56,1.5-39.23-17.21,2.07-33.22,5.08-47.13,8.91-2.83,9.62-4.36,19.8-4.36,30.32s1.53,20.7,4.36,30.32c13.91,3.83,29.93,6.84,47.13,8.91-.99-12.68-1.5-25.82-1.5-39.23Z"/>
    <path class="cls-1" d="M285.55,212.95c14.9,1.67,28.98,4.03,41.85,7.03-10.48-21.17-27.72-38.41-48.89-48.89,3,12.87,5.36,26.95,7.03,41.85Z"/>
    <path class="cls-1" d="M285.55,322.05c-1.67,14.9-4.03,28.98-7.03,41.85,21.17-10.48,38.41-27.72,48.89-48.89-12.87,3-26.95,5.36-41.85,7.03Z"/>
    <path class="cls-1" d="M270.23,323.5c-12.68,.99-25.82,1.5-39.23,1.5s-26.56-.51-39.23-1.5c2.07,17.21,5.08,33.22,8.91,47.13,9.62,2.83,19.8,4.36,30.32,4.36s20.7-1.53,30.32-4.36c3.83-13.91,6.84-29.93,8.91-47.13Z"/>
    <path class="cls-1" d="M176.45,322.05c-14.9-1.67-28.98-4.03-41.85-7.03,10.48,21.17,27.72,38.41,48.89,48.89-3-12.87-5.36-26.95-7.03-41.85Z"/>
    <path class="cls-1" d="M191.77,211.5c12.68-.99,25.82-1.5,39.23-1.5s26.56,.51,39.23,1.5c-2.07-17.21-5.08-33.22-8.91-47.13-9.62-2.83-19.8-4.36-30.32-4.36s-20.7,1.53-30.32,4.36c-3.83,13.91-6.84,29.93-8.91,47.13Z"/>
    <path class="cls-1" d="M176.45,212.95c1.67-14.9,4.03-28.98,7.03-41.85-21.17,10.48-38.41,27.72-48.89,48.89,12.87-3,26.95-5.36,41.85-7.03Z"/>
  </g>
</svg>