<?xml version="1.0" encoding="UTF-8"?>
<svg id="OBJECT" xmlns="http://www.w3.org/2000/svg" viewBox="0 0 32 32">
  <defs>
    <style>
      .cls-1 {
        fill: #FD4360;
      }

      .cls-1, .cls-2 {
        stroke-width: 0px;
      }

      .cls-2 {
        fill: #dadada;
      }
    </style>
  </defs>
  <g>
    <path class="cls-2" d="m18.5,26h-5c-.55,0-1,.45-1,1s.45,1,1,1h5c.55,0,1-.45,1-1s-.45-1-1-1Z"/>
    <path class="cls-2" d="m26,26h-3.5v-.5c0-1.38-1.12-2.5-2.5-2.5h-1.25v-4c0-.55-.45-1-1-1h-3.5c-.55,0-1,.45-1,1v4h-1.25c-1.38,0-2.5,1.12-2.5,2.5v.5h-3.5c-.55,0-1,.45-1,1s.45,1,1,1h3.5v.5c0,1.38,1.12,2.5,2.5,2.5h8c1.38,0,2.5-1.12,2.5-2.5v-.5h3.5c.55,0,1-.45,1-1s-.45-1-1-1Zm-10.75-6h1.5v3h-1.5v-3Zm5.25,8.5c0,.28-.22.5-.5.5h-8c-.28,0-.5-.22-.5-.5v-3c0-.28.22-.5.5-.5h8c.28,0,.5.22.5.5v3Z"/>
    <path class="cls-2" d="m30,26h-.5c-.55,0-1,.45-1,1s.45,1,1,1h.5c.55,0,1-.45,1-1s-.45-1-1-1Z"/>
    <path class="cls-2" d="m2.5,26h-.5c-.55,0-1,.45-1,1s.45,1,1,1h.5c.55,0,1-.45,1-1s-.45-1-1-1Z"/>
  </g>
  <path class="cls-1" d="m11.5,17h9c1.38,0,2.5-1.12,2.5-2.5V4.8c0-.84-.42-1.61-1.11-2.08l-1.95-1.3c-.41-.27-.89-.42-1.39-.42h-7.05c-1.38,0-2.5,1.12-2.5,2.5v11c0,1.38,1.12,2.5,2.5,2.5Zm2-12.5h2c.55,0,1,.45,1,1s-.45,1-1,1h-2c-.55,0-1-.45-1-1s.45-1,1-1Zm0,3.5h5c.55,0,1,.45,1,1s-.45,1-1,1h-5c-.55,0-1-.45-1-1s.45-1,1-1Zm0,3.5h5c.55,0,1,.45,1,1s-.45,1-1,1h-5c-.55,0-1-.45-1-1s.45-1,1-1Z"/>
</svg>