<?xml version="1.0" encoding="UTF-8"?>
<svg id="OBJECT" xmlns="http://www.w3.org/2000/svg" viewBox="0 0 512 512">
  <defs>
    <style>
      .cls-1 {
        fill: #FD4360;
      }

      .cls-2 {
        fill: #dadada;
      }
    </style>
  </defs>
  <g>
    <path class="cls-2" d="M272.5,40h-27.5V22.5c0-12.41-10.09-22.5-22.5-22.5H72.5c-12.41,0-22.5,10.09-22.5,22.5v17.5H22.5C10.09,40,0,50.09,0,62.5V449.5c0,12.41,10.09,22.5,22.5,22.5h27.5v17.5c0,12.41,10.09,22.5,22.5,22.5H222.5c12.41,0,22.5-10.09,22.5-22.5v-17.5h27.5c12.41,0,22.5-10.09,22.5-22.5V62.5c0-12.41-10.09-22.5-22.5-22.5ZM65,22.5c0-4.14,3.36-7.5,7.5-7.5H222.5c4.14,0,7.5,3.36,7.5,7.5v17.5H65V22.5ZM22.5,55h250c4.14,0,7.5,3.36,7.5,7.5v27.5H15v-27.5c0-4.14,3.36-7.5,7.5-7.5Zm257.5,50V407H15V105H280Zm-50,384.5c0,4.14-3.36,7.5-7.5,7.5H72.5c-4.14,0-7.5-3.36-7.5-7.5v-17.5H230v17.5Zm42.5-32.5H22.5c-4.14,0-7.5-3.36-7.5-7.5v-27.5H280v27.5c0,4.14-3.36,7.5-7.5,7.5Z"/>
    <path class="cls-2" d="M57.5,368.5H237.5c12.41,0,22.5-10.09,22.5-22.5V166c0-12.41-10.09-22.5-22.5-22.5H57.5c-12.41,0-22.5,10.09-22.5,22.5v180c0,12.41,10.09,22.5,22.5,22.5Zm180-15H57.5c-4.14,0-7.5-3.36-7.5-7.5v-8.27l41.29-49.54c2.39-2.87,6.89-4.07,11.07-1.06l25.01,30.02-8.15,11.86c-2.35,3.41-1.48,8.08,1.93,10.43,1.3,.89,2.78,1.32,4.24,1.32,2.39,0,4.73-1.14,6.19-3.25l53.69-78.09c.99-1.44,2.54-2.38,4.27-2.6,1.71-.22,3.43,.29,5.01,1.47l50.14,72.94c.1,.14,.2,.27,.31,.4v14.38c0,4.14-3.36,7.5-7.5,7.5Zm7.5-187.5v65.32c-10.83-1.02-19.5-10.15-19.72-21.22-.06-3-1.91-5.68-4.69-6.81-3.95-1.6-7.54-3.9-10.66-6.85-2.08-1.97-5.09-2.58-7.77-1.58-2.8,1.04-5.75,1.39-8.78,1.04-8.25-.96-15.08-7.62-16.24-15.85-.41-2.91-.17-5.78,.73-8.53,.68-2.07,.42-4.33-.7-6.2-1.12-1.87-3-3.15-5.15-3.52-2.98-.51-5.77-1.66-8.24-3.29h73.72c4.14,0,7.5,3.36,7.5,7.5Zm-187.5-7.5h86.3c4.12,7.22,10.6,12.87,18.26,15.97-.22,2.54-.14,5.11,.23,7.69,2.14,15.1,14.21,26.87,29.36,28.64,3.85,.45,7.64,.26,11.32-.56,2.42,1.91,5,3.58,7.73,5,2.62,16.93,16.97,30.16,34.3,31.13v58.83l-38.7-56.29c-.35-.51-.77-.98-1.24-1.39-5-4.37-11.18-6.36-17.39-5.58-5.97,.75-11.35,4.02-14.77,8.98l-36.71,53.4-22.84-27.41c-.31-.37-.66-.72-1.04-1.02-10.13-8.22-24.43-7.02-32.55,2.72l-29.76,35.71V166c0-4.14,3.36-7.5,7.5-7.5Z"/>
    <path class="cls-2" d="M97.39,239.64c18.61,0,33.75-15.14,33.75-33.75s-15.14-33.75-33.75-33.75-33.75,15.14-33.75,33.75,15.14,33.75,33.75,33.75Zm0-52.5c10.34,0,18.75,8.41,18.75,18.75s-8.41,18.75-18.75,18.75-18.75-8.41-18.75-18.75,8.41-18.75,18.75-18.75Z"/>
  </g>
  <rect class="cls-1" x="401" y="308.5" width="20" height="20" rx="2.5" ry="2.5"/>
  <rect class="cls-1" x="401" y="183.5" width="20" height="20" rx="2.5" ry="2.5"/>
  <rect class="cls-1" x="340" y="308.5" width="20" height="20" rx="2.5" ry="2.5"/>
  <rect class="cls-1" x="340" y="183.5" width="20" height="20" rx="2.5" ry="2.5"/>
  <path class="cls-1" d="M504.5,138.5h-194.5v235h154.5c4.14,0,7.5-3.36,7.5-7.5,0-17.92,14.58-32.5,32.5-32.5,4.14,0,7.5-3.36,7.5-7.5V146c0-4.14-3.36-7.5-7.5-7.5Zm-129.5,187.5c0,9.65-7.85,17.5-17.5,17.5h-15c-9.65,0-17.5-7.85-17.5-17.5v-15c0-9.65,7.85-17.5,17.5-17.5h15c9.65,0,17.5,7.85,17.5,17.5v15Zm0-125c0,9.65-7.85,17.5-17.5,17.5h-15c-9.65,0-17.5-7.85-17.5-17.5v-15c0-9.65,7.85-17.5,17.5-17.5h15c9.65,0,17.5,7.85,17.5,17.5v15Zm61,125c0,9.65-7.85,17.5-17.5,17.5h-15c-9.65,0-17.5-7.85-17.5-17.5v-15c0-9.65,7.85-17.5,17.5-17.5h15c9.65,0,17.5,7.85,17.5,17.5v15Zm0-125c0,9.65-7.85,17.5-17.5,17.5h-15c-9.65,0-17.5-7.85-17.5-17.5v-15c0-9.65,7.85-17.5,17.5-17.5h15c9.65,0,17.5,7.85,17.5,17.5v15Zm61,0c0,9.65-7.85,17.5-17.5,17.5h-15c-9.65,0-17.5-7.85-17.5-17.5v-15c0-9.65,7.85-17.5,17.5-17.5h15c9.65,0,17.5,7.85,17.5,17.5v15Z"/>
  <rect class="cls-1" x="462" y="183.5" width="20" height="20" rx="2.5" ry="2.5"/>
</svg>