<?xml version="1.0" encoding="UTF-8"?>
<svg id="OBJECT" xmlns="http://www.w3.org/2000/svg" viewBox="0 0 32 32">
  <defs>
    <style>
      .cls-1 {
        fill: #FD4360;
      }

      .cls-1, .cls-2 {
        stroke-width: 0px;
      }

      .cls-2 {
        fill: #dadada;
      }
    </style>
  </defs>
  <g>
    <path class="cls-2" d="m21,14c.55,0,1-.45,1-1s-.45-1-1-1h-1c-.55,0-1,.45-1,1s.45,1,1,1h1Z"/>
    <path class="cls-2" d="m25,14c.55,0,1-.45,1-1s-.45-1-1-1h-1c-.55,0-1,.45-1,1s.45,1,1,1h1Z"/>
    <path class="cls-2" d="m30,9h-11.66c-.55,0-1,.45-1,1s.45,1,1,1h8.66v4.97c0,.33-.15.62-.42.82l-5.9,4.21h-3.36l-5.9-4.22c-.26-.19-.41-.48-.42-.8,0-.55-.45-.98-1-.98h-.02c-.55,0-.99.46-.98,1.02.01.95.49,1.85,1.26,2.4l5.74,4.1v5.49c0,.38.21.72.55.89l4,2c.14.07.29.11.45.11.18,0,.37-.05.53-.15.29-.18.47-.5.47-.85v-7.49l5.74-4.1c.79-.56,1.26-1.48,1.26-2.44v-4.97h1c.55,0,1-.45,1-1s-.45-1-1-1Zm-12,18.38v-4.38h2v5.38l-2-1Z"/>
  </g>
  <path class="cls-1" d="m14.35,11.99c.54-.64.76-1.49.61-2.31l-1.16-6.36c-.24-1.34-1.41-2.31-2.77-2.31h-6.06c-1.36,0-2.53.97-2.77,2.31l-1.16,6.36c-.15.82.07,1.67.61,2.31.54.64,1.33,1.01,2.16,1.01h8.37c.84,0,1.63-.37,2.16-1.01Zm-3.3-5.5c0,1.68-1.37,3.05-3.04,3.05s-3.05-1.37-3.05-3.05v-1.02c0-.55.45-1,1-1s1,.45,1,1v1.02c0,.58.47,1.05,1.05,1.05s1.04-.47,1.04-1.05v-1.02c0-.55.45-1,1-1s1,.45,1,1v1.02Z"/>
</svg>