<?xml version="1.0" encoding="UTF-8"?>
<svg id="OBJECT" xmlns="http://www.w3.org/2000/svg" viewBox="0 0 512 512">
  <defs>
    <style>
      .cls-1 {
        fill: #FD4360;
      }

      .cls-2 {
        fill: #dadada;
      }
    </style>
  </defs>
  <g>
    <path class="cls-2" d="M421,200H91c-9.65,0-17.5,7.85-17.5,17.5v20c0,9.65,7.85,17.5,17.5,17.5h17.5v67.76c0,5.27,2.34,10.21,6.42,13.54l103.58,84.75v53.45c0,2.84,1.6,5.44,4.15,6.71l60,30c1.06,.53,2.21,.79,3.35,.79,1.37,0,2.74-.38,3.94-1.12,2.21-1.37,3.56-3.78,3.56-6.38v-83.45l103.58-84.75c4.08-3.34,6.42-8.27,6.42-13.54v-67.76h17.5c9.65,0,17.5-7.85,17.5-17.5v-20c0-9.65-7.85-17.5-17.5-17.5Zm-32.5,122.76c0,.75-.33,1.46-.92,1.94l-106.33,87c-1.74,1.42-2.75,3.55-2.75,5.8v74.86l-45-22.5v-44.86h22.5c4.14,0,7.5-3.36,7.5-7.5s-3.36-7.5-7.5-7.5h-27.32l-104.26-85.3c-.58-.48-.92-1.18-.92-1.94v-67.76H388.5v67.76Zm35-85.26c0,1.38-1.12,2.5-2.5,2.5H91c-1.38,0-2.5-1.12-2.5-2.5v-20c0-1.38,1.12-2.5,2.5-2.5H421c1.38,0,2.5,1.12,2.5,2.5v20Z"/>
    <path class="cls-2" d="M166,315h20c9.65,0,17.5-7.85,17.5-17.5v-10c0-9.65-7.85-17.5-17.5-17.5h-20c-9.65,0-17.5,7.85-17.5,17.5v10c0,9.65,7.85,17.5,17.5,17.5Zm-2.5-27.5c0-1.38,1.12-2.5,2.5-2.5h20c1.38,0,2.5,1.12,2.5,2.5v10c0,1.38-1.12,2.5-2.5,2.5h-20c-1.38,0-2.5-1.12-2.5-2.5v-10Z"/>
    <path class="cls-2" d="M236,315h40c9.65,0,17.5-7.85,17.5-17.5v-10c0-9.65-7.85-17.5-17.5-17.5h-40c-9.65,0-17.5,7.85-17.5,17.5v10c0,9.65,7.85,17.5,17.5,17.5Zm-2.5-27.5c0-1.38,1.12-2.5,2.5-2.5h40c1.38,0,2.5,1.12,2.5,2.5v10c0,1.38-1.12,2.5-2.5,2.5h-40c-1.38,0-2.5-1.12-2.5-2.5v-10Z"/>
    <path class="cls-2" d="M326,315h20c9.65,0,17.5-7.85,17.5-17.5v-10c0-9.65-7.85-17.5-17.5-17.5h-20c-9.65,0-17.5,7.85-17.5,17.5v10c0,9.65,7.85,17.5,17.5,17.5Zm-2.5-27.5c0-1.38,1.12-2.5,2.5-2.5h20c1.38,0,2.5,1.12,2.5,2.5v10c0,1.38-1.12,2.5-2.5,2.5h-20c-1.38,0-2.5-1.12-2.5-2.5v-10Z"/>
  </g>
  <g>
    <path class="cls-1" d="M248.5,147.5c0,4.14,3.36,7.5,7.5,7.5s7.5-3.36,7.5-7.5v-27.5h-15v27.5Z"/>
    <path class="cls-1" d="M256,165c-4.14,0-7.5,3.36-7.5,7.5v5c0,4.14,3.36,7.5,7.5,7.5s7.5-3.36,7.5-7.5v-5c0-4.14-3.36-7.5-7.5-7.5Z"/>
    <path class="cls-1" d="M330.56,150.29l-27.75-7.93c-1.07-.31-1.81-1.29-1.81-2.4v-19.96h-15v19.96c0,7.77,5.22,14.69,12.69,16.83l27.75,7.93c.69,.2,1.38,.29,2.06,.29,3.26,0,6.27-2.15,7.21-5.44,1.14-3.98-1.17-8.13-5.15-9.27Z"/>
    <path class="cls-1" d="M211,139.96c0,1.11-.75,2.1-1.81,2.4l-27.75,7.93c-3.98,1.14-6.29,5.29-5.15,9.27,.94,3.29,3.94,5.44,7.21,5.44,.68,0,1.38-.09,2.06-.29l27.75-7.93c7.47-2.14,12.69-9.05,12.69-16.83v-19.96h-15v19.96Z"/>
    <path class="cls-1" d="M331,50h-5.01c-3.94-9.38-12.2-16.52-22.11-19.02-8.4-18.7-27.12-30.98-47.89-30.98s-39.48,12.28-47.89,30.98c-9.91,2.5-18.16,9.65-22.11,19.02h-5.01c-15.16,0-27.5,12.34-27.5,27.5s12.34,27.5,27.5,27.5h150c15.16,0,27.5-12.34,27.5-27.5s-12.34-27.5-27.5-27.5Zm-87.5,25h-5c-4.14,0-7.5-3.36-7.5-7.5s3.36-7.5,7.5-7.5h5c4.14,0,7.5,3.36,7.5,7.5s-3.36,7.5-7.5,7.5Zm30,0h-5c-4.14,0-7.5-3.36-7.5-7.5s3.36-7.5,7.5-7.5h5c4.14,0,7.5,3.36,7.5,7.5s-3.36,7.5-7.5,7.5Z"/>
  </g>
</svg>