<?xml version="1.0" encoding="UTF-8"?>
<svg id="OBJECT" xmlns="http://www.w3.org/2000/svg" viewBox="0 0 32 32">
  <defs>
    <style>
      .cls-1 {
        fill: #FD4360;
      }

      .cls-1, .cls-2 {
        stroke-width: 0px;
      }

      .cls-2 {
        fill: #dadada;
      }
    </style>
  </defs>
  <g>
    <path class="cls-2" d="m27,12H5c-.55,0-1,.45-1,1s.45,1,1,1h1v2.97c0,.97.47,1.88,1.26,2.44l5.74,4.1v4.49c0,.38.21.72.55.89l4,2c.14.07.29.11.45.11.18,0,.37-.05.53-.15.29-.18.47-.5.47-.85v-6.49l5.74-4.1c.79-.56,1.26-1.48,1.26-2.44v-2.97h1c.55,0,1-.45,1-1s-.45-1-1-1Zm-12,15.38v-3.38h2v4.38l-2-1Zm9-10.41c0,.32-.16.63-.42.81l-5.9,4.21h-3.36l-5.9-4.21c-.26-.19-.42-.49-.42-.81v-2.97h16v2.97Z"/>
    <path class="cls-2" d="m13,17h1c.55,0,1-.45,1-1s-.45-1-1-1h-1c-.55,0-1,.45-1,1s.45,1,1,1Z"/>
    <path class="cls-2" d="m18,17h1c.55,0,1-.45,1-1s-.45-1-1-1h-1c-.55,0-1,.45-1,1s.45,1,1,1Z"/>
  </g>
  <path class="cls-1" d="m10.5,10h11c1.38,0,2.5-1.12,2.5-2.5V3.5c0-1.38-1.12-2.5-2.5-2.5h-11c-1.38,0-2.5,1.12-2.5,2.5v4c0,1.38,1.12,2.5,2.5,2.5Zm5-5.5h5c.55,0,1,.45,1,1s-.45,1-1,1h-5c-.55,0-1-.45-1-1s.45-1,1-1Zm-5,.5c0-.55.45-1,1-1s1,.45,1,1v1c0,.55-.45,1-1,1s-1-.45-1-1v-1Z"/>
</svg>