<?xml version="1.0" encoding="UTF-8"?>
<svg id="OBJECT" xmlns="http://www.w3.org/2000/svg" viewBox="0 0 32 32">
  <defs>
    <style>
      .cls-1 {
        fill: #FD4360;
      }

      .cls-1, .cls-2 {
        stroke-width: 0px;
      }

      .cls-2 {
        fill: #dadada;
      }
    </style>
  </defs>
  <g>
    <path class="cls-2" d="m13,19h1c.55,0,1-.45,1-1s-.45-1-1-1h-1c-.55,0-1,.45-1,1s.45,1,1,1Z"/>
    <path class="cls-2" d="m18,19h1c.55,0,1-.45,1-1s-.45-1-1-1h-1c-.55,0-1,.45-1,1s.45,1,1,1Z"/>
    <path class="cls-2" d="m27,13H5c-.55,0-1,.45-1,1s.45,1,1,1h1v2.97c0,.97.47,1.88,1.26,2.44l5.74,4.1v5.49c0,.35.18.67.47.85.16.1.34.15.53.15.15,0,.31-.04.45-.11l4-2c.34-.17.55-.52.55-.89v-3.49l5.74-4.1c.79-.56,1.26-1.47,1.26-2.44v-2.97h1c.55,0,1-.45,1-1s-.45-1-1-1Zm-12,15.38v-3.38h2v2.38l-2,1Zm9-10.41c0,.32-.16.63-.42.81l-5.9,4.22h-3.36l-5.9-4.22c-.26-.19-.42-.49-.42-.81v-2.97h16v2.97Z"/>
  </g>
  <g>
    <path class="cls-1" d="m16,7.8c1.65,0,3-1.35,3-3v-1.2c0-1.43-1.17-2.6-2.6-2.6h-.8c-1.43,0-2.6,1.17-2.6,2.6v1.2c0,1.65,1.35,3,3,3Z"/>
    <path class="cls-1" d="m16,9.8c-1.96,0-3.65-1.15-4.46-2.79-.95,1.06-1.54,2.46-1.54,3.99h12c0-1.53-.58-2.93-1.54-3.99-.82,1.65-2.5,2.79-4.46,2.79Z"/>
    <path class="cls-1" d="m26,8h-2c-.55,0-1,.45-1,1s.45,1,1,1h2c.55,0,1-.45,1-1s-.45-1-1-1Z"/>
    <path class="cls-1" d="m23.89,6.48l1.6-1.5c.4-.38.42-1.01.04-1.41-.38-.4-1.01-.42-1.41-.04l-1.6,1.5c-.4.38-.42,1.01-.04,1.41.2.21.46.32.73.32.25,0,.49-.09.68-.27Z"/>
    <path class="cls-1" d="m8,8h-2c-.55,0-1,.45-1,1s.45,1,1,1h2c.55,0,1-.45,1-1s-.45-1-1-1Z"/>
    <path class="cls-1" d="m7.89,3.52c-.4-.38-1.04-.36-1.41.04s-.36,1.04.04,1.41l1.6,1.5c.19.18.44.27.68.27.27,0,.53-.11.73-.32.38-.4.36-1.04-.04-1.41l-1.6-1.5Z"/>
  </g>
</svg>