<?xml version="1.0" encoding="UTF-8"?>
<svg id="OBJECT" xmlns="http://www.w3.org/2000/svg" viewBox="0 0 32 32">
  <defs>
    <style>
      .cls-1 {
        fill: #FD4360;
      }

      .cls-1, .cls-2 {
        stroke-width: 0px;
      }

      .cls-2 {
        fill: #dadada;
      }
    </style>
  </defs>
  <g>
    <path class="cls-2" d="m27,12H5c-.55,0-1,.45-1,1v4c0,.31.14.6.39.79l8.61,6.7v5.51c0,.35.18.67.47.85.16.1.34.15.53.15.15,0,.31-.04.45-.11l4-2c.34-.17.55-.52.55-.89v-3.51l8.61-6.7c.24-.19.39-.48.39-.79v-4c0-.55-.45-1-1-1Zm-12,16.38v-3.38h2v2.38l-2,1Zm11-11.87l-8.34,6.49h-3.31l-6.43-5h9.09c.55,0,1-.45,1-1s-.45-1-1-1H6v-2h20v2.51Z"/>
    <path class="cls-2" d="m20.5,18h.5c.55,0,1-.45,1-1s-.45-1-1-1h-.5c-.55,0-1,.45-1,1s.45,1,1,1Z"/>
  </g>
  <g>
    <path class="cls-1" d="m16,7.86c1.65,0,3-1.35,3-3v-1.29c0-1.42-1.15-2.57-2.57-2.57h-.86c-1.42,0-2.57,1.15-2.57,2.57v1.29c0,1.65,1.35,3,3,3Z"/>
    <path class="cls-1" d="m16,9.86c-1.98,0-3.67-1.16-4.48-2.83-.94,1.06-1.52,2.45-1.52,3.97h12c0-1.52-.58-2.91-1.52-3.97-.81,1.67-2.51,2.83-4.48,2.83Z"/>
    <path class="cls-1" d="m23.71,5.71l3-3c.39-.39.39-1.02,0-1.41s-1.02-.39-1.41,0l-3,3c-.39.39-.39,1.02,0,1.41.2.2.45.29.71.29s.51-.1.71-.29Z"/>
    <path class="cls-1" d="m26,7h-2c-.55,0-1,.45-1,1s.45,1,1,1h2c.55,0,1-.45,1-1s-.45-1-1-1Z"/>
    <path class="cls-1" d="m9.71,4.29l-3-3c-.39-.39-1.02-.39-1.41,0s-.39,1.02,0,1.41l3,3c.2.2.45.29.71.29s.51-.1.71-.29c.39-.39.39-1.02,0-1.41Z"/>
    <path class="cls-1" d="m8,7h-2c-.55,0-1,.45-1,1s.45,1,1,1h2c.55,0,1-.45,1-1s-.45-1-1-1Z"/>
  </g>
</svg>