<?xml version="1.0" encoding="UTF-8"?>
<svg id="OBJECT" xmlns="http://www.w3.org/2000/svg" viewBox="0 0 32 32">
  <defs>
    <style>
      .cls-1 {
        fill: #FD4360;
      }

      .cls-1, .cls-2 {
        stroke-width: 0px;
      }

      .cls-2 {
        fill: #dadada;
      }
    </style>
  </defs>
  <g>
    <path class="cls-2" d="m30,8.5h-10.02c-.55,0-1,.45-1,1s.45,1,1,1h7.02v4.5h-3c-.55,0-1,.45-1,1s.45,1,1,1h1.59l-5,5h-3.67l-3.39-3.39c-.39-.39-1.02-.39-1.41,0s-.39,1.02,0,1.41l3.39,3.39v6.59c0,.34.17.65.46.84.17.11.35.16.54.16.14,0,.28-.03.41-.09l4.5-2c.36-.16.59-.52.59-.91v-4.59l6.71-6.71c.19-.19.29-.44.29-.71v-5.5h1c.55,0,1-.45,1-1s-.45-1-1-1Zm-12.5,19.96v-4.46h2.5v3.35l-2.5,1.11Z"/>
    <path class="cls-2" d="m20.5,17c.55,0,1-.45,1-1s-.45-1-1-1h-.5c-.55,0-1,.45-1,1s.45,1,1,1h.5Z"/>
  </g>
  <path class="cls-1" d="m17,9c0-4.41-3.59-8-8-8S1,4.59,1,9s3.59,8,8,8,8-3.59,8-8Zm-8.75-1h1.5c1.38,0,2.5,1.12,2.5,2.5,0,1.29-.99,2.35-2.25,2.47v.53c0,.55-.45,1-1,1s-1-.45-1-1v-.5h-1.25c-.55,0-1-.45-1-1s.45-1,1-1h3c.28,0,.5-.22.5-.5s-.22-.5-.5-.5h-1.5c-1.38,0-2.5-1.12-2.5-2.5,0-1.29.99-2.35,2.25-2.47v-.53c0-.55.45-1,1-1s1,.45,1,1v.5h1.25c.55,0,1,.45,1,1s-.45,1-1,1h-3c-.28,0-.5.22-.5.5s.22.5.5.5Z"/>
</svg>