<?xml version="1.0" encoding="UTF-8"?>
<svg id="OBJECT" xmlns="http://www.w3.org/2000/svg" viewBox="0 0 32 32">
  <defs>
    <style>
      .cls-1 {
        fill: #FD4360;
      }

      .cls-1, .cls-2 {
        stroke-width: 0px;
      }

      .cls-2 {
        fill: #dadada;
      }
    </style>
  </defs>
  <g>
    <path class="cls-2" d="m30,8.5h-10c-.55,0-1,.45-1,1s.45,1,1,1h7v4.5h-4c-.55,0-1,.45-1,1s.45,1,1,1h2.59l-5,5h-3.67l-3.29-3.29c-.39-.39-1.02-.39-1.41,0s-.39,1.02,0,1.41l3.29,3.29v6.59c0,.34.17.65.46.84.17.11.35.16.54.16.14,0,.28-.03.41-.09l4.5-2c.36-.16.59-.52.59-.91v-4.59l6.71-6.71c.19-.19.29-.44.29-.71v-5.5h1c.55,0,1-.45,1-1s-.45-1-1-1Zm-12.5,19.96v-4.46h2.5v3.35l-2.5,1.11Z"/>
    <path class="cls-2" d="m19,17h.5c.55,0,1-.45,1-1s-.45-1-1-1h-.5c-.55,0-1,.45-1,1s.45,1,1,1Z"/>
  </g>
  <g>
    <path class="cls-1" d="m10.84,9.03v-1.41c0-.48-.39-.88-.88-.88h-.94c-.48,0-.88.39-.88.88v1.41c0,.74.6,1.34,1.34,1.34s1.34-.6,1.34-1.34Z"/>
    <path class="cls-1" d="m9.5,12.38c-.92,0-1.76-.38-2.37-.98-.83.69-1.32,1.7-1.32,2.8v2.96c1.12.54,2.37.85,3.69.85s2.57-.31,3.69-.85v-2.96c0-1.1-.49-2.11-1.32-2.8-.61.61-1.44.98-2.37.98Z"/>
    <path class="cls-1" d="m9.5,1C4.81,1,1,4.81,1,9.5c0,2.5,1.09,4.74,2.81,6.3v-1.61c0-1.85.9-3.56,2.4-4.61-.03-.18-.05-.36-.05-.54v-1.41c0-1.58,1.29-2.88,2.88-2.88h.94c1.58,0,2.88,1.29,2.88,2.88v1.41c0,.19-.03.36-.05.54,1.5,1.06,2.4,2.76,2.4,4.61v1.61c1.72-1.56,2.81-3.8,2.81-6.3,0-4.69-3.81-8.5-8.5-8.5Z"/>
  </g>
</svg>