<?xml version="1.0" encoding="UTF-8"?>
<svg id="OBJECT" xmlns="http://www.w3.org/2000/svg" viewBox="0 0 512 512">
  <defs>
    <style>
      .cls-1 {
        fill: #FD4360;
      }

      .cls-2 {
        fill: #dadada;
      }
    </style>
  </defs>
  <g>
    <path class="cls-2" d="M256,321.5c-4.14,0-7.5,3.36-7.5,7.5v5c0,4.14,3.36,7.5,7.5,7.5s7.5-3.36,7.5-7.5v-5c0-4.14-3.36-7.5-7.5-7.5Z"/>
    <path class="cls-2" d="M416,140H96c-12.41,0-22.5,10.09-22.5,22.5v30c0,12.41,10.09,22.5,22.5,22.5h2.5v79.5c0,8.61,4.11,16.83,11,22l109,81.75v86.25c0,3.23,2.07,6.09,5.13,7.12l60,20c.78,.26,1.58,.38,2.37,.38,1.55,0,3.09-.48,4.39-1.42,1.96-1.41,3.11-3.67,3.11-6.08v-106.25l109-81.75c6.89-5.17,11-13.39,11-22v-79.5h2.5c12.41,0,22.5-10.09,22.5-22.5v-30c0-12.41-10.09-22.5-22.5-22.5Zm-17.5,154.5c0,3.91-1.87,7.65-5,10l-112,84c-1.89,1.42-3,3.64-3,6v99.59l-45-15v-77.09h22.5c4.14,0,7.5-3.36,7.5-7.5s-3.36-7.5-7.5-7.5h-27.5l-110-82.5c-3.13-2.35-5-6.09-5-10v-79.5h82.5v33.92l-20.29,8.11c-2.85,1.14-4.71,3.9-4.71,6.96v39.87c0,4.14,3.36,7.5,7.5,7.5s7.5-3.36,7.5-7.5v-34.79l20.29-8.11c2.85-1.14,4.71-3.9,4.71-6.96v-39h37.5v89c0,4.14,3.36,7.5,7.5,7.5s7.5-3.36,7.5-7.5v-89h37.5v39c0,3.07,1.87,5.82,4.71,6.96l20.29,8.11v34.79c0,4.14,3.36,7.5,7.5,7.5s7.5-3.36,7.5-7.5v-39.87c0-3.07-1.87-5.82-4.71-6.96l-20.29-8.11v-33.92h82.5v79.5Zm25-102c0,4.14-3.36,7.5-7.5,7.5H96c-4.14,0-7.5-3.36-7.5-7.5v-30c0-4.14,3.36-7.5,7.5-7.5H416c4.14,0,7.5,3.36,7.5,7.5v30Z"/>
  </g>
  <g>
    <rect class="cls-1" x="73.5" y="22.5" width="35" height="70"/>
    <rect class="cls-1" x="403.5" y="22.5" width="35" height="70"/>
    <rect class="cls-1" x="153.5" y="45" width="115" height="25"/>
    <path class="cls-1" d="M373.5,0H138.5c-8.28,0-15,6.72-15,15V100c0,8.28,6.72,15,15,15h235c8.28,0,15-6.72,15-15V15c0-8.28-6.72-15-15-15Zm-90,77.5c0,4.14-3.36,7.5-7.5,7.5H146c-4.14,0-7.5-3.36-7.5-7.5V37.5c0-4.14,3.36-7.5,7.5-7.5h130c4.14,0,7.5,3.36,7.5,7.5v40Zm30-7.5c0,4.14-3.36,7.5-7.5,7.5s-7.5-3.36-7.5-7.5v-25c0-4.14,3.36-7.5,7.5-7.5s7.5,3.36,7.5,7.5v25Zm30,0c0,4.14-3.36,7.5-7.5,7.5s-7.5-3.36-7.5-7.5v-25c0-4.14,3.36-7.5,7.5-7.5s7.5,3.36,7.5,7.5v25Zm30,0c0,4.14-3.36,7.5-7.5,7.5s-7.5-3.36-7.5-7.5v-25c0-4.14,3.36-7.5,7.5-7.5s7.5,3.36,7.5,7.5v25Z"/>
  </g>
</svg>