<?xml version="1.0" encoding="UTF-8"?>
<svg id="OBJECT" xmlns="http://www.w3.org/2000/svg" viewBox="0 0 512 512">
  <defs>
    <style>
      .cls-1 {
        fill: #FD4360;
      }

      .cls-2 {
        fill: #dadada;
      }
    </style>
  </defs>
  <g>
    <path class="cls-2" d="M241,305h30c9.65,0,17.5-7.85,17.5-17.5v-10c0-9.65-7.85-17.5-17.5-17.5h-30c-9.65,0-17.5,7.85-17.5,17.5v10c0,9.65,7.85,17.5,17.5,17.5Zm-2.5-27.5c0-1.38,1.12-2.5,2.5-2.5h30c1.38,0,2.5,1.12,2.5,2.5v10c0,1.38-1.12,2.5-2.5,2.5h-30c-1.38,0-2.5-1.12-2.5-2.5v-10Z"/>
    <path class="cls-2" d="M321,305h30c9.65,0,17.5-7.85,17.5-17.5v-10c0-9.65-7.85-17.5-17.5-17.5h-30c-9.65,0-17.5,7.85-17.5,17.5v10c0,9.65,7.85,17.5,17.5,17.5Zm-2.5-27.5c0-1.38,1.12-2.5,2.5-2.5h30c1.38,0,2.5,1.12,2.5,2.5v10c0,1.38-1.12,2.5-2.5,2.5h-30c-1.38,0-2.5-1.12-2.5-2.5v-10Z"/>
    <path class="cls-2" d="M161,305h30c9.65,0,17.5-7.85,17.5-17.5v-10c0-9.65-7.85-17.5-17.5-17.5h-30c-9.65,0-17.5,7.85-17.5,17.5v10c0,9.65,7.85,17.5,17.5,17.5Zm-2.5-27.5c0-1.38,1.12-2.5,2.5-2.5h30c1.38,0,2.5,1.12,2.5,2.5v10c0,1.38-1.12,2.5-2.5,2.5h-30c-1.38,0-2.5-1.12-2.5-2.5v-10Z"/>
    <path class="cls-2" d="M411,190H101c-15.16,0-27.5,12.34-27.5,27.5v20c0,4.14,3.36,7.5,7.5,7.5h17.5v62.5c0,14.87,7.1,29.08,19,38l101,75.75v83.25c0,2.41,1.16,4.67,3.11,6.08,1.29,.93,2.83,1.42,4.39,1.42,.8,0,1.6-.13,2.37-.38l60-20c3.06-1.02,5.13-3.89,5.13-7.12v-63.25l101-75.75c11.9-8.92,19-23.13,19-38v-62.5h17.5c4.14,0,7.5-3.36,7.5-7.5v-20c0-15.16-12.34-27.5-27.5-27.5Zm-12.5,117.5c0,10.18-4.86,19.9-13,26l-104,78c-1.89,1.42-3,3.64-3,6v61.59l-45,15v-69.09h22.5c4.14,0,7.5-3.36,7.5-7.5s-3.36-7.5-7.5-7.5h-27.5l-102-76.5c-8.14-6.1-13-15.82-13-26v-62.5H398.5v62.5Zm25-77.5H88.5v-12.5c0-6.89,5.61-12.5,12.5-12.5H411c6.89,0,12.5,5.61,12.5,12.5v12.5Z"/>
  </g>
  <g>
    <path class="cls-1" d="M176,95c20.68,0,37.5-16.82,37.5-37.5V27.5c0-15.16-12.34-27.5-27.5-27.5h-20c-15.16,0-27.5,12.34-27.5,27.5v30c0,20.68,16.82,37.5,37.5,37.5Z"/>
    <path class="cls-1" d="M224.16,78.37c-8.09,18.59-26.63,31.63-48.16,31.63s-40.07-13.04-48.16-31.63c-14.92,13.29-24.34,32.63-24.34,54.13v20c0,12.41,10.09,22.5,22.5,22.5h7.5v-22.5c0-4.14,3.36-7.5,7.5-7.5s7.5,3.36,7.5,7.5v22.5h55v-22.5c0-4.14,3.36-7.5,7.5-7.5s7.5,3.36,7.5,7.5v22.5h7.5c12.41,0,22.5-10.09,22.5-22.5v-20c0-21.5-9.42-40.84-24.34-54.13Z"/>
    <path class="cls-1" d="M336,95c20.68,0,37.5-16.82,37.5-37.5V27.5c0-15.16-12.34-27.5-27.5-27.5h-20c-15.16,0-27.5,12.34-27.5,27.5v30c0,20.68,16.82,37.5,37.5,37.5Z"/>
    <path class="cls-1" d="M384.16,78.37c-8.09,18.59-26.63,31.63-48.16,31.63s-40.07-13.04-48.16-31.63c-14.92,13.29-24.34,32.63-24.34,54.13v20c0,12.41,10.09,22.5,22.5,22.5h7.5v-22.5c0-4.14,3.36-7.5,7.5-7.5s7.5,3.36,7.5,7.5v22.5h55v-22.5c0-4.14,3.36-7.5,7.5-7.5s7.5,3.36,7.5,7.5v22.5h7.5c12.41,0,22.5-10.09,22.5-22.5v-20c0-21.5-9.42-40.84-24.34-54.13Z"/>
  </g>
</svg>