<?xml version="1.0" encoding="UTF-8"?>
<svg id="OBJECT" xmlns="http://www.w3.org/2000/svg" viewBox="0 0 32 32">
  <defs>
    <style>
      .cls-1 {
        fill: #FD4360;
      }

      .cls-1, .cls-2 {
        stroke-width: 0px;
      }

      .cls-2 {
        fill: #dadada;
      }
    </style>
  </defs>
  <g>
    <path class="cls-2" d="m13.5,14c-.55,0-1,.45-1,1s.45,1,1,1h.5c.55,0,1-.45,1-1s-.45-1-1-1h-.5Z"/>
    <path class="cls-2" d="m22.64,16.02c-.33-.44-.96-.53-1.4-.2l-5.57,4.18h-5.33l-5.33-4h5c.55,0,1-.45,1-1s-.45-1-1-1H3v-3h12.34c.55,0,1-.45,1-1s-.45-1-1-1h-1.34V2c0-.55-.45-1-1-1s-1,.45-1,1v7h-3v-3c0-.33-.17-.65-.45-.83l-3-2c-.46-.31-1.08-.18-1.39.28s-.18,1.08.28,1.39l2.55,1.7v2.46H2c-.55,0-1,.45-1,1v4c0,.93.45,1.83,1.2,2.4l6.8,5.1v8.5c0,.35.18.67.47.85.16.1.34.15.53.15.15,0,.31-.04.45-.11l4.89-2.45c1.03-.51,1.66-1.54,1.66-2.68v-4.26l5.44-4.08c.44-.33.53-.96.2-1.4Zm-8.2,10.63l-3.44,1.73v-6.38h4v3.76c0,.38-.21.72-.56.9Z"/>
  </g>
  <path class="cls-1" d="m24,1c-3.86,0-7,3.14-7,7s3.14,7,7,7,7-3.14,7-7-3.14-7-7-7Zm3.21,6.18l-3.06,3.06c-.19.19-.44.29-.71.29s-.52-.11-.71-.29l-1.94-1.94c-.39-.39-.39-1.02,0-1.41s1.02-.39,1.41,0l1.23,1.23,2.35-2.36c.39-.39,1.02-.39,1.41,0s.39,1.02,0,1.41Z"/>
</svg>