<?xml version="1.0" encoding="UTF-8"?>
<svg id="OBJECT" xmlns="http://www.w3.org/2000/svg" viewBox="0 0 32 32">
  <defs>
    <style>
      .cls-1 {
        fill: #FD4360;
      }

      .cls-1, .cls-2 {
        stroke-width: 0px;
      }

      .cls-2 {
        fill: #dadada;
      }
    </style>
  </defs>
  <g>
    <path class="cls-2" d="m27,12H5c-.55,0-1,.45-1,1s.45,1,1,1h1v2.97c0,.97.47,1.88,1.26,2.44l5.74,4.1v6.49c0,.35.18.67.47.85.16.1.34.15.53.15.15,0,.31-.04.45-.11l4-2c.34-.17.55-.52.55-.89v-4.49l5.74-4.1c.79-.56,1.26-1.47,1.26-2.44v-2.97h1c.55,0,1-.45,1-1s-.45-1-1-1Zm-12,16.38v-4.38h2v3.38l-2,1Zm9-11.41c0,.32-.16.63-.42.81l-5.9,4.22h-3.36l-5.9-4.22c-.26-.19-.42-.49-.42-.81v-2.97h16v2.97Z"/>
    <path class="cls-2" d="m13,17h1c.55,0,1-.45,1-1s-.45-1-1-1h-1c-.55,0-1,.45-1,1s.45,1,1,1Z"/>
    <path class="cls-2" d="m18,17h1c.55,0,1-.45,1-1s-.45-1-1-1h-1c-.55,0-1,.45-1,1s.45,1,1,1Z"/>
  </g>
  <g>
    <rect class="cls-1" x="17.5" y="5" width="6" height="5"/>
    <path class="cls-1" d="m22,1h-3c-.83,0-1.5.67-1.5,1.5v.5h6v-.5c0-.83-.67-1.5-1.5-1.5Z"/>
    <rect class="cls-1" x="8.5" y="8" width="6" height="2"/>
    <path class="cls-1" d="m13,4h-3c-.83,0-1.5.67-1.5,1.5v.5h6v-.5c0-.83-.67-1.5-1.5-1.5Z"/>
  </g>
</svg>