<?xml version="1.0" encoding="UTF-8"?>
<svg id="OBJECT" xmlns="http://www.w3.org/2000/svg" viewBox="0 0 32 32">
  <defs>
    <style>
      .cls-1 {
        fill: #FD4360;
      }

      .cls-2 {
        fill: #dadada;
      }
    </style>
  </defs>
  <g>
    <path class="cls-2" d="M13,18h1c.55,0,1-.45,1-1s-.45-1-1-1h-1c-.55,0-1,.45-1,1s.45,1,1,1Z"/>
    <path class="cls-2" d="M18,18h1c.55,0,1-.45,1-1s-.45-1-1-1h-1c-.55,0-1,.45-1,1s.45,1,1,1Z"/>
    <path class="cls-2" d="M27,13H5c-.55,0-1,.45-1,1s.45,1,1,1h1v3.97c0,.97,.47,1.88,1.26,2.44l5.74,4.1v3.49c0,.46,.31,.86,.76,.97l4,1c.08,.02,.16,.03,.24,.03,.22,0,.44-.07,.62-.21,.24-.19,.38-.48,.38-.79v-4.49l5.74-4.1c.79-.56,1.26-1.47,1.26-2.44v-3.97h1c.55,0,1-.45,1-1s-.45-1-1-1Zm-3,5.97c0,.32-.16,.63-.42,.81l-6.16,4.4c-.26,.19-.42,.49-.42,.81v3.72l-2-.5v-3.22c0-.32-.16-.63-.42-.81l-6.16-4.4c-.26-.19-.42-.49-.42-.81v-3.97H24v3.97Z"/>
  </g>
  <path class="cls-1" d="M23,5.62c0-.66-.27-1.3-.73-1.77l-2.12-2.12c-.47-.47-1.11-.73-1.77-.73h-6.88c-1.38,0-2.5,1.12-2.5,2.5v7.5h14V5.62ZM13.5,3h3c.55,0,1,.45,1,1s-.45,1-1,1h-3c-.55,0-1-.45-1-1s.45-1,1-1Zm5,6h-5c-.55,0-1-.45-1-1s.45-1,1-1h5c.55,0,1,.45,1,1s-.45,1-1,1Z"/>
</svg>