<?xml version="1.0" encoding="UTF-8"?>
<svg id="OBJECT" xmlns="http://www.w3.org/2000/svg" viewBox="0 0 512 512">
  <defs>
    <style>
      .cls-1 {
        fill: #FD4360;
      }

      .cls-2 {
        fill: #dadada;
      }
    </style>
  </defs>
  <g>
    <path class="cls-1" d="M208.5,91c8.27,0,15-6.73,15-15v-27.5c0-4.14-3.36-7.5-7.5-7.5h-15c-4.14,0-7.5,3.36-7.5,7.5v27.5c0,8.27,6.73,15,15,15Z"/>
    <path class="cls-1" d="M231.65,95.06c-5.51,6.68-13.84,10.94-23.15,10.94s-17.64-4.26-23.15-10.94c-14.76,6.94-24.35,21.76-24.35,38.44v22.5h12.5v-17.5c0-4.14,3.36-7.5,7.5-7.5s7.5,3.36,7.5,7.5v17.5h40v-17.5c0-4.14,3.36-7.5,7.5-7.5s7.5,3.36,7.5,7.5v17.5h12.5v-22.5c0-16.68-9.59-31.5-24.35-38.44Z"/>
    <path class="cls-1" d="M293.5,0H123.5c-8.28,0-15,6.72-15,15V197h200V15c0-8.28-6.72-15-15-15Zm-22.5,163.5c0,4.14-3.36,7.5-7.5,7.5h-110c-4.14,0-7.5-3.36-7.5-7.5v-30c0-22.59,13-42.66,33.01-52.03-.33-1.77-.51-3.6-.51-5.47v-27.5c0-12.41,10.09-22.5,22.5-22.5h15c12.41,0,22.5,10.09,22.5,22.5v27.5c0,1.87-.18,3.69-.51,5.47,20.01,9.37,33.01,29.44,33.01,52.03v30Z"/>
  </g>
  <g>
    <path class="cls-2" d="M156,332h20c12.41,0,22.5-10.09,22.5-22.5v-5c0-12.41-10.09-22.5-22.5-22.5h-20c-12.41,0-22.5,10.09-22.5,22.5v5c0,12.41,10.09,22.5,22.5,22.5Zm-7.5-27.5c0-4.14,3.36-7.5,7.5-7.5h20c4.14,0,7.5,3.36,7.5,7.5v5c0,4.14-3.36,7.5-7.5,7.5h-20c-4.14,0-7.5-3.36-7.5-7.5v-5Z"/>
    <path class="cls-2" d="M246,332h20c12.41,0,22.5-10.09,22.5-22.5v-5c0-12.41-10.09-22.5-22.5-22.5h-20c-12.41,0-22.5,10.09-22.5,22.5v5c0,12.41,10.09,22.5,22.5,22.5Zm-7.5-27.5c0-4.14,3.36-7.5,7.5-7.5h20c4.14,0,7.5,3.36,7.5,7.5v5c0,4.14-3.36,7.5-7.5,7.5h-20c-4.14,0-7.5-3.36-7.5-7.5v-5Z"/>
    <path class="cls-2" d="M336,332h20c12.41,0,22.5-10.09,22.5-22.5v-5c0-12.41-10.09-22.5-22.5-22.5h-20c-12.41,0-22.5,10.09-22.5,22.5v5c0,12.41,10.09,22.5,22.5,22.5Zm-7.5-27.5c0-4.14,3.36-7.5,7.5-7.5h20c4.14,0,7.5,3.36,7.5,7.5v5c0,4.14-3.36,7.5-7.5,7.5h-20c-4.14,0-7.5-3.36-7.5-7.5v-5Z"/>
    <path class="cls-2" d="M416,212h-12.5V47.5c0-4.14-3.36-7.5-7.5-7.5h-65c-4.14,0-7.5,3.36-7.5,7.5s3.36,7.5,7.5,7.5h57.5V212H96c-12.41,0-22.5,10.09-22.5,22.5v25c0,4.14,3.36,7.5,7.5,7.5h17.5v65.9c0,6.29,2.66,12.33,7.3,16.59,.19,.17,.39,.34,.6,.49l112.11,83.29v61.23c0,3.67,2.65,6.79,6.27,7.4l60,10c.41,.07,.82,.1,1.23,.1,1.76,0,3.48-.62,4.85-1.78,1.68-1.42,2.65-3.52,2.65-5.72v-71.23l112.11-83.29c.21-.15,.41-.32,.6-.49,4.64-4.25,7.3-10.3,7.3-16.59v-65.9h17.5c4.14,0,7.5-3.36,7.5-7.5v-25c0-12.41-10.09-22.5-22.5-22.5Zm-17.5,120.9c0,1.99-.8,3.91-2.2,5.31l-114.77,85.27c-1.9,1.42-3.03,3.65-3.03,6.02v66.15l-45-7.5v-51.15h22.5c4.14,0,7.5-3.36,7.5-7.5s-3.36-7.5-7.5-7.5h-27.52l-112.78-83.79c-1.4-1.4-2.2-3.32-2.2-5.31v-65.9H398.5v65.9Zm25-80.9H88.5v-17.5c0-4.14,3.36-7.5,7.5-7.5H416c4.14,0,7.5,3.36,7.5,7.5v17.5Z"/>
    <path class="cls-2" d="M341,88.5h30c4.14,0,7.5-3.36,7.5-7.5s-3.36-7.5-7.5-7.5h-30c-4.14,0-7.5,3.36-7.5,7.5s3.36,7.5,7.5,7.5Z"/>
    <path class="cls-2" d="M341,118.5h30c4.14,0,7.5-3.36,7.5-7.5s-3.36-7.5-7.5-7.5h-30c-4.14,0-7.5,3.36-7.5,7.5s3.36,7.5,7.5,7.5Z"/>
    <path class="cls-2" d="M341,148.5h30c4.14,0,7.5-3.36,7.5-7.5s-3.36-7.5-7.5-7.5h-30c-4.14,0-7.5,3.36-7.5,7.5s3.36,7.5,7.5,7.5Z"/>
    <path class="cls-2" d="M341,178.5h30c4.14,0,7.5-3.36,7.5-7.5s-3.36-7.5-7.5-7.5h-30c-4.14,0-7.5,3.36-7.5,7.5s3.36,7.5,7.5,7.5Z"/>
  </g>
</svg>