<?xml version="1.0" encoding="UTF-8"?>
<svg id="OBJECT" xmlns="http://www.w3.org/2000/svg" viewBox="0 0 32 32">
  <defs>
    <style>
      .cls-1 {
        fill: #FD4360;
      }

      .cls-2 {
        fill: #dadada;
      }
    </style>
  </defs>
  <g>
    <path class="cls-2" d="M25,14c-.55,0-1,.45-1,1v2.54l-6.37,5.46h-3.26l-4.67-4h5.3c.55,0,1-.45,1-1s-.45-1-1-1h-7v-2c0-.55-.45-1-1-1s-1,.45-1,1v3c0,.29,.13,.57,.35,.76l6.65,5.7v3.54c0,.38,.21,.72,.55,.89l4,2c.14,.07,.29,.11,.45,.11,.18,0,.37-.05,.53-.15,.29-.18,.47-.5,.47-.85v-5.54l6.65-5.7c.22-.19,.35-.47,.35-.76v-3c0-.55-.45-1-1-1Zm-10,13.38v-2.38h2v3.38l-2-1Z"/>
    <path class="cls-2" d="M18.5,19h.5c.55,0,1-.45,1-1s-.45-1-1-1h-.5c-.55,0-1,.45-1,1s.45,1,1,1Z"/>
  </g>
  <path class="cls-1" d="M16,7.8c1.65,0,3-1.35,3-3v-1.2c0-1.43-1.17-2.6-2.6-2.6h-.8c-1.43,0-2.6,1.17-2.6,2.6v1.2c0,1.65,1.35,3,3,3Z"/>
  <path class="cls-1" d="M27,11h-5c0-1.53-.58-2.93-1.54-3.99-.82,1.65-2.5,2.79-4.46,2.79s-3.65-1.15-4.46-2.79c-.95,1.06-1.54,2.46-1.54,3.99H5c-.55,0-1,.45-1,1s.45,1,1,1H27c.55,0,1-.45,1-1s-.45-1-1-1Z"/>
</svg>