<?xml version="1.0" encoding="UTF-8"?>
<svg id="OBJECT" xmlns="http://www.w3.org/2000/svg" viewBox="0 0 512 512">
  <defs>
    <style>
      .cls-1 {
        fill: #FD4360;
      }

      .cls-2 {
        fill: #dadada;
      }
    </style>
  </defs>
  <g>
    <path class="cls-2" d="M154.5,422h-10c-4.14,0-7.5,3.36-7.5,7.5s3.36,7.5,7.5,7.5h10c4.14,0,7.5-3.36,7.5-7.5s-3.36-7.5-7.5-7.5Z"/>
    <path class="cls-2" d="M472,402h32.5c4.14,0,7.5-3.36,7.5-7.5v-40c0-4.14-3.36-7.5-7.5-7.5h-69.5v-22.5c0-4.14-3.36-7.5-7.5-7.5h-32.5v-35h32.5c4.14,0,7.5-3.36,7.5-7.5v-30c0-4.14-3.36-7.5-7.5-7.5H27.5c-15.16,0-27.5,12.34-27.5,27.5v70c0,15.16,12.34,27.5,27.5,27.5H60.02c-1.92,3.75-3.02,8-3.02,12.5v110c0,15.16,12.34,27.5,27.5,27.5H504.5c4.14,0,7.5-3.36,7.5-7.5v-40c0-4.14-3.36-7.5-7.5-7.5h-32.5v-55Zm-92-85H55v-35H380v35ZM15,334.5v-70c0-6.89,5.61-12.5,12.5-12.5H420v15H47.5c-4.14,0-7.5,3.36-7.5,7.5v50c0,4.14,3.36,7.5,7.5,7.5H420v15H27.5c-6.89,0-12.5-5.61-12.5-12.5Zm482,162.5H84.5c-6.89,0-12.5-5.61-12.5-12.5v-110c0-6.89,5.61-12.5,12.5-12.5H497v25H114.5c-4.14,0-7.5,3.36-7.5,7.5v70c0,4.14,3.36,7.5,7.5,7.5H497v25Zm-375-40v-55H457v20H184.5c-4.14,0-7.5,3.36-7.5,7.5s3.36,7.5,7.5,7.5H457v20H122Z"/>
  </g>
  <path class="cls-1" d="M256,0c-62.03,0-112.5,50.47-112.5,112.5s50.47,112.5,112.5,112.5,112.5-50.47,112.5-112.5S318.03,0,256,0Zm-60,120h-10c-4.14,0-7.5-3.36-7.5-7.5s3.36-7.5,7.5-7.5h10c4.14,0,7.5,3.36,7.5,7.5s-3.36,7.5-7.5,7.5Zm80,38.27v14.23c0,4.14-3.36,7.5-7.5,7.5s-7.5-3.36-7.5-7.5v-12.5h-10v12.5c0,4.14-3.36,7.5-7.5,7.5s-7.5-3.36-7.5-7.5v-12.5h-4c-4.14,0-7.5-3.36-7.5-7.5s3.36-7.5,7.5-7.5h34.62c6.55,0,11.88-5.61,11.88-12.5s-5.33-12.5-11.88-12.5h-21.23c-14.82,0-26.88-12.34-26.88-27.5,0-11.79,7.29-21.86,17.5-25.77v-14.23c0-4.14,3.36-7.5,7.5-7.5s7.5,3.36,7.5,7.5v12.5h10v-12.5c0-4.14,3.36-7.5,7.5-7.5s7.5,3.36,7.5,7.5v12.5h4c4.14,0,7.5,3.36,7.5,7.5s-3.36,7.5-7.5,7.5h-34.62c-6.55,0-11.88,5.61-11.88,12.5s5.33,12.5,11.88,12.5h21.23c14.82,0,26.88,12.34,26.88,27.5,0,11.79-7.29,21.86-17.5,25.77Zm50-38.27h-10c-4.14,0-7.5-3.36-7.5-7.5s3.36-7.5,7.5-7.5h10c4.14,0,7.5,3.36,7.5,7.5s-3.36,7.5-7.5,7.5Z"/>
</svg>