<?xml version="1.0" encoding="UTF-8"?>
<svg id="OBJECT" xmlns="http://www.w3.org/2000/svg" viewBox="0 0 512 512">
  <defs>
    <style>
      .cls-1 {
        fill: #FD4360;
      }

      .cls-2 {
        fill: #dadada;
      }
    </style>
  </defs>
  <g>
    <path class="cls-2" d="M7.5,95c4.14,0,7.5-3.36,7.5-7.5V37.5c0-12.41,10.09-22.5,22.5-22.5h50c4.14,0,7.5-3.36,7.5-7.5s-3.36-7.5-7.5-7.5H37.5C16.82,0,0,16.82,0,37.5v50c0,4.14,3.36,7.5,7.5,7.5Z"/>
    <path class="cls-2" d="M87.5,497H37.5c-12.41,0-22.5-10.09-22.5-22.5v-50c0-4.14-3.36-7.5-7.5-7.5s-7.5,3.36-7.5,7.5v50c0,20.68,16.82,37.5,37.5,37.5h50c4.14,0,7.5-3.36,7.5-7.5s-3.36-7.5-7.5-7.5Z"/>
    <path class="cls-2" d="M357.5,15h50c12.41,0,22.5,10.09,22.5,22.5v50c0,4.14,3.36,7.5,7.5,7.5s7.5-3.36,7.5-7.5V37.5c0-20.68-16.82-37.5-37.5-37.5h-50c-4.14,0-7.5,3.36-7.5,7.5s3.36,7.5,7.5,7.5Z"/>
    <path class="cls-2" d="M414.5,317c-3.21,0-6.37,.16-9.5,.46V67.5c0-15.16-12.34-27.5-27.5-27.5H67.5c-15.16,0-27.5,12.34-27.5,27.5V447.5c0,15.16,12.34,27.5,27.5,27.5H338.1c17.87,22.53,45.48,37,76.4,37,53.76,0,97.5-43.74,97.5-97.5s-43.74-97.5-97.5-97.5ZM67.5,460c-6.89,0-12.5-5.61-12.5-12.5V67.5c0-6.89,5.61-12.5,12.5-12.5H377.5c6.89,0,12.5,5.61,12.5,12.5v252.62c-41.94,10.89-73,49.08-73,94.38,0,16.42,4.09,31.91,11.29,45.5H67.5Zm347,37c-45.49,0-82.5-37.01-82.5-82.5s37.01-82.5,82.5-82.5,82.5,37.01,82.5,82.5-37.01,82.5-82.5,82.5Z"/>
    <path class="cls-2" d="M449.15,384.25l-43.69,44.54-25.6-26.1c-2.9-2.96-7.65-3-10.61-.1-2.96,2.9-3,7.65-.1,10.61l30.95,31.56c1.41,1.44,3.34,2.25,5.35,2.25s3.94-.81,5.35-2.25l49.05-50c2.9-2.96,2.85-7.71-.1-10.61-2.96-2.9-7.71-2.85-10.61,.1Z"/>
  </g>
  <g>
    <path class="cls-1" d="M222.5,75c-81.33,0-147.5,66.17-147.5,147.5v100c0,4.14,3.36,7.5,7.5,7.5s7.5-3.36,7.5-7.5v-100c0-73.06,59.44-132.5,132.5-132.5s132.5,59.44,132.5,132.5v50c0,4.14,3.36,7.5,7.5,7.5s7.5-3.36,7.5-7.5v-50c0-81.33-66.17-147.5-147.5-147.5Z"/>
    <path class="cls-1" d="M222.5,115c-59.28,0-107.5,48.22-107.5,107.5v155c0,4.14-3.36,7.5-7.5,7.5h-25c-4.14,0-7.5,3.36-7.5,7.5s3.36,7.5,7.5,7.5h25c12.41,0,22.5-10.09,22.5-22.5V222.5c0-51,41.5-92.5,92.5-92.5s92.5,41.5,92.5,92.5v120c0,4.14,3.36,7.5,7.5,7.5s7.5-3.36,7.5-7.5v-120c0-59.28-48.22-107.5-107.5-107.5Z"/>
    <path class="cls-1" d="M222.5,155c-37.22,0-67.5,30.28-67.5,67.5v80c0,4.14,3.36,7.5,7.5,7.5h85c23.43,0,42.5-19.07,42.5-42.5v-45c0-37.22-30.28-67.5-67.5-67.5Zm27.5,87.5c0,15.16-12.34,27.5-27.5,27.5h-20c-4.14,0-7.5-3.36-7.5-7.5s3.36-7.5,7.5-7.5h20c6.89,0,12.5-5.61,12.5-12.5v-20c0-6.89-5.61-12.5-12.5-12.5s-12.5,5.61-12.5,12.5c0,4.14-3.36,7.5-7.5,7.5s-7.5-3.36-7.5-7.5c0-15.16,12.34-27.5,27.5-27.5s27.5,12.34,27.5,27.5v20Z"/>
    <path class="cls-1" d="M282.5,315c-4.14,0-7.5,3.36-7.5,7.5v80c0,4.14,3.36,7.5,7.5,7.5s7.5-3.36,7.5-7.5v-80c0-4.14-3.36-7.5-7.5-7.5Z"/>
    <path class="cls-1" d="M282.5,415c-4.14,0-7.5,3.36-7.5,7.5v10c0,4.14,3.36,7.5,7.5,7.5s7.5-3.36,7.5-7.5v-10c0-4.14-3.36-7.5-7.5-7.5Z"/>
    <path class="cls-1" d="M242.5,335c-4.14,0-7.5,3.36-7.5,7.5v90c0,4.14,3.36,7.5,7.5,7.5s7.5-3.36,7.5-7.5v-90c0-4.14-3.36-7.5-7.5-7.5Z"/>
    <path class="cls-1" d="M202.5,335c-4.14,0-7.5,3.36-7.5,7.5v60c0,4.14,3.36,7.5,7.5,7.5s7.5-3.36,7.5-7.5v-60c0-4.14-3.36-7.5-7.5-7.5Z"/>
    <path class="cls-1" d="M202.5,415c-4.14,0-7.5,3.36-7.5,7.5v10c0,4.14,3.36,7.5,7.5,7.5s7.5-3.36,7.5-7.5v-10c0-4.14-3.36-7.5-7.5-7.5Z"/>
    <path class="cls-1" d="M87.5,425h-5c-4.14,0-7.5,3.36-7.5,7.5s3.36,7.5,7.5,7.5h5c4.14,0,7.5-3.36,7.5-7.5s-3.36-7.5-7.5-7.5Z"/>
    <path class="cls-1" d="M82.5,370c4.14,0,7.5-3.36,7.5-7.5v-10c0-4.14-3.36-7.5-7.5-7.5s-7.5,3.36-7.5,7.5v10c0,4.14,3.36,7.5,7.5,7.5Z"/>
    <path class="cls-1" d="M362.5,295c-4.14,0-7.5,3.36-7.5,7.5v10c0,4.14,3.36,7.5,7.5,7.5s7.5-3.36,7.5-7.5v-10c0-4.14-3.36-7.5-7.5-7.5Z"/>
  </g>
</svg>