<?xml version="1.0" encoding="UTF-8"?>
<svg id="OBJECT" xmlns="http://www.w3.org/2000/svg" viewBox="0 0 32 32">
  <defs>
    <style>
      .cls-1 {
        fill: #FD4360;
      }

      .cls-1, .cls-2 {
        stroke-width: 0px;
      }

      .cls-2 {
        fill: #dadada;
      }
    </style>
  </defs>
  <g>
    <path class="cls-2" d="m6.62,3.93l.31.13c.12.05.25.08.38.08.39,0,.77-.23.93-.62.21-.51-.04-1.1-.55-1.3l-.31-.13c-.51-.21-1.1.04-1.3.55-.21.51.04,1.1.55,1.3Z"/>
    <path class="cls-2" d="m11.33,3.69l-1.34-.55c-.51-.21-1.1.04-1.3.55-.21.51.04,1.1.55,1.3l1.34.55c.19.08.31.26.31.46v2.99c0,.55.45,1,1,1s1-.45,1-1v-2.99c0-1.02-.61-1.93-1.55-2.31Z"/>
    <path class="cls-2" d="m24.57,4.13c.13,0,.25-.02.38-.08l.31-.13c.51-.21.76-.79.55-1.3-.21-.51-.79-.75-1.3-.55l-.31.13c-.51.21-.76.79-.55,1.3.16.39.53.62.93.62Z"/>
    <path class="cls-2" d="m20,10c.55,0,1-.45,1-1v-2.99c0-.2.12-.39.31-.46l1.35-.55c.51-.21.76-.79.55-1.3-.21-.51-.79-.76-1.3-.55l-1.35.55c-.94.39-1.55,1.29-1.55,2.31v2.99c0,.55.45,1,1,1Z"/>
    <path class="cls-2" d="m16,1c-.55,0-1,.45-1,1v7c0,.55.45,1,1,1s1-.45,1-1V2c0-.55-.45-1-1-1Z"/>
    <path class="cls-2" d="m6.93,27.95l-.31.13c-.51.21-.76.79-.55,1.3.16.39.53.62.93.62.13,0,.25-.02.38-.07l.31-.13c.51-.21.76-.79.55-1.3-.21-.51-.79-.75-1.3-.55Z"/>
    <path class="cls-2" d="m11.88,22c-.55,0-1,.45-1,1v2.99c0,.2-.12.38-.31.46l-1.34.55c-.51.21-.76.79-.55,1.3.16.39.53.62.93.62.13,0,.25-.02.38-.07l1.35-.55c.94-.39,1.55-1.29,1.55-2.31v-2.99c0-.55-.45-1-1-1Z"/>
    <path class="cls-2" d="m25.26,28.07l-.31-.13c-.51-.21-1.1.04-1.3.55-.21.51.04,1.09.55,1.3l.31.13c.12.05.25.07.38.07.39,0,.77-.23.93-.62.21-.51-.04-1.09-.55-1.3Z"/>
    <path class="cls-2" d="m22.66,27.01l-1.34-.55c-.19-.08-.31-.26-.31-.46v-2.99c0-.55-.45-1-1-1s-1,.45-1,1v2.99c0,1.02.61,1.93,1.55,2.31l1.35.55c.12.05.25.07.38.07.39,0,.77-.23.93-.62.21-.51-.04-1.09-.55-1.3Z"/>
    <path class="cls-2" d="m16,22c-.55,0-1,.45-1,1v7c0,.55.45,1,1,1s1-.45,1-1v-7c0-.55-.45-1-1-1Z"/>
    <path class="cls-2" d="m28.43,8.29c.12.05.25.08.38.08.39,0,.77-.23.93-.62l.13-.31c.21-.51-.04-1.1-.55-1.3-.51-.21-1.1.04-1.3.55l-.13.31c-.21.51.04,1.1.55,1.3Z"/>
    <path class="cls-2" d="m21.94,11.94c0,.55.45,1,1,1h2.99c1.02,0,1.93-.61,2.31-1.55l.55-1.34c.21-.51-.04-1.1-.55-1.3-.51-.21-1.09.04-1.3.55l-.55,1.34c-.08.19-.26.31-.46.31h-2.99c-.55,0-1,.45-1,1Z"/>
    <path class="cls-2" d="m29.74,24.25c-.21-.51-.79-.76-1.3-.55-.51.21-.76.79-.55,1.3l.13.31c.16.39.53.62.93.62.13,0,.25-.02.38-.07.51-.21.76-.79.55-1.3l-.13-.31Z"/>
    <path class="cls-2" d="m28.25,23.26c.51-.21.76-.79.55-1.3l-.55-1.35c-.39-.94-1.29-1.55-2.31-1.55h-2.99c-.55,0-1,.45-1,1s.45,1,1,1h2.99c.2,0,.39.12.46.31l.55,1.35c.16.39.53.62.93.62.13,0,.25-.02.38-.07Z"/>
    <path class="cls-2" d="m29.94,15.06h-7c-.55,0-1,.45-1,1s.45,1,1,1h7c.55,0,1-.45,1-1s-.45-1-1-1Z"/>
    <path class="cls-2" d="m2.14,7.75c.16.39.53.62.93.62.13,0,.25-.02.38-.08.51-.21.76-.79.55-1.3l-.13-.31c-.21-.51-.79-.75-1.3-.55-.51.21-.76.79-.55,1.3l.13.31Z"/>
    <path class="cls-2" d="m3.63,8.74c-.51.21-.76.79-.55,1.3l.55,1.34c.39.94,1.29,1.55,2.31,1.55h2.99c.55,0,1-.45,1-1s-.45-1-1-1h-2.99c-.2,0-.39-.12-.46-.31l-.55-1.34c-.21-.51-.79-.75-1.3-.55Z"/>
    <path class="cls-2" d="m3.44,23.71c-.51-.21-1.1.04-1.3.55l-.13.31c-.21.51.04,1.09.55,1.3.12.05.25.07.38.07.39,0,.77-.23.93-.62l.13-.31c.21-.51-.04-1.09-.55-1.3Z"/>
    <path class="cls-2" d="m9.94,20.06c0-.55-.45-1-1-1h-2.99c-1.02,0-1.93.61-2.31,1.55l-.55,1.35c-.21.51.04,1.09.55,1.3.12.05.25.07.38.07.39,0,.77-.23.93-.62l.55-1.34c.08-.19.26-.31.46-.31h2.99c.55,0,1-.45,1-1Z"/>
    <path class="cls-2" d="m8.94,17.06c.55,0,1-.45,1-1s-.45-1-1-1H1.94c-.55,0-1,.45-1,1s.45,1,1,1h7Z"/>
  </g>
  <path class="cls-1" d="m20.92,8.5h-9.84c-1.42,0-2.58,1.16-2.58,2.58v9.84c0,1.42,1.16,2.58,2.58,2.58h9.84c1.42,0,2.58-1.16,2.58-2.58v-9.84c0-1.42-1.16-2.58-2.58-2.58Zm-5.55,6.56h1.25c1.21,0,2.19.98,2.19,2.19,0,1.1-.82,2-1.88,2.16v.34c0,.52-.42.94-.94.94s-.94-.42-.94-.94v-.31h-.94c-.52,0-.94-.42-.94-.94s.42-.94.94-.94h2.5c.17,0,.31-.14.31-.31s-.14-.31-.31-.31h-1.25c-1.21,0-2.19-.98-2.19-2.19,0-1.1.82-2,1.88-2.16v-.34c0-.52.42-.94.94-.94s.94.42.94.94v.31h.94c.52,0,.94.42.94.94s-.42.94-.94.94h-2.5c-.17,0-.31.14-.31.31s.14.31.31.31Z"/>
</svg>