<?xml version="1.0" encoding="UTF-8"?>
<svg id="OBJECT" xmlns="http://www.w3.org/2000/svg" viewBox="0 0 32 32">
  <defs>
    <style>
      .cls-1 {
        fill: #FD4360;
      }

      .cls-1, .cls-2 {
        stroke-width: 0px;
      }

      .cls-2 {
        fill: #dadada;
      }
    </style>
  </defs>
  <path class="cls-2" d="m30,21H2c-.55,0-1,.45-1,1v8c0,.55.45,1,1,1h28c.55,0,1-.45,1-1v-8c0-.55-.45-1-1-1Zm-1,4h-8v-2h8v2Zm-16,0v-2h6v2h-6Zm8,2v2h-10v-2h10Zm-10-4v2H3v-2h8Zm-8,4h6v2H3v-2Zm20,2v-2h6v2h-6Z"/>
  <path class="cls-1" d="m21.73,8.01c-2.46-3-1.37-5.48-1.33-5.58.17-.35.12-.76-.12-1.06s-.64-.43-1.02-.34c-1.78.44-3.06,1.29-3.98,2.28v4.69c0,.55-.45,1-1,1s-1-.45-1-1v-3.13c-1-.65-2.14-.89-2.89-.89h0c-.31,0-.6.14-.79.38-.19.24-.26.56-.18.86.59,2.33.22,3.44-.05,3.9-.58.97-.87,2.13-.87,3.46v.42c0,3.31,2.69,6,6,6h3c3.31,0,6-2.69,6-6v-.24c0-1.69-.61-3.33-1.77-4.75Zm-1.24,4.38c0,1.98-1.61,3.59-3.59,3.59-.55,0-1-.45-1-1s.45-1,1-1c.87,0,1.59-.71,1.59-1.59v-.42c0-.55.45-1,1-1s1,.45,1,1v.42Z"/>
</svg>