<?xml version="1.0" encoding="UTF-8"?>
<svg id="OBJECT" xmlns="http://www.w3.org/2000/svg" viewBox="0 0 32 32">
  <defs>
    <style>
      .cls-1 {
        fill: #FD4360;
      }

      .cls-1, .cls-2 {
        stroke-width: 0px;
      }

      .cls-2 {
        fill: #dadada;
      }
    </style>
  </defs>
  <g>
    <path class="cls-2" d="m18,25h-.5c-.55,0-1,.45-1,1s.45,1,1,1h.5c.55,0,1-.45,1-1s-.45-1-1-1Z"/>
    <path class="cls-2" d="m31,12c0-6.07-4.93-11-11-11s-11,4.93-11,11c0,3.17,1.35,6.02,3.5,8.02v9.98c0,.55.45,1,1,1h13c.55,0,1-.45,1-1v-9.98c2.15-2.01,3.5-4.86,3.5-8.02Zm-20,0c0-4.96,4.04-9,9-9s9,4.04,9,9-4.04,9-9,9-9-4.04-9-9Zm14.5,13h-4c-.55,0-1,.45-1,1s.45,1,1,1h4v2h-11v-7.49c1.62.94,3.5,1.49,5.5,1.49s3.88-.55,5.5-1.49v3.49Z"/>
    <path class="cls-2" d="m20,11.24c-1.12,0-2.17.44-2.96,1.24-.39.39-.38,1.03,0,1.41.39.39,1.03.38,1.41,0,.82-.83,2.26-.83,3.08,0,.2.2.45.3.71.3s.51-.1.7-.29c.39-.39.4-1.02,0-1.41-.79-.8-1.84-1.24-2.96-1.24Z"/>
    <path class="cls-2" d="m16.21,10.59c1.01-1.02,2.36-1.59,3.79-1.59s2.78.56,3.79,1.59c.2.2.45.3.71.3s.51-.1.7-.29c.39-.39.4-1.02,0-1.41-1.39-1.4-3.24-2.18-5.21-2.18s-3.82.77-5.21,2.18c-.39.39-.38,1.03,0,1.41.39.39,1.03.38,1.42,0Z"/>
    <path class="cls-2" d="m20.25,15h-.5c-.55,0-1,.45-1,1s.45,1,1,1h.5c.55,0,1-.45,1-1s-.45-1-1-1Z"/>
  </g>
  <g>
    <path class="cls-1" d="m4.5,7h-1c-1.38,0-2.5,1.12-2.5,2.5v14c0,1.65,1.35,3,3,3h1.5v-2h-1.5c-.55,0-1-.45-1-1v-6.5h1.5c1.38,0,2.5-1.12,2.5-2.5v-5c0-1.38-1.12-2.5-2.5-2.5Z"/>
    <rect class="cls-1" x="7.5" y="22" width="3" height="7"/>
  </g>
</svg>