<?xml version="1.0" encoding="UTF-8"?>
<svg id="OBJECT" xmlns="http://www.w3.org/2000/svg" viewBox="0 0 512 512">
  <defs>
    <style>
      .cls-1 {
        fill: #FD4360;
      }

      .cls-2 {
        fill: #dadada;
      }
    </style>
  </defs>
  <path class="cls-2" d="M504.5,347H7.5c-4.14,0-7.5,3.36-7.5,7.5v150c0,4.14,3.36,7.5,7.5,7.5H504.5c4.14,0,7.5-3.36,7.5-7.5v-150c0-4.14-3.36-7.5-7.5-7.5Zm-7.5,50h-65v-35h65v35Zm-163.5,0v-35h83.5v35h-83.5Zm-188.5,50v-35h222v35H145Zm173.5-50h-125v-35h125v35Zm-140,0H95v-35h83.5v35Zm-48.5,15v35H15v-35h115Zm48.5,50v35H95v-35h83.5Zm15,0h125v35h-125v-35Zm140,0h83.5v35h-83.5v-35Zm48.5-15v-35h115v35h-115ZM80,362v35H15v-35H80ZM15,462H80v35H15v-35Zm417,35v-35h65v35h-65Z"/>
  <g>
    <path class="cls-1" d="M309.85,189.77c-2.83,7.3-6.08,12.93-8.88,17-4.11,5.96-11.58,8.81-18.61,7.08-27.37-6.72-38.7-44.07-43.3-70.01-19.9,37.01-12.51,63.21-12.17,64.37,.76,2.56,.11,5.34-1.72,7.29-1.82,1.94-4.54,2.79-7.13,2.2-6.74-1.54-14.35-5.35-19.96-8.56-3.5,13.37-1.13,27.35,6.84,39.15,9.17,13.59,24.42,21.71,40.79,21.71h19.59c14.3,0,27.97-6.11,37.52-16.76,9.52-10.62,13.9-24.21,12.36-38.28-1.01-9.21-3.09-17.89-5.32-25.19Z"/>
    <path class="cls-1" d="M378.92,149.31c-.71-3.39-3.65-5.85-7.11-5.96-3.49-.11-6.55,2.17-7.46,5.51-.67,2.43-1.48,4.69-2.43,6.74-2.72,5.91-7.78,6.59-11.6,5.25-3.96-1.38-7.98-5.42-6.31-12.27,15.61-63.85-26.85-99.46-28.66-100.94-2.55-2.09-6.18-2.26-8.92-.43-2.74,1.83-3.96,5.25-3.01,8.41,3.7,12.22,3.76,25.7,.21,40.05-2.12,8.54-9.12,11.61-14.96,11.64h-.08c-5.8,0-12.73-3-14.91-11.43-11.09-42.95,4.36-85.34,4.51-85.76,.97-2.59,.43-5.5-1.39-7.58-1.83-2.08-4.65-2.98-7.34-2.35-42.98,10.07-72.86,42.42-86.4,93.56-6.62,25.01-7.82,48.52-7.84,61.92-11.97-6.77-20.24-19.56-20.33-19.71-1.48-2.33-4.12-3.67-6.86-3.47-2.75,.19-5.18,1.88-6.31,4.39-13.4,29.65-16.63,61.28-9.59,94.01,5.11,23.77,18.46,45.27,37.58,60.54,19.03,15.19,42.95,23.56,67.34,23.56h38.71c56.35,0,103.45-43.85,107.23-99.83,2.35-34.77-3.79-64.61-4.06-65.86Zm-64.93,113.94c-12.39,13.82-30.13,21.75-48.69,21.75h-19.59c-21.36,0-41.26-10.59-53.22-28.32-11.84-17.54-14.19-39.68-6.31-59.21,.34-.83,.68-1.68,1.04-2.52,.88-2.07,2.64-3.64,4.81-4.27,2.16-.63,4.49-.26,6.35,1.02,2.16,1.48,6.92,4.48,12.08,7.08-.79-14.53,1.5-39.31,19.21-68.74,2.77-4.6,7.96-6.89,13.22-5.83,5.23,1.05,9.11,5.15,9.88,10.43,5.34,36.7,17.75,60.87,33.17,64.66,1.02,.25,2.07-.15,2.68-1.03,3.58-5.19,9.94-16.51,12.34-34.02,.45-3.25,2.95-5.83,6.19-6.37,3.23-.54,6.44,1.08,7.93,4,.49,.96,11.96,23.79,15,51.46,1.99,18.09-3.88,36.29-16.1,49.93Z"/>
  </g>
</svg>