<?xml version="1.0" encoding="UTF-8"?>
<svg id="OBJECT" xmlns="http://www.w3.org/2000/svg" viewBox="0 0 32 32">
  <defs>
    <style>
      .cls-1 {
        fill: #FD4360;
      }

      .cls-1, .cls-2 {
        stroke-width: 0px;
      }

      .cls-2 {
        fill: #dadada;
      }
    </style>
  </defs>
  <g>
    <path class="cls-2" d="m6.71,19.99c0-.55-.45-1-1-1s-1,.45-1,1c0,3.04,2.34,5.51,5.21,5.51.55,0,1-.45,1-1s-.45-1-1-1c-1.77,0-3.21-1.58-3.21-3.51Z"/>
    <path class="cls-2" d="m21.21,14.22c-.27-.48-.58-.94-.91-1.34-1.08-1.32-2.03-2.73-2.82-4.17-1.83-3.38.2-5.96.28-6.06.28-.34.31-.83.06-1.2-.25-.37-.71-.53-1.14-.39-4.77,1.55-6.9,5.19-7.86,8.03-1.26-1.76-3.21-2.77-4.46-3.14-.35-.1-.73,0-.99.25-.26.26-.35.64-.25.99.54,1.8,0,4.99-1.45,8.75-.44,1.13-.67,2.33-.67,3.56,0,5.24,4.13,9.51,9.21,9.51h3.08c.56,0,1.09-.05,1.63-.16.49-.07.86-.48.86-.99,0-.62-.6-1.11-1.21-.98-.42.09-.83.13-1.28.13h-3.08c-3.98,0-7.21-3.37-7.21-7.51,0-.98.18-1.93.53-2.83.92-2.37,1.87-5.48,1.79-8.11,1.22.72,2.72,2.07,2.72,4.33,0,0,0,0,0,0v3.08c0,.55.45,1,1,1s1-.45,1-1v-3.05s0,0,0,0c0-.27.25-5.93,4.88-8.87-.37,1.46-.4,3.42.79,5.61.85,1.56,1.87,3.07,3.03,4.49.26.31.5.66.7,1.03.27.48.87.66,1.36.4.48-.27.66-.87.4-1.36Z"/>
  </g>
  <path class="cls-1" d="m24,17c-3.86,0-7,3.14-7,7s3.14,7,7,7,7-3.14,7-7-3.14-7-7-7Zm2.71,9.71c-.2.2-.45.29-.71.29s-.51-.1-.71-.29l-2-2c-.19-.19-.29-.44-.29-.71v-3c0-.55.45-1,1-1s1,.45,1,1v2.59l1.71,1.71c.39.39.39,1.02,0,1.41Z"/>
</svg>