<?xml version="1.0" encoding="UTF-8"?>
<svg id="OBJECT" xmlns="http://www.w3.org/2000/svg" viewBox="0 0 32 32">
  <defs>
    <style>
      .cls-1 {
        fill: #FD4360;
      }

      .cls-1, .cls-2 {
        stroke-width: 0px;
      }

      .cls-2 {
        fill: #dadada;
      }
    </style>
  </defs>
  <path class="cls-2" d="m25.42,12.35c-.39-.39-1.02-.39-1.41,0l-.84.83c-.99.09-4.32.21-6.77-1.92l3.26-3.26c.39-.39.39-1.02,0-1.41-.39-.39-1.02-.39-1.41,0l-10.56,10.55c-.19.19-.29.44-.29.71s.11.52.29.71l.91.91-6.85,6.85c-.99.99-.99,2.59,0,3.58l.36.36c.49.49,1.14.74,1.79.74s1.29-.25,1.79-.74l6.85-6.85.91.91c.2.2.45.29.71.29s.51-.1.71-.29l10.56-10.55c.39-.39.39-1.02,0-1.41Zm-4.25,2.84l-2.32,2.32c-.99.09-4.32.21-6.77-1.92l2.91-2.91c1.99,1.79,4.39,2.37,6.18,2.51ZM4.26,28.85c-.2.2-.55.2-.75,0l-.36-.36c-.1-.1-.15-.23-.15-.37s.05-.27.15-.37l6.85-6.85,1.11,1.11-6.85,6.85Zm9.89-6.65l-4.35-4.35.85-.85c1.99,1.79,4.38,2.37,6.18,2.51l-2.69,2.69Z"/>
  <path class="cls-1" d="m30.71,1.29c-.26-.26-.65-.36-1.01-.25-1.94.61-7.53,1.95-10.08.77-.44-.21-.96-.07-1.24.33-.28.4-.23.94.11,1.28l10.08,10.08c.19.19.45.29.71.29.2,0,.4-.06.57-.18.4-.28.54-.8.33-1.24-1.18-2.54.15-8.14.77-10.08.11-.36.02-.75-.25-1.01Z"/>
</svg>