<?xml version="1.0" encoding="UTF-8"?>
<svg id="OBJECT" xmlns="http://www.w3.org/2000/svg" viewBox="0 0 32 32">
  <defs>
    <style>
      .cls-1 {
        fill: #FD4360;
      }

      .cls-1, .cls-2 {
        stroke-width: 0px;
      }

      .cls-2 {
        fill: #dadada;
      }
    </style>
  </defs>
  <g>
    <path class="cls-2" d="m30,29h-.5V8c0-.55-.45-1-1-1s-1,.45-1,1v3h-3.38c-.13,0-.26-.05-.35-.15l-1.56-1.56c-.39-.39-1.02-.39-1.41,0s-.39,1.02,0,1.41l1.56,1.56c.47.47,1.11.73,1.77.73h3.38v2.38l-2.34,1.17c-1.02.51-1.66,1.54-1.66,2.68v5.76h-2.12c.07-.33.12-.66.12-1,0-2.43-3.92-7.6-4.71-8.61-.38-.49-1.2-.49-1.58,0-.79,1.01-4.71,6.18-4.71,8.61,0,.34.05.67.12,1h-2.12v-5.76c0-1.14-.64-2.17-1.66-2.68l-2.34-1.17v-2.38h3.38c.66,0,1.3-.27,1.77-.73l1.56-1.56c.39-.39.39-1.02,0-1.41s-1.02-.39-1.41,0l-1.56,1.56c-.09.09-.22.15-.35.15h-3.38v-3c0-.55-.45-1-1-1s-1,.45-1,1v21h-.5c-.55,0-1,.45-1,1s.45,1,1,1h28c.55,0,1-.45,1-1s-.45-1-1-1Zm-4.5-9.76c0-.38.21-.72.55-.89l1.45-.72v7.38h-2v-5.76Zm-13,4.76c0-1.1,1.85-4.07,3.5-6.33,1.65,2.27,3.5,5.23,3.5,6.33,0,.35-.09.68-.23,1h-6.54c-.14-.32-.23-.65-.23-1Zm-6.55-5.66c.34.17.55.51.55.89v5.76h-2v-7.38l1.45.72Zm-1.45,8.66h23v2H4.5v-2Z"/>
    <path class="cls-2" d="m16.5,22h-1c-.55,0-1,.45-1,1s.45,1,1,1h1c.55,0,1-.45,1-1s-.45-1-1-1Z"/>
    <path class="cls-2" d="m13,13h.5c.55,0,1-.45,1-1s-.45-1-1-1h-.5c-.55,0-1,.45-1,1s.45,1,1,1Z"/>
    <path class="cls-2" d="m18.5,13h.5c.55,0,1-.45,1-1s-.45-1-1-1h-.5c-.55,0-1,.45-1,1s.45,1,1,1Z"/>
  </g>
  <path class="cls-1" d="m29,1H3c-1.1,0-2,.9-2,2v3h30v-3c0-1.1-.9-2-2-2Z"/>
</svg>