<?xml version="1.0" encoding="UTF-8"?>
<svg id="OBJECT" xmlns="http://www.w3.org/2000/svg" viewBox="0 0 32 32">
  <defs>
    <style>
      .cls-1 {
        fill: #FD4360;
      }

      .cls-1, .cls-2 {
        stroke-width: 0px;
      }

      .cls-2 {
        fill: #dadada;
      }
    </style>
  </defs>
  <rect class="cls-1" x="12.16" y="12.92" width="7.68" height="6.17" transform="translate(-6.63 16) rotate(-45)"/>
  <g>
    <path class="cls-2" d="m7.13,14.56c-.8-.8-2.09-.79-2.89,0l-1.47,1.47c-.39.39-.6.9-.6,1.44s.21,1.06.6,1.44l.77.77-1.5,1.5c-.39.39-.6.9-.6,1.44s.21,1.06.6,1.44l.77.77-1.5,1.5c-.19.19-.29.44-.29.71s.11.52.29.71l2.95,2.95c.2.2.45.29.71.29s.51-.1.71-.29l1.5-1.5.77.77c.39.39.9.6,1.44.6s1.06-.21,1.44-.6l1.5-1.5.77.77c.39.39.9.6,1.44.6s1.06-.21,1.44-.6l1.47-1.47s0,0,0,0c.79-.8.79-2.09,0-2.89L7.13,14.56Zm-2.18,14.03l-1.53-1.53.8-.8,1.53,1.53-.8.8Zm4.39-.03l-5.89-5.95,1.5-1.5,5.94,5.95-1.55,1.51Zm5.16-.74l-10.32-10.38,1.53-1.47,10.32,10.32s.02.04,0,.06l-1.53,1.47Z"/>
    <path class="cls-2" d="m31,4.95c0-.27-.11-.52-.29-.71l-2.95-2.95c-.39-.39-1.02-.39-1.41,0l-1.5,1.5-.77-.77c-.77-.77-2.12-.77-2.89,0l-1.5,1.5-.77-.77c-.77-.77-2.12-.77-2.89,0l-1.48,1.48c-.79.8-.79,2.09,0,2.89l10.32,10.32c.4.4.92.6,1.44.6s1.05-.2,1.44-.6l1.47-1.47c.39-.39.6-.9.6-1.44s-.21-1.06-.6-1.44l-.77-.77,1.5-1.5c.39-.39.6-.9.6-1.44s-.21-1.06-.6-1.44l-.77-.77,1.5-1.5c.19-.19.29-.44.29-.71Zm-3.18,9.61h0s-1.53,1.47-1.53,1.47L15.97,5.65l1.53-1.47,10.33,10.35s0,.03-.01.03Zm-.77-3.65l-5.94-5.95,1.55-1.51,5.89,5.95-1.5,1.5Zm-.8-6.69l.8-.8,1.53,1.53-.8.8-1.53-1.53Z"/>
  </g>
</svg>