<?xml version="1.0" encoding="UTF-8"?>
<svg id="OBJECT" xmlns="http://www.w3.org/2000/svg" viewBox="0 0 512 512">
  <defs>
    <style>
      .cls-1 {
        fill: #FD4360;
      }

      .cls-2 {
        fill: #dadada;
      }
    </style>
  </defs>
  <g>
    <path class="cls-2" d="M256,302c-57.9,0-105,47.1-105,105s47.1,105,105,105,105-47.1,105-105-47.1-105-105-105Zm0,195c-49.63,0-90-40.37-90-90s40.37-90,90-90,90,40.37,90,90-40.37,90-90,90Z"/>
    <path class="cls-2" d="M223.5,402c15.16,0,27.5-12.34,27.5-27.5s-12.34-27.5-27.5-27.5-27.5,12.34-27.5,27.5,12.34,27.5,27.5,27.5Zm0-40c6.89,0,12.5,5.61,12.5,12.5s-5.61,12.5-12.5,12.5-12.5-5.61-12.5-12.5,5.61-12.5,12.5-12.5Z"/>
    <path class="cls-2" d="M288.5,412c-15.16,0-27.5,12.34-27.5,27.5s12.34,27.5,27.5,27.5,27.5-12.34,27.5-27.5-12.34-27.5-27.5-27.5Zm0,40c-6.89,0-12.5-5.61-12.5-12.5s5.61-12.5,12.5-12.5,12.5,5.61,12.5,12.5-5.61,12.5-12.5,12.5Z"/>
    <path class="cls-2" d="M311.3,351.7c-2.93-2.93-7.68-2.93-10.61,0l-100,100c-2.93,2.93-2.93,7.68,0,10.61,1.46,1.46,3.38,2.2,5.3,2.2s3.84-.73,5.3-2.2l100-100c2.93-2.93,2.93-7.68,0-10.61Z"/>
    <path class="cls-2" d="M268.34,151.81c-1.18-2.77-3.89-4.57-6.9-4.57h-91.97L267.51,11.9c1.65-2.28,1.89-5.3,.61-7.81s-3.86-4.09-6.68-4.09h-124.3c-2.65,0-5.11,1.4-6.46,3.69L6.38,214.19c-1.37,2.32-1.39,5.19-.06,7.53,1.33,2.34,3.82,3.78,6.51,3.78H80.81L1.45,394.05c-3.12,6.62-1.09,14.15,4.94,18.3,2.59,1.78,5.49,2.66,8.37,2.66,3.82,0,7.59-1.54,10.49-4.55l241.59-250.51c2.09-2.17,2.68-5.37,1.5-8.14ZM15.93,398.5L99.41,221.2c1.09-2.32,.92-5.04-.45-7.21-1.38-2.17-3.77-3.48-6.33-3.48H25.98L141.42,15h105.33l-98.04,135.34c-1.65,2.28-1.89,5.3-.61,7.81s3.86,4.09,6.68,4.09h89.01L15.93,398.5Z"/>
    <path class="cls-2" d="M156.8,47.96l3.92-6.64c2.11-3.57,.92-8.17-2.64-10.27-3.57-2.11-8.17-.92-10.27,2.64l-3.92,6.64c-2.11,3.57-.92,8.17,2.64,10.27,1.2,.71,2.51,1.04,3.81,1.04,2.57,0,5.07-1.32,6.46-3.69Z"/>
    <path class="cls-2" d="M139.05,63.27c-3.57-2.11-8.17-.92-10.27,2.64l-48.86,82.75c-2.11,3.57-.92,8.17,2.64,10.27,1.2,.71,2.51,1.04,3.81,1.04,2.57,0,5.07-1.32,6.46-3.69l48.86-82.75c2.11-3.57,.92-8.17-2.64-10.27Z"/>
  </g>
  <g>
    <path class="cls-1" d="M506.75,239.55l-113.76-135.57c-4.85-5.78-12.21-8.73-19.71-7.9l-41.01,4.54,19.26,19.26c4.25,4.25,6.59,9.9,6.59,15.91s-2.34,11.66-6.59,15.91c-4.25,4.25-9.9,6.59-15.91,6.59s-11.66-2.34-15.91-6.59l-22.55-22.55-11.95,40.83c-2.12,7.24-.49,15.01,4.36,20.78l113.76,135.57c3.86,4.6,9.29,7.43,15.27,7.95,.67,.06,1.34,.09,2,.09,5.28,0,10.33-1.83,14.42-5.27l68.94-57.85c9.5-7.97,10.75-22.19,2.77-31.7Zm-74.45,39.62l-7.66,6.43c-1.41,1.18-3.12,1.75-4.82,1.75-2.14,0-4.27-.91-5.75-2.68-2.66-3.17-2.25-7.9,.92-10.57l7.66-6.43c3.17-2.66,7.9-2.25,10.57,.92,2.66,3.17,2.25,7.9-.92,10.57Zm.19-39.32c-1.4,1.18-3.12,1.75-4.82,1.75-2.14,0-4.27-.91-5.75-2.68l-5.89-7.02-4.47,3.75,5.89,7.02c2.66,3.17,2.25,7.9-.92,10.57-1.4,1.18-3.12,1.75-4.82,1.75-2.14,0-4.27-.91-5.75-2.68l-5.89-7.02-1.6,1.34c-1.4,1.18-3.12,1.75-4.82,1.75-2.14,0-4.27-.91-5.75-2.68-2.66-3.17-2.25-7.9,.92-10.57l22.1-18.54c3.66-3.07,3.99-8.71,.74-12.58-3.25-3.87-8.87-4.53-12.52-1.46l-13.55,11.37c-4.87,4.09-11.08,5.97-17.48,5.32-6.31-.65-12.05-3.72-16.17-8.63-6.46-7.69-7.38-18.18-3.17-26.47l-7.08-8.44c-2.66-3.17-2.25-7.9,.92-10.57,3.17-2.66,7.9-2.25,10.57,.92l5.89,7.02,4.47-3.75-5.89-7.02c-2.66-3.17-2.25-7.9,.92-10.57,3.17-2.66,7.9-2.25,10.57,.92l5.89,7.02,1.6-1.34c3.17-2.66,7.9-2.25,10.57,.92s2.25,7.9-.92,10.57l-22.1,18.54c-3.65,3.07-3.99,8.71-.74,12.58,1.6,1.91,3.81,3.1,6.22,3.35,2.32,.24,4.56-.43,6.3-1.89l13.55-11.37c9.99-8.38,25.09-6.9,33.65,3.31,6.46,7.69,7.38,18.18,3.17,26.47l7.08,8.44c2.66,3.17,2.25,7.9-.92,10.57Zm30.46,13.61l-7.66,6.43c-1.4,1.18-3.12,1.75-4.82,1.75-2.14,0-4.27-.91-5.75-2.68-2.66-3.17-2.25-7.9,.92-10.57l7.66-6.43c3.17-2.66,7.9-2.25,10.57,.92,2.66,3.17,2.25,7.9-.92,10.57Z"/>
    <path class="cls-1" d="M335.61,143.28c1.92,0,3.84-.73,5.3-2.2,2.93-2.93,2.93-7.68,0-10.61l-81.64-81.64-8.91,12.3,79.94,79.94c1.46,1.46,3.38,2.2,5.3,2.2Z"/>
  </g>
</svg>