<?xml version="1.0" encoding="UTF-8"?>
<svg id="OBJECT" xmlns="http://www.w3.org/2000/svg" viewBox="0 0 512 512">
  <defs>
    <style>
      .cls-1 {
        fill: #FD4360;
      }

      .cls-2 {
        fill: #dadada;
      }
    </style>
  </defs>
  <g>
    <path class="cls-2" d="M351,230h-12.5v-12.5c0-4.14-3.36-7.5-7.5-7.5s-7.5,3.36-7.5,7.5v12.5H188.5v-12.5c0-4.14-3.36-7.5-7.5-7.5s-7.5,3.36-7.5,7.5v12.5h-12.5c-9.65,0-17.5,7.85-17.5,17.5v127.23c0,3.17,.86,6.29,2.49,9l27.51,45.84v37.92c0,4.14,3.36,7.5,7.5,7.5h17.5v29.5c0,4.14,3.36,7.5,7.5,7.5h100c4.14,0,7.5-3.36,7.5-7.5v-29.5h17.5c4.14,0,7.5-3.36,7.5-7.5v-37.92l27.51-45.84c1.63-2.72,2.49-5.83,2.49-9v-127.23c0-9.65-7.85-17.5-17.5-17.5Zm-190,15h190c1.38,0,2.5,1.12,2.5,2.5v22.5H158.5v-22.5c0-1.38,1.12-2.5,2.5-2.5Zm52.5,230h15v22h-15v-22Zm55,0v22h-25v-22h25Zm30,22h-15v-22h15v22Zm-110-37v-25h135v25H188.5Zm164.64-83.98l-26.39,43.98H185.25l-26.39-43.99c-.23-.39-.36-.83-.36-1.28v-89.73h195v89.73c0,.45-.12,.9-.36,1.29Z"/>
    <path class="cls-2" d="M261,300h-10c-9.65,0-17.5,7.85-17.5,17.5v70c0,9.65,7.85,17.5,17.5,17.5h10c9.65,0,17.5-7.85,17.5-17.5v-70c0-9.65-7.85-17.5-17.5-17.5Zm2.5,87.5c0,1.38-1.12,2.5-2.5,2.5h-10c-1.38,0-2.5-1.12-2.5-2.5v-70c0-1.38,1.12-2.5,2.5-2.5h10c1.38,0,2.5,1.12,2.5,2.5v70Z"/>
    <path class="cls-2" d="M321,300h-10c-9.65,0-17.5,7.85-17.5,17.5v40c0,9.65,7.85,17.5,17.5,17.5h10c9.65,0,17.5-7.85,17.5-17.5v-40c0-9.65-7.85-17.5-17.5-17.5Zm2.5,57.5c0,1.38-1.12,2.5-2.5,2.5h-10c-1.38,0-2.5-1.12-2.5-2.5v-40c0-1.38,1.12-2.5,2.5-2.5h10c1.38,0,2.5,1.12,2.5,2.5v40Z"/>
    <path class="cls-2" d="M201,300h-10c-9.65,0-17.5,7.85-17.5,17.5v40c0,9.65,7.85,17.5,17.5,17.5h10c9.65,0,17.5-7.85,17.5-17.5v-40c0-9.65-7.85-17.5-17.5-17.5Zm2.5,57.5c0,1.38-1.12,2.5-2.5,2.5h-10c-1.38,0-2.5-1.12-2.5-2.5v-40c0-1.38,1.12-2.5,2.5-2.5h10c1.38,0,2.5,1.12,2.5,2.5v40Z"/>
  </g>
  <g>
    <path class="cls-1" d="M350.5,42H161.5c-1.65,0-3,1.35-3,3v105c0,1.65,1.35,3,3,3h189c1.65,0,3-1.35,3-3V45c0-1.65-1.35-3-3-3Zm-102.75,66c0,12.82-10.43,23.25-23.25,23.25h-21c-12.82,0-23.25-10.43-23.25-23.25v-21c0-12.82,10.43-23.25,23.25-23.25h21c12.82,0,23.25,10.43,23.25,23.25v21Zm84,0c0,12.82-10.43,23.25-23.25,23.25h-21c-12.82,0-23.25-10.43-23.25-23.25v-21c0-12.82,10.43-23.25,23.25-23.25h21c12.82,0,23.25,10.43,23.25,23.25v21Z"/>
    <rect class="cls-1" x="195.25" y="78.75" width="37.5" height="37.5" rx="8.25" ry="8.25"/>
    <rect class="cls-1" x="279.25" y="78.75" width="37.5" height="37.5" rx="8.25" ry="8.25"/>
    <path class="cls-1" d="M371,0H141c-12.41,0-22.5,10.09-22.5,22.5V172.5c0,12.41,10.09,22.5,22.5,22.5h230c12.41,0,22.5-10.09,22.5-22.5V22.5c0-12.41-10.09-22.5-22.5-22.5Zm-2.5,150c0,9.92-8.08,18-18,18H161.5c-9.92,0-18-8.08-18-18V45c0-9.92,8.08-18,18-18h189c9.92,0,18,8.08,18,18v105Z"/>
  </g>
</svg>