<?xml version="1.0" encoding="UTF-8"?>
<svg id="OBJECT" xmlns="http://www.w3.org/2000/svg" viewBox="0 0 32 32">
  <defs>
    <style>
      .cls-1 {
        fill: #FD4360;
      }

      .cls-1, .cls-2 {
        stroke-width: 0px;
      }

      .cls-2 {
        fill: #dadada;
      }
    </style>
  </defs>
  <g>
    <path class="cls-2" d="m30.12,6.89l-5-5c-1.18-1.18-3.1-1.18-4.27,0l-2.87,2.87-.37-.37c-.38-.38-1.04-.38-1.41,0L6.03,14.54c-.39.39-.39,1.02,0,1.41s1.02.39,1.41,0l9.44-9.44,8.6,8.6-9.44,9.44c-.39.39-.39,1.02,0,1.41.2.2.45.29.71.29s.51-.1.71-.29l10.15-10.15c.19-.19.29-.44.29-.71s-.11-.52-.29-.71l-.37-.37,2.87-2.87c1.18-1.18,1.18-3.1,0-4.27Zm-1.41,2.86l-2.87,2.87-6.45-6.45,2.87-2.87c.4-.4,1.05-.4,1.45,0l5,5c.4.4.4,1.05,0,1.45Z"/>
    <path class="cls-2" d="m22.45,5.28l-.36.36c-.39.39-.39,1.02,0,1.41.2.2.45.29.71.29s.51-.1.71-.29l.36-.36c.39-.39.39-1.02,0-1.41s-1.02-.39-1.41,0Z"/>
    <path class="cls-2" d="m25.31,8.14l-.36.36c-.39.39-.39,1.02,0,1.41.2.2.45.29.71.29s.51-.1.71-.29l.36-.36c.39-.39.39-1.02,0-1.41s-1.02-.39-1.41,0Z"/>
    <path class="cls-2" d="m19.03,16.97l.26-2.84,1.18-1.18c.39-.39.39-1.02,0-1.41s-1.02-.39-1.41,0l-1.18,1.18-2.83.26c-.69.06-1.35.36-1.87.87l-3.91,3.92c-.39.39-.39,1.02,0,1.41.39.39,1.02.39,1.41,0l2.35-2.35c.2.48.48.93.85,1.31.38.38.82.66,1.3.86l-2.34,2.34c-.39.39-.39,1.02,0,1.41.2.2.45.29.71.29s.51-.1.71-.29l3.93-3.92c.5-.51.8-1.17.86-1.86Zm-3.82-2l2.01-.18-.18,2.01c-.02.2-.11.38-.23.53-.6-.02-1.14-.22-1.53-.61s-.59-.92-.61-1.52c.16-.12.34-.21.54-.23Z"/>
  </g>
  <path class="cls-1" d="m1.89,18.69c-.57.57-.89,1.33-.89,2.14s.31,1.57.89,2.14l7.15,7.15c.57.57,1.33.89,2.14.89s1.57-.31,2.14-.89l1.44-1.44L3.32,17.25l-1.44,1.44Z"/>
</svg>