<?xml version="1.0" encoding="UTF-8"?>
<svg id="OBJECT" xmlns="http://www.w3.org/2000/svg" viewBox="0 0 32 32">
  <defs>
    <style>
      .cls-1 {
        fill: #FD4360;
      }

      .cls-2 {
        fill: #dadada;
      }
    </style>
  </defs>
  <g>
    <path class="cls-2" d="M30.71,8.5L23.5,1.29c-.39-.39-1.02-.39-1.41,0l-4.09,4.09-.49-.49c-.39-.39-1.02-.39-1.41,0L3.28,17.7c-1.47,1.47-2.28,3.43-2.28,5.51s.81,4.04,2.28,5.51,3.43,2.28,5.51,2.28,4.04-.81,5.51-2.28l12.81-12.81c.39-.39,.39-1.02,0-1.41l-.49-.49,4.09-4.09c.39-.39,.39-1.02,0-1.41ZM12.89,27.3c-1.09,1.09-2.55,1.7-4.09,1.7s-3-.6-4.09-1.7-1.7-2.55-1.7-4.09,.6-3,1.7-4.09L13.59,10.22l8.19,8.19-8.9,8.9Zm10.31-10.31L15.01,8.8l1.79-1.79,8.19,8.19-1.79,1.79Zm2-4.4l-5.79-5.79,3.39-3.39,5.79,5.79-3.39,3.39Z"/>
    <path class="cls-2" d="M21.89,6.29c-.39,.39-.39,1.02,0,1.41,.2,.2,.45,.29,.71,.29s.51-.1,.71-.29l.4-.4c.39-.39,.39-1.02,0-1.41s-1.02-.39-1.41,0l-.4,.4Z"/>
    <path class="cls-2" d="M25,10.4c.26,0,.51-.1,.71-.29l.4-.4c.39-.39,.39-1.02,0-1.41s-1.02-.39-1.41,0l-.4,.4c-.39,.39-.39,1.02,0,1.41,.2,.2,.45,.29,.71,.29Z"/>
  </g>
  <g>
    <path class="cls-1" d="M17.9,18.1l-4-4c-.39-.39-1.02-.39-1.41,0s-.39,1.02,0,1.41l4,4c.2,.2,.45,.29,.71,.29s.51-.1,.71-.29c.39-.39,.39-1.02,0-1.41Z"/>
    <path class="cls-1" d="M6.48,20.1c-1.49,1.49-1.49,3.92,0,5.42,.75,.75,1.73,1.12,2.71,1.12s1.96-.37,2.71-1.12c1.49-1.49,1.49-3.92,0-5.42-1.49-1.49-3.92-1.49-5.42,0Z"/>
  </g>
</svg>