<?xml version="1.0" encoding="UTF-8"?>
<svg id="OBJECT" xmlns="http://www.w3.org/2000/svg" viewBox="0 0 512 512">
  <defs>
    <style>
      .cls-1 {
        fill: #FD4360;
      }

      .cls-2 {
        fill: #dadada;
      }
    </style>
  </defs>
  <g>
    <path class="cls-2" d="M492.79,133.76L361.23,2.2c-2.93-2.93-7.68-2.93-10.61,0l-63.94,63.94-1.62-1.62c-4.19-4.2-9.76-6.51-15.69-6.51s-11.5,2.31-15.69,6.5L6.48,311.72c-8.64,8.64-8.64,22.72,0,31.38l145.42,145.42c4.33,4.32,10.01,6.48,15.69,6.48,5.68,0,11.36-2.16,15.68-6.48l48.34-48.34c2.93-2.93,2.93-7.68,0-10.61-2.93-2.93-7.68-2.93-10.61,0l-11.87,11.87L53.56,285.86,227.83,111.59l111.09,111.09c1.46,1.46,3.38,2.2,5.3,2.2s3.84-.73,5.3-2.2c2.93-2.93,2.93-7.68,0-10.61l-111.09-111.09,25.86-25.86c1.36-1.36,3.17-2.11,5.09-2.11s3.72,.75,5.08,2.11l145.41,145.41c1.47,1.47,1.93,3.12,2.06,4.28,.31,3.86,3.54,6.89,7.48,6.89,4.14,0,7.5-3.36,7.5-7.5,0-.24-.01-.47-.03-.71-.48-5.11-2.75-9.93-6.39-13.57l-1.62-1.62,63.94-63.94c2.93-2.93,2.93-7.68,0-10.61ZM198.52,452.04l-25.86,25.86c-2.8,2.8-7.36,2.8-10.16,0L17.09,332.49c-2.8-2.81-2.8-7.37,0-10.17l25.86-25.86,155.57,155.57Zm219.72-254.34l-120.96-120.96,58.64-58.64,120.95,120.95-58.64,58.64Z"/>
    <path class="cls-2" d="M326.39,74.9c-1.41,1.41-2.2,3.31-2.2,5.3s.79,3.9,2.2,5.3l27.7,27.7c1.46,1.46,3.38,2.2,5.3,2.2s3.84-.73,5.3-2.2l27.7-27.7c1.41-1.41,2.2-3.31,2.2-5.3s-.79-3.9-2.2-5.3l-27.7-27.7c-2.93-2.93-7.68-2.93-10.61,0l-27.7,27.7Zm50.09,5.3l-17.09,17.09-17.09-17.09,17.09-17.09,17.09,17.09Z"/>
    <path class="cls-2" d="M381.78,140.9l27.7,27.7c1.41,1.41,3.31,2.2,5.3,2.2s3.9-.79,5.3-2.2l27.7-27.7c2.93-2.93,2.93-7.68,0-10.61l-27.7-27.7c-1.41-1.41-3.31-2.2-5.3-2.2s-3.9,.79-5.3,2.2l-27.7,27.7c-2.93,2.93-2.93,7.68,0,10.61Zm33-22.39l17.09,17.09-17.09,17.09-17.09-17.09,17.09-17.09Z"/>
    <path class="cls-2" d="M169.21,204.39l-55.39,55.39c-2.93,2.93-2.93,7.68,0,10.61,1.46,1.46,3.38,2.2,5.3,2.2s3.84-.73,5.3-2.2l55.39-55.39c2.93-2.93,2.93-7.68,0-10.61-2.93-2.93-7.68-2.93-10.61,0Z"/>
    <path class="cls-2" d="M93.04,280.55l-6.92,6.92c-2.93,2.93-2.93,7.68,0,10.61,1.46,1.46,3.38,2.2,5.3,2.2s3.84-.73,5.3-2.2l6.92-6.92c2.93-2.93,2.93-7.68,0-10.61-2.93-2.93-7.68-2.93-10.61,0Z"/>
  </g>
  <g>
    <path class="cls-1" d="M374.5,237c-75.82,0-137.5,61.68-137.5,137.5s61.68,137.5,137.5,137.5,137.5-61.68,137.5-137.5-61.68-137.5-137.5-137.5Zm-.34,245c-59.28,0-107.5-48.22-107.5-107.5s48.22-107.5,107.5-107.5,107.5,48.22,107.5,107.5-48.22,107.5-107.5,107.5Z"/>
    <path class="cls-1" d="M374.16,282c-51,0-92.5,41.5-92.5,92.5s41.5,92.5,92.5,92.5,92.5-41.5,92.5-92.5-41.5-92.5-92.5-92.5Zm60.3,120.2c2.93,2.93,2.93,7.68,0,10.61l-22,22c-1.46,1.46-3.38,2.2-5.3,2.2s-3.84-.73-5.3-2.2l-27.7-27.7-27.7,27.7c-2.93,2.93-7.68,2.93-10.61,0l-22-22c-2.93-2.93-2.93-7.68,0-10.61l27.7-27.7-27.7-27.7c-2.93-2.93-2.93-7.68,0-10.61l22-22c2.93-2.93,7.68-2.93,10.61,0l27.7,27.7,27.7-27.7c2.93-2.93,7.68-2.93,10.61,0l22,22c2.93,2.93,2.93,7.68,0,10.61l-27.7,27.7,27.7,27.7Z"/>
    <path class="cls-1" d="M379.46,357.8c-2.93,2.93-7.68,2.93-10.61,0l-27.7-27.7-11.39,11.39,27.7,27.7c2.93,2.93,2.93,7.68,0,10.61l-27.7,27.7,11.39,11.39,27.7-27.7c1.46-1.46,3.38-2.2,5.3-2.2s3.84,.73,5.3,2.2l27.7,27.7,11.39-11.39-27.7-27.7c-2.93-2.93-2.93-7.68,0-10.61l27.7-27.7-11.39-11.39-27.7,27.7Z"/>
  </g>
</svg>