<?xml version="1.0" encoding="UTF-8"?>
<svg id="OBJECT" xmlns="http://www.w3.org/2000/svg" viewBox="0 0 32 32">
  <defs>
    <style>
      .cls-1 {
        fill: #FD4360;
      }

      .cls-1, .cls-2 {
        stroke-width: 0px;
      }

      .cls-2 {
        fill: #dadada;
      }
    </style>
  </defs>
  <g>
    <path class="cls-2" d="m28,10h-2.88l-2.17-4.34c-.51-1.02-1.54-1.66-2.68-1.66H7.94c-1.29,0-2.44.82-2.85,2.05l-1.32,3.96c-1.55.12-2.78,1.41-2.78,2.99v5c0,.55.45,1,1,1h28c.55,0,1-.45,1-1v-5c0-1.65-1.35-3-3-3Zm-6.84-3.45l1.72,3.45h-4.38c-.55,0-1-.45-1-1v-3h2.76c.38,0,.72.21.89.55Zm-13.22-.55h3.56v3c0,.55-.45,1-1,1h-4.61l1.11-3.32c.14-.41.52-.68.95-.68ZM3,15.5h7.84c.36,0,.69.19.87.5l.57,1H3v-1.5Zm26,1.5h-3v-2c0-.55-.45-1-1-1s-1,.45-1,1v2h-9.42l-1.14-1.99c-.53-.93-1.53-1.51-2.61-1.51H3v-.5c0-.55.45-1,1-1h6.5c1.65,0,3-1.35,3-3v-3h2v3c0,1.65,1.35,3,3,3h9.5c.55,0,1,.45,1,1v4Z"/>
    <path class="cls-2" d="m18.5,13.5h-1c-.55,0-1,.45-1,1s.45,1,1,1h1c.55,0,1-.45,1-1s-.45-1-1-1Z"/>
  </g>
  <g>
    <path class="cls-1" d="m27.97,22.76l-.44-1.76h-7.06l-.44,1.76c-.08.3,0,.62.18.86.19.24.48.38.79.38h6c.31,0,.6-.14.79-.38.19-.24.26-.56.18-.86Z"/>
    <path class="cls-1" d="m25.23,25c-.55,0-1,.45-1,1v1c0,.55.45,1,1,1s1-.45,1-1v-1c0-.55-.45-1-1-1Z"/>
    <path class="cls-1" d="m22.23,25c-.55,0-1,.45-1,1v1c0,.55.45,1,1,1s1-.45,1-1v-1c0-.55-.45-1-1-1Z"/>
    <path class="cls-1" d="m11.53,21h-7.06l-.44,1.76c-.08.3,0,.62.18.86.19.24.48.38.79.38h6c.31,0,.6-.14.79-.38.19-.24.26-.56.18-.86l-.44-1.76Z"/>
    <path class="cls-1" d="m9.23,25c-.55,0-1,.45-1,1v1c0,.55.45,1,1,1s1-.45,1-1v-1c0-.55-.45-1-1-1Z"/>
    <path class="cls-1" d="m6.23,25c-.55,0-1,.45-1,1v1c0,.55.45,1,1,1s1-.45,1-1v-1c0-.55-.45-1-1-1Z"/>
  </g>
</svg>