<?xml version="1.0" encoding="UTF-8"?>
<svg id="OBJECT" xmlns="http://www.w3.org/2000/svg" viewBox="0 0 512 512">
  <defs>
    <style>
      .cls-1 {
        fill: #FD4360;
      }

      .cls-2 {
        fill: #dadada;
      }
    </style>
  </defs>
  <g>
    <path class="cls-2" d="M151,277h-15c-4.14,0-7.5,3.36-7.5,7.5s3.36,7.5,7.5,7.5h15c4.14,0,7.5-3.36,7.5-7.5s-3.36-7.5-7.5-7.5Z"/>
    <path class="cls-2" d="M146,195c4.14,0,7.5-3.36,7.5-7.5v-10c0-4.14-3.36-7.5-7.5-7.5s-7.5,3.36-7.5,7.5v10c0,4.14,3.36,7.5,7.5,7.5Z"/>
    <path class="cls-2" d="M416,307h-2.5v-32.5c0-37.22-30.28-67.5-67.5-67.5h-85c-4.14,0-7.5-3.36-7.5-7.5v-31h12.5c9.65,0,17.5-7.85,17.5-17.5v-10c0-9.65-7.85-17.5-17.5-17.5h-12.5v-15h12.5c9.65,0,17.5-7.85,17.5-17.5v-10c0-9.65-7.85-17.5-17.5-17.5h-12.5v-26c0-4.14-3.36-7.5-7.5-7.5h-7.5V7.5c0-4.14-3.36-7.5-7.5-7.5H121c-4.14,0-7.5,3.36-7.5,7.5V30h-7.5c-4.14,0-7.5,3.36-7.5,7.5V307h-2.5c-12.41,0-22.5,10.09-22.5,22.5v10c0,12.41,10.09,22.5,22.5,22.5H416c12.41,0,22.5-10.09,22.5-22.5v-10c0-12.41-10.09-22.5-22.5-22.5Zm-17.5-32.5v32.5h-65v-85h12.5c28.95,0,52.5,23.55,52.5,52.5Zm-130-133.5v10c0,1.38-1.12,2.5-2.5,2.5h-40c-1.38,0-2.5-1.12-2.5-2.5v-10c0-1.38,1.12-2.5,2.5-2.5h40c1.38,0,2.5,1.12,2.5,2.5Zm0-60v10c0,1.38-1.12,2.5-2.5,2.5h-40c-1.38,0-2.5-1.12-2.5-2.5v-10c0-1.38,1.12-2.5,2.5-2.5h40c1.38,0,2.5,1.12,2.5,2.5ZM128.5,15h95v15h-95V15Zm35,30v40.34l-21.56,13.91c-2.14,1.38-3.44,3.75-3.44,6.3v41.95c0,4.14,3.36,7.5,7.5,7.5s7.5-3.36,7.5-7.5v-37.86l21.56-13.91c2.14-1.38,3.44-3.75,3.44-6.3V45h60v18.5h-12.5c-9.65,0-17.5,7.85-17.5,17.5v10c0,9.65,7.85,17.5,17.5,17.5h12.5v15h-12.5c-9.65,0-17.5,7.85-17.5,17.5v10c0,9.65,7.85,17.5,17.5,17.5h12.5v31c0,12.41,10.09,22.5,22.5,22.5h57.5v85h-125v-22.5c0-20.68-16.82-37.5-37.5-37.5h-42.5V45h50Zm-50,217h42.5c12.41,0,22.5,10.09,22.5,22.5v22.5H113.5v-45Zm310,77.5c0,4.14-3.36,7.5-7.5,7.5H96c-4.14,0-7.5-3.36-7.5-7.5v-10c0-4.14,3.36-7.5,7.5-7.5H416c4.14,0,7.5,3.36,7.5,7.5v10Z"/>
  </g>
  <g>
    <path class="cls-1" d="M293.89,377l4.83,19.32c.83,3.34,3.83,5.68,7.28,5.68h80c3.44,0,6.44-2.34,7.28-5.68l4.83-19.32h-104.21Z"/>
    <path class="cls-1" d="M365.89,417h-39.79c-3.06,0-5.81,1.86-6.96,4.7-3.75,9.31-5.65,19.22-5.65,29.47,0,23.7,10.44,45.86,27.93,59.28,1.35,1.03,2.96,1.55,4.57,1.55s3.22-.52,4.57-1.55c17.49-13.42,27.93-35.59,27.93-59.28,0-10.24-1.9-20.16-5.65-29.47-1.14-2.84-3.9-4.7-6.96-4.7Z"/>
    <path class="cls-1" d="M118.72,396.32c.83,3.34,3.83,5.68,7.28,5.68h80c3.44,0,6.44-2.34,7.28-5.68l4.83-19.32H113.89l4.83,19.32Z"/>
    <path class="cls-1" d="M185.89,417h-39.79c-3.06,0-5.81,1.86-6.96,4.7-3.75,9.31-5.65,19.22-5.65,29.47,0,23.7,10.44,45.86,27.93,59.28,1.35,1.03,2.96,1.55,4.57,1.55s3.22-.52,4.57-1.55c17.49-13.42,27.93-35.59,27.93-59.28,0-10.24-1.9-20.16-5.65-29.47-1.14-2.84-3.9-4.7-6.96-4.7Z"/>
  </g>
</svg>