<?xml version="1.0" encoding="UTF-8"?>
<svg id="OBJECT" xmlns="http://www.w3.org/2000/svg" viewBox="0 0 32 32">
  <defs>
    <style>
      .cls-1 {
        fill: #FD4360;
      }

      .cls-2 {
        fill: #dadada;
      }
    </style>
  </defs>
  <g>
    <path class="cls-2" d="M30.71,1.29c-.2-.2-.49-.31-.77-.29-.17,.01-17.01,1.3-23.59,16.1-.17,.38-.09,.82,.21,1.11l7.23,7.23c.19,.19,.45,.29,.71,.29,.14,0,.27-.03,.41-.09C29.7,19.08,30.99,2.24,31,2.07c.02-.29-.09-.57-.29-.77ZM14.71,23.54l-6.25-6.25c3.03-6.33,8.15-9.87,12.64-11.85l5.46,5.46c-1.97,4.49-5.51,9.6-11.85,12.63Zm12.66-14.66l-4.25-4.25c2.41-.87,4.49-1.29,5.73-1.48-.19,1.24-.62,3.32-1.48,5.73Z"/>
    <path class="cls-2" d="M21.49,11.2l-.68-.68c-1.14-1.14-3-1.14-4.15,0l-4.1,4.1c-1.14,1.14-1.14,3,0,4.15l.68,.68c.57,.57,1.32,.86,2.07,.86s1.5-.29,2.07-.86l4.1-4.1c1.14-1.14,1.14-3,0-4.15Zm-6.83,6.83h0s-.68-.68-.68-.68c-.36-.36-.36-.95,0-1.32l1.34-1.34,2,2-1.34,1.34c-.36,.36-.95,.36-1.32,0Zm5.42-4.1l-1.34,1.34-2-2,1.34-1.34c.18-.18,.42-.27,.66-.27s.48,.09,.66,.27l.68,.68c.36,.36,.36,.95,0,1.32Z"/>
  </g>
  <g>
    <path class="cls-1" d="M24.94,20.77c-2.27,2.53-5.18,4.84-8.89,6.55l-.02,2.67c0,.41,.24,.77,.61,.93,.12,.05,.26,.08,.39,.08,.26,0,.52-.1,.71-.29l6.4-6.4c.57-.57,.88-1.36,.86-2.16-.02-.5-.03-.96-.04-1.39Z"/>
    <path class="cls-1" d="M7.69,7.87L1.29,14.27c-.29,.29-.37,.72-.21,1.09,.16,.37,.52,.61,.92,.61h0l2.67-.02c1.71-3.71,4.02-6.62,6.55-8.89-.43-.01-.88-.03-1.39-.04-.8-.03-1.59,.29-2.16,.86Z"/>
    <path class="cls-1" d="M7.45,22.26c-.26-.26-.66-.34-1-.19-5,2.22-5.43,7.73-5.44,7.96-.02,.26,.08,.51,.26,.7,.17,.17,.4,.26,.64,.26,.02,0,.04,0,.06,0,.23-.02,5.74-.44,7.96-5.44,.15-.34,.08-.74-.19-1l-2.29-2.29Z"/>
  </g>
</svg>