<?xml version="1.0" encoding="UTF-8"?>
<svg id="OBJECT" xmlns="http://www.w3.org/2000/svg" viewBox="0 0 32 32">
  <defs>
    <style>
      .cls-1 {
        fill: #FD4360;
      }

      .cls-1, .cls-2 {
        stroke-width: 0px;
      }

      .cls-2 {
        fill: #dadada;
      }
    </style>
  </defs>
  <g>
    <path class="cls-2" d="m15.82,15.33c-.39.39-.38,1.03,0,1.41.39.39,1.03.38,1.41,0,.67-.68,1.84-.68,2.52,0,.2.2.45.3.71.3s.51-.1.7-.29c.39-.39.4-1.02,0-1.41-1.43-1.44-3.93-1.44-5.36,0Z"/>
    <path class="cls-2" d="m18.5,10.5c-1.76,0-3.41.69-4.65,1.94-.39.39-.38,1.03,0,1.41.39.39,1.03.39,1.42,0,.86-.87,2.01-1.35,3.23-1.35s2.36.48,3.23,1.35c.2.2.45.3.71.3s.51-.1.7-.29c.39-.39.4-1.02,0-1.41-1.24-1.25-2.89-1.94-4.65-1.94Z"/>
    <path class="cls-2" d="m18.72,17.5h-.44c-.55,0-1,.45-1,1s.45,1,1,1h.44c.55,0,1-.45,1-1s-.45-1-1-1Z"/>
    <path class="cls-2" d="m25,1h-13c-1.65,0-3,1.35-3,3v18c0,.55.45,1,1,1s1-.45,1-1V4c0-.55.45-1,1-1h1.22l.43,1.73c.33,1.34,1.53,2.27,2.91,2.27h3.88c1.38,0,2.58-.93,2.91-2.27l.43-1.73h1.22c.55,0,1,.45,1,1v24.14c0,.48-.39.86-.86.86-.55,0-1,.45-1,1s.45,1,1,1c1.58,0,2.86-1.29,2.86-2.86V4c0-1.65-1.35-3-3-3Zm-3.59,3.24c-.11.45-.51.76-.97.76h-3.88c-.46,0-.86-.31-.97-.76l-.31-1.24h6.44l-.31,1.24Z"/>
  </g>
  <path class="cls-1" d="m22,25H4v3c0,1.65,1.35,3,3,3h15.56c-.34-.59-.56-1.27-.56-2v-4Z"/>
</svg>