<?xml version="1.0" encoding="UTF-8"?>
<svg id="OBJECT" xmlns="http://www.w3.org/2000/svg" viewBox="0 0 32 32">
  <defs>
    <style>
      .cls-1 {
        fill: #FD4360;
      }

      .cls-1, .cls-2 {
        stroke-width: 0px;
      }

      .cls-2 {
        fill: #dadada;
      }
    </style>
  </defs>
  <g>
    <path class="cls-2" d="m30,19h-5v-3c0-.55-.45-1-1-1h-10.38l-1.17-2.34c-.51-1.02-1.54-1.66-2.68-1.66H2c-.55,0-1,.45-1,1v16c0,1.65,1.35,3,3,3h24c1.65,0,3-1.35,3-3v-8c0-.55-.45-1-1-1ZM4,29c-.55,0-1-.45-1-1v-15h6.76c.38,0,.72.21.89.55l.72,1.45h-3.38c-.55,0-1,.45-1,1s.45,1,1,1h15v11c0,.35.06.69.17,1H4Zm25-1c0,.55-.45,1-1,1h-2c-.55,0-1-.45-1-1v-7h4v7Z"/>
    <path class="cls-2" d="m14,21H6c-.55,0-1,.45-1,1v4c0,.55.45,1,1,1h8c.55,0,1-.45,1-1v-4c0-.55-.45-1-1-1Zm-1,4h-6v-2h6v2Z"/>
  </g>
  <path class="cls-1" d="m14.45,10.66l1.17,2.34h5.88V2c0-.55-.45-1-1-1H3.5c-.55,0-1,.45-1,1v7h9.26c1.14,0,2.17.64,2.68,1.66Zm4.05-1.66h-3c-.55,0-1-.45-1-1s.45-1,1-1h3c.55,0,1,.45,1,1s-.45,1-1,1ZM5.5,4c0-.55.45-1,1-1h12c.55,0,1,.45,1,1s-.45,1-1,1H6.5c-.55,0-1-.45-1-1Z"/>
</svg>