<?xml version="1.0" encoding="UTF-8"?>
<svg id="OBJECT" xmlns="http://www.w3.org/2000/svg" viewBox="0 0 512 512">
  <defs>
    <style>
      .cls-1 {
        fill: #FD4360;
      }

      .cls-2 {
        fill: #dadada;
      }
    </style>
  </defs>
  <g>
    <path class="cls-2" d="M121,215H391c12.41,0,22.5-10.09,22.5-22.5V47.5c0-4.14-3.36-7.5-7.5-7.5H250.64L232.71,4.15c-1.27-2.54-3.87-4.15-6.71-4.15h-80c-4.14,0-7.5,3.36-7.5,7.5v62.5h-32.5c-4.14,0-7.5,3.36-7.5,7.5v115c0,12.41,10.09,22.5,22.5,22.5Zm32.5-22.5V15h67.86l12.5,25h-27.86c-4.14,0-7.5,3.36-7.5,7.5s3.36,7.5,7.5,7.5h192.5V192.5c0,4.14-3.36,7.5-7.5,7.5H152.21c.83-2.35,1.29-4.87,1.29-7.5Zm-40-107.5h25v107.5c0,4.14-3.36,7.5-7.5,7.5h-10c-4.14,0-7.5-3.36-7.5-7.5V85Z"/>
    <path class="cls-2" d="M281,130h-15c-12.41,0-22.5,10.09-22.5,22.5v10c0,12.41,10.09,22.5,22.5,22.5h15c12.41,0,22.5-10.09,22.5-22.5v-10c0-12.41-10.09-22.5-22.5-22.5Zm7.5,32.5c0,4.14-3.36,7.5-7.5,7.5h-15c-4.14,0-7.5-3.36-7.5-7.5v-10c0-4.14,3.36-7.5,7.5-7.5h15c4.14,0,7.5,3.36,7.5,7.5v10Z"/>
    <path class="cls-2" d="M361,130h-15c-12.41,0-22.5,10.09-22.5,22.5v10c0,12.41,10.09,22.5,22.5,22.5h15c12.41,0,22.5-10.09,22.5-22.5v-10c0-12.41-10.09-22.5-22.5-22.5Zm7.5,32.5c0,4.14-3.36,7.5-7.5,7.5h-15c-4.14,0-7.5-3.36-7.5-7.5v-10c0-4.14,3.36-7.5,7.5-7.5h15c4.14,0,7.5,3.36,7.5,7.5v10Z"/>
    <path class="cls-2" d="M394.5,305h-61v-17.5c0-4.14-3.36-7.5-7.5-7.5h-47.5v-42.5c0-4.14-3.36-7.5-7.5-7.5h-30c-4.14,0-7.5,3.36-7.5,7.5v42.5h-47.5c-4.14,0-7.5,3.36-7.5,7.5v17.5h-61c-12.41,0-22.5,10.09-22.5,22.5v37c0,4.14,3.36,7.5,7.5,7.5s7.5-3.36,7.5-7.5v-37c0-4.14,3.36-7.5,7.5-7.5h61v17.5c0,4.14,3.36,7.5,7.5,7.5h140c4.14,0,7.5-3.36,7.5-7.5v-17.5h61c4.14,0,7.5,3.36,7.5,7.5v37c0,4.14,3.36,7.5,7.5,7.5s7.5-3.36,7.5-7.5v-37c0-12.41-10.09-22.5-22.5-22.5Zm-146-60h15v35h-15v-35Zm70,85h-125v-35h125v35Z"/>
    <path class="cls-2" d="M241,305h-10c-4.14,0-7.5,3.36-7.5,7.5s3.36,7.5,7.5,7.5h10c4.14,0,7.5-3.36,7.5-7.5s-3.36-7.5-7.5-7.5Z"/>
    <path class="cls-2" d="M281,305h-10c-4.14,0-7.5,3.36-7.5,7.5s3.36,7.5,7.5,7.5h10c4.14,0,7.5-3.36,7.5-7.5s-3.36-7.5-7.5-7.5Z"/>
  </g>
  <g>
    <path class="cls-1" d="M55,414.5c0-4.14,3.36-7.5,7.5-7.5h39.01l-17.77-26.66c-1.39-2.09-3.73-3.34-6.24-3.34H7.5c-4.14,0-7.5,3.36-7.5,7.5v120c0,4.14,3.36,7.5,7.5,7.5H197.5c4.14,0,7.5-3.36,7.5-7.5v-82.5H62.5c-4.14,0-7.5-3.36-7.5-7.5Zm102.5,52.5h10c4.14,0,7.5,3.36,7.5,7.5s-3.36,7.5-7.5,7.5h-10c-4.14,0-7.5-3.36-7.5-7.5s3.36-7.5,7.5-7.5Zm-40,0h10c4.14,0,7.5,3.36,7.5,7.5s-3.36,7.5-7.5,7.5h-10c-4.14,0-7.5-3.36-7.5-7.5s3.36-7.5,7.5-7.5Z"/>
    <path class="cls-1" d="M369.5,422c-4.14,0-7.5-3.36-7.5-7.5s3.36-7.5,7.5-7.5h39.01l-17.77-26.66c-1.39-2.09-3.73-3.34-6.24-3.34h-70c-4.14,0-7.5,3.36-7.5,7.5v120c0,4.14,3.36,7.5,7.5,7.5h190c4.14,0,7.5-3.36,7.5-7.5v-82.5h-142.5Zm65,60h-10c-4.14,0-7.5-3.36-7.5-7.5s3.36-7.5,7.5-7.5h10c4.14,0,7.5,3.36,7.5,7.5s-3.36,7.5-7.5,7.5Zm40,0h-10c-4.14,0-7.5-3.36-7.5-7.5s3.36-7.5,7.5-7.5h10c4.14,0,7.5,3.36,7.5,7.5s-3.36,7.5-7.5,7.5Z"/>
  </g>
</svg>