<?xml version="1.0" encoding="UTF-8"?>
<svg id="OBJECT" xmlns="http://www.w3.org/2000/svg" viewBox="0 0 32 32">
  <defs>
    <style>
      .cls-1 {
        fill: #FD4360;
      }

      .cls-1, .cls-2 {
        stroke-width: 0px;
      }

      .cls-2 {
        fill: #dadada;
      }
    </style>
  </defs>
  <g>
    <path class="cls-2" d="m23.5,18h-9.82l-1.37-3.43c-.38-.95-1.29-1.57-2.32-1.57H3.5c-1.38,0-2.5,1.12-2.5,2.5v13c0,1.38,1.12,2.5,2.5,2.5h20c1.38,0,2.5-1.12,2.5-2.5v-8c0-1.38-1.12-2.5-2.5-2.5Zm.5,10.5c0,.28-.22.5-.5.5H3.5c-.28,0-.5-.22-.5-.5v-13c0-.28.22-.5.5-.5h6.48c.21,0,.39.12.46.31l1.07,2.69h-3.52c-.55,0-1,.45-1,1s.45,1,1,1h15.5c.28,0,.5.22.5.5v8Z"/>
    <path class="cls-2" d="m16,25h-1c-.55,0-1,.45-1,1s.45,1,1,1h1c.55,0,1-.45,1-1s-.45-1-1-1Z"/>
    <path class="cls-2" d="m21,25h-1c-.55,0-1,.45-1,1s.45,1,1,1h1c.55,0,1-.45,1-1s-.45-1-1-1Z"/>
  </g>
  <g>
    <path class="cls-1" d="m30.38,13.85l-1.5-1.5c-.82,1.48-2.05,2.71-3.53,3.53l1.5,1.5c.41.41.96.62,1.5.62s1.09-.21,1.5-.62l.53-.53c.4-.4.62-.93.62-1.5s-.22-1.1-.62-1.5Z"/>
    <path class="cls-1" d="m28,8c0-3.86-3.14-7-7-7s-7,3.14-7,7,3.14,7,7,7,7-3.14,7-7Zm-4.01-.83l-2.73,3c-.19.21-.46.33-.74.33s-.55-.12-.74-.33l-1.77-1.95c-.37-.41-.34-1.04.07-1.41.41-.37,1.04-.34,1.41.07l1.03,1.14,1.99-2.19c.37-.41,1.01-.44,1.41-.07.41.37.44,1,.07,1.41Z"/>
  </g>
</svg>