<?xml version="1.0" encoding="UTF-8"?>
<svg id="OBJECT" xmlns="http://www.w3.org/2000/svg" viewBox="0 0 32 32">
  <defs>
    <style>
      .cls-1 {
        fill: #FD4360;
      }

      .cls-1, .cls-2 {
        stroke-width: 0px;
      }

      .cls-2 {
        fill: #dadada;
      }
    </style>
  </defs>
  <g>
    <path class="cls-2" d="m15,3.5h-5.5c-1.38,0-2.5,1.12-2.5,2.5v1.5c0,.55.45,1,1,1s1-.45,1-1v-1.5c0-.28.22-.5.5-.5h5.5c.55,0,1-.45,1-1s-.45-1-1-1Z"/>
    <path class="cls-2" d="m15,26.5h-5.5c-.28,0-.5-.22-.5-.5v-1.5c0-.55-.45-1-1-1s-1,.45-1,1v1.5c0,1.38,1.12,2.5,2.5,2.5h5.5c.55,0,1-.45,1-1s-.45-1-1-1Z"/>
    <path class="cls-2" d="m30,4h-3.46l-1.7-2.55c-.19-.28-.5-.45-.83-.45h-5c-.55,0-1,.45-1,1v9c0,.55.45,1,1,1h11c.55,0,1-.45,1-1v-6c0-.55-.45-1-1-1Zm-1,6h-9V3h3.46l.67,1h-1.13c-.55,0-1,.45-1,1s.45,1,1,1h6v4Z"/>
    <path class="cls-2" d="m30,23h-3.46l-1.7-2.55c-.19-.28-.5-.45-.83-.45h-5c-.55,0-1,.45-1,1v9c0,.55.45,1,1,1h11c.55,0,1-.45,1-1v-6c0-.55-.45-1-1-1Zm-1,6h-9v-7h3.46l.67,1h-1.13c-.55,0-1,.45-1,1s.45,1,1,1h6v4Z"/>
  </g>
  <g>
    <path class="cls-1" d="m8,20c-3.13,0-5.67-1.15-7-2.97v.97c0,2.28,3.01,4,7,4s7-1.72,7-4v-.97c-1.33,1.82-3.87,2.97-7,2.97Z"/>
    <path class="cls-1" d="m8,18c3.99,0,7-1.72,7-4s-3.01-4-7-4-7,1.72-7,4,3.01,4,7,4Zm1.56-5h.44c.55,0,1,.45,1,1s-.45,1-1,1h-.44c-.55,0-1-.45-1-1s.45-1,1-1Zm-3.56,0h.44c.55,0,1,.45,1,1s-.45,1-1,1h-.44c-.55,0-1-.45-1-1s.45-1,1-1Z"/>
  </g>
</svg>