<?xml version="1.0" encoding="UTF-8"?>
<svg id="OBJECT" xmlns="http://www.w3.org/2000/svg" viewBox="0 0 512 512">
  <defs>
    <style>
      .cls-1 {
        fill: #FD4360;
      }

      .cls-2 {
        fill: #dadada;
      }
    </style>
  </defs>
  <g>
    <path class="cls-2" d="M269.5,95h110c4.14,0,7.5-3.36,7.5-7.5s-3.36-7.5-7.5-7.5h-110c-4.14,0-7.5,3.36-7.5,7.5s3.36,7.5,7.5,7.5Z"/>
    <path class="cls-2" d="M229.5,95h10c4.14,0,7.5-3.36,7.5-7.5s-3.36-7.5-7.5-7.5h-10c-4.14,0-7.5,3.36-7.5,7.5s3.36,7.5,7.5,7.5Z"/>
    <path class="cls-2" d="M379.5,120H229.5c-4.14,0-7.5,3.36-7.5,7.5s3.36,7.5,7.5,7.5h150c4.14,0,7.5-3.36,7.5-7.5s-3.36-7.5-7.5-7.5Z"/>
    <path class="cls-2" d="M379.5,160h-110c-4.14,0-7.5,3.36-7.5,7.5s3.36,7.5,7.5,7.5h110c4.14,0,7.5-3.36,7.5-7.5s-3.36-7.5-7.5-7.5Z"/>
    <path class="cls-2" d="M504.5,0H154.5c-4.14,0-7.5,3.36-7.5,7.5V160h-52.5c-4.14,0-7.5,3.36-7.5,7.5v89.77c0,4.14,3.36,7.5,7.5,7.5s7.5-3.36,7.5-7.5v-82.27h103.23c2.86,0,5.43,1.59,6.71,4.15l10.43,20.85h-37.86c-4.14,0-7.5,3.36-7.5,7.5s3.36,7.5,7.5,7.5h245c4.14,0,7.5,3.36,7.5,7.5v175c0,8.43,2.8,16.23,7.52,22.5h-126.88c-4.14,0-7.5,3.36-7.5,7.5s3.36,7.5,7.5,7.5h156.86c20.68,0,37.5-16.82,37.5-37.5V7.5c0-4.14-3.36-7.5-7.5-7.5ZM225.35,172.44c-3.84-7.67-11.55-12.44-20.12-12.44h-3.23V55h205V200H239.14l-13.78-27.56Zm271.65,225.06c0,12.41-10.09,22.5-22.5,22.5s-22.5-10.09-22.5-22.5V222.5c0-12.41-10.09-22.5-22.5-22.5h-7.5V47.5c0-4.14-3.36-7.5-7.5-7.5H194.5c-4.14,0-7.5,3.36-7.5,7.5v112.5h-25V15H497V397.5Z"/>
    <path class="cls-2" d="M394.5,395c9.65,0,17.5-7.85,17.5-17.5v-20c0-9.65-7.85-17.5-17.5-17.5h-40c-9.65,0-17.5,7.85-17.5,17.5v20c0,9.65,7.85,17.5,17.5,17.5h40Zm-42.5-17.5v-20c0-1.38,1.12-2.5,2.5-2.5h40c1.38,0,2.5,1.12,2.5,2.5v20c0,1.38-1.12,2.5-2.5,2.5h-40c-1.38,0-2.5-1.12-2.5-2.5Z"/>
    <path class="cls-2" d="M322,380v-25c0-4.14-3.36-7.5-7.5-7.5s-7.5,3.36-7.5,7.5v25c0,4.14,3.36,7.5,7.5,7.5s7.5-3.36,7.5-7.5Z"/>
  </g>
  <g>
    <path class="cls-1" d="M157.5,312c-5.74,0-11.05,2.31-14.95,6.51-3.91,4.2-5.84,9.66-5.43,15.38l7.37,103.11h26.03l7.37-103.11c.41-5.72-1.52-11.18-5.43-15.38-3.91-4.2-9.22-6.51-14.95-6.51Z"/>
    <path class="cls-1" d="M309.59,453.29l-116.51-197.18c-6.97-11.79-19.81-19.12-33.5-19.12h-4.15c-13.7,0-26.53,7.32-33.5,19.12h0S5.41,453.29,5.41,453.29c-3.54,5.99-5.41,12.84-5.41,19.79,0,21.46,17.46,38.91,38.91,38.91h237.18c21.46,0,38.91-17.46,38.91-38.91,0-6.96-1.87-13.8-5.41-19.8Zm-132.09,28.71h-40c-4.14,0-7.5-3.36-7.5-7.5s3.36-7.5,7.5-7.5h40c4.14,0,7.5,3.36,7.5,7.5s-3.36,7.5-7.5,7.5Zm15.34-147.04l-7.86,110.08c-.28,3.92-3.55,6.97-7.48,6.97h-40c-3.93,0-7.2-3.04-7.48-6.97l-7.86-110.08c-.7-9.78,2.73-19.5,9.41-26.67,6.68-7.17,16.13-11.29,25.93-11.29s19.25,4.11,25.93,11.29c6.68,7.17,10.11,16.89,9.41,26.67Z"/>
  </g>
</svg>