<?xml version="1.0" encoding="UTF-8"?>
<svg id="OBJECT" xmlns="http://www.w3.org/2000/svg" viewBox="0 0 32 32">
  <defs>
    <style>
      .cls-1 {
        fill: #FD4360;
      }

      .cls-1, .cls-2 {
        stroke-width: 0px;
      }

      .cls-2 {
        fill: #dadada;
      }
    </style>
  </defs>
  <g>
    <path class="cls-2" d="m24,26H4c-.55,0-1-.45-1-1V6h7.87c.35,0,.68.19.86.49l1.51,2.51h-5.23c-.55,0-1,.45-1,1s.45,1,1,1h16c.55,0,1-.45,1-1s-.45-1-1-1h-8.43l-2.13-3.54c-.54-.9-1.52-1.46-2.57-1.46H2c-.55,0-1,.45-1,1v20c0,1.65,1.35,3,3,3h20c.55,0,1-.45,1-1s-.45-1-1-1Z"/>
    <path class="cls-2" d="m7.5,18c-1.38,0-2.5,1.12-2.5,2.5v1c0,1.38,1.12,2.5,2.5,2.5h1c1.38,0,2.5-1.12,2.5-2.5v-1c0-1.38-1.12-2.5-2.5-2.5h-1Zm1.5,2.5v1c0,.28-.22.5-.5.5h-1c-.28,0-.5-.22-.5-.5v-1c0-.28.22-.5.5-.5h1c.28,0,.5.22.5.5Z"/>
    <path class="cls-2" d="m15.5,18c-1.38,0-2.5,1.12-2.5,2.5v1c0,1.38,1.12,2.5,2.5,2.5h1c1.38,0,2.5-1.12,2.5-2.5v-1c0-1.38-1.12-2.5-2.5-2.5h-1Zm1.5,2.5v1c0,.28-.22.5-.5.5h-1c-.28,0-.5-.22-.5-.5v-1c0-.28.22-.5.5-.5h1c.28,0,.5.22.5.5Z"/>
  </g>
  <path class="cls-1" d="m26,13v12.5c0,1.38,1.12,2.5,2.5,2.5s2.5-1.12,2.5-2.5v-12.5h-5Z"/>
</svg>