<?xml version="1.0" encoding="UTF-8"?>
<svg id="OBJECT" xmlns="http://www.w3.org/2000/svg" viewBox="0 0 32 32">
  <defs>
    <style>
      .cls-1 {
        fill: #FD4360;
      }

      .cls-1, .cls-2 {
        stroke-width: 0px;
      }

      .cls-2 {
        fill: #dadada;
      }
    </style>
  </defs>
  <g>
    <path class="cls-2" d="m30.37,12.84c-.48-.54-1.17-.84-1.89-.84H3.52c-.72,0-1.41.31-1.89.84-.47.53-.7,1.23-.62,1.94l1.69,13.99c.14,1.27,1.22,2.22,2.5,2.22h21.59c1.28,0,2.36-.96,2.5-2.21l1.69-14.01c.08-.7-.15-1.41-.62-1.94Zm-3.06,15.71c-.03.25-.25.45-.52.45H5.21c-.27,0-.49-.19-.52-.45l-.19-1.55h22.99l-.19,1.55Zm.43-3.55H4.26l-1.26-10.45c-.02-.19.07-.32.12-.38.06-.07.19-.17.39-.17h24.96c.21,0,.34.11.39.17.05.06.14.19.12.37l-1.26,10.45Z"/>
    <path class="cls-2" d="m13.21,16.79c-.39-.39-1.02-.39-1.41,0l-2,2c-.39.39-.39,1.02,0,1.41l2,2c.2.2.45.29.71.29s.51-.1.71-.29c.39-.39.39-1.02,0-1.41l-1.29-1.29,1.29-1.29c.39-.39.39-1.02,0-1.41Z"/>
    <path class="cls-2" d="m20.21,16.79c-.39-.39-1.02-.39-1.41,0s-.39,1.02,0,1.41l1.29,1.29-1.29,1.29c-.39.39-.39,1.02,0,1.41.2.2.45.29.71.29s.51-.1.71-.29l2-2c.39-.39.39-1.02,0-1.41l-2-2Z"/>
    <path class="cls-2" d="m17.27,15.04c-.53-.15-1.08.15-1.24.69l-2,7c-.15.53.16,1.08.69,1.24.09.03.18.04.28.04.43,0,.83-.29.96-.73l2-7c.15-.53-.16-1.08-.69-1.24Z"/>
  </g>
  <path class="cls-1" d="m28,9c0-1.1-.9-2-2-2H9.78c-.55,0-1-.45-1-1s.45-1,1-1h5.75l-2.99-3.64c-.19-.23-.47-.36-.77-.36h-5.27c-1.38,0-2.5,1.12-2.5,2.5v6.5h24v-1Z"/>
</svg>