<?xml version="1.0" encoding="UTF-8"?>
<svg id="OBJECT" xmlns="http://www.w3.org/2000/svg" viewBox="0 0 32 32">
  <defs>
    <style>
      .cls-1 {
        fill: #FD4360;
      }

      .cls-2 {
        fill: #dadada;
      }
    </style>
  </defs>
  <g>
    <path class="cls-2" d="M9.5,17h-3.5c-.55,0-1,.45-1,1v1h-1.5c-1.38,0-2.5,1.12-2.5,2.5v5c0,1.38,1.12,2.5,2.5,2.5h1.55c.23,1.14,1.24,2,2.45,2h2c1.38,0,2.5-1.12,2.5-2.5v-9c0-1.38-1.12-2.5-2.5-2.5ZM3,26.5v-5c0-.28,.22-.5,.5-.5h1.5v6h-1.5c-.28,0-.5-.22-.5-.5Zm7,2c0,.28-.22,.5-.5,.5h-2c-.28,0-.5-.22-.5-.5v-9.5h2.5c.28,0,.5,.22,.5,.5v9Z"/>
    <path class="cls-2" d="M28.5,19h-1.5v-1c0-.55-.45-1-1-1h-3.5c-1.38,0-2.5,1.12-2.5,2.5v9c0,1.38,1.12,2.5,2.5,2.5h2c1.21,0,2.22-.86,2.45-2h1.55c1.38,0,2.5-1.12,2.5-2.5v-5c0-1.38-1.12-2.5-2.5-2.5Zm-3.5,9.5c0,.28-.22,.5-.5,.5h-2c-.28,0-.5-.22-.5-.5v-9c0-.28,.22-.5,.5-.5h2.5v9.5Zm4-2c0,.28-.22,.5-.5,.5h-1.5v-6h1.5c.28,0,.5,.22,.5,.5v5Z"/>
  </g>
  <path class="cls-1" d="M18,1h-4C9.04,1,5,5.04,5,10v5h2v-3.15c.32,.14,.66,.22,1,.22,.46,0,.91-.13,1.31-.38,.74-.46,1.19-1.25,1.19-2.13v-.57c0-1.65,1.35-3,3-3h5c1.65,0,3,1.35,3,3v.57c0,.87,.44,1.67,1.19,2.13,.71,.44,1.56,.48,2.31,.15v3.15h2v-5c0-4.96-4.04-9-9-9Z"/>
</svg>