<?xml version="1.0" encoding="UTF-8"?>
<svg id="OBJECT" xmlns="http://www.w3.org/2000/svg" viewBox="0 0 32 32">
  <defs>
    <style>
      .cls-1 {
        fill: #FD4360;
      }

      .cls-1, .cls-2 {
        stroke-width: 0px;
      }

      .cls-2 {
        fill: #dadada;
      }
    </style>
  </defs>
  <path class="cls-2" d="m18,1h-4C6.83,1,1,6.83,1,14v14c0,1.65,1.35,3,3,3h2c1.65,0,3-1.35,3-3v-10c0-1.65-1.35-3-3-3h-3v-1C3,7.93,7.93,3,14,3h4c6.07,0,11,4.93,11,11v1c0,.55.45,1,1,1s1-.45,1-1v-1c0-7.17-5.83-13-13-13ZM7,18v10c0,.55-.45,1-1,1h-2c-.55,0-1-.45-1-1v-11h3c.55,0,1,.45,1,1Z"/>
  <g>
    <path class="cls-1" d="m26,17c-1.66,0-3,1.34-3,3v11h5c1.66,0,3-1.34,3-3v-11h-5Z"/>
    <path class="cls-1" d="m18.5,28c0-1.1-.9-2-2-2h-3c-1.1,0-2,.9-2,2v1c0,1.1.9,2,2,2h7.5v-2h-2.5v-1Z"/>
  </g>
</svg>