<?xml version="1.0" encoding="UTF-8"?>
<svg id="OBJECT" xmlns="http://www.w3.org/2000/svg" viewBox="0 0 32 32">
  <defs>
    <style>
      .cls-1 {
        fill: #FD4360;
      }

      .cls-1, .cls-2 {
        stroke-width: 0px;
      }

      .cls-2 {
        fill: #dadada;
      }
    </style>
  </defs>
  <g>
    <path class="cls-2" d="m18,1h-4c-5.52,0-10,4.48-10,10v6.5h-.5c-1.38,0-2.5,1.12-2.5,2.5v6c0,1.38,1.12,2.5,2.5,2.5h.55c.24,1.42,1.47,2.5,2.95,2.5h1c1.66,0,3-1.34,3-3v-10c0-1.66-1.34-3-3-3h-2v-4c0-4.42,3.58-8,8-8h4c4.42,0,8,3.58,8,8v1c0,.55.45,1,1,1s1-.45,1-1v-1c0-5.52-4.48-10-10-10ZM4,26.5h-.5c-.28,0-.5-.22-.5-.5v-6c0-.28.22-.5.5-.5h.5v7Zm4-9.5c.55,0,1,.45,1,1v10c0,.55-.45,1-1,1h-1c-.55,0-1-.45-1-1v-11h2Z"/>
    <path class="cls-2" d="m16,11.2c-1.12,0-2.17.44-2.96,1.24-.39.39-.38,1.03,0,1.41.39.39,1.03.38,1.41,0,.82-.83,2.26-.83,3.08,0,.2.2.45.3.71.3s.51-.1.7-.29c.39-.39.4-1.02,0-1.41-.79-.8-1.84-1.24-2.96-1.24Z"/>
    <path class="cls-2" d="m16,6.97c-1.97,0-3.82.77-5.21,2.18-.39.39-.38,1.03,0,1.41.39.39,1.03.38,1.42,0,1.01-1.02,2.36-1.59,3.79-1.59s2.78.56,3.79,1.59c.2.2.45.3.71.3s.51-.1.7-.29c.39-.39.4-1.02,0-1.41-1.39-1.4-3.24-2.18-5.21-2.18Z"/>
    <path class="cls-2" d="m16.25,14.97h-.5c-.55,0-1,.45-1,1s.45,1,1,1h.5c.55,0,1-.45,1-1s-.45-1-1-1Z"/>
  </g>
  <path class="cls-1" d="m21,16.5v13c0,.83.67,1.5,1.5,1.5h2c.83,0,1.5-.67,1.5-1.5v-14.5h-3.5c-.83,0-1.5.67-1.5,1.5Z"/>
  <path class="cls-1" d="m29.5,17.5h-1.5v11h1.5c.83,0,1.5-.67,1.5-1.5v-8c0-.83-.67-1.5-1.5-1.5Z"/>
</svg>