<?xml version="1.0" encoding="UTF-8"?>
<svg id="OBJECT" xmlns="http://www.w3.org/2000/svg" viewBox="0 0 32 32">
  <defs>
    <style>
      .cls-1 {
        fill: #FD4360;
      }

      .cls-1, .cls-2 {
        stroke-width: 0px;
      }

      .cls-2 {
        fill: #dadada;
      }
    </style>
  </defs>
  <path class="cls-2" d="m18,1h-4C6.83,1,1,6.83,1,14v14c0,1.65,1.35,3,3,3h1c1.65,0,3-1.35,3-3v-7c0-1.65-1.35-3-3-3h-2v-4C3,7.93,7.93,3,14,3h4c6.07,0,11,4.93,11,11v4h-2c-1.65,0-3,1.35-3,3v8h-3.22l-.62-2.49c-.22-.89-1.02-1.51-1.94-1.51h-4.22c-1.1,0-2,.9-2,2v2c0,1.1.9,2,2,2h14c1.65,0,3-1.35,3-3v-14c0-7.17-5.83-13-13-13ZM6,21v7c0,.55-.45,1-1,1h-1c-.55,0-1-.45-1-1v-8h2c.55,0,1,.45,1,1Zm8,8v-2h4.22l.5,2h-4.72Zm15-1c0,.55-.45,1-1,1h-2v-8c0-.55.45-1,1-1h2v8Z"/>
  <path class="cls-1" d="m24,14c0-4.41-3.59-8-8-8s-8,3.59-8,8,3.59,8,8,8,8-3.59,8-8Zm-12.7-1.17c-.39-.39-.4-1.02,0-1.41,1.26-1.27,2.93-1.97,4.71-1.97s3.45.7,4.71,1.97c.39.39.39,1.03,0,1.41-.19.19-.45.29-.7.29s-.52-.1-.71-.3c-.88-.89-2.05-1.38-3.29-1.38s-2.41.49-3.29,1.38c-.39.39-1.02.4-1.41,0Zm2,2.93c-.39-.39-.4-1.02,0-1.41,1.45-1.46,3.97-1.46,5.42,0,.39.39.39,1.03,0,1.41-.19.19-.45.29-.7.29s-.52-.1-.71-.3c-.69-.7-1.89-.7-2.58,0-.39.39-1.02.4-1.41,0Zm1.48,1.8c0-.55.45-1,1-1h.44c.55,0,1,.45,1,1s-.45,1-1,1h-.44c-.55,0-1-.45-1-1Z"/>
</svg>