<?xml version="1.0" encoding="UTF-8"?>
<svg id="OBJECT" xmlns="http://www.w3.org/2000/svg" viewBox="0 0 32 32">
  <defs>
    <style>
      .cls-1 {
        fill: #FD4360;
      }

      .cls-1, .cls-2 {
        stroke-width: 0px;
      }

      .cls-2 {
        fill: #dadada;
      }
    </style>
  </defs>
  <g>
    <path class="cls-2" d="m16,1c-6.07,0-11,4.93-11,11v6h-1.5c-1.38,0-2.5,1.12-2.5,2.5v6c0,1.38,1.12,2.5,2.5,2.5h1.55c.23,1.14,1.24,2,2.45,2h2c1.38,0,2.5-1.12,2.5-2.5v-10c0-1.38-1.12-2.5-2.5-2.5h-2.5v-4c0-4.96,4.04-9,9-9s9,4.04,9,9v3c0,.55.45,1,1,1s1-.45,1-1v-3c0-6.07-4.93-11-11-11ZM3,26.5v-6c0-.28.22-.5.5-.5h1.5v7h-1.5c-.28,0-.5-.22-.5-.5Zm7-8v10c0,.28-.22.5-.5.5h-2c-.28,0-.5-.22-.5-.5v-10.5h2.5c.28,0,.5.22.5.5Z"/>
    <path class="cls-2" d="m16,9.76c-1.22,0-2.36.48-3.21,1.36-.39.4-.38,1.03.02,1.41.4.39,1.03.38,1.41-.02.96-.98,2.61-.98,3.57,0,.2.2.46.3.71.3s.5-.09.7-.29c.4-.39.4-1.02.02-1.41-.86-.88-2-1.36-3.21-1.36Z"/>
    <path class="cls-2" d="m16,5c-2.16,0-4.19.86-5.71,2.42-.39.4-.38,1.03.02,1.41.4.39,1.03.38,1.41-.02,1.15-1.17,2.67-1.82,4.29-1.82s3.14.65,4.29,1.82c.2.2.46.3.71.3s.5-.09.7-.29c.4-.39.4-1.02.02-1.41-1.52-1.56-3.55-2.42-5.71-2.42Z"/>
    <path class="cls-2" d="m16.28,14h-.56c-.55,0-1,.45-1,1s.45,1,1,1h.56c.55,0,1-.45,1-1s-.45-1-1-1Z"/>
  </g>
  <g>
    <path class="cls-1" d="m20,20v9c0,1.1.9,2,2,2h3c1.1,0,2-.9,2-2v-11h-5c-1.1,0-2,.9-2,2Z"/>
    <path class="cls-1" d="m30,19h-1v9h1c.55,0,1-.45,1-1v-7c0-.55-.45-1-1-1Z"/>
  </g>
</svg>