<?xml version="1.0" encoding="UTF-8"?>
<svg id="OBJECT" xmlns="http://www.w3.org/2000/svg" viewBox="0 0 32 32">
  <defs>
    <style>
      .cls-1 {
        fill: #FD4360;
      }

      .cls-1, .cls-2 {
        stroke-width: 0px;
      }

      .cls-2 {
        fill: #dadada;
      }
    </style>
  </defs>
  <g>
    <path class="cls-2" d="m8.5,16h-2.5c-.55,0-1,.45-1,1v2h-1.5c-1.38,0-2.5,1.12-2.5,2.5v4c0,1.38,1.12,2.5,2.5,2.5h1.5v.5c0,1.38,1.12,2.5,2.5,2.5h1c1.38,0,2.5-1.12,2.5-2.5v-10c0-1.38-1.12-2.5-2.5-2.5Zm-5,10c-.28,0-.5-.22-.5-.5v-4c0-.28.22-.5.5-.5h1.5v5h-1.5Zm5.5,2.5c0,.28-.22.5-.5.5h-1c-.28,0-.5-.22-.5-.5v-10.5h1.5c.28,0,.5.22.5.5v10Z"/>
    <path class="cls-2" d="m28.5,19h-1.5v-2c0-.55-.45-1-1-1h-2.5c-1.38,0-2.5,1.12-2.5,2.5v10.5h-3c-.55,0-1-.45-1-1v-1c0-.55-.45-1-1-1s-1,.45-1,1v1c0,1.65,1.35,3,3,3h6.5c1.38,0,2.5-1.12,2.5-2.5v-.5h1.5c1.38,0,2.5-1.12,2.5-2.5v-4c0-1.38-1.12-2.5-2.5-2.5Zm-3.5,9.5c0,.28-.22.5-.5.5h-1.5v-10.5c0-.28.22-.5.5-.5h1.5v10.5Zm4-3c0,.28-.22.5-.5.5h-1.5v-5h1.5c.28,0,.5.22.5.5v4Z"/>
  </g>
  <path class="cls-1" d="m17,1h-2c-5.51,0-10,4.49-10,10v3h2v-2.47c.4.37.89.56,1.4.56.28,0,.57-.06.84-.18.77-.34,1.25-1.07,1.25-1.91,0-2.48,2.02-4.5,4.5-4.5h2c2.48,0,4.5,2.02,4.5,4.5,0,.84.48,1.58,1.25,1.91.77.33,1.63.19,2.25-.38v2.47h2v-3c0-5.51-4.49-10-10-10Z"/>
</svg>