<?xml version="1.0" encoding="UTF-8"?>
<svg id="OBJECT" xmlns="http://www.w3.org/2000/svg" viewBox="0 0 32 32">
  <defs>
    <style>
      .cls-1 {
        fill: #FD4360;
      }

      .cls-1, .cls-2 {
        stroke-width: 0px;
      }

      .cls-2 {
        fill: #dadada;
      }
    </style>
  </defs>
  <circle class="cls-1" cx="16" cy="16" r="5"/>
  <path class="cls-2" d="m30,5H2c-.55,0-1,.45-1,1v20c0,.55.45,1,1,1h28c.55,0,1-.45,1-1V6c0-.55-.45-1-1-1ZM3,12h4v8H3v-8Zm14,13v-1.61c0-.55-.45-1-1-1s-1,.45-1,1v1.61H3v-3h5c.55,0,1-.45,1-1v-10c0-.55-.45-1-1-1H3v-3h12v1.61c0,.55.45,1,1,1s1-.45,1-1v-1.61h12v3h-4.66c-.74,0-1.34.6-1.34,1.34v9.31c0,.74.6,1.34,1.34,1.34h4.66v3h-12Zm12-13v8h-4v-8h4Z"/>
</svg>