<?xml version="1.0" encoding="UTF-8"?>
<svg id="OBJECT" xmlns="http://www.w3.org/2000/svg" viewBox="0 0 32 32">
  <defs>
    <style>
      .cls-1 {
        fill: #FD4360;
      }

      .cls-1, .cls-2 {
        stroke-width: 0px;
      }

      .cls-2 {
        fill: #dadada;
      }
    </style>
  </defs>
  <g>
    <path class="cls-2" d="m30,28h-8c-.55,0-1,.45-1,1s.45,1,1,1h8c.55,0,1-.45,1-1s-.45-1-1-1Z"/>
    <path class="cls-2" d="m18.5,28h-.5c-.55,0-1,.45-1,1s.45,1,1,1h.5c.55,0,1-.45,1-1s-.45-1-1-1Z"/>
    <path class="cls-2" d="m30,24h-8c-.55,0-1,.45-1,1s.45,1,1,1h8c.55,0,1-.45,1-1s-.45-1-1-1Z"/>
    <path class="cls-2" d="m30.5,7.73c.84-1.39.62-3.18-.54-4.33l-1.35-1.35c-1.16-1.15-2.94-1.38-4.33-.54-2.59,1.53-7.44,4.89-10.75,10.28-.29.47-.14,1.09.33,1.38.47.29,1.08.14,1.38-.33,1.68-2.73,3.79-4.89,5.76-6.55l4.73,4.73c-1.65,1.97-3.81,4.08-6.55,5.76-.47.29-.62.91-.33,1.38.19.31.52.48.85.48.18,0,.36-.05.52-.15,5.39-3.32,8.75-8.16,10.27-10.75Zm-7.92-2.69c1.03-.76,1.98-1.38,2.73-1.82.61-.36,1.38-.27,1.89.24l1.35,1.35c.5.51.6,1.28.24,1.9-.44.74-1.05,1.69-1.81,2.72l-4.39-4.39Z"/>
  </g>
  <g>
    <path class="cls-1" d="m18.8,21.3l-8.12-8.12c-.39-.39-1.02-.39-1.41,0s-.39,1.02,0,1.41l.5.5c-1.08,1.03-3.36,2.78-5.29,1.45-.22-.15-.5-.21-.76-.16-.26.05-.5.21-.64.44-.16.26-3.83,6.09-.98,11.66l4.6-4.6c-.27-.49-.43-1.05-.43-1.65,0-1.93,1.57-3.5,3.5-3.5s3.5,1.57,3.5,3.5-1.57,3.5-3.5,3.5c-.6,0-1.16-.17-1.65-.43l-4.62,4.61c1.55.79,3.11,1.08,4.58,1.08,3.81,0,6.91-1.96,7.1-2.08.23-.15.38-.38.44-.64.05-.26,0-.54-.16-.76-1.32-1.92.43-4.21,1.45-5.29l.49.49c.2.2.45.29.71.29s.51-.1.71-.29c.39-.39.39-1.02,0-1.41Z"/>
    <circle class="cls-1" cx="9.75" cy="22.24" r="1.5"/>
  </g>
</svg>