<?xml version="1.0" encoding="UTF-8"?>
<svg id="OBJECT" xmlns="http://www.w3.org/2000/svg" viewBox="0 0 32 32">
  <defs>
    <style>
      .cls-1 {
        fill: #FD4360;
      }

      .cls-1, .cls-2 {
        stroke-width: 0px;
      }

      .cls-2 {
        fill: #dadada;
      }
    </style>
  </defs>
  <g>
    <path class="cls-2" d="m22.16,6.34c-.55,0-1,.46-.99,1.01,0,.55.45.99,1,.99h.01c.66,0,1.3.25,1.77.71.47.47.72,1.1.71,1.77,0,.55.44,1,.99,1.01h.01c.55,0,.99-.44,1-.99.01-1.21-.45-2.35-1.3-3.21-.85-.85-1.97-1.3-3.21-1.3Z"/>
    <path class="cls-2" d="m28.69,4.31c-1.51-1.51-3.56-2.32-5.69-2.31-.55,0-1,.46-.99,1.01,0,.55.49.97,1.01.99,1.6,0,3.13.59,4.26,1.72,1.13,1.13,1.74,2.64,1.72,4.26,0,.55.44,1,.99,1.01h.01c.55,0,.99-.44,1-.99.02-2.16-.8-4.18-2.31-5.69Z"/>
    <path class="cls-2" d="m22.21,10.4c-.39-.39-1.02-.39-1.41,0s-.39,1.02,0,1.41l.39.39c.2.2.45.29.71.29s.51-.1.71-.29c.39-.39.39-1.02,0-1.41l-.39-.39Z"/>
    <path class="cls-2" d="m18,12c-.55,0-1,.45-1,1v13c0,.55-.45,1-1,1H4c-.55,0-1-.45-1-1v-13c0-.55-.45-1-1-1s-1,.45-1,1v13c0,1.3.84,2.4,2,2.82v1.18c0,.55.45,1,1,1s1-.45,1-1v-1h10v1c0,.55.45,1,1,1s1-.45,1-1v-1.18c1.16-.41,2-1.51,2-2.82v-13c0-.55-.45-1-1-1Z"/>
    <path class="cls-2" d="m14,23.5c.55,0,1-.45,1-1v-5c0-.55-.45-1-1-1s-1,.45-1,1v5c0,.55.45,1,1,1Z"/>
  </g>
  <path class="cls-1" d="m17,1H3c-1.1,0-2,.9-2,2v6c0,1.1.9,2,2,2h14c1.1,0,2-.9,2-2V3c0-1.1-.9-2-2-2Zm-1,6c0,.55-.45,1-1,1s-1-.45-1-1v-2c0-.55.45-1,1-1s1,.45,1,1v2Z"/>
</svg>