<?xml version="1.0" encoding="UTF-8"?>
<svg id="OBJECT" xmlns="http://www.w3.org/2000/svg" viewBox="0 0 32 32">
  <defs>
    <style>
      .cls-1 {
        fill: #FD4360;
      }

      .cls-1, .cls-2 {
        stroke-width: 0px;
      }

      .cls-2 {
        fill: #dadada;
      }
    </style>
  </defs>
  <g>
    <path class="cls-1" d="m8.5,21.5h-1c-.55,0-1-.45-1-1s.45-1,1-1h1c.55,0,1,.45,1,1s-.45,1-1,1Z"/>
    <path class="cls-1" d="m24.5,21.5h-1c-.55,0-1-.45-1-1s.45-1,1-1h1c.55,0,1,.45,1,1s-.45,1-1,1Z"/>
  </g>
  <path class="cls-1" d="m20.5,14h-9c-.55,0-1,.45-1,1v.78c0,2.69,1.94,4.93,4.5,5.4v3.28h-1.51c-.55,0-1,.45-1,1s.45,1,1,1h5.03c.55,0,1-.45,1-1s-.45-1-1-1h-1.51v-3.28c2.56-.47,4.5-2.71,4.5-5.4v-.78c0-.55-.45-1-1-1Z"/>
  <path class="cls-2" d="m28,1H4c-1.65,0-3,1.35-3,3v3c0,.55.45,1,1,1h.5v20c0,1.65,1.35,3,3,3h21c1.65,0,3-1.35,3-3V8h.5c.55,0,1-.45,1-1v-3c0-1.65-1.35-3-3-3Zm1,3v2h-8.42v-3h7.42c.55,0,1,.45,1,1Zm-15.58-1h5.16v6.45l-2.2-.91c-.12-.05-.25-.08-.38-.08s-.26.03-.38.08l-2.2.91V3Zm-10.42,1c0-.55.45-1,1-1h7.42v3H3v-2Zm24.5,24c0,.55-.45,1-1,1H5.5c-.55,0-1-.45-1-1V8h6.92v2.94c0,.33.17.65.44.83.28.18.63.22.94.09l3.2-1.32,3.2,1.32c.12.05.25.08.38.08.2,0,.39-.06.56-.17.28-.19.44-.5.44-.83v-2.94h6.92v20Z"/>
</svg>