<?xml version="1.0" encoding="UTF-8"?>
<svg id="OBJECT" xmlns="http://www.w3.org/2000/svg" viewBox="0 0 32 32">
  <defs>
    <style>
      .cls-1 {
        fill: #FD4360;
      }

      .cls-1, .cls-2 {
        stroke-width: 0px;
      }

      .cls-2 {
        fill: #dadada;
      }
    </style>
  </defs>
  <g>
    <path class="cls-2" d="m3.1,11.93c.12.05.25.07.37.07.4,0,.77-.24.93-.63,1.27-3.17,3.81-5.71,6.97-6.97.51-.21.76-.79.56-1.3-.2-.51-.79-.76-1.3-.56-3.67,1.47-6.62,4.42-8.09,8.09-.2.51.04,1.09.56,1.3Z"/>
    <path class="cls-2" d="m28.9,20.07c-.52-.21-1.1.05-1.3.56-1.27,3.17-3.81,5.71-6.97,6.97-.51.21-.76.79-.56,1.3.16.39.53.63.93.63.12,0,.25-.02.37-.07,3.67-1.47,6.62-4.42,8.09-8.09.2-.51-.04-1.09-.56-1.3Z"/>
    <path class="cls-2" d="m20.63,4.4c3.17,1.26,5.71,3.81,6.97,6.97.16.39.53.63.93.63.12,0,.25-.02.37-.07.51-.21.76-.79.56-1.3-1.47-3.67-4.42-6.62-8.09-8.09-.52-.21-1.1.05-1.3.56-.2.51.04,1.09.56,1.3Z"/>
    <path class="cls-2" d="m11.37,27.6c-3.17-1.26-5.71-3.81-6.97-6.97-.2-.51-.78-.76-1.3-.56s-.76.79-.56,1.3c1.47,3.67,4.42,6.62,8.09,8.09.12.05.25.07.37.07.4,0,.77-.24.93-.63.2-.51-.04-1.09-.56-1.3Z"/>
    <path class="cls-2" d="m28.5,13h-2.96c-.98-3.1-3.43-5.56-6.54-6.54v-2.96c0-1.38-1.12-2.5-2.5-2.5h-1c-1.38,0-2.5,1.12-2.5,2.5v2.96c-3.11.98-5.56,3.43-6.54,6.54h-2.96c-1.38,0-2.5,1.12-2.5,2.5v1c0,1.38,1.12,2.5,2.5,2.5h2.96c.98,3.1,3.43,5.56,6.54,6.54v2.96c0,1.38,1.12,2.5,2.5,2.5h1c1.38,0,2.5-1.12,2.5-2.5v-2.96c3.11-.98,5.56-3.43,6.54-6.54h2.96c1.38,0,2.5-1.12,2.5-2.5v-1c0-1.38-1.12-2.5-2.5-2.5ZM15,3.5c0-.28.22-.5.5-.5h1c.28,0,.5.22.5.5v2.55c-.33-.03-.66-.05-1-.05s-.67.02-1,.05v-2.55ZM3.5,17c-.28,0-.5-.22-.5-.5v-1c0-.28.22-.5.5-.5h2.55c-.03.33-.05.66-.05,1s.02.67.05,1h-2.55Zm13.5,11.5c0,.28-.22.5-.5.5h-1c-.28,0-.5-.22-.5-.5v-2.55c.33.03.66.05,1,.05s.67-.02,1-.05v2.55Zm-1-4.5c-4.41,0-8-3.59-8-8s3.59-8,8-8,8,3.59,8,8-3.59,8-8,8Zm13-7.5c0,.28-.22.5-.5.5h-2.55c.03-.33.05-.66.05-1s-.02-.67-.05-1h2.55c.28,0,.5.22.5.5v1Z"/>
  </g>
  <g>
    <path class="cls-1" d="m16,16.4c1.79,0,3.25-1.46,3.25-3.25v-1.35c0-1.54-1.26-2.8-2.8-2.8h-.9c-1.54,0-2.8,1.26-2.8,2.8v1.35c0,1.79,1.46,3.25,3.25,3.25Z"/>
    <path class="cls-1" d="m20.64,15.56c-.88,1.68-2.61,2.84-4.64,2.84s-3.76-1.16-4.64-2.84c-.55.86-.86,1.88-.86,2.94,0,1.38,1.12,2.5,2.5,2.5h6c1.38,0,2.5-1.12,2.5-2.5,0-1.06-.31-2.08-.86-2.94Z"/>
  </g>
</svg>