<?xml version="1.0" encoding="UTF-8"?>
<svg id="OBJECT" xmlns="http://www.w3.org/2000/svg" viewBox="0 0 512 512">
  <defs>
    <style>
      .cls-1 {
        fill: #FD4360;
      }

      .cls-2 {
        fill: #dadada;
      }
    </style>
  </defs>
  <g>
    <path class="cls-2" d="M141,432c4.14,0,7.5-3.36,7.5-7.5v-5c0-4.14-3.36-7.5-7.5-7.5s-7.5,3.36-7.5,7.5v5c0,4.14,3.36,7.5,7.5,7.5Z"/>
    <path class="cls-2" d="M371,412c-4.14,0-7.5,3.36-7.5,7.5v5c0,4.14,3.36,7.5,7.5,7.5s7.5-3.36,7.5-7.5v-5c0-4.14-3.36-7.5-7.5-7.5Z"/>
    <path class="cls-2" d="M411.46,344.13l-116.42-56.28c-2.53-1.22-5.53-.93-7.78,.76l-31.26,23.53-31.26-23.53c-2.25-1.69-5.25-1.98-7.78-.76l-116.42,56.28c-16.43,7.94-27.04,24.86-27.04,43.11v117.26c0,4.14,3.36,7.5,7.5,7.5H431c4.14,0,7.5-3.36,7.5-7.5v-117.26c0-18.25-10.62-35.17-27.04-43.11Zm-196.41-21.07l8.03-16.94,19.96,15.03-17.05,11.36c-4.41,2.94-8.05,.31-9.06-.57-1.01-.88-4.14-4.1-1.87-8.89Zm50.1,30.8h-18.29l-3.69-14.77,12.84-8.55,12.84,8.55-3.69,14.77Zm-18.17,15h18.05l22.9,99.93-20.72,28.21h-22.41l-20.72-28.21,22.9-99.93Zm21.99-47.71l19.96-15.03,8.03,16.94c2.27,4.78-.86,8.01-1.87,8.89-1.01,.88-4.66,3.5-9.06,.57l-17.05-11.37Zm-180.46,66.09c0-12.53,7.29-24.15,18.57-29.61l97.27-47.02-2.86,6.03c-4.38,9.25-2.13,19.96,5.62,26.66,4.25,3.67,9.45,5.53,14.68,5.53,2.69,0,5.39-.49,7.97-1.48l3.52,14.09-24.6,107.35c-.49,2.13-.03,4.36,1.27,6.11l16.23,22.1h-77.69v-47.5c0-4.14-3.36-7.5-7.5-7.5s-7.5,3.36-7.5,7.5v47.5h-45v-109.76Zm335,109.76h-45v-47.5c0-4.14-3.36-7.5-7.5-7.5s-7.5,3.36-7.5,7.5v47.5h-77.69l16.23-22.1c1.29-1.76,1.75-3.99,1.27-6.11l-24.6-107.35,3.52-14.09c2.58,.99,5.28,1.48,7.98,1.48,5.24,0,10.44-1.86,14.68-5.53,7.75-6.69,10-17.41,5.62-26.66l-2.86-6.03,97.27,47.03c11.28,5.45,18.57,17.08,18.57,29.61v109.76Z"/>
  </g>
  <g>
    <path class="cls-1" d="M324.08,129.63c-24.11,.14-41.49-7.93-52.53-15.57-6.82-4.73-11.96-9.76-15.55-13.88-3.59,4.12-8.73,9.16-15.55,13.88-10.94,7.58-28.13,15.58-51.91,15.58-.2,0-.41,0-.61,0v49.01c0,37.54,30.54,68.08,68.08,68.08s68.08-30.54,68.08-68.08v-49.01Zm-42.58,68.11c-7.03,7.03-16.26,10.54-25.5,10.54s-18.47-3.51-25.5-10.54c-2.93-2.93-2.93-7.68,0-10.61,2.93-2.93,7.68-2.93,10.61,0,8.21,8.21,21.57,8.21,29.78,0,2.93-2.93,7.68-2.93,10.61,0s2.93,7.68,0,10.61Z"/>
    <path class="cls-1" d="M390.55,135.39c.25-36.07-13.62-70.03-39.05-95.64C326.05,14.12,292.13,0,256,0s-70.04,14.12-95.5,39.75c-25.43,25.6-39.3,59.57-39.05,95.64,.57,82.31-1.91,130.62-7.09,170.4l83.37-40.3v-27.68c-15.85-15.58-24.81-36.77-24.81-59.17v-50.11c-1.04-.14-2.08-.3-3.14-.47-4.09-.67-6.86-4.53-6.19-8.62,.67-4.09,4.53-6.86,8.62-6.19,54.29,8.91,76.38-27.76,77.29-29.33,1.34-2.3,3.82-3.73,6.49-3.73h.03c2.68,.01,5.16,1.44,6.49,3.76,.9,1.54,22.98,38.21,77.27,29.3,4.09-.67,7.95,2.1,8.62,6.19,.67,4.09-2.1,7.94-6.19,8.62-1.06,.17-2.1,.33-3.14,.47v50.11c0,22.4-8.96,43.59-24.81,59.18v27.67l83.37,40.3c-5.18-39.78-7.66-88.09-7.09-170.4Z"/>
    <path class="cls-1" d="M212.73,249.53v15.04l43.27,32.57,43.27-32.57v-15.04c-12.61,7.73-27.43,12.19-43.27,12.19s-30.66-4.46-43.27-12.19Z"/>
  </g>
</svg>