<?xml version="1.0" encoding="UTF-8"?>
<svg id="OBJECT" xmlns="http://www.w3.org/2000/svg" viewBox="0 0 32 32">
  <defs>
    <style>
      .cls-1 {
        fill: #FD4360;
      }

      .cls-1, .cls-2 {
        stroke-width: 0px;
      }

      .cls-2 {
        fill: #dadada;
      }
    </style>
  </defs>
  <g>
    <path class="cls-2" d="m21.39,4.92c-.26-.79-.93-1.36-1.75-1.48l-1.17-.17-.52-1.06c-.37-.75-1.11-1.21-1.94-1.21s-1.58.46-1.94,1.21l-.52,1.06-1.17.17c-.82.12-1.49.68-1.75,1.48-.26.79-.05,1.64.55,2.22l.85.83-.2,1.17c-.14.82.19,1.63.86,2.12.67.49,1.55.55,2.28.16l1.05-.55,1.05.55c.32.17.67.25,1.01.25.45,0,.89-.14,1.27-.42.67-.49,1-1.3.86-2.12l-.2-1.17.85-.83c.6-.58.81-1.43.55-2.22Zm-1.95.79l-1.22,1.19c-.24.23-.34.56-.29.88l.29,1.69s.02.1-.07.17-.15.02-.18.01l-1.51-.8c-.15-.08-.31-.11-.47-.11s-.32.04-.47.11l-1.51.8s-.09.05-.18-.01c-.08-.06-.07-.14-.07-.16l.29-1.69c.06-.32-.05-.65-.29-.88l-1.22-1.2s-.08-.07-.04-.17c.03-.1.11-.11.14-.11l1.69-.25c.33-.05.61-.25.75-.55l.76-1.53s.05-.09.15-.09.14.07.15.09l.76,1.53c.15.3.43.5.75.55l1.69.25s.1.02.14.11c.03.1-.02.15-.04.17Z"/>
    <path class="cls-2" d="m30.9,11.56c-.24-.74-.87-1.27-1.65-1.39l-.98-.14-.44-.89h0c-.35-.7-1.05-1.14-1.83-1.14s-1.48.44-1.83,1.14l-.44.89-.98.14c-.77.11-1.41.64-1.65,1.39s-.04,1.54.52,2.09l.71.69-.17.98c-.13.77.18,1.53.81,1.99.63.46,1.45.52,2.15.16l.88-.46.88.46c.3.16.63.24.95.24.42,0,.84-.13,1.2-.39.63-.46.94-1.22.81-1.99l-.17-.98.71-.69c.56-.55.76-1.35.52-2.09Zm-3,1.72c-.24.23-.34.56-.29.89l.2,1.54-1.35-.71c-.15-.08-.31-.11-.47-.11s-.32.04-.47.11l-1.4.67.26-1.5c.06-.32-.05-.66-.29-.89l-1.07-1.13,1.5-.22c.33-.05.61-.25.75-.55l.71-1.39s.03,0,.04.02l.67,1.36c.15.3.43.5.75.55l1.53.28-1.09,1.06Z"/>
    <path class="cls-2" d="m9.25,10.17l-.98-.14-.44-.89h0c-.35-.7-1.05-1.14-1.83-1.14s-1.48.44-1.83,1.14l-.44.89-.98.14c-.77.11-1.41.64-1.65,1.39s-.04,1.54.52,2.09l.71.69-.17.98c-.13.77.18,1.53.81,1.99.63.46,1.45.52,2.15.16l.88-.46.88.46c.3.16.63.24.95.24.42,0,.84-.13,1.2-.39.63-.46.94-1.22.81-1.99l-.17-.98.71-.69c.56-.55.76-1.35.52-2.09s-.87-1.27-1.65-1.39Zm-1.35,3.11c-.24.23-.34.56-.29.89l.2,1.54-1.35-.71c-.15-.08-.31-.11-.47-.11s-.32.04-.47.11l-1.4.67.26-1.5c.06-.32-.05-.66-.29-.89l-1.07-1.13,1.5-.22c.33-.05.61-.25.75-.55l.71-1.39s.03,0,.04.02l.67,1.36c.15.3.43.5.75.55l1.53.28-1.09,1.06Z"/>
  </g>
  <g>
    <path class="cls-1" d="m21.78,22.32c-.94,2.27-3.17,3.88-5.78,3.88s-4.84-1.6-5.78-3.88c-1.07,1.3-1.72,2.96-1.72,4.78v.95c0,1.63,1.32,2.95,2.95,2.95h9.1c1.63,0,2.95-1.32,2.95-2.95v-.95c0-1.81-.65-3.48-1.72-4.78Z"/>
    <path class="cls-1" d="m16,24.2c2.34,0,4.25-1.91,4.25-4.25v-1.95c0-1.98-1.62-3.6-3.6-3.6h-1.3c-1.98,0-3.6,1.62-3.6,3.6v1.95c0,2.34,1.91,4.25,4.25,4.25Z"/>
  </g>
</svg>