<?xml version="1.0" encoding="UTF-8"?>
<svg id="OBJECT" xmlns="http://www.w3.org/2000/svg" viewBox="0 0 32 32">
  <defs>
    <style>
      .cls-1 {
        fill: #FD4360;
      }

      .cls-2 {
        fill: #dadada;
      }
    </style>
  </defs>
  <g>
    <path class="cls-2" d="M23,1H9c-1.65,0-3,1.35-3,3v7c0,1.65,1.35,3,3,3h2l2.1,2.8c.56,.75,1.46,1.2,2.4,1.2h1c.94,0,1.84-.45,2.4-1.2l2.1-2.8h2c1.65,0,3-1.35,3-3V4c0-1.65-1.35-3-3-3Zm1,10c0,.55-.45,1-1,1h-7c-.55,0-1,.45-1,1s.45,1,1,1h2.5l-1.2,1.6c-.19,.25-.49,.4-.8,.4h-1c-.31,0-.61-.15-.8-.4l-2.4-3.2c-.19-.25-.48-.4-.8-.4h-2.5c-.55,0-1-.45-1-1V4c0-.55,.45-1,1-1h14c.55,0,1,.45,1,1v7Z"/>
    <path class="cls-2" d="M10.44,21.11c.03-.2,.06-.4,.06-.61v-1.5c0-1.65-1.35-3-3-3h-1c-1.65,0-3,1.35-3,3v1.5c0,.21,.03,.41,.06,.61-1.6,1.11-2.56,2.92-2.56,4.89v2c0,1.65,1.35,3,3,3h6c1.65,0,3-1.35,3-3v-2c0-1.97-.96-3.78-2.56-4.89Zm-4.94-2.11c0-.55,.45-1,1-1h1c.55,0,1,.45,1,1v1.5c0,.83-.67,1.5-1.5,1.5s-1.5-.67-1.5-1.5v-1.5Zm5.5,9c0,.55-.45,1-1,1H4c-.55,0-1-.45-1-1v-2c0-1.21,.56-2.33,1.49-3.08,.64,.66,1.53,1.08,2.51,1.08s1.88-.42,2.51-1.08c.93,.75,1.49,1.86,1.49,3.08v2Z"/>
    <path class="cls-2" d="M22,4.5H14c-.55,0-1,.45-1,1s.45,1,1,1h8c.55,0,1-.45,1-1s-.45-1-1-1Z"/>
    <path class="cls-2" d="M10,6.5h.5c.55,0,1-.45,1-1s-.45-1-1-1h-.5c-.55,0-1,.45-1,1s.45,1,1,1Z"/>
    <path class="cls-2" d="M22,8.5H10c-.55,0-1,.45-1,1s.45,1,1,1h12c.55,0,1-.45,1-1s-.45-1-1-1Z"/>
    <path class="cls-2" d="M7.5,26h-1c-.55,0-1,.45-1,1s.45,1,1,1h1c.55,0,1-.45,1-1s-.45-1-1-1Z"/>
  </g>
  <g>
    <path class="cls-1" d="M25,22.8c1.65,0,3-1.35,3-3v-1.2c0-1.43-1.17-2.6-2.6-2.6h-.8c-1.43,0-2.6,1.17-2.6,2.6v1.2c0,1.65,1.35,3,3,3Z"/>
    <path class="cls-1" d="M29.46,22.01c-.82,1.65-2.5,2.79-4.46,2.79s-3.65-1.15-4.46-2.79c-.95,1.06-1.54,2.46-1.54,3.99v2c0,1.65,1.35,3,3,3h6c1.65,0,3-1.35,3-3v-2c0-1.53-.58-2.93-1.54-3.99Zm-3.96,5.99h-1c-.55,0-1-.45-1-1s.45-1,1-1h1c.55,0,1,.45,1,1s-.45,1-1,1Z"/>
  </g>
</svg>