<?xml version="1.0" encoding="UTF-8"?>
<svg id="OBJECT" xmlns="http://www.w3.org/2000/svg" viewBox="0 0 32 32">
  <defs>
    <style>
      .cls-1 {
        fill: #FD4360;
      }

      .cls-2 {
        fill: #dadada;
      }
    </style>
  </defs>
  <path class="cls-2" d="M25.45,17.68l-5.45-3.02c-.3-.17-.68-.17-.98,0l-3.02,1.72-3.02-1.72c-.3-.17-.67-.17-.98,0l-5.45,3.02c-1.57,.87-2.55,2.53-2.55,4.33v7.99c0,.55,.45,1,1,1H27c.55,0,1-.45,1-1v-7.99c0-1.8-.98-3.46-2.55-4.33Zm-5.93-.99l1.32,.73-.32,2.11-2.66-1.89,1.66-.95Zm-5.49,10.49l.81-4.64h2.32l.81,4.64-.67,1.82h-2.6l-.67-1.82Zm3.19-6.64h-2.44l-.19-.77,1.41-1,1.41,1-.19,.77Zm-3.08-2.91l-2.66,1.89-.32-2.11,1.32-.73,1.66,.95Zm-8.14,4.38c0-1.07,.58-2.06,1.52-2.58l1.77-.98,.21,1.38c.11,.69,.55,1.27,1.2,1.54,.64,.27,1.37,.19,1.94-.21l.2-.14,.14,.56-.96,5.52c-.03,.17-.01,.35,.05,.52l.51,1.38h-3.07v-2c0-.55-.45-1-1-1s-1,.45-1,1v2h-1.5v-6.99Zm20,6.99h-1.5v-2c0-.55-.45-1-1-1s-1,.45-1,1v2h-3.07l.51-1.38c.06-.17,.08-.34,.05-.52l-.96-5.52,.14-.56,.2,.14c.35,.25,.75,.37,1.16,.37,.26,0,.53-.05,.78-.16,.64-.27,1.09-.85,1.2-1.54l.21-1.38,1.77,.98c.94,.52,1.52,1.51,1.52,2.58v6.99Z"/>
  <path class="cls-1" d="M16,14c3.58,0,6.5-2.92,6.5-6.5s-2.92-6.5-6.5-6.5-6.5,2.92-6.5,6.5,2.92,6.5,6.5,6.5Zm-2.71-5.43c.39-.39,1.02-.39,1.41,0,.69,.69,1.89,.69,2.59,0,.39-.39,1.02-.39,1.41,0,.39,.39,.39,1.02,0,1.41-.72,.72-1.68,1.12-2.71,1.12s-1.98-.4-2.71-1.12c-.39-.39-.39-1.02,0-1.41Z"/>
</svg>