<?xml version="1.0" encoding="UTF-8"?>
<svg id="OBJECT" xmlns="http://www.w3.org/2000/svg" viewBox="0 0 512 512">
  <defs>
    <style>
      .cls-1 {
        fill: #FD4360;
      }

      .cls-2 {
        fill: #dadada;
      }
    </style>
  </defs>
  <path class="cls-2" d="M489.5,147h-68.5c-12.41,0-22.5,10.09-22.5,22.5v75.02c-6.27-4.72-14.06-7.52-22.5-7.52h-72.5v-37.5c0-4.14-3.36-7.5-7.5-7.5s-7.5,3.36-7.5,7.5v37.5h-65v-37.5c0-4.14-3.36-7.5-7.5-7.5s-7.5,3.36-7.5,7.5v37.5h-72.5c-8.44,0-16.23,2.8-22.5,7.52v-75.02c0-12.41-10.09-22.5-22.5-22.5H22.5c-12.41,0-22.5,10.09-22.5,22.5v10c0,12.41,10.09,22.5,22.5,22.5H98.5v97.5c0,12.41,10.09,22.5,22.5,22.5h47.5v17.5c0,12.41,10.09,22.5,22.5,22.5h37.5v36.48l-72.38,16.08c-10.37,2.31-17.62,11.34-17.62,21.96v11.35c-14.32,3.4-25,16.28-25,31.62,0,17.92,14.58,32.5,32.5,32.5s32.5-14.58,32.5-32.5c0-15.34-10.68-28.22-25-31.62v-11.35c0-3.54,2.42-6.55,5.87-7.32l77.45-17.21h11.68v35.88c-14.32,3.4-25,16.28-25,31.62,0,17.92,14.58,32.5,32.5,32.5s32.5-14.58,32.5-32.5c0-15.34-10.68-28.22-25-31.62v-35.88h11.68l77.45,17.21c3.46,.77,5.87,3.78,5.87,7.32v11.35c-14.32,3.4-25,16.28-25,31.62,0,17.92,14.58,32.5,32.5,32.5s32.5-14.58,32.5-32.5c0-15.34-10.68-28.22-25-31.62v-11.35c0-10.63-7.25-19.66-17.62-21.96l-72.38-16.08v-36.48h37.5c12.41,0,22.5-10.09,22.5-22.5v-17.5h47.5c12.41,0,22.5-10.09,22.5-22.5v-97.5h76c12.41,0,22.5-10.09,22.5-22.5v-10c0-12.41-10.09-22.5-22.5-22.5ZM163.5,479.5c0,9.65-7.85,17.5-17.5,17.5s-17.5-7.85-17.5-17.5,7.85-17.5,17.5-17.5,17.5,7.85,17.5,17.5Zm110,0c0,9.65-7.85,17.5-17.5,17.5s-17.5-7.85-17.5-17.5,7.85-17.5,17.5-17.5,17.5,7.85,17.5,17.5Zm110,0c0,9.65-7.85,17.5-17.5,17.5s-17.5-7.85-17.5-17.5,7.85-17.5,17.5-17.5,17.5,7.85,17.5,17.5ZM15,179.5v-10c0-4.14,3.36-7.5,7.5-7.5H91c4.14,0,7.5,3.36,7.5,7.5v17.5H22.5c-4.14,0-7.5-3.36-7.5-7.5Zm253.5,217.5h-25v-35h25v35Zm60-57.5c0,4.14-3.36,7.5-7.5,7.5H191c-4.14,0-7.5-3.36-7.5-7.5v-17.5h145v17.5Zm70-40c0,4.14-3.36,7.5-7.5,7.5H121c-4.14,0-7.5-3.36-7.5-7.5v-25c0-12.41,10.09-22.5,22.5-22.5h240c12.41,0,22.5,10.09,22.5,22.5v25Zm98.5-120c0,4.14-3.36,7.5-7.5,7.5h-76v-17.5c0-4.14,3.36-7.5,7.5-7.5h68.5c4.14,0,7.5,3.36,7.5,7.5v10Z"/>
  <g>
    <path class="cls-1" d="M356,0H156c-4.14,0-7.5,3.36-7.5,7.5V169.5c0,4.14,3.36,7.5,7.5,7.5h200c4.14,0,7.5-3.36,7.5-7.5V7.5c0-4.14-3.36-7.5-7.5-7.5ZM218.5,23.5c15.16,0,27.5,12.34,27.5,27.5s-12.34,27.5-27.5,27.5-27.5-12.34-27.5-27.5,12.34-27.5,27.5-27.5Zm-12.5,122.5c-1.92,0-3.84-.73-5.3-2.2-2.93-2.93-2.93-7.68,0-10.61l100-100c2.93-2.93,7.68-2.93,10.61,0,2.93,2.93,2.93,7.68,0,10.61l-100,100c-1.46,1.46-3.38,2.2-5.3,2.2Zm87.5,7.5c-15.16,0-27.5-12.34-27.5-27.5s12.34-27.5,27.5-27.5,27.5,12.34,27.5,27.5-12.34,27.5-27.5,27.5Z"/>
    <circle class="cls-1" cx="293.5" cy="126" r="12.5"/>
    <circle class="cls-1" cx="218.5" cy="51" r="12.5"/>
  </g>
</svg>