<?xml version="1.0" encoding="UTF-8"?>
<svg id="OBJECT" xmlns="http://www.w3.org/2000/svg" viewBox="0 0 32 32">
  <defs>
    <style>
      .cls-1 {
        fill: #FD4360;
      }

      .cls-1, .cls-2 {
        stroke-width: 0px;
      }

      .cls-2 {
        fill: #dadada;
      }
    </style>
  </defs>
  <g>
    <path class="cls-1" d="m19.35,1.39c-1.08-.25-2.21-.39-3.37-.39-1.35,0-2.65.2-3.9.53l-.32,1.07,3.97,3.19,3.97-3.19-.36-1.21Z"/>
    <path class="cls-1" d="m25.85,6.23s.05-.05.08-.08c.06-.06.13-.11.2-.15.03-.02.06-.04.1-.05.08-.04.17-.06.26-.07.03,0,.06-.01.09-.02,0,0,.02,0,.03,0h.43c-1.49-1.62-3.31-2.91-5.37-3.75l.17.57s0,0,0,0c0,0,0,.01,0,.02.03.11.04.22.03.33,0,.03-.01.07-.02.1-.01.08-.04.16-.07.24-.01.03-.03.06-.05.09-.06.1-.13.2-.23.27l-4.72,3.8.19,3.31,4.01,2.91,2.65-1.21,2.04-6c.04-.12.11-.22.18-.31Z"/>
    <path class="cls-1" d="m28.57,7.82l-1.23.03-1.73,5.07,4.51,3.42.88-.79c-.09-2.85-.96-5.5-2.43-7.73Z"/>
  </g>
  <path class="cls-2" d="m29.93,17.59c-.54-.1-1.06.26-1.16.8-.26,1.43-.76,2.75-1.43,3.96h-5.76l-1.46-1.93,1.37-4.21c.17-.53-.12-1.09-.64-1.26-.53-.17-1.09.12-1.26.64l-1.31,4.02h-4.55l-1.41-4.33,3.42-2.48c.45-.32.55-.95.22-1.4-.32-.45-.95-.55-1.4-.22l-3.5,2.54-2.43-1.32-2.28-5.12c1.06-1.17,2.34-2.16,3.81-2.89.49-.25.69-.85.45-1.34-.25-.49-.85-.7-1.34-.45C4.17,5.16,1,10.29,1,16c0,8.27,6.73,15,15,15,7.24,0,13.44-5.15,14.73-12.25.1-.54-.26-1.06-.8-1.16Zm-19.62-1.99l1.57,4.82-1.34,1.71-5.56.75c-.82-1.3-1.42-2.75-1.73-4.3l4.74-4.24,2.31,1.26Zm-5.34-6.49l1.68,3.76-3.64,3.26s0-.08,0-.12c0-2.5.7-4.88,1.97-6.9Zm1.41,15.61l3.92-.53.84,3.87c-1.84-.74-3.46-1.89-4.77-3.34Zm6.96,4.01l-1.18-5.41,1.33-1.7h5.02l1.49,1.96-1.24,5.11c-.89.19-1.81.31-2.76.31s-1.8-.1-2.66-.28Zm7.65-.73l.88-3.64h4.09c-1.33,1.59-3.04,2.84-4.97,3.64Z"/>
</svg>