<?xml version="1.0" encoding="UTF-8"?>
<svg id="OBJECT" xmlns="http://www.w3.org/2000/svg" viewBox="0 0 32 32">
  <defs>
    <style>
      .cls-1 {
        fill: #FD4360;
      }

      .cls-1, .cls-2 {
        stroke-width: 0px;
      }

      .cls-2 {
        fill: #dadada;
      }
    </style>
  </defs>
  <g>
    <path class="cls-2" d="m22.51,22.36c-.1-.3-.33-.53-.63-.63-.63-.21-1.21-.55-1.72-1-.51-.46-1.2-.72-1.94-.72h-4.44c-.74,0-1.43.26-1.93.71-.52.46-1.1.8-1.73,1.01-.3.1-.53.33-.63.63l-.77,2.33c-.17.52.11,1.09.64,1.26.52.18,1.09-.11,1.26-.64l.62-1.88c.7-.29,1.35-.71,1.94-1.24.14-.13.36-.2.6-.2h4.44c.24,0,.46.07.61.21.59.52,1.24.93,1.93,1.23l.62,1.88c.14.42.53.69.95.69.1,0,.21-.02.31-.05.52-.17.81-.74.64-1.26l-.77-2.33Z"/>
    <path class="cls-2" d="m30.33,15.42c-.58-2.62-2.74-4.74-5.38-5.27-2.22-.45-4.44.14-6.1,1.62-.16.15-.39.23-.62.23h-4.46c-.24,0-.46-.08-.62-.23-1.66-1.48-3.88-2.08-6.1-1.62-2.63.54-4.79,2.66-5.38,5.27-.41,1.83-.1,3.68.87,5.25l-.7,4.17c-.09.54.28,1.06.82,1.15.55.09,1.06-.28,1.15-.82l.76-4.55c.04-.26-.02-.52-.17-.74-.82-1.18-1.1-2.61-.78-4.02.41-1.86,1.95-3.37,3.82-3.75,1.59-.32,3.18.1,4.37,1.16.53.47,1.23.73,1.95.73h4.46c.73,0,1.42-.26,1.96-.73,1.18-1.06,2.77-1.48,4.36-1.16,1.87.38,3.41,1.89,3.82,3.75.32,1.42.04,2.84-.78,4.02-.15.21-.21.48-.17.74l.76,4.55c.08.49.5.84.99.84.05,0,.11,0,.17-.01.54-.09.91-.61.82-1.15l-.7-4.17c.96-1.57,1.27-3.42.87-5.25Z"/>
    <path class="cls-2" d="m17,18c.55,0,1-.45,1-1s-.45-1-1-1h-2c-.55,0-1,.45-1,1s.45,1,1,1h2Z"/>
    <path class="cls-2" d="m18,7.66c.25,0,.5-.09.7-.29.39-.39.4-1.02.02-1.41-1.45-1.48-3.98-1.48-5.43,0-.39.4-.38,1.03.02,1.41.39.39,1.03.38,1.41-.02.69-.7,1.88-.7,2.57,0,.2.2.46.3.71.3Z"/>
    <path class="cls-2" d="m12.71,4.39c.88-.9,2.05-1.39,3.29-1.39s2.41.49,3.29,1.39c.2.2.46.3.71.3s.5-.09.7-.29c.39-.39.4-1.02.02-1.41-1.26-1.29-2.93-2-4.71-2s-3.46.71-4.71,2c-.39.4-.38,1.03.02,1.41.4.39,1.03.38,1.41-.02Z"/>
    <path class="cls-2" d="m15.78,8.2c-.55,0-1,.45-1,1s.45,1,1,1h.45c.55,0,1-.45,1-1s-.45-1-1-1h-.45Z"/>
    <path class="cls-2" d="m26,16h-1.5v-1.5c0-.55-.45-1-1-1s-1,.45-1,1v1.5h-1.5c-.55,0-1,.45-1,1s.45,1,1,1h1.5v1.5c0,.55.45,1,1,1s1-.45,1-1v-1.5h1.5c.55,0,1-.45,1-1s-.45-1-1-1Z"/>
    <path class="cls-2" d="m9.56,19.47c.2.2.45.29.71.29s.51-.1.71-.29c.39-.39.39-1.02,0-1.41l-1.06-1.06,1.06-1.06c.39-.39.39-1.02,0-1.41s-1.02-.39-1.41,0l-1.06,1.06-1.06-1.06c-.39-.39-1.02-.39-1.41,0s-.39,1.02,0,1.41l1.06,1.06-1.06,1.06c-.39.39-.39,1.02,0,1.41.2.2.45.29.71.29s.51-.1.71-.29l1.06-1.06,1.06,1.06Z"/>
  </g>
  <g>
    <path class="cls-1" d="m30.51,27h-8.57l.65,1.95c.41,1.23,1.55,2.05,2.85,2.05h4.56c.29,0,.57-.13.76-.35.19-.22.27-.52.22-.81l-.47-2.84Z"/>
    <path class="cls-1" d="m1.01,29.84c-.05.29.03.59.22.81.19.22.47.35.76.35h4.56c1.29,0,2.44-.82,2.85-2.05l.65-1.95H1.49l-.47,2.84Z"/>
  </g>
</svg>