<?xml version="1.0" encoding="UTF-8"?>
<svg id="OBJECT" xmlns="http://www.w3.org/2000/svg" viewBox="0 0 32 32">
  <defs>
    <style>
      .cls-1 {
        fill: #FD4360;
      }

      .cls-1, .cls-2 {
        stroke-width: 0px;
      }

      .cls-2 {
        fill: #dadada;
      }
    </style>
  </defs>
  <g>
    <path class="cls-2" d="m28,12H4c-1.65,0-3,1.35-3,3v7c0,.55.45,1,1,1s1-.45,1-1v-7c0-.55.45-1,1-1h24c.55,0,1,.45,1,1v7c0,.55.45,1,1,1s1-.45,1-1v-7c0-1.65-1.35-3-3-3Z"/>
    <path class="cls-2" d="m26,17.5h-1.5v-1.5c0-.55-.45-1-1-1s-1,.45-1,1v1.5h-1.5c-.55,0-1,.45-1,1s.45,1,1,1h1.5v1.5c0,.55.45,1,1,1s1-.45,1-1v-1.5h1.5c.55,0,1-.45,1-1s-.45-1-1-1Z"/>
    <path class="cls-2" d="m10.24,16.03c-.39-.39-1.02-.39-1.41,0l-1.06,1.06-1.06-1.06c-.39-.39-1.02-.39-1.41,0s-.39,1.02,0,1.41l1.06,1.06-1.06,1.06c-.39.39-.39,1.02,0,1.41.2.2.45.29.71.29s.51-.1.71-.29l1.06-1.06,1.06,1.06c.2.2.45.29.71.29s.51-.1.71-.29c.39-.39.39-1.02,0-1.41l-1.06-1.06,1.06-1.06c.39-.39.39-1.02,0-1.41Z"/>
    <path class="cls-2" d="m18,7.66c.25,0,.5-.09.7-.29.39-.39.4-1.02.02-1.41-1.45-1.48-3.98-1.48-5.43,0-.39.4-.38,1.03.02,1.41.4.39,1.03.38,1.41-.02.69-.71,1.88-.71,2.57,0,.2.2.46.3.72.3Z"/>
    <path class="cls-2" d="m12.71,4.39c.88-.9,2.05-1.39,3.29-1.39s2.41.5,3.29,1.39c.2.2.46.3.71.3s.5-.09.7-.29c.4-.39.4-1.02.02-1.41-1.26-1.29-2.93-2-4.71-2s-3.46.71-4.71,2c-.39.39-.38,1.03.02,1.41.4.39,1.03.38,1.41-.02Z"/>
    <path class="cls-2" d="m15.78,8.2c-.55,0-1,.45-1,1s.45,1,1,1h.44c.55,0,1-.45,1-1s-.45-1-1-1h-.44Z"/>
    <path class="cls-2" d="m17,19.5c.55,0,1-.45,1-1s-.45-1-1-1h-2c-.55,0-1,.45-1,1s.45,1,1,1h2Z"/>
    <path class="cls-2" d="m19,22h-6c-.55,0-1,.45-1,1s.45,1,1,1h6c.55,0,1-.45,1-1s-.45-1-1-1Z"/>
  </g>
  <g>
    <path class="cls-1" d="m1,27.65c0,1.65,1.35,3,3,3h2.56c1.29,0,2.44-.82,2.85-2.05l1.32-3.95H1v3Z"/>
    <path class="cls-1" d="m21.28,24.65l1.32,3.95c.41,1.23,1.55,2.05,2.85,2.05h2.56c1.65,0,3-1.35,3-3v-3h-9.72Z"/>
  </g>
</svg>