<?xml version="1.0" encoding="UTF-8"?>
<svg id="OBJECT" xmlns="http://www.w3.org/2000/svg" viewBox="0 0 512 512">
  <defs>
    <style>
      .cls-1 {
        fill: #FD4360;
      }

      .cls-2 {
        fill: #dadada;
      }
    </style>
  </defs>
  <g>
    <path class="cls-2" d="M511.91,346.35L464.21,40.19c-3.63-23.29-23.37-40.19-46.93-40.19h-48.81c-15.5,0-30.05,7.58-38.93,20.28l-12.44,17.79c-.47,.67-1.23,1.07-2.05,1.07h-118.11c-.82,0-1.58-.4-2.05-1.07l-12.44-17.79C173.58,7.58,159.03,0,143.53,0h-48.81c-23.57,0-43.31,16.9-46.93,40.19L.09,346.35c-.34,2.17,.29,4.37,1.71,6.03s3.51,2.62,5.7,2.62H99.69c11.28,0,21.3-6.76,25.51-17.23l29.87-74.21c1.58,.24,3.2,.36,4.85,.36,15.34,0,28.22-10.68,31.62-25h128.92c3.4,14.32,16.28,25,31.62,25,1.65,0,3.27-.13,4.85-.36l29.87,74.21c4.21,10.47,14.23,17.23,25.51,17.23h92.19c2.19,0,4.27-.96,5.7-2.62s2.05-3.87,1.71-6.03ZM213.5,84.14h85v12.5c0,6.89-5.61,12.5-12.5,12.5h-60c-6.89,0-12.5-5.61-12.5-12.5v-12.5Zm85-15h-85v-15h85v15ZM34.18,225h13.32c6.89,0,12.5,5.61,12.5,12.5v102.5H16.26l17.92-115Zm125.74,23.92c-9.65,0-17.5-7.85-17.5-17.5s7.85-17.5,17.5-17.5,17.5,7.85,17.5,17.5-7.85,17.5-17.5,17.5Zm174.66-17.5c0-9.65,7.85-17.5,17.5-17.5s17.5,7.85,17.5,17.5-7.85,17.5-17.5,17.5-17.5-7.85-17.5-17.5Zm66.13,100.75l-29.88-74.23c8.31-5.89,13.74-15.58,13.74-26.52,0-17.92-14.58-32.5-32.5-32.5-15.34,0-28.22,10.68-31.62,25H191.54c-3.4-14.32-16.28-25-31.62-25-17.92,0-32.5,14.58-32.5,32.5,0,10.94,5.44,20.62,13.74,26.52l-29.88,74.23c-1.92,4.76-6.47,7.83-11.6,7.83h-24.69v-102.5c0-15.16-12.34-27.5-27.5-27.5h-10.99L62.61,42.5c2.48-15.93,15.99-27.5,32.11-27.5h48.81c10.6,0,20.56,5.19,26.64,13.88l12.44,17.79c3.27,4.68,8.63,7.47,14.34,7.47h1.55v42.5c0,15.16,12.34,27.5,27.5,27.5h60c15.16,0,27.5-12.34,27.5-27.5V54.14h1.55c5.71,0,11.07-2.79,14.34-7.47l12.44-17.79c6.08-8.69,16.03-13.88,26.64-13.88h48.81c16.12,0,29.63,11.56,32.11,27.5l26.1,167.5h-10.99c-15.16,0-27.5,12.34-27.5,27.5v102.5h-24.69c-5.13,0-9.68-3.07-11.6-7.83Zm51.29,7.83v-102.5c0-6.89,5.61-12.5,12.5-12.5h13.32l17.92,115h-43.74Z"/>
    <path class="cls-2" d="M438.44,128.92v-5c0-12.41-10.09-22.5-22.5-22.5h-10v-10c0-12.41-10.09-22.5-22.5-22.5h-5c-12.41,0-22.5,10.09-22.5,22.5v10h-10c-12.41,0-22.5,10.09-22.5,22.5v5c0,12.41,10.09,22.5,22.5,22.5h10v10c0,12.41,10.09,22.5,22.5,22.5h5c12.41,0,22.5-10.09,22.5-22.5v-10h10c12.41,0,22.5-10.09,22.5-22.5Zm-15,0c0,4.14-3.36,7.5-7.5,7.5h-17.5c-4.14,0-7.5,3.36-7.5,7.5v17.5c0,4.14-3.36,7.5-7.5,7.5h-5c-4.14,0-7.5-3.36-7.5-7.5v-17.5c0-4.14-3.36-7.5-7.5-7.5h-17.5c-4.14,0-7.5-3.36-7.5-7.5v-5c0-4.14,3.36-7.5,7.5-7.5h17.5c4.14,0,7.5-3.36,7.5-7.5v-17.5c0-4.14,3.36-7.5,7.5-7.5h5c4.14,0,7.5,3.36,7.5,7.5v17.5c0,4.14,3.36,7.5,7.5,7.5h17.5c4.14,0,7.5,3.36,7.5,7.5v5Z"/>
    <path class="cls-2" d="M171.21,87.53l-3.54-3.54c-8.77-8.77-23.05-8.77-31.82,0l-7.07,7.07-7.07-7.07c-8.77-8.77-23.05-8.77-31.82,0l-3.53,3.54c-8.77,8.77-8.77,23.05,0,31.82l7.07,7.07-7.07,7.07c-8.77,8.77-8.77,23.05,0,31.82l3.54,3.54c8.77,8.77,23.05,8.77,31.82,0l7.07-7.07,7.07,7.07c4.39,4.39,10.15,6.58,15.91,6.58,5.76,0,11.52-2.19,15.91-6.58l3.54-3.54c8.77-8.77,8.77-23.05,0-31.82l-7.07-7.07,7.07-7.07c8.77-8.77,8.77-23.05,0-31.82Zm-10.61,67.17l-3.54,3.54c-2.92,2.92-7.68,2.92-10.61,0l-12.37-12.37c-1.46-1.46-3.38-2.2-5.3-2.2s-3.84,.73-5.3,2.2l-12.37,12.37c-2.92,2.92-7.68,2.92-10.61,0l-3.54-3.54c-2.92-2.92-2.92-7.68,0-10.61l12.37-12.37c2.93-2.93,2.93-7.68,0-10.61l-12.37-12.37c-2.92-2.92-2.92-7.68,0-10.61l3.53-3.54c2.93-2.92,7.68-2.92,10.61,0l12.37,12.37c1.41,1.41,3.31,2.2,5.3,2.2s3.9-.79,5.3-2.2l12.37-12.37c2.93-2.92,7.68-2.92,10.61,0l3.54,3.54c2.92,2.92,2.92,7.68,0,10.61l-12.37,12.37c-1.41,1.41-2.2,3.31-2.2,5.3s.79,3.9,2.2,5.3l12.37,12.37c2.92,2.92,2.92,7.68,0,10.61Z"/>
    <path class="cls-2" d="M221,173.92h-10c-4.14,0-7.5,3.36-7.5,7.5s3.36,7.5,7.5,7.5h10c4.14,0,7.5-3.36,7.5-7.5s-3.36-7.5-7.5-7.5Z"/>
    <path class="cls-2" d="M261,173.92h-10c-4.14,0-7.5,3.36-7.5,7.5s3.36,7.5,7.5,7.5h10c4.14,0,7.5-3.36,7.5-7.5s-3.36-7.5-7.5-7.5Z"/>
    <path class="cls-2" d="M301,173.92h-10c-4.14,0-7.5,3.36-7.5,7.5s3.36,7.5,7.5,7.5h10c4.14,0,7.5-3.36,7.5-7.5s-3.36-7.5-7.5-7.5Z"/>
  </g>
  <g>
    <path class="cls-1" d="M319.86,293.71l-41.36-17.73v38.52c0,12.41-10.09,22.5-22.5,22.5s-22.5-10.09-22.5-22.5v-38.52l-41.36,17.73c-8.28,3.55-13.64,11.67-13.64,20.68v175.11c0,12.41,10.09,22.5,22.5,22.5h110c12.41,0,22.5-10.09,22.5-22.5v-175.11c0-9.01-5.35-17.13-13.64-20.68Zm-78.86,203.29h-10c-4.14,0-7.5-3.36-7.5-7.5s3.36-7.5,7.5-7.5h10c4.14,0,7.5,3.36,7.5,7.5s-3.36,7.5-7.5,7.5Zm40,0h-10c-4.14,0-7.5-3.36-7.5-7.5s3.36-7.5,7.5-7.5h10c4.14,0,7.5,3.36,7.5,7.5s-3.36,7.5-7.5,7.5Zm-7.08-48.52v11.02c0,4.14-3.36,7.5-7.5,7.5s-7.5-3.36-7.5-7.5v-9.17h-5.83v9.17c0,4.14-3.36,7.5-7.5,7.5s-7.5-3.36-7.5-7.5v-9.17h-2.08c-4.14,0-7.5-3.36-7.5-7.5s3.36-7.5,7.5-7.5h28.85c4.77,0,8.65-4.11,8.65-9.17s-3.88-9.17-8.65-9.17h-17.69c-13.04,0-23.65-10.84-23.65-24.17,0-10.04,6.03-18.67,14.58-22.32v-11.02c0-4.14,3.36-7.5,7.5-7.5s7.5,3.36,7.5,7.5v9.17h5.83v-9.17c0-4.14,3.36-7.5,7.5-7.5s7.5,3.36,7.5,7.5v9.17h2.08c4.14,0,7.5,3.36,7.5,7.5s-3.36,7.5-7.5,7.5h-28.85c-4.77,0-8.65,4.11-8.65,9.17s3.88,9.17,8.65,9.17h17.69c13.04,0,23.65,10.84,23.65,24.17,0,10.04-6.03,18.67-14.58,22.32Z"/>
    <path class="cls-1" d="M256,322c4.14,0,7.5-3.36,7.5-7.5v-60.58h-15v60.58c0,4.14,3.36,7.5,7.5,7.5Z"/>
  </g>
</svg>