<?xml version="1.0" encoding="UTF-8" standalone="no"?>
<svg
   id="OBJECT"
   viewBox="0 0 32 32"
   version="1.1"
   sodipodi:docname="Gear Brain.svg"
   xml:space="preserve"
   inkscape:version="1.2.2 (732a01da63, 2022-12-09)"
   xmlns:inkscape="http://www.inkscape.org/namespaces/inkscape"
   xmlns:sodipodi="http://sodipodi.sourceforge.net/DTD/sodipodi-0.dtd"
   xmlns="http://www.w3.org/2000/svg"
   xmlns:svg="http://www.w3.org/2000/svg"><sodipodi:namedview
     id="namedview17"
     pagecolor="#505050"
     bordercolor="#ffffff"
     borderopacity="1"
     inkscape:showpageshadow="0"
     inkscape:pageopacity="0"
     inkscape:pagecheckerboard="1"
     inkscape:deskcolor="#505050"
     showgrid="false"
     inkscape:zoom="9.1592425"
     inkscape:cx="-21.23538"
     inkscape:cy="31.006931"
     inkscape:window-width="1920"
     inkscape:window-height="1009"
     inkscape:window-x="-8"
     inkscape:window-y="-8"
     inkscape:window-maximized="1"
     inkscape:current-layer="OBJECT" /><defs
     id="defs4"><style
       id="style2">
      .cls-1 {
        fill: #FD4360;
      }

      .cls-1, .cls-2 {
        stroke-width: 0px;
      }

      .cls-2 {
        fill: #dadada;
      }
    </style><clipPath
       clipPathUnits="userSpaceOnUse"
       id="clipPath437"><rect
         style="fill:#fe4461;fill-opacity:0.976471;stroke-width:2.451;stroke-opacity:0.976471"
         id="rect439"
         width="22.002413"
         height="11.966225"
         x="3.7056694"
         y="-2.933655" /></clipPath><clipPath
       clipPathUnits="userSpaceOnUse"
       id="clipPath1103"><rect
         style="fill:none;fill-opacity:0.976471;stroke:#fe4461;stroke-width:0.760397;stroke-dasharray:none;stroke-opacity:0.976471"
         id="rect1105"
         width="22.345072"
         height="8.8180914"
         x="2.4066439"
         y="1.3694402" /></clipPath></defs><path
     style="fill:#fe4461;fill-opacity:0.976471;stroke-width:0.0899474;stroke-opacity:0.976471"
     d="m 14.984492,14.140426 c -0.03182,-0.02523 -0.15255,-0.334872 -0.268295,-0.688093 -0.115747,-0.353222 -0.231805,-0.664964 -0.257905,-0.69276 -0.04169,-0.04439 -0.721193,-0.221861 -0.857369,-0.223924 -0.02816,-3.96e-4 -0.295965,0.240501 -0.595121,0.535393 l -0.543918,0.536169 -0.230592,-0.127066 c -0.708919,-0.390645 -0.875034,-0.492059 -0.891868,-0.544488 -0.01023,-0.03187 0.05573,-0.345642 0.146597,-0.697268 0.09086,-0.351627 0.165392,-0.678497 0.165625,-0.726377 6.06e-4,-0.121319 -0.566319,-0.701959 -0.685355,-0.701959 -0.04707,0 -0.369851,0.06601 -0.717289,0.14667 -0.347437,0.08067 -0.658728,0.138093 -0.691758,0.12761 -0.03303,-0.01048 -0.190362,-0.275424 -0.349629,-0.588756 L 8.918041,9.9258799 9.455965,9.4046359 C 9.751823,9.1179513 10.001976,8.857544 10.01186,8.825953 10.04603,8.7167271 9.902941,8.0535159 9.830609,7.9858774 9.792927,7.9506401 9.466745,7.8161427 9.105754,7.6869864 L 8.4494047,7.4521573 8.4714434,7.0668247 c 0.012121,-0.2119331 0.041332,-0.514678 0.064912,-0.6727685 0.03505,-0.2349927 0.057042,-0.2934391 0.1205336,-0.3203347 0.042713,-0.01809 0.3584019,-0.083308 0.701532,-0.1449192 0.343128,-0.061613 0.654632,-0.1214631 0.69223,-0.1330062 0.07511,-0.023058 0.310841,-0.4976605 0.34173,-0.6880097 0.01681,-0.103621 -0.02703,-0.1762877 -0.406636,-0.674002 C 9.751729,4.1269621 9.560261,3.8486832 9.560261,3.8153857 c 0,-0.079641 0.807892,-1.0789631 0.872277,-1.0789631 0.02736,0 0.328428,0.1155994 0.669053,0.2568881 0.340624,0.1412895 0.669094,0.2568889 0.729932,0.2568889 0.115576,0 0.565841,-0.284645 0.602858,-0.3811103 0.01068,-0.027816 -0.0058,-0.3681461 -0.03658,-0.7562914 -0.04703,-0.5929126 -0.04806,-0.7131454 -0.0064,-0.752179 0.06605,-0.061823 1.271462,-0.4597631 1.327193,-0.4381418 0.02397,0.0093 0.225237,0.2804936 0.447263,0.6026545 0.222025,0.3221608 0.436592,0.5967672 0.476817,0.6102345 0.10877,0.036421 0.578174,0.015325 0.630795,-0.028346 0.02511,-0.020831 0.194889,-0.3153462 0.377298,-0.6544692 0.182408,-0.339123 0.35449,-0.6253512 0.382401,-0.6360625 0.06934,-0.026609 1.332331,0.2790747 1.389622,0.3363313 0.03198,0.031959 0.05243,0.2619412 0.06738,0.7578122 0.01574,0.5218158 0.03485,0.7280541 0.0716,0.7723254 0.07422,0.089429 0.408899,0.2729135 0.498523,0.2733099 0.04279,2.032e-4 0.360574,-0.1571849 0.70618,-0.3497215 C 19.254306,2.3347746 19.409269,2.2642096 19.459331,2.2910422 19.494801,2.3100512 19.7291,2.5435819 19.98,2.81 c 0.432559,0.4593091 0.454237,0.4895579 0.418562,0.5840694 -0.02069,0.054822 -0.18056,0.3394174 -0.355263,0.6324368 -0.174675,0.2930194 -0.317613,0.5703233 -0.317613,0.6162315 0,0.1413892 0.216404,0.5057032 0.324627,0.5465045 0.05357,0.0202 0.287317,0.046724 0.519434,0.05895 0.573338,0.030191 0.902814,0.06208 0.95136,0.092086 0.06132,0.037901 0.336019,1.3223473 0.297864,1.3927806 -0.01744,0.032192 -0.312682,0.197906 -0.656096,0.3682513 -0.445205,0.2208393 -0.635699,0.3345488 -0.663806,0.3962347 -0.02168,0.04758 -0.03942,0.2095922 -0.03942,0.3600232 0,0.2116629 0.01454,0.2880332 0.06428,0.337733 0.03535,0.035323 0.307837,0.2437222 0.605523,0.4631124 0.317918,0.2342996 0.540855,0.4235807 0.540299,0.4587282 -0.0018,0.1123081 -0.43274,1.2335384 -0.487373,1.2679994 -0.03496,0.02205 -0.295659,0.008 -0.728054,-0.03929 -0.370473,-0.04051 -0.702825,-0.06622 -0.738559,-0.05714 -0.08729,0.02219 -0.46718,0.546978 -0.467065,0.645212 0,0.04288 0.107393,0.358309 0.23854,0.700943 0.131146,0.342633 0.237892,0.656404 0.237213,0.697267 -0.0014,0.08634 -0.955442,0.826614 -1.065268,0.826614 -0.03658,0 -0.29463,-0.183745 -0.573433,-0.408322 -0.2788,-0.224581 -0.543373,-0.425085 -0.587937,-0.445569 -0.06426,-0.02954 -0.157569,-0.0085 -0.451023,0.101544 -0.203498,0.07633 -0.38413,0.165365 -0.401403,0.197851 -0.01727,0.03249 -0.09505,0.362771 -0.172848,0.733967 -0.112741,0.537941 -0.156361,0.684677 -0.214947,0.723071 -0.04097,0.02685 -0.282893,0.06517 -0.54663,0.08659 -0.601109,0.04881 -0.656237,0.04824 -0.726477,-0.0075 z m 1.096173,-2.819893 c 1.410806,-0.34569 2.520457,-1.4332111 2.899513,-2.8416845 0.08948,-0.3325031 0.09844,-0.4250927 0.09755,-1.0083421 -0.0011,-0.7124095 -0.04189,-0.9323845 -0.28236,-1.5222149 -0.461717,-1.1325012 -1.532031,-2.0406284 -2.724821,-2.3119222 -1.357043,-0.3086531 -2.718796,0.076541 -3.687303,1.0430148 -0.746724,0.7451557 -1.112392,1.5680078 -1.160381,2.6111745 -0.03404,0.7398845 0.08609,1.3287197 0.399841,1.9598162 0.506915,1.0196582 1.381855,1.7298102 2.531925,2.0550582 0.523389,0.148019 1.356912,0.154554 1.926036,0.0151 z"
     id="path381"
     clip-path="url(#clipPath437)"
     transform="matrix(1.1990696,0,0,1.1990696,-2.7464849,-0.26294961)" /><g
     id="g12"><path
       class="cls-2"
       d="m30,29h-1.24l-1.97-7.16v-9.84c0-.55-.45-1-1-1H5c-.55,0-1,.45-1,1v1.69l-2.77,3.37c-.34.42-.29,1.03.11,1.39l2.63,2.31-.09,1.53c-.07,1.75.82,3.4,2.33,4.3,1.35.81,3.01.9,4.44.24l2.85-1.31,1.12,3.47h-2.09c-.55,0-1,.45-1,1s.45,1,1,1h17.46c.55,0,1-.45,1-1s-.45-1-1-1Zm-20.18-3.98c-.83.38-1.8.33-2.58-.14-.88-.52-1.39-1.48-1.35-2.48l.12-2c.02-.31-.11-.61-.34-.81l-2.27-2,2.39-2.9c.15-.18.23-.4.23-.63v-1.05h18.79v8.97c0,.09.01.18.04.26l.76,2.76h-10.16l-1-3.1c-.17-.53-.73-.81-1.26-.64-.53.17-.81.73-.64,1.26l.35,1.09-3.06,1.41Zm6.26,1.98h10.06l.55,2h-9.96l-.65-2Z"
       id="path6" /><path
       class="cls-2"
       d="m14.4,15c0-.55-.45-1-1-1h-1c-.55,0-1,.45-1,1s.45,1,1,1h1c.55,0,1-.45,1-1Z"
       id="path8" /><path
       class="cls-2"
       d="m17.4,16h1c.55,0,1-.45,1-1s-.45-1-1-1h-1c-.55,0-1,.45-1,1s.45,1,1,1Z"
       id="path10" /></g><ellipse
     style="fill:none;fill-opacity:0.976471;stroke:#fe4461;stroke-width:0.993471;stroke-dasharray:none;stroke-opacity:0.976471"
     id="path493"
     cx="15.328811"
     cy="8.6950741"
     rx="3.5744538"
     ry="3.7310944"
     clip-path="url(#clipPath1103)"
     transform="matrix(1,0,0,1.0664649,0,-0.29691511)" /></svg>
