<?xml version="1.0" encoding="UTF-8"?>
<svg id="OBJECT" xmlns="http://www.w3.org/2000/svg" viewBox="0 0 32 32">
  <defs>
    <style>
      .cls-1 {
        fill: #FD4360;
      }

      .cls-1, .cls-2 {
        stroke-width: 0px;
      }

      .cls-2 {
        fill: #dadada;
      }
    </style>
  </defs>
  <g>
    <path class="cls-1" d="m26.91,16.52c-1,1.35-2.6,2.22-4.41,2.22s-3.4-.88-4.41-2.22c-.67.87-1.09,1.95-1.09,3.14,0,1.54,1.26,2.8,2.8,2.8h5.4c1.54,0,2.8-1.26,2.8-2.8,0-1.19-.42-2.27-1.09-3.14Z"/>
    <path class="cls-1" d="m19,13.24c0,1.93,1.57,3.5,3.5,3.5s3.5-1.57,3.5-3.5-1.57-3.5-3.5-3.5-3.5,1.57-3.5,3.5Z"/>
  </g>
  <g>
    <path class="cls-2" d="m9.25,11h8c.55,0,1-.45,1-1s-.45-1-1-1h-8c-.55,0-1,.45-1,1s.45,1,1,1Z"/>
    <path class="cls-2" d="m9.25,15h7c.55,0,1-.45,1-1s-.45-1-1-1h-7c-.55,0-1,.45-1,1s.45,1,1,1Z"/>
    <path class="cls-2" d="m9.25,19h5c.55,0,1-.45,1-1s-.45-1-1-1h-5c-.55,0-1,.45-1,1s.45,1,1,1Z"/>
    <path class="cls-2" d="m9.25,23h6c.55,0,1-.45,1-1s-.45-1-1-1h-6c-.55,0-1,.45-1,1s.45,1,1,1Z"/>
    <path class="cls-2" d="m9.25,27h9c.55,0,1-.45,1-1s-.45-1-1-1h-9c-.55,0-1,.45-1,1s.45,1,1,1Z"/>
    <path class="cls-2" d="m22.5,8.54c.55,0,1-.45,1-1v-2.04c0-1.38-1.12-2.5-2.5-2.5h-2.3c-.23-1.14-1.24-2-2.45-2h-5c-1.21,0-2.22.86-2.45,2h-2.3c-1.38,0-2.5,1.12-2.5,2.5v23c0,1.38,1.12,2.5,2.5,2.5h14.5c1.38,0,2.5-1.12,2.5-2.5v-3.56c0-.55-.45-1-1-1s-1,.45-1,1v3.56c0,.28-.22.5-.5.5H6.5c-.28,0-.5-.22-.5-.5V5.5c0-.28.22-.5.5-.5h2.25v1c0,.55.45,1,1,1h8c.55,0,1-.45,1-1v-1h2.25c.28,0,.5.22.5.5v2.04c0,.55.45,1,1,1Zm-5.75-3.54h-6v-1.5c0-.28.22-.5.5-.5h5c.28,0,.5.22.5.5v1.5Z"/>
  </g>
</svg>