<?xml version="1.0" encoding="UTF-8"?>
<svg id="OBJECT" xmlns="http://www.w3.org/2000/svg" viewBox="0 0 512 512">
  <defs>
    <style>
      .cls-1 {
        fill: #FD4360;
      }

      .cls-2 {
        fill: #dadada;
      }
    </style>
  </defs>
  <g>
    <path class="cls-2" d="M108.08,416.33c1.24-3.72,1.92-7.7,1.92-11.83v-20c0-15.16-12.34-27.5-27.5-27.5h-20c-15.16,0-27.5,12.34-27.5,27.5v20c0,4.13,.68,8.11,1.92,11.83C14.27,429.08,0,453.12,0,479.5v25c0,4.14,3.36,7.5,7.5,7.5H137.5c4.14,0,7.5-3.36,7.5-7.5v-25c0-26.38-14.27-50.42-36.92-63.17Zm-58.08-31.83c0-6.89,5.61-12.5,12.5-12.5h20c6.89,0,12.5,5.61,12.5,12.5v20c0,12.41-10.09,22.5-22.5,22.5s-22.5-10.09-22.5-22.5v-20Zm80,112.5h-15v-12.5c0-4.14-3.36-7.5-7.5-7.5s-7.5,3.36-7.5,7.5v12.5H45v-12.5c0-4.14-3.36-7.5-7.5-7.5s-7.5,3.36-7.5,7.5v12.5H15v-17.5c0-20.97,11.38-40.08,29.43-50.18,6.88,7.77,16.91,12.68,28.07,12.68s21.2-4.91,28.07-12.68c18.05,10.1,29.43,29.2,29.43,50.18v17.5Z"/>
    <path class="cls-2" d="M291.58,416.33c1.24-3.72,1.92-7.7,1.92-11.83v-20c0-15.16-12.34-27.5-27.5-27.5h-20c-15.16,0-27.5,12.34-27.5,27.5v20c0,4.13,.68,8.11,1.92,11.83-22.65,12.75-36.92,36.79-36.92,63.17v25c0,4.14,3.36,7.5,7.5,7.5h130c4.14,0,7.5-3.36,7.5-7.5v-25c0-26.38-14.27-50.42-36.92-63.17Zm-58.08-31.83c0-6.89,5.61-12.5,12.5-12.5h20c6.89,0,12.5,5.61,12.5,12.5v20c0,12.41-10.09,22.5-22.5,22.5s-22.5-10.09-22.5-22.5v-20Zm80,112.5h-15v-12.5c0-4.14-3.36-7.5-7.5-7.5s-7.5,3.36-7.5,7.5v12.5h-55v-12.5c0-4.14-3.36-7.5-7.5-7.5s-7.5,3.36-7.5,7.5v12.5h-15v-17.5c0-20.97,11.38-40.08,29.43-50.18,6.88,7.77,16.91,12.68,28.07,12.68s21.2-4.91,28.07-12.68c18.05,10.1,29.43,29.2,29.43,50.18v17.5Z"/>
    <path class="cls-2" d="M475.08,416.33c1.24-3.72,1.92-7.7,1.92-11.83v-20c0-15.16-12.34-27.5-27.5-27.5h-20c-15.16,0-27.5,12.34-27.5,27.5v20c0,4.13,.68,8.11,1.92,11.83-22.65,12.75-36.92,36.79-36.92,63.17v25c0,4.14,3.36,7.5,7.5,7.5h130c4.14,0,7.5-3.36,7.5-7.5v-25c0-26.38-14.27-50.42-36.92-63.17Zm-58.08-31.83c0-6.89,5.61-12.5,12.5-12.5h20c6.89,0,12.5,5.61,12.5,12.5v20c0,12.41-10.09,22.5-22.5,22.5s-22.5-10.09-22.5-22.5v-20Zm80,112.5h-15v-12.5c0-4.14-3.36-7.5-7.5-7.5s-7.5,3.36-7.5,7.5v12.5h-55v-12.5c0-4.14-3.36-7.5-7.5-7.5s-7.5,3.36-7.5,7.5v12.5h-15v-17.5c0-20.97,11.38-40.08,29.43-50.18,6.88,7.77,16.91,12.68,28.07,12.68s21.2-4.91,28.07-12.68c18.05,10.1,29.43,29.2,29.43,50.18v17.5Z"/>
    <path class="cls-2" d="M72.5,342c4.14,0,7.5-3.36,7.5-7.5v-22c0-4.14,3.36-7.5,7.5-7.5H248.5v29.5c0,4.14,3.36,7.5,7.5,7.5s7.5-3.36,7.5-7.5v-29.5h161c4.14,0,7.5,3.36,7.5,7.5v22c0,4.14,3.36,7.5,7.5,7.5s7.5-3.36,7.5-7.5v-22c0-12.41-10.09-22.5-22.5-22.5h-161v-22.5c0-4.14-3.36-7.5-7.5-7.5s-7.5,3.36-7.5,7.5v22.5H87.5c-12.41,0-22.5,10.09-22.5,22.5v22c0,4.14,3.36,7.5,7.5,7.5Z"/>
  </g>
  <g>
    <path class="cls-1" d="M308.53,123.19l-.02-.17c-.63-6.69-4.37-12.37-10.27-15.57-6-3.25-13.25-3.27-19.39-.05-6.03,3.17-12.16,5.06-18.2,5.64-18.87,1.79-39.57-5.3-53.6-11.56-1.11-.49-2-.1-2.43,.18-.42,.27-1.13,.91-1.13,2.08v18.76c0,4.14-3.36,7.5-7.5,7.5h-7.5v47.5c0,37.22,30.28,67.5,67.5,67.5s67.5-30.28,67.5-67.5v-47.5h-7.5c-3.88,0-7.11-2.95-7.47-6.81Zm-24.73,80.3c-7.67,7.67-17.73,11.5-27.8,11.5s-20.14-3.83-27.8-11.5c-2.93-2.93-2.93-7.68,0-10.61,2.93-2.93,7.68-2.93,10.61,0,9.48,9.48,24.91,9.48,34.39,0,2.93-2.93,7.68-2.93,10.61,0s2.93,7.68,0,10.61Z"/>
    <path class="cls-1" d="M188.5,104.17c0-5.45,2.32-10.73,6.59-14.11,5.2-4.12,12.11-4.95,18.08-2.28,12.4,5.53,30.45,11.81,46.08,10.33,4.09-.39,8.34-1.73,12.64-3.98,10.57-5.55,23.1-5.49,33.51,.15,8.21,4.45,14.19,11.94,16.78,20.74h23.82V53.19c0-12.58-7.99-23.8-19.89-27.9-4.99-1.72-10.16-2.05-15.07-1.12-6.49,1.22-11.1,7.05-11.1,13.66h0c0,4.11-3.17,7.69-7.27,7.81-4.25,.13-7.73-3.28-7.73-7.5v-10.34c0-3.89-1.59-7.65-4.49-10.25C267.88,6.22,251.34-.22,233.71,0c-37.71,.47-67.71,31.92-67.71,69.63v45.36h22.5v-10.83Zm35.1-71.3c2.88-2.95,7.61-3.02,10.58-.15,.51,.49,10.81,10.01,25.19,6.88,4.05-.88,8.04,1.69,8.92,5.73,.88,4.05-1.69,8.04-5.73,8.92-3.14,.68-6.15,.98-9,.98-17.58,0-29.27-11.21-29.84-11.76-2.96-2.9-3.02-7.64-.12-10.61Zm-25.88,16.42c2.89-2.96,7.62-3.02,10.59-.14,.93,.9,22.55,21.29,53.25,14.6,4.04-.88,8.04,1.69,8.92,5.73,.88,4.05-1.69,8.04-5.73,8.92-5.43,1.18-10.63,1.69-15.56,1.69-30.29,0-50.39-19.26-51.36-20.21-2.96-2.9-3.02-7.64-.12-10.61Z"/>
    <path class="cls-1" d="M343.5,130h-5v45h5c8.28,0,15-6.72,15-15v-15c0-8.28-6.72-15-15-15Z"/>
    <path class="cls-1" d="M153.5,145v15c0,8.28,6.72,15,15,15h5v-45h-5c-8.28,0-15,6.72-15,15Z"/>
  </g>
</svg>