<?xml version="1.0" encoding="UTF-8"?>
<svg id="OBJECT" xmlns="http://www.w3.org/2000/svg" viewBox="0 0 32 32">
  <defs>
    <style>
      .cls-1 {
        fill: #FD4360;
      }

      .cls-2 {
        fill: #dadada;
      }
    </style>
  </defs>
  <g>
    <path class="cls-2" d="m8.64,23.77c.53-.61.86-1.4.86-2.27,0-1.93-1.57-3.5-3.5-3.5s-3.5,1.57-3.5,3.5c0,.87.33,1.66.86,2.27-1.41.88-2.36,2.44-2.36,4.23v.5c0,1.38,1.12,2.5,2.5,2.5h5c1.38,0,2.5-1.12,2.5-2.5v-.5c0-1.79-.95-3.34-2.36-4.23Zm-4.14-2.27c0-.83.67-1.5,1.5-1.5s1.5.67,1.5,1.5-.67,1.5-1.5,1.5-1.5-.67-1.5-1.5Zm4.5,7c0,.28-.22.5-.5.5H3.5c-.28,0-.5-.22-.5-.5v-.5c0-1.65,1.35-3,3-3s3,1.35,3,3v.5Z"/>
    <path class="cls-2" d="m28.64,23.77c.53-.61.86-1.4.86-2.27,0-1.93-1.57-3.5-3.5-3.5s-3.5,1.57-3.5,3.5c0,.87.33,1.66.86,2.27-1.41.88-2.36,2.44-2.36,4.23v.5c0,1.38,1.12,2.5,2.5,2.5h5c1.38,0,2.5-1.12,2.5-2.5v-.5c0-1.79-.95-3.34-2.36-4.23Zm-4.14-2.27c0-.83.67-1.5,1.5-1.5s1.5.67,1.5,1.5-.67,1.5-1.5,1.5-1.5-.67-1.5-1.5Zm4.5,7c0,.28-.22.5-.5.5h-5c-.28,0-.5-.22-.5-.5v-.5c0-1.65,1.35-3,3-3s3,1.35,3,3v.5Z"/>
    <path class="cls-2" d="m20.71,23.29l-3.71-3.7v-3.59c0-.55-.45-1-1-1s-1,.45-1,1v3.59l-3.71,3.7c-.39.39-.39,1.02,0,1.41.2.2.45.29.71.29s.51-.1.71-.29l3.29-3.29,3.29,3.29c.2.2.45.29.71.29s.51-.1.71-.29c.39-.39.39-1.02,0-1.41Z"/>
  </g>
  <g>
    <circle class="cls-1" cx="16" cy="4" r="3"/>
    <path class="cls-1" d="m19.56,7.5c-.91.92-2.17,1.5-3.56,1.5s-2.65-.58-3.56-1.5c-.89.9-1.44,2.14-1.44,3.5v.5c0,1.38,1.12,2.5,2.5,2.5h5c1.38,0,2.5-1.12,2.5-2.5v-.5c0-1.36-.55-2.6-1.44-3.5Z"/>
  </g>
</svg>