<?xml version="1.0" encoding="UTF-8"?>
<svg id="OBJECT" xmlns="http://www.w3.org/2000/svg" viewBox="0 0 32 32">
  <defs>
    <style>
      .cls-1 {
        fill: #FD4360;
      }

      .cls-1, .cls-2 {
        stroke-width: 0px;
      }

      .cls-2 {
        fill: #dadada;
      }
    </style>
  </defs>
  <g>
    <path class="cls-2" d="m14.5,6.8c-4.24,0-7.7,3.45-7.7,7.7s3.45,7.7,7.7,7.7c.69,0,1.39-.1,2.08-.29.53-.15.84-.7.69-1.23-.15-.53-.7-.84-1.23-.69-.51.14-1.03.22-1.54.22-3.14,0-5.7-2.56-5.7-5.7s2.56-5.7,5.7-5.7,5.7,2.56,5.7,5.7c0,.51-.07,1.03-.22,1.54-.15.53.16,1.08.69,1.23.53.15,1.08-.16,1.23-.69.19-.69.29-1.39.29-2.08,0-4.24-3.45-7.7-7.7-7.7Z"/>
    <path class="cls-2" d="m27,11.71h-2.05c-.25-.93-.61-1.81-1.09-2.64l1.45-1.45c.39-.39.39-1.02,0-1.41l-2.53-2.53c-.39-.39-1.02-.39-1.41,0l-1.45,1.45c-.83-.48-1.71-.84-2.64-1.09v-2.05c0-.55-.45-1-1-1h-3.57c-.55,0-1,.45-1,1v2.05c-.93.25-1.81.61-2.64,1.09l-1.45-1.45c-.39-.39-1.02-.39-1.41,0l-2.53,2.53c-.19.19-.29.44-.29.71s.11.52.29.71l1.45,1.45c-.48.83-.84,1.71-1.09,2.64h-2.05c-.55,0-1,.45-1,1v3.57c0,.55.45,1,1,1h2.05c.25.93.61,1.81,1.09,2.64l-1.45,1.45c-.19.19-.29.44-.29.71s.11.52.29.71l2.53,2.53c.39.39,1.02.39,1.41,0l1.45-1.45c.83.48,1.71.84,2.64,1.09v2.05c0,.55.45,1,1,1h3.57c.55,0,1-.45,1-1v-2.03c0-.55-.45-1-1-1s-1,.45-1,1v1.03h-1.57v-1.85c0-.48-.34-.9-.82-.98-1.23-.23-2.37-.7-3.39-1.4-.4-.28-.93-.22-1.27.12l-1.31,1.3-1.11-1.11,1.31-1.3c.34-.34.39-.88.12-1.27-.7-1.02-1.18-2.16-1.4-3.39-.09-.47-.5-.82-.98-.82h-1.85v-1.57h1.85c.48,0,.9-.34.98-.82.23-1.23.7-2.37,1.4-3.39.27-.4.23-.93-.12-1.27l-1.31-1.3,1.11-1.11,1.31,1.3c.34.34.88.39,1.27.12,1.02-.7,2.16-1.18,3.39-1.4.47-.09.82-.5.82-.98v-1.85h1.57v1.85c0,.48.34.9.82.98,1.23.23,2.37.7,3.39,1.4.4.28.93.22,1.27-.12l1.3-1.3,1.11,1.11-1.3,1.3c-.34.34-.39.88-.12,1.27.7,1.02,1.18,2.16,1.4,3.39.09.47.5.82.98.82h1.85v1.57h-1.03c-.55,0-1,.45-1,1s.45,1,1,1h2.03c.55,0,1-.45,1-1v-3.57c0-.55-.45-1-1-1Z"/>
  </g>
  <path class="cls-1" d="m24.57,18.14c-3.54,0-6.43,2.88-6.43,6.43s2.88,6.43,6.43,6.43,6.43-2.88,6.43-6.43-2.88-6.43-6.43-6.43Zm2.59,8.54c-.16.19-.39.3-.62.3-.18,0-.36-.06-.51-.18l-1.97-1.61c-.19-.15-.3-.38-.3-.62v-2.77c0-.44.36-.8.8-.8s.8.36.8.8v2.39l1.67,1.37c.34.28.39.79.11,1.13Z"/>
</svg>