<?xml version="1.0" encoding="UTF-8"?>
<svg id="OBJECT" xmlns="http://www.w3.org/2000/svg" viewBox="0 0 32 32">
  <defs>
    <style>
      .cls-1 {
        fill: #FD4360;
      }

      .cls-1, .cls-2 {
        stroke-width: 0px;
      }

      .cls-2 {
        fill: #dadada;
      }
    </style>
  </defs>
  <path class="cls-1" d="m22,11.62c0-1.51-.6-2.87-1.57-3.88-1,1.37-2.61,2.26-4.43,2.26s-3.43-.89-4.43-2.26c-.97,1.01-1.57,2.38-1.57,3.88,0,1.65,1.35,3,3,3h6c1.65,0,3-1.35,3-3Z"/>
  <circle class="cls-1" cx="16" cy="4.5" r="3.5"/>
  <path class="cls-2" d="m28.25,23.19c.47-.65.75-1.45.75-2.31,0-2.21-1.79-4-4-4-.63,0-1.21.16-1.74.41l-1.1-1.37c-.35-.43-.98-.5-1.41-.15-.43.35-.5.98-.15,1.41l1.13,1.41c-.46.65-.73,1.44-.73,2.29s.28,1.66.75,2.31c-1.05.62-1.86,1.57-2.32,2.69h-6.86c-.46-1.12-1.26-2.07-2.32-2.69.47-.65.75-1.45.75-2.31,0-.94-.34-1.79-.88-2.47l.99-1.23c.35-.43.28-1.06-.15-1.41-.43-.34-1.06-.28-1.41.15l-1.01,1.26c-.47-.2-.99-.31-1.54-.31-2.21,0-4,1.79-4,4,0,.86.28,1.66.75,2.31-1.67.99-2.75,2.78-2.75,4.81,0,1.65,1.35,3,3,3h6c1.65,0,3-1.35,3-3,0-.04,0-.08-.01-.12h6.02s-.01.08-.01.12c0,1.65,1.35,3,3,3h6c1.65,0,3-1.35,3-3,0-2.03-1.08-3.83-2.75-4.81Zm-21.25-4.31c1.1,0,2,.9,2,2s-.9,2-2,2-2-.9-2-2,.9-2,2-2Zm3,10.12h-6c-.55,0-1-.45-1-1,0-1.58,1.02-2.94,2.5-3.42.46.19.97.3,1.5.3s1.04-.11,1.5-.3c1.48.48,2.5,1.84,2.5,3.42,0,.55-.45,1-1,1Zm17-8.12c0,1.1-.9,2-2,2s-2-.9-2-2,.9-2,2-2,2,.9,2,2Zm1,8.12h-6c-.55,0-1-.45-1-1,0-1.58,1.02-2.94,2.5-3.42.46.19.97.3,1.5.3s1.04-.11,1.5-.3c1.48.48,2.5,1.84,2.5,3.42,0,.55-.45,1-1,1Z"/>
</svg>