<?xml version="1.0" encoding="UTF-8"?>
<svg id="OBJECT" xmlns="http://www.w3.org/2000/svg" viewBox="0 0 32 32">
  <defs>
    <style>
      .cls-1 {
        fill: #FD4360;
      }

      .cls-2 {
        fill: #dadada;
      }
    </style>
  </defs>
  <g>
    <path class="cls-2" d="M28.5,18c-.55,0-1,.45-1,1v9c0,.55-.45,1-1,1h-6.5v-10c0-.55-.45-1-1-1s-1,.45-1,1v10h-4v-10c0-.55-.45-1-1-1s-1,.45-1,1v10H5.5c-.55,0-1-.45-1-1v-9c0-.55-.45-1-1-1s-1,.45-1,1v9c0,1.65,1.35,3,3,3H26.5c1.65,0,3-1.35,3-3v-9c0-.55-.45-1-1-1Z"/>
    <path class="cls-2" d="M6,8.66c.36,.42,1,.46,1.41,.1,.42-.36,.46-.99,.1-1.41l-1.03-1.18c-.31-.35-.48-.8-.48-1.25,0-1.05,.86-1.91,1.91-1.91h4.09c1.65,0,3,1.35,3,3v2c0,.55,.45,1,1,1s1-.45,1-1v-2c0-1.65,1.35-3,3-3h4.09c1.05,0,1.91,.86,1.91,1.91,0,.46-.17,.9-.47,1.25l-1.03,1.18c-.36,.42-.32,1.05,.1,1.41,.19,.17,.42,.25,.66,.25,.28,0,.56-.12,.75-.34l1.03-1.18c.62-.72,.97-1.63,.97-2.57,0-2.16-1.75-3.91-3.91-3.91h-4.09c-1.63,0-3.09,.79-4,2-.91-1.21-2.37-2-4-2H7.91c-2.16,0-3.91,1.75-3.91,3.91,0,.94,.34,1.85,.97,2.57l1.03,1.18Z"/>
  </g>
  <g>
    <path class="cls-1" d="M1,13v3H10v-5H3c-1.1,0-2,.9-2,2Z"/>
    <rect class="cls-1" x="12" y="11" width="8" height="5"/>
    <path class="cls-1" d="M29,11h-7v5h9v-3c0-1.1-.9-2-2-2Z"/>
  </g>
</svg>