<?xml version="1.0" encoding="UTF-8"?>
<svg id="OBJECT" xmlns="http://www.w3.org/2000/svg" viewBox="0 0 32 32">
  <defs>
    <style>
      .cls-1 {
        fill: #FD4360;
      }

      .cls-1, .cls-2 {
        stroke-width: 0px;
      }

      .cls-2 {
        fill: #dadada;
      }
    </style>
  </defs>
  <path class="cls-2" d="m28.5,17c-.55,0-1,.45-1,1v10.5c0,.28-.22.5-.5.5h-7v-11c0-.55-.45-1-1-1s-1,.45-1,1v11h-4v-11c0-.55-.45-1-1-1s-1,.45-1,1v11h-7c-.28,0-.5-.22-.5-.5v-10.5c0-.55-.45-1-1-1s-1,.45-1,1v10.5c0,1.38,1.12,2.5,2.5,2.5h22c1.38,0,2.5-1.12,2.5-2.5v-10.5c0-.55-.45-1-1-1Z"/>
  <g>
    <path class="cls-1" d="m1,12v4h9v-6H3c-1.1,0-2,.9-2,2Z"/>
    <rect class="cls-1" x="12" y="10" width="8" height="6"/>
    <path class="cls-1" d="m29,10h-7v6h9v-4c0-1.1-.9-2-2-2Z"/>
    <path class="cls-1" d="m6.04,7.27l1.81.73h5.35l-6.41-2.58c-.48-.19-.78-.65-.78-1.16,0-.69.56-1.25,1.25-1.25h2.75c2.76,0,5,2.24,5,5h2c0-2.76,2.24-5,5-5h2.75c.69,0,1.25.56,1.25,1.25,0,.51-.31.97-.78,1.16l-6.41,2.58h5.35l1.81-.73c1.24-.5,2.04-1.68,2.04-3.02,0-1.79-1.46-3.25-3.25-3.25h-2.75c-2.55,0-4.78,1.37-6,3.41-1.22-2.04-3.45-3.41-6-3.41h-2.75c-1.79,0-3.25,1.46-3.25,3.25,0,1.33.8,2.52,2.04,3.02Z"/>
  </g>
</svg>