<?xml version="1.0" encoding="UTF-8"?>
<svg id="OBJECT" xmlns="http://www.w3.org/2000/svg" viewBox="0 0 32 32">
  <defs>
    <style>
      .cls-1 {
        fill: #FD4360;
      }

      .cls-1, .cls-2 {
        stroke-width: 0px;
      }

      .cls-2 {
        fill: #dadada;
      }
    </style>
  </defs>
  <path class="cls-2" d="m30,11H2c-.55,0-1,.45-1,1v6c0,.55.45,1,1,1h.5v11c0,.55.45,1,1,1h25c.55,0,1-.45,1-1v-11h.5c.55,0,1-.45,1-1v-6c0-.55-.45-1-1-1Zm-1,6h-8v-4h8v4Zm-16,0v-4h6v4h-6Zm4.5,2v10h-3v-10h3ZM3,13h8v4H3v-4Zm1.5,6h8v10H4.5v-10Zm23,10h-8v-10h8v10Z"/>
  <g>
    <path class="cls-1" d="m18,4h-4c-2.21,0-4,1.79-4,4v1h12v-1c0-2.21-1.79-4-4-4Z"/>
    <path class="cls-1" d="m7.1,3h2.6c.27,0,.53.06.77.16.62-.45,1.32-.78,2.08-.97-.76-.75-1.78-1.18-2.85-1.18h-2.6c-2.26,0-4.1,1.84-4.1,4.1,0,1.27.6,2.49,1.61,3.26l.84.64h2.55v-.57l-2.17-1.66c-.52-.39-.83-1.02-.83-1.67,0-1.16.94-2.1,2.1-2.1Z"/>
    <path class="cls-1" d="m24.9,1h-2.6c-1.07,0-2.09.44-2.85,1.18.76.19,1.46.52,2.08.97.24-.1.5-.16.77-.16h2.6c1.16,0,2.1.94,2.1,2.1,0,.65-.31,1.27-.83,1.67l-2.17,1.66v.57h2.55l.84-.64c1.01-.77,1.61-1.99,1.61-3.26,0-2.26-1.84-4.1-4.1-4.1Z"/>
  </g>
</svg>