<?xml version="1.0" encoding="UTF-8"?>
<svg id="OBJECT" xmlns="http://www.w3.org/2000/svg" viewBox="0 0 32 32">
  <defs>
    <style>
      .cls-1 {
        fill: #FD4360;
      }

      .cls-1, .cls-2 {
        stroke-width: 0px;
      }

      .cls-2 {
        fill: #dadada;
      }
    </style>
  </defs>
  <path class="cls-2" d="m14.5,1C7.06,1,1,7.06,1,14.5s6.06,13.5,13.5,13.5c.65,0,1.3-.05,1.95-.15.55-.08.92-.6.83-1.14s-.6-.92-1.14-.83c-.41.06-.82.1-1.22.11-.1-.03-.21-.04-.32-.04-.64-.34-2.31-1.37-3.68-3.48,1.05-.2,2.18-.31,3.38-.33h.2c.55,0,1-.45,1-1s-.45-1-1-1h-.21c-1.55.02-3,.19-4.32.48-.65-1.51-1.02-3.22-1.12-5.11h4.65v2.5c0,.55.45,1,1,1s1-.45,1-1v-2.5h1.97c.55,0,1-.45,1-1s-.45-1-1-1h-1.97v-4.67c1.34-.06,2.52-.21,3.53-.44.74,1.74,1.15,3.71,1.17,5.9,0,.55.49,1.01,1.01.99.55,0,1-.46.99-1.01-.02-2.37-.45-4.52-1.23-6.44.87-.31,1.56-.65,2.11-.97,1.81,2.03,2.93,4.71,2.93,7.64,0,.19,0,.38-.02.61h0c0,.55.43.99.98,1,.55.02,1-.41,1.02-.96.01-.22.02-.43.02-.66,0-7.44-6.06-13.5-13.5-13.5ZM3.05,13.5c.22-2.53,1.27-4.83,2.86-6.62.54.33,1.24.67,2.11.98-.69,1.69-1.08,3.58-1.18,5.64h-3.8ZM7.44,5.44c.94-.74,2.01-1.33,3.15-1.74-.59.64-1.18,1.41-1.71,2.34-.56-.19-1.04-.39-1.44-.59Zm6.06-1.67v3.06c-.96-.04-1.82-.14-2.58-.28.85-1.32,1.81-2.21,2.58-2.78Zm8.04,1.66c-.4.2-.88.4-1.43.59-.53-.92-1.12-1.69-1.71-2.32,1.14.41,2.2,1,3.14,1.73Zm-12.65,17.55c.53.92,1.12,1.69,1.71,2.32-1.14-.41-2.19-1-3.13-1.73.39-.2.86-.4,1.43-.6Zm-.86-1.82c-.87.31-1.57.66-2.1.98-1.6-1.8-2.66-4.1-2.88-6.64h3.8c.1,2.08.49,3.97,1.18,5.66Zm.82-7.66c.1-1.88.47-3.58,1.11-5.09,1.02.22,2.19.37,3.54.42v4.67h-4.65ZM15.5,3.77c.77.57,1.72,1.46,2.58,2.78-.76.14-1.62.24-2.58.29v-3.06Z"/>
  <path class="cls-1" d="m25.1,19.15c-3.26,0-5.9,2.66-5.9,5.92s2.65,5.92,5.9,5.92,5.9-2.66,5.9-5.92-2.65-5.92-5.9-5.92Zm-.47,5.13h.95c.96,0,1.73.78,1.73,1.74,0,.85-.61,1.56-1.42,1.71v.19c0,.44-.35.79-.79.79s-.79-.35-.79-.79v-.16h-.63c-.44,0-.79-.35-.79-.79s.35-.79.79-.79h1.89c.09,0,.16-.07.16-.16s-.07-.16-.16-.16h-.95c-.96,0-1.73-.78-1.73-1.74,0-.85.61-1.56,1.42-1.71v-.19c0-.44.35-.79.79-.79s.79.35.79.79v.16h.63c.44,0,.79.35.79.79s-.35.79-.79.79h-1.89c-.09,0-.16.07-.16.16s.07.16.16.16Z"/>
</svg>