<?xml version="1.0" encoding="UTF-8"?>
<svg id="OBJECT" xmlns="http://www.w3.org/2000/svg" viewBox="0 0 32 32">
  <defs>
    <style>
      .cls-1 {
        fill: #FD4360;
      }

      .cls-1, .cls-2 {
        stroke-width: 0px;
      }

      .cls-2 {
        fill: #dadada;
      }
    </style>
  </defs>
  <g>
    <path class="cls-2" d="m17.54,4h0c-.55,0-1,.45-1,1,0,.55.44,1,1,1,.95,0,1.88.14,2.76.36.75.98,1.38,2.29,1.86,3.8-1.45-.24-2.97-.38-4.55-.39h0c-.55,0-1,.45-1,1,0,.55.44,1,1,1,1.79,0,3.53.19,5.12.51.27,1.32.43,2.75.48,4.22h-3.43c-.55,0-1,.45-1,1s.45,1,1,1h3.43c-.05,1.47-.21,2.89-.48,4.21-1.62.33-3.39.52-5.22.52s-3.59-.18-5.22-.52c-.32-1.59-.51-3.33-.51-5.12,0-.55-.45-1-1-1h0c-.55,0-1,.45-1,1,0,1.58.15,3.11.39,4.55-1.51-.48-2.81-1.11-3.8-1.86-.22-.89-.36-1.81-.36-2.76,0-.55-.45-1-1-1h0c-.55,0-1,.45-1,1,.02,7.42,6.08,13.46,13.5,13.46s13.5-6.06,13.5-13.5-6.04-13.48-13.46-13.5Zm5.78,3.6c1.68.99,3.08,2.39,4.07,4.07-.92-.41-1.93-.77-3.01-1.05-.29-1.09-.64-2.1-1.05-3.02Zm1.52,5.24c1.51.48,2.81,1.11,3.79,1.85.15.59.26,1.18.31,1.8h-3.75c-.04-1.26-.16-2.49-.35-3.66Zm.35,5.66h3.75c-.05.62-.16,1.21-.31,1.8-.98.75-2.28,1.38-3.8,1.86.19-1.17.31-2.39.35-3.65Zm-17.6,4.82c.92.42,1.93.77,3.02,1.06.28,1.09.64,2.1,1.05,3.02-1.68-.99-3.08-2.39-4.07-4.07Zm7.1,5.32c-.75-.98-1.37-2.28-1.85-3.79,1.48.24,3.04.39,4.66.39s3.18-.14,4.66-.39c-.48,1.51-1.11,2.81-1.86,3.8-.9.23-1.83.36-2.8.36s-1.9-.13-2.8-.36Zm8.63-1.24c.42-.92.77-1.93,1.06-3.02,1.09-.29,2.1-.64,3.02-1.06-.99,1.68-2.4,3.08-4.07,4.07Z"/>
    <path class="cls-2" d="m15.77,18.5h.5c.55,0,1-.45,1-1s-.45-1-1-1h-.5c-.55,0-1,.45-1,1s.45,1,1,1Z"/>
  </g>
  <path class="cls-1" d="m15,8c0-3.86-3.14-7-7-7S1,4.14,1,8s3.14,7,7,7,7-3.14,7-7Zm-8,0v-3c0-.55.45-1,1-1s1,.45,1,1v2.59l1.71,1.71c.39.39.39,1.02,0,1.41-.2.2-.45.29-.71.29s-.51-.1-.71-.29l-2-2c-.19-.19-.29-.44-.29-.71Z"/>
</svg>