<?xml version="1.0" encoding="UTF-8"?>
<svg id="OBJECT" xmlns="http://www.w3.org/2000/svg" viewBox="0 0 32 32">
  <defs>
    <style>
      .cls-1 {
        fill: #FD4360;
      }

      .cls-1, .cls-2 {
        stroke-width: 0px;
      }

      .cls-2 {
        fill: #dadada;
      }
    </style>
  </defs>
  <g>
    <path class="cls-2" d="m28.33,5.63L15.33,1.06c-.21-.08-.45-.08-.66,0L1.67,5.63c-.4.14-.67.52-.67.94v4.25c0,.55.45,1,1,1h2.71v7.21h-.86c-.55,0-1,.45-1,1v3.34h-.86c-.55,0-1,.45-1,1v3.5c0,.55.45,1,1,1h11c.55,0,1-.45,1-1s-.45-1-1-1H3v-1.5h9c.55,0,1-.45,1-1,0-.45-.3-.82-.71-.94v-3.4c0-.55-.45-1-1-1h-.86v-7.21h9.14v1.21c0,.55.45,1,1,1s1-.45,1-1v-1.21h1.71v1.21c0,.55.45,1,1,1s1-.45,1-1v-1.21h2.71c.55,0,1-.45,1-1v-4.25c0-.42-.27-.8-.67-.94ZM4.86,21.04h5.43v2.34h-5.43v-2.34Zm3.57-2h-1.71v-7.21h1.71v7.21Zm18.57-9.21H3v-2.54L15,3.06l12,4.22v2.54Z"/>
    <path class="cls-2" d="m13,6.41h-1c-.55,0-1,.45-1,1s.45,1,1,1h1c.55,0,1-.45,1-1s-.45-1-1-1Z"/>
    <path class="cls-2" d="m17,8.41h1c.55,0,1-.45,1-1s-.45-1-1-1h-1c-.55,0-1,.45-1,1s.45,1,1,1Z"/>
  </g>
  <path class="cls-1" d="m22.63,30.98c.16,0,.32.02.49.02s.32-.01.49-.02c1.07-1.76,1.77-4.12,1.94-6.69h-4.86c.18,2.56.87,4.92,1.94,6.69Z"/>
  <path class="cls-1" d="m27.05,16.04c.6,1.72.96,3.64,1.07,5.67h2.88c-.4-2.43-1.89-4.49-3.95-5.67Z"/>
  <path class="cls-1" d="m23.11,15c-.16,0-.32.01-.49.02-1.07,1.76-1.77,4.12-1.94,6.69h4.86c-.18-2.56-.87-4.92-1.94-6.69-.16,0-.32-.02-.49-.02Z"/>
  <path class="cls-1" d="m27.05,29.96c2.07-1.17,3.55-3.24,3.95-5.67h-2.88c-.11,2.02-.47,3.95-1.07,5.67Z"/>
  <path class="cls-1" d="m15.23,21.71h2.88c.11-2.02.47-3.95,1.07-5.67-2.07,1.17-3.55,3.24-3.95,5.67Z"/>
  <path class="cls-1" d="m15.23,24.29c.4,2.43,1.89,4.49,3.95,5.67-.6-1.72-.96-3.64-1.07-5.67h-2.88Z"/>
</svg>