<?xml version="1.0" encoding="UTF-8"?>
<svg id="OBJECT" xmlns="http://www.w3.org/2000/svg" viewBox="0 0 32 32">
  <defs>
    <style>
      .cls-1 {
        fill: #FD4360;
      }

      .cls-2 {
        fill: #dadada;
      }
    </style>
  </defs>
  <path class="cls-2" d="M16,15C7.73,15,1,21.73,1,30c0,.55,.45,1,1,1H30c.55,0,1-.45,1-1,0-8.27-6.73-15-15-15Zm11.57,9.09c-1.28-.55-2.74-1-4.32-1.34-.34-1.58-.79-3.05-1.34-4.33,2.43,1.25,4.42,3.24,5.66,5.67Zm-8.45-6.7c.84,1.32,1.51,3.02,2,4.98-1.64-.24-3.35-.37-5.12-.37s-3.49,.14-5.12,.37c.49-1.96,1.17-3.67,2-4.98,1-.25,2.04-.39,3.12-.39s2.12,.15,3.12,.39Zm2.43,7.05c.24,1.44,.38,2.97,.42,4.55H10.03c.04-1.58,.18-3.12,.42-4.55,1.74-.29,3.61-.45,5.55-.45s3.81,.16,5.55,.45Zm-11.46-6.03c-.55,1.28-1,2.75-1.34,4.33-1.58,.34-3.04,.79-4.32,1.34,1.25-2.43,3.23-4.42,5.66-5.67ZM3.39,26.88c1.32-.84,3.02-1.52,4.98-2-.19,1.32-.31,2.7-.35,4.12H3.04c.06-.73,.18-1.43,.35-2.12Zm20.58,2.12c-.04-1.42-.15-2.8-.35-4.12,1.97,.49,3.67,1.17,4.98,2,.17,.69,.3,1.39,.35,2.12h-4.99Z"/>
  <path class="cls-1" d="M25,2h-8c0-.55-.45-1-1-1s-1,.45-1,1V13c0,.55,.45,1,1,1s1-.45,1-1v-3h8c.55,0,1-.45,1-1V3c0-.55-.45-1-1-1Z"/>
</svg>