<?xml version="1.0" encoding="UTF-8"?>
<svg id="OBJECT" xmlns="http://www.w3.org/2000/svg" viewBox="0 0 512 512">
  <defs>
    <style>
      .cls-1 {
        fill: #FD4360;
      }

      .cls-2 {
        fill: #dadada;
      }
    </style>
  </defs>
  <g>
    <path class="cls-2" d="M424.5,140c-4.14,0-7.5,3.36-7.5,7.5s3.36,7.5,7.5,7.5h50c4.14,0,7.5-3.36,7.5-7.5s-3.36-7.5-7.5-7.5h-50Z"/>
    <path class="cls-2" d="M499.5,155h5c4.14,0,7.5-3.36,7.5-7.5s-3.36-7.5-7.5-7.5h-5c-4.14,0-7.5,3.36-7.5,7.5s3.36,7.5,7.5,7.5Z"/>
    <path class="cls-2" d="M414.5,212.58h34.75s8.2,22.49,8.2,22.49c1.08,2.96,3.89,4.93,7.05,4.93h19.87c4.14,0,7.5-3.36,7.5-7.5s-3.36-7.5-7.5-7.5h-14.62l-8.2-22.49c-1.08-2.96-3.89-4.93-7.05-4.93h-40c-4.14,0-7.5,3.36-7.5,7.5s3.36,7.5,7.5,7.5Z"/>
    <path class="cls-2" d="M414.5,97.42h40c3.15,0,5.97-1.97,7.05-4.93l8.2-22.49h14.62c4.14,0,7.5-3.36,7.5-7.5s-3.36-7.5-7.5-7.5h-19.87c-3.15,0-5.97,1.97-7.05,4.93l-8.2,22.49h-34.75c-4.14,0-7.5,3.36-7.5,7.5s3.36,7.5,7.5,7.5Z"/>
    <path class="cls-2" d="M37.5,140c-4.14,0-7.5,3.36-7.5,7.5s3.36,7.5,7.5,7.5h50c4.14,0,7.5-3.36,7.5-7.5s-3.36-7.5-7.5-7.5H37.5Z"/>
    <path class="cls-2" d="M7.5,155h5c4.14,0,7.5-3.36,7.5-7.5s-3.36-7.5-7.5-7.5H7.5c-4.14,0-7.5,3.36-7.5,7.5s3.36,7.5,7.5,7.5Z"/>
    <path class="cls-2" d="M27.63,240h19.87c3.15,0,5.97-1.97,7.05-4.93l8.2-22.49h34.75c4.14,0,7.5-3.36,7.5-7.5s-3.36-7.5-7.5-7.5H57.5c-3.15,0-5.97,1.97-7.05,4.93l-8.2,22.49h-14.62c-4.14,0-7.5,3.36-7.5,7.5s3.36,7.5,7.5,7.5Z"/>
    <path class="cls-2" d="M27.63,70h14.62l8.2,22.49c1.08,2.96,3.89,4.93,7.05,4.93h40c4.14,0,7.5-3.36,7.5-7.5s-3.36-7.5-7.5-7.5H62.75s-8.2-22.49-8.2-22.49c-1.08-2.96-3.89-4.93-7.05-4.93H27.63c-4.14,0-7.5,3.36-7.5,7.5s3.36,7.5,7.5,7.5Z"/>
    <path class="cls-2" d="M256,295c81.33,0,147.5-66.17,147.5-147.5S337.33,0,256,0,108.5,66.17,108.5,147.5s66.17,147.5,147.5,147.5Zm0-280c73.06,0,132.5,59.44,132.5,132.5s-59.44,132.5-132.5,132.5S123.5,220.56,123.5,147.5,182.94,15,256,15Z"/>
    <path class="cls-2" d="M92.5,327C41.5,327,0,368.5,0,419.5s41.5,92.5,92.5,92.5,92.5-41.5,92.5-92.5-41.5-92.5-92.5-92.5Zm0,170c-28.69,0-53.77-15.68-67.17-38.91,8.05-13.92,20.36-25.05,34.88-31.75,3.16,14.92,16.43,26.16,32.28,26.16s29.12-11.23,32.28-26.16c14.53,6.69,26.84,17.83,34.88,31.75-13.4,23.23-38.48,38.91-67.17,38.91Zm-18-77.5v-38.25c0-2.89,2.36-5.25,5.25-5.25h25.5c2.89,0,5.25,2.36,5.25,5.25v38.25c0,9.92-8.08,18-18,18s-18-8.08-18-18Zm92.25,22.17c-10.48-14.05-24.84-25.01-41.25-31.3v-29.12c0-11.17-9.08-20.25-20.25-20.25h-25.5c-11.17,0-20.25,9.08-20.25,20.25v29.12c-16.41,6.29-30.77,17.25-41.25,31.3-2.1-7.03-3.25-14.47-3.25-22.17,0-42.73,34.77-77.5,77.5-77.5s77.5,34.77,77.5,77.5c0,7.7-1.15,15.14-3.25,22.17Z"/>
    <path class="cls-2" d="M419.5,327c-51,0-92.5,41.5-92.5,92.5s41.5,92.5,92.5,92.5,92.5-41.5,92.5-92.5-41.5-92.5-92.5-92.5Zm0,170c-28.69,0-53.77-15.68-67.17-38.91,8.05-13.92,20.36-25.05,34.88-31.75,3.16,14.92,16.43,26.16,32.28,26.16s29.12-11.23,32.28-26.16c14.53,6.69,26.84,17.83,34.88,31.75-13.4,23.23-38.48,38.91-67.17,38.91Zm-18-77.5v-38.25c0-2.89,2.36-5.25,5.25-5.25h25.5c2.89,0,5.25,2.36,5.25,5.25v38.25c0,9.92-8.08,18-18,18s-18-8.08-18-18Zm92.25,22.17c-10.48-14.05-24.84-25.01-41.25-31.3v-29.12c0-11.17-9.08-20.25-20.25-20.25h-25.5c-11.17,0-20.25,9.08-20.25,20.25v29.12c-16.41,6.29-30.77,17.25-41.25,31.3-2.1-7.03-3.25-14.47-3.25-22.17,0-42.73,34.77-77.5,77.5-77.5s77.5,34.77,77.5,77.5c0,7.7-1.15,15.14-3.25,22.17Z"/>
    <path class="cls-2" d="M311.18,378.37l-36.18-34.58c-3.36-3.21-7.32-5.41-11.5-6.59v-19.69c0-4.14-3.36-7.5-7.5-7.5s-7.5,3.36-7.5,7.5v19.69c-4.18,1.19-8.14,3.38-11.5,6.59l-36.18,34.58c-3,2.86-3.1,7.61-.24,10.6,2.86,2.99,7.61,3.1,10.6,.24l36.18-34.58c4.84-4.63,12.43-4.63,17.28,0l36.18,34.58c1.45,1.39,3.32,2.08,5.18,2.08,1.98,0,3.95-.78,5.42-2.32,2.86-2.99,2.75-7.74-.24-10.6Z"/>
  </g>
  <g>
    <path class="cls-1" d="M214.36,89.13c13.44-1.07,27.4-1.63,41.64-1.63s28.2,.55,41.64,1.63c-2.17-18.02-5.35-34.72-9.46-49.43-10.2-3.05-21.01-4.7-32.19-4.7s-21.99,1.65-32.19,4.7c-4.11,14.71-7.29,31.41-9.45,49.43Z"/>
    <path class="cls-1" d="M312.91,90.59c15.74,1.78,30.59,4.29,44.15,7.5-11-22.41-29.24-40.65-51.65-51.65,3.21,13.56,5.73,28.41,7.5,44.15Z"/>
    <path class="cls-1" d="M363.8,179.69c3.05-10.2,4.7-21.01,4.7-32.19s-1.65-21.99-4.7-32.19c-14.71-4.11-31.41-7.29-49.43-9.45,1.07,13.44,1.63,27.4,1.63,41.64s-.55,28.2-1.63,41.64c18.02-2.17,34.72-5.35,49.43-9.45Z"/>
    <path class="cls-1" d="M299.2,190.7c1.19-13.87,1.8-28.36,1.8-43.2s-.62-29.33-1.8-43.2c-13.87-1.19-28.36-1.8-43.2-1.8s-29.33,.62-43.2,1.8c-1.19,13.87-1.8,28.36-1.8,43.2s.62,29.33,1.8,43.2c13.87,1.19,28.36,1.8,43.2,1.8s29.33-.62,43.2-1.8Z"/>
    <path class="cls-1" d="M196,147.5c0-14.24,.55-28.2,1.63-41.64-18.02,2.16-34.72,5.35-49.43,9.45-3.05,10.2-4.7,21.01-4.7,32.19s1.65,21.99,4.7,32.19c14.71,4.11,31.41,7.29,49.43,9.45-1.07-13.44-1.63-27.4-1.63-41.64Z"/>
    <path class="cls-1" d="M297.64,205.87c-13.44,1.07-27.4,1.63-41.64,1.63s-28.2-.55-41.64-1.63c2.17,18.02,5.35,34.72,9.45,49.43,10.2,3.05,21.01,4.7,32.19,4.7s21.99-1.65,32.19-4.7c4.11-14.71,7.29-31.41,9.46-49.43Z"/>
    <path class="cls-1" d="M312.91,204.41c-1.78,15.74-4.29,30.59-7.5,44.15,22.41-11,40.65-29.24,51.65-51.65-13.56,3.21-28.41,5.73-44.15,7.5Z"/>
    <path class="cls-1" d="M199.09,90.59c1.78-15.74,4.29-30.59,7.5-44.15-22.41,11-40.65,29.24-51.65,51.65,13.56-3.21,28.41-5.73,44.15-7.5Z"/>
    <path class="cls-1" d="M199.09,204.41c-15.74-1.78-30.59-4.29-44.15-7.5,11,22.41,29.24,40.65,51.65,51.65-3.21-13.56-5.73-28.41-7.5-44.15Z"/>
  </g>
</svg>