<?xml version="1.0" encoding="UTF-8"?>
<svg id="OBJECT" xmlns="http://www.w3.org/2000/svg" viewBox="0 0 32 32">
  <defs>
    <style>
      .cls-1 {
        fill: #FD4360;
      }

      .cls-2 {
        fill: #dadada;
      }
    </style>
  </defs>
  <path class="cls-2" d="M28,13c0-6.62-5.38-12-12-12h-1c-.55,0-1,.45-1,1s.45,1,1,1h1c5.51,0,10,4.49,10,10s-4.49,10-10,10S6,18.51,6,13v-1c0-.55-.45-1-1-1s-1,.45-1,1v1c0,5.58,3.83,10.27,9,11.61v4.39h-3c-.55,0-1,.45-1,1s.45,1,1,1h12c.55,0,1-.45,1-1s-.45-1-1-1h-3v-4.39c5.17-1.34,9-6.03,9-11.61Zm-11,16h-2v-4.05c.33,.03,.66,.05,1,.05s.67-.02,1-.05v4.05Z"/>
  <g>
    <path class="cls-1" d="M16,11c-.66,0-1.32,.02-1.96,.04-.02,.65-.04,1.3-.04,1.96s.02,1.32,.04,1.96c.65,.02,1.3,.04,1.96,.04s1.32-.02,1.96-.04c.02-.65,.04-1.3,.04-1.96s-.02-1.32-.04-1.96c-.65-.02-1.3-.04-1.96-.04Z"/>
    <path class="cls-1" d="M23.77,9.57c-.86-1.93-2.41-3.48-4.33-4.33,.19,1.2,.34,2.51,.43,3.9,1.39,.1,2.71,.24,3.9,.43Z"/>
    <path class="cls-1" d="M24.39,11.71c-1.3-.25-2.8-.45-4.42-.56,.02,.61,.03,1.23,.03,1.86s-.01,1.24-.03,1.86c1.62-.12,3.12-.31,4.42-.56,.07-.42,.11-.85,.11-1.29s-.04-.87-.11-1.29Z"/>
    <path class="cls-1" d="M12,13c0-.63,.01-1.24,.03-1.86-1.62,.12-3.12,.31-4.42,.56-.07,.42-.11,.85-.11,1.29s.04,.87,.11,1.29c1.3,.25,2.8,.45,4.42,.56-.02-.61-.03-1.23-.03-1.86Z"/>
    <path class="cls-1" d="M14.14,16.97c.12,1.62,.31,3.12,.56,4.42,.42,.07,.85,.11,1.29,.11s.87-.04,1.29-.11c.25-1.3,.45-2.8,.56-4.42-.61,.02-1.23,.03-1.86,.03s-1.24-.01-1.86-.03Z"/>
    <path class="cls-1" d="M8.23,16.43c.86,1.93,2.41,3.48,4.33,4.33-.19-1.2-.34-2.51-.43-3.9-1.39-.1-2.71-.24-3.9-.43Z"/>
    <path class="cls-1" d="M19.43,20.77c1.93-.86,3.48-2.41,4.33-4.33-1.2,.19-2.51,.34-3.9,.43-.1,1.39-.24,2.71-.43,3.9Z"/>
    <path class="cls-1" d="M8.23,9.57c1.2-.19,2.51-.34,3.9-.43,.1-1.39,.24-2.71,.43-3.9-1.93,.86-3.48,2.41-4.33,4.33Z"/>
    <path class="cls-1" d="M17.86,9.03c-.12-1.62-.31-3.12-.56-4.42-.42-.07-.85-.11-1.29-.11s-.87,.04-1.29,.11c-.25,1.3-.45,2.8-.56,4.42,.61-.02,1.23-.03,1.86-.03s1.24,.01,1.86,.03Z"/>
  </g>
</svg>