<?xml version="1.0" encoding="UTF-8"?>
<svg id="OBJECT" xmlns="http://www.w3.org/2000/svg" viewBox="0 0 32 32">
  <defs>
    <style>
      .cls-1 {
        fill: #FD4360;
      }

      .cls-1, .cls-2 {
        stroke-width: 0px;
      }

      .cls-2 {
        fill: #dadada;
      }
    </style>
  </defs>
  <path class="cls-2" d="m15,1C7.28,1,1,7.28,1,15s6.28,14,14,14c1.63,0,3.21-.28,4.72-.83.52-.19.78-.76.59-1.28s-.77-.78-1.28-.59c-1.28.47-2.63.71-4.02.71-.85,0-1.68-.09-2.48-.26-.48-1.7-.85-3.74-1.09-5.96,1.16.07,2.36.11,3.57.11.73,0,1.43,0,2.12-.04.55-.02.98-.49.95-1.04-.02-.55-.51-.99-1.04-.95-.67.03-1.34.04-2.04.04-1.27,0-2.53-.05-3.75-.13-.08-1.22-.13-2.48-.13-3.75s.05-2.53.13-3.75c1.22-.08,2.48-.13,3.75-.13s2.52.05,3.74.13c.08,1.18.12,2.39.13,3.62,0,.55.45,1,1,1h0c.55,0,1-.45,1-1,0-1.17-.04-2.32-.11-3.44,2.23.24,4.27.61,5.98,1.09.08.38.14.76.19,1.15.06.55.57.94,1.1.88.55-.06.94-.56.88-1.1-.79-7.1-6.77-12.45-13.91-12.45Zm-4.74,2.98c-.39,1.63-.68,3.46-.87,5.41-1.96.19-3.78.49-5.41.87,1.21-2.81,3.47-5.07,6.29-6.29Zm0,22.04c-2.81-1.21-5.07-3.47-6.29-6.29,1.64.39,3.46.68,5.42.88.19,1.96.49,3.78.87,5.41Zm-1.03-7.45c-2.22-.24-4.26-.61-5.97-1.09-.17-.8-.26-1.63-.26-2.48s.09-1.68.26-2.48c1.7-.48,3.74-.85,5.97-1.09-.07,1.16-.11,2.36-.11,3.57s.04,2.41.11,3.58Zm5.77-9.45c-1.22,0-2.41.04-3.57.11.24-2.23.6-4.27,1.09-5.97.8-.17,1.63-.26,2.48-.26s1.68.1,2.48.27c.48,1.7.85,3.74,1.09,5.96-1.16-.07-2.35-.11-3.57-.11Zm5.6.27c-.19-1.96-.49-3.78-.87-5.41,2.81,1.21,5.08,3.45,6.29,6.28-1.63-.39-3.46-.68-5.42-.87Z"/>
  <path class="cls-1" d="m25,15c-3.31,0-6,2.69-6,6,0,3.03,4.69,8.96,5.22,9.62.19.24.48.38.78.38s.59-.14.78-.38c.53-.67,5.22-6.6,5.22-9.62,0-3.31-2.69-6-6-6Zm1,7h-2c-.55,0-1-.45-1-1s.45-1,1-1h2c.55,0,1,.45,1,1s-.45,1-1,1Z"/>
</svg>