<?xml version="1.0" encoding="UTF-8"?>
<svg id="OBJECT" xmlns="http://www.w3.org/2000/svg" viewBox="0 0 32 32">
  <defs>
    <style>
      .cls-1 {
        fill: #FD4360;
      }

      .cls-1, .cls-2 {
        stroke-width: 0px;
      }

      .cls-2 {
        fill: #dadada;
      }
    </style>
  </defs>
  <path class="cls-2" d="m30,29h-.93l-5.71-9.71c-.18-.3-.5-.49-.85-.49-.31,0-.68.17-.86.47l-1.47,2.36-.11-.2c-.26-.49-.87-.67-1.35-.41-.49.26-.67.86-.41,1.35l3.53,6.63H5.17l3.61-6.77c.26-.49.08-1.09-.41-1.35-.48-.26-1.09-.08-1.35.41l-4.12,7.71h-.9c-.55,0-1,.45-1,1s.45,1,1,1h28c.55,0,1-.45,1-1s-.45-1-1-1Zm-8.74-5.33l1.21-1.94,4.28,7.27h-2.65l-2.84-5.33Z"/>
  <path class="cls-1" d="m10.93,20.82l1.75-2.33c.2-.26.52-.41.84-.4.33.02.63.19.8.47l1.73,2.8,1.47-2.81-3.03-4.84v-4.71h7c.55,0,1-.45,1-1V2c0-.55-.45-1-1-1h-8c-.55,0-1,.45-1,1v11.71l-2.91,4.66,1.34,2.44Z"/>
</svg>