<?xml version="1.0" encoding="UTF-8"?>
<svg id="OBJECT" xmlns="http://www.w3.org/2000/svg" viewBox="0 0 512 512">
  <defs>
    <style>
      .cls-1 {
        fill: #FD4360;
      }

      .cls-2 {
        fill: #dadada;
      }
    </style>
  </defs>
  <g>
    <path class="cls-2" d="M244.88,438.5c4.14,0,7.5-3.36,7.5-7.5s-3.36-7.5-7.5-7.5h-5c-4.14,0-7.5,3.36-7.5,7.5s3.36,7.5,7.5,7.5h5Z"/>
    <path class="cls-2" d="M504.5,467h-16.25l-111.75-149c-5.17-6.89-13.39-11-22-11s-16.83,4.11-22,11l-46.5,62-38.3-51.06c-2.48-3.31-7.18-3.99-10.5-1.5-3.31,2.49-3.99,7.19-1.5,10.5l96.8,129.06H42.5l21.37-28.5H214.88c4.14,0,7.5-3.36,7.5-7.5s-3.36-7.5-7.5-7.5H75.12l54.07-72.09c2.49-3.31,1.81-8.01-1.5-10.5-3.31-2.48-8.01-1.81-10.5,1.5L23.75,467H7.5c-4.14,0-7.5,3.36-7.5,7.5v15c0,12.41,10.09,22.5,22.5,22.5H489.5c12.41,0,22.5-10.09,22.5-22.5v-15c0-4.14-3.36-7.5-7.5-7.5Zm-160-140c2.35-3.13,6.09-5,10-5s7.65,1.87,10,5l17.58,23.44-9.89,5.85-12.47-6.8c-2.99-1.63-6.7-1.04-9.04,1.44l-17.01,18.01-11.72-11.88,22.54-30.06Zm-49.13,65.5l17.48-23.31,15.59,15.81c1.41,1.43,3.33,2.23,5.34,2.23,.03,0,.05,0,.08,0,2.04-.02,3.97-.87,5.37-2.35l18.38-19.46,11.14,6.07c2.32,1.26,5.13,1.22,7.41-.13l14.97-8.86,78.36,104.48h-118.25l-55.88-74.5Zm201.63,97c0,4.14-3.36,7.5-7.5,7.5H22.5c-4.14,0-7.5-3.36-7.5-7.5v-7.5H497v7.5Z"/>
  </g>
  <g>
    <path class="cls-1" d="M195,268.06V7.5c0-4.14-3.36-7.5-7.5-7.5s-7.5,3.36-7.5,7.5V268.06c-5.72,1.63-10.87,5.1-14.5,9.94l-29.43,39.24,22.64,22.96,22.12-23.42c2.23-2.36,5.72-3.02,8.65-1.63l15.92,7.5,24.38-17.61-20.28-27.04c-3.63-4.84-8.78-8.3-14.5-9.94Z"/>
    <path class="cls-1" d="M312.5,20h-102.5V110h102.5c4.5,0,8.75,1.09,12.5,3.01V32.5c0-6.9-5.6-12.5-12.5-12.5Zm-60,30h-5c-4.14,0-7.5-3.36-7.5-7.5s3.36-7.5,7.5-7.5h5c4.14,0,7.5,3.36,7.5,7.5s-3.36,7.5-7.5,7.5Zm30,0h-5c-4.14,0-7.5-3.36-7.5-7.5s3.36-7.5,7.5-7.5h5c4.14,0,7.5,3.36,7.5,7.5s-3.36,7.5-7.5,7.5Z"/>
    <rect class="cls-1" x="265" y="125.25" width="60" height="40" rx="12.5" ry="12.5"/>
    <path class="cls-1" d="M407.5,60.25h-67.5v105h67.5c4.14,0,7.5-3.36,7.5-7.5V67.75c0-4.14-3.36-7.5-7.5-7.5Z"/>
  </g>
</svg>