<?xml version="1.0" encoding="UTF-8"?>
<svg id="OBJECT" xmlns="http://www.w3.org/2000/svg" viewBox="0 0 512 512">
  <defs>
    <style>
      .cls-1 {
        fill: #FD4360;
      }

      .cls-2 {
        fill: #dadada;
      }
    </style>
  </defs>
  <path class="cls-2" d="M504.5,467h-16.25l-111.75-149c-5.17-6.89-13.39-11-22-11s-16.83,4.11-22,11l-31.26,41.68-44.55-59.75c-2.48-3.32-7.17-4-10.5-1.53-3.32,2.48-4,7.18-1.53,10.5l117.89,158.1H185v-36.05c11.53-3.27,20-13.89,20-26.45v-20c0-15.16-12.34-27.5-27.5-27.5s-27.5,12.34-27.5,27.5v20c0,12.56,8.47,23.18,20,26.45v36.05H105v-36.05c11.53-3.27,20-13.89,20-26.45v-48.2l17.43-23.36c2.48-3.32,1.79-8.02-1.53-10.5-3.32-2.48-8.02-1.79-10.5,1.53l-7.49,10.04c-4.13-9.97-13.97-17.01-25.42-17.01-15.16,0-27.5,12.34-27.5,27.5v60c0,.15,0,.3,.01,.45l-46.27,62.05H7.5c-4.14,0-7.5,3.36-7.5,7.5v15c0,12.41,10.09,22.5,22.5,22.5H489.5c12.41,0,22.5-10.09,22.5-22.5v-15c0-4.14-3.36-7.5-7.5-7.5Zm-339.5-62.5v-20c0-6.89,5.61-12.5,12.5-12.5s12.5,5.61,12.5,12.5v20c0,6.89-5.61,12.5-12.5,12.5s-12.5-5.61-12.5-12.5Zm179.5-77.5c2.35-3.13,6.09-5,10-5s7.65,1.87,10,5l21.47,28.62-6.83,6.92-18.85-19.96c-2.34-2.48-6.05-3.07-9.04-1.44l-13.8,7.53-6.38-3.77,13.43-17.91Zm-33.92,45.22l11.43-15.24,11.47,6.78c2.27,1.35,5.09,1.39,7.41,.13l12.47-6.8,20.22,21.4c1.4,1.48,3.34,2.33,5.37,2.35h.08c2.01,0,3.93-.8,5.34-2.23l10.71-10.86,74.43,99.24h-88.24l-70.68-94.78Zm-225.58-27.72c0-6.89,5.61-12.5,12.5-12.5s12.5,5.61,12.5,12.5v60c0,6.89-5.61,12.5-12.5,12.5s-12.5-5.61-12.5-12.5v-60Zm-8.85,77.31c3.52,4.34,8.34,7.58,13.85,9.14v36.05H42.45l33.7-45.19Zm420.85,67.69c0,4.14-3.36,7.5-7.5,7.5H22.5c-4.14,0-7.5-3.36-7.5-7.5v-7.5H497v7.5Z"/>
  <g>
    <path class="cls-1" d="M217.5,251.16V15c0-8.28-6.72-15-15-15s-15,6.72-15,15V251.16c-3.27,1.95-6.17,4.52-8.49,7.63l-32.49,43.57,16.52,16.76,29.8-31.55c2.23-2.36,5.72-3.02,8.65-1.63l21.49,10.13,20.02-14.46-17.01-22.81c-2.32-3.11-5.22-5.68-8.49-7.63Z"/>
    <path class="cls-1" d="M375.58,87.5l18.89-47.21c.92-2.31,.64-4.93-.75-6.99-1.4-2.06-3.72-3.3-6.21-3.3H232.5v115h155c2.49,0,4.82-1.23,6.21-3.3,1.39-2.06,1.68-4.68,.75-6.99l-18.89-47.21Zm-90.58,17.5c0,4.14-3.36,7.5-7.5,7.5s-7.5-3.36-7.5-7.5v-5c0-4.14,3.36-7.5,7.5-7.5s7.5,3.36,7.5,7.5v5Zm0-30c0,4.14-3.36,7.5-7.5,7.5s-7.5-3.36-7.5-7.5v-5c0-4.14,3.36-7.5,7.5-7.5s7.5,3.36,7.5,7.5v5Z"/>
  </g>
</svg>