<?xml version="1.0" encoding="UTF-8"?>
<svg id="OBJECT" xmlns="http://www.w3.org/2000/svg" viewBox="0 0 32 32">
  <defs>
    <style>
      .cls-1 {
        fill: #FD4360;
      }

      .cls-2 {
        fill: #dadada;
      }
    </style>
  </defs>
  <path class="cls-2" d="m30,29h-1v-12c0-.55-.45-1-1-1h-5c-.55,0-1,.45-1,1v12h-12v-8c0-.55-.45-1-1-1h-5c-.55,0-1,.45-1,1v8h-1c-.55,0-1,.45-1,1s.45,1,1,1h28c.55,0,1-.45,1-1s-.45-1-1-1Zm-3-11v2h-3v-2h3Zm-3,4h3v7h-3v-7Zm-16,0v2h-3v-2h3Zm-3,4h3v3h-3v-3Z"/>
  <g>
    <polygon class="cls-1" points="13 25 13 27 19 27 19 21 19 17 13 17 13 25"/>
    <path class="cls-1" d="m24,2h-7c0-.55-.45-1-1-1s-1,.45-1,1v11h-1c-.55,0-1,.45-1,1v1h6v-1c0-.55-.45-1-1-1h-1v-3h7c.55,0,1-.45,1-1V3c0-.55-.45-1-1-1Z"/>
  </g>
</svg>