<?xml version="1.0" encoding="UTF-8"?>
<svg id="OBJECT" xmlns="http://www.w3.org/2000/svg" viewBox="0 0 32 32">
  <defs>
    <style>
      .cls-1 {
        fill: #FD4360;
      }

      .cls-1, .cls-2 {
        stroke-width: 0px;
      }

      .cls-2 {
        fill: #dadada;
      }
    </style>
  </defs>
  <g>
    <path class="cls-2" d="m2,24h28c.35,0,.67-.18.85-.47.18-.29.2-.66.04-.97l-3-6c-.17-.34-.52-.55-.89-.55h-8c-.38,0-.73.21-.89.55l-2.11,4.21-2.11-4.21c-.17-.34-.52-.55-.89-.55H5c-.38,0-.73.21-.89.55l-3,6c-.15.31-.14.68.04.97.18.29.5.47.85.47Zm17.62-6h6.76l2,4h-10.76l2-4Zm-14,0h6.76l2,4H3.62l2-4Z"/>
    <path class="cls-2" d="m30,26H2c-.55,0-1,.45-1,1v1.5c0,1.38,1.12,2.5,2.5,2.5h25c1.38,0,2.5-1.12,2.5-2.5v-1.5c0-.55-.45-1-1-1Zm-1,2.5c0,.28-.22.5-.5.5H3.5c-.28,0-.5-.22-.5-.5v-.5h26v.5Z"/>
  </g>
  <g>
    <path class="cls-1" d="m20,7h-8c-.4,0-.76.24-.92.61l-2.74,6.39h15.32l-2.74-6.39c-.16-.37-.52-.61-.92-.61Z"/>
    <path class="cls-1" d="m26.76,3.81c-.36-.42-.99-.47-1.41-.11l-1.79,1.54c-.42.36-.47.99-.11,1.41.2.23.48.35.76.35.23,0,.46-.08.65-.24l1.79-1.54c.42-.36.47-.99.11-1.41Z"/>
    <path class="cls-1" d="m21.49,5c.16.1.34.14.51.14.34,0,.67-.17.86-.49l1.28-2.14c.28-.47.13-1.09-.35-1.37-.47-.28-1.09-.13-1.37.35l-1.28,2.14c-.28.47-.13,1.09.35,1.37Z"/>
    <path class="cls-1" d="m8.44,5.24l-1.79-1.54c-.42-.36-1.05-.31-1.41.11-.36.42-.31,1.05.11,1.41l1.79,1.54c.19.16.42.24.65.24.28,0,.56-.12.76-.35.36-.42.31-1.05-.11-1.41Z"/>
    <path class="cls-1" d="m9.14,4.65c.19.31.52.49.86.49.17,0,.35-.05.51-.14.47-.28.63-.9.35-1.37l-1.28-2.14c-.28-.47-.9-.63-1.37-.35-.47.28-.63.9-.35,1.37l1.28,2.14Z"/>
  </g>
</svg>