<?xml version="1.0" encoding="UTF-8" standalone="no"?>
<svg
   id="OBJECT"
   viewBox="0 0 32 32"
   version="1.1"
   sodipodi:docname="Google.svg"
   xml:space="preserve"
   inkscape:version="1.2.2 (732a01da63, 2022-12-09)"
   xmlns:inkscape="http://www.inkscape.org/namespaces/inkscape"
   xmlns:sodipodi="http://sodipodi.sourceforge.net/DTD/sodipodi-0.dtd"
   xmlns="http://www.w3.org/2000/svg"
   xmlns:svg="http://www.w3.org/2000/svg"><sodipodi:namedview
     id="namedview17"
     pagecolor="#505050"
     bordercolor="#ffffff"
     borderopacity="1"
     inkscape:showpageshadow="0"
     inkscape:pageopacity="0"
     inkscape:pagecheckerboard="1"
     inkscape:deskcolor="#505050"
     showgrid="false"
     inkscape:zoom="0.03125"
     inkscape:cx="-1424"
     inkscape:cy="1728"
     inkscape:window-width="1920"
     inkscape:window-height="1009"
     inkscape:window-x="-8"
     inkscape:window-y="-8"
     inkscape:window-maximized="1"
     inkscape:current-layer="OBJECT"
     showguides="false" /><defs
     id="defs4"><style
       id="style2">
      .cls-1 {
        fill: #FD4360;
      }

      .cls-1, .cls-2 {
        stroke-width: 0px;
      }

      .cls-2 {
        fill: #dadada;
      }
    </style></defs><path
     id="path377"
     style="fill:#fd4360;stroke-width:0.123551"
     d="m 16.816757,4.0487805 c -2.562807,0 -4.654309,0.6342464 -6.8583701,2.0796762 -1.0194392,0.6685541 -2.708774,2.3928282 -3.4418377,3.5131192 -0.3372517,0.5153991 -0.613185,0.9760511 -0.613185,1.0236601 0,0.04761 0.8673154,0.762056 1.9273642,1.58762 1.0600488,0.825564 1.9346166,1.502567 1.9434044,1.504449 0.0088,0.0021 0.2074018,-0.345781 0.4413792,-0.772551 1.195335,-2.180289 2.713139,-3.4281571 4.849145,-3.9868541 0.933778,-0.24424 2.747401,-0.244949 3.654439,-0.0014 0.824438,0.221388 1.767481,0.66806 2.351181,1.1136091 0.249701,0.190602 0.487939,0.34652 0.529389,0.34652 0.04145,0 0.81653,-0.7421981 1.722439,-1.6493611 L 24.969255,7.1578917 24.677701,6.8536145 C 24.222486,6.3784788 23.000911,5.5733303 22.09601,5.1520575 20.485613,4.4023353 18.793926,4.048819 16.816757,4.048819 Z M 5.7568594,10.972004 c -0.1179401,0.123773 -0.6031745,1.484712 -0.8069802,2.263446 -0.6646931,2.539733 -0.500391,5.187362 0.4752531,7.658989 0.1684661,0.426774 0.3340955,0.776006 0.3680247,0.776006 0.050553,0 2.6025054,-1.937819 3.6534702,-2.774238 L 9.7244231,18.675104 9.5660957,17.909261 C 9.3673848,16.948396 9.3660739,15.721545 9.5627563,14.812007 L 9.714304,14.111154 9.2780429,13.710636 C 8.7092677,13.188452 5.8005225,10.926155 5.7568354,10.972004 Z M 16.916936,14.16121 v 2.352908 2.352845 h 3.362054 3.362051 l -0.06506,0.325432 c -0.03578,0.178968 -0.242795,0.702906 -0.460047,1.164288 -0.310414,0.659234 -0.556065,0.999863 -1.147071,1.590868 -0.413631,0.413631 -0.73961,0.762328 -0.72436,0.774833 0.01526,0.0125 0.880691,0.682043 1.923147,1.487854 1.042457,0.80581 1.929451,1.465107 1.97113,1.465107 0.10741,0 1.11815,-1.207192 1.577249,-1.883809 0.913299,-1.34601 1.605538,-3.175051 1.880004,-4.967303 0.156764,-1.023657 0.147022,-4.09571 -0.01425,-4.487829 -0.06746,-0.164024 -0.442269,-0.175194 -5.868447,-0.175194 z" /><path
     style="fill:#dadada;fill-opacity:1;stroke-width:0.00403427"
     d="m 15.034822,34.008201 c 0,0 -0.03689,0.06214 -0.04819,0.08745 -0.01139,0.02551 -0.0124,0.05561 -0.01213,0.05568 0,0 -0.0125,0.06567 0.02285,0.132423 0.03534,0.06675 0.08031,0.08781 0.08031,0.08781 0,0 0.0696,0.04533 0.159554,0.02961 0.08995,-0.0157 0.129211,-0.07496 0.129211,-0.07496 0,0 0.02107,-0.01962 0.03748,-0.06103 0.01643,-0.04141 0.01391,-0.06246 0.01391,-0.06246 l 0.001,-0.517919 -0.01891,-0.02497 -0.03783,0.02463 -0.0017,0.520416 c 0,0 -0.0093,0.04925 -0.03213,0.07496 -0.02285,0.02571 -0.05104,0.04497 -0.05104,0.04497 0,0 -0.04355,0.02927 -0.104937,0.01891 -0.06139,-0.01035 -0.09281,-0.04676 -0.09281,-0.04676 0,0 -0.03391,-0.03605 -0.03962,-0.06567 -0.0057,-0.02964 -0.0071,-0.05175 -0.0071,-0.05175 0,0 6.64e-4,-0.03784 0.0089,-0.05854 0.0082,-0.0207 0.02033,-0.04533 0.02605,-0.05426 0.0057,-0.0089 0.01143,-0.02177 0.01143,-0.02177 z"
     id="path308"
     sodipodi:nodetypes="cscscscscccccscscscsscc" /><path
     id="path1186"
     style="fill:#dadada;fill-opacity:1;stroke-width:0.00293032"
     d="m 15.39062,33.474558 a 0.10852922,0.10852922 0 0 0 -0.108533,0.108523 0.10852922,0.10852922 0 0 0 0.108533,0.10853 0.10852922,0.10852922 0 0 0 0.108524,-0.10853 0.10852922,0.10852922 0 0 0 -0.108524,-0.108523 z m -6.64e-4,0.06461 a 0.04543083,0.04543083 0 0 1 0.04542,0.04543 0.04543083,0.04543083 0 0 1 -0.04542,0.04543 0.04543083,0.04543083 0 0 1 -0.04543,-0.04543 0.04543083,0.04543083 0 0 1 0.04543,-0.04543 z" /><path
     style="fill:#fd4360;fill-opacity:1;stroke-width:0.0619724"
     d="m 15.088547,33.934097 c -0.0058,0.0014 -0.06691,0.09361 -0.06691,0.09361 l 0.0487,0.0374 0.07121,-0.0901 0.04415,0.108866 0.06611,-0.303598 -0.277729,0.107596 z"
     id="path1393"
     sodipodi:nodetypes="cccccccc" /><path
     style="fill:#fd4360;stroke-width:0.123551"
     d="M 7.8122684,12.289318 5.831138,10.69286 6.0661371,10.268133 C 7.7923407,7.1482588 10.795622,4.9926231 14.196024,4.2435697 c 3.69006,-0.8128574 7.902715,0.1917684 10.430334,2.4874056 l 0.450553,0.4092013 -1.722732,1.7285863 -1.722732,1.7285861 -0.39376,-0.316436 C 20.03725,9.3162179 18.548354,8.8180979 16.866843,8.8186289 c -2.840172,10e-4 -5.284209,1.5403911 -6.603944,4.1598311 l -0.4382129,0.869772 z"
     id="path371"
     sodipodi:nodetypes="ccssscccssscc" /><path
     style="fill:#fd4360;stroke-width:0.123551"
     d="M 5.4168283,21.037869 C 4.1367692,17.96303 4.1822245,14.429464 5.5417649,11.325577 l 0.2990548,-0.645443 2.1698676,1.324391 c 1.4080944,0.859439 1.8509283,1.710708 1.8176686,1.797378 -0.028498,0.07429 -0.1893352,0.830235 -0.2809078,1.282173 -0.1886764,0.931164 -0.1482585,2.051464 0.1089905,3.020898 0.1467902,0.553176 0.1454829,0.59739 -0.021104,0.714675 -0.097669,0.06876 -0.9885727,0.760251 -1.979786,1.536647 -0.9912177,0.776395 -1.8317999,1.412213 -1.8679597,1.412933 -0.03616,6.64e-4 -0.2030067,-0.328393 -0.3707606,-0.73136 z"
     id="path373"
     sodipodi:nodetypes="sscsssssscs" /><path
     style="fill:#fd4360;stroke-width:0.123551"
     d="M 15.475619,28.675461 C 11.753815,28.253261 8.299634,26.049267 6.3113958,22.828088 5.8426384,22.068643 5.5603927,21.485175 5.7205951,21.325891 c 0.248629,-0.247198 3.9138484,-2.654564 3.9863799,-2.657052 0.033821,-10e-4 0.2514926,0.40071 0.346049,0.6483 0.514737,1.347823 2.049791,3.015387 3.443004,3.740218 2.031906,1.057111 4.618949,1.094481 6.740693,0.09737 l 1.079567,-0.494963 1.911601,1.352483 c 1.044387,0.738918 1.880776,1.504855 1.950182,1.568713 0.297556,0.273787 -2.468395,1.943748 -4.116444,2.500825 -1.591938,0.538109 -3.90697,0.784151 -5.586008,0.59368 z"
     id="path375"
     sodipodi:nodetypes="ssssssscssss" /></svg>
