<?xml version="1.0" encoding="UTF-8"?>
<svg id="OBJECT" xmlns="http://www.w3.org/2000/svg" viewBox="0 0 32 32">
  <defs>
    <style>
      .cls-1 {
        fill: #FD4360;
      }

      .cls-1, .cls-2 {
        stroke-width: 0px;
      }

      .cls-2 {
        fill: #dadada;
      }
    </style>
  </defs>
  <path class="cls-2" d="m30.54,10.16L16.54,1.16c-.33-.21-.75-.21-1.08,0L1.46,10.16c-.29.18-.46.5-.46.84s.17.66.46.84l7.48,4.81-.06.06c-.57.57-.88,1.32-.88,2.12v6.36c-1.16.41-2,1.51-2,2.82,0,1.65,1.35,3,3,3s3-1.35,3-3c0-1.3-.84-2.4-2-2.82v-6.36c0-.26.11-.52.29-.71l.37-.37,4.8,3.09c.16.11.35.16.54.16s.38-.05.54-.16l14-9c.29-.18.46-.5.46-.84s-.17-.66-.46-.84ZM9,29c-.55,0-1-.45-1-1s.45-1,1-1,1,.45,1,1-.45,1-1,1Zm7-10.19l-3.89-2.5,4.6-4.6c.39-.39.39-1.02,0-1.41s-1.02-.39-1.41,0l-4.91,4.91-6.54-4.2,7.82-5.03,12.15,7.81-7.82,5.03Zm9.67-6.21l-12.15-7.81,2.48-1.6,12.15,7.81-2.48,1.6Z"/>
  <g>
    <path class="cls-1" d="m17.62,22.52c-.48.31-1.04.48-1.62.48s-1.14-.17-1.63-.48l-2.37-1.53v3.02c.92.69,1.58,1.69,1.86,2.81l1.61,1.02c.16.1.35.16.54.16s.37-.05.54-.16l11-7c.29-.18.46-.5.46-.84v-4.15l-10.38,6.67Z"/>
    <path class="cls-1" d="m4,20c0,.34.17.66.46.84l1.54.98v-2.99c0-.53.1-1.03.26-1.52l-2.26-1.45v4.15Z"/>
  </g>
</svg>