<?xml version="1.0" encoding="UTF-8"?>
<svg id="OBJECT" xmlns="http://www.w3.org/2000/svg" viewBox="0 0 512 512">
  <defs>
    <style>
      .cls-1 {
        fill: #FD4360;
      }

      .cls-2 {
        fill: #dadada;
      }
    </style>
  </defs>
  <g>
    <path class="cls-2" d="M368.17,223.11c1.2,0,2.42-.29,3.55-.9l17.84-9.61c2.43-1.31,3.94-3.84,3.94-6.6v-42.79c0-4.14-3.36-7.5-7.5-7.5s-7.5,3.36-7.5,7.5v38.31l-13.9,7.49c-3.65,1.96-5.01,6.51-3.05,10.16,1.35,2.52,3.94,3.94,6.61,3.94Z"/>
    <path class="cls-2" d="M122.44,212.6l130,70c1.11,.6,2.33,.9,3.56,.9s2.45-.3,3.56-.9l52.16-28.09c3.65-1.96,5.01-6.51,3.05-10.16-1.96-3.65-6.51-5.01-10.16-3.05l-48.6,26.18-122.5-65.96v-38.31c0-4.14-3.36-7.5-7.5-7.5s-7.5,3.36-7.5,7.5v42.79c0,2.76,1.52,5.3,3.94,6.6Z"/>
    <path class="cls-2" d="M502.42,358.72c-7-14.01-16.92-21.72-27.92-21.72-1.82,0-3.6,.23-5.35,.64-53.15,7.15-107.23,11.65-160.88,13.41-1.7-13.54-13.28-24.06-27.28-24.06h-50c-14,0-25.58,10.51-27.28,24.06-53.65-1.76-107.73-6.26-160.88-13.41-1.75-.41-3.53-.64-5.35-.64-11,0-20.92,7.71-27.92,21.72-6.18,12.35-9.58,28.61-9.58,45.78s3.4,33.43,9.58,45.78c7,14.01,16.92,21.72,27.92,21.72,1.82,0,3.6-.23,5.35-.64,53.08-7.14,107.08-11.64,160.65-13.4v46.55c0,2.77,1.52,5.31,3.96,6.61,2.44,1.31,5.4,1.16,7.7-.37l40.84-27.23,40.84,27.23c1.25,.84,2.71,1.26,4.16,1.26,1.21,0,2.43-.29,3.54-.89,2.44-1.3,3.96-3.85,3.96-6.61v-46.55c53.57,1.76,107.58,6.26,160.65,13.4,1.75,.41,3.53,.64,5.35,.64,11,0,20.92-7.71,27.92-21.72,6.18-12.35,9.58-28.61,9.58-45.78s-3.4-33.43-9.58-45.78ZM15,404.5c0-30.05,11.88-52.5,22.5-52.5s22.5,22.45,22.5,52.5-11.88,52.5-22.5,52.5-22.5-22.45-22.5-52.5Zm48.63,49.1c.62-1.07,1.22-2.16,1.8-3.32,6.18-12.35,9.58-28.61,9.58-45.78s-3.4-33.43-9.58-45.78c-.58-1.15-1.18-2.25-1.8-3.32,46.37,5.56,93.28,9.13,139.87,10.65v30.94h-66c-4.14,0-7.5,3.36-7.5,7.5s3.36,7.5,7.5,7.5h66v30.94c-46.59,1.52-93.51,5.09-139.87,10.65Zm229.87,36.89l-30-20v-75.99c0-4.14-3.36-7.5-7.5-7.5s-7.5,3.36-7.5,7.5v75.99l-30,20v-135.99c0-6.89,5.61-12.5,12.5-12.5h50c6.89,0,12.5,5.61,12.5,12.5v135.99Zm15-78.49h66c4.14,0,7.5-3.36,7.5-7.5s-3.36-7.5-7.5-7.5h-66v-30.94c46.59-1.52,93.51-5.09,139.88-10.65-.62,1.07-1.22,2.16-1.8,3.32-6.18,12.35-9.58,28.61-9.58,45.78s3.4,33.43,9.58,45.78c.58,1.15,1.18,2.25,1.8,3.32-46.37-5.56-93.28-9.13-139.88-10.65v-30.94Zm166,45c-10.62,0-22.5-22.45-22.5-52.5s11.88-52.5,22.5-52.5,22.5,22.45,22.5,52.5-11.88,52.5-22.5,52.5Z"/>
    <path class="cls-2" d="M404.5,397h-5c-4.14,0-7.5,3.36-7.5,7.5s3.36,7.5,7.5,7.5h5c4.14,0,7.5-3.36,7.5-7.5s-3.36-7.5-7.5-7.5Z"/>
    <path class="cls-2" d="M112.5,397h-5c-4.14,0-7.5,3.36-7.5,7.5s3.36,7.5,7.5,7.5h5c4.14,0,7.5-3.36,7.5-7.5s-3.36-7.5-7.5-7.5Z"/>
    <path class="cls-2" d="M256,357c-4.14,0-7.5,3.36-7.5,7.5v5c0,4.14,3.36,7.5,7.5,7.5s7.5-3.36,7.5-7.5v-5c0-4.14-3.36-7.5-7.5-7.5Z"/>
  </g>
  <g>
    <path class="cls-1" d="M434.72,100.99L259.72,.99c-2.3-1.32-5.14-1.32-7.44,0L77.28,100.99c-2.34,1.34-3.78,3.82-3.78,6.51s1.44,5.18,3.78,6.51l175,100c1.15,.66,2.44,.99,3.72,.99s2.57-.33,3.72-.99l55.93-31.96v-9.24l-71.86-46.41c-10.42-6.73-13.43-20.69-6.7-31.11,4.16-6.45,11.23-10.29,18.91-10.29,4.33,0,8.55,1.25,12.2,3.6l82.15,53.05c5.3,3.42,8.84,8.81,9.93,14.89l74.43-42.53c2.34-1.34,3.78-3.82,3.78-6.51s-1.44-5.18-3.78-6.51Z"/>
    <path class="cls-1" d="M345.66,267.09v-106.53c0-2.55-1.29-4.92-3.43-6.3l-82.16-53.05c-3.48-2.25-8.12-1.25-10.37,2.23-2.25,3.48-1.25,8.12,2.23,10.37l78.72,50.84v102.45c-10.01,2.28-17.5,11.25-17.5,21.93v35c0,4.14,3.36,7.5,7.5,7.5h35c4.14,0,7.5-3.36,7.5-7.5v-35c0-10.69-7.49-19.65-17.5-21.93Z"/>
  </g>
</svg>