<?xml version="1.0" encoding="UTF-8" standalone="no"?>
<svg
   id="OBJECT"
   viewBox="0 0 32 32"
   version="1.1"
   sodipodi:docname="Grammar Check.svg"
   inkscape:version="1.2.2 (732a01da63, 2022-12-09)"
   xml:space="preserve"
   xmlns:inkscape="http://www.inkscape.org/namespaces/inkscape"
   xmlns:sodipodi="http://sodipodi.sourceforge.net/DTD/sodipodi-0.dtd"
   xmlns="http://www.w3.org/2000/svg"
   xmlns:svg="http://www.w3.org/2000/svg"><sodipodi:namedview
     id="namedview21"
     pagecolor="#505050"
     bordercolor="#ffffff"
     borderopacity="1"
     inkscape:showpageshadow="0"
     inkscape:pageopacity="0"
     inkscape:pagecheckerboard="1"
     inkscape:deskcolor="#505050"
     showgrid="false"
     inkscape:zoom="5.6568545"
     inkscape:cx="-18.649941"
     inkscape:cy="36.062444"
     inkscape:window-width="1920"
     inkscape:window-height="1009"
     inkscape:window-x="-8"
     inkscape:window-y="-8"
     inkscape:window-maximized="1"
     inkscape:current-layer="OBJECT" /><defs
     id="defs4"><style
       id="style2">
      .cls-1 {
        fill: #FD4360;
      }

      .cls-1, .cls-2 {
        stroke-width: 0px;
      }

      .cls-2 {
        fill: #dadada;
      }
    </style></defs><circle
     style="fill:#fd4360;stroke-width:0.117528"
     id="path411"
     cx="16.139156"
     cy="16.098343"
     r="13.048105" /><g
     id="g969"
     transform="matrix(0.06556837,0,0,0.06556837,37.908992,9.8357396)"><path
       style="fill:#dadada;fill-opacity:1;stroke-width:1.234"
       d="m -335.49998,-25.999999 c 0,0 -20.75,-2.25 -56.25,15.749999 -35.5,17.9999997 -49.75,53.249998 -49.75,53.249998 0,0 -19.5,39.999998 -9,79.749992 10.5,39.75 36.25,62 36.25,62 0,0 20.5,20.25 47.5,27.5 27,7.25 47.24999,4.25 47.24999,4.25 0,0 30,-2.75 51.25,-17.75 21.25,-15 33,-29.25 33,-29.25 0,0 16.25,-22.5 20.25,-40.25 4,-17.75 4.25,-28.74999 4.25,-28.74999 0,0 0.5,-9.750004 0.25,-13.000004 -0.25,-3.25 -0.5,-6 -0.5,-6 h -45.5 l -25,27.750004 43,0.25 c 0,0 -8.25,34.49999 -24.5,50.24999 -16.25,15.75 -37.75,24 -37.75,24 0,0 -40.24999,15.5 -75.99999,-5.75 -35.75,-21.25 -46.5,-60 -46.5,-60 0,0 -7.75,-35.749994 6.5,-63.249992 14.25,-27.499999 41.75,-42.999999 41.75,-42.999999 0,0 13.25,-6.4999992 25.5,-8.7499991 12.25,-2.24999993 14.75,-1 14.75,-1 z"
       id="path355" /><path
       style="fill:#dadada;fill-opacity:1;stroke-width:1.234"
       d="m -393.50491,79.549509 22.27387,-15.556348 25.80939,34.648231 101.11627,-109.601547 20.85965,19.0918826 -125.1579,134.3502824 z"
       id="path357" /></g></svg>
