<?xml version="1.0" encoding="UTF-8"?>
<svg id="OBJECT" xmlns="http://www.w3.org/2000/svg" viewBox="0 0 512 512">
  <defs>
    <style>
      .cls-1 {
        fill: #FD4360;
      }

      .cls-2 {
        fill: #dadada;
      }
    </style>
  </defs>
  <path class="cls-2" d="M494.5,457h-2.5V17.5c0-9.65-7.85-17.5-17.5-17.5h-10c-9.65,0-17.5,7.85-17.5,17.5V50h-23.5v-7.5c0-9.65-7.85-17.5-17.5-17.5H106c-9.65,0-17.5,7.85-17.5,17.5v7.5h-23.5V17.5C65,7.85,57.15,0,47.5,0h-10c-9.65,0-17.5,7.85-17.5,17.5V457h-2.5c-9.65,0-17.5,7.85-17.5,17.5v30c0,4.14,3.36,7.5,7.5,7.5H77.5c4.14,0,7.5-3.36,7.5-7.5v-30c0-9.65-7.85-17.5-17.5-17.5h-2.5V65h23.5v7.5c0,9.65,7.85,17.5,17.5,17.5H406c9.65,0,17.5-7.85,17.5-17.5v-7.5h23.5V457h-2.5c-9.65,0-17.5,7.85-17.5,17.5v30c0,4.14,3.36,7.5,7.5,7.5h70c4.14,0,7.5-3.36,7.5-7.5v-30c0-9.65-7.85-17.5-17.5-17.5Zm-424.5,17.5v22.5H15v-22.5c0-1.38,1.12-2.5,2.5-2.5h50c1.38,0,2.5,1.12,2.5,2.5Zm-35-17.5V17.5c0-1.38,1.12-2.5,2.5-2.5h10c1.38,0,2.5,1.12,2.5,2.5V457h-15ZM408.5,72.5c0,1.38-1.12,2.5-2.5,2.5H106c-1.38,0-2.5-1.12-2.5-2.5v-30c0-1.38,1.12-2.5,2.5-2.5H406c1.38,0,2.5,1.12,2.5,2.5v30Zm53.5-55c0-1.38,1.12-2.5,2.5-2.5h10c1.38,0,2.5,1.12,2.5,2.5V457h-15V17.5Zm35,479.5h-55v-22.5c0-1.38,1.12-2.5,2.5-2.5h50c1.38,0,2.5,1.12,2.5,2.5v22.5Z"/>
  <g>
    <path class="cls-1" d="M392.11,366c-10.25-34.93-14.17-82.23-11.41-140.39,1.18-24.82,3.45-48.73,5.97-69.61H125.33c2.51,20.82,4.78,44.66,5.96,69.43,2.78,58.24-1.14,105.61-11.4,140.57H392.11Zm-98.61-177.5h10v-10c0-4.14,3.36-7.5,7.5-7.5s7.5,3.36,7.5,7.5v10h10c4.14,0,7.5,3.36,7.5,7.5s-3.36,7.5-7.5,7.5h-10v10c0,4.14-3.36,7.5-7.5,7.5s-7.5-3.36-7.5-7.5v-10h-10c-4.14,0-7.5-3.36-7.5-7.5s3.36-7.5,7.5-7.5Zm0,130h10v-10c0-4.14,3.36-7.5,7.5-7.5s7.5,3.36,7.5,7.5v10h10c4.14,0,7.5,3.36,7.5,7.5s-3.36,7.5-7.5,7.5h-10v10c0,4.14-3.36,7.5-7.5,7.5s-7.5-3.36-7.5-7.5v-10h-10c-4.14,0-7.5-3.36-7.5-7.5s3.36-7.5,7.5-7.5Zm-55-65h10v-10c0-4.14,3.36-7.5,7.5-7.5s7.5,3.36,7.5,7.5v10h10c4.14,0,7.5,3.36,7.5,7.5s-3.36,7.5-7.5,7.5h-10v10c0,4.14-3.36,7.5-7.5,7.5s-7.5-3.36-7.5-7.5v-10h-10c-4.14,0-7.5-3.36-7.5-7.5s3.36-7.5,7.5-7.5Zm-55-65h10v-10c0-4.14,3.36-7.5,7.5-7.5s7.5,3.36,7.5,7.5v10h10c4.14,0,7.5,3.36,7.5,7.5s-3.36,7.5-7.5,7.5h-10v10c0,4.14-3.36,7.5-7.5,7.5s-7.5-3.36-7.5-7.5v-10h-10c-4.14,0-7.5-3.36-7.5-7.5s3.36-7.5,7.5-7.5Zm0,130h10v-10c0-4.14,3.36-7.5,7.5-7.5s7.5,3.36,7.5,7.5v10h10c4.14,0,7.5,3.36,7.5,7.5s-3.36,7.5-7.5,7.5h-10v10c0,4.14-3.36,7.5-7.5,7.5s-7.5-3.36-7.5-7.5v-10h-10c-4.14,0-7.5-3.36-7.5-7.5s3.36-7.5,7.5-7.5Z"/>
    <path class="cls-1" d="M388.59,141c1.91-14.23,3.84-26.52,5.43-36H117.98c1.6,9.48,3.52,21.77,5.43,36H388.59Z"/>
    <path class="cls-1" d="M421.16,419.05c-9.65-9.14-17.65-21.9-23.96-38.05H114.8c-6.31,16.15-14.31,28.91-23.96,38.05-2.23,2.11-2.95,5.37-1.81,8.22,1.14,2.85,3.9,4.72,6.97,4.72H416c3.07,0,5.83-1.87,6.97-4.72,1.14-2.85,.42-6.11-1.81-8.22Z"/>
  </g>
</svg>