<?xml version="1.0" encoding="UTF-8"?>
<svg id="OBJECT" xmlns="http://www.w3.org/2000/svg" viewBox="0 0 32 32">
  <defs>
    <style>
      .cls-1 {
        fill: #FD4360;
      }

      .cls-1, .cls-2 {
        stroke-width: 0px;
      }

      .cls-2 {
        fill: #dadada;
      }
    </style>
  </defs>
  <path class="cls-2" d="m27.51,14.14c-.3-.18-.68-.19-.99-.02l-3.19,1.74-3.19-1.74c-.3-.16-.66-.16-.96,0l-3.19,1.74-3.19-1.74c-.3-.16-.66-.16-.96,0l-3.18,1.74-3.19-1.74c-.31-.17-.69-.16-.99.02-.3.18-.49.51-.49.86v13c0,1.65,1.35,3,3,3h18c1.65,0,3-1.35,3-3v-13c0-.35-.19-.68-.49-.86Zm-19.33,3.74c.3.16.66.16.96,0l3.18-1.74,3.19,1.74c.3.16.66.16.96,0l3.19-1.74,3.19,1.74c.3.16.66.16.96,0l2.19-1.19v7.32H6v-7.31l2.19,1.19Zm16.81,11.12H7c-.55,0-1-.45-1-1v-2h20v2c0,.55-.45,1-1,1Z"/>
  <g>
    <path class="cls-1" d="m21,1c-2.76,0-5,2.24-5,5v7.58l2.22-1.21c.44-.24.94-.37,1.44-.37s1,.13,1.44.37l2.23,1.22,2.24-1.22c.14-.08.29-.12.44-.17v-6.19c0-2.76-2.24-5-5-5Zm.5,8h-1c-.55,0-1-.45-1-1s.45-1,1-1h1c.55,0,1,.45,1,1s-.45,1-1,1Zm0-3h-1c-.55,0-1-.45-1-1s.45-1,1-1h1c.55,0,1,.45,1,1s-.45,1-1,1Z"/>
    <path class="cls-1" d="m6,12.19c.15.05.3.09.43.17l2.23,1.22,2.22-1.22c.44-.24.94-.37,1.44-.37s1,.13,1.44.37l.23.13v-5.49H6v5.19Z"/>
    <path class="cls-1" d="m11.5,1h-3c-1.38,0-2.5,1.12-2.5,2.5v1.5h8v-1.5c0-1.38-1.12-2.5-2.5-2.5Z"/>
  </g>
</svg>