<?xml version="1.0" encoding="UTF-8"?>
<svg id="OBJECT" xmlns="http://www.w3.org/2000/svg" viewBox="0 0 32 32">
  <defs>
    <style>
      .cls-1 {
        fill: #FD4360;
      }

      .cls-1, .cls-2 {
        stroke-width: 0px;
      }

      .cls-2 {
        fill: #dadada;
      }
    </style>
  </defs>
  <path class="cls-2" d="m30,25h-.5v-1c0-1.97-.96-3.78-2.56-4.89.03-.2.06-.4.06-.61v-1.5c0-1.65-1.35-3-3-3h-1c-1.65,0-3,1.35-3,3v1.5c0,.21.03.41.06.61-1.6,1.11-2.56,2.92-2.56,4.89v1h-3v-1c0-1.97-.96-3.78-2.56-4.89.03-.2.06-.4.06-.61v-1.5c0-1.65-1.35-3-3-3h-1c-1.65,0-3,1.35-3,3v1.5c0,.21.03.41.06.61-1.6,1.11-2.56,2.92-2.56,4.89v1h-.5c-.55,0-1,.45-1,1v2c0,1.65,1.35,3,3,3h24c1.65,0,3-1.35,3-3v-2c0-.55-.45-1-1-1Zm-8-8c0-.55.45-1,1-1h1c.55,0,1,.45,1,1v1.5c0,.83-.67,1.5-1.5,1.5s-1.5-.67-1.5-1.5v-1.5Zm-2.5,7c0-1.21.56-2.33,1.49-3.08.64.66,1.53,1.08,2.51,1.08s1.88-.42,2.51-1.08c.93.75,1.49,1.86,1.49,3.08v1h-8v-1Zm-12.5-7c0-.55.45-1,1-1h1c.55,0,1,.45,1,1v1.5c0,.83-.67,1.5-1.5,1.5s-1.5-.67-1.5-1.5v-1.5Zm-2.5,7c0-1.21.56-2.33,1.49-3.08.64.66,1.53,1.08,2.51,1.08s1.88-.42,2.51-1.08c.93.75,1.49,1.86,1.49,3.08v1H4.5v-1Zm24.5,4c0,.55-.45,1-1,1H4c-.55,0-1-.45-1-1v-1h26v1Z"/>
  <g>
    <path class="cls-1" d="m20.56,7.11c-.82,1.7-2.55,2.89-4.56,2.89s-3.74-1.19-4.56-2.89c-.89,1.05-1.44,2.4-1.44,3.89,0,1.66,1.34,3,3,3h6c1.66,0,3-1.34,3-3,0-1.48-.54-2.84-1.44-3.89Z"/>
    <path class="cls-1" d="m16,8c1.7,0,3.08-1.38,3.08-3.08v-1.25c0-1.47-1.2-2.67-2.67-2.67h-.83c-1.47,0-2.67,1.2-2.67,2.67v1.25c0,1.7,1.38,3.08,3.08,3.08Z"/>
  </g>
</svg>