<?xml version="1.0" encoding="UTF-8"?>
<svg id="OBJECT" xmlns="http://www.w3.org/2000/svg" viewBox="0 0 32 32">
  <defs>
    <style>
      .cls-1 {
        fill: #FD4360;
      }

      .cls-1, .cls-2 {
        stroke-width: 0px;
      }

      .cls-2 {
        fill: #dadada;
      }
    </style>
  </defs>
  <path class="cls-1" d="m8.5,16c4.14,0,7.5-3.36,7.5-7.5S12.64,1,8.5,1,1,4.36,1,8.5s3.36,7.5,7.5,7.5Zm.6-6.5h-1.2c-1.21,0-2.2-.99-2.2-2.2,0-1.08.78-1.97,1.81-2.16v-.24c0-.55.45-1,1-1s1,.45,1,1v.2h.81c.55,0,1,.45,1,1s-.45,1-1,1h-2.41c-.11,0-.2.09-.2.2s.09.2.2.2h1.2c1.21,0,2.2.99,2.2,2.2,0,1.08-.78,1.97-1.81,2.16v.24c0,.55-.45,1-1,1s-1-.45-1-1v-.2h-.81c-.55,0-1-.45-1-1s.45-1,1-1h2.41c.11,0,.2-.09.2-.2s-.09-.2-.2-.2Z"/>
  <path class="cls-2" d="m30,29h-2v-13.5c0-1.38-1.12-2.5-2.5-2.5h-2c-1.38,0-2.5,1.12-2.5,2.5v13.5h-1.5v-9.5c0-1.38-1.12-2.5-2.5-2.5h-2c-1.38,0-2.5,1.12-2.5,2.5v9.5h-1.5v-5.5c0-1.38-1.12-2.5-2.5-2.5h-2c-1.38,0-2.5,1.12-2.5,2.5v5.5h-2c-.55,0-1,.45-1,1s.45,1,1,1h28c.55,0,1-.45,1-1s-.45-1-1-1Zm-7-13.5c0-.28.22-.5.5-.5h2c.28,0,.5.22.5.5v13.5h-3v-13.5Zm-8.5,4c0-.28.22-.5.5-.5h2c.28,0,.5.22.5.5v9.5h-3v-9.5Zm-8.5,4c0-.28.22-.5.5-.5h2c.28,0,.5.22.5.5v5.5h-3v-5.5Z"/>
</svg>