<?xml version="1.0" encoding="UTF-8"?>
<svg id="OBJECT" xmlns="http://www.w3.org/2000/svg" viewBox="0 0 32 32">
  <defs>
    <style>
      .cls-1 {
        fill: #FD4360;
      }

      .cls-1, .cls-2 {
        stroke-width: 0px;
      }

      .cls-2 {
        fill: #dadada;
      }
    </style>
  </defs>
  <path class="cls-2" d="m27,25h-10v-1.27h3c2.76,0,5-2.24,5-5v-1c0-.55-.45-1-1-1h-4c-1.13,0-2.16.39-3,1.03v-.25c0-.55-.45-1-1-1s-1,.45-1,1v7.5H5c-.55,0-1,.45-1,1s.45,1,1,1h1.38l1.72,3.45c.17.34.52.55.89.55h14c.38,0,.72-.21.89-.55l1.72-3.45h1.38c.55,0,1-.45,1-1s-.45-1-1-1Zm-7-6.27h3c0,1.65-1.35,3-3,3h-3c0-1.65,1.35-3,3-3Zm2.38,10.27h-12.76l-1-2h14.76l-1,2Z"/>
  <path class="cls-1" d="m7.66,14.2h16.67c1.19,0,2.16-.97,2.16-2.16V3.16c0-1.19-.97-2.16-2.16-2.16H7.66c-1.19,0-2.16.97-2.16,2.16v8.87c0,1.19.97,2.16,2.16,2.16Zm12.6-7.51h1.55c.5,0,.91.41.91.91s-.41.91-.91.91h-1.55c-.5,0-.91-.41-.91-.91s.41-.91.91-.91Zm-3.76,1.83h-1c-1.06,0-1.92-.86-1.92-1.92,0-.92.65-1.68,1.51-1.87v-.14c0-.5.41-.91.91-.91s.91.41.91.91v.09h.59c.5,0,.91.41.91.91s-.41.91-.91.91h-2.01s-.09.04-.09.09.04.09.09.09h1c1.06,0,1.92.86,1.92,1.92,0,.92-.65,1.68-1.51,1.87v.14c0,.5-.41.91-.91.91s-.91-.41-.91-.91v-.09h-.59c-.5,0-.91-.41-.91-.91s.41-.91.91-.91h2.01s.09-.04.09-.09-.04-.09-.09-.09Zm-6.31-1.83h1.55c.5,0,.91.41.91.91s-.41.91-.91.91h-1.55c-.5,0-.91-.41-.91-.91s.41-.91.91-.91Z"/>
</svg>