<?xml version="1.0" encoding="UTF-8"?>
<svg id="OBJECT" xmlns="http://www.w3.org/2000/svg" viewBox="0 0 32 32">
  <defs>
    <style>
      .cls-1 {
        fill: #FD4360;
      }

      .cls-1, .cls-2 {
        stroke-width: 0px;
      }

      .cls-2 {
        fill: #dadada;
      }
    </style>
  </defs>
  <g>
    <path class="cls-2" d="m5,1c-.55,0-1,.45-1,1v1h-2c-.55,0-1,.45-1,1s.45,1,1,1h2v2.62h-2c-.55,0-1,.45-1,1s.45,1,1,1h2v2.62h-2c-.55,0-1,.45-1,1s.45,1,1,1h2v2.62h-2c-.55,0-1,.45-1,1s.45,1,1,1h2v2.62h-2c-.55,0-1,.45-1,1s.45,1,1,1h2v1c0,.55.45,1,1,1s1-.45,1-1V2c0-.55-.45-1-1-1Z"/>
    <path class="cls-2" d="m27.9,20.98s-3.03.29-5.07-1.47c-1.17-1.01-1.8-2.53-1.89-4.53,0-.03,0-.06,0-.09,3.4-.79,5.35-3.09,6.43-5.13,1.46-2.77,1.64-5.59,1.64-5.7.03-.55-.39-1.02-.94-1.06-.58-.04-1.02.39-1.06.94-.02.35-.53,7.46-6.33,8.96C18.81,4.29,8.22,3.02,8.11,3.01c-.54-.05-1.04.34-1.1.88-.06.55.33,1.04.88,1.1.4.04,9.14,1.11,10.79,8.18-.32,0-.65,0-1-.01-3.43-.2-6.12.62-8,2.42-2.71,2.6-2.68,6.27-2.68,6.43,0,.55.46.98,1,.98h.01c.55,0,.99-.46.99-1.01,0-.03,0-2.98,2.08-4.97,1.47-1.4,3.66-2.03,6.48-1.86.48.03.94.02,1.38,0,.13,2.52.99,4.5,2.57,5.86,2.02,1.75,4.64,1.97,5.88,1.97.41,0,.67-.02.71-.03.55-.06.95-.55.89-1.1-.06-.55-.54-.96-1.1-.89Z"/>
  </g>
  <path class="cls-1" d="m4,27.5v1.5c0,1.1.9,2,2,2h23c1.1,0,2-.9,2-2v-1.5H4Z"/>
</svg>