<?xml version="1.0" encoding="UTF-8"?>
<svg id="OBJECT" xmlns="http://www.w3.org/2000/svg" viewBox="0 0 32 32">
  <defs>
    <style>
      .cls-1 {
        fill: #FD4360;
      }

      .cls-1, .cls-2 {
        stroke-width: 0px;
      }

      .cls-2 {
        fill: #dadada;
      }
    </style>
  </defs>
  <path class="cls-2" d="m25,17.5h-9.33c-.92,0-1.72-.62-1.94-1.51l-2.21-8.83c-.06-.26-.23-.48-.46-.62-.23-.14-.51-.17-.76-.11C4.66,7.92.84,13.04,1.01,18.87c.18,6.44,5.57,11.88,12,12.12.17,0,.33,0,.5,0,3.25,0,6.31-1.23,8.66-3.49,2.47-2.38,3.83-5.58,3.83-9.01,0-.55-.45-1-1-1Zm-22,1.31c-.13-4.56,2.64-8.59,6.83-10.14l1.95,7.8c.13.52.37.99.67,1.4l-4.85,9.27c-2.69-1.86-4.52-4.93-4.61-8.33Zm17.77,7.26c-2.08,2-4.8,3.02-7.7,2.92-1.31-.05-2.56-.36-3.72-.87l4.69-8.97c.5.22,1.04.35,1.62.35h8.28c-.23,2.5-1.34,4.8-3.17,6.57Z"/>
  <path class="cls-1" d="m17,1c-1.18,0-2.38.16-3.59.48-.53.14-.85.68-.71,1.21l2.83,11.32c.29,1.17,1.34,1.99,2.55,1.99h11.92c.55,0,1-.45,1-1,0-7.72-6.28-14-14-14Zm4,12h-.5c-.55,0-1-.45-1-1s.45-1,1-1h.5c.55,0,1,.45,1,1s-.45,1-1,1Zm4,0h-.5c-.55,0-1-.45-1-1s.45-1,1-1h.5c.55,0,1,.45,1,1s-.45,1-1,1Z"/>
</svg>