<?xml version="1.0" encoding="UTF-8"?>
<svg id="OBJECT" xmlns="http://www.w3.org/2000/svg" viewBox="0 0 32 32">
  <defs>
    <style>
      .cls-1 {
        fill: #FD4360;
      }

      .cls-2 {
        fill: #dadada;
      }
    </style>
  </defs>
  <g>
    <path class="cls-2" d="M27,1H7c-1.65,0-3,1.35-3,3V28c0,1.65,1.35,3,3,3H27c.55,0,1-.45,1-1V2c0-.55-.45-1-1-1ZM7,3H26V23H7c-.35,0-.69,.07-1,.18V4c0-.55,.45-1,1-1ZM26,29H7c-.55,0-1-.45-1-1v-2c0-.55,.45-1,1-1H26v4Z"/>
    <path class="cls-2" d="M9,28.08h2c.55,0,1-.45,1-1s-.45-1-1-1h-2c-.55,0-1,.45-1,1s.45,1,1,1Z"/>
    <path class="cls-2" d="M15,28.08h8c.55,0,1-.45,1-1s-.45-1-1-1H15c-.55,0-1,.45-1,1s.45,1,1,1Z"/>
  </g>
  <g>
    <circle class="cls-1" cx="16" cy="11.25" r="2.25"/>
    <path class="cls-1" d="M16,5c-3.58,0-6.5,2.8-6.5,6.25,0,5.91,5.74,9.46,5.98,9.6,.16,.1,.34,.15,.52,.15s.36-.05,.52-.15c.24-.15,5.98-3.7,5.98-9.6,0-3.45-2.92-6.25-6.5-6.25Zm0,10.5c-2.34,0-4.25-1.91-4.25-4.25s1.91-4.25,4.25-4.25,4.25,1.91,4.25,4.25-1.91,4.25-4.25,4.25Z"/>
  </g>
</svg>