<?xml version="1.0" encoding="UTF-8"?>
<svg id="OBJECT" xmlns="http://www.w3.org/2000/svg" viewBox="0 0 512 512">
  <defs>
    <style>
      .cls-1 {
        fill: #FD4360;
      }

      .cls-2 {
        fill: #dadada;
      }
    </style>
  </defs>
  <g>
    <path class="cls-2" d="M501.62,168.34c-1.39-2.09-3.73-3.34-6.24-3.34h-23.41v-12.5c0-12.41-10.09-22.5-22.5-22.5h-26v-27.5c0-15.16-12.34-27.5-27.5-27.5h-51V22.5c0-12.41-10.09-22.5-22.5-22.5h-20c-5.76,0-11.02,2.18-15,5.75-3.98-3.57-9.24-5.75-15-5.75h-20c-12.41,0-22.5,10.09-22.5,22.5v17.5H47.5c-4.14,0-7.5,3.36-7.5,7.5v82.5H7.5C3.36,130,0,133.36,0,137.5v130C0,271.64,3.36,275,7.5,275H413.4l-10.86,27.14c-1.91,4.77-6.46,7.86-11.6,7.86H247.48c-4.14,0-7.5,3.36-7.5,7.5s3.36,7.5,7.5,7.5h143.45c11.31,0,21.33-6.79,25.53-17.29l13.08-32.71h19.92c12.41,0,22.5-10.09,22.5-22.5v-12.5h23.41c2.51,0,4.85-1.25,6.24-3.34,13.83-20.75,13.83-47.57,0-68.32Zm-105.65-78.34c6.89,0,12.5,5.61,12.5,12.5v27.5h-63.5v-40h51ZM302.48,15h20c4.14,0,7.5,3.36,7.5,7.5V162.5c0,4.14-3.36,7.5-7.5,7.5h-20c-4.14,0-7.5-3.36-7.5-7.5V22.5c0-4.14,3.36-7.5,7.5-7.5Zm-57.5,7.5c0-4.14,3.36-7.5,7.5-7.5h20c4.14,0,7.5,3.36,7.5,7.5V162.5c0,4.14-3.36,7.5-7.5,7.5h-20c-4.14,0-7.5-3.36-7.5-7.5V22.5ZM55,90.88h54.43l17,16.17c1.39,1.33,3.24,2.07,5.17,2.07h35.89c4.14,0,7.5-3.36,7.5-7.5s-3.36-7.5-7.5-7.5h-32.89l-17-16.17c-1.39-1.33-3.24-2.07-5.17-2.07H55v-20.88H229.99v75H55v-39.12ZM15,215H112.49c4.14,0,7.5,3.36,7.5,7.5v37.5H15v-45Zm441.97,37.5c0,4.14-3.36,7.5-7.5,7.5H134.99v-37.5c0-12.41-10.09-22.5-22.5-22.5H15v-55H229.99v17.5c0,12.41,10.09,22.5,22.5,22.5h20c5.76,0,11.02-2.18,15-5.75,3.98,3.57,9.24,5.75,15,5.75h20c12.41,0,22.5-10.09,22.5-22.5v-17.5h104.49c4.14,0,7.5,3.36,7.5,7.5v100Zm34.21-27.5h-19.21v-45h19.21c7.75,14.02,7.75,30.98,0,45Z"/>
    <path class="cls-2" d="M204.25,94.12h-8.09c-4.14,0-7.5,3.36-7.5,7.5s3.36,7.5,7.5,7.5h8.09c4.14,0,7.5-3.36,7.5-7.5s-3.36-7.5-7.5-7.5Z"/>
    <path class="cls-2" d="M424.47,200h-30c-9.65,0-17.5,7.85-17.5,17.5v10c0,9.65,7.85,17.5,17.5,17.5h30c9.65,0,17.5-7.85,17.5-17.5v-10c0-9.65-7.85-17.5-17.5-17.5Zm2.5,27.5c0,1.38-1.12,2.5-2.5,2.5h-30c-1.38,0-2.5-1.12-2.5-2.5v-10c0-1.38,1.12-2.5,2.5-2.5h30c1.38,0,2.5,1.12,2.5,2.5v10Z"/>
    <path class="cls-2" d="M344.48,200h-20c-9.65,0-17.5,7.85-17.5,17.5v10c0,9.65,7.85,17.5,17.5,17.5h20c9.65,0,17.5-7.85,17.5-17.5v-10c0-9.65-7.85-17.5-17.5-17.5Zm2.5,27.5c0,1.38-1.12,2.5-2.5,2.5h-20c-1.38,0-2.5-1.12-2.5-2.5v-10c0-1.38,1.12-2.5,2.5-2.5h20c1.38,0,2.5,1.12,2.5,2.5v10Z"/>
    <path class="cls-2" d="M282.48,300c4.14,0,7.5-3.36,7.5-7.5s-3.36-7.5-7.5-7.5h-10c-4.14,0-7.5,3.36-7.5,7.5s3.36,7.5,7.5,7.5h10Z"/>
    <path class="cls-2" d="M322.48,300c4.14,0,7.5-3.36,7.5-7.5s-3.36-7.5-7.5-7.5h-10c-4.14,0-7.5,3.36-7.5,7.5s3.36,7.5,7.5,7.5h10Z"/>
    <path class="cls-2" d="M362.48,300c4.14,0,7.5-3.36,7.5-7.5s-3.36-7.5-7.5-7.5h-10c-4.14,0-7.5,3.36-7.5,7.5s3.36,7.5,7.5,7.5h10Z"/>
    <path class="cls-2" d="M87.49,230H47.5c-4.14,0-7.5,3.36-7.5,7.5s3.36,7.5,7.5,7.5h40c4.14,0,7.5-3.36,7.5-7.5s-3.36-7.5-7.5-7.5Z"/>
  </g>
  <g>
    <path class="cls-1" d="M57.55,382H30.62l-20.46,121.25c-.37,2.18,.24,4.4,1.67,6.09,1.42,1.69,3.52,2.66,5.73,2.66h52.5v-117.5c0-6.89-5.61-12.5-12.5-12.5Z"/>
    <path class="cls-1" d="M168.82,305l-16.03,95h34.75c20.71,0,37.5-16.79,37.5-37.5v-57.5h-56.22Z"/>
    <path class="cls-1" d="M43.61,305l-10.46,62h24.4c15.16,0,27.5,12.34,27.5,27.5v117.5h33.63l34.93-207H43.61Z"/>
  </g>
</svg>