<?xml version="1.0" encoding="UTF-8"?>
<svg id="OBJECT" xmlns="http://www.w3.org/2000/svg" viewBox="0 0 32 32">
  <defs>
    <style>
      .cls-1 {
        fill: #FD4360;
      }

      .cls-1, .cls-2 {
        stroke-width: 0px;
      }

      .cls-2 {
        fill: #dadada;
      }
    </style>
  </defs>
  <g>
    <path class="cls-2" d="m28.5,9h-12c-1.38,0-2.5,1.12-2.5,2.5v1c0,1.38,1.12,2.5,2.5,2.5h12c1.38,0,2.5-1.12,2.5-2.5v-1c0-1.38-1.12-2.5-2.5-2.5Zm-12.5,3.5v-1c0-.28.22-.5.5-.5h8.5v2h-8.5c-.28,0-.5-.22-.5-.5Zm13,0c0,.28-.22.5-.5.5h-1.5v-2h1.5c.28,0,.5.22.5.5v1Z"/>
    <path class="cls-2" d="m28.5,17h-8c-1.38,0-2.5,1.12-2.5,2.5v1c0,1.38,1.12,2.5,2.5,2.5h8c1.38,0,2.5-1.12,2.5-2.5v-1c0-1.38-1.12-2.5-2.5-2.5Zm-8.5,3.5v-1c0-.28.22-.5.5-.5h4.5v2h-4.5c-.28,0-.5-.22-.5-.5Zm9,0c0,.28-.22.5-.5.5h-1.5v-2h1.5c.28,0,.5.22.5.5v1Z"/>
    <path class="cls-2" d="m12.64,19.87c.07-.3.11-.6.11-.92v-1.95c0-1.98-1.62-3.6-3.6-3.6h-1.3c-1.98,0-3.6,1.62-3.6,3.6v1.95c0,.32.04.62.11.92-2.08,1.38-3.36,3.69-3.36,6.23v1.95c0,1.63,1.32,2.95,2.95,2.95h9.1c1.63,0,2.95-1.32,2.95-2.95v-1.95c0-2.54-1.27-4.85-3.36-6.23Zm-6.39-2.87c0-.88.72-1.6,1.6-1.6h1.3c.88,0,1.6.72,1.6,1.6v1.95c0,1.24-1.01,2.25-2.25,2.25s-2.25-1.01-2.25-2.25v-1.95Zm7.75,11.05c0,.52-.43.95-.95.95H3.95c-.52,0-.95-.43-.95-.95v-1.95c0-1.78.85-3.41,2.26-4.43.78.93,1.93,1.53,3.24,1.53s2.46-.6,3.24-1.53c1.41,1.03,2.26,2.65,2.26,4.43v1.95Z"/>
  </g>
  <g>
    <path class="cls-1" d="m29.5,1h-2.5v6h2.5c.83,0,1.5-.67,1.5-1.5v-3c0-.83-.67-1.5-1.5-1.5Z"/>
    <path class="cls-1" d="m14,2.5v3c0,.83.67,1.5,1.5,1.5h9.5V1h-9.5c-.83,0-1.5.67-1.5,1.5Z"/>
  </g>
</svg>