<?xml version="1.0" encoding="UTF-8"?>
<svg id="OBJECT" xmlns="http://www.w3.org/2000/svg" viewBox="0 0 512 512">
  <defs>
    <style>
      .cls-1 {
        fill: #FD4360;
      }

      .cls-2 {
        fill: #dadada;
      }
    </style>
  </defs>
  <g>
    <path class="cls-2" d="M156,245h200c12.41,0,22.5-10.09,22.5-22.5V22.5c0-12.41-10.09-22.5-22.5-22.5H156c-12.41,0-22.5,10.09-22.5,22.5V222.5c0,12.41,10.09,22.5,22.5,22.5Zm-7.5-222.5c0-4.14,3.36-7.5,7.5-7.5h200c4.14,0,7.5,3.36,7.5,7.5V222.5c0,4.14-3.36,7.5-7.5,7.5H156c-4.14,0-7.5-3.36-7.5-7.5V22.5Z"/>
    <path class="cls-2" d="M494.5,282h-220c-9.65,0-17.5,7.85-17.5,17.5v15c0,9.65,7.85,17.5,17.5,17.5h220c9.65,0,17.5-7.85,17.5-17.5v-15c0-9.65-7.85-17.5-17.5-17.5Zm-222.5,32.5v-15c0-1.38,1.12-2.5,2.5-2.5h162.5v20h-162.5c-1.38,0-2.5-1.12-2.5-2.5Zm225,0c0,1.38-1.12,2.5-2.5,2.5h-42.5v-20h42.5c1.38,0,2.5,1.12,2.5,2.5v15Z"/>
    <path class="cls-2" d="M494.5,372h-220c-9.65,0-17.5,7.85-17.5,17.5v15c0,9.65,7.85,17.5,17.5,17.5h220c9.65,0,17.5-7.85,17.5-17.5v-15c0-9.65-7.85-17.5-17.5-17.5Zm-222.5,32.5v-15c0-1.38,1.12-2.5,2.5-2.5h102.5v20h-102.5c-1.38,0-2.5-1.12-2.5-2.5Zm225,0c0,1.38-1.12,2.5-2.5,2.5h-102.5v-20h102.5c1.38,0,2.5,1.12,2.5,2.5v15Z"/>
    <path class="cls-2" d="M494.5,462h-220c-9.65,0-17.5,7.85-17.5,17.5v15c0,9.65,7.85,17.5,17.5,17.5h220c9.65,0,17.5-7.85,17.5-17.5v-15c0-9.65-7.85-17.5-17.5-17.5Zm-222.5,32.5v-15c0-1.38,1.12-2.5,2.5-2.5h162.5v20h-162.5c-1.38,0-2.5-1.12-2.5-2.5Zm225,0c0,1.38-1.12,2.5-2.5,2.5h-42.5v-20h42.5c1.38,0,2.5,1.12,2.5,2.5v15Z"/>
    <path class="cls-2" d="M212.5,329.5h-47.5v-17.5c0-12.41-10.09-22.5-22.5-22.5h-50c-12.41,0-22.5,10.09-22.5,22.5v17.5H22.5c-12.41,0-22.5,10.09-22.5,22.5v47c0,2.88,1.65,5.5,4.24,6.75l5.76,2.79v73.46c0,12.41,10.09,22.5,22.5,22.5H202.5c12.41,0,22.5-10.09,22.5-22.5v-73.46l5.76-2.79c2.59-1.25,4.24-3.88,4.24-6.75v-47c0-12.41-10.09-22.5-22.5-22.5Zm-127.5-17.5c0-4.14,3.36-7.5,7.5-7.5h50c4.14,0,7.5,3.36,7.5,7.5v17.5H85v-17.5ZM15,352c0-4.14,3.36-7.5,7.5-7.5H212.5c4.14,0,7.5,3.36,7.5,7.5v42.29l-50.6,24.46c-1.01,.49-2.14,.75-3.26,.75H68.86c-1.12,0-2.25-.26-3.26-.75l-50.6-24.46v-42.29Zm90,82.5h25v17.5c0,4.14-3.36,7.5-7.5,7.5h-10c-4.14,0-7.5-3.36-7.5-7.5v-17.5Zm105,47.5c0,4.14-3.36,7.5-7.5,7.5H32.5c-4.14,0-7.5-3.36-7.5-7.5v-66.21l34.07,16.47c3.03,1.47,6.42,2.24,9.79,2.24h21.14v17.5c0,12.41,10.09,22.5,22.5,22.5h10c12.41,0,22.5-10.09,22.5-22.5v-17.5h21.14c3.37,0,6.76-.78,9.79-2.24l34.07-16.47v66.21Z"/>
    <path class="cls-2" d="M72.5,384.5h90c4.14,0,7.5-3.36,7.5-7.5s-3.36-7.5-7.5-7.5H72.5c-4.14,0-7.5,3.36-7.5,7.5s3.36,7.5,7.5,7.5Z"/>
    <path class="cls-2" d="M47.5,369.5h-10c-4.14,0-7.5,3.36-7.5,7.5s3.36,7.5,7.5,7.5h10c4.14,0,7.5-3.36,7.5-7.5s-3.36-7.5-7.5-7.5Z"/>
    <path class="cls-2" d="M187.5,384.5h10c4.14,0,7.5-3.36,7.5-7.5s-3.36-7.5-7.5-7.5h-10c-4.14,0-7.5,3.36-7.5,7.5s3.36,7.5,7.5,7.5Z"/>
  </g>
  <g>
    <path class="cls-1" d="M256,130c20.68,0,37.5-16.82,37.5-37.5v-30c0-15.16-12.34-27.5-27.5-27.5h-20c-15.16,0-27.5,12.34-27.5,27.5v30c0,20.68,16.82,37.5,37.5,37.5Z"/>
    <path class="cls-1" d="M304.16,113.37c-8.09,18.59-26.63,31.63-48.16,31.63s-40.07-13.04-48.16-31.63c-14.92,13.29-24.34,32.63-24.34,54.13v20c0,12.41,10.09,22.5,22.5,22.5h7.5v-17.5c0-4.14,3.36-7.5,7.5-7.5s7.5,3.36,7.5,7.5v17.5h55v-17.5c0-4.14,3.36-7.5,7.5-7.5s7.5,3.36,7.5,7.5v17.5h7.5c12.41,0,22.5-10.09,22.5-22.5v-20c0-21.5-9.42-40.84-24.34-54.13Z"/>
    <path class="cls-1" d="M341,30h-5c-4.14,0-7.5,3.36-7.5,7.5s3.36,7.5,7.5,7.5h5c4.14,0,7.5-3.36,7.5-7.5s-3.36-7.5-7.5-7.5Z"/>
    <path class="cls-1" d="M176,30h-5c-4.14,0-7.5,3.36-7.5,7.5s3.36,7.5,7.5,7.5h5c4.14,0,7.5-3.36,7.5-7.5s-3.36-7.5-7.5-7.5Z"/>
  </g>
</svg>