<?xml version="1.0" encoding="UTF-8"?>
<svg id="OBJECT" xmlns="http://www.w3.org/2000/svg" viewBox="0 0 32 32">
  <defs>
    <style>
      .cls-1 {
        fill: #FD4360;
      }

      .cls-2 {
        fill: #dadada;
      }
    </style>
  </defs>
  <g>
    <path class="cls-2" d="M28.5,12.75h-12c-1.38,0-2.5,1.12-2.5,2.5v1.5c0,1.38,1.12,2.5,2.5,2.5h12c1.38,0,2.5-1.12,2.5-2.5v-1.5c0-1.38-1.12-2.5-2.5-2.5Zm-12.5,4v-1.5c0-.28,.22-.5,.5-.5h2.5v2.5h-2.5c-.28,0-.5-.22-.5-.5Zm13,0c0,.28-.22,.5-.5,.5h-7.5v-2.5h7.5c.28,0,.5,.22,.5,.5v1.5Z"/>
    <path class="cls-2" d="M28.5,21.5h-12c-1.38,0-2.5,1.12-2.5,2.5v1.5c0,1.38,1.12,2.5,2.5,2.5h12c1.38,0,2.5-1.12,2.5-2.5v-1.5c0-1.38-1.12-2.5-2.5-2.5Zm-12.5,4v-1.5c0-.28,.22-.5,.5-.5h5v2.5h-5c-.28,0-.5-.22-.5-.5Zm13,0c0,.28-.22,.5-.5,.5h-5v-2.5h5c.28,0,.5,.22,.5,.5v1.5Z"/>
    <path class="cls-2" d="M28.5,4h-12c-1.38,0-2.5,1.12-2.5,2.5v1.5c0,1.38,1.12,2.5,2.5,2.5h12c1.38,0,2.5-1.12,2.5-2.5v-1.5c0-1.38-1.12-2.5-2.5-2.5Zm-12.5,4v-1.5c0-.28,.22-.5,.5-.5h7.5v2.5h-7.5c-.28,0-.5-.22-.5-.5Zm13,0c0,.28-.22,.5-.5,.5h-2.5v-2.5h2.5c.28,0,.5,.22,.5,.5v1.5Z"/>
    <path class="cls-2" d="M10.5,19H3.5c-1.38,0-2.5,1.12-2.5,2.5v4c0,1.38,1.12,2.5,2.5,2.5h7c1.38,0,2.5-1.12,2.5-2.5v-4c0-1.38-1.12-2.5-2.5-2.5Zm.5,6.5c0,.28-.22,.5-.5,.5H3.5c-.28,0-.5-.22-.5-.5v-4c0-.28,.22-.5,.5-.5h7c.28,0,.5,.22,.5,.5v4Z"/>
    <path class="cls-2" d="M5.25,22c-.55,0-1,.45-1,1v1c0,.55,.45,1,1,1s1-.45,1-1v-1c0-.55-.45-1-1-1Z"/>
    <path class="cls-2" d="M8.75,22c-.55,0-1,.45-1,1v1c0,.55,.45,1,1,1s1-.45,1-1v-1c0-.55-.45-1-1-1Z"/>
  </g>
  <g>
    <path class="cls-1" d="M11.46,10.01c-.82,1.65-2.5,2.79-4.46,2.79s-3.65-1.15-4.46-2.79c-.95,1.06-1.54,2.46-1.54,3.99v1.5c0,1.38,1.12,2.5,2.5,2.5h7c1.38,0,2.5-1.12,2.5-2.5v-1.5c0-1.53-.58-2.93-1.54-3.99Z"/>
    <path class="cls-1" d="M7,10.8c1.65,0,3-1.35,3-3v-1.2c0-1.43-1.17-2.6-2.6-2.6h-.8c-1.43,0-2.6,1.17-2.6,2.6v1.2c0,1.65,1.35,3,3,3Z"/>
  </g>
</svg>