<?xml version="1.0" encoding="UTF-8"?>
<svg id="OBJECT" xmlns="http://www.w3.org/2000/svg" viewBox="0 0 512 512">
  <defs>
    <style>
      .cls-1 {
        fill: #FD4360;
      }

      .cls-2 {
        fill: #dadada;
      }
    </style>
  </defs>
  <g>
    <path class="cls-2" d="M256,414.5c27.57,0,50-22.43,50-50,0-.4-.01-.8-.03-1.2v-.31c-.09-2.86-1.8-5.43-4.41-6.61-12.08-5.48-20.14-17.58-20.54-30.82-.09-2.86-1.79-5.42-4.4-6.61-6.52-2.96-13.46-4.46-20.63-4.46-27.57,0-50,22.43-50,50s22.43,50,50,50Zm0-85c3.58,0,7.08,.53,10.45,1.59,2.05,15.21,11.14,28.85,24.4,36.61-1.62,17.8-16.64,31.79-34.85,31.79-19.3,0-35-15.7-35-35s15.7-35,35-35Z"/>
    <path class="cls-2" d="M453.3,298.72l.96-4.34c1.49-6.7-.12-13.61-4.41-18.96s-10.69-8.42-17.55-8.42H79.7c-6.86,0-13.26,3.07-17.55,8.42s-5.9,12.26-4.41,18.96l.96,4.34C22.85,317,0,353.93,0,394.5v110c0,4.14,3.36,7.5,7.5,7.5H504.5c4.14,0,7.5-3.36,7.5-7.5v-110c0-40.57-22.85-77.5-58.7-95.78Zm-379.45-13.91c1.43-1.78,3.56-2.81,5.85-2.81H432.3c2.29,0,4.42,1.02,5.85,2.81,1.43,1.78,1.97,4.09,1.47,6.32l-34.64,155.87H107.02l-34.64-155.87c-.5-2.23,.04-4.54,1.47-6.32Zm364.65,212.19H73.5v-27.5c0-4.14,3.36-7.5,7.5-7.5H431c4.14,0,7.5,3.36,7.5,7.5v27.5ZM15,394.5c0-33.6,18.21-64.3,47.08-80.58l29.57,133.08h-10.65c-12.41,0-22.5,10.09-22.5,22.5v27.5H15v-102.5Zm482,102.5h-43.5v-27.5c0-12.41-10.09-22.5-22.5-22.5h-10.65l29.57-133.08c28.87,16.28,47.08,46.98,47.08,80.58v102.5Z"/>
  </g>
  <g>
    <path class="cls-1" d="M161,133.53c-26.48,10.5-54.55,24.82-80.24,44.29,2.06,4.97,4.53,9.81,7.42,14.44,7.98,12.8,17.26,32.09,24.44,59.74h59.86c-7.32-13.46-11.48-28.87-11.48-45.24v-73.23Z"/>
    <path class="cls-1" d="M220.21,114.81c-13.2,3.2-28.26,7.46-44.21,13.1v78.85c0,16.78,5.2,32.36,14.06,45.24h131.87c8.86-12.88,14.06-28.46,14.06-45.24V127.91c-15.95-5.63-31.01-9.9-44.21-13.1-23.41-5.67-48.16-5.67-71.57,0Zm78.19,89.99c3.14,2.71,3.48,7.44,.78,10.58-11.46,13.28-26.8,20.6-43.18,20.6s-31.71-7.32-43.18-20.6c-2.71-3.14-2.36-7.87,.78-10.58,3.14-2.71,7.87-2.36,10.58,.78,8.57,9.93,19.87,15.4,31.82,15.4s23.25-5.47,31.82-15.4c2.71-3.14,7.44-3.48,10.58-.78Z"/>
    <path class="cls-1" d="M351,206.76c0,16.37-4.16,31.78-11.48,45.24h59.86c7.18-27.64,16.46-46.94,24.44-59.74,2.89-4.64,5.36-9.47,7.42-14.44-25.69-19.46-53.76-33.78-80.24-44.28v73.23Z"/>
    <path class="cls-1" d="M409.12,70.92c-39.68-38.19-88.28-57.35-122.06-66.7-20.32-5.62-41.81-5.62-62.13,0-33.78,9.35-82.38,28.51-122.06,66.7-18.67,17.97-29.38,43.3-29.38,69.5v1.1c0,7.14,.83,14.25,2.43,21.19,47.6-34.75,101.92-53.07,140.75-62.47,25.72-6.23,52.91-6.23,78.63,0,38.83,9.41,93.15,27.72,140.75,62.47,1.6-6.94,2.43-14.04,2.43-21.19v-1.1c0-26.2-10.71-51.53-29.38-69.5Z"/>
  </g>
</svg>