<?xml version="1.0" encoding="UTF-8"?>
<svg id="OBJECT" xmlns="http://www.w3.org/2000/svg" viewBox="0 0 512 512">
  <defs>
    <style>
      .cls-1 {
        fill: #FD4360;
      }

      .cls-2 {
        fill: #dadada;
      }
    </style>
  </defs>
  <g>
    <path class="cls-2" d="M504.5,447h-26V194.5c0-15.16-12.34-27.5-27.5-27.5h-70c-4.14,0-7.5,3.36-7.5,7.5s3.36,7.5,7.5,7.5h70c6.89,0,12.5,5.61,12.5,12.5v252.5H48.5V194.5c0-6.89,5.61-12.5,12.5-12.5h70c4.14,0,7.5-3.36,7.5-7.5s-3.36-7.5-7.5-7.5H61c-15.16,0-27.5,12.34-27.5,27.5v252.5H7.5c-4.14,0-7.5,3.36-7.5,7.5v30c0,15.16,12.34,27.5,27.5,27.5H484.5c15.16,0,27.5-12.34,27.5-27.5v-30c0-4.14-3.36-7.5-7.5-7.5Zm-7.5,37.5c0,6.89-5.61,12.5-12.5,12.5H27.5c-6.89,0-12.5-5.61-12.5-12.5v-22.5H497v22.5Z"/>
    <path class="cls-2" d="M108.5,374.5v20c0,15.16,12.34,27.5,27.5,27.5h240c15.16,0,27.5-12.34,27.5-27.5v-20c0-15.16-12.34-27.5-27.5-27.5H136c-15.16,0-27.5,12.34-27.5,27.5Zm280,0v20c0,6.89-5.61,12.5-12.5,12.5H136c-6.89,0-12.5-5.61-12.5-12.5v-20c0-6.89,5.61-12.5,12.5-12.5h240c6.89,0,12.5,5.61,12.5,12.5Z"/>
    <path class="cls-2" d="M298.5,392h10c4.14,0,7.5-3.36,7.5-7.5s-3.36-7.5-7.5-7.5h-10c-4.14,0-7.5,3.36-7.5,7.5s3.36,7.5,7.5,7.5Z"/>
    <path class="cls-2" d="M251,392h10c4.14,0,7.5-3.36,7.5-7.5s-3.36-7.5-7.5-7.5h-10c-4.14,0-7.5,3.36-7.5,7.5s3.36,7.5,7.5,7.5Z"/>
    <path class="cls-2" d="M203.5,392h10c4.14,0,7.5-3.36,7.5-7.5s-3.36-7.5-7.5-7.5h-10c-4.14,0-7.5,3.36-7.5,7.5s3.36,7.5,7.5,7.5Z"/>
    <path class="cls-2" d="M156,392h10c4.14,0,7.5-3.36,7.5-7.5s-3.36-7.5-7.5-7.5h-10c-4.14,0-7.5,3.36-7.5,7.5s3.36,7.5,7.5,7.5Z"/>
    <path class="cls-2" d="M346,392h10c4.14,0,7.5-3.36,7.5-7.5s-3.36-7.5-7.5-7.5h-10c-4.14,0-7.5,3.36-7.5,7.5s3.36,7.5,7.5,7.5Z"/>
  </g>
  <g>
    <path class="cls-1" d="M136,65h240c4.14,0,7.5-3.36,7.5-7.5s-3.36-7.5-7.5-7.5H136c-4.14,0-7.5,3.36-7.5,7.5s3.36,7.5,7.5,7.5Z"/>
    <path class="cls-1" d="M376,260H136c-4.14,0-7.5,3.36-7.5,7.5s3.36,7.5,7.5,7.5h240c4.14,0,7.5-3.36,7.5-7.5s-3.36-7.5-7.5-7.5Z"/>
    <path class="cls-1" d="M283.5,15c0-8.28-6.72-15-15-15h-25c-8.28,0-15,6.72-15,15v20h55V15Z"/>
    <path class="cls-1" d="M283.5,95.43v-15.43h-55v15.43c8.49-3.49,17.77-5.43,27.5-5.43s19.01,1.94,27.5,5.43Z"/>
    <path class="cls-1" d="M228.5,229.57v15.43h55v-15.43c-8.49,3.49-17.77,5.43-27.5,5.43s-19.01-1.94-27.5-5.43Z"/>
    <path class="cls-1" d="M228.5,310c0,8.28,6.72,15,15,15h25c8.28,0,15-6.72,15-15v-20h-55v20Z"/>
    <path class="cls-1" d="M213.5,103.82v-23.82h-60V245h60v-23.82c-18.16-13.19-30-34.57-30-58.68s11.84-45.49,30-58.68Z"/>
    <path class="cls-1" d="M358.5,15c0-8.28-6.72-15-15-15h-30c-8.28,0-15,6.72-15,15v20h60V15Z"/>
    <path class="cls-1" d="M153.5,310c0,8.28,6.72,15,15,15h30c8.28,0,15-6.72,15-15v-20h-60v20Z"/>
    <path class="cls-1" d="M213.5,15c0-8.28-6.72-15-15-15h-30c-8.28,0-15,6.72-15,15v20h60V15Z"/>
    <path class="cls-1" d="M298.5,310c0,8.28,6.72,15,15,15h30c8.28,0,15-6.72,15-15v-20h-60v20Z"/>
    <path class="cls-1" d="M358.5,80h-60v23.82c18.16,13.19,30,34.57,30,58.68s-11.84,45.49-30,58.68v23.82h60V80Z"/>
    <path class="cls-1" d="M313.5,162.5c0-31.71-25.79-57.5-57.5-57.5s-57.5,25.79-57.5,57.5,25.79,57.5,57.5,57.5,57.5-25.79,57.5-57.5Zm-26.64,24.69c-1.48,1.85-3.66,2.81-5.86,2.81-1.64,0-3.3-.54-4.68-1.64l-21.25-17c-4.17-3.34-6.57-8.32-6.57-13.67v-30.19c0-4.14,3.36-7.5,7.5-7.5s7.5,3.36,7.5,7.5v30.19c0,.76,.34,1.47,.94,1.95l21.25,17c3.23,2.59,3.76,7.31,1.17,10.54Z"/>
  </g>
</svg>