<?xml version="1.0" encoding="UTF-8"?>
<svg id="OBJECT" xmlns="http://www.w3.org/2000/svg" viewBox="0 0 32 32">
  <defs>
    <style>
      .cls-1 {
        fill: #FD4360;
      }

      .cls-1, .cls-2 {
        stroke-width: 0px;
      }

      .cls-2 {
        fill: #dadada;
      }
    </style>
  </defs>
  <g>
    <path class="cls-2" d="m29.26,9.52l-2.16-1c-.31-.14-.66-.12-.95.06l-3.97,2.48c-.31.19-.48.53-.47.89l.09,2.15-6.12,3.82c-.47.29-.61.91-.32,1.38.29.47.91.61,1.38.32l5.95-3.71.63.63c.2.2.45.29.71.29s.51-.1.71-.29c.39-.39.39-1.02,0-1.41l-.91-.91-.08-1.76,3.02-1.88,1.67.77c.39.18.62.58.58,1l-.19,2.12c-1.2,1.18-6.62,6.32-12.23,8-.53.16-.83.72-.67,1.24.13.43.53.71.96.71.09,0,.19-.01.29-.04,6.83-2.04,13.08-8.5,13.34-8.78.16-.16.25-.38.27-.6l.22-2.48c.12-1.26-.57-2.46-1.73-3Z"/>
    <path class="cls-2" d="m20.05,10.29c.36.01.7-.16.89-.47l2.48-3.97c.18-.29.2-.64.06-.95l-1-2.16c-.54-1.15-1.74-1.84-2.99-1.72l-2.48.22c-.23.02-.44.12-.6.27-.27.26-6.73,6.51-8.78,13.35-.16.53.14,1.09.67,1.24.53.16,1.08-.14,1.24-.67,1.68-5.61,6.82-11.04,8-12.23l2.13-.19c.4-.04.82.19,1,.58l.77,1.67-1.88,3.02-1.76-.08-.91-.91c-.39-.39-1.02-.39-1.41,0s-.39,1.02,0,1.41l.63.63-3.71,5.95c-.29.47-.15,1.09.32,1.38.17.1.35.15.53.15.33,0,.66-.17.85-.47l3.82-6.12,2.15.09Z"/>
  </g>
  <path class="cls-1" d="m23.62,26h-3.46c-.72,0-1.42.26-1.98.75l-2.26,1.99c-.19.17-.43.26-.68.26H3v-.5l4.4-3.3s.06-.07.1-.11c.69.56,1.55.91,2.51.91,2.21,0,4-1.79,4-4s-1.79-4-4-4-4,1.79-4,4c0,.55.11,1.07.31,1.55-.04.02-.08.03-.11.05l-4.4,3.3c-.5.38-.8.98-.8,1.6v.5c0,1.1.9,2,2,2h12.24c.72,0,1.43-.26,1.99-.75l2.26-1.99c.19-.17.43-.26.67-.26h3.46c.55,0,1-.45,1-1s-.45-1-1-1Zm-14.58-4.46l.5-.5c.39-.39,1.02-.39,1.41,0s.39,1.02,0,1.41l-.5.5c-.2.2-.45.29-.71.29s-.51-.1-.71-.29c-.39-.39-.39-1.02,0-1.41Z"/>
  <path class="cls-1" d="m27,26h-.42c-.55,0-1,.45-1,1s.45,1,1,1h.42c.55,0,1-.45,1-1s-.45-1-1-1Z"/>
</svg>