<?xml version="1.0" encoding="UTF-8"?>
<svg id="OBJECT" xmlns="http://www.w3.org/2000/svg" viewBox="0 0 32 32">
  <defs>
    <style>
      .cls-1 {
        fill: #FD4360;
      }

      .cls-1, .cls-2 {
        stroke-width: 0px;
      }

      .cls-2 {
        fill: #dadada;
      }
    </style>
  </defs>
  <g>
    <path class="cls-2" d="m23.7,9.15c.2.2.45.29.71.29s.51-.1.71-.29c.39-.39.39-1.02,0-1.41l-.88-.88c-.39-.39-1.02-.39-1.41,0-.39.39-.39,1.02,0,1.41l.88.88Z"/>
    <path class="cls-2" d="m20.88,12.97c.26,0,.51-.1.71-.29.39-.39.39-1.02,0-1.41l-.88-.88c-.39-.39-1.02-.39-1.41,0-.39.39-.39,1.02,0,1.41l.88.88c.2.2.45.29.71.29Z"/>
    <path class="cls-2" d="m17.17,13.92c-.39-.39-1.02-.39-1.41,0-.39.39-.39,1.02,0,1.41l.88.88c.2.2.45.29.71.29s.51-.1.71-.29c.39-.39.39-1.02,0-1.41l-.88-.88Z"/>
    <path class="cls-2" d="m28.92,11.53l1.06-1.06c1.36-1.36,1.36-3.58,0-4.95l-3.53-3.53c-1.32-1.32-3.63-1.32-4.95,0l-1.06,1.06-1.06-1.06c-.39-.39-1.02-.39-1.41,0s-.39,1.02,0,1.41l1.06,1.06-2.12,2.12-1.06-1.06c-.39-.39-1.02-.39-1.41,0s-.39,1.02,0,1.41l1.06,1.06-2.12,2.12-1.06-1.06c-.39-.39-1.02-.39-1.41,0s-.39,1.02,0,1.41l1.06,1.06-1.06,1.06c-1.36,1.36-1.36,3.58,0,4.95l3.53,3.53c.68.68,1.58,1.02,2.47,1.02s1.79-.34,2.47-1.02l1.06-1.06,1.06,1.06c.2.2.45.29.71.29s.51-.1.71-.29c.39-.39.39-1.02,0-1.41l-1.06-1.06,2.12-2.12,1.06,1.06c.2.2.45.29.71.29s.51-.1.71-.29c.39-.39.39-1.02,0-1.41l-1.06-1.06,2.12-2.12,1.06,1.06c.2.2.45.29.71.29s.51-.1.71-.29c.39-.39.39-1.02,0-1.41l-1.06-1.06Zm-10.95,8.13c-.58.58-1.54.58-2.12,0l-3.53-3.53c-.58-.58-.58-1.53,0-2.12l8.83-8.83s0,0,0,0,0,0,0,0l1.77-1.77c.28-.28.66-.44,1.06-.44s.78.16,1.06.44l3.53,3.53c.58.58.58,1.54,0,2.12l-10.6,10.6Z"/>
  </g>
  <g>
    <path class="cls-1" d="m13.01,22.52l-3.53-3.53c-.17-.17-.3-.35-.44-.53l-4.29,4.29,4.51,4.51,4.29-4.29c-.18-.14-.37-.27-.53-.44Z"/>
    <path class="cls-1" d="m1.84,25.65c-1.12,1.12-1.12,2.94,0,4.06l.44.44c.56.56,1.3.84,2.03.84s1.47-.28,2.03-.84l1.5-1.5-4.51-4.51-1.5,1.5Z"/>
  </g>
</svg>