<?xml version="1.0" encoding="UTF-8"?>
<svg id="OBJECT" xmlns="http://www.w3.org/2000/svg" viewBox="0 0 32 32">
  <defs>
    <style>
      .cls-1 {
        fill: #FD4360;
      }

      .cls-1, .cls-2 {
        stroke-width: 0px;
      }

      .cls-2 {
        fill: #dadada;
      }
    </style>
  </defs>
  <path class="cls-2" d="m31,4.3c0-.89-.35-1.73-.98-2.36-1.26-1.26-3.45-1.26-4.71,0l-.96.96-.51-.51c-.39-.39-1.02-.39-1.41,0s-.39,1.02,0,1.41l.51.51-7.11,7.11-2.46-2.46,5.2-5.2c.39-.39.39-1.02,0-1.41-.39-.39-1.02-.39-1.41,0l-7.39,7.39c-.58.58-.91,1.36-.91,2.19s.32,1.6.91,2.18l1.69,1.69-2.13,2.13-.51-.51c-.39-.39-1.02-.39-1.41,0s-.39,1.02,0,1.41l5.77,5.77c.2.2.45.29.71.29s.51-.1.71-.29c.39-.39.39-1.02,0-1.41l-.55-.55,13.61-13.61.55.55c.2.2.45.29.71.29s.51-.1.71-.29c.39-.39.39-1.02,0-1.41l-.55-.55.96-.96c.63-.63.98-1.47.98-2.36ZM11.19,12.69c-.21-.21-.32-.48-.32-.77s.11-.56.32-.77l.77-.77,2.46,2.46-1.54,1.54-1.69-1.69Zm1.44,8.53l-1.88-1.88,2.76-2.76s.07-.03.09-.06.04-.06.06-.09l10.69-10.69,1.88,1.88-13.61,13.61ZM25.77,4.32l.96-.96c.5-.5,1.38-.5,1.88,0,.25.25.39.59.39.94s-.14.69-.39.94l-.96.96-1.88-1.88Z"/>
  <g>
    <rect class="cls-1" x="6.53" y="20.76" width="2.75" height="6.67" transform="translate(-14.72 12.65) rotate(-45)"/>
    <path class="cls-1" d="m1.8,25.48c-1.07,1.07-1.07,2.82,0,3.89l.82.82c.54.54,1.24.8,1.94.8s1.41-.27,1.94-.8l1.36-1.36-4.71-4.71-1.36,1.36Z"/>
  </g>
</svg>