<?xml version="1.0" encoding="UTF-8"?>
<svg id="OBJECT" xmlns="http://www.w3.org/2000/svg" viewBox="0 0 32 32">
  <defs>
    <style>
      .cls-1 {
        fill: #FD4360;
      }

      .cls-1, .cls-2 {
        stroke-width: 0px;
      }

      .cls-2 {
        fill: #dadada;
      }
    </style>
  </defs>
  <g>
    <path class="cls-2" d="m10,19.5h12c.55,0,1-.45,1-1s-.45-1-1-1h-12c-.55,0-1,.45-1,1s.45,1,1,1Z"/>
    <path class="cls-2" d="m6.25,19.5h.5c.55,0,1-.45,1-1s-.45-1-1-1h-.5c-.55,0-1,.45-1,1s.45,1,1,1Z"/>
    <path class="cls-2" d="m25.25,19.5h.5c.55,0,1-.45,1-1s-.45-1-1-1h-.5c-.55,0-1,.45-1,1s.45,1,1,1Z"/>
    <path class="cls-2" d="m26,13H6c-2.76,0-5,2.24-5,5v7c0,1.65,1.35,3,3,3h1.5c.55,0,1-.45,1-1v-3h2v3c0,.55.45,1,1,1s1-.45,1-1v-3h2.33v3c0,.55.45,1,1,1s1-.45,1-1v-3h2.33v3c0,.55.45,1,1,1s1-.45,1-1v-3h2.33v3c0,.55.45,1,1,1s1-.45,1-1v-3h2v3c0,.55.45,1,1,1h1.5c1.65,0,3-1.35,3-3v-7c0-2.76-2.24-5-5-5Zm-20,2h20c1.65,0,3,1.35,3,3v4H3v-4c0-1.65,1.35-3,3-3Zm-1.5,11h-.5c-.55,0-1-.45-1-1v-1h1.5v2Zm23.5,0h-.5v-2h1.5v1c0,.55-.45,1-1,1Z"/>
  </g>
  <path class="cls-1" d="m10.67,11h10.65l.91-3.18c.26-.91.08-1.87-.49-2.63-.57-.76-1.45-1.19-2.4-1.19h-6.7c-.95,0-1.82.44-2.4,1.19-.57.76-.75,1.72-.49,2.63l.91,3.18Zm3.83-4.5h3c.55,0,1,.45,1,1s-.45,1-1,1h-3c-.55,0-1-.45-1-1s.45-1,1-1Z"/>
</svg>