<?xml version="1.0" encoding="UTF-8"?>
<svg id="OBJECT" xmlns="http://www.w3.org/2000/svg" viewBox="0 0 32 32">
  <defs>
    <style>
      .cls-1 {
        fill: #FD4360;
      }

      .cls-1, .cls-2 {
        stroke-width: 0px;
      }

      .cls-2 {
        fill: #dadada;
      }
    </style>
  </defs>
  <g>
    <path class="cls-2" d="m16,11h-8c-2.21,0-4,1.79-4,4v15c0,.55.45,1,1,1h14c.55,0,1-.45,1-1v-15c0-2.21-1.79-4-4-4Zm-10,6h3c1.65,0,3,1.35,3,3v9h-6v-12Zm12,12h-4v-9c0-2.76-2.24-5-5-5h-3c0-1.1.9-2,2-2h8c1.1,0,2,.9,2,2v14Z"/>
    <path class="cls-2" d="m10,26h-2c-.55,0-1,.45-1,1s.45,1,1,1h2c.55,0,1-.45,1-1s-.45-1-1-1Z"/>
    <path class="cls-2" d="m10,22.5h-2c-.55,0-1,.45-1,1s.45,1,1,1h2c.55,0,1-.45,1-1s-.45-1-1-1Z"/>
    <path class="cls-2" d="m10,19h-2c-.55,0-1,.45-1,1s.45,1,1,1h2c.55,0,1-.45,1-1s-.45-1-1-1Z"/>
  </g>
  <g>
    <path class="cls-1" d="m25.8,2.8c-.91,0-2.7,1.06-3.43,1.52-.23.15-.37.4-.37.68s.14.53.37.68c.73.46,2.52,1.52,3.43,1.52,1.21,0,2.2-.99,2.2-2.2s-.99-2.2-2.2-2.2Z"/>
    <path class="cls-1" d="m18,4h-2v-1c0-1.1-.9-2-2-2h-4c-1.1,0-2,.9-2,2v6h8v-3h2c.55,0,1-.45,1-1s-.45-1-1-1Zm-5.5,2h-1c-.55,0-1-.45-1-1s.45-1,1-1h1c.55,0,1,.45,1,1s-.45,1-1,1Z"/>
  </g>
</svg>