<?xml version="1.0" encoding="UTF-8"?>
<svg id="OBJECT" xmlns="http://www.w3.org/2000/svg" viewBox="0 0 32 32">
  <defs>
    <style>
      .cls-1 {
        fill: #FD4360;
      }

      .cls-1, .cls-2 {
        stroke-width: 0px;
      }

      .cls-2 {
        fill: #dadada;
      }
    </style>
  </defs>
  <path class="cls-2" d="m27.63,12.07c-1.41-1.16-3.14-1.48-4.98-.96v-3.84c0-1.59-1.29-2.89-2.89-2.89-.31,0-.6.06-.89.14v-.64c0-1.59-1.29-2.89-2.89-2.89s-2.89,1.29-2.89,2.89v.64c-.28-.09-.57-.14-.89-.14-1.59,0-2.89,1.29-2.89,2.89v3.84c-1.84-.52-3.56-.2-4.98.96-.26.21-.39.54-.36.88.03.33.23.63.53.78.58.3,2.09,1.38,2.29,2.7v5.4c0,5.06,4.11,9.17,9.17,9.17s9.17-4.11,9.17-9.17v-5.4c.2-1.33,1.72-2.4,2.29-2.7.3-.15.5-.45.53-.78s-.1-.66-.36-.88Zm-4.46,4.17s0,.08,0,.12v5.46c0,3.95-3.22,7.17-7.17,7.17s-7.17-3.22-7.17-7.17v-5.46s0-.08,0-.12c-.17-1.43-1.09-2.54-1.92-3.27,1.08-.27,2.17.08,2.99.5.31.16.68.15.98-.04.3-.18.48-.5.48-.85v-5.31c0-.49.4-.89.89-.89s.89.32.89.69v7.51c0,.55.45,1,1,1s1-.45,1-1V3.89c0-.49.4-.89.89-.89s.89.4.89.89v10.69c0,.55.45,1,1,1s1-.45,1-1v-7.51c0-.37.41-.69.89-.69s.89.4.89.89v5.31c0,.35.18.67.48.85.3.18.67.19.98.04.82-.42,1.9-.77,2.99-.5-.83.73-1.75,1.84-1.92,3.27Z"/>
  <path class="cls-1" d="m20.99,21.12c-1.06-1.96-2.93-3.12-4.99-3.12s-3.92,1.17-4.99,3.12c-.46.85-.46,1.9,0,2.75,1.06,1.96,2.93,3.12,4.99,3.12s3.92-1.17,4.99-3.12c.46-.85.46-1.9,0-2.75Zm-4.49,2.38h-1c-.55,0-1-.45-1-1s.45-1,1-1h1c.55,0,1,.45,1,1s-.45,1-1,1Z"/>
</svg>