<?xml version="1.0" encoding="UTF-8"?>
<svg id="OBJECT" xmlns="http://www.w3.org/2000/svg" viewBox="0 0 32 32">
  <defs>
    <style>
      .cls-1 {
        fill: #FD4360;
      }

      .cls-1, .cls-2 {
        stroke-width: 0px;
      }

      .cls-2 {
        fill: #dadada;
      }
    </style>
  </defs>
  <path class="cls-2" d="m28.64,9.37l-6.01-6.01c-1.81-1.81-4.77-1.81-6.58,0L7.78,11.63c-1.81,1.81-1.81,4.77,0,6.58.26.26.26.68,0,.93l-4.89,4.88c-1.19,1.19-1.19,3.13,0,4.33l.75.75c.58.58,1.35.9,2.16.9s1.59-.32,2.16-.9l4.89-4.88c.26-.26.68-.26.93,0,.88.88,2.05,1.36,3.29,1.36s2.41-.48,3.29-1.36l8.27-8.27c1.81-1.81,1.81-4.77,0-6.58ZM4.97,27.78l-.75-.75c-.46-.46-.46-1.22,0-1.69l.15-.15,2.44,2.44-.15.15c-.45.45-1.24.45-1.69,0Zm22.35-13.15l-8.27,8.27c-1.05,1.05-2.89,1.05-3.94,0-.99-.99-2.59-.99-3.57,0l-3.32,3.32-2.44-2.44,3.32-3.32c.99-.99.99-2.59,0-3.57-1.09-1.09-1.09-2.85,0-3.94l8.27-8.27c.54-.54,1.26-.81,1.97-.81s1.43.27,1.97.81l6.01,6.01c1.09,1.09,1.09,2.85,0,3.94Z"/>
  <path class="cls-1" d="m26.22,10.15l-4.37-4.37c-1.14-1.14-3.13-1.14-4.27,0l-7.07,7.07c-.57.57-.88,1.33-.88,2.13s.31,1.56.88,2.13l4.37,4.37c.59.59,1.36.88,2.13.88s1.55-.29,2.13-.88l7.07-7.07c.57-.57.88-1.33.88-2.13s-.31-1.56-.88-2.13Zm-7.05,6.03l-1,.17c-.06,0-.11.01-.17.01-.48,0-.9-.34-.98-.83-.09-.54.27-1.06.82-1.15l1-.17c.55-.1,1.06.27,1.15.82s-.27,1.06-.82,1.15Zm1.37-3.28l-4.01.68c-.06,0-.11.01-.17.01-.48,0-.9-.34-.98-.83-.09-.54.27-1.06.82-1.15l4.01-.68c.55-.09,1.06.27,1.15.82.09.54-.27,1.06-.82,1.15Z"/>
</svg>