<?xml version="1.0" encoding="UTF-8" standalone="no"?>
<svg
   id="OBJECT"
   viewBox="0 0 32 32"
   version="1.1"
   sodipodi:docname="HandShacke.svg"
   xml:space="preserve"
   inkscape:version="1.2.2 (732a01da63, 2022-12-09)"
   xmlns:inkscape="http://www.inkscape.org/namespaces/inkscape"
   xmlns:sodipodi="http://sodipodi.sourceforge.net/DTD/sodipodi-0.dtd"
   xmlns="http://www.w3.org/2000/svg"
   xmlns:svg="http://www.w3.org/2000/svg"><sodipodi:namedview
     id="namedview23"
     pagecolor="#505050"
     bordercolor="#ffffff"
     borderopacity="1"
     inkscape:showpageshadow="0"
     inkscape:pageopacity="0"
     inkscape:pagecheckerboard="1"
     inkscape:deskcolor="#505050"
     showgrid="false"
     inkscape:zoom="4"
     inkscape:cx="-9.75"
     inkscape:cy="26"
     inkscape:window-width="1920"
     inkscape:window-height="1009"
     inkscape:window-x="-8"
     inkscape:window-y="-8"
     inkscape:window-maximized="1"
     inkscape:current-layer="OBJECT" /><defs
     id="defs4"><rect
       x="-282.99284"
       y="154.59794"
       width="57.646689"
       height="14.84839"
       id="rect246" /><style
       id="style2">
      .cls-1 {
        fill: #FD4360;
      }

      .cls-1, .cls-2 {
        stroke-width: 0px;
      }

      .cls-2 {
        fill: #dadada;
      }
    </style><clipPath
       clipPathUnits="userSpaceOnUse"
       id="clipPath2676"><path
         style="fill:#fb4461;fill-opacity:0.975982;stroke-width:2.451"
         d="m -260.12311,263.19037 0,-29.69678 29.69678,0 z"
         id="path2678" /></clipPath></defs><path
     style="fill:#fb4461;stroke-width:0.56635"
     d=""
     id="path401" /><text
     xml:space="preserve"
     id="text244"
     style="font-size:14.6667px;font-family:'Exo 2';-inkscape-font-specification:'Exo 2, ';text-align:justify;white-space:pre;shape-inside:url(#rect246);display:inline;fill:#dadada;fill-opacity:0.976471;stroke-width:2.451" /><g
     id="g915"
     transform="matrix(0.14185509,0,0,0.14185509,-16.655945,11.691078)"><path
       style="fill:#fc4461;fill-opacity:0.976471;stroke-width:2.451;stroke-opacity:0.976471"
       d="m 220.17537,-33.278213 c 0,0 -5.12652,-1.458408 -7.73398,-1.811961 -2.60745,-0.353553 -10.29724,0.53033 -10.29724,0.53033 0,0 -1.23744,0 -7.42462,3.447146 -6.18718,3.447145 -23.86485,16.175067 -23.86485,16.175067 l -0.44195,69.384853 h 9.54595 l 29.78687,26.870058 c 0,0 2.69584,2.342291 7.73398,2.740039 5.03814,0.397747 9.98788,-4.198447 9.98788,-4.198447 0,0 2.87262,-2.740039 3.53554,-3.800699 0.66291,-1.06066 1.54679,-3.623922 1.54679,-3.623922 0,0 5.3475,4.596194 7.15946,5.789437 1.81196,1.193242 3.93328,2.253903 3.93328,2.253903 0,0 1.41421,0.662912 3.71231,0.795495 2.2981,0.132582 4.02167,0.132582 4.02167,0.132582 0,0 2.78423,0.08839 6.67332,-3.889087 3.88909,-3.977476 3.53554,-6.010408 3.53554,-6.010408 0,0 3.88908,1.723573 5.83363,2.253903 1.94454,0.53033 4.11005,0.662913 5.61266,0.353554 1.5026,-0.30936 3.71231,-1.414214 3.71231,-1.414214 0,0 2.91681,-1.370019 5.39169,-5.038136 2.47487,-3.668116 2.82842,-6.054602 2.82842,-6.054602 0,0 2.20971,-5.259106 -2.78423,-10.474019 C 277.18586,45.917747 238.56015,10.69499 238.56015,10.69499 l -20.24093,15.114408 c 0,0 -12.37437,4.24264 -19.62221,-0.618719 -7.24785,-4.861359 -10.60661,-10.960155 -10.60661,-10.960155 0,0 -2.47487,-7.1594562 -1.41421,-12.1092037 1.06066,-4.9497474 3.35876,-9.3691648 3.35876,-9.3691648 0,0 2.12132,-2.7400388 3.44714,-4.1542525 1.32583,-1.414213 26.69328,-21.876116 26.69328,-21.876116 z"
       id="path362" /><path
       style="fill:#dadada;fill-opacity:1;stroke-width:2.451;stroke-opacity:0.976471"
       d="m 216.41887,14.363107 c 0,0 -7.07107,3.800698 -11.84404,1.149048 -4.77297,-2.65165 -6.27557,-5.9662134 -6.27557,-5.9662134 0,0 -2.12132,-3.8448932 -0.83969,-7.0710679 1.28163,-3.22617466 2.34229,-4.7287766 2.34229,-4.7287766 0,0 0.88388,-0.4419417 6.36396,-5.5684659 5.48008,-5.1265242 29.03557,-23.3345242 29.03557,-23.3345242 0,0 5.61111,-4.016759 14.86111,-4.016759 9.25,0 17.25,5.298652 17.25,5.298652 l 22.375,14.75 L 290,42.5 247.6875,3.5625 l 7,-5.25 c 0,0 2.375,-3.1875 1.25,-5.375 -1.125,-2.1875 -3.0625,-3.375 -3.0625,-3.375 0,0 -2.375,-1.6875 -6.125,0.8125 -3.75,2.5 -30.33113,23.988107 -30.33113,23.988107 z"
       id="path364" /><path
       style="fill:#fc4461;fill-opacity:0.976471;stroke-width:2.451;stroke-opacity:0.976471"
       d="m 159.625,-15.5 -24.75,0.125 c 0,0 -3.375,1 -4,3.875 -0.625,2.875 -0.125,68.375 -0.125,68.375 0,0 0.25,2.75 2.875,4.625 2.625,1.875 5.375,2.625 5.375,2.625 l 12.75,0.25 c 0,0 3.375,-0.75 5.75,-3 2.375,-2.25 2.625,-5.875 2.625,-5.875 z"
       id="path366" /><path
       style="fill:#dadada;fill-opacity:1;stroke-width:2.451;stroke-opacity:0.976471"
       d="m 300.78773,-15.483465 24.75,0.125 c 0,0 3.375,1 4,3.875 0.625,2.8749999 0.125,68.375 0.125,68.375 0,0 -0.25,2.75 -2.875,4.625 -2.625,1.875 -5.375,2.625 -5.375,2.625 l -12.75,0.25 c 0,0 -3.375,-0.75 -5.75,-3 -2.375,-2.25 -2.625,-5.875 -2.625,-5.875 z"
       id="path368" /><circle
       style="fill:#ffffff;fill-opacity:1;stroke-width:1.74634;stroke-opacity:0.976471"
       id="path905"
       cx="141.48592"
       cy="48.605267"
       r="5.038136" /><circle
       style="fill:#ffffff;fill-opacity:1;stroke-width:1.74634;stroke-opacity:0.976471"
       id="circle907"
       cx="317.20197"
       cy="48.605267"
       r="5.038136" /></g></svg>
