<?xml version="1.0" encoding="UTF-8"?>
<svg id="OBJECT" xmlns="http://www.w3.org/2000/svg" viewBox="0 0 32 32">
  <defs>
    <style>
      .cls-1 {
        fill: #FD4360;
      }

      .cls-1, .cls-2 {
        stroke-width: 0px;
      }

      .cls-2 {
        fill: #dadada;
      }
    </style>
  </defs>
  <path class="cls-2" d="m30,31h-3.93c-.34,0-.66-.18-.85-.47l-2.01-3.19c-.3-.48-.46-1.03-.46-1.6v-4.89c0-3.72-3.03-6.75-6.75-6.75s-6.75,3.03-6.75,6.75v4.89c0,.57-.16,1.12-.46,1.6l-2.01,3.19c-.18.29-.5.47-.85.47h-3.93c-.35,0-.67-.18-.85-.47s-.2-.66-.04-.97l1.89-3.79v-4.76c0-7.17,5.83-13,13-13s13,5.83,13,13v4.76l1.89,3.79c.16.31.14.68-.04.97s-.5.47-.85.47Zm-3.38-2h1.76l-1.28-2.55c-.07-.14-.11-.29-.11-.45v-5c0-6.07-4.93-11-11-11s-11,4.93-11,11v5c0,.16-.04.31-.11.45l-1.28,2.55h1.76l1.72-2.72c.1-.16.15-.34.15-.53v-4.89c0-4.82,3.92-8.75,8.75-8.75s8.75,3.92,8.75,8.75v4.89c0,.19.05.38.15.53l1.72,2.72Z"/>
  <g>
    <path class="cls-1" d="m16.5,2h-1c-2.21,0-4,1.79-4,4v.69c1.42-.45,2.93-.69,4.5-.69s3.08.24,4.5.69v-.69c0-2.21-1.79-4-4-4Z"/>
    <path class="cls-1" d="m25.03,1h-.15c-.83,0-1.66.21-2.4.62l-1.27.7c.41.52.73,1.12.95,1.76l1.28-.7c.44-.24.93-.37,1.43-.37h.15c1.64,0,2.97,1.33,2.97,2.97,0,1.49-1.12,2.76-2.59,2.95l-.48.06c.66.49,1.28,1.03,1.86,1.63,1.89-.72,3.21-2.54,3.21-4.63,0-2.74-2.23-4.97-4.97-4.97Z"/>
    <path class="cls-1" d="m7.12,1h-.15c-2.74,0-4.97,2.23-4.97,4.97,0,2.1,1.33,3.91,3.21,4.63.57-.59,1.19-1.13,1.86-1.63l-.47-.06c-1.48-.19-2.6-1.46-2.6-2.95,0-1.64,1.33-2.97,2.97-2.97h.15c.5,0,.99.13,1.43.37l1.28.7c.22-.64.54-1.23.95-1.76l-1.27-.7c-.73-.4-1.56-.62-2.39-.62Z"/>
  </g>
</svg>