<?xml version="1.0" encoding="UTF-8"?>
<svg id="OBJECT" xmlns="http://www.w3.org/2000/svg" viewBox="0 0 512 512">
  <defs>
    <style>
      .cls-1 {
        fill: #FD4360;
      }

      .cls-2 {
        fill: #dadada;
      }
    </style>
  </defs>
  <path class="cls-2" d="M484.5,288.5h-35.59l-42.14-75.86c-4.85-8.72-14.06-14.14-24.04-14.14H63.85l-6.87-41.2c-1.82-10.89-11.15-18.8-22.19-18.8H7.5c-4.14,0-7.5,3.36-7.5,7.5v86.69c0,11.38,8.52,20.99,19.82,22.34l149.36,17.89,33.32,83.29c4.2,10.5,14.22,17.29,25.53,17.29h46.46v50h-35c-4.14,0-7.5-3.36-7.5-7.5v-15c0-4.14-3.36-7.5-7.5-7.5s-7.5,3.36-7.5,7.5v15c0,12.41,10.09,22.5,22.5,22.5h210c12.41,0,22.5-10.09,22.5-22.5v-15c0-4.14-3.36-7.5-7.5-7.5s-7.5,3.36-7.5,7.5v15c0,4.14-3.36,7.5-7.5,7.5h-35v-50h90c4.14,0,7.5-3.36,7.5-7.5v-50c0-15.16-12.34-27.5-27.5-27.5Zm-90.84-68.57l38.09,68.57h-95.75c-12.41,0-22.5-10.09-22.5-22.5v-52.5h69.23c4.54,0,8.72,2.46,10.93,6.43ZM34.79,153.5c3.68,0,6.79,2.64,7.4,6.27l6.46,38.73H15v-45h19.79Zm254.71,220h20v50h-20v-50Zm75,0v50h-40v-50h40Zm35,50h-20v-50h20v50Zm97.5-65H228.04c-5.14,0-9.7-3.08-11.61-7.86l-34.43-86.09v-28.56c0-4.14-3.36-7.5-7.5-7.5s-7.5,3.36-7.5,7.5v21.55L21.61,240.14c-3.77-.45-6.61-3.65-6.61-7.45v-19.19H298.5v52.5c0,20.68,16.82,37.5,37.5,37.5h148.5c6.89,0,12.5,5.61,12.5,12.5v42.5Z"/>
  <g>
    <path class="cls-1" d="M411,83.5h-100c-1.16,0-2.31,.27-3.35,.79l-29.15,14.57v29.27l29.15,14.57c1.04,.52,2.19,.79,3.35,.79h130c4.14,0,7.5-3.36,7.5-7.5v-15c0-20.68-16.82-37.5-37.5-37.5Z"/>
    <path class="cls-1" d="M233.5,98.86l-29.15-14.57c-1.04-.52-2.19-.79-3.35-.79H71c-4.14,0-7.5,3.36-7.5,7.5v15c0,20.68,16.82,37.5,37.5,37.5h100c1.16,0,2.31-.27,3.35-.79l29.15-14.57v-29.27Z"/>
    <path class="cls-1" d="M286,158.5h-60c-3.44,0-6.44,2.34-7.28,5.68l-4.83,19.32h84.21l-4.83-19.32c-.83-3.34-3.83-5.68-7.28-5.68Z"/>
    <path class="cls-1" d="M263.5,81c0-4.14-3.36-7.5-7.5-7.5s-7.5,3.36-7.5,7.5v62.5h15v-62.5Z"/>
  </g>
</svg>