<?xml version="1.0" encoding="UTF-8"?>
<svg id="OBJECT" xmlns="http://www.w3.org/2000/svg" viewBox="0 0 32 32">
  <defs>
    <style>
      .cls-1 {
        fill: #FD4360;
      }

      .cls-1, .cls-2 {
        stroke-width: 0px;
      }

      .cls-2 {
        fill: #dadada;
      }
    </style>
  </defs>
  <path class="cls-2" d="m28,12H4c-1.65,0-3,1.35-3,3v2c0,.55.45,1,1,1h1v5.25c0,1.36.47,2.69,1.31,3.75l1.7,2.13c.96,1.19,2.38,1.88,3.9,1.88h12.15c1.53,0,2.95-.68,3.91-1.88l1.7-2.13c.85-1.06,1.32-2.39,1.32-3.75v-5.25h1c.55,0,1-.45,1-1v-2c0-1.65-1.35-3-3-3Zm-1.88,13.74l-1.7,2.13c-.57.72-1.43,1.13-2.34,1.13h-12.15c-.92,0-1.77-.41-2.34-1.13l-1.7-2.13c-.56-.71-.88-1.59-.88-2.5v-1.25h22v1.25c0,.91-.31,1.79-.88,2.5Zm.88-5.74H5v-2h22v2Zm2-4H3v-1c0-.55.45-1,1-1h24c.55,0,1,.45,1,1v1Z"/>
  <g>
    <path class="cls-1" d="m18.71,4.33c-.17-.23-.42-.37-.7-.4-2.75-.3-5.48,1.17-6.97,3.73-.43.75-.71,1.54-.87,2.34h9.64c.44-1.99.08-4.06-1.1-5.67Z"/>
    <path class="cls-1" d="m11.75,3.85c-1.43-1.65-3.4-2.7-5.55-2.85-.28-.01-.56.08-.76.28-2.25,2.17-3,5.56-1.97,8.72h4.68c.18-1.15.55-2.28,1.16-3.34.64-1.11,1.47-2.06,2.44-2.81Z"/>
  </g>
</svg>