<?xml version="1.0" encoding="UTF-8"?>
<svg id="OBJECT" xmlns="http://www.w3.org/2000/svg" viewBox="0 0 32 32">
  <defs>
    <style>
      .cls-1 {
        fill: #FD4360;
      }

      .cls-1, .cls-2 {
        stroke-width: 0px;
      }

      .cls-2 {
        fill: #dadada;
      }
    </style>
  </defs>
  <path class="cls-2" d="m22.5,12h-.5v-1c0-1.97-.96-3.78-2.56-4.89.03-.2.06-.4.06-.61v-1.5c0-1.65-1.35-3-3-3h-1c-1.65,0-3,1.35-3,3v1.5c0,.21.03.41.06.61-1.6,1.11-2.56,2.92-2.56,4.89v1h-.5c-.55,0-1,.45-1,1s.45,1,1,1h5.5v8h-1c-1.38,0-2.5,1.12-2.5,2.5v4c0,1.38,1.12,2.5,2.5,2.5h4c1.38,0,2.5-1.12,2.5-2.5v-4c0-1.38-1.12-2.5-2.5-2.5h-1v-8h5.5c.55,0,1-.45,1-1s-.45-1-1-1Zm-4,12.5v4c0,.28-.22.5-.5.5h-4c-.28,0-.5-.22-.5-.5v-4c0-.28.22-.5.5-.5h4c.28,0,.5.22.5.5ZM14.5,4c0-.55.45-1,1-1h1c.55,0,1,.45,1,1v1.5c0,.83-.67,1.5-1.5,1.5s-1.5-.67-1.5-1.5v-1.5Zm-2.5,7c0-1.21.56-2.33,1.49-3.08.64.66,1.53,1.08,2.51,1.08s1.88-.42,2.51-1.08c.93.75,1.49,1.86,1.49,3.08v1h-8v-1Z"/>
  <g>
    <path class="cls-1" d="m30,20.5h-1.5v-1.5c0-1.65-1.35-3-3-3h-6.5v2h6.5c.55,0,1,.45,1,1v1.5h-1.5c-.55,0-1,.45-1,1v5c0,.55.45,1,1,1h5c.55,0,1-.45,1-1v-5c0-.55-.45-1-1-1Z"/>
    <path class="cls-1" d="m3.5,19v1.5h-1.5c-.55,0-1,.45-1,1v5c0,.55.45,1,1,1h5c.55,0,1-.45,1-1v-5c0-.55-.45-1-1-1h-1.5v-1.5c0-.55.45-1,1-1h6.5v-2h-6.5c-1.65,0-3,1.35-3,3Z"/>
  </g>
</svg>