<?xml version="1.0" encoding="UTF-8"?>
<svg id="OBJECT" xmlns="http://www.w3.org/2000/svg" viewBox="0 0 32 32">
  <defs>
    <style>
      .cls-1 {
        fill: #FD4360;
      }

      .cls-1, .cls-2 {
        stroke-width: 0px;
      }

      .cls-2 {
        fill: #dadada;
      }
    </style>
  </defs>
  <g>
    <path class="cls-2" d="m10.44,22.11c.03-.2.06-.4.06-.61v-1.5c0-1.65-1.35-3-3-3h-1c-1.65,0-3,1.35-3,3v1.5c0,.21.03.41.06.61-1.6,1.11-2.56,2.92-2.56,4.89v1.5c0,1.38,1.12,2.5,2.5,2.5h7c1.38,0,2.5-1.12,2.5-2.5v-1.5c0-1.97-.96-3.78-2.56-4.89Zm-4.94-2.11c0-.55.45-1,1-1h1c.55,0,1,.45,1,1v1.5c0,.83-.67,1.5-1.5,1.5s-1.5-.67-1.5-1.5v-1.5Zm5.5,8.5c0,.28-.22.5-.5.5H3.5c-.28,0-.5-.22-.5-.5v-1.5c0-1.21.56-2.33,1.49-3.08.64.66,1.53,1.08,2.51,1.08s1.88-.42,2.51-1.08c.93.75,1.49,1.86,1.49,3.08v1.5Z"/>
    <path class="cls-2" d="m28.44,22.11c.03-.2.06-.4.06-.61v-1.5c0-1.65-1.35-3-3-3h-1c-1.65,0-3,1.35-3,3v1.5c0,.21.03.41.06.61-1.6,1.11-2.56,2.92-2.56,4.89v1.5c0,1.38,1.12,2.5,2.5,2.5h7c1.38,0,2.5-1.12,2.5-2.5v-1.5c0-1.97-.96-3.78-2.56-4.89Zm-4.94-2.11c0-.55.45-1,1-1h1c.55,0,1,.45,1,1v1.5c0,.83-.67,1.5-1.5,1.5s-1.5-.67-1.5-1.5v-1.5Zm5.5,8.5c0,.28-.22.5-.5.5h-7c-.28,0-.5-.22-.5-.5v-1.5c0-1.21.56-2.33,1.49-3.08.64.66,1.53,1.08,2.51,1.08s1.88-.42,2.51-1.08c.93.75,1.49,1.86,1.49,3.08v1.5Z"/>
    <path class="cls-2" d="m19.12,20.22l-2.12-1.7v-2.52c0-.55-.45-1-1-1s-1,.45-1,1v2.52l-2.12,1.7c-.43.34-.5.97-.16,1.41.34.43.97.5,1.41.16l1.88-1.5,1.88,1.5c.18.15.4.22.62.22.29,0,.58-.13.78-.38.35-.43.28-1.06-.16-1.41Z"/>
  </g>
  <g>
    <path class="cls-1" d="m20.46,7.01c-.82,1.65-2.5,2.79-4.46,2.79s-3.65-1.15-4.46-2.79c-.95,1.06-1.54,2.46-1.54,3.99v.5c0,1.38,1.12,2.5,2.5,2.5h7c1.38,0,2.5-1.12,2.5-2.5v-.5c0-1.53-.58-2.93-1.54-3.99Z"/>
    <path class="cls-1" d="m16,7.8c1.65,0,3-1.35,3-3v-1.2c0-1.43-1.17-2.6-2.6-2.6h-.8c-1.43,0-2.6,1.17-2.6,2.6v1.2c0,1.65,1.35,3,3,3Z"/>
  </g>
</svg>