<?xml version="1.0" encoding="UTF-8"?>
<svg id="OBJECT" xmlns="http://www.w3.org/2000/svg" viewBox="0 0 32 32">
  <defs>
    <style>
      .cls-1 {
        fill: #FD4360;
      }

      .cls-1, .cls-2 {
        stroke-width: 0px;
      }

      .cls-2 {
        fill: #dadada;
      }
    </style>
  </defs>
  <path class="cls-2" d="m25,25h-4v-3c0-.55-.45-1-1-1h-3v-3.06c2.51-.3,4.69-1.68,6.04-3.68,0-.01.02-.03.02-.04.9-1.35,1.43-2.97,1.43-4.72,0-4.69-3.81-8.5-8.5-8.5S7.5,4.81,7.5,9.5c0,1.74.53,3.37,1.43,4.72,0,.01.02.03.02.04,1.35,2,3.53,3.38,6.04,3.68v3.06h-3c-.55,0-1,.45-1,1v3h-4c-.55,0-1,.45-1,1s.45,1,1,1h4v3c0,.55.45,1,1,1h8c.55,0,1-.45,1-1v-3h4c.55,0,1-.45,1-1s-.45-1-1-1ZM16,3c3.58,0,6.5,2.92,6.5,6.5,0,.86-.17,1.67-.47,2.42-.92-.93-2.02-1.62-3.24-2.05.34-.52.54-1.14.54-1.81,0-1.84-1.49-3.33-3.33-3.33s-3.33,1.49-3.33,3.33c0,.67.2,1.29.54,1.81-1.22.42-2.32,1.12-3.24,2.05-.3-.75-.47-1.56-.47-2.42,0-3.58,2.92-6.5,6.5-6.5Zm-1.33,5.06c0-.73.6-1.33,1.33-1.33s1.33.6,1.33,1.33-.6,1.33-1.33,1.33-1.33-.6-1.33-1.33Zm-3.63,5.63c1.23-1.45,3.03-2.3,4.96-2.3s3.73.85,4.96,2.3c-1.19,1.41-2.97,2.31-4.96,2.31s-3.76-.9-4.96-2.31Zm7.96,15.31h-6v-6h6v6Z"/>
  <path class="cls-1" d="m8,23.5c0-.55-.45-1-1-1H2c-.55,0-1,.45-1,1v5c0,.55.45,1,1,1h5c.55,0,1-.45,1-1v-1.5h1v-2h-1v-1.5Z"/>
  <path class="cls-1" d="m30,22.5h-5c-.55,0-1,.45-1,1v1.5h-1v2h1v1.5c0,.55.45,1,1,1h5c.55,0,1-.45,1-1v-5c0-.55-.45-1-1-1Z"/>
</svg>