<?xml version="1.0" encoding="UTF-8"?>
<svg id="OBJECT" xmlns="http://www.w3.org/2000/svg" viewBox="0 0 32 32">
  <defs>
    <style>
      .cls-1 {
        fill: #FD4360;
      }

      .cls-1, .cls-2 {
        stroke-width: 0px;
      }

      .cls-2 {
        fill: #dadada;
      }
    </style>
  </defs>
  <g>
    <path class="cls-2" d="m16.03,10.57l-.9-.52c-.96-.55-2.18-.22-2.74.73l-3.25,5.63c-.15.27-.25.57-.26.88l-.04.65h0c-.05.76.34,1.47,1,1.85l.4.23c.31.18.66.27,1,.27.38,0,.77-.11,1.1-.33l.54-.36c.26-.17.48-.4.63-.67l3.25-5.63c.55-.96.22-2.18-.73-2.73Zm-4.25,7.37l-.54.36-.4-.23s0,0,0,0l.04-.65,3.25-5.63.91.53-3.25,5.63Z"/>
    <path class="cls-2" d="m22.46,4.42l-5.23-3.02c-.7-.4-1.51-.51-2.29-.3-.78.21-1.43.71-1.83,1.4l-1.51,2.62s0,0,0,0,0,0,0,0l-6.04,10.46c-.08.13-.12.29-.13.44l-.26,4.26-1.9,3.28c-.28.48-.11,1.09.37,1.37h0s-2.52,4.37-2.52,4.37c-.17.3-.18.67-.01.97.16.31.47.5.82.52l3.26.2c.06,0,.12,0,.19,0,1.07,0,2.06-.56,2.6-1.5l.89-1.55h0c.16.09.33.14.5.14.35,0,.68-.18.87-.5l1.9-3.28,3.56-2.35c.13-.08.24-.2.31-.33l6.04-10.46h0s1.51-2.62,1.51-2.62c.83-1.44.34-3.29-1.1-4.12Zm-7-1.39c.26-.07.53-.03.77.1l5.23,3.02c.48.28.65.9.37,1.38l-1.01,1.75-6.99-4.03,1.01-1.75c.14-.23.35-.4.62-.47ZM6.25,28.5c-.19.33-.55.52-.93.5l-1.64-.1,1.71-2.96,1.76,1.01-.89,1.55Zm2.77-2.78l-3.5-2.02,1.01-1.75,3.5,2.02-1.01,1.75Zm5.39-5.31l-3.04,2.01-4.16-2.4.22-3.64,5.42-9.39,6.99,4.03-5.42,9.39Z"/>
  </g>
  <g>
    <path class="cls-1" d="m13,28v2c0,.55.45,1,1,1h4v-6h-2c-1.65,0-3,1.35-3,3Z"/>
    <path class="cls-1" d="m30,25h-10v6h10c.55,0,1-.45,1-1v-4c0-.55-.45-1-1-1Z"/>
  </g>
</svg>