<?xml version="1.0" encoding="UTF-8"?>
<svg id="OBJECT" xmlns="http://www.w3.org/2000/svg" viewBox="0 0 32 32">
  <defs>
    <style>
      .cls-1 {
        fill: #FD4360;
      }

      .cls-1, .cls-2 {
        stroke-width: 0px;
      }

      .cls-2 {
        fill: #dadada;
      }
    </style>
  </defs>
  <g>
    <path class="cls-2" d="m30.94,20.25c-.18-.78-.69-1.43-1.42-1.77-.98-.46-2.16-.25-2.91.5l-3.41,3.29-2.23-3.36c-.99-1.5-2.66-2.39-4.45-2.39h-.85c-1.78,0-3.42.88-4.41,2.32h-2.31c-.25-1.4-1.47-2.47-2.95-2.47H2c-.55,0-1,.45-1,1v12c0,.55.45,1,1,1h4c1.38,0,2.53-.94,2.88-2.21h2.12l.87,1.04c.95,1.14,2.35,1.79,3.83,1.79h5.32c1.5,0,2.91-.67,3.86-1.83l5.52-6.72c.51-.62.7-1.42.52-2.21Zm-23.94,7.13c0,.55-.45,1-1,1h-3v-10h3c.55,0,1,.45,1,1v8Zm21.87-6.19l-5.52,6.72c-.57.7-1.42,1.1-2.32,1.1h-5.32c-.89,0-1.73-.39-2.3-1.07l-1.17-1.4c-.19-.23-.47-.36-.77-.36h-2.47v-5.33h2.82c.37,0,.71-.21.89-.54.58-1.1,1.71-1.79,2.96-1.79h.85c1.12,0,2.16.56,2.78,1.5l2.43,3.67-.71.68c-.41.35-1.04.3-1.39-.11l-1.35-1.54c-.36-.42-1-.46-1.41-.09-.42.36-.46,1-.09,1.41l1.35,1.54c1.07,1.22,2.94,1.36,4.23.28l5.65-5.44c.17-.17.44-.22.66-.12.22.1.3.29.32.4s.04.3-.12.5Z"/>
    <path class="cls-2" d="m5,19.37c-.55,0-1,.45-1,1v1c0,.55.45,1,1,1s1-.45,1-1v-1c0-.55-.45-1-1-1Z"/>
  </g>
  <g>
    <path class="cls-1" d="m27.46,7.01c-.82,1.65-2.5,2.79-4.46,2.79s-3.65-1.15-4.46-2.79c-.95,1.06-1.54,2.46-1.54,3.99v.5c0,1.38,1.12,2.5,2.5,2.5h7c1.38,0,2.5-1.12,2.5-2.5v-.5c0-1.53-.58-2.93-1.54-3.99Z"/>
    <path class="cls-1" d="m23,7.8c1.65,0,3-1.35,3-3v-1.2c0-1.43-1.17-2.6-2.6-2.6h-.8c-1.43,0-2.6,1.17-2.6,2.6v1.2c0,1.65,1.35,3,3,3Z"/>
  </g>
</svg>