<?xml version="1.0" encoding="UTF-8"?>
<svg id="OBJECT" xmlns="http://www.w3.org/2000/svg" viewBox="0 0 32 32">
  <defs>
    <style>
      .cls-1 {
        fill: #FD4360;
      }

      .cls-1, .cls-2 {
        stroke-width: 0px;
      }

      .cls-2 {
        fill: #dadada;
      }
    </style>
  </defs>
  <g>
    <path class="cls-2" d="m28.5,23h-2.72l-.81-3.24c-.11-.44-.51-.76-.97-.76H8c-.46,0-.86.31-.97.76l-.81,3.24h-2.72c-1.38,0-2.5,1.12-2.5,2.5v3c0,1.38,1.12,2.5,2.5,2.5h25c1.38,0,2.5-1.12,2.5-2.5v-3c0-1.38-1.12-2.5-2.5-2.5Zm-19.72-2h14.44l.5,2h-15.44l.5-2Zm20.22,7.5c0,.28-.22.5-.5.5H3.5c-.28,0-.5-.22-.5-.5v-3c0-.28.22-.5.5-.5h25c.28,0,.5.22.5.5v3Z"/>
    <path class="cls-2" d="m5.5,26h-.5c-.55,0-1,.45-1,1s.45,1,1,1h.5c.55,0,1-.45,1-1s-.45-1-1-1Z"/>
    <path class="cls-2" d="m27,26h-.5c-.55,0-1,.45-1,1s.45,1,1,1h.5c.55,0,1-.45,1-1s-.45-1-1-1Z"/>
    <path class="cls-2" d="m28.88,9.4c.13.06.27.09.41.09.38,0,.75-.22.91-.59l.21-.48c.22-.5,0-1.1-.51-1.32-.5-.22-1.1,0-1.32.51l-.21.48c-.22.5,0,1.1.51,1.32Z"/>
    <path class="cls-2" d="m25.09,17.91c.13.06.27.09.41.09.38,0,.75-.22.91-.59l2.51-5.65c.22-.5,0-1.1-.51-1.32-.5-.22-1.09,0-1.32.51l-2.51,5.65c-.22.5,0,1.1.51,1.32Z"/>
    <path class="cls-2" d="m1.8,8.89c.17.37.53.59.91.59.14,0,.27-.03.41-.09.5-.22.73-.81.51-1.32l-.21-.48c-.23-.51-.82-.73-1.32-.51-.5.22-.73.81-.51,1.32l.21.48Z"/>
    <path class="cls-2" d="m3.08,11.76l2.51,5.65c.17.37.53.59.91.59.14,0,.27-.03.41-.09.5-.22.73-.82.51-1.32l-2.51-5.65c-.22-.5-.81-.73-1.32-.51-.5.22-.73.82-.51,1.32Z"/>
  </g>
  <g>
    <path class="cls-1" d="m13.06,1c-1.07,0-1.94.87-1.94,1.94v.52c-.62.35-1.09.94-1.29,1.64-1.36.89-2.21,2.63-2.21,4.6,0,2.59,1.52,4.74,3.5,5.14v-2.7c0-.55.45-1,1-1s1,.45,1,1v3.93c0,.52.42.94.94.94s.94-.42.94-.94V2.94c0-1.07-.87-1.94-1.94-1.94Z"/>
    <path class="cls-1" d="m22.16,5.1c-.2-.7-.66-1.29-1.29-1.64v-.52c0-1.07-.87-1.94-1.94-1.94s-1.94.87-1.94,1.94v13.12c0,.52.42.94.94.94s.94-.42.94-.94v-3.93c0-.55.45-1,1-1s1,.45,1,1v2.7c1.98-.39,3.5-2.55,3.5-5.14,0-1.97-.85-3.72-2.21-4.6Z"/>
  </g>
</svg>