<?xml version="1.0" encoding="UTF-8"?>
<svg id="OBJECT" xmlns="http://www.w3.org/2000/svg" viewBox="0 0 32 32">
  <defs>
    <style>
      .cls-1 {
        fill: #FD4360;
      }

      .cls-1, .cls-2 {
        stroke-width: 0px;
      }

      .cls-2 {
        fill: #dadada;
      }
    </style>
  </defs>
  <g>
    <path class="cls-2" d="m24.57,6.72L16.57,1.18c-.34-.24-.8-.24-1.14,0L7.43,6.72c-.27.19-.43.49-.43.82v6.92c0,.33.16.64.43.82l8,5.54c.17.12.37.18.57.18s.4-.06.57-.18l8-5.54c.27-.19.43-.49.43-.82v-6.92c0-.33-.16-.64-.43-.82Zm-8.57-3.5l6.24,4.32-6.24,4.32-6.24-4.32,6.24-4.32Zm0,15.57l-7-4.85v-4.49l6,4.15v2.4c0,.55.45,1,1,1s1-.45,1-1v-2.4l6-4.15v4.49l-7,4.85Z"/>
    <path class="cls-2" d="m30.54,14.97c-.46-.3-1.08-.17-1.38.3l-4,6.19c-.3.46-.17,1.08.3,1.38.17.11.36.16.54.16.33,0,.65-.16.84-.46l4-6.19c.3-.46.17-1.08-.3-1.38Z"/>
    <path class="cls-2" d="m24.53,17.96c-.47-.29-1.08-.15-1.38.32l-2,3.19c-.29.47-.15,1.08.32,1.38.17.1.35.15.53.15.33,0,.66-.17.85-.47l2-3.19c.29-.47.15-1.08-.32-1.38Z"/>
    <path class="cls-2" d="m2.84,15.27c-.3-.46-.92-.6-1.38-.3s-.6.92-.3,1.38l4,6.19c.19.3.51.46.84.46.19,0,.37-.05.54-.16.46-.3.6-.92.3-1.38l-4-6.19Z"/>
    <path class="cls-2" d="m8.85,18.28c-.29-.47-.91-.61-1.38-.32-.47.29-.61.91-.32,1.38l2,3.19c.19.3.52.47.85.47.18,0,.37-.05.53-.15.47-.29.61-.91.32-1.38l-2-3.19Z"/>
  </g>
  <path class="cls-1" d="m30,29h-3.32l-1.25-3.12c-.46-1.14-1.55-1.88-2.79-1.88h-13.29c-1.23,0-2.33.74-2.79,1.89l-1.25,3.11h-3.32c-.55,0-1,.45-1,1s.45,1,1,1h28c.55,0,1-.45,1-1s-.45-1-1-1Z"/>
</svg>