<?xml version="1.0" encoding="UTF-8"?>
<svg id="OBJECT" xmlns="http://www.w3.org/2000/svg" viewBox="0 0 512 512">
  <defs>
    <style>
      .cls-1 {
        fill: #FD4360;
      }

      .cls-2 {
        fill: #dadada;
      }
    </style>
  </defs>
  <g>
    <path class="cls-2" d="M509.1,436.92l-22.36-44.72c-4.69-9.38-14.11-15.2-24.6-15.2h-78.64v-42.5c0-15.16-12.34-27.5-27.5-27.5H156c-15.16,0-27.5,12.34-27.5,27.5v42.5H49.86c-10.48,0-19.91,5.83-24.6,15.2L2.9,436.92c-1.9,3.8-2.9,8.05-2.9,12.3v55.28c0,4.14,3.36,7.5,7.5,7.5H504.5c4.14,0,7.5-3.36,7.5-7.5v-55.28c0-4.25-1-8.5-2.9-12.3Zm-365.6-102.42c0-6.89,5.61-12.5,12.5-12.5h200c6.89,0,12.5,5.61,12.5,12.5v42.5H143.5v-42.5Zm353.5,162.5H15v-47.78c0-1.93,.46-3.86,1.32-5.59l22.36-44.72c2.13-4.26,6.42-6.91,11.18-6.91H462.14c4.76,0,9.05,2.65,11.18,6.91l22.36,44.72c.86,1.72,1.32,3.66,1.32,5.59v47.78Z"/>
    <path class="cls-2" d="M96,417h-20c-12.41,0-22.5,10.09-22.5,22.5v10c0,12.41,10.09,22.5,22.5,22.5h20c12.41,0,22.5-10.09,22.5-22.5v-10c0-12.41-10.09-22.5-22.5-22.5Zm7.5,32.5c0,4.14-3.36,7.5-7.5,7.5h-20c-4.14,0-7.5-3.36-7.5-7.5v-10c0-4.14,3.36-7.5,7.5-7.5h20c4.14,0,7.5,3.36,7.5,7.5v10Z"/>
    <path class="cls-2" d="M436,417h-20c-12.41,0-22.5,10.09-22.5,22.5v10c0,12.41,10.09,22.5,22.5,22.5h20c12.41,0,22.5-10.09,22.5-22.5v-10c0-12.41-10.09-22.5-22.5-22.5Zm7.5,32.5c0,4.14-3.36,7.5-7.5,7.5h-20c-4.14,0-7.5-3.36-7.5-7.5v-10c0-4.14,3.36-7.5,7.5-7.5h20c4.14,0,7.5,3.36,7.5,7.5v10Z"/>
    <path class="cls-2" d="M346,417H166c-12.41,0-22.5,10.09-22.5,22.5v10c0,12.41,10.09,22.5,22.5,22.5h180c12.41,0,22.5-10.09,22.5-22.5v-10c0-12.41-10.09-22.5-22.5-22.5Zm7.5,32.5c0,4.14-3.36,7.5-7.5,7.5H166c-4.14,0-7.5-3.36-7.5-7.5v-10c0-4.14,3.36-7.5,7.5-7.5h180c4.14,0,7.5,3.36,7.5,7.5v10Z"/>
    <path class="cls-2" d="M429.06,150.64c.72,.22,1.46,.32,2.18,.32,3.22,0,6.19-2.09,7.17-5.33l2.26-7.46c1.2-3.96-1.04-8.15-5-9.35-3.96-1.2-8.15,1.04-9.35,5l-2.26,7.46c-1.2,3.96,1.04,8.15,5,9.35Z"/>
    <path class="cls-2" d="M386.33,291.68c.72,.22,1.46,.32,2.18,.32,3.22,0,6.19-2.09,7.17-5.33l35.44-116.96c1.2-3.96-1.04-8.15-5-9.35-3.96-1.2-8.15,1.04-9.35,5l-35.44,116.96c-1.2,3.96,1.04,8.15,5,9.35Z"/>
    <path class="cls-2" d="M368.17,221.88c.75,.24,1.5,.35,2.25,.35,3.19,0,6.15-2.05,7.15-5.25l1.66-5.29c1.24-3.95-.96-8.16-4.91-9.4-3.95-1.24-8.16,.96-9.4,4.91l-1.66,5.29c-1.24,3.95,.96,8.16,4.91,9.4Z"/>
    <path class="cls-2" d="M346.25,291.66c.75,.24,1.5,.35,2.25,.35,3.19,0,6.15-2.05,7.15-5.25l15.02-47.82c1.24-3.95-.96-8.16-4.91-9.4-3.95-1.24-8.16,.96-9.4,4.91l-15.02,47.82c-1.24,3.95,.96,8.16,4.91,9.4Z"/>
    <path class="cls-2" d="M73.58,145.64c.98,3.24,3.96,5.33,7.17,5.33,.72,0,1.45-.1,2.18-.32,3.96-1.2,6.2-5.39,5-9.35l-2.26-7.46c-1.2-3.96-5.39-6.21-9.35-5-3.96,1.2-6.2,5.39-5,9.35l2.26,7.46Z"/>
    <path class="cls-2" d="M85.88,160.36c-3.96,1.2-6.2,5.39-5,9.35l35.44,116.96c.98,3.24,3.96,5.33,7.17,5.33,.72,0,1.45-.1,2.18-.32,3.96-1.2,6.2-5.39,5-9.35l-35.44-116.96c-1.2-3.96-5.39-6.21-9.35-5Z"/>
    <path class="cls-2" d="M134.43,216.97c1.01,3.2,3.96,5.25,7.15,5.25,.74,0,1.5-.11,2.25-.35,3.95-1.24,6.15-5.45,4.91-9.4l-1.66-5.29c-1.24-3.95-5.45-6.15-9.4-4.91-3.95,1.24-6.15,5.45-4.91,9.4l1.66,5.29Z"/>
    <path class="cls-2" d="M146.24,229.52c-3.95,1.24-6.15,5.45-4.91,9.4l15.02,47.82c1.01,3.2,3.96,5.25,7.15,5.25,.74,0,1.5-.11,2.25-.35,3.95-1.24,6.15-5.45,4.91-9.4l-15.02-47.82c-1.24-3.95-5.45-6.15-9.4-4.91Z"/>
    <path class="cls-2" d="M201,342h-30c-4.14,0-7.5,3.36-7.5,7.5s3.36,7.5,7.5,7.5h30c4.14,0,7.5-3.36,7.5-7.5s-3.36-7.5-7.5-7.5Z"/>
    <path class="cls-2" d="M241,342h-10c-4.14,0-7.5,3.36-7.5,7.5s3.36,7.5,7.5,7.5h10c4.14,0,7.5-3.36,7.5-7.5s-3.36-7.5-7.5-7.5Z"/>
    <path class="cls-2" d="M281,342h-10c-4.14,0-7.5,3.36-7.5,7.5s3.36,7.5,7.5,7.5h10c4.14,0,7.5-3.36,7.5-7.5s-3.36-7.5-7.5-7.5Z"/>
    <path class="cls-2" d="M341,342h-30c-4.14,0-7.5,3.36-7.5,7.5s3.36,7.5,7.5,7.5h30c4.14,0,7.5-3.36,7.5-7.5s-3.36-7.5-7.5-7.5Z"/>
  </g>
  <g>
    <path class="cls-1" d="M360.49,85.9c0-17.82-11.46-33.21-27.49-38.07-2.67-14.64-15.13-25.75-30.05-25.75-.94,0-1.88,.04-2.8,.13-1.83-12.54-12.65-22.2-25.69-22.2-3.92,0-7.63,.88-10.96,2.44V232.56c3.33,1.56,7.05,2.44,10.96,2.44s7.63-.89,10.96-2.45v-48.37c0-4.14,3.36-7.5,7.5-7.5s7.5,3.36,7.5,7.5v28.63c.84,.07,1.68,.11,2.53,.11,14.92,0,27.37-11.11,30.05-25.75,16.03-4.87,27.48-20.25,27.49-38.07,8.31-8.23,13.01-19.54,13.01-31.6s-4.7-23.37-13.01-31.6Zm-17.05,34.24c-.49,3.78-3.71,6.54-7.43,6.54-.32,0-.64-.02-.97-.06-16.55-2.13-26.9-9.65-33.38-18.16-7.08,2.86-10.89,11.39-10.93,11.48-1.21,2.85-3.99,4.57-6.91,4.57-.98,0-1.97-.19-2.93-.6-3.81-1.62-5.59-6.02-3.97-9.84,.27-.64,5.74-13.18,17.55-18.83-.07-.18-.14-.36-.2-.54-4.77-13.22-3.77-25.65-3.73-26.17,.35-4.13,3.99-7.19,8.12-6.83,4.12,.35,7.17,3.98,6.83,8.09-.02,.22-.72,10.12,3.04,20.23,4.69,12.58,14.25,19.89,28.42,21.71,4.11,.53,7.01,4.29,6.48,8.4Z"/>
    <path class="cls-1" d="M211.85,22.2c-.93-.09-1.86-.13-2.81-.13-14.92,0-27.37,11.11-30.05,25.75-16.03,4.87-27.48,20.25-27.49,38.07-8.31,8.23-13.01,19.54-13.01,31.6s4.7,23.37,13.01,31.6c0,17.82,11.46,33.2,27.49,38.07,2.68,14.64,15.13,25.75,30.05,25.75,.85,0,1.7-.04,2.53-.11v-28.63c0-4.14,3.36-7.5,7.5-7.5s7.5,3.36,7.5,7.5v48.37c3.33,1.56,7.04,2.45,10.96,2.45s7.63-.88,10.96-2.44V2.44c-3.33-1.56-7.05-2.44-10.96-2.44-13.04,0-23.86,9.66-25.69,22.2Zm19.25,101.72c-.96,.41-1.95,.6-2.93,.6-2.91,0-5.67-1.7-6.89-4.54-.11-.24-3.93-8.68-10.95-11.51-6.47,8.51-16.82,16.02-33.38,18.16-.33,.04-.65,.06-.97,.06-3.72,0-6.94-2.76-7.43-6.54-.53-4.11,2.37-7.87,6.48-8.4,14.17-1.83,23.73-9.13,28.42-21.71,3.79-10.17,3.05-20.13,3.04-20.23-.33-4.12,2.74-7.74,6.86-8.08,4.12-.35,7.74,2.7,8.09,6.82,.04,.52,1.04,12.95-3.73,26.17-.06,.18-.14,.36-.2,.54,11.81,5.65,17.28,18.19,17.55,18.83,1.62,3.81-.16,8.22-3.97,9.84Z"/>
  </g>
</svg>