<?xml version="1.0" encoding="UTF-8"?>
<svg id="OBJECT" xmlns="http://www.w3.org/2000/svg" viewBox="0 0 32 32">
  <defs>
    <style>
      .cls-1 {
        fill: #FD4360;
      }

      .cls-1, .cls-2 {
        stroke-width: 0px;
      }

      .cls-2 {
        fill: #dadada;
      }
    </style>
  </defs>
  <g>
    <path class="cls-2" d="m28,1H4c-1.65,0-3,1.35-3,3v15c0,1.65,1.35,3,3,3h8v2.5h-2.2c-1.18,0-2.26.7-2.74,1.78l-1.21,2.72h-2.85c-.55,0-1,.45-1,1s.45,1,1,1h26c.55,0,1-.45,1-1s-.45-1-1-1h-2.85l-1.21-2.72c-.48-1.08-1.56-1.78-2.74-1.78h-2.2v-2.5h8c1.65,0,3-1.35,3-3V4c0-1.65-1.35-3-3-3ZM4,3h24c.55,0,1,.45,1,1v12H3V4c0-.55.45-1,1-1Zm19.11,24.09l.85,1.91h-15.92l.85-1.91c.16-.36.52-.59.91-.59h12.4c.4,0,.75.23.91.59Zm-5.11-2.59h-4v-2.5h4v2.5Zm10-4.5H4c-.55,0-1-.45-1-1v-1h26v1c0,.55-.45,1-1,1Z"/>
    <path class="cls-2" d="m5,6h1c.55,0,1-.45,1-1s-.45-1-1-1h-1c-.55,0-1,.45-1,1s.45,1,1,1Z"/>
    <path class="cls-2" d="m26,6h1c.55,0,1-.45,1-1s-.45-1-1-1h-1c-.55,0-1,.45-1,1s.45,1,1,1Z"/>
  </g>
  <path class="cls-1" d="m21.85,9.2l-5.2-4.46s0,0,0,0c-.2-.17-.44-.24-.68-.24h0c-.09,0-.18.02-.26.04h0s0,0,0,0c-.13.04-.26.11-.37.21l-5.19,4.45c-.42.36-.47.99-.11,1.41.36.42.99.47,1.41.11l.05-.04v2.83c0,.55.45,1,1,1h7c.55,0,1-.45,1-1v-2.83l.05.04c.19.16.42.24.65.24.28,0,.56-.12.76-.35.16-.19.24-.42.24-.65,0-.28-.12-.56-.35-.76Z"/>
</svg>