<?xml version="1.0" encoding="UTF-8"?>
<svg id="OBJECT" xmlns="http://www.w3.org/2000/svg" viewBox="0 0 32 32">
  <defs>
    <style>
      .cls-1 {
        fill: #FD4360;
      }

      .cls-2 {
        fill: #dadada;
      }
    </style>
  </defs>
  <path class="cls-2" d="M16,1C7.73,1,1,6.83,1,14c0,5.53,3.99,10.4,9.97,12.24l1.88,3.01c.68,1.09,1.86,1.74,3.14,1.74s2.46-.65,3.14-1.74l1.88-3.01c5.98-1.84,9.97-6.72,9.97-12.24,0-7.17-6.73-13-15-13Zm4.11,23.43c-.24,.07-.44,.22-.58,.43l-2.08,3.34c-.31,.5-.85,.8-1.45,.8s-1.13-.3-1.45-.8l-1.13-1.81h1.96c.55,0,1-.45,1-1s-.45-1-1-1h-3.61c-5.25-1.53-8.77-5.69-8.77-10.39C3,7.93,8.83,3,16,3s13,4.93,13,11c0,4.74-3.57,8.93-8.89,10.43Z"/>
  <g>
    <path class="cls-1" d="M23,19h-.62v-7.66l.28,.1c.11,.04,.22,.06,.34,.06,.41,0,.8-.26,.94-.66,.19-.52-.09-1.09-.61-1.28l-7-2.5c-.22-.08-.46-.08-.67,0l-7,2.5c-.52,.19-.79,.76-.61,1.28,.19,.52,.76,.79,1.28,.61l.28-.1v7.66h-.62c-.55,0-1,.45-1,1s.45,1,1,1h4v-5c0-1.65,1.35-3,3-3s3,1.35,3,3v5h4c.55,0,1-.45,1-1s-.45-1-1-1Z"/>
    <path class="cls-1" d="M16,15c-.55,0-1,.45-1,1v5h2v-5c0-.55-.45-1-1-1Z"/>
  </g>
</svg>