<?xml version="1.0" encoding="UTF-8"?>
<svg id="OBJECT" xmlns="http://www.w3.org/2000/svg" viewBox="0 0 32 32">
  <defs>
    <style>
      .cls-1 {
        fill: #FD4360;
      }

      .cls-2 {
        fill: #dadada;
      }
    </style>
  </defs>
  <path class="cls-2" d="M29.61,13.92c.13,.05,.26,.08,.39,.08,.19,0,.38-.06,.55-.17,.28-.19,.45-.5,.45-.83v-5c0-.4-.24-.76-.61-.92L16.39,1.08c-.25-.11-.54-.11-.79,0L1.61,7.08c-.37,.16-.61,.52-.61,.92v5c0,.34,.17,.65,.45,.83,.28,.19,.63,.22,.94,.08l1.11-.47v15.55h-1.5c-.55,0-1,.45-1,1s.45,1,1,1H30c.55,0,1-.45,1-1s-.45-1-1-1h-1.5V13.45l1.11,.47ZM3,8.66L16,3.09l13,5.57v2.82l-12.61-5.4c-.13-.05-.26-.08-.39-.08s-.27,.03-.39,.08L3,11.48v-2.82ZM26.5,29H5.5V12.59l10.5-4.5,10.5,4.5V29Z"/>
  <path class="cls-1" d="M19,13h-6c-1.1,0-2,.9-2,2v12h10V15c0-1.1-.9-2-2-2Z"/>
</svg>