<?xml version="1.0" encoding="UTF-8"?>
<svg id="OBJECT" xmlns="http://www.w3.org/2000/svg" viewBox="0 0 32 32">
  <defs>
    <style>
      .cls-1 {
        fill: #FD4360;
      }

      .cls-2 {
        fill: #dadada;
      }
    </style>
  </defs>
  <path class="cls-2" d="M30.39,7.08L16.39,1.08c-.25-.11-.54-.11-.79,0L1.61,7.08c-.37,.16-.61,.52-.61,.92v4c0,.34,.17,.65,.45,.83,.28,.19,.64,.22,.94,.08l1.11-.47v12.56c0,.55,.45,1,1,1s1-.45,1-1V11.59l10.5-4.5,10.5,4.5v13.41c0,.55,.45,1,1,1s1-.45,1-1V12.45l1.11,.47c.13,.05,.26,.08,.39,.08,.19,0,.38-.06,.55-.17,.28-.19,.45-.5,.45-.83v-4c0-.4-.24-.76-.61-.92Zm-1.39,3.4l-12.61-5.4c-.12-.05-.26-.08-.39-.08s-.27,.03-.39,.08L3,10.48v-1.82L16,3.09l13,5.57v1.82Z"/>
  <g>
    <path class="cls-1" d="M1,29.5v1.5H10v-3H2.5c-.83,0-1.5,.67-1.5,1.5Z"/>
    <path class="cls-1" d="M29.5,28h-7.5v3h9v-1.5c0-.83-.67-1.5-1.5-1.5Z"/>
    <path class="cls-1" d="M19,17h-6c-.55,0-1,.45-1,1v13h8v-13c0-.55-.45-1-1-1Zm0,8c0,.55-.45,1-1,1s-1-.45-1-1v-2c0-.55,.45-1,1-1s1,.45,1,1v2Z"/>
  </g>
</svg>