<?xml version="1.0" encoding="UTF-8"?>
<svg id="OBJECT" xmlns="http://www.w3.org/2000/svg" viewBox="0 0 32 32">
  <defs>
    <style>
      .cls-1 {
        fill: #FD4360;
      }

      .cls-1, .cls-2 {
        stroke-width: 0px;
      }

      .cls-2 {
        fill: #dadada;
      }
    </style>
  </defs>
  <path class="cls-2" d="m29.66,11.94c.11.04.22.06.34.06.2,0,.41-.06.58-.18.27-.19.42-.49.42-.82v-4c0-.42-.27-.8-.66-.94L16.34,1.06c-.22-.08-.46-.08-.67,0L1.66,6.06c-.4.14-.66.52-.66.94v4c0,.33.16.63.42.82.27.19.61.23.91.12l.58-.21v17.27h-.92c-.55,0-1,.45-1,1s.45,1,1,1h28c.55,0,1-.45,1-1s-.45-1-1-1h-.92V11.73l.58.21ZM3,7.71l13-4.64,13,4.64v1.88l-12.66-4.52c-.11-.04-.22-.06-.34-.06s-.23.02-.34.06L3,9.58v-1.88Zm24.08,21.29H4.92V11.02l11.08-3.96,11.08,3.96v17.98Z"/>
  <g>
    <path class="cls-1" d="m17.5,13h-8c-1.1,0-2,.9-2,2v8c0,1.1.9,2,2,2h8c1.1,0,2-.9,2-2v-8c0-1.1-.9-2-2-2Zm-5.75,9h-.5c-.55,0-1-.45-1-1s.45-1,1-1h.5c.55,0,1,.45,1,1s-.45,1-1,1Zm0-4h-.5c-.55,0-1-.45-1-1s.45-1,1-1h.5c.55,0,1,.45,1,1s-.45,1-1,1Z"/>
    <path class="cls-1" d="m24.06,13.17c-.28-.19-.63-.22-.93-.1l-1.63.65v10.55l1.63.65c.12.05.25.07.37.07.2,0,.39-.06.56-.17.27-.19.44-.5.44-.83v-10c0-.33-.17-.64-.44-.83Z"/>
  </g>
</svg>