<?xml version="1.0" encoding="UTF-8"?>
<svg id="OBJECT" xmlns="http://www.w3.org/2000/svg" viewBox="0 0 32 32">
  <defs>
    <style>
      .cls-1 {
        fill: #FD4360;
      }

      .cls-1, .cls-2 {
        stroke-width: 0px;
      }

      .cls-2 {
        fill: #dadada;
      }
    </style>
  </defs>
  <g>
    <path class="cls-2" d="m30.91,15.58c-2.99-6.53-8.71-10.58-14.91-10.58S4.08,9.06,1.09,15.58c-.12.26-.12.57,0,.83,2.99,6.53,8.71,10.58,14.91,10.58s11.92-4.06,14.91-10.58c.12-.26.12-.57,0-.83Zm-14.91,9.42c-5.28,0-10.19-3.44-12.89-9,2.71-5.56,7.61-9,12.89-9s10.19,3.44,12.89,9c-2.71,5.56-7.61,9-12.89,9Z"/>
    <path class="cls-2" d="m16,4c.55,0,1-.45,1-1v-1c0-.55-.45-1-1-1s-1,.45-1,1v1c0,.55.45,1,1,1Z"/>
    <path class="cls-2" d="m10.38,4.37c.19.32.52.5.87.5.17,0,.34-.04.5-.13.48-.28.64-.89.37-1.37l-.5-.87c-.28-.48-.89-.64-1.37-.37-.48.28-.64.89-.37,1.37l.5.87Z"/>
    <path class="cls-2" d="m20.25,4.73c.16.09.33.13.5.13.35,0,.68-.18.87-.5l.5-.87c.28-.48.11-1.09-.37-1.37-.48-.28-1.09-.11-1.37.37l-.5.87c-.28.48-.11,1.09.37,1.37Z"/>
    <path class="cls-2" d="m16,28c-.55,0-1,.45-1,1v1c0,.55.45,1,1,1s1-.45,1-1v-1c0-.55-.45-1-1-1Z"/>
    <path class="cls-2" d="m11.75,27.27c-.48-.28-1.09-.11-1.37.37l-.5.87c-.28.48-.11,1.09.37,1.37.16.09.33.13.5.13.35,0,.68-.18.87-.5l.5-.87c.28-.48.11-1.09-.37-1.37Z"/>
    <path class="cls-2" d="m21.62,27.63c-.28-.48-.89-.64-1.37-.37-.48.28-.64.89-.37,1.37l.5.87c.19.32.52.5.87.5.17,0,.34-.04.5-.13.48-.28.64-.89.37-1.37l-.5-.87Z"/>
  </g>
  <g>
    <path class="cls-1" d="m10.5,12.99v3.01h11v-3c.41,0,.79-.25.94-.66.19-.52-.08-1.09-.6-1.28l-5.5-2c-.22-.08-.46-.08-.68,0l-5.5,2c-.52.19-.79.76-.6,1.28.15.41.53.65.94.65Z"/>
    <path class="cls-1" d="m21.5,19v-1h-11v1c-.55,0-1,.45-1,1s.45,1,1,1h11c.55,0,1-.45,1-1s-.45-1-1-1Z"/>
  </g>
</svg>