<?xml version="1.0" encoding="UTF-8"?>
<svg id="OBJECT" xmlns="http://www.w3.org/2000/svg" viewBox="0 0 32 32">
  <defs>
    <style>
      .cls-1 {
        fill: #FD4360;
      }

      .cls-1, .cls-2 {
        stroke-width: 0px;
      }

      .cls-2 {
        fill: #dadada;
      }
    </style>
  </defs>
  <g>
    <path class="cls-2" d="m18,10c.55,0,1-.45,1-1s-.45-1-1-1h-4c-.55,0-1,.45-1,1s.45,1,1,1h4Z"/>
    <path class="cls-2" d="m22.5,8h-1c-.55,0-1,.45-1,1s.45,1,1,1h1c.55,0,1-.45,1-1s-.45-1-1-1Z"/>
    <path class="cls-2" d="m11.5,9c0-.55-.45-1-1-1h-1c-.55,0-1,.45-1,1s.45,1,1,1h1c.55,0,1-.45,1-1Z"/>
    <path class="cls-2" d="m19.44,18.11c.03-.2.06-.4.06-.61v-1.5c0-1.65-1.35-3-3-3h-1c-1.65,0-3,1.35-3,3v1.5c0,.21.03.41.06.61-1.6,1.11-2.56,2.92-2.56,4.89v1c0,.55.45,1,1,1s1-.45,1-1v-1c0-1.21.56-2.33,1.49-3.08.64.66,1.53,1.08,2.51,1.08s1.88-.41,2.51-1.08c.93.75,1.49,1.86,1.49,3.08v1c0,.55.45,1,1,1s1-.45,1-1v-1c0-1.97-.96-3.78-2.56-4.89Zm-3.44.89c-.6,0-1.12-.36-1.36-.88,0,0,0-.01,0-.01,0,0,0,0-.01-.02-.08-.18-.12-.38-.12-.59v-1.5c0-.55.45-1,1-1h1c.55,0,1,.45,1,1v1.5c0,.21-.04.41-.12.59,0,0,0,0-.01.02,0,0,0,0,0,.01-.24.52-.76.88-1.36.88Z"/>
    <path class="cls-2" d="m30.39,7.08L16.39,1.08c-.25-.11-.54-.11-.79,0L1.61,7.08c-.51.22-.74.81-.53,1.31.22.51.81.74,1.31.52l.11-.05v15.13c0,.55.45,1,1,1s1-.45,1-1v-15.98l11.5-4.93,11.5,4.93v15.98c0,.55.45,1,1,1s1-.45,1-1v-15.13l.11.05c.13.06.26.08.39.08.39,0,.76-.23.92-.61.22-.51-.02-1.1-.53-1.31Z"/>
  </g>
  <path class="cls-1" d="m30,29h-.5v-2H2.5v2h-.5c-.55,0-1,.45-1,1s.45,1,1,1h28c.55,0,1-.45,1-1s-.45-1-1-1Z"/>
</svg>