<?xml version="1.0" encoding="UTF-8"?>
<svg id="OBJECT" xmlns="http://www.w3.org/2000/svg" viewBox="0 0 32 32">
  <defs>
    <style>
      .cls-1 {
        fill: #FD4360;
      }

      .cls-1, .cls-2 {
        stroke-width: 0px;
      }

      .cls-2 {
        fill: #dadada;
      }
    </style>
  </defs>
  <g>
    <path class="cls-2" d="m30.85,25.47c-.18-.29-.5-.47-.85-.47h-1.05c-.47-4.72-4.23-8.48-8.95-8.95v-1.05c0-.55-.45-1-1-1s-1,.45-1,1v1.05c-4.72.47-8.48,4.23-8.95,8.95h-1.05c-.35,0-.67.18-.85.47-.18.29-.2.66-.04.97l1.59,3.17c.43.85,1.28,1.38,2.24,1.38h16.15c.95,0,1.81-.53,2.24-1.38l1.58-3.17c.16-.31.14-.68-.04-.97Zm-11.85-7.47c4.07,0,7.44,3.06,7.93,7h-15.86c.49-3.94,3.86-7,7.93-7Zm8.52,10.72c-.08.17-.26.28-.45.28H10.93c-.19,0-.36-.11-.45-.28l-.86-1.72h18.76l-.86,1.72Z"/>
    <path class="cls-2" d="m19,19.5c-.55,0-1,.45-1,1s.45,1,1,1c1.34,0,2.61.6,3.47,1.64.2.24.48.36.77.36.22,0,.45-.08.64-.23.42-.35.49-.98.13-1.41-1.24-1.5-3.07-2.36-5.01-2.36Z"/>
  </g>
  <path class="cls-1" d="m16,8.5c0-4.14-3.36-7.5-7.5-7.5S1,4.36,1,8.5s3.36,7.5,7.5,7.5,7.5-3.36,7.5-7.5Zm-8.5,0v-2.79c0-.55.45-1,1-1s1,.45,1,1v2.37l1.56,1.56c.39.39.39,1.02,0,1.41-.2.2-.45.29-.71.29s-.51-.1-.71-.29l-1.86-1.86c-.19-.19-.29-.44-.29-.71Z"/>
</svg>