<?xml version="1.0" encoding="UTF-8"?>
<svg id="OBJECT" xmlns="http://www.w3.org/2000/svg" viewBox="0 0 32 32">
  <defs>
    <style>
      .cls-1 {
        fill: #FD4360;
      }

      .cls-1, .cls-2 {
        stroke-width: 0px;
      }

      .cls-2 {
        fill: #dadada;
      }
    </style>
  </defs>
  <path class="cls-2" d="m30,27v-2c0-1.48-1.08-2.71-2.5-2.95v-8.05c0-.55-.45-1-1-1h-10.61c-.55,0-1,.45-1,1s.45,1,1,1h9.61v7h-2.5v-1.08c0-1.65-1.35-3-3-3h-4c-1.65,0-3,1.35-3,3v1.08h-2.5v-4.03c0-.55-.45-1-1-1s-1,.45-1,1v4.08c-1.42.24-2.5,1.47-2.5,2.95v2c-.55,0-1,.45-1,1s.45,1,1,1h2v1c0,.55.45,1,1,1s1-.45,1-1v-1h16v1c0,.55.45,1,1,1s1-.45,1-1v-1h2c.55,0,1-.45,1-1s-.45-1-1-1Zm-15-6.08c0-.55.45-1,1-1h4c.55,0,1,.45,1,1v1.08h-6v-1.08Zm-7,4.08c0-.55.45-1,1-1h18c.55,0,1,.45,1,1v2H8v-2Z"/>
  <path class="cls-1" d="m15,8c0-3.86-3.14-7-7-7S1,4.14,1,8s3.14,7,7,7,7-3.14,7-7Zm-8,0v-3c0-.55.45-1,1-1s1,.45,1,1v2.59l1.71,1.71c.39.39.39,1.02,0,1.41-.2.2-.45.29-.71.29s-.51-.1-.71-.29l-2-2c-.19-.19-.29-.44-.29-.71Z"/>
</svg>