<?xml version="1.0" encoding="UTF-8"?>
<svg id="OBJECT" xmlns="http://www.w3.org/2000/svg" viewBox="0 0 32 32">
  <defs>
    <style>
      .cls-1 {
        fill: #FD4360;
      }

      .cls-1, .cls-2 {
        stroke-width: 0px;
      }

      .cls-2 {
        fill: #dadada;
      }
    </style>
  </defs>
  <g>
    <path class="cls-2" d="m13.98,6.99h-1c-.55,0-1,.45-1,1s.45,1,1,1h1c.55,0,1-.45,1-1s-.45-1-1-1Z"/>
    <path class="cls-2" d="m26.63,7.04c-.8-2.12-2.81-3.54-5.13-3.54-.86,0-1.72.2-2.48.59-.42.22-1.05.21-1.37-.23C15.57,1.02,11.82.19,8.52,1.84c-2,1-3.31,3-3.5,5.26-2.28.46-4.01,2.48-4.01,4.9,0,2.76,2.24,5,5,5h.99v2c0,.55.45,1,1,1h16c.55,0,1-.45,1-1v-2h1.01c2.76,0,5-2.24,5-5,0-2.54-1.91-4.65-4.37-4.96Zm-3.64,10.96h-14v-4h14v4Zm3.01-3h-1.01v-2c0-.55-.45-1-1-1H7.99c-.55,0-1,.45-1,1v2h-.99c-1.65,0-3-1.35-3-3s1.34-3,3-3h3.97c.55-.01,1-.46,1-1.01s-.45-1-1-1h-2.91c.22-1.45,1.08-2.71,2.36-3.36,2.83-1.41,5.36-.31,6.62,1.41.87,1.19,2.5,1.54,3.89.83.49-.25,1.02-.38,1.58-.38,1.64,0,3.04,1.12,3.4,2.72.1.46.51.78.98.78h.13c1.65,0,3,1.35,3,3s-1.35,3-3,3Z"/>
    <path class="cls-2" d="m10.99,17h10c.55,0,1-.45,1-1s-.45-1-1-1h-10c-.55,0-1,.45-1,1s.45,1,1,1Z"/>
  </g>
  <g>
    <path class="cls-1" d="m16.89,23.11v-1.49h-1.78v1.49c-1.78.41-3.11,1.99-3.11,3.89,0,2.21,1.79,4,4,4s4-1.79,4-4c0-1.9-1.33-3.49-3.11-3.89Z"/>
    <path class="cls-1" d="m28,24.02c-1.3,0-2.4.84-2.82,2h-3.27c.05.33.09.66.09,1s-.03.67-.09,1h3.27c.41,1.16,1.51,2,2.82,2,1.65,0,3-1.35,3-3s-1.35-3-3-3Z"/>
    <path class="cls-1" d="m6.82,26.02c-.41-1.16-1.51-2-2.82-2-1.65,0-3,1.35-3,3s1.35,3,3,3c1.3,0,2.4-.84,2.82-2h3.27c-.05-.33-.09-.66-.09-1s.03-.67.09-1h-3.27Z"/>
  </g>
</svg>