<?xml version="1.0" encoding="UTF-8"?>
<svg id="OBJECT" xmlns="http://www.w3.org/2000/svg" viewBox="0 0 32 32">
  <defs>
    <style>
      .cls-1 {
        fill: #FD4360;
      }

      .cls-1, .cls-2 {
        stroke-width: 0px;
      }

      .cls-2 {
        fill: #dadada;
      }
    </style>
  </defs>
  <g>
    <path class="cls-2" d="m30,14H2c-.55,0-1,.45-1,1v12c0,.55.45,1,1,1s1-.45,1-1v-1h26v1c0,.55.45,1,1,1s1-.45,1-1v-12c0-.55-.45-1-1-1ZM3,24v-8h26v8H3Z"/>
    <path class="cls-2" d="m8,17.25h-1c-1.38,0-2.5,1.12-2.5,2.5v.5c0,1.38,1.12,2.5,2.5,2.5h1c1.38,0,2.5-1.12,2.5-2.5v-.5c0-1.38-1.12-2.5-2.5-2.5Zm.5,3c0,.28-.22.5-.5.5h-1c-.28,0-.5-.22-.5-.5v-.5c0-.28.22-.5.5-.5h1c.28,0,.5.22.5.5v.5Z"/>
    <path class="cls-2" d="m16,17.25h-1c-1.38,0-2.5,1.12-2.5,2.5v.5c0,1.38,1.12,2.5,2.5,2.5h1c1.38,0,2.5-1.12,2.5-2.5v-.5c0-1.38-1.12-2.5-2.5-2.5Zm.5,3c0,.28-.22.5-.5.5h-1c-.28,0-.5-.22-.5-.5v-.5c0-.28.22-.5.5-.5h1c.28,0,.5.22.5.5v.5Z"/>
    <path class="cls-2" d="m26.5,19h-5c-.55,0-1,.45-1,1s.45,1,1,1h5c.55,0,1-.45,1-1s-.45-1-1-1Z"/>
  </g>
  <g>
    <rect class="cls-1" x="6.5" y="7.25" width="2" height="1.5" rx=".5" ry=".5"/>
    <rect class="cls-1" x="14.5" y="7.25" width="2" height="1.5" rx=".5" ry=".5"/>
    <path class="cls-1" d="m1,4v8h30V4H1Zm9.5,4.25c0,1.38-1.12,2.5-2.5,2.5h-1c-1.38,0-2.5-1.12-2.5-2.5v-.5c0-1.38,1.12-2.5,2.5-2.5h1c1.38,0,2.5,1.12,2.5,2.5v.5Zm8,0c0,1.38-1.12,2.5-2.5,2.5h-1c-1.38,0-2.5-1.12-2.5-2.5v-.5c0-1.38,1.12-2.5,2.5-2.5h1c1.38,0,2.5,1.12,2.5,2.5v.5Zm8,.75h-5c-.55,0-1-.45-1-1s.45-1,1-1h5c.55,0,1,.45,1,1s-.45,1-1,1Z"/>
  </g>
</svg>