<?xml version="1.0" encoding="UTF-8"?>
<svg id="OBJECT" xmlns="http://www.w3.org/2000/svg" viewBox="0 0 32 32">
  <defs>
    <style>
      .cls-1 {
        fill: #FD4360;
      }

      .cls-1, .cls-2 {
        stroke-width: 0px;
      }

      .cls-2 {
        fill: #dadada;
      }
    </style>
  </defs>
  <path class="cls-1" d="m22.5,14c-4.69,0-8.5,3.81-8.5,8.5s3.81,8.5,8.5,8.5,8.5-3.81,8.5-8.5-3.81-8.5-8.5-8.5Zm-4.21,5.29c0-.55.45-1,1-1s1,.45,1,1v1c0,.55-.45,1-1,1s-1-.45-1-1v-1Zm8.41,6.41c0,.55-.45,1-1,1s-1-.45-1-1v-1c0-.55.45-1,1-1s1,.45,1,1v1Zm-.29-5.71l-6.41,6.41c-.2.2-.45.29-.71.29s-.51-.1-.71-.29c-.39-.39-.39-1.02,0-1.41l6.41-6.41c.39-.39,1.02-.39,1.41,0s.39,1.02,0,1.41Z"/>
  <g>
    <path class="cls-2" d="m28.81,5.46c.39-.39.38-1.03-.01-1.41-.39-.39-1.03-.38-1.41.01l-3.03,3.08c-.39.39-.38,1.03.01,1.41.19.19.45.29.7.29s.52-.1.71-.3l3.03-3.08Z"/>
    <path class="cls-2" d="m29,10.68h0l-2.41.02c-.55,0-1,.46-.99,1.01,0,.55.45.99,1,.99h0l2.41-.02c.55,0,1-.46.99-1.01,0-.55-.45-.99-1-.99Z"/>
    <path class="cls-2" d="m21.13,3h0c-.55,0-1,.45-.99,1.01l.02,2.41c0,.55.45.99,1,.99h0c.55,0,1-.45.99-1.01l-.02-2.41c0-.55-.45-.99-1-.99Z"/>
    <path class="cls-2" d="m18.44,11.03l-.23-.19c-1.8-1.63-2.84-3.95-2.84-6.36,0-.76.1-1.51.29-2.22.1-.37-.02-.77-.32-1.02-.29-.25-.7-.31-1.05-.16-3.45,1.51-5.84,4.78-6.24,8.55-.03.35-.05.71-.05,1.06,0,1.17.19,2.31.55,3.38.02.09.06.17.1.25.09.16.16.32.21.51.07.23.1.46.1.69,0,1.43-1.17,2.6-2.6,2.6s-2.6-1.17-2.6-2.6v-.37c0-.47-.32-.88-.79-.98-.46-.1-.93.15-1.12.58-.57,1.3-.85,2.7-.85,4.15,0,5.79,4.71,10.5,10.5,10.5.84,0,1.65-.09,2.4-.28.54-.13.86-.67.73-1.21-.13-.54-.68-.86-1.21-.73-.6.15-1.24.22-1.92.22-4.69,0-8.5-3.81-8.5-8.5,0-.08,0-.16,0-.24.84.9,2.03,1.46,3.36,1.46,2.54,0,4.6-2.06,4.6-4.6,0-.42-.06-.83-.17-1.23-.08-.3-.19-.58-.34-.86-.3-.86-.45-1.78-.45-2.74,0-.29.02-.59.04-.87.25-2.38,1.48-4.52,3.34-5.92,0,.19-.01.38-.01.57,0,2.98,1.28,5.83,3.56,7.89l.23.19c.25.22.5.48.78.8.35.42.98.48,1.41.12.42-.36.47-.99.12-1.41-.34-.4-.66-.73-1.02-1.05Z"/>
  </g>
</svg>