<?xml version="1.0" encoding="UTF-8"?>
<svg id="OBJECT" xmlns="http://www.w3.org/2000/svg" viewBox="0 0 32 32">
  <defs>
    <style>
      .cls-1 {
        fill: #FD4360;
      }

      .cls-1, .cls-2 {
        stroke-width: 0px;
      }

      .cls-2 {
        fill: #dadada;
      }
    </style>
  </defs>
  <g>
    <path class="cls-2" d="m27,1H5c-.55,0-1,.45-1,1s.45,1,1,1h1v8.33c0,.65.21,1.28.6,1.8l2.15,2.87-2.15,2.87c-.39.52-.6,1.15-.6,1.8v2.33c0,.55.45,1,1,1s1-.45,1-1v-2.33c0-.21.07-.43.2-.6l2.3-3.07h11l2.3,3.07c.13.17.2.38.2.6v2.33c0,.55.45,1,1,1s1-.45,1-1v-2.33c0-.65-.21-1.29-.6-1.8l-2.15-2.87,2.15-2.87c.39-.52.6-1.15.6-1.8V3h1c.55,0,1-.45,1-1s-.45-1-1-1Zm-3.2,10.93l-2.3,3.07h-11l-2.3-3.07c-.13-.17-.2-.39-.2-.6v-1.13c2.36-.78,5.1-1.2,8-1.2s5.64.43,8,1.2v1.13c0,.22-.07.43-.2.6Zm.2-3.82c-2.42-.72-5.14-1.11-8-1.11s-5.58.4-8,1.11V3h16v5.11Z"/>
    <path class="cls-2" d="m16.5,19h-1c-.55,0-1,.45-1,1s.45,1,1,1h1c.55,0,1-.45,1-1s-.45-1-1-1Z"/>
  </g>
  <path class="cls-1" d="m27,29h-1v-2.99c-3.03-.84-6.43-1.29-10-1.29s-6.97.45-10,1.29v2.99h-1c-.55,0-1,.45-1,1s.45,1,1,1h22c.55,0,1-.45,1-1s-.45-1-1-1Z"/>
</svg>