<?xml version="1.0" encoding="UTF-8"?>
<svg id="OBJECT" xmlns="http://www.w3.org/2000/svg" viewBox="0 0 32 32">
  <defs>
    <style>
      .cls-1 {
        fill: #FD4360;
      }

      .cls-1, .cls-2 {
        stroke-width: 0px;
      }

      .cls-2 {
        fill: #dadada;
      }
    </style>
  </defs>
  <g>
    <path class="cls-2" d="m27,29h-1.76c1.2-3.79,1.55-9.75-3.21-13,1.95-1.32,3.2-3.18,3.71-5.56.12-.54-.23-1.07-.76-1.19-.54-.12-1.07.22-1.19.76-.49,2.28-1.86,3.95-4.05,4.98h-7.49c-2.19-1.03-3.55-2.71-4.05-4.98-.12-.54-.65-.88-1.19-.76-.54.12-.88.65-.76,1.19.52,2.38,1.76,4.24,3.71,5.56-4.76,3.25-4.4,9.2-3.21,13h-1.76c-.55,0-1,.45-1,1s.45,1,1,1h22c.55,0,1-.45,1-1s-.45-1-1-1Zm-14.74-12h7.48c2.75,1.31,3.86,3.47,4.17,5.65-2.25-1.05-5.03-1.65-7.91-1.65s-5.64.59-7.88,1.63c.36-2.6,1.75-4.49,4.15-5.63Zm-4.22,7.92c2.1-1.22,4.95-1.92,7.96-1.92s5.89.71,7.98,1.94c-.12,1.73-.58,3.25-.86,4.06h-14.24c-.28-.8-.72-2.32-.84-4.08Z"/>
    <path class="cls-2" d="m15,12.5h2c.55,0,1-.45,1-1s-.45-1-1-1h-2c-.55,0-1,.45-1,1s.45,1,1,1Z"/>
    <path class="cls-2" d="m14,25h-1c-.55,0-1,.45-1,1s.45,1,1,1h1c.55,0,1-.45,1-1s-.45-1-1-1Z"/>
    <path class="cls-2" d="m19,25h-1c-.55,0-1,.45-1,1s.45,1,1,1h1c.55,0,1-.45,1-1s-.45-1-1-1Z"/>
  </g>
  <path class="cls-1" d="m5,3h1.77c-.42,1.32-.73,2.9-.76,4.54,2.89-1.25,6.39-1.95,10-1.95s7.11.7,10,1.95c-.03-1.65-.34-3.22-.76-4.54h1.77c.55,0,1-.45,1-1s-.45-1-1-1H5c-.55,0-1,.45-1,1s.45,1,1,1Z"/>
</svg>