<?xml version="1.0" encoding="UTF-8"?>
<svg id="OBJECT" xmlns="http://www.w3.org/2000/svg" viewBox="0 0 32 32">
  <defs>
    <style>
      .cls-1 {
        fill: #FD4360;
      }

      .cls-1, .cls-2 {
        stroke-width: 0px;
      }

      .cls-2 {
        fill: #dadada;
      }
    </style>
  </defs>
  <g>
    <path class="cls-2" d="m30.63,12.91l-1.4-2.46c-.14-.25-.38-.42-.67-.48-.28-.06-.57,0-.8.18l-4.4,3.3h-14.7l-4.4-3.3c-.23-.17-.52-.24-.8-.18-.28.06-.52.23-.67.48l-1.4,2.46c-.71,1.24-.38,2.83.76,3.69l3.86,2.89c.49.37,1.1.57,1.71.57h2.58l-.6,3h-1.68c-.55,0-1,.45-1,1s.45,1,1,1h16c.55,0,1-.45,1-1s-.45-1-1-1h-1.68l-.6-3h2.58c.61,0,1.22-.2,1.71-.57l3.86-2.9c1.15-.86,1.47-2.44.76-3.69Zm-10.35,10.15h-8.56l.6-3h7.36l.6,3Zm8.38-8.06l-3.86,2.9c-.14.11-.32.17-.51.17H7.7c-.18,0-.36-.06-.51-.17l-3.86-2.89c-.34-.25-.44-.72-.23-1.09l.84-1.47,3.76,2.82c.17.13.38.2.6.2h15.37c.22,0,.43-.07.6-.2l3.76-2.82.84,1.47c.21.37.11.84-.23,1.09Z"/>
    <path class="cls-2" d="m16,26c-.55,0-1,.45-1,1v3c0,.55.45,1,1,1s1-.45,1-1v-3c0-.55-.45-1-1-1Z"/>
    <path class="cls-2" d="m20,26c-.55,0-1,.45-1,1v3c0,.55.45,1,1,1s1-.45,1-1v-3c0-.55-.45-1-1-1Z"/>
    <path class="cls-2" d="m12,26c-.55,0-1,.45-1,1v3c0,.55.45,1,1,1s1-.45,1-1v-3c0-.55-.45-1-1-1Z"/>
  </g>
  <g>
    <path class="cls-1" d="m20.54,6.86c-.79,1.73-2.52,2.94-4.54,2.94s-3.76-1.21-4.54-2.94c-1.19,1.17-1.94,2.79-1.95,4.59h12.99c-.01-1.8-.76-3.42-1.95-4.59Z"/>
    <path class="cls-1" d="m16,7.8c1.65,0,3-1.35,3-3v-1.2c0-1.43-1.17-2.6-2.6-2.6h-.8c-1.43,0-2.6,1.17-2.6,2.6v1.2c0,1.65,1.35,3,3,3Z"/>
  </g>
</svg>