<?xml version="1.0" encoding="UTF-8"?>
<svg id="OBJECT" xmlns="http://www.w3.org/2000/svg" viewBox="0 0 32 32">
  <defs>
    <style>
      .cls-1 {
        fill: #FD4360;
      }

      .cls-2 {
        fill: #dadada;
      }
    </style>
  </defs>
  <g>
    <path class="cls-2" d="m28.5,9h-8.5v-5c0-1.65-1.35-3-3-3h-2c-1.65,0-3,1.35-3,3v5H3.5c-1.38,0-2.5,1.12-2.5,2.5v17c0,1.38,1.12,2.5,2.5,2.5h25c1.38,0,2.5-1.12,2.5-2.5V11.5c0-1.38-1.12-2.5-2.5-2.5Zm-14.5-5c0-.55.45-1,1-1h2c.55,0,1,.45,1,1v5h-4v-5Zm15,24.5c0,.28-.22.5-.5.5H3.5c-.28,0-.5-.22-.5-.5V11.5c0-.28.22-.5.5-.5h25c.28,0,.5.22.5.5v17Z"/>
    <path class="cls-2" d="m26,25h-8c-.55,0-1,.45-1,1s.45,1,1,1h8c.55,0,1-.45,1-1s-.45-1-1-1Z"/>
    <path class="cls-2" d="m26,21h-4c-.55,0-1,.45-1,1s.45,1,1,1h4c.55,0,1-.45,1-1s-.45-1-1-1Z"/>
    <path class="cls-2" d="m18,23h.5c.55,0,1-.45,1-1s-.45-1-1-1h-.5c-.55,0-1,.45-1,1s.45,1,1,1Z"/>
    <path class="cls-2" d="m16.25,4h-.5c-.55,0-1,.45-1,1s.45,1,1,1h.5c.55,0,1-.45,1-1s-.45-1-1-1Z"/>
  </g>
  <rect class="cls-1" x="17" y="14" width="10" height="5" rx="1" ry="1"/>
  <g>
    <path class="cls-1" d="m9.41,19.44c2.11.4,3.94-1.42,3.53-3.53-.22-1.17-1.18-2.13-2.36-2.36-2.11-.4-3.93,1.42-3.53,3.53.22,1.17,1.18,2.13,2.36,2.36Z"/>
    <path class="cls-1" d="m13.27,20.25c-.88.77-2.02,1.25-3.27,1.25s-2.39-.48-3.27-1.25c-1.05.92-1.73,2.25-1.73,3.75v1.5c0,.83.67,1.5,1.5,1.5h7c.83,0,1.5-.67,1.5-1.5v-1.5c0-1.5-.68-2.83-1.73-3.75Z"/>
  </g>
</svg>