<?xml version="1.0" encoding="UTF-8"?>
<svg id="OBJECT" xmlns="http://www.w3.org/2000/svg" viewBox="0 0 32 32">
  <defs>
    <style>
      .cls-1 {
        fill: #FD4360;
      }

      .cls-1, .cls-2 {
        stroke-width: 0px;
      }

      .cls-2 {
        fill: #dadada;
      }
    </style>
  </defs>
  <path class="cls-2" d="m24,9c-.55,0-1,.45-1,1v3h-14v-3c0-.55-.45-1-1-1s-1,.45-1,1v18.5c0,1.38,1.12,2.5,2.5,2.5h13c1.38,0,2.5-1.12,2.5-2.5V10c0-.55-.45-1-1-1Zm-1,6v10h-1.5v-.5c0-1.74-.85-3.38-2.25-4.41v-1.29c0-1.54-1.26-2.8-2.8-2.8h-.9c-1.54,0-2.8,1.26-2.8,2.8v1.29c-1.4,1.03-2.25,2.66-2.25,4.41v.5h-1.5v-10h14Zm-9.55,7.14c.6.76,1.51,1.26,2.55,1.26s1.96-.5,2.55-1.26c.6.64.95,1.48.95,2.36v.5h-7v-.5c0-.88.35-1.72.95-2.36Zm1.3-1.99v-1.35c0-.44.36-.8.8-.8h.9c.44,0,.8.36.8.8v1.35c0,.69-.56,1.25-1.25,1.25s-1.25-.56-1.25-1.25Zm7.75,8.85h-13c-.28,0-.5-.22-.5-.5v-1.5h14v1.5c0,.28-.22.5-.5.5Z"/>
  <g>
    <path class="cls-1" d="m27.9,1.57c-.17-.35-.52-.57-.9-.57h-5.23l-6,10h5.31l6.7-8.38c.24-.3.29-.71.12-1.06Z"/>
    <path class="cls-1" d="m12.82,1.43c-.19-.27-.49-.43-.82-.43h-7c-.38,0-.73.22-.9.57-.17.35-.12.76.12,1.06l6.7,8.38h2.51l2.81-4.68-3.42-4.89Z"/>
  </g>
</svg>