<?xml version="1.0" encoding="UTF-8"?>
<svg id="OBJECT" xmlns="http://www.w3.org/2000/svg" viewBox="0 0 32 32">
  <defs>
    <style>
      .cls-1 {
        fill: #FD4360;
      }

      .cls-1, .cls-2 {
        stroke-width: 0px;
      }

      .cls-2 {
        fill: #dadada;
      }
    </style>
  </defs>
  <g>
    <path class="cls-2" d="m28.5,11h-5.5v-2h.5c.55,0,1-.45,1-1s-.45-1-1-1h-4v-3c0-1.65-1.35-3-3-3h-1c-1.65,0-3,1.35-3,3v3h-4c-.55,0-1,.45-1,1s.45,1,1,1h.5v2H3.5c-1.38,0-2.5,1.12-2.5,2.5v15c0,1.38,1.12,2.5,2.5,2.5h25c1.38,0,2.5-1.12,2.5-2.5v-15c0-1.38-1.12-2.5-2.5-2.5Zm-14-7c0-.55.45-1,1-1h1c.55,0,1,.45,1,1v3h-3v-3Zm-3.5,5h10v2h-10v-2Zm18,19.5c0,.28-.22.5-.5.5H3.5c-.28,0-.5-.22-.5-.5v-15c0-.28.22-.5.5-.5h25c.28,0,.5.22.5.5v15Z"/>
    <path class="cls-2" d="m24.5,18h1c.55,0,1-.45,1-1s-.45-1-1-1h-1c-.55,0-1,.45-1,1s.45,1,1,1Z"/>
    <path class="cls-2" d="m19.5,18h1c.55,0,1-.45,1-1s-.45-1-1-1h-1c-.55,0-1,.45-1,1s.45,1,1,1Z"/>
    <path class="cls-2" d="m26,20h-7c-.55,0-1,.45-1,1s.45,1,1,1h7c.55,0,1-.45,1-1s-.45-1-1-1Z"/>
    <path class="cls-2" d="m26,24h-7c-.55,0-1,.45-1,1s.45,1,1,1h7c.55,0,1-.45,1-1s-.45-1-1-1Z"/>
  </g>
  <g>
    <path class="cls-1" d="m11,21.3c1.65,0,3-1.35,3-3v-1.2c0-1.43-1.17-2.6-2.6-2.6h-.8c-1.43,0-2.6,1.17-2.6,2.6v1.2c0,1.65,1.35,3,3,3Z"/>
    <path class="cls-1" d="m15.46,20.52c-.82,1.64-2.5,2.78-4.46,2.78s-3.64-1.14-4.46-2.78c-.97,1.08-1.54,2.48-1.54,3.98v.5c0,1.38,1.12,2.5,2.5,2.5h7c1.38,0,2.5-1.12,2.5-2.5v-.5c0-1.5-.57-2.9-1.54-3.98Z"/>
  </g>
</svg>