<?xml version="1.0" encoding="UTF-8"?>
<svg id="OBJECT" xmlns="http://www.w3.org/2000/svg" viewBox="0 0 32 32">
  <defs>
    <style>
      .cls-1 {
        fill: #FD4360;
      }

      .cls-1, .cls-2 {
        stroke-width: 0px;
      }

      .cls-2 {
        fill: #dadada;
      }
    </style>
  </defs>
  <g>
    <path class="cls-2" d="m19.44,18.11c.03-.2.06-.4.06-.61v-1.5c0-1.65-1.35-3-3-3h-1c-1.65,0-3,1.35-3,3v1.5c0,.21.03.41.06.61-1.6,1.11-2.56,2.92-2.56,4.89v1c0,.55.45,1,1,1s1-.45,1-1v-1c0-1.21.56-2.33,1.49-3.08.64.66,1.53,1.08,2.51,1.08s1.88-.42,2.51-1.08c.93.75,1.49,1.86,1.49,3.08v1c0,.55.45,1,1,1s1-.45,1-1v-1c0-1.97-.96-3.78-2.56-4.89Zm-3.44.89c-.6,0-1.12-.36-1.36-.88,0,0,0-.01,0-.02,0,0-.01-.01-.01-.02-.08-.18-.12-.38-.12-.59v-1.5c0-.55.45-1,1-1h1c.55,0,1,.45,1,1v1.5c0,.21-.04.41-.12.59,0,0-.01.01-.01.02,0,0,0,.01,0,.02-.24.52-.76.88-1.36.88Z"/>
    <path class="cls-2" d="m27.92,1.62c-.15-.37-.52-.62-.92-.62h-6c-.27,0-.52.11-.71.29l-4.29,4.29L11.71,1.29c-.19-.19-.44-.29-.71-.29h-6c-.4,0-.77.24-.92.62-.15.37-.07.8.22,1.09l5.29,5.29h-.09c-1.65,0-3,1.35-3,3v14c0,.55.45,1,1,1s1-.45,1-1v-14c0-.55.45-1,1-1h13c.55,0,1,.45,1,1v14c0,.55.45,1,1,1s1-.45,1-1v-14c0-1.65-1.35-3-3-3h-.09l5.29-5.29c.29-.29.37-.72.22-1.09ZM7.41,3h3.17l4,4-1,1h-1.17L7.41,3Zm12.17,5h-3.17l5-5h3.17l-5,5Z"/>
    <path class="cls-2" d="m21.5,11c-.55,0-1,.45-1,1v.5c0,.55.45,1,1,1s1-.45,1-1v-.5c0-.55-.45-1-1-1Z"/>
    <path class="cls-2" d="m11.5,12.5v-.5c0-.55-.45-1-1-1s-1,.45-1,1v.5c0,.55.45,1,1,1s1-.45,1-1Z"/>
  </g>
  <path class="cls-1" d="m6.5,30c0,.55.45,1,1,1h17c.55,0,1-.45,1-1v-3H6.5v3Z"/>
</svg>