<?xml version="1.0" encoding="UTF-8"?>
<svg id="OBJECT" xmlns="http://www.w3.org/2000/svg" viewBox="0 0 512 512">
  <defs>
    <style>
      .cls-1 {
        fill: #FD4360;
      }

      .cls-2 {
        fill: #dadada;
      }
    </style>
  </defs>
  <g>
    <path class="cls-2" d="M200,309.5v150c0,12.41,10.09,22.5,22.5,22.5h237c12.41,0,22.5-10.09,22.5-22.5v-150c0-12.41-10.09-22.5-22.5-22.5H222.5c-12.41,0-22.5,10.09-22.5,22.5Zm259.5,157.5H222.5c-4.14,0-7.5-3.36-7.5-7.5v-117.5h252v117.5c0,4.14-3.36,7.5-7.5,7.5Zm7.5-157.5v17.5H215v-17.5c0-4.14,3.36-7.5,7.5-7.5h237c4.14,0,7.5,3.36,7.5,7.5Z"/>
    <path class="cls-2" d="M386,227H126c-4.14,0-7.5,3.36-7.5,7.5v30c0,4.14,3.36,7.5,7.5,7.5H386c4.14,0,7.5-3.36,7.5-7.5v-30c0-4.14-3.36-7.5-7.5-7.5Zm-7.5,30H133.5v-15h245v15Z"/>
    <path class="cls-2" d="M479.5,177h-96.47c-4.14,0-7.5,3.36-7.5,7.5s3.36,7.5,7.5,7.5h96.47c9.65,0,17.5,7.85,17.5,17.5V479.5c0,9.65-7.85,17.5-17.5,17.5H32.5c-9.65,0-17.5-7.85-17.5-17.5V209.5c0-9.65,7.85-17.5,17.5-17.5h96.47c4.14,0,7.5-3.36,7.5-7.5s-3.36-7.5-7.5-7.5H32.5c-17.92,0-32.5,14.58-32.5,32.5V479.5c0,17.92,14.58,32.5,32.5,32.5H479.5c17.92,0,32.5-14.58,32.5-32.5V209.5c0-17.92-14.58-32.5-32.5-32.5Z"/>
    <path class="cls-2" d="M30,419.5v40c0,12.41,10.09,22.5,22.5,22.5h100c12.41,0,22.5-10.09,22.5-22.5v-40c0-26.38-14.27-50.41-36.92-63.17,1.24-3.72,1.92-7.7,1.92-11.83v-30c0-15.16-12.34-27.5-27.5-27.5h-20c-15.16,0-27.5,12.34-27.5,27.5v30c0,4.13,.68,8.11,1.92,11.83-22.65,12.75-36.92,36.79-36.92,63.17Zm50-105c0-6.89,5.61-12.5,12.5-12.5h20c6.89,0,12.5,5.61,12.5,12.5v30c0,12.41-10.09,22.5-22.5,22.5s-22.5-10.09-22.5-22.5v-30Zm-5.57,54.82c6.88,7.77,16.91,12.68,28.07,12.68s21.2-4.91,28.07-12.68c18.05,10.1,29.43,29.2,29.43,50.18v40c0,4.14-3.36,7.5-7.5,7.5h-7.5v-42.5c0-4.14-3.36-7.5-7.5-7.5s-7.5,3.36-7.5,7.5v42.5h-55v-42.5c0-4.14-3.36-7.5-7.5-7.5s-7.5,3.36-7.5,7.5v42.5h-7.5c-4.14,0-7.5-3.36-7.5-7.5v-40c0-20.97,11.38-40.08,29.43-50.18Z"/>
    <path class="cls-2" d="M441,362h-160c-4.14,0-7.5,3.36-7.5,7.5s3.36,7.5,7.5,7.5h160c4.14,0,7.5-3.36,7.5-7.5s-3.36-7.5-7.5-7.5Z"/>
    <path class="cls-2" d="M241,377h10c4.14,0,7.5-3.36,7.5-7.5s-3.36-7.5-7.5-7.5h-10c-4.14,0-7.5,3.36-7.5,7.5s3.36,7.5,7.5,7.5Z"/>
    <path class="cls-2" d="M441,397H241c-4.14,0-7.5,3.36-7.5,7.5s3.36,7.5,7.5,7.5h200c4.14,0,7.5-3.36,7.5-7.5s-3.36-7.5-7.5-7.5Z"/>
    <path class="cls-2" d="M441,432h-10c-4.14,0-7.5,3.36-7.5,7.5s3.36,7.5,7.5,7.5h10c4.14,0,7.5-3.36,7.5-7.5s-3.36-7.5-7.5-7.5Z"/>
    <path class="cls-2" d="M401,432H241c-4.14,0-7.5,3.36-7.5,7.5s3.36,7.5,7.5,7.5h160c4.14,0,7.5-3.36,7.5-7.5s-3.36-7.5-7.5-7.5Z"/>
  </g>
  <path class="cls-1" d="M376.11,0h-35.33c-8.91,0-17,5.27-20.59,13.43l-56,127.11,25,56.75L376.11,0Z"/>
  <path class="cls-1" d="M349.11,212L437.86,10.52c1.02-2.32,.8-5-.58-7.12s-3.75-3.4-6.28-3.4h-38.5l-93.39,212h50Z"/>
  <path class="cls-1" d="M279.28,212L191.81,13.43c-3.59-8.16-11.68-13.43-20.59-13.43h-35.33l93.39,212h50Z"/>
  <path class="cls-1" d="M162.89,212h50L119.5,0h-38.5c-2.53,0-4.9,1.28-6.28,3.4-1.38,2.12-1.6,4.8-.58,7.12l88.76,201.48Z"/>
</svg>