<?xml version="1.0" encoding="UTF-8"?>
<svg id="OBJECT" xmlns="http://www.w3.org/2000/svg" viewBox="0 0 512 512">
  <defs>
    <style>
      .cls-1 {
        fill: #FD4360;
      }

      .cls-2 {
        fill: #dadada;
      }
    </style>
  </defs>
  <path class="cls-2" d="M437.96,54.71l-16.23-40.57c-3.44-8.59-11.64-14.14-20.89-14.14H111.16c-9.25,0-17.45,5.55-20.89,14.14l-16.23,40.57c-.99,2.48-.59,5.29,1.04,7.39l59.12,75.95c-9.09,2.89-15.7,11.41-15.7,21.45V489.5c0,12.41,10.09,22.5,22.5,22.5h230c12.41,0,22.5-10.09,22.5-22.5V159.5c0-10.04-6.61-18.56-15.7-21.45l59.12-75.95c1.64-2.1,2.04-4.92,1.04-7.39Zm-153.31,82.29h-57.31l-43.11-72h143.53l-43.11,72Zm-8.98,15l-19.67,32.85-19.67-32.85h39.34Zm-28.41,47.45l-10.51,17.55h-22.08L96.34,65h70.41l80.51,134.45Zm123.74-47.45c4.14,0,7.5,3.36,7.5,7.5V489.5c0,4.14-3.36,7.5-7.5,7.5H141c-4.14,0-7.5-3.36-7.5-7.5V159.5c0-4.14,3.36-7.5,7.5-7.5h4.06l50.6,65h-24.66c-4.14,0-7.5,3.36-7.5,7.5s3.36,7.5,7.5,7.5h170c4.14,0,7.5-3.36,7.5-7.5s-3.36-7.5-7.5-7.5h-24.66l50.6-65h4.06Zm-73.67,65h-43.1l91.02-152h70.41l-118.32,152ZM92.08,50l12.11-30.29c1.15-2.86,3.88-4.71,6.96-4.71H400.84c3.08,0,5.82,1.85,6.96,4.71l12.11,30.29H92.08Z"/>
  <g>
    <path class="cls-1" d="M256,347c20.68,0,37.5-16.82,37.5-37.5v-30c0-15.16-12.34-27.5-27.5-27.5h-20c-15.16,0-27.5,12.34-27.5,27.5v30c0,20.68,16.82,37.5,37.5,37.5Z"/>
    <path class="cls-1" d="M201,417h110c12.41,0,22.5-10.09,22.5-22.5v-5c0-23.99-10.84-45.92-28.83-60.36-7.79,19.24-26.67,32.86-48.67,32.86s-40.88-13.61-48.67-32.86c-17.99,14.43-28.83,36.37-28.83,60.36v5c0,12.41,10.09,22.5,22.5,22.5Z"/>
    <rect class="cls-1" x="223.5" y="432" width="65" height="45"/>
    <path class="cls-1" d="M343.5,432h-40v45h40c8.28,0,15-6.72,15-15v-15c0-8.28-6.72-15-15-15Z"/>
    <path class="cls-1" d="M153.5,447v15c0,8.28,6.72,15,15,15h40v-45h-40c-8.28,0-15,6.72-15,15Z"/>
  </g>
</svg>