<?xml version="1.0" encoding="UTF-8"?>
<svg id="OBJECT" xmlns="http://www.w3.org/2000/svg" viewBox="0 0 512 512">
  <defs>
    <style>
      .cls-1 {
        fill: #FD4360;
      }

      .cls-2 {
        fill: #dadada;
      }
    </style>
  </defs>
  <g>
    <path class="cls-2" d="M437.79,4.32c-1.23-2.63-3.88-4.32-6.79-4.32h-69.3c-9.22,0-17.77,4.58-22.88,12.25l-82.82,124.23L173.18,12.25c-5.11-7.67-13.67-12.25-22.88-12.25H81c-2.91,0-5.56,1.68-6.79,4.32-1.23,2.64-.83,5.75,1.03,7.98l112.25,134.7h-46.49c-12.41,0-22.5,10.09-22.5,22.5V489.5c0,12.41,10.09,22.5,22.5,22.5h230c12.41,0,22.5-10.09,22.5-22.5V169.5c0-12.41-10.09-22.5-22.5-22.5h-46.49L436.76,12.3c1.86-2.24,2.26-5.35,1.03-7.98Zm-129.45,80.68h48.31l-74.99,89.98-16.65-24.98,43.33-65Zm-41.36,95h-32.47l-79.17-95h48.31l63.33,95Zm56.51,15v15H188.5v-15h135ZM150.3,15c4.19,0,8.08,2.08,10.4,5.57l32.96,49.43h-50.81L97.01,15h53.28Zm220.7,147c4.14,0,7.5,3.36,7.5,7.5V489.5c0,4.14-3.36,7.5-7.5,7.5H141c-4.14,0-7.5-3.36-7.5-7.5V169.5c0-4.14,3.36-7.5,7.5-7.5h58.99l15,18h-33.99c-4.14,0-7.5,3.36-7.5,7.5v30c0,4.14,3.36,7.5,7.5,7.5h150c4.14,0,7.5-3.36,7.5-7.5v-30c0-4.14-3.36-7.5-7.5-7.5h-33.99l15-18h58.99Zm-1.85-92h-50.81l32.96-49.43c2.32-3.49,6.21-5.57,10.4-5.57h53.28l-45.83,55Z"/>
    <path class="cls-2" d="M311,447h-110c-4.14,0-7.5,3.36-7.5,7.5s3.36,7.5,7.5,7.5h110c4.14,0,7.5-3.36,7.5-7.5s-3.36-7.5-7.5-7.5Z"/>
    <path class="cls-2" d="M176,447h-10c-4.14,0-7.5,3.36-7.5,7.5s3.36,7.5,7.5,7.5h10c4.14,0,7.5-3.36,7.5-7.5s-3.36-7.5-7.5-7.5Z"/>
    <path class="cls-2" d="M328.5,454.5c0,4.14,3.36,7.5,7.5,7.5h10c4.14,0,7.5-3.36,7.5-7.5s-3.36-7.5-7.5-7.5h-10c-4.14,0-7.5,3.36-7.5,7.5Z"/>
  </g>
  <g>
    <path class="cls-1" d="M256,342c20.68,0,37.5-16.82,37.5-37.5v-30c0-15.16-12.34-27.5-27.5-27.5h-20c-15.16,0-27.5,12.34-27.5,27.5v30c0,20.68,16.82,37.5,37.5,37.5Z"/>
    <path class="cls-1" d="M304.16,325.37c-8.09,18.59-26.63,31.63-48.16,31.63s-40.07-13.04-48.16-31.63c-14.92,13.29-24.34,32.63-24.34,54.13v15c0,12.41,10.09,22.5,22.5,22.5h7.5v-17.5c0-4.14,3.36-7.5,7.5-7.5s7.5,3.36,7.5,7.5v17.5h55v-17.5c0-4.14,3.36-7.5,7.5-7.5s7.5,3.36,7.5,7.5v17.5h7.5c12.41,0,22.5-10.09,22.5-22.5v-15c0-21.5-9.42-40.84-24.34-54.13Z"/>
  </g>
</svg>