<?xml version="1.0" encoding="UTF-8"?>
<svg id="OBJECT" xmlns="http://www.w3.org/2000/svg" viewBox="0 0 32 32">
  <defs>
    <style>
      .cls-1 {
        fill: #FD4360;
      }

      .cls-1, .cls-2 {
        stroke-width: 0px;
      }

      .cls-2 {
        fill: #dadada;
      }
    </style>
  </defs>
  <path class="cls-2" d="m12.64,19.87c.07-.3.11-.6.11-.92v-1.95c0-1.98-1.62-3.6-3.6-3.6h-1.3c-1.98,0-3.6,1.62-3.6,3.6v1.95c0,.32.04.62.11.92-2.08,1.38-3.36,3.69-3.36,6.23v1.95c0,1.63,1.32,2.95,2.95,2.95h9.1c1.63,0,2.95-1.32,2.95-2.95v-1.95c0-2.54-1.27-4.85-3.36-6.23Zm-6.39-2.87c0-.88.72-1.6,1.6-1.6h1.3c.88,0,1.6.72,1.6,1.6v1.95c0,1.24-1.01,2.25-2.25,2.25s-2.25-1.01-2.25-2.25v-1.95Zm7.75,11.05c0,.52-.43.95-.95.95H3.95c-.52,0-.95-.43-.95-.95v-1.95c0-1.78.85-3.41,2.26-4.43.78.93,1.94,1.53,3.24,1.53s2.46-.6,3.24-1.53c1.41,1.03,2.26,2.65,2.26,4.43v1.95Z"/>
  <g>
    <path class="cls-1" d="m30.14,15.61l-2.27-2.27c-.93,1.76-2.37,3.21-4.13,4.13l2.27,2.27c.57.57,1.32.86,2.07.86s1.5-.28,2.07-.86c.55-.55.86-1.29.86-2.07s-.3-1.52-.86-2.07Z"/>
    <path class="cls-1" d="m27,8.8c0-4.3-3.5-7.8-7.8-7.8s-7.8,3.5-7.8,7.8,3.5,7.8,7.8,7.8,7.8-3.5,7.8-7.8Zm-4.68-.8l-2.93,3c-.19.19-.45.3-.72.3s-.53-.11-.72-.3l-1.87-1.92c-.39-.39-.38-1.03.02-1.41.4-.38,1.03-.38,1.41.02l1.16,1.18,2.21-2.27c.39-.4,1.02-.4,1.41-.02.4.39.4,1.02.02,1.41Z"/>
  </g>
</svg>