<?xml version="1.0" encoding="UTF-8"?>
<svg id="OBJECT" xmlns="http://www.w3.org/2000/svg" viewBox="0 0 32 32">
  <defs>
    <style>
      .cls-1 {
        fill: #FD4360;
      }

      .cls-1, .cls-2 {
        stroke-width: 0px;
      }

      .cls-2 {
        fill: #dadada;
      }
    </style>
  </defs>
  <path class="cls-1" d="m16,4.5c-4.14,0-7.5,3.36-7.5,7.5s3.36,7.5,7.5,7.5,7.5-3.36,7.5-7.5-3.36-7.5-7.5-7.5Zm-.69,6.5h1.39c1.32,0,2.39,1.07,2.39,2.39,0,1.21-.91,2.21-2.08,2.36v.42c0,.55-.45,1-1,1s-1-.45-1-1v-.39h-1.08c-.55,0-1-.45-1-1s.45-1,1-1h2.78c.21,0,.39-.17.39-.39s-.17-.39-.39-.39h-1.39c-1.32,0-2.39-1.07-2.39-2.39,0-1.21.91-2.21,2.08-2.36v-.42c0-.55.45-1,1-1s1,.45,1,1v.39h1.08c.55,0,1,.45,1,1s-.45,1-1,1h-2.78c-.21,0-.39.17-.39.39s.17.39.39.39Z"/>
  <g>
    <path class="cls-2" d="m23.67,19.88c2.15-2.09,3.33-4.89,3.33-7.88s-1.34-6.11-3.67-8.2c-2.33-2.08-5.46-3.08-8.59-2.73-5.02.56-9.08,4.6-9.67,9.61-.4,3.44.78,6.8,3.25,9.2.74.72,1.17,1.75,1.17,2.82v1.31h-.5c-.55,0-1,.45-1,1s.45,1,1,1h2v2c0,1.65,1.35,3,3,3h4c1.65,0,3-1.35,3-3v-2h2c.55,0,1-.45,1-1s-.45-1-1-1h-.5v-1.31c0-1.07.43-2.09,1.17-2.82Zm-4.67,8.12c0,.55-.45,1-1,1h-4c-.55,0-1-.45-1-1v-2h6v2Zm-7.5-4v-1.31c0-1.6-.65-3.15-1.77-4.25-2.02-1.97-2.99-4.71-2.66-7.53.48-4.1,3.8-7.4,7.9-7.86,2.6-.29,5.1.5,7.03,2.23,1.91,1.71,3,4.15,3,6.71s-.97,4.74-2.72,6.45c-1.13,1.1-1.78,2.65-1.78,4.25v1.31h-9Z"/>
    <path class="cls-2" d="m30,11h-1c-.55,0-1,.45-1,1s.45,1,1,1h1c.55,0,1-.45,1-1s-.45-1-1-1Z"/>
    <path class="cls-2" d="m28,8c.15,0,.3-.03.45-.11l2-1c.49-.25.69-.85.45-1.34s-.85-.69-1.34-.45l-2,1c-.49.25-.69.85-.45,1.34.18.35.53.55.9.55Z"/>
    <path class="cls-2" d="m30.45,17.11l-2-1c-.49-.24-1.09-.05-1.34.45s-.05,1.09.45,1.34l2,1c.14.07.3.11.45.11.37,0,.72-.2.9-.55.25-.49.05-1.09-.45-1.34Z"/>
    <path class="cls-2" d="m4.45,6.11l-2-1c-.49-.25-1.09-.05-1.34.45s-.05,1.09.45,1.34l2,1c.14.07.3.11.45.11.37,0,.72-.2.9-.55.25-.49.05-1.09-.45-1.34Z"/>
    <path class="cls-2" d="m3.55,16.11l-2,1c-.49.25-.69.85-.45,1.34.18.35.53.55.9.55.15,0,.3-.03.45-.11l2-1c.49-.25.69-.85.45-1.34s-.85-.69-1.34-.45Z"/>
    <path class="cls-2" d="m2,13h1c.55,0,1-.45,1-1s-.45-1-1-1h-1c-.55,0-1,.45-1,1s.45,1,1,1Z"/>
  </g>
</svg>