<?xml version="1.0" encoding="UTF-8"?>
<svg id="OBJECT" xmlns="http://www.w3.org/2000/svg" viewBox="0 0 32 32">
  <defs>
    <style>
      .cls-1 {
        fill: #FD4360;
      }

      .cls-1, .cls-2 {
        stroke-width: 0px;
      }

      .cls-2 {
        fill: #dadada;
      }
    </style>
  </defs>
  <g>
    <path class="cls-2" d="m23.33,3.8c-2.33-2.08-5.46-3.08-8.58-2.73-5.02.56-9.09,4.61-9.67,9.62-.4,3.44.79,6.79,3.25,9.18.22.21.4.44.54.67.3.47.91.61,1.38.31.47-.3.6-.91.31-1.38-.22-.35-.5-.69-.83-1.02-2.02-1.96-2.99-4.71-2.66-7.53.48-4.1,3.8-7.4,7.91-7.86,2.6-.29,5.1.5,7.03,2.23,1.91,1.71,3,4.15,3,6.71s-.97,4.74-2.74,6.45c-.32.32-.59.66-.82,1.01-.3.47-.16,1.08.31,1.38.17.11.35.16.53.16.33,0,.66-.16.85-.46.14-.23.33-.45.53-.66,2.15-2.08,3.33-4.88,3.33-7.88s-1.34-6.12-3.67-8.2Z"/>
    <path class="cls-2" d="m30,11h-1c-.55,0-1,.45-1,1s.45,1,1,1h1c.55,0,1-.45,1-1s-.45-1-1-1Z"/>
    <path class="cls-2" d="m28,8c.15,0,.3-.03.45-.11l2-1c.49-.25.69-.85.45-1.34s-.85-.69-1.34-.45l-2,1c-.49.25-.69.85-.45,1.34.18.35.53.55.9.55Z"/>
    <path class="cls-2" d="m30.45,17.11l-2-1c-.49-.25-1.09-.05-1.34.45-.25.49-.05,1.09.45,1.34l2,1c.14.07.3.11.45.11.37,0,.72-.2.9-.55.25-.49.05-1.09-.45-1.34Z"/>
    <path class="cls-2" d="m4.45,6.11l-2-1c-.5-.25-1.1-.05-1.34.45-.25.49-.05,1.09.45,1.34l2,1c.14.07.3.11.45.11.37,0,.72-.2.9-.55.25-.49.05-1.09-.45-1.34Z"/>
    <path class="cls-2" d="m3.55,16.11l-2,1c-.49.25-.69.85-.45,1.34.18.35.53.55.9.55.15,0,.3-.03.45-.11l2-1c.49-.25.69-.85.45-1.34-.25-.49-.85-.69-1.34-.45Z"/>
    <path class="cls-2" d="m2,13h1c.55,0,1-.45,1-1s-.45-1-1-1h-1c-.55,0-1,.45-1,1s.45,1,1,1Z"/>
    <path class="cls-2" d="m13.21,9.79c-.39-.39-1.02-.39-1.41,0l-2,2c-.39.39-.39,1.02,0,1.41l2,2c.2.2.45.29.71.29s.51-.1.71-.29c.39-.39.39-1.02,0-1.41l-1.29-1.29,1.29-1.29c.39-.39.39-1.02,0-1.41Z"/>
    <path class="cls-2" d="m22.21,11.79l-2-2c-.39-.39-1.02-.39-1.41,0s-.39,1.02,0,1.41l1.29,1.29-1.29,1.29c-.39.39-.39,1.02,0,1.41.2.2.45.29.71.29s.51-.1.71-.29l2-2c.39-.39.39-1.02,0-1.41Z"/>
    <path class="cls-2" d="m17.27,8.04c-.53-.15-1.08.16-1.24.69l-2,7c-.15.53.16,1.08.69,1.24.09.03.18.04.28.04.44,0,.84-.29.96-.73l2-7c.15-.53-.16-1.08-.69-1.24Z"/>
  </g>
  <g>
    <path class="cls-1" d="m23,24h-.5v-1h-13v1h-.5c-.55,0-1,.45-1,1s.45,1,1,1h14c.55,0,1-.45,1-1s-.45-1-1-1Z"/>
    <path class="cls-1" d="m11,29c0,1.1.9,2,2,2h6c1.1,0,2-.9,2-2v-1h-10v1Z"/>
  </g>
</svg>