<?xml version="1.0" encoding="UTF-8"?>
<svg id="OBJECT" xmlns="http://www.w3.org/2000/svg" viewBox="0 0 32 32">
  <defs>
    <style>
      .cls-1 {
        fill: #FD4360;
      }

      .cls-1, .cls-2 {
        stroke-width: 0px;
      }

      .cls-2 {
        fill: #dadada;
      }
    </style>
  </defs>
  <g>
    <path class="cls-2" d="m23.32,3.79c-2.33-2.08-5.47-3.08-8.6-2.72-4.9.55-8.94,4.49-9.61,9.37-.47,3.43.64,6.8,3.05,9.26.54.55.84,1.24.84,1.93v1.37c0,.55.45,1,1,1s1-.45,1-1v-1.37c0-1.22-.5-2.4-1.42-3.33-1.97-2.01-2.88-4.77-2.49-7.58.55-3.98,3.85-7.2,7.86-7.65,2.61-.29,5.11.5,7.05,2.23,1.91,1.71,3.01,4.15,3.01,6.71,0,2.36-.91,4.6-2.57,6.29-.92.94-1.43,2.12-1.43,3.34v1.37c0,.55.45,1,1,1s1-.45,1-1v-1.37c0-.69.3-1.38.85-1.94,2.03-2.07,3.15-4.8,3.15-7.69,0-3.13-1.34-6.12-3.68-8.21Z"/>
    <path class="cls-2" d="m29,13h1c.55,0,1-.45,1-1s-.45-1-1-1h-1c-.55,0-1,.45-1,1s.45,1,1,1Z"/>
    <path class="cls-2" d="m29,8.67c.11,0,.23-.02.34-.06l.94-.34c.52-.19.79-.76.6-1.28-.19-.52-.76-.79-1.28-.6l-.94.34c-.52.19-.79.76-.6,1.28.15.41.53.66.94.66Z"/>
    <path class="cls-2" d="m30.28,15.73l-.94-.34c-.52-.19-1.09.08-1.28.6-.19.52.08,1.09.6,1.28l.94.34c.11.04.23.06.34.06.41,0,.79-.25.94-.66.19-.52-.08-1.09-.6-1.28Z"/>
    <path class="cls-2" d="m3,11h-1c-.55,0-1,.45-1,1s.45,1,1,1h1c.55,0,1-.45,1-1s-.45-1-1-1Z"/>
    <path class="cls-2" d="m1.72,8.27l.94.34c.11.04.23.06.34.06.41,0,.79-.25.94-.66.19-.52-.08-1.09-.6-1.28l-.94-.34c-.52-.19-1.09.08-1.28.6-.19.52.08,1.09.6,1.28Z"/>
    <path class="cls-2" d="m2.66,15.39l-.94.34c-.52.19-.79.76-.6,1.28.15.41.53.66.94.66.11,0,.23-.02.34-.06l.94-.34c.52-.19.79-.76.6-1.28-.19-.52-.76-.79-1.28-.6Z"/>
    <path class="cls-2" d="m17,7.64v-1.64c0-.55-.45-1-1-1s-1,.45-1,1v1.64l-1.8,2.17c-.45.54-.7,1.22-.7,1.92v11.28c0,.55.45,1,1,1s1-.45,1-1v-2h3v2c0,.55.45,1,1,1s1-.45,1-1v-11.28c0-.7-.25-1.38-.7-1.92l-1.8-2.17Zm-1,1.92l1.27,1.52c.12.15.19.33.21.52-.87.79-2.09.79-2.96,0,.02-.19.09-.37.21-.52l1.27-1.52Zm-1.5,9.44v-5.07c.48.19.98.31,1.5.31s1.02-.12,1.5-.31v5.07h-3Z"/>
  </g>
  <path class="cls-1" d="m23.5,25h-15c-.55,0-1,.45-1,1s.45,1,1,1h2v2c0,1.1.9,2,2,2h7c1.1,0,2-.9,2-2v-2h2c.55,0,1-.45,1-1s-.45-1-1-1Z"/>
</svg>