<?xml version="1.0" encoding="UTF-8"?>
<svg id="OBJECT" xmlns="http://www.w3.org/2000/svg" viewBox="0 0 512 512">
  <defs>
    <style>
      .cls-1 {
        fill: #FD4360;
      }

      .cls-2 {
        fill: #dadada;
      }
    </style>
  </defs>
  <g>
    <path class="cls-2" d="M368.21,315.03c41.49-33.89,65.29-84.02,65.29-137.53,0-46.35-17.76-90.21-50-123.5C351.32,20.8,308.2,1.66,262.08,.1c-48.32-1.63-94.2,16.11-129.22,49.94-34.99,33.79-54.29,78.99-54.35,127.25-.06,53.6,23.74,103.81,65.31,137.75,2.98,2.43,4.69,5.99,4.69,9.75v65.21h-2.5c-12.41,0-22.5,10.09-22.5,22.5,0,5.76,2.17,11.02,5.74,15-3.57,3.98-5.74,9.24-5.74,15,0,12.41,10.09,22.5,22.5,22.5h32.5v24.5c0,12.41,10.09,22.5,22.5,22.5h110c12.41,0,22.5-10.09,22.5-22.5v-24.5h32.5c12.41,0,22.5-10.09,22.5-22.5,0-5.76-2.17-11.02-5.74-15,3.57-3.98,5.74-9.24,5.74-15,0-12.41-10.09-22.5-22.5-22.5h-2.5v-65.2c0-3.77,1.72-7.33,4.71-9.77Zm-49.71,174.47c0,4.14-3.36,7.5-7.5,7.5h-110c-4.14,0-7.5-3.36-7.5-7.5v-24.5h125v24.5Zm47.5-39.5H146c-4.14,0-7.5-3.36-7.5-7.5s3.36-7.5,7.5-7.5h220c4.14,0,7.5,3.36,7.5,7.5s-3.36,7.5-7.5,7.5Zm7.5-37.5c0,4.14-3.36,7.5-7.5,7.5H146c-4.14,0-7.5-3.36-7.5-7.5s3.36-7.5,7.5-7.5h220c4.14,0,7.5,3.36,7.5,7.5Zm-140-22.5h-25v-52.89l19.32,4.83c3.35,.84,5.68,3.83,5.68,7.28v40.79Zm70,0h-25v-40.79c0-3.45,2.34-6.44,5.68-7.28l19.32-4.83v52.89Zm15,0v-62.5c0-2.31-1.06-4.49-2.88-5.91-1.82-1.42-4.2-1.92-6.43-1.36l-28.64,7.16c-10.03,2.51-17.04,11.48-17.04,21.83v40.79h-15v-40.79c0-10.34-7.01-19.32-17.04-21.83l-28.64-7.16c-2.24-.56-4.61-.06-6.43,1.36-1.82,1.42-2.88,3.6-2.88,5.91v62.5h-30v-65.21c0-8.29-3.72-16.08-10.2-21.37-38.06-31.08-59.85-77.05-59.8-126.12,.05-44.16,17.73-85.53,49.77-116.48,32.08-30.98,74.1-47.22,118.3-45.73,88,2.96,156.93,74.3,156.93,162.41,0,48.99-21.79,94.88-59.78,125.91-6.49,5.3-10.22,13.1-10.22,21.39v65.2h-30Z"/>
    <path class="cls-2" d="M489.49,154.53h-15c-12.41,0-22.5,10.09-22.5,22.5s10.09,22.5,22.5,22.5h15c12.41,0,22.5-10.09,22.5-22.5s-10.09-22.5-22.5-22.5Zm0,30h-15c-4.14,0-7.5-3.36-7.5-7.5s3.36-7.5,7.5-7.5h15c4.14,0,7.5,3.36,7.5,7.5s-3.36,7.5-7.5,7.5Z"/>
    <path class="cls-2" d="M466.02,130.94c2.55,0,5.14-.44,7.67-1.36l23.49-8.55h0c11.66-4.24,17.69-17.18,13.45-28.84-4.24-11.66-17.18-17.69-28.84-13.45l-23.49,8.55c-5.65,2.06-10.16,6.19-12.7,11.63-2.54,5.45-2.81,11.56-.75,17.2,3.32,9.13,11.97,14.81,21.17,14.81Zm-6.82-25.67c.85-1.82,2.35-3.19,4.23-3.88l23.49-8.55c.84-.31,1.71-.45,2.56-.45,3.06,0,5.95,1.89,7.06,4.94,1.41,3.89-.6,8.2-4.48,9.61l-23.49,8.55c-1.88,.69-3.92,.6-5.73-.25s-3.19-2.35-3.88-4.23c-.69-1.88-.6-3.92,.25-5.73Z"/>
    <path class="cls-2" d="M497.18,233.02l-23.49-8.55c-11.66-4.24-24.59,1.79-28.84,13.45-4.24,11.66,1.79,24.6,13.45,28.84l23.49,8.55c2.51,.91,5.11,1.37,7.71,1.37,3.24,0,6.47-.71,9.5-2.12,5.45-2.54,9.58-7.05,11.63-12.7,2.06-5.65,1.79-11.76-.75-17.2-2.54-5.45-7.05-9.58-12.7-11.63Zm-.65,23.71c-1.41,3.89-5.73,5.9-9.61,4.48l-23.49-8.55c-1.88-.69-3.39-2.06-4.23-3.88s-.94-3.85-.25-5.73c1.11-3.04,3.99-4.94,7.06-4.94,.85,0,1.71,.15,2.56,.45l23.49,8.55h0c1.88,.69,3.39,2.06,4.23,3.88,.85,1.82,.94,3.85,.25,5.73Z"/>
    <path class="cls-2" d="M22.51,199.53h15c12.41,0,22.5-10.09,22.5-22.5s-10.09-22.5-22.5-22.5h-15C10.1,154.53,0,164.62,0,177.03s10.09,22.5,22.5,22.5Zm0-30h15c4.14,0,7.5,3.36,7.5,7.5s-3.36,7.5-7.5,7.5h-15c-4.14,0-7.5-3.36-7.5-7.5s3.36-7.5,7.5-7.5Z"/>
    <path class="cls-2" d="M14.82,121.04h0l23.49,8.55c2.53,.92,5.12,1.36,7.67,1.36,9.19,0,17.84-5.68,21.17-14.81,2.06-5.65,1.79-11.76-.75-17.2-2.54-5.45-7.05-9.58-12.7-11.63l-23.49-8.55c-11.66-4.24-24.59,1.79-28.84,13.45-4.24,11.66,1.79,24.6,13.45,28.84Zm.65-23.71c1.41-3.89,5.73-5.9,9.61-4.48l23.49,8.55c1.88,.69,3.39,2.06,4.23,3.88,.85,1.82,.94,3.85,.25,5.73-.69,1.88-2.06,3.39-3.88,4.23-1.82,.85-3.85,.94-5.73,.25l-23.49-8.55c-3.89-1.41-5.9-5.73-4.48-9.61Z"/>
    <path class="cls-2" d="M38.31,224.47l-23.49,8.55c-5.65,2.06-10.16,6.19-12.7,11.63-2.54,5.45-2.81,11.56-.75,17.2,2.06,5.65,6.19,10.16,11.63,12.7,3.02,1.41,6.25,2.12,9.5,2.12,2.6,0,5.2-.45,7.71-1.37l23.49-8.55c11.66-4.24,17.69-17.18,13.45-28.84-4.24-11.66-17.18-17.69-28.84-13.45Zm14.49,24.31c-.85,1.82-2.35,3.19-4.23,3.88l-23.49,8.55c-3.88,1.41-8.2-.6-9.61-4.48-.69-1.88-.6-3.92,.25-5.73,.85-1.82,2.35-3.19,4.23-3.88h0l23.49-8.55c.84-.31,1.71-.45,2.56-.45,3.06,0,5.95,1.89,7.06,4.94,.69,1.88,.6,3.92-.25,5.73Z"/>
  </g>
  <g>
    <path class="cls-1" d="M201.58,80.96v1.39c-.58-.03-1.15-.04-1.73-.04-15.36,0-29.21,10.2-35.55,25.77-26.77,8.65-45.8,37.12-45.8,69.42s19.03,60.77,45.8,69.42c6.34,15.58,20.18,25.77,35.55,25.77,.58,0,1.15-.01,1.73-.04v-38.68c0-4.14,3.36-7.5,7.5-7.5s7.5,3.36,7.5,7.5v66.59c4.66,2.82,10.13,4.44,15.96,4.44s11.3-1.63,15.96-4.45V54.44c-4.66-2.82-10.13-4.44-15.96-4.44-17.07,0-30.96,13.89-30.96,30.96Zm14.42,92.28h-.02c-10.02-.03-17.88-2.24-24-5.64-3.68,2.76-9.01,8.6-8.43,19,.23,4.14-2.94,7.68-7.07,7.91-.14,0-.28,.01-.42,.01-3.95,0-7.26-3.09-7.48-7.08-.83-14.91,5.93-24.34,11.93-29.72-5.3-6.92-7.48-14.74-7.76-20.32-.21-4.14,2.97-7.66,7.11-7.87,4.11-.21,7.63,2.95,7.87,7.06,.16,2.25,2.26,21.58,28.31,21.65,4.14,.01,7.49,3.38,7.48,7.52-.01,4.14-3.37,7.48-7.5,7.48Z"/>
    <path class="cls-1" d="M347.7,107.61c-6.34-15.58-20.18-25.77-35.55-25.77-.58,0-1.15,.01-1.73,.04v-1.39c0-17.07-13.89-30.96-30.96-30.96-5.84,0-11.3,1.63-15.96,4.45v246.11c4.66,2.82,10.13,4.44,15.96,4.44s11.3-1.62,15.96-4.44v-66.97c0-4.14,3.36-7.5,7.5-7.5s7.5,3.36,7.5,7.5v39.06c.58,.03,1.15,.04,1.73,.04,15.36,0,29.21-10.2,35.55-25.77,26.77-8.65,45.8-37.12,45.8-69.42s-19.03-60.77-45.8-69.42Zm-4.27,79.84c-.22,3.99-3.53,7.08-7.48,7.08-.14,0-.28,0-.42-.01-4.14-.23-7.3-3.77-7.07-7.91,.58-10.4-4.75-16.24-8.43-19-6.12,3.4-13.99,5.61-24,5.64h-.02c-4.13,0-7.49-3.34-7.5-7.48-.01-4.14,3.34-7.51,7.48-7.52,26.08-.07,28.16-19.45,28.31-21.66,.21-4.14,3.75-7.28,7.87-7.08,4.14,.21,7.32,3.76,7.11,7.9-.28,5.58-2.46,13.4-7.76,20.32,6,5.38,12.76,14.81,11.93,29.72Z"/>
  </g>
</svg>