<?xml version="1.0" encoding="UTF-8"?>
<svg id="OBJECT" xmlns="http://www.w3.org/2000/svg" viewBox="0 0 32 32">
  <defs>
    <style>
      .cls-1 {
        fill: #FD4360;
      }

      .cls-1, .cls-2 {
        stroke-width: 0px;
      }

      .cls-2 {
        fill: #dadada;
      }
    </style>
  </defs>
  <g>
    <path class="cls-2" d="m30,11h-1c-.55,0-1,.45-1,1s.45,1,1,1h1c.55,0,1-.45,1-1s-.45-1-1-1Z"/>
    <path class="cls-2" d="m28,9.25c.17,0,.34-.04.5-.13l.87-.5c.48-.28.64-.89.37-1.37-.28-.48-.89-.64-1.37-.37l-.87.5c-.48.28-.64.89-.37,1.37.19.32.52.5.87.5Z"/>
    <path class="cls-2" d="m29.37,15.38l-.87-.5c-.48-.28-1.09-.11-1.37.37-.28.48-.11,1.09.37,1.37l.87.5c.16.09.33.13.5.13.35,0,.68-.18.87-.5.28-.48.11-1.09-.37-1.37Z"/>
    <path class="cls-2" d="m4,12c0-.55-.45-1-1-1h-1c-.55,0-1,.45-1,1s.45,1,1,1h1c.55,0,1-.45,1-1Z"/>
    <path class="cls-2" d="m4.5,7.38l-.87-.5c-.48-.28-1.09-.11-1.37.37-.28.48-.11,1.09.37,1.37l.87.5c.16.09.33.13.5.13.35,0,.68-.18.87-.5.28-.48.11-1.09-.37-1.37Z"/>
    <path class="cls-2" d="m3.5,14.88l-.87.5c-.48.28-.64.89-.37,1.37.19.32.52.5.87.5.17,0,.34-.04.5-.13l.87-.5c.48-.28.64-.89.37-1.37-.28-.48-.89-.64-1.37-.37Z"/>
    <path class="cls-2" d="m15.66,1c-5.83.18-10.61,5.07-10.66,10.9-.02,2.36.7,4.61,2.07,6.52.6.84.92,1.84.92,2.89v2.69c0,.55.45,1,1,1s1-.45,1-1v-1h12v1c0,.55.45,1,1,1s1-.45,1-1v-2.68c0-1.07.3-2.04.86-2.8,1.4-1.9,2.14-4.15,2.14-6.51,0-3-1.19-5.81-3.34-7.9-2.15-2.09-5-3.17-8-3.1Zm7.59,16.32c-.76,1.03-1.17,2.3-1.23,3.68h-12.05c-.06-1.36-.49-2.65-1.28-3.75-1.13-1.56-1.71-3.4-1.7-5.33.04-4.77,3.95-8.78,8.72-8.92,2.46-.09,4.78.82,6.55,2.54,1.76,1.71,2.73,4,2.73,6.46,0,1.93-.6,3.77-1.75,5.33Z"/>
    <path class="cls-2" d="m15.08,9.33h3.67c.55,0,1-.45,1-1s-.45-1-1-1h-1.75v-.83c0-.55-.45-1-1-1s-1,.45-1,1v.84c-1.52.05-2.75,1.29-2.75,2.83s1.27,2.83,2.83,2.83h1.83c.46,0,.83.37.83.83s-.37.83-.83.83h-3.67c-.55,0-1,.45-1,1s.45,1,1,1h1.75v.83c0,.55.45,1,1,1s1-.45,1-1v-.84c1.52-.05,2.75-1.29,2.75-2.83s-1.27-2.83-2.83-2.83h-1.83c-.46,0-.83-.37-.83-.83s.37-.83.83-.83Z"/>
  </g>
  <path class="cls-1" d="m24.5,26H7.5c-.55,0-1,.45-1,1s.45,1,1,1h3v1c0,1.1.9,2,2,2h7c1.1,0,2-.9,2-2v-1h3c.55,0,1-.45,1-1s-.45-1-1-1Z"/>
</svg>