<?xml version="1.0" encoding="UTF-8"?>
<svg id="OBJECT" xmlns="http://www.w3.org/2000/svg" viewBox="0 0 32 32">
  <defs>
    <style>
      .cls-1 {
        fill: #FD4360;
      }

      .cls-2 {
        fill: #dadada;
      }
    </style>
  </defs>
  <g>
    <path class="cls-2" d="M16,1C9.93,1,5,5.93,5,12c0,3.05,1.27,5.96,3.5,8.04v1.46c0,.55,.45,1,1,1s1-.45,1-1v-1.91c0-.29-.13-.57-.35-.76-2-1.72-3.15-4.21-3.15-6.83,0-4.96,4.04-9,9-9s9,4.04,9,9c0,2.62-1.15,5.11-3.15,6.83-.22,.19-.35,.47-.35,.76v1.91c0,.55,.45,1,1,1s1-.45,1-1v-1.46c2.23-2.08,3.5-4.98,3.5-8.04,0-6.07-4.93-11-11-11Z"/>
    <path class="cls-2" d="M23,12.5v-3c0-1.38-1.12-2.5-2.5-2.5h-1c-1.38,0-2.5,1.12-2.5,2.5v3.5h-2v-3.5c0-1.38-1.12-2.5-2.5-2.5h-1c-1.38,0-2.5,1.12-2.5,2.5v3c0,1.38,1.12,2.5,2.5,2.5h1.5v6.5c0,.55,.45,1,1,1s1-.45,1-1v-6.5h2v6.5c0,.55,.45,1,1,1s1-.45,1-1v-6.5h1.5c1.38,0,2.5-1.12,2.5-2.5Zm-12,0v-3c0-.28,.22-.5,.5-.5h1c.28,0,.5,.22,.5,.5v3.5h-1.5c-.28,0-.5-.22-.5-.5Zm8-3c0-.28,.22-.5,.5-.5h1c.28,0,.5,.22,.5,.5v3c0,.28-.22,.5-.5,.5h-1.5v-3.5Z"/>
    <path class="cls-2" d="M30,11h-.5c-.55,0-1,.45-1,1s.45,1,1,1h.5c.55,0,1-.45,1-1s-.45-1-1-1Z"/>
    <path class="cls-2" d="M28.5,8.59c.11,0,.23-.02,.34-.06l.47-.17c.52-.19,.79-.76,.6-1.28-.19-.52-.76-.79-1.28-.6l-.47,.17c-.52,.19-.79,.76-.6,1.28,.15,.41,.53,.66,.94,.66Z"/>
    <path class="cls-2" d="M29.31,15.65l-.47-.17c-.52-.19-1.09,.08-1.28,.6-.19,.52,.08,1.09,.6,1.28l.47,.17c.11,.04,.23,.06,.34,.06,.41,0,.79-.25,.94-.66,.19-.52-.08-1.09-.6-1.28Z"/>
    <path class="cls-2" d="M3.5,12c0-.55-.45-1-1-1h-.5c-.55,0-1,.45-1,1s.45,1,1,1h.5c.55,0,1-.45,1-1Z"/>
    <path class="cls-2" d="M3.84,6.65l-.47-.17c-.52-.19-1.09,.08-1.28,.6-.19,.52,.08,1.09,.6,1.28l.47,.17c.11,.04,.23,.06,.34,.06,.41,0,.79-.25,.94-.66,.19-.52-.08-1.09-.6-1.28Z"/>
    <path class="cls-2" d="M3.16,15.47l-.47,.17c-.52,.19-.79,.76-.6,1.28,.15,.41,.53,.66,.94,.66,.11,0,.23-.02,.34-.06l.47-.17c.52-.19,.79-.76,.6-1.28-.19-.52-.76-.79-1.28-.6Z"/>
  </g>
  <g>
    <path class="cls-1" d="M24.75,23.5H7.25c-.69,0-1.25,.56-1.25,1.25s.56,1.25,1.25,1.25H24.75c.69,0,1.25-.56,1.25-1.25s-.56-1.25-1.25-1.25Z"/>
    <path class="cls-1" d="M10.5,29c0,1.1,.9,2,2,2h7c1.1,0,2-.9,2-2v-1H10.5v1Z"/>
  </g>
</svg>