<?xml version="1.0" encoding="UTF-8"?>
<svg id="OBJECT" xmlns="http://www.w3.org/2000/svg" viewBox="0 0 32 32">
  <defs>
    <style>
      .cls-1 {
        fill: #FD4360;
      }

      .cls-1, .cls-2 {
        stroke-width: 0px;
      }

      .cls-2 {
        fill: #dadada;
      }
    </style>
  </defs>
  <g>
    <path class="cls-2" d="m24.65,18.78c1.54-1.95,2.35-4.3,2.35-6.78,0-3.27-1.44-6.36-3.96-8.45-2.52-2.1-5.84-2.96-9.11-2.36-3.87.71-7.83,4.54-8.66,8.37-.71,3.3.06,6.68,2.12,9.27.72.9,1.11,2.01,1.11,3.13v1.04h-.5c-.55,0-1,.45-1,1s.45,1,1,1h2.5v3c0,1.65,1.35,3,3,3h5c1.65,0,3-1.35,3-3v-3h2.5c.55,0,1-.45,1-1s-.45-1-1-1h-.5v-1.03c0-1.13.4-2.23,1.15-3.19Zm-5.15,9.22c0,.55-.45,1-1,1h-5c-.55,0-1-.45-1-1v-3h7v3Zm-9-5v-1.04c0-1.57-.55-3.12-1.55-4.38-1.71-2.15-2.33-4.85-1.73-7.61.66-3.07,3.97-6.26,7.07-6.83,2.69-.49,5.41.21,7.47,1.93,2.06,1.72,3.24,4.24,3.24,6.92,0,2.03-.66,3.95-1.92,5.54-1.03,1.32-1.58,2.85-1.58,4.43v1.03h-11Z"/>
    <path class="cls-2" d="m30,11h-1c-.55,0-1,.45-1,1s.45,1,1,1h1c.55,0,1-.45,1-1s-.45-1-1-1Z"/>
    <path class="cls-2" d="m28.07,8.25c.17,0,.34-.04.5-.13l.87-.5c.48-.28.64-.89.37-1.37-.28-.48-.89-.64-1.37-.37l-.87.5c-.48.28-.64.89-.37,1.37.19.32.52.5.87.5Z"/>
    <path class="cls-2" d="m29.43,16.38l-.87-.5c-.48-.28-1.09-.11-1.37.37-.28.48-.11,1.09.37,1.37l.87.5c.16.09.33.13.5.13.35,0,.68-.18.87-.5.28-.48.11-1.09-.37-1.37Z"/>
    <path class="cls-2" d="m4,12c0-.55-.45-1-1-1h-1c-.55,0-1,.45-1,1s.45,1,1,1h1c.55,0,1-.45,1-1Z"/>
    <path class="cls-2" d="m4.43,6.38l-.87-.5c-.48-.28-1.09-.11-1.37.37-.28.48-.11,1.09.37,1.37l.87.5c.16.09.33.13.5.13.35,0,.68-.18.87-.5.28-.48.11-1.09-.37-1.37Z"/>
    <path class="cls-2" d="m3.43,15.88l-.87.5c-.48.28-.64.89-.37,1.37.19.32.52.5.87.5.17,0,.34-.04.5-.13l.87-.5c.48-.28.64-.89.37-1.37-.28-.48-.89-.64-1.37-.37Z"/>
    <path class="cls-2" d="m15,28h2c.55,0,1-.45,1-1s-.45-1-1-1h-2c-.55,0-1,.45-1,1s.45,1,1,1Z"/>
  </g>
  <g>
    <path class="cls-1" d="m18.91,15.91c0-.82-.34-1.57-.93-2.12-.52.47-1.21.77-1.97.77s-1.45-.3-1.97-.77c-.59.54-.93,1.3-.93,2.12v2.73c.89.39,1.87.61,2.91.61s2.02-.22,2.91-.61v-2.73Z"/>
    <path class="cls-1" d="m16,4.75c-4,0-7.25,3.25-7.25,7.25,0,2.1.91,4,2.34,5.32v-1.42c0-1.57.75-3,1.99-3.92-.02-.13-.04-.25-.04-.38v-1.17c0-1.41,1.15-2.56,2.56-2.56h.78c1.41,0,2.56,1.15,2.56,2.56v1.17c0,.13-.02.25-.04.38,1.24.92,1.99,2.35,1.99,3.92v1.42c1.44-1.33,2.34-3.22,2.34-5.32,0-4-3.25-7.25-7.25-7.25Z"/>
    <path class="cls-1" d="m16.95,11.61v-1.17c0-.31-.25-.56-.56-.56h-.78c-.31,0-.56.25-.56.56v1.17c0,.53.43.95.95.95s.95-.43.95-.95Z"/>
  </g>
</svg>