<?xml version="1.0" encoding="UTF-8"?>
<svg id="OBJECT" xmlns="http://www.w3.org/2000/svg" viewBox="0 0 32 32">
  <defs>
    <style>
      .cls-1 {
        fill: #FD4360;
      }

      .cls-2 {
        fill: #dadada;
      }
    </style>
  </defs>
  <g>
    <path class="cls-2" d="M15.71,1c-5.18,.14-9.54,4.48-9.71,9.65-.09,2.77,.93,5.38,2.88,7.35,.4,.4,.62,.92,.62,1.44v4.55c0,.55,.45,1,1,1s1-.45,1-1v-1.1h9v1.1c0,.55,.45,1,1,1s1-.45,1-1v-4.55c0-.52,.22-1.04,.63-1.45,1.85-1.88,2.87-4.37,2.87-7s-1.08-5.27-3.03-7.17c-1.95-1.9-4.52-2.91-7.26-2.83Zm5.99,15.59c-.78,.79-1.2,1.8-1.2,2.85v1.44H11.5v-1.45c0-1.05-.42-2.07-1.2-2.85-1.56-1.58-2.37-3.67-2.3-5.88,.14-4.14,3.62-7.61,7.77-7.72,2.2-.06,4.25,.74,5.81,2.26,1.56,1.52,2.42,3.56,2.42,5.74s-.82,4.09-2.3,5.6Z"/>
    <path class="cls-2" d="M30,10h-2c-.55,0-1,.45-1,1s.45,1,1,1h2c.55,0,1-.45,1-1s-.45-1-1-1Z"/>
    <path class="cls-2" d="M27,7.5c.17,0,.34-.04,.5-.13l1.73-1c.48-.28,.64-.89,.37-1.37-.28-.48-.89-.64-1.37-.37l-1.73,1c-.48,.28-.64,.89-.37,1.37,.19,.32,.52,.5,.87,.5Z"/>
    <path class="cls-2" d="M29.23,15.63l-1.73-1c-.48-.28-1.09-.11-1.37,.37-.28,.48-.11,1.09,.37,1.37l1.73,1c.16,.09,.33,.13,.5,.13,.35,0,.68-.18,.87-.5,.28-.48,.11-1.09-.37-1.37Z"/>
    <path class="cls-2" d="M5,11c0-.55-.45-1-1-1H2c-.55,0-1,.45-1,1s.45,1,1,1h2c.55,0,1-.45,1-1Z"/>
    <path class="cls-2" d="M5.5,5.63l-1.73-1c-.48-.28-1.09-.11-1.37,.37-.28,.48-.11,1.09,.37,1.37l1.73,1c.16,.09,.33,.13,.5,.13,.35,0,.68-.18,.87-.5,.28-.48,.11-1.09-.37-1.37Z"/>
    <path class="cls-2" d="M4.5,14.63l-1.73,1c-.48,.28-.64,.89-.37,1.37,.19,.32,.52,.5,.87,.5,.17,0,.34-.04,.5-.13l1.73-1c.48-.28,.64-.89,.37-1.37s-.89-.64-1.37-.37Z"/>
    <path class="cls-2" d="M18.76,7.93l-3.58,3.97-1.94-2.16c-.37-.41-1-.44-1.41-.07-.41,.37-.44,1-.07,1.41l2.68,2.98c.19,.21,.46,.33,.74,.33s.55-.12,.74-.33l4.32-4.8c.37-.41,.34-1.04-.07-1.41s-1.04-.34-1.41,.07Z"/>
  </g>
  <path class="cls-1" d="M23.5,26H8.5c-.55,0-1,.45-1,1s.45,1,1,1h2.5v1c0,1.1,.9,2,2,2h6c1.1,0,2-.9,2-2v-1h2.5c.55,0,1-.45,1-1s-.45-1-1-1Z"/>
</svg>