<?xml version="1.0" encoding="UTF-8"?>
<svg id="OBJECT" xmlns="http://www.w3.org/2000/svg" viewBox="0 0 32 32">
  <defs>
    <style>
      .cls-1 {
        fill: #FD4360;
      }

      .cls-1, .cls-2 {
        stroke-width: 0px;
      }

      .cls-2 {
        fill: #dadada;
      }
    </style>
  </defs>
  <g>
    <path class="cls-2" d="m14.5,21h-1c-.55,0-1,.45-1,1s.45,1,1,1h1c.55,0,1-.45,1-1s-.45-1-1-1Z"/>
    <path class="cls-2" d="m18.5,21h-1c-.55,0-1,.45-1,1s.45,1,1,1h1c.55,0,1-.45,1-1s-.45-1-1-1Z"/>
    <path class="cls-2" d="m30,4.5c-.55,0-1,.45-1,1v1.25c0,.24-.17.44-.41.49l-3.96.72c-.45-.77-1-1.49-1.66-2.13-1.95-1.9-4.52-2.91-7.26-2.82-3.55.1-6.63,2.08-8.32,4.96l-3.98-.72c-.24-.04-.41-.25-.41-.49v-1.25c0-.55-.45-1-1-1s-1,.45-1,1v1.25c0,1.2.86,2.24,2.05,2.45l3.48.63c-.23.69-.4,1.41-.47,2.16H2c-.55,0-1,.45-1,1s.45,1,1,1h4.05c.07.69.21,1.36.42,2.01l-3.42.62c-1.19.22-2.05,1.25-2.05,2.45v1.25c0,.55.45,1,1,1s1-.45,1-1v-1.25c0-.23.18-.44.41-.49l3.88-.71c.27.47.58.93.92,1.36.51.63.79,1.5.79,2.44v1.31c0,.55.45,1,1,1s1-.45,1-1v-1.31c0-1.39-.44-2.71-1.23-3.69-.13-.16-.22-.33-.33-.49l2.21-.4c1.09,1.16,2.64,1.89,4.36,1.89s3.27-.73,4.36-1.89l2.23.41c-.11.16-.23.33-.36.48-.8.99-1.24,2.31-1.24,3.71v1.29c0,.55.45,1,1,1s1-.45,1-1v-1.29c0-.95.28-1.82.8-2.46.35-.43.65-.88.92-1.35l3.88.71c.23.04.41.25.41.49v1.25c0,.55.45,1,1,1s1-.45,1-1v-1.25c0-1.2-.86-2.24-2.05-2.45l-3.42-.62c.21-.65.35-1.32.42-2.01h4.05c.55,0,1-.45,1-1s-.45-1-1-1h-4.05c-.07-.74-.23-1.47-.47-2.16l3.47-.63c1.19-.22,2.05-1.25,2.05-2.45v-1.25c0-.55-.45-1-1-1Zm-14.23.5c2.18-.04,4.25.74,5.81,2.26.35.34.65.7.93,1.08l-2.26.41c-1.09-1.09-2.59-1.76-4.24-1.76s-3.15.67-4.24,1.76l-2.21-.4c1.43-1.95,3.69-3.28,6.21-3.35Zm-7.23,5.2l1.98.36c-.2.45-.35.93-.43,1.43h-2.01c.08-.62.24-1.22.46-1.8Zm-.08,5.45c-.19-.53-.3-1.09-.37-1.65h2c.08.45.2.88.37,1.29l-2,.36Zm7.54,1.35c-2.21,0-4-1.79-4-4s1.79-4,4-4,4,1.79,4,4-1.79,4-4,4Zm7.55-1.35l-2.01-.36c.17-.41.29-.84.37-1.29h2.02c-.07.57-.19,1.12-.38,1.65Zm.38-3.65h-2.02c-.08-.5-.23-.98-.43-1.43l2.01-.37c.22.58.37,1.18.44,1.8Z"/>
    <path class="cls-2" d="m30,1c-.55,0-1,.45-1,1v.5c0,.55.45,1,1,1s1-.45,1-1v-.5c0-.55-.45-1-1-1Z"/>
    <path class="cls-2" d="m30,22.34c-.55,0-1,.45-1,1v.5c0,.55.45,1,1,1s1-.45,1-1v-.5c0-.55-.45-1-1-1Z"/>
    <path class="cls-2" d="m2,3.5c.55,0,1-.45,1-1v-.5c0-.55-.45-1-1-1s-1,.45-1,1v.5c0,.55.45,1,1,1Z"/>
    <path class="cls-2" d="m2,22.34c-.55,0-1,.45-1,1v.5c0,.55.45,1,1,1s1-.45,1-1v-.5c0-.55-.45-1-1-1Z"/>
    <path class="cls-2" d="m18.21,10.79c-.39-.39-1.02-.39-1.41,0l-.79.79-.79-.79c-.39-.39-1.02-.39-1.41,0s-.39,1.02,0,1.41l.79.79-.79.79c-.39.39-.39,1.02,0,1.41.2.2.45.29.71.29s.51-.1.71-.29l.79-.79.79.79c.2.2.45.29.71.29s.51-.1.71-.29c.39-.39.39-1.02,0-1.41l-.79-.79.79-.79c.39-.39.39-1.02,0-1.41Z"/>
  </g>
  <path class="cls-1" d="m23.5,25h-15c-.55,0-1,.45-1,1s.45,1,1,1h2.5v2c0,1.1.9,2,2,2h6c1.1,0,2-.9,2-2v-2h2.5c.55,0,1-.45,1-1s-.45-1-1-1Z"/>
</svg>