<?xml version="1.0" encoding="UTF-8"?>
<svg id="OBJECT" xmlns="http://www.w3.org/2000/svg" viewBox="0 0 32 32">
  <defs>
    <style>
      .cls-1 {
        fill: #FD4360;
      }

      .cls-1, .cls-2 {
        stroke-width: 0px;
      }

      .cls-2 {
        fill: #dadada;
      }
    </style>
  </defs>
  <g>
    <path class="cls-2" d="m23.33,3.79c-2.33-2.08-5.47-3.07-8.61-2.72-4.89.55-8.94,4.49-9.61,9.37-.44,3.17.51,6.37,2.59,8.76.84.96,1.3,2.15,1.3,3.35v.44c0,.55.45,1,1,1s1-.45,1-1v-.44c0-1.68-.64-3.34-1.79-4.67-1.73-1.99-2.48-4.54-2.12-7.18.55-3.98,3.85-7.2,7.85-7.65,2.61-.29,5.11.5,7.05,2.23,1.91,1.71,3.01,4.15,3.01,6.71,0,2.15-.78,4.24-2.19,5.87-1.17,1.35-1.81,3.01-1.81,4.69v.44c0,.55.45,1,1,1s1-.45,1-1v-.44c0-1.2.47-2.4,1.32-3.38,1.73-2,2.68-4.54,2.68-7.18,0-3.13-1.34-6.12-3.67-8.21Z"/>
    <path class="cls-2" d="m23.25,12c0-4-3.25-7.25-7.25-7.25s-7.25,3.25-7.25,7.25,3.25,7.25,7.25,7.25,7.25-3.25,7.25-7.25Zm-7.25-5.25c2.9,0,5.25,2.36,5.25,5.25,0,.53-.1,1.04-.25,1.52-.54-.52-1.14-.97-1.82-1.3.14-.37.23-.77.23-1.19,0-1.88-1.53-3.4-3.4-3.4s-3.4,1.53-3.4,3.4c0,.42.09.82.23,1.19-.68.33-1.28.78-1.82,1.3-.15-.48-.25-.99-.25-1.52,0-2.89,2.35-5.25,5.25-5.25Zm1.4,4.29c0,.77-.63,1.4-1.4,1.4s-1.4-.63-1.4-1.4.63-1.4,1.4-1.4,1.4.63,1.4,1.4Zm-5.4,4.32c.56-.67,1.28-1.18,2.1-1.5.54.36,1.19.58,1.9.58s1.35-.21,1.9-.58c.82.32,1.54.83,2.1,1.5-.96,1.14-2.39,1.89-4,1.89s-3.03-.74-4-1.89Z"/>
    <path class="cls-2" d="m17,21h-2c-.55,0-1,.45-1,1s.45,1,1,1h2c.55,0,1-.45,1-1s-.45-1-1-1Z"/>
    <path class="cls-2" d="m30,11h-1c-.55,0-1,.45-1,1s.45,1,1,1h1c.55,0,1-.45,1-1s-.45-1-1-1Z"/>
    <path class="cls-2" d="m28.13,8.75c.17,0,.34-.04.5-.13l.87-.5c.48-.28.64-.89.37-1.37-.28-.48-.89-.64-1.37-.37l-.87.5c-.48.28-.64.89-.37,1.37.19.32.52.5.87.5Z"/>
    <path class="cls-2" d="m29.5,15.88l-.87-.5c-.48-.28-1.09-.11-1.37.37-.28.48-.11,1.09.37,1.37l.87.5c.16.09.33.13.5.13.35,0,.68-.18.87-.5.28-.48.11-1.09-.37-1.37Z"/>
    <path class="cls-2" d="m4,12c0-.55-.45-1-1-1h-1c-.55,0-1,.45-1,1s.45,1,1,1h1c.55,0,1-.45,1-1Z"/>
    <path class="cls-2" d="m4.37,6.88l-.87-.5c-.48-.28-1.09-.11-1.37.37-.28.48-.11,1.09.37,1.37l.87.5c.16.09.33.13.5.13.35,0,.68-.18.87-.5.28-.48.11-1.09-.37-1.37Z"/>
    <path class="cls-2" d="m3.37,15.38l-.87.5c-.48.28-.64.89-.37,1.37.19.32.52.5.87.5.17,0,.34-.04.5-.13l.87-.5c.48-.28.64-.89.37-1.37-.28-.48-.89-.64-1.37-.37Z"/>
  </g>
  <path class="cls-1" d="m24,25H8c-.55,0-1,.45-1,1s.45,1,1,1h3v4h10v-4h3c.55,0,1-.45,1-1s-.45-1-1-1Z"/>
</svg>