<?xml version="1.0" encoding="UTF-8"?>
<svg id="OBJECT" xmlns="http://www.w3.org/2000/svg" viewBox="0 0 32 32">
  <defs>
    <style>
      .cls-1 {
        fill: #FD4360;
      }

      .cls-1, .cls-2 {
        stroke-width: 0px;
      }

      .cls-2 {
        fill: #dadada;
      }
    </style>
  </defs>
  <g>
    <path class="cls-2" d="m21.43,11.47c.2.2.45.29.71.29s.51-.1.71-.29l3.53-3.53c.39-.39.39-1.02,0-1.41s-1.02-.39-1.41,0l-2.83,2.83-1.11-1.11c-.39-.39-1.02-.39-1.41,0s-.39,1.02,0,1.41l1.81,1.81Z"/>
    <path class="cls-2" d="m29,17h-.5v-1.4c0-.61.3-1.09.55-1.38,1.26-1.45,1.95-3.31,1.95-5.23,0-2.4-1.06-4.65-2.91-6.17-1.85-1.53-4.28-2.14-6.68-1.67-3.23.63-5.76,3.23-6.29,6.49-.39,2.38.27,4.77,1.83,6.58.25.29.56.77.56,1.38v1.39h-.5c-.55,0-1,.45-1,1s.45,1,1,1h2v3c0,.55.45,1,1,1h6c.55,0,1-.45,1-1v-3h2c.55,0,1-.45,1-1s-.45-1-1-1Zm-10.54-4.08c-1.17-1.35-1.67-3.15-1.37-4.94.4-2.4,2.33-4.39,4.7-4.85,1.81-.35,3.64.11,5.03,1.25,1.39,1.15,2.19,2.83,2.19,4.63,0,1.44-.52,2.83-1.46,3.92-.67.78-1.04,1.73-1.04,2.68v1.4h-7v-1.39c0-.96-.37-1.91-1.04-2.69Zm6.54,8.08h-4v-2h4v2Z"/>
  </g>
  <g>
    <path class="cls-1" d="m13.76,20.65c-.92,2.19-3.09,3.74-5.61,3.74s-4.69-1.54-5.61-3.74c-.97,1.22-1.55,2.76-1.55,4.43v2.46c0,1.91,1.55,3.46,3.46,3.46h7.38c1.91,0,3.46-1.55,3.46-3.46v-2.46c0-1.67-.58-3.21-1.55-4.43Z"/>
    <path class="cls-1" d="m8.15,22.38c2.25,0,4.08-1.83,4.08-4.08v-1.85c0-1.91-1.55-3.46-3.46-3.46h-1.23c-1.91,0-3.46,1.55-3.46,3.46v1.85c0,2.25,1.83,4.08,4.08,4.08Z"/>
  </g>
</svg>