<?xml version="1.0" encoding="UTF-8"?>
<svg id="OBJECT" xmlns="http://www.w3.org/2000/svg" viewBox="0 0 32 32">
  <defs>
    <style>
      .cls-1 {
        fill: #FD4360;
      }

      .cls-1, .cls-2 {
        stroke-width: 0px;
      }

      .cls-2 {
        fill: #dadada;
      }
    </style>
  </defs>
  <g>
    <path class="cls-2" d="m30,11h-1c-.55,0-1,.45-1,1s.45,1,1,1h1c.55,0,1-.45,1-1s-.45-1-1-1Z"/>
    <path class="cls-2" d="m28.02,7.27c.09,0,.18-.01.27-.04l.97-.28c.53-.15.84-.71.69-1.24-.15-.53-.7-.84-1.24-.69l-.97.28c-.53.15-.84.71-.69,1.24.12.44.53.73.96.73Z"/>
    <path class="cls-2" d="m29.26,17.04l-.97-.28c-.53-.15-1.09.16-1.24.69-.15.53.16,1.08.69,1.24l.97.28c.09.03.18.04.27.04.44,0,.84-.29.96-.73.15-.53-.16-1.08-.69-1.24Z"/>
    <path class="cls-2" d="m4,12c0-.55-.45-1-1-1h-1c-.55,0-1,.45-1,1s.45,1,1,1h1c.55,0,1-.45,1-1Z"/>
    <path class="cls-2" d="m4.26,5.31l-.97-.28c-.53-.15-1.08.16-1.24.69-.15.53.16,1.08.69,1.24l.97.28c.09.03.18.04.27.04.44,0,.84-.29.96-.73.15-.53-.16-1.08-.69-1.24Z"/>
    <path class="cls-2" d="m3.71,16.76l-.97.28c-.53.15-.84.71-.69,1.24.12.44.53.73.96.73.09,0,.18-.01.27-.04l.97-.28c.53-.15.84-.71.69-1.24-.15-.53-.7-.84-1.24-.69Z"/>
    <path class="cls-2" d="m23.33,3.79c-2.33-2.08-5.47-3.08-8.61-2.72-4.89.55-8.94,4.49-9.61,9.37-.51,3.68.84,7.34,3.61,9.79.18.16.29.42.29.7v2.07c0,.55.45,1,1,1s1-.45,1-1v-1h10v1c0,.55.45,1,1,1s1-.45,1-1v-2.07c0-.28.11-.54.29-.7,2.36-2.09,3.71-5.08,3.71-8.22s-1.34-6.12-3.67-8.21Zm-1.36,14.93c-.38.34-.65.78-.8,1.27h-10.32c-.16-.49-.42-.93-.8-1.27-2.27-2-3.37-5-2.95-8.02.55-3.98,3.85-7.2,7.85-7.65,2.61-.29,5.11.5,7.05,2.23,1.91,1.71,3.01,4.15,3.01,6.71s-1.11,5.02-3.04,6.73Z"/>
    <path class="cls-2" d="m16,11.26c-1.22,0-2.36.48-3.21,1.36-.39.39-.38,1.03.02,1.41.4.39,1.03.38,1.41-.02.96-.98,2.61-.98,3.57,0,.2.2.46.3.71.3s.5-.09.7-.29c.4-.39.4-1.02.02-1.41-.86-.88-2-1.36-3.21-1.36Z"/>
    <path class="cls-2" d="m16,6.5c-2.16,0-4.19.86-5.71,2.42-.39.39-.38,1.03.02,1.41.4.39,1.03.38,1.41-.02,1.15-1.17,2.67-1.82,4.29-1.82s3.14.64,4.29,1.82c.2.2.46.3.71.3s.5-.09.7-.29c.4-.39.4-1.02.02-1.41-1.52-1.56-3.55-2.42-5.71-2.42Z"/>
    <path class="cls-2" d="m16.28,15.5h-.56c-.55,0-1,.45-1,1s.45,1,1,1h.56c.55,0,1-.45,1-1s-.45-1-1-1Z"/>
  </g>
  <g>
    <path class="cls-1" d="m23.5,26h-15c-.55,0-1,.45-1,1s.45,1,1,1h2.5v1.5c0,.83.67,1.5,1.5,1.5h7c.83,0,1.5-.67,1.5-1.5v-1.5h2.5c.55,0,1-.45,1-1s-.45-1-1-1Z"/>
    <rect class="cls-1" x="9" y="25" width="14" height="2"/>
  </g>
</svg>