<?xml version="1.0" encoding="UTF-8"?>
<svg id="OBJECT" xmlns="http://www.w3.org/2000/svg" viewBox="0 0 32 32">
  <defs>
    <style>
      .cls-1 {
        fill: #FD4360;
      }

      .cls-1, .cls-2 {
        stroke-width: 0px;
      }

      .cls-2 {
        fill: #dadada;
      }
    </style>
  </defs>
  <g>
    <path class="cls-2" d="m23.85,19.69c2.03-2.07,3.15-4.8,3.15-7.69,0-3.13-1.34-6.12-3.67-8.21-2.33-2.08-5.47-3.07-8.61-2.72-4.89.55-8.94,4.49-9.61,9.37-.47,3.41.62,6.77,3.01,9.21.57.59.89,1.3.89,2.02v3.33h-1c-.55,0-1,.45-1,1s.45,1,1,1h3v1.5c0,1.38,1.12,2.5,2.5,2.5h5c1.38,0,2.5-1.12,2.5-2.5v-1.5h3c.55,0,1-.45,1-1s-.45-1-1-1h-1v-3.37c0-.69.3-1.38.85-1.94ZM7.09,10.71c.55-3.98,3.86-7.2,7.86-7.65,2.61-.3,5.11.5,7.05,2.22,1.91,1.71,3.01,4.15,3.01,6.72,0,2.36-.91,4.6-2.58,6.29-.76.77-1.22,1.72-1.36,2.72h-10.13c-.15-1-.62-1.96-1.38-2.74-1.95-2-2.84-4.75-2.46-7.55Zm11.91,17.79c0,.28-.22.5-.5.5h-5c-.28,0-.5-.22-.5-.5v-1.5h6v1.5Zm-8-3.5v-2h10v2h-10Z"/>
    <path class="cls-2" d="m30,11h-1c-.55,0-1,.45-1,1s.45,1,1,1h1c.55,0,1-.45,1-1s-.45-1-1-1Z"/>
    <path class="cls-2" d="m28.13,8.75c.17,0,.34-.04.5-.13l.87-.5c.48-.28.64-.89.37-1.37-.28-.48-.89-.64-1.37-.37l-.87.5c-.48.28-.64.89-.37,1.37.19.32.52.5.87.5Z"/>
    <path class="cls-2" d="m29.5,15.88l-.87-.5c-.48-.28-1.09-.11-1.37.37-.28.48-.11,1.09.37,1.37l.87.5c.16.09.33.13.5.13.35,0,.68-.18.87-.5.28-.48.11-1.09-.37-1.37Z"/>
    <path class="cls-2" d="m4,12c0-.55-.45-1-1-1h-1c-.55,0-1,.45-1,1s.45,1,1,1h1c.55,0,1-.45,1-1Z"/>
    <path class="cls-2" d="m4.37,6.88l-.87-.5c-.48-.28-1.09-.11-1.37.37-.28.48-.11,1.09.37,1.37l.87.5c.16.09.33.13.5.13.35,0,.68-.18.87-.5.28-.48.11-1.09-.37-1.37Z"/>
    <path class="cls-2" d="m3.37,15.38l-.87.5c-.48.28-.64.89-.37,1.37.19.32.52.5.87.5.17,0,.34-.04.5-.13l.87-.5c.48-.28.64-.89.37-1.37-.28-.48-.89-.64-1.37-.37Z"/>
  </g>
  <path class="cls-1" d="m16,5c-3.86,0-7,3.14-7,7s3.14,7,7,7,7-3.14,7-7-3.14-7-7-7Zm3.46,6.04l-3.32,3.32c-.2.2-.45.29-.71.29s-.51-.1-.71-.29l-2.18-2.18c-.39-.39-.39-1.02,0-1.41s1.02-.39,1.41,0l1.47,1.47,2.62-2.62c.39-.39,1.02-.39,1.41,0s.39,1.02,0,1.41Z"/>
</svg>