<?xml version="1.0" encoding="UTF-8"?>
<svg id="OBJECT" xmlns="http://www.w3.org/2000/svg" viewBox="0 0 32 32">
  <defs>
    <style>
      .cls-1 {
        fill: #FD4360;
      }

      .cls-1, .cls-2 {
        stroke-width: 0px;
      }

      .cls-2 {
        fill: #dadada;
      }
    </style>
  </defs>
  <g>
    <path class="cls-2" d="m14,8H2c-.55,0-1,.45-1,1v19c0,1.65,1.35,3,3,3h8c1.65,0,3-1.35,3-3V9c0-.55-.45-1-1-1ZM3,15.88c.45-.15,1.47-.29,3.45.37.92.31,1.83.43,2.68.43,1.53,0,2.89-.39,3.87-.77v9.09H3v-9.12Zm10-5.88v3.72c-1,.49-3.45,1.46-5.91.63-1.86-.63-3.18-.68-4.09-.53v-3.82h10Zm-1,19H4c-.55,0-1-.45-1-1v-1h10v1c0,.55-.45,1-1,1Z"/>
    <path class="cls-2" d="m6.25,18.32h-.5c-.55,0-1,.45-1,1s.45,1,1,1h.5c.55,0,1-.45,1-1s-.45-1-1-1Z"/>
    <path class="cls-2" d="m10.25,18.32h-.5c-.55,0-1,.45-1,1s.45,1,1,1h.5c.55,0,1-.45,1-1s-.45-1-1-1Z"/>
  </g>
  <path class="cls-1" d="m24,1c-3.86,0-7,3.14-7,7s3.14,7,7,7,7-3.14,7-7-3.14-7-7-7Zm2.09,9.81c-.18.14-.39.2-.6.2-.3,0-.6-.14-.8-.4l-1.5-2c-.13-.17-.2-.38-.2-.6v-2.5c0-.55.45-1,1-1s1,.45,1,1v2.17l1.3,1.73c.33.44.24,1.07-.2,1.4Z"/>
</svg>