<?xml version="1.0" encoding="UTF-8"?>
<svg id="OBJECT" xmlns="http://www.w3.org/2000/svg" viewBox="0 0 32 32">
  <defs>
    <style>
      .cls-1 {
        fill: #FD4360;
      }

      .cls-2 {
        fill: #dadada;
      }
    </style>
  </defs>
  <g>
    <path class="cls-2" d="M28.5,19H3.5c-1.38,0-2.5,1.12-2.5,2.5v7c0,1.38,1.12,2.5,2.5,2.5H28.5c1.38,0,2.5-1.12,2.5-2.5v-7c0-1.38-1.12-2.5-2.5-2.5Zm.5,9.5c0,.28-.22,.5-.5,.5H3.5c-.28,0-.5-.22-.5-.5v-7c0-.28,.22-.5,.5-.5H28.5c.28,0,.5,.22,.5,.5v7Z"/>
    <path class="cls-2" d="M26.5,25.75H5.5c-.55,0-1,.45-1,1s.45,1,1,1H26.5c.55,0,1-.45,1-1s-.45-1-1-1Z"/>
    <path class="cls-2" d="M26.5,22.25H9.5c-.55,0-1,.45-1,1s.45,1,1,1H26.5c.55,0,1-.45,1-1s-.45-1-1-1Z"/>
    <path class="cls-2" d="M5.5,24.25h.5c.55,0,1-.45,1-1s-.45-1-1-1h-.5c-.55,0-1,.45-1,1s.45,1,1,1Z"/>
  </g>
  <path class="cls-1" d="M26,1H6c-1.1,0-2,.9-2,2V15c0,1.1,.9,2,2,2H26c1.1,0,2-.9,2-2V3c0-1.1-.9-2-2-2Zm-10.5,3h1c.55,0,1,.45,1,1s-.45,1-1,1h-1c-.55,0-1-.45-1-1s.45-1,1-1Zm9.17,9.24c-.19,.17-.43,.26-.67,.26-.27,0-.54-.11-.74-.33l-3.83-4.19-3.83,4.19c-.37,.41-1,.43-1.41,.06-.41-.37-.44-1.01-.06-1.41l.53-.57-2.07-2.27-3.83,4.19c-.2,.22-.47,.33-.74,.33-.24,0-.48-.09-.67-.26-.41-.37-.44-1.01-.06-1.41l4.57-5c.19-.21,.46-.33,.74-.33s.55,.12,.74,.33l2.69,2.94,2.69-2.94c.38-.41,1.1-.41,1.48,0l4.57,5c.37,.41,.34,1.04-.06,1.41Z"/>
</svg>