<?xml version="1.0" encoding="UTF-8"?>
<svg id="OBJECT" xmlns="http://www.w3.org/2000/svg" viewBox="0 0 32 32">
  <defs>
    <style>
      .cls-1 {
        fill: #FD4360;
      }

      .cls-2 {
        fill: #dadada;
      }
    </style>
  </defs>
  <g>
    <path class="cls-2" d="M24,4H4c-1.65,0-3,1.35-3,3v14c0,1.65,1.35,3,3,3H24c1.65,0,3-1.35,3-3V7c0-1.65-1.35-3-3-3ZM4,6H24c.55,0,1,.45,1,1v13.09l-5.21-6.7c-.18-.23-.45-.37-.75-.39-.29,0-.58,.11-.78,.32l-4.26,4.63-4.26-4.63c-.2-.22-.48-.33-.78-.32-.29,.01-.57,.15-.75,.39l-5.21,6.7V7c0-.55,.45-1,1-1ZM23.96,22H4.04l5.02-6.45,4.2,4.56c.38,.41,1.09,.41,1.47,0l4.2-4.56,5.02,6.45Z"/>
    <path class="cls-2" d="M14,13.25c1.79,0,3.25-1.46,3.25-3.25s-1.46-3.25-3.25-3.25-3.25,1.46-3.25,3.25,1.46,3.25,3.25,3.25Zm0-4.5c.69,0,1.25,.56,1.25,1.25s-.56,1.25-1.25,1.25-1.25-.56-1.25-1.25,.56-1.25,1.25-1.25Z"/>
  </g>
  <path class="cls-1" d="M29,8v14c0,2.21-1.79,4-4,4H5c0,1.1,.9,2,2,2H29c1.1,0,2-.9,2-2V10c0-1.1-.9-2-2-2Z"/>
</svg>