<?xml version="1.0" encoding="UTF-8"?>
<svg id="OBJECT" xmlns="http://www.w3.org/2000/svg" viewBox="0 0 512 512">
  <defs>
    <style>
      .cls-1 {
        fill: #FD4360;
      }

      .cls-2 {
        fill: #dadada;
      }
    </style>
  </defs>
  <g>
    <path class="cls-2" d="M489.5,60h-66V22.5c0-12.41-10.09-22.5-22.5-22.5H111c-12.41,0-22.5,10.09-22.5,22.5V60H22.5c-12.41,0-22.5,10.09-22.5,22.5V252.5c0,12.41,10.09,22.5,22.5,22.5H88.5v37.5c0,12.41,10.09,22.5,22.5,22.5H401c12.41,0,22.5-10.09,22.5-22.5v-37.5h66c12.41,0,22.5-10.09,22.5-22.5V82.5c0-12.41-10.09-22.5-22.5-22.5Zm-66,45h43.5v125h-43.5V105ZM22.5,260c-4.14,0-7.5-3.36-7.5-7.5V82.5c0-4.14,3.36-7.5,7.5-7.5H88.5v15H37.5c-4.14,0-7.5,3.36-7.5,7.5V237.5c0,4.14,3.36,7.5,7.5,7.5h51v15H22.5ZM88.5,105v125H45V105h43.5Zm320,207.5c0,4.14-3.36,7.5-7.5,7.5H111c-4.14,0-7.5-3.36-7.5-7.5V22.5c0-4.14,3.36-7.5,7.5-7.5H401c4.14,0,7.5,3.36,7.5,7.5V312.5Zm88.5-60c0,4.14-3.36,7.5-7.5,7.5h-66v-15h51c4.14,0,7.5-3.36,7.5-7.5V97.5c0-4.14-3.36-7.5-7.5-7.5h-51v-15h66c4.14,0,7.5,3.36,7.5,7.5V252.5Z"/>
    <path class="cls-2" d="M411.91,373.59c-4.25-4.25-9.9-6.59-15.91-6.59s-11.66,2.34-15.91,6.59c-4.25,4.25-6.59,9.9-6.59,15.91s2.34,11.66,6.59,15.91l34.09,34.09-34.09,34.09c-4.25,4.25-6.59,9.9-6.59,15.91s2.34,11.66,6.59,15.91c4.25,4.25,9.9,6.59,15.91,6.59s11.66-2.34,15.91-6.59l50-50c4.25-4.25,6.59-9.9,6.59-15.91s-2.34-11.66-6.59-15.91l-50-50Zm39.39,71.21l-50,50c-1.42,1.42-3.3,2.2-5.3,2.2s-3.89-.78-5.3-2.2c-1.42-1.42-2.2-3.3-2.2-5.3s.78-3.89,2.2-5.3l39.39-39.39c2.93-2.93,2.93-7.68,0-10.61l-39.39-39.39c-1.42-1.42-2.2-3.3-2.2-5.3s.78-3.89,2.2-5.3c1.42-1.42,3.3-2.2,5.3-2.2s3.89,.78,5.3,2.2l50,50c1.42,1.42,2.2,3.3,2.2,5.3s-.78,3.89-2.2,5.3Z"/>
    <path class="cls-2" d="M138.5,389.5c0-6.01-2.34-11.66-6.59-15.91-4.25-4.25-9.9-6.59-15.91-6.59s-11.66,2.34-15.91,6.59l-50,50c-4.25,4.25-6.59,9.9-6.59,15.91s2.34,11.66,6.59,15.91l50,50c4.25,4.25,9.9,6.59,15.91,6.59s11.66-2.34,15.91-6.59c4.25-4.25,6.59-9.9,6.59-15.91s-2.34-11.66-6.59-15.91l-34.09-34.09,34.09-34.09c4.25-4.25,6.59-9.9,6.59-15.91Zm-17.2,5.3l-39.39,39.39c-2.93,2.93-2.93,7.68,0,10.61l39.39,39.39c1.42,1.42,2.2,3.3,2.2,5.3s-.78,3.89-2.2,5.3c-1.42,1.42-3.3,2.2-5.3,2.2s-3.89-.78-5.3-2.2l-50-50c-1.42-1.42-2.2-3.3-2.2-5.3s.78-3.89,2.2-5.3l50-50c1.42-1.42,3.3-2.2,5.3-2.2s3.89,.78,5.3,2.2c1.42,1.42,2.2,3.3,2.2,5.3s-.78,3.89-2.2,5.3Z"/>
    <path class="cls-2" d="M341,412H171c-12.41,0-22.5,10.09-22.5,22.5v10c0,12.41,10.09,22.5,22.5,22.5h170c12.41,0,22.5-10.09,22.5-22.5v-10c0-12.41-10.09-22.5-22.5-22.5Zm-52.5,15v25h-65v-25h65Zm-125,17.5v-10c0-4.14,3.36-7.5,7.5-7.5h37.5v25h-37.5c-4.14,0-7.5-3.36-7.5-7.5Zm185,0c0,4.14-3.36,7.5-7.5,7.5h-37.5v-25h37.5c4.14,0,7.5,3.36,7.5,7.5v10Z"/>
  </g>
  <g>
    <circle class="cls-1" cx="193.95" cy="105.45" r="25"/>
    <path class="cls-1" d="M284.81,52.38c.41,.09,.82,.17,1.23,.24,2.15,.37,4.03,1.65,5.16,3.52,1.13,1.87,1.38,4.13,.71,6.2-1.1,3.37-1.47,6.89-1.09,10.45,1.24,11.74,11.06,21.26,22.83,22.16,3.67,.28,7.26-.22,10.66-1.49,2.68-1,5.69-.38,7.77,1.58,4.02,3.81,8.65,6.78,13.75,8.84,2.78,1.12,4.63,3.8,4.69,6.81,.31,15.52,13.19,28.15,28.71,28.15,2.45,0,4.97-.65,7.35-1.88l6.93-3.56V37.5c0-4.14-3.36-7.5-7.5-7.5h-121.04c1.34,10.92,9.26,20.07,19.85,22.38Z"/>
    <path class="cls-1" d="M161.98,202.98c10.44-12.53,28.85-14.03,41.92-3.44,.38,.31,.73,.65,1.04,1.02l35.24,42.29,54.69-79.55c4.35-6.32,11.2-10.49,18.81-11.45,7.95-1,15.86,1.55,22.29,7.18,.47,.41,.89,.88,1.24,1.39l56.29,81.87v-92.04l-.07,.04c-4.48,2.3-9.36,3.52-14.12,3.53-22.07,0-40.58-16.65-43.43-38-3.83-1.92-7.44-4.25-10.77-6.96-4.1,1.01-8.32,1.35-12.61,1.02-19.18-1.46-34.58-16.41-36.6-35.54-.32-3.04-.3-6.06,.05-9.03-14.5-5.56-24.82-19.41-26.08-35.34H126c-4.14,0-7.5,3.36-7.5,7.5V255.16l43.48-52.18Zm31.97-137.53c22.06,0,40,17.94,40,40s-17.94,40-40,40-40-17.94-40-40,17.94-40,40-40Z"/>
    <path class="cls-1" d="M325.43,169.79c-3.81-3.03-7.44-3.34-9.88-3.03-3.36,.42-6.39,2.27-8.31,5.06l-76.5,111.27c-1.45,2.12-3.8,3.25-6.19,3.25-1.46,0-2.94-.43-4.24-1.32-3.41-2.35-4.28-7.02-1.93-10.43l12.98-18.89-37.43-44.92c-7.55-5.7-16.09-3.39-20.42,1.8l-55.01,66.01v18.9c0,4.14,3.36,7.5,7.5,7.5H386c4.14,0,7.5-3.36,7.5-7.5v-28.7l-68.07-99.01Z"/>
  </g>
</svg>