<?xml version="1.0" encoding="UTF-8"?>
<svg id="OBJECT" xmlns="http://www.w3.org/2000/svg" viewBox="0 0 512 512">
  <defs>
    <style>
      .cls-1 {
        fill: #FD4360;
      }

      .cls-2 {
        fill: #dadada;
      }
    </style>
  </defs>
  <g>
    <path class="cls-2" d="M206,487c4.14,0,7.5-3.36,7.5-7.5v-10c0-4.14-3.36-7.5-7.5-7.5s-7.5,3.36-7.5,7.5v10c0,4.14,3.36,7.5,7.5,7.5Z"/>
    <path class="cls-2" d="M239.33,487c4.14,0,7.5-3.36,7.5-7.5v-10c0-4.14-3.36-7.5-7.5-7.5s-7.5,3.36-7.5,7.5v10c0,4.14,3.36,7.5,7.5,7.5Z"/>
    <path class="cls-2" d="M272.67,487c4.14,0,7.5-3.36,7.5-7.5v-10c0-4.14-3.36-7.5-7.5-7.5s-7.5,3.36-7.5,7.5v10c0,4.14,3.36,7.5,7.5,7.5Z"/>
    <path class="cls-2" d="M306,487c4.14,0,7.5-3.36,7.5-7.5v-10c0-4.14-3.36-7.5-7.5-7.5s-7.5,3.36-7.5,7.5v10c0,4.14,3.36,7.5,7.5,7.5Z"/>
    <path class="cls-2" d="M481,467h-5c-4.14,0-7.5,3.36-7.5,7.5s3.36,7.5,7.5,7.5h5c4.14,0,7.5-3.36,7.5-7.5s-3.36-7.5-7.5-7.5Z"/>
    <path class="cls-2" d="M36,467h-5c-4.14,0-7.5,3.36-7.5,7.5s3.36,7.5,7.5,7.5h5c4.14,0,7.5-3.36,7.5-7.5s-3.36-7.5-7.5-7.5Z"/>
    <path class="cls-2" d="M439.5,110h-11.41c-3.74-33.7-32.4-60-67.09-60-2.82,0-5.65,.18-8.45,.53C330.55,18.8,294.82,0,256,0s-74.55,18.8-96.55,50.53c-2.8-.35-5.62-.53-8.45-.53-34.68,0-63.34,26.3-67.09,60h-11.41C32.52,110,0,142.52,0,182.5s32.52,72.5,72.5,72.5h56v69.77c0,22.18,18.05,40.23,40.23,40.23h34.77v72h-27.5c-12.41,0-22.5,10.09-22.5,22.5v7.5H61c-4.14,0-7.5,3.36-7.5,7.5s3.36,7.5,7.5,7.5h92.5v7.5c0,12.41,10.09,22.5,22.5,22.5h160c12.41,0,22.5-10.09,22.5-22.5v-7.5h92.5c4.14,0,7.5-3.36,7.5-7.5s-3.36-7.5-7.5-7.5h-92.5v-7.5c0-12.41-10.09-22.5-22.5-22.5h-27.5v-72h34.77c22.18,0,40.23-18.05,40.23-40.23v-69.77h56c39.98,0,72.5-32.52,72.5-72.5s-32.52-72.5-72.5-72.5Zm-221,255h15v72h-15v-72Zm30,72v-72h15v72h-15Zm95,22.5v30c0,4.14-3.36,7.5-7.5,7.5H176c-4.14,0-7.5-3.36-7.5-7.5v-30c0-4.14,3.36-7.5,7.5-7.5h160c4.14,0,7.5,3.36,7.5,7.5Zm-50-22.5h-15v-72h15v72Zm75-112.23c0,13.91-11.32,25.23-25.23,25.23H168.73c-13.91,0-25.23-11.32-25.23-25.23V150.23c0-13.91,11.32-25.23,25.23-25.23h174.54c13.91,0,25.23,11.32,25.23,25.23v174.54Zm71-84.77h-56v-89.77c0-22.18-18.05-40.23-40.23-40.23H168.73c-22.18,0-40.23,18.05-40.23,40.23v89.77h-56c-31.71,0-57.5-25.79-57.5-57.5s25.79-57.5,57.5-57.5h18.5c4.14,0,7.5-3.36,7.5-7.5,0-28.95,23.55-52.5,52.5-52.5,3.54,0,7.08,.36,10.53,1.06,3.05,.62,6.17-.71,7.83-3.33,18.93-29.88,51.33-47.72,86.64-47.72s67.71,17.84,86.64,47.72c1.67,2.63,4.78,3.96,7.83,3.33,3.44-.7,6.98-1.06,10.53-1.06,28.95,0,52.5,23.55,52.5,52.5,0,4.14,3.36,7.5,7.5,7.5h18.5c31.71,0,57.5,25.79,57.5,57.5s-25.79,57.5-57.5,57.5Z"/>
    <path class="cls-2" d="M439.5,150c-17.92,0-32.5,14.58-32.5,32.5s14.58,32.5,32.5,32.5,32.5-14.58,32.5-32.5-14.58-32.5-32.5-32.5Zm0,50c-9.65,0-17.5-7.85-17.5-17.5s7.85-17.5,17.5-17.5,17.5,7.85,17.5,17.5-7.85,17.5-17.5,17.5Z"/>
    <path class="cls-2" d="M72.5,150c-17.92,0-32.5,14.58-32.5,32.5s14.58,32.5,32.5,32.5,32.5-14.58,32.5-32.5-14.58-32.5-32.5-32.5Zm0,50c-9.65,0-17.5-7.85-17.5-17.5s7.85-17.5,17.5-17.5,17.5,7.85,17.5,17.5-7.85,17.5-17.5,17.5Z"/>
    <path class="cls-2" d="M221,70h-10c-4.14,0-7.5,3.36-7.5,7.5s3.36,7.5,7.5,7.5h10c4.14,0,7.5-3.36,7.5-7.5s-3.36-7.5-7.5-7.5Z"/>
    <path class="cls-2" d="M261,70h-10c-4.14,0-7.5,3.36-7.5,7.5s3.36,7.5,7.5,7.5h10c4.14,0,7.5-3.36,7.5-7.5s-3.36-7.5-7.5-7.5Z"/>
    <path class="cls-2" d="M301,70h-10c-4.14,0-7.5,3.36-7.5,7.5s3.36,7.5,7.5,7.5h10c4.14,0,7.5-3.36,7.5-7.5s-3.36-7.5-7.5-7.5Z"/>
  </g>
  <g>
    <path class="cls-1" d="M183.08,256.56c4.59-5.5,11.33-8.66,18.49-8.66s13.9,3.16,18.49,8.66l23.78,28.54,40.29-58.6c4.15-6.04,11.01-9.65,18.34-9.65s14.19,3.61,18.34,9.65l32.68,47.53v-109.66c0-13.44-10.93-24.38-24.38-24.38H182.88c-13.44,0-24.38,10.93-24.38,24.38v121.68l24.58-29.49Zm30.42-96.56c16.54,0,30,13.46,30,30s-13.46,30-30,30-30-13.46-30-30,13.46-30,30-30Z"/>
    <circle class="cls-1" cx="213.5" cy="190" r="15"/>
    <path class="cls-1" d="M308.46,235c-1.35-1.97-3.59-3.15-5.98-3.15s-4.62,1.18-5.98,3.14l-54.33,79.02c-2.35,3.41-7.02,4.28-10.43,1.93-3.41-2.35-4.28-7.02-1.93-10.43l5.21-7.58-26.48-31.78c-1.73-2.07-4.27-3.26-6.97-3.26s-5.24,1.19-6.97,3.26l-36.1,43.32v1.14c0,13.44,10.93,24.38,24.38,24.38h146.25c13.44,0,24.38-10.93,24.38-24.38v-10.11l-45.04-65.52Z"/>
  </g>
</svg>