<?xml version="1.0" encoding="UTF-8"?>
<svg id="OBJECT" xmlns="http://www.w3.org/2000/svg" viewBox="0 0 32 32">
  <defs>
    <style>
      .cls-1 {
        fill: #FD4360;
      }

      .cls-1, .cls-2 {
        stroke-width: 0px;
      }

      .cls-2 {
        fill: #dadada;
      }
    </style>
  </defs>
  <g>
    <path class="cls-2" d="m30.45,8.11L16.45,1.11c-.28-.14-.61-.14-.89,0L1.55,8.11c-.49.25-.69.85-.45,1.34.25.49.85.69,1.34.45l.21-.11v11.21c0,.55.45,1,1,1s1-.45,1-1v-12.21l11.34-5.67,11.34,5.67v12.21c0,.55.45,1,1,1s1-.45,1-1v-11.21l.21.11c.14.07.3.11.45.11.37,0,.72-.2.9-.55.25-.49.05-1.09-.45-1.34Z"/>
    <path class="cls-2" d="m15.17,12.67h3.33c.55,0,1-.45,1-1s-.45-1-1-1h-1.5v-.67c0-.55-.45-1-1-1s-1,.45-1,1v.68c-1.39.09-2.5,1.24-2.5,2.65s1.2,2.67,2.67,2.67h1.67c.37,0,.67.3.67.67s-.3.67-.67.67h-3.33c-.55,0-1,.45-1,1s.45,1,1,1h1.5v.67c0,.55.45,1,1,1s1-.45,1-1v-.68c1.39-.09,2.5-1.24,2.5-2.65s-1.2-2.67-2.67-2.67h-1.67c-.37,0-.67-.3-.67-.67s.3-.67.67-.67Z"/>
    <path class="cls-2" d="m23.5,14h-1c-.55,0-1,.45-1,1s.45,1,1,1h1c.55,0,1-.45,1-1s-.45-1-1-1Z"/>
    <path class="cls-2" d="m9.5,14h-1c-.55,0-1,.45-1,1s.45,1,1,1h1c.55,0,1-.45,1-1s-.45-1-1-1Z"/>
  </g>
  <g>
    <path class="cls-1" d="m30,29H2c-.55,0-1,.45-1,1s.45,1,1,1h28c.55,0,1-.45,1-1s-.45-1-1-1Z"/>
    <rect class="cls-1" x="2.66" y="24" width="26.68" height="3"/>
  </g>
</svg>