<?xml version="1.0" encoding="UTF-8"?>
<svg id="OBJECT" xmlns="http://www.w3.org/2000/svg" viewBox="0 0 32 32">
  <defs>
    <style>
      .cls-1 {
        fill: #FD4360;
      }

      .cls-1, .cls-2 {
        stroke-width: 0px;
      }

      .cls-2 {
        fill: #dadada;
      }
    </style>
  </defs>
  <g>
    <path class="cls-2" d="m17,10h-4c-.55,0-1,.45-1,1s.45,1,1,1h4c.55,0,1-.45,1-1s-.45-1-1-1Z"/>
    <path class="cls-2" d="m11.9,19c0-.55-.45-1-1-1h-4.79c-.55,0-1,.45-1,1s.45,1,1,1h4.79c.55,0,1-.45,1-1Z"/>
    <path class="cls-2" d="m12.9,14h-1.79c-.55,0-1,.45-1,1s.45,1,1,1h1.79c.55,0,1-.45,1-1s-.45-1-1-1Z"/>
    <path class="cls-2" d="m6.1,16h1.79c.55,0,1-.45,1-1s-.45-1-1-1h-1.79c-.55,0-1,.45-1,1s.45,1,1,1Z"/>
    <path class="cls-2" d="m6.1,22c-.55,0-1,.45-1,1s.45,1,1,1h3.79c.55,0,1-.45,1-1s-.45-1-1-1h-3.79Z"/>
    <path class="cls-2" d="m21,1h-12.39c-.27,0-.53.11-.72.3L1.28,8.07c-.18.19-.28.44-.28.7v18.23c0,.55.45,1,1,1h8.76c.55,0,1-.45,1-1s-.45-1-1-1H3V9.77h4.11c1.38,0,2.5-1.12,2.5-2.5V3h10.39v7.07c0,.55.45,1,1,1s1-.45,1-1V2c0-.55-.45-1-1-1ZM7.11,7.77h-2.74l3.24-3.32v2.82c0,.28-.22.5-.5.5Z"/>
  </g>
  <path class="cls-1" d="m22,13c-4.96,0-9,4.04-9,9s4.04,9,9,9,9-4.04,9-9-4.04-9-9-9Zm-3.93,5.86c0-.55.45-1,1-1s1,.45,1,1v1.5c0,.55-.45,1-1,1s-1-.45-1-1v-1.5Zm8,6c0,.55-.45,1-1,1s-1-.45-1-1v-1.5c0-.55.45-1,1-1s1,.45,1,1v1.5Zm-.29-5.29l-6,6c-.2.2-.45.29-.71.29s-.51-.1-.71-.29c-.39-.39-.39-1.02,0-1.41l6-6c.39-.39,1.02-.39,1.41,0s.39,1.02,0,1.41Z"/>
</svg>