<?xml version="1.0" encoding="UTF-8"?>
<svg id="OBJECT" xmlns="http://www.w3.org/2000/svg" viewBox="0 0 32 32">
  <defs>
    <style>
      .cls-1 {
        fill: #FD4360;
      }

      .cls-2 {
        fill: #dadada;
      }
    </style>
  </defs>
  <g>
    <path class="cls-2" d="M30,15H2c-.55,0-1,.45-1,1v14c0,.55,.45,1,1,1H30c.55,0,1-.45,1-1v-14c0-.55-.45-1-1-1Zm-5,14H7v-3c0-.55,.45-1,1-1H24c.55,0,1,.45,1,1v3Zm4,0h-2v-3c0-1.65-1.35-3-3-3H8c-1.65,0-3,1.35-3,3v3H3v-12H29v12Z"/>
    <path class="cls-2" d="M22.5,20h.5c.55,0,1-.45,1-1s-.45-1-1-1h-.5c-.55,0-1,.45-1,1s.45,1,1,1Z"/>
    <path class="cls-2" d="M26.5,20h.5c.55,0,1-.45,1-1s-.45-1-1-1h-.5c-.55,0-1,.45-1,1s.45,1,1,1Z"/>
  </g>
  <path class="cls-1" d="M26,3c0-1.1-.9-2-2-2H8c-1.1,0-2,.9-2,2V13H26V3Zm-15.5,1h.5c.55,0,1,.45,1,1s-.45,1-1,1h-.5c-.55,0-1-.45-1-1s.45-1,1-1Zm11,6H10.5c-.55,0-1-.45-1-1s.45-1,1-1h11c.55,0,1,.45,1,1s-.45,1-1,1Zm0-4h-7c-.55,0-1-.45-1-1s.45-1,1-1h7c.55,0,1,.45,1,1s-.45,1-1,1Z"/>
</svg>