<?xml version="1.0" encoding="UTF-8"?>
<svg id="OBJECT" xmlns="http://www.w3.org/2000/svg" viewBox="0 0 32 32">
  <defs>
    <style>
      .cls-1 {
        fill: #FD4360;
      }

      .cls-1, .cls-2 {
        stroke-width: 0px;
      }

      .cls-2 {
        fill: #dadada;
      }
    </style>
  </defs>
  <g>
    <path class="cls-2" d="m30,9H2c-.55,0-1,.45-1,1v15c0,.55.45,1,1,1h3.21l-.69,3.82c-.05.29.03.59.22.82.19.23.47.36.77.36h21c.3,0,.58-.13.77-.36.19-.23.27-.53.22-.82l-.69-3.82h3.21c.55,0,1-.45,1-1v-15c0-.55-.45-1-1-1ZM6.7,29l1.64-9h15.33l1.64,9H6.7Zm22.3-5h-2.58l-.73-4h.8c.55,0,1-.45,1-1s-.45-1-1-1H5.5c-.55,0-1,.45-1,1s.45,1,1,1h.8l-.73,4h-2.58v-13h26v13Z"/>
    <path class="cls-2" d="m21.5,15h.5c.55,0,1-.45,1-1s-.45-1-1-1h-.5c-.55,0-1,.45-1,1s.45,1,1,1Z"/>
    <path class="cls-2" d="m25.5,15h.5c.55,0,1-.45,1-1s-.45-1-1-1h-.5c-.55,0-1,.45-1,1s.45,1,1,1Z"/>
    <path class="cls-2" d="m22.31,25.5h-12.61c-.55,0-1,.45-1,1s.45,1,1,1h12.61c.55,0,1-.45,1-1s-.45-1-1-1Z"/>
    <path class="cls-2" d="m10.42,23.5h11.16c.55,0,1-.45,1-1s-.45-1-1-1h-11.16c-.55,0-1,.45-1,1s.45,1,1,1Z"/>
  </g>
  <g>
    <rect class="cls-1" x="25" y="4" width="4" height="3"/>
    <rect class="cls-1" x="3" y="4" width="4" height="3"/>
    <rect class="cls-1" x="9" y="1" width="14" height="6"/>
  </g>
</svg>