<?xml version="1.0" encoding="UTF-8"?>
<svg id="OBJECT" xmlns="http://www.w3.org/2000/svg" viewBox="0 0 32 32">
  <defs>
    <style>
      .cls-1 {
        fill: #FD4360;
      }

      .cls-1, .cls-2 {
        stroke-width: 0px;
      }

      .cls-2 {
        fill: #dadada;
      }
    </style>
  </defs>
  <g>
    <path class="cls-2" d="m28,1H4c-1.65,0-3,1.35-3,3v18c0,.55.45,1,1,1s1-.45,1-1v-11.32l3.12-1.25c1.14-.46,1.88-1.55,1.88-2.79v-3.65h3.5v5h-1c-.55,0-1,.45-1,1s.45,1,1,1h2.18l.84,4.2c.09.47.5.8.98.8h3c.48,0,.89-.34.98-.8l.84-4.2h2.18c.55,0,1-.45,1-1s-.45-1-1-1h-1V3h3.5v3.65c0,1.23.74,2.33,1.89,2.79l3.11,1.25v11.32c0,.55.45,1,1,1s1-.45,1-1V4c0-1.65-1.35-3-3-3ZM6,6.65c0,.41-.25.78-.63.93l-2.37.95v-4.52c0-.55.45-1,1-1h2v3.65Zm10.68,6.35h-1.36l-.6-3h2.56l-.6,3Zm1.82-5h-5V3h5v5Zm8.13-.43c-.38-.15-.63-.52-.63-.93v-3.65h2c.55,0,1,.45,1,1v4.52l-2.37-.95Z"/>
    <path class="cls-2" d="m21,17h-10c-.55,0-1,.45-1,1v4c0,.55.45,1,1,1s1-.45,1-1v-3h8v3c0,.55.45,1,1,1s1-.45,1-1v-4c0-.55-.45-1-1-1Z"/>
    <path class="cls-2" d="m15.5,6.5h1c.55,0,1-.45,1-1s-.45-1-1-1h-1c-.55,0-1,.45-1,1s.45,1,1,1Z"/>
  </g>
  <path class="cls-1" d="m1,30c0,.55.45,1,1,1h28c.55,0,1-.45,1-1v-5H1v5Zm24.5-3h.5c.55,0,1,.45,1,1s-.45,1-1,1h-.5c-.55,0-1-.45-1-1s.45-1,1-1Zm-9.75,0h.5c.55,0,1,.45,1,1s-.45,1-1,1h-.5c-.55,0-1-.45-1-1s.45-1,1-1Zm-9.75,0h.5c.55,0,1,.45,1,1s-.45,1-1,1h-.5c-.55,0-1-.45-1-1s.45-1,1-1Z"/>
</svg>