<?xml version="1.0" encoding="UTF-8"?>
<svg id="OBJECT" xmlns="http://www.w3.org/2000/svg" viewBox="0 0 32 32">
  <defs>
    <style>
      .cls-1 {
        fill: #FD4360;
      }

      .cls-1, .cls-2 {
        stroke-width: 0px;
      }

      .cls-2 {
        fill: #dadada;
      }
    </style>
  </defs>
  <g>
    <path class="cls-2" d="m30,17H2c-.55,0-1,.45-1,1v12c0,.55.45,1,1,1h28c.55,0,1-.45,1-1v-12c0-.55-.45-1-1-1Zm-5,12H7v-2c0-.55.45-1,1-1h16c.55,0,1,.45,1,1v2Zm4,0h-2v-2c0-1.65-1.35-3-3-3H8c-1.65,0-3,1.35-3,3v2h-2v-10h26v10Z"/>
    <path class="cls-2" d="m22.5,22h.5c.55,0,1-.45,1-1s-.45-1-1-1h-.5c-.55,0-1,.45-1,1s.45,1,1,1Z"/>
    <path class="cls-2" d="m26.5,22h.5c.55,0,1-.45,1-1s-.45-1-1-1h-.5c-.55,0-1,.45-1,1s.45,1,1,1Z"/>
  </g>
  <path class="cls-1" d="m25,3c0-1.1-.9-2-2-2h-14c-1.1,0-2,.9-2,2v12h18V3Zm-4,10h-10c-.55,0-1-.45-1-1s.45-1,1-1h10c.55,0,1,.45,1,1s-.45,1-1,1Zm0-4h-10c-.55,0-1-.45-1-1s.45-1,1-1h10c.55,0,1,.45,1,1s-.45,1-1,1Zm0-4h-10c-.55,0-1-.45-1-1s.45-1,1-1h10c.55,0,1,.45,1,1s-.45,1-1,1Z"/>
</svg>