<?xml version="1.0" encoding="UTF-8"?>
<svg id="OBJECT" xmlns="http://www.w3.org/2000/svg" viewBox="0 0 32 32">
  <defs>
    <style>
      .cls-1 {
        fill: #FD4360;
      }

      .cls-1, .cls-2 {
        stroke-width: 0px;
      }

      .cls-2 {
        fill: #dadada;
      }
    </style>
  </defs>
  <path class="cls-2" d="m30,29h-1V11.5c0-1.38-1.12-2.5-2.5-2.5h-1c-1.38,0-2.5,1.12-2.5,2.5v17.5h-2v-10.5c0-1.38-1.12-2.5-2.5-2.5h-1c-1.38,0-2.5,1.12-2.5,2.5v10.5h-2v-5.5c0-1.38-1.12-2.5-2.5-2.5h-1c-1.38,0-2.5,1.12-2.5,2.5v5.5h-1c-.55,0-1,.45-1,1s.45,1,1,1h24c.55,0,1-.45,1-1s-.45-1-1-1Zm-5-17.5c0-.28.22-.5.5-.5h1c.28,0,.5.22.5.5v17.5h-2V11.5Zm-8,7c0-.28.22-.5.5-.5h1c.28,0,.5.22.5.5v10.5h-2v-10.5Zm-8,5c0-.28.22-.5.5-.5h1c.28,0,.5.22.5.5v5.5h-2v-5.5Z"/>
  <path class="cls-1" d="m17,9c0-4.41-3.59-8-8-8S1,4.59,1,9s3.59,8,8,8,8-3.59,8-8Zm-9,4.2v-.4h-1.1c-.55,0-1-.45-1-1s.45-1,1-1h2.8c.22,0,.4-.18.4-.4s-.18-.4-.4-.4h-1.4c-1.32,0-2.4-1.08-2.4-2.4,0-1.22.92-2.22,2.1-2.37v-.43c0-.55.45-1,1-1s1,.45,1,1v.4h1.1c.55,0,1,.45,1,1s-.45,1-1,1h-2.8c-.22,0-.4.18-.4.4s.18.4.4.4h1.4c1.32,0,2.4,1.08,2.4,2.4,0,1.22-.92,2.22-2.1,2.37v.43c0,.55-.45,1-1,1s-1-.45-1-1Z"/>
</svg>