<?xml version="1.0" encoding="UTF-8"?>
<svg id="OBJECT" xmlns="http://www.w3.org/2000/svg" viewBox="0 0 32 32">
  <defs>
    <style>
      .cls-1 {
        fill: #FD4360;
      }

      .cls-1, .cls-2 {
        stroke-width: 0px;
      }

      .cls-2 {
        fill: #dadada;
      }
    </style>
  </defs>
  <g>
    <path class="cls-2" d="m30,25.5H6V2c0-.55-.45-1-1-1s-1,.45-1,1v1h-2c-.55,0-1,.45-1,1s.45,1,1,1h2v3.62h-2c-.55,0-1,.45-1,1s.45,1,1,1h2v3.62h-2c-.55,0-1,.45-1,1s.45,1,1,1h2v3.62h-2c-.55,0-1,.45-1,1s.45,1,1,1h2v3.62h-2c-.55,0-1,.45-1,1s.45,1,1,1h2v1c0,1.38,1.12,2.5,2.5,2.5h22c1.38,0,2.5-1.12,2.5-2.5v-2c0-.55-.45-1-1-1Zm-1,3c0,.28-.22.5-.5.5H6.5c-.28,0-.5-.22-.5-.5v-1h23v1Z"/>
    <path class="cls-2" d="m10.5,24h1c1.38,0,2.5-1.12,2.5-2.5v-7c0-1.38-1.12-2.5-2.5-2.5h-1c-1.38,0-2.5,1.12-2.5,2.5v7c0,1.38,1.12,2.5,2.5,2.5Zm1-2h-1c-.28,0-.5-.22-.5-.5v-3.5h2v3.5c0,.28-.22.5-.5.5Zm-1-8h1c.28,0,.5.22.5.5v1.5h-2v-1.5c0-.28.22-.5.5-.5Z"/>
    <path class="cls-2" d="m18.5,24h1c1.38,0,2.5-1.12,2.5-2.5v-12c0-1.38-1.12-2.5-2.5-2.5h-1c-1.38,0-2.5,1.12-2.5,2.5v12c0,1.38,1.12,2.5,2.5,2.5Zm1-2h-1c-.28,0-.5-.22-.5-.5v-8.5h2v8.5c0,.28-.22.5-.5.5Zm-1-13h1c.28,0,.5.22.5.5v1.5h-2v-1.5c0-.28.22-.5.5-.5Z"/>
  </g>
  <path class="cls-1" d="m30,3.5c0-.83-.67-1.5-1.5-1.5h-3c-.83,0-1.5.67-1.5,1.5v1.5h6v-1.5Z"/>
  <path class="cls-1" d="m25.5,24h3c.83,0,1.5-.67,1.5-1.5V7h-6v15.5c0,.83.67,1.5,1.5,1.5Z"/>
</svg>