<?xml version="1.0" encoding="UTF-8"?>
<svg id="OBJECT" xmlns="http://www.w3.org/2000/svg" viewBox="0 0 32 32">
  <defs>
    <style>
      .cls-1 {
        fill: #FD4360;
      }

      .cls-1, .cls-2 {
        stroke-width: 0px;
      }

      .cls-2 {
        fill: #dadada;
      }
    </style>
  </defs>
  <g>
    <path class="cls-2" d="m30,29h-.5v-4h.5c.55,0,1-.45,1-1s-.45-1-1-1h-2V7c0-3.31-2.69-6-6-6h-12c-3.31,0-6,2.69-6,6v16h-2c-.55,0-1,.45-1,1s.45,1,1,1h.5v4h-.5c-.55,0-1,.45-1,1s.45,1,1,1h28c.55,0,1-.45,1-1s-.45-1-1-1ZM6,7c0-2.21,1.79-4,4-4h12c2.21,0,4,1.79,4,4v16H6V7Zm-1.5,18h23v4H4.5v-4Z"/>
    <path class="cls-2" d="m8,26h-.5c-.55,0-1,.45-1,1s.45,1,1,1h.5c.55,0,1-.45,1-1s-.45-1-1-1Z"/>
    <path class="cls-2" d="m12,26h-.5c-.55,0-1,.45-1,1s.45,1,1,1h.5c.55,0,1-.45,1-1s-.45-1-1-1Z"/>
    <path class="cls-2" d="m24.5,26h-7.5c-.55,0-1,.45-1,1s.45,1,1,1h7.5c.55,0,1-.45,1-1s-.45-1-1-1Z"/>
  </g>
  <path class="cls-1" d="m24.19,6.89c-.07-.42-.4-.74-.82-.81-.13-.02-3.13-.5-5.56,1.27-.74.54-1.35,1.22-1.81,2.04-.46-.82-1.07-1.5-1.81-2.04-2.43-1.76-5.44-1.29-5.56-1.27-.42.07-.75.4-.82.81-.73,4.18-.14,7.13,1.74,8.76,1.22,1.06,2.74,1.35,4.03,1.35.52,0,1-.05,1.41-.11v4.11h2v-4.11c.41.06.9.11,1.42.11,1.29,0,2.81-.29,4.03-1.35,1.89-1.64,2.47-4.59,1.74-8.76Z"/>
</svg>