<?xml version="1.0" encoding="UTF-8"?>
<svg id="OBJECT" xmlns="http://www.w3.org/2000/svg" viewBox="0 0 512 512">
  <defs>
    <style>
      .cls-1 {
        fill: #FD4360;
      }

      .cls-2 {
        fill: #dadada;
      }
    </style>
  </defs>
  <g>
    <path class="cls-2" d="M181,447c-4.14,0-7.5,3.36-7.5,7.5v20c0,4.14,3.36,7.5,7.5,7.5s7.5-3.36,7.5-7.5v-20c0-4.14-3.36-7.5-7.5-7.5Z"/>
    <path class="cls-2" d="M218.5,447c-4.14,0-7.5,3.36-7.5,7.5v20c0,4.14,3.36,7.5,7.5,7.5s7.5-3.36,7.5-7.5v-20c0-4.14-3.36-7.5-7.5-7.5Z"/>
    <path class="cls-2" d="M256,447c-4.14,0-7.5,3.36-7.5,7.5v20c0,4.14,3.36,7.5,7.5,7.5s7.5-3.36,7.5-7.5v-20c0-4.14-3.36-7.5-7.5-7.5Z"/>
    <path class="cls-2" d="M293.5,447c-4.14,0-7.5,3.36-7.5,7.5v20c0,4.14,3.36,7.5,7.5,7.5s7.5-3.36,7.5-7.5v-20c0-4.14-3.36-7.5-7.5-7.5Z"/>
    <path class="cls-2" d="M331,447c-4.14,0-7.5,3.36-7.5,7.5v20c0,4.14,3.36,7.5,7.5,7.5s7.5-3.36,7.5-7.5v-20c0-4.14-3.36-7.5-7.5-7.5Z"/>
    <path class="cls-2" d="M438.5,369.5v-10c0-12.41-10.09-22.5-22.5-22.5h-2.5V157.5C413.5,70.65,342.85,0,256,0S98.5,70.65,98.5,157.5v179.5h-2.5c-12.41,0-22.5,10.09-22.5,22.5v10c0,11.56,8.77,21.11,20,22.36v105.14h-12.5c-4.14,0-7.5,3.36-7.5,7.5s3.36,7.5,7.5,7.5H431c4.14,0,7.5-3.36,7.5-7.5s-3.36-7.5-7.5-7.5h-12.5v-105.14c11.23-1.25,20-10.8,20-22.36ZM113.5,157.5c0-78.58,63.92-142.5,142.5-142.5s142.5,63.92,142.5,142.5v179.5H113.5V157.5Zm-25,212v-10c0-4.14,3.36-7.5,7.5-7.5H416c4.14,0,7.5,3.36,7.5,7.5v10c0,4.14-3.36,7.5-7.5,7.5H96c-4.14,0-7.5-3.36-7.5-7.5Zm275,127.5H148.5v-52.5c0-6.89,5.61-12.5,12.5-12.5h190c6.89,0,12.5,5.61,12.5,12.5v52.5Zm15,0v-52.5c0-15.16-12.34-27.5-27.5-27.5H161c-15.16,0-27.5,12.34-27.5,27.5v52.5h-25v-105H403.5v105h-25Z"/>
  </g>
  <g>
    <path class="cls-1" d="M340.01,152.25c-22.63-33.7-52.46-52.25-84.01-52.25s-61.38,18.56-84.01,52.25c-21.29,31.7-33.49,73.7-33.49,115.25,0,18.7,2.48,37.15,7.23,54.5h220.54c4.75-17.35,7.23-35.8,7.23-54.5,0-41.54-12.21-83.55-33.49-115.25Zm-124.01,152.75c-20.68,0-37.5-16.82-37.5-37.5s16.82-37.5,37.5-37.5,37.5,16.82,37.5,37.5-16.82,37.5-37.5,37.5Zm30-90c-15.16,0-27.5-12.34-27.5-27.5s12.34-27.5,27.5-27.5,27.5,12.34,27.5,27.5-12.34,27.5-27.5,27.5Zm39.76-71.28c-1.25,2.78-3.98,4.43-6.84,4.43-1.03,0-2.07-.21-3.07-.66-.79-.35-1.57-.68-2.34-.97-3.88-1.46-5.84-5.78-4.38-9.66,1.46-3.88,5.78-5.84,9.66-4.38,1.06,.4,2.14,.84,3.21,1.33,3.78,1.7,5.47,6.14,3.77,9.91Zm50.83,99.2c-.38,.06-.75,.08-1.12,.08-3.65,0-6.85-2.67-7.41-6.39-3.5-23.33-11.49-44.8-23.11-62.11-3.59-5.34-7.44-10.12-11.45-14.19-2.91-2.95-2.87-7.7,.09-10.61,2.95-2.91,7.7-2.87,10.61,.09,4.67,4.74,9.11,10.24,13.21,16.35,12.85,19.13,21.66,42.73,25.49,68.24,.61,4.1-2.21,7.92-6.3,8.53Z"/>
    <circle class="cls-1" cx="246" cy="187.5" r="12.5"/>
    <circle class="cls-1" cx="216" cy="267.5" r="22.5"/>
  </g>
</svg>