<?xml version="1.0" encoding="UTF-8"?>
<svg id="OBJECT" xmlns="http://www.w3.org/2000/svg" viewBox="0 0 32 32">
  <defs>
    <style>
      .cls-1 {
        fill: #FD4360;
      }

      .cls-1, .cls-2 {
        stroke-width: 0px;
      }

      .cls-2 {
        fill: #dadada;
      }
    </style>
  </defs>
  <path class="cls-1" d="m27,3.5c0-1.38-1.12-2.5-2.5-2.5h-1c-1.38,0-2.5,1.12-2.5,2.5v7.5h6V3.5Z"/>
  <path class="cls-1" d="m5,15.43c0-2.44,1.99-4.43,4.43-4.43h9.57v-2.05c0-.78-.36-1.51-.98-1.98-.62-.48-1.41-.64-2.19-.43l-10.98,3.19c-1.09.29-1.86,1.28-1.86,2.42v14.85h2v-11.57Z"/>
  <g>
    <path class="cls-2" d="m11.5,18.5h1c.55,0,1-.45,1-1s-.45-1-1-1h-1c-.55,0-1,.45-1,1s.45,1,1,1Z"/>
    <path class="cls-2" d="m17.5,18.5h1c.55,0,1-.45,1-1s-.45-1-1-1h-1c-.55,0-1,.45-1,1s.45,1,1,1Z"/>
    <path class="cls-2" d="m23.5,18.5h1c.55,0,1-.45,1-1s-.45-1-1-1h-1c-.55,0-1,.45-1,1s.45,1,1,1Z"/>
    <path class="cls-2" d="m13.5,21.5c0-.55-.45-1-1-1h-1c-.55,0-1,.45-1,1s.45,1,1,1h1c.55,0,1-.45,1-1Z"/>
    <path class="cls-2" d="m17.5,22.5h1c.55,0,1-.45,1-1s-.45-1-1-1h-1c-.55,0-1,.45-1,1s.45,1,1,1Z"/>
    <path class="cls-2" d="m23.5,22.5h1c.55,0,1-.45,1-1s-.45-1-1-1h-1c-.55,0-1,.45-1,1s.45,1,1,1Z"/>
    <path class="cls-2" d="m30,29h-1v-13.57c0-1.34-1.09-2.43-2.43-2.43H9.43c-1.34,0-2.43,1.09-2.43,2.43v13.57H2c-.55,0-1,.45-1,1s.45,1,1,1h28c.55,0,1-.45,1-1s-.45-1-1-1ZM9,15.43c0-.24.19-.43.43-.43h17.14c.24,0,.43.19.43.43v13.57h-4v-4c0-.55-.45-1-1-1h-8c-.55,0-1,.45-1,1v4h-4v-13.57Zm10,10.57h2v3h-2v-3Zm-2,3h-2v-3h2v3Z"/>
  </g>
</svg>