<?xml version="1.0" encoding="UTF-8"?>
<svg id="OBJECT" xmlns="http://www.w3.org/2000/svg" viewBox="0 0 32 32">
  <defs>
    <style>
      .cls-1 {
        fill: #FD4360;
      }

      .cls-1, .cls-2 {
        stroke-width: 0px;
      }

      .cls-2 {
        fill: #dadada;
      }
    </style>
  </defs>
  <path class="cls-1" d="m10.68,7.66c0-.65-.53-1.18-1.18-1.18s-1.18.53-1.18,1.18.53,1.18,1.18,1.18,1.18-.53,1.18-1.18Z"/>
  <path class="cls-1" d="m9.5,1C5.09,1,1.5,4.59,1.5,9c0,1.5.42,2.9,1.15,4.11,1.1-1.77,2.56-3.05,4.2-3.72-.33-.5-.52-1.09-.52-1.73,0-1.75,1.42-3.18,3.18-3.18s3.18,1.42,3.18,3.18c0,.64-.19,1.23-.52,1.73,1.64.67,3.1,1.95,4.2,3.72.72-1.2,1.15-2.6,1.15-4.11,0-4.41-3.59-8-8-8Z"/>
  <path class="cls-1" d="m9.5,10.83c-2.17,0-4.22,1.48-5.51,3.95,1.44,1.37,3.38,2.22,5.51,2.22s4.08-.85,5.51-2.22c-1.3-2.47-3.34-3.95-5.51-3.95Z"/>
  <g>
    <path class="cls-2" d="m21.48,13.5h-.48v-5.5c0-.55-.45-1-1-1s-1,.45-1,1v16.61l-2.51-.84v-6.18c0-.55-.45-1-1-1s-1,.45-1,1v5.52l-5.49-1.83v-2.44c0-.55-.45-1-1-1s-1,.45-1,1v2.17h-3.5c-.28,0-.5-.22-.5-.5v-5c0-.55-.45-1-1-1s-1,.45-1,1v5c0,1.35,1.08,2.45,2.42,2.49l.71,5.66c.17,1.34,1.23,2.35,2.48,2.35h.97c.69,0,1.33-.3,1.8-.83.53-.6.78-1.42.67-2.25l-.02-.17h1.75c.55,0,1-.45,1-1v-2.1l6.21,2.07v1.28c0,.55.45,1,1,1s1-.45,1-1v-5.5h.48c1.65,0,3-1.35,3-3v-3c0-1.65-1.35-3-3-3Zm-13.59,15.34c-.06.07-.17.16-.31.16h-.97c-.23,0-.45-.26-.49-.6l-.68-5.4h1.98l.65,5.17c.03.25-.04.51-.19.67Zm2.91-3.09h-1l-.27-2.19,1.28.43v1.77Zm11.69-6.25c0,.55-.45,1-1,1h-.48v-5h.48c.55,0,1,.45,1,1v3Z"/>
    <path class="cls-2" d="m29.96,16.88l-2.91.12c-.55.02-.98.49-.96,1.04.02.54.47.96,1,.96.01,0,.03,0,.04,0l2.91-.12c.55-.02.98-.49.96-1.04-.02-.55-.53-.98-1.04-.96Z"/>
    <path class="cls-2" d="m26.64,14.22l.96-1.04c.37-.41.35-1.04-.06-1.41-.41-.37-1.04-.35-1.41.06l-.96,1.04c-.37.41-.35,1.04.06,1.41.19.18.43.26.68.26.27,0,.54-.11.74-.32Z"/>
    <path class="cls-2" d="m26.96,21.8c-.41-.37-1.04-.35-1.41.06-.37.41-.35,1.04.06,1.41l1.04.96c.19.18.43.26.68.26.27,0,.54-.11.74-.32.37-.41.35-1.04-.06-1.41l-1.04-.96Z"/>
  </g>
</svg>