<?xml version="1.0" encoding="UTF-8"?>
<svg id="OBJECT" xmlns="http://www.w3.org/2000/svg" viewBox="0 0 32 32">
  <defs>
    <style>
      .cls-1 {
        fill: #FD4360;
      }

      .cls-1, .cls-2 {
        stroke-width: 0px;
      }

      .cls-2 {
        fill: #dadada;
      }
    </style>
  </defs>
  <g>
    <path class="cls-2" d="m10.43,5c.55,0,1-.45,1-1v-.5c0-.28.22-.5.5-.5h8.14c.28,0,.5.22.5.5v.5c0,.55.45,1,1,1s1-.45,1-1v-.5c0-1.38-1.12-2.5-2.5-2.5h-8.14c-1.38,0-2.5,1.12-2.5,2.5v.5c0,.55.45,1,1,1Z"/>
    <path class="cls-2" d="m27.17,22.26c-.13-.41-.52-.69-.95-.69h-3.64v-1.57c0-.55-.45-1-1-1s-1,.45-1,1v2.57c0,.55.45,1,1,1h1.57l-7.14,5.19-7.14-5.19h5.71c.55,0,1-.45,1-1s-.45-1-1-1h-3.14v-1.57c0-.55-.45-1-1-1s-1,.45-1,1v1.57h-3.64c-.43,0-.82.28-.95.69-.13.41.01.86.36,1.12l10.21,7.43c.17.13.38.19.59.19s.41-.06.59-.19l10.21-7.43c.35-.25.5-.71.36-1.12Z"/>
  </g>
  <path class="cls-1" d="m27.96,7H4.04c-.03.14-.04.29-.04.44v9.13c0,.15.02.29.04.44h23.91c.03-.14.04-.29.04-.44V7.44c0-.15-.02-.29-.04-.44Zm-17.1,5.85h-1.51c-.47,0-.85-.38-.85-.85s.38-.85.85-.85h1.51c.47,0,.85.38.85.85s-.38.85-.85.85Zm4.66-1.7h.98c1.01,0,1.82.82,1.82,1.82,0,.88-.63,1.62-1.47,1.79v.17c0,.47-.38.85-.85.85s-.85-.38-.85-.85v-.13h-.62c-.47,0-.85-.38-.85-.85s.38-.85.85-.85h1.95c.07,0,.13-.06.13-.13s-.06-.13-.13-.13h-.98c-1.01,0-1.82-.82-1.82-1.82,0-.88.63-1.62,1.47-1.79v-.17c0-.47.38-.85.85-.85s.85.38.85.85v.13h.62c.47,0,.85.38.85.85s-.38.85-.85.85h-1.95c-.07,0-.13.06-.13.13s.06.13.13.13Zm7.14,1.7h-1.51c-.47,0-.85-.38-.85-.85s.38-.85.85-.85h1.51c.47,0,.85.38.85.85s-.38.85-.85.85Z"/>
</svg>