<?xml version="1.0" encoding="UTF-8"?>
<svg id="OBJECT" xmlns="http://www.w3.org/2000/svg" viewBox="0 0 32 32">
  <defs>
    <style>
      .cls-1 {
        fill: #FD4360;
      }

      .cls-1, .cls-2 {
        stroke-width: 0px;
      }

      .cls-2 {
        fill: #dadada;
      }
    </style>
  </defs>
  <g>
    <path class="cls-2" d="m29.12,25.17l-5.54-5.54c.4-.75.73-1.53.96-2.37.15-.53-.16-1.08-.69-1.23-.53-.15-1.08.16-1.23.69-1.21,4.29-5.16,7.28-9.62,7.28-5.51,0-10-4.49-10-10S7.49,4,13,4c1,0,1.98.15,2.92.44.53.16,1.09-.13,1.25-.65.17-.53-.13-1.09-.65-1.25-1.13-.36-2.32-.54-3.52-.54C6.38,2,1,7.38,1,14s5.38,12,12,12c2.01,0,3.94-.51,5.63-1.42l5.54,5.54c.58.58,1.35.88,2.12.88s1.54-.29,2.12-.88l.71-.71c1.17-1.17,1.17-3.07,0-4.24Zm-6.65-3.83l3.12,3.12-2.12,2.12-3.12-3.12c.79-.61,1.5-1.33,2.12-2.12Zm5.24,6.65l-.71.71c-.39.39-1.02.39-1.41,0l-.71-.71,2.12-2.12.71.71c.39.39.39,1.02,0,1.41Z"/>
    <path class="cls-2" d="m10,14c0-.55-.45-1-1-1s-1,.45-1,1c0,2.76,2.24,5,5,5,.55,0,1-.45,1-1s-.45-1-1-1c-1.65,0-3-1.35-3-3Z"/>
    <path class="cls-2" d="m6.5,14c0-3.58,2.92-6.5,6.5-6.5.59,0,1.2.09,1.8.26.53.15,1.08-.16,1.24-.69s-.15-1.08-.69-1.24c-.78-.22-1.58-.34-2.36-.34-4.69,0-8.5,3.81-8.5,8.5s3.81,8.5,8.5,8.5c3.78,0,7.06-2.44,8.15-6.06.16-.53-.14-1.09-.67-1.25-.53-.16-1.09.14-1.25.67-.84,2.77-3.34,4.64-6.23,4.64-3.58,0-6.5-2.92-6.5-6.5Z"/>
  </g>
  <path class="cls-1" d="m24,15c3.86,0,7-3.14,7-7s-3.14-7-7-7-7,3.14-7,7,3.14,7,7,7Zm-1-10.5c0-.55.45-1,1-1s1,.45,1,1v.5c0,.55-.45,1-1,1s-1-.45-1-1v-.5Zm0,3c0-.55.45-1,1-1s1,.45,1,1v4c0,.55-.45,1-1,1s-1-.45-1-1v-4Z"/>
</svg>