<?xml version="1.0" encoding="UTF-8" standalone="no"?>
<svg
   id="OBJECT"
   viewBox="0 0 32 32"
   version="1.1"
   sodipodi:docname="Instagram.svg"
   xml:space="preserve"
   inkscape:version="1.2.2 (732a01da63, 2022-12-09)"
   xmlns:inkscape="http://www.inkscape.org/namespaces/inkscape"
   xmlns:sodipodi="http://sodipodi.sourceforge.net/DTD/sodipodi-0.dtd"
   xmlns="http://www.w3.org/2000/svg"
   xmlns:svg="http://www.w3.org/2000/svg"><sodipodi:namedview
     id="namedview17"
     pagecolor="#505050"
     bordercolor="#ffffff"
     borderopacity="1"
     inkscape:showpageshadow="0"
     inkscape:pageopacity="0"
     inkscape:pagecheckerboard="1"
     inkscape:deskcolor="#505050"
     showgrid="false"
     inkscape:zoom="0.80957031"
     inkscape:cx="-206.28227"
     inkscape:cy="196.40048"
     inkscape:window-width="1920"
     inkscape:window-height="1009"
     inkscape:window-x="-8"
     inkscape:window-y="-8"
     inkscape:window-maximized="1"
     inkscape:current-layer="OBJECT" /><defs
     id="defs4"><style
       id="style2">
      .cls-1 {
        fill: #FD4360;
      }

      .cls-1, .cls-2 {
        stroke-width: 0px;
      }

      .cls-2 {
        fill: #dadada;
      }
    </style></defs><path
     style="fill:#fd4360;stroke-width:7.02766"
     d="m -630.18312,374.28353 c 6.00487,-0.34111 15.83101,-0.34111 21.83587,0 6.00487,0.34111 1.0918,0.62021 -10.91793,0.62021 -12.00973,0 -16.9228,-0.2791 -10.91794,-0.62021 z"
     id="path370" /><path
     style="fill:#fd4360;stroke-width:0.246215"
     d="M 12.989166,27.707192 C 10.46969,27.659141 9.9732443,27.605889 8.9009492,27.268649 7.8443511,26.936347 7.1514867,26.519445 6.3868649,25.755901 5.1201626,24.490985 4.5908719,23.161603 4.4236662,20.825079 4.3222194,19.407479 4.3213758,12.446389 4.4223822,10.940957 4.5508512,9.027856 4.8975429,7.8503467 5.6524489,6.763155 6.6999006,5.2546437 8.197739,4.3888168 10.277908,4.0894048 11.26019,3.9480182 15.283929,3.8934373 19.3052,3.9669477 c 3.010767,0.055037 3.476115,0.1097392 4.697421,0.5521583 1.709209,0.6191621 3.150047,2.131449 3.682759,3.8653783 0.442036,1.43879 0.463509,1.7812007 0.463509,7.3914317 0,4.924004 -0.02852,5.67792 -0.253576,6.701616 -0.534178,2.429886 -2.121318,4.175867 -4.397775,4.837911 -0.999322,0.290623 -1.492078,0.334171 -4.467745,0.394851 -1.582072,0.03227 -3.069281,0.05466 -3.304908,0.04978 -0.235629,-0.0049 -1.466739,-0.02868 -2.735806,-0.05288 z m 8.947805,-2.16076 c 1.275193,-0.195312 2.11081,-0.567709 2.778072,-1.238069 0.857728,-0.861709 1.229986,-1.900817 1.324619,-3.697491 0.06894,-1.30896 0.06894,-8.238549 0,-9.547509 C 25.954704,9.450367 25.638676,8.429551 24.987844,7.665842 24.149854,6.68252 23.207741,6.2684983 21.416755,6.0964898 20.20046,5.9796746 12.414034,5.9803461 11.165423,6.0974716 9.4522993,6.2580347 8.5515114,6.624834 7.7422466,7.4913905 7.1057856,8.1729026 6.8194241,8.7984441 6.5973186,9.9924243 6.4919803,10.558689 6.4834703,10.995649 6.4834703,15.837215 c 0,4.80195 0.0092,5.283157 0.111735,5.844788 0.2184069,1.196296 0.5154828,1.860584 1.12441,2.51429 0.8762997,0.940741 1.932965,1.311886 4.1496317,1.457528 0.168303,0.01108 2.357805,0.01359 4.865556,0.0056 3.829413,-0.01216 4.662454,-0.03025 5.202168,-0.112911 z"
     id="path372" /><path
     style="fill:#fd4360;stroke-width:0.246215"
     d="m 15.204753,21.839659 c -1.305845,-0.26713 -2.277656,-0.7703 -3.172402,-1.64256 -0.865186,-0.843442 -1.317769,-1.6292 -1.700492,-2.952335 -0.170232,-0.588524 -0.159172,-2.298755 0.01879,-2.907096 0.348216,-1.190267 0.835928,-2.022923 1.666925,-2.845892 1.16436,-1.15311 2.599418,-1.7392577 4.258206,-1.7392577 1.080092,0 2.089323,0.2566697 2.926506,0.7442737 1.806061,1.051918 2.898722,2.694695 3.114411,4.682404 0.147717,1.361334 -0.152074,2.701828 -0.858888,3.840423 -1.323939,2.132716 -3.910546,3.299237 -6.253063,2.82004 z m 1.744257,-2.050917 c 0.752015,-0.134457 1.144607,-0.300951 1.74549,-0.74025 0.298744,-0.218407 0.794392,-0.735293 0.794392,-0.828426 0,-0.03149 0.02175,-0.05728 0.04833,-0.05728 0.02657,0 0.147865,-0.185899 0.269528,-0.413111 0.655647,-1.224463 0.639938,-2.676615 -0.04229,-3.910009 -0.328681,-0.594212 -1.035286,-1.274502 -1.622992,-1.562548 -0.758792,-0.371899 -1.044296,-0.439106 -1.865668,-0.43917 -0.636365,-5e-5 -0.801012,0.02217 -1.233147,0.166456 -1.704834,0.569216 -2.802503,2.071104 -2.801168,3.832707 7.19e-4,1.003923 0.392939,2.02104 1.04246,2.703625 0.677397,0.711883 1.35714,1.086769 2.257429,1.244999 0.590883,0.103855 0.840604,0.104387 1.407647,0.003 z"
     id="path374" /><path
     style="fill:#fd4360;stroke-width:0.246215"
     d="m 22.409298,10.812293 c -0.312531,-0.07271 -0.558366,-0.205894 -0.751985,-0.40741 -0.92742,-0.9652482 -0.07421,-2.5350435 1.255708,-2.3103536 0.532905,0.090031 1.026912,0.6149754 1.136864,1.208061 0.09897,0.5338359 -0.399574,1.2860506 -0.959086,1.4470916 -0.409487,0.117861 -0.434226,0.120135 -0.681501,0.06262 z"
     id="path376" /></svg>
