<?xml version="1.0" encoding="UTF-8" standalone="no"?>
<svg
   id="OBJECT"
   viewBox="0 0 32 32"
   version="1.1"
   sodipodi:docname="Instagram Legends.svg"
   xml:space="preserve"
   inkscape:version="1.2.2 (732a01da63, 2022-12-09)"
   xmlns:inkscape="http://www.inkscape.org/namespaces/inkscape"
   xmlns:sodipodi="http://sodipodi.sourceforge.net/DTD/sodipodi-0.dtd"
   xmlns="http://www.w3.org/2000/svg"
   xmlns:svg="http://www.w3.org/2000/svg"><sodipodi:namedview
     id="namedview17"
     pagecolor="#505050"
     bordercolor="#ffffff"
     borderopacity="1"
     inkscape:showpageshadow="0"
     inkscape:pageopacity="0"
     inkscape:pagecheckerboard="1"
     inkscape:deskcolor="#505050"
     showgrid="false"
     inkscape:zoom="6.4765625"
     inkscape:cx="-7.6429433"
     inkscape:cy="10.190591"
     inkscape:window-width="1920"
     inkscape:window-height="1009"
     inkscape:window-x="-8"
     inkscape:window-y="-8"
     inkscape:window-maximized="1"
     inkscape:current-layer="OBJECT" /><defs
     id="defs4"><style
       id="style2">
      .cls-1 {
        fill: #FD4360;
      }

      .cls-1, .cls-2 {
        stroke-width: 0px;
      }

      .cls-2 {
        fill: #dadada;
      }
    </style></defs><g
     id="g12"
     transform="translate(-13.433052,82.605549)"><path
       class="cls-2"
       d="M 30,29 H 28.76 L 26.79,21.84 V 12 c 0,-0.55 -0.45,-1 -1,-1 H 5 c -0.55,0 -1,0.45 -1,1 v 1.69 l -2.77,3.37 c -0.34,0.42 -0.29,1.03 0.11,1.39 l 2.63,2.31 -0.09,1.53 c -0.07,1.75 0.82,3.4 2.33,4.3 1.35,0.81 3.01,0.9 4.44,0.24 l 2.85,-1.31 1.12,3.47 h -2.09 c -0.55,0 -1,0.45 -1,1 0,0.55 0.45,1 1,1 h 17.46 c 0.55,0 1,-0.45 1,-1 0,-0.55 -0.45,-1 -1,-1 z M 9.82,25.02 C 8.99,25.4 8.02,25.35 7.24,24.88 6.36,24.36 5.85,23.4 5.89,22.4 l 0.12,-2 C 6.03,20.09 5.9,19.79 5.67,19.59 l -2.27,-2 2.39,-2.9 c 0.15,-0.18 0.23,-0.4 0.23,-0.63 v -1.05 h 18.79 v 8.97 c 0,0.09 0.01,0.18 0.04,0.26 L 25.61,25 H 15.45 l -1,-3.1 c -0.17,-0.53 -0.73,-0.81 -1.26,-0.64 -0.53,0.17 -0.81,0.73 -0.64,1.26 l 0.35,1.09 -3.06,1.41 z M 16.08,27 h 10.06 l 0.55,2 h -9.96 z"
       id="path6" /><path
       class="cls-2"
       d="m 14.4,15 c 0,-0.55 -0.45,-1 -1,-1 h -1 c -0.55,0 -1,0.45 -1,1 0,0.55 0.45,1 1,1 h 1 c 0.55,0 1,-0.45 1,-1 z"
       id="path8" /><path
       class="cls-2"
       d="m 17.4,16 h 1 c 0.55,0 1,-0.45 1,-1 0,-0.55 -0.45,-1 -1,-1 h -1 c -0.55,0 -1,0.45 -1,1 0,0.55 0.45,1 1,1 z"
       id="path10" /></g><path
     class="cls-1"
     d="m 0.61694814,92.515549 -1.86000004,-1.86 c -0.39,-0.39 -0.39,-1.02 0,-1.41 0.39000004,-0.39 1.02000004,-0.39 1.41000004,0 l 2.08999996,2.09 c 0.33,0.33 0.55,0.74 0.64,1.18 h 5.05 c 0.98,-2.36 0.51,-5.18 -1.4,-7.1 -1.01,-1.01 -2.28,-1.61 -3.6,-1.82 v 3.41 c 0,0.1 0.04,0.19 0.11,0.27 l 2.09,2.09 c 0.39,0.39 0.39,1.02 0,1.41 -0.2,0.2 -0.45,0.29 -0.71,0.29 -0.26,0 -0.51,-0.1 -0.71,-0.29 l -2.09,-2.09 c -0.45,-0.45 -0.69999996,-1.04 -0.69999996,-1.68 v -3.4 c -1.32,0.2 -2.58000004,0.8 -3.60000004,1.82 -1.92,1.92 -2.38,4.74 -1.4,7.1 h 4.65000004 z"
     id="path14" /><g
     id="g459"
     transform="matrix(0.07509582,0,0,0.07509582,6.58986,1.0213521)"
     style="fill:#fd4360;fill-opacity:1"><path
       style="fill:#fd4360;fill-opacity:1;stroke-width:0.37383"
       d="m 124.02773,185.76687 c -0.72059,-0.11126 -3.27538,-0.69941 -5.67733,-1.30701 -11.20709,-2.83494 -20.458313,-9.41567 -27.552463,-19.59907 -1.22183,-1.75389 -3.87059,-7.38532 -4.97571,-10.57866 -2.85981,-8.26363 -2.86772,-20.50086 -0.0186,-28.7259 3.11656,-8.99707 9.16819,-17.40299 16.111883,-22.37997 3.08536,-2.21147 3.72248,-2.59287 7.48217,-4.479017 15.50476,-7.778409 33.73446,-5.963292 48.2486,4.804067 2.28258,1.69335 8.09384,7.95583 9.92928,10.70027 2.52261,3.77194 5.11757,9.35607 6.49418,13.97496 0.94075,3.15646 1.04008,4.29475 1.02897,11.79136 -0.0114,7.66243 -0.0992,8.58454 -1.1472,12.04548 -4.15697,13.72788 -12.75733,23.75411 -25.49687,29.72406 -5.55503,2.60318 -11.09921,3.88196 -17.65782,4.07284 -3.00243,0.0874 -6.04853,0.0678 -6.76911,-0.0434 z m 11.04552,-15.68366 c 5.76969,-1.15402 9.5877,-2.91601 13.6146,-6.2831 5.51857,-4.61433 8.32818,-8.83063 10.33029,-15.50236 1.46772,-4.89096 1.46716,-11.7669 -10e-4,-16.67319 -1.999,-6.67848 -5.36341,-11.66482 -10.75129,-15.93426 -10.72981,-8.50246 -26.83636,-8.54291 -37.42332,-0.094 -5.73001,4.57283 -8.98022,9.42219 -11.026243,16.4513 -0.87901,3.01984 -0.97405,4.10044 -0.78736,8.95271 0.35075,9.11615 2.636633,14.25439 9.263253,20.82205 2.88558,2.8599 4.3112,3.88498 7.67464,5.51836 2.27192,1.10331 4.81859,2.12799 5.65927,2.27707 0.84068,0.14908 2.3146,0.44366 3.27538,0.65464 2.77234,0.60876 6.53203,0.53881 10.17209,-0.18924 z"
       id="path450" /><path
       style="fill:#fd4360;fill-opacity:1;stroke-width:0.37383"
       d="m 175.12365,102.67898 c -3.44608,-0.89694 -7.0557,-4.230437 -8.0024,-7.390247 -2.6537,-8.857275 5.18574,-16.909684 13.96488,-14.344249 4.54967,1.329503 8.23134,6.181645 8.23049,10.847116 -4e-4,2.195153 -1.96907,6.656413 -3.54515,8.033783 -2.8481,2.489007 -7.38112,3.703847 -10.64782,2.853597 z"
       id="path452" /><path
       style="fill:#fd4360;fill-opacity:1;stroke-width:0.37383"
       d="m 84.286447,229.29661 c -12.31028,-0.87544 -25.10214,-7.83362 -33.36056,-18.1466 -3.53616,-4.41589 -4.08081,-5.26406 -6.02762,-9.3866 -2.21327,-4.68678 -3.37515,-8.28574 -4.37066,-13.53824 -0.72488,-3.82459 -0.78633,-7.61292 -0.78633,-48.47563 0,-40.855807 0.0613,-44.634577 0.78249,-48.257258 2.09514,-10.524007 6.51437,-19.214664 13.30296,-26.161026 6.7422,-6.898897 15.52982,-11.802296 25.21911,-14.072 3.30127,-0.773318 6.08004,-0.818403 50.440853,-0.818403 44.36081,0 47.13958,0.04509 50.44085,0.818403 20.56064,4.816304 35.47557,20.734732 38.71969,41.32482 0.85645,5.435737 0.85207,89.373854 -0.005,94.767654 -2.32573,14.63761 -10.71171,27.32783 -22.98588,34.78372 -3.64128,2.21188 -9.22658,4.7739 -11.79842,5.41204 -0.72058,0.17879 -2.48929,0.67727 -3.93045,1.10774 -2.43555,0.72748 -5.74568,0.78863 -46.94712,0.86731 -24.37974,0.0465 -46.292043,-0.0551 -48.693983,-0.22593 z m 94.001423,-16.06712 c 3.07822,-0.9164 5.53607,-1.87237 7.317,-2.84591 0.48039,-0.2626 1.26648,-0.68872 1.74687,-0.94694 1.59903,-0.8595 5.65925,-4.06269 7.03517,-5.5502 3.59236,-3.88369 6.34581,-8.67221 8.12648,-14.13276 l 0.99689,-3.05702 V 139.74954 92.802434 l -1.15512,-3.27538 c -1.00442,-2.848059 -2.2416,-5.479341 -4.16265,-8.853254 -1.0208,-1.792816 -5.01858,-6.000066 -7.46638,-7.857606 -4.80018,-3.64266 -8.07257,-5.127612 -14.24944,-6.466151 -3.6919,-0.800042 -6.04882,-0.842442 -46.82906,-0.842442 -37.598153,0 -43.390933,0.08709 -46.553283,0.699872 -12.87117,2.494105 -21.99534,10.528602 -26.48228,23.319581 l -1.14896,3.27538 v 46.947106 46.94712 l 0.99688,3.05702 c 4.39358,13.47321 14.05988,21.74367 28.48154,24.36873 0.60048,0.1093 21.137113,0.16506 45.636953,0.12391 44.24829,-0.0743 44.56626,-0.0811 47.70939,-1.01683 z"
       id="path454" /></g><path
     class="cls-2"
     d="M 27.374265,1.3080855 H 4.6567284 c -0.6247323,0 -1.1358768,0.5111445 -1.1358768,1.1358768 V 29.614136 c 0,0.624732 0.5111445,1.135877 1.1358768,1.135877 H 27.374265 c 0.624732,0 1.135877,-0.511145 1.135877,-1.135877 V 2.4439623 c 0,-0.6247323 -0.511145,-1.1358768 -1.135877,-1.1358768 z M 26.238388,28.478259 H 5.7926052 V 3.579839 H 26.238388 Z"
     id="path8-3"
     style="fill:#dadada;stroke-width:0px" /><path
     class="cls-2"
     d="M 9.2002355,21.461083 H 22.830757 c 0.624733,0 1.135878,-0.511145 1.135878,-1.135877 0,-0.624732 -0.511145,-1.135877 -1.135878,-1.135877 H 9.2002355 c -0.6247318,0 -1.1358764,0.511145 -1.1358764,1.135877 0,0.624732 0.5111446,1.135877 1.1358764,1.135877 z"
     id="path14-2"
     style="fill:#dadada;stroke-width:0px" /><path
     class="cls-2"
     d="m 9.2002355,25.786231 h 9.0870155 c 0.624732,0 1.135876,-0.511144 1.135876,-1.135877 0,-0.624732 -0.511144,-1.135876 -1.135876,-1.135876 H 9.2002355 c -0.6247318,0 -1.1358764,0.511144 -1.1358764,1.135876 0,0.624733 0.5111446,1.135877 1.1358764,1.135877 z"
     id="path16"
     style="fill:#dadada;stroke-width:0px" /><path
     class="cls-2"
     d="m 22.830757,23.514478 h -1.135876 c -0.624732,0 -1.135877,0.511144 -1.135877,1.135876 0,0.624733 0.511145,1.135877 1.135877,1.135877 h 1.135876 c 0.624733,0 1.135878,-0.511144 1.135878,-1.135877 0,-0.624732 -0.511145,-1.135876 -1.135878,-1.135876 z"
     id="path18"
     style="fill:#dadada;stroke-width:0px" /></svg>
