<?xml version="1.0" encoding="UTF-8"?>
<svg id="OBJECT" xmlns="http://www.w3.org/2000/svg" viewBox="0 0 32 32">
  <defs>
    <style>
      .cls-1 {
        fill: #FD4360;
      }

      .cls-1, .cls-2 {
        stroke-width: 0px;
      }

      .cls-2 {
        fill: #dadada;
      }
    </style>
  </defs>
  <g>
    <path class="cls-2" d="m24,4.99c-8.05,0-10.28-3.48-10.29-3.5-.18-.31-.51-.49-.87-.49h-.02c-.36,0-.7.21-.87.53-.02.03-1.96,3.46-9.95,3.46-.55,0-1,.45-1,1v6.12c0,7.57,4.04,13.88,11.37,17.76.15.08.31.12.47.12.36,0,.71-.19.88-.53.26-.49.07-1.09-.42-1.35-6.65-3.52-10.31-9.2-10.31-16v-5.14c5.78-.2,8.62-2.14,9.87-3.42,1.32,1.26,4.3,3.21,10.13,3.42v4.14c0,.55.45,1,1,1s1-.45,1-1v-5.12c0-.55-.45-1-1-1Z"/>
    <path class="cls-2" d="m20.14,8.74c-2.62-.37-4.88-1.12-6.69-2.23-.33-.2-.73-.2-1.06,0-1.77,1.12-3.97,1.86-6.53,2.22-.49.07-.86.49-.86.99v2.39c0,4.88,2,8.95,5.94,12.08.18.15.4.22.62.22.29,0,.59-.13.78-.38.34-.43.27-1.06-.16-1.4-3.44-2.73-5.18-6.27-5.18-10.51v-1.54c2.24-.39,4.23-1.08,5.93-2.05,1.74.97,3.77,1.66,6.07,2.06v1.52c0,.55.45,1,1,1s1-.45,1-1v-2.38c0-.5-.37-.92-.86-.99Z"/>
  </g>
  <path class="cls-1" d="m22.5,14c-4.69,0-8.5,3.81-8.5,8.5s3.81,8.5,8.5,8.5,8.5-3.81,8.5-8.5-3.81-8.5-8.5-8.5Zm-.69,7.5h1.39c1.32,0,2.39,1.07,2.39,2.39,0,1.21-.91,2.21-2.08,2.36v.42c0,.55-.45,1-1,1s-1-.45-1-1v-.39h-1.08c-.55,0-1-.45-1-1s.45-1,1-1h2.78c.21,0,.39-.17.39-.39s-.17-.39-.39-.39h-1.39c-1.32,0-2.39-1.07-2.39-2.39,0-1.21.91-2.21,2.08-2.36v-.42c0-.55.45-1,1-1s1,.45,1,1v.39h1.08c.55,0,1,.45,1,1s-.45,1-1,1h-2.78c-.21,0-.39.17-.39.39s.17.39.39.39Z"/>
</svg>