<?xml version="1.0" encoding="UTF-8"?>
<svg id="OBJECT" xmlns="http://www.w3.org/2000/svg" viewBox="0 0 512 512">
  <defs>
    <style>
      .cls-1 {
        fill: #FD4360;
      }

      .cls-2 {
        fill: #dadada;
      }
    </style>
  </defs>
  <g>
    <path class="cls-2" d="M449.5,110h-21.41c-3.74-33.7-32.4-60-67.09-60-2.82,0-5.65,.18-8.45,.53C330.55,18.8,294.82,0,256,0s-74.55,18.8-96.55,50.53c-2.8-.35-5.62-.53-8.45-.53-34.68,0-63.34,26.3-67.09,60h-21.41C28.04,110,0,138.04,0,172.5s28.04,62.5,62.5,62.5h47.04c8.68,73.11,71.05,130,146.46,130s137.77-56.89,146.46-130h47.04c34.46,0,62.5-28.04,62.5-62.5s-28.04-62.5-62.5-62.5Zm-65.16,140.5c-14.24,9.18-33.15,16.51-54.94,21.57,2.68-17.28,4.1-35.68,4.1-54.57s-1.42-37.29-4.1-54.57c21.79,5.06,40.7,12.39,54.94,21.57,2.72,10.55,4.16,21.61,4.16,33s-1.45,22.45-4.16,33ZM127.66,184.5c14.24-9.18,33.15-16.51,54.94-21.57-2.68,17.28-4.1,35.68-4.1,54.57s1.42,37.29,4.1,54.57c-21.79-5.06-40.7-12.39-54.94-21.57-2.72-10.55-4.16-21.61-4.16-33s1.45-22.45,4.16-33Zm65.84,33c0-20.18,1.66-39.71,4.77-57.73,18.02-3.11,37.55-4.77,57.73-4.77s39.71,1.66,57.73,4.77c3.11,18.02,4.77,37.55,4.77,57.73s-1.66,39.71-4.77,57.73c-18.02,3.11-37.55,4.77-57.73,4.77s-39.71-1.66-57.73-4.77c-3.11-18.02-4.77-37.55-4.77-57.73Zm133.01-70.51c-3.94-18.84-9.46-35.94-16.32-50.39,29.57,13.3,53.41,37.14,66.71,66.71-14.45-6.86-31.55-12.38-50.39-16.32Zm-37.51-57.82c9.18,14.24,16.51,33.15,21.57,54.94-17.28-2.68-35.68-4.1-54.57-4.1s-37.29,1.42-54.57,4.1c5.06-21.79,12.39-40.7,21.57-54.94,10.55-2.72,21.61-4.16,33-4.16s22.45,1.45,33,4.16Zm-103.52,57.82c-18.84,3.94-35.94,9.46-50.39,16.32,13.3-29.57,37.14-53.41,66.71-66.71-6.86,14.45-12.38,31.55-16.32,50.39Zm-50.39,124.71c14.45,6.86,31.55,12.38,50.39,16.32,3.94,18.84,9.46,35.94,16.32,50.39-29.57-13.3-53.41-37.14-66.71-66.71Zm87.9,74.15c-9.18-14.24-16.51-33.15-21.57-54.94,17.28,2.68,35.68,4.1,54.57,4.1s37.29-1.42,54.57-4.1c-5.06,21.79-12.39,40.7-21.57,54.94-10.55,2.72-21.61,4.16-33,4.16s-22.45-1.45-33-4.16Zm87.19-7.44c6.86-14.45,12.38-31.55,16.32-50.39,18.84-3.94,35.94-9.46,50.39-16.32-13.3,29.57-37.14,53.41-66.71,66.71Zm139.31-118.4h-46.03c.01-.83,.03-1.66,.03-2.5,0-81.33-66.17-147.5-147.5-147.5S108.5,136.17,108.5,217.5c0,.84,.02,1.67,.03,2.5H62.5c-26.19,0-47.5-21.31-47.5-47.5s21.31-47.5,47.5-47.5h53.5c4.14,0,7.5-3.36,7.5-7.5s-3.36-7.5-7.5-7.5h-16.96c3.65-25.41,25.55-45,51.96-45,3.54,0,7.08,.36,10.53,1.06,3.05,.62,6.16-.71,7.83-3.33,18.93-29.88,51.33-47.72,86.64-47.72s67.71,17.84,86.64,47.72c1.67,2.63,4.78,3.96,7.83,3.33,3.44-.7,6.98-1.06,10.53-1.06,26.4,0,48.3,19.59,51.96,45h-16.96c-4.14,0-7.5,3.36-7.5,7.5s3.36,7.5,7.5,7.5h53.5c26.19,0,47.5,21.31,47.5,47.5s-21.31,47.5-47.5,47.5Z"/>
    <path class="cls-2" d="M444.5,145c-15.16,0-27.5,12.34-27.5,27.5s12.34,27.5,27.5,27.5,27.5-12.34,27.5-27.5-12.34-27.5-27.5-27.5Zm0,40c-6.89,0-12.5-5.61-12.5-12.5s5.61-12.5,12.5-12.5,12.5,5.61,12.5,12.5-5.61,12.5-12.5,12.5Z"/>
    <path class="cls-2" d="M67.5,145c-15.16,0-27.5,12.34-27.5,27.5s12.34,27.5,27.5,27.5,27.5-12.34,27.5-27.5-12.34-27.5-27.5-27.5Zm0,40c-6.89,0-12.5-5.61-12.5-12.5s5.61-12.5,12.5-12.5,12.5,5.61,12.5,12.5-5.61,12.5-12.5,12.5Z"/>
  </g>
  <g>
    <path class="cls-1" d="M263.5,437.75v-49.61c0-4.14-3.36-7.5-7.5-7.5s-7.5,3.36-7.5,7.5v49.61c-17.1,3.48-30,18.64-30,36.75,0,20.68,16.82,37.5,37.5,37.5s37.5-16.82,37.5-37.5c0-18.11-12.9-33.26-30-36.75Z"/>
    <path class="cls-1" d="M391,397c-18.11,0-33.26,12.9-36.75,30h-18.25c-6.89,0-12.5-5.61-12.5-12.5v-39.5c0-4.14-3.36-7.5-7.5-7.5s-7.5,3.36-7.5,7.5v39.5c0,15.16,12.34,27.5,27.5,27.5h18.25c3.48,17.1,18.64,30,36.75,30,20.68,0,37.5-16.82,37.5-37.5s-16.82-37.5-37.5-37.5Z"/>
    <path class="cls-1" d="M196,367.5c-4.14,0-7.5,3.36-7.5,7.5v39.5c0,6.89-5.61,12.5-12.5,12.5h-18.25c-3.48-17.1-18.64-30-36.75-30-20.68,0-37.5,16.82-37.5,37.5s16.82,37.5,37.5,37.5c18.11,0,33.26-12.9,36.75-30h18.25c15.16,0,27.5-12.34,27.5-27.5v-39.5c0-4.14-3.36-7.5-7.5-7.5Z"/>
  </g>
</svg>