<?xml version="1.0" encoding="UTF-8"?>
<svg id="OBJECT" xmlns="http://www.w3.org/2000/svg" viewBox="0 0 32 32">
  <defs>
    <style>
      .cls-1 {
        fill: #FD4360;
      }

      .cls-1, .cls-2 {
        stroke-width: 0px;
      }

      .cls-2 {
        fill: #dadada;
      }
    </style>
  </defs>
  <path class="cls-2" d="m30.83,13.86c-.07-.49-.49-.86-.99-.86H2.16c-.5,0-.92.37-.99.86-.12.8-.17,1.48-.17,2.14,0,8.27,6.73,15,15,15s15-6.73,15-15c0-.66-.05-1.34-.17-2.14Zm-1.83,2.14c0,.99-.12,1.95-.33,2.87-1.41.58-3.06,1.05-4.87,1.4.13-1.39.2-2.82.2-4.28,0-.34-.02-.67-.02-1h4.98c.03.35.05.68.05,1Zm-19,0c0-.34.01-.67.02-1h11.95c0,.33.02.66.02,1,0,1.57-.09,3.12-.25,4.62-1.83.25-3.77.38-5.75.38s-3.92-.13-5.75-.38c-.16-1.49-.25-3.04-.25-4.62Zm-6.95-1h4.98c0,.33-.02.66-.02,1,0,1.46.07,2.89.2,4.28-1.81-.35-3.46-.82-4.87-1.4-.21-.93-.33-1.89-.33-2.87,0-.32.02-.65.05-1Zm1.09,6.3c1.32.43,2.76.79,4.31,1.07.25,1.74.61,3.38,1.06,4.88-2.36-1.37-4.24-3.45-5.37-5.95Zm7.86,7.07c-.64-1.64-1.14-3.58-1.48-5.7,1.76.22,3.6.33,5.48.33s3.72-.12,5.48-.33c-.34,2.12-.84,4.06-1.48,5.7-1.26.41-2.6.63-4,.63s-2.74-.23-4-.63Zm10.49-1.12c.45-1.5.81-3.14,1.06-4.88,1.55-.27,2.99-.63,4.31-1.07-1.12,2.5-3.01,4.58-5.37,5.95Z"/>
  <g>
    <path class="cls-1" d="m9.2,5.29c.19-.39.3-.82.3-1.29,0-1.65-1.35-3-3-3s-3,1.35-3,3,1.35,3,3,3c.46,0,.89-.11,1.29-.3l1.42,1.42c.19.19.29.44.29.71v2.17h2v-2.17c0-.8-.31-1.55-.88-2.12l-1.42-1.42Z"/>
    <path class="cls-1" d="m25.5,1c-1.65,0-3,1.35-3,3,0,.46.11.89.3,1.29l-1.42,1.42c-.57.57-.88,1.32-.88,2.12v2.17h2v-2.17c0-.26.11-.52.29-.71l1.42-1.42c.39.19.82.3,1.29.3,1.65,0,3-1.35,3-3s-1.35-3-3-3Z"/>
    <path class="cls-1" d="m16,1c-2.21,0-4,1.79-4,4,0,1.86,1.28,3.41,3,3.86v2.14h2v-2.14c1.72-.45,3-2,3-3.86,0-2.21-1.79-4-4-4Z"/>
  </g>
</svg>