<?xml version="1.0" encoding="UTF-8"?>
<svg id="OBJECT" xmlns="http://www.w3.org/2000/svg" viewBox="0 0 32 32">
  <defs>
    <style>
      .cls-1 {
        fill: #FD4360;
      }

      .cls-2 {
        fill: #dadada;
      }
    </style>
  </defs>
  <g>
    <path class="cls-2" d="M26,1c-2.76,0-5,2.21-5,4.94,0,4.56,4.29,7.3,4.47,7.41,.16,.1,.35,.15,.53,.15s.37-.05,.53-.15c.18-.11,4.47-2.85,4.47-7.41,0-2.72-2.24-4.94-5-4.94Zm0,10.26c-.99-.79-3-2.71-3-5.33,0-1.62,1.35-2.94,3-2.94s3,1.32,3,2.94c0,2.61-2.01,4.54-3,5.33Z"/>
    <path class="cls-2" d="M26.5,5h-1c-.55,0-1,.45-1,1s.45,1,1,1h1c.55,0,1-.45,1-1s-.45-1-1-1Z"/>
    <path class="cls-2" d="M23.63,15.64l-6.13-3.5c-.31-.18-.69-.17-1,0-.31,.18-.5,.51-.5,.87v1.75h-3.25c-4.96,0-9,4.04-9,9v6.25c0,.55,.45,1,1,1h4.5c.55,0,1-.45,1-1v-5.75c0-1.65,1.35-3,3-3h2.75v1.75c0,.36,.19,.69,.5,.87,.31,.18,.69,.18,1,0l6.13-3.5c.85-.48,1.37-1.39,1.37-2.36s-.53-1.88-1.37-2.36Zm-.99,2.99l-4.64,2.65v-1.03c0-.55-.45-1-1-1h-3.75c-2.76,0-5,2.24-5,5v4.75h-2.5v-5.25c0-3.86,3.14-7,7-7h4.25c.55,0,1-.45,1-1v-1.03l4.64,2.65h0c.22,.13,.36,.37,.36,.63s-.14,.5-.36,.63Z"/>
  </g>
  <path class="cls-1" d="M3.75,17.45c1.53-2.18,3.83-3.77,6.5-4.4v-3.05h1.75c.36,0,.69-.19,.86-.5,.18-.31,.18-.69,0-1l-3.5-6.13c-.48-.85-1.39-1.37-2.36-1.37s-1.88,.53-2.36,1.37L1.13,8.5c-.18,.31-.18,.69,0,1,.18,.31,.51,.5,.86,.5h1.75v7.45Z"/>
</svg>