<?xml version="1.0" encoding="UTF-8"?>
<svg id="OBJECT" xmlns="http://www.w3.org/2000/svg" viewBox="0 0 32 32">
  <defs>
    <style>
      .cls-1 {
        fill: #FD4360;
      }

      .cls-1, .cls-2 {
        stroke-width: 0px;
      }

      .cls-2 {
        fill: #dadada;
      }
    </style>
  </defs>
  <g>
    <path class="cls-2" d="m30,8.46h-.01l-2.91.04c-.55,0-.99.46-.99,1.01,0,.55.45.99,1,.99h.01l2.91-.04c.55,0,.99-.46.99-1.01,0-.55-.45-.99-1-.99Z"/>
    <path class="cls-2" d="m26.68,13.29c-.4-.38-1.03-.38-1.41.02-.39.4-.38,1.03.02,1.41l1.01.99c.19.19.45.28.7.28s.52-.1.72-.3c.39-.4.38-1.03-.02-1.41l-1.01-.99Z"/>
    <path class="cls-2" d="m25.99,5.99c.25,0,.5-.09.7-.28l1.01-.99c.4-.39.4-1.02.02-1.41-.39-.4-1.02-.4-1.41-.02l-1.01.99c-.4.39-.4,1.02-.02,1.41.2.2.46.3.72.3Z"/>
  </g>
  <g>
    <path class="cls-2" d="m4.91,10.5c.55,0,.99-.44,1-.99,0-.55-.43-1.01-.99-1.01l-2.91-.04c-.51,0-1.01.43-1.01.99,0,.55.43,1.01.99,1.01l2.91.04h.01Z"/>
    <path class="cls-2" d="m5.32,13.29l-1.01.99c-.4.39-.4,1.02-.02,1.41.2.2.46.3.72.3s.5-.09.7-.28l1.01-.99c.4-.39.4-1.02.02-1.41-.39-.4-1.02-.4-1.41-.02Z"/>
    <path class="cls-2" d="m5.32,5.71c.19.19.45.28.7.28s.52-.1.72-.3c.39-.4.38-1.03-.02-1.41l-1.01-.99c-.4-.38-1.03-.38-1.41.02-.39.4-.38,1.03.02,1.41l1.01.99Z"/>
  </g>
  <path class="cls-2" d="m27.5,22.5c-1.58,0-2.9,1.06-3.34,2.5h-3.26c-.4-1.96-1.94-3.5-3.9-3.9v-1.1c0-.55-.45-1-1-1s-1,.45-1,1v1.1c-1.96.4-3.5,1.94-3.9,3.9h-3.26c-.43-1.44-1.76-2.5-3.34-2.5-1.93,0-3.5,1.57-3.5,3.5s1.57,3.5,3.5,3.5c1.58,0,2.9-1.06,3.34-2.5h3.26c.46,2.28,2.48,4,4.9,4s4.43-1.72,4.9-4h3.26c.43,1.44,1.76,2.5,3.34,2.5,1.93,0,3.5-1.57,3.5-3.5s-1.57-3.5-3.5-3.5Zm-23,5c-.83,0-1.5-.67-1.5-1.5s.67-1.5,1.5-1.5,1.5.67,1.5,1.5-.67,1.5-1.5,1.5Zm11.5,1.5c-1.65,0-3-1.35-3-3s1.35-3,3-3,3,1.35,3,3-1.35,3-3,3Zm11.5-1.5c-.83,0-1.5-.67-1.5-1.5s.67-1.5,1.5-1.5,1.5.67,1.5,1.5-.67,1.5-1.5,1.5Z"/>
  <g>
    <path class="cls-1" d="m14.03,8.41h3.94c-.13-2.91-.85-5.59-1.97-7.41-1.12,1.82-1.84,4.5-1.97,7.41Z"/>
    <path class="cls-1" d="m16,17.83c1.12-1.82,1.84-4.5,1.97-7.41h-3.94c.13,2.91.85,5.59,1.97,7.41Z"/>
    <path class="cls-1" d="m24.44,8.41c-.4-3.41-2.83-6.21-6.06-7.15.92,1.99,1.47,4.47,1.59,7.15h4.47Z"/>
    <path class="cls-1" d="m18.38,17.57c3.22-.94,5.65-3.74,6.06-7.15h-4.47c-.11,2.69-.67,5.16-1.59,7.15Z"/>
    <path class="cls-1" d="m7.56,10.41c.4,3.41,2.83,6.21,6.06,7.15-.92-1.99-1.47-4.47-1.59-7.15h-4.47Z"/>
    <path class="cls-1" d="m7.56,8.41h4.47c.11-2.69.67-5.16,1.59-7.15-3.22.94-5.65,3.74-6.06,7.15Z"/>
  </g>
</svg>