<?xml version="1.0" encoding="UTF-8"?>
<svg id="OBJECT" xmlns="http://www.w3.org/2000/svg" viewBox="0 0 32 32">
  <defs>
    <style>
      .cls-1 {
        fill: #FD4360;
      }

      .cls-1, .cls-2 {
        stroke-width: 0px;
      }

      .cls-2 {
        fill: #dadada;
      }
    </style>
  </defs>
  <g>
    <path class="cls-2" d="m16,1c-5.51,0-10,4.49-10,10s4.49,10,10,10,10-4.49,10-10S21.51,1,16,1Zm-8,10c0-.6.07-1.17.19-1.73.83-.34,1.82-.61,2.91-.82-.07.83-.11,1.69-.11,2.56s.04,1.73.11,2.56c-1.1-.21-2.08-.49-2.91-.82-.12-.56-.19-1.14-.19-1.73Zm5,0c0-.97.06-1.93.15-2.85.92-.09,1.88-.15,2.85-.15s1.93.06,2.85.15c.09.92.15,1.88.15,2.85s-.06,1.93-.15,2.85c-.92.09-1.88.15-2.85.15s-1.93-.06-2.85-.15c-.09-.92-.15-1.88-.15-2.85Zm7.89-2.56c1.1.21,2.08.49,2.91.82.12.56.19,1.14.19,1.73s-.07,1.17-.19,1.73c-.83.34-1.82.61-2.91.82.07-.83.11-1.69.11-2.56s-.04-1.73-.11-2.56Zm1.92-1.61c-.68-.19-1.41-.34-2.18-.47-.13-.77-.28-1.5-.47-2.18,1.08.66,1.99,1.57,2.65,2.65Zm-5.08-3.64c.34.83.61,1.82.82,2.91-.83-.07-1.69-.11-2.56-.11s-1.73.04-2.56.11c.21-1.1.49-2.08.82-2.91.56-.12,1.14-.19,1.73-.19s1.17.07,1.73.19Zm-5.9.99c-.19.68-.34,1.41-.47,2.18-.77.13-1.5.28-2.18.47.66-1.08,1.57-1.99,2.65-2.65Zm-2.65,10.98c.68.19,1.41.34,2.18.47.13.77.28,1.5.47,2.18-1.08-.66-1.99-1.57-2.65-2.65Zm5.08,3.64c-.34-.83-.61-1.82-.82-2.91.83.07,1.69.11,2.56.11s1.73-.04,2.56-.11c-.21,1.1-.49,2.08-.82,2.91-.56.12-1.14.19-1.73.19s-1.17-.07-1.73-.19Zm5.9-.99c.19-.68.34-1.41.47-2.18.77-.13,1.5-.28,2.18-.47-.66,1.08-1.57,1.99-2.65,2.65Z"/>
    <path class="cls-2" d="m30,10h-.5c-.55,0-1,.45-1,1s.45,1,1,1h.5c.55,0,1-.45,1-1s-.45-1-1-1Z"/>
    <path class="cls-2" d="m28.5,8.09c.11,0,.23-.02.34-.06l.47-.17c.52-.19.79-.76.6-1.28-.19-.52-.76-.79-1.28-.6l-.47.17c-.52.19-.79.76-.6,1.28.15.41.53.66.94.66Z"/>
    <path class="cls-2" d="m29.31,14.15l-.47-.17c-.52-.19-1.09.08-1.28.6-.19.52.08,1.09.6,1.28l.47.17c.11.04.23.06.34.06.41,0,.79-.25.94-.66.19-.52-.08-1.09-.6-1.28Z"/>
    <path class="cls-2" d="m3.5,11c0-.55-.45-1-1-1h-.5c-.55,0-1,.45-1,1s.45,1,1,1h.5c.55,0,1-.45,1-1Z"/>
    <path class="cls-2" d="m3.84,6.15l-.47-.17c-.52-.19-1.09.08-1.28.6-.19.52.08,1.09.6,1.28l.47.17c.11.04.23.06.34.06.41,0,.79-.25.94-.66.19-.52-.08-1.09-.6-1.28Z"/>
    <path class="cls-2" d="m3.16,13.97l-.47.17c-.52.19-.79.76-.6,1.28.15.41.53.66.94.66.11,0,.23-.02.34-.06l.47-.17c.52-.19.79-.76.6-1.28-.19-.52-.77-.79-1.28-.6Z"/>
  </g>
  <g>
    <path class="cls-1" d="m28,23c-.77,0-1.46.3-1.99.77l-1.99-1.08c-.32-.18-.52-.51-.52-.88v-1.46c-.62.5-1.29.93-2,1.3v.16c0,1.1.6,2.11,1.56,2.63l1.98,1.08c-.02.15-.05.31-.05.47,0,1.65,1.35,3,3,3s3-1.35,3-3-1.35-3-3-3Z"/>
    <path class="cls-1" d="m8.5,21.81c0,.37-.2.7-.52.88l-1.99,1.08c-.53-.48-1.22-.77-1.99-.77-1.65,0-3,1.35-3,3s1.35,3,3,3,3-1.35,3-3c0-.16-.02-.32-.05-.47l1.98-1.08c.96-.53,1.56-1.54,1.56-2.63v-.16c-.71-.37-1.38-.8-2-1.3v1.46Z"/>
    <path class="cls-1" d="m17,24.16v-1.21c-.33.03-.66.05-1,.05s-.67-.02-1-.05v1.21c-1.44.43-2.5,1.76-2.5,3.34,0,1.93,1.57,3.5,3.5,3.5s3.5-1.57,3.5-3.5c0-1.58-1.06-2.9-2.5-3.34Z"/>
  </g>
</svg>