<?xml version="1.0" encoding="UTF-8"?>
<svg id="OBJECT" xmlns="http://www.w3.org/2000/svg" viewBox="0 0 32 32">
  <defs>
    <style>
      .cls-1 {
        fill: #FD4360;
      }

      .cls-1, .cls-2 {
        stroke-width: 0px;
      }

      .cls-2 {
        fill: #dadada;
      }
    </style>
  </defs>
  <g>
    <path class="cls-2" d="m14,20h-.5c-.55,0-1,.45-1,1s.45,1,1,1h.5c.55,0,1-.45,1-1s-.45-1-1-1Z"/>
    <path class="cls-2" d="m30,12h-15v-1.5c0-1.81-.91-3.49-2.38-4.5.07-.27.13-.55.13-.85v-1.35c0-1.54-1.26-2.8-2.8-2.8h-.9c-1.54,0-2.8,1.26-2.8,2.8v1.35c0,.29.05.58.13.85-1.46,1.02-2.38,2.69-2.38,4.5v1.5h-2c-.55,0-1,.45-1,1v14c0,.55.45,1,1,1h11c.55,0,1-.45,1-1s-.45-1-1-1H3v-4h7c.55,0,1-.45,1-1s-.45-1-1-1H3v-2h11c.55,0,1-.45,1-1s-.45-1-1-1H3v-2h26v12h-1c-.55,0-1,.45-1,1s.45,1,1,1h2c.55,0,1-.45,1-1v-14c0-.55-.45-1-1-1ZM8.25,3.8c0-.44.36-.8.8-.8h.9c.44,0,.8.36.8.8v1.35c0,.69-.56,1.25-1.25,1.25s-1.25-.56-1.25-1.25v-1.35Zm-2.25,6.7c0-1.13.56-2.18,1.47-2.83.56.45,1.26.73,2.03.73s1.47-.28,2.03-.73c.91.65,1.47,1.7,1.47,2.83v1.5h-7v-1.5Z"/>
  </g>
  <g>
    <path class="cls-1" d="m25.14,24.56c-.88,1.68-2.62,2.84-4.64,2.84s-3.76-1.16-4.64-2.84c-.54.85-.86,1.86-.86,2.94v3.5h11v-3.5c0-1.08-.32-2.09-.86-2.94Z"/>
    <path class="cls-1" d="m20.5,25.4c1.79,0,3.25-1.46,3.25-3.25v-1.35c0-1.54-1.26-2.8-2.8-2.8h-.9c-1.54,0-2.8,1.26-2.8,2.8v1.35c0,1.79,1.46,3.25,3.25,3.25Z"/>
  </g>
</svg>