<?xml version="1.0" encoding="UTF-8"?>
<svg id="OBJECT" xmlns="http://www.w3.org/2000/svg" viewBox="0 0 512 512">
  <defs>
    <style>
      .cls-1 {
        fill: #FD4360;
      }

      .cls-2 {
        fill: #dadada;
      }
    </style>
  </defs>
  <g>
    <path class="cls-2" d="M256,0C169.15,0,98.5,70.65,98.5,157.5s70.65,157.5,157.5,157.5,157.5-70.65,157.5-157.5S342.85,0,256,0Zm134.13,205.63c-13.55,7.62-29.67,13.9-47.55,18.68,3.87-21.03,5.93-43.61,5.93-66.81s-2.05-45.78-5.93-66.81c17.88,4.78,34,11.06,47.55,18.68,5.41,15.04,8.37,31.25,8.37,48.13s-2.96,33.09-8.37,48.13ZM113.7,165h49.88c.39,20.56,2.39,40.56,5.85,59.31-17.88-4.78-34-11.06-47.55-18.68-4.61-12.8-7.44-26.44-8.18-40.63Zm8.18-55.63c13.55-7.62,29.67-13.9,47.55-18.68-3.46,18.76-5.45,38.75-5.85,59.31h-49.88c.74-14.19,3.57-27.83,8.18-40.63ZM263.5,15.2c14.19,.74,27.83,3.57,40.63,8.18,7.62,13.55,13.9,29.67,18.68,47.55-18.76-3.46-38.75-5.45-59.31-5.85V15.2Zm-15,49.88c-20.56,.39-40.56,2.39-59.31,5.85,4.78-17.88,11.06-34,18.68-47.55,12.8-4.61,26.44-7.44,40.63-8.18v49.88Zm0,15v69.92h-69.92c.43-22.08,2.78-43.41,6.83-63.08,19.67-4.05,41-6.4,63.08-6.83Zm-69.92,84.92h69.92v69.92c-22.08-.43-43.41-2.78-63.08-6.83-4.05-19.67-6.4-41-6.83-63.08Zm69.92,84.92v49.88c-14.19-.74-27.83-3.57-40.63-8.18-7.62-13.55-13.9-29.67-18.68-47.55,18.76,3.46,38.75,5.45,59.31,5.85Zm15,0c20.56-.39,40.56-2.39,59.31-5.85-4.78,17.88-11.06,34-18.68,47.55-12.8,4.61-26.44,7.44-40.63,8.18v-49.88Zm0-15v-69.92h22.5c4.14,0,7.5-3.36,7.5-7.5s-3.36-7.5-7.5-7.5h-22.5V80.08c22.08,.43,43.41,2.78,63.08,6.83,4.51,21.89,6.92,45.84,6.92,70.58s-2.4,48.69-6.92,70.58c-19.67,4.05-41,6.4-63.08,6.83Zm116.76-147.1c-12.48-5.38-26.31-9.9-41.14-13.45-3.55-14.82-8.06-28.66-13.45-41.14,22.81,12.84,41.74,31.77,54.58,54.58ZM186.32,33.24c-5.38,12.48-9.9,26.31-13.45,41.14-14.82,3.55-28.66,8.06-41.14,13.45,12.84-22.81,31.77-41.74,54.58-54.58Zm-54.58,193.94c12.48,5.38,26.31,9.9,41.14,13.45,3.55,14.82,8.06,28.66,13.45,41.14-22.81-12.84-41.74-31.77-54.58-54.58Zm193.94,54.58c5.38-12.48,9.9-26.31,13.45-41.14,14.82-3.55,28.66-8.06,41.14-13.45-12.84,22.81-31.77,41.74-54.58,54.58Z"/>
    <path class="cls-2" d="M316,150h-5c-4.14,0-7.5,3.36-7.5,7.5s3.36,7.5,7.5,7.5h5c4.14,0,7.5-3.36,7.5-7.5s-3.36-7.5-7.5-7.5Z"/>
  </g>
  <g>
    <rect class="cls-1" x="233.5" y="360" width="45" height="32"/>
    <path class="cls-1" d="M241,345h30c4.14,0,7.5-3.36,7.5-7.5s-3.36-7.5-7.5-7.5h-30c-4.14,0-7.5,3.36-7.5,7.5s3.36,7.5,7.5,7.5Z"/>
    <circle class="cls-1" cx="474.5" cy="459.5" r="37.5"/>
    <circle class="cls-1" cx="37.5" cy="459.5" r="37.5"/>
    <rect class="cls-1" x="283.5" y="452" width="25" height="15" rx="2.5" ry="2.5"/>
    <rect class="cls-1" x="203.5" y="452" width="25" height="15" rx="2.5" ry="2.5"/>
    <path class="cls-1" d="M416,452h-62.5v15h62.5c4.14,0,7.5-3.36,7.5-7.5s-3.36-7.5-7.5-7.5Z"/>
    <path class="cls-1" d="M88.5,459.5c0,4.14,3.36,7.5,7.5,7.5h62.5v-15h-62.5c-4.14,0-7.5,3.36-7.5,7.5Z"/>
    <path class="cls-1" d="M323.5,407H188.5c-8.28,0-15,6.72-15,15v75c0,8.28,6.72,15,15,15h135c8.28,0,15-6.72,15-15v-75c0-8.28-6.72-15-15-15Zm-80,57.5c0,9.65-7.85,17.5-17.5,17.5h-20c-9.65,0-17.5-7.85-17.5-17.5v-10c0-9.65,7.85-17.5,17.5-17.5h20c9.65,0,17.5,7.85,17.5,17.5v10Zm80,0c0,9.65-7.85,17.5-17.5,17.5h-20c-9.65,0-17.5-7.85-17.5-17.5v-10c0-9.65,7.85-17.5,17.5-17.5h20c9.65,0,17.5,7.85,17.5,17.5v10Z"/>
  </g>
</svg>