<?xml version="1.0" encoding="UTF-8"?>
<svg id="OBJECT" xmlns="http://www.w3.org/2000/svg" viewBox="0 0 32 32">
  <defs>
    <style>
      .cls-1 {
        fill: #FD4360;
      }

      .cls-1, .cls-2 {
        stroke-width: 0px;
      }

      .cls-2 {
        fill: #dadada;
      }
    </style>
  </defs>
  <g>
    <path class="cls-2" d="m27.45,2c0-.55-.45-1-1-1h-1.83c-.66,0-1.31.27-1.78.74l-2.13,2.16c-.39.39-.38,1.03,0,1.41.19.19.45.29.7.29s.52-.1.71-.3l2.13-2.16c.09-.09.22-.15.36-.15h1.83c.55,0,1-.45,1-1Z"/>
    <path class="cls-2" d="m30,10.42c-.55,0-1,.45-1,1v1.94c0,.13-.06.27-.15.36l-1.61,1.56c-.4.38-.41,1.02-.02,1.41.2.2.46.3.72.3s.5-.09.7-.28l1.61-1.56c.48-.47.76-1.12.76-1.8v-1.94c0-.55-.45-1-1-1Z"/>
    <path class="cls-2" d="m27.84,22.71l-.58-.37c-.46-.3-1.08-.16-1.38.31-.3.47-.16,1.08.31,1.38l.58.37c.14.09.23.25.23.42v2.18c0,.55.45,1,1,1s1-.45,1-1v-2.18c0-.86-.43-1.65-1.16-2.11Z"/>
    <path class="cls-2" d="m18,28c-.55,0-1,.45-1,1v1c0,.55.45,1,1,1s1-.45,1-1v-1c0-.55-.45-1-1-1Z"/>
    <path class="cls-2" d="m29.5,3h.5c.55,0,1-.45,1-1s-.45-1-1-1h-.5c-.55,0-1,.45-1,1s.45,1,1,1Z"/>
    <path class="cls-2" d="m30,7c-.55,0-1,.45-1,1v.5c0,.55.45,1,1,1s1-.45,1-1v-.5c0-.55-.45-1-1-1Z"/>
    <path class="cls-2" d="m28,28.5c-.55,0-1,.45-1,1v.5c0,.55.45,1,1,1s1-.45,1-1v-.5c0-.55-.45-1-1-1Z"/>
    <path class="cls-2" d="m5.55,3h1.83c.13,0,.26.05.36.15l2.13,2.16c.2.2.45.3.71.3s.51-.1.7-.29c.39-.39.4-1.02,0-1.41l-2.13-2.15c-.47-.47-1.11-.74-1.78-.74h-1.83c-.55,0-1,.45-1,1s.45,1,1,1Z"/>
    <path class="cls-2" d="m4.06,17c.26,0,.52-.1.72-.3.38-.4.37-1.03-.02-1.41l-1.61-1.56c-.1-.09-.15-.22-.15-.36v-1.94c0-.55-.45-1-1-1s-1,.45-1,1v1.94c0,.67.28,1.33.76,1.8l1.61,1.56c.19.19.44.28.7.28Z"/>
    <path class="cls-2" d="m4.74,22.34l-.58.37c-.72.46-1.16,1.25-1.16,2.11v2.18c0,.55.45,1,1,1s1-.45,1-1v-2.18c0-.17.09-.33.23-.42l.58-.37c.47-.3.6-.92.31-1.38-.3-.47-.91-.6-1.38-.31Z"/>
    <path class="cls-2" d="m14,28c-.55,0-1,.45-1,1v1c0,.55.45,1,1,1s1-.45,1-1v-1c0-.55-.45-1-1-1Z"/>
    <path class="cls-2" d="m2,3h.5c.55,0,1-.45,1-1s-.45-1-1-1h-.5c-.55,0-1,.45-1,1s.45,1,1,1Z"/>
    <path class="cls-2" d="m2,9.5c.55,0,1-.45,1-1v-.5c0-.55-.45-1-1-1s-1,.45-1,1v.5c0,.55.45,1,1,1Z"/>
    <path class="cls-2" d="m4,28.5c-.55,0-1,.45-1,1v.5c0,.55.45,1,1,1s1-.45,1-1v-.5c0-.55-.45-1-1-1Z"/>
    <path class="cls-2" d="m10.44,12.25c.33-.15.55-.48.58-.84.04-.68.53-1.24,1.18-1.37.47-.09.8-.5.8-.98v-1.05c0-.55.45-1,1-1h1c.55,0,1-.45,1-1s-.45-1-1-1h-1c-1.65,0-3,1.35-3,3v.34c-.95.45-1.65,1.32-1.9,2.36-1.88,1.15-3.1,3.6-3.1,6.3,0,3.65,2.2,6.64,5,6.97v.03c0,1.65,1.35,3,3,3h1c.55,0,1-.45,1-1s-.45-1-1-1h-1c-.55,0-1-.45-1-1v-4.95c0-.55-.45-1-1-1s-1,.45-1,1v2.88c-1.67-.36-3-2.46-3-4.93,0-2.16.98-4.07,2.44-4.75Z"/>
  </g>
  <path class="cls-1" d="m22.9,11.2c-.24-1.04-.95-1.91-1.9-2.36v-1.34c0-1.1-.9-2-2-2s-2,.9-2,2v18c0,.55.45,1,1,1s1-.45,1-1v-4.95c0-.55.45-1,1-1s1,.45,1,1v3.92c2.8-.32,5-3.33,5-6.97,0-2.7-1.23-5.15-3.1-6.3Z"/>
</svg>