<?xml version="1.0" encoding="UTF-8"?>
<svg id="OBJECT" xmlns="http://www.w3.org/2000/svg" viewBox="0 0 512 512">
  <defs>
    <style>
      .cls-1 {
        fill: #FD4360;
      }

      .cls-2 {
        fill: #dadada;
      }
    </style>
  </defs>
  <g>
    <path class="cls-2" d="M373.77,253.59c-2.3-3.45-6.95-4.38-10.4-2.08l-3.34,2.23v-84.49c0-12.41-10.09-22.5-22.5-22.5h-73.07c-4.14,0-7.5,3.36-7.5,7.5v30c0,4.14,3.36,7.5,7.5,7.5h50.57v61.99l-3.34-2.23c-3.45-2.3-8.1-1.37-10.4,2.08-2.3,3.45-1.37,8.1,2.08,10.4l30,20c1.26,.84,2.71,1.26,4.16,1.26s2.9-.42,4.16-1.26l30-20c3.45-2.3,4.38-6.95,2.08-10.4Zm-36.24,15.15l-7.5-5v-79.49c0-4.14-3.36-7.5-7.5-7.5h-50.57v-15h65.57c4.14,0,7.5,3.36,7.5,7.5v94.49l-7.5,5Z"/>
    <path class="cls-2" d="M187.53,420.25h-50.57v-61.99l3.34,2.23c1.28,.85,2.72,1.26,4.15,1.26,2.42,0,4.8-1.17,6.25-3.34,2.3-3.45,1.37-8.1-2.08-10.4l-30-20c-2.52-1.68-5.8-1.68-8.32,0l-30,20c-3.45,2.3-4.38,6.95-2.08,10.4,2.3,3.45,6.96,4.38,10.4,2.08l3.34-2.23v84.49c0,12.41,10.09,22.5,22.5,22.5h73.07c4.14,0,7.5-3.36,7.5-7.5v-30c0-4.14-3.36-7.5-7.5-7.5Zm-7.5,30H114.47c-4.14,0-7.5-3.36-7.5-7.5v-94.49l7.5-5,7.5,5v79.49c0,4.14,3.36,7.5,7.5,7.5h50.57v15Z"/>
    <path class="cls-2" d="M152.8,2.2c-1.41-1.41-3.31-2.2-5.3-2.2H22.5C10.09,0,0,10.09,0,22.5V289.5c0,12.41,10.09,22.5,22.5,22.5H202.5c12.41,0,22.5-10.09,22.5-22.5V77.5c0-1.99-.79-3.9-2.2-5.3L152.8,2.2Zm2.2,23.41l44.39,44.39h-36.89c-4.14,0-7.5-3.36-7.5-7.5V25.61Zm47.5,271.39H22.5c-4.14,0-7.5-3.36-7.5-7.5V22.5c0-4.14,3.36-7.5,7.5-7.5h117.5V62.5c0,12.41,10.09,22.5,22.5,22.5h47.5v204.5c0,4.14-3.36,7.5-7.5,7.5Z"/>
    <path class="cls-2" d="M182.5,127H72.5c-4.14,0-7.5,3.36-7.5,7.5s3.36,7.5,7.5,7.5h110c4.14,0,7.5-3.36,7.5-7.5s-3.36-7.5-7.5-7.5Z"/>
    <path class="cls-2" d="M42.5,142h5c4.14,0,7.5-3.36,7.5-7.5s-3.36-7.5-7.5-7.5h-5c-4.14,0-7.5,3.36-7.5,7.5s3.36,7.5,7.5,7.5Z"/>
    <path class="cls-2" d="M182.5,213.67H72.5c-4.14,0-7.5,3.36-7.5,7.5s3.36,7.5,7.5,7.5h110c4.14,0,7.5-3.36,7.5-7.5s-3.36-7.5-7.5-7.5Z"/>
    <path class="cls-2" d="M42.5,228.67h5c4.14,0,7.5-3.36,7.5-7.5s-3.36-7.5-7.5-7.5h-5c-4.14,0-7.5,3.36-7.5,7.5s3.36,7.5,7.5,7.5Z"/>
    <path class="cls-2" d="M182.5,170.33H42.5c-4.14,0-7.5,3.36-7.5,7.5s3.36,7.5,7.5,7.5H182.5c4.14,0,7.5-3.36,7.5-7.5s-3.36-7.5-7.5-7.5Z"/>
    <path class="cls-2" d="M182.5,257H42.5c-4.14,0-7.5,3.36-7.5,7.5s3.36,7.5,7.5,7.5H182.5c4.14,0,7.5-3.36,7.5-7.5s-3.36-7.5-7.5-7.5Z"/>
  </g>
  <g>
    <path class="cls-1" d="M267,489.5v-122.5h-40v122.5c0,4.14,3.36,7.5,7.5,7.5h25c4.14,0,7.5-3.36,7.5-7.5Z"/>
    <rect class="cls-1" x="447" y="452" width="20" height="15"/>
    <rect class="cls-1" x="377" y="452" width="20" height="15"/>
    <path class="cls-1" d="M504.5,347h-170c-4.14,0-7.5-3.36-7.5-7.5s3.36-7.5,7.5-7.5h37.14l-10.43-20.85c-1.27-2.54-3.87-4.15-6.71-4.15h-72.5v182.5c0,12.41-10.09,22.5-22.5,22.5h230c12.41,0,22.5-10.09,22.5-22.5v-135c0-4.14-3.36-7.5-7.5-7.5Zm-92.5,127.5c0,4.14-3.36,7.5-7.5,7.5h-35c-4.14,0-7.5-3.36-7.5-7.5v-30c0-4.14,3.36-7.5,7.5-7.5h35c4.14,0,7.5,3.36,7.5,7.5v30Zm70,0c0,4.14-3.36,7.5-7.5,7.5h-35c-4.14,0-7.5-3.36-7.5-7.5v-30c0-4.14,3.36-7.5,7.5-7.5h35c4.14,0,7.5,3.36,7.5,7.5v30Z"/>
  </g>
</svg>