<?xml version="1.0" encoding="UTF-8"?>
<svg id="OBJECT" xmlns="http://www.w3.org/2000/svg" viewBox="0 0 512 512">
  <defs>
    <style>
      .cls-1 {
        fill: #FD4360;
      }

      .cls-2 {
        fill: #dadada;
      }
    </style>
  </defs>
  <g>
    <path class="cls-2" d="M217.5,268.5h-30c-12.41,0-22.5,10.09-22.5,22.5v30c0,12.41,10.09,22.5,22.5,22.5h30c12.41,0,22.5-10.09,22.5-22.5v-30c0-12.41-10.09-22.5-22.5-22.5Zm7.5,52.5c0,4.14-3.36,7.5-7.5,7.5h-30c-4.14,0-7.5-3.36-7.5-7.5v-30c0-4.14,3.36-7.5,7.5-7.5h30c4.14,0,7.5,3.36,7.5,7.5v30Z"/>
    <path class="cls-2" d="M165,221c0,12.41,10.09,22.5,22.5,22.5h30c12.41,0,22.5-10.09,22.5-22.5v-30c0-12.41-10.09-22.5-22.5-22.5h-30c-12.41,0-22.5,10.09-22.5,22.5v30Zm15-30c0-4.14,3.36-7.5,7.5-7.5h30c4.14,0,7.5,3.36,7.5,7.5v30c0,4.14-3.36,7.5-7.5,7.5h-30c-4.14,0-7.5-3.36-7.5-7.5v-30Z"/>
    <path class="cls-2" d="M197.5,98.5c-4.14,0-7.5,3.36-7.5,7.5v5c0,4.14,3.36,7.5,7.5,7.5s7.5-3.36,7.5-7.5v-5c0-4.14-3.36-7.5-7.5-7.5Z"/>
    <path class="cls-2" d="M197.5,413.5c4.14,0,7.5-3.36,7.5-7.5v-5c0-4.14-3.36-7.5-7.5-7.5s-7.5,3.36-7.5,7.5v5c0,4.14,3.36,7.5,7.5,7.5Z"/>
    <path class="cls-2" d="M197.5,213.5h10c4.14,0,7.5-3.36,7.5-7.5s-3.36-7.5-7.5-7.5h-10c-4.14,0-7.5,3.36-7.5,7.5s3.36,7.5,7.5,7.5Z"/>
    <path class="cls-2" d="M207.5,298.5h-10c-4.14,0-7.5,3.36-7.5,7.5s3.36,7.5,7.5,7.5h10c4.14,0,7.5-3.36,7.5-7.5s-3.36-7.5-7.5-7.5Z"/>
    <path class="cls-2" d="M312.5,228.5h-37.5V42.5c0-23.43-19.07-42.5-42.5-42.5-20.14,0-37.05,14.08-41.41,32.91-6.33-1.93-12.92-2.91-19.68-2.91-35.27,0-64.31,27.19-67.25,61.71-40.52,8.05-70.33,43.86-70.33,85.79,0,1.5,.04,3.03,.12,4.56C12.32,200.63,0,227.36,0,256s12.32,55.37,33.95,73.94c-.08,1.53-.12,3.06-.12,4.56,0,41.93,29.81,77.74,70.33,85.79,2.95,34.52,31.99,61.71,67.25,61.71,6.76,0,13.35-.98,19.68-2.91,4.36,18.83,21.27,32.91,41.41,32.91,23.43,0,42.5-19.07,42.5-42.5v-186h37.5c12.41,0,22.5-10.09,22.5-22.5v-10c0-12.41-10.09-22.5-22.5-22.5Zm-52.5,135h-92.5c-12.41,0-22.5-10.09-22.5-22.5V171c0-12.41,10.09-22.5,22.5-22.5h92.5v215Zm0-230h-92.5c-20.68,0-37.5,16.82-37.5,37.5v170c0,20.68,16.82,37.5,37.5,37.5h92.5v91c0,15.16-12.34,27.5-27.5,27.5s-27.5-12.34-27.5-27.5v-38.5c0-4.14-3.36-7.5-7.5-7.5s-7.5,3.36-7.5,7.5v32.6c-5.92,2.25-12.14,3.4-18.59,3.4-28.95,0-52.5-23.55-52.5-52.47v-.11c0-.16,.01-.32,.02-.48,.04-3.81-2.8-7.05-6.58-7.51-36.21-4.47-63.52-35.39-63.52-71.93,0-1.31,.05-2.65,.12-3.99l20.45-15.86c.43-.34,.98-.52,1.53-.52h11.29c5.79,0,11.2-2.86,14.46-7.64l7.02-10.3c2.33-3.42,1.45-8.09-1.97-10.42-3.42-2.33-8.09-1.45-10.42,1.97l-7.02,10.3c-.47,.68-1.24,1.09-2.07,1.09h-11.29c-3.87,0-7.67,1.3-10.73,3.67l-18.27,14.17c-17.18-15.63-26.93-37.54-26.93-60.97s9.75-45.34,26.93-60.97l18.27,14.17c3.05,2.37,6.86,3.67,10.73,3.67h11.29c.83,0,1.6,.41,2.07,1.09l7.02,10.3c1.45,2.13,3.81,3.28,6.2,3.28,1.45,0,2.92-.42,4.22-1.3,3.42-2.33,4.31-7,1.97-10.42l-7.02-10.3c-3.26-4.79-8.67-7.64-14.46-7.64h-11.29c-.55,0-1.1-.19-1.53-.52l-20.44-15.86c-.07-1.34-.12-2.68-.12-3.99,0-36.53,27.31-67.45,63.52-71.93,3.78-.47,6.62-3.7,6.58-7.51,0-.16,0-.32-.01-.48v-.08c0-28.95,23.55-52.5,52.5-52.5,6.44,0,12.67,1.16,18.59,3.4v32.6c0,4.14,3.36,7.5,7.5,7.5s7.5-3.36,7.5-7.5V42.5c0-15.16,12.34-27.5,27.5-27.5s27.5,12.34,27.5,27.5v91Zm60,127.5c0,4.14-3.36,7.5-7.5,7.5h-37.5v-25h37.5c4.14,0,7.5,3.36,7.5,7.5v10Z"/>
  </g>
  <g>
    <path class="cls-1" d="M459.5,203.5c-28.95,0-52.5,23.55-52.5,52.5s23.55,52.5,52.5,52.5,52.5-23.55,52.5-52.5-23.55-52.5-52.5-52.5Zm11.6,73.43c-1.37,1.06-2.99,1.57-4.59,1.57-2.24,0-4.45-1-5.93-2.9-2.54-3.27-1.94-7.98,1.33-10.52,3.29-2.55,5.1-5.77,5.1-9.07s-1.81-6.52-5.1-9.07c-3.27-2.54-3.87-7.25-1.33-10.52,2.54-3.27,7.25-3.87,10.52-1.33,6.93,5.37,10.9,13,10.9,20.93s-3.97,15.55-10.9,20.93Z"/>
    <path class="cls-1" d="M350,248.5v15h42.43c-.27-2.46-.43-4.96-.43-7.5s.15-5.04,.43-7.5h-42.43Z"/>
    <circle class="cls-1" cx="389.5" cy="171.75" r="32.5"/>
    <circle class="cls-1" cx="459.5" cy="67.5" r="37.5"/>
    <path class="cls-1" d="M297.5,179.25h45.1c-.39-2.44-.6-4.95-.6-7.5s.21-5.06,.6-7.5h-45.1c-4.14,0-7.5,3.36-7.5,7.5s3.36,7.5,7.5,7.5Z"/>
    <path class="cls-1" d="M327.5,105h28.97c7.54,0,14.54-3.75,18.72-10.02l11.09-16.64c1.39-2.09,3.73-3.34,6.24-3.34h15.02c-.35-2.45-.54-4.95-.54-7.5s.19-5.05,.54-7.5h-15.02c-7.54,0-14.54,3.75-18.72,10.02l-11.09,16.64c-1.39,2.09-3.73,3.34-6.24,3.34h-28.97c-4.14,0-7.5,3.36-7.5,7.5s3.36,7.5,7.5,7.5Z"/>
    <path class="cls-1" d="M297.5,105h5c4.14,0,7.5-3.36,7.5-7.5s-3.36-7.5-7.5-7.5h-5c-4.14,0-7.5,3.36-7.5,7.5s3.36,7.5,7.5,7.5Z"/>
    <circle class="cls-1" cx="389.5" cy="340.25" r="32.5"/>
    <circle class="cls-1" cx="459.5" cy="444.5" r="37.5"/>
    <path class="cls-1" d="M297.5,347.75h45.1c-.39-2.44-.6-4.95-.6-7.5s.21-5.06,.6-7.5h-45.1c-4.14,0-7.5,3.36-7.5,7.5s3.36,7.5,7.5,7.5Z"/>
    <path class="cls-1" d="M392.53,437c-2.51,0-4.85-1.25-6.24-3.34l-11.09-16.64c-4.18-6.27-11.18-10.02-18.72-10.02h-28.97c-4.14,0-7.5,3.36-7.5,7.5s3.36,7.5,7.5,7.5h28.97c2.51,0,4.85,1.25,6.24,3.34l11.09,16.64c4.18,6.27,11.18,10.02,18.72,10.02h15.02c-.35-2.45-.54-4.95-.54-7.5s.19-5.05,.54-7.5h-15.02Z"/>
    <path class="cls-1" d="M302.5,407h-5c-4.14,0-7.5,3.36-7.5,7.5s3.36,7.5,7.5,7.5h5c4.14,0,7.5-3.36,7.5-7.5s-3.36-7.5-7.5-7.5Z"/>
  </g>
</svg>