<?xml version="1.0" encoding="UTF-8"?>
<svg id="OBJECT" xmlns="http://www.w3.org/2000/svg" viewBox="0 0 32 32">
  <defs>
    <style>
      .cls-1 {
        fill: #FD4360;
      }

      .cls-1, .cls-2 {
        stroke-width: 0px;
      }

      .cls-2 {
        fill: #dadada;
      }
    </style>
  </defs>
  <g>
    <path class="cls-2" d="m13.5,1c-1.76,0-3.21,1.31-3.45,3-2.1-.05-3.86,1.58-4.03,3.65-2.99,1.35-5.02,4.68-5.02,8.35s2.03,6.99,5.02,8.35c.18,2.04,1.9,3.65,3.98,3.65.02,0,.03,0,.05,0,.24,1.69,1.69,3,3.45,3,1.93,0,3.5-1.57,3.5-3.5v-1.5c0-.55-.45-1-1-1s-1,.45-1,1v1.5c0,.83-.67,1.5-1.5,1.5s-1.5-.67-1.5-1.5v-3.68c0-.55-.45-1-1-1s-1,.45-1,1v2.18c-1.1,0-2-.9-1.99-2.09,0,0,.01-.12.02-.13.05-.47-.23-.91-.68-1.06-2.56-.86-4.35-3.62-4.35-6.73s1.79-5.87,4.35-6.73c.45-.15.73-.59.68-1.06,0,0-.03-.21-.03-.22,0-1.1.9-2,2-2v2.18c0,.55.45,1,1,1s1-.45,1-1v-3.68c0-.83.67-1.5,1.5-1.5s1.5.67,1.5,1.5v1.5c0,.55.45,1,1,1s1-.45,1-1v-1.5c0-1.93-1.57-3.5-3.5-3.5Z"/>
    <path class="cls-2" d="m30,15h-5c-.55,0-1,.45-1,1s.45,1,1,1h5c.55,0,1-.45,1-1s-.45-1-1-1Z"/>
    <path class="cls-2" d="m23,12h2.56c1.29,0,2.44-.82,2.85-2.05l1.54-4.63c.17-.52-.11-1.09-.63-1.27-.53-.18-1.09.11-1.27.63l-1.54,4.63c-.14.41-.52.68-.95.68h-2.56c-.55,0-1,.45-1,1s.45,1,1,1Z"/>
    <path class="cls-2" d="m28.4,22.05c-.41-1.23-1.55-2.05-2.85-2.05h-2.56c-.55,0-1,.45-1,1s.45,1,1,1h2.56c.43,0,.81.27.95.68l1.54,4.63c.14.42.53.68.95.68.1,0,.21-.02.32-.05.52-.17.81-.74.63-1.27l-1.54-4.63Z"/>
    <path class="cls-2" d="m5,14.5v3c0,.55.45,1,1,1s1-.45,1-1v-3c0-.55-.45-1-1-1s-1,.45-1,1Z"/>
  </g>
  <path class="cls-1" d="m21.6,11.82l-1.8,1.8c-.19.19-.29.44-.29.71v4.31c0,.55-.45,1-1,1s-1-.45-1-1v-4.31c0-.8.31-1.56.88-2.12l1.8-1.8c-1.17-.88-2.61-1.4-4.18-1.4-3.86,0-7,3.14-7,7,0,1.57.53,3.02,1.4,4.18l1.8-1.8c.19-.19.29-.44.29-.71v-4.31c0-.55.45-1,1-1s1,.45,1,1v4.31c0,.8-.31,1.56-.88,2.12l-1.8,1.8c1.17.88,2.61,1.4,4.18,1.4,3.86,0,7-3.14,7-7,0-1.57-.53-3.02-1.4-4.18Z"/>
</svg>