<?xml version="1.0" encoding="UTF-8"?>
<svg id="OBJECT" xmlns="http://www.w3.org/2000/svg" viewBox="0 0 32 32">
  <defs>
    <style>
      .cls-1 {
        fill: #FD4360;
      }

      .cls-2 {
        fill: #dadada;
      }
    </style>
  </defs>
  <g>
    <path class="cls-2" d="m22,19h-12c-1.65,0-3,1.35-3,3v1c0,.77.3,1.47.78,2-.48.53-.78,1.23-.78,2v1c0,1.65,1.35,3,3,3h12c1.65,0,3-1.35,3-3v-1c0-.77-.3-1.47-.78-2,.48-.53.78-1.23.78-2v-1c0-1.65-1.35-3-3-3Zm-13,3c0-.55.45-1,1-1h12c.55,0,1,.45,1,1v1c0,.55-.45,1-1,1h-12c-.55,0-1-.45-1-1v-1Zm14,6c0,.55-.45,1-1,1h-12c-.55,0-1-.45-1-1v-1c0-.55.45-1,1-1h12c.55,0,1,.45,1,1v1Z"/>
    <path class="cls-2" d="m3.33,18.5c.55,0,1-.45,1-1s-.45-1-1-1h-1.33c-.55,0-1,.45-1,1s.45,1,1,1h1.33Z"/>
    <path class="cls-2" d="m3.44,8.69c-.45-.33-1.07-.23-1.4.22-.33.45-.23,1.07.22,1.4l1.15.84c.18.13.38.19.59.19.31,0,.61-.14.81-.41.33-.45.23-1.07-.22-1.4l-1.15-.84Z"/>
    <path class="cls-2" d="m3.41,23.85l-1.15.84c-.45.33-.54.95-.22,1.4.2.27.5.41.81.41.2,0,.41-.06.59-.19l1.15-.84c.45-.33.54-.95.22-1.4-.32-.45-.95-.54-1.4-.22Z"/>
    <path class="cls-2" d="m30,16.5h-1.33c-.55,0-1,.45-1,1s.45,1,1,1h1.33c.55,0,1-.45,1-1s-.45-1-1-1Z"/>
    <path class="cls-2" d="m28.59,23.85c-.45-.33-1.07-.23-1.4.22-.33.45-.23,1.07.22,1.4l1.15.84c.18.13.38.19.59.19.31,0,.61-.14.81-.41.33-.45.23-1.07-.22-1.4l-1.15-.84Z"/>
    <path class="cls-2" d="m28,11.34c.2,0,.41-.06.59-.19l1.15-.84c.45-.33.54-.95.22-1.4-.32-.45-.95-.54-1.4-.22l-1.15.84c-.45.33-.54.95-.22,1.4.2.27.5.41.81.41Z"/>
  </g>
  <g>
    <rect class="cls-1" x="7" y="12" width="18" height="5" rx="2" ry="2"/>
    <path class="cls-1" d="m24,1h-4c-1.64,0-3.09.81-4,2.03-.91-1.23-2.36-2.03-4-2.03h-4c-.55,0-1,.45-1,1v1c0,2.76,2.24,5,5,5h3v2h2v-2h3c2.76,0,5-2.24,5-5v-1c0-.55-.45-1-1-1Z"/>
  </g>
</svg>