<?xml version="1.0" encoding="UTF-8"?>
<svg id="OBJECT" xmlns="http://www.w3.org/2000/svg" viewBox="0 0 32 32">
  <defs>
    <style>
      .cls-1 {
        fill: #FD4360;
      }

      .cls-1, .cls-2 {
        stroke-width: 0px;
      }

      .cls-2 {
        fill: #dadada;
      }
    </style>
  </defs>
  <g>
    <path class="cls-2" d="m30,20h-1c-.55,0-1,.45-1,1s.45,1,1,1h1c.55,0,1-.45,1-1s-.45-1-1-1Z"/>
    <path class="cls-2" d="m28.07,17.25c.17,0,.34-.04.5-.13l.87-.5c.48-.28.64-.89.37-1.37-.28-.48-.89-.64-1.37-.37l-.87.5c-.48.28-.64.89-.37,1.37.19.32.52.5.87.5Z"/>
    <path class="cls-2" d="m29.43,25.38l-.87-.5c-.48-.28-1.09-.11-1.37.37-.28.48-.11,1.09.37,1.37l.87.5c.16.09.33.13.5.13.35,0,.68-.18.87-.5.28-.48.11-1.09-.37-1.37Z"/>
    <path class="cls-2" d="m4,21c0-.55-.45-1-1-1h-1c-.55,0-1,.45-1,1s.45,1,1,1h1c.55,0,1-.45,1-1Z"/>
    <path class="cls-2" d="m4.43,15.38l-.87-.5c-.48-.28-1.09-.11-1.37.37-.28.48-.11,1.09.37,1.37l.87.5c.16.09.33.13.5.13.35,0,.68-.18.87-.5.28-.48.11-1.09-.37-1.37Z"/>
    <path class="cls-2" d="m3.43,24.88l-.87.5c-.48.28-.64.89-.37,1.37.19.32.52.5.87.5.17,0,.34-.04.5-.13l.87-.5c.48-.28.64-.89.37-1.37-.28-.48-.89-.64-1.37-.37Z"/>
    <path class="cls-2" d="m16,11c-5.51,0-10,4.49-10,10s4.49,10,10,10,10-4.49,10-10-4.49-10-10-10Zm0,18c-4.41,0-8-3.59-8-8s3.59-8,8-8,8,3.59,8,8-3.59,8-8,8Z"/>
    <path class="cls-2" d="m15.17,18.67h3.33c.55,0,1-.45,1-1s-.45-1-1-1h-1.5v-.67c0-.55-.45-1-1-1s-1,.45-1,1v.68c-1.39.09-2.5,1.24-2.5,2.65s1.2,2.67,2.67,2.67h1.67c.37,0,.67.3.67.67s-.3.67-.67.67h-3.33c-.55,0-1,.45-1,1s.45,1,1,1h1.5v.67c0,.55.45,1,1,1s1-.45,1-1v-.68c1.39-.09,2.5-1.24,2.5-2.65s-1.2-2.67-2.67-2.67h-1.67c-.37,0-.67-.3-.67-.67s.3-.67.67-.67Z"/>
    <path class="cls-2" d="m21,20.5v1c0,.55.45,1,1,1s1-.45,1-1v-1c0-.55-.45-1-1-1s-1,.45-1,1Z"/>
    <path class="cls-2" d="m10,19.5c-.55,0-1,.45-1,1v1c0,.55.45,1,1,1s1-.45,1-1v-1c0-.55-.45-1-1-1Z"/>
  </g>
  <path class="cls-1" d="m13,8h2v1.05c.33-.03.66-.05,1-.05s.67.02,1,.05v-1.05h2c3.31,0,6-2.69,6-6,0-.55-.45-1-1-1h-3c-2.09,0-3.92,1.07-5,2.69-1.08-1.62-2.91-2.69-5-2.69h-3c-.55,0-1,.45-1,1,0,3.31,2.69,6,6,6Z"/>
</svg>