<?xml version="1.0" encoding="UTF-8"?>
<svg id="OBJECT" xmlns="http://www.w3.org/2000/svg" viewBox="0 0 32 32">
  <defs>
    <style>
      .cls-1 {
        fill: #FD4360;
      }

      .cls-1, .cls-2 {
        stroke-width: 0px;
      }

      .cls-2 {
        fill: #dadada;
      }
    </style>
  </defs>
  <path class="cls-2" d="m27,7c2.21,0,4-1.79,4-4v-1c0-.55-.45-1-1-1h-3c-1.2,0-2.27.54-3,1.38-.73-.84-1.8-1.38-3-1.38h-3c-.55,0-1,.45-1,1v1c0,2.21,1.79,4,4,4h2v5.04c-3.12.21-6,1.39-6,3.46v12c0,2.3,3.52,3.5,7,3.5s7-1.2,7-3.5v-12c0-2.08-2.88-3.26-6-3.46v-5.04h2Zm0-4h2c0,1.1-.9,2-2,2h-2c0-1.1.9-2,2-2Zm-8,0h2c1.1,0,2,.9,2,2h-2c-1.1,0-2-.9-2-2Zm5,26c-3.28,0-5-1.11-5-1.5v-1.49c1.33.65,3.17.99,5,.99s3.67-.34,5-.99v1.49c0,.39-1.72,1.5-5,1.5Zm0-4c-3.28,0-5-1.11-5-1.5v-1.49c1.33.65,3.17.99,5,.99s3.67-.34,5-.99v1.49c0,.39-1.72,1.5-5,1.5Zm0-4c-3.28,0-5-1.11-5-1.5v-1.49c1.33.65,3.17.99,5,.99s3.67-.34,5-.99v1.49c0,.39-1.72,1.5-5,1.5Zm5-5.5c0,.39-1.72,1.5-5,1.5s-5-1.11-5-1.5c0-.34,1.38-1.26,4-1.46v1.46c0,.55.45,1,1,1s1-.45,1-1v-1.46c2.62.2,4,1.11,4,1.46Z"/>
  <g>
    <path class="cls-1" d="m8,29c-2.77,0-5.56-.83-7-2.61v1.11c0,2.3,3.52,3.5,7,3.5s7-1.2,7-3.5v-1.11c-1.44,1.79-4.23,2.61-7,2.61Z"/>
    <ellipse class="cls-1" cx="8" cy="23.5" rx="7" ry="3.5"/>
  </g>
</svg>