<?xml version="1.0" encoding="UTF-8"?>
<svg id="OBJECT" xmlns="http://www.w3.org/2000/svg" viewBox="0 0 32 32">
  <defs>
    <style>
      .cls-1 {
        fill: #FD4360;
      }

      .cls-2 {
        fill: #dadada;
      }
    </style>
  </defs>
  <path class="cls-2" d="M27.43,20.98c-3.18-1.5-6.3-1.05-8.43-.36v-1.87c0-.55-.45-1-1-1s-1,.45-1,1v9.75c0,.28-.22,.5-.5,.5h-1c-.28,0-.5-.22-.5-.5v-9.75c0-.55-.45-1-1-1s-1,.45-1,1v1.87c-2.13-.69-5.24-1.14-8.43,.36-.47,.22-.69,.77-.51,1.26,.02,.05,2,5.11,8.74,5.11,.06,0,.13,0,.2,0v1.17c0,1.38,1.12,2.5,2.5,2.5h1c1.38,0,2.5-1.12,2.5-2.5v-1.17c.06,0,.14,0,.2,0,6.74,0,8.72-5.05,8.74-5.11,.18-.49-.04-1.03-.51-1.26Zm-21.01,1.41c2.46-.81,4.82-.34,6.58,.35v2.6c-3.88,.06-5.79-1.8-6.58-2.94Zm12.58,2.95v-2.6c1.76-.68,4.11-1.16,6.58-.35-.8,1.14-2.7,3.02-6.58,2.95Z"/>
  <path class="cls-1" d="M16,17c4.41,0,8-3.59,8-8S20.41,1,16,1s-8,3.59-8,8,3.59,8,8,8Zm.83-7h-1.67c-1.47,0-2.67-1.2-2.67-2.67s1.11-2.56,2.5-2.65v-.68c0-.55,.45-1,1-1s1,.45,1,1v.67h1.5c.55,0,1,.45,1,1s-.45,1-1,1h-3.33c-.37,0-.67,.3-.67,.67s.3,.67,.67,.67h1.67c1.47,0,2.67,1.2,2.67,2.67s-1.11,2.56-2.5,2.65v.68c0,.55-.45,1-1,1s-1-.45-1-1v-.67h-1.5c-.55,0-1-.45-1-1s.45-1,1-1h3.33c.37,0,.67-.3,.67-.67s-.3-.67-.67-.67Z"/>
</svg>