<?xml version="1.0" encoding="UTF-8"?>
<svg id="OBJECT" xmlns="http://www.w3.org/2000/svg" viewBox="0 0 32 32">
  <defs>
    <style>
      .cls-1 {
        fill: #FD4360;
      }

      .cls-1, .cls-2 {
        stroke-width: 0px;
      }

      .cls-2 {
        fill: #dadada;
      }
    </style>
  </defs>
  <g>
    <path class="cls-2" d="m25.06,12.01c.19.16.42.24.64.24.28,0,.57-.12.77-.36,1.37-1.62,1.37-4.17,0-5.79-.36-.42-.99-.48-1.41-.12-.42.36-.48.99-.12,1.41.73.87.73,2.34,0,3.21-.36.42-.3,1.05.12,1.41Z"/>
    <path class="cls-2" d="m29.21,3.86c-.36-.42-.99-.48-1.41-.12-.42.36-.48.99-.12,1.41,1.79,2.13,1.79,5.59,0,7.71-.36.42-.3,1.05.12,1.41.19.16.42.24.64.24.28,0,.57-.12.77-.36,2.39-2.84,2.39-7.45,0-10.29Z"/>
    <path class="cls-2" d="m5.54,11.89c.2.23.48.36.77.36.23,0,.46-.08.64-.24.42-.36.48-.99.12-1.41-.73-.87-.73-2.34,0-3.21.36-.42.3-1.05-.12-1.41-.42-.36-1.05-.3-1.41.12-1.37,1.62-1.37,4.17,0,5.79Z"/>
    <path class="cls-2" d="m4.32,5.14c.36-.42.3-1.05-.12-1.41-.42-.36-1.05-.3-1.41.12C.4,6.69.4,11.31,2.79,14.14c.2.24.48.36.77.36.23,0,.46-.08.64-.24.42-.36.48-.99.12-1.41-1.79-2.13-1.79-5.59,0-7.71Z"/>
    <path class="cls-2" d="m26,25h-9v-1.04c.28.02.56.04.82.04,4.61,0,5.53-3.58,5.54-3.62.1-.41-.07-.84-.43-1.07-3.45-2.23-5.77-1.15-6.92-.22-1.15-.94-3.48-2.01-6.92.22-.36.23-.53.66-.43,1.07.01.04,1.04,4.03,6.35,3.58v1.04H6c-.55,0-1,.45-1,1s.45,1,1,1h.88l1.72,3.45c.17.34.52.55.89.55h13c.38,0,.73-.21.89-.55l1.72-3.45h.88c.55,0,1-.45,1-1s-.45-1-1-1Zm-4.9-4.44c-.47.7-1.59,1.64-4.1,1.38v-1.09c.43-.47,1.73-1.5,4.1-.3Zm-10.2,0c2.36-1.19,3.65-.19,4.1.3v1.08c-2.51.26-3.63-.68-4.1-1.38Zm10.98,8.44h-11.76l-1-2h13.76l-1,2Z"/>
  </g>
  <path class="cls-1" d="m16,17c4.41,0,8-3.59,8-8S20.41,1,16,1s-8,3.59-8,8,3.59,8,8,8Zm.7-7h-1.4c-1.32,0-2.4-1.08-2.4-2.4,0-1.22.92-2.21,2.09-2.36v-.43c0-.55.45-1,1-1s1,.45,1,1v.4h1.09c.55,0,1,.45,1,1s-.45,1-1,1h-2.79c-.22,0-.4.18-.4.4s.18.4.4.4h1.4c1.32,0,2.4,1.08,2.4,2.4,0,1.22-.92,2.21-2.09,2.36v.43c0,.55-.45,1-1,1s-1-.45-1-1v-.4h-1.09c-.55,0-1-.45-1-1s.45-1,1-1h2.79c.22,0,.4-.18.4-.4s-.18-.4-.4-.4Z"/>
</svg>