<?xml version="1.0" encoding="UTF-8"?>
<svg id="OBJECT" xmlns="http://www.w3.org/2000/svg" viewBox="0 0 32 32">
  <defs>
    <style>
      .cls-1 {
        fill: #FD4360;
      }

      .cls-1, .cls-2 {
        stroke-width: 0px;
      }

      .cls-2 {
        fill: #dadada;
      }
    </style>
  </defs>
  <path class="cls-2" d="m27,25h-10v-.75h3c2.76,0,5-2.24,5-5v-1c0-.55-.45-1-1-1h-4c-1.13,0-2.16.39-3,1.03v-.78c0-.55-.45-1-1-1s-1,.45-1,1v7.5H5c-.55,0-1,.45-1,1s.45,1,1,1h1.38l1.72,3.45c.17.34.52.55.89.55h14c.38,0,.72-.21.89-.55l1.72-3.45h1.38c.55,0,1-.45,1-1s-.45-1-1-1Zm-7-5.75h3c0,1.65-1.35,3-3,3h-3c0-1.65,1.35-3,3-3Zm2.38,9.75h-12.76l-1-2h14.76l-1,2Z"/>
  <path class="cls-1" d="m16,15c3.86,0,7-3.14,7-7s-3.14-7-7-7-7,3.14-7,7,3.14,7,7,7Zm.56-6.1h-1.13c-1.12,0-2.03-.91-2.03-2.03,0-1,.73-1.84,1.69-2v-.26c0-.5.4-.9.9-.9s.9.4.9.9v.23h.79c.5,0,.9.4.9.9s-.4.9-.9.9h-2.26c-.12,0-.23.1-.23.23s.1.23.23.23h1.13c1.12,0,2.03.91,2.03,2.03,0,1-.73,1.84-1.69,2v.26c0,.5-.4.9-.9.9s-.9-.4-.9-.9v-.23h-.79c-.5,0-.9-.4-.9-.9s.4-.9.9-.9h2.26c.12,0,.23-.1.23-.23s-.1-.23-.23-.23Z"/>
</svg>