<?xml version="1.0" encoding="UTF-8"?>
<svg id="OBJECT" xmlns="http://www.w3.org/2000/svg" viewBox="0 0 512 512">
  <defs>
    <style>
      .cls-1 {
        fill: #FD4360;
      }

      .cls-2 {
        fill: #dadada;
      }
    </style>
  </defs>
  <g>
    <path class="cls-2" d="M309.5,442h50c4.14,0,7.5-3.36,7.5-7.5V202.5c0-12.41-10.09-22.5-22.5-22.5h-20c-12.41,0-22.5,10.09-22.5,22.5v232c0,4.14,3.36,7.5,7.5,7.5Zm7.5-239.5c0-4.14,3.36-7.5,7.5-7.5h20c4.14,0,7.5,3.36,7.5,7.5v224.5h-35V202.5Z"/>
    <path class="cls-2" d="M376.28,104.79l25.72-6.27V434.5c0,4.14,3.36,7.5,7.5,7.5h50c4.14,0,7.5-3.36,7.5-7.5V98.52l25.72,6.27c2.85,.69,5.85-.34,7.66-2.64,1.82-2.3,2.12-5.46,.79-8.07l-39.84-77.68c-5.19-10.11-15.47-16.4-26.84-16.4s-21.65,6.28-26.84,16.4l-39.84,77.68c-1.34,2.61-1.03,5.76,.79,8.07,1.82,2.3,4.81,3.33,7.66,2.64Zm44.73-81.54c2.61-5.08,7.78-8.24,13.49-8.24s10.88,3.16,13.49,8.24l32.35,63.09-19.07-4.65c-2.24-.54-4.6-.03-6.41,1.39-1.81,1.42-2.87,3.6-2.87,5.9V427h-35V88.97c0-2.3-1.06-4.48-2.87-5.9-1.81-1.42-4.17-1.93-6.41-1.39l-19.07,4.65,32.35-63.09Z"/>
    <path class="cls-2" d="M504.5,457H239.41c-2.44-15.72-12.56-30.13-29.11-41.17-12.74-8.49-28.35-14.3-45.3-17.04v-60.36c.61,0,1.24,.03,1.84,.03,39.29,0,62.02-14.38,74.4-26.99,14.79-15.07,18.44-30.98,18.59-31.65,.79-3.58-1.12-7.21-4.53-8.58-42.96-17.27-72.88-2.73-90.3,12.28v-27.16c0-4.14-3.36-7.5-7.5-7.5s-7.5,3.36-7.5,7.5v140.83c-2.49-.13-4.98-.21-7.5-.21s-5.01,.08-7.5,.21v-140.83c0-4.14-3.36-7.5-7.5-7.5s-7.5,3.36-7.5,7.5v27.16c-17.42-15.01-47.34-29.56-90.3-12.28-3.4,1.37-5.32,5-4.53,8.58,.15,.67,3.79,16.57,18.59,31.65,12.37,12.61,35.1,26.99,74.4,26.99,.6,0,1.23-.02,1.84-.03v60.36c-16.95,2.74-32.56,8.55-45.3,17.04-16.55,11.03-26.67,25.44-29.11,41.17H7.5c-4.14,0-7.5,3.36-7.5,7.5v25c0,12.41,10.09,22.5,22.5,22.5H489.5c12.41,0,22.5-10.09,22.5-22.5v-25c0-4.14-3.36-7.5-7.5-7.5ZM243.03,282.74c-5.59,12.94-24.07,41.42-78.03,40.71v-18.49c12.35-15.19,37.5-35.47,78.03-22.22Zm-201.06,0c40.54-13.25,65.68,7.02,78.03,22.22v18.49c-53.99,.69-72.46-27.79-78.03-40.71Zm41.05,145.58c15.78-10.52,36.9-16.31,59.48-16.31s43.7,5.79,59.48,16.31c12.05,8.04,19.71,18.02,22.16,28.69H60.86c2.45-10.67,10.11-20.65,22.16-28.69Zm413.98,61.19c0,4.14-3.36,7.5-7.5,7.5H22.5c-4.14,0-7.5-3.36-7.5-7.5v-17.5H497v17.5Z"/>
  </g>
  <path class="cls-1" d="M142.5,235c59.28,0,107.5-48.22,107.5-107.5S201.78,20,142.5,20,35,68.22,35,127.5s48.22,107.5,107.5,107.5Zm-20-153.27v-14.23c0-4.14,3.36-7.5,7.5-7.5s7.5,3.36,7.5,7.5v12.5h10v-12.5c0-4.14,3.36-7.5,7.5-7.5s7.5,3.36,7.5,7.5v12.5h4c4.14,0,7.5,3.36,7.5,7.5s-3.36,7.5-7.5,7.5h-34.62c-6.55,0-11.88,5.61-11.88,12.5s5.33,12.5,11.88,12.5h21.23c14.82,0,26.88,12.34,26.88,27.5,0,11.79-7.29,21.86-17.5,25.77v14.23c0,4.14-3.36,7.5-7.5,7.5s-7.5-3.36-7.5-7.5v-12.5h-10v12.5c0,4.14-3.36,7.5-7.5,7.5s-7.5-3.36-7.5-7.5v-12.5h-4c-4.14,0-7.5-3.36-7.5-7.5s3.36-7.5,7.5-7.5h34.62c6.55,0,11.88-5.61,11.88-12.5s-5.33-12.5-11.88-12.5h-21.23c-14.82,0-26.88-12.34-26.88-27.5,0-11.79,7.29-21.86,17.5-25.77Z"/>
</svg>