<?xml version="1.0" encoding="UTF-8"?>
<svg id="OBJECT" xmlns="http://www.w3.org/2000/svg" viewBox="0 0 32 32">
  <defs>
    <style>
      .cls-1 {
        fill: #FD4360;
      }

      .cls-1, .cls-2 {
        stroke-width: 0px;
      }

      .cls-2 {
        fill: #dadada;
      }
    </style>
  </defs>
  <g>
    <path class="cls-2" d="m23.47,1.12c-.33-.17-.72-.15-1.03.05l-2.44,1.63-2.44-1.63c-.34-.22-.77-.22-1.11,0l-2.44,1.63-2.44-1.63c-.34-.22-.77-.22-1.11,0l-2.45,1.63-2.45-1.63c-.31-.21-.7-.22-1.03-.05-.33.17-.53.51-.53.88v26c0,1.65,1.35,3,3,3h15c.55,0,1-.45,1-1s-.45-1-1-1H7c-.55,0-1-.45-1-1V3.87l1.45.96c.34.22.77.22,1.11,0l2.45-1.63,2.45,1.63c.34.22.77.22,1.11,0l2.44-1.63,2.44,1.63c.34.23.78.22,1.11,0l1.44-.96v5.13c0,.55.45,1,1,1s1-.45,1-1V2c0-.37-.2-.71-.53-.88Z"/>
    <path class="cls-2" d="m7.5,25c0,.55.45,1,1,1h11c.55,0,1-.45,1-1s-.45-1-1-1h-11c-.55,0-1,.45-1,1Z"/>
    <path class="cls-2" d="m15,18h-4c-.55,0-1,.45-1,1s.45,1,1,1h2v1c0,.55.45,1,1,1s1-.45,1-1v-1c1.65,0,3-1.35,3-3s-1.35-3-3-3h-2c-.55,0-1-.45-1-1s.45-1,1-1h4c.55,0,1-.45,1-1s-.45-1-1-1h-2v-1c0-.55-.45-1-1-1s-1,.45-1,1v1c-1.65,0-3,1.35-3,3s1.35,3,3,3h2c.55,0,1,.45,1,1s-.45,1-1,1Z"/>
  </g>
  <rect class="cls-1" x="24" y="12" width="4" height="4"/>
  <path class="cls-1" d="m24,29c0,1.1.9,2,2,2s2-.9,2-2v-11h-4v11Z"/>
</svg>