<?xml version="1.0" encoding="UTF-8"?>
<svg id="OBJECT" xmlns="http://www.w3.org/2000/svg" viewBox="0 0 32 32">
  <defs>
    <style>
      .cls-1 {
        fill: #FD4360;
      }

      .cls-1, .cls-2 {
        stroke-width: 0px;
      }

      .cls-2 {
        fill: #dadada;
      }
    </style>
  </defs>
  <path class="cls-1" d="m23.5,8.5c-4.14,0-7.5,3.36-7.5,7.5s3.36,7.5,7.5,7.5,7.5-3.36,7.5-7.5-3.36-7.5-7.5-7.5Zm-.69,6.5h1.39c1.32,0,2.39,1.07,2.39,2.39,0,1.21-.91,2.21-2.08,2.36v.42c0,.55-.45,1-1,1s-1-.45-1-1v-.39h-1.08c-.55,0-1-.45-1-1s.45-1,1-1h2.78c.21,0,.39-.17.39-.39s-.17-.39-.39-.39h-1.39c-1.32,0-2.39-1.07-2.39-2.39,0-1.21.91-2.21,2.08-2.36v-.42c0-.55.45-1,1-1s1,.45,1,1v.39h1.08c.55,0,1,.45,1,1s-.45,1-1,1h-2.78c-.21,0-.39.17-.39.39s.17.39.39.39Z"/>
  <g>
    <path class="cls-2" d="m11,9h4c.55,0,1-.45,1-1s-.45-1-1-1h-4c-.55,0-1,.45-1,1s.45,1,1,1Z"/>
    <path class="cls-2" d="m11,15h3c.55,0,1-.45,1-1s-.45-1-1-1h-3c-.55,0-1,.45-1,1s.45,1,1,1Z"/>
    <path class="cls-2" d="m16,20c0-.55-.45-1-1-1h-4c-.55,0-1,.45-1,1s.45,1,1,1h4c.55,0,1-.45,1-1Z"/>
    <path class="cls-2" d="m15,27h3c.55,0,1-.45,1-1s-.45-1-1-1h-3c-.55,0-1,.45-1,1s.45,1,1,1Z"/>
    <path class="cls-2" d="m24,25.35c-.55,0-1,.45-1,1v2.65h-15V6.52c0-.55-.45-1-1-1s-1,.45-1,1v4.48h-3v-5c0-1.65,1.35-3,3-3h14c1.65,0,3,1.35,3,3,0,.55.45,1,1,1s1-.45,1-1c0-2.76-2.24-5-5-5H6C3.24,1,1,3.24,1,6v6c0,.55.45,1,1,1h4v17c0,.55.45,1,1,1h17c.55,0,1-.45,1-1v-3.65c0-.55-.45-1-1-1Z"/>
    <path class="cls-2" d="m11,25c-.55,0-1,.45-1,1s.45,1,1,1h1c.55,0,1-.45,1-1s-.45-1-1-1h-1Z"/>
  </g>
</svg>