<?xml version="1.0" encoding="UTF-8"?>
<svg id="OBJECT" xmlns="http://www.w3.org/2000/svg" viewBox="0 0 32 32">
  <defs>
    <style>
      .cls-1 {
        fill: #FD4360;
      }

      .cls-1, .cls-2 {
        stroke-width: 0px;
      }

      .cls-2 {
        fill: #dadada;
      }
    </style>
  </defs>
  <g>
    <path class="cls-2" d="m21.02,1H5c-.55,0-1,.45-1,1v22.72c0,3.46,2.77,6.28,6.18,6.28h10.83c.55,0,1-.45,1-1v-3.05s0,0,0,0V2c0-.55-.45-1-1-1Zm-1,25.95v2.05h-9.84c-2.3,0-4.18-1.92-4.18-4.28V3h14.02v23.95Z"/>
    <path class="cls-2" d="m9.01,19h8c.55,0,1-.45,1-1s-.45-1-1-1h-8c-.55,0-1,.45-1,1s.45,1,1,1Z"/>
    <path class="cls-2" d="m9.01,23h8c.55,0,1-.45,1-1s-.45-1-1-1h-8c-.55,0-1,.45-1,1s.45,1,1,1Z"/>
    <path class="cls-2" d="m13.63,11.5h-2.5c-.55,0-1,.45-1,1s.45,1,1,1h.88v.25c0,.55.45,1,1,1s1-.45,1-1v-.29c1.06-.18,1.88-1.1,1.88-2.21,0-1.24-1.01-2.25-2.25-2.25h-1.25c-.14,0-.25-.11-.25-.25s.11-.25.25-.25h2.5c.55,0,1-.45,1-1s-.45-1-1-1h-.88v-.25c0-.55-.45-1-1-1s-1,.45-1,1v.29c-1.06.18-1.88,1.1-1.88,2.21,0,1.24,1.01,2.25,2.25,2.25h1.25c.14,0,.25.11.25.25s-.11.25-.25.25Z"/>
  </g>
  <path class="cls-1" d="m23,19.36v9.07c0,1.42,1.12,2.57,2.5,2.57s2.5-1.15,2.5-2.57v-9.07h-5Z"/>
</svg>