<?xml version="1.0" encoding="UTF-8"?>
<svg id="OBJECT" xmlns="http://www.w3.org/2000/svg" viewBox="0 0 32 32">
  <defs>
    <style>
      .cls-1 {
        fill: #FD4360;
      }

      .cls-1, .cls-2 {
        stroke-width: 0px;
      }

      .cls-2 {
        fill: #dadada;
      }
    </style>
  </defs>
  <g>
    <path class="cls-2" d="m24,5H8c-1.65,0-3,1.35-3,3v16c0,1.65,1.35,3,3,3h16c1.65,0,3-1.35,3-3V8c0-1.65-1.35-3-3-3Zm1,19c0,.55-.45,1-1,1H8c-.55,0-1-.45-1-1V8c0-.55.45-1,1-1h16c.55,0,1,.45,1,1v16Z"/>
    <path class="cls-2" d="m23,12.25c-.55,0-1,.45-1,1v8.75c0,.55.45,1,1,1s1-.45,1-1v-8.75c0-.55-.45-1-1-1Z"/>
    <path class="cls-2" d="m19.85,12.25c-.55,0-1,.45-1,1v7.25c0,.28-.22.5-.5.5h-.86v-11c0-.55-.45-1-1-1s-1,.45-1,1v11h-.86c-.28,0-.5-.22-.5-.5v-5.75c0-1.38-1.12-2.5-2.5-2.5h-1.13c-1.38,0-2.5,1.12-2.5,2.5v1.92c0,1.38,1.12,2.5,2.5,2.5h1.63v1.33c0,1.38,1.12,2.5,2.5,2.5h3.73c1.38,0,2.5-1.12,2.5-2.5v-7.25c0-.55-.45-1-1-1Zm-7.73,4.92h-1.63c-.28,0-.5-.22-.5-.5v-1.92c0-.28.22-.5.5-.5h1.13c.28,0,.5.22.5.5v2.42Z"/>
  </g>
  <g>
    <path class="cls-1" d="m1.88,18.12l1.12,1.12v-6.49l-1.12,1.12c-1.17,1.17-1.17,3.08,0,4.25Z"/>
    <path class="cls-1" d="m13.87,1.85l-1.12,1.12h6.49l-1.12-1.12c-1.14-1.14-3.12-1.14-4.25,0Z"/>
    <path class="cls-1" d="m13.87,30.12h0c.57.57,1.32.88,2.13.88s1.56-.31,2.13-.88l1.12-1.12h-6.49l1.12,1.12Z"/>
    <path class="cls-1" d="m30.12,13.88l-1.12-1.12v6.49l1.12-1.12c1.17-1.17,1.17-3.08,0-4.25Z"/>
  </g>
</svg>