<?xml version="1.0" encoding="UTF-8"?>
<svg id="OBJECT" xmlns="http://www.w3.org/2000/svg" viewBox="0 0 32 32">
  <defs>
    <style>
      .cls-1 {
        fill: #FD4360;
      }

      .cls-1, .cls-2 {
        stroke-width: 0px;
      }

      .cls-2 {
        fill: #dadada;
      }
    </style>
  </defs>
  <g>
    <path class="cls-2" d="m24.71,5.29c-.19-.19-.44-.29-.71-.29-.01,0-.04,0-.05,0-5.74,0-6.94-3.17-7-3.32-.14-.41-.52-.68-.95-.68s-.82.28-.95.69c-.01.03-1.14,3.31-7,3.31-.02,0-.04,0-.05,0-.26,0-.52.1-.71.29-.19.19-.29.44-.29.71v24c0,.55.45,1,1,1h16c.55,0,1-.45,1-1V6c0-.27-.11-.52-.29-.71Zm-15.71,14.63c1.85.25,5.83,1.24,8.02,5.07h-8.02v-5.07Zm10.25,5.07c-.5-1.11-1.11-2.06-1.79-2.86,2-1.52,4.26-2.04,5.54-2.21v5.07h-3.75Zm-3.25-21.09c1.04,1.26,3.1,2.84,7,3.06v10.94c-1.5.17-4.44.76-7,2.83-2.55-2.07-5.49-2.67-7-2.83V6.97c3.9-.22,5.96-1.8,7-3.06Zm-7,25.09v-2h14v2h-14Z"/>
    <path class="cls-2" d="m16.02,16.5c2.37,0,4.35-1.7,4.71-4.04.05-.32-.06-.63-.28-.86-.23-.23-.54-.33-.86-.28-.14.02-.28.04-.43.04-1.53,0-2.77-1.24-2.77-2.77,0-.15.02-.29.04-.43.05-.31-.06-.63-.28-.86-.23-.23-.54-.33-.86-.28-2.34.36-4.04,2.34-4.04,4.71,0,2.63,2.14,4.77,4.77,4.77Zm-1.55-7.07c.35,1.95,1.9,3.5,3.85,3.85-.5.75-1.35,1.22-2.3,1.22-1.53,0-2.77-1.24-2.77-2.77,0-.94.48-1.79,1.22-2.29Z"/>
  </g>
  <g>
    <rect class="cls-1" x="1" y="9" width="4" height="22"/>
    <rect class="cls-1" x="27" y="9" width="4" height="22"/>
  </g>
</svg>