<?xml version="1.0" encoding="UTF-8"?>
<svg id="OBJECT" xmlns="http://www.w3.org/2000/svg" viewBox="0 0 32 32">
  <defs>
    <style>
      .cls-1 {
        fill: #FD4360;
      }

      .cls-1, .cls-2 {
        stroke-width: 0px;
      }

      .cls-2 {
        fill: #dadada;
      }
    </style>
  </defs>
  <g>
    <path class="cls-2" d="m27,24h-.5v-1.97c0-.55-.45-1-1-1s-1,.45-1,1v1.97H4.5v-9.5h10.5c.55,0,1-.45,1-1s-.45-1-1-1H4.5V3.5c0-.28.22-.5.5-.5h19c.28,0,.5.22.5.5v1.47c0,.55.45,1,1,1s1-.45,1-1v-1.47c0-1.38-1.12-2.5-2.5-2.5H5c-1.38,0-2.5,1.12-2.5,2.5v20.5h-.5c-.55,0-1,.45-1,1v3.5c0,1.38,1.12,2.5,2.5,2.5h22c1.38,0,2.5-1.12,2.5-2.5v-3.5c0-.55-.45-1-1-1Zm-1,4.5c0,.28-.22.5-.5.5H3.5c-.28,0-.5-.22-.5-.5v-2.5h23v2.5Z"/>
    <path class="cls-2" d="m6.5,21c-.55,0-1,.45-1,1s.45,1,1,1h.5c.55,0,1-.45,1-1s-.45-1-1-1h-.5Z"/>
    <path class="cls-2" d="m10.5,21c-.55,0-1,.45-1,1s.45,1,1,1h.5c.55,0,1-.45,1-1s-.45-1-1-1h-.5Z"/>
  </g>
  <path class="cls-1" d="m24,6.5c-3.86,0-7,3.14-7,7s3.14,7,7,7,7-3.14,7-7-3.14-7-7-7Zm.19,11.11h-.39c-.55,0-1-.45-1-1s.45-1,1-1h.39c.55,0,1,.45,1,1s-.45,1-1,1Zm2.26-2.49c-.19.19-.45.29-.7.29s-.52-.1-.71-.3c-.56-.56-1.52-.56-2.08,0-.39.39-1.02.4-1.41,0-.39-.39-.4-1.02,0-1.41,1.31-1.33,3.61-1.33,4.92,0,.39.39.39,1.03,0,1.41Zm1.75-2.56c-.19.19-.45.29-.7.29s-.52-.1-.71-.3c-1.49-1.51-4.09-1.51-5.58,0-.39.39-1.02.4-1.41,0-.39-.39-.4-1.02,0-1.41,1.12-1.14,2.62-1.76,4.21-1.76s3.09.63,4.21,1.76c.39.39.39,1.03,0,1.41Z"/>
</svg>