<?xml version="1.0" encoding="UTF-8"?>
<svg id="OBJECT" xmlns="http://www.w3.org/2000/svg" viewBox="0 0 32 32">
  <defs>
    <style>
      .cls-1 {
        fill: #FD4360;
      }

      .cls-1, .cls-2 {
        stroke-width: 0px;
      }

      .cls-2 {
        fill: #dadada;
      }
    </style>
  </defs>
  <path class="cls-1" d="m8.5,31h15c.83,0,1.5-.67,1.5-1.5v-1.5H7v1.5c0,.83.67,1.5,1.5,1.5Z"/>
  <g>
    <path class="cls-2" d="m26.99,1H5.01c-2.2,0-4,1.79-4,4v12.27c0,.55.45,1,1,1h4.99v6.73c0,.55.45,1,1,1s1-.45,1-1v-15c0-.55-.45-1-1-1s-1,.45-1,1v2.37h-3.99v-7.37c0-1.1.9-2,2-2h4.46c.48,3.17,3.22,5.61,6.53,5.61s6.04-2.44,6.53-5.61h4.46c1.1,0,2,.9,2,2v7.37h-3.99v-2.37c0-.55-.45-1-1-1s-1,.45-1,1v15c0,.55.45,1,1,1s1-.45,1-1v-6.73h4.99c.55,0,1-.45,1-1V5c0-2.21-1.79-4-4-4ZM7.01,14.37v1.9h-3.99v-1.9h3.99Zm8.99-7.76c-2.2,0-4.03-1.55-4.49-3.61h8.99c-.46,2.06-2.3,3.61-4.49,3.61Zm8.99,9.66v-1.9h3.99v1.9h-3.99Z"/>
    <path class="cls-2" d="m20,15h-7.99c-.55,0-1,.45-1,1s.45,1,1,1h7.99c.55,0,1-.45,1-1s-.45-1-1-1Z"/>
    <path class="cls-2" d="m15,18h-3c-.55,0-1,.45-1,1s.45,1,1,1h3c.55,0,1-.45,1-1s-.45-1-1-1Z"/>
    <path class="cls-2" d="m20,18h-1.5c-.55,0-1,.45-1,1s.45,1,1,1h1.5c.55,0,1-.45,1-1s-.45-1-1-1Z"/>
  </g>
</svg>