<?xml version="1.0" encoding="UTF-8"?>
<svg id="OBJECT" xmlns="http://www.w3.org/2000/svg" viewBox="0 0 32 32">
  <defs>
    <style>
      .cls-1 {
        fill: #FD4360;
      }

      .cls-1, .cls-2 {
        stroke-width: 0px;
      }

      .cls-2 {
        fill: #dadada;
      }
    </style>
  </defs>
  <g>
    <path class="cls-2" d="m26.25,3.04l-2.1-1.8c-.37-.32-.93-.32-1.3,0l-2.1,1.8c-1.11.95-1.75,2.33-1.75,3.8v4.16h-6v-4.16c0-1.46-.64-2.85-1.75-3.8l-2.1-1.8c-.37-.32-.93-.32-1.3,0l-2.1,1.8c-1.11.95-1.75,2.33-1.75,3.8v13.16c0,.55.45,1,1,1s1-.45,1-1V6.84c0-.88.38-1.71,1.05-2.28l1.45-1.25,1.45,1.25c.67.57,1.05,1.4,1.05,2.28v13.16c0,.55.45,1,1,1s1-.45,1-1v-3h2v3c0,.55.45,1,1,1s1-.45,1-1v-3h2v3c0,.55.45,1,1,1s1-.45,1-1V6.84c0-.88.38-1.71,1.05-2.28l1.45-1.25,1.45,1.25c.67.57,1.05,1.4,1.05,2.28v13.16c0,.55.45,1,1,1s1-.45,1-1V6.84c0-1.46-.64-2.85-1.75-3.8Zm-13.25,11.96v-2h6v2h-6Z"/>
    <path class="cls-2" d="m23.5,10.5c-.55,0-1,.45-1,1v6.5c0,.55.45,1,1,1s1-.45,1-1v-6.5c0-.55-.45-1-1-1Z"/>
    <path class="cls-2" d="m23.5,6.5c-.55,0-1,.45-1,1v.5c0,.55.45,1,1,1s1-.45,1-1v-.5c0-.55-.45-1-1-1Z"/>
    <path class="cls-2" d="m8.5,10.5c-.55,0-1,.45-1,1v6.5c0,.55.45,1,1,1s1-.45,1-1v-6.5c0-.55-.45-1-1-1Z"/>
    <path class="cls-2" d="m8.5,6.5c-.55,0-1,.45-1,1v.5c0,.55.45,1,1,1s1-.45,1-1v-.5c0-.55-.45-1-1-1Z"/>
  </g>
  <g>
    <rect class="cls-1" x="20.5" y="27" width="6" height="4"/>
    <rect class="cls-1" x="19" y="23" width="9" height="2"/>
    <rect class="cls-1" x="5.5" y="27" width="6" height="4"/>
    <rect class="cls-1" x="4" y="23" width="9" height="2"/>
  </g>
</svg>