<?xml version="1.0" encoding="UTF-8"?>
<svg id="OBJECT" xmlns="http://www.w3.org/2000/svg" viewBox="0 0 512 512">
  <defs>
    <style>
      .cls-1 {
        fill: #FD4360;
      }

      .cls-2 {
        fill: #dadada;
      }
    </style>
  </defs>
  <g>
    <path class="cls-2" d="M504.5,260h-7.5V62.5c0-34.46-28.04-62.5-62.5-62.5s-62.5,28.04-62.5,62.5v71h-63.5v-7.5c0-15.16-12.34-27.5-27.5-27.5h-50c-15.16,0-27.5,12.34-27.5,27.5v7.5h-63.5V62.5C140,28.04,111.96,0,77.5,0S15,28.04,15,62.5v197.5H7.5c-4.14,0-7.5,3.36-7.5,7.5s3.36,7.5,7.5,7.5h7.5v32.5c0,4.14,3.36,7.5,7.5,7.5h110c4.14,0,7.5-3.36,7.5-7.5v-32.5h7.5c4.14,0,7.5-3.36,7.5-7.5s-3.36-7.5-7.5-7.5h-7.5v-61.5h31v119c0,4.14,3.36,7.5,7.5,7.5s7.5-3.36,7.5-7.5v-119h17.5v7.5c0,15.16,12.34,27.5,27.5,27.5h50c15.16,0,27.5-12.34,27.5-27.5v-7.5h17.5v119c0,4.14,3.36,7.5,7.5,7.5s7.5-3.36,7.5-7.5v-119h31v61.5h-7.5c-4.14,0-7.5,3.36-7.5,7.5s3.36,7.5,7.5,7.5h7.5v32.5c0,4.14,3.36,7.5,7.5,7.5h110c4.14,0,7.5-3.36,7.5-7.5v-32.5h7.5c4.14,0,7.5-3.36,7.5-7.5s-3.36-7.5-7.5-7.5Zm-379.5,40H30v-25H125v25Zm-95-40V62.5c0-26.19,21.31-47.5,47.5-47.5s47.5,21.31,47.5,47.5v197.5H30Zm110-76.5v-35h63.5v35h-63.5Zm153.5,22.5c0,6.89-5.61,12.5-12.5,12.5h-50c-6.89,0-12.5-5.61-12.5-12.5V126c0-6.89,5.61-12.5,12.5-12.5h50c6.89,0,12.5,5.61,12.5,12.5v80Zm15-22.5v-35h63.5v35h-63.5Zm78.5-121c0-26.19,21.31-47.5,47.5-47.5s47.5,21.31,47.5,47.5v197.5h-95V62.5Zm95,237.5h-95v-25h95v25Z"/>
    <path class="cls-2" d="M437,120h-5c-12.41,0-22.5,10.09-22.5,22.5v70c0,12.41,10.09,22.5,22.5,22.5h5c12.41,0,22.5-10.09,22.5-22.5v-70c0-12.41-10.09-22.5-22.5-22.5Zm7.5,92.5c0,4.14-3.36,7.5-7.5,7.5h-5c-4.14,0-7.5-3.36-7.5-7.5v-70c0-4.14,3.36-7.5,7.5-7.5h5c4.14,0,7.5,3.36,7.5,7.5v70Z"/>
    <path class="cls-2" d="M437,50h-5c-12.41,0-22.5,10.09-22.5,22.5v10c0,12.41,10.09,22.5,22.5,22.5h5c12.41,0,22.5-10.09,22.5-22.5v-10c0-12.41-10.09-22.5-22.5-22.5Zm7.5,32.5c0,4.14-3.36,7.5-7.5,7.5h-5c-4.14,0-7.5-3.36-7.5-7.5v-10c0-4.14,3.36-7.5,7.5-7.5h5c4.14,0,7.5,3.36,7.5,7.5v10Z"/>
    <path class="cls-2" d="M80,120h-5c-12.41,0-22.5,10.09-22.5,22.5v70c0,12.41,10.09,22.5,22.5,22.5h5c12.41,0,22.5-10.09,22.5-22.5v-70c0-12.41-10.09-22.5-22.5-22.5Zm7.5,92.5c0,4.14-3.36,7.5-7.5,7.5h-5c-4.14,0-7.5-3.36-7.5-7.5v-70c0-4.14,3.36-7.5,7.5-7.5h5c4.14,0,7.5,3.36,7.5,7.5v70Z"/>
    <path class="cls-2" d="M80,50h-5c-12.41,0-22.5,10.09-22.5,22.5v10c0,12.41,10.09,22.5,22.5,22.5h5c12.41,0,22.5-10.09,22.5-22.5v-10c0-12.41-10.09-22.5-22.5-22.5Zm7.5,32.5c0,4.14-3.36,7.5-7.5,7.5h-5c-4.14,0-7.5-3.36-7.5-7.5v-10c0-4.14,3.36-7.5,7.5-7.5h5c4.14,0,7.5,3.36,7.5,7.5v10Z"/>
    <path class="cls-2" d="M256,123.5c-15.16,0-27.5,12.34-27.5,27.5v30c0,15.16,12.34,27.5,27.5,27.5s27.5-12.34,27.5-27.5v-30c0-15.16-12.34-27.5-27.5-27.5Zm0,15c6.89,0,12.5,5.61,12.5,12.5v7.5h-25v-7.5c0-6.89,5.61-12.5,12.5-12.5Zm0,55c-6.89,0-12.5-5.61-12.5-12.5v-7.5h25v7.5c0,6.89-5.61,12.5-12.5,12.5Z"/>
    <path class="cls-2" d="M333.5,335c-4.14,0-7.5,3.36-7.5,7.5v5c0,4.14,3.36,7.5,7.5,7.5s7.5-3.36,7.5-7.5v-5c0-4.14-3.36-7.5-7.5-7.5Z"/>
    <path class="cls-2" d="M178.5,335c-4.14,0-7.5,3.36-7.5,7.5v5c0,4.14,3.36,7.5,7.5,7.5s7.5-3.36,7.5-7.5v-5c0-4.14-3.36-7.5-7.5-7.5Z"/>
  </g>
  <g>
    <path class="cls-1" d="M455.26,412h-41.52c-2.69,0-5.11,1.66-6.08,4.17-3.83,9.9-5.77,20.44-5.77,31.34,0,25.2,10.67,48.78,28.54,63.06,1.19,.95,2.63,1.43,4.07,1.43s2.88-.48,4.07-1.43c17.87-14.29,28.54-37.86,28.54-63.06,0-10.89-1.94-21.44-5.77-31.34-.97-2.51-3.39-4.17-6.08-4.17Z"/>
    <path class="cls-1" d="M481.9,381.27l-8.54-51.27h-77.71l-2.5,15h41.35c4.14,0,7.5,3.36,7.5,7.5s-3.36,7.5-7.5,7.5h-43.85l-3.54,21.27c-.36,2.17,.25,4.4,1.67,6.08,1.42,1.68,3.52,2.65,5.72,2.65h80c2.21,0,4.3-.97,5.72-2.65,1.42-1.68,2.04-3.91,1.67-6.08Z"/>
    <path class="cls-1" d="M98.26,412H56.74c-2.69,0-5.11,1.66-6.08,4.17-3.83,9.9-5.77,20.44-5.77,31.34,0,25.2,10.67,48.78,28.54,63.06,1.19,.95,2.63,1.43,4.07,1.43s2.88-.48,4.07-1.43c17.87-14.29,28.54-37.86,28.54-63.06,0-10.89-1.94-21.44-5.77-31.34-.97-2.51-3.39-4.17-6.08-4.17Z"/>
    <path class="cls-1" d="M116.35,330H38.65l-2.5,15h41.35c4.14,0,7.5,3.36,7.5,7.5s-3.36,7.5-7.5,7.5H33.65l-3.54,21.27c-.36,2.17,.25,4.4,1.67,6.08,1.42,1.68,3.52,2.65,5.72,2.65H117.5c2.21,0,4.3-.97,5.72-2.65,1.42-1.68,2.04-3.91,1.67-6.08l-8.54-51.27Z"/>
  </g>
</svg>