<?xml version="1.0" encoding="UTF-8"?>
<svg id="OBJECT" xmlns="http://www.w3.org/2000/svg" viewBox="0 0 32 32">
  <defs>
    <style>
      .cls-1 {
        fill: #FD4360;
      }

      .cls-1, .cls-2 {
        stroke-width: 0px;
      }

      .cls-2 {
        fill: #dadada;
      }
    </style>
  </defs>
  <path class="cls-2" d="m29.98,25.03l-6.39-6.39c.9-1.68,1.41-3.6,1.41-5.64,0-6.62-5.38-12-12-12S1,6.38,1,13s5.38,12,12,12c2.04,0,3.96-.51,5.64-1.41l6.39,6.39c.68.68,1.58,1.02,2.47,1.02s1.79-.34,2.47-1.02c1.36-1.36,1.36-3.59,0-4.95Zm-16.98-2.03c-5.51,0-10-4.49-10-10S7.49,3,13,3s10,4.49,10,10-4.49,10-10,10Zm15.56,5.56c-.58.58-1.54.58-2.12,0l-6.09-6.09c.79-.62,1.51-1.33,2.12-2.12l6.09,6.09c.59.59.59,1.54,0,2.12Z"/>
  <path class="cls-1" d="m13,5c-4.41,0-8,3.59-8,8s3.59,8,8,8,8-3.59,8-8-3.59-8-8-8Zm-.65,7h1.3c1.27,0,2.3,1.03,2.3,2.3,0,1.15-.85,2.09-1.94,2.26v.33c0,.55-.45,1-1,1s-1-.45-1-1v-.3h-.94c-.55,0-1-.45-1-1s.45-1,1-1h2.59c.16,0,.3-.13.3-.3s-.13-.3-.3-.3h-1.3c-1.27,0-2.3-1.03-2.3-2.3,0-1.15.85-2.09,1.94-2.26v-.33c0-.55.45-1,1-1s1,.45,1,1v.3h.94c.55,0,1,.45,1,1s-.45,1-1,1h-2.59c-.16,0-.3.13-.3.3s.13.3.3.3Z"/>
</svg>