<?xml version="1.0" encoding="UTF-8"?>
<svg id="OBJECT" xmlns="http://www.w3.org/2000/svg" viewBox="0 0 512 512">
  <defs>
    <style>
      .cls-1 {
        fill: #FD4360;
      }

      .cls-2 {
        fill: #dadada;
      }
    </style>
  </defs>
  <g>
    <path class="cls-2" d="M87.5,137.5h10c12.41,0,22.5-10.09,22.5-22.5v-5c0-12.41-10.09-22.5-22.5-22.5h-10c-12.41,0-22.5,10.09-22.5,22.5v5c0,12.41,10.09,22.5,22.5,22.5Zm-7.5-27.5c0-4.14,3.36-7.5,7.5-7.5h10c4.14,0,7.5,3.36,7.5,7.5v5c0,4.14-3.36,7.5-7.5,7.5h-10c-4.14,0-7.5-3.36-7.5-7.5v-5Z"/>
    <path class="cls-2" d="M157.5,137.5h80c12.41,0,22.5-10.09,22.5-22.5v-5c0-12.41-10.09-22.5-22.5-22.5h-80c-12.41,0-22.5,10.09-22.5,22.5v5c0,12.41,10.09,22.5,22.5,22.5Zm-7.5-27.5c0-4.14,3.36-7.5,7.5-7.5h80c4.14,0,7.5,3.36,7.5,7.5v5c0,4.14-3.36,7.5-7.5,7.5h-80c-4.14,0-7.5-3.36-7.5-7.5v-5Z"/>
    <path class="cls-2" d="M297.5,137.5h10c12.41,0,22.5-10.09,22.5-22.5v-5c0-12.41-10.09-22.5-22.5-22.5h-10c-12.41,0-22.5,10.09-22.5,22.5v5c0,12.41,10.09,22.5,22.5,22.5Zm-7.5-27.5c0-4.14,3.36-7.5,7.5-7.5h10c4.14,0,7.5,3.36,7.5,7.5v5c0,4.14-3.36,7.5-7.5,7.5h-10c-4.14,0-7.5-3.36-7.5-7.5v-5Z"/>
    <path class="cls-2" d="M380,247.01v-73.49l6.9-5.75c5.14-4.29,8.1-10.59,8.1-17.28V72.5c0-12.41-10.09-22.5-22.5-22.5h-77.5V22.5c0-12.41-10.09-22.5-22.5-22.5H122.5c-12.41,0-22.5,10.09-22.5,22.5v27.5H22.5C10.09,50,0,60.09,0,72.5v77.97c0,6.7,2.95,13,8.1,17.28l6.9,5.75v113.99c0,15.16,12.34,27.5,27.5,27.5h221.3c-10.69,19.1-16.8,41.1-16.8,64.5,0,73.06,59.44,132.5,132.5,132.5s132.5-59.44,132.5-132.5-59.17-132.22-132-132.49ZM272.5,15c4.14,0,7.5,3.36,7.5,7.5v27.5h-15V15h7.5Zm-127.5,35V15h105V50h-105Zm-30-27.5c0-4.14,3.36-7.5,7.5-7.5h7.5V50h-15V22.5ZM15,72.5c0-4.14,3.36-7.5,7.5-7.5H372.5c4.14,0,7.5,3.36,7.5,7.5v77.97c0,2.23-.98,4.33-2.7,5.76h0l-50.43,42.03c-1.34,1.12-3.05,1.74-4.8,1.74H72.93c-1.75,0-3.46-.62-4.8-1.74l-50.43-42.03c-1.72-1.43-2.7-3.53-2.7-5.76V72.5ZM242.5,215h20v17.5c0,4.14-3.36,7.5-7.5,7.5h-5c-4.14,0-7.5-3.36-7.5-7.5v-17.5Zm-110,0h20v17.5c0,4.14-3.36,7.5-7.5,7.5h-5c-4.14,0-7.5-3.36-7.5-7.5v-17.5Zm-90,85c-6.89,0-12.5-5.61-12.5-12.5v-101.49l28.53,23.77c4.04,3.36,9.15,5.21,14.4,5.21h44.57v17.5c0,12.41,10.09,22.5,22.5,22.5h5c12.41,0,22.5-10.09,22.5-22.5v-17.5h60v17.5c0,12.41,10.09,22.5,22.5,22.5h5c12.41,0,22.5-10.09,22.5-22.5v-17.5h44.57c5.25,0,10.37-1.85,14.4-5.21l28.53-23.77v61.78c-37.29,4.08-69.98,23.68-91.43,52.2H42.5Zm337,197c-64.79,0-117.5-52.71-117.5-117.5s52.71-117.5,117.5-117.5,117.5,52.71,117.5,117.5-52.71,117.5-117.5,117.5Z"/>
  </g>
  <g>
    <circle class="cls-1" cx="379.5" cy="352" r="27.5"/>
    <path class="cls-1" d="M301.35,407.11c11.28-14.11,26.26-24.93,43.01-31.24-4.64-6.81-7.36-15.03-7.36-23.87,0-23.43,19.07-42.5,42.5-42.5s42.5,19.07,42.5,42.5c0,8.84-2.72,17.06-7.36,23.87,16.76,6.31,31.74,17.14,43.01,31.24,4.32,5.41,8.04,11.24,11.13,17.39,6.85-13.53,10.71-28.82,10.71-45,0-55.14-44.86-100-100-100s-100,44.86-100,100c0,16.18,3.87,31.47,10.71,45,3.09-6.14,6.81-11.98,11.13-17.39Z"/>
    <path class="cls-1" d="M402.56,387.67c-6.65,4.31-14.56,6.83-23.06,6.83s-16.41-2.52-23.06-6.83c-26.72,7.48-47.4,27.16-56.64,52.15,18.28,24.09,47.2,39.67,79.7,39.67s61.42-15.59,79.7-39.67c-9.24-24.99-29.92-44.67-56.64-52.15Z"/>
  </g>
</svg>