<?xml version="1.0" encoding="UTF-8"?>
<svg id="OBJECT" xmlns="http://www.w3.org/2000/svg" viewBox="0 0 32 32">
  <defs>
    <style>
      .cls-1 {
        fill: #FD4360;
      }

      .cls-1, .cls-2 {
        stroke-width: 0px;
      }

      .cls-2 {
        fill: #dadada;
      }
    </style>
  </defs>
  <g>
    <path class="cls-2" d="m28,1H2c-.55,0-1,.45-1,1v26c0,1.65,1.35,3,3,3h21c.55,0,1-.45,1-1s-.45-1-1-1H4c-.55,0-1-.45-1-1V3h24v10c0,.55.45,1,1,1s1-.45,1-1V2c0-.55-.45-1-1-1Z"/>
    <path class="cls-2" d="m23,17h-14c-.55,0-1,.45-1,1s.45,1,1,1h14c.55,0,1-.45,1-1s-.45-1-1-1Z"/>
    <path class="cls-2" d="m5,19h1c.55,0,1-.45,1-1s-.45-1-1-1h-1c-.55,0-1,.45-1,1s.45,1,1,1Z"/>
    <path class="cls-2" d="m23,21H5c-.55,0-1,.45-1,1s.45,1,1,1h18c.55,0,1-.45,1-1s-.45-1-1-1Z"/>
    <path class="cls-2" d="m23,25H5c-.55,0-1,.45-1,1s.45,1,1,1h18c.55,0,1-.45,1-1s-.45-1-1-1Z"/>
    <path class="cls-2" d="m5,10c-.55,0-1,.45-1,1v1.5c0,1.38,1.12,2.5,2.5,2.5h1c1.38,0,2.5-1.12,2.5-2.5v-6.5c0-.55-.45-1-1-1h-2c-.55,0-1,.45-1,1s.45,1,1,1h1v5.5c0,.28-.22.5-.5.5h-1c-.28,0-.5-.22-.5-.5v-1.5c0-.55-.45-1-1-1Z"/>
    <path class="cls-2" d="m14.5,15c1.38,0,2.5-1.12,2.5-2.5v-5c0-1.38-1.12-2.5-2.5-2.5h-1c-1.38,0-2.5,1.12-2.5,2.5v5c0,1.38,1.12,2.5,2.5,2.5h1Zm-1.5-2.5v-5c0-.28.22-.5.5-.5h1c.28,0,.5.22.5.5v5c0,.28-.22.5-.5.5h-1c-.28,0-.5-.22-.5-.5Z"/>
    <path class="cls-2" d="m21,5h-2c-.55,0-1,.45-1,1v8c0,.55.45,1,1,1h2c1.65,0,3-1.35,3-3,0-.77-.29-1.47-.77-2,.48-.53.77-1.23.77-2,0-1.65-1.35-3-3-3Zm0,8h-1v-2h1c.55,0,1,.45,1,1s-.45,1-1,1Zm0-4h-1v-2h1c.55,0,1,.45,1,1s-.45,1-1,1Z"/>
  </g>
  <path class="cls-1" d="m27,15v14c0,1.1.9,2,2,2s2-.9,2-2v-14h-4Z"/>
</svg>