<?xml version="1.0" encoding="UTF-8"?>
<svg id="OBJECT" xmlns="http://www.w3.org/2000/svg" viewBox="0 0 32 32">
  <defs>
    <style>
      .cls-1 {
        fill: #FD4360;
      }

      .cls-2 {
        fill: #dadada;
      }
    </style>
  </defs>
  <g>
    <path class="cls-2" d="M30,9h-4V2c0-.55-.45-1-1-1H2c-.55,0-1,.45-1,1V28.5c0,1.38,1.12,2.5,2.5,2.5H28.5c1.38,0,2.5-1.12,2.5-2.5V10c0-.55-.45-1-1-1Zm-1,2v2h-3v-2h3ZM3.5,29c-.28,0-.5-.22-.5-.5V3H24V28.5c0,.17,.02,.34,.05,.5H3.5Zm25,0h-2c-.28,0-.5-.22-.5-.5V15h3v13.5c0,.28-.22,.5-.5,.5Z"/>
    <path class="cls-2" d="M18,24H9c-.55,0-1,.45-1,1s.45,1,1,1h9c.55,0,1-.45,1-1s-.45-1-1-1Z"/>
    <path class="cls-2" d="M6,24h-.5c-.55,0-1,.45-1,1s.45,1,1,1h.5c.55,0,1-.45,1-1s-.45-1-1-1Z"/>
    <path class="cls-2" d="M21.5,24h-.5c-.55,0-1,.45-1,1s.45,1,1,1h.5c.55,0,1-.45,1-1s-.45-1-1-1Z"/>
  </g>
  <g>
    <rect class="cls-1" x="5" y="7.5" width="3" height="9" rx="1" ry="1"/>
    <path class="cls-1" d="M21.58,5.19c-.26-.19-.6-.24-.9-.14l-3.68,1.23v4.72c0,.55-.45,1-1,1s-1-.45-1-1V6.95l-5,1.67v6.77l1.5,.5v3.11c0,1.65,1.35,3,3,3h1c1.65,0,3-1.35,3-3v-.78l2.18,.73c.1,.04,.21,.05,.32,.05,.21,0,.41-.06,.58-.19,.26-.19,.42-.49,.42-.81V6c0-.32-.15-.62-.42-.81Zm-5.08,13.81c0,.55-.45,1-1,1h-1c-.55,0-1-.45-1-1v-2.45l3,1v1.45Z"/>
  </g>
</svg>