<?xml version="1.0" encoding="UTF-8"?>
<svg id="OBJECT" xmlns="http://www.w3.org/2000/svg" viewBox="0 0 32 32">
  <defs>
    <style>
      .cls-1 {
        fill: #FD4360;
      }

      .cls-1, .cls-2 {
        stroke-width: 0px;
      }

      .cls-2 {
        fill: #dadada;
      }
    </style>
  </defs>
  <g>
    <path class="cls-2" d="m30,14h-5V2c0-.55-.45-1-1-1H2c-.55,0-1,.45-1,1v25c0,2.21,1.79,4,4,4h22c2.21,0,4-1.79,4-4v-12c0-.55-.45-1-1-1Zm-1,2v3h-4v-3h4ZM5,29c-1.1,0-2-.9-2-2V3h20v24c0,.73.2,1.41.54,2H5Zm22,0c-1.1,0-2-.9-2-2v-6h4v6c0,1.1-.9,2-2,2Z"/>
    <path class="cls-2" d="m20.5,18.33h-4c-.55,0-1,.45-1,1s.45,1,1,1h4c.55,0,1-.45,1-1s-.45-1-1-1Z"/>
    <path class="cls-2" d="m20.5,21.67h-4c-.55,0-1,.45-1,1s.45,1,1,1h4c.55,0,1-.45,1-1s-.45-1-1-1Z"/>
    <path class="cls-2" d="m20.5,25h-4c-.55,0-1,.45-1,1s.45,1,1,1h4c.55,0,1-.45,1-1s-.45-1-1-1Z"/>
    <path class="cls-2" d="m20.5,15h-4c-.55,0-1,.45-1,1s.45,1,1,1h4c.55,0,1-.45,1-1s-.45-1-1-1Z"/>
  </g>
  <g>
    <rect class="cls-1" x="4.5" y="14.5" width="9" height="13" rx="1" ry="1"/>
    <rect class="cls-1" x="4.5" y="4.5" width="17" height="8" rx="1" ry="1"/>
  </g>
</svg>