<?xml version="1.0" encoding="UTF-8"?>
<svg id="OBJECT" xmlns="http://www.w3.org/2000/svg" viewBox="0 0 512 512">
  <defs>
    <style>
      .cls-1 {
        fill: #FD4360;
      }

      .cls-2 {
        fill: #dadada;
      }
    </style>
  </defs>
  <g>
    <path class="cls-2" d="M504.5,197h-92.5V7.5c0-4.14-3.36-7.5-7.5-7.5H7.5C3.36,0,0,3.36,0,7.5V464.5c0,26.19,21.31,47.5,47.5,47.5H444.5c37.22,0,67.5-30.28,67.5-67.5V204.5c0-4.14-3.36-7.5-7.5-7.5Zm-107.5,300H47.5c-17.92,0-32.5-14.58-32.5-32.5V15H397V497Zm60-285v232.5c0,6.89-5.61,12.5-12.5,12.5h-32.5V212h45Zm40,232.5c0,28.95-23.55,52.5-52.5,52.5h-32.5v-25h32.5c15.16,0,27.5-12.34,27.5-27.5V212h25v232.5Z"/>
    <path class="cls-2" d="M48.5,140c4.14,0,7.5-3.36,7.5-7.5v-63.49c11.4,18.99,27.75,46.53,40.04,67.31,1.37,2.32,3.85,3.68,6.45,3.68,.66,0,1.32-.09,1.98-.27,3.26-.89,5.52-3.85,5.52-7.23V42.5c0-4.14-3.36-7.5-7.5-7.5s-7.5,3.36-7.5,7.5v62.64c-3.95-6.66-8.39-14.12-12.81-21.55-7.8-13.09-14.04-23.52-18.56-30.99-2.69-4.45-4.8-7.9-6.25-10.25-2.9-4.67-5.4-8.7-11-7.05-3.19,.94-5.38,3.87-5.38,7.19v90c0,4.14,3.36,7.5,7.5,7.5Z"/>
    <path class="cls-2" d="M215.04,133.25c.32,3.23,2.69,5.89,5.86,6.58,.53,.12,1.07,.17,1.6,.17,2.62,0,5.11-1.38,6.47-3.71l20-34.21,21.14,34.35c1.69,2.74,4.93,4.1,8.07,3.38,3.14-.72,5.46-3.36,5.78-6.56l9-90c.41-4.12-2.6-7.8-6.72-8.21-4.11-.41-7.8,2.59-8.21,6.72l-6.79,67.9-16.05-26.08c-1.38-2.24-3.83-3.61-6.47-3.57-2.63,.03-5.06,1.44-6.39,3.71l-14.67,25.09-6.7-67.05c-.41-4.12-4.1-7.13-8.21-6.72-4.12,.41-7.13,4.09-6.72,8.21l9,90Z"/>
    <path class="cls-2" d="M135.5,140h54c4.14,0,7.5-3.36,7.5-7.5s-3.36-7.5-7.5-7.5h-46.5v-30h46.5c4.14,0,7.5-3.36,7.5-7.5s-3.36-7.5-7.5-7.5h-46.5v-30h46.5c4.14,0,7.5-3.36,7.5-7.5s-3.36-7.5-7.5-7.5h-54c-4.14,0-7.5,3.36-7.5,7.5v90c0,4.14,3.36,7.5,7.5,7.5Z"/>
    <path class="cls-2" d="M309.5,125c-4.14,0-7.5,3.36-7.5,7.5s3.36,7.5,7.5,7.5h54c4.14,0,7.5-3.36,7.5-7.5v-45c0-4.14-3.36-7.5-7.5-7.5h-46.5v-30h46.5c4.14,0,7.5-3.36,7.5-7.5s-3.36-7.5-7.5-7.5h-54c-4.14,0-7.5,3.36-7.5,7.5v45c0,4.14,3.36,7.5,7.5,7.5h46.5v30h-46.5Z"/>
  </g>
  <g>
    <path class="cls-1" d="M369.5,275H42.5c-4.14,0-7.5,3.36-7.5,7.5v167c0,15.16,12.34,27.5,27.5,27.5H349.5c15.16,0,27.5-12.34,27.5-27.5v-167c0-4.14-3.36-7.5-7.5-7.5Zm-292,35h10c4.14,0,7.5,3.36,7.5,7.5s-3.36,7.5-7.5,7.5h-10c-4.14,0-7.5-3.36-7.5-7.5s3.36-7.5,7.5-7.5Zm257,132H77.5c-4.14,0-7.5-3.36-7.5-7.5s3.36-7.5,7.5-7.5H334.5c4.14,0,7.5,3.36,7.5,7.5s-3.36,7.5-7.5,7.5Zm-264.5-46.5c0-4.14,3.36-7.5,7.5-7.5h10c4.14,0,7.5,3.36,7.5,7.5s-3.36,7.5-7.5,7.5h-10c-4.14,0-7.5-3.36-7.5-7.5Zm264.5,7.5H117.5c-4.14,0-7.5-3.36-7.5-7.5s3.36-7.5,7.5-7.5h217c4.14,0,7.5,3.36,7.5,7.5s-3.36,7.5-7.5,7.5Zm0-39H77.5c-4.14,0-7.5-3.36-7.5-7.5s3.36-7.5,7.5-7.5H334.5c4.14,0,7.5,3.36,7.5,7.5s-3.36,7.5-7.5,7.5Zm0-39H117.5c-4.14,0-7.5-3.36-7.5-7.5s3.36-7.5,7.5-7.5h217c4.14,0,7.5,3.36,7.5,7.5s-3.36,7.5-7.5,7.5Z"/>
    <path class="cls-1" d="M369.5,165H42.5c-4.14,0-7.5,3.36-7.5,7.5v70c0,4.14,3.36,7.5,7.5,7.5H369.5c4.14,0,7.5-3.36,7.5-7.5v-70c0-4.14-3.36-7.5-7.5-7.5ZM87.5,215h-15c-4.14,0-7.5-3.36-7.5-7.5s3.36-7.5,7.5-7.5h15c4.14,0,7.5,3.36,7.5,7.5s-3.36,7.5-7.5,7.5Zm50.4,0h-15c-4.14,0-7.5-3.36-7.5-7.5s3.36-7.5,7.5-7.5h15c4.14,0,7.5,3.36,7.5,7.5s-3.36,7.5-7.5,7.5Zm50.4,0h-15c-4.14,0-7.5-3.36-7.5-7.5s3.36-7.5,7.5-7.5h15c4.14,0,7.5,3.36,7.5,7.5s-3.36,7.5-7.5,7.5Zm50.4,0h-15c-4.14,0-7.5-3.36-7.5-7.5s3.36-7.5,7.5-7.5h15c4.14,0,7.5,3.36,7.5,7.5s-3.36,7.5-7.5,7.5Zm50.4,0h-15c-4.14,0-7.5-3.36-7.5-7.5s3.36-7.5,7.5-7.5h15c4.14,0,7.5,3.36,7.5,7.5s-3.36,7.5-7.5,7.5Zm50.4,0h-15c-4.14,0-7.5-3.36-7.5-7.5s3.36-7.5,7.5-7.5h15c4.14,0,7.5,3.36,7.5,7.5s-3.36,7.5-7.5,7.5Z"/>
  </g>
</svg>