<?xml version="1.0" encoding="UTF-8" standalone="no"?>
<svg
   id="OBJECT"
   viewBox="0 0 32 32"
   version="1.1"
   sodipodi:docname="Newspapper.svg"
   inkscape:version="1.2.2 (732a01da63, 2022-12-09)"
   xml:space="preserve"
   xmlns:inkscape="http://www.inkscape.org/namespaces/inkscape"
   xmlns:sodipodi="http://sodipodi.sourceforge.net/DTD/sodipodi-0.dtd"
   xmlns="http://www.w3.org/2000/svg"
   xmlns:svg="http://www.w3.org/2000/svg"><sodipodi:namedview
     id="namedview153"
     pagecolor="#505050"
     bordercolor="#ffffff"
     borderopacity="1"
     inkscape:showpageshadow="0"
     inkscape:pageopacity="0"
     inkscape:pagecheckerboard="1"
     inkscape:deskcolor="#505050"
     showgrid="false"
     inkscape:zoom="11.313709"
     inkscape:cx="18.075417"
     inkscape:cy="23.422912"
     inkscape:window-width="1920"
     inkscape:window-height="1009"
     inkscape:window-x="-8"
     inkscape:window-y="-8"
     inkscape:window-maximized="1"
     inkscape:current-layer="OBJECT" /><defs
     id="defs140"><style
       id="style138">
      .cls-1 {
        fill: #FD4360;
      }

      .cls-1, .cls-2 {
        stroke-width: 0px;
      }

      .cls-2 {
        fill: #dadada;
      }
    </style></defs><g
     id="g2038"
     transform="matrix(0.6190416,0,0,0.6190416,52.914559,11.739016)"><rect
       style="fill:#dadada;fill-opacity:1;stroke:none;stroke-width:0.172;stroke-dasharray:none;stroke-opacity:1"
       id="rect2024"
       width="30.4375"
       height="30.625"
       x="-71.25"
       y="-8.125"
       ry="0.750866" /><path
       style="fill:#dadada;fill-opacity:1;stroke:none;stroke-width:0.0220889;stroke-dasharray:none;stroke-opacity:1"
       d="m -73.884573,23.524165 c 0.461198,-0.638036 0.740808,-1.297512 0.791555,-1.866929 0.07807,-0.876022 0.189298,-14.2986146 0.189524,-22.8716972 l 1.95e-4,-7.4064426 0.315899,-0.314548 L -72.271499,-9.25 h 16.16353 16.16353 l 0.318336,0.3169752 0.318338,0.3169752 -0.03461,16.0324008 c -0.0339,15.7016708 -0.03976,16.0361518 -0.284436,16.2142738 -0.212781,0.154907 -2.786561,0.181875 -17.358001,0.181875 h -17.108179 z m 17.640607,-2.687612 c 0.27327,-0.388479 0.251506,-0.817591 -0.05705,-1.124829 -0.250603,-0.24953 -0.428999,-0.256298 -6.756742,-0.256298 -6.327742,0 -6.506137,0.0068 -6.756742,0.256298 -0.312686,0.311351 -0.333317,0.857408 -0.04441,1.17529 0.201074,0.221234 0.582496,0.234353 6.813794,0.234353 h 6.600797 z m 13.784029,-5.155704 c 0.383001,-0.381362 0.402814,-0.752253 0.0585,-1.095093 -0.25412,-0.253033 -0.428998,-0.256298 -13.728573,-0.256298 -12.354463,0 -13.490685,0.01758 -13.706533,0.212085 -0.411309,0.370636 -0.246033,1.177926 0.27944,1.364921 0.106177,0.03779 6.1754,0.07325 13.487158,0.07881 l 13.29411,0.01014 z m -0.453722,-3.979778 c 0.20674,-0.106451 0.435524,-0.304496 0.508408,-0.440096 0.0821,-0.152752 0.132514,-1.6527478 0.132514,-3.942786 0,-4.0293961 -0.0084,-4.0789937 -0.742897,-4.3819272 -0.261589,-0.1078899 -1.464058,-0.1405792 -4.18513,-0.1137732 l -3.818081,0.037614 -0.356665,0.3553228 -0.356665,0.3553222 v 3.7640363 c 0,3.5836421 0.01234,3.7776871 0.257399,4.0489131 0.141571,0.156682 0.373231,0.332082 0.5148,0.389778 0.14157,0.05769 1.92533,0.108557 3.963912,0.113023 3.065833,0.0067 3.771486,-0.02534 4.082405,-0.185427 z M -56.23082,10.554879 c 0.173745,-0.173001 0.3159,-0.435123 0.3159,-0.5824957 0,-0.1473712 -0.142155,-0.4094941 -0.3159,-0.5824955 l -0.315898,-0.3145487 h -6.490935 c -6.116347,0 -6.507849,0.01364 -6.784041,0.2363289 -0.198226,0.1598265 -0.293108,0.3737063 -0.293108,0.6607153 0,0.2870097 0.09487,0.5008887 0.293108,0.6607157 0.276192,0.22269 0.667694,0.23633 6.784041,0.23633 h 6.490935 z m 0.0585,-5.1958673 c 0.308559,-0.3072379 0.330325,-0.7363494 0.05705,-1.1248287 l -0.20035,-0.2848128 h -6.642784 c -7.385445,0 -7.113503,-0.032326 -7.113503,0.8455644 0,0.8395697 -0.166282,0.8203755 7.107128,0.8203755 6.363456,0 6.541814,-0.00674 6.792454,-0.2562984 z m 13.770883,-5.12596906 c 0.329084,-0.32767514 0.329084,-0.82566789 0,-1.15334303 -0.254115,-0.25302831 -0.428998,-0.25629841 -13.706532,-0.25629841 -13.277534,0 -13.452419,0.00327 -13.706534,0.25629841 -0.141569,0.14096415 -0.257399,0.40046633 -0.257399,0.57667151 0,0.17620519 0.11583,0.43570737 0.257399,0.57667152 0.254115,0.25302834 0.429,0.25629845 13.706534,0.25629845 13.277534,0 13.452417,-0.00327 13.706532,-0.25629845 z m 0.02205,-5.20990514 c 0.29305,-0.2640731 0.30366,-0.7818519 0.02236,-1.0913536 -0.203777,-0.224202 -0.798355,-0.2343518 -13.72858,-0.2343518 -12.39578,0 -13.535077,0.017572 -13.750935,0.2120855 -0.293052,0.264073 -0.303661,0.7818518 -0.02236,1.0913535 0.203769,0.2242022 0.798348,0.2343518 13.728572,0.2343518 12.395779,0 13.535077,-0.017571 13.750936,-0.2120854 z"
       id="path1623" /><rect
       style="fill:#fe4360;fill-opacity:1;stroke:none;stroke-width:0.219046"
       id="rect509"
       width="1.4809549"
       height="26.197248"
       x="-77.986687"
       y="-6.0373521"
       ry="0.91120857" /><path
       style="fill:#dadada;fill-opacity:1;stroke:none;stroke-width:0.0215;stroke-dasharray:none;stroke-opacity:1"
       d="M -50.625,7.3125 V 4.125 h 3.375 3.375 V 7.3125 10.5 h -3.375 -3.375 z"
       id="path1970" /><path
       id="path359"
       style="fill:#fe4360;fill-opacity:1;stroke:none;stroke-width:0.2"
       d="m -71.671875,-10.484375 c 0,0 -0.500001,0.09375 -1.492187,0.7734375 -0.992188,0.6796867 -0.867188,2 -0.867188,2 l -0.03906,28.6152345 c 0,0 -0.171876,0.814453 -0.5,1.205078 -0.598598,0.699524 -1.070249,1.106964 -2.03125,1.34375 -1.766594,0.16663 -3.635143,-0.738088 -3.832032,-2.515625 -0.10026,-6.592797 -0.01025,-13.188666 -0.09766,-19.78125 0,0 -0.08946,-0.26133618 -0.244141,-0.41601562 C -80.93007,0.58555493 -81.013672,0.6015625 -81.013672,0.6015625 l -0.46875,-0.005859 c 0,0 -0.211445,0.10536377 -0.316406,0.23242188 -0.104961,0.12705811 -0.126953,0.28320312 -0.126953,0.28320312 l -0.05469,19.8144525 c 0,0 0.132548,1.558885 1.480469,2.851563 1.347921,1.292678 3.205078,1.236328 3.205078,1.236328 L -40.28125,25 c 0,0 1.171875,-0.25 1.664062,-1.070312 0.492187,-0.820312 0.507813,-1.109376 0.507813,-1.109376 l 0.03516,-31.0175776 c 0,0 -0.136719,-0.7011728 -0.730469,-1.4589844 -0.593749,-0.757812 -1.726562,-0.773438 -1.726562,-0.773438 z m 15.605469,1.5820312 c 7.80855,-0.00276 15.629633,-0.00324 15.673828,0.00781 0.08839,0.022097 0.219766,0.066809 0.429687,0.2988281 0.209923,0.2320191 0.320313,0.6191406 0.320313,0.6191406 0,0 -0.01128,30.4389751 -0.132813,30.9140621 -0.121534,0.475087 -0.816406,0.550781 -0.816406,0.550781 L -73.710938,23.460938 -73.15625,22.75 C -72.601563,22.039063 -72.5,20.8125 -72.5,20.8125 l 0.0098,-28.1152344 c 0,0 -0.01021,-0.5755793 0.111328,-0.984375 0.121534,-0.4087957 0.707031,-0.6074218 0.707031,-0.6074218 0,0 7.796919,-0.00505 15.605469,-0.00781 z" /><rect
       style="fill:#fe4360;fill-opacity:1;stroke:none;stroke-width:0.20087"
       id="rect511"
       width="27.0308"
       height="1.501732"
       x="-69.582642"
       y="-5.9992495"
       ry="0.750866" /><rect
       style="fill:#fe4360;fill-opacity:1;stroke:none;stroke-width:0.20087"
       id="rect513"
       width="27.0308"
       height="1.501732"
       x="-69.582642"
       y="-0.93674946"
       ry="0.750866" /><rect
       style="fill:#fe4360;fill-opacity:1;stroke:none;stroke-width:0.145509"
       id="rect515"
       width="13.679911"
       height="1.5570935"
       x="-69.610321"
       y="4.0043201"
       ry="0.77854675" /><rect
       style="fill:#fe4360;fill-opacity:1;stroke:none;stroke-width:0.145509"
       id="rect517"
       width="13.679911"
       height="1.5570935"
       x="-69.641571"
       y="9.0980701"
       ry="0.77854675" /><rect
       style="fill:#fe4360;fill-opacity:1;stroke:none;stroke-width:0.200762"
       id="rect519"
       width="26.999657"
       height="1.5018404"
       x="-69.582695"
       y="14.156947"
       ry="0.75092018" /><rect
       style="fill:#fe4360;fill-opacity:1;stroke:none;stroke-width:0.144717"
       id="rect523"
       width="13.524453"
       height="1.5578859"
       x="-69.579468"
       y="19.191423"
       ry="0.77894294" /><rect
       style="fill:none;stroke:#fe4360;stroke-width:1.12056;stroke-dasharray:none;stroke-opacity:1"
       id="rect525"
       width="8.0172939"
       height="7.5797935"
       x="-51.227394"
       y="3.5226035"
       ry="0.62149745" /></g></svg>
