<?xml version="1.0" encoding="UTF-8"?>
<svg id="OBJECT" xmlns="http://www.w3.org/2000/svg" viewBox="0 0 512 512">
  <defs>
    <style>
      .cls-1 {
        fill: #FD4360;
      }

      .cls-2 {
        fill: #dadada;
      }
    </style>
  </defs>
  <g>
    <path class="cls-2" d="M504.5,217h-92.5V27.5c0-15.16-12.34-27.5-27.5-27.5H27.5C12.34,0,0,12.34,0,27.5V454.5c0,31.71,25.79,57.5,57.5,57.5H454.5c31.71,0,57.5-25.79,57.5-57.5V224.5c0-4.14-3.36-7.5-7.5-7.5Zm-7.5,15v55h-85v-55h85ZM57.5,497c-23.43,0-42.5-19.07-42.5-42.5V27.5c0-6.89,5.61-12.5,12.5-12.5H384.5c6.89,0,12.5,5.61,12.5,12.5V454.5c0,16.82,7.26,31.98,18.81,42.5H57.5Zm397,0c-23.43,0-42.5-19.07-42.5-42.5v-152.5h85v152.5c0,23.43-19.07,42.5-42.5,42.5Z"/>
    <path class="cls-2" d="M454.4,317.1c-4.14,0-7.5,3.36-7.5,7.5v110c0,4.14,3.36,7.5,7.5,7.5s7.5-3.36,7.5-7.5v-110c0-4.14-3.36-7.5-7.5-7.5Z"/>
    <path class="cls-2" d="M454.4,452.1c-4.14,0-7.5,3.36-7.5,7.5v5c0,4.14,3.36,7.5,7.5,7.5s7.5-3.36,7.5-7.5v-5c0-4.14-3.36-7.5-7.5-7.5Z"/>
    <path class="cls-2" d="M344.5,295H67.5c-12.41,0-22.5,10.09-22.5,22.5v127c0,12.41,10.09,22.5,22.5,22.5H344.5c12.41,0,22.5-10.09,22.5-22.5v-127c0-12.41-10.09-22.5-22.5-22.5Zm7.5,149.5c0,4.14-3.36,7.5-7.5,7.5H67.5c-4.14,0-7.5-3.36-7.5-7.5v-127c0-4.14,3.36-7.5,7.5-7.5H344.5c4.14,0,7.5,3.36,7.5,7.5v127Z"/>
    <path class="cls-2" d="M334.5,417H77.5c-4.14,0-7.5,3.36-7.5,7.5s3.36,7.5,7.5,7.5H334.5c4.14,0,7.5-3.36,7.5-7.5s-3.36-7.5-7.5-7.5Z"/>
    <path class="cls-2" d="M334.5,373.5H77.5c-4.14,0-7.5,3.36-7.5,7.5s3.36,7.5,7.5,7.5H334.5c4.14,0,7.5-3.36,7.5-7.5s-3.36-7.5-7.5-7.5Z"/>
    <path class="cls-2" d="M334.5,330H117.5c-4.14,0-7.5,3.36-7.5,7.5s3.36,7.5,7.5,7.5h217c4.14,0,7.5-3.36,7.5-7.5s-3.36-7.5-7.5-7.5Z"/>
    <path class="cls-2" d="M77.5,345h10c4.14,0,7.5-3.36,7.5-7.5s-3.36-7.5-7.5-7.5h-10c-4.14,0-7.5,3.36-7.5,7.5s3.36,7.5,7.5,7.5Z"/>
  </g>
  <g>
    <path class="cls-1" d="M361,125.74h-19.79c-4.14,0-7.5,3.36-7.5,7.5s3.36,7.5,7.5,7.5h19.79c4.14,0,7.5-3.36,7.5-7.5s-3.36-7.5-7.5-7.5Z"/>
    <path class="cls-1" d="M328.03,106.12c1.27,0,2.56-.32,3.74-1.01l17.14-9.89c3.59-2.07,4.82-6.66,2.75-10.25-2.07-3.59-6.66-4.82-10.25-2.75l-17.14,9.89c-3.59,2.07-4.82,6.66-2.75,10.25,1.39,2.41,3.91,3.75,6.5,3.75Z"/>
    <path class="cls-1" d="M348.91,171.27l-17.14-9.89c-3.59-2.07-8.17-.84-10.25,2.75-2.07,3.59-.84,8.17,2.75,10.25l17.14,9.89c1.18,.68,2.47,1.01,3.74,1.01,2.59,0,5.11-1.35,6.5-3.75,2.07-3.59,.84-8.17-2.75-10.25Z"/>
    <rect class="cls-1" x="43.5" y="72.98" width="46.17" height="120.53" rx="15" ry="15"/>
    <path class="cls-1" d="M299.61,41.55c-1.85-1.42-4.25-1.9-6.5-1.3l-42.16,11.24V117.12c0,4.14-3.36,7.5-7.5,7.5s-7.5-3.36-7.5-7.5V55.49L104.67,90.5v85.48l24.57,6.55v43.05c0,22.32,18.16,40.48,40.48,40.48h39.57c22.32,0,40.48-18.16,40.48-40.48v-10.9l43.33,11.56c.64,.17,1.29,.25,1.93,.25,1.63,0,3.25-.53,4.57-1.55,1.85-1.42,2.93-3.62,2.93-5.95V47.5c0-2.33-1.08-4.53-2.93-5.95Zm-64.84,184.03c0,14.05-11.43,25.48-25.48,25.48h-39.57c-14.05,0-25.48-11.43-25.48-25.48v-39.05l90.53,24.14v14.9Zm16.18-78.46c0,4.14-3.36,7.5-7.5,7.5s-7.5-3.36-7.5-7.5v-5c0-4.14,3.36-7.5,7.5-7.5s7.5,3.36,7.5,7.5v5Z"/>
  </g>
</svg>