<?xml version="1.0" encoding="UTF-8"?>
<svg id="OBJECT" xmlns="http://www.w3.org/2000/svg" viewBox="0 0 512 512">
  <defs>
    <style>
      .cls-1 {
        fill: #FD4360;
      }

      .cls-2 {
        fill: #dadada;
      }
    </style>
  </defs>
  <g>
    <path class="cls-2" d="M141,407c-4.14,0-7.5,3.36-7.5,7.5v5c0,4.14,3.36,7.5,7.5,7.5s7.5-3.36,7.5-7.5v-5c0-4.14-3.36-7.5-7.5-7.5Z"/>
    <path class="cls-2" d="M371,407c-4.14,0-7.5,3.36-7.5,7.5v5c0,4.14,3.36,7.5,7.5,7.5s7.5-3.36,7.5-7.5v-5c0-4.14-3.36-7.5-7.5-7.5Z"/>
    <path class="cls-2" d="M411.46,339.13l-116.42-56.28c-2.53-1.22-5.53-.93-7.78,.76l-31.26,23.53-31.26-23.53c-2.2-1.66-5.29-1.96-7.78-.76l-116.42,56.28c-16.43,7.94-27.04,24.86-27.04,43.11v122.26c0,4.14,3.36,7.5,7.5,7.5H431c4.14,0,7.5-3.36,7.5-7.5v-122.26c0-18.25-10.62-35.17-27.04-43.11Zm-191.77-30.85l3.39-7.15,19.96,15.03-8.04,5.36c-4.9,3.27-9.77,1.73-12.69-.79-2.92-2.52-5.14-7.12-2.62-12.44Zm72.63,0c2.52,5.32,.3,9.92-2.62,12.44-2.92,2.53-7.79,4.06-12.69,.79l-8.04-5.36,19.96-15.03,3.39,7.15Zm-13.82,121.22c0,4.14-3.36,7.5-7.5,7.5h-30c-4.14,0-7.5-3.36-7.5-7.5v-50c0-4.14,3.36-7.5,7.5-7.5h30c4.14,0,7.5,3.36,7.5,7.5v50Zm-35,22.5h25v45h-25v-45Zm180,45h-45v-52.5c0-4.14-3.36-7.5-7.5-7.5s-7.5,3.36-7.5,7.5v52.5h-80v-48.8c6.03-4.04,10-10.91,10-18.7v-50c0-12.41-10.09-22.5-22.5-22.5h-30c-12.41,0-22.5,10.09-22.5,22.5v50c0,7.78,3.97,14.66,10,18.7v48.8h-80v-52.5c0-4.14-3.36-7.5-7.5-7.5s-7.5,3.36-7.5,7.5v52.5h-45v-114.76c0-12.53,7.29-24.15,18.57-29.61l97.69-47.23c-2.94,9.58-.07,19.91,7.74,26.65,4.81,4.16,10.71,6.27,16.64,6.27,4.89,0,9.81-1.44,14.18-4.34l12.69-8.46,12.69,8.46c4.36,2.91,9.28,4.34,14.18,4.34,5.93,0,11.83-2.11,16.64-6.27,7.8-6.74,10.68-17.08,7.74-26.65l97.69,47.23c11.28,5.45,18.57,17.08,18.57,29.61v114.76Z"/>
    <path class="cls-2" d="M261,384.5h-10c-4.14,0-7.5,3.36-7.5,7.5s3.36,7.5,7.5,7.5h10c4.14,0,7.5-3.36,7.5-7.5s-3.36-7.5-7.5-7.5Z"/>
    <path class="cls-2" d="M261,409.5h-10c-4.14,0-7.5,3.36-7.5,7.5s3.36,7.5,7.5,7.5h10c4.14,0,7.5-3.36,7.5-7.5s-3.36-7.5-7.5-7.5Z"/>
  </g>
  <g>
    <path class="cls-1" d="M324.08,124.63c-24.11,.14-41.49-7.93-52.53-15.57-6.82-4.73-11.96-9.76-15.55-13.88-3.59,4.12-8.73,9.16-15.55,13.88-10.94,7.58-28.13,15.58-51.91,15.58-.2,0-.41,0-.61,0v49.01c0,37.54,30.54,68.08,68.08,68.08s68.08-30.54,68.08-68.08v-49.01Zm-42.58,68.11c-7.03,7.03-16.26,10.54-25.5,10.54s-18.47-3.51-25.5-10.54c-2.93-2.93-2.93-7.68,0-10.61,2.93-2.93,7.68-2.93,10.61,0,8.21,8.21,21.57,8.21,29.78,0,2.93-2.93,7.68-2.93,10.61,0,2.93,2.93,2.93,7.68,0,10.61Z"/>
    <path class="cls-1" d="M410.76,241.17c-7.1-5.83-19.31-27.97-21.35-110.79-.87-35.07-15.13-67.87-40.18-92.36C324.17,13.5,291.06,0,256,0s-68.17,13.5-93.23,38.02c-25.04,24.5-39.31,57.3-40.18,92.36-2.04,82.82-14.26,104.96-21.35,110.79-1.89,1.55-2.9,3.92-2.72,6.35s1.53,4.63,3.63,5.88c.8,.48,19.85,11.75,48.72,17.83,15.85,3.34,31.56,4.42,46.86,3.31v-41.73c-15.85-15.58-24.81-36.77-24.81-59.17v-50.11c-1.04-.14-2.08-.3-3.14-.47-4.09-.67-6.86-4.53-6.19-8.62,.67-4.09,4.53-6.85,8.62-6.19,54.29,8.91,76.38-27.76,77.29-29.33,1.34-2.3,3.82-3.73,6.49-3.73h.03c2.68,.01,5.16,1.44,6.49,3.76,.9,1.54,22.97,38.21,77.27,29.3,4.09-.67,7.95,2.1,8.62,6.19,.67,4.09-2.1,7.94-6.19,8.62-1.06,.17-2.1,.33-3.14,.47v50.11c0,22.4-8.96,43.59-24.81,59.18v41.72c3.85,.28,7.73,.44,11.63,.44,11.59,0,23.37-1.24,35.23-3.74,28.87-6.08,47.92-17.35,48.72-17.83,2.09-1.25,3.45-3.45,3.63-5.88s-.83-4.8-2.72-6.35Z"/>
    <path class="cls-1" d="M212.73,244.53v15.04l43.27,32.57,43.27-32.57v-15.04c-12.61,7.73-27.43,12.19-43.27,12.19s-30.66-4.46-43.27-12.19Z"/>
  </g>
</svg>