<?xml version="1.0" encoding="UTF-8"?>
<svg id="OBJECT" xmlns="http://www.w3.org/2000/svg" viewBox="0 0 32 32">
  <defs>
    <style>
      .cls-1 {
        fill: #FD4360;
      }

      .cls-2 {
        fill: #dadada;
      }
    </style>
  </defs>
  <g>
    <path class="cls-2" d="M26,1c-2.76,0-5,2.21-5,4.94,0,4.56,4.29,7.3,4.47,7.41,.16,.1,.35,.15,.53,.15s.37-.05,.53-.15c.18-.11,4.47-2.85,4.47-7.41,0-2.72-2.24-4.94-5-4.94Zm0,10.26c-.99-.79-3-2.71-3-5.33,0-1.62,1.35-2.94,3-2.94s3,1.32,3,2.94c0,2.61-2.01,4.54-3,5.33Z"/>
    <path class="cls-2" d="M21,18.11h-4c-1.1,0-2-.9-2-2v-6.11c0-1.1,.9-2,2-2h1.32c.55,0,1-.45,1-1s-.45-1-1-1h-1.32c-2.21,0-4,1.79-4,4v6.11c0,2.21,1.79,4,4,4h4c1.1,0,2,.9,2,2v.89c0,1.1-.9,2-2,2h-3.34c-.55,0-1,.45-1,1s.45,1,1,1h3.34c2.21,0,4-1.79,4-4v-.89c0-2.21-1.79-4-4-4Z"/>
    <path class="cls-2" d="M26.5,5h-1c-.55,0-1,.45-1,1s.45,1,1,1h1c.55,0,1-.45,1-1s-.45-1-1-1Z"/>
  </g>
  <g>
    <path class="cls-1" d="M13.19,23.31c-.75,2.14-2.79,3.69-5.19,3.69s-4.43-1.54-5.19-3.69c-1.12,1.24-1.81,2.88-1.81,4.69v.5c0,1.38,1.12,2.5,2.5,2.5H12.5c1.38,0,2.5-1.12,2.5-2.5v-.5c0-1.8-.69-3.44-1.81-4.69Z"/>
    <path class="cls-1" d="M8,25c1.93,0,3.5-1.57,3.5-3.5v-2c0-1.38-1.12-2.5-2.5-2.5h-2c-1.38,0-2.5,1.12-2.5,2.5v2c0,1.93,1.57,3.5,3.5,3.5Z"/>
  </g>
</svg>