<?xml version="1.0" encoding="UTF-8"?>
<svg id="OBJECT" xmlns="http://www.w3.org/2000/svg" viewBox="0 0 32 32">
  <defs>
    <style>
      .cls-1 {
        fill: #FD4360;
      }

      .cls-1, .cls-2 {
        stroke-width: 0px;
      }

      .cls-2 {
        fill: #dadada;
      }
    </style>
  </defs>
  <g>
    <path class="cls-2" d="m26.5,1H5.5c-1.38,0-2.5,1.12-2.5,2.5v20.5c0,.55.45,1,1,1s1-.45,1-1v-2h10v2c0,.55.45,1,1,1s1-.45,1-1v-9h6v9c0,.55.45,1,1,1s1-.45,1-1v-2h2v2c0,.55.45,1,1,1s1-.45,1-1V3.5c0-1.38-1.12-2.5-2.5-2.5ZM5.5,3h21c.28,0,.5.22.5.5v1.5H5v-1.5c0-.28.22-.5.5-.5Zm19.5,17v-6c0-.55-.45-1-1-1h-8c-.55,0-1,.45-1,1v6H5V7h22v13h-2Z"/>
    <path class="cls-2" d="m20.62,8h-.5c-.55,0-1,.45-1,1s.45,1,1,1h.5c.55,0,1-.45,1-1s-.45-1-1-1Z"/>
    <path class="cls-2" d="m16.25,8h-.5c-.55,0-1,.45-1,1s.45,1,1,1h.5c.55,0,1-.45,1-1s-.45-1-1-1Z"/>
    <path class="cls-2" d="m11.88,8h-.5c-.55,0-1,.45-1,1s.45,1,1,1h.5c.55,0,1-.45,1-1s-.45-1-1-1Z"/>
    <path class="cls-2" d="m7.5,8h-.5c-.55,0-1,.45-1,1s.45,1,1,1h.5c.55,0,1-.45,1-1s-.45-1-1-1Z"/>
    <path class="cls-2" d="m25,8h-.5c-.55,0-1,.45-1,1s.45,1,1,1h.5c.55,0,1-.45,1-1s-.45-1-1-1Z"/>
  </g>
  <path class="cls-1" d="m1,27v2c0,1.1.9,2,2,2h26c1.1,0,2-.9,2-2v-2H1Z"/>
</svg>