<?xml version="1.0" encoding="UTF-8"?>
<svg id="OBJECT" xmlns="http://www.w3.org/2000/svg" viewBox="0 0 32 32">
  <defs>
    <style>
      .cls-1 {
        fill: #FD4360;
      }

      .cls-1, .cls-2 {
        stroke-width: 0px;
      }

      .cls-2 {
        fill: #dadada;
      }
    </style>
  </defs>
  <g>
    <path class="cls-2" d="m30.81,1.42c-.19-.26-.49-.42-.81-.42H13.38c-.3,0-.58.13-.77.36-.14.16-13.47,16.42-2.21,29.3.19.22.46.34.75.34h12.69c.29,0,.56-.12.75-.34,6.38-7.3,4.98-15.58,2.33-21.68,1.14-.14,2.11-.92,2.48-2.03l1.54-4.63c.1-.31.05-.64-.14-.9Zm-7.43,27.58h-11.76c-.8-.96-1.46-1.96-2.01-3h15.77c-.53,1.01-1.18,2.02-1.99,3Zm4.12-22.68c-.14.41-.52.68-.95.68h-8.93c-.55,0-1,.45-1,1s.45,1,1,1h7.11c1.96,4.19,3.39,9.66,1.51,15H8.74c-1.29-3.66-1.17-7.76.4-12.26,1.5-4.31,3.91-7.67,4.73-8.74h14.74l-1.11,3.32Z"/>
    <path class="cls-2" d="m17.5,16.22c-1.07,0-2.08.42-2.84,1.19-.39.39-.39,1.03,0,1.41.39.39,1.03.38,1.41,0,.76-.76,2.07-.76,2.83,0,.2.2.45.3.71.3s.51-.1.7-.29c.39-.39.4-1.02,0-1.41-.76-.76-1.76-1.19-2.84-1.19Z"/>
    <path class="cls-2" d="m12.55,15.71c.39.39,1.02.39,1.41,0,.95-.96,2.2-1.48,3.54-1.48s2.59.53,3.54,1.48c.2.2.45.3.71.3s.51-.1.7-.29c.39-.39.4-1.02,0-1.41-1.32-1.34-3.09-2.07-4.96-2.07s-3.64.74-4.96,2.07c-.39.39-.39,1.03,0,1.41Z"/>
    <path class="cls-2" d="m17.74,19.78h-.47c-.55,0-1,.45-1,1s.45,1,1,1h.47c.55,0,1-.45,1-1s-.45-1-1-1Z"/>
    <path class="cls-2" d="m12.62,8c0,.55.45,1,1,1h.5c.55,0,1-.45,1-1s-.45-1-1-1h-.5c-.55,0-1,.45-1,1Z"/>
  </g>
  <path class="cls-1" d="m4,4.5c-1.65,0-3,1.35-3,3v16c0,.55.45,1,1,1s1-.45,1-1v-12h2.08c.83-2.7,1.99-5.11,3.06-7h-4.14Z"/>
</svg>