<?xml version="1.0" encoding="UTF-8"?>
<svg id="OBJECT" xmlns="http://www.w3.org/2000/svg" viewBox="0 0 32 32">
  <defs>
    <style>
      .cls-1 {
        fill: #FD4360;
      }

      .cls-1, .cls-2 {
        stroke-width: 0px;
      }

      .cls-2 {
        fill: #dadada;
      }
    </style>
  </defs>
  <path class="cls-2" d="m27.17,11.68L18.31,2.02c-.59-.65-1.44-1.02-2.31-1.02s-1.72.37-2.31,1.02L4.83,11.68c-1.11,1.21-1.11,3.03,0,4.24l8.86,9.66c.59.65,1.44,1.02,2.31,1.02s1.72-.37,2.31-1.02l8.86-9.66c1.11-1.21,1.11-3.03,0-4.24ZM15.16,3.37c.22-.24.52-.37.84-.37s.62.13.84.37l3.68,4.02-4.52,4.93-4.52-4.93,3.68-4.02ZM6.3,13.03l3.82-4.16,4.52,4.93-4.52,4.93-3.82-4.16c-.4-.44-.4-1.1,0-1.54Zm10.53,11.2c-.44.48-1.24.48-1.68,0l-3.68-4.02,4.52-4.93,4.52,4.93-3.68,4.02Zm8.86-9.66l-3.82,4.16-4.52-4.93,4.52-4.93,3.82,4.16c.4.44.4,1.1,0,1.54Z"/>
  <g>
    <path class="cls-1" d="m27.68,27.6c-1.51-1.41-2.16-4.13-2.41-6.65l-5.49,5.99c-.27.29-.56.54-.88.76.58,1.68,1.23,2.73,1.3,2.83.17.27.47.45.8.46.02,0,.03,0,.05,0,.31,0,.6-.14.79-.39l1.57-2.01,3.39.71c.44.09.89-.12,1.09-.52.21-.4.12-.88-.2-1.19Z"/>
    <path class="cls-1" d="m6.72,20.96c-.25,2.52-.9,5.23-2.41,6.65-.33.31-.41.79-.2,1.19.21.4.66.61,1.09.52l3.39-.71,1.57,2.01c.19.24.48.39.79.39.02,0,.03,0,.05,0,.32-.02.62-.19.8-.46.06-.1.72-1.15,1.3-2.83-.32-.22-.62-.47-.88-.76l-5.49-5.99Z"/>
  </g>
</svg>