<?xml version="1.0" encoding="UTF-8"?>
<svg id="OBJECT" xmlns="http://www.w3.org/2000/svg" viewBox="0 0 32 32">
  <defs>
    <style>
      .cls-1 {
        fill: #FD4360;
      }

      .cls-1, .cls-2 {
        stroke-width: 0px;
      }

      .cls-2 {
        fill: #dadada;
      }
    </style>
  </defs>
  <g>
    <path class="cls-2" d="m30,29h-1v-5h1c.55,0,1-.45,1-1s-.45-1-1-1h-5v-3h1c.55,0,1-.45,1-1s-.45-1-1-1H8c-1.65,0-3,1.35-3,3v1c0,.35.07.69.18,1h-1.18c-1.65,0-3,1.35-3,3v3c0,1.65,1.35,3,3,3h26c.55,0,1-.45,1-1s-.45-1-1-1ZM7,21v-1c0-.55.45-1,1-1h15v3h-15c-.55,0-1-.45-1-1Zm-4,7v-3c0-.55.45-1,1-1h23v1.5H10c-.55,0-1,.45-1,1s.45,1,1,1h17v1.5H4c-.55,0-1-.45-1-1Z"/>
    <path class="cls-2" d="m7,25.5h-1c-.55,0-1,.45-1,1s.45,1,1,1h1c.55,0,1-.45,1-1s-.45-1-1-1Z"/>
  </g>
  <path class="cls-1" d="m12,15h8c.55,0,1-.45,1-1v-2c0-.55-.45-1-1-1h-3v-2h7c.37,0,.71-.2.88-.53s.15-.72-.05-1.03l-1.63-2.45,1.63-2.45c.2-.31.22-.7.05-1.03s-.51-.53-.88-.53h-8c-.55,0-1,.45-1,1v9h-3c-.55,0-1,.45-1,1v2c0,.55.45,1,1,1Z"/>
</svg>