<?xml version="1.0" encoding="UTF-8"?>
<svg id="OBJECT" xmlns="http://www.w3.org/2000/svg" viewBox="0 0 32 32">
  <defs>
    <style>
      .cls-1 {
        fill: #FD4360;
      }

      .cls-1, .cls-2 {
        stroke-width: 0px;
      }

      .cls-2 {
        fill: #dadada;
      }
    </style>
  </defs>
  <path class="cls-2" d="m30.14,19.68c-.09-.01-.72-.09-1.74-.05-.22-1.3-.19-2.47.1-3.28.11-.31.07-.65-.12-.92-.19-.26-.49-.42-.81-.42h-.02c-.36,0-8.16.18-11.54,4.63-3.38-4.45-11.18-4.62-11.54-4.63h-.02c-.32,0-.63.16-.81.42-.19.27-.24.61-.12.92.29.81.31,1.98.1,3.28-1.01-.03-1.65.04-1.74.05-.49.07-.86.49-.86.99v3.33c0,.5.37.92.86.99,8.17,1.12,11.2,5.52,11.22,5.56.19.28.5.45.84.45h4.15c.34,0,.65-.17.84-.45.03-.04,2.99-4.43,11.22-5.56.5-.07.86-.49.86-.99v-3.33c0-.5-.37-.92-.86-.99Zm-3.84-2.58c-.1.96-.02,1.91.1,2.72-2.47.38-5.88,1.43-9.4,4.14v-2.11c1.64-3.53,6.86-4.49,9.3-4.74Zm-20.6,0c2.44.26,7.65,1.22,9.3,4.74v2.11c-3.52-2.71-6.93-3.76-9.4-4.14.13-.8.21-1.76.1-2.72Zm23.3,6.05c-7.04,1.19-10.4,4.61-11.42,5.86h-3.16c-1.02-1.24-4.38-4.67-11.42-5.86v-1.52h.02c2.03,0,7.23.51,12.3,5.21.38.36.97.36,1.36,0,5.07-4.69,10.27-5.21,12.3-5.21h.02v1.52Z"/>
  <g>
    <path class="cls-1" d="m16,7c-.26,0-.51.1-.71.29-.39.39-.39,1.02,0,1.41s1.02.39,1.41,0,.39-1.02,0-1.41c-.2-.2-.45-.29-.71-.29Z"/>
    <path class="cls-1" d="m23.33,7.24c-.15-.22-.38-.38-.65-.43-1.8-.33-2.15-2.53-2.21-3.81h.52c.55,0,1-.45,1-1s-.45-1-1-1h-10c-.55,0-1,.45-1,1s.45,1,1,1h.52c-.05,1.27-.41,3.47-2.21,3.81-.27.05-.5.21-.65.43-.15.23-.2.5-.14.77.06.26,1.37,6.02,6.48,7.74v-4.92c-.41-.14-.79-.37-1.12-.7-1.17-1.17-1.17-3.07,0-4.24s3.07-1.17,4.24,0,1.17,3.07,0,4.24c-.33.33-.71.55-1.12.7v4.92c5.1-1.72,6.42-7.48,6.48-7.74.06-.26,0-.54-.14-.77Z"/>
  </g>
</svg>