<?xml version="1.0" encoding="UTF-8"?>
<svg id="OBJECT" xmlns="http://www.w3.org/2000/svg" viewBox="0 0 32 32">
  <defs>
    <style>
      .cls-1 {
        fill: #FD4360;
      }

      .cls-1, .cls-2 {
        stroke-width: 0px;
      }

      .cls-2 {
        fill: #dadada;
      }
    </style>
  </defs>
  <g>
    <path class="cls-2" d="m10,1C4.95,1,1,7.59,1,16s3.95,15,9,15,9-6.59,9-15S15.05,1,10,1Zm0,2c1.81,0,3.48,1.37,4.74,3.55-3,.57-6.48.57-9.48,0,1.26-2.18,2.93-3.55,4.74-3.55Zm0,26c-3.79,0-7-5.95-7-13,0-2.81.52-5.44,1.37-7.6,1.77.38,3.69.6,5.63.6s3.86-.21,5.63-.6c.85,2.15,1.37,4.78,1.37,7.6,0,7.05-3.21,13-7,13Z"/>
    <path class="cls-2" d="m8.58,23.22c-.27-.48-.87-.66-1.36-.4-.48.26-.66.87-.4,1.36.06.11.12.22.19.33.19.32.52.5.86.5.17,0,.35-.04.5-.14.48-.28.64-.89.36-1.37l-.16-.28Z"/>
    <path class="cls-2" d="m7.01,22.26c.53-.16.83-.72.67-1.25-.45-1.51-.68-3.2-.68-5.01,0-1.69.2-3.28.61-4.73.15-.53-.16-1.08-.7-1.23-.53-.14-1.08.17-1.23.7-.45,1.62-.68,3.4-.68,5.27,0,2.01.26,3.89.77,5.59.13.43.53.71.96.71.1,0,.19-.01.29-.04Z"/>
    <path class="cls-2" d="m12.45,11.47c.12.45.52.75.97.75.08,0,.17-.01.26-.03.53-.14.85-.69.71-1.22l-.06-.22c-.15-.53-.7-.84-1.23-.7-.53.15-.85.7-.7,1.23l.06.21Z"/>
    <path class="cls-2" d="m14.88,13.69c-.06-.55-.57-.94-1.1-.89-.55.06-.95.55-.89,1.1.07.67.11,1.38.11,2.09,0,3.96-1.09,6.39-1.74,7.49-.28.48-.12,1.09.35,1.37.16.09.33.14.51.14.34,0,.68-.18.86-.49.75-1.27,2.01-4.08,2.01-8.51,0-.79-.04-1.56-.12-2.31Z"/>
  </g>
  <path class="cls-1" d="m31,12.53c-.11-2.88-1.19-5.06-3.08-6.15-1.93-1.11-4.35-.9-6.77.34,1.56,1.22,3.25,2.38,5.03,3.41,1.58.91,3.2,1.71,4.82,2.4Z"/>
  <path class="cls-1" d="m19.89,8.28c.39,1.25.7,2.6.89,4.03.06-.06.11-.12.17-.18.39-.39,1.03-.38,1.41.01.39.39.38,1.03-.01,1.41-.48.47-.93.98-1.36,1.54,0,.3.03.6.03.91,0,3.27-.55,6.26-1.5,8.8.01,0,.02-.02.04-.03,1.01-.57,2.97-1.99,4.76-5.11.32-.56.62-1.13.87-1.7.22-.51.81-.73,1.32-.51.5.22.73.81.51,1.32-.28.63-.6,1.27-.96,1.89-2.03,3.53-4.33,5.18-5.51,5.85-.16.09-.32.13-.49.13-.35,0-.69-.18-.87-.51-.05-.09-.07-.18-.09-.27-.92,2.06-2.12,3.75-3.55,4.98.45.11.92.17,1.4.17,3.74,0,8.23-3.24,11.28-8.52,1.48-2.57,2.41-5.29,2.7-7.83-1.93-.78-3.87-1.7-5.74-2.78-1.87-1.08-3.65-2.3-5.29-3.59Zm6.06,7.56l.05-.18c.14-.53.68-.86,1.22-.72.54.14.86.68.72,1.22l-.06.22c-.12.44-.52.73-.96.73-.09,0-.18-.01-.27-.04-.53-.15-.84-.7-.7-1.23Z"/>
</svg>