<?xml version="1.0" encoding="UTF-8" standalone="no"?>
<svg
   id="OBJECT"
   viewBox="0 0 32 32"
   version="1.1"
   sodipodi:docname="Lamp.svg"
   xml:space="preserve"
   inkscape:version="1.2.2 (732a01da63, 2022-12-09)"
   xmlns:inkscape="http://www.inkscape.org/namespaces/inkscape"
   xmlns:sodipodi="http://sodipodi.sourceforge.net/DTD/sodipodi-0.dtd"
   xmlns="http://www.w3.org/2000/svg"
   xmlns:svg="http://www.w3.org/2000/svg"><sodipodi:namedview
     id="namedview23"
     pagecolor="#505050"
     bordercolor="#ffffff"
     borderopacity="1"
     inkscape:showpageshadow="0"
     inkscape:pageopacity="0"
     inkscape:pagecheckerboard="1"
     inkscape:deskcolor="#505050"
     showgrid="false"
     inkscape:zoom="3.2382813"
     inkscape:cx="71.642943"
     inkscape:cy="-19.763571"
     inkscape:window-width="1920"
     inkscape:window-height="1009"
     inkscape:window-x="-8"
     inkscape:window-y="-8"
     inkscape:window-maximized="1"
     inkscape:current-layer="OBJECT" /><defs
     id="defs4"><style
       id="style2">
      .cls-1 {
        fill: #FD4360;
      }

      .cls-1, .cls-2 {
        stroke-width: 0px;
      }

      .cls-2 {
        fill: #dadada;
      }
    </style></defs><path
     style="fill:#fb4461;stroke-width:0.56635"
     d=""
     id="path401" /><g
     id="g1198"
     transform="matrix(0.08322696,0,0,0.08322696,-2.5378496,12.780919)"><path
       style="fill:#fb4461;stroke-width:0.56635"
       d="m 73.121359,28.874044 c -0.89441,-0.355571 -2.045644,-1.601839 -2.590874,-2.804751 -0.919008,-2.027558 -0.904579,-2.315096 0.227526,-4.534206 0.686878,-1.346391 1.805488,-2.518966 2.590875,-2.715864 0.760163,-0.190575 9.462209,-0.264503 19.33788,-0.164285 20.417254,0.207194 20.169144,0.145222 20.278164,5.064937 0.0596,2.687598 -0.65898,3.873634 -3.15661,5.210326 -1.72854,0.925087 -34.344299,0.875161 -36.686961,-0.05616 z"
       id="path389" /><path
       style="fill:#fb4461;stroke-width:0.56635"
       d="m 115.17527,131.63068 c -1.76776,-1.47579 -2.12428,-2.18597 -2.12428,-4.23157 0,-2.37583 0.42803,-2.88517 12.78279,-15.21089 12.35402,-12.324985 12.86545,-12.752756 15.24686,-12.752756 3.20944,0 5.60211,2.373126 5.60211,5.556336 0,2.00633 -1.00514,3.17335 -13.17098,15.2922 -14.43475,14.37899 -14.58954,14.47478 -18.3365,11.34668 z"
       id="path391" /><path
       style="fill:#fb4461;stroke-width:0.56635"
       d="m 125.69234,-64.532015 c -12.01919,-12.029926 -12.64135,-12.768499 -12.64135,-15.006643 0,-2.560617 1.20062,-4.176963 4.24187,-5.71067 1.39855,-0.705291 1.85725,-0.735476 2.05871,-0.135473 0.14256,0.424608 0.65748,0.772015 1.14425,0.772015 0.48678,0 6.57797,5.685274 13.53599,12.633941 11.87459,11.858635 12.65094,12.773387 12.65094,14.906259 0,3.166748 -2.24388,5.193213 -5.75038,5.193213 -2.55722,0 -2.80033,-0.201836 -15.24003,-12.652642 z"
       id="path393" /><path
       style="fill:#fb4461;stroke-width:0.56635"
       d="m 220.17853,-85.230398 c 0,-0.339686 -0.38493,-0.617611 -0.85539,-0.617611 -0.47046,0 -1.30424,-0.685035 -1.85283,-1.5223 -0.86043,-1.313176 -0.99745,-3.989595 -0.99745,-19.482841 v -17.96054 l 1.51595,-1.51595 c 2.14418,-2.14418 5.76737,-2.09314 7.97281,0.11229 l 1.62825,1.62825 v 17.84825 c 0,15.389868 -0.13739,18.057919 -0.99745,19.370541 -0.5486,0.837265 -1.38237,1.5223 -1.85284,1.5223 -0.47046,0 -0.85538,0.277925 -0.85538,0.617611 0,0.339686 -0.83378,0.617612 -1.85284,0.617612 -1.01906,0 -1.85283,-0.277926 -1.85283,-0.617612 z"
       id="path395" /><path
       style="fill:#fb4461;stroke-width:0.56635"
       d="m 298.95582,-53.339821 c -1.1395,-1.056055 -1.57584,-2.089969 -1.57584,-3.73394 0,-2.132616 0.77261,-3.046381 12.46852,-14.746524 6.85768,-6.860168 13.1712,-12.837586 14.03003,-13.283152 2.94869,-1.529803 7.1332,1.728747 7.1332,5.554754 0,2.225683 -0.63914,2.983015 -12.66479,15.006643 -12.42443,12.422337 -12.71367,12.662667 -15.24003,12.662667 -1.8516,0 -3.01805,-0.410383 -4.15109,-1.460448 z"
       id="path397" /><path
       style="fill:#fb4461;stroke-width:0.56635"
       d="m 334.43667,29.203127 c -3.31155,-1.232196 -4.63691,-6.74276 -2.20667,-9.174866 1.11195,-1.112799 2.37069,-1.203087 19.14596,-1.373323 9.87567,-0.100218 18.57663,-0.02656 19.33546,0.163677 0.81352,0.20395 1.86357,1.347421 2.55886,2.786491 1.08804,2.251994 1.10598,2.602073 0.2321,4.530072 -0.61382,1.354222 -1.63833,2.339433 -2.91152,2.799825 -2.01435,0.7284 -34.27422,0.967644 -36.15419,0.268124 z"
       id="path399" /><path
       style="fill:#fb4461;stroke-width:0.56635"
       d="m 310.55095,120.284 c -12.16583,-12.11885 -13.17097,-13.28587 -13.17097,-15.2922 0,-3.1762 2.39336,-5.556336 5.58721,-5.556336 2.3627,0 2.90099,0.451288 15.24686,12.782636 12.31437,12.2999 12.79768,12.87435 12.79768,15.2109 0,2.01154 -0.36455,2.7326 -2.12427,4.20168 -3.74696,3.1281 -3.90176,3.03231 -18.33651,-11.34668 z"
       id="path403" /><path
       style="fill:#dadada;fill-opacity:1;stroke-width:0.580521"
       d="m 192.19159,147.0481 c -0.1908,-0.30875 -4.80811,-1.63686 -5.35409,-5.59341 -1.14854,-8.32326 -1.27236,-24.42054 -3.15435,-26.30252 -0.39343,-0.39343 -0.71534,-1.18837 -0.71534,-1.76651 0,-0.57815 -0.65478,-2.01679 -1.45506,-3.19697 -0.80028,-1.18019 -1.64298,-2.63651 -1.87264,-3.23626 -1.42003,-3.70825 -9.84694,-14.801668 -16.96483,-22.33295 -12.56295,-13.292578 -19.36251,-26.063206 -23.08915,-43.364944 -1.08975,-5.059443 -1.24426,-26.206911 -0.23551,-32.2344561 0.38353,-2.291726 1.69554,-7.1580071 2.91555,-10.8139567 7.26861,-21.7813552 22.91064,-39.8833662 42.91738,-49.6668492 12.78949,-6.254184 21.0476,-8.437871 33.95639,-8.97908 18.77049,-0.786963 35.37246,3.43596 49.92471,12.698974 4.43541,2.823304 13.43556,10.136658 16.30324,13.247726 8.92463,9.68207 17.37899,24.419595 20.21097,35.23148875 3.81897,14.58001025 3.79179,32.99267025 -0.0706,47.75284425 -2.57064,9.823945 -10.053,23.44493 -17.41191,31.696799 -9.29888,10.427261 -14.64995,16.727903 -15.44362,18.184143 -0.43191,0.79248 -1.84325,3.065241 -3.13633,5.050581 -1.29306,1.98534 -2.35103,3.81017 -2.35103,4.05517 0,0.245 -0.71219,1.37919 -1.58266,2.52043 -0.87047,1.14124 -1.58364,2.30764 -1.58483,2.59201 -0.001,0.28437 -0.88675,2.65363 -1.96792,5.26502 -3.2946,7.95771 -4.94143,13.90459 -5.95234,21.49464 -0.5393,4.04897 -1.30959,7.46912 -1.74444,7.74536 -0.92743,0.58914 -4.01177,0.64827 -6.00149,0.11504 l -1.4244,-0.38172 0.0594,-23.1913 c 0.0625,-24.395141 0.42325,-31.360197 2.05332,-39.650985 1.27295,-6.47445 7.63553,-28.28922 9.63181,-33.023716 0.46463,-1.10195 1.19703,-3.708961 1.62756,-5.793359 0.69714,-3.375186 0.66105,-3.975598 -0.32982,-5.487851 -2.28878,-3.493137 -7.98278,-4.347863 -16.76251,-2.516223 -2.56837,0.53582 -5.42979,1.367243 -6.35872,1.847606 -2.28684,1.182591 -8.9663,2.874729 -11.34752,2.874729 -2.71844,0 -8.86553,-1.649292 -13.09503,-3.513448 -2.38438,-1.050925 -9.12663,-2.172995 -13.0952,-2.179357 -5.93255,-0.0095 -10.40601,4.022475 -8.87186,7.996313 0.38463,0.996273 1.4521,4.375326 2.37216,7.508997 0.92005,3.133672 2.36289,7.691738 3.2063,10.129038 1.43381,4.14346 3.72989,12.511888 5.64514,20.574608 2.03251,8.556386 2.38933,13.727527 2.66934,38.685278 l 0.28842,25.70743 -2.03242,0.40649 c -2.99297,0.5986 -9.97495,0.4944 -10.3762,-0.15485 z"
       id="path545"
       sodipodi:nodetypes="csssssssscssssssssssscsssscssssssssssssssscscc" /><path
       style="fill:#dadada;fill-opacity:1;stroke-width:0.917"
       d="m 237.78046,26.557298 c 3.39686,10.190591 17.91073,17.293124 17.91073,17.293124 0,0 -12.96984,23.778046 -12.35223,32.733414 0.61761,8.955368 -3.08806,30.571774 -2.16164,37.365504 0.92642,6.79372 1.23522,29.33655 1.54403,31.49819 0.30881,2.16164 4.94089,5.86731 7.10253,2.77925 2.16164,-3.08806 -0.3088,-8.33776 2.47045,-32.42461 2.77925,-24.08685 10.19059,-50.644148 13.27865,-73.495777 3.08806,-22.851628 2.16164,-30.880579 -3.39686,-29.645356 -5.55851,1.235224 -24.39566,13.896261 -24.39566,13.896261 z"
       id="path946"
       sodipodi:nodetypes="ccsssssssc" /><path
       style="fill:#dadada;fill-opacity:1;stroke-width:0.639397"
       d="m 203.9738,190.14182 -6.02929,-5.64106 v -15.98335 -15.98336 l 24.23013,0.18335 24.23014,0.18336 0.18712,15.75449 0.18714,15.7545 -5.92325,5.68656 -5.92325,5.68656 H 222.4678 210.00308 Z"
       id="path1113" /><path
       style="fill:#ffffff;fill-opacity:1;stroke-width:1.32258"
       d="m 214.25659,147.02985 c -0.57253,-0.48847 -1.04098,-13.38783 -1.04098,-28.66526 0,-29.190626 -2.02321,-42.153898 -9.45557,-60.584211 -1.66994,-4.141049 -3.03627,-8.625551 -3.03627,-9.965561 0,-2.332779 0.33444,-2.323911 7.86521,0.208555 9.5853,3.223373 18.84356,3.361542 29.44844,0.439485 4.40226,-1.212997 8.39481,-1.872142 8.8723,-1.464765 0.4775,0.407377 -1.25807,6.945058 -3.85683,14.528182 -6.64029,19.37631 -7.65401,26.017403 -8.86592,58.082715 l -1.06994,28.30899 h -8.90972 c -4.90034,0 -9.37816,-0.39966 -9.95072,-0.88813 z"
       id="path1184" /><path
       style="fill:#fb4461;stroke-width:0.56635"
       d="m 206.10982,205.3539 c -1.1139,-0.48401 -5.42174,-4.25517 -9.57298,-8.38035 l -7.5477,-7.50035 -0.3088,-16.76314 -0.30881,-16.76314 -1.85283,-0.17936 c -5.54845,-0.53713 -7.10254,-2.87374 -7.10254,-10.67889 0,-3.02965 -0.23714,-5.50845 -0.52698,-5.50845 -0.28984,0 -0.70664,-2.12534 -0.92623,-4.72298 -0.21958,-2.59763 -0.63868,-5.02947 -0.93134,-5.4041 -0.29266,-0.37462 -0.6866,-1.6891 -0.87543,-2.92108 -0.18883,-1.23197 -0.90274,-3.3978 -1.58647,-4.81296 -0.68373,-1.41515 -1.42366,-3.39487 -1.64428,-4.39937 -0.22063,-1.0045 -0.5958,-1.82636 -0.83372,-1.82636 -0.23791,0 -0.97183,-1.38963 -1.63091,-3.08806 -0.65909,-1.69843 -1.38267,-3.08806 -1.60796,-3.08806 -0.22529,0 -0.57293,-0.48637 -0.77253,-1.08082 -0.36504,-1.08717 -1.41464,-2.83833 -2.56041,-4.27179 -0.33968,-0.42498 -1.59035,-2.08847 -2.77925,-3.69664 -1.1889,-1.608176 -4.10712,-4.942864 -6.48492,-7.41042 -2.37781,-2.467556 -4.74017,-5.019169 -5.2497,-5.670249 -1.38074,-1.764325 -4.88946,-6.031903 -6.2322,-7.580107 -0.64853,-0.747755 -1.17914,-1.71076 -1.17914,-2.140006 0,-0.429246 -0.21346,-0.873087 -0.47437,-0.98632 -0.70523,-0.306057 -4.46652,-6.376024 -4.46652,-7.20807 0,-0.39487 -0.21236,-0.717943 -0.47192,-0.717943 -0.496,0 -2.61614,-4.508076 -2.61614,-5.562741 0,-0.337358 -0.27792,-0.613375 -0.61761,-0.613375 -0.33969,0 -0.61932,-0.486369 -0.62142,-1.08082 -0.002,-0.594451 -0.41898,-1.876884 -0.92641,-2.849851 -0.50744,-0.972967 -0.92262,-2.293112 -0.92262,-2.933655 0,-0.640544 -0.24636,-1.164624 -0.54748,-1.164624 -0.30112,0 -0.74116,-1.291512 -0.97787,-2.870023 -0.23672,-1.578516 -0.66211,-3.315548 -0.94531,-3.860072 -0.92115,-1.771094 -2.47023,-10.513515 -2.47023,-13.940994 0,-1.838574 -0.27792,-3.51463 -0.61761,-3.724568 -0.80569,-0.497944 -0.80569,-11.236677 0,-11.73462 0.33969,-0.209939 0.61761,-2.024957 0.61761,-4.033375 0,-3.677259 1.51408,-12.4114045 2.47023,-14.24979952 0.2832,-0.54452343 0.70859,-2.28155598 0.94531,-3.86007238 0.23671,-1.5785102 0.67675,-2.8700225 0.97787,-2.8700225 0.30112,0 0.54748,-0.5394466 0.54748,-1.1987717 0,-0.6593251 0.25655,-1.357325 0.5701,-1.5511129 0.31355,-0.193788 0.75663,-1.201648 0.98463,-2.239693 0.22799,-1.038045 0.80351,-2.632928 1.27893,-3.544184 0.47542,-0.911256 0.86612,-2.004236 0.86821,-2.428844 0.002,-0.424608 0.21944,-0.772014 0.483,-0.772014 0.26355,0 1.02785,-1.248031 1.69843,-2.773402 0.67058,-1.525371 1.39527,-2.776035 1.61041,-2.779253 0.21515,-0.0032 0.55449,-0.492219 0.75409,-1.08667 0.51627,-1.53759 1.81121,-3.467082 2.71481,-4.045164 0.42461,-0.271644 0.77201,-0.770143 0.77201,-1.107776 0,-0.337632 0.69482,-1.363202 1.54403,-2.279043 0.84922,-0.915841 1.54403,-1.916267 1.54403,-2.22317 0,-0.828777 14.1447,-14.648342 16.8257,-16.438936 1.2715,-0.849216 2.31372,-1.752473 2.31604,-2.007238 0.002,-0.254764 0.39795,-0.463208 0.87917,-0.463208 0.48122,0 0.96759,-0.217573 1.08082,-0.483495 0.27727,-0.651188 7.59393,-5.127492 10.85258,-6.639569 1.43977,-0.668081 2.62096,-1.392206 2.62485,-1.609167 0.004,-0.216961 0.97983,-0.576961 2.16873,-0.8 1.1889,-0.223039 2.16402,-0.601376 2.16692,-0.840749 0.003,-0.239373 1.73994,-0.964066 3.86007,-1.610431 2.12014,-0.646364 4.13272,-1.3756 4.47241,-1.620523 0.33968,-0.244924 2.00723,-0.645347 3.70567,-0.88983 1.69843,-0.244483 3.36598,-0.665169 3.70567,-0.934857 1.76415,-1.400626 18.65734,-2.564926 27.0205,-1.862289 8.78595,0.738157 12.34291,1.242412 13.12425,1.860567 0.33969,0.268742 2.21568,0.686392 4.16888,0.928112 1.95319,0.24172 3.55126,0.615967 3.55126,0.831659 0,0.215693 1.73704,0.93967 3.86008,1.608838 2.12304,0.669169 4.55488,1.570658 5.4041,2.00331 0.84921,0.432652 2.0304,0.788352 2.62485,0.790445 0.59445,0.0021 1.08082,0.28173 1.08082,0.621417 0,0.339686 0.41688,0.617611 0.92641,0.617611 0.50953,0 0.92642,0.255843 0.92642,0.568539 0,0.312696 0.83378,0.751667 1.85284,0.97549 1.01906,0.223823 1.85283,0.599592 1.85283,0.835042 0,0.235451 1.04222,0.976992 2.31604,1.64787 1.27383,0.670878 2.6833,1.567855 3.13218,1.993282 0.44887,0.425428 1.08633,0.773504 1.41658,0.773504 0.33025,0 1.34977,0.694814 2.26562,1.544029 0.91584,0.849216 1.84671,1.544029 2.0686,1.544029 1.01346,0 13.34361,11.919303 16.10622,15.569546 0.77753,1.027361 2.17799,2.775398 3.11213,3.884526 0.93414,1.109127 1.69843,2.327312 1.69843,2.707076 0,0.379765 0.21473,0.690481 0.47717,0.690481 0.26244,0 1.02606,1.042219 1.69694,2.316043 0.67088,1.273824 1.56785,2.683302 1.99328,3.132173 0.42543,0.448871 0.77351,1.213166 0.77351,1.698432 0,0.485266 0.27792,0.882302 0.61761,0.882302 0.33968,0 0.61761,0.276019 0.61761,0.613375 0,0.990666 2.10562,5.562741 2.56185,5.562741 0.2297,0 0.60545,1.111701 0.83501,2.470446 0.22956,1.358746 0.67088,2.4704467 0.98071,2.4704467 0.30982,0 0.56332,0.6948131 0.56332,1.544029 0,0.8492159 0.24637,1.5440289 0.54749,1.5440289 0.30112,0 0.74116,1.2915123 0.97787,2.8700225 0.23671,1.5785164 0.67796,3.31554895 0.98056,3.86007238 0.74767,1.34542362 1.8759,8.07859412 2.23568,13.34228152 0.16253,2.377805 0.55178,4.58731 0.86501,4.910012 0.74291,0.765381 0.74355,11.456695 6.2e-4,11.456695 -0.31285,0 -0.70909,2.014958 -0.88055,4.477684 -0.41961,6.027395 -1.7325,14.050663 -2.29917,14.050663 -0.25235,0 -0.64995,1.389626 -0.88355,3.088058 -0.23359,1.698432 -0.67656,3.088058 -0.98437,3.088058 -0.30781,0 -0.55966,0.52408 -0.55966,1.164624 0,0.640543 -0.41517,1.960688 -0.92261,2.933655 -0.50744,0.972967 -0.92432,2.2554 -0.92642,2.849851 -0.002,0.594451 -0.22055,1.08082 -0.48545,1.08082 -0.26491,0 -1.02091,1.389627 -1.67999,3.088058 -0.65909,1.698432 -1.41509,3.088058 -1.67999,3.088058 -0.26491,0 -0.48165,0.323073 -0.48165,0.717943 0,0.832046 -3.76129,6.902013 -4.46653,7.20807 -0.2609,0.113233 -0.47436,0.490125 -0.47436,0.837544 0,0.558277 -2.92361,4.614114 -4.62321,6.413643 -0.34457,0.364835 -1.32131,1.558481 -2.17052,2.652549 -0.84922,1.094074 -3.48951,3.997571 -5.86731,6.452225 -2.37781,2.454654 -4.76214,5.030162 -5.29852,5.723357 -2.77987,3.592584 -9.19531,13.858984 -9.55434,15.289464 -0.22689,0.90403 -0.63825,1.64369 -0.91412,1.64369 -0.27587,0 -0.68209,0.82186 -0.90272,1.82636 -0.22063,1.0045 -0.94479,2.95161 -1.60926,4.32691 -0.66448,1.37529 -1.36235,3.40216 -1.55083,4.50415 -0.18848,1.10199 -0.57716,2.55946 -0.86373,3.23884 -1.28398,3.04392 -2.36932,10.28705 -2.42183,16.16225 -0.0653,7.31115 -1.73064,9.69128 -7.14762,10.21568 l -1.85283,0.17936 -0.30881,16.70981 -0.30881,16.70981 -7.5471,7.55518 c -4.15091,4.15534 -8.5193,7.96138 -9.70755,8.45786 -3.07131,1.28327 -28.74451,1.26249 -31.7091,-0.0257 z m 32.66675,-15.88844 5.18,-5.08218 0.18823,-13.49654 c 0.12987,-9.31292 -0.0263,-13.75492 -0.5036,-14.33012 -0.55565,-0.66951 -4.87695,-0.83719 -21.95334,-0.85186 l -21.26151,-0.0183 -0.35022,1.39537 c -0.19262,0.76746 -0.26466,7.24658 -0.1601,14.39805 l 0.19012,13.00269 5.19185,5.03252 5.19186,5.03252 h 11.55335 11.55337 l 5.17999,-5.08218 z m -35.33294,-45.93623 c 0.7334,-0.23473 0.8132,-4.23831 0.5178,-25.97552 -0.20416,-15.02246 -0.59149,-25.855461 -0.93236,-26.077011 -0.32071,-0.208444 -0.78045,-2.880318 -1.02165,-5.937495 -0.2412,-3.057178 -0.69818,-5.651146 -1.01551,-5.764373 -0.31732,-0.113233 -0.57695,-1.139049 -0.57695,-2.279598 0,-1.140543 -0.24586,-2.225668 -0.54635,-2.411384 -0.30049,-0.18571 -0.73984,-1.627956 -0.97633,-3.204991 -0.23649,-1.577034 -0.66663,-3.456444 -0.95587,-4.176474 -0.28924,-0.720024 -1.0072,-2.976691 -1.59546,-5.014809 -0.58826,-2.038118 -1.2698,-3.983594 -1.51452,-4.323281 -0.24473,-0.339686 -0.63219,-1.59035 -0.86105,-2.779252 -0.22885,-1.188902 -0.63445,-2.717491 -0.90133,-3.396864 -1.08052,-2.750514 -2.53088,-7.635093 -2.53088,-8.523583 0,-0.520554 -0.3474,-1.063675 -0.77201,-1.206936 -0.94522,-0.318917 1.18027,-4.706861 2.62485,-5.418832 3.50653,-1.728231 4.43858,-1.931778 7.48616,-1.63491 5.61014,0.546493 11.6598,1.759822 11.6598,2.338506 0,0.302222 0.38511,0.549495 0.85581,0.549495 0.4707,0 1.65189,0.415177 2.62485,0.922613 0.97297,0.507436 2.67229,0.924323 3.77627,0.926417 1.10398,0.0019 2.00724,0.28173 2.00724,0.621416 0,0.805885 5.98685,0.805885 6.48492,0 0.20994,-0.339686 1.05449,-0.617611 1.87679,-0.617611 1.64817,0 6.57051,-1.784867 7.11314,-2.57927 0.18885,-0.276467 2.07347,-0.683504 4.18804,-0.904523 2.11458,-0.221018 3.99142,-0.639277 4.17077,-0.929474 0.56536,-0.914776 7.14869,-0.572094 9.57503,0.498412 1.35025,0.595724 2.77012,1.851526 3.38557,2.994354 0.99108,1.84031 0.99391,2.162314 0.0436,4.951293 -0.55903,1.640636 -1.01641,3.48932 -1.01641,4.108179 0,0.61886 -0.25184,1.125202 -0.55965,1.125202 -0.30781,0 -0.75078,1.389626 -0.98437,3.088058 -0.2336,1.698432 -0.67657,3.088058 -0.98438,3.088058 -0.30781,0 -0.55965,0.678409 -0.55965,1.507578 0,0.829168 -0.25374,1.664401 -0.56388,1.856071 -0.31012,0.191669 -0.75844,1.528218 -0.99624,2.970106 -0.23781,1.441888 -0.64746,2.899538 -0.91033,3.239225 -0.26287,0.339686 -0.67252,1.797336 -0.91033,3.239224 -0.2378,1.441888 -0.68611,2.778437 -0.99624,2.970107 -0.31013,0.191669 -0.56387,1.149461 -0.56387,2.128425 0,0.978964 -0.25612,1.938226 -0.56915,2.131686 -0.31303,0.193467 -0.76367,2.224829 -1.00143,4.514136 -0.23776,2.289307 -0.64245,4.440306 -0.89933,4.779992 -1.0798,1.427906 -1.4374,9.435098 -1.48946,33.351028 l -0.0551,25.32207 3.37822,0.41228 c 4.77481,0.58273 5.42046,0.0668 5.72428,-4.57452 0.29485,-4.50431 1.78872,-12.9908 2.36578,-13.43969 0.21834,-0.16984 0.59504,-1.38524 0.83712,-2.70088 0.24207,-1.31564 0.67569,-2.84423 0.96358,-3.39686 1.28828,-2.473 2.4801,-5.59764 2.4801,-6.50223 0,-0.54312 0.247,-0.98748 0.54888,-0.98748 0.30188,0 0.73136,-0.97274 0.9544,-2.16164 0.22304,-1.18891 0.67086,-2.16164 0.99515,-2.16164 0.3243,0 0.58963,-0.41689 0.58963,-0.92642 0,-0.50953 0.27792,-0.92642 0.61761,-0.92642 0.33969,0 0.61761,-0.32307 0.61761,-0.71794 0,-0.83205 3.76129,-6.902014 4.46653,-7.208072 0.2609,-0.113233 0.47436,-0.539273 0.47436,-0.946761 0,-0.759718 1.65088,-3.051798 4.24289,-5.890816 0.805,-0.881715 2.19462,-2.567196 3.08806,-3.745518 0.89343,-1.178323 3.15837,-3.67965 5.03319,-5.558504 1.87483,-1.878855 4.37409,-4.666766 5.55391,-6.195355 1.17983,-1.528588 2.35565,-2.871894 2.61294,-2.98512 0.25729,-0.113233 0.46781,-0.47918 0.46781,-0.813228 0,-0.334041 0.68474,-1.505089 1.52164,-2.602325 2.07287,-2.717676 7.12492,-12.712651 7.12492,-14.095947 0,-0.615882 0.27793,-1.119785 0.61761,-1.119785 0.33969,0 0.61761,-0.539447 0.61761,-1.198772 0,-0.659325 0.26987,-1.365564 0.59971,-1.569413 0.32984,-0.203855 0.78253,-1.748841 1.00598,-3.433315 0.22346,-1.684467 0.6293,-3.062674 0.90188,-3.062674 0.27258,0 0.69009,-2.22951 0.92779,-4.954461 0.2377,-2.724958 0.67369,-5.10372 0.96886,-5.28615 0.70105,-0.433273 0.70105,-21.700703 0,-22.133976 -0.29517,-0.18243 -0.73116,-2.561192 -0.96886,-5.2861501 -0.2377,-2.7249517 -0.65521,-4.9544616 -0.92779,-4.9544616 -0.27258,0 -0.67842,-1.3782064 -0.90188,-3.06267404 -0.22345,-1.68447386 -0.67614,-3.22946006 -1.00598,-3.43331516 -0.32984,-0.2038488 -0.59971,-0.9100877 -0.59971,-1.5694127 0,-0.6593251 -0.27792,-1.1987718 -0.61761,-1.1987718 -0.33968,0 -0.61761,-0.469743 -0.61761,-1.0438747 0,-1.0210602 -3.63345,-8.8450099 -4.39115,-9.4555219 -0.21079,-0.169843 -0.57841,-0.934138 -0.81693,-1.698432 -0.23851,-0.764294 -0.69286,-1.389626 -1.00966,-1.389626 -0.31679,0 -0.57599,-0.289793 -0.57599,-0.643984 0,-0.354191 -1.18118,-2.196178 -2.62485,-4.093306 -1.44366,-1.897128 -3.04173,-4.038388 -3.55126,-4.758354 -1.36218,-1.924762 -10.45456,-10.885538 -11.04541,-10.885538 -0.27831,0 -1.35936,-0.764295 -2.40236,-1.698432 -2.72319,-2.438992 -3.28873,-2.856639 -5.68688,-4.199769 -1.18268,-0.662383 -2.52268,-1.551739 -2.97777,-1.976347 -0.45509,-0.424608 -1.22448,-0.772014 -1.70974,-0.772014 -0.48527,0 -0.88231,-0.210081 -0.88231,-0.466846 0,-0.256765 -0.90325,-0.849813 -2.00723,-1.317883 -1.10398,-0.468071 -2.84102,-1.20451 -3.86008,-1.63653 -1.01906,-0.432021 -3.24246,-1.253239 -4.94089,-1.82493 -1.69843,-0.571692 -3.55018,-1.279935 -4.11499,-1.573874 -0.56481,-0.293939 -2.51029,-0.723167 -4.32328,-0.95384 -1.81299,-0.230673 -3.57427,-0.631777 -3.91396,-0.891344 -2.40476,-1.837566 -30.31387,-1.835195 -32.73341,0.0028 -0.33969,0.258038 -2.13926,0.66297 -3.99904,0.89985 -1.85978,0.23688 -3.6663,0.652426 -4.01447,0.923435 -0.34818,0.27101 -1.42802,0.683022 -2.39964,0.915584 -2.52101,0.603413 -14.85659,6.180066 -15.83535,7.158822 -0.4329,0.432899 -2.60396,1.778868 -3.67832,2.280405 -0.90382,0.421926 -2.05793,1.3014 -4.70698,3.586905 -0.78744,0.679373 -2.34778,1.930036 -3.46743,2.779252 -2.70062,2.048335 -9.76367,9.320368 -9.76367,10.052563 0,0.317826 -0.69481,1.124406 -1.54403,1.792399 -0.84922,0.667994 -1.54403,1.61125 -1.54403,2.096125 0,0.484875 -0.218,0.881591 -0.48445,0.881591 -0.26645,0 -1.00981,0.903257 -1.65192,2.007237 -0.6421,1.103981 -1.32736,2.146411 -1.52278,2.316511 -0.60868,0.529796 -4.14907,7.239872 -6.48567,12.2922514 -0.53471,1.1561689 -0.97219,2.6152763 -0.97219,3.2424608 0,0.6271846 -0.25184,1.1403333 -0.55965,1.1403333 -0.30781,0 -0.75078,1.3896261 -0.98438,3.08805792 -0.23359,1.69843188 -0.64737,3.08805788 -0.9195,3.08805788 -0.27213,0 -0.64881,1.0422196 -0.83707,2.3160434 -0.18826,1.2738239 -0.61405,3.8446321 -0.9462,5.7129073 -0.77855,4.379132 -0.78238,22.764724 -0.006,27.174909 0.32904,1.868275 0.75605,4.300121 0.9489,5.404102 0.19286,1.10398 0.5604,2.007237 0.81675,2.007237 0.25635,0 0.64319,1.292105 0.85965,2.871344 0.21646,1.579239 0.62032,3.177309 0.89746,3.551267 0.27715,0.373958 1.02915,2.277992 1.67112,4.231189 0.64197,1.953197 1.36551,3.551267 1.60787,3.551267 0.24235,0 0.62376,0.833775 0.84759,1.852834 0.22382,1.019059 0.59723,1.852835 0.82979,1.852835 0.23257,0 0.92186,1.04222 1.53177,2.316043 2.0117,4.201544 2.94807,5.712908 3.53945,5.712908 0.32117,0 0.58393,0.297775 0.58393,0.661727 0,0.363946 0.3474,1.027965 0.77201,1.475592 0.42461,0.447626 1.32787,1.607013 2.00724,2.576416 0.67937,0.969403 3.00876,3.571005 5.17642,5.781344 2.16766,2.210333 4.94691,5.269456 6.17612,6.798045 1.2292,1.528588 2.5287,3.057177 2.88777,3.396863 1.21164,1.146232 3.97923,5.162548 3.97923,5.774632 0,0.334047 0.21347,0.699994 0.47437,0.813227 0.68034,0.295256 4.46652,6.361761 4.46652,7.156601 0,0.36656 0.20845,0.75912 0.46321,0.87235 0.6712,0.29831 2.62485,4.16625 2.62485,5.19681 0,0.482 0.25584,0.87637 0.56854,0.87637 0.3127,0 0.76492,0.89413 1.00495,1.98696 0.24003,1.09283 0.679,2.48246 0.97549,3.08806 0.29649,0.6056 0.79799,1.62273 1.11444,2.26028 0.31645,0.63756 0.77343,2.23563 1.0155,3.55127 0.24208,1.31564 0.63429,2.53104 0.87158,2.70088 0.50668,0.36267 1.80997,7.97733 2.27273,13.27865 0.1779,2.03812 0.58298,4.02182 0.90018,4.40822 0.54684,0.66616 10.0295,0.54942 12.216,-0.1504 z m 29.29646,-24.4846 c 0.20973,-18.26382 0.54126,-26.497388 1.24964,-31.03498 1.14594,-7.340394 2.49717,-14.460591 2.98875,-15.749095 0.93236,-2.443834 2.34601,-7.674806 2.34601,-8.681037 0,-0.620317 0.25374,-1.28467 0.56387,-1.476339 0.31013,-0.19167 0.75908,-1.528218 0.99766,-2.970107 0.23858,-1.441888 0.61017,-2.899538 0.82575,-3.239224 0.7532,-1.186803 2.40353,-6.797699 2.13448,-7.256936 -0.37082,-0.632935 -3.06376,-0.584316 -4.37574,0.079 -3.06558,1.549914 -5.9094,2.545844 -7.26951,2.545844 -0.83769,0 -1.52308,0.277925 -1.52308,0.617612 0,0.372308 -2.56122,0.617611 -6.44847,0.617611 -3.63277,0 -6.61514,-0.26968 -6.83017,-0.617611 -0.20994,-0.339687 -0.91173,-0.617612 -1.55953,-0.617612 -1.064,0 -4.08773,-1.111738 -6.92425,-2.545844 -0.58985,-0.29822 -1.80974,-0.542214 -2.71088,-0.542214 -1.61047,0 -1.63198,0.05453 -1.26002,3.195164 0.20814,1.757346 0.66374,3.480482 1.01245,3.829192 0.34871,0.348716 0.63402,1.256852 0.63402,2.018083 0,0.761231 0.26187,1.5459 0.58193,1.743709 0.32006,0.197809 0.76902,1.607254 0.99768,3.132106 0.22867,1.524846 0.65356,2.919413 0.9442,3.099045 0.29064,0.179626 0.71209,1.711031 0.93656,3.403126 0.22446,1.692095 0.64941,3.225668 0.94432,3.407932 0.29491,0.182269 0.53621,1.148769 0.53621,2.147781 0,0.999011 0.24899,1.816383 0.55333,1.816383 0.30432,0 0.75201,2.292883 0.99486,5.095296 0.24284,2.802412 0.752,5.478029 1.13147,5.945808 0.47745,0.588572 0.74919,9.053124 0.88233,27.483717 0.10581,14.64826 0.32569,27.25854 0.48861,28.02282 0.28933,1.35735 0.48876,1.38964 8.58414,1.38964 h 8.28792 z"
       id="path387" /></g></svg>
