<?xml version="1.0" encoding="UTF-8"?>
<svg id="OBJECT" xmlns="http://www.w3.org/2000/svg" viewBox="0 0 32 32">
  <defs>
    <style>
      .cls-1 {
        fill: #FD4360;
      }

      .cls-1, .cls-2 {
        stroke-width: 0px;
      }

      .cls-2 {
        fill: #dadada;
      }
    </style>
  </defs>
  <g>
    <path class="cls-2" d="m30,23v-13c0-1.65-1.35-3-3-3-.55,0-1,.45-1,1s.45,1,1,1,1,.45,1,1v13h-6.5c-.38,0-.73.21-.89.55l-.72,1.45h-7.76l-.72-1.45c-.17-.34-.52-.55-.89-.55h-6.5v-13c0-.55.45-1,1-1s1-.45,1-1-.45-1-1-1c-1.65,0-3,1.35-3,3v13c-.55,0-1,.45-1,1v4c0,1.65,1.35,3,3,3h24c1.65,0,3-1.35,3-3v-4c0-.55-.45-1-1-1Zm-1,5c0,.55-.45,1-1,1H4c-.55,0-1-.45-1-1v-3h6.88l.72,1.45c.17.34.52.55.89.55h9c.38,0,.73-.21.89-.55l.72-1.45h6.88v3Z"/>
    <path class="cls-2" d="m8,21.5h16c.55,0,1-.45,1-1s-.45-1-1-1H8c-.55,0-1,.45-1,1s.45,1,1,1Z"/>
  </g>
  <path class="cls-1" d="m10.65,14.54h4.19c.55,0,1,.45,1,1s-.45,1-1,1h-1.51l.04.06c.59.88,1.57,1.41,2.63,1.41s2.04-.53,2.63-1.41l1.37-2.06h1.35c2.14,0,3.88-1.74,3.88-3.88v-5.77c0-2.14-1.74-3.88-3.88-3.88h-10.69c-2.14,0-3.88,1.74-3.88,3.88v5.77c0,2.14,1.74,3.88,3.88,3.88Zm1.15-9.79h8.38c.55,0,1,.45,1,1s-.45,1-1,1h-8.38c-.55,0-1-.45-1-1s.45-1,1-1Zm0,4.04h8.38c.55,0,1,.45,1,1s-.45,1-1,1h-8.38c-.55,0-1-.45-1-1s.45-1,1-1Z"/>
</svg>