<?xml version="1.0" encoding="UTF-8"?>
<svg id="OBJECT" xmlns="http://www.w3.org/2000/svg" viewBox="0 0 512 512">
  <defs>
    <style>
      .cls-1 {
        fill: #FD4360;
      }

      .cls-2 {
        fill: #dadada;
      }
    </style>
  </defs>
  <g>
    <path class="cls-2" d="M227.5,140h-90c-17.92,0-32.5,14.58-32.5,32.5v45c0,4.14,3.36,7.5,7.5,7.5h115c17.92,0,32.5-14.58,32.5-32.5v-20c0-17.92-14.58-32.5-32.5-32.5Zm-27.5,15v55h-35v-55h35Zm-80,17.5c0-9.65,7.85-17.5,17.5-17.5h12.5v55h-30v-37.5Zm125,20c0,9.65-7.85,17.5-17.5,17.5h-12.5v-55h12.5c9.65,0,17.5,7.85,17.5,17.5v20Z"/>
    <path class="cls-2" d="M152.5,240h-40c-4.14,0-7.5,3.36-7.5,7.5s3.36,7.5,7.5,7.5h40c4.14,0,7.5-3.36,7.5-7.5s-3.36-7.5-7.5-7.5Z"/>
    <path class="cls-2" d="M222.5,240h-10c-4.14,0-7.5,3.36-7.5,7.5s3.36,7.5,7.5,7.5h10c4.14,0,7.5-3.36,7.5-7.5s-3.36-7.5-7.5-7.5Z"/>
    <path class="cls-2" d="M187.5,240h-10c-4.14,0-7.5,3.36-7.5,7.5s3.36,7.5,7.5,7.5h10c4.14,0,7.5-3.36,7.5-7.5s-3.36-7.5-7.5-7.5Z"/>
    <path class="cls-2" d="M267.5,100h-4.34l-14.3-50.06c-3.36-11.74-14.23-19.94-26.44-19.94h-57.41v-7.5c0-12.41-10.09-22.5-22.5-22.5h-20c-12.41,0-22.5,10.09-22.5,22.5v27.5H37.5C16.82,50,0,66.82,0,87.5v80c0,20.68,16.82,37.5,37.5,37.5h22.5v52.5c0,17.64,12.25,32.47,28.69,36.44l-38.56,209.2c-.4,2.19,.19,4.45,1.61,6.16,1.42,1.71,3.54,2.7,5.76,2.7h73.35c13.27,0,24.64-9.47,27.04-22.52l21.1-114.48h18.5c20.68,0,37.5-16.82,37.5-37.5v-42.5h32.5c20.68,0,37.5-16.82,37.5-37.5v-120c0-20.68-16.82-37.5-37.5-37.5Zm-77.5-55v16.64c0,3.41,2.3,6.39,5.6,7.26l14.4,3.76v14.84c0,4.14,3.36,7.5,7.5,7.5s7.5-3.36,7.5-7.5v-20.63c0-3.41-2.3-6.39-5.6-7.26l-14.4-3.76v-10.85h17.41c5.55,0,10.49,3.73,12.02,9.07l13.12,45.93h-82.56V45h25ZM122.5,15h20c4.14,0,7.5,3.36,7.5,7.5V100h-35V22.5c0-4.14,3.36-7.5,7.5-7.5Zm-62.5,122.5v52.5h-22.5c-12.41,0-22.5-10.09-22.5-22.5V87.5c0-12.41,10.09-22.5,22.5-22.5h62.5v35h-2.5c-20.68,0-37.5,16.82-37.5,37.5Zm24.02,264.5h13.48c6.89,0,12.5,5.61,12.5,12.5v82.5h-43.49l17.51-95Zm59.12,84.77c-1.09,5.93-6.26,10.23-12.29,10.23h-5.85v-82.5c0-15.16-12.34-27.5-27.5-27.5h-10.71l16.96-92h74.75l-35.35,191.77Zm76.86-149.27c0,12.41-10.09,22.5-22.5,22.5h-15.74l11.98-65h26.26v42.5Zm70-80c0,12.41-10.09,22.5-22.5,22.5H97.5c-12.41,0-22.5-10.09-22.5-22.5v-120c0-12.41,10.09-22.5,22.5-22.5h170c12.41,0,22.5,10.09,22.5,22.5v120Z"/>
  </g>
  <g>
    <circle class="cls-1" cx="482" cy="197.5" r="30"/>
    <path class="cls-1" d="M404.5,145c-4.14,0-7.5,3.36-7.5,7.5v15.04l-20-2.53v64.99l20-2.53v15.04c0,4.14,3.36,7.5,7.5,7.5s7.5-3.36,7.5-7.5v-90c0-4.14-3.36-7.5-7.5-7.5Z"/>
    <path class="cls-1" d="M354.5,130c-4.14,0-7.5,3.36-7.5,7.5v23.71l-27-3.42v79.42l27-3.42v23.71c0,4.14,3.36,7.5,7.5,7.5s7.5-3.36,7.5-7.5v-120c0-4.14-3.36-7.5-7.5-7.5Z"/>
    <path class="cls-1" d="M427,171.33v52.33l16.97-2.15c-4.41-6.96-6.97-15.19-6.97-24.02s2.56-17.06,6.97-24.02l-16.97-2.15Z"/>
  </g>
</svg>