<?xml version="1.0" encoding="UTF-8"?>
<svg id="OBJECT" xmlns="http://www.w3.org/2000/svg" viewBox="0 0 32 32">
  <defs>
    <style>
      .cls-1 {
        fill: #FD4360;
      }

      .cls-1, .cls-2 {
        stroke-width: 0px;
      }

      .cls-2 {
        fill: #dadada;
      }
    </style>
  </defs>
  <g>
    <path class="cls-2" d="m12,12.5c.55,0,1-.45,1-1v-.5c0-.55-.45-1-1-1s-1,.45-1,1v.5c0,.55.45,1,1,1Z"/>
    <path class="cls-2" d="m27.5,10.5c-.96,0-1.83.39-2.46,1.01l-2.83-.54v-1.47c0-.55-.45-1-1-1s-1,.45-1,1v1.09l-2.21-.42v-2.17c0-.55-.45-1-1-1h-1.38l-2.17-4.34c-.51-1.02-1.54-1.66-2.68-1.66h-2.76c-.55,0-1,.45-1,1v5.08c-3.39.49-6,3.4-6,6.92,0,3.86,3.14,7,7,7h9c.55,0,1-.45,1-1v-2.17l2.21-.42v1.09c0,.55.45,1,1,1s1-.45,1-1v-1.47l2.83-.54c.63.63,1.5,1.01,2.46,1.01,1.93,0,3.5-1.57,3.5-3.5s-1.57-3.5-3.5-3.5ZM10.76,3c.38,0,.72.21.89.55l1.72,3.45h-4.38V3h1.76Zm5.24,16h-3v-4.6c0-.55-.45-1-1-1s-1,.45-1,1v4.6h-3c-2.76,0-5-2.24-5-5s2.24-5,5-5h8v10Zm2-3.21v-3.58l2.21.42v2.74l-2.21.42Zm4.21-2.78l1.85.35c-.04.21-.06.42-.06.64s.03.43.06.64l-1.85.35v-1.98Zm5.29,2.49c-.83,0-1.5-.67-1.5-1.5s.67-1.5,1.5-1.5,1.5.67,1.5,1.5-.67,1.5-1.5,1.5Z"/>
    <path class="cls-2" d="m7,13h-1c-.55,0-1,.45-1,1s.45,1,1,1h1c.55,0,1-.45,1-1s-.45-1-1-1Z"/>
  </g>
  <g>
    <path class="cls-1" d="m1.07,29.64c-.12.31-.08.65.11.92.19.27.49.43.82.43h4.54l3.08-8H3.62l-2.55,6.64Z"/>
    <path class="cls-1" d="m11.76,23l-1.54,4h2.77c1.1,0,2-.9,2-2v-2h-3.24Z"/>
  </g>
</svg>