<?xml version="1.0" encoding="UTF-8"?>
<svg id="OBJECT" xmlns="http://www.w3.org/2000/svg" viewBox="0 0 32 32">
  <defs>
    <style>
      .cls-1 {
        fill: #FD4360;
      }

      .cls-1, .cls-2 {
        stroke-width: 0px;
      }

      .cls-2 {
        fill: #dadada;
      }
    </style>
  </defs>
  <g>
    <path class="cls-2" d="m30.71,1.29c-.21-.21-.51-.32-.81-.29l-5.02.52c-4.73.49-9.02,2.65-12.2,6.04h-4.27c-.94,0-1.83.37-2.49,1.03-.04.04-.07.08-.1.12L1.19,15.12c-.23.32-.25.74-.06,1.08.18.32.51.51.87.51.03,0,.05,0,.08,0l4.61-.37-.76,1.2c-.25.4-.19.91.14,1.24l7.15,7.15c.19.19.45.29.71.29.18,0,.37-.05.53-.16l1.2-.76-.37,4.61c-.03.39.17.76.51.95.15.09.32.13.49.13.21,0,.41-.06.58-.19l6.4-4.61s.08-.07.12-.1c.67-.67,1.03-1.55,1.03-2.49v-4.27c3.39-3.18,5.55-7.47,6.04-12.21l.52-5.02c.03-.3-.07-.6-.29-.81ZM4.07,14.54l3.3-4.57c.28-.26.64-.4,1.03-.4h2.62c-.22.31-.43.62-.64.95l-2.35,3.71-3.96.31Zm9.99,9.41l-6.01-6.01,1.51-2.39,6.89,6.89-2.39,1.51Zm8.36-.35c0,.38-.14.75-.4,1.03l-4.57,3.3.31-3.96,3.71-2.35c.32-.2.64-.42.95-.64v2.62Zm-2.02-3.67l-2.23,1.41-7.52-7.52,1.41-2.23c2.13-3.36,5.27-5.83,8.91-7.13,3.38.53,6.03,3.17,6.56,6.56-1.3,3.65-3.77,6.79-7.13,8.91Zm8.07-13.01c-.02.17-.06.34-.08.51-.89-1.6-2.22-2.93-3.82-3.82.17-.02.33-.06.51-.08l3.79-.4-.4,3.79Z"/>
    <path class="cls-2" d="m16.59,9.05c-.85.85-1.32,1.98-1.32,3.18s.47,2.33,1.32,3.18c.85.85,1.98,1.32,3.18,1.32s2.33-.47,3.18-1.32c1.75-1.75,1.75-4.61,0-6.36-1.75-1.75-4.61-1.76-6.36,0Zm4.95,4.95c-.94.94-2.59.94-3.54,0-.47-.47-.73-1.1-.73-1.77s.26-1.3.73-1.77,1.13-.73,1.77-.73,1.28.24,1.77.73c.97.97.97,2.56,0,3.54Z"/>
  </g>
  <path class="cls-1" d="m8.38,25.04c-.2.2-.45.29-.71.29s-.51-.1-.71-.29c-.39-.39-.39-1.02,0-1.41l.97-.97-2.07-2.07c-3.27,1.76-3.08,2.97-3.51,6.83l-.14,1.28c-.03.3.07.6.29.82.19.19.44.29.71.29.04,0,.07,0,.11,0l1.28-.14c3.86-.43,5.07-.24,6.83-3.51l-2.07-2.07-.97.97Z"/>
</svg>