<?xml version="1.0" encoding="UTF-8"?>
<svg id="OBJECT" xmlns="http://www.w3.org/2000/svg" viewBox="0 0 32 32">
  <defs>
    <style>
      .cls-1 {
        fill: #FD4360;
      }

      .cls-1, .cls-2 {
        stroke-width: 0px;
      }

      .cls-2 {
        fill: #dadada;
      }
    </style>
  </defs>
  <g>
    <path class="cls-2" d="m27.91,14.39c-.23-.5-.83-.72-1.33-.48l-.37.17-.55-.51c-1.88-1.76-3-4.16-3.14-6.73l-.04-.75.37-.17c.5-.23.72-.83.48-1.33-.23-.5-.83-.72-1.33-.48l-10.79,5.03c-.5.23-.72.83-.48,1.33.17.36.53.58.91.58.14,0,.29-.03.42-.09l.37-.17.55.51c.28.26.54.55.79.84l-11.25,5.24c-1.31.61-1.88,2.17-1.27,3.49.44.95,1.39,1.51,2.38,1.51.37,0,.75-.08,1.1-.25l11.24-5.24c.06.38.11.76.14,1.14l.04.75-.37.17c-.5.23-.72.83-.48,1.33.17.36.53.58.91.58.14,0,.29-.03.42-.09l10.79-5.03c.5-.23.72-.83.48-1.33ZM3.89,20.3c-.31.14-.68,0-.83-.3-.07-.15-.08-.32-.02-.48.06-.16.17-.28.32-.35l1.55-.72.53,1.13-1.55.72Zm3.36-1.57l-.53-1.13,8.19-3.82c.2.37.37.74.53,1.13l-8.18,3.82Zm7.13-8.88l6.15-2.87c.18,3.06,1.51,5.89,3.73,8l-6.16,2.87c-.18-3.06-1.51-5.89-3.73-8Z"/>
    <path class="cls-2" d="m20.45,12.49l-.46-.98c-.23-.5-.83-.72-1.33-.48s-.72.83-.48,1.33l.46.98c.17.36.53.58.91.58.14,0,.29-.03.42-.09.5-.23.72-.83.48-1.33Z"/>
  </g>
  <path class="cls-1" d="m30,26h-1v-2c0-1.1-.9-2-2-2h-7c-1.1,0-2,.9-2,2v2h-1c-.55,0-1,.45-1,1s.45,1,1,1h13c.55,0,1-.45,1-1s-.45-1-1-1Z"/>
</svg>