<?xml version="1.0" encoding="UTF-8"?>
<svg id="OBJECT" xmlns="http://www.w3.org/2000/svg" viewBox="0 0 32 32">
  <defs>
    <style>
      .cls-1 {
        fill: #FD4360;
      }

      .cls-2 {
        fill: #dadada;
      }
    </style>
  </defs>
  <path class="cls-2" d="M25,29h-2.12l-1.75-14h.87c.55,0,1-.45,1-1s-.45-1-1-1H10c-.55,0-1,.45-1,1s.45,1,1,1h.87l-1.75,14h-2.12c-.55,0-1,.45-1,1s.45,1,1,1H25c.55,0,1-.45,1-1s-.45-1-1-1Zm-12.97-7.17c3.48-.21,6.03-1.96,7.52-3.37l.36,2.92c-.48,.83-2.61,3.82-8.29,3.67l.4-3.23Zm7.09-6.83l.11,.87c-.7,.88-3.14,3.55-6.95,3.94l.6-4.81h6.23Zm-7.74,12.04c.23,0,.47,.03,.68,.03,4.22,0,6.76-1.55,8.2-2.94l.61,4.87H11.13l.25-1.96Z"/>
  <g>
    <path class="cls-1" d="M22,6h-.59L16.71,1.29c-.39-.39-1.02-.39-1.41,0l-4.71,4.71h-.59c-.55,0-1,.45-1,1s.45,1,1,1h1v4h10v-4h1c.55,0,1-.45,1-1s-.45-1-1-1Zm-7,3.75c0,.55-.45,1-1,1s-1-.45-1-1v-.5c0-.55,.45-1,1-1s1,.45,1,1v.5Zm4,0c0,.55-.45,1-1,1s-1-.45-1-1v-.5c0-.55,.45-1,1-1s1,.45,1,1v.5Z"/>
    <path class="cls-1" d="M25.2,9.8c.1,0,.21-.02,.32-.05l1.8-.6c.52-.17,.81-.74,.63-1.26-.17-.52-.74-.81-1.27-.63l-1.8,.6c-.52,.17-.81,.74-.63,1.26,.14,.42,.53,.68,.95,.68Z"/>
    <path class="cls-1" d="M27.32,11.85l-1.8-.6c-.53-.18-1.09,.11-1.27,.63-.17,.52,.11,1.09,.63,1.26l1.8,.6c.11,.04,.21,.05,.32,.05,.42,0,.81-.27,.95-.68,.17-.52-.11-1.09-.63-1.26Z"/>
    <path class="cls-1" d="M7.12,7.85l-1.8-.6c-.53-.18-1.09,.11-1.27,.63-.17,.52,.11,1.09,.63,1.26l1.8,.6c.11,.04,.21,.05,.32,.05,.42,0,.81-.27,.95-.68,.17-.52-.11-1.09-.63-1.26Z"/>
    <path class="cls-1" d="M6.48,11.25l-1.8,.6c-.52,.17-.81,.74-.63,1.26,.14,.42,.53,.68,.95,.68,.1,0,.21-.02,.32-.05l1.8-.6c.52-.17,.81-.74,.63-1.26-.17-.52-.74-.81-1.27-.63Z"/>
  </g>
</svg>