<?xml version="1.0" encoding="UTF-8"?>
<svg id="OBJECT" xmlns="http://www.w3.org/2000/svg" viewBox="0 0 512 512">
  <defs>
    <style>
      .cls-1 {
        fill: #FD4360;
      }

      .cls-2 {
        fill: #dadada;
      }
    </style>
  </defs>
  <g>
    <path class="cls-2" d="M474.5,0H204.5c-20.68,0-37.5,16.82-37.5,37.5v230c0,20.68,16.82,37.5,37.5,37.5h8.65l6.84,41.03c1.83,10.99,11.25,18.97,22.39,18.97,6.76,0,13.12-2.98,17.44-8.17l43.19-51.83h171.49c20.68,0,37.5-16.82,37.5-37.5V37.5c0-20.68-16.82-37.5-37.5-37.5Zm22.5,267.5c0,12.41-10.09,22.5-22.5,22.5h-215c-4.14,0-7.5,3.36-7.5,7.5s3.36,7.5,7.5,7.5h23.99l-35.19,42.23c-1.47,1.76-3.62,2.77-5.92,2.77-3.78,0-6.98-2.71-7.6-6.44l-7.88-47.3c-.6-3.62-3.73-6.27-7.4-6.27h-15c-12.41,0-22.5-10.09-22.5-22.5V37.5c0-12.41,10.09-22.5,22.5-22.5H474.5c12.41,0,22.5,10.09,22.5,22.5v230Z"/>
    <path class="cls-2" d="M449.5,80h-42.5v-17.5c0-12.41-10.09-22.5-22.5-22.5h-90c-12.41,0-22.5,10.09-22.5,22.5v17.5h-42.5c-4.14,0-7.5,3.36-7.5,7.5v52.59c0,7.52,3.84,14.57,10,18.7v73.71c0,12.41,10.09,22.5,22.5,22.5h170c12.41,0,22.5-10.09,22.5-22.5v-73.71c6.16-4.13,10-11.18,10-18.7v-52.59c0-4.14-3.36-7.5-7.5-7.5Zm-162.5-17.5c0-4.14,3.36-7.5,7.5-7.5h90c4.14,0,7.5,3.36,7.5,7.5v17.5h-105v-17.5Zm-50,32.5h205v45.09c0,2.86-1.66,5.51-4.24,6.75l-46.36,22.41c-1.01,.49-2.14,.75-3.26,.75h-97.28c-1.12,0-2.25-.26-3.26-.75l-46.36-22.41c-2.57-1.24-4.24-3.9-4.24-6.75v-45.09Zm90,90h25v12.5c0,6.89-5.61,12.5-12.5,12.5s-12.5-5.61-12.5-12.5v-12.5Zm97.5,55H254.5c-4.14,0-7.5-3.36-7.5-7.5v-66.21l34.07,16.47c3.04,1.47,6.42,2.24,9.79,2.24h21.14v12.5c0,15.16,12.34,27.5,27.5,27.5s27.5-12.34,27.5-27.5v-12.5h21.14c3.37,0,6.76-.78,9.79-2.24l34.07-16.47v66.21c0,4.14-3.36,7.5-7.5,7.5Z"/>
    <path class="cls-2" d="M294.5,135h90c4.14,0,7.5-3.36,7.5-7.5s-3.36-7.5-7.5-7.5h-90c-4.14,0-7.5,3.36-7.5,7.5s3.36,7.5,7.5,7.5Z"/>
    <path class="cls-2" d="M259.5,135h10c4.14,0,7.5-3.36,7.5-7.5s-3.36-7.5-7.5-7.5h-10c-4.14,0-7.5,3.36-7.5,7.5s3.36,7.5,7.5,7.5Z"/>
    <path class="cls-2" d="M409.5,135h10c4.14,0,7.5-3.36,7.5-7.5s-3.36-7.5-7.5-7.5h-10c-4.14,0-7.5,3.36-7.5,7.5s3.36,7.5,7.5,7.5Z"/>
  </g>
  <path class="cls-1" d="M304.74,395.06l-40.25-9.85c-11.62-2.84-23.76-.35-33.32,6.85l-15.61,11.76c8.82,6.52,17.87,12.8,27.16,18.81,3.48,2.25,4.47,6.9,2.22,10.37-1.44,2.22-3.84,3.42-6.3,3.42-1.4,0-2.81-.39-4.07-1.21-64.46-41.75-118.31-95.6-160.05-160.05-2.25-3.48-1.26-8.12,2.22-10.37,3.47-2.25,8.12-1.26,10.37,2.22,6.62,10.22,13.55,20.15,20.79,29.81l12.05-16c7.2-9.55,9.69-21.7,6.85-33.32l-9.85-40.25c-4.89-19.99-23.94-32.82-44.31-29.84l-38.68,5.66C13.31,186.11-1.55,204.7,.13,225.41c4.77,58.83,30.93,107.31,52.03,137.62,21.4,30.74,41.64,49.16,44.82,51.98,2.82,3.18,21.24,23.42,51.98,44.82,30.31,21.1,78.79,47.26,137.62,52.03,1.07,.09,2.13,.13,3.19,.13,19.4,0,36.27-14.38,39.13-33.96l5.67-38.68c2.98-20.36-9.84-39.41-29.84-44.31Z"/>
</svg>