<?xml version="1.0" encoding="UTF-8" standalone="no"?>
<svg
   id="OBJECT"
   viewBox="0 0 32 32"
   version="1.1"
   sodipodi:docname="Like.svg"
   inkscape:version="1.2.2 (732a01da63, 2022-12-09)"
   xml:space="preserve"
   xmlns:inkscape="http://www.inkscape.org/namespaces/inkscape"
   xmlns:sodipodi="http://sodipodi.sourceforge.net/DTD/sodipodi-0.dtd"
   xmlns="http://www.w3.org/2000/svg"
   xmlns:svg="http://www.w3.org/2000/svg"><sodipodi:namedview
     id="namedview33"
     pagecolor="#505050"
     bordercolor="#ffffff"
     borderopacity="1"
     inkscape:showpageshadow="0"
     inkscape:pageopacity="0"
     inkscape:pagecheckerboard="1"
     inkscape:deskcolor="#505050"
     showgrid="false"
     inkscape:zoom="1.1449053"
     inkscape:cx="-126.21131"
     inkscape:cy="77.735686"
     inkscape:window-width="1920"
     inkscape:window-height="1009"
     inkscape:window-x="-8"
     inkscape:window-y="-8"
     inkscape:window-maximized="1"
     inkscape:current-layer="OBJECT" /><defs
     id="defs4"><rect
       x="-21.453739"
       y="9.2802434"
       width="25.329605"
       height="24.45617"
       id="rect348" /><style
       id="style2">
      .cls-1 {
        fill: #FD4360;
      }

      .cls-1, .cls-2 {
        stroke-width: 0px;
      }

      .cls-2 {
        fill: #dadada;
      }
    </style></defs><path
     style="fill:#fd4360;fill-opacity:1;stroke-width:0.146842;stroke-opacity:0.976471"
     d="m 15.000028,8.9566808 0.0158,-2.8545932 h -0.09057 l -0.0151,-1.600074 0.08302,-0.00755 0.02264,-0.1358549 c 0,0 0.415112,-0.4603986 1.00382,-0.5736119 0.588704,-0.1132129 1.162317,-0.075476 1.162317,-0.075476 0,0 1.192507,0.1056656 1.871785,1.1094854 0.679275,1.0038205 0.905701,2.0302826 0.905701,2.0302826 0,0 0.150951,0.9962732 0.158499,1.7963098 0.0075,0.8000367 -0.294354,3.2529804 -0.294354,3.2529804 l 5.736114,0.02264 c 0,0 0.845322,0.09812 1.584978,0.603802 0.739657,0.505684 0.913251,1.403839 0.913251,1.403839 0,0 0.08302,0.943439 0.0075,1.147223 -0.07547,0.203782 -0.150949,0.626444 -0.218877,0.754751 -0.06792,0.128309 -0.279258,0.415114 -0.279258,0.415114 0,0 0.63399,0.528326 0.717014,0.830227 0.08302,0.301901 0.158498,0.626444 0.158498,0.626444 0,0 0.143403,0.845322 -0.11321,1.494409 -0.256617,0.649086 -0.784943,1.011367 -0.784943,1.011367 0,0 0.233972,-0.09057 -0.03774,0.04529 -0.271711,0.135855 -0.294354,0.166046 -0.241522,0.264164 0.05284,0.09811 0.188689,0.39247 0.203784,0.505683 0.0151,0.113211 0.158498,0.7623 -0.143403,1.456671 -0.3019,0.694372 -0.860416,1.041557 -0.860416,1.041557 0,0 0.06039,0.0151 -0.21133,0.128309 -0.271712,0.113211 -0.384924,0.113211 -0.384924,0.113211 l 0.0151,0.347184 c 0,0 0.181142,0.898155 -0.04529,1.40384 -0.226426,0.505683 -0.27926,0.603801 -0.27926,0.603801 0,0 -0.510302,0.946681 -1.625715,1.10145 -1.115411,0.154772 -9.589898,0.03823 -9.589898,0.03823 0,0 -1.227999,-0.16631 -2.071231,-0.571914 -0.84323,-0.405605 -1.163444,-1.312878 -1.163444,-1.312878 0,0 -0.04094,-0.187001 -0.04094,-0.353047 0,-0.166046 -0.03019,-8.313592 -0.03019,-8.313592 0,0 0.09057,-0.981177 0.784941,-2.27935 0.694372,-1.298173 3.017589,-4.238442 3.176797,-5.470319 z"
     id="path361" /><rect
     style="fill:#fd4360;fill-opacity:1;stroke-width:0.203132;stroke-opacity:0.976471"
     id="rect415"
     width="6.6418157"
     height="14.125919"
     x="2.8567848"
     y="14.309274"
     ry="1.3887434" /><circle
     style="fill:#dadada;fill-opacity:1;stroke-width:0.146842;stroke-opacity:0.976471"
     id="path516"
     cx="4.9398947"
     cy="26.472839"
     r="1.0566527" /></svg>
