<?xml version="1.0" encoding="UTF-8"?>
<svg id="OBJECT" xmlns="http://www.w3.org/2000/svg" viewBox="0 0 32 32">
  <defs>
    <style>
      .cls-1 {
        fill: #FD4360;
      }

      .cls-1, .cls-2 {
        stroke-width: 0px;
      }

      .cls-2 {
        fill: #dadada;
      }
    </style>
  </defs>
  <g>
    <path class="cls-2" d="m28.5,12H3.5c-1.38,0-2.5,1.12-2.5,2.5v3c0,1.38,1.12,2.5,2.5,2.5h25c1.38,0,2.5-1.12,2.5-2.5v-3c0-1.38-1.12-2.5-2.5-2.5Zm-11.5,2h5v4h-5v-4Zm-2,4h-5v-4h5v4Zm-12-.5v-3c0-.28.22-.5.5-.5h4.5v4H3.5c-.28,0-.5-.22-.5-.5Zm26,0c0,.28-.22.5-.5.5h-4.5v-4h4.5c.28,0,.5.22.5.5v3Z"/>
    <path class="cls-2" d="m4.5,7.84v2.16c0,.55.45,1,1,1s1-.45,1-1v-2.16c1.44-.43,2.5-1.76,2.5-3.34,0-1.93-1.57-3.5-3.5-3.5s-3.5,1.57-3.5,3.5c0,1.58,1.06,2.9,2.5,3.34Zm1-4.84c.83,0,1.5.67,1.5,1.5s-.67,1.5-1.5,1.5-1.5-.67-1.5-1.5.67-1.5,1.5-1.5Z"/>
  </g>
  <path class="cls-1" d="m20.75,24.16v-2.16c0-.55-.45-1-1-1s-1,.45-1,1v2.16c-1.44.43-2.5,1.76-2.5,3.34,0,1.93,1.57,3.5,3.5,3.5s3.5-1.57,3.5-3.5c0-1.58-1.06-2.9-2.5-3.34Z"/>
</svg>