<?xml version="1.0" encoding="UTF-8"?>
<svg id="OBJECT" xmlns="http://www.w3.org/2000/svg" viewBox="0 0 32 32">
  <defs>
    <style>
      .cls-1 {
        fill: #FD4360;
      }

      .cls-1, .cls-2 {
        stroke-width: 0px;
      }

      .cls-2 {
        fill: #dadada;
      }
    </style>
  </defs>
  <g>
    <path class="cls-2" d="m28.61,23h-.89l-.46-1.37c-.33-.98-1.24-1.63-2.27-1.63s-1.94.66-2.27,1.63l-.46,1.37h-.89c-1.32,0-2.39,1.07-2.39,2.39v3.22c0,1.32,1.07,2.39,2.39,2.39h7.23c1.32,0,2.39-1.07,2.39-2.39v-3.22c0-1.32-1.07-2.39-2.39-2.39Zm.39,5.61c0,.21-.17.39-.39.39h-7.23c-.21,0-.39-.17-.39-.39v-3.22c0-.21.17-.39.39-.39h1.61c.43,0,.81-.28.95-.68l.68-2.05c.11-.32.63-.32.74,0l.68,2.05c.14.41.52.68.95.68h1.61c.21,0,.39.17.39.39v3.22Z"/>
    <path class="cls-2" d="m27,26h-4c-.55,0-1,.45-1,1s.45,1,1,1h4c.55,0,1-.45,1-1s-.45-1-1-1Z"/>
    <path class="cls-2" d="m28.5,12.75H3.5c-1.38,0-2.5,1.12-2.5,2.5v1.5c0,1.38,1.12,2.5,2.5,2.5h25c1.38,0,2.5-1.12,2.5-2.5v-1.5c0-1.38-1.12-2.5-2.5-2.5Zm-9.5,2v2.5h-6v-2.5h6Zm-16,2v-1.5c0-.28.22-.5.5-.5h7.5v2.5H3.5c-.28,0-.5-.22-.5-.5Zm26,0c0,.28-.22.5-.5.5h-7.5v-2.5h7.5c.28,0,.5.22.5.5v1.5Z"/>
  </g>
  <path class="cls-1" d="m10.61,1H3.39c-1.32,0-2.39,1.07-2.39,2.39v3.22c0,1.32,1.07,2.39,2.39,2.39h.89l.46,1.37c.33.98,1.24,1.63,2.27,1.63s1.94-.66,2.27-1.63l.46-1.37h.89c1.32,0,2.39-1.07,2.39-2.39v-3.22c0-1.32-1.07-2.39-2.39-2.39Zm-1.61,5h-4c-.55,0-1-.45-1-1s.45-1,1-1h4c.55,0,1,.45,1,1s-.45,1-1,1Z"/>
</svg>