<?xml version="1.0" encoding="UTF-8"?>
<svg id="OBJECT" xmlns="http://www.w3.org/2000/svg" viewBox="0 0 32 32">
  <defs>
    <style>
      .cls-1 {
        fill: #FD4360;
      }

      .cls-1, .cls-2 {
        stroke-width: 0px;
      }

      .cls-2 {
        fill: #dadada;
      }
    </style>
  </defs>
  <path class="cls-2" d="m29.08,18.58c-1.17-.74-2.86-2.33-4.75-4.49-1.17-1.33-2.85-2.09-4.61-2.09-1.34,0-2.66.45-3.73,1.26-1.07-.81-2.38-1.26-3.73-1.26-1.77,0-3.45.76-4.61,2.09-1.89,2.15-3.57,3.74-4.75,4.49-1.2.76-1.92,2.02-1.92,3.45,0,.89.27,1.71.78,2.38,5.73,7.4,12.92,6.69,14.22,6.5.29.04.87.11,1.65.11,2.76,0,8.11-.85,12.56-6.61.51-.65.78-1.49.78-2.45,0-1.35-.72-2.61-1.92-3.37Zm-19.92-3.17c.79-.9,1.92-1.41,3.11-1.41.92,0,1.83.31,2.56.88.69.54,1.65.54,2.34,0,.73-.57,1.63-.88,2.56-.88,1.19,0,2.32.51,3.11,1.41,1.41,1.6,3.43,3.72,5.12,4.82-1.51.07-2.91-.04-4.15-.36-3.97-1.02-6.6.38-7.8,1.29-1.2-.91-3.83-2.31-7.8-1.29-1.25.32-2.64.43-4.15.36,1.7-1.09,3.72-3.21,5.12-4.82Zm7.03,13.49c-.06-.01-.13-.02-.2-.02s-.13,0-.2.02c-.07.01-7,1.3-12.44-5.72-.2-.26-.31-.61-.34-1.03,2.06.19,3.97.09,5.67-.34,4.27-1.09,6.47,1.25,6.55,1.35.19.22.46.34.75.34s.56-.12.75-.34c.02-.02,2.23-2.45,6.55-1.35,1.7.43,3.61.54,5.68.34-.02.39-.13.75-.35,1.03-5.4,6.98-12.16,5.78-12.44,5.72Z"/>
  <path class="cls-1" d="m23,6.89c1.38,0,2.5,1.3,2.5,2.89,0,.55.45,1,1,1s1-.45,1-1c0-1.59,1.12-2.89,2.5-2.89.55,0,1-.45,1-1s-.45-1-1-1c-1.38,0-2.5-1.3-2.5-2.89,0-.55-.45-1-1-1s-1,.45-1,1c0,1.59-1.12,2.89-2.5,2.89-.55,0-1,.45-1,1s.45,1,1,1Z"/>
</svg>