<?xml version="1.0" encoding="UTF-8"?>
<svg id="OBJECT" xmlns="http://www.w3.org/2000/svg" viewBox="0 0 32 32">
  <defs>
    <style>
      .cls-1 {
        fill: #FD4360;
      }

      .cls-1, .cls-2 {
        stroke-width: 0px;
      }

      .cls-2 {
        fill: #dadada;
      }
    </style>
  </defs>
  <path class="cls-1" d="m23.95,3c-.23-1.14-1.24-2-2.45-2H6.5c-1.38,0-2.5,1.12-2.5,2.5v21c0,1.21.86,2.22,2,2.45V7.5c0-2.48,2.02-4.5,4.5-4.5h13.45Z"/>
  <g>
    <path class="cls-2" d="m25.5,5h-15c-1.38,0-2.5,1.12-2.5,2.5v21c0,1.38,1.12,2.5,2.5,2.5h15c1.38,0,2.5-1.12,2.5-2.5V7.5c0-1.38-1.12-2.5-2.5-2.5Zm.5,23.5c0,.28-.22.5-.5.5h-15c-.28,0-.5-.22-.5-.5V7.5c0-.28.22-.5.5-.5h15c.28,0,.5.22.5.5v21Z"/>
    <path class="cls-2" d="m23,9.5h-6c-.55,0-1,.45-1,1s.45,1,1,1h6c.55,0,1-.45,1-1s-.45-1-1-1Z"/>
    <path class="cls-2" d="m13.5,9.5h-1c-.55,0-1,.45-1,1s.45,1,1,1h1c.55,0,1-.45,1-1s-.45-1-1-1Z"/>
    <path class="cls-2" d="m23,14.5h-6c-.55,0-1,.45-1,1s.45,1,1,1h6c.55,0,1-.45,1-1s-.45-1-1-1Z"/>
    <path class="cls-2" d="m13.5,14.5h-1c-.55,0-1,.45-1,1s.45,1,1,1h1c.55,0,1-.45,1-1s-.45-1-1-1Z"/>
    <path class="cls-2" d="m23,19.5h-6c-.55,0-1,.45-1,1s.45,1,1,1h6c.55,0,1-.45,1-1s-.45-1-1-1Z"/>
    <path class="cls-2" d="m13.5,19.5h-1c-.55,0-1,.45-1,1s.45,1,1,1h1c.55,0,1-.45,1-1s-.45-1-1-1Z"/>
    <path class="cls-2" d="m23,24.5h-6c-.55,0-1,.45-1,1s.45,1,1,1h6c.55,0,1-.45,1-1s-.45-1-1-1Z"/>
    <path class="cls-2" d="m13.5,24.5h-1c-.55,0-1,.45-1,1s.45,1,1,1h1c.55,0,1-.45,1-1s-.45-1-1-1Z"/>
  </g>
</svg>