<?xml version="1.0" encoding="UTF-8"?>
<svg id="OBJECT" xmlns="http://www.w3.org/2000/svg" viewBox="0 0 32 32">
  <defs>
    <style>
      .cls-1 {
        fill: #FD4360;
      }

      .cls-1, .cls-2 {
        stroke-width: 0px;
      }

      .cls-2 {
        fill: #dadada;
      }
    </style>
  </defs>
  <g>
    <path class="cls-2" d="m30.08,8l.85-2.13c.12-.31.09-.66-.1-.93s-.5-.44-.83-.44h-4v-2.5c0-.55-.45-1-1-1H5c-.55,0-1,.45-1,1v1.5h-2c-.55,0-1,.45-1,1s.45,1,1,1h2v2h-2c-.55,0-1,.45-1,1s.45,1,1,1h2v13h-2c-.55,0-1,.45-1,1s.45,1,1,1h2v2h-2c-.55,0-1,.45-1,1s.45,1,1,1h2v1.5c0,.55.45,1,1,1h20c.55,0,1-.45,1-1V11.5h4c.33,0,.64-.16.83-.44s.22-.62.1-.93l-.85-2.13ZM6,3h2v26h-2V3Zm18,26h-14V3h14v26Zm4.07-20.63l.45,1.13h-2.52v-3h2.52l-.45,1.13c-.1.24-.1.5,0,.74Z"/>
    <path class="cls-2" d="m14,27.5h6c1.38,0,2.5-1.12,2.5-2.5v-2c0-1.38-1.12-2.5-2.5-2.5h-6c-1.38,0-2.5,1.12-2.5,2.5v2c0,1.38,1.12,2.5,2.5,2.5Zm-.5-4.5c0-.28.22-.5.5-.5h6c.28,0,.5.22.5.5v2c0,.28-.22.5-.5.5h-6c-.28,0-.5-.22-.5-.5v-2Z"/>
  </g>
  <g>
    <path class="cls-1" d="m17,11.9c1.79,0,3.25-1.46,3.25-3.25v-1.35c0-1.54-1.26-2.8-2.8-2.8h-.9c-1.54,0-2.8,1.26-2.8,2.8v1.35c0,1.79,1.46,3.25,3.25,3.25Z"/>
    <path class="cls-1" d="m21.89,10.53c-.76,1.97-2.66,3.37-4.89,3.37s-4.13-1.41-4.89-3.37c-.39.76-.61,1.6-.61,2.47v1c0,1.38,1.12,2.5,2.5,2.5h6c1.38,0,2.5-1.12,2.5-2.5v-1c0-.87-.22-1.72-.61-2.47Z"/>
  </g>
</svg>