<?xml version="1.0" encoding="UTF-8"?>
<svg id="OBJECT" xmlns="http://www.w3.org/2000/svg" viewBox="0 0 32 32">
  <defs>
    <style>
      .cls-1 {
        fill: #FD4360;
      }

      .cls-1, .cls-2 {
        stroke-width: 0px;
      }

      .cls-2 {
        fill: #dadada;
      }
    </style>
  </defs>
  <g>
    <path class="cls-2" d="m22,4c.55,0,1-.45,1-1v-1c0-.55-.45-1-1-1H5C2.79,1,1,2.79,1,5v22c0,2.21,1.79,4,4,4h17c.55,0,1-.45,1-1v-7c0-.55-.45-1-1-1s-1,.45-1,1H5c-.73,0-1.41.21-2,.56V5c0-1.1.9-2,2-2h16c0,.55.45,1,1,1ZM5,25h16v1h-11c-.55,0-1,.45-1,1s.45,1,1,1h11v1H5c-1.1,0-2-.9-2-2s.9-2,2-2Z"/>
    <path class="cls-2" d="m12,7h-6c-.55,0-1,.45-1,1s.45,1,1,1h6c.55,0,1-.45,1-1s-.45-1-1-1Z"/>
    <path class="cls-2" d="m12,11h-6c-.55,0-1,.45-1,1s.45,1,1,1h6c.55,0,1-.45,1-1s-.45-1-1-1Z"/>
    <path class="cls-2" d="m6,28h.5c.55,0,1-.45,1-1s-.45-1-1-1h-.5c-.55,0-1,.45-1,1s.45,1,1,1Z"/>
  </g>
  <path class="cls-1" d="m28,6h-9c-1.65,0-3,1.35-3,3v9c0,1.65,1.35,3,3,3h9c1.65,0,3-1.35,3-3v-9c0-1.65-1.35-3-3-3Zm-3.5,11.75c0,.55-.45,1-1,1s-1-.45-1-1v-4.5c0-.55.45-1,1-1s1,.45,1,1v4.5Zm0-8c0,.55-.45,1-1,1s-1-.45-1-1v-.5c0-.55.45-1,1-1s1,.45,1,1v.5Z"/>
</svg>