<?xml version="1.0" encoding="UTF-8"?>
<svg id="OBJECT" xmlns="http://www.w3.org/2000/svg" viewBox="0 0 512 512">
  <defs>
    <style>
      .cls-1 {
        fill: #FD4360;
      }

      .cls-2 {
        fill: #dadada;
      }
    </style>
  </defs>
  <g>
    <path class="cls-2" d="M52.5,407h-5c-4.14,0-7.5,3.36-7.5,7.5s3.36,7.5,7.5,7.5h5c4.14,0,7.5-3.36,7.5-7.5s-3.36-7.5-7.5-7.5Z"/>
    <path class="cls-2" d="M152.88,123.5h50c4.14,0,7.5-3.36,7.5-7.5v-40c0-4.14-3.36-7.5-7.5-7.5h-50c-4.14,0-7.5,3.36-7.5,7.5v40c0,4.14,3.36,7.5,7.5,7.5Zm7.5-40h35v25h-35v-25Z"/>
    <path class="cls-2" d="M242.88,278.5h-32.5V146c0-4.14-3.36-7.5-7.5-7.5H122.88c-4.14,0-7.5,3.36-7.5,7.5v40c0,4.14,3.36,7.5,7.5,7.5h32.5v85h-32.5c-4.14,0-7.5,3.36-7.5,7.5v40c0,4.14,3.36,7.5,7.5,7.5h120c4.14,0,7.5-3.36,7.5-7.5v-40c0-4.14-3.36-7.5-7.5-7.5Zm-7.5,40h-105v-25h32.5c4.14,0,7.5-3.36,7.5-7.5v-100c0-4.14-3.36-7.5-7.5-7.5h-32.5v-25h65v132.5c0,4.14,3.36,7.5,7.5,7.5h32.5v25Z"/>
    <path class="cls-2" d="M379.5,40c-4.9,0-9.74,.28-14.5,.8V7.5c0-4.14-3.36-7.5-7.5-7.5H37.5C16.82,0,0,16.82,0,37.5V424.5c0,20.68,16.82,37.5,37.5,37.5h62.5v42.5c0,3.03,1.83,5.77,4.63,6.93,2.8,1.16,6.03,.52,8.17-1.63l24.7-24.7,24.7,24.7c1.43,1.44,3.35,2.2,5.3,2.2,.97,0,1.94-.19,2.87-.57,2.8-1.16,4.63-3.9,4.63-6.93v-42.5h182.5c4.14,0,7.5-3.36,7.5-7.5v-150.3c4.76,.52,9.6,.8,14.5,.8,73.06,0,132.5-59.44,132.5-132.5S452.56,40,379.5,40ZM37.5,447c-12.41,0-22.5-10.09-22.5-22.5v-20c0-12.41,10.09-22.5,22.5-22.5H350v25H77.5c-4.14,0-7.5,3.36-7.5,7.5s3.36,7.5,7.5,7.5h22.5v25H37.5Zm105.3,22.2c-2.93-2.93-7.68-2.93-10.61,0l-17.2,17.2v-64.39h45v64.39l-17.2-17.2Zm32.2-22.2v-25h175v25H175Zm175-80H37.5c-8.44,0-16.23,2.8-22.5,7.52V37.5c0-12.41,10.09-22.5,22.5-22.5H350v28.31c-58.91,13.45-103,66.26-103,129.19s44.09,115.74,103,129.19v65.31Zm29.5-77c-64.79,0-117.5-52.71-117.5-117.5s52.71-117.5,117.5-117.5,117.5,52.71,117.5,117.5-52.71,117.5-117.5,117.5Z"/>
  </g>
  <g>
    <circle class="cls-1" cx="379.5" cy="145" r="27.5"/>
    <path class="cls-1" d="M301.35,200.11c11.28-14.11,26.26-24.93,43.01-31.24-4.64-6.81-7.36-15.03-7.36-23.87,0-23.43,19.07-42.5,42.5-42.5s42.5,19.07,42.5,42.5c0,8.84-2.72,17.06-7.36,23.87,16.76,6.31,31.74,17.14,43.01,31.24,4.32,5.41,8.04,11.24,11.13,17.39,6.85-13.53,10.71-28.82,10.71-45,0-55.14-44.86-100-100-100s-100,44.86-100,100c0,16.18,3.87,31.47,10.71,45,3.09-6.14,6.81-11.98,11.13-17.39Z"/>
    <path class="cls-1" d="M402.56,180.67c-6.65,4.31-14.56,6.83-23.06,6.83s-16.41-2.52-23.06-6.83c-26.72,7.48-47.4,27.16-56.64,52.15,18.28,24.09,47.2,39.67,79.7,39.67s61.42-15.59,79.7-39.67c-9.24-24.99-29.92-44.67-56.64-52.15Z"/>
  </g>
</svg>