<?xml version="1.0" encoding="UTF-8"?>
<svg id="OBJECT" xmlns="http://www.w3.org/2000/svg" viewBox="0 0 32 32">
  <defs>
    <style>
      .cls-1 {
        fill: #FD4360;
      }

      .cls-1, .cls-2 {
        stroke-width: 0px;
      }

      .cls-2 {
        fill: #dadada;
      }
    </style>
  </defs>
  <g>
    <path class="cls-2" d="m21,1h-9c-.55,0-1,.45-1,1s.45,1,1,1h9c2.76,0,5,2.24,5,5v16c0,2.76-2.24,5-5,5h-9c-.55,0-1,.45-1,1s.45,1,1,1h9c3.86,0,7-3.14,7-7V8c0-3.86-3.14-7-7-7Z"/>
    <path class="cls-2" d="m22.5,15h-8c-.55,0-1,.45-1,1s.45,1,1,1h8c.55,0,1-.45,1-1s-.45-1-1-1Z"/>
    <path class="cls-2" d="m22.5,19h-8c-.55,0-1,.45-1,1s.45,1,1,1h8c.55,0,1-.45,1-1s-.45-1-1-1Z"/>
    <path class="cls-2" d="m24,7.5c0-1.38-1.12-2.5-2.5-2.5h-6c-1.38,0-2.5,1.12-2.5,2.5v3c0,1.38,1.12,2.5,2.5,2.5h6c1.38,0,2.5-1.12,2.5-2.5v-3Zm-2,3c0,.28-.22.5-.5.5h-6c-.28,0-.5-.22-.5-.5v-3c0-.28.22-.5.5-.5h6c.28,0,.5.22.5.5v3Z"/>
  </g>
  <path class="cls-1" d="m4,2v28c0,.55.45,1,1,1h4V1h-4c-.55,0-1,.45-1,1Z"/>
</svg>