<?xml version="1.0" encoding="UTF-8"?>
<svg id="OBJECT" xmlns="http://www.w3.org/2000/svg" viewBox="0 0 32 32">
  <defs>
    <style>
      .cls-1 {
        fill: #FD4360;
      }

      .cls-1, .cls-2 {
        stroke-width: 0px;
      }

      .cls-2 {
        fill: #dadada;
      }
    </style>
  </defs>
  <g>
    <path class="cls-2" d="m24.5,13c-.55,0-1,.45-1,1v11h-15v-11c0-.55-.45-1-1-1s-1,.45-1,1v14c0,1.65,1.35,3,3,3h13c1.65,0,3-1.35,3-3v-14c0-.55-.45-1-1-1Zm-2,16h-13c-.55,0-1-.45-1-1v-1h15v1c0,.55-.45,1-1,1Z"/>
    <path class="cls-2" d="m20,22.5c.55,0,1-.45,1-1v-6c0-.55-.45-1-1-1s-1,.45-1,1v6c0,.55.45,1,1,1Z"/>
    <path class="cls-2" d="m16,22.5c.55,0,1-.45,1-1v-6c0-.55-.45-1-1-1s-1,.45-1,1v6c0,.55.45,1,1,1Z"/>
    <path class="cls-2" d="m12,22.5c.55,0,1-.45,1-1v-6c0-.55-.45-1-1-1s-1,.45-1,1v6c0,.55.45,1,1,1Z"/>
  </g>
  <path class="cls-1" d="m27,10h-.5v-2c0-1.65-1.35-3-3-3h-3v-1c0-1.65-1.35-3-3-3h-3c-1.65,0-3,1.35-3,3v1h-3c-1.65,0-3,1.35-3,3v2h-.5c-.55,0-1,.45-1,1s.45,1,1,1h22c.55,0,1-.45,1-1s-.45-1-1-1Zm-13.5-6c0-.55.45-1,1-1h3c.55,0,1,.45,1,1v1h-5v-1Z"/>
</svg>