<?xml version="1.0" encoding="UTF-8"?>
<svg id="OBJECT" xmlns="http://www.w3.org/2000/svg" viewBox="0 0 32 32">
  <defs>
    <style>
      .cls-1 {
        fill: #FD4360;
      }

      .cls-1, .cls-2 {
        stroke-width: 0px;
      }

      .cls-2 {
        fill: #dadada;
      }
    </style>
  </defs>
  <g>
    <path class="cls-2" d="m24,8h-1.13l-.63-4.42c-.21-1.47-1.49-2.58-2.97-2.58H6.73c-1.48,0-2.76,1.11-2.97,2.58l-.63,4.42h-1.13c-.55,0-1,.45-1,1s.45,1,1,1h.09l1.74,18.29c.15,1.55,1.43,2.71,2.98,2.71h12.36c.84,0,1.62-.34,2.2-.97.38-.41.35-1.04-.05-1.41-.4-.38-1.04-.35-1.41.05-.2.21-.46.33-.74.33H6.82c-.52,0-.94-.39-.99-.91l-.3-3.09h9.99c.55,0,1-.45,1-1s-.45-1-1-1H5.34l-.17-1.78,2.78-1.02c.98-.36,1.64-1.3,1.64-2.35v-5.25c0-.55-.45-1-1-1s-1,.45-1,1v5.25c0,.21-.13.4-.33.47l-2.29.84-.87-9.16h17.8l-.08.84c-.05.55.35,1.04.9,1.09.03,0,.06,0,.09,0,.51,0,.95-.39.99-.91l.1-1.02h.09c.55,0,1-.45,1-1s-.45-1-1-1ZM5.74,3.86c.07-.49.5-.86.99-.86h12.53c.49,0,.92.37.99.86l.59,4.14H5.15l.59-4.14Z"/>
    <path class="cls-2" d="m14,4.5h-6c-.55,0-1,.45-1,1s.45,1,1,1h6c.55,0,1-.45,1-1s-.45-1-1-1Z"/>
    <path class="cls-2" d="m18,4.5h-.5c-.55,0-1,.45-1,1s.45,1,1,1h.5c.55,0,1-.45,1-1s-.45-1-1-1Z"/>
  </g>
  <path class="cls-1" d="m24,13c-3.86,0-7,3.14-7,7s3.14,7,7,7,7-3.14,7-7-3.14-7-7-7Zm.19,11.11h-.39c-.55,0-1-.45-1-1s.45-1,1-1h.39c.55,0,1,.45,1,1s-.45,1-1,1Zm2.26-2.49c-.19.19-.45.29-.7.29s-.52-.1-.71-.3c-.56-.56-1.52-.56-2.08,0-.39.39-1.02.4-1.41,0-.39-.39-.4-1.02,0-1.41,1.31-1.33,3.61-1.33,4.92,0,.39.39.39,1.03,0,1.41Zm1.75-2.56c-.19.19-.45.29-.7.29s-.52-.1-.71-.3c-1.49-1.51-4.09-1.51-5.58,0-.39.39-1.02.4-1.41,0-.39-.39-.4-1.02,0-1.41,1.12-1.14,2.62-1.76,4.21-1.76s3.09.63,4.21,1.76c.39.39.39,1.03,0,1.41Z"/>
</svg>