<?xml version="1.0" encoding="UTF-8"?>
<svg id="OBJECT" xmlns="http://www.w3.org/2000/svg" viewBox="0 0 512 512">
  <defs>
    <style>
      .cls-1 {
        fill: #FD4360;
      }

      .cls-2 {
        fill: #dadada;
      }
    </style>
  </defs>
  <g>
    <path class="cls-2" d="M190,376v-15c0-12.41-10.09-22.5-22.5-22.5h-20v-25h65c12.41,0,22.5-10.09,22.5-22.5V151c0-12.41-10.09-22.5-22.5-22.5H22.5c-12.41,0-22.5,10.09-22.5,22.5v140c0,12.41,10.09,22.5,22.5,22.5H87.5v25h-20c-12.41,0-22.5,10.09-22.5,22.5v15c0,4.14,3.36,7.5,7.5,7.5H182.5c4.14,0,7.5-3.36,7.5-7.5ZM22.5,143.5H212.5c4.14,0,7.5,3.36,7.5,7.5v107.5H15v-107.5c0-4.14,3.36-7.5,7.5-7.5Zm-7.5,147.5v-17.5H220v17.5c0,4.14-3.36,7.5-7.5,7.5H22.5c-4.14,0-7.5-3.36-7.5-7.5Zm87.5,22.5h30v25h-30v-25Zm72.5,55H60v-7.5c0-4.14,3.36-7.5,7.5-7.5h100c4.14,0,7.5,3.36,7.5,7.5v7.5Z"/>
    <path class="cls-2" d="M162.5,243.5h5c4.14,0,7.5-3.36,7.5-7.5s-3.36-7.5-7.5-7.5h-5c-4.14,0-7.5,3.36-7.5,7.5s3.36,7.5,7.5,7.5Z"/>
    <path class="cls-2" d="M192.5,243.5h5c4.14,0,7.5-3.36,7.5-7.5s-3.36-7.5-7.5-7.5h-5c-4.14,0-7.5,3.36-7.5,7.5s3.36,7.5,7.5,7.5Z"/>
    <path class="cls-2" d="M82.27,87.24l30,20c1.26,.84,2.71,1.26,4.16,1.26s2.9-.42,4.16-1.26l30-20c3.45-2.3,4.38-6.95,2.08-10.4s-6.95-4.38-10.4-2.08l-3.34,2.23v-31.99h233.07v56c0,4.14,3.36,7.5,7.5,7.5h30c4.14,0,7.5-3.36,7.5-7.5V22.5c0-12.41-10.09-22.5-22.5-22.5H116.43c-12.41,0-22.5,10.09-22.5,22.5v54.49l-3.34-2.23c-3.45-2.3-8.1-1.37-10.4,2.08-2.3,3.45-1.37,8.1,2.08,10.4ZM108.93,22.5c0-4.14,3.36-7.5,7.5-7.5H394.5c4.14,0,7.5,3.36,7.5,7.5V93.5h-15V37.5c0-4.14-3.36-7.5-7.5-7.5H131.43c-4.14,0-7.5,3.36-7.5,7.5v49.49l-7.5,5-7.5-5V22.5Z"/>
    <path class="cls-2" d="M428.66,424.76l-30-20c-2.52-1.68-5.8-1.68-8.32,0l-30,20c-3.45,2.3-4.38,6.95-2.08,10.4,2.3,3.45,6.95,4.38,10.4,2.08l3.34-2.23v31.99H138.93v-56c0-4.14-3.36-7.5-7.5-7.5h-30c-4.14,0-7.5,3.36-7.5,7.5v78.5c0,12.41,10.09,22.5,22.5,22.5H394.5c12.41,0,22.5-10.09,22.5-22.5v-54.49l3.34,2.23c1.28,.85,2.72,1.26,4.15,1.26,2.42,0,4.8-1.17,6.25-3.34,2.3-3.45,1.37-8.1-2.08-10.4Zm-26.66,64.74c0,4.14-3.36,7.5-7.5,7.5H116.43c-4.14,0-7.5-3.36-7.5-7.5v-71h15v56c0,4.14,3.36,7.5,7.5,7.5h248.07c4.14,0,7.5-3.36,7.5-7.5v-49.49l7.5-5,7.5,5v64.49Z"/>
  </g>
  <g>
    <path class="cls-1" d="M497,128.5h-205c-8.28,0-15,6.72-15,15v115h235v-115c0-8.28-6.72-15-15-15Zm-177.5,115h-5c-4.14,0-7.5-3.36-7.5-7.5s3.36-7.5,7.5-7.5h5c4.14,0,7.5,3.36,7.5,7.5s-3.36,7.5-7.5,7.5Zm30,0h-5c-4.14,0-7.5-3.36-7.5-7.5s3.36-7.5,7.5-7.5h5c4.14,0,7.5,3.36,7.5,7.5s-3.36,7.5-7.5,7.5Z"/>
    <path class="cls-1" d="M277,283.5c0,8.28,6.72,15,15,15h205c8.28,0,15-6.72,15-15v-10h-235v10Z"/>
    <path class="cls-1" d="M452,353.5h-115c-8.28,0-15,6.72-15,15v15h145v-15c0-8.28-6.72-15-15-15Z"/>
    <rect class="cls-1" x="364.5" y="313.5" width="60" height="25"/>
  </g>
</svg>