<?xml version="1.0" encoding="UTF-8"?>
<svg id="OBJECT" xmlns="http://www.w3.org/2000/svg" viewBox="0 0 32 32">
  <defs>
    <style>
      .cls-1 {
        fill: #FD4360;
      }

      .cls-1, .cls-2 {
        stroke-width: 0px;
      }

      .cls-2 {
        fill: #dadada;
      }
    </style>
  </defs>
  <g>
    <path class="cls-2" d="m26.5,11.5c0-5.79-4.71-10.5-10.5-10.5S5.5,5.71,5.5,11.5c0,4.45,2.79,8.25,6.71,9.78l.94,3.53c.34,1.29,1.52,2.19,2.85,2.19s2.51-.9,2.85-2.19l.94-3.53c3.92-1.53,6.71-5.33,6.71-9.78Zm-9.58,12.79c-.11.42-.49.71-.92.71s-.81-.29-.92-.71l-.65-2.42c.51.08,1.03.13,1.57.13s1.05-.05,1.57-.13l-.65,2.42Zm-.92-4.29c-4.69,0-8.5-3.81-8.5-8.5S11.31,3,16,3s8.5,3.81,8.5,8.5-3.81,8.5-8.5,8.5Z"/>
    <path class="cls-2" d="m19.12,9.5c.07-.27.13-.55.13-.85v-1.35c0-1.54-1.26-2.8-2.8-2.8h-.9c-1.54,0-2.8,1.26-2.8,2.8v1.35c0,.29.05.57.13.85-1.46,1.02-2.38,2.69-2.38,4.5,0,1.38,1.12,2.5,2.5,2.5h6c1.38,0,2.5-1.12,2.5-2.5,0-1.81-.91-3.49-2.38-4.5Zm-4.37-2.2c0-.44.36-.8.8-.8h.9c.44,0,.8.36.8.8v1.35c0,.69-.56,1.25-1.25,1.25s-1.25-.56-1.25-1.25v-1.35Zm4.25,7.2h-6c-.28,0-.5-.22-.5-.5,0-1.13.56-2.18,1.47-2.83.56.45,1.26.73,2.03.73s1.47-.28,2.03-.73c.91.65,1.47,1.7,1.47,2.83,0,.28-.22.5-.5.5Z"/>
  </g>
  <path class="cls-1" d="m24.98,20.16c-1,1.04-2.18,1.91-3.5,2.56l-.69,2.6c-.58,2.16-2.55,3.68-4.79,3.68s-4.21-1.51-4.79-3.68l-.69-2.6c-1.32-.65-2.5-1.52-3.5-2.56-1.88,1.14-3.02,2.66-3.02,4.34,0,3.64,5.27,6.5,12,6.5s12-2.86,12-6.5c0-1.69-1.14-3.2-3.02-4.34Zm-16.48,5.34h-1c-.55,0-1-.45-1-1s.45-1,1-1h1c.55,0,1,.45,1,1s-.45,1-1,1Zm16,0h-1c-.55,0-1-.45-1-1s.45-1,1-1h1c.55,0,1,.45,1,1s-.45,1-1,1Z"/>
</svg>