<?xml version="1.0" encoding="UTF-8"?>
<svg id="OBJECT" xmlns="http://www.w3.org/2000/svg" viewBox="0 0 32 32">
  <defs>
    <style>
      .cls-1 {
        fill: #FD4360;
      }

      .cls-2 {
        fill: #dadada;
      }
    </style>
  </defs>
  <path class="cls-2" d="M20.18,21.3l.7-1.58c3.16-1.77,5.11-5.08,5.11-8.72,0-2.73-1.08-5.28-3.04-7.18-1.96-1.9-4.52-2.9-7.27-2.82-5.33,.16-9.68,4.64-9.69,9.97,0,3.65,1.94,6.96,5.11,8.74l.7,1.58c-3.86,.57-7.82,2.05-7.82,4.7,0,3.28,6.04,5,12,5s12-1.72,12-5c0-2.65-3.95-4.13-7.82-4.7ZM8,10.98c0-4.27,3.49-7.85,7.75-7.98,.08,0,.17,0,.25,0,2.09,0,4.06,.8,5.57,2.26,1.57,1.52,2.43,3.56,2.43,5.74,0,3-1.67,5.73-4.35,7.11-.2,.1-.36,.27-.46,.48l-2.71,6.09c-.17,.39-.81,.39-.98,0l-2.71-6.09c-.09-.21-.25-.38-.46-.48-2.69-1.38-4.35-4.12-4.35-7.13Zm8,18.02c-6.01,0-10-1.81-10-3,0-.87,2.31-2.28,6.66-2.8l1.02,2.29c.41,.92,1.32,1.51,2.32,1.51s1.91-.59,2.32-1.51l1.02-2.29c4.35,.52,6.66,1.93,6.66,2.8,0,1.19-3.99,3-10,3Z"/>
  <circle class="cls-1" cx="16" cy="11" r="6"/>
</svg>