<?xml version="1.0" encoding="UTF-8"?>
<svg id="OBJECT" xmlns="http://www.w3.org/2000/svg" viewBox="0 0 32 32">
  <defs>
    <style>
      .cls-1 {
        fill: #FD4360;
      }

      .cls-1, .cls-2 {
        stroke-width: 0px;
      }

      .cls-2 {
        fill: #dadada;
      }
    </style>
  </defs>
  <g>
    <path class="cls-2" d="m28,13c0-6.62-5.38-12-12-12S4,6.38,4,13c0,4.98,3.05,9.26,7.39,11.07l1.13,4.25c.42,1.57,1.85,2.67,3.48,2.67s3.06-1.1,3.48-2.68l1.13-4.25c4.33-1.81,7.39-6.09,7.39-11.07Zm-22,0c0-5.51,4.49-10,10-10s10,4.49,10,10-4.49,10-10,10-10-4.49-10-10Zm11.55,14.81c-.19.7-.83,1.19-1.55,1.19s-1.36-.49-1.55-1.19l-.81-3.05c.76.15,1.55.24,2.36.24s1.6-.08,2.36-.24l-.81,3.05Z"/>
    <path class="cls-2" d="m27,29h-5c-.55,0-1,.45-1,1s.45,1,1,1h5c.55,0,1-.45,1-1s-.45-1-1-1Z"/>
    <path class="cls-2" d="m10,29h-5c-.55,0-1,.45-1,1s.45,1,1,1h5c.55,0,1-.45,1-1s-.45-1-1-1Z"/>
  </g>
  <path class="cls-1" d="m16,5c-4.41,0-8,3.59-8,8s3.59,8,8,8,8-3.59,8-8-3.59-8-8-8Zm2.71,10.71c-.2.2-.45.29-.71.29s-.51-.1-.71-.29l-2-2c-.19-.19-.29-.44-.29-.71v-3c0-.55.45-1,1-1s1,.45,1,1v2.59l1.71,1.71c.39.39.39,1.02,0,1.41Z"/>
</svg>