<?xml version="1.0" encoding="UTF-8"?>
<svg id="OBJECT" xmlns="http://www.w3.org/2000/svg" viewBox="0 0 32 32">
  <defs>
    <style>
      .cls-1 {
        fill: #FD4360;
      }

      .cls-1, .cls-2 {
        stroke-width: 0px;
      }

      .cls-2 {
        fill: #dadada;
      }
    </style>
  </defs>
  <path class="cls-1" d="m22.05,20.44l-3.42,6.31c-.52.97-1.53,1.57-2.64,1.57s-2.11-.6-2.64-1.57l-3.42-6.31c-5,.75-8.94,2.45-8.94,5.06,0,3.61,7.55,5.5,15,5.5s15-1.89,15-5.5c0-2.61-3.95-4.31-8.95-5.06Z"/>
  <g>
    <path class="cls-2" d="m16.83,1.04c-.55-.05-1.11-.05-1.66,0-2.47.22-4.71,1.53-6.12,3.6-1.49,2.18-1.93,4.87-1.21,7.39.19.67.5,1.34.95,2.08l6.33,11.68c.17.32.51.52.88.52s.7-.2.88-.52l6.31-11.64c.47-.78.78-1.46.97-2.12.72-2.52.28-5.21-1.21-7.39-1.42-2.07-3.65-3.38-6.12-3.6Zm5.41,10.44c-.14.49-.38,1.01-.79,1.68l-5.45,10.06-5.48-10.1c-.38-.63-.62-1.15-.76-1.64-.55-1.92-.2-4.05.94-5.71,1.1-1.6,2.75-2.57,4.65-2.74.21-.02.43-.03.65-.03s.44,0,.65.03c1.9.17,3.56,1.14,4.65,2.74,1.14,1.66,1.49,3.79.94,5.71Z"/>
    <path class="cls-2" d="m16,4.68c-2.62,0-4.75,2.13-4.75,4.75s2.13,4.75,4.75,4.75,4.75-2.13,4.75-4.75-2.13-4.75-4.75-4.75Zm0,7.5c-1.52,0-2.75-1.23-2.75-2.75s1.23-2.75,2.75-2.75,2.75,1.23,2.75,2.75-1.23,2.75-2.75,2.75Z"/>
    <path class="cls-2" d="m30,8.5h-2.91c-.55,0-1,.45-1,1s.45,1,1,1h2.91c.55,0,1-.45,1-1s-.45-1-1-1Z"/>
    <path class="cls-2" d="m26.8,13.29c-.39-.39-1.02-.39-1.41,0s-.39,1.02,0,1.41l1,1c.2.2.45.29.71.29s.51-.1.71-.29c.39-.39.39-1.02,0-1.41l-1-1Z"/>
    <path class="cls-2" d="m26.09,6c.26,0,.51-.1.71-.29l1-1c.39-.39.39-1.02,0-1.41s-1.02-.39-1.41,0l-1,1c-.39.39-.39,1.02,0,1.41.2.2.45.29.71.29Z"/>
    <path class="cls-2" d="m5.91,9.5c0-.55-.45-1-1-1h-2.91c-.55,0-1,.45-1,1s.45,1,1,1h2.91c.55,0,1-.45,1-1Z"/>
    <path class="cls-2" d="m5.2,13.29l-1,1c-.39.39-.39,1.02,0,1.41.2.2.45.29.71.29s.51-.1.71-.29l1-1c.39-.39.39-1.02,0-1.41s-1.02-.39-1.41,0Z"/>
    <path class="cls-2" d="m5.62,3.29c-.39-.39-1.02-.39-1.41,0s-.39,1.02,0,1.41l1,1c.2.2.45.29.71.29s.51-.1.71-.29c.39-.39.39-1.02,0-1.41l-1-1Z"/>
  </g>
</svg>