<?xml version="1.0" encoding="UTF-8"?>
<svg id="OBJECT" xmlns="http://www.w3.org/2000/svg" viewBox="0 0 32 32">
  <defs>
    <style>
      .cls-1 {
        fill: #FD4360;
      }

      .cls-2 {
        fill: #dadada;
      }
    </style>
  </defs>
  <path class="cls-2" d="M22.26,21.42c1.99-2.63,3.74-6.16,3.74-10.42,0-5.51-4.49-10-10-10S6,5.49,6,11c0,4.26,1.75,7.78,3.74,10.42-3.34,.47-8.74,1.69-8.74,4.58,0,3.44,7.78,5,15,5s15-1.56,15-5c0-2.89-5.4-4.11-8.74-4.58ZM16,3c4.41,0,8,3.59,8,8,0,7.32-6.13,12.4-8,13.78-1.87-1.38-8-6.46-8-13.78,0-4.41,3.59-8,8-8Zm0,26c-8.58,0-13-2.1-13-3,0-.66,2.51-2.15,8.28-2.76,2.07,2.23,4.01,3.49,4.18,3.6,.16,.1,.35,.16,.54,.16s.37-.05,.54-.16c.17-.11,2.11-1.37,4.18-3.6,5.77,.6,8.28,2.1,8.28,2.76,0,.9-4.42,3-13,3Z"/>
  <circle class="cls-1" cx="16" cy="11" r="6"/>
</svg>