<?xml version="1.0" encoding="UTF-8"?>
<svg id="OBJECT" xmlns="http://www.w3.org/2000/svg" viewBox="0 0 32 32">
  <defs>
    <style>
      .cls-1 {
        fill: #FD4360;
      }

      .cls-1, .cls-2 {
        stroke-width: 0px;
      }

      .cls-2 {
        fill: #dadada;
      }
    </style>
  </defs>
  <path class="cls-2" d="m24.93,20.12c1.22-2.08,2.07-4.74,2.07-8.12,0-6.07-4.93-11-11-11S5,5.93,5,12c0,3.38.85,6.04,2.07,8.12-3.88,1.09-6.07,2.84-6.07,4.88,0,3.9,7.73,6,15,6s15-2.1,15-6c0-2.05-2.2-3.79-6.07-4.88ZM16,3c4.96,0,9,4.04,9,9,0,9.51-7.46,12.45-9,12.95-1.49-.51-9-3.52-9-12.95,0-4.96,4.04-9,9-9Zm0,26c-7.94,0-13-2.37-13-4,0-.9,1.68-2.23,5.29-3.13,3.13,3.87,7.38,5.07,7.45,5.09.09.02.17.03.26.03s.17-.01.26-.03c.07-.02,4.32-1.22,7.45-5.09,3.61.9,5.29,2.22,5.29,3.13,0,1.63-5.06,4-13,4Z"/>
  <g>
    <path class="cls-1" d="m10.76,17.36c1.35,1.32,3.2,2.14,5.24,2.14s3.88-.82,5.24-2.14c-.5-1.57-1.69-2.86-3.27-3.47-.56.38-1.24.61-1.97.61s-1.41-.23-1.97-.61c-1.57.61-2.77,1.9-3.27,3.47Z"/>
    <path class="cls-1" d="m12.74,12.25c-.15-.39-.24-.81-.24-1.25,0-1.93,1.57-3.5,3.5-3.5s3.5,1.57,3.5,3.5c0,.44-.09.86-.24,1.25,1.45.7,2.63,1.85,3.37,3.25.56-1.05.87-2.24.87-3.5,0-4.14-3.36-7.5-7.5-7.5s-7.5,3.36-7.5,7.5c0,1.27.32,2.46.87,3.5.74-1.4,1.92-2.55,3.37-3.25Z"/>
    <circle class="cls-1" cx="16" cy="11" r="1.5"/>
  </g>
</svg>