<?xml version="1.0" encoding="UTF-8"?>
<svg id="OBJECT" xmlns="http://www.w3.org/2000/svg" viewBox="0 0 32 32">
  <defs>
    <style>
      .cls-1 {
        fill: #FD4360;
      }

      .cls-1, .cls-2 {
        stroke-width: 0px;
      }

      .cls-2 {
        fill: #dadada;
      }
    </style>
  </defs>
  <g>
    <path class="cls-2" d="m16,1c-6.07,0-11,4.93-11,11,0,9.92,10.09,15.64,10.51,15.87.15.08.32.13.49.13s.33-.04.49-.13c.43-.24,10.51-5.95,10.51-15.87,0-6.07-4.93-11-11-11Zm0,24.83c-1.94-1.23-9-6.23-9-13.83,0-4.96,4.04-9,9-9s9,4.04,9,9c0,7.58-7.06,12.6-9,13.83Z"/>
    <path class="cls-2" d="m16,5.5c-3.58,0-6.5,2.92-6.5,6.5s2.92,6.5,6.5,6.5,6.5-2.92,6.5-6.5-2.92-6.5-6.5-6.5Zm0,11c-2.48,0-4.5-2.02-4.5-4.5s2.02-4.5,4.5-4.5,4.5,2.02,4.5,4.5-2.02,4.5-4.5,4.5Z"/>
  </g>
  <path class="cls-1" d="m28.98,19.8c-.09-.47-.5-.8-.98-.8h-.56c-3.07,6.7-9.63,10.42-9.99,10.62-.44.25-.95.38-1.46.38s-1.01-.13-1.46-.38c-.36-.2-6.92-3.92-9.98-10.62h-.56c-.48,0-.89.34-.98.8l-2,10c-.06.29.02.6.21.83s.47.37.77.37h28c.3,0,.58-.13.77-.37s.27-.54.21-.83l-2-10Zm-22.98,7.2h-1c-.55,0-1-.45-1-1s.45-1,1-1h1c.55,0,1,.45,1,1s-.45,1-1,1Zm21,0h-1c-.55,0-1-.45-1-1s.45-1,1-1h1c.55,0,1,.45,1,1s-.45,1-1,1Z"/>
</svg>