<?xml version="1.0" encoding="UTF-8"?>
<svg id="OBJECT" xmlns="http://www.w3.org/2000/svg" viewBox="0 0 32 32">
  <defs>
    <style>
      .cls-1 {
        fill: #FD4360;
      }

      .cls-1, .cls-2 {
        stroke-width: 0px;
      }

      .cls-2 {
        fill: #dadada;
      }
    </style>
  </defs>
  <path class="cls-2" d="m28.5,25h-7.33l.62-1.5c3.7-2.05,6.21-5.99,6.21-10.5,0-6.62-5.38-12-12-12S4,6.38,4,13c0,4.52,2.51,8.46,6.21,10.5l.62,1.5H3.5c-1.38,0-2.5,1.12-2.5,2.5v1c0,1.38,1.12,2.5,2.5,2.5h25c1.38,0,2.5-1.12,2.5-2.5v-1c0-1.38-1.12-2.5-2.5-2.5ZM6,13c0-5.51,4.49-10,10-10s10,4.49,10,10-4.49,10-10,10-10-4.49-10-10Zm10,12c1.1,0,2.17-.16,3.18-.44l-1.85,4.44h-2.67l-1.85-4.44c1.02.28,2.08.44,3.18.44Zm-13,3.5v-1c0-.28.22-.5.5-.5h8.17l.83,2H3.5c-.28,0-.5-.22-.5-.5Zm26,0c0,.28-.22.5-.5.5h-9l.83-2h8.17c.28,0,.5.22.5.5v1Z"/>
  <path class="cls-1" d="m20.18,6.5h-8.36c-1.54,0-2.79,1.25-2.79,2.79v7.43c0,1.54,1.25,2.79,2.79,2.79h8.36c1.54,0,2.79-1.25,2.79-2.79v-7.43c0-1.54-1.25-2.79-2.79-2.79Zm-.18,6.5c0,1.65-1.35,3-3,3h-2c-1.65,0-3-1.35-3-3v-2c0-.55.45-1,1-1s1,.45,1,1v2c0,.55.45,1,1,1h2c.55,0,1-.45,1-1v-2c0-.55.45-1,1-1s1,.45,1,1v2Z"/>
</svg>