<?xml version="1.0" encoding="UTF-8"?>
<svg id="OBJECT" xmlns="http://www.w3.org/2000/svg" viewBox="0 0 32 32">
  <defs>
    <style>
      .cls-1 {
        fill: #FD4360;
      }

      .cls-1, .cls-2 {
        stroke-width: 0px;
      }

      .cls-2 {
        fill: #dadada;
      }
    </style>
  </defs>
  <g>
    <path class="cls-2" d="m27.5,12.5c0-6.34-5.16-11.5-11.5-11.5S4.5,6.16,4.5,12.5c0,4.74,2.88,8.81,6.98,10.57l1.65,5.76c.37,1.28,1.55,2.17,2.87,2.17s2.51-.89,2.87-2.17l1.65-5.76c4.1-1.76,6.98-5.84,6.98-10.57Zm-21,0c0-5.24,4.26-9.5,9.5-9.5s9.5,4.26,9.5,9.5-4.26,9.5-9.5,9.5-9.5-4.26-9.5-9.5Zm10.45,15.78c-.12.42-.51.72-.95.72s-.83-.29-.95-.72l-1.29-4.51c.72.14,1.47.22,2.24.22s1.51-.08,2.24-.22l-1.29,4.5Z"/>
    <path class="cls-2" d="m30,25h-5.44c-1.38,0-2.58.93-2.91,2.27l-.62,2.49c-.08.3,0,.62.18.86.19.24.48.38.79.38h8c.55,0,1-.45,1-1v-4c0-.55-.45-1-1-1Zm-1,4h-5.72l.31-1.24c.11-.45.51-.76.97-.76h4.44v2Z"/>
    <path class="cls-2" d="m10.35,27.27c-.33-1.34-1.53-2.27-2.91-2.27H2c-.55,0-1,.45-1,1v4c0,.55.45,1,1,1h8c.31,0,.6-.14.79-.38.19-.24.26-.56.18-.86l-.62-2.49Zm-7.35,1.73v-2h4.44c.46,0,.86.31.97.76l.31,1.24H3Z"/>
  </g>
  <g>
    <path class="cls-1" d="m10.95,10.79v2.61h10.1v-2.62c.37-.04.7-.27.84-.64.19-.52-.08-1.09-.6-1.28l-4.95-1.8c-.22-.08-.46-.08-.68,0l-4.95,1.8c-.52.19-.79.76-.6,1.28.14.37.47.61.84.64Z"/>
    <path class="cls-1" d="m21.05,16.02v-.62h-10.1v.62c-.5.05-.9.46-.9.98,0,.55.45,1,1,1h9.9c.55,0,1-.45,1-1,0-.52-.4-.93-.9-.98Z"/>
  </g>
</svg>