<?xml version="1.0" encoding="UTF-8"?>
<svg id="OBJECT" xmlns="http://www.w3.org/2000/svg" viewBox="0 0 32 32">
  <defs>
    <style>
      .cls-1 {
        fill: #FD4360;
      }

      .cls-1, .cls-2 {
        stroke-width: 0px;
      }

      .cls-2 {
        fill: #dadada;
      }
    </style>
  </defs>
  <path class="cls-1" d="m30,29H2c-.55,0-1,.45-1,1s.45,1,1,1h28c.55,0,1-.45,1-1s-.45-1-1-1Z"/>
  <rect class="cls-1" x="11" y="19" width="10" height="6" rx="1" ry="1"/>
  <g>
    <path class="cls-2" d="m22.17,1h-12.35c-1.56,0-2.83,1.27-2.83,2.82v22.18c0,.55.45,1,1,1s1-.45,1-1V3.82c0-.45.37-.82.83-.82h12.35c.46,0,.83.37.83.82v22.18c0,.55.45,1,1,1s1-.45,1-1V3.82c0-1.56-1.27-2.82-2.83-2.82Z"/>
    <path class="cls-2" d="m12,7.17c-.55,0-1,.45-1,1v2c0,.55.45,1,1,1s1-.45,1-1v-2c0-.55-.45-1-1-1Z"/>
    <path class="cls-2" d="m20.1,5.58h-4c-.55,0-1,.45-1,1s.45,1,1,1h4c.55,0,1-.45,1-1s-.45-1-1-1Z"/>
    <path class="cls-2" d="m20.1,8.58h-4c-.55,0-1,.45-1,1s.45,1,1,1h4c.55,0,1-.45,1-1s-.45-1-1-1Z"/>
    <path class="cls-2" d="m20.1,11.58h-4c-.55,0-1,.45-1,1s.45,1,1,1h4c.55,0,1-.45,1-1s-.45-1-1-1Z"/>
  </g>
</svg>