<?xml version="1.0" encoding="UTF-8"?>
<svg id="OBJECT" xmlns="http://www.w3.org/2000/svg" viewBox="0 0 32 32">
  <defs>
    <style>
      .cls-1 {
        fill: #FD4360;
      }

      .cls-2 {
        fill: #dadada;
      }
    </style>
  </defs>
  <g>
    <path class="cls-2" d="M25,16H7c-1.65,0-3,1.35-3,3v9c0,1.65,1.35,3,3,3H25c1.65,0,3-1.35,3-3v-9c0-1.65-1.35-3-3-3Zm1,12c0,.55-.45,1-1,1H7c-.55,0-1-.45-1-1v-9c0-.55,.45-1,1-1H25c.55,0,1,.45,1,1v9Z"/>
    <path class="cls-2" d="M17,20h-2c-1.38,0-2.5,1.12-2.5,2.5v2c0,1.38,1.12,2.5,2.5,2.5h2c1.38,0,2.5-1.12,2.5-2.5v-2c0-1.38-1.12-2.5-2.5-2.5Zm.5,4.5c0,.28-.22,.5-.5,.5h-2c-.28,0-.5-.22-.5-.5v-2c0-.28,.22-.5,.5-.5h2c.28,0,.5,.22,.5,.5v2Z"/>
  </g>
  <path class="cls-1" d="M11.5,9c0-2.48,2.02-4.5,4.5-4.5s4.5,2.02,4.5,4.5v5h3.5v-5c0-4.41-3.59-8-8-8s-8,3.59-8,8v5h3.5v-5Z"/>
</svg>