<?xml version="1.0" encoding="UTF-8"?>
<svg id="OBJECT" xmlns="http://www.w3.org/2000/svg" viewBox="0 0 32 32">
  <defs>
    <style>
      .cls-1 {
        fill: #FD4360;
      }

      .cls-2 {
        fill: #dadada;
      }
    </style>
  </defs>
  <g>
    <path class="cls-2" d="M5.5,24h-.5c-.55,0-1,.45-1,1s.45,1,1,1h.5c.55,0,1-.45,1-1s-.45-1-1-1Z"/>
    <path class="cls-2" d="M9.5,24h-.5c-.55,0-1,.45-1,1s.45,1,1,1h.5c.55,0,1-.45,1-1s-.45-1-1-1Z"/>
    <path class="cls-2" d="M23,16H14.62l-1.72-3.45c-.17-.34-.52-.55-.89-.55H5c-.55,0-1,.45-1,1v8H2c-.55,0-1,.45-1,1v5.5c0,1.93,1.57,3.5,3.5,3.5H20.5c1.93,0,3.5-1.57,3.5-3.5v-10.5c0-.55-.45-1-1-1ZM4.5,29c-.83,0-1.5-.67-1.5-1.5v-4.5h14v4.5c0,.54,.12,1.04,.34,1.5H4.5Zm17.5-1.5c0,.83-.67,1.5-1.5,1.5s-1.5-.67-1.5-1.5v-5.5c0-.55-.45-1-1-1H6v-7h5.38l1,2h-2.38c-.55,0-1,.45-1,1s.45,1,1,1h12v9.5Z"/>
  </g>
  <g>
    <path class="cls-1" d="M22,4c0-.55,.45-1,1-1h2c.55,0,1,.45,1,1v2h2v-2c0-1.65-1.35-3-3-3h-2c-1.65,0-3,1.35-3,3v2h2v-2Z"/>
    <path class="cls-1" d="M29.5,8h-11c-.83,0-1.5,.67-1.5,1.5v3c0,.83,.67,1.5,1.5,1.5h11c.83,0,1.5-.67,1.5-1.5v-3c0-.83-.67-1.5-1.5-1.5Zm-5,4h-1c-.55,0-1-.45-1-1s.45-1,1-1h1c.55,0,1,.45,1,1s-.45,1-1,1Z"/>
  </g>
</svg>