<?xml version="1.0" encoding="UTF-8"?>
<svg id="OBJECT" xmlns="http://www.w3.org/2000/svg" viewBox="0 0 32 32">
  <defs>
    <style>
      .cls-1 {
        fill: #FD4360;
      }

      .cls-1, .cls-2 {
        stroke-width: 0px;
      }

      .cls-2 {
        fill: #dadada;
      }
    </style>
  </defs>
  <g>
    <path class="cls-2" d="m17.83,7.43c-1.67-.35-3.14-.84-4.38-1.46-.28-.14-.62-.14-.9,0-1.79.91-4.03,1.52-6.66,1.82-.5.06-.89.48-.89.99v6.53c0,1.99.52,3.97,1.5,5.72.18.33.52.51.87.51.17,0,.33-.04.49-.13.48-.27.65-.88.38-1.36-.81-1.45-1.24-3.09-1.24-4.74v-5.66c2.29-.33,4.3-.9,6-1.69,1.29.6,2.77,1.07,4.41,1.42.55.11,1.07-.23,1.18-.77.11-.54-.23-1.07-.77-1.18Z"/>
    <path class="cls-2" d="m8.55,22.2c-.4.38-.42,1.01-.05,1.41.17.18.35.36.55.51.19.15.41.22.63.22.29,0,.58-.13.78-.37.35-.43.28-1.06-.15-1.41-.12-.1-.24-.21-.35-.33-.38-.41-1.01-.43-1.41-.05Z"/>
    <path class="cls-2" d="m24,3.98c-7.93,0-10.2-2.6-10.21-2.62-.38-.49-1.2-.49-1.58,0-.02.03-2.25,2.62-10.21,2.62-.55,0-1,.45-1,1v10.33c0,5.72,3.12,10.98,8.14,13.73l3.38,1.84c.15.08.31.12.48.12s.33-.04.48-.12l1.58-.86c.48-.26.66-.87.4-1.36-.26-.48-.87-.66-1.36-.4l-1.1.6-2.9-1.58c-4.38-2.4-7.1-6.98-7.1-11.97V5.97c5.86-.16,8.75-1.68,10-2.63,1.25.96,4.14,2.48,10,2.63v4.63c0,.55.45,1,1,1s1-.45,1-1v-5.61c0-.55-.45-1-1-1Z"/>
  </g>
  <g>
    <path class="cls-1" d="m23.3,18.36c0-.44-.36-.8-.8-.8s-.8.36-.8.8v1.99h1.6v-1.99Z"/>
    <polygon class="cls-1" points="20.7 22.35 20.41 22.35 20.41 24.47 24.59 24.47 24.59 22.35 24.3 22.35 20.7 22.35"/>
    <path class="cls-1" d="m22.5,13c-4.69,0-8.5,3.81-8.5,8.5s3.81,8.5,8.5,8.5,8.5-3.81,8.5-8.5-3.81-8.5-8.5-8.5Zm4.09,12.47c0,.55-.45,1-1,1h-6.18c-.55,0-1-.45-1-1v-4.12c0-.55.45-1,1-1h.29v-1.99c0-1.54,1.26-2.8,2.8-2.8s2.8,1.26,2.8,2.8v1.99h.29c.55,0,1,.45,1,1v4.12Z"/>
  </g>
</svg>