<?xml version="1.0" encoding="UTF-8"?>
<svg id="OBJECT" xmlns="http://www.w3.org/2000/svg" viewBox="0 0 512 512">
  <defs>
    <style>
      .cls-1 {
        fill: #FD4360;
      }

      .cls-2 {
        fill: #dadada;
      }
    </style>
  </defs>
  <g>
    <path class="cls-2" d="M504.5,447h-26V194.5c0-15.16-12.34-27.5-27.5-27.5h-27.5V7.5c0-4.14-3.36-7.5-7.5-7.5H96c-4.14,0-7.5,3.36-7.5,7.5V167h-27.5c-15.16,0-27.5,12.34-27.5,27.5v252.5H7.5c-4.14,0-7.5,3.36-7.5,7.5v30c0,15.16,12.34,27.5,27.5,27.5H484.5c15.16,0,27.5-12.34,27.5-27.5v-30c0-4.14-3.36-7.5-7.5-7.5Zm-53.5-265c6.89,0,12.5,5.61,12.5,12.5v252.5h-40V182h27.5Zm-42.5,265H103.5V75H408.5V447Zm0-432V60H103.5V15H408.5ZM48.5,194.5c0-6.89,5.61-12.5,12.5-12.5h27.5V447H48.5V194.5ZM497,484.5c0,6.89-5.61,12.5-12.5,12.5H27.5c-6.89,0-12.5-5.61-12.5-12.5v-22.5H497v22.5Z"/>
    <path class="cls-2" d="M126,45h5c4.14,0,7.5-3.36,7.5-7.5s-3.36-7.5-7.5-7.5h-5c-4.14,0-7.5,3.36-7.5,7.5s3.36,7.5,7.5,7.5Z"/>
    <path class="cls-2" d="M156,45h5c4.14,0,7.5-3.36,7.5-7.5s-3.36-7.5-7.5-7.5h-5c-4.14,0-7.5,3.36-7.5,7.5s3.36,7.5,7.5,7.5Z"/>
    <path class="cls-2" d="M186,45h5c4.14,0,7.5-3.36,7.5-7.5s-3.36-7.5-7.5-7.5h-5c-4.14,0-7.5,3.36-7.5,7.5s3.36,7.5,7.5,7.5Z"/>
  </g>
  <g>
    <path class="cls-1" d="M128.5,374.5v15c0,12.41,10.09,22.5,22.5,22.5h157.5v-60H151c-12.41,0-22.5,10.09-22.5,22.5Z"/>
    <path class="cls-1" d="M361,352h-37.5v60h37.5c12.41,0,22.5-10.09,22.5-22.5v-15c0-12.41-10.09-22.5-22.5-22.5Z"/>
    <path class="cls-1" d="M288.35,219.04c-3.04,15.07-16.39,26.46-32.35,26.46s-29.3-11.38-32.35-26.46c-20.58,9.39-35.75,27.13-42,48.43,16.87,22.75,43.91,37.52,74.34,37.52s57.48-14.77,74.34-37.52c-6.25-21.3-21.41-39.04-42-48.43Z"/>
    <path class="cls-1" d="M181.81,234.25c10.46-14.02,24.94-24.93,41.19-31.16v-28.84c0-11.17,9.08-20.25,20.25-20.25h25.5c11.17,0,20.25,9.08,20.25,20.25v28.84c16.25,6.23,30.74,17.14,41.19,31.16,3.93,5.26,7.23,10.86,9.92,16.71,5.38-11.72,8.38-24.75,8.38-38.46,0-51-41.5-92.5-92.5-92.5s-92.5,41.5-92.5,92.5c0,13.72,3,26.74,8.38,38.46,2.69-5.85,6-11.44,9.92-16.71Z"/>
    <path class="cls-1" d="M243.25,169c-2.89,0-5.25,2.35-5.25,5.25v38.25c0,9.93,8.08,18,18,18s18-8.07,18-18v-38.25c0-2.9-2.36-5.25-5.25-5.25h-25.5Z"/>
  </g>
</svg>