<?xml version="1.0" encoding="UTF-8"?>
<svg id="OBJECT" xmlns="http://www.w3.org/2000/svg" viewBox="0 0 32 32">
  <defs>
    <style>
      .cls-1 {
        fill: #FD4360;
      }

      .cls-1, .cls-2 {
        stroke-width: 0px;
      }

      .cls-2 {
        fill: #dadada;
      }
    </style>
  </defs>
  <g>
    <path class="cls-2" d="m28.02,1H4.02c-1.65,0-3,1.35-3,3v15c0,1.65,1.35,3,3,3h7.98v2.5h-2.2c-1.18,0-2.26.7-2.74,1.78l-1.21,2.72h-2.85c-.55,0-1,.45-1,1s.45,1,1,1h26c.55,0,1-.45,1-1s-.45-1-1-1h-2.85l-1.21-2.72c-.48-1.08-1.56-1.78-2.74-1.78h-2.2v-2.5h8.02c1.65,0,3-1.35,3-3V4c0-1.65-1.35-3-3-3Zm-4.91,26.09l.85,1.91h-15.92l.85-1.91c.16-.36.52-.59.92-.59h12.4c.39,0,.75.23.91.59Zm-5.11-2.59h-4v-2.5h4v2.5Zm11.02-5.5c0,.55-.45,1-1,1H4.02c-.55,0-1-.45-1-1V4c0-.55.45-1,1-1h24c.55,0,1,.45,1,1v15Z"/>
    <path class="cls-2" d="m6,4h-1c-.55,0-1,.45-1,1s.45,1,1,1h1c.55,0,1-.45,1-1s-.45-1-1-1Z"/>
    <path class="cls-2" d="m27,4h-1c-.55,0-1,.45-1,1s.45,1,1,1h1c.55,0,1-.45,1-1s-.45-1-1-1Z"/>
  </g>
  <g>
    <path class="cls-1" d="m9.75,14.2c-1.55,0-2.92-.79-3.73-1.99-.78.84-1.27,1.95-1.27,3.19,0,1.43,1.17,2.6,2.6,2.6h4.8c1.43,0,2.6-1.17,2.6-2.6,0-1.23-.49-2.35-1.27-3.19-.81,1.2-2.18,1.99-3.73,1.99Z"/>
    <circle class="cls-1" cx="9.75" cy="9.7" r="2.5"/>
    <path class="cls-1" d="m21.25,11.14h5c.55,0,1-.45,1-1s-.45-1-1-1h-5c-.55,0-1,.45-1,1s.45,1,1,1Z"/>
    <path class="cls-1" d="m26.23,13.16h-5c-.55,0-1,.45-1,1s.45,1,1,1h5c.55,0,1-.45,1-1s-.45-1-1-1Z"/>
    <path class="cls-1" d="m18.25,9.14h-1c-.55,0-1,.45-1,1s.45,1,1,1h1c.55,0,1-.45,1-1s-.45-1-1-1Z"/>
    <path class="cls-1" d="m18.25,13.14h-1c-.55,0-1,.45-1,1s.45,1,1,1h1c.55,0,1-.45,1-1s-.45-1-1-1Z"/>
  </g>
</svg>