<?xml version="1.0" encoding="UTF-8"?>
<svg id="OBJECT" xmlns="http://www.w3.org/2000/svg" viewBox="0 0 512 512">
  <defs>
    <style>
      .cls-1 {
        fill: #FD4360;
      }

      .cls-2 {
        fill: #dadada;
      }
    </style>
  </defs>
  <g>
    <path class="cls-2" d="M221,357h-10c-4.14,0-7.5,3.36-7.5,7.5s3.36,7.5,7.5,7.5h10c4.14,0,7.5-3.36,7.5-7.5s-3.36-7.5-7.5-7.5Z"/>
    <path class="cls-2" d="M261,357h-10c-4.14,0-7.5,3.36-7.5,7.5s3.36,7.5,7.5,7.5h10c4.14,0,7.5-3.36,7.5-7.5s-3.36-7.5-7.5-7.5Z"/>
    <path class="cls-2" d="M301,357h-10c-4.14,0-7.5,3.36-7.5,7.5s3.36,7.5,7.5,7.5h10c4.14,0,7.5-3.36,7.5-7.5s-3.36-7.5-7.5-7.5Z"/>
    <path class="cls-2" d="M504.5,67h-78.5c-4.14,0-7.5,3.36-7.5,7.5s3.36,7.5,7.5,7.5h71v245H15V82H86c4.14,0,7.5-3.36,7.5-7.5s-3.36-7.5-7.5-7.5H7.5c-4.14,0-7.5,3.36-7.5,7.5V394.5c0,4.14,3.36,7.5,7.5,7.5H188.5v60H111c-12.41,0-22.5,10.09-22.5,22.5v20c0,4.14,3.36,7.5,7.5,7.5H416c4.14,0,7.5-3.36,7.5-7.5v-20c0-12.41-10.09-22.5-22.5-22.5h-77.5v-60h181c4.14,0,7.5-3.36,7.5-7.5V74.5c0-4.14-3.36-7.5-7.5-7.5Zm-96,417.5v12.5H103.5v-12.5c0-4.14,3.36-7.5,7.5-7.5H401c4.14,0,7.5,3.36,7.5,7.5Zm-100-22.5h-45v-30c0-4.14-3.36-7.5-7.5-7.5s-7.5,3.36-7.5,7.5v30h-45v-60h105v60ZM15,387v-45H497v45H15Z"/>
  </g>
  <g>
    <path class="cls-1" d="M136,115h30c4.5,0,8.75-1.09,12.5-3.01V0h-62.5c-4.14,0-7.5,3.36-7.5,7.5V87.5c0,15.16,12.34,27.5,27.5,27.5Z"/>
    <path class="cls-1" d="M236,115c4.5,0,8.75-1.09,12.5-3.01V0h-55V111.99c3.75,1.92,8,3.01,12.5,3.01h30Z"/>
    <path class="cls-1" d="M376,115c15.16,0,27.5-12.34,27.5-27.5V7.5c0-4.14-3.36-7.5-7.5-7.5h-62.5V111.99c3.75,1.92,8,3.01,12.5,3.01h30Z"/>
    <path class="cls-1" d="M306,115c4.5,0,8.75-1.09,12.5-3.01V0h-55V111.99c3.75,1.92,8,3.01,12.5,3.01h30Z"/>
    <path class="cls-1" d="M276,177h-40c-12.41,0-22.5,10.09-22.5,22.5v82.5h85v-82.5c0-12.41-10.09-22.5-22.5-22.5Z"/>
    <path class="cls-1" d="M406,267h-22.5V129.32c-2.44,.44-4.94,.68-7.5,.68h-30c-7.01,0-13.89-1.77-20-5.03-6.11,3.26-12.99,5.03-20,5.03h-30c-7.01,0-13.89-1.77-20-5.03-6.11,3.26-12.99,5.03-20,5.03h-30c-7.01,0-13.89-1.77-20-5.03-6.11,3.26-12.99,5.03-20,5.03h-30c-2.56,0-5.06-.24-7.5-.68v137.68h-22.5c-4.14,0-7.5,3.36-7.5,7.5s3.36,7.5,7.5,7.5h92.5v-82.5c0-20.68,16.82-37.5,37.5-37.5h40c20.68,0,37.5,16.82,37.5,37.5v82.5h92.5c4.14,0,7.5-3.36,7.5-7.5s-3.36-7.5-7.5-7.5Z"/>
  </g>
</svg>