<?xml version="1.0" encoding="UTF-8"?>
<svg id="OBJECT" xmlns="http://www.w3.org/2000/svg" viewBox="0 0 32 32">
  <defs>
    <style>
      .cls-1 {
        fill: #FD4360;
      }

      .cls-1, .cls-2 {
        stroke-width: 0px;
      }

      .cls-2 {
        fill: #dadada;
      }
    </style>
  </defs>
  <path class="cls-1" d="m28,1H4c-1.65,0-3,1.35-3,3v3h30v-3c0-1.65-1.35-3-3-3ZM5,5h-1c-.55,0-1-.45-1-1s.45-1,1-1h1c.55,0,1,.45,1,1s-.45,1-1,1Zm4,0h-1c-.55,0-1-.45-1-1s.45-1,1-1h1c.55,0,1,.45,1,1s-.45,1-1,1Zm4,0h-1c-.55,0-1-.45-1-1s.45-1,1-1h1c.55,0,1,.45,1,1s-.45,1-1,1Z"/>
  <g>
    <path class="cls-2" d="m30,9c-.55,0-1,.45-1,1v18c0,.55-.45,1-1,1H4c-.55,0-1-.45-1-1V10c0-.55-.45-1-1-1s-1,.45-1,1v18c0,1.65,1.35,3,3,3h24c1.65,0,3-1.35,3-3V10c0-.55-.45-1-1-1Z"/>
    <path class="cls-2" d="m6.25,26h19.5c.55,0,1-.45,1-1s-.45-1-1-1H6.25c-.55,0-1,.45-1,1s.45,1,1,1Z"/>
    <path class="cls-2" d="m6.25,21h7.5c.55,0,1-.45,1-1v-8c0-.55-.45-1-1-1h-7.5c-.55,0-1,.45-1,1v8c0,.55.45,1,1,1Zm1-8h5.5v6h-5.5v-6Z"/>
    <path class="cls-2" d="m18.25,21h3.5c.55,0,1-.45,1-1s-.45-1-1-1h-3.5c-.55,0-1,.45-1,1s.45,1,1,1Z"/>
    <path class="cls-2" d="m25.75,19h-1c-.55,0-1,.45-1,1s.45,1,1,1h1c.55,0,1-.45,1-1s-.45-1-1-1Z"/>
    <path class="cls-2" d="m18.25,13h7.5c.55,0,1-.45,1-1s-.45-1-1-1h-7.5c-.55,0-1,.45-1,1s.45,1,1,1Z"/>
    <path class="cls-2" d="m18.25,17h7.5c.55,0,1-.45,1-1s-.45-1-1-1h-7.5c-.55,0-1,.45-1,1s.45,1,1,1Z"/>
  </g>
</svg>