<?xml version="1.0" encoding="UTF-8"?>
<svg id="OBJECT" xmlns="http://www.w3.org/2000/svg" viewBox="0 0 32 32">
  <defs>
    <style>
      .cls-1 {
        fill: #FD4360;
      }

      .cls-1, .cls-2 {
        stroke-width: 0px;
      }

      .cls-2 {
        fill: #dadada;
      }
    </style>
  </defs>
  <path class="cls-1" d="m25.86,8.66h-7.71c-1.18,0-2.14.96-2.14,2.14v8.4c0,1.18.96,2.14,2.14,2.14h7.71c1.18,0,2.14-.96,2.14-2.14v-8.4c0-1.18-.96-2.14-2.14-2.14Zm-1.17,6.04c0,1.23-1,2.23-2.23,2.23h-.91c-1.23,0-2.23-1-2.23-2.23v-1.68c0-.47.38-.86.86-.86s.86.38.86.86v1.68c0,.28.23.51.51.51h.91c.28,0,.51-.23.51-.51v-1.68c0-.47.38-.86.86-.86s.86.38.86.86v1.68Z"/>
  <g>
    <path class="cls-2" d="m10.54,4c-.55,0-1,.45-1,1s.45,1,1,1h5c.55,0,1-.45,1-1s-.45-1-1-1h-5Z"/>
    <path class="cls-2" d="m21.09,7.6c.55,0,1-.45,1-1v-3.1c0-1.38-1.12-2.5-2.5-2.5H6.5c-1.38,0-2.5,1.12-2.5,2.5v25c0,1.38,1.12,2.5,2.5,2.5h13.09c1.38,0,2.5-1.12,2.5-2.5v-5.1c0-.55-.45-1-1-1s-1,.45-1,1v.6H6V3.5c0-.28.22-.5.5-.5h13.09c.28,0,.5.22.5.5v3.1c0,.55.45,1,1,1Zm-1,18.4v2.5c0,.28-.22.5-.5.5H6.5c-.28,0-.5-.22-.5-.5v-2.5h14.09Z"/>
  </g>
</svg>