<?xml version="1.0" encoding="UTF-8"?>
<svg id="OBJECT" xmlns="http://www.w3.org/2000/svg" viewBox="0 0 32 32">
  <defs>
    <style>
      .cls-1 {
        fill: #FD4360;
      }

      .cls-1, .cls-2 {
        stroke-width: 0px;
      }

      .cls-2 {
        fill: #dadada;
      }
    </style>
  </defs>
  <path class="cls-2" d="m30,25.5h-1v-14.41c0-.55-.45-1-1-1s-1,.45-1,1v14.41h-5v-10c0-1.65-1.35-3-3-3h-6c-1.65,0-3,1.35-3,3v10h-5v-14.41c0-.55-.45-1-1-1s-1,.45-1,1v14.41h-1c-.55,0-1,.45-1,1v2c0,1.38,1.12,2.5,2.5,2.5h25c1.38,0,2.5-1.12,2.5-2.5v-2c0-.55-.45-1-1-1ZM12,15.5c0-.55.45-1,1-1h6c.55,0,1,.45,1,1v10h-8v-10Zm17,13c0,.28-.22.5-.5.5H3.5c-.28,0-.5-.22-.5-.5v-1h26v1Z"/>
  <path class="cls-1" d="m2,3v1.75c0,2.34,1.91,4.25,4.25,4.25,1.3,0,2.47-.59,3.25-1.51.78.93,1.95,1.51,3.25,1.51s2.47-.59,3.25-1.51c.78.93,1.95,1.51,3.25,1.51s2.47-.59,3.25-1.51c.78.93,1.95,1.51,3.25,1.51,2.34,0,4.25-1.91,4.25-4.25v-1.75c.55,0,1-.45,1-1s-.45-1-1-1H2c-.55,0-1,.45-1,1s.45,1,1,1Z"/>
</svg>