<?xml version="1.0" encoding="UTF-8"?>
<svg id="OBJECT" xmlns="http://www.w3.org/2000/svg" viewBox="0 0 32 32">
  <defs>
    <style>
      .cls-1 {
        fill: #FD4360;
      }

      .cls-1, .cls-2 {
        stroke-width: 0px;
      }

      .cls-2 {
        fill: #dadada;
      }
    </style>
  </defs>
  <path class="cls-1" d="m28.18,13.55h-6.36c-1.55,0-2.82,1.26-2.82,2.82v11.82c0,1.55,1.26,2.82,2.82,2.82h6.36c1.55,0,2.82-1.26,2.82-2.82v-11.82c0-1.55-1.26-2.82-2.82-2.82Zm-2.73,14.73h-.91c-.55,0-1-.45-1-1s.45-1,1-1h.91c.55,0,1,.45,1,1s-.45,1-1,1Z"/>
  <g>
    <path class="cls-2" d="m9.71,12.79c-.55,0-1,.45-1,1s.45,1,1,1h6.57c.55,0,1-.45,1-1s-.45-1-1-1h-6.57Z"/>
    <path class="cls-2" d="m26.83,9.01l-5.14-7.57c-.19-.27-.5-.44-.83-.44H7.14c-.33,0-.64.16-.83.44L1.17,9.01c-.21.31-.23.7-.06,1.03.17.33.51.53.88.53h.71v14.43h-.71c-.55,0-1,.45-1,1s.45,1,1,1h14c.55,0,1-.45,1-1s-.45-1-1-1h-1v-5.71h1c.55,0,1-.45,1-1s-.45-1-1-1h-8c-.55,0-1,.45-1,1v6.71h-2.29v-14.43h18.58c.01.54.45.97.99.97s.98-.43.99-.97h.72c.37,0,.71-.2.88-.53.17-.33.15-.72-.06-1.03Zm-17.83,10.28h4v5.71h-4v-5.71Zm15.11-10.71h-3.26l-2.13-5.57h1.61l3.78,5.57ZM15,3h1.58l2.13,5.57h-3.71V3Zm-2,5.57h-3.71l2.13-5.57h1.58v5.57ZM7.67,3h1.61l-2.13,5.57h-3.26l3.78-5.57Z"/>
  </g>
</svg>