<?xml version="1.0" encoding="UTF-8"?>
<svg id="OBJECT" xmlns="http://www.w3.org/2000/svg" viewBox="0 0 32 32">
  <defs>
    <style>
      .cls-1 {
        fill: #FD4360;
      }

      .cls-2 {
        fill: #dadada;
      }
    </style>
  </defs>
  <path class="cls-2" d="M30,29h-.5V13.37c0-.55-.45-1-1-1s-1,.45-1,1v15.63h-5.5v-10c0-1.65-1.35-3-3-3h-6c-1.65,0-3,1.35-3,3v10H4.5V13.37c0-.55-.45-1-1-1s-1,.45-1,1v15.63h-.5c-.55,0-1,.45-1,1s.45,1,1,1H30c.55,0,1-.45,1-1s-.45-1-1-1ZM12,19c0-.55,.45-1,1-1h6c.55,0,1,.45,1,1v10H12v-10Z"/>
  <g>
    <path class="cls-1" d="M29,1H3C1.9,1,1,1.9,1,3v1H31v-1c0-1.1-.9-2-2-2Z"/>
    <path class="cls-1" d="M1,6.5c0,2.48,2.02,4.5,4.5,4.5,1.41,0,2.67-.65,3.5-1.67,.83,1.02,2.09,1.67,3.5,1.67s2.67-.65,3.5-1.67c.83,1.02,2.09,1.67,3.5,1.67s2.67-.65,3.5-1.67c.83,1.02,2.09,1.67,3.5,1.67,2.48,0,4.5-2.02,4.5-4.5v-.5H1v.5Z"/>
  </g>
</svg>