<?xml version="1.0" encoding="UTF-8"?>
<svg id="OBJECT" xmlns="http://www.w3.org/2000/svg" viewBox="0 0 32 32">
  <defs>
    <style>
      .cls-1 {
        fill: #FD4360;
      }

      .cls-1, .cls-2 {
        stroke-width: 0px;
      }

      .cls-2 {
        fill: #dadada;
      }
    </style>
  </defs>
  <g>
    <path class="cls-2" d="m30,10.5h-1c-.55,0-1,.45-1,1s.45,1,1,1h1c.55,0,1-.45,1-1s-.45-1-1-1Z"/>
    <path class="cls-2" d="m28.13,8.25c.17,0,.34-.04.5-.13l.87-.5c.48-.28.64-.89.37-1.37-.28-.48-.89-.64-1.37-.37l-.87.5c-.48.28-.64.89-.37,1.37.19.32.52.5.87.5Z"/>
    <path class="cls-2" d="m29.5,15.38l-.87-.5c-.48-.28-1.09-.11-1.37.37-.28.48-.11,1.09.37,1.37l.87.5c.16.09.33.13.5.13.35,0,.68-.18.87-.5.28-.48.11-1.09-.37-1.37Z"/>
    <path class="cls-2" d="m4,11.5c0-.55-.45-1-1-1h-1c-.55,0-1,.45-1,1s.45,1,1,1h1c.55,0,1-.45,1-1Z"/>
    <path class="cls-2" d="m4.37,6.38l-.87-.5c-.48-.28-1.09-.11-1.37.37s-.11,1.09.37,1.37l.87.5c.16.09.33.13.5.13.35,0,.68-.18.87-.5.28-.48.11-1.09-.37-1.37Z"/>
    <path class="cls-2" d="m3.37,14.88l-.87.5c-.48.28-.64.89-.37,1.37.19.32.52.5.87.5.17,0,.34-.04.5-.13l.87-.5c.48-.28.64-.89.37-1.37-.28-.48-.89-.64-1.37-.37Z"/>
    <path class="cls-2" d="m16,1c-5.79,0-10.5,4.71-10.5,10.5s4.71,10.5,10.5,10.5,10.5-4.71,10.5-10.5S21.79,1,16,1Zm0,19c-4.69,0-8.5-3.81-8.5-8.5S11.31,3,16,3s8.5,3.81,8.5,8.5-3.81,8.5-8.5,8.5Z"/>
    <path class="cls-2" d="m15.25,9.5h3c.55,0,1-.45,1-1s-.45-1-1-1h-1.25v-.5c0-.55-.45-1-1-1s-1,.45-1,1v.53c-1.26.13-2.25,1.18-2.25,2.47,0,1.38,1.12,2.5,2.5,2.5h1.5c.28,0,.5.22.5.5s-.22.5-.5.5h-3c-.55,0-1,.45-1,1s.45,1,1,1h1.25v.5c0,.55.45,1,1,1s1-.45,1-1v-.53c1.26-.13,2.25-1.18,2.25-2.47,0-1.38-1.12-2.5-2.5-2.5h-1.5c-.28,0-.5-.22-.5-.5s.22-.5.5-.5Z"/>
    <path class="cls-2" d="m20.5,11.5c0,.55.45,1,1,1h1c.55,0,1-.45,1-1s-.45-1-1-1h-1c-.55,0-1,.45-1,1Z"/>
    <path class="cls-2" d="m10.5,10.5h-1c-.55,0-1,.45-1,1s.45,1,1,1h1c.55,0,1-.45,1-1s-.45-1-1-1Z"/>
  </g>
  <path class="cls-1" d="m22.5,25.75c-.15,0-.3.03-.45.11l-1.05.53v-3.43c-1.53.67-3.22,1.05-5,1.05s-3.47-.38-5-1.05v3.43l-1.05-.53c-.5-.25-1.09-.05-1.34.45-.25.49-.05,1.09.45,1.34l6.5,3.25c.28.14.61.14.89,0l6.5-3.25c.49-.25.69-.85.45-1.34-.18-.35-.53-.55-.9-.55Zm-5.5,1.25c0,.55-.45,1-1,1s-1-.45-1-1v-1c0-.55.45-1,1-1s1,.45,1,1v1Z"/>
</svg>