<?xml version="1.0" encoding="UTF-8"?>
<svg id="OBJECT" xmlns="http://www.w3.org/2000/svg" viewBox="0 0 32 32">
  <defs>
    <style>
      .cls-1 {
        fill: #FD4360;
      }

      .cls-1, .cls-2 {
        stroke-width: 0px;
      }

      .cls-2 {
        fill: #dadada;
      }
    </style>
  </defs>
  <path class="cls-2" d="m19.83,20.41l-.83-.83v-1.59c0-1.65-1.35-3-3-3h-6c-1.65,0-3,1.35-3,3v1.59l-.83.83c-.76.76-1.17,1.76-1.17,2.83v6.76c0,.55.45,1,1,1h14c.55,0,1-.45,1-1v-6.76c0-1.07-.42-2.07-1.17-2.83Zm-9.83-3.41h6c.55,0,1,.45,1,1v1h-8v-1c0-.55.45-1,1-1Zm-2.41,4.83l.83-.83h9.17l.83.83c.38.38.59.88.59,1.41v1.76H7v-1.76c0-.53.21-1.04.59-1.41Zm-.59,7.17v-2h12v2H7Z"/>
  <g>
    <path class="cls-1" d="m7,8c0,1.1.9,2,2,2h2v3h4v-3h2c1.1,0,2-.9,2-2v-1H7v1Z"/>
    <path class="cls-1" d="m23.13,8.04c-.44.59-1.88,2.61-1.88,3.73,0,1.38,1.12,2.5,2.5,2.5s2.5-1.12,2.5-2.5c0-1.12-1.44-3.14-1.88-3.73-.29-.39-.94-.39-1.23,0Z"/>
    <path class="cls-1" d="m26,1H6c-1.1,0-2,.9-2,2s.9,2,2,2h22v-2c0-1.1-.9-2-2-2Z"/>
  </g>
</svg>