<?xml version="1.0" encoding="UTF-8"?>
<svg id="OBJECT" xmlns="http://www.w3.org/2000/svg" viewBox="0 0 32 32">
  <defs>
    <style>
      .cls-1 {
        fill: #FD4360;
      }

      .cls-1, .cls-2 {
        stroke-width: 0px;
      }

      .cls-2 {
        fill: #dadada;
      }
    </style>
  </defs>
  <g>
    <path class="cls-2" d="m6.21,9.43c-.39-.39-1.02-.39-1.41,0l-3.5,3.5c-.39.39-.39,1.02,0,1.41.2.2.45.29.71.29s.51-.1.71-.29l1.79-1.79v8.45c0,.55.45,1,1,1s1-.45,1-1v-8.45l1.79,1.79c.39.39,1.02.39,1.41,0s.39-1.02,0-1.41l-3.5-3.5Z"/>
    <path class="cls-2" d="m30.71,12.93l-3.5-3.5c-.39-.39-1.02-.39-1.41,0l-3.5,3.5c-.39.39-.39,1.02,0,1.41.2.2.45.29.71.29s.51-.1.71-.29l1.79-1.79v8.52c0,.55.45,1,1,1s1-.45,1-1v-8.52l1.79,1.79c.39.39,1.02.39,1.41,0s.39-1.02,0-1.41Z"/>
    <path class="cls-2" d="m16.71,1.29c-.39-.39-1.02-.39-1.41,0l-4,4c-.39.39-.39,1.02,0,1.41s1.02.39,1.41,0l2.29-2.29v7.59c0,.55.45,1,1,1s1-.45,1-1v-7.59l2.29,2.29c.2.2.45.29.71.29s.51-.1.71-.29c.39-.39.39-1.02,0-1.41l-4-4Z"/>
  </g>
  <path class="cls-1" d="m16,15c-4.41,0-8,3.59-8,8s3.59,8,8,8,8-3.59,8-8-3.59-8-8-8Zm-.65,7.06h1.31c1.24,0,2.25,1.01,2.25,2.25,0,1.14-.86,2.08-1.96,2.22v.4c0,.52-.42.94-.94.94s-.94-.42-.94-.94v-.37h-1.02c-.52,0-.94-.42-.94-.94s.42-.94.94-.94h2.61c.2,0,.37-.16.37-.37s-.16-.37-.37-.37h-1.31c-1.24,0-2.25-1.01-2.25-2.25,0-1.14.86-2.08,1.96-2.22v-.4c0-.52.42-.94.94-.94s.94.42.94.94v.37h1.02c.52,0,.94.42.94.94s-.42.94-.94.94h-2.61c-.2,0-.37.16-.37.37s.16.37.37.37Z"/>
</svg>