<?xml version="1.0" encoding="UTF-8"?>
<svg id="OBJECT" xmlns="http://www.w3.org/2000/svg" viewBox="0 0 32 32">
  <defs>
    <style>
      .cls-1 {
        fill: #FD4360;
      }

      .cls-1, .cls-2 {
        stroke-width: 0px;
      }

      .cls-2 {
        fill: #dadada;
      }
    </style>
  </defs>
  <g>
    <path class="cls-2" d="m25,14H7c-1.65,0-3,1.35-3,3v9c0,1.65,1.35,3,3,3v1c0,.55.45,1,1,1s1-.45,1-1v-1h14v1c0,.55.45,1,1,1s1-.45,1-1v-1c1.65,0,3-1.35,3-3v-9c0-1.65-1.35-3-3-3Zm1,12c0,.55-.45,1-1,1H7c-.55,0-1-.45-1-1v-9c0-.55.45-1,1-1h18c.55,0,1,.45,1,1v9Z"/>
    <path class="cls-2" d="m23.5,17.5h-15c-.55,0-1,.45-1,1s.45,1,1,1h12v1c0,.55.45,1,1,1s1-.45,1-1v-1h1c.55,0,1-.45,1-1s-.45-1-1-1Z"/>
    <path class="cls-2" d="m10,23h-1c-.55,0-1,.45-1,1s.45,1,1,1h1c.55,0,1-.45,1-1s-.45-1-1-1Z"/>
    <path class="cls-2" d="m14,23h-1c-.55,0-1,.45-1,1s.45,1,1,1h1c.55,0,1-.45,1-1s-.45-1-1-1Z"/>
  </g>
  <path class="cls-1" d="m10.5,12h2v-6.5h7v6.5h2v-6.5h2.5v-3c0-.83-.67-1.5-1.5-1.5h-13c-.83,0-1.5.67-1.5,1.5v3h2.5v6.5Z"/>
</svg>