<?xml version="1.0" encoding="UTF-8"?>
<svg id="OBJECT" xmlns="http://www.w3.org/2000/svg" viewBox="0 0 32 32">
  <defs>
    <style>
      .cls-1 {
        fill: #FD4360;
      }

      .cls-1, .cls-2 {
        stroke-width: 0px;
      }

      .cls-2 {
        fill: #dadada;
      }
    </style>
  </defs>
  <g>
    <path class="cls-2" d="m13.5,10h-1c-.55,0-1,.45-1,1s.45,1,1,1h1c.55,0,1-.45,1-1s-.45-1-1-1Z"/>
    <path class="cls-2" d="m19.5,10h-1c-.55,0-1,.45-1,1s.45,1,1,1h1c.55,0,1-.45,1-1s-.45-1-1-1Z"/>
    <path class="cls-2" d="m27,13h-.5v-2c0-.94-.45-1.84-1.2-2.4l-2.8-2.1v-2.5c0-1.65-1.35-3-3-3h-7c-1.65,0-3,1.35-3,3v2.5l-2.8,2.1c-.75.56-1.2,1.46-1.2,2.4v2h-.5c-.55,0-1,.45-1,1s.45,1,1,1h22c.55,0,1-.45,1-1s-.45-1-1-1ZM12.5,3h7c.55,0,1,.45,1,1v2h-9v-2c0-.55.45-1,1-1Zm-5,8c0-.31.15-.61.4-.8l2.93-2.2h10.33l2.93,2.2c.25.19.4.49.4.8v2H7.5v-2Z"/>
  </g>
  <path class="cls-1" d="m7,26c0,2.76,2.24,5,5,5h8c2.76,0,5-2.24,5-5v-9H7v9Zm9.22,2.56h-.45c-.55,0-1-.45-1-1s.45-1,1-1h.45c.55,0,1,.45,1,1s-.45,1-1,1Zm2.48-2.8c-.2.19-.45.29-.7.29s-.51-.1-.71-.3c-.69-.7-1.89-.7-2.58,0-.39.39-1.02.39-1.42,0-.39-.39-.4-1.02,0-1.42,1.45-1.46,3.97-1.46,5.42,0,.39.39.38,1.03,0,1.42Zm-7.42-4.34c1.26-1.27,2.93-1.97,4.71-1.97s3.45.7,4.71,1.97c.39.39.38,1.03,0,1.41-.19.19-.45.29-.7.29s-.51-.1-.71-.3c-.88-.89-2.05-1.38-3.29-1.38s-2.41.49-3.29,1.38c-.39.39-1.02.4-1.41,0-.39-.39-.4-1.02,0-1.41Z"/>
</svg>