<?xml version="1.0" encoding="UTF-8"?>
<svg id="OBJECT" xmlns="http://www.w3.org/2000/svg" viewBox="0 0 512 512">
  <defs>
    <style>
      .cls-1 {
        fill: #FD4360;
      }

      .cls-2 {
        fill: #dadada;
      }
    </style>
  </defs>
  <g>
    <path class="cls-2" d="M256,0C155.37,0,73.5,81.87,73.5,182.5s81.87,182.5,182.5,182.5,182.5-81.87,182.5-182.5S356.63,0,256,0Zm0,350c-92.36,0-167.5-75.14-167.5-167.5S163.64,15,256,15s167.5,75.14,167.5,167.5-75.14,167.5-167.5,167.5Z"/>
    <path class="cls-2" d="M256,60c-67.55,0-122.5,54.95-122.5,122.5s54.95,122.5,122.5,122.5,122.5-54.95,122.5-122.5-54.95-122.5-122.5-122.5Zm0,230c-59.28,0-107.5-48.22-107.5-107.5s48.22-107.5,107.5-107.5,107.5,48.22,107.5,107.5-48.22,107.5-107.5,107.5Z"/>
    <path class="cls-2" d="M136.9,113.85c1.6-2.76,3.31-5.5,5.09-8.14,2.32-3.43,1.42-8.09-2.01-10.41-3.43-2.32-8.09-1.42-10.41,2.02-1.98,2.92-3.88,5.96-5.65,9.02-2.08,3.58-.85,8.17,2.73,10.25,1.18,.69,2.48,1.01,3.75,1.01,2.59,0,5.11-1.34,6.5-3.74Z"/>
    <path class="cls-2" d="M122.58,215.8c-1-4.02-5.08-6.46-9.09-5.46-4.02,1-6.46,5.08-5.46,9.09,.86,3.43,1.85,6.87,2.94,10.23,1.03,3.17,3.97,5.18,7.13,5.18,.77,0,1.55-.12,2.33-.37,3.94-1.28,6.09-5.52,4.81-9.46-.98-3.02-1.88-6.12-2.65-9.22Z"/>
    <path class="cls-2" d="M170.73,72.79c1.53,0,3.08-.47,4.41-1.44,2.57-1.88,5.24-3.69,7.94-5.38,3.51-2.2,4.56-6.83,2.36-10.34-2.2-3.51-6.83-4.56-10.34-2.36-2.99,1.88-5.95,3.88-8.8,5.96-3.35,2.44-4.08,7.13-1.64,10.48,1.47,2.01,3.75,3.08,6.07,3.08Z"/>
    <path class="cls-2" d="M111.79,174.91c3.79,0,7.05-2.87,7.45-6.73,.33-3.17,.77-6.37,1.32-9.5,.71-4.08-2.01-7.97-6.09-8.68-4.08-.72-7.97,2.01-8.68,6.09-.61,3.48-1.1,7.02-1.47,10.54-.43,4.12,2.57,7.81,6.68,8.23,.26,.03,.53,.04,.78,.04Z"/>
    <path class="cls-2" d="M225.72,48.18c.52,0,1.04-.05,1.57-.17,3.11-.66,6.29-1.22,9.44-1.67,4.1-.58,6.96-4.37,6.38-8.47-.58-4.1-4.38-6.96-8.47-6.38-3.5,.49-7.03,1.12-10.48,1.85-4.05,.86-6.63,4.85-5.77,8.9,.75,3.52,3.86,5.94,7.33,5.94Z"/>
    <path class="cls-2" d="M336.65,71.2c2.58,1.87,5.12,3.86,7.57,5.91,1.41,1.18,3.11,1.75,4.81,1.75,2.14,0,4.27-.91,5.75-2.68,2.66-3.17,2.24-7.9-.93-10.57-2.71-2.27-5.53-4.47-8.38-6.55-3.35-2.43-8.04-1.69-10.48,1.66-2.43,3.35-1.69,8.04,1.66,10.48Z"/>
    <path class="cls-2" d="M284.45,47.96c3.12,.66,6.25,1.43,9.31,2.31,.69,.2,1.38,.29,2.07,.29,3.26,0,6.27-2.15,7.21-5.44,1.14-3.98-1.17-8.13-5.15-9.27-3.4-.97-6.87-1.83-10.33-2.56-4.05-.86-8.03,1.74-8.89,5.79-.86,4.05,1.74,8.03,5.79,8.89Z"/>
    <path class="cls-2" d="M256.31,320h-.31c-3.2,0-6.42-.11-9.59-.33-4.14-.27-7.71,2.83-8,6.96-.29,4.13,2.83,7.71,6.96,8,3.51,.24,7.08,.37,10.63,.37h.31c4.14,0,7.5-3.36,7.5-7.5s-3.36-7.5-7.5-7.5Z"/>
    <path class="cls-2" d="M396.3,219.94c-3.94-1.28-8.17,.88-9.45,4.82-.98,3.03-2.08,6.06-3.28,9.03-1.55,3.84,.31,8.21,4.15,9.76,.92,.37,1.87,.55,2.8,.55,2.97,0,5.78-1.77,6.96-4.7,1.33-3.29,2.55-6.66,3.64-10.02,1.28-3.94-.88-8.17-4.83-9.45Z"/>
    <path class="cls-2" d="M407.65,166.34c-.43-4.12-4.13-7.1-8.25-6.67-4.12,.44-7.11,4.13-6.67,8.25,.33,3.16,.56,6.38,.68,9.57,.15,4.05,3.47,7.23,7.49,7.23,.09,0,.18,0,.27,0,4.14-.15,7.38-3.63,7.23-7.76-.13-3.53-.38-7.1-.75-10.61Z"/>
    <path class="cls-2" d="M389.54,125.5c3.72-1.83,5.25-6.32,3.43-10.04-1.55-3.16-3.24-6.32-5.02-9.37-2.08-3.58-6.67-4.8-10.25-2.72-3.58,2.08-4.8,6.67-2.72,10.25,1.6,2.75,3.12,5.6,4.52,8.45,1.3,2.65,3.97,4.2,6.74,4.2,1.11,0,2.24-.25,3.3-.77Z"/>
    <path class="cls-2" d="M312.14,308.01c-2.9,1.3-5.88,2.52-8.87,3.62-3.89,1.43-5.88,5.74-4.45,9.63,1.12,3.03,3.99,4.92,7.04,4.92,.86,0,1.73-.15,2.59-.46,3.31-1.22,6.62-2.57,9.84-4.01,3.78-1.7,5.47-6.13,3.77-9.91-1.7-3.78-6.14-5.47-9.91-3.77Z"/>
    <path class="cls-2" d="M200.11,308.12c-2.91-1.3-5.81-2.72-8.62-4.22-3.66-1.95-8.2-.57-10.15,3.08-1.95,3.65-.57,8.2,3.08,10.15,3.12,1.66,6.33,3.24,9.57,4.68,.99,.44,2.03,.65,3.06,.65,2.87,0,5.61-1.65,6.85-4.44,1.69-3.78,0-8.22-3.79-9.91Z"/>
    <path class="cls-2" d="M368.88,273.72c-3.08-2.77-7.82-2.51-10.59,.57-2.13,2.37-4.37,4.7-6.66,6.92-2.97,2.88-3.05,7.63-.17,10.6,1.47,1.52,3.43,2.28,5.39,2.28s3.76-.7,5.22-2.12c2.54-2.46,5.02-5.04,7.38-7.66,2.77-3.08,2.51-7.82-.57-10.59Z"/>
    <path class="cls-2" d="M147.7,267.13c-2.56-3.26-7.27-3.83-10.53-1.28-3.26,2.55-3.83,7.27-1.28,10.53,2.18,2.78,4.48,5.52,6.84,8.14,1.48,1.64,3.52,2.48,5.57,2.48,1.79,0,3.59-.64,5.02-1.93,3.08-2.77,3.32-7.52,.55-10.59-2.13-2.37-4.21-4.84-6.18-7.35Z"/>
  </g>
  <g>
    <rect class="cls-1" x="173.5" y="472" width="165" height="40" rx="10" ry="10"/>
    <path class="cls-1" d="M148.5,479.5c0-4.14-3.36-7.5-7.5-7.5s-7.5,3.36-7.5,7.5v25c0,4.14,3.36,7.5,7.5,7.5s7.5-3.36,7.5-7.5v-5h10v-15h-10v-5Z"/>
    <path class="cls-1" d="M243.5,420.56v36.44h25v-36.44c-4.16,.24-8.33,.36-12.5,.36h-.01c-4.17,0-8.33-.12-12.49-.36Z"/>
    <path class="cls-1" d="M195.85,396.84c19.68,6.05,39.91,9.08,60.15,9.08,20.23,0,40.47-3.03,60.15-9.08,7.39-2.27,12.35-9,12.35-16.73v-13.9c-22.46,8.89-46.92,13.78-72.5,13.78s-50.04-4.89-72.5-13.78v13.9c0,7.73,4.96,14.45,12.35,16.73Z"/>
    <path class="cls-1" d="M283.5,427v30h30v-12.5c0-9.65-7.85-17.5-17.5-17.5h-12.5Z"/>
    <path class="cls-1" d="M198.5,444.5v12.5h30v-30h-12.5c-9.65,0-17.5,7.85-17.5,17.5Z"/>
  </g>
</svg>