<?xml version="1.0" encoding="UTF-8"?>
<svg id="OBJECT" xmlns="http://www.w3.org/2000/svg" viewBox="0 0 32 32">
  <defs>
    <style>
      .cls-1 {
        fill: #FD4360;
      }

      .cls-1, .cls-2 {
        stroke-width: 0px;
      }

      .cls-2 {
        fill: #dadada;
      }
    </style>
  </defs>
  <path class="cls-2" d="m31,6.01c0-.9-.35-1.74-.98-2.38l-1.65-1.65c-.63-.63-1.47-.98-2.37-.98h0c-.89,0-1.73.35-2.35.98l-1.78,1.77-.12-.12c-.39-.39-1.02-.39-1.41,0s-.39,1.02,0,1.41l.12.12-13.2,13.19c-.39.39-.39,1.02,0,1.41.39.39,1.02.39,1.41,0l13.2-13.19,1.07,1.07-12.78,12.78c-.39.39-.39,1.02,0,1.41.2.2.45.29.71.29s.51-.1.71-.29l12.78-12.78,1.07,1.07-13.19,13.2c-.39.39-.39,1.02,0,1.41.2.19.45.29.71.29s.51-.1.71-.29l13.19-13.2.12.12c.2.2.45.29.71.29s.51-.1.71-.29c.39-.39.39-1.02,0-1.41l-.12-.12,1.77-1.77c.63-.63.98-1.46.99-2.35Zm-2.4.93l-1.77,1.78-1.77-1.77s0,0,0,0,0,0,0,0l-1.77-1.77,1.78-1.78c.25-.25.58-.39.94-.39h0c.36,0,.7.14.95.4l1.65,1.65c.26.26.4.6.4.96,0,.35-.14.69-.4.94Z"/>
  <g>
    <path class="cls-1" d="m30,29h-12c-.55,0-1,.45-1,1s.45,1,1,1h12c.55,0,1-.45,1-1s-.45-1-1-1Z"/>
    <path class="cls-1" d="m14.5,29h-.5c-.55,0-1,.45-1,1s.45,1,1,1h.5c.55,0,1-.45,1-1s-.45-1-1-1Z"/>
    <path class="cls-1" d="m18,27h12c.55,0,1-.45,1-1s-.45-1-1-1h-12c-.55,0-1,.45-1,1s.45,1,1,1Z"/>
    <path class="cls-1" d="m5.04,20.6c-.97,1.02-1.62,2.34-1.82,3.74l-.5,3.53-1.42,1.42c-.39.39-.39,1.02,0,1.41.2.2.45.29.71.29s.51-.1.71-.29l1.42-1.42,3.53-.5c1.4-.2,2.71-.85,3.74-1.82-.32-1.54-1.08-2.97-2.24-4.12-1.15-1.15-2.58-1.92-4.12-2.24Z"/>
  </g>
</svg>