<?xml version="1.0" encoding="UTF-8"?>
<svg id="OBJECT" xmlns="http://www.w3.org/2000/svg" viewBox="0 0 32 32">
  <defs>
    <style>
      .cls-1 {
        fill: #FD4360;
      }

      .cls-1, .cls-2 {
        stroke-width: 0px;
      }

      .cls-2 {
        fill: #dadada;
      }
    </style>
  </defs>
  <g>
    <path class="cls-2" d="m22.62,5.08c-.55,0-1,.46-.99,1.01,0,.55.45.99,1,.99h.04c.61,0,1.17.23,1.6.66.43.43.66,1.01.66,1.62,0,.55.44,1,.99,1.01h.01c.55,0,.99-.44,1-.99.01-1.16-.43-2.25-1.24-3.06-.81-.81-1.87-1.23-3.06-1.24Z"/>
    <path class="cls-2" d="m28.81,3.19c-1.43-1.43-3.3-2.22-5.4-2.19-.55,0-1,.46-.99,1.01,0,.55.45.99,1,.99.03,0,.05,0,.08,0,1.48,0,2.86.57,3.9,1.6s1.62,2.46,1.6,3.97c0,.55.44,1,.99,1.01h.01c.55,0,.99-.44,1-.99.02-2.05-.76-3.97-2.19-5.4Z"/>
    <path class="cls-2" d="m22.71,8.93c-.39-.39-1.02-.39-1.41,0s-.39,1.02,0,1.41l.37.37c.2.2.45.29.71.29s.51-.1.71-.29c.39-.39.39-1.02,0-1.41l-.37-.37Z"/>
    <path class="cls-2" d="m17,9.52v-2.52h.5c.55,0,1-.45,1-1s-.45-1-1-1h-2v-1c0-1.65-1.35-3-3-3h-2c-1.65,0-3,1.35-3,3v1h-2c-.55,0-1,.45-1,1s.45,1,1,1h.5v2.52l-3.87,3.1c-.72.57-1.13,1.43-1.13,2.34v2.04c0,.55.45,1,1,1h19c.55,0,1-.45,1-1v-2.04c0-.92-.41-1.77-1.13-2.34l-3.87-3.1Zm-7.5-5.52c0-.55.45-1,1-1h2c.55,0,1,.45,1,1v1h-4v-1Zm10.5,12H3v-1.04c0-.31.14-.59.38-.78l3.97-3.18h4.65c.55,0,1-.45,1-1s-.45-1-1-1h-4v-2h7v3c0,.3.14.59.38.78l4.25,3.4c.24.19.38.48.38.78v1.04Z"/>
    <path class="cls-2" d="m9.75,13h-.5c-.55,0-1,.45-1,1s.45,1,1,1h.5c.55,0,1-.45,1-1s-.45-1-1-1Z"/>
    <path class="cls-2" d="m13.75,13h-.5c-.55,0-1,.45-1,1s.45,1,1,1h.5c.55,0,1-.45,1-1s-.45-1-1-1Z"/>
  </g>
  <path class="cls-1" d="m3,22.5c0,4.69,3.81,8.5,8.5,8.5s8.5-3.81,8.5-8.5v-2.5H3v2.5Zm2.63-.24c0-.55.45-1,1-1s1,.45,1,1v1c0,1.65,1.35,3,3,3,.55,0,1,.45,1,1s-.45,1-1,1c-2.76,0-5-2.24-5-5v-1Z"/>
</svg>