<?xml version="1.0" encoding="UTF-8"?>
<svg id="OBJECT" xmlns="http://www.w3.org/2000/svg" viewBox="0 0 32 32">
  <defs>
    <style>
      .cls-1 {
        fill: #FD4360;
      }

      .cls-1, .cls-2 {
        stroke-width: 0px;
      }

      .cls-2 {
        fill: #dadada;
      }
    </style>
  </defs>
  <g>
    <path class="cls-2" d="m23.53,20.57c-.55,0-1,.45-1,1,0,.55.45,1,1,1h0c.47.02.99.19,1.34.55.36.36.55.83.55,1.34,0,.55.44,1,.99,1h0c.55,0,1-.44,1-1,0-1.05-.4-2.03-1.14-2.77s-1.69-1.17-2.77-1.14Z"/>
    <path class="cls-2" d="m29.02,18.98c-1.29-1.29-2.98-1.99-4.82-1.98-.55,0-1,.45-1,1,0,.55.49.97,1,1,1.32-.01,2.49.49,3.4,1.39.9.9,1.4,2.11,1.39,3.4,0,.55.44,1,1,1h0c.55,0,1-.44,1-1,0-1.83-.69-3.54-1.98-4.82Z"/>
    <path class="cls-2" d="m23.71,23.97c-.39-.39-1.02-.39-1.41,0s-.39,1.02,0,1.41l.32.32c.2.2.45.29.71.29s.51-.1.71-.29c.39-.39.39-1.02,0-1.41l-.32-.32Z"/>
    <path class="cls-2" d="m13.14,4h-1c-.55,0-1,.45-1,1s.45,1,1,1h1c.55,0,1-.45,1-1s-.45-1-1-1Z"/>
    <path class="cls-2" d="m13.14,7h-1c-.55,0-1,.45-1,1s.45,1,1,1h1c.55,0,1-.45,1-1s-.45-1-1-1Z"/>
    <path class="cls-2" d="m24.23,13.12l-1.61-11.26c-.07-.49-.49-.86-.99-.86H3.63c-.5,0-.92.37-.99.86l-1.61,11.27c-.13.98.16,1.97.81,2.71.65.74,1.58,1.17,2.56,1.17.93,0,1.78-.38,2.4-1,.63.64,1.51,1,2.41,1h6.85c.94,0,1.79-.38,2.4-1,.62.62,1.47,1,2.41,1,.99,0,1.92-.43,2.57-1.17s.93-1.73.79-2.71Zm-18.42.4l-.02.18c-.05.74-.65,1.3-1.39,1.3-.41,0-.79-.17-1.06-.48-.27-.31-.39-.71-.33-1.12l1.49-10.4h2.06l-.75,10.52Zm11.65.09c0,.77-.63,1.39-1.4,1.39h-6.85c-.39,0-.75-.16-1.02-.45s-.4-.66-.37-1.05c0,0,0,0,0-.01l.75-10.49h8.14l.76,10.61s0,0,0,0Zm4.47.91c-.27.31-.64.48-1.06.48-.73,0-1.35-.57-1.4-1.29l-.76-10.71h2.06l1.49,10.4c.06.41-.06.81-.32,1.12Z"/>
  </g>
  <g>
    <path class="cls-1" d="m4.5,27v2c0,1.1.9,2,2,2h13c1.1,0,2-.9,2-2v-2H4.5Z"/>
    <rect class="cls-1" x="10.5" y="19" width="5" height="6"/>
  </g>
</svg>