<?xml version="1.0" encoding="UTF-8"?>
<svg id="OBJECT" xmlns="http://www.w3.org/2000/svg" viewBox="0 0 32 32">
  <defs>
    <style>
      .cls-1 {
        fill: #FD4360;
      }

      .cls-1, .cls-2 {
        stroke-width: 0px;
      }

      .cls-2 {
        fill: #dadada;
      }
    </style>
  </defs>
  <path class="cls-2" d="m16,24H7v-7.5c0-1.21-.86-2.22-2-2.45v-7.05c0-2.21,1.79-4,4-4h4c.55,0,1-.45,1-1s-.45-1-1-1h-4c-3.31,0-6,2.69-6,6v7.05c-1.14.23-2,1.24-2,2.45v13.5c0,.55.45,1,1,1h16c.55,0,1-.45,1-1v-3c0-1.65-1.35-3-3-3ZM3.5,16h1c.28,0,.5.22.5.5v7.5h-2v-7.5c0-.28.22-.5.5-.5Zm13.5,13H3v-3h13c.55,0,1,.45,1,1v2Z"/>
  <g>
    <path class="cls-1" d="m28,3.5c0-1.38-1.12-2.5-2.5-2.5h-9.5v4h12v-1.5Z"/>
    <path class="cls-1" d="m30.86,10.49l-2.09-3.49h-13.53l-2.09,3.49c-.19.31-.19.69-.01,1.01s.51.51.87.51h16c.36,0,.69-.19.87-.51s.17-.7-.01-1.01Z"/>
    <path class="cls-1" d="m18,14c-.55,0-1,.45-1,1v2c0,.55.45,1,1,1s1-.45,1-1v-2c0-.55-.45-1-1-1Z"/>
    <path class="cls-1" d="m22,14c-.55,0-1,.45-1,1v2c0,.55.45,1,1,1s1-.45,1-1v-2c0-.55-.45-1-1-1Z"/>
    <path class="cls-1" d="m26,14c-.55,0-1,.45-1,1v2c0,.55.45,1,1,1s1-.45,1-1v-2c0-.55-.45-1-1-1Z"/>
  </g>
</svg>