<?xml version="1.0" encoding="UTF-8"?>
<svg id="OBJECT" xmlns="http://www.w3.org/2000/svg" viewBox="0 0 512 512">
  <defs>
    <style>
      .cls-1 {
        fill: #FD4360;
      }

      .cls-2 {
        fill: #dadada;
      }
    </style>
  </defs>
  <g>
    <path class="cls-2" d="M349.5,0c-89.6,0-162.5,72.9-162.5,162.5s72.9,162.5,162.5,162.5,162.5-72.9,162.5-162.5S439.1,0,349.5,0Zm0,310c-81.33,0-147.5-66.17-147.5-147.5S268.17,15,349.5,15s147.5,66.17,147.5,147.5-66.17,147.5-147.5,147.5Z"/>
    <path class="cls-2" d="M265.76,332.48c-1.41-1.41-3.31-2.2-5.3-2.2s-3.9,.79-5.3,2.2l-82.32,82.32c-10.1,10.1-23.53,15.67-37.82,15.67s-27.72-5.56-37.82-15.67c-20.85-20.85-20.85-54.78,0-75.64l82.32-82.32c1.41-1.41,2.2-3.31,2.2-5.3s-.79-3.9-2.2-5.3l-47.04-47.04c-2.93-2.93-7.68-2.93-10.61,0l-82.32,82.32C14.04,307.02,0,340.93,0,376.99s14.04,69.97,39.54,95.47c25.5,25.5,59.41,39.54,95.47,39.54s69.97-14.04,95.47-39.54l82.32-82.32c2.93-2.93,2.93-7.68,0-10.61l-47.04-47.04ZM127.17,215.11l36.44,36.44-28.6,28.6-36.44-36.44,28.59-28.59ZM15,376.99c0-32.06,12.48-62.19,35.15-84.86l37.82-37.82,36.44,36.44-37.82,37.82c-24.91,24.91-26.57,64.39-5.01,91.25l-36.56,36.56c-19.41-21.94-30.02-49.85-30.02-79.39Zm204.87,84.86c-22.67,22.67-52.8,35.15-84.86,35.15-29.54,0-57.45-10.61-79.39-30.02l36.56-36.56c12.11,9.75,27.06,15.05,42.83,15.05,18.29,0,35.49-7.12,48.43-20.06l37.82-37.82,36.44,36.44-37.82,37.82Zm48.43-48.43l-36.44-36.44,28.6-28.6,36.44,36.44-28.6,28.6Z"/>
  </g>
  <path class="cls-1" d="M349.5,30c-73.06,0-132.5,59.44-132.5,132.5s59.44,132.5,132.5,132.5,132.5-59.44,132.5-132.5S422.56,30,349.5,30Zm-70,140h-15c-4.14,0-7.5-3.36-7.5-7.5s3.36-7.5,7.5-7.5h15c4.14,0,7.5,3.36,7.5,7.5s-3.36,7.5-7.5,7.5Zm92.6,46.7v18.3c0,4.14-3.36,7.5-7.5,7.5s-7.5-3.36-7.5-7.5v-16.67h-15.21v16.67c0,4.14-3.36,7.5-7.5,7.5s-7.5-3.36-7.5-7.5v-16.67h-6.4c-4.14,0-7.5-3.36-7.5-7.5s3.36-7.5,7.5-7.5h41.83c8.78,0,15.92-7.48,15.92-16.67s-7.14-16.67-15.92-16.67h-25.65c-17.05,0-30.92-14.21-30.92-31.67,0-13.96,8.87-25.83,21.15-30.04v-18.3c0-4.14,3.36-7.5,7.5-7.5s7.5,3.36,7.5,7.5v16.67h15.21v-16.67c0-4.14,3.36-7.5,7.5-7.5s7.5,3.36,7.5,7.5v16.67h6.4c4.14,0,7.5,3.36,7.5,7.5s-3.36,7.5-7.5,7.5h-41.83c-8.78,0-15.92,7.48-15.92,16.67s7.14,16.67,15.92,16.67h25.65c17.05,0,30.92,14.21,30.92,31.67,0,13.96-8.87,25.83-21.15,30.04Zm62.4-46.7h-15c-4.14,0-7.5-3.36-7.5-7.5s3.36-7.5,7.5-7.5h15c4.14,0,7.5,3.36,7.5,7.5s-3.36,7.5-7.5,7.5Z"/>
</svg>