<?xml version="1.0" encoding="UTF-8"?>
<svg id="OBJECT" xmlns="http://www.w3.org/2000/svg" viewBox="0 0 32 32">
  <defs>
    <style>
      .cls-1 {
        fill: #FD4360;
      }

      .cls-2 {
        fill: #dadada;
      }
    </style>
  </defs>
  <path class="cls-2" d="M28.5,13h-2.5c-.55,0-1,.45-1,1s.45,1,1,1h1.27l-10.15,8.59c-.62,.53-1.61,.53-2.24,0L4.73,15h1.27c.55,0,1-.45,1-1s-.45-1-1-1H3.5c-1.38,0-2.5,1.12-2.5,2.5v13c0,1.38,1.12,2.5,2.5,2.5H28.5c1.38,0,2.5-1.12,2.5-2.5V15.5c0-1.38-1.12-2.5-2.5-2.5Zm-6.41,9l6.91-5.84v11.69l-6.91-5.84Zm-6.09,4c.88,0,1.74-.31,2.41-.88l2.14-1.81,6.73,5.69H4.73l6.73-5.69,2.14,1.81c.67,.57,1.53,.88,2.41,.88Zm-6.09-4l-6.91,5.84v-11.69l6.91,5.84Z"/>
  <path class="cls-1" d="M21,1H11c-1.1,0-2,.9-2,2v13.83l5.43,4.59c.88,.74,2.27,.74,3.14,0l5.43-4.59V3c0-1.1-.9-2-2-2Zm-1,14H12c-.55,0-1-.45-1-1s.45-1,1-1h8c.55,0,1,.45,1,1s-.45,1-1,1Zm0-4.5H12c-.55,0-1-.45-1-1s.45-1,1-1h8c.55,0,1,.45,1,1s-.45,1-1,1Zm0-4.5H12c-.55,0-1-.45-1-1s.45-1,1-1h8c.55,0,1,.45,1,1s-.45,1-1,1Z"/>
</svg>