<?xml version="1.0" encoding="UTF-8"?>
<svg id="OBJECT" xmlns="http://www.w3.org/2000/svg" viewBox="0 0 32 32">
  <defs>
    <style>
      .cls-1 {
        fill: #FD4360;
      }

      .cls-1, .cls-2 {
        stroke-width: 0px;
      }

      .cls-2 {
        fill: #dadada;
      }
    </style>
  </defs>
  <g>
    <path class="cls-2" d="m30,18h-5v-7c0-2.76-2.24-5-5-5h-10v-1c0-2.21-1.79-4-4-4h-3c-.55,0-1,.45-1,1s.45,1,1,1h3c1.1,0,2,.9,2,2v1h-2c-2.76,0-5,2.24-5,5v8c0,.55.45,1,1,1h28c.55,0,1-.45,1-1s-.45-1-1-1Zm-7-7v7h-6v-7c0-1.65,1.35-3,3-3s3,1.35,3,3Zm-20,0c0-1.65,1.35-3,3-3h2v5c0,.55.45,1,1,1s1-.45,1-1v-5h6.03c-.63.84-1.03,1.87-1.03,3v7H3v-7Z"/>
    <path class="cls-2" d="m21,15.5c.55,0,1-.45,1-1v-1c0-.55-.45-1-1-1s-1,.45-1,1v1c0,.55.45,1,1,1Z"/>
  </g>
  <path class="cls-1" d="m20,29h-4v-7h-6v7h-4c-.55,0-1,.45-1,1s.45,1,1,1h14c.55,0,1-.45,1-1s-.45-1-1-1Z"/>
</svg>