<?xml version="1.0" encoding="UTF-8"?>
<svg id="OBJECT" xmlns="http://www.w3.org/2000/svg" viewBox="0 0 32 32">
  <defs>
    <style>
      .cls-1 {
        fill: #FD4360;
      }

      .cls-1, .cls-2 {
        stroke-width: 0px;
      }

      .cls-2 {
        fill: #dadada;
      }
    </style>
  </defs>
  <path class="cls-2" d="m30,8.59c-.55,0-1,.45-1,1v14.41c0,.1-.01.19-.03.28l-5.76-6.65c-.36-.42-.99-.46-1.41-.1-.42.36-.46.99-.1,1.41l5.99,6.92c-.22.08-.46.13-.7.13H5c-.24,0-.48-.05-.7-.13l5.99-6.92c.36-.42.32-1.05-.1-1.41-.42-.36-1.05-.31-1.41.1l-5.76,6.65c-.01-.09-.03-.19-.03-.28v-14.41c0-.55-.45-1-1-1s-1,.45-1,1v14.41c0,1.03.39,2.01,1.08,2.72.02.02.04.04.06.06,0,0,.01.02.02.02,0,0,.02,0,.03.02.74.74,1.75,1.18,2.81,1.18h22c1.08,0,2.1-.44,2.82-1.19,0,0,.01,0,.02,0,0,0,0,0,.01-.01.02-.02.04-.03.06-.05.71-.74,1.1-1.71,1.1-2.74v-14.41c0-.55-.45-1-1-1Z"/>
  <path class="cls-1" d="m16,19.63l13.04-15.05c-.6-.36-1.29-.58-2.04-.58H5c-.75,0-1.44.22-2.04.58l13.04,15.05Z"/>
</svg>