<?xml version="1.0" encoding="UTF-8"?>
<svg id="OBJECT" xmlns="http://www.w3.org/2000/svg" viewBox="0 0 512 512">
  <defs>
    <style>
      .cls-1 {
        fill: #FD4360;
      }

      .cls-2 {
        fill: #dadada;
      }
    </style>
  </defs>
  <g>
    <path class="cls-2" d="M489.5,367c12.41,0,22.5-10.09,22.5-22.5v-80c0-12.41-10.09-22.5-22.5-22.5H22.5c-12.41,0-22.5,10.09-22.5,22.5v80c0,12.41,10.09,22.5,22.5,22.5h6v20h-6c-12.41,0-22.5,10.09-22.5,22.5v80c0,12.41,10.09,22.5,22.5,22.5H489.5c12.41,0,22.5-10.09,22.5-22.5v-80c0-12.41-10.09-22.5-22.5-22.5h-6v-20h6ZM15,344.5v-80c0-4.14,3.36-7.5,7.5-7.5H489.5c4.14,0,7.5,3.36,7.5,7.5v80c0,4.14-3.36,7.5-7.5,7.5H22.5c-4.14,0-7.5-3.36-7.5-7.5Zm482,65v80c0,4.14-3.36,7.5-7.5,7.5H22.5c-4.14,0-7.5-3.36-7.5-7.5v-80c0-4.14,3.36-7.5,7.5-7.5H489.5c4.14,0,7.5,3.36,7.5,7.5Zm-28.5-22.5H43.5v-20H468.5v20Z"/>
    <path class="cls-2" d="M471,279.5H201c-4.14,0-7.5,3.36-7.5,7.5v35c0,4.14,3.36,7.5,7.5,7.5H471c4.14,0,7.5-3.36,7.5-7.5v-35c0-4.14-3.36-7.5-7.5-7.5Zm-7.5,35H208.5v-20h255v20Z"/>
    <path class="cls-2" d="M66,272c-17.92,0-32.5,14.58-32.5,32.5s14.58,32.5,32.5,32.5,32.5-14.58,32.5-32.5-14.58-32.5-32.5-32.5Zm0,50c-9.65,0-17.5-7.85-17.5-17.5s7.85-17.5,17.5-17.5,17.5,7.85,17.5,17.5-7.85,17.5-17.5,17.5Z"/>
    <path class="cls-2" d="M146,272c-17.92,0-32.5,14.58-32.5,32.5s14.58,32.5,32.5,32.5,32.5-14.58,32.5-32.5-14.58-32.5-32.5-32.5Zm0,50c-9.65,0-17.5-7.85-17.5-17.5s7.85-17.5,17.5-17.5,17.5,7.85,17.5,17.5-7.85,17.5-17.5,17.5Z"/>
    <path class="cls-2" d="M201,474.5H471c4.14,0,7.5-3.36,7.5-7.5v-35c0-4.14-3.36-7.5-7.5-7.5H201c-4.14,0-7.5,3.36-7.5,7.5v35c0,4.14,3.36,7.5,7.5,7.5Zm7.5-35h255v20H208.5v-20Z"/>
    <path class="cls-2" d="M66,482c17.92,0,32.5-14.58,32.5-32.5s-14.58-32.5-32.5-32.5-32.5,14.58-32.5,32.5,14.58,32.5,32.5,32.5Zm0-50c9.65,0,17.5,7.85,17.5,17.5s-7.85,17.5-17.5,17.5-17.5-7.85-17.5-17.5,7.85-17.5,17.5-17.5Z"/>
    <path class="cls-2" d="M146,482c17.92,0,32.5-14.58,32.5-32.5s-14.58-32.5-32.5-32.5-32.5,14.58-32.5,32.5,14.58,32.5,32.5,32.5Zm0-50c9.65,0,17.5,7.85,17.5,17.5s-7.85,17.5-17.5,17.5-17.5-7.85-17.5-17.5,7.85-17.5,17.5-17.5Z"/>
  </g>
  <g>
    <path class="cls-1" d="M301,121.12v-44.34c0-3.14-1.74-5.97-4.55-7.38l-15.45-7.75v41c0,1.99-.79,3.89-2.19,5.29l-17.5,17.55c-1.41,1.41-3.32,2.21-5.31,2.21s-3.9-.79-5.31-2.21l-17.5-17.55c-1.4-1.41-2.19-3.31-2.19-5.29V61.65l-15.45,7.75c-2.81,1.41-4.55,4.23-4.55,7.38v44.34c0,2.58,1.23,5.04,3.29,6.59l28.72,21.6c1.88,1.42,2.99,3.64,2.99,5.99v69.24c3.3,.29,6.63,.45,10,.45s6.7-.16,10-.45v-69.24c0-2.36,1.11-4.58,2.99-5.99l28.72-21.6c2.06-1.55,3.29-4.01,3.29-6.59Z"/>
    <path class="cls-1" d="M256,0c-62.03,0-112.5,50.47-112.5,112.5,0,53.44,37.46,98.3,87.5,109.7v-63.15l-25.73-19.35c-5.81-4.37-9.27-11.31-9.27-18.58v-44.34c0-8.85,4.92-16.81,12.83-20.78l26.31-13.2c2.33-1.17,5.09-1.04,7.3,.32,2.21,1.37,3.56,3.78,3.56,6.38v50.05l10,10.03,10-10.03V49.5c0-2.6,1.35-5.02,3.56-6.38,2.21-1.37,4.98-1.49,7.3-.32l26.31,13.2c7.91,3.97,12.83,11.93,12.83,20.78v44.34c0,7.27-3.47,14.21-9.27,18.58l-25.73,19.35v63.15c50.04-11.4,87.5-56.25,87.5-109.7C368.5,50.47,318.03,0,256,0Z"/>
    <path class="cls-1" d="M431,105h-30c-4.14,0-7.5,3.36-7.5,7.5s3.36,7.5,7.5,7.5h30c4.14,0,7.5-3.36,7.5-7.5s-3.36-7.5-7.5-7.5Z"/>
    <path class="cls-1" d="M391,66.09c.91,0,1.84-.17,2.74-.52l28.19-11.09c3.85-1.52,5.75-5.87,4.23-9.73s-5.87-5.75-9.73-4.23l-28.19,11.09c-3.85,1.52-5.75,5.87-4.23,9.73,1.16,2.95,3.99,4.76,6.98,4.76Z"/>
    <path class="cls-1" d="M421.94,170.52l-28.19-11.09c-3.85-1.51-8.21,.38-9.73,4.23-1.52,3.85,.38,8.21,4.23,9.73l28.19,11.09c.9,.35,1.83,.52,2.74,.52,2.99,0,5.82-1.8,6.98-4.76,1.52-3.85-.38-8.21-4.23-9.73Z"/>
    <path class="cls-1" d="M118.5,112.5c0-4.14-3.36-7.5-7.5-7.5h-30c-4.14,0-7.5,3.36-7.5,7.5s3.36,7.5,7.5,7.5h30c4.14,0,7.5-3.36,7.5-7.5Z"/>
    <path class="cls-1" d="M123.75,51.61l-28.19-11.09c-3.85-1.51-8.21,.38-9.73,4.23-1.52,3.85,.38,8.21,4.23,9.73l28.19,11.09c.9,.35,1.83,.52,2.74,.52,2.99,0,5.82-1.8,6.98-4.76,1.52-3.85-.38-8.21-4.23-9.73Z"/>
    <path class="cls-1" d="M118.25,159.43l-28.19,11.09c-3.85,1.52-5.75,5.87-4.23,9.73,1.16,2.95,3.99,4.76,6.98,4.76,.91,0,1.84-.17,2.74-.52l28.19-11.09c3.85-1.52,5.75-5.87,4.23-9.73-1.52-3.86-5.87-5.75-9.73-4.23Z"/>
  </g>
</svg>