<?xml version="1.0" encoding="UTF-8"?>
<svg id="OBJECT" xmlns="http://www.w3.org/2000/svg" viewBox="0 0 32 32">
  <defs>
    <style>
      .cls-1 {
        fill: #FD4360;
      }

      .cls-1, .cls-2 {
        stroke-width: 0px;
      }

      .cls-2 {
        fill: #dadada;
      }
    </style>
  </defs>
  <g>
    <path class="cls-2" d="m14.85,20.57c-.39-.39-1.02-.39-1.41,0l-.48.48c-.28.28-.37.7-.22,1.07.74,1.86.29,3.99-1.13,5.41-1.15,1.15-2.75,1.64-4.29,1.42l2.29-2.29c1.17-1.18,1.17-3.09,0-4.27-1.18-1.17-3.09-1.17-4.26,0l-2.29,2.29c-.23-1.55.28-3.15,1.42-4.29,1.42-1.42,3.54-1.87,5.41-1.13.37.15.79.06,1.07-.22l.47-.47c.39-.39.39-1.02,0-1.41s-1.02-.39-1.41,0l-.03.03c-2.44-.7-5.09-.03-6.92,1.79-2.11,2.11-2.66,5.33-1.37,8.02.14.29.41.5.73.55.32.05.65-.05.88-.28l3.46-3.45c.39-.4,1.04-.4,1.44,0s.4,1.04,0,1.44l-3.46,3.46c-.23.23-.33.56-.28.88.05.32.26.59.55.73.97.46,2.01.69,3.04.69,1.83,0,3.63-.71,4.98-2.06,1.83-1.83,2.49-4.48,1.79-6.92l.04-.04c.39-.39.39-1.02,0-1.41Z"/>
    <path class="cls-2" d="m30.31,5.01c-.14-.29-.41-.5-.73-.55-.32-.06-.65.05-.88.28l-3.46,3.45c-.4.4-1.04.4-1.44,0s-.4-1.04,0-1.44l3.46-3.45c.23-.23.33-.56.28-.87-.05-.32-.26-.59-.55-.73-2.69-1.29-5.91-.74-8.02,1.37-1.83,1.82-2.49,4.48-1.79,6.92l-.03.04c-.39.39-.39,1.02,0,1.41.39.39,1.02.39,1.41,0l.47-.47c.28-.28.37-.7.22-1.07-.74-1.86-.29-3.99,1.13-5.41,1.15-1.15,2.74-1.65,4.29-1.42l-2.29,2.29c-1.17,1.18-1.17,3.09,0,4.27,1.18,1.18,3.09,1.17,4.26,0l2.29-2.29c.23,1.55-.28,3.15-1.42,4.29-1.42,1.42-3.55,1.86-5.41,1.13-.37-.15-.79-.06-1.07.22l-.48.48c-.39.39-.39,1.02,0,1.41.2.2.45.29.71.29s.51-.1.71-.29l.04-.04c2.44.7,5.09.04,6.92-1.79,2.11-2.11,2.66-5.33,1.37-8.02Z"/>
  </g>
  <g>
    <path class="cls-1" d="m29.57,22.67l-2.05-2.05-6.9,6.9,2.05,2.05c.92.92,2.15,1.43,3.45,1.43s2.53-.51,3.45-1.43c.92-.92,1.43-2.15,1.43-3.45s-.51-2.53-1.43-3.45Z"/>
    <rect class="cls-1" x="16.92" y="20.59" width="9.75" height="2.43" transform="translate(-9.03 21.8) rotate(-45)"/>
    <path class="cls-1" d="m21.3,17.76L11.03,7.48l.07-.07s0,0,0,0l-1.67,1.67c-.2.19-.45.29-.71.29s-.51-.1-.71-.29c-.39-.39-.39-1.02,0-1.41l2.27-2.27L4.4,1.19c-.4-.28-.94-.24-1.29.11l-1.82,1.82c-.35.35-.39.89-.11,1.29l4.7,6.58c.17.24.44.39.73.42.3.03.58-.08.79-.29l.07-.07,10.28,10.27,3.54-3.54Z"/>
  </g>
</svg>