<?xml version="1.0" encoding="UTF-8"?>
<svg id="OBJECT" xmlns="http://www.w3.org/2000/svg" viewBox="0 0 32 32">
  <defs>
    <style>
      .cls-1 {
        fill: #FD4360;
      }

      .cls-1, .cls-2 {
        stroke-width: 0px;
      }

      .cls-2 {
        fill: #dadada;
      }
    </style>
  </defs>
  <path class="cls-2" d="m19.98,16.94c-.28-.47-.9-.63-1.37-.34l-3.14,1.88-1.94-1.94,1.88-3.14c.28-.47.13-1.09-.34-1.37s-1.09-.13-1.37.34l-2.22,3.7L1.92,25.62c-1.23,1.23-1.23,3.23,0,4.45.61.61,1.42.92,2.23.92s1.61-.31,2.23-.92l9.55-9.55,3.7-2.22c.47-.28.63-.9.34-1.37Zm-7.7,1.16l1.63,1.63-6.71,6.71-1.63-1.63,6.71-6.71ZM3.33,28.67c-.45-.45-.45-1.18,0-1.63l.81-.81,1.63,1.63-.81.81c-.45.45-1.18.45-1.63,0Z"/>
  <path class="cls-1" d="m29.67,9.74c-1.47.55-3.32,1.33-5,2.26-.15.08-.32.12-.48.12-.35,0-.69-.19-.88-.52-.27-.48-.09-1.09.39-1.36,1.63-.9,3.4-1.66,4.86-2.22-1.27-1.77-2.82-3.32-4.59-4.59-.57,1.46-1.32,3.23-2.22,4.86-.18.33-.52.52-.88.52-.16,0-.33-.04-.48-.12-.48-.27-.66-.88-.39-1.36.93-1.69,1.7-3.54,2.26-5-.81-.47-1.65-.9-2.53-1.25-.25-.1-.52-.09-.77.01-.25.11-.44.31-.53.56l-3.25,8.45,6.74,6.74,8.45-3.25c.25-.1.45-.29.56-.53.11-.25.11-.52.01-.77-.35-.88-.79-1.72-1.25-2.53Z"/>
</svg>