<?xml version="1.0" encoding="UTF-8"?>
<svg id="OBJECT" xmlns="http://www.w3.org/2000/svg" viewBox="0 0 32 32">
  <defs>
    <style>
      .cls-1 {
        fill: #FD4360;
      }

      .cls-2 {
        fill: #dadada;
      }
    </style>
  </defs>
  <g>
    <path class="cls-2" d="M12.5,15.5h7c1.38,0,2.5-1.12,2.5-2.5v-.5c0-1.38-1.12-2.5-2.5-2.5h-7c-1.38,0-2.5,1.12-2.5,2.5v.5c0,1.38,1.12,2.5,2.5,2.5Zm-.5-3c0-.28,.22-.5,.5-.5h7c.28,0,.5,.22,.5,.5v.5c0,.28-.22,.5-.5,.5h-7c-.28,0-.5-.22-.5-.5v-.5Z"/>
    <path class="cls-2" d="M25,14.75c.55,0,1-.45,1-1v-2c0-.55-.45-1-1-1s-1,.45-1,1v2c0,.55,.45,1,1,1Z"/>
    <path class="cls-2" d="M7,14.75c.55,0,1-.45,1-1v-2c0-.55-.45-1-1-1s-1,.45-1,1v2c0,.55,.45,1,1,1Z"/>
    <path class="cls-2" d="M30,6h-5.5V3.5c0-1.38-1.12-2.5-2.5-2.5H10c-1.38,0-2.5,1.12-2.5,2.5v2.5H2c-.55,0-1,.45-1,1V15.04c0,.92,.41,1.77,1.13,2.34l3.7,2.96c.53,.42,1.2,.66,1.87,.66H24.3c.68,0,1.34-.23,1.87-.66l3.7-2.96c.72-.57,1.13-1.43,1.13-2.34V7c0-.55-.45-1-1-1Zm-7.5-2.5v2.5h-1V3h.5c.28,0,.5,.22,.5,.5Zm-10,2.5V3h7v3h-7Zm-3-2.5c0-.28,.22-.5,.5-.5h.5v3h-1V3.5ZM29,15.04c0,.31-.14,.59-.38,.78l-3.7,2.96c-.18,.14-.4,.22-.62,.22H7.7c-.23,0-.45-.08-.62-.22l-3.7-2.96c-.24-.19-.38-.48-.38-.78v-7.04H29v7.04Z"/>
  </g>
  <g>
    <path class="cls-1" d="M15.5,26h1c.28,0,.5-.22,.5-.5v-2.5h-2v2.5c0,.28,.22,.5,.5,.5Z"/>
    <path class="cls-1" d="M27.42,21.9c-.88,.71-1.99,1.1-3.12,1.1h-5.3v2.5c0,1.38-1.12,2.5-2.5,2.5h-1c-1.38,0-2.5-1.12-2.5-2.5v-2.5H7.7c-1.13,0-2.24-.39-3.12-1.1l-2.08-1.66v7.76c0,1.65,1.35,3,3,3H26.5c1.65,0,3-1.35,3-3v-7.76l-2.08,1.66Z"/>
  </g>
</svg>