<?xml version="1.0" encoding="UTF-8"?>
<svg id="OBJECT" xmlns="http://www.w3.org/2000/svg" viewBox="0 0 32 32">
  <defs>
    <style>
      .cls-1 {
        fill: #FD4360;
      }

      .cls-1, .cls-2 {
        stroke-width: 0px;
      }

      .cls-2 {
        fill: #dadada;
      }
    </style>
  </defs>
  <rect class="cls-1" x="6" y="4" width="20" height="4"/>
  <path class="cls-2" d="m28,14h-2v-3c0-.55-.45-1-1-1s-1,.45-1,1v15h-1.51v-9.97c0-.55-.45-1-1-1h-10.97c-.55,0-1,.45-1,1v9.97h-1.51v-15c0-.55-.45-1-1-1s-1,.45-1,1v3h-2c-1.65,0-3,1.35-3,3v10c0,.55.45,1,1,1h28c.55,0,1-.45,1-1v-10c0-1.65-1.35-3-3-3ZM6,26h-3v-9c0-.55.45-1,1-1h2v10Zm9.03,0h-3.51v-8.97h3.51v8.97Zm5.46,0h-3.46v-8.97h3.46v8.97Zm8.51,0h-3v-10h2c.55,0,1,.45,1,1v9Z"/>
</svg>