<?xml version="1.0" encoding="UTF-8"?>
<svg id="OBJECT" xmlns="http://www.w3.org/2000/svg" viewBox="0 0 32 32">
  <defs>
    <style>
      .cls-1 {
        fill: #FD4360;
      }

      .cls-1, .cls-2 {
        stroke-width: 0px;
      }

      .cls-2 {
        fill: #dadada;
      }
    </style>
  </defs>
  <g>
    <path class="cls-2" d="m24.5,9.5c0-4.69-3.81-8.5-8.5-8.5S7.5,4.81,7.5,9.5c0,4.35,3.28,7.94,7.5,8.44v3.06h-2c-.55,0-1,.45-1,1s.45,1,1,1h6c.55,0,1-.45,1-1s-.45-1-1-1h-2v-3.06c4.22-.5,7.5-4.09,7.5-8.44Zm-8.5-6.5c3.58,0,6.5,2.92,6.5,6.5,0,.77-.14,1.5-.39,2.19-.73-.76-1.59-1.37-2.55-1.81.2-.47.32-.99.32-1.53,0-2.14-1.74-3.88-3.88-3.88s-3.88,1.74-3.88,3.88c0,.54.11,1.06.32,1.53-.95.44-1.82,1.05-2.55,1.81-.25-.68-.39-1.42-.39-2.19,0-3.58,2.92-6.5,6.5-6.5Zm-1.88,5.35c0-1.04.85-1.88,1.88-1.88s1.88.84,1.88,1.88-.85,1.88-1.88,1.88-1.88-.85-1.88-1.88Zm-3.18,5.21c.74-.93,1.71-1.64,2.83-2.05.63.45,1.4.72,2.24.72s1.6-.27,2.24-.72c1.12.41,2.09,1.12,2.83,2.05-1.19,1.49-3.02,2.44-5.07,2.44s-3.88-.96-5.07-2.44Z"/>
    <path class="cls-2" d="m10.44,23.11c.03-.2.06-.4.06-.61v-1.5c0-1.65-1.35-3-3-3h-1c-1.65,0-3,1.35-3,3v1.5c0,.21.03.41.06.61-1.6,1.11-2.56,2.92-2.56,4.89,0,1.65,1.35,3,3,3h6c1.65,0,3-1.35,3-3,0-1.97-.96-3.78-2.56-4.89Zm-4.94-2.11c0-.55.45-1,1-1h1c.55,0,1,.45,1,1v1.5c0,.83-.67,1.5-1.5,1.5s-1.5-.67-1.5-1.5v-1.5Zm4.5,8h-6c-.55,0-1-.45-1-1,0-1.21.56-2.33,1.49-3.08.64.66,1.53,1.08,2.51,1.08s1.88-.42,2.51-1.08c.93.75,1.49,1.86,1.49,3.08,0,.55-.45,1-1,1Z"/>
  </g>
  <g>
    <path class="cls-1" d="m29.46,24.01c-.82,1.65-2.5,2.79-4.46,2.79s-3.65-1.15-4.46-2.79c-.95,1.06-1.54,2.46-1.54,3.99,0,1.65,1.35,3,3,3h6c1.65,0,3-1.35,3-3,0-1.53-.58-2.93-1.54-3.99Z"/>
    <path class="cls-1" d="m25,24.8c1.65,0,3-1.35,3-3v-1.2c0-1.43-1.17-2.6-2.6-2.6h-.8c-1.43,0-2.6,1.17-2.6,2.6v1.2c0,1.65,1.35,3,3,3Z"/>
  </g>
</svg>