<?xml version="1.0" encoding="UTF-8"?>
<svg id="OBJECT" xmlns="http://www.w3.org/2000/svg" viewBox="0 0 32 32">
  <defs>
    <style>
      .cls-1 {
        fill: #FD4360;
      }

      .cls-1, .cls-2 {
        stroke-width: 0px;
      }

      .cls-2 {
        fill: #dadada;
      }
    </style>
  </defs>
  <path class="cls-2" d="m18.5,31h-5c-.55,0-1-.45-1-1v-1.48c-1-.28-1.96-.68-2.87-1.2l-1.05,1.05c-.39.39-1.02.39-1.41,0l-3.54-3.54c-.39-.39-.39-1.02,0-1.41l1.05-1.05c-.52-.91-.92-1.87-1.2-2.87h-1.48c-.55,0-1-.45-1-1v-5c0-.55.45-1,1-1h1.48c.28-1,.68-1.96,1.2-2.87l-1.05-1.05c-.39-.39-.39-1.02,0-1.41l3.54-3.54c.39-.39,1.02-.39,1.41,0l1.05,1.05c.91-.52,1.87-.92,2.87-1.2v-1.48c0-.55.45-1,1-1h5c.55,0,1,.45,1,1v1.48c1,.28,1.96.68,2.87,1.2l1.05-1.05c.39-.39,1.02-.39,1.41,0l3.54,3.54c.39.39.39,1.02,0,1.41l-1.05,1.05c.52.91.92,1.87,1.2,2.87h1.48c.55,0,1,.45,1,1v5c0,.55-.45,1-1,1h-1.48c-.28,1-.68,1.96-1.2,2.87l1.05,1.05c.39.39.39,1.02,0,1.41l-3.54,3.54c-.39.39-1.02.39-1.41,0l-1.05-1.05c-.91.52-1.87.92-2.87,1.2v1.48c0,.55-.45,1-1,1Zm-4-2h3v-1.26c0-.47.33-.88.79-.98,1.31-.28,2.55-.79,3.69-1.53.4-.26.92-.2,1.25.13l.9.9,2.12-2.12-.9-.9c-.33-.33-.39-.86-.13-1.25.74-1.14,1.26-2.38,1.53-3.69.1-.46.51-.79.98-.79h1.26v-3h-1.26c-.47,0-.88-.33-.98-.79-.28-1.31-.79-2.55-1.53-3.69-.26-.4-.2-.92.13-1.25l.9-.9-2.12-2.12-.9.9c-.33.33-.86.39-1.25.13-1.14-.74-2.38-1.26-3.69-1.53-.46-.1-.79-.51-.79-.98v-1.26h-3v1.26c0,.47-.33.88-.79.98-1.31.28-2.55.79-3.69,1.53-.4.26-.92.2-1.25-.13l-.9-.9-2.12,2.12.9.9c.33.33.39.86.13,1.25-.74,1.14-1.26,2.38-1.53,3.69-.1.46-.51.79-.98.79h-1.26v3h1.26c.47,0,.88.33.98.79.28,1.31.79,2.55,1.53,3.69.26.4.2.92-.13,1.25l-.9.9,2.12,2.12.9-.9c.33-.33.86-.39,1.25-.13,1.14.74,2.38,1.26,3.69,1.53.46.1.79.51.79.98v1.26Z"/>
  <g>
    <path class="cls-1" d="m14.37,16.66c.95.89,2.31.89,3.26,0-.02-.22-.1-.44-.24-.61l-1.39-1.67-1.39,1.67c-.15.17-.22.39-.24.61Z"/>
    <path class="cls-1" d="m17.65,19.02c-.52.22-1.07.36-1.65.36s-1.13-.13-1.65-.36v6.83c.54.09,1.09.15,1.65.15s1.11-.06,1.65-.15v-6.83Z"/>
    <path class="cls-1" d="m16,6c-5.51,0-10,4.49-10,10,0,4.23,2.64,7.84,6.35,9.3v-8.53c0-.73.26-1.44.72-2l1.92-2.31v-1.76c0-.55.45-1,1-1s1,.45,1,1v1.76l1.92,2.31c.47.56.72,1.27.72,2v8.53c3.71-1.46,6.35-5.08,6.35-9.3,0-5.51-4.49-10-10-10Z"/>
  </g>
</svg>