<?xml version="1.0" encoding="UTF-8"?>
<svg id="OBJECT" xmlns="http://www.w3.org/2000/svg" viewBox="0 0 32 32">
  <defs>
    <style>
      .cls-1 {
        fill: #FD4360;
      }

      .cls-1, .cls-2 {
        stroke-width: 0px;
      }

      .cls-2 {
        fill: #dadada;
      }
    </style>
  </defs>
  <g>
    <path class="cls-1" d="m8.5,25.5h-1c-.55,0-1,.45-1,1s.45,1,1,1h1c.55,0,1-.45,1-1s-.45-1-1-1Z"/>
    <path class="cls-1" d="m24.5,25.5h-1c-.55,0-1,.45-1,1s.45,1,1,1h1c.55,0,1-.45,1-1s-.45-1-1-1Z"/>
    <path class="cls-1" d="m23.5,11.5h1c.55,0,1-.45,1-1s-.45-1-1-1h-1c-.55,0-1,.45-1,1s.45,1,1,1Z"/>
    <path class="cls-1" d="m8.5,9.5h-1c-.55,0-1,.45-1,1s.45,1,1,1h1c.55,0,1-.45,1-1s-.45-1-1-1Z"/>
    <path class="cls-1" d="m16,12.84c-3.03,0-5.5,2.47-5.5,5.5v.78c0,.55.45,1,1,1h3.5v2.78c0,1.79,1.46,3.25,3.25,3.25s3.25-1.46,3.25-3.25v-.34c0-.55-.45-1-1-1s-1,.45-1,1v.34c0,.69-.56,1.25-1.25,1.25s-1.25-.56-1.25-1.25v-2.78h3.5c.55,0,1-.45,1-1v-.78c0-3.03-2.47-5.5-5.5-5.5Z"/>
  </g>
  <path class="cls-2" d="m28,1H4c-1.65,0-3,1.35-3,3v3c0,.55.45,1,1,1h.5v20c0,1.65,1.35,3,3,3h21c1.65,0,3-1.35,3-3V8h.5c.55,0,1-.45,1-1v-3c0-1.65-1.35-3-3-3Zm1,3v2h-8.42v-3h7.42c.55,0,1,.45,1,1Zm-15.58-1h5.16v6.45l-2.2-.91c-.12-.05-.25-.08-.38-.08s-.26.03-.38.08l-2.2.91V3Zm-10.42,1c0-.55.45-1,1-1h7.42v3H3v-2Zm24.5,24c0,.55-.45,1-1,1H5.5c-.55,0-1-.45-1-1V8h6.92v2.94c0,.33.17.65.44.83.28.18.63.22.94.09l3.2-1.32,3.2,1.32c.12.05.25.08.38.08.2,0,.39-.06.56-.17.28-.19.44-.5.44-.83v-2.94h6.92v20Z"/>
</svg>