<?xml version="1.0" encoding="UTF-8"?>
<svg id="OBJECT" xmlns="http://www.w3.org/2000/svg" viewBox="0 0 32 32">
  <defs>
    <style>
      .cls-1 {
        fill: #FD4360;
      }

      .cls-1, .cls-2 {
        stroke-width: 0px;
      }

      .cls-2 {
        fill: #dadada;
      }
    </style>
  </defs>
  <path class="cls-2" d="m18.5,31h-5c-.55,0-1-.45-1-1v-2.01c-.87-.25-1.71-.6-2.5-1.04l-1.42,1.42c-.39.39-1.02.39-1.41,0l-3.54-3.54c-.39-.39-.39-1.02,0-1.41l1.42-1.42c-.44-.8-.79-1.64-1.04-2.5h-2.01c-.55,0-1-.45-1-1v-5c0-.55.45-1,1-1h2.01c.25-.87.6-1.71,1.04-2.5l-1.42-1.42c-.39-.39-.39-1.02,0-1.41l3.54-3.54c.38-.38,1.04-.38,1.41,0l1.42,1.42c.8-.44,1.64-.79,2.5-1.04v-2.01c0-.55.45-1,1-1h5c.55,0,1,.45,1,1v2.01c.87.25,1.71.6,2.5,1.04l1.42-1.42c.19-.19.44-.29.71-.29h0c.27,0,.52.11.71.29l3.54,3.54c.39.39.39,1.02,0,1.41l-1.42,1.42c.44.8.79,1.64,1.04,2.5h2.01c.55,0,1,.45,1,1v5c0,.55-.45,1-1,1h-2.01c-.25.87-.6,1.71-1.04,2.5l1.42,1.42c.39.39.39,1.02,0,1.41l-3.54,3.54c-.39.39-1.02.39-1.41,0l-1.42-1.42c-.8.44-1.64.79-2.5,1.04v2.01c0,.55-.45,1-1,1Zm-4-2h3v-1.78c0-.47.33-.87.78-.98,1.18-.26,2.31-.73,3.34-1.39.4-.25.91-.19,1.24.14l1.26,1.26,2.12-2.12-1.26-1.26c-.33-.33-.39-.85-.14-1.24.66-1.03,1.13-2.16,1.39-3.34.1-.46.51-.78.98-.78h1.78v-3h-1.78c-.47,0-.87-.33-.98-.78-.26-1.18-.73-2.31-1.39-3.34-.25-.4-.19-.91.14-1.24l1.26-1.26-2.12-2.12-1.26,1.26c-.33.33-.85.39-1.24.14-1.03-.66-2.16-1.13-3.34-1.39-.46-.1-.78-.51-.78-.98v-1.78h-3v1.78c0,.47-.33.87-.78.98-1.18.26-2.31.73-3.34,1.39-.4.25-.91.2-1.24-.14l-1.26-1.26-2.12,2.12,1.26,1.26c.33.33.39.85.14,1.24-.66,1.03-1.13,2.16-1.39,3.34-.1.46-.51.78-.98.78h-1.78v3h1.78c.47,0,.87.33.98.78.26,1.18.73,2.31,1.39,3.34.25.4.19.91-.14,1.24l-1.26,1.26,2.12,2.12,1.26-1.26c.33-.33.85-.39,1.24-.14,1.03.66,2.16,1.13,3.34,1.39.46.1.78.51.78.98v1.78Z"/>
  <g>
    <path class="cls-1" d="m20,21c0-1.21-.56-2.33-1.49-3.08-.64.66-1.53,1.08-2.51,1.08s-1.88-.42-2.51-1.08c-.93.75-1.49,1.86-1.49,3.08v3.05c1.21.6,2.56.95,4,.95s2.79-.35,4-.95v-3.05Z"/>
    <path class="cls-1" d="m17.5,15.5v-1.5c0-.55-.45-1-1-1h-1c-.55,0-1,.45-1,1v1.5c0,.83.67,1.5,1.5,1.5s1.5-.67,1.5-1.5Z"/>
    <path class="cls-1" d="m16,7c-4.96,0-9,4.04-9,9,0,2.66,1.16,5.04,3,6.69v-1.69c0-1.97.96-3.78,2.56-4.89-.03-.2-.06-.4-.06-.61v-1.5c0-1.65,1.35-3,3-3h1c1.65,0,3,1.35,3,3v1.5c0,.21-.03.41-.06.61,1.6,1.11,2.56,2.92,2.56,4.89v1.69c1.84-1.65,3-4.03,3-6.69,0-4.96-4.04-9-9-9Z"/>
  </g>
</svg>