<?xml version="1.0" encoding="UTF-8"?>
<svg id="OBJECT" xmlns="http://www.w3.org/2000/svg" viewBox="0 0 32 32">
  <defs>
    <style>
      .cls-1 {
        fill: #FD4360;
      }

      .cls-1, .cls-2 {
        stroke-width: 0px;
      }

      .cls-2 {
        fill: #dadada;
      }
    </style>
  </defs>
  <g>
    <path class="cls-2" d="m14.5,6.8c-4.25,0-7.7,3.45-7.7,7.7s3.45,7.7,7.7,7.7c.37,0,.74-.03,1.13-.09.55-.08.92-.6.83-1.14-.09-.54-.6-.91-1.14-.83-.3.05-.56.07-.83.07-3.14,0-5.7-2.56-5.7-5.7s2.56-5.7,5.7-5.7,5.7,2.56,5.7,5.7c0,.26-.02.53-.07.83-.08.54.29,1.06.83,1.14.55.08,1.06-.29,1.14-.83.06-.4.09-.77.09-1.13,0-4.25-3.45-7.7-7.7-7.7Z"/>
    <path class="cls-2" d="m27,11.71h-2.05c-.24-.93-.61-1.81-1.09-2.63l1.45-1.45c.39-.39.39-1.02,0-1.41l-2.52-2.52c-.39-.39-1.02-.39-1.41,0l-1.45,1.45c-.82-.48-1.71-.85-2.63-1.09v-2.05c0-.55-.45-1-1-1h-3.58c-.55,0-1,.45-1,1v2.05c-.93.24-1.81.61-2.63,1.09l-1.45-1.45c-.39-.39-1.02-.39-1.41,0l-2.52,2.52c-.39.39-.39,1.02,0,1.41l1.45,1.45c-.48.83-.85,1.71-1.09,2.63h-2.05c-.55,0-1,.45-1,1v3.58c0,.55.45,1,1,1h2.05c.24.93.61,1.81,1.09,2.63l-1.45,1.45c-.39.39-.39,1.02,0,1.41l2.52,2.52c.39.39,1.02.39,1.41,0l1.45-1.45c.82.48,1.71.85,2.63,1.09v2.05c0,.55.45,1,1,1h2.81c.55,0,1-.45,1-1s-.45-1-1-1h-1.81v-1.85c0-.48-.35-.9-.82-.98-1.23-.22-2.36-.69-3.38-1.4-.4-.28-.93-.23-1.28.11l-1.31,1.31-1.11-1.11,1.31-1.31c.34-.34.39-.88.11-1.28-.71-1.02-1.18-2.15-1.4-3.38-.09-.48-.5-.82-.98-.82h-1.85v-1.58h1.85c.48,0,.9-.35.98-.82.22-1.23.69-2.36,1.4-3.38.28-.4.23-.93-.11-1.28l-1.31-1.31,1.11-1.11,1.31,1.31c.34.34.88.39,1.28.11,1.02-.71,2.15-1.18,3.38-1.4.48-.09.82-.5.82-.98v-1.85h1.58v1.85c0,.48.35.9.82.98,1.23.22,2.36.69,3.38,1.4.4.28.94.23,1.28-.11l1.31-1.31,1.11,1.11-1.31,1.31c-.34.34-.39.88-.11,1.28.71,1.02,1.18,2.15,1.4,3.38.09.48.5.82.98.82h1.85v1.81c0,.55.45,1,1,1s1-.45,1-1v-2.81c0-.55-.45-1-1-1Z"/>
  </g>
  <path class="cls-1" d="m24.57,18.14c-3.54,0-6.43,2.88-6.43,6.43s2.88,6.43,6.43,6.43,6.43-2.88,6.43-6.43-2.88-6.43-6.43-6.43Zm-.52,5.62h1.04c1.02,0,1.85.83,1.85,1.84,0,.92-.68,1.68-1.56,1.82v.27c0,.44-.36.8-.8.8s-.8-.36-.8-.8v-.24h-.76c-.44,0-.8-.36-.8-.8s.36-.8.8-.8h2.08c.13,0,.24-.11.24-.24s-.11-.24-.24-.24h-1.04c-1.02,0-1.85-.83-1.85-1.84,0-.92.68-1.68,1.56-1.82v-.27c0-.44.36-.8.8-.8s.8.36.8.8v.24h.76c.44,0,.8.36.8.8s-.36.8-.8.8h-2.08c-.13,0-.24.11-.24.24s.11.24.24.24Z"/>
</svg>