<?xml version="1.0" encoding="UTF-8"?>
<svg id="OBJECT" xmlns="http://www.w3.org/2000/svg" viewBox="0 0 32 32">
  <defs>
    <style>
      .cls-1 {
        fill: #FD4360;
      }

      .cls-2 {
        fill: #dadada;
      }
    </style>
  </defs>
  <g>
    <path class="cls-2" d="M22,1H10c-1.65,0-3,1.35-3,3V28c0,1.65,1.35,3,3,3h12c1.65,0,3-1.35,3-3V4c0-1.65-1.35-3-3-3ZM10,3h12c.55,0,1,.45,1,1V24H9V4c0-.55,.45-1,1-1Zm12,26H10c-.55,0-1-.45-1-1v-2h14v2c0,.55-.45,1-1,1Z"/>
    <path class="cls-2" d="M15.25,6h1.5c.55,0,1-.45,1-1s-.45-1-1-1h-1.5c-.55,0-1,.45-1,1s.45,1,1,1Z"/>
  </g>
  <path class="cls-1" d="M16,8.75c-2.76,0-5,2.21-5,4.94,0,4.56,4.29,7.3,4.47,7.41,.16,.1,.35,.15,.53,.15s.37-.05,.53-.15c.18-.11,4.47-2.85,4.47-7.41,0-2.72-2.24-4.94-5-4.94Zm.5,6h-1c-.55,0-1-.45-1-1s.45-1,1-1h1c.55,0,1,.45,1,1s-.45,1-1,1Z"/>
</svg>