<?xml version="1.0" encoding="UTF-8"?>
<svg id="OBJECT" xmlns="http://www.w3.org/2000/svg" viewBox="0 0 32 32">
  <defs>
    <style>
      .cls-1 {
        fill: #FD4360;
      }

      .cls-2 {
        fill: #dadada;
      }
    </style>
  </defs>
  <g>
    <path class="cls-2" d="M28.99,17.84c-.08-.48-.5-.84-.99-.84h-3.21c.73-1.79,1.21-3.79,1.21-6,0-5.51-4.49-10-10-10S6,5.49,6,11c0,2.21,.48,4.21,1.21,6h-3.21c-.49,0-.91,.35-.99,.84L1.01,29.84c-.05,.29,.03,.59,.22,.81,.19,.22,.47,.35,.76,.35H30c.29,0,.57-.13,.76-.35,.19-.22,.27-.52,.22-.81l-2-12ZM16,3c4.41,0,8,3.59,8,8,0,7.32-6.13,12.4-8,13.78-1.87-1.38-8-6.46-8-13.78,0-4.41,3.59-8,8-8ZM3.18,29l1.67-10h3.31c2.71,4.87,7.04,7.68,7.3,7.84,.16,.1,.35,.16,.54,.16s.37-.05,.54-.16c.26-.17,4.59-2.98,7.3-7.84h3.31l1.67,10H3.18Z"/>
    <path class="cls-2" d="M26,26h-1c-.55,0-1,.45-1,1s.45,1,1,1h1c.55,0,1-.45,1-1s-.45-1-1-1Z"/>
    <path class="cls-2" d="M7,26h-1c-.55,0-1,.45-1,1s.45,1,1,1h1c.55,0,1-.45,1-1s-.45-1-1-1Z"/>
  </g>
  <circle class="cls-1" cx="16" cy="11" r="6"/>
</svg>