<?xml version="1.0" encoding="UTF-8"?>
<svg id="OBJECT" xmlns="http://www.w3.org/2000/svg" viewBox="0 0 32 32">
  <defs>
    <style>
      .cls-1 {
        fill: #FD4360;
      }

      .cls-2 {
        fill: #dadada;
      }
    </style>
  </defs>
  <path class="cls-2" d="M26.53,1.15c-.29-.18-.66-.2-.97-.04l-5.55,2.78L14.45,1.11c-.28-.14-.61-.14-.89,0l-5.55,2.78L2.45,1.11c-.31-.15-.68-.14-.97,.04-.29,.18-.47,.5-.47,.85V22c0,.38,.21,.73,.55,.89l6,3c.14,.07,.29,.11,.45,.11s.31-.04,.45-.11l5.55-2.78,.62,.31c.49,.25,1.09,.05,1.34-.44,.25-.49,.05-1.09-.44-1.34l-.52-.26V3.62l4,2v7.61c0,.55,.45,1,1,1s1-.45,1-1V5.62l4-2V12.12c0,.55,.45,1,1,1s1-.45,1-1V2c0-.35-.18-.67-.47-.85ZM13,21.38l-4,2V5.62l4-2V21.38ZM3,3.62l4,2V23.38l-4-2V3.62Z"/>
  <g>
    <circle class="cls-1" cx="24.5" cy="21.25" r="2.25"/>
    <path class="cls-1" d="M24.5,15c-3.58,0-6.5,2.8-6.5,6.25,0,5.91,5.74,9.46,5.98,9.6,.16,.1,.34,.15,.52,.15s.36-.05,.52-.15c.24-.15,5.98-3.7,5.98-9.6,0-3.45-2.92-6.25-6.5-6.25Zm0,10.5c-2.34,0-4.25-1.91-4.25-4.25s1.91-4.25,4.25-4.25,4.25,1.91,4.25,4.25-1.91,4.25-4.25,4.25Z"/>
  </g>
</svg>