<?xml version="1.0" encoding="UTF-8"?>
<svg id="OBJECT" xmlns="http://www.w3.org/2000/svg" viewBox="0 0 32 32">
  <defs>
    <style>
      .cls-1 {
        fill: #FD4360;
      }

      .cls-2 {
        fill: #dadada;
      }
    </style>
  </defs>
  <path class="cls-2" d="M30,11h-1.48c-.55,0-1,.45-1,1s.45,1,1,1h.48v6H9v-6h3.48c.55,0,1-.45,1-1s-.45-1-1-1h-3.48v-2c0-.55-.45-1-1-1H4c-1.65,0-3,1.35-3,3V28c0,1.65,1.35,3,3,3H30c.55,0,1-.45,1-1V12c0-.55-.45-1-1-1Zm-27,0c0-.55,.45-1,1-1h3v13h-3c-.35,0-.69,.06-1,.17V11Zm0,17v-2c0-.55,.45-1,1-1h4c.55,0,1-.45,1-1v-3h9.07l-4.36,8H4c-.55,0-1-.45-1-1Zm12.98,1l4.36-8h8.66v8H15.98Z"/>
  <g>
    <circle class="cls-1" cx="20.5" cy="7.25" r="2.25"/>
    <path class="cls-1" d="M20.5,1c-3.58,0-6.5,2.8-6.5,6.25,0,5.91,5.74,9.46,5.98,9.6,.16,.1,.34,.15,.52,.15s.36-.05,.52-.15c.24-.15,5.98-3.7,5.98-9.6,0-3.45-2.92-6.25-6.5-6.25Zm0,10.5c-2.34,0-4.25-1.91-4.25-4.25s1.91-4.25,4.25-4.25,4.25,1.91,4.25,4.25-1.91,4.25-4.25,4.25Z"/>
  </g>
</svg>