<?xml version="1.0" encoding="UTF-8"?>
<svg id="OBJECT" xmlns="http://www.w3.org/2000/svg" viewBox="0 0 32 32">
  <defs>
    <style>
      .cls-1 {
        fill: #FD4360;
      }

      .cls-1, .cls-2 {
        stroke-width: 0px;
      }

      .cls-2 {
        fill: #dadada;
      }
    </style>
  </defs>
  <g>
    <path class="cls-2" d="m28,11h-6.95c-.55,0-1,.45-1,1s.45,1,1,1h5.54L3.03,28.15c0-.05-.03-.1-.03-.15v-14c0-.55.45-1,1-1h.95c.55,0,1-.45,1-1s-.45-1-1-1h-.95c-1.65,0-3,1.35-3,3v14c0,1.65,1.35,3,3,3h24c1.65,0,3-1.35,3-3v-14c0-1.65-1.35-3-3-3Zm-9.23,9.41l10.2-6.56c0,.05.03.1.03.15v13.84l-10.23-7.43Zm8.43,8.59H5.4l11.56-7.43,10.23,7.43Z"/>
    <path class="cls-2" d="m13.75,28h.5c.55,0,1-.45,1-1s-.45-1-1-1h-.5c-.55,0-1,.45-1,1s.45,1,1,1Z"/>
    <path class="cls-2" d="m17.75,28h.5c.55,0,1-.45,1-1s-.45-1-1-1h-.5c-.55,0-1,.45-1,1s.45,1,1,1Z"/>
  </g>
  <g>
    <circle class="cls-1" cx="13" cy="8" r="2.5"/>
    <path class="cls-1" d="m13,1c-3.86,0-7,3.14-7,7,0,6.17,6.16,10.63,6.42,10.81.17.12.38.19.58.19s.41-.06.58-.19c.26-.19,6.42-4.64,6.42-10.81,0-3.86-3.14-7-7-7Zm0,11.5c-2.48,0-4.5-2.02-4.5-4.5s2.02-4.5,4.5-4.5,4.5,2.02,4.5,4.5-2.02,4.5-4.5,4.5Z"/>
  </g>
</svg>