<?xml version="1.0" encoding="UTF-8"?>
<svg id="OBJECT" xmlns="http://www.w3.org/2000/svg" viewBox="0 0 32 32">
  <defs>
    <style>
      .cls-1 {
        fill: #FD4360;
      }

      .cls-1, .cls-2 {
        stroke-width: 0px;
      }

      .cls-2 {
        fill: #dadada;
      }
    </style>
  </defs>
  <g>
    <path class="cls-2" d="m28.5,25h-3c-1.38,0-2.5,1.12-2.5,2.5v1c0,1.38,1.12,2.5,2.5,2.5h3c1.38,0,2.5-1.12,2.5-2.5v-1c0-1.38-1.12-2.5-2.5-2.5Zm.5,3.5c0,.28-.22.5-.5.5h-3c-.28,0-.5-.22-.5-.5v-1c0-.28.22-.5.5-.5h3c.28,0,.5.22.5.5v1Z"/>
    <path class="cls-2" d="m17.5,25h-3c-1.38,0-2.5,1.12-2.5,2.5v1c0,1.38,1.12,2.5,2.5,2.5h3c1.38,0,2.5-1.12,2.5-2.5v-1c0-1.38-1.12-2.5-2.5-2.5Zm.5,3.5c0,.28-.22.5-.5.5h-3c-.28,0-.5-.22-.5-.5v-1c0-.28.22-.5.5-.5h3c.28,0,.5.22.5.5v1Z"/>
    <path class="cls-2" d="m6.5,25h-3c-1.38,0-2.5,1.12-2.5,2.5v1c0,1.38,1.12,2.5,2.5,2.5h3c1.38,0,2.5-1.12,2.5-2.5v-1c0-1.38-1.12-2.5-2.5-2.5Zm.5,3.5c0,.28-.22.5-.5.5h-3c-.28,0-.5-.22-.5-.5v-1c0-.28.22-.5.5-.5h3c.28,0,.5.22.5.5v1Z"/>
    <path class="cls-2" d="m5,24c.55,0,1-.45,1-1v-1h9v1c0,.55.45,1,1,1s1-.45,1-1v-1h9v1c0,.55.45,1,1,1s1-.45,1-1v-1c0-1.1-.9-2-2-2h-9v-2h1c.55,0,1-.45,1-1s-.45-1-1-1h-4c-.55,0-1,.45-1,1s.45,1,1,1h1v2H6c-1.1,0-2,.9-2,2v1c0,.55.45,1,1,1Z"/>
  </g>
  <g>
    <path class="cls-1" d="m19.78,2.34c-1.41-1.15-3.25-1.59-5.06-1.21-2.33.48-4.19,2.39-4.62,4.75-.36,1.94.23,3.86,1.6,5.27.19.2.3.45.3.71v2.13c0,.55.45,1,1,1h6c.55,0,1-.45,1-1v-2.13c0-.26.1-.5.29-.7,1.1-1.13,1.71-2.61,1.71-4.17,0-1.81-.81-3.51-2.22-4.66Zm-1.31,4.19l-2.16,2.3c-.19.2-.45.32-.73.32s-.54-.11-.73-.32l-1.34-1.44c-.38-.4-.36-1.04.05-1.41s1.04-.36,1.41.05l.62.66,1.43-1.52c.38-.4,1.01-.42,1.41-.05.4.38.42,1.01.05,1.41Z"/>
    <path class="cls-1" d="m25.5,6h-.79c-.55,0-1,.45-1,1s.45,1,1,1h.79c.55,0,1-.45,1-1s-.45-1-1-1Z"/>
    <path class="cls-1" d="m23.94,4.18c.08,0,.16,0,.24-.03l.76-.18c.54-.13.87-.67.74-1.21-.13-.54-.67-.87-1.21-.74l-.76.18c-.54.13-.87.67-.74,1.21.11.46.52.76.97.76Z"/>
    <path class="cls-1" d="m24.94,10.03l-.76-.18c-.53-.13-1.08.2-1.21.74s.2,1.08.74,1.21l.76.18c.08.02.16.03.24.03.45,0,.86-.31.97-.76.13-.54-.2-1.08-.74-1.21Z"/>
    <path class="cls-1" d="m7.29,8c.55,0,1-.45,1-1s-.45-1-1-1h-.79c-.55,0-1,.45-1,1s.45,1,1,1h.79Z"/>
    <path class="cls-1" d="m8.29,2.21l-.76-.18c-.53-.13-1.08.2-1.21.74s.2,1.08.74,1.21l.76.18c.08.02.16.03.24.03.45,0,.86-.31.97-.76.13-.54-.2-1.08-.74-1.21Z"/>
    <path class="cls-1" d="m7.82,9.84l-.76.18c-.54.13-.87.67-.74,1.21.11.46.52.76.97.76.08,0,.16,0,.24-.03l.76-.18c.54-.13.87-.67.74-1.21-.13-.54-.67-.87-1.21-.74Z"/>
  </g>
</svg>