<?xml version="1.0" encoding="UTF-8"?>
<svg id="OBJECT" xmlns="http://www.w3.org/2000/svg" viewBox="0 0 32 32">
  <defs>
    <style>
      .cls-1 {
        fill: #FD4360;
      }

      .cls-2 {
        fill: #dadada;
      }
    </style>
  </defs>
  <g>
    <path class="cls-2" d="M30,2h-7c0-.55-.45-1-1-1s-1,.45-1,1V13h-1.5c-.55,0-1,.45-1,1s.45,1,1,1h5c.55,0,1-.45,1-1s-.45-1-1-1h-1.5v-3h7c.55,0,1-.45,1-1V3c0-.55-.45-1-1-1Zm-1,6h-6V4h6v4Z"/>
    <path class="cls-2" d="M24,18.55h-8c-1.1,0-2-.9-2-2v-6.55c0-1.1,.9-2,2-2h2c.55,0,1-.45,1-1s-.45-1-1-1h-2c-2.21,0-4,1.79-4,4v6.55c0,2.21,1.79,4,4,4h8c1.1,0,2,.9,2,2v2.45c0,1.1-.9,2-2,2h-8c-.55,0-1,.45-1,1s.45,1,1,1h8c2.21,0,4-1.79,4-4v-2.45c0-2.21-1.79-4-4-4Z"/>
  </g>
  <g>
    <path class="cls-1" d="M11.46,24.01c-.82,1.65-2.5,2.79-4.46,2.79s-3.65-1.15-4.46-2.79c-.95,1.06-1.54,2.46-1.54,3.99,0,1.65,1.35,3,3,3h6c1.65,0,3-1.35,3-3,0-1.53-.58-2.93-1.54-3.99Z"/>
    <path class="cls-1" d="M7,24.8c1.65,0,3-1.35,3-3v-1.2c0-1.43-1.17-2.6-2.6-2.6h-.8c-1.43,0-2.6,1.17-2.6,2.6v1.2c0,1.65,1.35,3,3,3Z"/>
  </g>
</svg>