<?xml version="1.0" encoding="UTF-8"?>
<svg id="OBJECT" xmlns="http://www.w3.org/2000/svg" viewBox="0 0 32 32">
  <defs>
    <style>
      .cls-1 {
        fill: #FD4360;
      }

      .cls-1, .cls-2 {
        stroke-width: 0px;
      }

      .cls-2 {
        fill: #dadada;
      }
    </style>
  </defs>
  <g>
    <path class="cls-2" d="m30.94,5.06l-.31-2.81c-.05-.46-.42-.83-.88-.88l-2.81-.31c-2.85-.31-5.65.67-7.68,2.69L3.94,19.07c-.39.39-.39,1.02,0,1.41l1.03,1.03-3.53,2.35c-.25.17-.41.44-.44.73-.03.3.08.59.29.81l5.3,5.3c.19.19.44.29.71.29.03,0,.07,0,.1,0,.3-.03.57-.19.73-.44l2.35-3.53,1.03,1.03c.2.2.45.29.71.29s.51-.1.71-.29l15.32-15.32c2.03-2.03,3.01-4.83,2.69-7.68ZM7.14,28.43l-3.58-3.58,2.84-1.9,2.63,2.63-1.9,2.84Zm5.08-2.49l-6.16-6.16,3.13-3.13,6.16,6.16-3.13,3.13Zm14.61-14.61l-10.07,10.07-6.16-6.16,10.07-10.07c1.6-1.6,3.8-2.36,6.04-2.12l2.01.22.22,2.01c.25,2.24-.52,4.45-2.12,6.04Z"/>
    <path class="cls-2" d="m12.17,21.34l-1.51-1.51c-.39-.39-1.02-.39-1.41,0s-.39,1.02,0,1.41l1.51,1.51c.2.2.45.29.71.29s.51-.1.71-.29c.39-.39.39-1.02,0-1.41Z"/>
    <path class="cls-2" d="m18.33,9.23l-4.54,4.54c-.19.19-.29.44-.29.71s.11.52.29.71l3.03,3.03c.19.19.44.29.71.29s.52-.11.71-.29l4.54-4.54c.59-.59.92-1.38.92-2.22s-.33-1.63-.92-2.22c-1.19-1.19-3.26-1.19-4.44,0Zm3.03,3.03l-3.84,3.84-1.61-1.61,3.84-3.84c.43-.43,1.18-.43,1.61,0,.22.22.33.5.33.81s-.12.59-.33.81Z"/>
  </g>
  <g>
    <path class="cls-1" d="m22.27,25.28l-.97-2.77-5.77,5.77,2.42,2.42c.2.2.45.29.71.29s.51-.1.71-.29l2.16-2.16c.85-.85,1.14-2.13.74-3.26Z"/>
    <path class="cls-1" d="m3.46,10.47l-2.16,2.16c-.39.39-.39,1.02,0,1.41l2.42,2.42,5.77-5.77-2.77-.97c-1.13-.4-2.41-.11-3.26.74Z"/>
  </g>
</svg>