<?xml version="1.0" encoding="UTF-8"?>
<svg id="OBJECT" xmlns="http://www.w3.org/2000/svg" viewBox="0 0 32 32">
  <defs>
    <style>
      .cls-1 {
        fill: #FD4360;
      }

      .cls-1, .cls-2 {
        stroke-width: 0px;
      }

      .cls-2 {
        fill: #dadada;
      }
    </style>
  </defs>
  <path class="cls-2" d="m25,1h-3c-.55,0-1,.45-1,1v1.33l-11.2,4.67H2c-.55,0-1,.45-1,1v20c0,.55.45,1,1,1h2c1.65,0,3-1.35,3-3v-7h2.8l1.82.75c.13.05.26.08.38.08.39,0,.76-.23.92-.62.21-.51-.03-1.1-.54-1.31l-1.38-.57v-8.67l4-1.67v3c0,.55.45,1,1,1s1-.45,1-1v-3.83l4-1.67v6.62c0,.55.45,1,1,1s1-.45,1-1V4.01h0v-1.01h2c.55,0,1,.45,1,1v13c0,.55.45,1,1,1s1-.45,1-1V4c0-1.65-1.35-3-3-3ZM3,14h6v4H3v-4Zm6-4v2H3v-2h6Zm-4,17c0,.55-.45,1-1,1h-1v-8h2v7Z"/>
  <path class="cls-1" d="m28.38,19h-7.38c-.55,0-1-.45-1-1s.45-1,1-1h1.62l-1.28-2.55c-.45-.89-1.34-1.45-2.34-1.45s-1.9.55-2.34,1.45l-2.55,5.11c-.07.14-.11.29-.11.45v8.38c0,1.44,1.17,2.62,2.62,2.62h11.76c1.44,0,2.62-1.17,2.62-2.62v-6.76c0-1.44-1.17-2.62-2.62-2.62Zm-10.38,3.25h.5c.55,0,1,.45,1,1s-.45,1-1,1h-.5c-.55,0-1-.45-1-1s.45-1,1-1Zm9,5.5h-9c-.55,0-1-.45-1-1s.45-1,1-1h9c.55,0,1,.45,1,1s-.45,1-1,1Zm0-3.5h-5c-.55,0-1-.45-1-1s.45-1,1-1h5c.55,0,1,.45,1,1s-.45,1-1,1Z"/>
</svg>