<?xml version="1.0" encoding="UTF-8"?>
<svg id="OBJECT" xmlns="http://www.w3.org/2000/svg" viewBox="0 0 32 32">
  <defs>
    <style>
      .cls-1 {
        fill: #FD4360;
      }

      .cls-1, .cls-2 {
        stroke-width: 0px;
      }

      .cls-2 {
        fill: #dadada;
      }
    </style>
  </defs>
  <path class="cls-1" d="m9.2,15h13.59c-.42-1.44-1.48-2.63-2.91-3.2-.97,1.04-2.35,1.69-3.88,1.69h-.02c-1.53,0-2.91-.66-3.88-1.69-1.42.57-2.48,1.76-2.91,3.2Z"/>
  <path class="cls-1" d="m16.01,10.92c1.52,0,2.76-1.24,2.76-2.75v-2.7c0-.25-.2-.45-.45-.45h-4.63c-.25,0-.45.2-.45.45v2.7c0,1.52,1.24,2.75,2.76,2.75h.02Z"/>
  <g>
    <path class="cls-2" d="m28,17V3h2c.55,0,1-.45,1-1s-.45-1-1-1H2c-.55,0-1,.45-1,1s.45,1,1,1h2v14c-1.65,0-3,1.35-3,3v10c0,.55.45,1,1,1h28c.55,0,1-.45,1-1v-10c0-1.65-1.35-3-3-3ZM6,3h20v14H6V3Zm-2,16h24c.55,0,1,.45,1,1v5H3v-5c0-.55.45-1,1-1Zm-1,10v-2h26v2H3Z"/>
    <path class="cls-2" d="m6,23h4c.55,0,1-.45,1-1s-.45-1-1-1h-4c-.55,0-1,.45-1,1s.45,1,1,1Z"/>
    <path class="cls-2" d="m14,23h12c.55,0,1-.45,1-1s-.45-1-1-1h-12c-.55,0-1,.45-1,1s.45,1,1,1Z"/>
  </g>
</svg>