<?xml version="1.0" encoding="UTF-8"?>
<svg id="OBJECT" xmlns="http://www.w3.org/2000/svg" viewBox="0 0 512 512">
  <defs>
    <style>
      .cls-1 {
        fill: #FD4360;
      }

      .cls-2 {
        fill: #dadada;
      }
    </style>
  </defs>
  <g>
    <path class="cls-2" d="M62.5,257H212.5c4.14,0,7.5-3.36,7.5-7.5v-50c0-4.14-3.36-7.5-7.5-7.5H62.5c-4.14,0-7.5,3.36-7.5,7.5v50c0,4.14,3.36,7.5,7.5,7.5Zm57.5-15v-35h35v35h-35Zm85,0h-35v-35h35v35Zm-135-35h35v35h-35v-35Z"/>
    <path class="cls-2" d="M212.5,337c4.14,0,7.5-3.36,7.5-7.5v-50c0-4.14-3.36-7.5-7.5-7.5H62.5c-4.14,0-7.5,3.36-7.5,7.5v50c0,4.14,3.36,7.5,7.5,7.5H212.5Zm-92.5-15v-35h35v35h-35Zm85,0h-35v-35h35v35Zm-135-35h35v35h-35v-35Z"/>
    <path class="cls-2" d="M504.5,467h-129.5v-182.5c0-3.44-2.34-6.44-5.68-7.28l-114.32-28.58v-84.14c0-4.14-3.36-7.5-7.5-7.5H27.5c-4.14,0-7.5,3.36-7.5,7.5V467H7.5c-4.14,0-7.5,3.36-7.5,7.5v15c0,12.41,10.09,22.5,22.5,22.5H489.5c12.41,0,22.5-10.09,22.5-22.5v-15c0-4.14-3.36-7.5-7.5-7.5Zm-144.5-176.64v176.64h-105v-202.89l105,26.25ZM35,172H240V467h-55v-102.5c0-4.14-3.36-7.5-7.5-7.5H97.5c-4.14,0-7.5,3.36-7.5,7.5v102.5H35V172ZM170,467H105v-95h65v95Zm327,22.5c0,4.14-3.36,7.5-7.5,7.5H22.5c-4.14,0-7.5-3.36-7.5-7.5v-7.5H497v7.5Z"/>
    <path class="cls-2" d="M152.5,439.5c4.14,0,7.5-3.36,7.5-7.5v-15c0-4.14-3.36-7.5-7.5-7.5s-7.5,3.36-7.5,7.5v15c0,4.14,3.36,7.5,7.5,7.5Z"/>
    <path class="cls-2" d="M282.5,322h10c4.14,0,7.5-3.36,7.5-7.5s-3.36-7.5-7.5-7.5h-10c-4.14,0-7.5,3.36-7.5,7.5s3.36,7.5,7.5,7.5Z"/>
    <path class="cls-2" d="M322.5,322h10c4.14,0,7.5-3.36,7.5-7.5s-3.36-7.5-7.5-7.5h-10c-4.14,0-7.5,3.36-7.5,7.5s3.36,7.5,7.5,7.5Z"/>
    <path class="cls-2" d="M282.5,362h10c4.14,0,7.5-3.36,7.5-7.5s-3.36-7.5-7.5-7.5h-10c-4.14,0-7.5,3.36-7.5,7.5s3.36,7.5,7.5,7.5Z"/>
    <path class="cls-2" d="M322.5,362h10c4.14,0,7.5-3.36,7.5-7.5s-3.36-7.5-7.5-7.5h-10c-4.14,0-7.5,3.36-7.5,7.5s3.36,7.5,7.5,7.5Z"/>
    <path class="cls-2" d="M282.5,402h10c4.14,0,7.5-3.36,7.5-7.5s-3.36-7.5-7.5-7.5h-10c-4.14,0-7.5,3.36-7.5,7.5s3.36,7.5,7.5,7.5Z"/>
    <path class="cls-2" d="M322.5,402h10c4.14,0,7.5-3.36,7.5-7.5s-3.36-7.5-7.5-7.5h-10c-4.14,0-7.5,3.36-7.5,7.5s3.36,7.5,7.5,7.5Z"/>
    <path class="cls-2" d="M292.5,427h-10c-4.14,0-7.5,3.36-7.5,7.5s3.36,7.5,7.5,7.5h10c4.14,0,7.5-3.36,7.5-7.5s-3.36-7.5-7.5-7.5Z"/>
    <path class="cls-2" d="M322.5,442h10c4.14,0,7.5-3.36,7.5-7.5s-3.36-7.5-7.5-7.5h-10c-4.14,0-7.5,3.36-7.5,7.5s3.36,7.5,7.5,7.5Z"/>
  </g>
  <g>
    <path class="cls-1" d="M414.88,166.65c.42-4.79-1.05-9.45-4.14-13.13l-47.2-56.25c-6.38-7.6-17.75-8.59-25.34-2.22l-42.86,35.96c-3.68,3.09-5.94,7.43-6.36,12.21-.42,4.79,1.05,9.45,4.14,13.13l53.94,64.29c1.48,1.77,3.61,2.68,5.75,2.68,1.7,0,3.41-.58,4.82-1.75l50.89-42.7c3.68-3.09,5.94-7.43,6.36-12.21Zm-70.98-11.12c-1.41,1.18-3.12,1.75-4.82,1.75-2.14,0-4.27-.91-5.75-2.68-2.66-3.17-2.25-7.9,.92-10.57l10-8.39c3.17-2.66,7.9-2.25,10.57,.92,2.66,3.17,2.25,7.9-.92,10.57l-10,8.39Zm25.69,10.31l-10,8.39c-1.41,1.18-3.12,1.75-4.82,1.75-2.14,0-4.27-.91-5.75-2.68-2.66-3.17-2.25-7.9,.92-10.57l10-8.39c3.17-2.66,7.9-2.25,10.57,.92,2.66,3.17,2.25,7.9-.92,10.57Z"/>
    <path class="cls-1" d="M396.47,208.56l-29.2,24.5c-2.57,2.16-5.59,3.69-8.8,4.53l29.1,43.03c1.19,1.76,3.07,2.93,5.17,3.23,.35,.05,.69,.07,1.04,.07,1.75,0,3.46-.61,4.82-1.75l12.01-10.08c8.19-6.87,10.41-18.66,5.27-28.04l-19.42-35.49Z"/>
    <path class="cls-1" d="M276.42,174.27c-3.17,2.66-3.59,7.39-.92,10.57l33.71,40.18c1.28,1.52,3.11,2.48,5.09,2.65,.22,.02,.44,.03,.65,.03,1.76,0,3.46-.62,4.82-1.75l7.13-5.98-43.36-51.67-7.13,5.98Z"/>
    <path class="cls-1" d="M510.24,133.93L400.11,2.68c-2.66-3.17-7.39-3.59-10.57-.92-3.17,2.66-3.59,7.39-.92,10.57l5.89,7.03-28.79,60.62c3.5,1.94,6.67,4.51,9.31,7.66l47.2,56.25c3.6,4.29,6,9.31,7.07,14.66l63.76-21.74,5.69,6.78c1.48,1.77,3.61,2.68,5.75,2.68,1.7,0,3.41-.58,4.82-1.75,3.17-2.66,3.59-7.39,.92-10.57Z"/>
  </g>
</svg>