<?xml version="1.0" encoding="UTF-8"?>
<svg id="OBJECT" xmlns="http://www.w3.org/2000/svg" viewBox="0 0 512 512">
  <defs>
    <style>
      .cls-1 {
        fill: #FD4360;
      }

      .cls-2 {
        fill: #dadada;
      }
    </style>
  </defs>
  <g>
    <path class="cls-2" d="M132.17,120.49c-1.42-3.89-5.72-5.9-9.61-4.48l-86.26,31.4c-1.87,.68-3.39,2.08-4.23,3.88-.84,1.8-.93,3.87-.25,5.74l4.41,12.12-31.29,11.39c-3.89,1.42-5.9,5.72-4.48,9.61l24.42,67.09c.68,1.87,2.08,3.39,3.88,4.23,1,.47,2.08,.7,3.17,.7,.87,0,1.74-.15,2.56-.45l31.29-11.39,30.58,84.01c3.37,9.25,12.13,15,21.45,15,2.58,0,5.21-.44,7.77-1.38l4.79-1.74c11.81-4.3,17.93-17.41,13.63-29.22l-9.64-26.5,7.33-2.67c11.81-4.3,17.93-17.41,13.63-29.22l-6.16-16.91,16.91-6.16c3.89-1.42,5.9-5.72,4.48-9.61l-38.37-105.43ZM36.4,245.06l-19.29-53,24.24-8.82,19.29,53-24.24,8.82Zm88.84,87.07l-4.79,1.74c-4.04,1.47-8.53-.62-10-4.66l-23.6-64.84,19.45-7.08,23.6,64.84c1.47,4.04-.62,8.53-4.66,10Zm11.31-58.39l-7.33,2.67-8.82-24.24,14.66-5.34,6.16,16.91c1.47,4.04-.62,8.53-4.66,10Zm-54.83-23.46l-33.24-91.34,72.17-26.27,33.24,91.34-72.17,26.27Z"/>
    <path class="cls-2" d="M111.42,164.81l-35.21,12.81c-3.89,1.42-5.9,5.72-4.48,9.61,1.11,3.05,3.98,4.94,7.05,4.94,.85,0,1.72-.15,2.56-.45l35.21-12.81c3.89-1.42,5.9-5.72,4.48-9.61-1.42-3.89-5.72-5.9-9.61-4.48Z"/>
    <path class="cls-2" d="M85.82,204.03c-3.89,1.42-5.9,5.72-4.48,9.61,1.11,3.04,3.98,4.94,7.05,4.94,.85,0,1.72-.15,2.56-.45l35.21-12.82c3.89-1.42,5.9-5.72,4.48-9.61-1.42-3.89-5.72-5.9-9.61-4.48l-35.21,12.82Z"/>
    <path class="cls-2" d="M489.5,277H219.5c-12.41,0-22.5,10.09-22.5,22.5v190c0,12.41,10.09,22.5,22.5,22.5H489.5c12.41,0,22.5-10.09,22.5-22.5v-190c0-12.41-10.09-22.5-22.5-22.5Zm-107.57,137.47c-6.9,7.96-16.9,12.53-27.43,12.53s-20.53-4.57-27.43-12.53l-106.14-122.47H488.07l-106.14,122.47Zm-92.02-19.97l-77.91,89.9v-179.79l77.91,89.9Zm9.93,11.45l15.9,18.35c9.75,11.25,23.88,17.7,38.77,17.7s29.02-6.45,38.77-17.7l15.9-18.35,78.91,91.05H220.92l78.91-91.05Zm119.26-11.45l77.91-89.89v179.79l-77.91-89.89Z"/>
    <path class="cls-2" d="M319.5,317h-10c-4.14,0-7.5,3.36-7.5,7.5s3.36,7.5,7.5,7.5h10c4.14,0,7.5-3.36,7.5-7.5s-3.36-7.5-7.5-7.5Z"/>
    <path class="cls-2" d="M359.5,317h-10c-4.14,0-7.5,3.36-7.5,7.5s3.36,7.5,7.5,7.5h10c4.14,0,7.5-3.36,7.5-7.5s-3.36-7.5-7.5-7.5Z"/>
    <path class="cls-2" d="M399.5,317h-10c-4.14,0-7.5,3.36-7.5,7.5s3.36,7.5,7.5,7.5h10c4.14,0,7.5-3.36,7.5-7.5s-3.36-7.5-7.5-7.5Z"/>
  </g>
  <g>
    <path class="cls-1" d="M272.88,15.01c-2.08-5.72-6.27-10.29-11.79-12.87-5.52-2.57-11.71-2.84-17.43-.76l-12.12,4.41,88.86,244.13,12.12-4.41c5.72-2.08,10.29-6.27,12.87-11.79,2.57-5.52,2.84-11.71,.76-17.43L272.88,15.01Z"/>
    <path class="cls-1" d="M207.7,60.52l29.63,81.4c1.42,3.89-.59,8.2-4.48,9.61-.85,.31-1.71,.45-2.56,.45-3.06,0-5.94-1.89-7.05-4.94l-25.86-71.06-5.42,8.12c-11.08,16.6-25.56,30.12-42.53,39.91l32.07,88.1c19.29-3.41,39.08-2.36,58.24,3.24l58.33,17.04L225.68,33.58l-17.98,26.94Zm37.64,103.41l1.6,4.4c1.42,3.89-.59,8.2-4.48,9.61-.85,.31-1.71,.45-2.56,.45-3.06,0-5.94-1.89-7.05-4.94l-1.6-4.4c-1.42-3.89,.59-8.2,4.48-9.61,3.89-1.42,8.2,.59,9.61,4.48Z"/>
    <path class="cls-1" d="M336.8,105.72c1.11,3.05,3.98,4.94,7.05,4.94,.85,0,1.72-.15,2.56-.45l35.29-12.84c3.89-1.42,5.9-5.72,4.48-9.61-1.42-3.89-5.72-5.9-9.61-4.48l-35.29,12.84c-3.89,1.42-5.9,5.72-4.48,9.61Z"/>
    <path class="cls-1" d="M317.63,73.99c1.36,1.04,2.96,1.54,4.55,1.54,2.26,0,4.49-1.01,5.96-2.94l23.45-30.65c2.52-3.29,1.89-8-1.4-10.51-3.29-2.52-8-1.89-10.51,1.4l-23.45,30.65c-2.52,3.29-1.89,8,1.4,10.51Z"/>
    <path class="cls-1" d="M389.14,145.07l-37.67-8.41c-4.04-.9-8.05,1.64-8.95,5.69-.9,4.04,1.64,8.05,5.69,8.95l37.67,8.41c.55,.12,1.1,.18,1.64,.18,3.44,0,6.53-2.38,7.31-5.87,.9-4.04-1.64-8.05-5.69-8.95Z"/>
  </g>
</svg>