<?xml version="1.0" encoding="UTF-8"?>
<svg id="OBJECT" xmlns="http://www.w3.org/2000/svg" viewBox="0 0 32 32">
  <defs>
    <style>
      .cls-1 {
        fill: #FD4360;
      }

      .cls-1, .cls-2 {
        stroke-width: 0px;
      }

      .cls-2 {
        fill: #dadada;
      }
    </style>
  </defs>
  <path class="cls-1" d="m22.86,14.65l-2.33-1.33c-.07-.04-.14-.06-.2-.06-.09,0-.16.03-.21.06-.08.04-.2.15-.2.35v2.66c0,.2.13.31.2.35.08.04.23.1.41,0l2.33-1.33c.18-.1.21-.27.21-.35s-.03-.25-.21-.35Z"/>
  <path class="cls-1" d="m21,8c-3.86,0-7,3.14-7,7s3.14,7,7,7,7-3.14,7-7-3.14-7-7-7Zm2.85,9.09l-2.33,1.33c-.37.21-.78.32-1.19.32s-.83-.11-1.21-.33c-.75-.44-1.2-1.21-1.2-2.08v-2.66c0-.87.45-1.65,1.2-2.08.75-.44,1.65-.44,2.4,0l2.33,1.33c.76.43,1.21,1.22,1.21,2.09s-.45,1.66-1.21,2.09Z"/>
  <g>
    <path class="cls-2" d="m11,4c-.55,0-1,.45-1,1s.45,1,1,1h3c.55,0,1-.45,1-1s-.45-1-1-1h-3Z"/>
    <path class="cls-2" d="m20,7c.55,0,1-.45,1-1v-2c0-1.65-1.35-3-3-3H7c-1.65,0-3,1.35-3,3v24c0,1.65,1.35,3,3,3h11c1.65,0,3-1.35,3-3v-4c0-.55-.45-1-1-1s-1,.45-1,1v1H6V4c0-.55.45-1,1-1h11c.55,0,1,.45,1,1v2c0,.55.45,1,1,1Zm-1,20v1c0,.55-.45,1-1,1H7c-.55,0-1-.45-1-1v-1h13Z"/>
  </g>
</svg>