<?xml version="1.0" encoding="UTF-8"?>
<svg id="OBJECT" xmlns="http://www.w3.org/2000/svg" viewBox="0 0 512 512">
  <defs>
    <style>
      .cls-1 {
        fill: #FD4360;
      }

      .cls-2 {
        fill: #dadada;
      }
    </style>
  </defs>
  <g>
    <path class="cls-2" d="M484.5,0H27.5C12.34,0,0,12.34,0,27.5V484.5c0,15.16,12.34,27.5,27.5,27.5H484.5c15.16,0,27.5-12.34,27.5-27.5V27.5c0-15.16-12.34-27.5-27.5-27.5ZM27.5,15H484.5c6.89,0,12.5,5.61,12.5,12.5V60H15V27.5c0-6.89,5.61-12.5,12.5-12.5ZM484.5,497H27.5c-6.89,0-12.5-5.61-12.5-12.5V75H497V484.5c0,6.89-5.61,12.5-12.5,12.5Z"/>
    <path class="cls-2" d="M451,175h-130c-12.41,0-22.5,10.09-22.5,22.5v157c0,12.41,10.09,22.5,22.5,22.5h130c12.41,0,22.5-10.09,22.5-22.5V197.5c0-12.41-10.09-22.5-22.5-22.5Zm7.5,179.5c0,4.14-3.36,7.5-7.5,7.5h-130c-4.14,0-7.5-3.36-7.5-7.5V197.5c0-4.14,3.36-7.5,7.5-7.5h130c4.14,0,7.5,3.36,7.5,7.5v157Z"/>
    <path class="cls-2" d="M438.5,328.5h-105c-4.14,0-7.5,3.36-7.5,7.5s3.36,7.5,7.5,7.5h105c4.14,0,7.5-3.36,7.5-7.5s-3.36-7.5-7.5-7.5Z"/>
    <path class="cls-2" d="M438.5,248.5h-105c-4.14,0-7.5,3.36-7.5,7.5s3.36,7.5,7.5,7.5h105c4.14,0,7.5-3.36,7.5-7.5s-3.36-7.5-7.5-7.5Z"/>
    <path class="cls-2" d="M438.5,288.5h-105c-4.14,0-7.5,3.36-7.5,7.5s3.36,7.5,7.5,7.5h105c4.14,0,7.5-3.36,7.5-7.5s-3.36-7.5-7.5-7.5Z"/>
    <path class="cls-2" d="M438.5,208.5h-75c-4.14,0-7.5,3.36-7.5,7.5s3.36,7.5,7.5,7.5h75c4.14,0,7.5-3.36,7.5-7.5s-3.36-7.5-7.5-7.5Z"/>
    <path class="cls-2" d="M333.5,223.5h5c4.14,0,7.5-3.36,7.5-7.5s-3.36-7.5-7.5-7.5h-5c-4.14,0-7.5,3.36-7.5,7.5s3.36,7.5,7.5,7.5Z"/>
    <path class="cls-2" d="M451,95h-130c-12.41,0-22.5,10.09-22.5,22.5v10c0,12.41,10.09,22.5,22.5,22.5h130c12.41,0,22.5-10.09,22.5-22.5v-10c0-12.41-10.09-22.5-22.5-22.5Zm7.5,32.5c0,4.14-3.36,7.5-7.5,7.5h-130c-4.14,0-7.5-3.36-7.5-7.5v-10c0-4.14,3.36-7.5,7.5-7.5h130c4.14,0,7.5,3.36,7.5,7.5v10Z"/>
    <path class="cls-2" d="M296,397h-80c-12.41,0-22.5,10.09-22.5,22.5v30c0,12.41,10.09,22.5,22.5,22.5h80c12.41,0,22.5-10.09,22.5-22.5v-30c0-12.41-10.09-22.5-22.5-22.5Zm7.5,52.5c0,4.14-3.36,7.5-7.5,7.5h-80c-4.14,0-7.5-3.36-7.5-7.5v-30c0-4.14,3.36-7.5,7.5-7.5h80c4.14,0,7.5,3.36,7.5,7.5v30Z"/>
    <path class="cls-2" d="M141,397H61c-12.41,0-22.5,10.09-22.5,22.5v30c0,12.41,10.09,22.5,22.5,22.5h80c12.41,0,22.5-10.09,22.5-22.5v-30c0-12.41-10.09-22.5-22.5-22.5Zm7.5,52.5c0,4.14-3.36,7.5-7.5,7.5H61c-4.14,0-7.5-3.36-7.5-7.5v-30c0-4.14,3.36-7.5,7.5-7.5h80c4.14,0,7.5,3.36,7.5,7.5v30Z"/>
    <path class="cls-2" d="M121,427h-40c-4.14,0-7.5,3.36-7.5,7.5s3.36,7.5,7.5,7.5h40c4.14,0,7.5-3.36,7.5-7.5s-3.36-7.5-7.5-7.5Z"/>
    <path class="cls-2" d="M276,427h-40c-4.14,0-7.5,3.36-7.5,7.5s3.36,7.5,7.5,7.5h40c4.14,0,7.5-3.36,7.5-7.5s-3.36-7.5-7.5-7.5Z"/>
    <path class="cls-2" d="M451,397h-80c-12.41,0-22.5,10.09-22.5,22.5v30c0,12.41,10.09,22.5,22.5,22.5h80c12.41,0,22.5-10.09,22.5-22.5v-30c0-12.41-10.09-22.5-22.5-22.5Zm7.5,52.5c0,4.14-3.36,7.5-7.5,7.5h-80c-4.14,0-7.5-3.36-7.5-7.5v-30c0-4.14,3.36-7.5,7.5-7.5h80c4.14,0,7.5,3.36,7.5,7.5v30Z"/>
    <path class="cls-2" d="M431,427h-40c-4.14,0-7.5,3.36-7.5,7.5s3.36,7.5,7.5,7.5h40c4.14,0,7.5-3.36,7.5-7.5s-3.36-7.5-7.5-7.5Z"/>
    <path class="cls-2" d="M37.5,45h10c4.14,0,7.5-3.36,7.5-7.5s-3.36-7.5-7.5-7.5h-10c-4.14,0-7.5,3.36-7.5,7.5s3.36,7.5,7.5,7.5Z"/>
    <path class="cls-2" d="M77.5,45h10c4.14,0,7.5-3.36,7.5-7.5s-3.36-7.5-7.5-7.5h-10c-4.14,0-7.5,3.36-7.5,7.5s3.36,7.5,7.5,7.5Z"/>
    <path class="cls-2" d="M117.5,45h10c4.14,0,7.5-3.36,7.5-7.5s-3.36-7.5-7.5-7.5h-10c-4.14,0-7.5,3.36-7.5,7.5s3.36,7.5,7.5,7.5Z"/>
  </g>
  <g>
    <path class="cls-1" d="M179.64,261.65c.42-4.79-1.05-9.45-4.14-13.13l-47.2-56.25c-6.38-7.6-17.75-8.59-25.34-2.22l-42.86,35.96c-3.68,3.09-5.94,7.43-6.36,12.21-.42,4.79,1.05,9.45,4.14,13.13l53.94,64.29c1.48,1.77,3.61,2.68,5.75,2.68,1.7,0,3.41-.58,4.82-1.75l50.89-42.7c3.68-3.09,5.94-7.43,6.36-12.21Zm-70.98-11.12c-1.41,1.18-3.12,1.75-4.82,1.75-2.14,0-4.27-.91-5.75-2.68-2.66-3.17-2.25-7.9,.92-10.57l10-8.39c3.17-2.66,7.9-2.25,10.57,.92,2.66,3.17,2.25,7.9-.92,10.57l-10,8.39Zm25.69,10.31l-10,8.39c-1.41,1.18-3.12,1.75-4.82,1.75-2.14,0-4.27-.91-5.75-2.68-2.66-3.17-2.25-7.9,.92-10.57l10-8.39c3.17-2.66,7.9-2.25,10.57,.92,2.66,3.17,2.25,7.9-.92,10.57Z"/>
    <path class="cls-1" d="M161.22,303.56l-29.2,24.5c-2.57,2.16-5.59,3.69-8.8,4.53l29.1,43.03c1.19,1.76,3.07,2.93,5.17,3.23,.35,.05,.69,.07,1.04,.07,1.75,0,3.46-.61,4.82-1.75l12.01-10.08c8.19-6.87,10.41-18.66,5.27-28.04l-19.42-35.49Z"/>
    <path class="cls-1" d="M41.18,269.27c-3.17,2.66-3.59,7.39-.92,10.57l33.71,40.18c1.28,1.52,3.11,2.48,5.09,2.65,.22,.02,.44,.03,.65,.03,1.76,0,3.46-.62,4.82-1.75l7.13-5.98-43.36-51.67-7.13,5.98Z"/>
    <path class="cls-1" d="M275,228.93L164.87,97.68c-2.66-3.17-7.39-3.59-10.57-.92-3.17,2.66-3.59,7.39-.92,10.57l5.89,7.03-28.79,60.62c3.5,1.94,6.67,4.51,9.31,7.66l47.2,56.25c3.6,4.29,6,9.31,7.07,14.66l63.76-21.74,5.69,6.78c1.48,1.77,3.61,2.68,5.75,2.68,1.7,0,3.41-.58,4.82-1.75,3.17-2.66,3.59-7.39,.92-10.57Z"/>
  </g>
</svg>