<?xml version="1.0" encoding="UTF-8"?>
<svg id="OBJECT" xmlns="http://www.w3.org/2000/svg" viewBox="0 0 32 32">
  <defs>
    <style>
      .cls-1 {
        fill: #FD4360;
      }

      .cls-2 {
        fill: #dadada;
      }
    </style>
  </defs>
  <path class="cls-2" d="M30.97,12.9L27.98,1.74c-.08-.31-.3-.56-.6-.67-.29-.12-.63-.09-.9,.08l-9.46,5.94c-.61-.53-1.46-.76-2.29-.53l-.53,.14c-.65,.17-1.18,.59-1.52,1.17s-.42,1.25-.25,1.9l1.06,3.97c.3,1.12,1.31,1.85,2.42,1.85,.21,0,.43-.03,.65-.08l.7-.19c.6-.16,1.1-.55,1.42-1.09,.09-.15,.15-.31,.2-.48l1.54,.06,.71,2.65c.33,1.24,1.46,2.06,2.68,2.06,.24,0,.48-.03,.72-.09l1.72-.46c1.48-.4,2.36-1.92,1.96-3.4l-.13-.47,1.9,.07s.03,0,.04,0c.3,0,.59-.14,.78-.38,.2-.25,.27-.58,.18-.88Zm-14.04,.33s-.09,.12-.2,.16l-.7,.19c-.26,.07-.54-.09-.61-.35l-1.06-3.97c-.05-.17,.01-.31,.05-.38,.04-.07,.13-.19,.3-.23l.53-.14s.09-.02,.13-.02c.22,0,.42,.15,.48,.37l1.11,4.13c.03,.12,0,.21-.03,.25Zm9.33,1.85c.11,.41-.14,.84-.55,.95l-1.72,.46c-.42,.11-.84-.13-.95-.55l-.55-2.06,3.48,.13,.29,1.07Zm-7.56-3.34l-.77-2.86,4.53-2.84,.91,3.38c.12,.45,.52,.74,.96,.74,.09,0,.17-.01,.26-.03,.53-.14,.85-.69,.71-1.22l-1.06-3.97,2.16-1.36,2.29,8.54-9.98-.37Z"/>
  <path class="cls-1" d="M9,15C4.59,15,1,18.59,1,23s3.59,8,8,8,8-3.59,8-8-3.59-8-8-8Zm-.75,7h1.5c1.38,0,2.5,1.12,2.5,2.5,0,1.29-.99,2.35-2.25,2.47v.53c0,.55-.45,1-1,1s-1-.45-1-1v-.5h-1.25c-.55,0-1-.45-1-1s.45-1,1-1h3c.28,0,.5-.22,.5-.5s-.22-.5-.5-.5h-1.5c-1.38,0-2.5-1.12-2.5-2.5,0-1.29,.99-2.35,2.25-2.47v-.53c0-.55,.45-1,1-1s1,.45,1,1v.5h1.25c.55,0,1,.45,1,1s-.45,1-1,1h-3c-.28,0-.5,.22-.5,.5s.22,.5,.5,.5Z"/>
</svg>