<?xml version="1.0" encoding="UTF-8"?>
<svg id="OBJECT" xmlns="http://www.w3.org/2000/svg" viewBox="0 0 512 512">
  <defs>
    <style>
      .cls-1 {
        fill: #FD4360;
      }

      .cls-2 {
        fill: #dadada;
      }
    </style>
  </defs>
  <g>
    <path class="cls-2" d="M7.5,170H40v87.5c0,12.41,10.09,22.5,22.5,22.5h5c12.41,0,22.5-10.09,22.5-22.5v-27.5h7.5c12.41,0,22.5-10.09,22.5-22.5v-17.5h17.5c4.14,0,7.5-3.36,7.5-7.5V72.5c0-4.14-3.36-7.5-7.5-7.5H47.5c-4.14,0-7.5,3.36-7.5,7.5v12.5H7.5c-4.14,0-7.5,3.36-7.5,7.5v70c0,4.14,3.36,7.5,7.5,7.5Zm60,95h-5c-4.14,0-7.5-3.36-7.5-7.5v-67.5h20v67.5c0,4.14-3.36,7.5-7.5,7.5Zm37.5-57.5c0,4.14-3.36,7.5-7.5,7.5h-7.5v-25h15v17.5ZM55,80h75v95H55V80ZM15,100h25v55H15v-55Z"/>
    <path class="cls-2" d="M110.87,106.22h-36.73c-4.14,0-7.5,3.36-7.5,7.5s3.36,7.5,7.5,7.5h36.73c4.14,0,7.5-3.36,7.5-7.5s-3.36-7.5-7.5-7.5Z"/>
    <path class="cls-2" d="M110.87,133.78h-36.73c-4.14,0-7.5,3.36-7.5,7.5s3.36,7.5,7.5,7.5h36.73c4.14,0,7.5-3.36,7.5-7.5s-3.36-7.5-7.5-7.5Z"/>
    <path class="cls-2" d="M509.79,189.19c-1.82-1.81-4.43-2.57-6.93-2l-153.69,34.48c-3.17,.71-5.52,3.38-5.82,6.61-.31,3.23,1.5,6.29,4.48,7.59l45.6,19.77-119.88,109.45-35.6-66.61c-3.86-7.22-10.67-12.31-18.68-13.97-8.01-1.66-16.28,.31-22.69,5.41L2.83,443.98c-3,2.39-3.72,6.65-1.66,9.89l34.72,54.65c1.14,1.8,2.99,3.02,5.09,3.37,.41,.07,.83,.1,1.24,.1,1.68,0,3.33-.57,4.67-1.63l151.42-120.41,35.09,65.66c4.03,7.54,11.17,12.7,19.6,14.14,8.42,1.45,16.88-1.03,23.19-6.79l168.69-154.01,18.57,43.68c1.28,3,4.35,4.83,7.6,4.53,3.25-.3,5.93-2.67,6.63-5.86l34.15-155.2c.55-2.5-.22-5.12-2.03-6.93Zm-41.72,135.98l-13.53-31.82c-.95-2.24-2.93-3.88-5.31-4.39-2.38-.52-4.86,.15-6.65,1.79l-176.51,161.15c-2.87,2.62-6.71,3.75-10.54,3.09-3.83-.66-7.08-3-8.91-6.43l-39.33-73.59c-1.05-1.96-2.92-3.36-5.09-3.81-2.18-.45-4.45,.09-6.19,1.47L44.08,493.44l-26.63-41.92,188.46-149.87c2.91-2.32,6.67-3.21,10.31-2.46,3.64,.75,6.74,3.07,8.49,6.35l40.15,75.12c1.09,2.04,3.06,3.46,5.35,3.86,2.28,.39,4.62-.29,6.33-1.85l135.56-123.77c1.88-1.71,2.76-4.27,2.34-6.77-.42-2.51-2.08-4.63-4.41-5.65l-35.1-15.22,119.72-26.86-26.57,120.76Z"/>
  </g>
  <g>
    <path class="cls-1" d="M295,0h-20V255h20c8.28,0,15-6.72,15-15V15c0-8.28-6.72-15-15-15Z"/>
    <path class="cls-1" d="M234.69,127.5c0,4.14-3.36,7.5-7.5,7.5s-7.5-3.36-7.5-7.5V53.29l-7.66,5.62c-15.62,11.47-33.31,19.03-52.04,22.4v92.38c18.72,3.37,36.42,10.93,52.04,22.4l47.96,35.21V23.7l-25.31,18.58V127.5Zm0,27.55c0,4.14-3.36,7.5-7.5,7.5s-7.5-3.36-7.5-7.5v-4.59c0-4.14,3.36-7.5,7.5-7.5s7.5,3.36,7.5,7.5v4.59Z"/>
    <path class="cls-1" d="M382.5,120h-36.82c-4.14,0-7.5,3.36-7.5,7.5s3.36,7.5,7.5,7.5h36.82c4.14,0,7.5-3.36,7.5-7.5s-3.36-7.5-7.5-7.5Z"/>
    <path class="cls-1" d="M337.51,95.38c1.38,0,2.78-.38,4.03-1.18l31.89-20.38c3.49-2.23,4.51-6.87,2.28-10.36-2.23-3.49-6.87-4.51-10.36-2.28l-31.89,20.38c-3.49,2.23-4.51,6.87-2.28,10.36,1.43,2.24,3.85,3.46,6.33,3.46Z"/>
    <path class="cls-1" d="M373.42,181.18l-31.89-20.38c-3.49-2.23-8.13-1.21-10.36,2.28-2.23,3.49-1.21,8.13,2.28,10.36l31.89,20.38c1.25,.8,2.65,1.18,4.03,1.18,2.47,0,4.9-1.22,6.33-3.46,2.23-3.49,1.21-8.13-2.28-10.36Z"/>
  </g>
</svg>