<?xml version="1.0" encoding="UTF-8"?>
<svg id="OBJECT" xmlns="http://www.w3.org/2000/svg" viewBox="0 0 32 32">
  <defs>
    <style>
      .cls-1 {
        fill: #FD4360;
      }

      .cls-1, .cls-2 {
        stroke-width: 0px;
      }

      .cls-2 {
        fill: #dadada;
      }
    </style>
  </defs>
  <path class="cls-2" d="m30,1c-.55,0-1,.45-1,1v.13l-13.14,1.88c-.49.07-.86.49-.86.99v.5h-3c-.55,0-1,.45-1,1v3c0,1.65,1.35,3,3,3h1v.5c0,.5.37.92.86.99l2.14.31v3.2c0,1.38,1.12,2.5,2.5,2.5h2.51c1,0,1.9-.59,2.3-1.52l1.27-2.96,2.42.35v.13c0,.55.45,1,1,1s1-.45,1-1V2c0-.55-.45-1-1-1ZM14,10.5c-.55,0-1-.45-1-1v-2h2v3h-1Zm9.47,7.2c-.08.18-.26.3-.46.3h-2.51c-.28,0-.5-.22-.5-.5v-2.92l4.53.65-1.06,2.47Zm-6.47-5.56v-6.27l7.09-1.01v5.15c0,.55.45,1,1,1s1-.45,1-1v-5.43l2.91-.42v9.69l-12-1.71Z"/>
  <path class="cls-1" d="m15.18,15.81c-3.55,0-5.8-2.42-5.84-2.47-.19-.21-.46-.33-.74-.33,0,0,0,0,0,0-.28,0-.55.12-.74.33-.02.02-2.27,2.47-5.84,2.47-.55,0-1,.45-1,1v4.14c0,3.04,1.48,5.91,3.95,7.68l3.06,2.19c.17.12.38.19.58.19s.41-.06.58-.19l3.06-2.19c2.47-1.77,3.95-4.64,3.95-7.68v-4.14c0-.55-.45-1-1-1Zm-3.37,5.33l-3.05,3.12c-.19.19-.45.3-.72.3s-.53-.11-.72-.3l-1.95-2c-.39-.39-.38-1.03.02-1.41.4-.38,1.03-.38,1.41.02l1.23,1.26,2.33-2.39c.39-.4,1.02-.4,1.41-.02.4.39.4,1.02.02,1.41Z"/>
</svg>