<?xml version="1.0" encoding="UTF-8"?>
<svg id="OBJECT" xmlns="http://www.w3.org/2000/svg" viewBox="0 0 32 32">
  <defs>
    <style>
      .cls-1 {
        fill: #FD4360;
      }

      .cls-1, .cls-2 {
        stroke-width: 0px;
      }

      .cls-2 {
        fill: #dadada;
      }
    </style>
  </defs>
  <g>
    <path class="cls-2" d="m9,15c-4.41,0-8,3.59-8,8s3.59,8,8,8,8-3.59,8-8-3.59-8-8-8Zm0,14c-3.31,0-6-2.69-6-6s2.69-6,6-6,6,2.69,6,6-2.69,6-6,6Z"/>
    <path class="cls-2" d="m8.3,21.21h2.79c.55,0,1-.45,1-1s-.45-1-1-1h-1.09v-.4c0-.55-.45-1-1-1s-1,.45-1,1v.43c-1.18.15-2.09,1.15-2.09,2.36,0,1.32,1.07,2.4,2.4,2.4h1.4c.22,0,.4.18.4.4s-.18.4-.4.4h-2.79c-.55,0-1,.45-1,1s.45,1,1,1h1.09v.4c0,.55.45,1,1,1s1-.45,1-1v-.43c1.18-.15,2.09-1.15,2.09-2.36,0-1.32-1.07-2.4-2.4-2.4h-1.4c-.22,0-.4-.18-.4-.4s.18-.4.4-.4Z"/>
  </g>
  <g>
    <path class="cls-1" d="m30,1c-.55,0-1,.45-1,1v.13l-2.91.42v6.45c0,.55-.45,1-1,1s-1-.45-1-1V2.83l-7.09,1.01v9.31l1,.14v3.2c0,1.38,1.12,2.5,2.5,2.5h2.51c1,0,1.9-.59,2.3-1.52l1.27-2.96,2.42.35v.13c0,.55.45,1,1,1s1-.45,1-1V2c0-.55-.45-1-1-1Zm-6.53,15.7c-.08.18-.26.3-.46.3h-2.51c-.28,0-.5-.22-.5-.5v-2.92l4.53.65-1.06,2.47Z"/>
    <path class="cls-1" d="m11,9.5c0,1.1.9,2,2,2h2v-6h-4v4Z"/>
  </g>
</svg>