<?xml version="1.0" encoding="UTF-8"?>
<svg id="OBJECT" xmlns="http://www.w3.org/2000/svg" viewBox="0 0 32 32">
  <defs>
    <style>
      .cls-1 {
        fill: #FD4360;
      }

      .cls-2 {
        fill: #dadada;
      }
    </style>
  </defs>
  <g>
    <path class="cls-2" d="m28.5,1h-2.5c-.23,0-.45.08-.62.22l-1.59,1.27c-2.71,2.17-5.76,3.75-9.06,4.71-.53.15-.83.71-.68,1.24.15.53.7.84,1.24.68,3.55-1.03,6.82-2.73,9.72-5.04v17.85c-2.9-2.32-6.17-4.01-9.72-5.04-.54-.15-1.09.15-1.24.68-.15.53.15,1.08.68,1.24,3.31.96,6.36,2.55,9.07,4.71l1.59,1.27c.18.14.4.22.62.22h2.5c1.38,0,2.5-1.12,2.5-2.5V3.5c0-1.38-1.12-2.5-2.5-2.5Zm.5,21.5c0,.28-.22.5-.5.5h-1.5V3h1.5c.28,0,.5.22.5.5v19Z"/>
    <path class="cls-2" d="m22,12c.55,0,1-.45,1-1v-1c0-.55-.45-1-1-1s-1,.45-1,1v1c0,.55.45,1,1,1Z"/>
    <path class="cls-2" d="m21,16c0,.55.45,1,1,1s1-.45,1-1v-1c0-.55-.45-1-1-1s-1,.45-1,1v1Z"/>
  </g>
  <g>
    <path class="cls-1" d="m11,6H2c-.55,0-1,.45-1,1v13h10c.55,0,1-.45,1-1V7c0-.55-.45-1-1-1Zm-3.5,10h-2c-.55,0-1-.45-1-1s.45-1,1-1h2c.55,0,1,.45,1,1s-.45,1-1,1Zm0-4h-2c-.55,0-1-.45-1-1s.45-1,1-1h2c.55,0,1,.45,1,1s-.45,1-1,1Z"/>
    <path class="cls-1" d="m1,29.5c0,.83.67,1.5,1.5,1.5h1c.83,0,1.5-.67,1.5-1.5v-7.5H1v7.5Z"/>
    <path class="cls-1" d="m7,25h2.5c.55,0,1-.45,1-1v-2h-3.5v3Z"/>
  </g>
</svg>