<?xml version="1.0" encoding="UTF-8"?>
<svg id="OBJECT" xmlns="http://www.w3.org/2000/svg" viewBox="0 0 512 512">
  <defs>
    <style>
      .cls-1 {
        fill: #FD4360;
      }

      .cls-2 {
        fill: #dadada;
      }
    </style>
  </defs>
  <g>
    <path class="cls-2" d="M149.7,399.41l5.85-3.38c10.39-6,13.96-19.33,7.97-29.73l-12.89-22.32,5.86-3.38c5.03-2.91,8.63-7.6,10.14-13.21,1.25-4.68,.9-9.52-.92-13.92,34.93-18.71,74.12-27.98,113.83-26.87l74.35,2.09,12.17,21.07c1.39,2.41,3.91,3.75,6.5,3.75,1.27,0,2.56-.32,3.74-1.01l20.58-11.88c5.03-2.91,8.63-7.6,10.14-13.21,1.5-5.61,.73-11.48-2.17-16.51l-36.66-63.49,22.32-12.89c10.39-6,13.96-19.33,7.97-29.73l-33.28-57.64c-2.91-5.03-7.6-8.63-13.21-10.14-5.61-1.51-11.48-.73-16.51,2.17l-22.32,12.89-36.66-63.49c-2.91-5.03-7.6-8.63-13.21-10.14-5.61-1.5-11.48-.73-16.51,2.17l-20.58,11.88c-1.72,.99-2.98,2.63-3.49,4.55-.51,1.92-.25,3.97,.75,5.69l12.17,21.07-35.37,65.43c-18.89,34.94-46.52,64.25-80.18,85.14-6.54-8.51-18.56-11.1-28.11-5.59l-57.64,33.28c-5.03,2.91-8.63,7.6-10.14,13.21-1.26,4.72-.9,9.61,.97,14.04l-14.25,8.23c-10.39,6-13.96,19.33-7.97,29.73l23.77,41.17c4.03,6.97,11.36,10.88,18.88,10.88,3.69,0,7.43-.94,10.84-2.91l14.09-8.13,67.56,117.01c.99,1.72,2.63,2.98,4.55,3.49,.64,.17,1.29,.26,1.94,.26,1.31,0,2.6-.34,3.75-1.01l20.58-11.88c10.39-6,13.96-19.33,7.97-29.73l-27.15-47.02Zm-1.65-16.37l-5.85,3.38-16.27-28.18,11.71-6.76,12.89,22.32c1.86,3.23,.75,7.37-2.47,9.24ZM342.97,112.17c3.23-1.86,7.37-.75,9.24,2.47l33.28,57.64c1.86,3.23,.75,7.37-2.47,9.24l-22.32,12.89-40.04-69.35,22.32-12.89Zm-88.71-58.57c1.56-.9,3.39-1.14,5.13-.68,1.74,.47,3.2,1.59,4.11,3.15l128.35,222.31c1.86,3.23,.75,7.37-2.47,9.24l-14.09,8.13L240.18,61.74l14.09-8.13Zm-40.84,102.78l4.44-8.21,35.71,61.85c1.39,2.41,3.91,3.75,6.5,3.75,1.27,0,2.56-.32,3.74-1.01,3.59-2.07,4.82-6.66,2.75-10.25l-40.32-69.84,18.17-33.61,100.67,174.36-65.13-1.83c-29.57-.83-58.87,3.74-86.54,13.37l-34.84-60.34c22.18-19.15,40.79-42.24,54.85-68.26Zm-66.66,77.81l32.46,56.23c-7.09,2.98-14.04,6.29-20.85,9.95l-30.65-53.09c6.57-4.07,12.92-8.43,19.04-13.08ZM48.91,363.43c-3.23,1.86-7.37,.75-9.24-2.47l-23.77-41.17c-1.86-3.23-.75-7.37,2.47-9.24l14.09-8.13,30.53,52.88-14.09,8.13Zm-9.58-79.13c-.9-1.56-1.14-3.39-.68-5.13,.47-1.74,1.59-3.2,3.15-4.11l57.64-33.28c1.04-.6,2.2-.91,3.37-.91,.59,0,1.18,.08,1.76,.23,1.74,.47,3.2,1.59,4.1,3.15l42.78,74.1c.9,1.56,1.14,3.39,.68,5.13-.47,1.74-1.59,3.2-3.15,4.11l-63.49,36.66-46.16-79.96Zm125.2,174.76c-.47,1.74-1.59,3.2-3.15,4.11l-14.09,8.13-54.3-94.05,19.94-11.51,50.92,88.19c.9,1.56,1.14,3.39,.68,5.13Z"/>
    <path class="cls-2" d="M267.83,234.72c1.39,2.41,3.91,3.75,6.5,3.75,1.27,0,2.56-.32,3.74-1.01,3.59-2.07,4.82-6.66,2.75-10.25l-2.38-4.12c-2.07-3.59-6.66-4.82-10.25-2.75-3.59,2.07-4.82,6.66-2.75,10.25l2.38,4.12Z"/>
    <path class="cls-2" d="M111.23,275.73c-2.07-3.59-6.66-4.82-10.25-2.75l-32.93,19.01c-3.59,2.07-4.82,6.66-2.75,10.25,1.39,2.41,3.91,3.75,6.5,3.75,1.27,0,2.56-.32,3.74-1.01l32.93-19.01c3.59-2.07,4.82-6.66,2.75-10.25Z"/>
    <path class="cls-2" d="M115.24,297.69l-32.93,19.01c-3.59,2.07-4.82,6.66-2.75,10.25,1.39,2.41,3.91,3.75,6.5,3.75,1.27,0,2.56-.32,3.74-1.01l32.93-19.01c3.59-2.07,4.82-6.66,2.75-10.25-2.07-3.59-6.66-4.82-10.25-2.75Z"/>
    <path class="cls-2" d="M391.01,112.59c-1.44,5.38-.7,11,2.08,15.82l.91,1.57c3.86,6.68,10.88,10.42,18.09,10.42,3.54,0,7.12-.9,10.39-2.79l50.98-29.43c4.82-2.78,8.27-7.28,9.72-12.66,1.44-5.38,.7-11-2.08-15.82l-.91-1.57c-5.75-9.96-18.53-13.38-28.49-7.63l-50.97,29.43c-4.82,2.79-8.28,7.28-9.72,12.66Zm14.49,3.88c.4-1.51,1.37-2.77,2.73-3.55l50.97-29.43c.92-.53,1.92-.78,2.92-.78,2.02,0,4,1.05,5.08,2.92l.91,1.57c.78,1.35,.99,2.93,.58,4.44-.4,1.51-1.37,2.77-2.73,3.55l-50.97,29.43c-2.8,1.61-6.38,.65-8-2.14l-.91-1.57c-.78-1.35-.99-2.93-.58-4.44Z"/>
    <path class="cls-2" d="M365.88,82.34c.57,.05,1.15,.07,1.72,.07,6.2,0,12.12-2.77,16.1-7.6l33.49-40.71h0c5.49-6.68,6.28-16.19,1.96-23.68-3.42-5.92-9.53-9.79-16.34-10.36-6.82-.56-13.48,2.25-17.82,7.53l-33.49,40.71c-5.49,6.68-6.28,16.19-1.96,23.68,3.42,5.92,9.53,9.79,16.34,10.36Zm-2.8-24.5l33.49-40.7c1.13-1.37,2.75-2.14,4.5-2.14,.17,0,.33,0,.5,.02,1.94,.16,3.61,1.22,4.59,2.91,1.21,2.1,.99,4.77-.55,6.64l-33.49,40.71c-1.24,1.51-3.07,2.27-5,2.11-1.94-.16-3.61-1.22-4.59-2.91-1.21-2.1-.99-4.77,.55-6.64Z"/>
    <path class="cls-2" d="M420.3,176.6c-2.92,6.18-2.62,13.41,.8,19.33,3.75,6.5,10.74,10.42,18.1,10.42,1.12,0,2.25-.09,3.38-.28l52-8.65c6.75-1.12,12.52-5.48,15.44-11.67,2.92-6.18,2.62-13.41-.8-19.33-4.32-7.49-12.95-11.56-21.48-10.14l-51.99,8.65c-6.74,1.12-12.52,5.48-15.43,11.67Zm69.89-5.52h0c.32-.05,.63-.08,.95-.08,2.06,0,4.03,1.1,5.08,2.93,.97,1.69,1.06,3.66,.22,5.43-.83,1.76-2.41,2.96-4.33,3.27l-52,8.65c-2.4,.4-4.82-.75-6.03-2.85-.97-1.69-1.06-3.66-.22-5.43,.83-1.76,2.41-2.95,4.33-3.27l51.99-8.65Z"/>
  </g>
  <path class="cls-1" d="M489.5,367h-173.93c-4.14,0-7.5-3.36-7.5-7.5s3.36-7.5,7.5-7.5h21.97c-12.65-27.26-34.01-44.38-61.67-48.9-2.57-.42-5.17,.53-6.88,2.49-1.71,1.97-2.27,4.68-1.49,7.16,.09,.29,8.35,27.17,2.27,54.25h-20.28c-12.41,0-22.5,10.09-22.5,22.5v100c0,12.41,10.09,22.5,22.5,22.5h240c12.41,0,22.5-10.09,22.5-22.5v-100c0-12.41-10.09-22.5-22.5-22.5Zm-225,30h10c4.14,0,7.5,3.36,7.5,7.5s-3.36,7.5-7.5,7.5h-10c-4.14,0-7.5-3.36-7.5-7.5s3.36-7.5,7.5-7.5Zm210,85h-210c-4.14,0-7.5-3.36-7.5-7.5s3.36-7.5,7.5-7.5h210c4.14,0,7.5,3.36,7.5,7.5s-3.36,7.5-7.5,7.5Zm0-35h-210c-4.14,0-7.5-3.36-7.5-7.5s3.36-7.5,7.5-7.5h210c4.14,0,7.5,3.36,7.5,7.5s-3.36,7.5-7.5,7.5Zm0-35h-170c-4.14,0-7.5-3.36-7.5-7.5s3.36-7.5,7.5-7.5h170c4.14,0,7.5,3.36,7.5,7.5s-3.36,7.5-7.5,7.5Z"/>
</svg>