<?xml version="1.0" encoding="UTF-8"?>
<svg id="OBJECT" xmlns="http://www.w3.org/2000/svg" viewBox="0 0 32 32">
  <defs>
    <style>
      .cls-1 {
        fill: #FD4360;
      }

      .cls-1, .cls-2 {
        stroke-width: 0px;
      }

      .cls-2 {
        fill: #dadada;
      }
    </style>
  </defs>
  <g>
    <path class="cls-2" d="m8.5,25c-.55,0-1,.45-1,1s.45,1,1,1h8c.55,0,1-.45,1-1s-.45-1-1-1h-8Z"/>
    <path class="cls-2" d="m20,7.67c.55,0,1-.45,1-1v-3.17c0-1.38-1.12-2.5-2.5-2.5H6.5c-1.38,0-2.5,1.12-2.5,2.5v25c0,1.38,1.12,2.5,2.5,2.5h12c1.38,0,2.5-1.12,2.5-2.5v-4c0-.55-.45-1-1-1s-1,.45-1,1v4c0,.28-.22.5-.5.5H6.5c-.28,0-.5-.22-.5-.5V3.5c0-.28.22-.5.5-.5h1.25l.48,1.69c.3,1.07,1.29,1.81,2.4,1.81h3.74c1.11,0,2.1-.75,2.4-1.81l.48-1.69h1.25c.28,0,.5.22.5.5v3.17c0,.55.45,1,1,1Zm-5.15-3.53c-.06.21-.26.36-.48.36h-3.74c-.22,0-.42-.15-.48-.36l-.33-1.14h5.35l-.33,1.14Z"/>
  </g>
  <g>
    <path class="cls-1" d="m27,6.5c-.55,0-1,.45-1,1v.15l-2.91.48v4.36c0,.55-.45,1-1,1s-1-.45-1-1v-4.03l-5.09.85v8.36l1,.17v2.15c0,1.38,1.12,2.5,2.5,2.5h.61c.91,0,1.75-.5,2.19-1.3l1.24-2.26,2.45.41v.15c0,.55.45,1,1,1s1-.45,1-1V7.5c0-.55-.45-1-1-1Zm-6.45,13.74c-.09.16-.26.26-.44.26h-.61c-.28,0-.5-.22-.5-.5v-1.82l2.46.41-.91,1.65Z"/>
    <rect class="cls-1" x="10" y="11" width="4" height="5"/>
  </g>
</svg>