<?xml version="1.0" encoding="UTF-8"?>
<svg id="OBJECT" xmlns="http://www.w3.org/2000/svg" viewBox="0 0 32 32">
  <defs>
    <style>
      .cls-1 {
        fill: #FD4360;
      }

      .cls-2 {
        fill: #dadada;
      }
    </style>
  </defs>
  <g>
    <path class="cls-2" d="M28.5,22h-3.07c-.12-.58-.34-1.37-.71-2.17l1.45,.07,.11,.31c.15,.41,.53,.66,.94,.66,.11,0,.23-.02,.34-.06,.52-.19,.79-.76,.6-1.28l-1.54-4.23,1.88-.68c1.56-.57,2.36-2.29,1.79-3.85l-1.37-3.76c-.27-.75-.83-1.35-1.55-1.69-.73-.34-1.54-.38-2.3-.1l-1.88,.68-1.19-3.26s-.01-.03-.02-.05l-.34-.92c-.19-.52-.76-.79-1.28-.6-.52,.19-.79,.76-.6,1.28l.12,.32-6.83,6.28c-.41,.37-.43,1.01-.06,1.41,.2,.21,.47,.32,.74,.32,.24,0,.48-.09,.68-.26l1.43-1.31,1.54,4.23c.15,.41,.53,.66,.94,.66,.11,0,.23-.02,.34-.06,.52-.19,.79-.76,.6-1.28l-1.83-5.02,3.19-2.94,4.79,13.16-2.21-.1s-.07-.07-.1-.1c-1.03-.87-2.3-1.25-3.76-1.12-.32,.03-.6,.2-.77,.48-.1,.16-.13,.34-.13,.53l-1.46-.07c-.54-.02-1.02,.4-1.04,.95-.03,.55,.4,1.02,.95,1.04l2.04,.09c.12,.78,.15,1.69-.18,2.44h-.27c-1.38,0-2.5,1.12-2.5,2.5v4c0,1.38,1.12,2.5,2.5,2.5h10c1.38,0,2.5-1.12,2.5-2.5v-4c0-1.38-1.12-2.5-2.5-2.5Zm-4.61-14.23l1.88-.68c.25-.09,.52-.08,.77,.03,.24,.11,.43,.31,.52,.57l1.37,3.76c.19,.52-.08,1.09-.6,1.28l-1.88,.68-2.05-5.64Zm5.11,20.73c0,.28-.22,.5-.5,.5h-10c-.28,0-.5-.22-.5-.5v-4c0-.28,.22-.5,.5-.5h.84c.32,0,.62-.15,.81-.41,1.12-1.54,.97-3.57,.67-4.94,1.59,.5,2.27,2.2,2.56,3.35h-.04c-.55,0-1,.45-1,1s.45,1,1,1h5.16c.28,0,.5,.22,.5,.5v4Z"/>
    <path class="cls-2" d="M20.75,25.5h-.5c-.55,0-1,.45-1,1s.45,1,1,1h.5c.55,0,1-.45,1-1s-.45-1-1-1Z"/>
    <path class="cls-2" d="M26.75,25.5h-2.5c-.55,0-1,.45-1,1s.45,1,1,1h2.5c.55,0,1-.45,1-1s-.45-1-1-1Z"/>
  </g>
  <g>
    <path class="cls-1" d="M13.63,26.41l-1.71-4.7-5.64,2.05,2.4,6.58c.09,.25,.28,.45,.52,.56,.13,.06,.28,.09,.42,.09,.12,0,.23-.02,.34-.06l1.88-.68c.75-.27,1.35-.83,1.69-1.55,.34-.73,.37-1.54,.1-2.3Z"/>
    <path class="cls-1" d="M10.12,9.74L1.66,12.82c-.25,.09-.45,.28-.56,.52-.11,.24-.12,.52-.03,.76l3.08,8.46,9.4-3.42-3.42-9.4Zm-5.73,5.94c-.19-.52,.08-1.09,.6-1.28l3.76-1.37c.52-.19,1.09,.08,1.28,.6,.19,.52-.08,1.09-.6,1.28l-3.76,1.37c-.11,.04-.23,.06-.34,.06-.41,0-.79-.25-.94-.66Zm6.24,2.52l-3.76,1.37c-.11,.04-.23,.06-.34,.06-.41,0-.79-.25-.94-.66-.19-.52,.08-1.09,.6-1.28l3.76-1.37c.52-.19,1.09,.08,1.28,.6,.19,.52-.08,1.09-.6,1.28Z"/>
  </g>
</svg>