<?xml version="1.0" encoding="UTF-8"?>
<svg id="OBJECT" xmlns="http://www.w3.org/2000/svg" viewBox="0 0 512 512">
  <defs>
    <style>
      .cls-1 {
        fill: #FD4360;
      }

      .cls-2 {
        fill: #dadada;
      }
    </style>
  </defs>
  <g>
    <path class="cls-2" d="M276.35,213.19l-1.95,.89c-3.77,1.72-5.42,6.17-3.7,9.94,1.26,2.75,3.98,4.38,6.82,4.38,1.04,0,2.11-.22,3.12-.68l1.95-.89c3.77-1.72,5.42-6.17,3.7-9.94-1.72-3.77-6.18-5.42-9.94-3.7Z"/>
    <path class="cls-2" d="M249.49,225.48l-36.25,16.59c-3.77,1.72-5.42,6.17-3.7,9.94,1.26,2.75,3.98,4.38,6.82,4.38,1.04,0,2.11-.22,3.12-.68l36.25-16.59c3.77-1.72,5.42-6.17,3.7-9.94-1.72-3.77-6.18-5.42-9.94-3.7Z"/>
    <path class="cls-2" d="M139.47,233.15h-57.38c-4.14,0-7.5,3.36-7.5,7.5s3.36,7.5,7.5,7.5h57.38c4.14,0,7.5-3.36,7.5-7.5s-3.36-7.5-7.5-7.5Z"/>
    <path class="cls-2" d="M139.47,267.57h-57.38c-4.14,0-7.5,3.36-7.5,7.5s3.36,7.5,7.5,7.5h57.38c4.14,0,7.5-3.36,7.5-7.5s-3.36-7.5-7.5-7.5Z"/>
    <path class="cls-2" d="M139.47,302h-57.38c-4.14,0-7.5,3.36-7.5,7.5s3.36,7.5,7.5,7.5h57.38c4.14,0,7.5-3.36,7.5-7.5s-3.36-7.5-7.5-7.5Z"/>
    <path class="cls-2" d="M350.53,127h-30.9c-4.14,0-7.5,3.36-7.5,7.5v18.14l-130.85,59.9c-1.16-12.55-11.75-22.42-24.6-22.42H64.88c-13.63,0-24.71,11.09-24.71,24.71v9.71H7.5c-4.14,0-7.5,3.36-7.5,7.5v86.07c0,4.14,3.36,7.5,7.5,7.5H40.16v26.28l-22.84,131.33c-.38,2.18,.22,4.42,1.65,6.11,1.43,1.69,3.53,2.67,5.74,2.67H57.32c11.24,0,21.08-7.6,23.91-18.48l16.14-61.85h19.15c13.63,0,24.71-11.09,24.71-24.71v-26.93h15.45c9.72,0,18.14-5.64,22.18-13.82l95.99,37.18c.89,.34,1.81,.51,2.71,.51,3.01,0,5.84-1.82,7-4.79,1.5-3.86-.42-8.21-4.29-9.7l-98.88-38.3v-102.13l130.74-59.84v136.97c0,4.14,3.36,7.5,7.5,7.5s7.5-3.36,7.5-7.5V142h23.4c4.14,0,7.5,3.36,7.5,7.5v130.97c0,4.14,3.36,7.5,7.5,7.5s7.5-3.36,7.5-7.5V149.5c0-12.41-10.09-22.5-22.5-22.5ZM15,310.61v-71.07h25.16v71.07H15Zm51.71,159.13c-1.12,4.28-4.98,7.26-9.4,7.26h-23.69l20.34-116.97h41.36l-28.62,109.71Zm59.52-82.78c0,5.36-4.36,9.71-9.71,9.71h-15.24l9.56-36.64h15.39v26.93Zm40.16-51.64c0,5.36-4.36,9.71-9.71,9.71H55.16V214.83c0-5.36,4.36-9.71,9.71-9.71h91.8c5.36,0,9.71,4.36,9.71,9.71v120.49Z"/>
    <path class="cls-2" d="M22.5,175H222.5c12.41,0,22.5-10.09,22.5-22.5v-36.71c23.88,6.02,42.14,22.65,42.46,22.95,2.2,2.05,5.41,2.58,8.16,1.35,2.75-1.23,4.5-3.98,4.44-6.99-1.01-53.52-29.37-76.27-55.06-85.88V22.5c0-12.41-10.09-22.5-22.5-22.5H22.5C10.09,0,0,10.09,0,22.5V152.5c0,12.41,10.09,22.5,22.5,22.5ZM15,22.5c0-4.14,3.36-7.5,7.5-7.5H222.5c4.14,0,7.5,3.36,7.5,7.5v50.07c0,4.14,3.36,7.5,7.5,7.5s7.5-3.36,7.5-7.5v-9.14c21.65,9.86,34.61,27.84,38.69,53.65-10.73-7.06-26.8-15.42-45.23-17.79-2.14-.28-4.29,.38-5.91,1.81-1.62,1.42-2.55,3.48-2.55,5.63v45.77c0,4.14-3.36,7.5-7.5,7.5H22.5c-4.14,0-7.5-3.36-7.5-7.5V22.5Z"/>
    <path class="cls-2" d="M42.5,80H202.5c4.14,0,7.5-3.36,7.5-7.5s-3.36-7.5-7.5-7.5H42.5c-4.14,0-7.5,3.36-7.5,7.5s3.36,7.5,7.5,7.5Z"/>
    <path class="cls-2" d="M42.5,140H202.5c4.14,0,7.5-3.36,7.5-7.5s-3.36-7.5-7.5-7.5H42.5c-4.14,0-7.5,3.36-7.5,7.5s3.36,7.5,7.5,7.5Z"/>
    <path class="cls-2" d="M82.5,50h120c4.14,0,7.5-3.36,7.5-7.5s-3.36-7.5-7.5-7.5H82.5c-4.14,0-7.5,3.36-7.5,7.5s3.36,7.5,7.5,7.5Z"/>
    <path class="cls-2" d="M42.5,50h10c4.14,0,7.5-3.36,7.5-7.5s-3.36-7.5-7.5-7.5h-10c-4.14,0-7.5,3.36-7.5,7.5s3.36,7.5,7.5,7.5Z"/>
    <path class="cls-2" d="M42.5,110h120c4.14,0,7.5-3.36,7.5-7.5s-3.36-7.5-7.5-7.5H42.5c-4.14,0-7.5,3.36-7.5,7.5s3.36,7.5,7.5,7.5Z"/>
    <path class="cls-2" d="M202.5,95h-10c-4.14,0-7.5,3.36-7.5,7.5s3.36,7.5,7.5,7.5h10c4.14,0,7.5-3.36,7.5-7.5s-3.36-7.5-7.5-7.5Z"/>
  </g>
  <g>
    <path class="cls-1" d="M427.84,404.99c-6.7,4.42-14.73,7.01-23.34,7.01s-16.64-2.58-23.34-7.01c-30.86,8.04-55.02,31.72-64.64,61.21,19.47,27.68,51.65,45.8,87.98,45.8s68.51-18.12,87.98-45.8c-9.61-29.49-33.78-53.17-64.64-61.21Z"/>
    <path class="cls-1" d="M404.5,297c-59.28,0-107.5,48.22-107.5,107.5,0,16.06,3.55,31.31,9.89,45.01,3.73-8.1,8.45-15.75,14.11-22.72,12.61-15.53,29.39-27.24,48.1-33.79-4.49-6.74-7.11-14.82-7.11-23.5,0-23.43,19.07-42.5,42.5-42.5s42.5,19.07,42.5,42.5c0,8.68-2.62,16.76-7.11,23.5,18.71,6.55,35.49,18.26,48.1,33.79,5.67,6.98,10.39,14.63,14.11,22.72,6.34-13.7,9.89-28.95,9.89-45.01,0-59.28-48.22-107.5-107.5-107.5Z"/>
    <circle class="cls-1" cx="404.5" cy="369.5" r="27.5"/>
  </g>
</svg>