<?xml version="1.0" encoding="UTF-8"?>
<svg id="OBJECT" xmlns="http://www.w3.org/2000/svg" viewBox="0 0 32 32">
  <defs>
    <style>
      .cls-1 {
        fill: #FD4360;
      }

      .cls-1, .cls-2 {
        stroke-width: 0px;
      }

      .cls-2 {
        fill: #dadada;
      }
    </style>
  </defs>
  <path class="cls-2" d="m10.5,12c-5.24,0-9.5,4.26-9.5,9.5s4.26,9.5,9.5,9.5,9.5-4.26,9.5-9.5-4.26-9.5-9.5-9.5Zm6.43,5.67h-2.28c-.13-.98-.31-1.89-.53-2.72,1.16.64,2.12,1.59,2.8,2.72Zm1.07,3.83c0,.63-.09,1.25-.24,1.83h-2.92c.04-.6.06-1.21.06-1.83s-.02-1.23-.06-1.83h2.92c.15.59.24,1.2.24,1.83Zm-15,0c0-.63.09-1.25.24-1.83h2.92c-.04.6-.06,1.21-.06,1.83s.02,1.23.06,1.83h-2.92c-.15-.59-.24-1.2-.24-1.83Zm5.1,0c0-.62.02-1.23.06-1.83h4.68c.04.6.06,1.21.06,1.83s-.02,1.23-.06,1.83h-4.68c-.04-.6-.06-1.21-.06-1.83Zm3.67-7.38c.38.97.67,2.18.87,3.55h-4.27c.19-1.37.49-2.58.87-3.55.41-.07.83-.12,1.27-.12s.85.04,1.27.12Zm-4.9.83c-.22.83-.4,1.75-.53,2.72h-2.28c.68-1.14,1.64-2.08,2.8-2.72Zm-2.8,10.39h2.28c.13.98.31,1.89.53,2.72-1.16-.64-2.12-1.59-2.8-2.72Zm5.17,3.55c-.38-.97-.67-2.18-.87-3.55h4.27c-.19,1.37-.49,2.58-.87,3.55-.41.07-.83.12-1.27.12s-.85-.04-1.27-.12Zm4.9-.83c.22-.83.4-1.75.53-2.72h2.28c-.68,1.14-1.64,2.08-2.8,2.72Z"/>
  <g>
    <path class="cls-1" d="m30,1c-.55,0-1,.45-1,1v.17l-2.91.53v3.31c0,.55-.45,1-1,1s-1-.45-1-1v-2.94l-4.09.74v8.4l1,.18v2.12c0,1.38,1.12,2.5,2.5,2.5h.61c.91,0,1.75-.5,2.19-1.3l1.18-2.14,1.52.28v.17c0,.55.45,1,1,1s1-.45,1-1V2c0-.55-.45-1-1-1Zm-5.45,13.74c-.09.16-.26.26-.44.26h-.61c-.28,0-.5-.22-.5-.5v-1.76l2.41.44-.85,1.56Z"/>
    <path class="cls-1" d="m14,8.5c0,1.1.9,2,2,2h2v-5h-4v3Z"/>
  </g>
</svg>