<?xml version="1.0" encoding="UTF-8"?>
<svg id="OBJECT" xmlns="http://www.w3.org/2000/svg" viewBox="0 0 512 512">
  <defs>
    <style>
      .cls-1 {
        fill: #FD4360;
      }

      .cls-2 {
        fill: #dadada;
      }
    </style>
  </defs>
  <g>
    <path class="cls-2" d="M335,380.06c0-9.99-4.57-18.94-11.73-24.89,7.17-5.95,11.73-14.9,11.73-24.89,0-17.86-14.59-32.39-32.53-32.39h-24.48v-70.4c0-4.14-3.36-7.5-7.5-7.5s-7.5,3.36-7.5,7.5v70.4h-35v-70.4c0-4.14-3.36-7.5-7.5-7.5s-7.5,3.36-7.5,7.5v14.5h-5.97c-26.19,0-47.5,21.31-47.5,47.5v8.4h-39.04c-5.37,0-10.59,1.56-15.08,4.5l-20.4,13.38v-1.28c0-9.65-7.85-17.5-17.5-17.5H17.5c-9.65,0-17.5,7.85-17.5,17.5v180c0,9.65,7.85,17.5,17.5,17.5h50c8.46,0,15.53-6.03,17.15-14.01l25.18,11.52c3.62,1.65,7.46,2.49,11.44,2.49h181.2c17.94,0,32.53-14.53,32.53-32.39,0-9.99-4.57-18.94-11.73-24.89,7.17-5.95,11.73-14.9,11.73-24.89s-4.57-18.94-11.73-24.89c7.17-5.95,11.73-14.9,11.73-24.89ZM17.5,312h50c1.38,0,2.5,1.12,2.5,2.5v72.63c-7.42-6.31-17.02-10.13-27.5-10.13s-20.08,3.82-27.5,10.13v-72.63c0-1.38,1.12-2.5,2.5-2.5Zm52.5,182.5c0,1.38-1.12,2.5-2.5,2.5H17.5c-1.38,0-2.5-1.12-2.5-2.5v-75c0-15.16,12.34-27.5,27.5-27.5s27.5,12.34,27.5,27.5v75Zm232.47-146.83h-40.52c-4.14,0-7.5,3.36-7.5,7.5s3.36,7.5,7.5,7.5h40.52c9.67,0,17.53,7.8,17.53,17.39s-7.86,17.39-17.53,17.39h-40.52c-4.14,0-7.5,3.36-7.5,7.5s3.36,7.5,7.5,7.5h40.52c9.67,0,17.53,7.8,17.53,17.39s-7.86,17.39-17.53,17.39h-40.52c-4.14,0-7.5,3.36-7.5,7.5s3.36,7.5,7.5,7.5h40.52c9.67,0,17.53,7.8,17.53,17.39s-7.86,17.39-17.53,17.39H121.27c-1.81,0-3.56-.38-5.2-1.13l-31.07-14.21v-147.94l28.62-18.77c2.04-1.34,4.41-2.05,6.86-2.05h46.54c4.14,0,7.5-3.36,7.5-7.5v-15.9c0-17.92,14.58-32.5,32.5-32.5h5.97v48.4c0,4.14,3.36,7.5,7.5,7.5h81.98c9.67,0,17.53,7.8,17.53,17.39s-7.86,17.39-17.53,17.39Z"/>
    <path class="cls-2" d="M47.5,407h-10c-4.14,0-7.5,3.36-7.5,7.5s3.36,7.5,7.5,7.5h10c4.14,0,7.5-3.36,7.5-7.5s-3.36-7.5-7.5-7.5Z"/>
  </g>
  <g>
    <path class="cls-1" d="M285.49,70h-80c-9.65,0-17.5,7.85-17.5,17.5v100c0,9.65,7.85,17.5,17.5,17.5h80c9.65,0,17.5-7.85,17.5-17.5V87.5c0-9.65-7.85-17.5-17.5-17.5Zm-12.5,87.5c0,9.65-7.85,17.5-17.5,17.5h-20c-9.65,0-17.5-7.85-17.5-17.5v-40c0-9.65,7.85-17.5,17.5-17.5h20c9.65,0,17.5,7.85,17.5,17.5v40Z"/>
    <path class="cls-1" d="M255.49,115h-20c-1.38,0-2.5,1.12-2.5,2.5v12.5h25v-12.5c0-1.38-1.12-2.5-2.5-2.5Z"/>
    <path class="cls-1" d="M232.99,157.5c0,1.38,1.12,2.5,2.5,2.5h20c1.38,0,2.5-1.12,2.5-2.5v-12.5h-25v12.5Z"/>
    <path class="cls-1" d="M497,0h-25V275h25c8.28,0,15-6.72,15-15V15c0-8.28-6.72-15-15-15Z"/>
    <path class="cls-1" d="M137.99,110v55c0,8.28,6.72,15,15,15h20V95h-20c-8.28,0-15,6.72-15,15Z"/>
    <polygon class="cls-1" points="317.99 200.69 417 244.63 417 30.37 317.99 74.31 317.99 200.69"/>
    <polygon class="cls-1" points="432 251.28 457 262.38 457 12.62 432 23.72 432 251.28"/>
  </g>
</svg>