<?xml version="1.0" encoding="UTF-8" standalone="no"?>
<svg
   id="OBJECT"
   viewBox="0 0 32 32"
   version="1.1"
   sodipodi:docname="Matriz_BCG_2.svg"
   inkscape:version="1.2.2 (732a01da63, 2022-12-09)"
   xml:space="preserve"
   xmlns:inkscape="http://www.inkscape.org/namespaces/inkscape"
   xmlns:sodipodi="http://sodipodi.sourceforge.net/DTD/sodipodi-0.dtd"
   xmlns="http://www.w3.org/2000/svg"
   xmlns:svg="http://www.w3.org/2000/svg"><sodipodi:namedview
     id="namedview33"
     pagecolor="#505050"
     bordercolor="#ffffff"
     borderopacity="1"
     inkscape:showpageshadow="0"
     inkscape:pageopacity="0"
     inkscape:pagecheckerboard="1"
     inkscape:deskcolor="#505050"
     showgrid="false"
     inkscape:zoom="8.0000004"
     inkscape:cx="-16.562499"
     inkscape:cy="14.874999"
     inkscape:window-width="1920"
     inkscape:window-height="1009"
     inkscape:window-x="-8"
     inkscape:window-y="-8"
     inkscape:window-maximized="1"
     inkscape:current-layer="OBJECT"
     showguides="false" /><defs
     id="defs4"><rect
       x="-201.49999"
       y="6.4999997"
       width="104.5"
       height="100.5"
       id="rect531" /><rect
       x="133"
       y="-140"
       width="147"
       height="84"
       id="rect1426" /><rect
       x="-166.52352"
       y="26.6345"
       width="20.612787"
       height="21.770809"
       id="rect1187" /><rect
       x="-733.72257"
       y="-443.44512"
       width="248.89747"
       height="162.43185"
       id="rect1018" /><rect
       x="-21.453739"
       y="9.2802434"
       width="25.329605"
       height="24.45617"
       id="rect348" /><style
       id="style2">
      .cls-1 {
        fill: #FD4360;
      }

      .cls-1, .cls-2 {
        stroke-width: 0px;
      }

      .cls-2 {
        fill: #dadada;
      }
    </style><rect
       x="-733.72257"
       y="-443.44512"
       width="248.89747"
       height="162.43185"
       id="rect1078" /><rect
       x="-733.72257"
       y="-443.44512"
       width="248.89747"
       height="162.43185"
       id="rect1876" /><rect
       x="-733.72257"
       y="-443.44512"
       width="248.89747"
       height="162.43185"
       id="rect1882" /><rect
       x="-166.52352"
       y="26.6345"
       width="20.612787"
       height="21.770809"
       id="rect2129" /><rect
       x="-166.52352"
       y="26.6345"
       width="20.612787"
       height="21.770809"
       id="rect4810" /><rect
       x="-166.52352"
       y="26.6345"
       width="20.612787"
       height="21.770809"
       id="rect4920" /><rect
       x="133"
       y="-140"
       width="147"
       height="84"
       id="rect1536" /><rect
       x="133"
       y="-140"
       width="147"
       height="84"
       id="rect1615" /><rect
       x="133"
       y="-140"
       width="147"
       height="84"
       id="rect2474" /></defs><g
     id="g4061"
     transform="matrix(0.11514963,0,0,0.11514963,-7.4563994,17.000057)"><path
       style="fill:#fd435f;stroke-width:2.568;stroke-opacity:0.976471"
       d="m 228.74999,49.874998 c -0.125,-1.75 1.54584,-4.929525 2.47392,-5.283079 0.92807,-0.353553 3.53553,-1.281631 6.45235,-4.110058 2.91681,-2.828427 16.19023,-17.007173 16.19023,-17.007173 0,0 3.38778,-0.40533 8.51431,0.03661 5.12652,0.441942 7.68978,-0.22097 11.13693,5.038136 3.44714,5.259106 5.83363,8.087533 12.9047,9.943689 7.07107,1.856155 6.14299,4.684582 6.14299,4.684582 0,0 0.0884,3.270369 -4.72878,6.805902 -4.81716,3.535534 -9.14819,3.712311 -9.98788,3.712311 -0.83969,0 -12.46276,-0.08839 -12.46276,-0.08839 0,0 -3.66811,-0.839689 -6.31976,3.668117 -2.65165,4.507805 -2.47488,6.010407 -2.74004,6.496543 -0.26517,0.486136 0.22097,7.026873 -5.25911,3.756505 -5.48008,-3.270369 -22.3171,-17.653697 -22.3171,-17.653697 z"
       id="path379"
       sodipodi:nodetypes="ssscssscsscssscs" /><path
       style="fill:#fd435f;stroke-width:2.568;stroke-opacity:0.976471"
       d="m 117.91005,-71.241005 19.09188,-2.474874 7.77818,-17.500892 7.24784,17.677669 17.85445,2.298097 -12.37437,13.081475 2.82843,16.793785 -13.43503,-6.187184 -6.01041,0.176777 -12.55115,8.131727 2.65166,-20.859649 z"
       id="path375" /><text
       xml:space="preserve"
       id="text529"
       style="font-size:14.6667px;font-family:Verdana;-inkscape-font-specification:Verdana;text-align:justify;white-space:pre;shape-inside:url(#rect531);fill:#fd435f;stroke-width:2.568;stroke-opacity:0.976471"
       transform="matrix(4.9528306,0,0,4.9528306,1234.7971,-135.58573)"><tspan
         x="-201.5"
         y="19.880875"
         id="tspan4098">?</tspan></text><path
       style="fill:#fd435f;stroke-width:2.568;stroke-opacity:0.976471"
       d="m 125.49999,24.624999 c 0,0 -4.4375,0.0625 -4.8125,-0.1875 -0.375,-0.25 -6.625,-0.3125 -7.625,0.1875 -1,0.5 0.125,2.125 0.5625,2.75 0.4375,0.625 3.8125,4.5625 4.6875,4.875 0.875,0.3125 3.875,0.75 4.875,0.75 1,0 1.5625,0.437499 1.5625,1.062499 0,0.625 0.125,3 -0.0625,3.4375 -0.1875,0.4375 -1.0625,1.875 -1.0625,2.1875 0,0.3125 -0.0625,7.1875 0.25,8.1875 0.3125,1 2.5625,4.0625 3,4.75 0.4375,0.6875 1.5625,3.374999 1.75,4.249999 0.1875,0.875 2.25,9.75 2.4375,11.0625 0.1875,1.3125 0.75,3.25 1.1875,2.75 0.4375,-0.5 0.375,-2.125 1.75,-2.5 1.375,-0.375 2.75,-0.125 3.3125,-1.25 0.5625,-1.125 1.4375,-6.8125 1.6875,-7.75 0.25,-0.9375 0.5625,-6.874999 -1.375,-11.062499 -1.9375,-4.1875 -5.625,-6.625 -6.4375,-7.75 -0.8125,-1.125 -3.25,-4.9375 -1.375,-8.187499 1.875,-3.25 5.875,-6.75 8.6875,-6.75 2.8125,0 11.8125,-0.125 14.375,0.9375 2.5625,1.0625 5.4375,2.625 6.0625,5 0.625,2.374999 1.5,6.187499 0.1875,7.749999 -1.3125,1.5625 -4.125,5.5625 -5.5,6.125 -1.375,0.5625 -2.8125,2.25 -3.375,4.4375 -0.5625,2.1875 -0.25,7.437499 0.125,9.749999 0.375,2.3125 1.5,7.25 1.4375,7.875 -0.0625,0.625 0.875,0.6875 1.375,0.9375 0.5,0.25 3,0.875 3.3125,1.5625 0.3125,0.6875 0.9375,2.875 1.25,0.875 0.3125,-2 -0.875,-3.75 0.0625,-5.0625 0.9375,-1.3125 1.0625,-2.875 1.25,-4.25 0.1875,-1.375 -2.5625,2.625 1.6875,-4.5625 4.25,-7.187499 4.6875,-13.374999 4.75,-14.749999 0.0625,-1.375 -0.4375,-3.8125 -0.8125,-5.4375 -0.375,-1.625 -0.625,-1.625 -0.625,-1.625 0,0 -1.125,-1.874999 -0.3125,-2.249999 0.8125,-0.375 3.75,0 5.375,-0.375 1.625,-0.375 2.75,-0.4375 3.5625,-0.6875 0.8125,-0.25 1.4375,-2.625 2.6875,-3.5 1.25,-0.875 3.5625,-1.625 -0.625,-3.8125 -4.1875,-2.1875 -8.77878,0.948261 -9.15443,1.102941 -0.37565,0.15468 -4.75087,0.220971 -4.75087,0.220971 0,0 -0.26517,-2.762136 -0.0442,-2.96101 0.22098,-0.198873 0.90598,-0.154679 1.50261,-0.419844 0.59662,-0.265165 3.32189,-4.755558 4.19689,-6.880558 0.875,-2.125 0.3125,-6.9999994 0.3125,-6.9999994 0,0 -0.625,-1.4999999 -0.9375,0.6875 -0.3125,2.1874994 0,4.9374994 -0.5625,6.0624994 -0.5625,1.125 0.125,1.375 -2.875,2.875 -3,1.5 -2.5625,1.375 -3.6875,1.375 -1.125,0 -27.5625,0.0625 -28.6875,0.0625 -1.125,0 -1.71875,-1.0625 -1.71875,-1.0625 l -2.5625,-0.03125 c 0,0 -0.65625,-0.75 -1.25,-2.1875 -0.59375,-1.4375 -1.375,-5.031249 -1.28125,-5.843749 0.0937,-0.8125004 -0.34375,-1.6562504 -0.34375,-1.6562504 0,0 -1,-2.1562499 -0.96875,0.03125 0.0312,2.1875004 0.46875,4.8124994 0.5625,5.8749994 0.0937,1.0625 -0.15625,2.5625 0.15625,2.84375 0.3125,0.28125 1.5,0.5 1.8125,1.09375 0.3125,0.59375 0.21875,1.84375 0.28125,2.21875 0.0625,0.375 0.0937,0.65625 0.84375,0.625 0.75,-0.03125 0.28125,3.28125 0.28125,3.28125 z"
       id="path535" /><path
       style="fill:#fd435f;stroke-width:2.568;stroke-opacity:0.976471"
       d="m 137.15661,80.521781 c 0,0 -0.39775,-0.08839 -0.39775,-0.287262 0,-0.198874 0.26517,-0.419845 0.41985,-0.419845 0.15468,0 14.51778,0.0442 14.51778,0.0442 0,0 1.23744,0.729203 -0.0884,0.707106 -1.32583,-0.0221 -3.8228,0.0221 -3.8228,0.0221 0,0 0.39775,0.729204 -0.7513,0.817593 -1.14905,0.08839 -5.01604,0 -5.01604,0 0,0 -0.33145,-0.06629 -0.33145,-0.353554 0,-0.287262 -0.33146,-0.640815 -0.33146,-0.640815 z"
       id="path537" /><circle
       style="fill:#fd435f;stroke-width:2.568;stroke-opacity:0.976471"
       id="path591"
       cx="136.16225"
       cy="73.229744"
       r="1.6351844" /><circle
       style="fill:#fd435f;stroke-width:2.568;stroke-opacity:0.976471"
       id="circle593"
       cx="152.51408"
       cy="73.052971"
       r="1.6351844" /><g
       id="g3513"
       style="fill:#dadada;fill-opacity:1"><path
         style="fill:#dadada;fill-opacity:1;stroke:none;stroke-width:0.0532561;stroke-dasharray:none;stroke-opacity:1"
         d="m 78.169822,-119.317 7.084494,-13.75513 7.315599,13.89411 -4.469435,-3.52802 -5.633994,0.0102 z"
         id="path3451" /><path
         style="fill:#dadada;fill-opacity:1;stroke:none;stroke-width:0.368;stroke-dasharray:none;stroke-opacity:1"
         d="m 84.499257,-124.00885 -0.08839,230.25164 1.90035,-0.0221 0.353553,-231.02503 z"
         id="path3509" /></g><g
       id="g3519"
       transform="rotate(90,85.311428,105.33123)"
       style="fill:#dadada;fill-opacity:1"><path
         style="fill:#dadada;fill-opacity:1;stroke:none;stroke-width:0.0532561;stroke-dasharray:none;stroke-opacity:1"
         d="m 78.169822,-119.317 7.084494,-13.75513 7.315599,13.89411 -4.469435,-3.52802 -5.633994,0.0102 z"
         id="path3515" /><path
         style="fill:#dadada;fill-opacity:1;stroke:none;stroke-width:0.368;stroke-dasharray:none;stroke-opacity:1"
         d="m 84.499257,-124.00885 -0.08839,230.25164 1.90035,-0.0221 0.353553,-231.02503 z"
         id="path3517" /></g><rect
       style="fill:#dadada;fill-opacity:1;stroke:none;stroke-width:0.311739;stroke-dasharray:none;stroke-opacity:1"
       id="rect4041"
       width="205.55423"
       height="1.9445436"
       x="95.464302"
       y="-9.7119942" /><rect
       style="fill:#dadada;fill-opacity:1;stroke:none;stroke-width:0.311739;stroke-dasharray:none;stroke-opacity:1"
       id="rect4043"
       width="205.55423"
       height="1.9445436"
       x="-111.51684"
       y="-199.21368"
       transform="rotate(90)" /></g></svg>
