<?xml version="1.0" encoding="UTF-8"?>
<svg id="OBJECT" xmlns="http://www.w3.org/2000/svg" viewBox="0 0 32 32">
  <defs>
    <style>
      .cls-1 {
        fill: #FD4360;
      }

      .cls-1, .cls-2 {
        stroke-width: 0px;
      }

      .cls-2 {
        fill: #dadada;
      }
    </style>
  </defs>
  <path class="cls-2" d="m22.79,22.38c-.19-.24-.48-.38-.79-.38h-.05c-.4-4.03-3.2-7.36-6.95-8.54v-1.46c0-1.65-1.35-3-3-3s-3,1.35-3,3v1.46c-3.75,1.18-6.55,4.51-6.95,8.54h-.05c-.31,0-.6.14-.79.38-.19.24-.26.56-.18.86l.62,2.49c.33,1.34,1.53,2.27,2.91,2.27h14.88c1.38,0,2.58-.93,2.91-2.27l.62-2.49c.07-.3,0-.62-.18-.86Zm-11.79-10.38c0-.55.45-1,1-1s1,.45,1,1v1.05c-.33-.03-.66-.05-1-.05s-.67.02-1,.05v-1.05Zm1,3c4.07,0,7.44,3.06,7.93,7H4.07c.49-3.94,3.86-7,7.93-7Zm8.41,10.24c-.11.45-.51.76-.97.76H4.56c-.46,0-.86-.31-.97-.76l-.31-1.24h17.44l-.31,1.24Z"/>
  <g>
    <path class="cls-1" d="m30.72,4.31c-.19-.2-.45-.31-.72-.31h-12c-.27,0-.53.11-.72.31-.19.2-.29.46-.28.74l.2,4.4c2.07.35,4.61.34,6.95-.87,2.43-1.27,4.8-1.58,6.76-1.5l.09-2.02c.01-.27-.09-.54-.28-.74Z"/>
    <path class="cls-1" d="m25.07,10.34c-1.87.98-3.82,1.32-5.61,1.32-.75,0-1.48-.06-2.17-.16l.04.77c2.9,1.44,5.13,4,6.12,7.13l.39,1.23c.19.15.37.32.53.52.57.73.77,1.67.54,2.57l-.62,2.49c-.17.67-.48,1.26-.87,1.79h5.58c.53,0,.97-.42,1-.96l.82-17.97c-1.68-.07-3.69.19-5.74,1.26Zm2.85,6.06c-.03.53-.47.94-1,.94-.02,0-.04,0-.06,0-.55-.03-.97-.51-.94-1.06l.12-2.08c.03-.55.51-.98,1.06-.94.55.03.97.51.94,1.06l-.12,2.08Z"/>
  </g>
</svg>