<?xml version="1.0" encoding="UTF-8"?>
<svg id="OBJECT" xmlns="http://www.w3.org/2000/svg" viewBox="0 0 32 32">
  <defs>
    <style>
      .cls-1 {
        fill: #FD4360;
      }

      .cls-1, .cls-2 {
        stroke-width: 0px;
      }

      .cls-2 {
        fill: #dadada;
      }
    </style>
  </defs>
  <g>
    <path class="cls-2" d="m16,1c-6.62,0-12,5.38-12,12s5.38,12,12,12,12-5.38,12-12S22.62,1,16,1Zm0,22c-5.51,0-10-4.49-10-10S10.49,3,16,3s10,4.49,10,10-4.49,10-10,10Z"/>
    <path class="cls-2" d="m15,10h4c.55,0,1-.45,1-1s-.45-1-1-1h-2v-1c0-.55-.45-1-1-1s-1,.45-1,1v1c-1.65,0-3,1.35-3,3s1.35,3,3,3h2c.55,0,1,.45,1,1s-.45,1-1,1h-4c-.55,0-1,.45-1,1s.45,1,1,1h2v1c0,.55.45,1,1,1s1-.45,1-1v-1c1.65,0,3-1.35,3-3s-1.35-3-3-3h-2c-.55,0-1-.45-1-1s.45-1,1-1Z"/>
    <path class="cls-2" d="m23.25,12h-.5c-.55,0-1,.45-1,1s.45,1,1,1h.5c.55,0,1-.45,1-1s-.45-1-1-1Z"/>
    <path class="cls-2" d="m9.25,12h-.5c-.55,0-1,.45-1,1s.45,1,1,1h.5c.55,0,1-.45,1-1s-.45-1-1-1Z"/>
  </g>
  <g>
    <path class="cls-1" d="m30.85,26.22l-3.3-5.32c-1.83,2.66-4.56,4.66-7.74,5.56l2.32,4.04c.18.31.51.5.87.5.02,0,.03,0,.05,0,.38-.02.71-.25.86-.59l1.35-3.02,4.67.36c.39.03.74-.16.93-.48.2-.32.19-.73,0-1.05Z"/>
    <path class="cls-1" d="m4.46,20.9l-3.3,5.32c-.2.32-.2.72,0,1.05.2.32.55.51.93.48l4.67-.36,1.35,3.02c.15.34.49.57.86.59.02,0,.03,0,.05,0,.36,0,.69-.19.87-.5l2.32-4.04c-3.19-.9-5.91-2.89-7.74-5.56Z"/>
  </g>
</svg>