<?xml version="1.0" encoding="UTF-8"?>
<svg id="OBJECT" xmlns="http://www.w3.org/2000/svg" viewBox="0 0 32 32">
  <defs>
    <style>
      .cls-1 {
        fill: #FD4360;
      }

      .cls-1, .cls-2 {
        stroke-width: 0px;
      }

      .cls-2 {
        fill: #dadada;
      }
    </style>
  </defs>
  <g>
    <path class="cls-2" d="m16,1C9.11,1,3.5,6.61,3.5,13.5s5.61,12.5,12.5,12.5,12.5-5.61,12.5-12.5S22.89,1,16,1Zm0,23c-5.79,0-10.5-4.71-10.5-10.5S10.21,3,16,3s10.5,4.71,10.5,10.5-4.71,10.5-10.5,10.5Z"/>
    <path class="cls-2" d="m19.44,11.61c.03-.2.06-.4.06-.61v-1.5c0-1.65-1.35-3-3-3h-1c-1.65,0-3,1.35-3,3v1.5c0,.21.03.41.06.61-1.6,1.11-2.56,2.92-2.56,4.89v1c0,1.65,1.35,3,3,3h6c1.65,0,3-1.35,3-3v-1c0-1.97-.96-3.78-2.56-4.89Zm-4.94-2.11c0-.55.45-1,1-1h1c.55,0,1,.45,1,1v1.5c0,.83-.67,1.5-1.5,1.5s-1.5-.67-1.5-1.5v-1.5Zm5.5,8c0,.55-.45,1-1,1h-6c-.55,0-1-.45-1-1v-1c0-1.21.56-2.33,1.49-3.08.64.66,1.53,1.08,2.51,1.08s1.88-.42,2.51-1.08c.93.75,1.49,1.86,1.49,3.08v1Z"/>
  </g>
  <g>
    <path class="cls-1" d="m29.36,19.14c-1.41,3.33-4.04,6.01-7.31,7.52.26,1.71.11,3.09.09,3.22-.04.37.12.73.42.94.3.21.7.24,1.03.07l3.05-1.58,1.4,1.4c.19.19.44.29.71.29.06,0,.12,0,.18-.02.32-.06.6-.27.73-.56,2.29-4.94,1.29-8.72-.3-11.28Z"/>
    <path class="cls-1" d="m2.64,19.14c-1.59,2.56-2.58,6.34-.3,11.28.14.3.41.51.73.56.06.01.12.02.18.02.26,0,.52-.1.71-.29l1.4-1.4,3.05,1.58c.33.17.73.14,1.03-.07.3-.21.47-.58.42-.94-.02-.13-.17-1.51.09-3.22-3.27-1.51-5.9-4.19-7.31-7.52Z"/>
  </g>
</svg>