<?xml version="1.0" encoding="UTF-8"?>
<svg id="OBJECT" xmlns="http://www.w3.org/2000/svg" viewBox="0 0 32 32">
  <defs>
    <style>
      .cls-1 {
        fill: #FD4360;
      }

      .cls-2 {
        fill: #dadada;
      }
    </style>
  </defs>
  <g>
    <path class="cls-2" d="m21,14.52v-3.52h1c.55,0,1-.45,1-1s-.45-1-1-1h-12c-.55,0-1,.45-1,1s.45,1,1,1h1v3.52c-2.41,1.62-4,4.36-4,7.48,0,4.96,4.04,9,9,9s9-4.04,9-9c0-3.11-1.59-5.86-4-7.48Zm-8-3.52h6v2.53c-.94-.33-1.95-.53-3-.53s-2.06.19-3,.53v-2.53Zm3,18c-3.86,0-7-3.14-7-7s3.14-7,7-7,7,3.14,7,7-3.14,7-7,7Z"/>
    <path class="cls-2" d="m17.5,25h-.5v-7c0-.37-.2-.71-.53-.88-.32-.17-.72-.15-1.03.05l-1.5,1c-.46.31-.58.93-.28,1.39.29.44.88.57,1.33.31v5.13h-.5c-.55,0-1,.45-1,1s.45,1,1,1h3c.55,0,1-.45,1-1s-.45-1-1-1Z"/>
  </g>
  <g>
    <path class="cls-1" d="m5,1c-.4,0-.77.24-.92.62-.15.37-.07.8.22,1.09l4.29,4.29h6.91L11,1h-6Z"/>
    <path class="cls-1" d="m27.92,1.62c-.15-.37-.52-.62-.92-.62h-8c-.31,0-.61.15-.8.4l-2.2,2.93,2,2.67h5.41l4.29-4.29c.29-.29.37-.72.22-1.09Z"/>
  </g>
</svg>