<?xml version="1.0" encoding="UTF-8"?>
<svg id="OBJECT" xmlns="http://www.w3.org/2000/svg" viewBox="0 0 32 32">
  <defs>
    <style>
      .cls-1 {
        fill: #FD4360;
      }

      .cls-1, .cls-2 {
        stroke-width: 0px;
      }

      .cls-2 {
        fill: #dadada;
      }
    </style>
  </defs>
  <circle class="cls-1" cx="16" cy="22.5" r="3"/>
  <path class="cls-1" d="m16,14c-4.69,0-8.5,3.81-8.5,8.5s3.81,8.5,8.5,8.5,8.5-3.81,8.5-8.5-3.81-8.5-8.5-8.5Zm0,13.5c-2.76,0-5-2.24-5-5s2.24-5,5-5,5,2.24,5,5-2.24,5-5,5Z"/>
  <path class="cls-2" d="m30.99,8.1c.01-.11,0-.22-.02-.33,0-.02-.01-.04-.02-.06-.02-.05-.03-.11-.06-.16l-2.45-4.89c-.51-1.02-1.54-1.66-2.68-1.66H6.24c-1.14,0-2.17.64-2.68,1.66L1.11,7.55c-.03.05-.04.1-.06.16,0,.02-.02.04-.02.06-.03.11-.03.22-.02.33,0,.03,0,.05.01.08.02.11.05.21.11.3,0,0,0,.02,0,.03l4.11,6.95c.19.32.52.49.86.49.17,0,.35-.04.51-.14.48-.28.63-.89.35-1.37l-3.22-5.44h4.56l1.56,4.03c.15.4.53.64.93.64.12,0,.24-.02.36-.07.52-.2.77-.78.57-1.29l-1.28-3.3h11.08l-1.28,3.3c-.2.51.06,1.09.57,1.29.12.05.24.07.36.07.4,0,.78-.24.93-.64l1.56-4.03h4.56l-3.22,5.44c-.28.48-.12,1.09.35,1.37.16.09.33.14.51.14.34,0,.68-.18.86-.49l4.11-6.95s0-.02,0-.03c.05-.1.09-.2.11-.3,0-.03.01-.05.01-.08ZM5.34,3.55c.17-.34.51-.55.89-.55h19.53c.38,0,.72.21.89.55l1.72,3.45H9.03s0,0,0,0H3.62l1.72-3.45Z"/>
</svg>