<?xml version="1.0" encoding="UTF-8"?>
<svg id="OBJECT" xmlns="http://www.w3.org/2000/svg" viewBox="0 0 32 32">
  <defs>
    <style>
      .cls-1 {
        fill: #FD4360;
      }

      .cls-1, .cls-2 {
        stroke-width: 0px;
      }

      .cls-2 {
        fill: #dadada;
      }
    </style>
  </defs>
  <g>
    <path class="cls-2" d="m17.5,18h-3c-.55,0-1,.45-1,1s.45,1,1,1h3c.55,0,1-.45,1-1s-.45-1-1-1Z"/>
    <path class="cls-2" d="m28.44,22.11c.03-.2.06-.4.06-.61v-1.5c0-1.3-.84-2.4-2-2.82v-2.18c0-.55-.45-1-1-1H6.5c-.55,0-1,.45-1,1v2.18c-1.16.41-2,1.51-2,2.82v1.5c0,.21.03.41.06.61-1.6,1.11-2.56,2.92-2.56,4.89v1c0,1.65,1.35,3,3,3h6c1.3,0,2.4-.84,2.82-2h6.37c.41,1.16,1.51,2,2.82,2h6c1.65,0,3-1.35,3-3v-1c0-1.97-.96-3.78-2.56-4.89Zm-1.94-2.11v1.5c0,.83-.67,1.5-1.5,1.5s-1.5-.67-1.5-1.5v-1.5c0-.55.45-1,1-1h1c.55,0,1,.45,1,1Zm-21,0c0-.55.45-1,1-1h1c.55,0,1,.45,1,1v1.5c0,.83-.67,1.5-1.5,1.5s-1.5-.67-1.5-1.5v-1.5Zm5.5,8c0,.55-.45,1-1,1h-6c-.55,0-1-.45-1-1v-1c0-1.21.56-2.33,1.49-3.08.64.66,1.53,1.08,2.51,1.08s1.88-.42,2.51-1.08c.93.75,1.49,1.86,1.49,3.08v1Zm8-1h-6c0-1.97-.96-3.78-2.56-4.89.03-.2.06-.4.06-.61v-1.5c0-1.65-1.35-3-3-3v-1h17v1c-1.65,0-3,1.35-3,3v1.5c0,.21.03.41.06.61-1.6,1.11-2.56,2.92-2.56,4.89Zm10,1c0,.55-.45,1-1,1h-6c-.55,0-1-.45-1-1v-1c0-1.21.56-2.33,1.49-3.08.64.66,1.53,1.08,2.51,1.08s1.88-.42,2.51-1.08c.93.75,1.49,1.86,1.49,3.08v1Z"/>
  </g>
  <g>
    <path class="cls-1" d="m16,7.8c1.65,0,3-1.35,3-3v-1.2c0-1.43-1.17-2.6-2.6-2.6h-.8c-1.43,0-2.6,1.17-2.6,2.6v1.2c0,1.65,1.35,3,3,3Z"/>
    <path class="cls-1" d="m20.46,7.01c-.82,1.65-2.5,2.79-4.46,2.79s-3.65-1.15-4.46-2.79c-.95,1.06-1.54,2.46-1.54,3.99v1h12v-1c0-1.53-.58-2.93-1.54-3.99Z"/>
  </g>
</svg>