<?xml version="1.0" encoding="UTF-8"?>
<svg id="OBJECT" xmlns="http://www.w3.org/2000/svg" viewBox="0 0 32 32">
  <defs>
    <style>
      .cls-1 {
        fill: #FD4360;
      }

      .cls-2 {
        fill: #dadada;
      }
    </style>
  </defs>
  <g>
    <path class="cls-2" d="M5.25,13.5h1.5c.55,0,1-.45,1-1s-.45-1-1-1h-1.5c-.55,0-1,.45-1,1s.45,1,1,1Z"/>
    <path class="cls-2" d="M5.25,10.5h1.5c.55,0,1-.45,1-1s-.45-1-1-1h-1.5c-.55,0-1,.45-1,1s.45,1,1,1Z"/>
    <path class="cls-2" d="M25,7.5h-2V2c0-.55-.45-1-1-1s-1,.45-1,1v.72l-11.12,2.78H3.5c-1.38,0-2.5,1.12-2.5,2.5v6c0,1.21,.86,2.22,2,2.45v8.05c0,.55,.45,1,1,1h2c1.65,0,3-1.35,3-3v-6h.84l8.69,2.9c.1,.03,.21,.05,.32,.05,.42,0,.81-.27,.95-.68,.17-.52-.11-1.09-.63-1.27l-8.16-2.72V7.28l4-1v4.72c0,.55,.45,1,1,1s1-.45,1-1V5.78l4-1v11.74c0,.55,.45,1,1,1s1-.45,1-1v-1.02h2c1.65,0,3-1.35,3-3v-2c0-1.65-1.35-3-3-3Zm-22,.5c0-.28,.22-.5,.5-.5h5.5v7H3.5c-.28,0-.5-.22-.5-.5v-6Zm4,14.5c0,.55-.45,1-1,1h-1v-7h2v6ZM26,12.5c0,.55-.45,1-1,1h-2v-4h2c.55,0,1,.45,1,1v2Z"/>
  </g>
  <path class="cls-1" d="M25,19c-3.31,0-6,2.69-6,6s2.69,6,6,6,6-2.69,6-6-2.69-6-6-6Zm2.95,5.27l-2.94,2.88c-.19,.19-.45,.29-.7,.29s-.51-.1-.7-.29l-1.56-1.53c-.39-.39-.4-1.02-.01-1.41s1.02-.4,1.41-.01l.86,.84,2.24-2.19c.39-.39,1.03-.38,1.41,.01,.39,.39,.38,1.03-.01,1.41Z"/>
</svg>