<?xml version="1.0" encoding="UTF-8"?>
<svg id="OBJECT" xmlns="http://www.w3.org/2000/svg" viewBox="0 0 32 32">
  <defs>
    <style>
      .cls-1 {
        fill: #FD4360;
      }

      .cls-1, .cls-2 {
        stroke-width: 0px;
      }

      .cls-2 {
        fill: #dadada;
      }
    </style>
  </defs>
  <g>
    <path class="cls-2" d="m30,13h-2c-.55,0-1,.45-1,1s.45,1,1,1h2c.55,0,1-.45,1-1s-.45-1-1-1Z"/>
    <path class="cls-2" d="m27,11c.15,0,.3-.03.45-.11l2-1c.49-.25.69-.85.45-1.34s-.85-.69-1.34-.45l-2,1c-.49.25-.69.85-.45,1.34.18.35.53.55.9.55Z"/>
    <path class="cls-2" d="m29.45,18.11l-2-1c-.49-.25-1.09-.05-1.34.45s-.05,1.09.45,1.34l2,1c.14.07.3.11.45.11.37,0,.72-.2.9-.55.25-.49.05-1.09-.45-1.34Z"/>
    <path class="cls-2" d="m20,16.07v-.5c0-.55-.45-1-1-1s-1,.45-1,1v.5c0,.55.45,1,1,1s1-.45,1-1Z"/>
    <path class="cls-2" d="m25,2c0-.55-.45-1-1-1s-1,.45-1,1v1.34l-10.39,4.45c-.51.22-.74.81-.53,1.31.16.38.53.61.92.61.13,0,.27-.03.39-.08l4.61-1.97v4.41c0,.55.45,1,1,1s1-.45,1-1v-5.27l3-1.28v16.97l-9.61-4.11c-.5-.22-1.09.02-1.31.53s.02,1.1.53,1.31l10.39,4.45v1.34c0,.55.45,1,1,1s1-.45,1-1V2Z"/>
  </g>
  <g>
    <path class="cls-1" d="m10,7H2c-.55,0-1,.45-1,1v13h9c.55,0,1-.45,1-1v-12c0-.55-.45-1-1-1Zm-3.5,11h-1c-.55,0-1-.45-1-1s.45-1,1-1h1c.55,0,1,.45,1,1s-.45,1-1,1Zm0-3h-1c-.55,0-1-.45-1-1s.45-1,1-1h1c.55,0,1,.45,1,1s-.45,1-1,1Zm0-3h-1c-.55,0-1-.45-1-1s.45-1,1-1h1c.55,0,1,.45,1,1s-.45,1-1,1Z"/>
    <path class="cls-1" d="m1,29.5c0,.83.67,1.5,1.5,1.5h2c.83,0,1.5-.67,1.5-1.5v-6.5H1v6.5Z"/>
  </g>
</svg>