<?xml version="1.0" encoding="UTF-8"?>
<svg id="OBJECT" xmlns="http://www.w3.org/2000/svg" viewBox="0 0 32 32">
  <defs>
    <style>
      .cls-1 {
        fill: #FD4360;
      }

      .cls-1, .cls-2 {
        stroke-width: 0px;
      }

      .cls-2 {
        fill: #dadada;
      }
    </style>
  </defs>
  <g>
    <path class="cls-2" d="m7.5,15.5h-1c-.55,0-1,.45-1,1s.45,1,1,1h1c.55,0,1-.45,1-1s-.45-1-1-1Z"/>
    <path class="cls-2" d="m23.39,22.29l-1.39-.6V6.31l1.39-.6c.51-.22.74-.81.53-1.31-.22-.51-.81-.74-1.31-.53l-9.79,4.19c-.37-.92-1.27-1.56-2.31-1.56H3.5c-1.38,0-2.5,1.12-2.5,2.5v19c0,1.65,1.35,3,3,3s3-1.35,3-3v-2h1c1.65,0,3-1.35,3-3v-1.55c.83-.17,1.5-.75,1.81-1.51l9.79,4.19c.13.05.26.08.39.08.39,0,.76-.23.92-.61.22-.51-.02-1.1-.53-1.31Zm-3.39-1.45l-7-3v-7.68l7-3v13.67ZM3.5,8.5h7c.28,0,.5.22.5.5v.5s0,0,0,0v1.99H3v-2.5c0-.28.22-.5.5-.5Zm.5,20.5c-.55,0-1-.45-1-1v-6.5h2v6.5c0,.55-.45,1-1,1Zm4-5h-1v-2.5h2v1.5c0,.55-.45,1-1,1Zm2.5-4.5H3v-6h8v4.99s0,0,0,0v.5c0,.28-.22.5-.5.5Z"/>
  </g>
  <path class="cls-1" d="m29,8h-2V2c0-.55-.45-1-1-1s-1,.45-1,1v24c0,.55.45,1,1,1s1-.45,1-1v-6h2c1.1,0,2-.9,2-2v-8c0-1.1-.9-2-2-2Z"/>
</svg>