<?xml version="1.0" encoding="UTF-8"?>
<svg id="OBJECT" xmlns="http://www.w3.org/2000/svg" viewBox="0 0 32 32">
  <defs>
    <style>
      .cls-1 {
        fill: #FD4360;
      }

      .cls-1, .cls-2 {
        stroke-width: 0px;
      }

      .cls-2 {
        fill: #dadada;
      }
    </style>
  </defs>
  <path class="cls-1" d="m29.96,13.88l-2.91.12c-.55.02-.98.49-.96,1.04.02.54.47.96,1,.96.01,0,.03,0,.04,0l2.91-.12c.55-.02.98-.49.96-1.04s-.54-.97-1.04-.96Z"/>
  <path class="cls-1" d="m26.64,11.22l.96-1.04c.37-.41.35-1.04-.06-1.41-.41-.37-1.04-.35-1.41.06l-.96,1.04c-.37.41-.35,1.04.06,1.41.19.18.43.26.68.26.27,0,.54-.11.74-.32Z"/>
  <path class="cls-1" d="m26.96,18.8c-.4-.37-1.04-.35-1.41.06-.37.41-.35,1.04.06,1.41l1.04.96c.19.18.43.26.68.26.27,0,.54-.11.74-.32.37-.41.35-1.04-.06-1.41l-1.04-.96Z"/>
  <path class="cls-1" d="m21.48,10.5h-.48v-5.5c0-.55-.45-1-1-1s-1,.45-1,1v1.28l-2.51.84v15.77l2.51.84v1.28c0,.55.45,1,1,1s1-.45,1-1v-5.5h.48c1.66,0,3-1.34,3-3v-3c0-1.66-1.34-3-3-3Z"/>
  <path class="cls-2" d="m14.81,20.21l-5.81-1.93v-6.56l5.81-1.93c.52-.17.81-.74.63-1.26-.17-.52-.74-.81-1.26-.63l-6.34,2.11H3.5c-1.38,0-2.5,1.12-2.5,2.5v5c0,1.35,1.08,2.45,2.42,2.49l.73,5.82c.16,1.25,1.22,2.19,2.48,2.19h.98c.72,0,1.4-.31,1.87-.85s.7-1.25.61-1.96l-.06-.44h1.75c.55,0,1-.45,1-1v-2.1l1.38.46c.1.04.21.05.32.05.42,0,.81-.27.95-.68.17-.52-.11-1.09-.63-1.26Zm-11.81-2.71v-5c0-.28.22-.5.5-.5h3.5v6h-3.5c-.28,0-.5-.22-.5-.5Zm4.98,8.33c-.06.06-.18.17-.38.17h-.98c-.25,0-.46-.19-.5-.44l-.7-5.56h1.98l.68,5.44c.02.19-.07.33-.12.39Zm2.81-3.08h-1l-.27-2.19,1.28.43v1.77Z"/>
</svg>