<?xml version="1.0" encoding="UTF-8"?>
<svg id="OBJECT" xmlns="http://www.w3.org/2000/svg" viewBox="0 0 32 32">
  <defs>
    <style>
      .cls-1 {
        fill: #FD4360;
      }

      .cls-1, .cls-2 {
        stroke-width: 0px;
      }

      .cls-2 {
        fill: #dadada;
      }
    </style>
  </defs>
  <g>
    <path class="cls-2" d="m5.5,13h3c.55,0,1-.45,1-1s-.45-1-1-1h-3c-.55,0-1,.45-1,1s.45,1,1,1Z"/>
    <path class="cls-2" d="m8.5,15h-3c-.55,0-1,.45-1,1s.45,1,1,1h3c.55,0,1-.45,1-1s-.45-1-1-1Z"/>
    <path class="cls-2" d="m17.45,21.11l-4.45-2.22v-9.76l4.45-2.22c.49-.25.69-.85.45-1.34-.25-.49-.85-.69-1.34-.45l-4.79,2.39H2c-.55,0-1,.45-1,1v11c0,.55.45,1,1,1h1v8c0,1.38,1.12,2.5,2.5,2.5h2.5c.55,0,1-.45,1-1v-5h1c1.65,0,3-1.35,3-3v-.88l3.55,1.78c.14.07.3.11.45.11.37,0,.72-.2.9-.55.25-.49.05-1.09-.45-1.34ZM3,9.5h8v9H3v-9Zm2.5,19.5c-.28,0-.5-.22-.5-.5v-8h2v8.5h-1.5Zm4.5-6h-1v-2.5h2v1.5c0,.55-.45,1-1,1Z"/>
  </g>
  <g>
    <polygon class="cls-1" points="20 23.42 23 24.49 23 3.51 20 4.58 20 23.42"/>
    <path class="cls-1" d="m29,8.5h-2V2c0-.55-.45-1-1-1s-1,.45-1,1v24c0,.55.45,1,1,1s1-.45,1-1v-6.5h2c1.1,0,2-.9,2-2v-7c0-1.1-.9-2-2-2Z"/>
  </g>
</svg>