<?xml version="1.0" encoding="UTF-8"?>
<svg id="OBJECT" xmlns="http://www.w3.org/2000/svg" viewBox="0 0 512 512">
  <defs>
    <style>
      .cls-1 {
        fill: #FD4360;
      }

      .cls-2 {
        fill: #dadada;
      }
    </style>
  </defs>
  <g>
    <path class="cls-2" d="M157.5,173.5h-60c-9.65,0-17.5,7.85-17.5,17.5v10c0,9.65,7.85,17.5,17.5,17.5h60c9.65,0,17.5-7.85,17.5-17.5v-10c0-9.65-7.85-17.5-17.5-17.5Zm2.5,27.5c0,1.38-1.12,2.5-2.5,2.5h-60c-1.38,0-2.5-1.12-2.5-2.5v-10c0-1.38,1.12-2.5,2.5-2.5h60c1.38,0,2.5,1.12,2.5,2.5v10Z"/>
    <path class="cls-2" d="M157.5,233.5h-60c-9.65,0-17.5,7.85-17.5,17.5v10c0,9.65,7.85,17.5,17.5,17.5h60c9.65,0,17.5-7.85,17.5-17.5v-10c0-9.65-7.85-17.5-17.5-17.5Zm2.5,27.5c0,1.38-1.12,2.5-2.5,2.5h-60c-1.38,0-2.5-1.12-2.5-2.5v-10c0-1.38,1.12-2.5,2.5-2.5h60c1.38,0,2.5,1.12,2.5,2.5v10Z"/>
    <path class="cls-2" d="M322.13,319.65l-117.13-43.85v-89.85l117.45-50.24c3.81-1.63,5.57-6.04,3.95-9.85-1.63-3.81-6.04-5.58-9.85-3.95l-111.55,47.72v-3.63c0-12.41-10.09-22.5-22.5-22.5H72.5c-12.41,0-22.5,10.09-22.5,22.5v7.5H22.5c-12.41,0-22.5,10.09-22.5,22.5v60c0,12.41,10.09,22.5,22.5,22.5h27.5v21.93l-19.91,129.43c-.33,2.16,.3,4.36,1.72,6.02,1.42,1.66,3.5,2.62,5.69,2.62h28.07c10.54,0,19.55-7.17,21.92-17.44l12.13-52.56h32.88c12.41,0,22.5-10.09,22.5-22.5v-37.5h27.5c10.49,0,19.32-7.22,21.8-16.94l112.57,42.14c.87,.32,1.75,.48,2.63,.48,3.04,0,5.9-1.86,7.03-4.87,1.45-3.88-.52-8.2-4.39-9.65ZM22.5,263.5c-4.14,0-7.5-3.36-7.5-7.5v-60c0-4.14,3.36-7.5,7.5-7.5h27.5v75H22.5Zm50.38,154.19c-.79,3.42-3.79,5.81-7.31,5.81h-19.33l17.69-115h34.14l-25.2,109.19Zm67.12-71.69c0,4.14-3.36,7.5-7.5,7.5h-29.42l10.38-45h26.53v37.5Zm50-60c0,4.14-3.36,7.5-7.5,7.5H65v-127.5c0-4.14,3.36-7.5,7.5-7.5h110c4.14,0,7.5,3.36,7.5,7.5v120Z"/>
  </g>
  <g>
    <path class="cls-1" d="M412,73.5h-20V378.5h20c11.05,0,20-8.95,20-20V93.5c0-11.05-8.95-20-20-20Z"/>
    <rect class="cls-1" x="452" y="173.5" width="60" height="45" rx="15" ry="15"/>
    <rect class="cls-1" x="452" y="113.5" width="60" height="45" rx="15" ry="15"/>
    <rect class="cls-1" x="452" y="233.5" width="60" height="45" rx="15" ry="15"/>
    <rect class="cls-1" x="452" y="293.5" width="60" height="45" rx="15" ry="15"/>
    <polygon class="cls-1" points="342 343.1 377 356.2 377 96.05 342 111.02 342 343.1"/>
  </g>
</svg>