<?xml version="1.0" encoding="UTF-8"?>
<svg id="OBJECT" xmlns="http://www.w3.org/2000/svg" viewBox="0 0 32 32">
  <defs>
    <style>
      .cls-1 {
        fill: #FD4360;
      }

      .cls-1, .cls-2 {
        stroke-width: 0px;
      }

      .cls-2 {
        fill: #dadada;
      }
    </style>
  </defs>
  <path class="cls-1" d="m29,8h-2V2c0-.55-.45-1-1-1s-1,.45-1,1v24c0,.55.45,1,1,1s1-.45,1-1v-6h2c1.1,0,2-.9,2-2v-8c0-1.1-.9-2-2-2Z"/>
  <path class="cls-1" d="m9,27h1c1.65,0,3-1.35,3-3v-1h-4v4Z"/>
  <path class="cls-1" d="m3,30c0,.55.45,1,1,1h3v-8H3v7Z"/>
  <g>
    <path class="cls-2" d="m5,13h2c.55,0,1-.45,1-1s-.45-1-1-1h-2c-.55,0-1,.45-1,1s.45,1,1,1Z"/>
    <path class="cls-2" d="m7,15h-2c-.55,0-1,.45-1,1s.45,1,1,1h2c.55,0,1-.45,1-1s-.45-1-1-1Z"/>
    <path class="cls-2" d="m22.32,23.05l-1.32-.44V5.39l1.32-.44c.52-.17.81-.74.63-1.26-.17-.52-.74-.81-1.27-.63l-11.84,3.95H2c-.55,0-1,.45-1,1v12c0,.55.45,1,1,1h7.84l11.84,3.95c.1.04.21.05.32.05.42,0,.81-.26.95-.68.17-.52-.11-1.09-.63-1.26ZM3,9h6v10H3v-10Zm8-.28l8-2.67v15.89l-8-2.67v-10.56Z"/>
  </g>
</svg>