<?xml version="1.0" encoding="UTF-8"?>
<svg id="OBJECT" xmlns="http://www.w3.org/2000/svg" viewBox="0 0 512 512">
  <defs>
    <style>
      .cls-1 {
        fill: #FD4360;
      }

      .cls-2 {
        fill: #dadada;
      }
    </style>
  </defs>
  <g>
    <path class="cls-2" d="M507.53,417.66c-40.98-18.08-70.75-53.15-89.24-81.02,28.44-35.76,45.21-80.87,45.21-129.14C463.5,93.08,370.42,0,256,0S48.5,93.08,48.5,207.5c0,48.27,16.77,93.38,45.21,129.14-18.49,27.87-48.26,62.94-89.24,81.02-2.66,1.17-4.4,3.78-4.47,6.69s1.55,5.59,4.16,6.89c1.14,.57,25.45,12.48,57.66,14.45-6.04,13.51-15.49,37.46-17.11,58.23-.18,2.37,.76,4.68,2.55,6.24,1.38,1.2,3.13,1.84,4.92,1.84,.54,0,1.07-.06,1.61-.17,.9-.2,22.4-5.04,49.09-22.05,23.4-14.9,55.25-42.32,77.05-89.18,9.98,3.93,20.36,7.13,31.09,9.5,6.36,18.74,24.12,32.27,44.98,32.27s38.62-13.53,44.98-32.27c10.72-2.37,21.1-5.56,31.09-9.5,21.8,46.86,53.65,74.28,77.05,89.18,26.7,17,48.19,21.85,49.09,22.05,.53,.12,1.07,.17,1.61,.17,1.79,0,3.55-.64,4.92-1.84,1.79-1.56,2.74-3.87,2.55-6.24-1.62-20.76-11.07-44.71-17.11-58.23,32.2-1.98,56.52-13.89,57.66-14.45,2.6-1.3,4.23-3.98,4.16-6.89s-1.81-5.52-4.47-6.69ZM256,15c106.15,0,192.5,86.35,192.5,192.5,0,88.25-60.4,165.13-145.02,186.58-.09-5.18-1-10.16-2.63-14.81,35.86-9.36,68.29-30.01,92.08-58.82,26.16-31.68,40.57-71.79,40.57-112.95,0-97.87-79.63-177.5-177.5-177.5S78.5,109.63,78.5,207.5c0,41.15,14.41,81.27,40.57,112.95,23.79,28.81,56.22,49.46,92.08,58.82-1.62,4.65-2.54,9.63-2.63,14.81-84.62-21.45-145.02-98.33-145.02-186.58C63.5,101.35,149.85,15,256,15Zm0,332.37c-15.18,0-28.72,7.17-37.42,18.29-72.77-17.15-125.08-82.89-125.08-158.16,0-89.6,72.9-162.5,162.5-162.5s162.5,72.9,162.5,162.5c0,75.28-52.32,141.02-125.08,158.16-8.7-11.12-22.23-18.29-37.42-18.29ZM95.38,476.77c-13.62,8.74-25.85,14.05-34.08,17.05,4.5-22.19,15.91-45.89,18.43-50.94l30.84-31.03c2.92-2.94,2.9-7.69-.03-10.61-2.94-2.92-7.69-2.91-10.61,.03l-29.5,29.68c-17.69-.07-33.57-3.84-44.48-7.34,34.69-19.7,60.6-49.82,77.9-75.16,17.54,18.97,38.63,34.72,62.34,46.13-20.15,43.13-49.36,68.42-70.81,82.19Zm160.62-49.4c-17.92,0-32.5-14.58-32.5-32.5s14.58-32.5,32.5-32.5,32.5,14.58,32.5,32.5-14.58,32.5-32.5,32.5Zm185.58,3.59l-29.5-29.68c-2.92-2.94-7.67-2.95-10.61-.03-2.94,2.92-2.95,7.67-.03,10.61l30.84,31.03c2.51,5.06,13.92,28.75,18.43,50.94-8.23-3-20.47-8.31-34.08-17.05-21.45-13.77-50.65-39.06-70.81-82.19,23.71-11.41,44.8-27.16,62.34-46.13,17.3,25.35,43.22,55.46,77.9,75.16-10.91,3.5-26.79,7.27-44.48,7.34Z"/>
    <path class="cls-2" d="M268.5,387.37h-25c-4.14,0-7.5,3.36-7.5,7.5s3.36,7.5,7.5,7.5h25c4.14,0,7.5-3.36,7.5-7.5s-3.36-7.5-7.5-7.5Z"/>
  </g>
  <g>
    <path class="cls-1" d="M308.53,208.19l-.02-.17c-.63-6.69-4.37-12.37-10.27-15.57-6-3.25-13.25-3.27-19.39-.05-6.03,3.17-12.16,5.06-18.2,5.64-18.87,1.79-39.57-5.3-53.6-11.56-1.11-.49-2-.1-2.43,.18-.42,.27-1.13,.91-1.13,2.08v18.76c0,4.14-3.36,7.5-7.5,7.5h-7.5v47.5c0,37.22,30.28,67.5,67.5,67.5s67.5-30.28,67.5-67.5v-47.5h-7.5c-3.88,0-7.11-2.95-7.47-6.81Zm-24.73,80.3c-7.67,7.67-17.73,11.5-27.8,11.5s-20.14-3.83-27.8-11.5c-2.93-2.93-2.93-7.68,0-10.61,2.93-2.93,7.68-2.93,10.61,0,9.48,9.48,24.91,9.48,34.39,0,2.93-2.93,7.68-2.93,10.61,0s2.93,7.68,0,10.61Z"/>
    <path class="cls-1" d="M188.5,189.17c0-5.45,2.32-10.73,6.59-14.11,5.2-4.12,12.11-4.95,18.08-2.28,12.4,5.53,30.45,11.81,46.08,10.33,4.09-.39,8.34-1.73,12.64-3.98,10.57-5.55,23.1-5.49,33.51,.15,8.21,4.45,14.19,11.94,16.78,20.74h23.82v-61.81c0-12.58-7.99-23.8-19.89-27.9-4.99-1.72-10.16-2.05-15.07-1.12-6.49,1.22-11.1,7.05-11.1,13.66h0c0,4.11-3.17,7.69-7.27,7.81-4.25,.13-7.73-3.28-7.73-7.5v-10.34c0-3.89-1.59-7.65-4.49-10.25-12.57-11.33-29.11-17.76-46.74-17.54-37.71,.47-67.71,31.92-67.71,69.63v45.36h22.5v-10.83Zm35.1-71.3c2.88-2.95,7.61-3.02,10.58-.15,.51,.49,10.81,10.01,25.19,6.88,4.05-.88,8.04,1.69,8.92,5.73,.88,4.05-1.69,8.04-5.73,8.92-3.14,.68-6.15,.98-9,.98-17.58,0-29.27-11.21-29.84-11.76-2.96-2.9-3.02-7.64-.12-10.61Zm-25.88,16.42c2.89-2.96,7.62-3.02,10.59-.14,.93,.9,22.55,21.29,53.25,14.6,4.04-.88,8.04,1.69,8.92,5.73,.88,4.05-1.69,8.04-5.73,8.92-5.43,1.18-10.63,1.69-15.56,1.69-30.29,0-50.39-19.26-51.36-20.21-2.96-2.9-3.02-7.64-.12-10.61Z"/>
    <path class="cls-1" d="M343.5,215h-5v45h5c8.28,0,15-6.72,15-15v-15c0-8.28-6.72-15-15-15Z"/>
    <path class="cls-1" d="M153.5,230v15c0,8.28,6.72,15,15,15h5v-45h-5c-8.28,0-15,6.72-15,15Z"/>
  </g>
</svg>