<?xml version="1.0" encoding="UTF-8"?>
<svg id="OBJECT" xmlns="http://www.w3.org/2000/svg" viewBox="0 0 32 32">
  <defs>
    <style>
      .cls-1 {
        fill: #FD4360;
      }

      .cls-1, .cls-2 {
        stroke-width: 0px;
      }

      .cls-2 {
        fill: #dadada;
      }
    </style>
  </defs>
  <g>
    <path class="cls-2" d="m27.6,13.3c.25-.19.4-.49.4-.8v-6.67c0-.8-.31-1.55-.88-2.12l-1.83-1.83c-.57-.57-1.32-.88-2.12-.88H7c-1.65,0-3,1.35-3,3v3.5c0,.31.15.61.4.8l1.6,1.2v5l-1.6,1.2c-.25.19-.4.49-.4.8v11.5c0,1.65,1.35,3,3,3h18c1.65,0,3-1.35,3-3v-8c0-.55-.45-1-1-1h-.5c-.28,0-.5-.22-.5-.5v-4l1.6-1.2ZM18.75,3h1.5v1.5c0,.28-.22.5-.5.5h-.5c-.28,0-.5-.22-.5-.5v-1.5Zm-7,0h1.5v1.5c0,.28-.22.5-.5.5h-.5c-.28,0-.5-.22-.5-.5v-1.5Zm14.25,17.95v7.05c0,.55-.45,1-1,1H7c-.55,0-1-.45-1-1v-11l1.6-1.2c.25-.19.4-.49.4-.8v-6c0-.31-.15-.61-.4-.8l-1.6-1.2v-3c0-.55.45-1,1-1h2.75v1.5c0,1.38,1.12,2.5,2.5,2.5h.5c1.38,0,2.5-1.12,2.5-2.5v-1.5h1.5v1.5c0,1.38,1.12,2.5,2.5,2.5h.5c1.38,0,2.5-1.12,2.5-2.5v-1.5h.92c.27,0,.52.1.71.29l1.83,1.83c.19.19.29.44.29.71v6.17l-1.6,1.2c-.25.19-.4.49-.4.8v4.5c0,1.21.86,2.22,2,2.45Z"/>
    <path class="cls-2" d="m13.28,12.96c-.39.4-.38,1.03.02,1.41.4.39,1.03.38,1.41-.02.69-.71,1.88-.71,2.57,0,.2.2.46.3.72.3s.5-.09.7-.29c.39-.39.4-1.02.02-1.41-1.45-1.48-3.98-1.48-5.43,0Z"/>
    <path class="cls-2" d="m16,8c-1.78,0-3.46.71-4.71,2-.39.39-.38,1.03.02,1.41.4.39,1.03.38,1.41-.02.88-.9,2.05-1.39,3.29-1.39s2.41.5,3.29,1.39c.2.2.46.3.71.3s.5-.09.7-.29c.4-.39.4-1.02.02-1.41-1.26-1.29-2.93-2-4.71-2Z"/>
    <path class="cls-2" d="m16.22,15.2h-.44c-.55,0-1,.45-1,1s.45,1,1,1h.44c.55,0,1-.45,1-1s-.45-1-1-1Z"/>
  </g>
  <g>
    <rect class="cls-1" x="10" y="23.5" width="12" height="3.5"/>
    <path class="cls-1" d="m21.5,19h-11c-.28,0-.5.22-.5.5v2h12v-2c0-.28-.22-.5-.5-.5Z"/>
  </g>
</svg>