<?xml version="1.0" encoding="UTF-8"?>
<svg id="OBJECT" xmlns="http://www.w3.org/2000/svg" viewBox="0 0 32 32">
  <defs>
    <style>
      .cls-1 {
        fill: #FD4360;
      }

      .cls-1, .cls-2 {
        stroke-width: 0px;
      }

      .cls-2 {
        fill: #dadada;
      }
    </style>
  </defs>
  <g>
    <path class="cls-2" d="m26.79,22.71l-3.79-2.27v-1.43h1.5c1.38,0,2.5-1.12,2.5-2.5v-4.57c0-.95-.53-1.81-1.38-2.24l-2.62-1.31V2c0-.55-.45-1-1-1H5c-.55,0-1,.45-1,1v28c0,.55.45,1,1,1h22c.55,0,1-.45,1-1v-5.15c0-.87-.47-1.69-1.21-2.14Zm-.79,6.29H6V8h8c.55,0,1-.45,1-1s-.45-1-1-1H6v-3h15v6c0,.38.21.73.55.89l3.17,1.59c.17.08.28.26.28.45v4.57c0,.28-.22.5-.5.5h-1.5v-3c0-.55-.45-1-1-1s-1,.45-1,1v12c0,.55.45,1,1,1s1-.45,1-1v-3.23l2.76,1.65c.15.09.24.25.24.43v4.15Z"/>
    <path class="cls-2" d="m18,6h-.5c-.55,0-1,.45-1,1s.45,1,1,1h.5c.55,0,1-.45,1-1s-.45-1-1-1Z"/>
  </g>
  <g>
    <path class="cls-1" d="m17.5,12h-8c-.28,0-.5.22-.5.5v1.5h9v-1.5c0-.28-.22-.5-.5-.5Z"/>
    <path class="cls-1" d="m9,27h9v-11h-9v11Zm5.75-7c0-.55.45-1,1-1s1,.45,1,1v2c0,.55-.45,1-1,1s-1-.45-1-1v-2Zm-4.5,0c0-.55.45-1,1-1s1,.45,1,1v2c0,.55-.45,1-1,1s-1-.45-1-1v-2Z"/>
  </g>
</svg>