<?xml version="1.0" encoding="UTF-8"?>
<svg id="OBJECT" xmlns="http://www.w3.org/2000/svg" viewBox="0 0 512 512">
  <defs>
    <style>
      .cls-1 {
        fill: #FD4360;
      }

      .cls-2 {
        fill: #dadada;
      }
    </style>
  </defs>
  <g>
    <path class="cls-2" d="M493.91,344.27c10.48-2.1,18.09-11.38,18.09-22.06v-35.41c0-10.69-7.61-19.97-18.09-22.06l-31.91-6.38V64.41c0-6.59-2.87-12.82-7.88-17.1L405.08,5.4c-4.07-3.48-9.26-5.4-14.62-5.4H72.5c-12.41,0-22.5,10.09-22.5,22.5v52.7H22.5c-12.41,0-22.5,10.09-22.5,22.5v120c0,12.41,10.09,22.5,22.5,22.5h27.5v249.3c0,12.41,10.09,22.5,22.5,22.5H439.5c12.41,0,22.5-10.09,22.5-22.5v-18.85l31.91-6.38c10.48-2.1,18.09-11.38,18.09-22.06v-35.41c0-10.69-7.61-19.97-18.09-22.06l-31.91-6.38v-27.7l31.91-6.38Zm-2.94-64.82c3.49,.7,6.03,3.79,6.03,7.35v35.41c0,3.56-2.54,6.66-6.03,7.35l-28.97,5.79v-61.7l28.97,5.79ZM315,15h35v57.5c0,4.14-3.36,7.5-7.5,7.5h-20c-4.14,0-7.5-3.36-7.5-7.5V15Zm-100,0h35v57.5c0,4.14-3.36,7.5-7.5,7.5h-20c-4.14,0-7.5-3.36-7.5-7.5V15Zm-100,0h35v57.5c0,4.14-3.36,7.5-7.5,7.5h-20c-4.14,0-7.5-3.36-7.5-7.5V15ZM22.5,225.2c-4.14,0-7.5-3.36-7.5-7.5V97.7c0-4.14,3.36-7.5,7.5-7.5h27.5V225.2H22.5ZM447,489.5c0,4.14-3.36,7.5-7.5,7.5H72.5c-4.14,0-7.5-3.36-7.5-7.5V22.5c0-4.14,3.36-7.5,7.5-7.5h27.5v57.5c0,12.41,10.09,22.5,22.5,22.5h20c12.41,0,22.5-10.09,22.5-22.5V15h35v57.5c0,12.41,10.09,22.5,22.5,22.5h20c12.41,0,22.5-10.09,22.5-22.5V15h35v57.5c0,12.41,10.09,22.5,22.5,22.5h20c12.41,0,22.5-10.09,22.5-22.5V15h25.46c1.79,0,3.52,.64,4.87,1.8l49.04,41.91c1.67,1.43,2.63,3.51,2.63,5.7V489.5Zm43.97-90.06c3.49,.7,6.03,3.79,6.03,7.35v35.41c0,3.56-2.54,6.66-6.03,7.35l-28.97,5.79v-61.7l28.97,5.79Z"/>
    <path class="cls-2" d="M399.5,127h-90c-12.41,0-22.5,10.09-22.5,22.5v20c0,12.41,10.09,22.5,22.5,22.5h90c12.41,0,22.5-10.09,22.5-22.5v-20c0-12.41-10.09-22.5-22.5-22.5Zm7.5,42.5c0,4.14-3.36,7.5-7.5,7.5h-90c-4.14,0-7.5-3.36-7.5-7.5v-20c0-4.14,3.36-7.5,7.5-7.5h90c4.14,0,7.5,3.36,7.5,7.5v20Z"/>
    <path class="cls-2" d="M249.5,127h-30c-12.41,0-22.5,10.09-22.5,22.5v20c0,12.41,10.09,22.5,22.5,22.5h30c12.41,0,22.5-10.09,22.5-22.5v-20c0-12.41-10.09-22.5-22.5-22.5Zm7.5,42.5c0,4.14-3.36,7.5-7.5,7.5h-30c-4.14,0-7.5-3.36-7.5-7.5v-20c0-4.14,3.36-7.5,7.5-7.5h30c4.14,0,7.5,3.36,7.5,7.5v20Z"/>
  </g>
  <g>
    <path class="cls-1" d="M327.26,233.28c.37,.08,.75,.15,1.13,.22,2.15,.37,4.03,1.65,5.16,3.52s1.38,4.13,.71,6.2c-1.1,3.38-1.4,6.9-.88,10.47,1.5,10.26,9.44,17.97,19.74,19.16,3.68,.43,7.27,0,10.66-1.26,2.68-1,5.7-.38,7.77,1.58,3.7,3.5,7.96,6.24,12.65,8.14,2.78,1.12,4.63,3.8,4.69,6.81,.28,14.19,12.06,25.73,26.25,25.73,2.25,0,4.51-.54,6.77-1.59l.1-.04v-72.72c0-12.41-10.09-22.5-22.5-22.5h-89.46c2.46,8.07,8.94,14.48,17.22,16.28Z"/>
    <circle class="cls-1" cx="167.5" cy="294.5" r="22.5"/>
    <path class="cls-1" d="M341.73,327.65c-4.06-3.28-8.8-4.77-13.43-4.19-4.55,.57-8.65,3.07-11.25,6.85l-86.78,126.23c-1.45,2.12-3.8,3.25-6.19,3.25-1.46,0-2.94-.43-4.24-1.32-3.41-2.35-4.28-7.02-1.93-10.43l10.2-14.84-46.45-55.74c-10.02-7.69-21.44-4.61-27.23,2.34l-63.47,76.17c2.79,9.26,11.39,16.03,21.55,16.03H399.5c12.41,0,22.5-10.09,22.5-22.5v-5.1l-80.27-116.76Z"/>
    <path class="cls-1" d="M142.9,370.19c12.12-14.55,33.53-16.29,48.74-3.96,.38,.31,.73,.65,1.04,1.02l44.25,53.1,67.75-98.55c5.02-7.31,12.95-12.13,21.75-13.23,9.2-1.15,18.38,1.81,25.84,8.35,.47,.41,.89,.88,1.24,1.39l68.48,99.61v-89.89c-2.24,.53-4.51,.81-6.78,.81-20.73,0-38.14-15.57-40.94-35.59-3.44-1.74-6.68-3.84-9.69-6.27-4.29,1.02-8.71,1.28-13.2,.76-16.88-1.96-30.39-15.08-32.85-31.89-.48-3.25-.54-6.49-.19-9.67-12.26-4.85-21.3-16.01-23.73-29.19H112.5c-12.41,0-22.5,10.09-22.5,22.5v194.18l52.9-63.48Zm24.6-113.19c20.68,0,37.5,16.82,37.5,37.5s-16.82,37.5-37.5,37.5-37.5-16.82-37.5-37.5,16.82-37.5,37.5-37.5Z"/>
  </g>
</svg>