<?xml version="1.0" encoding="UTF-8"?>
<svg id="OBJECT" xmlns="http://www.w3.org/2000/svg" viewBox="0 0 32 32">
  <defs>
    <style>
      .cls-1 {
        fill: #FD4360;
      }

      .cls-1, .cls-2 {
        stroke-width: 0px;
      }

      .cls-2 {
        fill: #dadada;
      }
    </style>
  </defs>
  <path class="cls-2" d="m30,29h-1.24l-1.48-5.39c-.32-1.18-.49-2.39-.49-3.61v-7.6c0-6.28-5.11-11.4-11.4-11.4S4,6.11,4,12.4v.3l-2.77,3.37c-.34.42-.29,1.03.11,1.39l2.64,2.32-.1,2.52c-.07,1.75.82,3.4,2.33,4.3,1.35.81,3.01.9,4.44.24l2.85-1.31,1.13,3.47h-2.09c-.55,0-1,.45-1,1s.45,1,1,1h17.46c.55,0,1-.45,1-1s-.45-1-1-1Zm-15.32-6.31c-.17-.52-.73-.81-1.26-.64-.53.17-.81.73-.64,1.26l.1.3-3.06,1.41c-.83.38-1.8.33-2.58-.14-.88-.52-1.4-1.48-1.35-2.5l.12-3c.01-.3-.11-.59-.34-.79l-2.27-2,2.39-2.9c.15-.18.23-.4.23-.63v-.66c0-5.18,4.21-9.4,9.4-9.4s9.4,4.21,9.4,9.4v7.6c0,1.4.19,2.79.56,4.14l.24.86h-5.89c-.55,0-1,.45-1,1s.45,1,1,1h6.43l.55,2h-9.96l-2.04-6.31Z"/>
  <path class="cls-1" d="m15.31,5.17c-4,0-7.25,3.25-7.25,7.25s3.25,7.25,7.25,7.25,7.25-3.25,7.25-7.25-3.25-7.25-7.25-7.25Zm2.49,9.74c-.2.2-.45.29-.71.29s-.51-.1-.71-.29l-1.79-1.79c-.19-.19-.29-.44-.29-.71v-2.68c0-.55.45-1,1-1s1,.45,1,1v2.26l1.49,1.49c.39.39.39,1.02,0,1.41Z"/>
</svg>