<?xml version="1.0" encoding="UTF-8"?>
<svg id="OBJECT" xmlns="http://www.w3.org/2000/svg" viewBox="0 0 32 32">
  <defs>
    <style>
      .cls-1 {
        fill: #FD4360;
      }

      .cls-1, .cls-2 {
        stroke-width: 0px;
      }

      .cls-2 {
        fill: #dadada;
      }
    </style>
  </defs>
  <path class="cls-1" d="m28,5v-1c0-1.65-1.35-3-3-3H7c-1.65,0-3,1.35-3,3v1h24Z"/>
  <g>
    <path class="cls-2" d="m27,7c-.55,0-1,.45-1,1v17H6V8c0-.55-.45-1-1-1s-1,.45-1,1v20c0,1.65,1.35,3,3,3h18c1.65,0,3-1.35,3-3V8c0-.55-.45-1-1-1Zm-2,22H7c-.55,0-1-.45-1-1v-1h20v1c0,.55-.45,1-1,1Z"/>
    <path class="cls-2" d="m8.5,15.25h5c.55,0,1-.45,1-1v-5c0-.55-.45-1-1-1h-5c-.55,0-1,.45-1,1v5c0,.55.45,1,1,1Zm1-5h3v3h-3v-3Z"/>
    <path class="cls-2" d="m17.5,11.25h6c.55,0,1-.45,1-1s-.45-1-1-1h-6c-.55,0-1,.45-1,1s.45,1,1,1Z"/>
    <path class="cls-2" d="m17.5,14.25h2c.55,0,1-.45,1-1s-.45-1-1-1h-2c-.55,0-1,.45-1,1s.45,1,1,1Z"/>
    <path class="cls-2" d="m8.5,23.75h5c.55,0,1-.45,1-1v-5c0-.55-.45-1-1-1h-5c-.55,0-1,.45-1,1v5c0,.55.45,1,1,1Zm1-5h3v3h-3v-3Z"/>
    <path class="cls-2" d="m17.5,19.75h6c.55,0,1-.45,1-1s-.45-1-1-1h-6c-.55,0-1,.45-1,1s.45,1,1,1Z"/>
    <path class="cls-2" d="m17.5,22.75h2c.55,0,1-.45,1-1s-.45-1-1-1h-2c-.55,0-1,.45-1,1s.45,1,1,1Z"/>
  </g>
</svg>