<?xml version="1.0" encoding="UTF-8"?>
<svg id="OBJECT" xmlns="http://www.w3.org/2000/svg" viewBox="0 0 32 32">
  <defs>
    <style>
      .cls-1 {
        fill: #FD4360;
      }

      .cls-1, .cls-2 {
        stroke-width: 0px;
      }

      .cls-2 {
        fill: #dadada;
      }
    </style>
  </defs>
  <g>
    <path class="cls-2" d="m8,4c-.55,0-1,.45-1,1s.45,1,1,1h4c.55,0,1-.45,1-1s-.45-1-1-1h-4Z"/>
    <path class="cls-2" d="m18,6.26c.55,0,1-.45,1-1v-1.26c0-1.65-1.35-3-3-3H4c-1.65,0-3,1.35-3,3v24c0,1.65,1.35,3,3,3h12c1.65,0,3-1.35,3-3v-5.26c0-.55-.45-1-1-1s-1,.45-1,1v1.26H3V4c0-.55.45-1,1-1h12c.55,0,1,.45,1,1v1.26c0,.55.45,1,1,1Zm-1,19.74v2c0,.55-.45,1-1,1H4c-.55,0-1-.45-1-1v-2h14Z"/>
  </g>
  <path class="cls-1" d="m23,6c-4.41,0-8,3.59-8,8s3.59,8,8,8,8-3.59,8-8-3.59-8-8-8Zm3.53,12.53h-7.06c-.55,0-1-.45-1-1s.45-1,1-1h7.06c.55,0,1,.45,1,1s-.45,1-1,1Zm0-3.53h-7.06c-.55,0-1-.45-1-1s.45-1,1-1h7.06c.55,0,1,.45,1,1s-.45,1-1,1Zm0-3.53h-7.06c-.55,0-1-.45-1-1s.45-1,1-1h7.06c.55,0,1,.45,1,1s-.45,1-1,1Z"/>
</svg>