<?xml version="1.0" encoding="UTF-8"?>
<svg id="OBJECT" xmlns="http://www.w3.org/2000/svg" viewBox="0 0 32 32">
  <defs>
    <style>
      .cls-1 {
        fill: #FD4360;
      }

      .cls-1, .cls-2 {
        stroke-width: 0px;
      }

      .cls-2 {
        fill: #dadada;
      }
    </style>
  </defs>
  <g>
    <path class="cls-2" d="m30,29h-6v-6.03c0-.55-.45-1-1-1s-1,.45-1,1v6.03h-1.87v-8.83c0-.55-.45-1-1-1h-7.26c-.55,0-1,.45-1,1v8.83h-1.87V3h13v3.03c0,.55.45,1,1,1s1-.45,1-1V2c0-.55-.45-1-1-1h-15c-.55,0-1,.45-1,1v5.61l-3.84,4.11c-.17.19-.27.43-.27.68v16.6h-.89c-.55,0-1,.45-1,1s.45,1,1,1h28c.55,0,1-.45,1-1s-.45-1-1-1Zm-17.13-7.83h5.26v7.83h-5.26v-7.83Zm-7.98-8.37l2.11-2.26v18.46h-2.11V12.79Z"/>
    <path class="cls-2" d="m13.5,5h-1.5c-.55,0-1,.45-1,1s.45,1,1,1h1.5c.55,0,1-.45,1-1s-.45-1-1-1Z"/>
    <path class="cls-2" d="m18.5,5h-1.5c-.55,0-1,.45-1,1s.45,1,1,1h1.5c.55,0,1-.45,1-1s-.45-1-1-1Z"/>
    <path class="cls-2" d="m13.5,9h-1.5c-.55,0-1,.45-1,1s.45,1,1,1h1.5c.55,0,1-.45,1-1s-.45-1-1-1Z"/>
    <path class="cls-2" d="m18.5,9h-1.5c-.55,0-1,.45-1,1s.45,1,1,1h1.5c.55,0,1-.45,1-1s-.45-1-1-1Z"/>
    <path class="cls-2" d="m13.5,13h-1.5c-.55,0-1,.45-1,1s.45,1,1,1h1.5c.55,0,1-.45,1-1s-.45-1-1-1Z"/>
  </g>
  <path class="cls-1" d="m19,14.5c0,3.31,2.69,6,6,6s6-2.69,6-6-2.69-6-6-6-6,2.69-6,6Zm6.48.8h-.96c-.97,0-1.76-.79-1.76-1.76,0-.86.62-1.58,1.44-1.73v-.2c0-.44.36-.8.8-.8s.8.36.8.8v.16h.64c.44,0,.8.36.8.8s-.36.8-.8.8h-1.93c-.09,0-.16.07-.16.16s.07.16.16.16h.96c.97,0,1.76.79,1.76,1.76,0,.86-.62,1.58-1.44,1.73v.2c0,.44-.36.8-.8.8s-.8-.36-.8-.8v-.16h-.64c-.44,0-.8-.36-.8-.8s.36-.8.8-.8h1.93c.09,0,.16-.07.16-.16s-.07-.16-.16-.16Z"/>
</svg>