<?xml version="1.0" encoding="UTF-8"?>
<svg id="OBJECT" xmlns="http://www.w3.org/2000/svg" viewBox="0 0 32 32">
  <defs>
    <style>
      .cls-1 {
        fill: #FD4360;
      }

      .cls-1, .cls-2 {
        stroke-width: 0px;
      }

      .cls-2 {
        fill: #dadada;
      }
    </style>
  </defs>
  <g>
    <path class="cls-2" d="m30,14h-2v-6c0-.55-.45-1-1-1h-4c-.55,0-1,.45-1,1v6H2c-.55,0-1,.45-1,1v15c0,.55.45,1,1,1s1-.45,1-1v-3h16v3c0,.55.45,1,1,1h10c.55,0,1-.45,1-1v-15c0-.55-.45-1-1-1Zm-6-5h2v5h-2v-5ZM3,16h26v2H3v-2Zm0,9v-5h16v5H3Zm18,4v-9h8v9h-8Z"/>
    <path class="cls-2" d="m27,22c-.55,0-1,.45-1,1v2c0,.55.45,1,1,1s1-.45,1-1v-2c0-.55-.45-1-1-1Z"/>
  </g>
  <path class="cls-1" d="m2,11h4.5v1h2v-1h2v1h2v-1h4.5c.55,0,1-.45,1-1V2c0-.55-.45-1-1-1H2c-.55,0-1,.45-1,1v8c0,.55.45,1,1,1Z"/>
</svg>