<?xml version="1.0" encoding="UTF-8"?>
<svg id="OBJECT" xmlns="http://www.w3.org/2000/svg" viewBox="0 0 32 32">
  <defs>
    <style>
      .cls-1 {
        fill: #FD4360;
      }

      .cls-1, .cls-2 {
        stroke-width: 0px;
      }

      .cls-2 {
        fill: #dadada;
      }
    </style>
  </defs>
  <path class="cls-2" d="m19.85,23.12l.31-.94c4.01-1.64,6.84-5.58,6.84-10.18,0-6.07-4.93-11-11-11S5,5.93,5,12c0,4.59,2.83,8.53,6.84,10.18l.31.94c-4.16.25-11.15,1.08-11.15,3.88,0,3.89,13.46,4,15,4s15-.11,15-4c0-2.81-7-3.64-11.15-3.88ZM7,12c0-4.96,4.04-9,9-9s9,4.04,9,9-4.04,9-9,9-9-4.04-9-9Zm9,11c.63,0,1.24-.06,1.84-.17l-.81,2.43c-.15.44-.56.74-1.03.74s-.88-.3-1.03-.74l-.81-2.43c.6.1,1.21.17,1.84.17Zm0,6c-7.39,0-12.04-1.22-12.91-2,.7-.6,3.9-1.62,9.72-1.92l.27.81c.42,1.26,1.59,2.11,2.92,2.11s2.5-.85,2.92-2.11l.27-.81c5.82.3,9.03,1.31,9.72,1.92-.87.78-5.52,2-12.91,2Z"/>
  <path class="cls-1" d="m21,14.5h-.07c.4-.71.6-1.52.56-2.4-.08-1.76-1.1-3.21-2.58-3.69-.99-.32-1.63-.94-1.91-1.26v-.65c0-.55-.45-1-1-1s-1,.45-1,1v.65c-.28.32-.92.94-1.91,1.26-1.49.48-2.5,1.93-2.58,3.69-.04.88.17,1.69.56,2.4h-.07c-.55,0-1,.45-1,1s.45,1,1,1h10c.55,0,1-.45,1-1s-.45-1-1-1Z"/>
</svg>