<?xml version="1.0" encoding="UTF-8"?>
<svg id="OBJECT" xmlns="http://www.w3.org/2000/svg" viewBox="0 0 32 32">
  <defs>
    <style>
      .cls-1 {
        fill: #FD4360;
      }

      .cls-1, .cls-2 {
        stroke-width: 0px;
      }

      .cls-2 {
        fill: #dadada;
      }
    </style>
  </defs>
  <path class="cls-2" d="m30,29h-1v-11h1c.55,0,1-.45,1-1s-.45-1-1-1H2c-.55,0-1,.45-1,1s.45,1,1,1h1v11h-1c-.55,0-1,.45-1,1s.45,1,1,1h28c.55,0,1-.45,1-1s-.45-1-1-1Zm-3,0h-2v-11h2v11Zm-8.5,0h-5v-6c0-.55.45-1,1-1h3c.55,0,1,.45,1,1v6Zm-1-9h-3c-1.65,0-3,1.35-3,3v6h-2.5v-11h14v11h-2.5v-6c0-1.65-1.35-3-3-3Zm-12.5-2h2v11h-2v-11Z"/>
  <path class="cls-1" d="m25.81,14c.16-.63.21-1.26.19-1.84-.12-2.77-1.93-5.13-4.51-5.86-2.5-.71-3.98-2.13-4.48-2.67v-1.63c0-.55-.45-1-1-1s-1,.45-1,1v1.63c-.5.54-1.99,1.96-4.48,2.67-2.58.73-4.4,3.09-4.51,5.86-.03.59.03,1.21.19,1.84h19.61Zm-8.06-4h.5c.55,0,1,.45,1,1s-.45,1-1,1h-.5c-.55,0-1-.45-1-1s.45-1,1-1Zm-4,0h.5c.55,0,1,.45,1,1s-.45,1-1,1h-.5c-.55,0-1-.45-1-1s.45-1,1-1Z"/>
</svg>