<?xml version="1.0" encoding="UTF-8" standalone="no"?>
<svg
   id="OBJECT"
   viewBox="0 0 32 32"
   version="1.1"
   sodipodi:docname="Matriz_BCG.svg"
   inkscape:version="1.2.2 (732a01da63, 2022-12-09)"
   xml:space="preserve"
   xmlns:inkscape="http://www.inkscape.org/namespaces/inkscape"
   xmlns:sodipodi="http://sodipodi.sourceforge.net/DTD/sodipodi-0.dtd"
   xmlns="http://www.w3.org/2000/svg"
   xmlns:svg="http://www.w3.org/2000/svg"><sodipodi:namedview
     id="namedview33"
     pagecolor="#505050"
     bordercolor="#ffffff"
     borderopacity="1"
     inkscape:showpageshadow="0"
     inkscape:pageopacity="0"
     inkscape:pagecheckerboard="1"
     inkscape:deskcolor="#505050"
     showgrid="false"
     inkscape:zoom="45.254836"
     inkscape:cx="12.882601"
     inkscape:cy="16.992659"
     inkscape:window-width="1920"
     inkscape:window-height="1009"
     inkscape:window-x="-8"
     inkscape:window-y="-8"
     inkscape:window-maximized="1"
     inkscape:current-layer="OBJECT"
     showguides="false" /><defs
     id="defs4"><rect
       x="133"
       y="-140"
       width="147"
       height="84"
       id="rect1426" /><rect
       x="-166.52352"
       y="26.6345"
       width="20.612787"
       height="21.770809"
       id="rect1187" /><rect
       x="-733.72257"
       y="-443.44512"
       width="248.89747"
       height="162.43185"
       id="rect1018" /><rect
       x="-21.453739"
       y="9.2802434"
       width="25.329605"
       height="24.45617"
       id="rect348" /><style
       id="style2">
      .cls-1 {
        fill: #FD4360;
      }

      .cls-1, .cls-2 {
        stroke-width: 0px;
      }

      .cls-2 {
        fill: #dadada;
      }
    </style><rect
       x="-733.72257"
       y="-443.44512"
       width="248.89747"
       height="162.43185"
       id="rect1078" /><rect
       x="-733.72257"
       y="-443.44512"
       width="248.89747"
       height="162.43185"
       id="rect1876" /><rect
       x="-733.72257"
       y="-443.44512"
       width="248.89747"
       height="162.43185"
       id="rect1882" /><rect
       x="-166.52352"
       y="26.6345"
       width="20.612787"
       height="21.770809"
       id="rect2129" /><rect
       x="-166.52352"
       y="26.6345"
       width="20.612787"
       height="21.770809"
       id="rect4810" /><rect
       x="-166.52352"
       y="26.6345"
       width="20.612787"
       height="21.770809"
       id="rect4920" /><rect
       x="133"
       y="-140"
       width="147"
       height="84"
       id="rect1536" /><rect
       x="133"
       y="-140"
       width="147"
       height="84"
       id="rect1615" /><rect
       x="133"
       y="-140"
       width="147"
       height="84"
       id="rect2474" /></defs><path
     style="fill:#dadada;fill-opacity:1;stroke-width:0.28458;stroke-opacity:0.976471"
     d="m 22.214253,12.517943 0.07024,9.498063 c 0,0 -0.02126,0.0398 -0.102073,0.09123 -0.08081,0.05143 -0.205695,0.02694 -0.205695,0.02694 0,0 -0.129784,-0.02939 -0.161619,-0.107745 -0.03183,-0.07836 -0.01468,-9.559903 -0.01468,-9.559903 z"
     id="path4980" /><path
     style="fill:#dadada;fill-opacity:1;stroke-width:0.28458;stroke-opacity:0.976471"
     d="m 8.3422543,24.121541 h 1.7038227 l 0.01384,-1.717672 -0.4542656,-0.01259 -0.026937,1.319874 -1.32477,-0.0024 0.07591,0.401595 z"
     id="path1941" /><path
     id="path1936"
     style="fill:#dadada;fill-opacity:1;stroke-width:0.28458;stroke-opacity:0.976471"
     d="m 8.0383724,20.224093 0.00996,2.683864 -5.0543216,-0.01948 c 0,0 -0.2840193,-1.94e-4 -0.3134054,0.264272 -0.029386,0.264463 -0.029436,6.797751 -0.029436,6.797751 0,0 0.039266,0.22531 0.2155744,0.26449 0.1763108,0.03918 5.3185964,0.0097 5.3185964,0.0097 0,0 0.303777,-0.0098 0.2841872,-0.274229 -0.019587,-0.264466 -0.019692,-9.648058 -0.019692,-9.648058 z m -4.9562728,3.124754 h 4.9270546 l 0.00973,6.454692 -4.8779215,-0.02922 z" /><path
     style="fill:#dadada;fill-opacity:1;stroke-width:0.28458;stroke-opacity:0.976471"
     d="m 16.457253,12.451826 0.0024,17.549974 c 0,0 0.04848,0.138521 0.124668,0.193928 0.07619,0.05541 5.492398,0.0069 5.492398,0.0069 0,0 0.138521,-0.04848 0.159301,-0.138524 0.02077,-0.09004 0.04155,-6.233488 0.04155,-6.233488 0,0 -0.01904,-0.04848 -0.07272,-0.121207 -0.05368,-0.07272 -0.257998,-0.04675 -0.257998,-0.04675 0,0 -0.06233,0.02944 -0.09177,0.09004 -0.02943,0.0606 -0.03463,6.055143 -0.03463,6.055143 l -4.924456,-0.0069 0.01384,-17.412213 -0.40864,0.05541 z"
     id="path4982" /><path
     id="path4905"
     style="fill:#fd435f;fill-opacity:1;stroke-width:0.28458;stroke-opacity:0.976471"
     d="m 15.019016,6.2786099 c -0.191876,0.00519 -0.600841,0.053245 -0.803429,0.3545306 -0.270116,0.4017103 -0.187003,0.8726863 -0.187003,0.8726863 0,0 0.304747,1.1497335 0.35323,1.2605519 0.04848,0.1108157 0.214709,0.214709 0.214709,0.214709 v 0.1246684 c 0,0 -1.994717,1.8700489 -2.133238,2.0847579 -0.138521,0.214706 -0.0069,0.374008 -0.0069,0.374008 0,0 0.768798,0.921171 1.018138,1.045842 0.249339,0.124669 0.353232,0.02077 0.353232,0.02077 l 1.856194,-1.800786 c 0,0 -0.01384,1.502963 0.03463,1.606854 0.04848,0.103891 0.228562,0.166226 0.228562,0.166226 l 6.268118,0.02771 c 0,0 0.04848,-1.641488 0.0069,-1.786934 -0.04156,-0.145448 -0.346305,-0.152376 -0.346305,-0.152376 l -1.184364,0.01384 c 0,0 0.0069,-0.256267 0,-0.62335 -0.0069,-0.3670797 -0.02771,-0.595644 -0.02771,-0.595644 0,0 -0.03463,-0.2147117 -0.505604,-0.969652 C 19.687205,7.762078 18.856074,7.6374044 18.856074,7.6374044 l -2.805071,-0.00692 -0.09697,-0.477901 c 0,0 -0.03463,-0.2908972 -0.263192,-0.5610142 C 15.462287,6.32145 15.122907,6.2798921 15.122907,6.2798921 c 0,0 -0.03993,-0.00302 -0.103891,-0.00131 z m -0.07164,0.4488978 c 0.326862,7.867e-4 0.520539,0.2978222 0.520539,0.2978222 0,0 0.220525,0.4114646 0.205833,0.8326467 l -0.01471,0.4211926 c 0,0 -0.02943,0.190895 -0.318385,0.2692542 -0.288946,0.078359 -0.504376,0.088323 -0.587634,-0.068395 -0.08326,-0.156721 -0.245013,-0.7053798 -0.245013,-0.7053798 0,0 -0.07824,-0.3574673 -0.05865,-0.4701107 0.01959,-0.1126407 0.06362,-0.5288408 0.430934,-0.5729185 0.02297,-0.00275 0.0453,-0.00417 0.0671,-0.00412 z m 1.179817,1.3393333 1.870046,0.00692 -0.02077,1.8146384 c 0,0 -0.540237,-0.027705 -0.616425,0.013845 -0.07618,0.041555 -0.103891,0.1315956 -0.103891,0.1315956 l 0.0069,2.119386 -1.142809,0.03463 z m 2.334094,0.00692 c 0,0 0.886542,0.03463 1.336737,0.6718299 0.450196,0.6372022 0.457124,0.8588363 0.457124,0.8588363 0,0 0.03463,0.4501988 0.0277,0.5956468 -0.0069,0.145446 0.0069,0.685683 0.0069,0.685683 0,0 0.06234,0.110818 0.131596,0.145449 0.06926,0.03463 1.357515,0.02771 1.357515,0.02771 l -0.01384,1.094323 -2.174796,0.02077 c 0,0 -0.332452,-0.117743 -0.367083,-0.38786 -0.03463,-0.27012 0,-1.63456 0,-1.63456 0,0 -0.06233,-0.2354895 -0.117743,-0.2493395 -0.05541,-0.013845 -0.6372,-0.020793 -0.6372,-0.020793 z m -2.811995,0.7826482 0.02771,1.3228848 -2.015498,1.967012 -0.74109,-0.74109 z m 2.022419,1.4752608 1.080473,0.0069 0.02077,1.537594 c 0,0 0,0.08311 0.04848,0.138521 0.04848,0.05541 0.09004,0.152376 0.09004,0.152376 l -1.218991,-0.0069 z" /><path
     id="path384"
     style="fill:#fd435f;fill-opacity:1;stroke-width:0.28458;stroke-opacity:0.976471"
     d="m 10.523975,12.969439 c -0.09425,0.0058 -0.159298,0.04956 -0.159298,0.04956 l -1.4986347,1.519197 -0.063633,-0.17142 c 0,0 -0.2840194,-0.626974 -0.8521264,-0.63677 -0.5681069,-0.0098 -0.7149032,0.186141 -0.7149032,0.186141 0,0 -0.2057703,0.137171 -0.3331028,0.646508 -0.127335,0.509335 0.3331028,1.449719 0.3331028,1.449719 l 0.03333,2.963072 c 0,0 0.1177486,0.727245 0.6856851,1.336737 0.5679365,0.609492 1.6407162,0.652096 1.6407162,0.652096 l 0.00944,1.610709 c 0,0 1.480434,0.02973 1.695143,0.0021 0.214709,-0.02771 0.207782,-0.152376 0.207782,-0.152376 0,0 0.05541,-2.174793 -0.02771,-2.666547 -0.08311,-0.491754 -0.734165,-0.630275 -0.734165,-0.630275 l -0.744557,-0.0035 0.0035,-1.125489 c 0,0 2.922814,-0.0035 3.030168,-0.03809 0.107355,-0.03463 0.103891,-0.232026 0.04502,-0.301286 -0.05887,-0.06926 -0.128132,-0.08311 -0.128132,-0.08311 l -0.689146,-0.0035 c 0,0 0.01731,-1.13588 0.0035,-1.31942 -0.01384,-0.183541 -0.277042,-0.225098 -0.277042,-0.225098 l -1.845807,0.01038 c 0,0 1.451085,-1.385511 1.612698,-1.593652 0.161617,-0.208143 -0.01969,-0.413835 -0.01969,-0.413835 0,0 -0.832465,-0.903614 -1.01857,-1.013808 -0.06979,-0.04132 -0.13695,-0.05154 -0.193499,-0.04805 z m 0,0.513612 c 0,0 0.844987,0.775723 0.761874,0.789576 -0.08311,0.01384 -1.7038231,1.717672 -1.7038231,1.717672 0,0 -0.044883,0.08081 -0.049781,0.164063 -0.0049,0.08326 0.039177,2.203799 0.039177,2.203799 L 7.726265,18.337368 7.7257405,18.28975 7.6980353,16.322738 Z m -2.6749873,0.699752 c 0.023153,-5.24e-4 0.047064,2.63e-4 0.071859,0.0028 0.3966916,0.03918 0.5731335,0.714903 0.5731335,0.714903 l -0.8865415,0.852127 c 0,0 -0.2586452,-0.730211 -0.2792078,-0.91576 -0.020951,-0.189073 0.032669,-0.320802 0.033115,-0.320763 0,0 0.1403277,-0.325787 0.4876422,-0.33332 z m 2.1970893,2.285397 1.807711,0.02077 -0.02077,1.073546 -1.786934,0.0069 z m -2.3098559,2.313317 1.8492686,0.0069 -0.013845,0.585255 c 0,0 0.027705,0.08311 0.1281347,0.135057 0.100427,0.05195 0.8692256,0.01384 0.8692256,0.01384 0,0 0.294358,0.0069 0.415565,0.252803 0.121208,0.245876 0.100427,0.349769 0.100427,0.349769 l 0.03117,2.005945 -1.065186,0.01384 -0.0124,-1.38022 c 0,0 -0.01343,-0.09511 -0.1554185,-0.164372 C 9.1267799,20.4882 8.1179876,20.150347 7.8747657,19.487959 7.7120007,18.95465 7.7362421,18.781496 7.7362421,18.781496 Z"
     sodipodi:nodetypes="ccccscsccsccscscccsscccccscsscscscccccscccscsccccccccscsccccsccc" /><path
     style="fill:#dadada;fill-opacity:1;stroke-width:0.28458;stroke-opacity:0.976471"
     d="m 9.5751009,29.994872 c 0,0 0.020767,0.145449 0.124671,0.193931 0.1038907,0.04848 5.4023571,0.02077 5.4023571,0.02077 0,0 0.152374,-0.02077 0.200856,-0.131596 0.04848,-0.110816 0.04848,-12.307678 0.04848,-12.307678 0,0 -0.05541,-0.138521 -0.138523,-0.159301 -0.08311,-0.02077 -0.512532,-0.0277 -0.512532,-0.0277 0,0 -0.117743,0.09004 -0.110815,0.173151 0.0069,0.08311 -0.01384,0.131596 0.02077,0.173154 0.03463,0.04156 0.138521,0.04848 0.180079,0.04848 h 0.124668 l -0.01384,11.829777 h -4.862123 l 0.0074,-5.85409 -0.4718128,-0.0094 c -5.245e-4,1.951599 0.00184,4.049703 2.622e-4,6.05054 z"
     id="path1997"
     sodipodi:nodetypes="cscscscssscccccc" /><path
     id="path4984"
     style="fill:#fd4360;fill-opacity:0.992157;stroke-width:0.28458;stroke-opacity:0.976471"
     d="m 25.118783,2.2777064 c -0.0487,0.00157 -0.09155,0.011039 -0.119259,0.033547 -0.110818,0.090038 -0.124671,0.1939314 -0.124671,0.1939314 l 0.01384,4.4742604 0.436346,0.055408 -0.01384,-1.4059978 c 0,0 3.435345,-1.3228847 3.560014,-1.4059978 0.12467,-0.083113 0.187006,-0.2077841 0.145448,-0.3255274 C 28.975106,3.779587 28.91277,3.7380292 28.91277,3.7380292 L 25.463573,2.338959 c 0,0 -0.198694,-0.066124 -0.34479,-0.061253 z m 0.206269,0.539151 2.985149,1.1705111 -2.978224,1.2051414 z" /><path
     style="fill:#dadada;fill-opacity:1;stroke-width:0.28458;stroke-opacity:0.976471"
     d="m 24.725943,6.8478496 h 1.586077 c 0,0 0.04551,0.0086 0.08469,0.042877 0.03918,0.034281 0.02939,0.2130388 0.02939,0.2130388 0,0 0.02449,0.071015 -0.119991,0.1126433 -0.144476,0.041629 -0.217937,0.026937 -0.217937,0.026937 l -2.318962,0.00734 0.02517,22.5225473 4.903679,-0.01384 0.0225,-22.518489 h -0.563211 c 0,0 -0.07836,-0.034284 -0.112643,-0.068566 -0.03428,-0.034281 -0.03918,-0.1665146 -0.03918,-0.1665146 0,0 0,-0.097949 0.05142,-0.1175388 0.05142,-0.019587 0.849717,-0.019587 0.849717,-0.019587 0,0 0.08816,0.00734 0.129784,0.03918 0.04163,0.031833 0.0906,23.1014684 0.0906,23.1014684 0,0 0.02939,0.166515 -0.249772,0.176309 -0.279156,0.0098 -5.348061,0.01959 -5.348061,0.01959 0,0 -0.17141,-0.06856 -0.195898,-0.166515 -0.02449,-0.09795 0.0049,-22.9888253 0.0049,-22.9888253 0,0 0.03428,-0.1126433 0.122437,-0.1616165 0.08815,-0.048976 1.265277,-0.040428 1.265277,-0.040428 z"
     id="path5043" /></svg>
