<?xml version="1.0" encoding="UTF-8"?>
<svg id="OBJECT" xmlns="http://www.w3.org/2000/svg" viewBox="0 0 32 32">
  <defs>
    <style>
      .cls-1 {
        fill: #FD4360;
      }

      .cls-1, .cls-2 {
        stroke-width: 0px;
      }

      .cls-2 {
        fill: #dadada;
      }
    </style>
  </defs>
  <g>
    <path class="cls-2" d="m27.63,7.22c-.43-.35-1.06-.28-1.41.15l-3.53,4.34-.57-7.92c-.11-1.57-1.42-2.79-2.99-2.79h-10.28c-1.57,0-2.88,1.23-2.99,2.79l-1.37,19.14c-.04.55.38,1.03.93,1.07.02,0,.05,0,.07,0,.52,0,.96-.4,1-.93L7.87,3.93c.03-.52.47-.93.99-.93h10.28c.52,0,.96.41.99.93l.72,10.05-3.63,4.47c-.35.43-.28,1.06.15,1.41.18.15.41.22.63.22.29,0,.58-.13.78-.37l2.28-2.81.44,6.17c.04.55.5.96,1.07.93.55-.04.97-.52.93-1.07l-.59-8.3,4.87-6c.35-.43.28-1.06-.15-1.41Z"/>
    <path class="cls-2" d="m16,10c.55,0,1-.45,1-1s-.45-1-1-1h-1v-2c0-.55-.45-1-1-1s-1,.45-1,1v2h-1c-.55,0-1,.45-1,1s.45,1,1,1h1v2h-1c-.55,0-1,.45-1,1s.45,1,1,1h1v9c0,.55.45,1,1,1s1-.45,1-1v-9h1c.55,0,1-.45,1-1s-.45-1-1-1h-1v-2h1Z"/>
  </g>
  <path class="cls-1" d="m4.35,25l-.35,4.93c-.02.28.08.55.27.75.19.2.45.32.73.32h18c.28,0,.54-.12.73-.32.19-.2.29-.48.27-.75l-.35-4.93H4.35Zm7.15,4h-1c-.55,0-1-.45-1-1s.45-1,1-1h1c.55,0,1,.45,1,1s-.45,1-1,1Zm6,0h-1c-.55,0-1-.45-1-1s.45-1,1-1h1c.55,0,1,.45,1,1s-.45,1-1,1Z"/>
</svg>