<?xml version="1.0" encoding="UTF-8"?>
<svg id="OBJECT" xmlns="http://www.w3.org/2000/svg" viewBox="0 0 512 512">
  <defs>
    <style>
      .cls-1 {
        fill: #FD4360;
      }

      .cls-2 {
        fill: #dadada;
      }
    </style>
  </defs>
  <g>
    <path class="cls-2" d="M91,153.5c-4.14,0-7.5,3.36-7.5,7.5s3.36,7.5,7.5,7.5h10c4.14,0,7.5-3.36,7.5-7.5s-3.36-7.5-7.5-7.5h-10Z"/>
    <path class="cls-2" d="M131,153.5c-4.14,0-7.5,3.36-7.5,7.5s3.36,7.5,7.5,7.5h10c4.14,0,7.5-3.36,7.5-7.5s-3.36-7.5-7.5-7.5h-10Z"/>
    <path class="cls-2" d="M171,153.5c-4.14,0-7.5,3.36-7.5,7.5s3.36,7.5,7.5,7.5h10c4.14,0,7.5-3.36,7.5-7.5s-3.36-7.5-7.5-7.5h-10Z"/>
    <path class="cls-2" d="M499,386.22l-20-15c-1.35-1.01-3.01-1.54-4.7-1.5l-50.8,1.36v-3.86c0-4.14-3.36-7.5-7.5-7.5h-35c-12.41,0-22.5,10.09-22.5,22.5v2.5h-55.73c-8.85,0-17.36-2.07-24.6-5.99-24.96-13.54-30.52-42.16-26.94-65.79,2.53,3.47,5.44,6.48,8.72,9.01,11.74,9.04,25.34,10.85,37.31,4.96,13.01-6.4,22.1-21.21,22.09-35.99,0-13.66-7.51-25.19-20.61-31.63-9.29-4.57-18.94-5.21-27.91-1.85-6.18,2.31-11.89,6.46-16.87,12.15-.33-9.53,.4-20.31,2.19-32.01,.63-4.09-2.18-7.92-6.28-8.55-4.1-.63-7.92,2.18-8.55,6.28-3.36,21.94-3.28,40.6,.23,55.5-13.51,35.03-6.38,81.69,29.46,101.13,9.43,5.11,20.41,7.8,31.75,7.8h55.73v2.5c0,12.41,10.09,22.5,22.5,22.5h35c4.14,0,7.5-3.36,7.5-7.5v-1.13l51.2-1.37c1.55-.04,3.06-.56,4.3-1.5l20-15c1.89-1.42,3-3.64,3-6s-1.11-4.58-3-6Zm-222.9-114.75c5.14-1.92,10.38-1.51,16.02,1.27,10.1,4.97,12.23,12.63,12.23,18.18,0,9.14-5.77,18.62-13.72,22.53-6.84,3.37-14.29,2.2-21.53-3.38-5.23-4.03-9.16-10.14-11.7-18.21,4.81-10.34,11.54-17.7,18.7-20.39Zm132.4,138.25h-27.5c-4.14,0-7.5-3.36-7.5-7.5v-20c0-4.14,3.36-7.5,7.5-7.5h27.5v35Zm63.41-9.93l-48.41,1.29v-14.99l48.59-1.3,9.91,7.43-10.09,7.57Z"/>
    <path class="cls-2" d="M196,333.5h-5v-25.29c0-7.54-4.81-14.22-11.97-16.6l-18.03-6.01v-87.09h35c4.14,0,7.5-3.36,7.5-7.5s-3.36-7.5-7.5-7.5H53.5v-45H196c4.14,0,7.5-3.36,7.5-7.5s-3.36-7.5-7.5-7.5H46c-4.14,0-7.5,3.36-7.5,7.5v2.5H7.5c-4.14,0-7.5,3.36-7.5,7.5v40c0,4.14,3.36,7.5,7.5,7.5h31v2.5c0,4.14,3.36,7.5,7.5,7.5H111v87.09l-18.03,6.01c-7.16,2.39-11.97,9.06-11.97,16.6v25.29h-5c-9.65,0-17.5,7.85-17.5,17.5v7.5H7.5c-4.14,0-7.5,3.36-7.5,7.5v40c0,4.14,3.36,7.5,7.5,7.5H58.5v7.5c0,9.65,7.85,17.5,17.5,17.5h120c9.65,0,17.5-7.85,17.5-17.5v-70c0-9.65-7.85-17.5-17.5-17.5ZM15,173.5v-25h23.5v25H15Zm159.29,132.34c1.02,.34,1.71,1.29,1.71,2.37v25.29h-15v-32.09l13.29,4.43Zm-28.29-107.34v135h-20V198.5h20Zm-50,109.71c0-1.08,.69-2.03,1.71-2.37l13.29-4.43v32.09h-15v-25.29ZM15,398.5v-25H58.5v25H15Zm183.5,22.5c0,1.38-1.12,2.5-2.5,2.5H76c-1.38,0-2.5-1.12-2.5-2.5v-70c0-1.38,1.12-2.5,2.5-2.5h120c1.38,0,2.5,1.12,2.5,2.5v70Z"/>
    <path class="cls-2" d="M176,361H96c-4.14,0-7.5,3.36-7.5,7.5v35c0,4.14,3.36,7.5,7.5,7.5h80c4.14,0,7.5-3.36,7.5-7.5v-35c0-4.14-3.36-7.5-7.5-7.5Zm-72.5,15h25v20h-25v-20Zm65,20h-25v-20h25v20Z"/>
  </g>
  <g>
    <path class="cls-1" d="M233.5,101c0-4.14-3.36-7.5-7.5-7.5s-7.5,3.36-7.5,7.5v120c0,4.14,3.36,7.5,7.5,7.5s7.5-3.36,7.5-7.5v-7.08h43.5V108.08h-43.5v-7.08Zm14.25,42.5c0-4.14,3.36-7.5,7.5-7.5s7.5,3.36,7.5,7.5v5c0,4.14-3.36,7.5-7.5,7.5s-7.5-3.36-7.5-7.5v-5Zm0,30c0-4.14,3.36-7.5,7.5-7.5s7.5,3.36,7.5,7.5v5c0,4.14-3.36,7.5-7.5,7.5s-7.5-3.36-7.5-7.5v-5Z"/>
    <path class="cls-1" d="M424.5,73.5c-25.06,0-85.1,11.58-132.5,30.74v113.51c47.4,19.16,107.44,30.74,132.5,30.74,48.25,0,87.5-39.25,87.5-87.5s-39.25-87.5-87.5-87.5Zm5.14,38.11c-.26,3.97-3.56,7.01-7.48,7.01-.17,0-.33,0-.5-.02-1.08-.07-2.18-.11-3.25-.11-4.14,0-7.5-3.36-7.5-7.5s3.36-7.5,7.5-7.5c1.4,0,2.82,.05,4.23,.14,4.13,.27,7.26,3.84,6.99,7.97Zm44.86,62.97c-4.14,0-7.5-3.36-7.5-7.5,0-18.22-10.09-34.77-26.33-43.18-3.68-1.91-5.12-6.43-3.21-10.11,1.91-3.68,6.43-5.11,10.11-3.21,21.24,11,34.43,32.65,34.43,56.5,0,4.14-3.36,7.5-7.5,7.5Z"/>
  </g>
</svg>