<?xml version="1.0" encoding="UTF-8"?>
<svg id="OBJECT" xmlns="http://www.w3.org/2000/svg" viewBox="0 0 32 32">
  <defs>
    <style>
      .cls-1 {
        fill: #FD4360;
      }

      .cls-1, .cls-2 {
        stroke-width: 0px;
      }

      .cls-2 {
        fill: #dadada;
      }
    </style>
  </defs>
  <path class="cls-2" d="m28,6c-1.65,0-3,1.35-3,3v10c0,2.21-1.79,4-4,4h-10c-2.21,0-4-1.79-4-4v-10c0-1.65-1.35-3-3-3s-3,1.35-3,3v4.44c0,1.38.93,2.58,2.27,2.91l1.73.43v2.22c0,3.31,2.69,6,6,6h1.5v4h-3c-.55,0-1,.45-1,1s.45,1,1,1h13c.55,0,1-.45,1-1s-.45-1-1-1h-3v-4h1.5c3.31,0,6-2.69,6-6v-2.22l1.73-.43c1.34-.33,2.27-1.53,2.27-2.91v-4.44c0-1.65-1.35-3-3-3ZM3,13.44v-4.44c0-.55.45-1,1-1s1,.45,1,1v5.72l-1.24-.31c-.45-.11-.76-.51-.76-.97Zm14.5,15.56h-3v-4h3v4Zm11.5-15.56c0,.46-.31.86-.76.97l-1.24.31v-5.72c0-.55.45-1,1-1s1,.45,1,1v4.44Z"/>
  <path class="cls-1" d="m13,21h6c1.65,0,3-1.35,3-3v-2h-12v2c0,1.65,1.35,3,3,3Z"/>
  <path class="cls-1" d="m22,4c0-1.65-1.35-3-3-3h-6c-1.65,0-3,1.35-3,3v10h12V4Zm-4.5,6.5h-3c-.55,0-1-.45-1-1s.45-1,1-1h3c.55,0,1,.45,1,1s-.45,1-1,1Zm0-4h-3c-.55,0-1-.45-1-1s.45-1,1-1h3c.55,0,1,.45,1,1s-.45,1-1,1Z"/>
</svg>