<?xml version="1.0" encoding="UTF-8"?>
<svg id="OBJECT" xmlns="http://www.w3.org/2000/svg" viewBox="0 0 32 32">
  <defs>
    <style>
      .cls-1 {
        fill: #FD4360;
      }

      .cls-1, .cls-2 {
        stroke-width: 0px;
      }

      .cls-2 {
        fill: #dadada;
      }
    </style>
  </defs>
  <path class="cls-2" d="m25.5,7c-1.38,0-2.5,1.12-2.5,2.5v6.5c0,.55.45,1,1,1h.5v4c0,1.1-.9,2-2,2h-13c-1.1,0-2-.9-2-2v-4h.5c.55,0,1-.45,1-1v-6.5c0-1.38-1.12-2.5-2.5-2.5s-2.5,1.12-2.5,2.5v6.5c0,.55.45,1,1,1h.5v4c0,2.21,1.79,4,4,4h3.5v4h-3c-.55,0-1,.45-1,1s.45,1,1,1h12c.55,0,1-.45,1-1s-.45-1-1-1h-3v-4h3.5c2.21,0,4-1.79,4-4v-4h.5c.55,0,1-.45,1-1v-6.5c0-1.38-1.12-2.5-2.5-2.5Zm-19.5,2.5c0-.28.22-.5.5-.5s.5.22.5.5v5.5h-1v-5.5Zm11,19.5h-2v-4h2v4Zm8-19.5c0-.28.22-.5.5-.5s.5.22.5.5v5.5h-1v-5.5Z"/>
  <g>
    <path class="cls-1" d="m10.5,17c0,2.21,1.79,4,4,4h3c2.21,0,4-1.79,4-4v-1h-11v1Z"/>
    <path class="cls-1" d="m17.5,1h-3c-2.21,0-4,1.79-4,4v9h11V5c0-2.21-1.79-4-4-4Zm-.5,9.5h-2c-.55,0-1-.45-1-1s.45-1,1-1h2c.55,0,1,.45,1,1s-.45,1-1,1Zm0-4h-2c-.55,0-1-.45-1-1s.45-1,1-1h2c.55,0,1,.45,1,1s-.45,1-1,1Z"/>
  </g>
</svg>