<?xml version="1.0" encoding="UTF-8"?>
<svg id="OBJECT" xmlns="http://www.w3.org/2000/svg" viewBox="0 0 32 32">
  <defs>
    <style>
      .cls-1 {
        fill: #FD4360;
      }

      .cls-1, .cls-2 {
        stroke-width: 0px;
      }

      .cls-2 {
        fill: #dadada;
      }
    </style>
  </defs>
  <g>
    <path class="cls-2" d="m3.46,27.35l3.98-2.13.26.26c.58.58,1.35.87,2.12.87.63,0,1.26-.2,1.8-.6l9.56-7.17.11.11c.48.48,1.12.75,1.8.75s1.32-.27,1.8-.75l.73-.73c.99-.99.99-2.6,0-3.6l-8-8c-.96-.96-2.64-.96-3.6,0l-.73.73c-.48.48-.75,1.12-.75,1.8s.27,1.32.75,1.8l.11.11-7.17,9.56c-.74.98-.77,2.3-.17,3.32l-3.55,1.9c-.93.51-1.51,1.47-1.51,2.53,0,1.59,1.29,2.88,2.88,2.88h19.12c.55,0,1-.45,1-1s-.45-1-1-1H3.88c-.49,0-.88-.39-.88-.88,0-.32.18-.62.46-.77ZM14.71,8.52l.73-.73c.2-.21.56-.21.77,0l8,8c.21.21.21.56,0,.77l-.73.73c-.21.21-.56.2-.77,0l-8-8c-.1-.1-.16-.24-.16-.38s.06-.28.16-.38Zm5.05,8.64l-6.7,5.02-3.24-3.24,5.02-6.7,4.92,4.92Zm-11.92,4.41l.76-1.02,2.84,2.84-1.02.76c-.39.3-.96.26-1.31-.09l-1.18-1.18c-.35-.35-.39-.91-.09-1.31Z"/>
    <path class="cls-2" d="m27,29h-.5c-.55,0-1,.45-1,1s.45,1,1,1h.5c.55,0,1-.45,1-1s-.45-1-1-1Z"/>
    <path class="cls-2" d="m13.66,18.34c.2.2.45.29.71.29s.51-.1.71-.29l1.46-1.46c.39-.39.39-1.02,0-1.41-.39-.39-1.02-.39-1.41,0l-1.46,1.46c-.39.39-.39,1.02,0,1.41Z"/>
  </g>
  <path class="cls-1" d="m28.04,13.96c.3-.22.59-.45.86-.72,1.36-1.35,2.1-3.16,2.1-5.07s-.75-3.72-2.1-5.07c-2.8-2.8-7.35-2.8-10.14,0-.27.27-.5.56-.72.86l10,10Zm-2.1-6.91c-.39-.39-.39-1.02,0-1.41.39-.39,1.02-.39,1.41,0,1.39,1.39,1.39,3.66,0,5.05-.2.2-.45.29-.71.29s-.51-.1-.71-.29c-.39-.39-.39-1.02,0-1.41.61-.61.61-1.61,0-2.22Z"/>
</svg>