<?xml version="1.0" encoding="UTF-8" standalone="no"?>
<svg
   id="OBJECT"
   viewBox="0 0 32 32"
   version="1.1"
   sodipodi:docname="Microfone.svg"
   xml:space="preserve"
   inkscape:version="1.2.2 (732a01da63, 2022-12-09)"
   xmlns:inkscape="http://www.inkscape.org/namespaces/inkscape"
   xmlns:sodipodi="http://sodipodi.sourceforge.net/DTD/sodipodi-0.dtd"
   xmlns="http://www.w3.org/2000/svg"
   xmlns:svg="http://www.w3.org/2000/svg"><sodipodi:namedview
     id="namedview13"
     pagecolor="#505050"
     bordercolor="#ffffff"
     borderopacity="1"
     inkscape:showpageshadow="0"
     inkscape:pageopacity="0"
     inkscape:pagecheckerboard="1"
     inkscape:deskcolor="#505050"
     showgrid="false"
     inkscape:zoom="1.1449053"
     inkscape:cx="-282.55612"
     inkscape:cy="84.723164"
     inkscape:window-width="1920"
     inkscape:window-height="1009"
     inkscape:window-x="-8"
     inkscape:window-y="-8"
     inkscape:window-maximized="1"
     inkscape:current-layer="OBJECT" /><defs
     id="defs4"><style
       id="style2">
      .cls-1 {
        fill: #FD4360;
      }

      .cls-1, .cls-2 {
        stroke-width: 0px;
      }

      .cls-2 {
        fill: #dadada;
      }
    </style></defs><circle
     style="fill:#fd4360;fill-opacity:1;stroke-width:0.522077"
     id="path2755"
     cx="15.851848"
     cy="16.475883"
     r="13.587455" /><path
     style="fill:#dadada;fill-opacity:1;stroke-width:0.215288"
     d="m 13.120462,16.939679 c -0.04762,0 -0.409527,-0.352384 -0.409527,-0.352384 0,0 -0.895247,0.06667 -1.571445,-0.104764 -0.676199,-0.17143 -0.961915,-0.438099 -0.961915,-0.438099 0,0 -0.08008,-0.07109 -0.1810972,-0.01722 -0.1010164,0.05387 -0.1683611,0.07744 -0.2357058,0.0067 -0.067343,-0.07066 -0.7677233,-0.865324 -0.7677233,-0.865324 l 0.1582592,-0.02021 c 0,0 0.084179,-0.03704 0.043771,-0.111119 -0.040406,-0.07408 -0.5699026,-0.926173 -0.4746627,-1.82142 0.095238,-0.895249 0.3428591,-1.457159 0.3428591,-1.457159 0,0 0.7047699,-1.247632 1.5619217,-1.7714467 0.857151,-0.5238143 1.904781,-0.6000063 1.904781,-0.6000063 0,0 0.723818,0 1.180965,0.152383 0.457148,0.152382 1.152393,0.571434 1.152393,0.571434 l 0.01905,-0.1428587 0.819055,0.8047697 c 0,0 0.05714,0.07143 0.03334,0.176193 -0.02381,0.104763 -0.09524,0.180954 -0.0095,0.304765 0.08571,0.123811 0.347622,0.619054 0.41429,1.228584 0.06667,0.60953 -0.01905,0.923819 -0.01905,0.923819 0,0 -0.0095,0.295242 0.161906,0.161907 0.171431,-0.133335 1.43811,-1.076202 1.43811,-1.076202 l 2.613302,2.92237 -1.373822,1.481572 4.714094,5.69732 c 0,0 -0.02694,0.619566 -0.22897,0.888944 -0.202033,0.269377 -0.983225,0.727317 -0.983225,0.727317 0,0 -0.122284,0.06355 -0.417524,0.144505 -0.295242,0.08095 -0.428577,0.05714 -0.428577,0.05714 l -5.400056,-4.728621 -1.114297,1.17144 -2.809553,-2.504787 z"
     id="path428" /></svg>
