<?xml version="1.0" encoding="UTF-8"?>
<svg id="OBJECT" xmlns="http://www.w3.org/2000/svg" viewBox="0 0 32 32">
  <defs>
    <style>
      .cls-1 {
        fill: #FD4360;
      }

      .cls-1, .cls-2 {
        stroke-width: 0px;
      }

      .cls-2 {
        fill: #dadada;
      }
    </style>
  </defs>
  <path class="cls-2" d="m28,9c-1.65,0-3,1.35-3,3v6c0,2.76-2.24,5-5,5h-8c-2.76,0-5-2.24-5-5v-6c0-1.65-1.35-3-3-3s-3,1.35-3,3v4c0,1.65,1.35,3,3,3h1.08c.49,3.39,3.4,6,6.92,6h1v4h-5c-.55,0-1,.45-1,1s.45,1,1,1h16c.55,0,1-.45,1-1s-.45-1-1-1h-5v-4h1c3.52,0,6.43-2.61,6.92-6h1.08c1.65,0,3-1.35,3-3v-4c0-1.65-1.35-3-3-3ZM3,16v-4c0-.55.45-1,1-1s1,.45,1,1v5h-1c-.55,0-1-.45-1-1Zm14,13h-2v-4h2v4Zm12-13c0,.55-.45,1-1,1h-1v-5c0-.55.45-1,1-1s1,.45,1,1v4Z"/>
  <g>
    <path class="cls-1" d="m20,1h-8c-1.1,0-2,.9-2,2v10h12V3c0-1.1-.9-2-2-2Zm-3.5,10h-1c-.55,0-1-.45-1-1s.45-1,1-1h1c.55,0,1,.45,1,1s-.45,1-1,1Zm0-4h-1c-.55,0-1-.45-1-1s.45-1,1-1h1c.55,0,1,.45,1,1s-.45,1-1,1Z"/>
    <path class="cls-1" d="m10,17c0,1.1.9,2,2,2h8c1.1,0,2-.9,2-2v-2h-12v2Z"/>
  </g>
</svg>