<?xml version="1.0" encoding="UTF-8"?>
<svg id="OBJECT" xmlns="http://www.w3.org/2000/svg" viewBox="0 0 512 512">
  <defs>
    <style>
      .cls-1 {
        fill: #FD4360;
      }

      .cls-2 {
        fill: #dadada;
      }
    </style>
  </defs>
  <g>
    <path class="cls-2" d="M406,373.5c-4.14,0-7.5,3.36-7.5,7.5v93.5c0,12.41-10.09,22.5-22.5,22.5h-30c-12.41,0-22.5-10.09-22.5-22.5V217.5c0-20.68-16.82-37.5-37.5-37.5h-10c-20.68,0-37.5,16.82-37.5,37.5V474.5c0,12.41-10.09,22.5-22.5,22.5h-35c-12.41,0-22.5-10.09-22.5-22.5v-22.5h8.48c11.8,0,21.66-9.22,22.45-20.99l15.4-228.66c13.85-5.52,23.68-19.05,23.68-34.85V37.5c0-20.68-16.82-37.5-37.5-37.5H111c-20.68,0-37.5,16.82-37.5,37.5V167.5c0,15.8,9.82,29.33,23.68,34.85l15.4,228.66c.79,11.77,10.65,20.99,22.45,20.99h8.48v22.5c0,20.68,16.82,37.5,37.5,37.5h35c20.68,0,37.5-16.82,37.5-37.5V217.5c0-12.41,10.09-22.5,22.5-22.5h10c12.41,0,22.5,10.09,22.5,22.5V474.5c0,20.68,16.82,37.5,37.5,37.5h30c20.68,0,37.5-16.82,37.5-37.5v-93.5c0-4.14-3.36-7.5-7.5-7.5ZM111,15h80c12.41,0,22.5,10.09,22.5,22.5v92.5H88.5V37.5c0-12.41,10.09-22.5,22.5-22.5Zm-22.5,152.5v-22.5h125v22.5c0,12.41-10.09,22.5-22.5,22.5H111c-12.41,0-22.5-10.09-22.5-22.5Zm23.89,37.5h77.22l-11.58,172h-54.06l-11.58-172Zm15.15,225l-2.56-38h52.04l-2.56,38c-.26,3.92-3.55,7-7.48,7h-31.95c-3.93,0-7.22-3.07-7.48-7Z"/>
    <path class="cls-2" d="M146,305h10c9.65,0,17.5-7.85,17.5-17.5v-40c0-9.65-7.85-17.5-17.5-17.5h-10c-9.65,0-17.5,7.85-17.5,17.5v40c0,9.65,7.85,17.5,17.5,17.5Zm10-15h-10c-1.38,0-2.5-1.12-2.5-2.5v-12.5h15v12.5c0,1.38-1.12,2.5-2.5,2.5Zm-10-45h10c1.38,0,2.5,1.12,2.5,2.5v12.5h-15v-12.5c0-1.38,1.12-2.5,2.5-2.5Z"/>
    <path class="cls-2" d="M156,50h10c6.89,0,12.5,5.61,12.5,12.5v30c0,4.14,3.36,7.5,7.5,7.5s7.5-3.36,7.5-7.5v-30c0-15.16-12.34-27.5-27.5-27.5h-10c-4.14,0-7.5,3.36-7.5,7.5s3.36,7.5,7.5,7.5Z"/>
    <path class="cls-2" d="M126,50h5c4.14,0,7.5-3.36,7.5-7.5s-3.36-7.5-7.5-7.5h-5c-4.14,0-7.5,3.36-7.5,7.5s3.36,7.5,7.5,7.5Z"/>
    <path class="cls-2" d="M163.5,414.5c0-4.14-3.36-7.5-7.5-7.5h-10c-4.14,0-7.5,3.36-7.5,7.5s3.36,7.5,7.5,7.5h10c4.14,0,7.5-3.36,7.5-7.5Z"/>
    <path class="cls-2" d="M118.5,175c4.14,0,7.5-3.36,7.5-7.5s-3.36-7.5-7.5-7.5h-5c-4.14,0-7.5,3.36-7.5,7.5s3.36,7.5,7.5,7.5h5Z"/>
    <path class="cls-2" d="M146,175h10c4.14,0,7.5-3.36,7.5-7.5s-3.36-7.5-7.5-7.5h-10c-4.14,0-7.5,3.36-7.5,7.5s3.36,7.5,7.5,7.5Z"/>
    <path class="cls-2" d="M183.5,175h5c4.14,0,7.5-3.36,7.5-7.5s-3.36-7.5-7.5-7.5h-5c-4.14,0-7.5,3.36-7.5,7.5s3.36,7.5,7.5,7.5Z"/>
  </g>
  <g>
    <rect class="cls-1" x="373.5" y="233.5" width="65" height="85"/>
    <path class="cls-1" d="M373.5,348.5c0,5.52,4.48,10,10,10h45c5.52,0,10-4.48,10-10v-15h-65v15Z"/>
    <path class="cls-1" d="M423.5,116c0-.81-.13-1.61-.38-2.37l-10-30c-1.02-3.06-3.89-5.13-7.12-5.13s-6.09,2.07-7.12,5.13l-10,30c-.25,.76-.38,1.57-.38,2.37v102.5h35V116Z"/>
  </g>
</svg>