<?xml version="1.0" encoding="UTF-8"?>
<svg id="OBJECT" xmlns="http://www.w3.org/2000/svg" viewBox="0 0 32 32">
  <defs>
    <style>
      .cls-1 {
        fill: #FD4360;
      }

      .cls-1, .cls-2 {
        stroke-width: 0px;
      }

      .cls-2 {
        fill: #dadada;
      }
    </style>
  </defs>
  <g>
    <path class="cls-2" d="m22,24H3V6h19c.55,0,1-.45,1-1s-.45-1-1-1H2c-.55,0-1,.45-1,1v22c0,.55.45,1,1,1s1-.45,1-1v-1h19c.55,0,1-.45,1-1s-.45-1-1-1Z"/>
    <path class="cls-2" d="m19.5,12h2.5c.55,0,1-.45,1-1s-.45-1-1-1h-2.5c-1.38,0-2.5,1.12-2.5,2.5v5c0,1.38,1.12,2.5,2.5,2.5h2.5c.55,0,1-.45,1-1s-.45-1-1-1h-2.5c-.28,0-.5-.22-.5-.5v-5c0-.28.22-.5.5-.5Z"/>
    <path class="cls-2" d="m12.59,17.15c.25,0,.51-.1.7-.29.39-.39.4-1.02,0-1.41-.78-.78-1.81-1.22-2.91-1.22s-2.13.43-2.91,1.22c-.39.39-.38,1.03,0,1.41.39.39,1.02.38,1.41,0,.8-.8,2.18-.8,2.97,0,.2.2.45.3.71.3Z"/>
    <path class="cls-2" d="m14.78,13.93c.25,0,.51-.1.7-.29.39-.39.4-1.02,0-1.41-1.36-1.38-3.17-2.13-5.1-2.13s-3.74.76-5.1,2.13c-.39.39-.38,1.03,0,1.41.39.39,1.03.38,1.42,0,.98-.99,2.29-1.54,3.68-1.54s2.7.55,3.68,1.54c.2.2.45.3.71.3Z"/>
    <path class="cls-2" d="m10.15,17.9c-.55,0-1,.45-1,1s.45,1,1,1h.49c.55,0,1-.45,1-1s-.45-1-1-1h-.49Z"/>
  </g>
  <g>
    <path class="cls-1" d="m30,4h-5v6h6v-5c0-.55-.45-1-1-1Z"/>
    <path class="cls-1" d="m25,26h4v1c0,.55.45,1,1,1s1-.45,1-1v-15h-6v14Zm2.75-12h.5c.55,0,1,.45,1,1s-.45,1-1,1h-.5c-.55,0-1-.45-1-1s.45-1,1-1Zm0,4h.5c.55,0,1,.45,1,1s-.45,1-1,1h-.5c-.55,0-1-.45-1-1s.45-1,1-1Z"/>
  </g>
</svg>