<?xml version="1.0" encoding="UTF-8"?>
<svg id="OBJECT" xmlns="http://www.w3.org/2000/svg" viewBox="0 0 32 32">
  <defs>
    <style>
      .cls-1 {
        fill: #FD4360;
      }

      .cls-1, .cls-2 {
        stroke-width: 0px;
      }

      .cls-2 {
        fill: #dadada;
      }
    </style>
  </defs>
  <path class="cls-2" d="m28,5c-1.65,0-3,1.35-3,3v11c0,1.65-1.35,3-3,3h-12c-1.65,0-3-1.35-3-3v-11c0-1.65-1.35-3-3-3s-3,1.35-3,3v4c0,1.65,1.35,3,3,3h1v4c0,2.76,2.24,5,5,5h3v5h-4c-.55,0-1,.45-1,1s.45,1,1,1h14c.55,0,1-.45,1-1s-.45-1-1-1h-4v-5h3c2.76,0,5-2.24,5-5v-4h1c1.65,0,3-1.35,3-3v-4c0-1.65-1.35-3-3-3ZM3,12v-4c0-.55.45-1,1-1s1,.45,1,1v5h-1c-.55,0-1-.45-1-1Zm14,17h-2v-5h2v5Zm12-17c0,.55-.45,1-1,1h-1v-5c0-.55.45-1,1-1s1,.45,1,1v4Z"/>
  <g>
    <path class="cls-1" d="m10,16c0,1.65,1.35,3,3,3h6c1.65,0,3-1.35,3-3v-1h-12v1Z"/>
    <path class="cls-1" d="m19,1h-6c-1.65,0-3,1.35-3,3v9h12V4c0-1.65-1.35-3-3-3Zm-1.5,9h-3c-.55,0-1-.45-1-1s.45-1,1-1h3c.55,0,1,.45,1,1s-.45,1-1,1Zm0-4h-3c-.55,0-1-.45-1-1s.45-1,1-1h3c.55,0,1,.45,1,1s-.45,1-1,1Z"/>
  </g>
</svg>