<?xml version="1.0" encoding="UTF-8"?>
<svg id="OBJECT" xmlns="http://www.w3.org/2000/svg" viewBox="0 0 32 32">
  <defs>
    <style>
      .cls-1 {
        fill: #FD4360;
      }

      .cls-2 {
        fill: #dadada;
      }
    </style>
  </defs>
  <path class="cls-2" d="M28.5,8h-1c-1.38,0-2.5,1.12-2.5,2.5v3c0,1.21,.86,2.22,2,2.45v4.05c0,1.65-1.35,3-3,3H8c-1.65,0-3-1.35-3-3v-4.05c1.14-.23,2-1.24,2-2.45v-3c0-1.38-1.12-2.5-2.5-2.5h-1c-1.38,0-2.5,1.12-2.5,2.5v3c0,1.21,.86,2.22,2,2.45v4.05c0,2.76,2.24,5,5,5h5v4h-5c-.55,0-1,.45-1,1s.45,1,1,1H24c.55,0,1-.45,1-1s-.45-1-1-1h-5v-4h5c2.76,0,5-2.24,5-5v-4.05c1.14-.23,2-1.24,2-2.45v-3c0-1.38-1.12-2.5-2.5-2.5ZM3,10.5c0-.28,.22-.5,.5-.5h1c.28,0,.5,.22,.5,.5v3c0,.28-.22,.5-.5,.5h-1c-.28,0-.5-.22-.5-.5v-3Zm14,18.5h-2v-4h2v4Zm12-15.5c0,.28-.22,.5-.5,.5h-1c-.28,0-.5-.22-.5-.5v-3c0-.28,.22-.5,.5-.5h1c.28,0,.5,.22,.5,.5v3Z"/>
  <g>
    <path class="cls-1" d="M20,1H12c-1.1,0-2,.9-2,2V13h12V3c0-1.1-.9-2-2-2Zm-2.25,9h-3.5c-.55,0-1-.45-1-1s.45-1,1-1h3.5c.55,0,1,.45,1,1s-.45,1-1,1Zm0-4h-3.5c-.55,0-1-.45-1-1s.45-1,1-1h3.5c.55,0,1,.45,1,1s-.45,1-1,1Z"/>
    <path class="cls-1" d="M10,19c0,1.1,.9,2,2,2h8c1.1,0,2-.9,2-2v-4H10v4Zm5.5-2h1c.55,0,1,.45,1,1s-.45,1-1,1h-1c-.55,0-1-.45-1-1s.45-1,1-1Z"/>
  </g>
</svg>