<?xml version="1.0" encoding="UTF-8"?>
<svg id="OBJECT" xmlns="http://www.w3.org/2000/svg" viewBox="0 0 32 32">
  <defs>
    <style>
      .cls-1 {
        fill: #FD4360;
      }

      .cls-1, .cls-2 {
        stroke-width: 0px;
      }

      .cls-2 {
        fill: #dadada;
      }
    </style>
  </defs>
  <g>
    <path class="cls-2" d="m22,14c-5.05,0-9,2.42-9,5.5v6c0,3.08,3.95,5.5,9,5.5s9-2.42,9-5.5v-6c0-3.08-3.95-5.5-9-5.5Zm0,2c4.12,0,7,1.84,7,3.5s-2.88,3.5-7,3.5-7-1.84-7-3.5,2.88-3.5,7-3.5Zm0,13c-4.12,0-7-1.84-7-3.5v-2.51c1.64,1.23,4.14,2.01,7,2.01s5.36-.78,7-2.01v2.51c0,1.66-2.88,3.5-7,3.5Z"/>
    <path class="cls-2" d="m21,20.5h2c.55,0,1-.45,1-1s-.45-1-1-1h-2c-.55,0-1,.45-1,1s.45,1,1,1Z"/>
    <path class="cls-2" d="m17.5,20.5h.47c.55,0,1-.45,1-1s-.45-1-1-1h-.47c-.55,0-1,.45-1,1s.45,1,1,1Z"/>
    <path class="cls-2" d="m26.03,20.5h.47c.55,0,1-.45,1-1s-.45-1-1-1h-.47c-.55,0-1,.45-1,1s.45,1,1,1Z"/>
  </g>
  <g>
    <path class="cls-1" d="m12.22,3.37c-.44-.33-1.07-.24-1.4.2L2.21,15.01c-.33.44-.24,1.07.2,1.4.18.14.39.2.6.2.3,0,.6-.14.8-.4L12.42,4.77c.33-.44.24-1.07-.2-1.4Z"/>
    <path class="cls-1" d="m9.56,2.25c-.6-.44-1.33-.84-2.18-1.06-1.87-.48-3.86-.04-5.92,1.31-.29.19-.47.53-.45.88s.21.67.52.84c1.57.85,3.23,1.95,4.36,2.92l3.68-4.89Z"/>
    <path class="cls-1" d="m15.66,7.42c-.37-.63-.84-1.13-1.32-1.55l-3.66,4.86c1.17.82,2.54,1.98,3.69,3.15.19.19.45.3.71.3.08,0,.16,0,.24-.03.34-.08.62-.34.72-.68.73-2.35.6-4.39-.38-6.05Z"/>
  </g>
</svg>