<?xml version="1.0" encoding="UTF-8"?>
<svg id="OBJECT" xmlns="http://www.w3.org/2000/svg" viewBox="0 0 32 32">
  <defs>
    <style>
      .cls-1 {
        fill: #FD4360;
      }

      .cls-1, .cls-2 {
        stroke-width: 0px;
      }

      .cls-2 {
        fill: #dadada;
      }
    </style>
  </defs>
  <path class="cls-2" d="m30,9c.55,0,1-.45,1-1V3c0-.55-.45-1-1-1h-5.5c0-.55-.45-1-1-1s-1,.45-1,1v12h-1.5c-.55,0-1,.45-1,1v14h-2.5v-8c0-.55-.45-1-1-1h-5c-.55,0-1,.45-1,1v8h-4.5c-.55,0-1,.45-1,1s.45,1,1,1h24c.55,0,1-.45,1-1s-.45-1-1-1h-3v-14c0-.55-.45-1-1-1h-1.5v-5h5.5Zm-17.5,13h3v7h-3v-7Zm12.5,7h-3v-13h3v13Zm4-25v3h-4.5v-3h4.5Z"/>
  <g>
    <path class="cls-1" d="m21,5.47c0-.81-.32-1.58-.89-2.16l-1.45-1.45c-1.15-1.15-3.16-1.15-4.31,0l-1.47,1.47-.02-.02c-.39-.39-1.02-.39-1.41,0s-.39,1.02,0,1.41l5.8,5.8c.2.2.45.29.71.29s.51-.1.71-.29c.39-.39.39-1.02,0-1.41l-.02-.02,1.47-1.47c.58-.58.89-1.34.89-2.16Z"/>
    <path class="cls-1" d="m10.26,13.12c.68.86,1.18,1.84,1.48,2.87l4.07-4.07-2.18-2.18-3.37,3.37Z"/>
    <path class="cls-1" d="m4.34,11.92c-.74.87-1.24,1.94-1.4,3.07l-.44,3.05-1.21,1.21c-.39.39-.39,1.02,0,1.41.2.2.45.29.71.29s.51-.1.71-.29l1.21-1.21,3.05-.44c1.13-.16,2.2-.66,3.07-1.4-.17-1.44-.81-2.78-1.86-3.84-1.06-1.06-2.4-1.7-3.84-1.87Z"/>
    <path class="cls-1" d="m12.22,8.34l-2.18-2.18-4.07,4.07c1.03.3,2.01.8,2.87,1.48l3.37-3.37Z"/>
  </g>
</svg>