<?xml version="1.0" encoding="UTF-8"?>
<svg id="OBJECT" xmlns="http://www.w3.org/2000/svg" viewBox="0 0 32 32">
  <defs>
    <style>
      .cls-1 {
        fill: #FD4360;
      }

      .cls-1, .cls-2 {
        stroke-width: 0px;
      }

      .cls-2 {
        fill: #dadada;
      }
    </style>
  </defs>
  <g>
    <path class="cls-2" d="m7.5,27c0,.55.45,1,1,1h7c.55,0,1-.45,1-1s-.45-1-1-1h-7c-.55,0-1,.45-1,1Z"/>
    <path class="cls-2" d="m12.5,6c.55,0,1-.45,1-1s-.45-1-1-1h-1c-.55,0-1,.45-1,1s.45,1,1,1h1Z"/>
    <path class="cls-2" d="m19,8c.55,0,1-.45,1-1v-3c0-1.65-1.35-3-3-3H7c-1.65,0-3,1.35-3,3v24c0,1.65,1.35,3,3,3h10c1.65,0,3-1.35,3-3v-2c0-.55-.45-1-1-1s-1,.45-1,1v2c0,.55-.45,1-1,1H7c-.55,0-1-.45-1-1V4c0-.55.45-1,1-1h10c.55,0,1,.45,1,1v3c0,.55.45,1,1,1Z"/>
  </g>
  <rect class="cls-1" x="17.5" y="17.5" width="4" height="2.5"/>
  <polygon class="cls-1" points="18.53 13 16 14.39 16 15.5 23 15.5 23 14.39 20.47 13 18.53 13"/>
  <path class="cls-1" d="m25,9h-11c-1.65,0-3,1.35-3,3v9c0,1.65,1.35,3,3,3h11c1.65,0,3-1.35,3-3v-9c0-1.65-1.35-3-3-3Zm0,7.5c0,.55-.45,1-1,1h-.5v2.5h.5c.55,0,1,.45,1,1s-.45,1-1,1h-9c-.55,0-1-.45-1-1s.45-1,1-1h.5v-2.5h-.5c-.55,0-1-.45-1-1v-2.7c0-.36.2-.7.52-.88l3.27-1.8c.15-.08.31-.12.48-.12h2.46c.17,0,.33.04.48.12l3.27,1.8c.32.18.52.51.52.88v2.7Z"/>
</svg>