<?xml version="1.0" encoding="UTF-8"?>
<svg id="OBJECT" xmlns="http://www.w3.org/2000/svg" viewBox="0 0 32 32">
  <defs>
    <style>
      .cls-1 {
        fill: #FD4360;
      }

      .cls-1, .cls-2 {
        stroke-width: 0px;
      }

      .cls-2 {
        fill: #dadada;
      }
    </style>
  </defs>
  <path class="cls-1" d="m26.82,10.2c-1.08-1.58-2.79-2.59-4.68-2.75-.42-.04-.85-.04-1.27,0-1.89.17-3.6,1.17-4.68,2.75-1.14,1.66-1.48,3.72-.92,5.64.15.51.38,1.03.72,1.58l4.7,8.67c.16.3.47.49.82.49s.65-.19.82-.49l4.68-8.63c.36-.6.6-1.11.74-1.62.55-1.92.22-3.98-.92-5.64Zm-5.32,7.8c-2.21,0-4-1.79-4-4s1.79-4,4-4,4,1.79,4,4-1.79,4-4,4Z"/>
  <circle class="cls-1" cx="21.5" cy="14" r="2"/>
  <g>
    <path class="cls-2" d="m10.54,4c-.55,0-1,.45-1,1s.45,1,1,1h5c.55,0,1-.45,1-1s-.45-1-1-1h-5Z"/>
    <path class="cls-2" d="m19.59,1H6.5c-1.38,0-2.5,1.12-2.5,2.5v25c0,1.38,1.12,2.5,2.5,2.5h13.09c.55,0,1-.45,1-1s-.45-1-1-1H6.5c-.28,0-.5-.22-.5-.5v-2.5h10.59c.55,0,1-.45,1-1s-.45-1-1-1H6V3.5c0-.28.22-.5.5-.5h13.09c.28,0,.5.22.5.5v1.18c0,.55.45,1,1,1s1-.45,1-1v-1.18c0-1.38-1.12-2.5-2.5-2.5Z"/>
  </g>
</svg>