<?xml version="1.0" encoding="UTF-8"?>
<svg id="OBJECT" xmlns="http://www.w3.org/2000/svg" viewBox="0 0 32 32">
  <defs>
    <style>
      .cls-1 {
        fill: #FD4360;
      }

      .cls-1, .cls-2 {
        stroke-width: 0px;
      }

      .cls-2 {
        fill: #dadada;
      }
    </style>
  </defs>
  <g>
    <path class="cls-1" d="m20,26h-8c-.55,0-1-.45-1-1s.45-1,1-1h8c.55,0,1,.45,1,1s-.45,1-1,1Z"/>
    <path class="cls-1" d="m19.38,10.2h-6.75c-1.17,0-2.12.95-2.12,2.12v7.35c0,1.17.95,2.12,2.12,2.12h6.75c1.17,0,2.12-.95,2.12-2.12v-7.35c0-1.17-.95-2.12-2.12-2.12Zm-.77,5.53c0,1.21-.99,2.2-2.2,2.2h-.8c-1.21,0-2.2-.99-2.2-2.2v-1.47c0-.55.45-1,1-1s1,.45,1,1v1.47c0,.11.09.2.2.2h.8c.11,0,.2-.09.2-.2v-1.47c0-.55.45-1,1-1s1,.45,1,1v1.47Z"/>
  </g>
  <path class="cls-2" d="m30,1H2c-.55,0-1,.45-1,1s.45,1,1,1h1v1c0,1.86,1.28,3.41,3,3.86v20.14c0,1.65,1.35,3,3,3h14c1.65,0,3-1.35,3-3V7.86c1.72-.45,3-2,3-3.86v-1h1c.55,0,1-.45,1-1s-.45-1-1-1ZM11,3h4v1c0,1.1-.9,2-2,2s-2-.9-2-2v-1Zm6,0h4v1c0,1.1-.9,2-2,2s-2-.9-2-2v-1Zm-12,1v-1h4v1c0,1.1-.9,2-2,2s-2-.9-2-2Zm18,25h-14c-.55,0-1-.45-1-1V7.86c.79-.21,1.48-.64,2-1.24.73.84,1.8,1.38,3,1.38s2.27-.54,3-1.38c.73.84,1.8,1.38,3,1.38s2.27-.54,3-1.38c.52.6,1.21,1.04,2,1.24v20.14c0,.55-.45,1-1,1Zm4-25c0,1.1-.9,2-2,2s-2-.9-2-2v-1h4v1Z"/>
</svg>