<?xml version="1.0" encoding="UTF-8"?>
<svg id="OBJECT" xmlns="http://www.w3.org/2000/svg" viewBox="0 0 32 32">
  <defs>
    <style>
      .cls-1 {
        fill: #FD4360;
      }

      .cls-1, .cls-2 {
        stroke-width: 0px;
      }

      .cls-2 {
        fill: #dadada;
      }
    </style>
  </defs>
  <g>
    <path class="cls-2" d="m23.89,1h-15.78c-1.71,0-3.11,1.4-3.11,3.11v17.89c0,.55.45,1,1,1s1-.45,1-1V4.11c0-.61.5-1.11,1.11-1.11h15.78c.61,0,1.11.5,1.11,1.11v17.89c0,.55.45,1,1,1s1-.45,1-1V4.11c0-1.71-1.4-3.11-3.11-3.11Z"/>
    <path class="cls-2" d="m18,6c.55,0,1-.45,1-1s-.45-1-1-1h-4c-.55,0-1,.45-1,1s.45,1,1,1h4Z"/>
    <path class="cls-2" d="m16,7.5c-3.86,0-7,3.14-7,7s3.14,7,7,7,7-3.14,7-7-3.14-7-7-7Zm0,12c-2.76,0-5-2.24-5-5s2.24-5,5-5,5,2.24,5,5-2.24,5-5,5Z"/>
    <path class="cls-2" d="m15.44,13.28h2.22c.55,0,1-.45,1-1s-.45-1-1-1h-.67v-.11c0-.55-.45-1-1-1s-1,.45-1,1v.16c-.95.2-1.67,1.05-1.67,2.06,0,1.16.95,2.11,2.11,2.11h1.11c.06,0,.11.05.11.11s-.05.11-.11.11h-2.22c-.55,0-1,.45-1,1s.45,1,1,1h.67v.11c0,.55.45,1,1,1s1-.45,1-1v-.16c.95-.2,1.67-1.05,1.67-2.06,0-1.16-.95-2.11-2.11-2.11h-1.11c-.06,0-.11-.05-.11-.11s.05-.11.11-.11Z"/>
  </g>
  <path class="cls-1" d="m5,25v2.89c0,1.72,1.4,3.11,3.11,3.11h15.78c1.72,0,3.11-1.4,3.11-3.11v-2.89H5Zm11.5,3h-1c-.55,0-1-.45-1-1s.45-1,1-1h1c.55,0,1,.45,1,1s-.45,1-1,1Z"/>
</svg>