<?xml version="1.0" encoding="UTF-8"?>
<svg id="OBJECT" xmlns="http://www.w3.org/2000/svg" viewBox="0 0 32 32">
  <defs>
    <style>
      .cls-1 {
        fill: #FD4360;
      }

      .cls-1, .cls-2 {
        stroke-width: 0px;
      }

      .cls-2 {
        fill: #dadada;
      }
    </style>
  </defs>
  <g>
    <path class="cls-2" d="m28,16H4c-1.65,0-3,1.35-3,3v6c0,1.65,1.35,3,3,3v2c0,.55.45,1,1,1h6c.55,0,1-.45,1-1v-2h8v2c0,.55.45,1,1,1h6c.55,0,1-.45,1-1v-2c1.65,0,3-1.35,3-3v-6c0-1.65-1.35-3-3-3Zm-18,13h-4v-1h4v1Zm16,0h-4v-1h4v1Zm3-4c0,.55-.45,1-1,1H4c-.55,0-1-.45-1-1v-6c0-.55.45-1,1-1h24c.55,0,1,.45,1,1v6Z"/>
    <path class="cls-2" d="m26.5,21h-6c-.55,0-1,.45-1,1s.45,1,1,1h6c.55,0,1-.45,1-1s-.45-1-1-1Z"/>
    <path class="cls-2" d="m8,19.25h-1c-1.38,0-2.5,1.12-2.5,2.5v.5c0,1.38,1.12,2.5,2.5,2.5h1c1.38,0,2.5-1.12,2.5-2.5v-.5c0-1.38-1.12-2.5-2.5-2.5Zm.5,3c0,.28-.22.5-.5.5h-1c-.28,0-.5-.22-.5-.5v-.5c0-.28.22-.5.5-.5h1c.28,0,.5.22.5.5v.5Z"/>
    <path class="cls-2" d="m15,19.25h-1c-1.38,0-2.5,1.12-2.5,2.5v.5c0,1.38,1.12,2.5,2.5,2.5h1c1.38,0,2.5-1.12,2.5-2.5v-.5c0-1.38-1.12-2.5-2.5-2.5Zm.5,3c0,.28-.22.5-.5.5h-1c-.28,0-.5-.22-.5-.5v-.5c0-.28.22-.5.5-.5h1c.28,0,.5.22.5.5v.5Z"/>
  </g>
  <g>
    <path class="cls-1" d="m16.46,4.8c-.39.39-.38,1.03.02,1.41.49.48.76,1.11.76,1.79s-.27,1.31-.76,1.79c-.39.39-.4,1.02-.02,1.41.2.2.46.3.71.3s.5-.09.7-.29c.88-.86,1.36-2,1.36-3.21s-.48-2.36-1.36-3.21c-.39-.39-1.03-.38-1.41.02Z"/>
    <path class="cls-1" d="m21.58,2.29c-.39-.39-1.03-.38-1.41.02-.39.4-.38,1.03.02,1.41,1.17,1.15,1.82,2.67,1.82,4.29s-.64,3.14-1.82,4.29c-.39.39-.4,1.02-.02,1.41.2.2.46.3.71.3s.5-.09.7-.29c1.56-1.52,2.42-3.55,2.42-5.71s-.86-4.19-2.42-5.71Z"/>
    <path class="cls-1" d="m14,6.72c-.55,0-1,.45-1,1v.56c0,.55.45,1,1,1s1-.45,1-1v-.56c0-.55-.45-1-1-1Z"/>
    <polygon class="cls-1" points="9.9 8 5.1 8 4.7 14 10.3 14 9.9 8"/>
    <path class="cls-1" d="m9.53,2.4c-.05-.79-.71-1.4-1.5-1.4h-1.07c-.79,0-1.44.61-1.5,1.4l-.24,3.6h4.54l-.24-3.6Z"/>
  </g>
</svg>