<?xml version="1.0" encoding="UTF-8"?>
<svg id="OBJECT" xmlns="http://www.w3.org/2000/svg" viewBox="0 0 32 32">
  <defs>
    <style>
      .cls-1 {
        fill: #FD4360;
      }

      .cls-1, .cls-2 {
        stroke-width: 0px;
      }

      .cls-2 {
        fill: #dadada;
      }
    </style>
  </defs>
  <path class="cls-2" d="m23.23,18.62l-5.4-4.05c-.23-.89-.68-1.69-1.31-2.32l.89-6.2c.18-1.27-.2-2.55-1.04-3.52-.84-.97-2.06-1.52-3.34-1.52s-2.5.56-3.34,1.52c-.84.97-1.22,2.25-1.04,3.52l.88,6.16c-.66.63-1.13,1.45-1.37,2.36l-5.4,4.05c-1.02.77-1.67,1.94-1.76,3.22s.38,2.53,1.28,3.44c.83.83,1.96,1.29,3.12,1.29.1,0,.21,0,.31-.01,1.28-.09,2.45-.73,3.22-1.76l3.05-4.06v4.26c-1.65,0-3,1.35-3,3v1h-2c-.55,0-1,.45-1,1s.45,1,1,1h12c.55,0,1-.45,1-1s-.45-1-1-1h-2v-1c0-1.65-1.35-3-3-3v-4.26l3.05,4.06c.77,1.03,1.94,1.67,3.22,1.76.1,0,.21.01.31.01,1.17,0,2.29-.46,3.12-1.29.91-.91,1.37-2.16,1.28-3.44s-.73-2.45-1.76-3.22Zm-8.23,9.38v1h-4v-1c0-.55.45-1,1-1h2c.55,0,1,.45,1,1Zm-2-9.21c-1.65,0-3-1.35-3-3s1.35-3,3-3,3,1.35,3,3-1.35,3-3,3Zm-2.36-13.03c-.1-.69.11-1.4.57-1.93.92-1.06,2.73-1.06,3.65,0,.46.53.67,1.23.57,1.93l-.76,5.34c-.52-.19-1.08-.31-1.66-.31s-1.1.11-1.6.29l-.76-5.32Zm-3.28,17.84c-.42.56-1.06.91-1.76.96-.7.05-1.39-.21-1.88-.7-.5-.5-.75-1.18-.7-1.88.05-.7.4-1.34.96-1.76l4.21-3.16c.3,1.16,1,2.16,1.96,2.83l-2.79,3.72Zm14.94.26c-.5.5-1.18.75-1.88.7-.7-.05-1.34-.4-1.76-.96l-2.79-3.72c.96-.67,1.65-1.67,1.96-2.83l4.21,3.16c.56.42.91,1.06.96,1.76.05.7-.21,1.38-.7,1.88Z"/>
  <path class="cls-1" d="m24.5,2c-3.58,0-6.5,2.92-6.5,6.5s2.92,6.5,6.5,6.5,6.5-2.92,6.5-6.5-2.92-6.5-6.5-6.5Zm2.81,7.08l-2.13,3c-.19.27-.5.42-.82.42-.2,0-.4-.06-.58-.18-.45-.32-.56-.95-.24-1.39l1.01-1.42h-2.06c-.37,0-.72-.21-.89-.54-.17-.33-.14-.73.07-1.04l2.13-3c.32-.45.94-.56,1.39-.24s.56.95.24,1.39l-1.01,1.42h2.06c.37,0,.72.21.89.54.17.33.14.73-.07,1.04Z"/>
</svg>