<?xml version="1.0" encoding="UTF-8"?>
<svg id="OBJECT" xmlns="http://www.w3.org/2000/svg" viewBox="0 0 32 32">
  <defs>
    <style>
      .cls-1 {
        fill: #FD4360;
      }

      .cls-1, .cls-2 {
        stroke-width: 0px;
      }

      .cls-2 {
        fill: #dadada;
      }
    </style>
  </defs>
  <g>
    <path class="cls-2" d="m30,17h-1v-4c0-.55-.45-1-1-1H4c-.55,0-1,.45-1,1v4h-1c-.55,0-1,.45-1,1v10c0,1.65,1.35,3,3,3h24c1.65,0,3-1.35,3-3v-10c0-.55-.45-1-1-1Zm-25-3h22v3H5v-3Zm-2,14v-5h17c.55,0,1,.45,1,1v5H4c-.55,0-1-.45-1-1Zm26,0c0,.55-.45,1-1,1h-5v-5c0-1.65-1.35-3-3-3H3v-2h26v9Z"/>
    <path class="cls-2" d="m7.5,25h-1c-.55,0-1,.45-1,1s.45,1,1,1h1c.55,0,1-.45,1-1s-.45-1-1-1Z"/>
    <path class="cls-2" d="m12.5,25h-1c-.55,0-1,.45-1,1s.45,1,1,1h1c.55,0,1-.45,1-1s-.45-1-1-1Z"/>
    <path class="cls-2" d="m17.5,25h-1c-.55,0-1,.45-1,1s.45,1,1,1h1c.55,0,1-.45,1-1s-.45-1-1-1Z"/>
  </g>
  <path class="cls-1" d="m25.83,5.38c-1.35-3.11-4.25-4.27-4.38-4.31-.46-.18-.97,0-1.22.42-.25.42-.16.96.22,1.28.32.27.56.63.19,1.49-.51,1.17-1.69,1.93-3.03,1.93h-7.15c-1.64,0-3.17.83-4.1,2.23-.32.49-.55,1.03-.69,1.58h20.73c.21-1.68.03-3.22-.58-4.62Z"/>
</svg>