<?xml version="1.0" encoding="UTF-8"?>
<svg id="OBJECT" xmlns="http://www.w3.org/2000/svg" viewBox="0 0 32 32">
  <defs>
    <style>
      .cls-1 {
        fill: #FD4360;
      }

      .cls-1, .cls-2 {
        stroke-width: 0px;
      }

      .cls-2 {
        fill: #dadada;
      }
    </style>
  </defs>
  <g>
    <path class="cls-2" d="m30,4H2c-.55,0-1,.45-1,1v15c0,.55.45,1,1,1h28c.55,0,1-.45,1-1V5c0-.55-.45-1-1-1Zm-1,4.86c-1.4-.36-2.49-1.46-2.86-2.86h2.86v2.86Zm-4.91,10.14H7.91c-.42-2.51-2.4-4.49-4.91-4.91v-3.18c2.51-.42,4.49-2.4,4.91-4.91h16.18c.42,2.51,2.4,4.49,4.91,4.91v3.18c-2.51.42-4.49,2.4-4.91,4.91ZM5.86,6c-.36,1.4-1.46,2.49-2.86,2.86v-2.86h2.86Zm-2.86,10.14c1.4.36,2.49,1.46,2.86,2.86h-2.86v-2.86Zm23.14,2.86c.36-1.4,1.46-2.49,2.86-2.86v2.86h-2.86Z"/>
    <path class="cls-2" d="m15.25,10.5h3c.55,0,1-.45,1-1s-.45-1-1-1h-1.25v-.5c0-.55-.45-1-1-1s-1,.45-1,1v.53c-1.26.13-2.25,1.18-2.25,2.47,0,1.38,1.12,2.5,2.5,2.5h1.5c.28,0,.5.22.5.5s-.22.5-.5.5h-3c-.55,0-1,.45-1,1s.45,1,1,1h1.25v.5c0,.55.45,1,1,1s1-.45,1-1v-.53c1.26-.13,2.25-1.18,2.25-2.47,0-1.38-1.12-2.5-2.5-2.5h-1.5c-.28,0-.5-.22-.5-.5s.22-.5.5-.5Z"/>
    <path class="cls-2" d="m24,11.5h-2c-.55,0-1,.45-1,1s.45,1,1,1h2c.55,0,1-.45,1-1s-.45-1-1-1Z"/>
    <path class="cls-2" d="m10,11.5h-2c-.55,0-1,.45-1,1s.45,1,1,1h2c.55,0,1-.45,1-1s-.45-1-1-1Z"/>
  </g>
  <path class="cls-1" d="m30,23H2c-.55,0-1,.45-1,1v.5h20c.55,0,1,.45,1,1s-.45,1-1,1H1v.5c0,.55.45,1,1,1h28c.55,0,1-.45,1-1v-3c0-.55-.45-1-1-1Zm-5,3.5h-.5c-.55,0-1-.45-1-1s.45-1,1-1h.5c.55,0,1,.45,1,1s-.45,1-1,1Z"/>
</svg>