<?xml version="1.0" encoding="UTF-8"?>
<svg id="OBJECT" xmlns="http://www.w3.org/2000/svg" viewBox="0 0 32 32">
  <defs>
    <style>
      .cls-1 {
        fill: #FD4360;
      }

      .cls-2 {
        fill: #dadada;
      }
    </style>
  </defs>
  <g>
    <path class="cls-2" d="m27.5,21c-.55,0-1,.45-1,1v5c0,1.1-.9,2-2,2H7.5c-1.1,0-2-.9-2-2v-10.74l.73.88c.2.24.48.36.77.36.23,0,.45-.08.64-.23.42-.35.48-.98.13-1.41l-2.5-3c-.38-.46-1.16-.46-1.54,0l-2.5,3c-.35.42-.3,1.05.13,1.41.42.35,1.05.3,1.41-.13l.73-.88v10.74c0,2.21,1.79,4,4,4h17c2.21,0,4-1.79,4-4v-5c0-.55-.45-1-1-1Z"/>
    <path class="cls-2" d="m30.64,14.73c-.42-.35-1.06-.3-1.41.13l-.73.88V5c0-2.21-1.79-4-4-4H7.5c-2.21,0-4,1.79-4,4v5c0,.55.45,1,1,1s1-.45,1-1v-5c0-1.1.9-2,2-2h17c1.1,0,2,.9,2,2v10.74l-.73-.88c-.35-.42-.98-.48-1.41-.13-.42.35-.48.98-.13,1.41l2.5,3c.19.23.47.36.77.36s.58-.13.77-.36l2.5-3c.35-.42.3-1.05-.13-1.41Z"/>
  </g>
  <path class="cls-1" d="m11.8,7.6c-1.54,0-2.8,1.26-2.8,2.8v11.2c0,1.54,1.26,2.8,2.8,2.8h8.4c1.54,0,2.8-1.26,2.8-2.8v-11.2c0-1.54-1.26-2.8-2.8-2.8h-8.4Zm3.28,7.4h1.83c1.56,0,2.83,1.27,2.83,2.83s-1.23,2.78-2.75,2.82v.84c0,.55-.45,1-1,1s-1-.45-1-1v-.83h-1.75c-.55,0-1-.45-1-1s.45-1,1-1h3.67c.46,0,.83-.37.83-.83s-.37-.83-.83-.83h-1.83c-1.56,0-2.83-1.27-2.83-2.83s1.23-2.78,2.75-2.82v-.84c0-.55.45-1,1-1s1,.45,1,1v.83h1.75c.55,0,1,.45,1,1s-.45,1-1,1h-3.67c-.46,0-.83.37-.83.83s.37.83.83.83Z"/>
</svg>