<?xml version="1.0" encoding="UTF-8"?>
<svg id="OBJECT" xmlns="http://www.w3.org/2000/svg" viewBox="0 0 32 32">
  <defs>
    <style>
      .cls-1 {
        fill: #FD4360;
      }

      .cls-1, .cls-2 {
        stroke-width: 0px;
      }

      .cls-2 {
        fill: #dadada;
      }
    </style>
  </defs>
  <g>
    <path class="cls-2" d="m25,25h-4v-3c0-.55-.45-1-1-1h-3v-3.06c4.22-.5,7.5-4.09,7.5-8.44,0-4.69-3.81-8.5-8.5-8.5S7.5,4.81,7.5,9.5c0,4.35,3.28,7.94,7.5,8.44v3.06h-3c-.55,0-1,.45-1,1v3h-4c-.55,0-1,.45-1,1s.45,1,1,1h4v3c0,.55.45,1,1,1h8c.55,0,1-.45,1-1v-3h4c.55,0,1-.45,1-1s-.45-1-1-1Zm-15.5-15.5c0-3.58,2.92-6.5,6.5-6.5s6.5,2.92,6.5,6.5-2.92,6.5-6.5,6.5-6.5-2.92-6.5-6.5Zm9.5,19.5h-6v-6h6v6Z"/>
    <path class="cls-2" d="m17,13.67v-.42c1.17-.15,2.08-1.15,2.08-2.36,0-1.32-1.07-2.39-2.39-2.39h-1.39c-.21,0-.39-.17-.39-.39s.17-.39.39-.39h2.78c.55,0,1-.45,1-1s-.45-1-1-1h-1.08v-.39c0-.55-.45-1-1-1s-1,.45-1,1v.42c-1.17.15-2.08,1.15-2.08,2.36,0,1.32,1.07,2.39,2.39,2.39h1.39c.21,0,.39.17.39.39s-.17.39-.39.39h-2.78c-.55,0-1,.45-1,1s.45,1,1,1h1.08v.39c0,.55.45,1,1,1s1-.45,1-1Z"/>
  </g>
  <path class="cls-1" d="m8,23.5c0-.55-.45-1-1-1H2c-.55,0-1,.45-1,1v5c0,.55.45,1,1,1h5c.55,0,1-.45,1-1v-1.5h1v-2h-1v-1.5Z"/>
  <path class="cls-1" d="m30,22.5h-5c-.55,0-1,.45-1,1v1.5h-1v2h1v1.5c0,.55.45,1,1,1h5c.55,0,1-.45,1-1v-5c0-.55-.45-1-1-1Z"/>
</svg>