<?xml version="1.0" encoding="UTF-8"?>
<svg id="OBJECT" xmlns="http://www.w3.org/2000/svg" viewBox="0 0 32 32">
  <defs>
    <style>
      .cls-1 {
        fill: #FD4360;
      }

      .cls-1, .cls-2 {
        stroke-width: 0px;
      }

      .cls-2 {
        fill: #dadada;
      }
    </style>
  </defs>
  <path class="cls-1" d="m3,26c0,1.1.9,2,2,2h22c1.1,0,2-.9,2-2v-1H3v1Z"/>
  <g>
    <path class="cls-2" d="m28,4H4c-1.65,0-3,1.35-3,3v13c0,1.65,1.35,3,3,3h24c1.65,0,3-1.35,3-3V7c0-1.65-1.35-3-3-3Zm1,3v1.86c-1.4-.36-2.49-1.46-2.86-2.86h1.86c.55,0,1,.45,1,1Zm-4.91,14H7.91c-.42-2.51-2.4-4.49-4.91-4.91v-5.18c2.51-.42,4.49-2.4,4.91-4.91h16.18c.42,2.51,2.4,4.49,4.91,4.91v5.18c-2.51.42-4.49,2.4-4.91,4.91ZM4,6h1.86c-.36,1.4-1.46,2.49-2.86,2.86v-1.86c0-.55.45-1,1-1Zm-1,14v-1.86c1.4.36,2.49,1.46,2.86,2.86h-1.86c-.55,0-1-.45-1-1Zm25,1h-1.86c.36-1.4,1.46-2.49,2.86-2.86v1.86c0,.55-.45,1-1,1Z"/>
    <path class="cls-2" d="m16,8.5c-2.76,0-5,2.24-5,5s2.24,5,5,5,5-2.24,5-5-2.24-5-5-5Zm0,8c-1.65,0-3-1.35-3-3s1.35-3,3-3,3,1.35,3,3-1.35,3-3,3Z"/>
    <path class="cls-2" d="m26,12.5h-2c-.55,0-1,.45-1,1s.45,1,1,1h2c.55,0,1-.45,1-1s-.45-1-1-1Z"/>
    <path class="cls-2" d="m8,12.5h-2c-.55,0-1,.45-1,1s.45,1,1,1h2c.55,0,1-.45,1-1s-.45-1-1-1Z"/>
  </g>
</svg>