<?xml version="1.0" encoding="UTF-8"?>
<svg id="OBJECT" xmlns="http://www.w3.org/2000/svg" viewBox="0 0 32 32">
  <defs>
    <style>
      .cls-1 {
        fill: #FD4360;
      }

      .cls-1, .cls-2 {
        stroke-width: 0px;
      }

      .cls-2 {
        fill: #dadada;
      }
    </style>
  </defs>
  <path class="cls-2" d="m27.45,19.48c-1.83-.93-3.91-1.09-5.86-.45-1.95.64-3.54,2-4.47,3.83l-.12.25v-4.1c0-.55-.45-1-1-1s-1,.45-1,1v4.1l-.12-.25c-.93-1.83-2.52-3.19-4.47-3.83-1.95-.64-4.03-.48-5.86.45-.49.25-.69.85-.44,1.34l2.02,3.97c.93,1.83,2.52,3.19,4.47,3.83.78.26,1.59.38,2.39.38.68,0,1.36-.1,2.02-.28v1.28c0,.55.45,1,1,1s1-.45,1-1v-1.28c.66.18,1.34.28,2.02.28.8,0,1.61-.13,2.39-.38,1.95-.64,3.54-2,4.47-3.83l2.02-3.97c.25-.49.05-1.09-.44-1.34Zm-16.24,7.24c-1.44-.47-2.62-1.48-3.3-2.83l-1.52-3c1.1-.34,2.28-.33,3.4.04,1.44.47,2.62,1.48,3.3,2.83l1.52,3c-1.11.34-2.29.33-3.4-.04Zm12.88-2.83c-.69,1.35-1.86,2.36-3.3,2.83-1.12.37-2.3.38-3.4.04l1.52-3c.69-1.35,1.86-2.36,3.3-2.83,1.12-.37,2.3-.38,3.4-.04l-1.52,3Z"/>
  <g>
    <path class="cls-1" d="m16,1c-4.41,0-8,3.59-8,8s3.59,8,8,8,8-3.59,8-8S20.41,1,16,1Zm-.7,7h1.4c1.32,0,2.4,1.08,2.4,2.4,0,1.22-.92,2.22-2.1,2.37v.43c0,.55-.45,1-1,1s-1-.45-1-1v-.4h-1.1c-.55,0-1-.45-1-1s.45-1,1-1h2.8c.22,0,.4-.18.4-.4s-.18-.4-.4-.4h-1.4c-1.32,0-2.4-1.08-2.4-2.4,0-1.22.92-2.22,2.1-2.37v-.43c0-.55.45-1,1-1s1,.45,1,1v.4h1.1c.55,0,1,.45,1,1s-.45,1-1,1h-2.8c-.22,0-.4.18-.4.4s.18.4.4.4Z"/>
    <path class="cls-1" d="m27,8h-1c-.55,0-1,.45-1,1s.45,1,1,1h1c.55,0,1-.45,1-1s-.45-1-1-1Z"/>
    <path class="cls-1" d="m25,6.25c.17,0,.34-.04.5-.13l.87-.5c.48-.28.64-.89.37-1.37-.28-.48-.89-.64-1.37-.37l-.87.5c-.48.28-.64.89-.37,1.37.19.32.52.5.87.5Z"/>
    <path class="cls-1" d="m26.37,12.38l-.87-.5c-.48-.28-1.09-.11-1.37.37-.28.48-.11,1.09.37,1.37l.87.5c.16.09.33.13.5.13.35,0,.68-.18.87-.5.28-.48.11-1.09-.37-1.37Z"/>
    <path class="cls-1" d="m7,9c0-.55-.45-1-1-1h-1c-.55,0-1,.45-1,1s.45,1,1,1h1c.55,0,1-.45,1-1Z"/>
    <path class="cls-1" d="m7.5,4.38l-.87-.5c-.48-.28-1.09-.11-1.37.37-.28.48-.11,1.09.37,1.37l.87.5c.16.09.33.13.5.13.35,0,.68-.18.87-.5.28-.48.11-1.09-.37-1.37Z"/>
    <path class="cls-1" d="m6.5,11.88l-.87.5c-.48.28-.64.89-.37,1.37.19.32.52.5.87.5.17,0,.34-.04.5-.13l.87-.5c.48-.28.64-.89.37-1.37-.28-.48-.89-.64-1.37-.37Z"/>
  </g>
</svg>