<?xml version="1.0" encoding="UTF-8"?>
<svg id="OBJECT" xmlns="http://www.w3.org/2000/svg" viewBox="0 0 32 32">
  <defs>
    <style>
      .cls-1 {
        fill: #FD4360;
      }

      .cls-2 {
        fill: #dadada;
      }
    </style>
  </defs>
  <g>
    <path class="cls-2" d="M26.78,17.12c-.81-1.4-1.96-2.57-3.34-3.38l-2.24-1.32c-.32-.35-.56-.9-.71-1.62-.11-.54-.64-.89-1.18-.78-.54,.11-.89,.64-.78,1.18,.24,1.17,.7,2.09,1.35,2.73,.06,.05,.12,.1,.19,.14l2.35,1.39c1.08,.63,1.99,1.55,2.62,2.65,.64,1.13,.96,2.35,.96,3.62,0,4.01-3.26,7.27-7.27,7.27h-5.46c-1.94,0-3.77-.76-5.14-2.13-1.37-1.37-2.13-3.2-2.13-5.14,0-2.56,1.37-4.96,3.58-6.27l2.35-1.39c.07-.04,.13-.09,.19-.14,.66-.63,1.11-1.55,1.35-2.73,.11-.54-.24-1.07-.78-1.18-.54-.11-1.07,.24-1.18,.78-.15,.72-.39,1.27-.71,1.62l-2.24,1.32c-2.81,1.66-4.56,4.73-4.56,7.99,0,2.48,.96,4.81,2.71,6.56s4.08,2.71,6.56,2.71h5.46c5.11,0,9.27-4.16,9.27-9.27,0-1.6-.42-3.19-1.22-4.61Z"/>
    <path class="cls-2" d="M12.5,19.33c0,1.47,1.2,2.67,2.67,2.67h1.67c.37,0,.67,.3,.67,.67s-.3,.67-.67,.67h-3.33c-.55,0-1,.45-1,1s.45,1,1,1h1.5v.67c0,.55,.45,1,1,1s1-.45,1-1v-.68c1.39-.09,2.5-1.24,2.5-2.65s-1.2-2.67-2.67-2.67h-1.67c-.37,0-.67-.3-.67-.67s.3-.67,.67-.67h3.33c.55,0,1-.45,1-1s-.45-1-1-1h-1.5v-.67c0-.55-.45-1-1-1s-1,.45-1,1v.68c-1.39,.09-2.5,1.24-2.5,2.65Z"/>
    <path class="cls-2" d="M22.75,22c.55,0,1-.45,1-1s-.45-1-1-1h-.5c-.55,0-1,.45-1,1s.45,1,1,1h.5Z"/>
    <path class="cls-2" d="M9.25,20c-.55,0-1,.45-1,1s.45,1,1,1h.5c.55,0,1-.45,1-1s-.45-1-1-1h-.5Z"/>
  </g>
  <path class="cls-1" d="M9,8c0,.55,.45,1,1,1h12c.55,0,1-.45,1-1s-.45-1-1-1h-1.07l1.99-4.6c.13-.31,.1-.66-.08-.95-.19-.28-.5-.45-.84-.45h-2.91l-1.34,3.09c-.16,.38-.53,.6-.92,.6-.13,0-.27-.03-.4-.08-.51-.22-.74-.81-.52-1.31l.99-2.3h-6.91c-.34,0-.65,.17-.84,.45-.18,.28-.22,.64-.08,.95l1.99,4.6h-1.07c-.55,0-1,.45-1,1Z"/>
</svg>