<?xml version="1.0" encoding="UTF-8"?>
<svg id="OBJECT" xmlns="http://www.w3.org/2000/svg" viewBox="0 0 32 32">
  <defs>
    <style>
      .cls-1 {
        fill: #FD4360;
      }

      .cls-1, .cls-2 {
        stroke-width: 0px;
      }

      .cls-2 {
        fill: #dadada;
      }
    </style>
  </defs>
  <g>
    <path class="cls-2" d="m24.67,16l-4.67-3.5v-2.5c0-.55-.45-1-1-1s-1,.45-1,1v3c0,.31.15.61.4.8l5.07,3.8c1.59,1.19,2.53,3.08,2.53,5.07,0,3.49-2.84,6.33-6.33,6.33h-7.33c-3.49,0-6.33-2.84-6.33-6.33,0-1.98.95-3.88,2.53-5.07l5.07-3.8c.25-.19.4-.48.4-.8v-3c0-.55-.45-1-1-1s-1,.45-1,1v2.5l-4.67,3.5c-2.09,1.57-3.33,4.06-3.33,6.67,0,4.6,3.74,8.33,8.33,8.33h7.33c4.6,0,8.33-3.74,8.33-8.33,0-2.61-1.25-5.1-3.33-6.67Z"/>
    <path class="cls-2" d="m12.5,19.33c0,1.47,1.2,2.67,2.67,2.67h1.67c.37,0,.67.3.67.67s-.3.67-.67.67h-3.33c-.55,0-1,.45-1,1s.45,1,1,1h1.5v.67c0,.55.45,1,1,1s1-.45,1-1v-.68c1.39-.09,2.5-1.24,2.5-2.65s-1.2-2.67-2.67-2.67h-1.67c-.37,0-.67-.3-.67-.67s.3-.67.67-.67h3.33c.55,0,1-.45,1-1s-.45-1-1-1h-1.5v-.67c0-.55-.45-1-1-1s-1,.45-1,1v.68c-1.39.09-2.5,1.24-2.5,2.65Z"/>
  </g>
  <path class="cls-1" d="m10,7c0,.55.45,1,1,1h10c.55,0,1-.45,1-1s-.45-1-1-1h-.52l1.45-3.63c.12-.31.09-.66-.1-.93s-.5-.44-.83-.44h-10c-.33,0-.64.16-.83.44s-.22.62-.1.93l1.45,3.63h-.52c-.55,0-1,.45-1,1Z"/>
</svg>