<?xml version="1.0" encoding="UTF-8"?>
<svg id="OBJECT" xmlns="http://www.w3.org/2000/svg" viewBox="0 0 32 32">
  <defs>
    <style>
      .cls-1 {
        fill: #FD4360;
      }

      .cls-1, .cls-2 {
        stroke-width: 0px;
      }

      .cls-2 {
        fill: #dadada;
      }
    </style>
  </defs>
  <g>
    <path class="cls-2" d="m27.24,5.33c-.19-.21-.45-.32-.73-.33-7.19-.07-11.3-3.7-11.33-3.74-.38-.35-.97-.35-1.35,0-.04.04-4.1,3.67-11.33,3.74-.28,0-.54.12-.73.32-.19.2-.28.48-.26.75l1,13.25c0,3.25,1.77,6.24,4.63,7.8l6.89,3.76c.15.08.31.12.48.12s.33-.04.48-.12l3.95-2.16c.48-.26.66-.87.4-1.36-.26-.48-.87-.66-1.36-.4l-3.47,1.9-6.41-3.5c-2.21-1.21-3.59-3.52-3.59-6.12l-.92-12.28c5.72-.31,9.47-2.61,10.92-3.69,1.45,1.07,5.2,3.38,10.92,3.69l-.69,8.32c-.05.55.36,1.03.91,1.08.55.05,1.03-.36,1.08-.91l.78-9.37c.02-.28-.07-.55-.26-.76Z"/>
    <path class="cls-2" d="m22.39,8.63c-3.34-.58-5.86-1.76-7.39-2.64-.31-.18-.69-.18-1,0-1.53.88-4.05,2.06-7.39,2.64-.51.09-.86.55-.83,1.06l.71,9.48v.15c0,1.79.97,3.43,2.54,4.29l4.98,2.71c.15.08.31.12.48.12s.33-.04.48-.12l2.12-1.16c.48-.26.66-.87.4-1.36-.26-.48-.87-.66-1.36-.4l-1.64.9-4.5-2.45c-.93-.5-1.5-1.47-1.5-2.53l-.65-8.89c2.86-.6,5.11-1.59,6.65-2.43,1.54.83,3.79,1.82,6.64,2.43l-.42,4.72c-.05.55.36,1.04.91,1.08.55.05,1.04-.36,1.08-.91l.5-5.62c.05-.52-.31-.98-.82-1.07Z"/>
  </g>
  <path class="cls-1" d="m24.5,17c-3.31,0-6,2.69-6,6s2.69,6,6,6,6-2.69,6-6-2.69-6-6-6Zm-.49,5.25h.97c.95,0,1.72.77,1.72,1.72,0,.86-.63,1.57-1.46,1.7v.25c0,.41-.34.75-.75.75s-.75-.34-.75-.75v-.22h-.71c-.41,0-.75-.34-.75-.75s.34-.75.75-.75h1.94c.12,0,.22-.1.22-.22s-.1-.22-.22-.22h-.97c-.95,0-1.72-.77-1.72-1.72,0-.86.63-1.57,1.46-1.7v-.25c0-.41.34-.75.75-.75s.75.34.75.75v.22h.71c.41,0,.75.34.75.75s-.34.75-.75.75h-1.94c-.12,0-.22.1-.22.22s.1.22.22.22Z"/>
</svg>