<?xml version="1.0" encoding="UTF-8"?>
<svg id="OBJECT" xmlns="http://www.w3.org/2000/svg" viewBox="0 0 512 512">
  <defs>
    <style>
      .cls-1 {
        fill: #FD4360;
      }

      .cls-2 {
        fill: #dadada;
      }
    </style>
  </defs>
  <g>
    <path class="cls-2" d="M504.5,217H7.5c-4.14,0-7.5,3.36-7.5,7.5V504.5c0,4.14,3.36,7.5,7.5,7.5H504.5c4.14,0,7.5-3.36,7.5-7.5V224.5c0-4.14-3.36-7.5-7.5-7.5Zm-7.5,280H15V232H497V497Z"/>
    <path class="cls-2" d="M42.5,442c15.16,0,27.5,12.34,27.5,27.5,0,4.14,3.36,7.5,7.5,7.5H434.5c4.14,0,7.5-3.36,7.5-7.5,0-15.16,12.34-27.5,27.5-27.5,4.14,0,7.5-3.36,7.5-7.5v-140c0-4.14-3.36-7.5-7.5-7.5-15.16,0-27.5-12.34-27.5-27.5,0-4.14-3.36-7.5-7.5-7.5H77.5c-4.14,0-7.5,3.36-7.5,7.5,0,15.16-12.34,27.5-27.5,27.5-4.14,0-7.5,3.36-7.5,7.5v140c0,4.14,3.36,7.5,7.5,7.5Zm7.5-140.66c17.43-3.12,31.22-16.9,34.34-34.34H427.66c3.12,17.43,16.9,31.22,34.34,34.34v126.33c-17.43,3.12-31.22,16.9-34.34,34.34H84.34c-3.12-17.43-16.9-31.22-34.34-34.34v-126.33Z"/>
    <path class="cls-2" d="M243.62,372h24.77c8.33,0,15.12,7.1,15.12,15.83s-6.78,15.83-15.12,15.83h-40.38c-4.14,0-7.5,3.36-7.5,7.5s3.36,7.5,7.5,7.5h5.92v15.83c0,4.14,3.36,7.5,7.5,7.5s7.5-3.36,7.5-7.5v-15.83h14.17v15.83c0,4.14,3.36,7.5,7.5,7.5s7.5-3.36,7.5-7.5v-17.48c11.86-4.14,20.42-15.66,20.42-29.18,0-17-13.51-30.83-30.12-30.83h-24.77c-8.33,0-15.12-7.1-15.12-15.83s6.78-15.83,15.12-15.83h40.38c4.14,0,7.5-3.36,7.5-7.5s-3.36-7.5-7.5-7.5h-5.92v-15.83c0-4.14-3.36-7.5-7.5-7.5s-7.5,3.36-7.5,7.5v15.83h-14.17v-15.83c0-4.14-3.36-7.5-7.5-7.5s-7.5,3.36-7.5,7.5v17.48c-11.86,4.14-20.42,15.66-20.42,29.18,0,17,13.51,30.83,30.12,30.83Z"/>
    <path class="cls-2" d="M341,372h40c4.14,0,7.5-3.36,7.5-7.5s-3.36-7.5-7.5-7.5h-40c-4.14,0-7.5,3.36-7.5,7.5s3.36,7.5,7.5,7.5Z"/>
    <path class="cls-2" d="M131,372h40c4.14,0,7.5-3.36,7.5-7.5s-3.36-7.5-7.5-7.5h-40c-4.14,0-7.5,3.36-7.5,7.5s3.36,7.5,7.5,7.5Z"/>
  </g>
  <path class="cls-1" d="M130.63,198.64c1.14,1.8,2.99,3.02,5.09,3.38,.41,.07,.83,.1,1.24,.1,1.68,0,3.33-.57,4.67-1.63l88.61-70.46,19.5,36.49c2.87,5.37,7.95,9.04,13.95,10.07,6,1.03,12.01-.73,16.51-4.84l98.73-90.14,9.57,22.51c1.28,3,4.34,4.84,7.6,4.53,3.25-.3,5.93-2.67,6.63-5.86l20.61-93.68c.55-2.5-.22-5.12-2.03-6.93s-4.43-2.56-6.93-2l-92.77,20.82c-3.17,.71-5.52,3.38-5.83,6.61s1.5,6.29,4.48,7.59l23.31,10.1-66.15,60.39-19.69-36.84c-2.75-5.14-7.59-8.76-13.29-9.94-5.7-1.18-11.59,.22-16.15,3.85l-116.94,93c-3,2.39-3.72,6.65-1.66,9.89l20.96,32.99Z"/>
</svg>