<?xml version="1.0" encoding="UTF-8"?>
<svg id="OBJECT" xmlns="http://www.w3.org/2000/svg" viewBox="0 0 32 32">
  <defs>
    <style>
      .cls-1 {
        fill: #FD4360;
      }

      .cls-1, .cls-2 {
        stroke-width: 0px;
      }

      .cls-2 {
        fill: #dadada;
      }
    </style>
  </defs>
  <path class="cls-2" d="m30,4H2c-.55,0-1,.45-1,1v18c0,.55.45,1,1,1h2v3c0,.55.45,1,1,1h22c.55,0,1-.45,1-1v-3h2c.55,0,1-.45,1-1V5c0-.55-.45-1-1-1Zm-1,4.8c-1.39-.34-2.47-1.42-2.84-2.8h2.84v2.8Zm-4.89,13.2H7.85c-.42-2.47-2.38-4.42-4.85-4.83v-6.33c2.48-.42,4.43-2.36,4.85-4.83h16.25c.43,2.48,2.4,4.44,4.89,4.84v6.32c-2.49.4-4.47,2.36-4.89,4.84ZM5.8,6c-.36,1.36-1.43,2.43-2.8,2.78v-2.78h2.8Zm-2.8,13.22c1.37.36,2.44,1.42,2.8,2.78h-2.8v-2.78Zm23,6.78H6v-2h20v2Zm.16-4c.37-1.38,1.45-2.45,2.84-2.8v2.8h-2.84Z"/>
  <g>
    <path class="cls-1" d="m26.03,13h-2.03c-.55,0-1,.45-1,1s.45,1,1,1h2.03c.55,0,1-.45,1-1s-.45-1-1-1Z"/>
    <path class="cls-1" d="m8.03,13h-2.03c-.55,0-1,.45-1,1s.45,1,1,1h2.03c.55,0,1-.45,1-1s-.45-1-1-1Z"/>
    <circle class="cls-1" cx="16" cy="14" r="5.2"/>
  </g>
</svg>