<?xml version="1.0" encoding="UTF-8"?>
<svg id="OBJECT" xmlns="http://www.w3.org/2000/svg" viewBox="0 0 32 32">
  <defs>
    <style>
      .cls-1 {
        fill: #FD4360;
      }

      .cls-1, .cls-2 {
        stroke-width: 0px;
      }

      .cls-2 {
        fill: #dadada;
      }
    </style>
  </defs>
  <path class="cls-1" d="m16,8c-4.41,0-8,3.59-8,8s3.59,8,8,8,8-3.59,8-8-3.59-8-8-8Zm-.74,7h1.48c1.37,0,2.48,1.11,2.48,2.48,0,1.28-.98,2.32-2.22,2.46v.51c0,.55-.45,1-1,1s-1-.45-1-1v-.48h-1.22c-.55,0-1-.45-1-1s.45-1,1-1h2.96c.27,0,.48-.22.48-.48s-.22-.48-.48-.48h-1.48c-1.37,0-2.48-1.11-2.48-2.48,0-1.28.98-2.32,2.22-2.46v-.51c0-.55.45-1,1-1s1,.45,1,1v.48h1.22c.55,0,1,.45,1,1s-.45,1-1,1h-2.96c-.27,0-.48.22-.48.48s.22.48.48.48Z"/>
  <path class="cls-2" d="m18,31h-4c-.55,0-1-.45-1-1v-2.39c-1.09-.28-2.13-.71-3.09-1.28l-1.69,1.68c-.39.39-1.02.39-1.41,0l-2.83-2.83c-.19-.19-.29-.44-.29-.71s.11-.52.29-.71l1.69-1.69c-.57-.97-1-2-1.28-3.09h-2.39c-.55,0-1-.45-1-1v-4c0-.55.45-1,1-1h2.39c.28-1.09.71-2.13,1.28-3.09l-1.69-1.69c-.19-.19-.29-.44-.29-.71s.11-.52.29-.71l2.83-2.83c.39-.39,1.02-.39,1.41,0l1.69,1.68c.97-.57,2-1,3.09-1.28v-2.39c0-.55.45-1,1-1h4c.55,0,1,.45,1,1v2.39c1.09.28,2.13.71,3.09,1.28l1.69-1.68c.39-.39,1.02-.39,1.41,0l2.83,2.83c.19.19.29.44.29.71s-.11.52-.29.71l-1.69,1.69c.57.97,1,2,1.28,3.09h2.39c.55,0,1,.45,1,1v4c0,.55-.45,1-1,1h-2.39c-.28,1.09-.71,2.13-1.28,3.09l1.69,1.69c.19.19.29.44.29.71s-.11.52-.29.71l-2.83,2.83c-.39.39-1.02.39-1.41,0l-1.69-1.68c-.97.57-2,1-3.09,1.28v2.39c0,.55-.45,1-1,1Zm-3-2h2v-2.19c0-.48.34-.9.82-.98,1.39-.26,2.69-.79,3.85-1.59.4-.27.93-.22,1.27.12l1.55,1.55,1.41-1.41-1.55-1.55c-.34-.34-.39-.88-.12-1.27.8-1.16,1.33-2.45,1.59-3.84.09-.47.5-.82.98-.82h2.19v-2h-2.19c-.48,0-.9-.34-.98-.82-.26-1.39-.79-2.69-1.59-3.84-.27-.4-.23-.93.12-1.27l1.55-1.55-1.41-1.41-1.55,1.55c-.34.34-.88.39-1.27.12-1.16-.8-2.45-1.33-3.85-1.59-.47-.09-.82-.5-.82-.98v-2.19h-2v2.19c0,.48-.34.9-.82.98-1.39.26-2.69.79-3.85,1.59-.4.28-.93.22-1.27-.12l-1.55-1.55-1.41,1.41,1.55,1.55c.34.34.39.88.12,1.27-.8,1.16-1.33,2.45-1.59,3.84-.09.47-.5.82-.98.82h-2.19v2h2.19c.48,0,.9.34.98.82.26,1.39.79,2.69,1.59,3.84.27.4.23.93-.12,1.27l-1.55,1.55,1.41,1.41,1.55-1.55c.34-.34.88-.39,1.27-.12,1.16.8,2.45,1.33,3.85,1.59.47.09.82.5.82.98v2.19Z"/>
</svg>