<?xml version="1.0" encoding="UTF-8"?>
<svg id="OBJECT" xmlns="http://www.w3.org/2000/svg" viewBox="0 0 32 32">
  <defs>
    <style>
      .cls-1 {
        fill: #FD4360;
      }

      .cls-1, .cls-2 {
        stroke-width: 0px;
      }

      .cls-2 {
        fill: #dadada;
      }
    </style>
  </defs>
  <g>
    <path class="cls-2" d="m16,1c-6.07,0-11,4.93-11,11s4.93,11,11,11,11-4.93,11-11S22.07,1,16,1Zm0,20c-4.96,0-9-4.04-9-9S11.04,3,16,3s9,4.04,9,9-4.04,9-9,9Z"/>
    <path class="cls-2" d="m15.17,9.67h3.33c.55,0,1-.45,1-1s-.45-1-1-1h-1.5v-.67c0-.55-.45-1-1-1s-1,.45-1,1v.68c-1.39.09-2.5,1.24-2.5,2.65s1.2,2.67,2.67,2.67h1.67c.37,0,.67.3.67.67s-.3.67-.67.67h-3.33c-.55,0-1,.45-1,1s.45,1,1,1h1.5v.67c0,.55.45,1,1,1s1-.45,1-1v-.68c1.39-.09,2.5-1.24,2.5-2.65s-1.2-2.67-2.67-2.67h-1.67c-.37,0-.67-.3-.67-.67s.3-.67.67-.67Z"/>
    <path class="cls-2" d="m22.5,11h-1c-.55,0-1,.45-1,1s.45,1,1,1h1c.55,0,1-.45,1-1s-.45-1-1-1Z"/>
    <path class="cls-2" d="m10.5,11h-1c-.55,0-1,.45-1,1s.45,1,1,1h1c.55,0,1-.45,1-1s-.45-1-1-1Z"/>
  </g>
  <g>
    <path class="cls-1" d="m25,24h-2.5l-.96,2.31c-.93,2.24-3.11,3.69-5.54,3.69s-4.6-1.45-5.54-3.69l-.96-2.31h-2.5c-1.65,0-3,1.35-3,3v1c0,1.65,1.35,3,3,3h18c1.65,0,3-1.35,3-3v-1c0-1.65-1.35-3-3-3Z"/>
    <path class="cls-1" d="m16,28c1.62,0,3.07-.97,3.69-2.46l.52-1.25c-1.32.46-2.74.72-4.21.72s-2.89-.26-4.21-.72l.52,1.25c.62,1.5,2.07,2.46,3.69,2.46Z"/>
  </g>
</svg>