<?xml version="1.0" encoding="UTF-8"?>
<svg id="OBJECT" xmlns="http://www.w3.org/2000/svg" viewBox="0 0 32 32">
  <defs>
    <style>
      .cls-1 {
        fill: #FD4360;
      }

      .cls-1, .cls-2 {
        stroke-width: 0px;
      }

      .cls-2 {
        fill: #dadada;
      }
    </style>
  </defs>
  <g>
    <path class="cls-2" d="m7,21.49c0-.55-.45-1-1-1s-1,.45-1,1c0,3.04,2.47,5.51,5.51,5.51.55,0,1-.45,1-1s-.45-1-1-1c-1.94,0-3.51-1.58-3.51-3.51Z"/>
    <path class="cls-2" d="m15.82,11h1.18c.55,0,1-.45,1-1s-.45-1-1-1h-1.62l2.19-5.63c.12-.31.08-.67-.12-.94-.19-.27-.51-.45-.85-.42l-4.57.17-.03-.28c-.05-.51-.48-.89-.99-.89h-4.69c-.3,0-.59.14-.78.37-.19.24-.26.55-.2.84l1.51,6.78h-1.84c-.55,0-1,.45-1,1s.45,1,1,1h1.18l-3.5,5.09c-1.1,1.59-1.68,3.46-1.68,5.4,0,5.24,4.27,9.51,9.51,9.51h.98c1.5,0,2.98-.36,4.3-1.03.49-.25.69-.85.43-1.35-.25-.49-.86-.69-1.35-.43-1.03.53-2.2.81-3.38.81h-.98c-4.14,0-7.51-3.37-7.51-7.51,0-1.53.46-3.01,1.32-4.26l4.28-6.23h4.79l2.68,3.91c.19.28.51.43.83.43.19,0,.39-.06.56-.18.46-.31.57-.93.26-1.39l-1.9-2.77Zm-.67-6.94l-1.92,4.94h-.48l-.51-4.83,2.91-.11Zm-7.59-1.06h2.55l.64,6h-1.85l-1.33-6Z"/>
  </g>
  <path class="cls-1" d="m23.5,15c-4.14,0-7.5,3.36-7.5,7.5s3.36,7.5,7.5,7.5,7.5-3.36,7.5-7.5-3.36-7.5-7.5-7.5Zm-.75,6.5h1.5c1.38,0,2.5,1.12,2.5,2.5,0,1.29-.99,2.35-2.25,2.47v.53c0,.55-.45,1-1,1s-1-.45-1-1v-.5h-1.25c-.55,0-1-.45-1-1s.45-1,1-1h3c.28,0,.5-.22.5-.5s-.22-.5-.5-.5h-1.5c-1.38,0-2.5-1.12-2.5-2.5,0-1.29.99-2.35,2.25-2.47v-.53c0-.55.45-1,1-1s1,.45,1,1v.5h1.25c.55,0,1,.45,1,1s-.45,1-1,1h-3c-.28,0-.5.22-.5.5s.22.5.5.5Z"/>
</svg>