<?xml version="1.0" encoding="UTF-8"?>
<svg id="OBJECT" xmlns="http://www.w3.org/2000/svg" viewBox="0 0 32 32">
  <defs>
    <style>
      .cls-1 {
        fill: #FD4360;
      }

      .cls-1, .cls-2 {
        stroke-width: 0px;
      }

      .cls-2 {
        fill: #dadada;
      }
    </style>
  </defs>
  <g>
    <path class="cls-2" d="m28,1H4c-1.65,0-3,1.35-3,3v19c0,1.65,1.35,3,3,3h24c1.65,0,3-1.35,3-3V4c0-1.65-1.35-3-3-3ZM4,3h24c.55,0,1,.45,1,1v14H3V4c0-.55.45-1,1-1Zm24,21H4c-.55,0-1-.45-1-1v-3h26v3c0,.55-.45,1-1,1Z"/>
    <path class="cls-2" d="m14,21h-1c-.55,0-1,.45-1,1s.45,1,1,1h1c.55,0,1-.45,1-1s-.45-1-1-1Z"/>
    <path class="cls-2" d="m19,21h-1c-.55,0-1,.45-1,1s.45,1,1,1h1c.55,0,1-.45,1-1s-.45-1-1-1Z"/>
  </g>
  <g>
    <path class="cls-1" d="m26,29h-5.5v-1h-9v1h-5.5c-.55,0-1,.45-1,1s.45,1,1,1h20c.55,0,1-.45,1-1s-.45-1-1-1Z"/>
    <path class="cls-1" d="m18.25,12.24c.25,0,.5-.09.7-.29.4-.39.4-1.02.02-1.41-.79-.81-1.84-1.25-2.96-1.25s-2.17.45-2.96,1.25c-.39.4-.38,1.03.02,1.41.4.39,1.03.38,1.41-.02.82-.84,2.25-.84,3.07,0,.2.2.46.3.71.3Z"/>
    <path class="cls-1" d="m12.21,8.6c1.01-1.04,2.36-1.6,3.79-1.6s2.77.57,3.79,1.6c.2.2.46.3.71.3s.5-.09.7-.29c.4-.39.4-1.02.02-1.41-1.39-1.42-3.24-2.21-5.21-2.21s-3.82.78-5.21,2.21c-.39.4-.38,1.03.02,1.41.4.39,1.03.38,1.41-.02Z"/>
    <path class="cls-1" d="m15.75,13.1c-.55,0-1,.45-1,1s.45,1,1,1h.5c.55,0,1-.45,1-1s-.45-1-1-1h-.5Z"/>
  </g>
</svg>