<?xml version="1.0" encoding="UTF-8"?>
<svg id="OBJECT" xmlns="http://www.w3.org/2000/svg" viewBox="0 0 32 32">
  <defs>
    <style>
      .cls-1 {
        fill: #FD4360;
      }

      .cls-1, .cls-2 {
        stroke-width: 0px;
      }

      .cls-2 {
        fill: #dadada;
      }
    </style>
  </defs>
  <g>
    <path class="cls-2" d="m26.69,18.84h0c-.55,0-1,.45-1,1,0,.45-.17.88-.49,1.2s-.74.49-1.19.49c0,0,0,0-.01,0-.55,0-1,.44-1,1,0,.55.44,1,1,1h.02c.98,0,1.91-.38,2.6-1.07.7-.7,1.08-1.63,1.08-2.62,0-.55-.45-1-1-1Z"/>
    <path class="cls-2" d="m30,19.47h0c-.55,0-1,.45-1,1,0,1.17-.45,2.27-1.27,3.1s-1.91,1.27-3.08,1.27c0,0-.02,0-.03,0-.55,0-1,.44-1,1,0,.55.44,1,1,1h.03c1.7,0,3.29-.66,4.49-1.86,1.21-1.21,1.87-2.81,1.86-4.52,0-.55-.45-1-1-1Z"/>
    <path class="cls-2" d="m8,23.53c.55,0,1-.45,1-1,0-.55-.45-1-1-1h0c-.44,0-.88-.17-1.19-.49s-.49-.74-.49-1.2c0-.55-.44-1-1-1h0c-.55,0-1,.44-1,1,0,.99.38,1.92,1.08,2.62.69.69,1.62,1.07,2.6,1.07h.02Z"/>
    <path class="cls-2" d="m7.38,26.84c.55,0,1-.45,1-1,0-.55-.45-1-1-1h0c-1.18-.03-2.28-.45-3.1-1.27-.83-.83-1.28-1.93-1.27-3.1,0-.55-.44-1-1-1h0c-.55,0-1,.44-1,1,0,1.71.65,3.32,1.86,4.52,1.2,1.2,2.79,1.86,4.49,1.86h.03Z"/>
    <path class="cls-2" d="m24,29h-4.5v-7h.27c1.19,0,2.22-.85,2.45-2.01l.6-2.99h1.18c2.76,0,5-2.24,5-5v-6c0-2.76-2.24-5-5-5H8c-2.76,0-5,2.24-5,5v6c0,2.76,2.24,5,5,5h1.18l.6,2.99c.23,1.16,1.26,2.01,2.45,2.01h.27v7h-4.5c-.55,0-1,.45-1,1s.45,1,1,1h16c.55,0,1-.45,1-1s-.45-1-1-1ZM5,12v-6c0-1.65,1.35-3,3-3h16c1.65,0,3,1.35,3,3v6c0,1.65-1.35,3-3,3H8c-1.65,0-3-1.35-3-3Zm6.74,7.6l-.52-2.6h9.56l-.52,2.6c-.05.23-.25.4-.49.4h-7.54c-.24,0-.44-.17-.49-.4Zm2.76,2.4h3v7h-3v-7Z"/>
  </g>
  <g>
    <rect class="cls-1" x="13" y="4.5" width="6" height="9" rx="2.5" ry="2.5"/>
    <path class="cls-1" d="m23,4.5c-1.38,0-2.5,1.12-2.5,2.5v4c0,1.38,1.12,2.5,2.5,2.5s2.5-1.12,2.5-2.5v-4c0-1.38-1.12-2.5-2.5-2.5Z"/>
    <path class="cls-1" d="m9,4.5c-1.38,0-2.5,1.12-2.5,2.5v4c0,1.38,1.12,2.5,2.5,2.5s2.5-1.12,2.5-2.5v-4c0-1.38-1.12-2.5-2.5-2.5Z"/>
  </g>
</svg>