<?xml version="1.0" encoding="UTF-8"?>
<svg id="OBJECT" xmlns="http://www.w3.org/2000/svg" viewBox="0 0 32 32">
  <defs>
    <style>
      .cls-1 {
        fill: #FD4360;
      }

      .cls-2 {
        fill: #dadada;
      }
    </style>
  </defs>
  <g>
    <path class="cls-2" d="m7,20.83c0-.55-.45-1-1-1s-1,.45-1,1c0,3.4,2.81,6.17,6.26,6.17.55,0,1-.45,1-1s-.45-1-1-1c-2.35,0-4.26-1.87-4.26-4.17Z"/>
    <path class="cls-2" d="m19.97,10.27c-.22-.33-.42-.67-.63-1.04-2.08-3.66.24-6.47.34-6.58.29-.34.33-.83.08-1.2s-.71-.54-1.13-.41c-5.46,1.69-7.84,5.73-8.88,8.79-1.79-2.56-4.95-3.47-5.14-3.52-.35-.1-.73,0-.99.27-.25.26-.34.64-.24.99.87,2.79-.86,7.53-1.64,9.45-.49,1.22-.74,2.5-.74,3.8,0,5.61,4.6,10.17,10.26,10.17h1.74c.55,0,1-.45,1-1s-.45-1-1-1h-1.74c-4.55,0-8.26-3.67-8.26-8.17,0-1.04.2-2.07.59-3.05.88-2.15,2.15-5.82,2.01-8.89,1.43.76,3.34,2.26,3.34,4.84,0,0,0,0,0,0v3.27c0,.55.45,1,1,1s1-.45,1-1v-3.26c.02-.41.34-6.64,5.84-9.75-.49,1.69-.52,3.9.8,6.22.22.4.46.78.7,1.15.3.46.92.59,1.38.29.46-.3.59-.92.29-1.38Z"/>
  </g>
  <g>
    <path class="cls-1" d="m28.69,20.28c-.79,2.39-3.04,4.11-5.69,4.11s-4.9-1.73-5.69-4.11c-1.4,1.1-2.31,2.8-2.31,4.72v6h3v-3c0-.55.45-1,1-1s1,.45,1,1v3h6v-3c0-.55.45-1,1-1s1,.45,1,1v3h3v-6c0-1.92-.91-3.63-2.31-4.72Z"/>
    <path class="cls-1" d="m23,22.39c2.21,0,4-1.79,4-4v-2.67c0-1.72-1.4-3.11-3.11-3.11h-1.78c-1.72,0-3.11,1.4-3.11,3.11v2.67c0,2.21,1.79,4,4,4Z"/>
  </g>
</svg>