<?xml version="1.0" encoding="UTF-8"?>
<svg id="OBJECT" xmlns="http://www.w3.org/2000/svg" viewBox="0 0 32 32">
  <defs>
    <style>
      .cls-1 {
        fill: #FD4360;
      }

      .cls-1, .cls-2 {
        stroke-width: 0px;
      }

      .cls-2 {
        fill: #dadada;
      }
    </style>
  </defs>
  <g>
    <path class="cls-2" d="m26.19,15.65l-9.84-9.84c-.39-.39-1.02-.39-1.41,0L1.88,18.87c-.56.56-.88,1.31-.88,2.11s.31,1.55.88,2.11l7.03,7.03c.58.58,1.35.87,2.11.87s1.53-.29,2.11-.87l13.06-13.06c.39-.39.39-1.02,0-1.41Zm-15.87,13.06l-7.03-7.03c-.19-.19-.29-.44-.29-.7s.1-.51.29-.7l1.4-1.4,8.43,8.43-1.4,1.4c-.38.38-1.01.38-1.4,0Zm4.21-2.82l-8.43-8.43L15.64,7.93l8.43,8.43-9.54,9.54Z"/>
    <path class="cls-2" d="m13.43,14.75c-.55,0-1,.46-.99,1.01s.47,1.01,1.01.99c.48.01.94.18,1.28.52.34.34.52.8.52,1.28,0,.55.44,1,.99,1.01h.01c.55,0,.99-.44,1-.99.01-1.03-.38-2-1.1-2.72-.72-.72-1.67-1.08-2.72-1.1Z"/>
    <path class="cls-2" d="m13.12,12.27c0,.55.45.99,1,.99h.01c1.23-.04,2.41.46,3.28,1.33.87.87,1.34,2.04,1.33,3.28,0,.55.44,1,.99,1.01h.01c.55,0,.99-.44,1-.99.02-1.79-.66-3.47-1.91-4.72-1.25-1.25-2.91-1.91-4.72-1.91-.55,0-.99.46-.99,1.01Z"/>
    <path class="cls-2" d="m13.61,18.08c-.39-.39-1.02-.39-1.41,0s-.39,1.02,0,1.41l.31.31c.2.2.45.29.71.29s.51-.1.71-.29c.39-.39.39-1.02,0-1.41l-.31-.31Z"/>
  </g>
  <path class="cls-1" d="m30.71,8.32l-7.03-7.03c-.39-.39-1.02-.39-1.41,0l-4.21,4.21,8.44,8.44,4.21-4.21c.39-.39.39-1.02,0-1.41Zm-7.21-.87c-.2.2-.45.29-.71.29s-.51-.1-.71-.29l-.35-.35c-.39-.39-.39-1.02,0-1.41.39-.39,1.02-.39,1.41,0l.35.35c.39.39.39,1.02,0,1.41Zm2.81,2.81c-.2.19-.45.29-.71.29s-.51-.1-.71-.29l-.35-.35c-.39-.39-.39-1.02,0-1.41.39-.39,1.02-.39,1.41,0l.35.35c.39.39.39,1.02,0,1.41Z"/>
</svg>