<?xml version="1.0" encoding="UTF-8"?>
<svg id="OBJECT" xmlns="http://www.w3.org/2000/svg" viewBox="0 0 32 32">
  <defs>
    <style>
      .cls-1 {
        fill: #FD4360;
      }

      .cls-2 {
        fill: #dadada;
      }
    </style>
  </defs>
  <g>
    <path class="cls-2" d="M10,26h-.5c-.55,0-1,.45-1,1s.45,1,1,1h.5c.55,0,1-.45,1-1s-.45-1-1-1Z"/>
    <path class="cls-2" d="M13.5,28h.5c.55,0,1-.45,1-1s-.45-1-1-1h-.5c-.55,0-1,.45-1,1s.45,1,1,1Z"/>
    <path class="cls-2" d="M30,29h-.96l-7.7-11.55c-.37-.56-1.29-.56-1.66,0l-1.46,2.19-.17-.27c-.29-.47-.91-.61-1.38-.32-.47,.29-.61,.91-.32,1.38l5.35,8.57H5.3l5.42-8.67c.29-.47,.15-1.09-.32-1.38-.47-.29-1.09-.15-1.38,.32L2.95,29h-.95c-.55,0-1,.45-1,1s.45,1,1,1H30c.55,0,1-.45,1-1s-.45-1-1-1Zm-10.63-7.5l1.13-1.7,6.13,9.2h-2.58l-4.69-7.5Z"/>
  </g>
  <path class="cls-1" d="M13.7,17.69c1.21,0,2.41-.19,3.56-.55l-2.76-4.42v-2.71h7c.55,0,1-.45,1-1V3c0-.55-.45-1-1-1h-7c0-.55-.45-1-1-1s-1,.45-1,1V12.71l-2.7,4.32c1.25,.43,2.56,.66,3.9,.66Z"/>
</svg>