<?xml version="1.0" encoding="UTF-8"?>
<svg id="OBJECT" xmlns="http://www.w3.org/2000/svg" viewBox="0 0 32 32">
  <defs>
    <style>
      .cls-1 {
        fill: #FD4360;
      }

      .cls-2 {
        fill: #dadada;
      }
    </style>
  </defs>
  <path class="cls-2" d="M30,29h-.98l-6.7-9.57c-.19-.27-.49-.43-.82-.43s-.63,.16-.82,.43l-1.74,2.48-.39-.55c-.32-.45-.95-.55-1.39-.23-.45,.32-.55,.95-.23,1.4l4.63,6.48H5.44l3.8-5.33c.32-.45,.22-1.07-.23-1.39-.45-.32-1.07-.22-1.4,.23l-4.63,6.49h-.98c-.55,0-1,.45-1,1s.45,1,1,1H30c.55,0,1-.45,1-1s-.45-1-1-1Zm-9.82-5.37l1.32-1.89,5.08,7.26h-2.56l-3.84-5.37Z"/>
  <path class="cls-1" d="M16.91,19.05l-2.41-3.37v-4.68h9c.36,0,.69-.19,.87-.5,.18-.31,.18-.69,0-1l-1.72-3,1.72-3c.18-.31,.18-.69,0-1-.18-.31-.51-.5-.87-.5H14.5c0-.55-.45-1-1-1s-1,.45-1,1V15.68l-3.24,4.54c1.89,.7,5.08,1.29,7.65-1.16Z"/>
</svg>