<?xml version="1.0" encoding="UTF-8"?>
<svg id="OBJECT" xmlns="http://www.w3.org/2000/svg" viewBox="0 0 32 32">
  <defs>
    <style>
      .cls-1 {
        fill: #FD4360;
      }

      .cls-1, .cls-2 {
        stroke-width: 0px;
      }

      .cls-2 {
        fill: #dadada;
      }
    </style>
  </defs>
  <path class="cls-2" d="m14,11h-6c-2.21,0-4,1.79-4,4v9c0,3.86,3.14,7,7,7s7-3.14,7-7v-9c0-2.21-1.79-4-4-4Zm-2.25,6.75v2.5c0,.41-.34.75-.75.75s-.75-.34-.75-.75v-2.5c0-.41.34-.75.75-.75s.75.34.75.75Zm4.25,6.25c0,2.76-2.24,5-5,5s-5-2.24-5-5v-9c0-1.1.9-2,2-2h2v2.19c-1.02.4-1.75,1.39-1.75,2.56v2.5c0,1.52,1.23,2.75,2.75,2.75s2.75-1.23,2.75-2.75v-2.5c0-1.16-.73-2.15-1.75-2.56v-2.19h2c1.1,0,2,.9,2,2v9Z"/>
  <g>
    <path class="cls-1" d="m27,7c-.55,0-1,.45-1,1v9c0,.55-.45,1-1,1h-1c-.55,0-1-.45-1-1V4c0-1.65-1.35-3-3-3h-7c-1.65,0-3,1.35-3,3v2h-2v3h6v-3h-2v-2c0-.55.45-1,1-1h7c.55,0,1,.45,1,1v13c0,1.65,1.35,3,3,3h1c1.65,0,3-1.35,3-3v-9c0-.55-.45-1-1-1Z"/>
    <path class="cls-1" d="m27,3c-.55,0-1,.45-1,1v1c0,.55.45,1,1,1s1-.45,1-1v-1c0-.55-.45-1-1-1Z"/>
  </g>
</svg>