<?xml version="1.0" encoding="UTF-8"?>
<svg id="OBJECT" xmlns="http://www.w3.org/2000/svg" viewBox="0 0 32 32">
  <defs>
    <style>
      .cls-1 {
        fill: #FD4360;
      }

      .cls-1, .cls-2 {
        stroke-width: 0px;
      }

      .cls-2 {
        fill: #dadada;
      }
    </style>
  </defs>
  <g>
    <path class="cls-2" d="m5,22c.55,0,1-.45,1-1v-1c0-.55.45-1,1-1h8v2c0,.55.45,1,1,1s1-.45,1-1v-2h8c.55,0,1,.45,1,1v1c0,.55.45,1,1,1s1-.45,1-1v-1c0-1.65-1.35-3-3-3h-8v-1c0-.55-.45-1-1-1s-1,.45-1,1v1H7c-1.65,0-3,1.35-3,3v1c0,.55.45,1,1,1Z"/>
    <path class="cls-2" d="m17,23h-2c-1.65,0-3,1.35-3,3v2c0,1.65,1.35,3,3,3h2c1.65,0,3-1.35,3-3v-2c0-1.65-1.35-3-3-3Zm1,5c0,.55-.45,1-1,1h-2c-.55,0-1-.45-1-1v-2c0-.55.45-1,1-1h2c.55,0,1,.45,1,1v2Z"/>
    <path class="cls-2" d="m7.34,24.45c-.45-.89-1.34-1.45-2.34-1.45s-1.9.55-2.34,1.45l-1.38,2.76c-.18.36-.28.77-.28,1.17,0,1.44,1.17,2.62,2.62,2.62h2.76c1.44,0,2.62-1.17,2.62-2.62,0-.4-.1-.81-.28-1.17l-1.38-2.76Zm-.96,4.55h-2.76c-.34,0-.62-.28-.62-.62,0-.1.02-.19.07-.28l1.38-2.76c.11-.21.32-.34.55-.34s.45.13.55.34l1.38,2.76c.04.08.07.18.07.28,0,.34-.28.62-.62.62Z"/>
    <path class="cls-2" d="m27,23c-2.21,0-4,1.79-4,4s1.79,4,4,4,4-1.79,4-4-1.79-4-4-4Zm0,6c-1.1,0-2-.9-2-2s.9-2,2-2,2,.9,2,2-.9,2-2,2Z"/>
  </g>
  <g>
    <path class="cls-1" d="m20.46,7.01c-.82,1.65-2.5,2.79-4.46,2.79s-3.65-1.15-4.46-2.79c-.95,1.06-1.54,2.46-1.54,3.99v.5c0,1.38,1.12,2.5,2.5,2.5h7c1.38,0,2.5-1.12,2.5-2.5v-.5c0-1.53-.58-2.93-1.54-3.99Z"/>
    <path class="cls-1" d="m16,7.8c1.65,0,3-1.35,3-3v-1.2c0-1.43-1.17-2.6-2.6-2.6h-.8c-1.43,0-2.6,1.17-2.6,2.6v1.2c0,1.65,1.35,3,3,3Z"/>
  </g>
</svg>