<?xml version="1.0" encoding="UTF-8"?>
<svg id="OBJECT" xmlns="http://www.w3.org/2000/svg" viewBox="0 0 32 32">
  <defs>
    <style>
      .cls-1 {
        fill: #FD4360;
      }

      .cls-2 {
        fill: #dadada;
      }
    </style>
  </defs>
  <path class="cls-2" d="M30.54,12.32c-1.69-6.66-7.67-11.32-14.54-11.32C7.73,1,1,7.73,1,16s6.72,14.99,14.98,15h0c.55,0,1-.45,1-1s-.45-1-1-1c-1.94,0-3.77-.44-5.42-1.21l1.04-1.52c.66-.96,.57-2.24-.22-3.1l-.88-.96,3.14-2.96c.41-.38,.68-.9,.76-1.45,.11-.74-.1-1.51-.57-2.1-.47-.59-1.17-.96-1.92-1.01l-4.05-.31,.04-.19c.15-.79-.1-1.61-.65-2.19-.55-.58-1.36-.86-2.15-.75l-1.27,.18c1.48-3.92,4.79-6.94,8.89-8.01l-.31,3.41c-.07,.74,.19,1.46,.71,1.98,.52,.53,1.24,.79,1.97,.73l1.37-.11c.17-.02,.31,.07,.37,.12s.16,.17,.17,.36l.09,2.5c.06,1.64,1.38,2.92,3.02,2.92h.02c.82,0,1.61-.35,2.17-.94l4.85-5.09c.64,1.06,1.14,2.23,1.45,3.48,.14,.54,.68,.86,1.22,.72,.54-.14,.86-.68,.72-1.21Zm-25.15,.93c.21-.03,.36,.08,.43,.15,.07,.07,.17,.22,.13,.44l-.24,1.29c-.05,.28,.02,.57,.19,.79,.17,.23,.43,.37,.72,.39l5.17,.39c.2,.02,.38,.11,.51,.27s.18,.35,.15,.55c-.02,.11-.07,.21-.15,.29l-3.86,3.63c-.4,.37-.42,1-.05,1.4l1.54,1.68c.16,.17,.17,.43,.04,.62l-1.15,1.68c-3.5-2.33-5.81-6.31-5.81-10.82,0-.84,.09-1.66,.24-2.45l2.15-.3Zm15.46-.2c-.19,.2-.46,.31-.73,.32h0c-.55,0-1-.43-1.02-.98l-.09-2.5c-.02-.68-.33-1.33-.83-1.78-.51-.46-1.18-.68-1.86-.63l-1.37,.11c-.19,.03-.33-.08-.39-.15s-.16-.2-.14-.4l.36-3.97c.41-.04,.82-.06,1.23-.06,3.96,0,7.56,1.79,9.97,4.67l-5.12,5.37Z"/>
  <path class="cls-1" d="M25.46,16.96c-.3,.13-.54,.36-.68,.66l-1.73,3.75c-.25,.55-.72,.97-1.3,1.15l-2,.65c-.72,.23-1.29,.78-1.56,1.49l-.38,1.01c-.27,.71-.2,1.49,.19,2.14l1.62,2.73c6.52-1.63,11.37-7.52,11.37-14.54,0-.47-.03-.93-.07-1.39l-5.47,2.35Z"/>
</svg>