<?xml version="1.0" encoding="UTF-8"?>
<svg id="OBJECT" xmlns="http://www.w3.org/2000/svg" viewBox="0 0 32 32">
  <defs>
    <style>
      .cls-1 {
        fill: #FD4360;
      }

      .cls-1, .cls-2 {
        stroke-width: 0px;
      }

      .cls-2 {
        fill: #dadada;
      }
    </style>
  </defs>
  <path class="cls-2" d="m14.5,1C7.06,1,1,7.06,1,14.5s6.06,13.5,13.5,13.5c.11,0,.24,0,.35-.03.54-.11.91-.64.8-1.18-.11-.54-.62-.9-1.16-.79-.13,0-.26-.02-.39-.02l1.23-7.06c.17-.96-.17-1.92-.9-2.57l-.55-.49c-.82-.73-2-.9-3-.44l-1.29.59c-.38.17-.83.02-1.02-.36-.39-.76-1.09-1.29-1.92-1.46-.84-.17-1.69.04-2.34.59l-1.23,1.02c-.05-.43-.08-.87-.08-1.31,0-4.91,3.09-9.09,7.43-10.74l.02,3.05c0,.81.36,1.58.97,2.11.61.54,1.42.78,2.22.68.37-.05.73.16.87.5l.63,1.48c.41.97,1.32,1.62,2.38,1.71l8.46.69c0,.16.03.32.03.49-.11.54.25,1.07.79,1.17.55.1,1.07-.25,1.17-.79.02-.11.03-.24.03-.35,0-7.44-6.06-13.5-13.5-13.5Zm-8.91,15.32c.25-.21.52-.19.66-.17s.39.12.54.41c.68,1.33,2.27,1.89,3.64,1.27l1.29-.59c.28-.13.61-.08.84.12l.55.49c.21.18.3.45.25.72l-1.25,7.17c-4.05-.86-7.31-3.85-8.56-7.73l2.03-1.69Zm12.09-5.03c-.31-.03-.58-.22-.7-.5l-.63-1.48c-.5-1.16-1.71-1.85-2.96-1.7-.24.03-.47-.04-.66-.2-.18-.16-.28-.38-.28-.62l-.02-3.6c.67-.12,1.37-.2,2.08-.2,5.47,0,10.06,3.85,11.22,8.95l-8.04-.66Z"/>
  <g>
    <path class="cls-1" d="m23.5,16c-4.14,0-7.5,3.36-7.5,7.5,0,1.27.32,2.46.87,3.5.74-1.4,1.92-2.55,3.37-3.25-.15-.39-.24-.81-.24-1.25,0-1.93,1.57-3.5,3.5-3.5s3.5,1.57,3.5,3.5c0,.44-.09.86-.24,1.25,1.45.7,2.63,1.85,3.37,3.25.56-1.05.87-2.24.87-3.5,0-4.14-3.36-7.5-7.5-7.5Z"/>
    <circle class="cls-1" cx="23.5" cy="22.5" r="1.5"/>
    <path class="cls-1" d="m25.47,25.39c-.56.38-1.24.61-1.97.61s-1.41-.23-1.97-.61c-1.57.61-2.77,1.9-3.27,3.47,1.35,1.32,3.2,2.14,5.24,2.14s3.88-.82,5.24-2.14c-.5-1.57-1.69-2.86-3.27-3.47Z"/>
  </g>
</svg>