<?xml version="1.0" encoding="UTF-8"?>
<svg id="OBJECT" xmlns="http://www.w3.org/2000/svg" viewBox="0 0 32 32">
  <defs>
    <style>
      .cls-1 {
        fill: #FD4360;
      }

      .cls-1, .cls-2 {
        stroke-width: 0px;
      }

      .cls-2 {
        fill: #dadada;
      }
    </style>
  </defs>
  <path class="cls-2" d="m29.06,8.64c-.27-.48-.88-.65-1.36-.38-.48.27-.65.88-.38,1.36.93,1.65,1.47,3.49,1.61,5.38h-4.47c-.08-1.83-.35-3.56-.84-5.13-.17-.53-.72-.82-1.25-.66-.53.17-.82.73-.66,1.25.43,1.38.68,2.91.75,4.53h-5.47v-4.43c0-.55-.45-1-1-1s-1,.45-1,1v4.43h-5.47c.07-1.61.32-3.12.74-4.5.16-.53-.13-1.09-.66-1.25-.53-.16-1.09.13-1.25.66-.49,1.57-.76,3.28-.83,5.09H3.06c.15-1.87.67-3.7,1.59-5.34.27-.48.1-1.09-.38-1.36-.48-.27-1.09-.1-1.36.38-1.25,2.23-1.91,4.76-1.91,7.32,0,8.27,6.73,15,15,15s15-6.73,15-15c0-2.58-.67-5.12-1.94-7.36Zm-6.6,8.36c-.11,2.41-.59,4.38-1.27,5.96-1.19-.27-2.58-.46-4.2-.51v-5.45h5.46Zm-7.46,11.28c-.93-.65-2.16-1.74-3.23-3.45.94-.19,2.01-.31,3.23-.36v3.81Zm-2.96.1c-1.53-.49-2.93-1.25-4.15-2.23.5-.27,1.12-.54,1.87-.79.71,1.24,1.5,2.24,2.28,3.03Zm4.96-.1v-3.84c1.23.04,2.32.16,3.26.35-1.08,1.74-2.32,2.84-3.26,3.49Zm5.26-2.97c.75.25,1.37.54,1.87.81-1.23.99-2.64,1.76-4.18,2.26.79-.79,1.59-1.81,2.3-3.07Zm-7.26-2.86c-1.61.06-2.99.26-4.19.53-.68-1.59-1.17-3.57-1.28-5.98h5.46v5.45Zm-11.95-5.45h4.49c.11,2.61.61,4.77,1.34,6.54-1.05.37-1.88.78-2.51,1.16-1.88-2.07-3.1-4.75-3.32-7.71Zm22.59,7.69c-.63-.39-1.46-.8-2.51-1.17.72-1.76,1.22-3.92,1.32-6.51h4.49c-.23,2.95-1.44,5.62-3.31,7.69Z"/>
  <g>
    <path class="cls-1" d="m10.2,7.69c1.47.18,3.06.29,4.8.32V1c-.29.02-.57.04-.86.08-1.3,1.28-2.88,3.37-3.94,6.61Z"/>
    <path class="cls-1" d="m17,1v7c1.73-.04,3.32-.16,4.79-.35-1.07-3.22-2.63-5.3-3.93-6.58-.28-.04-.57-.06-.86-.08Z"/>
    <path class="cls-1" d="m21.15,1.87c.99,1.4,1.94,3.2,2.66,5.47,1.41-.25,2.67-.56,3.81-.91-1.69-2.05-3.93-3.63-6.47-4.57Z"/>
    <path class="cls-1" d="m4.34,6.49c1.14.34,2.42.65,3.84.9.72-2.3,1.68-4.11,2.67-5.52-2.57.94-4.81,2.54-6.51,4.62Z"/>
  </g>
</svg>