<?xml version="1.0" encoding="UTF-8"?>
<svg id="OBJECT" xmlns="http://www.w3.org/2000/svg" viewBox="0 0 32 32">
  <defs>
    <style>
      .cls-1 {
        fill: #FD4360;
      }

      .cls-1, .cls-2 {
        stroke-width: 0px;
      }

      .cls-2 {
        fill: #dadada;
      }
    </style>
  </defs>
  <path class="cls-2" d="m21,19h-.75c-.08-.07-.16-.14-.26-.21l-.94-.63c-.36-.24-.84-.22-1.18.05l-1.88,1.5-1.88-1.5c-.34-.27-.82-.29-1.18-.05l-.94.63c-.09.06-.17.13-.26.21h-.75c-3.86,0-7,3.14-7,7v4c0,.55.45,1,1,1h22c.55,0,1-.45,1-1v-4c0-3.86-3.14-7-7-7Zm-2.45,1.24l.33.22c.21.14.28.4.18.62l-.43.95-1.09-.98,1.01-.81Zm-5.44.22l.33-.22,1.01.81-1.09.98-.43-.95c-.1-.22-.03-.49.18-.62Zm12.88,8.54h-2v-1c0-.55-.45-1-1-1s-1,.45-1,1v1h-12v-1c0-.55-.45-1-1-1s-1,.45-1,1v1h-2v-3c0-2.72,2.19-4.93,4.9-4.99.02.3.09.61.22.9l1,2.19c.13.29.39.5.71.57.07.01.14.02.2.02.25,0,.48-.09.67-.26l2.31-2.08,2.31,2.08c.19.17.42.26.67.26.07,0,.14,0,.2-.02.31-.07.57-.28.71-.57l1-2.19c.13-.29.2-.6.22-.9,2.71.06,4.9,2.27,4.9,4.99v3Z"/>
  <g>
    <path class="cls-1" d="m17.5,1h-3c-2.76,0-5,2.24-5,5v1h13v-1c0-2.76-2.24-5-5-5Z"/>
    <path class="cls-1" d="m10.5,10.5c0,1.7.78,3.23,2,4.24v1.18l3.5,2.8,3.5-2.8v-1.18c1.22-1.01,2-2.54,2-4.24v-1.5h-11v1.5Zm3.59,1.29c.39-.39,1.02-.39,1.41,0,.27.27.73.27,1,0,.39-.39,1.02-.39,1.41,0,.39.39.39,1.02,0,1.41-.51.51-1.19.79-1.91.79s-1.4-.28-1.91-.79c-.39-.39-.39-1.02,0-1.41Z"/>
  </g>
</svg>