<?xml version="1.0" encoding="UTF-8"?>
<svg id="OBJECT" xmlns="http://www.w3.org/2000/svg" viewBox="0 0 32 32">
  <defs>
    <style>
      .cls-1 {
        fill: #FD4360;
      }

      .cls-1, .cls-2 {
        stroke-width: 0px;
      }

      .cls-2 {
        fill: #dadada;
      }
    </style>
  </defs>
  <g>
    <path class="cls-2" d="m8.5,26c0,.55.45,1,1,1h7c.55,0,1-.45,1-1s-.45-1-1-1h-7c-.55,0-1,.45-1,1Z"/>
    <path class="cls-2" d="m25,5h-3v-1.5c0-1.38-1.12-2.5-2.5-2.5H6.5c-1.38,0-2.5,1.12-2.5,2.5v25c0,1.38,1.12,2.5,2.5,2.5h13c1.38,0,2.5-1.12,2.5-2.5v-5.5h3c1.65,0,3-1.35,3-3v-12c0-1.65-1.35-3-3-3Zm-5,23.5c0,.28-.22.5-.5.5H6.5c-.28,0-.5-.22-.5-.5V3.5c0-.28.22-.5.5-.5h13c.28,0,.5.22.5.5v1.5h-7c-1.65,0-3,1.35-3,3v12c0,1.65,1.35,3,3,3h7v5.5Zm6-8.5c0,.55-.45,1-1,1h-12c-.55,0-1-.45-1-1v-12c0-.55.45-1,1-1h12c.55,0,1,.45,1,1v12Z"/>
  </g>
  <path class="cls-1" d="m24,17.5h-.07c.4-.71.6-1.52.56-2.4-.08-1.76-1.1-3.21-2.58-3.69-.99-.32-1.63-.94-1.91-1.26v-.65c0-.55-.45-1-1-1s-1,.45-1,1v.65c-.28.32-.92.94-1.91,1.26-1.49.48-2.5,1.93-2.58,3.69-.04.88.17,1.69.56,2.4h-.07c-.55,0-1,.45-1,1s.45,1,1,1h10c.55,0,1-.45,1-1s-.45-1-1-1Z"/>
</svg>