<?xml version="1.0" encoding="UTF-8"?>
<svg id="OBJECT" xmlns="http://www.w3.org/2000/svg" viewBox="0 0 32 32">
  <defs>
    <style>
      .cls-1 {
        fill: #FD4360;
      }

      .cls-1, .cls-2 {
        stroke-width: 0px;
      }

      .cls-2 {
        fill: #dadada;
      }
    </style>
  </defs>
  <path class="cls-2" d="m27.64,23.87l-3.06-5.86c1.77-4.97,1.7-9.04-.21-12.09C21.67,1.6,16.32,1.03,16.1,1c-.06,0-.13,0-.2,0-.23.02-5.57.59-8.27,4.92-1.91,3.05-1.98,7.12-.21,12.09l-3.06,5.86c-.24.45-.36.96-.36,1.47,0,1.43.96,2.68,2.34,3.06l9.4,2.56c.09.02.17.04.26.04s.18-.01.26-.04l9.4-2.56c1.38-.38,2.34-1.63,2.34-3.06,0-.51-.12-1.02-.36-1.47ZM9.32,7c1.99-3.2,6-3.89,6.68-3.99.68.1,4.69.79,6.68,3.99,1.6,2.57,1.56,6.16-.1,10.66-.28.44-2.23,3.23-6.61,5.51-4.28-2.22-6.22-4.99-6.54-5.49-1.67-4.51-1.7-8.1-.11-10.67Zm-3.19,17.8l2.53-4.83c.93,1.11,2.56,2.72,5.05,4.22-2.08.81-4.58,1.45-7.53,1.75-.11-.18-.18-.38-.18-.6,0-.19.05-.38.13-.54Zm19,1.67l-9.14,2.49-5.9-1.61c7.49-1.61,11.53-5.35,13.24-7.39l2.53,4.83c.09.17.13.35.13.54,0,.53-.35.99-.86,1.13Z"/>
  <g>
    <path class="cls-1" d="m16,10c-2.03,0-4.04.38-5.93,1.1-.03.3-.07.59-.07.9,0,3.12,1.77,5.99,4.61,7.48.44.23.91.34,1.39.34s.95-.11,1.39-.34c2.84-1.49,4.61-4.35,4.61-7.48,0-.3-.04-.6-.07-.9-1.89-.72-3.89-1.1-5.93-1.1Zm1.91,4.77c-.51.51-1.19.79-1.91.79s-1.4-.28-1.91-.79c-.39-.39-.39-1.02,0-1.41.39-.39,1.02-.39,1.41,0,.27.27.73.27,1,0,.39-.39,1.02-.39,1.41,0,.39.39.39,1.02,0,1.41Z"/>
    <path class="cls-1" d="m16,8c1.81,0,3.59.27,5.31.78-.91-2.12-2.67-3.87-4.97-4.72-.22-.08-.47-.08-.69,0-2.29.85-4.05,2.6-4.97,4.72,1.72-.51,3.5-.78,5.31-.78Z"/>
  </g>
</svg>