<?xml version="1.0" encoding="UTF-8"?>
<svg id="OBJECT" xmlns="http://www.w3.org/2000/svg" viewBox="0 0 512 512">
  <defs>
    <style>
      .cls-1 {
        fill: #FD4360;
      }

      .cls-2 {
        fill: #dadada;
      }
    </style>
  </defs>
  <g>
    <path class="cls-2" d="M339.75,392h-15c-9.65,0-17.5,7.85-17.5,17.5v15c0,9.65,7.85,17.5,17.5,17.5h15c9.65,0,17.5-7.85,17.5-17.5v-15c0-9.65-7.85-17.5-17.5-17.5Zm2.5,32.5c0,1.38-1.12,2.5-2.5,2.5h-15c-1.38,0-2.5-1.12-2.5-2.5v-15c0-1.38,1.12-2.5,2.5-2.5h15c1.38,0,2.5,1.12,2.5,2.5v15Z"/>
    <path class="cls-2" d="M263.5,392h-15c-9.65,0-17.5,7.85-17.5,17.5v15c0,9.65,7.85,17.5,17.5,17.5h15c9.65,0,17.5-7.85,17.5-17.5v-15c0-9.65-7.85-17.5-17.5-17.5Zm2.5,32.5c0,1.38-1.12,2.5-2.5,2.5h-15c-1.38,0-2.5-1.12-2.5-2.5v-15c0-1.38,1.12-2.5,2.5-2.5h15c1.38,0,2.5,1.12,2.5,2.5v15Z"/>
    <path class="cls-2" d="M187.25,392h-15c-9.65,0-17.5,7.85-17.5,17.5v15c0,9.65,7.85,17.5,17.5,17.5h15c9.65,0,17.5-7.85,17.5-17.5v-15c0-9.65-7.85-17.5-17.5-17.5Zm2.5,32.5c0,1.38-1.12,2.5-2.5,2.5h-15c-1.38,0-2.5-1.12-2.5-2.5v-15c0-1.38,1.12-2.5,2.5-2.5h15c1.38,0,2.5,1.12,2.5,2.5v15Z"/>
    <path class="cls-2" d="M111,392h-15c-9.65,0-17.5,7.85-17.5,17.5v15c0,9.65,7.85,17.5,17.5,17.5h15c9.65,0,17.5-7.85,17.5-17.5v-15c0-9.65-7.85-17.5-17.5-17.5Zm2.5,32.5c0,1.38-1.12,2.5-2.5,2.5h-15c-1.38,0-2.5-1.12-2.5-2.5v-15c0-1.38,1.12-2.5,2.5-2.5h15c1.38,0,2.5,1.12,2.5,2.5v15Z"/>
    <path class="cls-2" d="M416,392h-15c-9.65,0-17.5,7.85-17.5,17.5v15c0,9.65,7.85,17.5,17.5,17.5h15c9.65,0,17.5-7.85,17.5-17.5v-15c0-9.65-7.85-17.5-17.5-17.5Zm2.5,32.5c0,1.38-1.12,2.5-2.5,2.5h-15c-1.38,0-2.5-1.12-2.5-2.5v-15c0-1.38,1.12-2.5,2.5-2.5h15c1.38,0,2.5,1.12,2.5,2.5v15Z"/>
    <path class="cls-2" d="M339.75,322h-15c-9.65,0-17.5,7.85-17.5,17.5v15c0,9.65,7.85,17.5,17.5,17.5h15c9.65,0,17.5-7.85,17.5-17.5v-15c0-9.65-7.85-17.5-17.5-17.5Zm2.5,32.5c0,1.38-1.12,2.5-2.5,2.5h-15c-1.38,0-2.5-1.12-2.5-2.5v-15c0-1.38,1.12-2.5,2.5-2.5h15c1.38,0,2.5,1.12,2.5,2.5v15Z"/>
    <path class="cls-2" d="M263.5,322h-15c-9.65,0-17.5,7.85-17.5,17.5v15c0,9.65,7.85,17.5,17.5,17.5h15c9.65,0,17.5-7.85,17.5-17.5v-15c0-9.65-7.85-17.5-17.5-17.5Zm2.5,32.5c0,1.38-1.12,2.5-2.5,2.5h-15c-1.38,0-2.5-1.12-2.5-2.5v-15c0-1.38,1.12-2.5,2.5-2.5h15c1.38,0,2.5,1.12,2.5,2.5v15Z"/>
    <path class="cls-2" d="M187.25,322h-15c-9.65,0-17.5,7.85-17.5,17.5v15c0,9.65,7.85,17.5,17.5,17.5h15c9.65,0,17.5-7.85,17.5-17.5v-15c0-9.65-7.85-17.5-17.5-17.5Zm2.5,32.5c0,1.38-1.12,2.5-2.5,2.5h-15c-1.38,0-2.5-1.12-2.5-2.5v-15c0-1.38,1.12-2.5,2.5-2.5h15c1.38,0,2.5,1.12,2.5,2.5v15Z"/>
    <path class="cls-2" d="M111,322h-15c-9.65,0-17.5,7.85-17.5,17.5v15c0,9.65,7.85,17.5,17.5,17.5h15c9.65,0,17.5-7.85,17.5-17.5v-15c0-9.65-7.85-17.5-17.5-17.5Zm2.5,32.5c0,1.38-1.12,2.5-2.5,2.5h-15c-1.38,0-2.5-1.12-2.5-2.5v-15c0-1.38,1.12-2.5,2.5-2.5h15c1.38,0,2.5,1.12,2.5,2.5v15Z"/>
    <path class="cls-2" d="M416,322h-15c-9.65,0-17.5,7.85-17.5,17.5v15c0,9.65,7.85,17.5,17.5,17.5h15c9.65,0,17.5-7.85,17.5-17.5v-15c0-9.65-7.85-17.5-17.5-17.5Zm2.5,32.5c0,1.38-1.12,2.5-2.5,2.5h-15c-1.38,0-2.5-1.12-2.5-2.5v-15c0-1.38,1.12-2.5,2.5-2.5h15c1.38,0,2.5,1.12,2.5,2.5v15Z"/>
    <path class="cls-2" d="M489.5,457h-16v-136.29c0-6.01-2.34-11.66-6.59-15.91l-22.8-22.8h1.89c15.16,0,27.5-12.34,27.5-27.5v-30c0-15.16-12.34-27.5-27.5-27.5H66c-15.16,0-27.5,12.34-27.5,27.5v7.5H15v-17.5c0-4.14-3.36-7.5-7.5-7.5s-7.5,3.36-7.5,7.5v50c0,4.14,3.36,7.5,7.5,7.5s7.5-3.36,7.5-7.5v-17.5h23.5v7.5c0,15.16,12.34,27.5,27.5,27.5h1.89l-22.8,22.8c-4.25,4.25-6.59,9.9-6.59,15.91v136.29H22.5c-12.41,0-22.5,10.09-22.5,22.5v25c0,4.14,3.36,7.5,7.5,7.5H504.5c4.14,0,7.5-3.36,7.5-7.5v-25c0-12.41-10.09-22.5-22.5-22.5ZM53.5,254.5v-30c0-6.89,5.61-12.5,12.5-12.5H446c6.89,0,12.5,5.61,12.5,12.5v30c0,6.89-5.61,12.5-12.5,12.5H66c-6.89,0-12.5-5.61-12.5-12.5Zm0,66.21c0-2,.78-3.89,2.2-5.3l33.41-33.41H422.89l33.41,33.41c1.42,1.42,2.2,3.3,2.2,5.3v136.29H53.5v-136.29Zm443.5,176.29H15v-17.5c0-4.14,3.36-7.5,7.5-7.5H489.5c4.14,0,7.5,3.36,7.5,7.5v17.5Z"/>
  </g>
  <g>
    <path class="cls-1" d="M351,80h68.11L343.5,4.39V72.5c0,4.14,3.36,7.5,7.5,7.5Z"/>
    <path class="cls-1" d="M351,95c-12.41,0-22.5-10.09-22.5-22.5V0H111c-12.41,0-22.5,10.09-22.5,22.5V182H423.5V95h-72.5Zm-185-28h130c4.14,0,7.5,3.36,7.5,7.5s-3.36,7.5-7.5,7.5H166c-4.14,0-7.5-3.36-7.5-7.5s3.36-7.5,7.5-7.5Zm-40,0h10c4.14,0,7.5,3.36,7.5,7.5s-3.36,7.5-7.5,7.5h-10c-4.14,0-7.5-3.36-7.5-7.5s3.36-7.5,7.5-7.5Zm260,95H126c-4.14,0-7.5-3.36-7.5-7.5s3.36-7.5,7.5-7.5H386c4.14,0,7.5,3.36,7.5,7.5s-3.36,7.5-7.5,7.5Zm0-40H126c-4.14,0-7.5-3.36-7.5-7.5s3.36-7.5,7.5-7.5H386c4.14,0,7.5,3.36,7.5,7.5s-3.36,7.5-7.5,7.5Z"/>
  </g>
</svg>