<?xml version="1.0" encoding="UTF-8"?>
<svg id="OBJECT" xmlns="http://www.w3.org/2000/svg" viewBox="0 0 32 32">
  <defs>
    <style>
      .cls-1 {
        fill: #FD4360;
      }

      .cls-1, .cls-2 {
        stroke-width: 0px;
      }

      .cls-2 {
        fill: #dadada;
      }
    </style>
  </defs>
  <g>
    <path class="cls-2" d="m30,23h-.5v-8c0-1.65-1.35-3-3-3H5.5c-1.65,0-3,1.35-3,3v8h-.5c-.55,0-1,.45-1,1v4c0,1.65,1.35,3,3,3h24c1.65,0,3-1.35,3-3v-4c0-.55-.45-1-1-1ZM4.5,15c0-.55.45-1,1-1h21c.55,0,1,.45,1,1v8H4.5v-8Zm24.5,13c0,.55-.45,1-1,1H4c-.55,0-1-.45-1-1v-3h26v3Z"/>
    <path class="cls-2" d="m13.5,28h5c.55,0,1-.45,1-1s-.45-1-1-1h-5c-.55,0-1,.45-1,1s.45,1,1,1Z"/>
    <path class="cls-2" d="m19.75,17.5h1c.55,0,1-.45,1-1s-.45-1-1-1h-1c-.55,0-1,.45-1,1s.45,1,1,1Z"/>
    <path class="cls-2" d="m16.5,15.5h-1c-.55,0-1,.45-1,1s.45,1,1,1h1c.55,0,1-.45,1-1s-.45-1-1-1Z"/>
    <path class="cls-2" d="m12.25,15.5h-1c-.55,0-1,.45-1,1s.45,1,1,1h1c.55,0,1-.45,1-1s-.45-1-1-1Z"/>
    <path class="cls-2" d="m8,15.5h-1c-.55,0-1,.45-1,1s.45,1,1,1h1c.55,0,1-.45,1-1s-.45-1-1-1Z"/>
    <path class="cls-2" d="m25,15.5h-1c-.55,0-1,.45-1,1s.45,1,1,1h1c.55,0,1-.45,1-1s-.45-1-1-1Z"/>
    <path class="cls-2" d="m25,19.5h-5.25c-.55,0-1,.45-1,1s.45,1,1,1h5.25c.55,0,1-.45,1-1s-.45-1-1-1Z"/>
    <path class="cls-2" d="m16.5,19.5h-1c-.55,0-1,.45-1,1s.45,1,1,1h1c.55,0,1-.45,1-1s-.45-1-1-1Z"/>
    <path class="cls-2" d="m12.25,19.5h-1c-.55,0-1,.45-1,1s.45,1,1,1h1c.55,0,1-.45,1-1s-.45-1-1-1Z"/>
    <path class="cls-2" d="m8,19.5h-1c-.55,0-1,.45-1,1s.45,1,1,1h1c.55,0,1-.45,1-1s-.45-1-1-1Z"/>
  </g>
  <path class="cls-1" d="m5.5,8h2v2h2v-2h4v2h2v-2h2c.55,0,1-.45,1-1V2c0-.55-.45-1-1-1H5.5c-.55,0-1,.45-1,1v5c0,.55.45,1,1,1Z"/>
</svg>