<?xml version="1.0" encoding="UTF-8"?>
<svg id="OBJECT" xmlns="http://www.w3.org/2000/svg" viewBox="0 0 32 32">
  <defs>
    <style>
      .cls-1 {
        fill: #FD4360;
      }

      .cls-1, .cls-2 {
        stroke-width: 0px;
      }

      .cls-2 {
        fill: #dadada;
      }
    </style>
  </defs>
  <g>
    <path class="cls-2" d="m28,1H4c-1.65,0-3,1.35-3,3v24c0,1.65,1.35,3,3,3h24c1.65,0,3-1.35,3-3V4c0-1.65-1.35-3-3-3Zm1,3v3H11V3h17c.55,0,1,.45,1,1ZM4,3h5v4H3v-3c0-.55.45-1,1-1Zm24,26H4c-.55,0-1-.45-1-1V9h26v19c0,.55-.45,1-1,1Z"/>
    <path class="cls-2" d="m25,6h1c.55,0,1-.45,1-1s-.45-1-1-1h-1c-.55,0-1,.45-1,1s.45,1,1,1Z"/>
    <path class="cls-2" d="m20,6h1c.55,0,1-.45,1-1s-.45-1-1-1h-1c-.55,0-1,.45-1,1s.45,1,1,1Z"/>
    <path class="cls-2" d="m15,6h1c.55,0,1-.45,1-1s-.45-1-1-1h-1c-.55,0-1,.45-1,1s.45,1,1,1Z"/>
  </g>
  <path class="cls-1" d="m25.55,16.84l.89-.45c.34-.17.55-.52.55-.89v-1.5c0-1.65-1.35-3-3-3H8c-1.65,0-3,1.35-3,3v10c0,1.65,1.35,3,3,3h16c1.65,0,3-1.35,3-3v-1.5c0-.38-.21-.72-.55-.89l-.89-.45c-.34-.17-.55-.51-.55-.89v-2.53c0-.38.21-.72.55-.89Zm-9.34,6.53h-.42c-.55,0-1-.45-1-1s.45-1,1-1h.42c.55,0,1,.45,1,1s-.45,1-1,1Zm2.37-2.67c-.19.19-.45.29-.7.29s-.52-.1-.71-.3c-.62-.64-1.7-.64-2.32,0-.39.4-1.02.4-1.41.02-.4-.39-.4-1.02-.02-1.41,1.38-1.41,3.8-1.41,5.18,0,.39.39.38,1.03-.02,1.41Zm1.88-2.78c-.19.19-.45.29-.7.29s-.52-.1-.71-.3c-.81-.83-1.89-1.29-3.04-1.29s-2.22.46-3.04,1.29c-.39.4-1.02.4-1.41.02s-.4-1.02-.02-1.41c1.19-1.22,2.78-1.89,4.46-1.89s3.27.67,4.46,1.89c.39.39.38,1.03-.02,1.41Z"/>
</svg>