<?xml version="1.0" encoding="UTF-8"?>
<svg id="OBJECT" xmlns="http://www.w3.org/2000/svg" viewBox="0 0 32 32">
  <defs>
    <style>
      .cls-1 {
        fill: #FD4360;
      }

      .cls-1, .cls-2 {
        stroke-width: 0px;
      }

      .cls-2 {
        fill: #dadada;
      }
    </style>
  </defs>
  <path class="cls-2" d="m24,22H8V7h3v2c0,.55.45,1,1,1h.72l.81,3.24c.11.45.51.76.97.76h3c.46,0,.86-.31.97-.76l.81-3.24h.72c.55,0,1-.45,1-1v-2h2c.55,0,1-.45,1-1v-2c0-1.65-1.35-3-3-3H4c-1.65,0-3,1.35-3,3v26c0,.55.45,1,1,1h24c.55,0,1-.45,1-1v-5c0-1.65-1.35-3-3-3Zm-7.28-10h-1.44l-.5-2h2.44l-.5,2Zm2.28-4h-6v-1h6v1ZM3,4c0-.55.45-1,1-1h17c.55,0,1,.45,1,1v1H5c-.55,0-1,.45-1,1s.45,1,1,1h1v19c0,.55.45,1,1,1s1-.45,1-1v-2h11v5H3V4Zm22,25h-4v-5h3c.55,0,1,.45,1,1v4Z"/>
  <g>
    <path class="cls-1" d="m23.53,10.57c-.55,0-1,.45-1,1,0,.55.45,1,1,1h0c.48.02.99.19,1.34.55.36.36.55.83.55,1.34,0,.55.44,1,.99,1h0c.55,0,1-.44,1-1,0-1.05-.4-2.03-1.14-2.77s-1.71-1.18-2.77-1.14Z"/>
    <path class="cls-1" d="m29.02,8.98c-1.29-1.29-3.03-2.02-4.82-1.98-.55,0-1,.45-1,1,0,.55.45,1,1,1,0,0,.02,0,.03,0,1.28,0,2.48.49,3.37,1.39.9.9,1.4,2.11,1.39,3.4,0,.55.44,1,1,1h0c.55,0,1-.44,1-1,0-1.83-.69-3.54-1.98-4.82Z"/>
    <path class="cls-1" d="m23.71,13.97c-.39-.39-1.02-.39-1.41,0s-.39,1.02,0,1.41l.32.32c.2.2.45.29.71.29s.51-.1.71-.29c.39-.39.39-1.02,0-1.41l-.32-.32Z"/>
    <path class="cls-1" d="m19.5,16h-7c-.3,0-.58.13-.77.37s-.27.54-.21.83l.76,3.8h7.44l.76-3.8c.06-.29-.02-.6-.21-.83s-.47-.37-.77-.37Z"/>
  </g>
</svg>