<?xml version="1.0" encoding="UTF-8"?>
<svg id="OBJECT" xmlns="http://www.w3.org/2000/svg" viewBox="0 0 32 32">
  <defs>
    <style>
      .cls-1 {
        fill: #FD4360;
      }

      .cls-1, .cls-2 {
        stroke-width: 0px;
      }

      .cls-2 {
        fill: #dadada;
      }
    </style>
  </defs>
  <g>
    <path class="cls-2" d="m16,1H4c-1.65,0-3,1.35-3,3v22.39c0,.59.17,1.17.5,1.66l1.07,1.61c.56.84,1.49,1.34,2.5,1.34h9.86c1,0,1.94-.5,2.5-1.34l1.07-1.61c.33-.5.5-1.07.5-1.66V4c0-1.65-1.35-3-3-3Zm1,25.39c0,.2-.06.39-.17.55l-1.07,1.61c-.19.28-.5.45-.83.45H5.07c-.33,0-.65-.17-.83-.45l-1.07-1.6c-.11-.17-.17-.36-.17-.56V4c0-.55.45-1,1-1h12c.55,0,1,.45,1,1v22.39Z"/>
    <path class="cls-2" d="m14.5,4H5.5c-.55,0-1,.45-1,1v5c0,.55.45,1,1,1h9c.55,0,1-.45,1-1v-5c0-.55-.45-1-1-1Zm-1,5h-7v-3h7v3Z"/>
    <path class="cls-2" d="m6,13c-.55,0-1,.45-1,1v1c0,.55.45,1,1,1s1-.45,1-1v-1c0-.55-.45-1-1-1Z"/>
    <path class="cls-2" d="m10,13c-.55,0-1,.45-1,1v1c0,.55.45,1,1,1s1-.45,1-1v-1c0-.55-.45-1-1-1Z"/>
    <path class="cls-2" d="m14,13c-.55,0-1,.45-1,1v1c0,.55.45,1,1,1s1-.45,1-1v-1c0-.55-.45-1-1-1Z"/>
    <path class="cls-2" d="m6,17.5c-.55,0-1,.45-1,1v1c0,.55.45,1,1,1s1-.45,1-1v-1c0-.55-.45-1-1-1Z"/>
    <path class="cls-2" d="m10,17.5c-.55,0-1,.45-1,1v1c0,.55.45,1,1,1s1-.45,1-1v-1c0-.55-.45-1-1-1Z"/>
    <path class="cls-2" d="m14,17.5c-.55,0-1,.45-1,1v1c0,.55.45,1,1,1s1-.45,1-1v-1c0-.55-.45-1-1-1Z"/>
    <path class="cls-2" d="m6,22c-.55,0-1,.45-1,1v1c0,.55.45,1,1,1s1-.45,1-1v-1c0-.55-.45-1-1-1Z"/>
    <path class="cls-2" d="m10,22c-.55,0-1,.45-1,1v1c0,.55.45,1,1,1s1-.45,1-1v-1c0-.55-.45-1-1-1Z"/>
    <path class="cls-2" d="m14,22c-.55,0-1,.45-1,1v1c0,.55.45,1,1,1s1-.45,1-1v-1c0-.55-.45-1-1-1Z"/>
  </g>
  <path class="cls-1" d="m30,6h-9v4h10v-3c0-.55-.45-1-1-1Z"/>
  <path class="cls-1" d="m21,20h9c.55,0,1-.45,1-1v-7h-10v8Zm6.5-5h1c.55,0,1,.45,1,1s-.45,1-1,1h-1c-.55,0-1-.45-1-1s.45-1,1-1Zm-4,0h1c.55,0,1,.45,1,1s-.45,1-1,1h-1c-.55,0-1-.45-1-1s.45-1,1-1Z"/>
</svg>