<?xml version="1.0" encoding="UTF-8"?>
<svg id="OBJECT" xmlns="http://www.w3.org/2000/svg" viewBox="0 0 32 32">
  <defs>
    <style>
      .cls-1 {
        fill: #FD4360;
      }

      .cls-1, .cls-2 {
        stroke-width: 0px;
      }

      .cls-2 {
        fill: #dadada;
      }
    </style>
  </defs>
  <path class="cls-1" d="m28.5,4H3.5c-1.38,0-2.5,1.12-2.5,2.5v3.5h30v-3.5c0-1.38-1.12-2.5-2.5-2.5ZM5.5,8h-1c-.55,0-1-.45-1-1s.45-1,1-1h1c.55,0,1,.45,1,1s-.45,1-1,1Zm4,0h-1c-.55,0-1-.45-1-1s.45-1,1-1h1c.55,0,1,.45,1,1s-.45,1-1,1Zm4,0h-1c-.55,0-1-.45-1-1s.45-1,1-1h1c.55,0,1,.45,1,1s-.45,1-1,1Z"/>
  <g>
    <path class="cls-2" d="m30,11.5c-.55,0-1,.45-1,1v13c0,.28-.22.5-.5.5H3.5c-.28,0-.5-.22-.5-.5v-13c0-.55-.45-1-1-1s-1,.45-1,1v13c0,1.38,1.12,2.5,2.5,2.5h25c1.38,0,2.5-1.12,2.5-2.5v-13c0-.55-.45-1-1-1Z"/>
    <path class="cls-2" d="m6.45,23.33c.46.27.96.4,1.46.4s.99-.13,1.45-.39l3.17-1.81c.92-.53,1.47-1.47,1.47-2.53s-.55-2.01-1.47-2.53l-3.17-1.81c-.91-.52-2-.52-2.91,0-.91.53-1.45,1.47-1.45,2.52v3.62c0,1.05.54,2,1.45,2.52Zm.55-6.14c0-.48.32-.71.46-.79.08-.05.25-.13.46-.13.13,0,.29.03.45.12l3.17,1.81c.42.24.46.64.46.8s-.04.56-.46.8l-3.17,1.81c-.42.24-.78.08-.92,0-.14-.08-.46-.32-.46-.79v-3.62Z"/>
    <path class="cls-2" d="m17,16h5c.55,0,1-.45,1-1s-.45-1-1-1h-5c-.55,0-1,.45-1,1s.45,1,1,1Z"/>
    <path class="cls-2" d="m25,16h1c.55,0,1-.45,1-1s-.45-1-1-1h-1c-.55,0-1,.45-1,1s.45,1,1,1Z"/>
    <path class="cls-2" d="m17,24h7c.55,0,1-.45,1-1s-.45-1-1-1h-7c-.55,0-1,.45-1,1s.45,1,1,1Z"/>
    <path class="cls-2" d="m17,20h9c.55,0,1-.45,1-1s-.45-1-1-1h-9c-.55,0-1,.45-1,1s.45,1,1,1Z"/>
  </g>
</svg>