<?xml version="1.0" encoding="UTF-8"?>
<svg id="OBJECT" xmlns="http://www.w3.org/2000/svg" viewBox="0 0 32 32">
  <defs>
    <style>
      .cls-1 {
        fill: #FD4360;
      }

      .cls-2 {
        fill: #dadada;
      }
    </style>
  </defs>
  <path class="cls-2" d="M28,31H4c-1.65,0-3-1.35-3-3V4c0-1.65,1.35-3,3-3H28c1.65,0,3,1.35,3,3V28c0,1.65-1.35,3-3,3ZM4,3c-.55,0-1,.45-1,1V28c0,.55,.45,1,1,1H28c.55,0,1-.45,1-1V4c0-.55-.45-1-1-1H4Z"/>
  <path class="cls-1" d="M26.5,8.81v15.19c0,1.38-1.12,2.5-2.5,2.5h-2c-1.38,0-2.5-1.12-2.5-2.5v-3c0-1.38,1.12-2.5,2.5-2.5h2.5v-6.85l-12,1.72v10.63c0,1.38-1.12,2.5-2.5,2.5h-2c-1.38,0-2.5-1.12-2.5-2.5v-3c0-1.38,1.12-2.5,2.5-2.5h2.5V10.23c0-1.48,1.11-2.76,2.58-2.96l10-1.43c.85-.13,1.73,.13,2.39,.7,.65,.57,1.03,1.4,1.03,2.27Z"/>
</svg>