<?xml version="1.0" encoding="UTF-8"?>
<svg id="OBJECT" xmlns="http://www.w3.org/2000/svg" viewBox="0 0 32 32">
  <defs>
    <style>
      .cls-1 {
        fill: #FD4360;
      }

      .cls-1, .cls-2 {
        stroke-width: 0px;
      }

      .cls-2 {
        fill: #dadada;
      }
    </style>
  </defs>
  <g>
    <path class="cls-2" d="m25,1h-3c-1.65,0-3,1.35-3,3v6c0,.55.45,1,1,1h7c.55,0,1-.45,1-1v-6c0-1.65-1.35-3-3-3Zm-3,2h3c.55,0,1,.45,1,1v1h-5v-1c0-.55.45-1,1-1Zm-1,6v-2h5v2h-5Z"/>
    <path class="cls-2" d="m9,22h2c.55,0,1-.45,1-1s-.45-1-1-1h-2c-.55,0-1,.45-1,1s.45,1,1,1Z"/>
    <path class="cls-2" d="m14,11.59v-3.59c0-.55-.45-1-1-1h-6c-.55,0-1,.45-1,1v3.59l-1.12,1.12c-.57.57-.88,1.32-.88,2.12v13.17c0,1.65,1.35,3,3,3h6c1.65,0,3-1.35,3-3v-13.17c0-.8-.31-1.56-.88-2.12l-1.12-1.12Zm-2-2.59v2h-4v-2h4Zm-5.71,5.12l1.12-1.12h5.17l1.12,1.12c.19.19.29.44.29.71v9.17H6v-9.17c0-.27.1-.52.29-.71Zm6.71,14.88h-6c-.55,0-1-.45-1-1v-2h8v2c0,.55-.45,1-1,1Z"/>
  </g>
  <path class="cls-1" d="m26.32,21.46l-1.82-1.04v-7.42h-2v7.42l-1.82,1.04c-1.08.61-1.66,1.8-1.48,3.03l.56,3.94c.21,1.47,1.49,2.58,2.97,2.58h1.53c1.48,0,2.76-1.11,2.97-2.58l.56-3.94c.18-1.23-.41-2.42-1.48-3.03Z"/>
</svg>