<?xml version="1.0" encoding="UTF-8"?>
<svg id="OBJECT" xmlns="http://www.w3.org/2000/svg" viewBox="0 0 32 32">
  <defs>
    <style>
      .cls-1 {
        fill: #FD4360;
      }

      .cls-1, .cls-2 {
        stroke-width: 0px;
      }

      .cls-2 {
        fill: #dadada;
      }
    </style>
  </defs>
  <path class="cls-2" d="m30.91,11.74l-1.72-6.76c-.27-1.06-1.1-1.89-2.17-2.17l-6.76-1.72c-1.02-.26-2.12.04-2.86.79l-5.11,5.11c-.75.75-1.05,1.84-.79,2.86l1.05,4.13-1.25,1.25-2.76-1.63c-1.23-.72-2.8-.61-3.9.28l-3.27,2.6c-.43.34-.5.97-.16,1.41.2.25.49.38.78.38.22,0,.44-.07.62-.22l3.28-2.61c.46-.37,1.12-.42,1.63-.12l2.31,1.36-1.06,1.06-.57-.27c-1.66-.81-3.71-.12-4.57,1.53l-2.33,4.54c-.25.49-.06,1.09.43,1.35.15.08.3.11.46.11.36,0,.71-.2.89-.54l2.33-4.54c.35-.68,1.17-.97,1.86-.67l-.55.55c-.5.5-.77,1.16-.77,1.86s.27,1.37.77,1.86l1.73,1.74c.51.51,1.19.77,1.86.77s1.35-.26,1.86-.77l.55-.55c.3.68.01,1.51-.67,1.86l-4.54,2.33c-.49.25-.69.85-.43,1.35.18.34.53.54.89.54.15,0,.31-.04.46-.11l4.54-2.33c1.65-.85,2.34-2.9,1.53-4.56l-.28-.58,1.06-1.06,1.36,2.31c.3.52.26,1.18-.12,1.64l-2.6,3.27c-.34.43-.27,1.06.16,1.4.18.15.4.22.62.22.29,0,.59-.13.78-.38l2.59-3.26c.89-1.1,1.01-2.67.28-3.91l-1.63-2.75,1.25-1.25,4.14,1.05c.24.06.49.09.73.09.79,0,1.56-.31,2.13-.88l5.11-5.11c.75-.75,1.05-1.84.79-2.86Zm-20.13,12.12c-.25.25-.65.25-.9,0l-1.73-1.74c-.12-.12-.19-.28-.19-.45s.07-.33.19-.45l1.45-1.45,2.63,2.64-1.45,1.45Zm2.86-2.86l-2.63-2.64,2.13-2.13.1.37c.27,1.06,1.1,1.89,2.17,2.17l.37.1-2.13,2.13Zm15.07-7.81l-5.11,5.11c-.25.25-.61.35-.95.26l-6.76-1.72c-.36-.09-.63-.37-.72-.72l-1.72-6.76c-.09-.34.01-.71.26-.95l5.11-5.11c.19-.19.45-.29.71-.29.08,0,.16,0,.25.03l6.76,1.72c.36.09.63.37.72.72l1.72,6.76c.09.34-.01.71-.26.95Z"/>
  <path class="cls-1" d="m25.51,8.29c-.24-.41-.49-.74-.77-1.02-1.95-1.95-5.12-1.95-7.07,0-1.95,1.95-1.95,5.12,0,7.07.98.97,2.26,1.46,3.54,1.46s2.56-.49,3.54-1.46c.05-.05.1-.11.13-.15.29-.32.34-.8.12-1.18-.67-1.15-.51-2.57.39-3.54.3-.32.35-.8.13-1.18Z"/>
</svg>