<?xml version="1.0" encoding="UTF-8"?>
<svg id="OBJECT" xmlns="http://www.w3.org/2000/svg" viewBox="0 0 512 512">
  <defs>
    <style>
      .cls-1 {
        fill: #FD4360;
      }

      .cls-2 {
        fill: #dadada;
      }
    </style>
  </defs>
  <g>
    <path class="cls-2" d="M237.48,282.07c1.46,1.46,3.38,2.2,5.3,2.2s3.84-.73,5.3-2.2c2.93-2.93,2.93-7.68,0-10.61l-7.55-7.55c-2.93-2.93-7.68-2.93-10.61,0-2.93,2.93-2.93,7.68,0,10.61l7.55,7.55Z"/>
    <path class="cls-2" d="M263.9,308.49c1.46,1.46,3.38,2.2,5.3,2.2s3.84-.73,5.3-2.2c2.93-2.93,2.93-7.68,0-10.61l-7.55-7.55c-2.93-2.93-7.68-2.93-10.61,0-2.93,2.93-2.93,7.68,0,10.61l7.55,7.55Z"/>
    <path class="cls-2" d="M203.51,248.1l7.55,7.55c1.46,1.46,3.38,2.2,5.3,2.2s3.84-.73,5.3-2.2c2.93-2.93,2.93-7.68,0-10.61l-7.55-7.55c-2.93-2.93-7.68-2.93-10.61,0-2.93,2.93-2.93,7.68,0,10.61Z"/>
    <path class="cls-2" d="M512,146.29C512,65.62,446.38,0,365.71,0c-67.15,0-123.88,45.49-140.99,107.27-12.77-3.53-26.78-.08-36.5,9.64l-33.06,33.06c-14.62,14.62-14.62,38.41,0,53.03l15.23,15.23-30.82,30.82c-1.93,1.93-3.52,4.08-4.79,6.36-5.87-1.51-18.77-5.01-47.13-13.05-12.24-3.47-25.13,1.36-32.06,12.04L1.21,338.08c-2.26,3.47-1.27,8.12,2.2,10.38,1.26,.82,2.68,1.21,4.08,1.21,2.45,0,4.86-1.2,6.3-3.41l54.38-83.69c3.33-5.12,9.51-7.45,15.39-5.78,9.4,2.67,22.91,6.48,33.85,9.48,5.84,1.61,10.45,2.84,13.69,3.68,.02,0,.03,0,.05,.01,.12,7.15,2.88,14.27,8.28,19.74l-33.13,5.21c-9.08,1.43-17.01,7.17-21.2,15.35l-32.27,63c-1.89,3.69-.43,8.21,3.26,10.09,1.09,.56,2.26,.83,3.41,.83,2.73,0,5.35-1.49,6.68-4.08l32.27-63c2.01-3.93,5.82-6.68,10.18-7.37l43.92-6.91,56.64,56.64-6.91,43.92c-.69,4.36-3.44,8.16-7.37,10.18l-63,32.27c-3.69,1.89-5.14,6.41-3.26,10.09,1.33,2.59,3.96,4.08,6.68,4.08,1.15,0,2.32-.27,3.41-.83l63-32.27c8.18-4.19,13.92-12.11,15.35-21.2l5.21-33.13,.31,.31c5.41,5.41,12.45,8.21,19.55,8.42,.83,3.22,2.03,7.67,3.57,13.28,3.01,10.95,6.82,24.45,9.48,33.85,1.67,5.88-.66,12.06-5.78,15.39l-83.69,54.38c-3.47,2.26-4.46,6.9-2.2,10.38,1.44,2.21,3.84,3.41,6.3,3.41,1.4,0,2.82-.39,4.08-1.21l83.69-54.38c10.67-6.94,15.51-19.82,12.04-32.06-7.77-27.39-11.29-40.36-12.89-46.5,2.39-1.29,4.64-2.94,6.65-4.96l30.82-30.82,14.77,14.77c7.31,7.31,16.91,10.97,26.52,10.97s19.21-3.66,26.52-10.97l33.06-33.06c9.72-9.72,13.16-23.73,9.64-36.5,61.78-17.12,107.27-73.84,107.27-140.99Zm-184.43,141.23l-54.36,54.36-102.63-102.63,54.1-54.1c13.72,49.72,53.07,88.9,102.89,102.36Zm-161.81-95.12c-8.77-8.77-8.77-23.05,0-31.82l33.06-33.06c6.02-6.02,14.78-8.02,22.64-5.55-1.33,7.92-2.03,16.04-2.03,24.33,0,7.25,.54,14.37,1.56,21.34l-40,40-15.23-15.23Zm-15.58,86.85c-5.4-5.4-5.4-14.19,0-19.59l9.79-9.79,102.63,102.63-9.79,9.79c-5.4,5.4-14.19,5.4-19.59,0l-83.04-83.04Zm234.31,33.93l-33.06,33.06c-8.77,8.77-23.05,8.77-31.82,0l-14.77-14.77,40.34-40.34c6.71,.95,13.57,1.45,20.54,1.45,8.29,0,16.42-.7,24.33-2.03,2.46,7.85,.47,16.62-5.55,22.64Zm-18.78-35.6c-72.39,0-131.29-58.89-131.29-131.29S293.32,15,365.71,15s131.29,58.89,131.29,131.29-58.89,131.29-131.29,131.29Z"/>
  </g>
  <g>
    <path class="cls-1" d="M399.42,112.7c-8.97-8.97-20.9-13.91-33.59-13.91s-24.62,4.94-33.59,13.91-13.91,20.9-13.91,33.59,4.94,24.62,13.91,33.59c18.52,18.52,48.65,18.52,67.18,0,1.52-1.52,2.93-3.15,4.24-4.87-9.24-17.91-9.24-39.52,0-57.43-1.31-1.73-2.73-3.36-4.24-4.87Z"/>
    <path class="cls-1" d="M365.71,33.79c-62.03,0-112.5,50.47-112.5,112.5s50.47,112.5,112.5,112.5,112.5-50.47,112.5-112.5-50.47-112.5-112.5-112.5Zm53.15,137.62c1.52,2.43,1.52,5.52,0,7.95-2.53,4.05-5.5,7.79-8.84,11.13-12.19,12.18-28.19,18.28-44.2,18.28s-32.01-6.09-44.19-18.28c-11.8-11.8-18.31-27.5-18.31-44.19s6.5-32.39,18.31-44.19c11.8-11.8,27.5-18.31,44.19-18.31s32.39,6.5,44.19,18.31c3.33,3.33,6.31,7.08,8.84,11.13,1.52,2.43,1.52,5.52,0,7.95-9.53,15.26-9.53,34.98,0,50.24Z"/>
  </g>
</svg>