<?xml version="1.0" encoding="UTF-8"?>
<svg id="OBJECT" xmlns="http://www.w3.org/2000/svg" viewBox="0 0 32 32">
  <defs>
    <style>
      .cls-1 {
        fill: #FD4360;
      }

      .cls-2 {
        fill: #dadada;
      }
    </style>
  </defs>
  <g>
    <path class="cls-2" d="M28,1H13c-1.65,0-3,1.35-3,3v7c0,1.65,1.35,3,3,3h3l2.1,2.8c.56,.75,1.46,1.2,2.4,1.2s1.84-.45,2.4-1.2l2.1-2.8h3c1.65,0,3-1.35,3-3V4c0-1.65-1.35-3-3-3Zm1,10c0,.55-.45,1-1,1h-3.5c-.31,0-.61,.15-.8,.4l-2.4,3.2c-.37,.5-1.22,.5-1.6,0l-1.2-1.6h2c.55,0,1-.45,1-1s-.45-1-1-1h-7.5c-.55,0-1-.45-1-1V4c0-.55,.45-1,1-1h15c.55,0,1,.45,1,1v7Z"/>
    <path class="cls-2" d="M26.5,8.25H14.5c-.55,0-1,.45-1,1s.45,1,1,1h12c.55,0,1-.45,1-1s-.45-1-1-1Z"/>
    <path class="cls-2" d="M26.5,4.75h-8c-.55,0-1,.45-1,1s.45,1,1,1h8c.55,0,1-.45,1-1s-.45-1-1-1Z"/>
    <path class="cls-2" d="M14.5,6.75h.5c.55,0,1-.45,1-1s-.45-1-1-1h-.5c-.55,0-1,.45-1,1s.45,1,1,1Z"/>
  </g>
  <g>
    <path class="cls-1" d="M8.5,22c1.93,0,3.5-1.57,3.5-3.5v-1.5c0-1.65-1.35-3-3-3h-1c-1.65,0-3,1.35-3,3v1.5c0,1.93,1.57,3.5,3.5,3.5Z"/>
    <path class="cls-1" d="M13.45,20.88c-.89,1.84-2.77,3.12-4.95,3.12s-4.06-1.28-4.95-3.12c-1.56,1.38-2.55,3.38-2.55,5.62v1.5c0,1.65,1.35,3,3,3H13c1.65,0,3-1.35,3-3v-1.5c0-2.24-.99-4.24-2.55-5.62Zm-6.7,7.12h-.5c-.55,0-1-.45-1-1s.45-1,1-1h.5c.55,0,1,.45,1,1s-.45,1-1,1Zm4,0h-.5c-.55,0-1-.45-1-1s.45-1,1-1h.5c.55,0,1,.45,1,1s-.45,1-1,1Z"/>
  </g>
</svg>