<?xml version="1.0" encoding="UTF-8"?>
<svg id="OBJECT" xmlns="http://www.w3.org/2000/svg" viewBox="0 0 32 32">
  <defs>
    <style>
      .cls-1 {
        fill: #FD4360;
      }

      .cls-1, .cls-2 {
        stroke-width: 0px;
      }

      .cls-2 {
        fill: #dadada;
      }
    </style>
  </defs>
  <g>
    <path class="cls-2" d="m30.95,16.93l-.21-.66c-.28-.88-.94-1.57-1.8-1.89-.86-.32-1.81-.24-2.6.24-3.64,2.19-12.91,7.22-20.28,6.68-1.29-.1-2.59.36-3.55,1.25-.96.89-1.51,2.16-1.51,3.47v.11c0,1.34.53,2.59,1.49,3.52.91.88,2.1,1.36,3.37,1.36.06,0,.11,0,.17,0,18.07-.61,23.38-8.69,24.93-13.45.07-.2.07-.42,0-.62ZM5.95,29c-.78.02-1.52-.26-2.08-.8-.56-.55-.87-1.28-.87-2.08v-.11c0-.77.31-1.48.87-2.01.51-.47,1.15-.73,1.84-.73.07,0,.14,0,.21,0,1.01.07,2.04.05,3.09-.04l.89,5.46c-1.41.16-2.75.25-3.94.29Zm5.92-.55l-.89-5.46c6.27-1.07,12.67-4.43,16.38-6.66.26-.16.58-.19.86-.08.29.11.51.34.6.63l.11.35c-2.57,7.33-10.34,10.17-17.07,11.21Z"/>
    <path class="cls-2" d="m21.95,20.87c-1.3.75-3.41,1.76-6.02,2.34-.54.12-.88.65-.76,1.19.1.47.52.78.98.78.07,0,.14,0,.22-.02,2.26-.5,4.54-1.38,6.58-2.55.48-.27.65-.89.37-1.36-.28-.48-.88-.65-1.37-.37Z"/>
    <path class="cls-2" d="m24.16,19.39l-.19.15c-.44.34-.51.97-.17,1.4.2.25.49.39.79.39.21,0,.43-.07.61-.21.17-.13.25-.2.25-.2.42-.36.47-.99.11-1.41-.36-.42-.99-.47-1.41-.12Z"/>
  </g>
  <path class="cls-1" d="m14.11,13.97c1.21,1.15,2.98,1.48,4.53.84l3.51-1.46.92.83c.7-.38,1.31-.73,1.83-1.04l-8.82-7.93-8.63,2.39,6.65,6.37Z"/>
  <path class="cls-1" d="m5.77,5.99l8.55-2.36-2.03-1.82c-.78-.71-1.86-.97-2.88-.71l-5.17,1.31c-.35.09-.63.36-.72.71s.01.73.28.98l1.98,1.89Z"/>
</svg>