<?xml version="1.0" encoding="UTF-8"?>
<svg id="OBJECT" xmlns="http://www.w3.org/2000/svg" viewBox="0 0 32 32">
  <defs>
    <style>
      .cls-1 {
        fill: #FD4360;
      }

      .cls-2 {
        fill: #dadada;
      }
    </style>
  </defs>
  <g>
    <path class="cls-2" d="M16,1C7.73,1,1,7.73,1,16s6.73,15,15,15,15-6.73,15-15S24.27,1,16,1Zm0,28c-7.17,0-13-5.83-13-13S8.83,3,16,3s13,5.83,13,13-5.83,13-13,13Z"/>
    <path class="cls-2" d="M16,4.5c-6.34,0-11.5,5.16-11.5,11.5s5.16,11.5,11.5,11.5,11.5-5.16,11.5-11.5-5.16-11.5-11.5-11.5Zm0,21c-5.24,0-9.5-4.26-9.5-9.5S10.76,6.5,16,6.5s9.5,4.26,9.5,9.5-4.26,9.5-9.5,9.5Z"/>
  </g>
  <path class="cls-1" d="M21.21,10.79c-.27-.27-.67-.36-1.02-.24l-11,3.67c-.37,.12-.64,.45-.68,.84s.14,.77,.48,.97l3.49,2.09,2.32-2.32c.39-.39,1.02-.39,1.41,0s.39,1.02,0,1.41l-2.32,2.32,2.09,3.49c.18,.3,.51,.49,.86,.49,.04,0,.07,0,.11,0,.39-.04,.72-.31,.84-.68l3.67-11c.12-.36,.03-.76-.24-1.02Z"/>
</svg>