<?xml version="1.0" encoding="UTF-8"?>
<svg id="OBJECT" xmlns="http://www.w3.org/2000/svg" viewBox="0 0 32 32">
  <defs>
    <style>
      .cls-1 {
        fill: #FD4360;
      }

      .cls-1, .cls-2 {
        stroke-width: 0px;
      }

      .cls-2 {
        fill: #dadada;
      }
    </style>
  </defs>
  <g>
    <path class="cls-1" d="m20.48,12.5h4.47c-.39-3.47-2.75-6.34-5.93-7.47.88,2.14,1.39,4.72,1.46,7.47Z"/>
    <path class="cls-1" d="m16,4.5c-.19,0-.38.02-.57.03-1.13,2.09-1.82,4.93-1.91,7.97h4.96c-.09-3.04-.78-5.89-1.91-7.97-.19-.01-.38-.03-.57-.03Z"/>
    <path class="cls-1" d="m13.54,14.5c.18,3.13,1.01,6,2.28,7.99.06,0,.12,0,.18,0s.12,0,.18,0c1.27-1.99,2.1-4.86,2.28-7.99h-4.92Z"/>
    <path class="cls-1" d="m20.45,14.5c-.15,2.84-.77,5.47-1.78,7.6,3.36-1.04,5.87-4,6.27-7.6h-4.49Z"/>
    <path class="cls-1" d="m11.55,14.5h-4.49c.4,3.59,2.92,6.55,6.27,7.6-1.01-2.13-1.64-4.75-1.78-7.6Z"/>
    <path class="cls-1" d="m11.52,12.5c.08-2.75.58-5.33,1.46-7.47-3.18,1.14-5.54,4-5.93,7.47h4.47Z"/>
  </g>
  <path class="cls-2" d="m27.96,1H4.04c-1.68,0-3.04,1.37-3.04,3.04v18.91c0,1.68,1.37,3.04,3.04,3.04h7.85v3h-4.89c-.55,0-1,.45-1,1s.45,1,1,1h18c.55,0,1-.45,1-1s-.45-1-1-1h-4.5v-3h7.46c1.68,0,3.04-1.37,3.04-3.04V4.04c0-1.68-1.37-3.04-3.04-3.04Zm-9.46,28h-4.61v-3h4.61v3Zm10.5-6.04c0,.58-.47,1.04-1.04,1.04H4.04c-.58,0-1.04-.47-1.04-1.04V4.04c0-.58.47-1.04,1.04-1.04h23.91c.58,0,1.04.47,1.04,1.04v18.91Z"/>
</svg>