<?xml version="1.0" encoding="UTF-8"?>
<svg id="OBJECT" xmlns="http://www.w3.org/2000/svg" viewBox="0 0 512 512">
  <defs>
    <style>
      .cls-1 {
        fill: #FD4360;
      }

      .cls-2 {
        fill: #dadada;
      }
    </style>
  </defs>
  <g>
    <path class="cls-2" d="M283.85,377h-55.7c-3.12,0-5.92,1.94-7.02,4.86-5.06,13.47-7.63,27.82-7.63,42.64,0,34.29,14.11,66.36,37.74,85.79,1.38,1.14,3.07,1.71,4.76,1.71s3.38-.57,4.76-1.71c23.63-19.43,37.74-51.5,37.74-85.79,0-14.82-2.57-29.17-7.63-42.64-1.1-2.92-3.9-4.86-7.02-4.86Zm-27.85,117.44c-17.32-16.87-27.5-42.51-27.5-69.94,0-11.24,1.67-22.15,4.98-32.5h45.04c3.31,10.35,4.98,21.26,4.98,32.5,0,27.43-10.18,53.07-27.5,69.94Z"/>
    <path class="cls-2" d="M256,260c11.09,0,21.63-4.81,28.9-13.19,7.27-8.38,10.54-19.49,8.97-30.47l-6.73-47.1v-23.1c0-17.17-13.97-31.14-31.14-31.14s-31.14,13.97-31.14,31.14v23.1l-6.73,47.1c-1.57,10.98,1.7,22.09,8.97,30.47,7.27,8.38,17.8,13.19,28.9,13.19Zm17.56-23.02c-4.42,5.09-10.82,8.02-17.56,8.02s-13.15-2.92-17.56-8.02c-4.42-5.09-6.41-11.85-5.45-18.52l5.88-41.19h34.26l5.88,41.19c.95,6.68-1.03,13.43-5.45,18.52Zm-17.56-106.98c8.9,0,16.14,7.24,16.14,16.14v16.14h-32.27v-16.14c0-8.9,7.24-16.14,16.14-16.14Z"/>
    <path class="cls-2" d="M241,310h-10c-4.14,0-7.5,3.36-7.5,7.5s3.36,7.5,7.5,7.5h10c4.14,0,7.5-3.36,7.5-7.5s-3.36-7.5-7.5-7.5Z"/>
    <path class="cls-2" d="M281,310h-10c-4.14,0-7.5,3.36-7.5,7.5s3.36,7.5,7.5,7.5h10c4.14,0,7.5-3.36,7.5-7.5s-3.36-7.5-7.5-7.5Z"/>
    <path class="cls-2" d="M420.19,207.62l-24.01-28.02c-5.23-6.1-12.84-9.6-20.88-9.6h-37.56c-3.87-20.41-9.68-40.97-17.41-61.51-23.82-63.32-57.14-104.06-58.54-105.77-1.42-1.73-3.55-2.72-5.78-2.72s-4.36,1-5.78,2.72c-1.41,1.7-34.73,42.45-58.54,105.77-7.73,20.54-13.53,41.1-17.41,61.51h-37.56c-8.04,0-15.65,3.5-20.88,9.6l-24.01,28.02c-2.7,3.15-2.33,7.88,.81,10.58,1.41,1.21,3.15,1.81,4.88,1.81,2.11,0,4.21-.89,5.7-2.62l24.01-28.02c2.38-2.77,5.84-4.36,9.49-4.36h35.05c-1.66,11.56-2.69,23.06-3.08,34.46-1.55,45.59,7.16,89.71,25.89,131.13,1.21,2.68,3.89,4.41,6.83,4.41h109.19c2.95,0,5.62-1.73,6.83-4.41,18.73-41.43,27.44-85.55,25.89-131.13-.39-11.4-1.42-22.9-3.08-34.46h35.05c3.65,0,7.11,1.59,9.49,4.37l24.01,28.02c1.48,1.73,3.58,2.62,5.7,2.62,1.73,0,3.46-.59,4.88-1.81,3.15-2.7,3.51-7.43,.81-10.58ZM256,19.89c6.77,9.3,18.59,26.72,30.73,50.11h-61.46c12.13-23.39,23.96-40.82,30.73-50.11Zm-50.46,94.34c3.89-10.37,8.07-20.14,12.33-29.23h76.27c4.26,9.09,8.44,18.86,12.33,29.23,21.53,57.46,27.4,112.97,17.62,165.77H187.92c-9.78-52.8-3.92-108.31,17.62-165.77Zm100.17,225.77h-99.43c-6.38-14.75-11.41-29.76-15.13-45h129.7c-3.72,15.24-8.75,30.25-15.13,45Z"/>
  </g>
  <g>
    <path class="cls-1" d="M427,352.5c0,2.77,1.52,5.31,3.96,6.61,2.44,1.3,5.4,1.16,7.7-.37,6.58-4.39,15.09-4.39,21.68,0,1.25,.84,2.71,1.26,4.16,1.26,1.21,0,2.43-.29,3.54-.89,2.44-1.31,3.96-3.85,3.96-6.61v-32.5h-45v32.5Z"/>
    <path class="cls-1" d="M357,352.5c0,2.77,1.52,5.31,3.96,6.61,2.44,1.3,5.4,1.16,7.7-.37,6.58-4.39,15.09-4.39,21.68,0,1.25,.84,2.71,1.26,4.16,1.26,1.21,0,2.43-.29,3.54-.89,2.44-1.31,3.96-3.85,3.96-6.61v-32.5h-45v32.5Z"/>
    <path class="cls-1" d="M379.5,370c-4.14,0-7.5,3.36-7.5,7.5v15c0,4.14,3.36,7.5,7.5,7.5s7.5-3.36,7.5-7.5v-15c0-4.14-3.36-7.5-7.5-7.5Z"/>
    <path class="cls-1" d="M449.5,370c-4.14,0-7.5,3.36-7.5,7.5v15c0,4.14,3.36,7.5,7.5,7.5s7.5-3.36,7.5-7.5v-15c0-4.14-3.36-7.5-7.5-7.5Z"/>
    <path class="cls-1" d="M498.65,245.24l-12.32-7.39c-3.11-1.86-6.67-2.85-10.29-2.85h-20.16l-12.2,22.45c-1.31,2.42-3.84,3.92-6.59,3.92h-39.31l-12.77,13.77c-1.48,1.59-3.49,2.4-5.5,2.4-1.82,0-3.64-.66-5.09-1.99-3.04-2.81-3.02-7.8-.2-10.83l14.79-15.95c1.42-1.53,3.41-2.4,5.5-2.4h38.13l6.18-11.37h-80.36c-.39,23.81-3.48,47.2-9.24,70h155.29c4.14,0,7.5-3.36,7.5-7.5v-28.68c0-9.6-5.12-18.64-13.35-23.58Z"/>
    <path class="cls-1" d="M40,352.5c0,2.77,1.52,5.31,3.96,6.61,1.11,.59,2.33,.89,3.54,.89,1.46,0,2.91-.42,4.16-1.26,6.58-4.39,15.09-4.39,21.68,0,2.3,1.53,5.26,1.68,7.7,.37,2.44-1.31,3.96-3.85,3.96-6.61v-32.5H40v32.5Z"/>
    <path class="cls-1" d="M110,352.5c0,2.77,1.52,5.31,3.96,6.61,1.11,.59,2.33,.89,3.54,.89,1.46,0,2.91-.42,4.16-1.26,6.58-4.39,15.09-4.39,21.68,0,2.3,1.53,5.26,1.68,7.7,.37,2.44-1.31,3.96-3.85,3.96-6.61v-32.5h-45v32.5Z"/>
    <path class="cls-1" d="M132.5,370c-4.14,0-7.5,3.36-7.5,7.5v15c0,4.14,3.36,7.5,7.5,7.5s7.5-3.36,7.5-7.5v-15c0-4.14-3.36-7.5-7.5-7.5Z"/>
    <path class="cls-1" d="M62.5,370c-4.14,0-7.5,3.36-7.5,7.5v15c0,4.14,3.36,7.5,7.5,7.5s7.5-3.36,7.5-7.5v-15c0-4.14-3.36-7.5-7.5-7.5Z"/>
    <path class="cls-1" d="M73.2,235l6.18,11.37h38.13c2.09,0,4.08,.87,5.5,2.4l14.79,15.95c2.81,3.03,2.84,8.03-.2,10.83-1.44,1.33-3.27,1.99-5.09,1.99-2.01,0-4.02-.81-5.5-2.4l-12.77-13.77h-39.31c-2.75,0-5.28-1.5-6.59-3.92l-12.2-22.45h-20.16c-3.62,0-7.18,.99-10.29,2.85l-12.32,7.39c-8.24,4.94-13.35,13.98-13.35,23.58v28.68c0,4.14,3.36,7.5,7.5,7.5H162.79c-5.76-22.8-8.85-46.19-9.24-70H73.2Z"/>
  </g>
</svg>