<?xml version="1.0" encoding="UTF-8"?>
<svg id="OBJECT" xmlns="http://www.w3.org/2000/svg" viewBox="0 0 32 32">
  <defs>
    <style>
      .cls-1 {
        fill: #FD4360;
      }

      .cls-1, .cls-2 {
        stroke-width: 0px;
      }

      .cls-2 {
        fill: #dadada;
      }
    </style>
  </defs>
  <path class="cls-1" d="m16,21c4.41,0,8-3.59,8-8s-3.59-8-8-8-8,3.59-8,8,3.59,8,8,8Zm.65-7h-1.3c-1.27,0-2.3-1.03-2.3-2.3,0-1.15.85-2.09,1.94-2.26v-.33c0-.55.45-1,1-1s1,.45,1,1v.3h.94c.55,0,1,.45,1,1s-.45,1-1,1h-2.59c-.16,0-.3.13-.3.3s.13.3.3.3h1.3c1.27,0,2.3,1.03,2.3,2.3,0,1.15-.85,2.09-1.94,2.26v.33c0,.55-.45,1-1,1s-1-.45-1-1v-.3h-.94c-.55,0-1-.45-1-1s.45-1,1-1h2.59c.16,0,.3-.13.3-.3s-.13-.3-.3-.3Z"/>
  <g>
    <path class="cls-2" d="m25.95,6.72c.27,0,.54-.11.74-.32l1.97-2.14c.37-.41.35-1.04-.06-1.41-.41-.37-1.04-.35-1.41.06l-1.97,2.14c-.37.41-.35,1.04.06,1.41.19.18.43.26.68.26Z"/>
    <path class="cls-2" d="m21.96,4.41s.03,0,.04,0c.55-.02.98-.49.96-1.04l-.06-1.41c-.02-.55-.46-.96-1.04-.96-.55.02-.98.49-.96,1.04l.06,1.41c.02.54.47.96,1,.96Z"/>
    <path class="cls-2" d="m27.59,9.54c.02.54.47.96,1,.96.01,0,.03,0,.04,0l1.41-.06c.55-.02.98-.49.96-1.04s-.49-.97-1.04-.96l-1.41.06c-.55.02-.98.49-.96,1.04Z"/>
    <path class="cls-2" d="m5.31,6.4c.2.21.47.32.74.32.24,0,.48-.09.68-.26.41-.37.43-1.01.06-1.41l-1.97-2.14c-.37-.41-1.01-.43-1.41-.06-.41.37-.43,1.01-.06,1.41l1.97,2.14Z"/>
    <path class="cls-2" d="m10,4.41s.03,0,.04,0c.53,0,.98-.42,1-.96l.06-1.41c.02-.55-.4-1.02-.96-1.04-.56-.02-1.02.4-1.04.96l-.06,1.41c-.02.55.4,1.02.96,1.04Z"/>
    <path class="cls-2" d="m1.96,10.44l1.41.06s.03,0,.04,0c.53,0,.98-.42,1-.96.02-.55-.4-1.02-.96-1.04l-1.41-.06c-.55-.01-1.02.4-1.04.96s.4,1.02.96,1.04Z"/>
    <path class="cls-2" d="m30,24.92h-.75v-10.25c0-1.52-1.23-2.75-2.75-2.75-.55,0-1,.45-1,1s.45,1,1,1c.41,0,.75.34.75.75v10.25H4.75v-10.25c0-.41.34-.75.75-.75.55,0,1-.45,1-1s-.45-1-1-1c-1.52,0-2.75,1.23-2.75,2.75v10.25h-.75c-.55,0-1,.45-1,1v2.33c0,1.52,1.23,2.75,2.75,2.75h24.5c1.52,0,2.75-1.23,2.75-2.75v-2.33c0-.55-.45-1-1-1Zm-1,3.33c0,.41-.34.75-.75.75H3.75c-.41,0-.75-.34-.75-.75v-1.33h26v1.33Z"/>
    <path class="cls-2" d="m6.5,21.92c0,.55.45,1,1,1h2c.55,0,1-.45,1-1s-.45-1-1-1h-2c-.55,0-1,.45-1,1Z"/>
    <path class="cls-2" d="m21.5,21.92c0,.55.45,1,1,1h2c.55,0,1-.45,1-1s-.45-1-1-1h-2c-.55,0-1,.45-1,1Z"/>
  </g>
</svg>