<?xml version="1.0" encoding="UTF-8"?>
<svg id="OBJECT" xmlns="http://www.w3.org/2000/svg" viewBox="0 0 32 32">
  <defs>
    <style>
      .cls-1 {
        fill: #FD4360;
      }

      .cls-1, .cls-2 {
        stroke-width: 0px;
      }

      .cls-2 {
        fill: #dadada;
      }
    </style>
  </defs>
  <path class="cls-1" d="m2.75,1c-.97,0-1.75.78-1.75,1.75v28.25h3.5V2.75c0-.97-.78-1.75-1.75-1.75Z"/>
  <path class="cls-2" d="m28.5,1h-.5c-1.38,0-2.5,1.12-2.5,2.5v2.5H7c-.55,0-1,.45-1,1s.45,1,1,1h1.5v2h-1.5c-.55,0-1,.45-1,1s.45,1,1,1h1.5v2.5h-1.5c-.55,0-1,.45-1,1s.45,1,1,1h1.5v2.5h-1.5c-.55,0-1,.45-1,1s.45,1,1,1h18.5v9c0,.55.45,1,1,1h3.5c.55,0,1-.45,1-1V3.5c0-1.38-1.12-2.5-2.5-2.5Zm-12.5,13.5v-2.5h3.5v2.5h-3.5Zm3.5,2v2.5h-3.5v-2.5h3.5Zm-3.5-6.5v-2h3.5v2h-3.5Zm5.5,2h4v2.5h-4v-2.5Zm4-2h-4v-2h4v2Zm-15-2h3.5v2h-3.5v-2Zm0,4h3.5v2.5h-3.5v-2.5Zm0,4.5h3.5v2.5h-3.5v-2.5Zm11,2.5v-2.5h4v2.5h-4Zm7.5,10h-1.5V3.5c0-.28.22-.5.5-.5h.5c.28,0,.5.22.5.5v25.5Z"/>
</svg>