<?xml version="1.0" encoding="UTF-8"?>
<svg id="OBJECT" xmlns="http://www.w3.org/2000/svg" viewBox="0 0 32 32">
  <defs>
    <style>
      .cls-1 {
        fill: #FD4360;
      }

      .cls-1, .cls-2 {
        stroke-width: 0px;
      }

      .cls-2 {
        fill: #dadada;
      }
    </style>
  </defs>
  <path class="cls-2" d="m28,23.14v-1.64c0-1.65-1.35-3-3-3h-8v-1.38c0-.55-.45-1-1-1s-1,.45-1,1v1.38H7c-1.65,0-3,1.35-3,3v1.64c-1.72.45-3,2-3,3.86,0,2.21,1.79,4,4,4s4-1.79,4-4c0-1.86-1.28-3.41-3-3.86v-1.64c0-.55.45-1,1-1h8v2.68c-1.65.49-2.87,2.01-2.87,3.82,0,2.21,1.79,4,4,4s4-1.79,4-4c0-1.91-1.34-3.5-3.13-3.9v-2.6h8c.55,0,1,.45,1,1v1.64c-1.72.45-3,2-3,3.86,0,2.21,1.79,4,4,4s4-1.79,4-4c0-1.86-1.28-3.41-3-3.86Zm-21,3.86c0,1.1-.9,2-2,2s-2-.9-2-2,.9-2,2-2,2,.9,2,2Zm11.13,0c0,1.1-.9,2-2,2s-2-.9-2-2,.9-2,2-2,2,.9,2,2Zm8.87,2c-1.1,0-2-.9-2-2s.9-2,2-2,2,.9,2,2-.9,2-2,2Z"/>
  <path class="cls-1" d="m11.5,14.69h9c.83,0,1.5-.67,1.5-1.5,0-2.37-1.52-4.41-3.75-5.13-.7.28-1.45.45-2.25.45s-1.56-.16-2.25-.45c-2.22.73-3.75,2.76-3.75,5.13,0,.83.67,1.5,1.5,1.5Z"/>
  <circle class="cls-1" cx="16" cy="4" r="3"/>
</svg>