<?xml version="1.0" encoding="UTF-8"?>
<svg id="OBJECT" xmlns="http://www.w3.org/2000/svg" viewBox="0 0 32 32">
  <defs>
    <style>
      .cls-1 {
        fill: #FD4360;
      }

      .cls-1, .cls-2 {
        stroke-width: 0px;
      }

      .cls-2 {
        fill: #dadada;
      }
    </style>
  </defs>
  <path class="cls-2" d="m21.64,20.83l-1.24-1.24c-.97-.97-2.56-.97-3.54,0l-3.74,3.74c-1.23,1.23-3.23,1.23-4.46,0-1.23-1.23-1.23-3.23,0-4.46l3.74-3.74c.97-.97.97-2.56,0-3.54l-1.24-1.24c-.94-.94-2.59-.95-3.54,0l-3.74,3.74C.03,17.96.03,24.24,3.9,28.1c1.93,1.93,4.47,2.9,7,2.9s5.07-.96,7-2.9l3.74-3.74c.47-.47.73-1.1.73-1.77s-.26-1.3-.73-1.77Zm-12.59-9.05c.1-.1.23-.15.35-.15s.26.05.35.15l1.24,1.24c.19.2.19.51,0,.71l-1.59,1.59-1.94-1.94,1.59-1.59Zm-3.74,14.92c-3.08-3.08-3.08-8.09,0-11.18l.74-.74,1.94,1.94-.74.74c-2.01,2.01-2.01,5.28,0,7.29,2.01,2.01,5.28,2.01,7.29,0l.74-.74,1.94,1.94-.74.74c-3.08,3.08-8.1,3.08-11.18,0Zm14.92-3.74l-1.59,1.59-1.94-1.94,1.59-1.59c.2-.2.51-.2.71,0l1.24,1.24c.2.2.2.51,0,.71Z"/>
  <g>
    <path class="cls-1" d="m22.5,12.38c-.92,0-1.76-.38-2.37-.98-.83.69-1.32,1.7-1.32,2.8v2.96c1.12.54,2.37.85,3.69.85s2.57-.31,3.69-.85v-2.96c0-1.1-.49-2.11-1.32-2.8-.61.61-1.44.98-2.37.98Z"/>
    <path class="cls-1" d="m22.5,1c-4.69,0-8.5,3.81-8.5,8.5,0,2.5,1.09,4.74,2.81,6.3v-1.61c0-1.85.9-3.56,2.4-4.61-.03-.18-.05-.36-.05-.54v-1.41c0-1.58,1.29-2.88,2.88-2.88h.94c1.58,0,2.88,1.29,2.88,2.88v1.41c0,.19-.03.36-.05.54,1.5,1.06,2.4,2.76,2.4,4.61v1.61c1.72-1.56,2.81-3.8,2.81-6.3,0-4.69-3.81-8.5-8.5-8.5Z"/>
    <path class="cls-1" d="m23.84,9.03v-1.41c0-.48-.39-.88-.88-.88h-.94c-.48,0-.88.39-.88.88v1.41c0,.74.6,1.34,1.34,1.34s1.34-.6,1.34-1.34Z"/>
  </g>
</svg>