<?xml version="1.0" encoding="UTF-8"?>
<svg id="OBJECT" xmlns="http://www.w3.org/2000/svg" viewBox="0 0 512 512">
  <defs>
    <style>
      .cls-1 {
        fill: #FD4360;
      }

      .cls-2 {
        fill: #dadada;
      }
    </style>
  </defs>
  <g>
    <path class="cls-2" d="M504.5,0H107.5c-4.14,0-7.5,3.36-7.5,7.5V197H7.5c-4.14,0-7.5,3.36-7.5,7.5v240c0,37.22,30.28,67.5,67.5,67.5H464.5c26.19,0,47.5-21.31,47.5-47.5V7.5c0-4.14-3.36-7.5-7.5-7.5ZM55,212h45v245h-32.5c-6.89,0-12.5-5.61-12.5-12.5V212ZM15,444.5V212h25v232.5c0,15.16,12.34,27.5,27.5,27.5h32.5v25h-32.5c-28.95,0-52.5-23.55-52.5-52.5Zm482,20c0,17.92-14.58,32.5-32.5,32.5H115V15H497V464.5Z"/>
    <path class="cls-2" d="M142.5,50h127c4.14,0,7.5-3.36,7.5-7.5s-3.36-7.5-7.5-7.5h-127c-4.14,0-7.5,3.36-7.5,7.5s3.36,7.5,7.5,7.5Z"/>
    <path class="cls-2" d="M142.5,80h77c4.14,0,7.5-3.36,7.5-7.5s-3.36-7.5-7.5-7.5h-77c-4.14,0-7.5,3.36-7.5,7.5s3.36,7.5,7.5,7.5Z"/>
    <path class="cls-2" d="M259.5,65h-10c-4.14,0-7.5,3.36-7.5,7.5s3.36,7.5,7.5,7.5h10c4.14,0,7.5-3.36,7.5-7.5s-3.36-7.5-7.5-7.5Z"/>
    <path class="cls-2" d="M352.5,50h117c4.14,0,7.5-3.36,7.5-7.5s-3.36-7.5-7.5-7.5h-117c-4.14,0-7.5,3.36-7.5,7.5s3.36,7.5,7.5,7.5Z"/>
    <path class="cls-2" d="M469.5,65h-67c-4.14,0-7.5,3.36-7.5,7.5s3.36,7.5,7.5,7.5h67c4.14,0,7.5-3.36,7.5-7.5s-3.36-7.5-7.5-7.5Z"/>
    <path class="cls-2" d="M369.5,65c-4.14,0-7.5,3.36-7.5,7.5s3.36,7.5,7.5,7.5h10c4.14,0,7.5-3.36,7.5-7.5s-3.36-7.5-7.5-7.5h-10Z"/>
    <path class="cls-2" d="M307.21,462h137.29c12.41,0,22.5-10.09,22.5-22.5v-70c0-12.41-10.09-22.5-22.5-22.5h-137.29c-12.41,0-22.5,10.09-22.5,22.5v70c0,12.41,10.09,22.5,22.5,22.5Zm-7.5-92.5c0-4.14,3.36-7.5,7.5-7.5h137.29c4.14,0,7.5,3.36,7.5,7.5v70c0,4.14-3.36,7.5-7.5,7.5h-137.29c-4.14,0-7.5-3.36-7.5-7.5v-70Z"/>
    <path class="cls-2" d="M325.86,429.5h100c4.14,0,7.5-3.36,7.5-7.5s-3.36-7.5-7.5-7.5h-100c-4.14,0-7.5,3.36-7.5,7.5s3.36,7.5,7.5,7.5Z"/>
    <path class="cls-2" d="M365.86,394.5h60c4.14,0,7.5-3.36,7.5-7.5s-3.36-7.5-7.5-7.5h-60c-4.14,0-7.5,3.36-7.5,7.5s3.36,7.5,7.5,7.5Z"/>
    <path class="cls-2" d="M325.86,394.5h10c4.14,0,7.5-3.36,7.5-7.5s-3.36-7.5-7.5-7.5h-10c-4.14,0-7.5,3.36-7.5,7.5s3.36,7.5,7.5,7.5Z"/>
    <path class="cls-2" d="M237.5,347h-70c-12.41,0-22.5,10.09-22.5,22.5v70c0,12.41,10.09,22.5,22.5,22.5h70c12.41,0,22.5-10.09,22.5-22.5v-70c0-12.41-10.09-22.5-22.5-22.5Zm7.5,92.5c0,4.14-3.36,7.5-7.5,7.5h-70c-4.14,0-7.5-3.36-7.5-7.5v-70c0-4.14,3.36-7.5,7.5-7.5h70c4.14,0,7.5,3.36,7.5,7.5v70Z"/>
    <path class="cls-2" d="M227.8,379.2c-2.93-2.93-7.68-2.93-10.61,0l-14.7,14.7-14.7-14.7c-2.93-2.93-7.68-2.93-10.61,0-2.93,2.93-2.93,7.68,0,10.61l14.7,14.7-14.7,14.7c-2.93,2.93-2.93,7.68,0,10.61,1.46,1.46,3.38,2.2,5.3,2.2s3.84-.73,5.3-2.2l14.7-14.7,14.7,14.7c1.46,1.46,3.38,2.2,5.3,2.2s3.84-.73,5.3-2.2c2.93-2.93,2.93-7.68,0-10.61l-14.7-14.7,14.7-14.7c2.93-2.93,2.93-7.68,0-10.61Z"/>
  </g>
  <g>
    <path class="cls-1" d="M328.01,211.65c.42-4.79-1.05-9.45-4.14-13.13l-47.2-56.25c-6.38-7.6-17.75-8.59-25.34-2.22l-42.86,35.96c-3.68,3.09-5.94,7.43-6.36,12.21-.42,4.79,1.05,9.45,4.14,13.13l53.94,64.29c1.48,1.77,3.61,2.68,5.75,2.68,1.7,0,3.41-.58,4.82-1.75l50.89-42.7c3.68-3.09,5.94-7.43,6.36-12.21Zm-70.98-11.12c-1.41,1.18-3.12,1.75-4.82,1.75-2.14,0-4.27-.91-5.75-2.68-2.66-3.17-2.25-7.9,.92-10.57l10-8.39c3.17-2.66,7.9-2.25,10.57,.92,2.66,3.17,2.25,7.9-.92,10.57l-10,8.39Zm25.69,10.31l-10,8.39c-1.41,1.18-3.12,1.75-4.82,1.75-2.14,0-4.27-.91-5.75-2.68-2.66-3.17-2.25-7.9,.92-10.57l10-8.39c3.17-2.66,7.9-2.25,10.57,.92,2.66,3.17,2.25,7.9-.92,10.57Z"/>
    <path class="cls-1" d="M309.6,253.56l-29.2,24.5c-2.57,2.16-5.59,3.69-8.8,4.53l29.1,43.03c1.19,1.76,3.07,2.93,5.17,3.23,.35,.05,.69,.07,1.04,.07,1.75,0,3.46-.61,4.82-1.75l12.01-10.08c8.19-6.87,10.41-18.66,5.27-28.04l-19.42-35.49Z"/>
    <path class="cls-1" d="M189.55,219.27c-3.17,2.66-3.59,7.39-.92,10.57l33.71,40.18c1.28,1.52,3.11,2.48,5.09,2.65,.22,.02,.44,.03,.65,.03,1.76,0,3.46-.62,4.82-1.75l7.13-5.98-43.36-51.67-7.13,5.98Z"/>
    <path class="cls-1" d="M423.37,178.93L313.24,47.68c-2.66-3.17-7.39-3.59-10.57-.92-3.17,2.66-3.59,7.39-.92,10.57l5.89,7.03-28.79,60.62c3.5,1.94,6.67,4.51,9.31,7.66l47.2,56.25c3.6,4.29,6,9.31,7.07,14.66l63.76-21.74,5.69,6.78c1.48,1.77,3.61,2.68,5.75,2.68,1.7,0,3.41-.58,4.82-1.75,3.17-2.66,3.59-7.39,.92-10.57Z"/>
  </g>
</svg>