<?xml version="1.0" encoding="UTF-8"?>
<svg id="OBJECT" xmlns="http://www.w3.org/2000/svg" viewBox="0 0 512 512">
  <defs>
    <style>
      .cls-1 {
        fill: #FD4360;
      }

      .cls-2 {
        fill: #dadada;
      }
    </style>
  </defs>
  <g>
    <path class="cls-2" d="M357.76,330.26h-80c-4.14,0-7.5,3.36-7.5,7.5s3.36,7.5,7.5,7.5h80c4.14,0,7.5-3.36,7.5-7.5s-3.36-7.5-7.5-7.5Z"/>
    <path class="cls-2" d="M357.76,295.26h-80c-4.14,0-7.5,3.36-7.5,7.5s3.36,7.5,7.5,7.5h80c4.14,0,7.5-3.36,7.5-7.5s-3.36-7.5-7.5-7.5Z"/>
    <path class="cls-2" d="M342.76,210.26h-50c-12.41,0-22.5,10.09-22.5,22.5v20c0,12.41,10.09,22.5,22.5,22.5h50c12.41,0,22.5-10.09,22.5-22.5v-20c0-12.41-10.09-22.5-22.5-22.5Zm7.5,42.5c0,4.14-3.36,7.5-7.5,7.5h-50c-4.14,0-7.5-3.36-7.5-7.5v-20c0-4.14,3.36-7.5,7.5-7.5h50c4.14,0,7.5,3.36,7.5,7.5v20Z"/>
    <path class="cls-2" d="M357.5,377H77.5c-4.14,0-7.5,3.36-7.5,7.5s3.36,7.5,7.5,7.5H357.5c4.14,0,7.5-3.36,7.5-7.5s-3.36-7.5-7.5-7.5Z"/>
    <path class="cls-2" d="M37.5,392h10c4.14,0,7.5-3.36,7.5-7.5s-3.36-7.5-7.5-7.5h-10c-4.14,0-7.5,3.36-7.5,7.5s3.36,7.5,7.5,7.5Z"/>
    <path class="cls-2" d="M357.5,407H37.5c-4.14,0-7.5,3.36-7.5,7.5s3.36,7.5,7.5,7.5H357.5c4.14,0,7.5-3.36,7.5-7.5s-3.36-7.5-7.5-7.5Z"/>
    <path class="cls-2" d="M37.5,452h10c4.14,0,7.5-3.36,7.5-7.5s-3.36-7.5-7.5-7.5h-10c-4.14,0-7.5,3.36-7.5,7.5s3.36,7.5,7.5,7.5Z"/>
    <path class="cls-2" d="M357.5,437H77.5c-4.14,0-7.5,3.36-7.5,7.5s3.36,7.5,7.5,7.5H357.5c4.14,0,7.5-3.36,7.5-7.5s-3.36-7.5-7.5-7.5Z"/>
    <path class="cls-2" d="M357.5,467H37.5c-4.14,0-7.5,3.36-7.5,7.5s3.36,7.5,7.5,7.5H357.5c4.14,0,7.5-3.36,7.5-7.5s-3.36-7.5-7.5-7.5Z"/>
    <path class="cls-2" d="M504.5,147h-109.5V27.5c0-15.16-12.34-27.5-27.5-27.5H27.5C12.34,0,0,12.34,0,27.5V484.5c0,15.16,12.34,27.5,27.5,27.5H464.5c26.19,0,47.5-21.31,47.5-47.5V154.5c0-4.14-3.36-7.5-7.5-7.5Zm-7.5,15v85h-102v-85h102ZM27.5,497c-6.89,0-12.5-5.61-12.5-12.5V27.5c0-6.89,5.61-12.5,12.5-12.5H367.5c6.89,0,12.5,5.61,12.5,12.5V464.5c0,12.56,4.9,24,12.89,32.5H27.5Zm437,0h-11v-162.5c0-4.14-3.36-7.5-7.5-7.5s-7.5,3.36-7.5,7.5v162.5h-11c-17.92,0-32.5-14.58-32.5-32.5v-202.5h102v202.5c0,17.92-14.58,32.5-32.5,32.5Z"/>
    <path class="cls-2" d="M476,212h-60c-4.14,0-7.5,3.36-7.5,7.5s3.36,7.5,7.5,7.5h60c4.14,0,7.5-3.36,7.5-7.5s-3.36-7.5-7.5-7.5Z"/>
    <path class="cls-2" d="M416,197h60c4.14,0,7.5-3.36,7.5-7.5s-3.36-7.5-7.5-7.5h-60c-4.14,0-7.5,3.36-7.5,7.5s3.36,7.5,7.5,7.5Z"/>
    <path class="cls-2" d="M446,287c-4.14,0-7.5,3.36-7.5,7.5v10c0,4.14,3.36,7.5,7.5,7.5s7.5-3.36,7.5-7.5v-10c0-4.14-3.36-7.5-7.5-7.5Z"/>
  </g>
  <g>
    <rect class="cls-1" x="182.5" y="75" width="30" height="65" rx="7.5" ry="7.5"/>
    <path class="cls-1" d="M287.5,115h-22.5v25h22.5c6.89,0,12.5-5.61,12.5-12.5s-5.61-12.5-12.5-12.5Z"/>
    <path class="cls-1" d="M327.5,30H67.5c-12.41,0-22.5,10.09-22.5,22.5v110c0,12.41,10.09,22.5,22.5,22.5H327.5c12.41,0,22.5-10.09,22.5-22.5V52.5c0-12.41-10.09-22.5-22.5-22.5ZM145,127.5c0,15.16-12.34,27.5-27.5,27.5h-10c-15.16,0-27.5-12.34-27.5-27.5v-10c0-4.14,3.36-7.5,7.5-7.5s7.5,3.36,7.5,7.5v10c0,6.89,5.61,12.5,12.5,12.5h10c6.89,0,12.5-5.61,12.5-12.5v-52.5h-12.5c-4.14,0-7.5-3.36-7.5-7.5s3.36-7.5,7.5-7.5h20c4.14,0,7.5,3.36,7.5,7.5v60Zm82.5,5c0,12.41-10.09,22.5-22.5,22.5h-15c-12.41,0-22.5-10.09-22.5-22.5v-50c0-12.41,10.09-22.5,22.5-22.5h15c12.41,0,22.5,10.09,22.5,22.5v50Zm87.5-5c0,15.16-12.34,27.5-27.5,27.5h-30c-4.14,0-7.5-3.36-7.5-7.5V67.5c0-4.14,3.36-7.5,7.5-7.5h30c15.16,0,27.5,12.34,27.5,27.5,0,7.87-3.32,14.98-8.64,20,5.32,5.02,8.64,12.13,8.64,20Z"/>
    <path class="cls-1" d="M287.5,75h-22.5v25h22.5c6.89,0,12.5-5.61,12.5-12.5s-5.61-12.5-12.5-12.5Z"/>
    <path class="cls-1" d="M227.5,210H47.5c-9.65,0-17.5,7.85-17.5,17.5v110c0,9.65,7.85,17.5,17.5,17.5H227.5c9.65,0,17.5-7.85,17.5-17.5v-110c0-9.65-7.85-17.5-17.5-17.5Zm-145.61,25h14.39c4.14,0,7.5,3.36,7.5,7.5s-3.36,7.5-7.5,7.5h-14.39c-4.14,0-7.5-3.36-7.5-7.5s3.36-7.5,7.5-7.5Zm129.65,93.81c-1.25,.8-2.65,1.19-4.04,1.19-2.47,0-4.89-1.22-6.32-3.46l-35.85-55.96-32.14,48.29c-2.3,3.45-6.95,4.38-10.4,2.09-3.45-2.3-4.38-6.95-2.09-10.4l4.05-6.08-19-18.44-32.36,41.09c-1.48,1.88-3.68,2.86-5.9,2.86-1.62,0-3.26-.53-4.64-1.61-3.25-2.56-3.81-7.28-1.25-10.53l37.51-47.62c1.31-1.67,3.27-2.7,5.39-2.84,2.11-.15,4.2,.62,5.72,2.1l22.97,22.3,26.01-39.07c1.39-2.09,3.74-3.34,6.24-3.34,.02,0,.04,0,.07,0,2.53,.02,4.88,1.32,6.25,3.45l42.05,65.62c2.23,3.49,1.22,8.13-2.27,10.36Z"/>
  </g>
</svg>