<?xml version="1.0" encoding="UTF-8"?>
<svg id="OBJECT" xmlns="http://www.w3.org/2000/svg" viewBox="0 0 32 32">
  <defs>
    <style>
      .cls-1 {
        fill: #FD4360;
      }

      .cls-1, .cls-2 {
        stroke-width: 0px;
      }

      .cls-2 {
        fill: #dadada;
      }
    </style>
  </defs>
  <g>
    <path class="cls-2" d="m30,15h-4V2c0-.55-.45-1-1-1H2c-.55,0-1,.45-1,1v25.5c0,1.93,1.57,3.5,3.5,3.5h23c1.93,0,3.5-1.57,3.5-3.5v-11.5c0-.55-.45-1-1-1Zm-1,2v2h-3v-2h3ZM4.5,29c-.83,0-1.5-.67-1.5-1.5V3h21v24.5c0,.54.12,1.04.34,1.5H4.5Zm23,0c-.83,0-1.5-.67-1.5-1.5v-6.5h3v6.5c0,.83-.67,1.5-1.5,1.5Z"/>
    <path class="cls-2" d="m21.5,17h-12c-.55,0-1,.45-1,1s.45,1,1,1h12c.55,0,1-.45,1-1s-.45-1-1-1Z"/>
    <path class="cls-2" d="m5.5,19h1c.55,0,1-.45,1-1s-.45-1-1-1h-1c-.55,0-1,.45-1,1s.45,1,1,1Z"/>
    <path class="cls-2" d="m21.5,21H5.5c-.55,0-1,.45-1,1s.45,1,1,1h16c.55,0,1-.45,1-1s-.45-1-1-1Z"/>
    <path class="cls-2" d="m21.5,25H5.5c-.55,0-1,.45-1,1s.45,1,1,1h16c.55,0,1-.45,1-1s-.45-1-1-1Z"/>
  </g>
  <path class="cls-1" d="m21.5,5H5.5c-.55,0-1,.45-1,1v8c0,.55.45,1,1,1h16c.55,0,1-.45,1-1V6c0-.55-.45-1-1-1Zm-12,5.75c0,.55-.45,1-1,1s-1-.45-1-1v-1.5c0-.55.45-1,1-1s1,.45,1,1v1.5Zm4,0c0,.55-.45,1-1,1s-1-.45-1-1v-1.5c0-.55.45-1,1-1s1,.45,1,1v1.5Z"/>
</svg>