<?xml version="1.0" encoding="UTF-8"?>
<svg id="OBJECT" xmlns="http://www.w3.org/2000/svg" viewBox="0 0 32 32">
  <defs>
    <style>
      .cls-1 {
        fill: #FD4360;
      }

      .cls-1, .cls-2 {
        stroke-width: 0px;
      }

      .cls-2 {
        fill: #dadada;
      }
    </style>
  </defs>
  <g>
    <path class="cls-2" d="m11,4c-.55,0-1,.45-1,1s.45,1,1,1h2c.55,0,1-.45,1-1s-.45-1-1-1h-2Z"/>
    <path class="cls-2" d="m19,7c.55,0,1-.45,1-1v-2c0-1.65-1.35-3-3-3H7c-1.65,0-3,1.35-3,3v24c0,1.65,1.35,3,3,3h10c1.65,0,3-1.35,3-3v-4c0-.55-.45-1-1-1s-1,.45-1,1v1H6V4c0-.55.45-1,1-1h10c.55,0,1,.45,1,1v2c0,.55.45,1,1,1Zm-1,20v1c0,.55-.45,1-1,1H7c-.55,0-1-.45-1-1v-1h12Z"/>
  </g>
  <path class="cls-1" d="m26,9h-15c-1.1,0-2,.9-2,2v8c0,1.1.9,2,2,2h15c1.1,0,2-.9,2-2v-8c0-1.1-.9-2-2-2Zm-12.5,3h.5c.55,0,1,.45,1,1s-.45,1-1,1h-.5c-.55,0-1-.45-1-1s.45-1,1-1Zm10,6h-10c-.55,0-1-.45-1-1s.45-1,1-1h10c.55,0,1,.45,1,1s-.45,1-1,1Zm0-4h-6c-.55,0-1-.45-1-1s.45-1,1-1h6c.55,0,1,.45,1,1s-.45,1-1,1Z"/>
</svg>