<?xml version="1.0" encoding="UTF-8"?>
<svg id="OBJECT" xmlns="http://www.w3.org/2000/svg" viewBox="0 0 32 32">
  <defs>
    <style>
      .cls-1 {
        fill: #FD4360;
      }

      .cls-1, .cls-2 {
        stroke-width: 0px;
      }

      .cls-2 {
        fill: #dadada;
      }
    </style>
  </defs>
  <g>
    <path class="cls-1" d="m12,14h-7.44c.46,3.89,3.55,6.98,7.44,7.44v-7.44Z"/>
    <path class="cls-1" d="m12,12v-7.44c-3.89.46-6.98,3.55-7.44,7.44h7.44Z"/>
    <path class="cls-1" d="m14,14v7.44c3.89-.46,6.98-3.55,7.44-7.44h-7.44Z"/>
  </g>
  <g>
    <path class="cls-2" d="m26.23,8.99c.12.44.52.74.96.74.09,0,.18-.01.27-.04l2.81-.77c.53-.15.85-.7.7-1.23-.15-.53-.7-.85-1.23-.7l-2.81.77c-.53.15-.85.7-.7,1.23Z"/>
    <path class="cls-2" d="m24.54,5.52c.16.09.33.13.49.13.35,0,.69-.18.87-.51l.7-1.23c.27-.48.11-1.09-.37-1.36s-1.09-.1-1.36.38l-.7,1.23c-.27.48-.11,1.09.37,1.36Z"/>
    <path class="cls-2" d="m27.91,12.46c-.48-.27-1.09-.11-1.36.37-.27.48-.11,1.09.37,1.36l1.23.7c.16.09.33.13.49.13.35,0,.69-.18.87-.5.27-.48.11-1.09-.37-1.36l-1.23-.7Z"/>
    <path class="cls-2" d="m8.75,26.23c-.53-.14-1.08.17-1.23.7l-.77,2.81c-.15.53.17,1.08.7,1.23.09.02.18.04.27.04.44,0,.84-.29.96-.74l.77-2.81c.15-.53-.17-1.08-.7-1.23Z"/>
    <path class="cls-2" d="m3.91,24.17l-1.23.7c-.48.27-.65.88-.37,1.36.18.32.52.51.87.51.17,0,.34-.04.49-.13l1.23-.7c.48-.27.65-.88.37-1.36-.27-.48-.88-.65-1.36-.38Z"/>
    <path class="cls-2" d="m13.95,26.92c-.27-.48-.88-.65-1.36-.37-.48.27-.65.88-.37,1.36l.7,1.23c.18.32.52.5.87.5.17,0,.34-.04.49-.13.48-.27.65-.88.37-1.36l-.7-1.23Z"/>
    <path class="cls-2" d="m29.97,25.03l-6.39-6.39c.9-1.68,1.41-3.6,1.41-5.64,0-6.62-5.38-12-12-12S1,6.38,1,13s5.38,12,12,12c2.04,0,3.96-.51,5.64-1.41l6.39,6.39c.66.66,1.54,1.03,2.48,1.03s1.81-.36,2.47-1.03c1.36-1.36,1.36-3.58,0-4.95ZM3,13C3,7.49,7.49,3,13,3s10,4.49,10,10-4.49,10-10,10S3,18.51,3,13Zm19.47,7.35l4.33,4.33-2.12,2.12-4.33-4.33c.79-.62,1.5-1.33,2.12-2.12Zm6.09,8.21c-.57.57-1.55.57-2.12,0l-.35-.35,2.12-2.12.35.35c.58.58.58,1.54,0,2.12Z"/>
  </g>
</svg>