<?xml version="1.0" encoding="UTF-8"?>
<svg id="OBJECT" xmlns="http://www.w3.org/2000/svg" viewBox="0 0 32 32">
  <defs>
    <style>
      .cls-1 {
        fill: #FD4360;
      }

      .cls-1, .cls-2 {
        stroke-width: 0px;
      }

      .cls-2 {
        fill: #dadada;
      }
    </style>
  </defs>
  <g>
    <path class="cls-2" d="m16,7.75c-4.55,0-8.25,3.7-8.25,8.25s3.7,8.25,8.25,8.25,8.25-3.7,8.25-8.25-3.7-8.25-8.25-8.25Zm0,14.5c-3.45,0-6.25-2.8-6.25-6.25s2.8-6.25,6.25-6.25,6.25,2.8,6.25,6.25-2.8,6.25-6.25,6.25Z"/>
    <path class="cls-2" d="m7,19h-1.5v-6.2c1.46-.54,2.5-2.23,2.5-4.3,0-2.52-1.54-4.5-3.5-4.5s-3.5,1.98-3.5,4.5c0,2.07,1.04,3.75,2.5,4.3v6.2h-1.5c-.55,0-1,.45-1,1s.45,1,1,1v4.5c0,1.38,1.12,2.5,2.5,2.5s2.5-1.12,2.5-2.5v-4.5c.55,0,1-.45,1-1s-.45-1-1-1Zm-2.5-13c.71,0,1.5,1.03,1.5,2.5s-.79,2.5-1.5,2.5-1.5-1.03-1.5-2.5.79-2.5,1.5-2.5Zm.5,19.5c0,.28-.22.5-.5.5s-.5-.22-.5-.5v-4.5h1v4.5Z"/>
    <path class="cls-2" d="m29,11c1.1,0,2-.9,2-2v-4c0-.55-.45-1-1-1s-1,.45-1,1v4h-.5v-4c0-.55-.45-1-1-1s-1,.45-1,1v4h-.5v-4c0-.55-.45-1-1-1s-1,.45-1,1v4c0,1.1.9,2,2,2h.5v8h-1.5c-.55,0-1,.45-1,1s.45,1,1,1v4.5c0,1.38,1.12,2.5,2.5,2.5s2.5-1.12,2.5-2.5v-4.5c.55,0,1-.45,1-1s-.45-1-1-1h-1.5v-8h.5Zm-1,14.5c0,.28-.22.5-.5.5s-.5-.22-.5-.5v-4.5h1v4.5Z"/>
  </g>
  <g>
    <path class="cls-1" d="m18.57,12.02c-.74-.48-1.62-.77-2.57-.77-2.62,0-4.75,2.13-4.75,4.75,0,.95.29,1.83.77,2.57l6.55-6.55Z"/>
    <path class="cls-1" d="m13.43,19.98c.74.48,1.62.77,2.57.77,2.62,0,4.75-2.13,4.75-4.75,0-.95-.29-1.83-.77-2.57l-6.55,6.55Z"/>
  </g>
</svg>