<?xml version="1.0" encoding="UTF-8"?>
<svg id="OBJECT" xmlns="http://www.w3.org/2000/svg" viewBox="0 0 32 32">
  <defs>
    <style>
      .cls-1 {
        fill: #FD4360;
      }

      .cls-1, .cls-2 {
        stroke-width: 0px;
      }

      .cls-2 {
        fill: #dadada;
      }
    </style>
  </defs>
  <g>
    <path class="cls-2" d="m28.67,14.32l-.99-1.72c-.33-.58-.87-.99-1.51-1.16-.65-.17-1.31-.08-1.89.25l-9.81,5.66c-.33-3.28-3.1-5.85-6.47-5.85-3.58,0-6.5,2.92-6.5,6.5,0,2.17,1.07,4.09,2.71,5.27l-2.71,1.57c-.48.28-.64.89-.37,1.37l2.48,4.3c.13.23.35.4.61.47.08.02.17.03.26.03.17,0,.35-.05.5-.13l22.78-13.15c1.19-.69,1.6-2.21.91-3.4Zm-14.42,5.47l8.02-4.63,1.48,2.57-12.88,7.43-.62-1.07c1.93-.71,3.43-2.31,4-4.3Zm-6.24-6.29c2.48,0,4.5,2.02,4.5,4.5s-2.02,4.5-4.5,4.5-4.5-2.02-4.5-4.5,2.02-4.5,4.5-4.5Zm-3.15,15.13l-1.48-2.56,3.06-1.77c.5.13,1.03.2,1.57.2.06,0,.11,0,.17,0l.96,1.67-4.28,2.47Zm21.91-12.65l-1.28.74-1.48-2.57,1.28-.74c.23-.14.53-.05.67.18l.99,1.72c.13.23.05.53-.18.67Z"/>
    <path class="cls-2" d="m5.54,20.46c.2.2.45.29.71.29s.51-.1.71-.29l1.04-1.04,1.04,1.04c.2.2.45.29.71.29s.51-.1.71-.29c.39-.39.39-1.02,0-1.41l-1.04-1.04,1.04-1.04c.39-.39.39-1.02,0-1.41s-1.02-.39-1.41,0l-1.04,1.04-1.04-1.04c-.39-.39-1.02-.39-1.41,0s-.39,1.02,0,1.41l1.04,1.04-1.04,1.04c-.39.39-.39,1.02,0,1.41Z"/>
  </g>
  <path class="cls-1" d="m30.95,1.67c-.14-.4-.52-.67-.94-.67H9.1c-.51,0-.94.38-.99.89-.12,1.08.32,3.32,2.9,4.07q.65.19.69.84c.04.73.11,1.82,1.17,3.09,1.49,1.78,4.03,1.36,5.89,1.05.57-.09,1.4-.23,1.7-.18.12.13.26.34.41.59l2.42-1.4c.69-.39,1.46-.6,2.24-.6.39,0,.79.05,1.17.16.82.22,1.53.66,2.09,1.27.73-1.31,1.21-2.91-.14-4.46-.16-.18-.22-.36-.19-.6.09-.96,1.38-2.3,2.18-2.92.33-.26.47-.71.33-1.11Zm-14.36,3.33h-.5c-.55,0-1-.45-1-1s.45-1,1-1h.5c.55,0,1,.45,1,1s-.45,1-1,1Zm5,0h-.5c-.55,0-1-.45-1-1s.45-1,1-1h.5c.55,0,1,.45,1,1s-.45,1-1,1Z"/>
</svg>