<?xml version="1.0" encoding="UTF-8"?>
<svg id="OBJECT" xmlns="http://www.w3.org/2000/svg" viewBox="0 0 512 512">
  <defs>
    <style>
      .cls-1 {
        fill: #FD4360;
      }

      .cls-2 {
        fill: #dadada;
      }
    </style>
  </defs>
  <g>
    <path class="cls-2" d="M424.5,457h-10c-4.14,0-7.5,3.36-7.5,7.5s3.36,7.5,7.5,7.5h10c4.14,0,7.5-3.36,7.5-7.5s-3.36-7.5-7.5-7.5Z"/>
    <path class="cls-2" d="M464.5,457h-10c-4.14,0-7.5,3.36-7.5,7.5s3.36,7.5,7.5,7.5h10c4.14,0,7.5-3.36,7.5-7.5s-3.36-7.5-7.5-7.5Z"/>
    <path class="cls-2" d="M484.5,147h-29.5v-52.5c0-15.16-12.34-27.5-27.5-27.5H125V27.5c0-15.16-12.34-27.5-27.5-27.5h-20c-15.16,0-27.5,12.34-27.5,27.5v39.5H27.5c-15.16,0-27.5,12.34-27.5,27.5V434.5c0,15.16,12.34,27.5,27.5,27.5H97v22.5c0,15.16,12.34,27.5,27.5,27.5H484.5c15.16,0,27.5-12.34,27.5-27.5V174.5c0-15.16-12.34-27.5-27.5-27.5ZM65,27.5c0-6.89,5.61-12.5,12.5-12.5h20c6.89,0,12.5,5.61,12.5,12.5v39.5h-45V27.5ZM15,434.5V94.5c0-6.89,5.61-12.5,12.5-12.5h22.5v35.5c0,15.16,12.34,27.5,27.5,27.5h40c4.14,0,7.5-3.36,7.5-7.5s-3.36-7.5-7.5-7.5h-40c-6.89,0-12.5-5.61-12.5-12.5v-35.5H427.5c6.89,0,12.5,5.61,12.5,12.5V357h-62.5c-15.16,0-27.5,12.34-27.5,27.5v62.5H27.5c-6.89,0-12.5-5.61-12.5-12.5Zm414.39-62.5l-64.39,64.39v-51.89c0-6.89,5.61-12.5,12.5-12.5h51.89Zm67.61,112.5c0,6.89-5.61,12.5-12.5,12.5H124.5c-6.89,0-12.5-5.61-12.5-12.5v-22.5h245.5c1.99,0,3.9-.79,5.3-2.2l90-90c1.41-1.41,2.2-3.31,2.2-5.3V162h29.5c6.89,0,12.5,5.61,12.5,12.5V484.5Z"/>
  </g>
  <g>
    <path class="cls-1" d="M407.5,179.5H177.5c-4.14,0-7.5,3.36-7.5,7.5s3.36,7.5,7.5,7.5h230c4.14,0,7.5-3.36,7.5-7.5s-3.36-7.5-7.5-7.5Z"/>
    <path class="cls-1" d="M147.5,194.5h5c4.14,0,7.5-3.36,7.5-7.5s-3.36-7.5-7.5-7.5h-5c-4.14,0-7.5,3.36-7.5,7.5s3.36,7.5,7.5,7.5Z"/>
    <path class="cls-1" d="M407.5,209.5H147.5c-4.14,0-7.5,3.36-7.5,7.5s3.36,7.5,7.5,7.5H407.5c4.14,0,7.5-3.36,7.5-7.5s-3.36-7.5-7.5-7.5Z"/>
    <path class="cls-1" d="M407.5,259.5H177.5c-4.14,0-7.5,3.36-7.5,7.5s3.36,7.5,7.5,7.5h230c4.14,0,7.5-3.36,7.5-7.5s-3.36-7.5-7.5-7.5Z"/>
    <path class="cls-1" d="M147.5,274.5h5c4.14,0,7.5-3.36,7.5-7.5s-3.36-7.5-7.5-7.5h-5c-4.14,0-7.5,3.36-7.5,7.5s3.36,7.5,7.5,7.5Z"/>
    <path class="cls-1" d="M407.5,289.5H147.5c-4.14,0-7.5,3.36-7.5,7.5s3.36,7.5,7.5,7.5H407.5c4.14,0,7.5-3.36,7.5-7.5s-3.36-7.5-7.5-7.5Z"/>
    <path class="cls-1" d="M327.5,339.5H177.5c-4.14,0-7.5,3.36-7.5,7.5s3.36,7.5,7.5,7.5h150c4.14,0,7.5-3.36,7.5-7.5s-3.36-7.5-7.5-7.5Z"/>
    <path class="cls-1" d="M147.5,354.5h5c4.14,0,7.5-3.36,7.5-7.5s-3.36-7.5-7.5-7.5h-5c-4.14,0-7.5,3.36-7.5,7.5s3.36,7.5,7.5,7.5Z"/>
    <path class="cls-1" d="M327.5,369.5H147.5c-4.14,0-7.5,3.36-7.5,7.5s3.36,7.5,7.5,7.5h180c4.14,0,7.5-3.36,7.5-7.5s-3.36-7.5-7.5-7.5Z"/>
    <rect class="cls-1" x="40" y="177" width="75" height="50" rx="15" ry="15"/>
    <rect class="cls-1" x="40" y="257" width="75" height="50" rx="15" ry="15"/>
    <rect class="cls-1" x="40" y="337" width="75" height="50" rx="15" ry="15"/>
    <rect class="cls-1" x="250" y="97" width="175" height="50" rx="15" ry="15"/>
  </g>
</svg>