<?xml version="1.0" encoding="UTF-8"?>
<svg id="OBJECT" xmlns="http://www.w3.org/2000/svg" viewBox="0 0 32 32">
  <defs>
    <style>
      .cls-1 {
        fill: #FD4360;
      }

      .cls-1, .cls-2 {
        stroke-width: 0px;
      }

      .cls-2 {
        fill: #dadada;
      }
    </style>
  </defs>
  <g>
    <path class="cls-2" d="m23,4h-1v-2c0-.55-.45-1-1-1s-1,.45-1,1v2h-3.67v-2c0-.55-.45-1-1-1s-1,.45-1,1v2h-3.67v-2c0-.55-.45-1-1-1s-1,.45-1,1v2h-3.67v-2c0-.55-.45-1-1-1s-1,.45-1,1v2h-1c-.55,0-1,.45-1,1v25c0,.55.45,1,1,1h21c.55,0,1-.45,1-1V5c0-.55-.45-1-1-1Zm-1,2v2H3v-2h19ZM3,29V10h19v19H3Z"/>
    <path class="cls-2" d="m20,12h-11c-.55,0-1,.45-1,1s.45,1,1,1h11c.55,0,1-.45,1-1s-.45-1-1-1Z"/>
    <path class="cls-2" d="m5,14h1c.55,0,1-.45,1-1s-.45-1-1-1h-1c-.55,0-1,.45-1,1s.45,1,1,1Z"/>
    <path class="cls-2" d="m20,16H5c-.55,0-1,.45-1,1s.45,1,1,1h15c.55,0,1-.45,1-1s-.45-1-1-1Z"/>
    <path class="cls-2" d="m20,21h-11c-.55,0-1,.45-1,1s.45,1,1,1h11c.55,0,1-.45,1-1s-.45-1-1-1Z"/>
    <path class="cls-2" d="m5,23h1c.55,0,1-.45,1-1s-.45-1-1-1h-1c-.55,0-1,.45-1,1s.45,1,1,1Z"/>
    <path class="cls-2" d="m20,25H5c-.55,0-1,.45-1,1s.45,1,1,1h15c.55,0,1-.45,1-1s-.45-1-1-1Z"/>
  </g>
  <g>
    <path class="cls-1" d="m29.5,1h-2.5c-.83,0-1.5.67-1.5,1.5v2.5h5.5v-2.5c0-.83-.67-1.5-1.5-1.5Z"/>
    <path class="cls-1" d="m25.5,22.79c.86-.38,1.79-.58,2.75-.58s1.89.2,2.75.58V7h-5.5v15.79Z"/>
    <path class="cls-1" d="m25.52,25.07c.04.9.38,1.76.97,2.44l.76.87v1.62c0,.55.45,1,1,1s1-.45,1-1v-1.62l.76-.87c.6-.68.93-1.54.97-2.44-.8-.55-1.75-.86-2.73-.86s-1.93.31-2.73.86Z"/>
  </g>
</svg>