<?xml version="1.0" encoding="UTF-8"?>
<svg id="OBJECT" xmlns="http://www.w3.org/2000/svg" viewBox="0 0 32 32">
  <defs>
    <style>
      .cls-1 {
        fill: #FD4360;
      }

      .cls-2 {
        fill: #dadada;
      }
    </style>
  </defs>
  <g>
    <path class="cls-2" d="M20,4.05V2c0-.55-.45-1-1-1s-1,.45-1,1v2h-3V2c0-.55-.45-1-1-1s-1,.45-1,1v2h-3V2c0-.55-.45-1-1-1s-1,.45-1,1v2h-3V2c0-.55-.45-1-1-1s-1,.45-1,1v2.05c-1.14,.23-2,1.24-2,2.45V28.5c0,1.38,1.12,2.5,2.5,2.5H19.5c1.38,0,2.5-1.12,2.5-2.5V6.5c0-1.21-.86-2.22-2-2.45ZM3.5,6H19.5c.28,0,.5,.22,.5,.5v2.5H3v-2.5c0-.28,.22-.5,.5-.5ZM19.5,29H3.5c-.28,0-.5-.22-.5-.5V11H20V28.5c0,.28-.22,.5-.5,.5Z"/>
    <path class="cls-2" d="M7.5,12.5h-1c-1.38,0-2.5,1.12-2.5,2.5v1c0,1.38,1.12,2.5,2.5,2.5h1c1.38,0,2.5-1.12,2.5-2.5v-1c0-1.38-1.12-2.5-2.5-2.5Zm.5,3.5c0,.28-.22,.5-.5,.5h-1c-.28,0-.5-.22-.5-.5v-1c0-.28,.22-.5,.5-.5h1c.28,0,.5,.22,.5,.5v1Z"/>
    <path class="cls-2" d="M12,15h4c.55,0,1-.45,1-1s-.45-1-1-1h-4c-.55,0-1,.45-1,1s.45,1,1,1Z"/>
    <path class="cls-2" d="M18,16h-6c-.55,0-1,.45-1,1s.45,1,1,1h6c.55,0,1-.45,1-1s-.45-1-1-1Z"/>
    <path class="cls-2" d="M7.5,21.5h-1c-1.38,0-2.5,1.12-2.5,2.5v1c0,1.38,1.12,2.5,2.5,2.5h1c1.38,0,2.5-1.12,2.5-2.5v-1c0-1.38-1.12-2.5-2.5-2.5Zm.5,3.5c0,.28-.22,.5-.5,.5h-1c-.28,0-.5-.22-.5-.5v-1c0-.28,.22-.5,.5-.5h1c.28,0,.5,.22,.5,.5v1Z"/>
    <path class="cls-2" d="M12,24h4c.55,0,1-.45,1-1s-.45-1-1-1h-4c-.55,0-1,.45-1,1s.45,1,1,1Z"/>
    <path class="cls-2" d="M18,25h-6c-.55,0-1,.45-1,1s.45,1,1,1h6c.55,0,1-.45,1-1s-.45-1-1-1Z"/>
  </g>
  <g>
    <path class="cls-1" d="M29,1h-1c-1.1,0-2,.9-2,2v2h5V3c0-1.1-.9-2-2-2Z"/>
    <path class="cls-1" d="M26,25.69c0,.47,.16,.92,.46,1.28l1.04,1.24v1.79c0,.55,.45,1,1,1s1-.45,1-1v-1.79l1.04-1.24c.3-.36,.46-.81,.46-1.28V7h-5V25.69Z"/>
  </g>
</svg>