<?xml version="1.0" encoding="UTF-8"?>
<svg id="OBJECT" xmlns="http://www.w3.org/2000/svg" viewBox="0 0 32 32">
  <defs>
    <style>
      .cls-1 {
        fill: #FD4360;
      }

      .cls-1, .cls-2 {
        stroke-width: 0px;
      }

      .cls-2 {
        fill: #dadada;
      }
    </style>
  </defs>
  <g>
    <path class="cls-2" d="m22,4h-1v-2c0-.55-.45-1-1-1s-1,.45-1,1v2h-3.33v-2c0-.55-.45-1-1-1s-1,.45-1,1v2h-3.33v-2c0-.55-.45-1-1-1s-1,.45-1,1v2h-3.33v-2c0-.55-.45-1-1-1s-1,.45-1,1v2h-1c-.55,0-1,.45-1,1v25c0,.55.45,1,1,1h20c.55,0,1-.45,1-1V5c0-.55-.45-1-1-1Zm-1,2v2H3v-2h18ZM3,29V10h18v19H3Z"/>
    <path class="cls-2" d="m18.5,12h-9c-.55,0-1,.45-1,1s.45,1,1,1h9c.55,0,1-.45,1-1s-.45-1-1-1Z"/>
    <path class="cls-2" d="m5.5,14h.5c.55,0,1-.45,1-1s-.45-1-1-1h-.5c-.55,0-1,.45-1,1s.45,1,1,1Z"/>
    <path class="cls-2" d="m18.5,16H5.5c-.55,0-1,.45-1,1s.45,1,1,1h13c.55,0,1-.45,1-1s-.45-1-1-1Z"/>
    <path class="cls-2" d="m18.5,21h-9c-.55,0-1,.45-1,1s.45,1,1,1h9c.55,0,1-.45,1-1s-.45-1-1-1Z"/>
    <path class="cls-2" d="m5.5,23h.5c.55,0,1-.45,1-1s-.45-1-1-1h-.5c-.55,0-1,.45-1,1s.45,1,1,1Z"/>
    <path class="cls-2" d="m18.5,25H5.5c-.55,0-1,.45-1,1s.45,1,1,1h13c.55,0,1-.45,1-1s-.45-1-1-1Z"/>
  </g>
  <g>
    <path class="cls-1" d="m25,23.28c.92-.44,1.94-.68,3-.68s2.08.24,3,.68v-11.28h-6v11.28Z"/>
    <path class="cls-1" d="m25.07,25.56c.12.67.39,1.32.8,1.87l1.13,1.51v1.07c0,.55.45,1,1,1s1-.45,1-1v-1.07l1.13-1.51s0,0,0,0c.41-.55.68-1.19.8-1.87-.84-.61-1.85-.96-2.93-.96s-2.09.34-2.93.96Z"/>
    <path class="cls-1" d="m29,6h-2c-1.1,0-2,.9-2,2v2h6v-2c0-1.1-.9-2-2-2Z"/>
  </g>
</svg>