<?xml version="1.0" encoding="UTF-8"?>
<svg id="OBJECT" xmlns="http://www.w3.org/2000/svg" viewBox="0 0 512 512">
  <defs>
    <style>
      .cls-1 {
        fill: #FD4360;
      }

      .cls-2 {
        fill: #dadada;
      }
    </style>
  </defs>
  <g>
    <path class="cls-2" d="M367.5,40h-12.5V22.5c0-12.41-10.09-22.5-22.5-22.5h-10c-12.41,0-22.5,10.09-22.5,22.5v17.5h-38.33V22.5c0-12.41-10.09-22.5-22.5-22.5h-10c-12.41,0-22.5,10.09-22.5,22.5v17.5h-38.33V22.5c0-12.41-10.09-22.5-22.5-22.5h-10c-12.41,0-22.5,10.09-22.5,22.5v17.5h-38.33V22.5c0-12.41-10.09-22.5-22.5-22.5h-10c-12.41,0-22.5,10.09-22.5,22.5v17.5H7.5c-4.14,0-7.5,3.36-7.5,7.5V504.5c0,4.14,3.36,7.5,7.5,7.5H367.5c4.14,0,7.5-3.36,7.5-7.5V47.5c0-4.14-3.36-7.5-7.5-7.5Zm-52.5-17.5c0-4.14,3.36-7.5,7.5-7.5h10c4.14,0,7.5,3.36,7.5,7.5v17.5h-25V22.5Zm-93.33,0c0-4.14,3.36-7.5,7.5-7.5h10c4.14,0,7.5,3.36,7.5,7.5v17.5h-25V22.5Zm-93.33,0c0-4.14,3.36-7.5,7.5-7.5h10c4.14,0,7.5,3.36,7.5,7.5v17.5h-25V22.5Zm-93.33,0c0-4.14,3.36-7.5,7.5-7.5h10c4.14,0,7.5,3.36,7.5,7.5v17.5h-25V22.5ZM360,55v45H15V55H360ZM15,497V115H360V497H15Z"/>
    <path class="cls-2" d="M489.5,80h-17.5v-22.5c0-4.14-3.36-7.5-7.5-7.5V20c0-11.03-8.97-20-20-20s-20,8.97-20,20v30c-4.14,0-7.5,3.36-7.5,7.5V247.44c-2.91,1.03-5,3.8-5,7.06v154.47c0,24.67,8.7,48.69,24.49,67.63l.51,.62v27.28c0,4.14,3.36,7.5,7.5,7.5s7.5-3.36,7.5-7.5v-27.28l.51-.62c15.79-18.95,24.49-42.97,24.49-67.63V254.5c0-3.26-2.09-6.03-5-7.06V95h17.5c4.14,0,7.5,3.36,7.5,7.5v85c0,4.14,3.36,7.5,7.5,7.5s7.5-3.36,7.5-7.5V102.5c0-12.41-10.09-22.5-22.5-22.5Zm-27.5,197h-35v-15h35v15Zm-30-30V65h25V247h-25Zm7.5-227c0-2.76,2.24-5,5-5s5,2.24,5,5v30h-10V20Zm5,442.5c-11.32-15.48-17.5-34.28-17.5-53.54v-116.97h35v116.97c0,19.26-6.18,38.06-17.5,53.54Z"/>
  </g>
  <g>
    <rect class="cls-1" x="40" y="268.5" width="75" height="75" rx="22.5" ry="22.5"/>
    <path class="cls-1" d="M327.5,278.5H187.5c-4.14,0-7.5,3.36-7.5,7.5s3.36,7.5,7.5,7.5h140c4.14,0,7.5-3.36,7.5-7.5s-3.36-7.5-7.5-7.5Z"/>
    <path class="cls-1" d="M147.5,293.5h10c4.14,0,7.5-3.36,7.5-7.5s-3.36-7.5-7.5-7.5h-10c-4.14,0-7.5,3.36-7.5,7.5s3.36,7.5,7.5,7.5Z"/>
    <path class="cls-1" d="M327.5,318.5H147.5c-4.14,0-7.5,3.36-7.5,7.5s3.36,7.5,7.5,7.5h180c4.14,0,7.5-3.36,7.5-7.5s-3.36-7.5-7.5-7.5Z"/>
    <rect class="cls-1" x="40" y="140" width="75" height="75" rx="22.5" ry="22.5"/>
    <path class="cls-1" d="M187.5,165h140c4.14,0,7.5-3.36,7.5-7.5s-3.36-7.5-7.5-7.5H187.5c-4.14,0-7.5,3.36-7.5,7.5s3.36,7.5,7.5,7.5Z"/>
    <path class="cls-1" d="M147.5,165h10c4.14,0,7.5-3.36,7.5-7.5s-3.36-7.5-7.5-7.5h-10c-4.14,0-7.5,3.36-7.5,7.5s3.36,7.5,7.5,7.5Z"/>
    <path class="cls-1" d="M327.5,190H147.5c-4.14,0-7.5,3.36-7.5,7.5s3.36,7.5,7.5,7.5h180c4.14,0,7.5-3.36,7.5-7.5s-3.36-7.5-7.5-7.5Z"/>
    <rect class="cls-1" x="40" y="397" width="75" height="75" rx="22.5" ry="22.5"/>
    <path class="cls-1" d="M327.5,407H187.5c-4.14,0-7.5,3.36-7.5,7.5s3.36,7.5,7.5,7.5h140c4.14,0,7.5-3.36,7.5-7.5s-3.36-7.5-7.5-7.5Z"/>
    <path class="cls-1" d="M147.5,422h10c4.14,0,7.5-3.36,7.5-7.5s-3.36-7.5-7.5-7.5h-10c-4.14,0-7.5,3.36-7.5,7.5s3.36,7.5,7.5,7.5Z"/>
    <path class="cls-1" d="M327.5,447H147.5c-4.14,0-7.5,3.36-7.5,7.5s3.36,7.5,7.5,7.5h180c4.14,0,7.5-3.36,7.5-7.5s-3.36-7.5-7.5-7.5Z"/>
  </g>
</svg>