<?xml version="1.0" encoding="UTF-8"?>
<svg id="OBJECT" xmlns="http://www.w3.org/2000/svg" viewBox="0 0 512 512">
  <defs>
    <style>
      .cls-1 {
        fill: #FD4360;
      }

      .cls-2 {
        fill: #dadada;
      }
    </style>
  </defs>
  <g>
    <path class="cls-2" d="M174.86,95.31c-4.13,.34-7.2,3.96-6.86,8.09,.32,3.92,3.6,6.89,7.47,6.89,.21,0,.41,0,.62-.03,2.11-.17,4.27-.26,6.41-.26,4.14,0,7.5-3.36,7.5-7.5s-3.36-7.5-7.5-7.5c-2.55,0-5.12,.11-7.64,.31Z"/>
    <path class="cls-2" d="M137.93,106.46c-29.56,16.32-47.93,47.37-47.93,81.04v72.11c0,4.14,3.36,7.5,7.5,7.5s7.5-3.36,7.5-7.5v-72.11c0-28.2,15.39-54.22,40.18-67.91,3.63-2,4.94-6.56,2.94-10.19-2-3.63-6.56-4.94-10.19-2.94Z"/>
    <path class="cls-2" d="M245,327.5c0,4.14,3.36,7.5,7.5,7.5h10c4.14,0,7.5-3.36,7.5-7.5s-3.36-7.5-7.5-7.5h-10c-4.14,0-7.5,3.36-7.5,7.5Z"/>
    <path class="cls-2" d="M363.4,392.87l-53.4-67.96v-39.59c0-4.14-3.36-7.5-7.5-7.5s-7.5,3.36-7.5,7.5v42.18c0,1.68,.56,3.31,1.6,4.63l45.47,57.87H22.93l43.21-55H222.5c4.14,0,7.5-3.36,7.5-7.5s-3.36-7.5-7.5-7.5H70V187.5c0-30.06,11.7-58.31,32.96-79.55,21.24-21.25,49.49-32.95,79.54-32.95,24.16,0,47.18,7.54,66.58,21.81,3.34,2.46,8.03,1.74,10.49-1.6,2.45-3.34,1.74-8.03-1.6-10.49-11.64-8.56-24.44-14.97-37.96-19.12v-28.11c0-20.68-16.82-37.5-37.5-37.5s-37.5,16.82-37.5,37.5v28.08c-19.67,6.02-37.7,16.81-52.65,31.77-24.08,24.07-37.35,56.09-37.35,90.15v137.41L1.6,392.87c-1.04,1.32-1.6,2.95-1.6,4.63v35c0,12.41,10.09,22.5,22.5,22.5H125v9.5c0,26.19,21.31,47.5,47.5,47.5h20c26.19,0,47.5-21.31,47.5-47.5v-9.5h102.5c12.41,0,22.5-10.09,22.5-22.5v-35c0-1.68-.56-3.31-1.6-4.63ZM160,37.5c0-12.41,10.09-22.5,22.5-22.5s22.5,10.09,22.5,22.5v24.49c-7.36-1.31-14.88-1.99-22.5-1.99s-15.15,.67-22.5,1.97v-24.47Zm65,427c0,17.92-14.58,32.5-32.5,32.5h-20c-17.92,0-32.5-14.58-32.5-32.5v-9.5h85v9.5Zm117.5-24.5H22.5c-4.14,0-7.5-3.36-7.5-7.5v-27.5H350v27.5c0,4.14-3.36,7.5-7.5,7.5Z"/>
  </g>
  <g>
    <circle class="cls-1" cx="337" cy="120" r="20"/>
    <path class="cls-1" d="M379.5,30c-73.06,0-132.5,59.44-132.5,132.5s59.44,132.5,132.5,132.5,132.5-59.44,132.5-132.5S452.56,30,379.5,30Zm-42.5,55c19.3,0,35,15.7,35,35s-15.7,35-35,35-35-15.7-35-35,15.7-35,35-35Zm-17.2,147.8c-1.46,1.46-3.38,2.2-5.3,2.2s-3.84-.73-5.3-2.2c-2.93-2.93-2.93-7.68,0-10.61L439.2,92.2c2.93-2.93,7.68-2.93,10.61,0,2.93,2.93,2.93,7.68,0,10.61l-130,130Zm102.2,7.2c-19.3,0-35-15.7-35-35s15.7-35,35-35,35,15.7,35,35-15.7,35-35,35Z"/>
    <circle class="cls-1" cx="422" cy="205" r="20"/>
  </g>
</svg>