<?xml version="1.0" encoding="UTF-8"?>
<svg id="OBJECT" xmlns="http://www.w3.org/2000/svg" viewBox="0 0 32 32">
  <defs>
    <style>
      .cls-1 {
        fill: #FD4360;
      }

      .cls-2 {
        fill: #dadada;
      }
    </style>
  </defs>
  <g>
    <path class="cls-2" d="M25.83,21.45l-1.83-2.75v-7.7c0-2.79-1.92-5.13-4.5-5.8v-1.2c0-1.65-1.35-3-3-3h-1c-1.65,0-3,1.35-3,3v1.2c-2.58,.67-4.5,3.01-4.5,5.8v7.7l-1.83,2.75c-.31,.46-.18,1.08,.28,1.39,.46,.3,1.08,.18,1.39-.28l1.7-2.55h4.46c.55,0,1-.45,1-1s-.45-1-1-1h-4v-7c0-2.21,1.79-4,4-4h4c2.21,0,4,1.79,4,4v8c0,.2,.06,.39,.17,.55l2,3c.19,.29,.51,.45,.83,.45,.19,0,.38-.05,.55-.17,.46-.31,.58-.93,.28-1.39ZM15.5,3h1c.55,0,1,.45,1,1v1h-3v-1c0-.55,.45-1,1-1Z"/>
    <path class="cls-2" d="M18,8.5h-2c-.55,0-1,.45-1,1s.45,1,1,1h2c.28,0,.5,.22,.5,.5v3.97c0,.55,.45,1,1,1s1-.45,1-1v-3.97c0-1.38-1.12-2.5-2.5-2.5Z"/>
    <path class="cls-2" d="M18,18h-.5c-.55,0-1,.45-1,1s.45,1,1,1h.5c.55,0,1-.45,1-1s-.45-1-1-1Z"/>
  </g>
  <path class="cls-1" d="M27,24H5c-.55,0-1,.45-1,1s.45,1,1,1h6v2c0,1.65,1.35,3,3,3h4c1.65,0,3-1.35,3-3v-2h6c.55,0,1-.45,1-1s-.45-1-1-1Z"/>
</svg>