<?xml version="1.0" encoding="UTF-8"?>
<svg id="OBJECT" xmlns="http://www.w3.org/2000/svg" viewBox="0 0 32 32">
  <defs>
    <style>
      .cls-1 {
        fill: #FD4360;
      }

      .cls-1, .cls-2 {
        stroke-width: 0px;
      }

      .cls-2 {
        fill: #dadada;
      }
    </style>
  </defs>
  <g>
    <path class="cls-2" d="m25.01,3.76h-.02c-.55,0-1,.45-1,1,0,.55.45,1,1,1h0c.34.03.64.12.88.36.23.23.36.54.36.88,0,.55.44,1,1,1h0c.55,0,1-.44,1-1,0-.87-.33-1.69-.94-2.3-.61-.61-1.42-.94-2.29-.94Z"/>
    <path class="cls-2" d="m29.4,2.6c-1.03-1.03-2.4-1.6-3.86-1.6h-.03c-.55,0-1,.45-1,1,0,.55.45,1,1,1h.02c.93,0,1.8.36,2.45,1.01s1.02,1.53,1.01,2.46c0,.55.44,1,1,1h0c.55,0,1-.44,1-1,0-1.47-.56-2.85-1.6-3.89Z"/>
    <path class="cls-2" d="m4.76,8h0c.55,0,1-.45,1-1,0-.33.13-.64.36-.88.23-.23.54-.36.87-.36h.01c.55,0,1-.44,1-1,0-.55-.44-1-1-1h-.02c-.86,0-1.68.33-2.29.94s-.95,1.43-.94,2.3c0,.55.45,1,1,1Z"/>
    <path class="cls-2" d="m6.46,3h.02c.55,0,1-.44,1-1,0-.55-.44-1-1-1h-.03c-1.46,0-2.83.57-3.86,1.6-1.04,1.04-1.6,2.42-1.6,3.89,0,.55.45,1,1,1h0c.55,0,1-.45,1-1,0-.93.35-1.81,1.01-2.46s1.52-1.01,2.45-1.01Z"/>
    <path class="cls-2" d="m18,8.5h-1.5c-.55,0-1,.45-1,1s.45,1,1,1h1.5c.55,0,1,.45,1,1v1c0,.55.45,1,1,1s1-.45,1-1v-1c0-1.65-1.35-3-3-3Z"/>
    <path class="cls-2" d="m19.5,17h-.5c-.55,0-1,.45-1,1s.45,1,1,1h.5c.55,0,1-.45,1-1s-.45-1-1-1Z"/>
    <path class="cls-2" d="m27,21h-.88l-1.62-3.24v-7.76c0-2.76-2.24-5-5-5v-1c0-1.65-1.35-3-3-3h-1c-1.65,0-3,1.35-3,3v1c-2.76,0-5,2.24-5,5v7.76l-1.62,3.24h-.88c-.55,0-1,.45-1,1s.45,1,1,1h22c.55,0,1-.45,1-1s-.45-1-1-1ZM14.5,4c0-.55.45-1,1-1h1c.55,0,1,.45,1,1v1h-3v-1Zm-5.38,15h6.38c.55,0,1-.45,1-1s-.45-1-1-1h-6v-7c0-1.65,1.35-3,3-3h7c1.65,0,3,1.35,3,3v8c0,.16.04.31.11.45l1.28,2.55h-15.76l1-2Z"/>
  </g>
  <path class="cls-1" d="m10.5,28c0,1.66,1.34,3,3,3h5c1.66,0,3-1.34,3-3v-3h-11v3Z"/>
</svg>