<?xml version="1.0" encoding="UTF-8"?>
<svg id="OBJECT" xmlns="http://www.w3.org/2000/svg" viewBox="0 0 32 32">
  <defs>
    <style>
      .cls-1 {
        fill: #FD4360;
      }

      .cls-1, .cls-2 {
        stroke-width: 0px;
      }

      .cls-2 {
        fill: #dadada;
      }
    </style>
  </defs>
  <path class="cls-2" d="m25,25h-.38l-1.62-3.24v-.76c0-.55-.45-1-1-1s-1,.45-1,1v1c0,.16.04.31.11.45l1.28,2.55H7.62l1-2h9.38c.55,0,1-.45,1-1s-.45-1-1-1h-9v-8c0-3.31,2.69-6,6-6,.21,0,.43.01.64.04.57.06,1.04-.34,1.1-.88.06-.55-.33-1.04-.88-1.1-.28-.03-.57-.05-.86-.05-.69,0-1.36.1-2,.26v-.26c0-1.1.9-2,2-2s2,.9,2,2c0,.55.45,1,1,1s1-.45,1-1c0-2.21-1.79-4-4-4s-4,1.79-4,4v1.08c-2.39,1.39-4,3.96-4,6.92v8.76l-1.62,3.24h-.38c-.55,0-1,.45-1,1s.45,1,1,1h4.5v1c0,1.65,1.35,3,3,3h5c1.65,0,3-1.35,3-3v-1h4.5c.55,0,1-.45,1-1s-.45-1-1-1Zm-6.5,3c0,.55-.45,1-1,1h-5c-.55,0-1-.45-1-1v-1h7v1Z"/>
  <path class="cls-1" d="m22,7c-3.31,0-6,2.69-6,6s2.69,6,6,6,6-2.69,6-6-2.69-6-6-6Zm1,9c0,.55-.45,1-1,1s-1-.45-1-1v-3c0-.55.45-1,1-1s1,.45,1,1v3Zm0-5.5c0,.55-.45,1-1,1s-1-.45-1-1v-.5c0-.55.45-1,1-1s1,.45,1,1v.5Z"/>
</svg>