<?xml version="1.0" encoding="UTF-8"?>
<svg id="OBJECT" xmlns="http://www.w3.org/2000/svg" viewBox="0 0 32 32">
  <defs>
    <style>
      .cls-1 {
        fill: #FD4360;
      }

      .cls-1, .cls-2 {
        stroke-width: 0px;
      }

      .cls-2 {
        fill: #dadada;
      }
    </style>
  </defs>
  <path class="cls-1" d="m14,31h4c1.65,0,3-1.35,3-3h-10c0,1.65,1.35,3,3,3Z"/>
  <path class="cls-1" d="m27,24h-.38l-1-2H6.38l-1,2h-.38c-.55,0-1,.45-1,1s.45,1,1,1h22c.55,0,1-.45,1-1s-.45-1-1-1Z"/>
  <g>
    <path class="cls-2" d="m30.37,5.2c-.32-.45-.95-.55-1.4-.23l-2.68,1.92c-.45.32-.55.95-.23,1.4.2.27.5.42.81.42.2,0,.41-.06.58-.19l2.68-1.92c.45-.32.55-.95.23-1.4Z"/>
    <path class="cls-2" d="m30.28,12.44l-1.36-.4c-.53-.15-1.09.15-1.24.68-.15.53.15,1.08.68,1.24l1.36.4c.09.03.19.04.28.04.43,0,.83-.28.96-.72.15-.53-.15-1.08-.68-1.24Z"/>
    <path class="cls-2" d="m23.08,4.32c.09.03.19.04.28.04.43,0,.83-.28.96-.72l.4-1.36c.15-.53-.15-1.08-.68-1.24-.53-.15-1.09.15-1.24.68l-.4,1.36c-.15.53.15,1.08.68,1.24Z"/>
    <path class="cls-2" d="m3.03,4.97c-.45-.32-1.07-.22-1.4.23s-.22,1.07.23,1.4l2.68,1.92c.18.13.38.19.58.19.31,0,.62-.14.81-.42.32-.45.22-1.07-.23-1.4l-2.68-1.92Z"/>
    <path class="cls-2" d="m3.08,12.04l-1.36.4c-.53.16-.83.71-.68,1.24.13.44.53.72.96.72.09,0,.19-.01.28-.04l1.36-.4c.53-.16.83-.71.68-1.24-.15-.53-.71-.83-1.24-.68Z"/>
    <path class="cls-2" d="m7.68,3.64c.13.44.53.72.96.72.09,0,.19-.01.28-.04.53-.16.83-.71.68-1.24l-.4-1.36c-.16-.53-.71-.83-1.24-.68-.53.16-.83.71-.68,1.24l.4,1.36Z"/>
    <path class="cls-2" d="m20,6.29v-2.29c0-1.65-1.35-3-3-3h-2c-1.65,0-3,1.35-3,3v2.29c-2.89.86-5,3.54-5,6.71v7c0,.55.45,1,1,1s1-.45,1-1v-2h8.11c.55,0,1-.45,1-1s-.45-1-1-1h-8.11v-3c0-2.76,2.24-5,5-5h4c2.76,0,5,2.24,5,5v7c0,.55.45,1,1,1s1-.45,1-1v-7c0-3.16-2.11-5.84-5-6.71Zm-6-.29v-2c0-.55.45-1,1-1h2c.55,0,1,.45,1,1v2h-4Z"/>
    <path class="cls-2" d="m21.06,16h-1c-.55,0-1,.45-1,1s.45,1,1,1h1c.55,0,1-.45,1-1s-.45-1-1-1Z"/>
  </g>
</svg>