<?xml version="1.0" encoding="UTF-8"?>
<svg id="OBJECT" xmlns="http://www.w3.org/2000/svg" viewBox="0 0 32 32">
  <defs>
    <style>
      .cls-1 {
        fill: #FD4360;
      }

      .cls-1, .cls-2 {
        stroke-width: 0px;
      }

      .cls-2 {
        fill: #dadada;
      }
    </style>
  </defs>
  <path class="cls-2" d="m26.78,8.03c-.19-3.9-4.32-7.03-9.38-7.03-3.71,0-7.07,1.71-8.57,4.3-1.49.29-2.73,1.32-3.3,2.7h-.03c-2.48,0-4.5,2.02-4.5,4.5s2.02,4.5,4.5,4.5h4v4c-.55,0-1,.45-1,1s.45,1,1,1h13c.55,0,1-.45,1-1s-.45-1-1-1v-4h4c2.48,0,4.5-2.02,4.5-4.5s-1.87-4.32-4.22-4.47Zm-9.78,12.97h-2v-3.5c0-.28.22-.5.5-.5h1c.28,0,.5.22.5.5v3.5Zm2,0v-3.5c0-1.38-1.12-2.5-2.5-2.5h-1c-1.38,0-2.5,1.12-2.5,2.5v3.5h-1.5v-8.73l4.5-2.16,4.5,2.16v8.73h-1.5Zm7.5-6h-4v-1.78l.07.03c.14.07.29.1.43.1.37,0,.73-.21.9-.57.24-.5.03-1.1-.47-1.33l-7-3.36c-.27-.13-.59-.13-.86,0l-7,3.36c-.5.24-.71.84-.47,1.33s.84.71,1.33.47l.07-.03v1.78h-4c-1.38,0-2.5-1.12-2.5-2.5s1.12-2.5,2.5-2.5h.77c.48,0,.89-.33.98-.8.22-1.09,1.16-1.91,2.29-1.98.37-.02.69-.24.84-.58,1.02-2.18,3.84-3.65,7.02-3.65,3.94,0,7.16,2.22,7.38,5h-1.51c-.55,0-1,.45-1,1s.45,1,1,1h3.23c1.38,0,2.5,1.12,2.5,2.5s-1.12,2.5-2.5,2.5Z"/>
  <g>
    <rect class="cls-1" x="12" y="25" width="8" height="6" rx="1.5" ry="1.5"/>
    <path class="cls-1" d="m26,27h-4v2h4c.55,0,1-.45,1-1s-.45-1-1-1Z"/>
    <path class="cls-1" d="m30,27h-.5c-.55,0-1,.45-1,1s.45,1,1,1h.5c.55,0,1-.45,1-1s-.45-1-1-1Z"/>
    <path class="cls-1" d="m5,28c0,.55.45,1,1,1h4v-2h-4c-.55,0-1,.45-1,1Z"/>
    <path class="cls-1" d="m2.5,27h-.5c-.55,0-1,.45-1,1s.45,1,1,1h.5c.55,0,1-.45,1-1s-.45-1-1-1Z"/>
  </g>
</svg>