<?xml version="1.0" encoding="UTF-8"?>
<svg id="OBJECT" xmlns="http://www.w3.org/2000/svg" viewBox="0 0 32 32">
  <defs>
    <style>
      .cls-1 {
        fill: #FD4360;
      }

      .cls-1, .cls-2 {
        stroke-width: 0px;
      }

      .cls-2 {
        fill: #dadada;
      }
    </style>
  </defs>
  <g>
    <path class="cls-2" d="m9.5,15.59v-1.97c0-.55-.45-1-1-1s-1,.45-1,1v2.38c0,.27.11.52.29.71l1.52,1.52c.2.2.45.29.71.29s.51-.1.71-.29c.39-.39.39-1.02,0-1.41l-1.22-1.22Z"/>
    <path class="cls-2" d="m26.64,15.23l-3-2.5c-.18-.15-.41-.23-.64-.23h-7.87c-1.26-2.38-3.76-4-6.63-4-4.14,0-7.5,3.36-7.5,7.5s3.36,7.5,7.5,7.5c2.87,0,5.37-1.62,6.63-4h7.87c.23,0,.46-.08.64-.23l3-2.5c.23-.19.36-.47.36-.77s-.13-.58-.36-.77Zm-18.14,6.27c-3.03,0-5.5-2.47-5.5-5.5s2.47-5.5,5.5-5.5,5.5,2.47,5.5,5.5-2.47,5.5-5.5,5.5Zm14.14-4h-1.64v-1c0-.55-.45-1-1-1s-1,.45-1,1v1h-3.15c.1-.48.15-.99.15-1.5s-.05-1.02-.15-1.5h6.79l1.8,1.5-1.8,1.5Z"/>
  </g>
  <path class="cls-1" d="m25.5,4c-2.42,0-4.09,2.85-4.91,6.5h2.41c.7,0,1.38.25,1.92.69l3,2.5c.69.57,1.08,1.41,1.08,2.3s-.39,1.73-1.08,2.3l-3,2.5c-.54.45-1.22.7-1.92.7h-2.41c.82,3.65,2.49,6.5,4.91,6.5,3.57,0,5.5-6.18,5.5-12s-1.93-12-5.5-12Z"/>
</svg>