<?xml version="1.0" encoding="UTF-8"?>
<svg id="OBJECT" xmlns="http://www.w3.org/2000/svg" viewBox="0 0 32 32">
  <defs>
    <style>
      .cls-1 {
        fill: #FD4360;
      }

      .cls-1, .cls-2 {
        stroke-width: 0px;
      }

      .cls-2 {
        fill: #dadada;
      }
    </style>
  </defs>
  <g>
    <path class="cls-2" d="m9.75,27c0,.55.45,1,1,1h.5c.55,0,1-.45,1-1s-.45-1-1-1h-.5c-.55,0-1,.45-1,1Z"/>
    <path class="cls-2" d="m14.75,28h.5c.55,0,1-.45,1-1s-.45-1-1-1h-.5c-.55,0-1,.45-1,1s.45,1,1,1Z"/>
    <path class="cls-2" d="m30,29h-1.38l-7.22-14.45c-.34-.68-1.45-.68-1.79,0l-2.1,4.21-.48-.96c-.25-.49-.85-.69-1.34-.45-.49.25-.69.85-.45,1.34l5.15,10.3H5.62l5.37-10.72c.25-.49.05-1.09-.45-1.34-.5-.25-1.09-.05-1.34.45l-5.81,11.62h-1.38c-.55,0-1,.45-1,1s.45,1,1,1h28c.55,0,1-.45,1-1s-.45-1-1-1Zm-11.38-8l1.88-3.76,5.88,11.76h-3.76l-4-8Z"/>
  </g>
  <path class="cls-1" d="m13.89,15.44c.6,0,1.22-.07,1.85-.18l-1.75-3.5v-2.76h7c.55,0,1-.45,1-1V2c0-.55-.45-1-1-1h-8c-.55,0-1,.45-1,1v9.76l-1.52,3.03c.91.36,2.04.64,3.41.64Z"/>
</svg>