<?xml version="1.0" encoding="UTF-8"?>
<svg id="OBJECT" xmlns="http://www.w3.org/2000/svg" viewBox="0 0 32 32">
  <defs>
    <style>
      .cls-1 {
        fill: #FD4360;
      }

      .cls-1, .cls-2 {
        stroke-width: 0px;
      }

      .cls-2 {
        fill: #dadada;
      }
    </style>
  </defs>
  <g>
    <path class="cls-2" d="m10,26h-1c-.55,0-1,.45-1,1s.45,1,1,1h1c.55,0,1-.45,1-1s-.45-1-1-1Z"/>
    <path class="cls-2" d="m15,26h-1c-.55,0-1,.45-1,1s.45,1,1,1h1c.55,0,1-.45,1-1s-.45-1-1-1Z"/>
    <path class="cls-2" d="m30,29h-8.44l-7.18-11.67c-.5-.82-1.42-1.33-2.38-1.33s-1.87.51-2.38,1.33l-7.18,11.67h-.44c-.55,0-1,.45-1,1s.45,1,1,1h28c.55,0,1-.45,1-1s-.45-1-1-1Zm-18.67-10.62c.29-.46,1.06-.46,1.35,0l6.54,10.62H4.79l6.54-10.62Z"/>
  </g>
  <path class="cls-1" d="m10,10h9v2.23c-.57.24-1.06.67-1.33,1.25l-1.44,3.05,6.44,10.47h6.02l-6.36-13.52c-.27-.58-.76-1-1.33-1.25V2c0-.55-.45-1-1-1h-10c-.55,0-1,.45-1,1v7c0,.55.45,1,1,1Zm3-5c0-.55.45-1,1-1s1,.45,1,1v1c0,.55-.45,1-1,1s-1-.45-1-1v-1Z"/>
</svg>