<?xml version="1.0" encoding="UTF-8"?>
<svg id="OBJECT" xmlns="http://www.w3.org/2000/svg" viewBox="0 0 32 32">
  <defs>
    <style>
      .cls-1 {
        fill: #FD4360;
      }

      .cls-1, .cls-2 {
        stroke-width: 0px;
      }

      .cls-2 {
        fill: #dadada;
      }
    </style>
  </defs>
  <g>
    <path class="cls-2" d="m11.25,26h-.5c-.55,0-1,.45-1,1s.45,1,1,1h.5c.55,0,1-.45,1-1s-.45-1-1-1Z"/>
    <path class="cls-2" d="m15.25,26h-.5c-.55,0-1,.45-1,1s.45,1,1,1h.5c.55,0,1-.45,1-1s-.45-1-1-1Z"/>
    <path class="cls-2" d="m30,29h-1.03l-11.97-14.36v-4.64h-2v4.64L3.03,29h-1.03c-.55,0-1,.45-1,1s.45,1,1,1h28c.55,0,1-.45,1-1s-.45-1-1-1Zm-10.84-8.65l-1.41,2.16-1.44-2.08c-.31-.45-.93-.57-1.39-.25l-.97.67-.56-1.14,2.62-3.14,3.16,3.79Zm-7.18,1.04l.67,1.38c.13.26.36.45.64.53.28.07.58.02.82-.14l1.11-.76,1.72,2.48c.19.27.49.43.82.43h.01c.33,0,.64-.17.82-.45l1.89-2.89,5.87,7.04H5.64l6.34-7.61Z"/>
  </g>
  <g>
    <path class="cls-1" d="m30,6h-4v9h4c.55,0,1-.45,1-1v-7c0-.55-.45-1-1-1Z"/>
    <path class="cls-1" d="m23,10h-4v3c0,1.1.9,2,2,2h3v-4c0-.55-.45-1-1-1Z"/>
    <path class="cls-1" d="m22,1h-7v7h8c.35,0,.69.07,1,.18V3c0-1.1-.9-2-2-2Z"/>
  </g>
</svg>