<?xml version="1.0" encoding="UTF-8"?>
<svg id="OBJECT" xmlns="http://www.w3.org/2000/svg" viewBox="0 0 32 32">
  <defs>
    <style>
      .cls-1 {
        fill: #FD4360;
      }

      .cls-1, .cls-2 {
        stroke-width: 0px;
      }

      .cls-2 {
        fill: #dadada;
      }
    </style>
  </defs>
  <path class="cls-1" d="m9.5,3.4c0-1.33-1.08-2.4-2.4-2.4h-.69c-1.33,0-2.4,1.08-2.4,2.4v1.6h5.5v-1.6Z"/>
  <path class="cls-1" d="m28,3.4c0-1.33-1.08-2.4-2.4-2.4h-.69c-1.33,0-2.4,1.08-2.4,2.4v1.6h5.5v-1.6Z"/>
  <g>
    <path class="cls-2" d="m31,15v-5c0-1.65-1.35-3-3-3H4c-1.65,0-3,1.35-3,3v5c0,1.65,1.35,3,3,3v7.5h-1.25c-.55,0-1,.45-1,1v3.5c0,.55.45,1,1,1h8c.55,0,1-.45,1-1v-3.5c0-.55-.45-1-1-1h-1.25v-7.5h13v7.5h-1.25c-.55,0-1,.45-1,1v3.5c0,.55.45,1,1,1h8c.55,0,1-.45,1-1v-3.5c0-.55-.45-1-1-1h-1.25v-7.5c1.65,0,3-1.35,3-3Zm-28,0v-5c0-.55.45-1,1-1h24c.55,0,1,.45,1,1v5c0,.55-.45,1-1,1H4c-.55,0-1-.45-1-1Zm6.75,14H3.75v-1.5h6v1.5Zm-2.25-3.5h-1.5v-7.5h1.5v7.5Zm20.75,3.5h-6v-1.5h6v1.5Zm-2.25-3.5h-1.5v-7.5h1.5v7.5Z"/>
    <path class="cls-2" d="m6,13.5h1.5c.55,0,1-.45,1-1s-.45-1-1-1h-1.5c-.55,0-1,.45-1,1s.45,1,1,1Z"/>
    <path class="cls-2" d="m24.5,13.5h1.5c.55,0,1-.45,1-1s-.45-1-1-1h-1.5c-.55,0-1,.45-1,1s.45,1,1,1Z"/>
  </g>
</svg>