<?xml version="1.0" encoding="UTF-8"?>
<svg id="OBJECT" xmlns="http://www.w3.org/2000/svg" viewBox="0 0 512 512">
  <defs>
    <style>
      .cls-1 {
        fill: #FD4360;
      }

      .cls-2 {
        fill: #dadada;
      }
    </style>
  </defs>
  <g>
    <path class="cls-2" d="M504.5,467h-51v-178.5h12.5c4.14,0,7.5-3.36,7.5-7.5v-25c0-12.41-10.09-22.5-22.5-22.5h-187.5V22.5c0-12.41-10.09-22.5-22.5-22.5H61c-12.41,0-22.5,10.09-22.5,22.5V467H7.5c-4.14,0-7.5,3.36-7.5,7.5v15c0,12.41,10.09,22.5,22.5,22.5H489.5c12.41,0,22.5-10.09,22.5-22.5v-15c0-4.14-3.36-7.5-7.5-7.5Zm-66,0h-175v-178.5h175v178.5Zm12.5-218.5c4.14,0,7.5,3.36,7.5,7.5v17.5h-195v-25h187.5ZM53.5,22.5c0-4.14,3.36-7.5,7.5-7.5H241c4.14,0,7.5,3.36,7.5,7.5V467h-40v-117.5c0-12.41-10.09-22.5-22.5-22.5H116c-12.41,0-22.5,10.09-22.5,22.5v117.5H53.5V22.5ZM193.5,467H108.5v-117.5c0-4.14,3.36-7.5,7.5-7.5h70c4.14,0,7.5,3.36,7.5,7.5v117.5Zm303.5,22.5c0,4.14-3.36,7.5-7.5,7.5H22.5c-4.14,0-7.5-3.36-7.5-7.5v-7.5H497v7.5Z"/>
    <path class="cls-2" d="M171,399.5c-4.14,0-7.5,3.36-7.5,7.5v15c0,4.14,3.36,7.5,7.5,7.5s7.5-3.36,7.5-7.5v-15c0-4.14-3.36-7.5-7.5-7.5Z"/>
    <path class="cls-2" d="M371,427h-40c-4.14,0-7.5,3.36-7.5,7.5s3.36,7.5,7.5,7.5h40c4.14,0,7.5-3.36,7.5-7.5s-3.36-7.5-7.5-7.5Z"/>
    <path class="cls-2" d="M306,427h-5c-4.14,0-7.5,3.36-7.5,7.5s3.36,7.5,7.5,7.5h5c4.14,0,7.5-3.36,7.5-7.5s-3.36-7.5-7.5-7.5Z"/>
    <path class="cls-2" d="M401,427h-5c-4.14,0-7.5,3.36-7.5,7.5s3.36,7.5,7.5,7.5h5c4.14,0,7.5-3.36,7.5-7.5s-3.36-7.5-7.5-7.5Z"/>
    <path class="cls-2" d="M489.5,40h-47.5V22.5c0-12.41-10.09-22.5-22.5-22.5h-50c-12.41,0-22.5,10.09-22.5,22.5v17.5h-47.5c-12.41,0-22.5,10.09-22.5,22.5v47c0,2.88,1.65,5.5,4.24,6.75l5.76,2.79v73.46c0,12.41,10.09,22.5,22.5,22.5h170c12.41,0,22.5-10.09,22.5-22.5V119.04l5.76-2.79c2.59-1.25,4.24-3.88,4.24-6.75V62.5c0-12.41-10.09-22.5-22.5-22.5Zm-127.5-17.5c0-4.14,3.36-7.5,7.5-7.5h50c4.14,0,7.5,3.36,7.5,7.5v17.5h-65V22.5Zm-70,40c0-4.14,3.36-7.5,7.5-7.5h190c4.14,0,7.5,3.36,7.5,7.5v42.29l-50.6,24.46c-1.01,.49-2.14,.75-3.26,.75h-97.28c-1.12,0-2.25-.26-3.26-.75l-50.6-24.46V62.5Zm90,82.5h25v17.5c0,4.14-3.36,7.5-7.5,7.5h-10c-4.14,0-7.5-3.36-7.5-7.5v-17.5Zm105,47.5c0,4.14-3.36,7.5-7.5,7.5h-170c-4.14,0-7.5-3.36-7.5-7.5V126.29l34.07,16.47c3.03,1.47,6.42,2.24,9.79,2.24h21.14v17.5c0,12.41,10.09,22.5,22.5,22.5h10c12.41,0,22.5-10.09,22.5-22.5v-17.5h21.14c3.37,0,6.76-.78,9.79-2.24l34.07-16.47v66.21Z"/>
    <path class="cls-2" d="M349.5,95h90c4.14,0,7.5-3.36,7.5-7.5s-3.36-7.5-7.5-7.5h-90c-4.14,0-7.5,3.36-7.5,7.5s3.36,7.5,7.5,7.5Z"/>
    <path class="cls-2" d="M324.5,80h-10c-4.14,0-7.5,3.36-7.5,7.5s3.36,7.5,7.5,7.5h10c4.14,0,7.5-3.36,7.5-7.5s-3.36-7.5-7.5-7.5Z"/>
    <path class="cls-2" d="M464.5,95h10c4.14,0,7.5-3.36,7.5-7.5s-3.36-7.5-7.5-7.5h-10c-4.14,0-7.5,3.36-7.5,7.5s3.36,7.5,7.5,7.5Z"/>
  </g>
  <g>
    <rect class="cls-1" x="278.5" y="303.5" width="145" height="98.5" rx="15" ry="15"/>
    <rect class="cls-1" x="73.5" y="40" width="65" height="65" rx="15" ry="15"/>
    <rect class="cls-1" x="163.5" y="40" width="65" height="65" rx="15" ry="15"/>
    <rect class="cls-1" x="73.5" y="130" width="65" height="65" rx="15" ry="15"/>
    <rect class="cls-1" x="163.5" y="130" width="65" height="65" rx="15" ry="15"/>
    <rect class="cls-1" x="73.5" y="220" width="65" height="65" rx="15" ry="15"/>
    <rect class="cls-1" x="163.5" y="220" width="65" height="65" rx="15" ry="15"/>
  </g>
</svg>