<?xml version="1.0" encoding="UTF-8"?>
<svg id="OBJECT" xmlns="http://www.w3.org/2000/svg" viewBox="0 0 32 32">
  <defs>
    <style>
      .cls-1 {
        fill: #FD4360;
      }

      .cls-1, .cls-2 {
        stroke-width: 0px;
      }

      .cls-2 {
        fill: #dadada;
      }
    </style>
  </defs>
  <g>
    <path class="cls-2" d="m24,13h1c.55,0,1-.45,1-1s-.45-1-1-1h-1c-.55,0-1,.45-1,1s.45,1,1,1Z"/>
    <path class="cls-2" d="m24,17h1c.55,0,1-.45,1-1s-.45-1-1-1h-1c-.55,0-1,.45-1,1s.45,1,1,1Z"/>
    <path class="cls-2" d="m24,21h1c.55,0,1-.45,1-1s-.45-1-1-1h-1c-.55,0-1,.45-1,1s.45,1,1,1Z"/>
    <path class="cls-2" d="m25,23h-1c-.55,0-1,.45-1,1s.45,1,1,1h1c.55,0,1-.45,1-1s-.45-1-1-1Z"/>
    <path class="cls-2" d="m30,29h-1V9c0-.55-.45-1-1-1h-6V2c0-.55-.45-1-1-1H4c-.55,0-1,.45-1,1v27h-1c-.55,0-1,.45-1,1s.45,1,1,1h28c.55,0,1-.45,1-1s-.45-1-1-1Zm-3-19v19h-5V10h5ZM5,3h15v26h-2.5v-7c.55,0,1-.45,1-1s-.45-1-1-1H7.5c-.55,0-1,.45-1,1s.45,1,1,1v7h-2.5V3Zm6.5,19v7h-2v-7h2Zm2,0h2v7h-2v-7Z"/>
  </g>
  <g>
    <rect class="cls-1" x="6.5" y="4.5" width="5.5" height="6" rx="2" ry="2"/>
    <rect class="cls-1" x="13" y="4.5" width="5.5" height="6" rx="2" ry="2"/>
    <rect class="cls-1" x="6.5" y="11.5" width="5.5" height="6" rx="2" ry="2"/>
    <rect class="cls-1" x="13" y="11.5" width="5.5" height="6" rx="2" ry="2"/>
  </g>
</svg>