<?xml version="1.0" encoding="UTF-8"?>
<svg id="OBJECT" xmlns="http://www.w3.org/2000/svg" viewBox="0 0 32 32">
  <defs>
    <style>
      .cls-1 {
        fill: #FD4360;
      }

      .cls-2 {
        fill: #dadada;
      }
    </style>
  </defs>
  <g>
    <path class="cls-2" d="M28.5,12.5h-2c-1.38,0-2.5,1.12-2.5,2.5v2c0,1.38,1.12,2.5,2.5,2.5h2c1.38,0,2.5-1.12,2.5-2.5v-2c0-1.38-1.12-2.5-2.5-2.5Zm.5,4.5c0,.28-.22,.5-.5,.5h-2c-.28,0-.5-.22-.5-.5v-2c0-.28,.22-.5,.5-.5h2c.28,0,.5,.22,.5,.5v2Z"/>
    <path class="cls-2" d="M28.5,1h-2c-1.38,0-2.5,1.12-2.5,2.5v2c0,1.38,1.12,2.5,2.5,2.5h2c1.38,0,2.5-1.12,2.5-2.5V3.5c0-1.38-1.12-2.5-2.5-2.5Zm.5,4.5c0,.28-.22,.5-.5,.5h-2c-.28,0-.5-.22-.5-.5V3.5c0-.28,.22-.5,.5-.5h2c.28,0,.5,.22,.5,.5v2Z"/>
    <path class="cls-2" d="M28.5,24h-2c-1.38,0-2.5,1.12-2.5,2.5v2c0,1.38,1.12,2.5,2.5,2.5h2c1.38,0,2.5-1.12,2.5-2.5v-2c0-1.38-1.12-2.5-2.5-2.5Zm.5,4.5c0,.28-.22,.5-.5,.5h-2c-.28,0-.5-.22-.5-.5v-2c0-.28,.22-.5,.5-.5h2c.28,0,.5,.22,.5,.5v2Z"/>
    <path class="cls-2" d="M20.5,5.5h1.5c.55,0,1-.45,1-1s-.45-1-1-1h-1.5c-1.38,0-2.5,1.12-2.5,2.5V15h-3c-.55,0-1,.45-1,1s.45,1,1,1h3v9c0,1.38,1.12,2.5,2.5,2.5h1.5c.55,0,1-.45,1-1s-.45-1-1-1h-1.5c-.28,0-.5-.22-.5-.5v-9h2c.55,0,1-.45,1-1s-.45-1-1-1h-2V6c0-.28,.22-.5,.5-.5Z"/>
  </g>
  <g>
    <path class="cls-1" d="M11.46,15.01c-.82,1.65-2.5,2.79-4.46,2.79s-3.65-1.15-4.46-2.79c-.95,1.06-1.54,2.46-1.54,3.99v1c0,1.65,1.35,3,3,3h6c1.65,0,3-1.35,3-3v-1c0-1.53-.58-2.93-1.54-3.99Z"/>
    <path class="cls-1" d="M7,15.8c1.65,0,3-1.35,3-3v-1.2c0-1.43-1.17-2.6-2.6-2.6h-.8c-1.43,0-2.6,1.17-2.6,2.6v1.2c0,1.65,1.35,3,3,3Z"/>
  </g>
</svg>