<?xml version="1.0" encoding="UTF-8"?>
<svg id="OBJECT" xmlns="http://www.w3.org/2000/svg" viewBox="0 0 32 32">
  <defs>
    <style>
      .cls-1 {
        fill: #FD4360;
      }

      .cls-1, .cls-2 {
        stroke-width: 0px;
      }

      .cls-2 {
        fill: #dadada;
      }
    </style>
  </defs>
  <path class="cls-2" d="m19,21.75c.55,0,1-.45,1-1v-.5c0-.55-.45-1-1-1s-1,.45-1,1v.5c0,.55.45,1,1,1Z"/>
  <path class="cls-2" d="m22,21.75c.55,0,1-.45,1-1v-.5c0-.55-.45-1-1-1s-1,.45-1,1v.5c0,.55.45,1,1,1Z"/>
  <path class="cls-2" d="m25,21.75c.55,0,1-.45,1-1v-.5c0-.55-.45-1-1-1s-1,.45-1,1v.5c0,.55.45,1,1,1Z"/>
  <path class="cls-2" d="m19,25.75c.55,0,1-.45,1-1v-.5c0-.55-.45-1-1-1s-1,.45-1,1v.5c0,.55.45,1,1,1Z"/>
  <path class="cls-2" d="m22,25.75c.55,0,1-.45,1-1v-.5c0-.55-.45-1-1-1s-1,.45-1,1v.5c0,.55.45,1,1,1Z"/>
  <path class="cls-2" d="m25,25.75c.55,0,1-.45,1-1v-.5c0-.55-.45-1-1-1s-1,.45-1,1v.5c0,.55.45,1,1,1Z"/>
  <path class="cls-2" d="m30,29h-1v-12c0-.55-.45-1-1-1h-11V2c0-.55-.45-1-1-1H4c-.55,0-1,.45-1,1v27h-1c-.55,0-1,.45-1,1s.45,1,1,1h28c.55,0,1-.45,1-1s-.45-1-1-1Zm-3-11v11h-10v-11h10Zm-12-9H5v-2h10v2Zm0,2v2H5v-2h10Zm0,4v2H5v-2h10Zm0-12v2H5v-2h10ZM5,19h10v10h-1.5v-5.5c0-1.38-1.12-2.5-2.5-2.5h-2c-1.38,0-2.5,1.12-2.5,2.5v5.5h-1.5v-10Zm6.5,10h-3v-5.5c0-.28.22-.5.5-.5h2c.28,0,.5.22.5.5v5.5Z"/>
  <g>
    <path class="cls-1" d="m27.68,4.31c-.1-.1-2.49-2.41-5.6-2.3-.37.01-.72.17-.98.43l-.82.82c-.07.07-.13.16-.18.26-.06.14-.55,1.42,1.17,2.93.14.13.32.23.5.29l.3.1c.62.22,1.3,0,1.68-.52l.13-.17c.77.54,1.44,1.21,1.97,1.98l-.17.12c-.53.38-.74,1.07-.53,1.69l.1.3c.06.18.16.35.29.49.93,1.06,1.78,1.28,2.32,1.28.34,0,.56-.09.61-.11.1-.04.18-.1.26-.17l.82-.82c.27-.27.42-.62.43-.98.11-3.1-2.21-5.49-2.31-5.61Z"/>
    <path class="cls-1" d="m23.57,10.09c-.48.03-.92-.12-1.23-.43-.31-.31-.46-.75-.43-1.23.03-.55-.39-1.03-.94-1.06-.55-.03-1.03.39-1.06.94-.06,1.06.3,2.05,1.02,2.77.66.67,1.55,1.02,2.52,1.02.08,0,.16,0,.24,0,.55-.03.97-.51.94-1.06-.03-.55-.5-.96-1.06-.94Z"/>
  </g>
</svg>