<?xml version="1.0" encoding="UTF-8"?>
<svg id="OBJECT" xmlns="http://www.w3.org/2000/svg" viewBox="0 0 32 32">
  <defs>
    <style>
      .cls-1 {
        fill: #FD4360;
      }

      .cls-1, .cls-2 {
        stroke-width: 0px;
      }

      .cls-2 {
        fill: #dadada;
      }
    </style>
  </defs>
  <path class="cls-2" d="m28.5,9h-2c-1.38,0-2.5,1.12-2.5,2.5v5.5H8v-5.5c0-1.38-1.12-2.5-2.5-2.5h-2c-1.38,0-2.5,1.12-2.5,2.5v1c0,1.38,1.12,2.5,2.5,2.5h2.5v6c0,1.65,1.35,3,3,3h4.25v3h-1.75c-.38,0-.72.21-.89.55l-.72,1.45h-1.38c-.55,0-1,.45-1,1s.45,1,1,1h2c.38,0,.72-.21.89-.55l.72-1.45h7.76l.72,1.45c.17.34.52.55.89.55h2c.55,0,1-.45,1-1s-.45-1-1-1h-1.38l-.72-1.45c-.17-.34-.52-.55-.89-.55h-1.75v-3h4.25c1.65,0,3-1.35,3-3v-6h2.5c1.38,0,2.5-1.12,2.5-2.5v-1c0-1.38-1.12-2.5-2.5-2.5ZM3,12.5v-1c0-.28.22-.5.5-.5h2c.28,0,.5.22.5.5v1.5h-2.5c-.28,0-.5-.22-.5-.5Zm13.75,14.5h-1.5v-3h1.5v3Zm7.25-6c0,.55-.45,1-1,1h-14c-.55,0-1-.45-1-1v-2h16v2Zm5-8.5c0,.28-.22.5-.5.5h-2.5v-1.5c0-.28.22-.5.5-.5h2c.28,0,.5.22.5.5v1Z"/>
  <path class="cls-1" d="m12,14h.5v1h2v-1h3v1h2v-1h.5c1.1,0,2-.9,2-2V3c0-1.1-.9-2-2-2h-8c-1.1,0-2,.9-2,2v9c0,1.1.9,2,2,2Zm1.5-9.5h5c.55,0,1,.45,1,1s-.45,1-1,1h-5c-.55,0-1-.45-1-1s.45-1,1-1Zm0,4h5c.55,0,1,.45,1,1s-.45,1-1,1h-5c-.55,0-1-.45-1-1s.45-1,1-1Z"/>
</svg>