<?xml version="1.0" encoding="UTF-8"?>
<svg id="OBJECT" xmlns="http://www.w3.org/2000/svg" viewBox="0 0 32 32">
  <defs>
    <style>
      .cls-1 {
        fill: #FD4360;
      }

      .cls-1, .cls-2 {
        stroke-width: 0px;
      }

      .cls-2 {
        fill: #dadada;
      }
    </style>
  </defs>
  <g>
    <path class="cls-2" d="m13,8c.55,0,1-.45,1-1v-1c0-.55-.45-1-1-1s-1,.45-1,1v1c0,.55.45,1,1,1Z"/>
    <path class="cls-2" d="m17,8c.55,0,1-.45,1-1v-1c0-.55-.45-1-1-1s-1,.45-1,1v1c0,.55.45,1,1,1Z"/>
    <path class="cls-2" d="m13,12c.55,0,1-.45,1-1v-1c0-.55-.45-1-1-1s-1,.45-1,1v1c0,.55.45,1,1,1Z"/>
    <path class="cls-2" d="m17,12c.55,0,1-.45,1-1v-1c0-.55-.45-1-1-1s-1,.45-1,1v1c0,.55.45,1,1,1Z"/>
    <path class="cls-2" d="m13,17c.55,0,1-.45,1-1v-1c0-.55-.45-1-1-1s-1,.45-1,1v1c0,.55.45,1,1,1Z"/>
    <path class="cls-2" d="m17,17c.55,0,1-.45,1-1v-1c0-.55-.45-1-1-1s-1,.45-1,1v1c0,.55.45,1,1,1Z"/>
    <path class="cls-2" d="m30,29h-8V2c0-.55-.45-1-1-1h-12c-.13,0-.25.02-.37.07L3.63,3.07c-.38.15-.63.52-.63.93v25h-1c-.55,0-1,.45-1,1s.45,1,1,1h28c.55,0,1-.45,1-1s-.45-1-1-1Zm-10,0h-1.5v-7.5c0-1.38-1.12-2.5-2.5-2.5h-2c-1.38,0-2.5,1.12-2.5,2.5v7.5h-1.5V3h10v26Zm-3.5,0h-3v-7.5c0-.28.22-.5.5-.5h2c.28,0,.5.22.5.5v7.5ZM5,4.68l3-1.2v25.52h-3V4.68Z"/>
  </g>
  <g>
    <path class="cls-1" d="m30,29H2c-.55,0-1,.45-1,1s.45,1,1,1h28c.55,0,1-.45,1-1s-.45-1-1-1Z"/>
    <path class="cls-1" d="m29,8c0-1.1-.9-2-2-2h-3v21.3h5V8Zm-2,16h-1c-.55,0-1-.45-1-1s.45-1,1-1h1c.55,0,1,.45,1,1s-.45,1-1,1Zm0-4h-1c-.55,0-1-.45-1-1s.45-1,1-1h1c.55,0,1,.45,1,1s-.45,1-1,1Zm0-4h-1c-.55,0-1-.45-1-1s.45-1,1-1h1c.55,0,1,.45,1,1s-.45,1-1,1Zm0-4h-1c-.55,0-1-.45-1-1s.45-1,1-1h1c.55,0,1,.45,1,1s-.45,1-1,1Z"/>
  </g>
</svg>