<?xml version="1.0" encoding="UTF-8"?>
<svg id="OBJECT" xmlns="http://www.w3.org/2000/svg" viewBox="0 0 512 512">
  <defs>
    <style>
      .cls-1 {
        fill: #FD4360;
      }

      .cls-2 {
        fill: #dadada;
      }
    </style>
  </defs>
  <g>
    <path class="cls-2" d="M157.5,177.11h35c9.65,0,17.5-7.85,17.5-17.5v-25c0-9.65-7.85-17.5-17.5-17.5h-35c-9.65,0-17.5,7.85-17.5,17.5v25c0,9.65,7.85,17.5,17.5,17.5Zm-2.5-42.5c0-1.38,1.12-2.5,2.5-2.5h35c1.38,0,2.5,1.12,2.5,2.5v25c0,1.38-1.12,2.5-2.5,2.5h-35c-1.38,0-2.5-1.12-2.5-2.5v-25Z"/>
    <path class="cls-2" d="M252.5,177.11h35c9.65,0,17.5-7.85,17.5-17.5v-25c0-9.65-7.85-17.5-17.5-17.5h-35c-9.65,0-17.5,7.85-17.5,17.5v25c0,9.65,7.85,17.5,17.5,17.5Zm-2.5-42.5c0-1.38,1.12-2.5,2.5-2.5h35c1.38,0,2.5,1.12,2.5,2.5v25c0,1.38-1.12,2.5-2.5,2.5h-35c-1.38,0-2.5-1.12-2.5-2.5v-25Z"/>
    <path class="cls-2" d="M157.5,254.22h35c9.65,0,17.5-7.85,17.5-17.5v-25c0-9.65-7.85-17.5-17.5-17.5h-35c-9.65,0-17.5,7.85-17.5,17.5v25c0,9.65,7.85,17.5,17.5,17.5Zm-2.5-42.5c0-1.38,1.12-2.5,2.5-2.5h35c1.38,0,2.5,1.12,2.5,2.5v25c0,1.38-1.12,2.5-2.5,2.5h-35c-1.38,0-2.5-1.12-2.5-2.5v-25Z"/>
    <path class="cls-2" d="M252.5,254.22h35c9.65,0,17.5-7.85,17.5-17.5v-25c0-9.65-7.85-17.5-17.5-17.5h-35c-9.65,0-17.5,7.85-17.5,17.5v25c0,9.65,7.85,17.5,17.5,17.5Zm-2.5-42.5c0-1.38,1.12-2.5,2.5-2.5h35c1.38,0,2.5,1.12,2.5,2.5v25c0,1.38-1.12,2.5-2.5,2.5h-35c-1.38,0-2.5-1.12-2.5-2.5v-25Z"/>
    <path class="cls-2" d="M157.5,331.33h35c9.65,0,17.5-7.85,17.5-17.5v-25c0-9.65-7.85-17.5-17.5-17.5h-35c-9.65,0-17.5,7.85-17.5,17.5v25c0,9.65,7.85,17.5,17.5,17.5Zm-2.5-42.5c0-1.38,1.12-2.5,2.5-2.5h35c1.38,0,2.5,1.12,2.5,2.5v25c0,1.38-1.12,2.5-2.5,2.5h-35c-1.38,0-2.5-1.12-2.5-2.5v-25Z"/>
    <path class="cls-2" d="M252.5,331.33h35c9.65,0,17.5-7.85,17.5-17.5v-25c0-9.65-7.85-17.5-17.5-17.5h-35c-9.65,0-17.5,7.85-17.5,17.5v25c0,9.65,7.85,17.5,17.5,17.5Zm-2.5-42.5c0-1.38,1.12-2.5,2.5-2.5h35c1.38,0,2.5,1.12,2.5,2.5v25c0,1.38-1.12,2.5-2.5,2.5h-35c-1.38,0-2.5-1.12-2.5-2.5v-25Z"/>
    <path class="cls-2" d="M157.5,100h35c9.65,0,17.5-7.85,17.5-17.5v-25c0-9.65-7.85-17.5-17.5-17.5h-35c-9.65,0-17.5,7.85-17.5,17.5v25c0,9.65,7.85,17.5,17.5,17.5Zm-2.5-42.5c0-1.38,1.12-2.5,2.5-2.5h35c1.38,0,2.5,1.12,2.5,2.5v25c0,1.38-1.12,2.5-2.5,2.5h-35c-1.38,0-2.5-1.12-2.5-2.5v-25Z"/>
    <path class="cls-2" d="M252.5,100h35c9.65,0,17.5-7.85,17.5-17.5v-25c0-9.65-7.85-17.5-17.5-17.5h-35c-9.65,0-17.5,7.85-17.5,17.5v25c0,9.65,7.85,17.5,17.5,17.5Zm-2.5-42.5c0-1.38,1.12-2.5,2.5-2.5h35c1.38,0,2.5,1.12,2.5,2.5v25c0,1.38-1.12,2.5-2.5,2.5h-35c-1.38,0-2.5-1.12-2.5-2.5v-25Z"/>
    <path class="cls-2" d="M504.5,457h-159.5V7.5c0-4.14-3.36-7.5-7.5-7.5H107.5c-1.62,0-3.2,.53-4.5,1.5L23,61.5c-1.89,1.42-3,3.64-3,6V457H7.5c-4.14,0-7.5,3.36-7.5,7.5v40c0,4.14,3.36,7.5,7.5,7.5H504.5c4.14,0,7.5-3.36,7.5-7.5v-40c0-4.14-3.36-7.5-7.5-7.5Zm-174.5,0h-40v-95h2.5c4.14,0,7.5-3.36,7.5-7.5s-3.36-7.5-7.5-7.5H152.5c-4.14,0-7.5,3.36-7.5,7.5s3.36,7.5,7.5,7.5h2.5v95h-40V15h215V457Zm-115-95v95h-45v-95h45Zm15,0h45v95h-45v-95ZM100,22.5v31.25L35,102.5v-31.25L100,22.5ZM35,121.25l65-48.75V457H35V121.25ZM497,497H15v-25H497v25Z"/>
  </g>
  <g>
    <rect class="cls-1" x="393.5" y="209.5" width="65" height="25" rx="2.5" ry="2.5"/>
    <rect class="cls-1" x="393.5" y="369.5" width="65" height="25" rx="2.5" ry="2.5"/>
    <rect class="cls-1" x="393.5" y="289.5" width="65" height="25" rx="2.5" ry="2.5"/>
    <rect class="cls-1" x="393.5" y="129.5" width="65" height="25" rx="2.5" ry="2.5"/>
    <path class="cls-1" d="M360,82V442h132V82h-132Zm113.5,310c0,9.65-7.85,17.5-17.5,17.5h-60c-9.65,0-17.5-7.85-17.5-17.5v-20c0-9.65,7.85-17.5,17.5-17.5h60c9.65,0,17.5,7.85,17.5,17.5v20Zm0-80c0,9.65-7.85,17.5-17.5,17.5h-60c-9.65,0-17.5-7.85-17.5-17.5v-20c0-9.65,7.85-17.5,17.5-17.5h60c9.65,0,17.5,7.85,17.5,17.5v20Zm0-80c0,9.65-7.85,17.5-17.5,17.5h-60c-9.65,0-17.5-7.85-17.5-17.5v-20c0-9.65,7.85-17.5,17.5-17.5h60c9.65,0,17.5,7.85,17.5,17.5v20Zm0-80c0,9.65-7.85,17.5-17.5,17.5h-60c-9.65,0-17.5-7.85-17.5-17.5v-20c0-9.65,7.85-17.5,17.5-17.5h60c9.65,0,17.5,7.85,17.5,17.5v20Z"/>
  </g>
</svg>