<?xml version="1.0" encoding="UTF-8"?>
<svg id="OBJECT" xmlns="http://www.w3.org/2000/svg" viewBox="0 0 32 32">
  <defs>
    <style>
      .cls-1 {
        fill: #FD4360;
      }

      .cls-2 {
        fill: #dadada;
      }
    </style>
  </defs>
  <path class="cls-2" d="M30,29h-10V2c0-.31-.15-.61-.4-.8-.25-.19-.58-.25-.88-.16L4.73,5.04c-.43,.12-.73,.52-.73,.96V29H2c-.55,0-1,.45-1,1s.45,1,1,1H30c.55,0,1-.45,1-1s-.45-1-1-1ZM14,12H6v-2h7.5c.28,0,.5,.22,.5,.5v1.5Zm0,2v1.5c0,.28-.22,.5-.5,.5H6v-2H14Zm-8,4h7.5c1.38,0,2.5-1.12,2.5-2.5v-5c0-1.38-1.12-2.5-2.5-2.5H6v-1.25l12-3.43V29h-2v-6.5c0-1.38-1.12-2.5-2.5-2.5h-3c-1.38,0-2.5,1.12-2.5,2.5v6.5h-2v-11Zm8,11h-4v-6.5c0-.28,.22-.5,.5-.5h3c.28,0,.5,.22,.5,.5v6.5Z"/>
  <path class="cls-1" d="M28,8c0-.55-.45-1-1-1h-5V27h6V8Zm-2.5,17.5h-1c-.55,0-1-.45-1-1s.45-1,1-1h1c.55,0,1,.45,1,1s-.45,1-1,1Zm0-3.75h-1c-.55,0-1-.45-1-1s.45-1,1-1h1c.55,0,1,.45,1,1s-.45,1-1,1Zm0-3.75h-1c-.55,0-1-.45-1-1s.45-1,1-1h1c.55,0,1,.45,1,1s-.45,1-1,1Zm0-3.75h-1c-.55,0-1-.45-1-1s.45-1,1-1h1c.55,0,1,.45,1,1s-.45,1-1,1Zm0-3.75h-1c-.55,0-1-.45-1-1s.45-1,1-1h1c.55,0,1,.45,1,1s-.45,1-1,1Z"/>
</svg>