<?xml version="1.0" encoding="UTF-8"?>
<svg id="OBJECT" xmlns="http://www.w3.org/2000/svg" viewBox="0 0 32 32">
  <defs>
    <style>
      .cls-1 {
        fill: #FD4360;
      }

      .cls-1, .cls-2 {
        stroke-width: 0px;
      }

      .cls-2 {
        fill: #dadada;
      }
    </style>
  </defs>
  <g>
    <path class="cls-2" d="m30.78,18.38c-.21-.26-.54-.4-.85-.37-8.86.65-12.97-4.41-13.14-4.62-.38-.48-1.19-.48-1.57,0-.04.05-4.21,5.27-13.14,4.62-.32-.02-.65.12-.85.37-.21.26-.27.6-.18.92.08.25,1.66,5.14,8.85,7l-.68,2.71h-2.22c-.55,0-1,.45-1,1s.45,1,1,1h18c.55,0,1-.45,1-1s-.45-1-1-1h-2.22l-.68-2.71c7.19-1.86,8.78-6.74,8.85-7,.1-.31.03-.66-.18-.92Zm-10.06,10.62h-9.44l.58-2.31c1.24.2,2.61.31,4.14.31s2.9-.11,4.14-.31l.58,2.31Zm-4.72-4c-7.8,0-11.07-3.09-12.33-4.94,6.72-.02,10.74-3.07,12.33-4.6,1.59,1.53,5.61,4.58,12.33,4.6-1.26,1.85-4.54,4.94-12.33,4.94Z"/>
    <path class="cls-2" d="m13.13,21.32c-.55-.07-1.05.31-1.12.86s.31,1.05.86,1.12c1,.13,2.03.2,3.13.2s2.13-.06,3.13-.2c.55-.07.93-.58.86-1.12s-.57-.93-1.12-.86c-1.83.24-3.91.24-5.74,0Z"/>
  </g>
  <path class="cls-1" d="m15,10.31v.87c.32-.11.65-.18,1-.18s.68.07,1,.18v-.87c1.44-.43,2.5-1.76,2.5-3.34s-2.05-4.66-2.68-5.57c-.38-.54-1.27-.54-1.65,0-.63.91-2.68,4-2.68,5.57s1.06,2.9,2.5,3.34Z"/>
</svg>