<?xml version="1.0" encoding="UTF-8"?>
<svg id="OBJECT" xmlns="http://www.w3.org/2000/svg" viewBox="0 0 32 32">
  <defs>
    <style>
      .cls-1 {
        fill: #FD4360;
      }

      .cls-1, .cls-2 {
        stroke-width: 0px;
      }

      .cls-2 {
        fill: #dadada;
      }
    </style>
  </defs>
  <path class="cls-1" d="m20.56,7h-3.35c-.55,0-1-.45-1-1s.45-1,1-1h11.57c.11-.31.18-.65.18-1,0-1.65-1.34-3-3-3h-11.52c-1.58,0-2.87,1.29-2.87,2.87v4.13h8.99v-1Z"/>
  <g>
    <path class="cls-2" d="m26,14v-1.47c0-1.39-1.13-2.53-2.53-2.53h-14.95c-1.39,0-2.53,1.13-2.53,2.53v1.47c-2.76,0-5,2.24-5,5v7c0,2.76,2.24,5,5,5h20c2.76,0,5-2.24,5-5v-7c0-2.76-2.24-5-5-5Zm-18-1.47c0-.29.24-.53.53-.53h14.95c.29,0,.53.24.53.53v1.47H8v-1.47Zm-2,3.47h20c1.65,0,3,1.35,3,3v1.5H3v-1.5c0-1.65,1.35-3,3-3Zm20,13H6c-1.48,0-2.71-1.08-2.95-2.5h14.41c.55,0,1-.45,1-1s-.45-1-1-1H3v-2h26v3.5c0,1.65-1.35,3-3,3Z"/>
    <path class="cls-2" d="m22.23,24.5h-1c-.55,0-1,.45-1,1s.45,1,1,1h1c.55,0,1-.45,1-1s-.45-1-1-1Z"/>
  </g>
</svg>