<?xml version="1.0" encoding="UTF-8"?>
<svg id="OBJECT" xmlns="http://www.w3.org/2000/svg" viewBox="0 0 32 32">
  <defs>
    <style>
      .cls-1 {
        fill: #FD4360;
      }

      .cls-1, .cls-2 {
        stroke-width: 0px;
      }

      .cls-2 {
        fill: #dadada;
      }
    </style>
  </defs>
  <path class="cls-1" d="m28.18,13.55h-6.36c-1.55,0-2.82,1.26-2.82,2.82v11.82c0,1.55,1.26,2.82,2.82,2.82h6.36c1.55,0,2.82-1.26,2.82-2.82v-11.82c0-1.55-1.26-2.82-2.82-2.82Zm-2.73,14.73h-.91c-.55,0-1-.45-1-1s.45-1,1-1h.91c.55,0,1,.45,1,1s-.45,1-1,1Z"/>
  <g>
    <path class="cls-2" d="m18.19,5.18c-.55,0-1,.45-1,1v3.71c0,.55-.45,1-1,1h-4.77c-.55,0-1-.45-1-1v-3.71c0-.55-.45-1-1-1s-1,.45-1,1v3.71c0,1.65,1.35,3,3,3h4.77c1.65,0,3-1.35,3-3v-3.71c0-.55-.45-1-1-1Z"/>
    <path class="cls-2" d="m23.95,3.64c-.18-1.51-1.46-2.64-2.98-2.64H6.52c-1.52,0-2.8,1.14-2.98,2.64L1.02,24.64c-.1.85.17,1.71.73,2.35.57.64,1.39,1.01,2.24,1.01h12c.55,0,1-.45,1-1s-.45-1-1-1H4c-.29,0-.56-.12-.75-.34-.19-.22-.28-.49-.24-.78l.17-1.38h12.83c.55,0,1-.45,1-1s-.45-1-1-1H3.41L5.53,3.88c.06-.5.49-.88.99-.88h14.45c.51,0,.93.38,1,.95l1.29,6.78c.1.54.62.9,1.17.79.54-.1.9-.63.79-1.17l-1.28-6.72Z"/>
  </g>
</svg>