<?xml version="1.0" encoding="UTF-8"?>
<svg id="OBJECT" xmlns="http://www.w3.org/2000/svg" viewBox="0 0 32 32">
  <defs>
    <style>
      .cls-1 {
        fill: #FD4360;
      }

      .cls-1, .cls-2 {
        stroke-width: 0px;
      }

      .cls-2 {
        fill: #dadada;
      }
    </style>
  </defs>
  <g>
    <path class="cls-2" d="m27,10c0-.55-.45-1-1-1H6c-.55,0-1,.45-1,1s.45,1,1,1h20c.55,0,1-.45,1-1Z"/>
    <path class="cls-2" d="m30,5h-5v-1c0-1.65-1.35-3-3-3h-12c-1.65,0-3,1.35-3,3v1H2c-.55,0-1,.45-1,1v7c0,.27.11.52.29.71l.71.71v9.59c0,1.65,1.35,3,3,3h1.84c.55,0,1-.45,1-1s-.45-1-1-1h-1.84c-.55,0-1-.45-1-1v-7.59l.7.7c.57.57,1.32.88,2.13.88h.51c.55,0,1-.45,1-1s-.45-1-1-1h-.51c-.27,0-.52-.11-.71-.3l-3.12-3.12v-5.59h26v5.59l-3.12,3.12c-.19.19-.44.3-.71.3h-.51c-.55,0-1,.45-1,1s.45,1,1,1h.51c.8,0,1.56-.31,2.13-.88l.7-.7v7.59c0,.55-.45,1-1,1h-1.84c-.55,0-1,.45-1,1s.45,1,1,1h1.84c1.65,0,3-1.35,3-3v-9.59l.71-.71c.19-.19.29-.44.29-.71v-7c0-.55-.45-1-1-1Zm-21-1c0-.55.45-1,1-1h12c.55,0,1,.45,1,1v1h-14v-1Z"/>
  </g>
  <path class="cls-1" d="m16,15c-4.41,0-8,3.59-8,8s3.59,8,8,8,8-3.59,8-8-3.59-8-8-8Zm.22,12.6h-.44c-.55,0-1-.45-1-1s.45-1,1-1h.44c.55,0,1,.45,1,1s-.45,1-1,1Zm2.48-2.83c-.19.19-.45.29-.7.29s-.52-.1-.71-.3c-.69-.7-1.88-.7-2.57,0-.39.4-1.02.4-1.41.02-.4-.39-.4-1.02-.02-1.41,1.45-1.48,3.98-1.48,5.43,0,.39.39.38,1.03-.02,1.41Zm2-2.96c-.19.19-.45.29-.7.29s-.52-.1-.71-.3c-.88-.9-2.05-1.39-3.29-1.39s-2.41.5-3.29,1.39c-.39.39-1.02.4-1.41.02-.4-.39-.4-1.02-.02-1.41,1.26-1.29,2.93-2,4.71-2s3.46.71,4.71,2c.39.39.38,1.03-.02,1.41Z"/>
</svg>