<?xml version="1.0" encoding="UTF-8"?>
<svg id="OBJECT" xmlns="http://www.w3.org/2000/svg" viewBox="0 0 32 32">
  <defs>
    <style>
      .cls-1 {
        fill: #FD4360;
      }

      .cls-1, .cls-2 {
        stroke-width: 0px;
      }

      .cls-2 {
        fill: #dadada;
      }
    </style>
  </defs>
  <g>
    <path class="cls-2" d="m7.75,4c-.55,0-1,.45-1,1s.45,1,1,1h4.5c.55,0,1-.45,1-1s-.45-1-1-1h-4.5Z"/>
    <path class="cls-2" d="m16,1H4c-1.65,0-3,1.35-3,3v24c0,1.65,1.35,3,3,3h12c.55,0,1-.45,1-1s-.45-1-1-1H4c-.55,0-1-.45-1-1V4c0-.55.45-1,1-1h12c.55,0,1,.45,1,1v2.92c0,.55.45,1,1,1s1-.45,1-1v-2.92c0-1.65-1.35-3-3-3Z"/>
  </g>
  <path class="cls-1" d="m28.56,10.67H10.45c-1.35,0-2.45,1.1-2.45,2.44v10.44c0,1.35,1.1,2.44,2.45,2.44h18.11c1.35,0,2.44-1.1,2.44-2.44v-10.44c0-1.35-1.1-2.44-2.44-2.44Zm-13.74,8.62h-1.7c-.53,0-.96-.43-.96-.96s.43-.96.96-.96h1.7c.53,0,.96.43.96.96s-.43.96-.96.96Zm4.13-1.92h1.1c1.14,0,2.06.93,2.06,2.06,0,1-.71,1.83-1.66,2.02v.19c0,.53-.43.96-.96.96s-.96-.43-.96-.96v-.15h-.7c-.53,0-.96-.43-.96-.96s.43-.96.96-.96h2.21c.08,0,.15-.07.15-.15s-.07-.15-.15-.15h-1.1c-1.14,0-2.06-.93-2.06-2.06,0-1,.71-1.83,1.66-2.02v-.19c0-.53.43-.96.96-.96s.96.43.96.96v.15h.7c.53,0,.96.43.96.96s-.43.96-.96.96h-2.21c-.08,0-.15.07-.15.15s.07.15.15.15Zm6.94,1.92h-1.7c-.53,0-.96-.43-.96-.96s.43-.96.96-.96h1.7c.53,0,.96.43.96.96s-.43.96-.96.96Z"/>
</svg>