<?xml version="1.0" encoding="UTF-8"?>
<svg id="OBJECT" xmlns="http://www.w3.org/2000/svg" viewBox="0 0 512 512">
  <defs>
    <style>
      .cls-1 {
        fill: #FD4360;
      }

      .cls-2 {
        fill: #dadada;
      }
    </style>
  </defs>
  <g>
    <path class="cls-2" d="M489.5,0H22.5C10.09,0,0,10.09,0,22.5V489.5c0,12.41,10.09,22.5,22.5,22.5H489.5c12.41,0,22.5-10.09,22.5-22.5V22.5c0-12.41-10.09-22.5-22.5-22.5ZM22.5,15H489.5c4.14,0,7.5,3.36,7.5,7.5v27.5H15V22.5c0-4.14,3.36-7.5,7.5-7.5ZM489.5,497H22.5c-4.14,0-7.5-3.36-7.5-7.5V65H497V489.5c0,4.14-3.36,7.5-7.5,7.5Z"/>
    <path class="cls-2" d="M454.5,80H57.5c-15.16,0-27.5,12.34-27.5,27.5V454.5c0,15.16,12.34,27.5,27.5,27.5H454.5c15.16,0,27.5-12.34,27.5-27.5V107.5c0-15.16-12.34-27.5-27.5-27.5ZM57.5,95H454.5c6.89,0,12.5,5.61,12.5,12.5v181H45V107.5c0-6.89,5.61-12.5,12.5-12.5Zm-12.5,359.5v-151H248.5v163.5h-29.25v-17.5c0-25.7-13.33-49.03-35.12-62.11,.07-.95,.12-1.91,.12-2.89v-30c0-15.16-12.34-27.5-27.5-27.5h-20c-15.16,0-27.5,12.34-27.5,27.5v30c0,.97,.05,1.93,.12,2.89-21.8,13.09-35.12,36.41-35.12,62.11v17.5h-16.75c-6.89,0-12.5-5.61-12.5-12.5Zm131.75-12.5c-4.14,0-7.5,3.36-7.5,7.5v17.5h-45v-17.5c0-4.14-3.36-7.5-7.5-7.5s-7.5,3.36-7.5,7.5v17.5h-20v-17.5c0-19.05,9.23-36.45,24.55-47.12,6.36,11.68,18.75,19.62,32.95,19.62s26.59-7.94,32.95-19.62c15.32,10.67,24.55,28.07,24.55,47.12v17.5h-20v-17.5c0-4.14-3.36-7.5-7.5-7.5Zm-52.5-57.5v-30c0-6.89,5.61-12.5,12.5-12.5h20c6.89,0,12.5,5.61,12.5,12.5v30c0,12.41-10.09,22.5-22.5,22.5s-22.5-10.09-22.5-22.5Zm241,37.5c14.21,0,26.59-7.94,32.95-19.62,15.32,10.67,24.55,28.07,24.55,47.12v17.5h-20v-17.5c0-4.14-3.36-7.5-7.5-7.5s-7.5,3.36-7.5,7.5v17.5h-45v-17.5c0-4.14-3.36-7.5-7.5-7.5s-7.5,3.36-7.5,7.5v17.5h-20v-17.5c0-19.05,9.23-36.45,24.55-47.12,6.36,11.68,18.75,19.62,32.95,19.62Zm-22.5-37.5v-30c0-6.89,5.61-12.5,12.5-12.5h20c6.89,0,12.5,5.61,12.5,12.5v30c0,12.41-10.09,22.5-22.5,22.5s-22.5-10.09-22.5-22.5Zm111.75,82.5h-16.75v-17.5c0-25.7-13.33-49.03-35.12-62.11,.07-.95,.12-1.91,.12-2.89v-30c0-15.16-12.34-27.5-27.5-27.5h-20c-15.16,0-27.5,12.34-27.5,27.5v30c0,.97,.05,1.93,.12,2.89-21.8,13.09-35.12,36.41-35.12,62.11v17.5h-29.25v-163.5h203.5v151c0,6.89-5.61,12.5-12.5,12.5Z"/>
    <path class="cls-2" d="M37.5,40h10c4.14,0,7.5-3.36,7.5-7.5s-3.36-7.5-7.5-7.5h-10c-4.14,0-7.5,3.36-7.5,7.5s3.36,7.5,7.5,7.5Z"/>
    <path class="cls-2" d="M77.5,40h10c4.14,0,7.5-3.36,7.5-7.5s-3.36-7.5-7.5-7.5h-10c-4.14,0-7.5,3.36-7.5,7.5s3.36,7.5,7.5,7.5Z"/>
    <path class="cls-2" d="M117.5,40h10c4.14,0,7.5-3.36,7.5-7.5s-3.36-7.5-7.5-7.5h-10c-4.14,0-7.5,3.36-7.5,7.5s3.36,7.5,7.5,7.5Z"/>
  </g>
  <g>
    <path class="cls-1" d="M256,216c20.68,0,37.5-16.82,37.5-37.5v-30c0-15.16-12.34-27.5-27.5-27.5h-20c-15.16,0-27.5,12.34-27.5,27.5v30c0,20.68,16.82,37.5,37.5,37.5Z"/>
    <path class="cls-1" d="M304.16,199.37c-8.09,18.59-26.63,31.63-48.16,31.63s-40.07-13.04-48.16-31.63c-14.92,13.29-24.34,32.63-24.34,54.13v22.5h30v-17.19c0-4.11,3.16-7.69,7.27-7.81,4.25-.13,7.73,3.28,7.73,7.5v17.5h55v-17.19c0-4.11,3.16-7.69,7.27-7.81,4.25-.13,7.73,3.28,7.73,7.5v17.5h30v-22.5c0-21.5-9.42-40.84-24.34-54.13Z"/>
    <path class="cls-1" d="M364.5,130h70c4.14,0,7.5-3.36,7.5-7.5s-3.36-7.5-7.5-7.5h-70c-4.14,0-7.5,3.36-7.5,7.5s3.36,7.5,7.5,7.5Z"/>
    <path class="cls-1" d="M334.5,130h5c4.14,0,7.5-3.36,7.5-7.5s-3.36-7.5-7.5-7.5h-5c-4.14,0-7.5,3.36-7.5,7.5s3.36,7.5,7.5,7.5Z"/>
    <path class="cls-1" d="M434.5,150h-100c-4.14,0-7.5,3.36-7.5,7.5s3.36,7.5,7.5,7.5h100c4.14,0,7.5-3.36,7.5-7.5s-3.36-7.5-7.5-7.5Z"/>
    <path class="cls-1" d="M77.5,130h70c4.14,0,7.5-3.36,7.5-7.5s-3.36-7.5-7.5-7.5H77.5c-4.14,0-7.5,3.36-7.5,7.5s3.36,7.5,7.5,7.5Z"/>
    <path class="cls-1" d="M172.5,130h5c4.14,0,7.5-3.36,7.5-7.5s-3.36-7.5-7.5-7.5h-5c-4.14,0-7.5,3.36-7.5,7.5s3.36,7.5,7.5,7.5Z"/>
    <path class="cls-1" d="M177.5,150H77.5c-4.14,0-7.5,3.36-7.5,7.5s3.36,7.5,7.5,7.5h100c4.14,0,7.5-3.36,7.5-7.5s-3.36-7.5-7.5-7.5Z"/>
  </g>
</svg>