<?xml version="1.0" encoding="UTF-8"?>
<svg id="OBJECT" xmlns="http://www.w3.org/2000/svg" viewBox="0 0 512 512">
  <defs>
    <style>
      .cls-1 {
        fill: #FD4360;
      }

      .cls-2 {
        fill: #dadada;
      }
    </style>
  </defs>
  <g>
    <path class="cls-2" d="M489.5,0H22.5C10.09,0,0,10.09,0,22.5v63.58c0,15.48,7.24,29.3,18.5,38.27V387.5c0,15.16,12.34,27.5,27.5,27.5H213.5v42h-72.5c-12.41,0-22.5,10.09-22.5,22.5v25c0,4.14,3.36,7.5,7.5,7.5H386c4.14,0,7.5-3.36,7.5-7.5v-25c0-12.41-10.09-22.5-22.5-22.5h-72.5v-42h167.5c15.16,0,27.5-12.34,27.5-27.5V124.35c11.26-8.97,18.5-22.79,18.5-38.27V22.5c0-12.41-10.09-22.5-22.5-22.5ZM22.5,15H489.5c4.14,0,7.5,3.36,7.5,7.5v17.5H15V22.5c0-4.14,3.36-7.5,7.5-7.5ZM414.17,86.08c0,18.7-15.21,33.92-33.92,33.92s-33.92-15.21-33.92-33.92v-31.08h67.83v31.08ZM97.83,55h67.83v31.08c0,18.7-15.21,33.92-33.92,33.92s-33.92-15.21-33.92-33.92v-31.08Zm82.83,0h67.83v31.08c0,18.7-15.21,33.92-33.92,33.92s-33.92-15.21-33.92-33.92v-31.08Zm82.83,0h67.83v31.08c0,18.7-15.21,33.92-33.92,33.92s-33.92-15.21-33.92-33.92v-31.08Zm-248.5,0H82.83v31.08c0,18.7-15.21,33.92-33.92,33.92S15,104.79,15,86.08v-31.08ZM378.5,479.5v17.5H133.5v-17.5c0-4.14,3.36-7.5,7.5-7.5h230c4.14,0,7.5,3.36,7.5,7.5Zm-95-22.5h-55v-42h55v42Zm182.5-57H46c-6.89,0-12.5-5.61-12.5-12.5v-22.5H478.5v22.5c0,6.89-5.61,12.5-12.5,12.5Zm12.5-50H33.5V132.5c4.85,1.62,10.03,2.5,15.42,2.5,17.42,0,32.75-9.16,41.42-22.91,8.67,13.75,23.99,22.91,41.42,22.91s32.75-9.16,41.42-22.91c8.67,13.75,23.99,22.91,41.42,22.91s32.75-9.16,41.42-22.91c8.67,13.75,23.99,22.91,41.42,22.91s32.75-9.16,41.42-22.91c8.67,13.75,23.99,22.91,41.42,22.91s32.75-9.16,41.42-22.91c8.67,13.75,23.99,22.91,41.42,22.91,5.39,0,10.57-.89,15.42-2.5v217.5Zm-15.42-230c-18.7,0-33.92-15.21-33.92-33.92v-31.08h67.83v31.08c0,18.7-15.21,33.92-33.92,33.92Z"/>
    <path class="cls-2" d="M211,375h-10c-4.14,0-7.5,3.36-7.5,7.5s3.36,7.5,7.5,7.5h10c4.14,0,7.5-3.36,7.5-7.5s-3.36-7.5-7.5-7.5Z"/>
    <path class="cls-2" d="M261,375h-10c-4.14,0-7.5,3.36-7.5,7.5s3.36,7.5,7.5,7.5h10c4.14,0,7.5-3.36,7.5-7.5s-3.36-7.5-7.5-7.5Z"/>
    <path class="cls-2" d="M311,375h-10c-4.14,0-7.5,3.36-7.5,7.5s3.36,7.5,7.5,7.5h10c4.14,0,7.5-3.36,7.5-7.5s-3.36-7.5-7.5-7.5Z"/>
  </g>
  <g>
    <rect class="cls-1" x="378.5" y="175" width="75" height="50" rx="17.5" ry="17.5"/>
    <rect class="cls-1" x="58.5" y="175" width="75" height="50" rx="17.5" ry="17.5"/>
    <path class="cls-1" d="M328.28,160.68c-.83-3.34-3.83-5.68-7.28-5.68H191c-3.44,0-6.44,2.34-7.28,5.68l-28.58,114.32h201.71l-28.58-114.32Zm-34.78,51.82c0,15.16-12.34,27.5-27.5,27.5h-20c-15.16,0-27.5-12.34-27.5-27.5v-20c0-4.14,3.36-7.5,7.5-7.5s7.5,3.36,7.5,7.5v20c0,6.89,5.61,12.5,12.5,12.5h20c6.89,0,12.5-5.61,12.5-12.5v-20c0-4.14,3.36-7.5,7.5-7.5s7.5,3.36,7.5,7.5v20Z"/>
    <path class="cls-1" d="M360.61,290H151.39l-7.67,30.68c-.56,2.24-.06,4.61,1.37,6.43,1.42,1.82,3.6,2.88,5.91,2.88h210c2.31,0,4.49-1.06,5.91-2.88,1.42-1.82,1.92-4.19,1.37-6.43l-7.67-30.68Z"/>
  </g>
</svg>