<?xml version="1.0" encoding="UTF-8"?>
<svg id="OBJECT" xmlns="http://www.w3.org/2000/svg" viewBox="0 0 32 32">
  <defs>
    <style>
      .cls-1 {
        fill: #FD4360;
      }

      .cls-2 {
        fill: #dadada;
      }
    </style>
  </defs>
  <g>
    <path class="cls-2" d="M11.5,4c-.55,0-1,.45-1,1s.45,1,1,1h2c.55,0,1-.45,1-1s-.45-1-1-1h-2Z"/>
    <path class="cls-2" d="M20,8.5c.55,0,1-.45,1-1V3.5c0-1.38-1.12-2.5-2.5-2.5H6.5c-1.38,0-2.5,1.12-2.5,2.5V28.5c0,1.38,1.12,2.5,2.5,2.5h12c1.38,0,2.5-1.12,2.5-2.5v-6c0-.55-.45-1-1-1s-1,.45-1,1v2.5H6V3.5c0-.28,.22-.5,.5-.5h12c.28,0,.5,.22,.5,.5V7.5c0,.55,.45,1,1,1Zm-1,18.5v1.5c0,.28-.22,.5-.5,.5H6.5c-.28,0-.5-.22-.5-.5v-1.5h13Z"/>
    <path class="cls-2" d="M8,8v14c0,.55,.45,1,1,1s1-.45,1-1V8c0-.55-.45-1-1-1s-1,.45-1,1Z"/>
  </g>
  <g>
    <circle class="cls-1" cx="18" cy="15" r="1.5"/>
    <path class="cls-1" d="M26.5,9.5H12v11h14.5c.83,0,1.5-.67,1.5-1.5V11c0-.83-.67-1.5-1.5-1.5Zm-8.5,9c-1.93,0-3.5-1.57-3.5-3.5s1.57-3.5,3.5-3.5,3.5,1.57,3.5,3.5-1.57,3.5-3.5,3.5Zm6.5-2.5h-1c-.55,0-1-.45-1-1s.45-1,1-1h1c.55,0,1,.45,1,1s-.45,1-1,1Z"/>
  </g>
</svg>