<?xml version="1.0" encoding="UTF-8"?>
<svg id="OBJECT" xmlns="http://www.w3.org/2000/svg" viewBox="0 0 32 32">
  <defs>
    <style>
      .cls-1 {
        fill: #FD4360;
      }

      .cls-1, .cls-2 {
        stroke-width: 0px;
      }

      .cls-2 {
        fill: #dadada;
      }
    </style>
  </defs>
  <path class="cls-2" d="m30,1H2c-.55,0-1,.45-1,1v23c0,.55.45,1,1,1h10v3h-4c-.55,0-1,.45-1,1s.45,1,1,1h16c.55,0,1-.45,1-1s-.45-1-1-1h-4v-3h10c.55,0,1-.45,1-1V2c0-.55-.45-1-1-1Zm-1,2v17H3V3h26Zm-11,26h-4v-3h4v3Zm-15-5v-2h26v2H3Z"/>
  <g>
    <path class="cls-1" d="m26,13.5c-.55,0-1,.45-1,1v2c0,.55.45,1,1,1s1-.45,1-1v-2c0-.55-.45-1-1-1Z"/>
    <path class="cls-1" d="m6,13.5c-.55,0-1,.45-1,1v2c0,.55.45,1,1,1s1-.45,1-1v-2c0-.55-.45-1-1-1Z"/>
    <path class="cls-1" d="m20.5,4.5h-9c-1.38,0-2.5,1.12-2.5,2.5v9c0,1.38,1.12,2.5,2.5,2.5h9c1.38,0,2.5-1.12,2.5-2.5V7c0-1.38-1.12-2.5-2.5-2.5Zm-.5,7.6c0,1.88-1.53,3.4-3.4,3.4h-1.2c-1.87,0-3.4-1.53-3.4-3.4v-3.6c0-.55.45-1,1-1s1,.45,1,1v3.6c0,.77.63,1.4,1.4,1.4h1.2c.77,0,1.4-.63,1.4-1.4v-3.6c0-.55.45-1,1-1s1,.45,1,1v3.6Z"/>
  </g>
</svg>