<?xml version="1.0" encoding="UTF-8"?>
<svg id="OBJECT" xmlns="http://www.w3.org/2000/svg" viewBox="0 0 512 512">
  <defs>
    <style>
      .cls-1 {
        fill: #FD4360;
      }

      .cls-2 {
        fill: #dadada;
      }
    </style>
  </defs>
  <g>
    <path class="cls-2" d="M221,357h-10c-4.14,0-7.5,3.36-7.5,7.5s3.36,7.5,7.5,7.5h10c4.14,0,7.5-3.36,7.5-7.5s-3.36-7.5-7.5-7.5Z"/>
    <path class="cls-2" d="M261,357h-10c-4.14,0-7.5,3.36-7.5,7.5s3.36,7.5,7.5,7.5h10c4.14,0,7.5-3.36,7.5-7.5s-3.36-7.5-7.5-7.5Z"/>
    <path class="cls-2" d="M301,357h-10c-4.14,0-7.5,3.36-7.5,7.5s3.36,7.5,7.5,7.5h10c4.14,0,7.5-3.36,7.5-7.5s-3.36-7.5-7.5-7.5Z"/>
    <path class="cls-2" d="M484.5,77h-38.5c-4.14,0-7.5,3.36-7.5,7.5s3.36,7.5,7.5,7.5h38.5c6.89,0,12.5,5.61,12.5,12.5v222.5H15V104.5c0-6.89,5.61-12.5,12.5-12.5h38.5c4.14,0,7.5-3.36,7.5-7.5s-3.36-7.5-7.5-7.5H27.5c-15.16,0-27.5,12.34-27.5,27.5V374.5c0,15.16,12.34,27.5,27.5,27.5H188.5v60H111c-12.41,0-22.5,10.09-22.5,22.5v20c0,4.14,3.36,7.5,7.5,7.5H416c4.14,0,7.5-3.36,7.5-7.5v-20c0-12.41-10.09-22.5-22.5-22.5h-77.5v-60h161c15.16,0,27.5-12.34,27.5-27.5V104.5c0-15.16-12.34-27.5-27.5-27.5Zm-76,407.5v12.5H103.5v-12.5c0-4.14,3.36-7.5,7.5-7.5H401c4.14,0,7.5,3.36,7.5,7.5Zm-100-22.5h-45v-30c0-4.14-3.36-7.5-7.5-7.5s-7.5,3.36-7.5,7.5v30h-45v-60h105v60Zm176-75H27.5c-6.89,0-12.5-5.61-12.5-12.5v-32.5H497v32.5c0,6.89-5.61,12.5-12.5,12.5Z"/>
    <path class="cls-2" d="M376,302c28.95,0,52.5-23.55,52.5-52.5s-23.55-52.5-52.5-52.5-52.5,23.55-52.5,52.5,23.55,52.5,52.5,52.5Zm0-90c20.68,0,37.5,16.82,37.5,37.5s-16.82,37.5-37.5,37.5-37.5-16.82-37.5-37.5,16.82-37.5,37.5-37.5Z"/>
    <path class="cls-2" d="M355.7,269.8c1.46,1.46,3.38,2.2,5.3,2.2s3.84-.73,5.3-2.2l9.7-9.7,9.7,9.7c1.46,1.46,3.38,2.2,5.3,2.2s3.84-.73,5.3-2.2c2.93-2.93,2.93-7.68,0-10.61l-9.7-9.7,9.7-9.7c2.93-2.93,2.93-7.68,0-10.61-2.93-2.93-7.68-2.93-10.61,0l-9.7,9.7-9.7-9.7c-2.93-2.93-7.68-2.93-10.61,0-2.93,2.93-2.93,7.68,0,10.61l9.7,9.7-9.7,9.7c-2.93,2.93-2.93,7.68,0,10.61Z"/>
    <path class="cls-2" d="M136,302c28.95,0,52.5-23.55,52.5-52.5s-23.55-52.5-52.5-52.5-52.5,23.55-52.5,52.5,23.55,52.5,52.5,52.5Zm0-90c20.68,0,37.5,16.82,37.5,37.5s-16.82,37.5-37.5,37.5-37.5-16.82-37.5-37.5,16.82-37.5,37.5-37.5Z"/>
    <path class="cls-2" d="M126.3,265.75c1.46,1.46,3.38,2.2,5.3,2.2s3.84-.73,5.3-2.2l21.89-21.89c2.93-2.93,2.93-7.68,0-10.61-2.93-2.93-7.68-2.93-10.61,0l-16.59,16.59-7.8-7.8c-2.93-2.93-7.68-2.93-10.61,0-2.93,2.93-2.93,7.68,0,10.61l13.11,13.11Z"/>
  </g>
  <path class="cls-1" d="M398.34,0H113.66c-13.87,0-25.16,11.29-25.16,25.16v124.68c0,13.87,11.29,25.16,25.16,25.16h98.09l22.67,37.78c4.52,7.54,12.79,12.22,21.58,12.22s17.06-4.68,21.58-12.22l13.67-22.78h-20.25c-4.14,0-7.5-3.36-7.5-7.5s3.36-7.5,7.5-7.5h127.34c13.87,0,25.16-11.29,25.16-25.16V25.16c0-13.87-11.29-25.16-25.16-25.16ZM136,35h10c4.14,0,7.5,3.36,7.5,7.5s-3.36,7.5-7.5,7.5h-10c-4.14,0-7.5-3.36-7.5-7.5s3.36-7.5,7.5-7.5Zm200,95H136c-4.14,0-7.5-3.36-7.5-7.5s3.36-7.5,7.5-7.5h200c4.14,0,7.5,3.36,7.5,7.5s-3.36,7.5-7.5,7.5Zm40,0h-10c-4.14,0-7.5-3.36-7.5-7.5s3.36-7.5,7.5-7.5h10c4.14,0,7.5,3.36,7.5,7.5s-3.36,7.5-7.5,7.5Zm0-40H136c-4.14,0-7.5-3.36-7.5-7.5s3.36-7.5,7.5-7.5h240c4.14,0,7.5,3.36,7.5,7.5s-3.36,7.5-7.5,7.5Zm0-40H176c-4.14,0-7.5-3.36-7.5-7.5s3.36-7.5,7.5-7.5h200c4.14,0,7.5,3.36,7.5,7.5s-3.36,7.5-7.5,7.5Z"/>
</svg>