<?xml version="1.0" encoding="UTF-8"?>
<svg id="OBJECT" xmlns="http://www.w3.org/2000/svg" viewBox="0 0 32 32">
  <defs>
    <style>
      .cls-1 {
        fill: #FD4360;
      }

      .cls-1, .cls-2 {
        stroke-width: 0px;
      }

      .cls-2 {
        fill: #dadada;
      }
    </style>
  </defs>
  <g>
    <path class="cls-2" d="m28,10h-2v-6c0-.55-.45-1-1-1s-1,.45-1,1v1.29l-2.93,1.04c-.52.19-.79.76-.61,1.28.15.41.53.66.94.66.11,0,.22-.02.34-.06l2.25-.8v15.16l-3.5-1.25v-4.9c0-.55-.45-1-1-1s-1,.45-1,1v4.19l-6.5-2.32v-1.54c0-.55-.45-1-1-1s-1,.45-1,1v2.74c0,.28-.22.5-.5.5H3v-9.5c0-.28.22-.5.5-.5h1.01c.55,0,1-.45,1-1s-.45-1-1-1h-1.01c-1.38,0-2.5,1.12-2.5,2.5v19.5c0,.55.45,1,1,1h2c1.65,0,3-1.35,3-3v-2h.5c1.38,0,2.5-1.12,2.5-2.5v-1.55c.85-.17,1.54-.79,1.84-1.59l12.16,4.34v1.3c0,.55.45,1,1,1s1-.45,1-1v-6h2c1.65,0,3-1.35,3-3v-4c0-1.65-1.35-3-3-3ZM4,29h-1v-7h2v6c0,.55-.45,1-1,1Zm3.5-5h-.5v-2h1v1.5c0,.28-.22.5-.5.5Zm21.5-7c0,.55-.45,1-1,1h-2v-6h2c.55,0,1,.45,1,1v4Z"/>
    <path class="cls-2" d="m4,17c0,.55.45,1,1,1h3c.55,0,1-.45,1-1s-.45-1-1-1h-3c-.55,0-1,.45-1,1Z"/>
  </g>
  <path class="cls-1" d="m13,14c3.58,0,6.5-2.92,6.5-6.5s-2.92-6.5-6.5-6.5-6.5,2.92-6.5,6.5,2.92,6.5,6.5,6.5Zm.19-2.35h-.39c-.55,0-1-.45-1-1s.45-1,1-1h.39c.55,0,1,.45,1,1s-.45,1-1,1Zm2.25-2.51c-.19.19-.45.29-.7.29s-.52-.1-.71-.3c-.55-.57-1.52-.57-2.07,0-.39.39-1.02.4-1.41.02-.39-.39-.4-1.02-.02-1.41,1.31-1.34,3.62-1.34,4.93,0,.39.4.38,1.03-.02,1.41Zm-6.66-4.01c1.12-1.15,2.62-1.78,4.21-1.78s3.09.63,4.21,1.78c.39.4.38,1.03-.02,1.41-.19.19-.45.29-.7.29s-.52-.1-.71-.3c-1.49-1.52-4.08-1.52-5.57,0-.38.4-1.02.4-1.41.02-.39-.39-.4-1.02-.02-1.41Z"/>
</svg>