<?xml version="1.0" encoding="UTF-8"?>
<svg id="OBJECT" xmlns="http://www.w3.org/2000/svg" viewBox="0 0 32 32">
  <defs>
    <style>
      .cls-1 {
        fill: #FD4360;
      }

      .cls-1, .cls-2 {
        stroke-width: 0px;
      }

      .cls-2 {
        fill: #dadada;
      }
    </style>
  </defs>
  <g>
    <path class="cls-2" d="m16,1H4c-1.65,0-3,1.35-3,3v24c0,1.65,1.35,3,3,3h12c.55,0,1-.45,1-1s-.45-1-1-1H4c-.55,0-1-.45-1-1V4c0-.55.45-1,1-1h12c.55,0,1,.45,1,1v2.14c0,.55.45,1,1,1s1-.45,1-1v-2.14c0-1.65-1.35-3-3-3Z"/>
    <path class="cls-2" d="m7.75,4c-.55,0-1,.45-1,1s.45,1,1,1h4.5c.55,0,1-.45,1-1s-.45-1-1-1h-4.5Z"/>
  </g>
  <g>
    <path class="cls-1" d="m28.54,9.51H10.46c-1.36,0-2.46,1.11-2.46,2.46v1.33h23v-1.33c0-1.36-1.11-2.46-2.46-2.46Z"/>
    <rect class="cls-1" x="24.11" y="20.3" width="1.44" height="1.44"/>
    <path class="cls-1" d="m8,24.02c0,1.36,1.11,2.46,2.46,2.46h18.07c1.36,0,2.46-1.11,2.46-2.46v-8.8H8v8.8Zm14.2-4.68c0-.53.43-.96.96-.96h3.35c.53,0,.96.43.96.96v3.35c0,.53-.43.96-.96.96h-3.35c-.53,0-.96-.43-.96-.96v-3.35Zm-9.71-.96h5.27c.53,0,.96.43.96.96s-.43.96-.96.96h-5.27c-.53,0-.96-.43-.96-.96s.43-.96.96-.96Zm0,3.22h3c.53,0,.96.43.96.96s-.43.96-.96.96h-3c-.53,0-.96-.43-.96-.96s.43-.96.96-.96Z"/>
  </g>
</svg>