<?xml version="1.0" encoding="UTF-8" standalone="no"?>
<svg
   id="OBJECT"
   viewBox="0 0 32 32"
   version="1.1"
   sodipodi:docname="OODA.svg"
   inkscape:version="1.2.2 (732a01da63, 2022-12-09)"
   xml:space="preserve"
   xmlns:inkscape="http://www.inkscape.org/namespaces/inkscape"
   xmlns:sodipodi="http://sodipodi.sourceforge.net/DTD/sodipodi-0.dtd"
   xmlns="http://www.w3.org/2000/svg"
   xmlns:svg="http://www.w3.org/2000/svg"><sodipodi:namedview
     id="namedview15"
     pagecolor="#505050"
     bordercolor="#ffffff"
     borderopacity="1"
     inkscape:showpageshadow="0"
     inkscape:pageopacity="0"
     inkscape:pagecheckerboard="1"
     inkscape:deskcolor="#505050"
     showgrid="false"
     inkscape:zoom="0.10119629"
     inkscape:cx="-1190.7551"
     inkscape:cy="652.19783"
     inkscape:window-width="1920"
     inkscape:window-height="1009"
     inkscape:window-x="-8"
     inkscape:window-y="-8"
     inkscape:window-maximized="1"
     inkscape:current-layer="OBJECT" /><defs
     id="defs4"><style
       id="style2">
      .cls-1 {
        fill: #FD4360;
      }

      .cls-1, .cls-2 {
        stroke-width: 0px;
      }

      .cls-2 {
        fill: #dadada;
      }
    </style></defs><g
     id="g2641"
     transform="matrix(0.08053399,0,0,0.08053399,34.49344,11.801338)"><g
       id="g2609"><path
         style="fill:#dadada;fill-opacity:1;stroke-width:0.917"
         d="M -226.1104,-106.12231 V 47.383831 h 164.205718 l -7.533374,-43.0166576 -46.364114,-83.1126494 -82.45115,-33.351024 -27.58413,-0.46739 z"
         id="path594" /><path
         style="fill:#fd4360;fill-opacity:1;stroke-width:0.917"
         d="m -61.795503,47.711369 -22.600122,-16.049362 12.228085,0.109179 c 0,0 -2.947842,-27.6223713 -12.555623,-46.728755 -9.607782,-19.106383 -34.630277,-56.839777 -68.290107,-73.669693 -33.65983,-16.829918 -61.76116,-17.447528 -61.76116,-17.447528 l -11.34861,10e-6 0.30881,-19.99518 c 0,0 16.4439,-1.15803 47.17008,6.71652 30.72618,7.87455 60.21713,30.417373 60.21713,30.417373 0,0 20.072376,14.205066 37.674306,40.762364 17.60193,26.557298 22.079614,48.48250879 22.079614,48.48250879 0,0 3.860072,16.98431821 4.477684,19.76357021 0.617612,2.779252 1.235223,11.425815 1.235223,11.425815 l 12.043426,0.154402 z"
         id="path496"
         sodipodi:nodetypes="cccsscccscscsccc" /></g><g
       id="g2615"
       transform="rotate(-90,-230.68951,53.59323)"><path
         style="fill:#dadada;fill-opacity:1;stroke-width:0.917"
         d="M -226.1104,-106.12231 V 47.383831 h 164.205718 l -7.533374,-43.0166576 -46.364114,-83.1126494 -82.45115,-33.351024 -27.58413,-0.46739 z"
         id="path2611" /><path
         style="fill:#fd4360;fill-opacity:1;stroke-width:0.917"
         d="m -61.795503,47.711369 -22.600122,-16.049362 12.228085,0.109179 c 0,0 -2.947842,-27.6223713 -12.555623,-46.728755 -9.607782,-19.106383 -34.630277,-56.839777 -68.290107,-73.669693 -33.65983,-16.829918 -61.76116,-17.447528 -61.76116,-17.447528 l -11.34861,10e-6 0.30881,-19.99518 c 0,0 16.4439,-1.15803 47.17008,6.71652 30.72618,7.87455 60.21713,30.417373 60.21713,30.417373 0,0 20.072376,14.205066 37.674306,40.762364 17.60193,26.557298 22.079614,48.48250879 22.079614,48.48250879 0,0 3.860072,16.98431821 4.477684,19.76357021 0.617612,2.779252 1.235223,11.425815 1.235223,11.425815 l 12.043426,0.154402 z"
         id="path2613"
         sodipodi:nodetypes="cccsscccscscsccc" /></g><g
       id="g2621"
       transform="rotate(90,-231.34458,52.938155)"><path
         style="fill:#dadada;fill-opacity:1;stroke-width:0.917"
         d="M -226.1104,-106.12231 V 47.383831 h 164.205718 l -7.533374,-43.0166576 -46.364114,-83.1126494 -82.45115,-33.351024 -27.58413,-0.46739 z"
         id="path2617" /><path
         style="fill:#fd4360;fill-opacity:1;stroke-width:0.917"
         d="m -61.795503,47.711369 -22.600122,-16.049362 12.228085,0.109179 c 0,0 -2.947842,-27.6223713 -12.555623,-46.728755 -9.607782,-19.106383 -34.630277,-56.839777 -68.290107,-73.669693 -33.65983,-16.829918 -61.76116,-17.447528 -61.76116,-17.447528 l -11.34861,10e-6 0.30881,-19.99518 c 0,0 16.4439,-1.15803 47.17008,6.71652 30.72618,7.87455 60.21713,30.417373 60.21713,30.417373 0,0 20.072376,14.205066 37.674306,40.762364 17.60193,26.557298 22.079614,48.48250879 22.079614,48.48250879 0,0 3.860072,16.98431821 4.477684,19.76357021 0.617612,2.779252 1.235223,11.425815 1.235223,11.425815 l 12.043426,0.154402 z"
         id="path2619"
         sodipodi:nodetypes="cccsscccscscsccc" /></g><g
       id="g2627"
       transform="rotate(180,-231.78129,52.93815)"><path
         style="fill:#dadada;fill-opacity:1;stroke-width:0.917"
         d="M -226.1104,-106.12231 V 47.383831 h 164.205718 l -7.533374,-43.0166576 -46.364114,-83.1126494 -82.45115,-33.351024 -27.58413,-0.46739 z"
         id="path2623" /><path
         style="fill:#fd4360;fill-opacity:1;stroke-width:0.917"
         d="m -61.795503,47.711369 -22.600122,-16.049362 12.228085,0.109179 c 0,0 -2.947842,-27.6223713 -12.555623,-46.728755 -9.607782,-19.106383 -34.630277,-56.839777 -68.290107,-73.669693 -33.65983,-16.829918 -61.76116,-17.447528 -61.76116,-17.447528 l -11.34861,10e-6 0.30881,-19.99518 c 0,0 16.4439,-1.15803 47.17008,6.71652 30.72618,7.87455 60.21713,30.417373 60.21713,30.417373 0,0 20.072376,14.205066 37.674306,40.762364 17.60193,26.557298 22.079614,48.48250879 22.079614,48.48250879 0,0 3.860072,16.98431821 4.477684,19.76357021 0.617612,2.779252 1.235223,11.425815 1.235223,11.425815 l 12.043426,0.154402 z"
         id="path2625"
         sodipodi:nodetypes="cccsscccscscsccc" /></g></g></svg>
