<?xml version="1.0" encoding="UTF-8"?>
<svg id="OBJECT" xmlns="http://www.w3.org/2000/svg" viewBox="0 0 32 32">
  <defs>
    <style>
      .cls-1 {
        fill: #FD4360;
      }

      .cls-1, .cls-2 {
        stroke-width: 0px;
      }

      .cls-2 {
        fill: #dadada;
      }
    </style>
  </defs>
  <path class="cls-1" d="m28,9.44v-2.44c0-3.31-2.69-6-6-6h-12c-3.31,0-6,2.69-6,6v2.44c-1.65,0-3,1.35-3,3v2.75c0,1.65,1.35,3,3,3h2V7c0-2.21,1.79-4,4-4h12c2.21,0,4,1.79,4,4v21c0,.55-.45,1-1,1h-4v-.75c0-1.52-1.23-2.75-2.75-2.75h-4.5c-1.52,0-2.75,1.23-2.75,2.75s1.23,2.75,2.75,2.75h11.25c1.65,0,3-1.35,3-3v-9.81c1.65,0,3-1.35,3-3v-2.75c0-1.65-1.35-3-3-3Z"/>
  <g>
    <path class="cls-2" d="m20.38,5.48h-8.75c-2,0-3.62,1.63-3.62,3.62v8.62c0,3.45,2.8,6.25,6.25,6.25h3.5c3.45,0,6.25-2.8,6.25-6.25v-8.62c0-2-1.63-3.62-3.62-3.62Zm1.62,12.25c0,2.34-1.91,4.25-4.25,4.25h-3.5c-2.34,0-4.25-1.91-4.25-4.25v-8.62c0-.9.73-1.62,1.62-1.62h8.75c.9,0,1.62.73,1.62,1.62v8.62Z"/>
    <path class="cls-2" d="m18.28,17.04c-1.26,1.26-3.3,1.26-4.56,0-.39-.39-1.02-.39-1.41,0s-.39,1.02,0,1.41c1.02,1.02,2.36,1.53,3.69,1.53s2.67-.51,3.69-1.53c.39-.39.39-1.02,0-1.41s-1.02-.39-1.41,0Z"/>
  </g>
</svg>