<?xml version="1.0" encoding="UTF-8"?>
<svg id="OBJECT" xmlns="http://www.w3.org/2000/svg" viewBox="0 0 32 32">
  <defs>
    <style>
      .cls-1 {
        fill: #FD4360;
      }

      .cls-1, .cls-2 {
        stroke-width: 0px;
      }

      .cls-2 {
        fill: #dadada;
      }
    </style>
  </defs>
  <path class="cls-2" d="m30,12.5h-2.01c-.25-.87-.6-1.7-1.04-2.5l1.42-1.42c.39-.39.39-1.02,0-1.41l-3.54-3.54c-.19-.19-.44-.29-.71-.29s-.52.11-.71.29l-1.42,1.42c-.8-.44-1.63-.79-2.5-1.04v-2.01c0-.55-.45-1-1-1h-5c-.55,0-1,.45-1,1v2.01c-.87.25-1.71.6-2.5,1.04l-1.42-1.42c-.38-.38-1.04-.38-1.41,0l-3.54,3.54c-.39.39-.39,1.02,0,1.41l1.42,1.42c-.44.8-.79,1.63-1.04,2.5h-2.01c-.55,0-1,.45-1,1v5c0,.55.45,1,1,1h2.01c.25.87.6,1.7,1.04,2.5l-1.42,1.42c-.39.39-.39,1.02,0,1.41l3.54,3.54c.39.39,1.02.39,1.41,0l1.42-1.42c.8.44,1.63.79,2.5,1.04v2.01c0,.55.45,1,1,1h5c.55,0,1-.45,1-1v-2.01c.87-.25,1.7-.6,2.5-1.04l1.42,1.42c.39.39,1.02.39,1.41,0l3.54-3.54c.39-.39.39-1.02,0-1.41l-1.42-1.42c.44-.8.79-1.63,1.04-2.5h2.01c.55,0,1-.45,1-1v-5c0-.55-.45-1-1-1Zm-1,5h-1.78c-.47,0-.87.33-.98.78-.26,1.18-.73,2.3-1.39,3.34-.25.4-.2.91.14,1.25l1.27,1.27-2.12,2.12-1.27-1.27c-.33-.33-.85-.39-1.25-.14-1.03.66-2.16,1.13-3.34,1.39-.46.1-.78.51-.78.98v1.78h-3v-1.78c0-.47-.33-.87-.78-.98-1.18-.26-2.3-.73-3.34-1.39-.4-.25-.91-.2-1.25.14l-1.27,1.27-2.12-2.12,1.27-1.27c.33-.33.39-.85.14-1.25-.66-1.03-1.13-2.16-1.39-3.34-.1-.46-.51-.78-.98-.78h-1.78v-3h1.78c.47,0,.87-.33.98-.78.26-1.18.73-2.3,1.39-3.34.25-.4.2-.91-.14-1.24l-1.26-1.27,2.12-2.12,1.27,1.27c.33.33.85.39,1.25.14,1.03-.66,2.16-1.13,3.34-1.39.46-.1.78-.51.78-.98v-1.78h3v1.78c0,.47.33.87.78.98,1.18.26,2.31.73,3.34,1.39.39.25.91.2,1.25-.14l1.27-1.27,2.12,2.12-1.26,1.27c-.33.33-.39.85-.14,1.24.66,1.04,1.13,2.16,1.39,3.34.1.46.51.78.98.78h1.78v3Z"/>
  <path class="cls-1" d="m16,7.5c-4.69,0-8.5,3.81-8.5,8.5s3.81,8.5,8.5,8.5,8.5-3.81,8.5-8.5-3.81-8.5-8.5-8.5Zm1.21,13.96c0,.67-.54,1.21-1.21,1.21s-1.21-.54-1.21-1.21v-.61c0-.67.54-1.21,1.21-1.21s1.21.54,1.21,1.21v.61Zm0-4.86c0,.67-.54,1.21-1.21,1.21s-1.21-.54-1.21-1.21v-6.07c0-.67.54-1.21,1.21-1.21s1.21.54,1.21,1.21v6.07Z"/>
</svg>