<?xml version="1.0" encoding="UTF-8"?>
<svg id="OBJECT" xmlns="http://www.w3.org/2000/svg" viewBox="0 0 32 32">
  <defs>
    <style>
      .cls-1 {
        fill: #FD4360;
      }

      .cls-1, .cls-2 {
        stroke-width: 0px;
      }

      .cls-2 {
        fill: #dadada;
      }
    </style>
  </defs>
  <path class="cls-1" d="m23.5,16c-4.14,0-7.5,3.36-7.5,7.5s3.36,7.5,7.5,7.5,7.5-3.36,7.5-7.5-3.36-7.5-7.5-7.5Zm3.56,6.29l-3.62,3.66c-.17.17-.39.24-.63.26-.23,0-.46-.09-.62-.26l-2.23-2.23c-.34-.34-.34-.9,0-1.25.34-.35.9-.34,1.25,0l1.61,1.6,3-3.03c.34-.35.9-.35,1.25,0,.35.34.35.9,0,1.25Z"/>
  <path class="cls-2" d="m22.96,11.53v-4.25c0-1.35-1.09-2.44-2.44-2.44h-1.88v-1.4c0-1.35-1.09-2.44-2.44-2.44h-6.72c-1.35,0-2.44,1.09-2.44,2.44v1.4h-1.88c-1.35,0-2.44,1.09-2.44,2.44v4.25l-1.7,12.71c-.09.7.13,1.4.59,1.93.46.53,1.13.83,1.83.83h9.9c.55,0,1-.45,1-1s-.45-1-1-1H3.44c-.17,0-.28-.09-.33-.15-.05-.06-.13-.18-.11-.35l.18-1.34h9.92c.55,0,1-.45,1-1s-.45-1-1-1H3.45l1.15-8.56h16.49l.21,1.61c.07.55.57.93,1.12.86.55-.07.93-.58.86-1.12l-.32-2.41ZM9.04,3.44c0-.24.2-.44.44-.44h6.72c.24,0,.44.2.44.44v1.4h-7.6v-1.4Zm-3.88,3.4h1.88v1.88c0,.55.45,1,1,1s1-.45,1-1v-1.88h7.6v1.88c0,.55.45,1,1,1s1-.45,1-1v-1.88h1.88c.24,0,.44.2.44.44v3.32H4.72v-3.32c0-.25.19-.44.44-.44Z"/>
</svg>