<?xml version="1.0" encoding="UTF-8"?>
<svg id="OBJECT" xmlns="http://www.w3.org/2000/svg" viewBox="0 0 32 32">
  <defs>
    <style>
      .cls-1 {
        fill: #FD4360;
      }

      .cls-1, .cls-2 {
        stroke-width: 0px;
      }

      .cls-2 {
        fill: #dadada;
      }
    </style>
  </defs>
  <path class="cls-2" d="m14,1C6.83,1,1,6.83,1,14c0,6.21,4.42,11.58,10.5,12.76.07.01.13.02.19.02.47,0,.89-.33.98-.81.11-.54-.25-1.07-.79-1.17-1.86-.36-3.54-1.19-4.92-2.35l15.5-15.5c1.21,1.46,2.06,3.25,2.39,5.24.09.54.59.91,1.15.82.54-.09.91-.6.82-1.15-1.04-6.3-6.43-10.87-12.83-10.87Zm0,2c2.67,0,5.13.94,7.05,2.54l-7.26,7.26-9.27-4.34c1.91-3.26,5.44-5.45,9.48-5.45ZM3,14c0-1.31.24-2.57.67-3.74l8.62,4.04-6.73,6.73c-1.6-1.92-2.55-4.39-2.55-7.04Z"/>
  <path class="cls-1" d="m23,15c-4.41,0-8,3.59-8,8s3.59,8,8,8,8-3.59,8-8-3.59-8-8-8Zm-.65,7.06h1.31c1.24,0,2.25,1.01,2.25,2.25,0,1.14-.86,2.08-1.96,2.22v.39c0,.52-.42.94-.94.94s-.94-.42-.94-.94v-.37h-1.02c-.52,0-.94-.42-.94-.94s.42-.94.94-.94h2.61c.2,0,.37-.16.37-.37s-.16-.37-.37-.37h-1.31c-1.24,0-2.25-1.01-2.25-2.25,0-1.14.86-2.08,1.96-2.22v-.39c0-.52.42-.94.94-.94s.94.42.94.94v.37h1.02c.52,0,.94.42.94.94s-.42.94-.94.94h-2.61c-.2,0-.37.16-.37.37s.16.37.37.37Z"/>
</svg>