<?xml version="1.0" encoding="UTF-8"?>
<svg id="OBJECT" xmlns="http://www.w3.org/2000/svg" viewBox="0 0 32 32">
  <defs>
    <style>
      .cls-1 {
        fill: #FD4360;
      }

      .cls-2 {
        fill: #dadada;
      }
    </style>
  </defs>
  <path class="cls-2" d="M28,1H4C2.35,1,1,2.35,1,4V21c0,1.65,1.35,3,3,3H12.5v5H6c-.55,0-1,.45-1,1s.45,1,1,1H26c.55,0,1-.45,1-1s-.45-1-1-1h-6.5v-5h8.5c1.65,0,3-1.35,3-3V4c0-1.65-1.35-3-3-3Zm-10.5,28h-3v-5h3v5Zm11.5-8c0,.55-.45,1-1,1H4c-.55,0-1-.45-1-1V4c0-.55,.45-1,1-1H28c.55,0,1,.45,1,1V21Z"/>
  <g>
    <rect class="cls-1" x="6.5" y="7" width="4" height="9" rx="1" ry="1"/>
    <path class="cls-1" d="M25.09,4.7c-.26-.19-.59-.25-.89-.15l-3.71,1.14v4.82c0,.55-.45,1-1,1s-1-.45-1-1V6.3l-6,1.85v6.71l1.5,.46v2.18c0,1.65,1.35,3,3,3h2c1.56,0,2.83-1.2,2.97-2.73l2.23,.69c.1,.03,.2,.04,.29,.04,.21,0,.42-.07,.59-.2,.26-.19,.41-.49,.41-.8V5.5c0-.32-.15-.62-.41-.8Zm-5.09,12.8c0,.55-.45,1-1,1h-2c-.55,0-1-.45-1-1v-1.57l4,1.23v.34Z"/>
  </g>
</svg>