<?xml version="1.0" encoding="UTF-8"?>
<svg id="OBJECT" xmlns="http://www.w3.org/2000/svg" viewBox="0 0 32 32">
  <defs>
    <style>
      .cls-1 {
        fill: #FD4360;
      }

      .cls-1, .cls-2 {
        stroke-width: 0px;
      }

      .cls-2 {
        fill: #dadada;
      }
    </style>
  </defs>
  <g>
    <path class="cls-2" d="m30.89,16.55l-2.45-4.89c-.51-1.02-1.54-1.66-2.68-1.66H6.24c-1.14,0-2.17.64-2.68,1.66l-2.45,4.89c-.14.28-.14.61,0,.89l2.45,4.89c.51,1.02,1.54,1.66,2.68,1.66h3.44l-1.64,5.73c-.09.3-.03.63.16.88.19.25.48.4.8.4h14c.31,0,.61-.15.8-.4.19-.25.25-.58.16-.88l-1.64-5.73h3.44c1.14,0,2.17-.64,2.68-1.66l2.45-4.89c.14-.28.14-.61,0-.89ZM5.34,12.55c.17-.34.51-.55.89-.55h19.53c.38,0,.72.21.89.55l1.72,3.45H3.62l1.72-3.45Zm8.16,9.45v-4h5v4h-5Zm-8.16-.55l-1.72-3.45h7.88v4h-5.26c-.38,0-.72-.21-.89-.55Zm16.33,7.55h-11.35l1.43-5h8.49l1.43,5Zm4.98-7.55c-.17.34-.51.55-.89.55h-5.26v-4h7.88l-1.72,3.45Z"/>
    <path class="cls-2" d="m22.5,15h1c.55,0,1-.45,1-1s-.45-1-1-1h-1c-.55,0-1,.45-1,1s.45,1,1,1Z"/>
    <path class="cls-2" d="m8.5,15h1c.55,0,1-.45,1-1s-.45-1-1-1h-1c-.55,0-1,.45-1,1s.45,1,1,1Z"/>
    <path class="cls-2" d="m13.75,27.5h.5c.55,0,1-.45,1-1s-.45-1-1-1h-.5c-.55,0-1,.45-1,1s.45,1,1,1Z"/>
    <path class="cls-2" d="m17.75,27.5h.5c.55,0,1-.45,1-1s-.45-1-1-1h-.5c-.55,0-1,.45-1,1s.45,1,1,1Z"/>
  </g>
  <path class="cls-1" d="m24,7c0-3.31-2.69-6-6-6h-4c-3.31,0-6,2.69-6,6v1h16v-1Zm-6-1h-4c-.55,0-1-.45-1-1s.45-1,1-1h4c.55,0,1,.45,1,1s-.45,1-1,1Z"/>
</svg>