<?xml version="1.0" encoding="UTF-8"?>
<svg id="OBJECT" xmlns="http://www.w3.org/2000/svg" viewBox="0 0 512 512">
  <defs>
    <style>
      .cls-1 {
        fill: #FD4360;
      }

      .cls-2 {
        fill: #dadada;
      }
    </style>
  </defs>
  <g>
    <path class="cls-2" d="M106,210h-10c-12.41,0-22.5,10.09-22.5,22.5v10c0,12.41,10.09,22.5,22.5,22.5h10c12.41,0,22.5-10.09,22.5-22.5v-10c0-12.41-10.09-22.5-22.5-22.5Zm7.5,32.5c0,4.14-3.36,7.5-7.5,7.5h-10c-4.14,0-7.5-3.36-7.5-7.5v-10c0-4.14,3.36-7.5,7.5-7.5h10c4.14,0,7.5,3.36,7.5,7.5v10Z"/>
    <path class="cls-2" d="M416,210h-10c-12.41,0-22.5,10.09-22.5,22.5v10c0,12.41,10.09,22.5,22.5,22.5h10c12.41,0,22.5-10.09,22.5-22.5v-10c0-12.41-10.09-22.5-22.5-22.5Zm7.5,32.5c0,4.14-3.36,7.5-7.5,7.5h-10c-4.14,0-7.5-3.36-7.5-7.5v-10c0-4.14,3.36-7.5,7.5-7.5h10c4.14,0,7.5,3.36,7.5,7.5v10Z"/>
    <path class="cls-2" d="M336,210H176c-12.41,0-22.5,10.09-22.5,22.5v10c0,12.41,10.09,22.5,22.5,22.5h160c12.41,0,22.5-10.09,22.5-22.5v-10c0-12.41-10.09-22.5-22.5-22.5Zm7.5,32.5c0,4.14-3.36,7.5-7.5,7.5H176c-4.14,0-7.5-3.36-7.5-7.5v-10c0-4.14,3.36-7.5,7.5-7.5h160c4.14,0,7.5,3.36,7.5,7.5v10Z"/>
    <path class="cls-2" d="M313.75,387h-115.5c-3.49,0-6.51,2.4-7.3,5.79-.47,2.03-11.26,49.99,16.16,84.59,1.25,1.57,3.07,2.58,5.07,2.8,2,.22,4-.38,5.55-1.64,.3-.24,3.81-3.16,7.88-8.39,3.5,15.78,11.05,34.07,27.38,41.22,.96,.42,1.98,.63,3.01,.63s2.05-.21,3.01-.63c16.33-7.15,23.88-25.44,27.38-41.22,4.07,5.24,7.59,8.15,7.88,8.39,1.56,1.27,3.56,1.86,5.55,1.64,2-.22,3.82-1.22,5.07-2.8,27.42-34.61,16.63-82.57,16.16-84.59-.79-3.39-3.82-5.79-7.3-5.79Zm-15.64,73.78c-3.3-4.29-7.15-10.65-8.89-18.63-.82-3.75-4.34-6.26-8.15-5.85-3.82,.42-6.7,3.67-6.67,7.5,.07,11.6-3.19,42.13-18.39,52.19-15.19-10.06-18.46-40.59-18.39-52.18,.03-3.84-2.85-7.09-6.67-7.51-.28-.03-.56-.05-.84-.05-3.48,0-6.56,2.43-7.32,5.9-1.74,7.98-5.59,14.35-8.89,18.63-12.49-21.47-10.85-47.42-9.32-58.77h102.86c1.56,11.34,3.22,37.25-9.33,58.78Z"/>
    <path class="cls-2" d="M206,335h10c4.14,0,7.5-3.36,7.5-7.5s-3.36-7.5-7.5-7.5h-10c-4.14,0-7.5,3.36-7.5,7.5s3.36,7.5,7.5,7.5Z"/>
    <path class="cls-2" d="M246,335h20c4.14,0,7.5-3.36,7.5-7.5s-3.36-7.5-7.5-7.5h-20c-4.14,0-7.5,3.36-7.5,7.5s3.36,7.5,7.5,7.5Z"/>
    <path class="cls-2" d="M296,335h10c4.14,0,7.5-3.36,7.5-7.5s-3.36-7.5-7.5-7.5h-10c-4.14,0-7.5,3.36-7.5,7.5s3.36,7.5,7.5,7.5Z"/>
    <path class="cls-2" d="M510.74,233.34l-34.06-51.09c-5.11-7.67-13.67-12.25-22.88-12.25H58.2c-9.22,0-17.77,4.58-22.88,12.25L1.26,233.34c-1.68,2.52-1.68,5.8,0,8.32l34.06,51.09c5.11,7.67,13.67,12.25,22.88,12.25h42.39l13.73,41.2c3.75,11.25,14.23,18.8,26.09,18.8h231.17c11.86,0,22.34-7.56,26.09-18.8l13.73-41.2h42.39c9.22,0,17.77-4.58,22.88-12.25l34.06-51.09c1.68-2.52,1.68-5.8,0-8.32Zm-370.33,116.66c-5.39,0-10.15-3.43-11.86-8.55l-12.15-36.45h34.19l15,45h-25.18Zm190.18,0H181.41l-15-45h179.19l-15,45Zm52.85-8.55c-1.7,5.11-6.47,8.55-11.86,8.55h-25.18l15-45h34.19l-12.15,36.45Zm80.75-57.02c-2.32,3.49-6.21,5.57-10.4,5.57H58.2c-4.19,0-8.08-2.08-10.4-5.57l-31.29-46.93,31.29-46.93c2.32-3.49,6.21-5.57,10.4-5.57H453.8c4.19,0,8.08,2.08,10.4,5.57l31.29,46.93-31.29,46.93Z"/>
  </g>
  <g>
    <circle class="cls-1" cx="256" cy="82.5" r="22.5"/>
    <path class="cls-1" d="M256,0C165.75,0,91.04,67.71,79.95,155h108.97c2.48-22.29,15.86-41.82,35.57-52.2-3.79-5.86-5.99-12.82-5.99-20.3,0-20.68,16.82-37.5,37.5-37.5s37.5,16.82,37.5,37.5c0,7.48-2.21,14.44-5.99,20.3,19.71,10.38,33.1,29.91,35.57,52.2h108.97C420.96,67.71,346.25,0,256,0Zm63.9,40.69c-1.24,2.8-3.98,4.47-6.86,4.47-1.01,0-2.04-.21-3.03-.64-.5-.22-.99-.44-1.49-.65-3.81-1.63-5.57-6.04-3.94-9.85s6.04-5.57,9.85-3.94c.55,.24,1.11,.48,1.66,.72,3.79,1.68,5.5,6.1,3.83,9.89Zm64.12,66.7c-1.11,.59-2.31,.86-3.49,.86-2.7,0-5.3-1.46-6.64-4.01-10.81-20.53-26.89-37.97-46.5-50.43-3.5-2.22-4.53-6.86-2.31-10.35,2.22-3.5,6.86-4.53,10.35-2.31,21.82,13.86,39.71,33.26,51.74,56.1,1.93,3.67,.52,8.2-3.14,10.13Z"/>
    <path class="cls-1" d="M276.22,114.06c-5.84,3.75-12.78,5.94-20.22,5.94s-14.38-2.19-20.22-5.94c-17.14,7.14-29.13,22.75-31.74,40.94h103.92c-2.61-18.19-14.6-33.8-31.74-40.94Z"/>
  </g>
</svg>