<?xml version="1.0" encoding="UTF-8"?>
<svg id="OBJECT" xmlns="http://www.w3.org/2000/svg" viewBox="0 0 32 32">
  <defs>
    <style>
      .cls-1 {
        fill: #FD4360;
      }

      .cls-1, .cls-2 {
        stroke-width: 0px;
      }

      .cls-2 {
        fill: #dadada;
      }
    </style>
  </defs>
  <rect class="cls-1" x="9" y="1" width="14" height="3"/>
  <path class="cls-1" d="m10,14h12c.55,0,1-.45,1-1v-7h-14v7c0,.55.45,1,1,1Zm2-4h1c.55,0,1,.45,1,1s-.45,1-1,1h-1c-.55,0-1-.45-1-1s.45-1,1-1Z"/>
  <g>
    <path class="cls-2" d="m6,26h-1c-.55,0-1,.45-1,1s.45,1,1,1h1c.55,0,1-.45,1-1s-.45-1-1-1Z"/>
    <path class="cls-2" d="m30,16H2c-.55,0-1,.45-1,1v13c0,.55.45,1,1,1h28c.55,0,1-.45,1-1v-13c0-.55-.45-1-1-1Zm-15,2v2H3v-2h12ZM3,29v-7h12v7H3Zm26-9h-12v-2h12v2Zm-12,9v-7h12v7h-12Z"/>
    <path class="cls-2" d="m20,26h-1c-.55,0-1,.45-1,1s.45,1,1,1h1c.55,0,1-.45,1-1s-.45-1-1-1Z"/>
  </g>
</svg>