<?xml version="1.0" encoding="UTF-8"?>
<svg id="OBJECT" xmlns="http://www.w3.org/2000/svg" viewBox="0 0 32 32">
  <defs>
    <style>
      .cls-1 {
        fill: #FD4360;
      }

      .cls-1, .cls-2 {
        stroke-width: 0px;
      }

      .cls-2 {
        fill: #dadada;
      }
    </style>
  </defs>
  <g>
    <path class="cls-2" d="m23.53,5.57c-.55,0-1,.45-1,1,0,.55.45,1,1,1h.01c.5,0,.98.2,1.33.55.36.36.55.83.55,1.34,0,.55.44,1,1,1h0c.55,0,1-.44,1-1,0-1.05-.4-2.03-1.14-2.77-.74-.74-1.69-1.15-2.77-1.14Z"/>
    <path class="cls-2" d="m29.02,3.98c-1.28-1.28-2.98-1.98-4.79-1.98h-.03c-.55,0-1,.45-1,1,0,.55.45,1,1,1h.03c1.28,0,2.47.49,3.37,1.39.91.9,1.4,2.11,1.39,3.4,0,.55.44,1,1,1h0c.55,0,1-.44,1-1,0-1.83-.69-3.54-1.98-4.82Z"/>
    <path class="cls-2" d="m22.62,10.71c.2.2.45.29.71.29s.51-.1.71-.29c.39-.39.39-1.02,0-1.41l-.32-.32c-.39-.39-1.02-.39-1.41,0s-.39,1.02,0,1.41l.32.32Z"/>
    <path class="cls-2" d="m22,18H4c-1.65,0-3,1.35-3,3v7c0,1.65,1.35,3,3,3h18c1.65,0,3-1.35,3-3v-7c0-1.65-1.35-3-3-3Zm1,10c0,.55-.45,1-1,1H4c-.55,0-1-.45-1-1v-7c0-.55.45-1,1-1h18c.55,0,1,.45,1,1v7Z"/>
    <path class="cls-2" d="m14.5,21.5h-3c-1.38,0-2.5,1.12-2.5,2.5v1c0,1.38,1.12,2.5,2.5,2.5h3c1.38,0,2.5-1.12,2.5-2.5v-1c0-1.38-1.12-2.5-2.5-2.5Zm.5,3.5c0,.28-.22.5-.5.5h-3c-.28,0-.5-.22-.5-.5v-1c0-.28.22-.5.5-.5h3c.28,0,.5.22.5.5v1Z"/>
  </g>
  <path class="cls-1" d="m9,9c0-2.21,1.79-4,4-4s4,1.79,4,4v7h3.5v-7.5c0-4.14-3.36-7.5-7.5-7.5s-7.5,3.36-7.5,7.5v7.5h3.5v-7Z"/>
</svg>