<?xml version="1.0" encoding="UTF-8"?>
<svg id="OBJECT" xmlns="http://www.w3.org/2000/svg" viewBox="0 0 32 32">
  <defs>
    <style>
      .cls-1 {
        fill: #FD4360;
      }

      .cls-1, .cls-2 {
        stroke-width: 0px;
      }

      .cls-2 {
        fill: #dadada;
      }
    </style>
  </defs>
  <g>
    <path class="cls-2" d="m30.87,6c-.27-.48-.88-.65-1.36-.37l-2.49,1.42c-.93.53-1.51,1.53-1.51,2.6v4.34c0,.55.45,1,1,1s1-.45,1-1v-4.34c0-.36.19-.69.5-.87l2.49-1.42c.48-.27.65-.88.37-1.36Z"/>
    <path class="cls-2" d="m4.5,9.66v4.34c0,.55.45,1,1,1s1-.45,1-1v-4.34c0-1.07-.58-2.07-1.51-2.6l-2.49-1.42c-.48-.28-1.09-.11-1.36.37s-.11,1.09.37,1.36l2.49,1.42c.31.18.5.51.5.87Z"/>
    <path class="cls-2" d="m25,17h-1.5v-8.5c0-4.14-3.36-7.5-7.5-7.5s-7.5,3.36-7.5,7.5v8.5h-1.5c-1.65,0-3,1.35-3,3v8c0,1.65,1.35,3,3,3h18c1.65,0,3-1.35,3-3v-8c0-1.65-1.35-3-3-3Zm-14.5-8.5c0-3.03,2.47-5.5,5.5-5.5s5.5,2.47,5.5,5.5v8.5h-1.5v-8.5c0-2.21-1.79-4-4-4s-4,1.79-4,4v8.5h-1.5v-8.5Zm7.5,8.5h-4v-8.5c0-1.1.9-2,2-2s2,.9,2,2v8.5Zm8,11c0,.55-.45,1-1,1H7c-.55,0-1-.45-1-1v-8c0-.55.45-1,1-1h18c.55,0,1,.45,1,1v8Z"/>
  </g>
  <g>
    <rect class="cls-1" x="11" y="20.5" width="10" height="7" rx="2.5" ry="2.5"/>
    <path class="cls-1" d="m23.5,22.5c-.55,0-1,.45-1,1v1c0,.55.45,1,1,1s1-.45,1-1v-1c0-.55-.45-1-1-1Z"/>
    <path class="cls-1" d="m8.5,22.5c-.55,0-1,.45-1,1v1c0,.55.45,1,1,1s1-.45,1-1v-1c0-.55-.45-1-1-1Z"/>
  </g>
</svg>