<?xml version="1.0" encoding="UTF-8"?>
<svg id="OBJECT" xmlns="http://www.w3.org/2000/svg" viewBox="0 0 32 32">
  <defs>
    <style>
      .cls-1 {
        fill: #FD4360;
      }

      .cls-1, .cls-2 {
        stroke-width: 0px;
      }

      .cls-2 {
        fill: #dadada;
      }
    </style>
  </defs>
  <g>
    <path class="cls-2" d="m25,14h-1v-5c0-4.41-3.59-8-8-8s-8,3.59-8,8v5h-1c-1.65,0-3,1.35-3,3v3c0,1.65,1.35,3,3,3h18c1.65,0,3-1.35,3-3v-3c0-1.65-1.35-3-3-3Zm-15-5c0-3.31,2.69-6,6-6s6,2.69,6,6v5h-2v-5c0-2.21-1.79-4-4-4s-4,1.79-4,4v5h-2v-5Zm8,5h-4v-5c0-1.1.9-2,2-2s2,.9,2,2v5Zm8,6c0,.55-.45,1-1,1H7c-.55,0-1-.45-1-1v-3c0-.55.45-1,1-1h18c.55,0,1,.45,1,1v3Z"/>
    <path class="cls-2" d="m9,17.5h-1c-.55,0-1,.45-1,1s.45,1,1,1h1c.55,0,1-.45,1-1s-.45-1-1-1Z"/>
    <path class="cls-2" d="m13,17.5h-1c-.55,0-1,.45-1,1s.45,1,1,1h1c.55,0,1-.45,1-1s-.45-1-1-1Z"/>
    <path class="cls-2" d="m24,17.5h-7c-.55,0-1,.45-1,1s.45,1,1,1h7c.55,0,1-.45,1-1s-.45-1-1-1Z"/>
  </g>
  <path class="cls-1" d="m26,25H6c-1.1,0-2,.9-2,2v2c0,1.1.9,2,2,2h20c1.1,0,2-.9,2-2v-2c0-1.1-.9-2-2-2Zm-17,4h-1c-.55,0-1-.45-1-1s.45-1,1-1h1c.55,0,1,.45,1,1s-.45,1-1,1Zm4,0h-1c-.55,0-1-.45-1-1s.45-1,1-1h1c.55,0,1,.45,1,1s-.45,1-1,1Zm11,0h-7c-.55,0-1-.45-1-1s.45-1,1-1h7c.55,0,1,.45,1,1s-.45,1-1,1Z"/>
</svg>