<?xml version="1.0" encoding="UTF-8"?>
<svg id="OBJECT" xmlns="http://www.w3.org/2000/svg" viewBox="0 0 32 32">
  <defs>
    <style>
      .cls-1 {
        fill: #FD4360;
      }

      .cls-1, .cls-2 {
        stroke-width: 0px;
      }

      .cls-2 {
        fill: #dadada;
      }
    </style>
  </defs>
  <path class="cls-2" d="m27.29,6.12c.87-.87,1.12-2.13.65-3.27-.47-1.14-1.54-1.85-2.77-1.85h-8.34c-.8,0-1.55.31-2.12.88l-1.27,1.27-1.3-1.3c-1.09-1.09-3-1.09-4.09,0L2.68,7.21c-1.08,1.08-1.68,2.52-1.68,4.06s.6,2.97,1.68,4.06c1.12,1.12,2.59,1.68,4.06,1.68,1.47,0,2.94-.56,4.06-1.68l5.36-5.36c1.13-1.13,1.13-2.96,0-4.09l-1.3-1.3,1.27-1.27c.19-.19.44-.29.71-.29h8.34c.62,0,.86.47.92.62.06.15.22.65-.22,1.09L4.71,25.88c-.87.87-1.12,2.13-.65,3.27.47,1.14,1.54,1.85,2.77,1.85h8.34c.8,0,1.55-.31,2.12-.88l.32-.32c.39-.39.39-1.02,0-1.41-.39-.39-1.02-.39-1.42,0l-.32.32c-.19.19-.44.29-.71.29H6.83c-.62,0-.86-.47-.92-.62-.06-.15-.22-.65.22-1.09L27.29,6.12Zm-12.55,2.43l-5.36,5.36c-1.46,1.46-3.83,1.46-5.28,0-.71-.71-1.09-1.64-1.09-2.64s.39-1.94,1.09-2.64l5.36-5.36c.17-.17.4-.26.63-.26s.46.09.63.26l1.3,1.3-1.37,1.37c-.9-.43-2.06-.29-2.78.44l-1.34,1.34c-.94.94-.94,2.48,0,3.42l.33.33c.46.46,1.06.71,1.71.71s1.25-.25,1.71-.71l1.34-1.34c.75-.75.9-1.88.44-2.79l1.36-1.36,1.3,1.3c.35.35.35.92,0,1.27Zm-4.52.17l-1.34,1.34c-.22.22-.38.21-.6,0l-.33-.33c-.16-.16-.16-.43,0-.6l1.34-1.34c.11-.11.23-.12.3-.12s.19.02.3.12l.33.33c.16.16.16.43,0,.6Z"/>
  <path class="cls-1" d="m28.81,17.2c-2.92-2.92-7.68-2.92-10.61,0-2.92,2.92-2.92,7.68,0,10.61,1.46,1.46,3.38,2.19,5.3,2.19s3.84-.73,5.3-2.19c2.92-2.92,2.92-7.68,0-10.61Zm-1.1,5.51c-.39.39-1.02.39-1.41,0l-2-2c-.16-.16-.42-.16-.59,0-.11.11-.12.23-.12.29s.02.19.12.29l1,1c.46.46.71,1.06.71,1.71s-.25,1.25-.71,1.71c-.47.47-1.09.71-1.71.71-.52,0-1.04-.18-1.48-.52l-.31.31c-.2.19-.45.29-.71.29s-.51-.1-.71-.29c-.39-.39-.39-1.02,0-1.41l.29-.29-.79-.79c-.39-.39-.39-1.02,0-1.41s1.02-.39,1.41,0l2,2c.16.16.42.16.59,0,.11-.11.12-.23.12-.29s-.02-.19-.12-.29l-1-1c-.46-.46-.71-1.06-.71-1.71s.25-1.25.71-1.71c.87-.87,2.24-.92,3.19-.19l.31-.31c.39-.39,1.02-.39,1.41,0s.39,1.02,0,1.41l-.29.29.79.79c.39.39.39,1.02,0,1.41Z"/>
</svg>