<?xml version="1.0" encoding="UTF-8"?>
<svg id="OBJECT" xmlns="http://www.w3.org/2000/svg" viewBox="0 0 32 32">
  <defs>
    <style>
      .cls-1 {
        fill: #FD4360;
      }

      .cls-1, .cls-2 {
        stroke-width: 0px;
      }

      .cls-2 {
        fill: #dadada;
      }
    </style>
  </defs>
  <g>
    <path class="cls-2" d="m27,17h-3v-8c0-.55-.45-1-1-1s-1,.45-1,1v19c0,.35.06.69.17,1h-11.17c-.55,0-1-.45-1-1V9c0-.55-.45-1-1-1s-1,.45-1,1v19c0,1.65,1.35,3,3,3h14c1.65,0,3-1.35,3-3v-10c0-.55-.45-1-1-1Zm-1,11c0,.55-.45,1-1,1s-1-.45-1-1v-9h2v9Z"/>
    <path class="cls-2" d="m16,22.25c2.21,0,4-1.79,4-4s-1.79-4-4-4-4,1.79-4,4,1.79,4,4,4Zm0-6c1.1,0,2,.9,2,2s-.9,2-2,2-2-.9-2-2,.9-2,2-2Z"/>
    <path class="cls-2" d="m15,24.75v1c0,.55.45,1,1,1s1-.45,1-1v-1c0-.55-.45-1-1-1s-1,.45-1,1Z"/>
    <path class="cls-2" d="m16,12.75c.55,0,1-.45,1-1v-1c0-.55-.45-1-1-1s-1,.45-1,1v1c0,.55.45,1,1,1Z"/>
  </g>
  <path class="cls-1" d="m28,1H4c-1.65,0-3,1.35-3,3v6c0,1.65,1.35,3,3,3h2v-5h-1c-.55,0-1-.45-1-1s.45-1,1-1h22c.55,0,1,.45,1,1s-.45,1-1,1h-1v5h2c1.65,0,3-1.35,3-3v-6c0-1.65-1.35-3-3-3Z"/>
</svg>