<?xml version="1.0" encoding="UTF-8"?>
<svg id="OBJECT" xmlns="http://www.w3.org/2000/svg" viewBox="0 0 512 512">
  <defs>
    <style>
      .cls-1 {
        fill: #FD4360;
      }

      .cls-2 {
        fill: #dadada;
      }
    </style>
  </defs>
  <g>
    <path class="cls-2" d="M409.5,260c-4.14,0-7.5,3.36-7.5,7.5v192c0,20.68-16.82,37.5-37.5,37.5h-63.5c-20.68,0-37.5-16.82-37.5-37.5V52.5c0-28.95-23.55-52.5-52.5-52.5h-78.5c-28.95,0-52.5,23.55-52.5,52.5V217h-22.5c-4.14,0-7.5,3.36-7.5,7.5v32.5h-12.5c-20.68,0-37.5,16.82-37.5,37.5v150c0,37.22,30.28,67.5,67.5,67.5h40c37.22,0,67.5-30.28,67.5-67.5v-150c0-20.68-16.82-37.5-37.5-37.5h-12.5v-32.5c0-4.14-3.36-7.5-7.5-7.5h-22.5V52.5c0-20.68,16.82-37.5,37.5-37.5h78.5c20.68,0,37.5,16.82,37.5,37.5V459.5c0,28.95,23.55,52.5,52.5,52.5h63.5c28.95,0,52.5-23.55,52.5-52.5v-192c0-4.14-3.36-7.5-7.5-7.5Zm-249.5,34.5v150c0,28.95-23.55,52.5-52.5,52.5h-40c-28.95,0-52.5-23.55-52.5-52.5v-150c0-12.41,10.09-22.5,22.5-22.5h42.5v35.12c-14,1.27-25,13.06-25,27.38v40c0,15.16,12.34,27.5,27.5,27.5h10c15.16,0,27.5-12.34,27.5-27.5v-40c0-14.32-11-26.11-25-27.38v-35.12h42.5c12.41,0,22.5,10.09,22.5,22.5Zm-77.5,27.5h10c6.89,0,12.5,5.61,12.5,12.5v40c0,6.89-5.61,12.5-12.5,12.5h-10c-6.89,0-12.5-5.61-12.5-12.5v-40c0-6.89,5.61-12.5,12.5-12.5Zm27.5-65h-45v-25h45v25Z"/>
    <path class="cls-2" d="M409.5,220c-4.14,0-7.5,3.36-7.5,7.5v10c0,4.14,3.36,7.5,7.5,7.5s7.5-3.36,7.5-7.5v-10c0-4.14-3.36-7.5-7.5-7.5Z"/>
    <path class="cls-2" d="M107.5,462h-40c-9.65,0-17.5-7.85-17.5-17.5v-15c0-4.14-3.36-7.5-7.5-7.5s-7.5,3.36-7.5,7.5v15c0,17.92,14.58,32.5,32.5,32.5h40c17.92,0,32.5-14.58,32.5-32.5v-15c0-4.14-3.36-7.5-7.5-7.5s-7.5,3.36-7.5,7.5v15c0,9.65-7.85,17.5-17.5,17.5Z"/>
  </g>
  <path class="cls-1" d="M409.5,0c-56.52,0-102.5,45.98-102.5,102.5s45.98,102.5,102.5,102.5,102.5-45.98,102.5-102.5S466.02,0,409.5,0Zm18.96,144.88v12.62c0,4.14-3.36,7.5-7.5,7.5s-7.5-3.36-7.5-7.5v-10.83h-7.92v10.83c0,4.14-3.36,7.5-7.5,7.5s-7.5-3.36-7.5-7.5v-10.83h-3.04c-4.14,0-7.5-3.36-7.5-7.5s3.36-7.5,7.5-7.5h31.73c5.66,0,10.27-4.86,10.27-10.83s-4.61-10.83-10.27-10.83h-19.46c-13.93,0-25.27-11.59-25.27-25.83,0-10.92,6.66-20.26,16.04-24.04v-12.62c0-4.14,3.36-7.5,7.5-7.5s7.5,3.36,7.5,7.5v10.83h7.92v-10.83c0-4.14,3.36-7.5,7.5-7.5s7.5,3.36,7.5,7.5v10.83h3.04c4.14,0,7.5,3.36,7.5,7.5s-3.36,7.5-7.5,7.5h-31.73c-5.66,0-10.27,4.86-10.27,10.83s4.61,10.83,10.27,10.83h19.46c13.93,0,25.27,11.59,25.27,25.83,0,10.92-6.66,20.26-16.04,24.04Z"/>
</svg>