<?xml version="1.0" encoding="UTF-8"?>
<svg id="OBJECT" xmlns="http://www.w3.org/2000/svg" viewBox="0 0 32 32">
  <defs>
    <style>
      .cls-1 {
        fill: #FD4360;
      }

      .cls-1, .cls-2 {
        stroke-width: 0px;
      }

      .cls-2 {
        fill: #dadada;
      }
    </style>
  </defs>
  <g>
    <path class="cls-2" d="m27,15H5c-2.21,0-4,1.79-4,4v8c0,2.21,1.79,4,4,4h22c2.21,0,4-1.79,4-4v-8c0-2.21-1.79-4-4-4Zm2,12c0,1.1-.9,2-2,2H5c-1.1,0-2-.9-2-2v-8c0-1.1.9-2,2-2h22c1.1,0,2,.9,2,2v8Z"/>
    <path class="cls-2" d="m16.5,19h-1c-1.38,0-2.5,1.12-2.5,2.5v3c0,1.38,1.12,2.5,2.5,2.5h1c1.38,0,2.5-1.12,2.5-2.5v-3c0-1.38-1.12-2.5-2.5-2.5Zm.5,5.5c0,.28-.22.5-.5.5h-1c-.28,0-.5-.22-.5-.5v-3c0-.28.22-.5.5-.5h1c.28,0,.5.22.5.5v3Z"/>
    <path class="cls-2" d="m8.5,19h-1c-1.38,0-2.5,1.12-2.5,2.5v3c0,1.38,1.12,2.5,2.5,2.5h1c1.38,0,2.5-1.12,2.5-2.5v-3c0-1.38-1.12-2.5-2.5-2.5Zm.5,5.5c0,.28-.22.5-.5.5h-1c-.28,0-.5-.22-.5-.5v-3c0-.28.22-.5.5-.5h1c.28,0,.5.22.5.5v3Z"/>
    <path class="cls-2" d="m24.5,19h-1c-1.38,0-2.5,1.12-2.5,2.5v3c0,1.38,1.12,2.5,2.5,2.5h1c1.38,0,2.5-1.12,2.5-2.5v-3c0-1.38-1.12-2.5-2.5-2.5Zm.5,5.5c0,.28-.22.5-.5.5h-1c-.28,0-.5-.22-.5-.5v-3c0-.28.22-.5.5-.5h1c.28,0,.5.22.5.5v3Z"/>
  </g>
  <g>
    <path class="cls-1" d="m1,11c0,1.1.9,2,2,2h26c1.1,0,2-.9,2-2v-1H1v1Z"/>
    <path class="cls-1" d="m29,1H3c-1.1,0-2,.9-2,2v5h30V3c0-1.1-.9-2-2-2Zm-7,4h-1c-.55,0-1-.45-1-1s.45-1,1-1h1c.55,0,1,.45,1,1s-.45,1-1,1Zm5,0h-1c-.55,0-1-.45-1-1s.45-1,1-1h1c.55,0,1,.45,1,1s-.45,1-1,1Z"/>
  </g>
</svg>