<?xml version="1.0" encoding="UTF-8"?>
<svg id="OBJECT" xmlns="http://www.w3.org/2000/svg" viewBox="0 0 512 512">
  <defs>
    <style>
      .cls-1 {
        fill: #FD4360;
      }

      .cls-2 {
        fill: #dadada;
      }
    </style>
  </defs>
  <g>
    <path class="cls-2" d="M509.71,164.88l-55.49-53.53c-2.79-2.69-7.17-2.81-10.11-.28l-163.9,141.37V7.5c0-4.14-3.36-7.5-7.5-7.5H44.46c-4.08,0-7.41,3.26-7.5,7.34l-1.35,63.73L2.23,201.73c-8.52,33.34,7.98,68,39.22,82.42l19.63,9.06,18.03,110.22c3.76,22.98,16.94,43.67,36.18,56.76,7.06,4.81,14.77,8.51,22.9,11.02,8.16,2.52,16.62,3.79,25.14,3.79h46.98c4.14,0,7.5-3.36,7.5-7.5s-3.36-7.5-7.5-7.5h-46.98c-7.02,0-14-1.05-20.72-3.13-6.71-2.06-13.06-5.12-18.88-9.08-15.85-10.79-26.72-27.84-29.82-46.78l-18.25-111.58c29.02-53.51,20.45-125.52,15.35-154.3-1.91-10.77-11.23-18.58-22.16-18.58h-29.38l9.44-36.96H186.15v45.21c0,25.93,21.1,47.03,47.03,47.03h32.03v122.96c0,4.14,3.36,7.5,7.5,7.5s7.5-3.36,7.5-7.5v-22.54l132.67-114.44,52.4,50.55-72.09,92.43c-2.55,3.27-1.96,7.98,1.3,10.53,1.37,1.07,2.99,1.59,4.61,1.59,2.23,0,4.44-.99,5.92-2.89l105.38-135.13c2.36-3.03,2.06-7.35-.71-10.01ZM68.86,131.54c3.64,0,6.75,2.61,7.39,6.2,4.7,26.49,12.57,91.6-11.7,140.54l-16.81-7.76c-24.67-11.38-37.7-38.75-30.98-65.08l8.66-33.9h31.92c4.14,0,7.5-3.36,7.5-7.5s-3.36-7.5-7.5-7.5H29.26l6.39-25h33.22Zm61.57-66.96H50.76l1.05-49.59h78.81l-.18,49.59Zm39.97,0h-24.97l.18-49.59h24.79v49.59Zm15,0V15h79.81v49.59h-79.81Zm47.78,92.24c-17.66,0-32.03-14.37-32.03-32.03v-45.21h64.06v77.24h-32.03Zm241.38,39.65l-50.27-48.5,24.43-21.07,45.71,44.09-19.87,25.48Z"/>
    <path class="cls-2" d="M112.62,314.04c4.09-.67,6.86-4.52,6.19-8.61l-.68-4.15c-.67-4.09-4.53-6.86-8.61-6.19-4.09,.67-6.86,4.52-6.19,8.61l.68,4.15c.6,3.68,3.78,6.29,7.39,6.29,.4,0,.81-.03,1.22-.1Z"/>
    <path class="cls-2" d="M118.59,396.98c2,12.2,9,23.19,19.22,30.15,7.56,5.15,16.38,7.87,25.53,7.87,4.14,0,7.5-3.36,7.5-7.5s-3.36-7.5-7.5-7.5c-6.12,0-12.02-1.82-17.08-5.26-6.84-4.66-11.53-12.01-12.86-20.18l-9.98-61.03c-.67-4.09-4.53-6.87-8.61-6.19-4.09,.67-6.86,4.52-6.19,8.61l9.98,61.03Z"/>
  </g>
  <g>
    <circle class="cls-1" cx="286" cy="367" r="12.5"/>
    <circle class="cls-1" cx="366" cy="447" r="12.5"/>
    <path class="cls-1" d="M326,302c-57.9,0-105,47.1-105,105s47.1,105,105,105,105-47.1,105-105-47.1-105-105-105Zm-67.5,65c0-15.16,12.34-27.5,27.5-27.5s27.5,12.34,27.5,27.5-12.34,27.5-27.5,27.5-27.5-12.34-27.5-27.5Zm22.8,95.3c-1.46,1.46-3.38,2.2-5.3,2.2s-3.84-.73-5.3-2.2c-2.93-2.93-2.93-7.68,0-10.61l100-100c2.93-2.93,7.68-2.93,10.61,0,2.93,2.93,2.93,7.68,0,10.61l-100,100Zm84.7,12.2c-15.16,0-27.5-12.34-27.5-27.5s12.34-27.5,27.5-27.5,27.5,12.34,27.5,27.5-12.34,27.5-27.5,27.5Z"/>
  </g>
</svg>