<?xml version="1.0" encoding="UTF-8" standalone="no"?>
<svg
   id="OBJECT"
   viewBox="0 0 32 32"
   version="1.1"
   sodipodi:docname="Paragraph.svg"
   inkscape:version="1.2.2 (732a01da63, 2022-12-09)"
   xml:space="preserve"
   xmlns:inkscape="http://www.inkscape.org/namespaces/inkscape"
   xmlns:sodipodi="http://sodipodi.sourceforge.net/DTD/sodipodi-0.dtd"
   xmlns="http://www.w3.org/2000/svg"
   xmlns:svg="http://www.w3.org/2000/svg"><sodipodi:namedview
     id="namedview153"
     pagecolor="#505050"
     bordercolor="#ffffff"
     borderopacity="1"
     inkscape:showpageshadow="0"
     inkscape:pageopacity="0"
     inkscape:pagecheckerboard="1"
     inkscape:deskcolor="#505050"
     showgrid="false"
     inkscape:zoom="16.000001"
     inkscape:cx="13.999999"
     inkscape:cy="27.937499"
     inkscape:window-width="1920"
     inkscape:window-height="1009"
     inkscape:window-x="-8"
     inkscape:window-y="-8"
     inkscape:window-maximized="1"
     inkscape:current-layer="OBJECT" /><defs
     id="defs140"><style
       id="style138">
      .cls-1 {
        fill: #FD4360;
      }

      .cls-1, .cls-2 {
        stroke-width: 0px;
      }

      .cls-2 {
        fill: #dadada;
      }
    </style></defs><rect
     style="fill:#dadada;fill-opacity:1;stroke-width:0.0642415"
     id="rect710"
     width="6.1832433"
     height="6.1832433"
     x="6.2333055"
     y="7.903708"
     ry="0.09743984" /><path
     style="fill:#dadada;stroke-width:0.0137405"
     d="M 17.962692,8.2890049 C 17.708225,8.2075017 17.542526,8.0536246 17.398936,7.7655183 17.295049,7.5570795 17.29028,7.4824814 17.363107,7.2052876 c 0.09602,-0.3654771 0.257265,-0.5658134 0.542781,-0.674367 0.138798,-0.052738 1.817746,-0.074547 5.55967,-0.072006 4.95723,0.00371 5.376124,0.012627 5.56406,0.1226504 0.279716,0.1638352 0.464209,0.4304808 0.504447,0.7290657 0.04274,0.3171443 -0.22881,0.8127487 -0.507503,0.9262463 -0.23517,0.095778 -10.772646,0.145395 -11.063866,0.052069 z"
     id="path372" /><path
     style="fill:#dadada;stroke-width:0.0137405"
     d="m 17.738772,12.194333 c -0.138605,-0.09487 -0.273187,-0.274796 -0.345642,-0.462131 -0.106942,-0.276496 -0.108765,-0.335783 -0.01839,-0.601036 0.09388,-0.27551 0.366546,-0.547711 0.634854,-0.633749 0.05788,-0.01862 2.497892,-0.04297 5.422241,-0.05424 l 5.31699,-0.0204 0.282279,0.16642 c 0.353169,0.208213 0.555826,0.566576 0.503333,0.890063 -0.0493,0.303785 -0.297991,0.681503 -0.516652,0.784689 -0.127018,0.05997 -1.5833,0.08159 -5.611785,0.08338 l -5.440246,0.0028 z"
     id="path374" /><path
     style="fill:#dadada;stroke-width:0.0137405"
     d="M 4.6022819,20.601025 C 4.2464125,20.444842 4.0206948,20.09023 4.0399816,19.717634 c 0.00897,-0.173404 0.046612,-0.31528 0.083636,-0.31528 0.037024,0 0.048566,-0.01871 0.025651,-0.04164 -0.051985,-0.05198 0.1604756,-0.284054 0.4123972,-0.450465 0.1826239,-0.12063 0.6749299,-0.125696 12.1446112,-0.125056 11.444866,6.29e-4 11.962382,0.0057 12.144611,0.125725 0.326562,0.214568 0.463164,0.408794 0.501497,0.71303 0.04623,0.367049 -0.117466,0.709459 -0.443232,0.927073 l -0.232314,0.155186 -11.928066,-0.0048 C 6.7010884,20.697737 4.7862748,20.681708 4.6022826,20.600952 Z"
     id="path376" /><path
     style="fill:#dadada;stroke-width:0.0137405"
     d="m 4.8078297,24.764349 c -0.6671553,-0.160283 -0.984728,-0.995365 -0.563717,-1.482342 0.348655,-0.403275 -0.5020626,-0.377434 12.4023233,-0.376813 11.45415,5.45e-4 12.386323,0.01531 12.386323,0.196585 0,0.02887 0.06131,0.118327 0.136245,0.198757 0.339359,0.364256 0.163108,1.124015 -0.315903,1.361726 -0.2602,0.129142 -0.56285,0.132723 -12.049422,0.142899 -6.48038,0.0057 -11.8785123,-0.01263 -11.9958463,-0.0408 z"
     id="path378" /><path
     style="fill:#fe4360;fill-opacity:1;stroke-width:0.0137405"
     d="m 9.2905752,16.577006 c -5.0603307,-0.01974 -4.8242948,0.0048 -5.0790049,-0.5217 C 4.0694024,15.761626 4.0673493,15.691755 4.070781,11.263695 4.0740642,7.0137594 4.0812841,6.7545315 4.2037234,6.4826878 4.4436999,5.9498869 4.1888527,5.9751256 9.3088755,5.9771089 c 2.5027385,9.403e-4 4.6161065,0.00193 4.6963775,0.00193 0.08027,3.284e-4 0.265767,0.1103199 0.412215,0.244442 l 0.266272,0.2438685 0.01903,4.6712696 c 0.01677,4.117938 0.0062,4.697374 -0.08815,4.891657 -0.122473,0.251838 -0.368622,0.4516 -0.638478,0.518155 -0.102043,0.0252 -2.210546,0.03779 -4.6855615,0.02811 z m 0.5831524,-2.925979 c 0.06253,-0.06251 0.1416034,-0.113693 0.1757214,-0.113693 0.03411,0 0.109199,-0.09118 0.166849,-0.202695 0.08118,-0.156982 0.104815,-0.45133 0.104815,-1.305346 v -1.102656 h 0.553033 c 0.602037,0 0.918429,-0.10925 0.992539,-0.342758 0.02412,-0.07596 0.0708,-0.13816 0.103712,-0.13816 0.03293,0 0.08023,-0.135827 0.105132,-0.301829 0.05906,-0.39381 -0.105175,-0.7465044 -0.470985,-1.0115055 L 11.331041,8.9342504 H 9.4337763 c -2.1207695,0 -2.2131999,0.017767 -2.5367004,0.4879059 -0.135098,0.1963225 -0.1561487,0.2979188 -0.1323008,0.6384787 0.025339,0.361868 0.055141,0.42953 0.2798823,0.635498 0.2387221,0.218769 0.2777961,0.230501 0.7678014,0.230501 H 8.328738 V 11.9527 c 0,0.564339 0.027283,1.097648 0.060626,1.185125 0.072527,0.190277 0.4003749,0.529887 0.5920493,0.613294 0.2089217,0.0909 0.7635223,0.02867 0.8923143,-0.1001 z"
     id="path380" /><path
     style="fill:#dadada;stroke-width:0.0137405"
     d="m 17.738772,16.260197 c -0.138605,-0.09487 -0.273187,-0.274796 -0.345642,-0.462131 -0.106942,-0.276496 -0.108765,-0.335783 -0.01839,-0.601036 0.09388,-0.27551 0.366546,-0.547711 0.634854,-0.633749 0.05788,-0.01862 2.497892,-0.04297 5.422241,-0.05424 l 5.31699,-0.0204 0.282279,0.16642 c 0.353169,0.208213 0.555826,0.566576 0.503333,0.890063 -0.0493,0.303785 -0.297991,0.681503 -0.516652,0.784689 -0.127018,0.05997 -1.5833,0.08159 -5.611785,0.08338 l -5.440246,0.0028 z"
     id="path759" /><path
     style="fill:#dadada;stroke-width:0.0137405"
     d="m 4.8078297,28.47666 c -0.6671553,-0.160283 -0.984728,-0.995365 -0.563717,-1.482342 0.348655,-0.403275 -0.5020626,-0.377434 12.4023233,-0.376813 11.45415,5.45e-4 12.386323,0.01531 12.386323,0.196585 0,0.02887 0.06131,0.118327 0.136245,0.198757 0.339359,0.364256 0.163108,1.124015 -0.315903,1.361726 -0.2602,0.129142 -0.56285,0.132723 -12.049422,0.142899 -6.48038,0.0057 -11.8785123,-0.01263 -11.9958463,-0.0408 z"
     id="path761" /></svg>
