<?xml version="1.0" encoding="UTF-8"?>
<svg id="OBJECT" xmlns="http://www.w3.org/2000/svg" viewBox="0 0 32 32">
  <defs>
    <style>
      .cls-1 {
        fill: #FD4360;
      }

      .cls-1, .cls-2 {
        stroke-width: 0px;
      }

      .cls-2 {
        fill: #dadada;
      }
    </style>
  </defs>
  <g>
    <path class="cls-2" d="m28,19H4c-1.65,0-3,1.35-3,3v6c0,1.65,1.35,3,3,3h24c1.65,0,3-1.35,3-3v-6c0-1.65-1.35-3-3-3Zm1,9c0,.55-.45,1-1,1H4c-.55,0-1-.45-1-1v-6c0-.55.45-1,1-1h24c.55,0,1,.45,1,1v6Z"/>
    <path class="cls-2" d="m26,24h-.5v-.5c0-.55-.45-1-1-1s-1,.45-1,1v.5h-.5c-.55,0-1,.45-1,1s.45,1,1,1h.5v.5c0,.55.45,1,1,1s1-.45,1-1v-.5h.5c.55,0,1-.45,1-1s-.45-1-1-1Z"/>
    <path class="cls-2" d="m17.5,24h-.5v-.5c0-.55-.45-1-1-1s-1,.45-1,1v.5h-.5c-.55,0-1,.45-1,1s.45,1,1,1h.5v.5c0,.55.45,1,1,1s1-.45,1-1v-.5h.5c.55,0,1-.45,1-1s-.45-1-1-1Z"/>
    <path class="cls-2" d="m9,24h-.5v-.5c0-.55-.45-1-1-1s-1,.45-1,1v.5h-.5c-.55,0-1,.45-1,1s.45,1,1,1h.5v.5c0,.55.45,1,1,1s1-.45,1-1v-.5h.5c.55,0,1-.45,1-1s-.45-1-1-1Z"/>
  </g>
  <g>
    <path class="cls-1" d="m16,1c-4.41,0-8,3.59-8,8s3.59,8,8,8,8-3.59,8-8S20.41,1,16,1Zm-.7,7h1.4c1.32,0,2.4,1.08,2.4,2.4,0,1.22-.92,2.22-2.1,2.37v.43c0,.55-.45,1-1,1s-1-.45-1-1v-.4h-1.1c-.55,0-1-.45-1-1s.45-1,1-1h2.8c.22,0,.4-.18.4-.4s-.18-.4-.4-.4h-1.4c-1.32,0-2.4-1.08-2.4-2.4,0-1.22.92-2.22,2.1-2.37v-.43c0-.55.45-1,1-1s1,.45,1,1v.4h1.1c.55,0,1,.45,1,1s-.45,1-1,1h-2.8c-.22,0-.4.18-.4.4s.18.4.4.4Z"/>
    <path class="cls-1" d="m28,8h-1c-.55,0-1,.45-1,1s.45,1,1,1h1c.55,0,1-.45,1-1s-.45-1-1-1Z"/>
    <path class="cls-1" d="m26,6.25c.17,0,.34-.04.5-.13l.87-.5c.48-.28.64-.89.37-1.37-.28-.48-.89-.64-1.37-.37l-.87.5c-.48.28-.64.89-.37,1.37.19.32.52.5.87.5Z"/>
    <path class="cls-1" d="m27.37,12.38l-.87-.5c-.48-.28-1.09-.11-1.37.37s-.11,1.09.37,1.37l.87.5c.16.09.33.13.5.13.35,0,.68-.18.87-.5.28-.48.11-1.09-.37-1.37Z"/>
    <path class="cls-1" d="m6,9c0-.55-.45-1-1-1h-1c-.55,0-1,.45-1,1s.45,1,1,1h1c.55,0,1-.45,1-1Z"/>
    <path class="cls-1" d="m6.5,4.38l-.87-.5c-.48-.28-1.09-.11-1.37.37s-.11,1.09.37,1.37l.87.5c.16.09.33.13.5.13.35,0,.68-.18.87-.5.28-.48.11-1.09-.37-1.37Z"/>
    <path class="cls-1" d="m5.5,11.88l-.87.5c-.48.28-.64.89-.37,1.37.19.32.52.5.87.5.17,0,.34-.04.5-.13l.87-.5c.48-.28.64-.89.37-1.37s-.89-.64-1.37-.37Z"/>
  </g>
</svg>