<?xml version="1.0" encoding="UTF-8"?>
<svg id="OBJECT" xmlns="http://www.w3.org/2000/svg" viewBox="0 0 32 32">
  <defs>
    <style>
      .cls-1 {
        fill: #FD4360;
      }

      .cls-2 {
        fill: #dadada;
      }
    </style>
  </defs>
  <g>
    <path class="cls-2" d="M28.5,8h-4.5v-1.5c0-1.38-1.12-2.5-2.5-2.5H10.5c-1.38,0-2.5,1.12-2.5,2.5v1.5H3.5c-1.38,0-2.5,1.12-2.5,2.5v4.5c0,.31,.15,.61,.4,.8l3.6,2.7c.43,.32,.96,.5,1.5,.5H25.5c.54,0,1.07-.18,1.5-.5l3.6-2.7c.25-.19,.4-.48,.4-.8v-4.5c0-1.38-1.12-2.5-2.5-2.5Zm-18.5-1.5c0-.28,.22-.5,.5-.5h11c.28,0,.5,.22,.5,.5v1.5H10v-1.5ZM29,14.5l-3.2,2.4c-.09,.07-.19,.1-.3,.1H6.5c-.11,0-.21-.03-.3-.1l-3.2-2.4v-4c0-.28,.22-.5,.5-.5H28.5c.28,0,.5,.22,.5,.5v4Z"/>
    <path class="cls-2" d="M22,12H10c-.55,0-1,.45-1,1s.45,1,1,1h12c.55,0,1-.45,1-1s-.45-1-1-1Z"/>
    <path class="cls-2" d="M6.5,12h-.5c-.55,0-1,.45-1,1s.45,1,1,1h.5c.55,0,1-.45,1-1s-.45-1-1-1Z"/>
    <path class="cls-2" d="M26,12h-.5c-.55,0-1,.45-1,1s.45,1,1,1h.5c.55,0,1-.45,1-1s-.45-1-1-1Z"/>
  </g>
  <g>
    <path class="cls-1" d="M14.5,23h3c.28,0,.5-.22,.5-.5v-1.5h-4v1.5c0,.28,.22,.5,.5,.5Z"/>
    <path class="cls-1" d="M27.8,20.4c-.52,.39-1.16,.6-1.8,.6h-6v1.5c0,1.38-1.12,2.5-2.5,2.5h-3c-1.38,0-2.5-1.12-2.5-2.5v-1.5H6c-.64,0-1.28-.21-1.8-.6l-1.7-1.28v6.38c0,1.38,1.12,2.5,2.5,2.5H27c1.38,0,2.5-1.12,2.5-2.5v-6.38l-1.7,1.27Z"/>
  </g>
</svg>