<?xml version="1.0" encoding="UTF-8"?>
<svg id="OBJECT" xmlns="http://www.w3.org/2000/svg" viewBox="0 0 32 32">
  <defs>
    <style>
      .cls-1 {
        fill: #FD4360;
      }

      .cls-1, .cls-2 {
        stroke-width: 0px;
      }

      .cls-2 {
        fill: #dadada;
      }
    </style>
  </defs>
  <g>
    <path class="cls-2" d="m28.5,16c-.55,0-1,.45-1,1v7h-2c-1.65,0-3,1.35-3,3v2h-13v-2c0-1.65-1.35-3-3-3h-2v-7c0-.55-.45-1-1-1s-1,.45-1,1v11c0,1.65,1.35,3,3,3h21c1.65,0,3-1.35,3-3v-11c0-.55-.45-1-1-1ZM4.5,28v-2h2c.55,0,1,.45,1,1v2h-2c-.55,0-1-.45-1-1Zm22,1h-2v-2c0-.55.45-1,1-1h2v2c0,.55-.45,1-1,1Z"/>
    <path class="cls-2" d="m14.5,25h3c1.65,0,3-1.35,3-3v-2c0-.55-.45-1-1-1s-1,.45-1,1v2c0,.55-.45,1-1,1h-3c-.55,0-1-.45-1-1v-2c0-.55-.45-1-1-1s-1,.45-1,1v2c0,1.65,1.35,3,3,3Z"/>
  </g>
  <path class="cls-1" d="m30,6h-6v-2c0-1.65-1.35-3-3-3h-10c-1.65,0-3,1.35-3,3v2H2c-.55,0-1,.45-1,1v5.64l6.24,4.16c.2.13.42.2.66.2h16.21c.24,0,.46-.07.66-.2l6.24-4.16v-5.64c0-.55-.45-1-1-1ZM6.5,12h-.5c-.55,0-1-.45-1-1s.45-1,1-1h.5c.55,0,1,.45,1,1s-.45,1-1,1Zm3.5-8c0-.55.45-1,1-1h10c.55,0,1,.45,1,1v2h-12v-2Zm12,8h-12c-.55,0-1-.45-1-1s.45-1,1-1h12c.55,0,1,.45,1,1s-.45,1-1,1Zm4,0h-.5c-.55,0-1-.45-1-1s.45-1,1-1h.5c.55,0,1,.45,1,1s-.45,1-1,1Z"/>
</svg>