<?xml version="1.0" encoding="UTF-8"?>
<svg id="OBJECT" xmlns="http://www.w3.org/2000/svg" viewBox="0 0 32 32">
  <defs>
    <style>
      .cls-1 {
        fill: #FD4360;
      }

      .cls-2 {
        fill: #dadada;
      }
    </style>
  </defs>
  <g>
    <path class="cls-2" d="M5.5,24h-.5c-.55,0-1,.45-1,1s.45,1,1,1h.5c.55,0,1-.45,1-1s-.45-1-1-1Z"/>
    <path class="cls-2" d="M9.5,24h-.5c-.55,0-1,.45-1,1s.45,1,1,1h.5c.55,0,1-.45,1-1s-.45-1-1-1Z"/>
    <path class="cls-2" d="M23,16H14.62l-1.72-3.45c-.17-.34-.52-.55-.89-.55H5c-.55,0-1,.45-1,1v8H2c-.55,0-1,.45-1,1v5.5c0,1.93,1.57,3.5,3.5,3.5H20.5c1.93,0,3.5-1.57,3.5-3.5v-10.5c0-.55-.45-1-1-1ZM4.5,29c-.83,0-1.5-.67-1.5-1.5v-4.5h14v4.5c0,.54,.12,1.04,.34,1.5H4.5Zm17.5-1.5c0,.83-.67,1.5-1.5,1.5s-1.5-.67-1.5-1.5v-5.5c0-.55-.45-1-1-1H6v-7h5.38l1,2h-2.38c-.55,0-1,.45-1,1s.45,1,1,1h12v9.5Z"/>
  </g>
  <g>
    <path class="cls-1" d="M27,7.75c0-3.72-3.03-6.75-6.75-6.75s-6.75,3.03-6.75,6.75,3.03,6.75,6.75,6.75,6.75-3.03,6.75-6.75Zm-3.77-.82l-2.78,3c-.19,.21-.46,.32-.73,.32s-.54-.12-.73-.32l-1.72-1.86c-.38-.41-.35-1.04,.05-1.41,.4-.38,1.04-.35,1.41,.05l.99,1.07,2.04-2.21c.38-.41,1.01-.43,1.41-.06,.41,.38,.43,1.01,.06,1.41Z"/>
    <path class="cls-1" d="M30.26,14.19l-2.3-2.3c-.81,1.51-2.06,2.76-3.57,3.57l2.3,2.3c.48,.48,1.11,.74,1.79,.74s1.31-.26,1.79-.74c.48-.48,.74-1.11,.74-1.79s-.26-1.31-.74-1.79Z"/>
  </g>
</svg>