<?xml version="1.0" encoding="UTF-8"?>
<svg id="OBJECT" xmlns="http://www.w3.org/2000/svg" viewBox="0 0 32 32">
  <defs>
    <style>
      .cls-1 {
        fill: #FD4360;
      }

      .cls-2 {
        fill: #dadada;
      }
    </style>
  </defs>
  <g>
    <path class="cls-2" d="m28.5,16h-14.88l-1.31-2.62c-.43-.85-1.28-1.38-2.24-1.38H3.5c-1.38,0-2.5,1.12-2.5,2.5v14c0,1.38,1.12,2.5,2.5,2.5h25c1.38,0,2.5-1.12,2.5-2.5v-10c0-1.38-1.12-2.5-2.5-2.5Zm.5,12.5c0,.28-.22.5-.5.5H3.5c-.28,0-.5-.22-.5-.5v-14c0-.28.22-.5.5-.5h6.57c.19,0,.36.11.45.28l.86,1.72h-3.38c-.55,0-1,.45-1,1s.45,1,1,1h20.5c.28,0,.5.22.5.5v10Z"/>
    <path class="cls-2" d="m7,25h-1c-.55,0-1,.45-1,1s.45,1,1,1h1c.55,0,1-.45,1-1s-.45-1-1-1Z"/>
    <path class="cls-2" d="m12,25h-1c-.55,0-1,.45-1,1s.45,1,1,1h1c.55,0,1-.45,1-1s-.45-1-1-1Z"/>
  </g>
  <circle class="cls-1" cx="23" cy="4" r="3"/>
  <path class="cls-1" d="m20.5,14h5c1.38,0,2.5-1.12,2.5-2.5v-.5c0-1.36-.55-2.6-1.44-3.5-.91.92-2.17,1.5-3.56,1.5s-2.65-.58-3.56-1.5c-.89.9-1.44,2.14-1.44,3.5v.5c0,1.38,1.12,2.5,2.5,2.5Z"/>
</svg>