<?xml version="1.0" encoding="UTF-8"?>
<svg id="OBJECT" xmlns="http://www.w3.org/2000/svg" viewBox="0 0 32 32">
  <defs>
    <style>
      .cls-1 {
        fill: #FD4360;
      }

      .cls-1, .cls-2 {
        stroke-width: 0px;
      }

      .cls-2 {
        fill: #dadada;
      }
    </style>
  </defs>
  <g>
    <path class="cls-2" d="m29,18.5c-.55,0-1,.45-1,1v4.5h-2c-1.65,0-3,1.35-3,3v2h-14v-2c0-1.65-1.35-3-3-3h-2v-4.5c0-.55-.45-1-1-1s-1,.45-1,1v8.5c0,1.65,1.35,3,3,3h22c1.65,0,3-1.35,3-3v-8.5c0-.55-.45-1-1-1ZM4,28v-2h2c.55,0,1,.45,1,1v2h-2c-.55,0-1-.45-1-1Zm23,1h-2v-2c0-.55.45-1,1-1h2v2c0,.55-.45,1-1,1Z"/>
    <path class="cls-2" d="m15.5,26h1c1.65,0,3-1.35,3-3v-2c0-.55-.45-1-1-1s-1,.45-1,1v2c0,.55-.45,1-1,1h-1c-.55,0-1-.45-1-1v-2c0-.55-.45-1-1-1s-1,.45-1,1v2c0,1.65,1.35,3,3,3Z"/>
  </g>
  <g>
    <rect class="cls-1" x="13.5" y="11" width="5" height="2" rx=".5" ry=".5"/>
    <rect class="cls-1" x="23.5" y="11" width="2" height="2" rx=".5" ry=".5"/>
    <rect class="cls-1" x="6.5" y="11" width="2" height="2" rx=".5" ry=".5"/>
    <path class="cls-1" d="m30,6h-5v-2c0-1.65-1.35-3-3-3h-12c-1.65,0-3,1.35-3,3v2H2c-.55,0-1,.45-1,1v8.38l7.24,3.62h15.53l7.24-3.62V7c0-.55-.45-1-1-1Zm-21-2c0-.55.45-1,1-1h12c.55,0,1,.45,1,1v2h-14v-2Zm1.5,8.5c0,1.38-1.12,2.5-2.5,2.5h-1c-1.38,0-2.5-1.12-2.5-2.5v-1c0-1.38,1.12-2.5,2.5-2.5h1c1.38,0,2.5,1.12,2.5,2.5v1Zm10,0c0,1.38-1.12,2.5-2.5,2.5h-4c-1.38,0-2.5-1.12-2.5-2.5v-1c0-1.38,1.12-2.5,2.5-2.5h4c1.38,0,2.5,1.12,2.5,2.5v1Zm7,0c0,1.38-1.12,2.5-2.5,2.5h-1c-1.38,0-2.5-1.12-2.5-2.5v-1c0-1.38,1.12-2.5,2.5-2.5h1c1.38,0,2.5,1.12,2.5,2.5v1Z"/>
  </g>
</svg>