<?xml version="1.0" encoding="UTF-8"?>
<svg id="OBJECT" xmlns="http://www.w3.org/2000/svg" viewBox="0 0 32 32">
  <defs>
    <style>
      .cls-1 {
        fill: #FD4360;
      }

      .cls-1, .cls-2 {
        stroke-width: 0px;
      }

      .cls-2 {
        fill: #dadada;
      }
    </style>
  </defs>
  <g>
    <path class="cls-2" d="m30,6h-7v-2c0-1.65-1.35-3-3-3h-8c-1.65,0-3,1.35-3,3v2H2c-.55,0-1,.45-1,1v10c0,2.76,2.24,5,5,5h20c2.76,0,5-2.24,5-5V7c0-.55-.45-1-1-1Zm-19-2c0-.55.45-1,1-1h8c.55,0,1,.45,1,1v2h-10v-2Zm18,13c0,1.65-1.35,3-3,3H6c-1.65,0-3-1.35-3-3v-9h26v9Z"/>
    <path class="cls-2" d="m6,13h16v2c0,.55.45,1,1,1s1-.45,1-1v-2h2c.55,0,1-.45,1-1s-.45-1-1-1H6c-.55,0-1,.45-1,1s.45,1,1,1Z"/>
  </g>
  <g>
    <path class="cls-1" d="m15,26h2c.28,0,.5-.22.5-.5v-1.5h-3v1.5c0,.28.22.5.5.5Z"/>
    <path class="cls-1" d="m26,24h-6.5v1.5c0,1.38-1.12,2.5-2.5,2.5h-2c-1.38,0-2.5-1.12-2.5-2.5v-1.5h-6.5c-1.49,0-2.86-.47-4-1.26v5.26c0,1.65,1.35,3,3,3h22c1.65,0,3-1.35,3-3v-5.26c-1.14.79-2.51,1.26-4,1.26Z"/>
  </g>
</svg>