<?xml version="1.0" encoding="UTF-8"?>
<svg id="OBJECT" xmlns="http://www.w3.org/2000/svg" viewBox="0 0 32 32">
  <defs>
    <style>
      .cls-1 {
        fill: #FD4360;
      }

      .cls-2 {
        fill: #dadada;
      }
    </style>
  </defs>
  <path class="cls-2" d="M30,8h-13.38l-1.72-3.45c-.17-.34-.52-.55-.89-.55H5c-.55,0-1,.45-1,1v7c0,.55,.45,1,1,1s1-.45,1-1V6h7.38l1,2h-2.38c-.55,0-1,.45-1,1s.45,1,1,1H29v14.5c0,.83-.67,1.5-1.5,1.5h-1.36c-.55,0-1,.45-1,1s.45,1,1,1h1.36c1.93,0,3.5-1.57,3.5-3.5V9c0-.55-.45-1-1-1Z"/>
  <g>
    <rect class="cls-1" x="15.5" y="20" width="3" height="2" rx=".5" ry=".5"/>
    <rect class="cls-1" x="6.5" y="20" width="3" height="2" rx=".5" ry=".5"/>
    <path class="cls-1" d="M23,26V15H1v9.5c0,1.93,1.57,3.5,3.5,3.5H23.56c-.34-.59-.56-1.27-.56-2Zm-11.5-4.5c0,1.38-1.12,2.5-2.5,2.5h-2c-1.38,0-2.5-1.12-2.5-2.5v-1c0-1.38,1.12-2.5,2.5-2.5h2c1.38,0,2.5,1.12,2.5,2.5v1Zm9,0c0,1.38-1.12,2.5-2.5,2.5h-2c-1.38,0-2.5-1.12-2.5-2.5v-1c0-1.38,1.12-2.5,2.5-2.5h2c1.38,0,2.5,1.12,2.5,2.5v1Z"/>
  </g>
</svg>