<?xml version="1.0" encoding="UTF-8"?>
<svg id="OBJECT" xmlns="http://www.w3.org/2000/svg" viewBox="0 0 32 32">
  <defs>
    <style>
      .cls-1 {
        fill: #FD4360;
      }

      .cls-1, .cls-2 {
        stroke-width: 0px;
      }

      .cls-2 {
        fill: #dadada;
      }
    </style>
  </defs>
  <g>
    <path class="cls-2" d="m30,20h-4v-3c0-.55-.45-1-1-1h-14.22l-.43-1.73c-.33-1.34-1.53-2.27-2.91-2.27H2c-.55,0-1,.45-1,1v14.5c0,1.93,1.57,3.5,3.5,3.5h23c1.93,0,3.5-1.57,3.5-3.5v-6.5c0-.55-.45-1-1-1ZM4.5,29c-.83,0-1.5-.67-1.5-1.5v-13.5h4.44c.46,0,.86.31.97.76l.31,1.24h-2.72c-.55,0-1,.45-1,1s.45,1,1,1h18v9.5c0,.54.12,1.04.34,1.5H4.5Zm24.5-1.5c0,.83-.67,1.5-1.5,1.5s-1.5-.67-1.5-1.5v-5.5h3v5.5Z"/>
    <path class="cls-2" d="m7,25h-1c-.55,0-1,.45-1,1s.45,1,1,1h1c.55,0,1-.45,1-1s-.45-1-1-1Z"/>
    <path class="cls-2" d="m12,25h-1c-.55,0-1,.45-1,1s.45,1,1,1h1c.55,0,1-.45,1-1s-.45-1-1-1Z"/>
  </g>
  <path class="cls-1" d="m12.35,12.27l.43,1.73h9.72V2c0-.55-.45-1-1-1H5.5c-.55,0-1,.45-1,1v8h4.94c1.38,0,2.58.93,2.91,2.27Zm6.65.23h-4c-.55,0-1-.45-1-1s.45-1,1-1h4c.55,0,1,.45,1,1s-.45,1-1,1ZM12,2.5h7c.55,0,1,.45,1,1s-.45,1-1,1h-7c-.55,0-1-.45-1-1s.45-1,1-1Zm-4,0h.5c.55,0,1,.45,1,1s-.45,1-1,1h-.5c-.55,0-1-.45-1-1s.45-1,1-1Zm-1,5c0-.55.45-1,1-1h11c.55,0,1,.45,1,1s-.45,1-1,1h-11c-.55,0-1-.45-1-1Z"/>
</svg>