<?xml version="1.0" encoding="UTF-8"?>
<svg id="OBJECT" xmlns="http://www.w3.org/2000/svg" viewBox="0 0 32 32">
  <defs>
    <style>
      .cls-1 {
        fill: #FD4360;
      }

      .cls-1, .cls-2 {
        stroke-width: 0px;
      }

      .cls-2 {
        fill: #dadada;
      }
    </style>
  </defs>
  <path class="cls-1" d="m10.5,4c0-.55.45-1,1-1h9c.55,0,1,.45,1,1v1h2v-1c0-1.65-1.35-3-3-3h-9c-1.65,0-3,1.35-3,3v1h2v-1Z"/>
  <path class="cls-1" d="m28,7H4c-1.65,0-3,1.35-3,3v4.89l15,2.14,15-2.14v-4.89c0-1.65-1.35-3-3-3Zm-10.25,7.02h-4c-.55,0-1-.45-1-1s.45-1,1-1h4c.55,0,1,.45,1,1s-.45,1-1,1Z"/>
  <g>
    <path class="cls-2" d="m29,16.04c-.55,0-1,.45-1,1v10.92c0,.57-.47,1.04-1.04,1.04H5.04c-.57,0-1.04-.47-1.04-1.04v-.96h16.5c.55,0,1-.45,1-1s-.45-1-1-1H4v-7.96c0-.55-.45-1-1-1s-1,.45-1,1v10.92c0,1.68,1.36,3.04,3.04,3.04h21.92c1.68,0,3.04-1.36,3.04-3.04v-10.92c0-.55-.45-1-1-1Z"/>
    <path class="cls-2" d="m24,25c-.55,0-1,.45-1,1s.45,1,1,1h1c.55,0,1-.45,1-1s-.45-1-1-1h-1Z"/>
    <path class="cls-2" d="m8.5,23.49h1c1.38,0,2.5-1.12,2.5-2.5v-2.5c0-.55-.45-1-1-1s-1,.45-1,1v2.5c0,.28-.22.5-.5.5h-1c-.28,0-.5-.22-.5-.5v-3.5c0-.55-.45-1-1-1s-1,.45-1,1v3.5c0,1.38,1.12,2.5,2.5,2.5Z"/>
    <path class="cls-2" d="m22.5,23.49h1c1.38,0,2.5-1.12,2.5-2.5v-3.5c0-.55-.45-1-1-1s-1,.45-1,1v3.5c0,.28-.22.5-.5.5h-1c-.28,0-.5-.22-.5-.5v-2.5c0-.55-.45-1-1-1s-1,.45-1,1v2.5c0,1.38,1.12,2.5,2.5,2.5Z"/>
  </g>
</svg>