<?xml version="1.0" encoding="UTF-8"?>
<svg id="OBJECT" xmlns="http://www.w3.org/2000/svg" viewBox="0 0 32 32">
  <defs>
    <style>
      .cls-1 {
        fill: #FD4360;
      }

      .cls-1, .cls-2 {
        stroke-width: 0px;
      }

      .cls-2 {
        fill: #dadada;
      }
    </style>
  </defs>
  <g>
    <path class="cls-2" d="m30,6h-5.5v-2c0-1.65-1.35-3-3-3h-11c-1.65,0-3,1.35-3,3v2H2c-.55,0-1,.45-1,1v11c0,.42.27.8.66.94,1.4.5,2.86.92,4.34,1.27v2.79c0,.27.11.52.29.71l2,2c.2.2.45.29.71.29s.51-.1.71-.29l2-2c.19-.19.29-.44.29-.71v-1.79c1.33.13,2.66.21,4,.21s2.67-.08,4-.21v1.79c0,.27.11.52.29.71l2,2c.2.2.45.29.71.29s.51-.1.71-.29l2-2c.19-.19.29-.44.29-.71v-2.79c1.47-.36,2.93-.77,4.34-1.27.4-.14.66-.52.66-.94V7c0-.55-.45-1-1-1Zm-20.5-2c0-.55.45-1,1-1h11c.55,0,1,.45,1,1v2h-13v-2Zm-6.5,13.29v-9.29h3v10.16c-1.01-.26-2.02-.54-3-.87Zm6,6.3l-1-1v-14.59h2v14.59l-1,1Zm3-4.38v-11.21h8v11.21c-2.66.26-5.34.26-8,0Zm11,4.38l-1-1v-14.59h2v14.59l-1,1Zm6-6.3c-.98.33-1.99.61-3,.87v-10.16h3v9.29Z"/>
    <path class="cls-2" d="m17.5,10.28h-3c-.55,0-1,.45-1,1s.45,1,1,1h3c.55,0,1-.45,1-1s-.45-1-1-1Z"/>
  </g>
  <path class="cls-1" d="m28,21.76v1.24c0,.8-.31,1.55-.88,2.12l-2,2c-.57.57-1.32.88-2.12.88s-1.55-.31-2.12-.88l-2-2c-.48-.48-.76-1.1-.84-1.76-.68.03-1.35.06-2.04.06s-1.36-.02-2.04-.06c-.08.66-.36,1.28-.84,1.76l-2,2c-.57.57-1.32.88-2.12.88s-1.55-.31-2.12-.88l-2-2c-.57-.57-.88-1.32-.88-2.12v-1.24c-.5-.14-1-.27-1.5-.43v6.67c0,1.65,1.35,3,3,3h21c1.65,0,3-1.35,3-3v-6.67c-.5.16-1,.29-1.5.43Z"/>
</svg>