<?xml version="1.0" encoding="UTF-8"?>
<svg id="OBJECT" xmlns="http://www.w3.org/2000/svg" viewBox="0 0 32 32">
  <defs>
    <style>
      .cls-1 {
        fill: #FD4360;
      }

      .cls-1, .cls-2 {
        stroke-width: 0px;
      }

      .cls-2 {
        fill: #dadada;
      }
    </style>
  </defs>
  <g>
    <path class="cls-2" d="m30,5.81h-8v-1.81c0-1.65-1.35-3-3-3h-6c-1.65,0-3,1.35-3,3v1.81H2c-.55,0-1,.45-1,1v10.19c0,.47.33.88.79.98l14,3c.07.01.14.02.21.02s.14,0,.21-.02l14-3c.46-.1.79-.51.79-.98V6.81c0-.55-.45-1-1-1Zm-18-1.81c0-.55.45-1,1-1h6c.55,0,1,.45,1,1v1.81h-8v-1.81Zm17,12.19l-13,2.79-13-2.79V7.81h26v8.38Z"/>
    <path class="cls-2" d="m6,12.81h20c.55,0,1-.45,1-1s-.45-1-1-1H6c-.55,0-1,.45-1,1s.45,1,1,1Z"/>
  </g>
  <g>
    <path class="cls-1" d="m15.15,25.04h1.67c.37,0,.67-.3.67-.67v-1.48l-1.27.27c-.07.01-.14.02-.21.02s-.14,0-.21-.02l-1.31-.28v1.48c0,.37.3.67.67.67Z"/>
    <path class="cls-1" d="m19.46,22.47c0,.08.02.15.02.23v1.67c0,1.47-1.2,2.67-2.67,2.67h-1.67c-1.47,0-2.67-1.2-2.67-2.67v-1.67c0-.08.01-.16.02-.24l-10.5-2.25v9.79c0,.55.45,1,1,1h26c.55,0,1-.45,1-1v-9.79l-10.54,2.26Z"/>
  </g>
</svg>