<?xml version="1.0" encoding="UTF-8"?>
<svg id="OBJECT" xmlns="http://www.w3.org/2000/svg" viewBox="0 0 32 32">
  <defs>
    <style>
      .cls-1 {
        fill: #FD4360;
      }

      .cls-1, .cls-2 {
        stroke-width: 0px;
      }

      .cls-2 {
        fill: #dadada;
      }
    </style>
  </defs>
  <g>
    <path class="cls-2" d="m5.5,12h17v1c0,.55.45,1,1,1s1-.45,1-1v-1h2c.55,0,1-.45,1-1s-.45-1-1-1H5.5c-.55,0-1,.45-1,1s.45,1,1,1Z"/>
    <path class="cls-2" d="m30,6h-5.5v-2.5c0-1.38-1.12-2.5-2.5-2.5h-12c-1.38,0-2.5,1.12-2.5,2.5v2.5H2c-.55,0-1,.45-1,1v11c0,2.21,1.79,4,4,4h22c2.21,0,4-1.79,4-4V7c0-.55-.45-1-1-1ZM9.5,3.5c0-.28.22-.5.5-.5h12c.28,0,.5.22.5.5v2.5h-13v-2.5Zm19.5,14.5c0,1.1-.9,2-2,2H5c-1.1,0-2-.9-2-2v-10h26v10Z"/>
  </g>
  <g>
    <path class="cls-1" d="m21,26h1c.28,0,.5-.22.5-.5v-1.5h-2v1.5c0,.28.22.5.5.5Z"/>
    <path class="cls-1" d="m10,26h1c.28,0,.5-.22.5-.5v-1.5h-2v1.5c0,.28.22.5.5.5Z"/>
    <path class="cls-1" d="m27,24h-2.5v1.5c0,1.38-1.12,2.5-2.5,2.5h-1c-1.38,0-2.5-1.12-2.5-2.5v-1.5h-5v1.5c0,1.38-1.12,2.5-2.5,2.5h-1c-1.38,0-2.5-1.12-2.5-2.5v-1.5h-2.5c-1.09,0-2.12-.3-3-.81v5.31c0,1.38,1.12,2.5,2.5,2.5h23c1.38,0,2.5-1.12,2.5-2.5v-5.31c-.88.51-1.91.81-3,.81Z"/>
  </g>
</svg>