<?xml version="1.0" encoding="UTF-8"?>
<svg id="OBJECT" xmlns="http://www.w3.org/2000/svg" viewBox="0 0 32 32">
  <defs>
    <style>
      .cls-1 {
        fill: #FD4360;
      }

      .cls-2 {
        fill: #dadada;
      }
    </style>
  </defs>
  <g>
    <path class="cls-2" d="m28,6h-4v-2c0-1.65-1.35-3-3-3h-10c-1.65,0-3,1.35-3,3v2h-4c-1.65,0-3,1.35-3,3v7c0,.3.14.59.38.78l5,4c.18.14.4.22.62.22h18c.23,0,.45-.08.62-.22l5-4c.24-.19.38-.48.38-.78v-7c0-1.65-1.35-3-3-3Zm-18-2c0-.55.45-1,1-1h10c.55,0,1,.45,1,1v2h-12v-2Zm19,11.52l-4.35,3.48H7.35l-4.35-3.48v-6.52c0-.55.45-1,1-1h24c.55,0,1,.45,1,1v6.52Z"/>
    <path class="cls-2" d="m21,10h-10c-.55,0-1,.45-1,1s.45,1,1,1h10c.55,0,1-.45,1-1s-.45-1-1-1Z"/>
    <path class="cls-2" d="m26,10h-1c-.55,0-1,.45-1,1s.45,1,1,1h1c.55,0,1-.45,1-1s-.45-1-1-1Z"/>
    <path class="cls-2" d="m7,10h-1c-.55,0-1,.45-1,1s.45,1,1,1h1c.55,0,1-.45,1-1s-.45-1-1-1Z"/>
  </g>
  <g>
    <path class="cls-1" d="m14.5,25h3c.28,0,.5-.22.5-.5v-1.5h-4v1.5c0,.28.22.5.5.5Z"/>
    <path class="cls-1" d="m26.87,22.34c-.53.42-1.19.66-1.87.66h-5v1.5c0,1.38-1.12,2.5-2.5,2.5h-3c-1.38,0-2.5-1.12-2.5-2.5v-1.5h-5c-.68,0-1.35-.23-1.88-.66l-2.62-2.1v7.76c0,1.65,1.35,3,3,3h21c1.65,0,3-1.35,3-3v-7.76l-2.63,2.1Z"/>
  </g>
</svg>