<?xml version="1.0" encoding="UTF-8"?>
<svg id="OBJECT" xmlns="http://www.w3.org/2000/svg" viewBox="0 0 32 32">
  <defs>
    <style>
      .cls-1 {
        fill: #FD4360;
      }

      .cls-1, .cls-2 {
        stroke-width: 0px;
      }

      .cls-2 {
        fill: #dadada;
      }
    </style>
  </defs>
  <path class="cls-1" d="m16,8.5c-4.96,0-9,4.04-9,9s4.04,9,9,9,9-4.04,9-9-4.04-9-9-9Zm-.74,8h1.48c1.37,0,2.48,1.11,2.48,2.48,0,1.28-.98,2.32-2.22,2.46v.51c0,.55-.45,1-1,1s-1-.45-1-1v-.48h-1.22c-.55,0-1-.45-1-1s.45-1,1-1h2.96c.27,0,.48-.22.48-.48s-.22-.48-.48-.48h-1.48c-1.37,0-2.48-1.11-2.48-2.48,0-1.28.98-2.32,2.22-2.46v-.51c0-.55.45-1,1-1s1,.45,1,1v.48h1.22c.55,0,1,.45,1,1s-.45,1-1,1h-2.96c-.27,0-.48.22-.48.48s.22.48.48.48Z"/>
  <path class="cls-2" d="m28,4h-1v-2c0-.55-.45-1-1-1s-1,.45-1,1v2h-2v-2c0-.55-.45-1-1-1s-1,.45-1,1v2h-10v-2c0-.55-.45-1-1-1s-1,.45-1,1v2h-2v-2c0-.55-.45-1-1-1s-1,.45-1,1v2h-1c-1.65,0-3,1.35-3,3v21c0,1.65,1.35,3,3,3h24c1.65,0,3-1.35,3-3V7c0-1.65-1.35-3-3-3Zm1,24c0,.55-.45,1-1,1H4c-.55,0-1-.45-1-1V7c0-.55.45-1,1-1h1v2c0,.55.45,1,1,1s1-.45,1-1v-2h2v2c0,.55.45,1,1,1s1-.45,1-1v-2h10v2c0,.55.45,1,1,1s1-.45,1-1v-2h2v2c0,.55.45,1,1,1s1-.45,1-1v-2h1c.55,0,1,.45,1,1v21Z"/>
</svg>