<?xml version="1.0" encoding="UTF-8"?>
<svg id="OBJECT" xmlns="http://www.w3.org/2000/svg" viewBox="0 0 32 32">
  <defs>
    <style>
      .cls-1 {
        fill: #FD4360;
      }

      .cls-1, .cls-2 {
        stroke-width: 0px;
      }

      .cls-2 {
        fill: #dadada;
      }
    </style>
  </defs>
  <path class="cls-1" d="m23,17c-3.31,0-6,2.69-6,6s2.69,6,6,6,6-2.69,6-6-2.69-6-6-6Zm3.81,4.77l-3.83,3.87c-.19.19-.44.3-.71.3h0c-.26,0-.52-.11-.71-.29l-2.36-2.36c-.39-.39-.39-1.02,0-1.41.39-.39,1.02-.39,1.41,0l1.65,1.65,3.13-3.16c.39-.39,1.02-.4,1.41,0,.39.39.4,1.02,0,1.41Z"/>
  <g>
    <path class="cls-2" d="m13.26,12.06h2.94c.55,0,1-.45,1-1s-.45-1-1-1h-1.21v-.47c0-.55-.45-1-1-1s-1,.45-1,1v.5c-1.24.13-2.21,1.17-2.21,2.44,0,1.36,1.11,2.47,2.47,2.47h1.47c.26,0,.47.21.47.47s-.21.47-.47.47h-2.94c-.55,0-1,.45-1,1s.45,1,1,1h1.21v.47c0,.55.45,1,1,1s1-.45,1-1v-.5c1.24-.13,2.21-1.17,2.21-2.44,0-1.36-1.11-2.47-2.47-2.47h-1.47c-.26,0-.47-.21-.47-.47s.21-.47.47-.47Z"/>
    <path class="cls-2" d="m14,1C6.83,1,1,6.83,1,14s5.83,13,13,13c.5,0,1.03-.03,1.62-.1.52-.04.93-.47.93-1,0-.59-.54-1.07-1.12-.99-.52.06-.99.09-1.42.09-6.07,0-11-4.93-11-11S7.93,3,14,3s11,4.93,11,11c0,.44-.03.9-.09,1.42-.07.55.33,1.05.87,1.11.54.06,1.05-.33,1.11-.87.07-.6.11-1.14.11-1.66,0-7.17-5.83-13-13-13Z"/>
    <path class="cls-2" d="m14,4.82c-5.06,0-9.18,4.12-9.18,9.18s4.12,9.18,9.18,9.18c.44,0,.83-.03,1.19-.08.55-.08.92-.59.84-1.13-.08-.55-.59-.93-1.13-.84-.27.04-.57.06-.9.06-3.96,0-7.18-3.22-7.18-7.18s3.22-7.18,7.18-7.18,7.18,3.22,7.18,7.18c0,.34-.02.63-.06.9-.08.55.3,1.05.84,1.14.55.08,1.06-.3,1.14-.84.05-.37.08-.76.08-1.2,0-5.06-4.12-9.18-9.18-9.18Z"/>
  </g>
</svg>