<?xml version="1.0" encoding="UTF-8"?>
<svg id="OBJECT" xmlns="http://www.w3.org/2000/svg" viewBox="0 0 512 512">
  <defs>
    <style>
      .cls-1 {
        fill: #FD4360;
      }

      .cls-2 {
        fill: #dadada;
      }
    </style>
  </defs>
  <g>
    <path class="cls-2" d="M367.5,257H7.5c-4.14,0-7.5,3.36-7.5,7.5v240c0,4.14,3.36,7.5,7.5,7.5H367.5c4.14,0,7.5-3.36,7.5-7.5v-240c0-4.14-3.36-7.5-7.5-7.5Zm-7.5,15v25H15v-25H360Zm0,40v25H15v-25H360ZM15,497v-145H360v145H15Z"/>
    <path class="cls-2" d="M504.5,0H134.5c-4.14,0-7.5,3.36-7.5,7.5V217.5c0,4.14,3.36,7.5,7.5,7.5H504.5c4.14,0,7.5-3.36,7.5-7.5V7.5c0-4.14-3.36-7.5-7.5-7.5Zm-7.5,60h-12.5c-17.92,0-32.5-14.58-32.5-32.5V15h45V60Zm-60,137.5v12.5H202v-12.5c0-26.19-21.31-47.5-47.5-47.5h-12.5V75h12.5c26.19,0,47.5-21.31,47.5-47.5V15h235v12.5c0,26.19,21.31,47.5,47.5,47.5h12.5v75h-12.5c-26.19,0-47.5,21.31-47.5,47.5ZM187,15v12.5c0,17.92-14.58,32.5-32.5,32.5h-12.5V15h45Zm-45,150h12.5c17.92,0,32.5,14.58,32.5,32.5v12.5h-45v-45Zm310,45v-12.5c0-17.92,14.58-32.5,32.5-32.5h12.5v45h-45Z"/>
    <path class="cls-2" d="M44.5,235c4.14,0,7.5-3.36,7.5-7.5v-35c0-4.14,3.36-7.5,7.5-7.5h35c4.14,0,7.5-3.36,7.5-7.5s-3.36-7.5-7.5-7.5H59.5c-12.41,0-22.5,10.09-22.5,22.5v35c0,4.14,3.36,7.5,7.5,7.5Z"/>
    <path class="cls-2" d="M457.5,250c-4.14,0-7.5,3.36-7.5,7.5v35c0,4.14-3.36,7.5-7.5,7.5h-35c-4.14,0-7.5,3.36-7.5,7.5s3.36,7.5,7.5,7.5h35c12.41,0,22.5-10.09,22.5-22.5v-35c0-4.14-3.36-7.5-7.5-7.5Z"/>
  </g>
  <g>
    <path class="cls-1" d="M117.5,387H57.5c-9.65,0-17.5,7.85-17.5,17.5v50c0,9.65,7.85,17.5,17.5,17.5h60c9.65,0,17.5-7.85,17.5-17.5v-50c0-9.65-7.85-17.5-17.5-17.5Zm-37.5,52.5c0,4.14-3.36,7.5-7.5,7.5s-7.5-3.36-7.5-7.5v-20c0-4.14,3.36-7.5,7.5-7.5s7.5,3.36,7.5,7.5v20Zm30,0c0,4.14-3.36,7.5-7.5,7.5s-7.5-3.36-7.5-7.5v-20c0-4.14,3.36-7.5,7.5-7.5s7.5,3.36,7.5,7.5v20Z"/>
    <rect class="cls-1" x="160" y="387" width="175" height="55" rx="17.5" ry="17.5"/>
    <path class="cls-1" d="M327.5,457h-100c-4.14,0-7.5,3.36-7.5,7.5s3.36,7.5,7.5,7.5h100c4.14,0,7.5-3.36,7.5-7.5s-3.36-7.5-7.5-7.5Z"/>
    <path class="cls-1" d="M177.5,457h-10c-4.14,0-7.5,3.36-7.5,7.5s3.36,7.5,7.5,7.5h10c4.14,0,7.5-3.36,7.5-7.5s-3.36-7.5-7.5-7.5Z"/>
    <path class="cls-1" d="M207.5,457h-10c-4.14,0-7.5,3.36-7.5,7.5s3.36,7.5,7.5,7.5h10c4.14,0,7.5-3.36,7.5-7.5s-3.36-7.5-7.5-7.5Z"/>
    <path class="cls-1" d="M330.12,105h-21.23c-6.55,0-11.88-5.61-11.88-12.5s5.33-12.5,11.88-12.5h34.62c4.14,0,7.5-3.36,7.5-7.5s-3.36-7.5-7.5-7.5h-4v-12.5c0-4.14-3.36-7.5-7.5-7.5s-7.5,3.36-7.5,7.5v12.5h-10v-12.5c0-4.14-3.36-7.5-7.5-7.5s-7.5,3.36-7.5,7.5v14.23c-10.21,3.9-17.5,13.98-17.5,25.77,0,15.16,12.06,27.5,26.88,27.5h21.23c6.55,0,11.88,5.61,11.88,12.5s-5.33,12.5-11.88,12.5h-34.62c-4.14,0-7.5,3.36-7.5,7.5s3.36,7.5,7.5,7.5h4v12.5c0,4.14,3.36,7.5,7.5,7.5s7.5-3.36,7.5-7.5v-12.5h10v12.5c0,4.14,3.36,7.5,7.5,7.5s7.5-3.36,7.5-7.5v-14.23c10.21-3.9,17.5-13.98,17.5-25.77,0-15.16-12.06-27.5-26.88-27.5Z"/>
    <path class="cls-1" d="M412,105h-25c-4.14,0-7.5,3.36-7.5,7.5s3.36,7.5,7.5,7.5h25c4.14,0,7.5-3.36,7.5-7.5s-3.36-7.5-7.5-7.5Z"/>
    <path class="cls-1" d="M227,120h25c4.14,0,7.5-3.36,7.5-7.5s-3.36-7.5-7.5-7.5h-25c-4.14,0-7.5,3.36-7.5,7.5s3.36,7.5,7.5,7.5Z"/>
  </g>
</svg>