<?xml version="1.0" encoding="UTF-8"?>
<svg id="OBJECT" xmlns="http://www.w3.org/2000/svg" viewBox="0 0 32 32">
  <defs>
    <style>
      .cls-1 {
        fill: #FD4360;
      }

      .cls-2 {
        fill: #dadada;
      }
    </style>
  </defs>
  <g>
    <path class="cls-2" d="M13,4.5H7c-1.38,0-2.5,1.12-2.5,2.5v5c0,1.38,1.12,2.5,2.5,2.5h6c1.38,0,2.5-1.12,2.5-2.5V7c0-1.38-1.12-2.5-2.5-2.5Zm.5,7.5c0,.28-.22,.5-.5,.5H7c-.28,0-.5-.22-.5-.5V7c0-.28,.22-.5,.5-.5h6c.28,0,.5,.22,.5,.5v5Z"/>
    <path class="cls-2" d="M6.25,16.5h-.5c-.55,0-1,.45-1,1s.45,1,1,1h.5c.55,0,1-.45,1-1s-.45-1-1-1Z"/>
    <path class="cls-2" d="M10.25,16.5h-.5c-.55,0-1,.45-1,1s.45,1,1,1h.5c.55,0,1-.45,1-1s-.45-1-1-1Z"/>
    <path class="cls-2" d="M14.25,16.5h-.5c-.55,0-1,.45-1,1s.45,1,1,1h.5c.55,0,1-.45,1-1s-.45-1-1-1Z"/>
    <path class="cls-2" d="M6.25,20.5h-.5c-.55,0-1,.45-1,1s.45,1,1,1h.5c.55,0,1-.45,1-1s-.45-1-1-1Z"/>
    <path class="cls-2" d="M10.25,20.5h-.5c-.55,0-1,.45-1,1s.45,1,1,1h.5c.55,0,1-.45,1-1s-.45-1-1-1Z"/>
    <path class="cls-2" d="M14.25,20.5h-.5c-.55,0-1,.45-1,1s.45,1,1,1h.5c.55,0,1-.45,1-1s-.45-1-1-1Z"/>
    <path class="cls-2" d="M6.25,24.5h-.5c-.55,0-1,.45-1,1s.45,1,1,1h.5c.55,0,1-.45,1-1s-.45-1-1-1Z"/>
    <path class="cls-2" d="M10.25,24.5h-.5c-.55,0-1,.45-1,1s.45,1,1,1h.5c.55,0,1-.45,1-1s-.45-1-1-1Z"/>
    <path class="cls-2" d="M14.25,24.5h-.5c-.55,0-1,.45-1,1s.45,1,1,1h.5c.55,0,1-.45,1-1s-.45-1-1-1Z"/>
    <path class="cls-2" d="M16,1H4c-1.65,0-3,1.35-3,3V28c0,1.65,1.35,3,3,3h12c1.65,0,3-1.35,3-3V4c0-1.65-1.35-3-3-3Zm1,27c0,.55-.45,1-1,1H4c-.55,0-1-.45-1-1V4c0-.55,.45-1,1-1h12c.55,0,1,.45,1,1V28Z"/>
  </g>
  <g>
    <rect class="cls-1" x="21" y="6" width="10" height="5"/>
    <path class="cls-1" d="M21,22h10V13h-10v9Zm6-5c0-.55,.45-1,1-1s1,.45,1,1v1c0,.55-.45,1-1,1s-1-.45-1-1v-1Zm-4,0c0-.55,.45-1,1-1s1,.45,1,1v1c0,.55-.45,1-1,1s-1-.45-1-1v-1Z"/>
  </g>
</svg>