<?xml version="1.0" encoding="UTF-8"?>
<svg id="OBJECT" xmlns="http://www.w3.org/2000/svg" viewBox="0 0 32 32">
  <defs>
    <style>
      .cls-1 {
        fill: #FD4360;
      }

      .cls-1, .cls-2 {
        stroke-width: 0px;
      }

      .cls-2 {
        fill: #dadada;
      }
    </style>
  </defs>
  <path class="cls-1" d="m23,15c-4.41,0-8,3.59-8,8s3.59,8,8,8,8-3.59,8-8-3.59-8-8-8Zm-.74,7h1.48c1.37,0,2.48,1.11,2.48,2.48,0,1.28-.98,2.32-2.22,2.46v.51c0,.55-.45,1-1,1s-1-.45-1-1v-.48h-1.22c-.55,0-1-.45-1-1s.45-1,1-1h2.96c.27,0,.48-.22.48-.48s-.22-.48-.48-.48h-1.48c-1.37,0-2.48-1.11-2.48-2.48,0-1.28.98-2.32,2.22-2.46v-.51c0-.55.45-1,1-1s1,.45,1,1v.48h1.22c.55,0,1,.45,1,1s-.45,1-1,1h-2.96c-.27,0-.48.22-.48.48s.22.48.48.48Z"/>
  <path class="cls-2" d="m26.34,7.95c-.52-.61-1.29-.95-2.09-.95h-2.24v-3.27c0-1.51-1.23-2.73-2.73-2.73h-10.55c-1.51,0-2.73,1.23-2.73,2.73v3.27h-2.24c-.81,0-1.57.35-2.09.95-.51.59-.74,1.38-.63,2.15l2.13,14.57c.19,1.33,1.36,2.33,2.72,2.33h7.2c.55,0,1-.45,1-1s-.45-1-1-1h-3.24l-.35-5.25h3.79c.55,0,1-.45,1-1v-6.25h4.67l-.08.62c-.07.55.31,1.05.86,1.12.04,0,.09,0,.13,0,.5,0,.92-.37.99-.87l.11-.88h3.34c-.12.53.2,1.06.73,1.19.54.13,1.08-.19,1.21-.73l.7-2.76s.01-.07.02-.1c.11-.77-.12-1.55-.63-2.15ZM7.99,3.73c0-.4.33-.73.73-.73h10.55c.4,0,.73.33.73.73v3.27H7.99v-3.27Zm-4.82,5.53c.14-.17.36-.26.58-.26h20.49c.23,0,.44.1.58.26.07.09.19.26.17.51l-.18.73s-.04-.01-.06-.01H3.11l-.1-.68c-.04-.27.09-.46.16-.55Zm.23,3.23h3.62l.35,5.25h-3.19l-.77-5.25Zm4.44,12.51h-1.96c-.37,0-.69-.26-.75-.62l-.68-4.64h3.03l.35,5.25Zm4.45-7.25h-2.92l-.35-5.25h3.27v5.25Z"/>
</svg>