<?xml version="1.0" encoding="UTF-8"?>
<svg id="OBJECT" xmlns="http://www.w3.org/2000/svg" viewBox="0 0 32 32">
  <defs>
    <style>
      .cls-1 {
        fill: #FD4360;
      }

      .cls-1, .cls-2 {
        stroke-width: 0px;
      }

      .cls-2 {
        fill: #dadada;
      }
    </style>
  </defs>
  <g>
    <path class="cls-2" d="m30,29h-15c-.55,0-1,.45-1,1s.45,1,1,1h15c.55,0,1-.45,1-1s-.45-1-1-1Z"/>
    <path class="cls-2" d="m11.5,29h-.5c-.55,0-1,.45-1,1s.45,1,1,1h.5c.55,0,1-.45,1-1s-.45-1-1-1Z"/>
    <path class="cls-2" d="m14,26c0,.55.45,1,1,1h15c.55,0,1-.45,1-1s-.45-1-1-1h-15c-.55,0-1,.45-1,1Z"/>
    <path class="cls-2" d="m22.64,15.25c.37-.41.33-1.04-.08-1.41-.41-.37-1.05-.33-1.41.08-1.93,2.17-4.22,4.56-6.64,6.72l-3.15-3.15c2.17-2.43,4.55-4.71,6.72-6.64.41-.37.45-1,.08-1.41-.37-.41-1-.45-1.41-.08-5.55,4.94-12.45,12.14-14.05,18.53l-1.4,1.4c-.39.39-.39,1.02,0,1.41.2.2.45.29.71.29s.51-.1.71-.29l1.41-1.41c6.39-1.6,13.58-8.49,18.52-14.04ZM5.1,26.9c.53-1.4,1.31-2.84,2.26-4.28l2.03,2.03c-1.44.95-2.88,1.73-4.28,2.26Zm5.94-3.42l-2.52-2.52c.48-.65.99-1.3,1.52-1.94l2.93,2.93c-.64.53-1.29,1.04-1.94,1.52Z"/>
  </g>
  <g>
    <path class="cls-1" d="m30.38,1.62c-.82-.82-2.16-.82-2.98,0l-2.61,2.61,2.98,2.98,2.61-2.61c.82-.82.82-2.16,0-2.98Z"/>
    <path class="cls-1" d="m26.9,10.18c.16-.21.32-.41.45-.58l-4.94-4.94c-.86.66-2.24,1.75-3.88,3.15l5.68,5.68c.53-.63,1-1.2,1.44-1.73l.95.95c.28.28.43.66.41,1.05-.01.4-.19.77-.5,1.03-1.97,1.7-4.52,4.28-5.44,6.88-.19.52.09,1.09.61,1.28.11.04.22.06.33.06.41,0,.8-.26.94-.67.61-1.71,2.33-3.85,4.87-6.03.72-.62,1.16-1.52,1.19-2.47.03-.94-.33-1.87-1-2.54l-1.1-1.1Z"/>
  </g>
</svg>