<?xml version="1.0" encoding="UTF-8"?>
<svg id="OBJECT" xmlns="http://www.w3.org/2000/svg" viewBox="0 0 32 32">
  <defs>
    <style>
      .cls-1 {
        fill: #FD4360;
      }

      .cls-1, .cls-2 {
        stroke-width: 0px;
      }

      .cls-2 {
        fill: #dadada;
      }
    </style>
  </defs>
  <g>
    <path class="cls-2" d="m31,3.81c0-.76-.29-1.47-.83-2.01-1.07-1.07-2.94-1.07-4.01,0l-2.56,2.56c-.26-.08-.54-.06-.79.09-.09.06-.7.42-1.64,1.04l-1.27-1.05c-1.35-1.12-3.32-.97-4.48.33-1.44,1.61-3.76,3.53-6.65,3.54-.55,0-1,.45-1,1,0,.55.45,1,1,1h0c3.62-.01,6.42-2.29,8.13-4.21.44-.5,1.2-.55,1.72-.12l.82.68c-3.27,2.29-8.25,6.17-11.83,10.8-.34.44-.26,1.06.18,1.4.44.34,1.07.26,1.4-.18,2.54-3.28,5.9-6.22,8.76-8.43l3.8,3.8c-2.21,2.86-5.15,6.21-8.43,8.76-.44.34-.52.97-.18,1.4.2.25.49.39.79.39.21,0,.43-.07.61-.21,7.31-5.66,12.78-14.81,13.01-15.2.15-.26.17-.56.07-.83l2.54-2.54c.54-.54.83-1.25.83-2.01Zm-8.04,8.63l-3.39-3.39c1.57-1.14,2.87-2,3.61-2.46l2.25,2.25c-.47.74-1.32,2.04-2.46,3.61Zm5.8-8.03l-2.46,2.46-1.18-1.18,2.46-2.46c.32-.32.87-.32,1.18,0,.16.16.25.37.25.59s-.09.43-.25.59Z"/>
    <path class="cls-2" d="m14.28,18.56c.26,0,.51-.1.71-.29l2-2c.39-.39.39-1.02,0-1.41s-1.02-.39-1.41,0l-2,2c-.39.39-.39,1.02,0,1.41.2.2.45.29.71.29Z"/>
  </g>
  <path class="cls-1" d="m3.26,27.33l-1.97,1.97c-.39.39-.39,1.02,0,1.41.2.2.45.29.71.29s.51-.1.71-.29l1.97-1.97c2.75-.19,5.45-1.35,7.98-3l-6.39-6.39c-1.66,2.53-2.81,5.23-3,7.98Z"/>
</svg>