<?xml version="1.0" encoding="UTF-8"?>
<svg id="OBJECT" xmlns="http://www.w3.org/2000/svg" viewBox="0 0 32 32">
  <defs>
    <style>
      .cls-1 {
        fill: #FD4360;
      }

      .cls-1, .cls-2 {
        stroke-width: 0px;
      }

      .cls-2 {
        fill: #dadada;
      }
    </style>
  </defs>
  <g>
    <path class="cls-2" d="m21.91,19.71c-.39-.39-1.02-.39-1.42,0l-7.61,7.6c-1.09,1.09-2.55,1.69-4.09,1.69s-3-.6-4.09-1.69-1.7-2.55-1.7-4.09.6-3,1.7-4.09l7.6-7.61c.39-.39.39-1.02,0-1.41-.39-.39-1.02-.39-1.42,0l-7.6,7.61c-1.47,1.47-2.28,3.43-2.28,5.51s.81,4.04,2.28,5.51c1.47,1.47,3.43,2.28,5.51,2.28s4.04-.81,5.51-2.28l7.61-7.6c.39-.39.39-1.02,0-1.41Z"/>
    <path class="cls-2" d="m8.79,19.21c-2.21,0-4,1.79-4,4s1.79,4,4,4,4-1.79,4-4-1.79-4-4-4Zm0,6c-1.1,0-2-.9-2-2s.9-2,2-2,2,.9,2,2-.9,2-2,2Z"/>
    <path class="cls-2" d="m10.48,17.51c.2.2.45.29.71.29s.51-.1.71-.29l3.2-3.2c.39-.39.39-1.02,0-1.41s-1.02-.39-1.41,0l-3.2,3.2c-.39.39-.39,1.02,0,1.41Z"/>
    <path class="cls-2" d="m14.49,21.52c.2.2.45.29.71.29s.51-.1.71-.29l3.2-3.2c.39-.39.39-1.02,0-1.41s-1.02-.39-1.41,0l-3.2,3.2c-.39.39-.39,1.02,0,1.41Z"/>
  </g>
  <g>
    <path class="cls-1" d="m30.71,8.48l-7.2-7.2c-.38-.38-1.04-.38-1.41,0l-4.1,4.1,8.62,8.62,4.1-4.1c.39-.39.39-1.02,0-1.41Zm-7-1.17l-.4.4c-.2.19-.45.29-.71.29s-.51-.1-.71-.29c-.39-.39-.39-1.02,0-1.41l.4-.4c.39-.39,1.02-.39,1.42,0,.39.39.39,1.02,0,1.41Zm2.4,2.4l-.4.4c-.2.2-.45.29-.71.29s-.51-.1-.71-.29c-.39-.39-.39-1.02,0-1.41l.4-.4c.39-.39,1.02-.39,1.41,0s.39,1.02,0,1.41Z"/>
    <rect class="cls-1" x="18.73" y="4.21" width="2.53" height="15.58" transform="translate(-2.63 17.66) rotate(-45)"/>
  </g>
</svg>