<?xml version="1.0" encoding="UTF-8"?>
<svg id="OBJECT" xmlns="http://www.w3.org/2000/svg" viewBox="0 0 32 32">
  <defs>
    <style>
      .cls-1 {
        fill: #FD4360;
      }

      .cls-1, .cls-2 {
        stroke-width: 0px;
      }

      .cls-2 {
        fill: #dadada;
      }
    </style>
  </defs>
  <path class="cls-2" d="m26.82,15.27l-10.1-10.1c-.38-.38-1.04-.38-1.41,0L1.89,18.6c-1.19,1.19-1.19,3.11,0,4.3l7.21,7.21c.59.59,1.37.89,2.15.89s1.56-.3,2.15-.89l13.42-13.42c.39-.39.39-1.02,0-1.41Zm-10.8-7.97l8.68,8.68-1.16,1.16h-5.03c-.81,0-1.58.32-2.15.89l-3.35,3.35c-.39.39-.39,1.02,0,1.41.2.2.45.29.71.29s.51-.1.71-.29l3.35-3.35c.2-.2.46-.3.74-.3h3.03l-7.4,7.4-8.68-8.68.16-.16h5.03c.81,0,1.57-.32,2.15-.89l3.35-3.35c.39-.39.39-1.02,0-1.41s-1.02-.39-1.41,0l-3.35,3.35c-.2.2-.46.3-.74.3h-3.03l8.4-8.4Zm-5.5,21.4l-7.21-7.21c-.41-.41-.41-1.07,0-1.47l.74-.74,8.68,8.68-.74.74c-.41.41-1.06.41-1.47,0Z"/>
  <path class="cls-1" d="m30.71,8.5l-7.21-7.21c-.39-.39-1.02-.39-1.41,0l-3.62,3.62,8.63,8.63,3.62-3.62c.19-.19.29-.44.29-.71s-.11-.52-.29-.71Zm-6.03-2.65l-.36.36c-.2.2-.45.29-.71.29s-.51-.1-.71-.29c-.39-.39-.39-1.02,0-1.41l.36-.36c.39-.39,1.02-.39,1.41,0s.39,1.02,0,1.41Zm2.89,2.88l-.36.36c-.2.2-.45.29-.71.29s-.51-.1-.71-.29c-.39-.39-.39-1.02,0-1.41l.36-.36c.39-.39,1.02-.39,1.42,0,.39.39.39,1.02,0,1.41Z"/>
</svg>