<?xml version="1.0" encoding="UTF-8"?>
<svg id="OBJECT" xmlns="http://www.w3.org/2000/svg" viewBox="0 0 32 32">
  <defs>
    <style>
      .cls-1 {
        fill: #FD4360;
      }

      .cls-1, .cls-2 {
        stroke-width: 0px;
      }

      .cls-2 {
        fill: #dadada;
      }
    </style>
  </defs>
  <g>
    <path class="cls-2" d="m16,1c-5.24,0-9.5,4.26-9.5,9.5v9.5c0,.55.45,1,1,1s1-.45,1-1v-9.5c0-4.14,3.36-7.5,7.5-7.5s7.5,3.36,7.5,7.5v9.5c0,.55.45,1,1,1s1-.45,1-1v-9.5c0-5.24-4.26-9.5-9.5-9.5Z"/>
    <path class="cls-2" d="m18.5,10.5c-.39-.39-1.02-.39-1.41,0l-5.8,5.8c-.39.39-.39,1.02,0,1.41.2.2.45.29.71.29s.51-.1.71-.29l5.8-5.8c.39-.39.39-1.02,0-1.41Z"/>
    <path class="cls-2" d="m19.29,8.29l-.17.17c-.39.39-.39,1.02,0,1.41.2.2.45.29.71.29s.51-.1.71-.29l.17-.17c.39-.39.39-1.02,0-1.41-.39-.39-1.02-.39-1.41,0Z"/>
    <path class="cls-2" d="m19.29,13.28l-3,3c-.39.39-.39,1.02,0,1.41.2.2.45.29.71.29s.51-.1.71-.29l3-3c.39-.39.39-1.02,0-1.41s-1.02-.39-1.41,0Z"/>
  </g>
  <g>
    <path class="cls-1" d="m4,30c0,.55.45,1,1,1s1-.45,1-1v-1h9v-7H4v8Zm6.5-4.75c0-.55.45-1,1-1s1,.45,1,1v.5c0,.55-.45,1-1,1s-1-.45-1-1v-.5Z"/>
    <path class="cls-1" d="m17,22v7h9v1c0,.55.45,1,1,1s1-.45,1-1v-8h-11Zm4.5,3.75c0,.55-.45,1-1,1s-1-.45-1-1v-.5c0-.55.45-1,1-1s1,.45,1,1v.5Z"/>
  </g>
</svg>