<?xml version="1.0" encoding="UTF-8"?>
<svg id="OBJECT" xmlns="http://www.w3.org/2000/svg" viewBox="0 0 32 32">
  <defs>
    <style>
      .cls-1 {
        fill: #FD4360;
      }

      .cls-1, .cls-2 {
        stroke-width: 0px;
      }

      .cls-2 {
        fill: #dadada;
      }
    </style>
  </defs>
  <path class="cls-2" d="m16,1C7.73,1,1,7.73,1,16s6.73,15,15,15,15-6.73,15-15S24.27,1,16,1Zm0,28c-7.17,0-13-5.83-13-13S8.83,3,16,3s13,5.83,13,13-5.83,13-13,13Z"/>
  <path class="cls-1" d="m16,5c-6.07,0-11,4.93-11,11s4.93,11,11,11,11-4.93,11-11-4.93-11-11-11Zm-5.79,6.37c0-.64.52-1.16,1.16-1.16s1.16.52,1.16,1.16v2.32c0,.64-.52,1.16-1.16,1.16s-1.16-.52-1.16-1.16v-2.32Zm11.58,9.26c0,.64-.52,1.16-1.16,1.16s-1.16-.52-1.16-1.16v-2.32c0-.64.52-1.16,1.16-1.16s1.16.52,1.16,1.16v2.32Zm-.34-8.44l-9.26,9.26c-.23.23-.52.34-.82.34s-.59-.11-.82-.34c-.45-.45-.45-1.19,0-1.64l9.26-9.26c.45-.45,1.19-.45,1.64,0s.45,1.19,0,1.64Z"/>
</svg>