<?xml version="1.0" encoding="UTF-8"?>
<svg id="OBJECT" xmlns="http://www.w3.org/2000/svg" viewBox="0 0 32 32">
  <defs>
    <style>
      .cls-1 {
        fill: #FD4360;
      }

      .cls-2 {
        fill: #dadada;
      }
    </style>
  </defs>
  <g>
    <path class="cls-2" d="M21.45,25.17l-1.45,.96v-7.72c0-.55-.45-1-1-1s-1,.45-1,1v9.05l-2,1.33-2-1.33v-9.05c0-.55-.45-1-1-1s-1,.45-1,1v7.72l-1.45-.96c-.46-.31-1.08-.18-1.39,.28s-.18,1.08,.28,1.39l6,4c.17,.11,.36,.17,.55,.17s.39-.06,.55-.17l6-4c.46-.31,.58-.93,.28-1.39-.31-.46-.93-.58-1.39-.28Z"/>
    <path class="cls-2" d="M27,23h-1.2c-.55,0-1,.45-1,1s.45,1,1,1h1.2c.55,0,1-.45,1-1s-.45-1-1-1Z"/>
    <path class="cls-2" d="M25.64,27.37c-.42-.35-1.06-.29-1.41,.13-.35,.43-.29,1.06,.14,1.41l1.04,.86c.19,.15,.41,.23,.64,.23,.29,0,.57-.12,.77-.36,.35-.43,.29-1.06-.14-1.41l-1.04-.86Z"/>
    <path class="cls-2" d="M25,20.86c.22,0,.45-.08,.64-.23l1.04-.86c.43-.35,.49-.98,.14-1.41-.35-.42-.98-.49-1.41-.13l-1.04,.86c-.43,.35-.49,.98-.14,1.41,.2,.24,.48,.36,.77,.36Z"/>
    <path class="cls-2" d="M6.2,25c.55,0,1-.45,1-1s-.45-1-1-1h-1.2c-.55,0-1,.45-1,1s.45,1,1,1h1.2Z"/>
    <path class="cls-2" d="M6.36,27.37l-1.04,.86c-.43,.35-.49,.98-.14,1.41,.2,.24,.48,.36,.77,.36,.22,0,.45-.08,.64-.23l1.04-.86c.43-.35,.49-.98,.14-1.41s-.98-.49-1.41-.13Z"/>
    <path class="cls-2" d="M6.6,18.23c-.42-.35-1.06-.29-1.41,.13-.35,.43-.29,1.06,.14,1.41l1.04,.86c.19,.15,.41,.23,.64,.23,.29,0,.57-.12,.77-.36,.35-.43,.29-1.06-.14-1.41l-1.04-.86Z"/>
    <path class="cls-2" d="M15.75,22h.5c.55,0,1-.45,1-1s-.45-1-1-1h-.5c-.55,0-1,.45-1,1s.45,1,1,1Z"/>
  </g>
  <path class="cls-1" d="M16,1c-4.41,0-8,3.59-8,8s3.59,8,8,8,8-3.59,8-8S20.41,1,16,1Zm-.75,7h1.5c1.38,0,2.5,1.12,2.5,2.5,0,1.29-.99,2.35-2.25,2.47v.53c0,.55-.45,1-1,1s-1-.45-1-1v-.5h-1.25c-.55,0-1-.45-1-1s.45-1,1-1h3c.28,0,.5-.22,.5-.5s-.22-.5-.5-.5h-1.5c-1.38,0-2.5-1.12-2.5-2.5,0-1.29,.99-2.35,2.25-2.47v-.53c0-.55,.45-1,1-1s1,.45,1,1v.5h1.25c.55,0,1,.45,1,1s-.45,1-1,1h-3c-.28,0-.5,.22-.5,.5s.22,.5,.5,.5Z"/>
</svg>