<?xml version="1.0" encoding="UTF-8"?>
<svg id="OBJECT" xmlns="http://www.w3.org/2000/svg" viewBox="0 0 32 32">
  <defs>
    <style>
      .cls-1 {
        fill: #FD4360;
      }

      .cls-1, .cls-2 {
        stroke-width: 0px;
      }

      .cls-2 {
        fill: #dadada;
      }
    </style>
  </defs>
  <g>
    <path class="cls-2" d="m20.88,10.62l-3-2.4c-.43-.35-1.06-.27-1.41.16-.34.43-.27,1.06.16,1.41l3,2.4c.24.19.38.48.38.78v3c-1.13.37-3.68,1.06-6.01.6v-7.56c0-.55-.45-1-1-1s-1,.45-1,1v6.88c-2.4-.89-4.61-.61-5.99-.25v-2.68c0-.3.14-.59.38-.78l3-2.4c.43-.34.5-.97.16-1.41-.35-.43-.97-.5-1.41-.16l-3,2.4c-.71.58-1.12,1.43-1.12,2.34v10.43c0,.61.18,1.18.51,1.66l3.66,5.5c.18.28.5.45.83.45h8c.33,0,.65-.17.83-.45l3.65-5.49c.34-.49.52-1.07.52-1.68v-10.43c0-.91-.41-1.76-1.12-2.34Zm-4.41,18.38h-6.93l-1.33-2h9.59l-1.33,2Zm3.36-5.05l-.7,1.05H6.87l-.71-1.07c-.11-.16-.16-.35-.16-.54v-5.67c1.02-.35,3.32-.88,5.78.23,1.24.56,2.58.76,3.86.76,1.7,0,3.29-.35,4.36-.66v5.34c0,.2-.06.39-.17.56Z"/>
    <path class="cls-2" d="m11.49,21h-1c-.55,0-1,.45-1,1s.45,1,1,1h1c.55,0,1-.45,1-1s-.45-1-1-1Z"/>
    <path class="cls-2" d="m15.49,21h-1c-.55,0-1,.45-1,1s.45,1,1,1h1c.55,0,1-.45,1-1s-.45-1-1-1Z"/>
  </g>
  <g>
    <path class="cls-1" d="m18,3h-1c0-1.1-.9-2-2-2h-4c-1.1,0-2,.9-2,2v4h8v-2h1c.55,0,1-.45,1-1s-.45-1-1-1Z"/>
    <path class="cls-1" d="m25.8,1.8c-.91,0-2.7,1.06-3.43,1.52-.23.15-.37.4-.37.68s.14.53.37.68c.73.46,2.52,1.52,3.43,1.52,1.21,0,2.2-.99,2.2-2.2s-.99-2.2-2.2-2.2Z"/>
  </g>
</svg>