<?xml version="1.0" encoding="UTF-8"?>
<svg id="OBJECT" xmlns="http://www.w3.org/2000/svg" viewBox="0 0 32 32">
  <defs>
    <style>
      .cls-1 {
        fill: #FD4360;
      }

      .cls-1, .cls-2 {
        stroke-width: 0px;
      }

      .cls-2 {
        fill: #dadada;
      }
    </style>
  </defs>
  <path class="cls-2" d="m15.96,16.36c0-.12.04-.24.04-.36v-3c0-2.21-1.79-4-4-4h-2c-2.21,0-4,1.79-4,4v3c0,.12.03.24.04.36-3.07,1.77-5.04,5.07-5.04,8.64v2c0,2.21,1.79,4,4,4h12c2.21,0,4-1.79,4-4v-2c0-3.57-1.96-6.87-5.04-8.64Zm-7.96-3.36c0-1.1.9-2,2-2h2c1.1,0,2,.9,2,2v3c0,1.65-1.35,3-3,3s-3-1.35-3-3v-3Zm11,14c0,1.1-.9,2-2,2h-.5v-3c0-.55-.45-1-1-1s-1,.45-1,1v3h-7v-3c0-.55-.45-1-1-1s-1,.45-1,1v3h-.5c-1.1,0-2-.9-2-2v-2c0-2.73,1.36-5.2,3.6-6.67.84,1.58,2.49,2.67,4.4,2.67s3.56-1.09,4.4-2.67c2.24,1.47,3.6,3.94,3.6,6.67v2Z"/>
  <g>
    <path class="cls-1" d="m29.5,1h-2.5v6h2.5c.83,0,1.5-.67,1.5-1.5v-3c0-.83-.67-1.5-1.5-1.5Z"/>
    <path class="cls-1" d="m15,2.5v3c0,.83.67,1.5,1.5,1.5h8.5V1h-8.5c-.83,0-1.5.67-1.5,1.5Z"/>
    <path class="cls-1" d="m29.5,9h-2.5v6h2.5c.83,0,1.5-.67,1.5-1.5v-3c0-.83-.67-1.5-1.5-1.5Z"/>
    <path class="cls-1" d="m19,10.5v3c0,.83.67,1.5,1.5,1.5h4.5v-6h-4.5c-.83,0-1.5.67-1.5,1.5Z"/>
  </g>
</svg>