<?xml version="1.0" encoding="UTF-8"?>
<svg id="OBJECT" xmlns="http://www.w3.org/2000/svg" viewBox="0 0 32 32">
  <defs>
    <style>
      .cls-1 {
        fill: #FD4360;
      }

      .cls-1, .cls-2 {
        stroke-width: 0px;
      }

      .cls-2 {
        fill: #dadada;
      }
    </style>
  </defs>
  <g>
    <path class="cls-2" d="m5.5,26h11.14c.55,0,1-.45,1-1s-.45-1-1-1H5.5c-.55,0-1,.45-1,1s.45,1,1,1Z"/>
    <path class="cls-2" d="m16,22c.55,0,1-.45,1-1s-.45-1-1-1h-6.5c-.55,0-1,.45-1,1s.45,1,1,1h6.5Z"/>
    <path class="cls-2" d="m5.5,22h1c.55,0,1-.45,1-1s-.45-1-1-1h-1c-.55,0-1,.45-1,1s.45,1,1,1Z"/>
    <path class="cls-2" d="m18,14c0-1.97-.96-3.78-2.56-4.89.03-.2.06-.4.06-.61v-1.5c0-1.65-1.35-3-3-3h-1c-1.65,0-3,1.35-3,3v1.5c0,.21.03.41.06.61-1.6,1.11-2.56,2.92-2.56,4.89v1.5c0,1.38,1.12,2.5,2.5,2.5h7c1.38,0,2.5-1.12,2.5-2.5v-1.5Zm-7.5-7c0-.55.45-1,1-1h1c.55,0,1,.45,1,1v1.5c0,.83-.67,1.5-1.5,1.5s-1.5-.67-1.5-1.5v-1.5Zm5.5,8.5c0,.28-.22.5-.5.5h-7c-.28,0-.5-.22-.5-.5v-1.5c0-1.21.56-2.33,1.49-3.08.64.66,1.53,1.08,2.51,1.08s1.88-.41,2.51-1.08c.93.75,1.49,1.86,1.49,3.08v1.5Z"/>
    <path class="cls-2" d="m22,13.35c.55,0,1-.45,1-1V2c0-.55-.45-1-1-1H2c-.55,0-1,.45-1,1v28c0,.55.45,1,1,1h20c.55,0,1-.45,1-1v-2.35c0-.55-.45-1-1-1s-1,.45-1,1v1.35H3V3h18v9.35c0,.55.45,1,1,1Z"/>
  </g>
  <path class="cls-1" d="m25,14c-3.31,0-6,2.69-6,6s2.69,6,6,6,6-2.69,6-6-2.69-6-6-6Zm3.21,5.15l-3.12,3.12c-.19.19-.44.29-.71.29s-.52-.11-.71-.29l-1.88-1.88c-.39-.39-.39-1.02,0-1.41.39-.39,1.02-.39,1.41,0l1.17,1.17,2.42-2.42c.39-.39,1.02-.39,1.41,0s.39,1.02,0,1.41Z"/>
</svg>