<?xml version="1.0" encoding="UTF-8"?>
<svg id="OBJECT" xmlns="http://www.w3.org/2000/svg" viewBox="0 0 512 512">
  <defs>
    <style>
      .cls-1 {
        fill: #FD4360;
      }

      .cls-2 {
        fill: #dadada;
      }
    </style>
  </defs>
  <g>
    <path class="cls-2" d="M263.5,437.75v-49.61c0-4.14-3.36-7.5-7.5-7.5s-7.5,3.36-7.5,7.5v49.61c-17.1,3.48-30,18.64-30,36.75,0,20.68,16.82,37.5,37.5,37.5s37.5-16.82,37.5-37.5c0-18.11-12.9-33.26-30-36.75Zm-7.5,59.25c-12.41,0-22.5-10.09-22.5-22.5s10.09-22.5,22.5-22.5,22.5,10.09,22.5,22.5-10.09,22.5-22.5,22.5Z"/>
    <path class="cls-2" d="M391,397c-18.11,0-33.26,12.9-36.75,30h-18.25c-6.89,0-12.5-5.61-12.5-12.5v-36.36c0-4.14-3.36-7.5-7.5-7.5s-7.5,3.36-7.5,7.5v36.36c0,15.16,12.34,27.5,27.5,27.5h18.25c3.48,17.1,18.64,30,36.75,30,20.68,0,37.5-16.82,37.5-37.5s-16.82-37.5-37.5-37.5Zm0,60c-12.41,0-22.5-10.09-22.5-22.5s10.09-22.5,22.5-22.5,22.5,10.09,22.5,22.5-10.09,22.5-22.5,22.5Z"/>
    <path class="cls-2" d="M196,370.64c-4.14,0-7.5,3.36-7.5,7.5v36.36c0,6.89-5.61,12.5-12.5,12.5h-18.25c-3.48-17.1-18.64-30-36.75-30-20.68,0-37.5,16.82-37.5,37.5s16.82,37.5,37.5,37.5c18.11,0,33.26-12.9,36.75-30h18.25c15.16,0,27.5-12.34,27.5-27.5v-36.36c0-4.14-3.36-7.5-7.5-7.5Zm-75,86.36c-12.41,0-22.5-10.09-22.5-22.5s10.09-22.5,22.5-22.5,22.5,10.09,22.5,22.5-10.09,22.5-22.5,22.5Z"/>
    <path class="cls-2" d="M449.5,110h-21.41c-3.74-33.7-32.4-60-67.09-60-2.82,0-5.65,.18-8.45,.53C330.55,18.8,294.82,0,256,0s-74.55,18.8-96.55,50.53c-2.8-.35-5.62-.53-8.45-.53-34.68,0-63.34,26.3-67.09,60h-21.41C28.04,110,0,138.04,0,172.5s28.04,62.5,62.5,62.5h47.04c8.68,73.11,71.05,130,146.46,130s137.77-56.89,146.46-130h47.04c34.46,0,62.5-28.04,62.5-62.5s-28.04-62.5-62.5-62.5Zm-193.5,240c-73.06,0-132.5-59.44-132.5-132.5s59.44-132.5,132.5-132.5,132.5,59.44,132.5,132.5-59.44,132.5-132.5,132.5Zm193.5-130h-46.03c.01-.83,.03-1.66,.03-2.5,0-81.33-66.17-147.5-147.5-147.5S108.5,136.17,108.5,217.5c0,.84,.02,1.67,.03,2.5H62.5c-26.19,0-47.5-21.31-47.5-47.5s21.31-47.5,47.5-47.5h53.5c4.14,0,7.5-3.36,7.5-7.5s-3.36-7.5-7.5-7.5h-16.96c3.65-25.41,25.55-45,51.96-45,3.54,0,7.08,.35,10.53,1.06,3.05,.62,6.17-.71,7.83-3.34,18.93-29.88,51.33-47.72,86.64-47.72s67.71,17.84,86.64,47.72c1.67,2.63,4.78,3.96,7.83,3.34,3.44-.7,6.98-1.06,10.53-1.06,26.4,0,48.3,19.59,51.96,45h-16.96c-4.14,0-7.5,3.36-7.5,7.5s3.36,7.5,7.5,7.5h53.5c26.19,0,47.5,21.31,47.5,47.5s-21.31,47.5-47.5,47.5Z"/>
    <path class="cls-2" d="M444.5,145c-15.16,0-27.5,12.34-27.5,27.5s12.34,27.5,27.5,27.5,27.5-12.34,27.5-27.5-12.34-27.5-27.5-27.5Zm0,40c-6.89,0-12.5-5.61-12.5-12.5s5.61-12.5,12.5-12.5,12.5,5.61,12.5,12.5-5.61,12.5-12.5,12.5Z"/>
    <path class="cls-2" d="M67.5,145c-15.16,0-27.5,12.34-27.5,27.5s12.34,27.5,27.5,27.5,27.5-12.34,27.5-27.5-12.34-27.5-27.5-27.5Zm0,40c-6.89,0-12.5-5.61-12.5-12.5s5.61-12.5,12.5-12.5,12.5,5.61,12.5,12.5-5.61,12.5-12.5,12.5Z"/>
  </g>
  <g>
    <path class="cls-1" d="M290.19,220.43c-8.65,8.97-20.77,14.57-34.19,14.57s-25.54-5.6-34.19-14.57c-29.71,10.53-52.62,34.4-62.7,63.47,21.2,30.84,56.72,51.1,96.88,51.1s75.68-20.26,96.88-51.1c-10.07-29.07-32.99-52.94-62.7-63.47Zm-69.19,54.57h-10c-4.14,0-7.5-3.36-7.5-7.5s3.36-7.5,7.5-7.5h10c4.14,0,7.5,3.36,7.5,7.5s-3.36,7.5-7.5,7.5Zm40,0h-10c-4.14,0-7.5-3.36-7.5-7.5s3.36-7.5,7.5-7.5h10c4.14,0,7.5,3.36,7.5,7.5s-3.36,7.5-7.5,7.5Zm40,0h-10c-4.14,0-7.5-3.36-7.5-7.5s3.36-7.5,7.5-7.5h10c4.14,0,7.5,3.36,7.5,7.5s-3.36,7.5-7.5,7.5Z"/>
    <path class="cls-1" d="M162.14,246.37c13.03-17.27,30.86-30.76,50.88-38.67-2.9-6.13-4.52-12.98-4.52-20.2,0-26.19,21.31-47.5,47.5-47.5s47.5,21.31,47.5,47.5c0,7.22-1.63,14.07-4.52,20.2,20.02,7.91,37.85,21.4,50.88,38.67,4.96,6.57,9.16,13.55,12.59,20.85,7.09-15.11,11.06-31.96,11.06-49.72,0-64.79-52.71-117.5-117.5-117.5s-117.5,52.71-117.5,117.5c0,17.76,3.97,34.61,11.06,49.72,3.43-7.3,7.63-14.28,12.59-20.85Z"/>
    <circle class="cls-1" cx="256" cy="187.5" r="32.5"/>
  </g>
</svg>