<?xml version="1.0" encoding="UTF-8"?>
<svg id="OBJECT" xmlns="http://www.w3.org/2000/svg" viewBox="0 0 32 32">
  <defs>
    <style>
      .cls-1 {
        fill: #FD4360;
      }

      .cls-1, .cls-2 {
        stroke-width: 0px;
      }

      .cls-2 {
        fill: #dadada;
      }
    </style>
  </defs>
  <g>
    <path class="cls-2" d="m12.16,14.5c-.27,0-.51-.02-.73-.06.45-.53.73-1.2.73-1.94v-4c0-1.65-1.35-3-3-3h-2c-1.65,0-3,1.35-3,3v4c0,1.65,1.35,3,3,3h1.83c.78.65,1.83,1,3.17,1,.55,0,1-.45,1-1s-.45-1-1-1Zm-6-2v-4c0-.55.45-1,1-1h2c.55,0,1,.45,1,1v4c0,.32-.16.59-.39.77-.13-.38-.12-.73-.12-.75.05-.55-.35-1.03-.9-1.08-.56-.05-1.04.35-1.09.9,0,.09-.04.56.1,1.16h-.6c-.55,0-1-.45-1-1Z"/>
    <path class="cls-2" d="m20.84,5.5h-1c-1.65,0-3,1.35-3,3v7c0,.55.45,1,1,1s1-.45,1-1v-3h3v3c0,.55.45,1,1,1s1-.45,1-1v-7c0-1.65-1.35-3-3-3Zm-2,5v-2c0-.55.45-1,1-1h1c.55,0,1,.45,1,1v2h-3Z"/>
    <path class="cls-2" d="m14.5,7.75c-.55,0-1,.45-1,1v.5c0,.55.45,1,1,1s1-.45,1-1v-.5c0-.55-.45-1-1-1Z"/>
    <path class="cls-2" d="m14.5,11.75c-.55,0-1,.45-1,1v.5c0,.55.45,1,1,1s1-.45,1-1v-.5c0-.55-.45-1-1-1Z"/>
    <path class="cls-2" d="m24.05,1H3.95c-1.63,0-2.95,1.33-2.95,2.95v20.09c0,1.63,1.33,2.95,2.95,2.95.99,0,1.91-.49,2.46-1.32l3.12-4.68h14.51c1.63,0,2.95-1.33,2.95-2.95V3.95c0-1.63-1.33-2.95-2.95-2.95Zm.95,17.05c0,.53-.43.95-.95.95H5c-.55,0-1,.45-1,1s.45,1,1,1h2.13l-2.38,3.58c-.18.27-.47.42-.79.42-.53,0-.95-.43-.95-.95V3.95c0-.53.43-.95.95-.95h20.09c.53,0,.95.43.95.95v14.09Z"/>
  </g>
  <path class="cls-1" d="m29,9.19v8.85c0,2.73-2.22,4.95-4.95,4.95h-13.04c.01,1.66,1.36,3,3.02,3h11.97c.55,0,1,.45,1,1s-.45,1-1,1h-1.88l1.49,1.86c.58.72,1.44,1.14,2.36,1.14,1.67,0,3.03-1.36,3.03-3.03v-15.95c0-1.31-.84-2.41-2-2.84Z"/>
</svg>