<?xml version="1.0" encoding="UTF-8"?>
<svg id="OBJECT" xmlns="http://www.w3.org/2000/svg" viewBox="0 0 32 32">
  <defs>
    <style>
      .cls-1 {
        fill: #FD4360;
      }

      .cls-1, .cls-2 {
        stroke-width: 0px;
      }

      .cls-2 {
        fill: #dadada;
      }
    </style>
  </defs>
  <path class="cls-2" d="m23.82,23.39l-3.17-2.31c-.31-.23-.72-.25-1.06-.07l-3.14,1.68c-2.73-2-5.14-4.41-7.14-7.14l1.68-3.14c.18-.34.15-.75-.07-1.06l-2.31-3.17c-.5-.68-1.26-1.1-2.09-1.17-.83-.06-1.65.24-2.25.83l-2.38,2.38c-.72.72-1.03,1.74-.83,2.71.19.88.51,1.87.97,2.95,2.66,6.29,7.79,11.42,14.08,14.08,1.08.46,2.08.79,2.96.97.2.04.4.06.6.06.78,0,1.54-.31,2.11-.89l2.38-2.38c.59-.59.9-1.41.83-2.25-.06-.84-.49-1.6-1.17-2.09Zm-1.08,2.93l-2.38,2.38c-.24.24-.58.35-.88.29-.75-.16-1.62-.45-2.59-.86-5.82-2.46-10.56-7.2-13.02-13.02-.41-.97-.7-1.84-.86-2.59-.06-.3.04-.64.29-.88l2.38-2.38c.25-.25.54-.26.68-.25.15.01.43.07.63.35l1.94,2.66-.89,1.66c-.16-.26-.34-.51-.49-.78-.28-.48-.89-.63-1.37-.35-.48.28-.63.89-.35,1.37,2.98,5.04,7.21,9.28,12.25,12.25.16.09.33.14.51.14.34,0,.68-.18.86-.49.28-.48.12-1.09-.35-1.37-.27-.16-.52-.33-.78-.49l1.66-.89,2.66,1.94c.28.2.34.48.35.63s0,.43-.25.68Z"/>
  <g>
    <path class="cls-1" d="m22.57,5.86h-2.29c-.71,0-1.29.58-1.29,1.29v4.57c0,.71.58,1.29,1.29,1.29h.87c-.2-.74-.16-1.35-.15-1.46.05-.55.53-.95,1.09-.9.55.05.95.54.9,1.08,0,.03-.03.55.21,1.08.39-.22.66-.62.66-1.1v-4.57c0-.71-.58-1.29-1.29-1.29Z"/>
    <path class="cls-1" d="m27,1h-10c-2.21,0-4,1.79-4,4v10c0,2.21,1.79,4,4,4h10c2.21,0,4-1.79,4-4V5c0-2.21-1.79-4-4-4Zm-1,15.14c-1.51,0-2.7-.4-3.57-1.14h-2.15c-1.81,0-3.29-1.47-3.29-3.29v-4.57c0-1.81,1.47-3.29,3.29-3.29h2.29c1.81,0,3.29,1.47,3.29,3.29v4.57c0,.9-.37,1.72-.95,2.31.33.07.69.12,1.1.12.55,0,1,.45,1,1s-.45,1-1,1Z"/>
  </g>
</svg>