<?xml version="1.0" encoding="UTF-8"?>
<svg id="OBJECT" xmlns="http://www.w3.org/2000/svg" viewBox="0 0 32 32">
  <defs>
    <style>
      .cls-1 {
        fill: #FD4360;
      }

      .cls-1, .cls-2 {
        stroke-width: 0px;
      }

      .cls-2 {
        fill: #dadada;
      }
    </style>
  </defs>
  <g>
    <path class="cls-2" d="m25.5,21.82l-5.71-10.61c-.73-1.36-2.15-2.21-3.69-2.21h-.18c-1.55,0-2.96.84-3.69,2.21l-5.71,10.61c-.33.61-.5,1.3-.5,1.99,0,2.31,1.88,4.19,4.19,4.19h11.61c2.31,0,4.19-1.88,4.19-4.19,0-.69-.17-1.38-.5-1.99Zm-3.69,4.18h-11.61c-1.21,0-2.19-.98-2.19-2.19,0-.36.09-.72.26-1.04l5.71-10.61c.38-.71,1.12-1.15,1.93-1.15h.18c.81,0,1.55.44,1.93,1.15l5.71,10.61c.17.32.26.68.26,1.04,0,1.21-.98,2.19-2.19,2.19Z"/>
    <path class="cls-2" d="m16,13c-.55,0-1,.45-1,1v6c0,.55.45,1,1,1s1-.45,1-1v-6c0-.55-.45-1-1-1Z"/>
    <path class="cls-2" d="m16,22.5c-.55,0-1,.45-1,1v.5c0,.55.45,1,1,1s1-.45,1-1v-.5c0-.55-.45-1-1-1Z"/>
  </g>
  <path class="cls-1" d="m27.38,13.02c-.39-1.53-1.66-2.71-3.24-2.97-1.07-3.55-4.37-6.05-8.14-6.05s-7.07,2.5-8.14,6.05c-1.58.26-2.85,1.44-3.24,2.97-2.03.19-3.62,1.9-3.62,3.98s1.63,3.81,3.69,3.97c.02-.03.03-.07.05-.1l5.71-10.61c1.08-2.01,3.17-3.26,5.45-3.26h.18c2.28,0,4.37,1.25,5.46,3.26l5.71,10.61s.03.07.05.1c2.06-.16,3.69-1.87,3.69-3.97s-1.59-3.79-3.62-3.98Z"/>
</svg>