<?xml version="1.0" encoding="UTF-8"?>
<svg id="OBJECT" xmlns="http://www.w3.org/2000/svg" viewBox="0 0 32 32">
  <defs>
    <style>
      .cls-1 {
        fill: #FD4360;
      }

      .cls-1, .cls-2 {
        stroke-width: 0px;
      }

      .cls-2 {
        fill: #dadada;
      }
    </style>
  </defs>
  <g>
    <path class="cls-2" d="m22.5,4H3.5c-1.38,0-2.5,1.12-2.5,2.5v14c0,1.38,1.12,2.5,2.5,2.5h6.5v3h-2.5c-.55,0-1,.45-1,1s.45,1,1,1h11c.55,0,1-.45,1-1s-.45-1-1-1h-2.5v-3h3c.55,0,1-.45,1-1s-.45-1-1-1H3.5c-.28,0-.5-.22-.5-.5v-1.5h16c.55,0,1-.45,1-1s-.45-1-1-1H3V6.5c0-.28.22-.5.5-.5h19c.28,0,.5.22.5.5v1.5c0,.55.45,1,1,1s1-.45,1-1v-1.5c0-1.38-1.12-2.5-2.5-2.5Zm-8.5,22h-2v-3h2v3Z"/>
    <path class="cls-2" d="m5,7c-.55,0-1,.45-1,1s.45,1,1,1h1c.55,0,1-.45,1-1s-.45-1-1-1h-1Z"/>
    <path class="cls-2" d="m9,7c-.55,0-1,.45-1,1s.45,1,1,1h1c.55,0,1-.45,1-1s-.45-1-1-1h-1Z"/>
  </g>
  <g>
    <path class="cls-1" d="m26,18.2v-7.2h-2.5c-1.38,0-2.5,1.12-2.5,3.5v13.5c0-.45.45,0,1,0s1-.45,1-1v-2h6v2c0,.55.45,1,1,1s1-.45,1-1v-4.13l-3.89-2.59c-.7-.46-1.11-1.24-1.11-2.08Z"/>
    <path class="cls-1" d="m28.5,11h-.5v7.2c0,.17.08.32.22.42l2.78,1.85v-6.96c0-1.38-1.12-2.5-2.5-2.5Z"/>
  </g>
</svg>