<?xml version="1.0" encoding="UTF-8"?>
<svg id="OBJECT" xmlns="http://www.w3.org/2000/svg" viewBox="0 0 512 512">
  <defs>
    <style>
      .cls-1 {
        fill: #FD4360;
      }

      .cls-2 {
        fill: #dadada;
      }
    </style>
  </defs>
  <g>
    <path class="cls-2" d="M232.5,367H22.5c-12.41,0-22.5,10.09-22.5,22.5v100c0,12.41,10.09,22.5,22.5,22.5H232.5c12.41,0,22.5-10.09,22.5-22.5v-100c0-12.41-10.09-22.5-22.5-22.5Zm7.5,122.5c0,4.14-3.36,7.5-7.5,7.5H22.5c-4.14,0-7.5-3.36-7.5-7.5v-100c0-4.14,3.36-7.5,7.5-7.5H232.5c4.14,0,7.5,3.36,7.5,7.5v100Z"/>
    <path class="cls-2" d="M217.5,397H77.5c-4.14,0-7.5,3.36-7.5,7.5s3.36,7.5,7.5,7.5H217.5c4.14,0,7.5-3.36,7.5-7.5s-3.36-7.5-7.5-7.5Z"/>
    <path class="cls-2" d="M37.5,412h10c4.14,0,7.5-3.36,7.5-7.5s-3.36-7.5-7.5-7.5h-10c-4.14,0-7.5,3.36-7.5,7.5s3.36,7.5,7.5,7.5Z"/>
    <path class="cls-2" d="M217.5,432H37.5c-4.14,0-7.5,3.36-7.5,7.5s3.36,7.5,7.5,7.5H217.5c4.14,0,7.5-3.36,7.5-7.5s-3.36-7.5-7.5-7.5Z"/>
    <path class="cls-2" d="M217.5,467h-10c-4.14,0-7.5,3.36-7.5,7.5s3.36,7.5,7.5,7.5h10c4.14,0,7.5-3.36,7.5-7.5s-3.36-7.5-7.5-7.5Z"/>
    <path class="cls-2" d="M177.5,467H37.5c-4.14,0-7.5,3.36-7.5,7.5s3.36,7.5,7.5,7.5H177.5c4.14,0,7.5-3.36,7.5-7.5s-3.36-7.5-7.5-7.5Z"/>
    <path class="cls-2" d="M503.51,351.78l-90.38-90.38c18.21-26.8,28.87-59.13,28.87-93.9C442,75.14,366.86,0,274.5,0,205.11,0,142.91,42.94,118.14,107.37c-60.43,4.79-108.14,55.49-108.14,117.13,0,64.79,52.71,117.5,117.5,117.5,27.1,0,52.09-9.23,71.99-24.7,23.14,11.59,48.97,17.7,75.01,17.7,28.82,0,55.96-7.32,79.67-20.19l93.16,93.16c5.65,5.65,13.07,8.48,20.5,8.48s14.84-2.83,20.5-8.48l15.19-15.19c5.48-5.47,8.49-12.75,8.49-20.5s-3.01-15.02-8.49-20.5ZM25,224.5c0-56.52,45.98-102.5,102.5-102.5s102.5,45.98,102.5,102.5-45.98,102.5-102.5,102.5S25,281.02,25,224.5ZM164.75,113.05c20.61-41.6,62.81-68.05,109.75-68.05,67.55,0,122.5,54.95,122.5,122.5s-54.95,122.5-122.5,122.5c-15.38,0-30.27-2.8-44.39-8.31,9.48-16.94,14.89-36.44,14.89-57.19,0-51.78-33.66-95.83-80.25-111.45Zm46.87,193.39c3.65-3.75,7.05-7.73,10.18-11.93,16.7,6.95,34.39,10.48,52.7,10.48,75.82,0,137.5-61.68,137.5-137.5S350.32,30,274.5,30c-53.72,0-101.92,30.87-124.52,79.17-5.08-.99-10.28-1.65-15.58-1.96C158.31,51.65,213.34,15,274.5,15c84.09,0,152.5,68.41,152.5,152.5s-68.41,152.5-152.5,152.5c-21.71,0-43.24-4.67-62.88-13.55Zm192.44-32.9l52.58,52.58-34.97,34.97-54.28-54.28c13.8-9.23,26.16-20.46,36.67-33.27Zm88.85,108.62l-15.19,15.19c-5.45,5.45-14.33,5.45-19.78,0l-25.66-25.66,34.97-34.97,25.66,25.66c2.64,2.64,4.1,6.15,4.1,9.89s-1.46,7.25-4.1,9.89Z"/>
    <path class="cls-2" d="M300.56,78.73c39.12,11.5,66.44,48.01,66.44,88.77,0,4.14,3.36,7.5,7.5,7.5s7.5-3.36,7.5-7.5c0-23.66-7.57-46.12-21.89-64.96-13.85-18.22-33.5-31.78-55.32-38.2-3.98-1.17-8.14,1.11-9.31,5.08-1.17,3.97,1.11,8.14,5.08,9.31Z"/>
    <path class="cls-2" d="M274.5,75c1.05,0,2.1,.02,3.14,.05,.09,0,.17,0,.26,0,4.02,0,7.35-3.19,7.49-7.25,.14-4.14-3.1-7.61-7.24-7.75-1.21-.04-2.43-.06-3.65-.06-4.14,0-7.5,3.36-7.5,7.5s3.36,7.5,7.5,7.5Z"/>
  </g>
  <g>
    <circle class="cls-1" cx="127.5" cy="204.5" r="22.5"/>
    <path class="cls-1" d="M127.5,137c-48.25,0-87.5,39.25-87.5,87.5,0,14.39,3.5,27.99,9.68,39.98,9.51-18.5,25.45-33.33,45.35-41.26-3.19-5.51-5.03-11.91-5.03-18.72,0-20.68,16.82-37.5,37.5-37.5s37.5,16.82,37.5,37.5c0,6.82-1.84,13.21-5.03,18.72,19.9,7.92,35.84,22.76,45.35,41.26,6.18-11.99,9.68-25.58,9.68-39.98,0-48.25-39.25-87.5-87.5-87.5Z"/>
    <path class="cls-1" d="M148.95,235.23c-6.08,4.26-13.48,6.77-21.45,6.77s-15.36-2.51-21.45-6.77c-21.96,6.77-38.93,23.38-46.59,44.22,16.05,19.84,40.59,32.55,68.04,32.55s51.99-12.71,68.04-32.55c-7.66-20.83-24.64-37.44-46.59-44.22Z"/>
  </g>
</svg>