<?xml version="1.0" encoding="UTF-8"?>
<svg id="OBJECT" xmlns="http://www.w3.org/2000/svg" viewBox="0 0 32 32">
  <defs>
    <style>
      .cls-1 {
        fill: #FD4360;
      }

      .cls-1, .cls-2 {
        stroke-width: 0px;
      }

      .cls-2 {
        fill: #dadada;
      }
    </style>
  </defs>
  <g>
    <path class="cls-2" d="m30.3,26.24l-2.76-2.76c.29-.77.46-1.61.46-2.48,0-3.86-3.14-7-7-7-2.79,0-5.19,1.64-6.32,4H2c-.55,0-1,.45-1,1s.45,1,1,1h12.08c-.05.33-.08.66-.08,1,0,3.86,3.14,7,7,7,.87,0,1.71-.17,2.48-.46l2.76,2.76c.47.47,1.08.7,1.7.7s1.23-.23,1.7-.7l.66-.66c.94-.94.94-2.46,0-3.4Zm-14.3-5.24c0-2.76,2.24-5,5-5s5,2.24,5,5-2.24,5-5,5-5-2.24-5-5Zm12.88,7.22l-.66.66c-.16.16-.41.16-.57,0l-2.36-2.36c.46-.36.87-.77,1.23-1.23l2.36,2.36c.16.16.16.41,0,.57Z"/>
    <path class="cls-2" d="m22.51,18.83l-1.99,2.19-1.03-1.14c-.37-.41-1-.44-1.41-.07-.41.37-.44,1-.07,1.41l1.77,1.95c.19.21.46.33.74.33s.55-.12.74-.33l2.73-3c.37-.41.34-1.04-.07-1.41-.41-.37-1.04-.34-1.41.07Z"/>
    <path class="cls-2" d="m21,13c.55,0,1-.45,1-1v-6c0-.55-.45-1-1-1s-1,.45-1,1v6c0,.55.45,1,1,1Z"/>
    <path class="cls-2" d="m25,14c.55,0,1-.45,1-1v-2.2c0-.17.08-.32.22-.42l2.33-1.55c.46-.31.58-.93.28-1.39-.31-.46-.93-.59-1.39-.28l-2.33,1.55c-.7.46-1.11,1.24-1.11,2.08v2.2c0,.55.45,1,1,1Z"/>
  </g>
  <g>
    <path class="cls-1" d="m16,1h-4c-.55,0-1,.45-1,1v3h6v-3c0-.55-.45-1-1-1Z"/>
    <path class="cls-1" d="m11,11v5h2.52c.87-1.3,2.07-2.35,3.48-3.05v-5.95h-6v4Z"/>
    <rect class="cls-1" x="3" y="12" width="6" height="4"/>
    <path class="cls-1" d="m8,6h-4c-.55,0-1,.45-1,1v3h6v-3c0-.55-.45-1-1-1Z"/>
  </g>
</svg>