<?xml version="1.0" encoding="UTF-8"?>
<svg id="OBJECT" xmlns="http://www.w3.org/2000/svg" viewBox="0 0 32 32">
  <defs>
    <style>
      .cls-1 {
        fill: #FD4360;
      }

      .cls-1, .cls-2 {
        stroke-width: 0px;
      }

      .cls-2 {
        fill: #dadada;
      }
    </style>
  </defs>
  <g>
    <path class="cls-2" d="m24.07,22.88l-5.98-5.98c.57-1.18.9-2.5.9-3.91,0-4.96-4.04-9-9-9S1,8.04,1,13s4.04,9,9,9c1.37,0,2.67-.32,3.84-.87l5.99,5.99c.58.58,1.35.88,2.12.88s1.54-.29,2.12-.88c1.17-1.17,1.17-3.07,0-4.24ZM3,13c0-3.86,3.14-7,7-7s7,3.14,7,7-3.14,7-7,7-7-3.14-7-7Zm14,5.64l3.53,3.53-1.41,1.41-3.54-3.54c.52-.42,1-.89,1.42-1.41Zm5.65,7.07c-.39.39-1.02.39-1.42,0l-.71-.71,1.41-1.41.71.71c.39.39.39,1.02,0,1.41Z"/>
    <path class="cls-2" d="m12.76,9.83l-3.75,4.17-1.76-1.96c-.37-.41-1-.44-1.41-.08s-.44,1-.07,1.41l2.5,2.78c.19.21.46.33.74.33s.55-.12.74-.33l4.5-5c.37-.41.34-1.04-.07-1.41-.41-.37-1.04-.34-1.41.08Z"/>
  </g>
  <path class="cls-1" d="m28.5,9h-8.26c.49,1.24.76,2.59.76,4s-.28,2.76-.76,4h8.26c1.38,0,2.5-1.12,2.5-2.5v-3c0-1.38-1.12-2.5-2.5-2.5Zm-4.5,5h-.5c-.55,0-1-.45-1-1s.45-1,1-1h.5c.55,0,1,.45,1,1s-.45,1-1,1Zm4,0h-.5c-.55,0-1-.45-1-1s.45-1,1-1h.5c.55,0,1,.45,1,1s-.45,1-1,1Z"/>
</svg>