<?xml version="1.0" encoding="UTF-8"?>
<svg id="OBJECT" xmlns="http://www.w3.org/2000/svg" viewBox="0 0 32 32">
  <defs>
    <style>
      .cls-1 {
        fill: #FD4360;
      }

      .cls-1, .cls-2 {
        stroke-width: 0px;
      }

      .cls-2 {
        fill: #dadada;
      }
    </style>
  </defs>
  <circle class="cls-1" cx="17.75" cy="15.08" r="4"/>
  <path class="cls-1" d="m9,15.08c0,4.83,3.93,8.75,8.75,8.75s8.75-3.93,8.75-8.75-3.93-8.75-8.75-8.75-8.75,3.93-8.75,8.75Zm14.75,0c0,3.31-2.69,6-6,6s-6-2.69-6-6,2.69-6,6-6,6,2.69,6,6Z"/>
  <path class="cls-1" d="m27.12,20.33c-.97,1.72-2.4,3.15-4.12,4.12l1.32,1.32,4.12-4.12-1.32-1.32Z"/>
  <path class="cls-1" d="m30.15,23.35l-.29-.29-4.12,4.12.29.29c.57.57,1.31.85,2.06.85s1.49-.28,2.06-.85h0c1.13-1.14,1.13-2.98,0-4.12Z"/>
  <g>
    <path class="cls-2" d="m8,4c-.55,0-1,.45-1,1s.45,1,1,1h3c.55,0,1-.45,1-1s-.45-1-1-1h-3Z"/>
    <path class="cls-2" d="m17,5.36c.55,0,1-.45,1-1v-.36c0-1.65-1.35-3-3-3H4c-1.65,0-3,1.35-3,3v24c0,1.65,1.35,3,3,3h11c1.65,0,3-1.35,3-3v-2c0-.55-.45-1-1-1H3V4c0-.55.45-1,1-1h11c.55,0,1,.45,1,1v.36c0,.55.45,1,1,1Zm-1,21.64v1c0,.55-.45,1-1,1H4c-.55,0-1-.45-1-1v-1h13Z"/>
  </g>
</svg>