<?xml version="1.0" encoding="UTF-8"?>
<svg id="OBJECT" xmlns="http://www.w3.org/2000/svg" viewBox="0 0 32 32">
  <defs>
    <style>
      .cls-1 {
        fill: #FD4360;
      }

      .cls-1, .cls-2 {
        stroke-width: 0px;
      }

      .cls-2 {
        fill: #dadada;
      }
    </style>
  </defs>
  <path class="cls-2" d="m30,29h-1V10.5c0-1.38-1.12-2.5-2.5-2.5h-2c-1.38,0-2.5,1.12-2.5,2.5v18.5h-2.5v-9.5c0-1.38-1.12-2.5-2.5-2.5h-2c-1.38,0-2.5,1.12-2.5,2.5v9.5h-2.5v-4.5c0-1.38-1.12-2.5-2.5-2.5h-2c-1.38,0-2.5,1.12-2.5,2.5v4.5h-1c-.55,0-1,.45-1,1s.45,1,1,1h28c.55,0,1-.45,1-1s-.45-1-1-1Zm-6-18.5c0-.28.22-.5.5-.5h2c.28,0,.5.22.5.5v18.5h-3V10.5Zm-9.5,9c0-.28.22-.5.5-.5h2c.28,0,.5.22.5.5v9.5h-3v-9.5Zm-9.5,5c0-.28.22-.5.5-.5h2c.28,0,.5.22.5.5v4.5h-3v-4.5Z"/>
  <g>
    <path class="cls-1" d="m5.13,12.35l-3.4,3.4c-.47.47-.73,1.09-.73,1.76s.26,1.29.73,1.76,1.12.73,1.76.73,1.27-.24,1.76-.73l3.4-3.4c-1.48-.82-2.7-2.04-3.52-3.52Z"/>
    <path class="cls-1" d="m13,1c-3.86,0-7,3.14-7,7s3.14,7,7,7,7-3.14,7-7-3.14-7-7-7Zm2.72,6.45l-2.44,2.5c-.19.19-.45.3-.72.3s-.53-.11-.72-.3l-1.56-1.6c-.39-.39-.38-1.03.02-1.41.4-.38,1.03-.38,1.41.02l.84.86,1.73-1.77c.39-.4,1.02-.4,1.41-.02.4.39.4,1.02.02,1.41Z"/>
  </g>
</svg>