<?xml version="1.0" encoding="UTF-8"?>
<svg id="OBJECT" xmlns="http://www.w3.org/2000/svg" viewBox="0 0 512 512">
  <defs>
    <style>
      .cls-1 {
        fill: #FD4360;
      }

      .cls-2 {
        fill: #dadada;
      }
    </style>
  </defs>
  <g>
    <path class="cls-2" d="M433.5,407c-18.11,0-33.26,12.9-36.75,30h-28.25c-6.89,0-12.5-5.61-12.5-12.5v-66.36c0-4.14-3.36-7.5-7.5-7.5s-7.5,3.36-7.5,7.5v66.36c0,15.16,12.34,27.5,27.5,27.5h28.25c3.48,17.1,18.64,30,36.75,30,20.68,0,37.5-16.82,37.5-37.5s-16.82-37.5-37.5-37.5Zm0,60c-12.41,0-22.5-10.09-22.5-22.5s10.09-22.5,22.5-22.5,22.5,10.09,22.5,22.5-10.09,22.5-22.5,22.5Z"/>
    <path class="cls-2" d="M163.5,350.64c-4.14,0-7.5,3.36-7.5,7.5v66.36c0,6.89-5.61,12.5-12.5,12.5h-28.25c-3.48-17.1-18.64-30-36.75-30-20.68,0-37.5,16.82-37.5,37.5s16.82,37.5,37.5,37.5c18.11,0,33.26-12.9,36.75-30h28.25c15.16,0,27.5-12.34,27.5-27.5v-66.36c0-4.14-3.36-7.5-7.5-7.5Zm-85,116.36c-12.41,0-22.5-10.09-22.5-22.5s10.09-22.5,22.5-22.5,22.5,10.09,22.5,22.5-10.09,22.5-22.5,22.5Z"/>
    <path class="cls-2" d="M449.5,110h-21.41c-3.74-33.7-32.4-60-67.09-60-2.82,0-5.65,.18-8.45,.53C330.55,18.8,294.82,0,256,0s-74.55,18.8-96.55,50.53c-2.8-.35-5.62-.53-8.45-.53-34.68,0-63.34,26.3-67.09,60h-21.41C28.04,110,0,138.04,0,172.5s28.04,62.5,62.5,62.5h57.11c7.02,55.02,46.68,99.98,98.89,114.8v139.7c0,12.41,10.09,22.5,22.5,22.5h30c12.41,0,22.5-10.09,22.5-22.5v-139.7c52.21-14.82,91.87-59.78,98.89-114.8h57.11c34.46,0,62.5-28.04,62.5-62.5s-28.04-62.5-62.5-62.5Zm-178.5,387h-30c-4.14,0-7.5-3.36-7.5-7.5v-17.5h45v17.5c0,4.14-3.36,7.5-7.5,7.5Zm7.5-40h-45v-103.85c7.32,1.21,14.84,1.85,22.5,1.85s15.18-.64,22.5-1.85v103.85Zm-22.5-117c-67.55,0-122.5-54.95-122.5-122.5s54.95-122.5,122.5-122.5,122.5,54.95,122.5,122.5-54.95,122.5-122.5,122.5Zm193.5-120h-56.03c.01-.83,.03-1.66,.03-2.5,0-75.82-61.68-137.5-137.5-137.5S118.5,141.68,118.5,217.5c0,.84,.02,1.67,.03,2.5H62.5c-26.19,0-47.5-21.31-47.5-47.5s21.31-47.5,47.5-47.5h63.5c4.14,0,7.5-3.36,7.5-7.5s-3.36-7.5-7.5-7.5h-26.96c3.65-25.41,25.55-45,51.96-45,3.54,0,7.08,.35,10.53,1.06,3.05,.62,6.16-.71,7.83-3.34,18.93-29.88,51.33-47.72,86.64-47.72s67.71,17.84,86.64,47.72c1.66,2.63,4.78,3.96,7.83,3.34,3.45-.7,6.99-1.06,10.53-1.06,26.4,0,48.3,19.59,51.96,45h-26.96c-4.14,0-7.5,3.36-7.5,7.5s3.36,7.5,7.5,7.5h63.5c26.19,0,47.5,21.31,47.5,47.5s-21.31,47.5-47.5,47.5Z"/>
    <path class="cls-2" d="M444.5,145c-15.16,0-27.5,12.34-27.5,27.5s12.34,27.5,27.5,27.5,27.5-12.34,27.5-27.5-12.34-27.5-27.5-27.5Zm0,40c-6.89,0-12.5-5.61-12.5-12.5s5.61-12.5,12.5-12.5,12.5,5.61,12.5,12.5-5.61,12.5-12.5,12.5Z"/>
    <path class="cls-2" d="M67.5,145c-15.16,0-27.5,12.34-27.5,27.5s12.34,27.5,27.5,27.5,27.5-12.34,27.5-27.5-12.34-27.5-27.5-27.5Zm0,40c-6.89,0-12.5-5.61-12.5-12.5s5.61-12.5,12.5-12.5,12.5,5.61,12.5,12.5-5.61,12.5-12.5,12.5Z"/>
  </g>
  <g>
    <path class="cls-1" d="M306.24,180.16c-.83-.88-2.22-.92-3.1-.08l-54.92,52.01c-2.89,2.74-7.42,2.74-10.31,0l-29.04-27.5c-.42-.4-.96-.6-1.51-.6-.58,0-1.16,.23-1.59,.68l-6.66,7.04c-.83,.88-.79,2.27,.08,3.1l42.37,40.12h0c.85,.8,2.17,.8,3.01,0l68.25-64.64c.54-.52,.67-1.12,.68-1.53,.01-.41-.08-1.02-.6-1.57l-6.66-7.04Z"/>
    <path class="cls-1" d="M256,110c-59.28,0-107.5,48.22-107.5,107.5s48.22,107.5,107.5,107.5,107.5-48.22,107.5-107.5-48.22-107.5-107.5-107.5Zm67.13,91.18l-68.25,64.64c-3.31,3.14-7.57,4.71-11.82,4.71-4.25,0-8.51-1.57-11.82-4.71l-42.37-40.12c-6.88-6.52-7.18-17.42-.66-24.3l6.66-7.04c6.52-6.88,17.42-7.18,24.3-.66l23.88,22.62,49.76-47.13c6.88-6.52,17.79-6.22,24.3,.66l6.66,7.04c3.16,3.33,4.83,7.7,4.7,12.29s-2.03,8.86-5.36,12.01Z"/>
  </g>
</svg>