<?xml version="1.0" encoding="UTF-8"?>
<svg id="OBJECT" xmlns="http://www.w3.org/2000/svg" viewBox="0 0 512 512">
  <defs>
    <style>
      .cls-1 {
        fill: #FD4360;
      }

      .cls-2 {
        fill: #dadada;
      }
    </style>
  </defs>
  <g>
    <path class="cls-2" d="M177.5,127.5h69.56c4.14,0,7.5-3.36,7.5-7.5s-3.36-7.5-7.5-7.5h-69.56c-4.14,0-7.5,3.36-7.5,7.5s3.36,7.5,7.5,7.5Z"/>
    <path class="cls-2" d="M177.5,162.5h32.77c4.14,0,7.5-3.36,7.5-7.5s-3.36-7.5-7.5-7.5h-32.77c-4.14,0-7.5,3.36-7.5,7.5s3.36,7.5,7.5,7.5Z"/>
    <path class="cls-2" d="M102.5,175h30c12.41,0,22.5-10.09,22.5-22.5v-30c0-12.41-10.09-22.5-22.5-22.5h-30c-12.41,0-22.5,10.09-22.5,22.5v30c0,12.41,10.09,22.5,22.5,22.5Zm-7.5-52.5c0-4.14,3.36-7.5,7.5-7.5h30c4.14,0,7.5,3.36,7.5,7.5v30c0,4.14-3.36,7.5-7.5,7.5h-30c-4.14,0-7.5-3.36-7.5-7.5v-30Z"/>
    <path class="cls-2" d="M177.5,227.5h12.03c4.14,0,7.5-3.36,7.5-7.5s-3.36-7.5-7.5-7.5h-12.03c-4.14,0-7.5,3.36-7.5,7.5s3.36,7.5,7.5,7.5Z"/>
    <path class="cls-2" d="M177.5,262.5h16.46c4.14,0,7.5-3.36,7.5-7.5s-3.36-7.5-7.5-7.5h-16.46c-4.14,0-7.5,3.36-7.5,7.5s3.36,7.5,7.5,7.5Z"/>
    <path class="cls-2" d="M80,252.5c0,12.41,10.09,22.5,22.5,22.5h30c12.41,0,22.5-10.09,22.5-22.5v-30c0-12.41-10.09-22.5-22.5-22.5h-30c-12.41,0-22.5,10.09-22.5,22.5v30Zm15-30c0-4.14,3.36-7.5,7.5-7.5h30c4.14,0,7.5,3.36,7.5,7.5v30c0,4.14-3.36,7.5-7.5,7.5h-30c-4.14,0-7.5-3.36-7.5-7.5v-30Z"/>
    <path class="cls-2" d="M177.5,327.5h62.04c4.14,0,7.5-3.36,7.5-7.5s-3.36-7.5-7.5-7.5h-62.04c-4.14,0-7.5,3.36-7.5,7.5s3.36,7.5,7.5,7.5Z"/>
    <path class="cls-2" d="M177.5,362.5h110c4.14,0,7.5-3.36,7.5-7.5s-3.36-7.5-7.5-7.5h-110c-4.14,0-7.5,3.36-7.5,7.5s3.36,7.5,7.5,7.5Z"/>
    <path class="cls-2" d="M80,352.5c0,12.41,10.09,22.5,22.5,22.5h30c12.41,0,22.5-10.09,22.5-22.5v-30c0-12.41-10.09-22.5-22.5-22.5h-30c-12.41,0-22.5,10.09-22.5,22.5v30Zm15-30c0-4.14,3.36-7.5,7.5-7.5h30c4.14,0,7.5,3.36,7.5,7.5v30c0,4.14-3.36,7.5-7.5,7.5h-30c-4.14,0-7.5-3.36-7.5-7.5v-30Z"/>
    <path class="cls-2" d="M80,464.5c0,4.14,3.36,7.5,7.5,7.5h220c4.14,0,7.5-3.36,7.5-7.5v-57c0-4.14-3.36-7.5-7.5-7.5H87.5c-4.14,0-7.5,3.36-7.5,7.5v57Zm15-49.5h205v42H95v-42Z"/>
    <path class="cls-2" d="M347.5,80.27c4.14,0,7.5-3.36,7.5-7.5V37.5c0-20.68-16.82-37.5-37.5-37.5H37.5C16.82,0,0,16.82,0,37.5v30c0,4.14,3.36,7.5,7.5,7.5H40V504.5c0,4.14,3.36,7.5,7.5,7.5H347.5c4.14,0,7.5-3.36,7.5-7.5v-132.27c0-4.14-3.36-7.5-7.5-7.5s-7.5,3.36-7.5,7.5v124.77H55V75h232.5c4.14,0,7.5-3.36,7.5-7.5v-30c0-12.41,10.09-22.5,22.5-22.5s22.5,10.09,22.5,22.5v35.27c0,4.14,3.36,7.5,7.5,7.5Zm-67.5-42.77v22.5H15v-22.5c0-12.41,10.09-22.5,22.5-22.5h250.02c-4.72,6.27-7.52,14.07-7.52,22.5Z"/>
    <path class="cls-2" d="M220.83,428.5h-10c-4.14,0-7.5,3.36-7.5,7.5s3.36,7.5,7.5,7.5h10c4.14,0,7.5-3.36,7.5-7.5s-3.36-7.5-7.5-7.5Z"/>
    <path class="cls-2" d="M174.17,428.5h-10c-4.14,0-7.5,3.36-7.5,7.5s3.36,7.5,7.5,7.5h10c4.14,0,7.5-3.36,7.5-7.5s-3.36-7.5-7.5-7.5Z"/>
    <path class="cls-2" d="M127.5,428.5h-10c-4.14,0-7.5,3.36-7.5,7.5s3.36,7.5,7.5,7.5h10c4.14,0,7.5-3.36,7.5-7.5s-3.36-7.5-7.5-7.5Z"/>
    <path class="cls-2" d="M267.5,428.5h-10c-4.14,0-7.5,3.36-7.5,7.5s3.36,7.5,7.5,7.5h10c4.14,0,7.5-3.36,7.5-7.5s-3.36-7.5-7.5-7.5Z"/>
  </g>
  <g>
    <path class="cls-1" d="M339.5,140c-45.49,0-82.5,37.01-82.5,82.5s37.01,82.5,82.5,82.5,82.5-37.01,82.5-82.5-37.01-82.5-82.5-82.5Zm45.24,62.87l-51.22,50c-1.46,1.42-3.35,2.13-5.24,2.13s-3.78-.71-5.24-2.13l-28.78-28.09c-2.96-2.89-3.02-7.64-.13-10.61,2.89-2.96,7.64-3.02,10.61-.13l23.54,22.98,45.98-44.89c2.96-2.89,7.71-2.83,10.61,.13,2.89,2.96,2.84,7.71-.13,10.61Z"/>
    <path class="cls-1" d="M467,222.5c0-70.3-57.2-127.5-127.5-127.5s-127.5,57.2-127.5,127.5,57.2,127.5,127.5,127.5,127.5-57.2,127.5-127.5Zm-127.5,97.5c-53.76,0-97.5-43.74-97.5-97.5s43.74-97.5,97.5-97.5,97.5,43.74,97.5,97.5-43.74,97.5-97.5,97.5Z"/>
    <path class="cls-1" d="M503.96,344.52l-8.85-8.85-42.43,42.43,8.85,8.85c5.36,5.36,12.4,8.04,19.44,8.04s14.08-2.68,19.45-8.04l3.54-3.54h0c10.72-10.72,10.72-28.17,0-38.89Z"/>
    <path class="cls-1" d="M459.19,299.75c-10.98,16.96-25.47,31.44-42.42,42.43l25.31,25.31,42.43-42.43-25.32-25.32Z"/>
  </g>
</svg>