<?xml version="1.0" encoding="UTF-8"?>
<svg id="OBJECT" xmlns="http://www.w3.org/2000/svg" viewBox="0 0 32 32">
  <defs>
    <style>
      .cls-1 {
        fill: #FD4360;
      }

      .cls-1, .cls-2 {
        stroke-width: 0px;
      }

      .cls-2 {
        fill: #dadada;
      }
    </style>
  </defs>
  <path class="cls-1" d="m9.37,10.01c1.34,0,2.46-.92,2.78-2.15h7.7c.32,1.24,1.44,2.15,2.78,2.15,1.58,0,2.87-1.29,2.87-2.87,0-.59-.18-1.16-.51-1.63.33-.47.51-1.04.51-1.64,0-1.58-1.29-2.87-2.87-2.87-1.27,0-2.34.82-2.72,1.97h-7.81c-.38-1.14-1.46-1.97-2.72-1.97-1.58,0-2.87,1.29-2.87,2.87,0,.6.18,1.17.51,1.64-.33.47-.51,1.04-.51,1.63,0,1.58,1.29,2.87,2.87,2.87Z"/>
  <path class="cls-2" d="m30,12.96h-.5v-6c0-.55-.45-1-1-1h-1.18c-.55,0-1,.45-1,1s.45,1,1,1h.18v5H4.5v-5h.18c.55,0,1-.45,1-1s-.45-1-1-1h-1.18c-.55,0-1,.45-1,1v6h-.5c-.55,0-1,.45-1,1s.45,1,1,1h1v1c0,1.47.81,2.75,2,3.44v9.59h-2c-.55,0-1,.45-1,1s.45,1,1,1h26c.55,0,1-.45,1-1s-.45-1-1-1h-2v-9.59c1.19-.69,2-1.97,2-3.44v-1h1c.55,0,1-.45,1-1s-.45-1-1-1Zm-25,3v-1h4v1c0,1.1-.9,2-2,2s-2-.9-2-2Zm6-1h4v1c0,1.1-.9,2-2,2s-2-.9-2-2v-1Zm6,0h4v1c0,1.1-.9,2-2,2s-2-.9-2-2v-1Zm1.25,14.04h-4v-4.11c0-.55.45-1,1-1h2c.55,0,1,.45,1,1v4.11Zm6.75,0h-4.75v-4.11c0-1.65-1.35-3-3-3h-2c-1.65,0-3,1.35-3,3v4.11h-5.25v-9.04c1.2,0,2.27-.54,3-1.38.73.84,1.8,1.38,3,1.38s2.27-.54,3-1.38c.73.84,1.8,1.38,3,1.38s2.27-.54,3-1.38c.73.84,1.8,1.38,3,1.38v9.04Zm0-11.04c-1.1,0-2-.9-2-2v-1h4v1c0,1.1-.9,2-2,2Z"/>
</svg>