<?xml version="1.0" encoding="UTF-8"?>
<svg id="OBJECT" xmlns="http://www.w3.org/2000/svg" viewBox="0 0 512 512">
  <defs>
    <style>
      .cls-1 {
        fill: #FD4360;
      }

      .cls-2 {
        fill: #dadada;
      }
    </style>
  </defs>
  <path class="cls-2" d="M489.5,187h-17.5v-17.5c0-12.41-10.09-22.5-22.5-22.5H243.5v-62h7.5c12.41,0,22.5-10.09,22.5-22.5v-17.5h12.5c4.14,0,7.5-3.36,7.5-7.5s-3.36-7.5-7.5-7.5h-12.5V7.5c0-4.14-3.36-7.5-7.5-7.5h-60c-4.14,0-7.5,3.36-7.5,7.5V30h-12.5c-4.14,0-7.5,3.36-7.5,7.5s3.36,7.5,7.5,7.5h12.5v17.5c0,12.41,10.09,22.5,22.5,22.5h7.5v62h-85V74.5c0-3.03-1.83-5.77-4.63-6.93-2.8-1.16-6.03-.52-8.17,1.63l-20,20c-2.93,2.93-2.93,7.68,0,10.61,2.93,2.93,7.68,2.93,10.61,0l7.2-7.2v54.39H22.5c-12.41,0-22.5,10.09-22.5,22.5V449.5c0,12.41,10.09,22.5,22.5,22.5h17.5v17.5c0,12.41,10.09,22.5,22.5,22.5H489.5c12.41,0,22.5-10.09,22.5-22.5V209.5c0-12.41-10.09-22.5-22.5-22.5ZM213.5,15h45v15h-45V15Zm0,47.5v-17.5h45v17.5c0,4.14-3.36,7.5-7.5,7.5h-30c-4.14,0-7.5-3.36-7.5-7.5Zm243.5,204.5H15v-45H457v45ZM22.5,162h106.75c3.48,17.1,18.64,30,36.75,30h20c4.14,0,7.5-3.36,7.5-7.5s-3.36-7.5-7.5-7.5h-20c-9.78,0-18.11-6.27-21.21-15H449.5c4.14,0,7.5,3.36,7.5,7.5v37.5H15v-37.5c0-4.14,3.36-7.5,7.5-7.5Zm-7.5,287.5v-167.5H457v167.5c0,4.14-3.36,7.5-7.5,7.5H22.5c-4.14,0-7.5-3.36-7.5-7.5Zm482,40c0,4.14-3.36,7.5-7.5,7.5H62.5c-4.14,0-7.5-3.36-7.5-7.5v-17.5H449.5c12.41,0,22.5-10.09,22.5-22.5V202h17.5c4.14,0,7.5,3.36,7.5,7.5V489.5Z"/>
  <g>
    <path class="cls-1" d="M414.5,397H247.5c-4.14,0-7.5,3.36-7.5,7.5s3.36,7.5,7.5,7.5h167c4.14,0,7.5-3.36,7.5-7.5s-3.36-7.5-7.5-7.5Z"/>
    <path class="cls-1" d="M217.5,397h-10c-4.14,0-7.5,3.36-7.5,7.5s3.36,7.5,7.5,7.5h10c4.14,0,7.5-3.36,7.5-7.5s-3.36-7.5-7.5-7.5Z"/>
    <path class="cls-1" d="M142.37,307.13H62.37c-12.41,0-22.5,10.09-22.5,22.5v80c0,12.41,10.09,22.5,22.5,22.5h80c12.41,0,22.5-10.09,22.5-22.5v-80c0-12.41-10.09-22.5-22.5-22.5Zm-40,97.5c-19.3,0-35-15.7-35-35s15.7-35,35-35c5.83,0,11.61,1.47,16.71,4.24,1.92,1.04,3.29,2.87,3.75,5.01,1.23,5.68,4.87,10.54,10,13.34,1.92,1.04,3.28,2.87,3.75,5,.53,2.44,.79,4.93,.79,7.41,0,19.3-15.7,35-35,35Z"/>
    <path class="cls-1" d="M109.21,350.83c-2.18-.79-4.5-1.2-6.84-1.2-11.03,0-20,8.97-20,20s8.97,20,20,20,20-8.97,20-20c0-.43-.01-.87-.04-1.3-6.14-4.29-10.73-10.42-13.12-17.5Z"/>
    <path class="cls-1" d="M250,329.5h-52.5c-4.14,0-7.5,3.36-7.5,7.5v35c0,4.14,3.36,7.5,7.5,7.5h52.5v-50Z"/>
    <path class="cls-1" d="M424.5,329.5h-159.5v50h159.5c4.14,0,7.5-3.36,7.5-7.5v-35c0-4.14-3.36-7.5-7.5-7.5Z"/>
  </g>
</svg>