<?xml version="1.0" encoding="UTF-8"?>
<svg id="OBJECT" xmlns="http://www.w3.org/2000/svg" viewBox="0 0 512 512">
  <defs>
    <style>
      .cls-1 {
        fill: #FD4360;
      }

      .cls-2 {
        fill: #dadada;
      }
    </style>
  </defs>
  <path class="cls-2" d="M416,117h-17.5v-17.5c0-12.41-10.09-22.5-22.5-22.5H243.5v-22h7.5c12.41,0,22.5-10.09,22.5-22.5V7.5c0-4.14-3.36-7.5-7.5-7.5h-60c-4.14,0-7.5,3.36-7.5,7.5v25c0,12.41,10.09,22.5,22.5,22.5h7.5v22h-70V27.5c0-3.03-1.83-5.77-4.63-6.93-2.8-1.16-6.03-.52-8.17,1.63l-20,20c-2.93,2.93-2.93,7.68,0,10.61,2.93,2.93,7.68,2.93,10.61,0l7.2-7.2v31.39h-47.5c-12.41,0-22.5,10.09-22.5,22.5V449.5c0,12.41,10.09,22.5,22.5,22.5h17.5v17.5c0,12.41,10.09,22.5,22.5,22.5H416c12.41,0,22.5-10.09,22.5-22.5V139.5c0-12.41-10.09-22.5-22.5-22.5ZM213.5,32.5V15h45v17.5c0,4.14-3.36,7.5-7.5,7.5h-30c-4.14,0-7.5-3.36-7.5-7.5ZM88.5,449.5V99.5c0-4.14,3.36-7.5,7.5-7.5h47.5v15.5c0,20.68,16.82,37.5,37.5,37.5h20c4.14,0,7.5-3.36,7.5-7.5s-3.36-7.5-7.5-7.5h-20c-12.41,0-22.5-10.09-22.5-22.5v-15.5h217.5c4.14,0,7.5,3.36,7.5,7.5V449.5c0,4.14-3.36,7.5-7.5,7.5H96c-4.14,0-7.5-3.36-7.5-7.5Zm335,40c0,4.14-3.36,7.5-7.5,7.5H136c-4.14,0-7.5-3.36-7.5-7.5v-17.5h247.5c12.41,0,22.5-10.09,22.5-22.5V132h17.5c4.14,0,7.5,3.36,7.5,7.5V489.5Z"/>
  <g>
    <path class="cls-1" d="M361,412H191c-4.14,0-7.5,3.36-7.5,7.5s3.36,7.5,7.5,7.5h170c4.14,0,7.5-3.36,7.5-7.5s-3.36-7.5-7.5-7.5Z"/>
    <path class="cls-1" d="M361,382H231c-4.14,0-7.5,3.36-7.5,7.5s3.36,7.5,7.5,7.5h130c4.14,0,7.5-3.36,7.5-7.5s-3.36-7.5-7.5-7.5Z"/>
    <path class="cls-1" d="M191,382c-4.14,0-7.5,3.36-7.5,7.5s3.36,7.5,7.5,7.5h10c4.14,0,7.5-3.36,7.5-7.5s-3.36-7.5-7.5-7.5h-10Z"/>
    <rect class="cls-1" x="103.5" y="377" width="65" height="55" rx="15" ry="15"/>
    <path class="cls-1" d="M291,159.5h27.5v-50h-27.5c-4.14,0-7.5,3.36-7.5,7.5v35c0,4.14,3.36,7.5,7.5,7.5Z"/>
    <path class="cls-1" d="M361,109.5h-27.5v50h27.5c4.14,0,7.5-3.36,7.5-7.5v-35c0-4.14-3.36-7.5-7.5-7.5Z"/>
    <path class="cls-1" d="M309.41,315.7c-6.86-20.32-21.94-37.07-42.06-45.92-4.33,13.18-16.74,22.72-31.35,22.72s-27.02-9.54-31.35-22.72c-20.12,8.85-35.21,25.6-42.06,45.92,16.92,22.05,43.53,36.3,73.41,36.3s56.49-14.25,73.41-36.3Z"/>
    <path class="cls-1" d="M161.81,285.43c10.46-14.02,24.94-24.93,41.19-31.16v-33.02c0-11.17,9.08-20.25,20.25-20.25h25.5c11.17,0,20.25,9.08,20.25,20.25v33.02c16.25,6.23,30.74,17.14,41.19,31.16,3.46,4.64,6.43,9.53,8.93,14.62,6-12.25,9.38-26.02,9.38-40.56,0-51-41.5-92.5-92.5-92.5s-92.5,41.5-92.5,92.5c0,14.54,3.38,28.3,9.38,40.56,2.5-5.09,5.47-9.99,8.93-14.62Z"/>
    <path class="cls-1" d="M223.25,216c-2.89,0-5.25,2.36-5.25,5.25v38.25c0,9.92,8.08,18,18,18s18-8.08,18-18v-38.25c0-2.89-2.36-5.25-5.25-5.25h-25.5Z"/>
  </g>
</svg>