<?xml version="1.0" encoding="UTF-8"?>
<svg id="OBJECT" xmlns="http://www.w3.org/2000/svg" viewBox="0 0 512 512">
  <defs>
    <style>
      .cls-1 {
        fill: #FD4360;
      }

      .cls-2 {
        fill: #dadada;
      }
    </style>
  </defs>
  <g>
    <path class="cls-2" d="M416,277h-17.5v-17.5c0-12.41-10.09-22.5-22.5-22.5H216c-4.14,0-7.5,3.36-7.5,7.5s3.36,7.5,7.5,7.5h157.74l-117.99,126.42c-5.09,5.45-12.29,8.58-19.75,8.58s-14.66-3.13-19.75-8.58l-117.99-126.42h57.74c4.14,0,7.5-3.36,7.5-7.5s-3.36-7.5-7.5-7.5h-60c-12.41,0-22.5,10.09-22.5,22.5v190c0,12.41,10.09,22.5,22.5,22.5h17.5v17.5c0,12.41,10.09,22.5,22.5,22.5H416c12.41,0,22.5-10.09,22.5-22.5v-190c0-12.41-10.09-22.5-22.5-22.5Zm-32.5-13.47v181.95l-84.91-90.97,84.91-90.97Zm-147.5,138.47c11.6,0,22.8-4.87,30.72-13.35l21.62-23.16,85.41,91.51H98.26l85.41-91.51,21.62,23.16c7.92,8.48,19.11,13.35,30.72,13.35Zm-62.59-47.5l-84.91,90.97v-181.95l84.91,90.97Zm250.09,135c0,4.14-3.36,7.5-7.5,7.5H136c-4.14,0-7.5-3.36-7.5-7.5v-17.5h247.5c12.41,0,22.5-10.09,22.5-22.5v-157.5h17.5c4.14,0,7.5,3.36,7.5,7.5v190Z"/>
    <path class="cls-2" d="M193.5,442h15c4.14,0,7.5-3.36,7.5-7.5s-3.36-7.5-7.5-7.5h-15c-4.14,0-7.5,3.36-7.5,7.5s3.36,7.5,7.5,7.5Z"/>
    <path class="cls-2" d="M263.5,442h15c4.14,0,7.5-3.36,7.5-7.5s-3.36-7.5-7.5-7.5h-15c-4.14,0-7.5,3.36-7.5,7.5s3.36,7.5,7.5,7.5Z"/>
  </g>
  <g>
    <path class="cls-1" d="M206,70h100c4.14,0,7.5-3.36,7.5-7.5s-3.36-7.5-7.5-7.5h-100c-4.14,0-7.5,3.36-7.5,7.5s3.36,7.5,7.5,7.5Z"/>
    <path class="cls-1" d="M306,85h-100c-4.14,0-7.5,3.36-7.5,7.5s3.36,7.5,7.5,7.5h100c4.14,0,7.5-3.36,7.5-7.5s-3.36-7.5-7.5-7.5Z"/>
    <path class="cls-1" d="M288.5,7.5c0-4.14-3.36-7.5-7.5-7.5h-50c-4.14,0-7.5,3.36-7.5,7.5V40h65V7.5Z"/>
    <path class="cls-1" d="M223.5,147.5c0,4.14,3.36,7.5,7.5,7.5h50c4.14,0,7.5-3.36,7.5-7.5v-32.5h-65v32.5Z"/>
    <rect class="cls-1" x="248.5" y="170" width="15" height="52"/>
    <path class="cls-1" d="M226,277h-20c-6.89,0-12.5-5.61-12.5-12.5v-80c0-2.77-1.52-5.31-3.96-6.61-2.44-1.3-5.4-1.16-7.7,.37l-30,20c-3.45,2.3-4.38,6.95-2.08,10.4,2.3,3.45,6.95,4.38,10.4,2.08l18.34-12.23v65.99c0,15.16,12.34,27.5,27.5,27.5h20c4.14,0,7.5-3.36,7.5-7.5s-3.36-7.5-7.5-7.5Z"/>
  </g>
</svg>