<?xml version="1.0" encoding="UTF-8"?>
<svg id="OBJECT" xmlns="http://www.w3.org/2000/svg" viewBox="0 0 512 512">
  <defs>
    <style>
      .cls-1 {
        fill: #FD4360;
      }

      .cls-2 {
        fill: #dadada;
      }
    </style>
  </defs>
  <g>
    <path class="cls-2" d="M504.5,197H186c-4.14,0-7.5,3.36-7.5,7.5s3.36,7.5,7.5,7.5H497V497H15V212H126c4.14,0,7.5-3.36,7.5-7.5s-3.36-7.5-7.5-7.5H7.5c-4.14,0-7.5,3.36-7.5,7.5V504.5c0,4.14,3.36,7.5,7.5,7.5H504.5c4.14,0,7.5-3.36,7.5-7.5V204.5c0-4.14-3.36-7.5-7.5-7.5Z"/>
    <path class="cls-2" d="M79.62,276.62c8.13-8.13,13.26-18.45,14.85-29.62h31.53c4.14,0,7.5-3.36,7.5-7.5s-3.36-7.5-7.5-7.5h-38.5c-4.14,0-7.5,3.36-7.5,7.5,0,10.02-3.9,19.43-10.98,26.52s-16.5,10.98-26.52,10.98c-4.14,0-7.5,3.36-7.5,7.5v140c0,4.14,3.36,7.5,7.5,7.5,10.02,0,19.43,3.9,26.52,10.98,7.08,7.08,10.98,16.5,10.98,26.52,0,4.14,3.36,7.5,7.5,7.5H424.5c4.14,0,7.5-3.36,7.5-7.5,0-10.02,3.9-19.43,10.98-26.52s16.5-10.98,26.52-10.98c4.14,0,7.5-3.36,7.5-7.5v-140c0-4.14-3.36-7.5-7.5-7.5-10.02,0-19.43-3.9-26.52-10.98-7.08-7.08-10.98-16.5-10.98-26.52,0-4.14-3.36-7.5-7.5-7.5H186c-4.14,0-7.5,3.36-7.5,7.5s3.36,7.5,7.5,7.5h231.53c1.59,11.18,6.72,21.5,14.85,29.62,8.13,8.12,18.44,13.26,29.62,14.85v126.06c-11.18,1.59-21.5,6.72-29.62,14.85-8.13,8.13-13.26,18.45-14.85,29.62H94.47c-1.59-11.18-6.72-21.5-14.85-29.62-8.13-8.12-18.44-13.26-29.62-14.85v-126.06c11.18-1.59,21.5-6.72,29.62-14.85Z"/>
    <path class="cls-2" d="M241.42,277c-4.14,0-7.5,3.36-7.5,7.5v17.48c-11.86,4.14-20.42,15.66-20.42,29.18,0,17,13.51,30.83,30.12,30.83h24.77c8.33,0,15.12,7.1,15.12,15.83s-6.78,15.83-15.12,15.83h-40.38c-4.14,0-7.5,3.36-7.5,7.5s3.36,7.5,7.5,7.5h5.92v15.83c0,4.14,3.36,7.5,7.5,7.5s7.5-3.36,7.5-7.5v-15.83h14.17v15.83c0,4.14,3.36,7.5,7.5,7.5s7.5-3.36,7.5-7.5v-17.48c11.86-4.14,20.42-15.66,20.42-29.18,0-17-13.51-30.83-30.12-30.83h-24.77c-8.33,0-15.12-7.1-15.12-15.83s6.78-15.83,15.12-15.83h40.38c4.14,0,7.5-3.36,7.5-7.5s-3.36-7.5-7.5-7.5h-5.92v-15.83c0-4.14-3.36-7.5-7.5-7.5s-7.5,3.36-7.5,7.5v15.83h-14.17v-15.83c0-4.14-3.36-7.5-7.5-7.5Z"/>
    <path class="cls-2" d="M371,362c4.14,0,7.5-3.36,7.5-7.5s-3.36-7.5-7.5-7.5h-40c-4.14,0-7.5,3.36-7.5,7.5s3.36,7.5,7.5,7.5h40Z"/>
    <path class="cls-2" d="M141,362h40c4.14,0,7.5-3.36,7.5-7.5s-3.36-7.5-7.5-7.5h-40c-4.14,0-7.5,3.36-7.5,7.5s3.36,7.5,7.5,7.5Z"/>
  </g>
  <g>
    <rect class="cls-1" x="248.5" y="160" width="15" height="22"/>
    <path class="cls-1" d="M196,277h-20c-6.89,0-12.5-5.61-12.5-12.5V124.5c0-3.03-1.83-5.77-4.63-6.93-2.8-1.16-6.03-.52-8.17,1.63l-30,30c-2.93,2.93-2.93,7.68,0,10.61,2.93,2.93,7.68,2.93,10.61,0l17.2-17.2v121.89c0,15.16,12.34,27.5,27.5,27.5h20c4.14,0,7.5-3.36,7.5-7.5s-3.36-7.5-7.5-7.5Z"/>
    <path class="cls-1" d="M306,80h-100c-4.14,0-7.5,3.36-7.5,7.5s3.36,7.5,7.5,7.5h100c4.14,0,7.5-3.36,7.5-7.5s-3.36-7.5-7.5-7.5Z"/>
    <path class="cls-1" d="M206,65h100c4.14,0,7.5-3.36,7.5-7.5s-3.36-7.5-7.5-7.5h-100c-4.14,0-7.5,3.36-7.5,7.5s3.36,7.5,7.5,7.5Z"/>
    <path class="cls-1" d="M288.5,7.5c0-4.14-3.36-7.5-7.5-7.5h-50c-4.14,0-7.5,3.36-7.5,7.5v27.5h65V7.5Z"/>
    <path class="cls-1" d="M223.5,137.5c0,4.14,3.36,7.5,7.5,7.5h50c4.14,0,7.5-3.36,7.5-7.5v-27.5h-65v27.5Z"/>
  </g>
</svg>