<?xml version="1.0" encoding="UTF-8"?>
<svg id="OBJECT" xmlns="http://www.w3.org/2000/svg" viewBox="0 0 512 512">
  <defs>
    <style>
      .cls-1 {
        fill: #FD4360;
      }

      .cls-2 {
        fill: #dadada;
      }
    </style>
  </defs>
  <path class="cls-2" d="M370.62,436.53l-26.29-40.36c-11.23-17.24-32.05-24.98-51.81-19.27l-41.49,11.99-11.63-6.56c-45.89-25.9-83.84-63.85-109.74-109.74l-6.57-11.63,11.99-41.49c5.71-19.76-2.03-40.59-19.27-51.81l-40.35-26.29c-11.36-7.4-26.54-5.18-35.3,5.16L1.95,191.62c-1.04,1.22-1.66,2.75-1.76,4.35-1.95,29.45,11.14,68.11,38.92,114.9,21.83,36.76,47.04,68.96,60.12,84.88,5.09,6.2,10.82,11.92,17.01,17.01,15.92,13.08,48.12,38.3,84.88,60.12,43.75,25.98,80.39,39.12,109.05,39.12,1.99,0,3.94-.06,5.85-.19,1.6-.11,3.13-.72,4.35-1.76l45.08-38.21c10.34-8.77,12.56-23.94,5.16-35.3Zm-259.8-50.31c-8.37-10.18-23.45-29.2-39.21-52.29l8.45-8.45c4.67-4.67,12.27-4.67,16.94,0l89.51,89.51c4.67,4.67,4.67,12.27,0,16.94l-8.45,8.45c-23.09-15.76-42.1-30.83-52.29-39.2-5.45-4.48-10.48-9.51-14.95-14.95Zm244.94,74.17l-18.92,16.03-12.49-24.1c-1.91-3.68-6.43-5.12-10.11-3.21-3.68,1.91-5.11,6.43-3.21,10.11l14.07,27.15-12.49,10.59c-.86,.03-1.72,.04-2.6,.04-35.64,0-81.32-23.59-119.22-48.15l6.32-6.32c10.52-10.52,10.52-27.63,0-38.15l-89.51-89.51c-5.09-5.09-11.87-7.9-19.07-7.9s-13.98,2.81-19.07,7.9l-6.32,6.32c-25.16-38.83-49.31-85.83-48.11-121.82l10.59-12.49,27.15,14.07c1.1,.57,2.28,.84,3.44,.84,2.71,0,5.33-1.48,6.67-4.05,1.91-3.68,.47-8.2-3.21-10.11l-24.1-12.49,16.03-18.92c3.89-4.59,10.63-5.58,15.67-2.29l40.35,26.29c11.67,7.6,16.91,21.7,13.05,35.08l-7.91,27.36-1.5-2.67c-2.04-3.61-6.61-4.88-10.22-2.85-3.61,2.04-4.88,6.61-2.84,10.22l18.4,32.59c27.24,48.27,67.16,88.18,115.43,115.43l32.59,18.4c1.16,.66,2.43,.97,3.68,.97,2.62,0,5.16-1.37,6.54-3.81,2.04-3.61,.76-8.18-2.85-10.22l-2.67-1.51,27.36-7.91c13.38-3.87,27.48,1.38,35.08,13.05l26.29,40.36c3.29,5.04,2.3,11.78-2.29,15.67Z"/>
  <path class="cls-1" d="M478.65,0H210.35c-18.39,0-33.35,14.96-33.35,33.35V231.65c0,18.39,14.96,33.35,33.35,33.35h74.8l30.4,53.2c5.92,10.36,17.02,16.8,28.95,16.8s23.03-6.44,28.95-16.8l21.83-38.2h-40.78c-4.14,0-7.5-3.36-7.5-7.5s3.36-7.5,7.5-7.5h124.15c18.39,0,33.35-14.96,33.35-33.35V33.35c0-18.39-14.96-33.35-33.35-33.35ZM224.5,40h10c4.14,0,7.5,3.36,7.5,7.5s-3.36,7.5-7.5,7.5h-10c-4.14,0-7.5-3.36-7.5-7.5s3.36-7.5,7.5-7.5Zm200,185H224.5c-4.14,0-7.5-3.36-7.5-7.5s3.36-7.5,7.5-7.5h200c4.14,0,7.5,3.36,7.5,7.5s-3.36,7.5-7.5,7.5Zm40,0h-10c-4.14,0-7.5-3.36-7.5-7.5s3.36-7.5,7.5-7.5h10c4.14,0,7.5,3.36,7.5,7.5s-3.36,7.5-7.5,7.5Zm0-42.5H224.5c-4.14,0-7.5-3.36-7.5-7.5s3.36-7.5,7.5-7.5h240c4.14,0,7.5,3.36,7.5,7.5s-3.36,7.5-7.5,7.5Zm-247.5-50c0-4.14,3.36-7.5,7.5-7.5h10c4.14,0,7.5,3.36,7.5,7.5s-3.36,7.5-7.5,7.5h-10c-4.14,0-7.5-3.36-7.5-7.5Zm247.5,7.5h-200c-4.14,0-7.5-3.36-7.5-7.5s3.36-7.5,7.5-7.5h200c4.14,0,7.5,3.36,7.5,7.5s-3.36,7.5-7.5,7.5Zm0-42.5H224.5c-4.14,0-7.5-3.36-7.5-7.5s3.36-7.5,7.5-7.5h240c4.14,0,7.5,3.36,7.5,7.5s-3.36,7.5-7.5,7.5Zm0-42.5h-200c-4.14,0-7.5-3.36-7.5-7.5s3.36-7.5,7.5-7.5h200c4.14,0,7.5,3.36,7.5,7.5s-3.36,7.5-7.5,7.5Z"/>
</svg>