<?xml version="1.0" encoding="UTF-8"?>
<svg id="OBJECT" xmlns="http://www.w3.org/2000/svg" viewBox="0 0 32 32">
  <defs>
    <style>
      .cls-1 {
        fill: #FD4360;
      }

      .cls-1, .cls-2 {
        stroke-width: 0px;
      }

      .cls-2 {
        fill: #dadada;
      }
    </style>
  </defs>
  <g>
    <path class="cls-2" d="m27,1h-12c-2.21,0-4,1.79-4,4v6c0,2.21,1.79,4,4,4h1.43l2.19,3.66c.5.83,1.41,1.34,2.37,1.34s1.87-.51,2.37-1.34l2.19-3.66h1.43c2.21,0,4-1.79,4-4v-6c0-2.21-1.79-4-4-4Zm2,10c0,1.1-.9,2-2,2h-6c-.55,0-1,.45-1,1s.45,1,1,1h2.23l-1.58,2.63c-.28.46-1.04.46-1.31,0l-2.49-4.14c-.18-.3-.51-.49-.86-.49h-2c-1.1,0-2-.9-2-2v-6c0-1.1.9-2,2-2h12c1.1,0,2,.9,2,2v6Z"/>
    <path class="cls-2" d="m26.5,9h-11c-.55,0-1,.45-1,1s.45,1,1,1h11c.55,0,1-.45,1-1s-.45-1-1-1Z"/>
    <path class="cls-2" d="m26.5,5h-7c-.55,0-1,.45-1,1s.45,1,1,1h7c.55,0,1-.45,1-1s-.45-1-1-1Z"/>
    <path class="cls-2" d="m15.5,7h.5c.55,0,1-.45,1-1s-.45-1-1-1h-.5c-.55,0-1,.45-1,1s.45,1,1,1Z"/>
  </g>
  <path class="cls-1" d="m20.36,22.51c-.68-.69-1.69-.95-2.62-.7l-2.88.77c.79.42,1.61.79,2.49,1.05.53.16.83.72.67,1.24-.13.43-.53.71-.96.71-.1,0-.19-.01-.29-.04-4.97-1.49-8.83-5.35-10.32-10.32-.16-.53.14-1.09.67-1.24.53-.16,1.09.14,1.24.67.26.88.63,1.7,1.05,2.49l.77-2.88c.25-.93-.02-1.94-.7-2.63l-1.84-1.84c-1.06-1.06-2.78-1.06-3.84,0l-2.52,2.52c-.2.2-.3.47-.29.75v.21s0,0,0,0c.21,4.64,2.13,9.01,5.42,12.3,3.29,3.29,7.65,5.21,12.3,5.42h.21s.03.01.04.01c.26,0,.52-.1.71-.29l2.52-2.52c1.06-1.06,1.06-2.78,0-3.84l-1.84-1.84Z"/>
</svg>