<?xml version="1.0" encoding="UTF-8"?>
<svg id="OBJECT" xmlns="http://www.w3.org/2000/svg" viewBox="0 0 32 32">
  <defs>
    <style>
      .cls-1 {
        fill: #FD4360;
      }

      .cls-1, .cls-2 {
        stroke-width: 0px;
      }

      .cls-2 {
        fill: #dadada;
      }
    </style>
  </defs>
  <path class="cls-2" d="m27,1H7c-.55,0-1,.45-1,1v1h-1c-.55,0-1,.45-1,1s.45,1,1,1h1v1h-1c-.55,0-1,.45-1,1s.45,1,1,1h1v5.5h-1c-.55,0-1,.45-1,1s.45,1,1,1h1v1h-1c-.55,0-1,.45-1,1s.45,1,1,1h1v5.5h-1c-.55,0-1,.45-1,1s.45,1,1,1h1v1h-1c-.55,0-1,.45-1,1s.45,1,1,1h1v1c0,.55.45,1,1,1h20c.55,0,1-.45,1-1V2c0-.55-.45-1-1-1Zm-1,28H8V3h18v26Z"/>
  <g>
    <path class="cls-1" d="m23.5,18.5h-13c-.55,0-1,.45-1,1v7c0,.55.45,1,1,1h13c.55,0,1-.45,1-1v-7c0-.55-.45-1-1-1Zm-3,5.5h-7c-.55,0-1-.45-1-1s.45-1,1-1h7c.55,0,1,.45,1,1s-.45,1-1,1Z"/>
    <path class="cls-1" d="m17,11.9c1.79,0,3.25-1.46,3.25-3.25v-1.35c0-1.54-1.26-2.8-2.8-2.8h-.9c-1.54,0-2.8,1.26-2.8,2.8v1.35c0,1.79,1.46,3.25,3.25,3.25Z"/>
    <path class="cls-1" d="m12.5,16.5h9c.55,0,1-.45,1-1v-1.5c0-1.06-.31-2.08-.86-2.94-.88,1.68-2.61,2.84-4.64,2.84s-3.76-1.16-4.64-2.84c-.55.86-.86,1.88-.86,2.94v1.5c0,.55.45,1,1,1Z"/>
  </g>
</svg>