<?xml version="1.0" encoding="UTF-8"?>
<svg id="OBJECT" xmlns="http://www.w3.org/2000/svg" viewBox="0 0 32 32">
  <defs>
    <style>
      .cls-1 {
        fill: #FD4360;
      }

      .cls-1, .cls-2 {
        stroke-width: 0px;
      }

      .cls-2 {
        fill: #dadada;
      }
    </style>
  </defs>
  <path class="cls-2" d="m23.83,23.39l-3.17-2.31c-.31-.23-.72-.25-1.06-.07l-3.14,1.68c-2.73-2-5.14-4.41-7.14-7.14l1.68-3.14c.18-.34.15-.75-.07-1.06l-2.31-3.17c-.5-.68-1.26-1.1-2.09-1.17-.83-.07-1.65.24-2.25.83l-2.38,2.38c-.73.72-1.04,1.74-.83,2.71.19.88.51,1.87.97,2.95,2.66,6.29,7.79,11.42,14.08,14.08,1.08.46,2.08.79,2.96.97.2.04.4.06.6.06.78,0,1.54-.31,2.11-.89l2.38-2.38c.59-.59.9-1.41.83-2.25-.06-.84-.49-1.6-1.17-2.09Zm-1.08,2.93l-2.38,2.38c-.24.24-.58.35-.88.29-.75-.16-1.62-.45-2.59-.86-5.82-2.46-10.56-7.2-13.02-13.02-.41-.97-.7-1.84-.86-2.59-.06-.3.04-.64.29-.88l2.38-2.38c.25-.25.54-.27.68-.25.15.01.43.07.63.35l1.94,2.66-.89,1.66c-.16-.26-.34-.51-.49-.78-.28-.47-.89-.63-1.37-.35-.48.28-.63.89-.35,1.37,2.98,5.04,7.21,9.28,12.25,12.25.16.09.33.14.51.14.34,0,.68-.18.86-.49.28-.48.12-1.09-.35-1.37-.27-.16-.52-.33-.78-.49l1.66-.89,2.66,1.94c.28.2.34.48.35.63s0,.43-.25.68Z"/>
  <path class="cls-1" d="m22.5,1c-4.69,0-8.5,3.81-8.5,8.5s3.81,8.5,8.5,8.5,8.5-3.81,8.5-8.5S27.19,1,22.5,1Zm-3.6,10.4c-.08,0-.15,0-.23-.03-.34-.08-.61-.33-.72-.66l-.9-2.7c-.17-.52.11-1.09.63-1.26.53-.18,1.09.11,1.26.63l.39,1.17,3.36-3.36c.39-.39,1.02-.39,1.41,0s.39,1.02,0,1.41l-4.5,4.5c-.19.19-.45.29-.71.29Zm8.42.85c-.53.18-1.09-.11-1.26-.63l-.39-1.17-3.36,3.36c-.2.2-.45.29-.71.29s-.51-.1-.71-.29c-.39-.39-.39-1.02,0-1.41l4.5-4.5c.25-.24.6-.34.94-.27.34.08.61.33.72.66l.9,2.7c.17.52-.11,1.09-.63,1.26Z"/>
</svg>