<?xml version="1.0" encoding="UTF-8"?>
<svg id="OBJECT" xmlns="http://www.w3.org/2000/svg" viewBox="0 0 32 32">
  <defs>
    <style>
      .cls-1 {
        fill: #FD4360;
      }

      .cls-1, .cls-2 {
        stroke-width: 0px;
      }

      .cls-2 {
        fill: #dadada;
      }
    </style>
  </defs>
  <path class="cls-2" d="m26.97,24.23c-.14-.94-.7-1.74-1.54-2.18l-2.71-1.44c-1-.53-2.24-.44-3.15.23l-2.07,1.52-.62-.46c-2.58-1.91-4.86-4.19-6.77-6.77l-.46-.62,1.52-2.07c.67-.91.76-2.15.23-3.15l-1.44-2.71c-.45-.84-1.24-1.4-2.18-1.54-.94-.14-1.87.16-2.54.84l-3.36,3.36c-.81.8-1.08,1.97-.71,3.05l1.02,3.02c.48,1.43,1.1,2.82,1.84,4.13l.22.39c1.87,3.33,4.61,6.08,7.95,7.95l.39.22c1.31.73,2.7,1.35,4.13,1.83l3.02,1.02c.32.11.64.16.96.16.77,0,1.52-.3,2.09-.87l3.36-3.36c.67-.67.98-1.6.84-2.54Zm-2.25,1.12l-3.36,3.36c-.26.26-.65.35-1,.23l-3.02-1.02c-1.31-.44-2.59-1.01-3.79-1.69l-.39-.22c-3.01-1.68-5.49-4.17-7.18-7.18l-.22-.39c-.67-1.21-1.24-2.48-1.69-3.79l-1.02-3.02c-.12-.35-.03-.73.23-1l3.36-3.36c.22-.22.52-.32.83-.27.31.05.57.23.71.5l1.44,2.71c.17.33.14.73-.07,1.03l-1.16,1.57-.35-.47c-.33-.44-.96-.54-1.4-.21-.44.33-.54.96-.21,1.4l2.05,2.77c2.03,2.74,4.45,5.16,7.19,7.19l2.77,2.05c.18.13.39.2.59.2.31,0,.61-.14.8-.4.33-.44.24-1.07-.21-1.4l-.47-.35,1.57-1.16c.3-.22.7-.25,1.03-.08l2.71,1.44c.27.15.46.41.5.71s-.05.61-.27.83Z"/>
  <path class="cls-1" d="m22.5,1c-4.69,0-8.5,3.81-8.5,8.5s3.81,8.5,8.5,8.5,8.5-3.81,8.5-8.5S27.19,1,22.5,1Zm.25,13.5h-.5c-.55,0-1-.45-1-1s.45-1,1-1h.5c.55,0,1,.45,1,1s-.45,1-1,1Zm2.7-3.11c-.19.19-.45.29-.7.29s-.52-.1-.71-.3c-.82-.83-2.25-.83-3.08,0-.39.39-1.02.4-1.41,0-.39-.39-.4-1.02,0-1.41.79-.8,1.84-1.24,2.96-1.24s2.17.44,2.96,1.24c.39.39.39,1.03,0,1.41Zm2.25-3.29c-.19.19-.45.29-.7.29s-.52-.1-.71-.3c-1.01-1.02-2.36-1.59-3.79-1.59s-2.78.56-3.79,1.59c-.39.39-1.02.4-1.41,0-.39-.39-.4-1.02,0-1.41,1.39-1.4,3.24-2.18,5.21-2.18s3.82.77,5.21,2.18c.39.39.39,1.03,0,1.41Z"/>
</svg>