<?xml version="1.0" encoding="UTF-8"?>
<svg id="OBJECT" xmlns="http://www.w3.org/2000/svg" viewBox="0 0 32 32">
  <defs>
    <style>
      .cls-1 {
        fill: #FD4360;
      }

      .cls-1, .cls-2 {
        stroke-width: 0px;
      }

      .cls-2 {
        fill: #dadada;
      }
    </style>
  </defs>
  <path class="cls-2" d="m23.82,23.39l-3.17-2.31c-.31-.23-.72-.26-1.06-.07l-3.14,1.68c-2.73-2-5.14-4.41-7.14-7.14l1.68-3.14c.18-.34.15-.75-.07-1.06l-2.31-3.17c-.5-.68-1.26-1.1-2.09-1.17-.83-.06-1.65.24-2.25.83l-2.38,2.38c-.72.72-1.03,1.74-.83,2.71.19.88.51,1.87.97,2.95,2.66,6.29,7.79,11.42,14.08,14.08,1.09.46,2.08.79,2.96.97.2.04.4.06.6.06.78,0,1.54-.31,2.11-.89l2.38-2.38c.59-.59.9-1.41.83-2.25-.07-.84-.49-1.6-1.17-2.09Zm-1.08,2.93l-2.38,2.38c-.24.24-.58.35-.88.29-.75-.16-1.62-.45-2.59-.86-5.82-2.46-10.56-7.2-13.02-13.02-.41-.97-.7-1.84-.86-2.59-.06-.3.04-.64.29-.88l2.38-2.38c.25-.25.54-.26.68-.25.15.01.43.07.63.35l1.94,2.66-.89,1.66c-.16-.26-.34-.51-.49-.78-.28-.48-.89-.63-1.37-.35-.48.28-.63.89-.35,1.37,2.98,5.04,7.21,9.28,12.25,12.25.16.09.33.14.51.14.34,0,.68-.18.86-.49.28-.48.12-1.09-.35-1.37-.27-.16-.52-.33-.78-.5l1.66-.89,2.66,1.94c.28.2.34.48.35.63.01.15,0,.43-.25.68Z"/>
  <path class="cls-1" d="m27.12,1h-10.69c-2.14,0-3.88,1.74-3.88,3.88v5.77c0,2.14,1.74,3.88,3.88,3.88h4.19c.55,0,1,.45,1,1s-.45,1-1,1h-1.51l.04.06c.59.88,1.57,1.41,2.63,1.41s2.04-.52,2.63-1.41l1.37-2.06h1.35c2.14,0,3.88-1.74,3.88-3.88v-5.77c0-2.14-1.74-3.88-3.88-3.88Zm-1.15,9.79h-8.38c-.55,0-1-.45-1-1s.45-1,1-1h8.38c.55,0,1,.45,1,1s-.45,1-1,1Zm0-4.04h-8.38c-.55,0-1-.45-1-1s.45-1,1-1h8.38c.55,0,1,.45,1,1s-.45,1-1,1Z"/>
</svg>