<?xml version="1.0" encoding="UTF-8"?>
<svg id="OBJECT" xmlns="http://www.w3.org/2000/svg" viewBox="0 0 512 512">
  <defs>
    <style>
      .cls-1 {
        fill: #FD4360;
      }

      .cls-2 {
        fill: #dadada;
      }
    </style>
  </defs>
  <g>
    <path class="cls-2" d="M162.5,370c-12.41,0-22.5,10.09-22.5,22.5v57c0,12.41,10.09,22.5,22.5,22.5h200c12.41,0,22.5-10.09,22.5-22.5v-57c0-12.41-10.09-22.5-22.5-22.5H162.5Zm200,87H162.5c-4.14,0-7.5-3.36-7.5-7.5v-34.5h215v34.5c0,4.14-3.36,7.5-7.5,7.5Zm7.5-64.5v7.5H155v-7.5c0-4.14,3.36-7.5,7.5-7.5h200c4.14,0,7.5,3.36,7.5,7.5Z"/>
    <path class="cls-2" d="M417.5,25c4.14,0,7.5-3.36,7.5-7.5V7.5c0-4.14-3.36-7.5-7.5-7.5H57.5c-4.14,0-7.5,3.36-7.5,7.5V30H22.5C10.09,30,0,40.09,0,52.5v20c0,12.41,10.09,22.5,22.5,22.5h27.5v31.75H22.5c-12.41,0-22.5,10.09-22.5,22.5v20c0,12.41,10.09,22.5,22.5,22.5h27.5v31.75H22.5c-12.41,0-22.5,10.09-22.5,22.5v20c0,12.41,10.09,22.5,22.5,22.5h27.5v31.75H22.5c-12.41,0-22.5,10.09-22.5,22.5v20c0,12.41,10.09,22.5,22.5,22.5h27.5v31.75H22.5c-12.41,0-22.5,10.09-22.5,22.5v20c0,12.41,10.09,22.5,22.5,22.5h27.5v22.5c0,4.14,3.36,7.5,7.5,7.5H417.5c4.14,0,7.5-3.36,7.5-7.5v-147c0-4.14-3.36-7.5-7.5-7.5s-7.5,3.36-7.5,7.5v139.5H115V15H410v2.5c0,4.14,3.36,7.5,7.5,7.5ZM22.5,80c-4.14,0-7.5-3.36-7.5-7.5v-20c0-4.14,3.36-7.5,7.5-7.5h27.5v35H22.5Zm0,96.75c-4.14,0-7.5-3.36-7.5-7.5v-20c0-4.14,3.36-7.5,7.5-7.5h27.5v35H22.5Zm0,96.75c-4.14,0-7.5-3.36-7.5-7.5v-20c0-4.14,3.36-7.5,7.5-7.5h27.5v35H22.5Zm0,96.75c-4.14,0-7.5-3.36-7.5-7.5v-20c0-4.14,3.36-7.5,7.5-7.5h27.5v35H22.5Zm0,96.75c-4.14,0-7.5-3.36-7.5-7.5v-20c0-4.14,3.36-7.5,7.5-7.5h27.5v35H22.5Zm77.5,30h-35V15h35V497Z"/>
  </g>
  <g>
    <path class="cls-1" d="M390.12,89.16c2.15,.37,4.03,1.65,5.15,3.52,1.12,1.87,1.38,4.13,.71,6.2-.88,2.7-1.17,5.51-.87,8.36,1,9.45,8.6,16.9,18.07,17.71,3,.26,5.94-.14,8.71-1.17,2.68-1,5.69-.38,7.77,1.58,3.3,3.12,7.09,5.56,11.27,7.25,2.78,1.12,4.63,3.8,4.69,6.81,.24,11.92,9.67,21.71,21.38,22.61V85h-86.59c2.84,2.09,6.16,3.55,9.71,4.16Z"/>
    <path class="cls-1" d="M431.03,144.56c-2.95-1.52-5.74-3.32-8.34-5.39-3.51,.8-7.13,1.05-10.79,.74-16.62-1.42-29.96-14.48-31.71-31.07-.25-2.34-.27-4.67-.05-6.97-8.12-3.22-14.98-9.19-19.3-16.85h-98.84V249.57l31.81-38.17c8.38-10.05,23.14-11.28,33.6-2.8,.38,.31,.73,.65,1.04,1.02l24.23,29.08,38.72-56.33c3.52-5.11,9.06-8.49,15.22-9.26,6.41-.81,12.78,1.24,17.94,5.76,.47,.41,.89,.88,1.24,1.39l41.19,59.92v-63.12c-18.2-.85-33.31-14.74-35.97-32.51Zm-119.03,25.44c-19.3,0-35-15.7-35-35s15.7-35,35-35,35,15.7,35,35-15.7,35-35,35Z"/>
    <circle class="cls-1" cx="312" cy="135" r="20"/>
    <path class="cls-1" d="M414.05,189.64c-2.18-1.64-4.2-1.81-5.56-1.64-1.91,.24-3.63,1.29-4.72,2.88l-56.24,81.81c-1.45,2.12-3.8,3.25-6.19,3.25-1.46,0-2.94-.43-4.24-1.32-3.41-2.35-4.28-7.02-1.93-10.43l8.69-12.65-26.41-31.69c-4.57-3.32-9.5-2-12.12,1.14l-43.33,52v17h205v-23.43c-.18-.21-.36-.43-.52-.67l-52.43-76.26Z"/>
    <path class="cls-1" d="M489.5,40H239.5c-12.41,0-22.5,10.09-22.5,22.5v250c0,12.41,10.09,22.5,22.5,22.5h250c12.41,0,22.5-10.09,22.5-22.5V62.5c0-12.41-10.09-22.5-22.5-22.5Zm-7.5,257.5c0,4.14-3.36,7.5-7.5,7.5H254.5c-4.14,0-7.5-3.36-7.5-7.5V77.5c0-4.14,3.36-7.5,7.5-7.5h220c4.14,0,7.5,3.36,7.5,7.5v220Z"/>
  </g>
</svg>