<?xml version="1.0" encoding="UTF-8" standalone="no"?>
<svg
   id="OBJECT"
   viewBox="0 0 32 32"
   version="1.1"
   sodipodi:docname="Phrase.svg"
   inkscape:version="1.2.2 (732a01da63, 2022-12-09)"
   xmlns:inkscape="http://www.inkscape.org/namespaces/inkscape"
   xmlns:sodipodi="http://sodipodi.sourceforge.net/DTD/sodipodi-0.dtd"
   xmlns="http://www.w3.org/2000/svg"
   xmlns:svg="http://www.w3.org/2000/svg">
  <sodipodi:namedview
     id="namedview33"
     pagecolor="#505050"
     bordercolor="#ffffff"
     borderopacity="1"
     inkscape:showpageshadow="0"
     inkscape:pageopacity="0"
     inkscape:pagecheckerboard="1"
     inkscape:deskcolor="#505050"
     showgrid="false"
     inkscape:zoom="18.318485"
     inkscape:cx="-7.6971431"
     inkscape:cy="20.744073"
     inkscape:window-width="1920"
     inkscape:window-height="1009"
     inkscape:window-x="-8"
     inkscape:window-y="-8"
     inkscape:window-maximized="1"
     inkscape:current-layer="OBJECT" />
  <defs
     id="defs4">
    <style
       id="style2">
      .cls-1 {
        fill: #FD4360;
      }

      .cls-1, .cls-2 {
        stroke-width: 0px;
      }

      .cls-2 {
        fill: #dadada;
      }
    </style>
  </defs>
  <path
     class="cls-2"
     d="M 22,1 H 8 C 7.73,1 7.48,1.11 7.29,1.29 l -6,6 C 1.1,7.48 1,7.73 1,8 v 22 c 0,0.55 0.45,1 1,1 h 20 c 0.55,0 1,-0.45 1,-1 V 2 C 23,1.45 22.55,1 22,1 Z M 7,4.41 V 7 H 4.41 Z M 21,29 H 3 V 9 H 8 C 8.55,9 9,8.55 9,8 V 3 h 12 z"
     id="path6" />
  <path
     class="cls-2"
     d="m 18.5,21 h -13 c -0.55,0 -1,0.45 -1,1 0,0.55 0.45,1 1,1 h 13 c 0.55,0 1,-0.45 1,-1 0,-0.55 -0.45,-1 -1,-1 z"
     id="path8" />
  <path
     class="cls-2"
     d="m 18.5,25 h -13 c -0.55,0 -1,0.45 -1,1 0,0.55 0.45,1 1,1 h 13 c 0.55,0 1,-0.45 1,-1 0,-0.55 -0.45,-1 -1,-1 z"
     id="path10" />
  <path
     class="cls-2"
     d="m 18.5,17 h -13 c -0.55,0 -1,0.45 -1,1 0,0.55 0.45,1 1,1 h 13 c 0.55,0 1,-0.45 1,-1 0,-0.55 -0.45,-1 -1,-1 z"
     id="path12" />
  <path
     class="cls-2"
     d="m 18.5,13 h -10 c -0.55,0 -1,0.45 -1,1 0,0.55 0.45,1 1,1 h 10 c 0.55,0 1,-0.45 1,-1 0,-0.55 -0.45,-1 -1,-1 z"
     id="path14"
     style="fill:#fd4360;fill-opacity:1" />
  <path
     class="cls-2"
     d="M 5.5,15 H 6 C 6.55,15 7,14.55 7,14 7,13.45 6.55,13 6,13 H 5.5 c -0.55,0 -1,0.45 -1,1 0,0.55 0.45,1 1,1 z"
     id="path16"
     style="fill:#fd4360;fill-opacity:1" />
  <path
     class="cls-2"
     d="m 12.5,11 h 6 c 0.55,0 1,-0.45 1,-1 0,-0.55 -0.45,-1 -1,-1 h -6 c -0.55,0 -1,0.45 -1,1 0,0.55 0.45,1 1,1 z"
     id="path18"
     style="fill:#fd4360;fill-opacity:1" />
</svg>
