<?xml version="1.0" encoding="UTF-8"?>
<svg id="OBJECT" xmlns="http://www.w3.org/2000/svg" viewBox="0 0 32 32">
  <defs>
    <style>
      .cls-1 {
        fill: #FD4360;
      }

      .cls-1, .cls-2 {
        stroke-width: 0px;
      }

      .cls-2 {
        fill: #dadada;
      }
    </style>
  </defs>
  <path class="cls-2" d="m18.82,3.97c-2.05-1.99-4.76-3.05-7.62-2.97C5.73,1.16,1.16,5.73,1,11.2c-.08,2.86.97,5.57,2.96,7.62,1.99,2.05,4.66,3.18,7.52,3.18h0c.26,0,.52-.1.71-.29s.29-.44.29-.71v-8c0-.28.22-.5.5-.5h8.01c.55,0,1-.45,1-1,0-2.86-1.13-5.53-3.18-7.53Zm-8.33,15.97c-1.93-.23-3.71-1.1-5.09-2.52-1.61-1.66-2.46-3.85-2.4-6.17.06-2.06.9-3.97,2.22-5.43l5.54,6.05c-.17.34-.28.72-.28,1.12v6.94Zm2.5-9.44c-.24,0-.46.04-.68.1l-5.59-6.1c1.31-.9,2.87-1.46,4.53-1.5.08,0,.16,0,.24,0,2.23,0,4.32.85,5.92,2.41,1.42,1.38,2.29,3.16,2.52,5.09h-6.95Z"/>
  <path class="cls-1" d="m30,14.01h-15c-.55,0-1,.45-1,1v14.99c0,.55.46,1,1.01,1,8.81,0,15.99-7.17,15.99-15.99,0-.55-.45-1-1-1Zm-12.5,4h-.5c-.55,0-1-.45-1-1s.45-1,1-1h.5c.55,0,1,.45,1,1s-.45,1-1,1Zm4,0h-.5c-.55,0-1-.45-1-1s.45-1,1-1h.5c.55,0,1,.45,1,1s-.45,1-1,1Z"/>
</svg>