<?xml version="1.0" encoding="UTF-8"?>
<svg id="OBJECT" xmlns="http://www.w3.org/2000/svg" viewBox="0 0 32 32">
  <defs>
    <style>
      .cls-1 {
        fill: #FD4360;
      }

      .cls-2 {
        fill: #dadada;
      }
    </style>
  </defs>
  <g>
    <path class="cls-2" d="m24,18h-9.5c-.28,0-.5-.22-.5-.5v-9.5c0-.55-.45-1-1-1-3.41,0-6.67,1.46-8.94,4-2.27,2.54-3.36,5.95-2.98,9.36.61,5.51,5.05,9.96,10.56,10.56.45.05.89.07,1.33.07,2.96,0,5.83-1.08,8.03-3.06,2.54-2.27,4-5.53,4-8.94,0-.55-.45-1-1-1Zm-20.94,2.14c-.32-2.89.56-5.67,2.48-7.81,1.67-1.87,3.98-3.03,6.45-3.28v8.45c0,.32.07.63.18.91l-6.92,6.92c-1.19-1.45-1.98-3.23-2.2-5.18Zm16.61,6.31c-2.15,1.92-4.92,2.81-7.81,2.49-1.95-.22-3.73-1.01-5.18-2.2l6.92-6.92c.28.11.59.18.91.18h8.45c-.25,2.47-1.41,4.78-3.28,6.45Z"/>
    <path class="cls-2" d="m12,26.5c0,.55.45,1,1,1,2.27,0,4.41-.88,6.01-2.49.39-.39.39-1.02,0-1.41s-1.02-.39-1.41,0c-1.23,1.23-2.86,1.9-4.6,1.9-.55,0-1,.45-1,1Z"/>
  </g>
  <path class="cls-1" d="m17,1c-.55,0-1,.45-1,1v11.5c0,1.38,1.12,2.5,2.5,2.5h11.5c.55,0,1-.45,1-1,0-7.72-6.28-14-14-14Zm4.75,12h-.5c-.55,0-1-.45-1-1s.45-1,1-1h.5c.55,0,1,.45,1,1s-.45,1-1,1Zm4,0h-.5c-.55,0-1-.45-1-1s.45-1,1-1h.5c.55,0,1,.45,1,1s-.45,1-1,1Z"/>
</svg>