<?xml version="1.0" encoding="UTF-8"?>
<svg id="OBJECT" xmlns="http://www.w3.org/2000/svg" viewBox="0 0 32 32">
  <defs>
    <style>
      .cls-1 {
        fill: #FD4360;
      }

      .cls-1, .cls-2 {
        stroke-width: 0px;
      }

      .cls-2 {
        fill: #dadada;
      }
    </style>
  </defs>
  <g>
    <path class="cls-2" d="m10.12,12.01c-.28-.48-.89-.64-1.37-.36-2.62,1.52-4.25,4.34-4.25,7.36,0,.55.45,1,1,1s1-.45,1-1c0-2.31,1.25-4.47,3.25-5.63.48-.28.64-.89.36-1.37Z"/>
    <path class="cls-2" d="m14,1c-.55,0-1,.45-1,1v5C6.38,7,1,12.38,1,19c0,4.58,2.54,8.69,6.63,10.73.14.07.3.11.45.11.35,0,.7-.19.88-.52l5.5-10.07,14.08,5.48c.12.05.24.07.36.07.4,0,.78-.24.93-.64.78-1.99,1.17-4.07,1.17-6.17C31,8.63,23.37,1,14,1Zm-6.31,26.48c-2.91-1.82-4.69-4.98-4.69-8.48,0-5.51,4.49-10,10-10v8.74l-5.31,9.73Zm20.61-4.98l-13.3-5.18V3.03c7.81.52,14,7.03,14,14.97,0,1.52-.24,3.03-.7,4.5Z"/>
    <path class="cls-2" d="m24.34,9.01c-.44-.34-1.06-.26-1.4.17l-5.44,7c-.34.44-.26,1.06.18,1.4.18.14.4.21.61.21.3,0,.59-.13.79-.39l5.44-7c.34-.44.26-1.06-.18-1.4Z"/>
    <path class="cls-2" d="m24.11,14.25c-.55,0-1,.45-1,1v1.56c0,.55.45,1,1,1s1-.45,1-1v-1.56c0-.55-.45-1-1-1Z"/>
    <path class="cls-2" d="m18.89,11.36v-1.56c0-.55-.45-1-1-1s-1,.45-1,1v1.56c0,.55.45,1,1,1s1-.45,1-1Z"/>
  </g>
  <path class="cls-1" d="m15.37,21.75l-4.9,8.97c.82.18,1.66.28,2.53.28,4.47,0,8.38-2.47,10.44-6.1l-8.07-3.14Z"/>
</svg>