<?xml version="1.0" encoding="UTF-8"?>
<svg id="OBJECT" xmlns="http://www.w3.org/2000/svg" viewBox="0 0 32 32">
  <defs>
    <style>
      .cls-1 {
        fill: #FD4360;
      }

      .cls-1, .cls-2 {
        stroke-width: 0px;
      }

      .cls-2 {
        fill: #dadada;
      }
    </style>
  </defs>
  <g>
    <path class="cls-2" d="m23.28,23.02l-9.28-4.64v-10.38c0-.55-.45-1-1-1C6.38,7,1,12.38,1,19s5.38,12,12,12c4.56,0,8.67-2.54,10.73-6.64.12-.24.14-.51.05-.76-.08-.25-.26-.46-.5-.58Zm-10.28,5.98c-5.51,0-10-4.49-10-10,0-5.18,3.95-9.45,9-9.95v9.95c0,.38.21.73.55.89l8.89,4.44c-1.83,2.9-4.98,4.66-8.45,4.66Z"/>
    <path class="cls-2" d="m9,12.25c-.55,0-1,.45-1,1v.5c0,.55.45,1,1,1s1-.45,1-1v-.5c0-.55-.45-1-1-1Z"/>
    <path class="cls-2" d="m9,16.25c-.55,0-1,.45-1,1v.5c0,.55.45,1,1,1s1-.45,1-1v-.5c0-.55-.45-1-1-1Z"/>
    <path class="cls-2" d="m25.16,4.22c-2.08-2.08-4.84-3.22-7.78-3.22-.55,0-1,.45-1,1v10c0,.4.24.77.62.92.12.05.25.08.38.08.26,0,.52-.1.71-.29l7.07-7.07c.39-.39.39-1.02,0-1.41Zm-6.78,5.36V3.05c1.7.19,3.29.85,4.62,1.91l-4.62,4.62Z"/>
  </g>
  <path class="cls-1" d="m27.19,7.37c-.39-.39-1.02-.39-1.41,0l-8.49,8.49c-.23.23-.33.55-.28.87.05.32.25.59.54.73l10.73,5.36c.14.07.3.11.45.11.37,0,.72-.2.9-.55.92-1.83,1.38-3.78,1.38-5.81,0-3.47-1.35-6.74-3.81-9.19Z"/>
</svg>