<?xml version="1.0" encoding="UTF-8"?>
<svg id="OBJECT" xmlns="http://www.w3.org/2000/svg" viewBox="0 0 32 32">
  <defs>
    <style>
      .cls-1 {
        fill: #FD4360;
      }

      .cls-1, .cls-2 {
        stroke-width: 0px;
      }

      .cls-2 {
        fill: #dadada;
      }
    </style>
  </defs>
  <path class="cls-2" d="m28,16h-1.13c-.36-1.4-1.47-2.51-2.87-2.87v-4.13c0-.55-.45-1-1-1h-2c-2.21,0-4,1.79-4,4v1h-8c-2.21,0-4,1.79-4,4v2.5h-1.5c-.28,0-.5-.22-.5-.5v-3c0-.55-.45-1-1-1s-1,.45-1,1v3c0,1.38,1.12,2.5,2.5,2.5h1.5v2.5c0,1.86,1.28,3.43,3,3.87v.63c0,1.38,1.12,2.5,2.5,2.5h1c1.38,0,2.5-1.12,2.5-2.5v-.5h4v.5c0,1.38,1.12,2.5,2.5,2.5h1c1.38,0,2.5-1.12,2.5-2.5v-.63c1.4-.36,2.51-1.47,2.87-2.87h1.13c1.65,0,3-1.35,3-3v-3c0-1.65-1.35-3-3-3Zm1,6c0,.55-.45,1-1,1h-2c-.55,0-1,.45-1,1,0,1.1-.9,2-2,2-.55,0-1,.45-1,1v1.5c0,.28-.22.5-.5.5h-1c-.28,0-.5-.22-.5-.5v-1.5c0-.55-.45-1-1-1h-6c-.55,0-1,.45-1,1v1.5c0,.28-.22.5-.5.5h-1c-.28,0-.5-.22-.5-.5v-1.5c0-.55-.45-1-1-1-1.1,0-2-.9-2-2v-7c0-1.1.9-2,2-2h9c.55,0,1-.45,1-1v-2c0-1.1.9-2,2-2h1v3h-1c-.55,0-1,.45-1,1s.45,1,1,1h2c1.1,0,2,.9,2,2,0,.55.45,1,1,1h2c.55,0,1,.45,1,1v3Z"/>
  <g>
    <path class="cls-1" d="m23,17h-.5c-.55,0-1,.45-1,1s.45,1,1,1h.5c.55,0,1-.45,1-1s-.45-1-1-1Z"/>
    <path class="cls-1" d="m18,17h-8c-.55,0-1,.45-1,1s.45,1,1,1h8c.55,0,1-.45,1-1s-.45-1-1-1Z"/>
    <path class="cls-1" d="m12.75,8.5h-3c-.55,0-1,.45-1,1s.45,1,1,1h1.25v.5c0,.55.45,1,1,1s1-.45,1-1v-.53c1.26-.13,2.25-1.18,2.25-2.47,0-1.38-1.12-2.5-2.5-2.5h-1.5c-.28,0-.5-.22-.5-.5s.22-.5.5-.5h3c.55,0,1-.45,1-1s-.45-1-1-1h-1.25v-.5c0-.55-.45-1-1-1s-1,.45-1,1v.53c-1.26.13-2.25,1.18-2.25,2.47,0,1.38,1.12,2.5,2.5,2.5h1.5c.28,0,.5.22.5.5s-.22.5-.5.5Z"/>
  </g>
</svg>