<?xml version="1.0" encoding="UTF-8"?>
<svg id="OBJECT" xmlns="http://www.w3.org/2000/svg" viewBox="0 0 32 32">
  <defs>
    <style>
      .cls-1 {
        fill: #FD4360;
      }

      .cls-2 {
        fill: #dadada;
      }
    </style>
  </defs>
  <path class="cls-2" d="M18.75,21.13v-3.13c0-.55-.45-1-1-1s-1,.45-1,1v5.62l-.75,.86-.75-.86v-5.62c0-.55-.45-1-1-1s-1,.45-1,1v3.13c-4.75,.43-9.25,2.05-9.25,4.87,0,3.28,6.04,5,12,5s12-1.72,12-5c0-2.82-4.5-4.44-9.25-4.87Zm-2.75,7.87c-6.01,0-10-1.81-10-3,0-.94,2.57-2.41,7.25-2.86v.86c0,.24,.09,.48,.25,.66l1.75,2c.19,.22,.46,.34,.75,.34s.56-.12,.75-.34l1.75-2c.16-.18,.25-.42,.25-.66v-.86c4.68,.45,7.25,1.93,7.25,2.86,0,1.19-3.99,3-10,3Z"/>
  <path class="cls-1" d="M13.5,12.87c.55,0,1,.45,1,1s-.45,1-1,1h-2v1.13h9v-2.65c1.57-1.33,2.5-3.29,2.5-5.35,0-3.86-3.14-7-7-7s-7,3.14-7,7c0,1.83,.73,3.57,1.98,4.87h2.52Zm2.14-8.56c2.21,0,4,1.79,4,4,0,.55-.45,1-1,1s-1-.45-1-1c0-1.1-.9-2-2-2-.55,0-1-.45-1-1s.45-1,1-1Z"/>
</svg>