<?xml version="1.0" encoding="UTF-8"?>
<svg id="OBJECT" xmlns="http://www.w3.org/2000/svg" viewBox="0 0 32 32">
  <defs>
    <style>
      .cls-1 {
        fill: #FD4360;
      }

      .cls-1, .cls-2 {
        stroke-width: 0px;
      }

      .cls-2 {
        fill: #dadada;
      }
    </style>
  </defs>
  <circle class="cls-1" cx="22" cy="24" r="5"/>
  <g>
    <path class="cls-2" d="m25.72,11c-.39-.39-1.02-.39-1.41,0s-.39,1.02,0,1.41l.31.31c.2.2.45.29.71.29s.51-.1.71-.29c.39-.39.39-1.02,0-1.41l-.31-.31Z"/>
    <path class="cls-2" d="m23.76,9.04l-3.07-3.07c-1.25-1.25-3.44-1.25-4.68,0l-2.33,2.33c-.39.39-.39,1.02,0,1.41s1.02.39,1.41,0l2.33-2.33c.49-.5,1.36-.5,1.85,0l3.07,3.07c.2.2.45.29.71.29s.51-.1.71-.29c.39-.39.39-1.02,0-1.41Z"/>
    <path class="cls-2" d="m28.86,8.48l-5.34-5.34c-2.85-2.85-7.49-2.85-10.34,0l-6.63,6.63c-.1.1-.17.22-.22.34-.01.03,0,.06-.02.08-.03.1-.05.2-.05.31,0,0,0,.01,0,.02l.38,9.47-4.84,4.84c-1.05,1.05-1.05,2.75,0,3.79l1.58,1.58c.51.51,1.18.79,1.9.79s1.39-.28,1.9-.79l4.81-4.81,1.98.21c.55.05,1.04-.34,1.1-.89.06-.55-.34-1.04-.89-1.1l-2.45-.26c-.3-.03-.6.07-.81.29l-2.46,2.46-2.55-2.55,2.46-2.46c.2-.2.3-.47.29-.75l-.29-7.35,7.01,7.01c.2.2.45.29.71.29s.51-.1.71-.29c.39-.39.39-1.02,0-1.41l-8.11-8.11,5.93-5.93c2.07-2.07,5.44-2.07,7.51,0l5.34,5.34c2.07,2.07,2.07,5.44,0,7.51-.39.39-.39,1.02,0,1.41.39.39,1.02.39,1.41,0,2.85-2.85,2.85-7.49,0-10.34ZM7.02,27.52l-1.27,1.27c-.26.26-.71.26-.96,0l-1.59-1.58c-.27-.27-.27-.7,0-.96l1.27-1.27,2.55,2.55Z"/>
  </g>
</svg>