<?xml version="1.0" encoding="UTF-8"?>
<svg id="OBJECT" xmlns="http://www.w3.org/2000/svg" viewBox="0 0 32 32">
  <defs>
    <style>
      .cls-1 {
        fill: #FD4360;
      }

      .cls-1, .cls-2 {
        stroke-width: 0px;
      }

      .cls-2 {
        fill: #dadada;
      }
    </style>
  </defs>
  <g>
    <path class="cls-2" d="m27,9h-5.05c-.55,0-1,.45-1,1s.45,1,1,1h4.05v12h-3.5c-1.38,0-2.5,1.12-2.5,2.5v3.5H6V11h8.78c.55,0,1-.45,1-1s-.45-1-1-1H5c-.55,0-1,.45-1,1v20c0,.55.45,1,1,1h16c.27,0,.52-.11.71-.29l6-6c.19-.19.29-.44.29-.71v-14c0-.55-.45-1-1-1Zm-4.5,16h2.09l-2.59,2.59v-2.09c0-.28.22-.5.5-.5Z"/>
    <path class="cls-2" d="m24.5,17c0-.55-.45-1-1-1h-11c-.55,0-1,.45-1,1s.45,1,1,1h11c.55,0,1-.45,1-1Z"/>
    <path class="cls-2" d="m8.5,18h.5c.55,0,1-.45,1-1s-.45-1-1-1h-.5c-.55,0-1,.45-1,1s.45,1,1,1Z"/>
    <path class="cls-2" d="m17.5,20.5h-9c-.55,0-1,.45-1,1s.45,1,1,1h9c.55,0,1-.45,1-1s-.45-1-1-1Z"/>
    <path class="cls-2" d="m17.5,25h-9c-.55,0-1,.45-1,1s.45,1,1,1h9c.55,0,1-.45,1-1s-.45-1-1-1Z"/>
  </g>
  <path class="cls-1" d="m16.42,12.97c.17.11.36.16.55.16.33,0,.65-.16.84-.45l3.25-4.97c.14.02.27.05.41.05.37,0,.75-.07,1.11-.21.77-.3,1.45-.9,1.89-1.67s.62-1.65.5-2.47c-.14-.89-.63-1.64-1.35-2.06-1.43-.83-3.38-.14-4.35,1.53-.45.77-.62,1.65-.5,2.47.08.5.28.95.56,1.33l-3.2,4.9c-.3.46-.17,1.08.29,1.38Z"/>
</svg>