<?xml version="1.0" encoding="UTF-8"?>
<svg id="OBJECT" xmlns="http://www.w3.org/2000/svg" viewBox="0 0 32 32">
  <defs>
    <style>
      .cls-1 {
        fill: #FD4360;
      }

      .cls-1, .cls-2 {
        stroke-width: 0px;
      }

      .cls-2 {
        fill: #dadada;
      }
    </style>
  </defs>
  <g>
    <path class="cls-2" d="m30.91,29.58l-3.02-6.5c-.16-.35-.52-.58-.91-.58H5.02c-.39,0-.74.23-.91.58l-3.02,6.5c-.14.31-.12.67.06.96.18.29.5.46.84.46h28c.34,0,.66-.17.84-.46.18-.29.21-.65.06-.96Zm-27.34-.58l2.09-4.5h20.69l2.09,4.5H3.57Z"/>
    <path class="cls-2" d="m6.88,20.5h18.25c.34,0,.66-.17.84-.46.18-.29.21-.65.06-.96l-3.02-6.5c-.16-.35-.52-.58-.91-.58h-12.21c-.39,0-.74.23-.91.58l-3.02,6.5c-.14.31-.12.67.06.96.18.29.5.46.84.46Zm16.68-2h-6.56v-4.5h4.47l2.09,4.5Zm-13.03-4.5h4.47v4.5h-6.56l2.09-4.5Z"/>
    <path class="cls-2" d="m9.5,25.75h-1c-.55,0-1,.45-1,1s.45,1,1,1h1c.55,0,1-.45,1-1s-.45-1-1-1Z"/>
    <path class="cls-2" d="m16.5,25.75h-1c-.55,0-1,.45-1,1s.45,1,1,1h1c.55,0,1-.45,1-1s-.45-1-1-1Z"/>
    <path class="cls-2" d="m23.5,25.75h-1c-.55,0-1,.45-1,1s.45,1,1,1h1c.55,0,1-.45,1-1s-.45-1-1-1Z"/>
  </g>
  <path class="cls-1" d="m11.75,10h8.5c.34,0,.66-.17.84-.46.18-.29.21-.65.06-.96l-2.83-6.09c-.42-.9-1.33-1.49-2.33-1.49s-1.91.58-2.33,1.49l-2.83,6.09c-.14.31-.12.67.06.96.18.29.5.46.84.46Z"/>
</svg>