<?xml version="1.0" encoding="UTF-8"?>
<svg id="OBJECT" xmlns="http://www.w3.org/2000/svg" viewBox="0 0 32 32">
  <defs>
    <style>
      .cls-1 {
        fill: #FD4360;
      }

      .cls-1, .cls-2 {
        stroke-width: 0px;
      }

      .cls-2 {
        fill: #dadada;
      }
    </style>
  </defs>
  <path class="cls-1" d="m24.5,12.5H7.5c-1.65,0-3,1.35-3,3v9c0,1.65,1.35,3,3,3h17c1.65,0,3-1.35,3-3v-9c0-1.65-1.35-3-3-3Zm-15.5,4h2c.55,0,1,.45,1,1s-.45,1-1,1h-2c-.55,0-1-.45-1-1s.45-1,1-1Zm14,7h-14c-.55,0-1-.45-1-1s.45-1,1-1h14c.55,0,1,.45,1,1s-.45,1-1,1Zm0-5h-8c-.55,0-1-.45-1-1s.45-1,1-1h8c.55,0,1,.45,1,1s-.45,1-1,1Z"/>
  <path class="cls-2" d="m30,7c.55,0,1-.45,1-1V2c0-.55-.45-1-1-1H2c-.55,0-1,.45-1,1v4c0,.55.45,1,1,1h3v2h-1c-1.65,0-3,1.35-3,3v16c0,1.65,1.35,3,3,3h24c1.65,0,3-1.35,3-3V12c0-1.65-1.35-3-3-3h-1v-2h3ZM3,3h26v2H3v-2Zm26,9v16c0,.55-.45,1-1,1H4c-.55,0-1-.45-1-1V12c0-.55.45-1,1-1h24c.55,0,1,.45,1,1Zm-4-3H7v-2h18v2Z"/>
</svg>