<?xml version="1.0" encoding="UTF-8"?>
<svg id="OBJECT" xmlns="http://www.w3.org/2000/svg" viewBox="0 0 32 32">
  <defs>
    <style>
      .cls-1 {
        fill: #FD4360;
      }

      .cls-1, .cls-2 {
        stroke-width: 0px;
      }

      .cls-2 {
        fill: #dadada;
      }
    </style>
  </defs>
  <g>
    <path class="cls-2" d="m20,1h-8C7.04,1,3,5.04,3,10v14c0,.55.45,1,1,1s1-.45,1-1v-14c0-3.86,3.14-7,7-7h8c3.86,0,7,3.14,7,7v14c0,.55.45,1,1,1s1-.45,1-1v-14c0-4.96-4.04-9-9-9Z"/>
    <path class="cls-2" d="m22.58,5.11c-.26-.19-.6-.24-.9-.14l-3.26,1.09c-2.04.68-3.42,2.59-3.42,4.74v4.26c-.52-.4-1.12-.71-1.79-.87l-4.97-1.24c-.3-.07-.62,0-.86.18-.24.19-.38.48-.38.79v1.88c0,2.3,1.56,4.29,3.79,4.85l4.22,1.05v2.29c0,.55.45,1,1,1s1-.45,1-1v-10.36l2.57-.86h0c2.04-.68,3.42-2.59,3.42-4.74v-2.12c0-.32-.15-.62-.42-.81Zm-7.58,14.53l-3.73-.93c-1.34-.33-2.27-1.53-2.27-2.91v-.6l3.73.93c1.34.33,2.27,1.53,2.27,2.91v.6Zm6-11.6c0,1.29-.82,2.44-2.05,2.85l-1.95.65v-.73c0-1.29.82-2.44,2.05-2.85l1.95-.65v.73Z"/>
    <path class="cls-2" d="m21,21h-.5c-.55,0-1,.45-1,1s.45,1,1,1h.5c.55,0,1-.45,1-1s-.45-1-1-1Z"/>
    <path class="cls-2" d="m25,21h-.5c-.55,0-1,.45-1,1s.45,1,1,1h.5c.55,0,1-.45,1-1s-.45-1-1-1Z"/>
  </g>
  <path class="cls-1" d="m1,27v2.5c0,.83.67,1.5,1.5,1.5h27c.83,0,1.5-.67,1.5-1.5v-2.5H1Z"/>
</svg>