<?xml version="1.0" encoding="UTF-8" standalone="no"?>
<svg
   id="OBJECT"
   viewBox="0 0 32 32"
   version="1.1"
   sodipodi:docname="Alimentar Plan.svg"
   inkscape:version="1.2.2 (732a01da63, 2022-12-09)"
   xml:space="preserve"
   xmlns:inkscape="http://www.inkscape.org/namespaces/inkscape"
   xmlns:sodipodi="http://sodipodi.sourceforge.net/DTD/sodipodi-0.dtd"
   xmlns="http://www.w3.org/2000/svg"
   xmlns:svg="http://www.w3.org/2000/svg"><sodipodi:namedview
     id="namedview153"
     pagecolor="#505050"
     bordercolor="#ffffff"
     borderopacity="1"
     inkscape:showpageshadow="0"
     inkscape:pageopacity="0"
     inkscape:pagecheckerboard="1"
     inkscape:deskcolor="#505050"
     showgrid="false"
     inkscape:zoom="11.313709"
     inkscape:cx="8.7062522"
     inkscape:cy="20.32932"
     inkscape:window-width="1920"
     inkscape:window-height="1009"
     inkscape:window-x="-8"
     inkscape:window-y="-8"
     inkscape:window-maximized="1"
     inkscape:current-layer="OBJECT" /><defs
     id="defs140"><style
       id="style138">
      .cls-1 {
        fill: #FD4360;
      }

      .cls-1, .cls-2 {
        stroke-width: 0px;
      }

      .cls-2 {
        fill: #dadada;
      }
    </style></defs><path
     id="rect457"
     style="fill:#dadada;fill-opacity:1;stroke-width:0.219523"
     d="M 9.4335938 6.8164062 C 8.5942979 6.8164063 7.9199219 7.4927359 7.9199219 8.3320312 L 7.9199219 24.675781 C 7.9199219 25.515076 8.5942979 26.191406 9.4335938 26.191406 L 17.724609 26.191406 C 17.677246 26.083339 17.648121 25.987623 17.603516 25.820312 C 17.563536 25.670357 17.488628 25.359053 17.460938 25.222656 C 17.437338 25.106426 17.41491 24.862869 17.40625 24.636719 C 17.389983 24.211818 17.427895 23.830062 17.513672 23.517578 L 14.552734 23.517578 C 14.337305 23.517578 14.164063 23.344337 14.164062 23.128906 C 14.164062 22.913476 14.337305 22.740234 14.552734 22.740234 L 17.917969 22.740234 C 18.097467 22.523728 18.307696 22.366347 18.523438 22.292969 C 18.602007 22.266249 18.773855 22.253856 19 22.259766 C 19.238804 22.265966 19.347366 22.282591 19.496094 22.332031 C 19.586614 22.362121 19.8578 22.484445 20.060547 22.585938 L 20.201172 22.65625 L 20.207031 22.521484 C 20.209531 22.447564 20.211291 22.325906 20.212891 22.251953 L 20.216797 22.117188 L 20.183594 22.113281 C 20.045026 22.097501 19.891849 22.07536 19.841797 22.0625 C 19.674567 22.01953 19.283489 21.84008 19.144531 21.742188 C 19.056951 21.680488 18.855751 21.480349 18.794922 21.394531 C 18.703122 21.265019 18.656852 21.098174 18.628906 20.792969 C 18.612276 20.611351 18.606761 20.40447 18.613281 20.248047 L 18.619141 20.109375 L 18.712891 20.107422 C 18.765071 20.106122 18.894727 20.108406 19 20.111328 C 19.494189 20.124968 19.870949 20.211795 20.0625 20.357422 C 20.268884 20.514325 20.476878 20.86055 20.5625 21.189453 C 20.57969 21.255473 20.58047 21.257681 20.59375 21.244141 C 20.60135 21.236341 20.663762 21.147848 20.730469 21.046875 C 20.797179 20.945898 20.866343 20.841717 20.884766 20.816406 C 20.942666 20.736866 21.197245 20.518556 21.320312 20.443359 C 21.376722 20.408889 21.551 20.352323 21.664062 20.330078 C 21.912913 20.281108 22.157457 20.282478 22.386719 20.335938 C 22.592074 20.383857 22.8279 20.500089 22.953125 20.615234 L 22.994141 20.652344 L 22.964844 20.761719 C 22.935864 20.870944 22.921757 20.905738 22.867188 21 C 22.851018 21.02793 22.824154 21.074093 22.808594 21.103516 C 22.686086 21.335161 22.425434 21.570224 22.128906 21.714844 C 22.01221 21.771764 21.937674 21.797753 21.816406 21.822266 C 21.743816 21.836936 21.704986 21.839844 21.566406 21.839844 C 21.337431 21.839847 21.177209 21.810415 20.9375 21.726562 C 20.8752 21.704763 20.812184 21.6875 20.796875 21.6875 C 20.756805 21.687497 20.732944 21.714695 20.683594 21.824219 C 20.631434 21.939986 20.620882 21.972253 20.601562 22.068359 C 20.564853 22.250924 20.534694 22.679688 20.558594 22.679688 C 20.560094 22.679688 20.62302 22.642193 20.697266 22.595703 C 20.894159 22.472432 20.92938 22.453125 20.966797 22.453125 C 21.008297 22.453125 21.027689 22.461821 21.066406 22.494141 C 21.083876 22.508731 21.172399 22.567399 21.261719 22.625 L 21.423828 22.730469 L 21.441406 22.707031 C 21.496416 22.630801 21.626567 22.475945 21.703125 22.396484 C 21.834172 22.260468 21.94839 22.187244 22.128906 22.125 C 22.247335 22.08416 22.388991 22.056582 22.544922 22.044922 C 22.692467 22.033892 22.744021 22.039501 22.941406 22.082031 C 23.202618 22.138311 23.319174 22.180633 23.566406 22.310547 C 23.646452 22.352609 23.743606 22.402439 23.826172 22.443359 L 23.826172 21.40625 C 23.745532 21.227039 23.641833 21.056321 23.523438 20.917969 C 23.412662 20.788521 23.389097 20.751448 23.384766 20.699219 C 23.382866 20.675979 23.383919 20.647579 23.386719 20.636719 C 23.395619 20.601319 23.435686 20.563501 23.478516 20.550781 C 23.524896 20.537011 23.604045 20.534835 23.638672 20.546875 C 23.67211 20.558532 23.751075 20.650376 23.826172 20.759766 L 23.826172 8.3320312 C 23.826172 7.4927359 23.149842 6.8164062 22.310547 6.8164062 L 20.681641 6.8164062 L 20.667969 7.4648438 C 20.667969 7.4648437 20.683594 7.6093774 20.511719 7.9882812 C 20.339844 8.3671857 19.808594 8.4609375 19.808594 8.4609375 L 12.039062 8.4648438 C 12.039062 8.4648438 11.9375 8.4531243 11.503906 8.3007812 C 11.070318 8.1484386 10.982422 7.546875 10.982422 7.546875 L 10.994141 6.8613281 L 10.994141 6.8164062 L 9.4335938 6.8164062 z M 14.552734 10.740234 L 21.449219 10.740234 C 21.664649 10.740234 21.837891 10.913476 21.837891 11.128906 C 21.837891 11.344337 21.664649 11.517578 21.449219 11.517578 L 14.552734 11.517578 C 14.337308 11.517578 14.164063 11.344337 14.164062 11.128906 C 14.164062 10.913476 14.337308 10.740234 14.552734 10.740234 z M 14.552734 14.740234 L 21.449219 14.740234 C 21.664649 14.740234 21.837891 14.913476 21.837891 15.128906 C 21.837891 15.344337 21.664649 15.517578 21.449219 15.517578 L 14.552734 15.517578 C 14.337307 15.517578 14.164063 15.344337 14.164062 15.128906 C 14.164062 14.913476 14.337307 14.740234 14.552734 14.740234 z M 14.677734 18.677734 L 21.574219 18.677734 C 21.789649 18.677734 21.962891 18.850976 21.962891 19.066406 C 21.962891 19.281837 21.789649 19.455078 21.574219 19.455078 L 14.677734 19.455078 C 14.462306 19.455078 14.289063 19.281837 14.289062 19.066406 C 14.289062 18.850976 14.462306 18.677734 14.677734 18.677734 z " /><rect
     style="fill:#dadada;stroke:none;stroke-width:0.0395506"
     id="rect361"
     width="8.1373625"
     height="1.54898"
     x="11.755094"
     y="6.0826855"
     ry="0.30335483" /><path
     style="fill:#fe4360;fill-opacity:1;stroke:none;stroke-width:0.0402088"
     d="m 11.096019,11.508713 -0.406073,-0.526796 c 0,0 -0.181086,-0.115236 -0.329247,-0.104261 -0.148162,0.01097 -0.274372,0.153648 -0.290834,0.214011 -0.01647,0.06036 -0.07134,0.181086 -0.02744,0.263397 0.0439,0.08231 0.411559,0.493872 0.411559,0.493872 l 0.504848,0.576183 c 0,0 0.203036,0.224986 0.422533,-0.02195 0.219498,-0.246936 1.525513,-2.013897 1.525513,-2.013897 0,0 0.06585,-0.214011 0.02744,-0.318273 -0.03842,-0.1042608 -0.137187,-0.2469348 -0.334736,-0.2469348 -0.197548,0 -0.235959,0.01646 -0.285348,0.07134 -0.04939,0.05488 -1.218215,1.6133128 -1.218215,1.6133128 z"
     id="path1147" /><path
     style="fill:#fe4360;fill-opacity:1;stroke:none;stroke-width:0.0402088"
     d="m 11.12706,15.482058 -0.406072,-0.526796 c 0,0 -0.181087,-0.115237 -0.329248,-0.104262 -0.148161,0.01097 -0.274372,0.153649 -0.290834,0.214011 -0.01647,0.06036 -0.07134,0.181086 -0.02744,0.263398 0.0439,0.08231 0.411559,0.493871 0.411559,0.493871 l 0.504847,0.576183 c 0,0 0.203036,0.224986 0.422534,-0.02195 0.219498,-0.246935 1.525513,-2.013897 1.525513,-2.013897 0,0 0.06585,-0.214011 0.02744,-0.318273 -0.03841,-0.104261 -0.137185,-0.246936 -0.334735,-0.246936 -0.197548,0 -0.235959,0.01646 -0.285348,0.07134 -0.04939,0.05487 -1.218215,1.613312 -1.218215,1.613312 z"
     id="path1149" /><path
     style="fill:#fe4360;fill-opacity:1;stroke:none;stroke-width:0.0402088"
     d="m 11.12706,19.548527 -0.406072,-0.526796 c 0,0 -0.181087,-0.115236 -0.329248,-0.104262 -0.148161,0.01097 -0.274372,0.153649 -0.290834,0.214012 -0.01647,0.06036 -0.07134,0.181085 -0.02744,0.263397 0.0439,0.08231 0.411559,0.493872 0.411559,0.493872 l 0.504847,0.576183 c 0,0 0.203036,0.224986 0.422534,-0.02195 0.219498,-0.246935 1.525513,-2.013897 1.525513,-2.013897 0,0 0.06585,-0.214011 0.02744,-0.318272 -0.03841,-0.104262 -0.137185,-0.246936 -0.334735,-0.246936 -0.197548,0 -0.235959,0.01646 -0.285348,0.07134 -0.04939,0.05488 -1.218215,1.613313 -1.218215,1.613313 z"
     id="path1151" /><path
     style="fill:#fe4360;fill-opacity:1;stroke:none;stroke-width:0.0402088"
     d="m 11.033935,23.459788 -0.406073,-0.526795 c 0,0 -0.181086,-0.115238 -0.329248,-0.104263 -0.14816,0.01097 -0.274372,0.153649 -0.290834,0.214011 -0.01647,0.06036 -0.07134,0.181086 -0.02744,0.263398 0.0439,0.08231 0.4115579,0.493872 0.4115579,0.493872 l 0.504848,0.576183 c 0,0 0.203036,0.224984 0.422533,-0.02195 0.219498,-0.246936 1.525513,-2.013899 1.525513,-2.013899 0,0 0.06585,-0.214011 0.02744,-0.318272 -0.03841,-0.104262 -0.137186,-0.246935 -0.334736,-0.246935 -0.197548,0 -0.235959,0.01646 -0.285347,0.07134 -0.04939,0.05487 -1.218215,1.613313 -1.218215,1.613313 z"
     id="path1153" /><path
     style="fill:#fe4360;fill-opacity:1;stroke-width:0.2"
     d="m 20.552938,22.620976 c 0,0 0.01172,-0.539062 0.09766,-0.726562 0.08594,-0.1875 0.09375,-0.253907 0.203125,-0.210938 0.109375,0.04297 0.738281,0.300781 1.289062,0.01563 0.550782,-0.285156 0.683594,-0.636719 0.683594,-0.636719 0,0 0.08984,-0.152343 0.105469,-0.1875 0.01563,-0.03516 0.06641,-0.242187 0.06641,-0.242187 0,0 -0.257812,-0.28125 -0.773437,-0.347656 -0.515625,-0.06641 -0.902344,0.132812 -0.902344,0.132812 0,0 -0.375,0.261719 -0.472656,0.421875 -0.09766,0.160156 -0.265625,0.398438 -0.265625,0.398438 0,0 -0.101563,-0.527344 -0.480469,-0.871094 -0.378906,-0.34375 -1.488281,-0.277344 -1.488281,-0.277344 0,0 -0.05859,0.96875 0.164062,1.273438 0.222656,0.304687 0.46875,0.433593 0.46875,0.433593 0,0 0.410156,0.207032 0.582031,0.25 0.171875,0.04297 0.382813,0.05469 0.382813,0.05469 l -0.01172,0.53125 c 0,0 -0.28125,-0.148438 -0.640625,-0.300781 -0.359375,-0.152344 -0.976562,-0.07813 -0.976562,-0.07813 0,0 -0.554688,0.105468 -0.945313,0.894531 -0.390625,0.789062 -0.1875,2.027344 -0.1875,2.027344 0,0 0.171875,0.816406 0.273438,1.011718 0.101562,0.195313 0.238281,0.496094 0.238281,0.496094 0,0 0.28125,0.460938 0.8125,0.832031 0.53125,0.371094 1.253906,0.300782 1.253906,0.300782 0,0 0.210938,-0.0625 0.289063,-0.0625 0.07813,0 0.292968,0.01563 0.355468,0.04687 0.0625,0.03125 0.347657,0.05078 0.625,-0.01563 0.277344,-0.06641 0.613282,-0.179688 0.652344,-0.207032 0.03906,-0.02734 0.171875,-0.128906 0.171875,-0.128906 0,0 0.44654,0.43255 0.882958,0.515414 0.436417,0.08286 0.861786,0.05524 0.861786,0.05524 0,0 0.30936,-0.09391 0.475088,-0.0442 0.165728,0.04972 0.314883,0.08286 0.419844,0.07734 0.104962,-0.0055 0.480612,-0.02762 0.729204,-0.11601 0.248592,-0.08839 0.49166,-0.254116 0.806544,-0.535854 0.314883,-0.281738 0.552427,-0.718155 0.552427,-0.718155 0,0 0.375651,-0.729204 0.45299,-1.408689 0.07734,-0.679486 0.08839,-1.010942 0.08839,-1.010942 0,0 -0.0055,-1.066185 -0.447466,-1.585466 -0.441942,-0.519282 -0.591097,-0.541379 -0.591097,-0.541379 0,0 -0.569,-0.248592 -1.21534,-0.0055 -0.64634,0.243068 -0.690534,0.348029 -0.690534,0.348029 0,0 -0.09944,0.08286 -0.11601,-0.06629 -0.01657,-0.149156 -0.01105,-0.331457 -0.02762,-0.436418 -0.01657,-0.104961 0.0055,-0.143631 0.110485,-0.143631 0.104961,0 1.143524,-0.05524 1.497078,-0.723679 0.353553,-0.668437 0.342505,-0.784447 0.342505,-0.784447 0,0 0.04419,-0.149155 0.04419,-0.276214 0,-0.127058 -0.0055,-0.381174 -0.0055,-0.381174 0,0 -0.447466,-0.171253 -1.115903,0.09944 -0.668437,0.270689 -0.817592,0.585572 -0.83969,0.607669 -0.0221,0.0221 -0.204398,0.325933 -0.226495,0.403272 -0.0221,0.07734 -0.06077,0.187826 -0.06077,0.187826 0,0 -0.04972,0.07734 -0.138106,-0.09391 -0.08839,-0.171252 -0.243068,-0.331456 -0.243068,-0.331456 0,0 -0.04197,-0.04001 -0.170871,-0.01657 -0.128906,0.02344 -0.128906,0.140625 -0.117187,0.183594 0.01172,0.04297 0.06641,0.117187 0.175781,0.238281 0.109375,0.121094 0.402344,0.59375 0.421875,1.007812 0.01953,0.414063 0.01563,0.550782 0.01563,0.550782 0,0 -0.292969,-0.140625 -0.546875,-0.277344 -0.253906,-0.136719 -0.699219,-0.203125 -0.699219,-0.203125 0,0 -0.664062,-0.05859 -1.035156,0.335937 -0.371094,0.394532 -0.480469,0.667969 -0.480469,0.667969 0,0 -0.226562,0.609375 -0.226562,1.207031 0,0.597657 0.04687,0.996094 0.04687,0.996094 0,0 0.109375,0.871094 0.402343,1.320313 0.292969,0.449218 0.390625,0.582031 0.390625,0.582031 0,0 0.05469,0.08594 -0.0039,0.132812 -0.05859,0.04687 -0.246094,0.140625 -0.421875,0.171875 -0.175781,0.03125 -0.507812,0.0625 -0.695312,0.03516 -0.1875,-0.02734 -0.320313,-0.08594 -0.320313,-0.08594 0,0 -0.496094,0.183594 -0.855469,0.07422 -0.359375,-0.109375 -0.589843,-0.121094 -0.90625,-0.507813 -0.316406,-0.386718 -0.757812,-0.949218 -0.847656,-1.644531 -0.08984,-0.695312 -0.09375,-1.472656 0.121094,-2 0.214844,-0.527344 0.570312,-0.667969 0.570312,-0.667969 0,0 0.375,-0.234375 0.871094,-0.04687 0.496094,0.1875 0.90625,0.496094 0.90625,0.496094 0,0 0.132813,0.07422 0.242188,0.01172 0.109375,-0.0625 0.570312,-0.371094 0.570312,-0.371094 0,0 0.05859,-0.0625 0.04297,-0.164062 -0.01563,-0.101563 -0.117188,-0.160157 -0.191406,-0.128907 -0.07422,0.03125 -0.367188,0.222657 -0.367188,0.222657 z"
     id="path2567" /><path
     style="fill:#fe4360;fill-opacity:1;stroke:none;stroke-width:0.2;stroke-opacity:1"
     d="M 21.523437,22.738281 21.03125,22.4375 c 0,0 -0.199219,0.277344 -0.132815,0.308594 0.06641,0.03125 0.464844,0.292968 0.464844,0.292968 l 0.269527,-0.300781 z"
     id="path4370"
     sodipodi:nodetypes="ccsccc" /></svg>
