<?xml version="1.0" encoding="UTF-8"?>
<svg id="OBJECT" xmlns="http://www.w3.org/2000/svg" viewBox="0 0 32 32">
  <defs>
    <style>
      .cls-1 {
        fill: #FD4360;
      }

      .cls-1, .cls-2 {
        stroke-width: 0px;
      }

      .cls-2 {
        fill: #dadada;
      }
    </style>
  </defs>
  <path class="cls-2" d="m28.5,24v-2c0-1.65-1.35-3-3-3h-8.5v-2c0-.55-.45-1-1-1s-1,.45-1,1v2H6.5c-1.65,0-3,1.35-3,3v2c-1.38,0-2.5,1.12-2.5,2.5v2c0,1.38,1.12,2.5,2.5,2.5h2c1.38,0,2.5-1.12,2.5-2.5v-2c0-1.38-1.12-2.5-2.5-2.5v-2c0-.55.45-1,1-1h8.5v3c-1.38,0-2.5,1.12-2.5,2.5v2c0,1.38,1.12,2.5,2.5,2.5h2c1.38,0,2.5-1.12,2.5-2.5v-2c0-1.38-1.12-2.5-2.5-2.5v-3h8.5c.55,0,1,.45,1,1v2c-1.38,0-2.5,1.12-2.5,2.5v2c0,1.38,1.12,2.5,2.5,2.5h2c1.38,0,2.5-1.12,2.5-2.5v-2c0-1.38-1.12-2.5-2.5-2.5Zm-22.5,2.5v2c0,.28-.22.5-.5.5h-2c-.28,0-.5-.22-.5-.5v-2c0-.28.22-.5.5-.5h2c.28,0,.5.22.5.5Zm11.5,0v2c0,.28-.22.5-.5.5h-2c-.28,0-.5-.22-.5-.5v-2c0-.28.22-.5.5-.5h2c.28,0,.5.22.5.5Zm11.5,2c0,.28-.22.5-.5.5h-2c-.28,0-.5-.22-.5-.5v-2c0-.28.22-.5.5-.5h2c.28,0,.5.22.5.5v2Z"/>
  <path class="cls-1" d="m16,15c3.86,0,7-3.14,7-7s-3.14-7-7-7-7,3.14-7,7,3.14,7,7,7Zm-1-9.2c0-.55.45-1,1-1s1,.45,1,1v1.79l1.11,1.11c.39.39.39,1.02,0,1.41-.2.2-.45.29-.71.29s-.51-.1-.71-.29l-1.4-1.4c-.19-.19-.29-.44-.29-.71v-2.2Z"/>
</svg>