<?xml version="1.0" encoding="UTF-8"?>
<svg id="OBJECT" xmlns="http://www.w3.org/2000/svg" viewBox="0 0 512 512">
  <defs>
    <style>
      .cls-1 {
        fill: #FD4360;
      }

      .cls-2 {
        fill: #dadada;
      }
    </style>
  </defs>
  <g>
    <path class="cls-2" d="M66,337c4.14,0,7.5-3.36,7.5-7.5V112.5c0-12.41,10.09-22.5,22.5-22.5h42.5c12.41,0,22.5,10.09,22.5,22.5v157c0,20.68,16.82,37.5,37.5,37.5h79.39l-17.2,17.2c-2.93,2.93-2.93,7.68,0,10.61,1.46,1.46,3.38,2.2,5.3,2.2s3.84-.73,5.3-2.2l30-30c2.93-2.93,2.93-7.68,0-10.61l-30-30c-2.93-2.93-7.68-2.93-10.61,0-2.93,2.93-2.93,7.68,0,10.61l17.2,17.2h-79.39c-12.41,0-22.5-10.09-22.5-22.5V112.5c0-20.68-16.82-37.5-37.5-37.5h-42.5c-20.68,0-37.5,16.82-37.5,37.5v217c0,4.14,3.36,7.5,7.5,7.5Z"/>
    <path class="cls-2" d="M66,377c4.14,0,7.5-3.36,7.5-7.5v-10c0-4.14-3.36-7.5-7.5-7.5s-7.5,3.36-7.5,7.5v10c0,4.14,3.36,7.5,7.5,7.5Z"/>
    <path class="cls-2" d="M489.5,0H22.5C10.09,0,0,10.09,0,22.5v25c0,4.14,3.36,7.5,7.5,7.5H23.5V404.5c0,4.14,3.36,7.5,7.5,7.5H248.5v35.57c-10.01,2.28-17.5,11.25-17.5,21.93v35c0,4.14,3.36,7.5,7.5,7.5h35c4.14,0,7.5-3.36,7.5-7.5v-35c0-10.69-7.49-19.65-17.5-21.93v-35.57h217.5c4.14,0,7.5-3.36,7.5-7.5V55h16c4.14,0,7.5-3.36,7.5-7.5V22.5c0-12.41-10.09-22.5-22.5-22.5Zm-223.5,469.5v27.5h-20v-27.5c0-4.14,3.36-7.5,7.5-7.5h5c4.14,0,7.5,3.36,7.5,7.5Zm207.5-72.5H38.5V55H473.5V397Zm23.5-357H15V22.5c0-4.14,3.36-7.5,7.5-7.5H489.5c4.14,0,7.5,3.36,7.5,7.5v17.5Z"/>
  </g>
  <g>
    <path class="cls-1" d="M353.24,211.53l30.83,8.22c.64,.17,1.29,.25,1.93,.25,1.64,0,3.25-.54,4.57-1.55,1.85-1.42,2.93-3.62,2.93-5.95V82.5c0-2.33-1.08-4.53-2.93-5.95-1.85-1.42-4.25-1.9-6.5-1.3l-29.67,7.91v71.23c0,4.14-3.36,7.5-7.5,7.5s-7.5-3.36-7.5-7.5V87.17l-95.89,25.57v69.52l15,4v21.24c0,17.92,14.58,32.5,32.5,32.5h30c16.56,0,30.25-12.45,32.24-28.47Zm-79.74-4.03v-17.24l65,17.33c-.05,9.61-7.88,17.41-17.5,17.41h-30c-9.65,0-17.5-7.85-17.5-17.5Z"/>
    <path class="cls-1" d="M413.5,147.5c0,4.14,3.36,7.5,7.5,7.5h15c4.14,0,7.5-3.36,7.5-7.5s-3.36-7.5-7.5-7.5h-15c-4.14,0-7.5,3.36-7.5,7.5Z"/>
    <path class="cls-1" d="M411.01,128.75c1.27,0,2.56-.32,3.74-1.01l12.99-7.5c3.59-2.07,4.82-6.66,2.75-10.25-2.07-3.59-6.66-4.81-10.25-2.75l-12.99,7.5c-3.59,2.07-4.82,6.66-2.75,10.25,1.39,2.41,3.91,3.75,6.5,3.75Z"/>
    <path class="cls-1" d="M407.25,180.25l12.99,7.5c1.18,.68,2.47,1.01,3.74,1.01,2.59,0,5.11-1.34,6.5-3.75,2.07-3.59,.84-8.17-2.75-10.25l-12.99-7.5c-3.59-2.07-8.17-.84-10.25,2.75-2.07,3.59-.84,8.17,2.75,10.25Z"/>
    <path class="cls-1" d="M386,232c-37.22,0-67.5,30.28-67.5,67.5s30.28,67.5,67.5,67.5,67.5-30.28,67.5-67.5-30.28-67.5-67.5-67.5Zm27.94,57.66l-28.45,30c-1.42,1.49-3.38,2.34-5.44,2.34s-4.03-.85-5.44-2.34l-16.55-17.45c-2.85-3.01-2.72-7.75,.28-10.6,3.01-2.85,7.75-2.72,10.6,.28l11.11,11.71,23.01-24.26c2.85-3,7.6-3.13,10.6-.28,3.01,2.85,3.13,7.6,.28,10.6Z"/>
    <rect class="cls-1" x="193.5" y="100" width="35" height="95" rx="10" ry="10"/>
  </g>
</svg>