<?xml version="1.0" encoding="UTF-8"?>
<svg id="OBJECT" xmlns="http://www.w3.org/2000/svg" viewBox="0 0 32 32">
  <defs>
    <style>
      .cls-1 {
        fill: #FD4360;
      }

      .cls-1, .cls-2 {
        stroke-width: 0px;
      }

      .cls-2 {
        fill: #dadada;
      }
    </style>
  </defs>
  <path class="cls-2" d="m28.01,1.38c-.23-.29-.61-.43-.98-.36-4.87.99-9.05,4.81-10.93,9.95h0c-1.8,4.95-1.17,10.33,1.63,14.19l-1.64,4.5c-.19.52.08,1.09.6,1.28.11.04.23.06.34.06.41,0,.79-.25.94-.66l1.64-4.5c4.63-1.16,8.57-4.87,10.37-9.82,1.87-5.15,1.12-10.76-1.97-14.65Zm.09,13.96c-1.39,3.83-4.23,6.8-7.62,8.12l1.54-4.24,3.72-1.73c.5-.23.72-.83.48-1.33-.23-.5-.83-.72-1.33-.48l-1.9.89,1.03-2.84,2.35-1.1c.5-.23.72-.83.48-1.33-.23-.5-.83-.72-1.33-.48l-.54.25.63-1.73c.19-.52-.08-1.09-.6-1.28-.52-.19-1.09.08-1.28.6l-2.63,7.23-.89-1.9c-.23-.5-.83-.72-1.33-.48-.5.23-.72.83-.48,1.33l1.73,3.72-1.54,4.24c-1.75-3.2-2.01-7.29-.62-11.12,1.56-4.28,4.91-7.5,8.84-8.54,2.34,3.32,2.84,7.94,1.28,12.22Z"/>
  <g>
    <path class="cls-1" d="m12.99,17.73c-.34-1.03-1.29-1.73-2.38-1.73h-1.28c-.43-1.44-1.76-2.5-3.34-2.5-1.93,0-3.5,1.57-3.5,3.5s1.57,3.5,3.5,3.5c1.58,0,2.9-1.06,3.34-2.5h1.28c.22,0,.41.14.48.35l2.05,6.29c.14.42.53.69.95.69.1,0,.21-.02.31-.05.52-.17.81-.74.64-1.26l-2.05-6.29Z"/>
    <path class="cls-1" d="m16.21,7.23l-1.5-1.5c-.47-.47-1.11-.73-1.77-.73h-2.04c-.46-2.28-2.48-4-4.9-4C3.24,1,1,3.24,1,6s2.24,5,5,5c2.41,0,4.43-1.72,4.9-4h2.04c.13,0,.26.05.35.15l1.5,1.5c.2.2.45.29.71.29s.51-.1.71-.29c.39-.39.39-1.02,0-1.41Zm-9.71-.23h-1c-.55,0-1-.45-1-1s.45-1,1-1h1c.55,0,1,.45,1,1s-.45,1-1,1Z"/>
  </g>
</svg>