<?xml version="1.0" encoding="UTF-8" standalone="no"?>
<svg
   id="OBJECT"
   viewBox="0 0 32 32"
   version="1.1"
   sodipodi:docname="Workout `Plan.svg"
   inkscape:version="1.2.2 (732a01da63, 2022-12-09)"
   xml:space="preserve"
   xmlns:inkscape="http://www.inkscape.org/namespaces/inkscape"
   xmlns:sodipodi="http://sodipodi.sourceforge.net/DTD/sodipodi-0.dtd"
   xmlns="http://www.w3.org/2000/svg"
   xmlns:svg="http://www.w3.org/2000/svg"><sodipodi:namedview
     id="namedview153"
     pagecolor="#505050"
     bordercolor="#ffffff"
     borderopacity="1"
     inkscape:showpageshadow="0"
     inkscape:pageopacity="0"
     inkscape:pagecheckerboard="1"
     inkscape:deskcolor="#505050"
     showgrid="false"
     inkscape:zoom="0.80957031"
     inkscape:cx="67.319662"
     inkscape:cy="223.57539"
     inkscape:window-width="1920"
     inkscape:window-height="1009"
     inkscape:window-x="-8"
     inkscape:window-y="-8"
     inkscape:window-maximized="1"
     inkscape:current-layer="OBJECT" /><defs
     id="defs140"><style
       id="style138">
      .cls-1 {
        fill: #FD4360;
      }

      .cls-1, .cls-2 {
        stroke-width: 0px;
      }

      .cls-2 {
        fill: #dadada;
      }
    </style></defs><path
     id="path307"
     style="fill:#dadada;fill-opacity:1;stroke:none;stroke-width:0.0402088"
     d="m 9.7107591,6.8569945 c -0.248334,0 -0.589851,0.038874 -0.628654,0.038874 -0.0388,0 -0.737187,0.3337881 -0.946713,0.7295694 -0.209533,0.3957812 -0.224998,0.6906957 -0.224998,0.6906957 0,0 -0.04663,15.9629464 -0.03887,16.1259144 0.0078,0.16297 0,0.240704 0,0.240704 0,0 0.03859,0.232839 0.310203,0.822631 0.271616,0.589789 1.117522,0.698549 1.117522,0.698547 l 8.5211949,0.03887 -0.01571,-2.786341 c 0,0 -3.27485,-0.01532 -3.441698,-0.01532 -0.16685,0 -0.26387,-0.24463 -0.26387,-0.24463 0,0 -0.05044,-0.11254 0,-0.26387 0.05044,-0.151328 0.248162,-0.217143 0.248162,-0.217143 l 3.457406,-0.01571 c 0,0 -0.0039,-0.19763 -0.0039,-0.667136 0,-0.469507 0.461772,-0.488867 0.461772,-0.488867 l 1.408484,-0.0079 c 0,0 0.01178,-0.415061 0.01178,-0.678916 -1e-6,-0.263854 0.403658,-0.279576 0.403658,-0.279576 0,0 0.985344,0.02338 1.621702,0.0079 0.636353,-0.01552 0.566613,0.496719 0.566613,0.496719 v 1.800363 c 0,0 1.443576,0.01532 1.52118,0.01532 L 23.772465,8.704085 c 0,0 0.04686,-1.0090986 -0.434286,-1.3660774 C 22.857033,6.9810288 22.406781,6.8648479 22.406781,6.8648479 l -1.73047,0.015315 c 0,0 -0.0079,0.6056521 -0.0079,0.6522142 0,0.046563 -0.03896,0.2481579 -0.209683,0.5430541 -0.17073,0.2948962 -0.643967,0.3879518 -0.64397,0.3879518 h -7.651861 c 0,0 -0.341531,0.023432 -0.760589,-0.2171427 C 10.983291,8.0056681 10.983382,7.5013572 10.983382,7.5013572 l 0.03102,-0.636508 c 0,0 -1.0553089,-0.00785 -1.3036439,-0.00785 z m 4.8113079,3.8810885 h 6.953292 c 0.214582,0 0.387559,0.172585 0.387559,0.387167 0,0.214582 -0.172977,0.387559 -0.387559,0.387559 h -6.953292 c -0.214582,0 -0.387166,-0.172977 -0.387166,-0.387559 0,-0.214582 0.172584,-0.387167 0.387166,-0.387167 z m -0.06204,4.004385 h 6.953292 c 0.214583,0 0.387559,0.172585 0.387559,0.387167 0,0.214582 -0.172976,0.387559 -0.387559,0.387559 h -6.953291 c -0.214582,0 -0.387166,-0.172977 -0.387166,-0.387559 0,-0.214582 0.172584,-0.387167 0.387166,-0.387167 z m 0.102484,3.987894 h 6.953292 c 0.214583,0 0.38756,0.172976 0.38756,0.387559 0,0.214582 -0.172977,0.387166 -0.38756,0.387166 h -6.95329 c -0.214583,0 -0.387167,-0.172584 -0.387167,-0.387166 0,-0.214583 0.172584,-0.387559 0.387167,-0.387559 z" /><rect
     style="fill:#dadada;stroke:none;stroke-width:0.0395506"
     id="rect361"
     width="8.1373625"
     height="1.54898"
     x="11.755094"
     y="6.0826855"
     ry="0.30335483" /><rect
     style="fill:#fd4360;fill-opacity:1;stroke:none;stroke-width:0.0273902"
     id="rect464"
     width="4.5058508"
     height="1.341642"
     x="22.284933"
     y="23.724272"
     ry="0.2627494" /><rect
     style="fill:#fd4360;fill-opacity:1;stroke:none;stroke-width:0.0228766"
     id="rect466"
     width="4.1920919"
     height="1.0059335"
     x="22.260632"
     y="-19.602755"
     ry="0.19700366"
     transform="rotate(90)" /><rect
     style="fill:#fd4360;fill-opacity:1;stroke:none;stroke-width:0.0276272"
     id="rect468"
     width="6.142972"
     height="1.0011829"
     x="21.331755"
     y="-21.431841"
     ry="0.19607329"
     transform="rotate(90)" /><rect
     style="fill:#fd4360;fill-opacity:1;stroke:none;stroke-width:0.0276272"
     id="rect470"
     width="6.142972"
     height="1.0011829"
     x="21.269672"
     y="-28.540403"
     ry="0.19607329"
     transform="rotate(90)" /><rect
     style="fill:#fd4360;fill-opacity:1;stroke:none;stroke-width:0.022793"
     id="rect472"
     width="4.1611342"
     height="1.0060172"
     x="22.291628"
     y="-30.405327"
     ry="0.19702005"
     transform="rotate(90)" /><path
     style="fill:#fe4360;fill-opacity:1;stroke:none;stroke-width:0.0402088"
     d="m 11.096019,11.508713 -0.406073,-0.526796 c 0,0 -0.181086,-0.115236 -0.329247,-0.104261 -0.148162,0.01097 -0.274372,0.153648 -0.290834,0.214011 -0.01647,0.06036 -0.07134,0.181086 -0.02744,0.263397 0.0439,0.08231 0.411559,0.493872 0.411559,0.493872 l 0.504848,0.576183 c 0,0 0.203036,0.224986 0.422533,-0.02195 0.219498,-0.246936 1.525513,-2.013897 1.525513,-2.013897 0,0 0.06585,-0.214011 0.02744,-0.318273 -0.03842,-0.1042608 -0.137187,-0.2469348 -0.334736,-0.2469348 -0.197548,0 -0.235959,0.01646 -0.285348,0.07134 -0.04939,0.05488 -1.218215,1.6133128 -1.218215,1.6133128 z"
     id="path1147" /><path
     style="fill:#fe4360;fill-opacity:1;stroke:none;stroke-width:0.0402088"
     d="m 11.12706,15.482058 -0.406072,-0.526796 c 0,0 -0.181087,-0.115237 -0.329248,-0.104262 -0.148161,0.01097 -0.274372,0.153649 -0.290834,0.214011 -0.01647,0.06036 -0.07134,0.181086 -0.02744,0.263398 0.0439,0.08231 0.411559,0.493871 0.411559,0.493871 l 0.504847,0.576183 c 0,0 0.203036,0.224986 0.422534,-0.02195 0.219498,-0.246935 1.525513,-2.013897 1.525513,-2.013897 0,0 0.06585,-0.214011 0.02744,-0.318273 -0.03841,-0.104261 -0.137185,-0.246936 -0.334735,-0.246936 -0.197548,0 -0.235959,0.01646 -0.285348,0.07134 -0.04939,0.05487 -1.218215,1.613312 -1.218215,1.613312 z"
     id="path1149" /><path
     style="fill:#fe4360;fill-opacity:1;stroke:none;stroke-width:0.0402088"
     d="m 11.12706,19.548527 -0.406072,-0.526796 c 0,0 -0.181087,-0.115236 -0.329248,-0.104262 -0.148161,0.01097 -0.274372,0.153649 -0.290834,0.214012 -0.01647,0.06036 -0.07134,0.181085 -0.02744,0.263397 0.0439,0.08231 0.411559,0.493872 0.411559,0.493872 l 0.504847,0.576183 c 0,0 0.203036,0.224986 0.422534,-0.02195 0.219498,-0.246935 1.525513,-2.013897 1.525513,-2.013897 0,0 0.06585,-0.214011 0.02744,-0.318272 -0.03841,-0.104262 -0.137185,-0.246936 -0.334735,-0.246936 -0.197548,0 -0.235959,0.01646 -0.285348,0.07134 -0.04939,0.05488 -1.218215,1.613313 -1.218215,1.613313 z"
     id="path1151" /><path
     style="fill:#fe4360;fill-opacity:1;stroke:none;stroke-width:0.0402088"
     d="m 11.033935,23.459788 -0.406073,-0.526795 c 0,0 -0.181086,-0.115238 -0.329248,-0.104263 -0.14816,0.01097 -0.274372,0.153649 -0.290834,0.214011 -0.01647,0.06036 -0.07134,0.181086 -0.02744,0.263398 0.0439,0.08231 0.4115579,0.493872 0.4115579,0.493872 l 0.504848,0.576183 c 0,0 0.203036,0.224984 0.422533,-0.02195 0.219498,-0.246936 1.525513,-2.013899 1.525513,-2.013899 0,0 0.06585,-0.214011 0.02744,-0.318272 -0.03841,-0.104262 -0.137186,-0.246935 -0.334736,-0.246935 -0.197548,0 -0.235959,0.01646 -0.285347,0.07134 -0.04939,0.05487 -1.218215,1.613313 -1.218215,1.613313 z"
     id="path1153" /></svg>
