<?xml version="1.0" encoding="UTF-8"?>
<svg id="OBJECT" xmlns="http://www.w3.org/2000/svg" viewBox="0 0 32 32">
  <defs>
    <style>
      .cls-1 {
        fill: #FD4360;
      }

      .cls-1, .cls-2 {
        stroke-width: 0px;
      }

      .cls-2 {
        fill: #dadada;
      }
    </style>
  </defs>
  <path class="cls-1" d="m28.5,1H3.5c-1.38,0-2.5,1.12-2.5,2.5v1.5h30v-1.5c0-1.38-1.12-2.5-2.5-2.5Z"/>
  <g>
    <path class="cls-2" d="m28.22,6c-.55,0-1,.45-1,1v14.5c0,.28-.22.5-.5.5h-2.72s0,0,0,0H4.72c-.28,0-.5-.22-.5-.5V7c0-.55-.45-1-1-1s-1,.45-1,1v14.5c0,1.38,1.12,2.5,2.5,2.5h1.76l-2.4,5.61c-.22.51.02,1.1.53,1.31.13.06.26.08.39.08.39,0,.76-.23.92-.61l1.03-2.39h18.11l1.03,2.39c.16.38.53.61.92.61.13,0,.27-.03.39-.08.51-.22.74-.81.53-1.31l-2.4-5.61h1.2c1.38,0,2.5-1.12,2.5-2.5V7c0-.55-.45-1-1-1Zm-4.02,20H7.8l.86-2h14.68l.86,2Z"/>
    <path class="cls-2" d="m7.35,10.68h7c.55,0,1-.45,1-1s-.45-1-1-1h-7c-.55,0-1,.45-1,1s.45,1,1,1Z"/>
    <path class="cls-2" d="m7.35,13.68h3.5c.55,0,1-.45,1-1s-.45-1-1-1h-3.5c-.55,0-1,.45-1,1s.45,1,1,1Z"/>
    <path class="cls-2" d="m20.21,12.75c.19.19.45.29.71.29.23,0,.46-.08.65-.24l3.18-2.73c.42-.36.47-.99.11-1.41-.36-.42-.99-.47-1.41-.11l-2.48,2.12-1.1-1.1c-.39-.39-1.02-.39-1.41,0s-.39,1.02,0,1.41l1.75,1.75Z"/>
    <path class="cls-2" d="m7.35,17.68h7c.55,0,1-.45,1-1s-.45-1-1-1h-7c-.55,0-1,.45-1,1s.45,1,1,1Z"/>
    <path class="cls-2" d="m7.35,20.68h3.5c.55,0,1-.45,1-1s-.45-1-1-1h-3.5c-.55,0-1,.45-1,1s.45,1,1,1Z"/>
    <path class="cls-2" d="m23.83,15.66c-.39-.39-1.02-.39-1.41,0l-.79.79-.79-.79c-.39-.39-1.02-.39-1.41,0s-.39,1.02,0,1.41l.79.79-.79.79c-.39.39-.39,1.02,0,1.41.2.2.45.29.71.29s.51-.1.71-.29l.79-.79.79.79c.2.2.45.29.71.29s.51-.1.71-.29c.39-.39.39-1.02,0-1.41l-.79-.79.79-.79c.39-.39.39-1.02,0-1.41Z"/>
  </g>
</svg>