<?xml version="1.0" encoding="UTF-8"?>
<svg id="OBJECT" xmlns="http://www.w3.org/2000/svg" viewBox="0 0 32 32">
  <defs>
    <style>
      .cls-1 {
        fill: #FD4360;
      }

      .cls-1, .cls-2 {
        stroke-width: 0px;
      }

      .cls-2 {
        fill: #dadada;
      }
    </style>
  </defs>
  <g>
    <path class="cls-2" d="m30,7h-.5V2c0-.55-.45-1-1-1h-6c-.55,0-1,.45-1,1v5h-.5c-.55,0-1,.45-1,1v8c0,1.65,1.35,3,3,3h1.5v8c0,1.1-.9,2-2,2h-3.5c-1.1,0-2-.9-2-2V5c0-2.21-1.79-4-4-4h-3.5c-2.21,0-4,1.79-4,4v5c0,.55.45,1,1,1s1-.45,1-1v-5c0-1.1.9-2,2-2h3.5c1.1,0,2,.9,2,2v22c0,2.21,1.79,4,4,4h3.5c2.21,0,4-1.79,4-4v-8h1.5c1.65,0,3-1.35,3-3v-8c0-.55-.45-1-1-1Zm-1,2v3h-7v-3h7Zm-5.5-6h4v4h-4V3Zm4.5,14h-5c-.55,0-1-.45-1-1v-2h7v2c0,.55-.45,1-1,1Z"/>
    <path class="cls-2" d="m25.5,3.75c-.55,0-1,.45-1,1v.5c0,.55.45,1,1,1s1-.45,1-1v-.5c0-.55-.45-1-1-1Z"/>
  </g>
  <g>
    <path class="cls-1" d="m10,13H3c-1.1,0-2,.9-2,2v4h11v-4c0-1.1-.9-2-2-2Z"/>
    <rect class="cls-1" x="1" y="21" width="11" height="2"/>
    <path class="cls-1" d="m2.5,29c0,1.1.9,2,2,2h4c1.1,0,2-.9,2-2v-4H2.5v4Zm3-1.25c0-.55.45-1,1-1s1,.45,1,1v.5c0,.55-.45,1-1,1s-1-.45-1-1v-.5Z"/>
  </g>
</svg>