<?xml version="1.0" encoding="UTF-8"?>
<svg id="OBJECT" xmlns="http://www.w3.org/2000/svg" viewBox="0 0 32 32">
  <defs>
    <style>
      .cls-1 {
        fill: #FD4360;
      }

      .cls-1, .cls-2 {
        stroke-width: 0px;
      }

      .cls-2 {
        fill: #dadada;
      }
    </style>
  </defs>
  <g>
    <path class="cls-2" d="m27,15c-.55,0-1,.45-1,1v12c0,.55-.45,1-1,1h-10c-.55,0-1-.45-1-1v-1h1.5c.55,0,1-.45,1-1v-3.42l1.99-1.14c.93-.53,1.51-1.53,1.51-2.6v-4.84c0-.55-.45-1-1-1s-1,.45-1,1v4.84c0,.36-.19.69-.5.87l-2.26,1.29h-4.47l-2.26-1.29c-.31-.18-.5-.51-.5-.87v-4.84c0-.55-.45-1-1-1s-1,.45-1,1v4.84c0,1.07.58,2.07,1.51,2.6l1.99,1.14v3.42c0,.55.45,1,1,1h1.5v1c0,1.65,1.35,3,3,3h10c1.65,0,3-1.35,3-3v-12c0-.55-.45-1-1-1Zm-15.5,8h3v2h-3v-2Z"/>
    <path class="cls-2" d="m27,11c-.55,0-1,.45-1,1v1c0,.55.45,1,1,1s1-.45,1-1v-1c0-.55-.45-1-1-1Z"/>
    <path class="cls-2" d="m11,17.5h4c.55,0,1-.45,1-1s-.45-1-1-1h-4c-.55,0-1,.45-1,1s.45,1,1,1Z"/>
  </g>
  <g>
    <path class="cls-1" d="m20.5,8.5H5.5c-.83,0-1.5.67-1.5,1.5v2h18v-2c0-.83-.67-1.5-1.5-1.5Z"/>
    <path class="cls-1" d="m11,2c0-.55-.45-1-1-1h-1c-.55,0-1,.45-1,1v4.5h3V2Z"/>
    <path class="cls-1" d="m18,2c0-.55-.45-1-1-1h-1c-.55,0-1,.45-1,1v4.5h3V2Z"/>
  </g>
</svg>