<?xml version="1.0" encoding="UTF-8"?>
<svg id="OBJECT" xmlns="http://www.w3.org/2000/svg" viewBox="0 0 32 32">
  <defs>
    <style>
      .cls-1 {
        fill: #FD4360;
      }

      .cls-1, .cls-2 {
        stroke-width: 0px;
      }

      .cls-2 {
        fill: #dadada;
      }
    </style>
  </defs>
  <path class="cls-2" d="m30,23h-.75c1.14-2.15,1.75-4.54,1.75-7,0-8.27-6.73-15-15-15S1,7.73,1,16c0,2.46.61,4.85,1.75,7h-.75c-.55,0-1,.45-1,1v3c0,2.21,1.79,4,4,4h22c2.21,0,4-1.79,4-4v-3c0-.55-.45-1-1-1Zm-1,4c0,1.1-.9,2-2,2H5c-1.1,0-2-.9-2-2v-2h26v2Zm-2.06-4H5.06c-1.35-2.1-2.06-4.5-2.06-7,0-7.17,5.83-13,13-13s13,5.83,13,13c0,2.5-.72,4.9-2.06,7Z"/>
  <path class="cls-1" d="m27.5,16c0-6.34-5.16-11.5-11.5-11.5s-11.5,5.16-11.5,11.5c0,1.75.41,3.46,1.16,5h20.68c.75-1.54,1.16-3.25,1.16-5Zm-16,3.5c-.26,0-.51-.1-.71-.29-.39-.39-.39-1.02,0-1.41l6.52-6.52c.39-.39,1.02-.39,1.41,0s.39,1.02,0,1.41l-6.52,6.52c-.2.2-.45.29-.71.29Zm9.7-3.68l-3.38,3.38c-.2.2-.45.29-.71.29s-.51-.1-.71-.29c-.39-.39-.39-1.02,0-1.41l3.38-3.38c.39-.39,1.02-.39,1.41,0,.39.39.39,1.02,0,1.41Zm0-5.62l-.2.2c-.2.2-.45.29-.71.29s-.51-.1-.71-.29c-.39-.39-.39-1.02,0-1.41l.2-.2c.39-.39,1.02-.39,1.41,0s.39,1.02,0,1.41Z"/>
</svg>