<?xml version="1.0" encoding="UTF-8"?>
<svg id="OBJECT" xmlns="http://www.w3.org/2000/svg" viewBox="0 0 32 32">
  <defs>
    <style>
      .cls-1 {
        fill: #FD4360;
      }

      .cls-1, .cls-2 {
        stroke-width: 0px;
      }

      .cls-2 {
        fill: #dadada;
      }
    </style>
  </defs>
  <g>
    <path class="cls-2" d="m30,8c-.55,0-1,.45-1,1v4c0,.55-.45,1-1,1h-2c-.55,0-1-.45-1-1V4c0-1.65-1.35-3-3-3h-8c-1.65,0-3,1.35-3,3v.84c-1.34.08-2.67.33-3.95.76-1.23.41-2.05,1.55-2.05,2.85v3.08c-2.44,2.02-4,5.07-4,8.48,0,6.07,4.93,11,11,11s11-4.93,11-11c0-3.41-1.56-6.46-4-8.48v-3.08c0-1.29-.82-2.44-2.05-2.85-1.28-.43-2.61-.67-3.95-.76v-.84c0-.55.45-1,1-1h8c.55,0,1,.45,1,1v9c0,1.65,1.35,3,3,3h2c1.65,0,3-1.35,3-3v-4c0-.55-.45-1-1-1Zm-9,12c0,4.96-4.04,9-9,9S3,24.96,3,20s4.04-9,9-9,9,4.04,9,9Zm-4-11.56v1.77c-1.5-.77-3.2-1.21-5-1.21s-3.5.44-5,1.21v-1.77c0-.43.27-.81.68-.95,2.78-.93,5.85-.93,8.63,0,.41.14.68.52.68.95Z"/>
    <path class="cls-2" d="m30,4c-.55,0-1,.45-1,1v1c0,.55.45,1,1,1s1-.45,1-1v-1c0-.55-.45-1-1-1Z"/>
  </g>
  <path class="cls-1" d="m12,12.5c-4.14,0-7.5,3.36-7.5,7.5s3.36,7.5,7.5,7.5,7.5-3.36,7.5-7.5-3.36-7.5-7.5-7.5Zm2.56,10.06c-.2.2-.45.29-.71.29s-.51-.1-.71-.29l-1.86-1.86c-.19-.19-.29-.44-.29-.71v-2.79c0-.55.45-1,1-1s1,.45,1,1v2.37l1.56,1.56c.39.39.39,1.02,0,1.41Z"/>
</svg>