<?xml version="1.0" encoding="UTF-8"?>
<svg id="OBJECT" xmlns="http://www.w3.org/2000/svg" viewBox="0 0 512 512">
  <defs>
    <style>
      .cls-1 {
        fill: #FD4360;
      }

      .cls-2 {
        fill: #dadada;
      }
    </style>
  </defs>
  <path class="cls-2" d="M416,85h-10c-12.41,0-22.5,10.09-22.5,22.5v40c0,12.41,10.09,22.5,22.5,22.5h17.5v77.5c0,23.43-19.07,42.5-42.5,42.5H131c-23.43,0-42.5-19.07-42.5-42.5v-77.5h17.5c12.41,0,22.5-10.09,22.5-22.5v-40c0-12.41-10.09-22.5-22.5-22.5h-10c-12.41,0-22.5,10.09-22.5,22.5V247.5c0,31.71,25.79,57.5,57.5,57.5h57.5v27.5c0,12.41,10.09,22.5,22.5,22.5h12.5v102h-62.5c-12.41,0-22.5,10.09-22.5,22.5v10c0,12.41,10.09,22.5,22.5,22.5h190c12.41,0,22.5-10.09,22.5-22.5v-10c0-12.41-10.09-22.5-22.5-22.5h-62.5v-102h12.5c12.41,0,22.5-10.09,22.5-22.5v-27.5h57.5c31.71,0,57.5-25.79,57.5-57.5V107.5c0-12.41-10.09-22.5-22.5-22.5ZM88.5,107.5c0-4.14,3.36-7.5,7.5-7.5h10c4.14,0,7.5,3.36,7.5,7.5v40c0,4.14-3.36,7.5-7.5,7.5h-17.5v-47.5ZM358.5,479.5v10c0,4.14-3.36,7.5-7.5,7.5H161c-4.14,0-7.5-3.36-7.5-7.5v-10c0-4.14,3.36-7.5,7.5-7.5h190c4.14,0,7.5,3.36,7.5,7.5Zm-85-22.5h-35v-102h35v102Zm35-124.5c0,4.14-3.36,7.5-7.5,7.5h-90c-4.14,0-7.5-3.36-7.5-7.5v-27.5h105v27.5Zm90-185v-40c0-4.14,3.36-7.5,7.5-7.5h10c4.14,0,7.5,3.36,7.5,7.5v47.5h-17.5c-4.14,0-7.5-3.36-7.5-7.5Z"/>
  <g>
    <path class="cls-1" d="M306,0h-100c-20.68,0-37.5,16.82-37.5,37.5V180h175V37.5c0-20.68-16.82-37.5-37.5-37.5Zm17.5,127.5c0,4.14-3.36,7.5-7.5,7.5s-7.5-3.36-7.5-7.5v-3.54c0-4.14,3.36-7.5,7.5-7.5s7.5,3.36,7.5,7.5v3.54Zm0-29.07c0,4.14-3.36,7.5-7.5,7.5s-7.5-3.36-7.5-7.5V42.5c0-4.14-3.36-7.5-7.5-7.5h-55c-4.14,0-7.5-3.36-7.5-7.5s3.36-7.5,7.5-7.5h55c12.41,0,22.5,10.09,22.5,22.5v55.93Z"/>
    <path class="cls-1" d="M168.5,217.5c0,20.68,16.82,37.5,37.5,37.5h100c20.68,0,37.5-16.82,37.5-37.5v-22.5H168.5v22.5Zm122.5,0h10c4.14,0,7.5,3.36,7.5,7.5s-3.36,7.5-7.5,7.5h-10c-4.14,0-7.5-3.36-7.5-7.5s3.36-7.5,7.5-7.5Zm-40,0h10c4.14,0,7.5,3.36,7.5,7.5s-3.36,7.5-7.5,7.5h-10c-4.14,0-7.5-3.36-7.5-7.5s3.36-7.5,7.5-7.5Zm-40,0h10c4.14,0,7.5,3.36,7.5,7.5s-3.36,7.5-7.5,7.5h-10c-4.14,0-7.5-3.36-7.5-7.5s3.36-7.5,7.5-7.5Z"/>
  </g>
</svg>