<?xml version="1.0" encoding="UTF-8"?>
<svg id="OBJECT" xmlns="http://www.w3.org/2000/svg" viewBox="0 0 32 32">
  <defs>
    <style>
      .cls-1 {
        fill: #FD4360;
      }

      .cls-1, .cls-2 {
        stroke-width: 0px;
      }

      .cls-2 {
        fill: #dadada;
      }
    </style>
  </defs>
  <path class="cls-2" d="m28.44,23.11c.03-.2.06-.4.06-.61v-1.5c0-1.65-1.35-3-3-3h-1c-1.65,0-3,1.35-3,3v1.5c0,.21.03.41.06.61-.63.44-1.15.99-1.56,1.61-.41-.62-.93-1.17-1.56-1.61.03-.2.06-.4.06-.61v-1.5c0-1.65-1.35-3-3-3v-3h.5c.55,0,1-.45,1-1s-.45-1-1-1H2c-.55,0-1,.45-1,1s.45,1,1,1h.5v15c0,.55.45,1,1,1h26.5c.55,0,1-.45,1-1v-2c0-1.97-.96-3.78-2.56-4.89Zm-4.94-2.11c0-.55.45-1,1-1h1c.55,0,1,.45,1,1v1.5c0,.83-.67,1.5-1.5,1.5s-1.5-.67-1.5-1.5v-1.5Zm-4.5,7v1h-8v-1c0-1.21.56-2.33,1.49-3.08.64.66,1.53,1.08,2.51,1.08s1.88-.42,2.51-1.08c.93.75,1.49,1.86,1.49,3.08Zm-2.5-7v1.5c0,.83-.67,1.5-1.5,1.5s-1.5-.67-1.5-1.5v-1.5c0-.55.45-1,1-1h1c.55,0,1,.45,1,1Zm-3-6v3.18c-1.16.41-2,1.51-2,2.82v1.5c0,.21.03.41.06.61-.72.5-1.31,1.15-1.74,1.89h-5.32v-10h9Zm-9,12h4.59c-.06.33-.09.66-.09,1v1h-4.5v-2Zm24.5,2h-8v-1c0-1.21.56-2.33,1.49-3.08.64.66,1.53,1.08,2.51,1.08s1.88-.42,2.51-1.08c.93.75,1.49,1.86,1.49,3.08v1Z"/>
  <g>
    <path class="cls-1" d="m13.46,7.01c-.82,1.65-2.5,2.79-4.46,2.79s-3.65-1.15-4.46-2.79c-.95,1.06-1.54,2.46-1.54,3.99h12c0-1.53-.58-2.93-1.54-3.99Z"/>
    <path class="cls-1" d="m9,7.8c1.65,0,3-1.35,3-3v-1.2c0-1.43-1.17-2.6-2.6-2.6h-.8c-1.43,0-2.6,1.17-2.6,2.6v1.2c0,1.65,1.35,3,3,3Z"/>
  </g>
</svg>