<?xml version="1.0" encoding="UTF-8"?>
<svg id="OBJECT" xmlns="http://www.w3.org/2000/svg" viewBox="0 0 32 32">
  <defs>
    <style>
      .cls-1 {
        fill: #FD4360;
      }

      .cls-1, .cls-2 {
        stroke-width: 0px;
      }

      .cls-2 {
        fill: #dadada;
      }
    </style>
  </defs>
  <g>
    <path class="cls-2" d="m25.5,18v-5c0-.55-.45-1-1-1s-1,.45-1,1v5c0,.55-.45,1-1,1h-13c-.55,0-1-.45-1-1v-5c0-.55-.45-1-1-1s-1,.45-1,1v5c0,1.48,1.08,2.71,2.5,2.95v8.05h-1.5c-.55,0-1,.45-1,1s.45,1,1,1h17c.55,0,1-.45,1-1s-.45-1-1-1h-1.5v-8.05c1.42-.24,2.5-1.47,2.5-2.95Zm-14.5,11v-8h10v8h-10Z"/>
    <path class="cls-2" d="m18,22.5c-.55,0-1,.45-1,1v3c0,.55.45,1,1,1s1-.45,1-1v-3c0-.55-.45-1-1-1Z"/>
    <path class="cls-2" d="m14,22.5c-.55,0-1,.45-1,1v3c0,.55.45,1,1,1s1-.45,1-1v-3c0-.55-.45-1-1-1Z"/>
    <path class="cls-2" d="m10.75,16.5h.5c.55,0,1-.45,1-1s-.45-1-1-1h-.5c-.55,0-1,.45-1,1s.45,1,1,1Z"/>
    <path class="cls-2" d="m15.75,16.5h.5c.55,0,1-.45,1-1s-.45-1-1-1h-.5c-.55,0-1,.45-1,1s.45,1,1,1Z"/>
    <path class="cls-2" d="m20.75,16.5h.5c.55,0,1-.45,1-1s-.45-1-1-1h-.5c-.55,0-1,.45-1,1s.45,1,1,1Z"/>
  </g>
  <g>
    <rect class="cls-1" x="4" y="7" width="24" height="4"/>
    <path class="cls-1" d="m10.5,3.5c0-.28.22-.5.5-.5h1.5c.55,0,1-.45,1-1s-.45-1-1-1h-1.5c-1.38,0-2.5,1.12-2.5,2.5v1.5h2v-1.5Z"/>
    <path class="cls-1" d="m19.5,3h1.5c.28,0,.5.22.5.5v1.5h2v-1.5c0-1.38-1.12-2.5-2.5-2.5h-1.5c-.55,0-1,.45-1,1s.45,1,1,1Z"/>
  </g>
</svg>