<?xml version="1.0" encoding="UTF-8"?>
<svg id="OBJECT" xmlns="http://www.w3.org/2000/svg" viewBox="0 0 32 32">
  <defs>
    <style>
      .cls-1 {
        fill: #FD4360;
      }

      .cls-1, .cls-2 {
        stroke-width: 0px;
      }

      .cls-2 {
        fill: #dadada;
      }
    </style>
  </defs>
  <g>
    <path class="cls-2" d="m17.5,22h-3c-.55,0-1,.45-1,1s.45,1,1,1h3c.55,0,1-.45,1-1s-.45-1-1-1Z"/>
    <path class="cls-2" d="m25.5,29h-1.87l1.74-13.88c.07-.55-.32-1.05-.87-1.12-.55-.07-1.05.32-1.12.87l-.39,3.12h-13.98l-.39-3.12c-.07-.55-.56-.94-1.12-.87-.55.07-.94.57-.87,1.12l1.73,13.88h-1.87c-.55,0-1,.45-1,1s.45,1,1,1h19c.55,0,1-.45,1-1s-.45-1-1-1Zm-16.24-9h13.48l-1.13,9h-11.23l-1.12-9Z"/>
  </g>
  <g>
    <rect class="cls-1" x="4" y="9" width="24" height="3"/>
    <path class="cls-1" d="m18.83,5.99l.19.06c1.3.38,2.65-.33,3.07-1.61l.13-.4.58.15c.41.11.71.46.74.88l.16,1.93h2.01l-.18-2.1c-.11-1.26-1-2.32-2.22-2.65l-4.59-1.22c-.52-.14-1.04.15-1.21.66l-.36,1.13c-.21.65-.15,1.34.17,1.94s.85,1.04,1.51,1.23Z"/>
    <path class="cls-1" d="m8.45,5.07c.04-.42.33-.77.74-.88l.58-.15.13.4c.42,1.28,1.77,1.99,3.07,1.61l.18-.05c.65-.19,1.19-.63,1.51-1.23s.38-1.29.17-1.94l-.36-1.13c-.16-.5-.69-.8-1.21-.66l-4.59,1.22c-1.22.32-2.12,1.39-2.22,2.65l-.18,2.1h2.01l.16-1.93Z"/>
  </g>
</svg>