<?xml version="1.0" encoding="UTF-8"?>
<svg id="OBJECT" xmlns="http://www.w3.org/2000/svg" viewBox="0 0 32 32">
  <defs>
    <style>
      .cls-1 {
        fill: #FD4360;
      }

      .cls-1, .cls-2 {
        stroke-width: 0px;
      }

      .cls-2 {
        fill: #dadada;
      }
    </style>
  </defs>
  <g>
    <path class="cls-2" d="m7.5,15.5c-1.65,0-3,1.35-3,3v6c0,1.65,1.35,3,3,3h7c1.65,0,3-1.35,3-3v-6c0-1.65-1.35-3-3-3h-7Zm8,3v6c0,.55-.45,1-1,1h-7c-.55,0-1-.45-1-1v-1h2.42c1.08,0,2.03-.69,2.37-1.71l.66-1.97c.17-.52-.11-1.09-.63-1.27-.53-.18-1.09.11-1.26.63l-.66,1.97c-.07.2-.26.34-.47.34h-2.42v-3c0-.55.45-1,1-1h7c.55,0,1,.45,1,1Z"/>
    <path class="cls-2" d="m20,6.5c.55,0,1-.45,1-1v-1.5c0-1.65-1.35-3-3-3H4c-1.65,0-3,1.35-3,3v24c0,1.65,1.35,3,3,3h14c1.65,0,3-1.35,3-3v-12.5c0-.55-.45-1-1-1s-1,.45-1,1v12.5c0,.55-.45,1-1,1H4c-.55,0-1-.45-1-1V4c0-.55.45-1,1-1h14c.55,0,1,.45,1,1v1.5c0,.55.45,1,1,1Z"/>
    <path class="cls-2" d="m13.5,21.5h-.5c-.55,0-1,.45-1,1s.45,1,1,1h.5c.55,0,1-.45,1-1s-.45-1-1-1Z"/>
  </g>
  <g>
    <path class="cls-1" d="m29,7.5h-14.5v6h14.5c1.1,0,2-.9,2-2v-2c0-1.1-.9-2-2-2Z"/>
    <path class="cls-1" d="m6.5,8.5v4c0,.55.45,1,1,1h5v-6h-5c-.55,0-1,.45-1,1Z"/>
  </g>
</svg>