<?xml version="1.0" encoding="UTF-8"?>
<svg id="OBJECT" xmlns="http://www.w3.org/2000/svg" viewBox="0 0 32 32">
  <defs>
    <style>
      .cls-1 {
        fill: #FD4360;
      }

      .cls-1, .cls-2 {
        stroke-width: 0px;
      }

      .cls-2 {
        fill: #dadada;
      }
    </style>
  </defs>
  <g>
    <path class="cls-2" d="m22,29h-5v-4.55c1.42-.24,2.5-1.47,2.5-2.95v-1c0-1.48-1.08-2.71-2.5-2.95v-2.93l4.55,2.28c.14.07.3.11.45.11.37,0,.72-.2.9-.55.25-.49.05-1.09-.45-1.34l-6-3c-.28-.14-.61-.14-.89,0l-5.79,2.89H3v-3c0-.55-.45-1-1-1s-1,.45-1,1v18c0,.55.45,1,1,1h20c.55,0,1-.45,1-1s-.45-1-1-1Zm-11-12.38l4-2v2.93c-1.42.24-2.5,1.47-2.5,2.95v1c0,1.48,1.08,2.71,2.5,2.95v4.55h-4v-12.38Zm6.5,3.88v1c0,.55-.45,1-1,1h-1c-.55,0-1-.45-1-1v-1c0-.55.45-1,1-1h1c.55,0,1,.45,1,1Zm-14.5-3.5h2v4.5c0,.55.45,1,1,1s1-.45,1-1v-4.5h2v12H3v-12Z"/>
    <path class="cls-2" d="m6,24c-.55,0-1,.45-1,1v.5c0,.55.45,1,1,1s1-.45,1-1v-.5c0-.55-.45-1-1-1Z"/>
    <path class="cls-2" d="m18.25,8.18c.25,0,.51-.1.7-.29.39-.39.4-1.02,0-1.41-.79-.8-1.84-1.24-2.96-1.24s-2.17.44-2.96,1.24c-.39.39-.39,1.03,0,1.41.39.39,1.03.38,1.41,0,.82-.83,2.25-.83,3.08,0,.2.2.45.3.71.3Z"/>
    <path class="cls-2" d="m12.21,4.59c1.01-1.02,2.36-1.59,3.79-1.59s2.78.56,3.79,1.59c.2.2.45.3.71.3s.51-.1.7-.29c.39-.39.4-1.02,0-1.41-1.39-1.4-3.24-2.18-5.21-2.18s-3.82.77-5.21,2.18c-.39.39-.39,1.03,0,1.41.39.39,1.02.39,1.41,0Z"/>
    <path class="cls-2" d="m15.75,9c-.55,0-1,.45-1,1s.45,1,1,1h.5c.55,0,1-.45,1-1s-.45-1-1-1h-.5Z"/>
  </g>
  <path class="cls-1" d="m30,11c-.55,0-1,.45-1,1v3h-1v6.5c0,.55-.45,1-1,1s-1-.45-1-1v-6.5h-2v16h7V12c0-.55-.45-1-1-1Zm-2,14.5c0,.55-.45,1-1,1s-1-.45-1-1v-.5c0-.55.45-1,1-1s1,.45,1,1v.5Z"/>
</svg>