<?xml version="1.0" encoding="UTF-8"?>
<svg id="OBJECT" xmlns="http://www.w3.org/2000/svg" viewBox="0 0 512 512">
  <defs>
    <style>
      .cls-1 {
        fill: #FD4360;
      }

      .cls-2 {
        fill: #dadada;
      }
    </style>
  </defs>
  <g>
    <path class="cls-2" d="M376,335h10c12.41,0,22.5-10.09,22.5-22.5v-43.76c0-4.14-3.36-7.5-7.5-7.5s-7.5,3.36-7.5,7.5v43.76c0,4.14-3.36,7.5-7.5,7.5h-10c-4.14,0-7.5-3.36-7.5-7.5v-29.76c0-4.14-3.36-7.5-7.5-7.5s-7.5,3.36-7.5,7.5v29.76c0,12.41,10.09,22.5,22.5,22.5Z"/>
    <path class="cls-2" d="M126,335h10c12.41,0,22.5-10.09,22.5-22.5v-29.76c0-4.14-3.36-7.5-7.5-7.5s-7.5,3.36-7.5,7.5v29.76c0,4.14-3.36,7.5-7.5,7.5h-10c-4.14,0-7.5-3.36-7.5-7.5v-43.76c0-4.14-3.36-7.5-7.5-7.5s-7.5,3.36-7.5,7.5v43.76c0,12.41,10.09,22.5,22.5,22.5Z"/>
    <path class="cls-2" d="M491,228.76c-4.14,0-7.5,3.36-7.5,7.5v113.74h-32.5c-15.16,0-27.5,12.34-27.5,27.5v32.5h-81.21c-6.93-41.37-42.98-73-86.29-73s-79.36,31.63-86.29,73H88.5v-32.5c0-15.16-12.34-27.5-27.5-27.5H28.5v-113.74c0-4.14-3.36-7.5-7.5-7.5s-7.5,3.36-7.5,7.5v161.24c0,15.16,12.34,27.5,27.5,27.5h127.51c.27,48.02,39.41,87,87.49,87s87.22-38.98,87.49-87h127.51c15.16,0,27.5-12.34,27.5-27.5V236.26c0-4.14-3.36-7.5-7.5-7.5Zm-235,123.24c39.98,0,72.5,32.52,72.5,72.5,0,8.8-1.58,17.24-4.46,25.05-9.42-11.62-21.74-20.71-35.59-26.28,3.21-5.52,5.06-11.93,5.06-18.77,0-20.68-16.82-37.5-37.5-37.5s-37.5,16.82-37.5,37.5c0,6.84,1.85,13.25,5.06,18.77-13.86,5.57-26.17,14.65-35.59,26.28-2.88-7.81-4.46-16.25-4.46-25.05,0-39.98,32.52-72.5,72.5-72.5Zm-22.5,52.5c0-12.41,10.09-22.5,22.5-22.5s22.5,10.09,22.5,22.5-10.09,22.5-22.5,22.5-22.5-10.09-22.5-22.5Zm-205-7v-32.5H61c6.89,0,12.5,5.61,12.5,12.5v32.5H41c-6.89,0-12.5-5.61-12.5-12.5Zm227.5,99.5c-25.2,0-47.43-12.93-60.43-32.5,9.23-13.9,23.11-24.33,38.99-29.26,6.08,4.26,13.47,6.76,21.44,6.76s15.36-2.51,21.44-6.76c15.87,4.93,29.75,15.36,38.99,29.26-13,19.57-35.23,32.5-60.43,32.5Zm215-87h-32.5v-32.5c0-6.89,5.61-12.5,12.5-12.5h32.5v32.5c0,6.89-5.61,12.5-12.5,12.5Z"/>
  </g>
  <g>
    <path class="cls-1" d="M133.5,40h245v35h15V22.5c0-12.41-10.09-22.5-22.5-22.5H141c-12.41,0-22.5,10.09-22.5,22.5v52.5h15V40Z"/>
    <rect class="cls-1" x="93.5" y="140" width="35" height="25" rx="7.5" ry="7.5"/>
    <rect class="cls-1" x="178.5" y="140" width="155" height="25" rx="7.5" ry="7.5"/>
    <path class="cls-1" d="M504.5,90H7.5c-4.14,0-7.5,3.36-7.5,7.5v83.72c0,15.91,10.09,30.14,25.11,35.39l189.54,66.36c13.33,4.67,27.24,7.03,41.36,7.03s28.03-2.37,41.36-7.03l189.54-66.36c15.02-5.26,25.11-19.48,25.11-35.39V97.5c0-4.14-3.36-7.5-7.5-7.5ZM143.5,157.5c0,12.41-10.09,22.5-22.5,22.5h-20c-12.41,0-22.5-10.09-22.5-22.5v-10c0-12.41,10.09-22.5,22.5-22.5h20c12.41,0,22.5,10.09,22.5,22.5v10Zm205,0c0,12.41-10.09,22.5-22.5,22.5H186c-12.41,0-22.5-10.09-22.5-22.5v-10c0-12.41,10.09-22.5,22.5-22.5h140c12.41,0,22.5,10.09,22.5,22.5v10Zm85,0c0,12.41-10.09,22.5-22.5,22.5h-20c-12.41,0-22.5-10.09-22.5-22.5v-10c0-12.41,10.09-22.5,22.5-22.5h20c12.41,0,22.5,10.09,22.5,22.5v10Z"/>
    <rect class="cls-1" x="383.5" y="140" width="35" height="25" rx="7.5" ry="7.5"/>
  </g>
</svg>