<?xml version="1.0" encoding="UTF-8"?>
<svg id="OBJECT" xmlns="http://www.w3.org/2000/svg" viewBox="0 0 32 32">
  <defs>
    <style>
      .cls-1 {
        fill: #FD4360;
      }

      .cls-2 {
        fill: #dadada;
      }
    </style>
  </defs>
  <g>
    <path class="cls-2" d="M5.59,19.81c.44-.33,.54-.95,.21-1.4-.33-.45-.95-.54-1.4-.21-2.2,1.62-3.41,3.68-3.41,5.81s1.21,4.19,3.41,5.81c.18,.13,.39,.19,.59,.19,.31,0,.61-.14,.81-.41,.33-.45,.23-1.07-.21-1.4-1.18-.87-2.59-2.3-2.59-4.19s1.41-3.32,2.59-4.19Z"/>
    <path class="cls-2" d="M27.59,18.19c-.45-.33-1.07-.23-1.4,.21-.33,.45-.23,1.07,.21,1.4,1.18,.87,2.59,2.3,2.59,4.19s-1.41,3.32-2.59,4.19c-.44,.33-.54,.95-.21,1.4,.2,.27,.5,.41,.81,.41,.21,0,.41-.06,.59-.19,2.2-1.62,3.41-3.68,3.41-5.81s-1.21-4.19-3.41-5.81Z"/>
    <path class="cls-2" d="M22.18,8.4c-.44-.33-1.07-.24-1.4,.21-.33,.44-.24,1.07,.21,1.4,1.28,.95,2.02,2.41,2.02,4v5c0,.55-.45,1-1,1v-5c0-.55-.45-1-1-1s-1,.45-1,1v12.36c0,.84-.59,1.56-1.34,1.63-.44,.04-.85-.09-1.16-.38-.32-.29-.49-.68-.49-1.11v-7.5c0-.55-.45-1-1-1s-1,.45-1,1v7.5c0,.43-.18,.82-.49,1.11-.32,.29-.73,.43-1.16,.38-.75-.08-1.34-.79-1.34-1.63V15c0-.55-.45-1-1-1s-1,.45-1,1v5c-.55,0-1-.45-1-1v-5c0-1.59,.73-3.05,2.02-4,.44-.33,.54-.96,.21-1.4-.33-.44-.96-.54-1.4-.21-1.79,1.33-2.82,3.37-2.82,5.6v5c0,1.65,1.35,3,3,3v5.36c0,1.86,1.38,3.45,3.14,3.62,.12,.01,.23,.02,.35,.02,.87,0,1.71-.32,2.36-.9,.05-.05,.1-.1,.15-.15,.05,.05,.1,.1,.15,.15,.73,.66,1.72,.99,2.71,.89,1.76-.18,3.14-1.77,3.14-3.62v-5.36c1.65,0,3-1.35,3-3v-5c0-2.23-1.03-4.27-2.82-5.6Z"/>
  </g>
  <path class="cls-1" d="M16,11c2.21,0,4-1.79,4-4v-3c0-1.65-1.35-3-3-3h-2c-1.65,0-3,1.35-3,3v3c0,2.21,1.79,4,4,4Z"/>
</svg>