<?xml version="1.0" encoding="UTF-8"?>
<svg id="OBJECT" xmlns="http://www.w3.org/2000/svg" viewBox="0 0 32 32">
  <defs>
    <style>
      .cls-1 {
        fill: #FD4360;
      }

      .cls-1, .cls-2 {
        stroke-width: 0px;
      }

      .cls-2 {
        fill: #dadada;
      }
    </style>
  </defs>
  <g>
    <path class="cls-2" d="m21,7h1c.55,0,1-.45,1-1s-.45-1-1-1h-1c-.55,0-1,.45-1,1s.45,1,1,1Z"/>
    <path class="cls-2" d="m23.31,12.91l-5.1-7c-.38-.52-1.24-.52-1.62,0l-2.59,3.56-2.59-3.56c-.38-.52-1.24-.52-1.62,0l-5.1,7c-.33.45-.23,1.07.22,1.4.45.32,1.07.23,1.4-.22l4.29-5.89,4.29,5.89c.2.27.5.41.81.41.2,0,.41-.06.59-.19.45-.33.54-.95.22-1.4l-1.27-1.74,2.16-2.97,4.29,5.89c.2.27.5.41.81.41.2,0,.41-.06.59-.19.45-.33.54-.95.22-1.4Z"/>
    <path class="cls-2" d="m26,1H2c-.55,0-1,.45-1,1v24c0,.55.45,1,1,1h11c.55,0,1-.45,1-1s-.45-1-1-1H3v-6h22c0,.55.45,1,1,1s1-.45,1-1V2c0-.55-.45-1-1-1ZM3,17V3h22v14H3Z"/>
    <path class="cls-2" d="m5.5,21c-.55,0-1,.45-1,1s.45,1,1,1h5c.55,0,1-.45,1-1s-.45-1-1-1h-5Z"/>
  </g>
  <path class="cls-1" d="m30,22h-14c-.55,0-1,.45-1,1v7c0,.55.45,1,1,1h14c.55,0,1-.45,1-1v-7c0-.55-.45-1-1-1Zm-11.5,5.5h-.5c-.55,0-1-.45-1-1s.45-1,1-1h.5c.55,0,1,.45,1,1s-.45,1-1,1Zm9.5,0h-6c-.55,0-1-.45-1-1s.45-1,1-1h6c.55,0,1,.45,1,1s-.45,1-1,1Z"/>
</svg>