<?xml version="1.0" encoding="UTF-8" standalone="no"?>
<svg
   id="OBJECT"
   viewBox="0 0 32 32"
   version="1.1"
   sodipodi:docname="Sign Post.svg"
   xml:space="preserve"
   inkscape:version="1.2.2 (732a01da63, 2022-12-09)"
   xmlns:inkscape="http://www.inkscape.org/namespaces/inkscape"
   xmlns:sodipodi="http://sodipodi.sourceforge.net/DTD/sodipodi-0.dtd"
   xmlns="http://www.w3.org/2000/svg"
   xmlns:svg="http://www.w3.org/2000/svg"><sodipodi:namedview
     id="namedview23"
     pagecolor="#505050"
     bordercolor="#ffffff"
     borderopacity="1"
     inkscape:showpageshadow="0"
     inkscape:pageopacity="0"
     inkscape:pagecheckerboard="1"
     inkscape:deskcolor="#505050"
     showgrid="false"
     inkscape:zoom="1.4142136"
     inkscape:cx="-201.17188"
     inkscape:cy="48.083261"
     inkscape:window-width="1920"
     inkscape:window-height="1009"
     inkscape:window-x="-8"
     inkscape:window-y="-8"
     inkscape:window-maximized="1"
     inkscape:current-layer="OBJECT" /><defs
     id="defs4"><rect
       x="-282.99284"
       y="154.59794"
       width="57.646689"
       height="14.84839"
       id="rect246" /><style
       id="style2">
      .cls-1 {
        fill: #FD4360;
      }

      .cls-1, .cls-2 {
        stroke-width: 0px;
      }

      .cls-2 {
        fill: #dadada;
      }
    </style><clipPath
       clipPathUnits="userSpaceOnUse"
       id="clipPath2676"><path
         style="fill:#fb4461;fill-opacity:0.975982;stroke-width:2.451"
         d="m -260.12311,263.19037 0,-29.69678 29.69678,0 z"
         id="path2678" /></clipPath></defs><path
     style="fill:#fb4461;stroke-width:0.56635"
     d=""
     id="path401" /><text
     xml:space="preserve"
     id="text244"
     style="font-size:14.6667px;font-family:'Exo 2';-inkscape-font-specification:'Exo 2, ';text-align:justify;white-space:pre;shape-inside:url(#rect246);display:inline;fill:#dadada;fill-opacity:0.976471;stroke-width:2.451" /><circle
     style="fill:#dadada;fill-opacity:1;stroke-width:0.823852;stroke-opacity:0.976471"
     id="path362"
     cx="16.618908"
     cy="5.3270388"
     r="1.5178319" /><path
     style="fill:#fe4461;fill-opacity:0.976471;stroke-width:0.717148;stroke-opacity:0.976471"
     d="M 26.055069,5.3270396 H 6.9633094 c 0,0 -1.4629779,0.4023167 -1.4995457,1.2069501 -0.036595,0.8046332 -0.018297,3.8403013 -0.018297,3.8403013 0,0 0.2377306,1.298383 1.3349596,1.334959 1.097229,0.03659 19.2929227,0.03659 19.2929227,0.03659 l 2.797928,-2.688207 c 0,0 0.512038,-0.5303265 -0.0183,-1.078941 C 28.322654,7.4300825 26.055051,5.3270664 26.055051,5.3270664 Z"
     id="path308" /><rect
     style="fill:#dadada;fill-opacity:1;stroke-width:0.636521;stroke-opacity:0.976471"
     id="rect524"
     width="3.0356638"
     height="3.8534243"
     x="15.101086"
     y="13.388627"
     ry="0" /><path
     style="fill:#fe4461;fill-opacity:0.976471;stroke-width:0.717148;stroke-opacity:0.976471"
     d="M 7.2121344,14.94767 H 26.303903 c 0,0 1.462969,0.402317 1.499546,1.20695 0.03659,0.804633 0.0183,3.840302 0.0183,3.840302 0,0 -0.237739,1.298382 -1.334968,1.334959 -1.09722,0.03659 -19.292923,0.03659 -19.292923,0.03659 L 4.3959264,18.678259 c 0,0 -0.5120379,-0.530326 0.018297,-1.07894 0.5303262,-0.548615 2.7979286,-2.651631 2.7979286,-2.651631 z"
     id="path470" /><circle
     style="fill:#dadada;fill-opacity:1;stroke-width:0.840087;stroke-opacity:0.976471"
     id="path629"
     cx="16.618908"
     cy="27.856787"
     r="1.4995446" /><rect
     style="fill:#dadada;fill-opacity:1;stroke-width:0.68658;stroke-opacity:0.976471"
     id="rect631"
     width="2.9836195"
     height="5.2289476"
     x="15.127099"
     y="22.779961"
     ry="0" /></svg>
