<?xml version="1.0" encoding="UTF-8"?>
<svg id="OBJECT" xmlns="http://www.w3.org/2000/svg" viewBox="0 0 32 32">
  <defs>
    <style>
      .cls-1 {
        fill: #FD4360;
      }

      .cls-1, .cls-2 {
        stroke-width: 0px;
      }

      .cls-2 {
        fill: #dadada;
      }
    </style>
  </defs>
  <path class="cls-2" d="m30.07,1.63c-.59-.5-1.37-.72-2.14-.59-1.05.17-1.89,1.01-2.13,2.06-.37-.1-.76-.13-1.15-.06-1.05.17-1.89,1.01-2.13,2.06-.37-.1-.76-.13-1.15-.06-1.26.2-2.2,1.36-2.2,2.69v4.7l-3.17,2.87-3.17-2.87v-4.7c0-1.33-.95-2.49-2.2-2.69-.39-.06-.78-.04-1.15.06-.24-1.05-1.08-1.89-2.13-2.06-.39-.06-.78-.04-1.15.06-.24-1.05-1.08-1.89-2.13-2.06-.77-.12-1.55.09-2.15.59s-.93,1.23-.93,2.01v11.48c0,1.5.66,2.91,1.82,3.86l5.4,4.44v.58c0,.55.45,1,1,1s1-.45,1-1v-1.05c0-.3-.13-.58-.36-.77l-5.76-4.74c-.69-.57-1.09-1.42-1.09-2.32V3.64c0-.19.08-.37.23-.49.08-.07.26-.19.53-.14.29.05.52.36.52.72v6.28c0,.55.45,1,1,1s1-.45,1-1v-4.37c0-.19.08-.37.23-.49.08-.07.26-.19.53-.14.29.05.52.36.52.72v5.23c-.42.23-.79.53-1.09.9l-.48.6c-.32.4-.29.99.08,1.35l4.31,4.16c.4.38,1.03.37,1.41-.02.38-.4.37-1.03-.02-1.41l-3.65-3.53c.28-.29.65-.47,1.05-.5.46-.03.89.11,1.23.42l4.27,3.86c.21.19.33.46.33.74v6.47c0,.55.45,1,1,1s1-.45,1-1v-6.47c0-.28.12-.55.33-.74l4.27-3.86c.34-.31.78-.45,1.23-.42.41.03.78.21,1.05.5l-3.65,3.53c-.4.38-.41,1.02-.02,1.41s1.02.41,1.41.02l4.31-4.16c.37-.36.41-.94.08-1.35l-.48-.6c-.3-.37-.68-.68-1.09-.9v-5.23c0-.35.23-.67.52-.72.26-.04.44.07.53.14.14.12.23.3.23.49v4.37c0,.55.45,1,1,1s1-.45,1-1V3.73c0-.35.23-.67.52-.72.26-.04.44.07.53.14.14.12.23.3.23.49v11.48c0,.9-.4,1.74-1.09,2.32l-5.76,4.74c-.23.19-.36.47-.36.77v1.05c0,.55.45,1,1,1s1-.45,1-1v-.58l5.4-4.44c1.16-.95,1.82-2.36,1.82-3.86V3.64c0-.78-.34-1.51-.93-2.01ZM9.55,10.52v-2.89c0-.19.08-.37.23-.49.08-.07.26-.19.53-.14.29.05.52.36.52.72v3.13c-.4-.19-.83-.3-1.28-.33Zm11.61.33v-3.13c0-.35.23-.67.52-.72.26-.04.44.07.53.14.14.12.23.3.23.49v2.89c-.45.03-.87.15-1.28.33Z"/>
  <path class="cls-1" d="m4,30v1h11.42v-4H7c-1.66,0-3,1.34-3,3Z"/>
  <path class="cls-1" d="m25,27h-8.42v4h11.42v-1c0-1.66-1.34-3-3-3Z"/>
</svg>