<?xml version="1.0" encoding="UTF-8"?>
<svg id="OBJECT" xmlns="http://www.w3.org/2000/svg" viewBox="0 0 32 32">
  <defs>
    <style>
      .cls-1 {
        fill: #FD4360;
      }

      .cls-1, .cls-2 {
        stroke-width: 0px;
      }

      .cls-2 {
        fill: #dadada;
      }
    </style>
  </defs>
  <g>
    <path class="cls-2" d="m10.73,4.73c0-.55-.45-1-1-1h-4.55c-.55,0-1,.45-1,1v4.54c0,.55.45,1,1,1h4.55c.55,0,1-.45,1-1v-4.54Zm-2,3.54h-2.55v-2.54h2.55v2.54Z"/>
    <path class="cls-2" d="m18.82,4.64h-5.46c-.55,0-1,.45-1,1s.45,1,1,1h5.46c.55,0,1-.45,1-1s-.45-1-1-1Z"/>
    <path class="cls-2" d="m18.82,7.36h-5.46c-.55,0-1,.45-1,1s.45,1,1,1h5.46c.55,0,1-.45,1-1s-.45-1-1-1Z"/>
    <path class="cls-2" d="m10.73,12.45c0-.55-.45-1-1-1h-4.55c-.55,0-1,.45-1,1v4.55c0,.55.45,1,1,1h4.55c.55,0,1-.45,1-1v-4.55Zm-2,3.55h-2.55v-2.55h2.55v2.55Z"/>
    <path class="cls-2" d="m18.82,12.36h-5.46c-.55,0-1,.45-1,1s.45,1,1,1h5.46c.55,0,1-.45,1-1s-.45-1-1-1Z"/>
    <path class="cls-2" d="m18.82,15.09h-5.46c-.55,0-1,.45-1,1s.45,1,1,1h5.46c.55,0,1-.45,1-1s-.45-1-1-1Z"/>
    <path class="cls-2" d="m9.73,19.18h-4.55c-.55,0-1,.45-1,1v4.55c0,.55.45,1,1,1h4.55c.55,0,1-.45,1-1v-4.55c0-.55-.45-1-1-1Zm-1,4.55h-2.55v-2.55h2.55v2.55Z"/>
    <path class="cls-2" d="m16,20.09h-2.64c-.55,0-1,.45-1,1s.45,1,1,1h2.64c.55,0,1-.45,1-1s-.45-1-1-1Z"/>
    <path class="cls-2" d="m16,22.82h-2.64c-.55,0-1,.45-1,1s.45,1,1,1h2.64c.55,0,1-.45,1-1s-.45-1-1-1Z"/>
    <path class="cls-2" d="m22,1H2c-.55,0-1,.45-1,1v25.45c0,.55.45,1,1,1h13.6c.55,0,1-.45,1-1s-.45-1-1-1H3V3h18v13.08c0,.55.45,1,1,1s1-.45,1-1V2c0-.55-.45-1-1-1Z"/>
  </g>
  <path class="cls-1" d="m24.57,18.14c-3.54,0-6.43,2.88-6.43,6.43s2.88,6.43,6.43,6.43,6.43-2.88,6.43-6.43-2.88-6.43-6.43-6.43Zm2.59,8.54c-.16.19-.39.3-.62.3-.18,0-.36-.06-.51-.18l-1.97-1.61c-.19-.15-.3-.38-.3-.62v-2.77c0-.44.36-.8.8-.8s.8.36.8.8v2.39l1.67,1.37c.34.28.39.79.11,1.13Z"/>
</svg>