<?xml version="1.0" encoding="UTF-8"?>
<svg id="OBJECT" xmlns="http://www.w3.org/2000/svg" viewBox="0 0 32 32">
  <defs>
    <style>
      .cls-1 {
        fill: #FD4360;
      }

      .cls-1, .cls-2 {
        stroke-width: 0px;
      }

      .cls-2 {
        fill: #dadada;
      }
    </style>
  </defs>
  <g>
    <path class="cls-2" d="m26,4h-1v-2c0-.55-.45-1-1-1s-1,.45-1,1v2h-2v-2c0-.55-.45-1-1-1s-1,.45-1,1v2h-9v-2c0-.55-.45-1-1-1s-1,.45-1,1v2h-2v-2c0-.55-.45-1-1-1s-1,.45-1,1v2h-2c-.55,0-1,.45-1,1v21c0,.55.45,1,1,1h12.68c.55,0,1-.45,1-1s-.45-1-1-1H3v-15h22v4.68c0,.55.45,1,1,1s1-.45,1-1V5c0-.55-.45-1-1-1ZM3,8v-2h22v2H3Z"/>
    <path class="cls-2" d="m6.94,11.79h-.94c-.55,0-1,.45-1,1s.45,1,1,1h.94c.55,0,1-.45,1-1s-.45-1-1-1Z"/>
    <path class="cls-2" d="m11.96,11.79h-.94c-.55,0-1,.45-1,1s.45,1,1,1h.94c.55,0,1-.45,1-1s-.45-1-1-1Z"/>
    <path class="cls-2" d="m16.98,11.79h-.94c-.55,0-1,.45-1,1s.45,1,1,1h.94c.55,0,1-.45,1-1s-.45-1-1-1Z"/>
    <path class="cls-2" d="m22,11.79h-.94c-.55,0-1,.45-1,1s.45,1,1,1h.94c.55,0,1-.45,1-1s-.45-1-1-1Z"/>
    <path class="cls-2" d="m6.94,16.5h-.94c-.55,0-1,.45-1,1s.45,1,1,1h.94c.55,0,1-.45,1-1s-.45-1-1-1Z"/>
    <path class="cls-2" d="m11.96,16.5h-.94c-.55,0-1,.45-1,1s.45,1,1,1h.94c.55,0,1-.45,1-1s-.45-1-1-1Z"/>
    <path class="cls-2" d="m6.94,21.21h-.94c-.55,0-1,.45-1,1s.45,1,1,1h.94c.55,0,1-.45,1-1s-.45-1-1-1Z"/>
    <path class="cls-2" d="m11.96,21.21h-.94c-.55,0-1,.45-1,1s.45,1,1,1h.94c.55,0,1-.45,1-1s-.45-1-1-1Z"/>
  </g>
  <path class="cls-1" d="m24,17c-3.86,0-7,3.14-7,7s3.14,7,7,7,7-3.14,7-7-3.14-7-7-7Zm2.71,9.71c-.2.2-.45.29-.71.29s-.51-.1-.71-.29l-2-2c-.19-.19-.29-.44-.29-.71v-3c0-.55.45-1,1-1s1,.45,1,1v2.59l1.71,1.71c.39.39.39,1.02,0,1.41Z"/>
</svg>