<?xml version="1.0" encoding="UTF-8"?>
<svg id="OBJECT" xmlns="http://www.w3.org/2000/svg" viewBox="0 0 32 32">
  <defs>
    <style>
      .cls-1 {
        fill: #FD4360;
      }

      .cls-1, .cls-2 {
        stroke-width: 0px;
      }

      .cls-2 {
        fill: #dadada;
      }
    </style>
  </defs>
  <g>
    <path class="cls-2" d="m8.5,20.5c-.55,0-1,.45-1,1v.5c0,.55.45,1,1,1s1-.45,1-1v-.5c0-.55-.45-1-1-1Z"/>
    <path class="cls-2" d="m27.5,1H3.5c-1.38,0-2.5,1.12-2.5,2.5v4.5c0,.55.45,1,1,1h.5v16.5c0,1.38,1.12,2.5,2.5,2.5h6c.55,0,1-.45,1-1s-.45-1-1-1h-6c-.28,0-.5-.22-.5-.5V9h3v9c0,.55.45,1,1,1s1-.45,1-1v-9h17v2c0,.55.45,1,1,1s1-.45,1-1v-2h.5c.55,0,1-.45,1-1V3.5c0-1.38-1.12-2.5-2.5-2.5ZM3,3.5c0-.28.22-.5.5-.5h24c.28,0,.5.22.5.5v3.5H3v-3.5Z"/>
  </g>
  <g>
    <path class="cls-1" d="m28,14h-11c-1.65,0-3,1.35-3,3v11c0,1.65,1.35,3,3,3h11c1.65,0,3-1.35,3-3v-11c0-1.65-1.35-3-3-3Zm-1.9,14h-7.2c-.55,0-1-.45-1-1s.45-1,1-1h7.2c.55,0,1,.45,1,1s-.45,1-1,1Zm1.89-9.85l-.9,6c-.07.49-.49.85-.99.85h-7.2c-.5,0-.92-.36-.99-.85l-.9-6c-.05-.36.09-.72.38-.94.29-.22.68-.27,1.01-.12l4.09,1.82,4.09-1.82c.33-.15.72-.1,1.01.12.29.22.44.58.38.94Z"/>
    <path class="cls-1" d="m22.09,20.91l-2.83-1.26.5,3.35h5.48l.5-3.35-2.83,1.26c-.26.12-.55.12-.81,0Z"/>
  </g>
</svg>