<?xml version="1.0" encoding="UTF-8"?>
<svg id="OBJECT" xmlns="http://www.w3.org/2000/svg" viewBox="0 0 32 32">
  <defs>
    <style>
      .cls-1 {
        fill: #FD4360;
      }

      .cls-1, .cls-2 {
        stroke-width: 0px;
      }

      .cls-2 {
        fill: #dadada;
      }
    </style>
  </defs>
  <path class="cls-1" d="m17.52,19.18c-.92,2.14-3.04,3.64-5.52,3.64s-4.6-1.5-5.52-3.64c-1.52,1.37-2.48,3.35-2.48,5.55v.78c0,1.38,1.12,2.5,2.5,2.5h11c1.38,0,2.5-1.12,2.5-2.5v-.78c0-2.2-.96-4.18-2.48-5.55Z"/>
  <path class="cls-1" d="m16,16.82v-2.28c0-1.79-1.45-3.24-3.24-3.24h-1.52c-1.79,0-3.24,1.45-3.24,3.24v2.28c0,2.21,1.79,4,4,4s4-1.79,4-4Z"/>
  <g>
    <path class="cls-2" d="m17,12.5c0,.55.45,1,1,1h6c.55,0,1-.45,1-1s-.45-1-1-1h-6c-.55,0-1,.45-1,1Z"/>
    <path class="cls-2" d="m21,9c0-.55-.45-1-1-1h-12c-.55,0-1,.45-1,1s.45,1,1,1h12c.55,0,1-.45,1-1Z"/>
    <path class="cls-2" d="m24,10c.55,0,1-.45,1-1s-.45-1-1-1h-1c-.55,0-1,.45-1,1s.45,1,1,1h1Z"/>
    <path class="cls-2" d="m19,15h-1c-.55,0-1,.45-1,1s.45,1,1,1h1c.55,0,1-.45,1-1s-.45-1-1-1Z"/>
    <path class="cls-2" d="m24,15h-2c-.55,0-1,.45-1,1s.45,1,1,1h2c.55,0,1-.45,1-1s-.45-1-1-1Z"/>
    <path class="cls-2" d="m30,19h-.5V6h.5c.55,0,1-.45,1-1s-.45-1-1-1H2c-.55,0-1,.45-1,1s.45,1,1,1h.5v13h-.5c-.55,0-1,.45-1,1s.45,1,1,1h1.5c.55,0,1-.45,1-1V6h23v13h-6.5c-.55,0-1,.45-1,1s.45,1,1,1h9c.55,0,1-.45,1-1s-.45-1-1-1Z"/>
  </g>
</svg>