<?xml version="1.0" encoding="UTF-8"?>
<svg id="OBJECT" xmlns="http://www.w3.org/2000/svg" viewBox="0 0 512 512">
  <defs>
    <style>
      .cls-1 {
        fill: #FD4360;
      }

      .cls-2 {
        fill: #dadada;
      }
    </style>
  </defs>
  <path class="cls-2" d="M337.5,120h-71.81l51.23-24.39c17.06-8.12,28.08-25.58,28.08-44.47v-1.88c0-27.16-22.1-49.26-49.26-49.26-17.17,0-32.82,8.71-41.86,23.3l-30.38,49c-3.37-1.48-7.09-2.3-11-2.3h-60c-3.91,0-7.63,.82-11,2.3l-30.38-49C102.08,8.71,86.43,0,69.26,0,42.1,0,20,22.1,20,49.26v1.88c0,18.89,11.02,36.35,28.08,44.47l51.23,24.39H27.5c-15.16,0-27.5,12.34-27.5,27.5v60c0,4.14,3.36,7.5,7.5,7.5h7.5v192.5c0,15.16,12.34,27.5,27.5,27.5h227c4.14,0,7.5-3.36,7.5-7.5s-3.36-7.5-7.5-7.5h-34.5V215h100v69.5c0,4.14,3.36,7.5,7.5,7.5s7.5-3.36,7.5-7.5v-69.5h7.5c4.14,0,7.5-3.36,7.5-7.5v-60c0-15.16-12.34-27.5-27.5-27.5ZM120,200v-65h125v65H120ZM266.63,31.21c6.29-10.15,17.18-16.21,29.12-16.21,18.89,0,34.26,15.37,34.26,34.26v1.88c0,13.14-7.67,25.28-19.53,30.93l-70.47,33.56v-18.12c0-5.77-1.79-11.13-4.84-15.55l31.46-50.74Zm-54.13,53.79c6.89,0,12.5,5.61,12.5,12.5v22.5h-85v-22.5c0-6.89,5.61-12.5,12.5-12.5h60ZM35,51.13v-1.88c0-18.89,15.37-34.26,34.26-34.26,11.94,0,22.82,6.06,29.12,16.21l31.46,50.74c-3.05,4.43-4.84,9.78-4.84,15.55v18.12L54.53,82.06c-11.86-5.65-19.53-17.79-19.53-30.93ZM15,147.5c0-6.89,5.61-12.5,12.5-12.5H105v65H15v-52.5Zm15,260V215h100v205H42.5c-6.89,0-12.5-5.61-12.5-12.5Zm190,12.5h-75V215h75v205Zm130-220h-90v-65h77.5c6.89,0,12.5,5.61,12.5,12.5v52.5Z"/>
  <g>
    <path class="cls-1" d="M489.5,307h-190c-12.41,0-22.5,10.09-22.5,22.5v27.5h235v-27.5c0-12.41-10.09-22.5-22.5-22.5Z"/>
    <path class="cls-1" d="M292,489.5c0,12.41,10.09,22.5,22.5,22.5h160c12.41,0,22.5-10.09,22.5-22.5v-117.5h-205v117.5Zm62.5-62.5h80c12.41,0,22.5,10.09,22.5,22.5s-10.09,22.5-22.5,22.5h-80c-12.41,0-22.5-10.09-22.5-22.5s10.09-22.5,22.5-22.5Z"/>
    <path class="cls-1" d="M354.5,457h80c4.14,0,7.5-3.36,7.5-7.5s-3.36-7.5-7.5-7.5h-80c-4.14,0-7.5,3.36-7.5,7.5s3.36,7.5,7.5,7.5Z"/>
  </g>
</svg>