<?xml version="1.0" encoding="UTF-8"?>
<svg id="OBJECT" xmlns="http://www.w3.org/2000/svg" viewBox="0 0 32 32">
  <defs>
    <style>
      .cls-1 {
        fill: #FD4360;
      }

      .cls-1, .cls-2 {
        stroke-width: 0px;
      }

      .cls-2 {
        fill: #dadada;
      }
    </style>
  </defs>
  <path class="cls-2" d="m28.5,19c-.55,0-1,.45-1,1v8c0,.55-.45,1-1,1h-6v-9c0-.55-.45-1-1-1s-1,.45-1,1v9h-5v-9c0-.55-.45-1-1-1s-1,.45-1,1v9h-6c-.55,0-1-.45-1-1v-8c0-.55-.45-1-1-1s-1,.45-1,1v8c0,1.65,1.35,3,3,3h21c1.65,0,3-1.35,3-3v-8c0-.55-.45-1-1-1Z"/>
  <g>
    <path class="cls-1" d="m1,12v5h8v-7H3c-1.1,0-2,.9-2,2Z"/>
    <rect class="cls-1" x="11" y="10" width="10" height="7"/>
    <path class="cls-1" d="m29,10h-6v7h8v-5c0-1.1-.9-2-2-2Z"/>
    <path class="cls-1" d="m22.82,8h2.08c.07-.32.1-.66.1-1v-1c0-2.76-2.24-5-5-5-1.64,0-3.09.81-4,2.03-.91-1.23-2.36-2.03-4-2.03-2.76,0-5,2.24-5,5v1c0,.34.04.68.1,1h2.08c-.11-.31-.18-.65-.18-1v-1c0-1.65,1.35-3,3-3s3,1.35,3,3v2h2v-2c0-1.65,1.35-3,3-3s3,1.35,3,3v1c0,.35-.07.69-.18,1Z"/>
  </g>
</svg>