<?xml version="1.0" encoding="UTF-8"?>
<svg id="OBJECT" xmlns="http://www.w3.org/2000/svg" viewBox="0 0 32 32">
  <defs>
    <style>
      .cls-1 {
        fill: #FD4360;
      }

      .cls-2 {
        fill: #dadada;
      }
    </style>
  </defs>
  <g>
    <path class="cls-2" d="m28.5,6c-.55,0-1,.45-1,1v16.5c0,.28-.22.5-.5.5H5c-.28,0-.5-.22-.5-.5V7c0-.55-.45-1-1-1s-1,.45-1,1v16.5c0,1.38,1.12,2.5,2.5,2.5h10v3h-1c-.55,0-1,.45-1,1s.45,1,1,1h4c.55,0,1-.45,1-1s-.45-1-1-1h-1v-3h10c1.38,0,2.5-1.12,2.5-2.5V7c0-.55-.45-1-1-1Z"/>
    <path class="cls-2" d="m13.25,22.75h12c.55,0,1-.45,1-1s-.45-1-1-1h-.5v-11c0-.55-.45-1-1-1s-1,.45-1,1v11h-2.5v-8c0-.55-.45-1-1-1s-1,.45-1,1v8h-2.5v-5c0-.55-.45-1-1-1s-1,.45-1,1v5h-.5c-.55,0-1,.45-1,1s.45,1,1,1Z"/>
    <path class="cls-2" d="m9.75,15.75h-3c-.55,0-1,.45-1,1s.45,1,1,1h1.25v.5c0,.55.45,1,1,1s1-.45,1-1v-.53c1.26-.13,2.25-1.18,2.25-2.47,0-1.38-1.12-2.5-2.5-2.5h-1.5c-.28,0-.5-.22-.5-.5s.22-.5.5-.5h3c.55,0,1-.45,1-1s-.45-1-1-1h-1.25v-.5c0-.55-.45-1-1-1s-1,.45-1,1v.53c-1.26.13-2.25,1.18-2.25,2.47,0,1.38,1.12,2.5,2.5,2.5h1.5c.28,0,.5.22.5.5s-.22.5-.5.5Z"/>
  </g>
  <path class="cls-1" d="m30,1H2c-.55,0-1,.45-1,1v3h30v-3c0-.55-.45-1-1-1Z"/>
</svg>