<?xml version="1.0" encoding="UTF-8"?>
<svg id="OBJECT" xmlns="http://www.w3.org/2000/svg" viewBox="0 0 32 32">
  <defs>
    <style>
      .cls-1 {
        fill: #FD4360;
      }

      .cls-1, .cls-2 {
        stroke-width: 0px;
      }

      .cls-2 {
        fill: #dadada;
      }
    </style>
  </defs>
  <g>
    <path class="cls-2" d="m27,5.02c-.55,0-1,.45-1,1v19.11H6V6.02c0-.55-.45-1-1-1s-1,.45-1,1v20.11c0,.55.45,1,1,1h10v1.92c-.43.11-.75.49-.75.95,0,.55.45,1,1,1h1.5c.55,0,1-.45,1-1,0-.46-.32-.84-.75-.95v-1.92h10c.55,0,1-.45,1-1V6.02c0-.55-.45-1-1-1Z"/>
    <path class="cls-2" d="m9,24.13c.55,0,1-.45,1-1v-10.47c0-.55-.45-1-1-1s-1,.45-1,1v10.47c0,.55.45,1,1,1Z"/>
    <path class="cls-2" d="m14,24.13c.55,0,1-.45,1-1v-5.47c0-.55-.45-1-1-1s-1,.45-1,1v5.47c0,.55.45,1,1,1Z"/>
    <path class="cls-2" d="m19,24.13c.55,0,1-.45,1-1v-2.47c0-.55-.45-1-1-1s-1,.45-1,1v2.47c0,.55.45,1,1,1Z"/>
    <path class="cls-2" d="m21.67,14.69h-2.67c-.55,0-1,.45-1,1s.45,1,1,1h1v.33c0,.55.45,1,1,1s1-.45,1-1v-.37c1.13-.16,2-1.13,2-2.3,0-1.29-1.05-2.33-2.33-2.33h-1.33c-.18,0-.33-.15-.33-.33s.15-.33.33-.33h2.67c.55,0,1-.45,1-1s-.45-1-1-1h-1v-.33c0-.55-.45-1-1-1s-1,.45-1,1v.37c-1.13.16-2,1.13-2,2.3,0,1.29,1.05,2.33,2.33,2.33h1.33c.18,0,.33.15.33.33s-.15.33-.33.33Z"/>
  </g>
  <path class="cls-1" d="m29.45,1H2.55c-.86,0-1.55.68-1.55,1.53s.7,1.53,1.55,1.53h26.9c.86,0,1.55-.68,1.55-1.53s-.7-1.53-1.55-1.53Z"/>
</svg>