<?xml version="1.0" encoding="UTF-8"?>
<svg id="OBJECT" xmlns="http://www.w3.org/2000/svg" viewBox="0 0 32 32">
  <defs>
    <style>
      .cls-1 {
        fill: #FD4360;
      }

      .cls-1, .cls-2 {
        stroke-width: 0px;
      }

      .cls-2 {
        fill: #dadada;
      }
    </style>
  </defs>
  <g>
    <path class="cls-2" d="m16.75,8.25h-7c-.55,0-1,.45-1,1s.45,1,1,1h7c.55,0,1-.45,1-1s-.45-1-1-1Z"/>
    <path class="cls-2" d="m12.75,12.25h-3c-.55,0-1,.45-1,1s.45,1,1,1h3c.55,0,1-.45,1-1s-.45-1-1-1Z"/>
    <path class="cls-2" d="m20.25,12.75c-.55,0-1,.45-1,1v7h-2v-3c0-.55-.45-1-1-1s-1,.45-1,1v3c-.55,0-1,.45-1,1s.45,1,1,1h10c.55,0,1-.45,1-1s-.45-1-1-1v-11c0-.55-.45-1-1-1s-1,.45-1,1v11h-2v-7c0-.55-.45-1-1-1Z"/>
    <path class="cls-2" d="m28.5,1H6.5c-1.38,0-2.5,1.12-2.5,2.5v2.5c0,.55.45,1,1,1h1v7c0,.55.45,1,1,1s1-.45,1-1v-7h19v17h-12.1c-.55,0-1,.45-1,1s.45,1,1,1h1.6v4c0,.55.45,1,1,1s1-.45,1-1v-4h9.5c.55,0,1-.45,1-1V7h1c.55,0,1-.45,1-1v-2.5c0-1.38-1.12-2.5-2.5-2.5Zm.5,4H6v-1.5c0-.28.22-.5.5-.5h22c.28,0,.5.22.5.5v1.5Z"/>
  </g>
  <g>
    <path class="cls-1" d="m12.02,22.73c-.86,1.92-2.78,3.27-5.02,3.27s-4.17-1.35-5.02-3.27c-.62.94-.98,2.06-.98,3.27v2c0,1.65,1.35,3,3,3h6c1.65,0,3-1.35,3-3v-2c0-1.21-.36-2.33-.98-3.27Z"/>
    <path class="cls-1" d="m7,24c1.93,0,3.5-1.57,3.5-3.5v-1.5c0-1.65-1.35-3-3-3h-1c-1.65,0-3,1.35-3,3v1.5c0,1.93,1.57,3.5,3.5,3.5Z"/>
  </g>
</svg>