<?xml version="1.0" encoding="UTF-8"?>
<svg id="OBJECT" xmlns="http://www.w3.org/2000/svg" viewBox="0 0 32 32">
  <defs>
    <style>
      .cls-1 {
        fill: #FD4360;
      }

      .cls-2 {
        fill: #dadada;
      }
    </style>
  </defs>
  <g>
    <path class="cls-2" d="M15.3,22.5c.55,0,1-.45,1-1s-.45-1-1-1h-.3c-.55,0-1,.45-1,1s.45,1,1,1h.3Z"/>
    <path class="cls-2" d="M22,19v.5c0,.55-.45,1-1,1h-2.48c-.55,0-1,.45-1,1s.45,1,1,1h2.48c1.65,0,3-1.35,3-3v-.5c0-1.65-1.35-3-3-3H13c-.55,0-1-.45-1-1v-1.5c0-.55,.45-1,1-1h8.59l-.79,.79c-.39,.39-.39,1.02,0,1.41,.2,.2,.45,.29,.71,.29s.51-.1,.71-.29l2.5-2.5c.39-.39,.39-1.02,0-1.41l-2.5-2.5c-.39-.39-1.02-.39-1.41,0s-.39,1.02,0,1.41l.79,.79H13c-1.65,0-3,1.35-3,3v1.5c0,1.65,1.35,3,3,3h8c.55,0,1,.45,1,1Z"/>
    <path class="cls-2" d="M28.5,1H6.5c-1.38,0-2.5,1.12-2.5,2.5v2c0,.55,.45,1,1,1h1V15c0,.55,.45,1,1,1s1-.45,1-1V6.5H27V23.5c0,.28-.22,.5-.5,.5H15.58c-.55,0-1,.45-1,1s.45,1,1,1h.92v3h-1c-.55,0-1,.45-1,1s.45,1,1,1h4c.55,0,1-.45,1-1s-.45-1-1-1h-1v-3h8c1.38,0,2.5-1.12,2.5-2.5V6.5h1c.55,0,1-.45,1-1V3.5c0-1.38-1.12-2.5-2.5-2.5Zm.5,3.5H6v-1c0-.28,.22-.5,.5-.5H28.5c.28,0,.5,.22,.5,.5v1Z"/>
  </g>
  <g>
    <path class="cls-1" d="M11.46,23.01c-.82,1.65-2.5,2.79-4.46,2.79s-3.65-1.15-4.46-2.79c-.95,1.06-1.54,2.46-1.54,3.99v1.5c0,1.38,1.12,2.5,2.5,2.5h7c1.38,0,2.5-1.12,2.5-2.5v-1.5c0-1.53-.58-2.93-1.54-3.99Z"/>
    <path class="cls-1" d="M7,23.8c1.65,0,3-1.35,3-3v-1.2c0-1.43-1.17-2.6-2.6-2.6h-.8c-1.43,0-2.6,1.17-2.6,2.6v1.2c0,1.65,1.35,3,3,3Z"/>
  </g>
</svg>