<?xml version="1.0" encoding="UTF-8"?>
<svg id="OBJECT" xmlns="http://www.w3.org/2000/svg" viewBox="0 0 32 32">
  <defs>
    <style>
      .cls-1 {
        fill: #FD4360;
      }

      .cls-2 {
        fill: #dadada;
      }
    </style>
  </defs>
  <path class="cls-2" d="m28.5,7.5h-2c-1.38,0-2.5,1.12-2.5,2.5v7H8v-7c0-1.38-1.12-2.5-2.5-2.5h-2c-1.38,0-2.5,1.12-2.5,2.5v1c0,1.38,1.12,2.5,2.5,2.5h2.5v6.5c0,1.65,1.35,3,3,3h4.5v3h-1.5c-.43,0-.81.28-.95.68l-.77,2.32h-1.28c-.55,0-1,.45-1,1s.45,1,1,1h2c.43,0,.81-.28.95-.68l.77-2.32h2.28v2c0,.55.45,1,1,1s1-.45,1-1v-2h2.28l.77,2.32c.14.41.52.68.95.68h2c.55,0,1-.45,1-1s-.45-1-1-1h-1.28l-.77-2.32c-.14-.41-.52-.68-.95-.68h-1.5v-3h4.5c1.65,0,3-1.35,3-3v-6.5h2.5c1.38,0,2.5-1.12,2.5-2.5v-1c0-1.38-1.12-2.5-2.5-2.5ZM3,11v-1c0-.28.22-.5.5-.5h2c.28,0,.5.22.5.5v1.5h-2.5c-.28,0-.5-.22-.5-.5Zm13.5,15h-1v-3h1v3Zm7.5-6c0,.55-.45,1-1,1h-14c-.55,0-1-.45-1-1v-1h16v1Zm5-9c0,.28-.22.5-.5.5h-2.5v-1.5c0-.28.22-.5.5-.5h2c.28,0,.5.22.5.5v1Z"/>
  <path class="cls-1" d="m11.5,13h.5v2h2v-2h4v2h2v-2h.5c1.1,0,2-.9,2-2V3c0-1.1-.9-2-2-2h-9c-1.1,0-2,.9-2,2v8c0,1.1.9,2,2,2Zm3-9h3c.55,0,1,.45,1,1s-.45,1-1,1h-3c-.55,0-1-.45-1-1s.45-1,1-1Zm0,4h3c.55,0,1,.45,1,1s-.45,1-1,1h-3c-.55,0-1-.45-1-1s.45-1,1-1Z"/>
</svg>