<?xml version="1.0" encoding="UTF-8"?>
<svg id="OBJECT" xmlns="http://www.w3.org/2000/svg" viewBox="0 0 32 32">
  <defs>
    <style>
      .cls-1 {
        fill: #FD4360;
      }

      .cls-1, .cls-2 {
        stroke-width: 0px;
      }

      .cls-2 {
        fill: #dadada;
      }
    </style>
  </defs>
  <g>
    <path class="cls-2" d="m30.71,1.29c-.39-.39-1.02-.39-1.41,0l-4.08,4.08c-1.13-1.13-3.11-1.13-4.24,0-.38.38-1,.5-1.46.35l-2.7-.91c-1.08-.36-2.26-.08-3.07.73L5,14.27c-.39.39-.39,1.02,0,1.41s1.02.39,1.41,0L15.15,6.96c.27-.27.67-.37,1.02-.25l2.71.91c1.22.39,2.6.07,3.5-.83.38-.38,1.04-.38,1.41,0l-2.8,2.8-.29-.29c-.39-.39-1.02-.39-1.41,0s-.39,1.02,0,1.41l2,2c.2.2.45.29.71.29s.51-.1.71-.29c.39-.39.39-1.02,0-1.41l-.29-.29,2.8-2.8c.19.19.29.44.29.71s-.1.52-.29.71c-.92.92-1.24,2.27-.83,3.52l.91,2.7c.12.36.02.75-.25,1.03l-8.73,8.73c-.39.39-.39,1.02,0,1.41.2.2.45.29.71.29s.51-.1.71-.29l8.73-8.73c.81-.81,1.09-1.99.73-3.08l-.91-2.69c-.17-.52-.04-1.08.35-1.47.57-.57.88-1.32.88-2.12s-.31-1.55-.88-2.12l4.08-4.08c.39-.39.39-1.02,0-1.41Z"/>
    <path class="cls-2" d="m19.99,16.23c-.08-.55-.59-.92-1.14-.84l-8,1.23c-.55.08-.92.59-.84,1.14.08.49.5.85.99.85.05,0,.1,0,.15-.01l8-1.23c.55-.08.92-.59.84-1.14Z"/>
    <path class="cls-2" d="m16.28,19.95c-.39-.39-1.02-.39-1.41,0l-.38.38c-.39.39-.39,1.02,0,1.41.2.2.45.29.71.29s.51-.1.71-.29l.38-.38c.39-.39.39-1.02,0-1.41Z"/>
    <path class="cls-2" d="m15.13,14.05l.38-.38c.39-.39.39-1.02,0-1.41s-1.02-.39-1.41,0l-.38.38c-.39.39-.39,1.02,0,1.41.2.2.45.29.71.29s.51-.1.71-.29Z"/>
  </g>
  <path class="cls-1" d="m1.88,17.39c-.57.57-.88,1.32-.88,2.12s.31,1.55.88,2.12l8.49,8.49c.58.58,1.35.88,2.12.88s1.54-.29,2.12-.88l1.42-1.42L3.29,15.98l-1.41,1.41Z"/>
</svg>