<?xml version="1.0" encoding="UTF-8"?>
<svg id="OBJECT" xmlns="http://www.w3.org/2000/svg" viewBox="0 0 32 32">
  <defs>
    <style>
      .cls-1 {
        fill: #FD4360;
      }

      .cls-1, .cls-2 {
        stroke-width: 0px;
      }

      .cls-2 {
        fill: #dadada;
      }
    </style>
  </defs>
  <g>
    <path class="cls-2" d="m27.38,13.84L16.33,2.8c-.77-.79-1.99-1.01-3.03-.55l-3.83,1.74c-.05-.11-.11-.21-.2-.3l-1.94-1.94c-1.01-1.01-2.64-1.01-3.65,0l-1.94,1.94c-1,1-1,2.64,0,3.65l2.21,2.21-1.71,3.77c-.46,1.03-.24,2.25.55,3.01l11.05,11.05c.2.2.45.29.71.29s.51-.1.71-.29c.39-.39.39-1.02,0-1.41L4.2,14.91c-.2-.19-.25-.51-.13-.77l1.4-3.08.91.91c.5.5,1.16.75,1.82.75s1.32-.25,1.82-.75l1.54-1.54c.39-.39.39-1.02,0-1.41s-1.02-.39-1.41,0l-1.54,1.54c-.22.22-.59.23-.82,0l-1.44-1.44.86-1.89,6.91-3.14c.27-.12.59-.07.79.13l11.05,11.05c.39.39,1.02.39,1.41,0s.39-1.02,0-1.41ZM6.04,5.55c-.22.1-.4.28-.5.5l-.71,1.55-1.68-1.68c-.23-.23-.23-.59,0-.82l1.94-1.94c.23-.22.59-.22.82,0l1.68,1.68-1.55.71Z"/>
    <path class="cls-2" d="m16.39,10.85c-.55,0-1,.45-1,1v9.09c0,.55.45,1,1,1s1-.45,1-1v-9.09c0-.55-.45-1-1-1Z"/>
    <path class="cls-2" d="m11.14,15.69c-.39.39-.39,1.02,0,1.42l.76.76c.2.2.45.29.71.29s.51-.1.71-.29c.39-.39.39-1.02,0-1.42l-.76-.76c-.39-.39-1.02-.39-1.42,0Z"/>
    <path class="cls-2" d="m20.89,14.93c-.39-.39-1.02-.39-1.42,0-.39.39-.39,1.02,0,1.42l.76.76c.2.2.45.29.71.29s.51-.1.71-.29c.39-.39.39-1.02,0-1.42l-.76-.76Z"/>
  </g>
  <path class="cls-1" d="m30.21,16.68l-1.12-1.12-13.54,13.54,1.12,1.12c.51.51,1.19.79,1.91.79s1.4-.28,1.91-.79l9.72-9.72c.51-.51.79-1.19.79-1.91s-.28-1.4-.79-1.91Z"/>
</svg>