<?xml version="1.0" encoding="UTF-8"?>
<svg id="OBJECT" xmlns="http://www.w3.org/2000/svg" viewBox="0 0 512 512">
  <defs>
    <style>
      .cls-1 {
        fill: #FD4360;
      }

      .cls-2 {
        fill: #dadada;
      }
    </style>
  </defs>
  <path class="cls-2" d="M338.18,152.64l-87.02-69.61c-3.67-2.94-8.06-4.87-12.66-5.65V27.5c0-15.16-12.34-27.5-27.5-27.5s-27.5,12.34-27.5,27.5v49.88c-4.61,.77-8.99,2.71-12.66,5.65l-87.02,69.61c-6.56,5.25-10.32,13.08-10.32,21.47V484.5c0,15.16,12.34,27.5,27.5,27.5h220c15.16,0,27.5-12.34,27.5-27.5V174.11c0-8.4-3.76-16.23-10.32-21.47ZM211,15c6.89,0,12.5,5.61,12.5,12.5v49.5h-25V27.5c0-6.89,5.61-12.5,12.5-12.5ZM93.19,164.35l87.02-69.61c1-.8,2.11-1.42,3.29-1.88v74.64c0,15.16,12.34,27.5,27.5,27.5h20c4.14,0,7.5-3.36,7.5-7.5s-3.36-7.5-7.5-7.5h-20c-6.89,0-12.5-5.61-12.5-12.5V92h35.48c2.83,0,5.6,.97,7.81,2.74l87.02,69.61c2.98,2.39,4.69,5.94,4.69,9.76V437H88.5V174.11c0-3.82,1.71-7.38,4.69-9.76Zm227.81,332.65H101c-6.89,0-12.5-5.61-12.5-12.5v-32.5h245v32.5c0,6.89-5.61,12.5-12.5,12.5Z"/>
  <g>
    <path class="cls-1" d="M372.51,192.74c-1.43-5.35-4.63-9.93-9.01-13.09v234.81l63.84-17.11-54.83-204.62Z"/>
    <path class="cls-1" d="M437.68,435.94l-6.46-24.1-67.72,18.15v50.39l57.41-15.38c6.12-1.64,11.24-5.57,14.41-11.05,3.17-5.49,4.01-11.88,2.37-18Z"/>
    <path class="cls-1" d="M225.15,307h-28.31c-10.12,0-18.35-8.6-18.35-19.17s8.23-19.17,18.35-19.17h46.15c4.14,0,7.5-3.36,7.5-7.5s-3.36-7.5-7.5-7.5h-7.83v-19.17c0-4.14-3.36-7.5-7.5-7.5s-7.5,3.36-7.5,7.5v19.17h-18.33v-19.17c0-4.14-3.36-7.5-7.5-7.5s-7.5,3.36-7.5,7.5v20.74c-13.51,4.37-23.33,17.32-23.33,32.59,0,18.84,14.96,34.17,33.35,34.17h28.31c10.12,0,18.35,8.6,18.35,19.17s-8.23,19.17-18.35,19.17h-46.15c-4.14,0-7.5,3.36-7.5,7.5s3.36,7.5,7.5,7.5h7.83v19.17c0,4.14,3.36,7.5,7.5,7.5s7.5-3.36,7.5-7.5v-19.17h18.33v19.17c0,4.14,3.36,7.5,7.5,7.5s7.5-3.36,7.5-7.5v-20.74c13.51-4.37,23.33-17.32,23.33-32.59,0-18.84-14.96-34.17-33.35-34.17Z"/>
    <path class="cls-1" d="M301,307h-10c-4.14,0-7.5,3.36-7.5,7.5s3.36,7.5,7.5,7.5h10c4.14,0,7.5-3.36,7.5-7.5s-3.36-7.5-7.5-7.5Z"/>
    <path class="cls-1" d="M131,307h-10c-4.14,0-7.5,3.36-7.5,7.5s3.36,7.5,7.5,7.5h10c4.14,0,7.5-3.36,7.5-7.5s-3.36-7.5-7.5-7.5Z"/>
  </g>
</svg>