<?xml version="1.0" encoding="UTF-8"?>
<svg id="OBJECT" xmlns="http://www.w3.org/2000/svg" viewBox="0 0 32 32">
  <defs>
    <style>
      .cls-1 {
        fill: #FD4360;
      }

      .cls-1, .cls-2 {
        stroke-width: 0px;
      }

      .cls-2 {
        fill: #dadada;
      }
    </style>
  </defs>
  <path class="cls-1" d="m21.71,20.3l-.64-.64c1.09-1.13,1.09-2.94-.03-4.06s-2.97-1.13-4.1,0l-1.34,1.34c-.35.35-.92.35-1.27,0-.35-.35-.35-.92,0-1.27l2.69-2.69c.39-.39.39-1.02,0-1.41-.39-.39-1.02-.39-1.41,0l-1.31,1.31-.64-.64c-.39-.39-1.02-.39-1.41,0s-.39,1.02,0,1.41l.64.64c-1.1,1.13-1.09,2.94.03,4.06s2.97,1.13,4.1,0l1.34-1.34c.34-.34.93-.34,1.27,0,.17.17.26.4.26.64s-.09.47-.26.64l-2.69,2.69c-.39.39-.39,1.02,0,1.41.2.2.45.29.71.29s.51-.1.71-.29l1.31-1.31.64.64c.2.2.45.29.71.29s.51-.1.71-.29c.39-.39.39-1.02,0-1.41Z"/>
  <path class="cls-2" d="m30.12,16.49L15.94,2.31c-.87-.86-2.18-1.12-3.28-.63l-3.72,1.65-1.47-1.47c-1.13-1.13-2.97-1.13-4.1,0l-1.51,1.51c-.55.55-.85,1.28-.85,2.05s.3,1.5.85,2.05l1.47,1.47-1.65,3.72c-.49,1.1-.23,2.42.63,3.28l14.18,14.18c.55.55,1.29.87,2.06.88.02,0,.03,0,.05,0,.77,0,1.49-.3,2.03-.84l9.53-9.53c1.13-1.13,1.11-2.99-.04-4.14ZM3.26,6.05c-.17-.17-.26-.4-.26-.64s.09-.47.26-.64l1.51-1.51c.34-.34.93-.34,1.27,0l.93.93-.93.41c-.65.29-1.17.8-1.45,1.45l-.41.92-.93-.93Zm25.49,13.17l-9.53,9.53c-.17.17-.41.26-.63.25-.25,0-.5-.11-.68-.29L3.72,14.52c-.28-.28-.37-.71-.22-1.06l1.33-3.01,1.24,1.24c.57.57,1.31.85,2.05.85s1.49-.28,2.05-.85l1.33-1.33c.39-.39.39-1.02,0-1.41s-1.02-.39-1.41,0l-1.33,1.33c-.34.34-.93.34-1.27,0l-1.78-1.78.72-1.63c.08-.19.24-.35.43-.43l6.61-2.92c.11-.05.24-.08.36-.08.25,0,.51.1.7.29l14.18,14.18c.37.37.39.96.04,1.32Z"/>
</svg>