<?xml version="1.0" encoding="UTF-8"?>
<svg id="OBJECT" xmlns="http://www.w3.org/2000/svg" viewBox="0 0 32 32">
  <defs>
    <style>
      .cls-1 {
        fill: #FD4360;
      }

      .cls-1, .cls-2 {
        stroke-width: 0px;
      }

      .cls-2 {
        fill: #dadada;
      }
    </style>
  </defs>
  <g>
    <path class="cls-2" d="m20.05,7.58l-3.55-1.33v-2.24c0-1.65-1.35-3-3-3h-1c-1.65,0-3,1.35-3,3v2.24l-3.55,1.33c-1.16.44-1.95,1.57-1.95,2.81v17.61c0,1.65,1.35,3,3,3h12c1.65,0,3-1.35,3-3V10.39c0-1.24-.78-2.37-1.95-2.81Zm-8.55-3.58c0-.55.45-1,1-1h1c.55,0,1,.45,1,1v1.49l-1.15-.43c-.23-.08-.48-.08-.7,0l-1.15.43v-1.49Zm8.5,24c0,.55-.45,1-1,1H7c-.55,0-1-.45-1-1V10.39c0-.41.26-.79.65-.94l2.85-1.07v1.62c0,1.65,1.35,3,3,3h2c.55,0,1-.45,1-1s-.45-1-1-1h-2c-.55,0-1-.45-1-1v-2.37l1.5-.56,6.35,2.38c.39.15.65.52.65.94v17.61Z"/>
    <path class="cls-2" d="m12.17,18.17h3.33c.55,0,1-.45,1-1s-.45-1-1-1h-1.5v-.67c0-.55-.45-1-1-1s-1,.45-1,1v.68c-1.39.09-2.5,1.24-2.5,2.65s1.2,2.67,2.67,2.67h1.67c.37,0,.67.3.67.67s-.3.67-.67.67h-3.33c-.55,0-1,.45-1,1s.45,1,1,1h1.5v.67c0,.55.45,1,1,1s1-.45,1-1v-.68c1.39-.09,2.5-1.24,2.5-2.65s-1.2-2.67-2.67-2.67h-1.67c-.37,0-.67-.3-.67-.67s.3-.67.67-.67Z"/>
  </g>
  <g>
    <path class="cls-1" d="m24.61,11.82c-.12-.43-.33-.83-.61-1.16v10.3l2.87-.7-2.26-8.45Z"/>
    <path class="cls-1" d="m27.9,24.09l-.5-1.88-3.39.82v4.97c0,.08-.02.16-.02.24l1.8-.48h0c.77-.21,1.42-.7,1.82-1.4.4-.69.51-1.5.3-2.28Z"/>
  </g>
</svg>