<?xml version="1.0" encoding="UTF-8"?>
<svg id="OBJECT" xmlns="http://www.w3.org/2000/svg" viewBox="0 0 32 32">
  <defs>
    <style>
      .cls-1 {
        fill: #FD4360;
      }

      .cls-1, .cls-2 {
        stroke-width: 0px;
      }

      .cls-2 {
        fill: #dadada;
      }
    </style>
  </defs>
  <path class="cls-2" d="m20.34,9.55l-3.84-1.92v-3.63c0-1.65-1.35-3-3-3h-1c-1.65,0-3,1.35-3,3v3.63l-3.84,1.92c-1.02.51-1.66,1.54-1.66,2.68v15.76c0,1.65,1.35,3,3,3h12c1.65,0,3-1.35,3-3v-15.76c0-1.14-.64-2.17-1.66-2.68Zm-8.84-5.55c0-.55.45-1,1-1h1c.55,0,1,.45,1,1v2.63l-1.05-.53c-.28-.14-.61-.14-.89,0l-1.05.53v-2.63Zm8.5,24c0,.55-.45,1-1,1H7c-.55,0-1-.45-1-1v-15.76c0-.38.21-.72.55-.89l2.95-1.47v.13c0,1.65,1.35,3,3,3h1c.55,0,1-.45,1-1s-.45-1-1-1h-1c-.55,0-1-.45-1-1v-1.13l1.5-.75,6.45,3.22c.34.17.55.51.55.89v15.76Z"/>
  <g>
    <path class="cls-1" d="m27.65,22.23l-3.65-6.32v11.45l2.69-1.55c.61-.35,1.04-.91,1.22-1.59.18-.68.09-1.38-.26-1.99Z"/>
    <path class="cls-1" d="m12.17,18.67h3.33c.55,0,1-.45,1-1s-.45-1-1-1h-1.5v-.67c0-.55-.45-1-1-1s-1,.45-1,1v.68c-1.39.09-2.5,1.24-2.5,2.65s1.2,2.67,2.67,2.67h1.67c.37,0,.67.3.67.67s-.3.67-.67.67h-3.33c-.55,0-1,.45-1,1s.45,1,1,1h1.5v.67c0,.55.45,1,1,1s1-.45,1-1v-.68c1.39-.09,2.5-1.24,2.5-2.65s-1.2-2.67-2.67-2.67h-1.67c-.37,0-.67-.3-.67-.67s.3-.67.67-.67Z"/>
  </g>
</svg>