<?xml version="1.0" encoding="UTF-8"?>
<svg id="OBJECT" xmlns="http://www.w3.org/2000/svg" viewBox="0 0 32 32">
  <defs>
    <style>
      .cls-1 {
        fill: #FD4360;
      }

      .cls-1, .cls-2 {
        stroke-width: 0px;
      }

      .cls-2 {
        fill: #dadada;
      }
    </style>
  </defs>
  <g>
    <path class="cls-2" d="m20.05,8.58l-3.05-1.15v-3.43c0-1.65-1.35-3-3-3h-2c-1.65,0-3,1.35-3,3v3.43l-3.05,1.14c-1.17.44-1.95,1.56-1.95,2.81v16.61c0,1.65,1.35,3,3,3h12c1.65,0,3-1.35,3-3V11.39c0-1.24-.78-2.37-1.95-2.81Zm-9.05-4.58c0-.55.45-1,1-1h2c.55,0,1,.45,1,1v2.68l-.95-.35c-.68-.25-1.43-.25-2.11,0l-.95.36v-2.68Zm9,24c0,.55-.45,1-1,1H7c-.55,0-1-.45-1-1V11.39c0-.41.26-.79.65-.94l2.35-.88v.43c0,1.65,1.35,3,3,3h2c.55,0,1-.45,1-1s-.45-1-1-1h-2c-.55,0-1-.45-1-1v-1.18l1.65-.62c.11-.04.23-.06.35-.06s.24.02.35.06l6,2.25c.39.15.65.52.65.94v16.61Z"/>
    <path class="cls-2" d="m12.17,18.67h3.33c.55,0,1-.45,1-1s-.45-1-1-1h-1.5v-.67c0-.55-.45-1-1-1s-1,.45-1,1v.68c-1.39.09-2.5,1.24-2.5,2.65s1.2,2.67,2.67,2.67h1.67c.37,0,.67.3.67.67s-.3.67-.67.67h-3.33c-.55,0-1,.45-1,1s.45,1,1,1h1.5v.67c0,.55.45,1,1,1s1-.45,1-1v-.68c1.39-.09,2.5-1.24,2.5-2.65s-1.2-2.67-2.67-2.67h-1.67c-.37,0-.67-.3-.67-.67s.3-.67.67-.67Z"/>
  </g>
  <g>
    <path class="cls-1" d="m27.91,24.44l-.54-2.01-3.37.97v4.71l2.12-.57c.65-.17,1.2-.59,1.54-1.18.34-.58.43-1.27.25-1.92Z"/>
    <path class="cls-1" d="m24.82,12.92c-.14-.51-.43-.96-.82-1.28v9.68l2.86-.82-2.03-7.58Z"/>
  </g>
</svg>