<?xml version="1.0" encoding="UTF-8"?>
<svg id="OBJECT" xmlns="http://www.w3.org/2000/svg" viewBox="0 0 32 32">
  <defs>
    <style>
      .cls-1 {
        fill: #FD4360;
      }

      .cls-2 {
        fill: #dadada;
      }
    </style>
  </defs>
  <g>
    <path class="cls-2" d="M18.74,8.7l-3.24-1.85v-2.85c0-1.65-1.35-3-3-3h-1c-1.65,0-3,1.35-3,3v2.85l-3.24,1.85c-.78,.44-1.26,1.27-1.26,2.17V28.5c0,1.38,1.12,2.5,2.5,2.5h11c1.38,0,2.5-1.12,2.5-2.5V10.87c0-.9-.48-1.73-1.26-2.17ZM10.5,4c0-.55,.45-1,1-1h1c.55,0,1,.45,1,1v1.7l-.26-.15c-.77-.44-1.71-.43-2.48,0l-.26,.15v-1.71Zm-4.25,6.44l2.25-1.28v.85c0,1.65,1.35,3,3,3h1c.55,0,1-.45,1-1s-.45-1-1-1h-1c-.55,0-1-.45-1-1v-1.99l1.25-.71c.08-.04,.16-.07,.25-.07s.17,.02,.25,.07l5.5,3.14c.16,.09,.25,.25,.25,.43v14.13H6V10.87c0-.18,.1-.34,.25-.43Zm11.25,18.56H6.5c-.28,0-.5-.22-.5-.5v-1.5h12v1.5c0,.28-.22,.5-.5,.5Z"/>
    <path class="cls-2" d="M8.5,23h7c.55,0,1-.45,1-1s-.45-1-1-1h-7c-.55,0-1,.45-1,1s.45,1,1,1Z"/>
    <path class="cls-2" d="M8.5,19h5c.55,0,1-.45,1-1s-.45-1-1-1h-5c-.55,0-1,.45-1,1s.45,1,1,1Z"/>
  </g>
  <path class="cls-1" d="M27.85,24.42l-4.66-12.81c-.22-.61-.67-1.09-1.23-1.37,.03,.21,.05,.42,.05,.64v9.62l1.17-.45c.52-.2,1.09,.06,1.29,.57s-.06,1.09-.57,1.29l-1.89,.73v5.86c0,.25-.03,.49-.07,.73l4.43-1.61c.63-.23,1.13-.69,1.41-1.29s.31-1.28,.08-1.91Z"/>
</svg>