<?xml version="1.0" encoding="UTF-8"?>
<svg id="OBJECT" xmlns="http://www.w3.org/2000/svg" viewBox="0 0 32 32">
  <defs>
    <style>
      .cls-1 {
        fill: #FD4360;
      }

      .cls-2 {
        fill: #dadada;
      }
    </style>
  </defs>
  <g>
    <path class="cls-2" d="m21.51,10.57l-4.98-4.14.75-4.26c.1-.54-.27-1.06-.81-1.16-.55-.1-1.06.27-1.16.81l-.75,4.26-6.09,2.19c-.83.3-1.45,1.03-1.6,1.9l-2.83,16.06c-.24,1.34.66,2.62,2,2.86l10.62,1.87s0,0,0,0c.14.02.29.04.43.04,1.18,0,2.22-.84,2.43-2.04l2.83-16.06c.15-.87-.17-1.76-.85-2.33Zm-3.95,18.04c-.04.25-.29.42-.55.38l-10.62-1.87c-.26-.05-.43-.29-.38-.55l2.83-16.06c.03-.17.15-.3.3-.36l5.02-1.8-.38,2.15-.46-.08c-.55-.1-1.06.27-1.16.81s.27,1.06.81,1.16l2.9.51c.06.01.12.02.17.02.48,0,.9-.34.98-.83.1-.54-.27-1.06-.81-1.16l-.46-.08.38-2.15,4.1,3.41c.13.11.19.28.16.44l-2.83,16.06Z"/>
    <path class="cls-2" d="m16.02,14.88c-.55-.1-1.06.27-1.16.81l-1.7,9.66c-.1.54.27,1.06.81,1.16.06.01.12.02.17.02.48,0,.9-.34.98-.83l1.7-9.66c.1-.54-.27-1.06-.81-1.16Z"/>
    <path class="cls-2" d="m12.15,14.2c-.55-.1-1.06.27-1.16.81l-1.02,5.79c-.1.54.27,1.06.81,1.16.06.01.12.02.17.02.48,0,.9-.34.98-.83l1.02-5.79c.1-.54-.27-1.06-.81-1.16Z"/>
    <path class="cls-2" d="m10.62,22.89c-.55-.1-1.06.27-1.16.81l-.17.97c-.1.54.27,1.06.81,1.16.06.01.12.02.17.02.48,0,.9-.34.98-.83l.17-.97c.1-.54-.27-1.06-.81-1.16Z"/>
  </g>
  <g>
    <path class="cls-1" d="m22.56,23.28l4.74-.84-1.78-10.08c-.14-.8-.7-1.47-1.47-1.74l-.08-.03c.38.82.52,1.74.36,2.65l-1.77,10.03Z"/>
    <path class="cls-1" d="m27.97,26.23l-.32-1.82-5.45.96-.69,3.93c-.02.13-.07.26-.1.38l4.73-.83c1.23-.22,2.06-1.4,1.84-2.63Z"/>
  </g>
</svg>