<?xml version="1.0" encoding="UTF-8"?>
<svg id="OBJECT" xmlns="http://www.w3.org/2000/svg" viewBox="0 0 32 32">
  <defs>
    <style>
      .cls-1 {
        fill: #FD4360;
      }

      .cls-1, .cls-2 {
        stroke-width: 0px;
      }

      .cls-2 {
        fill: #dadada;
      }
    </style>
  </defs>
  <path class="cls-1" d="m1,11.88v15.11c0,.56.45,1.01,1,1.01h3V8.86h-1c-1.65,0-3,1.36-3,3.02Z"/>
  <path class="cls-1" d="m28,8.86h-1v19.14h3c.55,0,1-.45,1-1.01v-15.11c0-1.67-1.35-3.02-3-3.02Z"/>
  <g>
    <path class="cls-2" d="m24,26H8c-.55,0-1,.45-1,1s.45,1,1,1h16c.55,0,1-.45,1-1s-.45-1-1-1Z"/>
    <path class="cls-2" d="m8,11h16c.55,0,1-.45,1-1s-.45-1-1-1v-2c0-1.65-1.35-3-3-3h-10c-1.65,0-3,1.35-3,3v2c-.55,0-1,.45-1,1s.45,1,1,1Zm2-4c0-.55.45-1,1-1h10c.55,0,1,.45,1,1v2h-12v-2Z"/>
    <path class="cls-2" d="m15.92,23.5c.55,0,1-.45,1-1v-3h3c.55,0,1-.45,1-1s-.45-1-1-1h-3v-3c0-.55-.45-1-1-1s-1,.45-1,1v3h-3c-.55,0-1,.45-1,1s.45,1,1,1h3v3c0,.55.45,1,1,1Z"/>
  </g>
</svg>