<?xml version="1.0" encoding="UTF-8"?>
<svg id="OBJECT" xmlns="http://www.w3.org/2000/svg" viewBox="0 0 512 512">
  <defs>
    <style>
      .cls-1 {
        fill: #FD4360;
      }

      .cls-2 {
        fill: #dadada;
      }
    </style>
  </defs>
  <g>
    <path class="cls-2" d="M489.5,117h-16v-19.79c0-11.04-7.91-20.38-18.8-22.19l-41.2-6.87V7.5c0-4.14-3.36-7.5-7.5-7.5H106c-4.14,0-7.5,3.36-7.5,7.5v60.65l-41.2,6.87c-10.89,1.82-18.8,11.15-18.8,22.19v19.79H22.5c-12.41,0-22.5,10.09-22.5,22.5v230c0,12.41,10.09,22.5,22.5,22.5H108.5v112.5c0,4.14,3.36,7.5,7.5,7.5H396c4.14,0,7.5-3.36,7.5-7.5v-112.5h86c12.41,0,22.5-10.09,22.5-22.5V139.5c0-12.41-10.09-22.5-22.5-22.5Zm-37.27-27.19c3.63,.61,6.27,3.72,6.27,7.4v19.79h-45v-33.65l38.73,6.46ZM398.5,15V117H113.5V15H398.5ZM53.5,97.21c0-3.68,2.64-6.79,6.27-7.4l38.73-6.46v33.65H53.5v-19.79Zm-31,34.79H489.5c4.14,0,7.5,3.36,7.5,7.5v77.5H15v-77.5c0-4.14,3.36-7.5,7.5-7.5Zm0,245c-4.14,0-7.5-3.36-7.5-7.5V232H108.5v145H22.5Zm101,120V232H388.5V497H123.5Zm366-120h-86V232h93.5v137.5c0,4.14-3.36,7.5-7.5,7.5Z"/>
    <path class="cls-2" d="M444.5,199.5h20c9.65,0,17.5-7.85,17.5-17.5v-15c0-9.65-7.85-17.5-17.5-17.5h-20c-9.65,0-17.5,7.85-17.5,17.5v15c0,9.65,7.85,17.5,17.5,17.5Zm-2.5-32.5c0-1.38,1.12-2.5,2.5-2.5h20c1.38,0,2.5,1.12,2.5,2.5v15c0,1.38-1.12,2.5-2.5,2.5h-20c-1.38,0-2.5-1.12-2.5-2.5v-15Z"/>
    <path class="cls-2" d="M374.5,199.5h20c9.65,0,17.5-7.85,17.5-17.5v-15c0-9.65-7.85-17.5-17.5-17.5h-20c-9.65,0-17.5,7.85-17.5,17.5v15c0,9.65,7.85,17.5,17.5,17.5Zm-2.5-32.5c0-1.38,1.12-2.5,2.5-2.5h20c1.38,0,2.5,1.12,2.5,2.5v15c0,1.38-1.12,2.5-2.5,2.5h-20c-1.38,0-2.5-1.12-2.5-2.5v-15Z"/>
    <path class="cls-2" d="M246,93.5h20c12.41,0,22.5-10.09,22.5-22.5v-10c0-12.41-10.09-22.5-22.5-22.5h-20c-12.41,0-22.5,10.09-22.5,22.5v10c0,12.41,10.09,22.5,22.5,22.5Zm-7.5-32.5c0-4.14,3.36-7.5,7.5-7.5h20c4.14,0,7.5,3.36,7.5,7.5v10c0,4.14-3.36,7.5-7.5,7.5h-20c-4.14,0-7.5-3.36-7.5-7.5v-10Z"/>
    <path class="cls-2" d="M161,93.5h20c12.41,0,22.5-10.09,22.5-22.5v-10c0-12.41-10.09-22.5-22.5-22.5h-20c-12.41,0-22.5,10.09-22.5,22.5v10c0,12.41,10.09,22.5,22.5,22.5Zm-7.5-32.5c0-4.14,3.36-7.5,7.5-7.5h20c4.14,0,7.5,3.36,7.5,7.5v10c0,4.14-3.36,7.5-7.5,7.5h-20c-4.14,0-7.5-3.36-7.5-7.5v-10Z"/>
    <path class="cls-2" d="M331,93.5h20c12.41,0,22.5-10.09,22.5-22.5v-10c0-12.41-10.09-22.5-22.5-22.5h-20c-12.41,0-22.5,10.09-22.5,22.5v10c0,12.41,10.09,22.5,22.5,22.5Zm-7.5-32.5c0-4.14,3.36-7.5,7.5-7.5h20c4.14,0,7.5,3.36,7.5,7.5v10c0,4.14-3.36,7.5-7.5,7.5h-20c-4.14,0-7.5-3.36-7.5-7.5v-10Z"/>
  </g>
  <g>
    <path class="cls-1" d="M280.62,265.97c.33,.07,.66,.14,.99,.19,2.15,.37,4.03,1.65,5.16,3.52,1.13,1.87,1.38,4.13,.71,6.2-.88,2.7-1.17,5.51-.87,8.36,1,9.39,8.84,17.01,18.26,17.72,2.94,.22,5.81-.17,8.53-1.19,2.68-1,5.69-.38,7.77,1.58,3.3,3.12,7.09,5.56,11.27,7.25,2.79,1.12,4.63,3.8,4.69,6.81,.25,12.51,10.63,22.69,23.14,22.69,1.94,0,3.92-.49,5.93-1.44l7.31-3.47v-79.7c0-4.14-3.36-7.5-7.5-7.5h-101.39c.69,9.21,7.21,17.04,16.01,18.97Z"/>
    <circle class="cls-1" cx="203.5" cy="312" r="20"/>
    <path class="cls-1" d="M313.99,367.23c-2.87-2.22-5.56-2.45-7.36-2.22-2.52,.32-4.79,1.7-6.23,3.79l-64.72,94.15c-1.45,2.12-3.8,3.25-6.19,3.25-1.46,0-2.94-.43-4.24-1.32-3.41-2.35-4.28-7.02-1.93-10.43l10.49-15.26-31.02-37.23c-5.79-4.29-12.3-2.53-15.59,1.42l-48.68,58.42v12.69c0,4.14,3.36,7.5,7.5,7.5h220c4.14,0,7.5-3.36,7.5-7.5v-20.7l-59.51-86.56Z"/>
    <path class="cls-1" d="M175.66,393.78c9.24-11.09,25.53-12.43,37.09-3.07,.38,.31,.73,.65,1.04,1.02l28.84,34.61,45.41-66.05c3.86-5.62,9.96-9.33,16.72-10.17,7.05-.89,14.07,1.37,19.76,6.35,.47,.41,.89,.88,1.24,1.39l47.74,69.44v-76.52l-.88,.42c-4.02,1.91-8.16,2.88-12.28,2.89-19.05,0-35.06-14.21-37.81-32.55-2.95-1.52-5.74-3.32-8.34-5.39-3.41,.78-6.91,1.03-10.47,.76-16.79-1.28-30.26-14.36-32.04-31.1-.25-2.36-.27-4.7-.05-7.02-12.61-5.22-21.4-17.67-22.03-31.81h-103.61c-4.14,0-7.5,3.36-7.5,7.5v183.87l37.16-44.59Zm27.84-116.78c19.3,0,35,15.7,35,35s-15.7,35-35,35-35-15.7-35-35,15.7-35,35-35Z"/>
  </g>
</svg>