<?xml version="1.0" encoding="UTF-8"?>
<svg id="OBJECT" xmlns="http://www.w3.org/2000/svg" viewBox="0 0 32 32">
  <defs>
    <style>
      .cls-1 {
        fill: #FD4360;
      }

      .cls-1, .cls-2 {
        stroke-width: 0px;
      }

      .cls-2 {
        fill: #dadada;
      }
    </style>
  </defs>
  <path class="cls-2" d="m30,8.39h-5V2c0-.55-.45-1-1-1H8c-.55,0-1,.45-1,1v6.39H2c-.55,0-1,.45-1,1v13.22c0,.55.45,1,1,1h5c.55,0,1-.45,1-1h0c0-.55-.45-1-1-1H3v-11.22h26v11.22h-4c-.55,0-1,.45-1,1h0c0,.55.45,1,1,1h5c.55,0,1-.45,1-1v-13.22c0-.55-.45-1-1-1ZM9,3h14v5.39h-14V3Z"/>
  <path class="cls-1" d="m9,31h14V15h-14v16Zm3-13h8c.55,0,1,.45,1,1s-.45,1-1,1h-8c-.55,0-1-.45-1-1s.45-1,1-1Zm0,4h8c.55,0,1,.45,1,1s-.45,1-1,1h-8c-.55,0-1-.45-1-1s.45-1,1-1Zm0,4h8c.55,0,1,.45,1,1s-.45,1-1,1h-8c-.55,0-1-.45-1-1s.45-1,1-1Z"/>
</svg>