<?xml version="1.0" encoding="UTF-8"?>
<svg id="OBJECT" xmlns="http://www.w3.org/2000/svg" viewBox="0 0 32 32">
  <defs>
    <style>
      .cls-1 {
        fill: #FD4360;
      }

      .cls-1, .cls-2 {
        stroke-width: 0px;
      }

      .cls-2 {
        fill: #dadada;
      }
    </style>
  </defs>
  <g>
    <path class="cls-2" d="m30,7h-5V2c0-.55-.45-1-1-1H8c-.55,0-1,.45-1,1v5H2c-.55,0-1,.45-1,1v13c0,.55.45,1,1,1h3c.55,0,1-.45,1-1s-.45-1-1-1h-2v-11h26v11h-2c-.55,0-1,.45-1,1s.45,1,1,1h3c.55,0,1-.45,1-1v-13c0-.55-.45-1-1-1ZM9,3h14v4h-14V3Z"/>
    <path class="cls-2" d="m28,14c0-.55-.45-1-1-1H5c-.55,0-1,.45-1,1s.45,1,1,1h22c.55,0,1-.45,1-1Z"/>
  </g>
  <path class="cls-1" d="m8,31h16v-14H8v14Zm3-12h10c.55,0,1,.45,1,1s-.45,1-1,1h-10c-.55,0-1-.45-1-1s.45-1,1-1Zm0,4h10c.55,0,1,.45,1,1s-.45,1-1,1h-10c-.55,0-1-.45-1-1s.45-1,1-1Zm0,4h10c.55,0,1,.45,1,1s-.45,1-1,1h-10c-.55,0-1-.45-1-1s.45-1,1-1Z"/>
</svg>