<?xml version="1.0" encoding="UTF-8"?>
<svg id="OBJECT" xmlns="http://www.w3.org/2000/svg" viewBox="0 0 32 32">
  <defs>
    <style>
      .cls-1 {
        fill: #FD4360;
      }

      .cls-1, .cls-2 {
        stroke-width: 0px;
      }

      .cls-2 {
        fill: #dadada;
      }
    </style>
  </defs>
  <g>
    <path class="cls-2" d="m27,10c.55,0,1-.45,1-1s-.45-1-1-1h-.5c-.55,0-1,.45-1,1s.45,1,1,1h.5Z"/>
    <path class="cls-2" d="m23,10c.55,0,1-.45,1-1s-.45-1-1-1h-.5c-.55,0-1,.45-1,1s.45,1,1,1h.5Z"/>
    <path class="cls-2" d="m28.5,5h-2v-3c0-.55-.45-1-1-1H6.5c-.55,0-1,.45-1,1v3h-2c-1.38,0-2.5,1.12-2.5,2.5v15c0,1.38,1.12,2.5,2.5,2.5h3c.55,0,1-.45,1-1s-.45-1-1-1h-3c-.28,0-.5-.22-.5-.5V7.5c0-.28.22-.5.5-.5h25c.28,0,.5.22.5.5v15c0,.28-.22.5-.5.5h-3c-.55,0-1,.45-1,1s.45,1,1,1h3c1.38,0,2.5-1.12,2.5-2.5V7.5c0-1.38-1.12-2.5-2.5-2.5ZM7.5,3h17v2H7.5v-2Z"/>
    <path class="cls-2" d="m4.5,13c0,.55.45,1,1,1h21c.55,0,1-.45,1-1s-.45-1-1-1H5.5c-.55,0-1,.45-1,1Z"/>
  </g>
  <path class="cls-1" d="m8.5,31h15v-15h-15v15Zm7.72-2.94h-.45c-.55,0-1-.45-1-1s.45-1,1-1h.45c.55,0,1,.45,1,1s-.45,1-1,1Zm2.48-2.8c-.2.19-.45.29-.7.29s-.51-.1-.71-.3c-.69-.7-1.89-.7-2.58,0-.39.39-1.02.39-1.42,0-.39-.39-.4-1.02,0-1.42,1.45-1.46,3.97-1.46,5.42,0,.39.39.38,1.03,0,1.42Zm-7.42-4.34c1.26-1.27,2.93-1.97,4.71-1.97s3.45.7,4.71,1.97c.39.39.38,1.03,0,1.42-.2.19-.45.29-.7.29s-.51-.1-.71-.3c-.88-.89-2.05-1.38-3.29-1.38s-2.41.49-3.29,1.38c-.39.39-1.02.39-1.42,0-.39-.39-.4-1.02,0-1.42Z"/>
</svg>