<?xml version="1.0" encoding="UTF-8"?>
<svg id="OBJECT" xmlns="http://www.w3.org/2000/svg" viewBox="0 0 32 32">
  <defs>
    <style>
      .cls-1 {
        fill: #FD4360;
      }

      .cls-1, .cls-2 {
        stroke-width: 0px;
      }

      .cls-2 {
        fill: #dadada;
      }
    </style>
  </defs>
  <g>
    <path class="cls-2" d="m28.5,16H3.5c-1.38,0-2.5,1.12-2.5,2.5v10c0,1.38,1.12,2.5,2.5,2.5h25c1.38,0,2.5-1.12,2.5-2.5v-10c0-1.38-1.12-2.5-2.5-2.5Zm-3.5,13H7v-3c0-.55.45-1,1-1h16c.55,0,1,.45,1,1v3Zm4-.5c0,.28-.22.5-.5.5h-1.5v-3c0-1.65-1.35-3-3-3H8c-1.65,0-3,1.35-3,3v3h-1.5c-.28,0-.5-.22-.5-.5v-10c0-.28.22-.5.5-.5h25c.28,0,.5.22.5.5v10Z"/>
    <path class="cls-2" d="m23,19h-.5c-.55,0-1,.45-1,1s.45,1,1,1h.5c.55,0,1-.45,1-1s-.45-1-1-1Z"/>
    <path class="cls-2" d="m27,19h-.5c-.55,0-1,.45-1,1s.45,1,1,1h.5c.55,0,1-.45,1-1s-.45-1-1-1Z"/>
  </g>
  <path class="cls-1" d="m26,5.62c0-.66-.27-1.3-.73-1.77l-2.12-2.12c-.47-.47-1.11-.73-1.77-.73h-12.88c-1.38,0-2.5,1.12-2.5,2.5v10.5h20V5.62Zm-9.78,6.48h-.45c-.55,0-1-.45-1-1s.45-1,1-1h.45c.55,0,1,.45,1,1s-.45,1-1,1Zm2.48-2.83c-.19.19-.45.29-.7.29s-.52-.1-.71-.3c-.69-.7-1.88-.7-2.57,0-.39.39-1.02.4-1.41.02-.39-.39-.4-1.02-.02-1.41,1.45-1.48,3.98-1.48,5.43,0,.39.39.38,1.03-.02,1.41Zm2-2.96c-.19.19-.45.29-.7.29s-.52-.1-.71-.3c-.88-.9-2.04-1.39-3.29-1.39s-2.41.5-3.29,1.39c-.38.39-1.02.4-1.41.02-.39-.39-.4-1.02-.02-1.41,1.26-1.29,2.93-2,4.71-2s3.46.71,4.71,2c.39.39.38,1.03-.02,1.41Z"/>
</svg>