<?xml version="1.0" encoding="UTF-8"?>
<svg id="OBJECT" xmlns="http://www.w3.org/2000/svg" viewBox="0 0 32 32">
  <defs>
    <style>
      .cls-1 {
        fill: #FD4360;
      }

      .cls-2 {
        fill: #dadada;
      }
    </style>
  </defs>
  <g>
    <path class="cls-2" d="M30.88,11.53c-.17-.33-.51-.53-.88-.53H2c-.37,0-.71,.2-.88,.53-.17,.33-.15,.72,.05,1.03L12.57,29.66c.56,.84,1.49,1.34,2.5,1.34h1.86c1.01,0,1.94-.5,2.5-1.34L30.83,12.55c.2-.31,.22-.7,.05-1.03Zm-23.64,1.47l2.53,8.87L3.87,13h3.38Zm9.68,16h-1.86c-.33,0-.65-.17-.83-.45l-.82-1.23-4.09-14.33h13.35l-4.09,14.33-.82,1.23c-.19,.28-.5,.45-.83,.45Zm5.29-7.13l2.53-8.87h3.38l-5.91,8.87Z"/>
    <path class="cls-2" d="M17,15h-2c-.55,0-1,.45-1,1s.45,1,1,1h2c.55,0,1-.45,1-1s-.45-1-1-1Z"/>
  </g>
  <g>
    <polygon class="cls-1" points="10.35 9 21.65 9 19.18 1 12.82 1 10.35 9"/>
    <path class="cls-1" d="M23.74,9h5.88l-3.17-6.34c-.51-1.02-1.54-1.66-2.68-1.66h-2.49l2.46,8Z"/>
    <path class="cls-1" d="M8.26,9L10.72,1h-2.49c-1.14,0-2.17,.64-2.68,1.66l-3.17,6.34h5.88Z"/>
  </g>
</svg>