<?xml version="1.0" encoding="UTF-8" standalone="no"?>
<svg
   id="OBJECT"
   viewBox="0 0 32 32"
   version="1.1"
   sodipodi:docname="Privacy Police.svg"
   xml:space="preserve"
   inkscape:version="1.2.2 (732a01da63, 2022-12-09)"
   xmlns:inkscape="http://www.inkscape.org/namespaces/inkscape"
   xmlns:sodipodi="http://sodipodi.sourceforge.net/DTD/sodipodi-0.dtd"
   xmlns="http://www.w3.org/2000/svg"
   xmlns:svg="http://www.w3.org/2000/svg"><sodipodi:namedview
     id="namedview17"
     pagecolor="#505050"
     bordercolor="#ffffff"
     borderopacity="1"
     inkscape:showpageshadow="0"
     inkscape:pageopacity="0"
     inkscape:pagecheckerboard="1"
     inkscape:deskcolor="#505050"
     showgrid="false"
     inkscape:zoom="12.953125"
     inkscape:cx="29.413751"
     inkscape:cy="14.745476"
     inkscape:window-width="1920"
     inkscape:window-height="1009"
     inkscape:window-x="-8"
     inkscape:window-y="-8"
     inkscape:window-maximized="1"
     inkscape:current-layer="OBJECT" /><defs
     id="defs4"><style
       id="style2">
      .cls-1 {
        fill: #FD4360;
      }

      .cls-1, .cls-2 {
        stroke-width: 0px;
      }

      .cls-2 {
        fill: #dadada;
      }
    </style></defs><path
     style="fill:#fd4360;fill-opacity:1;stroke-width:0.407925"
     d="m 12.220926,22.576365 c -0.921334,-0.220148 -1.733712,-1.053535 -1.978501,-2.029674 -0.187491,-0.747652 -0.09226,-4.900924 0.123441,-5.383474 0.276897,-0.619464 0.981642,-1.242634 1.660937,-1.468685 l 0.599717,-0.199571 0.0507,-1.311874 c 0.04949,-1.280821 0.05921,-1.32621 0.410075,-1.917586 1.250419,-2.1075311 4.164234,-2.2449848 5.580112,-0.26323 0.467604,0.654486 0.600704,1.186956 0.600704,2.403105 v 1.118175 l 0.503516,0.129048 c 0.678427,0.173872 1.31294,0.680801 1.678648,1.341107 l 0.302098,0.545449 v 2.534958 2.534958 l -0.272335,0.516122 c -0.149785,0.283867 -0.443057,0.666014 -0.651716,0.849221 -0.755015,0.662911 -0.740368,0.66077 -4.65286,0.680743 -1.977445,0.01009 -3.72854,-0.02479 -3.954534,-0.07879 z m 7.364098,-1.788138 c 0.450741,-0.266262 0.51262,-0.64757 0.476173,-2.93434 -0.03193,-2.004017 -0.03758,-2.050681 -0.278421,-2.306809 l -0.245819,-0.261419 h -3.572953 -3.572952 l -0.262509,0.311978 -0.26251,0.311973 0.0022,2.197636 c 0.0024,2.354374 0.0208,2.445014 0.555436,2.739031 0.135532,0.07453 1.307481,0.112543 3.533298,0.114606 2.981017,0.0028 3.361716,-0.01538 3.628002,-0.172656 z m -2.040687,-8.368883 c 0,-0.954025 -0.02204,-1.073594 -0.263509,-1.428932 -0.463987,-0.68282 -1.502922,-0.894527 -2.180405,-0.444304 -0.562938,0.374103 -0.800831,0.975132 -0.800831,2.023284 v 0.8911 h 1.622373 1.622372 z"
     id="path381" /><path
     style="fill:#dadada;stroke-width:0.407925"
     d="M 15.236696,29.179166 C 14.794389,28.990996 10.388371,26.50493 9.7285925,26.071255 9.3616516,25.830064 8.6656583,25.262438 8.1819405,24.809869 6.178516,22.935448 4.8204862,20.507036 4.1883218,17.668523 4.0301855,16.958465 4.0076625,16.305372 4.0076625,12.430037 V 8.0027402 L 4.3160742,7.5637781 C 4.7034642,7.0124062 5.2662148,6.692404 5.9843145,6.61515 8.805809,6.3116059 11.883166,5.2787774 14.553088,3.7392837 15.27401,3.3235965 15.431973,3.2718219 15.972664,3.2740223 c 0.55713,0.00235 0.703731,0.056226 1.739975,0.6404556 1.334553,0.7524102 2.545671,1.2877476 3.99836,1.767345 1.577602,0.5208406 3.973503,0.9843565 5.093274,0.9853567 0.877633,7.844e-4 1.383031,0.6389729 1.036581,1.308932 -0.204921,0.3962718 -0.468842,0.4584013 -1.61519,0.3802295 C 23.203871,8.1502821 19.390835,6.9149955 16.417588,5.1788799 L 15.949927,4.9058043 14.947312,5.467939 C 12.488585,6.8464648 10.075582,7.6981332 7.4045067,8.1301763 6.8189311,8.2248925 6.2029363,8.3354194 6.035629,8.3757919 l -0.3041953,0.073406 9.413e-4,4.2040701 9.415e-4,4.204068 0.2841852,1.057041 c 0.535355,1.991282 1.488424,3.724479 2.8240168,5.135596 0.9551388,1.009149 1.8226335,1.644654 3.5821735,2.624207 0.780769,0.434659 1.859905,1.035629 2.398086,1.335486 0.538177,0.299857 1.056519,0.545194 1.151867,0.545194 0.09535,0 0.932641,-0.427811 1.860645,-0.950687 0.928009,-0.522877 1.995887,-1.11863 2.373065,-1.323889 2.142652,-1.166046 3.933288,-3.077065 4.944182,-5.276591 0.815458,-1.774275 1.113036,-3.359417 1.113036,-5.92895 0,-1.078022 0.04342,-1.815402 0.116336,-1.975424 0.146907,-0.322427 0.665535,-0.508679 1.030283,-0.370001 0.472651,0.179701 0.577161,0.561179 0.577067,2.106379 -2.91e-4,4.290301 -0.841745,6.962772 -3.061019,9.72149 -1.297668,1.613096 -2.287754,2.343137 -5.912646,4.359702 -2.170477,1.207454 -2.374343,1.299563 -2.940553,1.328544 -0.334613,0.01714 -0.71143,-0.01271 -0.837368,-0.06627 z"
     id="path383" /></svg>
