<?xml version="1.0" encoding="UTF-8"?>
<svg id="OBJECT" xmlns="http://www.w3.org/2000/svg" viewBox="0 0 512 512">
  <defs>
    <style>
      .cls-1 {
        fill: #FD4360;
      }

      .cls-2 {
        fill: #dadada;
      }
    </style>
  </defs>
  <g>
    <path class="cls-2" d="M371,167h-27.5V87.5C343.5,39.25,304.25,0,256,0s-87.5,39.25-87.5,87.5v79.5h-27.5c-12.41,0-22.5,10.09-22.5,22.5v120c0,12.41,10.09,22.5,22.5,22.5h230c12.41,0,22.5-10.09,22.5-22.5v-120c0-12.41-10.09-22.5-22.5-22.5ZM183.5,87.5c0-39.98,32.52-72.5,72.5-72.5s72.5,32.52,72.5,72.5v79.5h-15V87.5c0-31.71-25.79-57.5-57.5-57.5s-57.5,25.79-57.5,57.5v79.5h-15V87.5Zm115,79.5h-85V87.5c0-23.43,19.07-42.5,42.5-42.5s42.5,19.07,42.5,42.5v79.5Zm-157.5,15h230c4.14,0,7.5,3.36,7.5,7.5v87.5H133.5v-87.5c0-4.14,3.36-7.5,7.5-7.5Zm230,135H141c-4.14,0-7.5-3.36-7.5-7.5v-17.5h245v17.5c0,4.14-3.36,7.5-7.5,7.5Z"/>
    <path class="cls-2" d="M238.5,257h35c12.41,0,22.5-10.09,22.5-22.5v-10c0-12.41-10.09-22.5-22.5-22.5h-35c-12.41,0-22.5,10.09-22.5,22.5v10c0,12.41,10.09,22.5,22.5,22.5Zm-7.5-32.5c0-4.14,3.36-7.5,7.5-7.5h35c4.14,0,7.5,3.36,7.5,7.5v10c0,4.14-3.36,7.5-7.5,7.5h-35c-4.14,0-7.5-3.36-7.5-7.5v-10Z"/>
  </g>
  <path class="cls-1" d="M492,357H20c-11.05,0-20,8.95-20,20v115c0,11.05,8.95,20,20,20H492c11.05,0,20-8.95,20-20v-115c0-11.05-8.95-20-20-20ZM121,442h-21.89l9.7,9.7c2.93,2.93,2.93,7.68,0,10.61-1.46,1.46-3.38,2.2-5.3,2.2s-3.84-.73-5.3-2.2l-9.7-9.7v21.89c0,4.14-3.36,7.5-7.5,7.5s-7.5-3.36-7.5-7.5v-21.89l-9.7,9.7c-1.46,1.46-3.38,2.2-5.3,2.2s-3.84-.73-5.3-2.2c-2.93-2.93-2.93-7.68,0-10.61l9.7-9.7h-21.89c-4.14,0-7.5-3.36-7.5-7.5s3.36-7.5,7.5-7.5h21.89l-9.7-9.7c-2.93-2.93-2.93-7.68,0-10.61,2.93-2.93,7.68-2.93,10.61,0l9.7,9.7v-21.89c0-4.14,3.36-7.5,7.5-7.5s7.5,3.36,7.5,7.5v21.89l9.7-9.7c2.93-2.93,7.68-2.93,10.61,0,2.93,2.93,2.93,7.68,0,10.61l-9.7,9.7h21.89c4.14,0,7.5,3.36,7.5,7.5s-3.36,7.5-7.5,7.5Zm116.67,0h-21.89l9.7,9.7c2.93,2.93,2.93,7.68,0,10.61-1.46,1.46-3.38,2.2-5.3,2.2s-3.84-.73-5.3-2.2l-9.7-9.7v21.89c0,4.14-3.36,7.5-7.5,7.5s-7.5-3.36-7.5-7.5v-21.89l-9.7,9.7c-1.46,1.46-3.38,2.2-5.3,2.2s-3.84-.73-5.3-2.2c-2.93-2.93-2.93-7.68,0-10.61l9.7-9.7h-21.89c-4.14,0-7.5-3.36-7.5-7.5s3.36-7.5,7.5-7.5h21.89l-9.7-9.7c-2.93-2.93-2.93-7.68,0-10.61,2.93-2.93,7.68-2.93,10.61,0l9.7,9.7v-21.89c0-4.14,3.36-7.5,7.5-7.5s7.5,3.36,7.5,7.5v21.89l9.7-9.7c2.93-2.93,7.68-2.93,10.61,0,2.93,2.93,2.93,7.68,0,10.61l-9.7,9.7h21.89c4.14,0,7.5,3.36,7.5,7.5s-3.36,7.5-7.5,7.5Zm116.67,0h-21.89l9.7,9.7c2.93,2.93,2.93,7.68,0,10.61-1.46,1.46-3.38,2.2-5.3,2.2s-3.84-.73-5.3-2.2l-9.7-9.7v21.89c0,4.14-3.36,7.5-7.5,7.5s-7.5-3.36-7.5-7.5v-21.89l-9.7,9.7c-1.46,1.46-3.38,2.2-5.3,2.2s-3.84-.73-5.3-2.2c-2.93-2.93-2.93-7.68,0-10.61l9.7-9.7h-21.89c-4.14,0-7.5-3.36-7.5-7.5s3.36-7.5,7.5-7.5h21.89l-9.7-9.7c-2.93-2.93-2.93-7.68,0-10.61,2.93-2.93,7.68-2.93,10.61,0l9.7,9.7v-21.89c0-4.14,3.36-7.5,7.5-7.5s7.5,3.36,7.5,7.5v21.89l9.7-9.7c2.93-2.93,7.68-2.93,10.61,0,2.93,2.93,2.93,7.68,0,10.61l-9.7,9.7h21.89c4.14,0,7.5,3.36,7.5,7.5s-3.36,7.5-7.5,7.5Zm116.67,0h-21.89l9.7,9.7c2.93,2.93,2.93,7.68,0,10.61-1.46,1.46-3.38,2.2-5.3,2.2s-3.84-.73-5.3-2.2l-9.7-9.7v21.89c0,4.14-3.36,7.5-7.5,7.5s-7.5-3.36-7.5-7.5v-21.89l-9.7,9.7c-1.46,1.46-3.38,2.2-5.3,2.2s-3.84-.73-5.3-2.2c-2.93-2.93-2.93-7.68,0-10.61l9.7-9.7h-21.89c-4.14,0-7.5-3.36-7.5-7.5s3.36-7.5,7.5-7.5h21.89l-9.7-9.7c-2.93-2.93-2.93-7.68,0-10.61,2.93-2.93,7.68-2.93,10.61,0l9.7,9.7v-21.89c0-4.14,3.36-7.5,7.5-7.5s7.5,3.36,7.5,7.5v21.89l9.7-9.7c2.93-2.93,7.68-2.93,10.61,0,2.93,2.93,2.93,7.68,0,10.61l-9.7,9.7h21.89c4.14,0,7.5,3.36,7.5,7.5s-3.36,7.5-7.5,7.5Z"/>
</svg>