<?xml version="1.0" encoding="UTF-8"?>
<svg id="OBJECT" xmlns="http://www.w3.org/2000/svg" viewBox="0 0 32 32">
  <defs>
    <style>
      .cls-1 {
        fill: #FD4360;
      }

      .cls-1, .cls-2 {
        stroke-width: 0px;
      }

      .cls-2 {
        fill: #dadada;
      }
    </style>
  </defs>
  <path class="cls-2" d="m29,14.75c1.1,0,2-.9,2-2v-1.5c0-1.1-.9-2-2-2h-3v-.25c0-1.65-1.35-3-3-3h-.25v-3c0-1.1-.9-2-2-2h-1.5c-1.1,0-2,.9-2,2v3h-2.5v-3c0-1.1-.9-2-2-2h-1.5c-1.1,0-2,.9-2,2v3h-.25c-1.65,0-3,1.35-3,3v.25h-3c-1.1,0-2,.9-2,2v1.5c0,1.1.9,2,2,2h3v2.5h-3c-1.1,0-2,.9-2,2v1.5c0,1.1.9,2,2,2h3v.25c0,1.65,1.35,3,3,3h.25v3c0,1.1.9,2,2,2h1.5c1.1,0,2-.9,2-2v-3h2.5v3c0,1.1.9,2,2,2h1.5c1.1,0,2-.9,2-2v-3h.25c1.65,0,3-1.35,3-3v-.25h3c1.1,0,2-.9,2-2v-1.5c0-1.1-.9-2-2-2h-3v-2.5h3Zm0-3.5v1.5h-3v-1.5h3ZM19.25,3h1.5v3h-1.5v-3Zm-8,0h1.5v3h-1.5v-3ZM3,12.75v-1.5h3v1.5h-3Zm0,8v-1.5h3v1.5h-3Zm9.75,8.25h-1.5v-3h1.5v3Zm8,0h-1.5v-3h1.5v3Zm3.25-6c0,.55-.45,1-1,1h-14c-.55,0-1-.45-1-1v-14c0-.55.45-1,1-1h14c.55,0,1,.45,1,1v14Zm5-3.75v1.5h-3v-1.5h3Z"/>
  <g>
    <path class="cls-1" d="m10.5,13.49v4.01h11v-4c.41,0,.79-.25.94-.66.19-.52-.08-1.09-.6-1.28l-5.5-2c-.22-.08-.46-.08-.68,0l-5.5,2c-.52.19-.79.76-.6,1.28.15.41.53.65.94.65Z"/>
    <path class="cls-1" d="m21.5,20.5v-1h-11v1c-.55,0-1,.45-1,1s.45,1,1,1h11c.55,0,1-.45,1-1s-.45-1-1-1Z"/>
  </g>
</svg>