<?xml version="1.0" encoding="UTF-8"?>
<svg id="OBJECT" xmlns="http://www.w3.org/2000/svg" viewBox="0 0 512 512">
  <defs>
    <style>
      .cls-1 {
        fill: #FD4360;
      }

      .cls-2 {
        fill: #dadada;
      }
    </style>
  </defs>
  <g>
    <path class="cls-2" d="M386,118.5H126c-4.14,0-7.5,3.36-7.5,7.5V386c0,4.14,3.36,7.5,7.5,7.5H386c4.14,0,7.5-3.36,7.5-7.5V126c0-4.14-3.36-7.5-7.5-7.5Zm-7.5,260H133.5V133.5h245v245Z"/>
    <path class="cls-2" d="M494.5,233.5h-66v-25h36c9.65,0,17.5-7.85,17.5-17.5v-10c0-9.65-7.85-17.5-17.5-17.5h-36v-52.5c0-15.16-12.34-27.5-27.5-27.5h-52.5V47.5c0-9.65-7.85-17.5-17.5-17.5h-10c-9.65,0-17.5,7.85-17.5,17.5v36h-25V17.5c0-9.65-7.85-17.5-17.5-17.5h-10c-9.65,0-17.5,7.85-17.5,17.5V83.5h-25V47.5c0-9.65-7.85-17.5-17.5-17.5h-10c-9.65,0-17.5,7.85-17.5,17.5v36h-52.5c-15.16,0-27.5,12.34-27.5,27.5v52.5H47.5c-9.65,0-17.5,7.85-17.5,17.5v10c0,9.65,7.85,17.5,17.5,17.5h36v25H17.5c-9.65,0-17.5,7.85-17.5,17.5v10c0,9.65,7.85,17.5,17.5,17.5H83.5v25H47.5c-9.65,0-17.5,7.85-17.5,17.5v10c0,9.65,7.85,17.5,17.5,17.5h36v52.5c0,15.16,12.34,27.5,27.5,27.5h52.5v36c0,9.65,7.85,17.5,17.5,17.5h10c9.65,0,17.5-7.85,17.5-17.5v-36h25v66c0,9.65,7.85,17.5,17.5,17.5h10c9.65,0,17.5-7.85,17.5-17.5v-66h25v36c0,9.65,7.85,17.5,17.5,17.5h10c9.65,0,17.5-7.85,17.5-17.5v-36h52.5c15.16,0,27.5-12.34,27.5-27.5v-52.5h36c9.65,0,17.5-7.85,17.5-17.5v-10c0-9.65-7.85-17.5-17.5-17.5h-36v-25h66c9.65,0,17.5-7.85,17.5-17.5v-10c0-9.65-7.85-17.5-17.5-17.5ZM47.5,193.5c-1.38,0-2.5-1.12-2.5-2.5v-10c0-1.38,1.12-2.5,2.5-2.5h36v15H47.5Zm-30,70c-1.38,0-2.5-1.12-2.5-2.5v-10c0-1.38,1.12-2.5,2.5-2.5H83.5v15H17.5Zm30,70c-1.38,0-2.5-1.12-2.5-2.5v-10c0-1.38,1.12-2.5,2.5-2.5h36v15H47.5ZM318.5,47.5c0-1.38,1.12-2.5,2.5-2.5h10c1.38,0,2.5,1.12,2.5,2.5v36h-15V47.5Zm-70-30c0-1.38,1.12-2.5,2.5-2.5h10c1.38,0,2.5,1.12,2.5,2.5V83.5h-15V17.5Zm-70,30c0-1.38,1.12-2.5,2.5-2.5h10c1.38,0,2.5,1.12,2.5,2.5v36h-15V47.5Zm15,417c0,1.38-1.12,2.5-2.5,2.5h-10c-1.38,0-2.5-1.12-2.5-2.5v-36h15v36Zm70,30c0,1.38-1.12,2.5-2.5,2.5h-10c-1.38,0-2.5-1.12-2.5-2.5v-66h15v66Zm70-30c0,1.38-1.12,2.5-2.5,2.5h-10c-1.38,0-2.5-1.12-2.5-2.5v-36h15v36Zm80-63.5c0,6.89-5.61,12.5-12.5,12.5H111c-6.89,0-12.5-5.61-12.5-12.5V111c0-6.89,5.61-12.5,12.5-12.5H401c6.89,0,12.5,5.61,12.5,12.5V401Zm51-222.5c1.38,0,2.5,1.12,2.5,2.5v10c0,1.38-1.12,2.5-2.5,2.5h-36v-15h36Zm0,140c1.38,0,2.5,1.12,2.5,2.5v10c0,1.38-1.12,2.5-2.5,2.5h-36v-15h36Zm32.5-57.5c0,1.38-1.12,2.5-2.5,2.5h-66v-15h66c1.38,0,2.5,1.12,2.5,2.5v10Z"/>
  </g>
  <g>
    <path class="cls-1" d="M361.26,150.74c-2.93-2.93-7.68-2.93-10.61,0l-15,15c-2.93,2.93-2.93,7.68,0,10.61,1.46,1.46,3.38,2.2,5.3,2.2s3.84-.73,5.3-2.2l15-15c2.93-2.93,2.93-7.68,0-10.61Z"/>
    <rect class="cls-1" x="203.5" y="202.98" width="20" height="20" rx="2.5" ry="2.5"/>
    <path class="cls-1" d="M346,207.98c-23.43,0-42.5-19.07-42.5-42.5,0-4.14-3.36-7.5-7.5-7.5h-115c-12.41,0-22.5,10.09-22.5,22.5v150c0,12.41,10.09,22.5,22.5,22.5h35v-38.92l-20.29-8.11c-2.85-1.14-4.71-3.9-4.71-6.96v-19.87c0-4.14,3.36-7.5,7.5-7.5s7.5,3.36,7.5,7.5v14.79l20.29,8.11c2.85,1.14,4.71,3.9,4.71,6.96v44h17.5v-74c0-4.14,3.36-7.5,7.5-7.5s7.5,3.36,7.5,7.5v74h17.5v-44c0-3.07,1.87-5.82,4.71-6.96l20.29-8.11v-14.79c0-4.14,3.36-7.5,7.5-7.5s7.5,3.36,7.5,7.5v19.87c0,3.07-1.87,5.82-4.71,6.96l-20.29,8.11v38.92h35c12.41,0,22.5-10.09,22.5-22.5v-115c0-4.14-3.36-7.5-7.5-7.5Zm-107.5,12.5c0,9.65-7.85,17.5-17.5,17.5h-15c-9.65,0-17.5-7.85-17.5-17.5v-15c0-9.65,7.85-17.5,17.5-17.5h15c9.65,0,17.5,7.85,17.5,17.5v15Zm25,33.5c0,4.14-3.36,7.5-7.5,7.5s-7.5-3.36-7.5-7.5v-5c0-4.14,3.36-7.5,7.5-7.5s7.5,3.36,7.5,7.5v5Z"/>
  </g>
</svg>