<?xml version="1.0" encoding="UTF-8"?>
<svg id="OBJECT" xmlns="http://www.w3.org/2000/svg" viewBox="0 0 32 32">
  <defs>
    <style>
      .cls-1 {
        fill: #FD4360;
      }

      .cls-1, .cls-2 {
        stroke-width: 0px;
      }

      .cls-2 {
        fill: #dadada;
      }
    </style>
  </defs>
  <path class="cls-2" d="m30,14.67c.55,0,1-.45,1-1s-.45-1-1-1h-3v-2.67h3c.55,0,1-.45,1-1s-.45-1-1-1h-3c0-1.65-1.35-3-3-3v-3c0-.55-.45-1-1-1s-1,.45-1,1v3h-2.67v-3c0-.55-.45-1-1-1s-1,.45-1,1v3h-2.67v-3c0-.55-.45-1-1-1s-1,.45-1,1v3h-2.67v-3c0-.55-.45-1-1-1s-1,.45-1,1v3c-1.65,0-3,1.35-3,3h-3c-.55,0-1,.45-1,1s.45,1,1,1h3v2.67h-3c-.55,0-1,.45-1,1s.45,1,1,1h3v2.67h-3c-.55,0-1,.45-1,1s.45,1,1,1h3v2.67h-3c-.55,0-1,.45-1,1s.45,1,1,1h3c0,1.65,1.35,3,3,3v3c0,.55.45,1,1,1s1-.45,1-1v-3h2.67v3c0,.55.45,1,1,1s1-.45,1-1v-3h2.67v3c0,.55.45,1,1,1s1-.45,1-1v-3h2.67v3c0,.55.45,1,1,1s1-.45,1-1v-3c1.65,0,3-1.35,3-3h3c.55,0,1-.45,1-1s-.45-1-1-1h-3v-2.67h3c.55,0,1-.45,1-1s-.45-1-1-1h-3v-2.67h3Zm-5,9.33c0,.55-.45,1-1,1H8c-.55,0-1-.45-1-1V8c0-.55.45-1,1-1h16c.55,0,1,.45,1,1v16Z"/>
  <path class="cls-1" d="m12.42,18.66c.22-.22.35-.52.35-.84v-4.7c0-.55.45-1,1-1s1,.45,1,1v4.7c0,.85-.33,1.65-.93,2.25l-2.09,2.09c1.21.84,2.68,1.33,4.26,1.33,4.14,0,7.5-3.36,7.5-7.5,0-1.84-.67-3.52-1.76-4.82l-2.16,2.16c-.22.22-.35.52-.35.84v4.7c0,.55-.45,1-1,1s-1-.45-1-1v-4.7c0-.85.33-1.65.93-2.25l2.09-2.09c-1.21-.84-2.68-1.33-4.26-1.33-4.14,0-7.5,3.36-7.5,7.5,0,1.84.67,3.52,1.76,4.82l2.16-2.16Z"/>
</svg>