<?xml version="1.0" encoding="UTF-8"?>
<svg id="OBJECT" xmlns="http://www.w3.org/2000/svg" viewBox="0 0 512 512">
  <defs>
    <style>
      .cls-1 {
        fill: #FD4360;
      }

      .cls-2 {
        fill: #dadada;
      }
    </style>
  </defs>
  <g>
    <path class="cls-2" d="M316,83.5c4.14,0,7.5-3.36,7.5-7.5v-13.5c0-4.14,3.36-7.5,7.5-7.5h18.55c3.27,11.53,13.89,20,26.45,20,15.16,0,27.5-12.34,27.5-27.5s-12.34-27.5-27.5-27.5c-12.56,0-23.18,8.47-26.45,20h-18.55c-12.41,0-22.5,10.09-22.5,22.5v13.5c0,4.14,3.36,7.5,7.5,7.5Zm60-48.5c6.89,0,12.5,5.61,12.5,12.5s-5.61,12.5-12.5,12.5-12.5-5.61-12.5-12.5,5.61-12.5,12.5-12.5Z"/>
    <path class="cls-2" d="M316,113.5c4.14,0,7.5-3.36,7.5-7.5v-5c0-4.14-3.36-7.5-7.5-7.5s-7.5,3.36-7.5,7.5v5c0,4.14,3.36,7.5,7.5,7.5Z"/>
    <path class="cls-2" d="M136,75c12.56,0,23.18-8.47,26.45-20h18.55c4.14,0,7.5,3.36,7.5,7.5v13.5c0,4.14,3.36,7.5,7.5,7.5s7.5-3.36,7.5-7.5v-13.5c0-12.41-10.09-22.5-22.5-22.5h-18.55c-3.27-11.53-13.89-20-26.45-20-15.16,0-27.5,12.34-27.5,27.5s12.34,27.5,27.5,27.5Zm0-40c6.89,0,12.5,5.61,12.5,12.5s-5.61,12.5-12.5,12.5-12.5-5.61-12.5-12.5,5.61-12.5,12.5-12.5Z"/>
    <path class="cls-2" d="M196,93.5c-4.14,0-7.5,3.36-7.5,7.5v5c0,4.14,3.36,7.5,7.5,7.5s7.5-3.36,7.5-7.5v-5c0-4.14-3.36-7.5-7.5-7.5Z"/>
    <path class="cls-2" d="M376,437c-12.56,0-23.18,8.47-26.45,20h-18.55c-4.14,0-7.5-3.36-7.5-7.5v-13.5c0-4.14-3.36-7.5-7.5-7.5s-7.5,3.36-7.5,7.5v13.5c0,12.41,10.09,22.5,22.5,22.5h18.55c3.27,11.53,13.89,20,26.45,20,15.16,0,27.5-12.34,27.5-27.5s-12.34-27.5-27.5-27.5Zm0,40c-6.89,0-12.5-5.61-12.5-12.5s5.61-12.5,12.5-12.5,12.5,5.61,12.5,12.5-5.61,12.5-12.5,12.5Z"/>
    <path class="cls-2" d="M316,418.5c4.14,0,7.5-3.36,7.5-7.5v-5c0-4.14-3.36-7.5-7.5-7.5s-7.5,3.36-7.5,7.5v5c0,4.14,3.36,7.5,7.5,7.5Z"/>
    <path class="cls-2" d="M196,428.5c-4.14,0-7.5,3.36-7.5,7.5v13.5c0,4.14-3.36,7.5-7.5,7.5h-18.55c-3.27-11.53-13.89-20-26.45-20-15.16,0-27.5,12.34-27.5,27.5s12.34,27.5,27.5,27.5c12.56,0,23.18-8.47,26.45-20h18.55c12.41,0,22.5-10.09,22.5-22.5v-13.5c0-4.14-3.36-7.5-7.5-7.5Zm-60,48.5c-6.89,0-12.5-5.61-12.5-12.5s5.61-12.5,12.5-12.5,12.5,5.61,12.5,12.5-5.61,12.5-12.5,12.5Z"/>
    <path class="cls-2" d="M196,398.5c-4.14,0-7.5,3.36-7.5,7.5v5c0,4.14,3.36,7.5,7.5,7.5s7.5-3.36,7.5-7.5v-5c0-4.14-3.36-7.5-7.5-7.5Z"/>
    <path class="cls-2" d="M479.5,223.5c-15.34,0-28.22,10.68-31.62,25h-64.38v-87.5c0-17.92-14.58-32.5-32.5-32.5h-87.5V64.12c14.32-3.4,25-16.28,25-31.62,0-17.92-14.58-32.5-32.5-32.5s-32.5,14.58-32.5,32.5c0,15.34,10.68,28.22,25,31.62v64.38h-87.5c-17.92,0-32.5,14.58-32.5,32.5v87.5H64.12c-3.4-14.32-16.28-25-31.62-25-17.92,0-32.5,14.58-32.5,32.5s14.58,32.5,32.5,32.5c15.34,0,28.22-10.68,31.62-25h64.38v87.5c0,17.92,14.58,32.5,32.5,32.5h87.5v64.38c-14.32,3.4-25,16.28-25,31.62,0,17.92,14.58,32.5,32.5,32.5s32.5-14.58,32.5-32.5c0-15.34-10.68-28.22-25-31.62v-64.38h87.5c17.92,0,32.5-14.58,32.5-32.5v-87.5h64.38c3.4,14.32,16.28,25,31.62,25,17.92,0,32.5-14.58,32.5-32.5s-14.58-32.5-32.5-32.5ZM238.5,32.5c0-9.65,7.85-17.5,17.5-17.5s17.5,7.85,17.5,17.5-7.85,17.5-17.5,17.5-17.5-7.85-17.5-17.5ZM32.5,273.5c-9.65,0-17.5-7.85-17.5-17.5s7.85-17.5,17.5-17.5,17.5,7.85,17.5,17.5-7.85,17.5-17.5,17.5Zm241,206c0,9.65-7.85,17.5-17.5,17.5s-17.5-7.85-17.5-17.5,7.85-17.5,17.5-17.5,17.5,7.85,17.5,17.5Zm95-128.5c0,9.65-7.85,17.5-17.5,17.5H161c-9.65,0-17.5-7.85-17.5-17.5V161c0-9.65,7.85-17.5,17.5-17.5h190c9.65,0,17.5,7.85,17.5,17.5v190Zm111-77.5c-9.65,0-17.5-7.85-17.5-17.5s7.85-17.5,17.5-17.5,17.5,7.85,17.5,17.5-7.85,17.5-17.5,17.5Z"/>
    <path class="cls-2" d="M472,349.55v-18.55c0-12.41-10.09-22.5-22.5-22.5h-13.5c-4.14,0-7.5,3.36-7.5,7.5s3.36,7.5,7.5,7.5h13.5c4.14,0,7.5,3.36,7.5,7.5v18.55c-11.53,3.27-20,13.89-20,26.45,0,15.16,12.34,27.5,27.5,27.5s27.5-12.34,27.5-27.5c0-12.56-8.47-23.18-20-26.45Zm-7.5,38.95c-6.89,0-12.5-5.61-12.5-12.5s5.61-12.5,12.5-12.5,12.5,5.61,12.5,12.5-5.61,12.5-12.5,12.5Z"/>
    <path class="cls-2" d="M411,308.5h-5c-4.14,0-7.5,3.36-7.5,7.5s3.36,7.5,7.5,7.5h5c4.14,0,7.5-3.36,7.5-7.5s-3.36-7.5-7.5-7.5Z"/>
    <path class="cls-2" d="M436,203.5h13.5c12.41,0,22.5-10.09,22.5-22.5v-18.55c11.53-3.27,20-13.89,20-26.45,0-15.16-12.34-27.5-27.5-27.5s-27.5,12.34-27.5,27.5c0,12.56,8.47,23.18,20,26.45v18.55c0,4.14-3.36,7.5-7.5,7.5h-13.5c-4.14,0-7.5,3.36-7.5,7.5s3.36,7.5,7.5,7.5Zm16-67.5c0-6.89,5.61-12.5,12.5-12.5s12.5,5.61,12.5,12.5-5.61,12.5-12.5,12.5-12.5-5.61-12.5-12.5Z"/>
    <path class="cls-2" d="M398.5,196c0,4.14,3.36,7.5,7.5,7.5h5c4.14,0,7.5-3.36,7.5-7.5s-3.36-7.5-7.5-7.5h-5c-4.14,0-7.5,3.36-7.5,7.5Z"/>
    <path class="cls-2" d="M76,308.5h-13.5c-12.41,0-22.5,10.09-22.5,22.5v18.55c-11.53,3.27-20,13.89-20,26.45,0,15.16,12.34,27.5,27.5,27.5s27.5-12.34,27.5-27.5c0-12.56-8.47-23.18-20-26.45v-18.55c0-4.14,3.36-7.5,7.5-7.5h13.5c4.14,0,7.5-3.36,7.5-7.5s-3.36-7.5-7.5-7.5Zm-16,67.5c0,6.89-5.61,12.5-12.5,12.5s-12.5-5.61-12.5-12.5,5.61-12.5,12.5-12.5,12.5,5.61,12.5,12.5Z"/>
    <path class="cls-2" d="M113.5,316c0-4.14-3.36-7.5-7.5-7.5h-5c-4.14,0-7.5,3.36-7.5,7.5s3.36,7.5,7.5,7.5h5c4.14,0,7.5-3.36,7.5-7.5Z"/>
    <path class="cls-2" d="M40,162.45v18.55c0,12.41,10.09,22.5,22.5,22.5h13.5c4.14,0,7.5-3.36,7.5-7.5s-3.36-7.5-7.5-7.5h-13.5c-4.14,0-7.5-3.36-7.5-7.5v-18.55c11.53-3.27,20-13.89,20-26.45,0-15.16-12.34-27.5-27.5-27.5s-27.5,12.34-27.5,27.5c0,12.56,8.47,23.18,20,26.45Zm7.5-38.95c6.89,0,12.5,5.61,12.5,12.5s-5.61,12.5-12.5,12.5-12.5-5.61-12.5-12.5,5.61-12.5,12.5-12.5Z"/>
    <path class="cls-2" d="M101,203.5h5c4.14,0,7.5-3.36,7.5-7.5s-3.36-7.5-7.5-7.5h-5c-4.14,0-7.5,3.36-7.5,7.5s3.36,7.5,7.5,7.5Z"/>
  </g>
  <g>
    <path class="cls-1" d="M254.6,213.5h-41.1v85h85v-41.1c-22.65-3.29-40.61-21.25-43.9-43.9Zm-11.1,70h-5c-4.14,0-7.5-3.36-7.5-7.5s3.36-7.5,7.5-7.5h5c4.14,0,7.5,3.36,7.5,7.5s-3.36,7.5-7.5,7.5Zm37.5-7.5c0,4.14-3.36,7.5-7.5,7.5h-5c-4.14,0-7.5-3.36-7.5-7.5s3.36-7.5,7.5-7.5h5c4.14,0,7.5,3.36,7.5,7.5Z"/>
    <path class="cls-1" d="M346,158.5H166c-4.14,0-7.5,3.36-7.5,7.5v180c0,4.14,3.36,7.5,7.5,7.5h180c4.14,0,7.5-3.36,7.5-7.5V166c0-4.14-3.36-7.5-7.5-7.5Zm-32.5,147.5c0,4.14-3.36,7.5-7.5,7.5h-100c-4.14,0-7.5-3.36-7.5-7.5v-100c0-4.14,3.36-7.5,7.5-7.5h55.56c4.14,0,7.5,3.36,7.5,7.5,0,20.37,16.57,36.94,36.94,36.94,4.14,0,7.5,3.36,7.5,7.5v55.56Zm-2.2-94.7l-5,5c-1.46,1.46-3.38,2.2-5.3,2.2s-3.84-.73-5.3-2.2c-2.93-2.93-2.93-7.68,0-10.61l5-5c2.93-2.93,7.68-2.93,10.61,0,2.93,2.93,2.93,7.68,0,10.61Z"/>
  </g>
</svg>