<?xml version="1.0" encoding="UTF-8"?>
<svg id="OBJECT" xmlns="http://www.w3.org/2000/svg" viewBox="0 0 32 32">
  <defs>
    <style>
      .cls-1 {
        fill: #FD4360;
      }

      .cls-1, .cls-2 {
        stroke-width: 0px;
      }

      .cls-2 {
        fill: #dadada;
      }
    </style>
  </defs>
  <g>
    <path class="cls-2" d="m25,19c-2.97,0-5.43,2.17-5.91,5h-2.68l1.29-1.29c.39-.39.39-1.02,0-1.41s-1.02-.39-1.41,0l-3,3c-.39.39-.39,1.02,0,1.41l3,3c.2.2.45.29.71.29s.51-.1.71-.29c.39-.39.39-1.02,0-1.41l-1.29-1.29h2.68c.48,2.83,2.94,5,5.91,5,3.31,0,6-2.69,6-6s-2.69-6-6-6Zm0,10c-2.21,0-4-1.79-4-4s1.79-4,4-4,4,1.79,4,4-1.79,4-4,4Z"/>
    <path class="cls-2" d="m28,1.5h-5c-1.65,0-3,1.35-3,3v5c0,1.65,1.35,3,3,3h1.5v2.59l-1.29-1.29c-.39-.39-1.02-.39-1.41,0s-.39,1.02,0,1.41l3,3c.2.2.45.29.71.29s.51-.1.71-.29l3-3c.39-.39.39-1.02,0-1.41s-1.02-.39-1.41,0l-1.29,1.29v-2.59h1.5c1.65,0,3-1.35,3-3v-5c0-1.65-1.35-3-3-3Zm1,8c0,.55-.45,1-1,1h-5c-.55,0-1-.45-1-1v-5c0-.55.45-1,1-1h5c.55,0,1,.45,1,1v5Z"/>
    <path class="cls-2" d="m15.59,8l-1.29,1.29c-.39.39-.39,1.02,0,1.41.2.2.45.29.71.29s.51-.1.71-.29l3-3c.39-.39.39-1.02,0-1.41l-3-3c-.39-.39-1.02-.39-1.41,0s-.39,1.02,0,1.41l1.29,1.29h-2.68c-.48-2.83-2.94-5-5.91-5C3.69,1,1,3.69,1,7s2.69,6,6,6c2.97,0,5.43-2.17,5.91-5h2.68Zm-8.59,3c-2.21,0-4-1.79-4-4s1.79-4,4-4,4,1.79,4,4-1.79,4-4,4Z"/>
  </g>
  <path class="cls-1" d="m12.64,26.11l-3.28-5.73c-.48-.85-1.39-1.37-2.36-1.37s-1.88.53-2.36,1.37l-3.28,5.73c-.23.41-.36.88-.36,1.35v.82c0,1.5,1.22,2.72,2.72,2.72h6.55c1.5,0,2.72-1.22,2.72-2.72v-.82c0-.47-.12-.94-.36-1.35Z"/>
</svg>