<?xml version="1.0" encoding="UTF-8"?>
<svg id="OBJECT" xmlns="http://www.w3.org/2000/svg" viewBox="0 0 32 32">
  <defs>
    <style>
      .cls-1 {
        fill: #FD4360;
      }

      .cls-1, .cls-2 {
        stroke-width: 0px;
      }

      .cls-2 {
        fill: #dadada;
      }
    </style>
  </defs>
  <path class="cls-2" d="m30,15h-3.5v-3h2.5c.55,0,1-.45,1-1s-.45-1-1-1h-2.5v-1.5c0-1.65-1.35-3-3-3h-1.5v-2.5c0-.55-.45-1-1-1s-1,.45-1,1v2.5h-3v-3.5c0-.55-.45-1-1-1s-1,.45-1,1v3.5h-3v-2.5c0-.55-.45-1-1-1s-1,.45-1,1v2.5h-1.5c-1.65,0-3,1.35-3,3v1.5h-2.5c-.55,0-1,.45-1,1s.45,1,1,1h2.5v3h-3.5c-.55,0-1,.45-1,1s.45,1,1,1h3.5v3h-2.5c-.55,0-1,.45-1,1s.45,1,1,1h2.5v1.5c0,1.65,1.35,3,3,3h1.5v2.5c0,.55.45,1,1,1s1-.45,1-1v-2.5h3v3.5c0,.55.45,1,1,1s1-.45,1-1v-3.5h3v2.5c0,.55.45,1,1,1s1-.45,1-1v-2.5h1.5c1.65,0,3-1.35,3-3v-1.5h2.5c.55,0,1-.45,1-1s-.45-1-1-1h-2.5v-3h3.5c.55,0,1-.45,1-1s-.45-1-1-1Zm-5.5,8.5c0,.55-.45,1-1,1h-15c-.55,0-1-.45-1-1v-15c0-.55.45-1,1-1h15c.55,0,1,.45,1,1v15Z"/>
  <g>
    <path class="cls-1" d="m23,17.64v-4.36c0-.55-.45-1-1-1-1.25,0-2.27-1.02-2.27-2.27,0-.55-.45-1-1-1h-8.73c-.55,0-1,.45-1,1v7.64h14Zm-10-5.64h1c.55,0,1,.45,1,1s-.45,1-1,1h-1c-.55,0-1-.45-1-1s.45-1,1-1Z"/>
    <path class="cls-1" d="m9,19.64v2.36c0,.55.45,1,1,1h12c.55,0,1-.45,1-1v-2.36h-14Z"/>
  </g>
</svg>