<?xml version="1.0" encoding="UTF-8"?>
<svg id="OBJECT" xmlns="http://www.w3.org/2000/svg" viewBox="0 0 32 32">
  <defs>
    <style>
      .cls-1 {
        fill: #FD4360;
      }

      .cls-1, .cls-2 {
        stroke-width: 0px;
      }

      .cls-2 {
        fill: #dadada;
      }
    </style>
  </defs>
  <path class="cls-2" d="m30,16.83h-4.5v-1.67h4.5c.55,0,1-.45,1-1s-.45-1-1-1h-4.5v-1.67h2.5c.55,0,1-.45,1-1s-.45-1-1-1h-2.5c0-1.65-1.35-3-3-3v-2.5c0-.55-.45-1-1-1s-1,.45-1,1v2.5h-1.67V2c0-.55-.45-1-1-1s-1,.45-1,1v4.5h-1.67V2c0-.55-.45-1-1-1s-1,.45-1,1v4.5h-1.67v-2.5c0-.55-.45-1-1-1s-1,.45-1,1v2.5c-1.65,0-3,1.35-3,3h-2.5c-.55,0-1,.45-1,1s.45,1,1,1h2.5v1.67H2c-.55,0-1,.45-1,1s.45,1,1,1h4.5v1.67H2c-.55,0-1,.45-1,1s.45,1,1,1h4.5v1.67h-2.5c-.55,0-1,.45-1,1s.45,1,1,1h2.5c0,1.65,1.35,3,3,3v2.5c0,.55.45,1,1,1s1-.45,1-1v-2.5h1.67v4.5c0,.55.45,1,1,1s1-.45,1-1v-4.5h1.67v4.5c0,.55.45,1,1,1s1-.45,1-1v-4.5h1.67v2.5c0,.55.45,1,1,1s1-.45,1-1v-2.5c1.65,0,3-1.35,3-3h2.5c.55,0,1-.45,1-1s-.45-1-1-1h-2.5v-1.67h4.5c.55,0,1-.45,1-1s-.45-1-1-1Zm-6.5,5.67c0,.55-.45,1-1,1h-13c-.55,0-1-.45-1-1v-13c0-.55.45-1,1-1h13c.55,0,1,.45,1,1v13Z"/>
  <path class="cls-1" d="m21,13c-1.1,0-2-.9-2-2,0-.55-.45-1-1-1h-7c-.55,0-1,.45-1,1v10c0,.55.45,1,1,1h10c.55,0,1-.45,1-1v-7c0-.55-.45-1-1-1Zm-6.43,6h-.57c-.55,0-1-.45-1-1s.45-1,1-1h.57c.55,0,1,.45,1,1s-.45,1-1,1Zm3.43,0h-.57c-.55,0-1-.45-1-1s.45-1,1-1h.57c.55,0,1,.45,1,1s-.45,1-1,1Z"/>
</svg>