<?xml version="1.0" encoding="UTF-8"?>
<svg id="OBJECT" xmlns="http://www.w3.org/2000/svg" viewBox="0 0 32 32">
  <defs>
    <style>
      .cls-1 {
        fill: #FD4360;
      }

      .cls-1, .cls-2 {
        stroke-width: 0px;
      }

      .cls-2 {
        fill: #dadada;
      }
    </style>
  </defs>
  <g>
    <path class="cls-2" d="m8.5,20.5c-.55,0-1,.45-1,1v.5c0,.55.45,1,1,1s1-.45,1-1v-.5c0-.55-.45-1-1-1Z"/>
    <path class="cls-2" d="m27.5,1H3.5c-1.38,0-2.5,1.12-2.5,2.5v4.5c0,.55.45,1,1,1h.5v16.5c0,1.38,1.12,2.5,2.5,2.5h8c.55,0,1-.45,1-1s-.45-1-1-1H5c-.28,0-.5-.22-.5-.5V9h3v9c0,.55.45,1,1,1s1-.45,1-1v-9h17v5c0,.55.45,1,1,1s1-.45,1-1v-5h.5c.55,0,1-.45,1-1V3.5c0-1.38-1.12-2.5-2.5-2.5ZM3,3.5c0-.28.22-.5.5-.5h24c.28,0,.5.22.5.5v3.5H3v-3.5Z"/>
  </g>
  <path class="cls-1" d="m28,17h-9c-1.65,0-3,1.35-3,3v8c0,1.65,1.35,3,3,3h9c1.65,0,3-1.35,3-3v-8c0-1.65-1.35-3-3-3Zm-.5,7c0,1.65-1.35,3-3,3h-2c-1.65,0-3-1.35-3-3v-2c0-.55.45-1,1-1s1,.45,1,1v2c0,.55.45,1,1,1h2c.55,0,1-.45,1-1v-2c0-.55.45-1,1-1s1,.45,1,1v2Z"/>
</svg>