<?xml version="1.0" encoding="UTF-8"?>
<svg id="OBJECT" xmlns="http://www.w3.org/2000/svg" viewBox="0 0 32 32">
  <defs>
    <style>
      .cls-1 {
        fill: #FD4360;
      }

      .cls-1, .cls-2 {
        stroke-width: 0px;
      }

      .cls-2 {
        fill: #dadada;
      }
    </style>
  </defs>
  <path class="cls-2" d="m29.97,29h-.67V8.81c0-1.38-1.12-2.5-2.5-2.5h-.62c-1.38,0-2.5,1.12-2.5,2.5v20.19h-1.38v-11.19c0-1.38-1.12-2.5-2.5-2.5h-.62c-1.38,0-2.5,1.12-2.5,2.5v11.19h-1.38v-8.19c0-1.38-1.12-2.5-2.5-2.5h-.62c-1.38,0-2.5,1.12-2.5,2.5v8.19h-1.38v-3.19c0-1.38-1.12-2.5-2.5-2.5h-.62c-1.38,0-2.5,1.12-2.5,2.5v3.19h-.67c-.57,0-1.03.45-1.03,1s.46,1,1.03,1h27.95c.57,0,1.03-.45,1.03-1s-.46-1-1.03-1Zm-4.28-20.19c0-.28.22-.5.5-.5h.62c.28,0,.5.22.5.5v20.19h-1.62V8.81Zm-7,9c0-.28.22-.5.5-.5h.62c.28,0,.5.22.5.5v11.19h-1.62v-11.19Zm-7,3c0-.28.22-.5.5-.5h.62c.28,0,.5.22.5.5v8.19h-1.62v-8.19Zm-7,5c0-.28.22-.5.5-.5h.62c.28,0,.5.22.5.5v3.19h-1.62v-3.19Z"/>
  <path class="cls-1" d="m8.5,16c4.14,0,7.5-3.36,7.5-7.5S12.64,1,8.5,1,1,4.36,1,8.5s3.36,7.5,7.5,7.5Zm.83-6.5h-1.67c-1.47,0-2.67-1.2-2.67-2.67s1.11-2.56,2.5-2.65v-.68c0-.55.45-1,1-1s1,.45,1,1v.67h1.5c.55,0,1,.45,1,1s-.45,1-1,1h-3.33c-.37,0-.67.3-.67.67s.3.67.67.67h1.67c1.47,0,2.67,1.2,2.67,2.67s-1.11,2.56-2.5,2.65v.68c0,.55-.45,1-1,1s-1-.45-1-1v-.67h-1.5c-.55,0-1-.45-1-1s.45-1,1-1h3.33c.37,0,.67-.3.67-.67s-.3-.67-.67-.67Z"/>
</svg>