<?xml version="1.0" encoding="UTF-8"?>
<svg id="OBJECT" xmlns="http://www.w3.org/2000/svg" viewBox="0 0 32 32">
  <defs>
    <style>
      .cls-1 {
        fill: #FD4360;
      }

      .cls-1, .cls-2 {
        stroke-width: 0px;
      }

      .cls-2 {
        fill: #dadada;
      }
    </style>
  </defs>
  <path class="cls-2" d="m14,1C6.83,1,1,6.83,1,14s5.83,13,13,13c.78,0,1.53-.07,2.23-.21.54-.11.89-.63.79-1.17s-.64-.9-1.17-.79c-.57.11-1.19.17-1.85.17-3.85,0-7.23-1.99-9.2-4.99,1.3-2,3.21-3.51,5.46-4.33,1.03.82,2.33,1.32,3.74,1.32s2.71-.49,3.73-1.31c1.15.42,2.21,1.01,3.15,1.78.19.15.41.23.63.23.29,0,.58-.12.77-.37.35-.43.29-1.06-.14-1.41-.92-.75-1.93-1.36-3.02-1.84.55-.9.87-1.96.87-3.09,0-3.31-2.69-6-6-6s-6,2.69-6,6c0,1.13.32,2.18.86,3.08-2.01.86-3.75,2.22-5.09,3.93-.49-1.25-.77-2.6-.77-4.02C3,7.93,7.93,3,14,3s11,4.93,11,11c0,.65-.06,1.27-.17,1.85-.11.54.24,1.07.79,1.17.54.11,1.07-.24,1.17-.79.14-.7.21-1.45.21-2.23,0-7.17-5.83-13-13-13Zm0,6c2.21,0,4,1.79,4,4s-1.79,4-4,4-4-1.79-4-4,1.79-4,4-4Z"/>
  <path class="cls-1" d="m25,19c-3.31,0-6,2.69-6,6s2.69,6,6,6,6-2.69,6-6-2.69-6-6-6Zm2.99,5.17l-2.73,3c-.19.21-.46.33-.74.33s-.55-.12-.74-.33l-1.77-1.95c-.37-.41-.34-1.04.07-1.41.41-.37,1.04-.34,1.41.07l1.03,1.13,1.99-2.19c.37-.41,1.01-.44,1.41-.07.41.37.44,1,.07,1.41Z"/>
</svg>