<?xml version="1.0" encoding="UTF-8"?>
<svg id="OBJECT" xmlns="http://www.w3.org/2000/svg" viewBox="0 0 512 512">
  <defs>
    <style>
      .cls-1 {
        fill: #FD4360;
      }

      .cls-2 {
        fill: #dadada;
      }
    </style>
  </defs>
  <g>
    <path class="cls-2" d="M489.5,100h-51V7.5c0-4.14-3.36-7.5-7.5-7.5H81c-4.14,0-7.5,3.36-7.5,7.5V100H22.5c-12.41,0-22.5,10.09-22.5,22.5V409.5c0,12.41,10.09,22.5,22.5,22.5H208.5v35h-57.5c-12.41,0-22.5,10.09-22.5,22.5v15c0,4.14,3.36,7.5,7.5,7.5h240c4.14,0,7.5-3.36,7.5-7.5v-15c0-12.41-10.09-22.5-22.5-22.5h-57.5v-35h186c12.41,0,22.5-10.09,22.5-22.5V122.5c0-12.41-10.09-22.5-22.5-22.5Zm0,15c4.14,0,7.5,3.36,7.5,7.5v234.5h-58.5V115h51Zm-66,242H88.5V75H423.5V357Zm0-342V60H88.5V15H423.5ZM22.5,115h51v242H15V122.5c0-4.14,3.36-7.5,7.5-7.5ZM368.5,489.5v7.5H143.5v-7.5c0-4.14,3.36-7.5,7.5-7.5h210c4.14,0,7.5,3.36,7.5,7.5Zm-80-22.5h-65v-35h65v35Zm201-50H22.5c-4.14,0-7.5-3.36-7.5-7.5v-37.5H497v37.5c0,4.14-3.36,7.5-7.5,7.5Z"/>
    <path class="cls-2" d="M213.5,387h-15c-4.14,0-7.5,3.36-7.5,7.5s3.36,7.5,7.5,7.5h15c4.14,0,7.5-3.36,7.5-7.5s-3.36-7.5-7.5-7.5Z"/>
    <path class="cls-2" d="M263.5,387h-15c-4.14,0-7.5,3.36-7.5,7.5s3.36,7.5,7.5,7.5h15c4.14,0,7.5-3.36,7.5-7.5s-3.36-7.5-7.5-7.5Z"/>
    <path class="cls-2" d="M313.5,387h-15c-4.14,0-7.5,3.36-7.5,7.5s3.36,7.5,7.5,7.5h15c4.14,0,7.5-3.36,7.5-7.5s-3.36-7.5-7.5-7.5Z"/>
    <path class="cls-2" d="M311,45h10c4.14,0,7.5-3.36,7.5-7.5s-3.36-7.5-7.5-7.5h-10c-4.14,0-7.5,3.36-7.5,7.5s3.36,7.5,7.5,7.5Z"/>
    <path class="cls-2" d="M351,45h10c4.14,0,7.5-3.36,7.5-7.5s-3.36-7.5-7.5-7.5h-10c-4.14,0-7.5,3.36-7.5,7.5s3.36,7.5,7.5,7.5Z"/>
    <path class="cls-2" d="M391,45h10c4.14,0,7.5-3.36,7.5-7.5s-3.36-7.5-7.5-7.5h-10c-4.14,0-7.5,3.36-7.5,7.5s3.36,7.5,7.5,7.5Z"/>
  </g>
  <g>
    <path class="cls-1" d="M351,317H161c-4.14,0-7.5,3.36-7.5,7.5s3.36,7.5,7.5,7.5h190c4.14,0,7.5-3.36,7.5-7.5s-3.36-7.5-7.5-7.5Z"/>
    <path class="cls-1" d="M131,317h-15c-4.14,0-7.5,3.36-7.5,7.5s3.36,7.5,7.5,7.5h15c4.14,0,7.5-3.36,7.5-7.5s-3.36-7.5-7.5-7.5Z"/>
    <path class="cls-1" d="M396,317h-15c-4.14,0-7.5,3.36-7.5,7.5s3.36,7.5,7.5,7.5h15c4.14,0,7.5-3.36,7.5-7.5s-3.36-7.5-7.5-7.5Z"/>
    <path class="cls-1" d="M223.71,199.29c-20.55,9.36-35.7,27.03-41.99,48.26,16.87,22.7,43.89,37.44,74.28,37.44s57.41-14.74,74.28-37.44c-6.29-21.23-21.44-38.9-41.99-48.26-3.14,14.95-16.43,26.21-32.29,26.21s-29.15-11.26-32.29-26.21Z"/>
    <path class="cls-1" d="M181.81,214.53c10.46-14.02,24.94-24.93,41.19-31.16v-29.11c0-11.17,9.08-20.25,20.25-20.25h25.5c11.17,0,20.25,9.08,20.25,20.25v29.11c16.25,6.24,30.74,17.14,41.19,31.16,3.9,5.22,7.18,10.77,9.86,16.57,5.42-11.75,8.45-24.83,8.45-38.6,0-51-41.5-92.5-92.5-92.5s-92.5,41.5-92.5,92.5c0,13.77,3.03,26.84,8.45,38.6,2.68-5.8,5.96-11.35,9.86-16.57Z"/>
    <path class="cls-1" d="M274,192.5v-38.25c0-2.89-2.36-5.25-5.25-5.25h-25.5c-2.9,0-5.25,2.36-5.25,5.25v38.25c0,9.92,8.07,18,18,18s18-8.08,18-18Z"/>
  </g>
</svg>