<?xml version="1.0" encoding="UTF-8"?>
<svg id="OBJECT" xmlns="http://www.w3.org/2000/svg" viewBox="0 0 32 32">
  <defs>
    <style>
      .cls-1 {
        fill: #FD4360;
      }

      .cls-1, .cls-2 {
        stroke-width: 0px;
      }

      .cls-2 {
        fill: #dadada;
      }
    </style>
  </defs>
  <g>
    <path class="cls-2" d="m26.91,5.02c-.4-.39-1.03-.38-1.41.02l-2.03,2.09c-.39.4-.38,1.03.02,1.41.19.19.45.28.7.28s.52-.1.72-.3l2.03-2.09c.39-.4.38-1.03-.02-1.41Z"/>
    <path class="cls-2" d="m28,10.77h-.01l-1.41.02c-.55,0-.99.46-.99,1.01,0,.55.45.99,1,.99h.01l1.41-.02c.55,0,.99-.46.99-1.01,0-.55-.45-.99-1-.99Z"/>
    <path class="cls-2" d="m20.25,3c-.57-.04-1.01.43-1.01.99l-.02,1.41c0,.55.43,1.01.99,1.01h.01c.55,0,.99-.44,1-.99l.02-1.41c0-.55-.43-1.01-.99-1.01Z"/>
    <path class="cls-2" d="m15.12,9.93c.29-.67.45-1.41.45-2.18v-3.81c0-1.62-1.32-2.94-2.94-2.94h-5.25c-1.62,0-2.94,1.32-2.94,2.94v3.81c0,.77.16,1.51.45,2.18-2.33,1.11-3.88,3.47-3.88,6.12v5.03c0,1.59,1.29,2.88,2.88,2.88h7.62c.55,0,1-.45,1-1s-.45-1-1-1h-3.79v-4.09c0-.55-.45-1-1-1s-1,.45-1,1v4.09h-1.82c-.49,0-.88-.4-.88-.88v-5.03c0-1.97,1.21-3.71,3.01-4.43,1.01,1.03,2.41,1.67,3.96,1.67h.07c1.55,0,2.96-.65,3.97-1.68,1.34.55,2.39,1.7,2.81,3.12.13.44.53.72.96.72.09,0,.19-.01.28-.04.53-.16.83-.71.68-1.24-.55-1.87-1.88-3.4-3.61-4.23Zm-5.09,1.36h-.07c-1.16,0-2.19-.57-2.83-1.44,0,0-.01-.01-.02-.02-.43-.58-.69-1.3-.69-2.07v-3.81c0-.52.42-.94.94-.94h5.25c.52,0,.94.42.94.94v3.81c0,.77-.26,1.49-.68,2.07,0,0-.01.01-.02.02-.64.87-1.67,1.45-2.84,1.45Z"/>
  </g>
  <g>
    <path class="cls-1" d="m29.65,25.49v-7.08c0-1.05-.85-1.9-1.9-1.9h-12.5c-1.05,0-1.9.85-1.9,1.9v7.08s0,0,0,0h16.29Zm-8.63-5.49h.97c.55,0,1,.45,1,1s-.45,1-1,1h-.97c-.55,0-1-.45-1-1s.45-1,1-1Z"/>
    <path class="cls-1" d="m12,27.39v1.71c0,1.05.85,1.9,1.9,1.9h15.2c1.05,0,1.9-.85,1.9-1.9v-1.71H12Z"/>
  </g>
</svg>