<?xml version="1.0" encoding="UTF-8"?>
<svg id="OBJECT" xmlns="http://www.w3.org/2000/svg" viewBox="0 0 512 512">
  <defs>
    <style>
      .cls-1 {
        fill: #FD4360;
      }

      .cls-2 {
        fill: #dadada;
      }
    </style>
  </defs>
  <g>
    <path class="cls-2" d="M22.1,182H119.73l63.79,54.68c4,3.43,9.11,5.32,14.38,5.32,12.19,0,22.1-9.91,22.1-22.1v-37.9h2.9c12.19,0,22.1-9.91,22.1-22.1V22.1c0-12.19-9.91-22.1-22.1-22.1H22.1C9.91,0,0,9.91,0,22.1V159.9c0,12.19,9.91,22.1,22.1,22.1ZM15,22.1c0-3.91,3.18-7.1,7.1-7.1H222.9c3.91,0,7.1,3.18,7.1,7.1V159.9c0,3.91-3.18,7.1-7.1,7.1h-40.4c-4.14,0-7.5,3.36-7.5,7.5s3.36,7.5,7.5,7.5h22.5v37.9c0,3.91-3.18,7.1-7.1,7.1-1.69,0-3.33-.61-4.62-1.71l-65.9-56.49c-1.36-1.17-3.09-1.81-4.88-1.81H22.1c-3.91,0-7.1-3.18-7.1-7.1V22.1Z"/>
    <path class="cls-2" d="M167.5,397H77.5c-4.14,0-7.5,3.36-7.5,7.5s3.36,7.5,7.5,7.5h90c4.14,0,7.5-3.36,7.5-7.5s-3.36-7.5-7.5-7.5Z"/>
    <path class="cls-2" d="M37.5,412h10c4.14,0,7.5-3.36,7.5-7.5s-3.36-7.5-7.5-7.5h-10c-4.14,0-7.5,3.36-7.5,7.5s3.36,7.5,7.5,7.5Z"/>
    <path class="cls-2" d="M127.5,427H37.5c-4.14,0-7.5,3.36-7.5,7.5s3.36,7.5,7.5,7.5H127.5c4.14,0,7.5-3.36,7.5-7.5s-3.36-7.5-7.5-7.5Z"/>
    <path class="cls-2" d="M167.5,427h-10c-4.14,0-7.5,3.36-7.5,7.5s3.36,7.5,7.5,7.5h10c4.14,0,7.5-3.36,7.5-7.5s-3.36-7.5-7.5-7.5Z"/>
    <path class="cls-2" d="M489.5,307h-15.12c-4.14,0-7.5,3.36-7.5,7.5s3.36,7.5,7.5,7.5h15.12c4.14,0,7.5,3.36,7.5,7.5v120c0,4.14-3.36,7.5-7.5,7.5H205v-62.5c0-15.16-12.34-27.5-27.5-27.5H15v-37.5c0-4.14,3.36-7.5,7.5-7.5H204.62c4.14,0,7.5-3.36,7.5-7.5s-3.36-7.5-7.5-7.5H22.5c-12.41,0-22.5,10.09-22.5,22.5v120c0,12.41,10.09,22.5,22.5,22.5h7.5v32.5c0,4.14,3.36,7.5,7.5,7.5h110c4.14,0,7.5-3.36,7.5-7.5v-32.5h202v32.5c0,4.14,3.36,7.5,7.5,7.5h110c4.14,0,7.5-3.36,7.5-7.5v-32.5h7.5c12.41,0,22.5-10.09,22.5-22.5v-120c0-12.41-10.09-22.5-22.5-22.5ZM15,449.5v-67.5H177.5c6.89,0,12.5,5.61,12.5,12.5v62.5H22.5c-4.14,0-7.5-3.36-7.5-7.5Zm125,47.5H45v-25h95v25Zm327,0h-95v-25h95v25Z"/>
    <path class="cls-2" d="M474.5,379.5c4.14,0,7.5-3.36,7.5-7.5v-15c0-4.14-3.36-7.5-7.5-7.5s-7.5,3.36-7.5,7.5v15c0,4.14,3.36,7.5,7.5,7.5Z"/>
    <path class="cls-2" d="M467,422c0,4.14,3.36,7.5,7.5,7.5s7.5-3.36,7.5-7.5v-15c0-4.14-3.36-7.5-7.5-7.5s-7.5,3.36-7.5,7.5v15Z"/>
    <path class="cls-2" d="M42.5,98.5H202.5c4.14,0,7.5-3.36,7.5-7.5s-3.36-7.5-7.5-7.5H42.5c-4.14,0-7.5,3.36-7.5,7.5s3.36,7.5,7.5,7.5Z"/>
    <path class="cls-2" d="M82.5,53.5h120c4.14,0,7.5-3.36,7.5-7.5s-3.36-7.5-7.5-7.5H82.5c-4.14,0-7.5,3.36-7.5,7.5s3.36,7.5,7.5,7.5Z"/>
    <path class="cls-2" d="M42.5,53.5h10c4.14,0,7.5-3.36,7.5-7.5s-3.36-7.5-7.5-7.5h-10c-4.14,0-7.5,3.36-7.5,7.5s3.36,7.5,7.5,7.5Z"/>
    <path class="cls-2" d="M42.5,143.5h120c4.14,0,7.5-3.36,7.5-7.5s-3.36-7.5-7.5-7.5H42.5c-4.14,0-7.5,3.36-7.5,7.5s3.36,7.5,7.5,7.5Z"/>
    <path class="cls-2" d="M202.5,128.5h-10c-4.14,0-7.5,3.36-7.5,7.5s3.36,7.5,7.5,7.5h10c4.14,0,7.5-3.36,7.5-7.5s-3.36-7.5-7.5-7.5Z"/>
  </g>
  <g>
    <path class="cls-1" d="M339.5,242c-37.22,0-67.5,30.28-67.5,67.5s30.28,67.5,67.5,67.5,67.5-30.28,67.5-67.5-30.28-67.5-67.5-67.5Zm0,115c-26.19,0-47.5-21.31-47.5-47.5s21.31-47.5,47.5-47.5c4.14,0,7.5,3.36,7.5,7.5,0,17.92,14.58,32.5,32.5,32.5,4.14,0,7.5,3.36,7.5,7.5,0,26.19-21.31,47.5-47.5,47.5Z"/>
    <path class="cls-1" d="M339.5,197c-62.03,0-112.5,50.47-112.5,112.5s50.47,112.5,112.5,112.5,112.5-50.47,112.5-112.5-50.47-112.5-112.5-112.5Zm0,195c-45.49,0-82.5-37.01-82.5-82.5s37.01-82.5,82.5-82.5,82.5,37.01,82.5,82.5-37.01,82.5-82.5,82.5Z"/>
    <path class="cls-1" d="M332.71,277.71c-14.67,3.13-25.71,16.19-25.71,31.79,0,17.92,14.58,32.5,32.5,32.5,15.59,0,28.66-11.04,31.79-25.71-19.62-3.43-35.14-18.95-38.58-38.58Z"/>
  </g>
</svg>