<?xml version="1.0" encoding="UTF-8"?>
<svg id="OBJECT" xmlns="http://www.w3.org/2000/svg" viewBox="0 0 512 512">
  <defs>
    <style>
      .cls-1 {
        fill: #FD4360;
      }

      .cls-2 {
        fill: #dadada;
      }
    </style>
  </defs>
  <g>
    <path class="cls-2" d="M484.5,227h-91v-37.5c0-12.41-10.09-22.5-22.5-22.5H141c-12.41,0-22.5,10.09-22.5,22.5v37.5H27.5c-15.16,0-27.5,12.34-27.5,27.5v110c0,15.16,12.34,27.5,27.5,27.5h111.03c-.02,.83-.03,1.66-.03,2.5,0,64.79,52.71,117.5,117.5,117.5s117.5-52.71,117.5-117.5c0-.84-.01-1.67-.03-2.5h111.03c15.16,0,27.5-12.34,27.5-27.5v-110c0-15.16-12.34-27.5-27.5-27.5Zm-351-37.5c0-4.14,3.36-7.5,7.5-7.5h230c4.14,0,7.5,3.36,7.5,7.5v37.5H133.5v-37.5ZM15,364.5v-52.5h62.5c6.89,0,12.5,5.61,12.5,12.5v52.5H27.5c-6.89,0-12.5-5.61-12.5-12.5Zm241,132.5c-56.52,0-102.5-45.98-102.5-102.5s45.98-102.5,102.5-102.5,102.5,45.98,102.5,102.5-45.98,102.5-102.5,102.5Zm0-220c-58.84,0-107.72,43.48-116.2,100h-34.8v-52.5c0-15.16-12.34-27.5-27.5-27.5H15v-42.5c0-6.89,5.61-12.5,12.5-12.5H417v135h-44.8c-8.48-56.52-57.35-100-116.2-100Zm241,87.5c0,6.89-5.61,12.5-12.5,12.5h-52.5V242h52.5c6.89,0,12.5,5.61,12.5,12.5v110Z"/>
    <path class="cls-2" d="M256,307c-48.25,0-87.5,39.25-87.5,87.5s39.25,87.5,87.5,87.5,87.5-39.25,87.5-87.5-39.25-87.5-87.5-87.5Zm0,160c-39.98,0-72.5-32.52-72.5-72.5s32.52-72.5,72.5-72.5,72.5,32.52,72.5,72.5-32.52,72.5-72.5,72.5Z"/>
    <path class="cls-2" d="M296.44,375.57c-10.31-3.17-18.35-11.21-21.51-21.51-.73-2.38-2.59-4.24-4.97-4.97-4.52-1.39-9.21-2.09-13.96-2.09-26.19,0-47.5,21.31-47.5,47.5s21.31,47.5,47.5,47.5,47.5-21.31,47.5-47.5c0-4.75-.7-9.45-2.09-13.96-.73-2.38-2.59-4.24-4.97-4.97Zm-40.44,51.43c-17.92,0-32.5-14.58-32.5-32.5s14.58-32.5,32.5-32.5c2.04,0,4.07,.19,6.06,.57,4.82,11.74,14.13,21.06,25.88,25.88,.38,1.99,.56,4.02,.56,6.06,0,17.92-14.58,32.5-32.5,32.5Z"/>
    <path class="cls-2" d="M168.5,197h-12.5c-4.14,0-7.5,3.36-7.5,7.5s3.36,7.5,7.5,7.5h12.5c4.14,0,7.5-3.36,7.5-7.5s-3.36-7.5-7.5-7.5Z"/>
    <path class="cls-2" d="M231,197h-12.5c-4.14,0-7.5,3.36-7.5,7.5s3.36,7.5,7.5,7.5h12.5c4.14,0,7.5-3.36,7.5-7.5s-3.36-7.5-7.5-7.5Z"/>
    <path class="cls-2" d="M293.5,197h-12.5c-4.14,0-7.5,3.36-7.5,7.5s3.36,7.5,7.5,7.5h12.5c4.14,0,7.5-3.36,7.5-7.5s-3.36-7.5-7.5-7.5Z"/>
    <path class="cls-2" d="M356,197h-12.5c-4.14,0-7.5,3.36-7.5,7.5s3.36,7.5,7.5,7.5h12.5c4.14,0,7.5-3.36,7.5-7.5s-3.36-7.5-7.5-7.5Z"/>
    <path class="cls-2" d="M72.5,352H32.5c-4.14,0-7.5,3.36-7.5,7.5s3.36,7.5,7.5,7.5h40c4.14,0,7.5-3.36,7.5-7.5s-3.36-7.5-7.5-7.5Z"/>
    <path class="cls-2" d="M72.5,322H32.5c-4.14,0-7.5,3.36-7.5,7.5s3.36,7.5,7.5,7.5h40c4.14,0,7.5-3.36,7.5-7.5s-3.36-7.5-7.5-7.5Z"/>
    <path class="cls-2" d="M472,262h-15c-4.14,0-7.5,3.36-7.5,7.5s3.36,7.5,7.5,7.5h15c4.14,0,7.5-3.36,7.5-7.5s-3.36-7.5-7.5-7.5Z"/>
    <path class="cls-2" d="M472,302h-15c-4.14,0-7.5,3.36-7.5,7.5s3.36,7.5,7.5,7.5h15c4.14,0,7.5-3.36,7.5-7.5s-3.36-7.5-7.5-7.5Z"/>
    <path class="cls-2" d="M472,342h-15c-4.14,0-7.5,3.36-7.5,7.5s3.36,7.5,7.5,7.5h15c4.14,0,7.5-3.36,7.5-7.5s-3.36-7.5-7.5-7.5Z"/>
  </g>
  <g>
    <path class="cls-1" d="M418.5,0H93.5c-11.05,0-20,8.95-20,20v20H438.5V20c0-11.05-8.95-20-20-20Z"/>
    <rect class="cls-1" x="238.5" y="55" width="35" height="97"/>
    <path class="cls-1" d="M288.5,120.36l22.96-5.74c10.03-2.51,17.04-11.48,17.04-21.83V55h-40V120.36Z"/>
    <path class="cls-1" d="M183.5,92.79c0,10.34,7.01,19.32,17.04,21.83l22.96,5.74V55h-40v37.79Z"/>
  </g>
</svg>