<?xml version="1.0" encoding="UTF-8"?>
<svg id="OBJECT" xmlns="http://www.w3.org/2000/svg" viewBox="0 0 32 32">
  <defs>
    <style>
      .cls-1 {
        fill: #FD4360;
      }

      .cls-1, .cls-2 {
        stroke-width: 0px;
      }

      .cls-2 {
        fill: #dadada;
      }
    </style>
  </defs>
  <g>
    <path class="cls-2" d="m5.53,11h4.93c.55,0,1-.45,1-1s-.45-1-1-1h-4.93c-.55,0-1,.45-1,1s.45,1,1,1Z"/>
    <path class="cls-2" d="m14.47,11c.55,0,1-.45,1-1s-.45-1-1-1h-.93c-.55,0-1,.45-1,1s.45,1,1,1h.93Z"/>
    <path class="cls-2" d="m5.53,15h6.93c.55,0,1-.45,1-1s-.45-1-1-1h-6.93c-.55,0-1,.45-1,1s.45,1,1,1Z"/>
    <path class="cls-2" d="m5.53,19h6.93c.55,0,1-.45,1-1s-.45-1-1-1h-6.93c-.55,0-1,.45-1,1s.45,1,1,1Z"/>
    <path class="cls-2" d="m14.47,22c0-.55-.45-1-1-1h-7.93c-.55,0-1,.45-1,1s.45,1,1,1h7.93c.55,0,1-.45,1-1Z"/>
    <path class="cls-2" d="m9.53,27h6.93c.55,0,1-.45,1-1s-.45-1-1-1h-6.93c-.55,0-1,.45-1,1s.45,1,1,1Z"/>
    <path class="cls-2" d="m5.53,25c-.55,0-1,.45-1,1s.45,1,1,1h.93c.55,0,1-.45,1-1s-.45-1-1-1h-.93Z"/>
    <path class="cls-2" d="m22,8c.55,0,1-.45,1-1v-1.5c0-1.38-1.14-2.5-2.53-2.5h-3.4c-.41-1.16-1.51-2-2.82-2h-5c-1.3,0-2.4.84-2.82,2h-2.9c-1.4,0-2.54,1.12-2.54,2.5v23c0,1.38,1.14,2.5,2.54,2.5h16.93c1.4,0,2.53-1.12,2.53-2.5v-1.5c0-.55-.45-1-1-1s-1,.45-1,1v1.5c0,.28-.24.5-.53.5H3.54c-.29,0-.54-.22-.54-.5V5.5c0-.28.24-.5.54-.5h2.71v1c0,.55.45,1,1,1h9c.55,0,1-.45,1-1v-1h3.22c.29,0,.53.22.53.5v1.5c0,.55.45,1,1,1Zm-6.75-3h-7v-1c0-.55.45-1,1-1h5c.55,0,1,.45,1,1v1Z"/>
  </g>
  <path class="cls-1" d="m23,9c-4.41,0-8,3.59-8,8s3.59,8,8,8,8-3.59,8-8-3.59-8-8-8Zm-2.63,9.2c.39.39.39,1.02,0,1.41-.2.2-.45.29-.71.29s-.51-.1-.71-.29l-1.91-1.91c-.39-.39-.39-1.02,0-1.41l1.91-1.91c.39-.39,1.02-.39,1.41,0s.39,1.02,0,1.41l-1.2,1.2,1.2,1.2Zm4.55-4.27l-1.91,6.68c-.13.44-.53.73-.96.73-.09,0-.18-.01-.28-.04-.53-.15-.84-.71-.69-1.24l1.91-6.68c.15-.53.71-.84,1.24-.69.53.15.84.71.69,1.24Zm2.13,5.68c-.2.2-.45.29-.71.29s-.51-.1-.71-.29c-.39-.39-.39-1.02,0-1.41l1.2-1.2-1.2-1.2c-.39-.39-.39-1.02,0-1.41s1.02-.39,1.41,0l1.91,1.91c.39.39.39,1.02,0,1.41l-1.91,1.91Z"/>
</svg>