<?xml version="1.0" encoding="UTF-8"?>
<svg id="OBJECT" xmlns="http://www.w3.org/2000/svg" viewBox="0 0 32 32">
  <defs>
    <style>
      .cls-1 {
        fill: #FD4360;
      }

      .cls-1, .cls-2 {
        stroke-width: 0px;
      }

      .cls-2 {
        fill: #dadada;
      }
    </style>
  </defs>
  <path class="cls-2" d="m28,11h-2v-7c0-.55-.45-1-1-1s-1,.45-1,1v1.16l-4.01,1.33c-.52.17-.81.74-.63,1.26.14.42.53.69.95.69.1,0,.21-.02.32-.05l3.38-1.13v17.34l-5.5-1.83v-5.78c0-.55-.45-1-1-1s-1,.45-1,1v5.11l-5.5-1.83v-5.28c0-.55-.45-1-1-1s-1,.45-1,1v1H3v-4h1c.55,0,1-.45,1-1s-.45-1-1-1h-2c-.55,0-1,.45-1,1v17.5c0,1.38,1.12,2.5,2.5,2.5h1c1.38,0,2.5-1.12,2.5-2.5v-2.5h1.5c1.38,0,2.5-1.12,2.5-2.5v-1.11l13,4.33v1.28c0,.55.45,1,1,1s1-.45,1-1v-7h2c1.65,0,3-1.35,3-3v-4c0-1.65-1.35-3-3-3Zm-19,7v2H3v-2h6Zm-4.5,11h-1c-.28,0-.5-.22-.5-.5v-6.5h2v6.5c0,.28-.22.5-.5.5Zm4-5h-1.5v-2h2v1.5c0,.28-.22.5-.5.5Zm20.5-6c0,.55-.45,1-1,1h-2v-6h2c.55,0,1,.45,1,1v4Z"/>
  <path class="cls-1" d="m8.25,12.17h7.5c1.24,0,2.25-1.01,2.25-2.25V3.25c0-1.24-1.01-2.25-2.25-2.25h-7.5c-1.24,0-2.25,1.01-2.25,2.25v6.67c0,1.24,1.01,2.25,2.25,2.25Zm.25-7.58c0-.55.45-1,1-1s1,.45,1,1v2c0,.55.45,1,1,1h1c.55,0,1-.45,1-1v-2c0-.55.45-1,1-1s1,.45,1,1v2c0,1.65-1.35,3-3,3h-1c-1.65,0-3-1.35-3-3v-2Z"/>
</svg>