<?xml version="1.0" encoding="UTF-8"?>
<svg id="OBJECT" xmlns="http://www.w3.org/2000/svg" viewBox="0 0 512 512">
  <defs>
    <style>
      .cls-1 {
        fill: #FD4360;
      }

      .cls-2 {
        fill: #dadada;
      }
    </style>
  </defs>
  <g>
    <path class="cls-2" d="M425.32,249.73L339.81,14.81c-4.24-11.66-17.18-17.69-28.84-13.45l-23.49,8.55c-1.87,.68-3.39,2.08-4.23,3.88s-.93,3.87-.25,5.73l5.26,14.46-56.17,59.84c-28.16,30-63.07,53.67-101.33,68.79l-2.53-6.95c-4.24-11.66-17.18-17.69-28.84-13.45L14.82,173c-5.65,2.06-10.16,6.19-12.7,11.63-2.54,5.45-2.81,11.56-.75,17.2l92.35,253.72c3.32,9.13,11.97,14.81,21.17,14.81,2.55,0,5.14-.44,7.67-1.36l9.4-3.42c5.65-2.06,10.16-6.19,12.7-11.63,2.54-5.45,2.81-11.56,.75-17.2l-23.09-63.43,16.44-5.99c11.66-4.24,17.69-17.18,13.45-28.84l-9.41-25.84,16.44-5.99h0c11.66-4.24,17.69-17.18,13.45-28.84l-2.53-6.95c39.03-13.01,81-17.32,121.85-12.44l81.49,9.74,5.26,14.46c.68,1.87,2.08,3.39,3.88,4.23,1,.47,2.08,.7,3.17,.7,.87,0,1.74-.15,2.57-.45l23.49-8.55c5.65-2.06,10.16-6.19,12.7-11.63,2.54-5.45,2.81-11.56,.75-17.2ZM131.05,447.61c-.85,1.82-2.35,3.19-4.23,3.88l-9.4,3.42c-3.89,1.41-8.2-.6-9.61-4.48l-40.19-110.41,23.49-8.55,40.19,110.41c.69,1.88,.6,3.92-.25,5.73Zm7.06-103.99c1.41,3.89-.6,8.2-4.48,9.61l-16.44,5.99-11.97-32.89,23.49-8.55,9.41,25.84Zm20.24-54.93c-.85,1.82-2.35,3.19-4.23,3.88l-91.62,33.35L15.46,196.71c-.69-1.88-.6-3.92,.25-5.73,.85-1.82,2.35-3.19,4.23-3.88l84.57-30.78c.84-.31,1.71-.45,2.56-.45,3.06,0,5.95,1.89,7.06,4.94l44.46,122.16c.69,1.88,.6,3.92-.25,5.73Zm-22.46-111.98c10.9-4.29,21.54-9.24,31.86-14.8l31.2,85.72c-11.48,2.37-22.81,5.42-33.92,9.14l-29.14-80.07Zm78.04,68.23l-32.98-90.6c22.83-13.86,43.8-30.8,62.07-50.26l20.31-21.63,59.92,164.61-29.46-3.52c-26.51-3.17-53.46-2.66-79.86,1.4Zm126.01,4.12l-65.1-178.86,19.17-20.42,73.74,202.61-27.81-3.32Zm71.03,11.53c-.85,1.82-2.35,3.19-4.23,3.88h0l-16.44,5.99L299.66,21.44l16.44-5.98c3.88-1.41,8.2,.6,9.61,4.48l85.5,234.92c.69,1.88,.6,3.92-.25,5.73Z"/>
    <path class="cls-2" d="M71.22,240.26l28.19-10.26h0c5.65-2.06,10.16-6.19,12.7-11.63,2.54-5.45,2.81-11.56,.75-17.2l-1.71-4.7c-4.24-11.66-17.18-17.69-28.84-13.45l-28.19,10.26c-5.65,2.06-10.16,6.19-12.7,11.63-2.54,5.45-2.81,11.56-.75,17.2l1.71,4.7c3.32,9.13,11.97,14.81,21.17,14.81,2.55,0,5.14-.44,7.67-1.36Zm-14.74-18.58l-1.71-4.7c-.69-1.88-.6-3.92,.25-5.73s2.35-3.19,4.23-3.88l28.19-10.26c.84-.31,1.71-.45,2.56-.45,3.06,0,5.95,1.89,7.06,4.94l1.71,4.7c.69,1.88,.6,3.92-.25,5.73s-2.35,3.19-4.23,3.88l-28.19,10.26c-3.89,1.41-8.2-.6-9.61-4.48Z"/>
    <path class="cls-2" d="M131.67,252.85c-2.06-5.65-6.19-10.16-11.63-12.7-5.45-2.54-11.56-2.81-17.2-.75l-28.19,10.26c-5.65,2.06-10.16,6.19-12.7,11.63s-2.81,11.56-.75,17.2l1.71,4.7c3.32,9.13,11.97,14.81,21.17,14.81,2.55,0,5.14-.44,7.67-1.36l28.19-10.26h0c5.65-2.06,10.16-6.19,12.7-11.63,2.54-5.45,2.81-11.56,.75-17.21l-1.71-4.7Zm-12.64,15.56c-.85,1.82-2.35,3.19-4.23,3.88l-28.19,10.26c-1.88,.69-3.92,.6-5.73-.25-1.82-.85-3.19-2.35-3.88-4.23l-1.71-4.7c-1.41-3.89,.6-8.2,4.48-9.61l28.19-10.26c.84-.31,1.71-.45,2.56-.45,3.06,0,5.95,1.89,7.06,4.94l1.71,4.7c.69,1.88,.6,3.92-.25,5.73Z"/>
  </g>
  <g>
    <circle class="cls-1" cx="439.5" cy="439.5" r="12.5"/>
    <path class="cls-1" d="M407,302c-57.9,0-105,47.1-105,105s47.1,105,105,105,105-47.1,105-105-47.1-105-105-105Zm-32.5,45c15.16,0,27.5,12.34,27.5,27.5s-12.34,27.5-27.5,27.5-27.5-12.34-27.5-27.5,12.34-27.5,27.5-27.5Zm-12.2,115.3c-1.46,1.46-3.38,2.2-5.3,2.2s-3.84-.73-5.3-2.2c-2.93-2.93-2.93-7.68,0-10.61l100-100c2.93-2.93,7.68-2.93,10.61,0,2.93,2.93,2.93,7.68,0,10.61l-100,100Zm77.2,4.7c-15.16,0-27.5-12.34-27.5-27.5s12.34-27.5,27.5-27.5,27.5,12.34,27.5,27.5-12.34,27.5-27.5,27.5Z"/>
    <circle class="cls-1" cx="374.5" cy="374.5" r="12.5"/>
  </g>
</svg>