<?xml version="1.0" encoding="UTF-8"?>
<svg id="OBJECT" xmlns="http://www.w3.org/2000/svg" viewBox="0 0 32 32">
  <defs>
    <style>
      .cls-1 {
        fill: #FD4360;
      }

      .cls-1, .cls-2 {
        stroke-width: 0px;
      }

      .cls-2 {
        fill: #dadada;
      }
    </style>
  </defs>
  <g>
    <path class="cls-2" d="m23,1h-2c-.55,0-1,.45-1,1v.93l-8.5,4.96c-.48.28-.64.89-.36,1.37.19.32.52.5.87.5.17,0,.34-.04.5-.14l2.5-1.46v4.84c0,.55.45,1,1,1s1-.45,1-1v-6.01l3-1.75v18.52l-7.5-4.37c-.48-.28-1.09-.12-1.37.36-.28.48-.12,1.09.36,1.37l8.5,4.96v.93c0,.55.45,1,1,1h2c1.65,0,3-1.35,3-3V4c0-1.65-1.35-3-3-3Zm1,24c0,.55-.45,1-1,1h-1V3h1c.55,0,1,.45,1,1v21Z"/>
    <path class="cls-2" d="m30,11h-1.5c-.55,0-1,.45-1,1s.45,1,1,1h1.5c.55,0,1-.45,1-1s-.45-1-1-1Z"/>
    <path class="cls-2" d="m28.5,8h1.5c.55,0,1-.45,1-1s-.45-1-1-1h-1.5c-.55,0-1,.45-1,1s.45,1,1,1Z"/>
    <path class="cls-2" d="m30,16h-1.5c-.55,0-1,.45-1,1s.45,1,1,1h1.5c.55,0,1-.45,1-1s-.45-1-1-1Z"/>
    <path class="cls-2" d="m30,21h-1.5c-.55,0-1,.45-1,1s.45,1,1,1h1.5c.55,0,1-.45,1-1s-.45-1-1-1Z"/>
    <path class="cls-2" d="m17,17v-.5c0-.55-.45-1-1-1s-1,.45-1,1v.5c0,.55.45,1,1,1s1-.45,1-1Z"/>
  </g>
  <g>
    <path class="cls-1" d="m1,8v13h9v-13H1Zm5,9.5h-1c-.55,0-1-.45-1-1s.45-1,1-1h1c.55,0,1,.45,1,1s-.45,1-1,1Zm0-4h-1c-.55,0-1-.45-1-1s.45-1,1-1h1c.55,0,1,.45,1,1s-.45,1-1,1Z"/>
    <path class="cls-1" d="m3,31h3c1.1,0,2-.9,2-2v-6H3v8Z"/>
  </g>
</svg>