<?xml version="1.0" encoding="UTF-8"?>
<svg id="OBJECT" xmlns="http://www.w3.org/2000/svg" viewBox="0 0 32 32">
  <defs>
    <style>
      .cls-1 {
        fill: #FD4360;
      }

      .cls-1, .cls-2 {
        stroke-width: 0px;
      }

      .cls-2 {
        fill: #dadada;
      }
    </style>
  </defs>
  <g>
    <path class="cls-2" d="m18.5,18v-6c.41,0,.79-.25.94-.66.19-.52-.08-1.09-.6-1.28l-5.5-2c-.22-.08-.46-.08-.68,0l-5.5,2c-.52.19-.79.76-.6,1.28.15.41.53.65.94.65v6.01c-.55,0-1,.45-1,1s.45,1,1,1h11c.55,0,1-.45,1-1s-.45-1-1-1Zm-5.5-7.94l3.5,1.27v2.66h-7v-2.66l3.5-1.27Zm-3.5,5.94h7v2h-7v-2Z"/>
    <path class="cls-2" d="m24.63,4.22c-.24-.19-.55-.26-.84-.2-6.68,1.45-9.87-2.47-10-2.63-.19-.24-.48-.38-.79-.39h0c-.31,0-.6.14-.79.38-.13.17-3.32,4.09-10,2.64-.29-.07-.6,0-.84.2-.24.19-.37.48-.37.78v10.73c0,5.69,3.15,10.85,8.21,13.45l3.33,1.71c.14.07.3.11.46.11s.31-.04.46-.11l3.34-1.72c.16-.09.33-.18.49-.27.47-.28.63-.9.34-1.37-.28-.47-.9-.63-1.37-.34-.14.08-.27.15-.39.22l-2.87,1.48-2.87-1.48c-4.4-2.26-7.13-6.73-7.13-11.67V6.2c5.3.76,8.59-1.48,10-2.76,1.41,1.28,4.7,3.51,10,2.76v9.53c0,.05,0,.12,0,.17-.06.55.34,1.04.89,1.1.55.06,1.04-.34,1.1-.89.01-.12.02-.26.02-.39V5c0-.3-.14-.59-.37-.78Z"/>
  </g>
  <path class="cls-1" d="m24.5,18c-3.58,0-6.5,2.92-6.5,6.5s2.92,6.5,6.5,6.5,6.5-2.92,6.5-6.5-2.92-6.5-6.5-6.5Zm2.96,5.84l-2.74,2.74c-.2.2-.45.29-.71.29s-.51-.1-.71-.29l-1.76-1.76c-.39-.39-.39-1.02,0-1.41s1.02-.39,1.41,0l1.05,1.05,2.03-2.03c.39-.39,1.02-.39,1.41,0s.39,1.02,0,1.41Z"/>
</svg>