<?xml version="1.0" encoding="UTF-8"?>
<svg id="OBJECT" xmlns="http://www.w3.org/2000/svg" viewBox="0 0 512 512">
  <defs>
    <style>
      .cls-1 {
        fill: #FD4360;
      }

      .cls-2 {
        fill: #dadada;
      }
    </style>
  </defs>
  <g>
    <path class="cls-2" d="M263.5,437.75v-49.61c0-4.14-3.36-7.5-7.5-7.5s-7.5,3.36-7.5,7.5v49.61c-17.1,3.48-30,18.64-30,36.75,0,20.68,16.82,37.5,37.5,37.5s37.5-16.82,37.5-37.5c0-18.11-12.9-33.26-30-36.75Zm-7.5,59.25c-12.41,0-22.5-10.09-22.5-22.5s10.09-22.5,22.5-22.5,22.5,10.09,22.5,22.5-10.09,22.5-22.5,22.5Z"/>
    <path class="cls-2" d="M391,397c-18.11,0-33.26,12.9-36.75,30h-18.25c-6.89,0-12.5-5.61-12.5-12.5v-59.5c0-4.14-3.36-7.5-7.5-7.5s-7.5,3.36-7.5,7.5v59.5c0,15.16,12.34,27.5,27.5,27.5h18.25c3.48,17.1,18.64,30,36.75,30,20.68,0,37.5-16.82,37.5-37.5s-16.82-37.5-37.5-37.5Zm0,60c-12.41,0-22.5-10.09-22.5-22.5s10.09-22.5,22.5-22.5,22.5,10.09,22.5,22.5-10.09,22.5-22.5,22.5Z"/>
    <path class="cls-2" d="M196,347.5c-4.14,0-7.5,3.36-7.5,7.5v59.5c0,6.89-5.61,12.5-12.5,12.5h-18.25c-3.48-17.1-18.64-30-36.75-30-20.68,0-37.5,16.82-37.5,37.5s16.82,37.5,37.5,37.5c18.11,0,33.26-12.9,36.75-30h18.25c15.16,0,27.5-12.34,27.5-27.5v-59.5c0-4.14-3.36-7.5-7.5-7.5Zm-75,109.5c-12.41,0-22.5-10.09-22.5-22.5s10.09-22.5,22.5-22.5,22.5,10.09,22.5,22.5-10.09,22.5-22.5,22.5Z"/>
    <path class="cls-2" d="M449.5,110h-21.41c-3.74-33.7-32.4-60-67.09-60-2.82,0-5.65,.18-8.45,.53C330.55,18.8,294.82,0,256,0s-74.55,18.8-96.55,50.53c-2.8-.35-5.62-.53-8.45-.53-34.68,0-63.34,26.3-67.09,60h-21.41C28.04,110,0,138.04,0,172.5s28.04,62.5,62.5,62.5H127.09c4.14,0,7.5-3.36,7.5-7.5s-3.36-7.5-7.5-7.5H62.5c-26.19,0-47.5-21.31-47.5-47.5s21.31-47.5,47.5-47.5h63.5c4.14,0,7.5-3.36,7.5-7.5s-3.36-7.5-7.5-7.5h-26.96c3.65-25.41,25.55-45,51.96-45,3.54,0,7.08,.35,10.53,1.06,3.05,.62,6.16-.71,7.83-3.34,18.93-29.88,51.33-47.72,86.64-47.72s67.71,17.84,86.64,47.72c1.67,2.63,4.78,3.96,7.83,3.34,3.44-.7,6.98-1.06,10.53-1.06,26.4,0,48.3,19.59,51.96,45h-26.96c-4.14,0-7.5,3.36-7.5,7.5s3.36,7.5,7.5,7.5h63.5c26.19,0,47.5,21.31,47.5,47.5s-21.31,47.5-47.5,47.5h-64.59c-4.14,0-7.5,3.36-7.5,7.5s3.36,7.5,7.5,7.5h64.59c34.46,0,62.5-28.04,62.5-62.5s-28.04-62.5-62.5-62.5Z"/>
    <path class="cls-2" d="M472,172.5c0-15.16-12.34-27.5-27.5-27.5s-27.5,12.34-27.5,27.5,12.34,27.5,27.5,27.5,27.5-12.34,27.5-27.5Zm-40,0c0-6.89,5.61-12.5,12.5-12.5s12.5,5.61,12.5,12.5-5.61,12.5-12.5,12.5-12.5-5.61-12.5-12.5Z"/>
    <path class="cls-2" d="M67.5,145c-15.16,0-27.5,12.34-27.5,27.5s12.34,27.5,27.5,27.5,27.5-12.34,27.5-27.5-12.34-27.5-27.5-27.5Zm0,40c-6.89,0-12.5-5.61-12.5-12.5s5.61-12.5,12.5-12.5,12.5,5.61,12.5,12.5-5.61,12.5-12.5,12.5Z"/>
  </g>
  <g>
    <path class="cls-1" d="M256,165c-28.95,0-52.5,23.55-52.5,52.5s23.55,52.5,52.5,52.5,52.5-23.55,52.5-52.5-23.55-52.5-52.5-52.5Zm29.56,42.99l-29.62,29.62c-1.46,1.46-3.38,2.2-5.3,2.2s-3.84-.73-5.3-2.2l-18.89-18.89c-2.93-2.93-2.93-7.68,0-10.61,2.93-2.93,7.68-2.93,10.61,0l13.59,13.59,24.31-24.31c2.93-2.93,7.68-2.93,10.61,0,2.93,2.93,2.93,7.68,0,10.61Z"/>
    <path class="cls-1" d="M356.46,122.75c-28.05-1.71-52.37-10.45-72.27-25.98-14.87-11.6-21.6-22.88-21.7-23.05-1.34-2.31-3.81-3.73-6.48-3.73s-5.15,1.43-6.49,3.75c-.26,.45-26.69,44.9-93.96,49.01-3.96,.24-7.04,3.52-7.04,7.49v79.4c0,48.96,23.56,95.5,63.02,124.49l40.04,29.41c1.32,.97,2.88,1.46,4.44,1.46s3.12-.49,4.44-1.46l40.04-29.41c39.46-28.99,63.02-75.53,63.02-124.49v-79.4c0-3.96-3.09-7.24-7.04-7.49Zm-100.46,162.25c-37.22,0-67.5-30.28-67.5-67.5s30.28-67.5,67.5-67.5,67.5,30.28,67.5,67.5-30.28,67.5-67.5,67.5Z"/>
  </g>
</svg>