<?xml version="1.0" encoding="UTF-8"?>
<svg id="OBJECT" xmlns="http://www.w3.org/2000/svg" viewBox="0 0 32 32">
  <defs>
    <style>
      .cls-1 {
        fill: #FD4360;
      }

      .cls-1, .cls-2 {
        stroke-width: 0px;
      }

      .cls-2 {
        fill: #dadada;
      }
    </style>
  </defs>
  <g>
    <path class="cls-2" d="m8.5,20.5c-.55,0-1,.45-1,1v.5c0,.55.45,1,1,1s1-.45,1-1v-.5c0-.55-.45-1-1-1Z"/>
    <path class="cls-2" d="m27.5,1H3.5c-1.38,0-2.5,1.12-2.5,2.5v4.5c0,.55.45,1,1,1h.5v16.5c0,1.38,1.12,2.5,2.5,2.5h10.71c.55,0,1-.45,1-1s-.45-1-1-1H5c-.28,0-.5-.22-.5-.5V9h3v9c0,.55.45,1,1,1s1-.45,1-1v-9h17v4.21c0,.55.45,1,1,1s1-.45,1-1v-4.21h.5c.55,0,1-.45,1-1V3.5c0-1.38-1.12-2.5-2.5-2.5ZM3,3.5c0-.28.22-.5.5-.5h24c.28,0,.5.22.5.5v3.5H3v-3.5Z"/>
  </g>
  <path class="cls-1" d="m30.67,16.3c-.21-.19-.49-.28-.77-.26-3.15.29-4.95-1.63-5.02-1.71-.19-.21-.46-.33-.74-.33-.33.02-.56.12-.75.33-.08.08-1.87,2-5.02,1.71-.28-.03-.56.07-.77.26-.21.19-.33.46-.33.74v6.04c0,2.58,1.39,4.98,3.64,6.25l2.72,1.55c.15.09.32.13.49.13s.34-.04.49-.13l2.72-1.55c2.25-1.28,3.64-3.67,3.64-6.25v-6.04c0-.28-.12-.55-.33-.74Zm-2.82,5.08l-3.66,3.66c-.19.19-.44.29-.71.29s-.52-.11-.71-.29l-2.34-2.34c-.39-.39-.39-1.02,0-1.41s1.02-.39,1.41,0l1.63,1.63,2.95-2.95c.39-.39,1.02-.39,1.41,0s.39,1.02,0,1.41Z"/>
</svg>