<?xml version="1.0" encoding="UTF-8"?>
<svg id="OBJECT" xmlns="http://www.w3.org/2000/svg" viewBox="0 0 32 32">
  <defs>
    <style>
      .cls-1 {
        fill: #FD4360;
      }

      .cls-1, .cls-2 {
        stroke-width: 0px;
      }

      .cls-2 {
        fill: #dadada;
      }
    </style>
  </defs>
  <path class="cls-1" d="m11.14,13.06l4.24,3.35c.18.14.4.22.62.22s.44-.07.62-.22l4.24-3.35c1.36-1.08,2.14-2.69,2.14-4.42V3.63c0-.55-.45-1-1-1-3.88,0-5.21-1.27-5.27-1.32-.18-.2-.45-.3-.72-.31-.28,0-.55.11-.75.31-.01.01-1.33,1.32-5.27,1.32-.55,0-1,.45-1,1v5.01c0,1.74.78,3.35,2.14,4.42Zm1.86-6.03c.39-.39,1.02-.39,1.41,0l.84.84,2.4-1.97c.43-.35,1.06-.29,1.41.14.35.43.29,1.06-.14,1.41l-3.1,2.55c-.19.15-.41.23-.64.23-.26,0-.51-.1-.71-.29l-1.49-1.49c-.39-.39-.39-1.02,0-1.41Z"/>
  <g>
    <path class="cls-2" d="m26.09,8.5c0,.55.45,1,1,1h2.91c.55,0,1-.45,1-1s-.45-1-1-1h-2.91c-.55,0-1,.45-1,1Z"/>
    <path class="cls-2" d="m26.38,14.71c.2.2.45.29.71.29s.51-.1.71-.29c.39-.39.39-1.02,0-1.41l-1-1c-.39-.39-1.02-.39-1.41,0s-.39,1.02,0,1.41l1,1Z"/>
    <path class="cls-2" d="m26.09,5c.26,0,.51-.1.71-.29l1-1c.39-.39.39-1.02,0-1.41s-1.02-.39-1.41,0l-1,1c-.39.39-.39,1.02,0,1.41.2.2.45.29.71.29Z"/>
    <path class="cls-2" d="m2,9.5h2.91c.55,0,1-.45,1-1s-.45-1-1-1h-2.91c-.55,0-1,.45-1,1s.45,1,1,1Z"/>
    <path class="cls-2" d="m5.2,12.29l-1,1c-.39.39-.39,1.02,0,1.41.2.2.45.29.71.29s.51-.1.71-.29l1-1c.39-.39.39-1.02,0-1.41s-1.02-.39-1.41,0Z"/>
    <path class="cls-2" d="m5.2,4.71c.2.2.45.29.71.29s.51-.1.71-.29c.39-.39.39-1.02,0-1.41l-1-1c-.39-.39-1.02-.39-1.41,0s-.39,1.02,0,1.41l1,1Z"/>
    <path class="cls-2" d="m28.69,17.75c-1.13-1.13-3.11-1.13-4.24,0l-4.77,4.77h-.14v-1.52c0-1.65-1.35-3-3-3h-7.53c0-.55-.45-1-1-1H2c-.55,0-1,.45-1,1v12c0,.55.45,1,1,1h6c.55,0,1-.45,1-1h12.1c.54,0,1.04-.21,1.42-.59l8.19-8.23c.39-.39.39-1.02,0-1.41l-2.02-2.02ZM7,29H3v-10h4v10Zm14.1-1h-12.1v-8h7.53c.55,0,1,.45,1,1v1.52h-2.74c-.55,0-1,.45-1,1s.45,1,1,1h5.29c.27,0,.52-.11.71-.29l5.07-5.07c.38-.38,1.04-.38,1.41,0l1.32,1.32-7.49,7.52Z"/>
    <path class="cls-2" d="m12.19,22.52h-.5c-.55,0-1,.45-1,1s.45,1,1,1h.5c.55,0,1-.45,1-1s-.45-1-1-1Z"/>
  </g>
</svg>