<?xml version="1.0" encoding="UTF-8"?>
<svg id="OBJECT" xmlns="http://www.w3.org/2000/svg" viewBox="0 0 32 32">
  <defs>
    <style>
      .cls-1 {
        fill: #FD4360;
      }

      .cls-1, .cls-2 {
        stroke-width: 0px;
      }

      .cls-2 {
        fill: #dadada;
      }
    </style>
  </defs>
  <g>
    <path class="cls-2" d="m24,4.99c-8.05,0-10.28-3.48-10.29-3.5-.18-.31-.53-.48-.88-.49-.36,0-.7.21-.87.53-.02.03-1.96,3.46-9.95,3.46-.55,0-1,.45-1,1v6.12c0,7.57,4.04,13.88,11.37,17.76.15.08.31.12.47.12.36,0,.71-.19.88-.53.26-.49.07-1.09-.42-1.35-6.65-3.52-10.31-9.2-10.31-16v-5.14c5.78-.2,8.62-2.14,9.87-3.42,1.32,1.26,4.3,3.21,10.13,3.42v4.14c0,.55.45,1,1,1s1-.45,1-1v-5.12c0-.55-.45-1-1-1Z"/>
    <path class="cls-2" d="m20.14,8.74c-2.62-.37-4.88-1.12-6.7-2.23-.32-.2-.73-.2-1.06,0-1.77,1.12-3.97,1.86-6.52,2.22-.49.07-.86.49-.86.99v2.39c0,4.87,2.1,9.09,6.07,12.18.18.14.4.21.61.21.3,0,.59-.13.79-.39.34-.44.26-1.06-.17-1.4-3.52-2.74-5.3-6.31-5.3-10.61v-1.54c2.24-.39,4.23-1.08,5.93-2.05,1.74.97,3.77,1.66,6.07,2.06v1.52c0,.55.45,1,1,1s1-.45,1-1v-2.38c0-.5-.37-.92-.86-.99Z"/>
  </g>
  <path class="cls-1" d="m22.5,14c-4.69,0-8.5,3.81-8.5,8.5s3.81,8.5,8.5,8.5,8.5-3.81,8.5-8.5-3.81-8.5-8.5-8.5Zm4.03,7.13l-4.11,4.15c-.19.19-.44.3-.71.3h0c-.27,0-.52-.1-.71-.29l-2.53-2.53c-.39-.39-.39-1.02,0-1.41.39-.39,1.02-.39,1.41,0l1.82,1.82,3.4-3.43c.39-.39,1.02-.4,1.41,0,.39.39.4,1.02,0,1.41Z"/>
</svg>