<?xml version="1.0" encoding="UTF-8"?>
<svg id="OBJECT" xmlns="http://www.w3.org/2000/svg" viewBox="0 0 32 32">
  <defs>
    <style>
      .cls-1 {
        fill: #FD4360;
      }

      .cls-1, .cls-2 {
        stroke-width: 0px;
      }

      .cls-2 {
        fill: #dadada;
      }
    </style>
  </defs>
  <path class="cls-1" d="m22.5,13c-4.69,0-8.5,3.81-8.5,8.5s3.81,8.5,8.5,8.5,8.5-3.81,8.5-8.5-3.81-8.5-8.5-8.5Zm4.03,7.13l-4.11,4.15c-.19.19-.44.3-.71.3h0c-.26,0-.52-.11-.71-.29l-2.53-2.53c-.39-.39-.39-1.02,0-1.42.39-.39,1.02-.39,1.42,0l1.82,1.82,3.4-3.43c.39-.39,1.02-.4,1.41,0,.39.39.4,1.02,0,1.41Z"/>
  <g>
    <path class="cls-2" d="m24.41,6.09L13.41,1.09c-.26-.12-.56-.12-.83,0L1.59,6.09c-.36.16-.59.52-.59.91v7.73c0,6.84,4.06,12.98,10.35,15.65l1.26.54c.12.05.26.08.39.08s.27-.03.39-.08l1.26-.54c.51-.22.74-.81.53-1.31-.22-.51-.81-.75-1.31-.53l-.87.37-.87-.37c-5.55-2.36-9.13-7.78-9.13-13.81v-7.09L13,3.1l10,4.54v3.48c0,.55.45,1,1,1s1-.45,1-1v-4.12c0-.39-.23-.75-.59-.91Z"/>
    <path class="cls-2" d="m20.91,8.34l-7.5-3.41c-.26-.12-.56-.12-.83,0l-7.5,3.41c-.36.16-.59.52-.59.91v5.48c0,5.37,3.18,10.23,8.1,12.38.13.06.27.08.4.08.39,0,.75-.22.92-.6.22-.51,0-1.1-.52-1.32-4.19-1.83-6.9-5.97-6.9-10.54v-4.84l6.5-2.96,6.5,2.96v1.32c0,.55.45,1,1,1s1-.45,1-1v-1.96c0-.39-.23-.75-.59-.91Z"/>
  </g>
</svg>