<?xml version="1.0" encoding="UTF-8"?>
<svg id="OBJECT" xmlns="http://www.w3.org/2000/svg" viewBox="0 0 32 32">
  <defs>
    <style>
      .cls-1 {
        fill: #FD4360;
      }

      .cls-1, .cls-2 {
        stroke-width: 0px;
      }

      .cls-2 {
        fill: #dadada;
      }
    </style>
  </defs>
  <path class="cls-2" d="m16,31c-.17,0-.33-.04-.48-.12l-6.89-3.76c-2.85-1.56-4.63-4.54-4.63-7.8l-1-13.25c-.02-.28.07-.55.26-.75.19-.2.45-.32.73-.32,7.23-.07,11.29-3.7,11.33-3.74.38-.35.97-.35,1.35,0h0s4.15,3.67,11.34,3.74c.28,0,.54.12.73.32.19.2.28.48.26.75l-1,13.32c0,3.18-1.77,6.17-4.63,7.72l-6.89,3.76c-.15.08-.31.12-.48.12ZM5.08,6.97l.92,12.28c0,2.59,1.38,4.91,3.59,6.12l6.41,3.5,6.41-3.5c2.21-1.21,3.59-3.52,3.59-6.04l.92-12.35c-5.72-.31-9.47-2.61-10.92-3.69-1.45,1.07-5.21,3.38-10.92,3.69Zm10.92-4.97h0,0Z"/>
  <g>
    <path class="cls-1" d="m13.21,16.91c-.34-.52-.54-1.14-.54-1.81,0-1.84,1.49-3.33,3.33-3.33s3.33,1.49,3.33,3.33c0,.67-.2,1.29-.54,1.81,1.95.68,3.58,2.05,4.59,3.83.71-1.24,1.12-2.67,1.12-4.2,0-4.69-3.81-8.5-8.5-8.5s-8.5,3.81-8.5,8.5c0,1.53.41,2.96,1.12,4.2,1.01-1.77,2.64-3.14,4.59-3.83Z"/>
    <path class="cls-1" d="m17.33,15.1c0-.73-.6-1.33-1.33-1.33s-1.33.6-1.33,1.33.6,1.33,1.33,1.33,1.33-.6,1.33-1.33Z"/>
    <path class="cls-1" d="m16,18.44c-2.73,0-5.07,1.7-6.03,4.09,1.54,1.55,3.68,2.52,6.03,2.52s4.49-.96,6.03-2.52c-.96-2.39-3.3-4.09-6.03-4.09Z"/>
  </g>
</svg>