<?xml version="1.0" encoding="UTF-8"?>
<svg id="OBJECT" xmlns="http://www.w3.org/2000/svg" viewBox="0 0 512 512">
  <defs>
    <style>
      .cls-1 {
        fill: #FD4360;
      }

      .cls-2 {
        fill: #dadada;
      }
    </style>
  </defs>
  <g>
    <path class="cls-2" d="M489.5,367c12.41,0,22.5-10.09,22.5-22.5v-80c0-12.41-10.09-22.5-22.5-22.5h-60v-33.92l20.29-8.11c2.85-1.14,4.71-3.9,4.71-6.96v-39.87c0-4.14-3.36-7.5-7.5-7.5s-7.5,3.36-7.5,7.5v34.79l-20.29,8.11c-2.85,1.14-4.71,3.9-4.71,6.96v39h-37.5v-89c0-4.14-3.36-7.5-7.5-7.5s-7.5,3.36-7.5,7.5v89h-37.5v-39c0-3.07-1.87-5.82-4.71-6.96l-20.29-8.11v-34.79c0-4.14-3.36-7.5-7.5-7.5s-7.5,3.36-7.5,7.5v39.87c0,3.07,1.87,5.82,4.71,6.96l20.29,8.11v33.92h-60c-12.41,0-22.5,10.09-22.5,22.5v80c0,12.41,10.09,22.5,22.5,22.5h2.5v20h-2.5c-12.41,0-22.5,10.09-22.5,22.5v80c0,12.41,10.09,22.5,22.5,22.5h240c12.41,0,22.5-10.09,22.5-22.5v-80c0-12.41-10.09-22.5-22.5-22.5h-2.5v-20h2.5Zm-247.5-22.5v-80c0-4.14,3.36-7.5,7.5-7.5h240c4.14,0,7.5,3.36,7.5,7.5v80c0,4.14-3.36,7.5-7.5,7.5H249.5c-4.14,0-7.5-3.36-7.5-7.5Zm255,65v80c0,4.14-3.36,7.5-7.5,7.5H249.5c-4.14,0-7.5-3.36-7.5-7.5v-80c0-4.14,3.36-7.5,7.5-7.5h240c4.14,0,7.5,3.36,7.5,7.5Zm-25-22.5h-205v-20h205v20Z"/>
    <path class="cls-2" d="M289.5,272c-17.92,0-32.5,14.58-32.5,32.5s14.58,32.5,32.5,32.5,32.5-14.58,32.5-32.5-14.58-32.5-32.5-32.5Zm0,50c-9.65,0-17.5-7.85-17.5-17.5s7.85-17.5,17.5-17.5,17.5,7.85,17.5,17.5-7.85,17.5-17.5,17.5Z"/>
    <path class="cls-2" d="M474.5,279.5h-130c-4.14,0-7.5,3.36-7.5,7.5v35c0,4.14,3.36,7.5,7.5,7.5h130c4.14,0,7.5-3.36,7.5-7.5v-35c0-4.14-3.36-7.5-7.5-7.5Zm-7.5,35h-115v-20h115v20Z"/>
    <path class="cls-2" d="M344.5,474.5h130c4.14,0,7.5-3.36,7.5-7.5v-35c0-4.14-3.36-7.5-7.5-7.5h-130c-4.14,0-7.5,3.36-7.5,7.5v35c0,4.14,3.36,7.5,7.5,7.5Zm7.5-35h115v20h-115v-20Z"/>
    <path class="cls-2" d="M289.5,482c17.92,0,32.5-14.58,32.5-32.5s-14.58-32.5-32.5-32.5-32.5,14.58-32.5,32.5,14.58,32.5,32.5,32.5Zm0-50c9.65,0,17.5,7.85,17.5,17.5s-7.85,17.5-17.5,17.5-17.5-7.85-17.5-17.5,7.85-17.5,17.5-17.5Z"/>
    <path class="cls-2" d="M369.5,135.5c4.14,0,7.5-3.36,7.5-7.5v-5c0-4.14-3.36-7.5-7.5-7.5s-7.5,3.36-7.5,7.5v5c0,4.14,3.36,7.5,7.5,7.5Z"/>
  </g>
  <g>
    <path class="cls-1" d="M117.5,97.5c-33.08,0-60,26.92-60,60s26.92,60,60,60,60-26.92,60-60-26.92-60-60-60Zm33.1,44.99l-35.7,40c-1.42,1.59-3.46,2.51-5.6,2.51s-4.17-.91-5.6-2.51l-19.3-21.63c-2.76-3.09-2.49-7.83,.6-10.59,3.09-2.76,7.83-2.49,10.59,.6l13.71,15.36,30.1-33.73c2.76-3.09,7.5-3.36,10.59-.6,3.09,2.76,3.36,7.5,.6,10.59Z"/>
    <path class="cls-1" d="M232.47,43.49c-1.61-1.42-3.75-2.09-5.88-1.83C167.54,48.92,123.41,2.83,122.97,2.37c-1.42-1.51-3.39-2.36-5.46-2.37h-.01c-2.07,0-4.05,.86-5.47,2.37-.44,.46-44.54,46.54-103.62,39.29-2.14-.26-4.27,.4-5.88,1.83-1.61,1.42-2.53,3.47-2.53,5.62v92.95c0,61.55,30.22,119.19,80.84,154.2l32.4,22.41c1.28,.89,2.78,1.33,4.27,1.33s2.98-.44,4.27-1.33l32.4-22.41c50.62-35.01,80.84-92.66,80.84-154.2V49.1c0-2.15-.92-4.19-2.53-5.62ZM117.5,232.5c-41.36,0-75-33.64-75-75s33.64-75,75-75,75,33.64,75,75-33.64,75-75,75Z"/>
  </g>
</svg>