<?xml version="1.0" encoding="UTF-8"?>
<svg id="OBJECT" xmlns="http://www.w3.org/2000/svg" viewBox="0 0 32 32">
  <defs>
    <style>
      .cls-1 {
        fill: #FD4360;
      }

      .cls-1, .cls-2 {
        stroke-width: 0px;
      }

      .cls-2 {
        fill: #dadada;
      }
    </style>
  </defs>
  <g>
    <path class="cls-2" d="m5.5,10.02c.55,0,1-.45,1-1v-.4c0-.55-.45-1-1-1s-1,.45-1,1v.4c0,.55.45,1,1,1Z"/>
    <path class="cls-2" d="m4.5,12.89c0,3.82,1.89,7.36,5.07,9.48.17.11.36.17.55.17.32,0,.64-.16.83-.44.31-.46.18-1.08-.28-1.39-2.62-1.75-4.18-4.67-4.18-7.81v-1.04c0-.55-.45-1-1-1s-1,.45-1,1v1.04Z"/>
    <path class="cls-2" d="m22.63,4.22c-.23-.19-.54-.26-.84-.2-4.85,1.04-9.08-2.72-9.12-2.76-.38-.35-.96-.35-1.35,0-.04.04-4.26,3.8-9.12,2.76-.29-.06-.6,0-.84.2-.24.19-.37.48-.37.78v7.89c0,4.99,2.48,9.62,6.62,12.39l3.82,2.55c.17.11.36.17.55.17s.38-.05.55-.16l.61-.4c.46-.3.59-.92.29-1.38-.3-.46-.92-.59-1.38-.29l-.06.04-3.27-2.18c-3.59-2.4-5.74-6.41-5.74-10.73v-6.73c4.15.38,7.59-1.81,9-2.88,1.41,1.07,4.85,3.26,9,2.88v5.89c0,.55.45,1,1,1s1-.45,1-1v-7.05c0-.3-.14-.59-.37-.78Z"/>
  </g>
  <g>
    <path class="cls-1" d="m23,15c-4.41,0-8,3.59-8,8,0,1.37.35,2.65.95,3.78.8-1.49,2.07-2.72,3.63-3.47-.17-.43-.28-.9-.28-1.39,0-2.04,1.66-3.69,3.69-3.69s3.69,1.66,3.69,3.69c0,.49-.1.96-.28,1.39,1.56.74,2.83,1.97,3.63,3.47.61-1.13.95-2.41.95-3.78,0-4.41-3.59-8-8-8Z"/>
    <circle class="cls-1" cx="23" cy="21.92" r="1.69"/>
    <path class="cls-1" d="m25.11,24.95c-.6.42-1.32.67-2.11.67s-1.51-.25-2.11-.67c-1.7.64-3,2-3.57,3.68,1.45,1.47,3.46,2.38,5.68,2.38s4.23-.91,5.68-2.38c-.57-1.68-1.88-3.04-3.57-3.68Z"/>
  </g>
</svg>