<?xml version="1.0" encoding="UTF-8"?>
<svg id="OBJECT" xmlns="http://www.w3.org/2000/svg" viewBox="0 0 32 32">
  <defs>
    <style>
      .cls-1 {
        fill: #FD4360;
      }

      .cls-1, .cls-2 {
        stroke-width: 0px;
      }

      .cls-2 {
        fill: #dadada;
      }
    </style>
  </defs>
  <g>
    <path class="cls-2" d="m5.5,10.17c.55,0,1-.45,1-1v-.59c0-.55-.45-1-1-1s-1,.45-1,1v.59c0,.55.45,1,1,1Z"/>
    <path class="cls-2" d="m4.5,16.28c0,4.03,2.22,7.67,5.8,9.52.15.08.3.11.46.11.36,0,.71-.2.89-.54.25-.49.06-1.09-.43-1.35-2.91-1.5-4.72-4.47-4.72-7.74v-3.49c0-.55-.45-1-1-1s-1,.45-1,1v3.49Z"/>
    <path class="cls-2" d="m24.66,4.24c-.22-.19-.51-.27-.8-.23-5.99.86-10.16-2.72-10.2-2.76-.38-.33-.95-.33-1.32,0-.04.04-4.2,3.62-10.2,2.76-.29-.04-.58.04-.8.23-.22.19-.34.47-.34.76v11.28c0,5.34,2.95,10.18,7.69,12.63l3.85,1.98c.14.07.3.11.46.11s.31-.04.46-.11l3.22-1.66c.49-.25.68-.86.43-1.35-.25-.49-.86-.69-1.35-.43l-2.76,1.42-3.39-1.74c-4.08-2.11-6.61-6.26-6.61-10.85V6.11c4.93.34,8.57-1.82,10-2.84,1.43,1.03,5.05,3.18,10,2.84v4.94c0,.55.45,1,1,1s1-.45,1-1v-6.05c0-.29-.13-.57-.34-.76Z"/>
  </g>
  <path class="cls-1" d="m23.5,13.5c-4.14,0-7.5,3.36-7.5,7.5s3.36,7.5,7.5,7.5,7.5-3.36,7.5-7.5-3.36-7.5-7.5-7.5Zm-.7,6.5h1.4c1.32,0,2.4,1.08,2.4,2.4,0,1.22-.92,2.22-2.1,2.37v.43c0,.55-.45,1-1,1s-1-.45-1-1v-.4h-1.1c-.55,0-1-.45-1-1s.45-1,1-1h2.8c.22,0,.4-.18.4-.4s-.18-.4-.4-.4h-1.4c-1.32,0-2.4-1.08-2.4-2.4,0-1.22.92-2.22,2.1-2.37v-.43c0-.55.45-1,1-1s1,.45,1,1v.4h1.1c.55,0,1,.45,1,1s-.45,1-1,1h-2.8c-.22,0-.4.18-.4.4s.18.4.4.4Z"/>
</svg>