<?xml version="1.0" encoding="UTF-8"?>
<svg id="OBJECT" xmlns="http://www.w3.org/2000/svg" viewBox="0 0 32 32">
  <defs>
    <style>
      .cls-1 {
        fill: #FD4360;
      }

      .cls-1, .cls-2 {
        stroke-width: 0px;
      }

      .cls-2 {
        fill: #dadada;
      }
    </style>
  </defs>
  <g>
    <path class="cls-2" d="m16.83,23.33h-3.33c-.55,0-1,.45-1,1s.45,1,1,1h1.5v.67c0,.55.45,1,1,1s1-.45,1-1v-.68c1.39-.09,2.5-1.24,2.5-2.65s-1.2-2.67-2.67-2.67h-1.67c-.37,0-.67-.3-.67-.67s.3-.67.67-.67h3.33c.55,0,1-.45,1-1s-.45-1-1-1h-1.5v-.67c0-.55-.45-1-1-1s-1,.45-1,1v.68c-1.39.09-2.5,1.24-2.5,2.65s1.2,2.67,2.67,2.67h1.67c.37,0,.67.3.67.67s-.3.67-.67.67Z"/>
    <path class="cls-2" d="m30.62,16.18c-.15-.53-.71-.83-1.24-.68-.53.15-.84.71-.68,1.24.2.68.3,1.41.3,2.15v2.11c0,4.41-3.59,8-8,8h-10c-4.41,0-8-3.59-8-8v-2.11c0-.74.1-1.47.3-2.15.15-.53-.15-1.08-.68-1.24-.53-.15-1.08.15-1.24.68-.25.87-.38,1.78-.38,2.71v2.11c0,5.51,4.49,10,10,10h10c5.51,0,10-4.49,10-10v-2.11c0-.93-.13-1.84-.38-2.71Z"/>
  </g>
  <g>
    <path class="cls-1" d="m16,5c.64,0,1.27.02,1.91.06-.44-2.31-2.47-4.06-4.91-4.06-2.76,0-5,2.24-5,5,0,.03,0,.06,0,.09,2.5-.71,5.22-1.09,7.99-1.09Z"/>
    <path class="cls-1" d="m23.99,6.09s0-.06,0-.09c0-2.76-2.24-5-5-5-.35,0-.68.04-1.01.1,1.08,1.1,1.8,2.55,1.97,4.16,1.39.18,2.74.46,4.03.83Z"/>
    <path class="cls-1" d="m28.04,9.87c-3.32-1.85-7.6-2.87-12.04-2.87s-8.71,1.02-12.04,2.87c-.9.5-1.46,1.45-1.46,2.47,0,.92.45,1.78,1.21,2.31.75.52,1.71.64,2.57.33,2.31-.86,6.64-2.29,9.73-2.29s7.42,1.44,9.73,2.29c.31.12.64.17.97.17.56,0,1.12-.17,1.6-.5.75-.52,1.21-1.39,1.21-2.31,0-1.02-.56-1.96-1.46-2.47Z"/>
  </g>
</svg>