<?xml version="1.0" encoding="UTF-8"?>
<svg id="OBJECT" xmlns="http://www.w3.org/2000/svg" viewBox="0 0 32 32">
  <defs>
    <style>
      .cls-1 {
        fill: #FD4360;
      }

      .cls-1, .cls-2 {
        stroke-width: 0px;
      }

      .cls-2 {
        fill: #dadada;
      }
    </style>
  </defs>
  <g>
    <path class="cls-2" d="m29.92,16.84l-1.07-1.87c-.27-.48-.88-.65-1.36-.37-.48.27-.65.89-.37,1.36l1.07,1.87c.54.94.82,2.01.82,3.09v1.85c0,3.44-2.79,6.23-6.23,6.23h-13.54c-3.44,0-6.23-2.79-6.23-6.23v-1.85c0-1.08.28-2.14.82-3.08l1.07-1.87c.27-.48.11-1.09-.37-1.36-.48-.27-1.09-.11-1.36.37l-1.07,1.87c-.71,1.24-1.08,2.65-1.08,4.07v1.85c0,4.54,3.69,8.23,8.23,8.23h13.54c4.54,0,8.23-3.69,8.23-8.23v-1.85c0-1.42-.37-2.83-1.08-4.08Z"/>
    <path class="cls-2" d="m16.83,23.83h-3.33c-.55,0-1,.45-1,1s.45,1,1,1h1.5v.67c0,.55.45,1,1,1s1-.45,1-1v-.68c1.39-.09,2.5-1.24,2.5-2.65s-1.2-2.67-2.67-2.67h-1.67c-.37,0-.67-.3-.67-.67s.3-.67.67-.67h3.33c.55,0,1-.45,1-1s-.45-1-1-1h-1.5v-.67c0-.55-.45-1-1-1s-1,.45-1,1v.68c-1.39.09-2.5,1.24-2.5,2.65s1.2,2.67,2.67,2.67h1.67c.37,0,.67.3.67.67s-.3.67-.67.67Z"/>
    <path class="cls-2" d="m23,22.5h1c.55,0,1-.45,1-1s-.45-1-1-1h-1c-.55,0-1,.45-1,1s.45,1,1,1Z"/>
    <path class="cls-2" d="m8,22.5h1c.55,0,1-.45,1-1s-.45-1-1-1h-1c-.55,0-1,.45-1,1s.45,1,1,1Z"/>
  </g>
  <g>
    <path class="cls-1" d="m16,3.68c.21,0,.41.02.62.03-.69-1.59-2.28-2.71-4.12-2.71-2.38,0-4.32,1.87-4.47,4.21l.61-.23c2.35-.87,4.83-1.3,7.36-1.3Z"/>
    <path class="cls-1" d="m23.36,4.99l.61.23c-.15-2.34-2.09-4.21-4.47-4.21-.69,0-1.34.17-1.93.45.56.71.98,1.53,1.21,2.43,1.56.2,3.09.56,4.57,1.1Z"/>
    <path class="cls-1" d="m27.86,10.34c-.54-1.21-1.51-2.12-2.75-2.58l-2.44-.9c-4.29-1.58-9.05-1.58-13.33,0l-2.44.9c-1.24.46-2.22,1.37-2.75,2.58-.39.88-.49,1.82-.34,2.75,8.04-1.57,16.36-1.57,24.4,0,.15-.92.05-1.87-.34-2.75Z"/>
  </g>
</svg>