<?xml version="1.0" encoding="UTF-8"?>
<svg id="OBJECT" xmlns="http://www.w3.org/2000/svg" viewBox="0 0 32 32">
  <defs>
    <style>
      .cls-1 {
        fill: #FD4360;
      }

      .cls-2 {
        fill: #dadada;
      }
    </style>
  </defs>
  <path class="cls-2" d="m24.69,25.91L6.09,7.31c-.39-.39-1.02-.39-1.41,0s-.39,1.02,0,1.41l.98.98-2.25,2.25c-.53.53-.82,1.23-.82,1.97s.29,1.45.82,1.98l3.94,3.94-5.62,5.62c-.47.47-.73,1.1-.73,1.77v2.76c0,.55.45,1,1,1h2.76c.67,0,1.29-.26,1.77-.73l5.62-5.62,3.94,3.94c.53.53,1.23.82,1.98.82s1.45-.29,1.97-.82l2.25-2.25.98.98c.2.2.45.29.71.29s.51-.1.71-.29c.39-.39.39-1.02,0-1.41Zm-19.57,2.94c-.1.09-.22.15-.36.15h-1.76v-1.76c0-.13.05-.26.15-.35l5.62-5.62,1.97,1.97-5.62,5.62Zm13.51-1.67c-.31.31-.81.31-1.12,0L4.82,14.5c-.31-.31-.31-.81,0-1.12l2.25-2.25,13.8,13.8-2.25,2.25Z"/>
  <g>
    <path class="cls-1" d="m11.69,10.09l10.22,10.22,3.19-6.37-7.03-7.03-6.37,3.19Zm7.5.72l2,2c.39.39.39,1.02,0,1.41-.2.2-.45.29-.71.29s-.51-.1-.71-.29l-2-2c-.39-.39-.39-1.02,0-1.41s1.02-.39,1.41,0Z"/>
    <path class="cls-1" d="m30.18,9.43l-7.61-7.61c-1.09-1.09-2.86-1.09-3.95,0l-1.41,1.41,11.56,11.56,1.41-1.41c1.09-1.09,1.09-2.86,0-3.95Z"/>
  </g>
</svg>