<?xml version="1.0" encoding="UTF-8"?>
<svg id="OBJECT" xmlns="http://www.w3.org/2000/svg" viewBox="0 0 32 32">
  <defs>
    <style>
      .cls-1 {
        fill: #FD4360;
      }

      .cls-1, .cls-2 {
        stroke-width: 0px;
      }

      .cls-2 {
        fill: #dadada;
      }
    </style>
  </defs>
  <g>
    <path class="cls-2" d="m30.09,7.85l-5.97-5.97c-1.17-1.18-3.22-1.18-4.4,0l-1.49,1.49c-.59.59-.91,1.37-.91,2.2s.32,1.61.91,2.2l.41.41-3.35,3.35-4.58-1.35c-1.09-.31-2.27,0-3.07.79l-1.59,1.59c-.39.39-.39,1.02,0,1.41.2.2.45.29.71.29s.51-.1.71-.29l1.59-1.59c.29-.29.71-.4,1.1-.29l4.9,1.45,3.36,3.36,1.45,4.89c.11.4,0,.82-.29,1.11l-1.59,1.59c-.39.39-.39,1.02,0,1.41.2.2.45.29.71.29s.51-.1.71-.29l1.59-1.59c.8-.8,1.11-1.98.79-3.08l-1.35-4.57,3.35-3.35.41.41c.61.61,1.4.91,2.2.91s1.59-.3,2.2-.91l1.49-1.49c1.21-1.21,1.21-3.19,0-4.4Zm-10.79,7.13l-2.32-2.32,3.06-3.07,2.32,2.32-3.07,3.06Zm9.37-4.14l-1.49,1.49c-.43.43-1.14.43-1.57,0l-5.97-5.97c-.21-.21-.33-.49-.33-.79s.12-.58.33-.79l1.49-1.49c.42-.42,1.15-.42,1.57,0l5.97,5.97c.43.43.43,1.14,0,1.57Z"/>
    <path class="cls-2" d="m12.17,15.32c-.39-.39-1.02-.39-1.41,0s-.39,1.02,0,1.41l.75.75c.2.19.45.29.71.29s.51-.1.71-.29c.39-.39.39-1.02,0-1.41l-.75-.75Z"/>
    <path class="cls-2" d="m15.91,19.05c-.39-.39-1.02-.39-1.41,0s-.39,1.02,0,1.41l.75.75c.2.19.45.29.71.29s.51-.1.71-.29c.39-.39.39-1.02,0-1.41l-.75-.75Z"/>
  </g>
  <g>
    <path class="cls-1" d="m18.43,27.57L4.43,13.57c-.39-.39-1.02-.39-1.41,0s-.39,1.02,0,1.41l14,14c.2.2.45.29.71.29s.51-.1.71-.29c.39-.39.39-1.02,0-1.41Z"/>
    <path class="cls-1" d="m1.27,26.99c-.17.17-.27.41-.27.65v2.43c0,.51.41.92.92.92h2.43c.25,0,.48-.1.65-.27l5.46-5.46-3.73-3.73-5.46,5.46Z"/>
  </g>
</svg>