<?xml version="1.0" encoding="UTF-8"?>
<svg id="OBJECT" xmlns="http://www.w3.org/2000/svg" viewBox="0 0 32 32">
  <defs>
    <style>
      .cls-1 {
        fill: #FD4360;
      }

      .cls-1, .cls-2 {
        stroke-width: 0px;
      }

      .cls-2 {
        fill: #dadada;
      }
    </style>
  </defs>
  <path class="cls-2" d="m21.59,17.77l-7.36-7.36c-.8-.8-1.97-1.11-3.06-.81l-7.16,1.95c-.34.09-.61.36-.7.71-.09.34,0,.71.26.96l5.38,5.38-7.66,7.66c-.19.19-.29.44-.29.71v3.04c0,.55.45,1,1,1h3.04c.27,0,.52-.11.71-.29l7.66-7.66,5.38,5.38c.19.19.45.29.71.29.09,0,.17-.01.26-.03.34-.09.61-.36.71-.7l1.95-7.16c.3-1.09-.02-2.26-.81-3.05ZM4.63,29h-1.63v-1.63l7.36-7.36,1.63,1.63-7.36,7.36Zm15.85-8.7l-1.5,5.5L6.21,13.03l5.5-1.5c.4-.11.83,0,1.12.3l7.36,7.36c.29.29.4.72.3,1.12Z"/>
  <g>
    <path class="cls-1" d="m30.08,8l-6.08-6.08c-1.23-1.23-3.23-1.23-4.46,0l-2.34,2.34,10.54,10.54,2.34-2.34c1.23-1.23,1.23-3.23,0-4.46Z"/>
    <rect class="cls-1" x="18.97" y="8.12" width="2.45" height="7.38" transform="translate(-2.43 17.74) rotate(-45)"/>
  </g>
</svg>