<?xml version="1.0" encoding="UTF-8"?>
<svg id="OBJECT" xmlns="http://www.w3.org/2000/svg" viewBox="0 0 32 32">
  <defs>
    <style>
      .cls-1 {
        fill: #FD4360;
      }

      .cls-1, .cls-2 {
        stroke-width: 0px;
      }

      .cls-2 {
        fill: #dadada;
      }
    </style>
  </defs>
  <path class="cls-2" d="m30.22,8.07l-6.29-6.29c-1.04-1.04-2.73-1.04-3.77,0l-1.97,1.97c-.39.39-.39,1.02,0,1.41l1.45,1.45-6.09,3.66-1.02-1.02c-1.04-1.04-2.73-1.04-3.77,0l-2.36,2.36c-.5.5-.78,1.17-.78,1.89s.28,1.38.78,1.89l10.22,10.22c.5.5,1.17.78,1.89.78s1.38-.28,1.89-.78l2.36-2.36c1.04-1.04,1.04-2.73,0-3.77l-1.02-1.02,3.66-6.09,1.45,1.45c.2.2.45.29.71.29s.51-.1.71-.29l1.97-1.97c1.04-1.04,1.04-2.73,0-3.77Zm-8.88,13.76l-2.36,2.36c-.25.25-.69.25-.94,0h0L7.82,13.96c-.13-.13-.2-.29-.2-.47s.07-.35.2-.47l2.36-2.36c.13-.13.3-.2.47-.2s.34.07.47.2l10.22,10.22c.26.26.26.68,0,.94Zm-1.06-4.84l-5.26-5.26,2.16-1.3,2.2,2.2c.2.2.45.29.71.29s.51-.1.71-.29c.39-.39.39-1.02,0-1.41l-1.85-1.85,2.16-1.3,2.83,2.83-3.66,6.09Zm8.53-6.56l-1.26,1.26-7.23-7.23,1.26-1.26c.26-.26.68-.26.94,0l6.29,6.29c.26.26.26.68,0,.94Z"/>
  <path class="cls-1" d="m8.06,19.86l-6.1,6.1c-.14.14-.23.32-.27.51l-.67,3.33c-.07.33.04.67.27.9.19.19.44.29.71.29.06,0,.13,0,.2-.02l3.33-.67c.19-.04.37-.13.51-.27l6.1-6.1-4.08-4.08Z"/>
</svg>