<?xml version="1.0" encoding="UTF-8"?>
<svg id="OBJECT" xmlns="http://www.w3.org/2000/svg" viewBox="0 0 32 32">
  <defs>
    <style>
      .cls-1 {
        fill: #FD4360;
      }

      .cls-2 {
        fill: #dadada;
      }
    </style>
  </defs>
  <path class="cls-2" d="M21.57,18.25l-7.82-7.82c-.89-.89-2.24-1.11-3.37-.55l-4.63,2.32-1.12-1.12c-.39-.39-1.02-.39-1.41,0s-.39,1.02,0,1.41l5.81,5.81L1.29,26.04c-.19,.19-.29,.44-.29,.71v3.26c0,.55,.45,1,1,1h3.26c.27,0,.52-.11,.71-.29l7.73-7.73,5.81,5.81c.2,.2,.45,.29,.71,.29s.51-.1,.71-.29c.39-.39,.39-1.02,0-1.41l-1.12-1.12,2.32-4.63c.56-1.13,.34-2.48-.55-3.37ZM4.84,29h-1.84v-1.84l7.44-7.43,1.84,1.84-7.43,7.44Zm15.48-8.27l-2.02,4.04L7.24,13.7l4.04-2.02c.35-.18,.78-.11,1.06,.17l7.82,7.82c.28,.28,.35,.71,.17,1.06Z"/>
  <g>
    <path class="cls-1" d="M30.14,7.26L24.72,1.83c-1.1-1.1-3.03-1.1-4.13,0l-2.84,2.84,9.56,9.56,2.84-2.84c.55-.55,.86-1.28,.86-2.06s-.3-1.51-.86-2.06Z"/>
    <rect class="cls-1" x="18.15" y="8.8" width="3.5" height="6.61" transform="translate(-2.73 17.61) rotate(-45)"/>
  </g>
</svg>