<?xml version="1.0" encoding="UTF-8"?>
<svg id="OBJECT" xmlns="http://www.w3.org/2000/svg" viewBox="0 0 32 32">
  <defs>
    <style>
      .cls-1 {
        fill: #FD4360;
      }

      .cls-1, .cls-2 {
        stroke-width: 0px;
      }

      .cls-2 {
        fill: #dadada;
      }
    </style>
  </defs>
  <g>
    <path class="cls-2" d="m20.01,25.21l-.95-.94,1.6-1.6c.39-.39.39-1.02,0-1.41s-1.02-.39-1.41,0l-2.31,2.31c-.19.19-.29.44-.29.71s.11.52.29.71l1.66,1.65c.52.52.52,1.37,0,1.89-.53.52-1.38.52-1.9,0l-1.65-1.66c-.19-.19-.44-.29-.71-.29h0c-.27,0-.52.11-.71.29l-1.81,1.81c-.44.44-1.15.44-1.59,0l-1.81-1.81c-.19-.19-.44-.29-.71-.29h0c-.27,0-.52.11-.71.29l-1.65,1.66c-.52.52-1.37.52-1.89,0-.52-.53-.52-1.38,0-1.9l1.66-1.65c.19-.19.29-.44.29-.71s-.11-.52-.29-.71l-1.81-1.81c-.44-.44-.44-1.15,0-1.59l7.42-7.42c.39-.39.39-1.02,0-1.41s-1.02-.39-1.41,0l-7.42,7.42c-1.22,1.22-1.22,3.2,0,4.41l1.1,1.1-.95.95c-1.29,1.29-1.3,3.41,0,4.73,1.31,1.29,3.42,1.29,4.72,0l.94-.95,1.1,1.1c.61.61,1.41.91,2.21.91s1.6-.3,2.21-.91l1.1-1.1.95.95c1.29,1.29,3.41,1.3,4.73,0,1.29-1.31,1.29-3.43,0-4.72Z"/>
    <path class="cls-2" d="m8,17.17l-.38.38c-.39.39-.39,1.02,0,1.41.2.2.45.29.71.29s.51-.1.71-.29l.38-.38c.39-.39.39-1.02,0-1.41-.39-.39-1.02-.39-1.41,0Z"/>
    <path class="cls-2" d="m5,20.18l-.38.38c-.39.39-.39,1.02,0,1.41.2.2.45.29.71.29s.51-.1.71-.29l.38-.38c.39-.39.39-1.02,0-1.41s-1.02-.39-1.41,0Z"/>
  </g>
  <path class="cls-1" d="m30.09,8.81l-1.1-1.1.95-.95c1.3-1.3,1.3-3.42,0-4.73-1.3-1.3-3.42-1.3-4.72,0l-.95.95-1.1-1.1c-1.18-1.18-3.24-1.18-4.42,0l-1.1,1.1-.95-.95c-1.3-1.3-3.42-1.3-4.72,0-1.3,1.3-1.3,3.42,0,4.73l.95.95-1.9,1.9,3.86,3.86-1.14,1.14c-1,1-1,2.62,0,3.62,1,1,2.62,1,3.62,0l1.14-1.14,3.86,3.86,7.71-7.72c1.22-1.22,1.22-3.2,0-4.42Zm-5.71,5.63l-.38.38c-.2.19-.45.29-.71.29s-.51-.1-.71-.29c-.39-.39-.39-1.02,0-1.41l.38-.38c.39-.39,1.02-.39,1.41,0,.39.39.39,1.02,0,1.41Zm3.01-3.01l-.38.38c-.2.2-.45.29-.71.29s-.51-.1-.71-.29c-.39-.39-.39-1.02,0-1.41l.38-.38c.39-.39,1.02-.39,1.41,0s.39,1.02,0,1.41Z"/>
</svg>