<?xml version="1.0" encoding="UTF-8"?>
<svg id="OBJECT" xmlns="http://www.w3.org/2000/svg" viewBox="0 0 32 32">
  <defs>
    <style>
      .cls-1 {
        fill: #FD4360;
      }

      .cls-1, .cls-2 {
        stroke-width: 0px;
      }

      .cls-2 {
        fill: #dadada;
      }
    </style>
  </defs>
  <g>
    <path class="cls-2" d="m22.83,13.17c-.76-.76-1.76-1.17-2.83-1.17h-3v-3c0-.55-.45-1-1-1h-3v-3c0-2.21-1.79-4-4-4s-4,1.79-4,4v3h-3c-.55,0-1,.45-1,1v14c0,.55.45,1,1,1h14c.55,0,1-.45,1-1v-3h3c2.21,0,4-1.79,4-4,0-1.07-.42-2.07-1.17-2.83Zm-2.83,4.83h-4c-.55,0-1,.45-1,1v3H3v-12h5c.55,0,1-.45,1-1s-.45-1-1-1h-1v-3c0-1.1.9-2,2-2s2,.9,2,2v4c0,.55.45,1,1,1h3v3c0,.55.45,1,1,1h4c.53,0,1.03.21,1.41.59s.59.88.59,1.41c0,1.1-.9,2-2,2Z"/>
    <path class="cls-2" d="m5,17.5c-.55,0-1,.45-1,1v1.5c0,.55.45,1,1,1s1-.45,1-1v-1.5c0-.55-.45-1-1-1Z"/>
  </g>
  <path class="cls-1" d="m30,8h-11v2h1c3.31,0,6,2.69,6,6s-2.69,6-6,6h-1v5c0,2.21,1.79,4,4,4s4-1.79,4-4v-1h-2c-.55,0-1-.45-1-1s.45-1,1-1h5c.55,0,1-.45,1-1v-14c0-.55-.45-1-1-1Zm-1,4.5c0,.55-.45,1-1,1s-1-.45-1-1v-1.5c0-.55.45-1,1-1s1,.45,1,1v1.5Z"/>
</svg>