<?xml version="1.0" encoding="UTF-8" standalone="no"?>
<svg
   id="OBJECT"
   viewBox="0 0 32 32"
   version="1.1"
   sodipodi:docname="Idea Page.svg"
   xml:space="preserve"
   inkscape:version="1.2.2 (732a01da63, 2022-12-09)"
   xmlns:inkscape="http://www.inkscape.org/namespaces/inkscape"
   xmlns:sodipodi="http://sodipodi.sourceforge.net/DTD/sodipodi-0.dtd"
   xmlns="http://www.w3.org/2000/svg"
   xmlns:svg="http://www.w3.org/2000/svg"><sodipodi:namedview
     id="namedview17"
     pagecolor="#505050"
     bordercolor="#ffffff"
     borderopacity="1"
     inkscape:showpageshadow="0"
     inkscape:pageopacity="0"
     inkscape:pagecheckerboard="1"
     inkscape:deskcolor="#505050"
     showgrid="false"
     inkscape:zoom="3.2382813"
     inkscape:cx="-28.718938"
     inkscape:cy="-46.629674"
     inkscape:window-width="1920"
     inkscape:window-height="1009"
     inkscape:window-x="-8"
     inkscape:window-y="-8"
     inkscape:window-maximized="1"
     inkscape:current-layer="OBJECT" /><defs
     id="defs4"><style
       id="style2">
      .cls-1 {
        fill: #FD4360;
      }

      .cls-1, .cls-2 {
        stroke-width: 0px;
      }

      .cls-2 {
        fill: #dadada;
      }
    </style></defs><g
     id="g12"><path
       class="cls-2"
       d="m28,1H4c-1.65,0-3,1.35-3,3v15c0,1.65,1.35,3,3,3h8v2.5h-2.2c-1.18,0-2.26.7-2.74,1.78l-1.21,2.72h-2.85c-.55,0-1,.45-1,1s.45,1,1,1h26c.55,0,1-.45,1-1s-.45-1-1-1h-2.85l-1.21-2.72c-.48-1.08-1.56-1.78-2.74-1.78h-2.2v-2.5h8c1.65,0,3-1.35,3-3V4c0-1.65-1.35-3-3-3ZM4,3h24c.55,0,1,.45,1,1v12H3V4c0-.55.45-1,1-1Zm19.11,24.09l.85,1.91h-15.92l.85-1.91c.16-.36.52-.59.91-.59h12.4c.4,0,.75.23.91.59Zm-5.11-2.59h-4v-2.5h4v2.5Zm10-4.5H4c-.55,0-1-.45-1-1v-1h26v1c0,.55-.45,1-1,1Z"
       id="path6" /><path
       class="cls-2"
       d="m5,6h1c.55,0,1-.45,1-1s-.45-1-1-1h-1c-.55,0-1,.45-1,1s.45,1,1,1Z"
       id="path8" /><path
       class="cls-2"
       d="m26,6h1c.55,0,1-.45,1-1s-.45-1-1-1h-1c-.55,0-1,.45-1,1s.45,1,1,1Z"
       id="path10" /></g><path
     style="fill:#fd4360;stroke-width:0.119312;fill-opacity:1"
     d="m 15.956599,15.339604 c -0.01625,-0.02039 -0.09967,-0.250606 -0.185637,-0.511592 -0.21982,-0.667261 -0.185758,-0.62048 -0.505635,-0.694135 -0.472994,-0.108908 -0.434107,-0.124194 -0.89779,0.353073 -0.221856,0.22836 -0.417674,0.415204 -0.435143,0.415204 -0.05832,0 -0.886985,-0.483621 -0.903812,-0.527473 -0.0091,-0.02375 0.04369,-0.276356 0.117339,-0.561311 0.07364,-0.28496 0.133911,-0.551681 0.133911,-0.592716 0,-0.05244 -0.06389,-0.140611 -0.215033,-0.296637 -0.118253,-0.122115 -0.239492,-0.235199 -0.269388,-0.251303 -0.03955,-0.0213 -0.207498,0.0046 -0.61581,0.09475 -0.308785,0.06821 -0.579916,0.116913 -0.60251,0.108244 -0.03945,-0.01516 -0.491918,-0.875147 -0.491918,-0.935026 0,-0.01607 0.190187,-0.204619 0.422619,-0.419031 0.232432,-0.214406 0.432144,-0.415518 0.44379,-0.446908 0.0257,-0.06917 -0.07348,-0.633294 -0.121446,-0.691088 -0.0189,-0.02265 -0.28085,-0.131591 -0.582349,-0.242106 L 10.699608,9.9406166 V 9.7732178 c 0,-0.2740848 0.08785,-0.8721403 0.135182,-0.9201746 0.02363,-0.023898 0.172934,-0.066356 0.331943,-0.094334 0.760441,-0.1338107 0.824821,-0.1483806 0.870873,-0.1970856 0.05769,-0.06103 0.23385,-0.483798 0.23385,-0.5612772 0,-0.030275 -0.153025,-0.2547444 -0.340042,-0.498827 -0.187026,-0.24408 -0.340503,-0.4676254 -0.341062,-0.4967678 -10e-4,-0.052909 0.593921,-0.814543 0.673013,-0.8615793 0.02748,-0.016277 0.229832,0.052812 0.586829,0.2001875 0.299784,0.1237637 0.562608,0.2250286 0.584047,0.2250286 0.05917,0 0.432253,-0.2587295 0.467174,-0.3239734 0.02068,-0.038744 0.02157,-0.1516036 0.0024,-0.348594 -0.01567,-0.1602176 -0.03223,-0.4247619 -0.03695,-0.5878784 l -0.0085,-0.2965749 0.519005,-0.1830831 c 0.447682,-0.1579197 0.52716,-0.177907 0.578327,-0.145438 0.0326,0.020707 0.201974,0.2426264 0.376324,0.4931626 0.174354,0.2505345 0.345646,0.4661115 0.380645,0.4790586 0.100346,0.037118 0.465617,-0.00701 0.514487,-0.062149 0.02334,-0.026233 0.158164,-0.2645872 0.299783,-0.5296522 0.141621,-0.2650632 0.27311,-0.483472 0.292164,-0.4853501 0.111399,-0.010957 1.078781,0.2200804 1.128171,0.2694645 0.02098,0.021093 0.04059,0.2442544 0.05268,0.6029114 0.01067,0.3131863 0.02746,0.5898475 0.03772,0.614801 0.02777,0.067712 0.326019,0.2363756 0.418108,0.2363756 0.04561,0 0.287822,-0.115173 0.561376,-0.2669184 0.264632,-0.146806 0.501777,-0.2669186 0.526975,-0.2669186 0.06173,0 0.806672,0.7576527 0.818864,0.8328662 0.0053,0.032738 -0.02978,0.1223161 -0.07792,0.1990648 -0.261412,0.4164586 -0.480377,0.8158087 -0.480377,0.8760844 0,0.087451 0.166967,0.3976096 0.232194,0.4312817 0.02718,0.014091 0.307401,0.042578 0.622552,0.063331 0.528808,0.034829 0.576025,0.042556 0.612367,0.1002432 0.06775,0.107516 0.258607,1.0580621 0.221442,1.102829 -0.01772,0.021393 -0.251633,0.147734 -0.519754,0.2807552 -0.268118,0.1330283 -0.507315,0.2701952 -0.531568,0.3048172 -0.03044,0.043449 -0.04411,0.1393023 -0.04411,0.3093353 v 0.246378 l 0.473383,0.347586 c 0.260349,0.191174 0.481693,0.371658 0.491854,0.401073 0.01802,0.05181 -0.287409,0.943751 -0.349695,1.021598 -0.03945,0.04934 -0.157484,0.04734 -0.7105,-0.01214 -0.300261,-0.03229 -0.486564,-0.04034 -0.524491,-0.02269 -0.08384,0.03907 -0.359252,0.428489 -0.359252,0.507941 0,0.03663 0.03858,0.163699 0.08569,0.282384 0.184427,0.464254 0.299837,0.79011 0.299837,0.846477 0,0.04112 -0.121651,0.150318 -0.40184,0.360694 -0.221028,0.165937 -0.41867,0.308164 -0.439237,0.316056 -0.02068,0.0078 -0.247439,-0.152931 -0.504132,-0.357384 -0.256716,-0.204452 -0.479591,-0.371729 -0.495295,-0.371729 -0.06807,0 -0.592037,0.218705 -0.629628,0.262802 -0.02274,0.02674 -0.07205,0.195405 -0.109513,0.374831 -0.115834,0.555096 -0.170897,0.788191 -0.191015,0.808303 -0.02924,0.0293 -0.597037,0.09387 -0.836533,0.09514 -0.134915,7.36e-4 -0.221974,-0.01229 -0.240704,-0.03597 z m 0.911772,-2.272002 c 0.459269,-0.122632 0.821744,-0.296588 1.179068,-0.565844 0.606402,-0.456934 1.000285,-1.081363 1.198472,-1.899944 0.02451,-0.100951 0.03949,-0.343956 0.03949,-0.6376405 0,-0.6063425 -0.07427,-0.9321895 -0.328511,-1.4415135 -0.43139,-0.8641603 -1.190419,-1.4461331 -2.207142,-1.6922877 -0.218075,-0.052799 -1.057192,-0.052799 -1.275273,0 -0.676873,0.163875 -1.172693,0.4324682 -1.619817,0.8774846 -0.408762,0.4068335 -0.692879,0.9065664 -0.845538,1.4872119 -0.05997,0.2281285 -0.06966,0.3349638 -0.06966,0.7691047 0,0.4336685 0.0097,0.5410965 0.06942,0.7681615 0.244927,0.931407 0.847553,1.677798 1.690519,2.093767 0.270215,0.133347 0.554666,0.229104 0.844302,0.284244 0.30755,0.05854 1.033007,0.03515 1.324676,-0.04275 z"
     id="path381" /></svg>
