<?xml version="1.0" encoding="UTF-8"?>
<svg id="OBJECT" xmlns="http://www.w3.org/2000/svg" viewBox="0 0 32 32">
  <defs>
    <style>
      .cls-1 {
        fill: #FD4360;
      }

      .cls-1, .cls-2 {
        stroke-width: 0px;
      }

      .cls-2 {
        fill: #dadada;
      }
    </style>
  </defs>
  <path class="cls-2" d="m26,1H6c-2.21,0-4,1.79-4,4v16c0,.55.45,1,1,1s1-.45,1-1V5c0-1.1.9-2,2-2h1v10.18c-1.16.41-2,1.51-2,2.82,0,1.65,1.35,3,3,3s3-1.35,3-3c0-1.3-.84-2.4-2-2.82V3h6v10.18c-1.16.41-2,1.51-2,2.82,0,1.65,1.35,3,3,3s3-1.35,3-3c0-1.3-.84-2.4-2-2.82V3h6v10.18c-1.16.41-2,1.51-2,2.82,0,1.65,1.35,3,3,3s3-1.35,3-3c0-1.3-.84-2.4-2-2.82V3h1c1.1,0,2,.9,2,2v16c0,.55.45,1,1,1s1-.45,1-1V5c0-2.21-1.79-4-4-4ZM8,17c-.55,0-1-.45-1-1s.45-1,1-1,1,.45,1,1-.45,1-1,1Zm8,0c-.55,0-1-.45-1-1s.45-1,1-1,1,.45,1,1-.45,1-1,1Zm8,0c-.55,0-1-.45-1-1s.45-1,1-1,1,.45,1,1-.45,1-1,1Z"/>
  <path class="cls-1" d="m1,24v7h30v-7H1Zm6,4.5h-1c-.55,0-1-.45-1-1s.45-1,1-1h1c.55,0,1,.45,1,1s-.45,1-1,1Zm19,0h-1c-.55,0-1-.45-1-1s.45-1,1-1h1c.55,0,1,.45,1,1s-.45,1-1,1Z"/>
</svg>