<?xml version="1.0" encoding="UTF-8"?>
<svg id="OBJECT" xmlns="http://www.w3.org/2000/svg" viewBox="0 0 32 32">
  <defs>
    <style>
      .cls-1 {
        fill: #FD4360;
      }

      .cls-1, .cls-2 {
        stroke-width: 0px;
      }

      .cls-2 {
        fill: #dadada;
      }
    </style>
  </defs>
  <path class="cls-2" d="m16,15c-6.73,0-12,3.51-12,8s5.27,8,12,8,12-3.51,12-8-5.27-8-12-8Zm0,2c4.56,0,8.51,1.94,9.65,4.49-1.37.94-3.21,1.66-5.33,2.08-.51-1.5-2.22-2.58-4.33-2.58s-3.82,1.08-4.33,2.58c-2.12-.42-3.96-1.14-5.33-2.08,1.15-2.55,5.1-4.49,9.65-4.49Zm2.5,7.5c0,.71-1.03,1.5-2.5,1.5s-2.5-.79-2.5-1.5,1.03-1.5,2.5-1.5,2.5.79,2.5,1.5Zm-2.5,4.5c-5.04,0-9.34-2.37-9.93-5.32,1.57.89,3.52,1.55,5.68,1.94.59,1.39,2.24,2.38,4.25,2.38s3.66-.99,4.25-2.38c2.15-.38,4.1-1.05,5.68-1.94-.58,2.95-4.89,5.32-9.93,5.32Z"/>
  <g>
    <path class="cls-1" d="m27.82,7.38c-1.1-3.68-5.89-6.38-11.82-6.38S5.28,3.7,4.18,7.38c3.22-1.53,7.36-2.38,11.82-2.38s8.59.86,11.82,2.38Z"/>
    <path class="cls-1" d="m16,7c-4.6,0-8.96,1-12,2.72.26,2.05,1.66,3.85,3.77,5.15,2.3-1.18,5.13-1.87,8.23-1.87s5.93.69,8.23,1.87c2.11-1.3,3.5-3.1,3.77-5.15-3.04-1.72-7.4-2.72-12-2.72Z"/>
  </g>
</svg>