<?xml version="1.0" encoding="UTF-8"?>
<svg id="OBJECT" xmlns="http://www.w3.org/2000/svg" viewBox="0 0 32 32">
  <defs>
    <style>
      .cls-1 {
        fill: #FD4360;
      }

      .cls-2 {
        fill: #dadada;
      }
    </style>
  </defs>
  <g>
    <path class="cls-2" d="m13.5,20.5h5c.55,0,1-.45,1-1s-.45-1-1-1h-5c-.55,0-1,.45-1,1s.45,1,1,1Z"/>
    <path class="cls-2" d="m14,21.5c-.55,0-1,.45-1,1s.45,1,1,1h4c.55,0,1-.45,1-1s-.45-1-1-1h-4Z"/>
    <path class="cls-2" d="m23,29h-1.35l1.7-11.86c.08-.55-.3-1.05-.85-1.13-.54-.08-1.05.3-1.13.85l-1.17,8.14h-8.41l-1.17-8.14c-.08-.55-.59-.93-1.13-.85-.55.08-.93.58-.85,1.13l1.7,11.86h-1.35c-.55,0-1,.45-1,1s.45,1,1,1h14c.55,0,1-.45,1-1s-.45-1-1-1Zm-10.92-2h7.84l-.29,2h-7.27l-.29-2Z"/>
  </g>
  <g>
    <circle class="cls-1" cx="16" cy="4" r="3"/>
    <path class="cls-1" d="m19.56,7.5c-.91.92-2.17,1.5-3.56,1.5s-2.65-.58-3.56-1.5c-.66.68-1.14,1.54-1.34,2.5h9.8c-.2-.96-.67-1.82-1.34-2.5Z"/>
    <rect class="cls-1" x="7" y="12" width="18" height="3"/>
  </g>
</svg>