<?xml version="1.0" encoding="UTF-8"?>
<svg id="OBJECT" xmlns="http://www.w3.org/2000/svg" viewBox="0 0 32 32">
  <defs>
    <style>
      .cls-1 {
        fill: #FD4360;
      }

      .cls-1, .cls-2 {
        stroke-width: 0px;
      }

      .cls-2 {
        fill: #dadada;
      }
    </style>
  </defs>
  <path class="cls-1" d="m12.33,8.74l-.76,2.33c-.21.66.02,1.37.58,1.77.28.2.61.3.93.3s.65-.1.93-.3l1.98-1.44,1.98,1.44c.56.4,1.31.41,1.87,0,.56-.41.79-1.12.58-1.77l-.76-2.33,1.98-1.44c.56-.41.79-1.12.58-1.77-.21-.66-.82-1.1-1.51-1.1h-2.45l-.76-2.33c-.21-.66-.82-1.1-1.51-1.1s-1.3.44-1.51,1.1l-.76,2.33h-2.45c-.69,0-1.3.44-1.51,1.1-.21.66.02,1.37.58,1.77l1.98,1.44Z"/>
  <path class="cls-1" d="m25,7h5c.55,0,1-.45,1-1s-.45-1-1-1h-5c-.55,0-1,.45-1,1s.45,1,1,1Z"/>
  <path class="cls-1" d="m22,10c0,.55.45,1,1,1h2c.55,0,1-.45,1-1s-.45-1-1-1h-2c-.55,0-1,.45-1,1Z"/>
  <path class="cls-1" d="m6,9c-.55,0-1,.45-1,1s.45,1,1,1h2c.55,0,1-.45,1-1s-.45-1-1-1h-2Z"/>
  <path class="cls-1" d="m2,7h5c.55,0,1-.45,1-1s-.45-1-1-1H2c-.55,0-1,.45-1,1s.45,1,1,1Z"/>
  <g>
    <path class="cls-2" d="m30,29h-1v-3.5c0-1.38-1.12-2.5-2.5-2.5h-5.5v-5.5c0-1.38-1.12-2.5-2.5-2.5h-5c-1.38,0-2.5,1.12-2.5,2.5v2.5h-5.5c-1.38,0-2.5,1.12-2.5,2.5v6.5h-1c-.55,0-1,.45-1,1s.45,1,1,1h28c.55,0,1-.45,1-1s-.45-1-1-1Zm-3.5-4c.28,0,.5.22.5.5v3.5h-6v-4h5.5Zm-13-8h5c.28,0,.5.22.5.5v11.5h-6v-11.5c0-.28.22-.5.5-.5Zm-8.5,5.5c0-.28.22-.5.5-.5h5.5v7h-6v-6.5Z"/>
    <path class="cls-2" d="m25,7h5c.55,0,1-.45,1-1s-.45-1-1-1h-5c-.55,0-1,.45-1,1s.45,1,1,1Z"/>
    <path class="cls-2" d="m23,11h2c.55,0,1-.45,1-1s-.45-1-1-1h-2c-.55,0-1,.45-1,1s.45,1,1,1Z"/>
    <path class="cls-2" d="m6,9c-.55,0-1,.45-1,1s.45,1,1,1h2c.55,0,1-.45,1-1s-.45-1-1-1h-2Z"/>
    <path class="cls-2" d="m2,7h5c.55,0,1-.45,1-1s-.45-1-1-1H2c-.55,0-1,.45-1,1s.45,1,1,1Z"/>
  </g>
</svg>