<?xml version="1.0" encoding="UTF-8"?>
<svg id="OBJECT" xmlns="http://www.w3.org/2000/svg" viewBox="0 0 32 32">
  <defs>
    <style>
      .cls-1 {
        fill: #FD4360;
      }

      .cls-1, .cls-2 {
        stroke-width: 0px;
      }

      .cls-2 {
        fill: #dadada;
      }
    </style>
  </defs>
  <g>
    <path class="cls-2" d="m24.5,29h-1.88l1.63-13.88c.06-.55-.33-1.04-.88-1.11-.54-.07-1.05.33-1.11.88l-1.19,10.12h-10.16l-1.19-10.12c-.06-.55-.57-.95-1.11-.88-.55.06-.94.56-.88,1.11l1.63,13.88h-1.88c-.55,0-1,.45-1,1s.45,1,1,1h17c.55,0,1-.45,1-1s-.45-1-1-1Zm-13.35-2h9.69l-.23,2h-9.22l-.23-2Z"/>
    <path class="cls-2" d="m14,23.5c.55,0,1-.45,1-1v-5c0-.55-.45-1-1-1s-1,.45-1,1v5c0,.55.45,1,1,1Z"/>
    <path class="cls-2" d="m18,23.5c.55,0,1-.45,1-1v-5c0-.55-.45-1-1-1s-1,.45-1,1v5c0,.55.45,1,1,1Z"/>
  </g>
  <g>
    <path class="cls-1" d="m27,7H5c-.55,0-1,.45-1,1s.45,1,1,1h.5v3h21v-3h.5c.55,0,1-.45,1-1s-.45-1-1-1Z"/>
    <path class="cls-1" d="m22.62,3h2.38c.55,0,1-.45,1-1s-.45-1-1-1h-3c-.38,0-.73.21-.89.55l-1.72,3.45h2.24l1-2Z"/>
    <path class="cls-1" d="m7,3h2.38l1,2h2.24l-1.72-3.45c-.17-.34-.52-.55-.89-.55h-3c-.55,0-1,.45-1,1s.45,1,1,1Z"/>
  </g>
</svg>