<?xml version="1.0" encoding="UTF-8"?>
<svg id="OBJECT" xmlns="http://www.w3.org/2000/svg" viewBox="0 0 32 32">
  <defs>
    <style>
      .cls-1 {
        fill: #FD4360;
      }

      .cls-2 {
        fill: #dadada;
      }
    </style>
  </defs>
  <path class="cls-2" d="M16,8c-4.41,0-8,3.59-8,8s3.59,8,8,8,8-3.59,8-8-3.59-8-8-8Zm0,2c3.31,0,6,2.69,6,6,0,.52-.07,1.03-.2,1.51-.8-.84-1.77-1.5-2.84-1.92,.19-.41,.29-.86,.29-1.33,0-1.79-1.46-3.25-3.25-3.25s-3.25,1.46-3.25,3.25c0,.48,.11,.93,.29,1.33-1.08,.43-2.05,1.08-2.84,1.92-.13-.48-.2-.99-.2-1.51,0-3.31,2.69-6,6-6Zm-1.25,4.25c0-.69,.56-1.25,1.25-1.25s1.25,.56,1.25,1.25-.56,1.25-1.25,1.25-1.25-.56-1.25-1.25Zm1.25,7.75c-2,0-3.77-.99-4.86-2.5,.84-1.17,2.08-1.99,3.49-2.32,.42,.2,.88,.32,1.38,.32s.96-.12,1.38-.32c1.41,.33,2.64,1.15,3.49,2.32-1.09,1.51-2.86,2.5-4.86,2.5Z"/>
  <g>
    <path class="cls-1" d="M16,1c-1.1,0-2,.9-2,2v2c0,1.1,.9,2,2,2s2-.9,2-2V3c0-1.1-.9-2-2-2Z"/>
    <path class="cls-1" d="M16,25c-1.1,0-2,.9-2,2v2c0,1.1,.9,2,2,2s2-.9,2-2v-2c0-1.1-.9-2-2-2Z"/>
    <path class="cls-1" d="M29,14h-2c-1.1,0-2,.9-2,2s.9,2,2,2h2c1.1,0,2-.9,2-2s-.9-2-2-2Z"/>
    <path class="cls-1" d="M7,16c0-1.1-.9-2-2-2H3c-1.1,0-2,.9-2,2s.9,2,2,2h2c1.1,0,2-.9,2-2Z"/>
    <path class="cls-1" d="M26.26,12.07c.24-.04,.48-.07,.74-.07h1.36c-1.28-3.95-4.41-7.08-8.36-8.36v1.36c0,.25-.03,.5-.07,.74,2.91,1.12,5.22,3.43,6.34,6.34Z"/>
    <path class="cls-1" d="M12,3.64c-3.95,1.28-7.08,4.41-8.36,8.36h1.36c.25,0,.5,.03,.74,.07,1.12-2.91,3.43-5.22,6.34-6.34-.04-.24-.07-.48-.07-.74v-1.36Z"/>
    <path class="cls-1" d="M26.26,19.93c-1.12,2.91-3.43,5.22-6.34,6.34,.04,.24,.07,.48,.07,.74v1.36c3.95-1.28,7.08-4.41,8.36-8.36h-1.36c-.25,0-.5-.03-.74-.07Z"/>
    <path class="cls-1" d="M5.74,19.93c-.24,.04-.48,.07-.74,.07h-1.36c1.28,3.95,4.41,7.08,8.36,8.36v-1.36c0-.25,.03-.5,.07-.74-2.91-1.12-5.22-3.43-6.34-6.34Z"/>
  </g>
</svg>