<?xml version="1.0" encoding="UTF-8"?>
<svg id="OBJECT" xmlns="http://www.w3.org/2000/svg" viewBox="0 0 32 32">
  <defs>
    <style>
      .cls-1 {
        fill: #FD4360;
      }

      .cls-1, .cls-2 {
        stroke-width: 0px;
      }

      .cls-2 {
        fill: #dadada;
      }
    </style>
  </defs>
  <g>
    <path class="cls-2" d="m30.78,20.38l-2-2.5c-.34-.43-.97-.5-1.41-.16-.43.35-.5.97-.16,1.41l1.5,1.88-1.5,1.88c-.34.43-.27,1.06.16,1.41.18.15.41.22.62.22.29,0,.58-.13.78-.38l2-2.5c.29-.37.29-.88,0-1.25Z"/>
    <path class="cls-2" d="m4.63,24.28c.43-.35.5-.97.16-1.41l-1.5-1.88,1.5-1.88c.34-.43.27-1.06-.16-1.41-.43-.35-1.06-.27-1.41.16l-2,2.5c-.29.37-.29.88,0,1.25l2,2.5c.2.25.49.38.78.38.22,0,.44-.07.62-.22Z"/>
    <path class="cls-2" d="m27,29h-1.5V13c0-.55-.45-1-1-1H7.5c-.55,0-1,.45-1,1v16h-1.5c-.55,0-1,.45-1,1s.45,1,1,1h22c.55,0,1-.45,1-1s-.45-1-1-1Zm-3.5-3.5h-1.5v-3.5c0-.55-.45-1-1-1h-5c-.55,0-1,.45-1,1v3.5h-6.5v-8h15v8Zm-6.5-2.5h3v6h-3v-6Zm5,4.5h1.5v1.5h-1.5v-1.5Zm1.5-13.5v1.5h-15v-1.5h15Zm-15,13.5h6.5v1.5h-6.5v-1.5Z"/>
  </g>
  <path class="cls-1" d="m12.71,6.71l1.29-1.29v4.59h4v-4.59l1.29,1.29c.2.2.45.29.71.29s.51-.1.71-.29c.39-.39.39-1.02,0-1.41l-4-4c-.39-.39-1.02-.39-1.41,0l-4,4c-.39.39-.39,1.02,0,1.41s1.02.39,1.41,0Z"/>
</svg>