<?xml version="1.0" encoding="UTF-8"?>
<svg id="OBJECT" xmlns="http://www.w3.org/2000/svg" viewBox="0 0 512 512">
  <defs>
    <style>
      .cls-1 {
        fill: #FD4360;
      }

      .cls-2 {
        fill: #dadada;
      }
    </style>
  </defs>
  <g>
    <path class="cls-2" d="M447.59,344.03c-1.97-3.64-6.53-4.99-10.17-3.02-3.64,1.97-4.99,6.53-3.02,10.17,.39,.72,.78,1.45,1.15,2.18,1.33,2.58,3.96,4.07,6.67,4.07,1.16,0,2.33-.27,3.43-.83,3.68-1.89,5.13-6.42,3.24-10.1-.42-.82-.86-1.64-1.3-2.46Z"/>
    <path class="cls-2" d="M74.58,341.01c-3.64-1.98-8.19-.62-10.17,3.02-.45,.82-.88,1.64-1.3,2.46-1.9,3.68-.45,8.21,3.24,10.1,1.1,.57,2.27,.83,3.43,.83,2.72,0,5.34-1.49,6.67-4.07,.37-.73,.76-1.45,1.15-2.18,1.97-3.64,.62-8.19-3.02-10.17Z"/>
    <path class="cls-2" d="M451.76,276.32c7.6-21.55,11.74-44.7,11.74-68.82C463.5,93.08,370.42,0,256,0S48.5,93.08,48.5,207.5c0,24.11,4.15,47.27,11.74,68.82C31.82,300.07,0,337.5,0,386v118.5c0,2.79,1.55,5.35,4.02,6.65,2.48,1.3,5.46,1.11,7.75-.49l52.2-36.24,56.26,36.38c1.25,.81,2.66,1.2,4.07,1.2,1.74,0,3.48-.61,4.88-1.8,2.52-2.16,3.33-5.71,1.98-8.75-.35-.78-32.65-74.77-17.06-142.71,37.14,34.87,87.07,56.26,141.91,56.26s104.77-21.39,141.9-56.26c15.54,67.84-16.72,141.93-17.06,142.71-1.35,3.03-.54,6.59,1.98,8.75,1.39,1.19,3.13,1.8,4.88,1.8,1.41,0,2.83-.4,4.07-1.2l56.26-36.38,52.2,36.24c2.29,1.59,5.28,1.78,7.75,.49,2.47-1.29,4.02-3.85,4.02-6.65v-118.5c0-48.5-31.82-85.93-60.24-109.68ZM70.1,460.52c-3.03-9.58-13.59-48.19-1.51-87.79,1.21-3.96-1.02-8.15-4.98-9.36-3.96-1.21-8.15,1.02-9.36,4.98-12.52,40.99-3.5,79.86,.72,94.05l-39.97,27.75v-104.16c0-40.69,26.22-73.24,51.08-94.95,8.97,20.31,21.1,38.92,35.77,55.2-15.48,53-2.19,109.62,7.57,139.69l-39.32-25.42Zm185.9-60.52c-106.14,0-192.5-86.36-192.5-192.5S149.86,15,256,15s192.5,86.36,192.5,192.5-86.36,192.5-192.5,192.5Zm241,90.16l-39.97-27.75c4.22-14.19,13.24-53.06,.72-94.05-1.21-3.96-5.4-6.19-9.36-4.98-3.96,1.21-6.19,5.4-4.98,9.36,12.09,39.59,1.53,78.2-1.51,87.79l-39.32,25.42c9.76-30.07,23.04-86.69,7.57-139.69,14.67-16.28,26.8-34.89,35.77-55.2,24.86,21.72,51.08,54.27,51.08,94.95v104.16Z"/>
    <path class="cls-2" d="M256,30c-97.87,0-177.5,79.63-177.5,177.5s79.63,177.5,177.5,177.5,177.5-79.63,177.5-177.5S353.87,30,256,30Zm0,340c-89.6,0-162.5-72.9-162.5-162.5S166.4,45,256,45s162.5,72.9,162.5,162.5-72.9,162.5-162.5,162.5Z"/>
  </g>
  <g>
    <path class="cls-1" d="M332.74,139.37c-1.55-11.04-11.13-19.37-22.28-19.37h-108.92c-11.15,0-20.73,8.33-22.28,19.37l-18.28,130c-.91,6.45,1.02,12.98,5.3,17.89,4.28,4.92,10.46,7.74,16.98,7.74h145.49c6.52,0,12.71-2.82,16.98-7.74,4.28-4.92,6.21-11.44,5.3-17.89l-18.28-130Zm-34.24,63.13c0,23.43-19.07,42.5-42.5,42.5s-42.5-19.07-42.5-42.5v-25c0-4.14,3.36-7.5,7.5-7.5s7.5,3.36,7.5,7.5v25c0,15.16,12.34,27.5,27.5,27.5s27.5-12.34,27.5-27.5v-25c0-4.14,3.36-7.5,7.5-7.5s7.5,3.36,7.5,7.5v25Z"/>
    <path class="cls-1" d="M391,200h-20c-4.14,0-7.5,3.36-7.5,7.5s3.36,7.5,7.5,7.5h20c4.14,0,7.5-3.36,7.5-7.5s-3.36-7.5-7.5-7.5Z"/>
    <path class="cls-1" d="M141,200h-20c-4.14,0-7.5,3.36-7.5,7.5s3.36,7.5,7.5,7.5h20c4.14,0,7.5-3.36,7.5-7.5s-3.36-7.5-7.5-7.5Z"/>
  </g>
</svg>