<?xml version="1.0" encoding="UTF-8"?>
<svg id="OBJECT" xmlns="http://www.w3.org/2000/svg" viewBox="0 0 32 32">
  <defs>
    <style>
      .cls-1 {
        fill: #FD4360;
      }

      .cls-1, .cls-2 {
        stroke-width: 0px;
      }

      .cls-2 {
        fill: #dadada;
      }
    </style>
  </defs>
  <g>
    <path class="cls-2" d="m20,6h1c.55,0,1-.45,1-1s-.45-1-1-1h-1c-1.65,0-3,1.35-3,3v8h-2c-.55,0-1,.45-1,1s.45,1,1,1h2v8c0,1.65,1.35,3,3,3h1c.55,0,1-.45,1-1s-.45-1-1-1h-1c-.55,0-1-.45-1-1v-8h2c.55,0,1-.45,1-1s-.45-1-1-1h-2V7c0-.55.45-1,1-1Z"/>
    <path class="cls-2" d="m28,12h-2c-1.65,0-3,1.35-3,3v2c0,1.65,1.35,3,3,3h2c1.65,0,3-1.35,3-3v-2c0-1.65-1.35-3-3-3Zm1,5c0,.55-.45,1-1,1h-2c-.55,0-1-.45-1-1v-2c0-.55.45-1,1-1h2c.55,0,1,.45,1,1v2Z"/>
    <path class="cls-2" d="m28,23h-2c-1.65,0-3,1.35-3,3v2c0,1.65,1.35,3,3,3h2c1.65,0,3-1.35,3-3v-2c0-1.65-1.35-3-3-3Zm1,5c0,.55-.45,1-1,1h-2c-.55,0-1-.45-1-1v-2c0-.55.45-1,1-1h2c.55,0,1,.45,1,1v2Z"/>
    <path class="cls-2" d="m28,1h-2c-1.65,0-3,1.35-3,3v2c0,1.65,1.35,3,3,3h2c1.65,0,3-1.35,3-3v-2c0-1.65-1.35-3-3-3Zm1,5c0,.55-.45,1-1,1h-2c-.55,0-1-.45-1-1v-2c0-.55.45-1,1-1h2c.55,0,1,.45,1,1v2Z"/>
  </g>
  <g>
    <path class="cls-1" d="m11.46,15.01c-.82,1.65-2.5,2.79-4.46,2.79s-3.65-1.15-4.46-2.79c-.95,1.06-1.54,2.46-1.54,3.99v1.5c0,1.38,1.12,2.5,2.5,2.5h7c1.38,0,2.5-1.12,2.5-2.5v-1.5c0-1.53-.58-2.93-1.54-3.99Z"/>
    <path class="cls-1" d="m7,15.8c1.65,0,3-1.35,3-3v-1.2c0-1.43-1.17-2.6-2.6-2.6h-.8c-1.43,0-2.6,1.17-2.6,2.6v1.2c0,1.65,1.35,3,3,3Z"/>
  </g>
</svg>