<?xml version="1.0" encoding="UTF-8" standalone="no"?>
<svg
   id="OBJECT"
   viewBox="0 0 32 32"
   version="1.1"
   sodipodi:docname="Question Box.svg"
   xml:space="preserve"
   inkscape:version="1.2.2 (732a01da63, 2022-12-09)"
   xmlns:inkscape="http://www.inkscape.org/namespaces/inkscape"
   xmlns:sodipodi="http://sodipodi.sourceforge.net/DTD/sodipodi-0.dtd"
   xmlns="http://www.w3.org/2000/svg"
   xmlns:svg="http://www.w3.org/2000/svg"><sodipodi:namedview
     id="namedview23"
     pagecolor="#505050"
     bordercolor="#ffffff"
     borderopacity="1"
     inkscape:showpageshadow="0"
     inkscape:pageopacity="0"
     inkscape:pagecheckerboard="1"
     inkscape:deskcolor="#505050"
     showgrid="false"
     inkscape:zoom="1"
     inkscape:cx="-93.999997"
     inkscape:cy="101"
     inkscape:window-width="1920"
     inkscape:window-height="1009"
     inkscape:window-x="-8"
     inkscape:window-y="-8"
     inkscape:window-maximized="1"
     inkscape:current-layer="OBJECT" /><defs
     id="defs4"><rect
       x="-282.99284"
       y="154.59794"
       width="57.646689"
       height="14.84839"
       id="rect246" /><style
       id="style2">
      .cls-1 {
        fill: #FD4360;
      }

      .cls-1, .cls-2 {
        stroke-width: 0px;
      }

      .cls-2 {
        fill: #dadada;
      }
    </style><clipPath
       clipPathUnits="userSpaceOnUse"
       id="clipPath2676"><path
         style="fill:#fb4461;fill-opacity:0.975982;stroke-width:2.451"
         d="m -260.12311,263.19037 0,-29.69678 29.69678,0 z"
         id="path2678" /></clipPath></defs><path
     style="fill:#fb4461;stroke-width:0.56635"
     d=""
     id="path401" /><text
     xml:space="preserve"
     id="text244"
     style="font-size:14.6667px;font-family:'Exo 2';-inkscape-font-specification:'Exo 2, ';text-align:justify;white-space:pre;shape-inside:url(#rect246);display:inline;fill:#dadada;fill-opacity:0.976471;stroke-width:2.451" /><path
     style="fill:#fe4461;stroke-width:0.566225;stroke-opacity:0.976471;fill-opacity:0.97647059"
     d="m 9.5759509,13.056048 h 3.6385441 l 0.05776,-0.895197 c 0,0 -0.07219,-0.158825 0.21658,-0.245457 0.288773,-0.08664 4.418234,0.02888 4.418234,0.02888 0,0 0.534227,0.173264 0.72193,0.389844 0.187703,0.21658 0.101067,1.039583 0.101067,1.039583 0,0 0.04331,0.173265 -0.476477,0.462039 -0.519788,0.288772 -4.143894,2.469011 -4.143894,2.469011 l 0.01442,4.360477 3.754054,0.04332 0.02889,-2.483451 c 0,0 3.277571,-1.342796 4.086138,-3.162068 0.808566,-1.819272 0.231019,-3.78293 0.231019,-3.78293 0,0 -0.54867,-1.4727447 -1.660444,-2.1224846 -1.111779,-0.6497388 -1.703766,-0.794125 -1.703766,-0.794125 l -6.064239,-0.014443 c 0,0 -1.891463,0.462037 -2.555643,1.6893226 -0.6641832,1.227281 -0.6641832,3.017674 -0.6641832,3.017674 z"
     id="path366" /><circle
     style="fill:#dadada;stroke-width:0.658881;stroke-opacity:0.976471"
     id="path420"
     cx="5.1308918"
     cy="5.5683618"
     r="1.8481493" /><circle
     style="fill:#dadada;stroke-width:0.658881;stroke-opacity:0.976471"
     id="circle422"
     cx="5.1308918"
     cy="27.45738"
     r="1.8481493" /><circle
     style="fill:#dadada;stroke-width:0.658881;stroke-opacity:0.976471"
     id="circle424"
     cx="27.077662"
     cy="27.45738"
     r="1.8481493" /><circle
     style="fill:#dadada;stroke-width:0.658881;stroke-opacity:0.976471"
     id="circle426"
     cx="27.077662"
     cy="5.5683618"
     r="1.8481493" /><rect
     style="fill:#fe4461;stroke-width:0.566225;stroke-opacity:0.976471;fill-opacity:0.97647059"
     id="rect480"
     width="3.6122673"
     height="3.3497703"
     x="14.193879"
     y="23.472305" /></svg>
