<?xml version="1.0" encoding="UTF-8"?>
<svg id="OBJECT" xmlns="http://www.w3.org/2000/svg" viewBox="0 0 32 32">
  <defs>
    <style>
      .cls-1 {
        fill: #FD4360;
      }

      .cls-1, .cls-2 {
        stroke-width: 0px;
      }

      .cls-2 {
        fill: #dadada;
      }
    </style>
  </defs>
  <g>
    <path class="cls-2" d="m27,1H7c-1.65,0-3,1.35-3,3v19c0,.55.45,1,1,1s1-.45,1-1V4c0-.55.45-1,1-1h19v19c0,.55.45,1,1,1s1-.45,1-1V2c0-.55-.45-1-1-1Z"/>
    <path class="cls-2" d="m20.74,8.25c-2.55-.63-3.82-3.15-3.84-3.18-.17-.34-.52-.56-.9-.56s-.73.22-.9.56c-.01.03-1.26,2.55-3.84,3.18-.45.11-.76.51-.76.97v7.56c0,.46.31.86.76.97,2.55.63,3.83,3.16,3.84,3.18.17.35.52.56.9.56s.73-.22.9-.56c.01-.03,1.26-2.55,3.84-3.18.45-.11.76-.51.76-.97v-7.56c0-.46-.31-.86-.76-.97Zm-1.24,7.8c-1.63.61-2.79,1.73-3.5,2.63-.71-.91-1.87-2.03-3.5-2.63v-6.09c1.63-.61,2.79-1.73,3.5-2.63.71.91,1.87,2.03,3.5,2.63v6.09Z"/>
    <path class="cls-2" d="m9,4h-.5c-.55,0-1,.45-1,1s.45,1,1,1h.5c.55,0,1-.45,1-1s-.45-1-1-1Z"/>
    <path class="cls-2" d="m23.5,4h-.5c-.55,0-1,.45-1,1s.45,1,1,1h.5c.55,0,1-.45,1-1s-.45-1-1-1Z"/>
    <path class="cls-2" d="m14,11.5c0,.55.45,1,1,1h2c.55,0,1-.45,1-1s-.45-1-1-1h-2c-.55,0-1,.45-1,1Z"/>
    <path class="cls-2" d="m17,13.5h-2c-.55,0-1,.45-1,1s.45,1,1,1h2c.55,0,1-.45,1-1s-.45-1-1-1Z"/>
  </g>
  <path class="cls-1" d="m4,28c0,1.66,1.34,3,3,3h21v-2H12c-.55,0-1-.45-1-1s.45-1,1-1h16v-2H7c-1.66,0-3,1.34-3,3Zm4-1h.5c.55,0,1,.45,1,1s-.45,1-1,1h-.5c-.55,0-1-.45-1-1s.45-1,1-1Z"/>
</svg>