<?xml version="1.0" encoding="UTF-8"?>
<svg id="OBJECT" xmlns="http://www.w3.org/2000/svg" viewBox="0 0 32 32">
  <defs>
    <style>
      .cls-1 {
        fill: #FD4360;
      }

      .cls-1, .cls-2 {
        stroke-width: 0px;
      }

      .cls-2 {
        fill: #dadada;
      }
    </style>
  </defs>
  <path class="cls-1" d="m1.73,25.76c-.47.47-.73,1.1-.73,1.77s.26,1.3.73,1.77l.96.96c.49.49,1.13.73,1.77.73s1.29-.24,1.77-.73l1.24-1.24-4.51-4.51-1.24,1.24Z"/>
  <g>
    <path class="cls-2" d="m29.21,2.79c-3.09-3.08-9.15-2.04-13.52,2.33-4.03,4.03-5.22,9.49-2.97,12.74l-2.13,2.13-.84-.84c-.19-.19-.44-.29-.71-.29h0c-.27,0-.52.11-.71.29l-3.65,3.66c-.39.39-.39,1.02,0,1.41.39.39,1.02.39,1.41,0l2.94-2.95,1.68,1.68-2.94,2.95c-.39.39-.39,1.02,0,1.41.2.19.45.29.71.29s.51-.1.71-.29l3.65-3.66c.39-.39.39-1.02,0-1.41l-.84-.84,2.13-2.13c1.09.76,2.43,1.13,3.89,1.13,2.87,0,6.18-1.43,8.85-4.1,4.37-4.37,5.41-10.43,2.33-13.52Zm-3.74,12.1c-3.59,3.59-8.38,4.64-10.69,2.33-2.3-2.3-1.26-7.1,2.33-10.69,2.3-2.3,5.09-3.55,7.41-3.55,1.3,0,2.45.4,3.28,1.22,2.3,2.3,1.26,7.1-2.33,10.69Z"/>
    <path class="cls-2" d="m23.1,4.21c-1.78.47-3.62,1.59-5.18,3.15-3.5,3.5-4.16,7.7-2.57,9.29.54.54,1.37.82,2.38.82,1.97,0,4.6-1.07,6.91-3.39,3.5-3.5,4.16-7.7,2.57-9.29-.82-.82-2.36-1.04-4.11-.57Zm2.91,3.19c-.04.61-.23,1.39-.64,2.27l-.81-.81,1.46-1.46Zm-2.4-1.25c.38-.1.7-.14.98-.16l-1.45,1.45-.81-.81c.43-.2.86-.37,1.28-.49Zm-3.03,1.56l1.15,1.15-1.97,1.97-1.2-1.2c.24-.29.49-.57.78-.86.4-.4.82-.75,1.24-1.07Zm-4.03,6.33c.05-.71.3-1.66.87-2.72l.92.92-1.79,1.79Zm3.21-.38l.92.92c-1.06.57-2.01.82-2.72.87l1.79-1.79Zm2.61-.22l-1.2-1.2,1.97-1.97,1.16,1.16c-.31.41-.66.82-1.08,1.24-.29.29-.57.54-.86.78Z"/>
  </g>
</svg>