<?xml version="1.0" encoding="UTF-8"?>
<svg id="OBJECT" xmlns="http://www.w3.org/2000/svg" viewBox="0 0 32 32">
  <defs>
    <style>
      .cls-1 {
        fill: #FD4360;
      }

      .cls-2 {
        fill: #dadada;
      }
    </style>
  </defs>
  <g>
    <path class="cls-2" d="M16,1C7.73,1,1,7.73,1,16s6.73,15,15,15,15-6.73,15-15S24.27,1,16,1Zm0,28c-7.17,0-13-5.83-13-13S8.83,3,16,3s13,5.83,13,13-5.83,13-13,13Z"/>
    <path class="cls-2" d="M27,15h-.55c-.47-4.99-4.46-8.98-9.45-9.45v-.55c0-.55-.45-1-1-1s-1,.45-1,1v.55c-4.99,.47-8.98,4.46-9.45,9.45h-.55c-.55,0-1,.45-1,1s.45,1,1,1h.55c.47,4.99,4.46,8.98,9.45,9.45v.55c0,.55,.45,1,1,1s1-.45,1-1v-.55c4.99-.47,8.98-4.46,9.45-9.45h.55c.55,0,1-.45,1-1s-.45-1-1-1Zm-10,9.44v-.44c0-.55-.45-1-1-1s-1,.45-1,1v.44c-3.89-.46-6.98-3.55-7.44-7.44h.44c.55,0,1-.45,1-1s-.45-1-1-1h-.44c.46-3.89,3.55-6.98,7.44-7.44v.44c0,.55,.45,1,1,1s1-.45,1-1v-.44c3.89,.46,6.98,3.55,7.44,7.44h-.44c-.55,0-1,.45-1,1s.45,1,1,1h.44c-.46,3.89-3.55,6.98-7.44,7.44Z"/>
  </g>
  <path class="cls-1" d="M16,10.5c-3.03,0-5.5,2.47-5.5,5.5s2.47,5.5,5.5,5.5,5.5-2.47,5.5-5.5-2.47-5.5-5.5-5.5Zm2.21,6.29c.39,.39,.39,1.02,0,1.41-.2,.2-.45,.29-.71,.29s-.51-.1-.71-.29l-.79-.79-.79,.79c-.2,.2-.45,.29-.71,.29s-.51-.1-.71-.29c-.39-.39-.39-1.02,0-1.41l.79-.79-.79-.79c-.39-.39-.39-1.02,0-1.41s1.02-.39,1.41,0l.79,.79,.79-.79c.39-.39,1.02-.39,1.41,0s.39,1.02,0,1.41l-.79,.79,.79,.79Z"/>
</svg>