<?xml version="1.0" encoding="UTF-8"?>
<svg id="OBJECT" xmlns="http://www.w3.org/2000/svg" viewBox="0 0 32 32">
  <defs>
    <style>
      .cls-1 {
        fill: #FD4360;
      }

      .cls-1, .cls-2 {
        stroke-width: 0px;
      }

      .cls-2 {
        fill: #dadada;
      }
    </style>
  </defs>
  <g>
    <path class="cls-2" d="m7,25.5c-.55,0-1,.45-1,1s.45,1,1,1h4c.55,0,1-.45,1-1s-.45-1-1-1h-4Z"/>
    <path class="cls-2" d="m13.5,19c0-2.48-2.02-4.5-4.5-4.5s-4.5,2.02-4.5,4.5,2.02,4.5,4.5,4.5,4.5-2.02,4.5-4.5Zm-4.5,2.5c-1.38,0-2.5-1.12-2.5-2.5s1.12-2.5,2.5-2.5,2.5,1.12,2.5,2.5-1.12,2.5-2.5,2.5Z"/>
    <path class="cls-2" d="m27.94,1.66c-.19-.52-.76-.79-1.28-.6l-15.93,5.72c-.47-1.04-1.52-1.77-2.73-1.77h-1c-1.65,0-3,1.35-3,3v3c-1.65,0-3,1.35-3,3v14c0,1.65,1.35,3,3,3h10c.55,0,1-.45,1-1s-.45-1-1-1H4c-.55,0-1-.45-1-1v-14c0-.55.45-1,1-1h10c.55,0,1-.45,1-1s-.45-1-1-1h-3v-2.2L27.34,2.94c.52-.19.79-.76.6-1.28ZM6,11v-3c0-.55.45-1,1-1h1c.55,0,1,.45,1,1v3h-3Z"/>
  </g>
  <path class="cls-1" d="m29,11h-12v20h12c1.1,0,2-.9,2-2V13c0-1.1-.9-2-2-2Zm-4.78,14.6h-.45c-.55,0-1-.45-1-1s.45-1,1-1h.45c.55,0,1,.45,1,1s-.45,1-1,1Zm2.48-2.83c-.19.19-.45.29-.7.29s-.52-.1-.71-.3c-.69-.7-1.88-.7-2.57,0-.39.39-1.02.4-1.41.02-.39-.39-.4-1.02-.02-1.41,1.45-1.48,3.98-1.48,5.43,0,.39.39.38,1.03-.02,1.41Zm2-2.96c-.19.19-.45.29-.7.29s-.52-.1-.71-.3c-.88-.9-2.04-1.39-3.29-1.39s-2.41.5-3.29,1.39c-.38.39-1.02.4-1.41.02-.39-.39-.4-1.02-.02-1.41,1.26-1.29,2.93-2,4.71-2s3.46.71,4.71,2c.39.39.38,1.03-.02,1.41Z"/>
</svg>