<?xml version="1.0" encoding="UTF-8"?>
<svg id="OBJECT" xmlns="http://www.w3.org/2000/svg" viewBox="0 0 32 32">
  <defs>
    <style>
      .cls-1 {
        fill: #FD4360;
      }

      .cls-1, .cls-2 {
        stroke-width: 0px;
      }

      .cls-2 {
        fill: #dadada;
      }
    </style>
  </defs>
  <g>
    <path class="cls-2" d="m30,17H2c-.55,0-1,.45-1,1v6c0,.55.45,1,1,1h.5v5c0,.55.45,1,1,1h8c.33,0,.65-.17.83-.45l1.17-1.75,1.17,1.75c.19.28.5.45.83.45h13c.55,0,1-.45,1-1v-5h.5c.55,0,1-.45,1-1v-6c0-.55-.45-1-1-1Zm-27,2h26v4H3v-4Zm7.96,10h-2.46v-1c0-.55-.45-1-1-1s-1,.45-1,1v1h-2v-4h8v1.7l-1.54,2.3Zm16.54,0h-2v-1c0-.55-.45-1-1-1s-1,.45-1,1v1h-2v-1c0-.55-.45-1-1-1s-1,.45-1,1v1h-3.46l-1.54-2.3v-1.7h13v4Z"/>
    <path class="cls-2" d="m27,20h-1c-.55,0-1,.45-1,1s.45,1,1,1h1c.55,0,1-.45,1-1s-.45-1-1-1Z"/>
    <path class="cls-2" d="m23,20h-1c-.55,0-1,.45-1,1s.45,1,1,1h1c.55,0,1-.45,1-1s-.45-1-1-1Z"/>
    <path class="cls-2" d="m18,20H5c-.55,0-1,.45-1,1s.45,1,1,1h13c.55,0,1-.45,1-1s-.45-1-1-1Z"/>
  </g>
  <g>
    <path class="cls-1" d="m2.5,14c0,.55.45,1,1,1h2v-3c0-.55.45-1,1-1s1,.45,1,1v3h2v-3c0-.55.45-1,1-1s1,.45,1,1v3h5c.33,0,.65-.17.83-.45l.17-.25v-5.3H2.5v5Z"/>
    <path class="cls-1" d="m19.5,14.3l.17.25c.19.28.5.45.83.45h3v-3c0-.55.45-1,1-1s1,.45,1,1v3h3c.55,0,1-.45,1-1v-5h-10v5.3Z"/>
    <path class="cls-1" d="m1,1v6h30V1H1Zm5,4h-1c-.55,0-1-.45-1-1s.45-1,1-1h1c.55,0,1,.45,1,1s-.45,1-1,1Zm4,0h-1c-.55,0-1-.45-1-1s.45-1,1-1h1c.55,0,1,.45,1,1s-.45,1-1,1Zm17,0h-13c-.55,0-1-.45-1-1s.45-1,1-1h13c.55,0,1,.45,1,1s-.45,1-1,1Z"/>
  </g>
</svg>