<?xml version="1.0" encoding="UTF-8"?>
<svg id="OBJECT" xmlns="http://www.w3.org/2000/svg" viewBox="0 0 32 32">
  <defs>
    <style>
      .cls-1 {
        fill: #FD4360;
      }

      .cls-1, .cls-2 {
        stroke-width: 0px;
      }

      .cls-2 {
        fill: #dadada;
      }
    </style>
  </defs>
  <path class="cls-2" d="m26,1H6C3.2,1,1,4.51,1,9s2.2,8,5,8h20c2.8,0,5-3.51,5-8S28.8,1,26,1Zm-2,8c0,2.99-.97,5.13-1.95,6h-7.49c.9-1.55,1.44-3.68,1.44-6s-.54-4.45-1.44-6h7.49c.98.87,1.95,3.01,1.95,6Zm-10,0c0,2.99-.97,5.13-1.95,6h-2.72c1.03-1.46,1.67-3.58,1.67-6s-.64-4.54-1.67-6h2.72c.98.87,1.95,3.01,1.95,6Zm-11,0c0-3.54,1.58-6,3-6s3,2.46,3,6-1.58,6-3,6-3-2.46-3-6Zm23,6h-1.44c.9-1.55,1.44-3.68,1.44-6s-.54-4.45-1.44-6h1.44c1.42,0,3,2.46,3,6s-1.58,6-3,6Z"/>
  <g>
    <path class="cls-1" d="m8,22h16c.55,0,1-.45,1-1s-.45-1-1-1h-1v-1h-14v1h-1c-.55,0-1,.45-1,1s.45,1,1,1Z"/>
    <path class="cls-1" d="m12.25,29h-1.8l2.78-5h-4.9l-2.22,5h-1.85c-.55,0-1,.45-1,1s.45,1,1,1h8c.55,0,1-.45,1-1s-.45-1-1-1Z"/>
    <path class="cls-1" d="m27.75,29h-1.85l-2.22-5h-4.9l2.78,5h-1.8c-.55,0-1,.45-1,1s.45,1,1,1h8c.55,0,1-.45,1-1s-.45-1-1-1Z"/>
  </g>
</svg>