<?xml version="1.0" encoding="UTF-8"?>
<svg id="OBJECT" xmlns="http://www.w3.org/2000/svg" viewBox="0 0 32 32">
  <defs>
    <style>
      .cls-1 {
        fill: #FD4360;
      }

      .cls-1, .cls-2 {
        stroke-width: 0px;
      }

      .cls-2 {
        fill: #dadada;
      }
    </style>
  </defs>
  <g>
    <path class="cls-2" d="m28,13h-13c-1.65,0-3,1.35-3,3v12c0,1.65,1.35,3,3,3h13c1.65,0,3-1.35,3-3v-12c0-1.65-1.35-3-3-3Zm1,3v1h-4v-2h3c.55,0,1,.45,1,1Zm-9-1h3v5.52l-1.13-.45c-.24-.1-.5-.1-.74,0l-1.13.45v-5.52Zm-5,0h3v2h-4v-1c0-.55.45-1,1-1Zm13,14h-13c-.55,0-1-.45-1-1v-9h4v3c0,.33.17.64.44.83.27.19.62.22.93.1l2.13-.85,2.13.85c.12.05.25.07.37.07.2,0,.39-.06.56-.17.27-.19.44-.5.44-.83v-3h4v9c0,.55-.45,1-1,1Z"/>
    <path class="cls-2" d="m17,26h-1c-.55,0-1,.45-1,1s.45,1,1,1h1c.55,0,1-.45,1-1s-.45-1-1-1Z"/>
    <path class="cls-2" d="m21,26h-1c-.55,0-1,.45-1,1s.45,1,1,1h1c.55,0,1-.45,1-1s-.45-1-1-1Z"/>
  </g>
  <g>
    <circle class="cls-1" cx="7.25" cy="7.25" r="1.5"/>
    <path class="cls-1" d="m7.25,1C3.8,1,1,3.8,1,7.25c0,5.47,5.44,9.4,5.67,9.56.17.12.38.19.58.19s.41-.06.58-.19c.23-.17,5.67-4.1,5.67-9.56,0-3.45-2.8-6.25-6.25-6.25Zm0,9.75c-1.93,0-3.5-1.57-3.5-3.5s1.57-3.5,3.5-3.5,3.5,1.57,3.5,3.5-1.57,3.5-3.5,3.5Z"/>
  </g>
</svg>