<?xml version="1.0" encoding="UTF-8"?>
<svg id="OBJECT" xmlns="http://www.w3.org/2000/svg" viewBox="0 0 32 32">
  <defs>
    <style>
      .cls-1 {
        fill: #FD4360;
      }

      .cls-1, .cls-2 {
        stroke-width: 0px;
      }

      .cls-2 {
        fill: #dadada;
      }
    </style>
  </defs>
  <g>
    <path class="cls-2" d="m27.12,1h-14.69c-2.14,0-3.88,1.74-3.88,3.88v7.77c0,2.14,1.74,3.88,3.88,3.88h3.35l1.37,2.06c.59.88,1.57,1.41,2.63,1.41s2.04-.52,2.63-1.41l1.37-2.06h3.35c2.14,0,3.88-1.74,3.88-3.88v-7.77c0-2.14-1.74-3.88-3.88-3.88Zm1.88,11.65c0,1.04-.85,1.88-1.88,1.88h-3.88c-.33,0-.65.17-.83.45l-1.67,2.5c-.43.65-1.49.64-1.92,0l-.63-.95h1.44c.55,0,1-.45,1-1s-.45-1-1-1h-7.19c-1.04,0-1.88-.85-1.88-1.88v-7.77c0-1.04.85-1.88,1.88-1.88h14.69c1.04,0,1.88.85,1.88,1.88v7.77Z"/>
    <path class="cls-2" d="m16.64,6.27c.55,0,1-.45,1-1s-.45-1-1-1h-3.03c-.47,0-.88.33-.98.8l-.57,2.73c-.06.29.01.6.2.83.19.23.48.37.78.37h1.47c.63,0,1.13.51,1.13,1.13s-.51,1.13-1.13,1.13h-1.43c-.55,0-1,.45-1,1s.45,1,1,1h1.43c1.73,0,3.13-1.41,3.13-3.13s-1.41-3.13-3.13-3.13h-.24l.15-.73h2.22Z"/>
    <path class="cls-2" d="m25.86,6.3l-.8-.12-.36-.72c-.32-.66-.98-1.06-1.71-1.06s-1.39.41-1.71,1.06l-.36.72-.8.12c-.72.11-1.32.6-1.54,1.3-.23.7-.04,1.45.48,1.96l.58.56-.14.79c-.12.72.17,1.44.76,1.87.59.43,1.36.49,2.01.15l.71-.37.71.38c.28.15.59.22.89.22.39,0,.79-.12,1.12-.37.59-.43.88-1.15.76-1.87l-.14-.79.58-.56c.52-.51.71-1.26.48-1.96-.23-.7-.82-1.19-1.54-1.3Zm-1.29,2.75c-.24.23-.34.56-.29.88l.19,1.13-1.01-.53c-.15-.08-.31-.12-.47-.12s-.32.04-.47.12l-1.01.53.19-1.13c.06-.32-.05-.66-.29-.88l-.82-.8,1.13-.16c.33-.05.61-.25.75-.55l.48-1.08.54,1.08c.15.29.43.5.75.55l1.13.16-.82.8Z"/>
  </g>
  <g>
    <path class="cls-1" d="m11.46,23.01c-.82,1.65-2.5,2.79-4.46,2.79s-3.65-1.15-4.46-2.79c-.95,1.06-1.54,2.46-1.54,3.99v1.5c0,1.38,1.12,2.5,2.5,2.5h7c1.38,0,2.5-1.12,2.5-2.5v-1.5c0-1.53-.58-2.93-1.54-3.99Z"/>
    <path class="cls-1" d="m7,23.8c1.65,0,3-1.35,3-3v-1.2c0-1.43-1.17-2.6-2.6-2.6h-.8c-1.43,0-2.6,1.17-2.6,2.6v1.2c0,1.65,1.35,3,3,3Z"/>
  </g>
</svg>