<?xml version="1.0" encoding="UTF-8"?>
<svg id="OBJECT" xmlns="http://www.w3.org/2000/svg" viewBox="0 0 32 32">
  <defs>
    <style>
      .cls-1 {
        fill: #FD4360;
      }

      .cls-1, .cls-2 {
        stroke-width: 0px;
      }

      .cls-2 {
        fill: #dadada;
      }
    </style>
  </defs>
  <path class="cls-1" d="m24.32,10.82c-.28-.85-1-1.46-1.88-1.58l-3.27-.48-1.46-2.97c-.4-.8-1.19-1.3-2.09-1.3h0c-.89,0-1.69.5-2.09,1.3l-1.46,2.96-3.27.48c-.88.13-1.6.74-1.88,1.58s-.05,1.76.59,2.39l2.37,2.31-.56,3.26c-.15.88.2,1.75.93,2.28.72.52,1.66.59,2.45.18l2.93-1.54,2.93,1.54c.34.18.71.27,1.08.27.48,0,.96-.15,1.37-.45.72-.52,1.08-1.4.93-2.28l-.56-3.26,2.37-2.31c.64-.62.86-1.54.59-2.39Z"/>
  <g>
    <path class="cls-2" d="m27.96,1H4.04c-1.68,0-3.04,1.37-3.04,3.04v18.91c0,1.68,1.37,3.04,3.04,3.04h7.96v3h-5c-.55,0-1,.45-1,1s.45,1,1,1h18c.55,0,1-.45,1-1s-.45-1-1-1h-5v-3h7.96c1.68,0,3.04-1.37,3.04-3.04V4.04c0-1.68-1.37-3.04-3.04-3.04Zm-9.96,28h-4v-3h4v3Zm11-6.04c0,.58-.47,1.04-1.04,1.04H4.04c-.58,0-1.04-.47-1.04-1.04V4.04c0-.58.47-1.04,1.04-1.04h23.91c.58,0,1.04.47,1.04,1.04v18.91Z"/>
    <path class="cls-2" d="m6.5,4.5h-1c-.55,0-1,.45-1,1s.45,1,1,1h1c.55,0,1-.45,1-1s-.45-1-1-1Z"/>
    <path class="cls-2" d="m26.5,4.5h-1c-.55,0-1,.45-1,1s.45,1,1,1h1c.55,0,1-.45,1-1s-.45-1-1-1Z"/>
  </g>
</svg>