<?xml version="1.0" encoding="UTF-8"?>
<svg id="OBJECT" xmlns="http://www.w3.org/2000/svg" viewBox="0 0 32 32">
  <defs>
    <style>
      .cls-1 {
        fill: #FD4360;
      }

      .cls-1, .cls-2 {
        stroke-width: 0px;
      }

      .cls-2 {
        fill: #dadada;
      }
    </style>
  </defs>
  <g>
    <path class="cls-2" d="m15,13H7c-1.65,0-3,1.35-3,3v9c0,3.31,2.69,6,6,6h2c3.31,0,6-2.69,6-6v-9c0-1.65-1.35-3-3-3Zm-3,7v1c0,.55-.45,1-1,1s-1-.45-1-1v-1c0-.55.45-1,1-1s1,.45,1,1Zm4,5c0,2.21-1.79,4-4,4h-2c-2.21,0-4-1.79-4-4v-9c0-.55.45-1,1-1h3v2.18c-1.16.41-2,1.51-2,2.82v1c0,1.65,1.35,3,3,3s3-1.35,3-3v-1c0-1.3-.84-2.4-2-2.82v-2.18h3c.55,0,1,.45,1,1v9Z"/>
    <path class="cls-2" d="m12,25h-2c-.55,0-1,.45-1,1s.45,1,1,1h2c.55,0,1-.45,1-1s-.45-1-1-1Z"/>
  </g>
  <g>
    <path class="cls-1" d="m27,3c-.55,0-1,.45-1,1v1c0,.55.45,1,1,1s1-.45,1-1v-1c0-.55-.45-1-1-1Z"/>
    <rect class="cls-1" x="7.5" y="8" width="7" height="3"/>
    <path class="cls-1" d="m27,7c-.55,0-1,.45-1,1v14c0,.55-.45,1-1,1h-2c-.55,0-1-.45-1-1V5c0-2.21-1.79-4-4-4h-4c-2.21,0-4,1.79-4,4v1h2v-1c0-1.1.9-2,2-2h4c1.1,0,2,.9,2,2v17c0,1.65,1.35,3,3,3h2c1.65,0,3-1.35,3-3v-14c0-.55-.45-1-1-1Z"/>
  </g>
</svg>