<?xml version="1.0" encoding="UTF-8"?>
<svg id="OBJECT" xmlns="http://www.w3.org/2000/svg" viewBox="0 0 32 32">
  <defs>
    <style>
      .cls-1 {
        fill: #FD4360;
      }

      .cls-1, .cls-2 {
        stroke-width: 0px;
      }

      .cls-2 {
        fill: #dadada;
      }
    </style>
  </defs>
  <path class="cls-2" d="m30.52,8.16l-.87-1.34c-.15-.23-.39-.39-.66-.44-.27-.05-.55.02-.77.18l-12.22,9.03L3.78,6.56c-.22-.16-.5-.23-.77-.18-.27.05-.51.21-.66.44l-.87,1.34c-.82,1.27-.57,2.97.6,3.94l8.77,7.29-7.01,5.18c-.81.6-1.27,1.56-1.21,2.57s.61,1.92,1.48,2.43l2.21,1.3c.16.09.33.14.5.14.23,0,.46-.08.64-.23l8.53-7.1,8.53,7.1c.18.15.41.23.64.23.17,0,.35-.04.5-.14l2.22-1.3c.87-.51,1.42-1.42,1.48-2.43s-.4-1.97-1.21-2.57l-7.01-5.17,8.77-7.29c1.17-.97,1.42-2.66.6-3.94ZM6.73,28.78l-1.61-.94c-.29-.17-.48-.47-.49-.81-.02-.34.13-.65.4-.86l7.4-5.47,2,1.67-7.71,6.41Zm20.64-1.75c-.02.34-.2.64-.49.81l-1.61.94L3.36,10.56c-.39-.32-.48-.89-.2-1.31l.29-.45,23.52,17.37c.28.2.42.52.4.86Zm1.27-16.47l-9.15,7.61-1.81-1.34,10.87-8.03.29.45c.27.43.19.99-.2,1.31Z"/>
  <g>
    <path class="cls-1" d="m27.8,2.27c.08-.29.04-.59-.14-.84-.2-.28-.51-.45-.87-.42-.08,0-6.3.44-9.79,5.56v5.8l10.03-7.41c.1-.08.21-.14.32-.2,0-.14,0-.28,0-.42-1.16.16-2.69.58-3.89,1.65-.26.24-.62.31-.94.22-.18-.05-.34-.15-.48-.3-.37-.41-.33-1.04.08-1.41,1.84-1.65,4.17-2.11,5.66-2.23Z"/>
    <path class="cls-1" d="m5.21,1c-.36-.02-.68.14-.87.42-.17.25-.22.56-.14.84,1.49.12,3.82.58,5.66,2.23.41.37.45,1,.08,1.41-.13.15-.3.25-.48.3-.32.09-.67.02-.94-.22-1.2-1.07-2.72-1.49-3.89-1.65,0,.14.01.28,0,.42.11.06.22.12.32.2l10.03,7.41v-5.8C11.51,1.45,5.29,1.01,5.21,1Z"/>
  </g>
</svg>