<?xml version="1.0" encoding="UTF-8"?>
<svg id="OBJECT" xmlns="http://www.w3.org/2000/svg" viewBox="0 0 32 32">
  <defs>
    <style>
      .cls-1 {
        fill: #FD4360;
      }

      .cls-1, .cls-2 {
        stroke-width: 0px;
      }

      .cls-2 {
        fill: #dadada;
      }
    </style>
  </defs>
  <g>
    <path class="cls-2" d="m30,29h-.91l-5.62-10.07c-.27-.48-.88-.65-1.36-.39-.48.27-.65.88-.39,1.36l5.08,9.09h-6.76l-4.8-7.21,1.05-1.89c.27-.48.1-1.09-.39-1.36-.48-.27-1.09-.1-1.36.39l-.55.99-1.65-2.48c-.37-.56-1.29-.56-1.66,0l-7.7,11.55h-.96c-.55,0-1,.45-1,1s.45,1,1,1h28c.55,0,1-.45,1-1s-.45-1-1-1Zm-18.5-9.2l6.13,9.2H5.37l6.13-9.2Z"/>
    <path class="cls-2" d="m9.75,26h-.5c-.55,0-1,.45-1,1s.45,1,1,1h.5c.55,0,1-.45,1-1s-.45-1-1-1Z"/>
    <path class="cls-2" d="m13.75,26h-.5c-.55,0-1,.45-1,1s.45,1,1,1h.5c.55,0,1-.45,1-1s-.45-1-1-1Z"/>
  </g>
  <path class="cls-1" d="m30,1h-11c-.55,0-1,.45-1,1v10.74l-2.55,4.57c2.29.84,4.82.84,7.11,0l-2.55-4.57v-2.74h10c.55,0,1-.45,1-1V2c0-.55-.45-1-1-1Zm-3,5c0,.55-.45,1-1,1s-1-.45-1-1v-1c0-.55.45-1,1-1s1,.45,1,1v1Z"/>
</svg>