<?xml version="1.0" encoding="UTF-8"?>
<svg id="OBJECT" xmlns="http://www.w3.org/2000/svg" viewBox="0 0 32 32">
  <defs>
    <style>
      .cls-1 {
        fill: #FD4360;
      }

      .cls-1, .cls-2 {
        stroke-width: 0px;
      }

      .cls-2 {
        fill: #dadada;
      }
    </style>
  </defs>
  <g>
    <path class="cls-2" d="m30,16.54c-.55,0-1,.45-1,1v11.07c0,.22-.17.39-.39.39H7.11c-.22,0-.4-.17-.4-.39v-12.07c0-.22.18-.4.4-.4h8.47c.55,0,1-.45,1-1s-.45-1-1-1H7.11c-1.32,0-2.4,1.08-2.4,2.4v8.46h-1.32c-.22,0-.39-.17-.39-.39v-12.07c0-.22.17-.4.39-.4h9.79c.55,0,1-.45,1-1s-.45-1-1-1H3.39c-1.32,0-2.39,1.08-2.39,2.4v12.07c0,1.32,1.07,2.39,2.39,2.39h1.32v1.61c0,1.32,1.08,2.39,2.4,2.39h21.5c1.32,0,2.39-1.07,2.39-2.39v-11.07c0-.55-.45-1-1-1Z"/>
    <path class="cls-2" d="m15,21.33c0,1.23,1,2.24,2.24,2.24h1.24c.13,0,.24.11.24.24s-.11.24-.24.24h-2.48c-.55,0-1,.45-1,1s.45,1,1,1h.86v.24c0,.55.45,1,1,1s1-.45,1-1v-.28c1.05-.18,1.86-1.1,1.86-2.2,0-1.23-1-2.24-2.24-2.24h-1.24c-.13,0-.24-.11-.24-.24s.11-.24.24-.24h2.48c.55,0,1-.45,1-1s-.45-1-1-1h-.86v-.24c0-.55-.45-1-1-1s-1,.45-1,1v.28c-1.05.18-1.86,1.1-1.86,2.2Z"/>
    <path class="cls-2" d="m9.69,21.57c-.55,0-1,.45-1,1s.45,1,1,1h1.91c.55,0,1-.45,1-1s-.45-1-1-1h-1.91Z"/>
    <path class="cls-2" d="m24.11,23.57h1.91c.55,0,1-.45,1-1s-.45-1-1-1h-1.91c-.55,0-1,.45-1,1s.45,1,1,1Z"/>
  </g>
  <path class="cls-1" d="m23.5,16c4.14,0,7.5-3.36,7.5-7.5s-3.36-7.5-7.5-7.5-7.5,3.36-7.5,7.5,3.36,7.5,7.5,7.5Zm-.88-11.22c0-.49.39-.88.88-.88s.88.39.88.88v4.14c0,.49-.39.88-.88.88s-.88-.39-.88-.88v-4.14Zm0,7.03c0-.49.39-.88.88-.88s.88.39.88.88v.41c0,.49-.39.88-.88.88s-.88-.39-.88-.88v-.41Z"/>
</svg>