<?xml version="1.0" encoding="UTF-8"?>
<svg id="OBJECT" xmlns="http://www.w3.org/2000/svg" viewBox="0 0 512 512">
  <defs>
    <style>
      .cls-1 {
        fill: #FD4360;
      }

      .cls-2 {
        fill: #dadada;
      }
    </style>
  </defs>
  <g>
    <path class="cls-2" d="M472,182.5c0-17.92-14.58-32.5-32.5-32.5s-32.5,14.58-32.5,32.5,14.58,32.5,32.5,32.5,32.5-14.58,32.5-32.5Zm-50,0c0-9.65,7.85-17.5,17.5-17.5s17.5,7.85,17.5,17.5-7.85,17.5-17.5,17.5-17.5-7.85-17.5-17.5Z"/>
    <path class="cls-2" d="M72.5,150c-17.92,0-32.5,14.58-32.5,32.5s14.58,32.5,32.5,32.5,32.5-14.58,32.5-32.5-14.58-32.5-32.5-32.5Zm0,50c-9.65,0-17.5-7.85-17.5-17.5s7.85-17.5,17.5-17.5,17.5,7.85,17.5,17.5-7.85,17.5-17.5,17.5Z"/>
    <path class="cls-2" d="M369.91,287.03c-4.13-.36-7.76,2.7-8.12,6.82l-13.32,153.15H163.53l-13.32-153.15c-.36-4.13-3.98-7.18-8.12-6.82-4.13,.36-7.18,4-6.82,8.12l17.07,196.3c1.01,11.72,10.65,20.55,22.41,20.55h162.5c11.76,0,21.4-8.84,22.41-20.55l17.07-196.3c.36-4.13-2.7-7.76-6.82-8.12Zm-32.66,209.97H174.75c-3.92,0-7.13-2.94-7.47-6.85l-2.45-28.15h182.33l-2.45,28.15c-.34,3.9-3.55,6.85-7.47,6.85Z"/>
    <path class="cls-2" d="M439.5,110h-11.41c-3.74-33.7-32.4-60-67.09-60-2.82,0-5.65,.18-8.45,.53C330.55,18.8,294.82,0,256,0s-74.55,18.8-96.55,50.53c-2.8-.35-5.62-.53-8.45-.53-34.68,0-63.34,26.3-67.09,60h-11.41C32.52,110,0,142.52,0,182.5s32.52,72.5,72.5,72.5h13.5c4.14,0,7.5-3.36,7.5-7.5s-3.36-7.5-7.5-7.5h-13.5c-31.71,0-57.5-25.79-57.5-57.5s25.79-57.5,57.5-57.5h18.5c4.14,0,7.5-3.36,7.5-7.5,0-28.95,23.55-52.5,52.5-52.5,3.54,0,7.08,.36,10.53,1.06,3.05,.62,6.16-.71,7.83-3.33,18.93-29.88,51.33-47.72,86.64-47.72s67.71,17.84,86.64,47.72c1.67,2.63,4.78,3.96,7.83,3.33,3.44-.7,6.98-1.06,10.53-1.06,28.95,0,52.5,23.55,52.5,52.5,0,4.14,3.36,7.5,7.5,7.5h18.5c31.71,0,57.5,25.79,57.5,57.5s-25.79,57.5-57.5,57.5h-13.5c-4.14,0-7.5,3.36-7.5,7.5s3.36,7.5,7.5,7.5h13.5c39.98,0,72.5-32.52,72.5-72.5s-32.52-72.5-72.5-72.5Z"/>
    <path class="cls-2" d="M251,302c-9.65,0-17.5,7.85-17.5,17.5v90c0,9.65,7.85,17.5,17.5,17.5h10c9.65,0,17.5-7.85,17.5-17.5v-90c0-9.65-7.85-17.5-17.5-17.5h-10Zm12.5,17.5v90c0,1.38-1.12,2.5-2.5,2.5h-10c-1.38,0-2.5-1.12-2.5-2.5v-90c0-1.38,1.12-2.5,2.5-2.5h10c1.38,0,2.5,1.12,2.5,2.5Z"/>
    <path class="cls-2" d="M315.13,302c-9.11,0-16.6,6.84-17.43,15.92l-8.18,90c-.44,4.88,1.2,9.76,4.51,13.38,3.31,3.62,8.02,5.7,12.92,5.7h9.92c9.11,0,16.6-6.84,17.43-15.92l8.18-90c.44-4.88-1.2-9.76-4.51-13.38-3.31-3.62-8.02-5.7-12.92-5.7h-9.92Zm12.41,17.73l-8.18,90c-.12,1.3-1.19,2.27-2.49,2.27h-9.92c-.96,0-1.57-.51-1.85-.81-.28-.3-.73-.96-.64-1.91l8.18-90c.12-1.3,1.19-2.27,2.49-2.27h9.92c.96,0,1.57,.51,1.85,.81,.28,.3,.73,.96,.64,1.91Z"/>
    <path class="cls-2" d="M169.52,321.08l8.18,90c.83,9.07,8.32,15.92,17.43,15.92h9.92c4.9,0,9.61-2.08,12.92-5.7,3.31-3.62,4.95-8.5,4.51-13.38l-8.18-90c-.83-9.07-8.32-15.92-17.43-15.92h-9.92c-4.9,0-9.61,2.08-12.92,5.7-3.31,3.62-4.95,8.5-4.51,13.38Zm15.58-3.27c.28-.3,.89-.81,1.85-.81h9.92c1.3,0,2.37,.98,2.49,2.27l8.18,90c.09,.96-.37,1.61-.64,1.91-.28,.3-.89,.81-1.85,.81h-9.92c-1.3,0-2.37-.98-2.49-2.27l-8.18-90c-.09-.96,.37-1.61,.64-1.91Z"/>
    <path class="cls-2" d="M221,70h-20c-12.41,0-22.5,10.09-22.5,22.5v10c0,12.41,10.09,22.5,22.5,22.5h20c12.41,0,22.5-10.09,22.5-22.5v-10c0-12.41-10.09-22.5-22.5-22.5Zm7.5,32.5c0,4.14-3.36,7.5-7.5,7.5h-20c-4.14,0-7.5-3.36-7.5-7.5v-10c0-4.14,3.36-7.5,7.5-7.5h20c4.14,0,7.5,3.36,7.5,7.5v10Z"/>
    <path class="cls-2" d="M311,70h-20c-12.41,0-22.5,10.09-22.5,22.5v10c0,12.41,10.09,22.5,22.5,22.5h20c12.41,0,22.5-10.09,22.5-22.5v-10c0-12.41-10.09-22.5-22.5-22.5Zm7.5,32.5c0,4.14-3.36,7.5-7.5,7.5h-20c-4.14,0-7.5-3.36-7.5-7.5v-10c0-4.14,3.36-7.5,7.5-7.5h20c4.14,0,7.5,3.36,7.5,7.5v10Z"/>
  </g>
  <g>
    <rect class="cls-1" x="108.5" y="232" width="295" height="35" rx="10" ry="10"/>
    <path class="cls-1" d="M370.77,185.09c-2.1-10.48-11.38-18.09-22.06-18.09H163.3c-10.69,0-19.97,7.61-22.06,18.09l-6.38,31.91h242.3l-6.38-31.91Zm-179.77,14.41h-10c-4.14,0-7.5-3.36-7.5-7.5s3.36-7.5,7.5-7.5h10c4.14,0,7.5,3.36,7.5,7.5s-3.36,7.5-7.5,7.5Zm46.67,0h-10c-4.14,0-7.5-3.36-7.5-7.5s3.36-7.5,7.5-7.5h10c4.14,0,7.5,3.36,7.5,7.5s-3.36,7.5-7.5,7.5Zm46.67,0h-10c-4.14,0-7.5-3.36-7.5-7.5s3.36-7.5,7.5-7.5h10c4.14,0,7.5,3.36,7.5,7.5s-3.36,7.5-7.5,7.5Zm46.67,0h-10c-4.14,0-7.5-3.36-7.5-7.5s3.36-7.5,7.5-7.5h10c4.14,0,7.5,3.36,7.5,7.5s-3.36,7.5-7.5,7.5Z"/>
  </g>
</svg>