<?xml version="1.0" encoding="UTF-8" standalone="no"?>
<svg
   id="OBJECT"
   viewBox="0 0 32 32"
   version="1.1"
   sodipodi:docname="ReclameAqui.svg"
   xml:space="preserve"
   inkscape:version="1.2.2 (732a01da63, 2022-12-09)"
   xmlns:inkscape="http://www.inkscape.org/namespaces/inkscape"
   xmlns:sodipodi="http://sodipodi.sourceforge.net/DTD/sodipodi-0.dtd"
   xmlns="http://www.w3.org/2000/svg"
   xmlns:svg="http://www.w3.org/2000/svg"><sodipodi:namedview
     id="namedview27"
     pagecolor="#505050"
     bordercolor="#ffffff"
     borderopacity="1"
     inkscape:showpageshadow="0"
     inkscape:pageopacity="0"
     inkscape:pagecheckerboard="1"
     inkscape:deskcolor="#505050"
     showgrid="false"
     inkscape:zoom="8.0000004"
     inkscape:cx="-21.687499"
     inkscape:cy="28.999999"
     inkscape:window-width="1920"
     inkscape:window-height="1009"
     inkscape:window-x="-8"
     inkscape:window-y="-8"
     inkscape:window-maximized="1"
     inkscape:current-layer="OBJECT" /><defs
     id="defs4"><rect
       x="-48.328105"
       y="-29.027744"
       width="26.094089"
       height="39.990349"
       id="rect545" /><style
       id="style2">
      .cls-1 {
        fill: #FD4360;
      }

      .cls-1, .cls-2 {
        stroke-width: 0px;
      }

      .cls-2 {
        fill: #dadada;
      }
    </style></defs><g
     id="g7057"
     transform="translate(-1.4116116,-0.12499999)"><path
       id="path1218"
       style="fill:#dadada;fill-opacity:1;stroke-width:0.0377832"
       d="M 18.258561,3.0097723 17.279995,5.420139 16.940071,6.0278824 c 0,0 -1.679017,4.1923926 -1.792326,4.2541976 -0.113305,0.0618 -2.770893,2.657584 -2.842996,2.750291 -0.07211,0.09271 3.543445,10.156508 3.543445,10.156508 l 0.813757,-2.554577 h 3.440441 l -0.07211,3.018109 5.624194,0.01029 -0.865259,-20.6323431 z m 2.091046,5.7374998 -0.195712,7.5916289 -2.27646,0.01029 z" /><path
       id="path478"
       style="fill:#fd4360;fill-opacity:1;stroke-width:0.0377832"
       d="m 5.2890736,3.0193485 -3.6709993,20.6275095 5.8030066,0.0309 1.4224639,-7.970181 1.2014022,7.974445 6.12595,0.0086 -2.447305,-9.192023 c 0.687129,-0.292445 1.363117,-0.624031 1.995764,-1.107166 0,0 2.913459,-2.024865 2.46187,-6.1328708 C 17.729638,3.1505531 12.587374,3.0485439 12.587374,3.0485439 Z m 5.3730304,4.275523 c 1.793131,0.029991 1.539636,1.967437 1.539636,1.967437 0,0 -0.113305,1.3802965 -0.782853,2.2146545 -0.669547,0.834356 -1.97774,0.751952 -1.97774,0.751952 l 0.83436,-4.9134431 c 0.138416,-0.016093 0.267055,-0.022601 0.386597,-0.020605 z" /></g><g
     id="g6120"
     transform="matrix(0.22459927,0,0,0.22459927,23.9449,22.391799)"
     style="fill:#fd4360;fill-opacity:1"><path
       style="fill:#fd4360;fill-opacity:1;stroke-width:0.275651"
       d="m 7.2235865,38.857011 c -1.89234,-0.51036 -3.45532,-1.54008 -3.87479,-2.55276 -0.25048,-0.60472 -0.32632,-3.37915 -0.26082,-9.5414 l 0.0924,-8.68875 0.86976,-1.65331 c 0.47838,-0.90931 1.75028,-3.006 2.82646,-4.6593 C 10.294817,6.5101609 10.410037,6.1544309 10.302567,1.1834309 l -0.0922,-4.26544 0.7729,-0.50643 c 1.25303,-0.82101 3.17378,-0.89534 4.58127,-0.1773 3.27889,1.67277 4.39225,5.55608 3.60636,12.5787 l -0.24191,2.1616801 5.95331,0.0928 c 5.31158,0.0828 6.07997,0.15926 7.12818,0.7092 2.07331,1.08773 2.83956,3.62972 1.82563,6.05639 -0.42938,1.02766 -0.41974,1.13139 0.16281,1.75148 1.52461,1.62288 1.36971,4.73769 -0.31047,6.24283 -0.86181,0.77203 -0.91144,0.91719 -0.61779,1.80694 0.53594,1.62394 -0.31569,3.78134 -1.86449,4.72322 -0.86123,0.52375 -0.93648,0.69277 -0.86025,1.93226 0.11466,1.86464 -0.87131,3.57911 -2.51625,4.37541 -1.16043,0.56175 -1.83272,0.59989 -10.24022,0.58094 -6.10489,-0.0138 -9.4379905,-0.13889 -10.3658205,-0.38913 z"
       id="path6114" /><path
       style="fill:#fd4360;fill-opacity:1;stroke-width:0.275651"
       d="m -10.947873,41.323921 c -0.33066,-0.19405 -0.70058,-0.49964 -0.82205,-0.6791 -0.12147,-0.17946 -0.22292,-5.69561 -0.22545,-12.25811 l -0.005,-11.93182 0.66809,-0.46795 c 0.53113,-0.37202 1.5741695,-0.46794 5.0883795,-0.46794 h 4.4203 l 0.63299,0.8047 c 0.62238002,0.79124 0.63156002,0.9999 0.54787002,12.46447 -0.0783,10.71832 -0.12839,11.70308 -0.62105002,12.19626 -0.45579,0.45627 -1.175,0.54815 -4.80961,0.6144 -2.86118,0.0521 -4.4723795,-0.0387 -4.8748695,-0.27491 z"
       id="path6116" /></g></svg>
