<?xml version="1.0" encoding="UTF-8"?>
<svg id="OBJECT" xmlns="http://www.w3.org/2000/svg" viewBox="0 0 512 512">
  <defs>
    <style>
      .cls-1 {
        fill: #FD4360;
      }

      .cls-2 {
        fill: #dadada;
      }
    </style>
  </defs>
  <g>
    <path class="cls-2" d="M72.5,342c4.14,0,7.5-3.36,7.5-7.5v-22c0-4.14,3.36-7.5,7.5-7.5H248.5v29.5c0,4.14,3.36,7.5,7.5,7.5s7.5-3.36,7.5-7.5v-29.5h161c4.14,0,7.5,3.36,7.5,7.5v22c0,4.14,3.36,7.5,7.5,7.5s7.5-3.36,7.5-7.5v-22c0-12.41-10.09-22.5-22.5-22.5h-161v-52.5c0-4.14-3.36-7.5-7.5-7.5s-7.5,3.36-7.5,7.5v52.5H87.5c-12.41,0-22.5,10.09-22.5,22.5v22c0,4.14,3.36,7.5,7.5,7.5Z"/>
    <path class="cls-2" d="M108.08,416.33c1.24-3.72,1.92-7.7,1.92-11.83v-20c0-15.16-12.34-27.5-27.5-27.5h-20c-15.16,0-27.5,12.34-27.5,27.5v20c0,4.13,.68,8.11,1.92,11.83C14.27,429.08,0,453.12,0,479.5v25c0,4.14,3.36,7.5,7.5,7.5H137.5c4.14,0,7.5-3.36,7.5-7.5v-25c0-26.38-14.27-50.42-36.92-63.17Zm-58.08-31.83c0-6.89,5.61-12.5,12.5-12.5h20c6.89,0,12.5,5.61,12.5,12.5v20c0,12.41-10.09,22.5-22.5,22.5s-22.5-10.09-22.5-22.5v-20Zm80,112.5h-15v-12.5c0-4.14-3.36-7.5-7.5-7.5s-7.5,3.36-7.5,7.5v12.5H45v-12.5c0-4.14-3.36-7.5-7.5-7.5s-7.5,3.36-7.5,7.5v12.5H15v-17.5c0-20.97,11.38-40.08,29.43-50.18,6.88,7.77,16.91,12.68,28.07,12.68s21.2-4.91,28.07-12.68c18.05,10.1,29.43,29.2,29.43,50.18v17.5Z"/>
    <path class="cls-2" d="M291.58,416.33c1.24-3.72,1.92-7.7,1.92-11.83v-20c0-15.16-12.34-27.5-27.5-27.5h-20c-15.16,0-27.5,12.34-27.5,27.5v20c0,4.13,.68,8.11,1.92,11.83-22.65,12.75-36.92,36.79-36.92,63.17v25c0,4.14,3.36,7.5,7.5,7.5h130c4.14,0,7.5-3.36,7.5-7.5v-25c0-26.38-14.27-50.42-36.92-63.17Zm-58.08-31.83c0-6.89,5.61-12.5,12.5-12.5h20c6.89,0,12.5,5.61,12.5,12.5v20c0,12.41-10.09,22.5-22.5,22.5s-22.5-10.09-22.5-22.5v-20Zm80,112.5h-15v-12.5c0-4.14-3.36-7.5-7.5-7.5s-7.5,3.36-7.5,7.5v12.5h-55v-12.5c0-4.14-3.36-7.5-7.5-7.5s-7.5,3.36-7.5,7.5v12.5h-15v-17.5c0-20.97,11.38-40.08,29.43-50.18,6.88,7.77,16.91,12.68,28.07,12.68s21.2-4.91,28.07-12.68c18.05,10.1,29.43,29.2,29.43,50.18v17.5Z"/>
    <path class="cls-2" d="M475.08,416.33c1.24-3.72,1.92-7.7,1.92-11.83v-20c0-15.16-12.34-27.5-27.5-27.5h-20c-15.16,0-27.5,12.34-27.5,27.5v20c0,4.13,.68,8.11,1.92,11.83-22.65,12.75-36.92,36.79-36.92,63.17v25c0,4.14,3.36,7.5,7.5,7.5h130c4.14,0,7.5-3.36,7.5-7.5v-25c0-26.38-14.27-50.42-36.92-63.17Zm-58.08-31.83c0-6.89,5.61-12.5,12.5-12.5h20c6.89,0,12.5,5.61,12.5,12.5v20c0,12.41-10.09,22.5-22.5,22.5s-22.5-10.09-22.5-22.5v-20Zm80,112.5h-15v-12.5c0-4.14-3.36-7.5-7.5-7.5s-7.5,3.36-7.5,7.5v12.5h-55v-12.5c0-4.14-3.36-7.5-7.5-7.5s-7.5,3.36-7.5,7.5v12.5h-15v-17.5c0-20.97,11.38-40.08,29.43-50.18,6.88,7.77,16.91,12.68,28.07,12.68s21.2-4.91,28.07-12.68c18.05,10.1,29.43,29.2,29.43,50.18v17.5Z"/>
  </g>
  <g>
    <path class="cls-1" d="M268.5,172.5v-12.5h-25v12.5c0,6.89,5.61,12.5,12.5,12.5s12.5-5.61,12.5-12.5Z"/>
    <path class="cls-1" d="M304.64,160h-21.14v12.5c0,15.16-12.34,27.5-27.5,27.5s-27.5-12.34-27.5-27.5v-12.5h-21.14c-5.62,0-11.26-1.29-16.32-3.74l-42.54-20.56v56.8c0,12.41,10.09,22.5,22.5,22.5h170c12.41,0,22.5-10.09,22.5-22.5v-56.8l-42.54,20.56c-5.05,2.44-10.7,3.74-16.32,3.74Z"/>
    <path class="cls-1" d="M366,40h-42.5V22.5c0-12.41-10.09-22.5-22.5-22.5h-90c-12.41,0-22.5,10.09-22.5,22.5v17.5h-42.5c-4.14,0-7.5,3.36-7.5,7.5v52.59c0,8.57,4.99,16.53,12.71,20.26l46.36,22.41c3.04,1.47,6.42,2.24,9.79,2.24h97.28c3.37,0,6.76-.78,9.79-2.24l46.36-22.41s0,0,0,0c7.72-3.73,12.71-11.68,12.71-20.26V47.5c0-4.14-3.36-7.5-7.5-7.5Zm-180,55h-10c-4.14,0-7.5-3.36-7.5-7.5s3.36-7.5,7.5-7.5h10c4.14,0,7.5,3.36,7.5,7.5s-3.36,7.5-7.5,7.5Zm115,0h-90c-4.14,0-7.5-3.36-7.5-7.5s3.36-7.5,7.5-7.5h90c4.14,0,7.5,3.36,7.5,7.5s-3.36,7.5-7.5,7.5Zm7.5-55h-105V22.5c0-4.14,3.36-7.5,7.5-7.5h90c4.14,0,7.5,3.36,7.5,7.5v17.5Zm27.5,55h-10c-4.14,0-7.5-3.36-7.5-7.5s3.36-7.5,7.5-7.5h10c4.14,0,7.5,3.36,7.5,7.5s-3.36,7.5-7.5,7.5Z"/>
  </g>
</svg>