<?xml version="1.0" encoding="UTF-8"?>
<svg id="OBJECT" xmlns="http://www.w3.org/2000/svg" viewBox="0 0 32 32">
  <defs>
    <style>
      .cls-1 {
        fill: #FD4360;
      }

      .cls-1, .cls-2 {
        stroke-width: 0px;
      }

      .cls-2 {
        fill: #dadada;
      }
    </style>
  </defs>
  <g>
    <path class="cls-2" d="m31,9.5c0-4.69-3.81-8.5-8.5-8.5s-8.5,3.81-8.5,8.5c0,3.54,2.17,6.57,5.25,7.85v8.15c0,1.38,1.12,2.5,2.5,2.5h1.5c1.38,0,2.5-1.12,2.5-2.5v-8.15c3.08-1.28,5.25-4.32,5.25-7.85Zm-7.75,16.5h-1.5c-.28,0-.5-.22-.5-.5v-1.5h2.5v1.5c0,.28-.22.5-.5.5Zm.5-4h-2.5v-4.1c.41.06.82.1,1.25.1s.84-.04,1.25-.1v4.1Zm-1.25-6c-3.58,0-6.5-2.92-6.5-6.5s2.92-6.5,6.5-6.5,6.5,2.92,6.5,6.5-2.92,6.5-6.5,6.5Z"/>
    <path class="cls-2" d="m24.79,6.97l-2.95,2.95-1.64-1.64c-.39-.39-1.02-.39-1.41,0s-.39,1.02,0,1.41l2.35,2.35c.19.19.44.29.71.29s.52-.11.71-.29l3.65-3.65c.39-.39.39-1.02,0-1.41s-1.02-.39-1.41,0Z"/>
  </g>
  <g>
    <path class="cls-1" d="m14.28,21.32c-.94,2.27-3.17,3.88-5.78,3.88s-4.84-1.6-5.78-3.88c-1.07,1.3-1.72,2.96-1.72,4.78v1.95c0,1.63,1.32,2.95,2.95,2.95h9.1c1.63,0,2.95-1.32,2.95-2.95v-1.95c0-1.81-.65-3.48-1.72-4.78Z"/>
    <path class="cls-1" d="m8.5,23.2c2.34,0,4.25-1.91,4.25-4.25v-1.95c0-1.98-1.62-3.6-3.6-3.6h-1.3c-1.98,0-3.6,1.62-3.6,3.6v1.95c0,2.34,1.91,4.25,4.25,4.25Z"/>
  </g>
</svg>