<?xml version="1.0" encoding="UTF-8"?>
<svg id="OBJECT" xmlns="http://www.w3.org/2000/svg" viewBox="0 0 32 32">
  <defs>
    <style>
      .cls-1 {
        fill: #FD4360;
      }

      .cls-1, .cls-2 {
        stroke-width: 0px;
      }

      .cls-2 {
        fill: #dadada;
      }
    </style>
  </defs>
  <g>
    <path class="cls-2" d="m30,15H2c-.55,0-1,.45-1,1s.45,1,1,1h.5v13c0,.55.45,1,1,1h25c.55,0,1-.45,1-1v-13h.5c.55,0,1-.45,1-1s-.45-1-1-1Zm-2.5,14H4.5v-12h23v12Z"/>
    <path class="cls-2" d="m8.5,27.5c.55,0,1-.45,1-1v-2.5h3v2.5c0,.55.45,1,1,1s1-.45,1-1v-7c0-.55-.45-1-1-1s-1,.45-1,1v2.5h-3v-2.5c0-.55-.45-1-1-1s-1,.45-1,1v7c0,.55.45,1,1,1Z"/>
    <path class="cls-2" d="m18.5,27.5c.55,0,1-.45,1-1v-2.5h1.42l1.71,3c.18.32.52.5.87.5.17,0,.34-.04.5-.13.48-.27.65-.88.37-1.36l-1.29-2.26c.84-.4,1.42-1.25,1.42-2.25v-.5c0-1.38-1.12-2.5-2.5-2.5h-2c-1.38,0-2.5,1.12-2.5,2.5v5.5c0,.55.45,1,1,1Zm1-6.5c0-.28.22-.5.5-.5h2c.28,0,.5.22.5.5v.5c0,.28-.22.5-.5.5h-2.5v-1Z"/>
  </g>
  <g>
    <path class="cls-1" d="m20.88,8.02c-.92,1.77-2.76,2.98-4.88,2.98s-3.97-1.21-4.88-2.98c-1.43,1.23-2.4,2.99-2.58,4.98h14.93c-.18-1.99-1.15-3.75-2.58-4.98Z"/>
    <path class="cls-1" d="m16,9c1.93,0,3.5-1.57,3.5-3.5v-1.5c0-1.65-1.35-3-3-3h-1c-1.65,0-3,1.35-3,3v1.5c0,1.93,1.57,3.5,3.5,3.5Z"/>
  </g>
</svg>