<?xml version="1.0" encoding="UTF-8"?>
<svg id="OBJECT" xmlns="http://www.w3.org/2000/svg" viewBox="0 0 32 32">
  <defs>
    <style>
      .cls-1 {
        fill: #FD4360;
      }

      .cls-1, .cls-2 {
        stroke-width: 0px;
      }

      .cls-2 {
        fill: #dadada;
      }
    </style>
  </defs>
  <g>
    <path class="cls-2" d="m8.5,20.5c-.55,0-1,.45-1,1v.5c0,.55.45,1,1,1s1-.45,1-1v-.5c0-.55-.45-1-1-1Z"/>
    <path class="cls-2" d="m27.5,1H3.5c-1.38,0-2.5,1.12-2.5,2.5v4.5c0,.55.45,1,1,1h.5v16.5c0,1.38,1.12,2.5,2.5,2.5h8.26c.55,0,1-.45,1-1s-.45-1-1-1H5c-.28,0-.5-.22-.5-.5V9h3v9c0,.55.45,1,1,1s1-.45,1-1v-9h17v4.64c0,.55.45,1,1,1s1-.45,1-1v-4.64h.5c.55,0,1-.45,1-1V3.5c0-1.38-1.12-2.5-2.5-2.5ZM3,3.5c0-.28.22-.5.5-.5h24c.28,0,.5.22.5.5v3.5H3v-3.5Z"/>
  </g>
  <path class="cls-1" d="m23,15c-4.41,0-8,3.59-8,8s3.59,8,8,8,8-3.59,8-8-3.59-8-8-8Zm5.27,5.94l-4.05,4.81c-.2.24-.49.37-.82.35-.31-.02-.6-.18-.78-.44l-1.16-1.74-2.22,2.44c-.2.22-.47.33-.74.33-.24,0-.48-.09-.67-.26-.41-.37-.44-1-.07-1.41l3.08-3.38c.21-.23.5-.35.81-.32.31.02.59.19.76.44l1.13,1.69,1.81-2.15h-.7c-.55,0-1-.45-1-1s.45-1,1-1h2.85c.39,0,.74.23.91.58.16.35.11.77-.14,1.07Z"/>
</svg>