<?xml version="1.0" encoding="UTF-8"?>
<svg id="OBJECT" xmlns="http://www.w3.org/2000/svg" viewBox="0 0 32 32">
  <defs>
    <style>
      .cls-1 {
        fill: #FD4360;
      }

      .cls-1, .cls-2 {
        stroke-width: 0px;
      }

      .cls-2 {
        fill: #dadada;
      }
    </style>
  </defs>
  <path class="cls-2" d="m20,27h-2.38c-.22,0-.43.07-.61.2l-2.09,1.59c-.17.13-.39.2-.61.2H4.11c-.54,0-1.02-.36-1.09-.82-.05-.3.03-.6.22-.82.19-.22.47-.35.76-.35h3c.55,0,1-.45,1-1s-.45-1-1-1h-3c-.55,0-1-.45-1-1s.45-1,1-1h5c.55,0,1-.45,1-1s-.45-1-1-1h-5c-.55,0-1-.45-1-1s.45-1,1-1h5c.55,0,1-.45,1-1s-.45-1-1-1h-5c-.29,0-.57-.13-.76-.35-.19-.23-.27-.52-.22-.82.08-.46.56-.82,1.09-.82h6.89c.55,0,1-.45,1-1v-4h1c.55,0,1,.45,1,1v3c0,.33.17.65.45.83l3,2c.16.11.36.17.55.17h2c.55,0,1-.45,1-1s-.45-1-1-1h-1.7l-2.3-1.54v-2.46c0-1.65-1.35-3-3-3h-1v-1.28c0-.7-.25-1.38-.7-1.92l-1.8-2.17v-.64c0-.55-.45-1-1-1s-1,.45-1,1v.64l-1.81,2.17c-.45.54-.69,1.22-.69,1.92v6.28h-.89c-1.52,0-2.83,1.08-3.07,2.5-.14.88.1,1.77.67,2.44.02.02.03.04.05.06-.48.53-.76,1.23-.76,2s.29,1.47.77,2c-.48.53-.77,1.23-.77,2s.29,1.47.76,2c-.02.02-.03.04-.05.06-.57.67-.82,1.56-.67,2.44.23,1.43,1.55,2.5,3.07,2.5h10.22c.65,0,1.3-.22,1.82-.61l1.82-1.39h2.04c.55,0,1-.45,1-1s-.45-1-1-1ZM8.5,4.56l1.27,1.52c.12.15.19.33.21.52-.87.79-2.09.79-2.96,0,.02-.19.09-.37.21-.52l1.27-1.52Zm-1.5,4.37c.48.19.98.31,1.5.31s1.02-.12,1.5-.31v4.07h-3v-4.07Z"/>
  <path class="cls-1" d="m29.5,12h-5c-.83,0-1.5.67-1.5,1.5v9.01c1,1.07,2.42,1.74,4,1.74s3-.67,4-1.74v-9.01c0-.83-.67-1.5-1.5-1.5Zm-1.5,9c0,.55-.45,1-1,1s-1-.45-1-1v-1c0-.55.45-1,1-1s1,.45,1,1v1Z"/>
  <path class="cls-1" d="m23,25.08v4.42c0,.83.67,1.5,1.5,1.5h5c.83,0,1.5-.67,1.5-1.5v-4.42c-1.16.73-2.53,1.17-4,1.17s-2.84-.43-4-1.17Z"/>
</svg>