<?xml version="1.0" encoding="UTF-8"?>
<svg id="OBJECT" xmlns="http://www.w3.org/2000/svg" viewBox="0 0 512 512">
  <defs>
    <style>
      .cls-1 {
        fill: #FD4360;
      }

      .cls-2 {
        fill: #dadada;
      }
    </style>
  </defs>
  <g>
    <path class="cls-2" d="M484.5,367h-12.5V162.5c0-20.68-16.82-37.5-37.5-37.5h-47c-4.14,0-7.5,3.36-7.5,7.5s3.36,7.5,7.5,7.5h47c12.41,0,22.5,10.09,22.5,22.5v204.5h-12.5c-15.16,0-27.5,12.34-27.5,27.5v70c0,26.19,21.31,47.5,47.5,47.5s47.5-21.31,47.5-47.5v-70c0-15.16-12.34-27.5-27.5-27.5Zm12.5,97.5c0,17.92-14.58,32.5-32.5,32.5s-32.5-14.58-32.5-32.5v-70c0-6.89,5.61-12.5,12.5-12.5h40c6.89,0,12.5,5.61,12.5,12.5v70Z"/>
    <path class="cls-2" d="M464.5,397c-4.14,0-7.5,3.36-7.5,7.5v25c0,4.14,3.36,7.5,7.5,7.5s7.5-3.36,7.5-7.5v-25c0-4.14-3.36-7.5-7.5-7.5Z"/>
    <path class="cls-2" d="M347.5,140h10c4.14,0,7.5-3.36,7.5-7.5s-3.36-7.5-7.5-7.5h-10c-4.14,0-7.5,3.36-7.5,7.5s3.36,7.5,7.5,7.5Z"/>
    <path class="cls-2" d="M372.5,260H22.5c-12.41,0-22.5,10.09-22.5,22.5v140c0,12.41,10.09,22.5,22.5,22.5H372.5c12.41,0,22.5-10.09,22.5-22.5v-140c0-12.41-10.09-22.5-22.5-22.5Zm7.5,162.5c0,4.14-3.36,7.5-7.5,7.5H22.5c-4.14,0-7.5-3.36-7.5-7.5v-140c0-4.14,3.36-7.5,7.5-7.5H372.5c4.14,0,7.5,3.36,7.5,7.5v140Z"/>
    <path class="cls-2" d="M261.25,340h15c9.65,0,17.5-7.85,17.5-17.5v-15c0-9.65-7.85-17.5-17.5-17.5h-15c-9.65,0-17.5,7.85-17.5,17.5v15c0,9.65,7.85,17.5,17.5,17.5Zm-2.5-32.5c0-1.38,1.12-2.5,2.5-2.5h15c1.38,0,2.5,1.12,2.5,2.5v15c0,1.38-1.12,2.5-2.5,2.5h-15c-1.38,0-2.5-1.12-2.5-2.5v-15Z"/>
    <path class="cls-2" d="M190,340h15c9.65,0,17.5-7.85,17.5-17.5v-15c0-9.65-7.85-17.5-17.5-17.5h-15c-9.65,0-17.5,7.85-17.5,17.5v15c0,9.65,7.85,17.5,17.5,17.5Zm-2.5-32.5c0-1.38,1.12-2.5,2.5-2.5h15c1.38,0,2.5,1.12,2.5,2.5v15c0,1.38-1.12,2.5-2.5,2.5h-15c-1.38,0-2.5-1.12-2.5-2.5v-15Z"/>
    <path class="cls-2" d="M133.75,290h-15c-9.65,0-17.5,7.85-17.5,17.5v15c0,9.65,7.85,17.5,17.5,17.5h15c9.65,0,17.5-7.85,17.5-17.5v-15c0-9.65-7.85-17.5-17.5-17.5Zm2.5,32.5c0,1.38-1.12,2.5-2.5,2.5h-15c-1.38,0-2.5-1.12-2.5-2.5v-15c0-1.38,1.12-2.5,2.5-2.5h15c1.38,0,2.5,1.12,2.5,2.5v15Z"/>
    <path class="cls-2" d="M62.5,290h-15c-9.65,0-17.5,7.85-17.5,17.5v15c0,9.65,7.85,17.5,17.5,17.5h15c9.65,0,17.5-7.85,17.5-17.5v-15c0-9.65-7.85-17.5-17.5-17.5Zm2.5,32.5c0,1.38-1.12,2.5-2.5,2.5h-15c-1.38,0-2.5-1.12-2.5-2.5v-15c0-1.38,1.12-2.5,2.5-2.5h15c1.38,0,2.5,1.12,2.5,2.5v15Z"/>
    <path class="cls-2" d="M347.5,290h-15c-9.65,0-17.5,7.85-17.5,17.5v15c0,9.65,7.85,17.5,17.5,17.5h15c9.65,0,17.5-7.85,17.5-17.5v-15c0-9.65-7.85-17.5-17.5-17.5Zm2.5,32.5c0,1.38-1.12,2.5-2.5,2.5h-15c-1.38,0-2.5-1.12-2.5-2.5v-15c0-1.38,1.12-2.5,2.5-2.5h15c1.38,0,2.5,1.12,2.5,2.5v15Z"/>
    <path class="cls-2" d="M133.75,365h-15c-9.65,0-17.5,7.85-17.5,17.5v15c0,9.65,7.85,17.5,17.5,17.5h15c9.65,0,17.5-7.85,17.5-17.5v-15c0-9.65-7.85-17.5-17.5-17.5Zm2.5,32.5c0,1.38-1.12,2.5-2.5,2.5h-15c-1.38,0-2.5-1.12-2.5-2.5v-15c0-1.38,1.12-2.5,2.5-2.5h15c1.38,0,2.5,1.12,2.5,2.5v15Z"/>
    <path class="cls-2" d="M62.5,365h-15c-9.65,0-17.5,7.85-17.5,17.5v15c0,9.65,7.85,17.5,17.5,17.5h15c9.65,0,17.5-7.85,17.5-17.5v-15c0-9.65-7.85-17.5-17.5-17.5Zm2.5,32.5c0,1.38-1.12,2.5-2.5,2.5h-15c-1.38,0-2.5-1.12-2.5-2.5v-15c0-1.38,1.12-2.5,2.5-2.5h15c1.38,0,2.5,1.12,2.5,2.5v15Z"/>
    <path class="cls-2" d="M347.5,365H190c-9.65,0-17.5,7.85-17.5,17.5v15c0,9.65,7.85,17.5,17.5,17.5h157.5c9.65,0,17.5-7.85,17.5-17.5v-15c0-9.65-7.85-17.5-17.5-17.5Zm2.5,32.5c0,1.38-1.12,2.5-2.5,2.5H190c-1.38,0-2.5-1.12-2.5-2.5v-15c0-1.38,1.12-2.5,2.5-2.5h157.5c1.38,0,2.5,1.12,2.5,2.5v15Z"/>
  </g>
  <g>
    <path class="cls-1" d="M287.5,45h33.11L280,4.39V37.5c0,4.14,3.36,7.5,7.5,7.5Z"/>
    <path class="cls-1" d="M287.5,60c-12.41,0-22.5-10.09-22.5-22.5V0H72.5c-12.41,0-22.5,10.09-22.5,22.5V245H325V60h-37.5Zm-200-15H217.5c4.14,0,7.5,3.36,7.5,7.5s-3.36,7.5-7.5,7.5H87.5c-4.14,0-7.5-3.36-7.5-7.5s3.36-7.5,7.5-7.5Zm0,40h10c4.14,0,7.5,3.36,7.5,7.5s-3.36,7.5-7.5,7.5h-10c-4.14,0-7.5-3.36-7.5-7.5s3.36-7.5,7.5-7.5Zm200,135H87.5c-4.14,0-7.5-3.36-7.5-7.5s3.36-7.5,7.5-7.5h200c4.14,0,7.5,3.36,7.5,7.5s-3.36,7.5-7.5,7.5Zm-207.5-47.5c0-4.14,3.36-7.5,7.5-7.5h10c4.14,0,7.5,3.36,7.5,7.5s-3.36,7.5-7.5,7.5h-10c-4.14,0-7.5-3.36-7.5-7.5Zm207.5,7.5H127.5c-4.14,0-7.5-3.36-7.5-7.5s3.36-7.5,7.5-7.5h160c4.14,0,7.5,3.36,7.5,7.5s-3.36,7.5-7.5,7.5Zm0-40H87.5c-4.14,0-7.5-3.36-7.5-7.5s3.36-7.5,7.5-7.5h200c4.14,0,7.5,3.36,7.5,7.5s-3.36,7.5-7.5,7.5Zm0-40H127.5c-4.14,0-7.5-3.36-7.5-7.5s3.36-7.5,7.5-7.5h160c4.14,0,7.5,3.36,7.5,7.5s-3.36,7.5-7.5,7.5Z"/>
  </g>
</svg>