<?xml version="1.0" encoding="UTF-8"?>
<svg id="OBJECT" xmlns="http://www.w3.org/2000/svg" viewBox="0 0 32 32">
  <defs>
    <style>
      .cls-1 {
        fill: #FD4360;
      }

      .cls-1, .cls-2 {
        stroke-width: 0px;
      }

      .cls-2 {
        fill: #dadada;
      }
    </style>
  </defs>
  <path class="cls-2" d="m16,7.5c-4.69,0-8.5,3.81-8.5,8.5s3.81,8.5,8.5,8.5,8.5-3.81,8.5-8.5-3.81-8.5-8.5-8.5Zm-3.69,13.85v-.66c0-1.1.49-2.11,1.32-2.8.61.61,1.44.98,2.37.98s1.76-.38,2.37-.98c.83.69,1.32,1.7,1.32,2.8v.66c-1.05.73-2.32,1.15-3.69,1.15s-2.64-.43-3.69-1.15Zm2.34-5.82v-1.41c0-.48.39-.88.88-.88h.94c.48,0,.88.39.88.88v1.41c0,.74-.6,1.34-1.34,1.34s-1.34-.6-1.34-1.34Zm6.87,3.87c-.31-1.34-1.1-2.52-2.24-3.33.03-.18.05-.36.05-.54v-1.41c0-1.59-1.29-2.88-2.88-2.88h-.94c-1.58,0-2.88,1.29-2.88,2.88v1.41c0,.19.03.36.05.54-1.14.81-1.93,1.99-2.24,3.33-.61-.99-.97-2.15-.97-3.4,0-3.58,2.92-6.5,6.5-6.5s6.5,2.92,6.5,6.5c0,1.25-.36,2.41-.97,3.4Z"/>
  <g>
    <path class="cls-1" d="m24.09,9.32l1.75-1.75c.49.27,1.05.43,1.65.43,1.93,0,3.5-1.57,3.5-3.5s-1.57-3.5-3.5-3.5-3.5,1.57-3.5,3.5c0,.6.17,1.16.43,1.65l-1.75,1.75c.51.43.99.9,1.41,1.41Z"/>
    <path class="cls-1" d="m27.5,24c-.6,0-1.16.17-1.65.43l-1.75-1.75c-.43.51-.9.99-1.41,1.41l1.75,1.75c-.27.49-.43,1.05-.43,1.65,0,1.93,1.57,3.5,3.5,3.5s3.5-1.57,3.5-3.5-1.57-3.5-3.5-3.5Z"/>
    <path class="cls-1" d="m8,4.5c0-1.93-1.57-3.5-3.5-3.5s-3.5,1.57-3.5,3.5,1.57,3.5,3.5,3.5c.6,0,1.16-.17,1.65-.43l1.75,1.75c.43-.51.9-.99,1.41-1.41l-1.75-1.75c.27-.49.43-1.05.43-1.65Z"/>
    <path class="cls-1" d="m7.91,22.68l-1.75,1.75c-.49-.27-1.05-.43-1.65-.43-1.93,0-3.5,1.57-3.5,3.5s1.57,3.5,3.5,3.5,3.5-1.57,3.5-3.5c0-.6-.17-1.16-.43-1.65l1.75-1.75c-.51-.43-.99-.9-1.41-1.41Z"/>
  </g>
</svg>