<?xml version="1.0" encoding="UTF-8"?>
<svg id="OBJECT" xmlns="http://www.w3.org/2000/svg" viewBox="0 0 32 32">
  <defs>
    <style>
      .cls-1 {
        fill: #FD4360;
      }

      .cls-1, .cls-2 {
        stroke-width: 0px;
      }

      .cls-2 {
        fill: #dadada;
      }
    </style>
  </defs>
  <g>
    <path class="cls-2" d="m9.62,23c.07-.27.13-.55.13-.85v-1.35c0-1.54-1.26-2.8-2.8-2.8h-.9c-1.54,0-2.8,1.26-2.8,2.8v1.35c0,.29.05.57.13.85-1.46,1.02-2.38,2.69-2.38,4.5v.5c0,1.65,1.35,3,3,3h5c1.65,0,3-1.35,3-3v-.5c0-1.81-.91-3.49-2.38-4.5Zm-4.37-2.2c0-.44.36-.8.8-.8h.9c.44,0,.8.36.8.8v1.35c0,.69-.56,1.25-1.25,1.25s-1.25-.56-1.25-1.25v-1.35Zm4.75,7.2c0,.55-.45,1-1,1h-5c-.55,0-1-.45-1-1v-.5c0-1.13.56-2.18,1.47-2.83.56.45,1.26.73,2.03.73s1.47-.28,2.03-.73c.91.65,1.47,1.7,1.47,2.83v.5Z"/>
    <path class="cls-2" d="m28.62,23c.07-.27.13-.55.13-.85v-1.35c0-1.54-1.26-2.8-2.8-2.8h-.9c-1.54,0-2.8,1.26-2.8,2.8v1.35c0,.29.05.57.13.85-1.46,1.02-2.38,2.69-2.38,4.5v.5c0,1.65,1.35,3,3,3h5c1.65,0,3-1.35,3-3v-.5c0-1.81-.91-3.49-2.38-4.5Zm-4.37-2.2c0-.44.36-.8.8-.8h.9c.44,0,.8.36.8.8v1.35c0,.69-.56,1.25-1.25,1.25s-1.25-.56-1.25-1.25v-1.35Zm4.75,7.2c0,.55-.45,1-1,1h-5c-.55,0-1-.45-1-1v-.5c0-1.13.56-2.18,1.47-2.83.56.45,1.26.73,2.03.73s1.47-.28,2.03-.73c.91.65,1.47,1.7,1.47,2.83v.5Z"/>
    <path class="cls-2" d="m17.83,26.83c-1.33.22-2.34.22-3.67,0-.56-.1-1.06.28-1.15.82-.09.54.28,1.06.82,1.15.78.13,1.48.19,2.17.19s1.39-.06,2.17-.19c.54-.09.91-.61.82-1.15-.09-.54-.6-.91-1.15-.82Z"/>
    <path class="cls-2" d="m4,17c.55,0,1-.45,1-1,0-3.93,2.13-7.59,5.55-9.54.48-.27.65-.88.37-1.36s-.88-.65-1.36-.37c-4.05,2.31-6.56,6.64-6.56,11.28,0,.55.45,1,1,1Z"/>
    <path class="cls-2" d="m21.45,6.46c3.43,1.96,5.55,5.62,5.55,9.54,0,.55.45,1,1,1s1-.45,1-1c0-4.65-2.51-8.97-6.56-11.28-.48-.27-1.09-.11-1.36.37-.27.48-.11,1.09.37,1.36Z"/>
  </g>
  <g>
    <path class="cls-1" d="m20.64,7.56c-.88,1.68-2.62,2.84-4.64,2.84s-3.76-1.16-4.64-2.84c-.54.85-.86,1.86-.86,2.94v2.5c0,1.65,1.35,3,3,3h5c1.65,0,3-1.35,3-3v-2.5c0-1.08-.32-2.09-.86-2.94Zm-4.14,6.44h-1c-.55,0-1-.45-1-1s.45-1,1-1h1c.55,0,1,.45,1,1s-.45,1-1,1Z"/>
    <path class="cls-1" d="m16,8.4c1.79,0,3.25-1.46,3.25-3.25v-1.35c0-1.54-1.26-2.8-2.8-2.8h-.9c-1.54,0-2.8,1.26-2.8,2.8v1.35c0,1.79,1.46,3.25,3.25,3.25Z"/>
  </g>
</svg>