<?xml version="1.0" encoding="UTF-8"?>
<svg id="OBJECT" xmlns="http://www.w3.org/2000/svg" viewBox="0 0 32 32">
  <defs>
    <style>
      .cls-1 {
        fill: #FD4360;
      }

      .cls-1, .cls-2 {
        stroke-width: 0px;
      }

      .cls-2 {
        fill: #dadada;
      }
    </style>
  </defs>
  <path class="cls-1" d="m23.94,20.23c.68-1.26,1.06-2.7,1.06-4.23,0-4.96-4.04-9-9-9s-9,4.04-9,9c0,1.53.39,2.97,1.06,4.23,1.41-1.83,3.15-3.14,5.07-3.8-.39-.56-.62-1.24-.62-1.97,0-1.92,1.56-3.49,3.49-3.49s3.49,1.56,3.49,3.49c0,.73-.23,1.41-.62,1.97,1.92.66,3.66,1.96,5.07,3.8Z"/>
  <path class="cls-1" d="m9.28,21.97c1.65,1.85,4.05,3.03,6.72,3.03s5.07-1.18,6.72-3.03c-1.74-2.54-4.16-4.02-6.72-4.02s-4.98,1.48-6.72,4.02Z"/>
  <path class="cls-1" d="m17.49,14.46c0-.82-.67-1.49-1.49-1.49s-1.49.67-1.49,1.49.67,1.49,1.49,1.49,1.49-.67,1.49-1.49Z"/>
  <g>
    <path class="cls-2" d="m7.75,2.2l-.31-.13c-.51-.21-1.1.04-1.3.55-.21.51.04,1.1.55,1.3l.31.13c.12.05.25.08.38.08.39,0,.77-.23.93-.62.21-.51-.04-1.1-.55-1.3Z"/>
    <path class="cls-2" d="m11.39,3.69l-1.34-.55c-.51-.21-1.09.04-1.3.55-.21.51.04,1.1.55,1.3l1.34.55c.19.08.31.26.31.46v.24c.61-.32,1.26-.58,1.93-.78-.18-.79-.72-1.45-1.48-1.77Z"/>
    <path class="cls-2" d="m24.63,4.13c.13,0,.25-.02.38-.08l.31-.13c.51-.21.76-.79.55-1.3-.21-.51-.79-.76-1.3-.55l-.31.13c-.51.21-.76.79-.55,1.3.16.39.53.62.93.62Z"/>
    <path class="cls-2" d="m21.96,3.14l-1.34.55c-.77.32-1.31.98-1.48,1.77.67.2,1.32.46,1.93.78v-.24c0-.2.12-.39.31-.46l1.34-.55c.51-.21.76-.79.55-1.3-.21-.51-.8-.76-1.3-.55Z"/>
    <path class="cls-2" d="m16.06,1c-.55,0-1,.45-1,1v3.05c.31-.03.62-.05.94-.05.36,0,.71.02,1.06.05v-3.05c0-.55-.45-1-1-1Z"/>
    <path class="cls-2" d="m6.99,27.95l-.31.13c-.51.21-.76.79-.55,1.3.16.39.53.62.93.62.13,0,.25-.02.38-.08l.31-.13c.51-.21.76-.79.55-1.3-.21-.51-.79-.76-1.3-.55Z"/>
    <path class="cls-2" d="m10.94,25.99c0,.2-.12.39-.31.46l-1.34.55c-.51.21-.76.79-.55,1.3.16.39.53.62.93.62.13,0,.25-.02.38-.08l1.34-.55c.77-.32,1.31-.98,1.48-1.77-.67-.2-1.32-.46-1.93-.78v.24Z"/>
    <path class="cls-2" d="m25.32,28.07l-.31-.13c-.51-.21-1.1.04-1.3.55-.21.51.04,1.1.55,1.3l.31.13c.12.05.25.08.38.08.39,0,.77-.23.93-.62.21-.51-.04-1.1-.55-1.3Z"/>
    <path class="cls-2" d="m22.72,27.01l-1.34-.55c-.19-.08-.31-.26-.31-.46v-.24c-.61.32-1.26.58-1.93.78.18.79.72,1.45,1.48,1.77l1.34.55c.12.05.25.08.38.08.39,0,.77-.23.93-.62.21-.51-.04-1.1-.55-1.3Z"/>
    <path class="cls-2" d="m15.06,26.95v3.05c0,.55.45,1,1,1s1-.45,1-1v-3.05c-.35.03-.7.05-1.06.05-.32,0-.63-.02-.94-.05Z"/>
    <path class="cls-2" d="m28.5,8.29c.12.05.25.08.38.08.39,0,.77-.23.93-.62l.13-.31c.21-.51-.04-1.1-.55-1.3-.51-.21-1.1.04-1.3.55l-.13.31c-.21.51.04,1.1.55,1.3Z"/>
    <path class="cls-2" d="m26.54,12.87c.79-.18,1.45-.72,1.77-1.48l.55-1.34c.21-.51-.04-1.1-.55-1.3-.51-.21-1.09.04-1.3.55l-.55,1.34c-.08.19-.26.31-.46.31h-.24c.32.61.58,1.26.78,1.93Z"/>
    <path class="cls-2" d="m29.8,24.25c-.21-.51-.79-.75-1.3-.55-.51.21-.76.79-.55,1.3l.13.31c.16.39.53.62.93.62.13,0,.25-.02.38-.08.51-.21.76-.79.55-1.3l-.13-.31Z"/>
    <path class="cls-2" d="m28.31,23.26c.51-.21.76-.79.55-1.3l-.55-1.34c-.32-.77-.98-1.31-1.77-1.48-.2.67-.46,1.32-.78,1.93h.24c.2,0,.39.12.46.31l.55,1.34c.16.39.53.62.93.62.13,0,.25-.02.38-.08Z"/>
    <path class="cls-2" d="m30,15.06h-3.05c.03.31.05.62.05.94,0,.36-.02.71-.05,1.06h3.05c.55,0,1-.45,1-1s-.45-1-1-1Z"/>
    <path class="cls-2" d="m2.2,7.75c.16.39.53.62.93.62.13,0,.25-.02.38-.08.51-.21.76-.79.55-1.3l-.13-.31c-.21-.51-.79-.75-1.3-.55-.51.21-.76.79-.55,1.3l.13.31Z"/>
    <path class="cls-2" d="m3.69,8.74c-.51.21-.76.79-.55,1.3l.55,1.34c.32.77.98,1.31,1.77,1.48.2-.67.46-1.32.78-1.93h-.24c-.2,0-.39-.12-.46-.31l-.55-1.34c-.21-.51-.79-.76-1.3-.55Z"/>
    <path class="cls-2" d="m3.5,23.71c-.51-.21-1.1.04-1.3.55l-.13.31c-.21.51.04,1.1.55,1.3.12.05.25.08.38.08.39,0,.77-.23.93-.62l.13-.31c.21-.51-.04-1.1-.55-1.3Z"/>
    <path class="cls-2" d="m5.46,19.13c-.79.18-1.45.72-1.77,1.48l-.55,1.34c-.21.51.04,1.1.55,1.3.12.05.25.08.38.08.39,0,.77-.23.93-.62l.55-1.34c.08-.19.26-.31.46-.31h.24c-.32-.61-.58-1.26-.78-1.93Z"/>
    <path class="cls-2" d="m5.05,17.06c-.03-.35-.05-.7-.05-1.06,0-.32.02-.63.05-.94h-3.05c-.55,0-1,.45-1,1s.45,1,1,1h3.05Z"/>
  </g>
</svg>