<?xml version="1.0" encoding="UTF-8"?>
<svg id="OBJECT" xmlns="http://www.w3.org/2000/svg" viewBox="0 0 32 32">
  <defs>
    <style>
      .cls-1 {
        fill: #FD4360;
      }

      .cls-1, .cls-2 {
        stroke-width: 0px;
      }

      .cls-2 {
        fill: #dadada;
      }
    </style>
  </defs>
  <path class="cls-1" d="m16,16c4.14,0,7.5-3.36,7.5-7.5s-3.36-7.5-7.5-7.5-7.5,3.36-7.5,7.5,3.36,7.5,7.5,7.5Zm-4.01-10.04l2.4-2.4c.38-.38.99-.38,1.36,0,.38.38.38.99,0,1.36l-.76.76h2.2c1.94,0,3.51,1.58,3.51,3.51s-1.58,3.51-3.51,3.51h-3.4c-.53,0-.96-.43-.96-.96s.43-.96.96-.96h3.4c.87,0,1.59-.71,1.59-1.59s-.71-1.59-1.59-1.59h-2.2l.76.76c.38.38.38.99,0,1.36-.19.19-.43.28-.68.28s-.49-.09-.68-.28l-2.4-2.4c-.38-.38-.38-.99,0-1.36Z"/>
  <g>
    <path class="cls-2" d="m26.09,8.5c0,.55.45,1,1,1h2.91c.55,0,1-.45,1-1s-.45-1-1-1h-2.91c-.55,0-1,.45-1,1Z"/>
    <path class="cls-2" d="m26.38,14.71c.2.2.45.29.71.29s.51-.1.71-.29c.39-.39.39-1.02,0-1.41l-1-1c-.39-.39-1.02-.39-1.41,0s-.39,1.02,0,1.41l1,1Z"/>
    <path class="cls-2" d="m26.09,5c.26,0,.51-.1.71-.29l1-1c.39-.39.39-1.02,0-1.41s-1.02-.39-1.41,0l-1,1c-.39.39-.39,1.02,0,1.41.2.2.45.29.71.29Z"/>
    <path class="cls-2" d="m2,9.5h2.91c.55,0,1-.45,1-1s-.45-1-1-1h-2.91c-.55,0-1,.45-1,1s.45,1,1,1Z"/>
    <path class="cls-2" d="m5.2,12.29l-1,1c-.39.39-.39,1.02,0,1.41.2.2.45.29.71.29s.51-.1.71-.29l1-1c.39-.39.39-1.02,0-1.41s-1.02-.39-1.41,0Z"/>
    <path class="cls-2" d="m5.2,4.71c.2.2.45.29.71.29s.51-.1.71-.29c.39-.39.39-1.02,0-1.41l-1-1c-.39-.39-1.02-.39-1.41,0s-.39,1.02,0,1.41l1,1Z"/>
    <path class="cls-2" d="m28.68,17.75c-1.17-1.17-3.07-1.17-4.24,0l-4.77,4.77h-.14v-1.52c0-1.65-1.35-3-3-3h-7.53c0-.55-.45-1-1-1H2c-.55,0-1,.45-1,1v12c0,.55.45,1,1,1h6c.55,0,1-.45,1-1h12.1c.53,0,1.04-.21,1.42-.59l8.19-8.23c.39-.39.39-1.02,0-1.41l-2.02-2.02ZM7,29H3v-10h4v10Zm14.1-1h-12.1v-8h7.53c.55,0,1,.45,1,1v1.52h-2.74c-.55,0-1,.45-1,1s.45,1,1,1h5.29c.27,0,.52-.11.71-.29l5.07-5.07c.39-.39,1.02-.39,1.41,0l1.32,1.32-7.48,7.52Z"/>
    <path class="cls-2" d="m12.19,22.52h-.5c-.55,0-1,.45-1,1s.45,1,1,1h.5c.55,0,1-.45,1-1s-.45-1-1-1Z"/>
  </g>
</svg>