<?xml version="1.0" encoding="UTF-8"?>
<svg id="OBJECT" xmlns="http://www.w3.org/2000/svg" viewBox="0 0 32 32">
  <defs>
    <style>
      .cls-1 {
        fill: #FD4360;
      }

      .cls-1, .cls-2 {
        stroke-width: 0px;
      }

      .cls-2 {
        fill: #dadada;
      }
    </style>
  </defs>
  <g>
    <path class="cls-2" d="m23.54,5.57h-.02c-.55,0-1,.45-1,1,0,.55.45,1,1,1h0c.47-.03.99.19,1.34.55.36.36.55.83.55,1.34,0,.55.44,1,.99,1h0c.55,0,1-.44,1-1,0-1.05-.4-2.03-1.14-2.77-.73-.73-1.71-1.14-2.75-1.14Z"/>
    <path class="cls-2" d="m29.02,3.98c-1.29-1.29-2.98-1.99-4.82-1.98-.55,0-1,.45-1,1,0,.55.45,1,1,1h0c1.32,0,2.49.49,3.4,1.39.9.9,1.4,2.11,1.39,3.4,0,.55.44,1,1,1h0c.55,0,1-.44,1-1,0-1.83-.69-3.54-1.98-4.82Z"/>
    <path class="cls-2" d="m23.71,8.97c-.39-.39-1.02-.39-1.41,0s-.39,1.02,0,1.41l.32.32c.2.2.45.29.71.29s.51-.1.71-.29c.39-.39.39-1.02,0-1.41l-.32-.32Z"/>
    <path class="cls-2" d="m18,15H2c-.55,0-1,.45-1,1v14c0,.55.45,1,1,1s1-.45,1-1v-1h14v1c0,.55.45,1,1,1s1-.45,1-1v-14c0-.55-.45-1-1-1ZM3,27v-10h14v10H3Z"/>
    <path class="cls-2" d="m14,19c-.55,0-1,.45-1,1v4c0,.55.45,1,1,1s1-.45,1-1v-4c0-.55-.45-1-1-1Z"/>
  </g>
  <path class="cls-1" d="m18,1H2c-.55,0-1,.45-1,1v11h18V2c0-.55-.45-1-1-1Zm-2,8c0,.55-.45,1-1,1s-1-.45-1-1v-4c0-.55.45-1,1-1s1,.45,1,1v4Z"/>
</svg>