<?xml version="1.0" encoding="UTF-8"?>
<svg id="OBJECT" xmlns="http://www.w3.org/2000/svg" viewBox="0 0 32 32">
  <defs>
    <style>
      .cls-1 {
        fill: #FD4360;
      }

      .cls-1, .cls-2 {
        stroke-width: 0px;
      }

      .cls-2 {
        fill: #dadada;
      }
    </style>
  </defs>
  <g>
    <path class="cls-2" d="m8.5,20.5c-.55,0-1,.45-1,1v.5c0,.55.45,1,1,1s1-.45,1-1v-.5c0-.55-.45-1-1-1Z"/>
    <path class="cls-2" d="m27.5,1H3.5c-1.38,0-2.5,1.12-2.5,2.5v4.5c0,.55.45,1,1,1h.5v16.5c0,1.38,1.12,2.5,2.5,2.5h7.76c.55,0,1-.45,1-1s-.45-1-1-1h-7.76c-.28,0-.5-.22-.5-.5V9h3v9c0,.55.45,1,1,1s1-.45,1-1v-9h17v4.2c0,.55.45,1,1,1s1-.45,1-1v-4.2h.5c.55,0,1-.45,1-1V3.5c0-1.38-1.12-2.5-2.5-2.5ZM3,3.5c0-.28.22-.5.5-.5h24c.28,0,.5.22.5.5v3.5H3v-3.5Z"/>
  </g>
  <path class="cls-1" d="m23,15c-4.41,0-8,3.59-8,8s3.59,8,8,8,8-3.59,8-8-3.59-8-8-8Zm0,13.5c-3.03,0-5.5-2.47-5.5-5.5,0-.55.45-1,1-1s1,.45,1,1c0,1.93,1.57,3.5,3.5,3.5s3.5-1.57,3.5-3.5c0-1.58-1.06-2.92-2.5-3.35v1.35c0,.55-.45,1-1,1s-1-.45-1-1v-2.5c0-.55.45-1,1-1,3.03,0,5.5,2.47,5.5,5.5s-2.47,5.5-5.5,5.5Z"/>
</svg>