<?xml version="1.0" encoding="UTF-8"?>
<svg id="OBJECT" xmlns="http://www.w3.org/2000/svg" viewBox="0 0 512 512">
  <defs>
    <style>
      .cls-1 {
        fill: #FD4360;
      }

      .cls-2 {
        fill: #dadada;
      }
    </style>
  </defs>
  <g>
    <path class="cls-2" d="M357.5,0H87.5c-1.99,0-3.9,.79-5.3,2.2L2.2,82.2c-1.41,1.41-2.2,3.31-2.2,5.3V484.5c0,15.16,12.34,27.5,27.5,27.5H357.5c15.16,0,27.5-12.34,27.5-27.5V27.5c0-15.16-12.34-27.5-27.5-27.5ZM80,25.61v41.89c0,6.89-5.61,12.5-12.5,12.5H25.61L80,25.61ZM370,484.5c0,6.89-5.61,12.5-12.5,12.5H27.5c-6.89,0-12.5-5.61-12.5-12.5V95h52.5c15.16,0,27.5-12.34,27.5-27.5V15H357.5c6.89,0,12.5,5.61,12.5,12.5V484.5Z"/>
    <path class="cls-2" d="M489.5,0h-20c-12.41,0-22.5,10.09-22.5,22.5V430.2c0,4.22,1.18,8.35,3.42,11.92l21.58,34.53v27.85c0,4.14,3.36,7.5,7.5,7.5s7.5-3.36,7.5-7.5v-27.85l21.58-34.53c2.24-3.58,3.42-7.7,3.42-11.92V22.5c0-12.41-10.09-22.5-22.5-22.5Zm7.5,397.53c-5.28-2.83-11.26-4.38-17.5-4.38s-12.22,1.55-17.5,4.38V75h35V397.53ZM469.5,15h20c4.14,0,7.5,3.36,7.5,7.5V60h-35V22.5c0-4.14,3.36-7.5,7.5-7.5Zm26.36,419.17h0s-16.36,26.18-16.36,26.18l-16.36-26.18c-.75-1.19-1.14-2.57-1.14-3.97v-13.36c4.14-5.47,10.54-8.7,17.5-8.7s13.36,3.22,17.5,8.7v13.36c0,1.41-.39,2.78-1.14,3.97Z"/>
  </g>
  <g>
    <path class="cls-1" d="M42.51,223.29c1.37,0,2.76-.38,4.01-1.17l137.98-87.5,33.69,52c1.18,1.82,3.09,3.04,5.24,3.35,2.15,.3,4.32-.33,5.96-1.75l104.56-90.42-1.72,29.12c-.24,4.13,2.91,7.68,7.05,7.93,.15,0,.3,.01,.45,.01,3.94,0,7.25-3.07,7.48-7.06l2.78-47.08c.12-1.99-.56-3.94-1.88-5.42s-3.18-2.39-5.17-2.5l-47.08-2.77c-4.15-.26-7.68,2.91-7.93,7.05-.24,4.14,2.91,7.68,7.05,7.93l28.89,1.7-97.77,84.55-33.05-51.01c-2.24-3.45-6.84-4.46-10.31-2.26L38.48,209.46c-3.5,2.22-4.54,6.85-2.32,10.35,1.43,2.25,3.86,3.48,6.34,3.48Z"/>
    <path class="cls-1" d="M287.5,192c-12.41,0-22.5,10.09-22.5,22.5v222.5h55V214.5c0-12.41-10.09-22.5-22.5-22.5h-10Z"/>
    <path class="cls-1" d="M197.5,232h-10c-12.41,0-22.5,10.09-22.5,22.5v182.5h55V254.5c0-12.41-10.09-22.5-22.5-22.5Z"/>
    <path class="cls-1" d="M87.5,312c-12.41,0-22.5,10.09-22.5,22.5v102.5h55v-102.5c0-12.41-10.09-22.5-22.5-22.5h-10Z"/>
    <path class="cls-1" d="M342.5,452H42.5c-4.14,0-7.5,3.36-7.5,7.5s3.36,7.5,7.5,7.5H342.5c4.14,0,7.5-3.36,7.5-7.5s-3.36-7.5-7.5-7.5Z"/>
  </g>
</svg>