<?xml version="1.0" encoding="UTF-8"?>
<svg id="OBJECT" xmlns="http://www.w3.org/2000/svg" viewBox="0 0 32 32">
  <defs>
    <style>
      .cls-1 {
        fill: #FD4360;
      }

      .cls-2 {
        fill: #dadada;
      }
    </style>
  </defs>
  <g>
    <path class="cls-2" d="M23,1H5c-.55,0-1,.45-1,1V26c0,.55,.45,1,1,1H23c.55,0,1-.45,1-1V2c0-.55-.45-1-1-1Zm-1,24H6V3H22V25Z"/>
    <path class="cls-2" d="M20,18.25H12c-.55,0-1,.45-1,1s.45,1,1,1h8c.55,0,1-.45,1-1s-.45-1-1-1Z"/>
    <path class="cls-2" d="M8,20.25h.5c.55,0,1-.45,1-1s-.45-1-1-1h-.5c-.55,0-1,.45-1,1s.45,1,1,1Z"/>
    <path class="cls-2" d="M20,21.75H12c-.55,0-1,.45-1,1s.45,1,1,1h8c.55,0,1-.45,1-1s-.45-1-1-1Z"/>
    <path class="cls-2" d="M8,23.75h.5c.55,0,1-.45,1-1s-.45-1-1-1h-.5c-.55,0-1,.45-1,1s.45,1,1,1Z"/>
    <path class="cls-2" d="M8,15.75h12c.55,0,1-.45,1-1s-.45-1-1-1h-1.25V5.75c0-.55-.45-1-1-1s-1,.45-1,1V13.75h-1.75v-5c0-.55-.45-1-1-1s-1,.45-1,1v5h-1.75v-2c0-.55-.45-1-1-1s-1,.45-1,1v2h-1.25c-.55,0-1,.45-1,1s.45,1,1,1Z"/>
    <path class="cls-2" d="M8,6.25h.5c.55,0,1-.45,1-1s-.45-1-1-1h-.5c-.55,0-1,.45-1,1s.45,1,1,1Z"/>
    <path class="cls-2" d="M11,6.25h.5c.55,0,1-.45,1-1s-.45-1-1-1h-.5c-.55,0-1,.45-1,1s.45,1,1,1Z"/>
  </g>
  <path class="cls-1" d="M27,5h-1V26c0,1.65-1.35,3-3,3H8v1c0,.55,.45,1,1,1H27c.55,0,1-.45,1-1V6c0-.55-.45-1-1-1Z"/>
</svg>