<?xml version="1.0" encoding="UTF-8"?>
<svg id="OBJECT" xmlns="http://www.w3.org/2000/svg" viewBox="0 0 32 32">
  <defs>
    <style>
      .cls-1 {
        fill: #FD4360;
      }

      .cls-1, .cls-2 {
        stroke-width: 0px;
      }

      .cls-2 {
        fill: #dadada;
      }
    </style>
  </defs>
  <g>
    <path class="cls-2" d="m30,1H8.5c-.55,0-1,.45-1,1v11.44c-1.82.18-3.25,1.7-3.25,3.56v1.95c0,.32.04.62.11.92-2.08,1.38-3.36,3.69-3.36,6.23v1.95c0,1.63,1.32,2.95,2.95,2.95h9.1c1.29,0,2.38-.84,2.78-2h14.17c.55,0,1-.45,1-1V2c0-.55-.45-1-1-1ZM6.25,17c0-.88.72-1.6,1.6-1.6h1.3c.88,0,1.6.72,1.6,1.6v1.95c0,1.24-1.01,2.25-2.25,2.25s-2.25-1.01-2.25-2.25v-1.95Zm7.75,11.05c0,.52-.43.95-.95.95H3.95c-.52,0-.95-.43-.95-.95v-1.95c0-1.78.85-3.41,2.26-4.43.78.93,1.93,1.53,3.24,1.53s2.46-.6,3.24-1.53c1.41,1.03,2.26,2.65,2.26,4.43v1.95Zm15-1.05h-13v-.9c0-2.54-1.27-4.85-3.36-6.23.07-.3.11-.6.11-.92v-1.95c0-1.86-1.43-3.39-3.25-3.56V3h19.5v24Z"/>
    <path class="cls-2" d="m11.5,6h.5c.55,0,1-.45,1-1s-.45-1-1-1h-.5c-.55,0-1,.45-1,1s.45,1,1,1Z"/>
    <path class="cls-2" d="m15.5,6h.5c.55,0,1-.45,1-1s-.45-1-1-1h-.5c-.55,0-1,.45-1,1s.45,1,1,1Z"/>
  </g>
  <path class="cls-1" d="m26,26c-.55,0-1-.45-1-1V5c0-.55.45-1,1-1s1,.45,1,1v20c0,.55-.45,1-1,1Z"/>
  <g>
    <path class="cls-1" d="m23,12.25h-7.5c-.83,0-1.5.67-1.5,1.5v2.5c0,.83.67,1.5,1.5,1.5h7.5v-5.5Z"/>
    <path class="cls-1" d="m23,5.25h-2.5c-.83,0-1.5.67-1.5,1.5v2.5c0,.83.67,1.5,1.5,1.5h2.5v-5.5Z"/>
    <path class="cls-1" d="m23,19.25h-3.5c-.83,0-1.5.67-1.5,1.5v2.5c0,.83.67,1.5,1.5,1.5h3.5v-5.5Z"/>
  </g>
</svg>