<?xml version="1.0" encoding="UTF-8"?>
<svg id="OBJECT" xmlns="http://www.w3.org/2000/svg" viewBox="0 0 32 32">
  <defs>
    <style>
      .cls-1 {
        fill: #FD4360;
      }

      .cls-1, .cls-2 {
        stroke-width: 0px;
      }

      .cls-2 {
        fill: #dadada;
      }
    </style>
  </defs>
  <path class="cls-2" d="m16,31c-8.27,0-15-6.73-15-15S7.73,1,16,1s15,6.73,15,15-6.73,15-15,15Zm0-28c-7.17,0-13,5.83-13,13s5.83,13,13,13,13-5.83,13-13S23.17,3,16,3Z"/>
  <g>
    <circle class="cls-1" cx="16" cy="16" r="2"/>
    <path class="cls-1" d="m16,4.5c-6.34,0-11.5,5.16-11.5,11.5s5.16,11.5,11.5,11.5,11.5-5.16,11.5-11.5-5.16-11.5-11.5-11.5Zm5.78,17.28c-.2.2-.45.29-.71.29s-.51-.1-.71-.29l-2.35-2.35c-.59.35-1.28.57-2.02.57-2.21,0-4-1.79-4-4,0-1.86,1.28-3.41,3-3.86v-3.14c0-.55.45-1,1-1s1,.45,1,1v3.14c1.72.45,3,2,3,3.86,0,.74-.22,1.42-.57,2.02l2.35,2.35c.39.39.39,1.02,0,1.41Z"/>
  </g>
</svg>