<?xml version="1.0" encoding="UTF-8"?>
<svg id="OBJECT" xmlns="http://www.w3.org/2000/svg" viewBox="0 0 32 32">
  <defs>
    <style>
      .cls-1 {
        fill: #FD4360;
      }

      .cls-1, .cls-2 {
        stroke-width: 0px;
      }

      .cls-2 {
        fill: #dadada;
      }
    </style>
  </defs>
  <g>
    <path class="cls-2" d="m25.21,24.36c1.43-1.92,2.29-4.29,2.29-6.86,0-6.34-5.16-11.5-11.5-11.5s-11.5,5.16-11.5,11.5c0,2.57.86,4.94,2.29,6.86l-1.45,2.61c-.58,1.05-.4,2.38.45,3.23.51.51,1.19.79,1.92.79s1.41-.28,1.92-.79l2.06-2.05c1.33.54,2.79.85,4.32.85s2.98-.31,4.32-.85l2.05,2.05c.51.51,1.19.79,1.92.79s1.4-.28,1.92-.79c.85-.85,1.04-2.18.45-3.23l-1.45-2.61Zm-17,4.43c-.27.27-.74.27-1,0-.22-.22-.27-.57-.12-.85l1.12-2.01c.5.46,1.04.88,1.61,1.25l-1.61,1.61Zm-1.71-11.29c0-5.24,4.26-9.5,9.5-9.5s9.5,4.26,9.5,9.5-4.26,9.5-9.5,9.5-9.5-4.26-9.5-9.5Zm18.29,11.29c-.27.27-.74.27-1,0l-1.61-1.61c.58-.37,1.11-.79,1.61-1.25l1.12,2.01c.15.28.1.62-.12.85Z"/>
    <path class="cls-2" d="m17,16.98v-4.52c0-.55-.45-1-1-1s-1,.45-1,1v5c0,.3.14.59.38.78l5,4c.18.15.41.22.62.22.29,0,.58-.13.78-.38.34-.43.27-1.06-.16-1.41l-4.62-3.7Z"/>
  </g>
  <g>
    <path class="cls-1" d="m30.5,7.63L19.24,1.13c-.48-.28-1.09-.11-1.37.37s-.11,1.09.37,1.37l3.03,1.75-.23.4c1.89.8,3.55,2.04,4.86,3.58l.57-.98,3.03,1.75c.16.09.33.13.5.13.35,0,.68-.18.87-.5.28-.48.11-1.09-.37-1.37Z"/>
    <path class="cls-1" d="m12.76,1.13L1.5,7.63c-.48.28-.64.89-.37,1.37.19.32.52.5.87.5.17,0,.34-.04.5-.13l3.03-1.75.57.98c1.31-1.54,2.97-2.78,4.86-3.58l-.23-.4,3.03-1.75c.48-.28.64-.89.37-1.37s-.89-.64-1.37-.37Z"/>
  </g>
</svg>