<?xml version="1.0" encoding="UTF-8"?>
<svg id="OBJECT" xmlns="http://www.w3.org/2000/svg" viewBox="0 0 32 32">
  <defs>
    <style>
      .cls-1 {
        fill: #FD4360;
      }

      .cls-1, .cls-2 {
        stroke-width: 0px;
      }

      .cls-2 {
        fill: #dadada;
      }
    </style>
  </defs>
  <g>
    <path class="cls-2" d="m30,13H2c-.55,0-1,.45-1,1v16c0,.55.45,1,1,1s1-.45,1-1v-1h26v1c0,.55.45,1,1,1s1-.45,1-1V14c0-.55-.45-1-1-1ZM3,27v-12h26v12H3Z"/>
    <path class="cls-2" d="m16,17.75c-.55,0-1,.45-1,1v.5c0,.55.45,1,1,1s1-.45,1-1v-.5c0-.55-.45-1-1-1Z"/>
    <path class="cls-2" d="m16,21.75c-.55,0-1,.45-1,1v.5c0,.55.45,1,1,1s1-.45,1-1v-.5c0-.55-.45-1-1-1Z"/>
    <path class="cls-2" d="m8,16h-3c-.55,0-1,.45-1,1v8c0,.55.45,1,1,1h3c.55,0,1-.45,1-1v-8c0-.55-.45-1-1-1Zm-1,8h-1v-6h1v6Z"/>
    <path class="cls-2" d="m13.5,24h-.5v-7c0-.55-.45-1-1-1h-1.5c-.55,0-1,.45-1,1s.45,1,1,1h.5v6h-.5c-.55,0-1,.45-1,1s.45,1,1,1h3c.55,0,1-.45,1-1s-.45-1-1-1Z"/>
    <path class="cls-2" d="m27,16h-3c-.55,0-1,.45-1,1v8c0,.55.45,1,1,1h3c.55,0,1-.45,1-1v-8c0-.55-.45-1-1-1Zm-1,8h-1v-6h1v6Z"/>
    <path class="cls-2" d="m21.5,24h-.5v-7c0-.55-.45-1-1-1h-1.5c-.55,0-1,.45-1,1s.45,1,1,1h.5v6h-.5c-.55,0-1,.45-1,1s.45,1,1,1h3c.55,0,1-.45,1-1s-.45-1-1-1Z"/>
  </g>
  <g>
    <path class="cls-1" d="m27.5,8h-6c-.55,0-1,.45-1,1s.45,1,1,1h.5v2h5v-2h.5c.55,0,1-.45,1-1s-.45-1-1-1Z"/>
    <path class="cls-1" d="m10.5,8h-6c-.55,0-1,.45-1,1s.45,1,1,1h.5v2h5v-2h.5c.55,0,1-.45,1-1s-.45-1-1-1Z"/>
    <path class="cls-1" d="m13.29,5.96c-.39.4-.38,1.03.02,1.41.4.39,1.03.38,1.41-.02.69-.71,1.88-.71,2.57,0,.2.2.46.3.71.3s.5-.09.7-.29c.39-.39.4-1.02.02-1.41-1.45-1.48-3.98-1.48-5.43,0Z"/>
    <path class="cls-1" d="m20.71,3c-1.26-1.29-2.93-2-4.71-2s-3.46.71-4.71,2c-.39.39-.38,1.03.02,1.41.39.39,1.03.38,1.41-.02.88-.9,2.04-1.39,3.29-1.39s2.41.5,3.29,1.39c.2.2.46.3.71.3s.5-.09.7-.29c.39-.39.4-1.02.02-1.41Z"/>
    <path class="cls-1" d="m16.22,8.2h-.45c-.55,0-1,.45-1,1s.45,1,1,1h.45c.55,0,1-.45,1-1s-.45-1-1-1Z"/>
  </g>
</svg>