<?xml version="1.0" encoding="UTF-8"?>
<svg id="OBJECT" xmlns="http://www.w3.org/2000/svg" viewBox="0 0 32 32">
  <defs>
    <style>
      .cls-1 {
        fill: #FD4360;
      }

      .cls-1, .cls-2 {
        stroke-width: 0px;
      }

      .cls-2 {
        fill: #dadada;
      }
    </style>
  </defs>
  <path class="cls-2" d="m16,31c-8.27,0-15-6.73-15-15S7.73,1,16,1s15,6.73,15,15-6.73,15-15,15Zm0-28c-7.17,0-13,5.83-13,13s5.83,13,13,13,13-5.83,13-13S23.17,3,16,3Z"/>
  <path class="cls-1" d="m16,5c-6.07,0-11,4.93-11,11s4.93,11,11,11,11-4.93,11-11-4.93-11-11-11Zm-1,3.5c0-.55.45-1,1-1s1,.45,1,1v.5c0,.55-.45,1-1,1s-1-.45-1-1v-.5Zm-6,8.5h-.5c-.55,0-1-.45-1-1s.45-1,1-1h.5c.55,0,1,.45,1,1s-.45,1-1,1Zm8,6.5c0,.55-.45,1-1,1s-1-.45-1-1v-.5c0-.55.45-1,1-1s1,.45,1,1v.5Zm3.71-2.79c-.2.2-.45.29-.71.29s-.51-.1-.71-.29l-4-4c-.19-.19-.29-.44-.29-.71v-3c0-.55.45-1,1-1s1,.45,1,1v2.59l3.71,3.71c.39.39.39,1.02,0,1.41Zm2.79-3.71h-.5c-.55,0-1-.45-1-1s.45-1,1-1h.5c.55,0,1,.45,1,1s-.45,1-1,1Z"/>
</svg>