<?xml version="1.0" encoding="UTF-8"?>
<svg id="OBJECT" xmlns="http://www.w3.org/2000/svg" viewBox="0 0 32 32">
  <defs>
    <style>
      .cls-1 {
        fill: #FD4360;
      }

      .cls-1, .cls-2 {
        stroke-width: 0px;
      }

      .cls-2 {
        fill: #dadada;
      }
    </style>
  </defs>
  <path class="cls-2" d="m27,20h-1V6.7l.66.24c.11.04.23.06.34.06.41,0,.79-.25.94-.66.19-.52-.08-1.09-.6-1.28L16.34,1.06c-.22-.08-.46-.08-.68,0L4.66,5.06c-.52.19-.79.76-.6,1.28.19.52.76.79,1.28.6l.66-.24v13.3h-1c-.55,0-1,.45-1,1s.45,1,1,1h6.5v3.13c-1.01.32-1.75,1.26-1.75,2.37v1c0,1.38,1.12,2.5,2.5,2.5h.5c1.38,0,2.5-1.12,2.5-2.5v-1c0-1.12-.74-2.05-1.75-2.37v-3.13h5v3.13c-1.01.32-1.75,1.26-1.75,2.37v1c0,1.38,1.12,2.5,2.5,2.5h.5c1.38,0,2.5-1.12,2.5-2.5v-1c0-1.12-.74-2.05-1.75-2.37v-3.13h6.5c.55,0,1-.45,1-1s-.45-1-1-1Zm-13.75,8.5c0,.28-.22.5-.5.5h-.5c-.28,0-.5-.22-.5-.5v-1c0-.28.22-.5.5-.5h.5c.28,0,.5.22.5.5v1Zm7,0c0,.28-.22.5-.5.5h-.5c-.28,0-.5-.22-.5-.5v-1c0-.28.22-.5.5-.5h.5c.28,0,.5.22.5.5v1ZM8,5.97l8-2.91,8,2.91v14.03H8V5.97Z"/>
  <path class="cls-1" d="m16,6c-3.58,0-6.5,2.92-6.5,6.5s2.92,6.5,6.5,6.5,6.5-2.92,6.5-6.5-2.92-6.5-6.5-6.5Zm1.99,8.49c-.2.2-.45.29-.71.29s-.51-.1-.71-.29l-1.28-1.28c-.19-.19-.29-.44-.29-.71v-2.02c0-.55.45-1,1-1s1,.45,1,1v1.6l.99.99c.39.39.39,1.02,0,1.41Z"/>
</svg>