<?xml version="1.0" encoding="UTF-8"?>
<svg id="OBJECT" xmlns="http://www.w3.org/2000/svg" viewBox="0 0 32 32">
  <defs>
    <style>
      .cls-1 {
        fill: #FD4360;
      }

      .cls-1, .cls-2 {
        stroke-width: 0px;
      }

      .cls-2 {
        fill: #dadada;
      }
    </style>
  </defs>
  <g>
    <path class="cls-2" d="m28,10H4c-1.65,0-3,1.35-3,3v11c0,1.65,1.35,3,3,3h.5v2h-1c-.55,0-1,.45-1,1s.45,1,1,1h25c.55,0,1-.45,1-1s-.45-1-1-1h-1v-2h.5c1.65,0,3-1.35,3-3v-11c0-1.65-1.35-3-3-3Zm-2.5,19H6.5v-2h19v2Zm3.5-5c0,.55-.45,1-1,1H4c-.55,0-1-.45-1-1v-11c0-.55.45-1,1-1h24c.55,0,1,.45,1,1v11Z"/>
    <path class="cls-2" d="m10.5,13.5h-3c-1.1,0-2,.9-2,2v6c0,1.1.9,2,2,2h3c1.1,0,2-.9,2-2v-6c0-1.1-.9-2-2-2Zm0,8h-3s0-6,0-6h3v6Z"/>
    <path class="cls-2" d="m25.5,15.5c.55,0,1-.45,1-1s-.45-1-1-1h-4c-1.1,0-2,.9-2,2v6c0,1.1.9,2,2,2h3c1.1,0,2-.9,2-2v-2c0-1.1-.9-2-2-2h-3v-2h4Zm-1,4v2h-3v-2h3Z"/>
    <path class="cls-2" d="m16,15.25c-.55,0-1,.45-1,1v.5c0,.55.45,1,1,1s1-.45,1-1v-.5c0-.55-.45-1-1-1Z"/>
    <path class="cls-2" d="m16,19.25c-.55,0-1,.45-1,1v.5c0,.55.45,1,1,1s1-.45,1-1v-.5c0-.55-.45-1-1-1Z"/>
  </g>
  <g>
    <path class="cls-1" d="m24.5,4.04c-.55,0-1,.45-1,1,0,.55.45,1,1,1h0c.38.03.76.15,1.04.42.28.28.43.64.42,1.04,0,.55.44,1,1,1h0c.55,0,1-.44,1-1,0-.93-.35-1.8-1.01-2.46-.66-.66-1.5-.99-2.46-1.01Z"/>
    <path class="cls-1" d="m29.27,2.73c-1.12-1.12-2.6-1.71-4.21-1.73-.55,0-1,.45-1,1,0,.55.45,1,1,1h0c1.07-.04,2.04.4,2.78,1.14.74.74,1.15,1.73,1.14,2.78,0,.55.44,1,1,1h0c.55,0,1-.44,1-1,0-1.59-.61-3.09-1.73-4.21Z"/>
    <path class="cls-1" d="m7.5,4.04c-.95.03-1.8.35-2.46,1.01-.66.66-1.01,1.53-1.01,2.46,0,.55.45,1,1,1h0c.55,0,1-.45,1-1,0-.39.15-.76.42-1.04s.64-.42,1.03-.42h.01c.55,0,1-.44,1-1,0-.55-.44-1-1-1Z"/>
    <path class="cls-1" d="m6.92,3c.55,0,1-.44,1-1,0-.55-.44-1-1-1h-.03c-1.58,0-3.06.61-4.18,1.73-1.12,1.12-1.73,2.62-1.73,4.21,0,.55.45,1,1,1h0c.55,0,1-.45,1-1,0-1.05.4-2.04,1.14-2.78.74-.74,1.72-1.16,2.78-1.14Z"/>
    <path class="cls-1" d="m20,4h-8c-.55,0-1,.45-1,1s.45,1,1,1h.5v2h7v-2h.5c.55,0,1-.45,1-1s-.45-1-1-1Z"/>
  </g>
</svg>