<?xml version="1.0" encoding="UTF-8"?>
<svg id="OBJECT" xmlns="http://www.w3.org/2000/svg" viewBox="0 0 32 32">
  <defs>
    <style>
      .cls-1 {
        fill: #FD4360;
      }

      .cls-1, .cls-2 {
        stroke-width: 0px;
      }

      .cls-2 {
        fill: #dadada;
      }
    </style>
  </defs>
  <path class="cls-2" d="m30,7h-2.58c-.55,0-1,.45-1,1s.45,1,1,1h1.58v9c0,1.1-.9,2-2,2H6v-11h3.58c.55,0,1-.45,1-1s-.45-1-1-1h-3.58v-3.6c0-1.32-1.08-2.4-2.4-2.4h-1.6c-.55,0-1,.45-1,1s.45,1,1,1h1.6c.22,0,.4.18.4.4v20.6c0,1.65,1.35,3,3,3h1v.5c0,1.93,1.57,3.5,3.5,3.5s3.5-1.57,3.5-3.5v-.5h6v.5c0,1.93,1.57,3.5,3.5,3.5s3.5-1.57,3.5-3.5v-1.5c0-.55-.45-1-1-1H7c-.55,0-1-.45-1-1v-2h21c2.21,0,4-1.79,4-4v-10c0-.55-.45-1-1-1Zm-7,20h3v.5c0,.83-.67,1.5-1.5,1.5s-1.5-.67-1.5-1.5v-.5Zm-10,.5c0,.83-.67,1.5-1.5,1.5s-1.5-.67-1.5-1.5v-.5h3v.5Z"/>
  <path class="cls-1" d="m18.5,15.5c3.58,0,6.5-2.92,6.5-6.5s-2.92-6.5-6.5-6.5-6.5,2.92-6.5,6.5,2.92,6.5,6.5,6.5Zm-2.96-8.04c-.39-.39-.39-1.02,0-1.41s1.02-.39,1.41,0l1.54,1.54,1.54-1.54c.39-.39,1.02-.39,1.41,0s.39,1.02,0,1.41l-1.54,1.54,1.54,1.54c.39.39.39,1.02,0,1.41-.2.2-.45.29-.71.29s-.51-.1-.71-.29l-1.54-1.54-1.54,1.54c-.2.2-.45.29-.71.29s-.51-.1-.71-.29c-.39-.39-.39-1.02,0-1.41l1.54-1.54-1.54-1.54Z"/>
</svg>