<?xml version="1.0" encoding="UTF-8"?>
<svg id="OBJECT" xmlns="http://www.w3.org/2000/svg" viewBox="0 0 32 32">
  <defs>
    <style>
      .cls-1 {
        fill: #FD4360;
      }

      .cls-1, .cls-2 {
        stroke-width: 0px;
      }

      .cls-2 {
        fill: #dadada;
      }
    </style>
  </defs>
  <g>
    <path class="cls-2" d="m7.99,4.54c-.92,0-1.79.36-2.44,1.01-.66.66-1.01,1.53-1.01,2.46,0,.55.45,1,1,1h0c.55,0,1-.45,1-1,0-.39.15-.76.42-1.04s.64-.42,1.03-.42c0,0,0,0,.01,0,.55,0,1-.44,1-1,0-.55-.44-1-1-1h-.02Z"/>
    <path class="cls-2" d="m2.5,8.43h0c.55,0,1-.45,1-1,0-1.05.4-2.04,1.14-2.78s1.72-1.14,2.76-1.14h.03c.55,0,1-.44,1-1,0-.55-.44-1-1-1h-.03c-1.58,0-3.06.61-4.18,1.73-1.12,1.12-1.73,2.62-1.73,4.21,0,.55.45,1,1,1Z"/>
    <path class="cls-2" d="m24.01,27.46c.92,0,1.79-.36,2.44-1.01.66-.66,1.01-1.53,1.01-2.46,0-.55-.45-1-1-1h0c-.55,0-1,.45-1,1,0,.39-.15.76-.42,1.04s-.64.42-1.03.42c0,0,0,0-.01,0-.55,0-1,.44-1,1,0,.55.44,1,1,1h.02Z"/>
    <path class="cls-2" d="m29.5,23.57h0c-.55,0-1,.45-1,1,0,1.05-.4,2.04-1.14,2.78s-1.72,1.14-2.76,1.14h-.03c-.55,0-1,.44-1,1,0,.55.44,1,1,1h.03c1.58,0,3.06-.61,4.18-1.73,1.12-1.12,1.73-2.62,1.73-4.21,0-.55-.45-1-1-1Z"/>
    <path class="cls-2" d="m30.02,10.28l-1.37-1.37.95-.95c1.31-1.31,1.31-3.43,0-4.74l-.83-.83c-1.3-1.31-3.43-1.31-4.74,0l-.95.95-1.37-1.37c-1.31-1.31-3.43-1.31-4.74,0L3.7,15.26c-1.74,1.74-2.7,4.06-2.7,6.52s.96,4.78,2.7,6.52,4.06,2.7,6.52,2.7,4.78-.96,6.52-2.7l13.28-13.28c1.31-1.31,1.31-3.43,0-4.74Zm-4.57-6.47c.53-.53,1.38-.53,1.91,0l.83.83c.53.53.53,1.38,0,1.91l-.95.95-2.74-2.74.95-.95Zm3.15,9.79l-13.28,13.28c-1.36,1.36-3.18,2.11-5.1,2.11s-3.74-.75-5.1-2.11-2.11-3.18-2.11-5.1.75-3.74,2.11-5.1L18.4,3.39c.26-.26.61-.39.95-.39s.69.13.95.39l8.3,8.3c.53.53.53,1.38,0,1.91Z"/>
  </g>
  <g>
    <path class="cls-1" d="m22.67,8.33h-3.32c-.55,0-1,.45-1,1s.45,1,1,1h2.32v2.32c0,.55.45,1,1,1s1-.45,1-1v-3.32c0-.55-.45-1-1-1Z"/>
    <path class="cls-1" d="m19.35,14.97h-2.32v-2.32c0-.55-.45-1-1-1s-1,.45-1,1v3.32c0,.55.45,1,1,1h3.32c.55,0,1-.45,1-1s-.45-1-1-1Z"/>
    <path class="cls-1" d="m13.42,17.75c-1.76-1.76-4.63-1.76-6.4,0l-.83.83c-1.76,1.76-1.76,4.63,0,6.4l.83.83c.88.88,2.04,1.32,3.2,1.32s2.32-.44,3.2-1.32l.83-.83c1.76-1.76,1.76-4.63,0-6.4l-.83-.83Z"/>
    <path class="cls-1" d="m19.06,11.53l-.83.83c-.39.39-.39,1.02,0,1.41.2.2.45.29.71.29s.51-.1.71-.29l.83-.83c.39-.39.39-1.02,0-1.41s-1.02-.39-1.41,0Z"/>
  </g>
</svg>