<?xml version="1.0" encoding="UTF-8"?>
<svg id="OBJECT" xmlns="http://www.w3.org/2000/svg" viewBox="0 0 32 32">
  <defs>
    <style>
      .cls-1 {
        fill: #FD4360;
      }

      .cls-1, .cls-2 {
        stroke-width: 0px;
      }

      .cls-2 {
        fill: #dadada;
      }
    </style>
  </defs>
  <path class="cls-2" d="m14.33,19.89c.16-.47.27-.97.27-1.49v-2.7c0-2.04-1.66-3.7-3.7-3.7h-1.8c-2.04,0-3.7,1.66-3.7,3.7v2.7c0,.53.11,1.02.27,1.49-2.83,1.4-4.67,4.29-4.67,7.5v.6c0,1.65,1.35,3,3,3h12c1.65,0,3-1.35,3-3v-.6c0-3.22-1.84-6.1-4.67-7.5Zm-6.93-4.19c0-.94.76-1.7,1.7-1.7h1.8c.94,0,1.7.76,1.7,1.7v2.7c0,1.43-1.17,2.6-2.6,2.6s-2.6-1.17-2.6-2.6v-2.7Zm9.6,12.3c0,.55-.45,1-1,1h-1.37v-2c0-.55-.45-1-1-1s-1,.45-1,1v2h-5v-2c0-.55-.45-1-1-1s-1,.45-1,1v2h-1.63c-.55,0-1-.45-1-1v-.6c0-2.51,1.48-4.75,3.72-5.78.84.85,2,1.39,3.28,1.39s2.45-.53,3.28-1.39c2.24,1.04,3.72,3.28,3.72,5.78v.6Z"/>
  <path class="cls-1" d="m23.25,1c-4.27,0-7.75,3.48-7.75,7.75s3.48,7.75,7.75,7.75,7.75-3.48,7.75-7.75-3.48-7.75-7.75-7.75Zm-.62,6.75h1.25c1.24,0,2.25,1.01,2.25,2.25,0,1.11-.81,2.03-1.88,2.21v.29c0,.55-.45,1-1,1s-1-.45-1-1v-.25h-.88c-.55,0-1-.45-1-1s.45-1,1-1h2.5c.14,0,.25-.11.25-.25s-.11-.25-.25-.25h-1.25c-1.24,0-2.25-1.01-2.25-2.25,0-1.11.81-2.03,1.88-2.21v-.29c0-.55.45-1,1-1s1,.45,1,1v.25h.88c.55,0,1,.45,1,1s-.45,1-1,1h-2.5c-.14,0-.25.11-.25.25s.11.25.25.25Z"/>
</svg>