<?xml version="1.0" encoding="UTF-8" standalone="no"?>
<svg
   id="OBJECT"
   viewBox="0 0 32 32"
   version="1.1"
   sodipodi:docname="Renegotiate.svg"
   inkscape:version="1.2.2 (732a01da63, 2022-12-09)"
   xmlns:inkscape="http://www.inkscape.org/namespaces/inkscape"
   xmlns:sodipodi="http://sodipodi.sourceforge.net/DTD/sodipodi-0.dtd"
   xmlns="http://www.w3.org/2000/svg"
   xmlns:svg="http://www.w3.org/2000/svg">
  <sodipodi:namedview
     id="namedview15"
     pagecolor="#505050"
     bordercolor="#ffffff"
     borderopacity="1"
     inkscape:showpageshadow="0"
     inkscape:pageopacity="0"
     inkscape:pagecheckerboard="1"
     inkscape:deskcolor="#505050"
     showgrid="false"
     inkscape:zoom="4.5796213"
     inkscape:cx="-73.150154"
     inkscape:cy="35.592463"
     inkscape:window-width="1920"
     inkscape:window-height="1009"
     inkscape:window-x="-8"
     inkscape:window-y="-8"
     inkscape:window-maximized="1"
     inkscape:current-layer="OBJECT" />
  <defs
     id="defs4">
    <style
       id="style2">
      .cls-1 {
        fill: #FD4360;
      }

      .cls-1, .cls-2 {
        stroke-width: 0px;
      }

      .cls-2 {
        fill: #dadada;
      }
    </style>
  </defs>
  <g
     id="g10"
     transform="matrix(0.77225394,0,0,0.77225394,-3.4057109,0.39544929)">
    <path
       class="cls-2"
       d="m 21.754916,26.916963 c -0.549941,0.0081 -0.993294,0.464615 -0.985229,1.014556 l 0.0073,0.499946 c 0.0041,0.27997 -0.212644,0.503173 -0.492614,0.507278 l -8.139125,0.119363 c -0.27997,0.0041 -0.503172,-0.212644 -0.507278,-0.492614 l -0.0073,-0.499947 c -0.0081,-0.54994 -0.464615,-0.993293 -1.014556,-0.985228 -0.549941,0.0081 -0.9932941,0.464615 -0.985229,1.014556 l 0.00733,0.499946 c 0.020236,1.379852 1.156539,2.483308 2.53639,2.463072 l 8.139125,-0.119363 c 1.379852,-0.02024 2.483308,-1.156539 2.463072,-2.53639 l -0.0073,-0.499946 c -0.0081,-0.549941 -0.464615,-0.993294 -1.014556,-0.985229 z"
       id="path6" />
    <path
       class="cls-2"
       d="M 4.76362,9.9042893 C 4.8996182,10.312339 5.2936821,10.58659 5.7236359,10.580285 l 3.6396086,-0.05338 0.023022,1.569831 c 0.00807,0.549941 0.4646154,0.993294 1.0145565,0.985229 0.549941,-0.0081 0.993294,-0.464616 0.985229,-1.014557 L 11.348366,9.4976887 C 11.340301,8.9477478 10.88375,8.5043949 10.33381,8.5124599 l -1.5698316,0.023022 7.0631276,-5.294141 7.215337,5.0847431 -5.709386,0.08373 c -0.549941,0.00807 -0.993294,0.4646153 -0.985229,1.0145562 0.0081,0.5499409 0.464615,0.9932938 1.014556,0.9852288 l 3.139663,-0.04604 0.02302,1.569831 c 0.0081,0.549941 0.464615,0.993294 1.014556,0.985229 0.549941,-0.0081 0.993294,-0.464616 0.985229,-1.014556 l -0.02302,-1.569832 3.639608,-0.05338 c 0.429954,-0.0063 0.815806,-0.2919936 0.93978,-0.7038558 C 27.205194,9.165133 27.05861,8.7172343 26.704836,8.4623945 L 16.386982,1.1829098 C 16.215094,1.0554167 16.004237,0.99850248 15.794259,1.0015819 c -0.209977,0.00308 -0.409076,0.066006 -0.58715,0.1986311 L 5.107158,8.7791307 C 4.7608615,9.0342362 4.617623,9.4963863 4.76362,9.9042893 Z"
       id="path8" />
  </g>
  <path
     class="cls-1"
     d="M 28.242314,11.0316 H 4.3223144 c -0.03,0.14 -0.04,0.29 -0.04,0.44 v 9.13 c 0,0.15 0.02,0.29 0.04,0.44 H 28.232314 c 0.03,-0.14 0.04,-0.29 0.04,-0.44 v -9.13 c 0,-0.15 -0.02,-0.29 -0.04,-0.44 z m -17.1,5.85 H 9.6323144 c -0.47,0 -0.85,-0.38 -0.85,-0.85 0,-0.47 0.38,-0.85 0.85,-0.85 h 1.5099996 c 0.47,0 0.85,0.38 0.85,0.85 0,0.47 -0.38,0.85 -0.85,0.85 z m 4.66,-1.7 h 0.98 c 1.01,0 1.82,0.82 1.82,1.82 0,0.88 -0.63,1.62 -1.47,1.79 v 0.17 c 0,0.47 -0.38,0.85 -0.85,0.85 -0.47,0 -0.85,-0.38 -0.85,-0.85 v -0.13 h -0.62 c -0.47,0 -0.85,-0.38 -0.85,-0.85 0,-0.47 0.38,-0.85 0.85,-0.85 h 1.95 c 0.07,0 0.13,-0.06 0.13,-0.13 0,-0.07 -0.06,-0.13 -0.13,-0.13 h -0.98 c -1.01,0 -1.82,-0.82 -1.82,-1.82 0,-0.88 0.63,-1.62 1.47,-1.79 v -0.17 c 0,-0.47 0.38,-0.85 0.85,-0.85 0.47,0 0.85,0.38 0.85,0.85 v 0.13 h 0.62 c 0.47,0 0.85,0.38 0.85,0.85 0,0.47 -0.38,0.85 -0.85,0.85 h -1.95 c -0.07,0 -0.13,0.06 -0.13,0.13 0,0.07 0.06,0.13 0.13,0.13 z m 7.14,1.7 h -1.51 c -0.47,0 -0.85,-0.38 -0.85,-0.85 0,-0.47 0.38,-0.85 0.85,-0.85 h 1.51 c 0.47,0 0.85,0.38 0.85,0.85 0,0.47 -0.38,0.85 -0.85,0.85 z"
     id="path12" />
  <g
     id="g310"
     transform="matrix(0.77225394,0,0,-0.77225394,10.953758,31.098135)">
    <path
       class="cls-2"
       d="m 21.754916,26.916963 c -0.549941,0.0081 -0.993294,0.464615 -0.985229,1.014556 l 0.0073,0.499946 c 0.0041,0.27997 -0.212644,0.503173 -0.492614,0.507278 l -8.139125,0.119363 c -0.27997,0.0041 -0.503172,-0.212644 -0.507278,-0.492614 l -0.0073,-0.499947 c -0.0081,-0.54994 -0.464615,-0.993293 -1.014556,-0.985228 -0.549941,0.0081 -0.9932941,0.464615 -0.985229,1.014556 l 0.00733,0.499946 c 0.020236,1.379852 1.156539,2.483308 2.53639,2.463072 l 8.139125,-0.119363 c 1.379852,-0.02024 2.483308,-1.156539 2.463072,-2.53639 l -0.0073,-0.499946 c -0.0081,-0.549941 -0.464615,-0.993294 -1.014556,-0.985229 z"
       id="path306" />
    <path
       class="cls-2"
       d="M 4.76362,9.9042893 C 4.8996182,10.312339 5.2936821,10.58659 5.7236359,10.580285 l 3.6396086,-0.05338 0.023022,1.569831 c 0.00807,0.549941 0.4646154,0.993294 1.0145565,0.985229 0.549941,-0.0081 0.993294,-0.464616 0.985229,-1.014557 L 11.348366,9.4976887 C 11.340301,8.9477478 10.88375,8.5043949 10.33381,8.5124599 l -1.5698316,0.023022 7.0631276,-5.294141 7.215337,5.0847431 -5.709386,0.08373 c -0.549941,0.00807 -0.993294,0.4646153 -0.985229,1.0145562 0.0081,0.5499409 0.464615,0.9932938 1.014556,0.9852288 l 3.139663,-0.04604 0.02302,1.569831 c 0.0081,0.549941 0.464615,0.993294 1.014556,0.985229 0.549941,-0.0081 0.993294,-0.464616 0.985229,-1.014556 l -0.02302,-1.569832 3.639608,-0.05338 c 0.429954,-0.0063 0.815806,-0.2919936 0.93978,-0.7038558 C 27.205194,9.165133 27.05861,8.7172343 26.704836,8.4623945 L 16.386982,1.1829098 C 16.215094,1.0554167 16.004237,0.99850248 15.794259,1.0015819 c -0.209977,0.00308 -0.409076,0.066006 -0.58715,0.1986311 L 5.107158,8.7791307 C 4.7608615,9.0342362 4.617623,9.4963863 4.76362,9.9042893 Z"
       id="path308" />
  </g>
</svg>
