<?xml version="1.0" encoding="UTF-8"?>
<svg id="OBJECT" xmlns="http://www.w3.org/2000/svg" viewBox="0 0 32 32">
  <defs>
    <style>
      .cls-1 {
        fill: #FD4360;
      }

      .cls-1, .cls-2 {
        stroke-width: 0px;
      }

      .cls-2 {
        fill: #dadada;
      }
    </style>
  </defs>
  <g>
    <path class="cls-2" d="m8.12,26c0,.55.45,1,1,1h9.56c.55,0,1-.45,1-1s-.45-1-1-1h-9.56c-.55,0-1,.45-1,1Z"/>
    <path class="cls-2" d="m21.04,26c0,.55.45,1,1,1h.83c.55,0,1-.45,1-1s-.45-1-1-1h-.83c-.55,0-1,.45-1,1Z"/>
    <path class="cls-2" d="m25,4h-1c-.55,0-1,.45-1,1s.45,1,1,1h1c.55,0,1,.45,1,1v21c0,.55-.45,1-1,1H7c-.55,0-1-.45-1-1V7c0-.55.45-1,1-1h1c.55,0,1-.45,1-1s-.45-1-1-1h-1c-1.65,0-3,1.35-3,3v21c0,1.65,1.35,3,3,3h18c1.65,0,3-1.35,3-3V7c0-1.65-1.35-3-3-3Z"/>
    <path class="cls-2" d="m16,23c1.6,0,3.11-.62,4.24-1.76,1.13-1.13,1.76-2.64,1.76-4.24s-.62-3.11-1.76-4.24c-1.13-1.13-2.64-1.76-4.24-1.76s-3.11.62-4.24,1.76c-1.13,1.13-1.76,2.64-1.76,4.24s.62,3.11,1.76,4.24c1.13,1.13,2.64,1.76,4.24,1.76Zm2.83-3.17c-.51.51-1.15.83-1.83,1v-3.12l2.96-1.07c.01.12.04.24.04.37,0,1.07-.42,2.07-1.17,2.83Zm.47-5.09l-2.3.83v-2.43c.68.18,1.32.52,1.83,1.03.18.18.33.37.47.57Zm-6.13-.57c.51-.51,1.14-.85,1.83-1.03v7.68c-.68-.17-1.32-.49-1.83-1-.76-.76-1.17-1.76-1.17-2.83s.42-2.07,1.17-2.83Z"/>
  </g>
  <path class="cls-1" d="m11.83,7.67h8.33c.46,0,.83-.37.83-.83v-3.33c0-1.38-1.12-2.5-2.5-2.5h-5c-1.38,0-2.5,1.12-2.5,2.5v3.33c0,.46.37.83.83.83Z"/>
</svg>