<?xml version="1.0" encoding="UTF-8"?>
<svg id="OBJECT" xmlns="http://www.w3.org/2000/svg" viewBox="0 0 32 32">
  <defs>
    <style>
      .cls-1 {
        fill: #FD4360;
      }

      .cls-1, .cls-2 {
        stroke-width: 0px;
      }

      .cls-2 {
        fill: #dadada;
      }
    </style>
  </defs>
  <g>
    <path class="cls-2" d="m15.64,22.82h-7.27c-.55,0-1,.45-1,1s.45,1,1,1h7.27c.55,0,1-.45,1-1s-.45-1-1-1Z"/>
    <path class="cls-2" d="m16.36,19.18H5.64c-.55,0-1,.45-1,1s.45,1,1,1h10.73c.55,0,1-.45,1-1s-.45-1-1-1Z"/>
    <path class="cls-2" d="m16.36,15.55H5.64c-.55,0-1,.45-1,1s.45,1,1,1h10.73c.55,0,1-.45,1-1s-.45-1-1-1Z"/>
    <path class="cls-2" d="m7.99,10.53h-2.36c-.55,0-1,.45-1,1s.45,1,1,1h.77v.18c0,.55.45,1,1,1s1-.45,1-1v-.22c1.01-.19,1.77-1.08,1.77-2.14,0-1.2-.98-2.18-2.18-2.18h-1.18c-.1,0-.18-.08-.18-.18s.08-.18.18-.18h2.36c.55,0,1-.45,1-1s-.45-1-1-1h-.77v-.18c0-.55-.45-1-1-1s-1,.45-1,1v.22c-1,.19-1.77,1.08-1.77,2.14,0,1.2.98,2.18,2.18,2.18h1.18c.1,0,.18.08.18.18s-.08.18-.18.18Z"/>
    <path class="cls-2" d="m22.71,8.9L15.1,1.29c-.19-.19-.44-.29-.71-.29H2c-.55,0-1,.45-1,1v25.45c0,.55.45,1,1,1h13.6c.55,0,1-.45,1-1s-.45-1-1-1H3V3h10.39v6.61c0,.55.45,1,1,1h6.61v5.47c0,.55.45,1,1,1s1-.45,1-1v-6.47c0-.27-.11-.52-.29-.71Zm-7.32-4.49l4.19,4.2h-4.19v-4.2Z"/>
  </g>
  <g>
    <path class="cls-1" d="m22.03,24.26c-.24-.37-.38-.81-.38-1.28,0-1.3,1.05-2.35,2.35-2.35s2.35,1.05,2.35,2.35c0,.47-.14.91-.38,1.28,1.38.48,2.53,1.45,3.24,2.7.5-.87.79-1.88.79-2.96,0-3.31-2.69-6-6-6s-6,2.69-6,6c0,1.08.29,2.09.79,2.96.71-1.25,1.86-2.22,3.24-2.7Z"/>
    <path class="cls-1" d="m24.94,22.98c0-.52-.42-.94-.94-.94s-.94.42-.94.94.42.94.94.94.94-.42.94-.94Z"/>
    <path class="cls-1" d="m24,25.33c-1.93,0-3.58,1.2-4.26,2.89,1.09,1.1,2.59,1.78,4.26,1.78s3.17-.68,4.26-1.78c-.68-1.69-2.33-2.89-4.26-2.89Z"/>
  </g>
</svg>