<?xml version="1.0" encoding="UTF-8"?>
<svg id="OBJECT" xmlns="http://www.w3.org/2000/svg" viewBox="0 0 512 512">
  <defs>
    <style>
      .cls-1 {
        fill: #FD4360;
      }

      .cls-2 {
        fill: #dadada;
      }
    </style>
  </defs>
  <g>
    <path class="cls-2" d="M66,477H446c4.14,0,7.5-3.36,7.5-7.5v-70c0-4.14-3.36-7.5-7.5-7.5H66c-4.14,0-7.5,3.36-7.5,7.5v70c0,4.14,3.36,7.5,7.5,7.5Zm7.5-70H438.5v55H73.5v-55Z"/>
    <path class="cls-2" d="M504.5,40h-200c-4.14,0-7.5,3.36-7.5,7.5V227.5c0,4.14,3.36,7.5,7.5,7.5h200c4.14,0,7.5-3.36,7.5-7.5V47.5c0-4.14-3.36-7.5-7.5-7.5Zm-7.5,180h-185V55h185V220Z"/>
    <path class="cls-2" d="M334.5,85h10c4.14,0,7.5-3.36,7.5-7.5s-3.36-7.5-7.5-7.5h-10c-4.14,0-7.5,3.36-7.5,7.5s3.36,7.5,7.5,7.5Z"/>
    <path class="cls-2" d="M374.5,85h10c4.14,0,7.5-3.36,7.5-7.5s-3.36-7.5-7.5-7.5h-10c-4.14,0-7.5,3.36-7.5,7.5s3.36,7.5,7.5,7.5Z"/>
    <path class="cls-2" d="M331.25,192.5h112.5v5c0,4.14,3.36,7.5,7.5,7.5s7.5-3.36,7.5-7.5v-5h22.5c4.14,0,7.5-3.36,7.5-7.5s-3.36-7.5-7.5-7.5h-22.5v-5c0-4.14-3.36-7.5-7.5-7.5s-7.5,3.36-7.5,7.5v5h-112.5c-4.14,0-7.5,3.36-7.5,7.5s3.36,7.5,7.5,7.5Z"/>
    <path class="cls-2" d="M352,422c-4.14,0-7.5,3.36-7.5,7.5v10c0,4.14,3.36,7.5,7.5,7.5s7.5-3.36,7.5-7.5v-10c0-4.14-3.36-7.5-7.5-7.5Z"/>
    <path class="cls-2" d="M288,422c-4.14,0-7.5,3.36-7.5,7.5v10c0,4.14,3.36,7.5,7.5,7.5s7.5-3.36,7.5-7.5v-10c0-4.14-3.36-7.5-7.5-7.5Z"/>
    <path class="cls-2" d="M224,422c-4.14,0-7.5,3.36-7.5,7.5v10c0,4.14,3.36,7.5,7.5,7.5s7.5-3.36,7.5-7.5v-10c0-4.14-3.36-7.5-7.5-7.5Z"/>
    <path class="cls-2" d="M160,422c-4.14,0-7.5,3.36-7.5,7.5v10c0,4.14,3.36,7.5,7.5,7.5s7.5-3.36,7.5-7.5v-10c0-4.14-3.36-7.5-7.5-7.5Z"/>
    <path class="cls-2" d="M96,422c-4.14,0-7.5,3.36-7.5,7.5v10c0,4.14,3.36,7.5,7.5,7.5s7.5-3.36,7.5-7.5v-10c0-4.14-3.36-7.5-7.5-7.5Z"/>
    <path class="cls-2" d="M416,422c-4.14,0-7.5,3.36-7.5,7.5v10c0,4.14,3.36,7.5,7.5,7.5s7.5-3.36,7.5-7.5v-10c0-4.14-3.36-7.5-7.5-7.5Z"/>
    <path class="cls-2" d="M504.5,317H7.5c-4.14,0-7.5,3.36-7.5,7.5v40c0,4.14,3.36,7.5,7.5,7.5H23.5v132.5c0,4.14,3.36,7.5,7.5,7.5H481c4.14,0,7.5-3.36,7.5-7.5v-132.5h16c4.14,0,7.5-3.36,7.5-7.5v-40c0-4.14-3.36-7.5-7.5-7.5Zm-31,180H38.5v-125H473.5v125Zm23.5-140H15v-25H497v25Z"/>
  </g>
  <g>
    <path class="cls-1" d="M210.04,116.71v-31.28c-1.04,.04-2.06,.06-3.06,.06-23.53,0-38.3-10.98-45.98-19.06-8.01,8.42-23.72,19.99-49.04,18.99v31.29c0,27.04,22,49.04,49.04,49.04s49.04-22,49.04-49.04Zm-29.89,14.76c-5.11,5.12-11.92,7.93-19.15,7.93s-14.03-2.82-19.15-7.93c-2.93-2.93-2.93-7.68,0-10.61,2.93-2.93,7.68-2.93,10.61,0,2.28,2.28,5.32,3.54,8.54,3.54s6.26-1.26,8.54-3.54c2.93-2.93,7.68-2.93,10.61,0,2.93,2.93,2.93,7.68,0,10.61Z"/>
    <path class="cls-1" d="M54.29,178.14c1.32,.79,20.43,11.96,47.34,14.65l12.34-5.96v-26.7c-10.88-11.78-17.01-27.25-17.01-43.41v-34.96c-1.35-1.61-2.02-3.78-1.65-6.02,.67-4.09,4.53-6.86,8.62-6.19,35.51,5.83,49.98-17.96,50.58-18.98,1.34-2.34,3.81-3.76,6.5-3.76s5.16,1.46,6.5,3.8c.57,.97,15.04,24.76,50.56,18.93,4.08-.67,7.94,2.1,8.62,6.19,.37,2.24-.3,4.4-1.65,6.02v34.96c0,16.17-6.13,31.63-17.01,43.42v26.7l12.33,5.96c26.91-2.69,46.03-13.86,47.35-14.65,2.09-1.25,3.45-3.45,3.63-5.88,.18-2.43-.83-4.8-2.72-6.35-3.67-3.01-12.35-16.27-13.78-74.21-.61-24.66-10.64-47.73-28.26-64.96C208.95,9.5,185.66,0,161,0s-47.95,9.5-65.58,26.74c-17.61,17.23-27.65,40.3-28.26,64.96-1.43,57.94-10.11,71.19-13.78,74.21-1.89,1.55-2.9,3.92-2.72,6.35,.18,2.43,1.53,4.63,3.63,5.88Z"/>
    <path class="cls-1" d="M193.03,172.13c-9.43,5.47-20.36,8.62-32.03,8.62s-22.6-3.15-32.03-8.62v13.78l32.03,24.11,32.03-24.11v-13.78Z"/>
    <path class="cls-1" d="M133.43,227.44c.86,.75,1.53,.3,1.81,.11l12.79-8.52-8.72-6.57-6.25,13.2c-.15,.31-.49,1.03,.37,1.78Z"/>
    <path class="cls-1" d="M173.97,219.03l12.79,8.52c.28,.19,.95,.63,1.81-.11s.52-1.47,.37-1.78l-6.25-13.2-8.72,6.57Z"/>
    <path class="cls-1" d="M268.62,232.78l-68.76-33.24-4.94,3.72,7.57,15.98c3.22,6.78,1.56,14.64-4.12,19.55-3.11,2.69-6.93,4.06-10.77,4.06-3.17,0-6.35-.93-9.17-2.81l-17.44-11.62-17.44,11.62c-2.82,1.88-6.01,2.81-9.17,2.81-3.84,0-7.65-1.37-10.77-4.06-5.68-4.91-7.34-12.77-4.12-19.55l7.57-15.98-4.94-3.72-68.76,33.24c-12.07,5.84-19.88,18.27-19.88,31.68v37.53h255v-37.53c0-13.41-7.8-25.85-19.88-31.68Zm-100.12,32.57c0,4.14-3.36,7.5-7.5,7.5s-7.5-3.36-7.5-7.5v-5c0-4.14,3.36-7.5,7.5-7.5s7.5,3.36,7.5,7.5v5Z"/>
  </g>
</svg>