<?xml version="1.0" encoding="UTF-8"?>
<svg id="OBJECT" xmlns="http://www.w3.org/2000/svg" viewBox="0 0 32 32">
  <defs>
    <style>
      .cls-1 {
        fill: #FD4360;
      }

      .cls-1, .cls-2 {
        stroke-width: 0px;
      }

      .cls-2 {
        fill: #dadada;
      }
    </style>
  </defs>
  <g>
    <path class="cls-2" d="m11,6h10c.55,0,1-.45,1-1s-.45-1-1-1h-10c-.55,0-1,.45-1,1s.45,1,1,1Z"/>
    <path class="cls-2" d="m11,16.17c.55,0,1-.45,1-1v-1.75l6.59,6.59h-1.75c-.55,0-1,.45-1,1s.45,1,1,1h4.17c.55,0,1-.45,1-1v-4.17c0-.55-.45-1-1-1s-1,.45-1,1v1.75l-6.59-6.59h1.75c.55,0,1-.45,1-1s-.45-1-1-1h-4.17c-.55,0-1,.45-1,1v4.17c0,.55.45,1,1,1Z"/>
    <path class="cls-2" d="m28.5,23h-.5v-12c0-.55-.45-1-1-1s-1,.45-1,1v12h-.5c-1.38,0-2.5,1.12-2.5,2.5v.5h-14v-.5c0-1.38-1.12-2.5-2.5-2.5h-.5v-12c0-.55-.45-1-1-1s-1,.45-1,1v12h-.5c-1.38,0-2.5,1.12-2.5,2.5v3c0,1.38,1.12,2.5,2.5,2.5h3c1.38,0,2.5-1.12,2.5-2.5v-.5h14v.5c0,1.38,1.12,2.5,2.5,2.5h3c1.38,0,2.5-1.12,2.5-2.5v-3c0-1.38-1.12-2.5-2.5-2.5Zm-21.5,5.5c0,.28-.22.5-.5.5h-3c-.28,0-.5-.22-.5-.5v-3c0-.28.22-.5.5-.5h3c.28,0,.5.22.5.5v3Zm22,0c0,.28-.22.5-.5.5h-3c-.28,0-.5-.22-.5-.5v-3c0-.28.22-.5.5-.5h3c.28,0,.5.22.5.5v3Z"/>
  </g>
  <g>
    <rect class="cls-1" x="1" y="1" width="8" height="8" rx="2.5" ry="2.5"/>
    <rect class="cls-1" x="23" y="1" width="8" height="8" rx="2.5" ry="2.5"/>
  </g>
</svg>