<?xml version="1.0" encoding="UTF-8"?>
<svg id="OBJECT" xmlns="http://www.w3.org/2000/svg" viewBox="0 0 32 32">
  <defs>
    <style>
      .cls-1 {
        fill: #FD4360;
      }

      .cls-1, .cls-2 {
        stroke-width: 0px;
      }

      .cls-2 {
        fill: #dadada;
      }
    </style>
  </defs>
  <g>
    <path class="cls-2" d="m13.41,5.61c-.39.39-.38,1.03,0,1.41.39.39,1.03.39,1.41,0,.62-.63,1.71-.63,2.33,0,.2.2.45.3.71.3s.51-.1.7-.29c.39-.39.4-1.02,0-1.41-1.38-1.39-3.79-1.39-5.17,0Z"/>
    <path class="cls-2" d="m20.46,2.86c-1.19-1.2-2.77-1.86-4.46-1.86s-3.27.66-4.46,1.86c-.39.39-.39,1.03,0,1.41.39.39,1.03.39,1.41,0,.81-.82,1.89-1.27,3.04-1.27s2.23.45,3.04,1.27c.2.2.45.3.71.3s.51-.1.7-.29c.39-.39.39-1.02,0-1.41Z"/>
    <path class="cls-2" d="m16.21,7.67h-.42c-.55,0-1,.45-1,1s.45,1,1,1h.42c.55,0,1-.45,1-1s-.45-1-1-1Z"/>
    <path class="cls-2" d="m16.39,12.31l-7.54-3.23c-.27-.12-.58-.11-.84.02l-6.46,3.23c-.49.25-.69.85-.45,1.34.17.35.53.54.89.54v14.78c-.55,0-1,.45-1,1s.45,1,1,1h14c.55,0,1-.45,1-1V13.23c0-.4-.24-.76-.61-.92Zm-7.9-1.21l6.51,2.79v1.82l-6.14-2.63c-.27-.12-.58-.11-.84.02l-4.01,2.01v-1.76l4.49-2.25Zm2.51,17.9h-3v-6.5c0-.28.22-.5.5-.5h2c.28,0,.5.22.5.5v6.5Zm2,0v-6.5c0-1.38-1.12-2.5-2.5-2.5h-2c-1.38,0-2.5,1.12-2.5,2.5v6.5h-2v-11.65l4.49-2.25,6.51,2.79v11.11h-2Z"/>
  </g>
  <g>
    <path class="cls-1" d="m25.5,22h-2c-.28,0-.5.22-.5.5v8.5h3v-8.5c0-.28-.22-.5-.5-.5Z"/>
    <path class="cls-1" d="m23.98,13.11l6.01,3.01v-1.88c.37,0,.72-.2.89-.55.25-.49.05-1.09-.45-1.34l-6.46-3.23c-.26-.13-.57-.14-.84-.02l-2.93,1.26c-.74.32-1.21,1.04-1.21,1.84v2.68l4.15-1.78c.27-.12.58-.11.84.02Z"/>
    <path class="cls-1" d="m30,29v-10.65l-6.49-3.25-4.51,1.93v13.97h2v-8.5c0-1.38,1.12-2.5,2.5-2.5h2c1.38,0,2.5,1.12,2.5,2.5v8.5h2c.55,0,1-.45,1-1s-.45-1-1-1Z"/>
  </g>
</svg>