<?xml version="1.0" encoding="UTF-8"?>
<svg id="OBJECT" xmlns="http://www.w3.org/2000/svg" viewBox="0 0 32 32">
  <defs>
    <style>
      .cls-1 {
        fill: #FD4360;
      }

      .cls-1, .cls-2 {
        stroke-width: 0px;
      }

      .cls-2 {
        fill: #dadada;
      }
    </style>
  </defs>
  <path class="cls-2" d="m30,25h-.5v-13c0-1.65-1.35-3-3-3h-.5c-.55,0-1,.45-1,1s.45,1,1,1h.5c.55,0,1,.45,1,1v13H4.5v-13c0-.55.45-1,1-1h.5c.55,0,1-.45,1-1s-.45-1-1-1h-.5c-1.65,0-3,1.35-3,3v13h-.5c-.55,0-1,.45-1,1v2c0,1.65,1.35,3,3,3h24c1.65,0,3-1.35,3-3v-2c0-.55-.45-1-1-1Zm-1,3c0,.55-.45,1-1,1H4c-.55,0-1-.45-1-1v-1h26v1Z"/>
  <path class="cls-1" d="m11.08,21.16h9.84c1.42,0,2.58-1.16,2.58-2.58V3.58c0-1.42-1.16-2.58-2.58-2.58h-9.84c-1.42,0-2.58,1.16-2.58,2.58v15c0,1.42,1.16,2.58,2.58,2.58Zm5.36-2.83h-.88c-.55,0-1-.45-1-1s.45-1,1-1h.88c.55,0,1,.45,1,1s-.45,1-1,1Zm0-2.62h-.88c-.55,0-1-.45-1-1s.45-1,1-1h.88c.55,0,1,.45,1,1s-.45,1-1,1Zm3.5,2.62h-.88c-.55,0-1-.45-1-1s.45-1,1-1h.88c.55,0,1,.45,1,1s-.45,1-1,1Zm0-2.62h-.88c-.55,0-1-.45-1-1s.45-1,1-1h.88c.55,0,1,.45,1,1s-.45,1-1,1ZM14.25,3.33h3.5c.55,0,1,.45,1,1s-.45,1-1,1h-3.5c-.55,0-1-.45-1-1s.45-1,1-1Zm-2.19,6.88h7.88c.55,0,1,.45,1,1s-.45,1-1,1h-7.88c-.55,0-1-.45-1-1s.45-1,1-1Zm0,3.5h.88c.55,0,1,.45,1,1s-.45,1-1,1h-.88c-.55,0-1-.45-1-1s.45-1,1-1Zm0,2.62h.88c.55,0,1,.45,1,1s-.45,1-1,1h-.88c-.55,0-1-.45-1-1s.45-1,1-1Z"/>
</svg>