<?xml version="1.0" encoding="UTF-8"?>
<svg id="OBJECT" xmlns="http://www.w3.org/2000/svg" viewBox="0 0 512 512">
  <defs>
    <style>
      .cls-1 {
        fill: #FD4360;
      }

      .cls-2 {
        fill: #dadada;
      }
    </style>
  </defs>
  <g>
    <path class="cls-2" d="M416,40h-17.5V22.5c0-12.41-10.09-22.5-22.5-22.5H161c-1.99,0-3.9,.79-5.3,2.2L75.7,82.2c-1.41,1.41-2.2,3.31-2.2,5.3V449.5c0,12.41,10.09,22.5,22.5,22.5h17.5v17.5c0,12.41,10.09,22.5,22.5,22.5H416c12.41,0,22.5-10.09,22.5-22.5V62.5c0-12.41-10.09-22.5-22.5-22.5ZM153.5,25.61v46.89c0,4.14-3.36,7.5-7.5,7.5h-46.89l54.39-54.39ZM88.5,449.5V95h57.5c12.41,0,22.5-10.09,22.5-22.5V15h207.5c4.14,0,7.5,3.36,7.5,7.5V449.5c0,4.14-3.36,7.5-7.5,7.5H96c-4.14,0-7.5-3.36-7.5-7.5Zm335,40c0,4.14-3.36,7.5-7.5,7.5H136c-4.14,0-7.5-3.36-7.5-7.5v-17.5h247.5c12.41,0,22.5-10.09,22.5-22.5V55h17.5c4.14,0,7.5,3.36,7.5,7.5V489.5Z"/>
    <path class="cls-2" d="M156,375h-25c-9.65,0-17.5,7.85-17.5,17.5v25c0,9.65,7.85,17.5,17.5,17.5h25c9.65,0,17.5-7.85,17.5-17.5v-25c0-9.65-7.85-17.5-17.5-17.5Zm2.5,42.5c0,1.38-1.12,2.5-2.5,2.5h-25c-1.38,0-2.5-1.12-2.5-2.5v-25c0-1.38,1.12-2.5,2.5-2.5h25c1.38,0,2.5,1.12,2.5,2.5v25Z"/>
    <path class="cls-2" d="M351,380h-105c-4.14,0-7.5,3.36-7.5,7.5s3.36,7.5,7.5,7.5h105c4.14,0,7.5-3.36,7.5-7.5s-3.36-7.5-7.5-7.5Z"/>
    <path class="cls-2" d="M206,395h10c4.14,0,7.5-3.36,7.5-7.5s-3.36-7.5-7.5-7.5h-10c-4.14,0-7.5,3.36-7.5,7.5s3.36,7.5,7.5,7.5Z"/>
    <path class="cls-2" d="M351,415H206c-4.14,0-7.5,3.36-7.5,7.5s3.36,7.5,7.5,7.5h145c4.14,0,7.5-3.36,7.5-7.5s-3.36-7.5-7.5-7.5Z"/>
  </g>
  <g>
    <circle class="cls-1" cx="236" cy="147.5" r="22.5"/>
    <path class="cls-1" d="M236,80c-48.25,0-87.5,39.25-87.5,87.5,0,14.39,3.5,27.99,9.68,39.98,9.51-18.5,25.45-33.33,45.35-41.26-3.19-5.51-5.03-11.91-5.03-18.72,0-20.68,16.82-37.5,37.5-37.5s37.5,16.82,37.5,37.5c0,6.82-1.84,13.21-5.03,18.72,19.9,7.92,35.84,22.76,45.35,41.26,6.18-11.99,9.68-25.58,9.68-39.98,0-48.25-39.25-87.5-87.5-87.5Z"/>
    <path class="cls-1" d="M257.45,178.23c-6.08,4.26-13.48,6.77-21.45,6.77s-15.36-2.51-21.45-6.77c-21.96,6.77-38.93,23.38-46.59,44.22,16.05,19.84,40.59,32.55,68.04,32.55s51.99-12.71,68.04-32.55c-7.66-20.83-24.64-37.44-46.59-44.22Z"/>
  </g>
  <g>
    <rect class="cls-1" x="113.5" y="285" width="60" height="60" rx="17.5" ry="17.5"/>
    <path class="cls-1" d="M246,305h105c4.14,0,7.5-3.36,7.5-7.5s-3.36-7.5-7.5-7.5h-105c-4.14,0-7.5,3.36-7.5,7.5s3.36,7.5,7.5,7.5Z"/>
    <path class="cls-1" d="M206,305h10c4.14,0,7.5-3.36,7.5-7.5s-3.36-7.5-7.5-7.5h-10c-4.14,0-7.5,3.36-7.5,7.5s3.36,7.5,7.5,7.5Z"/>
    <path class="cls-1" d="M351,325H206c-4.14,0-7.5,3.36-7.5,7.5s3.36,7.5,7.5,7.5h145c4.14,0,7.5-3.36,7.5-7.5s-3.36-7.5-7.5-7.5Z"/>
  </g>
</svg>