<?xml version="1.0" encoding="UTF-8"?>
<svg id="OBJECT" xmlns="http://www.w3.org/2000/svg" viewBox="0 0 32 32">
  <defs>
    <style>
      .cls-1 {
        fill: #FD4360;
      }

      .cls-1, .cls-2 {
        stroke-width: 0px;
      }

      .cls-2 {
        fill: #dadada;
      }
    </style>
  </defs>
  <g>
    <path class="cls-2" d="m30,4h-2.5v-2c0-.55-.45-1-1-1H5.5c-.55,0-1,.45-1,1v2h-2.5c-.55,0-1,.45-1,1v22c0,.55.45,1,1,1h2.5v2c0,.55.45,1,1,1h21c.55,0,1-.45,1-1v-2h2.5c.55,0,1-.45,1-1V5c0-.55-.45-1-1-1ZM3,26V6h1.5v20h-1.5Zm22.5,3H6.5V3h19v26Zm3.5-3h-1.5V6h1.5v20Z"/>
    <path class="cls-2" d="m13,23.5h10c.55,0,1-.45,1-1s-.45-1-1-1h-10c-.55,0-1,.45-1,1s.45,1,1,1Z"/>
    <path class="cls-2" d="m9,23.5h.5c.55,0,1-.45,1-1s-.45-1-1-1h-.5c-.55,0-1,.45-1,1s.45,1,1,1Z"/>
    <path class="cls-2" d="m9,27.5h10c.55,0,1-.45,1-1s-.45-1-1-1h-10c-.55,0-1,.45-1,1s.45,1,1,1Z"/>
    <path class="cls-2" d="m23,25.5h-.5c-.55,0-1,.45-1,1s.45,1,1,1h.5c.55,0,1-.45,1-1s-.45-1-1-1Z"/>
  </g>
  <g>
    <path class="cls-1" d="m19.06,16.06c0-.87-.37-1.68-1.01-2.25-.54.5-1.26.81-2.05.81s-1.51-.31-2.05-.81c-.64.57-1.01,1.38-1.01,2.25v2.78c.94.42,1.97.66,3.06.66s2.13-.24,3.06-.66v-2.78Z"/>
    <path class="cls-1" d="m16,4.5c-4.14,0-7.5,3.36-7.5,7.5,0,2.18.94,4.15,2.44,5.52v-1.46c0-1.62.78-3.11,2.07-4.06-.02-.14-.04-.27-.04-.41v-1.22c0-1.45,1.18-2.62,2.62-2.62h.81c1.45,0,2.62,1.18,2.62,2.62v1.22c0,.14-.02.28-.04.41,1.29.94,2.07,2.43,2.07,4.06v1.46c1.49-1.37,2.44-3.33,2.44-5.52,0-4.14-3.36-7.5-7.5-7.5Z"/>
    <path class="cls-1" d="m17.03,11.59v-1.22c0-.34-.28-.62-.62-.62h-.81c-.34,0-.62.28-.62.62v1.22c0,.57.46,1.03,1.03,1.03s1.03-.46,1.03-1.03Z"/>
  </g>
</svg>