<?xml version="1.0" encoding="UTF-8"?>
<svg id="OBJECT" xmlns="http://www.w3.org/2000/svg" viewBox="0 0 32 32">
  <defs>
    <style>
      .cls-1 {
        fill: #FD4360;
      }

      .cls-1, .cls-2 {
        stroke-width: 0px;
      }

      .cls-2 {
        fill: #dadada;
      }
    </style>
  </defs>
  <g>
    <path class="cls-2" d="m24,8c-.55,0-1,.45-1,1v20h-4V9c0-.55-.45-1-1-1s-1,.45-1,1v20h-8V9c0-.55-.45-1-1-1s-1,.45-1,1v21c0,.55.45,1,1,1h16c.55,0,1-.45,1-1V9c0-.55-.45-1-1-1Z"/>
    <path class="cls-2" d="m14.5,18.5c.55,0,1-.45,1-1v-7c0-.55-.45-1-1-1s-1,.45-1,1v7c0,.55.45,1,1,1Z"/>
    <path class="cls-2" d="m11.5,18.5c.55,0,1-.45,1-1v-7c0-.55-.45-1-1-1s-1,.45-1,1v7c0,.55.45,1,1,1Z"/>
    <path class="cls-2" d="m11.25,27.5h3.5c.55,0,1-.45,1-1v-5c0-.55-.45-1-1-1h-3.5c-.55,0-1,.45-1,1v5c0,.55.45,1,1,1Zm1-5h1.5v3h-1.5v-3Z"/>
  </g>
  <path class="cls-1" d="m28,1H4c-1.65,0-3,1.35-3,3v6c0,1.65,1.35,3,3,3h1v-5h-1c-.55,0-1-.45-1-1s.45-1,1-1h24c.55,0,1,.45,1,1s-.45,1-1,1h-1v5h1c1.65,0,3-1.35,3-3v-6c0-1.65-1.35-3-3-3Z"/>
</svg>