<?xml version="1.0" encoding="UTF-8"?>
<svg id="OBJECT" xmlns="http://www.w3.org/2000/svg" viewBox="0 0 32 32">
  <defs>
    <style>
      .cls-1 {
        fill: #FD4360;
      }

      .cls-1, .cls-2 {
        stroke-width: 0px;
      }

      .cls-2 {
        fill: #dadada;
      }
    </style>
  </defs>
  <g>
    <path class="cls-2" d="m28,1H4c-1.65,0-3,1.35-3,3v6c0,1.65,1.35,3,3,3h2c.55,0,1-.45,1-1s-.45-1-1-1h-2c-.55,0-1-.45-1-1v-6c0-.55.45-1,1-1h24c.55,0,1,.45,1,1v6c0,.55-.45,1-1,1h-2c-.55,0-1,.45-1,1s.45,1,1,1h2c1.65,0,3-1.35,3-3v-6c0-1.65-1.35-3-3-3Z"/>
    <path class="cls-2" d="m27,7c0-.55-.45-1-1-1H6c-.55,0-1,.45-1,1s.45,1,1,1h20c.55,0,1-.45,1-1Z"/>
  </g>
  <path class="cls-1" d="m9,29c0,1.1.9,2,2,2h10c1.1,0,2-.9,2-2V10h-14v19Zm8-1c0,.55-.45,1-1,1s-1-.45-1-1v-1c0-.55.45-1,1-1s1,.45,1,1v1Zm-2-15c0-.55.45-1,1-1s1,.45,1,1v1c0,.55-.45,1-1,1s-1-.45-1-1v-1Zm-3.5,6.5h.5v-1.25c0-.55.45-1,1-1s1,.45,1,1v3c0,.28.22.5.5.5s.5-.22.5-.5v-1.5c0-1.38,1.12-2.5,2.5-2.5,1.29,0,2.35.99,2.47,2.25h.53c.55,0,1,.45,1,1s-.45,1-1,1h-.5v1.25c0,.55-.45,1-1,1s-1-.45-1-1v-3c0-.28-.22-.5-.5-.5s-.5.22-.5.5v1.5c0,1.38-1.12,2.5-2.5,2.5-1.29,0-2.35-.99-2.47-2.25h-.53c-.55,0-1-.45-1-1s.45-1,1-1Z"/>
</svg>