<?xml version="1.0" encoding="UTF-8"?>
<svg id="OBJECT" xmlns="http://www.w3.org/2000/svg" viewBox="0 0 32 32">
  <defs>
    <style>
      .cls-1 {
        fill: #FD4360;
      }

      .cls-1, .cls-2 {
        stroke-width: 0px;
      }

      .cls-2 {
        fill: #dadada;
      }
    </style>
  </defs>
  <path class="cls-1" d="m23.5,16c-4.14,0-7.5,3.36-7.5,7.5s3.36,7.5,7.5,7.5,7.5-3.36,7.5-7.5-3.36-7.5-7.5-7.5Zm1.2,11.7h-3.4c-.53,0-.96-.43-.96-.96s.43-.96.96-.96h3.4c.87,0,1.59-.71,1.59-1.59s-.71-1.59-1.59-1.59h-2.2l.76.76c.38.38.38.99,0,1.36-.19.19-.43.28-.68.28s-.49-.09-.68-.28l-2.4-2.4c-.38-.38-.38-.99,0-1.36l2.4-2.4c.38-.38.99-.38,1.36,0,.38.38.38.99,0,1.36l-.76.76h2.2c1.94,0,3.51,1.58,3.51,3.51s-1.58,3.51-3.51,3.51Z"/>
  <g>
    <path class="cls-2" d="m7.5,19.18c-.55,0-1,.45-1,1s.45,1,1,1h5.5c.55,0,1-.45,1-1s-.45-1-1-1h-5.5Z"/>
    <path class="cls-2" d="m25.3,1H3.7c-1.49,0-2.7,1.21-2.7,2.7v3.98c0,.55.45,1,1,1h.7v14.91c0,.55.45,1,1,1h9.3c.55,0,1-.45,1-1s-.45-1-1-1H4.7v-13.91h5.6v2.52c0,.32.16.63.42.82s.61.23.91.13l2.86-1.02,2.86,1.02c.11.04.22.06.33.06.2,0,.41-.06.58-.18.27-.19.42-.49.42-.82v-2.52h5.6v4.49c0,.55.45,1,1,1s1-.45,1-1v-4.49h.7c.55,0,1-.45,1-1v-3.98c0-1.49-1.21-2.7-2.7-2.7ZM3.71,6.68s0,0,0,0,0,0,0,0h-.69v-2.98c0-.39.32-.7.7-.7h6.6v3.68H3.71Zm12.99,3.11l-1.86-.66c-.11-.04-.22-.06-.33-.06s-.23.02-.33.06l-1.86.66V3h4.39v6.79Zm2-6.79h6.6c.39,0,.7.32.7.7v2.98h-.69s0,0,0,0,0,0,0,0h-6.6v-3.68Z"/>
  </g>
</svg>