<?xml version="1.0" encoding="UTF-8" standalone="no"?>
<svg
   id="OBJECT"
   viewBox="0 0 32 32"
   version="1.1"
   sodipodi:docname="contract.svg"
   xml:space="preserve"
   inkscape:version="1.2.2 (732a01da63, 2022-12-09)"
   xmlns:inkscape="http://www.inkscape.org/namespaces/inkscape"
   xmlns:sodipodi="http://sodipodi.sourceforge.net/DTD/sodipodi-0.dtd"
   xmlns="http://www.w3.org/2000/svg"
   xmlns:svg="http://www.w3.org/2000/svg"><sodipodi:namedview
     id="namedview29"
     pagecolor="#505050"
     bordercolor="#ffffff"
     borderopacity="1"
     inkscape:showpageshadow="0"
     inkscape:pageopacity="0"
     inkscape:pagecheckerboard="1"
     inkscape:deskcolor="#505050"
     showgrid="false"
     inkscape:zoom="4.5796213"
     inkscape:cx="-38.431126"
     inkscape:cy="33.845594"
     inkscape:window-width="1920"
     inkscape:window-height="1009"
     inkscape:window-x="-8"
     inkscape:window-y="-8"
     inkscape:window-maximized="1"
     inkscape:current-layer="OBJECT" /><defs
     id="defs4"><style
       id="style2">
      .cls-1 {
        fill: #FD4360;
      }

      .cls-1, .cls-2 {
        stroke-width: 0px;
      }

      .cls-2 {
        fill: #dadada;
      }
    </style></defs><path
     class="cls-2"
     d="m 16.345597,24.098914 c 0,-0.55 -0.45,-1 -1,-1 H 5.3455972 c -0.55,0 -1,0.45 -1,1 0,0.55 0.45,1 1,1 h 9.9999998 c 0.55,0 1,-0.45 1,-1 z"
     id="path10" /><path
     class="cls-2"
     d="m 16.489144,27.278649 c 0,-0.55 -0.497374,-1 -1.105275,-1 H 5.4363965 c -0.6079011,0 -1.1052747,0.45 -1.1052747,1 0,0.55 0.4973736,1 1.1052747,1 h 9.9474725 c 0.607901,0 1.105275,-0.45 1.105275,-1 z"
     id="path12" /><path
     class="cls-2"
     d="M 5.5,15 H 6 C 6.55,15 7,14.55 7,14 7,13.45 6.55,13 6,13 H 5.5 c -0.55,0 -1,0.45 -1,1 0,0.55 0.45,1 1,1 z"
     id="path14" /><path
     class="cls-2"
     d="m 18.5,7.4559711 h -6 c -0.55,0 -1,0.45 -1,1 0,0.55 0.45,1 1,1 h 6 c 0.55,0 1,-0.45 1,-1 0,-0.55 -0.45,-1 -1,-1 z"
     id="path16" /><path
     class="cls-2"
     d="m 22,8.58 c 0.55,0 1,-0.45 1,-1 V 2 C 23,1.45 22.55,1 22,1 H 8 C 7.73,1 7.48,1.11 7.29,1.29 l -6,6 C 1.1,7.48 1,7.73 1,8 v 22 c 0,0.55 0.45,1 1,1 h 20 c 0.55,0 1,-0.45 1,-1 v -3.94 c 0,-0.55 -0.45,-1 -1,-1 -0.55,0 -1,0.45 -1,1 V 29 H 3 V 9 H 8 C 8.55,9 9,8.55 9,8 V 3 h 12 v 4.58 c 0,0.55 0.45,1 1,1 z M 4.41,7 7,4.41 V 7 Z"
     id="path18" /><g
     id="g26"><path
       class="cls-1"
       d="m18.52,20.31c-.08.16-.11.34-.09.51l.23,2.5-.56,1.21c-.23.5-.02,1.1.48,1.33.14.06.28.09.42.09.38,0,.74-.21.91-.58l.56-1.21,2.07-1.43c.15-.1.26-.24.34-.4l6.13-13.15-4.36-2.03-6.13,13.15Z"
       id="path22" /><path
       class="cls-1"
       d="m30.86,3.59c-.21-.59-.64-1.05-1.2-1.31l-.13-.06c-1.16-.54-2.55-.04-3.1,1.13l-.93,2,4.36,2.03.93-2c.26-.56.29-1.2.08-1.78Z"
       id="path24" /></g><g
     id="g399"
     transform="matrix(0.26122833,0,0,0.26122833,21.24346,11.680825)"><path
       style="fill:#fd4360;stroke-width:0.0375577"
       d="m -49.556689,29.860548 c -0.537292,-0.750608 -1.054429,-1.463003 -1.149193,-1.5831 -0.44746,-0.567078 -1.414959,-2.860257 -1.945491,-4.611231 -0.780254,-2.575156 -0.963681,-6.523872 -0.412325,-8.876336 0.500116,-2.133844 1.346862,-4.416765 2.105509,-5.676687 0.344584,-0.5722661 0.626516,-1.1372692 0.626516,-1.2555624 0,-0.1182929 0.09164,-0.2150782 0.203644,-0.2150782 0.112004,0 0.263115,-0.1873753 0.335801,-0.4163897 0.157563,-0.496436 2.919181,-3.3659709 4.155266,-4.3176424 1.194743,-0.9198416 3.639058,-2.202797 5.349788,-2.80796015 l 1.419331,-0.50208213 0.06043,-3.18379882 c 0.03324,-1.7510894 0.14235,-3.1837989 0.242477,-3.1837989 0.100128,0 0.544041,0.2456535 0.986474,0.5458967 0.442433,0.3002431 0.851448,0.5458966 0.908922,0.5458966 0.201867,0 3.698215,2.0750472 3.77017,2.2375576 0.04003,0.090413 0.187425,0.1653213 0.327538,0.1664622 0.140114,0.00114 0.872836,0.3941867 1.62827,0.8734347 0.755435,0.4792481 1.460813,0.8713602 1.567505,0.8713602 0.10669,0 0.328313,0.1228268 0.492493,0.2729484 0.164179,0.1501215 0.637939,0.45414996 1.052801,0.67561871 1.48238,0.7913519 2.06605,1.12770723 2.173623,1.25260533 0.06005,0.0697206 0.580061,0.35942406 1.15558,0.64378536 1.329075,0.6566866 1.660399,1.0255164 1.107187,1.2325172 -0.335525,0.1255477 -2.109189,1.1340084 -3.572919,2.0314747 -0.180146,0.1104541 -0.671453,0.3921746 -1.091794,0.6260457 -0.42034,0.2338711 -2.975137,1.7017767 -5.677325,3.2620125 l -4.91307,2.8367918 -0.10918,-2.2620322 -0.109179,-2.2620327 -0.963527,0.4852543 c -1.064946,0.5363312 -4.604619,3.7984126 -4.604619,4.2435116 0,0.154758 -0.07386,0.281378 -0.164144,0.281378 -0.165784,0 -0.82366,1.21461 -1.41925,2.620304 -0.178097,0.420341 -0.443621,1.501216 -0.590053,2.401945 -0.225397,1.386456 -0.211562,1.950461 0.09018,3.676505 0.196032,1.121349 0.439284,2.202224 0.540559,2.401946 0.101275,0.199721 0.366988,0.756176 0.590473,1.236565 0.223485,0.480389 0.691256,1.250051 1.039492,1.71036 l 0.633155,0.836927 -2.266944,2.274684 c -1.246819,1.251077 -2.341268,2.274686 -2.43211,2.274686 -0.09084,0 -0.604768,-0.614134 -1.14206,-1.364742 z"
       id="path393" /><path
       style="fill:#fd4360;stroke-width:0.0375577"
       d="m -28.576138,41.753182 c -0.05836,-0.09443 -0.530899,-0.39291 -1.05009,-0.663302 -0.519192,-0.270389 -1.091378,-0.58338 -1.271524,-0.695531 -0.855707,-0.532734 -3.202211,-1.899089 -3.493738,-2.034384 -0.180146,-0.0836 -0.622322,-0.340738 -0.982614,-0.57141 -0.360292,-0.230672 -1.048122,-0.638182 -1.528511,-0.905575 -1.776559,-0.98887 -1.978686,-1.105059 -2.620304,-1.506207 -0.360292,-0.225261 -1.016348,-0.607463 -1.457902,-0.849339 -1.483557,-0.812664 -1.812139,-1.007745 -2.314888,-1.374363 l -0.50051,-0.364984 0.464865,-0.147543 c 0.255675,-0.08115 0.873253,-0.41793 1.372394,-0.748407 0.499142,-0.330475 1.447968,-0.881204 2.108503,-1.223839 0.660535,-0.342637 1.348365,-0.737932 1.528511,-0.878435 0.28102,-0.21918 0.963421,-0.608149 3.384559,-1.929203 0.240195,-0.131059 0.58411,-0.34852 0.764255,-0.483245 0.282911,-0.211583 1.328726,-0.80741 3.493739,-1.99047 0.300243,-0.164067 0.938942,-0.534608 1.419331,-0.823426 0.48039,-0.288818 0.947131,-0.529386 1.037204,-0.534595 0.09007,-0.0052 0.163769,0.973143 0.163769,2.174116 0,1.200973 0.05401,2.183587 0.120023,2.183587 0.513522,0 2.515075,-1.379464 4.110011,-2.832608 0.769144,-0.700766 1.999084,-2.380709 2.696768,-3.683453 1.177307,-2.198306 1.499026,-6.007911 0.717811,-8.499884 -0.543469,-1.73359 -1.470598,-3.6344177 -2.10831,-4.3225211 l -0.4937,-0.5327113 2.267628,-2.2924968 c 1.247195,-1.2608732 2.353671,-2.2924968 2.458835,-2.2924968 0.310038,0 2.132962,2.6131089 2.894241,4.1488147 0.386975,0.7806323 0.78305,1.5767887 0.880167,1.7692365 0.289546,0.5737658 0.834888,3.0189978 1.105301,4.9559888 0.412189,2.952565 -0.222075,6.890636 -1.582317,9.824418 -0.696631,1.502505 -2.010179,3.664192 -2.562703,4.217408 -0.192542,0.192782 -0.804171,0.831481 -1.359178,1.419331 -0.555004,0.587848 -1.264951,1.287126 -1.577663,1.553952 -1.376581,1.174591 -4.01715,2.593953 -6.147582,3.304457 l -1.310152,0.43694 -0.06043,3.181931 c -0.05335,2.809564 -0.201782,3.599243 -0.565801,3.010249 z"
       id="path395" /></g></svg>
