<?xml version="1.0" encoding="UTF-8"?>
<svg id="OBJECT" xmlns="http://www.w3.org/2000/svg" viewBox="0 0 32 32">
  <defs>
    <style>
      .cls-1 {
        fill: #FD4360;
      }

      .cls-1, .cls-2 {
        stroke-width: 0px;
      }

      .cls-2 {
        fill: #dadada;
      }
    </style>
  </defs>
  <g>
    <path class="cls-2" d="m30,19h-.5v-.5c0-6.23-4.25-11.48-10-13.02v-2.48h3.5c.55,0,1-.45,1-1s-.45-1-1-1h-14c-.55,0-1,.45-1,1s.45,1,1,1h3.5v2.48c-5.75,1.55-10,6.79-10,13.02v.5h-.5c-.55,0-1,.45-1,1s.45,1,1,1h28c.55,0,1-.45,1-1s-.45-1-1-1ZM14.5,3h3v2.09c-.49-.05-.99-.09-1.5-.09s-1.01.03-1.5.09v-2.09Zm-10,15.5c0-6.34,5.16-11.5,11.5-11.5s11.5,5.16,11.5,11.5v.5H4.5v-.5Z"/>
    <path class="cls-2" d="m13.68,8.77c-2.95.71-5.48,2.78-6.76,5.54-.23.5-.01,1.1.49,1.33.14.06.28.09.42.09.38,0,.74-.21.91-.58,1.02-2.21,3.05-3.87,5.41-4.44.54-.13.87-.67.74-1.21-.13-.54-.67-.87-1.2-.74Z"/>
  </g>
  <g>
    <path class="cls-1" d="m2,27v2c0,1.1.9,2,2,2h24c1.1,0,2-.9,2-2v-2H2Z"/>
    <rect class="cls-1" x="12" y="23" width="8" height="2"/>
  </g>
</svg>