<?xml version="1.0" encoding="UTF-8"?>
<svg id="OBJECT" xmlns="http://www.w3.org/2000/svg" viewBox="0 0 512 512">
  <defs>
    <style>
      .cls-1 {
        fill: #FD4360;
      }

      .cls-2 {
        fill: #dadada;
      }
    </style>
  </defs>
  <g>
    <path class="cls-2" d="M300.01,367.29l28.53-55.21c2.84-5.49,2.55-12.16-.75-17.38l-41.54-65.73c-2.68-4.24-6.94-7.06-11.77-7.89V79.46c0-15.16-12.34-27.5-27.5-27.5h-6.49c-4.5,0-8.75,1.09-12.5,3.01V27.5c0-15.16-12.34-27.5-27.5-27.5h-6.49c-15.16,0-27.5,12.34-27.5,27.5v27.47c-3.75-1.92-8-3.01-12.5-3.01h-6.49c-15.16,0-27.5,12.34-27.5,27.5v14.48c-3.75-1.92-8-3.01-12.5-3.01h-6.49c-15.16,0-27.5,12.34-27.5,27.5v215.81c0,5.91,1.85,11.55,5.36,16.31l36.99,50.2c.94,1.28,1.46,2.86,1.46,4.45v31.65h-4.07c-9.65,0-17.5,7.85-17.5,17.5v40.15c0,9.65,7.85,17.5,17.5,17.5h34.98s0,0,.01,0c0,0,.01,0,.02,0h154.99c9.65,0,17.5-7.85,17.5-17.5v-40.15c0-9.65-7.85-17.5-17.5-17.5h-4.07v-66.11c0-1.19,.29-2.38,.84-3.44Zm-40.54-146.47h-31.49v-39.43h31.49v39.43Zm-46.49-75.41h-31.49v-55h31.49v55Zm-46.49,20.98h-31.49v-45h31.49v45Zm-46.49,9.48h-31.49v-25h31.49v25Zm0,15v29.95h-31.49v-29.95h31.49Zm15-9.48h31.49v39.43h-31.49v-39.43Zm46.49-20.98h31.49v60.41h-31.49v-60.41Zm77.98,5.98h-31.49v-45h31.49v45Zm-18.99-99.43h6.49c6.89,0,12.5,5.61,12.5,12.5v26.93h-31.49v-26.93c0-6.89,5.61-12.5,12.5-12.5ZM193.98,15h6.49c6.89,0,12.5,5.61,12.5,12.5v47.91h-31.49V27.5c0-6.89,5.61-12.5,12.5-12.5Zm-46.49,51.96h6.49c6.89,0,12.5,5.61,12.5,12.5v26.93h-31.49v-26.93c0-6.89,5.61-12.5,12.5-12.5Zm-46.49,38.97h6.49c6.89,0,12.5,5.61,12.5,12.5v17.45h-31.49v-17.45c0-6.89,5.61-12.5,12.5-12.5Zm26.92,285.93l-36.99-50.2c-1.59-2.16-2.44-4.73-2.44-7.41v-11.61l78.26-10.94c15.87-2.21,31.65,2.82,43.3,13.81,11.65,11,17.59,26.46,16.29,42.43l-5.6,68.92h-88.45v-31.65c0-4.84-1.52-9.45-4.39-13.35Zm177.82,62.5v40.15c0,1.38-1.12,2.5-2.5,2.5H162.87l8.54-11.88c1.4-1.96,3.68-3.12,6.09-3.12h59.96c4.14,0,7.5-3.36,7.5-7.5s-3.36-7.5-7.5-7.5h-59.96c-7.22,0-14.05,3.5-18.27,9.37l-14.83,20.63h-31.15c-1.38,0-2.5-1.12-2.5-2.5v-40.15c0-1.38,1.12-2.5,2.5-2.5h190c1.38,0,2.5,1.12,2.5,2.5Zm-69.93-17.5l5.5-67.7c1.67-20.53-5.97-40.41-20.95-54.55-14.98-14.14-35.27-20.62-55.67-17.76l-76.18,10.65v-71.66h182.94c.86,0,1.65,.44,2.11,1.16l41.54,65.73c.47,.75,.51,1.7,.11,2.48l-28.53,55.21c-1.64,3.18-2.51,6.75-2.51,10.33v66.11h-48.36Z"/>
    <path class="cls-2" d="M201.24,406.85h-10c-4.14,0-7.5,3.36-7.5,7.5s3.36,7.5,7.5,7.5h10c4.14,0,7.5-3.36,7.5-7.5s-3.36-7.5-7.5-7.5Z"/>
    <path class="cls-2" d="M151.24,421.85h10c4.14,0,7.5-3.36,7.5-7.5s-3.36-7.5-7.5-7.5h-10c-4.14,0-7.5,3.36-7.5,7.5s3.36,7.5,7.5,7.5Z"/>
    <path class="cls-2" d="M174.17,341.17c6.17,0,12.15,2.66,16.43,7.29,4.29,4.65,6.37,10.71,5.85,17.04-.33,4.13,2.74,7.75,6.87,8.08,.21,.02,.41,.02,.62,.02,3.87,0,7.15-2.97,7.47-6.89,.86-10.56-2.62-20.66-9.78-28.42-7.1-7.71-17.11-12.12-27.46-12.12-4.14,0-7.5,3.36-7.5,7.5s3.36,7.5,7.5,7.5Z"/>
    <path class="cls-2" d="M268.24,467h-5.74c-4.14,0-7.5,3.36-7.5,7.5s3.36,7.5,7.5,7.5h5.74c4.14,0,7.5-3.36,7.5-7.5s-3.36-7.5-7.5-7.5Z"/>
  </g>
  <g>
    <path class="cls-1" d="M289.81,210.44l53.84,85.18,15.41-14.73-29.65-27.34c-3.04-2.81-3.24-7.55-.43-10.6,2.81-3.04,7.55-3.24,10.6-.43l30.35,27.98,19.19-18.34c1.3-1.24,2.45-2.59,3.46-4.01l-81.69-52.15-21.09,14.43Z"/>
    <circle class="cls-1" cx="301" cy="27.5" r="27.5"/>
    <path class="cls-1" d="M308.5,69.32c-2.44,.44-4.94,.68-7.5,.68s-5.06-.24-7.5-.68v46.68c0,4.14,3.36,7.5,7.5,7.5s7.5-3.36,7.5-7.5v-46.68Z"/>
    <path class="cls-1" d="M301,133.5c-4.14,0-7.5,3.36-7.5,7.5v5c0,4.14,3.36,7.5,7.5,7.5s7.5-3.36,7.5-7.5v-5c0-4.14-3.36-7.5-7.5-7.5Z"/>
    <path class="cls-1" d="M411,0c-15.16,0-27.5,12.34-27.5,27.5,0,.42,.01,.83,.03,1.25l-21.23,7.08c-11.25,3.75-18.8,14.23-18.8,26.09v14.09c0,4.14,3.36,7.5,7.5,7.5s7.5-3.36,7.5-7.5v-14.09c0-5.39,3.43-10.15,8.55-11.86l21.24-7.08c4.96,7.25,13.29,12.02,22.72,12.02,15.16,0,27.5-12.34,27.5-27.5S426.16,0,411,0Z"/>
    <path class="cls-1" d="M385.26,106.61c-.38-3.84-3.61-6.76-7.46-6.76h-29.74c-14.64,0-26.71,11.46-27.46,26.08l-.72,13.92h16.47c4.14,0,7.5,3.36,7.5,7.5s-3.36,7.5-7.5,7.5h-17.24l-1.43,27.69,79.92,51.03c.06-1.32,.03-2.65-.1-3.99l-12.23-122.96Z"/>
  </g>
</svg>