<?xml version="1.0" encoding="UTF-8"?>
<svg id="OBJECT" xmlns="http://www.w3.org/2000/svg" viewBox="0 0 32 32">
  <defs>
    <style>
      .cls-1 {
        fill: #FD4360;
      }

      .cls-1, .cls-2 {
        stroke-width: 0px;
      }

      .cls-2 {
        fill: #dadada;
      }
    </style>
  </defs>
  <g>
    <path class="cls-2" d="m9,14c-.55,0-1,.45-1,1v.5c0,.55.45,1,1,1s1-.45,1-1v-.5c0-.55-.45-1-1-1Z"/>
    <path class="cls-2" d="m8.5,7.5h1c.55,0,1-.45,1-1s-.45-1-1-1h-1c-.55,0-1,.45-1,1s.45,1,1,1Z"/>
    <path class="cls-2" d="m5.5,26h-.5c-.55,0-1,.45-1,1s.45,1,1,1h.5c.55,0,1-.45,1-1s-.45-1-1-1Z"/>
    <path class="cls-2" d="m12.5,28h.5c.55,0,1-.45,1-1s-.45-1-1-1h-.5c-.55,0-1,.45-1,1s.45,1,1,1Z"/>
    <path class="cls-2" d="m21.27,6.56l-7.06-1.82c-.73-2.17-2.79-3.75-5.21-3.75-3.03,0-5.5,2.47-5.5,5.5,0,1.46.57,2.78,1.5,3.76v12.74h-1.5c-1.38,0-2.5,1.12-2.5,2.5v3c0,1.38,1.12,2.5,2.5,2.5h11c1.38,0,2.5-1.12,2.5-2.5v-3c0-1.38-1.12-2.5-2.5-2.5h-1.5v-12.37l6.77,1.74c.08.02.17.03.25.03.45,0,.85-.3.97-.75.14-.54-.19-1.08-.72-1.22l-6.29-1.62c.28-.6.45-1.25.5-1.94l6.29,1.62c.08.02.17.03.25.03.45,0,.85-.3.97-.75.14-.53-.18-1.08-.72-1.22Zm-12.27-3.56c1.93,0,3.5,1.57,3.5,3.5s-1.57,3.5-3.5,3.5-3.5-1.57-3.5-3.5,1.57-3.5,3.5-3.5Zm6,22.5v3c0,.28-.22.5-.5.5H3.5c-.28,0-.5-.22-.5-.5v-3c0-.28.22-.5.5-.5h11c.28,0,.5.22.5.5Zm-5-2.5v-4c0-.55-.45-1-1-1s-1,.45-1,1v4h-1v-11.38c.62.24,1.29.38,2,.38s1.38-.14,2-.38v11.38h-1Z"/>
  </g>
  <path class="cls-1" d="m28.5,19h-1v-3.62c2-.46,3.5-2.24,3.5-4.38,0-2.48-2.02-4.5-4.5-4.5s-4.5,2.02-4.5,4.5c0,2.14,1.5,3.92,3.5,4.38v3.62h-1c-1.38,0-2.5,1.12-2.5,2.5v2c0,.54.18,1.07.5,1.5l1.2,1.6c.33.44.96.53,1.4.2.44-.33.53-.96.2-1.4l-1.2-1.6c-.07-.09-.1-.19-.1-.3v-2c0-.28.22-.5.5-.5h4c.28,0,.5.22.5.5v2c0,.11-.03.21-.1.3l-1.2,1.6c-.33.44-.24,1.07.2,1.4.18.14.39.2.6.2.3,0,.6-.14.8-.4l1.2-1.6c.32-.43.5-.96.5-1.5v-2c0-1.38-1.12-2.5-2.5-2.5Zm-3-8.25c0-.55.45-1,1-1s1,.45,1,1v.5c0,.55-.45,1-1,1s-1-.45-1-1v-.5Z"/>
</svg>