<?xml version="1.0" encoding="UTF-8"?>
<svg id="OBJECT" xmlns="http://www.w3.org/2000/svg" viewBox="0 0 32 32">
  <defs>
    <style>
      .cls-1 {
        fill: #FD4360;
      }

      .cls-1, .cls-2 {
        stroke-width: 0px;
      }

      .cls-2 {
        fill: #dadada;
      }
    </style>
  </defs>
  <g>
    <path class="cls-2" d="m28,15.5c-.55,0-1,.45-1,1v9c0,.55-.45,1-1,1h-.5c0-1.38-1.12-2.5-2.5-2.5h-1.5c-.16,0-.31.04-.45.11l-1,.5c-.49.25-.69.85-.45,1.34s.85.69,1.34.45l.79-.39h1.26c.28,0,.5.22.5.5v2c0,.28-.22.5-.5.5h-1.26l-.79-.39c-.5-.25-1.1-.05-1.34.45-.25.49-.05,1.09.45,1.34l1,.5c.14.07.29.11.45.11h1.5c1.38,0,2.5-1.12,2.5-2.5h.5c1.65,0,3-1.35,3-3v-9c0-.55-.45-1-1-1Z"/>
    <path class="cls-2" d="m28,7.5h-4v-2.5c0-2.21-1.79-4-4-4h-8c-2.21,0-4,1.79-4,4v2.5h-4c-1.65,0-3,1.35-3,3v1c0,1.65,1.35,3,3,3h4v3.76c0,1.43.77,2.76,2.02,3.47l5.49,3.14c.15.09.32.13.5.13s.34-.04.5-.13l5.49-3.14c1.24-.71,2.02-2.04,2.02-3.47v-3.76h4c1.65,0,3-1.35,3-3v-1c0-1.65-1.35-3-3-3ZM4,12.5c-.55,0-1-.45-1-1v-1c0-.55.45-1,1-1h4v3h-4Zm18,5.76c0,.72-.39,1.38-1.01,1.74,0,0,0,0,0,0l-4.99,2.85-4.99-2.85c-.62-.35-1.01-1.02-1.01-1.74V5c0-1.1.9-2,2-2h8c1.1,0,2,.9,2,2v13.26Zm7-6.76c0,.55-.45,1-1,1h-4v-3h4c.55,0,1,.45,1,1v1Z"/>
    <path class="cls-2" d="m8.5,26.5c0-.28.22-.5.5-.5h1.26l.79.39c.5.25,1.1.05,1.34-.45s.05-1.09-.45-1.34l-1-.5c-.14-.07-.29-.11-.45-.11h-1.5c-1.38,0-2.5,1.12-2.5,2.5h-.5c-.55,0-1-.45-1-1v-9c0-.55-.45-1-1-1s-1,.45-1,1v9c0,1.65,1.35,3,3,3h.5c0,1.38,1.12,2.5,2.5,2.5h1.5c.16,0,.31-.04.45-.11l1-.5c.49-.25.69-.85.45-1.34-.25-.49-.85-.69-1.34-.45l-.79.39h-1.26c-.28,0-.5-.22-.5-.5v-2Z"/>
  </g>
  <g>
    <path class="cls-1" d="m19,17.1l-2.51,1.43c-.31.18-.69.18-.99,0l-2.51-1.43c-.48-.27-1.09-.11-1.36.37s-.11,1.09.37,1.36l2.51,1.43c.46.26.97.39,1.49.39s1.03-.13,1.49-.39l2.51-1.43c.48-.27.65-.88.37-1.36s-.88-.65-1.36-.37Z"/>
    <path class="cls-1" d="m18,15.5c.55,0,1-.45,1-1s-.45-1-1-1h-4c-.55,0-1,.45-1,1s.45,1,1,1h4Z"/>
    <rect class="cls-1" x="11.5" y="4.5" width="9" height="7" rx="1.5" ry="1.5"/>
  </g>
</svg>