<?xml version="1.0" encoding="UTF-8"?>
<svg id="OBJECT" xmlns="http://www.w3.org/2000/svg" viewBox="0 0 32 32">
  <defs>
    <style>
      .cls-1 {
        fill: #FD4360;
      }

      .cls-1, .cls-2 {
        stroke-width: 0px;
      }

      .cls-2 {
        fill: #dadada;
      }
    </style>
  </defs>
  <g>
    <path class="cls-2" d="m28,22h-2v-2h3.5c.55,0,1-.45,1-1s-.45-1-1-1h-.5V4c0-1.65-1.35-3-3-3h-2c-1.51,0-2.75,1.12-2.96,2.57l-10.51,8.03c-.44.34-.52.96-.19,1.4.2.26.5.39.8.39.21,0,.42-.07.61-.21l9.25-7.07v4.14l-7.06,7.01c-.39.39-.39,1.02,0,1.41.2.2.45.3.71.3s.51-.1.7-.29l5.66-5.61v4.92h-.5c-.55,0-1,.45-1,1s.45,1,1,1h3.5v2h-2c-1.65,0-3,1.35-3,3v3c0,.55.45,1,1,1h2.5c.55,0,1-.45,1-1s-.45-1-1-1h-1.5v-2c0-.55.45-1,1-1h6c.55,0,1,.45,1,1v2h-1.5c-.55,0-1,.45-1,1s.45,1,1,1h2.5c.55,0,1-.45,1-1v-3c0-1.65-1.35-3-3-3Zm-5-18c0-.55.45-1,1-1h2c.55,0,1,.45,1,1v10h-4V4Zm0,12h4v2h-4v-2Z"/>
    <path class="cls-2" d="m24.75,6h.5c.55,0,1-.45,1-1s-.45-1-1-1h-.5c-.55,0-1,.45-1,1s.45,1,1,1Z"/>
  </g>
  <g>
    <path class="cls-1" d="m14,29h-1v-2H3v2h-1c-.55,0-1,.45-1,1s.45,1,1,1h12c.55,0,1-.45,1-1s-.45-1-1-1Z"/>
    <path class="cls-1" d="m13,19c0-2.21-1.79-4-4-4h-2c-2.21,0-4,1.79-4,4v6h10v-6Zm-4.5,2h-1c-.55,0-1-.45-1-1s.45-1,1-1h1c.55,0,1,.45,1,1s-.45,1-1,1Z"/>
  </g>
</svg>