<?xml version="1.0" encoding="UTF-8"?>
<svg id="OBJECT" xmlns="http://www.w3.org/2000/svg" viewBox="0 0 512 512">
  <defs>
    <style>
      .cls-1 {
        fill: #FD4360;
      }

      .cls-2 {
        fill: #dadada;
      }
    </style>
  </defs>
  <g>
    <path class="cls-2" d="M416,49.96h-22.96c-1.51-2.05-3.07-4.07-4.73-6.02-16.39-19.26-39.17-32.08-64.14-36.12l-28.79-4.65c-26.13-4.22-52.62-4.22-78.75,0h0l-28.79,4.65c-24.97,4.03-47.74,16.86-64.14,36.12-1.66,1.95-3.22,3.97-4.73,6.02h-22.96c-26.19,0-47.5,21.31-47.5,47.5v40c0,26.19,21.31,47.5,47.5,47.5h7.34c2.1,10.2,4.84,20.29,8.22,30.21l8.46,24.79h-14.96c-2.69,0-5.18,1.44-6.51,3.78-13.65,23.88-13.65,53.56,0,77.44,1.34,2.34,3.82,3.78,6.51,3.78h43.97l6.12,17.92c14.73,43.15,55.25,72.13,100.84,72.13s86.12-28.99,100.84-72.13l6.12-17.92h43.97c2.69,0,5.18-1.44,6.51-3.78,13.65-23.88,13.65-53.56,0-77.44-1.33-2.34-3.82-3.78-6.51-3.78h-14.96l8.46-24.79c3.39-9.92,6.13-20,8.22-30.21h7.34c26.19,0,47.5-21.31,47.5-47.5v-40c0-26.19-21.31-47.5-47.5-47.5ZM96,169.96c-17.92,0-32.5-14.58-32.5-32.5v-40c0-17.92,14.58-32.5,32.5-32.5h13.76c-7.48,14.8-11.48,31.26-11.48,48.05v22.07c0,11.71,.83,23.35,2.46,34.87h-4.74Zm13.59,140c-8.37-17.3-8.37-37.7,0-55h15.56l18.77,55h-34.33Zm183.91,82.01c-9.35,4.2-19.47,6.87-30,7.73v-72.24c0-4.14-3.36-7.5-7.5-7.5s-7.5,3.36-7.5,7.5v72.24c-10.53-.86-20.65-3.53-30-7.73v-124.51c0-6.89,5.61-12.5,12.5-12.5h50c6.89,0,12.5,5.61,12.5,12.5v124.51Zm108.91-137.01c8.37,17.3,8.37,37.7,0,55h-34.33l18.77-55h15.56Zm-3.68-119.87c0,25.65-4.2,50.96-12.49,75.23l-43.59,127.71c-6.43,18.84-18.6,34.54-34.15,45.42v-115.99c0-15.16-12.34-27.5-27.5-27.5h-50c-15.16,0-27.5,12.34-27.5,27.5v115.99c-15.55-10.88-27.72-26.58-34.15-45.42l-43.59-127.71c-8.29-24.27-12.49-49.58-12.49-75.23v-22.07c0-45.17,32.36-83.18,76.95-90.38l28.79-4.65h0c24.54-3.97,49.43-3.96,73.96,0l28.79,4.65c44.59,7.21,76.95,45.22,76.95,90.38v22.07Zm49.77,2.37c0,17.92-14.58,32.5-32.5,32.5h-4.74c1.64-11.52,2.46-23.16,2.46-34.87v-22.07c0-16.8-4-33.25-11.48-48.05h13.76c17.92,0,32.5,14.58,32.5,32.5v40Z"/>
    <path class="cls-2" d="M326,69.96H186c-20.68,0-37.5,16.82-37.5,37.5v60c0,20.68,16.82,37.5,37.5,37.5h140c20.68,0,37.5-16.82,37.5-37.5v-60c0-20.68-16.82-37.5-37.5-37.5Zm22.5,97.5c0,12.41-10.09,22.5-22.5,22.5H186c-12.41,0-22.5-10.09-22.5-22.5v-60c0-12.41,10.09-22.5,22.5-22.5h140c12.41,0,22.5,10.09,22.5,22.5v60Z"/>
    <path class="cls-2" d="M223.5,99.96h-15c-9.65,0-17.5,7.85-17.5,17.5v40c0,9.65,7.85,17.5,17.5,17.5h15c9.65,0,17.5-7.85,17.5-17.5v-40c0-9.65-7.85-17.5-17.5-17.5Zm2.5,57.5c0,1.38-1.12,2.5-2.5,2.5h-15c-1.38,0-2.5-1.12-2.5-2.5v-40c0-1.38,1.12-2.5,2.5-2.5h15c1.38,0,2.5,1.12,2.5,2.5v40Z"/>
    <path class="cls-2" d="M303.5,99.96h-15c-9.65,0-17.5,7.85-17.5,17.5v40c0,9.65,7.85,17.5,17.5,17.5h15c9.65,0,17.5-7.85,17.5-17.5v-40c0-9.65-7.85-17.5-17.5-17.5Zm2.5,57.5c0,1.38-1.12,2.5-2.5,2.5h-15c-1.38,0-2.5-1.12-2.5-2.5v-40c0-1.38,1.12-2.5,2.5-2.5h15c1.38,0,2.5,1.12,2.5,2.5v40Z"/>
    <path class="cls-2" d="M256,279.96c-4.14,0-7.5,3.36-7.5,7.5v10c0,4.14,3.36,7.5,7.5,7.5s7.5-3.36,7.5-7.5v-10c0-4.14-3.36-7.5-7.5-7.5Z"/>
  </g>
  <g>
    <path class="cls-1" d="M492,457.14v-25.14h-45v25.14c-11.23,1.25-20,10.8-20,22.36v25c0,4.14,3.36,7.5,7.5,7.5s7.5-3.36,7.5-7.5v-25c0-4.14,3.36-7.5,7.5-7.5h40c4.14,0,7.5,3.36,7.5,7.5v25c0,4.14,3.36,7.5,7.5,7.5s7.5-3.36,7.5-7.5v-25c0-11.56-8.77-21.11-20-22.36Z"/>
    <rect class="cls-1" x="447" y="352" width="45" height="25"/>
    <path class="cls-1" d="M439.5,304.95c4.14,0,7.5,3.36,7.5,7.5v24.55h45v-24.55c0-28.95-23.55-52.5-52.5-52.5h-3.58c3.65,14.76,3.65,30.24,0,45h3.58Z"/>
    <rect class="cls-1" x="447" y="392" width="45" height="25"/>
    <path class="cls-1" d="M65,457.14v-25.14H20v25.14c-11.23,1.25-20,10.8-20,22.36v25c0,4.14,3.36,7.5,7.5,7.5s7.5-3.36,7.5-7.5v-25c0-4.14,3.36-7.5,7.5-7.5H62.5c4.14,0,7.5,3.36,7.5,7.5v25c0,4.14,3.36,7.5,7.5,7.5s7.5-3.36,7.5-7.5v-25c0-11.56-8.77-21.11-20-22.36Z"/>
    <rect class="cls-1" x="20" y="352" width="45" height="25"/>
    <path class="cls-1" d="M65,312.45c0-4.14,3.36-7.5,7.5-7.5h3.58c-3.65-14.76-3.65-30.24,0-45h-3.58c-28.95,0-52.5,23.55-52.5,52.5v24.55h45v-24.55Z"/>
    <rect class="cls-1" x="20" y="392" width="45" height="25"/>
  </g>
</svg>