<?xml version="1.0" encoding="UTF-8"?>
<svg id="OBJECT" xmlns="http://www.w3.org/2000/svg" viewBox="0 0 32 32">
  <defs>
    <style>
      .cls-1 {
        fill: #FD4360;
      }

      .cls-2 {
        fill: #dadada;
      }
    </style>
  </defs>
  <g>
    <path class="cls-2" d="m8.08,20.79c-.27-.27-.66-.36-1.03-.24-1.29.43-2.48,1.18-3.46,2.15-1.98,1.98-2.91,4.73-2.5,7.37.07.43.4.77.83.83.41.06.83.1,1.24.1,2.23,0,4.46-.93,6.13-2.6.98-.98,1.72-2.17,2.15-3.46.12-.36.03-.76-.24-1.03l-3.13-3.13Zm-.2,6.2c-1.34,1.34-3.1,2.06-4.88,2.01-.05-1.76.67-3.54,2.01-4.88.61-.61,1.34-1.11,2.12-1.45l2.21,2.21c-.34.78-.84,1.5-1.45,2.12Z"/>
    <path class="cls-2" d="m30.93,1.98c-.04-.48-.42-.86-.91-.91-6.07-.55-12.64,2.07-17.56,7-2.2,2.2-3.94,4.7-5.16,7.43-.41.92-.2,2.03.53,2.76l5.91,5.91c.48.48,1.13.74,1.78.74.34,0,.67-.07.99-.21,2.73-1.22,5.23-2.96,7.43-5.16,4.93-4.93,7.54-11.49,7-17.56Zm-8.41,16.15c-2.03,2.03-4.33,3.62-6.84,4.75-.17.08-.38.03-.53-.12l-5.91-5.91c-.15-.15-.19-.36-.12-.53,1.12-2.51,2.72-4.81,4.75-6.84,4.12-4.12,9.46-6.48,14.54-6.48.19,0,.39,0,.58.01.19,5.25-2.19,10.84-6.47,15.12Z"/>
    <path class="cls-2" d="m13.28,15.1c-.39-.39-1.02-.39-1.41,0s-.39,1.02,0,1.41l.72.72c.2.2.45.29.71.29s.51-.1.71-.29c.39-.39.39-1.02,0-1.41l-.72-.72Z"/>
    <path class="cls-2" d="m16.18,18c-.39-.39-1.02-.39-1.41,0s-.39,1.02,0,1.41l.72.72c.2.2.45.29.71.29s.51-.1.71-.29c.39-.39.39-1.02,0-1.41l-.72-.72Z"/>
  </g>
  <g>
    <path class="cls-1" d="m27.71,21.84c-.39-.39-1.02-.39-1.41,0l-.48.48-.43-1.41s-.03.03-.04.05c-1.75,1.75-3.69,3.23-5.77,4.42l1.33,1.86-1.06,1.06c-.39.39-.39,1.02,0,1.41.2.2.45.29.71.29s.51-.1.71-.29l6.45-6.45c.39-.39.39-1.02,0-1.41Z"/>
    <path class="cls-1" d="m10.16,5.71c.39-.39.39-1.02,0-1.41s-1.02-.39-1.41,0l-6.45,6.45c-.39.39-.39,1.02,0,1.41.2.2.45.29.71.29s.51-.1.71-.29l1.06-1.06,1.86,1.33c1.19-2.08,2.67-4.02,4.42-5.77.01-.01.03-.03.05-.04l-1.41-.43.48-.48Z"/>
    <circle class="cls-1" cx="21.18" cy="10.82" r="5"/>
  </g>
</svg>