<?xml version="1.0" encoding="UTF-8"?>
<svg id="OBJECT" xmlns="http://www.w3.org/2000/svg" viewBox="0 0 32 32">
  <defs>
    <style>
      .cls-1 {
        fill: #FD4360;
      }

      .cls-1, .cls-2 {
        stroke-width: 0px;
      }

      .cls-2 {
        fill: #dadada;
      }
    </style>
  </defs>
  <path class="cls-2" d="m25.88,16.35c4.33-6.3,5.08-13.8,5.12-14.26.03-.3-.08-.59-.29-.8s-.5-.31-.8-.29c-.46.04-7.96.79-14.26,5.12l-3.79-.85c-1.07-.24-2.18.08-2.96.86L1.29,13.74c-.29.29-.37.72-.22,1.09.16.37.52.61.92.61h0l6.26-.06c-.03.29.07.59.29.8l.44.44-2.44,2.44c-.39.39-.39,1.02,0,1.41l4.95,4.95c.2.2.45.29.71.29s.51-.1.71-.29l2.44-2.44.44.44c.19.19.45.29.71.29.03,0,.07-.01.1-.02l-.06,6.27c0,.41.24.77.61.93.12.05.26.08.39.08.26,0,.52-.1.71-.29l7.6-7.6c.78-.78,1.1-1.89.86-2.96l-.85-3.79Zm2.95-13.18c-.17,1.04-.51,2.64-1.08,4.49l-3.4-3.4c1.84-.57,3.45-.91,4.49-1.08ZM10.31,7.55c.29-.29.71-.41,1.11-.32l2.17.48c-1.75,1.52-3.3,3.39-4.47,5.67l-4.69.04,5.87-5.87Zm1.9,15.77l-3.54-3.54,1.74-1.74,3.54,3.54-1.74,1.74Zm-1.77-8.07c2.38-5.5,7.42-8.57,11.8-10.26l4.78,4.78c-1.69,4.38-4.77,9.41-10.26,11.8l-6.31-6.31Zm14.01,6.44l-5.87,5.87.04-4.69c2.28-1.17,4.15-2.72,5.67-4.47l.48,2.17c.09.4-.03.82-.32,1.11Z"/>
  <g>
    <path class="cls-1" d="m6.91,22.78c-.26-.26-.66-.35-1.01-.21-4.33,1.67-4.88,7.17-4.9,7.41-.02.28.07.55.27.75.18.18.42.28.67.28.03,0,.06,0,.08,0,.23-.02,5.73-.57,7.41-4.9.13-.35.05-.74-.21-1.01l-2.31-2.31Z"/>
    <circle class="cls-1" cx="18.63" cy="13.37" r="4.5"/>
  </g>
</svg>