<?xml version="1.0" encoding="UTF-8"?>
<svg id="OBJECT" xmlns="http://www.w3.org/2000/svg" viewBox="0 0 32 32">
  <defs>
    <style>
      .cls-1 {
        fill: #FD4360;
      }

      .cls-1, .cls-2 {
        stroke-width: 0px;
      }

      .cls-2 {
        fill: #dadada;
      }
    </style>
  </defs>
  <path class="cls-1" d="m1,29.91c-.03.3.08.59.29.8.19.19.44.29.71.29.03,0,.06,0,.09,0,.22-.02,4.49-.46,7.84-3.9l-5.03-5.03c-3.44,3.35-3.88,7.62-3.9,7.84Z"/>
  <g>
    <path class="cls-2" d="m26.55,14.34c3.83-6.08,4.42-11.87,4.45-12.25.03-.3-.08-.59-.29-.8-.21-.21-.5-.32-.8-.29-.38.03-6.17.62-12.25,4.45l-5.35-.34c-1.43-.09-2.84.44-3.85,1.46l-4.74,4.74c-.28.28-.37.69-.23,1.06.14.37.48.62.87.65l5.01.36c-.5.72-.98,1.48-1.43,2.29-.22.39-.15.88.16,1.2l.76.76-1.37,1.37-.06-.06c-.39-.39-1.02-.39-1.41,0s-.39,1.02,0,1.41l6,6c.2.2.45.29.71.29s.51-.1.71-.29c.39-.39.39-1.02,0-1.41l-.06-.06,1.37-1.37.41.41c.19.19.45.29.71.29.17,0,.34-.04.49-.13.81-.45,1.57-.93,2.29-1.43l.36,5.01c.03.39.28.73.65.87.11.04.23.06.35.06.26,0,.52-.1.71-.29l4.74-4.74c1.02-1.02,1.55-2.42,1.45-3.85l-.34-5.35Zm-7.24,5.26l-6.91-6.91c3.32-3.97,7.3-6.33,10.65-7.73l3.98,3.98c-1.4,3.35-3.76,7.34-7.73,10.65Zm8.51-12.71l-2.7-2.71c1.52-.51,2.8-.81,3.69-.98-.17.88-.47,2.17-.98,3.69ZM6.68,11.18l3.19-3.19c.61-.61,1.44-.93,2.31-.87l2.88.18c-1.47,1.17-2.91,2.55-4.26,4.18l-4.13-.29Zm5.26,12.27l-3.04-3.04,1.37-1.37,3.04,3.04-1.37,1.37Zm4.06-1.5l-5.95-5.95c.36-.6.73-1.17,1.12-1.71l6.54,6.54c-.54.39-1.11.76-1.71,1.12Zm8.01.18l-3.19,3.19-.29-4.13c1.63-1.34,3.01-2.79,4.18-4.26l.18,2.88c.05.86-.26,1.7-.87,2.31Z"/>
    <path class="cls-2" d="m22.57,14.37h0c.66-.66,1.02-1.54,1.02-2.47s-.36-1.81-1.02-2.47c-1.32-1.32-3.63-1.32-4.95,0-.66.66-1.02,1.54-1.02,2.47s.36,1.81,1.02,2.47c.66.66,1.54,1.03,2.48,1.03s1.81-.36,2.47-1.03h0Zm-1.41-1.41h0c-.57.57-1.55.57-2.12,0-.28-.28-.44-.66-.44-1.06s.16-.78.44-1.06c.28-.28.66-.44,1.06-.44s.78.16,1.06.44.44.66.44,1.06-.16.78-.44,1.06Z"/>
  </g>
</svg>