<?xml version="1.0" encoding="UTF-8"?>
<svg id="OBJECT" xmlns="http://www.w3.org/2000/svg" viewBox="0 0 512 512">
  <defs>
    <style>
      .cls-1 {
        fill: #FD4360;
      }

      .cls-2 {
        fill: #dadada;
      }
    </style>
  </defs>
  <g>
    <path class="cls-2" d="M475.38,456.88c-2.78-.06-5.56,.18-8.28,.72-5.48-18.8-22.95-32.48-43.23-32.48-6.27,0-12.46,1.31-18.16,3.82-9.03-5.84-19.4-8.91-30.29-8.91-4.24,0-8.43,.47-12.52,1.41-2.18-3.38-5.16-6.71-8.89-9.94-17.22-14.89-41.3-19.05-62.85-11.28,.46-17.71,2.68-33.41,4.96-45.24h25.35c9.7,0,18.29-6.2,21.37-15.43,2.14-6.42,4.12-12.81,5.93-19.17l9.69,3.89,12.32,55.71c.6,2.71,2.64,4.87,5.32,5.61l32.91,9.13c.66,.18,1.33,.27,2,.27,1.62,0,3.22-.53,4.54-1.53,1.87-1.42,2.96-3.63,2.96-5.97v-106.15c0-10.87-6.42-20.74-16.36-25.14l-39.2-17.37c.94-16.31,.67-32.31-.84-47.94-3.62-37.59-14.3-73.15-31.74-105.7C300.62,29.69,261.9,2.47,260.27,1.33c-2.57-1.78-5.97-1.78-8.54,0-1.63,1.13-40.35,28.35-70.09,83.86-17.44,32.55-28.12,68.12-31.74,105.7-1.51,15.64-1.78,31.64-.84,47.94l-39.2,17.37c-9.94,4.4-16.36,14.27-16.36,25.14v106.15c0,2.34,1.09,4.55,2.96,5.97,1.32,1,2.92,1.53,4.54,1.53,.67,0,1.34-.09,2-.27l32.91-9.13c2.67-.74,4.72-2.9,5.32-5.61l12.32-55.71,9.69-3.89c1.81,6.36,3.78,12.75,5.93,19.17,3.08,9.23,11.67,15.43,21.37,15.43h25.35c2.27,11.82,4.5,27.53,4.96,45.24-21.54-7.78-45.63-3.61-62.85,11.28-3.73,3.23-6.71,6.55-8.89,9.94-4.09-.94-8.28-1.41-12.52-1.41-10.89,0-21.27,3.06-30.29,8.91-5.7-2.51-11.9-3.82-18.16-3.82-20.27,0-37.75,13.67-43.23,32.48-2.72-.54-5.5-.78-8.28-.72-20.19,.49-36.62,17.61-36.62,38.16v9.46c0,4.14,3.36,7.5,7.5,7.5H504.5c4.14,0,7.5-3.36,7.5-7.5v-9.46c0-20.55-16.43-37.66-36.62-38.16Zm-79.32-186.96c4.52,2,7.44,6.49,7.44,11.43v96.28l-19.06-5.29-12.2-55.18c-.54-2.42-2.23-4.42-4.53-5.34l-15.07-6.04c4.26-17.3,7.27-34.35,9.02-51.11l34.41,15.25ZM194.52,92.92c22.4-42.09,50.85-67.43,61.49-75.99,10.58,8.48,38.71,33.5,61.13,75.34,21.55,40.22,41.09,103.13,25.67,187.72H169.09c-12.75-68.53-4.27-131.27,25.42-187.08Zm-50.23,218.91c-2.3,.92-4,2.92-4.53,5.34l-12.2,55.18-19.06,5.29v-96.28c0-4.94,2.92-9.43,7.44-11.43l34.41-15.25c1.75,16.75,4.76,33.81,9.02,51.11l-15.07,6.04Zm39.1,22.99c-4.49-13.47-8.22-26.75-11.2-39.82h167.55c-2.88,12.81-6.56,26.08-11.14,39.82-1.03,3.1-3.9,5.18-7.14,5.18H190.53c-3.24,0-6.1-2.08-7.14-5.18Zm313.6,162.18H15v-1.96c0-12.48,9.86-22.87,21.98-23.16,3.67-.09,7.17,.67,10.44,2.27,2.24,1.09,4.87,1,7.03-.24,2.16-1.24,3.56-3.47,3.74-5.96,1.13-15.6,14.28-27.82,29.93-27.82,5.28,0,10.49,1.4,15.05,4.04,2.64,1.53,5.94,1.31,8.35-.56,7.23-5.6,15.9-8.56,25.05-8.56,4.76,0,9.43,.81,13.87,2.41,1.89,.69,3.99,.58,5.8-.3,1.82-.87,3.2-2.44,3.85-4.35,1.03-3.04,3.69-6.48,7.7-9.94,14.29-12.35,34.85-14.97,52.39-6.67,2.38,1.12,4.08,1.91,5.2,2.39,2.3,1,4.94,.79,7.04-.56,2.11-1.35,3.4-3.67,3.45-6.17,.43-22.11-2.03-42.03-4.73-56.85h49.72c-2.7,14.82-5.16,34.74-4.73,56.85,.05,2.5,1.34,4.82,3.45,6.17,2.11,1.35,4.75,1.56,7.04,.56,1.12-.49,2.82-1.27,5.2-2.4,17.54-8.3,38.1-5.67,52.39,6.67,4.01,3.47,6.68,6.91,7.71,9.94,.65,1.91,2.03,3.48,3.85,4.35,1.81,.87,3.91,.98,5.8,.3,4.44-1.6,9.1-2.41,13.87-2.41,9.16,0,17.82,2.96,25.05,8.56,2.41,1.87,5.71,2.09,8.35,.56,4.56-2.64,9.77-4.04,15.05-4.04,15.65,0,28.8,12.22,29.93,27.82,.18,2.48,1.58,4.71,3.74,5.96s4.79,1.33,7.03,.24c3.27-1.59,6.78-2.36,10.44-2.27,12.12,.29,21.98,10.68,21.98,23.16v1.96Z"/>
    <path class="cls-2" d="M295.42,434.02c-4.11,.32-7.17,3.89-6.88,8,.29,4.11,3.87,7.23,7.99,6.96,.39-.03,4.33-.23,9.48,1.1-9.55,10.4-9.55,23.79-9.54,24.5,.05,4.11,3.39,7.42,7.5,7.42h.08c4.14-.05,7.46-3.44,7.42-7.58,0-.12,0-10.73,8.6-16.81,3.44,3.15,6.62,7.42,8.97,13.24,1.18,2.92,3.99,4.69,6.96,4.69,.94,0,1.89-.18,2.81-.55,3.84-1.55,5.69-5.92,4.14-9.76-10.82-26.75-35.8-32.12-47.53-31.21Z"/>
    <path class="cls-2" d="M216.58,434.02c-11.7-.91-36.71,4.46-47.53,31.21-1.55,3.84,.3,8.21,4.14,9.76,.92,.37,1.87,.55,2.81,.55,2.97,0,5.78-1.77,6.96-4.69,2.35-5.82,5.53-10.1,8.97-13.24,8.39,5.94,8.59,16.27,8.6,16.85-.02,4.12,3.29,7.49,7.42,7.53h.08c4.1,0,7.45-3.3,7.5-7.42,0-.71,0-14.09-9.54-24.5,5.13-1.33,9.05-1.13,9.47-1.11,4.12,.31,7.7-2.79,8.02-6.9,.32-4.13-2.77-7.74-6.9-8.05Z"/>
    <path class="cls-2" d="M394.5,467h-5c-4.14,0-7.5,3.36-7.5,7.5s3.36,7.5,7.5,7.5h5c4.14,0,7.5-3.36,7.5-7.5s-3.36-7.5-7.5-7.5Z"/>
    <path class="cls-2" d="M424.5,467h-5c-4.14,0-7.5,3.36-7.5,7.5s3.36,7.5,7.5,7.5h5c4.14,0,7.5-3.36,7.5-7.5s-3.36-7.5-7.5-7.5Z"/>
    <path class="cls-2" d="M92.5,467h-5c-4.14,0-7.5,3.36-7.5,7.5s3.36,7.5,7.5,7.5h5c4.14,0,7.5-3.36,7.5-7.5s-3.36-7.5-7.5-7.5Z"/>
    <path class="cls-2" d="M122.5,467h-5c-4.14,0-7.5,3.36-7.5,7.5s3.36,7.5,7.5,7.5h5c4.14,0,7.5-3.36,7.5-7.5s-3.36-7.5-7.5-7.5Z"/>
    <path class="cls-2" d="M216,310h-10c-4.14,0-7.5,3.36-7.5,7.5s3.36,7.5,7.5,7.5h10c4.14,0,7.5-3.36,7.5-7.5s-3.36-7.5-7.5-7.5Z"/>
    <path class="cls-2" d="M266,310h-20c-4.14,0-7.5,3.36-7.5,7.5s3.36,7.5,7.5,7.5h20c4.14,0,7.5-3.36,7.5-7.5s-3.36-7.5-7.5-7.5Z"/>
    <path class="cls-2" d="M306,310h-10c-4.14,0-7.5,3.36-7.5,7.5s3.36,7.5,7.5,7.5h10c4.14,0,7.5-3.36,7.5-7.5s-3.36-7.5-7.5-7.5Z"/>
  </g>
  <g>
    <path class="cls-1" d="M229.27,247.5c0,4.14,3.36,7.5,7.5,7.5h38.46c4.14,0,7.5-3.36,7.5-7.5v-17.5h-53.46v17.5Z"/>
    <path class="cls-1" d="M312.67,149.08l-33.2-64.73c-4.54-8.85-13.53-14.34-23.48-14.34s-18.94,5.5-23.48,14.34l-33.2,64.73c-1.34,2.61-1.03,5.76,.79,8.07,1.82,2.3,4.81,3.34,7.66,2.64l21.49-5.24v30.45h53.46v-30.45l21.49,5.24c2.85,.69,5.85-.34,7.66-2.64,1.82-2.3,2.12-5.46,.79-8.07Z"/>
    <path class="cls-1" d="M291,200h-70c-4.14,0-7.5,3.36-7.5,7.5s3.36,7.5,7.5,7.5h70c4.14,0,7.5-3.36,7.5-7.5s-3.36-7.5-7.5-7.5Z"/>
  </g>
</svg>