<?xml version="1.0" encoding="UTF-8"?>
<svg id="OBJECT" xmlns="http://www.w3.org/2000/svg" viewBox="0 0 32 32">
  <defs>
    <style>
      .cls-1 {
        fill: #FD4360;
      }

      .cls-1, .cls-2 {
        stroke-width: 0px;
      }

      .cls-2 {
        fill: #dadada;
      }
    </style>
  </defs>
  <g>
    <path class="cls-2" d="m10.44,22.11c.03-.2.06-.4.06-.61v-1.5c0-1.65-1.35-3-3-3h-1c-1.65,0-3,1.35-3,3v1.5c0,.21.03.41.06.61-1.6,1.11-2.56,2.92-2.56,4.89v1c0,1.65,1.35,3,3,3h6c1.65,0,3-1.35,3-3v-1c0-1.97-.96-3.78-2.56-4.89Zm-4.94-2.11c0-.55.45-1,1-1h1c.55,0,1,.45,1,1v1.5c0,.83-.67,1.5-1.5,1.5s-1.5-.67-1.5-1.5v-1.5Zm5.5,8c0,.55-.45,1-1,1h-6c-.55,0-1-.45-1-1v-1c0-1.21.56-2.33,1.49-3.08.64.66,1.53,1.08,2.51,1.08s1.88-.42,2.51-1.08c.93.75,1.49,1.86,1.49,3.08v1Z"/>
    <path class="cls-2" d="m25,15h-11c-.55,0-1-.45-1-1v-5c0-.55.45-1,1-1h3c.55,0,1-.45,1-1s-.45-1-1-1h-3c-1.65,0-3,1.35-3,3v5c0,1.65,1.35,3,3,3h11c.55,0,1,.45,1,1v6c0,.55-.45,1-1,1h-10.1c-.55,0-1,.45-1,1s.45,1,1,1h10.1c1.65,0,3-1.35,3-3v-6c0-1.65-1.35-3-3-3Z"/>
  </g>
  <path class="cls-1" d="m25,1c-3.31,0-6,2.69-6,6s2.69,6,6,6,6-2.69,6-6-2.69-6-6-6Zm3.21,5.2l-3.02,3.02c-.2.2-.45.29-.71.29s-.51-.1-.71-.29l-1.98-1.98c-.39-.39-.39-1.02,0-1.41s1.02-.39,1.41,0l1.27,1.27,2.32-2.31c.39-.39,1.02-.39,1.41,0s.39,1.02,0,1.41Z"/>
</svg>