<?xml version="1.0" encoding="UTF-8"?>
<svg id="OBJECT" xmlns="http://www.w3.org/2000/svg" viewBox="0 0 32 32">
  <defs>
    <style>
      .cls-1 {
        fill: #FD4360;
      }

      .cls-2 {
        fill: #dadada;
      }
    </style>
  </defs>
  <g>
    <path class="cls-2" d="M5.47,13.35c.16,.1,.35,.15,.53,.15s.37-.05,.53-.15c.18-.11,4.47-2.85,4.47-7.41,0-2.72-2.24-4.94-5-4.94S1,3.21,1,5.94c0,4.56,4.29,7.3,4.47,7.41Zm.53-10.35c1.65,0,3,1.32,3,2.94,0,2.61-2.01,4.54-3,5.33-.99-.79-3-2.71-3-5.33,0-1.62,1.35-2.94,3-2.94Z"/>
    <path class="cls-2" d="M6.5,7c.55,0,1-.45,1-1s-.45-1-1-1h-1c-.55,0-1,.45-1,1s.45,1,1,1h1Z"/>
    <path class="cls-2" d="M27,7h-10c-.55,0-1,.45-1,1s.45,1,1,1h10c1.1,0,2,.9,2,2v2c0,1.1-.9,2-2,2H5c-2.21,0-4,1.79-4,4v2c0,2.21,1.79,4,4,4H15c.55,0,1-.45,1-1s-.45-1-1-1H5c-1.1,0-2-.9-2-2v-2c0-1.1,.9-2,2-2H27c2.21,0,4-1.79,4-4v-2c0-2.21-1.79-4-4-4Z"/>
    <path class="cls-2" d="M13,9h.5c.55,0,1-.45,1-1s-.45-1-1-1h-.5c-.55,0-1,.45-1,1s.45,1,1,1Z"/>
    <path class="cls-2" d="M19,23h-.5c-.55,0-1,.45-1,1s.45,1,1,1h.5c.55,0,1-.45,1-1s-.45-1-1-1Z"/>
  </g>
  <path class="cls-1" d="M26,18.5c-2.76,0-5,2.21-5,4.94,0,4.56,4.29,7.3,4.47,7.41,.16,.1,.35,.15,.53,.15s.37-.05,.53-.15c.18-.11,4.47-2.85,4.47-7.41,0-2.72-2.24-4.94-5-4.94Zm.5,6h-1c-.55,0-1-.45-1-1s.45-1,1-1h1c.55,0,1,.45,1,1s-.45,1-1,1Z"/>
</svg>