<?xml version="1.0" encoding="UTF-8"?>
<svg id="OBJECT" xmlns="http://www.w3.org/2000/svg" viewBox="0 0 512 512">
  <defs>
    <style>
      .cls-1 {
        fill: #FD4360;
      }

      .cls-2 {
        fill: #dadada;
      }
    </style>
  </defs>
  <g>
    <path class="cls-2" d="M489.5,337H22.5c-12.41,0-22.5,10.09-22.5,22.5v90c0,12.41,10.09,22.5,22.5,22.5h7.5v32.5c0,4.14,3.36,7.5,7.5,7.5h100c4.14,0,7.5-3.36,7.5-7.5v-32.5h222v32.5c0,4.14,3.36,7.5,7.5,7.5h100c4.14,0,7.5-3.36,7.5-7.5v-32.5h7.5c12.41,0,22.5-10.09,22.5-22.5v-90c0-12.41-10.09-22.5-22.5-22.5ZM130,497H45v-25h85v25Zm337,0h-85v-25h85v25Zm30-47.5c0,4.14-3.36,7.5-7.5,7.5H22.5c-4.14,0-7.5-3.36-7.5-7.5v-90c0-4.14,3.36-7.5,7.5-7.5H489.5c4.14,0,7.5,3.36,7.5,7.5v90Z"/>
    <path class="cls-2" d="M459.5,374.5H212.5c-12.41,0-22.5,10.09-22.5,22.5v15c0,12.41,10.09,22.5,22.5,22.5h247c12.41,0,22.5-10.09,22.5-22.5v-15c0-12.41-10.09-22.5-22.5-22.5Zm-254.5,37.5v-15c0-4.14,3.36-7.5,7.5-7.5h194.5v30H212.5c-4.14,0-7.5-3.36-7.5-7.5Zm262,0c0,4.14-3.36,7.5-7.5,7.5h-37.5v-30h37.5c4.14,0,7.5,3.36,7.5,7.5v15Z"/>
    <path class="cls-2" d="M62.5,372c-17.92,0-32.5,14.58-32.5,32.5s14.58,32.5,32.5,32.5,32.5-14.58,32.5-32.5-14.58-32.5-32.5-32.5Zm0,50c-9.65,0-17.5-7.85-17.5-17.5s7.85-17.5,17.5-17.5,17.5,7.85,17.5,17.5-7.85,17.5-17.5,17.5Z"/>
    <path class="cls-2" d="M142.5,372c-17.92,0-32.5,14.58-32.5,32.5s14.58,32.5,32.5,32.5,32.5-14.58,32.5-32.5-14.58-32.5-32.5-32.5Zm0,50c-9.65,0-17.5-7.85-17.5-17.5s7.85-17.5,17.5-17.5,17.5,7.85,17.5,17.5-7.85,17.5-17.5,17.5Z"/>
    <path class="cls-2" d="M228.5,284.5c0,15.16,12.34,27.5,27.5,27.5s27.5-12.34,27.5-27.5-12.34-27.5-27.5-27.5-27.5,12.34-27.5,27.5Zm40,0c0,6.89-5.61,12.5-12.5,12.5s-12.5-5.61-12.5-12.5,5.61-12.5,12.5-12.5,12.5,5.61,12.5,12.5Z"/>
    <path class="cls-2" d="M301.45,252c1.94,0,3.88-.75,5.35-2.24,2.9-2.95,2.86-7.7-.09-10.61-27.96-27.48-73.46-27.48-101.42,0-2.95,2.9-3,7.65-.09,10.61,2.9,2.95,7.65,3,10.61,.09,22.17-21.78,58.23-21.78,80.4,0,1.46,1.44,3.36,2.15,5.26,2.15Z"/>
    <path class="cls-2" d="M328.73,217.35c1.94,0,3.88-.75,5.35-2.24,2.9-2.95,2.86-7.7-.09-10.61-43-42.25-112.97-42.25-155.97,0-2.95,2.9-3,7.65-.09,10.61,2.9,2.96,7.65,3,10.61,.09,37.2-36.56,97.74-36.56,134.94,0,1.46,1.44,3.36,2.15,5.26,2.15Z"/>
    <path class="cls-2" d="M161.26,180.55c52.24-51.33,137.25-51.33,189.49,0,1.46,1.44,3.36,2.15,5.26,2.15s3.88-.75,5.35-2.24c2.9-2.95,2.86-7.7-.09-10.61-58.04-57.03-152.47-57.03-210.51,0-2.95,2.9-3,7.65-.09,10.61,2.9,2.95,7.65,3,10.61,.09Z"/>
  </g>
  <g>
    <path class="cls-1" d="M507.58,8.74c-4.18-5.56-10.56-8.74-17.51-8.74-9.7,0-18.36,6.51-21.05,15.83l-62.6,216.75c2.55-.38,5.16-.59,7.82-.59,13.09,0,25.07,4.83,34.27,12.78L511.12,27.99c1.93-6.68,.64-13.69-3.54-19.25Z"/>
    <path class="cls-1" d="M414.24,247c-20.68,0-37.5,16.82-37.5,37.5v37.5h75v-37.5c0-20.68-16.82-37.5-37.5-37.5Zm7.5,47.5c0,4.14-3.36,7.5-7.5,7.5s-7.5-3.36-7.5-7.5v-10c0-4.14,3.36-7.5,7.5-7.5s7.5,3.36,7.5,7.5v10Z"/>
    <path class="cls-1" d="M97.76,232c2.66,0,5.27,.2,7.82,.59L42.98,15.83C40.28,6.51,31.63,0,21.93,0,14.98,0,8.59,3.19,4.42,8.74S-1.05,21.31,.88,27.99L63.49,244.78c9.2-7.95,21.18-12.78,34.27-12.78Z"/>
    <path class="cls-1" d="M97.76,247c-20.68,0-37.5,16.82-37.5,37.5v37.5h75v-37.5c0-20.68-16.82-37.5-37.5-37.5Zm7.5,47.5c0,4.14-3.36,7.5-7.5,7.5s-7.5-3.36-7.5-7.5v-10c0-4.14,3.36-7.5,7.5-7.5s7.5,3.36,7.5,7.5v10Z"/>
  </g>
</svg>