<?xml version="1.0" encoding="UTF-8"?>
<svg id="OBJECT" xmlns="http://www.w3.org/2000/svg" viewBox="0 0 32 32">
  <defs>
    <style>
      .cls-1 {
        fill: #FD4360;
      }

      .cls-1, .cls-2 {
        stroke-width: 0px;
      }

      .cls-2 {
        fill: #dadada;
      }
    </style>
  </defs>
  <g>
    <path class="cls-2" d="m14,8.6c.25,0,.51-.1.7-.29.39-.39.4-1.02,0-1.41-1.45-1.46-3.97-1.46-5.42,0-.39.39-.38,1.03,0,1.41.39.39,1.03.39,1.42,0,.69-.7,1.89-.7,2.58,0,.2.2.45.3.71.3Z"/>
    <path class="cls-2" d="m8.71,5.38c.88-.89,2.05-1.38,3.29-1.38s2.41.49,3.29,1.38c.2.2.45.3.71.3s.51-.1.7-.29c.39-.39.4-1.02,0-1.41-1.26-1.27-2.93-1.97-4.71-1.97s-3.45.7-4.71,1.97c-.39.39-.38,1.03,0,1.41.39.39,1.02.38,1.41,0Z"/>
    <path class="cls-2" d="m11.78,9.11c-.55,0-1,.45-1,1s.45,1,1,1h.45c.55,0,1-.45,1-1s-.45-1-1-1h-.45Z"/>
    <path class="cls-2" d="m20,12H4c-1.65,0-3,1.35-3,3v13c0,1.65,1.35,3,3,3h16c1.65,0,3-1.35,3-3v-13c0-1.65-1.35-3-3-3Zm1,16c0,.55-.45,1-1,1H4c-.55,0-1-.45-1-1v-13c0-.55.45-1,1-1h16c.55,0,1,.45,1,1v13Z"/>
    <path class="cls-2" d="m18.5,15.5H5.5c-.55,0-1,.45-1,1v6c0,.55.45,1,1,1h13c.55,0,1-.45,1-1v-6c0-.55-.45-1-1-1Zm-12,2h2v4h-2v-4Zm11,4h-7v-4h7v4Z"/>
    <path class="cls-2" d="m14.17,25.5h-.5c-.55,0-1,.45-1,1s.45,1,1,1h.5c.55,0,1-.45,1-1s-.45-1-1-1Z"/>
    <path class="cls-2" d="m10.33,25.5h-.5c-.55,0-1,.45-1,1s.45,1,1,1h.5c.55,0,1-.45,1-1s-.45-1-1-1Z"/>
    <path class="cls-2" d="m6.5,25.5h-.5c-.55,0-1,.45-1,1s.45,1,1,1h.5c.55,0,1-.45,1-1s-.45-1-1-1Z"/>
    <path class="cls-2" d="m18,25.5h-.5c-.55,0-1,.45-1,1s.45,1,1,1h.5c.55,0,1-.45,1-1s-.45-1-1-1Z"/>
  </g>
  <g>
    <path class="cls-1" d="m25,25h5c.55,0,1-.45,1-1v-6h-6v7Z"/>
    <path class="cls-1" d="m30,1h-1.5c-.55,0-1,.45-1,1v3h3.5v-3c0-.55-.45-1-1-1Z"/>
    <rect class="cls-1" x="27.5" y="7" width="3.5" height="9"/>
  </g>
</svg>