<?xml version="1.0" encoding="UTF-8"?>
<svg id="OBJECT" xmlns="http://www.w3.org/2000/svg" viewBox="0 0 32 32">
  <defs>
    <style>
      .cls-1 {
        fill: #FD4360;
      }

      .cls-1, .cls-2 {
        stroke-width: 0px;
      }

      .cls-2 {
        fill: #dadada;
      }
    </style>
  </defs>
  <g>
    <path class="cls-2" d="m18.12,7.89c.25,0,.51-.1.7-.29.39-.39.4-1.02,0-1.41-.76-.76-1.76-1.19-2.84-1.19s-2.08.42-2.84,1.19c-.39.39-.38,1.03,0,1.41.39.39,1.03.39,1.42,0,.76-.76,2.07-.76,2.83,0,.2.2.45.3.71.3Z"/>
    <path class="cls-2" d="m12.46,4.48c.95-.96,2.2-1.48,3.54-1.48s2.59.53,3.54,1.48c.2.2.45.3.71.3s.51-.1.7-.29c.39-.39.4-1.02,0-1.41-1.33-1.34-3.09-2.07-4.96-2.07s-3.64.74-4.96,2.07c-.39.39-.38,1.03,0,1.41.39.39,1.03.38,1.42,0Z"/>
    <path class="cls-2" d="m15.76,8.56c-.55,0-1,.45-1,1s.45,1,1,1h.47c.55,0,1-.45,1-1s-.45-1-1-1h-.47Z"/>
    <path class="cls-2" d="m30,8c-.55,0-1,.45-1,1v9.5h-2.5v-2.5c0-1.65-1.35-3-3-3h-15c-1.65,0-3,1.35-3,3v2.5h-2.5v-9.5c0-.55-.45-1-1-1s-1,.45-1,1v13.5c0,1.65,1.35,3,3,3h1.5v2.5c0,1.65,1.35,3,3,3h15c1.65,0,3-1.35,3-3v-2.5h1.5c1.65,0,3-1.35,3-3v-13.5c0-.55-.45-1-1-1ZM4,23.5c-.55,0-1-.45-1-1v-2h2.5v3h-1.5Zm20.5,4.5c0,.55-.45,1-1,1h-15c-.55,0-1-.45-1-1v-12c0-.55.45-1,1-1h15c.55,0,1,.45,1,1v12Zm3.5-4.5h-1.5v-3h2.5v2c0,.55-.45,1-1,1Z"/>
    <path class="cls-2" d="m30,4c-.55,0-1,.45-1,1v.5c0,.55.45,1,1,1s1-.45,1-1v-.5c0-.55-.45-1-1-1Z"/>
    <path class="cls-2" d="m2,6.5c.55,0,1-.45,1-1v-.5c0-.55-.45-1-1-1s-1,.45-1,1v.5c0,.55.45,1,1,1Z"/>
  </g>
  <g>
    <path class="cls-1" d="m16.5,25.5h-1c-.55,0-1,.45-1,1s.45,1,1,1h1c.55,0,1-.45,1-1s-.45-1-1-1Z"/>
    <path class="cls-1" d="m11.5,25.5h-1c-.55,0-1,.45-1,1s.45,1,1,1h1c.55,0,1-.45,1-1s-.45-1-1-1Z"/>
    <path class="cls-1" d="m21.5,25.5h-1c-.55,0-1,.45-1,1s.45,1,1,1h1c.55,0,1-.45,1-1s-.45-1-1-1Z"/>
    <rect class="cls-1" x="9" y="16.5" width="14" height="7" rx="1" ry="1"/>
  </g>
</svg>