<?xml version="1.0" encoding="UTF-8"?>
<svg id="OBJECT" xmlns="http://www.w3.org/2000/svg" viewBox="0 0 512 512">
  <defs>
    <style>
      .cls-1 {
        fill: #FD4360;
      }

      .cls-2 {
        fill: #dadada;
      }
    </style>
  </defs>
  <g>
    <path class="cls-2" d="M181,213.5h30v34.96c0,1.11-.75,2.1-1.81,2.4l-27.75,7.93c-3.98,1.14-6.29,5.29-5.15,9.27,.94,3.29,3.94,5.44,7.21,5.44,.68,0,1.38-.09,2.06-.29l27.75-7.93c7.47-2.14,12.69-9.05,12.69-16.83v-34.96h22.5v42.5c0,4.14,3.36,7.5,7.5,7.5s7.5-3.36,7.5-7.5v-42.5h22.5v34.96c0,7.77,5.22,14.69,12.69,16.83l27.75,7.93c.69,.2,1.38,.29,2.06,.29,3.26,0,6.27-2.15,7.21-5.44,1.14-3.98-1.17-8.13-5.15-9.27l-27.75-7.93c-1.07-.31-1.81-1.29-1.81-2.4v-34.96h30c15.16,0,27.5-12.34,27.5-27.5s-12.34-27.5-27.5-27.5h-5.01c-3.94-9.38-12.2-16.52-22.11-19.02-8.4-18.7-27.12-30.98-47.89-30.98s-39.48,12.28-47.89,30.98c-9.91,2.5-18.16,9.65-22.11,19.02h-5.01c-15.16,0-27.5,12.34-27.5,27.5s12.34,27.5,27.5,27.5Zm0-40h10.5c3.57,0,6.64-2.51,7.35-6.01,1.51-7.45,7.85-13.16,15.41-13.91,2.91-.29,5.38-2.23,6.35-4.98,5.26-15.01,19.48-25.1,35.39-25.1s30.13,10.09,35.39,25.1c.96,2.75,3.44,4.7,6.35,4.98,7.56,.74,13.9,6.46,15.41,13.91,.71,3.5,3.78,6.01,7.35,6.01h10.5c6.89,0,12.5,5.61,12.5,12.5s-5.61,12.5-12.5,12.5H181c-6.89,0-12.5-5.61-12.5-12.5s5.61-12.5,12.5-12.5Z"/>
    <path class="cls-2" d="M256,273.5c-4.14,0-7.5,3.36-7.5,7.5v5c0,4.14,3.36,7.5,7.5,7.5s7.5-3.36,7.5-7.5v-5c0-4.14-3.36-7.5-7.5-7.5Z"/>
    <path class="cls-2" d="M238.5,183.5h5c4.14,0,7.5-3.36,7.5-7.5s-3.36-7.5-7.5-7.5h-5c-4.14,0-7.5,3.36-7.5,7.5s3.36,7.5,7.5,7.5Z"/>
    <path class="cls-2" d="M268.5,183.5h5c4.14,0,7.5-3.36,7.5-7.5s-3.36-7.5-7.5-7.5h-5c-4.14,0-7.5,3.36-7.5,7.5s3.36,7.5,7.5,7.5Z"/>
    <path class="cls-2" d="M489.5,357H22.5c-12.41,0-22.5,10.09-22.5,22.5v70c0,12.41,10.09,22.5,22.5,22.5h17.5v32.5c0,4.14,3.36,7.5,7.5,7.5h100c4.14,0,7.5-3.36,7.5-7.5v-32.5h202v32.5c0,4.14,3.36,7.5,7.5,7.5h100c4.14,0,7.5-3.36,7.5-7.5v-32.5h17.5c12.41,0,22.5-10.09,22.5-22.5v-70c0-12.41-10.09-22.5-22.5-22.5ZM140,497H55v-25h85v25Zm317,0h-85v-25h85v25Zm40-47.5c0,4.14-3.36,7.5-7.5,7.5H22.5c-4.14,0-7.5-3.36-7.5-7.5v-70c0-4.14,3.36-7.5,7.5-7.5H489.5c4.14,0,7.5,3.36,7.5,7.5v70Z"/>
    <path class="cls-2" d="M474.5,392H237.5c-4.14,0-7.5,3.36-7.5,7.5s3.36,7.5,7.5,7.5h237c4.14,0,7.5-3.36,7.5-7.5s-3.36-7.5-7.5-7.5Z"/>
    <path class="cls-2" d="M197.5,407h10c4.14,0,7.5-3.36,7.5-7.5s-3.36-7.5-7.5-7.5h-10c-4.14,0-7.5,3.36-7.5,7.5s3.36,7.5,7.5,7.5Z"/>
    <path class="cls-2" d="M434.5,422H197.5c-4.14,0-7.5,3.36-7.5,7.5s3.36,7.5,7.5,7.5h237c4.14,0,7.5-3.36,7.5-7.5s-3.36-7.5-7.5-7.5Z"/>
    <path class="cls-2" d="M474.5,422h-10c-4.14,0-7.5,3.36-7.5,7.5s3.36,7.5,7.5,7.5h10c4.14,0,7.5-3.36,7.5-7.5s-3.36-7.5-7.5-7.5Z"/>
    <path class="cls-2" d="M67.5,387h-20c-9.65,0-17.5,7.85-17.5,17.5v20c0,9.65,7.85,17.5,17.5,17.5h20c9.65,0,17.5-7.85,17.5-17.5v-20c0-9.65-7.85-17.5-17.5-17.5Zm2.5,37.5c0,1.38-1.12,2.5-2.5,2.5h-20c-1.38,0-2.5-1.12-2.5-2.5v-20c0-1.38,1.12-2.5,2.5-2.5h20c1.38,0,2.5,1.12,2.5,2.5v20Z"/>
    <path class="cls-2" d="M147.5,387h-20c-9.65,0-17.5,7.85-17.5,17.5v20c0,9.65,7.85,17.5,17.5,17.5h20c9.65,0,17.5-7.85,17.5-17.5v-20c0-9.65-7.85-17.5-17.5-17.5Zm2.5,37.5c0,1.38-1.12,2.5-2.5,2.5h-20c-1.38,0-2.5-1.12-2.5-2.5v-20c0-1.38,1.12-2.5,2.5-2.5h20c1.38,0,2.5,1.12,2.5,2.5v20Z"/>
  </g>
  <g>
    <path class="cls-1" d="M454.5,302h-60c-4.14,0-7.5,3.36-7.5,7.5v32.5h75v-32.5c0-4.14-3.36-7.5-7.5-7.5Z"/>
    <path class="cls-1" d="M442,10c0-5.52-4.48-10-10-10h-15c-5.52,0-10,4.48-10,10v30h35V10Z"/>
    <rect class="cls-1" x="407" y="55" width="35" height="232"/>
    <path class="cls-1" d="M117.5,302H57.5c-4.14,0-7.5,3.36-7.5,7.5v32.5H125v-32.5c0-4.14-3.36-7.5-7.5-7.5Z"/>
    <path class="cls-1" d="M105,10c0-5.52-4.48-10-10-10h-15c-5.52,0-10,4.48-10,10v30h35V10Z"/>
    <rect class="cls-1" x="70" y="55" width="35" height="232"/>
  </g>
</svg>