<?xml version="1.0" encoding="UTF-8"?>
<svg id="OBJECT" xmlns="http://www.w3.org/2000/svg" viewBox="0 0 32 32">
  <defs>
    <style>
      .cls-1 {
        fill: #FD4360;
      }

      .cls-1, .cls-2 {
        stroke-width: 0px;
      }

      .cls-2 {
        fill: #dadada;
      }
    </style>
  </defs>
  <g>
    <path class="cls-2" d="m30,27c.55,0,1-.45,1-1v-7c0-.55-.45-1-1-1H2c-.55,0-1,.45-1,1v7c0,.55.45,1,1,1h1v2h-1c-.55,0-1,.45-1,1s.45,1,1,1h28c.55,0,1-.45,1-1s-.45-1-1-1h-1v-2h1ZM3,20h26v5H3v-5Zm24,9H5v-2h22v2Z"/>
    <path class="cls-2" d="m26.5,21.5h-7c-.55,0-1,.45-1,1s.45,1,1,1h7c.55,0,1-.45,1-1s-.45-1-1-1Z"/>
    <path class="cls-2" d="m6,21.5h-.5c-.55,0-1,.45-1,1s.45,1,1,1h.5c.55,0,1-.45,1-1s-.45-1-1-1Z"/>
    <path class="cls-2" d="m10,21.5h-.5c-.55,0-1,.45-1,1s.45,1,1,1h.5c.55,0,1-.45,1-1s-.45-1-1-1Z"/>
    <path class="cls-2" d="m14,21.5h-.5c-.55,0-1,.45-1,1s.45,1,1,1h.5c.55,0,1-.45,1-1s-.45-1-1-1Z"/>
  </g>
  <g>
    <path class="cls-1" d="m7,1h-1.5c-.83,0-1.5.67-1.5,1.5v2.5h4.5v-2.5c0-.83-.67-1.5-1.5-1.5Z"/>
    <rect class="cls-1" x="4" y="7" width="4.5" height="9"/>
    <path class="cls-1" d="m14.62,9.08h-.02c-.55,0-1,.45-1,1,0,.55.45,1,1,1h0c.6-.01,1.2.23,1.64.67.44.44.67,1.02.67,1.64,0,.55.44,1,1,1h0c.55,0,1-.44,1-1,0-1.16-.44-2.25-1.26-3.06-.81-.81-1.89-1.26-3.04-1.26Z"/>
    <path class="cls-1" d="m20.78,7.22c-1.44-1.44-3.32-2.22-5.41-2.22-.55,0-1,.45-1,1,0,.55.45,1,1,1h0c1.54,0,2.93.57,3.99,1.63,1.06,1.06,1.64,2.48,1.63,3.99,0,.55.44,1,1,1h0c.55,0,1-.44,1-1,.01-2.05-.78-3.97-2.22-5.41Z"/>
    <path class="cls-1" d="m14.71,12.92c-.39-.39-1.02-.39-1.41,0s-.39,1.02,0,1.41l.37.37c.2.2.45.29.71.29s.51-.1.71-.29c.39-.39.39-1.02,0-1.41l-.37-.37Z"/>
  </g>
</svg>