<?xml version="1.0" encoding="UTF-8"?>
<svg id="OBJECT" xmlns="http://www.w3.org/2000/svg" viewBox="0 0 32 32">
  <defs>
    <style>
      .cls-1 {
        fill: #FD4360;
      }

      .cls-1, .cls-2 {
        stroke-width: 0px;
      }

      .cls-2 {
        fill: #dadada;
      }
    </style>
  </defs>
  <g>
    <path class="cls-2" d="m18,12.56c.25,0,.5-.09.7-.29.4-.39.4-1.02.02-1.41-1.45-1.48-3.98-1.48-5.43,0-.39.39-.38,1.03.02,1.41.39.39,1.03.38,1.41-.02.69-.7,1.88-.7,2.57,0,.2.2.46.3.71.3Z"/>
    <path class="cls-2" d="m12.71,9.29c.88-.9,2.05-1.39,3.29-1.39s2.41.5,3.29,1.39c.2.2.46.3.71.3s.5-.09.7-.29c.4-.39.4-1.02.02-1.41-1.26-1.29-2.93-2-4.71-2s-3.46.71-4.71,2c-.39.39-.38,1.03.02,1.41.4.39,1.03.38,1.41-.02Z"/>
    <path class="cls-2" d="m15.78,13.1c-.55,0-1,.45-1,1s.45,1,1,1h.44c.55,0,1-.45,1-1s-.45-1-1-1h-.44Z"/>
    <path class="cls-2" d="m30,19H2c-.55,0-1,.45-1,1v10c0,.55.45,1,1,1s1-.45,1-1v-2h26v2c0,.55.45,1,1,1s1-.45,1-1v-10c0-.55-.45-1-1-1ZM3,26v-5h26v5H3Z"/>
    <path class="cls-2" d="m5.5,22.25c-.55,0-1,.45-1,1v.5c0,.55.45,1,1,1s1-.45,1-1v-.5c0-.55-.45-1-1-1Z"/>
    <path class="cls-2" d="m9.5,22.25c-.55,0-1,.45-1,1v.5c0,.55.45,1,1,1s1-.45,1-1v-.5c0-.55-.45-1-1-1Z"/>
    <path class="cls-2" d="m26.5,22.5h-13c-.55,0-1,.45-1,1s.45,1,1,1h13c.55,0,1-.45,1-1s-.45-1-1-1Z"/>
  </g>
  <g>
    <polygon class="cls-1" points="3.56 17 8.44 17 8.44 7 3.98 7 3.56 17"/>
    <path class="cls-1" d="m6.94,1h-1.27c-.8,0-1.47.63-1.5,1.44l-.11,2.56h4.38v-2.5c0-.83-.67-1.5-1.5-1.5Z"/>
    <polygon class="cls-1" points="28.02 7 23.56 7 23.56 17 28.44 17 28.02 7"/>
    <path class="cls-1" d="m27.83,2.44c-.03-.8-.69-1.44-1.5-1.44h-1.27c-.83,0-1.5.67-1.5,1.5v2.5h4.38l-.11-2.56Z"/>
  </g>
</svg>