<?xml version="1.0" encoding="UTF-8" standalone="no"?>
<svg
   id="OBJECT"
   viewBox="0 0 32 32"
   version="1.1"
   sodipodi:docname="RSS.svg"
   xml:space="preserve"
   inkscape:version="1.2.2 (732a01da63, 2022-12-09)"
   xmlns:inkscape="http://www.inkscape.org/namespaces/inkscape"
   xmlns:sodipodi="http://sodipodi.sourceforge.net/DTD/sodipodi-0.dtd"
   xmlns="http://www.w3.org/2000/svg"
   xmlns:svg="http://www.w3.org/2000/svg"><sodipodi:namedview
     id="namedview15"
     pagecolor="#505050"
     bordercolor="#ffffff"
     borderopacity="1"
     inkscape:showpageshadow="0"
     inkscape:pageopacity="0"
     inkscape:pagecheckerboard="1"
     inkscape:deskcolor="#505050"
     showgrid="false"
     inkscape:zoom="12.953125"
     inkscape:cx="-13.548854"
     inkscape:cy="28.101327"
     inkscape:window-width="1920"
     inkscape:window-height="1009"
     inkscape:window-x="-8"
     inkscape:window-y="-8"
     inkscape:window-maximized="1"
     inkscape:current-layer="OBJECT" /><defs
     id="defs4"><style
       id="style2">
      .cls-1 {
        fill: #FD4360;
      }

      .cls-1, .cls-2 {
        stroke-width: 0px;
      }

      .cls-2 {
        fill: #dadada;
      }
    </style></defs><g
     id="g1832"
     transform="matrix(0.0518341,0,0,0.0518341,26.525575,-4.2662379)"><rect
       style="fill:#dadada;fill-opacity:1;stroke-width:0.172"
       id="rect712"
       width="434.79855"
       height="434.79855"
       x="-422.44629"
       y="185.28348"
       ry="77.334709" /><path
       style="fill:#fd4360;fill-opacity:1;stroke-width:0.172"
       d="m -337.44753,305.48613 c 0,0 -6.33052,-0.38601 -9.57298,-3.01086 -3.24246,-2.62485 -3.24246,-6.33052 -3.24246,-6.33052 l -0.386,-34.58625 c 0,0 0.4632,-5.09529 4.63208,-7.79734 4.16888,-2.70205 8.49216,-2.23884 8.49216,-2.23884 0,0 31.7298,1.85283 60.13993,9.26417 28.41013,7.41134 51.95657,17.60193 69.09529,27.02051 17.13873,9.41857 31.9614,19.91797 31.9614,19.91797 0,0 18.06514,11.73462 55.73945,53.4234 37.674305,41.68878 54.041012,101.75151 54.041012,101.75151 0,0 6.639325,18.52835 9.264174,47.8649 2.624849,29.33655 2.007238,30.10856 2.007238,30.10856 0,0 -0.926418,3.78287 -4.477684,5.55851 -3.551267,1.77563 -6.176116,1.46682 -6.176116,1.46682 l -33.04222,0.15441 c 0,0 -5.404104,-1.19663 -7.218334,-4.16888 -1.81424,-2.97226 -1.85284,-4.28468 -1.85284,-4.28468 0,0 -2.50904,-58.01689 -21.96381,-92.60314 -19.45476,-34.58625 -21.3076,-37.82871 -21.3076,-37.82871 0,0 -62.84342,-96.47335 -186.13269,-103.68154 z"
       id="path504" /><path
       style="fill:#fd4360;fill-opacity:1;stroke-width:0.172"
       d="m -340.96706,400.14226 c 0,0 -8.40681,-1.74687 -9.17106,-6.65994 -0.76426,-4.91307 -0.76426,-36.79344 -0.76426,-36.79344 0,0 0.16377,-3.93045 3.00243,-6.60535 2.83866,-2.67489 8.24304,-2.83866 8.24304,-2.83866 0,0 24.34699,-1.5831 66.49022,15.23052 42.14322,16.81362 63.76073,42.14322 63.76073,42.14322 0,0 20.96243,18.34213 36.02918,48.69398 15.06675,30.35186 20.089,52.8428 20.089,52.8428 0,0 2.6203,16.15854 2.83866,22.27259 0.21836,6.11404 0.21836,11.79136 0.21836,11.79136 0,0 -1.0918,5.24061 -6.3324,6.76912 -5.24061,1.52851 -38.64949,0.87344 -38.64949,0.87344 0,0 -6.05152,-2.20207 -7.44115,-6.37095 -1.4947,-30.49454 -13.6127,-65.69858 -33.27383,-85.6936 -21.6164,-20.38118 -29.42748,-38.1232 -105.03943,-55.65509 z"
       id="path604"
       sodipodi:nodetypes="cscscscscscscccc" /><circle
       style="fill:#fd4360;fill-opacity:1;stroke-width:0.383417"
       id="path658"
       cx="-307.88571"
       cy="504.40854"
       r="46.728756" /></g></svg>
