<?xml version="1.0" encoding="UTF-8"?>
<svg id="OBJECT" xmlns="http://www.w3.org/2000/svg" viewBox="0 0 32 32">
  <defs>
    <style>
      .cls-1 {
        fill: #FD4360;
      }

      .cls-1, .cls-2 {
        stroke-width: 0px;
      }

      .cls-2 {
        fill: #dadada;
      }
    </style>
  </defs>
  <path class="cls-1" d="m25,4c.8,0,1.55.31,2.12.88.57.57.88,1.32.88,2.12s-.31,1.55-.88,2.12l-.87.87c1.41,1.07,2.9,1.99,4.43,2.73.56-3.31.38-6.76-.61-10.11-.1-.32-.35-.58-.67-.67-3.5-1.04-7.12-1.19-10.57-.53.84,1.56,1.88,3.06,3.07,4.46l.98-.98c.57-.57,1.32-.88,2.12-.88Z"/>
  <path class="cls-1" d="m7,28c-.8,0-1.55-.31-2.12-.88-.57-.57-.88-1.32-.88-2.12s.31-1.55.88-2.12l.88-.88c-1.4-1.12-2.88-2.1-4.42-2.88-.6,3.36-.43,6.87.59,10.28.1.32.35.58.67.67,2.11.63,4.26.93,6.39.93,1.31,0,2.61-.13,3.88-.36-.78-1.53-1.75-3.01-2.87-4.41l-.88.88c-.57.57-1.32.88-2.12.88Z"/>
  <g>
    <path class="cls-2" d="m16.25,4.15c.52-.18.79-.76.61-1.28-.18-.52-.76-.79-1.28-.61-3.08,1.09-5.82,2.82-8.17,5.16-2.33,2.34-4.06,5.09-5.15,8.16-.18.52.09,1.09.61,1.28.11.04.22.06.33.06.41,0,.8-.26.94-.67.99-2.79,2.57-5.29,4.68-7.42,2.13-2.12,4.62-3.7,7.42-4.69Z"/>
    <path class="cls-2" d="m29.12,15.14c-.52-.19-1.09.09-1.28.61-.99,2.79-2.57,5.29-4.68,7.42-2.13,2.12-4.62,3.7-7.42,4.69-.52.18-.79.76-.61,1.28.15.41.53.67.94.67.11,0,.22-.02.33-.06,3.08-1.09,5.82-2.82,8.17-5.16,2.33-2.34,4.06-5.09,5.15-8.16.18-.52-.09-1.09-.61-1.28Z"/>
    <path class="cls-2" d="m15,20.58l-1.09-1.09,2.08-2.08,1.96,1.96c.2.2.45.29.71.29s.51-.1.71-.29c.39-.39.39-1.02,0-1.41l-1.96-1.96,2.08-2.08,1.09,1.09c.2.2.45.29.71.29s.51-.1.71-.29c.39-.39.39-1.02,0-1.41l-1.09-1.09,4.8-4.8c.39-.39.39-1.02,0-1.41s-1.02-.39-1.41,0l-4.8,4.8-1-1c-.39-.39-1.02-.39-1.41,0-.39.39-.39,1.02,0,1.41l1,1-2.08,2.08-1.87-1.87c-.39-.39-1.02-.39-1.41,0s-.39,1.02,0,1.41l1.87,1.87-2.08,2.08-1-1c-.39-.39-1.02-.39-1.41,0s-.39,1.02,0,1.41l1,1-4.8,4.8c-.39.39-.39,1.02,0,1.41.2.2.45.29.71.29s.51-.1.71-.29l4.8-4.8,1.09,1.09c.2.2.45.29.71.29s.51-.1.71-.29c.39-.39.39-1.02,0-1.41Z"/>
  </g>
</svg>