<?xml version="1.0" encoding="UTF-8"?>
<svg id="OBJECT" xmlns="http://www.w3.org/2000/svg" viewBox="0 0 512 512">
  <defs>
    <style>
      .cls-1 {
        fill: #FD4360;
      }

      .cls-2 {
        fill: #dadada;
      }
    </style>
  </defs>
  <g>
    <path class="cls-2" d="M489.5,197H145v-27.5c0-1.93-.24-3.8-.7-5.59L396.39,46.35l7.4,15.86c3.81,8.18,11.95,12.99,20.43,12.99,3.18,0,6.41-.68,9.47-2.11l45.32-21.13c5.45-2.54,9.58-7.05,11.63-12.7,2.05-5.65,1.79-11.76-.75-17.2l-4.23-9.06c-2.54-5.45-7.05-9.58-12.7-11.63-5.65-2.05-11.76-1.79-17.21,.75L135.76,151.34c-3.72-2.73-8.31-4.34-13.26-4.34H52.5c-12.41,0-22.5,10.09-22.5,22.5v27.5h-7.5c-12.41,0-22.5,10.09-22.5,22.5V489.5c0,12.41,10.09,22.5,22.5,22.5H489.5c12.41,0,22.5-10.09,22.5-22.5V219.5c0-12.41-10.09-22.5-22.5-22.5ZM462.1,15.71c1.82-.85,3.85-.94,5.74-.25,1.88,.69,3.39,2.06,4.23,3.88l4.23,9.06c.85,1.82,.94,3.85,.25,5.73s-2.06,3.39-3.88,4.23l-45.32,21.13c-3.75,1.75-8.22,.12-9.97-3.63l-7.4-15.86,52.11-24.3ZM45,169.5c0-4.14,3.36-7.5,7.5-7.5H122.5c4.14,0,7.5,3.36,7.5,7.5v27.5H45v-27.5ZM497,489.5c0,4.14-3.36,7.5-7.5,7.5H22.5c-4.14,0-7.5-3.36-7.5-7.5V219.5c0-4.14,3.36-7.5,7.5-7.5H489.5c4.14,0,7.5,3.36,7.5,7.5V489.5Z"/>
    <path class="cls-2" d="M449.5,242h-130c-12.41,0-22.5,10.09-22.5,22.5v80c0,12.41,10.09,22.5,22.5,22.5h130c12.41,0,22.5-10.09,22.5-22.5v-80c0-12.41-10.09-22.5-22.5-22.5Zm7.5,102.5c0,4.14-3.36,7.5-7.5,7.5h-130c-4.14,0-7.5-3.36-7.5-7.5v-80c0-4.14,3.36-7.5,7.5-7.5h130c4.14,0,7.5,3.36,7.5,7.5v80Z"/>
    <path class="cls-2" d="M434.5,297h-12.5v-10c0-4.14-3.36-7.5-7.5-7.5s-7.5,3.36-7.5,7.5v10h-72.5c-4.14,0-7.5,3.36-7.5,7.5s3.36,7.5,7.5,7.5h72.5v10c0,4.14,3.36,7.5,7.5,7.5s7.5-3.36,7.5-7.5v-10h12.5c4.14,0,7.5-3.36,7.5-7.5s-3.36-7.5-7.5-7.5Z"/>
  </g>
  <g>
    <path class="cls-1" d="M205,387h70.62c2.85-10.35,4.38-21.25,4.38-32.5s-1.53-22.15-4.38-32.5h-70.62v65Z"/>
    <path class="cls-1" d="M110,322H39.38c-2.85,10.35-4.38,21.25-4.38,32.5s1.53,22.15,4.38,32.5H110v-65Z"/>
    <path class="cls-1" d="M205,307h65.41c-12.42-29.41-36-53-65.41-65.41v65.41Z"/>
    <rect class="cls-1" x="125" y="322" width="65" height="65"/>
    <path class="cls-1" d="M190,402H125v70.62c10.35,2.85,21.25,4.38,32.5,4.38s22.15-1.53,32.5-4.38v-70.62Z"/>
    <path class="cls-1" d="M110,402H44.59c12.42,29.41,36,53,65.41,65.41v-65.41Z"/>
    <path class="cls-1" d="M205,402v65.41c29.41-12.42,53-36,65.41-65.41h-65.41Z"/>
    <path class="cls-1" d="M125,307h65v-70.62c-10.35-2.85-21.25-4.38-32.5-4.38s-22.15,1.53-32.5,4.38v70.62Z"/>
    <path class="cls-1" d="M110,307v-65.41c-29.41,12.42-53,36-65.41,65.41H110Z"/>
  </g>
  <path class="cls-1" d="M449.5,392h-130c-12.41,0-22.5,10.09-22.5,22.5v30c0,12.41,10.09,22.5,22.5,22.5h130c12.41,0,22.5-10.09,22.5-22.5v-30c0-12.41-10.09-22.5-22.5-22.5Zm-100,45h-10c-4.14,0-7.5-3.36-7.5-7.5s3.36-7.5,7.5-7.5h10c4.14,0,7.5,3.36,7.5,7.5s-3.36,7.5-7.5,7.5Zm40,0h-10c-4.14,0-7.5-3.36-7.5-7.5s3.36-7.5,7.5-7.5h10c4.14,0,7.5,3.36,7.5,7.5s-3.36,7.5-7.5,7.5Zm40,0h-10c-4.14,0-7.5-3.36-7.5-7.5s3.36-7.5,7.5-7.5h10c4.14,0,7.5,3.36,7.5,7.5s-3.36,7.5-7.5,7.5Z"/>
</svg>