<?xml version="1.0" encoding="UTF-8"?>
<svg id="OBJECT" xmlns="http://www.w3.org/2000/svg" viewBox="0 0 32 32">
  <defs>
    <style>
      .cls-1 {
        fill: #FD4360;
      }

      .cls-1, .cls-2 {
        stroke-width: 0px;
      }

      .cls-2 {
        fill: #dadada;
      }
    </style>
  </defs>
  <g>
    <path class="cls-2" d="m28,10H12v-1.75L28.31,2.95c.52-.17.81-.73.64-1.26-.17-.52-.73-.81-1.26-.64L11.48,6.31c-.54-.79-1.45-1.31-2.48-1.31h-2c-1.65,0-3,1.35-3,3v2c-1.65,0-3,1.35-3,3v15c0,1.65,1.35,3,3,3h24c1.65,0,3-1.35,3-3v-15c0-1.65-1.35-3-3-3Zm-22-2c0-.55.45-1,1-1h2c.55,0,1,.45,1,1v2h-4v-2Zm23,20c0,.55-.45,1-1,1H4c-.55,0-1-.45-1-1v-15c0-.55.45-1,1-1h24c.55,0,1,.45,1,1v15Z"/>
    <path class="cls-2" d="m26.5,15.5c.55,0,1-.45,1-1s-.45-1-1-1h-5c-.55,0-1,.45-1,1s.45,1,1,1h1.5v4h-.5c-.55,0-1,.45-1,1s.45,1,1,1h.5v4h-1.5c-.55,0-1,.45-1,1s.45,1,1,1h5c.55,0,1-.45,1-1s-.45-1-1-1h-1.5v-4h.5c.55,0,1-.45,1-1s-.45-1-1-1h-.5v-4h1.5Z"/>
  </g>
  <path class="cls-1" d="m11.5,13.5c-3.86,0-7,3.14-7,7s3.14,7,7,7,7-3.14,7-7-3.14-7-7-7Zm-1.5,8.88c0,.55-.45,1-1,1s-1-.45-1-1v-3.75c0-.55.45-1,1-1s1,.45,1,1v3.75Zm5,0c0,.55-.45,1-1,1s-1-.45-1-1v-3.75c0-.55.45-1,1-1s1,.45,1,1v3.75Z"/>
</svg>