<?xml version="1.0" encoding="UTF-8"?>
<svg id="OBJECT" xmlns="http://www.w3.org/2000/svg" viewBox="0 0 32 32">
  <defs>
    <style>
      .cls-1 {
        fill: #FD4360;
      }

      .cls-1, .cls-2 {
        stroke-width: 0px;
      }

      .cls-2 {
        fill: #dadada;
      }
    </style>
  </defs>
  <path class="cls-2" d="m19.71,19.29l-1.71-1.71v-2.59h.5c.55,0,1-.45,1-1s-.45-1-1-1H7.5c-.55,0-1,.45-1,1s.45,1,1,1h.5v2.59l-1.71,1.71c-.19.19-.29.44-.29.71v10c0,.55.45,1,1,1h12c.55,0,1-.45,1-1v-10c0-.27-.11-.52-.29-.71Zm-3.71-4.29v2h-6v-2h6Zm-6.59,4h7.17l1.41,1.41v2.56c-1.13-.29-2.85-.43-5.12.28-2.02.64-4.04-.32-4.88-.81v-2.03l1.41-1.41Zm-1.41,10v-4.31c.9.4,2.12.78,3.46.78.65,0,1.33-.09,2.02-.31,2.34-.74,3.84-.37,4.51-.1v3.94h-10Z"/>
  <g>
    <rect class="cls-1" x="11" y="7" width="4" height="4"/>
    <path class="cls-1" d="m24.75,6c.24,0,.48-.09.68-.26.41-.37.43-1.01.06-1.41l-2.16-2.35c-.57-.62-1.37-.97-2.21-.97H5c-.55,0-1,.45-1,1s.45,1,1,1h3v2h10v-2h3.12c.28,0,.55.12.74.32l2.16,2.35c.2.22.47.32.74.32Z"/>
    <path class="cls-1" d="m26.12,8.04c-.29-.39-.94-.39-1.23,0-.44.59-1.88,2.61-1.88,3.73,0,1.38,1.12,2.5,2.5,2.5s2.5-1.12,2.5-2.5c0-1.12-1.44-3.14-1.88-3.73Z"/>
  </g>
</svg>