<?xml version="1.0" encoding="UTF-8"?>
<svg id="OBJECT" xmlns="http://www.w3.org/2000/svg" viewBox="0 0 32 32">
  <defs>
    <style>
      .cls-1 {
        fill: #FD4360;
      }

      .cls-1, .cls-2 {
        stroke-width: 0px;
      }

      .cls-2 {
        fill: #dadada;
      }
    </style>
  </defs>
  <g>
    <path class="cls-2" d="m28,1H4c-1.65,0-3,1.35-3,3v20c0,1.65,1.35,3,3,3v3c0,.55.45,1,1,1h6c.38,0,.72-.21.89-.55l1.72-3.45h5.76l1.72,3.45c.17.34.52.55.89.55h6c.55,0,1-.45,1-1v-3.18c1.16-.41,2-1.51,2-2.82V4c0-1.65-1.35-3-3-3ZM10.38,29h-4.38v-2h5.38l-1,2Zm12.24,0l-1-2h5.38v2h-4.38Zm6.38-5c0,.55-.45,1-1,1H4c-.55,0-1-.45-1-1V4c0-.55.45-1,1-1h24c.55,0,1,.45,1,1v20Z"/>
    <path class="cls-2" d="m6.5,4h-1.5c-.55,0-1,.45-1,1s.45,1,1,1h1.5c.55,0,1-.45,1-1s-.45-1-1-1Z"/>
    <path class="cls-2" d="m6.5,22h-1.5c-.55,0-1,.45-1,1s.45,1,1,1h1.5c.55,0,1-.45,1-1s-.45-1-1-1Z"/>
    <path class="cls-2" d="m27,22h-1.5c-.55,0-1,.45-1,1s.45,1,1,1h1.5c.55,0,1-.45,1-1s-.45-1-1-1Z"/>
    <path class="cls-2" d="m27,4h-1.5c-.55,0-1,.45-1,1s.45,1,1,1h1.5c.55,0,1-.45,1-1s-.45-1-1-1Z"/>
  </g>
  <g>
    <path class="cls-1" d="m9.99,15.3h-2.99c.22,1.54.83,2.95,1.72,4.14l2.12-2.12c-.39-.61-.69-1.29-.85-2.03Z"/>
    <path class="cls-1" d="m10.84,10.67l-2.12-2.12c-.89,1.19-1.5,2.6-1.72,4.14h2.99c.16-.73.45-1.41.85-2.03Z"/>
    <path class="cls-1" d="m10.56,21.28c1.19.89,2.6,1.5,4.14,1.72v-2.99c-.73-.16-1.41-.45-2.03-.85l-2.12,2.12Z"/>
    <circle class="cls-1" cx="16" cy="14" r="3.55"/>
    <path class="cls-1" d="m14.7,7.99v-2.99c-1.54.22-2.95.83-4.14,1.72l2.12,2.12c.61-.39,1.29-.69,2.03-.85Z"/>
    <path class="cls-1" d="m17.3,20.01v2.99c1.54-.22,2.95-.83,4.14-1.72l-2.12-2.12c-.61.39-1.29.69-2.03.85Z"/>
    <path class="cls-1" d="m21.44,6.72c-1.19-.89-2.6-1.5-4.14-1.72v2.99c.73.16,1.41.45,2.03.85l2.12-2.12Z"/>
    <path class="cls-1" d="m21.16,17.33l2.12,2.12c.89-1.19,1.5-2.6,1.72-4.14h-2.99c-.16.73-.45,1.41-.85,2.03Z"/>
    <path class="cls-1" d="m22.01,12.7h2.99c-.22-1.54-.83-2.95-1.72-4.14l-2.12,2.12c.39.61.69,1.29.85,2.03Z"/>
  </g>
</svg>