<?xml version="1.0" encoding="UTF-8"?>
<svg id="OBJECT" xmlns="http://www.w3.org/2000/svg" viewBox="0 0 32 32">
  <defs>
    <style>
      .cls-1 {
        fill: #FD4360;
      }

      .cls-1, .cls-2 {
        stroke-width: 0px;
      }

      .cls-2 {
        fill: #dadada;
      }
    </style>
  </defs>
  <path class="cls-2" d="m28,1H4c-1.65,0-3,1.35-3,3v20c0,1.65,1.35,3,3,3v3c0,.55.45,1,1,1h6c.55,0,1-.45,1-1v-3h8v3c0,.55.45,1,1,1h6c.55,0,1-.45,1-1v-3c1.65,0,3-1.35,3-3V4c0-1.65-1.35-3-3-3ZM10,29h-4v-2h4v2Zm16,0h-4v-2h4v2Zm3-5c0,.55-.45,1-1,1H4c-.55,0-1-.45-1-1v-2.5h1c.55,0,1-.45,1-1s-.45-1-1-1h-1v-2h1c.55,0,1-.45,1-1s-.45-1-1-1h-1v-3h1c.55,0,1-.45,1-1s-.45-1-1-1h-1v-2h1c.55,0,1-.45,1-1s-.45-1-1-1h-1v-2.5c0-.55.45-1,1-1h24c.55,0,1,.45,1,1v20Z"/>
  <g>
    <path class="cls-1" d="m18.65,10.93c-.49-.27-1.05-.43-1.65-.43-1.93,0-3.5,1.57-3.5,3.5,0,.6.17,1.16.43,1.65l4.72-4.72Z"/>
    <path class="cls-1" d="m26,5H8c-.55,0-1,.45-1,1v16c0,.55.45,1,1,1h18c.55,0,1-.45,1-1V6c0-.55-.45-1-1-1Zm-9,14.5c-3.03,0-5.5-2.47-5.5-5.5s2.47-5.5,5.5-5.5,5.5,2.47,5.5,5.5-2.47,5.5-5.5,5.5Z"/>
    <path class="cls-1" d="m15.35,17.07c.49.27,1.05.43,1.65.43,1.93,0,3.5-1.57,3.5-3.5,0-.6-.17-1.16-.43-1.65l-4.72,4.72Z"/>
  </g>
</svg>