<?xml version="1.0" encoding="UTF-8"?>
<svg id="OBJECT" xmlns="http://www.w3.org/2000/svg" viewBox="0 0 32 32">
  <defs>
    <style>
      .cls-1 {
        fill: #FD4360;
      }

      .cls-1, .cls-2 {
        stroke-width: 0px;
      }

      .cls-2 {
        fill: #dadada;
      }
    </style>
  </defs>
  <path class="cls-2" d="m30,1H2c-.55,0-1,.45-1,1v25c0,.55.45,1,1,1h2v2c0,.55.45,1,1,1h6c.55,0,1-.45,1-1v-2h8v2c0,.55.45,1,1,1h6c.55,0,1-.45,1-1v-2h2c.55,0,1-.45,1-1V2c0-.55-.45-1-1-1ZM10,29h-4v-1h4v1Zm16,0h-4v-1h4v1Zm3-3H3v-4h4v-2H3v-2h4v-2H3v-3h4v-2H3v-2h4v-2H3V3h26v23Z"/>
  <path class="cls-1" d="m25,5H7c-.55,0-1,.45-1,1v17c0,.55.45,1,1,1h18c.55,0,1-.45,1-1V6c0-.55-.45-1-1-1Zm-9.83,8.5h1.67c1.47,0,2.67,1.2,2.67,2.67s-1.11,2.56-2.5,2.65v.68c0,.55-.45,1-1,1s-1-.45-1-1v-.67h-1.5c-.55,0-1-.45-1-1s.45-1,1-1h3.33c.37,0,.67-.3.67-.67s-.3-.67-.67-.67h-1.67c-1.47,0-2.67-1.2-2.67-2.67s1.11-2.56,2.5-2.65v-.68c0-.55.45-1,1-1s1,.45,1,1v.67h1.5c.55,0,1,.45,1,1s-.45,1-1,1h-3.33c-.37,0-.67.3-.67.67s.3.67.67.67Z"/>
</svg>