<?xml version="1.0" encoding="UTF-8"?>
<svg id="OBJECT" xmlns="http://www.w3.org/2000/svg" viewBox="0 0 512 512">
  <defs>
    <style>
      .cls-1 {
        fill: #FD4360;
      }

      .cls-2 {
        fill: #dadada;
      }
    </style>
  </defs>
  <g>
    <path class="cls-2" d="M407.5,0H7.5C3.36,0,0,3.36,0,7.5V387.5c0,4.14,3.36,7.5,7.5,7.5H25v42.5c0,4.14,3.36,7.5,7.5,7.5h224.32c4.14,0,7.5-3.36,7.5-7.5s-3.36-7.5-7.5-7.5H40v-35H244.54c4.14,0,7.5-3.36,7.5-7.5s-3.36-7.5-7.5-7.5H15V15H400V246.71c0,4.14,3.36,7.5,7.5,7.5s7.5-3.36,7.5-7.5V7.5c0-4.14-3.36-7.5-7.5-7.5Z"/>
    <path class="cls-2" d="M357.5,35H97.5c-12.41,0-22.5,10.09-22.5,22.5v17.5h-17.5c-12.41,0-22.5,10.09-22.5,22.5v30c0,12.41,10.09,22.5,22.5,22.5h17.5v95h-17.5c-12.41,0-22.5,10.09-22.5,22.5v30c0,12.41,10.09,22.5,22.5,22.5h17.5v17.5c0,12.41,10.09,22.5,22.5,22.5H248.82c4.14,0,7.5-3.36,7.5-7.5s-3.36-7.5-7.5-7.5H97.5c-4.14,0-7.5-3.36-7.5-7.5V57.5c0-4.14,3.36-7.5,7.5-7.5H357.5c4.14,0,7.5,3.36,7.5,7.5V245.1c0,4.14,3.36,7.5,7.5,7.5s7.5-3.36,7.5-7.5V57.5c0-12.41-10.09-22.5-22.5-22.5ZM57.5,135c-4.14,0-7.5-3.36-7.5-7.5v-30c0-4.14,3.36-7.5,7.5-7.5h17.5v45h-17.5Zm0,170c-4.14,0-7.5-3.36-7.5-7.5v-30c0-4.14,3.36-7.5,7.5-7.5h17.5v45h-17.5Z"/>
    <path class="cls-2" d="M227.5,75c-53.76,0-97.5,43.74-97.5,97.5s43.74,97.5,97.5,97.5,97.5-43.74,97.5-97.5-43.74-97.5-97.5-97.5Zm0,180c-45.49,0-82.5-37.01-82.5-82.5s37.01-82.5,82.5-82.5,82.5,37.01,82.5,82.5-37.01,82.5-82.5,82.5Z"/>
    <path class="cls-2" d="M227.5,105c-37.22,0-67.5,30.28-67.5,67.5s30.28,67.5,67.5,67.5,67.5-30.28,67.5-67.5-30.28-67.5-67.5-67.5Zm0,15c5,0,9.83,.72,14.41,2.03l-64.88,64.88c-1.31-4.58-2.03-9.41-2.03-14.41,0-28.95,23.55-52.5,52.5-52.5Zm-43.78,81.43l72.71-72.71c5.89,3.9,10.95,8.96,14.85,14.85l-72.71,72.71c-5.89-3.9-10.95-8.96-14.85-14.85Zm43.78,23.57c-5,0-9.83-.72-14.41-2.03l64.88-64.88c1.31,4.58,2.03,9.41,2.03,14.41,0,28.95-23.55,52.5-52.5,52.5Z"/>
  </g>
  <g>
    <path class="cls-1" d="M434.5,387h-90c-4.14,0-7.5,3.36-7.5,7.5v35c0,4.14,3.36,7.5,7.5,7.5h90c4.14,0,7.5-3.36,7.5-7.5v-35c0-4.14-3.36-7.5-7.5-7.5Zm-40,32.5h-10c-4.14,0-7.5-3.36-7.5-7.5s3.36-7.5,7.5-7.5h10c4.14,0,7.5,3.36,7.5,7.5s-3.36,7.5-7.5,7.5Z"/>
    <path class="cls-1" d="M417,339.5c0-15.16-12.34-27.5-27.5-27.5s-27.5,12.34-27.5,27.5v32.5h55v-32.5Z"/>
    <path class="cls-1" d="M389.5,267c-67.55,0-122.5,54.95-122.5,122.5s54.95,122.5,122.5,122.5,122.5-54.95,122.5-122.5-54.95-122.5-122.5-122.5Zm67.5,162.5c0,12.41-10.09,22.5-22.5,22.5h-90c-12.41,0-22.5-10.09-22.5-22.5v-35c0-12.41,10.09-22.5,22.5-22.5h2.5v-32.5c0-23.43,19.07-42.5,42.5-42.5s42.5,19.07,42.5,42.5v32.5h2.5c12.41,0,22.5,10.09,22.5,22.5v35Z"/>
  </g>
</svg>