<?xml version="1.0" encoding="UTF-8"?>
<svg id="OBJECT" xmlns="http://www.w3.org/2000/svg" viewBox="0 0 32 32">
  <defs>
    <style>
      .cls-1 {
        fill: #FD4360;
      }

      .cls-1, .cls-2 {
        stroke-width: 0px;
      }

      .cls-2 {
        fill: #dadada;
      }
    </style>
  </defs>
  <path class="cls-2" d="m30,1H2c-.55,0-1,.45-1,1v25c0,.55.45,1,1,1h1v2c0,.55.45,1,1,1s1-.45,1-1v-2h22v2c0,.55.45,1,1,1s1-.45,1-1v-2h1c.55,0,1-.45,1-1V2c0-.55-.45-1-1-1Zm-1,25H3V3h26v23Z"/>
  <g>
    <path class="cls-1" d="m16.45,9.55c-.15-.01-.3-.05-.45-.05-2.76,0-5,2.24-5,5,0,.16.03.3.05.45l5.41-5.41Z"/>
    <path class="cls-1" d="m20.26,11.91c-.42-.68-.99-1.25-1.67-1.67l-6.84,6.84c.42.68.99,1.25,1.67,1.67l6.84-6.84Z"/>
    <path class="cls-1" d="m24.5,4.5H7.5c-1.65,0-3,1.35-3,3v14c0,1.65,1.35,3,3,3h17c1.65,0,3-1.35,3-3V7.5c0-1.65-1.35-3-3-3Zm-8.5,17c-3.86,0-7-3.14-7-7s3.14-7,7-7,7,3.14,7,7-3.14,7-7,7Z"/>
    <path class="cls-1" d="m15.55,19.45c.15.01.3.05.45.05,2.76,0,5-2.24,5-5,0-.16-.03-.3-.05-.45l-5.41,5.41Z"/>
  </g>
</svg>