<?xml version="1.0" encoding="UTF-8"?>
<svg id="OBJECT" xmlns="http://www.w3.org/2000/svg" viewBox="0 0 32 32">
  <defs>
    <style>
      .cls-1 {
        fill: #FD4360;
      }

      .cls-1, .cls-2 {
        stroke-width: 0px;
      }

      .cls-2 {
        fill: #dadada;
      }
    </style>
  </defs>
  <path class="cls-2" d="m24,1c-.55,0-1,.45-1,1v2h-3.33v-2c0-.55-.45-1-1-1s-1,.45-1,1v2h-3.33v-2c0-.55-.45-1-1-1s-1,.45-1,1v2h-3.33v-2c0-.55-.45-1-1-1s-1,.45-1,1v28c0,.55.45,1,1,1s1-.45,1-1v-2h3.33v2c0,.55.45,1,1,1s1-.45,1-1v-2h3.33v2c0,.55.45,1,1,1s1-.45,1-1v-2h3.33v2c0,.55.45,1,1,1s1-.45,1-1V2c0-.55-.45-1-1-1Zm-15,8.5h14v13h-14v-13Zm14-2h-14v-1.5h14v1.5Zm-14,17h14v1.5h-14v-1.5Z"/>
  <path class="cls-1" d="m19.22,12.75c-1.54-.34-2.32-1.7-2.34-1.73-.17-.32-.51-.52-.87-.52-.4.03-.71.2-.88.52,0,.01-.79,1.39-2.34,1.73-.46.1-.78.51-.78.98v4.54c0,.47.33.88.78.98,1.55.34,2.33,1.72,2.34,1.73.17.32.51.52.88.52h0c.36,0,.7-.2.88-.52,0-.01.79-1.39,2.34-1.73.46-.1.78-.51.78-.98v-4.54c0-.47-.33-.88-.78-.98Z"/>
</svg>