<?xml version="1.0" encoding="UTF-8"?>
<svg id="OBJECT" xmlns="http://www.w3.org/2000/svg" viewBox="0 0 32 32">
  <defs>
    <style>
      .cls-1 {
        fill: #FD4360;
      }

      .cls-1, .cls-2 {
        stroke-width: 0px;
      }

      .cls-2 {
        fill: #dadada;
      }
    </style>
  </defs>
  <path class="cls-2" d="m14.67,18.86c.15-.47.25-.95.25-1.47v-3.49c0-1.48-1.2-2.68-2.68-2.68h-4.46c-1.48,0-2.68,1.2-2.68,2.68v3.49c0,.51.1,1,.25,1.47-2.6,1.07-4.33,3.59-4.33,6.49v2.52c0,1.72,1.4,3.13,3.13,3.13h11.75c1.72,0,3.13-1.4,3.13-3.13v-2.52c0-2.9-1.73-5.42-4.33-6.49Zm-7.58-4.95c0-.38.31-.68.68-.68h4.46c.38,0,.68.31.68.68v3.49c0,1.61-1.31,2.91-2.91,2.91s-2.91-1.31-2.91-2.91v-3.49Zm9.91,13.97c0,.62-.5,1.13-1.13,1.13H4.13c-.62,0-1.13-.5-1.13-1.13v-2.52c0-2.16,1.35-4.01,3.33-4.72.9,1.02,2.2,1.68,3.67,1.68s2.77-.66,3.67-1.68c1.99.71,3.33,2.56,3.33,4.72v2.52Z"/>
  <path class="cls-1" d="m23.5,1c-4.14,0-7.5,3.36-7.5,7.5s3.36,7.5,7.5,7.5,7.5-3.36,7.5-7.5-3.36-7.5-7.5-7.5Zm-.6,6.5h1.2c1.22,0,2.2.99,2.2,2.2,0,1.08-.78,1.97-1.81,2.16v.24c0,.55-.45,1-1,1s-1-.45-1-1v-.2h-.81c-.55,0-1-.45-1-1s.45-1,1-1h2.41c.11,0,.2-.09.2-.2s-.09-.2-.2-.2h-1.2c-1.22,0-2.2-.99-2.2-2.2,0-1.08.78-1.97,1.81-2.16v-.24c0-.55.45-1,1-1s1,.45,1,1v.2h.81c.55,0,1,.45,1,1s-.45,1-1,1h-2.41c-.11,0-.2.09-.2.2s.09.2.2.2Z"/>
</svg>