<?xml version="1.0" encoding="UTF-8"?>
<svg id="OBJECT" xmlns="http://www.w3.org/2000/svg" viewBox="0 0 32 32">
  <defs>
    <style>
      .cls-1 {
        fill: #FD4360;
      }

      .cls-1, .cls-2 {
        stroke-width: 0px;
      }

      .cls-2 {
        fill: #dadada;
      }
    </style>
  </defs>
  <path class="cls-2" d="m30.95,26.68l-1.54-4.63c-.41-1.23-1.55-2.05-2.85-2.05h-.56v-2c0-1.65-1.35-3-3-3h-1v-2c0-2.21-1.79-4-4-4h-7.44l-2.15-6.01c-.42-1.19-1.56-1.99-2.82-1.99H2c-.32,0-.62.15-.81.41s-.24.59-.15.89l5.56,17.6c.4,1.25,1.54,2.1,2.86,2.1h17.09c.43,0,.81.27.95.68l1.54,4.63c.14.42.53.68.95.68.1,0,.21-.02.32-.05.52-.17.81-.74.63-1.26Zm-12.95-15.68c1.1,0,2,.9,2,2v2h-7.29l-1.43-4h6.72Zm-9.49,8.3L3.36,3h2.23c.42,0,.8.27.94.66l4.53,12.67c.14.4.52.66.94.66h11c.55,0,1,.45,1,1v2h-14.53c-.44,0-.82-.28-.95-.7Z"/>
  <path class="cls-1" d="m25,29h-3c0-1.1-.9-2-2-2h-2.25v-3h-3.5v3h-2.25c-1.1,0-2,.9-2,2h-3c-.55,0-1,.45-1,1s.45,1,1,1h18c.55,0,1-.45,1-1s-.45-1-1-1Z"/>
</svg>