<?xml version="1.0" encoding="UTF-8"?>
<svg id="OBJECT" xmlns="http://www.w3.org/2000/svg" viewBox="0 0 32 32">
  <defs>
    <style>
      .cls-1 {
        fill: #FD4360;
      }

      .cls-2 {
        fill: #dadada;
      }
    </style>
  </defs>
  <g>
    <path class="cls-2" d="M30.12,6.71L25.29,1.88c-.57-.57-1.32-.88-2.12-.88H4c-1.65,0-3,1.35-3,3V28c0,1.65,1.35,3,3,3H28c1.65,0,3-1.35,3-3V8.83c0-.8-.31-1.56-.88-2.12ZM8,3h9v5c0,.55-.45,1-1,1h-7c-.55,0-1-.45-1-1V3ZM29,28c0,.55-.45,1-1,1H4c-.55,0-1-.45-1-1V4c0-.55,.45-1,1-1h2v5c0,1.65,1.35,3,3,3h7c1.65,0,3-1.35,3-3V3h4.17c.26,0,.52,.11,.71,.29l4.83,4.83c.19,.19,.29,.44,.29,.71V28Z"/>
    <path class="cls-2" d="M14.5,7.5c.55,0,1-.45,1-1v-1c0-.55-.45-1-1-1s-1,.45-1,1v1c0,.55,.45,1,1,1Z"/>
    <path class="cls-2" d="M10.5,7.5c.55,0,1-.45,1-1v-1c0-.55-.45-1-1-1s-1,.45-1,1v1c0,.55,.45,1,1,1Z"/>
  </g>
  <path class="cls-1" d="M25,15H7c-.55,0-1,.45-1,1v11H26v-11c0-.55-.45-1-1-1Zm-16.5,2.5h.5c.55,0,1,.45,1,1s-.45,1-1,1h-.5c-.55,0-1-.45-1-1s.45-1,1-1Zm15,7H8.5c-.55,0-1-.45-1-1s.45-1,1-1h15c.55,0,1,.45,1,1s-.45,1-1,1Zm0-5H12.5c-.55,0-1-.45-1-1s.45-1,1-1h11c.55,0,1,.45,1,1s-.45,1-1,1Z"/>
</svg>