<?xml version="1.0" encoding="UTF-8"?>
<svg id="OBJECT" xmlns="http://www.w3.org/2000/svg" viewBox="0 0 32 32">
  <defs>
    <style>
      .cls-1 {
        fill: #FD4360;
      }

      .cls-1, .cls-2 {
        stroke-width: 0px;
      }

      .cls-2 {
        fill: #dadada;
      }
    </style>
  </defs>
  <g>
    <path class="cls-2" d="m5,6v1c0,.55.45,1,1,1s1-.45,1-1v-1c0-.55-.45-1-1-1s-1,.45-1,1Z"/>
    <path class="cls-2" d="m9,6v1c0,.55.45,1,1,1s1-.45,1-1v-1c0-.55-.45-1-1-1s-1,.45-1,1Z"/>
    <path class="cls-2" d="m22,12c.55,0,1-.45,1-1v-2c0-.27-.11-.52-.29-.71L15.71,1.29c-.19-.19-.44-.29-.71-.29H2c-.55,0-1,.45-1,1v28c0,.55.45,1,1,1h20c.55,0,1-.45,1-1v-2c0-.55-.45-1-1-1s-1,.45-1,1v1H3V3h11v4c0,1.65,1.35,3,3,3h4v1c0,.55.45,1,1,1Zm-6-5v-2.59l3.59,3.59h-2.59c-.55,0-1-.45-1-1Z"/>
  </g>
  <g>
    <circle class="cls-1" cx="19.5" cy="19.5" r="2.5"/>
    <path class="cls-1" d="m30,13H9c-.55,0-1,.45-1,1v11c0,.55.45,1,1,1h21c.55,0,1-.45,1-1v-11c0-.55-.45-1-1-1Zm-17.5,7.5h-1c-.55,0-1-.45-1-1s.45-1,1-1h1c.55,0,1,.45,1,1s-.45,1-1,1Zm7,3.5c-2.48,0-4.5-2.02-4.5-4.5s2.02-4.5,4.5-4.5,4.5,2.02,4.5,4.5-2.02,4.5-4.5,4.5Zm8-3.5h-1c-.55,0-1-.45-1-1s.45-1,1-1h1c.55,0,1,.45,1,1s-.45,1-1,1Z"/>
  </g>
</svg>