<?xml version="1.0" encoding="UTF-8"?>
<svg id="OBJECT" xmlns="http://www.w3.org/2000/svg" viewBox="0 0 32 32">
  <defs>
    <style>
      .cls-1 {
        fill: #FD4360;
      }

      .cls-1, .cls-2 {
        stroke-width: 0px;
      }

      .cls-2 {
        fill: #dadada;
      }
    </style>
  </defs>
  <path class="cls-2" d="m21.69,18.26s-.04-.01-.05-.02l-7.27-12.86c-.48-.85-1.39-1.38-2.36-1.38s-1.88.53-2.36,1.38l-7.27,12.86s-.04.01-.05.02c-.81.44-1.31,1.28-1.31,2.2v1.02c0,1.28.56,2.49,1.54,3.33,2.38,2.03,5.83,3.19,9.46,3.19s7.08-1.16,9.46-3.19c.98-.83,1.54-2.04,1.54-3.33v-1.02c0-.92-.5-1.76-1.31-2.2ZM12.62,6.36l6.73,11.9c-.06.03-.14.05-.2.09-1.12.73-2.44,1.27-3.86,1.6-1.44-1.13-1.24-2.29-.97-3.72.26-1.34.65-3.37-1.86-4.21-1.37-.46-2-2.61-2.19-3.71l1.1-1.95c.25-.45.99-.45,1.24,0Zm.26,13.94c-.29.02-.59.03-.88.03-2.66,0-5.2-.7-7.16-1.98-.06-.04-.13-.06-.2-.09l4.26-7.53c.52,1.28,1.41,2.67,2.93,3.18.75.25.83.38.53,1.94-.23,1.21-.55,2.87.52,4.45Zm8.12,1.18c0,.69-.3,1.35-.83,1.8-2.02,1.73-5,2.71-8.17,2.71s-6.14-.99-8.17-2.71c-.53-.45-.83-1.11-.83-1.8v-1.02c0-.27.18-.4.26-.44.05-.03.13-.06.23-.06.08,0,.16.02.25.08,2.28,1.48,5.21,2.3,8.25,2.3s5.97-.82,8.25-2.3c.21-.13.39-.07.49-.02.08.04.26.17.26.44v1.02Z"/>
  <g>
    <path class="cls-1" d="m30.64,22.36c-.47-.76-1.29-1.2-2.21-1.16-1.11.06-2.27-.07-3.43-.36v.64c0,1.87-.82,3.63-2.24,4.85-.47.4-.98.75-1.5,1.09,1.31.38,2.62.58,3.9.58.71,0,1.41-.06,2.08-.19,1.24-.23,2.3-.98,2.93-2.07l.5-.86c.45-.78.44-1.75-.03-2.52Z"/>
    <path class="cls-1" d="m28.86,11.36c-.89-.18-1.33.29-2.35,1.7-.83,1.15-1.87,2.56-3.66,3.26l.27.48c.65.47,1.15,1.1,1.47,1.81,1.1.38,2.22.6,3.29.6.15,0,.29,0,.44-.01h.21c.75,0,1.46.18,2.09.51l.07-8.26c-.55.06-1.16.04-1.84-.09Z"/>
    <path class="cls-1" d="m24.89,11.89c1-1.38,2.12-2.94,4.37-2.49.58.12,1.06.1,1.46.02v-1.46c.02-.96-.49-1.85-1.32-2.34-.83-.48-1.86-.47-2.69.01l-7.43,4.38,2.57,4.54c1.42-.44,2.22-1.52,3.04-2.65Z"/>
  </g>
</svg>