<?xml version="1.0" encoding="UTF-8"?>
<svg id="OBJECT" xmlns="http://www.w3.org/2000/svg" viewBox="0 0 32 32">
  <defs>
    <style>
      .cls-1 {
        fill: #FD4360;
      }

      .cls-1, .cls-2 {
        stroke-width: 0px;
      }

      .cls-2 {
        fill: #dadada;
      }
    </style>
  </defs>
  <g>
    <path class="cls-2" d="m28.33,9.15c-5.48-.54-11.89-3.81-13.72-4.8-.43-.23-.92-.36-1.42-.36h-2.25c-.25,0-.48.09-.67.26-3.81,3.42-7.42.17-7.58.01-.29-.27-.71-.35-1.08-.19s-.6.52-.6.92v13c0,.55.45,1,1,1h28c.55,0,1-.45,1-1v-5.85c0-1.56-1.15-2.85-2.67-3Zm-17.02-3.15h1.88c.17,0,.33.04.47.12.66.36,1.91,1,3.48,1.72l-1.3,1.11c-.09.08-.21.12-.33.12h-3.79c-.55,0-1,.45-1,1s.45,1,1,1h3.79c.59,0,1.17-.21,1.62-.6l2.06-1.76c2.69,1.09,5.93,2.14,8.94,2.43.49.05.87.49.87,1.01v.85H3v-6.09c2.1,1.1,5.24,1.63,8.31-.91ZM3,17v-2h26v2H3Z"/>
    <path class="cls-2" d="m8.5,11.07h.4c.55,0,1-.45,1-1s-.45-1-1-1h-.4c-.55,0-1,.45-1,1s.45,1,1,1Z"/>
  </g>
  <g>
    <path class="cls-1" d="m3.49,21c-.1.6-.04,1.22.26,1.74.46.79,1.28,1.26,2.17,1.26h3.16c.89,0,1.71-.46,2.17-1.25.3-.52.37-1.15.26-1.75H3.49Z"/>
    <path class="cls-1" d="m27.51,21h-8.02c-.1.6-.04,1.22.26,1.74.46.79,1.28,1.26,2.17,1.26h3.16c.89,0,1.71-.46,2.17-1.25.3-.52.37-1.15.26-1.75Z"/>
    <path class="cls-1" d="m6,25c-.55,0-1,.45-1,1v1c0,.55.45,1,1,1s1-.45,1-1v-1c0-.55-.45-1-1-1Z"/>
    <path class="cls-1" d="m9,25c-.55,0-1,.45-1,1v1c0,.55.45,1,1,1s1-.45,1-1v-1c0-.55-.45-1-1-1Z"/>
    <path class="cls-1" d="m22,25c-.55,0-1,.45-1,1v1c0,.55.45,1,1,1s1-.45,1-1v-1c0-.55-.45-1-1-1Z"/>
    <path class="cls-1" d="m25,25c-.55,0-1,.45-1,1v1c0,.55.45,1,1,1s1-.45,1-1v-1c0-.55-.45-1-1-1Z"/>
  </g>
</svg>