<?xml version="1.0" encoding="UTF-8"?>
<svg id="OBJECT" xmlns="http://www.w3.org/2000/svg" viewBox="0 0 32 32">
  <defs>
    <style>
      .cls-1 {
        fill: #FD4360;
      }

      .cls-1, .cls-2 {
        stroke-width: 0px;
      }

      .cls-2 {
        fill: #dadada;
      }
    </style>
  </defs>
  <g>
    <path class="cls-2" d="m30,16h-10v-2c0-.55-.45-1-1-1s-1,.45-1,1v10h-4v-10c0-.55-.45-1-1-1s-1,.45-1,1v2H2c-.55,0-1,.45-1,1v9c0,.55.45,1,1,1h10v1.5c0,1.38,1.12,2.5,2.5,2.5h3c1.38,0,2.5-1.12,2.5-2.5v-1.5h10c.55,0,1-.45,1-1v-9c0-.55-.45-1-1-1Zm-1,4.5h-3.5v-2.5h3.5v2.5Zm-5.5-2.5v2.5h-3.5v-2.5h3.5Zm-11.5,2.5h-3.5v-2.5h3.5v2.5Zm-5.5-2.5v2.5h-3.5v-2.5h3.5Zm-3.5,4.5h3.5v2.5h-3.5v-2.5Zm5.5,2.5v-2.5h3.5v2.5h-3.5Zm9,4h-3c-.28,0-.5-.22-.5-.5v-2.5h4v2.5c0,.28-.22.5-.5.5Zm2.5-6.5h3.5v2.5h-3.5v-2.5Zm5.5,2.5v-2.5h3.5v2.5h-3.5Z"/>
    <path class="cls-2" d="m16,20c.55,0,1-.45,1-1v-1c0-.55-.45-1-1-1s-1,.45-1,1v1c0,.55.45,1,1,1Z"/>
  </g>
  <path class="cls-1" d="m23,7h1c.55,0,1-.45,1-1s-.45-1-1-1h-4.38l-1-2h.88c.55,0,1-.45,1-1s-.45-1-1-1h-7c-.55,0-1,.45-1,1s.45,1,1,1h.88l-1,2h-4.38c-.55,0-1,.45-1,1s.45,1,1,1h1v1c0,2.21,1.79,4,4,4h6c2.21,0,4-1.79,4-4v-1Zm-7.38-4h.76l1,2h-2.76l1-2Z"/>
</svg>