<?xml version="1.0" encoding="UTF-8"?>
<svg id="OBJECT" xmlns="http://www.w3.org/2000/svg" viewBox="0 0 512 512">
  <defs>
    <style>
      .cls-1 {
        fill: #FD4360;
      }

      .cls-2 {
        fill: #dadada;
      }
    </style>
  </defs>
  <g>
    <path class="cls-2" d="M256,435c12.41,0,22.5-10.09,22.5-22.5v-90c0-12.41-10.09-22.5-22.5-22.5s-22.5,10.09-22.5,22.5v90c0,12.41,10.09,22.5,22.5,22.5Zm0-15c-4.14,0-7.5-3.36-7.5-7.5v-37.5h15v37.5c0,4.14-3.36,7.5-7.5,7.5Zm0-105c4.14,0,7.5,3.36,7.5,7.5v37.5h-15v-37.5c0-4.14,3.36-7.5,7.5-7.5Z"/>
    <path class="cls-2" d="M504.5,278.5h-153.5c-4.14,0-7.5,3.36-7.5,7.5v27.5h-35v-31c0-4.14-3.36-7.5-7.5-7.5s-7.5,3.36-7.5,7.5v174.5h-75v-174.5c0-4.14-3.36-7.5-7.5-7.5s-7.5,3.36-7.5,7.5v31h-35v-27.5c0-4.14-3.36-7.5-7.5-7.5H7.5c-4.14,0-7.5,3.36-7.5,7.5v140c0,4.14,3.36,7.5,7.5,7.5H161c4.14,0,7.5-3.36,7.5-7.5v-27.5h35v91c0,12.41,10.09,22.5,22.5,22.5h60c12.41,0,22.5-10.09,22.5-22.5v-91h35v27.5c0,4.14,3.36,7.5,7.5,7.5h153.5c4.14,0,7.5-3.36,7.5-7.5v-140c0-4.14-3.36-7.5-7.5-7.5Zm-7.5,70h-36.75v-55h36.75v55Zm-86.75,0v-55h35v55h-35Zm35,15v55h-35v-55h35Zm-50-70v55h-36.75v-55h36.75Zm-241.75,55h-36.75v-55h36.75v55Zm-86.75,0v-55h35v55h-35Zm35,15v55h-35v-55h35Zm-50-70v55H15v-55H51.75ZM15,363.5H51.75v55H15v-55Zm101.75,55v-55h36.75v55h-36.75Zm51.75-35v-55h35v55h-35Zm117.5,113.5h-60c-4.14,0-7.5-3.36-7.5-7.5v-17.5h75v17.5c0,4.14-3.36,7.5-7.5,7.5Zm22.5-113.5v-55h35v55h-35Zm50-20h36.75v55h-36.75v-55Zm101.75,55v-55h36.75v55h-36.75Z"/>
  </g>
  <g>
    <path class="cls-1" d="M378.5,125H133.5c-8.28,0-15,6.72-15,15v10H393.5v-10c0-8.28-6.72-15-15-15Z"/>
    <path class="cls-1" d="M218.14,110l19.82-39.64c5.36,2.95,11.51,4.64,18.05,4.64s12.69-1.69,18.05-4.64l19.82,39.64h16.77l-24.87-49.73c4.84-6.32,7.73-14.21,7.73-22.77,0-20.68-16.82-37.5-37.5-37.5s-37.5,16.82-37.5,37.5c0,8.56,2.89,16.45,7.73,22.77l-24.87,49.73h16.77Z"/>
    <path class="cls-1" d="M138.5,220c0,22.09,17.91,40,40,40h155c22.09,0,40-17.91,40-40v-15H138.5v15Z"/>
    <rect class="cls-1" x="138.5" y="165" width="235" height="25"/>
  </g>
</svg>