<?xml version="1.0" encoding="UTF-8"?>
<svg id="OBJECT" xmlns="http://www.w3.org/2000/svg" viewBox="0 0 512 512">
  <defs>
    <style>
      .cls-1 {
        fill: #FD4360;
      }

      .cls-2 {
        fill: #dadada;
      }
    </style>
  </defs>
  <g>
    <path class="cls-2" d="M489.5,190h-146v-12.5c0-4.14-3.36-7.5-7.5-7.5s-7.5,3.36-7.5,7.5v170.46c0,1.49-.44,2.92-1.26,4.16l-34.96,52.44c-2.47,3.71-3.78,8.02-3.78,12.48v29.96h-65v-29.96c0-4.46-1.31-8.77-3.78-12.48l-34.96-52.44c-.82-1.24-1.26-2.67-1.26-4.16V177.5c0-4.14-3.36-7.5-7.5-7.5s-7.5,3.36-7.5,7.5v12.5H22.5c-12.41,0-22.5,10.09-22.5,22.5v90c0,12.41,10.09,22.5,22.5,22.5H168.5v22.96c0,4.46,1.31,8.77,3.78,12.48l34.96,52.44c.82,1.24,1.26,2.67,1.26,4.16v67.46c0,15.16,12.34,27.5,27.5,27.5h40c15.16,0,27.5-12.34,27.5-27.5v-67.46c0-1.49,.44-2.92,1.26-4.16l34.96-52.44c2.47-3.71,3.78-8.02,3.78-12.48v-22.96h146c12.41,0,22.5-10.09,22.5-22.5v-90c0-12.41-10.09-22.5-22.5-22.5ZM69.25,250v-45h45v45h-45Zm45,15v45h-45v-45h45Zm15-60h39.25v45h-39.25v-45Zm-106.75,0h31.75v45H15v-37.5c0-4.14,3.36-7.5,7.5-7.5Zm-7.5,97.5v-37.5H54.25v45H22.5c-4.14,0-7.5-3.36-7.5-7.5Zm114.25,7.5v-45h39.25v45h-39.25Zm146.75,187h-40c-6.89,0-12.5-5.61-12.5-12.5v-22.5h65v22.5c0,6.89-5.61,12.5-12.5,12.5ZM497,212.5v37.5h-39.25v-45h31.75c4.14,0,7.5,3.36,7.5,7.5Zm-99.25,37.5v-45h45v45h-45Zm45,15v45h-45v-45h45Zm-60-60v45h-39.25v-45h39.25Zm-39.25,60h39.25v45h-39.25v-45Zm146,45h-31.75v-45h39.25v37.5c0,4.14-3.36,7.5-7.5,7.5Z"/>
    <path class="cls-2" d="M246,300h20c12.41,0,22.5-10.09,22.5-22.5v-70c0-12.41-10.09-22.5-22.5-22.5h-20c-12.41,0-22.5,10.09-22.5,22.5v70c0,12.41,10.09,22.5,22.5,22.5Zm20-15h-20c-4.14,0-7.5-3.36-7.5-7.5v-27.5h35v27.5c0,4.14-3.36,7.5-7.5,7.5Zm-20-85h20c4.14,0,7.5,3.36,7.5,7.5v27.5h-35v-27.5c0-4.14,3.36-7.5,7.5-7.5Z"/>
    <path class="cls-2" d="M223.5,355h5c4.14,0,7.5-3.36,7.5-7.5s-3.36-7.5-7.5-7.5h-5c-4.14,0-7.5,3.36-7.5,7.5s3.36,7.5,7.5,7.5Z"/>
    <path class="cls-2" d="M253.5,340c-4.14,0-7.5,3.36-7.5,7.5s3.36,7.5,7.5,7.5h5c4.14,0,7.5-3.36,7.5-7.5s-3.36-7.5-7.5-7.5h-5Z"/>
    <path class="cls-2" d="M283.5,340c-4.14,0-7.5,3.36-7.5,7.5s3.36,7.5,7.5,7.5h5c4.14,0,7.5-3.36,7.5-7.5s-3.36-7.5-7.5-7.5h-5Z"/>
  </g>
  <g>
    <rect class="cls-1" x="138.5" y="115" width="235" height="40" rx="15" ry="15"/>
    <path class="cls-1" d="M342.6,100c.59-4.13,.9-8.31,.9-12.5C343.5,39.25,304.25,0,256,0s-87.5,39.25-87.5,87.5c0,4.19,.31,8.37,.9,12.5h173.2ZM194.06,56.93c6.64-19.18,23.1-33.59,42.95-37.6,4.06-.82,8.02,1.81,8.84,5.87s-1.81,8.02-5.87,8.84c-14.67,2.96-26.84,13.62-31.75,27.8-1.07,3.1-3.98,5.05-7.09,5.05-.81,0-1.64-.13-2.45-.41-3.92-1.35-5.99-5.63-4.64-9.54Z"/>
  </g>
</svg>