<?xml version="1.0" encoding="UTF-8"?>
<svg id="OBJECT" xmlns="http://www.w3.org/2000/svg" viewBox="0 0 512 512">
  <defs>
    <style>
      .cls-1 {
        fill: #FD4360;
      }

      .cls-2 {
        fill: #dadada;
      }
    </style>
  </defs>
  <g>
    <path class="cls-2" d="M504.5,254.5h-171v-45c0-15.16-12.34-27.5-27.5-27.5h-100c-15.16,0-27.5,12.34-27.5,27.5v45H7.5c-4.14,0-7.5,3.36-7.5,7.5v120c0,4.14,3.36,7.5,7.5,7.5H178.5v45c0,15.16,12.34,27.5,27.5,27.5h2.5v42.5c0,4.14,3.36,7.5,7.5,7.5h80c4.14,0,7.5-3.36,7.5-7.5v-42.5h2.5c15.16,0,27.5-12.34,27.5-27.5v-45h171c4.14,0,7.5-3.36,7.5-7.5v-120c0-4.14-3.36-7.5-7.5-7.5Zm-435.25,60v-45h55v45h-55Zm55,15v45h-55v-45h55Zm15-60h39.25v45h-39.25v-45Zm-85,0v45H15v-45H54.25Zm-39.25,60H54.25v45H15v-45Zm124.25,45v-45h39.25v45h-39.25Zm149.25,122.5h-65v-35h65v35Zm30-62.5c0,6.89-5.61,12.5-12.5,12.5h-100c-6.89,0-12.5-5.61-12.5-12.5V209.5c0-6.89,5.61-12.5,12.5-12.5h100c6.89,0,12.5,5.61,12.5,12.5v225Zm178.5-120h-39.25v-45h39.25v45Zm-109.25,0v-45h55v45h-55Zm55,15v45h-55v-45h55Zm-70-60v45h-39.25v-45h39.25Zm-39.25,60h39.25v45h-39.25v-45Zm124.25,45v-45h39.25v45h-39.25Z"/>
    <path class="cls-2" d="M296,342h-80c-4.14,0-7.5,3.36-7.5,7.5s3.36,7.5,7.5,7.5h80c4.14,0,7.5-3.36,7.5-7.5s-3.36-7.5-7.5-7.5Z"/>
    <path class="cls-2" d="M281,367h-50c-12.41,0-22.5,10.09-22.5,22.5v20c0,12.41,10.09,22.5,22.5,22.5h50c12.41,0,22.5-10.09,22.5-22.5v-20c0-12.41-10.09-22.5-22.5-22.5Zm7.5,42.5c0,4.14-3.36,7.5-7.5,7.5h-50c-4.14,0-7.5-3.36-7.5-7.5v-20c0-4.14,3.36-7.5,7.5-7.5h50c4.14,0,7.5,3.36,7.5,7.5v20Z"/>
    <path class="cls-2" d="M281,212h-50c-12.41,0-22.5,10.09-22.5,22.5v50c0,12.41,10.09,22.5,22.5,22.5h50c12.41,0,22.5-10.09,22.5-22.5v-50c0-12.41-10.09-22.5-22.5-22.5Zm7.5,72.5c0,4.14-3.36,7.5-7.5,7.5h-50c-4.14,0-7.5-3.36-7.5-7.5v-50c0-4.14,3.36-7.5,7.5-7.5h50c4.14,0,7.5,3.36,7.5,7.5v50Z"/>
    <path class="cls-2" d="M271,392h-30c-4.14,0-7.5,3.36-7.5,7.5s3.36,7.5,7.5,7.5h30c4.14,0,7.5-3.36,7.5-7.5s-3.36-7.5-7.5-7.5Z"/>
    <path class="cls-2" d="M241,244.5c-4.14,0-7.5,3.36-7.5,7.5v15c0,4.14,3.36,7.5,7.5,7.5s7.5-3.36,7.5-7.5v-15c0-4.14-3.36-7.5-7.5-7.5Z"/>
    <path class="cls-2" d="M271,244.5c-4.14,0-7.5,3.36-7.5,7.5v15c0,4.14,3.36,7.5,7.5,7.5s7.5-3.36,7.5-7.5v-15c0-4.14-3.36-7.5-7.5-7.5Z"/>
  </g>
  <g>
    <path class="cls-1" d="M314.25,26.12c-2.97,2.89-3.04,7.63-.15,10.61,5.77,5.94,5.77,15.61,0,21.55-2.89,2.97-2.82,7.72,.15,10.61,1.46,1.42,3.34,2.12,5.22,2.12s3.91-.76,5.38-2.27c11.37-11.7,11.37-30.75,0-42.45-2.89-2.97-7.63-3.04-10.61-.15Z"/>
    <path class="cls-1" d="M346.45,2.27c-2.89-2.97-7.63-3.04-10.61-.15-2.97,2.89-3.04,7.63-.15,10.61,18.63,19.17,18.63,50.37,0,69.55-2.89,2.97-2.82,7.72,.15,10.61,1.46,1.42,3.34,2.12,5.22,2.12s3.91-.76,5.38-2.27c24.22-24.94,24.22-65.51,0-90.45Z"/>
    <path class="cls-1" d="M197.75,26.12c-2.97-2.89-7.72-2.82-10.61,.15-11.37,11.7-11.37,30.75,0,42.45,1.47,1.51,3.42,2.27,5.38,2.27s3.77-.7,5.23-2.12c2.97-2.89,3.04-7.63,.15-10.61-5.77-5.94-5.77-15.61,0-21.55,2.89-2.97,2.82-7.72-.15-10.61Z"/>
    <path class="cls-1" d="M176.16,2.12c-2.97-2.89-7.72-2.82-10.61,.15-24.23,24.94-24.23,65.51,0,90.45,1.47,1.51,3.42,2.27,5.38,2.27s3.77-.7,5.23-2.12c2.97-2.89,3.04-7.63,.15-10.61-18.63-19.17-18.63-50.37,0-69.55,2.89-2.97,2.82-7.72-.15-10.61Z"/>
    <rect class="cls-1" x="218.5" y="142" width="75" height="25"/>
    <path class="cls-1" d="M256,0c-26.19,0-47.5,21.31-47.5,47.5,0,23.64,17.36,43.3,40,46.9v32.6h15v-32.6c22.64-3.61,40-23.26,40-46.9,0-26.19-21.31-47.5-47.5-47.5Z"/>
  </g>
</svg>