<?xml version="1.0" encoding="UTF-8"?>
<svg id="OBJECT" xmlns="http://www.w3.org/2000/svg" viewBox="0 0 32 32">
  <defs>
    <style>
      .cls-1 {
        fill: #FD4360;
      }

      .cls-2 {
        fill: #dadada;
      }
    </style>
  </defs>
  <g>
    <path class="cls-2" d="M30,18h-9v-.08c0-.55-.45-1-1-1s-1,.45-1,1v10.08c0,.55-.45,1-1,1h-4c-.55,0-1-.45-1-1v-10.08c0-.55-.45-1-1-1s-1,.45-1,1v.08H2c-.55,0-1,.45-1,1v7c0,.55,.45,1,1,1H11v1c0,1.65,1.35,3,3,3h4c1.65,0,3-1.35,3-3v-1h9c.55,0,1-.45,1-1v-7c0-.55-.45-1-1-1Zm-19,7H3v-5H11v5Zm18,0h-8v-5h8v5Z"/>
    <path class="cls-2" d="M26.5,24c.55,0,1-.45,1-1v-1c0-.55-.45-1-1-1s-1,.45-1,1v1c0,.55,.45,1,1,1Z"/>
    <path class="cls-2" d="M23.5,24c.55,0,1-.45,1-1v-1c0-.55-.45-1-1-1s-1,.45-1,1v1c0,.55,.45,1,1,1Z"/>
    <path class="cls-2" d="M8.5,24c.55,0,1-.45,1-1v-1c0-.55-.45-1-1-1s-1,.45-1,1v1c0,.55,.45,1,1,1Z"/>
    <path class="cls-2" d="M5.5,24c.55,0,1-.45,1-1v-1c0-.55-.45-1-1-1s-1,.45-1,1v1c0,.55,.45,1,1,1Z"/>
    <path class="cls-2" d="M15.5,21h1c.55,0,1-.45,1-1s-.45-1-1-1h-1c-.55,0-1,.45-1,1s.45,1,1,1Z"/>
    <path class="cls-2" d="M15,23v4c0,.55,.45,1,1,1s1-.45,1-1v-4c0-.55-.45-1-1-1s-1,.45-1,1Z"/>
  </g>
  <path class="cls-1" d="M26,7h-5.38l-2-4h.38c.55,0,1-.45,1-1s-.45-1-1-1h-6c-.55,0-1,.45-1,1s.45,1,1,1h.38l-2,4H6c-.55,0-1,.45-1,1s.45,1,1,1h1.06c.5,4.49,4.32,8,8.94,8s8.44-3.51,8.94-8h1.06c.55,0,1-.45,1-1s-.45-1-1-1Zm-12.38,0l2-4h.76l2,4h-4.76Z"/>
</svg>