<?xml version="1.0" encoding="UTF-8"?>
<svg id="OBJECT" xmlns="http://www.w3.org/2000/svg" viewBox="0 0 32 32">
  <defs>
    <style>
      .cls-1 {
        fill: #FD4360;
      }

      .cls-1, .cls-2 {
        stroke-width: 0px;
      }

      .cls-2 {
        fill: #dadada;
      }
    </style>
  </defs>
  <path class="cls-2" d="m30.12,6.71l-4.83-4.83c-.57-.57-1.32-.88-2.12-.88H4c-1.65,0-3,1.35-3,3v24c0,1.65,1.35,3,3,3h24c1.65,0,3-1.35,3-3V8.83c0-.8-.31-1.56-.88-2.12Zm-14.12-3.71h2v3.5c0,.28-.22.5-.5.5h-1c-.28,0-.5-.22-.5-.5v-3.5Zm-8,0h2v3.5c0,.28-.22.5-.5.5h-1c-.28,0-.5-.22-.5-.5v-3.5Zm21,25c0,.55-.45,1-1,1H4c-.55,0-1-.45-1-1V4c0-.55.45-1,1-1h2v3.5c0,1.38,1.12,2.5,2.5,2.5h1c1.38,0,2.5-1.12,2.5-2.5v-3.5h2v3.5c0,1.38,1.12,2.5,2.5,2.5h1c1.38,0,2.5-1.12,2.5-2.5v-3.5h3.17c.26,0,.52.11.71.29l4.83,4.83c.19.19.29.44.29.71v19.17Z"/>
  <g>
    <path class="cls-1" d="m25.5,12H6.5c-.28,0-.5.22-.5.5v1.5h20v-1.5c0-.28-.22-.5-.5-.5Z"/>
    <path class="cls-1" d="m6,27h20v-11H6v11Zm3-8.25h14c.55,0,1,.45,1,1s-.45,1-1,1h-14c-.55,0-1-.45-1-1s.45-1,1-1Zm0,3.5h14c.55,0,1,.45,1,1s-.45,1-1,1h-14c-.55,0-1-.45-1-1s.45-1,1-1Z"/>
  </g>
</svg>