<?xml version="1.0" encoding="UTF-8"?>
<svg id="OBJECT" xmlns="http://www.w3.org/2000/svg" viewBox="0 0 32 32">
  <defs>
    <style>
      .cls-1 {
        fill: #FD4360;
      }

      .cls-1, .cls-2 {
        stroke-width: 0px;
      }

      .cls-2 {
        fill: #dadada;
      }
    </style>
  </defs>
  <g>
    <path class="cls-2" d="m27.4,8.87l-2.4-3.2v-2.67h1c.55,0,1-.45,1-1s-.45-1-1-1H6c-.55,0-1,.45-1,1s.45,1,1,1h1v2.67l-2.4,3.2c-.39.52-.6,1.15-.6,1.8v13.33c0,.55.45,1,1,1s1-.45,1-1v-13.33c0-.21.07-.43.2-.6l2.6-3.47c.13-.17.2-.38.2-.6v-3h14v3c0,.22.07.43.2.6l2.6,3.47c.13.17.2.38.2.6v13.33c0,.55.45,1,1,1s1-.45,1-1v-13.33c0-.65-.21-1.28-.6-1.8Z"/>
    <path class="cls-2" d="m16.75,12.5h-3c-.55,0-1,.45-1,1s.45,1,1,1h1.25v.5c0,.55.45,1,1,1s1-.45,1-1v-.53c1.26-.13,2.25-1.18,2.25-2.47,0-1.38-1.12-2.5-2.5-2.5h-1.5c-.28,0-.5-.22-.5-.5s.22-.5.5-.5h3c.55,0,1-.45,1-1s-.45-1-1-1h-1.25v-.5c0-.55-.45-1-1-1s-1,.45-1,1v.53c-1.26.13-2.25,1.18-2.25,2.47,0,1.38,1.12,2.5,2.5,2.5h1.5c.28,0,.5.22.5.5s-.22.5-.5.5Z"/>
    <path class="cls-2" d="m22.5,17h-13c-.55,0-1,.45-1,1v6c0,.55.45,1,1,1s1-.45,1-1v-1h11v1c0,.55.45,1,1,1s1-.45,1-1v-6c0-.55-.45-1-1-1Zm-1,4h-11v-2h11v2Z"/>
  </g>
  <path class="cls-1" d="m4,28c0,1.65,1.35,3,3,3h18c1.65,0,3-1.35,3-3v-1H4v1Z"/>
</svg>