<?xml version="1.0" encoding="UTF-8"?>
<svg id="OBJECT" xmlns="http://www.w3.org/2000/svg" viewBox="0 0 512 512">
  <defs>
    <style>
      .cls-1 {
        fill: #FD4360;
      }

      .cls-2 {
        fill: #dadada;
      }
    </style>
  </defs>
  <g>
    <path class="cls-2" d="M50,247.5c0,53.76,43.74,97.5,97.5,97.5s97.5-43.74,97.5-97.5-43.74-97.5-97.5-97.5-97.5,43.74-97.5,97.5Zm180,0c0,45.49-37.01,82.5-82.5,82.5s-82.5-37.01-82.5-82.5,37.01-82.5,82.5-82.5,82.5,37.01,82.5,82.5Z"/>
    <path class="cls-2" d="M143.54,203.33v-10.83c0-4.14-3.36-7.5-7.5-7.5s-7.5,3.36-7.5,7.5v12.63c-9.38,3.78-16.04,13.13-16.04,24.04,0,14.24,11.34,25.83,25.27,25.83h19.46c5.66,0,10.27,4.86,10.27,10.83s-4.61,10.83-10.27,10.83h-31.73c-4.14,0-7.5,3.36-7.5,7.5s3.36,7.5,7.5,7.5h3.04v10.83c0,4.14,3.36,7.5,7.5,7.5s7.5-3.36,7.5-7.5v-10.83h7.92v10.83c0,4.14,3.36,7.5,7.5,7.5s7.5-3.36,7.5-7.5v-12.62c9.38-3.78,16.04-13.13,16.04-24.04,0-14.25-11.34-25.83-25.27-25.83h-19.46c-5.66,0-10.27-4.86-10.27-10.83s4.61-10.83,10.27-10.83h31.73c4.14,0,7.5-3.36,7.5-7.5s-3.36-7.5-7.5-7.5h-3.04v-10.83c0-4.14-3.36-7.5-7.5-7.5s-7.5,3.36-7.5,7.5v10.83h-7.92Z"/>
    <path class="cls-2" d="M288.41,127.8l-23.41-23.41v-39.39h17.5c4.14,0,7.5-3.36,7.5-7.5V22.5c0-12.41-10.09-22.5-22.5-22.5H27.5C15.09,0,5,10.09,5,22.5V57.5c0,4.14,3.36,7.5,7.5,7.5H30v39.39L6.59,127.8c-4.25,4.25-6.59,9.9-6.59,15.91V442.5c0,12.41,10.09,22.5,22.5,22.5H214.5c4.14,0,7.5-3.36,7.5-7.5s-3.36-7.5-7.5-7.5H22.5c-4.14,0-7.5-3.36-7.5-7.5v-27.5H214.5c4.14,0,7.5-3.36,7.5-7.5s-3.36-7.5-7.5-7.5H15V143.71c0-2,.78-3.89,2.2-5.3l23.41-23.41H177.5c4.14,0,7.5-3.36,7.5-7.5s-3.36-7.5-7.5-7.5H45v-35H250v42.5c0,1.99,.79,3.9,2.2,5.3l25.61,25.61c1.42,1.42,2.2,3.3,2.2,5.3v130.79c0,4.14,3.36,7.5,7.5,7.5s7.5-3.36,7.5-7.5V143.71c0-6.01-2.34-11.66-6.59-15.91ZM20,22.5c0-4.14,3.36-7.5,7.5-7.5h240c4.14,0,7.5,3.36,7.5,7.5v27.5H20V22.5Z"/>
    <path class="cls-2" d="M207.5,115c4.14,0,7.5-3.36,7.5-7.5s-3.36-7.5-7.5-7.5h-5c-4.14,0-7.5,3.36-7.5,7.5s3.36,7.5,7.5,7.5h5Z"/>
  </g>
  <g>
    <path class="cls-1" d="M412,394.5v20c0,6.89,5.61,12.5,12.5,12.5h12.5v-45h-12.5c-6.89,0-12.5,5.61-12.5,12.5Z"/>
    <path class="cls-1" d="M484.5,297h-220c-15.16,0-27.5,12.34-27.5,27.5v160c0,15.16,12.34,27.5,27.5,27.5h220c15.16,0,27.5-12.34,27.5-27.5v-42.5h-87.5c-15.16,0-27.5-12.34-27.5-27.5v-20c0-15.16,12.34-27.5,27.5-27.5h87.5v-42.5c0-15.16-12.34-27.5-27.5-27.5Zm-192.5,162.5c0,4.14-3.36,7.5-7.5,7.5s-7.5-3.36-7.5-7.5v-10c0-4.14,3.36-7.5,7.5-7.5s7.5,3.36,7.5,7.5v10Zm0-50c0,4.14-3.36,7.5-7.5,7.5s-7.5-3.36-7.5-7.5v-10c0-4.14,3.36-7.5,7.5-7.5s7.5,3.36,7.5,7.5v10Zm0-50c0,4.14-3.36,7.5-7.5,7.5s-7.5-3.36-7.5-7.5v-10c0-4.14,3.36-7.5,7.5-7.5s7.5,3.36,7.5,7.5v10Z"/>
    <rect class="cls-1" x="452" y="382" width="60" height="45"/>
  </g>
</svg>