<?xml version="1.0" encoding="UTF-8"?>
<svg id="OBJECT" xmlns="http://www.w3.org/2000/svg" viewBox="0 0 32 32">
  <defs>
    <style>
      .cls-1 {
        fill: #FD4360;
      }

      .cls-1, .cls-2 {
        stroke-width: 0px;
      }

      .cls-2 {
        fill: #dadada;
      }
    </style>
  </defs>
  <path class="cls-2" d="m30,15h-.15l-.67-4h.82c.55,0,1-.45,1-1s-.45-1-1-1h-5.4c-.47,0-.87-.32-.98-.78l-.65-2.93c-.1-.46-.51-.78-.98-.78h-1.62c-.46-2-2.24-3.5-4.38-3.5s-3.92,1.5-4.38,3.5h-1.62c-.47,0-.87.33-.98.78l-.65,2.93c-.1.46-.5.78-.98.78H2c-.55,0-1,.45-1,1s.45,1,1,1h.82l-.67,4h-.15c-.55,0-1,.45-1,1v3c0,1.65,1.35,3,3,3h3c1.65,0,3-1.35,3-3v-3c0-.55-.45-1-1-1h-.15l-.68-4.11c1.07-.28,1.91-1.12,2.16-2.24l.48-2.15h.82c.46,2,2.24,3.5,4.38,3.5s3.92-1.5,4.38-3.5h.82l.48,2.15c.25,1.12,1.1,1.96,2.16,2.24l-.68,4.11h-.15c-.55,0-1,.45-1,1v3c0,1.65,1.35,3,3,3h3c1.65,0,3-1.35,3-3v-3c0-.55-.45-1-1-1Zm-22,4c0,.55-.45,1-1,1h-3c-.55,0-1-.45-1-1v-2h5v2Zm-3.82-4l.67-4h1.31l.67,4h-2.64Zm11.82-7c-1.38,0-2.5-1.12-2.5-2.5s1.12-2.5,2.5-2.5,2.5,1.12,2.5,2.5-1.12,2.5-2.5,2.5Zm9.85,3h1.31l.67,4h-2.64l.67-4Zm3.15,8c0,.55-.45,1-1,1h-3c-.55,0-1-.45-1-1v-2h5v2Z"/>
  <g>
    <path class="cls-1" d="m5,27v2c0,1.1.9,2,2,2h18c1.1,0,2-.9,2-2v-2H5Z"/>
    <path class="cls-1" d="m18,11.68c-.63.2-1.3.32-2,.32s-1.37-.11-2-.32v13.32h4v-13.32Z"/>
  </g>
</svg>