<?xml version="1.0" encoding="UTF-8"?>
<svg id="OBJECT" xmlns="http://www.w3.org/2000/svg" viewBox="0 0 32 32">
  <defs>
    <style>
      .cls-1 {
        fill: #FD4360;
      }

      .cls-1, .cls-2 {
        stroke-width: 0px;
      }

      .cls-2 {
        fill: #dadada;
      }
    </style>
  </defs>
  <g>
    <path class="cls-2" d="m25,1H5C2.79,1,1,2.79,1,5v8c0,2.21,1.79,4,4,4h17c.47,0,.88-.33.98-.79l3-14c.06-.3-.01-.6-.2-.84-.19-.23-.48-.37-.78-.37ZM5,3h9.48l-1.62,3.79c-.31.74-1.04,1.21-1.84,1.21H3v-3c0-1.1.9-2,2-2Zm-2,10v-3h8.02c1.6,0,3.05-.95,3.68-2.42l1.96-4.58h3.1l-2.57,12H5c-1.1,0-2-.9-2-2Zm18.19,2h-1.95l2.57-12h1.95l-2.57,12Z"/>
    <path class="cls-2" d="m30,8h-2.5c-.55,0-1,.45-1,1s.45,1,1,1h2.5c.55,0,1-.45,1-1s-.45-1-1-1Z"/>
    <path class="cls-2" d="m27.5,6.62c.17,0,.34-.04.5-.13l2.17-1.25c.48-.28.64-.89.37-1.37-.28-.48-.89-.64-1.37-.37l-2.17,1.25c-.48.28-.64.89-.37,1.37.19.32.52.5.87.5Z"/>
    <path class="cls-2" d="m30.17,12.76l-2.17-1.25c-.48-.28-1.09-.11-1.37.37-.28.48-.11,1.09.37,1.37l2.17,1.25c.16.09.33.13.5.13.35,0,.68-.18.87-.5.28-.48.11-1.09-.37-1.37Z"/>
    <path class="cls-2" d="m7.5,6.5h1c.55,0,1-.45,1-1s-.45-1-1-1h-1c-.55,0-1,.45-1,1s.45,1,1,1Z"/>
  </g>
  <g>
    <path class="cls-1" d="m2.54,27.37c-.19.89.03,1.81.6,2.51s1.42,1.11,2.33,1.11h3.29l2.57-12h-7l-1.79,8.37Z"/>
    <path class="cls-1" d="m13.38,19l-1.07,5h2.69c1.65,0,3-1.35,3-3v-2h-4.62Z"/>
  </g>
</svg>