<?xml version="1.0" encoding="UTF-8"?>
<svg id="OBJECT" xmlns="http://www.w3.org/2000/svg" viewBox="0 0 32 32">
  <defs>
    <style>
      .cls-1 {
        fill: #FD4360;
      }

      .cls-1, .cls-2 {
        stroke-width: 0px;
      }

      .cls-2 {
        fill: #dadada;
      }
    </style>
  </defs>
  <path class="cls-1" d="m30.21,11.01l-2.85-.6c-.54-.11-1.07.23-1.19.77s.23,1.07.77,1.19l2.85.6c.07.01.14.02.21.02.46,0,.88-.32.98-.79.11-.54-.23-1.07-.77-1.19Z"/>
  <path class="cls-1" d="m26.08,15.03c-.3-.46-.92-.59-1.38-.29-.46.3-.59.92-.29,1.38l.77,1.19c.19.29.51.46.84.46.19,0,.38-.05.54-.16.46-.3.59-.92.29-1.38l-.77-1.19Z"/>
  <path class="cls-1" d="m27.11,7.77c.19,0,.38-.05.54-.16l1.19-.77c.46-.3.59-.92.29-1.38-.3-.46-.92-.6-1.38-.29l-1.19.77c-.46.3-.59.92-.29,1.38.19.29.51.46.84.46Z"/>
  <path class="cls-1" d="m23.95,5.04c-.47-.65-1.23-1.04-2.03-1.04h-2.92v11h2c.43,0,.81-.28.95-.68l2.34-7.03c.25-.76.13-1.6-.34-2.25Z"/>
  <g>
    <path class="cls-2" d="m16,13H3.5c-.28,0-.5-.22-.5-.5v-6c0-.28.22-.5.5-.5h12.5c.55,0,1-.45,1-1s-.45-1-1-1H3.5c-1.38,0-2.5,1.12-2.5,2.5v6c0,1.38,1.12,2.5,2.5,2.5h.38l-.78,7.04c-1.19.19-2.1,1.22-2.1,2.46v2.5c0,.55.45,1,1,1h10c.55,0,1-.45,1-1v-2.5c0-1.38-1.12-2.5-2.5-2.5h-.39l.33-3h2.05c1.38,0,2.5-1.12,2.5-2.5v-1.5h1c.55,0,1-.45,1-1s-.45-1-1-1Zm-5,11.5v1.5H3v-1.5c0-.28.22-.5.5-.5h7c.28,0,.5.22.5.5Zm-5.89-2.5l.78-7h2.99l-.78,7h-2.99Zm7.89-5.5c0,.28-.22.5-.5.5h-1.83l.22-2h2.11v1.5Z"/>
    <path class="cls-2" d="m5.75,8.5c-.55,0-1,.45-1,1s.45,1,1,1h7.5c.55,0,1-.45,1-1s-.45-1-1-1h-7.5Z"/>
  </g>
</svg>