<?xml version="1.0" encoding="UTF-8"?>
<svg id="OBJECT" xmlns="http://www.w3.org/2000/svg" viewBox="0 0 32 32">
  <defs>
    <style>
      .cls-1 {
        fill: #FD4360;
      }

      .cls-2 {
        fill: #dadada;
      }
    </style>
  </defs>
  <path class="cls-2" d="M28.5,5h-.5v-1.5c0-1.38-1.12-2.5-2.5-2.5h-3c-1.38,0-2.5,1.12-2.5,2.5v1.5H12v-1.5c0-1.38-1.12-2.5-2.5-2.5h-3c-1.38,0-2.5,1.12-2.5,2.5v1.5h-.5c-1.38,0-2.5,1.12-2.5,2.5V28.5c0,1.38,1.12,2.5,2.5,2.5H28.5c1.38,0,2.5-1.12,2.5-2.5V7.5c0-1.38-1.12-2.5-2.5-2.5Zm-6.5-1.5c0-.28,.22-.5,.5-.5h3c.28,0,.5,.22,.5,.5v1.5h-4v-1.5ZM6,3.5c0-.28,.22-.5,.5-.5h3c.28,0,.5,.22,.5,.5v1.5H6v-1.5Zm-2.5,3.5H28.5c.28,0,.5,.22,.5,.5v2.5H3v-2.5c0-.28,.22-.5,.5-.5ZM28.5,29H3.5c-.28,0-.5-.22-.5-.5V12H29V28.5c0,.28-.22,.5-.5,.5Z"/>
  <g>
    <rect class="cls-1" x="4.5" y="13.5" width="6" height="6" rx="1" ry="1"/>
    <rect class="cls-1" x="21.5" y="13.5" width="6" height="6" rx="1" ry="1"/>
    <rect class="cls-1" x="4.5" y="21.5" width="6" height="6" rx="1" ry="1"/>
    <rect class="cls-1" x="13" y="21.5" width="6" height="6" rx="1" ry="1"/>
    <circle class="cls-1" cx="16" cy="16.5" r="3.1"/>
    <circle class="cls-1" cx="24.5" cy="24.5" r="3.1"/>
  </g>
</svg>