<?xml version="1.0" encoding="UTF-8"?>
<svg id="OBJECT" xmlns="http://www.w3.org/2000/svg" viewBox="0 0 32 32">
  <defs>
    <style>
      .cls-1 {
        fill: #FD4360;
      }

      .cls-1, .cls-2 {
        stroke-width: 0px;
      }

      .cls-2 {
        fill: #dadada;
      }
    </style>
  </defs>
  <path class="cls-1" d="m28.5,3h-1.5v-1c0-.55-.45-1-1-1h-6c-.55,0-1,.45-1,1v1h-6v-1c0-.55-.45-1-1-1h-6c-.55,0-1,.45-1,1v1h-1.5c-1.38,0-2.5,1.12-2.5,2.5v3.5h30v-3.5c0-1.38-1.12-2.5-2.5-2.5Z"/>
  <g>
    <path class="cls-2" d="m30,11c-.55,0-1,.45-1,1v16.5c0,.28-.22.5-.5.5H3.5c-.28,0-.5-.22-.5-.5V12c0-.55-.45-1-1-1s-1,.45-1,1v16.5c0,1.38,1.12,2.5,2.5,2.5h25c1.38,0,2.5-1.12,2.5-2.5V12c0-.55-.45-1-1-1Z"/>
    <path class="cls-2" d="m6,27h13.23c.55,0,1-.45,1-1v-3h5.77c.55,0,1-.45,1-1v-8c0-.55-.45-1-1-1H6c-.55,0-1,.45-1,1v12c0,.55.45,1,1,1Zm12.23-8v2h-5v-2h5Zm-5-2v-2h5v2h-5Zm-2,4h-4.23v-2h4.23v2Zm-4.23,2h4.23v2h-4.23v-2Zm6.23,2v-2h5v2h-5Zm7-4v-2h4.77v2h-4.77Zm4.77-4h-4.77v-2h4.77v2Zm-13.77-2v2h-4.23v-2h4.23Z"/>
  </g>
</svg>