<?xml version="1.0" encoding="UTF-8"?>
<svg id="OBJECT" xmlns="http://www.w3.org/2000/svg" viewBox="0 0 32 32">
  <defs>
    <style>
      .cls-1 {
        fill: #FD4360;
      }

      .cls-1, .cls-2 {
        stroke-width: 0px;
      }

      .cls-2 {
        fill: #dadada;
      }
    </style>
  </defs>
  <g>
    <path class="cls-2" d="m22,7.5h-.5c-.55,0-1,.45-1,1s.45,1,1,1h.5c.55,0,1-.45,1-1s-.45-1-1-1Z"/>
    <path class="cls-2" d="m19.12,15h-.5c-.55,0-1,.45-1,1s.45,1,1,1h.5c.55,0,1-.45,1-1s-.45-1-1-1Z"/>
    <path class="cls-2" d="m14.75,15h-.5c-.55,0-1,.45-1,1s.45,1,1,1h.5c.55,0,1-.45,1-1s-.45-1-1-1Z"/>
    <path class="cls-2" d="m10.38,15h-.5c-.55,0-1,.45-1,1s.45,1,1,1h.5c.55,0,1-.45,1-1s-.45-1-1-1Z"/>
    <path class="cls-2" d="m6,15h-.5c-.55,0-1,.45-1,1s.45,1,1,1h.5c.55,0,1-.45,1-1s-.45-1-1-1Z"/>
    <path class="cls-2" d="m23.5,15h-.5c-.55,0-1,.45-1,1s.45,1,1,1h.5c.55,0,1-.45,1-1s-.45-1-1-1Z"/>
    <path class="cls-2" d="m14.75,19h-.5c-.55,0-1,.45-1,1s.45,1,1,1h.5c.55,0,1-.45,1-1s-.45-1-1-1Z"/>
    <path class="cls-2" d="m10.38,19h-.5c-.55,0-1,.45-1,1s.45,1,1,1h.5c.55,0,1-.45,1-1s-.45-1-1-1Z"/>
    <path class="cls-2" d="m6,19h-.5c-.55,0-1,.45-1,1s.45,1,1,1h.5c.55,0,1-.45,1-1s-.45-1-1-1Z"/>
    <path class="cls-2" d="m14.75,23h-.5c-.55,0-1,.45-1,1s.45,1,1,1h.5c.55,0,1-.45,1-1s-.45-1-1-1Z"/>
    <path class="cls-2" d="m10.38,23h-.5c-.55,0-1,.45-1,1s.45,1,1,1h.5c.55,0,1-.45,1-1s-.45-1-1-1Z"/>
    <path class="cls-2" d="m6,23h-.5c-.55,0-1,.45-1,1s.45,1,1,1h.5c.55,0,1-.45,1-1s-.45-1-1-1Z"/>
    <path class="cls-2" d="m27,4h-2v-2c0-.55-.45-1-1-1h-5c-.55,0-1,.45-1,1v2h-7v-2c0-.55-.45-1-1-1h-5c-.55,0-1,.45-1,1v2h-2c-.55,0-1,.45-1,1v23c0,.55.45,1,1,1h14c.55,0,1-.45,1-1s-.45-1-1-1H3v-14h23v3.92c0,.55.45,1,1,1s1-.45,1-1V5c0-.55-.45-1-1-1Zm-7-1h3v1h-3v-1Zm-14,0h3v1h-3v-1Zm-3,8v-1.5h15c.55,0,1-.45,1-1s-.45-1-1-1H3v-1.5h23v5H3Z"/>
  </g>
  <path class="cls-1" d="m28.62,18.92h-8.25c-1.31,0-2.38,1.07-2.38,2.38v7.33c0,1.31,1.07,2.38,2.38,2.38h8.25c1.31,0,2.38-1.07,2.38-2.38v-7.33c0-1.31-1.07-2.38-2.38-2.38Zm-.12,6.04c0,1.88-1.53,3.4-3.4,3.4h-1.2c-1.88,0-3.4-1.53-3.4-3.4v-2.4c0-.55.45-1,1-1s1,.45,1,1v2.4c0,.77.63,1.4,1.4,1.4h1.2c.77,0,1.4-.63,1.4-1.4v-2.4c0-.55.45-1,1-1s1,.45,1,1v2.4Z"/>
</svg>