<?xml version="1.0" encoding="UTF-8"?>
<svg id="OBJECT" xmlns="http://www.w3.org/2000/svg" viewBox="0 0 32 32">
  <defs>
    <style>
      .cls-1 {
        fill: #FD4360;
      }

      .cls-1, .cls-2 {
        stroke-width: 0px;
      }

      .cls-2 {
        fill: #dadada;
      }
    </style>
  </defs>
  <path class="cls-2" d="m28,25h-2.5v-3.49c3.28-1.91,5.5-5.45,5.5-9.51,0-6.07-4.93-11-11-11s-11,4.93-11,11c0,4.06,2.22,7.61,5.5,9.51v3.49h-2.5c-.55,0-1,.45-1,1v1h-6c-1.1,0-2-.9-2-2v-10h.75c1.52,0,2.75-1.23,2.75-2.75v-2.5c0-1.52-1.23-2.75-2.75-2.75s-2.75,1.23-2.75,2.75v15.25c0,2.21,1.79,4,4,4h6v1c0,.55.45,1,1,1h16c.55,0,1-.45,1-1v-4c0-.55-.45-1-1-1ZM3,9.75c0-.41.34-.75.75-.75s.75.34.75.75v2.5c0,.41-.34.75-.75.75h-.75v-3.25Zm8,2.25c0-4.96,4.04-9,9-9s9,4.04,9,9-4.04,9-9,9-9-4.04-9-9Zm5.5,10.42c1.1.37,2.28.58,3.5.58s2.4-.21,3.5-.58v2.58h-7v-2.58Zm10.5,6.58h-14v-2h14v2Z"/>
  <path class="cls-1" d="m20,5.25c-3.72,0-6.75,3.03-6.75,6.75s3.03,6.75,6.75,6.75,6.75-3.03,6.75-6.75-3.03-6.75-6.75-6.75Zm2.05,8.8c-.2.2-.45.29-.71.29s-.51-.1-.71-.29l-1.34-1.34c-.19-.19-.29-.44-.29-.71v-2.11c0-.55.45-1,1-1s1,.45,1,1v1.69l1.05,1.05c.39.39.39,1.02,0,1.41Z"/>
</svg>