<?xml version="1.0" encoding="UTF-8"?>
<svg id="OBJECT" xmlns="http://www.w3.org/2000/svg" viewBox="0 0 32 32">
  <defs>
    <style>
      .cls-1 {
        fill: #FD4360;
      }

      .cls-1, .cls-2 {
        stroke-width: 0px;
      }

      .cls-2 {
        fill: #dadada;
      }
    </style>
  </defs>
  <g>
    <path class="cls-2" d="m30.69,8.39c-.29-.27-.71-.35-1.07-.2l-9.51,3.93c-.07-.08-.15-.15-.22-.22l3.93-9.51c.15-.37.07-.79-.2-1.07-.27-.29-.69-.38-1.06-.25l-4.34,1.56c-.95.33-1.74,1.04-2.2,2.03l-1.92,5.28c-.34.71-.43,1.52-.28,2.29-.65.75-1.07,1.71-1.07,2.78,0,2.34,1.91,4.25,4.25,4.25,1.07,0,2.03-.41,2.78-1.06.24.05.48.07.72.07.53,0,1.04-.11,1.49-.32l5.44-1.99c.92-.42,1.63-1.21,1.95-2.15l1.56-4.35c.13-.37.04-.79-.25-1.06Zm-12.82-2.98c.2-.42.56-.75,1.01-.91l2.23-.8-2.98,7.22c-.36-.1-.73-.17-1.12-.17s-.78.07-1.14.18c.03-.08.05-.15.08-.23l1.93-5.28Zm-.87,11.84c-1.24,0-2.25-1.01-2.25-2.25s1.01-2.25,2.25-2.25,2.25,1.01,2.25,2.25-1.01,2.25-2.25,2.25Zm10.49-4.11c-.15.44-.48.8-.83.97l-5.44,1.99s-.1.04-.15.05c.1-.37.18-.75.18-1.15s-.07-.76-.17-1.12l7.22-2.98-.8,2.24Z"/>
    <path class="cls-2" d="m16.54,14.04l-.5.5c-.39.39-.39,1.02,0,1.41.2.2.45.29.71.29s.51-.1.71-.29l.5-.5c.39-.39.39-1.02,0-1.41s-1.02-.39-1.41,0Z"/>
  </g>
  <g>
    <path class="cls-1" d="m10.47,19.32l1.33-.62c-.36-.56-.6-1.19-.72-1.87l-.79.37-1.85-2.02c-1.05-1.15-2.7-1.48-4.11-.82l-1.28.6c-1.76.83-2.53,2.94-1.71,4.7.58,1.25,1.83,2.05,3.21,2.05.5,0,1.02-.11,1.5-.33l4.43-2.06s0,0,0,0Zm-5.27.24c-.8.36-1.72,0-2.06-.74-.36-.77-.02-1.69.75-2.05l1.28-.6c.21-.1.43-.15.65-.15.42,0,.84.17,1.14.5l1.42,1.55-3.18,1.48Z"/>
    <path class="cls-1" d="m16.82,23.57l-2.02-1.85.37-.79c-.68-.11-1.31-.36-1.87-.72l-2.69,5.76c-.22.47-.33.99-.33,1.5,0,1.37.8,2.63,2.05,3.21.48.22.98.33,1.48.33,1.33,0,2.62-.76,3.22-2.04l.6-1.28c.66-1.41.33-3.06-.82-4.11Zm-.99,3.26l-.6,1.28c-.36.77-1.29,1.11-2.06.75-.54-.25-.89-.8-.89-1.39,0-.22.05-.45.15-.66l1.48-3.19,1.55,1.43c.5.46.64,1.18.36,1.79Z"/>
  </g>
</svg>