<?xml version="1.0" encoding="UTF-8"?>
<svg id="OBJECT" xmlns="http://www.w3.org/2000/svg" viewBox="0 0 32 32">
  <defs>
    <style>
      .cls-1 {
        fill: #FD4360;
      }

      .cls-1, .cls-2 {
        stroke-width: 0px;
      }

      .cls-2 {
        fill: #dadada;
      }
    </style>
  </defs>
  <path class="cls-1" d="m26,29h-7v-4h-6v4h-7c-.55,0-1,.45-1,1s.45,1,1,1h20c.55,0,1-.45,1-1s-.45-1-1-1Z"/>
  <g>
    <path class="cls-2" d="m28.5,1H3.5c-1.38,0-2.5,1.12-2.5,2.5v17c0,1.38,1.12,2.5,2.5,2.5h25c1.38,0,2.5-1.12,2.5-2.5V3.5c0-1.38-1.12-2.5-2.5-2.5Zm-13.5,20H3.5c-.28,0-.5-.22-.5-.5V7h12v14Zm14-.5c0,.28-.22.5-.5.5h-11.5V7h12v13.5Zm0-15.5H3v-1.5c0-.28.22-.5.5-.5h25c.28,0,.5.22.5.5v1.5Z"/>
    <path class="cls-2" d="m22.5,19h1c1.38,0,2.5-1.12,2.5-2.5v-5c0-1.38-1.12-2.5-2.5-2.5h-1c-1.38,0-2.5,1.12-2.5,2.5v5c0,1.38,1.12,2.5,2.5,2.5Zm-.5-7.5c0-.28.22-.5.5-.5h1c.28,0,.5.22.5.5v5c0,.28-.22.5-.5.5h-1c-.28,0-.5-.22-.5-.5v-5Z"/>
    <path class="cls-2" d="m8.5,19h1c1.38,0,2.5-1.12,2.5-2.5v-5c0-1.38-1.12-2.5-2.5-2.5h-1c-1.38,0-2.5,1.12-2.5,2.5v5c0,1.38,1.12,2.5,2.5,2.5Zm-.5-7.5c0-.28.22-.5.5-.5h1c.28,0,.5.22.5.5v5c0,.28-.22.5-.5.5h-1c-.28,0-.5-.22-.5-.5v-5Z"/>
  </g>
</svg>