<?xml version="1.0" encoding="UTF-8"?>
<svg id="OBJECT" xmlns="http://www.w3.org/2000/svg" viewBox="0 0 32 32">
  <defs>
    <style>
      .cls-1 {
        fill: #FD4360;
      }

      .cls-1, .cls-2 {
        stroke-width: 0px;
      }

      .cls-2 {
        fill: #dadada;
      }
    </style>
  </defs>
  <g>
    <path class="cls-2" d="m23.12,25.88l-5.01-5.01c.56-1.17.89-2.48.89-3.87,0-4.96-4.04-9-9-9S1,12.04,1,17s4.04,9,9,9c1.39,0,2.7-.32,3.87-.89l5.01,5.01c.58.58,1.35.88,2.12.88s1.54-.29,2.12-.88c1.17-1.17,1.17-3.07,0-4.24ZM3,17c0-3.86,3.14-7,7-7s7,3.14,7,7-3.14,7-7,7-7-3.14-7-7Zm14.03,5.61l2.56,2.56-1.41,1.41-2.56-2.56c.52-.42,1-.89,1.41-1.41Zm4.68,6.1c-.39.39-1.02.39-1.41,0l-.71-.71,1.41-1.41.71.71c.39.39.39,1.02,0,1.41Z"/>
    <path class="cls-2" d="m12.29,14.43l-3.03,3.03-1.56-1.56c-.39-.39-1.02-.39-1.41,0s-.39,1.02,0,1.41l2.27,2.27c.19.19.44.29.71.29s.52-.11.71-.29l3.73-3.73c.39-.39.39-1.02,0-1.41s-1.02-.39-1.41,0Z"/>
  </g>
  <path class="cls-1" d="m24.25,1c-3.72,0-6.75,3.03-6.75,6.75s3.03,6.75,6.75,6.75,6.75-3.03,6.75-6.75-3.03-6.75-6.75-6.75Zm2.35,9.1c-.2.2-.45.29-.71.29s-.51-.1-.71-.29l-1.64-1.64c-.19-.19-.29-.44-.29-.71v-2.46c0-.55.45-1,1-1s1,.45,1,1v2.05l1.35,1.35c.39.39.39,1.02,0,1.41Z"/>
</svg>