<?xml version="1.0" encoding="UTF-8"?>
<svg id="OBJECT" xmlns="http://www.w3.org/2000/svg" viewBox="0 0 32 32">
  <defs>
    <style>
      .cls-1 {
        fill: #FD4360;
      }

      .cls-2 {
        fill: #dadada;
      }
    </style>
  </defs>
  <g>
    <path class="cls-2" d="M12,20H6c-.55,0-1,.45-1,1s.45,1,1,1h6c.55,0,1-.45,1-1s-.45-1-1-1Z"/>
    <path class="cls-2" d="M12,15.5H6c-.55,0-1,.45-1,1s.45,1,1,1h6c.55,0,1-.45,1-1s-.45-1-1-1Z"/>
    <path class="cls-2" d="M15,11H6c-.55,0-1,.45-1,1s.45,1,1,1H15c.55,0,1-.45,1-1s-.45-1-1-1Z"/>
    <path class="cls-2" d="M20.71,7.29L14.71,1.29c-.19-.19-.44-.29-.71-.29H3.5c-1.38,0-2.5,1.12-2.5,2.5V23.5c0,1.38,1.12,2.5,2.5,2.5H13.9c.55,0,1-.45,1-1s-.45-1-1-1H3.5c-.28,0-.5-.22-.5-.5V3.5c0-.28,.22-.5,.5-.5H13v3.5c0,1.38,1.12,2.5,2.5,2.5h3.5v4.64c0,.55,.45,1,1,1s1-.45,1-1v-5.64c0-.27-.11-.52-.29-.71Zm-5.71-.79v-2.09l2.59,2.59h-2.09c-.28,0-.5-.22-.5-.5Z"/>
    <path class="cls-2" d="M6,7h.5c.55,0,1-.45,1-1s-.45-1-1-1h-.5c-.55,0-1,.45-1,1s.45,1,1,1Z"/>
    <path class="cls-2" d="M10.5,7c.55,0,1-.45,1-1s-.45-1-1-1h-.5c-.55,0-1,.45-1,1s.45,1,1,1h.5Z"/>
  </g>
  <g>
    <path class="cls-1" d="M30.26,26.69l-1.86-1.86c-.77,1.54-2.03,2.8-3.57,3.57l1.86,1.86c.48,.48,1.11,.74,1.79,.74s1.31-.26,1.79-.74c.48-.48,.74-1.11,.74-1.79s-.26-1.31-.74-1.79Z"/>
    <path class="cls-1" d="M27.25,21.25c0-3.31-2.69-6-6-6s-6,2.69-6,6,2.69,6,6,6,6-2.69,6-6Zm-3.02-.82l-2.78,3c-.19,.21-.46,.32-.73,.32s-.54-.12-.73-.32l-1.72-1.86c-.38-.41-.35-1.04,.05-1.41,.4-.38,1.04-.35,1.41,.05l.99,1.07,2.04-2.21c.38-.41,1.01-.43,1.41-.06,.41,.38,.43,1.01,.06,1.41Z"/>
  </g>
</svg>