<?xml version="1.0" encoding="UTF-8"?>
<svg id="OBJECT" xmlns="http://www.w3.org/2000/svg" viewBox="0 0 32 32">
  <defs>
    <style>
      .cls-1 {
        fill: #FD4360;
      }

      .cls-1, .cls-2 {
        stroke-width: 0px;
      }

      .cls-2 {
        fill: #dadada;
      }
    </style>
  </defs>
  <g>
    <path class="cls-2" d="m24.12,25.17l-5.79-5.79c.43-1.05.67-2.19.67-3.38,0-4.96-4.04-9-9-9S1,11.04,1,16s4.04,9,9,9c1.2,0,2.34-.24,3.38-.67l5.79,5.79c.58.58,1.35.88,2.12.88s1.54-.29,2.12-.88l.71-.71c.57-.57.88-1.32.88-2.12s-.31-1.55-.88-2.12ZM3,16c0-3.86,3.14-7,7-7s7,3.14,7,7-3.14,7-7,7-7-3.14-7-7Zm14.33,5.21l3.26,3.26-2.12,2.12-3.26-3.26c.82-.58,1.54-1.3,2.12-2.12Zm5.38,6.79l-.71.71c-.39.39-1.02.39-1.41,0l-.71-.71,2.12-2.12.71.71c.19.19.29.44.29.71s-.1.52-.29.71Z"/>
    <path class="cls-2" d="m11.97,13.53l-2.83,2.83-1.11-1.11c-.39-.39-1.02-.39-1.41,0s-.39,1.02,0,1.41l1.81,1.81c.2.2.45.29.71.29s.51-.1.71-.29l3.53-3.53c.39-.39.39-1.02,0-1.41s-1.02-.39-1.41,0Z"/>
  </g>
  <g>
    <path class="cls-1" d="m29.87,7.18c-.85,1.55-2.48,2.62-4.37,2.62s-3.52-1.07-4.37-2.62c-.7.92-1.13,2.07-1.13,3.32v1c0,1.38,1.12,2.5,2.5,2.5h6c1.38,0,2.5-1.12,2.5-2.5v-1c0-1.25-.42-2.4-1.13-3.32Z"/>
    <path class="cls-1" d="m25.5,7.8c1.65,0,3-1.35,3-3v-1.2c0-1.43-1.17-2.6-2.6-2.6h-.8c-1.43,0-2.6,1.17-2.6,2.6v1.2c0,1.65,1.35,3,3,3Z"/>
  </g>
</svg>