<?xml version="1.0" encoding="UTF-8"?>
<svg id="OBJECT" xmlns="http://www.w3.org/2000/svg" viewBox="0 0 32 32">
  <defs>
    <style>
      .cls-1 {
        fill: #FD4360;
      }

      .cls-2 {
        fill: #dadada;
      }
    </style>
  </defs>
  <g>
    <path class="cls-2" d="M30.12,15.88l-3.76-3.76c.41-.96,.64-2.02,.64-3.12,0-4.41-3.59-8-8-8s-8,3.59-8,8,3.59,8,8,8c1.11,0,2.16-.23,3.12-.64l3.76,3.76c.57,.57,1.32,.88,2.12,.88s1.55-.31,2.12-.88,.88-1.32,.88-2.12-.31-1.55-.88-2.12ZM13,9c0-3.31,2.69-6,6-6s6,2.69,6,6-2.69,6-6,6-6-2.69-6-6Zm15.71,9.71c-.38,.38-1.04,.38-1.41,0l-3.4-3.4c.53-.41,1-.89,1.41-1.41l3.4,3.4c.19,.19,.29,.44,.29,.71s-.1,.52-.29,.71Z"/>
    <path class="cls-2" d="M20.78,6.71l-2.36,2.45-1.2-1.24c-.38-.4-1.02-.41-1.41-.03-.4,.38-.41,1.02-.03,1.41l1.92,1.99c.19,.2,.45,.31,.72,.31s.53-.11,.72-.31l3.08-3.2c.38-.4,.37-1.03-.03-1.41-.4-.38-1.03-.37-1.41,.03Z"/>
  </g>
  <path class="cls-1" d="M15,18h-4.5c-.55,0-1-.45-1-1s.45-1,1-1h2l-.6-.8c-.56-.75-1.46-1.2-2.4-1.2s-1.84,.45-2.4,1.2l-2.1,2.8h-1c-1.65,0-3,1.35-3,3v7c0,1.65,1.35,3,3,3H15c1.65,0,3-1.35,3-3v-7c0-1.65-1.35-3-3-3Zm-9.5,3.75h4c.55,0,1,.45,1,1s-.45,1-1,1H5.5c-.55,0-1-.45-1-1s.45-1,1-1Zm8,5.5H5.5c-.55,0-1-.45-1-1s.45-1,1-1H13.5c.55,0,1,.45,1,1s-.45,1-1,1Z"/>
</svg>