<?xml version="1.0" encoding="UTF-8"?>
<svg id="OBJECT" xmlns="http://www.w3.org/2000/svg" viewBox="0 0 32 32">
  <defs>
    <style>
      .cls-1 {
        fill: #FD4360;
      }

      .cls-1, .cls-2 {
        stroke-width: 0px;
      }

      .cls-2 {
        fill: #dadada;
      }
    </style>
  </defs>
  <g>
    <path class="cls-2" d="m8.5,5h-2c-1.38,0-2.5,1.12-2.5,2.5v3c0,1.38,1.12,2.5,2.5,2.5h2c1.38,0,2.5-1.12,2.5-2.5v-3c0-1.38-1.12-2.5-2.5-2.5Zm.5,5.5c0,.28-.22.5-.5.5h-2c-.28,0-.5-.22-.5-.5v-3c0-.28.22-.5.5-.5h2c.28,0,.5.22.5.5v3Z"/>
    <path class="cls-2" d="m26.49,1.13c-.31-.18-.7-.17-1.01.01l-4.57,2.74-4.54-1.82c-.12-.05-.24-.07-.37-.07H4c-1.65,0-3,1.35-3,3v10c0,.55.45,1,1,1h14c.13,0,.25-.02.37-.07l4.54-1.82,4.57,2.74c.16.1.34.14.51.14s.34-.04.49-.13c.31-.18.51-.51.51-.87V2c0-.36-.19-.69-.51-.87Zm-10.69,12.87H3V5c0-.55.45-1,1-1h11v5c0,.55.45,1,1,1s1-.45,1-1v-4.52l3,1.2v6.65l-4.19,1.68Zm9.19.23l-3-1.8v-6.87l3-1.8v10.47Z"/>
    <path class="cls-2" d="m29,6h1c.55,0,1-.45,1-1s-.45-1-1-1h-1c-.55,0-1,.45-1,1s.45,1,1,1Z"/>
    <path class="cls-2" d="m30,8h-1c-.55,0-1,.45-1,1s.45,1,1,1h1c.55,0,1-.45,1-1s-.45-1-1-1Z"/>
    <path class="cls-2" d="m30,12h-1c-.55,0-1,.45-1,1s.45,1,1,1h1c.55,0,1-.45,1-1s-.45-1-1-1Z"/>
  </g>
  <g>
    <path class="cls-1" d="m20,23h-3c-1.65,0-3,1.35-3,3v2c0,.55-.45,1-1,1h-7.5c-.55,0-1-.45-1-1v-2.07c.86-.22,1.5-1,1.5-1.93v-6H1v8h1.5v2c0,1.65,1.35,3,3,3h7.5c1.65,0,3-1.35,3-3v-2c0-.55.45-1,1-1h3c.55,0,1-.45,1-1s-.45-1-1-1Z"/>
    <path class="cls-1" d="m25,23h-1c-.55,0-1,.45-1,1s.45,1,1,1h1c.55,0,1-.45,1-1s-.45-1-1-1Z"/>
    <path class="cls-1" d="m12,21v-3h-4v4h3c.55,0,1-.45,1-1Z"/>
  </g>
</svg>