<?xml version="1.0" encoding="UTF-8"?>
<svg id="OBJECT" xmlns="http://www.w3.org/2000/svg" viewBox="0 0 32 32">
  <defs>
    <style>
      .cls-1 {
        fill: #FD4360;
      }

      .cls-1, .cls-2 {
        stroke-width: 0px;
      }

      .cls-2 {
        fill: #dadada;
      }
    </style>
  </defs>
  <path class="cls-1" d="m24,17c-3.86,0-7,3.14-7,7s3.14,7,7,7,7-3.14,7-7-3.14-7-7-7Zm-.65,6h1.3c1.27,0,2.3,1.03,2.3,2.3,0,1.15-.85,2.09-1.94,2.26v.33c0,.55-.45,1-1,1s-1-.45-1-1v-.3h-.94c-.55,0-1-.45-1-1s.45-1,1-1h2.59c.16,0,.3-.13.3-.3s-.13-.3-.3-.3h-1.3c-1.27,0-2.3-1.03-2.3-2.3,0-1.15.85-2.09,1.94-2.26v-.33c0-.55.45-1,1-1s1,.45,1,1v.3h.94c.55,0,1,.45,1,1s-.45,1-1,1h-2.59c-.16,0-.3.13-.3.3s.13.3.3.3Z"/>
  <g>
    <path class="cls-2" d="m22.32,6.38c-5.35-1.83-11.3-1.83-16.65,0-.4.14-.68.52-.68.95v9.96c0,2.66,1.43,5.11,3.74,6.38l4.78,2.64c.15.08.32.12.48.12.35,0,.69-.19.88-.52.27-.48.09-1.09-.39-1.36l-4.78-2.64c-1.67-.92-2.7-2.69-2.7-4.63v-9.23c4.52-1.4,9.48-1.4,14,0v6.02c0,.55.45,1,1,1s1-.45,1-1v-6.75c0-.43-.27-.81-.68-.95Z"/>
    <path class="cls-2" d="m26.42,3.72C18.53.09,9.47.09,1.58,3.72c-.35.16-.58.52-.58.91v12.66c0,4.12,2.22,7.91,5.81,9.89l6.71,3.7c.15.08.32.12.48.12.18,0,.36-.05.52-.14l1.94-1.17c.47-.29.62-.9.34-1.37-.29-.47-.9-.62-1.37-.34l-1.45.87-6.2-3.42c-2.94-1.62-4.77-4.74-4.77-8.13V5.28c7.03-3.04,14.97-3.04,22,0v9.41c0,.55.45,1,1,1s1-.45,1-1V4.63c0-.39-.23-.75-.58-.91Z"/>
  </g>
</svg>