<?xml version="1.0" encoding="UTF-8"?>
<svg id="OBJECT" xmlns="http://www.w3.org/2000/svg" viewBox="0 0 32 32">
  <defs>
    <style>
      .cls-1 {
        fill: #FD4360;
      }

      .cls-1, .cls-2 {
        stroke-width: 0px;
      }

      .cls-2 {
        fill: #dadada;
      }
    </style>
  </defs>
  <path class="cls-2" d="m22.02,21.36c-.26-.23-.57-.41-.91-.53l-.78-.28c-1.13-.39-2.36,0-3.07.96l-1,1.37c-2.87-1.82-5.32-4.27-7.14-7.14l1.36-.99c.96-.7,1.36-1.96.96-3.08l-.28-.79c-.12-.33-.3-.65-.53-.91-3.44-3.9-6.08-2.91-6.37-2.78-.12.05-.22.12-.31.21l-2.16,2.16c-.49.49-.77,1.13-.79,1.79-.27,7.67,5.49,13.63,5.75,13.9.24.24,5.94,5.75,13.36,5.75.17,0,.35,0,.52,0,.67-.02,1.3-.3,1.79-.79l2.15-2.16c.09-.09.16-.19.21-.31.13-.29,1.12-2.92-2.78-6.37Zm.97,5.45l-1.96,1.97c-.13.13-.29.21-.45.21-6.79.22-12.36-5.11-12.4-5.15-.05-.06-5.41-5.59-5.17-12.41,0-.16.08-.32.21-.45l1.96-1.96c.46-.06,1.92-.02,3.96,2.29.06.07.11.16.14.25l.28.79c.1.29,0,.62-.25.8l-1.19.86c-.06-.11-.13-.22-.18-.34l-.64-1.31c-.24-.5-.84-.7-1.34-.46-.5.24-.7.84-.45,1.34l.64,1.31c2.41,4.89,6.43,8.91,11.32,11.32l1.31.64c.14.07.29.1.44.1.37,0,.72-.21.9-.56.24-.5.04-1.09-.46-1.34l-1.31-.64c-.12-.06-.22-.13-.34-.18l.87-1.19c.18-.25.51-.35.79-.25l.78.27c.09.03.18.08.25.14,2.33,2.06,2.34,3.53,2.29,3.95Z"/>
  <path class="cls-1" d="m30.69,4.15c-.2-.19-.47-.29-.74-.28-2.98.14-5.14-2.46-5.18-2.51-.19-.23-.47-.36-.77-.36h0c-.3,0-.58.13-.77.36-.02.03-2.23,2.64-5.18,2.51-.27,0-.54.09-.74.28-.2.19-.31.45-.31.72v5.02c0,3.17,1.7,6.14,4.43,7.75l2.06,1.22c.16.09.33.14.51.14s.35-.05.51-.14l2.06-1.22c2.73-1.61,4.43-4.58,4.43-7.75v-5.02c0-.27-.11-.53-.31-.72Zm-2.97,4.55l-3.85,4c-.19.2-.45.31-.72.31s-.53-.11-.72-.31l-2.15-2.23c-.38-.4-.37-1.03.03-1.41.4-.38,1.03-.37,1.41.03l1.43,1.48,3.13-3.25c.38-.4,1.02-.41,1.41-.03.4.38.41,1.02.03,1.41Z"/>
</svg>