<?xml version="1.0" encoding="UTF-8"?>
<svg id="OBJECT" xmlns="http://www.w3.org/2000/svg" viewBox="0 0 32 32">
  <defs>
    <style>
      .cls-1 {
        fill: #FD4360;
      }

      .cls-1, .cls-2 {
        stroke-width: 0px;
      }

      .cls-2 {
        fill: #dadada;
      }
    </style>
  </defs>
  <path class="cls-2" d="m22.7,6.41l-2.03-2.03c-2.18-2.18-5.07-3.38-8.15-3.38s-5.97,1.2-8.15,3.38C-.12,8.87-.12,16.18,4.37,20.68l2.03,2.03c.19.19.45.29.71.29.1,0,.2-.02.3-.05.36-.11.62-.41.69-.78.03-.16.71-3.8,3.79-3.91.28,0,.54-.13.72-.34.18-.21.27-.48.24-.76-.05-.47-.04-1.6.32-2.58l2.33,2.33c.2.2.45.29.71.29s.51-.1.71-.29c.39-.39.39-1.02,0-1.41l-2.33-2.33c.98-.36,2.12-.37,2.58-.32.27.03.55-.06.76-.24.21-.18.33-.44.34-.72.11-3.07,3.76-3.76,3.91-3.79.37-.06.67-.33.78-.68s.02-.75-.25-1.01Zm-16.92-.62c.57-.57,1.2-1.04,1.87-1.44,2.89,2.04,5.77,4.88,7.43,6.62-.92.17-1.96.52-2.79,1.24-.01.01-.03.03-.04.04,0,0,0,0,0,0s0,0,0,0c-.01.01-.03.03-.04.04-.72.83-1.07,1.86-1.24,2.79-1.74-1.66-4.58-4.54-6.62-7.43.4-.67.87-1.3,1.44-1.87Zm.86,14.33l-.86-.86c-2.57-2.57-3.36-6.24-2.38-9.5,2.15,2.83,4.79,5.47,6.38,6.97-1.57.71-2.58,2.1-3.14,3.39Zm10.08-10.33c-1.5-1.59-4.15-4.24-6.98-6.39.89-.27,1.82-.41,2.77-.41,2.54,0,4.94.99,6.74,2.79l.86.86c-1.29.56-2.68,1.57-3.39,3.14Z"/>
  <path class="cls-1" d="m23.5,16c-4.14,0-7.5,3.36-7.5,7.5s3.36,7.5,7.5,7.5,7.5-3.36,7.5-7.5-3.36-7.5-7.5-7.5Zm-.75,6.5h1.5c1.38,0,2.5,1.12,2.5,2.5,0,1.29-.99,2.35-2.25,2.47v.53c0,.55-.45,1-1,1s-1-.45-1-1v-.5h-1.25c-.55,0-1-.45-1-1s.45-1,1-1h3c.28,0,.5-.22.5-.5s-.22-.5-.5-.5h-1.5c-1.38,0-2.5-1.12-2.5-2.5,0-1.29.99-2.35,2.25-2.47v-.53c0-.55.45-1,1-1s1,.45,1,1v.5h1.25c.55,0,1,.45,1,1s-.45,1-1,1h-3c-.28,0-.5.22-.5.5s.22.5.5.5Z"/>
</svg>