<?xml version="1.0" encoding="UTF-8"?>
<svg id="OBJECT" xmlns="http://www.w3.org/2000/svg" viewBox="0 0 32 32">
  <defs>
    <style>
      .cls-1 {
        fill: #FD4360;
      }

      .cls-2 {
        fill: #dadada;
      }
    </style>
  </defs>
  <g>
    <path class="cls-2" d="M6,9.91c.55,0,1-.45,1-1v-.29c0-.55-.45-1-1-1s-1,.45-1,1v.29c0,.55,.45,1,1,1Z"/>
    <path class="cls-2" d="M5,13.3c0,1.93,.37,3.81,1.08,5.6,.16,.39,.53,.63,.93,.63,.12,0,.25-.02,.37-.07,.51-.21,.76-.79,.55-1.3-.62-1.55-.94-3.18-.94-4.85v-.91c0-.55-.45-1-1-1s-1,.45-1,1v.91Z"/>
    <path class="cls-2" d="M24,4c-5.13,0-10.47-2.85-10.52-2.88-.3-.16-.65-.16-.95,0-.05,.03-5.39,2.88-10.52,2.88-.55,0-1,.45-1,1V13.3c0,6.9,3.75,13.27,9.78,16.61l1.73,.96c.15,.08,.32,.13,.49,.13s.33-.04,.49-.13l1.95-1.09c.48-.27,.65-.88,.37-1.36-.27-.48-.89-.65-1.36-.37l-1.45,.81-1.25-.69C6.35,25.17,3,19.48,3,13.3V5.97c4.42-.26,8.61-2.16,10-2.85,1.39,.69,5.58,2.58,10,2.85v7.08c0,.55,.45,1,1,1s1-.45,1-1V5c0-.55-.45-1-1-1Z"/>
  </g>
  <path class="cls-1" d="M23,15c-4.41,0-8,3.59-8,8s3.59,8,8,8,8-3.59,8-8-3.59-8-8-8Zm3.7,6.79l-3.92,3.84c-.19,.19-.45,.29-.7,.29s-.51-.1-.7-.29l-2.08-2.04c-.39-.39-.4-1.02-.01-1.41,.39-.4,1.02-.4,1.41-.01l1.38,1.35,3.22-3.15c.4-.39,1.03-.38,1.41,.01,.39,.39,.38,1.03-.01,1.41Z"/>
</svg>