<?xml version="1.0" encoding="UTF-8"?>
<svg id="OBJECT" xmlns="http://www.w3.org/2000/svg" viewBox="0 0 32 32">
  <defs>
    <style>
      .cls-1 {
        fill: #FD4360;
      }

      .cls-1, .cls-2 {
        stroke-width: 0px;
      }

      .cls-2 {
        fill: #dadada;
      }
    </style>
  </defs>
  <path class="cls-1" d="m30.12,17c-4.05,0-5.44-1.34-5.48-1.39-.16-.18-.39-.27-.63-.28-.24-.03-.49.1-.66.28-.01.01-1.38,1.39-5.48,1.39-.48,0-.88.39-.88.88v5.12c0,1.73.78,3.33,2.13,4.4l4.33,3.42c.16.13.35.19.54.19s.38-.06.54-.19l4.33-3.42c1.35-1.07,2.13-2.67,2.13-4.4v-5.12c0-.48-.39-.88-.88-.88Zm-2.82,4.45l-3.61,2.98c-.19.15-.41.23-.64.23-.26,0-.51-.1-.71-.29l-1.73-1.73c-.39-.39-.39-1.02,0-1.41s1.02-.39,1.41,0l1.09,1.09,2.91-2.4c.43-.35,1.06-.29,1.41.14.35.43.29,1.06-.14,1.41Z"/>
  <g>
    <path class="cls-2" d="m7.5,19.18c-.55,0-1,.45-1,1s.45,1,1,1h4.7c.55,0,1-.45,1-1s-.45-1-1-1h-4.7Z"/>
    <path class="cls-2" d="m25.3,1H3.7c-1.49,0-2.7,1.21-2.7,2.7v3.98c0,.55.45,1,1,1h.7v14.91c0,.55.45,1,1,1h10.38c.55,0,1-.45,1-1s-.45-1-1-1H4.7v-13.91h5.6v2.52c0,.32.16.63.42.82.26.19.6.23.91.13l2.86-1.02,2.86,1.02c.11.04.22.06.33.06.2,0,.41-.06.58-.18.27-.19.42-.49.42-.82v-2.52h5.6v3.86c0,.55.45,1,1,1s1-.45,1-1v-3.86h.7c.55,0,1-.45,1-1v-3.98c0-1.49-1.21-2.7-2.7-2.7ZM3,6.68v-2.98c0-.39.32-.7.7-.7h6.6v3.68H3Zm13.7,3.11l-1.86-.66c-.11-.04-.22-.06-.33-.06s-.23.02-.33.06l-1.86.66V3h4.39v6.79Zm2-6.79h6.6c.39,0,.7.32.7.7v2.98h-7.3v-3.68Z"/>
  </g>
</svg>