<?xml version="1.0" encoding="UTF-8"?>
<svg id="OBJECT" xmlns="http://www.w3.org/2000/svg" viewBox="0 0 32 32">
  <defs>
    <style>
      .cls-1 {
        fill: #FD4360;
      }

      .cls-1, .cls-2 {
        stroke-width: 0px;
      }

      .cls-2 {
        fill: #dadada;
      }
    </style>
  </defs>
  <path class="cls-2" d="m24.7,6.91l-2.23-2.23C17.56-.23,9.58-.23,4.68,4.68-.23,9.58-.23,17.56,4.68,22.47l2.23,2.23c.19.19.45.29.71.29.1,0,.19-.01.28-.04.35-.1.62-.39.69-.75l.41-1.95c.36-1.71,1.99-2.82,3.71-2.54.28.04.55-.03.77-.2.22-.17.36-.42.38-.7.24-2.62,2.32-4.7,4.94-4.94.28-.03.53-.16.7-.38.17-.22.24-.5.2-.77-.28-1.72.83-3.35,2.54-3.71l1.95-.41c.36-.08.65-.34.75-.69.1-.35,0-.73-.25-.99ZM7.05,21.84l-.03.14-.93-.93c-2-2-3.1-4.65-3.1-7.48,0-1.46.3-2.86.85-4.16,2.4,3.29,5.26,6.61,6.92,8.47-1.82.51-3.3,1.98-3.72,3.95Zm5.3-5.19c-1.75-1.96-4.97-5.68-7.42-9.16.35-.49.73-.96,1.16-1.39s.9-.82,1.39-1.16c3.48,2.45,7.2,5.67,9.16,7.42-1.98.76-3.54,2.32-4.3,4.3Zm9.49-9.6c-1.97.42-3.44,1.89-3.95,3.72-1.87-1.67-5.18-4.53-8.47-6.92,1.3-.56,2.71-.85,4.16-.85,2.83,0,5.48,1.1,7.48,3.1l.93.93-.14.03Z"/>
  <g>
    <path class="cls-1" d="m29.53,22.13c-.91,2.16-3.05,3.67-5.53,3.67s-4.62-1.52-5.53-3.67c-.92,1.18-1.47,2.66-1.47,4.27v1.2c0,1.87,1.53,3.4,3.4,3.4h7.2c1.87,0,3.4-1.53,3.4-3.4v-1.2c0-1.61-.55-3.09-1.47-4.27Z"/>
    <path class="cls-1" d="m24,23.8c2.21,0,4-1.79,4-4v-1.8c0-1.87-1.53-3.4-3.4-3.4h-1.2c-1.87,0-3.4,1.53-3.4,3.4v1.8c0,2.21,1.79,4,4,4Z"/>
  </g>
</svg>