<?xml version="1.0" encoding="UTF-8"?>
<svg id="OBJECT" xmlns="http://www.w3.org/2000/svg" viewBox="0 0 32 32">
  <defs>
    <style>
      .cls-1 {
        fill: #FD4360;
      }

      .cls-1, .cls-2 {
        stroke-width: 0px;
      }

      .cls-2 {
        fill: #dadada;
      }
    </style>
  </defs>
  <g>
    <path class="cls-2" d="m8,1c-3.86,0-7,3.14-7,7s3.14,7,7,7,7-3.14,7-7S11.86,1,8,1Zm-2.75,11.17v-.42c0-.76.32-1.47.86-1.98.51.45,1.16.73,1.89.73s1.38-.28,1.89-.73c.54.51.86,1.22.86,1.98v.42c-.79.52-1.73.83-2.75.83s-1.96-.31-2.75-.83Zm1.88-4.54v-1.12c0-.28.22-.5.5-.5h.75c.28,0,.5.22.5.5v1.12c0,.48-.39.88-.88.88s-.88-.39-.88-.88Zm5.35,2.56c-.31-.88-.87-1.65-1.63-2.22.01-.11.03-.23.03-.35v-1.12c0-1.38-1.12-2.5-2.5-2.5h-.75c-1.38,0-2.5,1.12-2.5,2.5v1.12c0,.12.02.23.03.35-.76.57-1.32,1.34-1.63,2.22-.33-.66-.53-1.4-.53-2.19,0-2.76,2.24-5,5-5s5,2.24,5,5c0,.79-.2,1.52-.53,2.19Z"/>
    <path class="cls-2" d="m24,1c-3.86,0-7,3.14-7,7s3.14,7,7,7,7-3.14,7-7-3.14-7-7-7Zm-2.75,11.17v-.42c0-.76.32-1.47.86-1.98.51.45,1.16.73,1.89.73s1.38-.28,1.89-.73c.54.51.86,1.22.86,1.98v.42c-.79.52-1.73.83-2.75.83s-1.96-.31-2.75-.83Zm1.88-4.54v-1.12c0-.28.22-.5.5-.5h.75c.28,0,.5.22.5.5v1.12c0,.48-.39.88-.88.88s-.88-.39-.88-.88Zm5.35,2.56c-.31-.88-.87-1.65-1.63-2.22.01-.11.03-.23.03-.35v-1.12c0-1.38-1.12-2.5-2.5-2.5h-.75c-1.38,0-2.5,1.12-2.5,2.5v1.12c0,.12.02.23.03.35-.76.57-1.32,1.34-1.63,2.22-.33-.66-.53-1.4-.53-2.19,0-2.76,2.24-5,5-5s5,2.24,5,5c0,.79-.2,1.52-.53,2.19Z"/>
  </g>
  <path class="cls-1" d="m16.77,15.14c-.35-.51-1.2-.51-1.55,0l-6.07,8.99c-.22.33-.21.76.02,1.08.23.32.64.46,1.02.34l2.82-.85v3.92c0,1.32,1.07,2.39,2.39,2.39h1.18c1.32,0,2.39-1.07,2.39-2.39v-3.92l2.82.85c.38.12.79-.02,1.02-.34.23-.32.24-.75.02-1.08l-6.07-8.99Z"/>
</svg>