<?xml version="1.0" encoding="UTF-8"?>
<svg id="OBJECT" xmlns="http://www.w3.org/2000/svg" viewBox="0 0 32 32">
  <defs>
    <style>
      .cls-1 {
        fill: #FD4360;
      }

      .cls-2 {
        fill: #dadada;
      }
    </style>
  </defs>
  <g>
    <path class="cls-2" d="M24,1H8c-1.65,0-3,1.35-3,3v15c0,1.65,1.35,3,3,3H24c1.65,0,3-1.35,3-3V4c0-1.65-1.35-3-3-3Zm1,18c0,.55-.45,1-1,1H8c-.55,0-1-.45-1-1V4c0-.55,.45-1,1-1H24c.55,0,1,.45,1,1v15Z"/>
    <path class="cls-2" d="M19.59,12.4c-.19-.25-.49-.4-.8-.4s-.61,.15-.8,.4l-1.98,2.67-1.98-2.67c-.38-.51-1.23-.51-1.61,0l-3.71,5c-.33,.44-.24,1.07,.21,1.4,.18,.13,.39,.2,.6,.2,.31,0,.61-.14,.8-.4l2.91-3.92,1.54,2.07-.49,.65c-.33,.44-.24,1.07,.21,1.4,.45,.33,1.07,.24,1.4-.21l2.91-3.92,2.91,3.92c.2,.26,.5,.4,.8,.4,.21,0,.42-.06,.6-.2,.44-.33,.54-.96,.21-1.4l-3.71-5Z"/>
  </g>
  <g>
    <path class="cls-1" d="M22,26H10c-.55,0-1,.45-1,1s.45,1,1,1h12c.55,0,1-.45,1-1s-.45-1-1-1Z"/>
    <path class="cls-1" d="M7,26h-.5c-.55,0-1,.45-1,1s.45,1,1,1h.5c.55,0,1-.45,1-1s-.45-1-1-1Z"/>
    <path class="cls-1" d="M26.5,27c0-.55-.45-1-1-1h-.5c-.55,0-1,.45-1,1s.45,1,1,1h.5c.55,0,1-.45,1-1Z"/>
    <path class="cls-1" d="M3.41,27l2.29-2.29c.39-.39,.39-1.02,0-1.41s-1.02-.39-1.41,0l-3,3c-.39,.39-.39,1.02,0,1.41l3,3c.2,.2,.45,.29,.71,.29s.51-.1,.71-.29c.39-.39,.39-1.02,0-1.41l-2.29-2.29Z"/>
    <path class="cls-1" d="M30.71,26.29l-3-3c-.39-.39-1.02-.39-1.41,0s-.39,1.02,0,1.41l2.29,2.29-2.29,2.29c-.39,.39-.39,1.02,0,1.41,.2,.2,.45,.29,.71,.29s.51-.1,.71-.29l3-3c.39-.39,.39-1.02,0-1.41Z"/>
    <circle class="cls-1" cx="16" cy="8" r="3"/>
  </g>
</svg>