<?xml version="1.0" encoding="UTF-8"?>
<svg id="OBJECT" xmlns="http://www.w3.org/2000/svg" viewBox="0 0 32 32">
  <defs>
    <style>
      .cls-1 {
        fill: #FD4360;
      }

      .cls-1, .cls-2 {
        stroke-width: 0px;
      }

      .cls-2 {
        fill: #dadada;
      }
    </style>
  </defs>
  <g>
    <path class="cls-2" d="m16,1C7.73,1,1,7.73,1,16s6.73,15,15,15,15-6.73,15-15S24.27,1,16,1Zm0,28c-7.17,0-13-5.83-13-13S8.83,3,16,3s13,5.83,13,13-5.83,13-13,13Z"/>
    <path class="cls-2" d="m16,4.5c-6.34,0-11.5,5.16-11.5,11.5s5.16,11.5,11.5,11.5,11.5-5.16,11.5-11.5-5.16-11.5-11.5-11.5Zm0,21c-5.24,0-9.5-4.26-9.5-9.5s4.26-9.5,9.5-9.5,9.5,4.26,9.5,9.5-4.26,9.5-9.5,9.5Z"/>
  </g>
  <g>
    <path class="cls-1" d="m20.09,10.5h-8.59c-.28,0-.55.12-.74.33-.19.21-.28.49-.25.77l.79,7.69,8.79-8.79Z"/>
    <path class="cls-1" d="m18,21.2c-.55,0-1-.45-1-1s.45-1,1-1h2.72l.74-7.24-9.84,9.84c.34,1,1.27,1.7,2.36,1.7h4.04c1.29,0,2.36-.97,2.49-2.25v-.06s-2.51,0-2.51,0Z"/>
  </g>
</svg>