<?xml version="1.0" encoding="UTF-8"?>
<svg id="OBJECT" xmlns="http://www.w3.org/2000/svg" viewBox="0 0 32 32">
  <defs>
    <style>
      .cls-1 {
        fill: #FD4360;
      }

      .cls-2 {
        fill: #dadada;
      }
    </style>
  </defs>
  <path class="cls-2" d="M25,10.5c1.65,0,3-1.35,3-3v-2.5c0-.55-.45-1-1-1h-3.64c-.45-1.72-2-3-3.86-3h-7c-1.86,0-3.41,1.28-3.86,3h-3.64c-.55,0-1,.45-1,1v2.5c0,1.65,1.35,3,3,3h1.5v.75h-3.5c-.55,0-1,.45-1,1v2.5c0,1.65,1.35,3,3,3h1.5v.75h-3.5c-.55,0-1,.45-1,1v2.5c0,1.65,1.35,3,3,3h1.64c.41,1.56,1.73,2.74,3.36,2.95v1.05h-.5c-.55,0-1,.45-1,1s.45,1,1,1h9c.55,0,1-.45,1-1s-.45-1-1-1h-.5v-1.05c1.63-.21,2.95-1.39,3.36-2.95h1.64c1.65,0,3-1.35,3-3v-2.5c0-.55-.45-1-1-1h-3.5v-.75h1.5c1.65,0,3-1.35,3-3v-2.5c0-.55-.45-1-1-1h-3.5v-.75h1.5ZM7,8.5c-.55,0-1-.45-1-1v-1.5h2.5v2.5h-1.5Zm0,7.25c-.55,0-1-.45-1-1v-1.5h2.5v2.5h-1.5Zm-1,6.25v-1.5h2.5v2.5h-1.5c-.55,0-1-.45-1-1Zm8,7v-1h4v1h-4Zm7.5-5c0,1.1-.9,2-2,2h-7c-1.1,0-2-.9-2-2V5c0-1.1,.9-2,2-2h7c1.1,0,2,.9,2,2V24ZM26,7.5c0,.55-.45,1-1,1h-1.5v-2.5h2.5v1.5Zm0,13v1.5c0,.55-.45,1-1,1h-1.5v-2.5h2.5Zm0-7.25v1.5c0,.55-.45,1-1,1h-1.5v-2.5h2.5Z"/>
  <g>
    <rect class="cls-1" x="12" y="4" width="8" height="5.5" rx="2" ry="2"/>
    <rect class="cls-1" x="12" y="19.5" width="8" height="5.5" rx="2" ry="2"/>
    <rect class="cls-1" x="12" y="11.75" width="8" height="5.5" rx="2" ry="2"/>
  </g>
</svg>