<?xml version="1.0" encoding="UTF-8"?>
<svg id="OBJECT" xmlns="http://www.w3.org/2000/svg" viewBox="0 0 32 32">
  <defs>
    <style>
      .cls-1 {
        fill: #FD4360;
      }

      .cls-1, .cls-2 {
        stroke-width: 0px;
      }

      .cls-2 {
        fill: #dadada;
      }
    </style>
  </defs>
  <g>
    <path class="cls-2" d="m25,13H7c-1.65,0-3,1.35-3,3v12c0,1.65,1.35,3,3,3h18c1.65,0,3-1.35,3-3v-12c0-1.65-1.35-3-3-3Zm1,15c0,.55-.45,1-1,1H7c-.55,0-1-.45-1-1v-12c0-.55.45-1,1-1h18c.55,0,1,.45,1,1v12Z"/>
    <path class="cls-2" d="m23.25,16.79c-.39-.39-1.02-.39-1.41,0l-5.39,5.39c-.25.25-.65.25-.9,0l-5.39-5.39c-.39-.39-1.02-.39-1.41,0s-.39,1.02,0,1.41l3.79,3.79-3.79,3.79c-.39.39-.39,1.02,0,1.41.2.2.45.29.71.29s.51-.1.71-.29l3.79-3.79.18.18c.51.51,1.19.77,1.86.77s1.35-.26,1.86-.77l.18-.18,3.79,3.79c.2.2.45.29.71.29s.51-.1.71-.29c.39-.39.39-1.02,0-1.41l-3.79-3.79,3.79-3.79c.39-.39.39-1.02,0-1.41Z"/>
  </g>
  <g>
    <path class="cls-1" d="m24.5,9h-2c-.55,0-1,.45-1,1s.45,1,1,1h2c.55,0,1-.45,1-1s-.45-1-1-1Z"/>
    <path class="cls-1" d="m9.5,9h-2c-.55,0-1,.45-1,1s.45,1,1,1h2c.55,0,1-.45,1-1s-.45-1-1-1Z"/>
    <path class="cls-1" d="m16.62,1.22c-.37-.29-.88-.29-1.25,0l-4.5,3.6c-.43.35-.5.97-.16,1.41.35.43.97.5,1.41.16l.38-.3v3.92c0,.55.45,1,1,1h5c.55,0,1-.45,1-1v-3.92l.38.3c.18.15.41.22.62.22.29,0,.58-.13.78-.38.34-.43.27-1.06-.16-1.41l-4.5-3.6Z"/>
  </g>
</svg>