<?xml version="1.0" encoding="UTF-8"?>
<svg id="OBJECT" xmlns="http://www.w3.org/2000/svg" viewBox="0 0 32 32">
  <defs>
    <style>
      .cls-1 {
        fill: #FD4360;
      }

      .cls-1, .cls-2 {
        stroke-width: 0px;
      }

      .cls-2 {
        fill: #dadada;
      }
    </style>
  </defs>
  <g>
    <path class="cls-2" d="m28,19H4c-1.65,0-3,1.35-3,3v6c0,1.65,1.35,3,3,3h24c1.65,0,3-1.35,3-3v-6c0-1.65-1.35-3-3-3Zm1,9c0,.55-.45,1-1,1H4c-.55,0-1-.45-1-1v-6c0-.55.45-1,1-1h24c.55,0,1,.45,1,1v6Z"/>
    <path class="cls-2" d="m18.18,22.99c-.39-.39-1.02-.39-1.41,0l-.79.79-.79-.79c-.39-.39-1.02-.39-1.41,0s-.39,1.02,0,1.41l.79.79-.79.79c-.39.39-.39,1.02,0,1.41.2.2.45.29.71.29s.51-.1.71-.29l.79-.79.79.79c.2.2.45.29.71.29s.51-.1.71-.29c.39-.39.39-1.02,0-1.41l-.79-.79.79-.79c.39-.39.39-1.02,0-1.41Z"/>
    <path class="cls-2" d="m10.18,22.99c-.39-.39-1.02-.39-1.41,0l-.79.79-.79-.79c-.39-.39-1.02-.39-1.41,0s-.39,1.02,0,1.41l.79.79-.79.79c-.39.39-.39,1.02,0,1.41.2.2.45.29.71.29s.51-.1.71-.29l.79-.79.79.79c.2.2.45.29.71.29s.51-.1.71-.29c.39-.39.39-1.02,0-1.41l-.79-.79.79-.79c.39-.39.39-1.02,0-1.41Z"/>
    <path class="cls-2" d="m26.18,22.99c-.39-.39-1.02-.39-1.41,0l-.79.79-.79-.79c-.39-.39-1.02-.39-1.41,0s-.39,1.02,0,1.41l.79.79-.79.79c-.39.39-.39,1.02,0,1.41.2.2.45.29.71.29s.51-.1.71-.29l.79-.79.79.79c.2.2.45.29.71.29s.51-.1.71-.29c.39-.39.39-1.02,0-1.41l-.79-.79.79-.79c.39-.39.39-1.02,0-1.41Z"/>
  </g>
  <path class="cls-1" d="m11,17h10c1.1,0,2-.9,2-2v-5c0-1.1-.9-2-2-2h-.5v-4c0-1.65-1.35-3-3-3h-3c-1.65,0-3,1.35-3,3v4h-.5c-1.1,0-2,.9-2,2v5c0,1.1.9,2,2,2Zm6-3.5h-2c-.55,0-1-.45-1-1s.45-1,1-1h2c.55,0,1,.45,1,1s-.45,1-1,1Zm-3.5-9.5c0-.55.45-1,1-1h3c.55,0,1,.45,1,1v4h-5v-4Z"/>
</svg>