<?xml version="1.0" encoding="UTF-8"?>
<svg id="OBJECT" xmlns="http://www.w3.org/2000/svg" viewBox="0 0 32 32">
  <defs>
    <style>
      .cls-1 {
        fill: #FD4360;
      }

      .cls-1, .cls-2 {
        stroke-width: 0px;
      }

      .cls-2 {
        fill: #dadada;
      }
    </style>
  </defs>
  <g>
    <path class="cls-2" d="m26.33,14.41c.2-.31.38-.62.55-.94.16-.29.16-.65,0-.94-2.65-4.95-7.59-8.03-12.88-8.03S3.77,7.58,1.12,12.53c-.16.29-.16.65,0,.94,2.65,4.95,7.59,8.03,12.88,8.03,1.01,0,2.01-.12,3.01-.34.02.77.16,1.51.41,2.21l-2.54,2.54c-1.16,1.16-1.16,3.06,0,4.22.58.58,1.35.87,2.11.87s1.53-.29,2.11-.87l2.54-2.54c.74.27,1.53.42,2.36.42,3.86,0,7-3.14,7-7,0-3.04-1.95-5.63-4.67-6.59Zm-23.18-1.41c2.36-4.02,6.47-6.5,10.85-6.5s8.5,2.48,10.85,6.5c-.2.34-.43.68-.67,1.01-.06,0-.12,0-.19,0-3.17,0-5.85,2.12-6.71,5.02-1.08.31-2.18.48-3.29.48-4.39,0-8.5-2.48-10.85-6.5Zm14.53,15.71c-.37.37-1.02.37-1.39,0-.19-.19-.29-.43-.29-.7s.1-.51.29-.7l2.12-2.12c.4.53.86.99,1.39,1.39l-2.12,2.12Zm6.32-2.71c-2.76,0-5-2.24-5-5s2.24-5,5-5,5,2.24,5,5-2.24,5-5,5Z"/>
    <path class="cls-2" d="m25.28,19.05l-1.73,1.77-.84-.86c-.39-.4-1.02-.4-1.41-.02-.4.39-.4,1.02-.02,1.41l1.56,1.6c.19.19.45.3.72.3s.53-.11.72-.3l2.44-2.5c.39-.4.38-1.03-.02-1.41s-1.03-.38-1.41.02Z"/>
  </g>
  <g>
    <path class="cls-1" d="m13.63,3.79c.55,0,1-.45,1-1v-.79c0-.55-.45-1-1-1s-1,.45-1,1v.79c0,.55.45,1,1,1Z"/>
    <path class="cls-1" d="m8.8,2.29c-.28-.48-.89-.64-1.37-.37-.48.28-.64.89-.37,1.37l.39.68c.19.32.52.5.87.5.17,0,.34-.04.5-.13.48-.28.64-.89.37-1.37l-.39-.68Z"/>
    <path class="cls-1" d="m19.82,1.92c-.48-.28-1.09-.11-1.37.37l-.39.68c-.28.48-.11,1.09.37,1.37.16.09.33.13.5.13.35,0,.68-.18.87-.5l.39-.68c.28-.48.11-1.09-.37-1.37Z"/>
    <path class="cls-1" d="m17.92,12.24c-.86-.42-1.41-1.26-1.42-2.2,0-.04.01-.11.01-.14.02-.4-.21-.77-.56-.94-.63-.3-1.28-.46-1.95-.46-2.48,0-4.5,2.02-4.5,4.5s2.02,4.5,4.5,4.5,4.39-1.9,4.48-4.32c.02-.4-.21-.77-.56-.94Z"/>
  </g>
</svg>