<?xml version="1.0" encoding="UTF-8"?>
<svg id="OBJECT" xmlns="http://www.w3.org/2000/svg" viewBox="0 0 32 32">
  <defs>
    <style>
      .cls-1 {
        fill: #FD4360;
      }

      .cls-1, .cls-2 {
        stroke-width: 0px;
      }

      .cls-2 {
        fill: #dadada;
      }
    </style>
  </defs>
  <path class="cls-2" d="m26.92,2.58c-1.19-1.2-2.84-1.75-4.51-1.53-1.68.22-3.12,1.19-3.96,2.66l-1.57,2.74c-1.04-.54-2.35-.39-3.22.49l-1.25,1.25c-.39.39-.39,1.02,0,1.41l1.16,1.16-5.06,5.06c-.46.46-.76,1.06-.85,1.7l-.17,1.19-1.32,1.32c-.91.91-.91,2.38,0,3.28.45.45,1.05.68,1.64.68.59,0,1.19-.23,1.64-.68l1.32-1.32,1.19-.17c.64-.09,1.24-.39,1.7-.85l5.06-5.06,1.16,1.16c.2.2.45.29.71.29s.51-.1.71-.29l1.25-1.25c.87-.87,1.03-2.18.49-3.22l2.74-1.57c1.47-.84,2.44-2.28,2.66-3.96.22-1.67-.33-3.32-1.53-4.51Zm-14.66,16.99c-.15.15-.35.25-.57.28l-1.52.22c-.21.03-.41.13-.57.28l-1.56,1.56c-.13.13-.33.12-.46,0s-.13-.33,0-.46l1.56-1.56c.15-.15.25-.35.28-.57l.19-1.33h4.2l-1.56,1.56Zm3.56-3.56h-4.65l3.82-3.82,2.33,2.33-1.49,1.49Zm5.32-1.58l-.54.54-6.07-6.07.54-.54c.3-.3.78-.3,1.08,0l4.99,4.99c.3.3.3.78,0,1.08Zm5.32-7.6c-.14,1.05-.75,1.96-1.67,2.49l-3.09,1.77-3.29-3.29,1.77-3.09c.53-.92,1.43-1.53,2.49-1.67,1.06-.14,2.09.21,2.84.96s1.1,1.78.96,2.84Z"/>
  <path class="cls-1" d="m1,26v2c0,1.66,1.34,3,3,3h24c1.66,0,3-1.34,3-3v-2H1Z"/>
</svg>