<?xml version="1.0" encoding="UTF-8"?>
<svg id="OBJECT" xmlns="http://www.w3.org/2000/svg" viewBox="0 0 512 512">
  <defs>
    <style>
      .cls-1 {
        fill: #FD4360;
      }

      .cls-2 {
        fill: #dadada;
      }
    </style>
  </defs>
  <g>
    <path class="cls-2" d="M416,125c12.41,0,22.5-10.09,22.5-22.5V22.5c0-12.41-10.09-22.5-22.5-22.5H96c-12.41,0-22.5,10.09-22.5,22.5V102.5c0,12.41,10.09,22.5,22.5,22.5h2.5v20h-2.5c-12.41,0-22.5,10.09-22.5,22.5v80c0,12.41,10.09,22.5,22.5,22.5h42.5v22.5c0,12.41,10.09,22.5,22.5,22.5h190c12.41,0,22.5-10.09,22.5-22.5v-22.5h42.5c12.41,0,22.5-10.09,22.5-22.5v-80c0-12.41-10.09-22.5-22.5-22.5h-2.5v-20h2.5ZM88.5,102.5V22.5c0-4.14,3.36-7.5,7.5-7.5H416c4.14,0,7.5,3.36,7.5,7.5V102.5c0,4.14-3.36,7.5-7.5,7.5H96c-4.14,0-7.5-3.36-7.5-7.5Zm270,190c0,4.14-3.36,7.5-7.5,7.5H161c-4.14,0-7.5-3.36-7.5-7.5v-22.5h205v22.5Zm65-125v80c0,4.14-3.36,7.5-7.5,7.5H96c-4.14,0-7.5-3.36-7.5-7.5v-80c0-4.14,3.36-7.5,7.5-7.5H416c4.14,0,7.5,3.36,7.5,7.5Zm-25-22.5H113.5v-20H398.5v20Z"/>
    <path class="cls-2" d="M401,37.5h-130c-4.14,0-7.5,3.36-7.5,7.5v35c0,4.14,3.36,7.5,7.5,7.5h130c4.14,0,7.5-3.36,7.5-7.5V45c0-4.14-3.36-7.5-7.5-7.5Zm-7.5,35h-115v-20h115v20Z"/>
    <path class="cls-2" d="M136,30c-17.92,0-32.5,14.58-32.5,32.5s14.58,32.5,32.5,32.5,32.5-14.58,32.5-32.5-14.58-32.5-32.5-32.5Zm0,50c-9.65,0-17.5-7.85-17.5-17.5s7.85-17.5,17.5-17.5,17.5,7.85,17.5,17.5-7.85,17.5-17.5,17.5Z"/>
    <path class="cls-2" d="M216,30c-17.92,0-32.5,14.58-32.5,32.5s14.58,32.5,32.5,32.5,32.5-14.58,32.5-32.5-14.58-32.5-32.5-32.5Zm0,50c-9.65,0-17.5-7.85-17.5-17.5s7.85-17.5,17.5-17.5,17.5,7.85,17.5,17.5-7.85,17.5-17.5,17.5Z"/>
    <path class="cls-2" d="M271,232.5h130c4.14,0,7.5-3.36,7.5-7.5v-35c0-4.14-3.36-7.5-7.5-7.5h-130c-4.14,0-7.5,3.36-7.5,7.5v35c0,4.14,3.36,7.5,7.5,7.5Zm7.5-35h115v20h-115v-20Z"/>
    <path class="cls-2" d="M136,240c17.92,0,32.5-14.58,32.5-32.5s-14.58-32.5-32.5-32.5-32.5,14.58-32.5,32.5,14.58,32.5,32.5,32.5Zm0-50c9.65,0,17.5,7.85,17.5,17.5s-7.85,17.5-17.5,17.5-17.5-7.85-17.5-17.5,7.85-17.5,17.5-17.5Z"/>
    <path class="cls-2" d="M216,240c17.92,0,32.5-14.58,32.5-32.5s-14.58-32.5-32.5-32.5-32.5,14.58-32.5,32.5,14.58,32.5,32.5,32.5Zm0-50c9.65,0,17.5,7.85,17.5,17.5s-7.85,17.5-17.5,17.5-17.5-7.85-17.5-17.5,7.85-17.5,17.5-17.5Z"/>
  </g>
  <g>
    <rect class="cls-1" x="283.5" y="452" width="35" height="15" rx="2.5" ry="2.5"/>
    <rect class="cls-1" x="193.5" y="452" width="35" height="15" rx="2.5" ry="2.5"/>
    <path class="cls-1" d="M333.5,407H178.5c-8.28,0-15,6.72-15,15v75c0,8.28,6.72,15,15,15h155c8.28,0,15-6.72,15-15v-75c0-8.28-6.72-15-15-15Zm-90,57.5c0,9.65-7.85,17.5-17.5,17.5h-30c-9.65,0-17.5-7.85-17.5-17.5v-10c0-9.65,7.85-17.5,17.5-17.5h30c9.65,0,17.5,7.85,17.5,17.5v10Zm90,0c0,9.65-7.85,17.5-17.5,17.5h-30c-9.65,0-17.5-7.85-17.5-17.5v-10c0-9.65,7.85-17.5,17.5-17.5h30c9.65,0,17.5,7.85,17.5,17.5v10Z"/>
    <path class="cls-1" d="M88.5,459.5c0,4.14,3.36,7.5,7.5,7.5h52.5v-15h-52.5c-4.14,0-7.5,3.36-7.5,7.5Z"/>
    <path class="cls-1" d="M416,452h-52.5v15h52.5c4.14,0,7.5-3.36,7.5-7.5s-3.36-7.5-7.5-7.5Z"/>
    <path class="cls-1" d="M211,345h30c4.14,0,7.5-3.36,7.5-7.5s-3.36-7.5-7.5-7.5h-30c-4.14,0-7.5,3.36-7.5,7.5s3.36,7.5,7.5,7.5Z"/>
    <path class="cls-1" d="M248.5,367.5c0-4.14-3.36-7.5-7.5-7.5h-30c-4.14,0-7.5,3.36-7.5,7.5v24.5h45v-24.5Z"/>
    <path class="cls-1" d="M308.5,367.5c0-4.14-3.36-7.5-7.5-7.5h-30c-4.14,0-7.5,3.36-7.5,7.5v24.5h45v-24.5Z"/>
    <path class="cls-1" d="M271,345h30c4.14,0,7.5-3.36,7.5-7.5s-3.36-7.5-7.5-7.5h-30c-4.14,0-7.5,3.36-7.5,7.5s3.36,7.5,7.5,7.5Z"/>
    <circle class="cls-1" cx="474.5" cy="459.5" r="37.5"/>
    <circle class="cls-1" cx="37.5" cy="459.5" r="37.5"/>
  </g>
</svg>