<?xml version="1.0" encoding="UTF-8"?>
<svg id="OBJECT" xmlns="http://www.w3.org/2000/svg" viewBox="0 0 32 32">
  <defs>
    <style>
      .cls-1 {
        fill: #FD4360;
      }

      .cls-1, .cls-2 {
        stroke-width: 0px;
      }

      .cls-2 {
        fill: #dadada;
      }
    </style>
  </defs>
  <g>
    <path class="cls-2" d="m31,4c0-1.65-1.35-3-3-3H4c-1.65,0-3,1.35-3,3v3c0,.77.3,1.47.78,2-.48.53-.78,1.23-.78,2v3c0,1.65,1.35,3,3,3h8.5v3c0,.55.45,1,1,1s1-.45,1-1v-3h3v3c0,.55.45,1,1,1s1-.45,1-1v-3h8.5c1.65,0,3-1.35,3-3v-3c0-.77-.3-1.47-.78-2,.48-.53.78-1.23.78-2v-3Zm-28,0c0-.55.45-1,1-1h24c.55,0,1,.45,1,1v3c0,.55-.45,1-1,1H4c-.55,0-1-.45-1-1v-3Zm26,10c0,.55-.45,1-1,1H4c-.55,0-1-.45-1-1v-3c0-.55.45-1,1-1h24c.55,0,1,.45,1,1v3Z"/>
    <path class="cls-2" d="m5.5,7c.55,0,1-.45,1-1v-1c0-.55-.45-1-1-1s-1,.45-1,1v1c0,.55.45,1,1,1Z"/>
    <path class="cls-2" d="m8.5,7c.55,0,1-.45,1-1v-1c0-.55-.45-1-1-1s-1,.45-1,1v1c0,.55.45,1,1,1Z"/>
    <path class="cls-2" d="m12.5,6.5h14c.55,0,1-.45,1-1s-.45-1-1-1h-14c-.55,0-1,.45-1,1s.45,1,1,1Z"/>
    <path class="cls-2" d="m5.5,11c-.55,0-1,.45-1,1v1c0,.55.45,1,1,1s1-.45,1-1v-1c0-.55-.45-1-1-1Z"/>
    <path class="cls-2" d="m8.5,11c-.55,0-1,.45-1,1v1c0,.55.45,1,1,1s1-.45,1-1v-1c0-.55-.45-1-1-1Z"/>
    <path class="cls-2" d="m26.5,11.5h-14c-.55,0-1,.45-1,1s.45,1,1,1h14c.55,0,1-.45,1-1s-.45-1-1-1Z"/>
  </g>
  <g>
    <path class="cls-1" d="m30,24.75c0-.55-.45-1-1-1h-4v2h4c.55,0,1-.45,1-1Z"/>
    <path class="cls-1" d="m29,27.25h-4v2h4c.55,0,1-.45,1-1s-.45-1-1-1Z"/>
    <path class="cls-1" d="m2,24.75c0,.55.45,1,1,1h4v-2H3c-.55,0-1,.45-1,1Z"/>
    <path class="cls-1" d="m2,28.25c0,.55.45,1,1,1h4v-2H3c-.55,0-1,.45-1,1Z"/>
    <path class="cls-1" d="m21,22h-10c-1.1,0-2,.9-2,2v5c0,1.1.9,2,2,2h10c1.1,0,2-.9,2-2v-5c0-1.1-.9-2-2-2Zm-7,5.5h-1c-.55,0-1-.45-1-1s.45-1,1-1h1c.55,0,1,.45,1,1s-.45,1-1,1Zm5,0h-1c-.55,0-1-.45-1-1s.45-1,1-1h1c.55,0,1,.45,1,1s-.45,1-1,1Z"/>
  </g>
</svg>