<?xml version="1.0" encoding="UTF-8"?>
<svg id="OBJECT" xmlns="http://www.w3.org/2000/svg" viewBox="0 0 32 32">
  <defs>
    <style>
      .cls-1 {
        fill: #FD4360;
      }

      .cls-1, .cls-2 {
        stroke-width: 0px;
      }

      .cls-2 {
        fill: #dadada;
      }
    </style>
  </defs>
  <g>
    <path class="cls-2" d="m31,4c0-1.65-1.35-3-3-3H4c-1.65,0-3,1.35-3,3v3c0,.77.3,1.47.78,2-.48.53-.78,1.23-.78,2v3c0,1.65,1.35,3,3,3h24c1.65,0,3-1.35,3-3v-3c0-.77-.3-1.47-.78-2,.48-.53.78-1.23.78-2v-3Zm-28,0c0-.55.45-1,1-1h24c.55,0,1,.45,1,1v3c0,.55-.45,1-1,1H4c-.55,0-1-.45-1-1v-3Zm26,10c0,.55-.45,1-1,1H4c-.55,0-1-.45-1-1v-3c0-.55.45-1,1-1h24c.55,0,1,.45,1,1v3Z"/>
    <path class="cls-2" d="m6,11.5h-1c-.55,0-1,.45-1,1s.45,1,1,1h1c.55,0,1-.45,1-1s-.45-1-1-1Z"/>
    <path class="cls-2" d="m10,11.5h-1c-.55,0-1,.45-1,1s.45,1,1,1h1c.55,0,1-.45,1-1s-.45-1-1-1Z"/>
    <path class="cls-2" d="m27,11.5h-12c-.55,0-1,.45-1,1s.45,1,1,1h12c.55,0,1-.45,1-1s-.45-1-1-1Z"/>
    <path class="cls-2" d="m5,6.5h1c.55,0,1-.45,1-1s-.45-1-1-1h-1c-.55,0-1,.45-1,1s.45,1,1,1Z"/>
    <path class="cls-2" d="m9,6.5h1c.55,0,1-.45,1-1s-.45-1-1-1h-1c-.55,0-1,.45-1,1s.45,1,1,1Z"/>
    <path class="cls-2" d="m15,6.5h12c.55,0,1-.45,1-1s-.45-1-1-1h-12c-.55,0-1,.45-1,1s.45,1,1,1Z"/>
  </g>
  <g>
    <path class="cls-1" d="m26,22c-.77,0-1.46.3-1.99.77l-1.99-1.08c-.32-.18-.52-.51-.52-.88v-1.81h-2v1.81c0,1.1.6,2.11,1.56,2.63l1.98,1.08c-.02.15-.05.31-.05.47,0,1.65,1.35,3,3,3s3-1.35,3-3-1.35-3-3-3Z"/>
    <path class="cls-1" d="m12.5,19h-2v1.81c0,.37-.2.7-.52.88l-1.99,1.08c-.53-.48-1.22-.77-1.99-.77-1.65,0-3,1.35-3,3s1.35,3,3,3,3-1.35,3-3c0-.16-.02-.32-.05-.47l1.98-1.08c.96-.53,1.56-1.53,1.56-2.63v-1.81Z"/>
    <path class="cls-1" d="m17,24.16v-5.16h-2v5.16c-1.44.43-2.5,1.76-2.5,3.34,0,1.93,1.57,3.5,3.5,3.5s3.5-1.57,3.5-3.5c0-1.58-1.06-2.9-2.5-3.34Z"/>
  </g>
</svg>