<?xml version="1.0" encoding="UTF-8"?>
<svg id="OBJECT" xmlns="http://www.w3.org/2000/svg" viewBox="0 0 32 32">
  <defs>
    <style>
      .cls-1 {
        fill: #FD4360;
      }

      .cls-1, .cls-2 {
        stroke-width: 0px;
      }

      .cls-2 {
        fill: #dadada;
      }
    </style>
  </defs>
  <path class="cls-2" d="m28.5,24.16v-3.32c0-1.84-1.25-3.44-3.03-3.88l-5.05-1.26c-.32-1.77-1.68-3.18-3.42-3.58v-1.12c0-.55-.45-1-1-1s-1,.45-1,1v1.12c-1.74.4-3.1,1.81-3.42,3.58l-5.05,1.26c-1.78.45-3.03,2.04-3.03,3.88v3.32c-1.44.43-2.5,1.76-2.5,3.34,0,1.93,1.57,3.5,3.5,3.5s3.5-1.57,3.5-3.5c0-1.58-1.06-2.9-2.5-3.34v-3.32c0-.92.62-1.72,1.51-1.94l4.68-1.17c.45,1.56,1.71,2.78,3.31,3.15v3.28c-1.44.43-2.5,1.76-2.5,3.34,0,1.93,1.57,3.5,3.5,3.5s3.5-1.57,3.5-3.5c0-1.58-1.06-2.9-2.5-3.34v-3.28c1.6-.37,2.86-1.58,3.31-3.15l4.68,1.17c.89.22,1.51,1.02,1.51,1.94v3.32c-1.44.43-2.5,1.76-2.5,3.34,0,1.93,1.57,3.5,3.5,3.5s3.5-1.57,3.5-3.5c0-1.58-1.06-2.9-2.5-3.34Zm-22.5,3.34c0,.83-.67,1.5-1.5,1.5s-1.5-.67-1.5-1.5.67-1.5,1.5-1.5,1.5.67,1.5,1.5Zm11.5,0c0,.83-.67,1.5-1.5,1.5s-1.5-.67-1.5-1.5.67-1.5,1.5-1.5,1.5.67,1.5,1.5Zm-1.5-8.5c-1.38,0-2.5-1.12-2.5-2.5s1.12-2.5,2.5-2.5,2.5,1.12,2.5,2.5-1.12,2.5-2.5,2.5Zm11.5,10c-.83,0-1.5-.67-1.5-1.5s.67-1.5,1.5-1.5,1.5.67,1.5,1.5-.67,1.5-1.5,1.5Z"/>
  <g>
    <path class="cls-1" d="m29,1H12v8h17c1.1,0,2-.9,2-2V3c0-1.1-.9-2-2-2Zm-13,5h-1c-.55,0-1-.45-1-1s.45-1,1-1h1c.55,0,1,.45,1,1s-.45,1-1,1Zm12,0h-9c-.55,0-1-.45-1-1s.45-1,1-1h9c.55,0,1,.45,1,1s-.45,1-1,1Z"/>
    <path class="cls-1" d="m1,3v4c0,1.1.9,2,2,2h7V1H3c-1.1,0-2,.9-2,2Zm4,1h1c.55,0,1,.45,1,1s-.45,1-1,1h-1c-.55,0-1-.45-1-1s.45-1,1-1Z"/>
  </g>
</svg>