<?xml version="1.0" encoding="UTF-8"?>
<svg id="OBJECT" xmlns="http://www.w3.org/2000/svg" viewBox="0 0 32 32">
  <defs>
    <style>
      .cls-1 {
        fill: #FD4360;
      }

      .cls-1, .cls-2 {
        stroke-width: 0px;
      }

      .cls-2 {
        fill: #dadada;
      }
    </style>
  </defs>
  <g>
    <path class="cls-2" d="m31,4c0-1.65-1.35-3-3-3H4c-1.65,0-3,1.35-3,3v4c0,.77.3,1.47.78,2-.48.53-.78,1.23-.78,2v4c0,1.65,1.35,3,3,3h24c1.65,0,3-1.35,3-3v-4c0-.77-.3-1.47-.78-2,.48-.53.78-1.23.78-2v-4Zm-28,0c0-.55.45-1,1-1h24c.55,0,1,.45,1,1v4c0,.55-.45,1-1,1H4c-.55,0-1-.45-1-1v-4Zm26,12c0,.55-.45,1-1,1H4c-.55,0-1-.45-1-1v-4c0-.55.45-1,1-1h24c.55,0,1,.45,1,1v4Z"/>
    <path class="cls-2" d="m16.5,7h10c.55,0,1-.45,1-1s-.45-1-1-1h-10c-.55,0-1,.45-1,1s.45,1,1,1Z"/>
    <path class="cls-2" d="m6,7h1c.55,0,1-.45,1-1s-.45-1-1-1h-1c-.55,0-1,.45-1,1s.45,1,1,1Z"/>
    <path class="cls-2" d="m11,7h1c.55,0,1-.45,1-1s-.45-1-1-1h-1c-.55,0-1,.45-1,1s.45,1,1,1Z"/>
    <path class="cls-2" d="m26.5,13h-10c-.55,0-1,.45-1,1s.45,1,1,1h10c.55,0,1-.45,1-1s-.45-1-1-1Z"/>
    <path class="cls-2" d="m7,13h-1c-.55,0-1,.45-1,1s.45,1,1,1h1c.55,0,1-.45,1-1s-.45-1-1-1Z"/>
    <path class="cls-2" d="m12,13h-1c-.55,0-1,.45-1,1s.45,1,1,1h1c.55,0,1-.45,1-1s-.45-1-1-1Z"/>
  </g>
  <g>
    <path class="cls-1" d="m8.5,21.17c0,.26-.11.52-.29.71l-1.42,1.42c-.39-.19-.82-.3-1.29-.3-1.65,0-3,1.35-3,3s1.35,3,3,3,3-1.35,3-3c0-.46-.11-.89-.3-1.29l1.42-1.42c.57-.57.88-1.32.88-2.12v-1.17h-2v1.17Z"/>
    <path class="cls-1" d="m26.5,23c-.46,0-.89.11-1.29.3l-1.42-1.42c-.19-.19-.29-.44-.29-.71v-1.17h-2v1.17c0,.8.31,1.55.88,2.12l1.42,1.42c-.19.39-.3.82-.3,1.29,0,1.65,1.35,3,3,3s3-1.35,3-3-1.35-3-3-3Z"/>
    <path class="cls-1" d="m17,23.14v-3.14h-2v3.14c-1.72.45-3,2-3,3.86,0,2.21,1.79,4,4,4s4-1.79,4-4c0-1.86-1.28-3.41-3-3.86Z"/>
  </g>
</svg>