<?xml version="1.0" encoding="UTF-8"?>
<svg id="OBJECT" xmlns="http://www.w3.org/2000/svg" viewBox="0 0 512 512">
  <defs>
    <style>
      .cls-1 {
        fill: #FD4360;
      }

      .cls-2 {
        fill: #dadada;
      }
    </style>
  </defs>
  <g>
    <path class="cls-2" d="M221,487c4.14,0,7.5-3.36,7.5-7.5v-10c0-4.14-3.36-7.5-7.5-7.5s-7.5,3.36-7.5,7.5v10c0,4.14,3.36,7.5,7.5,7.5Z"/>
    <path class="cls-2" d="M256,487c4.14,0,7.5-3.36,7.5-7.5v-10c0-4.14-3.36-7.5-7.5-7.5s-7.5,3.36-7.5,7.5v10c0,4.14,3.36,7.5,7.5,7.5Z"/>
    <path class="cls-2" d="M291,487c4.14,0,7.5-3.36,7.5-7.5v-10c0-4.14-3.36-7.5-7.5-7.5s-7.5,3.36-7.5,7.5v10c0,4.14,3.36,7.5,7.5,7.5Z"/>
    <path class="cls-2" d="M421,467h-5c-4.14,0-7.5,3.36-7.5,7.5s3.36,7.5,7.5,7.5h5c4.14,0,7.5-3.36,7.5-7.5s-3.36-7.5-7.5-7.5Z"/>
    <path class="cls-2" d="M96,467h-5c-4.14,0-7.5,3.36-7.5,7.5s3.36,7.5,7.5,7.5h5c4.14,0,7.5-3.36,7.5-7.5s-3.36-7.5-7.5-7.5Z"/>
    <path class="cls-2" d="M416,115c12.41,0,22.5-10.09,22.5-22.5V22.5c0-12.41-10.09-22.5-22.5-22.5H96c-12.41,0-22.5,10.09-22.5,22.5V92.5c0,12.41,10.09,22.5,22.5,22.5h12.5v25h-12.5c-12.41,0-22.5,10.09-22.5,22.5v70c0,12.41,10.09,22.5,22.5,22.5h12.5v25h-12.5c-12.41,0-22.5,10.09-22.5,22.5v70c0,12.41,10.09,22.5,22.5,22.5h107.5v42h-7.5c-12.41,0-22.5,10.09-22.5,22.5v7.5h-52.5c-4.14,0-7.5,3.36-7.5,7.5s3.36,7.5,7.5,7.5h52.5v7.5c0,12.41,10.09,22.5,22.5,22.5h120c12.41,0,22.5-10.09,22.5-22.5v-7.5h52.5c4.14,0,7.5-3.36,7.5-7.5s-3.36-7.5-7.5-7.5h-52.5v-7.5c0-12.41-10.09-22.5-22.5-22.5h-7.5v-42h107.5c12.41,0,22.5-10.09,22.5-22.5v-70c0-12.41-10.09-22.5-22.5-22.5h-12.5v-25h12.5c12.41,0,22.5-10.09,22.5-22.5v-70c0-12.41-10.09-22.5-22.5-22.5h-12.5v-25h12.5ZM88.5,92.5V22.5c0-4.14,3.36-7.5,7.5-7.5H416c4.14,0,7.5,3.36,7.5,7.5V92.5c0,4.14-3.36,7.5-7.5,7.5H96c-4.14,0-7.5-3.36-7.5-7.5ZM218.5,395h15v42h-15v-42Zm30,42v-42h15v42h-15Zm75,22.5v30c0,4.14-3.36,7.5-7.5,7.5h-120c-4.14,0-7.5-3.36-7.5-7.5v-30c0-4.14,3.36-7.5,7.5-7.5h120c4.14,0,7.5,3.36,7.5,7.5Zm-30-22.5h-15v-42h15v42Zm130-134.5v70c0,4.14-3.36,7.5-7.5,7.5H96c-4.14,0-7.5-3.36-7.5-7.5v-70c0-4.14,3.36-7.5,7.5-7.5H416c4.14,0,7.5,3.36,7.5,7.5Zm-35-22.5H123.5v-25H388.5v25Zm35-117.5v70c0,4.14-3.36,7.5-7.5,7.5H96c-4.14,0-7.5-3.36-7.5-7.5v-70c0-4.14,3.36-7.5,7.5-7.5H416c4.14,0,7.5,3.36,7.5,7.5Zm-35-22.5H123.5v-25H388.5v25Z"/>
  </g>
  <g>
    <rect class="cls-1" x="103.5" y="30" width="50" height="55" rx="17.5" ry="17.5"/>
    <rect class="cls-1" x="173.5" y="30" width="50" height="55" rx="17.5" ry="17.5"/>
    <rect class="cls-1" x="243.5" y="35" width="165" height="45" rx="17.5" ry="17.5"/>
    <rect class="cls-1" x="103.5" y="170" width="50" height="55" rx="17.5" ry="17.5"/>
    <rect class="cls-1" x="173.5" y="170" width="50" height="55" rx="17.5" ry="17.5"/>
    <rect class="cls-1" x="243.5" y="175" width="165" height="45" rx="17.5" ry="17.5"/>
    <rect class="cls-1" x="103.5" y="310" width="50" height="55" rx="17.5" ry="17.5"/>
    <rect class="cls-1" x="173.5" y="310" width="50" height="55" rx="17.5" ry="17.5"/>
    <rect class="cls-1" x="243.5" y="315" width="165" height="45" rx="17.5" ry="17.5"/>
  </g>
</svg>