<?xml version="1.0" encoding="UTF-8"?>
<svg id="OBJECT" xmlns="http://www.w3.org/2000/svg" viewBox="0 0 32 32">
  <defs>
    <style>
      .cls-1 {
        fill: #FD4360;
      }

      .cls-1, .cls-2 {
        stroke-width: 0px;
      }

      .cls-2 {
        fill: #dadada;
      }
    </style>
  </defs>
  <path class="cls-2" d="m25,17h-1V7.72l.5.29c.16.09.33.13.5.13.35,0,.68-.18.87-.5.27-.48.11-1.09-.37-1.36L16.5,1.13c-.31-.18-.68-.18-.99,0L6.5,6.27c-.48.27-.65.88-.37,1.36.27.48.89.65,1.36.37l.5-.29v9.28h-1c-.55,0-1,.45-1,1s.45,1,1,1h18c.55,0,1-.45,1-1s-.45-1-1-1ZM10,6.58l6-3.43,6,3.43v10.42h-2v-6c0-1.65-1.35-3-3-3h-2c-1.65,0-3,1.35-3,3v6h-2V6.58Zm8,10.42h-4v-6c0-.55.45-1,1-1h2c.55,0,1,.45,1,1v6Z"/>
  <g>
    <path class="cls-1" d="m19,23h-2v-2h-2v2h-2c-1.1,0-2,.9-2,2v4c0,1.1.9,2,2,2h6c1.1,0,2-.9,2-2v-4c0-1.1-.9-2-2-2Zm-2.5,5h-1c-.55,0-1-.45-1-1s.45-1,1-1h1c.55,0,1,.45,1,1s-.45,1-1,1Z"/>
    <path class="cls-1" d="m26,26h-3v2h3c.55,0,1-.45,1-1s-.45-1-1-1Z"/>
    <path class="cls-1" d="m30,26h-.5c-.55,0-1,.45-1,1s.45,1,1,1h.5c.55,0,1-.45,1-1s-.45-1-1-1Z"/>
    <path class="cls-1" d="m5,27c0,.55.45,1,1,1h3v-2h-3c-.55,0-1,.45-1,1Z"/>
    <path class="cls-1" d="m2.5,26h-.5c-.55,0-1,.45-1,1s.45,1,1,1h.5c.55,0,1-.45,1-1s-.45-1-1-1Z"/>
  </g>
</svg>