<?xml version="1.0" encoding="UTF-8"?>
<svg id="OBJECT" xmlns="http://www.w3.org/2000/svg" viewBox="0 0 32 32">
  <defs>
    <style>
      .cls-1 {
        fill: #FD4360;
      }

      .cls-1, .cls-2 {
        stroke-width: 0px;
      }

      .cls-2 {
        fill: #dadada;
      }
    </style>
  </defs>
  <g>
    <path class="cls-2" d="m28.08,15h-3.08V4.03c0-1.67-1.36-3.03-3.03-3.03H4.03c-1.67,0-3.03,1.36-3.03,3.03v11.95c0,1.67,1.36,3.03,3.03,3.03h.47v1.97c0,1.67,1.36,3.03,3.03,3.03.92,0,1.79-.41,2.36-1.14l3.09-3.86h2.02v5.08c0,1.61,1.31,2.92,2.92,2.92h1.8l.45,1.79c.33,1.3,1.49,2.21,2.83,2.21s2.51-.91,2.83-2.21l.45-1.79h1.8c1.61,0,2.92-1.31,2.92-2.92v-6.16c0-1.61-1.31-2.92-2.92-2.92Zm-19.75,6.62c-.2.24-.49.38-.8.38-.57,0-1.03-.46-1.03-1.03v-2.97c0-.55-.45-1-1-1h-1.47c-.57,0-1.03-.46-1.03-1.03V4.03c0-.57.46-1.03,1.03-1.03h17.95c.57,0,1.03.46,1.03,1.03v10.97h-5.08c-1.29,0-2.37.84-2.76,2h-5.66c-.55,0-1,.45-1,1s.45,1,1,1h.92l-2.09,2.62Zm20.67,2.46c0,.51-.41.92-.92.92h-2.58c-.46,0-.86.31-.97.76l-.64,2.54c-.1.41-.47.7-.89.7s-.79-.29-.89-.7l-.64-2.54c-.11-.45-.51-.76-.97-.76h-2.58c-.51,0-.92-.41-.92-.92v-6.16c0-.51.41-.92.92-.92h10.16c.51,0,.92.41.92.92v6.16Z"/>
    <path class="cls-2" d="m26.5,21.75h-7c-.55,0-1,.45-1,1s.45,1,1,1h7c.55,0,1-.45,1-1s-.45-1-1-1Z"/>
    <path class="cls-2" d="m26.5,18.25h-7c-.55,0-1,.45-1,1s.45,1,1,1h7c.55,0,1-.45,1-1s-.45-1-1-1Z"/>
  </g>
  <path class="cls-1" d="m18.5,6H7.5c-1.38,0-2.5,1.12-2.5,2.5v3c0,1.38,1.12,2.5,2.5,2.5h11c1.38,0,2.5-1.12,2.5-2.5v-3c0-1.38-1.12-2.5-2.5-2.5Zm-8.75,5h-.5c-.55,0-1-.45-1-1s.45-1,1-1h.5c.55,0,1,.45,1,1s-.45,1-1,1Zm7,0h-3.5c-.55,0-1-.45-1-1s.45-1,1-1h3.5c.55,0,1,.45,1,1s-.45,1-1,1Z"/>
</svg>