<?xml version="1.0" encoding="UTF-8"?>
<svg id="OBJECT" xmlns="http://www.w3.org/2000/svg" viewBox="0 0 32 32">
  <defs>
    <style>
      .cls-1 {
        fill: #FD4360;
      }

      .cls-1, .cls-2 {
        stroke-width: 0px;
      }

      .cls-2 {
        fill: #dadada;
      }
    </style>
  </defs>
  <g>
    <path class="cls-2" d="m6,24.5h-1c-.55,0-1,.45-1,1s.45,1,1,1h1c.55,0,1-.45,1-1s-.45-1-1-1Z"/>
    <path class="cls-2" d="m10,24.5h-1c-.55,0-1,.45-1,1s.45,1,1,1h1c.55,0,1-.45,1-1s-.45-1-1-1Z"/>
    <path class="cls-2" d="m22,24.5h-8c-.55,0-1,.45-1,1s.45,1,1,1h8c.55,0,1-.45,1-1s-.45-1-1-1Z"/>
    <path class="cls-2" d="m5,15.5c-.55,0-1,.45-1,1s.45,1,1,1h1c.55,0,1-.45,1-1s-.45-1-1-1h-1Z"/>
    <path class="cls-2" d="m9,15.5c-.55,0-1,.45-1,1s.45,1,1,1h1c.55,0,1-.45,1-1s-.45-1-1-1h-1Z"/>
    <path class="cls-2" d="m13,16.5c0,.55.45,1,1,1h3.68c.55,0,1-.45,1-1s-.45-1-1-1h-3.68c-.55,0-1,.45-1,1Z"/>
    <path class="cls-2" d="m26,17.88c0-.55-.45-1-1-1s-1,.45-1,1v1.12c0,.55-.45,1-1,1H4c-.55,0-1-.45-1-1v-5c0-.55.45-1,1-1h10.67c.55,0,1-.45,1-1s-.45-1-1-1H4c-1.65,0-3,1.35-3,3v5c0,.77.3,1.47.78,2-.48.53-.78,1.23-.78,2v5c0,1.65,1.35,3,3,3h19c1.65,0,3-1.35,3-3v-5c0-.77-.3-1.47-.78-2,.48-.53.78-1.23.78-2v-1.12Zm-2,10.12c0,.55-.45,1-1,1H4c-.55,0-1-.45-1-1v-5c0-.55.45-1,1-1h19c.55,0,1,.45,1,1v5Z"/>
  </g>
  <path class="cls-1" d="m23.5,1c-4.14,0-7.5,3.36-7.5,7.5s3.36,7.5,7.5,7.5,7.5-3.36,7.5-7.5-3.36-7.5-7.5-7.5Zm1,12c0,.55-.45,1-1,1s-1-.45-1-1v-5c0-.55.45-1,1-1s1,.45,1,1v5Zm0-8.5c0,.55-.45,1-1,1s-1-.45-1-1v-.5c0-.55.45-1,1-1s1,.45,1,1v.5Z"/>
</svg>