<?xml version="1.0" encoding="UTF-8"?>
<svg id="OBJECT" xmlns="http://www.w3.org/2000/svg" viewBox="0 0 32 32">
  <defs>
    <style>
      .cls-1 {
        fill: #FD4360;
      }

      .cls-1, .cls-2 {
        stroke-width: 0px;
      }

      .cls-2 {
        fill: #dadada;
      }
    </style>
  </defs>
  <g>
    <path class="cls-2" d="m12,15h-1c-.55,0-1,.45-1,1s.45,1,1,1h1c.55,0,1-.45,1-1s-.45-1-1-1Z"/>
    <path class="cls-2" d="m21,15h-6c-.55,0-1,.45-1,1s.45,1,1,1h6c.55,0,1-.45,1-1s-.45-1-1-1Z"/>
    <path class="cls-2" d="m18.5,26h-5c-.55,0-1,.45-1,1s.45,1,1,1h5c.55,0,1-.45,1-1s-.45-1-1-1Z"/>
    <path class="cls-2" d="m26,26h-3.5v-.5c0-1.38-1.12-2.5-2.5-2.5h-1.25v-3h3.75c1.38,0,2.5-1.12,2.5-2.5v-3c0-1.38-1.12-2.5-2.5-2.5h-13c-1.38,0-2.5,1.12-2.5,2.5v3c0,1.38,1.12,2.5,2.5,2.5h3.75v3h-1.25c-1.38,0-2.5,1.12-2.5,2.5v.5h-3.5c-.55,0-1,.45-1,1s.45,1,1,1h3.5v.5c0,1.38,1.12,2.5,2.5,2.5h8c1.38,0,2.5-1.12,2.5-2.5v-.5h3.5c.55,0,1-.45,1-1s-.45-1-1-1Zm-17-8.5v-3c0-.28.22-.5.5-.5h13c.28,0,.5.22.5.5v3c0,.28-.22.5-.5.5h-13c-.28,0-.5-.22-.5-.5Zm6.25,2.5h1.5v3h-1.5v-3Zm5.25,8.5c0,.28-.22.5-.5.5h-8c-.28,0-.5-.22-.5-.5v-3c0-.28.22-.5.5-.5h8c.28,0,.5.22.5.5v3Z"/>
    <path class="cls-2" d="m30,26h-.5c-.55,0-1,.45-1,1s.45,1,1,1h.5c.55,0,1-.45,1-1s-.45-1-1-1Z"/>
    <path class="cls-2" d="m2.5,26h-.5c-.55,0-1,.45-1,1s.45,1,1,1h.5c.55,0,1-.45,1-1s-.45-1-1-1Z"/>
  </g>
  <path class="cls-1" d="m26.85,5l-10.5-3.94c-.23-.08-.48-.08-.7,0l-10.5,3.94c-.52.19-.78.77-.59,1.29.19.52.77.78,1.29.59l1.15-.43v2.06c0,.83.67,1.5,1.5,1.5h15c.83,0,1.5-.67,1.5-1.5v-2.06l1.15.43c.12.04.23.06.35.06.4,0,.79-.25.94-.65.19-.52-.07-1.09-.59-1.29Zm-14.85,3h-1c-.55,0-1-.45-1-1s.45-1,1-1h1c.55,0,1,.45,1,1s-.45,1-1,1Zm9,0h-6c-.55,0-1-.45-1-1s.45-1,1-1h6c.55,0,1,.45,1,1s-.45,1-1,1Z"/>
</svg>