<?xml version="1.0" encoding="UTF-8"?>
<svg id="OBJECT" xmlns="http://www.w3.org/2000/svg" viewBox="0 0 32 32">
  <defs>
    <style>
      .cls-1 {
        fill: #FD4360;
      }

      .cls-1, .cls-2 {
        stroke-width: 0px;
      }

      .cls-2 {
        fill: #dadada;
      }
    </style>
  </defs>
  <path class="cls-2" d="m14.94,17.13c.03-.21.06-.41.06-.63v-3.5c0-1.65-1.35-3-3-3h-3c-1.65,0-3,1.35-3,3v3.5c0,.21.03.42.06.63-3.09,1.64-5.06,4.82-5.06,8.37v2.5c0,1.65,1.35,3,3,3h13c1.65,0,3-1.35,3-3v-2.5c0-3.55-1.97-6.74-5.06-8.37Zm-6.94-4.13c0-.55.45-1,1-1h3c.55,0,1,.45,1,1v3.5c0,1.38-1.12,2.5-2.5,2.5s-2.5-1.12-2.5-2.5v-3.5Zm10,15c0,.55-.45,1-1,1h-1.5v-3c0-.55-.45-1-1-1s-1,.45-1,1v3h-6v-3c0-.55-.45-1-1-1s-1,.45-1,1v3h-1.5c-.55,0-1-.45-1-1v-2.5c0-2.71,1.46-5.17,3.77-6.49.81,1.2,2.18,1.99,3.73,1.99s2.93-.79,3.73-1.99c2.31,1.33,3.77,3.78,3.77,6.49v2.5Z"/>
  <g>
    <path class="cls-1" d="m29.5,1h-11c-.83,0-1.5.67-1.5,1.5v3c0,.83.67,1.5,1.5,1.5h11c.83,0,1.5-.67,1.5-1.5v-3c0-.83-.67-1.5-1.5-1.5Zm-8,3.25c0,.55-.45,1-1,1s-1-.45-1-1v-.5c0-.55.45-1,1-1s1,.45,1,1v.5Zm6,.75h-3c-.55,0-1-.45-1-1s.45-1,1-1h3c.55,0,1,.45,1,1s-.45,1-1,1Z"/>
    <path class="cls-1" d="m29.5,9h-11c-.83,0-1.5.67-1.5,1.5v3c0,.83.67,1.5,1.5,1.5h11c.83,0,1.5-.67,1.5-1.5v-3c0-.83-.67-1.5-1.5-1.5Zm-8,3.25c0,.55-.45,1-1,1s-1-.45-1-1v-.5c0-.55.45-1,1-1s1,.45,1,1v.5Zm6,.75h-3c-.55,0-1-.45-1-1s.45-1,1-1h3c.55,0,1,.45,1,1s-.45,1-1,1Z"/>
  </g>
</svg>