<?xml version="1.0" encoding="UTF-8"?>
<svg id="OBJECT" xmlns="http://www.w3.org/2000/svg" viewBox="0 0 512 512">
  <defs>
    <style>
      .cls-1 {
        fill: #FD4360;
      }

      .cls-2 {
        fill: #dadada;
      }
    </style>
  </defs>
  <g>
    <path class="cls-2" d="M489.5,115c12.41,0,22.5-10.09,22.5-22.5V22.5c0-12.41-10.09-22.5-22.5-22.5H22.5C10.09,0,0,10.09,0,22.5V92.5c0,12.41,10.09,22.5,22.5,22.5h16v25H22.5c-12.41,0-22.5,10.09-22.5,22.5v70c0,12.41,10.09,22.5,22.5,22.5H489.5c12.41,0,22.5-10.09,22.5-22.5v-70c0-12.41-10.09-22.5-22.5-22.5h-16v-25h16ZM15,92.5V22.5c0-4.14,3.36-7.5,7.5-7.5H489.5c4.14,0,7.5,3.36,7.5,7.5V92.5c0,4.14-3.36,7.5-7.5,7.5H22.5c-4.14,0-7.5-3.36-7.5-7.5Zm482,70v70c0,4.14-3.36,7.5-7.5,7.5H22.5c-4.14,0-7.5-3.36-7.5-7.5v-70c0-4.14,3.36-7.5,7.5-7.5H489.5c4.14,0,7.5,3.36,7.5,7.5Zm-38.5-22.5H53.5v-25H458.5v25Z"/>
    <path class="cls-2" d="M399.5,32.5H192.5c-4.14,0-7.5,3.36-7.5,7.5v35c0,4.14,3.36,7.5,7.5,7.5h207c4.14,0,7.5-3.36,7.5-7.5V40c0-4.14-3.36-7.5-7.5-7.5Zm-7.5,35H200v-20h192v20Z"/>
    <path class="cls-2" d="M469.5,32.5h-40c-4.14,0-7.5,3.36-7.5,7.5v35c0,4.14,3.36,7.5,7.5,7.5h40c4.14,0,7.5-3.36,7.5-7.5V40c0-4.14-3.36-7.5-7.5-7.5Zm-7.5,35h-25v-20h25v20Z"/>
    <path class="cls-2" d="M62.5,30c-15.16,0-27.5,12.34-27.5,27.5s12.34,27.5,27.5,27.5,27.5-12.34,27.5-27.5-12.34-27.5-27.5-27.5Zm0,40c-6.89,0-12.5-5.61-12.5-12.5s5.61-12.5,12.5-12.5,12.5,5.61,12.5,12.5-5.61,12.5-12.5,12.5Z"/>
    <path class="cls-2" d="M132.5,30c-15.16,0-27.5,12.34-27.5,27.5s12.34,27.5,27.5,27.5,27.5-12.34,27.5-27.5-12.34-27.5-27.5-27.5Zm0,40c-6.89,0-12.5-5.61-12.5-12.5s5.61-12.5,12.5-12.5,12.5,5.61,12.5,12.5-5.61,12.5-12.5,12.5Z"/>
    <path class="cls-2" d="M192.5,222.5h207c4.14,0,7.5-3.36,7.5-7.5v-35c0-4.14-3.36-7.5-7.5-7.5H192.5c-4.14,0-7.5,3.36-7.5,7.5v35c0,4.14,3.36,7.5,7.5,7.5Zm7.5-35h192v20H200v-20Z"/>
    <path class="cls-2" d="M429.5,222.5h40c4.14,0,7.5-3.36,7.5-7.5v-35c0-4.14-3.36-7.5-7.5-7.5h-40c-4.14,0-7.5,3.36-7.5,7.5v35c0,4.14,3.36,7.5,7.5,7.5Zm7.5-35h25v20h-25v-20Z"/>
    <path class="cls-2" d="M62.5,225c15.16,0,27.5-12.34,27.5-27.5s-12.34-27.5-27.5-27.5-27.5,12.34-27.5,27.5,12.34,27.5,27.5,27.5Zm0-40c6.89,0,12.5,5.61,12.5,12.5s-5.61,12.5-12.5,12.5-12.5-5.61-12.5-12.5,5.61-12.5,12.5-12.5Z"/>
    <path class="cls-2" d="M132.5,225c15.16,0,27.5-12.34,27.5-27.5s-12.34-27.5-27.5-27.5-27.5,12.34-27.5,27.5,12.34,27.5,27.5,27.5Zm0-40c6.89,0,12.5,5.61,12.5,12.5s-5.61,12.5-12.5,12.5-12.5-5.61-12.5-12.5,5.61-12.5,12.5-12.5Z"/>
  </g>
  <g>
    <path class="cls-1" d="M231,417.04h-30c-4.14,0-7.5,3.36-7.5,7.5s3.36,7.5,7.5,7.5h30c4.14,0,7.5-3.36,7.5-7.5s-3.36-7.5-7.5-7.5Z"/>
    <path class="cls-1" d="M311,417.04h-30c-4.14,0-7.5,3.36-7.5,7.5s3.36,7.5,7.5,7.5h30c4.14,0,7.5-3.36,7.5-7.5s-3.36-7.5-7.5-7.5Z"/>
    <circle class="cls-1" cx="296" cy="479.5" r="32.5"/>
    <circle class="cls-1" cx="216" cy="479.5" r="32.5"/>
    <circle class="cls-1" cx="441" cy="439.5" r="32.5"/>
    <circle class="cls-1" cx="71" cy="439.5" r="32.5"/>
    <path class="cls-1" d="M238.5,340h-45v54.54c0,4.14,3.36,7.5,7.5,7.5h30c4.14,0,7.5-3.36,7.5-7.5v-54.54Z"/>
    <path class="cls-1" d="M318.5,340h-45v54.54c0,4.14,3.36,7.5,7.5,7.5h30c4.14,0,7.5-3.36,7.5-7.5v-54.54Z"/>
    <path class="cls-1" d="M390.62,421.23l-31.17-6.56c-3.45-.73-5.95-3.81-5.95-7.34v-67.33h-15v67.33c0,10.58,7.51,19.84,17.86,22.02l31.17,6.56c.52,.11,1.04,.16,1.55,.16,3.47,0,6.59-2.42,7.33-5.96,.85-4.05-1.74-8.03-5.79-8.88Z"/>
    <path class="cls-1" d="M158.5,407.33c0,3.53-2.5,6.61-5.95,7.34l-31.17,6.56c-4.05,.85-6.65,4.83-5.79,8.88,.74,3.53,3.86,5.96,7.33,5.96,.51,0,1.03-.05,1.55-.16l31.17-6.56c10.35-2.18,17.86-11.44,17.86-22.02v-67.33h-15v67.33Z"/>
    <path class="cls-1" d="M438.5,270H73.5v55H438.5v-55Zm-292.5,35h-15c-4.14,0-7.5-3.36-7.5-7.5s3.36-7.5,7.5-7.5h15c4.14,0,7.5,3.36,7.5,7.5s-3.36,7.5-7.5,7.5Zm58.75,0h-15c-4.14,0-7.5-3.36-7.5-7.5s3.36-7.5,7.5-7.5h15c4.14,0,7.5,3.36,7.5,7.5s-3.36,7.5-7.5,7.5Zm58.75,0h-15c-4.14,0-7.5-3.36-7.5-7.5s3.36-7.5,7.5-7.5h15c4.14,0,7.5,3.36,7.5,7.5s-3.36,7.5-7.5,7.5Zm58.75,0h-15c-4.14,0-7.5-3.36-7.5-7.5s3.36-7.5,7.5-7.5h15c4.14,0,7.5,3.36,7.5,7.5s-3.36,7.5-7.5,7.5Zm58.75,0h-15c-4.14,0-7.5-3.36-7.5-7.5s3.36-7.5,7.5-7.5h15c4.14,0,7.5,3.36,7.5,7.5s-3.36,7.5-7.5,7.5Z"/>
  </g>
</svg>