<?xml version="1.0" encoding="UTF-8"?>
<svg id="OBJECT" xmlns="http://www.w3.org/2000/svg" viewBox="0 0 32 32">
  <defs>
    <style>
      .cls-1 {
        fill: #FD4360;
      }

      .cls-1, .cls-2 {
        stroke-width: 0px;
      }

      .cls-2 {
        fill: #dadada;
      }
    </style>
  </defs>
  <g>
    <path class="cls-2" d="m30.94,20.25c-.18-.78-.69-1.43-1.44-1.78-.96-.45-2.12-.26-2.89.48l-3.42,3.31-2.22-3.35c-.99-1.5-2.66-2.39-4.45-2.39h-.85c-1.78,0-3.42.88-4.41,2.32h-2.26v-1.47c0-.55-.45-1-1-1H2c-.55,0-1,.45-1,1v12c0,.55.45,1,1,1h6c.55,0,1-.45,1-1v-1.21h2l1.35,1.61c.65.78,1.61,1.22,2.62,1.22h6.8c1.03,0,1.99-.46,2.64-1.25l5.99-7.3c.51-.62.7-1.42.52-2.21Zm-27.94-1.87h4v4c0,1.1-.9,2-2,2s-2-.9-2-2v-4Zm0,10v-2.56c.59.34,1.27.56,2,.56s1.41-.21,2-.56v2.56H3Zm25.87-7.19l-5.99,7.3c-.27.33-.67.52-1.1.52h-6.8c-.42,0-.82-.19-1.09-.51l-1.65-1.96c-.19-.23-.47-.36-.77-.36h-2.47v-5.33h2.82c.37,0,.71-.21.89-.54.58-1.1,1.71-1.79,2.96-1.79h.85c1.12,0,2.16.56,2.78,1.5l2.43,3.67-.71.68c-.41.35-1.04.3-1.39-.11l-1.35-1.54c-.36-.42-1-.46-1.41-.09-.42.36-.46,1-.09,1.41l1.35,1.54c1.07,1.22,2.94,1.36,4.23.28l5.64-5.46c.17-.17.43-.21.67-.1.22.1.3.29.32.4s.04.3-.12.5Z"/>
    <path class="cls-2" d="m5,22.87c.55,0,1-.45,1-1v-.5c0-.55-.45-1-1-1s-1,.45-1,1v.5c0,.55.45,1,1,1Z"/>
  </g>
  <g>
    <path class="cls-1" d="m30,12h-.5v-3h-4v3h-5v-3h-4v3h-.5c-.55,0-1,.45-1,1s.45,1,1,1h14c.55,0,1-.45,1-1s-.45-1-1-1Z"/>
    <path class="cls-1" d="m30.45,4.11l-6-3c-.14-.07-.29-.11-.45-.11h-2c-.16,0-.31.04-.45.11l-6,3c-.34.17-.55.52-.55.89v2h16v-2c0-.38-.21-.73-.55-.89Z"/>
  </g>
</svg>