<?xml version="1.0" encoding="UTF-8"?>
<svg id="OBJECT" xmlns="http://www.w3.org/2000/svg" viewBox="0 0 32 32">
  <defs>
    <style>
      .cls-1 {
        fill: #FD4360;
      }

      .cls-1, .cls-2 {
        stroke-width: 0px;
      }

      .cls-2 {
        fill: #dadada;
      }
    </style>
  </defs>
  <path class="cls-2" d="m18,31h-4c-.55,0-1-.45-1-1v-2.39c-1.09-.28-2.13-.71-3.09-1.28l-1.69,1.68c-.39.39-1.02.39-1.41,0l-2.83-2.83c-.39-.39-.39-1.02,0-1.41l1.68-1.69c-.57-.97-1-2-1.28-3.09h-2.39c-.55,0-1-.45-1-1v-4c0-.55.45-1,1-1h2.39c.28-1.09.71-2.13,1.28-3.09l-1.68-1.69c-.39-.39-.39-1.02,0-1.41l2.83-2.83c.39-.39,1.02-.39,1.41,0l1.69,1.69c.97-.57,2-1,3.09-1.28v-2.39c0-.55.45-1,1-1h4c.55,0,1,.45,1,1v2.39c1.09.28,2.13.71,3.09,1.28l1.69-1.69c.39-.39,1.02-.39,1.41,0l2.83,2.83c.39.39.39,1.02,0,1.41l-1.68,1.69c.57.97,1,2,1.28,3.09h2.39c.55,0,1,.45,1,1v4c0,.55-.45,1-1,1h-2.39c-.28,1.09-.71,2.13-1.28,3.09l1.68,1.69c.39.39.39,1.02,0,1.41l-2.83,2.83c-.39.39-1.02.39-1.41,0l-1.69-1.68c-.97.57-2,1-3.09,1.28v2.39c0,.55-.45,1-1,1Zm-3-2h2v-2.19c0-.48.34-.9.82-.98,1.39-.26,2.69-.79,3.84-1.59.4-.27.93-.22,1.27.12l1.55,1.55,1.41-1.41-1.55-1.55c-.34-.34-.39-.88-.12-1.27.8-1.16,1.33-2.45,1.59-3.84.09-.47.5-.82.98-.82h2.19v-2h-2.19c-.48,0-.9-.34-.98-.82-.26-1.39-.79-2.69-1.59-3.85-.27-.4-.22-.93.12-1.27l1.55-1.55-1.41-1.41-1.55,1.55c-.34.34-.88.39-1.27.12-1.16-.8-2.45-1.33-3.84-1.59-.47-.09-.82-.5-.82-.98v-2.19h-2v2.19c0,.48-.34.9-.82.98-1.39.26-2.69.79-3.84,1.59-.4.27-.93.22-1.27-.12l-1.55-1.55-1.41,1.41,1.55,1.55c.34.34.39.88.12,1.27-.8,1.16-1.33,2.45-1.59,3.85-.09.47-.5.82-.98.82h-2.19v2h2.19c.48,0,.9.34.98.82.26,1.39.79,2.69,1.59,3.84.27.4.22.93-.12,1.27l-1.55,1.55,1.41,1.41,1.55-1.55c.34-.34.88-.39,1.27-.12,1.16.8,2.45,1.33,3.84,1.59.47.09.82.5.82.98v2.19Z"/>
  <g>
    <path class="cls-1" d="m8.96,19.64h0c.05-.08.12-.15.17-.22.12-.17.25-.33.38-.49.1-.12.2-.23.31-.34.11-.12.22-.23.34-.34.11-.11.23-.21.34-.31.13-.11.26-.21.39-.31.11-.09.22-.17.34-.25.24-.17.49-.32.75-.46.08-.05.17-.08.26-.13.2-.1.4-.19.6-.28.1-.04.21-.08.32-.12.02,0,.04-.02.06-.02-.34-.52-.54-1.14-.54-1.81,0-1.84,1.49-3.33,3.33-3.33s3.33,1.49,3.33,3.33c0,.67-.2,1.29-.54,1.81.02,0,.04.02.06.02.11.04.21.07.32.12.21.08.41.18.6.28.09.04.18.08.26.13.26.14.51.29.75.46.12.08.23.17.34.25.13.1.26.2.39.31.12.1.23.21.34.31.12.11.23.22.34.34.1.11.21.22.31.34.13.16.26.32.38.49.06.08.12.14.17.22h0c.12.18.23.37.34.56.71-1.24,1.12-2.67,1.12-4.2,0-4.69-3.81-8.5-8.5-8.5s-8.5,3.81-8.5,8.5c0,1.53.41,2.96,1.12,4.2.11-.19.22-.38.34-.56Z"/>
    <path class="cls-1" d="m20.97,20.21c-.07-.09-.15-.17-.23-.25-.09-.09-.18-.18-.27-.27-.08-.08-.17-.15-.25-.23-.1-.09-.21-.17-.32-.25-.08-.06-.16-.12-.24-.18-.19-.13-.38-.25-.58-.36-.06-.03-.12-.05-.17-.08-.16-.08-.32-.16-.49-.22-.08-.03-.15-.06-.23-.08-.16-.06-.31-.11-.47-.15-.08-.02-.16-.04-.24-.06-.17-.04-.34-.07-.51-.1-.07-.01-.14-.02-.22-.03-.25-.03-.49-.05-.74-.05s-.5.02-.74.05c-.07,0-.14.02-.22.03-.17.03-.35.06-.51.1-.08.02-.16.04-.24.06-.16.04-.32.09-.47.15-.08.03-.15.05-.23.08-.17.07-.33.14-.49.22-.06.03-.12.05-.17.08-.2.11-.39.23-.58.36-.08.06-.16.12-.24.18-.11.08-.22.16-.32.25-.09.07-.17.15-.25.23-.09.09-.18.18-.27.27-.08.08-.15.16-.23.25-.1.12-.2.25-.29.38-.31.43-.57.89-.77,1.39,1.54,1.55,3.68,2.52,6.03,2.52s4.49-.97,6.03-2.52c-.2-.5-.46-.96-.77-1.39-.09-.13-.19-.26-.29-.38Z"/>
    <path class="cls-1" d="m16,13.23c-.73,0-1.33.6-1.33,1.33s.6,1.33,1.33,1.33,1.33-.6,1.33-1.33-.6-1.33-1.33-1.33Z"/>
  </g>
</svg>