<?xml version="1.0" encoding="UTF-8"?>
<svg id="OBJECT" xmlns="http://www.w3.org/2000/svg" viewBox="0 0 32 32">
  <defs>
    <style>
      .cls-1 {
        fill: #FD4360;
      }

      .cls-1, .cls-2 {
        stroke-width: 0px;
      }

      .cls-2 {
        fill: #dadada;
      }
    </style>
  </defs>
  <g>
    <path class="cls-2" d="m23.62,15.1l-3.22-3.22c-.57-.57-1.32-.88-2.12-.88h-4.56c-.8,0-1.55.31-2.12.88l-3.22,3.22c-.57.57-.88,1.32-.88,2.12v4.56c0,.8.31,1.55.88,2.12l3.22,3.22c.57.57,1.32.88,2.12.88h4.56c.8,0,1.55-.31,2.12-.88l3.22-3.22c.57-.57.88-1.32.88-2.12v-4.56c0-.8-.31-1.55-.88-2.12Zm-1.12,6.68c0,.26-.11.52-.29.71l-3.22,3.22c-.19.19-.44.29-.71.29h-4.56c-.26,0-.52-.11-.71-.29l-3.22-3.22c-.19-.19-.29-.44-.29-.71v-4.56c0-.26.11-.52.29-.71l3.22-3.22c.19-.19.44-.29.71-.29h4.56c.26,0,.52.11.71.29l3.22,3.22c.19.19.29.44.29.71v4.56Z"/>
    <path class="cls-2" d="m16,15c-2.48,0-4.5,2.02-4.5,4.5s2.02,4.5,4.5,4.5,4.5-2.02,4.5-4.5-2.02-4.5-4.5-4.5Zm0,7c-1.38,0-2.5-1.12-2.5-2.5s1.12-2.5,2.5-2.5,2.5,1.12,2.5,2.5-1.12,2.5-2.5,2.5Z"/>
  </g>
  <path class="cls-1" d="m27.38,13.02c-.39-1.53-1.66-2.71-3.24-2.97-1.07-3.55-4.37-6.05-8.14-6.05s-7.07,2.5-8.14,6.05c-1.58.26-2.85,1.44-3.24,2.97-2.03.19-3.62,1.9-3.62,3.98,0,2.21,1.79,4,4,4h.5v-3.78c0-1.34.52-2.59,1.47-3.54l3.22-3.22c.94-.94,2.2-1.46,3.54-1.46h4.56c1.34,0,2.59.52,3.54,1.46l3.22,3.22c.94.94,1.46,2.2,1.46,3.54v3.78h.5c2.21,0,4-1.79,4-4,0-2.08-1.59-3.79-3.62-3.98Z"/>
</svg>