<?xml version="1.0" encoding="UTF-8"?>
<svg id="OBJECT" xmlns="http://www.w3.org/2000/svg" viewBox="0 0 32 32">
  <defs>
    <style>
      .cls-1 {
        fill: #FD4360;
      }

      .cls-1, .cls-2 {
        stroke-width: 0px;
      }

      .cls-2 {
        fill: #dadada;
      }
    </style>
  </defs>
  <g>
    <path class="cls-2" d="m24,9c-.55,0-1,.45-1,1v18c0,.55-.45,1-1,1h-5.46c-.15,0-.36-.03-.56-.17-1.15-.79-2.16-1.74-3.04-2.83h4.05c1.65,0,3-1.35,3-3v-7c0-1.65-1.35-3-3-3h-8c0-.98.07-1.94.2-2.86.08-.55-.3-1.05-.85-1.13-.54-.08-1.05.3-1.13.85-.15,1.02-.22,2.08-.22,3.16,0,7.79,2.79,14,7.85,17.46.49.34,1.07.52,1.69.52h5.46c1.65,0,3-1.35,3-3V10c0-.55-.45-1-1-1Zm-6,7v7c0,.55-.45,1-1,1h-5.4c-1.43-2.5-2.29-5.55-2.52-9h7.93c.55,0,1,.45,1,1Z"/>
    <path class="cls-2" d="m11.91,18.5h3.59c.55,0,1-.45,1-1s-.45-1-1-1h-3.59c-.55,0-1,.45-1,1s.45,1,1,1Z"/>
    <path class="cls-2" d="m15.5,20.5h-1.59c-.55,0-1,.45-1,1s.45,1,1,1h1.59c.55,0,1-.45,1-1s-.45-1-1-1Z"/>
  </g>
  <g>
    <path class="cls-1" d="m22,1h-.31v2c0,1.65-1.35,3-3,3h-3c-1.65,0-3-1.35-3-3V1h-.46c-1.11,0-2.14.62-2.67,1.62-.9,1.68-1.56,3.5-1.99,5.38h17.43v-4c0-1.65-1.35-3-3-3Z"/>
    <path class="cls-1" d="m15.69,4h3c.55,0,1-.45,1-1V1h-5v2c0,.55.45,1,1,1Z"/>
  </g>
</svg>