<?xml version="1.0" encoding="UTF-8"?>
<svg id="OBJECT" xmlns="http://www.w3.org/2000/svg" viewBox="0 0 32 32">
  <defs>
    <style>
      .cls-1 {
        fill: #FD4360;
      }

      .cls-1, .cls-2 {
        stroke-width: 0px;
      }

      .cls-2 {
        fill: #dadada;
      }
    </style>
  </defs>
  <g>
    <path class="cls-2" d="m21.63,19.55l-9.19-9.19c-1.13-1.13-3.11-1.13-4.24,0l-.93.93c-.57.57-.88,1.32-.88,2.12s.31,1.56.88,2.12l.35.35-4.76,3.18c-1.05.7-1.72,1.82-1.84,3.07-.12,1.25.32,2.48,1.21,3.37l4.27,4.27c.79.79,1.85,1.23,2.96,1.23.14,0,.28,0,.42-.02,1.25-.12,2.37-.8,3.07-1.84l3.18-4.76.35.35h0c.58.58,1.35.88,2.12.88s1.54-.29,2.12-.88l.93-.93c1.17-1.17,1.17-3.07,0-4.24Zm-10.36,8.47c-.36.55-.95.9-1.6.96-.66.06-1.3-.17-1.76-.63l-4.27-4.27c-.46-.46-.69-1.11-.63-1.76.06-.65.42-1.24.96-1.6l.59-.39,2.83,2.83c.2.2.45.29.71.29s.51-.1.71-.29c.39-.39.39-1.02,0-1.41l-2.54-2.54,2.81-1.87,5.6,5.6-3.4,5.1Zm8.95-5.64l-.93.93c-.39.39-1.02.39-1.42,0l-9.19-9.19c-.19-.19-.29-.44-.29-.71s.1-.52.29-.71l.93-.93c.38-.38,1.04-.38,1.41,0l9.19,9.19c.39.39.39,1.02,0,1.42Z"/>
    <path class="cls-2" d="m9.62,25.39c.2.2.45.29.71.29s.51-.1.71-.29c.39-.39.39-1.02,0-1.41l-.19-.19c-.39-.39-1.02-.39-1.41,0-.39.39-.39,1.02,0,1.41l.19.19Z"/>
  </g>
  <path class="cls-1" d="m30.85,8.57c-1.29,1.35-3.08,2.84-5.37,3.77-.12.05-.25.07-.38.07-.4,0-.77-.24-.93-.62-.21-.51.04-1.09.55-1.3,2.46-1,4.28-2.77,5.42-4.14-.44-.96-1.04-1.87-1.83-2.65-.78-.78-1.67-1.39-2.65-1.84-.84.7-1.81,1.64-2.68,2.82-.2.27-.5.41-.81.41-.2,0-.41-.06-.59-.19-.45-.33-.54-.95-.22-1.4.67-.91,1.39-1.69,2.08-2.35-.64-.11-1.29-.17-1.96-.15-2.58.06-5.04,1.13-6.9,2.99-1.07,1.07-1.93,2.39-2.53,3.84.68.24,1.3.61,1.81,1.12l9.19,9.19c.52.52.9,1.14,1.14,1.81,1.44-.6,2.76-1.46,3.82-2.52,2.44-2.44,3.39-5.79,2.83-8.86Zm-9.12-1.76c-.07.16-.14.31-.21.47-.16.39-.53.62-.93.62-.12,0-.25-.02-.38-.07-.51-.21-.76-.79-.55-1.3.08-.19.16-.38.24-.56.23-.5.83-.72,1.33-.49.5.23.72.83.49,1.33Z"/>
</svg>