<?xml version="1.0" encoding="UTF-8"?>
<svg id="OBJECT" xmlns="http://www.w3.org/2000/svg" viewBox="0 0 32 32">
  <defs>
    <style>
      .cls-1 {
        fill: #FD4360;
      }

      .cls-2 {
        fill: #dadada;
      }
    </style>
  </defs>
  <path class="cls-2" d="M30.83,14.45c-.19-.28-.5-.45-.83-.45h-7c-.38,0-.73,.21-.89,.55l-1.72,3.45H2c-.55,0-1,.45-1,1v6c0,1.65,1.35,3,3,3H23.67c1.21,0,2.3-.72,2.77-1.85l4.49-10.77c.13-.31,.09-.66-.09-.94Zm-6.24,10.94c-.16,.37-.52,.62-.92,.62H4c-.55,0-1-.45-1-1v-5H24.33c.55,0,1-.45,1-1s-.45-1-1-1h-1.72l1-2h4.88l-3.91,9.38Z"/>
  <g>
    <rect class="cls-1" x="5" y="4" width="4" height="5"/>
    <path class="cls-1" d="M15.06,6.67c-.28-.42-.75-.67-1.25-.67h-2.82v3h5.62l-1.55-2.33Z"/>
    <path class="cls-1" d="M3,11v5h14v-5H3Zm5,3c0,.55-.45,1-1,1s-1-.45-1-1v-1c0-.55,.45-1,1-1s1,.45,1,1v1Zm3,0c0,.55-.45,1-1,1s-1-.45-1-1v-1c0-.55,.45-1,1-1s1,.45,1,1v1Zm3,0c0,.55-.45,1-1,1s-1-.45-1-1v-1c0-.55,.45-1,1-1s1,.45,1,1v1Z"/>
  </g>
</svg>