<?xml version="1.0" encoding="UTF-8"?>
<svg id="OBJECT" xmlns="http://www.w3.org/2000/svg" viewBox="0 0 32 32">
  <defs>
    <style>
      .cls-1 {
        fill: #FD4360;
      }

      .cls-1, .cls-2 {
        stroke-width: 0px;
      }

      .cls-2 {
        fill: #dadada;
      }
    </style>
  </defs>
  <path class="cls-1" d="m19.34,14.8c.19.28.5.44.83.44h.01c.34,0,.65-.18.83-.47l5.83-9.24c.24-.38.2-.87-.11-1.21l-2.16-2.37-7.57,9.37,2.32,3.47Z"/>
  <polygon class="cls-1" points="22.77 1 9.23 1 16 9.34 22.77 1"/>
  <path class="cls-1" d="m10.99,14.78c.18.29.49.46.83.47.32-.02.66-.16.84-.44l2.32-3.47L7.41,1.96l-2.16,2.37c-.3.33-.35.83-.11,1.21l5.83,9.24Z"/>
  <g>
    <path class="cls-2" d="m29.34,5.55c-.49-.25-1.09-.05-1.34.45-.25.49-.05,1.09.45,1.34.34.17.55.51.55.89v19.76c0,.55-.45,1-1,1H4c-.55,0-1-.45-1-1V8.24c0-.38.21-.72.55-.89.49-.25.69-.85.45-1.34s-.85-.69-1.34-.45c-1.02.51-1.66,1.54-1.66,2.68v19.76c0,1.65,1.35,3,3,3h24c1.65,0,3-1.35,3-3V8.24c0-1.14-.64-2.17-1.66-2.68Z"/>
    <path class="cls-2" d="m16,26.5c.55,0,1-.45,1-1v-1c0-.55-.45-1-1-1s-1,.45-1,1v1c0,.55.45,1,1,1Z"/>
    <path class="cls-2" d="m16,21.5c.55,0,1-.45,1-1v-6c0-.55-.45-1-1-1s-1,.45-1,1v6c0,.55.45,1,1,1Z"/>
  </g>
</svg>