<?xml version="1.0" encoding="UTF-8"?>
<svg id="OBJECT" xmlns="http://www.w3.org/2000/svg" viewBox="0 0 32 32">
  <defs>
    <style>
      .cls-1 {
        fill: #FD4360;
      }

      .cls-1, .cls-2 {
        stroke-width: 0px;
      }

      .cls-2 {
        fill: #dadada;
      }
    </style>
  </defs>
  <path class="cls-2" d="m29.34,6.56l-2.13-1.07c-.49-.25-1.09-.05-1.34.44s-.05,1.09.44,1.34l2.13,1.07c.34.17.56.51.56.9v18.76c0,.55-.45,1-1,1h-6.18l-1.81-9.05.17-1.83c.05-.55-.35-1.04-.9-1.09-.56-.05-1.04.36-1.09.91l-.1,1.06h-4.18l-.1-1.06c-.05-.55-.53-.95-1.09-.91-.55.05-.96.54-.9,1.09l.17,1.83-1.81,9.05h-6.18c-.55,0-1-.45-1-1V9.24c0-.38.21-.72.56-.9l2.13-1.07c.49-.25.69-.85.44-1.34-.25-.49-.85-.69-1.34-.44l-2.13,1.07c-1.03.51-1.66,1.54-1.66,2.68v18.76c0,1.65,1.35,3,3,3h24c1.65,0,3-1.35,3-3V9.24c0-1.14-.64-2.17-1.66-2.68Zm-15.52,14.44h4.36l.34,1.69-5.36,1.61.66-3.3Zm-1.1,5.53l6.2-1.86.87,4.34h-7.56l.49-2.47Z"/>
  <g>
    <path class="cls-1" d="m7.17,4.45c-.15.23-.2.51-.14.78l2.53,11c.08.33.32.6.64.72.32.11.68.06.95-.15l3.68-2.82L8.19,2.92l-1.02,1.53Z"/>
    <path class="cls-1" d="m22,1h-12c-.19,0-.38.06-.54.16l6.54,10.89L22.54,1.16c-.16-.1-.34-.16-.54-.16Z"/>
    <path class="cls-1" d="m24.83,4.45l-1.02-1.53-6.63,11.05,3.68,2.82c.18.14.39.21.61.21.11,0,.23-.02.34-.06.32-.12.56-.39.64-.72l2.53-11c.06-.27.01-.55-.14-.78Z"/>
  </g>
</svg>