<?xml version="1.0" encoding="UTF-8"?>
<svg id="OBJECT" xmlns="http://www.w3.org/2000/svg" viewBox="0 0 32 32">
  <defs>
    <style>
      .cls-1 {
        fill: #FD4360;
      }

      .cls-1, .cls-2 {
        stroke-width: 0px;
      }

      .cls-2 {
        fill: #dadada;
      }
    </style>
  </defs>
  <g>
    <path class="cls-2" d="m28.26,6.37l-1.09-.36c-.53-.17-1.09.11-1.26.64-.17.52.11,1.09.64,1.26l1.09.36c.81.27,1.36,1.03,1.36,1.89v16.84c0,1.1-.9,2-2,2H5c-1.1,0-2-.9-2-2V10.16c0-.86.55-1.62,1.36-1.89l1.09-.36c.52-.17.81-.74.64-1.26-.17-.52-.74-.81-1.26-.64l-1.09.36c-1.64.54-2.74,2.06-2.74,3.79v16.84c0,2.21,1.79,4,4,4h22c2.21,0,4-1.79,4-4V10.16c0-1.73-1.1-3.25-2.74-3.79Z"/>
    <path class="cls-2" d="m16,27c.55,0,1-.45,1-1v-6c0-.55-.45-1-1-1s-1,.45-1,1v6c0,.55.45,1,1,1Z"/>
    <path class="cls-2" d="m16,17.25c.55,0,1-.45,1-1v-.5c0-.55-.45-1-1-1s-1,.45-1,1v.5c0,.55.45,1,1,1Z"/>
  </g>
  <g>
    <path class="cls-1" d="m22,1h-12c-.1,0-.2.02-.29.05l6.29,10.07L22.29,1.05c-.09-.03-.19-.05-.29-.05Z"/>
    <path class="cls-1" d="m7.11,5.55c-.1.21-.13.44-.08.66l1.37,6.15c.21.97.89,1.76,1.81,2.13.92.37,1.96.26,2.78-.29l1.83-1.22L8.47,2.83l-1.36,2.72Z"/>
    <path class="cls-1" d="m24.89,5.55l-1.36-2.72-6.35,10.16,1.83,1.22c.5.33,1.08.5,1.66.5.38,0,.76-.07,1.12-.22.92-.37,1.59-1.17,1.81-2.13l1.37-6.15c.05-.22.02-.46-.08-.66Z"/>
  </g>
</svg>