<?xml version="1.0" encoding="UTF-8"?>
<svg id="OBJECT" xmlns="http://www.w3.org/2000/svg" viewBox="0 0 32 32">
  <defs>
    <style>
      .cls-1 {
        fill: #FD4360;
      }

      .cls-1, .cls-2 {
        stroke-width: 0px;
      }

      .cls-2 {
        fill: #dadada;
      }
    </style>
  </defs>
  <path class="cls-1" d="m3.22,24.23c0,.43.34.77.75.77h2.25c.34,0,.64-.24.73-.58l.61-2.5H3.22v2.31Z"/>
  <path class="cls-1" d="m8.83,24.23c0,.43.34.77.75.77h2.25c.34,0,.64-.24.73-.58l.61-2.5h-4.34v2.31Z"/>
  <path class="cls-1" d="m17.94,24.23c0,.43.34.77.75.77h2.25c.34,0,.64-.24.73-.58l.61-2.5h-4.34v2.31Z"/>
  <path class="cls-1" d="m23.83,24.23c0,.43.34.77.75.77h2.25c.34,0,.64-.24.73-.58l.61-2.5h-4.34v2.31Z"/>
  <path class="cls-2" d="m27.66,12.87c-2.51-.16-4.7-.59-6.57-1.13-.12-.06-.24-.1-.37-.11-5.4-1.65-8.04-4.27-8.09-4.33-.33-.34-.85-.4-1.25-.15-5.18,3.28-8.54.25-8.68.12-.29-.28-.72-.35-1.08-.2-.37.16-.61.52-.61.92v11c0,.55.45,1,1,1h28c.55,0,1-.45,1-1v-2.6c0-1.86-1.47-3.41-3.34-3.53ZM3,9.81c.55.26,1.22.51,2,.67v7.51h-2v-8.19Zm26,8.19H7v-7.35c1.4-.04,3.01-.42,4.78-1.42.64.54,1.79,1.42,3.47,2.32l-1.61,1.61c-.39.39-.39,1.02,0,1.41.2.2.45.29.71.29s.51-.1.71-.29l2.11-2.11c.49.21,1.01.42,1.56.61l-1.08,1.08c-.39.39-.39,1.02,0,1.41.2.2.45.29.71.29s.51-.1.71-.29l1.81-1.81c1.92.53,4.13.94,6.66,1.1.83.05,1.47.73,1.47,1.53v1.6Z"/>
</svg>