<?xml version="1.0" encoding="UTF-8"?>
<svg id="OBJECT" xmlns="http://www.w3.org/2000/svg" viewBox="0 0 32 32">
  <defs>
    <style>
      .cls-1 {
        fill: #FD4360;
      }

      .cls-1, .cls-2 {
        stroke-width: 0px;
      }

      .cls-2 {
        fill: #dadada;
      }
    </style>
  </defs>
  <path class="cls-1" d="m30,17h-12c-.55,0-1,.45-1,1v12c0,.55.45,1,1,1h12c.55,0,1-.45,1-1v-12c0-.55-.45-1-1-1Zm-2.5,7c0,1.93-1.57,3.5-3.5,3.5s-3.5-1.57-3.5-3.5v-2.5c0-.55.45-1,1-1s1,.45,1,1v2.5c0,.83.67,1.5,1.5,1.5s1.5-.67,1.5-1.5v-2.5c0-.55.45-1,1-1s1,.45,1,1v2.5Z"/>
  <path class="cls-2" d="m26.34,7.95c-.52-.61-1.29-.95-2.09-.95h-2.24v-3.27c0-1.51-1.23-2.73-2.73-2.73h-10.55c-1.51,0-2.73,1.23-2.73,2.73v3.27h-2.24c-.81,0-1.57.35-2.09.95-.51.59-.74,1.38-.63,2.15l2.13,14.57c.19,1.33,1.36,2.33,2.72,2.33h8.12c.55,0,1-.45,1-1v-13.51h3.89l-.25,1.28c-.11.54.25,1.07.79,1.17.06.01.13.02.19.02.47,0,.89-.33.98-.81l.32-1.66h3.28l-.36,1.23c-.15.53.15,1.08.68,1.24.54.15,1.08-.15,1.24-.68l1.17-4.04s.02-.09.03-.13c.11-.77-.12-1.55-.63-2.15ZM7.99,3.73c0-.4.33-.73.73-.73h10.55c.4,0,.73.33.73.73v3.27H7.99v-3.27ZM3.4,12.49h3.63l.33,5.26h-3.2l-.77-5.26Zm2.48,12.51c-.37,0-.69-.26-.75-.62l-.68-4.63h3.03l.33,5.25h-1.94Zm7.12,0h-3.17l-.33-5.25h3.51v5.25Zm0-7.25h-3.63l-.33-5.26h3.97v5.26Zm11.79-7.26H3.11l-.1-.68c-.04-.27.09-.46.16-.55.14-.17.36-.26.58-.26h20.49c.23,0,.44.1.58.26.07.08.19.26.17.5l-.21.73Z"/>
</svg>