<?xml version="1.0" encoding="UTF-8"?>
<svg id="OBJECT" xmlns="http://www.w3.org/2000/svg" viewBox="0 0 32 32">
  <defs>
    <style>
      .cls-1 {
        fill: #FD4360;
      }

      .cls-2 {
        fill: #dadada;
      }
    </style>
  </defs>
  <path class="cls-2" d="M30,29h-.5V13.67c0-.55-.45-1-1-1s-1,.45-1,1v15.33h-4v-10h.5c.55,0,1-.45,1-1s-.45-1-1-1H8c-.55,0-1,.45-1,1s.45,1,1,1h.5v10H4.5V13.67c0-.55-.45-1-1-1s-1,.45-1,1v15.33h-.5c-.55,0-1,.45-1,1s.45,1,1,1H30c.55,0,1-.45,1-1s-.45-1-1-1Zm-8.5,0h-4.5v-10h4.5v10Zm-11-10h4.5v10h-4.5v-10Z"/>
  <g>
    <path class="cls-1" d="M30,1H2c-.55,0-1,.45-1,1v2H31V2c0-.55-.45-1-1-1Z"/>
    <path class="cls-1" d="M1,8.04c0,2.11,1.58,3.85,3.6,3.95,1.04,.06,2.05-.31,2.82-1.04,.06-.06,.13-.12,.19-.19,.7,.76,1.69,1.23,2.8,1.23s2.1-.48,2.8-1.23c.7,.76,1.69,1.23,2.8,1.23s2.1-.48,2.8-1.23c.7,.76,1.69,1.23,2.8,1.23s2.1-.48,2.8-1.23c.06,.07,.12,.13,.19,.19,.71,.68,1.63,1.04,2.61,1.04,.07,0,.14,0,.21,0,2.02-.11,3.6-1.84,3.6-3.95v-2.04H1v2.04Z"/>
  </g>
</svg>