<?xml version="1.0" encoding="UTF-8"?>
<svg id="OBJECT" xmlns="http://www.w3.org/2000/svg" viewBox="0 0 32 32">
  <defs>
    <style>
      .cls-1 {
        fill: #FD4360;
      }

      .cls-1, .cls-2 {
        stroke-width: 0px;
      }

      .cls-2 {
        fill: #dadada;
      }
    </style>
  </defs>
  <path class="cls-2" d="m28.5,12H3.5c-1.38,0-2.5,1.12-2.5,2.5v2.5c0,.55.45,1,1,1h1.14l1.61,10.46c.23,1.47,1.47,2.54,2.96,2.54h16.57c1.49,0,2.74-1.07,2.96-2.54l1.61-10.46h1.14c.55,0,1-.45,1-1v-2.5c0-1.38-1.12-2.5-2.5-2.5Zm-9,13h-7v-3h7v3Zm2-3h4.72l-.46,3h-4.26v-3Zm-2,5v2h-7v-2h7Zm-13.72-5h4.72v3h-4.26l-.46-3Zm6.72-2v-2h7v2h-7Zm-2,0h-5.03l-.31-2h5.33v2Zm-3.77,8.15l-.18-1.15h3.95v2h-2.78c-.5,0-.91-.36-.99-.85Zm17.56.85h-2.78v-2h3.95l-.18,1.15c-.08.49-.49.85-.99.85Zm2.24-9h-5.03v-2h5.33l-.31,2Zm2.47-4H3v-1.5c0-.28.22-.5.5-.5h25c.28,0,.5.22.5.5v1.5Z"/>
  <g>
    <path class="cls-1" d="m28.02,1.89c-.47-.56-1.16-.89-1.9-.89-1.2,0-2.22.85-2.44,2.03l-1.27,6.97h5.03l1.11-6.08c.13-.72-.06-1.46-.54-2.03Z"/>
    <path class="cls-1" d="m5.88,1c-.74,0-1.43.32-1.9.89-.47.57-.67,1.31-.54,2.03l1.11,6.08h5.03l-1.27-6.97c-.21-1.18-1.24-2.03-2.44-2.03Z"/>
  </g>
</svg>