<?xml version="1.0" encoding="UTF-8"?>
<svg id="OBJECT" xmlns="http://www.w3.org/2000/svg" viewBox="0 0 32 32">
  <defs>
    <style>
      .cls-1 {
        fill: #FD4360;
      }

      .cls-1, .cls-2 {
        stroke-width: 0px;
      }

      .cls-2 {
        fill: #dadada;
      }
    </style>
  </defs>
  <path class="cls-1" d="m30.27,9.06c-.58-.67-1.42-1.06-2.32-1.06H4.04c-.89,0-1.74.38-2.32,1.06-.57.66-.82,1.52-.7,2.37l.09.65h29.75l.09-.65c.12-.85-.13-1.72-.7-2.37Z"/>
  <g>
    <path class="cls-2" d="m30.17,14.3c-.54-.1-1.07.25-1.17.79l-1.04,5.44h-4.3l.38-4.92c.04-.55-.37-1.03-.92-1.07-.55-.05-1.03.37-1.07.92l-.39,5.08h-4.65v-5c0-.55-.45-1-1-1s-1,.45-1,1v5h-4.65l-.39-5.08c-.04-.55-.52-.97-1.07-.92-.55.04-.96.52-.92,1.07l.38,4.92h-4.3l-1.04-5.44c-.1-.54-.62-.9-1.17-.79-.54.1-.9.63-.79,1.17l2.48,12.96c.21,1.47,1.51,2.57,3.01,2.57h18.94c1.5,0,2.8-1.11,3.01-2.53l2.48-13c.1-.54-.25-1.07-.79-1.17ZM6.53,29c-.52,0-.96-.37-1.04-.9l-1.06-5.56h4.07l.49,6.46h-2.46Zm8.47,0h-4l-.49-6.46h4.5v6.46Zm6,0h-4v-6.46h4.5l-.49,6.46Zm5.5-.86c-.07.49-.52.86-1.03.86h-2.46l.49-6.46h4.07l-1.07,5.6Z"/>
    <path class="cls-2" d="m7.82,6c.55,0,1-.45,1-1v-.98c0-.56.46-1.02,1.02-1.02h12.31c.56,0,1.02.46,1.02,1.02v.98c0,.55.45,1,1,1s1-.45,1-1v-.98c0-1.67-1.36-3.02-3.02-3.02h-12.31c-1.67,0-3.02,1.36-3.02,3.02v.98c0,.55.45,1,1,1Z"/>
  </g>
</svg>