<?xml version="1.0" encoding="UTF-8"?>
<svg id="OBJECT" xmlns="http://www.w3.org/2000/svg" viewBox="0 0 32 32">
  <defs>
    <style>
      .cls-1 {
        fill: #FD4360;
      }

      .cls-1, .cls-2 {
        stroke-width: 0px;
      }

      .cls-2 {
        fill: #dadada;
      }
    </style>
  </defs>
  <path class="cls-2" d="m30,8h-1c-.55,0-1,.45-1,1s.45,1,1,1v7c0,1.65-1.35,3-3,3H9v-10h2c.55,0,1-.45,1-1s-.45-1-1-1h-2v-4c0-1.65-1.35-3-3-3H2c-.55,0-1,.45-1,1s.45,1,1,1h4c.55,0,1,.45,1,1v20c0,1.65,1.35,3,3,3h1v.5c0,1.93,1.57,3.5,3.5,3.5s3.5-1.57,3.5-3.5v-.5h3v.5c0,1.93,1.57,3.5,3.5,3.5s3.5-1.57,3.5-3.5c0-1.38-1.12-2.5-2.5-2.5h-15.5c-.55,0-1-.45-1-1v-2h17c2.76,0,5-2.24,5-5v-8c0-.55-.45-1-1-1Zm-7,19h2.5c.28,0,.5.22.5.5,0,.83-.67,1.5-1.5,1.5s-1.5-.67-1.5-1.5v-.5Zm-7,.5c0,.83-.67,1.5-1.5,1.5s-1.5-.67-1.5-1.5v-.5h3v.5Z"/>
  <path class="cls-1" d="m20,16c3.86,0,7-3.14,7-7s-3.14-7-7-7-7,3.14-7,7,3.14,7,7,7Zm.7-6h-1.4c-1.32,0-2.4-1.08-2.4-2.4,0-1.22.92-2.22,2.1-2.37v-.43c0-.55.45-1,1-1s1,.45,1,1v.4h1.1c.55,0,1,.45,1,1s-.45,1-1,1h-2.8c-.22,0-.4.18-.4.4s.18.4.4.4h1.4c1.32,0,2.4,1.08,2.4,2.4,0,1.22-.92,2.22-2.1,2.37v.43c0,.55-.45,1-1,1s-1-.45-1-1v-.4h-1.1c-.55,0-1-.45-1-1s.45-1,1-1h2.8c.22,0,.4-.18.4-.4s-.18-.4-.4-.4Z"/>
</svg>