<?xml version="1.0" encoding="UTF-8"?>
<svg id="OBJECT" xmlns="http://www.w3.org/2000/svg" viewBox="0 0 512 512">
  <defs>
    <style>
      .cls-1 {
        fill: #FD4360;
      }

      .cls-2 {
        fill: #dadada;
      }
    </style>
  </defs>
  <g>
    <path class="cls-2" d="M347.18,253.23l-22.29-130c-.62-3.6-3.74-6.23-7.39-6.23h-47.5v-39.5C270,34.77,235.23,0,192.5,0S115,34.77,115,77.5v39.5h-47.5c-3.65,0-6.77,2.63-7.39,6.23L.11,473.23c-.37,2.18,.23,4.41,1.66,6.1,1.43,1.69,3.52,2.67,5.73,2.67H238.31c4.14,0,7.5-3.36,7.5-7.5s-3.36-7.5-7.5-7.5H16.39l6-35H245.13c4.14,0,7.5-3.36,7.5-7.5s-3.36-7.5-7.5-7.5H24.97L73.82,132h41.18v38h-2.5c-4.14,0-7.5,3.36-7.5,7.5s3.36,7.5,7.5,7.5h50c4.14,0,7.5-3.36,7.5-7.5s-3.36-7.5-7.5-7.5h-2.5v-38h65v38h-2.5c-4.14,0-7.5,3.36-7.5,7.5s3.36,7.5,7.5,7.5h50c4.14,0,7.5-3.36,7.5-7.5s-3.36-7.5-7.5-7.5h-2.5v-38h41.18l21.22,123.77c.63,3.65,3.8,6.23,7.38,6.23,.42,0,.85-.04,1.28-.11,4.08-.7,6.82-4.58,6.12-8.66ZM160,117v-39.5c0-17.92,14.58-32.5,32.5-32.5s32.5,14.58,32.5,32.5v39.5h-65Zm80,53V77.5c0-26.19-21.31-47.5-47.5-47.5s-47.5,21.31-47.5,47.5v92.5h-15V77.5c0-34.46,28.04-62.5,62.5-62.5s62.5,28.04,62.5,62.5v92.5h-15Z"/>
    <path class="cls-2" d="M82.5,342c-12.41,0-22.5,10.09-22.5,22.5v5c0,12.41,10.09,22.5,22.5,22.5h20c12.41,0,22.5-10.09,22.5-22.5v-5c0-12.41-10.09-22.5-22.5-22.5h-20Zm27.5,22.5v5c0,4.14-3.36,7.5-7.5,7.5h-20c-4.14,0-7.5-3.36-7.5-7.5v-5c0-4.14,3.36-7.5,7.5-7.5h20c4.14,0,7.5,3.36,7.5,7.5Z"/>
    <path class="cls-2" d="M162.5,342c-12.41,0-22.5,10.09-22.5,22.5v5c0,12.41,10.09,22.5,22.5,22.5h20c12.41,0,22.5-10.09,22.5-22.5v-5c0-12.41-10.09-22.5-22.5-22.5h-20Zm27.5,22.5v5c0,4.14-3.36,7.5-7.5,7.5h-20c-4.14,0-7.5-3.36-7.5-7.5v-5c0-4.14,3.36-7.5,7.5-7.5h20c4.14,0,7.5,3.36,7.5,7.5Z"/>
  </g>
  <g>
    <path class="cls-1" d="M481.93,283.49c-.51-3.72-3.68-6.49-7.43-6.49h-180c-3.75,0-6.92,2.77-7.43,6.49l-22.3,163.51h239.46l-22.3-163.51Zm-49.93,71.01c0,26.19-21.31,47.5-47.5,47.5s-47.5-21.31-47.5-47.5v-30c0-4.14,3.36-7.5,7.5-7.5s7.5,3.36,7.5,7.5v30c0,17.92,14.58,32.5,32.5,32.5s32.5-14.58,32.5-32.5v-30c0-4.14,3.36-7.5,7.5-7.5s7.5,3.36,7.5,7.5v30Z"/>
    <path class="cls-1" d="M511.93,503.49l-5.66-41.49h-243.55l-5.66,41.49c-.29,2.15,.36,4.31,1.78,5.95,1.42,1.63,3.48,2.57,5.65,2.57h240c2.17,0,4.23-.94,5.65-2.57,1.42-1.63,2.07-3.8,1.78-5.95Z"/>
  </g>
</svg>