<?xml version="1.0" encoding="UTF-8"?>
<svg id="OBJECT" xmlns="http://www.w3.org/2000/svg" viewBox="0 0 32 32">
  <defs>
    <style>
      .cls-1 {
        fill: #FD4360;
      }

      .cls-1, .cls-2 {
        stroke-width: 0px;
      }

      .cls-2 {
        fill: #dadada;
      }
    </style>
  </defs>
  <path class="cls-2" d="m31,8.5V2c0-.55-.45-1-1-1H2c-.55,0-1,.45-1,1v6.5c0,1.32.59,2.51,1.5,3.33v17.17h-.5c-.55,0-1,.45-1,1s.45,1,1,1h28c.55,0,1-.45,1-1s-.45-1-1-1h-.5V11.83c.91-.82,1.5-2,1.5-3.33Zm-28,0v-1.5h5v1.5c0,1.38-1.12,2.5-2.5,2.5s-2.5-1.12-2.5-2.5Zm7-1.5h5v1.5c0,1.38-1.12,2.5-2.5,2.5s-2.5-1.12-2.5-2.5v-1.5Zm7,0h5v1.5c0,1.38-1.12,2.5-2.5,2.5s-2.5-1.12-2.5-2.5v-1.5Zm7,0h5v1.5c0,1.38-1.12,2.5-2.5,2.5s-2.5-1.12-2.5-2.5v-1.5Zm5-4v2H3v-2h26Zm-1.5,26H4.5V12.88c.32.07.66.12,1,.12,1.41,0,2.67-.65,3.5-1.67.83,1.02,2.09,1.67,3.5,1.67s2.67-.65,3.5-1.67c.83,1.02,2.09,1.67,3.5,1.67s2.67-.65,3.5-1.67c.83,1.02,2.09,1.67,3.5,1.67.34,0,.68-.05,1-.12v16.12Z"/>
  <path class="cls-1" d="m20.2,14.47h-8.4c-1.54,0-2.8,1.26-2.8,2.8v7.47c0,1.54,1.26,2.8,2.8,2.8h8.4c1.54,0,2.8-1.26,2.8-2.8v-7.47c0-1.54-1.26-2.8-2.8-2.8Zm-.2,6.53c0,1.65-1.35,3-3,3h-2c-1.65,0-3-1.35-3-3v-2c0-.55.45-1,1-1s1,.45,1,1v2c0,.55.45,1,1,1h2c.55,0,1-.45,1-1v-2c0-.55.45-1,1-1s1,.45,1,1v2Z"/>
</svg>