<?xml version="1.0" encoding="UTF-8"?>
<svg id="OBJECT" xmlns="http://www.w3.org/2000/svg" viewBox="0 0 512 512">
  <defs>
    <style>
      .cls-1 {
        fill: #FD4360;
      }

      .cls-2 {
        fill: #dadada;
      }
    </style>
  </defs>
  <g>
    <path class="cls-2" d="M69.22,369.02l17.46-125.69c.57-4.1-2.29-7.89-6.4-8.46-4.11-.58-7.89,2.29-8.46,6.4l-17.46,125.69c-.57,4.1,2.29,7.89,6.4,8.46,.35,.05,.7,.07,1.04,.07,3.68,0,6.9-2.72,7.42-6.47Z"/>
    <path class="cls-2" d="M50.05,398.07l-1.05,7.59c-.57,4.1,2.29,7.89,6.4,8.46,.35,.05,.7,.07,1.04,.07,3.68,0,6.9-2.72,7.42-6.47l1.05-7.59c.57-4.1-2.29-7.89-6.4-8.46-4.1-.57-7.89,2.29-8.46,6.4Z"/>
    <path class="cls-2" d="M404.93,503.47l-3.47-25c-.57-4.1-4.36-6.97-8.46-6.4-4.1,.57-6.97,4.36-6.4,8.46l2.29,16.47H16.11l6.25-45H169.5c4.14,0,7.5-3.36,7.5-7.5s-3.36-7.5-7.5-7.5H24.45L64.03,152h45.97v38h-2.5c-4.14,0-7.5,3.36-7.5,7.5s3.36,7.5,7.5,7.5h50c4.14,0,7.5-3.36,7.5-7.5s-3.36-7.5-7.5-7.5h-2.5v-38h95v38h-2.5c-4.14,0-7.5,3.36-7.5,7.5s3.36,7.5,7.5,7.5h50c4.14,0,7.5-3.36,7.5-7.5s-3.36-7.5-7.5-7.5h-2.5v-38h45.97l11.6,83.53c.52,3.75,3.73,6.47,7.42,6.47,.34,0,.69-.02,1.04-.07,4.1-.57,6.97-4.36,6.4-8.46l-12.5-90c-.52-3.71-3.69-6.47-7.43-6.47h-52.5v-44.5C295,41.5,253.5,0,202.5,0S110,41.5,110,92.5v44.5H57.5c-3.74,0-6.91,2.76-7.43,6.47L.07,503.47c-.3,2.15,.35,4.32,1.77,5.96s3.49,2.58,5.66,2.58H397.5c2.17,0,4.23-.94,5.66-2.58s2.07-3.81,1.77-5.96ZM155,137v-39.5c0-26.19,21.31-47.5,47.5-47.5s47.5,21.31,47.5,47.5v39.5h-95Zm-30-44.5c0-42.73,34.77-77.5,77.5-77.5s77.5,34.77,77.5,77.5v97.5h-15V97.5c0-34.46-28.04-62.5-62.5-62.5s-62.5,28.04-62.5,62.5v92.5h-15V92.5Z"/>
  </g>
  <path class="cls-1" d="M489.5,257H214.5c-12.41,0-22.5,10.09-22.5,22.5v155c0,12.41,10.09,22.5,22.5,22.5H489.5c12.41,0,22.5-10.09,22.5-22.5v-155c0-12.41-10.09-22.5-22.5-22.5Zm-222.5,25h60c4.14,0,7.5,3.36,7.5,7.5s-3.36,7.5-7.5,7.5h-60c-4.14,0-7.5-3.36-7.5-7.5s3.36-7.5,7.5-7.5Zm-40,0h10c4.14,0,7.5,3.36,7.5,7.5s-3.36,7.5-7.5,7.5h-10c-4.14,0-7.5-3.36-7.5-7.5s3.36-7.5,7.5-7.5Zm-7.5,42.5c0-4.14,3.36-7.5,7.5-7.5h100c4.14,0,7.5,3.36,7.5,7.5s-3.36,7.5-7.5,7.5h-100c-4.14,0-7.5-3.36-7.5-7.5Zm264.99-7.39l-2.04,37.45c-.22,4-3.53,7.09-7.48,7.09-.14,0-.27,0-.41-.01-4.14-.22-7.31-3.76-7.08-7.9l1.01-18.6-72.9,68.38c-1.66,1.55-3.93,2.27-6.17,1.96-2.25-.32-4.23-1.63-5.4-3.58l-23.57-39.46-99.2,68.23c-1.3,.89-2.78,1.32-4.24,1.32-2.39,0-4.73-1.14-6.19-3.25-2.35-3.41-1.48-8.08,1.93-10.43l105.79-72.77c1.71-1.17,3.82-1.59,5.85-1.15,2.02,.44,3.78,1.7,4.84,3.48l22.89,38.33,67.29-63.12-17.42-1.11c-4.13-.26-7.27-3.83-7.01-7.96,.26-4.13,3.84-7.27,7.96-7.01l34.53,2.21c4.11,.26,7.23,3.78,7.01,7.89Z"/>
</svg>