<?xml version="1.0" encoding="UTF-8"?>
<svg id="OBJECT" xmlns="http://www.w3.org/2000/svg" viewBox="0 0 32 32">
  <defs>
    <style>
      .cls-1 {
        fill: #FD4360;
      }

      .cls-1, .cls-2 {
        stroke-width: 0px;
      }

      .cls-2 {
        fill: #dadada;
      }
    </style>
  </defs>
  <path class="cls-2" d="m27.35,20.73l3.62-14.48c.07-.3,0-.62-.18-.86s-.48-.38-.79-.38h-1.52c-.55,0-1,.45-1,1s.45,1,1,1h.24l-3.31,13.24c-.11.45-.51.76-.97.76h-15.85l-1.17-14h2.43c.55,0,1-.45,1-1s-.45-1-1-1h-2.6l-.1-1.25c-.13-1.54-1.44-2.75-2.99-2.75h-2.16c-.55,0-1,.45-1,1s.45,1,1,1h2.16c.52,0,.95.4,1,.92l1.69,20.33c.13,1.54,1.44,2.75,2.99,2.75h.16v.5c0,1.93,1.57,3.5,3.5,3.5s3.5-1.57,3.5-3.5v-.5h3v.5c0,1.93,1.57,3.5,3.5,3.5s3.5-1.57,3.5-3.5v-.5h1c.55,0,1-.45,1-1s-.45-1-1-1H9.84c-.52,0-.95-.4-1-.92l-.09-1.08h15.68c1.38,0,2.58-.93,2.91-2.27Zm-12.35,6.77c0,.83-.67,1.5-1.5,1.5s-1.5-.67-1.5-1.5v-.5h3v.5Zm10,0c0,.83-.67,1.5-1.5,1.5s-1.5-.67-1.5-1.5v-.5h3v.5Z"/>
  <path class="cls-1" d="m19.17,15c3.86,0,7-3.14,7-7s-3.14-7-7-7-7,3.14-7,7,3.14,7,7,7Zm-3.21-9.21l2.5-2.5c.39-.39,1.02-.39,1.41,0l2.5,2.5c.39.39.39,1.02,0,1.41-.2.2-.45.29-.71.29s-.51-.1-.71-.29l-.79-.79v5.59c0,.55-.45,1-1,1s-1-.45-1-1v-5.59l-.79.79c-.39.39-1.02.39-1.41,0s-.39-1.02,0-1.41Z"/>
</svg>