<?xml version="1.0" encoding="UTF-8"?>
<svg id="OBJECT" xmlns="http://www.w3.org/2000/svg" viewBox="0 0 32 32">
  <defs>
    <style>
      .cls-1 {
        fill: #FD4360;
      }

      .cls-2 {
        fill: #dadada;
      }
    </style>
  </defs>
  <g>
    <path class="cls-2" d="M16,27.5c.55,0,1-.45,1-1v-4c0-.55-.45-1-1-1s-1,.45-1,1v4c0,.55,.45,1,1,1Z"/>
    <path class="cls-2" d="M10.03,26.74c.11,.45,.52,.76,.97,.76,.08,0,.16,0,.24-.03,.54-.13,.86-.68,.73-1.21l-1-4c-.13-.54-.68-.86-1.21-.73-.54,.13-.86,.68-.73,1.21l1,4Z"/>
    <path class="cls-2" d="M20.76,27.47c.08,.02,.16,.03,.24,.03,.45,0,.86-.3,.97-.76l1-4c.13-.54-.19-1.08-.73-1.21-.54-.14-1.08,.19-1.21,.73l-1,4c-.13,.54,.19,1.08,.73,1.21Z"/>
    <path class="cls-2" d="M28.5,14h-.56l2.94-9.54c.25-.82,.1-1.68-.41-2.37-.51-.69-1.29-1.08-2.15-1.08-1.18,0-2.21,.76-2.55,1.89l-3.42,11.11H9.65L6.23,2.89c-.35-1.13-1.37-1.89-2.55-1.89-.86,0-1.64,.4-2.15,1.08-.51,.69-.66,1.55-.41,2.37l2.94,9.54h-.56c-1.38,0-2.5,1.12-2.5,2.5v2.5c0,.55,.45,1,1,1h1.17l1.63,8.95c.22,1.19,1.25,2.05,2.46,2.05H24.75c1.21,0,2.24-.86,2.46-2.05l1.63-8.95h1.17c.55,0,1-.45,1-1v-2.5c0-1.38-1.12-2.5-2.5-2.5Zm-.82-10.53c.15-.49,.88-.61,1.18-.2,.13,.17,.17,.39,.1,.6l-3.12,10.13h-1.41l3.24-10.53ZM3.03,3.87c-.06-.21-.03-.42,.1-.6,.3-.41,1.03-.29,1.18,.2l3.24,10.53h-1.41L3.03,3.87ZM25.24,28.59c-.04,.24-.25,.41-.49,.41H7.25c-.24,0-.45-.17-.49-.41l-1.56-8.59H26.8l-1.56,8.59Zm3.76-10.59H3v-1.5c0-.28,.22-.5,.5-.5H28.5c.28,0,.5,.22,.5,.5v1.5Z"/>
  </g>
  <path class="cls-1" d="M16,13c3.31,0,6-2.69,6-6s-2.69-6-6-6-6,2.69-6,6,2.69,6,6,6Zm-2.43-6.78c.4-.37,1.04-.35,1.41,.06l.46,.5,1.57-1.7c.38-.41,1.01-.43,1.41-.06,.41,.37,.43,1.01,.06,1.41l-2.31,2.5c-.19,.21-.46,.32-.74,.32s-.55-.12-.74-.32l-1.19-1.29c-.37-.41-.35-1.04,.06-1.41Z"/>
</svg>