<?xml version="1.0" encoding="UTF-8"?>
<svg id="OBJECT" xmlns="http://www.w3.org/2000/svg" viewBox="0 0 32 32">
  <defs>
    <style>
      .cls-1 {
        fill: #FD4360;
      }

      .cls-1, .cls-2 {
        stroke-width: 0px;
      }

      .cls-2 {
        fill: #dadada;
      }
    </style>
  </defs>
  <path class="cls-1" d="m26.93,1.63c-.15-.38-.52-.63-.93-.63H6c-.41,0-.78.25-.93.63l-1.75,3.37h25.35l-1.75-3.37Z"/>
  <g>
    <path class="cls-2" d="m28.5,7H3.5c-1.38,0-2.5,1.12-2.5,2.5v3.51c0,1.3.59,2.46,1.5,3.26v12.74h-.5c-.55,0-1,.45-1,1s.45,1,1,1h28c.55,0,1-.45,1-1s-.45-1-1-1h-.5v-12.74c.91-.8,1.5-1.95,1.5-3.26v-3.51c0-1.38-1.12-2.5-2.5-2.5ZM3,9.5c0-.28.22-.5.5-.5h25c.28,0,.5.22.5.5v1.36H3v-1.36Zm23.66,5.85h-.31c-1.29,0-2.34-1.05-2.34-2.34v-.15h5v.15c0,1.29-1.05,2.34-2.34,2.34ZM3,13.01v-.15h5v.15c0,1.29-1.05,2.34-2.34,2.34h-.31c-1.29,0-2.34-1.05-2.34-2.34Zm7-.15h5v.15c0,1.29-1.05,2.34-2.34,2.34h-.31c-1.29,0-2.34-1.05-2.34-2.34v-.15Zm7,0h5v.15c0,1.29-1.05,2.34-2.34,2.34h-.31c-1.29,0-2.34-1.05-2.34-2.34v-.15Zm-4.88,8.92h-7.62v-1h7.12c.28,0,.5.22.5.5v.5Zm-7.62,7.22v-5.22h23v5.22H4.5Zm23-7.22h-7.62v-.5c0-.28.22-.5.5-.5h7.12v1Zm0-3h-7.12c-1.38,0-2.5,1.12-2.5,2.5v.5h-3.77v-.5c0-1.38-1.12-2.5-2.5-2.5h-7.12v-1.51c.27.05.55.09.84.09h.31c1.35,0,2.55-.63,3.34-1.6.8.97,1.99,1.6,3.34,1.6h.31c1.35,0,2.55-.63,3.34-1.6.8.97,1.99,1.6,3.34,1.6h.31c1.35,0,2.55-.63,3.34-1.6.8.97,1.99,1.6,3.34,1.6h.31c.29,0,.57-.03.84-.09v1.51Z"/>
    <path class="cls-2" d="m20.47,25.39H6.5c-.55,0-1,.45-1,1s.45,1,1,1h13.97c.55,0,1-.45,1-1s-.45-1-1-1Z"/>
    <path class="cls-2" d="m25.5,25.39h-1.26c-.55,0-1,.45-1,1s.45,1,1,1h1.26c.55,0,1-.45,1-1s-.45-1-1-1Z"/>
  </g>
</svg>