<?xml version="1.0" encoding="UTF-8"?>
<svg id="OBJECT" xmlns="http://www.w3.org/2000/svg" viewBox="0 0 32 32">
  <defs>
    <style>
      .cls-1 {
        fill: #FD4360;
      }

      .cls-1, .cls-2 {
        stroke-width: 0px;
      }

      .cls-2 {
        fill: #dadada;
      }
    </style>
  </defs>
  <path class="cls-1" d="m30,1H2c-.55,0-1,.45-1,1v3h30v-3c0-.55-.45-1-1-1Z"/>
  <path class="cls-2" d="m30,7H2c-.55,0-1,.45-1,1v22c0,.55.45,1,1,1h10.95c.48,0,.88-.33.98-.8l2.07-10.18,2.07,10.18c.09.47.5.8.98.8h10.95c.55,0,1-.45,1-1V8c0-.55-.45-1-1-1Zm-1,6.81c-1.88-1.18-2.06-3.55-2.01-4.81h2.01v4.81ZM5.01,9c.05,1.26-.13,3.63-2.01,4.81v-4.81h2.01Zm-2.01,20v-2.33h9.6l-.47,2.33H3Zm13.98-14.2c-.09-.47-.5-.8-.98-.8s-.88.33-.98.8l-2.01,9.87H3v-8.64c3.33-1.26,4.1-4.65,4.02-7.03h7.13l-2.86,2.86c-.39.39-.39,1.02,0,1.41.2.2.45.29.71.29s.51-.1.71-.29l3.57-3.57,3.57,3.57c.2.2.45.29.71.29s.51-.1.71-.29c.39-.39.39-1.02,0-1.41l-2.86-2.86h6.57c-.08,2.38.69,5.77,4.02,7.03v8.64h-10.01l-2.01-9.87Zm2.89,14.2l-.47-2.33h9.6v2.33h-9.13Z"/>
</svg>