<?xml version="1.0" encoding="UTF-8"?>
<svg id="OBJECT" xmlns="http://www.w3.org/2000/svg" viewBox="0 0 512 512">
  <defs>
    <style>
      .cls-1 {
        fill: #FD4360;
      }

      .cls-2 {
        fill: #dadada;
      }
    </style>
  </defs>
  <g>
    <path class="cls-2" d="M437.02,74.98C388.67,26.63,324.38,0,256,0S123.33,26.63,74.98,74.98C26.63,123.33,0,187.62,0,256s26.63,132.67,74.98,181.02c48.35,48.35,112.64,74.98,181.02,74.98s132.67-26.63,181.02-74.98c48.35-48.35,74.98-112.64,74.98-181.02s-26.63-132.67-74.98-181.02Zm-181.02,422.02c-132.89,0-241-108.11-241-241S123.11,15,256,15s241,108.11,241,241-108.11,241-241,241Z"/>
    <path class="cls-2" d="M409.8,102.2c-41.08-41.08-95.7-63.7-153.8-63.7s-112.72,22.62-153.8,63.7c-41.08,41.08-63.7,95.7-63.7,153.8s22.62,112.72,63.7,153.8c41.08,41.08,95.7,63.7,153.8,63.7s112.72-22.62,153.8-63.7c41.08-41.08,63.7-95.7,63.7-153.8s-22.62-112.72-63.7-153.8Zm-153.8,356.3c-111.66,0-202.5-90.84-202.5-202.5S144.34,53.5,256,53.5s202.5,90.84,202.5,202.5-90.84,202.5-202.5,202.5Z"/>
  </g>
  <g>
    <path class="cls-1" d="M182,234.08l9.35,2.54c3.12-10.4,8.69-19.74,16.03-27.38l-6.29-9.05c-17.64-25.37-47.64-38.67-78.28-34.73l-14.75,1.9c-15.59,25.92-24.57,56.24-24.57,88.63,0,2.44,.06,4.86,.16,7.27l1.09-1.18c24.75-26.85,62.01-37.58,97.25-28.01Z"/>
    <path class="cls-1" d="M311.99,202.87l-6.91,6.86c7.26,7.7,12.73,17.09,15.75,27.52l10.95-.92c30.79-2.59,57.31-21.91,69.21-50.41l5.73-13.72c-16.37-29.34-41.06-53.42-70.85-69.05l.47,1.5c10.88,34.86,1.55,72.5-24.36,98.23Z"/>
    <path class="cls-1" d="M213.4,191.63l5.55,7.98c8.75-5.77,18.91-9.56,29.85-10.73l.99-10.93c2.79-30.77-11.63-60.24-37.64-76.92l-12.57-8.06c-32.05,11.12-59.84,31.45-80.18,57.8l1.49-.19c36.21-4.67,71.66,11.06,92.51,41.04Z"/>
    <path class="cls-1" d="M264.74,179.32l-.88,9.65c10.92,1.27,21.06,5.15,29.75,11.01l7.8-7.75c21.92-21.77,29.82-53.62,20.61-83.12l-4.45-14.24c-19.14-7.34-39.89-11.37-61.58-11.37-12.74,0-25.16,1.4-37.12,4.03l1.37,.88c30.74,19.71,47.79,54.54,44.48,90.9Z"/>
    <path class="cls-1" d="M259.3,233.74c-1.09-.16-2.19-.24-3.3-.24-12.41,0-22.5,10.09-22.5,22.5s10.09,22.5,22.5,22.5c11.37,0,20.79-8.47,22.29-19.44-9.77-5.22-16.72-14.48-18.99-25.32Z"/>
    <path class="cls-1" d="M221.56,325.07l4.13-8.78c-9.59-4.84-17.88-11.9-24.18-20.51l-9.99,4.62c-28.05,12.96-46.36,40.19-47.8,71.05l-.69,14.82c24.88,21.6,55.99,36.21,90.23,40.74l-.99-1.29c-22.15-29.03-26.25-67.59-10.71-100.64Z"/>
    <path class="cls-1" d="M256,203.5c-28.95,0-52.5,23.55-52.5,52.5s23.55,52.5,52.5,52.5,52.5-23.55,52.5-52.5-23.55-52.5-52.5-52.5Zm37.5,52.5c0,20.68-16.82,37.5-37.5,37.5s-37.5-16.82-37.5-37.5,16.82-37.5,37.5-37.5c4.3,0,8.53,.73,12.57,2.17,2.84,1.01,4.8,3.63,4.97,6.64,.52,9.05,6.37,16.86,14.92,19.9,2.84,1.01,4.8,3.63,4.97,6.64,.04,.71,.07,1.43,.07,2.16Z"/>
    <path class="cls-1" d="M415.46,190.22l-.62,1.48c-14.07,33.69-45.41,56.52-81.8,59.58l-9.66,.81c.07,1.29,.12,2.59,.12,3.9,0,9.72-2.08,18.96-5.8,27.32l8.98,6.33c25.25,17.8,57.98,20.05,85.43,5.86l13.27-6.86c2.03-10.58,3.11-21.49,3.11-32.65,0-23.28-4.65-45.49-13.04-65.78Z"/>
    <path class="cls-1" d="M374.18,319.78c-19.72,0-39.33-6.02-56.14-17.87l-7.94-5.6c-6.38,8.55-14.75,15.53-24.4,20.28l2.81,10.62c7.9,29.87,31.53,52.63,61.67,59.41l14.47,3.25c25.84-21.01,45.5-49.33,55.8-81.78l-1.45,.75c-14.16,7.32-29.53,10.94-44.82,10.94Z"/>
    <path class="cls-1" d="M274.01,331.05l-2.48-9.37c-4.99,1.18-10.19,1.82-15.53,1.82s-11-.69-16.2-1.98l-4.67,9.93c-13.15,27.96-9.68,60.59,9.06,85.15l9.05,11.86c.92,.01,1.83,.03,2.75,.03,33.97,0,65.68-9.88,92.41-26.9l-1.51-.34c-35.63-8-63.55-34.91-72.89-70.21Z"/>
    <path class="cls-1" d="M185.22,286.77l8.8-4.07c-3.55-8.2-5.52-17.22-5.52-26.71,0-1.53,.07-3.05,.17-4.56l-10.61-2.88c-29.81-8.1-61.35,.98-82.28,23.7l-10.12,10.98c5.41,33.98,20.78,64.68,43.01,89.01l.07-1.5c1.7-36.47,23.34-68.65,56.48-83.97Z"/>
  </g>
</svg>