<?xml version="1.0" encoding="UTF-8"?>
<svg id="OBJECT" xmlns="http://www.w3.org/2000/svg" viewBox="0 0 32 32">
  <defs>
    <style>
      .cls-1 {
        fill: #FD4360;
      }

      .cls-1, .cls-2 {
        stroke-width: 0px;
      }

      .cls-2 {
        fill: #dadada;
      }
    </style>
  </defs>
  <g>
    <path class="cls-1" d="m24,26.25H8c-.55,0-1-.45-1-1s.45-1,1-1h16c.55,0,1,.45,1,1s-.45,1-1,1Z"/>
    <path class="cls-1" d="m21,15.45l-4.5-2.57c-.31-.18-.68-.18-.99,0l-4.5,2.57c-.48.27-.65.88-.37,1.36.27.48.89.65,1.36.37l.38-.22v4.28c0,.55.45,1,1,1h5.25c.55,0,1-.45,1-1v-4.28l.38.22c.16.09.33.13.5.13.35,0,.68-.18.87-.5.27-.48.11-1.09-.37-1.36Z"/>
  </g>
  <path class="cls-2" d="m28,1H4c-1.65,0-3,1.35-3,3v3c0,.55.45,1,1,1h.5v20c0,1.65,1.35,3,3,3h21c1.65,0,3-1.35,3-3V8h.5c.55,0,1-.45,1-1v-3c0-1.65-1.35-3-3-3Zm1,3v2h-8.42v-3h7.42c.55,0,1,.45,1,1Zm-15.58-1h5.16v6.45l-2.2-.91c-.12-.05-.25-.08-.38-.08s-.26.03-.38.08l-2.2.91V3Zm-10.42,1c0-.55.45-1,1-1h7.42v3H3v-2Zm24.5,24c0,.55-.45,1-1,1H5.5c-.55,0-1-.45-1-1V8h6.92v2.94c0,.33.17.65.44.83.28.18.63.22.94.09l3.2-1.32,3.2,1.32c.12.05.25.08.38.08.2,0,.39-.06.56-.17.28-.19.44-.5.44-.83v-2.94h6.92v20Z"/>
</svg>