<?xml version="1.0" encoding="UTF-8"?>
<svg id="OBJECT" xmlns="http://www.w3.org/2000/svg" viewBox="0 0 32 32">
  <defs>
    <style>
      .cls-1 {
        fill: #FD4360;
      }

      .cls-1, .cls-2 {
        stroke-width: 0px;
      }

      .cls-2 {
        fill: #dadada;
      }
    </style>
  </defs>
  <g>
    <path class="cls-1" d="m9.38,18.58v1.34c0,1.33,1.08,2.41,2.41,2.41h8.44c1.33,0,2.41-1.08,2.41-2.41v-1.34h-13.25Z"/>
    <path class="cls-1" d="m22.62,16.58V7.74c0-1.33-1.08-2.41-2.41-2.41h-8.44c-1.33,0-2.41,1.08-2.41,2.41v8.84h13.25Zm-9.62-6.42c0-.55.45-1,1-1s1,.45,1,1v1.83c0,.28.22.5.5.5h1c.28,0,.5-.22.5-.5v-1.83c0-.55.45-1,1-1s1,.45,1,1v1.83c0,1.38-1.12,2.5-2.5,2.5h-1c-1.38,0-2.5-1.12-2.5-2.5v-1.83Z"/>
  </g>
  <path class="cls-2" d="m27,30.83h-4c-.55,0-1-.45-1-1v-3h-12v3c0,.55-.45,1-1,1h-4c-.28,0-.54-.12-.73-.32-.19-.2-.29-.48-.27-.75L6,1.76c.04-.52.47-.93,1-.93h18c.52,0,.96.41,1,.93l2,28c.02.28-.08.55-.27.75-.19.2-.45.32-.73.32Zm-3-2h1.93l-1.86-26H7.93l-1.86,26h1.93v-3c0-.55.45-1,1-1h14c.55,0,1,.45,1,1v3Z"/>
</svg>