<?xml version="1.0" encoding="UTF-8"?>
<svg id="OBJECT" xmlns="http://www.w3.org/2000/svg" viewBox="0 0 32 32">
  <defs>
    <style>
      .cls-1 {
        fill: #FD4360;
      }

      .cls-2 {
        fill: #dadada;
      }
    </style>
  </defs>
  <path class="cls-2" d="M22,1H10c-1.65,0-3,1.35-3,3v12c0,1.65,1.35,3,3,3h3v10h-2.5c-.55,0-1,.45-1,1s.45,1,1,1h11c.55,0,1-.45,1-1s-.45-1-1-1h-2.5v-10h3c1.65,0,3-1.35,3-3V4c0-1.65-1.35-3-3-3Zm-5,28h-2v-10h2v10Zm6-13c0,.55-.45,1-1,1H10c-.55,0-1-.45-1-1V4c0-.55,.45-1,1-1h12c.55,0,1,.45,1,1v12Z"/>
  <g>
    <path class="cls-1" d="M20.45,7.11l-4-2c-.28-.14-.61-.14-.89,0l-4,2c-.49,.25-.69,.85-.45,1.34s.85,.69,1.34,.45l3.55-1.78,3.55,1.78c.14,.07,.3,.11,.45,.11,.37,0,.72-.2,.9-.55,.25-.49,.05-1.09-.45-1.34Z"/>
    <polygon class="cls-1" points="13 10.62 13 15 19 15 19 10.62 16 9.12 13 10.62"/>
  </g>
</svg>