<?xml version="1.0" encoding="UTF-8"?>
<svg id="OBJECT" xmlns="http://www.w3.org/2000/svg" viewBox="0 0 32 32">
  <defs>
    <style>
      .cls-1 {
        fill: #FD4360;
      }

      .cls-2 {
        fill: #dadada;
      }
    </style>
  </defs>
  <path class="cls-2" d="M21,25h-2.25V3.5c0-1.38-1.12-2.5-2.5-2.5h-.5c-1.38,0-2.5,1.12-2.5,2.5V25h-2.25c-1.65,0-3,1.35-3,3v2c0,.55,.45,1,1,1h14c.55,0,1-.45,1-1v-2c0-1.65-1.35-3-3-3ZM15.25,3.5c0-.28,.22-.5,.5-.5h.5c.28,0,.5,.22,.5,.5V25h-1.5V3.5Zm6.75,25.5H10v-1c0-.55,.45-1,1-1h10c.55,0,1,.45,1,1v1Z"/>
  <g>
    <path class="cls-1" d="M30.89,8.55l-2-4c-.17-.34-.52-.55-.89-.55h-8V14h8c.38,0,.73-.21,.89-.55l2-4c.14-.28,.14-.61,0-.89Zm-8.14,1.45h-1c-.55,0-1-.45-1-1s.45-1,1-1h1c.55,0,1,.45,1,1s-.45,1-1,1Zm4,0h-1c-.55,0-1-.45-1-1s.45-1,1-1h1c.55,0,1,.45,1,1s-.45,1-1,1Z"/>
    <path class="cls-1" d="M3.11,9.55L1.11,13.55c-.14,.28-.14,.61,0,.89l2,4c.17,.34,.52,.55,.89,.55H12V9H4c-.38,0-.73,.21-.89,.55Zm6.14,3.45h1c.55,0,1,.45,1,1s-.45,1-1,1h-1c-.55,0-1-.45-1-1s.45-1,1-1Zm-4,0h1c.55,0,1,.45,1,1s-.45,1-1,1h-1c-.55,0-1-.45-1-1s.45-1,1-1Z"/>
  </g>
</svg>