<?xml version="1.0" encoding="UTF-8"?>
<svg id="OBJECT" xmlns="http://www.w3.org/2000/svg" viewBox="0 0 32 32">
  <defs>
    <style>
      .cls-1 {
        fill: #FD4360;
      }

      .cls-1, .cls-2 {
        stroke-width: 0px;
      }

      .cls-2 {
        fill: #dadada;
      }
    </style>
  </defs>
  <g>
    <path class="cls-2" d="m18,25v-5.5c0-1.38-1.12-2.5-2.5-2.5H4.5c-1.38,0-2.5,1.12-2.5,2.5v5.5c-.55,0-1,.45-1,1v2.5c0,1.38,1.12,2.5,2.5,2.5h13c1.38,0,2.5-1.12,2.5-2.5v-2.5c0-.55-.45-1-1-1Zm-14-5.5c0-.28.22-.5.5-.5h11c.28,0,.5.22.5.5v5.5H4v-5.5Zm13,9c0,.28-.22.5-.5.5H3.5c-.28,0-.5-.22-.5-.5v-1.5h14v1.5Z"/>
    <path class="cls-2" d="m5.79,13.46c.2.2.45.29.71.29s.51-.1.71-.29l2.5-2.5c.39-.39.39-1.02,0-1.41s-1.02-.39-1.41,0l-.79.79v-2.84c0-.55.45-1,1-1h2c.55,0,1-.45,1-1s-.45-1-1-1h-2c-1.65,0-3,1.35-3,3v2.84l-.79-.79c-.39-.39-1.02-.39-1.41,0s-.39,1.02,0,1.41l2.5,2.5Z"/>
    <path class="cls-2" d="m28.71,21.04l-2.5-2.5c-.39-.39-1.02-.39-1.41,0l-2.5,2.5c-.39.39-.39,1.02,0,1.41s1.02.39,1.41,0l.79-.79v2.84c0,.55-.45,1-1,1h-2c-.55,0-1,.45-1,1s.45,1,1,1h2c1.65,0,3-1.35,3-3v-2.84l.79.79c.2.2.45.29.71.29s.51-.1.71-.29c.39-.39.39-1.02,0-1.41Z"/>
  </g>
  <g>
    <path class="cls-1" d="m13,11v2c0,1.1.9,2,2,2h14c1.1,0,2-.9,2-2v-2H13Z"/>
    <path class="cls-1" d="m30,3c0-1.1-.9-2-2-2h-12c-1.1,0-2,.9-2,2v6h16V3Z"/>
  </g>
</svg>