<?xml version="1.0" encoding="UTF-8"?>
<svg id="OBJECT" xmlns="http://www.w3.org/2000/svg" viewBox="0 0 32 32">
  <defs>
    <style>
      .cls-1 {
        fill: #FD4360;
      }

      .cls-1, .cls-2 {
        stroke-width: 0px;
      }

      .cls-2 {
        fill: #dadada;
      }
    </style>
  </defs>
  <g>
    <path class="cls-2" d="m23.99,4.32c-.55,0-1,.46-.99,1.01,0,.55.45.99,1,.99h.01c.49-.02.87.17,1.19.48s.48.74.48,1.19c0,.55.44,1,.99,1.01h.01c.55,0,.99-.44,1-.99.01-.99-.37-1.93-1.06-2.62s-1.61-1.07-2.62-1.06Z"/>
    <path class="cls-2" d="m29.16,2.84c-1.2-1.2-2.83-1.83-4.53-1.84-.55,0-1,.46-.99,1.01,0,.55.45.99,1,.99h.01c1.22-.03,2.27.43,3.09,1.25.82.82,1.26,1.92,1.25,3.09,0,.55.44,1,.99,1.01h.01c.55,0,.99-.44,1-.99.02-1.72-.63-3.33-1.84-4.53Z"/>
    <path class="cls-2" d="m6.32,7.99c0-.45.17-.87.48-1.19s.72-.48,1.17-.48c0,0,.02,0,.03,0,.55,0,.99-.44,1-.99,0-.55-.44-1-.99-1.01-1.02,0-1.93.37-2.62,1.06s-1.08,1.63-1.06,2.62c0,.55.45.99,1,.99h.01c.55,0,1-.46.99-1.01Z"/>
    <path class="cls-2" d="m7.35,3c.55,0,.99-.44,1-.99,0-.55-.44-1-.99-1.01-1.73,0-3.33.63-4.53,1.84-1.2,1.2-1.85,2.81-1.84,4.53,0,.55.45.99,1,.99h.01c.55,0,1-.46.99-1.01-.01-1.17.43-2.27,1.25-3.09.81-.81,1.89-1.25,3.04-1.25h.06Z"/>
    <path class="cls-2" d="m24,19.7v-7.7c0-2.79-1.92-5.13-4.5-5.8v-2.2c0-1.65-1.35-3-3-3h-1c-1.65,0-3,1.35-3,3v2.2c-2.58.67-4.5,3.01-4.5,5.8v7.7l-1.83,2.75c-.31.46-.18,1.08.28,1.39.46.3,1.08.18,1.39-.28l1.7-2.55h5.46c.55,0,1-.45,1-1s-.45-1-1-1h-5v-7c0-2.21,1.79-4,4-4h4c2.21,0,4,1.79,4,4v8c0,.2.06.39.17.55l2,3c.19.29.51.45.83.45.19,0,.38-.05.55-.17.46-.31.58-.93.28-1.39l-1.83-2.75ZM15.5,3h1c.55,0,1,.45,1,1v2h-3v-2c0-.55.45-1,1-1Z"/>
    <path class="cls-2" d="m18,9.5h-1.5c-.55,0-1,.45-1,1s.45,1,1,1h1.5c.28,0,.5.22.5.5v2.5c0,.55.45,1,1,1s1-.45,1-1v-2.5c0-1.38-1.12-2.5-2.5-2.5Z"/>
    <path class="cls-2" d="m19,19h-.5c-.55,0-1,.45-1,1s.45,1,1,1h.5c.55,0,1-.45,1-1s-.45-1-1-1Z"/>
  </g>
  <path class="cls-1" d="m27,25H5c-.55,0-1,.45-1,1s.45,1,1,1h6v2c0,1.1.9,2,2,2h6c1.1,0,2-.9,2-2v-2h6c.55,0,1-.45,1-1s-.45-1-1-1Z"/>
</svg>