<?xml version="1.0" encoding="UTF-8"?>
<svg id="OBJECT" xmlns="http://www.w3.org/2000/svg" viewBox="0 0 32 32">
  <defs>
    <style>
      .cls-1 {
        fill: #FD4360;
      }

      .cls-1, .cls-2 {
        stroke-width: 0px;
      }

      .cls-2 {
        fill: #dadada;
      }
    </style>
  </defs>
  <g>
    <path class="cls-2" d="m16,18.5c-.55,0-1,.45-1,1v.5c0,.55.45,1,1,1s1-.45,1-1v-.5c0-.55-.45-1-1-1Z"/>
    <path class="cls-2" d="m16,14.5c-.55,0-1,.45-1,1v.5c0,.55.45,1,1,1s1-.45,1-1v-.5c0-.55-.45-1-1-1Z"/>
    <path class="cls-2" d="m16,4.5c-.55,0-1,.45-1,1v6.5c0,.55.45,1,1,1s1-.45,1-1v-6.5c0-.55-.45-1-1-1Z"/>
    <path class="cls-2" d="m5.5,18.5c-.55,0-1,.45-1,1v.5c0,.55.45,1,1,1s1-.45,1-1v-.5c0-.55-.45-1-1-1Z"/>
    <path class="cls-2" d="m5.5,14.5c-.55,0-1,.45-1,1v.5c0,.55.45,1,1,1s1-.45,1-1v-.5c0-.55-.45-1-1-1Z"/>
    <path class="cls-2" d="m5.5,4.5c-.55,0-1,.45-1,1v6.5c0,.55.45,1,1,1s1-.45,1-1v-6.5c0-.55-.45-1-1-1Z"/>
    <path class="cls-2" d="m30,29h-2.5v-5c0-.55-.45-1-1-1s-1,.45-1,1v5h-8.5v-5h.5c1.65,0,3-1.35,3-3V4c0-1.65-1.35-3-3-3h-3c-1.65,0-3,1.35-3,3v17c0,1.65,1.35,3,3,3h.5v5H6.5v-5h.5c1.65,0,3-1.35,3-3V4c0-1.65-1.35-3-3-3h-3c-1.65,0-3,1.35-3,3v17c0,1.65,1.35,3,3,3h.5v5h-2.5c-.55,0-1,.45-1,1s.45,1,1,1h28c.55,0,1-.45,1-1s-.45-1-1-1Zm-16.5-8V4c0-.55.45-1,1-1h3c.55,0,1,.45,1,1v17c0,.55-.45,1-1,1h-3c-.55,0-1-.45-1-1Zm-10.5,0V4c0-.55.45-1,1-1h3c.55,0,1,.45,1,1v17c0,.55-.45,1-1,1h-3c-.55,0-1-.45-1-1Z"/>
  </g>
  <path class="cls-1" d="m29,1h-5c-1.1,0-2,.9-2,2v17c0,1.1.9,2,2,2h5c1.1,0,2-.9,2-2V3c0-1.1-.9-2-2-2Zm-1.5,17.75c0,.55-.45,1-1,1s-1-.45-1-1v-.5c0-.55.45-1,1-1s1,.45,1,1v.5Zm0-4c0,.55-.45,1-1,1s-1-.45-1-1v-.5c0-.55.45-1,1-1s1,.45,1,1v.5Zm0-4c0,.55-.45,1-1,1s-1-.45-1-1v-6.5c0-.55.45-1,1-1s1,.45,1,1v6.5Z"/>
</svg>