<?xml version="1.0" encoding="UTF-8"?>
<svg id="OBJECT" xmlns="http://www.w3.org/2000/svg" viewBox="0 0 32 32">
  <defs>
    <style>
      .cls-1 {
        fill: #FD4360;
      }

      .cls-1, .cls-2 {
        stroke-width: 0px;
      }

      .cls-2 {
        fill: #dadada;
      }
    </style>
  </defs>
  <g>
    <path class="cls-2" d="m28,1H4c-1.65,0-3,1.35-3,3v24c0,1.65,1.35,3,3,3h24c1.65,0,3-1.35,3-3V4c0-1.65-1.35-3-3-3ZM4,3h24c.55,0,1,.45,1,1v3H3v-3c0-.55.45-1,1-1Zm24,26H4c-.55,0-1-.45-1-1V9h26v19c0,.55-.45,1-1,1Z"/>
    <path class="cls-2" d="m6,10h-1c-.55,0-1,.45-1,1s.45,1,1,1h1c.55,0,1-.45,1-1s-.45-1-1-1Z"/>
    <path class="cls-2" d="m27,10h-1c-.55,0-1,.45-1,1s.45,1,1,1h1c.55,0,1-.45,1-1s-.45-1-1-1Z"/>
    <path class="cls-2" d="m6,26h-1c-.55,0-1,.45-1,1s.45,1,1,1h1c.55,0,1-.45,1-1s-.45-1-1-1Z"/>
    <path class="cls-2" d="m27,26h-1c-.55,0-1,.45-1,1s.45,1,1,1h1c.55,0,1-.45,1-1s-.45-1-1-1Z"/>
    <path class="cls-2" d="m5,6h1c.55,0,1-.45,1-1s-.45-1-1-1h-1c-.55,0-1,.45-1,1s.45,1,1,1Z"/>
    <path class="cls-2" d="m9,6h1c.55,0,1-.45,1-1s-.45-1-1-1h-1c-.55,0-1,.45-1,1s.45,1,1,1Z"/>
    <path class="cls-2" d="m13,6h1c.55,0,1-.45,1-1s-.45-1-1-1h-1c-.55,0-1,.45-1,1s.45,1,1,1Z"/>
  </g>
  <g>
    <path class="cls-1" d="m16,11c-.15,0-.3.01-.45.02-.71,1.92-1.15,4.36-1.23,6.98h3.35c-.08-2.61-.52-5.06-1.23-6.98-.15,0-.3-.02-.45-.02Z"/>
    <path class="cls-1" d="m23.93,18c-.38-3.02-2.45-5.52-5.23-6.52.57,1.92.91,4.15.97,6.52h4.26Z"/>
    <path class="cls-1" d="m15.68,26.98c.11,0,.21.02.32.02s.21-.01.32-.02c.76-1.89,1.24-4.34,1.35-6.98h-3.33c.11,2.64.59,5.1,1.35,6.98Z"/>
    <path class="cls-1" d="m18.59,26.56c2.84-.97,4.96-3.5,5.34-6.56h-4.27c-.09,2.4-.46,4.65-1.07,6.56Z"/>
    <path class="cls-1" d="m8.07,20c.38,3.06,2.5,5.59,5.34,6.56-.61-1.91-.98-4.16-1.07-6.56h-4.27Z"/>
    <path class="cls-1" d="m13.3,11.48c-2.78,1-4.86,3.5-5.23,6.52h4.26c.07-2.38.4-4.61.97-6.52Z"/>
  </g>
</svg>