<?xml version="1.0" encoding="UTF-8"?>
<svg id="OBJECT" xmlns="http://www.w3.org/2000/svg" viewBox="0 0 32 32">
  <defs>
    <style>
      .cls-1 {
        fill: #FD4360;
      }

      .cls-1, .cls-2 {
        stroke-width: 0px;
      }

      .cls-2 {
        fill: #dadada;
      }
    </style>
  </defs>
  <g>
    <path class="cls-2" d="m30,19H2c-.55,0-1,.45-1,1v10c0,.55.45,1,1,1h28c.55,0,1-.45,1-1v-10c0-.55-.45-1-1-1Zm-1,10H3v-8h26v8Z"/>
    <path class="cls-2" d="m9,24.25h18c.55,0,1-.45,1-1s-.45-1-1-1H9c-.55,0-1,.45-1,1s.45,1,1,1Z"/>
    <path class="cls-2" d="m5,24.25h.5c.55,0,1-.45,1-1s-.45-1-1-1h-.5c-.55,0-1,.45-1,1s.45,1,1,1Z"/>
    <path class="cls-2" d="m9,27.75h18c.55,0,1-.45,1-1s-.45-1-1-1H9c-.55,0-1,.45-1,1s.45,1,1,1Z"/>
    <path class="cls-2" d="m5,27.75h.5c.55,0,1-.45,1-1s-.45-1-1-1h-.5c-.55,0-1,.45-1,1s.45,1,1,1Z"/>
  </g>
  <g>
    <path class="cls-1" d="m16,12.38c-.92,0-1.76-.38-2.37-.98-.83.69-1.32,1.7-1.32,2.8v2.96c1.12.54,2.37.85,3.69.85s2.57-.31,3.69-.85v-2.96c0-1.1-.49-2.11-1.32-2.8-.61.61-1.44.98-2.37.98Z"/>
    <path class="cls-1" d="m17.34,9.03v-1.41c0-.48-.39-.88-.88-.88h-.94c-.48,0-.88.39-.88.88v1.41c0,.74.6,1.34,1.34,1.34s1.34-.6,1.34-1.34Z"/>
    <path class="cls-1" d="m16,1c-4.69,0-8.5,3.81-8.5,8.5,0,2.5,1.09,4.74,2.81,6.3v-1.61c0-1.85.9-3.56,2.4-4.61-.03-.18-.05-.36-.05-.54v-1.41c0-1.59,1.29-2.88,2.88-2.88h.94c1.59,0,2.88,1.29,2.88,2.88v1.41c0,.19-.03.36-.05.54,1.5,1.06,2.4,2.76,2.4,4.61v1.61c1.72-1.56,2.81-3.8,2.81-6.3,0-4.69-3.81-8.5-8.5-8.5Z"/>
  </g>
</svg>