<?xml version="1.0" encoding="UTF-8"?>
<svg id="OBJECT" xmlns="http://www.w3.org/2000/svg" viewBox="0 0 32 32">
  <defs>
    <style>
      .cls-1 {
        fill: #FD4360;
      }

      .cls-1, .cls-2 {
        stroke-width: 0px;
      }

      .cls-2 {
        fill: #dadada;
      }
    </style>
  </defs>
  <path class="cls-1" d="m30,16h-7c-.55,0-1,.45-1,1s.45,1,1,1h.5v6h6v-6h.5c.55,0,1-.45,1-1s-.45-1-1-1Z"/>
  <path class="cls-1" d="m23.5,29c0,1.1.9,2,2,2h2c1.1,0,2-.9,2-2v-3h-6v3Z"/>
  <path class="cls-2" d="m23.5,1h-1.5c-2.21,0-4,1.79-4,4v15c0,1.1-.9,2-2,2s-2-.9-2-2V5c0-2.21-1.79-4-4-4h-1.5c-2.21,0-4,1.79-4,4v11h-2.5c-.55,0-1,.45-1,1s.45,1,1,1h.5v10.5c0,1.38,1.12,2.5,2.5,2.5h1c1.38,0,2.5-1.12,2.5-2.5v-10.5h.5c.55,0,1-.45,1-1s-.45-1-1-1h-2.5V5c0-1.1.9-2,2-2h1.5c1.1,0,2,.9,2,2v15c0,2.21,1.79,4,4,4s4-1.79,4-4V5c0-1.1.9-2,2-2h1.5c1.1,0,2,.9,2,2v8c0,.55.45,1,1,1s1-.45,1-1V5c0-2.21-1.79-4-4-4ZM6,29h-1c-.28,0-.5-.22-.5-.5v-2.5h2v2.5c0,.28-.22.5-.5.5Zm.5-5h-2v-6h2v6Z"/>
</svg>