<?xml version="1.0" encoding="UTF-8"?>
<svg id="OBJECT" xmlns="http://www.w3.org/2000/svg" viewBox="0 0 32 32">
  <defs>
    <style>
      .cls-1 {
        fill: #FD4360;
      }

      .cls-1, .cls-2 {
        stroke-width: 0px;
      }

      .cls-2 {
        fill: #dadada;
      }
    </style>
  </defs>
  <g>
    <path class="cls-2" d="m29,10.18v-3.18c0-1.65-1.35-3-3-3h-4c-1.65,0-3,1.35-3,3v3.18c-1.16.41-2,1.51-2,2.82v2c0,1.3.84,2.4,2,2.82v5.18c0,2.76,2.24,5,5,5s5-2.24,5-5v-5.18c1.16-.41,2-1.51,2-2.82v-2c0-1.3-.84-2.4-2-2.82Zm-7-4.18h4c.55,0,1,.45,1,1v3h-6v-3c0-.55.45-1,1-1Zm2,20c-1.65,0-3-1.35-3-3v-5h6v5c0,1.65-1.35,3-3,3Zm5-11c0,.55-.45,1-1,1h-8c-.55,0-1-.45-1-1v-2c0-.55.45-1,1-1h8c.55,0,1,.45,1,1v2Z"/>
    <path class="cls-2" d="m23.5,9h1c.55,0,1-.45,1-1s-.45-1-1-1h-1c-.55,0-1,.45-1,1s.45,1,1,1Z"/>
    <path class="cls-2" d="m24,20c-.55,0-1,.45-1,1v2c0,.55.45,1,1,1s1-.45,1-1v-2c0-.55-.45-1-1-1Z"/>
  </g>
  <g>
    <rect class="cls-1" x="1" y="12" width="14" height="4" rx="1.5" ry="1.5"/>
    <path class="cls-1" d="m13,7c0-1.65-1.35-3-3-3h-4c-1.65,0-3,1.35-3,3v3h10v-3Zm-4.5,1h-1c-.55,0-1-.45-1-1s.45-1,1-1h1c.55,0,1,.45,1,1s-.45,1-1,1Z"/>
    <path class="cls-1" d="m3,23c0,2.76,2.24,5,5,5s5-2.24,5-5v-5H3v5Zm4-2c0-.55.45-1,1-1s1,.45,1,1v2c0,.55-.45,1-1,1s-1-.45-1-1v-2Z"/>
  </g>
</svg>