<?xml version="1.0" encoding="UTF-8"?>
<svg id="OBJECT" xmlns="http://www.w3.org/2000/svg" viewBox="0 0 32 32">
  <defs>
    <style>
      .cls-1 {
        fill: #FD4360;
      }

      .cls-1, .cls-2 {
        stroke-width: 0px;
      }

      .cls-2 {
        fill: #dadada;
      }
    </style>
  </defs>
  <g>
    <path class="cls-2" d="m24.65,4.95c-.22-.19-.52-.28-.81-.23-6.84,1.1-9.89-3.11-10.02-3.29-.19-.27-.49-.43-.82-.43h0c-.33,0-.63.16-.82.43-.13.18-3.18,4.4-10.02,3.29-.29-.05-.58.04-.81.23-.22.19-.35.47-.35.76v10.71c0,3.86,1.69,7.52,4.52,10.04,0,0,0,0,0,0,0,0,.01,0,.02.01.63.56,1.32,1.07,2.07,1.51l4.88,2.87c.16.09.33.14.51.14s.35-.05.51-.14l2.81-1.65c.48-.28.64-.89.36-1.37-.28-.48-.89-.64-1.37-.36l-2.3,1.35-4.37-2.57c-.31-.18-.59-.39-.88-.6l2.7-2.7c.57-.57.88-1.32.88-2.12v-6.39c0-.55-.45-1-1-1s-1,.45-1,1v6.39c0,.26-.11.52-.29.71l-2.81,2.81c-2.03-2.11-3.22-4.96-3.22-7.94V6.84c5.36.49,8.59-1.92,10-3.32.9.9,2.56,2.21,5.04,2.91v5.73c0,.29-.12.56-.34.75l-1.34,1.18c-.42.36-.46,1-.09,1.41.2.23.47.34.75.34.23,0,.47-.08.66-.25l1.34-1.18c.65-.57,1.02-1.39,1.02-2.26v-5.34c.91.1,1.89.13,2.96.03v8.17c0,.55.45,1,1,1s1-.45,1-1V5.71c0-.29-.13-.57-.35-.76Z"/>
    <path class="cls-2" d="m9.33,10.45v.5c0,.55.45,1,1,1s1-.45,1-1v-.5c0-.55-.45-1-1-1s-1,.45-1,1Z"/>
    <path class="cls-2" d="m14.43,15.77l-.4.35c-.41.36-.46,1-.09,1.41.2.22.47.34.75.34.23,0,.47-.08.66-.25l.4-.35c.41-.36.46-1,.09-1.41-.36-.41-1-.46-1.41-.09Z"/>
  </g>
  <path class="cls-1" d="m24.5,17c-3.58,0-6.5,2.92-6.5,6.5s2.92,6.5,6.5,6.5,6.5-2.92,6.5-6.5-2.92-6.5-6.5-6.5Zm3.21,5.68l-3.06,3.06c-.19.19-.44.29-.71.29s-.52-.11-.71-.29l-1.94-1.94c-.39-.39-.39-1.02,0-1.41s1.02-.39,1.41,0l1.23,1.23,2.35-2.36c.39-.39,1.02-.39,1.41,0s.39,1.02,0,1.41Z"/>
</svg>