<?xml version="1.0" encoding="UTF-8"?>
<svg id="OBJECT" xmlns="http://www.w3.org/2000/svg" viewBox="0 0 32 32">
  <defs>
    <style>
      .cls-1 {
        fill: #FD4360;
      }

      .cls-1, .cls-2 {
        stroke-width: 0px;
      }

      .cls-2 {
        fill: #dadada;
      }
    </style>
  </defs>
  <g>
    <path class="cls-2" d="m30,29h-1V11.29c0-.55-.45-1-1-1s-1,.45-1,1v5.15l-3.54,2.13c-.9.54-1.46,1.52-1.46,2.57v7.87h-12v-7.87c0-1.05-.56-2.03-1.46-2.57l-3.54-2.13v-5.15c0-.55-.45-1-1-1s-1,.45-1,1v17.71h-1c-.55,0-1,.45-1,1s.45,1,1,1h28c.55,0,1-.45,1-1s-.45-1-1-1Zm-6-7.87c0-.35.19-.68.49-.86l2.51-1.51v10.23h-3v-7.87Zm-19-2.37l2.51,1.51c.3.18.49.51.49.86v7.87h-3v-10.23Z"/>
    <path class="cls-2" d="m18.25,18.18c.25,0,.51-.1.7-.29.39-.39.4-1.02,0-1.41-.79-.8-1.84-1.24-2.96-1.24s-2.17.44-2.96,1.24c-.39.39-.39,1.03,0,1.41.39.39,1.03.38,1.41,0,.82-.83,2.25-.83,3.08,0,.2.2.45.3.71.3Z"/>
    <path class="cls-2" d="m12.21,14.59c1.01-1.02,2.36-1.59,3.79-1.59s2.78.56,3.79,1.59c.2.2.45.3.71.3s.51-.1.7-.29c.39-.39.4-1.02,0-1.41-1.39-1.4-3.24-2.18-5.21-2.18s-3.82.77-5.21,2.18c-.39.39-.39,1.03,0,1.41.39.39,1.02.39,1.41,0Z"/>
    <path class="cls-2" d="m15.75,19c-.55,0-1,.45-1,1s.45,1,1,1h.5c.55,0,1-.45,1-1s-.45-1-1-1h-.5Z"/>
    <path class="cls-2" d="m11.5,25c0,.55.45,1,1,1h7c.55,0,1-.45,1-1s-.45-1-1-1h-7c-.55,0-1,.45-1,1Z"/>
  </g>
  <path class="cls-1" d="m30.34,6.06L16.34,1.06c-.22-.08-.46-.08-.67,0L1.66,6.06c-.4.14-.66.52-.66.94v3.3l14.66-5.24c.22-.08.46-.08.67,0l14.66,5.24v-3.3c0-.42-.27-.8-.66-.94Z"/>
</svg>