<?xml version="1.0" encoding="UTF-8"?>
<svg id="OBJECT" xmlns="http://www.w3.org/2000/svg" viewBox="0 0 32 32">
  <defs>
    <style>
      .cls-1 {
        fill: #FD4360;
      }

      .cls-1, .cls-2 {
        stroke-width: 0px;
      }

      .cls-2 {
        fill: #dadada;
      }
    </style>
  </defs>
  <g>
    <path class="cls-2" d="m22.57,13.08h-.02c-.55,0-1,.45-1,1,0,.55.45,1,1,1,0,0,.01,0,.02,0,.62,0,1.21.24,1.64.68.44.44.68,1.03.68,1.65,0,.55.44,1,1,1h0c.55,0,1-.44,1-1,0-1.17-.44-2.26-1.26-3.08-.82-.81-1.9-1.26-3.06-1.26Z"/>
    <path class="cls-2" d="m28.77,11.21c-1.44-1.44-3.36-2.23-5.41-2.23h-.04c-.55,0-1,.45-1,1,0,.55.45,1,1,1h0c1.52-.04,2.95.58,4.02,1.65s1.66,2.5,1.65,4.02c0,.55.44,1,1,1h0c.55,0,1-.44,1-1,.01-2.06-.78-3.99-2.23-5.44Z"/>
    <path class="cls-2" d="m22.65,16.95c-.39-.39-1.02-.39-1.42,0-.39.39-.39,1.02,0,1.41l.37.37c.2.2.45.29.71.29s.51-.1.71-.29c.39-.39.39-1.02,0-1.41l-.37-.37Z"/>
    <path class="cls-2" d="m14,27.5h.5c.55,0,1-.45,1-1s-.45-1-1-1h-.5c-.55,0-1,.45-1,1s.45,1,1,1Z"/>
    <path class="cls-2" d="m21,22h-3.09c-.48-2.83-2.94-5-5.91-5h-1c-2.97,0-5.43,2.17-5.91,5h-3.09c-.55,0-1,.45-1,1s.45,1,1,1h.75l1.79,6.27c.12.43.52.73.96.73h12c.45,0,.84-.3.96-.73l1.79-6.27h.75c.55,0,1-.45,1-1s-.45-1-1-1Zm-10-3h1c1.86,0,3.41,1.28,3.86,3H7.14c.45-1.72,2-3,3.86-3Zm5.75,10H6.25l-.43-1.5h4.67c.55,0,1-.45,1-1s-.45-1-1-1h-5.25l-.43-1.5h13.35l-1.43,5Z"/>
  </g>
  <path class="cls-1" d="m9.08,12c.52,0,1-.05,1.41-.11v3.11h2v-3.11c.41.06.9.11,1.42.11,1.29,0,2.81-.29,4.03-1.35,1.89-1.64,2.47-4.59,1.74-8.76-.07-.42-.4-.74-.82-.81-.13-.02-3.13-.5-5.56,1.27-.74.54-1.35,1.22-1.81,2.04-.46-.82-1.07-1.5-1.81-2.04-2.43-1.76-5.44-1.29-5.56-1.27-.42.07-.75.4-.82.81-.73,4.18-.14,7.13,1.74,8.76,1.22,1.06,2.74,1.35,4.03,1.35Z"/>
</svg>