<?xml version="1.0" encoding="UTF-8"?>
<svg id="OBJECT" xmlns="http://www.w3.org/2000/svg" viewBox="0 0 32 32">
  <defs>
    <style>
      .cls-1 {
        fill: #FD4360;
      }

      .cls-1, .cls-2 {
        stroke-width: 0px;
      }

      .cls-2 {
        fill: #dadada;
      }
    </style>
  </defs>
  <g>
    <path class="cls-2" d="m28.5,15h-7c-1.38,0-2.5,1.12-2.5,2.5v.5H4c-1.65,0-3,1.35-3,3v7c0,1.65,1.35,3,3,3h7.81c1.1,0,2.11-.6,2.63-1.56l1.55-2.85,1.55,2.85c.53.96,1.54,1.56,2.63,1.56h7.81c1.65,0,3-1.35,3-3v-10.5c0-1.38-1.12-2.5-2.5-2.5Zm-.5,14h-7.81c-.37,0-.7-.2-.88-.52l-2.31-4.23v-2.24c0-.55-.45-1-1-1s-1,.45-1,1v2.24l-2.31,4.23c-.18.32-.51.52-.88.52h-7.81c-.55,0-1-.45-1-1v-1h4.02c.3,0,.58-.13.77-.37l1.25-1.53c.35-.43.29-1.06-.14-1.41-.43-.35-1.06-.29-1.41.14l-.95,1.16h-3.54v-4c0-.55.45-1,1-1h15v.5c0,1.38,1.12,2.5,2.5,2.5h7c.17,0,.34-.02.5-.05v5.05c0,.55-.45,1-1,1Zm.5-8h-7c-.28,0-.5-.22-.5-.5v-3c0-.28.22-.5.5-.5h7c.28,0,.5.22.5.5v3c0,.28-.22.5-.5.5Z"/>
    <path class="cls-2" d="m23.25,18h-.5c-.55,0-1,.45-1,1s.45,1,1,1h.5c.55,0,1-.45,1-1s-.45-1-1-1Z"/>
    <path class="cls-2" d="m27.25,18h-.5c-.55,0-1,.45-1,1s.45,1,1,1h.5c.55,0,1-.45,1-1s-.45-1-1-1Z"/>
    <path class="cls-2" d="m9.41,21.63l-.13.16c-.34.43-.27,1.06.16,1.4.18.15.4.22.62.22.29,0,.59-.13.78-.38l.13-.16c.34-.43.27-1.06-.16-1.4-.43-.34-1.06-.27-1.4.16Z"/>
  </g>
  <g>
    <path class="cls-1" d="m8.71,1.29c-.25-.25-.61-.35-.95-.26-.34.09-.61.35-.71.69l-4.25,14.45c.39-.1.79-.16,1.21-.16h.92l2.54-8.65,5.84,5.6c.29.28.72.35,1.08.2.37-.16.61-.52.61-.92v-3.4c0-.8-.31-1.56-.88-2.12L8.71,1.29Z"/>
    <path class="cls-1" d="m24.96,1.72c-.1-.34-.37-.6-.71-.69-.34-.09-.71.01-.95.26l-5.41,5.41c-.57.57-.88,1.32-.88,2.12v3.4c0,.4.24.76.61.92.37.16.79.08,1.08-.2l5.84-5.6,1.66,5.65h2.08l-3.32-11.28Z"/>
  </g>
</svg>