<?xml version="1.0" encoding="UTF-8"?>
<svg id="OBJECT" xmlns="http://www.w3.org/2000/svg" viewBox="0 0 32 32">
  <defs>
    <style>
      .cls-1 {
        fill: #FD4360;
      }

      .cls-1, .cls-2 {
        stroke-width: 0px;
      }

      .cls-2 {
        fill: #dadada;
      }
    </style>
  </defs>
  <g>
    <path class="cls-2" d="m30,29h-.5V11.47c0-.55-.45-1-1-1s-1,.45-1,1v13.54H4.5v-13.54c0-.55-.45-1-1-1s-1,.45-1,1v17.53h-.5c-.55,0-1,.45-1,1s.45,1,1,1h28c.55,0,1-.45,1-1s-.45-1-1-1Zm-25.5-2h23v2H4.5v-2Z"/>
    <path class="cls-2" d="m8.5,21c1.65,0,3-1.35,3-3,0-.46-.11-.89-.3-1.29l1.42-1.42c.57-.57.88-1.32.88-2.13v-4.92c0-.55-.45-1-1-1s-1,.45-1,1v4.92c0,.27-.11.52-.3.71l-1.42,1.42c-.39-.19-.82-.3-1.29-.3-1.65,0-3,1.35-3,3s1.35,3,3,3Zm0-4c.27,0,.52.11.7.29,0,0,0,0,0,.01s0,0,.01,0c.18.18.29.42.29.7,0,.55-.45,1-1,1s-1-.45-1-1,.45-1,1-1Z"/>
    <path class="cls-2" d="m20.8,16.72c-.19.39-.3.82-.3,1.29,0,1.65,1.35,3,3,3s3-1.35,3-3-1.35-3-3-3c-.46,0-.89.11-1.29.3l-1.42-1.42c-.19-.19-.3-.44-.3-.71v-4.92c0-.55-.45-1-1-1s-1,.45-1,1v4.92c0,.8.31,1.56.88,2.13l1.42,1.42Zm3.7,1.29c0,.55-.45,1-1,1s-1-.45-1-1c0-.27.11-.52.29-.7,0,0,0,0,.01,0s0,0,0-.01c.18-.18.42-.29.7-.29.55,0,1,.45,1,1Z"/>
    <path class="cls-2" d="m16,19c.55,0,1-.45,1-1V7.5c0-.55-.45-1-1-1s-1,.45-1,1v10.5c0,.55.45,1,1,1Z"/>
    <path class="cls-2" d="m16,23c.55,0,1-.45,1-1v-.5c0-.55-.45-1-1-1s-1,.45-1,1v.5c0,.55.45,1,1,1Z"/>
  </g>
  <path class="cls-1" d="m30.34,6.06L16.34,1.06c-.22-.08-.46-.08-.67,0L1.66,6.06c-.4.14-.66.52-.66.94v3.3l14.66-5.24c.22-.08.46-.08.67,0l14.66,5.24v-3.3c0-.42-.27-.8-.66-.94Z"/>
</svg>