<?xml version="1.0" encoding="UTF-8"?>
<svg id="OBJECT" xmlns="http://www.w3.org/2000/svg" viewBox="0 0 32 32">
  <defs>
    <style>
      .cls-1 {
        fill: #FD4360;
      }

      .cls-1, .cls-2 {
        stroke-width: 0px;
      }

      .cls-2 {
        fill: #dadada;
      }
    </style>
  </defs>
  <path class="cls-2" d="m30.65,7.24c-.22-.19-.51-.27-.8-.23-1.17.17-2.34.31-3.52.44-.55.06-.95.55-.88,1.1.06.55.54.94,1.1.88.82-.09,1.63-.18,2.44-.29v11.72c-8.63-1.13-17.37-1.13-26,0v-11.72c.81.11,1.62.2,2.44.29.56.06,1.04-.34,1.1-.88.06-.55-.34-1.04-.88-1.1-1.18-.13-2.35-.27-3.52-.44-.29-.04-.58.04-.8.23-.22.19-.35.47-.35.76v18c0,.29.13.57.34.76.22.19.51.28.8.23,3.44-.49,6.9-.8,10.36-.92v2.93h-4c-.55,0-1,.45-1,1s.45,1,1,1h15c.55,0,1-.45,1-1s-.45-1-1-1h-4v-2.93c3.46.12,6.92.43,10.36.92.05,0,.09,0,.14,0,.24,0,.47-.09.66-.24.22-.19.34-.47.34-.76V8c0-.29-.13-.57-.35-.76Zm-13.15,21.76h-3v-2.97c1-.02,2-.02,3,0v2.97Zm-14.5-4.15v-1.97c8.63-1.16,17.37-1.16,26,0v1.97c-8.63-1.13-17.37-1.13-26,0Z"/>
  <path class="cls-1" d="m16,17c4.41,0,8-3.59,8-8S20.41,1,16,1s-8,3.59-8,8,3.59,8,8,8Zm.21-3.67h-.42c-.55,0-1-.45-1-1s.45-1,1-1h.42c.55,0,1,.45,1,1s-.45,1-1,1Zm2.37-2.64c-.19.19-.45.29-.7.29s-.52-.1-.71-.3c-.62-.63-1.71-.63-2.33,0-.39.39-1.02.4-1.41,0-.39-.39-.4-1.02,0-1.41,1.38-1.39,3.79-1.39,5.17,0,.39.39.38,1.03,0,1.41Zm-7.04-4.16c1.19-1.2,2.78-1.87,4.46-1.87s3.27.66,4.46,1.87c.39.39.38,1.03,0,1.42-.19.19-.45.29-.7.29s-.51-.1-.71-.3c-.81-.82-1.89-1.27-3.04-1.27s-2.23.45-3.04,1.27c-.39.39-1.02.4-1.41,0-.39-.39-.4-1.02,0-1.42Z"/>
</svg>