<?xml version="1.0" encoding="UTF-8"?>
<svg id="OBJECT" xmlns="http://www.w3.org/2000/svg" viewBox="0 0 32 32">
  <defs>
    <style>
      .cls-1 {
        fill: #FD4360;
      }

      .cls-1, .cls-2 {
        stroke-width: 0px;
      }

      .cls-2 {
        fill: #dadada;
      }
    </style>
  </defs>
  <g>
    <path class="cls-2" d="m26.29,22.05l-.18.18-1.18-1.18,2.77-2.77c1.26-1.26,1.26-3.3,0-4.55l-9.42-9.42c-1.26-1.26-3.3-1.26-4.55,0L4.3,13.72c-1.26,1.26-1.26,3.3,0,4.55l9.42,9.42c.63.63,1.45.94,2.28.94s1.65-.31,2.28-.94l2.77-2.77,1.18,1.18-.18.18c-.39.39-.39,1.02,0,1.41.2.2.45.29.71.29s.51-.1.71-.29l4.24-4.24c.39-.39.39-1.02,0-1.41s-1.02-.39-1.41,0Zm-9.43,4.24c-.48.48-1.25.48-1.73,0l-9.42-9.42c-.48-.48-.48-1.25,0-1.73L15.14,5.71c.24-.24.55-.36.86-.36s.62.12.86.36l9.42,9.42c.48.48.48,1.25,0,1.73l-9.42,9.42Zm5.6-2.77l1.06-1.06,1.18,1.18-1.06,1.06-1.18-1.18Z"/>
    <path class="cls-2" d="m13.45,14.2c-.55,0-1,.45-1,1,0,.55.45,1,1,1h0c.61-.05,1.21.24,1.66.68.44.44.68,1.03.68,1.65,0,.55.44,1,1,1.01h0c.55,0,1-.44,1-.99,0-1.16-.44-2.26-1.26-3.08-.82-.82-1.92-1.23-3.08-1.26Z"/>
    <path class="cls-2" d="m14.27,10.09h-.04c-.55,0-1,.45-1,1,0,.55.44.95,1,1,1.52.04,2.95.58,4.02,1.65,1.07,1.07,1.66,2.5,1.65,4.02,0,.55.44,1,1,1h0c.55,0,1-.44,1-1,0-2.06-.78-4-2.24-5.45-1.44-1.44-3.36-2.23-5.4-2.23Z"/>
    <path class="cls-2" d="m13.55,18.07c-.39-.39-1.02-.39-1.42,0-.39.39-.39,1.02,0,1.41l.37.37c.2.19.45.29.71.29s.51-.1.71-.29c.39-.39.39-1.02,0-1.41l-.37-.37Z"/>
  </g>
  <g>
    <path class="cls-1" d="m26.35,5.66l4.44,4.44c.44-1.15.21-2.51-.72-3.44l-4.71-4.71c-1.26-1.26-3.3-1.26-4.55,0l-1.39,1.39c.06.06.14.1.2.16l8.9,8.9c.06.06.11.14.16.2l.89-.89-4.63-4.63c-.39-.39-.39-1.02,0-1.41s1.02-.39,1.41,0Z"/>
    <path class="cls-1" d="m3.49,19.6c-.06-.06-.11-.14-.16-.2l-.89.89,4.63,4.63c.39.39.39,1.02,0,1.41s-1.02.39-1.41,0l-4.44-4.44c-.44,1.15-.21,2.51.72,3.44l4.71,4.71c1.26,1.26,3.3,1.26,4.55,0l1.39-1.39c-.06-.06-.14-.1-.2-.16L3.49,19.6Z"/>
  </g>
</svg>