<?xml version="1.0" encoding="UTF-8"?>
<svg id="OBJECT" xmlns="http://www.w3.org/2000/svg" viewBox="0 0 32 32">
  <defs>
    <style>
      .cls-1 {
        fill: #FD4360;
      }

      .cls-1, .cls-2 {
        stroke-width: 0px;
      }

      .cls-2 {
        fill: #dadada;
      }
    </style>
  </defs>
  <path class="cls-2" d="m28,18h-3v-3c0-.82-.12-1.61-.33-2.36l2.99-6.53c.51-1.12.42-2.41-.24-3.45-.67-1.04-1.8-1.66-3.04-1.66-1.49,0-2.84.93-3.37,2.32l-1.32,3.48c-1.13-.51-2.38-.8-3.7-.8s-2.57.29-3.7.8l-1.32-3.48c-.53-1.39-1.88-2.33-3.37-2.33-1.23,0-2.37.62-3.04,1.66-.67,1.04-.76,2.33-.24,3.45l2.99,6.53c-.21.75-.33,1.54-.33,2.36v3h-3c-1.65,0-3,1.35-3,3v4c0,1.65,1.35,3,3,3h3c0,1.65,1.35,3,3,3h12c1.65,0,3-1.35,3-3h3c1.65,0,3-1.35,3-3v-4c0-1.65-1.35-3-3-3Zm-5.11-13.97c.24-.62.84-1.03,1.5-1.03.56,0,1.05.27,1.35.74.3.47.34,1.03.11,1.54l-2.26,4.92c-.57-.9-1.3-1.7-2.15-2.34l1.45-3.81Zm-16.74,1.24c-.23-.51-.19-1.07.11-1.54.3-.47.79-.74,1.35-.74.66,0,1.27.42,1.5,1.04l1.45,3.81c-.85.65-1.58,1.44-2.15,2.34l-2.26-4.92Zm-2.15,20.72c-.55,0-1-.45-1-1v-4c0-.55.45-1,1-1h3v6h-3Zm19,2c0,.55-.45,1-1,1h-12c-.55,0-1-.45-1-1v-13c0-3.86,3.14-7,7-7s7,3.14,7,7v13Zm6-3c0,.55-.45,1-1,1h-3v-6h3c.55,0,1,.45,1,1v4Z"/>
  <g>
    <path class="cls-1" d="m10.5,20.5v4c0,1.66,1.34,3,3,3h5c1.66,0,3-1.34,3-3v-4h-11Z"/>
    <path class="cls-1" d="m18.58,16.25c.39-.39.4-1.02,0-1.41-1.38-1.39-3.79-1.39-5.17,0-.39.39-.38,1.03,0,1.41.39.39,1.03.39,1.41,0,.62-.63,1.71-.63,2.33,0,.2.2.45.3.71.3s.51-.1.7-.29Z"/>
    <path class="cls-1" d="m12.96,13.49c.81-.82,1.89-1.27,3.04-1.27s2.23.45,3.04,1.27c.2.2.45.3.71.3s.51-.1.7-.29c.39-.39.4-1.02,0-1.42-1.19-1.2-2.78-1.87-4.46-1.87s-3.27.66-4.46,1.87c-.39.39-.38,1.03,0,1.42.39.39,1.02.39,1.41,0Z"/>
    <path class="cls-1" d="m16.21,16.89h-.42c-.55,0-1,.45-1,1s.45,1,1,1h.42c.55,0,1-.45,1-1s-.45-1-1-1Z"/>
  </g>
</svg>