<?xml version="1.0" encoding="UTF-8"?>
<svg id="OBJECT" xmlns="http://www.w3.org/2000/svg" viewBox="0 0 32 32">
  <defs>
    <style>
      .cls-1 {
        fill: #FD4360;
      }

      .cls-1, .cls-2 {
        stroke-width: 0px;
      }

      .cls-2 {
        fill: #dadada;
      }
    </style>
  </defs>
  <g>
    <path class="cls-2" d="m18.58,7.02c.39-.39.4-1.02,0-1.41-1.38-1.39-3.79-1.39-5.17,0-.39.39-.38,1.03,0,1.41.39.39,1.03.38,1.41,0,.62-.63,1.71-.63,2.33,0,.2.2.45.3.71.3s.51-.1.7-.29Z"/>
    <path class="cls-2" d="m12.96,4.27c.81-.82,1.89-1.27,3.04-1.27s2.23.45,3.04,1.27c.2.2.45.3.71.3s.51-.1.7-.29c.39-.39.4-1.02,0-1.41-1.19-1.2-2.78-1.87-4.46-1.87s-3.27.66-4.46,1.87c-.39.39-.38,1.03,0,1.41.39.39,1.02.38,1.41,0Z"/>
    <path class="cls-2" d="m16.21,7.67h-.42c-.55,0-1,.45-1,1s.45,1,1,1h.42c.55,0,1-.45,1-1s-.45-1-1-1Z"/>
    <path class="cls-2" d="m28,11H4c-1.65,0-3,1.35-3,3v14c0,1.65,1.35,3,3,3h24c1.65,0,3-1.35,3-3v-14c0-1.65-1.35-3-3-3Zm1,17c0,.55-.45,1-1,1H4c-.55,0-1-.45-1-1v-14c0-.55.45-1,1-1h24c.55,0,1,.45,1,1v14Z"/>
    <path class="cls-2" d="m26.5,14.5h-5c-.55,0-1,.45-1,1v11c0,.55.45,1,1,1h5c.55,0,1-.45,1-1v-11c0-.55-.45-1-1-1Zm-1,2v3.5h-3v-3.5h3Zm-3,9v-3.5h3v3.5h-3Z"/>
  </g>
  <path class="cls-1" d="m16,14.5H7c-1.38,0-2.5,1.12-2.5,2.5v8c0,1.38,1.12,2.5,2.5,2.5h9c1.38,0,2.5-1.12,2.5-2.5v-8c0-1.38-1.12-2.5-2.5-2.5Zm-7.5,5v-1c0-.55.45-1,1-1s1,.45,1,1v1c0,.55-.45,1-1,1s-1-.45-1-1Zm4,5h-2c-.55,0-1-.45-1-1s.45-1,1-1h2c.55,0,1,.45,1,1s-.45,1-1,1Zm2-5c0,.55-.45,1-1,1s-1-.45-1-1v-1c0-.55.45-1,1-1s1,.45,1,1v1Z"/>
</svg>