<?xml version="1.0" encoding="UTF-8"?>
<svg id="OBJECT" xmlns="http://www.w3.org/2000/svg" viewBox="0 0 32 32">
  <defs>
    <style>
      .cls-1 {
        fill: #FD4360;
      }

      .cls-1, .cls-2 {
        stroke-width: 0px;
      }

      .cls-2 {
        fill: #dadada;
      }
    </style>
  </defs>
  <g>
    <path class="cls-2" d="m20.48,15.06c.42.01.76.14,1.04.42.27.27.42.64.42,1.04,0,.55.44,1.01.99,1.01h.01c.55,0,.99-.44,1-.99.01-.94-.35-1.82-1-2.47-.66-.66-1.53-1-2.47-1-.55,0-.99.46-.99,1.01,0,.55.41,1.01,1.01.99Z"/>
    <path class="cls-2" d="m21.07,12s.04,0,.06,0c1.04,0,2.02.4,2.75,1.13s1.14,1.73,1.13,2.79c0,.55.44,1,.99,1.01h.01c.55,0,.99-.44,1-.99.02-1.6-.59-3.11-1.72-4.23-1.12-1.12-2.62-1.71-4.23-1.72-.55,0-1,.46-.99,1.01,0,.55.45.99,1,.99Z"/>
    <path class="cls-2" d="m19.57,17.71c.2.2.45.29.71.29s.51-.1.71-.29c.39-.39.39-1.02,0-1.41l-.27-.27c-.39-.39-1.02-.39-1.41,0s-.39,1.02,0,1.41l.27.27Z"/>
    <path class="cls-2" d="m25,19H7c-1.65,0-3,1.35-3,3v2c0,.55.45,1,1,1h1.28l1.32,3.95c.41,1.23,1.55,2.05,2.85,2.05h11.12c1.29,0,2.44-.82,2.85-2.05l1.32-3.95h1.28c.55,0,1-.45,1-1v-2c0-1.65-1.35-3-3-3Zm-2.49,9.32c-.14.41-.52.68-.95.68h-11.12c-.43,0-.81-.27-.95-.68l-1.11-3.32h15.23l-1.11,3.32Zm3.49-5.32H6v-1c0-.55.45-1,1-1h18c.55,0,1,.45,1,1v1Z"/>
    <path class="cls-2" d="m13,28h1c.55,0,1-.45,1-1s-.45-1-1-1h-1c-.55,0-1,.45-1,1s.45,1,1,1Z"/>
    <path class="cls-2" d="m18,28h1c.55,0,1-.45,1-1s-.45-1-1-1h-1c-.55,0-1,.45-1,1s.45,1,1,1Z"/>
  </g>
  <path class="cls-1" d="m27,1h-6c-3.31,0-6,2.69-6,6v3.03c-.84-.63-1.87-1.03-3-1.03h-5c-.55,0-1,.45-1,1v1c0,2.76,2.24,5,5,5h4v2h2v-9h5c3.31,0,6-2.69,6-6v-1c0-.55-.45-1-1-1Z"/>
</svg>