<?xml version="1.0" encoding="UTF-8"?>
<svg id="OBJECT" xmlns="http://www.w3.org/2000/svg" viewBox="0 0 32 32">
  <defs>
    <style>
      .cls-1 {
        fill: #FD4360;
      }

      .cls-1, .cls-2 {
        stroke-width: 0px;
      }

      .cls-2 {
        fill: #dadada;
      }
    </style>
  </defs>
  <g>
    <path class="cls-2" d="m22.6,6.08c-.55,0-1,.45-1,1,0,.55.45,1,1,1h0c.61-.05,1.2.23,1.64.67.44.44.67,1.02.67,1.64,0,.55.44,1,1,1h0c.55,0,1-.44,1-1,0-1.16-.44-2.25-1.26-3.06-.82-.82-1.94-1.26-3.06-1.26Z"/>
    <path class="cls-2" d="m28.78,4.22c-1.43-1.43-3.34-2.22-5.37-2.22h-.04c-.55,0-1,.45-1,1,0,.55.45,1,1,1h0c1.51,0,2.92.57,3.99,1.63,1.06,1.06,1.64,2.48,1.63,3.99,0,.55.44,1,1,1h0c.55,0,1-.44,1-1,.01-2.05-.78-3.97-2.22-5.41Z"/>
    <path class="cls-2" d="m21.66,11.71c.2.2.45.29.71.29s.51-.1.71-.29c.39-.39.39-1.02,0-1.41l-.37-.37c-.39-.39-1.02-.39-1.41,0s-.39,1.02,0,1.41l.37.37Z"/>
    <path class="cls-2" d="m25,22h-.5v-3c0-3.31-2.69-6-6-6h-10c-3.31,0-6,2.69-6,6v3h-.5c-.55,0-1,.45-1,1s.45,1,1,1h6.5v4c0,1.65,1.35,3,3,3,.77,0,1.47-.29,2-.77.53.48,1.23.77,2,.77,1.65,0,3-1.35,3-3v-4h6.5c.55,0,1-.45,1-1s-.45-1-1-1Zm-20.5-2h4.46c.58,0,1.14-.2,1.59-.57l1.58-1.31c.43-.35.49-.98.14-1.41-.35-.43-.98-.49-1.41-.14l-1.58,1.31c-.09.07-.2.11-.32.11h-4.32c.45-1.72,2-3,3.86-3h10c2.21,0,4,1.79,4,4v3H4.5v-2Zm7,9c-.55,0-1-.45-1-1v-4h2v4c0,.55-.45,1-1,1Zm5-1c0,.55-.45,1-1,1s-1-.45-1-1v-4h2v4Z"/>
    <path class="cls-2" d="m19.5,18h-.5c-.55,0-1,.45-1,1s.45,1,1,1h.5c.55,0,1-.45,1-1s-.45-1-1-1Z"/>
    <path class="cls-2" d="m15.5,18h-.5c-.55,0-1,.45-1,1s.45,1,1,1h.5c.55,0,1-.45,1-1s-.45-1-1-1Z"/>
  </g>
  <path class="cls-1" d="m17.5,8c0-.55-.45-1-1-1h-2V2c0-.55-.45-1-1-1s-1,.45-1,1v5h-2c-.55,0-1,.45-1,1v3h8v-3Z"/>
</svg>