<?xml version="1.0" encoding="UTF-8"?>
<svg id="OBJECT" xmlns="http://www.w3.org/2000/svg" viewBox="0 0 512 512">
  <defs>
    <style>
      .cls-1 {
        fill: #FD4360;
      }

      .cls-2 {
        fill: #dadada;
      }
    </style>
  </defs>
  <g>
    <path class="cls-2" d="M489.5,237h-127.64l-5.74-22.96c-2.51-10.03-11.49-17.04-21.83-17.04H177.71c-10.34,0-19.32,7.01-21.83,17.04l-5.74,22.96H22.5c-12.41,0-22.5,10.09-22.5,22.5v230c0,12.41,10.09,22.5,22.5,22.5H194.92c9.54,0,18.26-4.83,23.32-12.92l27.17-43.46c2.33-3.73,6.2-5.88,10.6-5.88s8.27,2.14,10.6,5.88l27.17,43.46c5.06,8.09,13.78,12.93,23.32,12.93h172.42c12.41,0,22.5-10.09,22.5-22.5v-230c0-12.41-10.09-22.5-22.5-22.5Zm-319.06-19.32c.84-3.35,3.83-5.68,7.28-5.68h156.58c3.45,0,6.44,2.34,7.28,5.68l4.83,19.32H165.61l4.83-19.32ZM22.5,252H489.5c4.14,0,7.5,3.36,7.5,7.5v17.5H15v-17.5c0-4.14,3.36-7.5,7.5-7.5Zm-7.5,237.5v-77.5h127.5c4.14,0,7.5,3.36,7.5,7.5v77.5H22.5c-4.14,0-7.5-3.36-7.5-7.5Zm474.5,7.5h-172.42c-4.34,0-8.3-2.2-10.6-5.88l-27.17-43.46c-5.06-8.09-13.78-12.92-23.32-12.92s-18.26,4.83-23.32,12.92l-27.17,43.46c-2.3,3.68-6.26,5.87-10.6,5.87h-29.92v-77.5c0-12.41-10.09-22.5-22.5-22.5H15v-105H497v197.5c0,4.14-3.36,7.5-7.5,7.5Z"/>
    <path class="cls-2" d="M464.5,307h-40c-9.65,0-17.5,7.85-17.5,17.5v10c0,9.65,7.85,17.5,17.5,17.5h40c9.65,0,17.5-7.85,17.5-17.5v-10c0-9.65-7.85-17.5-17.5-17.5Zm2.5,27.5c0,1.38-1.12,2.5-2.5,2.5h-40c-1.38,0-2.5-1.12-2.5-2.5v-10c0-1.38,1.12-2.5,2.5-2.5h40c1.38,0,2.5,1.12,2.5,2.5v10Z"/>
    <path class="cls-2" d="M374.5,307h-40c-9.65,0-17.5,7.85-17.5,17.5v10c0,9.65,7.85,17.5,17.5,17.5h40c9.65,0,17.5-7.85,17.5-17.5v-10c0-9.65-7.85-17.5-17.5-17.5Zm2.5,27.5c0,1.38-1.12,2.5-2.5,2.5h-40c-1.38,0-2.5-1.12-2.5-2.5v-10c0-1.38,1.12-2.5,2.5-2.5h40c1.38,0,2.5,1.12,2.5,2.5v10Z"/>
    <path class="cls-2" d="M42.5,437c-4.14,0-7.5,3.36-7.5,7.5v20c0,4.14,3.36,7.5,7.5,7.5s7.5-3.36,7.5-7.5v-20c0-4.14-3.36-7.5-7.5-7.5Z"/>
    <path class="cls-2" d="M82.5,427c-4.14,0-7.5,3.36-7.5,7.5v40c0,4.14,3.36,7.5,7.5,7.5s7.5-3.36,7.5-7.5v-40c0-4.14-3.36-7.5-7.5-7.5Z"/>
    <path class="cls-2" d="M122.5,437c-4.14,0-7.5,3.36-7.5,7.5v20c0,4.14,3.36,7.5,7.5,7.5s7.5-3.36,7.5-7.5v-20c0-4.14-3.36-7.5-7.5-7.5Z"/>
  </g>
  <g>
    <path class="cls-1" d="M401.84,14.82c-2.45-6.73-7.79-11.78-14.65-13.85-6.86-2.07-14.1-.82-19.86,3.44l-83.42,61.58c-3.33,2.46-4.04,7.16-1.58,10.49,2.46,3.33,7.16,4.04,10.49,1.58l58.5-43.18,48.01,187.12h77.89L401.84,14.82Z"/>
    <path class="cls-1" d="M221.96,66L138.53,4.42c-5.76-4.25-13-5.51-19.86-3.44-6.86,2.07-12.2,7.12-14.65,13.85L28.65,222H106.54L154.55,34.88l58.5,43.18c3.33,2.46,8.03,1.75,10.49-1.58,2.46-3.33,1.75-8.03-1.58-10.49Z"/>
  </g>
</svg>