<?xml version="1.0" encoding="UTF-8"?>
<svg id="OBJECT" xmlns="http://www.w3.org/2000/svg" viewBox="0 0 32 32">
  <defs>
    <style>
      .cls-1 {
        fill: #FD4360;
      }

      .cls-1, .cls-2 {
        stroke-width: 0px;
      }

      .cls-2 {
        fill: #dadada;
      }
    </style>
  </defs>
  <g>
    <path class="cls-2" d="m24.5,25h-7c-.55,0-1,.45-1,1s.45,1,1,1h7c.55,0,1-.45,1-1s-.45-1-1-1Z"/>
    <path class="cls-2" d="m17.5,23h7c.55,0,1-.45,1-1s-.45-1-1-1h-7c-.55,0-1,.45-1,1s.45,1,1,1Z"/>
    <path class="cls-2" d="m7.5,7c.55,0,1-.45,1-1v-.5c0-.55-.45-1-1-1s-1,.45-1,1v.5c0,.55.45,1,1,1Z"/>
    <path class="cls-2" d="m10.5,7c.55,0,1-.45,1-1v-.5c0-.55-.45-1-1-1s-1,.45-1,1v.5c0,.55.45,1,1,1Z"/>
    <path class="cls-2" d="m7.5,11.33c.55,0,1-.45,1-1v-.5c0-.55-.45-1-1-1s-1,.45-1,1v.5c0,.55.45,1,1,1Z"/>
    <path class="cls-2" d="m10.5,11.33c.55,0,1-.45,1-1v-.5c0-.55-.45-1-1-1s-1,.45-1,1v.5c0,.55.45,1,1,1Z"/>
    <path class="cls-2" d="m7.5,15.67c.55,0,1-.45,1-1v-.5c0-.55-.45-1-1-1s-1,.45-1,1v.5c0,.55.45,1,1,1Z"/>
    <path class="cls-2" d="m10.5,15.67c.55,0,1-.45,1-1v-.5c0-.55-.45-1-1-1s-1,.45-1,1v.5c0,.55.45,1,1,1Z"/>
    <path class="cls-2" d="m7.5,20c.55,0,1-.45,1-1v-.5c0-.55-.45-1-1-1s-1,.45-1,1v.5c0,.55.45,1,1,1Z"/>
    <path class="cls-2" d="m10.5,20c.55,0,1-.45,1-1v-.5c0-.55-.45-1-1-1s-1,.45-1,1v.5c0,.55.45,1,1,1Z"/>
    <path class="cls-2" d="m30,29h-1v-10h1c.55,0,1-.45,1-1s-.45-1-1-1h-15V2c0-.55-.45-1-1-1H4c-.55,0-1,.45-1,1v27h-1c-.55,0-1,.45-1,1s.45,1,1,1h28c.55,0,1-.45,1-1s-.45-1-1-1Zm-3-10v10h-12v-10h12ZM5,3h8v26h-1.25v-4.5c0-1.38-1.12-2.5-2.5-2.5h-.5c-1.38,0-2.5,1.12-2.5,2.5v4.5h-1.25V3Zm4.75,26h-1.5v-4.5c0-.28.22-.5.5-.5h.5c.28,0,.5.22.5.5v4.5Z"/>
  </g>
  <path class="cls-1" d="m17.5,9h.63c.3,1.18,1.11,2.18,2.22,2.8l-.53,3.2h6.36l-.53-3.2c1.1-.63,1.92-1.62,2.22-2.8h.63c.55,0,1-.45,1-1s-.45-1-1-1h-.63c-.43-1.71-1.95-3.06-3.87-3.41v-1.59c0-.55-.45-1-1-1s-1,.45-1,1v1.59c-1.92.35-3.43,1.7-3.87,3.41h-.63c-.55,0-1,.45-1,1s.45,1,1,1Z"/>
</svg>