<?xml version="1.0" encoding="UTF-8"?>
<svg id="OBJECT" xmlns="http://www.w3.org/2000/svg" viewBox="0 0 32 32">
  <defs>
    <style>
      .cls-1 {
        fill: #FD4360;
      }

      .cls-1, .cls-2 {
        stroke-width: 0px;
      }

      .cls-2 {
        fill: #dadada;
      }
    </style>
  </defs>
  <g>
    <path class="cls-2" d="m10,21h-1c-.55,0-1,.45-1,1s.45,1,1,1h1c.55,0,1-.45,1-1s-.45-1-1-1Z"/>
    <path class="cls-2" d="m10,17h-1c-.55,0-1,.45-1,1s.45,1,1,1h1c.55,0,1-.45,1-1s-.45-1-1-1Z"/>
    <path class="cls-2" d="m12,5c-.55,0-1,.45-1,1s.45,1,1,1h1c.55,0,1-.45,1-1s-.45-1-1-1h-1Z"/>
    <path class="cls-2" d="m20,6.04c.55,0,1-.45,1-1v-1.04c0-1.65-1.35-3-3-3H7c-1.65,0-3,1.35-3,3v24c0,1.65,1.35,3,3,3h11c1.65,0,3-1.35,3-3v-3.6c0-.55-.45-1-1-1s-1,.45-1,1v.6H6V4c0-.55.45-1,1-1h11c.55,0,1,.45,1,1v1.04c0,.55.45,1,1,1Zm-1,20.96v1c0,.55-.45,1-1,1H7c-.55,0-1-.45-1-1v-1h13Z"/>
  </g>
  <g>
    <path class="cls-1" d="m25.96,13.86c-.89,1.85-2.77,3.14-4.96,3.14s-4.07-1.28-4.96-3.14c-1.26,1.27-2.04,3.01-2.04,4.94v1.6c0,1.1.9,2,2,2h10c1.1,0,2-.9,2-2v-1.6c0-1.92-.78-3.67-2.04-4.94Z"/>
    <path class="cls-1" d="m21,15c1.93,0,3.5-1.57,3.5-3.5v-1.5c0-1.65-1.35-3-3-3h-1c-1.65,0-3,1.35-3,3v1.5c0,1.93,1.57,3.5,3.5,3.5Z"/>
  </g>
</svg>