<?xml version="1.0" encoding="UTF-8"?>
<svg id="OBJECT" xmlns="http://www.w3.org/2000/svg" viewBox="0 0 32 32">
  <defs>
    <style>
      .cls-1 {
        fill: #FD4360;
      }

      .cls-1, .cls-2 {
        stroke-width: 0px;
      }

      .cls-2 {
        fill: #dadada;
      }
    </style>
  </defs>
  <g>
    <path class="cls-2" d="m29.34,6.56l-2.16-1.08c-.49-.25-1.09-.05-1.34.45-.25.49-.05,1.09.45,1.34l2.16,1.08c.34.17.56.51.56.9v18.76c0,.55-.45,1-1,1h-6v-3.3c0-.22.08-.45.22-.62l2.07-2.61c.34-.43.27-1.06-.16-1.41-.43-.34-1.06-.27-1.4.16l-2.07,2.61c-.42.53-.65,1.19-.65,1.86v3.3h-3v-5c0-.55-.45-1-1-1s-1,.45-1,1v5h-3v-3.3c0-.67-.23-1.34-.65-1.86l-2.07-2.61c-.34-.43-.97-.51-1.4-.16s-.51.97-.16,1.41l2.07,2.61c.14.18.22.4.22.62v3.3h-6c-.55,0-1-.45-1-1V9.24c0-.38.21-.72.56-.9l2.16-1.08c.49-.25.69-.85.45-1.34-.25-.49-.85-.69-1.34-.45l-2.16,1.08c-1.03.51-1.66,1.54-1.66,2.68v18.76c0,1.65,1.35,3,3,3h24c1.65,0,3-1.35,3-3V9.24c0-1.14-.64-2.17-1.66-2.68Z"/>
    <path class="cls-2" d="m16,21.5c1.93,0,3.5-1.57,3.5-3.5s-1.57-3.5-3.5-3.5-3.5,1.57-3.5,3.5,1.57,3.5,3.5,3.5Zm0-5c.83,0,1.5.67,1.5,1.5s-.67,1.5-1.5,1.5-1.5-.67-1.5-1.5.67-1.5,1.5-1.5Z"/>
    <path class="cls-2" d="m4.65,19.48c-.29.47-.14,1.09.33,1.38l.39.24c.16.1.34.15.52.15.34,0,.66-.17.85-.48.29-.47.14-1.09-.33-1.38l-.39-.24c-.47-.29-1.09-.14-1.38.33Z"/>
    <path class="cls-2" d="m26.12,21.24c.18,0,.36-.05.52-.15l.39-.24c.47-.29.62-.91.33-1.38-.29-.47-.9-.62-1.38-.33l-.39.24c-.47.29-.62.91-.33,1.38.19.31.52.48.85.48Z"/>
  </g>
  <g>
    <path class="cls-1" d="m7.29,4.29c-.26.26-.36.64-.25.99l1.66,5.65c.25.87.88,1.57,1.71,1.92.83.35,1.77.31,2.57-.11l1.26-.67L8.58,3.01l-1.28,1.28Z"/>
    <path class="cls-1" d="m21.71,1.29c-.19-.19-.44-.29-.71-.29h-10c-.27,0-.52.11-.71.29l-.27.27,5.97,9.56L21.97,1.56l-.27-.27Z"/>
    <path class="cls-1" d="m24.71,4.29l-1.28-1.28-5.66,9.06,1.26.67c.44.23.92.35,1.4.35.4,0,.79-.08,1.17-.24.83-.35,1.46-1.05,1.71-1.92l1.66-5.65c.1-.35,0-.73-.25-.99Z"/>
  </g>
</svg>