<?xml version="1.0" encoding="UTF-8"?>
<svg id="OBJECT" xmlns="http://www.w3.org/2000/svg" viewBox="0 0 32 32">
  <defs>
    <style>
      .cls-1 {
        fill: #FD4360;
      }

      .cls-1, .cls-2 {
        stroke-width: 0px;
      }

      .cls-2 {
        fill: #dadada;
      }
    </style>
  </defs>
  <g>
    <path class="cls-2" d="m18,1H4c-1.65,0-3,1.35-3,3v24c0,1.65,1.35,3,3,3h14c1.65,0,3-1.35,3-3V4c0-1.65-1.35-3-3-3Zm1,27c0,.55-.45,1-1,1H4c-.55,0-1-.45-1-1V4c0-.55.45-1,1-1h14c.55,0,1,.45,1,1v24Z"/>
    <path class="cls-2" d="m26.39,13.41c-.39-.39-1.03-.39-1.41,0-.39.39-.38,1.03,0,1.41.31.31.49.72.49,1.16s-.17.85-.49,1.16c-.39.39-.4,1.02,0,1.41.2.2.45.3.71.3s.51-.1.7-.29c.7-.69,1.08-1.61,1.08-2.59s-.38-1.9-1.08-2.59Z"/>
    <path class="cls-2" d="m29.14,11.54c-.39-.39-1.03-.39-1.41,0-.39.39-.39,1.03,0,1.41.82.81,1.27,1.89,1.27,3.04s-.45,2.23-1.27,3.04c-.39.39-.39,1.02,0,1.41.2.2.45.3.71.3s.51-.1.7-.29c1.2-1.19,1.86-2.77,1.86-4.46s-.66-3.27-1.86-4.46Z"/>
    <path class="cls-2" d="m23.33,14.79c-.55,0-1,.45-1,1v.42c0,.55.45,1,1,1s1-.45,1-1v-.42c0-.55-.45-1-1-1Z"/>
  </g>
  <g>
    <path class="cls-1" d="m16.1,15l.9-9.41c.03-.28-.07-.56-.25-.77-.19-.21-.46-.33-.74-.33H6c-.28,0-.55.12-.74.33-.19.21-.28.49-.25.77l.9,9.41h10.2Zm-6.1-6.5h2c.55,0,1,.45,1,1s-.45,1-1,1h-2c-.55,0-1-.45-1-1s.45-1,1-1Z"/>
    <path class="cls-1" d="m5.9,17l-.9,9.41c-.03.28.07.56.25.77.19.21.46.33.74.33h10c.28,0,.55-.12.74-.33.19-.21.28-.49.25-.77l-.9-9.41H5.9Zm6.1,6.5c0,.55-.45,1-1,1s-1-.45-1-1v-2c0-.55.45-1,1-1s1,.45,1,1v2Z"/>
  </g>
</svg>