<?xml version="1.0" encoding="UTF-8"?>
<svg id="OBJECT" xmlns="http://www.w3.org/2000/svg" viewBox="0 0 32 32">
  <defs>
    <style>
      .cls-1 {
        fill: #FD4360;
      }

      .cls-1, .cls-2 {
        stroke-width: 0px;
      }

      .cls-2 {
        fill: #dadada;
      }
    </style>
  </defs>
  <g>
    <path class="cls-2" d="m17,8h-1.5V3.5c0-1.38-1.12-2.5-2.5-2.5h-1.5c-.55,0-1,.45-1,1v6h-2V2c0-.55-.45-1-1-1h-1.5c-1.38,0-2.5,1.12-2.5,2.5v4.5h-1.5c-.55,0-1,.45-1,1s.45,1,1,1h.5v5.17c0,.8.31,1.55.88,2.12l2.12,2.12v3.59c0,.55.45,1,1,1h.5v6c0,.55.45,1,1,1h3c.55,0,1-.45,1-1v-6h.5c.55,0,1-.45,1-1v-3.59l2.12-2.12c.57-.57.88-1.32.88-2.12v-5.17h.5c.55,0,1-.45,1-1s-.45-1-1-1Zm-4.5-5h.5c.28,0,.5.22.5.5v4.5h-1V3Zm-7,.5c0-.28.22-.5.5-.5h.5v5h-1V3.5Zm6,16.5v2h-4v-2h4Zm-1.5,9h-1v-5h1v5Zm4.5-13.83c0,.26-.11.52-.29.71l-2.12,2.12h-5.17l-2.12-2.12c-.19-.19-.29-.44-.29-.71v-5.17h10v5.17Z"/>
    <path class="cls-2" d="m8,15h3c.55,0,1-.45,1-1s-.45-1-1-1h-3c-.55,0-1,.45-1,1s.45,1,1,1Z"/>
  </g>
  <path class="cls-1" d="m23,15c-4.41,0-8,3.59-8,8s3.59,8,8,8,8-3.59,8-8-3.59-8-8-8Zm.22,12.56h-.44c-.55,0-1-.45-1-1s.45-1,1-1h.44c.55,0,1,.45,1,1s-.45,1-1,1Zm2.48-2.8c-.19.19-.45.29-.7.29s-.52-.1-.71-.3c-.69-.7-1.89-.7-2.58,0-.39.39-1.02.39-1.41,0-.39-.39-.4-1.02,0-1.42,1.45-1.46,3.97-1.46,5.42,0,.39.39.39,1.03,0,1.42Zm2-2.93c-.19.19-.45.29-.7.29s-.52-.1-.71-.3c-.88-.89-2.05-1.38-3.29-1.38s-2.41.49-3.29,1.38c-.39.39-1.02.39-1.41,0-.39-.39-.4-1.02,0-1.42,1.26-1.27,2.93-1.97,4.71-1.97s3.45.7,4.71,1.97c.39.39.39,1.03,0,1.42Z"/>
</svg>