<?xml version="1.0" encoding="UTF-8"?>
<svg id="OBJECT" xmlns="http://www.w3.org/2000/svg" viewBox="0 0 32 32">
  <defs>
    <style>
      .cls-1 {
        fill: #FD4360;
      }

      .cls-1, .cls-2 {
        stroke-width: 0px;
      }

      .cls-2 {
        fill: #dadada;
      }
    </style>
  </defs>
  <g>
    <path class="cls-2" d="m21.8,22.57c1.01,0,1.96-.39,2.67-1.1.72-.72,1.11-1.67,1.1-2.69,0-.55-.45-1-1-1h0c-.55,0-1,.45-1,1,0,.48-.18.93-.52,1.26s-.78.52-1.25.52c0,0,0,0-.01,0-.55,0-1,.44-1,1,0,.55.44,1,1,1h.02Z"/>
    <path class="cls-2" d="m28,18.43h0c-.55,0-1,.45-1,1,0,1.23-.47,2.38-1.33,3.24-.86.86-2,1.33-3.21,1.33h-.03c-.55,0-1,.44-1,1,0,.55.44,1,1,1h.03c1.75,0,3.39-.68,4.63-1.91,1.24-1.24,1.92-2.9,1.91-4.66,0-.55-.45-1-1-1Z"/>
    <path class="cls-2" d="m21.98,19.29l.31-.31c.39-.39.39-1.02,0-1.41s-1.02-.39-1.41,0l-.31.31c-.39.39-.39,1.02,0,1.41.2.2.45.29.71.29s.51-.1.71-.29Z"/>
    <path class="cls-2" d="m9,17.5c-1.65,0-3,1.35-3,3v4c0,1.65,1.35,3,3,3h1c1.65,0,3-1.35,3-3v-4c0-1.65-1.35-3-3-3h-1Zm1,8h-1c-.55,0-1-.45-1-1v-1h3v1c0,.55-.45,1-1,1Zm1-5v1h-3v-1c0-.55.45-1,1-1h1c.55,0,1,.45,1,1Z"/>
    <path class="cls-2" d="m15,1H4c-1.65,0-3,1.35-3,3v24c0,1.65,1.35,3,3,3h11c1.65,0,3-1.35,3-3v-11c0-.55-.45-1-1-1s-1,.45-1,1v11c0,.55-.45,1-1,1H4c-.55,0-1-.45-1-1V4c0-.55.45-1,1-1h11c.55,0,1,.45,1,1v1c0,.55.45,1,1,1s1-.45,1-1v-1c0-1.65-1.35-3-3-3Z"/>
  </g>
  <g>
    <path class="cls-1" d="m11.5,5.5h-4c-1.38,0-2.5,1.12-2.5,2.5v5c0,1.38,1.12,2.5,2.5,2.5h4c1.38,0,2.5-1.12,2.5-2.5v-5c0-1.38-1.12-2.5-2.5-2.5Zm-1.5,6h-1c-.55,0-1-.45-1-1s.45-1,1-1h1c.55,0,1,.45,1,1s-.45,1-1,1Z"/>
    <rect class="cls-1" x="16" y="7.5" width="8" height="6"/>
    <path class="cls-1" d="m30,7.5h-4v6h4c.55,0,1-.45,1-1v-4c0-.55-.45-1-1-1Z"/>
  </g>
</svg>