<?xml version="1.0" encoding="UTF-8"?>
<svg id="OBJECT" xmlns="http://www.w3.org/2000/svg" viewBox="0 0 32 32">
  <defs>
    <style>
      .cls-1 {
        fill: #FD4360;
      }

      .cls-1, .cls-2 {
        stroke-width: 0px;
      }

      .cls-2 {
        fill: #dadada;
      }
    </style>
  </defs>
  <g>
    <path class="cls-2" d="m23,1h-14c-1.65,0-3,1.35-3,3v24c0,1.65,1.35,3,3,3h14c1.65,0,3-1.35,3-3V4c0-1.65-1.35-3-3-3Zm1,27c0,.55-.45,1-1,1h-14c-.55,0-1-.45-1-1V4c0-.55.45-1,1-1h14c.55,0,1,.45,1,1v24Z"/>
    <path class="cls-2" d="m28,17h2c.55,0,1-.45,1-1s-.45-1-1-1h-2c-.55,0-1,.45-1,1s.45,1,1,1Z"/>
    <path class="cls-2" d="m28,13.5c.17,0,.34-.04.5-.13l1.73-1c.48-.28.64-.89.37-1.37-.28-.48-.89-.64-1.37-.37l-1.73,1c-.48.28-.64.89-.37,1.37.19.32.52.5.87.5Z"/>
    <path class="cls-2" d="m30.23,19.63l-1.73-1c-.48-.28-1.09-.11-1.37.37-.28.48-.11,1.09.37,1.37l1.73,1c.16.09.33.13.5.13.35,0,.68-.18.87-.5.28-.48.11-1.09-.37-1.37Z"/>
    <path class="cls-2" d="m4,15h-2c-.55,0-1,.45-1,1s.45,1,1,1h2c.55,0,1-.45,1-1s-.45-1-1-1Z"/>
    <path class="cls-2" d="m1.77,12.37l1.73,1c.16.09.33.13.5.13.35,0,.68-.18.87-.5.28-.48.11-1.09-.37-1.37l-1.73-1c-.48-.28-1.09-.11-1.37.37-.28.48-.11,1.09.37,1.37Z"/>
    <path class="cls-2" d="m3.5,18.63l-1.73,1c-.48.28-.64.89-.37,1.37.19.32.52.5.87.5.17,0,.34-.04.5-.13l1.73-1c.48-.28.64-.89.37-1.37-.28-.48-.89-.64-1.37-.37Z"/>
    <path class="cls-2" d="m20,4h-8c-1.38,0-2.5,1.12-2.5,2.5v3c0,1.38,1.12,2.5,2.5,2.5h8c1.38,0,2.5-1.12,2.5-2.5v-3c0-1.38-1.12-2.5-2.5-2.5Zm.5,5.5c0,.28-.22.5-.5.5h-8c-.28,0-.5-.22-.5-.5v-3c0-.28.22-.5.5-.5h8c.28,0,.5.22.5.5v3Z"/>
    <path class="cls-2" d="m14.25,7h-.5c-.55,0-1,.45-1,1s.45,1,1,1h.5c.55,0,1-.45,1-1s-.45-1-1-1Z"/>
    <path class="cls-2" d="m18.25,7h-.5c-.55,0-1,.45-1,1s.45,1,1,1h.5c.55,0,1-.45,1-1s-.45-1-1-1Z"/>
  </g>
  <g>
    <circle class="cls-1" cx="16" cy="21" r="2"/>
    <path class="cls-1" d="m16,14c-3.86,0-7,3.14-7,7s3.14,7,7,7,7-3.14,7-7-3.14-7-7-7Zm0,11c-2.21,0-4-1.79-4-4s1.79-4,4-4,4,1.79,4,4-1.79,4-4,4Z"/>
  </g>
</svg>