<?xml version="1.0" encoding="UTF-8"?>
<svg id="OBJECT" xmlns="http://www.w3.org/2000/svg" viewBox="0 0 32 32">
  <defs>
    <style>
      .cls-1 {
        fill: #FD4360;
      }

      .cls-1, .cls-2 {
        stroke-width: 0px;
      }

      .cls-2 {
        fill: #dadada;
      }
    </style>
  </defs>
  <g>
    <path class="cls-2" d="m24.01,27.46c.92,0,1.79-.36,2.44-1.01.66-.66,1.01-1.53,1.01-2.46,0-.55-.45-1-1-1h0c-.55,0-1,.45-1,1,0,.39-.15.76-.42,1.04s-.64.42-1.03.42h-.01c-.55,0-1,.44-1,1,0,.55.44,1,1,1h.02Z"/>
    <path class="cls-2" d="m29.5,23.57c-.55,0-1,.45-1,1,0,1.05-.4,2.04-1.14,2.78-.74.74-1.72,1.14-2.76,1.14,0,0-.02,0-.03,0-.55,0-1,.44-1,1,0,.55.44,1,1,1h.03c1.58,0,3.06-.61,4.18-1.73,1.12-1.12,1.73-2.62,1.73-4.21,0-.55-.5-1-1-1Z"/>
    <path class="cls-2" d="m7.99,4.54c-.92,0-1.79.36-2.44,1.01-.66.66-1.01,1.53-1.01,2.46,0,.55.45,1,1,1h0c.55,0,1-.45,1-1,0-.39.15-.76.42-1.04.27-.27.64-.42,1.03-.42,0,0,0,0,.01,0,.55,0,1-.44,1-1,0-.55-.44-1-1-1h-.02Z"/>
    <path class="cls-2" d="m2.5,8.43h0c.55,0,1-.45,1-1,0-1.05.4-2.04,1.14-2.78.74-.74,1.72-1.14,2.76-1.14,0,0,.02,0,.02,0,.55,0,1-.44,1-1,0-.55-.44-1-1-1h-.03c-1.58,0-3.06.61-4.18,1.73-1.12,1.12-1.73,2.62-1.73,4.21,0,.55.45,1,1,1Z"/>
    <path class="cls-2" d="m26.25,16c0-.66-.07-1.3-.19-1.92l4.23-4.99c1.01-1.19.94-3-.17-4.1l-3.1-3.1c-1.11-1.11-2.91-1.18-4.1-.17l-4.99,4.23c-.62-.12-1.26-.19-1.92-.19-5.65,0-10.25,4.6-10.25,10.25,0,.68.07,1.35.2,1.99l-.04-.04-4.19,4.96c-1.01,1.19-.94,3,.17,4.1l3.1,3.1c.58.58,1.36.88,2.15.88.7,0,1.39-.24,1.96-.71l4.96-4.19-.04-.04c.64.13,1.31.2,1.99.2,5.65,0,10.25-4.6,10.25-10.25Zm-4.39-10.78l2.46,2.46c.2.2.45.29.71.29s.51-.1.71-.29c.39-.39.39-1.02,0-1.41l-2.34-2.34.81-.69c.41-.34,1.02-.32,1.4.06l3.1,3.1c.38.38.4.99.06,1.4l-3.41,4.03c-1.03-2.3-2.88-4.15-5.18-5.18l1.68-1.42Zm-5.86,2.53c.84,0,1.66.13,2.42.36h0s0,0,0,0c2.59.8,4.64,2.85,5.44,5.44h0s.01.02.01.02c.24.77.36,1.58.36,2.42,0,4.55-3.7,8.25-8.25,8.25s-8.25-3.7-8.25-8.25,3.7-8.25,8.25-8.25Zm-5.86,19.03l-2.46-2.46c-.39-.39-1.02-.39-1.41,0s-.39,1.02,0,1.41l2.34,2.34-.81.69c-.41.34-1.02.32-1.4-.06l-3.1-3.1c-.38-.38-.4-.99-.06-1.4l3.41-4.03c1.03,2.3,2.88,4.15,5.18,5.18l-1.68,1.42Z"/>
  </g>
  <g>
    <path class="cls-1" d="m21.34,11.31l-.65-.65c-1.1-1.1-2.9-1.1-4,0l-.97.97c-1.28,1.28-1.28,3.37,0,4.65.64.64,1.48.96,2.32.96s1.68-.32,2.32-.96l.97-.97c1.1-1.1,1.1-2.9,0-4Z"/>
    <path class="cls-1" d="m14.31,17.69c-1.44-1.44-1.85-3.51-1.28-5.33-1.03.22-2,.73-2.77,1.5-.48.48-.74,1.11-.74,1.78s.26,1.31.74,1.79l4.31,4.31c.48.48,1.11.74,1.79.74h0c.67,0,1.31-.26,1.78-.74.77-.77,1.28-1.74,1.5-2.77-.51.16-1.04.27-1.59.27-1.41,0-2.74-.55-3.74-1.55Z"/>
  </g>
</svg>