<?xml version="1.0" encoding="UTF-8"?>
<svg id="OBJECT" xmlns="http://www.w3.org/2000/svg" viewBox="0 0 32 32">
  <defs>
    <style>
      .cls-1 {
        fill: #FD4360;
      }

      .cls-1, .cls-2 {
        stroke-width: 0px;
      }

      .cls-2 {
        fill: #dadada;
      }
    </style>
  </defs>
  <g>
    <path class="cls-2" d="m30,15h-2c-.55,0-1,.45-1,1s.45,1,1,1h2c.55,0,1-.45,1-1s-.45-1-1-1Z"/>
    <path class="cls-2" d="m28,12c.21,0,.41-.06.59-.19l1-.73c.45-.33.54-.95.22-1.4-.33-.45-.95-.54-1.4-.22l-1,.73c-.45.33-.54.95-.22,1.4.2.27.5.41.81.41Z"/>
    <path class="cls-2" d="m28.59,20.19c-.45-.33-1.07-.23-1.4.22-.33.45-.23,1.07.22,1.4l1,.73c.18.13.38.19.59.19.31,0,.61-.14.81-.41.33-.45.23-1.07-.22-1.4l-1-.73Z"/>
    <path class="cls-2" d="m4,15h-2c-.55,0-1,.45-1,1s.45,1,1,1h2c.55,0,1-.45,1-1s-.45-1-1-1Z"/>
    <path class="cls-2" d="m3.41,11.81c.18.13.38.19.59.19.31,0,.61-.14.81-.41.33-.45.23-1.07-.22-1.4l-1-.73c-.45-.33-1.07-.23-1.4.22-.33.45-.23,1.07.22,1.4l1,.73Z"/>
    <path class="cls-2" d="m3.41,20.19l-1,.73c-.45.33-.54.95-.22,1.4.2.27.5.41.81.41.21,0,.41-.06.59-.19l1-.73c.45-.33.54-.95.22-1.4-.33-.45-.95-.54-1.4-.22Z"/>
    <path class="cls-2" d="m22,1h-12c-1.65,0-3,1.35-3,3v24c0,1.65,1.35,3,3,3h12c1.65,0,3-1.35,3-3V4c0-1.65-1.35-3-3-3Zm-12,2h12c.55,0,1,.45,1,1v21h-14V4c0-.55.45-1,1-1Zm12,26h-12c-.55,0-1-.45-1-1v-1h14v1c0,.55-.45,1-1,1Z"/>
    <path class="cls-2" d="m15.5,6h1c.55,0,1-.45,1-1s-.45-1-1-1h-1c-.55,0-1,.45-1,1s.45,1,1,1Z"/>
  </g>
  <g>
    <path class="cls-1" d="m16,17.4c1.79,0,3.25-1.46,3.25-3.25v-1.35c0-1.54-1.26-2.8-2.8-2.8h-.9c-1.54,0-2.8,1.26-2.8,2.8v1.35c0,1.79,1.46,3.25,3.25,3.25Z"/>
    <path class="cls-1" d="m20.64,16.56c-.88,1.68-2.61,2.84-4.64,2.84s-3.76-1.16-4.64-2.84c-.55.86-.86,1.88-.86,2.94,0,1.38,1.12,2.5,2.5,2.5h6c1.38,0,2.5-1.12,2.5-2.5,0-1.06-.31-2.08-.86-2.94Z"/>
  </g>
</svg>