<?xml version="1.0" encoding="UTF-8"?>
<svg id="OBJECT" xmlns="http://www.w3.org/2000/svg" viewBox="0 0 512 512">
  <defs>
    <style>
      .cls-1 {
        fill: #FD4360;
      }

      .cls-2 {
        fill: #dadada;
      }
    </style>
  </defs>
  <g>
    <path class="cls-2" d="M489.5,0H92.5c-12.41,0-22.5,10.09-22.5,22.5v25c0,4.14,3.36,7.5,7.5,7.5h16V234.5c0,4.14,3.36,7.5,7.5,7.5s7.5-3.36,7.5-7.5V55H473.5V369.5c0,4.14-3.36,7.5-7.5,7.5H202.34c-4.14,0-7.5,3.36-7.5,7.5s3.36,7.5,7.5,7.5h81.16v45c-9.65,0-17.5,7.85-17.5,17.5v40c0,9.65,7.85,17.5,17.5,17.5h15c9.65,0,17.5-7.85,17.5-17.5v-40c0-9.65-7.85-17.5-17.5-17.5v-45h167.5c12.41,0,22.5-10.09,22.5-22.5V55h16c4.14,0,7.5-3.36,7.5-7.5V22.5c0-12.41-10.09-22.5-22.5-22.5Zm-188.5,454.5v40c0,1.38-1.12,2.5-2.5,2.5h-15c-1.38,0-2.5-1.12-2.5-2.5v-40c0-1.38,1.12-2.5,2.5-2.5h15c1.38,0,2.5,1.12,2.5,2.5ZM497,40H85V22.5c0-4.14,3.36-7.5,7.5-7.5H489.5c4.14,0,7.5,3.36,7.5,7.5v17.5Z"/>
    <path class="cls-2" d="M371,210c26.19,0,47.5-21.31,47.5-47.5s-21.31-47.5-47.5-47.5-47.5,21.31-47.5,47.5,21.31,47.5,47.5,47.5Zm0-80c17.92,0,32.5,14.58,32.5,32.5s-14.58,32.5-32.5,32.5-32.5-14.58-32.5-32.5,14.58-32.5,32.5-32.5Z"/>
    <path class="cls-2" d="M353.2,180.3c1.46,1.46,3.38,2.2,5.3,2.2s3.84-.73,5.3-2.2l7.2-7.2,7.2,7.2c1.46,1.46,3.38,2.2,5.3,2.2s3.84-.73,5.3-2.2c2.93-2.93,2.93-7.68,0-10.61l-7.2-7.2,7.2-7.2c2.93-2.93,2.93-7.68,0-10.61-2.93-2.93-7.68-2.93-10.61,0l-7.2,7.2-7.2-7.2c-2.93-2.93-7.68-2.93-10.61,0-2.93,2.93-2.93,7.68,0,10.61l7.2,7.2-7.2,7.2c-2.93,2.93-2.93,7.68,0,10.61Z"/>
    <path class="cls-2" d="M258.5,269.5c0-26.19-21.31-47.5-47.5-47.5s-47.5,21.31-47.5,47.5,21.31,47.5,47.5,47.5,47.5-21.31,47.5-47.5Zm-80,0c0-17.92,14.58-32.5,32.5-32.5s32.5,14.58,32.5,32.5-14.58,32.5-32.5,32.5-32.5-14.58-32.5-32.5Z"/>
    <path class="cls-2" d="M231.3,265.42c2.93-2.93,2.93-7.68,0-10.61-2.93-2.93-7.68-2.93-10.61,0l-13.46,13.46-5.93-5.93c-2.93-2.93-7.68-2.93-10.61,0-2.93,2.93-2.93,7.68,0,10.61l11.23,11.23c1.46,1.46,3.38,2.2,5.3,2.2s3.84-.73,5.3-2.2l18.77-18.77Z"/>
    <path class="cls-2" d="M251,90h-80c-4.14,0-7.5,3.36-7.5,7.5s3.36,7.5,7.5,7.5h80c17.92,0,32.5,14.58,32.5,32.5v127c0,26.19,21.31,47.5,47.5,47.5h91.89l-17.2,17.2c-2.93,2.93-2.93,7.68,0,10.61,1.46,1.46,3.38,2.2,5.3,2.2s3.84-.73,5.3-2.2l30-30c2.93-2.93,2.93-7.68,0-10.61l-30-30c-2.93-2.93-7.68-2.93-10.61,0-2.93,2.93-2.93,7.68,0,10.61l17.2,17.2h-91.89c-17.92,0-32.5-14.58-32.5-32.5v-127c0-26.19-21.31-47.5-47.5-47.5Z"/>
    <path class="cls-2" d="M151,90h-10c-4.14,0-7.5,3.36-7.5,7.5s3.36,7.5,7.5,7.5h10c4.14,0,7.5-3.36,7.5-7.5s-3.36-7.5-7.5-7.5Z"/>
  </g>
  <g>
    <path class="cls-1" d="M97.5,382c26.19,0,47.5-21.31,47.5-47.5v-45c0-17.92-14.58-32.5-32.5-32.5h-30c-17.92,0-32.5,14.58-32.5,32.5v45c0,26.19,21.31,47.5,47.5,47.5Z"/>
    <path class="cls-1" d="M155.98,356.53c-8.93,23.62-31.77,40.47-58.48,40.47s-49.55-16.85-58.48-40.47C15.34,374.34,0,402.66,0,434.5v55c0,12.41,10.09,22.5,22.5,22.5h22.5v-32.5c0-4.14,3.36-7.5,7.5-7.5s7.5,3.36,7.5,7.5v32.5h75v-32.5c0-4.14,3.36-7.5,7.5-7.5s7.5,3.36,7.5,7.5v32.5h22.5c12.41,0,22.5-10.09,22.5-22.5v-55c0-31.84-15.34-60.16-39.02-77.97Z"/>
  </g>
</svg>