<?xml version="1.0" encoding="UTF-8"?>
<svg id="OBJECT" xmlns="http://www.w3.org/2000/svg" viewBox="0 0 32 32">
  <defs>
    <style>
      .cls-1 {
        fill: #FD4360;
      }

      .cls-1, .cls-2 {
        stroke-width: 0px;
      }

      .cls-2 {
        fill: #dadada;
      }
    </style>
  </defs>
  <path class="cls-1" d="m24.31,13.14v5.31c0,1.33-.52,2.58-1.45,3.52l-3.46,3.48c.63.72,1.22,1.48,1.73,2.29l6-6.03c.56-.57.87-1.32.87-2.11v-6.46s-.01,0-.02,0h-3.67Z"/>
  <path class="cls-1" d="m24.31,9.57v1.57h3.67s.01,0,.02,0v-1.58s-.01,0-.02,0h-3.67Z"/>
  <path class="cls-1" d="m27,4h-2.69v3.57h3.67s.01,0,.02,0v-2.57c0-.55-.45-1-1-1Z"/>
  <path class="cls-1" d="m14.24,30.64c.41.17.85.29,1.3.34.15.01.3.02.46.02,1.21,0,2.37-.48,3.23-1.35l.45-.45c-.49-.83-1.06-1.61-1.69-2.33l-3.75,3.77Z"/>
  <path class="cls-2" d="m21.31,1h-9c-.55,0-1,.45-1,1v14.54l-5.78,5.81c-1.72,1.73-2.03,4.41-.73,6.37.85,1.28,2.2,2.11,3.7,2.26.17.02.33.02.5.02,1.32,0,2.59-.52,3.53-1.47l8.91-8.96c.56-.57.87-1.32.87-2.12V2c0-.55-.45-1-1-1Zm-1,2v2h-7v-2h7Zm0,4v2h-7v-2h7Zm-11.62,21.99c-.91-.09-1.71-.58-2.23-1.37-.78-1.18-.57-2.8.48-3.86l1-1.01c1.91.8,3.49,2.24,4.45,4.07l-1.29,1.3c-.64.64-1.53.96-2.42.87Zm11.33-9.83l-6.16,6.19c-1.06-1.75-2.59-3.18-4.42-4.1l3.57-3.59c.19-.19.29-.44.29-.71v-5.95h7v7.45c0,.27-.1.52-.29.71Z"/>
</svg>