<?xml version="1.0" encoding="UTF-8"?>
<svg id="OBJECT" xmlns="http://www.w3.org/2000/svg" viewBox="0 0 32 32">
  <defs>
    <style>
      .cls-1 {
        fill: #FD4360;
      }

      .cls-1, .cls-2 {
        stroke-width: 0px;
      }

      .cls-2 {
        fill: #dadada;
      }
    </style>
  </defs>
  <g>
    <path class="cls-2" d="m30,25h-.5v-12c0-1.65-1.35-3-3-3-.55,0-1,.45-1,1s.45,1,1,1,1,.45,1,1v12H4.5v-12c0-.55.45-1,1-1s1-.45,1-1-.45-1-1-1c-1.65,0-3,1.35-3,3v12h-.5c-.55,0-1,.45-1,1v2c0,1.65,1.35,3,3,3h24c1.65,0,3-1.35,3-3v-2c0-.55-.45-1-1-1Zm-1,3c0,.55-.45,1-1,1H4c-.55,0-1-.45-1-1v-1h26v1Z"/>
    <path class="cls-2" d="m5.5,23c0,.55.45,1,1,1h1c.55,0,1-.45,1-1s-.45-1-1-1h-1c-.55,0-1,.45-1,1Z"/>
    <path class="cls-2" d="m24.5,24h1c.55,0,1-.45,1-1s-.45-1-1-1h-1c-.55,0-1,.45-1,1s.45,1,1,1Z"/>
  </g>
  <g>
    <path class="cls-1" d="m7.18,16.26c0,1.31,1.07,2.38,2.38,2.38h12.88c1.31,0,2.38-1.07,2.38-2.38v-7.39H7.18v7.39Zm7.36-5.17h6.6c.55,0,1,.45,1,1s-.45,1-1,1h-6.6c-.55,0-1-.45-1-1s.45-1,1-1Zm-3.68,0h.92c.55,0,1,.45,1,1s-.45,1-1,1h-.92c-.55,0-1-.45-1-1s.45-1,1-1Zm0,3.33h10.28c.55,0,1,.45,1,1s-.45,1-1,1h-10.28c-.55,0-1-.45-1-1s.45-1,1-1Z"/>
    <path class="cls-1" d="m22.44,1h-12.88c-1.31,0-2.38,1.07-2.38,2.38v3.49h17.64v-3.49c0-1.31-1.07-2.38-2.38-2.38Zm-12.08,3.93h-.49c-.55,0-1-.45-1-1s.45-1,1-1h.49c.55,0,1,.45,1,1s-.45,1-1,1Zm2.93,0h-.49c-.55,0-1-.45-1-1s.45-1,1-1h.49c.55,0,1,.45,1,1s-.45,1-1,1Zm2.93,0h-.49c-.55,0-1-.45-1-1s.45-1,1-1h.49c.55,0,1,.45,1,1s-.45,1-1,1Z"/>
  </g>
</svg>