<?xml version="1.0" encoding="UTF-8"?>
<svg id="OBJECT" xmlns="http://www.w3.org/2000/svg" viewBox="0 0 32 32">
  <defs>
    <style>
      .cls-1 {
        fill: #FD4360;
      }

      .cls-1, .cls-2 {
        stroke-width: 0px;
      }

      .cls-2 {
        fill: #dadada;
      }
    </style>
  </defs>
  <path class="cls-2" d="m30.93,24.63l-4-10c-.15-.38-.52-.63-.93-.63H6c-.41,0-.78.25-.93.63L1.07,24.63c-.12.31-.08.66.1.93.19.27.5.44.83.44h11v3h-5c-.55,0-1,.45-1,1s.45,1,1,1h16c.55,0,1-.45,1-1s-.45-1-1-1h-5v-3h11c.33,0,.64-.16.83-.44.19-.27.22-.62.1-.93Zm-4.41-5.63h-3.35l-1.2-3h3.35l1.2,3Zm-15.55,0l1.2-3h7.65l1.2,3h-10.05Zm10.85,2l1.2,3h-14.05l1.2-3h11.65Zm-15.15-5h3.35l-1.2,3h-3.35l1.2-3Zm-2,5h3.35l-1.2,3h-3.35l1.2-3Zm12.32,8h-2v-3h2v3Zm8.18-5l-1.2-3h3.35l1.2,3h-3.35Z"/>
  <g>
    <path class="cls-1" d="m16,4.62c.55,0,1-.45,1-1v-1.62c0-.55-.45-1-1-1s-1,.45-1,1v1.62c0,.55.45,1,1,1Z"/>
    <path class="cls-1" d="m23.6,4.15c-.39-.39-1.02-.39-1.41,0l-1.15,1.15c-.39.39-.39,1.02,0,1.41.2.2.45.29.71.29s.51-.1.71-.29l1.15-1.15c.39-.39.39-1.02,0-1.41Z"/>
    <path class="cls-1" d="m10.96,6.71c.39-.39.39-1.02,0-1.41l-1.15-1.15c-.39-.39-1.02-.39-1.41,0s-.39,1.02,0,1.41l1.15,1.15c.2.2.45.29.71.29s.51-.1.71-.29Z"/>
    <path class="cls-1" d="m16,5.88c-3.24,0-5.88,2.64-5.88,5.88,0,.08,0,.17.01.25h11.72c0-.08.01-.17.01-.25,0-3.24-2.64-5.88-5.88-5.88Z"/>
    <path class="cls-1" d="m25.75,10h-1.62c-.55,0-1,.45-1,1s.45,1,1,1h1.62c.55,0,1-.45,1-1s-.45-1-1-1Z"/>
    <path class="cls-1" d="m7.88,10h-1.62c-.55,0-1,.45-1,1s.45,1,1,1h1.62c.55,0,1-.45,1-1s-.45-1-1-1Z"/>
  </g>
</svg>