<?xml version="1.0" encoding="UTF-8"?>
<svg id="OBJECT" xmlns="http://www.w3.org/2000/svg" viewBox="0 0 32 32">
  <defs>
    <style>
      .cls-1 {
        fill: #FD4360;
      }

      .cls-1, .cls-2 {
        stroke-width: 0px;
      }

      .cls-2 {
        fill: #dadada;
      }
    </style>
  </defs>
  <g>
    <path class="cls-2" d="m10.6,4c-.55,0-1,.45-1,1s.45,1,1,1h1c.55,0,1-.45,1-1s-.45-1-1-1h-1Z"/>
    <path class="cls-2" d="m16.6,26h-1c-.55,0-1,.45-1,1s.45,1,1,1h1c.55,0,1-.45,1-1s-.45-1-1-1Z"/>
    <path class="cls-2" d="m25.08,6.29c-.73-.71-1.68-1.1-2.68-1.1h-.8v-3.19c0-.55-.45-1-1-1H6.6c-.55,0-1,.45-1,1v17.2h-.8c-1,0-1.96.39-2.7,1.12-.71.73-1.1,1.68-1.1,2.68,0,2.09,1.7,3.8,3.8,3.8h.8v3.2c0,.55.45,1,1,1h14.01c.55,0,1-.45,1-1v-2.62c0-.55-.45-1-1-1s-1,.45-1,1v1.62H7.6v-3.2c0-.55-.45-1-1-1h-1.8c-.99,0-1.8-.81-1.8-1.8,0-.48.19-.93.52-1.27.35-.34.81-.53,1.28-.53h1.8c.55,0,1-.45,1-1v-3.2h2.2v.8c0,1,.39,1.96,1.11,2.69.72.72,1.68,1.12,2.69,1.12,2.09,0,3.8-1.71,3.8-3.81v-.8h.2c.55,0,1-.45,1-1s-.45-1-1-1h-1.2c-.55,0-1,.45-1,1v1.8c0,1-.81,1.81-1.8,1.81-.48,0-.93-.19-1.27-.53-.34-.35-.53-.81-.53-1.28v-1.8c0-.55-.45-1-1-1h-3.2V3h12.01v3.19c0,.55.45,1,1,1h1.8c.48,0,.93.19,1.27.52.34.35.53.81.53,1.28,0,1-.81,1.81-1.8,1.81h-1.8c-.55,0-1,.45-1,1v1.19c0,.55.45,1,1,1s1-.45,1-1v-.19h.8c2.09,0,3.8-1.71,3.8-3.81,0-1-.39-1.95-1.12-2.7Z"/>
  </g>
  <path class="cls-1" d="m25,14c-3.31,0-6,2.69-6,6s2.69,6,6,6,6-2.69,6-6-2.69-6-6-6Zm3.54,5.08l-3.55,3.59c-.19.19-.44.3-.71.3h0c-.26,0-.52-.1-.71-.29l-2.45-2.44c-.39-.39-.39-1.02,0-1.41.39-.39,1.03-.39,1.41,0l1.74,1.73,2.85-2.88c.39-.39,1.02-.4,1.41,0,.39.39.4,1.02,0,1.41Z"/>
</svg>