<?xml version="1.0" encoding="UTF-8"?>
<svg id="OBJECT" xmlns="http://www.w3.org/2000/svg" viewBox="0 0 32 32">
  <defs>
    <style>
      .cls-1 {
        fill: #FD4360;
      }

      .cls-2 {
        fill: #dadada;
      }
    </style>
  </defs>
  <g>
    <path class="cls-2" d="M30,11h-1.2c-.55,0-1,.45-1,1s.45,1,1,1h1.2c.55,0,1-.45,1-1s-.45-1-1-1Z"/>
    <path class="cls-2" d="M28,8.03c.25,0,.51-.1,.7-.29l1.04-1.03c.39-.39,.4-1.02,0-1.41-.39-.39-1.02-.4-1.41,0l-1.04,1.03c-.39,.39-.4,1.02,0,1.41,.2,.2,.45,.3,.71,.3Z"/>
    <path class="cls-2" d="M28.7,16.26c-.39-.39-1.02-.38-1.41,0-.39,.39-.38,1.03,0,1.41l1.04,1.03c.19,.19,.45,.29,.7,.29s.51-.1,.71-.3c.39-.39,.38-1.03,0-1.41l-1.04-1.03Z"/>
    <path class="cls-2" d="M3.2,13c.55,0,1-.45,1-1s-.45-1-1-1h-1.2c-.55,0-1,.45-1,1s.45,1,1,1h1.2Z"/>
    <path class="cls-2" d="M3.66,5.29c-.39-.39-1.02-.38-1.41,0-.39,.39-.38,1.03,0,1.41l1.04,1.03c.19,.19,.45,.29,.7,.29s.51-.1,.71-.3c.39-.39,.38-1.03,0-1.41l-1.04-1.03Z"/>
    <path class="cls-2" d="M3.3,16.26l-1.04,1.03c-.39,.39-.4,1.02,0,1.41,.2,.2,.45,.3,.71,.3s.51-.1,.7-.29l1.04-1.03c.39-.39,.4-1.02,0-1.41-.39-.39-1.02-.4-1.41,0Z"/>
    <path class="cls-2" d="M24,25h-1v-2.83c0-1.01,.37-1.96,1.04-2.68,1.91-2.04,2.96-4.71,2.96-7.49,0-3.13-1.34-6.12-3.68-8.21-2.33-2.08-5.47-3.08-8.6-2.72C9.82,1.62,5.78,5.56,5.11,10.44c-.46,3.33,.59,6.64,2.87,9.08,.66,.7,1.02,1.64,1.02,2.66v2.83h-1c-.55,0-1,.45-1,1s.45,1,1,1h3v3c0,.55,.45,1,1,1h8c.55,0,1-.45,1-1v-3h3c.55,0,1-.45,1-1s-.45-1-1-1Zm-5,4h-6v-2h6v2Zm2-6.83v2.83H11v-2.83c0-1.53-.55-2.96-1.56-4.03-1.87-1.99-2.73-4.7-2.35-7.43,.55-3.98,3.85-7.2,7.86-7.65,2.61-.29,5.11,.5,7.05,2.23,1.91,1.71,3.01,4.15,3.01,6.71,0,2.28-.86,4.46-2.42,6.13-1.02,1.09-1.58,2.52-1.58,4.04Z"/>
  </g>
  <path class="cls-1" d="M16,19c3.86,0,7-3.14,7-7s-3.14-7-7-7-7,3.14-7,7,3.14,7,7,7Zm-2.96-7.79c.39-.39,1.02-.4,1.41-.01l.86,.84,2.24-2.19c.39-.39,1.03-.38,1.41,.01,.39,.39,.38,1.03-.01,1.41l-2.94,2.88c-.19,.19-.45,.29-.7,.29s-.51-.1-.7-.29l-1.56-1.53c-.39-.39-.4-1.02-.01-1.41Z"/>
</svg>