<?xml version="1.0" encoding="UTF-8"?>
<svg id="OBJECT" xmlns="http://www.w3.org/2000/svg" viewBox="0 0 512 512">
  <defs>
    <style>
      .cls-1 {
        fill: #FD4360;
      }

      .cls-2 {
        fill: #dadada;
      }
    </style>
  </defs>
  <path class="cls-2" d="M388.6,197.69c0-11.19-4.36-21.71-12.27-29.62l-32.42-32.42c-16.33-16.33-42.9-16.33-59.24,0L117.82,302.51c-9.69-8.4-24.4-8.02-33.61,1.19l-8.1,8.1c-4.66,4.66-7.23,10.87-7.23,17.46s2.57,12.8,7.23,17.46l27.12,27.12-38.02,38.02-14.96-14.96c-9.63-9.63-25.29-9.63-34.92,0l-8.11,8.11c-9.63,9.63-9.63,25.29,0,34.92l64.84,64.84c4.66,4.67,10.87,7.23,17.46,7.23s12.8-2.57,17.46-7.23l8.1-8.1c4.66-4.66,7.23-10.87,7.23-17.46s-2.57-12.8-7.23-17.46l-14.96-14.96,38.02-38.02,27.12,27.12c4.81,4.81,11.14,7.22,17.46,7.22s12.65-2.41,17.46-7.22l8.1-8.1c4.66-4.66,7.23-10.87,7.23-17.46,0-6-2.13-11.67-6.03-16.16l166.84-166.84c7.91-7.91,12.27-18.43,12.27-29.62Zm-207.43,168.04l54.23-54.23,17.76,17.76-54.23,54.23-17.76-17.76Zm-52.68-52.68l54.23-54.23,17.76,17.76-54.23,54.23-17.76-17.76Zm82.6-25.86l13.71,13.71-54.23,54.23-13.71-13.71,54.23-54.23Zm-17.76-38.97l21.81-21.81,70.44,70.44-21.81,21.81-70.44-70.44Zm-86.01,230.99c0,2.59-1.01,5.02-2.84,6.85l-8.11,8.11c-1.83,1.83-4.26,2.84-6.85,2.84s-5.02-1.01-6.85-2.84L17.83,429.32c-3.78-3.78-3.78-9.93,0-13.71l8.1-8.1c1.89-1.89,4.37-2.83,6.85-2.83s4.96,.95,6.85,2.83l64.84,64.84c1.83,1.83,2.84,4.26,2.84,6.85Zm-17.8-43.03l-13.71-13.71,38.02-38.02,13.71,13.71-38.02,38.02Zm108.16-19.01l-8.1,8.1c-3.78,3.78-9.93,3.78-13.71,0l-89.15-89.15c-1.83-1.83-2.84-4.27-2.84-6.85s1.01-5.02,2.84-6.85l8.1-8.1c1.89-1.89,4.37-2.83,6.85-2.83s4.96,.95,6.85,2.83l89.15,89.15c1.83,1.83,2.84,4.27,2.84,6.85s-1.01,5.02-2.84,6.85Zm168.04-200.46l-10.91,10.91-10.91-10.91c-2.93-2.93-7.68-2.93-10.61,0-2.93,2.93-2.93,7.68,0,10.61l10.91,10.91-23.71,23.71-10.91-10.91c-2.93-2.93-7.68-2.93-10.61,0-2.93,2.93-2.93,7.68,0,10.61l10.91,10.91-13.71,13.71-70.44-70.44,69.54-69.54c10.48-10.48,27.54-10.48,38.02,0l32.42,32.42c5.08,5.08,7.88,11.83,7.88,19.01s-2.8,13.93-7.88,19.01Z"/>
  <g>
    <path class="cls-1" d="M394.15,96.04c-5.86-5.86-15.36-5.86-21.21,0l-19.31,19.31,43.03,43.03,19.31-19.31c5.86-5.86,5.86-15.36,0-21.21l-21.81-21.81Z"/>
    <path class="cls-1" d="M509.8,2.2c-2.93-2.93-7.68-2.93-10.61,0l-88.84,88.84,10.61,10.61L509.8,12.8c2.93-2.93,2.93-7.68,0-10.61Z"/>
  </g>
</svg>