<?xml version="1.0" encoding="UTF-8" standalone="no"?>
<svg
   id="OBJECT"
   viewBox="0 0 32 32"
   version="1.1"
   sodipodi:docname="Smile.svg"
   inkscape:version="1.2.2 (732a01da63, 2022-12-09)"
   xml:space="preserve"
   xmlns:inkscape="http://www.inkscape.org/namespaces/inkscape"
   xmlns:sodipodi="http://sodipodi.sourceforge.net/DTD/sodipodi-0.dtd"
   xmlns="http://www.w3.org/2000/svg"
   xmlns:svg="http://www.w3.org/2000/svg"><sodipodi:namedview
     id="namedview15"
     pagecolor="#505050"
     bordercolor="#ffffff"
     borderopacity="1"
     inkscape:showpageshadow="0"
     inkscape:pageopacity="0"
     inkscape:pagecheckerboard="1"
     inkscape:deskcolor="#505050"
     showgrid="false"
     inkscape:zoom="6.4765625"
     inkscape:cx="21.693607"
     inkscape:cy="13.741858"
     inkscape:window-width="1920"
     inkscape:window-height="1009"
     inkscape:window-x="-8"
     inkscape:window-y="-8"
     inkscape:window-maximized="1"
     inkscape:current-layer="OBJECT" /><defs
     id="defs4"><style
       id="style2">
      .cls-1 {
        fill: #FD4360;
      }

      .cls-2 {
        fill: #dadada;
      }
    </style></defs><path
     style="fill:#fd4360;stroke:none;stroke-width:0.0696723;fill-opacity:1"
     d="m 22.524095,18.368251 c -0.143411,-0.112179 -0.300437,-0.205005 -0.348948,-0.206281 -0.04851,-0.0013 -0.212783,-0.08948 -0.365049,-0.196009 -0.152269,-0.106529 -0.488058,-0.311195 -0.746201,-0.454813 -0.258142,-0.143618 -0.633623,-0.358572 -0.8344,-0.477676 -0.200778,-0.119104 -0.555455,-0.313182 -0.788173,-0.431286 -0.667094,-0.338546 -0.880625,-0.588057 -0.880625,-1.029007 0,-0.46149 0.212152,-0.635412 0.990849,-0.812294 0.286824,-0.06515 1.272459,-0.318054 2.190298,-0.562004 2.21381,-0.588403 2.143936,-0.579489 2.478662,-0.316195 0.207014,0.162837 0.285287,0.318052 0.285287,0.565722 0,0.56398 -0.199959,0.680031 -1.825249,1.059324 -1.001906,0.233814 -1.194408,0.298795 -1.213051,0.40947 -0.0097,0.05736 0.437075,0.365867 0.992752,0.68556 1.207938,0.694954 1.350214,0.825374 1.350214,1.237677 0,0.666385 -0.727563,0.964914 -1.286366,0.527812 z"
     id="path439" /><path
     style="fill:#fd4360;stroke:none;stroke-width:0.0696723;fill-opacity:1"
     d="M 14.336549,13.643643 C 13.934995,13.399585 13.043231,12.878491 12.35485,12.485655 10.82846,11.614594 10.7382,11.538427 10.7382,11.12142 c 0,-0.607241 0.637727,-0.955049 1.147302,-0.625724 0.168834,0.109112 0.250916,0.155344 1.19945,0.675573 0.344188,0.188774 0.677051,0.382993 0.739695,0.4316 0.199779,0.155014 0.236775,-0.01786 0.09965,-0.465634 C 13.435681,9.5416903 13.3457,9.1874913 13.3457,8.8596453 c 0,-0.219464 0.07354,-0.432137 0.182523,-0.527838 0.240793,-0.2114435 0.651877,-0.3345738 0.651877,-0.1952532 0,0.059431 0.06346,0.083702 0.14102,0.053938 0.164686,-0.063196 0.445966,0.327169 0.543176,0.753823 0.03731,0.16373 0.157443,0.598176 0.266973,0.965438 0.109531,0.3672619 0.175409,0.6914879 0.146394,0.7205029 -0.02902,0.02902 -0.01099,0.104008 0.04004,0.166651 0.128704,0.157969 0.739793,2.306537 0.739793,2.601088 0,0.309596 -0.410147,0.69461 -0.736823,0.691673 C 15.18096,14.088368 14.7381,13.8877 14.336546,13.643642 Z"
     id="path441" /><path
     style="fill:#fd4360;stroke:none;stroke-width:0.0696723;fill-opacity:1"
     d="m 14.753749,25.08335 c -0.11473,-0.02866 -0.279002,-0.08005 -0.36505,-0.114195 -0.08605,-0.03415 -0.273786,-0.08049 -0.4172,-0.10299 -1.136575,-0.178325 -2.797725,-1.15163 -3.963988,-2.322591 -1.0137976,-1.017882 -1.5943023,-1.989662 -1.9957377,-3.340924 -0.524247,-1.764659 -0.046052,-4.849912 0.8123324,-5.241016 0.2290669,-0.104369 0.3483228,-0.07852 0.8554601,0.185409 0.3241072,0.168677 0.6596882,0.359512 0.7457352,0.424079 0.08605,0.06457 0.414592,0.256765 0.730099,0.427108 0.315508,0.170344 0.772193,0.435064 1.014853,0.588269 0.242661,0.153204 0.470091,0.278553 0.5054,0.278553 0.0353,0 0.188778,0.08716 0.341047,0.19369 0.261152,0.182707 0.820873,0.506188 1.710974,0.988829 0.215119,0.116644 0.391125,0.253078 0.391125,0.303186 0,0.05011 0.04142,0.06551 0.09204,0.03422 0.05062,-0.03129 0.203495,0.02461 0.339714,0.124219 0.240905,0.176154 0.330165,0.2297 1.120959,0.672455 0.850803,0.476352 4.577003,2.637038 4.939958,2.864499 0.344711,0.216028 0.391125,0.294062 0.391125,0.657589 0,0.372484 -0.07332,0.486303 -0.756174,1.173949 -0.968917,0.975705 -1.77996,1.50553 -2.891818,1.889117 -0.755482,0.26064 -1.0771,0.311376 -2.140655,0.337692 -0.688381,0.01703 -1.345471,0.0075 -1.460201,-0.02115 z m 2.5032,-1.592315 c 0.458918,-0.105137 1.045607,-0.301177 1.30375,-0.435643 0.641702,-0.334262 1.460199,-0.950326 1.460199,-1.099058 0,-0.09869 -1.576314,-1.060148 -3.146672,-1.919284 -0.229059,-0.125317 -1.961299,-1.128823 -2.694125,-1.560737 -0.08605,-0.05071 -1.024748,-0.597287 -2.086,-1.214605 -1.061252,-0.617318 -1.945194,-1.160638 -1.964315,-1.207376 -0.01913,-0.04674 -0.120816,-0.08498 -0.2259836,-0.08498 -0.1051693,0 -0.2127276,-0.05867 -0.2390199,-0.130375 -0.037729,-0.102895 -0.076362,-0.103464 -0.18331,-0.0027 -0.088433,0.08333 -0.1515262,0.518093 -0.1816351,1.251599 -0.042001,1.02325 -0.020371,1.198656 0.2414208,1.958319 0.7646198,2.218715 2.6852508,3.887291 5.1039868,4.434156 1.077872,0.243702 1.585499,0.245777 2.611704,0.01068 z"
     id="path445" /><path
     style="fill:#dadada;fill-opacity:1;stroke:none;stroke-width:0.0593406"
     d="M 7.4879988,10.506075 C 5.5076538,10.094916 4.8228553,9.7585851 4.7068343,9.1401397 4.6118462,8.6338099 4.7406366,8.2277402 5.1302843,7.8050223 5.4735041,7.4326728 5.5157585,7.4132479 5.9825011,7.4132479 c 0.3893623,0 0.5525315,0.046862 0.7876869,0.226224 0.348832,0.2660672 0.8679803,1.0073962 1.2723915,1.8169387 0.1586479,0.3175786 0.3869177,0.7085174 0.5072663,0.8687534 0.1203485,0.160235 0.205885,0.323632 0.1900809,0.363104 -0.015804,0.03947 -0.5791716,-0.04252 -1.2519279,-0.182193 z"
     id="path1145" /><path
     style="fill:#dadada;fill-opacity:1;stroke:none;stroke-width:0.0563067"
     d="m 27.499957,22.491118 c -0.378166,-0.151377 -0.876833,-0.616674 -1.500562,-1.400148 -0.343709,-0.431735 -0.680139,-0.784974 -0.747625,-0.784974 -0.06749,0 -0.122698,-0.05417 -0.122698,-0.120372 0,-0.174746 0.735278,-0.245754 2.052144,-0.198181 1.219179,0.04405 1.595684,0.14941 1.895397,0.530435 0.129115,0.164143 0.182736,0.349622 0.182736,0.632106 0,0.84919 -0.479293,1.435844 -1.165474,1.426537 -0.216654,-0.0029 -0.483917,-0.04137 -0.593918,-0.0854 z"
     id="path1147" /><path
     style="fill:#fd4360;stroke:none;stroke-width:0.0696723;fill-opacity:1"
     d="M 14.649451,29.322821 C 13.804153,29.254686 12.504391,28.957462 11.788916,28.668687 10.503295,28.149793 9.9426746,27.876898 9.2617737,27.438538 7.2140935,26.120253 5.5719703,24.263137 4.5616413,22.12305 3.7330736,20.367967 3.4089062,18.962307 3.3710089,16.960202 3.3329548,14.949831 3.6379009,13.348094 4.3886752,11.61491 L 4.6258357,11.067417 4.1907302,10.63662 C 3.5842771,10.036168 3.332904,9.4710323 3.332904,8.7080533 c 0,-1.107891 0.6696019,-2.1104181 1.7403427,-2.6056342 0.8986181,-0.4156108 1.6401456,-0.2908421 2.808464,0.4725493 0.2014461,0.1316265 0.2961717,0.093541 1.1036563,-0.4437412 2.2203,-1.4773362 4.770352,-2.2180355 7.332881,-2.1299418 1.65331,0.056839 2.774844,0.245747 3.678839,0.6196567 0.156508,0.064734 0.318153,0.1106567 0.359212,0.102048 0.04106,-0.00861 0.486942,0.1789758 0.990851,0.4168536 1.909,0.9011743 3.568362,2.2213383 4.730319,3.7633726 0.353103,0.468602 0.669672,0.92427 0.703485,1.012596 0.03381,0.08833 0.174123,0.3248647 0.311794,0.5256417 0.511278,0.745638 1.026672,2.085013 1.384652,3.598349 0.183048,0.773826 0.22188,1.26257 0.221083,2.782645 l -9.51e-4,1.843945 0.433412,0.172035 c 0.675086,0.267961 1.360823,1.063474 1.516547,1.75932 0.287961,1.286746 -0.334704,2.585946 -1.541515,3.216393 -0.668608,0.349283 -1.322036,0.37739 -1.967052,0.08461 -0.33965,-0.15417 -0.467339,-0.171982 -0.54437,-0.07593 -0.05535,0.06901 -0.320107,0.407091 -0.588348,0.75128 -0.514822,0.660588 -2.032937,2.161877 -2.109092,2.085719 -0.02464,-0.02463 -0.135843,0.07095 -0.247122,0.212418 -0.111276,0.141467 -0.246331,0.257213 -0.300122,0.257213 -0.05379,0 -0.32026,0.155796 -0.592155,0.346214 -1.995826,1.397747 -5.050463,2.093631 -8.108251,1.847159 z m 4.148785,-1.764429 c 0.446153,-0.117301 0.985905,-0.289185 1.19945,-0.381961 0.213542,-0.09278 0.552533,-0.238855 0.753311,-0.324617 0.200778,-0.08576 0.740529,-0.373525 1.19945,-0.639475 0.967782,-0.560839 2.899119,-2.368625 3.267178,-3.058171 l 0.234269,-0.438895 -0.453944,-0.584549 c -0.471479,-0.607129 -1.084614,-1.796601 -1.185113,-2.299092 -0.04858,-0.242882 0.0032,-0.336206 0.320628,-0.57835 0.399458,-0.304681 1.995787,-0.780731 2.618008,-0.780731 h 0.345218 l 0.07505,-0.700757 C 27.280689,16.75446 27.148721,14.899572 26.894901,13.880581 26.645147,12.877919 25.86049,11.165339 25.238466,10.265271 24.572286,9.3013143 23.127071,7.8545324 22.39941,7.4231403 21.016061,6.6030259 19.743382,6.024502 18.95125,5.8557059 18.707765,5.8038203 18.320811,5.7125371 18.091351,5.652852 17.86189,5.593167 16.953071,5.5432139 16.071756,5.541845 c -1.247031,-0.0019 -1.790604,0.043246 -2.451049,0.203721 -0.914123,0.2221171 -1.922606,0.5579369 -2.369478,0.7890227 -0.152888,0.079065 -0.307397,0.1143297 -0.343352,0.078375 -0.03595,-0.035954 -0.06538,-0.00835 -0.06538,0.061342 0,0.069696 -0.129289,0.1831213 -0.287311,0.252058 -0.352006,0.1535625 -1.4632466,0.8910373 -1.547118,1.0267451 -0.03352,0.05424 0.00468,0.2021575 0.084899,0.3287065 0.2371192,0.374072 0.5857805,1.440693 0.6615203,2.0237097 0.1348176,1.0378 -0.020585,1.209216 -1.2492404,1.37788 -0.5691423,0.07813 -1.8002219,-0.0034 -2.2614707,-0.149826 -0.1384915,-0.04395 -0.2508761,0.134993 -0.5427185,0.864157 -0.6212444,1.552168 -0.8036578,2.532461 -0.8036578,4.318904 0,1.607604 0.096083,2.232536 0.5505869,3.581158 0.3114235,0.92406 0.969717,2.204836 1.5200613,2.957427 0.2665861,0.364556 0.5426797,0.763503 0.6135392,0.886549 0.070861,0.123047 0.1295284,0.185098 0.1303734,0.137892 9.511e-4,-0.04721 0.2930987,0.201243 0.6494477,0.552108 1.560174,1.536163 3.9260296,2.678924 6.1315886,2.961695 0.913533,0.117123 3.503544,-0.0243 4.305236,-0.235079 z m 9.856946,-5.180924 c 0.505135,-0.35381 0.716713,-1.31748 0.391271,-1.782114 -0.320554,-0.457655 -0.789198,-0.570712 -2.273262,-0.548407 -0.759465,0.01141 -1.413998,0.03883 -1.454517,0.06092 -0.04052,0.02209 -0.04734,0.108794 -0.01515,0.192675 0.03219,0.08388 0.09812,0.12804 0.146515,0.09813 0.04839,-0.02991 0.274702,0.198362 0.502905,0.50727 0.575893,0.779557 0.942935,1.158801 1.368945,1.414456 0.432187,0.259362 1.009214,0.284061 1.333288,0.05707 z M 8.5479027,10.349925 c 0,-0.05034 -0.071305,-0.150709 -0.1584618,-0.223039 C 8.3022879,10.054546 8.0449853,9.6092863 7.8176551,9.1374003 7.5863268,8.6572113 7.2144042,8.089498 6.9729977,7.8480899 6.5948173,7.4699095 6.4836406,7.4167557 6.0708231,7.4167557 c -0.4014735,0 -0.5207175,0.052884 -0.8093997,0.3589797 -0.3538775,0.3752189 -0.4589256,0.7343309 -0.3664582,1.2527489 0.083926,0.470524 0.7152059,0.841996 1.7755387,1.0448017 0.4876014,0.09326 1.0508228,0.208322 1.2516,0.255688 0.515276,0.121561 0.6257988,0.125261 0.6257988,0.02095 z"
     id="path443" /></svg>
