<?xml version="1.0" encoding="UTF-8"?>
<svg id="OBJECT" xmlns="http://www.w3.org/2000/svg" viewBox="0 0 32 32">
  <defs>
    <style>
      .cls-1 {
        fill: #FD4360;
      }

      .cls-1, .cls-2 {
        stroke-width: 0px;
      }

      .cls-2 {
        fill: #dadada;
      }
    </style>
  </defs>
  <g>
    <path class="cls-2" d="m30,12.5h-3c-.55,0-1,.45-1,1s.45,1,1,1h3c.55,0,1-.45,1-1s-.45-1-1-1Z"/>
    <path class="cls-2" d="m27,9.5c.23,0,.47-.08.65-.24l2-1.73c.42-.36.46-.99.1-1.41-.36-.42-.99-.46-1.41-.1l-2,1.73c-.42.36-.46.99-.1,1.41.2.23.48.35.76.35Z"/>
    <path class="cls-2" d="m27.65,17.74c-.42-.36-1.05-.32-1.41.1-.36.42-.32,1.05.1,1.41l2,1.73c.19.16.42.24.65.24.28,0,.56-.12.76-.35.36-.42.32-1.05-.1-1.41l-2-1.73Z"/>
    <path class="cls-2" d="m5,12.5h-3c-.55,0-1,.45-1,1s.45,1,1,1h3c.55,0,1-.45,1-1s-.45-1-1-1Z"/>
    <path class="cls-2" d="m4.35,9.26c.19.16.42.24.65.24.28,0,.56-.12.76-.35.36-.42.32-1.05-.1-1.41l-2-1.73c-.42-.36-1.05-.32-1.41.1-.36.42-.32,1.05.1,1.41l2,1.73Z"/>
    <path class="cls-2" d="m4.35,17.74l-2,1.73c-.42.36-.46.99-.1,1.41.2.23.48.35.76.35.23,0,.47-.08.65-.24l2-1.73c.42-.36.46-.99.1-1.41s-.99-.46-1.41-.1Z"/>
    <path class="cls-2" d="m21.5,1h-11c-1.65,0-3,1.35-3,3v19c0,1.65,1.35,3,3,3h2.5v3h-2.5c-.55,0-1,.45-1,1s.45,1,1,1h11c.55,0,1-.45,1-1s-.45-1-1-1h-2.5v-3h2.5c1.65,0,3-1.35,3-3V4c0-1.65-1.35-3-3-3Zm-4.5,28h-2v-3h2v3Zm5.5-6c0,.55-.45,1-1,1h-11c-.55,0-1-.45-1-1V4c0-.55.45-1,1-1h11c.55,0,1,.45,1,1v19Z"/>
  </g>
  <circle class="cls-1" cx="16" cy="7.5" r="3"/>
  <path class="cls-1" d="m16,12.5c-2.76,0-5,2.24-5,5s2.24,5,5,5,5-2.24,5-5-2.24-5-5-5Zm1,6h-2c-.55,0-1-.45-1-1s.45-1,1-1h2c.55,0,1,.45,1,1s-.45,1-1,1Z"/>
</svg>