<?xml version="1.0" encoding="UTF-8"?>
<svg id="OBJECT" xmlns="http://www.w3.org/2000/svg" viewBox="0 0 32 32">
  <defs>
    <style>
      .cls-1 {
        fill: #FD4360;
      }

      .cls-1, .cls-2 {
        stroke-width: 0px;
      }

      .cls-2 {
        fill: #dadada;
      }
    </style>
  </defs>
  <g>
    <path class="cls-2" d="m16,22.55c1.04,0,2.08-.4,2.87-1.19.39-.39.39-1.02,0-1.41s-1.02-.39-1.41,0c-.8.8-2.11.8-2.91,0-.39-.39-1.02-.39-1.41,0-.39.39-.39,1.02,0,1.41.79.79,1.83,1.19,2.87,1.19Z"/>
    <path class="cls-2" d="m30,23.5c-1.35,0-2.5-1.6-2.5-3.5,0-.55-.45-1-1-1s-1,.45-1,1c0,1.9-1.15,3.5-2.5,3.5-.55,0-1,.45-1,1s.45,1,1,1c1.35,0,2.5,1.6,2.5,3.5,0,.55.45,1,1,1s1-.45,1-1c0-1.9,1.15-3.5,2.5-3.5.55,0,1-.45,1-1s-.45-1-1-1Zm-3.5,2.05c-.26-.4-.57-.75-.92-1.05.34-.3.65-.65.92-1.05.26.4.57.75.92,1.05-.34.3-.65.65-.92,1.05Z"/>
    <path class="cls-2" d="m9,23.5c-1.35,0-2.5-1.6-2.5-3.5,0-.55-.45-1-1-1s-1,.45-1,1c0,1.9-1.15,3.5-2.5,3.5-.55,0-1,.45-1,1s.45,1,1,1c1.35,0,2.5,1.6,2.5,3.5,0,.55.45,1,1,1s1-.45,1-1c0-1.9,1.15-3.5,2.5-3.5.55,0,1-.45,1-1s-.45-1-1-1Zm-3.5,2.05c-.26-.4-.57-.75-.92-1.05.34-.3.65-.65.92-1.05.26.4.57.75.92,1.05-.34.3-.65.65-.92,1.05Z"/>
    <path class="cls-2" d="m23,19v-1.03c0-.55-.45-1-1-1s-1,.45-1,1v1.03c0,2.76-2.24,5-5,5s-5-2.24-5-5v-1.03c0-.55-.45-1-1-1s-1,.45-1,1v1.03c0,2.15.97,4.07,2.5,5.35v2.49c0,1.07.58,2.07,1.51,2.6l2.49,1.42c.15.09.32.13.5.13s.34-.04.5-.13l2.49-1.42c.93-.53,1.51-1.53,1.51-2.6v-2.49c1.53-1.29,2.5-3.21,2.5-5.35Zm-4.5,7.84c0,.36-.19.69-.5.87l-2,1.14-2-1.14c-.31-.18-.5-.51-.5-.87v-1.31c.78.3,1.62.47,2.5.47s1.72-.17,2.5-.47v1.31Z"/>
  </g>
  <g>
    <path class="cls-1" d="m24.75,4.52c-.64-2.03-2.51-3.52-4.75-3.52h-8c-2.76,0-5,2.24-5,5v9.6h.76c3.68-.16,12.58-1.6,16.99-11.08Zm-14.05,2.82c1.53-.29,2.64-1.12,3.31-2.48.24-.5.84-.7,1.34-.45.5.24.7.84.45,1.34-1.2,2.42-3.23,3.27-4.73,3.55-.06.01-.13.02-.19.02-.47,0-.89-.33-.98-.81-.1-.54.25-1.07.8-1.17Zm9.91-1.59c-2.42,4.89-6.52,6.6-9.54,7.17-.06.01-.12.02-.19.02-.47,0-.89-.33-.98-.81-.1-.54.25-1.07.8-1.17,2.57-.49,6.07-1.94,8.12-6.09.24-.5.84-.7,1.34-.45.5.24.7.84.45,1.34Z"/>
    <path class="cls-1" d="m18.43,14.54c2.29.75,4.37,1,5.85,1.06h.72v-7.39c-1.89,2.9-4.21,4.93-6.57,6.32Z"/>
  </g>
</svg>