<?xml version="1.0" encoding="UTF-8"?>
<svg id="OBJECT" xmlns="http://www.w3.org/2000/svg" viewBox="0 0 32 32">
  <defs>
    <style>
      .cls-1 {
        fill: #FD4360;
      }

      .cls-1, .cls-2 {
        stroke-width: 0px;
      }

      .cls-2 {
        fill: #dadada;
      }
    </style>
  </defs>
  <g>
    <path class="cls-2" d="m30,1h-5.3c-1.23,0-2.38.48-3.25,1.35l-15.92,15.92c-.19.19-.29.44-.29.71s.11.52.29.71l.73.73-3.72,1.92c-.28.15-.48.42-.53.73-.05.32.06.64.28.86l5.79,5.79c.19.19.44.29.71.29.05,0,.1,0,.15-.01.32-.05.59-.25.73-.53l1.92-3.72.73.73c.19.19.44.29.71.29s.52-.11.71-.29l15.92-15.92c.87-.87,1.35-2.02,1.35-3.25V2c0-.55-.45-1-1-1ZM8.53,27.32l-3.85-3.85,3.07-1.58,2.36,2.36-1.58,3.07Zm4.5-2.98l-5.37-5.37,1.98-1.98,5.37,5.37-1.98,1.98ZM29,7.3c0,.69-.27,1.35-.76,1.84l-11.81,11.81-1.98-1.98,6.26-6.26c.39-.39.39-1.02,0-1.41s-1.02-.39-1.41,0l-6.26,6.26-1.98-1.98L22.87,3.76c.49-.49,1.14-.76,1.84-.76h4.3v4.3Z"/>
    <path class="cls-2" d="m22.11,6.35c0,.55.45,1,1,1,.85,0,1.54.69,1.54,1.55,0,.55.45,1,1,1s1-.45,1-1c0-1.96-1.59-3.55-3.54-3.55-.55,0-1,.45-1,1Z"/>
  </g>
  <g>
    <path class="cls-1" d="m27.2,22.45l-1.42-5.21-9.64,9.64,1.14,1.14,2.56-2.56c.39-.39,1.02-.39,1.41,0s.39,1.02,0,1.41l-2.56,2.56,1.26,1.26c.19.19.44.29.71.29s.52-.11.71-.29l4.95-4.95c.86-.86,1.2-2.12.88-3.3Zm-3.13,1.62l-.42.42c-.19.2-.45.29-.71.29s-.51-.1-.71-.29c-.39-.39-.39-1.02,0-1.41l.42-.42c.39-.39,1.02-.39,1.41,0,.39.39.39,1.02,0,1.41Z"/>
    <path class="cls-1" d="m6.25,5.67L1.29,10.63c-.19.19-.29.44-.29.71s.11.52.29.71l1.26,1.26,2.56-2.56c.39-.39,1.02-.39,1.41,0s.39,1.02,0,1.41l-2.56,2.56,1.14,1.14L14.75,6.22l-5.21-1.42c-1.17-.32-2.44.02-3.3.88Zm3.1,3.67l-.42.42c-.39.39-1.02.39-1.41,0-.19-.2-.29-.45-.29-.71s.1-.51.29-.71l.42-.42c.39-.39,1.02-.39,1.41,0,.39.39.39,1.03,0,1.41Z"/>
  </g>
</svg>