<?xml version="1.0" encoding="UTF-8"?>
<svg id="OBJECT" xmlns="http://www.w3.org/2000/svg" viewBox="0 0 32 32">
  <defs>
    <style>
      .cls-1 {
        fill: #FD4360;
      }

      .cls-1, .cls-2 {
        stroke-width: 0px;
      }

      .cls-2 {
        fill: #dadada;
      }
    </style>
  </defs>
  <g>
    <path class="cls-2" d="m15,20c0,.55.45,1,1,1s1-.45,1-1v-1c0-.55-.45-1-1-1s-1,.45-1,1v1Z"/>
    <path class="cls-2" d="m16,16c.55,0,1-.45,1-1v-1c0-.55-.45-1-1-1s-1,.45-1,1v1c0,.55.45,1,1,1Z"/>
    <path class="cls-2" d="m28,11h-2v-7c0-.55-.45-1-1-1s-1,.45-1,1v1.28l-12.32,4.1c-.52.17-.81.74-.63,1.26.14.42.53.68.95.68.1,0,.21-.02.32-.05l6.68-2.23v15.89l-6.68-2.23c-.53-.17-1.09.11-1.27.63-.17.52.11,1.09.63,1.27l12.32,4.1v1.28c0,.55.45,1,1,1s1-.45,1-1v-7h2c1.65,0,3-1.35,3-3v-6c0-1.65-1.35-3-3-3Zm-7,14.61V8.39l3-1v19.23l-3-1Zm8-5.61c0,.55-.45,1-1,1h-2v-8h2c.55,0,1,.45,1,1v6Z"/>
  </g>
  <g>
    <path class="cls-1" d="m7,3.5c0-1.38-1.12-2.5-2.5-2.5h-1c-1.38,0-2.5,1.12-2.5,2.5v4.5c0,.55.45,1,1,1s1-.45,1-1V3.5c0-.28.22-.5.5-.5h1c.28,0,.5.22.5.5v6.5h2V3.5Z"/>
    <path class="cls-1" d="m7,10v7c0,.55-.45,1-1,1s-1-.45-1-1v-7h-1.5c-1.38,0-2.5,1.12-2.5,2.5v9c0,1.38,1.12,2.5,2.5,2.5h5.5v-14h-2Z"/>
  </g>
</svg>