<?xml version="1.0" encoding="UTF-8"?>
<svg id="OBJECT" xmlns="http://www.w3.org/2000/svg" viewBox="0 0 512 512">
  <defs>
    <style>
      .cls-1 {
        fill: #FD4360;
      }

      .cls-2 {
        fill: #dadada;
      }
    </style>
  </defs>
  <g>
    <path class="cls-2" d="M212.5,0H22.5C10.09,0,0,10.09,0,22.5V318.42c0,12.41,10.09,22.5,22.5,22.5h14.14l5.74,22.96c2.51,10.03,11.49,17.04,21.83,17.04h25.79v45.11l-69.2,38.45c-6.17,3.43-10.67,9.33-12.33,16.2-1.66,6.86-.37,14.17,3.55,20.05,4.85,7.28,12.93,11.28,21.17,11.28,4.27,0,8.59-1.07,12.52-3.32l53.83-30.76h35.94l53.83,30.76c3.93,2.25,8.25,3.32,12.52,3.32,8.24,0,16.32-4,21.17-11.28,3.92-5.88,5.21-13.18,3.55-20.05-1.67-6.86-6.16-12.77-12.33-16.2l-69.2-38.45v-45.11h25.79c10.34,0,19.32-7.01,21.83-17.04l5.74-22.96h14.14c12.41,0,22.5-10.09,22.5-22.5V22.5c0-12.41-10.09-22.5-22.5-22.5ZM90,466.09l-51.74,29.57c-4.71,2.69-10.76,1.26-13.77-3.25-1.62-2.44-2.14-5.35-1.45-8.19,.69-2.85,2.48-5.2,5.04-6.62l61.92-34.4v22.9Zm40-3.17h-25v-82h25v82Zm76.92,14.67c2.56,1.42,4.35,3.77,5.04,6.62,.69,2.85,.18,5.76-1.45,8.19-3.01,4.51-9.06,5.94-13.77,3.25l-51.74-29.57v-22.9l61.92,34.4Zm-28.85-117.35c-.84,3.35-3.83,5.68-7.28,5.68H64.21c-3.45,0-6.44-2.34-7.28-5.68l-4.83-19.32H182.89l-4.83,19.32Zm41.94-41.82c0,4.14-3.36,7.5-7.5,7.5H22.5c-4.14,0-7.5-3.36-7.5-7.5V22.5c0-4.14,3.36-7.5,7.5-7.5H212.5c4.14,0,7.5,3.36,7.5,7.5V318.42Z"/>
    <path class="cls-2" d="M117.5,220.92c-23.43,0-42.5,19.07-42.5,42.5s19.07,42.5,42.5,42.5,42.5-19.07,42.5-42.5-19.07-42.5-42.5-42.5Zm0,70c-15.16,0-27.5-12.34-27.5-27.5s12.34-27.5,27.5-27.5,27.5,12.34,27.5,27.5-12.34,27.5-27.5,27.5Z"/>
    <path class="cls-2" d="M125,255.92h-15c-4.14,0-7.5,3.36-7.5,7.5s3.36,7.5,7.5,7.5h15c4.14,0,7.5-3.36,7.5-7.5s-3.36-7.5-7.5-7.5Z"/>
    <path class="cls-2" d="M489.5,0h-190c-12.41,0-22.5,10.09-22.5,22.5V318.42c0,12.41,10.09,22.5,22.5,22.5h14.14l5.74,22.96c2.51,10.03,11.49,17.04,21.83,17.04h25.79v45.11l-69.2,38.45c-6.17,3.43-10.67,9.33-12.33,16.2-1.66,6.86-.37,14.17,3.55,20.05,4.85,7.28,12.93,11.28,21.17,11.28,4.27,0,8.59-1.07,12.52-3.32l53.83-30.76h35.94l53.83,30.76c3.93,2.25,8.25,3.32,12.52,3.32,8.24,0,16.32-4,21.17-11.28,3.92-5.88,5.21-13.18,3.55-20.05-1.67-6.86-6.16-12.77-12.33-16.2l-69.2-38.45v-45.11h25.79c10.34,0,19.32-7.01,21.83-17.04l5.74-22.96h14.14c12.41,0,22.5-10.09,22.5-22.5V22.5c0-12.41-10.09-22.5-22.5-22.5Zm-122.5,466.09l-51.74,29.57c-4.71,2.69-10.76,1.26-13.77-3.25-1.62-2.44-2.14-5.35-1.45-8.19,.69-2.85,2.48-5.2,5.04-6.62l61.92-34.4v22.9Zm40-3.17h-25v-82h25v82Zm76.92,14.67c2.56,1.42,4.35,3.77,5.04,6.62,.69,2.85,.18,5.76-1.45,8.19-3.01,4.51-9.06,5.94-13.77,3.25l-51.74-29.57v-22.9l61.92,34.4Zm-28.85-117.35c-.84,3.35-3.83,5.68-7.28,5.68h-106.58c-3.45,0-6.44-2.34-7.28-5.68l-4.83-19.32h130.79l-4.83,19.32Zm41.94-41.82c0,4.14-3.36,7.5-7.5,7.5h-190c-4.14,0-7.5-3.36-7.5-7.5V22.5c0-4.14,3.36-7.5,7.5-7.5h190c4.14,0,7.5,3.36,7.5,7.5V318.42Z"/>
    <path class="cls-2" d="M394.5,220.92c-23.43,0-42.5,19.07-42.5,42.5s19.07,42.5,42.5,42.5,42.5-19.07,42.5-42.5-19.07-42.5-42.5-42.5Zm0,70c-15.16,0-27.5-12.34-27.5-27.5s12.34-27.5,27.5-27.5,27.5,12.34,27.5,27.5-12.34,27.5-27.5,27.5Z"/>
    <path class="cls-2" d="M402,255.92h-15c-4.14,0-7.5,3.36-7.5,7.5s3.36,7.5,7.5,7.5h15c4.14,0,7.5-3.36,7.5-7.5s-3.36-7.5-7.5-7.5Z"/>
  </g>
  <g>
    <path class="cls-1" d="M117.5,35c-46.87,0-85,38.13-85,85s38.13,85,85,85,85-38.13,85-85S164.37,35,117.5,35Zm0,142.5c-31.71,0-57.5-25.79-57.5-57.5s25.79-57.5,57.5-57.5,57.5,25.79,57.5,57.5-25.79,57.5-57.5,57.5Z"/>
    <path class="cls-1" d="M117.5,77.5c-23.43,0-42.5,19.07-42.5,42.5s19.07,42.5,42.5,42.5,42.5-19.07,42.5-42.5-19.07-42.5-42.5-42.5Zm22.8,54.7c2.93,2.93,2.93,7.68,0,10.61-1.46,1.46-3.38,2.2-5.3,2.2s-3.84-.73-5.3-2.2l-12.2-12.2-12.2,12.2c-1.46,1.46-3.38,2.2-5.3,2.2s-3.84-.73-5.3-2.2c-2.93-2.93-2.93-7.68,0-10.61l12.2-12.2-12.2-12.2c-2.93-2.93-2.93-7.68,0-10.61,2.93-2.93,7.68-2.93,10.61,0l12.2,12.2,12.2-12.2c2.93-2.93,7.68-2.93,10.61,0,2.93,2.93,2.93,7.68,0,10.61l-12.2,12.2,12.2,12.2Z"/>
    <path class="cls-1" d="M394.5,35c-46.87,0-85,38.13-85,85s38.13,85,85,85,85-38.13,85-85-38.13-85-85-85Zm0,142.5c-31.71,0-57.5-25.79-57.5-57.5s25.79-57.5,57.5-57.5,57.5,25.79,57.5,57.5-25.79,57.5-57.5,57.5Z"/>
    <path class="cls-1" d="M394.5,77.5c-23.43,0-42.5,19.07-42.5,42.5s19.07,42.5,42.5,42.5,42.5-19.07,42.5-42.5-19.07-42.5-42.5-42.5Zm22.8,54.7c2.93,2.93,2.93,7.68,0,10.61-1.46,1.46-3.38,2.2-5.3,2.2s-3.84-.73-5.3-2.2l-12.2-12.2-12.2,12.2c-1.46,1.46-3.38,2.2-5.3,2.2s-3.84-.73-5.3-2.2c-2.93-2.93-2.93-7.68,0-10.61l12.2-12.2-12.2-12.2c-2.93-2.93-2.93-7.68,0-10.61,2.93-2.93,7.68-2.93,10.61,0l12.2,12.2,12.2-12.2c2.93-2.93,7.68-2.93,10.61,0,2.93,2.93,2.93,7.68,0,10.61l-12.2,12.2,12.2,12.2Z"/>
  </g>
</svg>