<?xml version="1.0" encoding="UTF-8"?>
<svg id="OBJECT" xmlns="http://www.w3.org/2000/svg" viewBox="0 0 32 32">
  <defs>
    <style>
      .cls-1 {
        fill: #FD4360;
      }

      .cls-2 {
        fill: #dadada;
      }
    </style>
  </defs>
  <path class="cls-2" d="M24,22c.4,0,.76-.24,.92-.61l3-7c.13-.31,.1-.66-.08-.94-.19-.28-.5-.45-.83-.45H5c-.34,0-.65,.17-.83,.45-.19,.28-.22,.64-.08,.94l3,7c.16,.37,.52,.61,.92,.61h3.5v7h-3.5c-.55,0-1,.45-1,1s.45,1,1,1H24c.55,0,1-.45,1-1s-.45-1-1-1h-3.5v-7h3.5Zm-15.34-2l-2.14-5H25.48l-2.14,5h-2.84v-2c0-.55-.45-1-1-1s-1,.45-1,1v7h-5v-7c0-.55-.45-1-1-1s-1,.45-1,1v2h-2.84Zm4.84,9v-2h5v2h-5Z"/>
  <g>
    <path class="cls-1" d="M20.46,7.01c-.82,1.65-2.5,2.79-4.46,2.79s-3.65-1.15-4.46-2.79c-.95,1.06-1.54,2.46-1.54,3.99h12c0-1.53-.58-2.93-1.54-3.99Z"/>
    <path class="cls-1" d="M16,7.8c1.65,0,3-1.35,3-3v-1.2c0-1.43-1.17-2.6-2.6-2.6h-.8c-1.43,0-2.6,1.17-2.6,2.6v1.2c0,1.65,1.35,3,3,3Z"/>
  </g>
</svg>