<?xml version="1.0" encoding="UTF-8"?>
<svg id="OBJECT" xmlns="http://www.w3.org/2000/svg" viewBox="0 0 32 32">
  <defs>
    <style>
      .cls-1 {
        fill: #FD4360;
      }

      .cls-1, .cls-2 {
        stroke-width: 0px;
      }

      .cls-2 {
        fill: #dadada;
      }
    </style>
  </defs>
  <g>
    <path class="cls-2" d="m14.06,8.02c-.55.04-.97.52-.93,1.07.04.53.48.93,1,.93.02,0,.05,0,.07,0h.17c.55-.02.99-.48.97-1.04-.02-.55-.52-.99-1.03-.97-.08,0-.17,0-.25.01Z"/>
    <path class="cls-2" d="m11.01,9.06c-1.82,1.2-2.97,3.25-3,5.34,0,.55.43,1.01.99,1.01h.01c.55,0,.99-.44,1-.99.02-1.44.83-2.86,2.1-3.7.46-.3.59-.92.29-1.38-.3-.46-.92-.59-1.38-.29Z"/>
    <path class="cls-2" d="m14.49,4.5c-.09,0-.19,0-.28,0-5.28.16-9.63,4.58-9.71,9.86-.04,3.33,1.56,6.45,4.3,8.35.17.12.37.18.57.18.11,0,.21-.02.31-.05.3-.1.53-.33.63-.63.54-1.62,2.05-2.71,3.75-2.71h.86c.14,0,.28,0,.41.02.54.03,1.03-.38,1.06-.93.03-.43-.22-.8-.59-.97l1.65-5.57c.16-.53-.14-1.09-.67-1.24-.53-.16-1.09.15-1.24.67l-1.79,6.04c-1.96.11-3.72,1.16-4.73,2.79-1.62-1.53-2.54-3.67-2.51-5.93.06-4.22,3.55-7.76,7.77-7.88.08,0,.15,0,.22,0,4.2,0,7.76,3.35,8,7.56.03.55.5.97,1.05.94.55-.03.97-.5.94-1.05-.29-5.27-4.75-9.45-10-9.45Z"/>
    <path class="cls-2" d="m14.5,1C7.06,1,1,7.06,1,14.5s6.06,13.5,13.5,13.5c.11,0,.24,0,.35-.03.54-.11.91-.64.8-1.18-.11-.54-.62-.9-1.16-.79-6.34,0-11.5-5.16-11.5-11.5S8.16,3,14.5,3s11.5,5.16,11.51,11.47c-.11.54.25,1.07.79,1.17.55.1,1.07-.25,1.17-.79.02-.11.03-.24.03-.35,0-7.44-6.06-13.5-13.5-13.5Z"/>
    <path class="cls-2" d="m14.25,20.5c-.55,0-1,.45-1,1s.45,1,1,1h.5c.55,0,1-.45,1-1s-.45-1-1-1h-.5Z"/>
  </g>
  <g>
    <path class="cls-1" d="m23.5,16c-4.14,0-7.5,3.36-7.5,7.5,0,1.27.32,2.46.87,3.5.74-1.4,1.92-2.55,3.37-3.25-.15-.39-.24-.81-.24-1.25,0-1.93,1.57-3.5,3.5-3.5s3.5,1.57,3.5,3.5c0,.44-.09.86-.24,1.25,1.45.7,2.63,1.85,3.37,3.25.56-1.05.87-2.24.87-3.5,0-4.14-3.36-7.5-7.5-7.5Z"/>
    <circle class="cls-1" cx="23.5" cy="22.5" r="1.5"/>
    <path class="cls-1" d="m25.47,25.39c-.56.38-1.24.61-1.97.61s-1.41-.23-1.97-.61c-1.57.61-2.77,1.9-3.27,3.47,1.35,1.32,3.2,2.14,5.24,2.14s3.88-.82,5.24-2.14c-.5-1.57-1.69-2.86-3.27-3.47Z"/>
  </g>
</svg>