<?xml version="1.0" encoding="UTF-8"?>
<svg id="OBJECT" xmlns="http://www.w3.org/2000/svg" viewBox="0 0 32 32">
  <defs>
    <style>
      .cls-1 {
        fill: #FD4360;
      }

      .cls-1, .cls-2 {
        stroke-width: 0px;
      }

      .cls-2 {
        fill: #dadada;
      }
    </style>
  </defs>
  <path class="cls-2" d="m30.24,25.85l-7.54-7.54c-.85-.85-2.26-.93-3.23-.25l-2.06-2.06,3.39-3.39c.7.41,1.52.63,2.4.63,1.78,0,3.77-.84,5.36-2.43,1.26-1.26,2.1-2.81,2.36-4.36.28-1.68-.13-3.17-1.16-4.2-1.03-1.03-2.52-1.44-4.2-1.16-1.55.26-3.1,1.1-4.36,2.36-2.37,2.37-3.06,5.63-1.81,7.76l-3.38,3.38-4.1-4.1h0c.76-.76,1.17-1.76,1.17-2.83s-.42-2.07-1.17-2.83l-3.54-3.54c-.39-.39-1.02-.39-1.41,0-.39.39-.39,1.02,0,1.41l3.54,3.54c.38.38.59.88.59,1.41s-.21,1.04-.59,1.41h0s-4.95-4.95-4.95-4.95c-.39-.39-1.02-.39-1.41,0s-.39,1.02,0,1.41l4.95,4.95c-.78.78-2.05.78-2.83,0l-3.54-3.54c-.39-.39-1.02-.39-1.41,0-.39.39-.39,1.02,0,1.41l3.54,3.54c.78.78,1.8,1.17,2.83,1.17s2.05-.39,2.83-1.17l4.1,4.1-1.74,1.74c-.39.39-.39,1.02,0,1.41.2.2.45.29.71.29s.51-.1.71-.29l1.74-1.74,2.06,2.06c-.71.98-.63,2.35.25,3.23l7.54,7.55c.5.5,1.16.75,1.82.75s1.32-.25,1.82-.75h0s.74-.75.74-.75c.49-.49.76-1.14.76-1.82s-.27-1.34-.76-1.82Zm-7.64-21c.97-.97,2.13-1.61,3.28-1.8.23-.04.45-.06.66-.06.74,0,1.36.23,1.79.66.56.56.78,1.43.61,2.46-.19,1.15-.83,2.31-1.8,3.28-1.88,1.88-4.5,2.42-5.73,1.19-1.23-1.23-.69-3.86,1.19-5.73Zm2.1,21.41l-4.98-4.98c-.2-.2-.2-.51,0-.71l.86-.86c.13-.13.28-.15.35-.15s.23.02.35.15l4.98,4.98-1.56,1.56Zm4.13,1.82l-.74.74c-.23.23-.59.23-.82,0l-1.15-1.15,1.56-1.56,1.15,1.15c.11.11.17.25.17.41s-.06.3-.17.41Z"/>
  <g>
    <rect class="cls-1" x="5.42" y="19.71" width="7.54" height="6.21" transform="translate(-13.44 13.18) rotate(-45)"/>
    <path class="cls-1" d="m1.76,25.85c-.49.49-.76,1.14-.76,1.82s.27,1.34.76,1.82l.74.74h0c.5.5,1.16.75,1.82.75s1.32-.25,1.82-.75l1.15-1.15-4.39-4.39-1.15,1.15Z"/>
  </g>
</svg>