<?xml version="1.0" encoding="UTF-8"?>
<svg id="OBJECT" xmlns="http://www.w3.org/2000/svg" viewBox="0 0 512 512">
  <defs>
    <style>
      .cls-1 {
        fill: #FD4360;
      }

      .cls-2 {
        fill: #dadada;
      }
    </style>
  </defs>
  <g>
    <path class="cls-2" d="M186,265h10c4.14,0,7.5-3.36,7.5-7.5s-3.36-7.5-7.5-7.5h-10c-4.14,0-7.5,3.36-7.5,7.5s3.36,7.5,7.5,7.5Z"/>
    <path class="cls-2" d="M286,357h-35v-17.5c0-12.41-10.09-22.5-22.5-22.5h-12.5v-25.16c10.6-7.74,17.5-20.24,17.5-34.34s-6.9-26.6-17.5-34.34v-50.66c0-4.14-3.36-7.5-7.5-7.5s-7.5,3.36-7.5,7.5v43.7c-3.21-.78-6.56-1.2-10-1.2s-6.79,.42-10,1.2v-43.7c0-4.14-3.36-7.5-7.5-7.5s-7.5,3.36-7.5,7.5v50.66c-10.6,7.74-17.5,20.24-17.5,34.34s6.9,26.6,17.5,34.34v25.16h-12.5c-12.41,0-22.5,10.09-22.5,22.5v17.5h-35c-12.41,0-22.5,10.09-22.5,22.5v10c0,12.41,10.09,22.5,22.5,22.5h2.81l-15.21,91.27c-.36,2.17,.25,4.4,1.68,6.08,1.42,1.68,3.52,2.65,5.72,2.65h25c3.44,0,6.44-2.34,7.28-5.68l23.58-94.32h17.22l7.45,93.1c.31,3.9,3.57,6.9,7.48,6.9h24c3.91,0,7.16-3,7.48-6.9l7.45-93.1h17.22l23.58,94.32c.83,3.34,3.83,5.68,7.28,5.68h25c2.2,0,4.3-.97,5.72-2.65,1.42-1.68,2.04-3.91,1.68-6.08l-15.21-91.27h2.81c12.41,0,22.5-10.09,22.5-22.5v-10c0-12.41-10.09-22.5-22.5-22.5Zm-57.5-25c4.14,0,7.5,3.36,7.5,7.5v17.5h-20v-25h12.5Zm-37.5-102c15.16,0,27.5,12.34,27.5,27.5s-12.34,27.5-27.5,27.5-27.5-12.34-27.5-27.5,12.34-27.5,27.5-27.5Zm0,70c3.44,0,6.79-.42,10-1.2v58.2h-20v-58.2c3.21,.78,6.56,1.2,10,1.2Zm-45,39.5c0-4.14,3.36-7.5,7.5-7.5h12.5v25h-20v-17.5Zm-35.86,157.5h-10.29l14.17-85h17.37l-21.25,85Zm85.93,0h-10.15l-6.8-85h23.75l-6.8,85Zm86.07,0h-10.29l-21.25-85h17.37l14.17,85Zm11.35-107.5c0,4.14-3.36,7.5-7.5,7.5H96c-4.14,0-7.5-3.36-7.5-7.5v-10c0-4.14,3.36-7.5,7.5-7.5h190c4.14,0,7.5,3.36,7.5,7.5v10Z"/>
  </g>
  <g>
    <path class="cls-1" d="M128.5,87.5v40c0,12.41,10.09,22.5,22.5,22.5h87.5V65h-87.5c-12.41,0-22.5,10.09-22.5,22.5Zm70,15c0-4.14,3.36-7.5,7.5-7.5s7.5,3.36,7.5,7.5v10c0,4.14-3.36,7.5-7.5,7.5s-7.5-3.36-7.5-7.5v-10Zm-30,0c0-4.14,3.36-7.5,7.5-7.5s7.5,3.36,7.5,7.5v10c0,4.14-3.36,7.5-7.5,7.5s-7.5-3.36-7.5-7.5v-10Z"/>
    <path class="cls-1" d="M358.5,0h-15V215h15c8.28,0,15-6.72,15-15V15c0-8.28-6.72-15-15-15Z"/>
    <rect class="cls-1" x="388.5" y="92.5" width="50" height="30" rx="10" ry="10"/>
    <rect class="cls-1" x="388.5" y="32.5" width="50" height="30" rx="10" ry="10"/>
    <rect class="cls-1" x="388.5" y="152.5" width="50" height="30" rx="10" ry="10"/>
    <path class="cls-1" d="M298.5,82.5v50c0,4.14,3.36,7.5,7.5,7.5h22.5V75h-22.5c-4.14,0-7.5,3.36-7.5,7.5Z"/>
    <path class="cls-1" d="M271.84,16.26l-11.66,7.77c-4.17,2.78-6.68,7.47-6.68,12.48V178.49c0,5.02,2.51,9.7,6.68,12.48l11.66,7.77c1.23,.82,2.68,1.26,4.16,1.26h52.5v-45h-22.5c-12.43,0-22.5-10.07-22.5-22.5v-50c0-12.43,10.07-22.5,22.5-22.5h22.5V15h-52.5c-1.48,0-2.93,.44-4.16,1.26Z"/>
  </g>
</svg>