<?xml version="1.0" encoding="UTF-8"?>
<svg id="OBJECT" xmlns="http://www.w3.org/2000/svg" viewBox="0 0 512 512">
  <defs>
    <style>
      .cls-1 {
        fill: #FD4360;
      }

      .cls-2 {
        fill: #dadada;
      }
    </style>
  </defs>
  <g>
    <path class="cls-2" d="M391,397c-18.11,0-33.26,12.9-36.75,30h-18.25c-6.89,0-12.5-5.61-12.5-12.5v-36.36c0-4.14-3.36-7.5-7.5-7.5s-7.5,3.36-7.5,7.5v36.36c0,15.16,12.34,27.5,27.5,27.5h18.25c3.48,17.1,18.64,30,36.75,30,20.68,0,37.5-16.82,37.5-37.5s-16.82-37.5-37.5-37.5Zm0,60c-12.41,0-22.5-10.09-22.5-22.5s10.09-22.5,22.5-22.5,22.5,10.09,22.5,22.5-10.09,22.5-22.5,22.5Z"/>
    <path class="cls-2" d="M196,370.64c-4.14,0-7.5,3.36-7.5,7.5v36.36c0,6.89-5.61,12.5-12.5,12.5h-18.25c-3.48-17.1-18.64-30-36.75-30-20.68,0-37.5,16.82-37.5,37.5s16.82,37.5,37.5,37.5c18.11,0,33.26-12.9,36.75-30h18.25c15.16,0,27.5-12.34,27.5-27.5v-36.36c0-4.14-3.36-7.5-7.5-7.5Zm-75,86.36c-12.41,0-22.5-10.09-22.5-22.5s10.09-22.5,22.5-22.5,22.5,10.09,22.5,22.5-10.09,22.5-22.5,22.5Z"/>
    <path class="cls-2" d="M444.5,145c-15.16,0-27.5,12.34-27.5,27.5s12.34,27.5,27.5,27.5,27.5-12.34,27.5-27.5-12.34-27.5-27.5-27.5Zm0,40c-6.89,0-12.5-5.61-12.5-12.5s5.61-12.5,12.5-12.5,12.5,5.61,12.5,12.5-5.61,12.5-12.5,12.5Z"/>
    <path class="cls-2" d="M67.5,145c-15.16,0-27.5,12.34-27.5,27.5s12.34,27.5,27.5,27.5,27.5-12.34,27.5-27.5-12.34-27.5-27.5-27.5Zm0,40c-6.89,0-12.5-5.61-12.5-12.5s5.61-12.5,12.5-12.5,12.5,5.61,12.5,12.5-5.61,12.5-12.5,12.5Z"/>
    <path class="cls-2" d="M449.5,110h-21.41c-3.74-33.7-32.4-60-67.09-60-2.82,0-5.65,.18-8.45,.53C330.55,18.8,294.82,0,256,0s-74.55,18.8-96.55,50.53c-2.8-.35-5.62-.53-8.45-.53-34.68,0-63.34,26.3-67.09,60h-21.41C28.04,110,0,138.04,0,172.5s28.04,62.5,62.5,62.5h47.04c8.68,73.11,71.05,130,146.46,130s137.77-56.89,146.46-130h47.04c34.46,0,62.5-28.04,62.5-62.5s-28.04-62.5-62.5-62.5Zm-193.5,240c-73.06,0-132.5-59.44-132.5-132.5s59.44-132.5,132.5-132.5,132.5,59.44,132.5,132.5-59.44,132.5-132.5,132.5Zm193.5-130h-46.03c.01-.83,.03-1.66,.03-2.5,0-81.33-66.17-147.5-147.5-147.5S108.5,136.17,108.5,217.5c0,.84,.02,1.67,.03,2.5H62.5c-26.19,0-47.5-21.31-47.5-47.5s21.31-47.5,47.5-47.5h53.5c4.14,0,7.5-3.36,7.5-7.5s-3.36-7.5-7.5-7.5h-16.96c3.65-25.41,25.55-45,51.96-45,3.54,0,7.08,.36,10.53,1.06,3.05,.62,6.17-.71,7.83-3.33,18.93-29.88,51.33-47.72,86.64-47.72s67.71,17.84,86.64,47.72c1.67,2.63,4.78,3.96,7.83,3.33,3.44-.7,6.98-1.06,10.53-1.06,26.4,0,48.3,19.59,51.96,45h-16.96c-4.14,0-7.5,3.36-7.5,7.5s3.36,7.5,7.5,7.5h53.5c26.19,0,47.5,21.31,47.5,47.5s-21.31,47.5-47.5,47.5Z"/>
  </g>
  <g>
    <path class="cls-1" d="M263.5,437.75v-49.61c0-4.14-3.36-7.5-7.5-7.5s-7.5,3.36-7.5,7.5v49.61c-17.1,3.48-30,18.64-30,36.75,0,20.68,16.82,37.5,37.5,37.5s37.5-16.82,37.5-37.5c0-18.11-12.9-33.26-30-36.75Z"/>
    <path class="cls-1" d="M253.56,180.08c-19.55,1.26-35.06,17.56-35.06,37.42s16.82,37.5,37.5,37.5c16.96,0,31.41-11.18,35.99-26.9-21.61-5.95-37.32-25.21-38.43-48.02Z"/>
    <path class="cls-1" d="M373.11,215.12c-17.01-50.92-64.08-85.12-117.11-85.12s-100.1,34.21-117.11,85.12c-.52,1.54-.52,3.21,0,4.75,17.01,50.92,64.08,85.12,117.11,85.12s100.1-34.21,117.11-85.12c.52-1.54,.52-3.21,0-4.75Zm-64.9,7.83c-2.77,26.82-25.22,47.04-52.22,47.04-28.95,0-52.5-23.55-52.5-52.5s23.55-52.5,52.5-52.5c1.97,0,4.02,.12,6.11,.36,4.08,.47,7.02,4.14,6.6,8.22-.13,1.31-.2,2.62-.2,3.92,0,19.04,14.24,35.04,33.12,37.24,4.08,.47,7.02,4.14,6.59,8.22Z"/>
  </g>
</svg>