<?xml version="1.0" encoding="UTF-8"?>
<svg id="OBJECT" xmlns="http://www.w3.org/2000/svg" viewBox="0 0 512 512">
  <defs>
    <style>
      .cls-1 {
        fill: #FD4360;
      }

      .cls-2 {
        fill: #dadada;
      }
    </style>
  </defs>
  <g>
    <path class="cls-2" d="M151,358.5c-12.41,0-22.5,10.09-22.5,22.5v10c0,12.41,10.09,22.5,22.5,22.5h120c12.41,0,22.5-10.09,22.5-22.5v-10c0-12.41-10.09-22.5-22.5-22.5h-120Zm127.5,22.5v10c0,4.14-3.36,7.5-7.5,7.5h-120c-4.14,0-7.5-3.36-7.5-7.5v-10c0-4.14,3.36-7.5,7.5-7.5h120c4.14,0,7.5,3.36,7.5,7.5Z"/>
    <path class="cls-2" d="M166,482h10c4.14,0,7.5-3.36,7.5-7.5s-3.36-7.5-7.5-7.5h-10c-4.14,0-7.5,3.36-7.5,7.5s3.36,7.5,7.5,7.5Z"/>
    <path class="cls-2" d="M206,482h10c4.14,0,7.5-3.36,7.5-7.5s-3.36-7.5-7.5-7.5h-10c-4.14,0-7.5,3.36-7.5,7.5s3.36,7.5,7.5,7.5Z"/>
    <path class="cls-2" d="M246,482h10c4.14,0,7.5-3.36,7.5-7.5s-3.36-7.5-7.5-7.5h-10c-4.14,0-7.5,3.36-7.5,7.5s3.36,7.5,7.5,7.5Z"/>
    <path class="cls-2" d="M341,65c4.14,0,7.5-3.36,7.5-7.5V22.5c0-12.41-10.09-22.5-22.5-22.5H96c-12.41,0-22.5,10.09-22.5,22.5V489.5c0,12.41,10.09,22.5,22.5,22.5h230c12.41,0,22.5-10.09,22.5-22.5v-142c0-4.14-3.36-7.5-7.5-7.5s-7.5,3.36-7.5,7.5v89.5H88.5V22.5c0-4.14,3.36-7.5,7.5-7.5h42.5v12.5c0,12.41,10.09,22.5,22.5,22.5h100c12.41,0,22.5-10.09,22.5-22.5V15h42.5c4.14,0,7.5,3.36,7.5,7.5V57.5c0,4.14,3.36,7.5,7.5,7.5Zm-7.5,387v37.5c0,4.14-3.36,7.5-7.5,7.5H96c-4.14,0-7.5-3.36-7.5-7.5v-37.5h245ZM268.5,27.5c0,4.14-3.36,7.5-7.5,7.5h-100c-4.14,0-7.5-3.36-7.5-7.5V15h115v12.5Z"/>
  </g>
  <g>
    <path class="cls-1" d="M276,130c-49.16,0-94.57,28.34-116.67,72.5,22.1,44.16,67.51,72.5,116.67,72.5s94.57-28.34,116.67-72.5c-22.1-44.16-67.51-72.5-116.67-72.5Zm0,130c-31.71,0-57.5-25.79-57.5-57.5s25.79-57.5,57.5-57.5c3.87,0,7.75,.39,11.52,1.16,3.44,.7,5.93,3.69,6,7.2,.39,19.71,14.67,36.86,33.95,40.79,3.44,.7,5.93,3.69,6,7.2v.29c.02,.29,.03,.58,.03,.87,0,31.71-25.79,57.5-57.5,57.5Z"/>
    <path class="cls-1" d="M279.03,160.11c-1.01-.07-2.02-.11-3.03-.11-23.43,0-42.5,19.07-42.5,42.5s19.07,42.5,42.5,42.5c21.85,0,39.9-16.57,42.24-37.8-20.85-6.81-36.27-25.33-39.22-47.09Z"/>
    <path class="cls-1" d="M416,80H136c-12.41,0-22.5,10.09-22.5,22.5v200c0,12.41,10.09,22.5,22.5,22.5H416c12.41,0,22.5-10.09,22.5-22.5V102.5c0-12.41-10.09-22.5-22.5-22.5Zm-8.21,125.68c-11.61,24.84-29.85,45.88-52.76,60.83-23.54,15.37-50.87,23.49-79.03,23.49s-55.49-8.12-79.03-23.49c-22.91-14.96-41.15-35.99-52.76-60.83-.94-2.01-.94-4.34,0-6.35,11.61-24.84,29.85-45.88,52.76-60.83,23.54-15.37,50.87-23.49,79.03-23.49s55.49,8.12,79.03,23.49c22.91,14.96,41.15,35.99,52.76,60.83,.94,2.01,.94,4.34,0,6.35Z"/>
  </g>
</svg>