<?xml version="1.0" encoding="UTF-8"?>
<svg id="OBJECT" xmlns="http://www.w3.org/2000/svg" viewBox="0 0 32 32">
  <defs>
    <style>
      .cls-1 {
        fill: #FD4360;
      }

      .cls-1, .cls-2 {
        stroke-width: 0px;
      }

      .cls-2 {
        fill: #dadada;
      }
    </style>
  </defs>
  <path class="cls-1" d="m17.5,27.33h-3c-.28,0-.5.22-.5.5v3.09c.65.04,1.32.08,2,.08s1.35-.03,2-.08v-3.09c0-.28-.22-.5-.5-.5Z"/>
  <path class="cls-1" d="m16,24c-6.66,0-12.19-2.03-15-5.15v4.15c0,3.74,4.59,6.8,11,7.71v-2.88c0-1.38,1.12-2.5,2.5-2.5h3c1.38,0,2.5,1.12,2.5,2.5v2.88c6.41-.91,11-3.97,11-7.71v-4.15c-2.81,3.12-8.34,5.15-15,5.15Z"/>
  <path class="cls-2" d="m25.01,7.57v-.66l5.17-.93c.42-.08.75-.42.81-.84.06-.43-.16-.84-.54-1.04l-5.99-3c-.31-.15-.68-.14-.97.04-.29.18-.47.5-.47.85v4.9c-1.81-.5-3.84-.8-6.01-.88V2c0-.55-.45-1-1-1s-1,.45-1,1v4.03c-2.17.07-4.2.38-6,.87V2c0-.35-.18-.67-.47-.85-.29-.18-.67-.2-.97-.04L1.56,4.11c-.39.19-.6.61-.54,1.04.06.43.39.77.81.84l5.17.93v.66c-3.66,1.45-6,3.76-6,6.43,0,4.49,6.59,8,15,8s15-3.51,15-8c0-2.67-2.34-4.98-5.99-6.43Zm0-3.95l1.86.93-1.86.33v-1.26Zm-19.86.93l1.86-.93v1.26l-1.86-.33Zm.42,12.96c2.47-1.56,6.31-2.51,10.43-2.51s7.97.94,10.43,2.51c-2.27,1.44-5.92,2.49-10.43,2.49s-8.16-1.05-10.43-2.49Zm22.46-1.31c-2.79-2-7.19-3.19-12.03-3.19s-9.24,1.19-12.03,3.19c-.63-.71-.97-1.46-.97-2.19,0-2.9,5.22-6,13-6s13,3.1,13,6c0,.74-.34,1.48-.97,2.19Z"/>
</svg>