<?xml version="1.0" encoding="UTF-8"?>
<svg id="OBJECT" xmlns="http://www.w3.org/2000/svg" viewBox="0 0 32 32">
  <defs>
    <style>
      .cls-1 {
        fill: #FD4360;
      }

      .cls-1, .cls-2 {
        stroke-width: 0px;
      }

      .cls-2 {
        fill: #dadada;
      }
    </style>
  </defs>
  <g>
    <path class="cls-2" d="m12.5,7c.55,0,1-.45,1-1s-.45-1-1-1h-1c-.55,0-1,.45-1,1s.45,1,1,1h1Z"/>
    <path class="cls-2" d="m22,29h-1v-4c0-.55-.45-1-1-1h-2.5v-2.5c0-1.38-1.12-2.5-2.5-2.5v-8.13c0-.52.2-1.02.55-1.37.94-.94,1.45-2.19,1.45-3.51,0-1.53-.69-2.96-1.89-3.92-1.2-.96-2.77-1.3-4.29-.95-1.79.42-3.23,1.84-3.66,3.62-.43,1.75.07,3.54,1.34,4.78.32.32.51.8.51,1.33v8.13c-1.38,0-2.5,1.12-2.5,2.5v2.5h-2.5c-.55,0-1,.45-1,1v4h-1c-.55,0-1,.45-1,1s.45,1,1,1h20c.55,0,1-.45,1-1s-.45-1-1-1ZM9.89,8.11c-.77-.76-1.06-1.81-.8-2.88.25-1.04,1.13-1.91,2.17-2.15.94-.22,1.86-.02,2.6.56.72.57,1.14,1.43,1.14,2.35,0,.79-.31,1.53-.87,2.09-.73.73-1.13,1.72-1.13,2.78v8.13h-2v-8.13c0-1.06-.4-2.07-1.11-2.76Zm-1.39,13.39c0-.28.22-.5.5-.5h6c.28,0,.5.22.5.5v2.5h-7v-2.5Zm-3.5,4.5h14v3H5v-3Z"/>
  </g>
  <path class="cls-1" d="m24.5,6.5c-3.58,0-6.5,2.92-6.5,6.5s2.92,6.5,6.5,6.5,6.5-2.92,6.5-6.5-2.92-6.5-6.5-6.5Zm3.21,5.68l-3.04,3.04c-.2.2-.45.29-.71.29s-.51-.1-.71-.29l-1.96-1.96c-.39-.39-.39-1.02,0-1.41s1.02-.39,1.41,0l1.25,1.25,2.34-2.34c.39-.39,1.02-.39,1.41,0s.39,1.02,0,1.41Z"/>
</svg>