<?xml version="1.0" encoding="UTF-8"?>
<svg id="OBJECT" xmlns="http://www.w3.org/2000/svg" viewBox="0 0 32 32">
  <defs>
    <style>
      .cls-1 {
        fill: #FD4360;
      }

      .cls-1, .cls-2 {
        stroke-width: 0px;
      }

      .cls-2 {
        fill: #dadada;
      }
    </style>
  </defs>
  <g>
    <path class="cls-2" d="m13,7c.55,0,1-.45,1-1s-.45-1-1-1h-1c-.55,0-1,.45-1,1s.45,1,1,1h1Z"/>
    <path class="cls-2" d="m23,29h-1.5v-3c0-.55-.45-1-1-1h-1.72l-.81-3.24c-.11-.45-.51-.76-.97-.76h-1.5v-9.67l.9-1.2c.39-.52.6-1.16.6-1.8v-4.33c0-1.65-1.35-3-3-3h-3c-1.65,0-3,1.35-3,3v4.33c0,.64.21,1.28.6,1.8l.9,1.2v9.67h-1.5c-.46,0-.86.31-.97.76l-.81,3.24h-1.72c-.55,0-1,.45-1,1v3h-1.5c-.55,0-1,.45-1,1s.45,1,1,1h21c.55,0,1-.45,1-1s-.45-1-1-1ZM11.3,10.4l-1.1-1.47c-.13-.17-.2-.39-.2-.6v-4.33c0-.55.45-1,1-1h3c.55,0,1,.45,1,1v4.33c0,.21-.07.43-.2.6l-1.1,1.47c-.13.17-.2.38-.2.6v10h-2v-10c0-.22-.07-.43-.2-.6Zm-2.52,12.6h7.44l.5,2h-8.44l.5-2Zm-3.28,4h14v2H5.5v-2Z"/>
  </g>
  <g>
    <path class="cls-1" d="m24,8c-3.86,0-7,3.14-7,7,0,1.17.29,2.27.8,3.24.68-1.3,1.76-2.37,3.1-3.04-.13-.35-.21-.73-.21-1.12,0-1.82,1.48-3.31,3.31-3.31s3.31,1.48,3.31,3.31c0,.4-.08.77-.21,1.12,1.34.67,2.42,1.74,3.1,3.04.51-.97.8-2.07.8-3.24,0-3.86-3.14-7-7-7Z"/>
    <path class="cls-1" d="m25.31,14.08c0-.72-.59-1.31-1.31-1.31s-1.31.59-1.31,1.31.59,1.31,1.31,1.31,1.31-.59,1.31-1.31Z"/>
    <path class="cls-1" d="m25.83,16.83c-.52.35-1.15.55-1.83.55s-1.3-.21-1.83-.55c-1.45.57-2.54,1.79-2.96,3.26,1.25,1.18,2.94,1.91,4.79,1.91s3.54-.73,4.79-1.91c-.43-1.47-1.51-2.69-2.96-3.26Z"/>
  </g>
</svg>