<?xml version="1.0" encoding="UTF-8"?>
<svg id="OBJECT" xmlns="http://www.w3.org/2000/svg" viewBox="0 0 32 32">
  <defs>
    <style>
      .cls-1 {
        fill: #FD4360;
      }

      .cls-1, .cls-2 {
        stroke-width: 0px;
      }

      .cls-2 {
        fill: #dadada;
      }
    </style>
  </defs>
  <path class="cls-1" d="m23.5,11.27v-5.36c-4.91,1.34-10.09,1.34-15,0v5.36c4.94,1.12,10.06,1.12,15,0Z"/>
  <path class="cls-1" d="m16,14.12c-2.51,0-5.03-.28-7.5-.8v4.67c2.45.62,4.96.95,7.5.95s5.05-.33,7.5-.95v-4.67c-2.47.53-4.99.8-7.5.8Z"/>
  <g>
    <path class="cls-2" d="m4,1h-.5c-1.38,0-2.5,1.12-2.5,2.5v26.5c0,.55.45,1,1,1h3.5c.55,0,1-.45,1-1V3.5c0-1.38-1.12-2.5-2.5-2.5Zm.5,28h-1.5V3.5c0-.28.22-.5.5-.5h.5c.28,0,.5.22.5.5v25.5Z"/>
    <path class="cls-2" d="m28.5,1h-.5c-1.38,0-2.5,1.12-2.5,2.5v26.5c0,.55.45,1,1,1h3.5c.55,0,1-.45,1-1V3.5c0-1.38-1.12-2.5-2.5-2.5Zm.5,28h-1.5V3.5c0-.28.22-.5.5-.5h.5c.28,0,.5.22.5.5v25.5Z"/>
  </g>
</svg>