<?xml version="1.0" encoding="UTF-8"?>
<svg id="OBJECT" xmlns="http://www.w3.org/2000/svg" viewBox="0 0 512 512">
  <defs>
    <style>
      .cls-1 {
        fill: #FD4360;
      }

      .cls-2 {
        fill: #dadada;
      }
    </style>
  </defs>
  <g>
    <path class="cls-2" d="M81.7,399.2c-1.98-1.98-4.88-2.69-7.55-1.85-16.03,5.03-30.98,14.17-43.21,26.4C9.04,445.65-2.37,475.96,.41,504.84c.34,3.57,3.17,6.4,6.75,6.75,2.87,.28,5.75,.41,8.64,.41,26.18,0,52.72-11.22,72.44-30.93,12.24-12.24,21.37-27.18,26.4-43.21,.84-2.67,.12-5.57-1.85-7.55l-31.1-31.1Zm-4.06,71.26c-17.13,17.13-40.12,26.8-62.64,26.54-.25-22.5,9.41-45.5,26.54-62.64,9.44-9.44,20.73-16.73,32.86-21.25l24.48,24.48c-4.52,12.13-11.8,23.42-21.25,32.86Z"/>
    <path class="cls-2" d="M509.8,2.2c-1.43-1.43-3.41-2.22-5.41-2.2l-98.13,1.37c-54.36,.76-105.48,22.35-143.92,60.79l-4.57,4.57c-14.6,14.6-26.91,31.25-36.59,49.49l-13.26,24.99-54.68-5.08c-12.89-1.2-25.68,3.21-35.09,12.1L49.35,213.25c-1.84,1.74-2.68,4.28-2.23,6.77,.45,2.49,2.12,4.59,4.44,5.58l39.51,16.84c.94,.4,1.94,.6,2.94,.6,1.25,0,2.51-.31,3.63-.94l57.83-32,14.7,2.25-29.72,56c-4.66,8.79-3.07,19.42,3.97,26.46l2.33,2.33-24.77,24.77-5.45-5.45c-10.24-10.24-26.9-10.24-37.14,0l-22.11,22.11c-1.41,1.41-2.2,3.31-2.2,5.3s.79,3.9,2.2,5.3l106.13,106.13c1.46,1.46,3.38,2.2,5.3,2.2s3.84-.73,5.3-2.2l22.11-22.11c4.96-4.96,7.69-11.56,7.69-18.57s-2.73-13.61-7.69-18.57l-6.05-6.05,24.77-24.77,2.33,2.33c4.35,4.35,10.07,6.62,15.88,6.62,3.59,0,7.22-.87,10.58-2.65l56-29.72,2.25,14.7-32,57.83c-1.12,2.02-1.24,4.45-.34,6.57l16.84,39.51c.99,2.33,3.09,4,5.58,4.44,.44,.08,.88,.12,1.32,.12,2.04,0,4.02-.84,5.45-2.35l65.02-68.81c8.89-9.41,13.3-22.2,12.1-35.09l-5.08-54.68,24.99-13.26c18.24-9.68,34.89-21.99,49.49-36.59l4.57-4.57c38.44-38.45,60.03-89.56,60.79-143.92l1.37-98.13c.03-2.03-.76-3.98-2.2-5.41ZM155.21,194.89c-1.64-.25-3.32,.05-4.77,.85l-56.86,31.46-25.61-10.91,60.49-57.16c6.27-5.93,14.8-8.87,23.4-8.07l48.45,4.5-22.69,42.76-22.41-3.44Zm30.31,227.72l-16.81,16.81-95.53-95.53,16.81-16.81c4.39-4.39,11.54-4.39,15.93,0l79.6,79.6c2.13,2.13,3.3,4.95,3.3,7.96s-1.17,5.84-3.3,7.96Zm-6.05-43.19l-46.88-46.88,24.77-24.77,46.88,46.88-24.77,24.77Zm173.4,4.13l-57.16,60.49-10.91-25.61,31.46-56.86c.8-1.45,1.1-3.13,.85-4.77l-3.44-22.41,42.76-22.69,4.5,48.45c.8,8.6-2.14,17.12-8.07,23.4Zm86.37-144.49l-4.57,4.57c-13.55,13.55-28.99,24.97-45.92,33.95l-152.14,80.73c-2.93,1.55-6.47,1.02-8.82-1.32l-72.76-72.76c-2.35-2.34-2.88-5.89-1.32-8.82L234.44,123.25c8.98-16.92,20.4-32.37,33.95-45.92l4.57-4.57c29.77-29.77,67.72-48.63,108.78-54.47,51.78,19.53,92.44,60.18,111.97,111.97-5.84,41.06-24.7,79.02-54.47,108.78Zm56.49-140.27c-19.02-34.88-47.63-63.48-82.5-82.5l83.67-1.17-1.17,83.67Z"/>
  </g>
  <g>
    <circle class="cls-1" cx="371.83" cy="140.17" r="23.77"/>
    <path class="cls-1" d="M333.1,141.63c-9.48-4.26-19.59-6.42-30.11-6.42s-19.67,2.03-28.43,5.7c-.24,2.67-.37,5.37-.37,8.1,0,48.96,39.84,88.8,88.8,88.8,2.73,0,5.43-.13,8.1-.37,3.67-8.75,5.7-18.36,5.7-28.43s-2.16-20.63-6.42-30.11c-20.22-.75-36.51-17.05-37.27-37.27Z"/>
    <path class="cls-1" d="M362.99,60.21c-40.23,0-74.29,26.89-85.16,63.64,7.98-2.36,16.43-3.64,25.16-3.64,11.15,0,22.26,2.14,32.6,6.21,5.56-14.61,19.71-25.03,36.25-25.03,21.38,0,38.77,17.39,38.77,38.77,0,16.54-10.41,30.69-25.03,36.25,4.08,10.34,6.21,21.45,6.21,32.6,0,8.74-1.27,17.18-3.64,25.16,36.75-10.88,63.64-44.94,63.64-85.16,0-48.97-39.84-88.8-88.8-88.8Z"/>
    <path class="cls-1" d="M279.13,225.13l-20.75,.66c-7.34,.23-14.24,3.22-19.43,8.42l-44.88,44.88c-2.93,2.93-2.93,7.68,0,10.61l28.24,28.24c1.46,1.46,3.38,2.2,5.3,2.2s3.84-.73,5.3-2.2l44.88-44.88c5.19-5.19,8.18-12.09,8.42-19.43l.66-20.75c.07-2.07-.73-4.08-2.19-5.54s-3.48-2.26-5.54-2.19Z"/>
  </g>
</svg>