<?xml version="1.0" encoding="UTF-8"?>
<svg id="OBJECT" xmlns="http://www.w3.org/2000/svg" viewBox="0 0 512 512">
  <defs>
    <style>
      .cls-1 {
        fill: #FD4360;
      }

      .cls-2 {
        fill: #dadada;
      }
    </style>
  </defs>
  <g>
    <path class="cls-2" d="M111.88,359.17c-1.83-1.83-4.47-2.59-6.99-2-24.59,5.67-47.14,18.21-65.2,36.27C10.06,423.08-4.04,463.54,1.01,504.47c.42,3.42,3.11,6.1,6.52,6.53,5.47,.67,10.92,1.01,16.34,1.01,35.19,0,69.01-14.02,94.69-39.69,18.06-18.06,30.61-40.61,36.27-65.2,.58-2.52-.18-5.16-2.01-6.99l-40.95-40.95Zm-3.93,102.53c-24.91,24.91-58.38,37.46-92.64,34.99-2.49-34.26,10.08-67.74,34.99-92.64,15.09-15.09,33.68-25.84,53.97-31.27l34.95,34.95c-5.43,20.29-16.18,38.88-31.27,53.97Z"/>
    <path class="cls-2" d="M509.23,9.29c-.42-3.41-3.11-6.1-6.52-6.53-55.68-6.87-113.46-.88-167.1,17.31-56.23,19.07-106.3,50.3-148.83,92.83-11.78,11.78-22.75,24.27-32.85,37.34l-61.27-4.76c-17.83-1.38-34.9,8.57-42.46,24.79l-29.74,63.78c-.98,2.09-.93,4.52,.12,6.58,1.05,2.06,2.99,3.52,5.26,3.96l69.41,13.45c-3.5,9.97-6.59,20.1-9.25,30.36-2.23,8.6,.31,17.87,6.63,24.2l106.79,106.79c4.81,4.81,11.32,7.43,17.94,7.43,2.09,0,4.19-.26,6.25-.8,10.26-2.66,20.38-5.75,30.36-9.25l13.45,69.41c.44,2.27,1.9,4.21,3.96,5.25,1.07,.54,2.24,.82,3.41,.82,1.08,0,2.16-.23,3.17-.7l63.78-29.74c16.21-7.56,26.18-24.62,24.79-42.46l-4.76-61.27c13.08-10.1,25.56-21.07,37.34-32.85,42.52-42.53,73.76-92.6,92.83-148.83,18.19-53.64,24.18-111.42,17.31-167.1ZM38.11,231.69l25.68-55.08c4.93-10.58,16.07-17.06,27.7-16.17l51.95,4.04c-17.37,24.73-31.77,51.35-42.86,79.31l-62.47-12.1Zm181.73,179.8c-3.48,.9-7.24-.14-9.82-2.72,0,0,0,0,0,0l-106.79-106.79c-2.58-2.58-3.62-6.34-2.72-9.82,4.79-18.46,11.03-36.48,18.62-53.92l154.63,154.63c-17.44,7.59-35.46,13.83-53.92,18.62Zm115.55,36.71l-55.08,25.68-12.1-62.47c27.96-11.1,54.59-25.49,79.31-42.86l4.04,51.95c.9,11.64-5.59,22.77-16.17,27.7Zm53.1-133.59c-29.44,29.44-63.36,53.59-100.21,71.57L125.82,223.72c17.98-36.85,42.13-70.77,71.57-100.21,48.79-48.79,108.28-82.17,172.29-98.03,25.13,12.45,48,28.88,67.98,48.86,19.99,19.99,36.42,42.87,48.87,68-15.86,64-49.25,123.49-98.04,172.27Zm102.88-194.92c-11.84-20.36-26.28-39.13-43.11-55.96-16.82-16.82-35.59-31.26-55.95-43.1,20.99-3.79,42.38-5.73,63.96-5.73,12.86,0,25.8,.69,38.75,2.07,3.71,34.68,2.39,69.2-3.65,102.72Z"/>
    <path class="cls-2" d="M135.61,283.94c-2.93-2.93-7.68-2.93-10.61,0-2.93,2.93-2.93,7.68,0,10.61l8.4,8.4c1.46,1.46,3.38,2.2,5.3,2.2s3.84-.73,5.3-2.2c2.93-2.93,2.93-7.68,0-10.61l-8.4-8.4Z"/>
    <path class="cls-2" d="M177.64,325.96c-2.93-2.93-7.68-2.93-10.61,0-2.93,2.93-2.93,7.68,0,10.61l8.4,8.41c1.46,1.46,3.38,2.2,5.3,2.2s3.84-.73,5.3-2.2c2.93-2.93,2.93-7.68,0-10.61l-8.4-8.41Z"/>
    <path class="cls-2" d="M228.06,376.39l-8.4-8.4c-2.93-2.93-7.68-2.93-10.61,0-2.93,2.93-2.93,7.68,0,10.61l8.4,8.4c1.46,1.46,3.38,2.2,5.3,2.2s3.84-.73,5.3-2.2c2.93-2.93,2.93-7.68,0-10.61Z"/>
  </g>
  <g>
    <path class="cls-1" d="M212.94,190.41c-.47,3.89-.72,7.86-.72,11.87,0,53.76,43.74,97.5,97.5,97.5,4.02,0,7.98-.25,11.87-.72,4.46-10.14,6.96-21.34,6.96-33.11,0-16.08-4.6-31.56-13.31-44.93-11.49-3.69-20.57-12.78-24.26-24.26-13.38-8.71-28.85-13.31-44.93-13.31-11.77,0-22.97,2.5-33.11,6.96Z"/>
    <path class="cls-1" d="M309.72,104.78c-43.55,0-80.51,28.7-92.99,68.18,9.26-2.93,19.11-4.51,29.32-4.51,15.35,0,30.23,3.55,43.72,10.34,3.1-17.58,18.47-30.98,36.92-30.98,20.68,0,37.5,16.82,37.5,37.5,0,18.45-13.4,33.82-30.98,36.92,6.79,13.49,10.34,28.37,10.34,43.72,0,10.21-1.58,20.06-4.51,29.32,39.48-12.48,68.18-49.44,68.18-92.99,0-53.76-43.74-97.5-97.5-97.5Z"/>
    <circle class="cls-1" cx="326.69" cy="185.31" r="22.5"/>
  </g>
</svg>