<?xml version="1.0" encoding="UTF-8"?>
<svg id="OBJECT" xmlns="http://www.w3.org/2000/svg" viewBox="0 0 32 32">
  <defs>
    <style>
      .cls-1 {
        fill: #FD4360;
      }

      .cls-1, .cls-2 {
        stroke-width: 0px;
      }

      .cls-2 {
        fill: #dadada;
      }
    </style>
  </defs>
  <path class="cls-2" d="m24.96,18.12c5.07-6.91,5.99-15.51,6.04-16.02.03-.3-.08-.59-.29-.8-.21-.21-.5-.32-.8-.29-.51.05-9.11.97-16.02,6.04l-3.38-.7c-1.62-.33-3.29.24-4.37,1.49L1.24,13.53c-.25.3-.31.72-.15,1.07.16.35.52.58.91.58h0l5.1-.02c-.14.31-.28.61-.41.93-.15.37-.06.79.22,1.08l7.91,7.91c.19.19.45.29.71.29.12,0,.25-.02.37-.07.32-.13.62-.27.93-.41l-.02,5.1c0,.39.23.75.58.91.13.06.28.09.42.09.23,0,.47-.08.65-.24l5.69-4.89c1.25-1.08,1.83-2.75,1.49-4.37l-.7-3.38Zm-5.08,2.48l-8.48-8.48C16.68,5.82,25.53,3.75,28.82,3.18c-.56,3.29-2.62,12.14-8.94,17.42Zm-15.7-7.43l3.46-4.03c.6-.7,1.54-1.02,2.45-.84l1.79.37c-1.39,1.28-2.66,2.76-3.71,4.48l-3.99.02Zm11.59,10.02l-6.96-6.96c.39-.89.87-1.71,1.39-2.48l8.06,8.06c-.78.51-1.59.99-2.48,1.39Zm7.08,1.16l-4.03,3.46.02-3.99c1.72-1.05,3.21-2.32,4.48-3.71l.37,1.79c.19.91-.13,1.85-.84,2.45Z"/>
  <g>
    <path class="cls-1" d="m7.84,21.27c-.26-.26-.64-.34-.98-.2C1.74,23.1,1.03,29.72,1,30c-.03.27.07.54.26.73.17.17.4.27.64.27.03,0,.06,0,.09,0,.28-.03,6.9-.73,8.94-5.86.13-.34.05-.72-.2-.98l-2.89-2.89Z"/>
    <path class="cls-1" d="m24.14,6.86h-2.37c-.9,0-1.75.35-2.38.99l-2.66,2.65c-.64.64-.99,1.48-.99,2.38s.35,1.75.99,2.38h0c.66.66,1.52.98,2.38.98s1.73-.33,2.38-.98l2.66-2.66c.64-.64.99-1.48.99-2.38v-2.37c0-.55-.45-1-1-1Z"/>
  </g>
</svg>