<?xml version="1.0" encoding="UTF-8"?>
<svg id="OBJECT" xmlns="http://www.w3.org/2000/svg" viewBox="0 0 512 512">
  <defs>
    <style>
      .cls-1 {
        fill: #FD4360;
      }

      .cls-2 {
        fill: #dadada;
      }
    </style>
  </defs>
  <g>
    <path class="cls-2" d="M111.35,339c-8.22-8.22-21.61-8.77-30.47-1.25l-56.19,47.68c-4.21,3.57-5.58,9.39-3.4,14.46,2.18,5.08,7.33,8.09,12.82,7.5l24.42-2.63L4.47,476.34c-6.66,8.82-5.79,21.35,2.02,29.17,4.3,4.3,10.02,6.49,15.77,6.49,4.71,0,9.43-1.47,13.4-4.47l71.57-54.07-2.63,24.42c-.59,5.49,2.42,10.65,7.5,12.82,5.08,2.18,10.89,.81,14.46-3.4l47.68-56.19c7.52-8.86,6.98-22.25-1.25-30.47l-61.65-61.65Zm51.46,82.41l-42.42,49.99,3.61-33.57c.32-2.97-1.16-5.85-3.76-7.33-2.6-1.47-5.83-1.26-8.22,.54L26.62,495.56c-2.88,2.17-6.97,1.89-9.52-.66-2.55-2.55-2.83-6.64-.66-9.52l64.52-85.4c1.8-2.39,2.02-5.62,.54-8.22-1.34-2.37-3.84-3.8-6.52-3.8-.27,0-.54,.01-.8,.04l-33.57,3.61,49.99-42.42h0c2.95-2.51,7.42-2.32,10.16,.42l61.65,61.65c2.74,2.74,2.92,7.2,.41,10.16Z"/>
    <path class="cls-2" d="M478.4,153.83c33.67-81.02,33.61-143.75,33.59-146.38-.03-4.1-3.35-7.42-7.45-7.45-2.65-.02-65.38-.07-146.38,33.59-47.52,19.75-91.4,47.08-130.44,81.24-7.13,6.24-14.09,12.71-20.9,19.41l-73.62-21.82c-11.14-3.3-23.29-.4-31.74,7.57L9.35,206.96c-1.84,1.74-2.68,4.3-2.23,6.8,.45,2.5,2.14,4.59,4.48,5.58l54.16,22.71c.93,.39,1.92,.58,2.9,.58,1.58,0,3.15-.5,4.47-1.48l57.9-42.92,15.07,7.88c-14.87,21.12-28.55,43.67-40.97,67.57-4.53,8.72-2.89,19.27,4.08,26.24l102.88,102.88c4.35,4.35,10.08,6.62,15.89,6.62,3.52,0,7.06-.83,10.35-2.54,23.9-12.42,46.45-26.1,67.57-40.97l7.88,15.07-42.92,57.9c-1.58,2.13-1.92,4.93-.89,7.37l22.71,54.16c.98,2.34,3.08,4.03,5.58,4.48,.45,.08,.9,.12,1.34,.12,2.04,0,4.02-.84,5.45-2.35l86.96-92.12c7.97-8.44,10.87-20.6,7.57-31.73l-21.82-73.62c6.69-6.8,13.17-13.77,19.41-20.9,34.16-39.04,61.49-82.93,81.24-130.44ZM496.72,15.28c-.87,15.2-4.47,51.51-19.12,97.25l-78.13-78.13c45.74-14.66,82.05-18.25,97.25-19.12ZM133.81,182.75c-2.54-1.33-5.63-1.09-7.94,.62l-58.24,43.18-39.59-16.6,83.74-79.04c4.57-4.31,11.15-5.89,17.18-4.1l65.98,19.55c-14.07,14.82-27.4,30.66-39.93,47.46l-21.19-11.07Zm97.61,210.81c-2.89,1.5-6.39,.95-8.72-1.38l-102.88-102.88c-2.33-2.33-2.88-5.83-1.38-8.72,4.94-9.51,10.03-18.66,15.23-27.49l125.23,125.23c-8.83,5.2-17.98,10.29-27.49,15.23Zm153.78-10.51c1.79,6.02,.21,12.61-4.1,17.18l-79.04,83.74-16.6-39.59,43.18-58.24c1.71-2.31,1.95-5.39,.62-7.94l-11.07-21.19c16.8-12.53,32.64-25.86,47.46-39.93l19.55,65.98Zm-113.09-12.74L141.69,239.9c69.14-110.34,156.96-165.21,221.6-192.19,6.93-2.89,13.72-5.51,20.36-7.92l88.56,88.56c-2.4,6.64-5.02,13.43-7.92,20.36-26.98,64.63-81.85,152.46-192.19,221.59Z"/>
  </g>
  <g>
    <path class="cls-1" d="M308.5,118.5c-40.57,0-74.58,28.58-82.99,66.66,10.15-4.29,21.29-6.66,32.99-6.66,8.31,0,16.45,1.2,24.3,3.54,4.85-15.09,19.02-26.04,35.7-26.04,20.68,0,37.5,16.82,37.5,37.5,0,14.65-8.45,27.35-20.72,33.52,5.4,11.35,8.22,23.79,8.22,36.48,0,6.3-.71,12.43-2.01,18.34,30.53-12.91,52.01-43.16,52.01-78.34,0-46.87-38.13-85-85-85Z"/>
    <path class="cls-1" d="M223.52,202.91c0,.2-.02,.39-.02,.59,0,46.87,38.13,85,85,85,5.45,0,10.77-.54,15.94-1.52,2.62-7.34,4.06-15.25,4.06-23.48,0-11.39-2.76-22.55-8.03-32.55-.65,.03-1.31,.05-1.97,.05-19.4,0-35.41-14.81-37.31-33.72-7.28-2.5-14.89-3.78-22.69-3.78-12.74,0-24.68,3.44-34.98,9.41Z"/>
    <circle class="cls-1" cx="318.5" cy="193.5" r="22.5"/>
  </g>
</svg>