<?xml version="1.0" encoding="UTF-8"?>
<svg id="OBJECT" xmlns="http://www.w3.org/2000/svg" viewBox="0 0 32 32">
  <defs>
    <style>
      .cls-1 {
        fill: #FD4360;
      }

      .cls-1, .cls-2 {
        stroke-width: 0px;
      }

      .cls-2 {
        fill: #dadada;
      }
    </style>
  </defs>
  <g>
    <path class="cls-2" d="m28,1H10c-1.65,0-3,1.35-3,3v9h-3c-1.65,0-3,1.35-3,3v3c0,1.65,1.35,3,3,3h18c1.65,0,3-1.35,3-3v-.5h3c1.65,0,3-1.35,3-3V4c0-1.65-1.35-3-3-3Zm-5,18c0,.55-.45,1-1,1H4c-.55,0-1-.45-1-1v-3c0-.55.45-1,1-1h18c.55,0,1,.45,1,1v3Zm6-3.5c0,.55-.45,1-1,1h-3v-.5c0-1.65-1.35-3-3-3h-13V4c0-.55.45-1,1-1h18c.55,0,1,.45,1,1v11.5Z"/>
    <path class="cls-2" d="m6,16.5h-1c-.55,0-1,.45-1,1s.45,1,1,1h1c.55,0,1-.45,1-1s-.45-1-1-1Z"/>
    <path class="cls-2" d="m10,16.5h-1c-.55,0-1,.45-1,1s.45,1,1,1h1c.55,0,1-.45,1-1s-.45-1-1-1Z"/>
    <path class="cls-2" d="m21,16.5h-7c-.55,0-1,.45-1,1s.45,1,1,1h7c.55,0,1-.45,1-1s-.45-1-1-1Z"/>
    <path class="cls-2" d="m25.5,4h-4.33c-.55,0-1,.45-1,1s.45,1,1,1h1.92l-2.66,2.66-1.51-2.11c-.32-.44-.94-.55-1.39-.24l-5.6,3.93c-.45.32-.56.94-.24,1.39.19.28.5.43.82.43.2,0,.4-.06.57-.18l4.79-3.36,1.62,2.26c.17.24.44.39.73.41s.58-.08.79-.29l3.49-3.49v1.92c0,.55.45,1,1,1s1-.45,1-1v-4.33c0-.55-.45-1-1-1Z"/>
  </g>
  <path class="cls-1" d="m24,24H2c-.55,0-1,.45-1,1v5c0,.55.45,1,1,1h22c.55,0,1-.45,1-1v-5c0-.55-.45-1-1-1Zm-18,4.5h-1c-.55,0-1-.45-1-1s.45-1,1-1h1c.55,0,1,.45,1,1s-.45,1-1,1Zm4,0h-1c-.55,0-1-.45-1-1s.45-1,1-1h1c.55,0,1,.45,1,1s-.45,1-1,1Zm11,0h-7c-.55,0-1-.45-1-1s.45-1,1-1h7c.55,0,1,.45,1,1s-.45,1-1,1Z"/>
</svg>