<?xml version="1.0" encoding="UTF-8"?>
<svg id="OBJECT" xmlns="http://www.w3.org/2000/svg" viewBox="0 0 32 32">
  <defs>
    <style>
      .cls-1 {
        fill: #FD4360;
      }

      .cls-1, .cls-2 {
        stroke-width: 0px;
      }

      .cls-2 {
        fill: #dadada;
      }
    </style>
  </defs>
  <g>
    <path class="cls-2" d="m27,20h-11V2c0-.55-.45-1-1-1H7c-.55,0-1,.45-1,1v18h-1c-.55,0-1,.45-1,1v7c0,1.65,1.35,3,3,3h18c1.65,0,3-1.35,3-3v-7c0-.55-.45-1-1-1Zm-19-1.5h1c.55,0,1-.45,1-1s-.45-1-1-1h-1v-2h3c.55,0,1-.45,1-1s-.45-1-1-1h-3v-2h1c.55,0,1-.45,1-1s-.45-1-1-1h-1v-2h3c.55,0,1-.45,1-1s-.45-1-1-1h-3v-1.5h6v17h-6v-1.5Zm18,9.5c0,.55-.45,1-1,1H7c-.55,0-1-.45-1-1v-6h20v6Z"/>
    <path class="cls-2" d="m8,26.5h1c.55,0,1-.45,1-1s-.45-1-1-1h-1c-.55,0-1,.45-1,1s.45,1,1,1Z"/>
    <path class="cls-2" d="m13,26.5h1c.55,0,1-.45,1-1s-.45-1-1-1h-1c-.55,0-1,.45-1,1s.45,1,1,1Z"/>
    <path class="cls-2" d="m18,26.5h1c.55,0,1-.45,1-1s-.45-1-1-1h-1c-.55,0-1,.45-1,1s.45,1,1,1Z"/>
    <path class="cls-2" d="m23,26.5h1c.55,0,1-.45,1-1s-.45-1-1-1h-1c-.55,0-1,.45-1,1s.45,1,1,1Z"/>
  </g>
  <g>
    <path class="cls-1" d="m24.5,8.22h-.5v-1.22h-6v11h6v-7.78h.5c.28,0,.5.22.5.5v3.5c0,.55.45,1,1,1s1-.45,1-1v-3.5c0-1.38-1.12-2.5-2.5-2.5Z"/>
    <path class="cls-1" d="m22.75,2.5c0-.83-.67-1.5-1.5-1.5h-.5c-.83,0-1.5.67-1.5,1.5v2.5h3.5v-2.5Z"/>
  </g>
</svg>