<?xml version="1.0" encoding="UTF-8"?>
<svg id="OBJECT" xmlns="http://www.w3.org/2000/svg" viewBox="0 0 32 32">
  <defs>
    <style>
      .cls-1 {
        fill: #FD4360;
      }

      .cls-1, .cls-2 {
        stroke-width: 0px;
      }

      .cls-2 {
        fill: #dadada;
      }
    </style>
  </defs>
  <g>
    <path class="cls-2" d="m24.5,5h-11.5v-1c0-1.65-1.35-3-3-3h-1c-1.65,0-3,1.35-3,3v1h-2.5c-1.38,0-2.5,1.12-2.5,2.5v17c0,1.38,1.12,2.5,2.5,2.5h16.5c.27,0,.52-.11.71-.29l6-6c.19-.19.29-.44.29-.71V7.5c0-1.38-1.12-2.5-2.5-2.5Zm-16.5-1c0-.55.45-1,1-1h1c.55,0,1,.45,1,1v1h-3v-1ZM3,24.5V7.5c0-.28.22-.5.5-.5h2.5v2.5c0,1.65,1.35,3,3,3h2c.55,0,1-.45,1-1s-.45-1-1-1h-2c-.55,0-1-.45-1-1v-2.5h16.5c.28,0,.5.22.5.5v11.5h-3.5c-1.38,0-2.5,1.12-2.5,2.5v3.5H3.5c-.28,0-.5-.22-.5-.5Zm20.59-3.5l-2.59,2.59v-2.09c0-.28.22-.5.5-.5h2.09Z"/>
    <path class="cls-2" d="m16,12.5h6c.55,0,1-.45,1-1s-.45-1-1-1h-6c-.55,0-1,.45-1,1s.45,1,1,1Z"/>
    <path class="cls-2" d="m10,17h12c.55,0,1-.45,1-1s-.45-1-1-1h-12c-.55,0-1,.45-1,1s.45,1,1,1Z"/>
    <path class="cls-2" d="m6,17h.5c.55,0,1-.45,1-1s-.45-1-1-1h-.5c-.55,0-1,.45-1,1s.45,1,1,1Z"/>
    <path class="cls-2" d="m16,19.5H6c-.55,0-1,.45-1,1s.45,1,1,1h10c.55,0,1-.45,1-1s-.45-1-1-1Z"/>
  </g>
  <path class="cls-1" d="m29,9.05v10.95c0,.8-.31,1.55-.88,2.12l-6,6c-.57.57-1.32.88-2.12.88H5.05c.23,1.14,1.24,2,2.45,2h21c1.38,0,2.5-1.12,2.5-2.5V11.5c0-1.21-.86-2.22-2-2.45Z"/>
</svg>