<?xml version="1.0" encoding="UTF-8"?>
<svg id="OBJECT" xmlns="http://www.w3.org/2000/svg" viewBox="0 0 32 32">
  <defs>
    <style>
      .cls-1 {
        fill: #FD4360;
      }

      .cls-1, .cls-2 {
        stroke-width: 0px;
      }

      .cls-2 {
        fill: #dadada;
      }
    </style>
  </defs>
  <path class="cls-2" d="m30.71,6.24l-4.95-4.95c-.39-.39-1.02-.39-1.41,0s-.39,1.02,0,1.41l.35.35-1.3,1.3c-2.28-1.49-4.99-2.36-7.9-2.36C7.5,2,1,8.5,1,16.5s6.5,14.5,14.5,14.5,14.5-6.5,14.5-14.5c0-2.91-.87-5.62-2.36-7.9l1.3-1.3.35.35c.2.2.45.29.71.29s.51-.1.71-.29c.39-.39.39-1.02,0-1.41Zm-15.21,22.76c-6.89,0-12.5-5.61-12.5-12.5S8.61,4,15.5,4s12.5,5.61,12.5,12.5-5.61,12.5-12.5,12.5ZM26.42,6.99c-.44-.5-.91-.98-1.41-1.41l1.1-1.1,1.41,1.41-1.1,1.1Z"/>
  <g>
    <circle class="cls-1" cx="15.5" cy="16.5" r="1.68"/>
    <path class="cls-1" d="m15.5,5c-6.34,0-11.5,5.16-11.5,11.5s5.16,11.5,11.5,11.5,11.5-5.16,11.5-11.5-5.16-11.5-11.5-11.5Zm-3.09,18.41c-.19.31-.52.47-.85.47-.18,0-.36-.05-.53-.15-2.53-1.57-4.04-4.27-4.04-7.23,0-4.69,3.81-8.5,8.5-8.5.55,0,1,.45,1,1s-.45,1-1,1c-3.58,0-6.5,2.92-6.5,6.5,0,2.27,1.15,4.33,3.09,5.53.47.29.61.91.32,1.38Zm3.09,1.59h-.31c-.55-.02-.99-.49-.97-1.04s.49-1.02,1.03-.97h.24c.55,0,1,.45,1,1s-.45,1-1,1Zm7.5-7.5h-3.98c-.44,1.54-1.84,2.68-3.52,2.68-2.03,0-3.68-1.65-3.68-3.68s1.65-3.68,3.68-3.68c1.68,0,3.08,1.14,3.52,2.68h3.98c.55,0,1,.45,1,1s-.45,1-1,1Z"/>
  </g>
</svg>