<?xml version="1.0" encoding="UTF-8"?>
<svg id="OBJECT" xmlns="http://www.w3.org/2000/svg" viewBox="0 0 32 32">
  <defs>
    <style>
      .cls-1 {
        fill: #FD4360;
      }

      .cls-2 {
        fill: #dadada;
      }
    </style>
  </defs>
  <path class="cls-2" d="m31,9c0-4.41-3.59-8-8-8-3.37,0-6.31,2.09-7.47,5.18-.66-.11-1.34-.18-2.03-.18C6.61,6,1,11.61,1,18.5s5.61,12.5,12.5,12.5,12.5-5.61,12.5-12.5c0-.69-.07-1.37-.18-2.03,3.09-1.16,5.18-4.1,5.18-7.47ZM13.5,29c-5.79,0-10.5-4.71-10.5-10.5s4.71-10.5,10.5-10.5,10.5,4.71,10.5,10.5-4.71,10.5-10.5,10.5Zm10.38-19.94l-1.1,1.1c-.3-.33-.61-.65-.94-.94l1.1-1.1.94.94Zm1.46,5.45c-.33-.98-.78-1.9-1.33-2.75l1.28-1.29.08.08c.2.2.45.29.71.29s.51-.1.71-.29c.39-.39.39-1.02,0-1.41l-3.93-3.93c-.39-.39-1.02-.39-1.41,0s-.39,1.02,0,1.41l.08.08-1.29,1.28c-.85-.55-1.78-1-2.75-1.33.92-2.2,3.07-3.66,5.52-3.66,3.31,0,6,2.69,6,6,0,2.44-1.47,4.59-3.66,5.52Z"/>
  <g>
    <path class="cls-1" d="m13.5,12.28c.55,0,1-.45,1-1v-.56c0-.55-.45-1-1-1s-1,.45-1,1v.56c0,.55.45,1,1,1Z"/>
    <path class="cls-1" d="m13.5,24.72c-.55,0-1,.45-1,1v.56c0,.55.45,1,1,1s1-.45,1-1v-.56c0-.55-.45-1-1-1Z"/>
    <path class="cls-1" d="m21.28,17.5h-.56c-.55,0-1,.45-1,1s.45,1,1,1h.56c.55,0,1-.45,1-1s-.45-1-1-1Z"/>
    <path class="cls-1" d="m6.28,17.5h-.56c-.55,0-1,.45-1,1s.45,1,1,1h.56c.55,0,1-.45,1-1s-.45-1-1-1Z"/>
    <path class="cls-1" d="m11.73,16.73c-.98.97-.98,2.56,0,3.54.49.49,1.13.73,1.77.73s1.28-.24,1.77-.73c.98-.97.98-2.56,0-3.54-.98-.98-2.56-.98-3.54,0Z"/>
    <path class="cls-1" d="m17.52,13.06l-1.63,1.63c.28.18.55.38.79.62.24.24.44.51.62.79l1.63-1.63c.39-.39.39-1.02,0-1.41s-1.02-.39-1.41,0Z"/>
  </g>
</svg>