<?xml version="1.0" encoding="UTF-8"?>
<svg id="OBJECT" xmlns="http://www.w3.org/2000/svg" viewBox="0 0 512 512">
  <defs>
    <style>
      .cls-1 {
        fill: #FD4360;
      }

      .cls-2 {
        fill: #dadada;
      }
    </style>
  </defs>
  <g>
    <path class="cls-2" d="M304.5,344.5c22.06,0,40-17.94,40-40,0-3.19-.39-6.28-1.09-9.26l42.8-34.78c5.95-4.83,10.36-11.23,12.75-18.51l7.37-22.41c1.59-4.82,.34-10.04-3.25-13.63-3.59-3.59-8.81-4.83-13.63-3.25l-22.41,7.37c-7.28,2.39-13.68,6.8-18.51,12.75l-34.78,42.8c-2.97-.71-6.07-1.09-9.26-1.09-22.06,0-40,17.94-40,40s17.94,40,40,40Zm55.67-112.25c3.02-3.71,7.01-6.46,11.56-7.96l19.34-6.36-6.36,19.34c-1.49,4.54-4.25,8.54-7.96,11.55l-39.8,32.33c-2.53-3.51-5.61-6.59-9.11-9.11l32.33-39.8Zm-55.67,47.25c13.79,0,25,11.21,25,25s-11.21,25-25,25-25-11.21-25-25,11.21-25,25-25Z"/>
    <path class="cls-2" d="M304.5,182c4.14,0,7.5-3.36,7.5-7.5v-10c0-4.14-3.36-7.5-7.5-7.5s-7.5,3.36-7.5,7.5v10c0,4.14,3.36,7.5,7.5,7.5Z"/>
    <path class="cls-2" d="M304.5,427c-4.14,0-7.5,3.36-7.5,7.5v10c0,4.14,3.36,7.5,7.5,7.5s7.5-3.36,7.5-7.5v-10c0-4.14-3.36-7.5-7.5-7.5Z"/>
    <path class="cls-2" d="M434.5,312h10c4.14,0,7.5-3.36,7.5-7.5s-3.36-7.5-7.5-7.5h-10c-4.14,0-7.5,3.36-7.5,7.5s3.36,7.5,7.5,7.5Z"/>
    <path class="cls-2" d="M430.25,139.57l17.01-24.29c3.45-4.92,4.77-10.89,3.73-16.81-1.04-5.92-4.33-11.08-9.25-14.52l-4.1-2.87c-10.16-7.12-24.22-4.64-31.34,5.53l-19.28,27.54c-15.76-6.86-32.53-11.82-50.02-14.58v-34.55h27.5c4.14,0,7.5-3.36,7.5-7.5V22.5c0-12.41-10.09-22.5-22.5-22.5h-90c-12.41,0-22.5,10.09-22.5,22.5V57.5c0,4.14,3.36,7.5,7.5,7.5h27.5v34.56c-17.42,2.76-34.2,7.72-50.01,14.59l-19.3-27.56c-7.12-10.16-21.17-12.64-31.34-5.53l-4.1,2.87c-4.92,3.45-8.21,8.6-9.25,14.52-1.04,5.92,.28,11.89,3.73,16.81l16.99,24.27c-38.03,28.99-66.01,70.94-76.84,120.04C43.82,271.47,0,322.96,0,384.5c0,70.3,57.2,127.5,127.5,127.5,28.81,0,55.41-9.61,76.79-25.78,30.56,16.88,65.1,25.78,100.21,25.78,114.42,0,207.5-93.08,207.5-207.5,0-67.18-32.1-126.99-81.75-164.93Zm-11.66-44.37c2.37-3.39,7.06-4.21,10.45-1.84l4.1,2.87c1.64,1.15,2.74,2.87,3.08,4.84,.35,1.97-.09,3.96-1.24,5.6l-16.96,24.22c-5.58-3.66-11.35-7.06-17.29-10.18l17.86-25.51ZM252,22.5c0-4.14,3.36-7.5,7.5-7.5h90c4.14,0,7.5,3.36,7.5,7.5v27.5h-105V22.5Zm35,42.5h35v32.74c-5.77-.48-11.61-.74-17.5-.74s-11.72,.26-17.5,.74v-32.74Zm-112.98,41.67c-1.15-1.64-1.59-3.63-1.24-5.6,.35-1.97,1.44-3.69,3.08-4.84l4.1-2.87c3.39-2.37,8.07-1.55,10.45,1.84l17.87,25.52c-5.93,3.11-11.71,6.51-17.3,10.17l-16.96-24.21ZM15,384.5c0-62.03,50.47-112.5,112.5-112.5s112.5,50.47,112.5,112.5-50.47,112.5-112.5,112.5S15,446.53,15,384.5Zm133.54-125.75c20.15-69.15,83.13-116.75,155.96-116.75,89.6,0,162.5,72.9,162.5,162.5s-72.9,162.5-162.5,162.5c-23.75,0-47.34-5.26-68.73-15.24,12.18-19.54,19.23-42.59,19.23-67.26,0-63.14-46.13-115.69-106.46-125.75Zm155.96,238.25c-30.7,0-60.91-7.35-88.01-21.29,3.71-3.63,7.21-7.47,10.46-11.53,24.02,11.67,50.69,17.82,77.54,17.82,97.87,0,177.5-79.63,177.5-177.5s-79.63-177.5-177.5-177.5c-40.17,0-79.53,13.8-110.83,38.85-29.14,23.33-50.37,55.56-60.26,91.29-1.96-.09-3.93-.14-5.91-.14-3.25,0-6.47,.12-9.66,.36,21.32-84.83,98.22-145.36,186.66-145.36,106.14,0,192.5,86.35,192.5,192.5s-86.36,192.5-192.5,192.5Z"/>
  </g>
  <g>
    <circle class="cls-1" cx="127.5" cy="357" r="27.5"/>
    <path class="cls-1" d="M49.35,412.11c11.28-14.11,26.26-24.93,43.01-31.24-4.64-6.81-7.36-15.03-7.36-23.87,0-23.43,19.07-42.5,42.5-42.5s42.5,19.07,42.5,42.5c0,8.84-2.72,17.06-7.36,23.87,16.76,6.31,31.74,17.14,43.01,31.24,4.32,5.41,8.04,11.24,11.13,17.39,6.85-13.53,10.71-28.82,10.71-45,0-55.14-44.86-100-100-100s-100,44.86-100,100c0,16.18,3.87,31.47,10.71,45,3.09-6.14,6.81-11.98,11.13-17.39Z"/>
    <path class="cls-1" d="M150.56,392.67c-6.65,4.31-14.56,6.83-23.06,6.83s-16.41-2.52-23.06-6.83c-26.72,7.48-47.4,27.16-56.64,52.15,18.28,24.09,47.2,39.67,79.7,39.67s61.42-15.59,79.7-39.67c-9.24-24.99-29.92-44.67-56.64-52.15Z"/>
  </g>
</svg>