<?xml version="1.0" encoding="UTF-8"?>
<svg id="OBJECT" xmlns="http://www.w3.org/2000/svg" viewBox="0 0 32 32">
  <defs>
    <style>
      .cls-1 {
        fill: #FD4360;
      }

      .cls-1, .cls-2 {
        stroke-width: 0px;
      }

      .cls-2 {
        fill: #dadada;
      }
    </style>
  </defs>
  <g>
    <path class="cls-1" d="m15.33,18.33s0,0,0,0c.21-.21.34-.51.34-.83,0-.65-.53-1.18-1.18-1.18,0,0,0,0,0,0s0,0,0,0c-.65,0-1.18.53-1.18,1.18s.53,1.18,1.18,1.18c.32,0,.62-.13.83-.34,0,0,0,0,0,0Z"/>
    <path class="cls-1" d="m14.5,8c-5.24,0-9.5,4.26-9.5,9.5s4.26,9.5,9.5,9.5,9.5-4.26,9.5-9.5-4.26-9.5-9.5-9.5Zm3.64,13.14c-.2.2-.45.29-.71.29s-.51-.1-.71-.29l-.8-.8c-.43.22-.91.35-1.42.35-1.75,0-3.18-1.43-3.18-3.18,0-1.4.92-2.58,2.18-3.01v-1.41c0-.55.45-1,1-1s1,.45,1,1v1.41c1.26.42,2.18,1.6,2.18,3.01,0,.51-.13.99-.35,1.42l.8.8c.39.39.39,1.02,0,1.41Z"/>
  </g>
  <path class="cls-2" d="m30,13.01h-2.78c-.34-.95-.77-1.85-1.3-2.69l1.67-1.67.71.71c.2.2.45.29.71.29s.51-.1.71-.29c.39-.39.39-1.02,0-1.41l-5.66-5.66c-.39-.39-1.02-.39-1.41,0s-.39,1.02,0,1.41l.71.71-1.67,1.67c-.79-.5-1.63-.91-2.52-1.24v-2.84c0-.55-.45-1-1-1h-3.41c-.55,0-1,.45-1,1v2.04c-7.09.4-12.74,6.28-12.74,13.46s6.06,13.5,13.5,13.5,12.97-5.56,13.45-12.57h2.05c.55,0,1-.45,1-1v-3.41c0-.55-.45-1-1-1Zm-5.24-7.18l1.41,1.41-1.46,1.46c-.44-.51-.91-.98-1.41-1.41l1.46-1.46Zm-7.61-2.83v1.26c-.46-.09-.93-.16-1.41-.2v-1.06h1.41Zm-2.65,26c-6.34,0-11.5-5.16-11.5-11.5S8.16,6,14.5,6s11.5,5.16,11.5,11.5-5.16,11.5-11.5,11.5Zm14.5-12.57h-1.05c-.04-.48-.1-.95-.19-1.41h1.24v1.41Z"/>
</svg>