<?xml version="1.0" encoding="UTF-8"?>
<svg id="OBJECT" xmlns="http://www.w3.org/2000/svg" viewBox="0 0 32 32">
  <defs>
    <style>
      .cls-1 {
        fill: #FD4360;
      }

      .cls-1, .cls-2 {
        stroke-width: 0px;
      }

      .cls-2 {
        fill: #dadada;
      }
    </style>
  </defs>
  <polygon class="cls-1" points="19.26 1 17 1 17 10 21.36 10 19.26 1"/>
  <polygon class="cls-1" points="15 10 15 1 12.74 1 10.64 10 15 10"/>
  <path class="cls-1" d="m30.54,10L24.83,1.45c-.19-.28-.5-.45-.83-.45h-2.69l2.1,9h7.13Z"/>
  <path class="cls-1" d="m10.69,1h-2.69c-.33,0-.65.17-.83.45L1.46,10h7.13L10.69,1Z"/>
  <g>
    <path class="cls-2" d="m30,29h-1V13c0-.55-.45-1-1-1s-1,.45-1,1v16h-3v-8c0-.55-.45-1-1-1h-14c-.55,0-1,.45-1,1v8h-3V13c0-.55-.45-1-1-1s-1,.45-1,1v16h-1c-.55,0-1,.45-1,1s.45,1,1,1h28c.55,0,1-.45,1-1s-.45-1-1-1Zm-8,0h-5v-7h5v7Zm-12-7h5v7h-5v-7Z"/>
    <path class="cls-2" d="m11,17h10c.55,0,1-.45,1-1s-.45-1-1-1h-10c-.55,0-1,.45-1,1s.45,1,1,1Z"/>
  </g>
</svg>