<?xml version="1.0" encoding="UTF-8" standalone="no"?>
<svg
   id="OBJECT"
   viewBox="0 0 32 32"
   version="1.1"
   sodipodi:docname="Story.svg"
   inkscape:version="1.2.2 (732a01da63, 2022-12-09)"
   xml:space="preserve"
   xmlns:inkscape="http://www.inkscape.org/namespaces/inkscape"
   xmlns:sodipodi="http://sodipodi.sourceforge.net/DTD/sodipodi-0.dtd"
   xmlns="http://www.w3.org/2000/svg"
   xmlns:svg="http://www.w3.org/2000/svg"><sodipodi:namedview
     id="namedview153"
     pagecolor="#505050"
     bordercolor="#ffffff"
     borderopacity="1"
     inkscape:showpageshadow="0"
     inkscape:pageopacity="0"
     inkscape:pagecheckerboard="1"
     inkscape:deskcolor="#505050"
     showgrid="false"
     inkscape:zoom="2.8284273"
     inkscape:cx="-99.525273"
     inkscape:cy="93.691643"
     inkscape:window-width="1920"
     inkscape:window-height="1009"
     inkscape:window-x="-8"
     inkscape:window-y="-8"
     inkscape:window-maximized="1"
     inkscape:current-layer="OBJECT" /><defs
     id="defs140"><style
       id="style138">
      .cls-1 {
        fill: #FD4360;
      }

      .cls-1, .cls-2 {
        stroke-width: 0px;
      }

      .cls-2 {
        fill: #dadada;
      }
    </style></defs><path
     id="path2920"
     style="fill:#fe4360;fill-opacity:1;stroke-width:0.192106"
     d="M 15.966217,3.4349832 A 12.366776,12.366776 0 0 0 3.6001723,15.801028 12.366776,12.366776 0 0 0 14.794021,28.083215 c -0.09065,-0.21046 -0.187818,-0.417819 -0.283682,-0.58699 -0.343153,-0.605565 -0.847478,-1.008054 -0.847478,-1.008054 0,0 0.484243,-0.424668 0.90814,-1.13116 0.423894,-0.706492 0.242646,-0.847477 0.242646,-0.847477 h 1.796654 c 0,0 0.05915,0.887466 0.563795,1.311361 0.504638,0.423894 0.626243,0.667276 0.626243,0.667276 0,0 -0.68687,0.4232 -1.009838,1.311362 -0.04932,0.135631 -0.0716,0.199472 -0.114181,0.317581 A 12.366776,12.366776 0 0 0 28.332261,15.801028 12.366776,12.366776 0 0 0 15.966217,3.4349832 Z" /><path
     style="fill:#dadada;fill-opacity:1;stroke-width:0.182698"
     d="m 14.84498,23.920407 c 0,0 -2.038737,-1.675399 -2.725045,-3.532465 -0.686307,-1.857068 -0.645936,-2.321334 -0.645936,-2.321334 0,0 -0.02523,-0.676216 -0.01513,-0.782189 0.01007,-0.105978 0.07569,-0.216995 0.07569,-0.216995 0,0 0.12111,0.721633 0.570241,1.216178 0.449127,0.494545 0.893208,0.595473 0.893208,0.595473 0,0 -0.873023,-0.873024 -1.049647,-1.675399 -0.176623,-0.802374 1.339374,-5.637834 1.339374,-5.637834 0,0 0.670846,-2.2837302 0.913492,-2.8261166 0.242646,-0.5423852 1.341692,-3.9251616 1.341692,-3.9251616 0,0 0.371106,-0.5994792 0.756485,0.042815 0.385379,0.6422992 3.154403,9.3490212 3.354229,10.1197812 0.199827,0.770758 0.271193,2.226637 0.242646,2.28373 -0.02855,0.05709 -0.120988,0.487791 -0.560018,0.916734 -0.439036,0.428941 -0.953766,0.650982 -0.953766,0.650982 0,0 0.968905,0.146345 1.367568,-0.721632 0.398664,-0.867977 0.479406,-0.943673 0.479406,-0.943673 0,0 0.449128,1.529052 -0.560148,3.265007 -1.009276,1.735954 -1.412986,2.34152 -1.93781,2.866344 -0.524822,0.524822 -0.726678,0.645936 -0.726678,0.645936 z"
     id="path2336" /><rect
     style="fill:#fe4360;fill-opacity:1;stroke-width:0.171375"
     id="rect2444"
     width="0.39965281"
     height="19.240129"
     x="15.714193"
     y="4.6861038"
     ry="0.078318752" /><path
     style="fill:#dadada;fill-opacity:1;stroke-width:0.182698"
     d="m 15.17872,29.153608 c 0,0 -0.363337,-1.090018 -0.706493,-1.695584 -0.343153,-0.605566 -0.84779,-1.009276 -0.84779,-1.009276 0,0 0.484452,-0.423897 0.908348,-1.130388 0.423895,-0.706494 0.242226,-0.847792 0.242226,-0.847792 h 1.796511 c 0,0 0.06055,0.888163 0.565194,1.312058 0.504638,0.423896 0.625751,0.666122 0.625751,0.666122 0,0 -0.686308,0.423896 -1.009276,1.312059 -0.322968,0.888162 -0.504637,1.412986 -0.504637,1.412986 z"
     id="path2922" /><rect
     style="fill:#fe4360;fill-opacity:1;stroke-width:0.0691487"
     id="rect2928"
     width="0.39965281"
     height="3.1324365"
     x="15.509171"
     y="26.029697"
     ry="0.012750878" /><path
     id="path2930"
     style="fill:none;fill-opacity:1;stroke:#dadada;stroke-width:0.147442;stroke-opacity:1"
     d="M 15.965764,2.7824045 A 12.993332,12.993332 0 0 0 2.9734773,15.776473 12.993332,12.993332 0 0 0 15.027294,28.70096 c -0.137628,-0.367763 -0.335482,-0.861225 -0.529897,-1.20431 -0.343153,-0.605566 -0.847478,-1.009838 -0.847478,-1.009838 0,0 0.484243,-0.422884 0.90814,-1.129376 0.423895,-0.706492 0.240861,-0.847477 0.240861,-0.847477 h 1.796655 c 0,0 0.06094,0.887466 0.565579,1.311361 0.504638,0.423895 0.626243,0.665492 0.626243,0.665492 0,0 -0.68687,0.424984 -1.009838,1.313145 -0.145376,0.399785 -0.250985,0.697081 -0.335423,0.934903 A 12.993332,12.993332 0 0 0 28.959833,15.776473 12.993332,12.993332 0 0 0 15.965764,2.7824045 Z" /></svg>
