<?xml version="1.0" encoding="UTF-8"?>
<svg id="OBJECT" xmlns="http://www.w3.org/2000/svg" viewBox="0 0 32 32">
  <defs>
    <style>
      .cls-1 {
        fill: #FD4360;
      }

      .cls-1, .cls-2 {
        stroke-width: 0px;
      }

      .cls-2 {
        fill: #dadada;
      }
    </style>
  </defs>
  <path class="cls-2" d="m30,29h-1v-15.84c0-.55-.45-1-1-1s-1,.45-1,1v15.84h-5v-10c0-1.65-1.35-3-3-3h-6c-1.65,0-3,1.35-3,3v10h-5v-15.84c0-.55-.45-1-1-1s-1,.45-1,1v15.84h-1c-.55,0-1,.45-1,1s.45,1,1,1h28c.55,0,1-.45,1-1s-.45-1-1-1Zm-17-11h6c.55,0,1,.45,1,1v6h-8v-6c0-.55.45-1,1-1Zm-1,9h8v2h-8v-2Z"/>
  <path class="cls-1" d="m30,1H2c-.55,0-1,.45-1,1v3.33c0,3.12,2.54,5.67,5.67,5.67,1.93,0,3.64-.98,4.67-2.46,1.02,1.48,2.73,2.46,4.67,2.46s3.64-.98,4.67-2.46c1.02,1.48,2.73,2.46,4.67,2.46,3.12,0,5.67-2.54,5.67-5.67v-3.33c0-.55-.45-1-1-1Z"/>
</svg>