<?xml version="1.0" encoding="UTF-8"?>
<svg id="OBJECT" xmlns="http://www.w3.org/2000/svg" viewBox="0 0 32 32">
  <defs>
    <style>
      .cls-1 {
        fill: #FD4360;
      }

      .cls-1, .cls-2 {
        stroke-width: 0px;
      }

      .cls-2 {
        fill: #dadada;
      }
    </style>
  </defs>
  <g>
    <path class="cls-2" d="m12,21.25c-.55,0-1,.45-1,1v2c0,.55.45,1,1,1s1-.45,1-1v-2c0-.55-.45-1-1-1Z"/>
    <path class="cls-2" d="m30,29h-.5v-14.63c0-.55-.45-1-1-1s-1,.45-1,1v1.13h-8c-.55,0-1,.45-1,1v9c0,.55.45,1,1,1h8v2.5h-11.5v-12.5c0-.55-.45-1-1-1H7c-.55,0-1,.45-1,1v12.5h-1.5v-14.63c0-.55-.45-1-1-1s-1,.45-1,1v14.63h-.5c-.55,0-1,.45-1,1s.45,1,1,1h28c.55,0,1-.45,1-1s-.45-1-1-1Zm-9.5-4.5v-7h7v7h-7Zm-12.5-7h6v11.5h-6v-11.5Z"/>
  </g>
  <g>
    <path class="cls-1" d="m28.89,1.55c-.17-.34-.52-.55-.89-.55H4c-.38,0-.73.21-.89.55l-1.72,3.45h29.24l-1.72-3.45Z"/>
    <path class="cls-1" d="m1,7v.5c0,2.48,2.02,4.5,4.5,4.5,1.41,0,2.67-.65,3.5-1.67.83,1.02,2.09,1.67,3.5,1.67s2.67-.65,3.5-1.67c.83,1.02,2.09,1.67,3.5,1.67s2.67-.65,3.5-1.67c.83,1.02,2.09,1.67,3.5,1.67,2.48,0,4.5-2.02,4.5-4.5v-.5H1Z"/>
  </g>
</svg>