<?xml version="1.0" encoding="UTF-8"?>
<svg id="OBJECT" xmlns="http://www.w3.org/2000/svg" viewBox="0 0 32 32">
  <defs>
    <style>
      .cls-1 {
        fill: #FD4360;
      }

      .cls-1, .cls-2 {
        stroke-width: 0px;
      }

      .cls-2 {
        fill: #dadada;
      }
    </style>
  </defs>
  <g>
    <path class="cls-2" d="m28.5,7c-.55,0-1,.45-1,1v17H4.5V8c0-.55-.45-1-1-1s-1,.45-1,1v18c0,.55.45,1,1,1h11.5v3c0,.55.45,1,1,1s1-.45,1-1v-3h11.5c.55,0,1-.45,1-1V8c0-.55-.45-1-1-1Z"/>
    <path class="cls-2" d="m8.5,18h3c0,.48.35.9.82.98l1.18.21v2.3c0,1.38,1.12,2.5,2.5,2.5h.61c.91,0,1.75-.5,2.19-1.3l1.27-2.31,2.43.44v.17c0,.55.45,1,1,1s1-.45,1-1v-12c0-.55-.45-1-1-1s-1,.45-1,1v.17l-10.18,1.85c-.48.09-.82.5-.82.98h-3c-.55,0-1,.45-1,1v4c0,.55.45,1,1,1Zm8.55,3.74c-.09.16-.26.26-.44.26h-.61c-.28,0-.5-.22-.5-.5v-1.94l2.5.45-.95,1.73Zm-3.55-8.91l4.09-.74v2.91c0,.55.45,1,1,1s1-.45,1-1v-3.27l2.91-.53v7.6l-9-1.64v-4.33Zm-4,1.17h2v2h-2v-2Z"/>
  </g>
  <path class="cls-1" d="m1,3v2h30v-2c0-1.1-.9-2-2-2H3c-1.1,0-2,.9-2,2Z"/>
</svg>