<?xml version="1.0" encoding="UTF-8"?>
<svg id="OBJECT" xmlns="http://www.w3.org/2000/svg" viewBox="0 0 32 32">
  <defs>
    <style>
      .cls-1 {
        fill: #FD4360;
      }

      .cls-2 {
        fill: #dadada;
      }
    </style>
  </defs>
  <g>
    <path class="cls-2" d="M26.99,17.98l-.55-4.97c-.44-4.02-3.37-7.26-7.24-8.16v-.35c0-1.93-1.57-3.5-3.5-3.5h-1.5c-.55,0-1,.45-1,1v3.04l-2.35,.83c-1.2,.42-2.01,1.56-2.01,2.83v.82l-4.29,2.14c-.39,.2-.61,.63-.54,1.06l.25,1.51c.21,1.23,.95,2.27,2.05,2.86,1.1,.59,2.38,.64,3.52,.14l1.57-.7v1.84l-1.8,1.32c-.77,.56-1.22,1.47-1.22,2.42v2.88c0,.55,.45,1,1,1s1-.45,1-1v-2.88c0-.32,.15-.62,.41-.81l.62-.45v.02c0,.55,.45,1,1,1s1-.45,1-1v-5.89c0-.34-.17-.65-.45-.84-.28-.18-.64-.21-.95-.08l-2.98,1.32c-.57,.25-1.21,.23-1.76-.07-.55-.3-.92-.82-1.02-1.43l-.13-.78,4.19-2.09c.34-.17,.55-.52,.55-.89v-1.44c0-.42,.27-.8,.67-.94l3.02-1.06c.4-.14,.67-.52,.67-.94V3h.5c.83,0,1.5,.67,1.5,1.5v1.18c0,.5,.37,.92,.86,.99,3.39,.46,6.01,3.16,6.39,6.56l.49,4.44-1.34,1.14v-2.81c0-.55-.45-1-1-1s-1,.45-1,1v9c0,.55,.45,1,1,1s1-.45,1-1v-3.57l3.04-2.58c.25-.22,.38-.54,.35-.87Z"/>
    <path class="cls-2" d="M13.28,9.09l-.35,.35c-.39,.39-.39,1.02,0,1.41,.2,.19,.45,.29,.71,.29s.51-.1,.71-.29l.35-.35c.39-.39,.39-1.02,0-1.41-.39-.39-1.02-.39-1.41,0Z"/>
  </g>
  <path class="cls-1" d="M27,29h-1v-.5c0-.83-.67-1.5-1.5-1.5H7.5c-.83,0-1.5,.67-1.5,1.5v.5h-1c-.55,0-1,.45-1,1s.45,1,1,1H27c.55,0,1-.45,1-1s-.45-1-1-1Z"/>
</svg>