<?xml version="1.0" encoding="UTF-8"?>
<svg id="OBJECT" xmlns="http://www.w3.org/2000/svg" viewBox="0 0 32 32">
  <defs>
    <style>
      .cls-1 {
        fill: #FD4360;
      }

      .cls-1, .cls-2 {
        stroke-width: 0px;
      }

      .cls-2 {
        fill: #dadada;
      }
    </style>
  </defs>
  <g>
    <path class="cls-2" d="m24.32,22.91c-.39-.39-1.02-.39-1.41,0s-.39,1.02,0,1.41l2.07,2.08c.2.2.45.29.71.29s.51-.1.71-.29c.39-.39.39-1.02,0-1.41l-2.07-2.08Z"/>
    <path class="cls-2" d="m27.5,19.5h-2.93c-.55,0-1,.45-1,1s.45,1,1,1h2.93c.55,0,1-.45,1-1s-.45-1-1-1Z"/>
    <path class="cls-2" d="m20.5,23.57c-.55,0-1,.45-1,1v2.93c0,.55.45,1,1,1s1-.45,1-1v-2.93c0-.55-.45-1-1-1Z"/>
    <path class="cls-2" d="m7.68,9.1c.2.2.45.29.71.29s.51-.1.71-.29c.39-.39.39-1.02,0-1.41l-2.07-2.08c-.39-.39-1.02-.39-1.41,0s-.39,1.02,0,1.41l2.07,2.08Z"/>
    <path class="cls-2" d="m4.5,12.5h2.93c.55,0,1-.45,1-1s-.45-1-1-1h-2.93c-.55,0-1,.45-1,1s.45,1,1,1Z"/>
    <path class="cls-2" d="m11.5,8.44c.55,0,1-.45,1-1v-2.93c0-.55-.45-1-1-1s-1,.45-1,1v2.93c0,.55.45,1,1,1Z"/>
    <path class="cls-2" d="m20.45,13l-8.74,8.74-1.45-1.45,8.74-8.74c.39-.39.39-1.02,0-1.41s-1.02-.39-1.41,0l-8.74,8.74-1.54-1.54c-1.07-1.06-2.8-1.07-3.87,0l-1.64,1.64c-1.06,1.07-1.06,2.8,0,3.87l.52.52-.52.52c-1.06,1.07-1.06,2.8,0,3.87l2.45,2.45c.53.53,1.23.8,1.93.8s1.4-.27,1.93-.8l.52-.52.52.52c.53.53,1.23.8,1.93.8s1.4-.27,1.93-.8l1.64-1.64c1.07-1.07,1.07-2.8,0-3.87l-1.54-1.54,8.74-8.74c.39-.39.39-1.02,0-1.41s-1.02-.39-1.41,0Zm-13.74,15.79c-.29.29-.75.29-1.04,0l-2.45-2.45c-.29-.29-.29-.75,0-1.04l.52-.52,3.49,3.49-.52.52Zm6.54-1.64l-1.64,1.64c-.29.29-.75.29-1.04,0l-7.36-7.36c-.29-.29-.29-.75,0-1.04l1.64-1.64c.14-.14.33-.21.52-.21s.38.07.52.21l7.36,7.36c.29.29.29.75,0,1.04Z"/>
  </g>
  <g>
    <rect class="cls-1" x="20.67" y=".79" width="5.2" height="15.88" rx="1" ry="1" transform="translate(.64 19.01) rotate(-45)"/>
    <path class="cls-1" d="m30.2,8.12h0c1.06-1.07,1.06-2.8,0-3.87l-2.45-2.45c-1.07-1.06-2.8-1.07-3.87,0l-.52.52,6.32,6.32.52-.52Z"/>
  </g>
</svg>