<?xml version="1.0" encoding="UTF-8"?>
<svg id="OBJECT" xmlns="http://www.w3.org/2000/svg" viewBox="0 0 32 32">
  <defs>
    <style>
      .cls-1 {
        fill: #FD4360;
      }

      .cls-1, .cls-2 {
        stroke-width: 0px;
      }

      .cls-2 {
        fill: #dadada;
      }
    </style>
  </defs>
  <g>
    <path class="cls-2" d="m28.5,1h-2c-1.38,0-2.5,1.12-2.5,2.5v3c0,1.38,1.12,2.5,2.5,2.5h2c1.38,0,2.5-1.12,2.5-2.5v-3c0-1.38-1.12-2.5-2.5-2.5Zm.5,5.5c0,.28-.22.5-.5.5h-2c-.28,0-.5-.22-.5-.5v-3c0-.28.22-.5.5-.5h2c.28,0,.5.22.5.5v3Z"/>
    <path class="cls-2" d="m28.5,12h-2c-1.38,0-2.5,1.12-2.5,2.5v3c0,1.38,1.12,2.5,2.5,2.5h2c1.38,0,2.5-1.12,2.5-2.5v-3c0-1.38-1.12-2.5-2.5-2.5Zm.5,5.5c0,.28-.22.5-.5.5h-2c-.28,0-.5-.22-.5-.5v-3c0-.28.22-.5.5-.5h2c.28,0,.5.22.5.5v3Z"/>
    <path class="cls-2" d="m28.5,23h-2c-1.38,0-2.5,1.12-2.5,2.5v3c0,1.38,1.12,2.5,2.5,2.5h2c1.38,0,2.5-1.12,2.5-2.5v-3c0-1.38-1.12-2.5-2.5-2.5Zm.5,5.5c0,.28-.22.5-.5.5h-2c-.28,0-.5-.22-.5-.5v-3c0-.28.22-.5.5-.5h2c.28,0,.5.22.5.5v3Z"/>
    <path class="cls-2" d="m20.5,6h1.5c.55,0,1-.45,1-1s-.45-1-1-1h-1.5c-1.38,0-2.5,1.12-2.5,2.5v8.5h-1c-.55,0-1,.45-1,1s.45,1,1,1h1v8.5c0,1.38,1.12,2.5,2.5,2.5h1.5c.55,0,1-.45,1-1s-.45-1-1-1h-1.5c-.28,0-.5-.22-.5-.5v-8.5h2c.55,0,1-.45,1-1s-.45-1-1-1h-2V6.5c0-.28.22-.5.5-.5Z"/>
  </g>
  <path class="cls-1" d="m13,11.5H3c-1.1,0-2,.9-2,2v5c0,1.1.9,2,2,2h10c1.1,0,2-.9,2-2v-5c0-1.1-.9-2-2-2Zm-7.5,5c0,.55-.45,1-1,1s-1-.45-1-1v-1c0-.55.45-1,1-1s1,.45,1,1v1Zm6,.5h-3c-.55,0-1-.45-1-1s.45-1,1-1h3c.55,0,1,.45,1,1s-.45,1-1,1Z"/>
</svg>