<?xml version="1.0" encoding="UTF-8"?>
<svg id="OBJECT" xmlns="http://www.w3.org/2000/svg" viewBox="0 0 32 32">
  <defs>
    <style>
      .cls-1 {
        fill: #FD4360;
      }

      .cls-1, .cls-2 {
        stroke-width: 0px;
      }

      .cls-2 {
        fill: #dadada;
      }
    </style>
  </defs>
  <g>
    <path class="cls-2" d="m30,6v-2c0-1.65-1.35-3-3-3h-2c-1.65,0-3,1.35-3,3v2c-.55,0-1,.45-1,1s.45,1,1,1v9.33c0,1.29.43,2.57,1.2,3.6l1.8,2.4v1.67c0,.55.45,1,1,1s1-.45,1-1v-1.67l1.8-2.4c.77-1.03,1.2-2.31,1.2-3.6v-9.33c.55,0,1-.45,1-1s-.45-1-1-1Zm-6-2c0-.55.45-1,1-1h2c.55,0,1,.45,1,1v2h-4v-2Zm1,4v6.61c-.35.07-.68.19-1,.33v-6.94h1Zm1,13.33l-1.2-1.6c-.51-.67-.78-1.51-.8-2.35.52-.56,1.22-.88,2-.88s1.48.33,2,.88c-.01.84-.29,1.67-.8,2.35l-1.2,1.6Zm2-6.39c-.32-.15-.65-.26-1-.33v-6.61h1v6.94Z"/>
    <path class="cls-2" d="m21,24c.55,0,1-.45,1-1s-.45-1-1-1H5c-2.21,0-4,1.79-4,4v1c0,2.21,1.79,4,4,4h16c.55,0,1-.45,1-1s-.45-1-1-1v-5Zm-16,5c-1.1,0-2-.9-2-2v-1c0-1.1.9-2,2-2h14v1.5h-8c-.55,0-1,.45-1,1s.45,1,1,1h8v1.5H5Z"/>
    <path class="cls-2" d="m7.5,25.5h-.5c-.55,0-1,.45-1,1s.45,1,1,1h.5c.55,0,1-.45,1-1s-.45-1-1-1Z"/>
  </g>
  <path class="cls-1" d="m5,20h13c.55,0,1-.45,1-1s-.45-1-1-1v-1.5h-7c-.55,0-1-.45-1-1s.45-1,1-1h7v-1.5c.55,0,1-.45,1-1s-.45-1-1-1H5c-2.21,0-4,1.79-4,4v1c0,2.21,1.79,4,4,4Zm2-5.5h.5c.55,0,1,.45,1,1s-.45,1-1,1h-.5c-.55,0-1-.45-1-1s.45-1,1-1Z"/>
</svg>