<?xml version="1.0" encoding="UTF-8"?>
<svg id="OBJECT" xmlns="http://www.w3.org/2000/svg" viewBox="0 0 32 32">
  <defs>
    <style>
      .cls-1 {
        fill: #FD4360;
      }

      .cls-1, .cls-2 {
        stroke-width: 0px;
      }

      .cls-2 {
        fill: #dadada;
      }
    </style>
  </defs>
  <path class="cls-2" d="m30,8c.55,0,1-.45,1-1V2c0-.55-.45-1-1-1h-6c-.55,0-1,.45-1,1v10h-3c-.55,0-1,.45-1,1v4h-7c-.55,0-1,.45-1,1v4h-7c-.55,0-1,.45-1,1v6h-1c-.55,0-1,.45-1,1s.45,1,1,1h28c.55,0,1-.45,1-1s-.45-1-1-1h-1V13c0-.55-.45-1-1-1h-3v-4h5Zm-5-5h4v3h-4v-3Zm-6,16v10h-6v-10h6Zm-14,5h6v5h-6v-5Zm22,5h-6v-15h6v15Z"/>
  <g>
    <path class="cls-1" d="m12.02,7.73c-.86,1.92-2.78,3.27-5.02,3.27s-4.17-1.35-5.02-3.27c-.62.94-.98,2.06-.98,3.27v1c0,1.65,1.35,3,3,3h6c1.65,0,3-1.35,3-3v-1c0-1.21-.36-2.33-.98-3.27Z"/>
    <path class="cls-1" d="m7,9c1.93,0,3.5-1.57,3.5-3.5v-1.5c0-1.65-1.35-3-3-3h-1c-1.65,0-3,1.35-3,3v1.5c0,1.93,1.57,3.5,3.5,3.5Z"/>
  </g>
</svg>