<?xml version="1.0" encoding="UTF-8"?>
<svg id="OBJECT" xmlns="http://www.w3.org/2000/svg" viewBox="0 0 32 32">
  <defs>
    <style>
      .cls-1 {
        fill: #FD4360;
      }

      .cls-2 {
        fill: #dadada;
      }
    </style>
  </defs>
  <path class="cls-2" d="m22.5,7h-3V3h1.5c.55,0,1-.45,1-1s-.45-1-1-1h-10c-.55,0-1,.45-1,1s.45,1,1,1h1.5v4h-3c-1.38,0-2.5,1.12-2.5,2.5v17c0,1.21.86,2.22,2,2.45v1.05c0,.55.45,1,1,1s1-.45,1-1v-1h10v1c0,.55.45,1,1,1s1-.45,1-1v-1.05c1.14-.23,2-1.24,2-2.45V9.5c0-1.38-1.12-2.5-2.5-2.5ZM14.5,3h3v4h-3V3Zm8.5,23.5c0,.28-.22.5-.5.5h-13c-.28,0-.5-.22-.5-.5V9.5c0-.28.22-.5.5-.5h13c.28,0,.5.22.5.5v17Z"/>
  <g>
    <path class="cls-1" d="m20,21.5h-8c-.55,0-1,.45-1,1s.45,1,1,1h5v1c0,.55.45,1,1,1s1-.45,1-1v-1h1c.55,0,1-.45,1-1s-.45-1-1-1Z"/>
    <path class="cls-1" d="m20,10.5h-8c-.55,0-1,.45-1,1v4.5c0,1.38,1.12,2.5,2.5,2.5h5c1.38,0,2.5-1.12,2.5-2.5v-4.5c0-.55-.45-1-1-1Zm-2.75,5h-2.5c-.55,0-1-.45-1-1s.45-1,1-1h2.5c.55,0,1,.45,1,1s-.45,1-1,1Z"/>
  </g>
</svg>