<?xml version="1.0" encoding="UTF-8"?>
<svg id="OBJECT" xmlns="http://www.w3.org/2000/svg" viewBox="0 0 32 32">
  <defs>
    <style>
      .cls-1 {
        fill: #FD4360;
      }

      .cls-1, .cls-2 {
        stroke-width: 0px;
      }

      .cls-2 {
        fill: #dadada;
      }
    </style>
  </defs>
  <g>
    <path class="cls-2" d="m30,6h-6v-2.48c.29.04.57.07.86.11.05,0,.1.01.14.01.49,0,.92-.36.99-.86.08-.55-.3-1.05-.85-1.13-6.07-.87-12.22-.87-18.28,0-.55.08-.93.58-.85,1.13.08.55.59.93,1.13.85.29-.04.57-.07.86-.11v2.48H2c-.55,0-1,.45-1,1v12c0,.5.37.92.86.99,4.69.67,9.42,1,14.14,1s9.45-.33,14.14-1c.49-.07.86-.49.86-.99V7c0-.55-.45-1-1-1ZM10,3.3c3.99-.38,8.01-.38,12,0v2.7h-12v-2.7Zm19,14.83c-8.63,1.15-17.37,1.15-26,0v-10.13h26v10.13Z"/>
    <path class="cls-2" d="m6,13h17v2c0,.55.45,1,1,1s1-.45,1-1v-2h1c.55,0,1-.45,1-1s-.45-1-1-1H6c-.55,0-1,.45-1,1s.45,1,1,1Z"/>
  </g>
  <g>
    <path class="cls-1" d="m9.5,26h1c.28,0,.5-.22.5-.5v-2.64c-.67-.03-1.33-.06-2-.11v2.75c0,.28.22.5.5.5Z"/>
    <path class="cls-1" d="m21.5,26h1c.28,0,.5-.22.5-.5v-2.75c-.67.05-1.33.07-2,.11v2.64c0,.28.22.5.5.5Z"/>
    <path class="cls-1" d="m25,22.58v2.92c0,1.38-1.12,2.5-2.5,2.5h-1c-1.38,0-2.5-1.12-2.5-2.5v-2.56c-1,.03-2,.05-3,.05s-2-.02-3-.05v2.56c0,1.38-1.12,2.5-2.5,2.5h-1c-1.38,0-2.5-1.12-2.5-2.5v-2.92c-1.67-.15-3.34-.33-5-.56v5.98c0,1.65,1.35,3,3,3h22c1.65,0,3-1.35,3-3v-5.98c-1.66.23-3.33.41-5,.56Z"/>
  </g>
</svg>