<?xml version="1.0" encoding="UTF-8"?>
<svg id="OBJECT" xmlns="http://www.w3.org/2000/svg" viewBox="0 0 32 32">
  <defs>
    <style>
      .cls-1 {
        fill: #FD4360;
      }

      .cls-1, .cls-2 {
        stroke-width: 0px;
      }

      .cls-2 {
        fill: #dadada;
      }
    </style>
  </defs>
  <path class="cls-2" d="m29.03,6.58c-.52-.19-1.09.08-1.28.6-.19.52.08,1.09.6,1.28.39.14.66.52.66.94v18.6c0,.55-.45,1-1,1h-2v-3c0-.55-.45-1-1-1s-1,.45-1,1v3h-7v-5c0-.55-.45-1-1-1s-1,.45-1,1v5h-7v-3c0-.55-.45-1-1-1s-1,.45-1,1v3h-2c-.55,0-1-.45-1-1V9.4c0-.42.26-.79.66-.94.52-.19.79-.76.6-1.28-.19-.52-.77-.78-1.28-.6-1.18.43-1.97,1.56-1.97,2.82v18.6c0,1.65,1.35,3,3,3h24c1.65,0,3-1.35,3-3V9.4c0-1.25-.79-2.39-1.97-2.82Z"/>
  <g>
    <polygon class="cls-1" points="11.03 1 16 20.88 20.97 1 11.03 1"/>
    <path class="cls-1" d="m26.67,5.79l-3.95-3.58-4.98,19.91,5.66-3.37c.28-.17.47-.47.49-.8l.41-6.55,2.56-4.37c.24-.41.16-.93-.19-1.25Z"/>
    <path class="cls-1" d="m5.33,5.79c-.35.32-.43.84-.19,1.25l2.56,4.37.41,6.55c.02.33.2.63.49.8l5.66,3.37L9.27,2.22l-3.95,3.58Z"/>
  </g>
</svg>