<?xml version="1.0" encoding="UTF-8"?>
<svg id="OBJECT" xmlns="http://www.w3.org/2000/svg" viewBox="0 0 32 32">
  <defs>
    <style>
      .cls-1 {
        fill: #FD4360;
      }

      .cls-1, .cls-2 {
        stroke-width: 0px;
      }

      .cls-2 {
        fill: #dadada;
      }
    </style>
  </defs>
  <path class="cls-2" d="m28.94,6.59l-1.78-.59c-.53-.18-1.09.11-1.26.63-.17.52.11,1.09.63,1.26l1.77.59c.41.14.69.52.69.95v18.56c0,.55-.45,1-1,1h-6.65l-1.83-11,.53-3.08c.09-.54-.27-1.06-.82-1.16-.55-.1-1.06.27-1.16.82l-.42,2.42h-3.32l-.42-2.42c-.09-.54-.61-.92-1.16-.82-.54.09-.91.61-.82,1.16l.53,3.08-1.83,11h-6.65c-.55,0-1-.45-1-1V9.44c0-.43.28-.81.68-.95l1.71-.57c.44-.11.76-.5.76-.97,0-.66-.7-1.16-1.32-.95l-1.79.59c-1.22.42-2.05,1.56-2.05,2.85v18.56c0,1.65,1.35,3,3,3h24c1.65,0,3-1.35,3-3V9.44c0-1.28-.82-2.43-2.06-2.85Zm-14.6,12.41h3.31l1.67,10h-6.64l1.67-10Z"/>
  <g>
    <path class="cls-1" d="m20.5,1h-9c-.22,0-.42.09-.6.22l5.1,7.93,5.1-7.93c-.17-.13-.37-.22-.6-.22Z"/>
    <path class="cls-1" d="m7.25,5.34c-.23.26-.31.63-.2.96l1.46,4.61c.29.93,1.02,1.66,1.95,1.95.93.3,1.95.12,2.72-.47l1.7-1.29L9.51,2.76l-2.26,2.59Z"/>
    <path class="cls-1" d="m24.75,5.34l-2.26-2.59-5.37,8.35,1.7,1.29c.53.4,1.17.61,1.81.61.3,0,.61-.05.91-.14.93-.3,1.66-1.03,1.95-1.95l1.46-4.61c.1-.33.03-.7-.2-.96Z"/>
  </g>
</svg>