<?xml version="1.0" encoding="UTF-8"?>
<svg id="OBJECT" xmlns="http://www.w3.org/2000/svg" viewBox="0 0 32 32">
  <defs>
    <style>
      .cls-1 {
        fill: #FD4360;
      }

      .cls-2 {
        fill: #dadada;
      }
    </style>
  </defs>
  <path class="cls-2" d="m29.08,6.57l-1.87-.73c-.51-.2-1.09.05-1.3.57-.2.51.05,1.09.57,1.3l1.87.73c.39.15.64.52.64.94v18.63c0,.55-.45,1-1,1h-5.72l-2.75-10.98.69-2.39c.15-.53-.15-1.08-.69-1.24-.53-.15-1.08.15-1.24.69l-.55,1.93h-3.49l-.55-1.93c-.15-.53-.71-.84-1.24-.69-.53.15-.84.71-.69,1.24l.69,2.39-2.75,10.98h-5.72c-.55,0-1-.45-1-1V9.37c0-.42.25-.79.64-.94l1.87-.73c.51-.2.77-.78.57-1.3-.2-.51-.78-.77-1.3-.57l-1.87.73c-1.16.45-1.92,1.55-1.92,2.8v18.63c0,1.65,1.35,3,3,3h24c1.65,0,3-1.35,3-3V9.37c0-1.25-.75-2.35-1.92-2.8Zm-14.8,12.43h3.44l2.5,10h-8.44l2.5-10Z"/>
  <g>
    <path class="cls-1" d="m21.33,1h-10.67c-.27,0-.53.12-.72.31l6.05,8.32L22.05,1.31c-.19-.2-.44-.31-.72-.31Z"/>
    <path class="cls-1" d="m24.81,5.08l-1.51-2.08-6.12,8.42,2.76,2c.44.31.95.48,1.46.48.31,0,.63-.06.93-.18.8-.32,1.37-1.02,1.53-1.86l1.12-6c.05-.27-.01-.55-.17-.77Z"/>
    <path class="cls-1" d="m7.19,5.08c-.16.22-.22.5-.17.77l1.12,6c.16.85.73,1.54,1.53,1.86s1.69.21,2.39-.3l2.76-2L8.7,3l-1.51,2.08Z"/>
  </g>
</svg>