<?xml version="1.0" encoding="UTF-8"?>
<svg id="OBJECT" xmlns="http://www.w3.org/2000/svg" viewBox="0 0 32 32">
  <defs>
    <style>
      .cls-1 {
        fill: #FD4360;
      }

      .cls-1, .cls-2 {
        stroke-width: 0px;
      }

      .cls-2 {
        fill: #dadada;
      }
    </style>
  </defs>
  <g>
    <path class="cls-2" d="m30.08,10.57L21.43,1.92c-.65-.65-1.57-.98-2.47-.91-.92.07-1.77.54-2.31,1.29l-10.54,14.49c-.19.26-.34.55-.43.85l-.16.47c-.18.52.1,1.09.62,1.27.52.18,1.09-.1,1.27-.62l.16-.48c.04-.12.09-.22.16-.31l8.76-12.05,9.6,9.6-12.05,8.76c-.09.07-.2.12-.32.16l-.47.16c-.52.18-.8.75-.63,1.27.14.42.53.68.95.68.11,0,.21-.02.32-.05l.47-.16c.31-.1.6-.25.86-.44l14.49-10.54c.75-.55,1.22-1.39,1.29-2.31.07-.92-.26-1.82-.91-2.47Zm-1.55,3.17l-.8.59-10.04-10.04.58-.8c.2-.28.51-.45.85-.48.33-.03.66.09.9.33l8.65,8.65c.24.24.36.56.33.9-.03.34-.2.65-.47.85Z"/>
    <path class="cls-2" d="m15.68,20.39c2.24,0,4.07-1.82,4.07-4.07s-1.82-4.07-4.07-4.07-4.07,1.83-4.07,4.07,1.83,4.07,4.07,4.07Zm0-6.14c1.14,0,2.07.93,2.07,2.07s-.93,2.07-2.07,2.07-2.07-.93-2.07-2.07.93-2.07,2.07-2.07Z"/>
  </g>
  <path class="cls-1" d="m4.53,19.94l-2.79,2.79c-.99.99-.99,2.6,0,3.58l3.94,3.94h0c.49.49,1.14.74,1.79.74s1.3-.25,1.79-.74l2.79-2.79-7.53-7.53Zm2.08,7.25c-.2.2-.45.29-.71.29s-.51-.1-.71-.29l-.38-.38c-.39-.39-.39-1.02,0-1.41s1.02-.39,1.41,0l.38.38c.39.39.39,1.02,0,1.41Z"/>
</svg>