<?xml version="1.0" encoding="UTF-8"?>
<svg id="OBJECT" xmlns="http://www.w3.org/2000/svg" viewBox="0 0 32 32">
  <defs>
    <style>
      .cls-1 {
        fill: #FD4360;
      }

      .cls-1, .cls-2 {
        stroke-width: 0px;
      }

      .cls-2 {
        fill: #dadada;
      }
    </style>
  </defs>
  <g>
    <path class="cls-2" d="m16,6c-5.51,0-10,4.49-10,10,0,2.38.86,4.69,2.41,6.51.36.42.99.47,1.41.11.42-.36.47-.99.11-1.41-1.25-1.45-1.93-3.3-1.93-5.2,0-4.41,3.59-8,8-8s8,3.59,8,8c0,1.91-.69,3.76-1.94,5.21-.36.42-.31,1.05.11,1.41.19.16.42.24.65.24.28,0,.56-.12.76-.35,1.56-1.81,2.42-4.13,2.42-6.51,0-5.51-4.49-10-10-10Z"/>
    <path class="cls-2" d="m16,5c.55,0,1-.45,1-1v-2c0-.55-.45-1-1-1s-1,.45-1,1v2c0,.55.45,1,1,1Z"/>
    <path class="cls-2" d="m30,14h-2c-.55,0-1,.45-1,1s.45,1,1,1h2c.55,0,1-.45,1-1s-.45-1-1-1Z"/>
    <path class="cls-2" d="m4,14h-2c-.55,0-1,.45-1,1s.45,1,1,1h2c.55,0,1-.45,1-1s-.45-1-1-1Z"/>
    <path class="cls-2" d="m25.19,8.29c.23,0,.46-.08.64-.23l1.53-1.29c.42-.35.48-.99.12-1.41-.35-.42-.99-.48-1.41-.12l-1.53,1.29c-.42.35-.48.99-.12,1.41.2.24.48.36.77.36Z"/>
    <path class="cls-2" d="m6.17,8.05c.19.16.42.23.64.23.29,0,.57-.12.77-.36.35-.42.3-1.05-.12-1.41l-1.53-1.29c-.42-.35-1.05-.3-1.41.12-.35.42-.3,1.05.12,1.41l1.53,1.29Z"/>
    <path class="cls-2" d="m16.71,10.29c-.39-.39-1.02-.39-1.41,0l-3,3c-.39.39-.39,1.02,0,1.41s1.02.39,1.41,0l1.29-1.29v5.59c0,.55.45,1,1,1s1-.45,1-1v-5.59l1.29,1.29c.2.2.45.29.71.29s.51-.1.71-.29c.39-.39.39-1.02,0-1.41l-3-3Z"/>
  </g>
  <path class="cls-1" d="m28.31,24.76c-.65.55-1.45,1.24-2.99,1.24s-2.34-.69-2.99-1.24c-.53-.46-.89-.76-1.69-.76s-1.15.3-1.68.76c-.65.55-1.45,1.24-2.98,1.24s-2.34-.69-2.98-1.24c-.53-.46-.89-.76-1.68-.76s-1.15.3-1.68.76c-.64.55-1.45,1.24-2.98,1.24s-2.34-.69-2.98-1.24c-.53-.46-.89-.76-1.68-.76h-1v7h30v-7h-1c-.8,0-1.15.3-1.69.76Zm-16.81,4.24h-1c-.55,0-1-.45-1-1s.45-1,1-1h1c.55,0,1,.45,1,1s-.45,1-1,1Zm5,0h-1c-.55,0-1-.45-1-1s.45-1,1-1h1c.55,0,1,.45,1,1s-.45,1-1,1Zm5,0h-1c-.55,0-1-.45-1-1s.45-1,1-1h1c.55,0,1,.45,1,1s-.45,1-1,1Z"/>
</svg>