<?xml version="1.0" encoding="UTF-8"?>
<svg id="OBJECT" xmlns="http://www.w3.org/2000/svg" viewBox="0 0 32 32">
  <defs>
    <style>
      .cls-1 {
        fill: #FD4360;
      }

      .cls-1, .cls-2 {
        stroke-width: 0px;
      }

      .cls-2 {
        fill: #dadada;
      }
    </style>
  </defs>
  <path class="cls-1" d="m30,1H2.11c-.55,0-1,.45-1,1v2c0,.55.45,1,1,1h3.98v2h1.99v-2h15.94v2h1.99v-2h3.98c.55,0,1-.45,1-1v-2c0-.55-.45-1-1-1Z"/>
  <g>
    <path class="cls-2" d="m30,17c.55,0,1-.45,1-1v-6c0-.55-.45-1-1-1H2.11c-.55,0-1,.45-1,1v6c0,.55.45,1,1,1h.38v12h-.49c-.55,0-1,.45-1,1s.45,1,1,1h27.89c.55,0,1-.45,1-1s-.45-1-1-1h-.49v-12h.61ZM3.11,11h25.89v4H3.11v-4Zm11.94,6v12h-4.47v-12h4.47Zm2,0h4.47v12h-4.47v-12Zm-12.56,0h4.09v12h-4.09v-12Zm22.9,12h-3.86v-12h3.86v12Z"/>
    <path class="cls-2" d="m13.07,24.5c.55,0,1-.45,1-1v-1c0-.55-.45-1-1-1s-1,.45-1,1v1c0,.55.45,1,1,1Z"/>
    <path class="cls-2" d="m19.04,21.5c-.55,0-1,.45-1,1v1c0,.55.45,1,1,1s1-.45,1-1v-1c0-.55-.45-1-1-1Z"/>
  </g>
</svg>