<?xml version="1.0" encoding="UTF-8"?>
<svg id="OBJECT" xmlns="http://www.w3.org/2000/svg" viewBox="0 0 32 32">
  <defs>
    <style>
      .cls-1 {
        fill: #FD4360;
      }

      .cls-2 {
        fill: #dadada;
      }
    </style>
  </defs>
  <path class="cls-2" d="M30.42,18.46l-1.83-.86c-1.14-.54-2.51-.3-3.39,.58l-3.76,3.61-4.26-5.29c-.57-.71-1.42-1.12-2.34-1.12h-3.17c-1.12,0-2.14,.62-2.66,1.61l-.49,.93h-1.55v-.05c0-1.38-1.12-2.5-2.5-2.5H2c-.55,0-1,.45-1,1v12c0,.55,.45,1,1,1h2.5c1.38,0,2.5-1.12,2.5-2.5v-.05h2.31l1.71,2.76c.55,.89,1.5,1.42,2.55,1.42h6.75c.9,0,1.75-.4,2.32-1.1l8.14-9.91c.2-.24,.27-.55,.2-.86-.07-.3-.27-.55-.55-.68ZM5,26.87c0,.28-.22,.5-.5,.5h-1.5v-10h1.5c.28,0,.5,.22,.5,.5v9Zm16.09,1.77c-.19,.23-.47,.37-.77,.37h-6.75c-.34,0-.67-.18-.85-.47l-2-3.23c-.18-.29-.5-.47-.85-.47h-2.86v-4.9h2.15c.37,0,.71-.21,.89-.54l.77-1.46c.17-.33,.51-.54,.89-.54h3.17c.3,0,.59,.14,.78,.37l4.37,5.42-.89,.86c-.42,.35-1.03,.3-1.39-.11l-1.59-1.81c-.36-.42-1-.46-1.41-.09-.42,.36-.46,1-.09,1.41l1.59,1.81c1.06,1.21,2.94,1.36,4.23,.28l6.17-5.91c.3-.3,.75-.38,1.13-.2l.66,.31-7.32,8.91Z"/>
  <g>
    <path class="cls-1" d="M24.99,10.37c-.57,.39-1.25,.63-1.99,.63s-1.43-.24-1.99-.63c-1.9,.67-3.3,2.23-3.8,4.14,1.46,1.53,3.51,2.49,5.79,2.49s4.33-.96,5.79-2.49c-.49-1.9-1.9-3.47-3.8-4.14Z"/>
    <path class="cls-1" d="M23,1c-4.41,0-8,3.59-8,8,0,1.26,.3,2.44,.82,3.5,.81-1.66,2.18-3.02,3.91-3.79-.14-.38-.23-.78-.23-1.21,0-1.93,1.57-3.5,3.5-3.5s3.5,1.57,3.5,3.5c0,.43-.09,.83-.23,1.21,1.73,.77,3.1,2.13,3.91,3.79,.52-1.06,.82-2.24,.82-3.5,0-4.41-3.59-8-8-8Z"/>
    <circle class="cls-1" cx="23" cy="7.5" r="1.5"/>
  </g>
</svg>