<?xml version="1.0" encoding="UTF-8"?>
<svg id="OBJECT" xmlns="http://www.w3.org/2000/svg" viewBox="0 0 32 32">
  <defs>
    <style>
      .cls-1 {
        fill: #FD4360;
      }

      .cls-1, .cls-2 {
        stroke-width: 0px;
      }

      .cls-2 {
        fill: #dadada;
      }
    </style>
  </defs>
  <path class="cls-2" d="m18,1h-4C6.83,1,1,6.83,1,14v14c0,1.65,1.35,3,3,3h1c1.65,0,3-1.35,3-3v-9c0-1.65-1.35-3-3-3h-2v-2C3,7.93,7.93,3,14,3h4c6.07,0,11,4.93,11,11v2h-2c-1.65,0-3,1.35-3,3v10h-4v-1c0-1.38-1.12-2.5-2.5-2.5h-3c-1.38,0-2.5,1.12-2.5,2.5v.5c0,1.38,1.12,2.5,2.5,2.5h13.5c1.65,0,3-1.35,3-3v-14c0-7.17-5.83-13-13-13ZM6,19v9c0,.55-.45,1-1,1h-1c-.55,0-1-.45-1-1v-10h2c.55,0,1,.45,1,1Zm12,10h-3.5c-.28,0-.5-.22-.5-.5v-.5c0-.28.22-.5.5-.5h3c.28,0,.5.22.5.5v1Zm11-1c0,.55-.45,1-1,1h-2v-10c0-.55.45-1,1-1h2v10Z"/>
  <path class="cls-1" d="m20.02,7h-8.05c-1.37,0-2.48,1.11-2.48,2.48v7.05c0,1.37,1.11,2.48,2.48,2.48h.35l1.38,3.44c.38.95,1.28,1.56,2.3,1.56s1.92-.61,2.3-1.56l.58-1.44h-1.88c-.55,0-1-.45-1-1s.45-1,1-1h3.02c1.37,0,2.48-1.11,2.48-2.48v-7.05c0-1.37-1.11-2.48-2.48-2.48Zm-1.77,8.75h-4.5c-.55,0-1-.45-1-1s.45-1,1-1h4.5c.55,0,1,.45,1,1s-.45,1-1,1Zm0-3.5h-4.5c-.55,0-1-.45-1-1s.45-1,1-1h4.5c.55,0,1,.45,1,1s-.45,1-1,1Z"/>
</svg>