<?xml version="1.0" encoding="UTF-8"?>
<svg id="OBJECT" xmlns="http://www.w3.org/2000/svg" viewBox="0 0 512 512">
  <defs>
    <style>
      .cls-1 {
        fill: #FD4360;
      }

      .cls-2 {
        fill: #dadada;
      }
    </style>
  </defs>
  <path class="cls-2" d="M494.96,304.38l-62.96-15.74v-85.37c5.11-.73,9.88-3.2,13.41-7.05,4.27-4.66,6.41-10.95,5.86-17.27-4.21-48.63-26.41-93.74-62.5-127.03C352.45,18.44,305.3,0,256,0S159.55,18.44,123.24,51.93c-36.1,33.29-58.29,78.4-62.5,127.03-.55,6.31,1.59,12.61,5.86,17.26,3.53,3.84,8.29,6.32,13.41,7.05v85.37l-62.96,15.74c-10.04,2.51-17.04,11.49-17.04,21.83v126.58c0,10.34,7.01,19.32,17.04,21.83l62.98,15.74c.46,12.01,10.36,21.64,22.48,21.64h10c12.41,0,22.5-10.09,22.5-22.5v-200c0-12.41-10.09-22.5-22.5-22.5h-17.5v-63.58c10.87-.85,19.58-9.31,20.59-20.37,6.57-71.8,68.24-128.05,140.41-128.05s133.85,56.25,140.41,128.05c1.01,11.05,9.72,19.51,20.59,20.37v63.58h-17.5c-12.41,0-22.5,10.09-22.5,22.5v207.5h-73.5v-17.5c0-12.41-10.09-22.5-22.5-22.5h-50c-12.41,0-22.5,10.09-22.5,22.5v10c0,12.41,10.09,22.5,22.5,22.5h178.5c12.12,0,22.02-9.63,22.48-21.64l62.98-15.74c10.04-2.51,17.04-11.49,17.04-21.83v-126.58c0-10.34-7.01-19.32-17.04-21.83Zm-206.46,192.62h-57.5c-4.14,0-7.5-3.36-7.5-7.5v-10c0-4.14,3.36-7.5,7.5-7.5h50c4.14,0,7.5,3.36,7.5,7.5v17.5ZM15,357h17.5c4.14,0,7.5,3.36,7.5,7.5v50c0,4.14-3.36,7.5-7.5,7.5H15v-65Zm0,95.79v-15.79h17.5c12.41,0,22.5-10.09,22.5-22.5v-50c0-12.41-10.09-22.5-22.5-22.5H15v-15.79c0-3.45,2.34-6.44,5.68-7.28l59.32-14.83v170.79l-59.32-14.83c-3.34-.84-5.68-3.83-5.68-7.28Zm105-163.29v200c0,4.14-3.36,7.5-7.5,7.5h-10c-4.14,0-7.5-3.36-7.5-7.5v-207.5h17.5c4.14,0,7.5,3.36,7.5,7.5Zm291.35-107.82c-3.52-38.54-21.26-74.26-49.94-100.59-28.86-26.5-66.3-41.09-105.41-41.09s-76.54,14.59-105.41,41.09c-28.68,26.33-46.42,62.06-49.94,100.59-.36,3.89-3.56,6.82-7.46,6.82h-10.05c-2.11,0-4.07-.86-5.49-2.42-1.46-1.59-2.16-3.66-1.97-5.83C83.7,87.59,162.91,15,256,15s172.3,72.59,180.32,165.25c.19,2.17-.51,4.24-1.97,5.83-1.43,1.56-3.38,2.42-5.49,2.42h-10.05c-3.9,0-7.11-2.93-7.46-6.82Zm5.65,307.82c0,4.14-3.36,7.5-7.5,7.5h-17.5v-207.5c0-4.14,3.36-7.5,7.5-7.5h17.5v207.5Zm74.32-29.44l-59.32,14.83v-170.79l59.32,14.83c3.34,.84,5.68,3.83,5.68,7.28v15.79h-17.5c-12.41,0-22.5,10.09-22.5,22.5v50c0,12.41,10.09,22.5,22.5,22.5h17.5v15.79c0,3.45-2.34,6.44-5.68,7.28Zm5.68-103.06v65h-17.5c-4.14,0-7.5-3.36-7.5-7.5v-50c0-4.14,3.36-7.5,7.5-7.5h17.5Z"/>
  <g>
    <circle class="cls-1" cx="296" cy="235" r="12.5"/>
    <path class="cls-1" d="M256,90c-57.9,0-105,47.1-105,105s47.1,105,105,105,105-47.1,105-105-47.1-105-105-105Zm-67.5,65c0-15.16,12.34-27.5,27.5-27.5s27.5,12.34,27.5,27.5-12.34,27.5-27.5,27.5-27.5-12.34-27.5-27.5Zm22.8,95.3c-1.46,1.46-3.38,2.2-5.3,2.2s-3.84-.73-5.3-2.2c-2.93-2.93-2.93-7.68,0-10.61l100-100c2.93-2.93,7.68-2.93,10.61,0,2.93,2.93,2.93,7.68,0,10.61l-100,100Zm84.7,12.2c-15.16,0-27.5-12.34-27.5-27.5s12.34-27.5,27.5-27.5,27.5,12.34,27.5,27.5-12.34,27.5-27.5,27.5Z"/>
    <circle class="cls-1" cx="216" cy="155" r="12.5"/>
  </g>
</svg>