<?xml version="1.0" encoding="UTF-8"?>
<svg id="OBJECT" xmlns="http://www.w3.org/2000/svg" viewBox="0 0 32 32">
  <defs>
    <style>
      .cls-1 {
        fill: #FD4360;
      }

      .cls-1, .cls-2 {
        stroke-width: 0px;
      }

      .cls-2 {
        fill: #dadada;
      }
    </style>
  </defs>
  <path class="cls-1" d="m30.91,1.99c-.05-.48-.42-.85-.9-.9-3.26-.32-6.68.19-10.02,1.4l10.13,7.62c.76-2.73,1.04-5.47.79-8.12Z"/>
  <g>
    <path class="cls-2" d="m28.34,12.29c-.51-.22-1.1.01-1.31.52-.55,1.27-1.2,2.5-1.94,3.69l-11.24-8.45c1.14-.83,2.33-1.57,3.56-2.21.49-.25.68-.86.42-1.35-.25-.49-.86-.68-1.35-.42-2.82,1.47-5.44,3.4-7.79,5.75-3.57,3.57-6.22,7.85-7.65,12.37-.08.25-.06.53.07.77.12.24.34.41.59.49l5.26,1.59,1.59,5.26c.08.26.25.47.49.59.15.08.31.12.47.12.1,0,.2-.02.3-.05,4.52-1.43,8.79-4.07,12.37-7.65,2.89-2.89,5.13-6.15,6.67-9.7.22-.51-.01-1.1-.52-1.31Zm-7.56,9.6c-3.09,3.09-6.74,5.44-10.6,6.83l-1.28-4.21,3.51-3.51c.39-.39.39-1.02,0-1.41-.39-.39-1.02-.39-1.41,0l-3.51,3.51-4.21-1.28c1.39-3.86,3.74-7.5,6.83-10.6.68-.68,1.38-1.3,2.1-1.9l11.75,8.83c-.95,1.3-2,2.55-3.18,3.73Z"/>
    <path class="cls-2" d="m15.02,15.56l-.5.5c-.39.39-.39,1.02,0,1.41.2.2.45.29.71.29s.51-.1.71-.29l.5-.5c.39-.39.39-1.02,0-1.41s-1.02-.39-1.41,0Z"/>
  </g>
</svg>