<?xml version="1.0" encoding="UTF-8" standalone="no"?>
<svg
   id="OBJECT"
   viewBox="0 0 32 32"
   version="1.1"
   sodipodi:docname="SWOT.svg"
   inkscape:version="1.2.2 (732a01da63, 2022-12-09)"
   xml:space="preserve"
   xmlns:inkscape="http://www.inkscape.org/namespaces/inkscape"
   xmlns:sodipodi="http://sodipodi.sourceforge.net/DTD/sodipodi-0.dtd"
   xmlns="http://www.w3.org/2000/svg"
   xmlns:svg="http://www.w3.org/2000/svg"><sodipodi:namedview
     id="namedview33"
     pagecolor="#505050"
     bordercolor="#ffffff"
     borderopacity="1"
     inkscape:showpageshadow="0"
     inkscape:pageopacity="0"
     inkscape:pagecheckerboard="1"
     inkscape:deskcolor="#505050"
     showgrid="false"
     inkscape:zoom="5.6568543"
     inkscape:cx="-0.97227182"
     inkscape:cy="31.112698"
     inkscape:window-width="1920"
     inkscape:window-height="1009"
     inkscape:window-x="-8"
     inkscape:window-y="-8"
     inkscape:window-maximized="1"
     inkscape:current-layer="OBJECT"
     showguides="false" /><defs
     id="defs4"><rect
       x="133"
       y="-140"
       width="147"
       height="84"
       id="rect1426" /><rect
       x="-166.52352"
       y="26.6345"
       width="20.612787"
       height="21.770809"
       id="rect1187" /><rect
       x="-733.72257"
       y="-443.44512"
       width="248.89747"
       height="162.43185"
       id="rect1018" /><rect
       x="-21.453739"
       y="9.2802434"
       width="25.329605"
       height="24.45617"
       id="rect348" /><style
       id="style2">
      .cls-1 {
        fill: #FD4360;
      }

      .cls-1, .cls-2 {
        stroke-width: 0px;
      }

      .cls-2 {
        fill: #dadada;
      }
    </style><rect
       x="-733.72257"
       y="-443.44512"
       width="248.89747"
       height="162.43185"
       id="rect1078" /><rect
       x="-733.72257"
       y="-443.44512"
       width="248.89747"
       height="162.43185"
       id="rect1876" /><rect
       x="-733.72257"
       y="-443.44512"
       width="248.89747"
       height="162.43185"
       id="rect1882" /><rect
       x="-166.52352"
       y="26.6345"
       width="20.612787"
       height="21.770809"
       id="rect2129" /><rect
       x="-166.52352"
       y="26.6345"
       width="20.612787"
       height="21.770809"
       id="rect4810" /><rect
       x="-166.52352"
       y="26.6345"
       width="20.612787"
       height="21.770809"
       id="rect4920" /><rect
       x="133"
       y="-140"
       width="147"
       height="84"
       id="rect1536" /><rect
       x="133"
       y="-140"
       width="147"
       height="84"
       id="rect1615" /><rect
       x="133"
       y="-140"
       width="147"
       height="84"
       id="rect2474" /></defs><path
     style="fill:#fd4360;fill-opacity:0.992157;stroke:none;stroke-width:0.28032;stroke-dasharray:none;stroke-opacity:0.976471"
     d="m 27.38335,26.817281 c 0,0 -0.218318,-0.04776 -0.307009,0.02731 -0.08869,0.07505 -0.163739,0.259251 0.09551,0.3957 0.259252,0.136449 1.7943,0.873273 1.7943,0.873273 l -26.3209592,0.01363 c 0,0 -0.081869,0.04094 -0.095515,0.170564 -0.013641,0.129623 0.020466,0.245604 0.1432717,0.266072 0.1228034,0.02045 26.280025,0.0068 26.280025,0.0068 l -1.787478,0.85963 c 0,0 -0.156917,0.09551 -0.163739,0.225141 -0.0068,0.129623 0.09551,0.252429 0.361589,0.184202 0.266075,-0.06822 2.612993,-1.337195 2.612993,-1.337195 0,0 0.170561,-0.184208 -0.01365,-0.382058 -0.184203,-0.197813 -2.599346,-1.303048 -2.599346,-1.303048 z"
     id="path3110" /><path
     style="fill:#dadada;fill-opacity:1;stroke:#dadada;stroke-width:0.157026;stroke-dasharray:none;stroke-opacity:0.976471"
     d="M 11.302985,25.77516 C 9.3818162,25.54243 7.7288943,24.274214 6.9918638,22.467428 6.8449606,22.107305 6.7521549,21.769217 6.6705337,21.29685 c -0.066951,-0.387474 -0.086127,-0.992138 -0.041868,-1.320107 0.060563,-0.44876 0.089428,-0.611999 0.1343989,-0.760061 0.026729,-0.08801 0.056593,-0.210956 0.066366,-0.273218 0.00977,-0.06226 0.028913,-0.120094 0.042546,-0.128519 0.013634,-0.0084 0.017876,-0.02647 0.00945,-0.04014 -0.00844,-0.01363 -0.00265,-0.02483 0.0129,-0.02483 0.015537,0 0.028242,-0.02369 0.028242,-0.05262 0,-0.02894 0.022798,-0.103952 0.050658,-0.166682 0.074431,-0.167571 0.1149158,-0.272689 0.1095396,-0.28442 -0.00265,-0.0057 0.00554,-0.01771 0.018079,-0.02666 0.028687,-0.02049 0.099307,-0.169497 0.093063,-0.19633 -0.00257,-0.01101 0.00934,-0.02 0.026456,-0.02 0.017112,0 0.023165,-0.008 0.013462,-0.01763 -0.00971,-0.0097 0.012292,-0.05691 0.048895,-0.104897 0.036595,-0.04798 0.066546,-0.09858 0.066546,-0.112427 0,-0.01387 0.017869,-0.04001 0.039707,-0.05814 0.021839,-0.01813 0.033764,-0.04258 0.026503,-0.05433 -0.00725,-0.01173 -0.00413,-0.0254 0.00694,-0.03032 0.030473,-0.01352 0.1401777,-0.176201 0.1401777,-0.207882 0,-0.01527 0.010412,-0.02777 0.023126,-0.02777 0.012713,0 0.056469,-0.05039 0.097218,-0.111962 0.040752,-0.06158 0.1244023,-0.166592 0.1858875,-0.233356 0.061484,-0.06676 0.1200276,-0.144105 0.1300937,-0.171874 0.010069,-0.02777 0.025177,-0.04361 0.033577,-0.03519 0.00841,0.0084 0.081452,-0.05889 0.1623322,-0.149533 0.080879,-0.09064 0.1557162,-0.164804 0.1663026,-0.164804 0.010581,0 0.064061,-0.042 0.1188308,-0.09334 0.166403,-0.155973 0.1844687,-0.169974 0.3827367,-0.296604 0.04767,-0.03043 0.086673,-0.06617 0.086673,-0.07939 0,-0.01321 0.018001,-0.02403 0.040004,-0.02403 0.022003,0 0.040003,-0.012 0.040003,-0.02666 0,-0.01466 0.009,-0.02399 0.019999,-0.02075 0.011,0.0034 0.050004,-0.01325 0.086674,-0.03672 0.1700404,-0.108726 0.4081944,-0.236952 0.4679387,-0.251947 0.036267,-0.0091 0.072995,-0.02795 0.081615,-0.04191 0.015837,-0.02564 0.1261882,-0.07739 0.1939911,-0.09099 0.020251,-0.0041 0.049654,-0.02022 0.065339,-0.03592 0.015685,-0.01569 0.053297,-0.02853 0.083583,-0.02853 0.03029,0 0.09985,-0.024 0.154583,-0.05334 0.05474,-0.02933 0.122853,-0.05333 0.151377,-0.05333 0.02852,0 0.0594,-0.01219 0.06861,-0.02712 0.0092,-0.01489 0.02692,-0.02083 0.03934,-0.01314 0.01243,0.0077 0.0566,3.5e-4 0.09817,-0.0163 0.0866,-0.0347 0.246068,-0.0716 0.383311,-0.08872 0.05191,-0.0065 0.129917,-0.02532 0.173347,-0.0419 0.19865,-0.07578 1.527396,-0.05769 1.848811,0.02518 0.05333,0.01375 0.168381,0.03922 0.255654,0.05661 0.08728,0.01737 0.177283,0.04035 0.200018,0.05105 0.02274,0.0107 0.143342,0.05296 0.268017,0.09391 0.308354,0.101294 0.395194,0.137862 0.71763,0.302199 0.416104,0.212072 0.771674,0.455086 0.75563,0.516434 -0.0071,0.02716 -0.02387,0.05614 -0.03726,0.06442 -0.01339,0.0083 -0.134952,-0.05896 -0.270137,-0.149406 -0.308519,-0.206424 -0.91375,-0.504513 -1.24587,-0.613611 -2.649788,-0.870447 -5.4942339,0.475284 -6.497951,3.074237 -0.3704866,0.959313 -0.4328796,2.13092 -0.1681553,3.157621 0.378687,1.468698 1.3796797,2.686604 2.7591229,3.357015 2.0010174,0.972499 4.3893594,0.562364 5.9541294,-1.022467 1.076046,-1.08983 1.624551,-2.633682 1.471889,-4.142813 -0.08385,-0.82886 -0.393982,-1.704068 -0.838567,-2.366454 -0.144927,-0.215927 -0.16693,-0.296589 -0.0809,-0.296589 0.05647,0 0.135885,0.09621 0.303899,0.368198 0.954821,1.545665 1.047647,3.499088 0.244199,5.138918 -0.270269,0.551615 -0.554872,0.949764 -1.008118,1.410324 -1.153941,1.172555 -2.792997,1.745724 -4.426316,1.547862 z"
     id="path1314" /><text
     xml:space="preserve"
     id="text1424"
     style="font-size:14.6667px;font-family:Arial;-inkscape-font-specification:Arial;text-align:justify;white-space:pre;shape-inside:url(#rect1426);display:inline;fill:#dadada;fill-opacity:1;stroke:none;stroke-width:1.472;stroke-dasharray:none;stroke-opacity:0.976471"
     transform="matrix(0.50758835,0,0,0.50758835,-58.10821,75.116118)"><tspan
       x="133"
       y="-126.61912"
       id="tspan3146"><tspan
         style="font-family:Verdana;-inkscape-font-specification:Verdana"
         id="tspan3144">S</tspan></tspan></text><text
     xml:space="preserve"
     id="text1534"
     style="font-size:14.6667px;font-family:Arial;-inkscape-font-specification:Arial;text-align:justify;white-space:pre;shape-inside:url(#rect1536);display:inline;fill:#dadada;fill-opacity:1;stroke:none;stroke-width:1.472;stroke-dasharray:none;stroke-opacity:0.976471"
     transform="matrix(0.45896376,0,0,0.45896376,-40.14741,68.686418)"><tspan
       x="133"
       y="-126.61912"
       id="tspan3150"><tspan
         style="font-family:Verdana;-inkscape-font-specification:Verdana"
         id="tspan3148">W</tspan></tspan></text><text
     xml:space="preserve"
     id="text1613"
     style="font-size:14.6667px;font-family:Arial;-inkscape-font-specification:Arial;text-align:justify;white-space:pre;shape-inside:url(#rect1615);display:inline;fill:#dadada;fill-opacity:1;stroke:none;stroke-width:1.472;stroke-dasharray:none;stroke-opacity:0.976471"
     transform="matrix(0.57196622,0,0,0.5128195,-67.358924,88.004437)"><tspan
       x="133"
       y="-126.61912"
       id="tspan3154"><tspan
         style="font-family:Verdana;-inkscape-font-specification:Verdana"
         id="tspan3152">O</tspan></tspan></text><path
     style="fill:#dadada;fill-opacity:1;stroke:#dadada;stroke-width:0.158326;stroke-dasharray:none;stroke-opacity:0.976471"
     d="m 23.688834,13.505275 c -0.49458,-0.03846 -1.081063,-0.174502 -1.539248,-0.357045 -0.210072,-0.08369 -0.641938,-0.294425 -0.779835,-0.380529 -0.74543,-0.465454 -1.293772,-0.994743 -1.750427,-1.689599 -0.180622,-0.27484 -0.426987,-0.766464 -0.538425,-1.074441 -0.469239,-1.2968039 -0.422302,-2.7422757 0.129603,-3.991181 0.744702,-1.6851953 2.292483,-2.8687994 4.10809,-3.1414993 0.870372,-0.1307282 1.828914,-0.032527 2.658152,0.2723609 0.313726,0.1153446 0.797878,0.3644455 1.102763,0.567384 l 0.285323,0.1899165 -0.05532,0.055319 -0.05531,0.055318 -0.245089,-0.16471 c -0.540309,-0.363101 -1.202067,-0.6417768 -1.831564,-0.7713015 -0.638745,-0.1314291 -1.355658,-0.14105 -1.994371,-0.026776 -1.728011,0.3091841 -3.219344,1.5144676 -3.878869,3.1348721 -0.270871,0.6655092 -0.385715,1.2572922 -0.385646,1.9871924 8.5e-5,0.8664862 0.174394,1.5935221 0.567741,2.3680119 0.697211,1.372785 2.00645,2.382001 3.512015,2.707201 0.331343,0.07157 0.569338,0.09934 0.954723,0.111402 0.903477,0.0283 1.703239,-0.148157 2.503414,-0.55229 0.996873,-0.503476 1.790658,-1.296678 2.292604,-2.29091 0.267437,-0.5297268 0.418762,-1.0069578 0.514905,-1.6238251 0.04386,-0.2813801 0.04954,-1.097206 0.0096,-1.380837 C 29.156971,6.679924 28.883046,5.9472053 28.443943,5.2898354 l -0.158645,-0.2375031 0.05882,-0.052557 0.05882,-0.052557 0.149359,0.2259702 c 0.584956,0.8850007 0.873947,1.7873617 0.907116,2.8324106 0.04092,1.2891751 -0.370639,2.5129199 -1.187011,3.5295319 -0.219338,0.273134 -0.651426,0.691161 -0.930837,0.90054 -0.955977,0.716368 -2.086844,1.091554 -3.254038,1.079591 -0.171145,-0.0019 -0.350557,-0.0062 -0.398692,-0.01 z"
     id="path2416" /><path
     style="fill:#dadada;fill-opacity:1;stroke:#dadada;stroke-width:0.158326;stroke-dasharray:none;stroke-opacity:0.976471"
     d="M 11.463028,25.649212 C 10.968448,25.610745 10.381964,25.47471 9.9237804,25.292167 9.7137085,25.208478 9.2818418,24.997738 9.1439454,24.911637 8.3985154,24.44618 7.8501737,23.916895 7.393518,23.222039 7.212896,22.947198 6.9665317,22.455575 6.8550937,22.147599 6.3858535,20.850794 6.432791,19.405322 6.9846952,18.156417 c 0.7447029,-1.685196 2.2924842,-2.8688 4.1080908,-3.1415 0.870373,-0.130728 1.828914,-0.03252 2.658152,0.272361 0.313726,0.115345 0.797879,0.364446 1.102763,0.567384 l 0.285324,0.189917 -0.05531,0.05531 -0.05532,0.05532 -0.245089,-0.16471 c -0.54031,-0.36309 -1.202068,-0.64177 -1.831565,-0.771295 -0.638745,-0.131429 -1.355657,-0.14105 -1.994371,-0.02678 -1.7280108,0.309184 -3.219344,1.514468 -3.8788684,3.134873 -0.2708719,0.665509 -0.3857151,1.257292 -0.3856457,1.987192 8.42e-5,0.866487 0.1743934,1.593522 0.5677404,2.368012 0.6972108,1.372785 2.0064499,2.382001 3.5120147,2.707197 0.331343,0.07157 0.569338,0.09934 0.954724,0.111406 0.903476,0.0283 1.703239,-0.148157 2.503414,-0.552289 0.996872,-0.503477 1.790657,-1.296679 2.292603,-2.290911 0.267437,-0.529727 0.418763,-1.006957 0.514906,-1.623825 0.04386,-0.28138 0.04954,-1.097206 0.0096,-1.380837 -0.116722,-0.829385 -0.390647,-1.562104 -0.82975,-2.219473 l -0.158645,-0.237503 0.05882,-0.05255 0.05882,-0.05256 0.149359,0.225971 c 0.584956,0.885004 0.873947,1.787362 0.907116,2.83241 0.04092,1.289176 -0.370639,2.512921 -1.187011,3.529533 -0.219338,0.273137 -0.651426,0.691161 -0.930837,0.90054 -0.955977,0.716368 -2.086844,1.091554 -3.254038,1.07959 C 11.690547,25.6573 11.511135,25.653 11.463,25.64919 Z"
     id="path2418" /><text
     xml:space="preserve"
     id="text2472"
     style="font-size:14.6667px;font-family:Arial;-inkscape-font-specification:Arial;text-align:justify;white-space:pre;shape-inside:url(#rect2474);display:inline;fill:#dadada;fill-opacity:1;stroke:none;stroke-width:1.472;stroke-dasharray:none;stroke-opacity:0.976471"
     transform="matrix(0.50758835,0,0,0.50758835,-45.603906,87.195892)"><tspan
       x="133"
       y="-126.61912"
       id="tspan3158"><tspan
         style="font-family:Verdana;-inkscape-font-specification:Verdana"
         id="tspan3156">T</tspan></tspan></text><circle
     style="fill:none;fill-opacity:1;stroke:#dadada;stroke-width:0.279613;stroke-dasharray:none;stroke-opacity:0.976471"
     id="path2528"
     cx="24.198294"
     cy="20.461317"
     r="5.2520299" /><circle
     style="fill:none;fill-opacity:1;stroke:#dadada;stroke-width:0.279613;stroke-dasharray:none;stroke-opacity:0.976471"
     id="circle2530"
     cx="11.86333"
     cy="8.1263485"
     r="5.2520299" /><path
     style="fill:#fd4360;fill-opacity:0.992157;stroke:none;stroke-width:0.28032;stroke-dasharray:none;stroke-opacity:0.976471"
     d="m 2.5410433,4.9745346 c 0,0 -0.047757,0.2183184 0.02729,0.3070093 0.075047,0.088691 0.2592522,0.1637388 0.3957009,-0.095512 C 3.1004842,4.9267765 3.8373064,3.3917302 3.8373064,3.3917302 l 0.013649,26.3209578 c 0,0 0.040932,0.08187 0.1705614,0.09552 0.1296265,0.01363 0.2456077,-0.02045 0.2660752,-0.143271 0.020466,-0.122806 0.00679,-26.2800281 0.00679,-26.2800281 l 0.8596223,1.7874758 c 0,0 0.095514,0.1569173 0.2251409,0.1637388 0.1296257,0.00682 0.25243,-0.095512 0.184206,-0.3615889 C 5.4951288,4.7084581 4.226153,2.3615395 4.226153,2.3615395 c 0,0 -0.1842059,-0.1705603 -0.3820563,0.013635 -0.1978505,0.184207 -1.3030854,2.5993483 -1.3030854,2.5993483 z"
     id="path2586" /></svg>
