<?xml version="1.0" encoding="UTF-8" standalone="no"?>
<svg
   id="OBJECT"
   viewBox="0 0 32 32"
   version="1.1"
   sodipodi:docname="synonym.svg"
   inkscape:version="1.2.2 (732a01da63, 2022-12-09)"
   xml:space="preserve"
   xmlns:inkscape="http://www.inkscape.org/namespaces/inkscape"
   xmlns:sodipodi="http://sodipodi.sourceforge.net/DTD/sodipodi-0.dtd"
   xmlns="http://www.w3.org/2000/svg"
   xmlns:svg="http://www.w3.org/2000/svg"><sodipodi:namedview
     id="namedview21"
     pagecolor="#505050"
     bordercolor="#ffffff"
     borderopacity="1"
     inkscape:showpageshadow="0"
     inkscape:pageopacity="0"
     inkscape:pagecheckerboard="1"
     inkscape:deskcolor="#505050"
     showgrid="false"
     inkscape:zoom="8.0000004"
     inkscape:cx="-2.2499999"
     inkscape:cy="18.749999"
     inkscape:window-width="1920"
     inkscape:window-height="1009"
     inkscape:window-x="-8"
     inkscape:window-y="-8"
     inkscape:window-maximized="1"
     inkscape:current-layer="OBJECT" /><defs
     id="defs4"><style
       id="style2">
      .cls-1 {
        fill: #FD4360;
      }

      .cls-1, .cls-2 {
        stroke-width: 0px;
      }

      .cls-2 {
        fill: #dadada;
      }
    </style><rect
       x="-71.334137"
       y="-12.506634"
       width="33.351025"
       height="31.189384"
       id="rect300" /><rect
       x="-71.334137"
       y="-12.506634"
       width="33.351025"
       height="31.189384"
       id="rect424" /><rect
       x="-71.334137"
       y="-12.506634"
       width="33.351025"
       height="31.189384"
       id="rect574" /></defs><text
     xml:space="preserve"
     id="text298"
     style="font-size:14.6667px;font-family:'Aeonik Fono TRIAL';-inkscape-font-specification:'Aeonik Fono TRIAL';text-align:justify;white-space:pre;shape-inside:url(#rect300);display:inline;fill:#fd4360;fill-opacity:1;stroke-width:0.5"
     transform="matrix(1.3297515,0,0,1.3297515,95.544746,13.413878)"><tspan
       x="-71.333984"
       y="1.3567456"
       id="tspan741"><tspan
         style="font-family:'Times New Roman';-inkscape-font-specification:'Times New Roman, '"
         id="tspan739">T</tspan></tspan></text><path
     style="fill:#dadada;stroke-width:0.0567785"
     d="m 10.711231,9.9616061 c 0.669291,-0.522743 1.25014,-0.719368 1.908701,-0.643605 0.240743,0.02768 0.476719,0.09312 0.626371,0.17368 0.13213,0.07115 0.275054,0.145502 0.317673,0.165407 0.04265,0.01994 0.150166,0.106557 0.239026,0.192485 0.08885,0.08592 0.192129,0.1849029 0.229505,0.2198929 0.03733,0.03497 0.783261,0.96961 1.657291,2.077093 l 1.588714,2.013964 0.542378,-0.4268 c 0.305359,-0.240287 0.553869,-0.412218 0.568494,-0.393634 0.01431,0.01824 0.01432,0.152235 -3.3e-5,0.297553 -0.01448,0.145386 -0.01298,0.281135 0.0032,0.301648 0.01615,0.02053 0.02756,0.121341 0.02551,0.223963 -0.002,0.102719 0.0018,0.406215 0.0087,0.674506 0.0069,0.268297 0.0077,0.568155 0.0018,0.666387 -0.0059,0.0983 -0.0034,0.188438 0.0057,0.200465 0.0091,0.01246 0.01115,0.115187 0.0047,0.229303 -0.0063,0.113982 -0.0025,0.218874 0.0086,0.232969 0.01107,0.0141 0.01571,0.105702 0.01037,0.203456 -0.0054,0.09792 0.0015,0.241426 0.01535,0.319048 0.01386,0.07764 0.01759,0.147116 0.0083,0.154387 -0.0097,0.0077 -0.786066,-0.191613 -1.7262,-0.442042 l -1.709347,-0.455304 0.555267,-0.45268 0.555253,-0.452669 -1.645101,-2.090606 -1.645116,-2.090626 -0.209498,-0.0932 c -0.328606,-0.146217 -0.542864,-0.09219 -0.973437,0.245451 l -0.353042,0.276823 -0.441019,-0.560452 -0.441038,-0.560474 z"
     id="path564" /><path
     style="fill:#dadada;stroke-width:0.0567785"
     d="m 14.467794,18.638591 c -0.02219,-0.948601 -0.03096,-1.739633 -0.01947,-1.757842 0.01116,-0.01859 0.778106,0.168949 1.703616,0.415894 l 1.682745,0.449007 -0.536929,0.43825 -0.536935,0.438242 1.610369,2.053948 c 0.885282,1.130009 1.651071,2.099436 1.701351,2.154612 0.110075,0.122386 0.416719,0.207886 0.610085,0.170812 0.09713,-0.01861 0.26183,-0.121621 0.523248,-0.327337 l 0.381466,-0.300175 0.444852,0.565321 0.444852,0.56532 -0.493921,0.358182 c -0.382854,0.277635 -0.55459,0.377177 -0.763742,0.442595 -0.563166,0.176466 -1.271202,0.09279 -1.806424,-0.213457 -0.241362,-0.138194 -0.24688,-0.144455 -2.008661,-2.362336 l -1.767228,-2.223311 -0.564561,0.428515 -0.564574,0.428525 z"
     id="path566" /><text
     xml:space="preserve"
     id="text572"
     style="font-size:14.6667px;font-family:'Aeonik Fono TRIAL';-inkscape-font-specification:'Aeonik Fono TRIAL';text-align:justify;white-space:pre;shape-inside:url(#rect574);display:inline;fill:#fd4360;fill-opacity:1;stroke-width:0.5"
     transform="matrix(1.3297515,0,0,1.3297515,114.32583,26.162443)"><tspan
       x="-71.333984"
       y="1.3567456"
       id="tspan745"><tspan
         style="font-family:'Times New Roman';-inkscape-font-specification:'Times New Roman, '"
         id="tspan743">T</tspan></tspan></text></svg>
