<?xml version="1.0" encoding="UTF-8"?>
<svg id="OBJECT" xmlns="http://www.w3.org/2000/svg" viewBox="0 0 32 32">
  <defs>
    <style>
      .cls-1 {
        fill: #FD4360;
      }

      .cls-1, .cls-2 {
        stroke-width: 0px;
      }

      .cls-2 {
        fill: #dadada;
      }
    </style>
  </defs>
  <path class="cls-2" d="m28.69,13.27c-1.07-4.95-5.01-8.89-9.96-9.96-.1-1.29-1.17-2.31-2.48-2.31h-.5c-1.31,0-2.38,1.02-2.48,2.31-4.95,1.07-8.89,5.01-9.96,9.96-1.29.1-2.31,1.17-2.31,2.48v.5c0,1.31,1.02,2.38,2.31,2.48,1.07,4.95,5.01,8.89,9.96,9.96.1,1.29,1.17,2.31,2.48,2.31h.5c1.31,0,2.38-1.02,2.48-2.31,4.95-1.07,8.89-5.01,9.96-9.96,1.29-.1,2.31-1.17,2.31-2.48v-.5c0-1.31-1.02-2.38-2.31-2.48ZM15.25,3.5c0-.28.22-.5.5-.5h.5c.28,0,.5.22.5.5v1c0,.28-.22.5-.5.5h-.5c-.28,0-.5-.22-.5-.5v-1ZM3,16.25v-.5c0-.28.22-.5.5-.5h1c.28,0,.5.22.5.5v.5c0,.28-.22.5-.5.5h-1c-.28,0-.5-.22-.5-.5Zm13.75,12.25c0,.28-.22.5-.5.5h-.5c-.28,0-.5-.22-.5-.5v-1c0-.28.22-.5.5-.5h.5c.28,0,.5.22.5.5v1Zm1.85-1.83c-.34-.97-1.26-1.67-2.35-1.67h-.5c-1.09,0-2,.7-2.35,1.67-3.96-.97-7.11-4.11-8.07-8.07.97-.34,1.67-1.26,1.67-2.35v-.5c0-1.09-.7-2-1.67-2.35.97-3.96,4.11-7.11,8.07-8.07.34.97,1.26,1.67,2.35,1.67h.5c1.09,0,2-.7,2.35-1.67,3.96.97,7.11,4.11,8.07,8.07-.97.34-1.67,1.26-1.67,2.35v.5c0,1.09.7,2,1.67,2.35-.97,3.96-4.11,7.11-8.07,8.07Zm10.4-10.42c0,.28-.22.5-.5.5h-1c-.28,0-.5-.22-.5-.5v-.5c0-.28.22-.5.5-.5h1c.28,0,.5.22.5.5v.5Z"/>
  <g>
    <path class="cls-1" d="m16,18.75c-.86,0-1.64-.34-2.21-.9-.73.63-1.17,1.54-1.17,2.52v2.87c1.03.48,2.17.76,3.38.76s2.35-.28,3.38-.76v-2.87c0-.98-.43-1.89-1.17-2.52-.57.55-1.35.9-2.21.9Z"/>
    <path class="cls-1" d="m17.19,15.56v-1.31c0-.41-.34-.75-.75-.75h-.87c-.41,0-.75.34-.75.75v1.31c0,.65.53,1.19,1.19,1.19s1.19-.53,1.19-1.19Z"/>
    <path class="cls-1" d="m24,16c0-4.41-3.59-8-8-8s-8,3.59-8,8c0,2.34,1.02,4.44,2.62,5.91v-1.53c0-1.74.84-3.33,2.24-4.34-.02-.16-.05-.31-.05-.48v-1.31c0-1.52,1.23-2.75,2.75-2.75h.87c1.52,0,2.75,1.23,2.75,2.75v1.31c0,.16-.02.32-.05.48,1.39,1,2.24,2.6,2.24,4.34v1.53c1.61-1.46,2.62-3.57,2.62-5.91Z"/>
  </g>
</svg>