<?xml version="1.0" encoding="UTF-8"?>
<svg id="OBJECT" xmlns="http://www.w3.org/2000/svg" viewBox="0 0 32 32">
  <defs>
    <style>
      .cls-1 {
        fill: #FD4360;
      }

      .cls-1, .cls-2 {
        stroke-width: 0px;
      }

      .cls-2 {
        fill: #dadada;
      }
    </style>
  </defs>
  <path class="cls-2" d="m29.98,25.03l-6.39-6.39c.9-1.68,1.41-3.6,1.41-5.64,0-6.62-5.38-12-12-12S1,6.38,1,13s5.38,12,12,12c2.04,0,3.96-.51,5.64-1.41l6.39,6.39c.68.68,1.58,1.02,2.47,1.02s1.79-.34,2.47-1.02c1.36-1.36,1.36-3.59,0-4.95ZM3,13C3,7.49,7.49,3,13,3s10,4.49,10,10-4.49,10-10,10S3,18.51,3,13Zm25.56,15.56c-.58.58-1.54.58-2.12,0l-6.09-6.09c.79-.62,1.51-1.33,2.12-2.12l6.09,6.09c.59.58.59,1.54,0,2.12Z"/>
  <g>
    <path class="cls-1" d="m13,10.48c-.65,0-1.18.53-1.18,1.18s.53,1.17,1.18,1.17,1.18-.53,1.18-1.17-.53-1.18-1.18-1.18Z"/>
    <path class="cls-1" d="m6.37,16.36h0s.07-.09.1-.13c.13-.19.28-.38.43-.55.09-.1.18-.2.26-.29.11-.12.22-.23.34-.34.1-.1.2-.19.31-.28.12-.11.25-.2.38-.3.1-.08.2-.16.31-.23.23-.16.46-.3.71-.43.08-.04.16-.08.24-.12.19-.09.38-.18.57-.26.09-.04.19-.07.28-.1-.3-.48-.48-1.05-.48-1.65,0-1.75,1.42-3.18,3.18-3.18s3.18,1.42,3.18,3.18c0,.61-.18,1.17-.48,1.65.1.03.19.07.28.1.19.08.38.17.57.26.08.04.16.07.24.12.24.13.48.28.71.43.11.07.21.15.31.23.13.1.26.2.38.3.11.09.21.19.31.28.12.11.23.23.34.34.09.1.18.19.27.29.15.18.29.36.42.55.03.04.07.08.1.13h0c.12.18.23.37.34.56.65-1.16,1.03-2.49,1.03-3.92,0-4.41-3.59-8-8-8s-8,3.59-8,8c0,1.42.38,2.76,1.03,3.92.11-.19.22-.38.34-.56Z"/>
    <path class="cls-1" d="m13,21c2.18,0,4.16-.88,5.6-2.3-.19-.49-.43-.95-.74-1.37-.09-.13-.18-.25-.28-.37-.07-.08-.14-.15-.21-.23-.08-.08-.16-.17-.24-.25-.08-.07-.16-.15-.24-.22-.09-.08-.19-.15-.28-.23-.08-.06-.15-.12-.23-.17-.17-.12-.35-.23-.53-.33-.06-.03-.12-.06-.18-.09-.14-.07-.29-.14-.43-.2-.07-.03-.15-.05-.22-.08-.14-.05-.28-.1-.43-.14-.07-.02-.15-.04-.23-.06-.16-.04-.31-.06-.47-.09-.07,0-.13-.02-.2-.03-.23-.03-.46-.04-.69-.04s-.46.02-.69.04c-.07,0-.13.02-.2.03-.16.02-.32.05-.47.09-.08.02-.15.04-.23.06-.15.04-.29.09-.43.14-.07.03-.15.05-.22.08-.15.06-.29.13-.43.2-.06.03-.12.05-.18.09-.18.1-.36.21-.53.33-.08.05-.15.12-.23.17-.1.07-.19.15-.28.23-.08.07-.16.14-.24.22-.08.08-.16.16-.24.25-.07.08-.14.15-.21.23-.1.12-.19.24-.28.37-.3.42-.55.88-.74,1.37,1.44,1.42,3.42,2.3,5.6,2.3Z"/>
  </g>
</svg>