<?xml version="1.0" encoding="UTF-8"?>
<svg id="OBJECT" xmlns="http://www.w3.org/2000/svg" viewBox="0 0 512 512">
  <defs>
    <style>
      .cls-1 {
        fill: #FD4360;
      }

      .cls-2 {
        fill: #dadada;
      }
    </style>
  </defs>
  <g>
    <path class="cls-2" d="M82.5,222.33h-30c-12.41,0-22.5,10.09-22.5,22.5v30c0,12.41,10.09,22.5,22.5,22.5h30c12.41,0,22.5-10.09,22.5-22.5v-30c0-12.41-10.09-22.5-22.5-22.5Zm7.5,52.5c0,4.14-3.36,7.5-7.5,7.5h-30c-4.14,0-7.5-3.36-7.5-7.5v-30c0-4.14,3.36-7.5,7.5-7.5h30c4.14,0,7.5,3.36,7.5,7.5v30Z"/>
    <path class="cls-2" d="M82.5,407h-30c-12.41,0-22.5,10.09-22.5,22.5v30c0,12.41,10.09,22.5,22.5,22.5h30c12.41,0,22.5-10.09,22.5-22.5v-30c0-12.41-10.09-22.5-22.5-22.5Zm7.5,52.5c0,4.14-3.36,7.5-7.5,7.5h-30c-4.14,0-7.5-3.36-7.5-7.5v-30c0-4.14,3.36-7.5,7.5-7.5h30c4.14,0,7.5,3.36,7.5,7.5v30Z"/>
    <path class="cls-2" d="M327.5,232.33H177.5c-4.14,0-7.5,3.36-7.5,7.5s3.36,7.5,7.5,7.5h150c4.14,0,7.5-3.36,7.5-7.5s-3.36-7.5-7.5-7.5Z"/>
    <path class="cls-2" d="M137.5,247.33h10c4.14,0,7.5-3.36,7.5-7.5s-3.36-7.5-7.5-7.5h-10c-4.14,0-7.5,3.36-7.5,7.5s3.36,7.5,7.5,7.5Z"/>
    <path class="cls-2" d="M137.5,287.33h190c4.14,0,7.5-3.36,7.5-7.5s-3.36-7.5-7.5-7.5H137.5c-4.14,0-7.5,3.36-7.5,7.5s3.36,7.5,7.5,7.5Z"/>
    <path class="cls-2" d="M177.5,417c-4.14,0-7.5,3.36-7.5,7.5s3.36,7.5,7.5,7.5h100c4.14,0,7.5-3.36,7.5-7.5s-3.36-7.5-7.5-7.5h-100Z"/>
    <path class="cls-2" d="M137.5,432h10c4.14,0,7.5-3.36,7.5-7.5s-3.36-7.5-7.5-7.5h-10c-4.14,0-7.5,3.36-7.5,7.5s3.36,7.5,7.5,7.5Z"/>
    <path class="cls-2" d="M327.5,457H137.5c-4.14,0-7.5,3.36-7.5,7.5s3.36,7.5,7.5,7.5h190c4.14,0,7.5-3.36,7.5-7.5s-3.36-7.5-7.5-7.5Z"/>
    <path class="cls-2" d="M498.52,56.66l-9.58-4.47c-11.67-5.44-25.59-.37-31.04,11.3l-92.9,199.23V62.5c0-12.41-10.09-22.5-22.5-22.5h-7.5V22.5c0-12.41-10.09-22.5-22.5-22.5h-20c-12.41,0-22.5,10.09-22.5,22.5v17.5h-55V22.5c0-12.41-10.09-22.5-22.5-22.5h-20c-12.41,0-22.5,10.09-22.5,22.5v17.5h-55V22.5c0-12.41-10.09-22.5-22.5-22.5h-20c-12.41,0-22.5,10.09-22.5,22.5v17.5h-7.5C10.09,40,0,50.09,0,62.5V489.5c0,12.41,10.09,22.5,22.5,22.5H342.5c12.41,0,22.5-10.09,22.5-22.5v-91.25L509.81,87.69c5.44-11.67,.37-25.59-11.3-31.04ZM285,22.5c0-4.14,3.36-7.5,7.5-7.5h20c4.14,0,7.5,3.36,7.5,7.5v17.5h-35V22.5Zm-120,0c0-4.14,3.36-7.5,7.5-7.5h20c4.14,0,7.5,3.36,7.5,7.5v17.5h-35V22.5Zm-120,0c0-4.14,3.36-7.5,7.5-7.5h20c4.14,0,7.5,3.36,7.5,7.5v17.5H45V22.5ZM22.5,55H342.5c4.14,0,7.5,3.36,7.5,7.5v37.5H15V62.5c0-4.14,3.36-7.5,7.5-7.5ZM342.5,497H22.5c-4.14,0-7.5-3.36-7.5-7.5V115H350v179.89l-36.99,79.33c-1.84,3.95-2.54,8.33-2.02,12.66l3.98,33.16-9.88,21.19c-1.75,3.75-.13,8.22,3.63,9.97,1.03,.48,2.1,.71,3.17,.71,2.82,0,5.53-1.6,6.8-4.33l9.88-21.19,21.44-14v77.13c0,4.14-3.36,7.5-7.5,7.5Zm8.82-104.92c-.66,1.42-1.7,2.61-3,3.46,0,0,0,0,0,0l-19.64,12.83-2.8-23.3c-.19-1.55,.06-3.11,.72-4.52l4.71-10.09c4.76-1.73,10.01-1.51,14.73,.69,4.72,2.2,8.26,6.08,10,10.84l-4.71,10.09Zm12.23-26.23c-3.07-3.44-6.84-6.27-11.18-8.29-4.34-2.02-8.94-3.09-13.54-3.23l114.63-245.82,24.72,11.53-114.63,245.81ZM496.22,81.36l-11.7,25.09-24.72-11.53,11.7-25.09c1.42-3.04,4.44-4.82,7.58-4.82,1.18,0,2.38,.25,3.52,.78l9.58,4.47c4.17,1.95,5.99,6.93,4.04,11.1Z"/>
  </g>
  <g>
    <rect class="cls-1" x="30" y="314.67" width="75" height="75" rx="22.5" ry="22.5"/>
    <rect class="cls-1" x="30" y="130" width="75" height="75" rx="22.5" ry="22.5"/>
    <path class="cls-1" d="M307.5,324.67H177.5c-4.14,0-7.5,3.36-7.5,7.5s3.36,7.5,7.5,7.5h130c4.14,0,7.5-3.36,7.5-7.5s-3.36-7.5-7.5-7.5Z"/>
    <path class="cls-1" d="M137.5,339.67h10c4.14,0,7.5-3.36,7.5-7.5s-3.36-7.5-7.5-7.5h-10c-4.14,0-7.5,3.36-7.5,7.5s3.36,7.5,7.5,7.5Z"/>
    <path class="cls-1" d="M287.5,364.67H137.5c-4.14,0-7.5,3.36-7.5,7.5s3.36,7.5,7.5,7.5h150c4.14,0,7.5-3.36,7.5-7.5s-3.36-7.5-7.5-7.5Z"/>
    <path class="cls-1" d="M177.5,155h150c4.14,0,7.5-3.36,7.5-7.5s-3.36-7.5-7.5-7.5H177.5c-4.14,0-7.5,3.36-7.5,7.5s3.36,7.5,7.5,7.5Z"/>
    <path class="cls-1" d="M137.5,155h10c4.14,0,7.5-3.36,7.5-7.5s-3.36-7.5-7.5-7.5h-10c-4.14,0-7.5,3.36-7.5,7.5s3.36,7.5,7.5,7.5Z"/>
    <path class="cls-1" d="M327.5,180H137.5c-4.14,0-7.5,3.36-7.5,7.5s3.36,7.5,7.5,7.5h190c4.14,0,7.5-3.36,7.5-7.5s-3.36-7.5-7.5-7.5Z"/>
  </g>
</svg>