<?xml version="1.0" encoding="UTF-8"?>
<svg id="OBJECT" xmlns="http://www.w3.org/2000/svg" viewBox="0 0 32 32">
  <defs>
    <style>
      .cls-1 {
        fill: #FD4360;
      }

      .cls-1, .cls-2 {
        stroke-width: 0px;
      }

      .cls-2 {
        fill: #dadada;
      }
    </style>
  </defs>
  <g>
    <path class="cls-2" d="m11.06,4.92c0-.57-.46-1.03-1.03-1.03h-4.7c-.57,0-1.03.46-1.03,1.03v4.8c0,.57.46,1.03,1.03,1.03h4.7c.57,0,1.03-.46,1.03-1.03v-4.8Zm-2.07,3.77h-2.63v-2.73h2.63v2.73Z"/>
    <path class="cls-2" d="m19.43,4.84h-5.64c-.57,0-1.03.46-1.03,1.03s.46,1.03,1.03,1.03h5.64c.57,0,1.03-.46,1.03-1.03s-.46-1.03-1.03-1.03Z"/>
    <path class="cls-2" d="m19.43,7.72h-5.64c-.57,0-1.03.46-1.03,1.03s.46,1.03,1.03,1.03h5.64c.57,0,1.03-.46,1.03-1.03s-.46-1.03-1.03-1.03Z"/>
    <path class="cls-2" d="m11.06,13.08c0-.57-.46-1.03-1.03-1.03h-4.7c-.57,0-1.03.46-1.03,1.03v4.8c0,.57.46,1.03,1.03,1.03h4.7c.57,0,1.03-.46,1.03-1.03v-4.8Zm-2.07,3.77h-2.63v-2.73h2.63v2.73Z"/>
    <path class="cls-2" d="m19.43,13.01h-5.64c-.57,0-1.03.46-1.03,1.03s.46,1.03,1.03,1.03h5.64c.57,0,1.03-.46,1.03-1.03s-.46-1.03-1.03-1.03Z"/>
    <path class="cls-2" d="m18.4,16.92c0-.57-.46-1.03-1.03-1.03h-3.57c-.57,0-1.03.46-1.03,1.03s.46,1.03,1.03,1.03h3.57c.57,0,1.03-.46,1.03-1.03Z"/>
    <path class="cls-2" d="m10.03,20.21h-4.7c-.57,0-1.03.46-1.03,1.03v4.8c0,.57.46,1.03,1.03,1.03h4.7c.57,0,1.03-.46,1.03-1.03v-4.8c0-.57-.46-1.03-1.03-1.03Zm-1.03,4.8h-2.63v-2.73h2.63v2.73Z"/>
    <path class="cls-2" d="m17.88,22.21c0-.57-.46-1.03-1.03-1.03h-3.05c-.57,0-1.03.46-1.03,1.03s.46,1.03,1.03,1.03h3.05c.57,0,1.03-.46,1.03-1.03Z"/>
    <path class="cls-2" d="m13.79,24.05c-.57,0-1.03.46-1.03,1.03s.46,1.03,1.03,1.03h2.73c.57,0,1.03-.46,1.03-1.03s-.46-1.03-1.03-1.03h-2.73Z"/>
    <path class="cls-2" d="m22.72,1H2.03c-.57,0-1.03.46-1.03,1.03v26.9c0,.57.46,1.03,1.03,1.03h15.33c.57,0,1.03-.46,1.03-1.03s-.46-1.03-1.03-1.03H3.07V3.07h18.62v13.64c0,.57.46,1.03,1.03,1.03s1.03-.46,1.03-1.03V2.03c0-.57-.46-1.03-1.03-1.03Z"/>
  </g>
  <g>
    <path class="cls-1" d="m22.9,25.17c-.24-.37-.39-.82-.39-1.3,0-1.32,1.07-2.39,2.39-2.39s2.39,1.07,2.39,2.39c0,.48-.14.92-.39,1.3,1.4.49,2.57,1.47,3.3,2.74.51-.89.8-1.91.8-3.01,0-3.36-2.74-6.1-6.1-6.1s-6.1,2.74-6.1,6.1c0,1.09.29,2.12.8,3.01.73-1.27,1.89-2.26,3.3-2.74Z"/>
    <path class="cls-1" d="m25.86,23.87c0-.53-.43-.95-.95-.95s-.95.43-.95.95.43.95.95.95.95-.43.95-.95Z"/>
    <path class="cls-1" d="m24.9,26.26c-1.96,0-3.64,1.22-4.33,2.93,1.11,1.11,2.64,1.81,4.33,1.81s3.22-.69,4.33-1.81c-.69-1.72-2.37-2.93-4.33-2.93Z"/>
  </g>
</svg>