<?xml version="1.0" encoding="UTF-8"?>
<svg id="OBJECT" xmlns="http://www.w3.org/2000/svg" viewBox="0 0 32 32">
  <defs>
    <style>
      .cls-1 {
        fill: #FD4360;
      }

      .cls-1, .cls-2 {
        stroke-width: 0px;
      }

      .cls-2 {
        fill: #dadada;
      }
    </style>
  </defs>
  <g>
    <path class="cls-2" d="m13.5,24c-3.03,0-5.5-2.47-5.5-5.5s2.47-5.5,5.5-5.5c.58,0,1.13.08,1.65.25.52.17,1.09-.12,1.26-.65s-.12-1.09-.65-1.26c-.72-.23-1.48-.35-2.27-.35-4.14,0-7.5,3.36-7.5,7.5s3.36,7.5,7.5,7.5,7.5-3.36,7.5-7.5c0-.79-.12-1.55-.35-2.27-.17-.53-.73-.81-1.26-.64-.53.17-.81.73-.64,1.26.17.52.25,1.07.25,1.65,0,3.03-2.47,5.5-5.5,5.5Z"/>
    <path class="cls-2" d="m25.68,15.73c-.13-.54-.67-.87-1.2-.74-.54.13-.87.67-.75,1.2.17.74.26,1.52.26,2.31,0,5.79-4.71,10.5-10.5,10.5S3,24.29,3,18.5s4.71-10.5,10.5-10.5c.78,0,1.56.09,2.3.26.54.12,1.08-.21,1.2-.75.13-.54-.21-1.08-.75-1.2-.9-.21-1.82-.32-2.76-.32C6.61,6,1,11.61,1,18.5s5.61,12.5,12.5,12.5,12.5-5.61,12.5-12.5c0-.94-.11-1.88-.32-2.77Z"/>
  </g>
  <path class="cls-1" d="m30.98,7.7c-.07-.33-.3-.6-.62-.73l-3.85-1.48-1.48-3.85c-.12-.32-.39-.55-.73-.62-.33-.07-.68.03-.92.27l-4.55,4.55c-.68.68-.97,1.64-.78,2.58l.68,3.42-5.24,5.24-.79-.79c-.39-.39-1.02-.39-1.41,0s-.39,1.02,0,1.41l3,3c.2.2.45.29.71.29s.51-.1.71-.29c.39-.39.39-1.02,0-1.41l-.79-.79,5.24-5.24,3.42.68c.19.04.38.06.56.06.75,0,1.48-.3,2.02-.84l4.55-4.55c.24-.24.34-.58.27-.91Z"/>
</svg>