<?xml version="1.0" encoding="UTF-8"?>
<svg id="OBJECT" xmlns="http://www.w3.org/2000/svg" viewBox="0 0 32 32">
  <defs>
    <style>
      .cls-1 {
        fill: #FD4360;
      }

      .cls-1, .cls-2 {
        stroke-width: 0px;
      }

      .cls-2 {
        fill: #dadada;
      }
    </style>
  </defs>
  <path class="cls-2" d="m30,15h-6.07c-.45-3.61-3.32-6.48-6.93-6.93V2c0-.55-.45-1-1-1s-1,.45-1,1v6.07c-3.61.45-6.48,3.32-6.93,6.93H2c-.55,0-1,.45-1,1s.45,1,1,1h6.07c.45,3.61,3.32,6.48,6.93,6.93v6.07c0,.55.45,1,1,1s1-.45,1-1v-6.07c3.61-.45,6.48-3.32,6.93-6.93h6.07c.55,0,1-.45,1-1s-.45-1-1-1Zm-14-5c3.31,0,6,2.69,6,6,0,.75-.15,1.47-.4,2.14-.83-.82-1.82-1.44-2.9-1.83.3-.48.48-1.05.48-1.65,0-1.75-1.42-3.18-3.18-3.18s-3.18,1.42-3.18,3.18c0,.61.18,1.17.48,1.65-1.09.39-2.07,1.01-2.9,1.83-.25-.67-.4-1.38-.4-2.14,0-3.31,2.69-6,6-6Zm-1.18,4.66c0-.65.53-1.18,1.18-1.18s1.18.53,1.18,1.18-.53,1.18-1.18,1.18-1.18-.53-1.18-1.18Zm1.18,7.34c-1.81,0-3.44-.81-4.54-2.09,1.13-1.31,2.78-2.08,4.54-2.08s3.41.77,4.54,2.08c-1.1,1.28-2.73,2.09-4.54,2.09Z"/>
  <g>
    <path class="cls-1" d="m23.47,21.01s0,.02-.01.02c-.05.07-.1.13-.15.19-.14.19-.28.39-.44.57-.1.12-.21.23-.31.34-.12.13-.24.25-.37.37-.12.11-.23.22-.35.32-.14.12-.28.23-.43.34-.12.09-.23.18-.35.26-.26.18-.52.34-.8.49-.09.05-.18.08-.27.13-.21.11-.43.21-.65.3-.11.04-.22.08-.33.12-.17.06-.35.11-.52.16v3.09c4.61-.98,8.25-4.61,9.23-9.23h-3.1c-.26.9-.65,1.75-1.16,2.51Z"/>
    <path class="cls-1" d="m24.64,13.5h3.09c-.98-4.61-4.62-8.24-9.23-9.23v3.09c2.95.86,5.28,3.19,6.14,6.14Z"/>
    <path class="cls-1" d="m12.65,24.35c-.22-.09-.44-.19-.65-.3-.09-.04-.18-.08-.27-.13-.28-.15-.54-.31-.8-.49-.12-.08-.23-.17-.35-.26-.14-.11-.29-.22-.43-.34-.12-.1-.24-.21-.35-.32-.13-.12-.25-.25-.37-.37-.11-.11-.21-.22-.31-.34-.15-.18-.3-.37-.44-.57-.05-.07-.1-.13-.15-.19,0,0,0-.02-.01-.02-.51-.76-.9-1.61-1.16-2.51h-3.09c.98,4.61,4.61,8.25,9.23,9.23v-3.1c-.18-.05-.35-.1-.52-.16-.11-.04-.22-.08-.33-.12Z"/>
    <path class="cls-1" d="m4.27,13.5h3.09c.86-2.95,3.18-5.28,6.14-6.14v-3.09c-4.61.98-8.24,4.62-9.23,9.23Z"/>
  </g>
</svg>