<?xml version="1.0" encoding="UTF-8"?>
<svg id="OBJECT" xmlns="http://www.w3.org/2000/svg" viewBox="0 0 32 32">
  <defs>
    <style>
      .cls-1 {
        fill: #FD4360;
      }

      .cls-2 {
        fill: #dadada;
      }
    </style>
  </defs>
  <g>
    <path class="cls-2" d="M17.38,7.83c-.52-.2-1.09,.05-1.3,.57-.2,.51,.05,1.09,.57,1.3,3.85,1.51,6.34,5.16,6.34,9.31,0,5.51-4.49,10-10,10S3,24.51,3,19c0-4.59,3.1-8.57,7.54-9.69,.54-.13,.86-.68,.73-1.21s-.68-.86-1.21-.73C4.72,8.71,1,13.49,1,19c0,6.62,5.38,12,12,12s12-5.38,12-12c0-4.98-2.99-9.36-7.62-11.17Z"/>
    <path class="cls-2" d="M15.6,13.05c2.37,1.03,3.9,3.36,3.9,5.95,0,3.58-2.92,6.5-6.5,6.5s-6.5-2.92-6.5-6.5c0-2.59,1.53-4.93,3.9-5.95,.51-.22,.74-.81,.52-1.32s-.81-.74-1.32-.52c-3.1,1.34-5.1,4.4-5.1,7.79,0,4.69,3.81,8.5,8.5,8.5s8.5-3.81,8.5-8.5c0-3.39-2-6.44-5.1-7.79-.51-.22-1.1,.01-1.32,.52-.22,.51,.01,1.1,.52,1.32Z"/>
    <path class="cls-2" d="M10,19c0-.72,.27-1.43,.75-1.98,.36-.42,.32-1.05-.09-1.41-.42-.36-1.05-.32-1.41,.1-.8,.92-1.25,2.09-1.25,3.3,0,2.76,2.24,5,5,5s5-2.24,5-5c0-1.21-.44-2.38-1.25-3.3-.36-.42-.99-.46-1.41-.1-.42,.36-.46,.99-.09,1.41,.49,.56,.75,1.26,.75,1.98,0,1.65-1.35,3-3,3s-3-1.35-3-3Z"/>
  </g>
  <path class="cls-1" d="M29.15,5.5l1.72-3c.18-.31,.18-.69,0-1-.18-.31-.51-.5-.87-.5h-4.84c-1.07,0-2.07,.58-2.61,1.51l-1.14,1.99h-3.42c-3.31,0-6,2.69-6,6v8.5c0,.55,.45,1,1,1s1-.45,1-1V10.5c0-2.21,1.79-4,4-4h3.42l1.14,1.99c.53,.93,1.53,1.51,2.61,1.51h4.84c.36,0,.69-.19,.87-.5,.18-.31,.18-.69,0-1l-1.72-3Z"/>
</svg>