<?xml version="1.0" encoding="UTF-8"?>
<svg id="OBJECT" xmlns="http://www.w3.org/2000/svg" viewBox="0 0 32 32">
  <defs>
    <style>
      .cls-1 {
        fill: #FD4360;
      }

      .cls-1, .cls-2 {
        stroke-width: 0px;
      }

      .cls-2 {
        fill: #dadada;
      }
    </style>
  </defs>
  <path class="cls-2" d="m11,13.06v-4.38l.61-.25s0,0,0,0c1.14-.46,1.88-1.55,1.88-2.79v-3.65c0-.33-.17-.64-.44-.83-.28-.19-.63-.22-.93-.1l-2.13.85-2.13-.85c-.3-.12-.66-.09-.93.1-.27.19-.44.5-.44.83v3.65c0,1.23.74,2.33,1.89,2.79l.61.25v4.38c-4.49.5-8,4.32-8,8.94,0,4.96,4.04,9,9,9s9-4.04,9-9c0-4.62-3.51-8.44-8-8.94Zm-2.5-7.41v-2.17l1.13.45c.24.09.5.09.74,0l1.13-.45v2.17c0,.41-.25.78-.63.93l-.87.35-.87-.35c-.38-.15-.63-.52-.63-.93Zm1.5,17.35c.55,0,1-.45,1-1v-2.82c1.16.41,2,1.51,2,2.82,0,1.65-1.35,3-3,3s-3-1.35-3-3c0-1.3.84-2.4,2-2.82v2.82c0,.55.45,1,1,1Zm0,6c-3.86,0-7-3.14-7-7,0-3.52,2.61-6.43,6-6.92v2.02c-2.28.46-4,2.48-4,4.9,0,2.76,2.24,5,5,5s5-2.24,5-5c0-2.41-1.72-4.43-4-4.9v-2.02c3.39.49,6,3.4,6,6.92,0,3.86-3.14,7-7,7Z"/>
  <g>
    <path class="cls-1" d="m30,1c-.55,0-1,.45-1,1v.17l-2.91.53v4.31c0,.55-.45,1-1,1s-1-.45-1-1v-3.94l-4.09.74v8.4l1,.18v2.12c0,1.38,1.12,2.5,2.5,2.5h.61c.91,0,1.75-.5,2.19-1.3l1.18-2.14,1.52.28v.17c0,.55.45,1,1,1s1-.45,1-1V2c0-.55-.45-1-1-1Zm-5.45,13.74c-.09.16-.26.26-.44.26h-.61c-.28,0-.5-.22-.5-.5v-1.76l2.41.44-.86,1.56Z"/>
    <path class="cls-1" d="m15,6.5v3c0,.55.45,1,1,1h2v-5h-2c-.55,0-1,.45-1,1Z"/>
  </g>
</svg>