<?xml version="1.0" encoding="UTF-8"?>
<svg id="OBJECT" xmlns="http://www.w3.org/2000/svg" viewBox="0 0 32 32">
  <defs>
    <style>
      .cls-1 {
        fill: #FD4360;
      }

      .cls-1, .cls-2 {
        stroke-width: 0px;
      }

      .cls-2 {
        fill: #dadada;
      }
    </style>
  </defs>
  <path class="cls-2" d="m28.69,13.27c-1.07-4.95-5.01-8.89-9.96-9.96-.1-1.29-1.17-2.31-2.48-2.31h-.5c-1.31,0-2.38,1.02-2.48,2.31-4.95,1.07-8.89,5.01-9.96,9.96-1.29.1-2.31,1.17-2.31,2.48v.5c0,1.31,1.02,2.38,2.31,2.48,1.07,4.95,5.01,8.89,9.96,9.96.1,1.29,1.17,2.31,2.48,2.31h.5c1.31,0,2.38-1.02,2.48-2.31,4.95-1.07,8.89-5.01,9.96-9.96,1.29-.1,2.31-1.17,2.31-2.48v-.5c0-1.31-1.02-2.38-2.31-2.48Zm.31,2.98c0,.28-.22.5-.5.5h-2.7c-.55,0-1,.45-1,1s.45,1,1,1h.83c-1,3.84-4.04,6.88-7.88,7.88v-.83c0-.55-.45-1-1-1s-1,.45-1,1v2.7c0,.28-.22.5-.5.5h-.5c-.28,0-.5-.22-.5-.5v-2.7c0-.55-.45-1-1-1s-1,.45-1,1v.83c-3.84-1-6.88-4.04-7.88-7.88h.83c.55,0,1-.45,1-1s-.45-1-1-1h-2.7c-.28,0-.5-.22-.5-.5v-.5c0-.28.22-.5.5-.5h2.7c.55,0,1-.45,1-1s-.45-1-1-1h-.83c1-3.84,4.04-6.88,7.88-7.88v.83c0,.55.45,1,1,1s1-.45,1-1v-2.7c0-.28.22-.5.5-.5h.5c.28,0,.5.22.5.5v2.7c0,.55.45,1,1,1s1-.45,1-1v-.83c3.84,1,6.88,4.04,7.88,7.88h-.83c-.55,0-1,.45-1,1s.45,1,1,1h2.7c.28,0,.5.22.5.5v.5Z"/>
  <path class="cls-1" d="m16,8c-4.41,0-8,3.59-8,8s3.59,8,8,8,8-3.59,8-8-3.59-8-8-8Zm2.99,10.99c-.2.2-.45.29-.71.29s-.51-.1-.71-.29l-2.29-2.29c-.19-.19-.29-.44-.29-.71v-3.43c0-.55.45-1,1-1s1,.45,1,1v3.01l1.99,1.99c.39.39.39,1.02,0,1.41Z"/>
</svg>