<?xml version="1.0" encoding="UTF-8"?>
<svg id="OBJECT" xmlns="http://www.w3.org/2000/svg" viewBox="0 0 32 32">
  <defs>
    <style>
      .cls-1 {
        fill: #FD4360;
      }

      .cls-2 {
        fill: #dadada;
      }
    </style>
  </defs>
  <g>
    <path class="cls-2" d="M30,15h-.55c-.49-6.65-5.8-11.96-12.45-12.45v-.55c0-.55-.45-1-1-1s-1,.45-1,1v.55c-6.65,.49-11.96,5.8-12.45,12.45h-.55c-.55,0-1,.45-1,1s.45,1,1,1h.55c.49,6.65,5.8,11.96,12.45,12.45v.55c0,.55,.45,1,1,1s1-.45,1-1v-.55c6.65-.49,11.96-5.8,12.45-12.45h.55c.55,0,1-.45,1-1s-.45-1-1-1Zm-13,12.45v-.45c0-.55-.45-1-1-1s-1,.45-1,1v.45c-5.54-.48-9.97-4.91-10.45-10.45h.45c.55,0,1-.45,1-1s-.45-1-1-1h-.45c.48-5.54,4.91-9.97,10.45-10.45v.45c0,.55,.45,1,1,1s1-.45,1-1v-.45c5.54,.48,9.97,4.91,10.45,10.45h-.45c-.55,0-1,.45-1,1s.45,1,1,1h.45c-.48,5.54-4.91,9.97-10.45,10.45Z"/>
    <path class="cls-2" d="M28,1h-3c-.55,0-1,.45-1,1s.45,1,1,1h3c.55,0,1,.45,1,1v3c0,.55,.45,1,1,1s1-.45,1-1v-3c0-1.65-1.35-3-3-3Z"/>
    <path class="cls-2" d="M2,8c.55,0,1-.45,1-1v-3c0-.55,.45-1,1-1h3c.55,0,1-.45,1-1s-.45-1-1-1h-3c-1.65,0-3,1.35-3,3v3c0,.55,.45,1,1,1Z"/>
    <path class="cls-2" d="M30,24c-.55,0-1,.45-1,1v3c0,.55-.45,1-1,1h-3c-.55,0-1,.45-1,1s.45,1,1,1h3c1.65,0,3-1.35,3-3v-3c0-.55-.45-1-1-1Z"/>
    <path class="cls-2" d="M7,29h-3c-.55,0-1-.45-1-1v-3c0-.55-.45-1-1-1s-1,.45-1,1v3c0,1.65,1.35,3,3,3h3c.55,0,1-.45,1-1s-.45-1-1-1Z"/>
  </g>
  <g>
    <circle class="cls-1" cx="16" cy="14.25" r="2.25"/>
    <path class="cls-1" d="M16,8c-3.58,0-6.5,2.8-6.5,6.25,0,5.91,5.74,9.46,5.98,9.6,.16,.1,.34,.15,.52,.15s.36-.05,.52-.15c.24-.15,5.98-3.7,5.98-9.6,0-3.45-2.92-6.25-6.5-6.25Zm0,10.5c-2.34,0-4.25-1.91-4.25-4.25s1.91-4.25,4.25-4.25,4.25,1.91,4.25,4.25-1.91,4.25-4.25,4.25Z"/>
  </g>
</svg>