<?xml version="1.0" encoding="UTF-8"?>
<svg id="OBJECT" xmlns="http://www.w3.org/2000/svg" viewBox="0 0 32 32">
  <defs>
    <style>
      .cls-1 {
        fill: #FD4360;
      }

      .cls-1, .cls-2 {
        stroke-width: 0px;
      }

      .cls-2 {
        fill: #dadada;
      }
    </style>
  </defs>
  <path class="cls-1" d="m7,30c0,.55.45,1,1,1h16c.55,0,1-.45,1-1v-2H7v2Z"/>
  <g>
    <path class="cls-2" d="m30,13h-4.05c-.47-4.72-4.23-8.48-8.95-8.95v-2.05c0-.55-.45-1-1-1s-1,.45-1,1v2.05c-4.72.47-8.48,4.23-8.95,8.95H2c-.55,0-1,.45-1,1s.45,1,1,1h4.05c.21,2.08,1.09,4.06,2.49,5.63-.96,1.2-1.54,2.72-1.54,4.37,0,.55.45,1,1,1s1-.45,1-1c0-2.76,2.24-5,5-5h4c2.76,0,5,2.24,5,5,0,.55.45,1,1,1s1-.45,1-1c0-1.65-.58-3.17-1.54-4.37,1.4-1.57,2.27-3.55,2.49-5.63h4.05c.55,0,1-.45,1-1s-.45-1-1-1Zm-6.07,0h-2.02c-.42-2.51-2.4-4.49-4.91-4.91v-2.02c3.61.45,6.48,3.32,6.93,6.93Zm-7.93,5c-2.21,0-4-1.79-4-4s1.79-4,4-4,4,1.79,4,4-1.79,4-4,4Zm-1-11.93v2.02c-2.51.42-4.49,2.4-4.91,4.91h-2.02c.45-3.61,3.32-6.48,6.93-6.93Zm-5,13.2c-1.06-1.2-1.72-2.69-1.93-4.27h2.02c.22,1.3.86,2.46,1.77,3.34-.67.22-1.3.53-1.87.93Zm12.01,0c-.57-.4-1.19-.71-1.87-.93.92-.87,1.55-2.03,1.77-3.34h2.02c-.2,1.57-.87,3.06-1.93,4.27Z"/>
    <path class="cls-2" d="m16.5,13h-1c-.55,0-1,.45-1,1s.45,1,1,1h1c.55,0,1-.45,1-1s-.45-1-1-1Z"/>
  </g>
</svg>