<?xml version="1.0" encoding="UTF-8"?>
<svg id="OBJECT" xmlns="http://www.w3.org/2000/svg" viewBox="0 0 32 32">
  <defs>
    <style>
      .cls-1 {
        fill: #FD4360;
      }

      .cls-1, .cls-2 {
        stroke-width: 0px;
      }

      .cls-2 {
        fill: #dadada;
      }
    </style>
  </defs>
  <g>
    <path class="cls-2" d="m28.5,13h-1.93c-1.04-3.65-3.92-6.53-7.57-7.57v-1.93c0-1.38-1.12-2.5-2.5-2.5h-1c-1.38,0-2.5,1.12-2.5,2.5v1.93c-3.65,1.04-6.53,3.92-7.57,7.57h-1.93c-1.38,0-2.5,1.12-2.5,2.5v1c0,1.38,1.12,2.5,2.5,2.5h1.93c1.04,3.65,3.92,6.53,7.57,7.57v1.93c0,1.38,1.12,2.5,2.5,2.5h1c1.38,0,2.5-1.12,2.5-2.5v-1.93c3.65-1.04,6.53-3.92,7.57-7.57h1.93c1.38,0,2.5-1.12,2.5-2.5v-1c0-1.38-1.12-2.5-2.5-2.5ZM15,3.5c0-.28.22-.5.5-.5h1c.28,0,.5.22.5.5v1.55c-.33-.03-.66-.05-1-.05s-.67.02-1,.05v-1.55ZM3.5,17c-.28,0-.5-.22-.5-.5v-1c0-.28.22-.5.5-.5h1.55c-.03.33-.05.66-.05,1s.02.67.05,1h-1.55Zm13.5,11.5c0,.28-.22.5-.5.5h-1c-.28,0-.5-.22-.5-.5v-1.55c.33.03.66.05,1,.05s.67-.02,1-.05v1.55Zm-1-3.5c-4.96,0-9-4.04-9-9s4.04-9,9-9,9,4.04,9,9-4.04,9-9,9Zm13-8.5c0,.28-.22.5-.5.5h-1.55c.03-.33.05-.66.05-1s-.02-.67-.05-1h1.55c.28,0,.5.22.5.5v1Z"/>
    <path class="cls-2" d="m26,1h-2c-.55,0-1,.45-1,1s.45,1,1,1h2c1.65,0,3,1.35,3,3v2c0,.55.45,1,1,1s1-.45,1-1v-2c0-2.76-2.24-5-5-5Z"/>
    <path class="cls-2" d="m2,9c.55,0,1-.45,1-1v-2c0-1.65,1.35-3,3-3h2c.55,0,1-.45,1-1s-.45-1-1-1h-2C3.24,1,1,3.24,1,6v2c0,.55.45,1,1,1Z"/>
    <path class="cls-2" d="m30,23c-.55,0-1,.45-1,1v2c0,1.65-1.35,3-3,3h-2c-.55,0-1,.45-1,1s.45,1,1,1h2c2.76,0,5-2.24,5-5v-2c0-.55-.45-1-1-1Z"/>
    <path class="cls-2" d="m8,29h-2c-1.65,0-3-1.35-3-3v-2c0-.55-.45-1-1-1s-1,.45-1,1v2c0,2.76,2.24,5,5,5h2c.55,0,1-.45,1-1s-.45-1-1-1Z"/>
  </g>
  <g>
    <circle class="cls-1" cx="16" cy="15" r="1.5"/>
    <path class="cls-1" d="m12.74,16.25c-.15-.39-.24-.81-.24-1.25,0-1.93,1.57-3.5,3.5-3.5s3.5,1.57,3.5,3.5c0,.44-.09.86-.24,1.25,1.45.7,2.63,1.85,3.37,3.25.56-1.05.87-2.24.87-3.5,0-4.14-3.36-7.5-7.5-7.5s-7.5,3.36-7.5,7.5c0,1.27.32,2.46.87,3.5.74-1.4,1.92-2.55,3.37-3.25Z"/>
    <path class="cls-1" d="m10.76,21.36c1.35,1.32,3.2,2.14,5.24,2.14s3.88-.82,5.24-2.14c-.5-1.57-1.69-2.86-3.27-3.47-.56.38-1.24.61-1.97.61s-1.41-.23-1.97-.61c-1.57.61-2.77,1.9-3.27,3.47Z"/>
  </g>
</svg>