<?xml version="1.0" encoding="UTF-8"?>
<svg id="OBJECT" xmlns="http://www.w3.org/2000/svg" viewBox="0 0 512 512">
  <defs>
    <style>
      .cls-1 {
        fill: #FD4360;
      }

      .cls-2 {
        fill: #dadada;
      }
    </style>
  </defs>
  <g>
    <path class="cls-2" d="M389.72,427.38c29.36-37.89,45.28-84.16,45.28-132.88,0-45.5-13.9-89.08-40.21-126.03-2.4-3.37-7.09-4.16-10.46-1.76-3.37,2.4-4.16,7.08-1.76,10.46,24.49,34.4,37.43,74.97,37.43,117.33,0,111.66-90.84,202.5-202.5,202.5S15,406.16,15,294.5,105.84,92,217.5,92c42.36,0,82.93,12.94,117.33,37.43,3.37,2.4,8.06,1.61,10.46-1.76s1.61-8.06-1.76-10.46c-36.95-26.31-80.53-40.21-126.03-40.21-58.1,0-112.72,22.62-153.8,63.7C22.62,181.78,0,236.4,0,294.5c0,48.72,15.92,94.98,45.28,132.88l-15.13,75.65c-.44,2.2,.13,4.49,1.55,6.23,1.42,1.74,3.55,2.75,5.8,2.75h36.46c11.31,0,21.33-6.79,25.53-17.29l5.58-13.94c33.58,20.35,72.17,31.22,112.43,31.22s78.86-10.88,112.43-31.22l5.58,13.94c4.2,10.5,14.22,17.29,25.53,17.29h36.46c2.25,0,4.38-1.01,5.8-2.75,1.42-1.74,1.99-4.02,1.55-6.23l-15.13-75.65Zm-304.16,61.76c-1.91,4.77-6.46,7.86-11.61,7.86h-27.31l11-55.02c1.97,2.14,3.98,4.25,6.05,6.32,8.92,8.92,18.47,16.96,28.56,24.1l-6.7,16.75Zm275.48,7.86c-5.14,0-9.7-3.08-11.61-7.86l-6.7-16.75c10.09-7.13,19.65-15.18,28.56-24.1,2.07-2.07,4.08-4.18,6.05-6.32l11,55.02h-27.31Z"/>
    <path class="cls-2" d="M390,294.5c0,95.12-77.38,172.5-172.5,172.5S45,389.62,45,294.5,122.38,122,217.5,122c34.35,0,67.52,10.07,95.92,29.13,3.44,2.31,8.1,1.39,10.41-2.05,2.31-3.44,1.39-8.1-2.05-10.41-30.89-20.72-66.94-31.67-104.28-31.67-103.39,0-187.5,84.11-187.5,187.5s84.11,187.5,187.5,187.5,187.5-84.11,187.5-187.5c0-37.33-10.95-73.39-31.67-104.28-2.31-3.44-6.97-4.36-10.41-2.05-3.44,2.31-4.36,6.97-2.05,10.41,19.06,28.41,29.13,61.57,29.13,95.92Z"/>
    <path class="cls-2" d="M295.07,177.71c2.11-3.57,.93-8.17-2.64-10.27-22.6-13.37-48.51-20.43-74.93-20.43-81.33,0-147.5,66.17-147.5,147.5s66.17,147.5,147.5,147.5,147.5-66.17,147.5-147.5c0-26.42-7.07-52.33-20.43-74.93-2.11-3.56-6.71-4.74-10.27-2.64-3.56,2.11-4.75,6.71-2.64,10.27,12,20.29,18.35,43.56,18.35,67.29,0,73.06-59.44,132.5-132.5,132.5s-132.5-59.44-132.5-132.5,59.44-132.5,132.5-132.5c23.73,0,47,6.34,67.29,18.35,3.57,2.11,8.17,.93,10.27-2.64Z"/>
    <path class="cls-2" d="M312.65,238.79c-3.71,1.85-5.21,6.35-3.36,10.06,7.11,14.24,10.71,29.6,10.71,45.65,0,56.52-45.98,102.5-102.5,102.5s-102.5-45.98-102.5-102.5,45.98-102.5,102.5-102.5c16.05,0,31.41,3.6,45.65,10.71,3.71,1.85,8.21,.34,10.06-3.36,1.85-3.71,.34-8.21-3.36-10.06-16.34-8.15-33.96-12.29-52.35-12.29-64.79,0-117.5,52.71-117.5,117.5s52.71,117.5,117.5,117.5,117.5-52.71,117.5-117.5c0-18.39-4.13-36.01-12.29-52.35-1.85-3.71-6.35-5.21-10.06-3.36Z"/>
    <path class="cls-2" d="M217.5,237c4.18,0,8.34,.45,12.38,1.34,4.05,.89,8.05-1.67,8.93-5.72,.89-4.05-1.67-8.05-5.72-8.93-5.09-1.12-10.34-1.68-15.6-1.68-39.98,0-72.5,32.52-72.5,72.5s32.52,72.5,72.5,72.5,72.5-32.52,72.5-72.5c0-5.26-.57-10.51-1.68-15.6-.89-4.05-4.89-6.61-8.93-5.72-4.05,.89-6.61,4.89-5.72,8.93,.89,4.04,1.34,8.2,1.34,12.38,0,31.71-25.79,57.5-57.5,57.5s-57.5-25.79-57.5-57.5,25.79-57.5,57.5-57.5Z"/>
  </g>
  <g>
    <path class="cls-1" d="M361.84,118.34l28.28-28.28-14.14-56.57-19.28,19.28c-5.56,5.56-7.82,13.74-5.92,21.37l11.05,44.21Z"/>
    <path class="cls-1" d="M430.78,49.4l-10.93-43.72c-.66-2.62-2.67-4.69-5.27-5.41-2.6-.72-5.39,.01-7.31,1.92l-18.92,18.92,14.14,56.57,28.28-28.28Z"/>
    <path class="cls-1" d="M437.32,64.07l-239.86,239.86c-2.93,2.93-2.93,7.68,0,10.61,2.93,2.93,7.68,2.93,10.61,0L447.93,74.68l-10.61-10.61Z"/>
    <path class="cls-1" d="M511.73,97.42c-.72-2.6-2.79-4.62-5.41-5.27l-43.72-10.93-28.28,28.28,56.57,14.14,18.92-18.92c1.91-1.91,2.65-4.7,1.92-7.31Z"/>
    <path class="cls-1" d="M393.66,150.16l44.21,11.05c1.78,.45,3.6,.66,5.41,.66,5.91,0,11.71-2.33,15.96-6.58l19.28-19.28-56.57-14.14-28.28,28.28Z"/>
  </g>
</svg>