<?xml version="1.0" encoding="UTF-8"?>
<svg id="OBJECT" xmlns="http://www.w3.org/2000/svg" viewBox="0 0 512 512">
  <defs>
    <style>
      .cls-1 {
        fill: #FD4360;
      }

      .cls-2 {
        fill: #dadada;
      }
    </style>
  </defs>
  <g>
    <path class="cls-2" d="M340.73,432.43c21.57-30.54,34.27-67.78,34.27-107.93,0-75.72-45.1-143.59-114.91-172.91-3.81-1.6-8.21,.19-9.82,4.01-1.6,3.82,.19,8.22,4.01,9.82,64.22,26.98,105.71,89.42,105.71,159.09,0,95.12-77.38,172.5-172.5,172.5S15,419.62,15,324.5,88.21,155.19,181.68,152.1c4.14-.14,7.38-3.6,7.25-7.74-.14-4.14-3.62-7.38-7.74-7.25-48.75,1.61-94.32,21.83-128.33,56.91C18.77,229.18,0,275.52,0,324.5c0,40.15,12.69,77.39,34.27,107.93l-14.12,70.6c-.44,2.2,.13,4.49,1.55,6.23,1.42,1.74,3.55,2.75,5.8,2.75h50c2.84,0,5.44-1.6,6.71-4.15l10.29-20.59c27.42,15.73,59.18,24.73,93,24.73s65.57-9,93-24.73l10.29,20.59c1.27,2.54,3.87,4.15,6.71,4.15h50c2.25,0,4.38-1.01,5.8-2.75,1.42-1.74,2-4.02,1.55-6.23l-14.12-70.6ZM72.86,497H36.65l9.82-49.09c10.39,11.86,22.24,22.39,35.28,31.33l-8.88,17.76Zm229.27,0l-8.88-17.76c13.04-8.94,24.89-19.47,35.28-31.33l9.82,49.09h-36.22Z"/>
    <path class="cls-2" d="M237.18,190.92c55.52,20.64,92.82,74.32,92.82,133.58,0,78.57-63.92,142.5-142.5,142.5S45,403.07,45,324.5c0-70.65,52.66-131.31,122.5-141.1,4.1-.58,6.96-4.37,6.39-8.47-.58-4.1-4.37-6.96-8.47-6.39-37.25,5.22-71.49,23.76-96.41,52.19-25.16,28.7-39.01,65.55-39.01,103.76,0,86.85,70.65,157.5,157.5,157.5s157.5-70.65,157.5-157.5c0-32.77-9.97-64.19-28.83-90.85-18.45-26.07-43.95-45.71-73.76-56.79-3.88-1.44-8.2,.53-9.64,4.42s.53,8.2,4.42,9.64Z"/>
    <path class="cls-2" d="M219.21,259.31c25.16,12.26,40.79,37.24,40.79,65.19,0,39.98-32.52,72.5-72.5,72.5s-72.5-32.52-72.5-72.5c0-27.96,15.63-52.94,40.79-65.2,3.72-1.81,5.27-6.3,3.46-10.03-1.81-3.72-6.3-5.27-10.03-3.46-30.36,14.79-49.21,44.94-49.21,78.68,0,48.25,39.25,87.5,87.5,87.5s87.5-39.25,87.5-87.5c0-33.74-18.86-63.88-49.21-78.67-3.72-1.82-8.21-.27-10.03,3.46-1.81,3.72-.27,8.21,3.46,10.03Z"/>
    <path class="cls-2" d="M223.24,228.41c39.93,14.86,66.76,53.47,66.76,96.09,0,56.52-45.98,102.5-102.5,102.5s-102.5-45.98-102.5-102.5c0-45.26,29.03-84.62,72.23-97.94,3.96-1.22,6.18-5.42,4.96-9.38-1.22-3.96-5.42-6.18-9.38-4.96-23.48,7.24-44.57,22.11-59.38,41.87-15.32,20.44-23.42,44.79-23.42,70.4,0,64.79,52.71,117.5,117.5,117.5s117.5-52.71,117.5-117.5c0-24.45-7.44-47.88-21.51-67.77-13.75-19.45-32.78-34.1-55.02-42.37-3.88-1.45-8.2,.53-9.65,4.41-1.44,3.88,.53,8.2,4.41,9.65Z"/>
  </g>
  <g>
    <path class="cls-1" d="M492,65h-124.5c-103.39,0-187.5,84.11-187.5,187.5v61.64c0,4.67,1.82,9.07,5.13,12.37l2.37,2.37,2.37-2.37c3.31-3.31,5.13-7.7,5.13-12.37v-61.64c0-95.12,77.38-172.5,172.5-172.5h124.5v-15Z"/>
    <path class="cls-1" d="M454.42,0h-36.43c-7.86,0-15.25,4.19-19.29,10.92l-23.45,39.08h59.17L454.42,0Z"/>
    <path class="cls-1" d="M495.58,50l15.89-39.71c.92-2.31,.64-4.93-.75-6.99-1.4-2.06-3.72-3.3-6.21-3.3h-33.92l-20,50h45Z"/>
    <path class="cls-1" d="M375.25,95l23.45,39.08c4.04,6.74,11.44,10.92,19.29,10.92h36.43l-20-50h-59.17Z"/>
    <path class="cls-1" d="M495.58,95h-45l20,50h33.92c2.49,0,4.82-1.23,6.21-3.3,1.39-2.06,1.68-4.68,.75-6.99l-15.89-39.71Z"/>
  </g>
</svg>