<?xml version="1.0" encoding="UTF-8"?>
<svg id="OBJECT" xmlns="http://www.w3.org/2000/svg" viewBox="0 0 512 512">
  <defs>
    <style>
      .cls-1 {
        fill: #FD4360;
      }

      .cls-2 {
        fill: #dadada;
      }
    </style>
  </defs>
  <path class="cls-2" d="M493.14,42.5l17.87-31.28c1.33-2.32,1.32-5.17-.02-7.49-1.34-2.31-3.81-3.74-6.49-3.74h-71.29c-8.05,0-15.54,4.34-19.54,11.34l-13.52,23.66h-14.15c-27,0-52.21,7.83-73.47,21.33-17.98-5.1-36.94-7.83-56.53-7.83-114.42,0-207.5,93.08-207.5,207.5,0,18.43,2.43,36.67,7.21,54.33C22.53,328.65,0,363.99,0,404.5c0,59.28,48.22,107.5,107.5,107.5,40.51,0,75.85-22.53,94.17-55.71,17.66,4.78,35.9,7.21,54.33,7.21,114.42,0,207.5-93.08,207.5-207.5,0-87.75-54.76-162.95-131.9-193.24,16.4-8.16,34.87-12.76,54.4-12.76h14.15l13.52,23.66c4,6.99,11.48,11.34,19.54,11.34h71.29c2.67,0,5.15-1.42,6.49-3.74,1.34-2.31,1.35-5.16,.02-7.49l-17.87-31.28ZM63.5,256c0-106.15,86.35-192.5,192.5-192.5,14.02,0,27.7,1.52,40.88,4.38-4.65,3.97-9.04,8.24-13.13,12.79-9.04-1.43-18.31-2.17-27.75-2.17-97.87,0-177.5,79.63-177.5,177.5,0,14.77,1.82,29.4,5.42,43.61-4.93,1.11-9.73,2.56-14.38,4.32-4-15.61-6.03-31.69-6.03-47.93Zm44,41c-2.92,0-5.82,.12-8.68,.35-3.53-13.45-5.32-27.33-5.32-41.35,0-89.6,72.9-162.5,162.5-162.5,5.71,0,11.35,.3,16.92,.88-14.73,21.26-23.64,46.85-24.37,74.44-44.77,3.79-80.05,41.44-80.05,87.18,0,48.25,39.25,87.5,87.5,87.5s87.5-39.25,87.5-87.5c0-45.7-35.22-83.32-79.94-87.17,.8-27.04,10.4-51.91,26.04-71.83,73.54,15.52,128.9,80.91,128.9,159,0,89.6-72.9,162.5-162.5,162.5-14.02,0-27.9-1.79-41.35-5.32,.23-2.86,.35-5.76,.35-8.68,0-59.28-48.22-107.5-107.5-107.5Zm148.5-33.5c4.14,0,7.5-3.36,7.5-7.5v-41.82c19.87,3.55,35,20.95,35,41.82,0,23.43-19.07,42.5-42.5,42.5s-42.5-19.07-42.5-42.5c0-20.87,15.13-38.27,35-41.82v41.82c0,4.14,3.36,7.5,7.5,7.5Zm-7.5-64.49c-28.17,3.69-50,27.83-50,56.99,0,31.71,25.79,57.5,57.5,57.5s57.5-25.79,57.5-57.5c0-29.16-21.83-53.31-50-56.99v-15.12c36.47,3.77,65,34.67,65,72.11,0,39.98-32.52,72.5-72.5,72.5s-72.5-32.52-72.5-72.5c0-37.44,28.53-68.35,65-72.11v15.12ZM107.5,497c-51,0-92.5-41.5-92.5-92.5s41.5-92.5,92.5-92.5,92.5,41.5,92.5,92.5-41.5,92.5-92.5,92.5Zm341-241c0,106.15-86.35,192.5-192.5,192.5-16.24,0-32.32-2.03-47.93-6.03,1.76-4.65,3.21-9.45,4.32-14.38,14.21,3.59,28.84,5.42,43.61,5.42,97.87,0,177.5-79.63,177.5-177.5,0-82.3-56.31-151.7-132.43-171.69,4.34-4.18,8.98-8.05,13.9-11.55,77.39,24.96,133.53,97.67,133.53,183.25Zm-15.29-241h18.37l-11.43,20h-22.72l9.27-16.22c1.33-2.33,3.83-3.78,6.51-3.78Zm-6.51,51.22l-9.27-16.22h22.72l11.43,20h-18.37c-2.68,0-5.18-1.45-6.51-3.78Zm42.16,3.78l-11.43-20h22.72l11.43,20h-22.72Zm11.3-35h-22.72l11.43-20h22.72l-11.43,20Z"/>
  <g>
    <path class="cls-1" d="M131.73,414.18c-6.29,6.05-14.83,9.78-24.23,9.78s-17.94-3.73-24.23-9.78c-18.37,7.35-32.04,22.43-37.78,40.78,14.68,18.01,37.03,29.54,62.02,29.54s47.34-11.53,62.02-29.54c-5.74-18.35-19.42-33.44-37.78-40.78Z"/>
    <path class="cls-1" d="M74.82,401.47c-1.49-3.89-2.32-8.1-2.32-12.51,0-19.3,15.7-35,35-35s35,15.7,35,35c0,4.41-.83,8.62-2.32,12.51,17.45,7.77,31.19,21.32,39.28,37.96,5.15-10.56,8.04-22.41,8.04-34.93,0-44.11-35.89-80-80-80s-80,35.89-80,80c0,12.52,2.9,24.37,8.04,34.93,8.08-16.64,21.83-30.19,39.28-37.96Z"/>
    <circle class="cls-1" cx="107.5" cy="388.96" r="20"/>
  </g>
</svg>