<?xml version="1.0" encoding="UTF-8"?>
<svg id="OBJECT" xmlns="http://www.w3.org/2000/svg" viewBox="0 0 32 32">
  <defs>
    <style>
      .cls-1 {
        fill: #FD4360;
      }

      .cls-1, .cls-2 {
        stroke-width: 0px;
      }

      .cls-2 {
        fill: #dadada;
      }
    </style>
  </defs>
  <path class="cls-1" d="m24.47,13h3.13c-1.09-4.21-4.4-7.53-8.61-8.62v3.14c2.55.91,4.57,2.93,5.47,5.48Z"/>
  <path class="cls-1" d="m13,7.53v-3.13c-4.21,1.09-7.53,4.4-8.62,8.61h3.14c.91-2.55,2.93-4.57,5.48-5.47Z"/>
  <path class="cls-1" d="m7.53,19h-3.13c1.09,4.21,4.4,7.53,8.61,8.62v-3.14c-2.55-.91-4.57-2.93-5.47-5.48Z"/>
  <path class="cls-1" d="m19,24.48v3.14c4.2-1.09,7.52-4.41,8.61-8.62h-3.13c-.91,2.55-2.93,4.57-5.47,5.48Z"/>
  <g>
    <path class="cls-2" d="m30,15h-6.57c-.45-3.34-3.09-5.98-6.43-6.43V2c0-.55-.45-1-1-1s-1,.45-1,1v6.57c-3.34.45-5.98,3.09-6.43,6.43H2c-.55,0-1,.45-1,1s.45,1,1,1h6.57c.45,3.34,3.09,5.98,6.43,6.43v6.57c0,.55.45,1,1,1s1-.45,1-1v-6.57c3.34-.45,5.98-3.09,6.43-6.43h6.57c.55,0,1-.45,1-1s-.45-1-1-1Zm-14,6.5c-3.03,0-5.5-2.47-5.5-5.5s2.47-5.5,5.5-5.5,5.5,2.47,5.5,5.5-2.47,5.5-5.5,5.5Z"/>
    <path class="cls-2" d="m16,12c-2.21,0-4,1.79-4,4s1.79,4,4,4,4-1.79,4-4-1.79-4-4-4Zm0,6c-1.1,0-2-.9-2-2s.9-2,2-2,2,.9,2,2-.9,2-2,2Z"/>
  </g>
</svg>