<?xml version="1.0" encoding="UTF-8"?>
<svg id="OBJECT" xmlns="http://www.w3.org/2000/svg" viewBox="0 0 512 512">
  <defs>
    <style>
      .cls-1 {
        fill: #FD4360;
      }

      .cls-2 {
        fill: #dadada;
      }
    </style>
  </defs>
  <g>
    <path class="cls-2" d="M396.58,418.02c24.97-36.04,38.42-78.74,38.42-123.52,0-35.73-8.86-71.17-25.63-102.47-1.96-3.65-6.5-5.03-10.15-3.07-3.65,1.96-5.03,6.5-3.07,10.15,15.6,29.13,23.85,62.12,23.85,95.39,0,111.66-90.84,202.5-202.5,202.5S15,406.16,15,294.5,105.84,92,217.5,92c33.27,0,66.26,8.25,95.39,23.85,3.65,1.96,8.2,.58,10.15-3.07,1.96-3.65,.58-8.2-3.07-10.15-31.3-16.77-66.74-25.63-102.47-25.63-58.1,0-112.72,22.62-153.8,63.7C22.62,181.78,0,236.4,0,294.5c0,44.78,13.45,87.48,38.42,123.52l-28.04,84.11c-.76,2.29-.38,4.8,1.03,6.76,1.41,1.96,3.67,3.11,6.08,3.11h50c2.51,0,4.85-1.25,6.24-3.34l22.4-33.6c35.58,24.02,77.48,36.94,121.36,36.94s85.78-12.92,121.36-36.94l22.4,33.6c1.39,2.09,3.73,3.34,6.24,3.34h50c2.41,0,4.67-1.16,6.08-3.11,1.41-1.96,1.79-4.47,1.03-6.76l-28.04-84.11ZM63.49,497H27.91l21.49-64.46c4.49,5.44,9.26,10.7,14.31,15.76,6.44,6.44,13.22,12.43,20.29,17.95l-20.5,30.76Zm308.03,0l-20.5-30.76c7.07-5.52,13.84-11.51,20.29-17.95,5.05-5.05,9.82-10.31,14.31-15.76l21.49,64.46h-35.58Z"/>
    <path class="cls-2" d="M390,294.5c0,95.12-77.38,172.5-172.5,172.5S45,389.62,45,294.5,122.38,122,217.5,122c25.66,0,50.36,5.5,73.4,16.35,3.75,1.76,8.22,.16,9.98-3.59s.16-8.22-3.59-9.98c-25.06-11.8-51.9-17.78-79.79-17.78-103.39,0-187.5,84.11-187.5,187.5s84.11,187.5,187.5,187.5,187.5-84.11,187.5-187.5c0-27.89-5.98-54.74-17.79-79.8-1.76-3.75-6.23-5.35-9.98-3.59-3.75,1.77-5.35,6.23-3.59,9.98,10.85,23.04,16.36,47.74,16.36,73.4Z"/>
    <path class="cls-2" d="M335,294.5c0,64.79-52.71,117.5-117.5,117.5s-117.5-52.71-117.5-117.5,52.71-117.5,117.5-117.5c10.86,0,21.61,1.48,31.95,4.4,3.99,1.12,8.13-1.19,9.25-5.18,1.12-3.99-1.19-8.13-5.18-9.25-11.67-3.29-23.79-4.96-36.03-4.96-73.06,0-132.5,59.44-132.5,132.5s59.44,132.5,132.5,132.5,132.5-59.44,132.5-132.5c0-12.24-1.67-24.36-4.96-36.03-1.12-3.99-5.27-6.31-9.25-5.18-3.99,1.12-6.31,5.27-5.18,9.25,2.92,10.34,4.4,21.09,4.4,31.95Z"/>
    <path class="cls-2" d="M217.5,382c-48.25,0-87.5-39.25-87.5-87.5s39.25-87.5,87.5-87.5c3.51,0,7.03,.21,10.47,.63,.3,.04,.61,.05,.91,.05,4.14,0,7.5-3.36,7.5-7.5,0-3.87-2.94-7.06-6.71-7.46-4-.48-8.1-.72-12.17-.72-56.52,0-102.5,45.98-102.5,102.5s45.98,102.5,102.5,102.5,102.5-45.98,102.5-102.5c0-4.05-.24-8.12-.71-12.11-.37-3.8-3.57-6.76-7.46-6.76-4.14,0-7.5,3.36-7.5,7.5,0,.3,.02,.6,.05,.9,.42,3.45,.63,6.97,.63,10.47,0,48.25-39.25,87.5-87.5,87.5Z"/>
  </g>
  <g>
    <path class="cls-1" d="M257.73,199.76c-10.58,10.58-17.57,24.56-19.68,39.36l-4.04,28.26-24.82,24.82c-2.93,2.93-2.93,7.68,0,10.61,1.46,1.46,3.38,2.2,5.3,2.2s3.84-.73,5.3-2.2l24.82-24.82,28.26-4.04c14.81-2.12,28.79-9.11,39.37-19.68l2.01-2.01-54.51-54.51-2.01,2.01Z"/>
    <path class="cls-1" d="M270.35,187.14l54.51,54.51,47.93-47.93-54.51-54.51-47.93,47.93Zm51.03,21.4c-1.46,1.46-3.38,2.2-5.3,2.2s-3.84-.73-5.3-2.2l-7.32-7.32c-2.93-2.93-2.93-7.68,0-10.61,2.93-2.93,7.68-2.93,10.61,0l7.32,7.32c2.93,2.93,2.93,7.68,0,10.61Zm.37-36.22c2.93-2.93,7.68-2.93,10.61,0l7.32,7.32c2.93,2.93,2.93,7.68,0,10.61-1.46,1.46-3.38,2.2-5.3,2.2s-3.84-.73-5.3-2.2l-7.32-7.32c-2.93-2.93-2.93-7.68,0-10.61Z"/>
    <path class="cls-1" d="M409.42,108.47c-.59-2.97-2.92-5.29-5.88-5.88l-25.72-5.15c-9.27-1.85-18.79,1.03-25.47,7.71l-23.45,23.45,54.51,54.51,23.45-23.45c6.68-6.68,9.56-16.2,7.71-25.47l-5.15-25.72Z"/>
    <path class="cls-1" d="M511.61,63.67c-.9-2.7-3.24-4.65-6.05-5.05l-36.37-5.2-46.83,46.83c.79,1.66,1.39,3.42,1.76,5.28l3.12,15.59,14.73,2.1c1.31,.19,2.63,.28,3.94,.28,7.42,0,14.68-2.95,19.98-8.25l43.9-43.9c2.01-2.01,2.71-4.98,1.81-7.67Z"/>
    <path class="cls-1" d="M390.89,84.76l15.59,3.12c1.86,.37,3.62,.98,5.28,1.76l46.83-46.83-5.2-36.37c-.4-2.81-2.36-5.16-5.05-6.05-2.7-.9-5.67-.2-7.68,1.81l-43.9,43.9c-6.24,6.24-9.22,15.19-7.97,23.92l2.1,14.73Z"/>
  </g>
</svg>