<?xml version="1.0" encoding="UTF-8"?>
<svg id="OBJECT" xmlns="http://www.w3.org/2000/svg" viewBox="0 0 32 32">
  <defs>
    <style>
      .cls-1 {
        fill: #FD4360;
      }

      .cls-1, .cls-2 {
        stroke-width: 0px;
      }

      .cls-2 {
        fill: #dadada;
      }
    </style>
  </defs>
  <g>
    <path class="cls-2" d="m28.35,12.82c-.17-.53-.73-.82-1.26-.65-.53.17-.82.73-.65,1.26.37,1.16.55,2.36.55,3.58,0,6.62-5.38,12-12,12S3,23.62,3,17,8.38,5,15,5c1.22,0,2.42.19,3.58.55.52.17,1.09-.12,1.26-.65.17-.53-.12-1.09-.65-1.26-1.35-.43-2.76-.65-4.18-.65C7.28,3,1,9.28,1,17s6.28,14,14,14,14-6.28,14-14c0-1.42-.22-2.83-.65-4.18Z"/>
    <path class="cls-2" d="m15,24c-3.86,0-7-3.14-7-7s2.87-6.74,6.53-6.98c.55-.04.97-.51.93-1.06-.04-.55-.51-.98-1.06-.93-4.71.32-8.39,4.26-8.39,8.98,0,4.96,4.04,9,9,9s8.66-3.69,8.98-8.39c.04-.55-.38-1.03-.93-1.06-.55-.05-1.03.38-1.06.93-.25,3.66-3.31,6.53-6.98,6.53Z"/>
  </g>
  <g>
    <path class="cls-1" d="m30.29,2.22l-.51-.51c-.94-.94-2.48-.94-3.42,0l-1.42,1.42,3.94,3.94,1.42-1.42c.94-.94.94-2.48,0-3.42Z"/>
    <path class="cls-1" d="m16.78,11.29c.94.23,1.81.71,2.52,1.42.71.71,1.19,1.58,1.42,2.52l6.74-6.74-3.94-3.94-6.74,6.74Z"/>
    <path class="cls-1" d="m17.88,14.12c-.76-.76-1.81-1.11-2.87-.96-.02,0-.04,0-.06,0-.43.55-.73,1.2-.83,1.9l-.23,1.63-1.6,1.6c-.39.39-.39,1.02,0,1.41.2.2.45.29.71.29s.51-.1.71-.29l1.6-1.6,1.63-.23c.69-.1,1.35-.39,1.9-.83,0-.02,0-.04,0-.06.15-1.06-.2-2.11-.96-2.87Z"/>
  </g>
</svg>