<?xml version="1.0" encoding="UTF-8"?>
<svg id="OBJECT" xmlns="http://www.w3.org/2000/svg" viewBox="0 0 32 32">
  <defs>
    <style>
      .cls-1 {
        fill: #FD4360;
      }

      .cls-1, .cls-2 {
        stroke-width: 0px;
      }

      .cls-2 {
        fill: #dadada;
      }
    </style>
  </defs>
  <path class="cls-2" d="m30,15h-1.05c-.49-6.37-5.58-11.46-11.95-11.95v-1.05c0-.55-.45-1-1-1s-1,.45-1,1v1.05c-6.37.49-11.46,5.58-11.95,11.95h-1.05c-.55,0-1,.45-1,1s.45,1,1,1h1.05c.49,6.37,5.58,11.46,11.95,11.95v1.05c0,.55.45,1,1,1s1-.45,1-1v-1.05c6.37-.49,11.46-5.58,11.95-11.95h1.05c.55,0,1-.45,1-1s-.45-1-1-1Zm-14,12c-6.07,0-11-4.93-11-11s4.93-11,11-11,11,4.93,11,11-4.93,11-11,11Z"/>
  <g>
    <path class="cls-1" d="m12.22,15.84c-.21-.5-.33-1.04-.33-1.62,0-2.27,1.84-4.11,4.11-4.11s4.11,1.84,4.11,4.11c0,.57-.12,1.12-.33,1.62,1.87.87,3.37,2.36,4.27,4.17.6-1.21.95-2.57.95-4.01,0-4.96-4.04-9-9-9s-9,4.04-9,9c0,1.44.35,2.8.95,4.01.9-1.81,2.4-3.3,4.27-4.17Z"/>
    <path class="cls-1" d="m16,12.11c-1.16,0-2.11.95-2.11,2.11s.95,2.11,2.11,2.11,2.11-.95,2.11-2.11-.95-2.11-2.11-2.11Z"/>
    <path class="cls-1" d="m18.48,17.48c-.69.53-1.54.85-2.48.85s-1.79-.33-2.48-.85c-2.04.78-3.59,2.47-4.21,4.52,1.65,1.84,4.03,3,6.69,3s5.04-1.16,6.69-3c-.62-2.05-2.17-3.74-4.21-4.52Z"/>
  </g>
</svg>