<?xml version="1.0" encoding="UTF-8"?>
<svg id="OBJECT" xmlns="http://www.w3.org/2000/svg" viewBox="0 0 32 32">
  <defs>
    <style>
      .cls-1 {
        fill: #FD4360;
      }

      .cls-1, .cls-2 {
        stroke-width: 0px;
      }

      .cls-2 {
        fill: #dadada;
      }
    </style>
  </defs>
  <g>
    <path class="cls-2" d="m19.81,16.06c-.52-.18-1.09.09-1.28.61-1.12,3.19-4.15,5.33-7.54,5.33-4.41,0-8-3.59-8-8S6.59,6,11,6c3.39,0,6.42,2.14,7.54,5.33.18.52.75.79,1.28.61.52-.18.79-.75.61-1.27-1.4-3.99-5.19-6.67-9.42-6.67C5.49,4,1,8.49,1,14c0,2.64,1.04,5.04,2.71,6.83l-1.2,5.98c-.06.29.02.6.21.83.19.23.47.37.77.37h3.19c1.55,0,2.83-1.16,2.98-2.7l.14-1.38c.39.05.79.08,1.19.08s.8-.03,1.19-.08l.14,1.38c.15,1.54,1.44,2.7,2.98,2.7h3.19c.3,0,.58-.13.77-.37.19-.23.27-.54.21-.83l-1.19-5.97c.93-.99,1.67-2.17,2.14-3.5.18-.52-.09-1.09-.61-1.27Zm-12.13,9.04c-.05.51-.48.9-.99.9h-1.97l.74-3.68c.73.49,1.54.88,2.39,1.17l-.16,1.62Zm7.62.9c-.52,0-.94-.39-.99-.9l-.16-1.61c.85-.28,1.65-.68,2.39-1.17l.74,3.69h-1.97Z"/>
    <path class="cls-2" d="m11,10c1.25,0,2.45.6,3.2,1.6.33.44.96.53,1.4.2.44-.33.53-.96.2-1.4-1.13-1.5-2.92-2.4-4.8-2.4-3.31,0-6,2.69-6,6s2.69,6,6,6c1.88,0,3.67-.9,4.8-2.4.33-.44.24-1.07-.2-1.4-.44-.33-1.07-.24-1.4.2-.75,1-1.95,1.6-3.2,1.6-2.21,0-4-1.79-4-4s1.79-4,4-4Z"/>
  </g>
  <path class="cls-1" d="m29.12,14l1.78-3.55c.16-.31.14-.68-.04-.97-.18-.29-.5-.47-.85-.47h-3.76c-1.14,0-2.17.64-2.68,1.66l-1.17,2.34h-11.38c-.55,0-1,.45-1,1s.45,1,1,1h11.38l1.17,2.34c.51,1.02,1.54,1.66,2.68,1.66h3.76c.35,0,.67-.18.85-.47.18-.29.2-.66.04-.97l-1.78-3.55Z"/>
</svg>