<?xml version="1.0" encoding="UTF-8"?>
<svg id="OBJECT" xmlns="http://www.w3.org/2000/svg" viewBox="0 0 32 32">
  <defs>
    <style>
      .cls-1 {
        fill: #FD4360;
      }

      .cls-1, .cls-2 {
        stroke-width: 0px;
      }

      .cls-2 {
        fill: #dadada;
      }
    </style>
  </defs>
  <path class="cls-2" d="m30,15h-.55c-.49-6.65-5.8-11.96-12.45-12.45v-.55c0-.55-.45-1-1-1s-1,.45-1,1v.55c-6.65.49-11.96,5.8-12.45,12.45h-.55c-.55,0-1,.45-1,1s.45,1,1,1h.55c.49,6.65,5.8,11.96,12.45,12.45v.55c0,.55.45,1,1,1s1-.45,1-1v-.55c6.65-.49,11.96-5.8,12.45-12.45h.55c.55,0,1-.45,1-1s-.45-1-1-1Zm-13,12.45v-1.45c0-.55-.45-1-1-1s-1,.45-1,1v1.45c-5.54-.48-9.97-4.91-10.45-10.45h1.45c.55,0,1-.45,1-1s-.45-1-1-1h-1.45c.48-5.54,4.91-9.97,10.45-10.45v1.45c0,.55.45,1,1,1s1-.45,1-1v-1.45c5.54.48,9.97,4.91,10.45,10.45h-1.45c-.55,0-1,.45-1,1s.45,1,1,1h1.45c-.48,5.54-4.91,9.97-10.45,10.45Z"/>
  <g>
    <path class="cls-1" d="m22,9h-12c-.83,0-1.5.67-1.5,1.5v3c0,.83.67,1.5,1.5,1.5h12c.83,0,1.5-.67,1.5-1.5v-3c0-.83-.67-1.5-1.5-1.5Zm-9,3.25c0,.55-.45,1-1,1s-1-.45-1-1v-.5c0-.55.45-1,1-1s1,.45,1,1v.5Zm7,.75h-4c-.55,0-1-.45-1-1s.45-1,1-1h4c.55,0,1,.45,1,1s-.45,1-1,1Z"/>
    <path class="cls-1" d="m22,17h-12c-.83,0-1.5.67-1.5,1.5v3c0,.83.67,1.5,1.5,1.5h12c.83,0,1.5-.67,1.5-1.5v-3c0-.83-.67-1.5-1.5-1.5Zm-9,3.25c0,.55-.45,1-1,1s-1-.45-1-1v-.5c0-.55.45-1,1-1s1,.45,1,1v.5Zm7,.75h-4c-.55,0-1-.45-1-1s.45-1,1-1h4c.55,0,1,.45,1,1s-.45,1-1,1Z"/>
  </g>
</svg>