<?xml version="1.0" encoding="UTF-8"?>
<svg id="OBJECT" xmlns="http://www.w3.org/2000/svg" viewBox="0 0 32 32">
  <defs>
    <style>
      .cls-1 {
        fill: #FD4360;
      }

      .cls-1, .cls-2 {
        stroke-width: 0px;
      }

      .cls-2 {
        fill: #dadada;
      }
    </style>
  </defs>
  <g>
    <path class="cls-2" d="m10.52,15.05c-.94.94-1.37,2.2-1.31,3.44-1.69.84-4.33,2.08-6.53,2.84-.81.28-1.41.95-1.61,1.79-.2.85.05,1.72.67,2.34l4.81,4.81c.48.48,1.11.73,1.77.73.19,0,.38-.02.57-.06.84-.19,1.51-.79,1.79-1.61.77-2.25,2.08-5,2.84-6.53.08,0,.15.02.23.02,1.17,0,2.33-.44,3.22-1.33,1.77-1.77,1.77-4.66,0-6.43-1.77-1.77-4.66-1.77-6.43,0Zm-1.74,13.62c-.08.22-.25.29-.35.31-.08.02-.29.04-.47-.13l-2.62-2.62c.81-.29,1.83-.73,3-1.42.48-.28.63-.89.35-1.37-.28-.48-.9-.63-1.37-.35-1.6.94-2.91,1.38-3.58,1.56l-.6-.6c-.18-.18-.15-.39-.13-.47.02-.1.09-.27.31-.35,2.17-.75,4.7-1.92,6.44-2.77.2.37.44.72.75,1.03s.67.55,1.03.75c-.85,1.74-2.03,4.27-2.77,6.44Zm6.76-8.6c-1,.99-2.61.99-3.6,0-.99-.99-.99-2.61,0-3.6.5-.5,1.15-.75,1.8-.75s1.3.25,1.8.75c.99.99.99,2.61,0,3.6Z"/>
    <path class="cls-2" d="m13.73,12.28c1.17,0,2.33-.44,3.22-1.33,1.77-1.77,1.77-4.66,0-6.43s-4.66-1.77-6.43,0-1.77,4.66,0,6.43c.89.89,2.05,1.33,3.22,1.33Zm-1.8-6.35c.5-.5,1.15-.75,1.8-.75s1.3.25,1.8.75c.99.99.99,2.61,0,3.6-1,.99-2.61.99-3.6,0-.99-.99-.99-2.61,0-3.6Z"/>
    <path class="cls-2" d="m24.27,12.28c1.16,0,2.33-.44,3.22-1.33,1.77-1.77,1.77-4.66,0-6.43-1.77-1.77-4.66-1.77-6.43,0-1.77,1.77-1.77,4.66,0,6.43.89.89,2.05,1.33,3.22,1.33Zm-1.8-6.35c.5-.5,1.15-.75,1.8-.75s1.31.25,1.8.75c.99.99.99,2.61,0,3.6-.99.99-2.61.99-3.6,0-.99-.99-.99-2.61,0-3.6Z"/>
    <path class="cls-2" d="m27.49,15.05c-.86-.86-2-1.33-3.22-1.33s-2.36.47-3.22,1.33c-.86.86-1.33,2-1.33,3.22s.47,2.36,1.33,3.22c.86.86,2,1.33,3.22,1.33s2.36-.47,3.22-1.33c.86-.86,1.33-2,1.33-3.22s-.47-2.36-1.33-3.22Zm-1.41,5.02c-.96.96-2.64.96-3.6,0-.48-.48-.75-1.12-.75-1.8s.26-1.32.75-1.8,1.12-.75,1.8-.75,1.32.26,1.8.75.75,1.12.75,1.8-.26,1.32-.75,1.8Z"/>
  </g>
  <g>
    <path class="cls-1" d="m8.57,9.59c-.95.83-1.57,2.05-1.57,3.41s.62,2.58,1.57,3.41c.27-.75.69-1.45,1.27-2.03.67-.66,1.52-1.12,2.45-1.36-.91-.25-1.76-.71-2.45-1.39-.58-.58-1-1.28-1.27-2.03Z"/>
    <path class="cls-1" d="m19,1c-1.37,0-2.58.62-3.41,1.57.75.27,1.45.69,2.03,1.27.69.69,1.13,1.53,1.38,2.41.25-.88.69-1.72,1.38-2.41.58-.58,1.28-1,2.03-1.27-.83-.96-2.05-1.57-3.41-1.57Z"/>
    <path class="cls-1" d="m29.43,9.59c-.26.74-.68,1.44-1.27,2.03-.69.69-1.53,1.15-2.45,1.4.92.25,1.78.7,2.45,1.36.58.58,1,1.28,1.27,2.03.95-.83,1.57-2.05,1.57-3.41s-.62-2.58-1.57-3.41Z"/>
    <path class="cls-1" d="m19,19.76c-.25.89-.71,1.72-1.38,2.4-.58.58-1.28,1-2.03,1.27.83.95,2.05,1.57,3.41,1.57s2.58-.62,3.41-1.57c-.75-.27-1.45-.69-2.03-1.27-.67-.68-1.13-1.5-1.38-2.4Z"/>
  </g>
</svg>