<?xml version="1.0" encoding="UTF-8"?>
<svg id="OBJECT" xmlns="http://www.w3.org/2000/svg" viewBox="0 0 32 32">
  <defs>
    <style>
      .cls-1 {
        fill: #FD4360;
      }

      .cls-1, .cls-2 {
        stroke-width: 0px;
      }

      .cls-2 {
        fill: #dadada;
      }
    </style>
  </defs>
  <path class="cls-1" d="m27.5,14.32c-.72-1.87-2.12-3.35-3.95-4.17-1.83-.82-3.87-.87-5.74-.15-1.87.72-3.35,2.12-4.17,3.95-.82,1.83-.87,3.87-.15,5.74.72,1.87,2.12,3.35,3.95,4.17.98.44,2.01.65,3.05.65.91,0,1.81-.17,2.69-.5,1.87-.72,3.35-2.12,4.17-3.95.82-1.83.87-3.87.15-5.74Zm-10.5.18c0-.55.45-1,1-1s1,.45,1,1v.78c0,.55-.45,1-1,1s-1-.45-1-1v-.78Zm7,5c0,.55-.45,1-1,1s-1-.45-1-1v-.78c0-.55.45-1,1-1s1,.45,1,1v.78Zm-.29-4.29l-5,5c-.2.2-.45.29-.71.29s-.51-.1-.71-.29c-.39-.39-.39-1.02,0-1.41l5-5c.39-.39,1.02-.39,1.41,0s.39,1.02,0,1.41Z"/>
  <g>
    <path class="cls-2" d="m9.25,11h5c.55,0,1-.45,1-1s-.45-1-1-1h-5c-.55,0-1,.45-1,1s.45,1,1,1Z"/>
    <path class="cls-2" d="m9.25,15h2c.55,0,1-.45,1-1s-.45-1-1-1h-2c-.55,0-1,.45-1,1s.45,1,1,1Z"/>
    <path class="cls-2" d="m9.25,19h2c.55,0,1-.45,1-1s-.45-1-1-1h-2c-.55,0-1,.45-1,1s.45,1,1,1Z"/>
    <path class="cls-2" d="m9.25,23h3c.55,0,1-.45,1-1s-.45-1-1-1h-3c-.55,0-1,.45-1,1s.45,1,1,1Z"/>
    <path class="cls-2" d="m9.25,27h9c.55,0,1-.45,1-1s-.45-1-1-1h-9c-.55,0-1,.45-1,1s.45,1,1,1Z"/>
    <path class="cls-2" d="m22.5,8.82c.55,0,1-.45,1-1v-2.32c0-1.38-1.12-2.5-2.5-2.5h-2.3c-.23-1.14-1.24-2-2.45-2h-5c-1.21,0-2.22.86-2.45,2h-2.3c-1.38,0-2.5,1.12-2.5,2.5v23c0,1.38,1.12,2.5,2.5,2.5h14.5c1.38,0,2.5-1.12,2.5-2.5v-2.33c0-.55-.45-1-1-1s-1,.45-1,1v2.33c0,.28-.22.5-.5.5H6.5c-.28,0-.5-.22-.5-.5V5.5c0-.28.22-.5.5-.5h2.25v1c0,.55.45,1,1,1h8c.55,0,1-.45,1-1v-1h2.25c.28,0,.5.22.5.5v2.32c0,.55.45,1,1,1Zm-5.75-3.82h-6v-1.5c0-.28.22-.5.5-.5h5c.28,0,.5.22.5.5v1.5Z"/>
  </g>
</svg>