<?xml version="1.0" encoding="UTF-8"?>
<svg id="OBJECT" xmlns="http://www.w3.org/2000/svg" viewBox="0 0 32 32">
  <defs>
    <style>
      .cls-1 {
        fill: #FD4360;
      }

      .cls-1, .cls-2 {
        stroke-width: 0px;
      }

      .cls-2 {
        fill: #dadada;
      }
    </style>
  </defs>
  <g>
    <path class="cls-2" d="m9,15c-4.41,0-8,3.59-8,8s3.59,8,8,8,8-3.59,8-8-3.59-8-8-8Zm0,14c-3.31,0-6-2.69-6-6s2.69-6,6-6,6,2.69,6,6-2.69,6-6,6Z"/>
    <path class="cls-2" d="m8.35,21.41h2.59c.55,0,1-.45,1-1s-.45-1-1-1h-.94v-.3c0-.55-.45-1-1-1s-1,.45-1,1v.33c-1.1.17-1.94,1.12-1.94,2.26,0,1.27,1.03,2.3,2.3,2.3h1.3c.16,0,.3.13.3.3s-.13.3-.3.3h-2.59c-.55,0-1,.45-1,1s.45,1,1,1h.94v.3c0,.55.45,1,1,1s1-.45,1-1v-.33c1.1-.17,1.94-1.12,1.94-2.26,0-1.27-1.03-2.3-2.3-2.3h-1.3c-.16,0-.3-.13-.3-.3s.13-.3.3-.3Z"/>
    <path class="cls-2" d="m5,13c.55,0,1-.45,1-1v-4c0-1.1.9-2,2-2h4c.55,0,1-.45,1-1s-.45-1-1-1h-4c-2.21,0-4,1.79-4,4v4c0,.55.45,1,1,1Z"/>
    <path class="cls-2" d="m27,19c-.55,0-1,.45-1,1v4c0,1.1-.9,2-2,2h-4c-.55,0-1,.45-1,1s.45,1,1,1h4c2.21,0,4-1.79,4-4v-4c0-.55-.45-1-1-1Z"/>
  </g>
  <path class="cls-1" d="m23,1c-4.41,0-8,3.59-8,8s3.59,8,8,8,8-3.59,8-8S27.41,1,23,1Zm-3.56,5.25c0-.55.45-1,1-1s1,.45,1,1v1.31c0,.55-.45,1-1,1s-1-.45-1-1v-1.31Zm7.25,5.25c0,.55-.45,1-1,1s-1-.45-1-1v-1.31c0-.55.45-1,1-1s1,.45,1,1v1.31Zm-.29-4.54l-5.25,5.25c-.2.2-.45.29-.71.29s-.51-.1-.71-.29c-.39-.39-.39-1.02,0-1.41l5.25-5.25c.39-.39,1.02-.39,1.41,0s.39,1.02,0,1.41Z"/>
</svg>