<?xml version="1.0" encoding="UTF-8"?>
<svg id="OBJECT" xmlns="http://www.w3.org/2000/svg" viewBox="0 0 512 512">
  <defs>
    <style>
      .cls-1 {
        fill: #FD4360;
      }

      .cls-2 {
        fill: #dadada;
      }
    </style>
  </defs>
  <g>
    <path class="cls-2" d="M416,130H96c-12.41,0-22.5,10.09-22.5,22.5v25c0,4.14,3.36,7.5,7.5,7.5h17.5v34.47c0,7.54,3.75,14.54,10.02,18.72l109.98,73.32v33.94c-29.54,14.07-50,44.21-50,79.05,0,48.25,39.25,87.5,87.5,87.5s87.5-39.25,87.5-87.5c0-34.84-20.46-64.98-50-79.05v-33.94l109.98-73.32c6.27-4.18,10.02-11.18,10.02-18.72v-34.47h17.5c4.14,0,7.5-3.36,7.5-7.5v-25c0-12.41-10.09-22.5-22.5-22.5Zm-87.5,294.5c0,39.98-32.52,72.5-72.5,72.5s-72.5-32.52-72.5-72.5,32.52-72.5,72.5-72.5,72.5,32.52,72.5,72.5Zm70-205.03c0,2.51-1.25,4.85-3.34,6.24l-113.32,75.55c-2.09,1.39-3.34,3.73-3.34,6.24v32.44c-7.18-1.91-14.72-2.94-22.5-2.94s-15.32,1.03-22.5,2.94v-24.94h12.5c4.14,0,7.5-3.36,7.5-7.5s-3.36-7.5-7.5-7.5h-17.73l-111.43-74.29c-2.09-1.39-3.34-3.73-3.34-6.24v-34.47H398.5v34.47Zm25-49.47H88.5v-17.5c0-4.14,3.36-7.5,7.5-7.5H416c4.14,0,7.5,3.36,7.5,7.5v17.5Z"/>
    <path class="cls-2" d="M253.08,383.67v-9.17c0-4.14-3.36-7.5-7.5-7.5s-7.5,3.36-7.5,7.5v11.02c-8.55,3.64-14.58,12.27-14.58,22.32,0,13.33,10.61,24.17,23.65,24.17h17.69c4.77,0,8.65,4.11,8.65,9.17s-3.88,9.17-8.65,9.17h-28.85c-4.14,0-7.5,3.36-7.5,7.5s3.36,7.5,7.5,7.5h2.08v9.17c0,4.14,3.36,7.5,7.5,7.5s7.5-3.36,7.5-7.5v-9.17h5.83v9.17c0,4.14,3.36,7.5,7.5,7.5s7.5-3.36,7.5-7.5v-11.02c8.55-3.64,14.58-12.27,14.58-22.32,0-13.33-10.61-24.17-23.65-24.17h-17.69c-4.77,0-8.65-4.11-8.65-9.17s3.88-9.17,8.65-9.17h28.85c4.14,0,7.5-3.36,7.5-7.5s-3.36-7.5-7.5-7.5h-2.08v-9.17c0-4.14-3.36-7.5-7.5-7.5s-7.5,3.36-7.5,7.5v9.17h-5.83Z"/>
    <path class="cls-2" d="M201,215h10c4.14,0,7.5-3.36,7.5-7.5s-3.36-7.5-7.5-7.5h-10c-4.14,0-7.5,3.36-7.5,7.5s3.36,7.5,7.5,7.5Z"/>
    <path class="cls-2" d="M251,215h10c4.14,0,7.5-3.36,7.5-7.5s-3.36-7.5-7.5-7.5h-10c-4.14,0-7.5,3.36-7.5,7.5s3.36,7.5,7.5,7.5Z"/>
    <path class="cls-2" d="M301,215h10c4.14,0,7.5-3.36,7.5-7.5s-3.36-7.5-7.5-7.5h-10c-4.14,0-7.5,3.36-7.5,7.5s3.36,7.5,7.5,7.5Z"/>
  </g>
  <g>
    <path class="cls-1" d="M365.19,52.71c-7.75,10.48-20.19,17.29-34.19,17.29s-26.44-6.81-34.19-17.29c-11.2,9.64-18.31,23.89-18.31,39.79v5c0,12.41,10.09,22.5,22.5,22.5h60c12.41,0,22.5-10.09,22.5-22.5v-5c0-15.9-7.11-30.16-18.31-39.79Z"/>
    <circle class="cls-1" cx="331" cy="27.5" r="27.5"/>
    <path class="cls-1" d="M215.19,52.71c-7.75,10.48-20.19,17.29-34.19,17.29s-26.44-6.81-34.19-17.29c-11.2,9.64-18.31,23.89-18.31,39.79v5c0,12.41,10.09,22.5,22.5,22.5h60c12.41,0,22.5-10.09,22.5-22.5v-5c0-15.9-7.11-30.16-18.31-39.79Z"/>
    <circle class="cls-1" cx="181" cy="27.5" r="27.5"/>
  </g>
</svg>