<?xml version="1.0" encoding="UTF-8"?>
<svg id="OBJECT" xmlns="http://www.w3.org/2000/svg" viewBox="0 0 32 32">
  <defs>
    <style>
      .cls-1 {
        fill: #FD4360;
      }

      .cls-1, .cls-2 {
        stroke-width: 0px;
      }

      .cls-2 {
        fill: #dadada;
      }
    </style>
  </defs>
  <path class="cls-2" d="m30,29h-.5v-1.5c0-1.74-.85-3.38-2.25-4.41v-1.29c0-1.54-1.26-2.8-2.8-2.8h-.9c-1.54,0-2.8,1.26-2.8,2.8v.95c-.38-.64-.89-1.21-1.5-1.66v-1.29c0-1.54-1.26-2.8-2.8-2.8h-.9c-1.54,0-2.8,1.26-2.8,2.8v1.29c-.61.45-1.12,1.02-1.5,1.66v-.95c0-1.54-1.26-2.8-2.8-2.8h-.9c-1.54,0-2.8,1.26-2.8,2.8v1.29c-1.4,1.03-2.25,2.66-2.25,4.41v1.5h-.5c-.55,0-1,.45-1,1s.45,1,1,1h28c.55,0,1-.45,1-1s-.45-1-1-1Zm-2.5,0h-6v-3.5c0-.11-.02-.22-.02-.33.6.74,1.5,1.23,2.52,1.23s1.96-.5,2.55-1.26c.6.64.95,1.48.95,2.36v1.5Zm-4.75-7.2c0-.44.36-.8.8-.8h.9c.44,0,.8.36.8.8v1.35c0,.69-.56,1.25-1.25,1.25s-1.25-.56-1.25-1.25v-1.35Zm-8-2c0-.44.36-.8.8-.8h.9c.44,0,.8.36.8.8v1.35c0,.69-.56,1.25-1.25,1.25s-1.25-.56-1.25-1.25v-1.35Zm-1.3,3.34c.6.76,1.51,1.26,2.55,1.26s1.96-.5,2.55-1.26c.6.64.95,1.48.95,2.36v3.5h-7v-3.5c0-.88.35-1.72.95-2.36Zm-6.7-1.34c0-.44.36-.8.8-.8h.9c.44,0,.8.36.8.8v1.35c0,.69-.56,1.25-1.25,1.25s-1.25-.56-1.25-1.25v-1.35Zm-2.25,5.7c0-.88.35-1.72.95-2.36.6.76,1.51,1.26,2.55,1.26s1.93-.48,2.52-1.23c0,.11-.02.22-.02.33v3.5h-6v-1.5Z"/>
  <path class="cls-1" d="m28,1H4c-1.66,0-3,1.34-3,3v6c0,1.66,1.34,3,3,3h24c1.66,0,3-1.34,3-3v-6c0-1.66-1.34-3-3-3ZM5.5,4h.5c.55,0,1,.45,1,1s-.45,1-1,1h-.5c-.55,0-1-.45-1-1s.45-1,1-1Zm17,6H5.5c-.55,0-1-.45-1-1s.45-1,1-1h17c.55,0,1,.45,1,1s-.45,1-1,1Zm4,0h-.5c-.55,0-1-.45-1-1s.45-1,1-1h.5c.55,0,1,.45,1,1s-.45,1-1,1Zm0-4H9.5c-.55,0-1-.45-1-1s.45-1,1-1h17c.55,0,1,.45,1,1s-.45,1-1,1Z"/>
</svg>