<?xml version="1.0" encoding="UTF-8"?>
<svg id="OBJECT" xmlns="http://www.w3.org/2000/svg" viewBox="0 0 32 32">
  <defs>
    <style>
      .cls-1 {
        fill: #FD4360;
      }

      .cls-1, .cls-2 {
        stroke-width: 0px;
      }

      .cls-2 {
        fill: #dadada;
      }
    </style>
  </defs>
  <g>
    <path class="cls-2" d="m28,15H4c-1.65,0-3,1.35-3,3v10c0,1.65,1.35,3,3,3h24c1.65,0,3-1.35,3-3v-10c0-1.65-1.35-3-3-3Zm1,13c0,.55-.45,1-1,1H4c-.55,0-1-.45-1-1v-10c0-.55.45-1,1-1h24c.55,0,1,.45,1,1v10Z"/>
    <path class="cls-2" d="m21.5,18.5h-1c-.55,0-1,.45-1,1s.45,1,1,1h1c.55,0,1-.45,1-1s-.45-1-1-1Z"/>
    <path class="cls-2" d="m15.5,20.5h1c.55,0,1-.45,1-1s-.45-1-1-1h-1c-.55,0-1,.45-1,1s.45,1,1,1Z"/>
    <path class="cls-2" d="m10.5,20.5h1c.55,0,1-.45,1-1s-.45-1-1-1h-1c-.55,0-1,.45-1,1s.45,1,1,1Z"/>
    <path class="cls-2" d="m6.5,18.5h-1c-.55,0-1,.45-1,1s.45,1,1,1h1c.55,0,1-.45,1-1s-.45-1-1-1Z"/>
    <path class="cls-2" d="m26.5,18.5h-1c-.55,0-1,.45-1,1s.45,1,1,1h1c.55,0,1-.45,1-1s-.45-1-1-1Z"/>
    <path class="cls-2" d="m21.5,22h-1c-.55,0-1,.45-1,1s.45,1,1,1h1c.55,0,1-.45,1-1s-.45-1-1-1Z"/>
    <path class="cls-2" d="m15.5,24h1c.55,0,1-.45,1-1s-.45-1-1-1h-1c-.55,0-1,.45-1,1s.45,1,1,1Z"/>
    <path class="cls-2" d="m10.5,24h1c.55,0,1-.45,1-1s-.45-1-1-1h-1c-.55,0-1,.45-1,1s.45,1,1,1Z"/>
    <path class="cls-2" d="m6.5,22h-1c-.55,0-1,.45-1,1s.45,1,1,1h1c.55,0,1-.45,1-1s-.45-1-1-1Z"/>
    <path class="cls-2" d="m26.5,22h-1c-.55,0-1,.45-1,1s.45,1,1,1h1c.55,0,1-.45,1-1s-.45-1-1-1Z"/>
    <path class="cls-2" d="m21.5,25.5h-11c-.55,0-1,.45-1,1s.45,1,1,1h11c.55,0,1-.45,1-1s-.45-1-1-1Z"/>
    <path class="cls-2" d="m6.5,25.5h-1c-.55,0-1,.45-1,1s.45,1,1,1h1c.55,0,1-.45,1-1s-.45-1-1-1Z"/>
    <path class="cls-2" d="m26.5,25.5h-1c-.55,0-1,.45-1,1s.45,1,1,1h1c.55,0,1-.45,1-1s-.45-1-1-1Z"/>
  </g>
  <g>
    <path class="cls-1" d="m27,2c-.55,0-1,.45-1,1v1c0,.55.45,1,1,1s1-.45,1-1v-1c0-.55-.45-1-1-1Z"/>
    <path class="cls-1" d="m27,6c-.55,0-1,.45-1,1v3c0,.55-.45,1-1,1h-4c-.55,0-1-.45-1-1v-6c0-1.65-1.35-3-3-3h-7c-1.65,0-3,1.35-3,3v5h-3v4h8v-4h-3v-5c0-.55.45-1,1-1h7c.55,0,1,.45,1,1v6c0,1.65,1.35,3,3,3h4c1.65,0,3-1.35,3-3v-3c0-.55-.45-1-1-1Z"/>
  </g>
</svg>