<?xml version="1.0" encoding="UTF-8"?>
<svg id="OBJECT" xmlns="http://www.w3.org/2000/svg" viewBox="0 0 32 32">
  <defs>
    <style>
      .cls-1 {
        fill: #FD4360;
      }

      .cls-1, .cls-2 {
        stroke-width: 0px;
      }

      .cls-2 {
        fill: #dadada;
      }
    </style>
  </defs>
  <g>
    <path class="cls-2" d="m28,3.5H11c-.55,0-1,.45-1,1s.45,1,1,1h17c.55,0,1,.45,1,1v19c0,.55-.45,1-1,1H11c-.55,0-1,.45-1,1s.45,1,1,1h17c1.65,0,3-1.35,3-3V6.5c0-1.65-1.35-3-3-3Z"/>
    <path class="cls-2" d="m21.67,15.75h-.5c-.55,0-1,.45-1,1s.45,1,1,1h.5c.55,0,1-.45,1-1s-.45-1-1-1Z"/>
    <path class="cls-2" d="m17.83,15.75h-.5c-.55,0-1,.45-1,1s.45,1,1,1h.5c.55,0,1-.45,1-1s-.45-1-1-1Z"/>
    <path class="cls-2" d="m14,15.75h-.5c-.55,0-1,.45-1,1s.45,1,1,1h.5c.55,0,1-.45,1-1s-.45-1-1-1Z"/>
    <path class="cls-2" d="m25.5,15.75h-.5c-.55,0-1,.45-1,1s.45,1,1,1h.5c.55,0,1-.45,1-1s-.45-1-1-1Z"/>
    <path class="cls-2" d="m21.67,19.25h-.5c-.55,0-1,.45-1,1s.45,1,1,1h.5c.55,0,1-.45,1-1s-.45-1-1-1Z"/>
    <path class="cls-2" d="m17.83,19.25h-.5c-.55,0-1,.45-1,1s.45,1,1,1h.5c.55,0,1-.45,1-1s-.45-1-1-1Z"/>
    <path class="cls-2" d="m14,19.25h-.5c-.55,0-1,.45-1,1s.45,1,1,1h.5c.55,0,1-.45,1-1s-.45-1-1-1Z"/>
    <path class="cls-2" d="m25.5,19.25h-.5c-.55,0-1,.45-1,1s.45,1,1,1h.5c.55,0,1-.45,1-1s-.45-1-1-1Z"/>
    <path class="cls-2" d="m21.67,22.75h-.5c-.55,0-1,.45-1,1s.45,1,1,1h.5c.55,0,1-.45,1-1s-.45-1-1-1Z"/>
    <path class="cls-2" d="m17.83,22.75h-.5c-.55,0-1,.45-1,1s.45,1,1,1h.5c.55,0,1-.45,1-1s-.45-1-1-1Z"/>
    <path class="cls-2" d="m14,22.75h-.5c-.55,0-1,.45-1,1s.45,1,1,1h.5c.55,0,1-.45,1-1s-.45-1-1-1Z"/>
    <path class="cls-2" d="m25.5,22.75h-.5c-.55,0-1,.45-1,1s.45,1,1,1h.5c.55,0,1-.45,1-1s-.45-1-1-1Z"/>
    <path class="cls-2" d="m27.5,11.75v-2c0-1.38-1.12-2.5-2.5-2.5h-11c-1.38,0-2.5,1.12-2.5,2.5v2c0,1.38,1.12,2.5,2.5,2.5h11c1.38,0,2.5-1.12,2.5-2.5Zm-2,0c0,.28-.22.5-.5.5h-11c-.28,0-.5-.22-.5-.5v-2c0-.28.22-.5.5-.5h11c.28,0,.5.22.5.5v2Z"/>
  </g>
  <g>
    <path class="cls-1" d="m6,1h-3c-1.1,0-2,.9-2,2v4h7V3c0-1.1-.9-2-2-2Z"/>
    <rect class="cls-1" x="1" y="9" width="7" height="14"/>
    <path class="cls-1" d="m1,29c0,1.1.9,2,2,2h3c1.1,0,2-.9,2-2v-4H1v4Z"/>
  </g>
</svg>