<?xml version="1.0" encoding="UTF-8"?>
<svg id="OBJECT" xmlns="http://www.w3.org/2000/svg" viewBox="0 0 32 32">
  <defs>
    <style>
      .cls-1 {
        fill: #FD4360;
      }

      .cls-1, .cls-2 {
        stroke-width: 0px;
      }

      .cls-2 {
        fill: #dadada;
      }
    </style>
  </defs>
  <g>
    <path class="cls-2" d="m27,7c.55,0,1-.45,1-1V2c0-.55-.45-1-1-1H5c-.55,0-1,.45-1,1v4c0,.55.45,1,1,1h.5v16h-.5c-.55,0-1,.45-1,1v6c0,.55.45,1,1,1h22c.55,0,1-.45,1-1v-6c0-.55-.45-1-1-1h-.5V7h.5ZM6,3h20v2H6v-2Zm20,26H6v-4h20v4Zm-1.5-6H7.5V7h17v16Z"/>
    <path class="cls-2" d="m8.5,28h.5c.55,0,1-.45,1-1s-.45-1-1-1h-.5c-.55,0-1,.45-1,1s.45,1,1,1Z"/>
    <path class="cls-2" d="m17,28h6.5c.55,0,1-.45,1-1s-.45-1-1-1h-6.5c-.55,0-1,.45-1,1s.45,1,1,1Z"/>
    <path class="cls-2" d="m12.25,28h.5c.55,0,1-.45,1-1s-.45-1-1-1h-.5c-.55,0-1,.45-1,1s.45,1,1,1Z"/>
  </g>
  <g>
    <path class="cls-1" d="m16,16.42c1.86,0,3.38-1.51,3.38-3.38v-1.42c0-1.6-1.3-2.9-2.9-2.9h-.95c-1.6,0-2.9,1.3-2.9,2.9v1.42c0,1.86,1.51,3.38,3.38,3.38Z"/>
    <path class="cls-1" d="m16,18.42c-2.08,0-3.86-1.2-4.76-2.93-.63.93-.99,2.04-.99,3.2,0,1.42,1.16,2.58,2.58,2.58h6.33c1.42,0,2.58-1.16,2.58-2.58,0-1.16-.36-2.27-.99-3.2-.89,1.73-2.68,2.93-4.76,2.93Z"/>
    <path class="cls-1" d="m22,8c-.55,0-1,.45-1,1v1c0,.55.45,1,1,1s1-.45,1-1v-1c0-.55-.45-1-1-1Z"/>
    <path class="cls-1" d="m11,10v-1c0-.55-.45-1-1-1s-1,.45-1,1v1c0,.55.45,1,1,1s1-.45,1-1Z"/>
  </g>
</svg>