<?xml version="1.0" encoding="UTF-8"?>
<svg id="OBJECT" xmlns="http://www.w3.org/2000/svg" viewBox="0 0 32 32">
  <defs>
    <style>
      .cls-1 {
        fill: #FD4360;
      }

      .cls-1, .cls-2 {
        stroke-width: 0px;
      }

      .cls-2 {
        fill: #dadada;
      }
    </style>
  </defs>
  <path class="cls-2" d="m22.02,21.37c-.26-.23-.58-.42-.91-.53l-.78-.27c-1.13-.4-2.36-.01-3.07.96l-1,1.37c-2.88-1.82-5.32-4.27-7.14-7.14l1.36-.99c.96-.7,1.36-1.96.96-3.08l-.28-.79c-.12-.33-.3-.65-.53-.91-3.44-3.9-6.08-2.91-6.37-2.78-.12.05-.22.12-.31.21l-2.15,2.16c-.49.49-.77,1.12-.8,1.79-.27,7.67,5.49,13.63,5.75,13.9.24.24,5.94,5.75,13.36,5.75.17,0,.35,0,.52,0,.67-.02,1.3-.31,1.79-.8l2.16-2.15c.09-.09.16-.19.21-.31.13-.29,1.12-2.93-2.78-6.37Zm.97,5.45l-1.97,1.97c-.13.13-.29.21-.45.21-6.81.24-12.36-5.11-12.4-5.15-.05-.06-5.41-5.61-5.17-12.41,0-.16.08-.32.21-.45l1.96-1.96c.46-.06,1.92-.02,3.96,2.29.06.07.11.16.14.25l.28.79c.1.29,0,.62-.25.8l-1.19.86c-.06-.11-.13-.22-.18-.33l-.64-1.31c-.24-.5-.84-.7-1.34-.46-.5.24-.7.84-.46,1.34l.64,1.31c2.41,4.89,6.43,8.91,11.32,11.32l1.31.64c.14.07.29.1.44.1.37,0,.72-.21.9-.56.24-.5.04-1.09-.46-1.34l-1.31-.64c-.12-.06-.22-.13-.34-.18l.87-1.19c.18-.25.5-.35.79-.25l.78.27c.09.03.18.08.25.14,2.33,2.06,2.35,3.53,2.29,3.95Z"/>
  <g>
    <path class="cls-1" d="m23.5,9.5v-1.5c0-.55-.45-1-1-1h-1c-.55,0-1,.45-1,1v1.5c0,.83.67,1.5,1.5,1.5s1.5-.67,1.5-1.5Z"/>
    <path class="cls-1" d="m22,13c-.99,0-1.88-.42-2.51-1.08-.93.75-1.49,1.86-1.49,3.08v3.05c1.21.6,2.56.95,4,.95s2.79-.35,4-.95v-3.05c0-1.21-.56-2.33-1.49-3.08-.64.66-1.53,1.08-2.51,1.08Z"/>
    <path class="cls-1" d="m22,1c-4.96,0-9,4.04-9,9,0,2.66,1.16,5.04,3,6.69v-1.69c0-1.97.96-3.78,2.56-4.89-.03-.2-.06-.4-.06-.61v-1.5c0-1.65,1.35-3,3-3h1c1.65,0,3,1.35,3,3v1.5c0,.21-.03.41-.06.61,1.6,1.11,2.56,2.92,2.56,4.89v1.69c1.84-1.65,3-4.03,3-6.69,0-4.96-4.04-9-9-9Z"/>
  </g>
</svg>