<?xml version="1.0" encoding="UTF-8"?>
<svg id="OBJECT" xmlns="http://www.w3.org/2000/svg" viewBox="0 0 32 32">
  <defs>
    <style>
      .cls-1 {
        fill: #FD4360;
      }

      .cls-1, .cls-2 {
        stroke-width: 0px;
      }

      .cls-2 {
        fill: #dadada;
      }
    </style>
  </defs>
  <path class="cls-2" d="m28.05,22.87l-2.39-2.39c-.82-.81-2.01-1.14-3.12-.83l-4.42,1.19c-2.93-1.61-5.33-4.01-6.94-6.94l1.19-4.42c.3-1.11-.02-2.31-.83-3.12l-2.39-2.39c-1.22-1.22-3.35-1.22-4.57,0l-3.27,3.27c-.2.2-.3.47-.29.75v.27c.28,5.96,2.75,11.57,6.97,15.79s9.83,6.69,15.78,6.96h.27s.03.01.05.01c.26,0,.52-.1.71-.29l3.27-3.27c.61-.61.95-1.42.95-2.28s-.34-1.67-.95-2.28Zm-1.41,3.15l-2.96,2.96c-5.4-.28-10.47-2.54-14.29-6.37-3.83-3.83-6.08-8.9-6.37-14.29l2.96-2.96c.46-.47,1.27-.46,1.74,0l2.39,2.39c.31.31.43.77.32,1.19l-.54,2.01c-.06-.18-.12-.35-.18-.53-.16-.53-.71-.83-1.25-.67-.53.16-.83.72-.67,1.25,1.91,6.37,6.84,11.31,13.21,13.21.1.03.19.04.29.04.43,0,.83-.28.96-.71.16-.53-.14-1.09-.67-1.25-.18-.05-.35-.12-.53-.18l2.01-.54c.42-.12.88,0,1.19.32l2.39,2.39c.23.23.36.54.36.87s-.13.64-.36.87Z"/>
  <g>
    <path class="cls-1" d="m25.11,10.95c-.6.42-1.32.67-2.11.67s-1.51-.25-2.11-.67c-1.7.64-3,2-3.57,3.68,1.45,1.47,3.46,2.38,5.68,2.38s4.23-.91,5.68-2.38c-.57-1.68-1.88-3.04-3.57-3.68Z"/>
    <path class="cls-1" d="m23,1c-4.41,0-8,3.59-8,8,0,1.37.35,2.65.95,3.78.8-1.49,2.07-2.72,3.63-3.47-.17-.43-.28-.9-.28-1.39,0-2.04,1.66-3.69,3.69-3.69s3.69,1.66,3.69,3.69c0,.49-.1.96-.28,1.39,1.56.74,2.83,1.97,3.63,3.47.61-1.13.95-2.41.95-3.78,0-4.41-3.59-8-8-8Z"/>
    <circle class="cls-1" cx="23" cy="7.92" r="1.69"/>
  </g>
</svg>