<?xml version="1.0" encoding="UTF-8"?>
<svg id="OBJECT" xmlns="http://www.w3.org/2000/svg" viewBox="0 0 32 32">
  <defs>
    <style>
      .cls-1 {
        fill: #FD4360;
      }

      .cls-2 {
        fill: #dadada;
      }
    </style>
  </defs>
  <path class="cls-2" d="M24.64,14.53c-.39-.39-1.02-.39-1.41,0l-2.16,2.16-5.75-5.75,2.16-2.16c.39-.39,.39-1.02,0-1.41s-1.02-.39-1.41,0l-7.24,7.24c-.98,.98-.98,2.58,0,3.56h0s-5.75,5.76-5.75,5.76l-.37-.37c-.39-.39-1.02-.39-1.41,0s-.39,1.02,0,1.41l5.73,5.73c.2,.2,.45,.29,.71,.29s.51-.1,.71-.29c.39-.39,.39-1.02,0-1.41l-.37-.37,5.75-5.75h0c.48,.49,1.11,.75,1.78,.75s1.31-.26,1.78-.74l7.24-7.24c.39-.39,.39-1.02,0-1.41ZM6.66,27.51l-2.17-2.17,5.75-5.75,2.17,2.17-5.75,5.75Zm9.33-5.74c-.2,.2-.54,.2-.74,0l-5.02-5.02c-.1-.1-.15-.23-.15-.37s.05-.27,.15-.37l3.67-3.67,5.75,5.75-3.67,3.67Z"/>
  <g>
    <rect class="cls-1" x="21.76" y=".11" width="2.05" height="18.22" transform="translate(.16 18.81) rotate(-45)"/>
    <path class="cls-1" d="M29.22,11.36c1.15-1.15,1.78-2.67,1.78-4.29s-.63-3.14-1.78-4.29c-1.15-1.15-2.67-1.78-4.29-1.78s-3.14,.63-4.29,1.78h0s8.58,8.59,8.58,8.59h0Z"/>
  </g>
</svg>