<?xml version="1.0" encoding="UTF-8"?>
<svg id="OBJECT" xmlns="http://www.w3.org/2000/svg" viewBox="0 0 32 32">
  <defs>
    <style>
      .cls-1 {
        fill: #FD4360;
      }

      .cls-1, .cls-2 {
        stroke-width: 0px;
      }

      .cls-2 {
        fill: #dadada;
      }
    </style>
  </defs>
  <g>
    <path class="cls-2" d="m27.5,11v-3.5c0-.55-.45-1-1-1h-14c-.55,0-1,.45-1,1v3.5c0,.55.45,1,1,1h14c.55,0,1-.45,1-1Zm-2-1h-12v-1.5h12v1.5Z"/>
    <path class="cls-2" d="m14.5,14h-1c-.55,0-1,.45-1,1s.45,1,1,1h1c.55,0,1-.45,1-1s-.45-1-1-1Z"/>
    <path class="cls-2" d="m14.5,17.5h-1c-.55,0-1,.45-1,1s.45,1,1,1h1c.55,0,1-.45,1-1s-.45-1-1-1Z"/>
    <path class="cls-2" d="m20.5,14h-1c-.55,0-1,.45-1,1s.45,1,1,1h1c.55,0,1-.45,1-1s-.45-1-1-1Z"/>
    <path class="cls-2" d="m20.5,17.5h-1c-.55,0-1,.45-1,1s.45,1,1,1h1c.55,0,1-.45,1-1s-.45-1-1-1Z"/>
    <path class="cls-2" d="m25.5,14h-1c-.55,0-1,.45-1,1s.45,1,1,1h1c.55,0,1-.45,1-1s-.45-1-1-1Z"/>
    <path class="cls-2" d="m25.5,17.5h-1c-.55,0-1,.45-1,1s.45,1,1,1h1c.55,0,1-.45,1-1s-.45-1-1-1Z"/>
    <path class="cls-2" d="m28,3H12c-.55,0-1,.45-1,1s.45,1,1,1h16c.55,0,1,.45,1,1v14c0,.55-.45,1-1,1H12c-.55,0-1,.45-1,1s.45,1,1,1h11v5c0,.55-.45,1-1,1H7c-.55,0-1-.45-1-1v-1c0-.55-.45-1-1-1s-1,.45-1,1v1c0,1.65,1.35,3,3,3h15c1.65,0,3-1.35,3-3v-5h3c1.65,0,3-1.35,3-3V6c0-1.65-1.35-3-3-3Z"/>
  </g>
  <path class="cls-1" d="m3.5,25h3c1.38,0,2.5-1.12,2.5-2.5v-4.5c0-.33-.17-.65-.45-.83l-1.05-.7v-6.93l1.05-.7c.28-.19.45-.5.45-.83V3.5c0-1.38-1.12-2.5-2.5-2.5h-3c-1.38,0-2.5,1.12-2.5,2.5v4.5c0,.33.17.65.45.83l1.05.7v6.93l-1.05.7c-.28.19-.45.5-.45.83v4.5c0,1.38,1.12,2.5,2.5,2.5Z"/>
</svg>