<?xml version="1.0" encoding="UTF-8"?>
<svg id="OBJECT" xmlns="http://www.w3.org/2000/svg" viewBox="0 0 32 32">
  <defs>
    <style>
      .cls-1 {
        fill: #FD4360;
      }

      .cls-1, .cls-2 {
        stroke-width: 0px;
      }

      .cls-2 {
        fill: #dadada;
      }
    </style>
  </defs>
  <path class="cls-2" d="m30,4H11c0-1.65-1.35-3-3-3h-4c-1.65,0-3,1.35-3,3v20c0,1.65,1.35,3,3,3h1v1c0,1.65,1.35,3,3,3h10c1.65,0,3-1.35,3-3v-4h9c.55,0,1-.45,1-1V5c0-.55-.45-1-1-1Zm-21,15H3v-10h6v10ZM4,3h4c.55,0,1,.45,1,1v3H3v-3c0-.55.45-1,1-1Zm-1,21v-3h6v3c0,.55-.45,1-1,1h-4c-.55,0-1-.45-1-1Zm16,4c0,.55-.45,1-1,1h-10c-.55,0-1-.45-1-1v-1h1c1.65,0,3-1.35,3-3h8v4Zm10-6H11V6h18v16Z"/>
  <g>
    <path class="cls-1" d="m22.17,18h-.5c-.55,0-1,.45-1,1s.45,1,1,1h.5c.55,0,1-.45,1-1s-.45-1-1-1Z"/>
    <path class="cls-1" d="m18.33,18h-.5c-.55,0-1,.45-1,1s.45,1,1,1h.5c.55,0,1-.45,1-1s-.45-1-1-1Z"/>
    <path class="cls-1" d="m14.5,18h-.5c-.55,0-1,.45-1,1s.45,1,1,1h.5c.55,0,1-.45,1-1s-.45-1-1-1Z"/>
    <path class="cls-1" d="m26,18h-.5c-.55,0-1,.45-1,1s.45,1,1,1h.5c.55,0,1-.45,1-1s-.45-1-1-1Z"/>
    <rect class="cls-1" x="12.5" y="8" width="15" height="8" rx="1" ry="1"/>
  </g>
</svg>