<?xml version="1.0" encoding="UTF-8"?>
<svg id="OBJECT" xmlns="http://www.w3.org/2000/svg" viewBox="0 0 512 512">
  <defs>
    <style>
      .cls-1 {
        fill: #FD4360;
      }

      .cls-2 {
        fill: #dadada;
      }
    </style>
  </defs>
  <g>
    <path class="cls-2" d="M481,73.5H31c-4.14,0-7.5,3.36-7.5,7.5v210c0,4.14,3.36,7.5,7.5,7.5h50.85l-3.21,16.03c-.81,4.06,1.82,8.01,5.88,8.83,.5,.1,.99,.15,1.48,.15,3.5,0,6.63-2.46,7.35-6.03l3.79-18.97h40.6l-8.18,13.64c-2.13,3.55-.98,8.16,2.57,10.29,1.21,.72,2.54,1.07,3.85,1.07,2.55,0,5.03-1.3,6.44-3.64l12.82-21.36h201.51l12.82,21.36c1.41,2.34,3.89,3.64,6.44,3.64,1.31,0,2.64-.34,3.85-1.07,3.55-2.13,4.7-6.74,2.57-10.29l-8.18-13.64h40.6l3.79,18.97c.71,3.57,3.84,6.03,7.35,6.03,.49,0,.98-.05,1.48-.15,4.06-.81,6.7-4.76,5.88-8.83l-3.21-16.03h50.85c4.14,0,7.5-3.36,7.5-7.5V81c0-4.14-3.36-7.5-7.5-7.5Zm-7.5,210H38.5V88.5H473.5v195Z"/>
    <path class="cls-2" d="M203.06,257.9c.96,.41,1.95,.6,2.93,.6,2.92,0,5.69-1.71,6.9-4.56l55.34-130c1.62-3.81-.15-8.22-3.96-9.84s-8.22,.15-9.84,3.96l-55.34,130c-1.62,3.81,.15,8.22,3.96,9.84Z"/>
    <path class="cls-2" d="M265.19,197.72l-2.17,5.09c-1.62,3.81,.15,8.22,3.96,9.84,.96,.41,1.95,.6,2.93,.6,2.92,0,5.69-1.71,6.9-4.56l2.17-5.09c1.62-3.81-.15-8.22-3.96-9.84-3.81-1.62-8.22,.15-9.84,3.96Z"/>
    <path class="cls-2" d="M279.31,183.71c.96,.41,1.95,.6,2.93,.6,2.92,0,5.69-1.71,6.9-4.56l23.76-55.8c1.62-3.81-.15-8.22-3.96-9.84-3.81-1.62-8.22,.15-9.84,3.96l-23.76,55.8c-1.62,3.81,.15,8.22,3.96,9.84Z"/>
    <path class="cls-2" d="M386,268.5h15c4.14,0,7.5-3.36,7.5-7.5s-3.36-7.5-7.5-7.5h-15c-4.14,0-7.5,3.36-7.5,7.5s3.36,7.5,7.5,7.5Z"/>
    <path class="cls-2" d="M436,268.5h15c4.14,0,7.5-3.36,7.5-7.5s-3.36-7.5-7.5-7.5h-15c-4.14,0-7.5,3.36-7.5,7.5s3.36,7.5,7.5,7.5Z"/>
  </g>
  <g>
    <path class="cls-1" d="M0,438.5H248.5v-100H0v100Zm218.5-60c0-4.14,3.36-7.5,7.5-7.5s7.5,3.36,7.5,7.5v20c0,4.14-3.36,7.5-7.5,7.5s-7.5-3.36-7.5-7.5v-20Z"/>
    <path class="cls-1" d="M263.5,338.5v100h248.5v-100h-248.5Zm30,60c0,4.14-3.36,7.5-7.5,7.5s-7.5-3.36-7.5-7.5v-20c0-4.14,3.36-7.5,7.5-7.5s7.5,3.36,7.5,7.5v20Z"/>
  </g>
</svg>