<?xml version="1.0" encoding="UTF-8"?>
<svg id="OBJECT" xmlns="http://www.w3.org/2000/svg" viewBox="0 0 32 32">
  <defs>
    <style>
      .cls-1 {
        fill: #FD4360;
      }

      .cls-2 {
        fill: #dadada;
      }
    </style>
  </defs>
  <g>
    <path class="cls-2" d="M28.5,1H3.5c-1.38,0-2.5,1.12-2.5,2.5V24.5c0,1.38,1.12,2.5,2.5,2.5h.5v3c0,.55,.45,1,1,1h3c.38,0,.73-.21,.89-.55l1.72-3.45h10.76l1.72,3.45c.17,.34,.52,.55,.89,.55h3c.55,0,1-.45,1-1v-3h.5c1.38,0,2.5-1.12,2.5-2.5V3.5c0-1.38-1.12-2.5-2.5-2.5ZM7.38,29h-1.38v-2h2.38l-1,2Zm18.62,0h-1.38l-1-2h2.38v2Zm3-4.5c0,.28-.22,.5-.5,.5H3.5c-.28,0-.5-.22-.5-.5V3.5c0-.28,.22-.5,.5-.5H28.5c.28,0,.5,.22,.5,.5V24.5Z"/>
    <path class="cls-2" d="M6.5,21h-.5c-.55,0-1,.45-1,1s.45,1,1,1h.5c.55,0,1-.45,1-1s-.45-1-1-1Z"/>
    <path class="cls-2" d="M10.5,21h-.5c-.55,0-1,.45-1,1s.45,1,1,1h.5c.55,0,1-.45,1-1s-.45-1-1-1Z"/>
  </g>
  <g>
    <rect class="cls-1" x="6.5" y="7.5" width="4" height="9" rx="1" ry="1"/>
    <path class="cls-1" d="M25.09,5.2c-.26-.19-.59-.25-.89-.15l-3.71,1.14v4.82c0,.55-.45,1-1,1s-1-.45-1-1V6.8l-6,1.85v6.71l1.5,.46v2.18c0,1.65,1.35,3,3,3h2c1.56,0,2.83-1.2,2.97-2.73l2.23,.69c.1,.03,.2,.04,.29,.04,.21,0,.42-.07,.59-.2,.26-.19,.41-.49,.41-.8V6c0-.32-.15-.62-.41-.8Zm-5.09,12.8c0,.55-.45,1-1,1h-2c-.55,0-1-.45-1-1v-1.57l4,1.23v.34Z"/>
  </g>
</svg>