<?xml version="1.0" encoding="UTF-8"?>
<svg id="OBJECT" xmlns="http://www.w3.org/2000/svg" viewBox="0 0 32 32">
  <defs>
    <style>
      .cls-1 {
        fill: #FD4360;
      }

      .cls-1, .cls-2 {
        stroke-width: 0px;
      }

      .cls-2 {
        fill: #dadada;
      }
    </style>
  </defs>
  <path class="cls-2" d="m30,4H13v-.5c0-1.38-1.12-2.5-2.5-2.5h-3c-1.38,0-2.5,1.12-2.5,2.5v.5h-3c-.55,0-1,.45-1,1v19c0,.55.45,1,1,1h6v3c0,1.65,1.35,3,3,3h8.5c1.65,0,3-1.35,3-3v-3h7.5c.55,0,1-.45,1-1V5c0-.55-.45-1-1-1ZM7.5,19c-.28,0-.5-.22-.5-.5v-3h4v3c0,.28-.22.5-.5.5h-3Zm3.5-5.5h-4v-5h4v5ZM7.5,3h3c.28,0,.5.22.5.5v3h-4v-3c0-.28.22-.5.5-.5ZM3,23V6h2v12.5c0,1.38,1.12,2.5,2.5,2.5h.5v2H3Zm17.5,5c0,.55-.45,1-1,1h-8.5c-.55,0-1-.45-1-1v-3h10.5v3Zm8.5-5H10v-2h.5c1.38,0,2.5-1.12,2.5-2.5V6h16v17Z"/>
  <g>
    <path class="cls-1" d="m22,16h-1c-.55,0-1,.45-1,1s.45,1,1,1h1c.55,0,1-.45,1-1s-.45-1-1-1Z"/>
    <path class="cls-1" d="m18,16h-1c-.55,0-1,.45-1,1s.45,1,1,1h1c.55,0,1-.45,1-1s-.45-1-1-1Z"/>
    <path class="cls-1" d="m26,16h-1c-.55,0-1,.45-1,1s.45,1,1,1h1c.55,0,1-.45,1-1s-.45-1-1-1Z"/>
    <path class="cls-1" d="m22,19h-1c-.55,0-1,.45-1,1s.45,1,1,1h1c.55,0,1-.45,1-1s-.45-1-1-1Z"/>
    <path class="cls-1" d="m18,19h-1c-.55,0-1,.45-1,1s.45,1,1,1h1c.55,0,1-.45,1-1s-.45-1-1-1Z"/>
    <path class="cls-1" d="m26,19h-1c-.55,0-1,.45-1,1s.45,1,1,1h1c.55,0,1-.45,1-1s-.45-1-1-1Z"/>
    <rect class="cls-1" x="15.5" y="8" width="12" height="6" rx="1" ry="1"/>
  </g>
</svg>