<?xml version="1.0" encoding="UTF-8"?>
<svg id="OBJECT" xmlns="http://www.w3.org/2000/svg" viewBox="0 0 32 32">
  <defs>
    <style>
      .cls-1 {
        fill: #FD4360;
      }

      .cls-1, .cls-2 {
        stroke-width: 0px;
      }

      .cls-2 {
        fill: #dadada;
      }
    </style>
  </defs>
  <g>
    <path class="cls-2" d="m11.5,15.5c0,1.38,1.12,2.5,2.5,2.5h11c1.38,0,2.5-1.12,2.5-2.5v-2c0-1.38-1.12-2.5-2.5-2.5h-11c-1.38,0-2.5,1.12-2.5,2.5v2Zm6.5.5v-3h3v3h-3Zm7.5-2.5v2c0,.28-.22.5-.5.5h-2v-3h2c.28,0,.5.22.5.5Zm-12,0c0-.28.22-.5.5-.5h2v3h-2c-.28,0-.5-.22-.5-.5v-2Z"/>
    <path class="cls-2" d="m26.5,9c.55,0,1-.45,1-1s-.45-1-1-1h-10c-.55,0-1,.45-1,1s.45,1,1,1h10Z"/>
    <path class="cls-2" d="m13,9c.55,0,1-.45,1-1s-.45-1-1-1h-.5c-.55,0-1,.45-1,1s.45,1,1,1h.5Z"/>
    <path class="cls-2" d="m28,3.5H11c-.55,0-1,.45-1,1s.45,1,1,1h17c.55,0,1,.45,1,1v12c0,.55-.45,1-1,1H11c-.55,0-1,.45-1,1s.45,1,1,1h12v6.5c0,.55-.45,1-1,1H7c-.55,0-1-.45-1-1v-2c0-.55-.45-1-1-1s-1,.45-1,1v2c0,1.65,1.35,3,3,3h15c1.65,0,3-1.35,3-3v-6.5h3c1.65,0,3-1.35,3-3V6.5c0-1.65-1.35-3-3-3Z"/>
  </g>
  <path class="cls-1" d="m9,21.5v-3.63c0-.9-.48-1.73-1.26-2.17l-.49-.28v-5.84l.49-.28c.78-.44,1.26-1.27,1.26-2.17v-3.63c0-1.38-1.12-2.5-2.5-2.5h-3c-1.38,0-2.5,1.12-2.5,2.5v3.63c0,.9.48,1.73,1.26,2.17l.49.28v5.84l-.49.28c-.78.44-1.26,1.27-1.26,2.17v3.63c0,1.38,1.12,2.5,2.5,2.5h3c1.38,0,2.5-1.12,2.5-2.5Z"/>
</svg>