<?xml version="1.0" encoding="UTF-8"?>
<svg id="OBJECT" xmlns="http://www.w3.org/2000/svg" viewBox="0 0 512 512">
  <defs>
    <style>
      .cls-1 {
        fill: #FD4360;
      }

      .cls-2 {
        fill: #dadada;
      }
    </style>
  </defs>
  <g>
    <path class="cls-2" d="M339.5,345c95.12,0,172.5-77.38,172.5-172.5S434.62,0,339.5,0,167,77.38,167,172.5s77.38,172.5,172.5,172.5Zm0-330c86.85,0,157.5,70.65,157.5,157.5s-70.65,157.5-157.5,157.5-157.5-70.65-157.5-157.5S252.65,15,339.5,15Z"/>
    <path class="cls-2" d="M49.04,375.43l.83,6.62c.47,3.79,3.7,6.57,7.43,6.57,.31,0,.62-.02,.94-.06,4.11-.51,7.03-4.26,6.51-8.37l-.83-6.62c-.51-4.11-4.26-7.03-8.37-6.51-4.11,.51-7.03,4.26-6.51,8.37Z"/>
    <path class="cls-2" d="M59.89,401.78c-4.11,.51-7.03,4.26-6.51,8.37l.69,5.49c.47,3.79,3.7,6.57,7.43,6.57,.31,0,.62-.02,.94-.06,4.11-.51,7.03-4.26,6.51-8.37l-.69-5.49c-.51-4.11-4.27-7.03-8.37-6.51Z"/>
    <path class="cls-2" d="M444.5,367H234.5c-12.41,0-22.5,10.09-22.5,22.5v100c0,12.41,10.09,22.5,22.5,22.5h210c12.41,0,22.5-10.09,22.5-22.5v-100c0-12.41-10.09-22.5-22.5-22.5Zm7.5,122.5c0,4.14-3.36,7.5-7.5,7.5H234.5c-4.14,0-7.5-3.36-7.5-7.5v-100c0-4.14,3.36-7.5,7.5-7.5h210c4.14,0,7.5,3.36,7.5,7.5v100Z"/>
    <path class="cls-2" d="M429.5,397h-140c-4.14,0-7.5,3.36-7.5,7.5s3.36,7.5,7.5,7.5h140c4.14,0,7.5-3.36,7.5-7.5s-3.36-7.5-7.5-7.5Z"/>
    <path class="cls-2" d="M249.5,412h10c4.14,0,7.5-3.36,7.5-7.5s-3.36-7.5-7.5-7.5h-10c-4.14,0-7.5,3.36-7.5,7.5s3.36,7.5,7.5,7.5Z"/>
    <path class="cls-2" d="M429.5,432H249.5c-4.14,0-7.5,3.36-7.5,7.5s3.36,7.5,7.5,7.5h180c4.14,0,7.5-3.36,7.5-7.5s-3.36-7.5-7.5-7.5Z"/>
    <path class="cls-2" d="M429.5,467h-10c-4.14,0-7.5,3.36-7.5,7.5s3.36,7.5,7.5,7.5h10c4.14,0,7.5-3.36,7.5-7.5s-3.36-7.5-7.5-7.5Z"/>
    <path class="cls-2" d="M389.5,467H249.5c-4.14,0-7.5,3.36-7.5,7.5s3.36,7.5,7.5,7.5h140c4.14,0,7.5-3.36,7.5-7.5s-3.36-7.5-7.5-7.5Z"/>
    <path class="cls-2" d="M67.27,207.46c-3.29,3.2-8.27,8.04-8.27,17.04,0,4.14,3.36,7.5,7.5,7.5s7.5-3.36,7.5-7.5c0-2.54,.9-3.54,3.73-6.29,3.29-3.2,8.27-8.04,8.27-17.04s-4.98-13.84-8.27-17.04c-2.83-2.75-3.73-3.75-3.73-6.29s.9-3.53,3.73-6.29c3.29-3.2,8.27-8.04,8.27-17.04,0-4.14-3.36-7.5-7.5-7.5s-7.5,3.36-7.5,7.5c0,2.54-.9,3.53-3.73,6.29-3.29,3.2-8.27,8.04-8.27,17.04s4.98,13.84,8.27,17.04c2.83,2.75,3.73,3.75,3.73,6.29s-.9,3.54-3.73,6.29Z"/>
    <path class="cls-2" d="M107.27,207.46c-3.29,3.2-8.27,8.04-8.27,17.04,0,4.14,3.36,7.5,7.5,7.5s7.5-3.36,7.5-7.5c0-2.54,.9-3.54,3.73-6.29,3.29-3.2,8.27-8.04,8.27-17.04s-4.98-13.84-8.27-17.04c-2.83-2.75-3.73-3.75-3.73-6.29s.9-3.53,3.73-6.29c3.29-3.2,8.27-8.04,8.27-17.04,0-4.14-3.36-7.5-7.5-7.5s-7.5,3.36-7.5,7.5c0,2.54-.9,3.53-3.73,6.29-3.29,3.2-8.27,8.04-8.27,17.04s4.98,13.84,8.27,17.04c2.83,2.75,3.73,3.75,3.73,6.29s-.9,3.54-3.73,6.29Z"/>
    <path class="cls-2" d="M177.5,297h-12.5v-42.5c0-2.09-.87-4.08-2.4-5.5-1.53-1.42-3.58-2.13-5.67-1.98l-130,10c-3.91,.3-6.92,3.56-6.92,7.48v32.5H7.5c-4.14,0-7.5,3.36-7.5,7.5v40c0,4.14,3.36,7.5,7.5,7.5H15.88l17.54,140.29c1.4,11.24,11,19.71,22.33,19.71h73.52c11.32,0,20.92-8.47,22.33-19.71l17.54-140.29h8.38c4.14,0,7.5-3.36,7.5-7.5v-40c0-4.14-3.36-7.5-7.5-7.5Zm-142.5-25.55l115-8.85v34.4H35v-25.55Zm94.26,225.55H55.74c-3.77,0-6.97-2.82-7.44-6.57l-4.8-38.43h98.01l-4.8,38.43c-.47,3.75-3.67,6.57-7.44,6.57Zm14.12-60H41.62l-10.62-85h123.01l-10.62,85Zm26.62-100H15v-25H170v25Z"/>
  </g>
  <g>
    <path class="cls-1" d="M370.77,193.16c-2.79,4.21-6.4,7.82-10.61,10.61l37.82,37.82c2.93,2.92,7.68,2.92,10.61,0,2.92-2.92,2.92-7.68,0-10.61l-37.82-37.82Z"/>
    <path class="cls-1" d="M347,135.75v-43.25c0-4.14-3.36-7.5-7.5-7.5s-7.5,3.36-7.5,7.5v43.25c2.42-.49,4.93-.75,7.5-.75s5.08,.26,7.5,.75Z"/>
    <circle class="cls-1" cx="339.5" cy="172.5" r="22.5"/>
    <path class="cls-1" d="M339.5,30c-78.57,0-142.5,63.93-142.5,142.5s63.93,142.5,142.5,142.5,142.5-63.93,142.5-142.5S418.07,30,339.5,30Zm79.7,222.2c-4.39,4.39-10.15,6.58-15.91,6.58s-11.52-2.19-15.91-6.58l-42.58-42.58c-1.73,.25-3.5,.38-5.3,.38-20.68,0-37.5-16.82-37.5-37.5,0-12.24,5.9-23.13,15-29.98v-50.02c0-12.41,10.09-22.5,22.5-22.5s22.5,10.09,22.5,22.5v50.02c9.1,6.85,15,17.74,15,29.98,0,1.8-.14,3.57-.38,5.3l42.58,42.58c8.77,8.77,8.77,23.05,0,31.82Z"/>
  </g>
</svg>