<?xml version="1.0" encoding="UTF-8"?>
<svg id="OBJECT" xmlns="http://www.w3.org/2000/svg" viewBox="0 0 32 32">
  <defs>
    <style>
      .cls-1 {
        fill: #FD4360;
      }

      .cls-1, .cls-2 {
        stroke-width: 0px;
      }

      .cls-2 {
        fill: #dadada;
      }
    </style>
  </defs>
  <g>
    <path class="cls-2" d="m7.5,25.5h-.5c-.55,0-1,.45-1,1s.45,1,1,1h.5c.55,0,1-.45,1-1s-.45-1-1-1Z"/>
    <path class="cls-2" d="m14.5,18.5h-.5c-.55,0-1,.45-1,1s.45,1,1,1h.5c.55,0,1-.45,1-1s-.45-1-1-1Z"/>
    <path class="cls-2" d="m28,24h2c.55,0,1-.45,1-1s-.45-1-1-1h-2v-5h2c.55,0,1-.45,1-1s-.45-1-1-1H12c-1.65,0-3,1.35-3,3v3c0,.35.07.69.18,1h-4.18c-1.65,0-3,1.35-3,3v3c0,1.65,1.35,3,3,3h25c.55,0,1-.45,1-1s-.45-1-1-1h-2v-5Zm-17-3v-3c0-.55.45-1,1-1h14v1.5h-8c-.55,0-1,.45-1,1s.45,1,1,1h8v1.5h-14c-.55,0-1-.45-1-1Zm-6,8c-.55,0-1-.45-1-1v-3c0-.55.45-1,1-1h21v1.5h-15c-.55,0-1,.45-1,1s.45,1,1,1h15v1.5H5Z"/>
  </g>
  <path class="cls-1" d="m7,13c3.31,0,6-2.69,6-6S10.31,1,7,1,1,3.69,1,7s2.69,6,6,6Zm-1-8.11c0-.55.45-1,1-1s1,.45,1,1v1.69l1.05,1.05c.39.39.39,1.02,0,1.41-.2.2-.45.29-.71.29s-.51-.1-.71-.29l-1.34-1.34c-.19-.19-.29-.44-.29-.71v-2.11Z"/>
</svg>