<?xml version="1.0" encoding="UTF-8"?>
<svg id="OBJECT" xmlns="http://www.w3.org/2000/svg" viewBox="0 0 32 32">
  <defs>
    <style>
      .cls-1 {
        fill: #FD4360;
      }

      .cls-1, .cls-2 {
        stroke-width: 0px;
      }

      .cls-2 {
        fill: #dadada;
      }
    </style>
  </defs>
  <path class="cls-1" d="m24.79,3.87c-1.9,2.05-3.28,4.48-4.04,7.13h.16c.55,0,1,.45,1,1s-.45,1-1,1h-.62c-.11.66-.19,1.32-.22,2h.84c.55,0,1,.45,1,1s-.45,1-1,1h-.84c.04.68.11,1.34.22,2h.62c.55,0,1,.45,1,1s-.45,1-1,1h-.16c.77,2.65,2.14,5.08,4.04,7.13,3.76-2.73,6.21-7.14,6.21-12.13s-2.46-9.4-6.21-12.13Z"/>
  <path class="cls-2" d="m20.91,28.04c-1.56.64-3.21.96-4.91.96-2.52,0-4.87-.73-6.87-1.98,1.83-1.68,3.2-3.73,4.01-6.02h.86c.55,0,1-.45,1-1s-.45-1-1-1h-.32c.13-.66.22-1.32.26-2h.06c.55,0,1-.45,1-1s-.45-1-1-1h-.06c-.04-.68-.13-1.34-.26-2h.32c.55,0,1-.45,1-1s-.45-1-1-1h-.86c-.81-2.28-2.18-4.34-4.01-6.02,2-1.25,4.34-1.98,6.87-1.98,1.7,0,3.35.32,4.91.96.51.21,1.09-.03,1.3-.54.21-.51-.03-1.1-.54-1.31-1.8-.74-3.71-1.12-5.67-1.12C7.73,1,1,7.73,1,16s6.73,15,15,15c1.96,0,3.87-.38,5.67-1.12.51-.21.75-.79.54-1.31-.21-.51-.8-.75-1.3-.54ZM3,16c0-3.91,1.74-7.42,4.49-9.8,1.55,1.34,2.74,2.99,3.5,4.82-.5.06-.89.46-.89.98,0,.55.45,1,1,1h.56c.15.65.24,1.32.29,2h-.85c-.55,0-1,.45-1,1s.45,1,1,1h.85c-.05.68-.14,1.35-.29,2h-.56c-.55,0-1,.45-1,1,0,.51.39.92.89.98-.76,1.84-1.95,3.48-3.5,4.82-2.74-2.39-4.49-5.89-4.49-9.8Z"/>
</svg>