<?xml version="1.0" encoding="UTF-8"?>
<svg id="OBJECT" xmlns="http://www.w3.org/2000/svg" viewBox="0 0 32 32">
  <defs>
    <style>
      .cls-1 {
        fill: #FD4360;
      }

      .cls-1, .cls-2 {
        stroke-width: 0px;
      }

      .cls-2 {
        fill: #dadada;
      }
    </style>
  </defs>
  <g>
    <path class="cls-2" d="m16,10h-5c-.55,0-1,.45-1,1s.45,1,1,1h5c.55,0,1-.45,1-1s-.45-1-1-1Z"/>
    <path class="cls-2" d="m11.9,18h-5.79c-.55,0-1,.45-1,1s.45,1,1,1h5.79c.55,0,1-.45,1-1s-.45-1-1-1Z"/>
    <path class="cls-2" d="m13.9,14h-2.79c-.55,0-1,.45-1,1s.45,1,1,1h2.79c.55,0,1-.45,1-1s-.45-1-1-1Z"/>
    <path class="cls-2" d="m6.1,16h1.79c.55,0,1-.45,1-1s-.45-1-1-1h-1.79c-.55,0-1,.45-1,1s.45,1,1,1Z"/>
    <path class="cls-2" d="m6.1,22c-.55,0-1,.45-1,1s.45,1,1,1h4.79c.55,0,1-.45,1-1s-.45-1-1-1h-4.79Z"/>
    <path class="cls-2" d="m21,1h-12.39c-.27,0-.53.11-.72.3L1.28,8.07c-.18.19-.28.44-.28.7v18.23c0,.55.45,1,1,1h9.51c.55,0,1-.45,1-1s-.45-1-1-1H3V9.77h4.11c1.38,0,2.5-1.12,2.5-2.5V3h10.39v8.15c0,.55.45,1,1,1s1-.45,1-1V2c0-.55-.45-1-1-1ZM7.11,7.77h-2.74l3.24-3.32v2.82c0,.28-.22.5-.5.5Z"/>
  </g>
  <path class="cls-1" d="m22.5,14c-4.69,0-8.5,3.81-8.5,8.5s3.81,8.5,8.5,8.5,8.5-3.81,8.5-8.5-3.81-8.5-8.5-8.5Zm3.4,11.28c-.2.24-.49.37-.77.37-.22,0-.45-.07-.63-.23l-2.62-2.14c-.23-.19-.37-.47-.37-.77v-3.69c0-.55.45-1,1-1s1,.45,1,1v3.22l2.26,1.84c.43.35.49.98.14,1.41Z"/>
</svg>