<?xml version="1.0" encoding="UTF-8"?>
<svg id="OBJECT" xmlns="http://www.w3.org/2000/svg" viewBox="0 0 32 32">
  <defs>
    <style>
      .cls-1 {
        fill: #FD4360;
      }

      .cls-1, .cls-2 {
        stroke-width: 0px;
      }

      .cls-2 {
        fill: #dadada;
      }
    </style>
  </defs>
  <path class="cls-2" d="m30,25h-.5v-13c0-1.65-1.35-3-3-3-.55,0-1,.45-1,1s.45,1,1,1,1,.45,1,1v13H4.5v-13c0-.55.45-1,1-1s1-.45,1-1-.45-1-1-1c-1.65,0-3,1.35-3,3v13h-.5c-.55,0-1,.45-1,1v2c0,1.65,1.35,3,3,3h24c1.65,0,3-1.35,3-3v-2c0-.55-.45-1-1-1Zm-1,3c0,.55-.45,1-1,1H4c-.55,0-1-.45-1-1v-1h26v1Z"/>
  <g>
    <path class="cls-1" d="m13.29,5.61h5.42c.55,0,1-.45,1-1v-1.61c0-1.1-.9-2-2-2h-3.42c-1.1,0-2,.9-2,2v1.61c0,.55.45,1,1,1Z"/>
    <path class="cls-1" d="m21.69,2.81c0,.06.02.12.02.19v1.61c0,1.65-1.35,3-3,3h-5.42c-1.65,0-3-1.35-3-3v-1.61c0-.06.02-.12.02-.19-1.28.02-2.31,1.07-2.31,2.35v13.55c0,1.3,1.06,2.35,2.35,2.35h11.29c1.3,0,2.35-1.06,2.35-2.35V5.16c0-1.28-1.03-2.33-2.31-2.35Zm-9.45,7.92c.39-.39,1.03-.39,1.41,0l1.62,1.61,3.07-3.1c.39-.39,1.02-.4,1.41,0,.39.39.4,1.02,0,1.41l-3.77,3.81c-.19.19-.46.33-.71.3-.26,0-.52-.1-.71-.29l-2.33-2.32c-.39-.39-.39-1.02,0-1.41Zm7.82,8.2h-8.13c-.55,0-1-.45-1-1s.45-1,1-1h8.13c.55,0,1,.45,1,1s-.45,1-1,1Z"/>
  </g>
</svg>