<?xml version="1.0" encoding="UTF-8"?>
<svg id="OBJECT" xmlns="http://www.w3.org/2000/svg" viewBox="0 0 32 32">
  <defs>
    <style>
      .cls-1 {
        fill: #FD4360;
      }

      .cls-1, .cls-2 {
        stroke-width: 0px;
      }

      .cls-2 {
        fill: #dadada;
      }
    </style>
  </defs>
  <g>
    <path class="cls-2" d="m21.5,1h-10.5c-.27,0-.52.11-.71.29l-6,6c-.19.19-.29.44-.29.71v16.5c0,1.38,1.12,2.5,2.5,2.5h15c1.38,0,2.5-1.12,2.5-2.5V3.5c0-1.38-1.12-2.5-2.5-2.5Zm-11.5,3.41v2.09c0,.28-.22.5-.5.5h-2.09l2.59-2.59Zm12,20.09c0,.28-.22.5-.5.5H6.5c-.28,0-.5-.22-.5-.5v-15.5h3.5c1.38,0,2.5-1.12,2.5-2.5v-3.5h9.5c.28,0,.5.22.5.5v21Z"/>
    <path class="cls-2" d="m19.5,21.5h-11c-.55,0-1,.45-1,1s.45,1,1,1h11c.55,0,1-.45,1-1s-.45-1-1-1Z"/>
    <path class="cls-2" d="m19.5,18h-7c-.55,0-1,.45-1,1s.45,1,1,1h7c.55,0,1-.45,1-1s-.45-1-1-1Z"/>
    <path class="cls-2" d="m8.5,20h.5c.55,0,1-.45,1-1s-.45-1-1-1h-.5c-.55,0-1,.45-1,1s.45,1,1,1Z"/>
    <path class="cls-2" d="m19.5,14.5h-11c-.55,0-1,.45-1,1s.45,1,1,1h11c.55,0,1-.45,1-1s-.45-1-1-1Z"/>
    <path class="cls-2" d="m19.5,11h-7c-.55,0-1,.45-1,1s.45,1,1,1h7c.55,0,1-.45,1-1s-.45-1-1-1Z"/>
    <path class="cls-2" d="m8.5,13h.5c.55,0,1-.45,1-1s-.45-1-1-1h-.5c-.55,0-1,.45-1,1s.45,1,1,1Z"/>
    <path class="cls-2" d="m19.5,4h-.5c-.55,0-1,.45-1,1s.45,1,1,1h.5c.55,0,1-.45,1-1s-.45-1-1-1Z"/>
    <path class="cls-2" d="m15,6h.5c.55,0,1-.45,1-1s-.45-1-1-1h-.5c-.55,0-1,.45-1,1s.45,1,1,1Z"/>
  </g>
  <path class="cls-1" d="m26,5.05v20.95c0,1.66-1.34,3-3,3h-14.95c.23,1.14,1.24,2,2.45,2h15c1.38,0,2.5-1.12,2.5-2.5V7.5c0-1.21-.86-2.22-2-2.45Z"/>
</svg>