<?xml version="1.0" encoding="UTF-8" standalone="no"?>
<svg
   id="OBJECT"
   viewBox="0 0 32 32"
   version="1.1"
   sodipodi:docname="Testimonials.svg"
   inkscape:version="1.2.2 (732a01da63, 2022-12-09)"
   xml:space="preserve"
   xmlns:inkscape="http://www.inkscape.org/namespaces/inkscape"
   xmlns:sodipodi="http://sodipodi.sourceforge.net/DTD/sodipodi-0.dtd"
   xmlns="http://www.w3.org/2000/svg"
   xmlns:svg="http://www.w3.org/2000/svg"><sodipodi:namedview
     id="namedview153"
     pagecolor="#505050"
     bordercolor="#ffffff"
     borderopacity="1"
     inkscape:showpageshadow="0"
     inkscape:pageopacity="0"
     inkscape:pagecheckerboard="1"
     inkscape:deskcolor="#505050"
     showgrid="false"
     inkscape:zoom="12.953125"
     inkscape:cx="14.861279"
     inkscape:cy="27.483715"
     inkscape:window-width="1920"
     inkscape:window-height="1009"
     inkscape:window-x="-8"
     inkscape:window-y="-8"
     inkscape:window-maximized="1"
     inkscape:current-layer="OBJECT" /><defs
     id="defs140"><style
       id="style138">
      .cls-1 {
        fill: #FD4360;
      }

      .cls-1, .cls-2 {
        stroke-width: 0px;
      }

      .cls-2 {
        fill: #dadada;
      }
    </style></defs><path
     style="fill:#dadada;fill-opacity:1;stroke-width:0.177934"
     d="m 7.605517,19.293841 -1.844643,0.627758 c 0,0 -0.656732,0.251103 -1.381068,0.801599 -0.724336,0.550495 -0.695362,1.448671 -0.695362,1.448671 v 4.606778 l 12.671051,-0.0097 0.0097,-4.780618 c 0,0 -0.101407,-0.52635 -0.449089,-1.009241 -0.347681,-0.482891 -1.41004,-0.970611 -1.41004,-0.970611 l -2.08126,-0.729164 c 0,0 -2.127786,2.551978 -4.819248,0.01449 z"
     id="path431" /><path
     style="fill:#dadada;fill-opacity:1;stroke-width:0.177934"
     d="m 6.812545,14.871516 0.01366,-0.846808 c 0,0 0.109266,-0.942417 0.628278,-1.625328 0.519011,-0.68291 1.666302,-0.997049 1.666302,-0.997049 0,0 0.860467,-0.204874 2.198971,0.09561 1.338504,0.300481 1.761909,1.966783 1.761909,1.966783 0,0 0.109266,0.300481 0.122924,0.437063 0.01366,0.136582 0,0.997049 0,0.997049 0,0 0.170728,0.15024 0.177557,0.279993 0.0068,0.129753 0.02732,0.628277 0.02732,0.628277 0,0 -0.03415,0.38243 -0.177557,0.641937 -0.143411,0.259506 -0.211703,0.30731 -0.211703,0.30731 l -0.07512,0.02049 c 0,0 -0.341455,0.710227 -0.519011,0.983392 -0.177557,0.273163 -0.437063,0.635106 -0.437063,0.635106 0,0 -0.416576,0.573645 -0.949246,0.812664 -0.53267,0.239019 -0.730714,0.252676 -0.730714,0.252676 0,0 -0.805835,0.122924 -1.434112,-0.307309 -0.628278,-0.430234 -1.140461,-1.174607 -1.140461,-1.174607 0,0 -0.443892,-0.710226 -0.478037,-0.826321 -0.03415,-0.116095 -0.15707,-0.396088 -0.15707,-0.396088 0,0 -0.0478,0 -0.08195,-0.02732 -0.03415,-0.02731 -0.198044,-0.211702 -0.239019,-0.341455 -0.04097,-0.129752 -0.122924,-0.587303 -0.122924,-0.587303 0,0 -0.109266,-0.573645 0.157069,-0.928759 z"
     id="path433" /><path
     style="fill:#fd4360;stroke-width:0.177934"
     d="m 16.619141,17.657791 c 0,0 -1.475086,-0.04097 -1.91215,-0.519011 C 14.26993,16.660742 14.18798,16.237337 14.18798,16.237337 L 14.147,8.8345879 c 0,0 0.109266,-0.7512027 0.696569,-1.2702147 0.587303,-0.519011 1.352162,-0.437062 1.352162,-0.437062 h 11.882644 c 0,0 1.160949,0.163899 1.516061,0.928758 0.355114,0.7648597 0.259507,1.0380247 0.259507,1.0380247 l -0.01366,6.7061801 c 0,0 -0.109266,1.557037 -1.229239,1.761911 -1.119974,0.204872 -7.18422,0.08195 -7.18422,0.08195 l -4.80769,2.308238 z"
     id="path435" /><circle
     style="fill:#ffffff;stroke-width:0.21225"
     id="path489"
     cx="17.867079"
     cy="13.841868"
     r="1.1059576" /><circle
     style="fill:#ffffff;stroke-width:0.21225"
     id="circle1045"
     cx="22.315195"
     cy="13.841868"
     r="1.1059576" /><circle
     style="fill:#ffffff;stroke-width:0.21225"
     id="circle1047"
     cx="26.858225"
     cy="13.841868"
     r="1.1059576" /></svg>
