<?xml version="1.0" encoding="UTF-8"?>
<svg id="OBJECT" xmlns="http://www.w3.org/2000/svg" viewBox="0 0 32 32">
  <defs>
    <style>
      .cls-1 {
        fill: #FD4360;
      }

      .cls-2 {
        fill: #dadada;
      }
    </style>
  </defs>
  <path class="cls-2" d="M30,29h-3.3l-2.52-5.37c-.53-1.13-.3-2.49,.57-3.38l1.31-1.34c1.7-1.73,2.67-4.01,2.73-6.43,.08-3.04-1.04-5.92-3.17-8.1-2.12-2.18-4.97-3.38-8.02-3.38h-2.12C10.05,1,5.47,5.08,4.84,10.48c-.16,1.38-.3,2.66-.38,3.61-.14,1.65-1.6,3.28-2.8,4.36-.62,.55-.82,1.41-.52,2.19,.3,.78,1.03,1.29,1.87,1.29h2.11l-.37,1.35c-.37,1.32-.04,2.73,.88,3.75,1.18,1.32,3.11,1.57,4.6,.61l1.19-.77,.52,2.14h-.93c-.55,0-1,.45-1,1s.45,1,1,1H30c.55,0,1-.45,1-1s-.45-1-1-1Zm-16.81-3.29l3.14-2.04c.46-.3,.59-.92,.29-1.38-.3-.46-.92-.59-1.38-.29l-6.1,3.97c-.65,.42-1.5,.31-2.02-.27-.46-.51-.62-1.21-.44-1.88l.72-2.61c.08-.3,.02-.62-.17-.87-.19-.25-.48-.39-.8-.39H3c2.14-1.91,3.3-3.83,3.45-5.67,.08-.93,.21-2.19,.37-3.54,.51-4.4,4.24-7.71,8.67-7.71h2.12c2.5,0,4.84,.99,6.58,2.78s2.67,4.15,2.6,6.65c-.05,1.91-.82,3.72-2.16,5.08l-1.31,1.34c-1.46,1.48-1.84,3.75-.96,5.63l2.12,4.52H13.98l-.79-3.29Z"/>
  <path class="cls-1" d="M17.07,4.5c-3.86,0-7,3.14-7,7s3.14,7,7,7,7-3.14,7-7-3.14-7-7-7Zm3.2,6.11l-3.27,3.2c-.19,.19-.45,.29-.7,.29s-.51-.1-.7-.29l-1.73-1.7c-.39-.39-.4-1.02-.01-1.41,.39-.39,1.02-.4,1.41-.01l1.04,1.01,2.56-2.51c.4-.39,1.03-.38,1.41,.01,.39,.39,.38,1.03-.01,1.41Z"/>
</svg>