<?xml version="1.0" encoding="UTF-8" standalone="no"?>
<svg
   id="OBJECT"
   viewBox="0 0 32 32"
   version="1.1"
   sodipodi:docname="TikTok.svg"
   xml:space="preserve"
   inkscape:version="1.2.2 (732a01da63, 2022-12-09)"
   xmlns:inkscape="http://www.inkscape.org/namespaces/inkscape"
   xmlns:sodipodi="http://sodipodi.sourceforge.net/DTD/sodipodi-0.dtd"
   xmlns="http://www.w3.org/2000/svg"
   xmlns:svg="http://www.w3.org/2000/svg"><sodipodi:namedview
     id="namedview17"
     pagecolor="#505050"
     bordercolor="#ffffff"
     borderopacity="1"
     inkscape:showpageshadow="0"
     inkscape:pageopacity="0"
     inkscape:pagecheckerboard="1"
     inkscape:deskcolor="#505050"
     showgrid="false"
     inkscape:zoom="0.20239258"
     inkscape:cx="417.50543"
     inkscape:cy="242.10374"
     inkscape:window-width="1920"
     inkscape:window-height="1009"
     inkscape:window-x="-8"
     inkscape:window-y="-8"
     inkscape:window-maximized="1"
     inkscape:current-layer="OBJECT" /><defs
     id="defs4"><style
       id="style2">
      .cls-1 {
        fill: #FD4360;
      }

      .cls-1, .cls-2 {
        stroke-width: 0px;
      }

      .cls-2 {
        fill: #dadada;
      }
    </style></defs><circle
     style="fill:#fd4360;stroke-width:0.11175"
     id="path516"
     cx="15.84275"
     cy="15.767788"
     r="12.352222" /><path
     style="fill:#fd4360;stroke-width:0.195213"
     d="m 17.209114,20.194305 c 0.1668,-0.0095 0.43975,-0.0095 0.60655,0 0.166816,0.0095 0.03033,0.01723 -0.303267,0.01723 -0.3336,0 -0.470083,-0.0078 -0.303283,-0.01723 z"
     id="path370" /><path
     style="fill:#dadada;fill-opacity:1;stroke-width:0.0898408"
     d="m 14.141557,16.708734 c 0,0 -0.758574,0.02758 -1.137862,0.427563 -0.3793,0.399978 -0.503429,0.786165 -0.503429,0.786165 0,0 -0.22067,0.744787 0.09655,1.275793 0.317223,0.531006 0.524105,0.634448 0.524105,0.634448 0,0 0.689623,0.517213 1.365445,0.296536 0.675822,-0.220678 0.917193,-0.489628 0.917193,-0.489628 0,0 0.296534,-0.275848 0.386188,-0.641345 0.08965,-0.365498 0.10344,-10.551157 0.10344,-10.551157 0,0 0.007,-0.117235 0.08275,-0.227574 0.07585,-0.110338 0.23447,-0.165508 0.289634,-0.165508 0.05518,0 2.544697,0 2.544697,0 0,0 0.248258,0.02759 0.351699,0.26895 0.103454,0.241367 0.04828,0.482734 0.04828,0.482734 0,0 0.248272,1.517159 1.082698,1.999892 0.83444,0.482732 1.220628,0.586176 1.255104,0.586176 0.03449,0 0.386188,0.04138 0.482742,0.04827 0.09654,0.0069 0.213782,0.02069 0.213782,0.02069 0,0 0.23447,0.06207 0.282733,0.193094 0.04828,0.131026 0.06897,0.241365 0.06897,0.241365 l -0.01379,2.517107 c 0,0 -0.05518,0.331016 -0.475839,0.351705 -0.420664,0.02069 -1.461986,-0.165509 -1.461986,-0.165509 0,0 -0.427564,-0.137923 -0.613757,-0.186196 -0.186207,-0.04827 -0.820653,-0.393083 -0.820653,-0.393083 l -0.02069,4.930769 c 0,0 -0.131029,1.068909 -0.531005,1.758526 -0.399975,0.689618 -0.924093,1.28269 -0.924093,1.28269 0,0 -0.455139,0.61376 -1.682668,1.117181 -1.227515,0.503421 -2.337802,0.351705 -2.337802,0.351705 0,0 -1.268891,-0.08275 -2.413654,-0.855126 -1.144776,-0.772373 -1.5861277,-1.744734 -1.5861277,-1.744734 0,0 -0.427564,-0.793061 -0.544792,-1.599913 -0.117242,-0.806853 -0.08965,-1.372341 -0.0207,-1.648188 0.06897,-0.275847 0.193094,-0.751684 0.193094,-0.751684 0,0 0.441365,-1.351651 1.3102807,-2.103334 0.868916,-0.751684 1.551639,-0.993051 1.551639,-0.993051 0,0 0.620658,-0.255158 1.227528,-0.344808 0.606858,-0.08965 0.910293,-0.0069 0.910293,-0.0069 0,0 0.23447,0.131028 0.248258,0.303432 0.01379,0.172404 0.007,2.613653 0.007,2.613653 0,0 -0.05518,0.365497 -0.455153,0.37929 z"
     id="path462" /></svg>
