<?xml version="1.0" encoding="UTF-8"?>
<svg id="OBJECT" xmlns="http://www.w3.org/2000/svg" viewBox="0 0 32 32">
  <defs>
    <style>
      .cls-1 {
        fill: #FD4360;
      }

      .cls-1, .cls-2 {
        stroke-width: 0px;
      }

      .cls-2 {
        fill: #dadada;
      }
    </style>
  </defs>
  <g>
    <path class="cls-2" d="m30.71,6.24l-4.95-4.95c-.39-.39-1.02-.39-1.41,0s-.39,1.02,0,1.41l.35.35-1.3,1.3c-2.28-1.49-4.99-2.36-7.9-2.36C7.5,2,1,8.5,1,16.5s6.5,14.5,14.5,14.5,14.5-6.5,14.5-14.5c0-2.91-.87-5.62-2.36-7.9l1.3-1.3.35.35c.2.2.45.29.71.29s.51-.1.71-.29c.39-.39.39-1.02,0-1.41Zm-15.21,22.76c-6.89,0-12.5-5.61-12.5-12.5S8.61,4,15.5,4s12.5,5.61,12.5,12.5-5.61,12.5-12.5,12.5ZM26.42,6.99c-.44-.5-.91-.98-1.41-1.41l1.1-1.1,1.41,1.41-1.1,1.1Z"/>
    <path class="cls-2" d="m15.5,5c-6.34,0-11.5,5.16-11.5,11.5s5.16,11.5,11.5,11.5,11.5-5.16,11.5-11.5-5.16-11.5-11.5-11.5Zm0,21c-5.24,0-9.5-4.26-9.5-9.5S10.26,7,15.5,7s9.5,4.26,9.5,9.5-4.26,9.5-9.5,9.5Z"/>
  </g>
  <path class="cls-1" d="m15.5,9c-4.14,0-7.5,3.36-7.5,7.5s3.36,7.5,7.5,7.5c.55,0,1-.45,1-1v-5.26l5.15,1.1c.26.06.53,0,.75-.14.22-.14.38-.37.43-.63.11-.52.17-1.05.17-1.57,0-4.14-3.36-7.5-7.5-7.5Z"/>
</svg>