<?xml version="1.0" encoding="UTF-8"?>
<svg id="OBJECT" xmlns="http://www.w3.org/2000/svg" viewBox="0 0 32 32">
  <defs>
    <style>
      .cls-1 {
        fill: #FD4360;
      }

      .cls-1, .cls-2 {
        stroke-width: 0px;
      }

      .cls-2 {
        fill: #dadada;
      }
    </style>
  </defs>
  <g>
    <path class="cls-2" d="m29.21,7.79c-.39-.39-1.02-.39-1.41,0l-1.29,1.29v-1.59c0-2.21-1.79-4-4-4h-2c-.55,0-1,.45-1,1s.45,1,1,1h2c1.1,0,2,.9,2,2v1.59l-1.29-1.29c-.39-.39-1.02-.39-1.41,0s-.39,1.02,0,1.41l3,3c.2.2.45.29.71.29s.51-.1.71-.29l3-3c.39-.39.39-1.02,0-1.41Z"/>
    <path class="cls-2" d="m11.5,26.5h-2c-1.1,0-2-.9-2-2v-1.59l1.29,1.29c.2.2.45.29.71.29s.51-.1.71-.29c.39-.39.39-1.02,0-1.41l-3-3c-.39-.39-1.02-.39-1.41,0l-3,3c-.39.39-.39,1.02,0,1.41s1.02.39,1.41,0l1.29-1.29v1.59c0,2.21,1.79,4,4,4h2c.55,0,1-.45,1-1s-.45-1-1-1Z"/>
    <path class="cls-2" d="m9.5,1C4.81,1,1,4.81,1,9.5s3.81,8.5,8.5,8.5,8.5-3.81,8.5-8.5S14.19,1,9.5,1Zm0,15c-3.58,0-6.5-2.92-6.5-6.5s2.92-6.5,6.5-6.5,6.5,2.92,6.5,6.5-2.92,6.5-6.5,6.5Z"/>
    <path class="cls-2" d="m10.5,9.09v-2.8c0-.55-.45-1-1-1s-1,.45-1,1v3.21c0,.27.11.52.29.71l2.14,2.14c.2.2.45.29.71.29s.51-.1.71-.29c.39-.39.39-1.02,0-1.41l-1.85-1.85Z"/>
  </g>
  <path class="cls-1" d="m22.5,14c-4.69,0-8.5,3.81-8.5,8.5s3.81,8.5,8.5,8.5,8.5-3.81,8.5-8.5-3.81-8.5-8.5-8.5Zm3.71,7.34l-3.73,3.73c-.19.19-.44.29-.71.29s-.52-.11-.71-.29l-2.27-2.27c-.39-.39-.39-1.02,0-1.41s1.02-.39,1.41,0l1.56,1.56,3.03-3.03c.39-.39,1.02-.39,1.41,0s.39,1.02,0,1.41Z"/>
</svg>