<?xml version="1.0" encoding="UTF-8"?>
<svg id="OBJECT" xmlns="http://www.w3.org/2000/svg" viewBox="0 0 32 32">
  <defs>
    <style>
      .cls-1 {
        fill: #FD4360;
      }

      .cls-1, .cls-2 {
        stroke-width: 0px;
      }

      .cls-2 {
        fill: #dadada;
      }
    </style>
  </defs>
  <path class="cls-2" d="m30,29h-1.5V9c0-1.65-1.35-3-3-3h-.56c-.55,0-1,.45-1,1s.45,1,1,1h.56c.55,0,1,.45,1,1v20h-2v-14.5c0-.55-.45-1-1-1s-1,.45-1,1v14.5h-5.5v-12c0-.55-.45-1-1-1s-1,.45-1,1v12h-5.5v-14.5c0-.55-.45-1-1-1s-1,.45-1,1v14.5h-2V9c0-.55.45-1,1-1h.56c.55,0,1-.45,1-1s-.45-1-1-1h-.56c-1.65,0-3,1.35-3,3v20h-1.5c-.55,0-1,.45-1,1s.45,1,1,1h28c.55,0,1-.45,1-1s-.45-1-1-1Z"/>
  <path class="cls-1" d="m23,8c0-3.86-3.14-7-7-7s-7,3.14-7,7,3.14,7,7,7,7-3.14,7-7Zm-4.11,1.45c-.18.35-.53.55-.9.55-.15,0-.3-.03-.45-.11l-2-1c-.34-.17-.55-.52-.55-.89v-3c0-.55.45-1,1-1s1,.45,1,1v2.38l1.45.72c.49.25.69.85.45,1.34Z"/>
</svg>