<?xml version="1.0" encoding="UTF-8"?>
<svg id="OBJECT" xmlns="http://www.w3.org/2000/svg" viewBox="0 0 32 32">
  <defs>
    <style>
      .cls-1 {
        fill: #FD4360;
      }

      .cls-2 {
        fill: #dadada;
      }
    </style>
  </defs>
  <path class="cls-2" d="M16,31c-8.27,0-15-6.73-15-15S7.73,1,16,1s15,6.73,15,15-6.73,15-15,15Zm0-28c-7.17,0-13,5.83-13,13s5.83,13,13,13,13-5.83,13-13S23.17,3,16,3Z"/>
  <path class="cls-1" d="M16,5.5c-5.79,0-10.5,4.71-10.5,10.5s4.71,10.5,10.5,10.5,10.5-4.71,10.5-10.5-4.71-10.5-10.5-10.5Zm4.78,15.28c-.2,.2-.45,.29-.71,.29s-.51-.1-.71-.29l-2.08-2.08c-.39,.19-.82,.3-1.29,.3-1.65,0-3-1.35-3-3,0-1.3,.84-2.4,2-2.82v-4.18c0-.55,.45-1,1-1s1,.45,1,1v4.18c1.16,.41,2,1.51,2,2.82,0,.46-.11,.89-.3,1.29l2.08,2.08c.39,.39,.39,1.02,0,1.41Z"/>
  <circle class="cls-1" cx="16" cy="16" r="1"/>
</svg>