<?xml version="1.0" encoding="UTF-8"?>
<svg id="OBJECT" xmlns="http://www.w3.org/2000/svg" viewBox="0 0 32 32">
  <defs>
    <style>
      .cls-1 {
        fill: #FD4360;
      }

      .cls-2 {
        fill: #dadada;
      }
    </style>
  </defs>
  <g>
    <path class="cls-2" d="M22.96,3.82c-1.96-1.9-4.56-2.9-7.27-2.82-5.33,.16-9.68,4.64-9.69,9.97,0,3.65,1.94,6.96,5.11,8.74l2.57,5.77c.41,.92,1.32,1.51,2.32,1.51s1.91-.59,2.32-1.51l2.57-5.77c3.16-1.77,5.11-5.08,5.11-8.72,0-2.73-1.08-5.28-3.04-7.18Zm-3.31,14.29c-.2,.1-.36,.27-.46,.48l-2.71,6.09c-.17,.39-.81,.39-.98,0l-2.08-4.68h1.68c.55,0,1-.45,1-1s-.45-1-1-1h-2.95c-2.57-1.41-4.17-4.08-4.16-7.02,0-4.27,3.49-7.85,7.75-7.98,.08,0,.17,0,.25,0,2.09,0,4.06,.8,5.57,2.26,1.57,1.52,2.43,3.56,2.43,5.74,0,3-1.67,5.73-4.35,7.11Z"/>
    <path class="cls-2" d="M17,10.46v-3.46c0-.55-.45-1-1-1s-1,.45-1,1v4c0,.33,.17,.65,.45,.83l3,2c.17,.11,.36,.17,.55,.17,.32,0,.64-.16,.83-.45,.31-.46,.18-1.08-.28-1.39l-2.55-1.7Z"/>
  </g>
  <path class="cls-1" d="M22.32,21.42l-2.17,4.88c-.73,1.64-2.36,2.7-4.15,2.7s-3.42-1.06-4.15-2.7l-2.17-4.88c-4.81,.67-8.68,2.16-8.68,4.58,0,3.44,7.78,5,15,5s15-1.56,15-5c0-2.42-3.87-3.91-8.68-4.58Z"/>
</svg>