<?xml version="1.0" encoding="UTF-8"?>
<svg id="OBJECT" xmlns="http://www.w3.org/2000/svg" viewBox="0 0 32 32">
  <defs>
    <style>
      .cls-1 {
        fill: #FD4360;
      }

      .cls-1, .cls-2 {
        stroke-width: 0px;
      }

      .cls-2 {
        fill: #dadada;
      }
    </style>
  </defs>
  <path class="cls-1" d="m25.64,10.6l1.94-1.94.71.71c.2.2.45.29.71.29s.51-.1.71-.29c.39-.39.39-1.02,0-1.41l-5.66-5.66c-.39-.39-1.02-.39-1.41,0s-.39,1.02,0,1.41l.71.71-1.94,1.94c1.69,1.1,3.14,2.55,4.24,4.24Z"/>
  <path class="cls-1" d="m19.15,2c0-.55-.45-1-1-1h-3.41c-.55,0-1,.45-1,1v2.01c1.92.03,3.75.43,5.41,1.13v-3.15Z"/>
  <path class="cls-1" d="m30,13.01h-3.09c.69,1.67,1.07,3.5,1.08,5.41h2c.55,0,1-.45,1-1v-3.41c0-.55-.45-1-1-1Z"/>
  <g>
    <path class="cls-2" d="m13.5,6C6.61,6,1,11.61,1,18.5s5.61,12.5,12.5,12.5,12.5-5.61,12.5-12.5-5.61-12.5-12.5-12.5Zm0,23c-5.79,0-10.5-4.71-10.5-10.5s4.71-10.5,10.5-10.5,10.5,4.71,10.5,10.5-4.71,10.5-10.5,10.5Z"/>
    <path class="cls-2" d="m13.5,23.94c-.55,0-1,.45-1,1v1.84c0,.55.45,1,1,1s1-.45,1-1v-1.84c0-.55-.45-1-1-1Z"/>
    <path class="cls-2" d="m13.5,13.06c.55,0,1-.45,1-1v-1.84c0-.55-.45-1-1-1s-1,.45-1,1v1.84c0,.55.45,1,1,1Z"/>
    <path class="cls-2" d="m8.06,18.5c0-.55-.45-1-1-1h-1.84c-.55,0-1,.45-1,1s.45,1,1,1h1.84c.55,0,1-.45,1-1Z"/>
    <path class="cls-2" d="m21.78,17.5h-1.84c-.55,0-1,.45-1,1s.45,1,1,1h1.84c.55,0,1-.45,1-1s-.45-1-1-1Z"/>
    <path class="cls-2" d="m14.63,15.95l-1.84,1.84c-.19.19-.29.44-.29.71v3.09c0,.55.45,1,1,1s1-.45,1-1v-2.68l1.55-1.55c.39-.39.39-1.02,0-1.41-.39-.39-1.02-.39-1.41,0Z"/>
    <path class="cls-2" d="m18.76,22.35c-.39-.39-1.02-.39-1.41,0s-.39,1.02,0,1.41l1.3,1.3c.2.2.45.29.71.29s.51-.1.71-.29c.39-.39.39-1.02,0-1.41l-1.3-1.3Z"/>
    <path class="cls-2" d="m8.35,11.94c-.39-.39-1.02-.39-1.41,0s-.39,1.02,0,1.41l1.3,1.3c.2.2.45.29.71.29s.51-.1.71-.29c.39-.39.39-1.02,0-1.41l-1.3-1.3Z"/>
    <path class="cls-2" d="m8.24,22.35l-1.3,1.3c-.39.39-.39,1.02,0,1.41.2.2.45.29.71.29s.51-.1.71-.29l1.3-1.3c.39-.39.39-1.02,0-1.41s-1.02-.39-1.41,0Z"/>
    <path class="cls-2" d="m18.05,14.95c.26,0,.51-.1.71-.29l1.3-1.3c.39-.39.39-1.02,0-1.41s-1.02-.39-1.41,0l-1.3,1.3c-.39.39-.39,1.02,0,1.41.2.2.45.29.71.29Z"/>
  </g>
</svg>