<?xml version="1.0" encoding="UTF-8"?>
<svg id="OBJECT" xmlns="http://www.w3.org/2000/svg" viewBox="0 0 32 32">
  <defs>
    <style>
      .cls-1 {
        fill: #FD4360;
      }

      .cls-1, .cls-2 {
        stroke-width: 0px;
      }

      .cls-2 {
        fill: #dadada;
      }
    </style>
  </defs>
  <path class="cls-2" d="m18,31h-4c-.55,0-1-.45-1-1v-2.39c-1.09-.28-2.13-.71-3.09-1.28l-1.69,1.68c-.39.39-1.02.39-1.41,0l-2.83-2.83c-.39-.39-.39-1.02,0-1.41l1.68-1.69c-.57-.97-1-2-1.28-3.09h-2.39c-.55,0-1-.45-1-1v-4c0-.55.45-1,1-1h2.39c.28-1.09.71-2.13,1.28-3.09l-1.68-1.69c-.39-.39-.39-1.02,0-1.41l2.83-2.83c.39-.39,1.02-.39,1.41,0l1.69,1.68c.97-.57,2-1,3.09-1.28v-2.39c0-.55.45-1,1-1h4c.55,0,1,.45,1,1v2.39c1.09.28,2.13.71,3.09,1.28l1.69-1.68c.39-.39,1.02-.39,1.41,0l2.83,2.83c.39.39.39,1.02,0,1.41l-1.68,1.69c.57.97,1,2,1.28,3.09h2.39c.55,0,1,.45,1,1v4c0,.55-.45,1-1,1h-2.39c-.28,1.09-.71,2.13-1.28,3.09l1.68,1.69c.39.39.39,1.02,0,1.41l-2.83,2.83c-.39.39-1.02.39-1.41,0l-1.69-1.68c-.97.57-2,1-3.09,1.28v2.39c0,.55-.45,1-1,1Zm-3-2h2v-2.19c0-.48.34-.9.82-.98,1.39-.26,2.69-.79,3.84-1.59.4-.28.93-.22,1.27.12l1.55,1.55,1.41-1.41-1.55-1.55c-.34-.34-.39-.88-.12-1.27.8-1.16,1.33-2.45,1.59-3.84.09-.47.5-.82.98-.82h2.19v-2h-2.19c-.48,0-.9-.34-.98-.82-.26-1.39-.79-2.69-1.59-3.84-.27-.4-.22-.93.12-1.27l1.55-1.55-1.41-1.41-1.55,1.55c-.34.34-.88.39-1.27.12-1.16-.8-2.45-1.33-3.84-1.59-.47-.09-.82-.5-.82-.98v-2.19h-2v2.19c0,.48-.34.9-.82.98-1.39.26-2.69.79-3.84,1.59-.4.28-.93.23-1.27-.12l-1.55-1.55-1.41,1.41,1.55,1.55c.34.34.39.88.12,1.27-.8,1.16-1.33,2.45-1.59,3.84-.09.47-.5.82-.98.82h-2.19v2h2.19c.48,0,.9.34.98.82.26,1.39.79,2.69,1.59,3.84.27.4.22.93-.12,1.27l-1.55,1.55,1.41,1.41,1.55-1.55c.34-.34.88-.39,1.27-.12,1.16.8,2.45,1.33,3.84,1.59.47.09.82.5.82.98v2.19Z"/>
  <path class="cls-1" d="m16,8c-4.41,0-8,3.59-8,8s3.59,8,8,8,8-3.59,8-8-3.59-8-8-8Zm2.71,10.71c-.2.2-.45.29-.71.29s-.51-.1-.71-.29l-2-2c-.19-.19-.29-.44-.29-.71v-4c0-.55.45-1,1-1s1,.45,1,1v3.59l1.71,1.71c.39.39.39,1.02,0,1.41Z"/>
</svg>