<?xml version="1.0" encoding="UTF-8"?>
<svg id="OBJECT" xmlns="http://www.w3.org/2000/svg" viewBox="0 0 32 32">
  <defs>
    <style>
      .cls-1 {
        fill: #FD4360;
      }

      .cls-1, .cls-2 {
        stroke-width: 0px;
      }

      .cls-2 {
        fill: #dadada;
      }
    </style>
  </defs>
  <path class="cls-2" d="m18.5,31h-5c-.55,0-1-.45-1-1v-2.53c-.74-.22-1.45-.52-2.13-.89l-1.79,1.79c-.39.39-1.02.39-1.41,0l-3.54-3.54c-.39-.39-.39-1.02,0-1.41l1.79-1.79c-.37-.68-.66-1.4-.89-2.13h-2.53c-.55,0-1-.45-1-1v-5c0-.55.45-1,1-1h2.53c.23-.74.52-1.45.89-2.13l-1.79-1.79c-.39-.39-.39-1.02,0-1.41l3.54-3.54c.39-.39,1.02-.39,1.41,0l1.79,1.79c.68-.36,1.4-.66,2.13-.89v-2.53c0-.55.45-1,1-1h5c.55,0,1,.45,1,1v2.53c.74.22,1.45.52,2.13.89l1.79-1.79c.39-.39,1.02-.39,1.41,0l3.54,3.54c.39.39.39,1.02,0,1.41l-1.79,1.79c.37.68.66,1.4.89,2.13h2.53c.55,0,1,.45,1,1v5c0,.55-.45,1-1,1h-2.53c-.23.74-.52,1.45-.89,2.13l1.79,1.79c.39.39.39,1.02,0,1.41l-3.54,3.54c-.39.39-1.02.39-1.41,0l-1.79-1.79c-.68.36-1.4.66-2.13.89v2.53c0,.55-.45,1-1,1Zm-4-2h3v-2.3c0-.46.32-.87.77-.97,1.06-.25,2.07-.67,3-1.24.39-.24.91-.19,1.24.14l1.63,1.63,2.12-2.12-1.62-1.63c-.33-.33-.39-.84-.14-1.24.58-.93,1-1.94,1.24-3,.11-.45.51-.77.97-.77h2.3v-3h-2.3c-.46,0-.87-.32-.97-.77-.25-1.06-.67-2.07-1.24-3-.25-.39-.19-.91.14-1.24l1.62-1.63-2.12-2.12-1.63,1.63c-.33.33-.84.39-1.24.14-.93-.58-1.94-1-3-1.24-.45-.11-.77-.51-.77-.97v-2.3h-3v2.3c0,.46-.32.87-.77.97-1.06.25-2.07.67-3,1.24-.39.25-.9.19-1.24-.14l-1.63-1.63-2.12,2.12,1.62,1.63c.33.33.39.84.14,1.24-.58.93-1,1.94-1.24,3-.11.45-.51.77-.97.77h-2.3v3h2.3c.46,0,.87.32.97.77.25,1.06.67,2.07,1.24,3,.25.39.19.91-.14,1.24l-1.62,1.63,2.12,2.12,1.63-1.63c.33-.33.84-.39,1.24-.14.93.58,1.94,1,3,1.24.45.11.77.51.77.97v2.3Z"/>
  <path class="cls-1" d="m16,7.5c-4.69,0-8.5,3.81-8.5,8.5s3.81,8.5,8.5,8.5,8.5-3.81,8.5-8.5-3.81-8.5-8.5-8.5Zm3.71,12.21c-.2.2-.45.29-.71.29s-.51-.1-.71-.29l-3-3c-.19-.19-.29-.44-.29-.71v-4c0-.55.45-1,1-1s1,.45,1,1v3.59l2.71,2.71c.39.39.39,1.02,0,1.41Z"/>
</svg>