<?xml version="1.0" encoding="UTF-8"?>
<svg id="OBJECT" xmlns="http://www.w3.org/2000/svg" viewBox="0 0 32 32">
  <defs>
    <style>
      .cls-1 {
        fill: #FD4360;
      }

      .cls-1, .cls-2 {
        stroke-width: 0px;
      }

      .cls-2 {
        fill: #dadada;
      }
    </style>
  </defs>
  <g>
    <path class="cls-2" d="m15,13.58v-3.87c0-.55-.45-1-1-1s-1,.45-1,1v4.29c0,.27.11.52.29.71l1.63,1.63c.2.2.45.29.71.29s.51-.1.71-.29c.39-.39.39-1.02,0-1.41l-1.33-1.33Z"/>
    <path class="cls-2" d="m14,1C6.83,1,1,6.83,1,14c0,6.43,4.6,11.83,10.94,12.84.05,0,.11.01.16.01.48,0,.91-.35.99-.84.09-.54-.28-1.06-.83-1.14-5.36-.85-9.25-5.42-9.25-10.86C3,7.93,7.93,3,14,3c5.62,0,10.32,4.2,10.93,9.78.06.55.55.94,1.1.88.55-.06.95-.55.88-1.1-.73-6.59-6.28-11.56-12.92-11.56Z"/>
    <path class="cls-2" d="m14,4.43c-5.28,0-9.57,4.29-9.57,9.57,0,4.56,3.25,8.51,7.72,9.39.07.01.13.02.19.02.47,0,.89-.33.98-.81.11-.54-.25-1.07-.79-1.17-3.54-.7-6.11-3.82-6.11-7.43,0-4.17,3.4-7.57,7.57-7.57,3.69,0,6.91,2.75,7.48,6.4.08.55.6.92,1.14.83.55-.09.92-.6.83-1.14-.72-4.61-4.79-8.09-9.46-8.09Z"/>
  </g>
  <path class="cls-1" d="m23,15c-4.41,0-8,3.59-8,8s3.59,8,8,8,8-3.59,8-8-3.59-8-8-8Zm-.65,7h1.3c1.27,0,2.3,1.03,2.3,2.3,0,1.15-.85,2.09-1.94,2.26v.33c0,.55-.45,1-1,1s-1-.45-1-1v-.3h-.94c-.55,0-1-.45-1-1s.45-1,1-1h2.59c.16,0,.3-.13.3-.3s-.13-.3-.3-.3h-1.3c-1.27,0-2.3-1.03-2.3-2.3,0-1.15.85-2.09,1.94-2.26v-.33c0-.55.45-1,1-1s1,.45,1,1v.3h.94c.55,0,1,.45,1,1s-.45,1-1,1h-2.59c-.16,0-.3.13-.3.3s.13.3.3.3Z"/>
</svg>