<?xml version="1.0" encoding="UTF-8"?>
<svg id="OBJECT" xmlns="http://www.w3.org/2000/svg" viewBox="0 0 32 32">
  <defs>
    <style>
      .cls-1 {
        fill: #FD4360;
      }

      .cls-1, .cls-2 {
        stroke-width: 0px;
      }

      .cls-2 {
        fill: #dadada;
      }
    </style>
  </defs>
  <g>
    <path class="cls-2" d="m23.43,23.69l-.93-.37v-1.32h.5c.55,0,1-.45,1-1s-.45-1-1-1h-14c-.55,0-1,.45-1,1s.45,1,1,1h.5v1.32l-.93.37c-.96.38-1.57,1.29-1.57,2.32v3.98c0,.55.45,1,1,1h16c.55,0,1-.45,1-1v-3.98c0-1.03-.62-1.94-1.57-2.32Zm-.43,5.31h-14v-2.98c0-.21.12-.39.32-.46l1.56-.62c.38-.15.63-.52.63-.93v-2h9v2c0,.41.25.78.63.93l1.56.62c.19.08.31.26.31.46v2.98Z"/>
    <path class="cls-2" d="m14,25h-1c-.55,0-1,.45-1,1s.45,1,1,1h1c.55,0,1-.45,1-1s-.45-1-1-1Z"/>
    <path class="cls-2" d="m19,25h-1c-.55,0-1,.45-1,1s.45,1,1,1h1c.55,0,1-.45,1-1s-.45-1-1-1Z"/>
  </g>
  <path class="cls-1" d="m12.99,19h2v-2.25c2.52-.72,4.59-1.84,6.14-3.36.28-.28.38-.69.24-1.06l-.21-.57.65.07c.38.04.75-.14.96-.47,2.74-4.41,1.45-9.41,1.39-9.62-.13-.5-.63-.82-1.15-.73-4.25.79-7.27,2.62-8.98,5.46-2.44,4.06-1.3,8.74-1.04,9.65v2.87Z"/>
</svg>