<?xml version="1.0" encoding="UTF-8"?>
<svg id="OBJECT" xmlns="http://www.w3.org/2000/svg" viewBox="0 0 32 32">
  <defs>
    <style>
      .cls-1 {
        fill: #FD4360;
      }

      .cls-1, .cls-2 {
        stroke-width: 0px;
      }

      .cls-2 {
        fill: #dadada;
      }
    </style>
  </defs>
  <path class="cls-2" d="m30,2h-2c-1.38,0-2.5,1.12-2.5,2.5v.5h-15v-1c0-.55.45-1,1-1h5c.55,0,1-.45,1-1s-.45-1-1-1h-5c-1.65,0-3,1.35-3,3v1h-2v-.5c0-1.38-1.12-2.5-2.5-2.5h-2c-.55,0-1,.45-1,1v6c0,.55.45,1,1,1h2c1.38,0,2.5-1.12,2.5-2.5v-.5h2v23c0,.55.45,1,1,1h11c.55,0,1-.45,1-1v-7c0-.55-.45-1-1-1s-1,.45-1,1v1h-9V7h15v.5c0,1.38,1.12,2.5,2.5,2.5h2c.55,0,1-.45,1-1V3c0-.55-.45-1-1-1ZM4.5,7.5c0,.28-.22.5-.5.5h-1v-4h1c.28,0,.5.22.5.5v3Zm15,18.5v3h-9v-3h9Zm9.5-18h-1c-.28,0-.5-.22-.5-.5v-3c0-.28.22-.5.5-.5h1v4Z"/>
  <g>
    <rect class="cls-1" x="19.5" y="15" width="4" height="5"/>
    <path class="cls-1" d="m21.5,1c-1.1,0-2,.9-2,2h4c0-1.1-.9-2-2-2Z"/>
    <rect class="cls-1" x="19.5" y="9" width="4" height="4"/>
  </g>
</svg>