<?xml version="1.0" encoding="UTF-8"?>
<svg id="OBJECT" xmlns="http://www.w3.org/2000/svg" viewBox="0 0 32 32">
  <defs>
    <style>
      .cls-1 {
        fill: #FD4360;
      }

      .cls-1, .cls-2 {
        stroke-width: 0px;
      }

      .cls-2 {
        fill: #dadada;
      }
    </style>
  </defs>
  <path class="cls-1" d="m30.71,9.58c-.29-.29-.74-.38-1.12-.21-.42.19-.73.09-.95-.1,1.98-2.6,1.18-6.32,1.17-6.36-.09-.37-.38-.65-.75-.73-.04,0-3.73-.8-6.33,1.17-.19-.22-.28-.54-.1-.95.17-.38.09-.83-.21-1.12-.29-.29-.74-.37-1.12-.2-.17.08-3.31,1.56-4.69,4.76l4.06,4.06,1.62-1.62c.39-.39,1.02-.39,1.41,0s.39,1.02,0,1.41l-1.62,1.62,4.06,4.06c3.2-1.38,4.68-4.52,4.76-4.69.17-.38.09-.83-.2-1.12Z"/>
  <path class="cls-2" d="m26.38,17.62L14.38,5.62c-.39-.39-1.02-.39-1.41,0s-.39,1.02,0,1.41l.8.8-1.56,1.56c-.19.19-.29.44-.29.71s.11.52.29.71l1,1L1.56,26.38c-.81,1.01-.73,2.45.19,3.37l.52.52c.49.49,1.14.74,1.79.74.56,0,1.11-.18,1.58-.55l14.56-11.65,1,1c.2.2.45.29.71.29s.51-.1.71-.29l1.56-1.56.8.8c.2.2.45.29.71.29s.51-.1.71-.29c.39-.39.39-1.02,0-1.41ZM4.37,28.88c-.21.17-.51.15-.7-.04l-.52-.52c-.19-.19-.21-.49-.04-.7l2.21-2.76,1.81,1.81-2.76,2.21Zm4.34-3.47l-2.12-2.12,8.04-10.06,4.14,4.14-10.06,8.04Zm13.19-7.74l-7.57-7.57.85-.85,7.57,7.57-.85.85Z"/>
</svg>