<?xml version="1.0" encoding="UTF-8"?>
<svg id="OBJECT" xmlns="http://www.w3.org/2000/svg" viewBox="0 0 32 32">
  <defs>
    <style>
      .cls-1 {
        fill: #FD4360;
      }

      .cls-1, .cls-2 {
        stroke-width: 0px;
      }

      .cls-2 {
        fill: #dadada;
      }
    </style>
  </defs>
  <g>
    <path class="cls-2" d="m22.6,7.08c-.55,0-1,.45-1,1,0,.55.45,1,1,1h.02c.62,0,1.19.24,1.62.67.44.44.67,1.02.67,1.64,0,.55.44,1,1,1h0c.55,0,1-.44,1-1,0-1.16-.44-2.25-1.26-3.06-.81-.81-1.87-1.24-3.06-1.26Z"/>
    <path class="cls-2" d="m28.78,5.22c-1.43-1.43-3.34-2.22-5.37-2.22h-.04c-.55,0-1,.45-1,1,0,.55.45,1,1,1,.01,0,.02,0,.03,0,1.5,0,2.9.58,3.96,1.63,1.06,1.06,1.64,2.48,1.63,3.99,0,.55.44,1,1,1h0c.55,0,1-.44,1-1,0-2.05-.78-3.97-2.22-5.41Z"/>
    <path class="cls-2" d="m22.71,10.92c-.39-.39-1.02-.39-1.41,0s-.39,1.02,0,1.41l.37.37c.2.2.45.29.71.29s.51-.1.71-.29c.39-.39.39-1.02,0-1.41l-.37-.37Z"/>
    <path class="cls-2" d="m21,16H2c-.55,0-1,.45-1,1v13c0,.55.45,1,1,1h14c.55,0,1-.45,1-1s-.45-1-1-1h-6v-4h7c1.65,0,3-1.35,3-3v-4h1c.55,0,1-.45,1-1s-.45-1-1-1Zm-13,13H3v-4h5v4Zm10-7c0,.55-.45,1-1,1H3v-5h15v4Z"/>
    <path class="cls-2" d="m14,21.5h1c.55,0,1-.45,1-1s-.45-1-1-1h-1c-.55,0-1,.45-1,1s.45,1,1,1Z"/>
    <path class="cls-2" d="m10,21.5h1c.55,0,1-.45,1-1s-.45-1-1-1h-1c-.55,0-1,.45-1,1s.45,1,1,1Z"/>
  </g>
  <path class="cls-1" d="m11,7h4c1.1,0,2-.9,2-2v-2c0-1.1-.9-2-2-2H3c-1.1,0-2,.9-2,2v6h4.59l.71-.71c.39-.39,1.02-.39,1.41,0s.39,1.02,0,1.41l-.71.71c-.38.38-.88.59-1.41.59H1v3h10v-7Z"/>
</svg>