<?xml version="1.0" encoding="UTF-8"?>
<svg id="OBJECT" xmlns="http://www.w3.org/2000/svg" viewBox="0 0 32 32">
  <defs>
    <style>
      .cls-1 {
        fill: #FD4360;
      }

      .cls-1, .cls-2 {
        stroke-width: 0px;
      }

      .cls-2 {
        fill: #dadada;
      }
    </style>
  </defs>
  <g>
    <path class="cls-2" d="m20.37,19.12c.08-.33.13-.67.13-1.02v-2.1c0-2.1-1.71-3.8-3.8-3.8h-1.4c-2.09,0-3.8,1.7-3.8,3.8v2.1c0,.35.05.69.13,1.02-2.25,1.47-3.63,3.95-3.63,6.68v1.4c0,2.1,1.71,3.8,3.8,3.8h8.4c2.09,0,3.8-1.7,3.8-3.8v-1.4c0-2.73-1.38-5.21-3.63-6.68Zm-6.87-3.12c0-.99.81-1.8,1.8-1.8h1.4c.99,0,1.8.81,1.8,1.8v2.1c0,1.38-1.12,2.5-2.5,2.5s-2.5-1.12-2.5-2.5v-2.1Zm8.5,11.2c0,.99-.81,1.8-1.8,1.8h-8.4c-.99,0-1.8-.81-1.8-1.8v-1.4c0-1.96.95-3.76,2.52-4.88.83,1.02,2.07,1.68,3.48,1.68s2.65-.66,3.48-1.68c1.57,1.12,2.52,2.92,2.52,4.88v1.4Z"/>
    <path class="cls-2" d="m14,7.5c0-3.58-2.92-6.5-6.5-6.5S1,3.92,1,7.5s2.92,6.5,6.5,6.5,6.5-2.92,6.5-6.5Zm-6.5,4.5c-2.48,0-4.5-2.02-4.5-4.5S5.02,3,7.5,3s4.5,2.02,4.5,4.5-2.02,4.5-4.5,4.5Z"/>
    <path class="cls-2" d="m9.96,5.04c-.39-.39-1.02-.39-1.41,0l-1.04,1.04-1.04-1.04c-.39-.39-1.02-.39-1.41,0s-.39,1.02,0,1.41l1.04,1.04-1.04,1.04c-.39.39-.39,1.02,0,1.41.2.2.45.29.71.29s.51-.1.71-.29l1.04-1.04,1.04,1.04c.2.2.45.29.71.29s.51-.1.71-.29c.39-.39.39-1.02,0-1.41l-1.04-1.04,1.04-1.04c.39-.39.39-1.02,0-1.41Z"/>
  </g>
  <path class="cls-1" d="m24.5,1c-3.58,0-6.5,2.92-6.5,6.5s2.92,6.5,6.5,6.5,6.5-2.92,6.5-6.5-2.92-6.5-6.5-6.5Zm2.71,5.99l-2.44,2.44c-.19.19-.44.29-.71.29s-.52-.11-.71-.29l-1.56-1.56c-.39-.39-.39-1.02,0-1.41.39-.39,1.02-.39,1.41,0l.85.85,1.73-1.73c.39-.39,1.02-.39,1.41,0s.39,1.02,0,1.41Z"/>
</svg>