<?xml version="1.0" encoding="UTF-8"?>
<svg id="OBJECT" xmlns="http://www.w3.org/2000/svg" viewBox="0 0 32 32">
  <defs>
    <style>
      .cls-1 {
        fill: #FD4360;
      }

      .cls-1, .cls-2 {
        stroke-width: 0px;
      }

      .cls-2 {
        fill: #dadada;
      }
    </style>
  </defs>
  <circle class="cls-1" cx="25.5" cy="18.67" r="5.5"/>
  <path class="cls-1" d="m21.12,24.75v5.25c0,.38.21.73.55.89s.75.13,1.05-.09l2.78-2.08,2.78,2.08c.18.13.39.2.6.2.15,0,.31-.03.45-.11.34-.17.55-.52.55-.89v-5.25c-1.23.89-2.74,1.42-4.38,1.42s-3.14-.53-4.38-1.42Z"/>
  <g>
    <path class="cls-2" d="m9.71,12.79c-.55,0-1,.45-1,1s.45,1,1,1h8.57c.55,0,1-.45,1-1s-.45-1-1-1h-8.57Z"/>
    <path class="cls-2" d="m26.83,9.01l-5.14-7.57c-.19-.27-.5-.44-.83-.44H7.14c-.33,0-.64.16-.83.44L1.17,9.01c-.21.31-.23.7-.06,1.03.17.33.51.53.88.53h.71v14.43h-.71c-.55,0-1,.45-1,1s.45,1,1,1h16c.55,0,1-.45,1-1s-.45-1-1-1h-3v-5.71h2.08c.55,0,1-.45,1-1s-.45-1-1-1h-9.08c-.55,0-1,.45-1,1v6.71h-2.29v-14.43h18.57v.32c0,.55.45,1,1,1s1-.45,1-1v-.32h.71c.37,0,.71-.2.88-.53.17-.33.15-.72-.06-1.03Zm-17.83,10.28h4v5.71h-4v-5.71Zm15.11-10.72h-3.26l-2.13-5.57h1.61l3.78,5.57ZM15,3h1.58l2.13,5.57h-3.71V3Zm-2,5.57h-3.71l2.13-5.57h1.58v5.57ZM7.67,3h1.61l-2.13,5.57h-3.26l3.78-5.57Z"/>
  </g>
</svg>