<?xml version="1.0" encoding="UTF-8"?>
<svg id="OBJECT" xmlns="http://www.w3.org/2000/svg" viewBox="0 0 32 32">
  <defs>
    <style>
      .cls-1 {
        fill: #FD4360;
      }

      .cls-1, .cls-2 {
        stroke-width: 0px;
      }

      .cls-2 {
        fill: #dadada;
      }
    </style>
  </defs>
  <path class="cls-1" d="m27.63,22.4c.08-.26.14-.54.14-.83v-1.58c0-1.24-1-2.24-2.24-2.24h-1.05c-1.24,0-2.24,1-2.24,2.24v1.5c0,.31.05.62.15.91-1.99.86-3.38,2.84-3.38,5.14v3.46h1.95v-2.25c0-.55.45-1,1-1s1,.45,1,1v2.25h4.1v-2.25c0-.55.45-1,1-1s1,.45,1,1v2.25h1.95v-3.46c0-2.3-1.39-4.28-3.37-5.14Z"/>
  <g>
    <path class="cls-2" d="m20.72,11.7c.2-.55.33-1.13.33-1.75v-3.04c0-2.23-1.81-4.04-4.04-4.04h-2.03c-2.23,0-4.04,1.81-4.04,4.04v3.04c0,.62.13,1.2.33,1.75-1.19.58-2.24,1.4-3.1,2.43-1.84.02-3.33,1.52-3.33,3.36v2.36c0,.43.09.84.21,1.24-2.46,1.27-4.06,3.81-4.06,6.64v2.28c0,.55.45,1,1,1h14c.55,0,1-.45,1-1v-2.28c0-2.83-1.6-5.37-4.06-6.64.12-.39.21-.8.21-1.24v-2.36c0-1.49-.97-2.73-2.31-3.18.46-.36.97-.66,1.5-.9.92.97,2.22,1.59,3.66,1.59s2.74-.62,3.66-1.59c1.14.51,2.14,1.29,2.9,2.31.2.26.5.4.8.4.21,0,.42-.06.6-.2.44-.33.53-.96.2-1.4-.91-1.22-2.09-2.17-3.44-2.82Zm-5.72,16.03v1.28h-1.85v-1.62c0-.55-.45-1-1-1s-1,.45-1,1v1.62h-4.3v-1.62c0-.55-.45-1-1-1s-1,.45-1,1v1.62h-1.85v-1.28c0-2.12,1.23-4.01,3.1-4.91.75.73,1.77,1.19,2.9,1.19s2.15-.46,2.9-1.19c1.87.9,3.1,2.8,3.1,4.91Zm-3.85-7.87c0,1.19-.96,2.15-2.15,2.15s-2.15-.96-2.15-2.15v-2.36c0-.75.61-1.36,1.36-1.36h1.57c.75,0,1.36.61,1.36,1.36v2.36Zm4.85-6.85c-1.68,0-3.05-1.37-3.05-3.05v-3.04c0-1.12.91-2.04,2.04-2.04h2.03c1.12,0,2.04.91,2.04,2.04v3.04c0,1.68-1.37,3.05-3.05,3.05Z"/>
    <path class="cls-2" d="m30.38,4.57c-.29-.47-.91-.61-1.38-.31l-2.46,1.55c-.47.29-.61.91-.31,1.38.19.3.52.47.85.47.18,0,.37-.05.53-.15l2.46-1.55c.47-.29.61-.91.31-1.38Z"/>
    <path class="cls-2" d="m24.36,1.03c-.54-.12-1.08.21-1.2.75l-.31,1.38c-.12.54.22,1.07.75,1.2.07.02.15.02.22.02.46,0,.87-.31.97-.78l.31-1.38c.12-.54-.22-1.07-.75-1.2Z"/>
    <path class="cls-2" d="m30.22,10.34l-1.38-.31c-.54-.12-1.08.21-1.2.75s.22,1.07.75,1.2l1.38.31c.07.02.15.02.22.02.46,0,.87-.31.97-.78.12-.54-.22-1.07-.75-1.2Z"/>
    <path class="cls-2" d="m1.93,5.95l2.46,1.55c.17.1.35.15.53.15.33,0,.66-.17.85-.47.29-.47.15-1.08-.31-1.38l-2.46-1.55c-.47-.29-1.08-.15-1.38.31-.29.47-.15,1.08.31,1.38Z"/>
    <path class="cls-2" d="m7.2,3.6c.11.46.52.78.97.78.07,0,.15,0,.22-.02.54-.12.88-.66.75-1.2l-.31-1.38c-.12-.54-.66-.88-1.2-.75-.54.12-.88.66-.75,1.2l.31,1.38Z"/>
    <path class="cls-2" d="m2,12.31c.07,0,.15,0,.22-.02l1.38-.31c.54-.12.88-.66.75-1.2s-.66-.88-1.2-.75l-1.38.31c-.54.12-.88.66-.75,1.2.11.46.52.78.97.78Z"/>
  </g>
</svg>