<?xml version="1.0" encoding="UTF-8"?>
<svg id="OBJECT" xmlns="http://www.w3.org/2000/svg" viewBox="0 0 32 32">
  <defs>
    <style>
      .cls-1 {
        fill: #FD4360;
      }

      .cls-1, .cls-2 {
        stroke-width: 0px;
      }

      .cls-2 {
        fill: #dadada;
      }
    </style>
  </defs>
  <path class="cls-2" d="m30.95,14.91c-.05-.52-.48-.91-1-.91H2.05c-.52,0-.95.39-1,.91-.03.36-.05.72-.05,1.09,0,8.27,6.73,15,15,15s15-6.73,15-15c0-.37-.02-.73-.05-1.09Zm-2.26,3.91c-1.71.98-3.63,1.76-5.68,2.3v-5.12h6c0,.97-.12,1.91-.32,2.82Zm-7.68,2.73c-1.62.29-3.3.45-5,.45s-3.38-.16-5-.45v-5.55h10v5.55Zm-12-5.55v5.12c-2.06-.53-3.97-1.31-5.68-2.3-.2-.91-.32-1.85-.32-2.82h6Zm-4.74,5.55c1.48.68,3.07,1.22,4.74,1.62v3.77c-2.04-1.31-3.69-3.18-4.74-5.39Zm6.74,6.45v-4.42c1.63.27,3.3.43,5,.43s3.37-.15,5-.43v4.42c-1.54.64-3.23,1-5,1s-3.46-.36-5-1Zm12-1.06v-3.77c1.67-.4,3.25-.95,4.74-1.62-1.05,2.21-2.7,4.08-4.74,5.39Z"/>
  <g>
    <path class="cls-1" d="m16,9.8c-1.96,0-3.65-1.15-4.46-2.79-.95,1.06-1.54,2.46-1.54,3.99v1h12v-1c0-1.53-.58-2.93-1.54-3.99-.82,1.65-2.5,2.79-4.46,2.79Z"/>
    <path class="cls-1" d="m16,7.8c1.65,0,3-1.35,3-3v-1.2c0-1.43-1.17-2.6-2.6-2.6h-.8c-1.43,0-2.6,1.17-2.6,2.6v1.2c0,1.65,1.35,3,3,3Z"/>
    <path class="cls-1" d="m24.4,7.35l3.14-3.7c.36-.42.31-1.05-.12-1.41-.42-.36-1.05-.31-1.41.12l-3.14,3.7c-.36.42-.31,1.05.12,1.41.19.16.42.24.65.24.28,0,.57-.12.76-.35Z"/>
    <path class="cls-1" d="m27.38,9.04l-3.07-.07c-.56,0-1.01.42-1.02.98-.01.55.42,1.01.98,1.02l3.07.07h.02c.54,0,.99-.43,1-.98.01-.55-.42-1.01-.98-1.02Z"/>
    <path class="cls-1" d="m5.98,2.35c-.36-.42-.99-.47-1.41-.12-.42.36-.47.99-.12,1.41l3.14,3.7c.2.23.48.35.76.35.23,0,.46-.08.65-.24.42-.36.47-.99.12-1.41l-3.14-3.7Z"/>
    <path class="cls-1" d="m7.69,8.97l-3.07.07c-.55.01-.99.47-.98,1.02.01.54.46.98,1,.98h.02l3.07-.07c.55-.01.99-.47.98-1.02-.01-.55-.48-.99-1.02-.98Z"/>
  </g>
</svg>