<?xml version="1.0" encoding="UTF-8"?>
<svg id="OBJECT" xmlns="http://www.w3.org/2000/svg" viewBox="0 0 32 32">
  <defs>
    <style>
      .cls-1 {
        fill: #FD4360;
      }

      .cls-1, .cls-2 {
        stroke-width: 0px;
      }

      .cls-2 {
        fill: #dadada;
      }
    </style>
  </defs>
  <path class="cls-2" d="m30,14h-1v-1c0-1.97-.96-3.78-2.56-4.89.03-.2.06-.4.06-.61v-1.5c0-1.65-1.35-3-3-3h-1c-1.65,0-3,1.35-3,3v1.5c0,.21.03.41.06.61-1.6,1.11-2.56,2.92-2.56,4.89v1H2c-.55,0-1,.45-1,1s.45,1,1,1v14c0,.55.45,1,1,1s1-.45,1-1v-2h6v2c0,.55.45,1,1,1s1-.45,1-1v-3h16v3c0,.55.45,1,1,1s1-.45,1-1v-14c.55,0,1-.45,1-1s-.45-1-1-1Zm-8.5-8c0-.55.45-1,1-1h1c.55,0,1,.45,1,1v1.5c0,.83-.67,1.5-1.5,1.5s-1.5-.67-1.5-1.5v-1.5Zm-2.5,7c0-1.21.56-2.33,1.49-3.08.64.66,1.53,1.08,2.51,1.08s1.88-.42,2.51-1.08c.93.75,1.49,1.86,1.49,3.08v1h-8v-1Zm-15,13v-6h6v6h-6Zm8-1v-5h16v5H12Zm16-7H4v-2h24v2Z"/>
  <path class="cls-1" d="m3,11h2.5v2h2v-2h3v2h2v-2h2.5c.55,0,1-.45,1-1V2c0-.55-.45-1-1-1H3c-.55,0-1,.45-1,1v8c0,.55.45,1,1,1Z"/>
</svg>