<?xml version="1.0" encoding="UTF-8"?>
<svg id="OBJECT" xmlns="http://www.w3.org/2000/svg" viewBox="0 0 32 32">
  <defs>
    <style>
      .cls-1 {
        fill: #FD4360;
      }

      .cls-1, .cls-2 {
        stroke-width: 0px;
      }

      .cls-2 {
        fill: #dadada;
      }
    </style>
  </defs>
  <g>
    <path class="cls-2" d="m10.57,22.61c.05-.24.09-.5.09-.76v-2.3c0-1.15-.93-2.08-2.08-2.08h-2.87c-1.15,0-2.08.93-2.08,2.08v2.3c0,.26.03.51.09.76-1.64.81-2.71,2.47-2.71,4.36v1.66c0,1.31,1.06,2.37,2.37,2.37h7.54c1.31,0,2.37-1.06,2.37-2.37v-1.66c0-1.89-1.08-3.55-2.71-4.36Zm-4.95-3.05s.04-.08.08-.08h2.87s.08.04.08.08v2.3c0,.83-.68,1.51-1.51,1.51h-.01c-.83,0-1.51-.68-1.51-1.51v-2.3Zm5.66,9.07c0,.21-.17.37-.37.37H3.37c-.21,0-.37-.17-.37-.37v-1.66c0-1.15.67-2.15,1.68-2.61.63.62,1.5,1.01,2.46,1.01h.01c.96,0,1.82-.39,2.46-1.01,1.01.46,1.68,1.47,1.68,2.61v1.66Z"/>
    <path class="cls-2" d="m28.29,22.61c.05-.24.09-.5.09-.76v-2.3c0-1.15-.93-2.08-2.08-2.08h-2.87c-1.15,0-2.08.93-2.08,2.08v2.3c0,.26.03.51.09.76-1.64.81-2.71,2.47-2.71,4.36v1.66c0,1.31,1.06,2.37,2.37,2.37h7.54c1.31,0,2.37-1.06,2.37-2.37v-1.66c0-1.89-1.08-3.55-2.71-4.36Zm-4.95-3.05s.04-.08.08-.08h2.87s.08.04.08.08v2.3c0,.83-.68,1.51-1.51,1.51h-.01c-.83,0-1.51-.68-1.51-1.51v-2.3Zm5.66,9.07c0,.21-.17.37-.37.37h-7.54c-.21,0-.37-.17-.37-.37v-1.66c0-1.15.67-2.15,1.68-2.61.63.62,1.5,1.01,2.46,1.01h.01c.96,0,1.82-.39,2.46-1.01,1.01.46,1.68,1.47,1.68,2.61v1.66Z"/>
  </g>
  <path class="cls-1" d="m16,1c-4.57,0-8.29,3.71-8.29,8.28s3.72,8.28,8.29,8.28,8.29-3.71,8.29-8.28S20.57,1,16,1Zm-.67,7.24h1.34c1.31,0,2.38,1.07,2.38,2.38,0,1.19-.88,2.16-2.01,2.34v.34c0,.57-.46,1.03-1.04,1.03s-1.04-.46-1.04-1.03v-.31h-.98c-.57,0-1.04-.46-1.04-1.03s.46-1.03,1.04-1.03h2.69c.17,0,.31-.14.31-.31s-.14-.31-.31-.31h-1.34c-1.31,0-2.38-1.07-2.38-2.38,0-1.19.88-2.16,2.01-2.34v-.34c0-.57.46-1.03,1.04-1.03s1.04.46,1.04,1.03v.31h.98c.57,0,1.04.46,1.04,1.03s-.46,1.03-1.04,1.03h-2.69c-.17,0-.31.14-.31.31s.14.31.31.31Z"/>
</svg>