<?xml version="1.0" encoding="UTF-8"?>
<svg id="OBJECT" xmlns="http://www.w3.org/2000/svg" viewBox="0 0 32 32">
  <defs>
    <style>
      .cls-1 {
        fill: #FD4360;
      }

      .cls-1, .cls-2 {
        stroke-width: 0px;
      }

      .cls-2 {
        fill: #dadada;
      }
    </style>
  </defs>
  <path class="cls-1" d="m28.88,1h-6.75c-1.17,0-2.12.95-2.12,2.12v7.35c0,1.17.95,2.12,2.12,2.12h6.75c1.17,0,2.12-.95,2.12-2.12V3.12c0-1.17-.95-2.12-2.12-2.12Zm-.78,5.53c0,1.21-.99,2.2-2.2,2.2h-.8c-1.21,0-2.2-.99-2.2-2.2v-1.47c0-.55.45-1,1-1s1,.45,1,1v1.47c0,.11.09.2.2.2h.8c.11,0,.2-.09.2-.2v-1.47c0-.55.45-1,1-1s1,.45,1,1v1.47Z"/>
  <g>
    <path class="cls-2" d="m5.94,18.14c-.29-.03-.59-.03-.87,0-1.31.12-2.5.81-3.25,1.91-.79,1.15-1.02,2.57-.64,3.9.1.36.26.71.49,1.08l2.96,5.45c.17.32.51.52.88.52s.7-.2.88-.52l2.93-5.41c.25-.41.41-.76.51-1.12.38-1.33.15-2.75-.64-3.9-.75-1.1-1.94-1.79-3.25-1.91Zm1.96,5.26c-.05.18-.15.39-.32.68l-2.08,3.83-2.1-3.87c-.15-.25-.25-.45-.3-.64-.21-.74-.08-1.57.36-2.21.42-.61,1.05-.99,1.78-1.05.08,0,.17-.01.25-.01s.17,0,.26.01c.73.06,1.36.44,1.78,1.05.44.64.58,1.47.36,2.21Z"/>
    <path class="cls-2" d="m6,21.62h-1c-.55,0-1,.45-1,1s.45,1,1,1h1c.55,0,1-.45,1-1s-.45-1-1-1Z"/>
    <path class="cls-2" d="m22.39,14.34h-13.05c-1.85,0-3.35-1.5-3.35-3.35s1.5-3.35,3.35-3.35h3.45c.55,0,1-.45,1-1s-.45-1-1-1h-3.45c-2.95,0-5.35,2.4-5.35,5.35s2.4,5.35,5.35,5.35h13.05c1.99,0,3.61,1.62,3.61,3.61s-1.62,3.61-3.61,3.61h-5.94c-.55,0-1,.45-1,1s.45,1,1,1h5.94c3.09,0,5.61-2.52,5.61-5.61s-2.52-5.61-5.61-5.61Z"/>
    <path class="cls-2" d="m16.07,7.65h1c.55,0,1-.45,1-1s-.45-1-1-1h-1c-.55,0-1,.45-1,1s.45,1,1,1Z"/>
    <path class="cls-2" d="m13.43,23.56h-1c-.55,0-1,.45-1,1s.45,1,1,1h1c.55,0,1-.45,1-1s-.45-1-1-1Z"/>
  </g>
</svg>