<?xml version="1.0" encoding="UTF-8"?>
<svg id="OBJECT" xmlns="http://www.w3.org/2000/svg" viewBox="0 0 32 32">
  <defs>
    <style>
      .cls-1 {
        fill: #FD4360;
      }

      .cls-1, .cls-2 {
        stroke-width: 0px;
      }

      .cls-2 {
        fill: #dadada;
      }
    </style>
  </defs>
  <g>
    <path class="cls-2" d="m13.66,2.57l-1.61-1.07c-.49-.33-1.07-.5-1.66-.5h-6.39c-1.65,0-3,1.35-3,3v11c0,1.65,1.35,3,3,3h8c1.65,0,3-1.35,3-3V5.07c0-1-.5-1.94-1.34-2.5Zm-.66,12.43c0,.55-.45,1-1,1H4c-.55,0-1-.45-1-1V4c0-.55.45-1,1-1h6.39c.2,0,.39.06.55.17l1.61,1.07c.28.19.45.5.45.83v9.93Z"/>
    <path class="cls-2" d="m10.5,12.5h-5c-.55,0-1,.45-1,1s.45,1,1,1h5c.55,0,1-.45,1-1s-.45-1-1-1Z"/>
    <path class="cls-2" d="m10.5,8.5h-5c-.55,0-1,.45-1,1s.45,1,1,1h5c.55,0,1-.45,1-1s-.45-1-1-1Z"/>
    <path class="cls-2" d="m5.5,6.5h3c.55,0,1-.45,1-1s-.45-1-1-1h-3c-.55,0-1,.45-1,1s.45,1,1,1Z"/>
    <path class="cls-2" d="m26.71,8.04c-.39-.39-1.02-.39-1.41,0l-.79.79v-2.84c0-1.65-1.35-3-3-3h-2c-.55,0-1,.45-1,1s.45,1,1,1h2c.55,0,1,.45,1,1v2.84l-.79-.79c-.39-.39-1.02-.39-1.41,0s-.39,1.02,0,1.41l2.5,2.5c.2.2.45.29.71.29s.51-.1.71-.29l2.5-2.5c.39-.39.39-1.02,0-1.41Z"/>
    <path class="cls-2" d="m12.5,27h-2c-.55,0-1-.45-1-1v-2.84l.79.79c.2.2.45.29.71.29s.51-.1.71-.29c.39-.39.39-1.02,0-1.41l-2.5-2.5c-.39-.39-1.02-.39-1.41,0l-2.5,2.5c-.39.39-.39,1.02,0,1.41s1.02.39,1.41,0l.79-.79v2.84c0,1.65,1.35,3,3,3h2c.55,0,1-.45,1-1s-.45-1-1-1Z"/>
  </g>
  <path class="cls-1" d="m28,14h-6.39c-.59,0-1.17.17-1.66.5l-1.61,1.07c-.84.56-1.34,1.49-1.34,2.5v9.93c0,1.65,1.35,3,3,3h8c1.65,0,3-1.35,3-3v-11c0-1.65-1.35-3-3-3Zm-1.5,13.5h-5c-.55,0-1-.45-1-1s.45-1,1-1h5c.55,0,1,.45,1,1s-.45,1-1,1Zm0-4h-5c-.55,0-1-.45-1-1s.45-1,1-1h5c.55,0,1,.45,1,1s-.45,1-1,1Zm0-4h-3c-.55,0-1-.45-1-1s.45-1,1-1h3c.55,0,1,.45,1,1s-.45,1-1,1Z"/>
</svg>