<?xml version="1.0" encoding="UTF-8"?>
<svg id="OBJECT" xmlns="http://www.w3.org/2000/svg" viewBox="0 0 32 32">
  <defs>
    <style>
      .cls-1 {
        fill: #FD4360;
      }

      .cls-1, .cls-2 {
        stroke-width: 0px;
      }

      .cls-2 {
        fill: #dadada;
      }
    </style>
  </defs>
  <g>
    <path class="cls-2" d="m26,19h-11v-2h11c.55,0,1-.45,1-1s-.45-1-1-1h-11v-6.17c0-.8-.31-1.55-.88-2.12l-1.83-1.83c-.57-.57-1.32-.88-2.12-.88h-6.17c-1.65,0-3,1.35-3,3v18c0,1.65,1.35,3,3,3h8c1.65,0,3-1.35,3-3v-4h8.59l-1.29,1.29c-.39.39-.39,1.02,0,1.41.2.2.45.29.71.29s.51-.1.71-.29l3-3c.29-.29.37-.72.22-1.09s-.52-.62-.92-.62Zm-13,6c0,.55-.45,1-1,1H4c-.55,0-1-.45-1-1V7c0-.55.45-1,1-1h6.17c.27,0,.52.1.71.29l1.83,1.83c.19.19.29.44.29.71v6.17h-4.59l1.29-1.29c.39-.39.39-1.02,0-1.41s-1.02-.39-1.41,0l-3,3c-.29.29-.37.72-.22,1.09s.52.62.92.62h7v2h-7c-.55,0-1,.45-1,1s.45,1,1,1h7v4Z"/>
    <path class="cls-2" d="m6,9c.55,0,1-.45,1-1s-.45-1-1-1h-1c-.55,0-1,.45-1,1s.45,1,1,1h1Z"/>
  </g>
  <path class="cls-1" d="m30.12,6.71l-1.83-1.83c-.57-.57-1.32-.88-2.12-.88h-6.17c-1.65,0-3,1.35-3,3v6h9c1.65,0,3,1.35,3,3,0,.77-.3,1.46-.78,1.99.22.25.41.53.55.86.47,1.12.21,2.41-.65,3.27l-3,3c-.57.57-1.32.88-2.12.88s-1.55-.31-2.12-.88c-.57-.57-.88-1.32-.88-2.12h-3v2c0,1.65,1.35,3,3,3h8c1.65,0,3-1.35,3-3V8.83c0-.8-.31-1.55-.88-2.12Zm-8.12,2.29h-1c-.55,0-1-.45-1-1s.45-1,1-1h1c.55,0,1,.45,1,1s-.45,1-1,1Z"/>
</svg>