<?xml version="1.0" encoding="UTF-8"?>
<svg id="OBJECT" xmlns="http://www.w3.org/2000/svg" viewBox="0 0 512 512">
  <defs>
    <style>
      .cls-1 {
        fill: #FD4360;
      }

      .cls-2 {
        fill: #dadada;
      }
    </style>
  </defs>
  <g>
    <path class="cls-2" d="M186,90h-20c-12.41,0-22.5,10.09-22.5,22.5v10c0,12.41,10.09,22.5,22.5,22.5h20c12.41,0,22.5-10.09,22.5-22.5v-10c0-12.41-10.09-22.5-22.5-22.5Zm7.5,32.5c0,4.14-3.36,7.5-7.5,7.5h-20c-4.14,0-7.5-3.36-7.5-7.5v-10c0-4.14,3.36-7.5,7.5-7.5h20c4.14,0,7.5,3.36,7.5,7.5v10Z"/>
    <path class="cls-2" d="M266,90h-20c-12.41,0-22.5,10.09-22.5,22.5v10c0,12.41,10.09,22.5,22.5,22.5h20c12.41,0,22.5-10.09,22.5-22.5v-10c0-12.41-10.09-22.5-22.5-22.5Zm7.5,32.5c0,4.14-3.36,7.5-7.5,7.5h-20c-4.14,0-7.5-3.36-7.5-7.5v-10c0-4.14,3.36-7.5,7.5-7.5h20c4.14,0,7.5,3.36,7.5,7.5v10Z"/>
    <path class="cls-2" d="M346,90h-20c-12.41,0-22.5,10.09-22.5,22.5v10c0,12.41,10.09,22.5,22.5,22.5h20c12.41,0,22.5-10.09,22.5-22.5v-10c0-12.41-10.09-22.5-22.5-22.5Zm7.5,32.5c0,4.14-3.36,7.5-7.5,7.5h-20c-4.14,0-7.5-3.36-7.5-7.5v-10c0-4.14,3.36-7.5,7.5-7.5h20c4.14,0,7.5,3.36,7.5,7.5v10Z"/>
    <path class="cls-2" d="M454.5,110h-26.41c-3.74-33.7-32.4-60-67.09-60-2.82,0-5.65,.18-8.45,.53C330.55,18.8,294.82,0,256,0s-74.55,18.8-96.55,50.53c-2.8-.35-5.62-.53-8.45-.53-34.68,0-63.34,26.3-67.09,60h-26.41C25.79,110,0,135.79,0,167.5s25.79,57.5,57.5,57.5h107.03l-15,25.72c-1.35,2.32-1.36,5.19-.03,7.51,1.34,2.33,3.82,3.76,6.5,3.76h27.5v97.5c0,12.41,10.09,22.5,22.5,22.5h5c12.41,0,22.5-10.09,22.5-22.5V225h45v134.68c0,12.31,10.01,22.32,22.32,22.32,7.91,0,15.3-4.24,19.28-11.07l42.38-72.65c1.35-2.32,1.36-5.19,.03-7.51-1.34-2.33-3.82-3.76-6.5-3.76h-27.5v-62h126c31.71,0,57.5-25.79,57.5-57.5s-25.79-57.5-57.5-57.5Zm-236,249.5c0,4.14-3.36,7.5-7.5,7.5h-5c-4.14,0-7.5-3.36-7.5-7.5v-105c0-4.14-3.36-7.5-7.5-7.5h-21.94l35.8-61.37c1.31-2.24,3.73-3.63,6.32-3.63,4.04,0,7.32,3.28,7.32,7.32v170.18Zm124.44-57.5l-35.8,61.37c-1.31,2.24-3.73,3.63-6.32,3.63-4.04,0-7.32-3.28-7.32-7.32V189.5c0-4.14,3.36-7.5,7.5-7.5h5c4.14,0,7.5,3.36,7.5,7.5v105c0,4.14,3.36,7.5,7.5,7.5h21.94Zm111.56-92h-126v-20.5c0-12.41-10.09-22.5-22.5-22.5h-5c-12.41,0-22.5,10.09-22.5,22.5v20.5h-45v-20.68c0-12.31-10.01-22.32-22.32-22.32-7.91,0-15.3,4.24-19.28,11.07l-18.62,31.93H57.5c-23.43,0-42.5-19.07-42.5-42.5s19.07-42.5,42.5-42.5h33.5c4.14,0,7.5-3.36,7.5-7.5,0-28.95,23.55-52.5,52.5-52.5,3.54,0,7.08,.35,10.53,1.06,3.05,.62,6.17-.71,7.83-3.34,18.93-29.88,51.33-47.72,86.64-47.72s67.71,17.84,86.64,47.72c1.67,2.63,4.78,3.96,7.83,3.34,3.44-.7,6.98-1.06,10.53-1.06,28.95,0,52.5,23.55,52.5,52.5,0,4.14,3.36,7.5,7.5,7.5h33.5c23.43,0,42.5,19.07,42.5,42.5s-19.07,42.5-42.5,42.5Z"/>
  </g>
  <rect class="cls-1" x="105" y="442" width="25" height="25" rx="2.5" ry="2.5"/>
  <path class="cls-1" d="M429.5,397H82.5c-12.41,0-22.5,10.09-22.5,22.5v70c0,12.41,10.09,22.5,22.5,22.5H429.5c12.41,0,22.5-10.09,22.5-22.5v-70c0-12.41-10.09-22.5-22.5-22.5Zm-172,35h10c4.14,0,7.5,3.36,7.5,7.5s-3.36,7.5-7.5,7.5h-10c-4.14,0-7.5-3.36-7.5-7.5s3.36-7.5,7.5-7.5Zm-112.5,32.5c0,9.65-7.85,17.5-17.5,17.5h-20c-9.65,0-17.5-7.85-17.5-17.5v-20c0-9.65,7.85-17.5,17.5-17.5h20c9.65,0,17.5,7.85,17.5,17.5v20Zm80,0c0,9.65-7.85,17.5-17.5,17.5h-20c-9.65,0-17.5-7.85-17.5-17.5v-20c0-9.65,7.85-17.5,17.5-17.5h20c9.65,0,17.5,7.85,17.5,17.5v20Zm149.5,12.5h-117c-4.14,0-7.5-3.36-7.5-7.5s3.36-7.5,7.5-7.5h117c4.14,0,7.5,3.36,7.5,7.5s-3.36,7.5-7.5,7.5Zm40,0h-10c-4.14,0-7.5-3.36-7.5-7.5s3.36-7.5,7.5-7.5h10c4.14,0,7.5,3.36,7.5,7.5s-3.36,7.5-7.5,7.5Zm0-30h-117c-4.14,0-7.5-3.36-7.5-7.5s3.36-7.5,7.5-7.5h117c4.14,0,7.5,3.36,7.5,7.5s-3.36,7.5-7.5,7.5Z"/>
  <rect class="cls-1" x="185" y="442" width="25" height="25" rx="2.5" ry="2.5"/>
</svg>