<?xml version="1.0" encoding="UTF-8" standalone="no"?>
<svg
   id="OBJECT"
   viewBox="0 0 32 32"
   version="1.1"
   sodipodi:docname="TV - Copia.svg"
   inkscape:version="1.2.2 (732a01da63, 2022-12-09)"
   xml:space="preserve"
   xmlns:inkscape="http://www.inkscape.org/namespaces/inkscape"
   xmlns:sodipodi="http://sodipodi.sourceforge.net/DTD/sodipodi-0.dtd"
   xmlns="http://www.w3.org/2000/svg"
   xmlns:svg="http://www.w3.org/2000/svg"><sodipodi:namedview
     id="namedview21"
     pagecolor="#505050"
     bordercolor="#ffffff"
     borderopacity="1"
     inkscape:showpageshadow="0"
     inkscape:pageopacity="0"
     inkscape:pagecheckerboard="1"
     inkscape:deskcolor="#505050"
     showgrid="false"
     inkscape:zoom="11.313709"
     inkscape:cx="-4.331029"
     inkscape:cy="18.73833"
     inkscape:window-width="1920"
     inkscape:window-height="1009"
     inkscape:window-x="-8"
     inkscape:window-y="-8"
     inkscape:window-maximized="1"
     inkscape:current-layer="OBJECT" /><defs
     id="defs4"><style
       id="style2">
      .cls-1 {
        fill: #FD4360;
      }

      .cls-1, .cls-2 {
        stroke-width: 0px;
      }

      .cls-2 {
        fill: #dadada;
      }
    </style></defs><path
     style="fill:#dadada;stroke-width:0.52705"
     d="M 9.581341,10.895883 V 8.4558604 c 0,0 0.181353,-1.0056867 0.890279,-1.7475853 0.708926,-0.7418986 1.764071,-0.9067661 1.764071,-0.9067661 h 5.160321 l 4.006255,-3.0335431 0.03297,3.0005704 4.764641,0.065948 c 0,0 0.577033,0.049461 1.318932,0.7089259 0.741899,0.6594661 1.022172,1.5497451 1.022172,1.5497451 v 9.3973887 c 0,0 -0.06595,1.055147 -1.038658,1.879478 -0.972713,0.824333 -2.687325,0.69244 -2.687325,0.69244 l -10.749294,-0.03297 -0.03297,1.961911 -5.341674,-3.017056 5.358161,-3.017057 v 2.472998 l 11.90336,-0.01649 c 0,0 1.014363,-0.325579 0.986049,-1.23161 -0.02831,-0.906032 0.0094,-8.6072973 0.0094,-8.6072973 0,0 -0.0755,-1.0947874 -1.321298,-1.113663 -1.245793,-0.018872 -5.870326,-0.018872 -5.870326,-0.018872 L 19.737537,6.083308 17.906599,7.4989826 12.187278,7.4046106 c 0,0 -1.00041,0.5662694 -0.981535,1.3024195 0.01887,0.7361505 0.01887,2.1895749 0.01887,2.1895749 z"
     id="path303" /><path
     style="fill:#fd4360;fill-opacity:1;stroke-width:0.52705"
     d="m 22.441027,20.809721 v 2.440024 c 0,0 -0.181352,1.005686 -0.890279,1.747586 -0.708926,0.741898 -1.764071,0.906764 -1.764071,0.906764 h -5.160321 l -4.006255,3.033544 -0.03297,-3.00057 -4.7646423,-0.06595 c 0,0 -0.5770329,-0.04946 -1.3189319,-0.708924 C 3.7616593,24.502731 3.4813859,23.612452 3.4813859,23.612452 v -9.397391 c 0,0 0.065947,-1.055144 1.0386585,-1.879477 0.9727127,-0.824332 2.6873234,-0.692439 2.6873234,-0.692439 l 10.7492962,0.03297 0.03296,-1.9619114 5.341673,3.0170574 -5.35816,3.017056 v -2.472992 l -11.9033609,0.01649 c 0,0 -1.0143626,0.32558 -0.9860488,1.231611 0.028312,0.906031 -0.00939,8.607298 -0.00939,8.607298 0,0 0.075505,1.094786 1.3212954,1.113662 1.2457928,0.01887 5.8703273,0.01887 5.8703273,0.01887 l 0.01887,1.359047 1.830938,-1.415673 5.719322,0.09437 c 0,0 1.000409,-0.566269 0.981533,-1.302421 -0.01887,-0.736149 -0.01887,-2.189574 -0.01887,-2.189574 z"
     id="path305" /></svg>
