<?xml version="1.0" encoding="UTF-8"?>
<svg id="OBJECT" xmlns="http://www.w3.org/2000/svg" viewBox="0 0 32 32">
  <defs>
    <style>
      .cls-1 {
        fill: #FD4360;
      }

      .cls-1, .cls-2 {
        stroke-width: 0px;
      }

      .cls-2 {
        fill: #dadada;
      }
    </style>
  </defs>
  <g>
    <path class="cls-2" d="m2,5h28c.55,0,1-.45,1-1s-.45-1-1-1H4.41l.29-.29c.39-.39.39-1.02,0-1.41s-1.02-.39-1.41,0l-2,2c-.29.29-.37.72-.22,1.09.15.37.52.62.92.62Z"/>
    <path class="cls-2" d="m30,27H2c-.55,0-1,.45-1,1s.45,1,1,1h25.59l-.29.29c-.39.39-.39,1.02,0,1.41.2.2.45.29.71.29s.51-.1.71-.29l2-2c.29-.29.37-.72.22-1.09-.15-.37-.52-.62-.92-.62Z"/>
    <path class="cls-2" d="m29,7H3c-.55,0-1,.45-1,1v16c0,.55.45,1,1,1h26c.55,0,1-.45,1-1V8c0-.55-.45-1-1-1Zm-1,2v3H4v-3h24ZM4,23v-9h24v9H4Z"/>
  </g>
  <g>
    <path class="cls-1" d="m25.5,19h-9c-.55,0-1,.45-1,1s.45,1,1,1h9c.55,0,1-.45,1-1s-.45-1-1-1Z"/>
    <path class="cls-1" d="m16.5,18h9c.55,0,1-.45,1-1s-.45-1-1-1h-9c-.55,0-1,.45-1,1s.45,1,1,1Z"/>
    <rect class="cls-1" x="5.5" y="15.5" width="8" height="6" rx="1" ry="1"/>
  </g>
</svg>