<?xml version="1.0" encoding="UTF-8"?>
<svg id="OBJECT" xmlns="http://www.w3.org/2000/svg" viewBox="0 0 32 32">
  <defs>
    <style>
      .cls-1 {
        fill: #FD4360;
      }

      .cls-1, .cls-2 {
        stroke-width: 0px;
      }

      .cls-2 {
        fill: #dadada;
      }
    </style>
  </defs>
  <g>
    <path class="cls-2" d="m30,7H2c-.55,0-1,.45-1,1v16c0,.55.45,1,1,1h28c.55,0,1-.45,1-1V8c0-.55-.45-1-1-1Zm-1,16H3v-14h26v14Z"/>
    <path class="cls-2" d="m2,5h28c.4,0,.77-.24.92-.62.15-.37.07-.8-.22-1.09l-2-2c-.39-.39-1.02-.39-1.41,0s-.39,1.02,0,1.41l.29.29H2c-.55,0-1,.45-1,1s.45,1,1,1Z"/>
    <path class="cls-2" d="m30,27H2c-.4,0-.77.24-.92.62-.15.37-.07.8.22,1.09l2,2c.2.2.45.29.71.29s.51-.1.71-.29c.39-.39.39-1.02,0-1.41l-.29-.29h25.59c.55,0,1-.45,1-1s-.45-1-1-1Z"/>
  </g>
  <g>
    <circle class="cls-1" cx="16" cy="16" r="5"/>
    <path class="cls-1" d="m26,15h1c.55,0,1-.45,1-1s-.45-1-1-1h-1c-.55,0-1-.45-1-1v-1c0-.55-.45-1-1-1s-1,.45-1,1v1c0,1.65,1.35,3,3,3Z"/>
    <path class="cls-1" d="m27,17h-1c-1.65,0-3,1.35-3,3v1c0,.55.45,1,1,1s1-.45,1-1v-1c0-.55.45-1,1-1h1c.55,0,1-.45,1-1s-.45-1-1-1Z"/>
    <path class="cls-1" d="m8,10c-.55,0-1,.45-1,1v1c0,.55-.45,1-1,1h-1c-.55,0-1,.45-1,1s.45,1,1,1h1c1.65,0,3-1.35,3-3v-1c0-.55-.45-1-1-1Z"/>
    <path class="cls-1" d="m6,17h-1c-.55,0-1,.45-1,1s.45,1,1,1h1c.55,0,1,.45,1,1v1c0,.55.45,1,1,1s1-.45,1-1v-1c0-1.65-1.35-3-3-3Z"/>
  </g>
</svg>