<?xml version="1.0" encoding="UTF-8"?>
<svg id="OBJECT" xmlns="http://www.w3.org/2000/svg" viewBox="0 0 32 32">
  <defs>
    <style>
      .cls-1 {
        fill: #FD4360;
      }

      .cls-1, .cls-2 {
        stroke-width: 0px;
      }

      .cls-2 {
        fill: #dadada;
      }
    </style>
  </defs>
  <g>
    <path class="cls-2" d="m30,7H2c-.55,0-1,.45-1,1v16c0,.55.45,1,1,1h28c.55,0,1-.45,1-1V8c0-.55-.45-1-1-1Zm-5.48,16H7.48c-.33-2.4-2.11-4.33-4.48-4.84v-4.77c2.21-.47,3.92-2.19,4.4-4.4h17.21c.47,2.21,2.19,3.92,4.4,4.4v4.77c-2.36.51-4.15,2.44-4.48,4.84Zm4.48-11.68c-1.09-.37-1.94-1.22-2.32-2.32h2.32v2.32Zm-23.68-2.32c-.37,1.09-1.22,1.94-2.32,2.32v-2.32h2.32Zm-2.32,11.24c1.25.43,2.2,1.47,2.47,2.76h-2.47v-2.76Zm23.53,2.76c.27-1.3,1.22-2.34,2.47-2.76v2.76h-2.47Z"/>
    <path class="cls-2" d="m15.33,14.33h2.67c.55,0,1-.45,1-1s-.45-1-1-1h-1v-.33c0-.55-.45-1-1-1s-1,.45-1,1v.37c-1.13.16-2,1.13-2,2.3,0,1.29,1.05,2.33,2.33,2.33h1.33c.18,0,.33.15.33.33s-.15.33-.33.33h-2.67c-.55,0-1,.45-1,1s.45,1,1,1h1v.33c0,.55.45,1,1,1s1-.45,1-1v-.37c1.13-.16,2-1.13,2-2.3,0-1.29-1.05-2.33-2.33-2.33h-1.33c-.18,0-.33-.15-.33-.33s.15-.33.33-.33Z"/>
    <path class="cls-2" d="m8.34,15h-2.06c-.55,0-1,.45-1,1s.45,1,1,1h2.06c.55,0,1-.45,1-1s-.45-1-1-1Z"/>
    <path class="cls-2" d="m25.71,15h-2.06c-.55,0-1,.45-1,1s.45,1,1,1h2.06c.55,0,1-.45,1-1s-.45-1-1-1Z"/>
  </g>
  <g>
    <path class="cls-1" d="m23.56,26.28h-15.11c-.52,0-.94.42-.94.94s.42.94.94.94h12.83l-1.22,1.22c-.37.37-.37.97,0,1.34.18.18.43.28.67.28s.48-.09.67-.28l2.83-2.83c.27-.27.35-.68.2-1.03-.15-.35-.49-.58-.87-.58Z"/>
    <path class="cls-1" d="m8.44,5.72h15.11c.52,0,.94-.42.94-.94s-.42-.94-.94-.94h-12.83l1.22-1.22c.37-.37.37-.97,0-1.34-.37-.37-.97-.37-1.34,0l-2.83,2.83c-.27.27-.35.68-.2,1.03.15.35.49.58.87.58Z"/>
  </g>
</svg>