<?xml version="1.0" encoding="UTF-8"?>
<svg id="OBJECT" xmlns="http://www.w3.org/2000/svg" viewBox="0 0 32 32">
  <defs>
    <style>
      .cls-1 {
        fill: #FD4360;
      }

      .cls-1, .cls-2 {
        stroke-width: 0px;
      }

      .cls-2 {
        fill: #dadada;
      }
    </style>
  </defs>
  <path class="cls-1" d="m12.61,10.92c.27.19.61.24.91.12l2.48-.88,2.48.88c.11.04.22.06.33.06.2,0,.41-.06.58-.18.27-.19.42-.49.42-.82V1h-7.63v9.1c0,.33.16.63.42.82Z"/>
  <path class="cls-1" d="m10.19,1h-3.69c-1.38,0-2.5,1.12-2.5,2.5v2.5h6.19V1Z"/>
  <path class="cls-1" d="m28,3.5c0-1.38-1.12-2.5-2.5-2.5h-3.69v5h6.19v-2.5Z"/>
  <g>
    <path class="cls-2" d="m31,24v-2c0-1.65-1.35-3-3-3h-1.5v-11c0-.55-.45-1-1-1s-1,.45-1,1v11H7.5v-11c0-.55-.45-1-1-1s-1,.45-1,1v11h-1.5c-1.65,0-3,1.35-3,3v2c0,1.65,1.35,3,3,3v2h-2c-.55,0-1,.45-1,1s.45,1,1,1h28c.55,0,1-.45,1-1s-.45-1-1-1h-2v-2c1.65,0,3-1.35,3-3Zm-28,0v-2c0-.55.45-1,1-1h24c.55,0,1,.45,1,1v2c0,.55-.45,1-1,1H4c-.55,0-1-.45-1-1Zm23,5H6v-2h20v2Z"/>
    <path class="cls-2" d="m24.75,24h1c.55,0,1-.45,1-1s-.45-1-1-1h-1c-.55,0-1,.45-1,1s.45,1,1,1Z"/>
    <path class="cls-2" d="m20.25,24h1c.55,0,1-.45,1-1s-.45-1-1-1h-1c-.55,0-1,.45-1,1s.45,1,1,1Z"/>
    <path class="cls-2" d="m11,24h1c.55,0,1-.45,1-1s-.45-1-1-1h-1c-.55,0-1,.45-1,1s.45,1,1,1Z"/>
    <path class="cls-2" d="m15.75,24h1c.55,0,1-.45,1-1s-.45-1-1-1h-1c-.55,0-1,.45-1,1s.45,1,1,1Z"/>
    <path class="cls-2" d="m6.25,24h1c.55,0,1-.45,1-1s-.45-1-1-1h-1c-.55,0-1,.45-1,1s.45,1,1,1Z"/>
    <path class="cls-2" d="m12,17h8c.55,0,1-.45,1-1s-.45-1-1-1h-8c-.55,0-1,.45-1,1s.45,1,1,1Z"/>
  </g>
</svg>