<?xml version="1.0" encoding="UTF-8"?>
<svg id="OBJECT" xmlns="http://www.w3.org/2000/svg" viewBox="0 0 32 32">
  <defs>
    <style>
      .cls-1 {
        fill: #FD4360;
      }

      .cls-1, .cls-2 {
        stroke-width: 0px;
      }

      .cls-2 {
        fill: #dadada;
      }
    </style>
  </defs>
  <g>
    <path class="cls-2" d="m31,9.5c0-4.69-3.81-8.5-8.5-8.5s-8.5,3.81-8.5,8.5,3.81,8.5,8.5,8.5,8.5-3.81,8.5-8.5Zm-15,0c0-3.58,2.92-6.5,6.5-6.5s6.5,2.92,6.5,6.5-2.92,6.5-6.5,6.5-6.5-2.92-6.5-6.5Z"/>
    <path class="cls-2" d="m23.5,14v-.53c1.26-.13,2.25-1.18,2.25-2.47,0-1.38-1.12-2.5-2.5-2.5h-1.5c-.28,0-.5-.22-.5-.5s.22-.5.5-.5h3c.55,0,1-.45,1-1s-.45-1-1-1h-1.25v-.5c0-.55-.45-1-1-1s-1,.45-1,1v.53c-1.26.13-2.25,1.18-2.25,2.47,0,1.38,1.12,2.5,2.5,2.5h1.5c.28,0,.5.22.5.5s-.22.5-.5.5h-3c-.55,0-1,.45-1,1s.45,1,1,1h1.25v.5c0,.55.45,1,1,1s1-.45,1-1Z"/>
    <path class="cls-2" d="m12,2.5h-3c-1.65,0-3,1.35-3,3v3.59l-1.29-1.29c-.39-.39-1.02-.39-1.41,0s-.39,1.02,0,1.41l3,3c.2.2.45.29.71.29s.51-.1.71-.29l3-3c.39-.39.39-1.02,0-1.41s-1.02-.39-1.41,0l-1.29,1.29v-3.59c0-.55.45-1,1-1h3c.55,0,1-.45,1-1s-.45-1-1-1Z"/>
    <path class="cls-2" d="m25.71,19.79c-.39-.39-1.02-.39-1.41,0l-3,3c-.39.39-.39,1.02,0,1.41s1.02.39,1.41,0l1.29-1.29v3.59c0,.55-.45,1-1,1h-3c-.55,0-1,.45-1,1s.45,1,1,1h3c1.65,0,3-1.35,3-3v-3.59l1.29,1.29c.2.2.45.29.71.29s.51-.1.71-.29c.39-.39.39-1.02,0-1.41l-3-3Z"/>
  </g>
  <path class="cls-1" d="m14,16H4c-1.65,0-3,1.35-3,3v9c0,1.65,1.35,3,3,3h10c1.65,0,3-1.35,3-3v-9c0-1.65-1.35-3-3-3Zm-.5,7.5c0,1.84-1.5,3.33-3.33,3.33h-2.33c-1.84,0-3.33-1.5-3.33-3.33v-2.33c0-.55.45-1,1-1s1,.45,1,1v2.33c0,.74.6,1.33,1.33,1.33h2.33c.74,0,1.33-.6,1.33-1.33v-2.33c0-.55.45-1,1-1s1,.45,1,1v2.33Z"/>
</svg>