<?xml version="1.0" encoding="UTF-8"?>
<svg id="OBJECT" xmlns="http://www.w3.org/2000/svg" viewBox="0 0 32 32">
  <defs>
    <style>
      .cls-1 {
        fill: #FD4360;
      }

      .cls-1, .cls-2 {
        stroke-width: 0px;
      }

      .cls-2 {
        fill: #dadada;
      }
    </style>
  </defs>
  <g>
    <path class="cls-2" d="m24.5,12c-.55,0-1,.45-1,1v12h-15v-12c0-.55-.45-1-1-1s-1,.45-1,1v15c0,1.65,1.35,3,3,3h13c1.65,0,3-1.35,3-3v-15c0-.55-.45-1-1-1Zm-2,17h-13c-.55,0-1-.45-1-1v-1h15v1c0,.55-.45,1-1,1Z"/>
    <path class="cls-2" d="m20,23.5c.55,0,1-.45,1-1v-8c0-.55-.45-1-1-1s-1,.45-1,1v8c0,.55.45,1,1,1Z"/>
    <path class="cls-2" d="m16,23.5c.55,0,1-.45,1-1v-8c0-.55-.45-1-1-1s-1,.45-1,1v8c0,.55.45,1,1,1Z"/>
    <path class="cls-2" d="m12,23.5c.55,0,1-.45,1-1v-8c0-.55-.45-1-1-1s-1,.45-1,1v8c0,.55.45,1,1,1Z"/>
  </g>
  <path class="cls-1" d="m26,5h-4v-1c0-1.65-1.35-3-3-3h-6c-1.65,0-3,1.35-3,3v1h-4c-1.1,0-2,.9-2,2v3h24v-3c0-1.1-.9-2-2-2Zm-14-1c0-.55.45-1,1-1h6c.55,0,1,.45,1,1v1h-8v-1Z"/>
</svg>