<?xml version="1.0" encoding="UTF-8"?>
<svg id="OBJECT" xmlns="http://www.w3.org/2000/svg" viewBox="0 0 32 32">
  <defs>
    <style>
      .cls-1 {
        fill: #FD4360;
      }

      .cls-2 {
        fill: #dadada;
      }
    </style>
  </defs>
  <g>
    <path class="cls-2" d="m24.89,14.01c-.55-.07-1.05.33-1.11.88l-1.19,10.12h-13.17l-1.19-10.12c-.06-.55-.56-.94-1.11-.88-.55.06-.94.56-.88,1.11l1.61,13.68c.15,1.25,1.22,2.2,2.48,2.2h11.34c1.27,0,2.33-.95,2.48-2.2l1.61-13.68c.06-.55-.33-1.05-.88-1.11Zm-3.22,14.99h-11.34c-.25,0-.47-.19-.5-.44l-.18-1.56h12.7l-.18,1.56c-.03.25-.24.44-.5.44Z"/>
    <path class="cls-2" d="m16,23c.55,0,1-.45,1-1v-6c0-.55-.45-1-1-1s-1,.45-1,1v6c0,.55.45,1,1,1Z"/>
    <path class="cls-2" d="m19.5,22.25c.55,0,1-.45,1-1v-4.5c0-.55-.45-1-1-1s-1,.45-1,1v4.5c0,.55.45,1,1,1Z"/>
    <path class="cls-2" d="m12.5,22.25c.55,0,1-.45,1-1v-4.5c0-.55-.45-1-1-1s-1,.45-1,1v4.5c0,.55.45,1,1,1Z"/>
  </g>
  <g>
    <path class="cls-1" d="m25.2,3.09c-.2-1.21-1.24-2.09-2.47-2.09h-13.46c-1.23,0-2.26.88-2.47,2.09l-.65,3.91h19.69l-.65-3.91Zm-5.2,1.91h-8c-.55,0-1-.45-1-1s.45-1,1-1h8c.55,0,1,.45,1,1s-.45,1-1,1Z"/>
    <rect class="cls-1" x="4" y="9" width="24" height="3"/>
  </g>
</svg>