<?xml version="1.0" encoding="UTF-8"?>
<svg id="OBJECT" xmlns="http://www.w3.org/2000/svg" viewBox="0 0 32 32">
  <defs>
    <style>
      .cls-1 {
        fill: #FD4360;
      }

      .cls-2 {
        fill: #dadada;
      }
    </style>
  </defs>
  <g>
    <path class="cls-2" d="M24.9,11c-.56-.05-1.04,.35-1.09,.9l-1.21,12.1H9.4l-1.21-12.1c-.05-.55-.54-.95-1.09-.9-.55,.05-.95,.54-.9,1.09l1.66,16.65c.13,1.28,1.21,2.25,2.5,2.25h11.28c1.29,0,2.36-.97,2.5-2.25l1.66-16.65c.05-.55-.35-1.04-.9-1.09Zm-3.26,18H10.36c-.26,0-.48-.19-.5-.45l-.25-2.55h12.8l-.25,2.55c-.03,.26-.24,.45-.5,.45Z"/>
    <path class="cls-2" d="M16,22c.55,0,1-.45,1-1v-7c0-.55-.45-1-1-1s-1,.45-1,1v7c0,.55,.45,1,1,1Z"/>
    <path class="cls-2" d="M19.47,21.99s.09,0,.13,0c.5,0,.93-.37,.99-.87l.9-7c.07-.55-.32-1.05-.86-1.12-.56-.07-1.05,.32-1.12,.86l-.9,7c-.07,.55,.32,1.05,.86,1.12Z"/>
    <path class="cls-2" d="M12.4,22s.08,0,.13,0c.55-.07,.93-.57,.86-1.12l-.9-7c-.07-.55-.55-.94-1.12-.86-.55,.07-.93,.57-.86,1.12l.9,7c.07,.5,.5,.87,.99,.87Z"/>
  </g>
  <path class="cls-1" d="M26,5h-4.5v-1c0-1.65-1.35-3-3-3h-5c-1.65,0-3,1.35-3,3v1H6c-1.1,0-2,.9-2,2v2H28v-2c0-1.1-.9-2-2-2Zm-13.5-1c0-.55,.45-1,1-1h5c.55,0,1,.45,1,1v1h-7v-1Z"/>
</svg>