<?xml version="1.0" encoding="UTF-8"?>
<svg id="OBJECT" xmlns="http://www.w3.org/2000/svg" viewBox="0 0 32 32">
  <defs>
    <style>
      .cls-1 {
        fill: #FD4360;
      }

      .cls-1, .cls-2 {
        stroke-width: 0px;
      }

      .cls-2 {
        fill: #dadada;
      }
    </style>
  </defs>
  <g>
    <path class="cls-2" d="m19.75,21.5h.5c.55,0,1-.45,1-1s-.45-1-1-1h-.5c-.55,0-1,.45-1,1s.45,1,1,1Z"/>
    <path class="cls-2" d="m25,11H7c-1.65,0-3,1.35-3,3v2c0,.55.45,1,1,1h1.13l1.88,13.14c.07.49.49.86.99.86h14c.5,0,.92-.37.99-.86l1.88-13.14h1.13c.55,0,1-.45,1-1v-2c0-1.65-1.35-3-3-3Zm-15.13,18l-.43-3h13.12l-.43,3h-12.27Zm12.98-5h-13.69l-.36-2.5h7.2c.55,0,1-.45,1-1s-.45-1-1-1h-7.49l-.36-2.5h15.69l-1,7Zm3.15-9H6v-1c0-.55.45-1,1-1h18c.55,0,1,.45,1,1v1Z"/>
  </g>
  <g>
    <path class="cls-1" d="m20.5,6h3.91l-4.41-4.41v3.91c0,.28.22.5.5.5Z"/>
    <path class="cls-1" d="m20.5,8c-1.38,0-2.5-1.12-2.5-2.5V1h-10c-.55,0-1,.45-1,1v7h18v-1h-4.5Zm-6.5-3h-3c-.55,0-1-.45-1-1s.45-1,1-1h3c.55,0,1,.45,1,1s-.45,1-1,1Z"/>
  </g>
</svg>