<?xml version="1.0" encoding="UTF-8"?>
<svg id="OBJECT" xmlns="http://www.w3.org/2000/svg" viewBox="0 0 32 32">
  <defs>
    <style>
      .cls-1 {
        fill: #FD4360;
      }

      .cls-1, .cls-2 {
        stroke-width: 0px;
      }

      .cls-2 {
        fill: #dadada;
      }
    </style>
  </defs>
  <polygon class="cls-1" points="28 19 28 7.4 22.5 10.58 22.5 19 28 19"/>
  <path class="cls-1" d="m20,9.71l10.39-6-1.28-2.21c-.13-.23-.35-.4-.61-.47-.26-.07-.53-.03-.76.1l-8.66,5c-.48.28-.64.89-.37,1.37l1.28,2.21Z"/>
  <g>
    <path class="cls-2" d="m26,21H7v-4.53c0-1.26,1.03-2.29,2.29-2.29h10.21c.55,0,1-.45,1-1s-.45-1-1-1h-10.21c-2.37,0-4.29,1.93-4.29,4.29v4.63c-2.28.46-4,2.48-4,4.9,0,2.76,2.24,5,5,5h20c2.76,0,5-2.24,5-5s-2.24-5-5-5Zm0,8H6c-1.65,0-3-1.35-3-3s1.35-3,3-3h20c1.65,0,3,1.35,3,3s-1.35,3-3,3Z"/>
    <path class="cls-2" d="m7.75,25h-1.5c-.55,0-1,.45-1,1s.45,1,1,1h1.5c.55,0,1-.45,1-1s-.45-1-1-1Z"/>
    <path class="cls-2" d="m13.75,25h-1.5c-.55,0-1,.45-1,1s.45,1,1,1h1.5c.55,0,1-.45,1-1s-.45-1-1-1Z"/>
    <path class="cls-2" d="m19.75,25h-1.5c-.55,0-1,.45-1,1s.45,1,1,1h1.5c.55,0,1-.45,1-1s-.45-1-1-1Z"/>
    <path class="cls-2" d="m25.75,25h-1.5c-.55,0-1,.45-1,1s.45,1,1,1h1.5c.55,0,1-.45,1-1s-.45-1-1-1Z"/>
  </g>
</svg>