<?xml version="1.0" encoding="UTF-8"?>
<svg id="OBJECT" xmlns="http://www.w3.org/2000/svg" viewBox="0 0 32 32">
  <defs>
    <style>
      .cls-1 {
        fill: #FD4360;
      }

      .cls-1, .cls-2 {
        stroke-width: 0px;
      }

      .cls-2 {
        fill: #dadada;
      }
    </style>
  </defs>
  <g>
    <path class="cls-2" d="m28,11.5h-1.43l-1.83-3.06c-.72-1.2-2.03-1.94-3.43-1.94h-6.3v-1.5c0-2.21-1.79-4-4-4h-6C2.79,1,1,2.79,1,5v16c0,.55.45,1,1,1s1-.45,1-1v-.5h27c.55,0,1-.45,1-1v-5c0-1.65-1.35-3-3-3Zm-4.98-2.03l1.22,2.03h-6.23c-.55,0-1-.45-1-1v-2h4.3c.7,0,1.36.37,1.72.97ZM5,3h6c1.1,0,2,.9,2,2v1.5H3v-1.5c0-1.1.9-2,2-2Zm5,5.5v2c0,.55-.45,1-1,1H3v-3h7Zm19,10h-2v-1.5c0-.55-.45-1-1-1s-1,.45-1,1v1.5h-6.25l-.48-1.69c-.31-1.07-1.29-1.81-2.4-1.81h-6.87c-.55,0-1,.45-1,1s.45,1,1,1h6.87c.22,0,.42.15.48.36l.32,1.14H3v-5h6c1.65,0,3-1.35,3-3v-2h3v2c0,1.65,1.35,3,3,3h10c.55,0,1,.45,1,1v4Z"/>
    <path class="cls-2" d="m5.5,15h-.5c-.55,0-1,.45-1,1s.45,1,1,1h.5c.55,0,1-.45,1-1s-.45-1-1-1Z"/>
  </g>
  <path class="cls-1" d="m28,23.5H1v4.5c0,1.66,1.34,3,3,3h8c1.66,0,3-1.34,3-3v-2.5h13c.55,0,1-.45,1-1s-.45-1-1-1Z"/>
</svg>