<?xml version="1.0" encoding="UTF-8"?>
<svg id="OBJECT" xmlns="http://www.w3.org/2000/svg" viewBox="0 0 32 32">
  <defs>
    <style>
      .cls-1 {
        fill: #FD4360;
      }

      .cls-2 {
        fill: #dadada;
      }
    </style>
  </defs>
  <path class="cls-2" d="M28.12,16.71l-3.83-3.83c-.57-.57-1.32-.88-2.12-.88H13v-3c0-2.76-2.24-5-5-5S3,6.24,3,9v15c0,.55,.45,1,1,1s1-.45,1-1v-2H28c.55,0,1-.45,1-1v-2.17c0-.8-.31-1.55-.88-2.12Zm-5.24-2.41l1.71,1.71h-6.86c-.22,0-.54,0-.73-.02v-1.98h5.17c.27,0,.52,.1,.71,.29ZM8,6c1.65,0,3,1.35,3,3v3H5v-3c0-1.65,1.35-3,3-3Zm2,8v1.98c-.19,.02-.5,.02-.73,.02H5v-2h5Zm17,6H5v-2h4.26c.08,0,.16,0,.25,0,.72,0,1.43-.05,1.97-.58,.35-.35,.53-.83,.53-1.43v-2h3v2c0,.6,.18,1.08,.53,1.43,.53,.53,1.25,.58,1.97,.58,.08,0,.16,0,.25,0h8.84s.12,.12,.12,.12c.19,.19,.29,.44,.29,.71v1.17Z"/>
  <path class="cls-1" d="M30,26h-5v-2h-7v2h-3v-2h-7v2H2c-.55,0-1,.45-1,1s.45,1,1,1H30c.55,0,1-.45,1-1s-.45-1-1-1Z"/>
</svg>