<?xml version="1.0" encoding="UTF-8"?>
<svg id="OBJECT" xmlns="http://www.w3.org/2000/svg" viewBox="0 0 32 32">
  <defs>
    <style>
      .cls-1 {
        fill: #FD4360;
      }

      .cls-2 {
        fill: #dadada;
      }
    </style>
  </defs>
  <path class="cls-2" d="M19.59,1.2c-.26-.19-.59-.24-.89-.15L6.65,4.75c-.43-.74-1.23-1.25-2.15-1.25H2c-.55,0-1,.45-1,1v7c0,.55,.45,1,1,1h2.5c.92,0,1.72-.51,2.15-1.25l1.85,.57v2.18c0,1.65,1.35,3,3,3h2c1.56,0,2.83-1.2,2.97-2.73l2.23,.69c.1,.03,.2,.04,.29,.04,.21,0,.42-.07,.59-.2,.26-.19,.41-.49,.41-.8V2c0-.32-.15-.62-.41-.8ZM5,10c0,.28-.22,.5-.5,.5h-1.5V5.5h1.5c.28,0,.5,.22,.5,.5v4Zm9.5,4c0,.55-.45,1-1,1h-2c-.55,0-1-.45-1-1v-1.57l4,1.23v.34Zm3.5-1.35l-11-3.39v-2.52l6-1.85v3.11c0,.55,.45,1,1,1s1-.45,1-1v-3.72l3-.92V12.65Z"/>
  <path class="cls-1" d="M30.71,14.32c-.24-.24-.59-.34-.92-.27l-7.42,1.67c-.42,.09-.74,.45-.78,.88-.04,.43,.2,.84,.6,1.01l1.3,.56-4.46,4.07-1.1-2.05c-.33-.63-.93-1.07-1.62-1.21-.7-.15-1.41,.03-1.97,.47l-8.96,7.13c-.4,.32-.5,.89-.22,1.32l1.68,2.64c.15,.24,.4,.4,.68,.45,.06,0,.11,.01,.17,.01,.22,0,.44-.08,.62-.22l6.71-5.34,1.08,2.02c.35,.65,.97,1.1,1.7,1.23,.73,.13,1.46-.09,2.01-.59l7.08-6.47,.54,1.28c.17,.4,.58,.64,1.01,.6,.43-.04,.79-.36,.88-.78l1.65-7.49c.07-.33-.03-.68-.27-.92Z"/>
</svg>