<?xml version="1.0" encoding="UTF-8"?>
<svg id="OBJECT" xmlns="http://www.w3.org/2000/svg" viewBox="0 0 32 32">
  <defs>
    <style>
      .cls-1 {
        fill: #FD4360;
      }

      .cls-2 {
        fill: #dadada;
      }
    </style>
  </defs>
  <path class="cls-2" d="M27,29h-1.8c-.23,0-.43-.16-.48-.39l-1.92-8.61h1.2c.55,0,1-.45,1-1s-.45-1-1-1h-1.64l-1.16-5.22c-.12-.54-.66-.88-1.19-.76-.54,.12-.88,.65-.76,1.19l1.06,4.78h-3.31v-5c0-.55-.45-1-1-1s-1,.45-1,1v5h-3.31l1.06-4.78c.12-.54-.22-1.07-.76-1.19-.54-.12-1.07,.22-1.19,.76l-1.16,5.22h-1.64c-.55,0-1,.45-1,1s.45,1,1,1h1.2l-1.92,8.62c-.05,.22-.25,.38-.48,.38h-1.8c-.55,0-1,.45-1,1s.45,1,1,1h1.8c1.16,0,2.19-.82,2.44-1.95l2.01-9.05h3.75v3c0,.55,.45,1,1,1s1-.45,1-1v-3h3.75l2.01,9.04c.25,1.13,1.27,1.96,2.44,1.96h1.8c.55,0,1-.45,1-1s-.45-1-1-1Z"/>
  <g>
    <path class="cls-1" d="M18.5,2c0-.55-.45-1-1-1h-3c-.55,0-1,.45-1,1v2h5V2Z"/>
    <path class="cls-1" d="M24,5.75c-.55,0-1,.45-1,1v.75h-2v-1.5H11v5h10v-1.5h2v.75c0,.55,.45,1,1,1s1-.45,1-1v-3.5c0-.55-.45-1-1-1Zm-7.5,3.75h-1c-.55,0-1-.45-1-1s.45-1,1-1h1c.55,0,1,.45,1,1s-.45,1-1,1Z"/>
  </g>
</svg>