<?xml version="1.0" encoding="UTF-8"?>
<svg id="OBJECT" xmlns="http://www.w3.org/2000/svg" viewBox="0 0 512 512">
  <defs>
    <style>
      .cls-1 {
        fill: #FD4360;
      }

      .cls-2 {
        fill: #dadada;
      }
    </style>
  </defs>
  <g>
    <path class="cls-2" d="M186,255h10c4.14,0,7.5-3.36,7.5-7.5s-3.36-7.5-7.5-7.5h-10c-4.14,0-7.5,3.36-7.5,7.5s3.36,7.5,7.5,7.5Z"/>
    <path class="cls-2" d="M286,337h-35v-17.5c0-12.41-10.09-22.5-22.5-22.5h-12.5v-15.16c10.6-7.74,17.5-20.24,17.5-34.34,0-3.3-.39-6.5-1.1-9.58l18.42-18.42c2.93-2.93,2.93-7.68,0-10.61-2.93-2.93-7.68-2.93-10.61,0l-14.34,14.34c-2.88-4.13-6.48-7.72-10.6-10.6l14.12-14.12c2.93-2.93,2.93-7.68,0-10.61-2.93-2.93-7.68-2.93-10.61,0l-18.2,18.2c-3.08-.71-6.29-1.1-9.58-1.1-23.43,0-42.5,19.07-42.5,42.5,0,14.1,6.9,26.6,17.5,34.34v15.16h-12.5c-12.41,0-22.5,10.09-22.5,22.5v17.5h-35c-12.41,0-22.5,10.09-22.5,22.5v10c0,12.41,10.09,22.5,22.5,22.5h3.05l-15.48,111.47c-.3,2.15,.35,4.32,1.77,5.96s3.49,2.58,5.66,2.58h25c3.55,0,6.62-2.49,7.34-5.97l23.76-114.03h16.89l7.53,113c.26,3.94,3.54,7,7.48,7h24c3.95,0,7.22-3.06,7.48-7l7.53-113h16.89l23.76,114.03c.72,3.48,3.79,5.97,7.34,5.97h25c2.17,0,4.23-.94,5.66-2.58s2.07-3.81,1.77-5.96l-15.48-111.47h3.05c12.41,0,22.5-10.09,22.5-22.5v-10c0-12.41-10.09-22.5-22.5-22.5Zm-57.5-25c4.14,0,7.5,3.36,7.5,7.5v17.5h-20v-25h12.5Zm-37.5-92c15.16,0,27.5,12.34,27.5,27.5s-12.34,27.5-27.5,27.5-27.5-12.34-27.5-27.5,12.34-27.5,27.5-27.5Zm0,70c3.44,0,6.79-.42,10-1.2v48.2h-20v-48.2c3.21,.78,6.56,1.2,10,1.2Zm-45,29.5c0-4.14,3.36-7.5,7.5-7.5h12.5v25h-20v-17.5Zm-36.1,177.5h-10.29l14.58-105h17.58l-21.88,105Zm86.08,0h-9.97l-7-105h23.97l-7,105Zm86.4,0h-10.29l-21.88-105h17.58l14.58,105Zm11.11-127.5c0,4.14-3.36,7.5-7.5,7.5H96c-4.14,0-7.5-3.36-7.5-7.5v-10c0-4.14,3.36-7.5,7.5-7.5h190c4.14,0,7.5,3.36,7.5,7.5v10Z"/>
  </g>
  <g>
    <path class="cls-1" d="M331.94,15.95C265.26-14.06,184-1.73,129.3,52.97c0,0,0,0,0,0l-3.51,3.51c-2.1,2.1-2.76,5.23-1.69,8s3.67,4.65,6.63,4.79c50.82,2.51,51.46,47.34,51.44,50.74,29.88-25.11,88.01-71.06,149.78-104.07Z"/>
    <path class="cls-1" d="M422.55,106.56c-33,61.77-78.96,119.91-104.07,149.78,3.57-.02,48.24,.72,50.74,51.44,.15,2.96,2.02,5.56,4.79,6.63,.88,.34,1.79,.5,2.7,.5,1.95,0,3.87-.76,5.3-2.2l3.51-3.51c54.7-54.7,67.03-135.96,37.02-202.64Z"/>
    <path class="cls-1" d="M390.71,58.39l-79.58,79.58c-1.46,1.46-3.38,2.2-5.3,2.2s-3.84-.73-5.3-2.2c-2.93-2.93-2.93-7.68,0-10.61l79.58-79.58c-9.9-9.12-20.57-16.94-31.81-23.45-62.07,31.57-121.88,78.27-153.57,104.71,47.83,11.59,51.56,54.19,51.69,56.04,.25,3.73,3.23,6.71,6.96,6.98,1.88,.14,44.48,3.87,56.07,51.7,26.44-31.69,73.14-91.5,104.71-153.57-6.51-11.23-14.33-21.91-23.45-31.81Zm-94.43,94.43l-4.95,4.95c-1.46,1.46-3.38,2.2-5.3,2.2s-3.84-.73-5.3-2.2c-2.93-2.93-2.93-7.68,0-10.61l4.95-4.95c2.93-2.93,7.68-2.93,10.61,0,2.93,2.93,2.93,7.68,0,10.61Z"/>
    <path class="cls-1" d="M411.12,59.2l10.79-10.79c8.77-8.77,8.77-23.05,0-31.82-8.77-8.77-23.05-8.77-31.82,0l-10.78,10.78c5.84,4.65,11.46,9.64,16.82,15,5.38,5.38,10.37,11.01,14.99,16.83Z"/>
  </g>
</svg>