<?xml version="1.0" encoding="UTF-8"?>
<svg id="OBJECT" xmlns="http://www.w3.org/2000/svg" viewBox="0 0 512 512">
  <defs>
    <style>
      .cls-1 {
        fill: #FD4360;
      }

      .cls-2 {
        fill: #dadada;
      }
    </style>
  </defs>
  <g>
    <path class="cls-2" d="M296,270c4.14,0,7.5-3.36,7.5-7.5v-10c0-4.14-3.36-7.5-7.5-7.5s-7.5,3.36-7.5,7.5v10c0,4.14,3.36,7.5,7.5,7.5Z"/>
    <path class="cls-2" d="M256,270c4.14,0,7.5-3.36,7.5-7.5v-10c0-4.14-3.36-7.5-7.5-7.5s-7.5,3.36-7.5,7.5v10c0,4.14,3.36,7.5,7.5,7.5Z"/>
    <path class="cls-2" d="M216,270c4.14,0,7.5-3.36,7.5-7.5v-10c0-4.14-3.36-7.5-7.5-7.5s-7.5,3.36-7.5,7.5v10c0,4.14,3.36,7.5,7.5,7.5Z"/>
    <path class="cls-2" d="M336,270c4.14,0,7.5-3.36,7.5-7.5v-10c0-4.14-3.36-7.5-7.5-7.5s-7.5,3.36-7.5,7.5v10c0,4.14,3.36,7.5,7.5,7.5Z"/>
    <path class="cls-2" d="M176,270c4.14,0,7.5-3.36,7.5-7.5v-10c0-4.14-3.36-7.5-7.5-7.5s-7.5,3.36-7.5,7.5v10c0,4.14,3.36,7.5,7.5,7.5Z"/>
    <path class="cls-2" d="M437.93,501.63l-85.71-206.66c11.84-.63,21.28-10.47,21.28-22.47v-30c0-12.41-10.09-22.5-22.5-22.5H161c-12.41,0-22.5,10.09-22.5,22.5v7.5h-15v-22.5c0-9.65-7.85-17.5-17.5-17.5h-15c-9.65,0-17.5,7.85-17.5,17.5v60c0,9.65,7.85,17.5,17.5,17.5h15c9.65,0,17.5-7.85,17.5-17.5v-22.5h15v7.5c0,12,9.44,21.83,21.28,22.47l-85.71,206.66c-.96,2.31-.7,4.96,.69,7.04,1.39,2.08,3.73,3.33,6.24,3.33h30c2.93,0,5.59-1.7,6.81-4.36l97.99-212.64h8.04l3.11,67.49c-7.7,1.84-13.45,8.75-13.45,17.01v50c0,9.6,7.77,17.41,17.34,17.49l2.67,57.85c.18,4,3.48,7.15,7.49,7.15h30c4.01,0,7.31-3.15,7.49-7.15l2.67-57.85c9.58-.09,17.34-7.9,17.34-17.49v-50c0-8.25-5.75-15.17-13.45-17.01l3.11-67.49h8.04l97.99,212.64c1.22,2.66,3.88,4.36,6.81,4.36h30c2.51,0,4.85-1.25,6.24-3.33,1.39-2.08,1.65-4.72,.69-7.04ZM108.5,287.5c0,1.38-1.12,2.5-2.5,2.5h-15c-1.38,0-2.5-1.12-2.5-2.5v-60c0-1.38,1.12-2.5,2.5-2.5h15c1.38,0,2.5,1.12,2.5,2.5v60Zm45-15v-30c0-4.14,3.36-7.5,7.5-7.5h190c4.14,0,7.5,3.36,7.5,7.5v30c0,4.14-3.36,7.5-7.5,7.5H161c-4.14,0-7.5-3.36-7.5-7.5Zm-47.3,224.5h-13.97l83.78-202h23.28l-93.09,202Zm174.8-120c1.38,0,2.5,1.12,2.5,2.5v17.5h-55v-17.5c0-1.38,1.12-2.5,2.5-2.5h50Zm-32.84,120l-2.3-50h20.28l-2.3,50h-15.68Zm32.84-65h-50c-1.38,0-2.5-1.12-2.5-2.5v-17.5h55v17.5c0,1.38-1.12,2.5-2.5,2.5Zm-10.94-70h-28.12l-3.09-67h34.29l-3.09,67Zm135.74,135l-93.09-202h23.28l83.78,202h-13.97Z"/>
  </g>
  <g>
    <path class="cls-1" d="M226,15h7.5v10h45V15h7.5c4.14,0,7.5-3.36,7.5-7.5s-3.36-7.5-7.5-7.5h-60c-4.14,0-7.5,3.36-7.5,7.5s3.36,7.5,7.5,7.5Z"/>
    <path class="cls-1" d="M303.5,97.5V47.5c0-4.14-3.36-7.5-7.5-7.5h-80c-4.14,0-7.5,3.36-7.5,7.5v17.5h-20v-12.5c0-4.14-3.36-7.5-7.5-7.5s-7.5,3.36-7.5,7.5v40c0,4.14,3.36,7.5,7.5,7.5s7.5-3.36,7.5-7.5v-12.5h20v17.5c0,4.14,3.36,7.5,7.5,7.5h80c4.14,0,7.5-3.36,7.5-7.5Zm-37.5-17.5h-20c-4.14,0-7.5-3.36-7.5-7.5s3.36-7.5,7.5-7.5h20c4.14,0,7.5,3.36,7.5,7.5s-3.36,7.5-7.5,7.5Z"/>
    <path class="cls-1" d="M306.46,167.38l-7.96-1.99v39.61h25v-15.79c0-10.34-7.01-19.32-17.04-21.83Z"/>
    <path class="cls-1" d="M188.5,189.21v15.79h25v-39.61l-7.96,1.99c-10.03,2.51-17.04,11.48-17.04,21.83Z"/>
    <rect class="cls-1" x="228.5" y="120" width="55" height="85"/>
  </g>
</svg>