<?xml version="1.0" encoding="UTF-8"?>
<svg id="OBJECT" xmlns="http://www.w3.org/2000/svg" viewBox="0 0 512 512">
  <defs>
    <style>
      .cls-1 {
        fill: #FD4360;
      }

      .cls-2 {
        fill: #dadada;
      }
    </style>
  </defs>
  <g>
    <path class="cls-2" d="M449.5,65.25h-51v-10.25h12.5c4.14,0,7.5-3.36,7.5-7.5V22.5c0-12.41-10.09-22.5-22.5-22.5H116c-12.41,0-22.5,10.09-22.5,22.5v25c0,4.14,3.36,7.5,7.5,7.5h12.5v10.25H62.5C28.04,65.25,0,93.29,0,127.75v30c0,34.46,28.04,62.5,62.5,62.5h51v11.94c0,4.78,1.25,9.5,3.62,13.64l31.61,55.31c4.88,8.55,14.03,13.86,23.88,13.86h166.79c9.84,0,18.99-5.31,23.88-13.86l31.61-55.31c2.37-4.15,3.62-8.87,3.62-13.64v-11.94h51c34.46,0,62.5-28.04,62.5-62.5v-30c0-34.46-28.04-62.5-62.5-62.5Zm-51,45h46c12.41,0,22.5,10.09,22.5,22.5v20c0,12.41-10.09,22.5-22.5,22.5h-46V110.25ZM108.5,22.5c0-4.14,3.36-7.5,7.5-7.5H396c4.14,0,7.5,3.36,7.5,7.5v17.5H108.5V22.5ZM62.5,205.25c-26.19,0-47.5-21.31-47.5-47.5v-30c0-26.19,21.31-47.5,47.5-47.5h51v15h-46c-20.68,0-37.5,16.82-37.5,37.5v20c0,20.68,16.82,37.5,37.5,37.5h46v15H62.5Zm51-95v65h-46c-12.41,0-22.5-10.09-22.5-22.5v-20c0-12.41,10.09-22.5,22.5-22.5h46ZM381.85,238.39l-31.61,55.31c-2.22,3.89-6.38,6.3-10.85,6.3H172.61c-4.47,0-8.63-2.41-10.85-6.3l-31.61-55.31c-1.08-1.89-1.65-4.03-1.65-6.2V55h255V232.19c0,2.17-.57,4.32-1.65,6.2Zm115.15-80.64c0,26.19-21.31,47.5-47.5,47.5h-51v-15h46c20.68,0,37.5-16.82,37.5-37.5v-20c0-20.68-16.82-37.5-37.5-37.5h-46v-15h51c26.19,0,47.5,21.31,47.5,47.5v30Z"/>
    <path class="cls-2" d="M299.33,193.05h-19.17V94.19c0-8.44-4.29-16.12-11.46-20.56-7.18-4.43-15.96-4.83-23.51-1.06l-33.33,16.67c-8.24,4.12-13.36,12.4-13.36,21.62v23.03c0,2.41,1.16,4.67,3.11,6.08,1.96,1.41,4.47,1.79,6.76,1.03l23.46-7.82v59.87h-19.17c-13.33,0-24.17,10.84-24.17,24.17v11.11c0,13.33,10.84,24.17,24.17,24.17h86.67c13.33,0,24.17-10.84,24.17-24.17v-11.11c0-13.33-10.84-24.17-24.17-24.17Zm9.17,35.28c0,5.05-4.11,9.17-9.17,9.17h-86.67c-5.05,0-9.17-4.11-9.17-9.17v-11.11c0-5.05,4.11-9.17,9.17-9.17h26.67c4.14,0,7.5-3.36,7.5-7.5V122.78c0-2.41-1.16-4.67-3.11-6.08-1.96-1.41-4.47-1.79-6.76-1.03l-23.46,7.82v-12.63c0-3.49,1.94-6.64,5.07-8.2l33.33-16.67c2.9-1.45,6.16-1.31,8.92,.4,2.76,1.71,4.35,4.55,4.35,7.8v106.37c0,4.14,3.36,7.5,7.5,7.5h26.67c5.05,0,9.17,4.11,9.17,9.17v11.11Z"/>
  </g>
  <g>
    <path class="cls-1" d="M386,482H126c-8.28,0-15,6.72-15,15v15H401v-15c0-8.28-6.72-15-15-15Z"/>
    <polygon class="cls-1" points="296.48 330 215.52 330 209.41 377 302.59 377 296.48 330"/>
    <path class="cls-1" d="M358.5,407c0-8.28-6.72-15-15-15H168.5c-8.28,0-15,6.72-15,15v60h205v-60Zm-137.5,0h70c4.14,0,7.5,3.36,7.5,7.5s-3.36,7.5-7.5,7.5h-70c-4.14,0-7.5-3.36-7.5-7.5s3.36-7.5,7.5-7.5Zm-30,0h5c4.14,0,7.5,3.36,7.5,7.5s-3.36,7.5-7.5,7.5h-5c-4.14,0-7.5-3.36-7.5-7.5s3.36-7.5,7.5-7.5Zm130,45H191c-4.14,0-7.5-3.36-7.5-7.5s3.36-7.5,7.5-7.5h130c4.14,0,7.5,3.36,7.5,7.5s-3.36,7.5-7.5,7.5Zm0-30h-5c-4.14,0-7.5-3.36-7.5-7.5s3.36-7.5,7.5-7.5h5c4.14,0,7.5,3.36,7.5,7.5s-3.36,7.5-7.5,7.5Z"/>
  </g>
</svg>