<?xml version="1.0" encoding="UTF-8"?>
<svg id="OBJECT" xmlns="http://www.w3.org/2000/svg" viewBox="0 0 32 32">
  <defs>
    <style>
      .cls-1 {
        fill: #FD4360;
      }

      .cls-1, .cls-2 {
        stroke-width: 0px;
      }

      .cls-2 {
        fill: #dadada;
      }
    </style>
  </defs>
  <g>
    <path class="cls-2" d="m28,3.92h-2.57c-.14-1.3-.33-2.12-.33-2.16-.11-.45-.51-.77-.97-.77H7.88c-.46,0-.87.32-.97.77,0,.03-.2.86-.33,2.16h-2.57c-1.65,0-3,1.35-3,3v4.01c0,1.26.79,2.39,1.98,2.82l5.9,2.14c.9,1.36,2.11,2.59,3.73,3.56l-2.01,5.19c-.2.52.06,1.09.57,1.29.51.2,1.09-.06,1.29-.57l2.07-5.36h2.93l2.07,5.36c.15.4.53.64.93.64.12,0,.24-.02.36-.07.52-.2.77-.78.57-1.29l-2.01-5.19c1.62-.97,2.83-2.2,3.73-3.56l5.9-2.14c1.18-.43,1.98-1.56,1.98-2.82v-4.01c0-1.65-1.35-3-3-3ZM3.66,11.87c-.39-.14-.66-.52-.66-.94v-4.01c0-.55.45-1,1-1h2.44c-.06,2.14.15,4.82,1.11,7.36l-3.9-1.41Zm14.22,6.13h-3.76c-6.69-3.58-5.84-12.35-5.41-15h14.58c.43,2.65,1.28,11.42-5.41,15Zm11.12-7.07c0,.42-.26.8-.66.94l-3.9,1.41c.96-2.54,1.17-5.22,1.11-7.36h2.44c.55,0,1,.45,1,1v4.01Z"/>
    <path class="cls-2" d="m18,12h-1v-7c0-.35-.18-.67-.47-.85-.29-.18-.66-.2-.97-.04l-2,1c-.49.25-.69.85-.45,1.34.25.49.85.69,1.34.45l.55-.28v5.38h-1c-.55,0-1,.45-1,1s.45,1,1,1h4c.55,0,1-.45,1-1s-.45-1-1-1Z"/>
  </g>
  <path class="cls-1" d="m26.5,29h-1.5v-2H7v2h-1.5c-.55,0-1,.45-1,1s.45,1,1,1h21c.55,0,1-.45,1-1s-.45-1-1-1Z"/>
</svg>