<?xml version="1.0" encoding="UTF-8"?>
<svg id="OBJECT" xmlns="http://www.w3.org/2000/svg" viewBox="0 0 32 32">
  <defs>
    <style>
      .cls-1 {
        fill: #FD4360;
      }

      .cls-2 {
        fill: #dadada;
      }
    </style>
  </defs>
  <g>
    <path class="cls-2" d="M28,4h-3.5v-1h1c.55,0,1-.45,1-1s-.45-1-1-1H6.5c-.55,0-1,.45-1,1s.45,1,1,1h1v1h-3.5c-1.65,0-3,1.35-3,3v2c0,2.21,1.79,4,4,4h2.5c0,.94,.46,1.84,1.23,2.41l4.68,3.4c.17,.12,.38,.19,.59,.19h4c.21,0,.42-.07,.59-.19l4.69-3.41c.76-.57,1.21-1.46,1.22-2.4h2.5c2.21,0,4-1.79,4-4v-2c0-1.65-1.35-3-3-3ZM3,9v-2c0-.55,.45-1,1-1h3.5v5h-2.5c-1.1,0-2-.9-2-2Zm19.09,4.79l-4.42,3.21h-3.35l-4.41-3.2c-.26-.19-.42-.5-.42-.82V3h13V12.98c0,.32-.16,.62-.41,.81Zm6.91-4.79c0,1.1-.9,2-2,2h-2.5V6h3.5c.55,0,1,.45,1,1v2Z"/>
    <path class="cls-2" d="M14,5h-1c-.55,0-1,.45-1,1s.45,1,1,1h1c.55,0,1-.45,1-1s-.45-1-1-1Z"/>
    <path class="cls-2" d="M19,5h-1c-.55,0-1,.45-1,1s.45,1,1,1h1c.55,0,1-.45,1-1s-.45-1-1-1Z"/>
  </g>
  <g>
    <path class="cls-1" d="M25,29h-2v-2c0-.55-.45-1-1-1H10c-.55,0-1,.45-1,1v2h-2c-.55,0-1,.45-1,1s.45,1,1,1H25c.55,0,1-.45,1-1s-.45-1-1-1Z"/>
    <polygon class="cls-1" points="19.44 21 12.56 21 12.13 24 19.87 24 19.44 21"/>
  </g>
</svg>