<?xml version="1.0" encoding="UTF-8"?>
<svg id="OBJECT" xmlns="http://www.w3.org/2000/svg" viewBox="0 0 512 512">
  <defs>
    <style>
      .cls-1 {
        fill: #FD4360;
      }

      .cls-2 {
        fill: #dadada;
      }
    </style>
  </defs>
  <path class="cls-2" d="M421,0H91c-12.41,0-22.5,10.09-22.5,22.5V57.5c0,4.14,3.36,7.5,7.5,7.5h22.5V228.13c0,8.19,3.61,15.89,9.89,21.13l110.11,91.75v75.99h-13.23c-8.58,0-16.29,4.77-20.12,12.44l-13.78,27.56h-50.36c-12.41,0-22.5,10.09-22.5,22.5v10c0,12.41,10.09,22.5,22.5,22.5H391c12.41,0,22.5-10.09,22.5-22.5v-10c0-12.41-10.09-22.5-22.5-22.5h-50.36l-13.78-27.56c-3.83-7.67-11.55-12.44-20.12-12.44h-13.23v-75.99l110.11-91.75c6.29-5.24,9.89-12.94,9.89-21.13V65h22.5c4.14,0,7.5-3.36,7.5-7.5V22.5c0-12.41-10.09-22.5-22.5-22.5Zm-22.5,479.5v10c0,4.14-3.36,7.5-7.5,7.5H121c-4.14,0-7.5-3.36-7.5-7.5v-10c0-4.14,3.36-7.5,7.5-7.5H391c4.14,0,7.5,3.36,7.5,7.5Zm-85.06-43.35l10.43,20.85H188.14l10.43-20.85c1.28-2.56,3.85-4.15,6.71-4.15h101.46c2.86,0,5.43,1.59,6.71,4.15Zm85.06-208.01c0,3.72-1.64,7.22-4.5,9.6l-112.8,94c-1.71,1.42-2.7,3.54-2.7,5.76v79.5h-45v-72h22.5c4.14,0,7.5-3.36,7.5-7.5s-3.36-7.5-7.5-7.5h-27.28l-110.72-92.26c-2.86-2.38-4.5-5.88-4.5-9.6V65H398.5V228.13Zm30-178.13H83.5V22.5c0-4.14,3.36-7.5,7.5-7.5H421c4.14,0,7.5,3.36,7.5,7.5v27.5Z"/>
  <g>
    <path class="cls-1" d="M474.5,90h-46v30h46c4.14,0,7.5,3.36,7.5,7.5v30c0,15.16-12.34,27.5-27.5,27.5h-26v30h31c28.95,0,52.5-23.55,52.5-52.5v-35c0-20.68-16.82-37.5-37.5-37.5Z"/>
    <path class="cls-1" d="M0,127.5v35c0,28.95,23.55,52.5,52.5,52.5h31v-30h-26c-15.16,0-27.5-12.34-27.5-27.5v-30c0-4.14,3.36-7.5,7.5-7.5h46v-30H37.5C16.82,90,0,106.82,0,127.5Z"/>
    <path class="cls-1" d="M288,183.73h-10V109.98c0-5.77-2.66-11.05-7.31-14.48-4.64-3.43-10.47-4.42-15.99-2.73l-36.47,11.22c-2.52,.77-4.24,3.1-4.24,5.73v24c0,3.31,2.69,6,6,6h14v44h-10c-9.92,0-18,8.07-18,18v20c0,3.31,2.69,6,6,6h88c3.31,0,6-2.69,6-6v-20c0-9.93-8.08-18-18-18Z"/>
  </g>
</svg>