<?xml version="1.0" encoding="UTF-8"?>
<svg id="OBJECT" xmlns="http://www.w3.org/2000/svg" viewBox="0 0 32 32">
  <defs>
    <style>
      .cls-1 {
        fill: #FD4360;
      }

      .cls-1, .cls-2 {
        stroke-width: 0px;
      }

      .cls-2 {
        fill: #dadada;
      }
    </style>
  </defs>
  <path class="cls-2" d="m30,20H9V5c0-2.21-1.79-4-4-4h-3c-.55,0-1,.45-1,1s.45,1,1,1h3c1.1,0,2,.9,2,2v22c0,2.21,1.79,4,4,4s4-1.79,4-4v-1h6v1c0,2.21,1.79,4,4,4s4-1.79,4-4v-1h1c.55,0,1-.45,1-1v-4c0-.55-.45-1-1-1Zm-17,7c0,1.1-.9,2-2,2s-2-.9-2-2v-1h4v1Zm14,0c0,1.1-.9,2-2,2s-2-.9-2-2v-1h4v1Zm2-3H9v-2h20v2Z"/>
  <path class="cls-1" d="m15,18h10c1.65,0,3-1.35,3-3V6c0-1.65-1.35-3-3-3h-10c-1.65,0-3,1.35-3,3v9c0,1.65,1.35,3,3,3Zm.5-9.83c0-.55.45-1,1-1s1,.45,1,1v2.33c0,.74.6,1.33,1.33,1.33h2.33c.74,0,1.33-.6,1.33-1.33v-2.33c0-.55.45-1,1-1s1,.45,1,1v2.33c0,1.84-1.5,3.33-3.33,3.33h-2.33c-1.84,0-3.33-1.5-3.33-3.33v-2.33Z"/>
</svg>