<?xml version="1.0" encoding="UTF-8"?>
<svg id="OBJECT" xmlns="http://www.w3.org/2000/svg" viewBox="0 0 32 32">
  <defs>
    <style>
      .cls-1 {
        fill: #FD4360;
      }

      .cls-1, .cls-2 {
        stroke-width: 0px;
      }

      .cls-2 {
        fill: #dadada;
      }
    </style>
  </defs>
  <g>
    <path class="cls-2" d="m27,1h-13c-1.65,0-3,1.35-3,3v12c0,1.65,1.35,3,3,3h13c1.65,0,3-1.35,3-3V4c0-1.65-1.35-3-3-3Zm1,3v1h-4v-2h3c.55,0,1,.45,1,1Zm-9-1h3v5.52l-1.13-.45c-.24-.09-.5-.09-.74,0l-1.13.45V3Zm-5,0h3v2h-4v-1c0-.55.45-1,1-1Zm13,14h-13c-.55,0-1-.45-1-1V7h4v3c0,.33.16.64.44.83.28.19.62.22.93.1l2.13-.85,2.13.85c.12.05.25.07.37.07.2,0,.39-.06.56-.17.27-.19.44-.5.44-.83v-3h4v9c0,.55-.45,1-1,1Z"/>
    <path class="cls-2" d="m16,14h-1c-.55,0-1,.45-1,1s.45,1,1,1h1c.55,0,1-.45,1-1s-.45-1-1-1Z"/>
    <path class="cls-2" d="m20,14h-1c-.55,0-1,.45-1,1s.45,1,1,1h1c.55,0,1-.45,1-1s-.45-1-1-1Z"/>
  </g>
  <g>
    <path class="cls-1" d="m29.5,21H9V4c0-1.65-1.35-3-3-3H2c-.55,0-1,.45-1,1s.45,1,1,1h4c.55,0,1,.45,1,1v19.5c0,.83.67,1.5,1.5,1.5h21c.83,0,1.5-.67,1.5-1.5v-1c0-.83-.67-1.5-1.5-1.5Z"/>
    <path class="cls-1" d="m9.5,28c0,1.65,1.35,3,3,3s3-1.35,3-3v-1h-6v1Z"/>
    <path class="cls-1" d="m22.5,28c0,1.65,1.35,3,3,3s3-1.35,3-3v-1h-6v1Z"/>
  </g>
</svg>