<?xml version="1.0" encoding="UTF-8"?>
<svg id="OBJECT" xmlns="http://www.w3.org/2000/svg" viewBox="0 0 32 32">
  <defs>
    <style>
      .cls-1 {
        fill: #FD4360;
      }

      .cls-1, .cls-2 {
        stroke-width: 0px;
      }

      .cls-2 {
        fill: #dadada;
      }
    </style>
  </defs>
  <path class="cls-1" d="m26,20c.45,0,.84-.3.96-.73l2.4-8.39H8.82l.83,9.11h16.35Z"/>
  <path class="cls-1" d="m29.93,8.89l1.03-3.61c.09-.3.03-.63-.16-.88-.19-.25-.49-.4-.8-.4H8.19l.44,4.89h21.29Z"/>
  <path class="cls-2" d="m30,23H8.83c-.52,0-.95-.39-1-.91L6,1.91c-.05-.52-.48-.91-1-.91h-3c-.55,0-1,.45-1,1s.45,1,1,1h2.09l1.75,19.27c.12,1.27,1,2.27,2.16,2.6v2.13c0,2.21,1.79,4,4,4s4-1.79,4-4v-2h5v2c0,2.21,1.79,4,4,4s4-1.79,4-4v-2h1c.55,0,1-.45,1-1s-.45-1-1-1Zm-16,4c0,1.1-.9,2-2,2s-2-.9-2-2v-2h4v2Zm13,0c0,1.1-.9,2-2,2s-2-.9-2-2v-2h4v2Z"/>
</svg>