<?xml version="1.0" encoding="UTF-8"?>
<svg id="OBJECT" xmlns="http://www.w3.org/2000/svg" viewBox="0 0 32 32">
  <defs>
    <style>
      .cls-1 {
        fill: #FD4360;
      }

      .cls-1, .cls-2 {
        stroke-width: 0px;
      }

      .cls-2 {
        fill: #dadada;
      }
    </style>
  </defs>
  <rect class="cls-1" x="3" y="23" width="28" height="2"/>
  <path class="cls-1" d="m9,31c2.21,0,4-1.79,4-4H5c0,2.21,1.79,4,4,4Z"/>
  <path class="cls-1" d="m25,31c2.21,0,4-1.79,4-4h-8c0,2.21,1.79,4,4,4Z"/>
  <g>
    <path class="cls-2" d="m4,1h-2c-.55,0-1,.45-1,1s.45,1,1,1h2c.55,0,1,.45,1,1v16.57c0,.55.45,1,1,1s1-.45,1-1V4c0-1.65-1.35-3-3-3Z"/>
    <path class="cls-2" d="m14.65,17.57h-2c-.55,0-1,.45-1,1s.45,1,1,1h2c.55,0,1-.45,1-1s-.45-1-1-1Z"/>
    <path class="cls-2" d="m26.66,10.06h-4.01v-2.99c0-1.38-1.12-2.5-2.5-2.5h-9c-1.38,0-2.5,1.12-2.5,2.5v13.5c0,.55.45,1,1,1s1-.45,1-1v-10h10v10c0,.55.45,1,1,1s1-.45,1-1v-4.51h4.51v4.51c0,.55.45,1,1,1s1-.45,1-1v-8.01c0-1.38-1.12-2.5-2.5-2.5Zm-6.01-1.49h-10v-1.5c0-.28.22-.5.5-.5h9c.28,0,.5.22.5.5v1.5Zm6.51,5.49h-4.51v-2h4.01c.28,0,.5.22.5.5v1.5Z"/>
  </g>
</svg>