<?xml version="1.0" encoding="UTF-8"?>
<svg id="OBJECT" xmlns="http://www.w3.org/2000/svg" viewBox="0 0 32 32">
  <defs>
    <style>
      .cls-1 {
        fill: #FD4360;
      }

      .cls-1, .cls-2 {
        stroke-width: 0px;
      }

      .cls-2 {
        fill: #dadada;
      }
    </style>
  </defs>
  <path class="cls-2" d="m30.75,16.34l-4-4.5c-.19-.21-.46-.34-.75-.34h-6c-.55,0-1,.45-1,1v8H2c-.55,0-1,.45-1,1v3.5c0,.55.45,1,1,1h2v1.5c0,1.93,1.57,3.5,3.5,3.5s3.5-1.57,3.5-3.5v-1.5h10v1.5c0,1.93,1.57,3.5,3.5,3.5s3.5-1.57,3.5-3.5v-1.5h2c.55,0,1-.45,1-1v-8c0-.25-.09-.48-.25-.66Zm-9.75-2.84h4.55l2.22,2.5h-2.77c-.55,0-1,.45-1,1s.45,1,1,1h4v2.5h-8v-7Zm-12,14c0,.83-.67,1.5-1.5,1.5s-1.5-.67-1.5-1.5v-1.5h3v1.5Zm17,0c0,.83-.67,1.5-1.5,1.5s-1.5-.67-1.5-1.5v-1.5h3v1.5Zm3-3.5H3v-1.5h26v1.5Z"/>
  <g>
    <path class="cls-1" d="m16,1h-2.5v4h4.5v-2c0-1.1-.9-2-2-2Z"/>
    <path class="cls-1" d="m10.37,7.07l1.13.45V1h-3v6.52l1.13-.45c.24-.1.5-.1.74,0Z"/>
    <path class="cls-1" d="m6.5,1h-2.5c-1.1,0-2,.9-2,2v2h4.5V1Z"/>
    <path class="cls-1" d="m13.5,9c0,.33-.16.64-.44.83-.17.11-.36.17-.56.17-.13,0-.25-.02-.37-.07l-2.13-.85-2.13.85c-.31.12-.66.08-.93-.1-.27-.19-.44-.5-.44-.83v-2H2v9c0,1.1.9,2,2,2h12c1.1,0,2-.9,2-2V7h-4.5v2Z"/>
  </g>
</svg>