<?xml version="1.0" encoding="UTF-8"?>
<svg id="OBJECT" xmlns="http://www.w3.org/2000/svg" viewBox="0 0 32 32">
  <defs>
    <style>
      .cls-1 {
        fill: #FD4360;
      }

      .cls-1, .cls-2 {
        stroke-width: 0px;
      }

      .cls-2 {
        fill: #dadada;
      }
    </style>
  </defs>
  <g>
    <path class="cls-2" d="m19,4H2c-.55,0-1,.45-1,1v17c0,.55.45,1,1,1h2v1c0,2.21,1.79,4,4,4s4-1.79,4-4v-1h7c.55,0,1-.45,1-1V5c0-.55-.45-1-1-1Zm-9,20c0,1.1-.9,2-2,2s-2-.9-2-2v-1h4v1Zm8-3H3V6h15v15Z"/>
    <path class="cls-2" d="m28,23c-.55,0-1,.45-1,1,0,1.1-.9,2-2,2s-2-.9-2-2c0-.55-.45-1-1-1s-1,.45-1,1c0,2.21,1.79,4,4,4s4-1.79,4-4c0-.55-.45-1-1-1Z"/>
    <path class="cls-2" d="m11.33,15.83h-3.33c-.55,0-1,.45-1,1s.45,1,1,1h1.5v.67c0,.55.45,1,1,1s1-.45,1-1v-.68c1.39-.09,2.5-1.24,2.5-2.65s-1.2-2.67-2.67-2.67h-1.67c-.37,0-.67-.3-.67-.67s.3-.67.67-.67h3.33c.55,0,1-.45,1-1s-.45-1-1-1h-1.5v-.67c0-.55-.45-1-1-1s-1,.45-1,1v.68c-1.39.09-2.5,1.24-2.5,2.65s1.2,2.67,2.67,2.67h1.67c.37,0,.67.3.67.67s-.3.67-.67.67Z"/>
  </g>
  <path class="cls-1" d="m22,21h9v-5h-4.5c-.55,0-1-.45-1-1s.45-1,1-1h3.95l-4.2-4.67c-.19-.21-.46-.33-.74-.33h-3.5v12Z"/>
</svg>