<?xml version="1.0" encoding="UTF-8"?>
<svg id="OBJECT" xmlns="http://www.w3.org/2000/svg" viewBox="0 0 32 32">
  <defs>
    <style>
      .cls-1 {
        fill: #FD4360;
      }

      .cls-2 {
        fill: #dadada;
      }
    </style>
  </defs>
  <g>
    <path class="cls-2" d="M22,1H10c-1.65,0-3,1.35-3,3v12c0,1.65,1.35,3,3,3h12c1.65,0,3-1.35,3-3V4c0-1.65-1.35-3-3-3Zm1,15c0,.55-.45,1-1,1H10c-.55,0-1-.45-1-1V4c0-.55,.45-1,1-1h12c.55,0,1,.45,1,1v12Z"/>
    <path class="cls-2" d="M19.29,11.04l-1.29,1.29V7.25c0-1.65-1.35-3-3-3h-1c-1.65,0-3,1.35-3,3v2c0,.55,.45,1,1,1s1-.45,1-1v-2c0-.55,.45-1,1-1h1c.55,0,1,.45,1,1v5.09l-1.29-1.29c-.39-.39-1.02-.39-1.41,0s-.39,1.02,0,1.41l3,3c.2,.2,.45,.29,.71,.29s.51-.1,.71-.29l3-3c.39-.39,.39-1.02,0-1.41s-1.02-.39-1.41,0Z"/>
  </g>
  <path class="cls-1" d="M21.5,29h-3.5v-8h-4v8h-3.5c-.55,0-1,.45-1,1s.45,1,1,1h11c.55,0,1-.45,1-1s-.45-1-1-1Z"/>
</svg>