<?xml version="1.0" encoding="UTF-8"?>
<svg id="OBJECT" xmlns="http://www.w3.org/2000/svg" viewBox="0 0 32 32">
  <defs>
    <style>
      .cls-1 {
        fill: #FD4360;
      }

      .cls-1, .cls-2 {
        stroke-width: 0px;
      }

      .cls-2 {
        fill: #dadada;
      }
    </style>
  </defs>
  <g>
    <path class="cls-2" d="m23.04,12.96c-.49-.26-1.09-.08-1.35.41l-6.46,12.04c-.06.11-.13.2-.22.28-.05-.05-.12-.1-.19-.15l-1.29-.8c-1.07-.64-2.41-.61-3.43.09l-3.72,2.56c-.24.17-.4.44-.43.73-.03.3.08.59.29.8l1.31,1.31c.51.5,1.17.75,1.85.75.46,0,.93-.12,1.35-.37l5.08-3.05c.48-.29.87-.7,1.15-1.2l6.47-12.06c.26-.49.08-1.09-.41-1.35Zm-13.32,15.95c-.25.15-.56.11-.76-.09l-.45-.45,2.73-1.88c.37-.26.87-.27,1.26-.03l.64.4-3.42,2.05Z"/>
    <path class="cls-2" d="m7.24,18.46l-.79-1.28c-.04-.07-.09-.13-.15-.19.08-.08.17-.15.27-.21l12.06-6.47c.49-.26.67-.87.41-1.35-.26-.49-.87-.67-1.35-.41l-12.07,6.48c-.49.27-.9.67-1.19,1.15l-3.05,5.08c-.61,1.03-.45,2.34.39,3.2l1.3,1.3c.19.19.44.29.71.29.03,0,.06,0,.09,0,.3-.03.56-.18.73-.43l2.56-3.72c.7-1.02.73-2.37.09-3.44Zm-1.73,2.31l-1.88,2.73-.44-.44c-.21-.21-.24-.52-.1-.77l2.05-3.42.39.63c.24.4.23.89-.03,1.27Z"/>
  </g>
  <g>
    <path class="cls-1" d="m30.08,2.69l-.76-.76c-1.23-1.23-3.23-1.23-4.46,0l-.82.82,5.22,5.22.82-.82c1.23-1.23,1.23-3.23,0-4.46Z"/>
    <rect class="cls-1" x="21.42" y="4.65" width="4.47" height="7.39" transform="translate(1.03 19.17) rotate(-45)"/>
  </g>
</svg>