<?xml version="1.0" encoding="UTF-8"?>
<svg id="OBJECT" xmlns="http://www.w3.org/2000/svg" viewBox="0 0 32 32">
  <defs>
    <style>
      .cls-1 {
        fill: #FD4360;
      }

      .cls-1, .cls-2 {
        stroke-width: 0px;
      }

      .cls-2 {
        fill: #dadada;
      }
    </style>
  </defs>
  <g>
    <path class="cls-2" d="m30.4,20.87l-1.4-1.87h0c.55,0,1-.45,1-1v-4c0-.55-.45-1-1-1H3c-.55,0-1,.45-1,1v4c0,.55.45,1,1,1h0l-1.4,1.87c-.39.52-.6,1.15-.6,1.8v5.33c0,1.65,1.35,3,3,3h24c1.65,0,3-1.35,3-3v-5.33c0-.65-.21-1.29-.6-1.8ZM4,15h24v2H4v-2Zm25,13c0,.55-.45,1-1,1H4c-.55,0-1-.45-1-1v-5.33c0-.22.07-.43.2-.6l2.3-3.07h21l2.3,3.07c.13.17.2.38.2.6v5.33Z"/>
    <path class="cls-2" d="m11.12,26h-.5c-.55,0-1,.45-1,1s.45,1,1,1h.5c.55,0,1-.45,1-1s-.45-1-1-1Z"/>
    <path class="cls-2" d="m6,26h-.5c-.55,0-1,.45-1,1s.45,1,1,1h.5c.55,0,1-.45,1-1s-.45-1-1-1Z"/>
    <path class="cls-2" d="m26.5,26h-10.75c-.55,0-1,.45-1,1s.45,1,1,1h10.75c.55,0,1-.45,1-1s-.45-1-1-1Z"/>
    <path class="cls-2" d="m20.88,24h.5c.55,0,1-.45,1-1s-.45-1-1-1h-.5c-.55,0-1,.45-1,1s.45,1,1,1Z"/>
    <path class="cls-2" d="m15.75,24h.5c.55,0,1-.45,1-1s-.45-1-1-1h-.5c-.55,0-1,.45-1,1s.45,1,1,1Z"/>
    <path class="cls-2" d="m11.12,22h-.5c-.55,0-1,.45-1,1s.45,1,1,1h.5c.55,0,1-.45,1-1s-.45-1-1-1Z"/>
    <path class="cls-2" d="m6,22h-.5c-.55,0-1,.45-1,1s.45,1,1,1h.5c.55,0,1-.45,1-1s-.45-1-1-1Z"/>
    <path class="cls-2" d="m26.5,22h-.5c-.55,0-1,.45-1,1s.45,1,1,1h.5c.55,0,1-.45,1-1s-.45-1-1-1Z"/>
  </g>
  <g>
    <path class="cls-1" d="m20.5,6h3.91l-4.41-4.41v3.91c0,.28.22.5.5.5Z"/>
    <path class="cls-1" d="m20.5,8c-1.38,0-2.5-1.12-2.5-2.5V1h-10c-.55,0-1,.45-1,1v9h18v-3h-4.5ZM10,3h3c.55,0,1,.45,1,1s-.45,1-1,1h-3c-.55,0-1-.45-1-1s.45-1,1-1Zm5,6h-5c-.55,0-1-.45-1-1s.45-1,1-1h5c.55,0,1,.45,1,1s-.45,1-1,1Z"/>
  </g>
</svg>