<?xml version="1.0" encoding="UTF-8" standalone="no"?>
<svg
   id="OBJECT"
   viewBox="0 0 32 32"
   version="1.1"
   sodipodi:docname="Youtube Title.svg"
   xml:space="preserve"
   inkscape:version="1.2.2 (732a01da63, 2022-12-09)"
   xmlns:inkscape="http://www.inkscape.org/namespaces/inkscape"
   xmlns:sodipodi="http://sodipodi.sourceforge.net/DTD/sodipodi-0.dtd"
   xmlns="http://www.w3.org/2000/svg"
   xmlns:svg="http://www.w3.org/2000/svg"><sodipodi:namedview
     id="namedview27"
     pagecolor="#505050"
     bordercolor="#ffffff"
     borderopacity="1"
     inkscape:showpageshadow="0"
     inkscape:pageopacity="0"
     inkscape:pagecheckerboard="1"
     inkscape:deskcolor="#505050"
     showgrid="false"
     inkscape:zoom="6.4765626"
     inkscape:cx="-33.891435"
     inkscape:cy="41.843184"
     inkscape:window-width="1920"
     inkscape:window-height="1009"
     inkscape:window-x="-8"
     inkscape:window-y="-8"
     inkscape:window-maximized="1"
     inkscape:current-layer="OBJECT" /><defs
     id="defs4"><rect
       x="-77.080609"
       y="-14.411672"
       width="37.339332"
       height="31.662007"
       id="rect294" /><style
       id="style2">
      .cls-1 {
        fill: #FD4360;
      }

      .cls-1, .cls-2 {
        stroke-width: 0px;
      }

      .cls-2 {
        fill: #dadada;
      }
    </style></defs><g
     id="g377"
     transform="translate(-0.30880579,-0.92641736)"><path
       style="fill:#dadada;fill-opacity:1;stroke-width:0.241477"
       d="m 14.118706,8.5704286 c 0,-1.7196296 0.101763,-3.0842842 0.226143,-3.0325661 0.820653,0.3412398 5.13374,2.9091227 5.13374,3.0564753 0,0.166059 -4.957838,3.1026892 -5.238191,3.1026892 -0.06693,0 -0.121701,-1.406969 -0.121701,-3.1265984 z"
       id="path807" /><path
       style="fill:#fd4360;fill-opacity:1;stroke-width:0.046072"
       d="M 12.536408,15.251948 C 10.550155,15.16217 9.1767369,15.024662 8.7295839,14.870817 8.0988815,14.653823 7.6252087,14.247638 7.3537075,13.690965 6.7979031,12.551376 6.6150808,8.5540084 6.9721583,5.3484765 7.1106152,4.1055356 7.2771548,3.6200033 7.7317168,3.1340375 8.2260348,2.6055735 8.8198159,2.4006074 10.195127,2.2836989 c 0.384832,-0.032711 1.002445,-0.088962 1.372475,-0.1249999 0.950601,-0.09258 8.326139,-0.090165 9.499674,0.00312 1.971955,0.1567353 2.205032,0.1834475 2.600367,0.2980206 0.460728,0.1335263 0.949916,0.4308426 1.197977,0.7281054 0.425875,0.5103414 0.648885,1.3039552 0.812638,2.8918808 0.08891,0.8621264 0.08922,4.2021412 5.39e-4,5.1084052 -0.105256,1.074868 -0.270492,2.011144 -0.419005,2.374098 -0.234595,0.573322 -0.769547,1.073734 -1.380745,1.291585 -0.362434,0.12919 -0.688494,0.178723 -1.950556,0.296343 -1.027177,0.09573 -1.665551,0.112603 -4.817115,0.127315 -1.998162,0.0093 -4.056873,-0.0023 -4.574915,-0.02562 z m 3.148617,-4.376086 C 18.655203,9.1829349 19.394978,8.7506981 19.412569,8.6979254 19.422924,8.6667871 18.988134,8.3884105 18.446307,8.0793263 17.904483,7.7702436 16.879885,7.1840614 16.169427,6.7767007 15.45897,6.3693401 14.774751,5.9772017 14.648942,5.9052824 L 14.420197,5.7745171 V 8.686378 c 0,1.601523 0.01817,2.901179 0.04037,2.888124 0.0222,-0.01306 0.573211,-0.327445 1.224465,-0.698642 z"
       id="path460" /></g><text
     xml:space="preserve"
     id="text292"
     style="font-size:14.6667px;font-family:'Times New Roman';-inkscape-font-specification:'Times New Roman, ';text-align:justify;white-space:pre;shape-inside:url(#rect294);fill:#dadada;stroke-width:0.856"
     transform="matrix(1.0956786,0,0,1.0956786,95.653581,28.855253)"><tspan
       x="-77.080078"
       y="-1.3936405"
       id="tspan417">T</tspan></text><g
     id="g389"><rect
       style="fill:#dadada;fill-opacity:1;stroke-width:0.435024"
       id="rect1139"
       width="8.9126139"
       height="1.1744462"
       x="1.3945756"
       y="19.355534"
       ry="0.14896469" /><rect
       style="fill:#dadada;fill-opacity:1;stroke-width:0.368681"
       id="rect382"
       width="6.4014893"
       height="1.1744462"
       x="3.8511107"
       y="21.866657"
       ry="0.14896469" /><rect
       style="fill:#dadada;fill-opacity:1;stroke-width:0.306915"
       id="rect384"
       width="4.4362612"
       height="1.1744462"
       x="5.7753968"
       y="24.104834"
       ry="0.14896469" /></g><g
     id="g397"
     transform="matrix(-1,0,0,1,32.220857,-0.11580217)"><rect
       style="fill:#dadada;fill-opacity:1;stroke-width:0.435024"
       id="rect391"
       width="8.9126139"
       height="1.1744462"
       x="1.3945756"
       y="19.355534"
       ry="0.14896469" /><rect
       style="fill:#dadada;fill-opacity:1;stroke-width:0.368681"
       id="rect393"
       width="6.4014893"
       height="1.1744462"
       x="3.8511107"
       y="21.866657"
       ry="0.14896469" /><rect
       style="fill:#dadada;fill-opacity:1;stroke-width:0.306915"
       id="rect395"
       width="4.4362612"
       height="1.1744462"
       x="5.7753968"
       y="24.104834"
       ry="0.14896469" /></g></svg>
