<?xml version="1.0" encoding="UTF-8"?>
<svg id="OBJECT" xmlns="http://www.w3.org/2000/svg" viewBox="0 0 32 32">
  <defs>
    <style>
      .cls-1 {
        fill: #FD4360;
      }

      .cls-1, .cls-2 {
        stroke-width: 0px;
      }

      .cls-2 {
        fill: #dadada;
      }
    </style>
  </defs>
  <g>
    <path class="cls-2" d="m30.45,18.11s-6.29-3.11-6.45-3.11H8c-.16,0-6.45,3.11-6.45,3.11-.34.17-.55.52-.55.89v4c0,.35.18.67.47.85.16.1.34.15.53.15.15,0,.31-.04.45-.11l4.55-2.28v8.38c0,.55.45,1,1,1h16c.55,0,1-.45,1-1v-8.38l4.55,2.28c.14.07.29.11.45.11.18,0,.37-.05.53-.15.29-.18.47-.5.47-.85v-4c0-.38-.21-.72-.55-.89Zm-27.45,3.28v-1.76l4-2v1.76l-4,2Zm20,7.62h-14v-12h14v12Zm6-7.62l-4-2v-1.76l4,2v1.76Z"/>
    <path class="cls-2" d="m13,28h6c1.38,0,2.5-1.12,2.5-2.5v-1c0-1.38-1.12-2.5-2.5-2.5h-6c-1.38,0-2.5,1.12-2.5,2.5v1c0,1.38,1.12,2.5,2.5,2.5Zm-.5-3.5c0-.28.22-.5.5-.5h6c.28,0,.5.22.5.5v1c0,.28-.22.5-.5.5h-6c-.28,0-.5-.22-.5-.5v-1Z"/>
  </g>
  <path class="cls-1" d="m12.12,6.38l3.88-3.1,3.88,3.1c.18.15.4.22.62.22.29,0,.58-.13.78-.38.35-.43.28-1.06-.16-1.41l-4.5-3.6c-.37-.29-.88-.29-1.25,0l-4.5,3.6c-.43.35-.5.97-.16,1.41.34.43.98.5,1.41.16Z"/>
  <path class="cls-1" d="m13.5,7.28v4.22c0,.83.67,1.5,1.5,1.5h2c.83,0,1.5-.67,1.5-1.5v-4.22l-2.5-2-2.5,2Z"/>
</svg>