<?xml version="1.0" encoding="UTF-8"?>
<svg id="OBJECT" xmlns="http://www.w3.org/2000/svg" viewBox="0 0 32 32">
  <defs>
    <style>
      .cls-1 {
        fill: #FD4360;
      }

      .cls-1, .cls-2 {
        stroke-width: 0px;
      }

      .cls-2 {
        fill: #dadada;
      }
    </style>
  </defs>
  <g>
    <path class="cls-2" d="m27.29,13.35c-.51-.22-1.1.02-1.31.52-.28.66-.71,1.29-1.24,1.82l-12.79,12.79c-.7.7-1.83.7-2.53,0l-5.9-5.9c-.7-.7-.7-1.83,0-2.53l12.79-12.79c.52-.53,1.15-.95,1.82-1.24.51-.22.74-.81.52-1.31-.22-.51-.8-.74-1.31-.52-.91.39-1.73.95-2.44,1.66L2.11,18.64c-1.48,1.48-1.48,3.88,0,5.35l5.9,5.9c.74.74,1.71,1.11,2.68,1.11s1.94-.37,2.68-1.11l12.79-12.79c.71-.71,1.27-1.54,1.66-2.44.22-.51-.02-1.1-.52-1.31Z"/>
    <path class="cls-2" d="m16.59,20.35c.26,0,.51-.1.71-.29.39-.39.39-1.02,0-1.41l-3.94-3.94c-.39-.39-1.02-.39-1.41,0s-.39,1.02,0,1.41l3.94,3.94c.2.2.45.29.71.29Z"/>
    <path class="cls-2" d="m9.49,18.15c-.39.39-.39,1.02,0,1.41l2.95,2.95c.2.2.45.29.71.29s.51-.1.71-.29c.39-.39.39-1.02,0-1.41l-2.95-2.95c-.39-.39-1.02-.39-1.41,0Z"/>
  </g>
  <g>
    <path class="cls-1" d="m18.18,7.48l-.33.33c-1.75,1.75-1.75,4.59,0,6.33.87.87,2.02,1.31,3.17,1.31s2.29-.44,3.17-1.31l.33-.33c-.73-1.3-1.63-2.52-2.73-3.61s-2.31-2-3.61-2.73Z"/>
    <path class="cls-1" d="m30.1,3.87l-1.97-1.97c-1.2-1.2-3.16-1.2-4.37,0l-4.11,4.11c1.28.77,2.47,1.7,3.55,2.78,1.09,1.08,2.01,2.28,2.78,3.55l4.11-4.11c1.2-1.2,1.2-3.16,0-4.37Z"/>
  </g>
</svg>