<?xml version="1.0" encoding="UTF-8"?>
<svg id="OBJECT" xmlns="http://www.w3.org/2000/svg" viewBox="0 0 32 32">
  <defs>
    <style>
      .cls-1 {
        fill: #FD4360;
      }

      .cls-1, .cls-2 {
        stroke-width: 0px;
      }

      .cls-2 {
        fill: #dadada;
      }
    </style>
  </defs>
  <g>
    <path class="cls-2" d="m24.01,27.46c.92,0,1.79-.36,2.44-1.01.66-.66,1.01-1.53,1.01-2.46,0-.55-.45-1-1-1h0c-.55,0-1,.45-1,1,0,.39-.15.76-.42,1.04s-.64.42-1.03.42h-.01c-.55,0-1,.44-1,1,0,.55.44,1,1,1h.02Z"/>
    <path class="cls-2" d="m29.5,23.57h0c-.55,0-1,.45-1,1,0,1.05-.4,2.04-1.14,2.78s-1.72,1.14-2.76,1.14h-.03c-.55,0-1,.44-1,1,0,.55.44,1,1,1h.03c1.58,0,3.06-.61,4.18-1.73,1.12-1.12,1.73-2.62,1.73-4.21,0-.55-.45-1-1-1Z"/>
    <path class="cls-2" d="m7.99,4.54c-.92,0-1.79.36-2.44,1.01-.66.66-1.01,1.53-1.01,2.46,0,.55.45,1,1,1h0c.55,0,1-.45,1-1,0-.39.15-.76.42-1.04.27-.27.64-.42,1.03-.42,0,0,0,0,.01,0,.55,0,1-.44,1-1,0-.55-.44-1-1-1h-.02Z"/>
    <path class="cls-2" d="m2.5,8.43h0c.55,0,1-.45,1-1,0-1.05.4-2.04,1.14-2.78.74-.74,1.72-1.14,2.76-1.14,0,0,.01,0,.02,0,.55,0,1-.44,1-1,0-.55-.44-1-1-1-1.55-.02-3.09.61-4.21,1.73s-1.73,2.61-1.73,4.21c0,.55.45,1,1,1Z"/>
    <path class="cls-2" d="m30.71,8.85l-7.55-7.55c-.39-.39-1.02-.39-1.41,0l-3.83,3.82-.8-.8c-.38-.38-1.04-.38-1.41,0L2.86,17.15c-1.2,1.2-1.86,2.79-1.86,4.48s.66,3.29,1.86,4.48l3.02,3.02c1.2,1.2,2.79,1.86,4.48,1.86s3.29-.66,4.48-1.86l12.84-12.84c.39-.39.39-1.02,0-1.41l-.8-.8,3.83-3.82c.19-.19.29-.44.29-.71s-.11-.52-.29-.71ZM13.43,27.73c-.82.82-1.91,1.27-3.07,1.27s-2.25-.45-3.07-1.27l-3.02-3.02c-.82-.82-1.27-1.91-1.27-3.07s.45-2.25,1.27-3.07l9.11-9.11,9.16,9.16-9.11,9.11Zm10.53-10.53l-9.16-9.16,1.61-1.61,9.16,9.16-1.61,1.61Zm1.51-4.53l-6.14-6.14,3.12-3.12,6.14,6.14-3.12,3.12Z"/>
    <path class="cls-2" d="m21.55,6.01c-.39.39-.39,1.02,0,1.41.2.2.45.29.71.29s.51-.1.71-.29l.38-.38c.39-.39.39-1.02,0-1.41s-1.02-.39-1.41,0l-.38.38Z"/>
    <path class="cls-2" d="m25.28,10.74c.26,0,.51-.1.71-.29l.38-.38c.39-.39.39-1.02,0-1.41-.39-.39-1.02-.39-1.42,0l-.38.38c-.39.39-.39,1.02,0,1.41.2.2.45.29.71.29Z"/>
  </g>
  <g>
    <path class="cls-1" d="m15.41,13.19c-.39-.39-1.02-.39-1.41,0s-.39,1.02,0,1.41l.38.38c.2.2.45.29.71.29s.51-.1.71-.29c.39-.39.39-1.02,0-1.41l-.38-.38Z"/>
    <path class="cls-1" d="m18.81,16.59l-.38-.38c-.39-.39-1.02-.39-1.42,0-.39.39-.39,1.02,0,1.41l.38.38c.2.2.45.29.71.29s.51-.1.71-.29c.39-.39.39-1.02,0-1.41Z"/>
    <path class="cls-1" d="m10.74,16.26c-2.76,0-5,2.24-5,5s2.24,5,5,5,5-2.24,5-5-2.24-5-5-5Zm1.29,6.12c-.2.2-.45.29-.71.29s-.51-.1-.71-.29l-1-1c-.39-.39-.39-1.02,0-1.41s1.02-.39,1.41,0l1,1c.39.39.39,1.02,0,1.41Z"/>
  </g>
</svg>