<?xml version="1.0" encoding="UTF-8"?>
<svg id="OBJECT" xmlns="http://www.w3.org/2000/svg" viewBox="0 0 512 512">
  <defs>
    <style>
      .cls-1 {
        fill: #FD4360;
      }

      .cls-2 {
        fill: #dadada;
      }
    </style>
  </defs>
  <g>
    <path class="cls-2" d="M261.17,165h44.28v33.71c0,3.32-2.23,6.29-5.43,7.21l-32.6,9.38c-3.98,1.15-6.28,5.3-5.13,9.28,.95,3.29,3.95,5.43,7.2,5.43,.69,0,1.38-.09,2.08-.29l32.6-9.38c9.58-2.76,16.28-11.65,16.28-21.62v-33.71h31.55v55c0,4.14,3.36,7.5,7.5,7.5s7.5-3.36,7.5-7.5v-55h31.55v33.71c0,9.97,6.69,18.87,16.28,21.62l32.6,9.38c.69,.2,1.39,.29,2.08,.29,3.26,0,6.26-2.14,7.2-5.43,1.14-3.98-1.15-8.14-5.13-9.28l-32.6-9.38c-3.19-.92-5.43-3.88-5.43-7.21v-33.71h44.28c18.84,0,34.17-15.33,34.17-34.17s-15.33-34.17-34.17-34.17h-7.82c-4.75-12.89-15.84-22.7-29.18-25.71-10.43-24.68-34.54-40.96-61.34-40.96s-50.91,16.28-61.34,40.96c-13.33,3-24.42,12.81-29.18,25.71h-7.82c-18.84,0-34.17,15.33-34.17,34.17s15.33,34.17,34.17,34.17Zm0-53.33h13.47c3.57,0,6.65-2.52,7.35-6.03,2.2-10.99,11.4-19.42,22.37-20.51,2.91-.29,5.39-2.25,6.35-5.01,7.26-21,26.87-35.11,48.79-35.11s41.53,14.11,48.79,35.11c.96,2.77,3.43,4.72,6.35,5.01,10.97,1.09,20.17,9.53,22.37,20.51,.7,3.5,3.78,6.03,7.35,6.03h13.47c10.57,0,19.17,8.6,19.17,19.17s-8.6,19.17-19.17,19.17h-196.67c-10.57,0-19.17-8.6-19.17-19.17s8.6-19.17,19.17-19.17Z"/>
    <path class="cls-2" d="M359.5,233.75c-4.14,0-7.5,3.36-7.5,7.5v6.25c0,4.14,3.36,7.5,7.5,7.5s7.5-3.36,7.5-7.5v-6.25c0-4.14-3.36-7.5-7.5-7.5Z"/>
    <path class="cls-2" d="M336.47,125h6.58c4.14,0,7.5-3.36,7.5-7.5s-3.36-7.5-7.5-7.5h-6.58c-4.14,0-7.5,3.36-7.5,7.5s3.36,7.5,7.5,7.5Z"/>
    <path class="cls-2" d="M375.95,125h6.58c4.14,0,7.5-3.36,7.5-7.5s-3.36-7.5-7.5-7.5h-6.58c-4.14,0-7.5,3.36-7.5,7.5s3.36,7.5,7.5,7.5Z"/>
    <path class="cls-2" d="M504.5,307h-99.64c-1.25-11.23-10.8-20-22.36-20H22.5c-12.41,0-22.5,10.09-22.5,22.5v180c0,12.41,10.09,22.5,22.5,22.5H382.5c11.56,0,21.11-8.77,22.36-20h99.64c4.14,0,7.5-3.36,7.5-7.5v-170c0-4.14-3.36-7.5-7.5-7.5Zm-159.5-5v195H60v-195H345ZM15,489.5v-180c0-4.14,3.36-7.5,7.5-7.5h22.5v195H22.5c-4.14,0-7.5-3.36-7.5-7.5Zm375,0c0,4.14-3.36,7.5-7.5,7.5h-22.5v-195h22.5c4.14,0,7.5,3.36,7.5,7.5v180Zm107-12.5h-92v-155h92v155Z"/>
    <path class="cls-2" d="M443.5,392h15c9.65,0,17.5-7.85,17.5-17.5v-20c0-9.65-7.85-17.5-17.5-17.5h-15c-9.65,0-17.5,7.85-17.5,17.5v20c0,9.65,7.85,17.5,17.5,17.5Zm-2.5-37.5c0-1.38,1.12-2.5,2.5-2.5h15c1.38,0,2.5,1.12,2.5,2.5v20c0,1.38-1.12,2.5-2.5,2.5h-15c-1.38,0-2.5-1.12-2.5-2.5v-20Z"/>
    <path class="cls-2" d="M443.5,462h15c9.65,0,17.5-7.85,17.5-17.5v-20c0-9.65-7.85-17.5-17.5-17.5h-15c-9.65,0-17.5,7.85-17.5,17.5v20c0,9.65,7.85,17.5,17.5,17.5Zm-2.5-37.5c0-1.38,1.12-2.5,2.5-2.5h15c1.38,0,2.5,1.12,2.5,2.5v20c0,1.38-1.12,2.5-2.5,2.5h-15c-1.38,0-2.5-1.12-2.5-2.5v-20Z"/>
    <path class="cls-2" d="M102.5,362h200c9.65,0,17.5-7.85,17.5-17.5v-10c0-9.65-7.85-17.5-17.5-17.5H102.5c-9.65,0-17.5,7.85-17.5,17.5v10c0,9.65,7.85,17.5,17.5,17.5Zm-2.5-27.5c0-1.38,1.12-2.5,2.5-2.5h200c1.38,0,2.5,1.12,2.5,2.5v10c0,1.38-1.12,2.5-2.5,2.5H102.5c-1.38,0-2.5-1.12-2.5-2.5v-10Z"/>
    <path class="cls-2" d="M102.5,422h200c9.65,0,17.5-7.85,17.5-17.5v-10c0-9.65-7.85-17.5-17.5-17.5H102.5c-9.65,0-17.5,7.85-17.5,17.5v10c0,9.65,7.85,17.5,17.5,17.5Zm-2.5-27.5c0-1.38,1.12-2.5,2.5-2.5h200c1.38,0,2.5,1.12,2.5,2.5v10c0,1.38-1.12,2.5-2.5,2.5H102.5c-1.38,0-2.5-1.12-2.5-2.5v-10Z"/>
    <path class="cls-2" d="M102.5,482h200c9.65,0,17.5-7.85,17.5-17.5v-10c0-9.65-7.85-17.5-17.5-17.5H102.5c-9.65,0-17.5,7.85-17.5,17.5v10c0,9.65,7.85,17.5,17.5,17.5Zm-2.5-27.5c0-1.38,1.12-2.5,2.5-2.5h200c1.38,0,2.5,1.12,2.5,2.5v10c0,1.38-1.12,2.5-2.5,2.5H102.5c-1.38,0-2.5-1.12-2.5-2.5v-10Z"/>
  </g>
  <g>
    <path class="cls-1" d="M185.57,26.48c-2.77-3.08-7.52-3.32-10.59-.54s-3.32,7.52-.54,10.59c5.37,5.95,5.37,16,0,21.95-2.77,3.08-2.53,7.82,.54,10.59,1.43,1.29,3.23,1.93,5.02,1.93,2.05,0,4.09-.83,5.57-2.48,10.64-11.79,10.64-30.26,0-42.05Z"/>
    <path class="cls-1" d="M205.62,2.48c-2.77-3.08-7.52-3.32-10.59-.54-3.08,2.77-3.32,7.52-.54,10.59,17.4,19.29,17.4,50.67,0,69.95-2.77,3.08-2.53,7.82,.54,10.59,1.43,1.29,3.23,1.93,5.02,1.93,2.05,0,4.09-.83,5.57-2.48,22.4-24.83,22.4-65.22,0-90.05Z"/>
    <path class="cls-1" d="M50.02,25.93c-3.08-2.77-7.82-2.53-10.59,.54-10.64,11.79-10.64,30.26,0,42.05,1.48,1.64,3.52,2.48,5.57,2.48,1.79,0,3.59-.64,5.02-1.93,3.08-2.77,3.32-7.52,.54-10.59-5.37-5.95-5.37-16,0-21.95,2.77-3.08,2.53-7.82-.54-10.59Z"/>
    <path class="cls-1" d="M30.52,12.52c2.77-3.08,2.53-7.82-.54-10.59-3.08-2.78-7.82-2.53-10.59,.54C-3.02,27.3-3.02,67.7,19.38,92.52c1.48,1.64,3.52,2.48,5.57,2.48,1.79,0,3.59-.64,5.02-1.93,3.08-2.77,3.32-7.52,.54-10.59C13.12,63.19,13.12,31.81,30.52,12.52Z"/>
    <path class="cls-1" d="M152.5,227H72.5c-4.14,0-7.5,3.36-7.5,7.5v37.5h95v-37.5c0-4.14-3.36-7.5-7.5-7.5Zm-35,30h-10c-4.14,0-7.5-3.36-7.5-7.5s3.36-7.5,7.5-7.5h10c4.14,0,7.5,3.36,7.5,7.5s-3.36,7.5-7.5,7.5Z"/>
    <path class="cls-1" d="M112.5,110c-6.07,0-11.94-.89-17.5-2.51v104.51h35V107.49c-5.56,1.62-11.43,2.51-17.5,2.51Z"/>
    <circle class="cls-1" cx="112.5" cy="47.5" r="47.5"/>
  </g>
</svg>