<?xml version="1.0" encoding="UTF-8"?>
<svg id="OBJECT" xmlns="http://www.w3.org/2000/svg" viewBox="0 0 32 32">
  <defs>
    <style>
      .cls-1 {
        fill: #FD4360;
      }

      .cls-2 {
        fill: #dadada;
      }
    </style>
  </defs>
  <path class="cls-2" d="M29.86,6.62l-.83-.66c-.43-.35-1.06-.27-1.4,.16-.34,.43-.27,1.06,.16,1.4l.83,.66c.24,.19,.38,.48,.38,.79V28c0,.55-.45,1-1,1h-7.88l1.28-2.55c.1-.21,.13-.44,.08-.66l-1.96-8.83,.25-2.11c.06-.55-.33-1.05-.88-1.11-.55-.06-1.05,.33-1.11,.88l-.17,1.4h-3.22l-.17-1.4c-.07-.55-.57-.93-1.11-.88-.55,.06-.94,.56-.88,1.11l.25,2.11-1.96,8.83c-.05,.22-.02,.46,.08,.66l1.28,2.55H4c-.55,0-1-.45-1-1V8.97c0-.3,.14-.6,.38-.79l.83-.66c.43-.34,.5-.97,.16-1.4-.34-.43-.97-.51-1.4-.16l-.83,.66c-.72,.57-1.14,1.43-1.14,2.35V28c0,1.65,1.35,3,3,3H28c1.65,0,3-1.35,3-3V8.97c0-.92-.42-1.78-1.14-2.35ZM12.55,25.87l1.75-7.87h3.4l1.75,7.87-1.56,3.13h-3.76l-1.56-3.13Z"/>
  <g>
    <path class="cls-1" d="M23,1H9c-.12,0-.25,.02-.36,.07l7.36,8.41L23.36,1.07c-.11-.04-.24-.07-.36-.07Z"/>
    <path class="cls-1" d="M5.31,4.1c-.32,.3-.4,.77-.21,1.16l3.06,6.35c.35,.73,.96,1.27,1.73,1.53s1.58,.21,2.31-.15l2.95-1.46L7.13,2.39l-1.82,1.72Z"/>
    <path class="cls-1" d="M26.69,4.1l-1.82-1.72-8.01,9.15,2.95,1.46c.42,.21,.87,.31,1.33,.31,.33,0,.66-.05,.98-.17,.76-.26,1.38-.81,1.73-1.53l3.06-6.35c.19-.39,.1-.86-.21-1.16Z"/>
  </g>
</svg>