<?xml version="1.0" encoding="UTF-8"?>
<svg id="OBJECT" xmlns="http://www.w3.org/2000/svg" viewBox="0 0 32 32">
  <defs>
    <style>
      .cls-1 {
        fill: #FD4360;
      }

      .cls-1, .cls-2 {
        stroke-width: 0px;
      }

      .cls-2 {
        fill: #dadada;
      }
    </style>
  </defs>
  <path class="cls-2" d="m16,11c-.51,0-1.01.05-1.5.13v-2.63c0-.83.67-1.5,1.5-1.5s1.5.67,1.5,1.5.67,1.5,1.5,1.5h2.5c.83,0,1.5-.67,1.5-1.5v-.5c0-3.86-3.14-7-7-7s-7,3.14-7,7v5.87c-1.85,1.82-3,4.34-3,7.13,0,5.51,4.49,10,10,10s10-4.49,10-10-4.49-10-10-10Zm-5-3c0-2.76,2.24-5,5-5s5,2.24,5,5h-1.54c-.24-1.69-1.71-3-3.46-3-1.93,0-3.5,1.57-3.5,3.5v3.14c-.52.2-1.02.43-1.5.71v-4.35Zm5,21c-4.41,0-8-3.59-8-8s3.59-8,8-8,8,3.59,8,8-3.59,8-8,8Z"/>
  <g>
    <path class="cls-1" d="m30,20h-1c-.55,0-1,.45-1,1s.45,1,1,1h1c.55,0,1-.45,1-1s-.45-1-1-1Z"/>
    <path class="cls-1" d="m28,18.25c.17,0,.34-.04.5-.13l.87-.5c.48-.28.64-.89.37-1.37-.28-.48-.89-.64-1.37-.37l-.87.5c-.48.28-.64.89-.37,1.37.19.32.52.5.87.5Z"/>
    <path class="cls-1" d="m29.37,24.38l-.87-.5c-.48-.28-1.09-.11-1.37.37s-.11,1.09.37,1.37l.87.5c.16.09.33.13.5.13.35,0,.68-.18.87-.5.28-.48.11-1.09-.37-1.37Z"/>
    <path class="cls-1" d="m4,21c0-.55-.45-1-1-1h-1c-.55,0-1,.45-1,1s.45,1,1,1h1c.55,0,1-.45,1-1Z"/>
    <path class="cls-1" d="m4.5,16.38l-.87-.5c-.48-.28-1.09-.11-1.37.37s-.11,1.09.37,1.37l.87.5c.16.09.33.13.5.13.35,0,.68-.18.87-.5.28-.48.11-1.09-.37-1.37Z"/>
    <path class="cls-1" d="m3.5,23.88l-.87.5c-.48.28-.64.89-.37,1.37.19.32.52.5.87.5.17,0,.34-.04.5-.13l.87-.5c.48-.28.64-.89.37-1.37s-.89-.64-1.37-.37Z"/>
    <path class="cls-1" d="m15.08,18.33h3.67c.55,0,1-.45,1-1s-.45-1-1-1h-1.75v-.83c0-.55-.45-1-1-1s-1,.45-1,1v.84c-1.52.05-2.75,1.29-2.75,2.83s1.27,2.83,2.83,2.83h1.83c.46,0,.83.37.83.83s-.37.83-.83.83h-3.67c-.55,0-1,.45-1,1s.45,1,1,1h1.75v.83c0,.55.45,1,1,1s1-.45,1-1v-.84c1.52-.05,2.75-1.29,2.75-2.83s-1.27-2.83-2.83-2.83h-1.83c-.46,0-.83-.37-.83-.83s.37-.83.83-.83Z"/>
  </g>
</svg>