<?xml version="1.0" encoding="UTF-8"?>
<svg id="OBJECT" xmlns="http://www.w3.org/2000/svg" viewBox="0 0 32 32">
  <defs>
    <style>
      .cls-1 {
        fill: #FD4360;
      }

      .cls-1, .cls-2 {
        stroke-width: 0px;
      }

      .cls-2 {
        fill: #dadada;
      }
    </style>
  </defs>
  <g>
    <path class="cls-2" d="m16,9c-6.07,0-11,4.93-11,11s4.93,11,11,11,11-4.93,11-11-4.93-11-11-11Zm0,20c-4.96,0-9-4.04-9-9s4.04-9,9-9,9,4.04,9,9-4.04,9-9,9Z"/>
    <path class="cls-2" d="m15.08,17.33h3.67c.55,0,1-.45,1-1s-.45-1-1-1h-1.75v-.83c0-.55-.45-1-1-1s-1,.45-1,1v.84c-1.52.05-2.75,1.29-2.75,2.82s1.27,2.83,2.83,2.83h1.83c.46,0,.83.37.83.83s-.37.83-.83.83h-3.67c-.55,0-1,.45-1,1s.45,1,1,1h1.75v.83c0,.55.45,1,1,1s1-.45,1-1v-.84c1.52-.05,2.75-1.29,2.75-2.82s-1.27-2.83-2.83-2.83h-1.83c-.46,0-.83-.37-.83-.83s.37-.83.83-.83Z"/>
    <path class="cls-2" d="m21,20c0,.55.45,1,1,1h.5c.55,0,1-.45,1-1s-.45-1-1-1h-.5c-.55,0-1,.45-1,1Z"/>
    <path class="cls-2" d="m10,19h-.5c-.55,0-1,.45-1,1s.45,1,1,1h.5c.55,0,1-.45,1-1s-.45-1-1-1Z"/>
    <path class="cls-2" d="m30.71,10.29c-.39-.39-1.02-.39-1.41,0l-2.4,2.4c-.39.39-.39,1.02,0,1.41.2.2.45.29.71.29s.51-.1.71-.29l2.4-2.4c.39-.39.39-1.02,0-1.41Z"/>
    <path class="cls-2" d="m25.6,11.4c.26,0,.51-.1.71-.29l1.4-1.4c.39-.39.39-1.02,0-1.41s-1.02-.39-1.41,0l-1.4,1.4c-.39.39-.39,1.02,0,1.41.2.2.45.29.71.29Z"/>
    <path class="cls-2" d="m5.11,12.7l-2.4-2.4c-.39-.39-1.02-.39-1.41,0s-.39,1.02,0,1.41l2.4,2.4c.2.2.45.29.71.29s.51-.1.71-.29c.39-.39.39-1.02,0-1.41Z"/>
    <path class="cls-2" d="m5.7,11.11c.2.2.45.29.71.29s.51-.1.71-.29c.39-.39.39-1.02,0-1.41l-1.4-1.4c-.39-.39-1.02-.39-1.41,0s-.39,1.02,0,1.41l1.4,1.4Z"/>
  </g>
  <path class="cls-1" d="m10.05,7.17l.45-.3v2.37c1.67-.79,3.53-1.24,5.5-1.24s3.83.45,5.5,1.24v-2.37l.45.3c.46.31,1.08.18,1.39-.28.31-.46.18-1.08-.28-1.39l-6.5-4.33c-.17-.11-.36-.17-.55-.17s-.39.06-.55.17l-6.5,4.33c-.46.31-.58.93-.28,1.39.31.46.93.59,1.39.28Zm4.95-2.17c0-.55.45-1,1-1s1,.45,1,1v1c0,.55-.45,1-1,1s-1-.45-1-1v-1Z"/>
</svg>