<?xml version="1.0" encoding="UTF-8"?>
<svg id="OBJECT" xmlns="http://www.w3.org/2000/svg" viewBox="0 0 32 32">
  <defs>
    <style>
      .cls-1 {
        fill: #FD4360;
      }

      .cls-1, .cls-2 {
        stroke-width: 0px;
      }

      .cls-2 {
        fill: #dadada;
      }
    </style>
  </defs>
  <g>
    <path class="cls-2" d="m27,13h-1c0-2.48-2.02-4.5-4.5-4.5-.1,0-.2,0-.31.01-1.42-2.93-4.52-4.73-7.82-4.49-3.69.28-6.83,3.27-7.31,6.95-.09.68-.08,1.35,0,2.02h-1.07c-2.21,0-4,1.79-4,4s1.79,4,4,4h2.53c.55,0,1-.45,1-1s-.45-1-1-1h-2.53c-1.1,0-2-.9-2-2s.9-2,2-2h4c.55,0,1-.45,1-1s-.45-1-1-1h-.91c-.1-.58-.12-1.18-.04-1.77.36-2.76,2.71-5,5.48-5.21,2.69-.2,5.21,1.42,6.12,3.96.18.49.7.77,1.2.63.26-.07.46-.1.66-.1,1.38,0,2.5,1.12,2.5,2.5,0,.21-.04.44-.12.71-.09.3-.03.63.16.88.19.25.49.4.8.4h2.16c1.1,0,2,.9,2,2s-.9,2-2,2h-2.53c-.55,0-1,.45-1,1s.45,1,1,1h2.53c2.21,0,4-1.79,4-4s-1.79-4-4-4Z"/>
    <path class="cls-2" d="m16.29,8.64h-4.58c-.55,0-1,.45-1,1s.45,1,1,1h4.58c.55,0,1-.45,1-1s-.45-1-1-1Z"/>
  </g>
  <path class="cls-1" d="m16,15c-3.58,0-6.5,2.92-6.5,6.5s2.92,6.5,6.5,6.5,6.5-2.92,6.5-6.5-2.92-6.5-6.5-6.5Zm3.02,7.87l-2.31,2.33c-.19.19-.44.3-.71.3s-.52-.11-.71-.3l-2.31-2.33c-.39-.39-.38-1.03,0-1.41.39-.39,1.03-.38,1.41,0l.6.6v-3.57c0-.55.45-1,1-1s1,.45,1,1v3.57l.6-.6c.39-.39,1.02-.4,1.41,0,.39.39.4,1.02,0,1.41Z"/>
</svg>