<?xml version="1.0" encoding="UTF-8"?>
<svg id="OBJECT" xmlns="http://www.w3.org/2000/svg" viewBox="0 0 32 32">
  <defs>
    <style>
      .cls-1 {
        fill: #FD4360;
      }

      .cls-1, .cls-2 {
        stroke-width: 0px;
      }

      .cls-2 {
        fill: #dadada;
      }
    </style>
  </defs>
  <g>
    <path class="cls-2" d="m16,11c-4.69,0-8.5,3.81-8.5,8.5s3.81,8.5,8.5,8.5,8.5-3.81,8.5-8.5-3.81-8.5-8.5-8.5Zm0,15c-3.58,0-6.5-2.92-6.5-6.5s2.92-6.5,6.5-6.5,6.5,2.92,6.5,6.5-2.92,6.5-6.5,6.5Z"/>
    <path class="cls-2" d="m16.72,14.81c-.38-.39-1.06-.39-1.44,0l-3,3.11c-.38.4-.37,1.03.03,1.41.4.38,1.03.37,1.41-.03l1.28-1.33v5.52c0,.55.45,1,1,1s1-.45,1-1v-5.52l1.28,1.33c.2.2.46.31.72.31s.5-.09.69-.28c.4-.38.41-1.02.03-1.41l-3-3.11Z"/>
  </g>
  <path class="cls-1" d="m27.38,13.02c-.39-1.53-1.66-2.71-3.24-2.97-1.07-3.55-4.37-6.05-8.14-6.05s-7.07,2.5-8.14,6.05c-1.58.26-2.85,1.44-3.24,2.97-2.03.19-3.62,1.9-3.62,3.98,0,2.21,1.79,4,4,4h.62c-.07-.49-.12-.99-.12-1.5,0-5.79,4.71-10.5,10.5-10.5s10.5,4.71,10.5,10.5c0,.51-.05,1.01-.12,1.5h.62c2.21,0,4-1.79,4-4,0-2.08-1.59-3.79-3.62-3.98Z"/>
</svg>