<?xml version="1.0" encoding="UTF-8"?>
<svg id="OBJECT" xmlns="http://www.w3.org/2000/svg" viewBox="0 0 32 32">
  <defs>
    <style>
      .cls-1 {
        fill: #FD4360;
      }

      .cls-1, .cls-2 {
        stroke-width: 0px;
      }

      .cls-2 {
        fill: #dadada;
      }
    </style>
  </defs>
  <g>
    <path class="cls-2" d="m13.98,6.99h-1c-.55,0-1,.45-1,1s.45,1,1,1h1c.55,0,1-.45,1-1s-.45-1-1-1Z"/>
    <path class="cls-2" d="m26.63,7.04c-.8-2.12-2.81-3.54-5.13-3.54-.86,0-1.72.2-2.48.59-.43.21-1.05.21-1.37-.23C15.58,1.02,11.82.19,8.52,1.84c-2,1-3.31,3-3.5,5.26-2.28.46-4.01,2.48-4.01,4.9,0,2.76,2.24,5,5,5,.55,0,1-.45,1-1s-.45-1-1-1c-1.65,0-3-1.35-3-3s1.34-3,3-3h3.97c.55-.01,1-.46,1-1.01s-.45-1-1-1h-2.91c.22-1.45,1.08-2.71,2.36-3.36,2.83-1.41,5.36-.31,6.62,1.41.87,1.19,2.5,1.54,3.89.83.49-.25,1.02-.38,1.58-.38,1.64,0,3.04,1.12,3.4,2.72.1.46.51.78.98.78h.13c1.65,0,3,1.35,3,3s-1.35,3-3,3c-.55,0-1,.45-1,1s.45,1,1,1c2.76,0,5-2.24,5-5,0-2.54-1.91-4.65-4.37-4.96Z"/>
  </g>
  <g>
    <path class="cls-1" d="m14.43,19.91v5.18c0,.3.24.54.54.54h2.06c.3,0,.54-.24.54-.54v-5.18l-1.57-1.26-1.57,1.26Z"/>
    <path class="cls-1" d="m16,13c-4.96,0-9,4.04-9,9s4.04,9,9,9,9-4.04,9-9-4.04-9-9-9Zm6.12,9.26c-.35.43-.98.5-1.41.16l-1.13-.91v3.58c0,1.4-1.14,2.54-2.54,2.54h-2.06c-1.4,0-2.54-1.14-2.54-2.54v-3.58l-1.13.91c-.43.34-1.06.28-1.41-.16-.35-.43-.28-1.06.16-1.41l2.76-2.21s0,0,0,0l2.57-2.06c.18-.15.4-.22.62-.22s.44.07.62.22l5.33,4.27c.43.35.5.97.16,1.41Z"/>
  </g>
</svg>