<?xml version="1.0" encoding="UTF-8"?>
<svg id="OBJECT" xmlns="http://www.w3.org/2000/svg" viewBox="0 0 32 32">
  <defs>
    <style>
      .cls-1 {
        fill: #FD4360;
      }

      .cls-2 {
        fill: #dadada;
      }
    </style>
  </defs>
  <path class="cls-2" d="M28,31H4c-1.65,0-3-1.35-3-3v-7c0-.55,.45-1,1-1H6c.55,0,1,.45,1,1v4H25v-4c0-.55,.45-1,1-1h4c.55,0,1,.45,1,1v7c0,1.65-1.35,3-3,3ZM3,22v6c0,.55,.45,1,1,1H28c.55,0,1-.45,1-1v-6h-2v4c0,.55-.45,1-1,1H6c-.55,0-1-.45-1-1v-4H3Z"/>
  <path class="cls-1" d="M9,11h3.5v10c0,.55,.45,1,1,1h5c.55,0,1-.45,1-1V11h3.5c.38,0,.73-.21,.89-.55s.13-.74-.09-1.05l-5.4-7.2c-.56-.75-1.46-1.2-2.4-1.2s-1.84,.45-2.4,1.2l-5.4,7.2c-.23,.3-.26,.71-.09,1.05s.52,.55,.89,.55Z"/>
</svg>