<?xml version="1.0" encoding="UTF-8"?>
<svg id="OBJECT" xmlns="http://www.w3.org/2000/svg" viewBox="0 0 32 32">
  <defs>
    <style>
      .cls-1 {
        fill: #FD4360;
      }

      .cls-1, .cls-2 {
        stroke-width: 0px;
      }

      .cls-2 {
        fill: #dadada;
      }
    </style>
  </defs>
  <g>
    <path class="cls-2" d="m24,1h-4c-2.21,0-4,1.79-4,4v22c0,1.1-.9,2-2,2h-4.5c-1.1,0-2-.9-2-2v-6h1.5c1.65,0,3-1.35,3-3v-10c0-.55-.45-1-1-1V2c0-.55-.45-1-1-1H3c-.55,0-1,.45-1,1v5c-.55,0-1,.45-1,1v10c0,1.65,1.35,3,3,3h1.5v6c0,2.21,1.79,4,4,4h4.5c2.21,0,4-1.79,4-4V5c0-1.1.9-2,2-2h4c1.1,0,2,.9,2,2v9c0,.55.45,1,1,1s1-.45,1-1V5c0-2.21-1.79-4-4-4Zm-14,8v6H3v-6h7ZM4,3h5v4h-5V3Zm-1,15v-1h7v1c0,.55-.45,1-1,1h-5c-.55,0-1-.45-1-1Z"/>
    <path class="cls-2" d="m7.5,4h-2c-.55,0-1,.45-1,1s.45,1,1,1h2c.55,0,1-.45,1-1s-.45-1-1-1Z"/>
  </g>
  <g>
    <path class="cls-1" d="m29,16h-4c-1.1,0-2,.9-2,2v1h8v-1c0-1.1-.9-2-2-2Z"/>
    <rect class="cls-1" x="23" y="21" width="8" height="4"/>
    <rect class="cls-1" x="24" y="27" width="6" height="4"/>
  </g>
</svg>