<?xml version="1.0" encoding="UTF-8"?>
<svg id="OBJECT" xmlns="http://www.w3.org/2000/svg" viewBox="0 0 32 32">
  <defs>
    <style>
      .cls-1 {
        fill: #FD4360;
      }

      .cls-2 {
        fill: #dadada;
      }
    </style>
  </defs>
  <path class="cls-2" d="M22.7,22.28l-3.7-3.7c-.23-.23-.54-.33-.86-.28-.31,.05-.59,.24-.73,.53-.4,.78-.93,1.5-1.57,2.13-2.35,2.35-5.38,2.85-6.51,1.72-1.13-1.13-.63-4.15,1.72-6.51,.64-.64,1.36-1.17,2.14-1.57,.28-.15,.48-.42,.53-.73,.05-.31-.06-.63-.28-.86l-3.7-3.7c-.31-.31-.8-.38-1.19-.17-1.25,.68-2.39,1.53-3.38,2.53C.21,16.6-.41,24.04,3.78,28.22c1.87,1.87,4.38,2.78,7.02,2.78,3.29,0,6.8-1.41,9.54-4.15,1-1,1.85-2.13,2.53-3.38,.21-.39,.14-.87-.17-1.19ZM8.85,11.26l2.26,2.26c-.52,.36-1.02,.78-1.48,1.24-.23,.23-.44,.46-.64,.7l-2.4-2.4c.68-.68,1.44-1.28,2.27-1.79Zm-3.66,15.55c-3.02-3.02-2.87-8.19,.09-12.23l2.55,2.55c-1.45,2.59-1.51,5.38,.08,6.97,1.59,1.59,4.38,1.53,6.97,.08l2.55,2.55c-4.04,2.96-9.21,3.11-12.23,.09Zm13.76-1.4l-2.4-2.4c.24-.2,.47-.41,.7-.64,.46-.46,.87-.95,1.24-1.48l2.26,2.26c-.51,.82-1.11,1.58-1.79,2.27Z"/>
  <g>
    <path class="cls-1" d="M23,1c-4.41,0-8,3.59-8,8,0,1.26,.3,2.44,.82,3.5,.81-1.66,2.18-3.02,3.91-3.79-.14-.38-.23-.78-.23-1.21,0-1.93,1.57-3.5,3.5-3.5s3.5,1.57,3.5,3.5c0,.43-.09,.83-.23,1.21,1.73,.77,3.1,2.13,3.91,3.79,.52-1.06,.82-2.24,.82-3.5,0-4.41-3.59-8-8-8Z"/>
    <path class="cls-1" d="M24.99,10.37c-.57,.39-1.25,.63-1.99,.63s-1.43-.24-1.99-.63c-1.9,.67-3.3,2.23-3.8,4.14,1.46,1.53,3.51,2.49,5.79,2.49s4.33-.96,5.79-2.49c-.49-1.9-1.9-3.46-3.8-4.14Z"/>
    <circle class="cls-1" cx="23" cy="7.5" r="1.5"/>
  </g>
</svg>