<?xml version="1.0" encoding="UTF-8"?>
<svg id="OBJECT" xmlns="http://www.w3.org/2000/svg" viewBox="0 0 512 512">
  <defs>
    <style>
      .cls-1 {
        fill: #FD4360;
      }

      .cls-2 {
        fill: #dadada;
      }
    </style>
  </defs>
  <g>
    <path class="cls-2" d="M107.5,297C48.22,297,0,345.22,0,404.5s48.22,107.5,107.5,107.5,107.5-48.22,107.5-107.5-48.22-107.5-107.5-107.5Zm0,200c-34.5,0-64.65-18.99-80.55-47.07,9.87-17.42,25.3-31.29,43.56-39.29,2.94,17.77,18.4,31.36,36.99,31.36s34.05-13.6,36.99-31.36c18.25,8,33.69,21.87,43.56,39.29-15.9,28.08-46.05,47.07-80.55,47.07Zm-22.5-92.5v-45c0-4.14,3.36-7.5,7.5-7.5h30c4.14,0,7.5,3.36,7.5,7.5v45c0,12.41-10.09,22.5-22.5,22.5s-22.5-10.09-22.5-22.5Zm110.35,28.97c-12.47-17.6-30.1-31.26-50.35-38.82v-35.15c0-12.41-10.09-22.5-22.5-22.5h-30c-12.41,0-22.5,10.09-22.5,22.5v35.15c-20.25,7.56-37.88,21.22-50.35,38.82-3.01-9.12-4.65-18.86-4.65-28.97,0-51,41.5-92.5,92.5-92.5s92.5,41.5,92.5,92.5c0,10.12-1.64,19.85-4.65,28.97Z"/>
    <path class="cls-2" d="M404.5,297c-59.28,0-107.5,48.22-107.5,107.5s48.22,107.5,107.5,107.5,107.5-48.22,107.5-107.5-48.22-107.5-107.5-107.5Zm0,15c51,0,92.5,41.5,92.5,92.5,0,10.12-1.64,19.85-4.65,28.97-12.47-17.6-30.1-31.26-50.35-38.82v-35.15c0-12.41-10.09-22.5-22.5-22.5h-30c-12.41,0-22.5,10.09-22.5,22.5v35.15c-20.25,7.56-37.88,21.22-50.35,38.82-3.01-9.12-4.65-18.86-4.65-28.97,0-51,41.5-92.5,92.5-92.5Zm22.5,47.5v45c0,12.41-10.09,22.5-22.5,22.5s-22.5-10.09-22.5-22.5v-45c0-4.14,3.36-7.5,7.5-7.5h30c4.14,0,7.5,3.36,7.5,7.5Zm-22.5,137.5c-34.5,0-64.65-18.99-80.55-47.07,9.87-17.42,25.3-31.29,43.56-39.29,2.94,17.77,18.4,31.36,36.99,31.36s34.05-13.6,36.99-31.36c18.25,8,33.69,21.87,43.56,39.29-15.9,28.08-46.05,47.07-80.55,47.07Z"/>
    <path class="cls-2" d="M311.18,318.37l-36.18-34.58c-3.36-3.21-7.32-5.41-11.5-6.59v-19.69c0-4.14-3.36-7.5-7.5-7.5s-7.5,3.36-7.5,7.5v19.69c-4.18,1.19-8.14,3.38-11.5,6.59l-36.18,34.58c-3,2.86-3.1,7.61-.24,10.6s7.61,3.1,10.6,.24l36.18-34.58c4.84-4.63,12.43-4.63,17.28,0l36.18,34.58c1.45,1.39,3.32,2.08,5.18,2.08,1.98,0,3.95-.78,5.42-2.32,2.86-2.99,2.75-7.74-.24-10.6Z"/>
  </g>
  <g>
    <path class="cls-1" d="M256,0c-64.79,0-117.5,52.71-117.5,117.5,0,17.85,4.01,34.79,11.17,49.96,12.6-26.81,35.14-48.41,63.83-59.52v-40.44c0-15.16,12.34-27.5,27.5-27.5h30c15.16,0,27.5,12.34,27.5,27.5v40.44c28.69,11.11,51.23,32.71,63.83,59.52,7.16-15.17,11.17-32.1,11.17-49.96C373.5,52.71,320.79,0,256,0Z"/>
    <path class="cls-1" d="M283.5,112.5v-45c0-6.89-5.61-12.5-12.5-12.5h-30c-6.89,0-12.5,5.61-12.5,12.5v45c0,15.16,12.34,27.5,27.5,27.5s27.5-12.34,27.5-27.5Z"/>
    <path class="cls-1" d="M297.03,123.55c-4.88,18.09-21.42,31.45-41.03,31.45s-36.15-13.36-41.03-31.45c-26.57,11.58-46.59,33.68-55.82,60.39,21.2,30.81,56.71,51.06,96.86,51.06s75.65-20.25,96.86-51.06c-9.23-26.7-29.25-48.8-55.82-60.39Z"/>
  </g>
</svg>