<?xml version="1.0" encoding="UTF-8"?>
<svg id="OBJECT" xmlns="http://www.w3.org/2000/svg" viewBox="0 0 32 32">
  <defs>
    <style>
      .cls-1 {
        fill: #FD4360;
      }

      .cls-1, .cls-2 {
        stroke-width: 0px;
      }

      .cls-2 {
        fill: #dadada;
      }
    </style>
  </defs>
  <path class="cls-2" d="m25,24h-4.67l.99-2.38c3.38-1.88,5.67-5.48,5.67-9.62,0-6.07-4.93-11-11-11S5,5.93,5,12c0,4.13,2.29,7.74,5.67,9.62l.99,2.38h-4.67c-1.65,0-3,1.35-3,3v1c0,1.65,1.35,3,3,3h18c1.65,0,3-1.35,3-3v-1c0-1.65-1.35-3-3-3ZM7,12c0-4.96,4.04-9,9-9s9,4.04,9,9-4.04,9-9,9-9-4.04-9-9Zm9,11c.94,0,1.86-.13,2.73-.36l-.89,2.13c-.31.75-1.04,1.23-1.85,1.23s-1.54-.48-1.85-1.23l-.89-2.13c.88.23,1.79.36,2.73.36Zm10,5c0,.55-.45,1-1,1H7c-.55,0-1-.45-1-1v-1c0-.55.45-1,1-1h5.54c.71,1.23,2.01,2,3.46,2s2.75-.77,3.46-2h5.54c.55,0,1,.45,1,1v1Z"/>
  <g>
    <path class="cls-1" d="m20.46,11.77c-.82,1.65-2.5,2.79-4.46,2.79s-3.65-1.15-4.46-2.79c-.95,1.06-1.54,2.46-1.54,3.99v.5c0,1.38,1.12,2.5,2.5,2.5h7c1.38,0,2.5-1.12,2.5-2.5v-.5c0-1.53-.58-2.93-1.54-3.99Z"/>
    <path class="cls-1" d="m16,12.56c1.65,0,3-1.35,3-3v-1.2c0-1.43-1.17-2.6-2.6-2.6h-.8c-1.43,0-2.6,1.17-2.6,2.6v1.2c0,1.65,1.35,3,3,3Z"/>
  </g>
</svg>