<?xml version="1.0" encoding="UTF-8"?>
<svg id="OBJECT" xmlns="http://www.w3.org/2000/svg" viewBox="0 0 32 32">
  <defs>
    <style>
      .cls-1 {
        fill: #FD4360;
      }

      .cls-1, .cls-2 {
        stroke-width: 0px;
      }

      .cls-2 {
        fill: #dadada;
      }
    </style>
  </defs>
  <g>
    <path class="cls-2" d="m24.5,1c-3.58,0-6.5,2.92-6.5,6.5s2.92,6.5,6.5,6.5,6.5-2.92,6.5-6.5-2.92-6.5-6.5-6.5Zm0,11c-2.48,0-4.5-2.02-4.5-4.5s2.02-4.5,4.5-4.5,4.5,2.02,4.5,4.5-2.02,4.5-4.5,4.5Z"/>
    <path class="cls-2" d="m25.56,7.56c-.58.58-1.54.58-2.12,0-.39-.39-1.02-.39-1.41,0s-.39,1.02,0,1.41c.68.68,1.58,1.02,2.47,1.02s1.79-.34,2.47-1.02c.39-.39.39-1.02,0-1.41s-1.02-.39-1.41,0Z"/>
    <path class="cls-2" d="m7.5,1C3.92,1,1,3.92,1,7.5s2.92,6.5,6.5,6.5,6.5-2.92,6.5-6.5S11.08,1,7.5,1Zm0,11c-2.48,0-4.5-2.02-4.5-4.5S5.02,3,7.5,3s4.5,2.02,4.5,4.5-2.02,4.5-4.5,4.5Z"/>
    <path class="cls-2" d="m5.03,8.29c-.39.39-.39,1.02,0,1.41s1.02.39,1.41,0c.58-.58,1.54-.58,2.12,0,.2.2.45.29.71.29s.51-.1.71-.29c.39-.39.39-1.02,0-1.41-1.37-1.37-3.58-1.37-4.95,0Z"/>
  </g>
  <g>
    <path class="cls-1" d="m16,21.67c1.93,0,3.5-1.57,3.5-3.5v-2.5c0-1.47-1.2-2.67-2.67-2.67h-1.67c-1.47,0-2.67,1.2-2.67,2.67v2.5c0,1.93,1.57,3.5,3.5,3.5Z"/>
    <path class="cls-1" d="m21.12,20.16c-.8,2.05-2.79,3.51-5.12,3.51s-4.32-1.46-5.12-3.51c-2.32,1.4-3.88,3.94-3.88,6.84v2c0,1.1.9,2,2,2h2v-3c0-.55.45-1,1-1s1,.45,1,1v3h6v-3c0-.55.45-1,1-1s1,.45,1,1v3h2c1.1,0,2-.9,2-2v-2c0-2.9-1.56-5.44-3.88-6.84Z"/>
  </g>
</svg>