<?xml version="1.0" encoding="UTF-8"?>
<svg id="OBJECT" xmlns="http://www.w3.org/2000/svg" viewBox="0 0 32 32">
  <defs>
    <style>
      .cls-1 {
        fill: #FD4360;
      }

      .cls-1, .cls-2 {
        stroke-width: 0px;
      }

      .cls-2 {
        fill: #dadada;
      }
    </style>
  </defs>
  <path class="cls-2" d="m16,6c-5.51,0-10,4.49-10,10s4.49,10,10,10,10-4.49,10-10-4.49-10-10-10Zm0,2c4.41,0,8,3.59,8,8,0,.88-.15,1.72-.41,2.51-1-1.17-2.25-2.09-3.68-2.69.16-.44.26-.91.26-1.4,0-2.3-1.87-4.18-4.18-4.18s-4.18,1.87-4.18,4.18c0,.49.1.96.26,1.4-1.42.6-2.68,1.52-3.68,2.69-.26-.79-.41-1.63-.41-2.51,0-4.41,3.59-8,8-8Zm2.18,6.41c0,1.2-.98,2.18-2.18,2.18s-2.18-.98-2.18-2.18.98-2.18,2.18-2.18,2.18.98,2.18,2.18Zm-2.18,9.59c-2.74,0-5.16-1.39-6.6-3.49.94-1.38,2.27-2.42,3.83-3,.74.66,1.71,1.08,2.78,1.08s2.04-.42,2.78-1.08c1.56.58,2.89,1.62,3.83,3-1.44,2.11-3.86,3.49-6.6,3.49Z"/>
  <g>
    <path class="cls-1" d="m23.79,8.21c.2.2.45.29.71.29s.51-.1.71-.29l3-3c.39-.39.39-1.02,0-1.41s-1.02-.39-1.41,0l-3,3c-.39.39-.39,1.02,0,1.41Z"/>
    <path class="cls-1" d="m8.21,23.79c-.39-.39-1.02-.39-1.41,0l-3,3c-.39.39-.39,1.02,0,1.41.2.2.45.29.71.29s.51-.1.71-.29l3-3c.39-.39.39-1.02,0-1.41Z"/>
    <path class="cls-1" d="m6.79,8.21c.2.2.45.29.71.29s.51-.1.71-.29c.39-.39.39-1.02,0-1.41l-3-3c-.39-.39-1.02-.39-1.41,0s-.39,1.02,0,1.41l3,3Z"/>
    <path class="cls-1" d="m25.21,23.79c-.39-.39-1.02-.39-1.41,0s-.39,1.02,0,1.41l3,3c.2.2.45.29.71.29s.51-.1.71-.29c.39-.39.39-1.02,0-1.41l-3-3Z"/>
    <path class="cls-1" d="m16,3c2.5,0,4.83.72,6.81,1.95l1.45-1.45c-2.37-1.57-5.21-2.49-8.26-2.49s-5.89.92-8.26,2.49l1.45,1.45c1.98-1.23,4.31-1.95,6.81-1.95Z"/>
    <path class="cls-1" d="m28.51,7.74l-1.45,1.45c1.23,1.98,1.95,4.31,1.95,6.81s-.72,4.83-1.95,6.81l1.45,1.45c1.57-2.37,2.49-5.21,2.49-8.26s-.92-5.89-2.49-8.26Z"/>
    <path class="cls-1" d="m3,16c0-2.5.72-4.83,1.95-6.81l-1.45-1.45c-1.57,2.37-2.49,5.21-2.49,8.26s.92,5.89,2.49,8.26l1.45-1.45c-1.23-1.98-1.95-4.31-1.95-6.81Z"/>
    <path class="cls-1" d="m16,29c-2.5,0-4.83-.72-6.81-1.95l-1.45,1.45c2.37,1.57,5.21,2.49,8.26,2.49s5.89-.92,8.26-2.49l-1.45-1.45c-1.98,1.23-4.31,1.95-6.81,1.95Z"/>
  </g>
</svg>