<?xml version="1.0" encoding="UTF-8"?>
<svg id="OBJECT" xmlns="http://www.w3.org/2000/svg" viewBox="0 0 32 32">
  <defs>
    <style>
      .cls-1 {
        fill: #FD4360;
      }

      .cls-1, .cls-2 {
        stroke-width: 0px;
      }

      .cls-2 {
        fill: #dadada;
      }
    </style>
  </defs>
  <path class="cls-2" d="m23,15h-1.03c-.22,0-.43.07-.6.2-1.57,1.18-3.43,1.8-5.38,1.8s-3.8-.62-5.38-1.8c-.17-.13-.38-.2-.6-.2h-1.03c-2.76,0-5,2.24-5,5v10c0,.55.45,1,1,1h22c.55,0,1-.45,1-1v-10c0-2.76-2.24-5-5-5Zm3,14h-3v-5c0-.55-.45-1-1-1s-1,.45-1,1v5h-10v-5c0-.55-.45-1-1-1s-1,.45-1,1v5h-3v-9c0-1.65,1.35-3,3-3h.7c1.86,1.31,4.03,2,6.3,2s4.44-.69,6.3-2h.7c1.65,0,3,1.35,3,3v9Z"/>
  <path class="cls-1" d="m16,15c3.86,0,7-3.14,7-7s-3.14-7-7-7-7,3.14-7,7,3.14,7,7,7Zm-2.64-5.77c.42-.35,1.05-.29,1.41.13.68.82,1.78.82,2.46,0,.35-.42.98-.49,1.41-.13.43.35.48.98.13,1.41-.73.88-1.71,1.36-2.77,1.36s-2.04-.48-2.77-1.36c-.35-.43-.29-1.06.13-1.41Z"/>
</svg>