<?xml version="1.0" encoding="UTF-8"?>
<svg id="OBJECT" xmlns="http://www.w3.org/2000/svg" viewBox="0 0 32 32">
  <defs>
    <style>
      .cls-1 {
        fill: #FD4360;
      }

      .cls-2 {
        fill: #dadada;
      }
    </style>
  </defs>
  <path class="cls-2" d="M30.62,25.33c-1.76-1.39-3.18-3.01-4.27-4.82,1.36-2,2.15-4.41,2.15-7.01,0-6.89-5.61-12.5-12.5-12.5S3.5,6.61,3.5,13.5c0,2.59,.8,5.01,2.15,7.01-1.09,1.81-2.52,3.44-4.27,4.82-.3,.23-.44,.62-.36,.99s.35,.67,.72,.76l3.7,1,1.1,2.35c.12,.25,.33,.44,.59,.52,.1,.04,.21,.05,.32,.05,.16,0,.32-.04,.46-.11,.12-.06,2.88-1.54,4.96-5.3,1,.26,2.05,.41,3.14,.41s2.13-.15,3.14-.41c2.09,3.76,4.84,5.24,4.96,5.3,.14,.08,.3,.11,.46,.11,.11,0,.22-.02,.32-.05,.26-.09,.47-.28,.59-.52l1.1-2.35,3.7-1c.36-.1,.64-.39,.72-.76s-.06-.75-.36-.99Zm-22.77,3.18l-.8-1.71c-.12-.27-.36-.47-.65-.54l-2.33-.63c1.12-1.06,2.1-2.23,2.92-3.48,1.12,1.16,2.45,2.1,3.94,2.77-1.07,1.81-2.29,2.97-3.09,3.59Zm-2.35-15.01c0-5.79,4.71-10.5,10.5-10.5s10.5,4.71,10.5,10.5-4.71,10.5-10.5,10.5S5.5,19.29,5.5,13.5Zm20.09,12.76c-.28,.08-.52,.28-.65,.54l-.8,1.71c-.8-.62-2.02-1.77-3.09-3.6,1.49-.66,2.82-1.61,3.94-2.77,.83,1.26,1.8,2.42,2.92,3.48l-2.33,.63Z"/>
  <g>
    <path class="cls-1" d="M12.41,13.26c-.09-.32-.16-.66-.16-1.01,0-2.07,1.68-3.75,3.75-3.75s3.75,1.68,3.75,3.75c0,.35-.06,.69-.16,1.01,1.95,.86,3.52,2.38,4.45,4.25,.6-1.21,.95-2.57,.95-4.01,0-4.96-4.04-9-9-9S7,8.54,7,13.5c0,1.44,.35,2.8,.95,4.01,.93-1.87,2.5-3.39,4.45-4.25Z"/>
    <circle class="cls-1" cx="16" cy="12.25" r="1.75"/>
    <path class="cls-1" d="M18.53,15c-.67,.61-1.55,1-2.53,1s-1.86-.38-2.53-1c-2.02,.79-3.54,2.46-4.16,4.5,1.65,1.84,4.03,3,6.69,3s5.04-1.16,6.69-3c-.62-2.03-2.14-3.71-4.16-4.5Z"/>
  </g>
</svg>