<?xml version="1.0" encoding="UTF-8"?>
<svg id="OBJECT" xmlns="http://www.w3.org/2000/svg" viewBox="0 0 32 32">
  <defs>
    <style>
      .cls-1 {
        fill: #FD4360;
      }

      .cls-1, .cls-2 {
        stroke-width: 0px;
      }

      .cls-2 {
        fill: #dadada;
      }
    </style>
  </defs>
  <path class="cls-2" d="m25,19H7c-3.31,0-6,2.69-6,6v5c0,.55.45,1,1,1h28c.55,0,1-.45,1-1v-5c0-3.31-2.69-6-6-6Zm4,10h-4v-3c0-.55-.45-1-1-1s-1,.45-1,1v3h-14v-3c0-.55-.45-1-1-1s-1,.45-1,1v3H3v-4c0-2.21,1.79-4,4-4h18c2.21,0,4,1.79,4,4v4Z"/>
  <path class="cls-1" d="m16,18c4.69,0,8.5-3.81,8.5-8.5S20.69,1,16,1,7.5,4.81,7.5,9.5s3.81,8.5,8.5,8.5Zm-3.71-5.43c.39-.39,1.02-.39,1.41,0,1.26,1.26,3.32,1.26,4.59,0,.39-.39,1.02-.39,1.41,0s.39,1.02,0,1.41c-1.02,1.02-2.36,1.53-3.71,1.53s-2.68-.51-3.71-1.53c-.39-.39-.39-1.02,0-1.41Z"/>
</svg>