<?xml version="1.0" encoding="UTF-8"?>
<svg id="OBJECT" xmlns="http://www.w3.org/2000/svg" viewBox="0 0 32 32">
  <defs>
    <style>
      .cls-1 {
        fill: #FD4360;
      }

      .cls-1, .cls-2 {
        stroke-width: 0px;
      }

      .cls-2 {
        fill: #dadada;
      }
    </style>
  </defs>
  <g>
    <path class="cls-2" d="m29.47,12.02c-.54.12-.88.65-.77,1.19.2.91.3,1.85.3,2.79,0,7.17-5.83,13-13,13S3,23.17,3,16c0-.94.1-1.88.3-2.79.12-.54-.23-1.07-.77-1.19-.54-.11-1.07.23-1.19.77-.23,1.05-.34,2.13-.34,3.21,0,8.27,6.73,15,15,15s15-6.73,15-15c0-1.08-.12-2.16-.34-3.21-.12-.54-.65-.88-1.19-.77Z"/>
    <path class="cls-2" d="m16,27c5.68,0,10.38-4.26,10.94-9.9.05-.55-.35-1.04-.9-1.09-.55-.05-1.04.35-1.09.9-.46,4.62-4.31,8.1-8.95,8.1s-8.49-3.48-8.95-8.1c-.05-.55-.53-.95-1.09-.9-.55.06-.95.54-.9,1.09.56,5.64,5.27,9.9,10.94,9.9Z"/>
    <path class="cls-2" d="m13,17h6c1.65,0,3-1.35,3-3v-2c0-1.65-1.35-3-3-3h-6c-1.65,0-3,1.35-3,3v2c0,1.65,1.35,3,3,3Zm-1-5c0-.55.45-1,1-1h6c.55,0,1,.45,1,1v2c0,.55-.45,1-1,1h-6c-.55,0-1-.45-1-1v-2Z"/>
    <path class="cls-2" d="m29.29,4.71c.2.2.45.29.71.29s.51-.1.71-.29c.39-.39.39-1.02,0-1.41l-2-2c-.39-.39-1.02-.39-1.41,0s-.39,1.02,0,1.41l2,2Z"/>
    <path class="cls-2" d="m2,5c.26,0,.51-.1.71-.29l2-2c.39-.39.39-1.02,0-1.41s-1.02-.39-1.41,0L1.29,3.29c-.39.39-.39,1.02,0,1.41.2.2.45.29.71.29Z"/>
  </g>
  <g>
    <path class="cls-1" d="m17,1.05v5.95h2c2.05,0,3.8,1.24,4.58,3h6.15c-2.19-5-7.02-8.57-12.72-8.95Z"/>
    <path class="cls-1" d="m2.28,10h6.15c.77-1.76,2.53-3,4.58-3h2V1.05c-5.7.38-10.53,3.95-12.72,8.95Z"/>
  </g>
</svg>