<?xml version="1.0" encoding="UTF-8"?>
<svg id="OBJECT" xmlns="http://www.w3.org/2000/svg" viewBox="0 0 32 32">
  <defs>
    <style>
      .cls-1 {
        fill: #FD4360;
      }

      .cls-1, .cls-2 {
        stroke-width: 0px;
      }

      .cls-2 {
        fill: #dadada;
      }
    </style>
  </defs>
  <g>
    <path class="cls-2" d="m16,1C7.73,1,1,7.73,1,16s6.73,15,15,15,15-6.73,15-15S24.27,1,16,1Zm0,28c-7.17,0-13-5.83-13-13S8.83,3,16,3s13,5.83,13,13-5.83,13-13,13Z"/>
    <path class="cls-2" d="m29.29,5.71c.2.2.45.29.71.29s.51-.1.71-.29c.39-.39.39-1.02,0-1.41l-3-3c-.39-.39-1.02-.39-1.41,0s-.39,1.02,0,1.41l3,3Z"/>
    <path class="cls-2" d="m2,6c.26,0,.51-.1.71-.29l3-3c.39-.39.39-1.02,0-1.41s-1.02-.39-1.41,0l-3,3c-.39.39-.39,1.02,0,1.41.2.2.45.29.71.29Z"/>
    <path class="cls-2" d="m14.5,5.5h-1c-.55,0-1,.45-1,1s.45,1,1,1h1c.55,0,1-.45,1-1s-.45-1-1-1Z"/>
    <path class="cls-2" d="m18.5,5.5h-1c-.55,0-1,.45-1,1s.45,1,1,1h1c.55,0,1-.45,1-1s-.45-1-1-1Z"/>
  </g>
  <path class="cls-1" d="m22.57,6.58c-.31-.21-.71-.24-1.04-.07-.33.17-.54.51-.54.89,0,1.44-1.17,2.6-2.6,2.6h-4.79c-1.44,0-2.6-1.17-2.6-2.6,0-.37-.21-.71-.54-.89-.33-.17-.73-.15-1.04.07-3.52,2.46-5.38,6.65-4.83,10.92.66,5.17,4.9,9.35,10.08,9.93.44.05.87.07,1.3.07,2.82,0,5.56-1.03,7.68-2.92,2.44-2.18,3.85-5.31,3.85-8.58,0-3.74-1.84-7.27-4.93-9.42Zm-6.32,16.42h-.5c-.55,0-1-.45-1-1s.45-1,1-1h.5c.55,0,1,.45,1,1s-.45,1-1,1Zm2.7-3.11c-.19.19-.45.29-.7.29s-.52-.1-.71-.3c-.82-.83-2.25-.83-3.08,0-.39.39-1.02.4-1.41,0-.39-.39-.4-1.02,0-1.41.79-.8,1.84-1.24,2.96-1.24s2.17.44,2.96,1.24c.39.39.39,1.03,0,1.41Zm2.25-3.29c-.19.19-.45.29-.7.29s-.52-.1-.71-.3c-1.01-1.02-2.36-1.59-3.79-1.59s-2.78.56-3.79,1.59c-.39.39-1.02.4-1.41,0-.39-.39-.4-1.02,0-1.41,1.39-1.4,3.24-2.18,5.21-2.18s3.82.77,5.21,2.18c.39.39.39,1.03,0,1.41Z"/>
</svg>