<?xml version="1.0" encoding="UTF-8"?>
<svg id="OBJECT" xmlns="http://www.w3.org/2000/svg" viewBox="0 0 512 512">
  <defs>
    <style>
      .cls-1 {
        fill: #FD4360;
      }

      .cls-2 {
        fill: #dadada;
      }
    </style>
  </defs>
  <g>
    <path class="cls-2" d="M378.5,357h10c4.14,0,7.5-3.36,7.5-7.5s-3.36-7.5-7.5-7.5h-10c-4.14,0-7.5,3.36-7.5,7.5s3.36,7.5,7.5,7.5Z"/>
    <path class="cls-2" d="M419.5,427c-15.16,0-27.5,12.34-27.5,27.5s12.34,27.5,27.5,27.5,27.5-12.34,27.5-27.5-12.34-27.5-27.5-27.5Zm0,40c-6.89,0-12.5-5.61-12.5-12.5s5.61-12.5,12.5-12.5,12.5,5.61,12.5,12.5-5.61,12.5-12.5,12.5Z"/>
    <path class="cls-2" d="M92.5,427c-15.16,0-27.5,12.34-27.5,27.5s12.34,27.5,27.5,27.5,27.5-12.34,27.5-27.5-12.34-27.5-27.5-27.5Zm0,40c-6.89,0-12.5-5.61-12.5-12.5s5.61-12.5,12.5-12.5,12.5,5.61,12.5,12.5-5.61,12.5-12.5,12.5Z"/>
    <path class="cls-2" d="M494.5,422v-87.5c0-12.41-10.09-22.5-22.5-22.5h-27.05l-24.16-56.36c-3.55-8.28-11.67-13.64-20.68-13.64h-72.61v-17.5c0-4.14-3.36-7.5-7.5-7.5H30c-4.14,0-7.5,3.36-7.5,7.5v197.5h-5c-9.65,0-17.5,7.85-17.5,17.5v20c0,9.65,7.85,17.5,17.5,17.5h22.09c8.77,20.56,29.19,35,52.91,35s44.14-14.44,52.91-35h221.18c8.77,20.56,29.19,35,52.91,35s44.14-14.44,52.91-35h22.09c9.65,0,17.5-7.85,17.5-17.5v-20c0-9.65-7.85-17.5-17.5-17.5Zm-27.6,0c-5.65-8.21-13.37-14.89-22.4-19.27v-8.23c0-4.14,3.36-7.5,7.5-7.5h27.5v35h-12.6Zm12.6-87.5v37.5h-27.5c-12.41,0-22.5,10.09-22.5,22.5v3.39c-3.25-.57-6.59-.89-10-.89-19.65,0-37.03,9.92-47.4,25h-44.6v-95h144.5c4.14,0,7.5,3.36,7.5,7.5Zm-167,87.5h-125v-42.5c0-6.89,5.61-12.5,12.5-12.5h112.5v55Zm87.61-165c3,0,5.71,1.78,6.89,4.54l21.62,50.46h-101.13v-55h72.61ZM37.5,232H312.5v120h-112.5c-15.16,0-27.5,12.34-27.5,27.5v42.5h-32.6c-10.38-15.08-27.75-25-47.4-25s-37.03,9.92-47.4,25h-7.6V232Zm-20,230c-1.38,0-2.5-1.12-2.5-2.5v-20c0-1.38,1.12-2.5,2.5-2.5h20.23c-1.77,5.52-2.73,11.4-2.73,17.5,0,2.54,.18,5.04,.51,7.5H17.5Zm75,35c-23.43,0-42.5-19.07-42.5-42.5s19.07-42.5,42.5-42.5,42.5,19.07,42.5,42.5-19.07,42.5-42.5,42.5Zm56.99-35c.32-2.46,.51-4.96,.51-7.5,0-6.1-.96-11.98-2.73-17.5h217.46c-1.77,5.52-2.73,11.4-2.73,17.5,0,2.54,.18,5.04,.51,7.5H149.49Zm270.01,35c-23.43,0-42.5-19.07-42.5-42.5s19.07-42.5,42.5-42.5,42.5,19.07,42.5,42.5-19.07,42.5-42.5,42.5Zm77.5-37.5c0,1.38-1.12,2.5-2.5,2.5h-18.01c.32-2.46,.51-4.96,.51-7.5,0-6.1-.96-11.98-2.73-17.5h20.23c1.38,0,2.5,1.12,2.5,2.5v20Z"/>
    <path class="cls-2" d="M60,322c4.14,0,7.5-3.36,7.5-7.5v-34.2c7.51,12.08,16.71,26.96,23.59,38.13,1.39,2.26,3.83,3.57,6.39,3.57,.68,0,1.37-.09,2.04-.29,3.23-.91,5.46-3.86,5.46-7.22v-60c0-4.14-3.36-7.5-7.5-7.5s-7.5,3.36-7.5,7.5v33.58c-1.53-2.48-3.11-5.03-4.7-7.58-5.42-8.73-9.75-15.69-12.89-20.67-1.79-2.84-3.29-5.21-4.36-6.86-1.97-3.04-4.67-7.21-10.08-5.68-3.23,.91-5.46,3.86-5.46,7.22v60c0,4.14,3.36,7.5,7.5,7.5Z"/>
    <path class="cls-2" d="M183.34,315.25c.32,3.23,2.69,5.88,5.86,6.58,.54,.12,1.07,.17,1.6,.17,2.62,0,5.1-1.38,6.47-3.7l11.31-19.26,11.99,19.41c1.69,2.74,4.94,4.09,8.07,3.37,3.13-.72,5.46-3.36,5.78-6.56l6.02-60c.41-4.12-2.59-7.8-6.71-8.21-4.11-.41-7.8,2.59-8.21,6.71l-3.81,37.98-6.9-11.17c-1.37-2.21-3.78-3.56-6.38-3.56h-.08c-2.63,.03-5.05,1.44-6.38,3.7l-5.97,10.18-3.73-37.13c-.41-4.12-4.08-7.13-8.21-6.71-4.12,.41-7.13,4.09-6.71,8.21l6.02,60Z"/>
    <path class="cls-2" d="M125.07,322h37.48c4.14,0,7.5-3.36,7.5-7.5s-3.36-7.5-7.5-7.5h-29.98v-15h29.98c4.14,0,7.5-3.36,7.5-7.5s-3.36-7.5-7.5-7.5h-29.98v-15h29.98c4.14,0,7.5-3.36,7.5-7.5s-3.36-7.5-7.5-7.5h-37.48c-4.14,0-7.5,3.36-7.5,7.5v60c0,4.14,3.36,7.5,7.5,7.5Z"/>
    <path class="cls-2" d="M257.88,307c-4.14,0-7.5,3.36-7.5,7.5s3.36,7.5,7.5,7.5h32.12c4.14,0,7.5-3.36,7.5-7.5v-30c0-4.14-3.36-7.5-7.5-7.5h-24.62v-15h24.62c4.14,0,7.5-3.36,7.5-7.5s-3.36-7.5-7.5-7.5h-32.12c-4.14,0-7.5,3.36-7.5,7.5v30c0,4.14,3.36,7.5,7.5,7.5h24.62v15h-24.62Z"/>
    <path class="cls-2" d="M220,409.5c4.14,0,7.5-3.36,7.5-7.5v-15c0-4.14-3.36-7.5-7.5-7.5s-7.5,3.36-7.5,7.5v15c0,4.14,3.36,7.5,7.5,7.5Z"/>
    <path class="cls-2" d="M250,409.5c4.14,0,7.5-3.36,7.5-7.5v-15c0-4.14-3.36-7.5-7.5-7.5s-7.5,3.36-7.5,7.5v15c0,4.14,3.36,7.5,7.5,7.5Z"/>
    <path class="cls-2" d="M280,409.5c4.14,0,7.5-3.36,7.5-7.5v-15c0-4.14-3.36-7.5-7.5-7.5s-7.5,3.36-7.5,7.5v15c0,4.14,3.36,7.5,7.5,7.5Z"/>
  </g>
  <g>
    <path class="cls-1" d="M255.3,118.98l-31.63-31.63,10.6-31.81c5.41-1.02,10.38-3.63,14.36-7.61,0,0,0,0,0,0,5.22-5.22,8.09-12.16,8.09-19.54s-2.88-14.32-8.09-19.54c-5.22-5.22-12.16-8.1-19.54-8.1s-14.32,2.88-19.54,8.09c-3.98,3.98-6.59,8.95-7.61,14.36l-31.81,10.6L138.51,2.2c-2.93-2.93-7.68-2.93-10.61,0-2.93,2.93-2.93,7.68,0,10.61l.88,.88-15.53,15.53c-27.64,27.64-27.64,72.62,0,100.26l14.76,14.76c13.82,13.82,31.98,20.73,50.13,20.73s36.31-6.91,50.13-20.73l15.53-15.53,.88,.88c1.46,1.46,3.38,2.2,5.3,2.2s3.84-.73,5.3-2.2c2.93-2.93,2.93-7.68,0-10.61Zm-43.48-43.48l-29.82-29.82,21.38-7.13c1.37,3.48,3.45,6.67,6.17,9.39,2.72,2.72,5.92,4.8,9.39,6.17l-7.13,21.38Z"/>
    <path class="cls-1" d="M117.42,154.84l-5.12-5.12-10.45,52.27h82.23l-8.84-22.1c-21.87-.72-42.3-9.54-57.82-25.05Z"/>
  </g>
</svg>