<?xml version="1.0" encoding="UTF-8"?>
<svg id="OBJECT" xmlns="http://www.w3.org/2000/svg" viewBox="0 0 32 32">
  <defs>
    <style>
      .cls-1 {
        fill: #FD4360;
      }

      .cls-1, .cls-2 {
        stroke-width: 0px;
      }

      .cls-2 {
        fill: #dadada;
      }
    </style>
  </defs>
  <g>
    <path class="cls-2" d="m22.5,12.97h-5.5v-1.14c1.72-.45,3-2,3-3.86s-2.65-5.8-3.18-6.57c-.37-.54-1.27-.54-1.65,0-.53.77-3.18,4.69-3.18,6.57s1.28,3.41,3,3.86v1.14h-5.5c-.55,0-1,.45-1,1s.45,1,1,1h.5v8c0,.55.45,1,1,1s1-.45,1-1v-1h8v1c0,.55.45,1,1,1s1-.45,1-1v-8h.5c.55,0,1-.45,1-1s-.45-1-1-1Zm-8.5-5c0-.66.93-2.47,2-4.18,1.07,1.7,2,3.52,2,4.18,0,1.1-.9,2-2,2s-2-.9-2-2Zm6,12h-8v-5h8v5Z"/>
    <path class="cls-2" d="m14.5,18.47c.55,0,1-.45,1-1v-.5c0-.55-.45-1-1-1s-1,.45-1,1v.5c0,.55.45,1,1,1Z"/>
    <path class="cls-2" d="m17.5,18.47c.55,0,1-.45,1-1v-.5c0-.55-.45-1-1-1s-1,.45-1,1v.5c0,.55.45,1,1,1Z"/>
  </g>
  <path class="cls-1" d="m27.79,25.38c-.19-.24-.48-.38-.79-.38H5c-.31,0-.6.14-.79.38s-.26.56-.18.86l.62,2.48c.33,1.34,1.53,2.27,2.91,2.27h16.88c1.38,0,2.58-.93,2.91-2.27l.62-2.48c.07-.3,0-.62-.18-.86Z"/>
</svg>