<?xml version="1.0" encoding="UTF-8"?>
<svg id="OBJECT" xmlns="http://www.w3.org/2000/svg" viewBox="0 0 32 32">
  <defs>
    <style>
      .cls-1 {
        fill: #FD4360;
      }

      .cls-2 {
        fill: #dadada;
      }
    </style>
  </defs>
  <path class="cls-2" d="m16,1C7.73,1,1,7.73,1,16c0,4.71,2.15,9.06,5.9,11.92.44.33,1.07.25,1.4-.19.34-.44.25-1.07-.19-1.4-2.98-2.28-4.78-5.64-5.06-9.33h1.55c1.24,0,2.31-.94,2.47-2.19.59-4.45,4.43-7.81,8.92-7.81s8.33,3.36,8.92,7.81c.17,1.25,1.23,2.19,2.47,2.19h1.55c-.28,3.69-2.08,7.06-5.06,9.33-.44.34-.52.96-.19,1.4.2.26.49.39.79.39.21,0,.43-.07.61-.21,3.75-2.87,5.9-7.21,5.9-11.92,0-8.27-6.73-15-15-15Zm7.03,6.56c-1.68-1.4-3.76-2.31-6.03-2.51v-2c2.83.22,5.41,1.34,7.45,3.09l-1.42,1.42Zm-15.47-1.42c2.04-1.75,4.61-2.87,7.45-3.09v2c-2.27.21-4.35,1.12-6.03,2.51l-1.42-1.42Zm-2.46,8.41c-.03.26-.24.45-.49.45h-1.55c.22-2.83,1.34-5.41,3.09-7.45l1.42,1.42c-1.29,1.55-2.18,3.46-2.46,5.58Zm21.81,0c-.28-2.12-1.17-4.03-2.46-5.58l1.42-1.42c1.75,2.04,2.87,4.61,3.09,7.45h-1.55c-.25,0-.46-.19-.49-.45Z"/>
  <g>
    <path class="cls-1" d="m22.28,25.88c-.07-.49-.5-.86-.99-.86h-10.57c-.5,0-.92.37-.99.86l-.5,3.52c2.04,1.03,4.34,1.63,6.78,1.63s4.74-.6,6.78-1.63l-.5-3.52Zm-8.53,3.15h-.5c-.55,0-1-.45-1-1s.45-1,1-1h.5c.55,0,1,.45,1,1s-.45,1-1,1Zm5,0h-.5c-.55,0-1-.45-1-1s.45-1,1-1h.5c.55,0,1,.45,1,1s-.45,1-1,1Z"/>
    <circle class="cls-1" cx="16" cy="19" r="2.5"/>
    <path class="cls-1" d="m17,14.62v-3.62c0-.55-.45-1-1-1s-1,.45-1,1v3.62c.32-.07.66-.12,1-.12s.68.05,1,.12Z"/>
  </g>
</svg>