<?xml version="1.0" encoding="UTF-8"?>
<svg id="OBJECT" xmlns="http://www.w3.org/2000/svg" viewBox="0 0 32 32">
  <defs>
    <style>
      .cls-1 {
        fill: #FD4360;
      }

      .cls-1, .cls-2 {
        stroke-width: 0px;
      }

      .cls-2 {
        fill: #dadada;
      }
    </style>
  </defs>
  <path class="cls-1" d="m19.95,23.14c0,.33.16.63.42.82.26.19.6.23.91.12l1.71-.61,1.71.61c.11.04.22.06.33.06.2,0,.41-.06.58-.18.27-.19.42-.49.42-.82v-5.96h-6.09v5.96Z"/>
  <path class="cls-1" d="m17.95,17.18h-1.45c-.83,0-1.5.67-1.5,1.5v1.2h2.95v-2.7Z"/>
  <path class="cls-1" d="m29.5,17.18h-1.45v2.7h2.95v-1.2c0-.83-.67-1.5-1.5-1.5Z"/>
  <path class="cls-1" d="m28.05,23c0,.9-.33,1.79-1.01,2.39-.56.5-1.26.76-1.99.76-.34,0-.68-.06-1.01-.17l-1.04-.37-1.04.37c-.33.12-.66.17-1,.17-.8,0-1.57-.32-2.15-.9-.58-.58-.85-1.4-.85-2.21v-1.14h-1.86v7.62c0,.83.67,1.5,1.5,1.5h10.82c.83,0,1.5-.67,1.5-1.5v-7.62h-1.86v1.11Z"/>
  <g>
    <path class="cls-2" d="m15.86,10.45c.32-.72.5-1.51.5-2.34v-4.04c0-1.69-1.38-3.07-3.07-3.07h-5.58c-1.69,0-3.07,1.38-3.07,3.07v4.04c0,.83.18,1.62.49,2.34-2.48,1.16-4.14,3.67-4.14,6.48v6.4c0,1.65,1.35,3,3,3h2.98s.01,0,.02,0,.01,0,.02,0h7.07c.55,0,1-.45,1-1s-.45-1-1-1h-6.09v-4.4c0-.55-.45-1-1-1s-1,.45-1,1v4.4h-2c-.55,0-1-.45-1-1v-6.4c0-2.14,1.32-4.02,3.28-4.79,1.06,1.1,2.54,1.79,4.19,1.79h.08c1.65,0,3.14-.69,4.2-1.8,1.46.58,2.6,1.81,3.05,3.33.13.44.53.72.96.72.09,0,.19-.01.28-.04.53-.15.83-.71.68-1.24-.58-1.98-2-3.59-3.84-4.45Zm-5.32,1.48h-.08c-2.11,0-3.82-1.71-3.82-3.82v-4.04c0-.59.48-1.07,1.07-1.07h5.58c.59,0,1.07.48,1.07,1.07v4.04c0,.84-.28,1.62-.75,2.25,0,0,0,0,0,0-.7.94-1.81,1.56-3.07,1.56Z"/>
    <path class="cls-2" d="m26.42,5.36c-.34-.44-.96-.52-1.4-.19l-2.31,1.77c-.44.34-.52.96-.19,1.4.2.26.5.39.8.39.21,0,.42-.07.61-.21l2.31-1.77c.44-.34.52-.96.19-1.4Z"/>
    <path class="cls-2" d="m26.79,11.11l-1.4-.19c-.55-.07-1.05.31-1.12.86-.07.55.31,1.05.86,1.12l1.4.19s.09,0,.13,0c.49,0,.92-.37.99-.87.07-.55-.31-1.05-.86-1.12Z"/>
    <path class="cls-2" d="m20.11,2.37c-.55-.07-1.05.31-1.12.86l-.19,1.4c-.07.55.31,1.05.86,1.12.04,0,.09,0,.13,0,.49,0,.92-.37.99-.87l.19-1.4c.07-.55-.31-1.05-.86-1.12Z"/>
  </g>
</svg>