<?xml version="1.0" encoding="UTF-8"?>
<svg id="OBJECT" xmlns="http://www.w3.org/2000/svg" viewBox="0 0 512 512">
  <defs>
    <style>
      .cls-1 {
        fill: #FD4360;
      }

      .cls-2 {
        fill: #dadada;
      }
    </style>
  </defs>
  <g>
    <path class="cls-2" d="M423.5,202.5c0-64.79-52.71-117.5-117.5-117.5s-117.5,52.71-117.5,117.5,52.71,117.5,117.5,117.5,117.5-52.71,117.5-117.5Zm-220,0c0-56.52,45.98-102.5,102.5-102.5s102.5,45.98,102.5,102.5-45.98,102.5-102.5,102.5-102.5-45.98-102.5-102.5Z"/>
    <path class="cls-2" d="M393.5,202.5c0-48.25-39.25-87.5-87.5-87.5s-87.5,39.25-87.5,87.5,39.25,87.5,87.5,87.5,87.5-39.25,87.5-87.5Zm-160,0c0-39.98,32.52-72.5,72.5-72.5s72.5,32.52,72.5,72.5-32.52,72.5-72.5,72.5-72.5-32.52-72.5-72.5Z"/>
    <path class="cls-2" d="M348.5,202.5c0-2.19-.17-4.4-.51-6.57-.5-3.23-3.03-5.76-6.26-6.26-11.86-1.84-21.06-11.05-22.9-22.9-.5-3.23-3.03-5.76-6.26-6.26-2.17-.34-4.38-.51-6.57-.51-23.43,0-42.5,19.07-42.5,42.5s19.07,42.5,42.5,42.5,42.5-19.07,42.5-42.5Zm-70,0c0-14.95,11.99-27.15,26.87-27.49,4.11,13.49,14.63,24.01,28.13,28.13-.34,14.87-12.54,26.87-27.49,26.87s-27.5-12.34-27.5-27.5Z"/>
    <path class="cls-2" d="M394.5,70c4.14,0,7.5-3.36,7.5-7.5s-3.36-7.5-7.5-7.5h-10c-4.14,0-7.5,3.36-7.5,7.5s3.36,7.5,7.5,7.5h10Z"/>
    <path class="cls-2" d="M157.5,95h-20c-4.14,0-7.5,3.36-7.5,7.5s3.36,7.5,7.5,7.5h20c4.14,0,7.5-3.36,7.5-7.5s-3.36-7.5-7.5-7.5Z"/>
    <path class="cls-2" d="M484.5,5h-116.46c-11.31,0-21.33,6.79-25.53,17.29l-13.08,32.71H113.71c-3.1-8.73-11.43-15-21.21-15h-2.5V22.5c0-12.41-10.09-22.5-22.5-22.5h-20c-12.41,0-22.5,10.09-22.5,22.5v17.5h-2.5C10.09,40,0,50.09,0,62.5V342.5c0,12.41,10.09,22.5,22.5,22.5h43.49c4.14,0,7.5-3.36,7.5-7.5s-3.36-7.5-7.5-7.5h-.99V157.5c0-15.16-12.34-27.5-27.5-27.5H15V62.5c0-4.14,3.36-7.5,7.5-7.5H92.5c4.14,0,7.5,3.36,7.5,7.5v250.76c0,4.14,3.36,7.5,7.5,7.5s7.5-3.36,7.5-7.5V70h219.5c3.07,0,5.82-1.87,6.96-4.71l14.97-37.43c1.91-4.77,6.47-7.86,11.61-7.86h116.46c6.89,0,12.5,5.61,12.5,12.5v22.5h-72.5c-4.14,0-7.5,3.36-7.5,7.5s3.36,7.5,7.5,7.5h72.5V215h-32.5c-15.16,0-27.5,12.34-27.5,27.5v92.5H253.11c-4.14,0-7.5,3.36-7.5,7.5s3.36,7.5,7.5,7.5h231.39c15.16,0,27.5-12.34,27.5-27.5V32.5c0-15.16-12.34-27.5-27.5-27.5ZM37.5,145c6.89,0,12.5,5.61,12.5,12.5v192.5H22.5c-4.14,0-7.5-3.36-7.5-7.5V145h22.5Zm2.5-122.5c0-4.14,3.36-7.5,7.5-7.5h20c4.14,0,7.5,3.36,7.5,7.5v17.5H40V22.5ZM484.5,335h-32.5v-92.5c0-6.89,5.61-12.5,12.5-12.5h32.5v92.5c0,6.89-5.61,12.5-12.5,12.5Z"/>
  </g>
  <g>
    <circle class="cls-1" cx="197.5" cy="447" r="12.5"/>
    <circle class="cls-1" cx="132.5" cy="382" r="12.5"/>
    <path class="cls-1" d="M165,317c-53.76,0-97.5,43.74-97.5,97.5s43.74,97.5,97.5,97.5,97.5-43.74,97.5-97.5-43.74-97.5-97.5-97.5Zm-32.5,37.5c15.16,0,27.5,12.34,27.5,27.5s-12.34,27.5-27.5,27.5-27.5-12.34-27.5-27.5,12.34-27.5,27.5-27.5Zm-12.2,115.3c-1.46,1.46-3.38,2.2-5.3,2.2s-3.84-.73-5.3-2.2c-2.93-2.93-2.93-7.68,0-10.61l100-100c2.93-2.93,7.68-2.93,10.61,0,2.93,2.93,2.93,7.68,0,10.61l-100,100Zm77.2,4.7c-15.16,0-27.5-12.34-27.5-27.5s12.34-27.5,27.5-27.5,27.5,12.34,27.5,27.5-12.34,27.5-27.5,27.5Z"/>
  </g>
</svg>