<?xml version="1.0" encoding="UTF-8"?>
<svg id="OBJECT" xmlns="http://www.w3.org/2000/svg" viewBox="0 0 32 32">
  <defs>
    <style>
      .cls-1 {
        fill: #FD4360;
      }

      .cls-1, .cls-2 {
        stroke-width: 0px;
      }

      .cls-2 {
        fill: #dadada;
      }
    </style>
  </defs>
  <g>
    <path class="cls-2" d="m7.44,21.36c-.2-.77-.3-1.53-.3-2.26,0-.55-.42-.98-1-1-.55,0-1,.45-1,1,0,.9.13,1.83.37,2.75.75,2.91,3.42,4.94,6.49,4.94.55,0,1-.45,1-1s-.45-1-1-1c-2.16,0-4.03-1.41-4.55-3.43Z"/>
    <path class="cls-2" d="m22.39,10.83c-.88-3.76-3.76-6.21-3.88-6.31-.34-.29-.83-.31-1.2-.06-.37.25-.53.71-.4,1.13.24.75.35,1.62.35,2.57,0,.87-.81.95-.98.95-.15.01-.98,0-1.06-.88-.27-3.15.75-5.84.76-5.87.13-.34.06-.73-.18-1.01-.24-.28-.62-.4-.98-.32C7.8,2.62,6.06,9.47,5.65,13.42c-.06.56-.52.72-.66.76-.14.04-.62.12-.93-.34-.04-.06-.09-.12-.14-.17-.23-.23-.56-.34-.88-.28-.32.06-.59.27-.73.56-1.4,2.99-1.68,6.18-.82,9.49,1.15,4.45,5.21,7.56,9.88,7.56h4.56c1.25,0,2.46-.22,3.62-.67.52-.2.77-.78.58-1.29-.2-.52-.78-.77-1.29-.58-.93.35-1.9.53-2.9.53h-4.56c-3.75,0-7.02-2.49-7.94-6.06-.62-2.42-.55-4.75.22-6.96.57.24,1.21.3,1.85.13,1.18-.3,2.03-1.28,2.15-2.49.39-3.71,1.76-8.25,5.95-10.1-.27,1.23-.51,2.96-.35,4.86.16,1.86,1.68,2.76,3.13,2.72,1.35-.05,2.71-.97,2.88-2.62.49.79.95,1.73,1.19,2.8.12.54.67.87,1.2.75.54-.13.87-.66.75-1.2Z"/>
  </g>
  <path class="cls-1" d="m23,12.5c-4.41,0-8,3.59-8,8s3.59,8,8,8,8-3.59,8-8-3.59-8-8-8Zm-4.11,6.06v-1.56c0-.55.45-1,1-1s1,.45,1,1v1.56c0,.55-.45,1-1,1s-1-.45-1-1Zm2.18,6.06c-.2.25-.49.39-.79.39-.21,0-.43-.07-.61-.21-.44-.34-.51-.97-.17-1.4l5.45-7c.34-.44.97-.52,1.4-.18.44.34.51.97.17,1.4l-5.45,7Zm6.04-.61c0,.55-.45,1-1,1s-1-.45-1-1v-1.56c0-.55.45-1,1-1s1,.45,1,1v1.56Z"/>
</svg>