<?xml version="1.0" encoding="UTF-8"?>
<svg id="OBJECT" xmlns="http://www.w3.org/2000/svg" viewBox="0 0 32 32">
  <defs>
    <style>
      .cls-1 {
        fill: #FD4360;
      }

      .cls-1, .cls-2 {
        stroke-width: 0px;
      }

      .cls-2 {
        fill: #dadada;
      }
    </style>
  </defs>
  <path class="cls-1" d="m21,12c-3.86,0-7,3.14-7,7s3.14,7,7,7,7-3.14,7-7-3.14-7-7-7Zm-.56,6h1.11c1.16,0,2.11.95,2.11,2.11,0,1.01-.72,1.86-1.67,2.06v.16c0,.55-.45,1-1,1s-1-.45-1-1v-.11h-.67c-.55,0-1-.45-1-1s.45-1,1-1h2.22c.06,0,.11-.05.11-.11s-.05-.11-.11-.11h-1.11c-1.16,0-2.11-.95-2.11-2.11,0-1.01.72-1.86,1.67-2.06v-.16c0-.55.45-1,1-1s1,.45,1,1v.11h.67c.55,0,1,.45,1,1s-.45,1-1,1h-2.22c-.06,0-.11.05-.11.11s.05.11.11.11Z"/>
  <g>
    <path class="cls-2" d="m18.25,10c0-.55-.45-1-1-1h-8c-.55,0-1,.45-1,1s.45,1,1,1h8c.55,0,1-.45,1-1Z"/>
    <path class="cls-2" d="m9.25,15h4c.55,0,1-.45,1-1s-.45-1-1-1h-4c-.55,0-1,.45-1,1s.45,1,1,1Z"/>
    <path class="cls-2" d="m9.25,19h3c.55,0,1-.45,1-1s-.45-1-1-1h-3c-.55,0-1,.45-1,1s.45,1,1,1Z"/>
    <path class="cls-2" d="m9.25,23h3c.55,0,1-.45,1-1s-.45-1-1-1h-3c-.55,0-1,.45-1,1s.45,1,1,1Z"/>
    <path class="cls-2" d="m9.25,27h6c.55,0,1-.45,1-1s-.45-1-1-1h-6c-.55,0-1,.45-1,1s.45,1,1,1Z"/>
    <path class="cls-2" d="m22.5,10.82c.55,0,1-.45,1-1v-4.32c0-1.38-1.12-2.5-2.5-2.5h-2.3c-.23-1.14-1.24-2-2.45-2h-5c-1.21,0-2.22.86-2.45,2h-2.3c-1.38,0-2.5,1.12-2.5,2.5v23c0,1.38,1.12,2.5,2.5,2.5h14.5c1.38,0,2.5-1.12,2.5-2.5,0-.55-.45-1-1-1s-1,.45-1,1c0,.28-.22.5-.5.5H6.5c-.28,0-.5-.22-.5-.5V5.5c0-.28.22-.5.5-.5h2.25v1c0,.55.45,1,1,1h8c.55,0,1-.45,1-1v-1h2.25c.28,0,.5.22.5.5v4.32c0,.55.45,1,1,1Zm-5.75-5.82h-6v-1.5c0-.28.22-.5.5-.5h5c.28,0,.5.22.5.5v1.5Z"/>
  </g>
</svg>