<?xml version="1.0" encoding="UTF-8" standalone="no"?>
<svg
   id="OBJECT"
   viewBox="0 0 32 32"
   version="1.1"
   sodipodi:docname="Vehicle.svg"
   xml:space="preserve"
   inkscape:version="1.2.2 (732a01da63, 2022-12-09)"
   xmlns:inkscape="http://www.inkscape.org/namespaces/inkscape"
   xmlns:sodipodi="http://sodipodi.sourceforge.net/DTD/sodipodi-0.dtd"
   xmlns="http://www.w3.org/2000/svg"
   xmlns:svg="http://www.w3.org/2000/svg"><sodipodi:namedview
     id="namedview27"
     pagecolor="#505050"
     bordercolor="#ffffff"
     borderopacity="1"
     inkscape:showpageshadow="0"
     inkscape:pageopacity="0"
     inkscape:pagecheckerboard="1"
     inkscape:deskcolor="#505050"
     showgrid="false"
     inkscape:zoom="11.313709"
     inkscape:cx="2.9610096"
     inkscape:cy="17.412504"
     inkscape:window-width="1920"
     inkscape:window-height="1009"
     inkscape:window-x="-8"
     inkscape:window-y="-8"
     inkscape:window-maximized="1"
     inkscape:current-layer="OBJECT" /><defs
     id="defs4"><rect
       x="-48.328105"
       y="-29.027744"
       width="26.094089"
       height="39.990349"
       id="rect545" /><style
       id="style2">
      .cls-1 {
        fill: #FD4360;
      }

      .cls-1, .cls-2 {
        stroke-width: 0px;
      }

      .cls-2 {
        fill: #dadada;
      }
    </style></defs><path
     id="path368"
     style="fill:#fd4360;fill-opacity:1;stroke-width:1.44139"
     d="M 22.235001,6.5384833 8.8066234,6.5599703 3.443254,14.710942 l -0.085962,6.416396 1.5258124,0.02149 -0.00921,4.598929 4.813831,0.01227 -0.03684,-3.300298 12.6270956,0.01842 0.02149,3.281877 h 4.76471 l -0.08596,-4.654188 1.651685,0.02149 0.02149,-6.6927 z M 9.7307064,8.5769931 21.872735,8.641458 23.373986,12.86891 7.8856084,12.825934 C 7.9714124,12.56851 9.7307064,8.5769908 9.7307064,8.5769908 Z M 6.6238212,16.945936 h 3.2665272 v 3.263458 H 6.6238212 Z m 15.3195258,0.03378 h 3.263457 v 3.266527 h -3.263457 z m -10.855682,0.01842 h 9.529421 v 3.303368 h -9.529421 z" /></svg>
