<?xml version="1.0" encoding="UTF-8"?>
<svg id="OBJECT" xmlns="http://www.w3.org/2000/svg" viewBox="0 0 32 32">
  <defs>
    <style>
      .cls-1 {
        fill: #FD4360;
      }

      .cls-1, .cls-2 {
        stroke-width: 0px;
      }

      .cls-2 {
        fill: #dadada;
      }
    </style>
  </defs>
  <path class="cls-2" d="m24.15,23.85l-2.02-2.02c-.73-.73-1.8-1.01-2.79-.75l-3.66.98c-2.42-1.34-4.41-3.33-5.75-5.75l.98-3.66c.27-.99-.02-2.06-.75-2.79l-2.03-2.02c-1.09-1.09-2.99-1.09-4.08,0l-2.77,2.77c-.2.2-.3.47-.29.75v.23c.24,5.08,2.35,9.86,5.94,13.46,3.6,3.6,8.38,5.7,13.46,5.93h.23s.03.01.04.01c.26,0,.52-.1.71-.29l2.77-2.77c.55-.55.85-1.27.85-2.04s-.3-1.5-.85-2.04Zm-1.41,2.67l-2.46,2.46c-4.5-.25-8.73-2.15-11.92-5.34-3.19-3.19-5.08-7.42-5.34-11.92l2.46-2.46c.34-.33.92-.33,1.25,0l2.03,2.02c.22.22.31.55.23.86l-.33,1.21c-.17-.51-.71-.8-1.23-.64-.53.16-.83.72-.67,1.24,1.63,5.44,5.85,9.66,11.28,11.28.09.03.19.04.29.04.43,0,.83-.28.96-.71.15-.52-.13-1.06-.64-1.23l1.21-.33c.3-.08.63,0,.86.23l2.02,2.02c.17.17.26.39.26.63s-.09.46-.26.63Z"/>
  <g>
    <path class="cls-1" d="m25,5h-2.5v-1.5c0-1.38-1.12-2.5-2.5-2.5h-5c-.55,0-1,.45-1,1s.45,1,1,1h5c.28,0,.5.22.5.5v1.5h-6.5c-.55,0-1,.45-1,1v10c0,.55.45,1,1,1h11c.55,0,1-.45,1-1V6c0-.55-.45-1-1-1Zm-6.75,5h-.5c-.55,0-1-.45-1-1s.45-1,1-1h.5c.55,0,1,.45,1,1s-.45,1-1,1Z"/>
    <path class="cls-1" d="m30.56,5.17c-.28-.19-.63-.22-.93-.1l-1.63.65v10.55l1.63.65c.12.05.25.07.37.07.2,0,.39-.06.56-.17.27-.19.44-.5.44-.83V6c0-.33-.17-.64-.44-.83Z"/>
  </g>
</svg>