<?xml version="1.0" encoding="UTF-8"?>
<svg id="OBJECT" xmlns="http://www.w3.org/2000/svg" viewBox="0 0 32 32">
  <defs>
    <style>
      .cls-1 {
        fill: #FD4360;
      }

      .cls-1, .cls-2 {
        stroke-width: 0px;
      }

      .cls-2 {
        fill: #dadada;
      }
    </style>
  </defs>
  <g>
    <path class="cls-2" d="m30.58,16.18c-.27-.19-.6-.23-.91-.13l-7.21,2.54c-.2-1.46-1.44-2.6-2.96-2.6h-3.98c-.55,0-1,.45-1,1s.45,1,1,1h.98v11h-4v-4c0-1.65-1.35-3-3-3H3v-3c0-.55.45-1,1-1h1.48c.55,0,1-.45,1-1s-.45-1-1-1h-1.48c-1.65,0-3,1.35-3,3v9c0,1.65,1.35,3,3,3h15.5c1.52,0,2.76-1.14,2.96-2.6l7.21,2.54c.11.04.22.06.33.06.2,0,.41-.06.58-.18.26-.19.42-.49.42-.82v-13c0-.32-.16-.63-.42-.82ZM3,28v-4h6.5c.55,0,1,.45,1,1v4h-6.5c-.55,0-1-.45-1-1Zm17.5,0c0,.55-.45,1-1,1h-1v-11h1c.55,0,1,.45,1,1v9Zm8.5.59l-6.5-2.29v-5.58l2.25-.79v4.59c0,.55.45,1,1,1s1-.45,1-1v-5.29l2.25-.79v10.17Z"/>
    <path class="cls-2" d="m7.75,25.5h-2c-.55,0-1,.45-1,1s.45,1,1,1h2c.55,0,1-.45,1-1s-.45-1-1-1Z"/>
  </g>
  <path class="cls-1" d="m20,11.8V3.96c0-1.63-1.33-2.96-2.96-2.96H3.96c-1.63,0-2.96,1.33-2.96,2.96v7.83c0,1.63,1.33,2.96,2.96,2.96h3.94c.55,0,1,.45,1,1s-.45,1-1,1h-.67l.61,1.22c.51,1.01,1.52,1.64,2.65,1.64s2.15-.63,2.65-1.64l1.61-3.22h2.27c1.63,0,2.96-1.33,2.96-2.96ZM5.5,4.88h.5c.55,0,1,.45,1,1s-.45,1-1,1h-.5c-.55,0-1-.45-1-1s.45-1,1-1Zm10,6H5.5c-.55,0-1-.45-1-1s.45-1,1-1h10c.55,0,1,.45,1,1s-.45,1-1,1Zm0-4h-6c-.55,0-1-.45-1-1s.45-1,1-1h6c.55,0,1,.45,1,1s-.45,1-1,1Z"/>
</svg>