<?xml version="1.0" encoding="UTF-8"?>
<svg id="OBJECT" xmlns="http://www.w3.org/2000/svg" viewBox="0 0 32 32">
  <defs>
    <style>
      .cls-1 {
        fill: #FD4360;
      }

      .cls-1, .cls-2 {
        stroke-width: 0px;
      }

      .cls-2 {
        fill: #dadada;
      }
    </style>
  </defs>
  <g>
    <path class="cls-2" d="m26.5,4H5.5c-1.65,0-3,1.35-3,3v14c0,.55.45,1,1,1s1-.45,1-1V7c0-.55.45-1,1-1h21c.55,0,1,.45,1,1v14c0,.55.45,1,1,1s1-.45,1-1V7c0-1.65-1.35-3-3-3Z"/>
    <path class="cls-2" d="m19.12,13.5c.07-.27.13-.55.13-.85v-1.35c0-1.54-1.26-2.8-2.8-2.8h-.9c-1.54,0-2.8,1.26-2.8,2.8v1.35c0,.29.05.58.13.85-1.46,1.02-2.38,2.69-2.38,4.5,0,1.38,1.12,2.5,2.5,2.5h6c1.38,0,2.5-1.12,2.5-2.5,0-1.81-.91-3.49-2.38-4.5Zm-4.37-2.2c0-.44.36-.8.8-.8h.9c.44,0,.8.36.8.8v1.35c0,.69-.56,1.25-1.25,1.25s-1.25-.56-1.25-1.25v-1.35Zm4.25,7.2h-6c-.28,0-.5-.22-.5-.5,0-1.13.56-2.18,1.47-2.83.56.45,1.26.73,2.03.73s1.47-.28,2.03-.73c.91.65,1.47,1.7,1.47,2.83,0,.28-.22.5-.5.5Z"/>
    <path class="cls-2" d="m25.5,7c-.55,0-1,.45-1,1v.5c0,.55.45,1,1,1s1-.45,1-1v-.5c0-.55-.45-1-1-1Z"/>
    <path class="cls-2" d="m22.5,7c-.55,0-1,.45-1,1v.5c0,.55.45,1,1,1s1-.45,1-1v-.5c0-.55-.45-1-1-1Z"/>
    <path class="cls-2" d="m10.5,8c0-.55-.45-1-1-1s-1,.45-1,1v.5c0,.55.45,1,1,1s1-.45,1-1v-.5Z"/>
    <path class="cls-2" d="m6.5,7c-.55,0-1,.45-1,1v.5c0,.55.45,1,1,1s1-.45,1-1v-.5c0-.55-.45-1-1-1Z"/>
  </g>
  <path class="cls-1" d="m1,23v3c0,1.1.9,2,2,2h26c1.1,0,2-.9,2-2v-3H1Z"/>
</svg>