<?xml version="1.0" encoding="UTF-8"?>
<svg id="OBJECT" xmlns="http://www.w3.org/2000/svg" viewBox="0 0 512 512">
  <defs>
    <style>
      .cls-1 {
        fill: #FD4360;
      }

      .cls-2 {
        fill: #dadada;
      }
    </style>
  </defs>
  <g>
    <path class="cls-2" d="M489.5,153.5h-25c-4.14,0-7.5,3.36-7.5,7.5v7.5h-42.5c-1.75,0-3.45,.62-4.8,1.74l-47.7,39.75v-23.99c0-12.41-10.09-22.5-22.5-22.5H185v-17.5c0-12.41-10.09-22.5-22.5-22.5h-22.5v-12.5c0-4.14,3.36-7.5,7.5-7.5h79.5v7.5c0,4.14,3.36,7.5,7.5,7.5h120c4.14,0,7.5-3.36,7.5-7.5v-30c0-4.14-3.36-7.5-7.5-7.5h-120c-4.14,0-7.5,3.36-7.5,7.5v7.5h-79.5c-12.41,0-22.5,10.09-22.5,22.5v12.5h-8.23c-8.58,0-16.29,4.77-20.12,12.44l-13.78,27.56h-20.37c-12.41,0-22.5,10.09-22.5,22.5v12.5H22.5c-12.41,0-22.5,10.09-22.5,22.5v120c0,12.41,10.09,22.5,22.5,22.5h17.5v12.5c0,12.41,10.09,22.5,22.5,22.5h31v17.5c0,12.41,10.09,22.5,22.5,22.5h155.73c8.58,0,16.29-4.77,20.12-12.44l13.78-27.56h33.86c12.41,0,22.5-10.09,22.5-22.5v-23.99l47.7,39.75c1.35,1.12,3.05,1.74,4.8,1.74h42.5v7.5c0,4.14,3.36,7.5,7.5,7.5h25c12.41,0,22.5-10.09,22.5-22.5V176c0-12.41-10.09-22.5-22.5-22.5Zm-142.5-50h-25v-15h25v15Zm-105-15h65v15h-65v-15Zm-131.94,54.15c1.28-2.56,3.85-4.15,6.71-4.15h45.73c4.14,0,7.5,3.36,7.5,7.5v17.5H99.64l10.43-20.85ZM22.5,348.5c-4.14,0-7.5-3.36-7.5-7.5v-120c0-4.14,3.36-7.5,7.5-7.5h17.5v135H22.5Zm255.94,70.85c-1.28,2.56-3.85,4.15-6.71,4.15H116c-4.14,0-7.5-3.36-7.5-7.5v-17.5h180.36l-10.43,20.85Zm68.56-43.35c0,4.14-3.36,7.5-7.5,7.5H62.5c-4.14,0-7.5-3.36-7.5-7.5V186c0-4.14,3.36-7.5,7.5-7.5H339.5c4.14,0,7.5,3.36,7.5,7.5v190Zm70.22,2.5l-55.22-46.01v-102.97l45-37.5v73.99c0,4.14,3.36,7.5,7.5,7.5s7.5-3.36,7.5-7.5v-82.5h35v195h-39.78Zm79.78,7.5c0,4.14-3.36,7.5-7.5,7.5h-17.5V168.5h17.5c4.14,0,7.5,3.36,7.5,7.5v210Z"/>
    <path class="cls-2" d="M414.5,288.5c-4.14,0-7.5,3.36-7.5,7.5v10c0,4.14,3.36,7.5,7.5,7.5s7.5-3.36,7.5-7.5v-10c0-4.14-3.36-7.5-7.5-7.5Z"/>
  </g>
  <g>
    <rect class="cls-1" x="272" y="268.5" width="55" height="55" rx="17.5" ry="17.5"/>
    <rect class="cls-1" x="272" y="198.5" width="55" height="55" rx="17.5" ry="17.5"/>
    <path class="cls-1" d="M239.5,198.5H92.5c-9.65,0-17.5,7.85-17.5,17.5v130c0,9.65,7.85,17.5,17.5,17.5H239.5c9.65,0,17.5-7.85,17.5-17.5V216c0-9.65-7.85-17.5-17.5-17.5Zm-87,30h10c4.14,0,7.5,3.36,7.5,7.5s-3.36,7.5-7.5,7.5h-10c-4.14,0-7.5-3.36-7.5-7.5s3.36-7.5,7.5-7.5Zm-47.5,7.5c0-4.14,3.36-7.5,7.5-7.5h10c4.14,0,7.5,3.36,7.5,7.5s-3.36,7.5-7.5,7.5h-10c-4.14,0-7.5-3.36-7.5-7.5Zm111,87.5h-12.5v5c0,4.14-3.36,7.5-7.5,7.5s-7.5-3.36-7.5-7.5v-5H116c-4.14,0-7.5-3.36-7.5-7.5s3.36-7.5,7.5-7.5h72.5v-5c0-4.14,3.36-7.5,7.5-7.5s7.5,3.36,7.5,7.5v5h12.5c4.14,0,7.5,3.36,7.5,7.5s-3.36,7.5-7.5,7.5Z"/>
  </g>
</svg>