<?xml version="1.0" encoding="UTF-8"?>
<svg id="OBJECT" xmlns="http://www.w3.org/2000/svg" viewBox="0 0 32 32">
  <defs>
    <style>
      .cls-1 {
        fill: #FD4360;
      }

      .cls-2 {
        fill: #dadada;
      }
    </style>
  </defs>
  <g>
    <path class="cls-2" d="M7.5,15.25h-2c-.55,0-1,.45-1,1s.45,1,1,1h2c.55,0,1-.45,1-1s-.45-1-1-1Z"/>
    <path class="cls-2" d="M7.5,19.25h-2c-.55,0-1,.45-1,1s.45,1,1,1h2c.55,0,1-.45,1-1s-.45-1-1-1Z"/>
    <path class="cls-2" d="M30.54,12.16c-.28-.18-.64-.21-.95-.08l-7.59,3.38v-.96c0-1.38-1.12-2.5-2.5-2.5H3.5c-1.38,0-2.5,1.12-2.5,2.5v11c0,1.38,1.12,2.5,2.5,2.5H19.5c1.38,0,2.5-1.12,2.5-2.5v-.96l7.59,3.38c.13,.06,.27,.09,.41,.09,.19,0,.38-.05,.54-.16,.28-.18,.46-.5,.46-.84V13c0-.34-.17-.65-.46-.84Zm-10.54,13.34c0,.28-.22,.5-.5,.5H3.5c-.28,0-.5-.22-.5-.5V14.5c0-.28,.22-.5,.5-.5H19.5c.28,0,.5,.22,.5,.5v11Zm9-.04l-7-3.11v-4.7l2.5-1.11v3.46c0,.55,.45,1,1,1s1-.45,1-1v-4.35l2.5-1.11v10.92Z"/>
  </g>
  <path class="cls-1" d="M24.5,6.5c0-1.38-1.12-2.5-2.5-2.5H2c-.55,0-1,.45-1,1s.45,1,1,1h2.25v4h5V6h7.25v1.5c0,1.38,1.12,2.5,2.5,2.5h3c1.38,0,2.5-1.12,2.5-2.5v-1Z"/>
</svg>