<?xml version="1.0" encoding="UTF-8"?>
<svg id="OBJECT" xmlns="http://www.w3.org/2000/svg" viewBox="0 0 32 32">
  <defs>
    <style>
      .cls-1 {
        fill: #FD4360;
      }

      .cls-1, .cls-2 {
        stroke-width: 0px;
      }

      .cls-2 {
        fill: #dadada;
      }
    </style>
  </defs>
  <g>
    <path class="cls-2" d="m28,1H4c-1.65,0-3,1.35-3,3v16c0,.55.45,1,1,1s1-.45,1-1V4c0-.55.45-1,1-1h7v2c0,1.65,1.35,3,3,3h1v12c0,.55.45,1,1,1s1-.45,1-1v-12h1c1.65,0,3-1.35,3-3v-2h7c.55,0,1,.45,1,1v16c0,.55.45,1,1,1s1-.45,1-1V4c0-1.65-1.35-3-3-3Zm-9,4c0,.55-.45,1-1,1h-4c-.55,0-1-.45-1-1v-2h6v2Z"/>
    <path class="cls-2" d="m25.96,13.6c.02-.13.04-.26.04-.4v-1.2c0-1.43-1.17-2.6-2.6-2.6h-.8c-1.43,0-2.6,1.17-2.6,2.6v1.2c0,.14.02.27.04.4-1.27.93-2.04,2.4-2.04,4v1.4c0,.55.45,1,1,1s1-.45,1-1v-1.4c0-.85.36-1.64.98-2.2.53.49,1.24.8,2.02.8s1.49-.31,2.02-.8c.62.56.98,1.35.98,2.2v1.4c0,.55.45,1,1,1s1-.45,1-1v-1.4c0-1.6-.77-3.07-2.04-4Zm-2.96.6c-.41,0-.76-.25-.91-.6,0,0,0,0,0,0,0,0,0,0,0-.01-.05-.12-.08-.25-.08-.38v-1.2c0-.33.27-.6.6-.6h.8c.33,0,.6.27.6.6v1.2c0,.14-.03.27-.08.38,0,0,0,0,0,.01,0,0,0,0,0,0-.16.35-.5.6-.91.6Z"/>
    <path class="cls-2" d="m11.96,13.6c.02-.13.04-.26.04-.4v-1.2c0-1.43-1.17-2.6-2.6-2.6h-.8c-1.43,0-2.6,1.17-2.6,2.6v1.2c0,.14.02.27.04.4-1.27.93-2.04,2.4-2.04,4v1.4c0,.55.45,1,1,1s1-.45,1-1v-1.4c0-.85.36-1.64.98-2.2.53.49,1.24.8,2.02.8s1.49-.31,2.02-.8c.62.56.98,1.35.98,2.2v1.4c0,.55.45,1,1,1s1-.45,1-1v-1.4c0-1.6-.77-3.07-2.04-4Zm-2.96.6c-.41,0-.76-.25-.91-.6,0,0,0,0,0,0,0,0,0,0,0-.01-.05-.12-.08-.25-.08-.38v-1.2c0-.33.27-.6.6-.6h.8c.33,0,.6.27.6.6v1.2c0,.14-.03.27-.08.38,0,0,0,0,0,.01,0,0,0,0,0,0-.16.35-.5.6-.91.6Z"/>
  </g>
  <path class="cls-1" d="m1,26c0,.55.45,1,1,1h10.5v2h-5c-.55,0-1,.45-1,1s.45,1,1,1h17c.55,0,1-.45,1-1s-.45-1-1-1h-5v-2h10.5c.55,0,1-.45,1-1v-3H1v3Z"/>
</svg>