<?xml version="1.0" encoding="UTF-8"?>
<svg id="OBJECT" xmlns="http://www.w3.org/2000/svg" viewBox="0 0 512 512">
  <defs>
    <style>
      .cls-1 {
        fill: #FD4360;
      }

      .cls-2 {
        fill: #dadada;
      }
    </style>
  </defs>
  <g>
    <path class="cls-2" d="M125,295h15c4.14,0,7.5-3.36,7.5-7.5s-3.36-7.5-7.5-7.5h-15c-4.14,0-7.5,3.36-7.5,7.5s3.36,7.5,7.5,7.5Z"/>
    <path class="cls-2" d="M175,295h15c4.14,0,7.5-3.36,7.5-7.5s-3.36-7.5-7.5-7.5h-15c-4.14,0-7.5,3.36-7.5,7.5s3.36,7.5,7.5,7.5Z"/>
    <path class="cls-2" d="M292.5,40h-42.5V22.5c0-12.41-10.09-22.5-22.5-22.5h-15.73c-8.58,0-16.29,4.77-20.12,12.44l-13.78,27.56h-37.86V22.5c0-12.41-10.09-22.5-22.5-22.5h-30c-12.41,0-22.5,10.09-22.5,22.5v17.5H22.5C10.09,40,0,50.09,0,62.5V242.5c0,12.41,10.09,22.5,22.5,22.5h49.59l14.87,44.62c3.07,9.2,11.65,15.38,21.35,15.38h21.69v53.64l-22.96,5.74c-10.04,2.51-17.04,11.49-17.04,21.83v30.79h-27.5c-12.41,0-22.5,10.09-22.5,22.5v30c0,12.41,10.09,22.5,22.5,22.5H252.5c12.41,0,22.5-10.09,22.5-22.5v-30c0-12.41-10.09-22.5-22.5-22.5h-27.5v-30.79c0-10.34-7.01-19.32-17.04-21.83l-22.96-5.74v-53.64h21.69c9.7,0,18.28-6.18,21.35-15.38l14.87-44.62h49.59c12.41,0,22.5-10.09,22.5-22.5V62.5c0-12.41-10.09-22.5-22.5-22.5Zm-87.44-20.85c1.28-2.56,3.85-4.15,6.71-4.15h15.73c4.14,0,7.5,3.36,7.5,7.5v17.5h-40.36l10.43-20.85Zm-125.06,3.35c0-4.14,3.36-7.5,7.5-7.5h30c4.14,0,7.5,3.36,7.5,7.5v17.5h-45V22.5Zm25,383.71c0-3.45,2.34-6.44,5.68-7.28l19.32-4.83v42.89h-25v-30.79Zm155,53.29v30c0,4.14-3.36,7.5-7.5,7.5H62.5c-4.14,0-7.5-3.36-7.5-7.5v-30c0-4.14,3.36-7.5,7.5-7.5H252.5c4.14,0,7.5,3.36,7.5,7.5Zm-55.68-60.56c3.34,.84,5.68,3.83,5.68,7.28v30.79h-25v-42.89l19.32,4.83Zm-34.32,38.06h-25v-112h25v112Zm43.8-132.13c-1.02,3.07-3.88,5.13-7.12,5.13H108.31c-3.23,0-6.09-2.06-7.12-5.13l-13.29-39.87H227.09l-13.29,39.87Zm86.2-62.37c0,4.14-3.36,7.5-7.5,7.5H22.5c-4.14,0-7.5-3.36-7.5-7.5V62.5c0-4.14,3.36-7.5,7.5-7.5H292.5c4.14,0,7.5,3.36,7.5,7.5V242.5Z"/>
    <path class="cls-2" d="M262.5,140h-10c-12.41,0-22.5,10.09-22.5,22.5v50c0,12.41,10.09,22.5,22.5,22.5h10c12.41,0,22.5-10.09,22.5-22.5v-50c0-12.41-10.09-22.5-22.5-22.5Zm7.5,72.5c0,4.14-3.36,7.5-7.5,7.5h-10c-4.14,0-7.5-3.36-7.5-7.5v-50c0-4.14,3.36-7.5,7.5-7.5h10c4.14,0,7.5,3.36,7.5,7.5v50Z"/>
    <path class="cls-2" d="M262.5,70h-10c-12.41,0-22.5,10.09-22.5,22.5v10c0,12.41,10.09,22.5,22.5,22.5h10c12.41,0,22.5-10.09,22.5-22.5v-10c0-12.41-10.09-22.5-22.5-22.5Zm7.5,32.5c0,4.14-3.36,7.5-7.5,7.5h-10c-4.14,0-7.5-3.36-7.5-7.5v-10c0-4.14,3.36-7.5,7.5-7.5h10c4.14,0,7.5,3.36,7.5,7.5v10Z"/>
    <path class="cls-2" d="M182.5,70H52.5c-12.41,0-22.5,10.09-22.5,22.5v120c0,12.41,10.09,22.5,22.5,22.5H182.5c12.41,0,22.5-10.09,22.5-22.5V92.5c0-12.41-10.09-22.5-22.5-22.5Zm-130,15H182.5c4.14,0,7.5,3.36,7.5,7.5v87.5H45V92.5c0-4.14,3.36-7.5,7.5-7.5ZM182.5,220H52.5c-4.14,0-7.5-3.36-7.5-7.5v-17.5H190v17.5c0,4.14-3.36,7.5-7.5,7.5Z"/>
    <path class="cls-2" d="M67.5,115h50c4.14,0,7.5-3.36,7.5-7.5s-3.36-7.5-7.5-7.5h-50c-4.14,0-7.5,3.36-7.5,7.5s3.36,7.5,7.5,7.5Z"/>
    <path class="cls-2" d="M82.5,482H232.5c4.14,0,7.5-3.36,7.5-7.5s-3.36-7.5-7.5-7.5H82.5c-4.14,0-7.5,3.36-7.5,7.5s3.36,7.5,7.5,7.5Z"/>
  </g>
  <g>
    <rect class="cls-1" x="330" y="80" width="25" height="145"/>
    <path class="cls-1" d="M398,21.5l-22,16.5c-3.78,2.83-6,7.28-6,12V255c0,4.72,2.22,9.17,6,12l22,16.5c1.3,.97,2.88,1.5,4.5,1.5h14.5V20h-14.5c-1.62,0-3.2,.53-4.5,1.5Z"/>
    <rect class="cls-1" x="432" y="20" width="25" height="265"/>
    <path class="cls-1" d="M497,0h-25V305h25c8.28,0,15-6.72,15-15V15c0-8.28-6.72-15-15-15Z"/>
  </g>
</svg>