<?xml version="1.0" encoding="UTF-8"?>
<svg id="OBJECT" xmlns="http://www.w3.org/2000/svg" viewBox="0 0 32 32">
  <defs>
    <style>
      .cls-1 {
        fill: #FD4360;
      }

      .cls-1, .cls-2 {
        stroke-width: 0px;
      }

      .cls-2 {
        fill: #dadada;
      }
    </style>
  </defs>
  <path class="cls-2" d="m28.79,1H3.21c-1.22,0-2.21.99-2.21,2.21v19.58c0,1.22.99,2.21,2.21,2.21h9.79v4h-6c-.55,0-1,.45-1,1s.45,1,1,1h18c.55,0,1-.45,1-1s-.45-1-1-1h-6v-4h9.79c1.22,0,2.21-.99,2.21-2.21V3.21c0-1.22-.99-2.21-2.21-2.21Zm-11.79,28h-2v-4h2v4Zm12-6.21c0,.12-.09.21-.21.21H3.21c-.12,0-.21-.09-.21-.21V3.21c0-.12.09-.21.21-.21h25.58c.12,0,.21.09.21.21v19.58Z"/>
  <path class="cls-1" d="m24.81,8.36c-.75-.47-1.67-.52-2.46-.13l-1.74.84v7.86l1.74.84c.35.17.73.26,1.11.26.47,0,.94-.13,1.35-.39.75-.47,1.19-1.28,1.19-2.16v-4.97c0-.88-.45-1.69-1.19-2.16Z"/>
  <path class="cls-1" d="m6,8.6v8.8c0,1.1.9,2,2,2h8.6c1.1,0,2-.9,2-2v-8.8c0-1.1-.9-2-2-2h-8.6c-1.1,0-2,.9-2,2Zm9.6,2h-1.35c-.55,0-1-.45-1-1s.45-1,1-1h1.35c.55,0,1,.45,1,1s-.45,1-1,1Z"/>
</svg>