<?xml version="1.0" encoding="UTF-8"?>
<svg id="OBJECT" xmlns="http://www.w3.org/2000/svg" viewBox="0 0 32 32">
  <defs>
    <style>
      .cls-1 {
        fill: #FD4360;
      }

      .cls-1, .cls-2 {
        stroke-width: 0px;
      }

      .cls-2 {
        fill: #dadada;
      }
    </style>
  </defs>
  <g>
    <path class="cls-2" d="m28,1H4c-1.65,0-3,1.35-3,3v24c0,1.65,1.35,3,3,3h24c1.65,0,3-1.35,3-3V4c0-1.65-1.35-3-3-3ZM4,3h24c.55,0,1,.45,1,1v3H3v-3c0-.55.45-1,1-1Zm24,26H4c-.55,0-1-.45-1-1V9h26v19c0,.55-.45,1-1,1Z"/>
    <path class="cls-2" d="m5,6h1c.55,0,1-.45,1-1s-.45-1-1-1h-1c-.55,0-1,.45-1,1s.45,1,1,1Z"/>
    <path class="cls-2" d="m9,6h1c.55,0,1-.45,1-1s-.45-1-1-1h-1c-.55,0-1,.45-1,1s.45,1,1,1Z"/>
    <path class="cls-2" d="m13,6h1c.55,0,1-.45,1-1s-.45-1-1-1h-1c-.55,0-1,.45-1,1s.45,1,1,1Z"/>
  </g>
  <g>
    <path class="cls-1" d="m15.84,15.5c-1.89.05-3.41,1.6-3.41,3.5s1.57,3.5,3.5,3.5,3.45-1.52,3.5-3.41c-1.71-.54-3.06-1.88-3.59-3.59Z"/>
    <path class="cls-1" d="m27.14,16.86c-2.05-2.15-6.23-5.77-11.14-5.77s-9.09,3.61-11.14,5.77c-1.14,1.2-1.14,3.08,0,4.28,2.05,2.15,6.23,5.77,11.14,5.77s9.09-3.61,11.14-5.77c1.14-1.2,1.14-3.08,0-4.28Zm-11.21,7.64c-3.03,0-5.5-2.47-5.5-5.5s2.47-5.5,5.5-5.5c.32,0,.62.04.88.09.43.07.76.4.83.83.24,1.49,1.4,2.65,2.88,2.88.43.07.76.4.83.83.04.27.08.55.08.87,0,3.03-2.47,5.5-5.5,5.5Z"/>
  </g>
</svg>