<?xml version="1.0" encoding="UTF-8"?>
<svg id="OBJECT" xmlns="http://www.w3.org/2000/svg" viewBox="0 0 32 32">
  <defs>
    <style>
      .cls-1 {
        fill: #FD4360;
      }

      .cls-1, .cls-2 {
        stroke-width: 0px;
      }

      .cls-2 {
        fill: #dadada;
      }
    </style>
  </defs>
  <g>
    <path class="cls-2" d="m30.91,15.58c-3.06-6.52-8.77-10.58-14.91-10.58S4.15,9.05,1.09,15.58c-.13.27-.13.58,0,.85,3.06,6.52,8.77,10.58,14.91,10.58s11.85-4.05,14.91-10.58c.13-.27.13-.58,0-.85Zm-14.91,9.42c-5.22,0-10.12-3.44-12.89-9,2.77-5.56,7.67-9,12.89-9s10.12,3.44,12.89,9c-2.77,5.56-7.67,9-12.89,9Z"/>
    <path class="cls-2" d="m16,4c.55,0,1-.45,1-1v-1c0-.55-.45-1-1-1s-1,.45-1,1v1c0,.55.45,1,1,1Z"/>
    <path class="cls-2" d="m8.38,4.37c.19.32.52.5.87.5.17,0,.34-.04.5-.13.48-.28.64-.89.37-1.37l-.5-.87c-.28-.48-.89-.64-1.37-.37-.48.28-.64.89-.37,1.37l.5.87Z"/>
    <path class="cls-2" d="m22.25,4.73c.16.09.33.13.5.13.35,0,.68-.18.87-.5l.5-.87c.28-.48.11-1.09-.37-1.37-.48-.28-1.09-.11-1.37.37l-.5.87c-.28.48-.11,1.09.37,1.37Z"/>
    <path class="cls-2" d="m16,28c-.55,0-1,.45-1,1v1c0,.55.45,1,1,1s1-.45,1-1v-1c0-.55-.45-1-1-1Z"/>
    <path class="cls-2" d="m9.75,27.27c-.48-.28-1.09-.11-1.37.37l-.5.87c-.28.48-.11,1.09.37,1.37.16.09.33.13.5.13.35,0,.68-.18.87-.5l.5-.87c.28-.48.11-1.09-.37-1.37Z"/>
    <path class="cls-2" d="m23.62,27.63c-.28-.48-.89-.64-1.37-.37-.48.28-.64.89-.37,1.37l.5.87c.19.32.52.5.87.5.17,0,.34-.04.5-.13.48-.28.64-.89.37-1.37l-.5-.87Z"/>
  </g>
  <g>
    <path class="cls-1" d="m16.33,11.5h-7.33c-.55,0-1,.45-1,1v7c0,.55.45,1,1,1h7.33c.55,0,1-.45,1-1v-7c0-.55-.45-1-1-1Zm-.5,3.29c0,.55-.45,1-1,1s-1-.45-1-1v-.58c0-.55.45-1,1-1s1,.45,1,1v.58Z"/>
    <path class="cls-1" d="m23.52,10.9c-.3-.18-.67-.2-.98-.04l-3.21,1.64v7.01l3.21,1.64c.14.07.3.11.45.11.18,0,.36-.05.52-.15.3-.18.48-.5.48-.85v-8.5c0-.35-.18-.67-.48-.85Z"/>
  </g>
</svg>