<?xml version="1.0" encoding="UTF-8"?>
<svg id="OBJECT" xmlns="http://www.w3.org/2000/svg" viewBox="0 0 32 32">
  <defs>
    <style>
      .cls-1 {
        fill: #FD4360;
      }

      .cls-1, .cls-2 {
        stroke-width: 0px;
      }

      .cls-2 {
        fill: #dadada;
      }
    </style>
  </defs>
  <path class="cls-1" d="m30,13.4c.55,0,1-.45,1-1v-4.4c0-.55-.45-1-1-1h-7v18h7c.55,0,1-.45,1-1v-4.4c0-.55-.45-1-1-1-1.43,0-2.6-1.17-2.6-2.6s1.17-2.6,2.6-2.6Z"/>
  <g>
    <path class="cls-2" d="m20,23H3v-2.51c2.06-.46,3.6-2.3,3.6-4.49s-1.54-4.03-3.6-4.49v-2.51h17c.55,0,1-.45,1-1s-.45-1-1-1H2c-.55,0-1,.45-1,1v4.4c0,.55.45,1,1,1,1.43,0,2.6,1.17,2.6,2.6s-1.17,2.6-2.6,2.6c-.55,0-1,.45-1,1v4.4c0,.55.45,1,1,1h18c.55,0,1-.45,1-1s-.45-1-1-1Z"/>
    <path class="cls-2" d="m18.21,12.29c-.39-.39-1.02-.39-1.41,0l-6,6c-.39.39-.39,1.02,0,1.41.2.2.45.29.71.29s.51-.1.71-.29l6-6c.39-.39.39-1.02,0-1.41Z"/>
    <path class="cls-2" d="m16.5,18.06v.94c0,.55.45,1,1,1s1-.45,1-1v-.94c0-.55-.45-1-1-1s-1,.45-1,1Z"/>
    <path class="cls-2" d="m12.5,13.94v-.94c0-.55-.45-1-1-1s-1,.45-1,1v.94c0,.55.45,1,1,1s1-.45,1-1Z"/>
  </g>
</svg>