<?xml version="1.0" encoding="UTF-8"?>
<svg id="OBJECT" xmlns="http://www.w3.org/2000/svg" viewBox="0 0 32 32">
  <defs>
    <style>
      .cls-1 {
        fill: #FD4360;
      }

      .cls-1, .cls-2 {
        stroke-width: 0px;
      }

      .cls-2 {
        fill: #dadada;
      }
    </style>
  </defs>
  <g>
    <path class="cls-2" d="m30.33,6.68c-.4-.14-.85-.01-1.11.32-2.77,3.47-7.83,5.62-13.22,5.62S5.55,10.47,2.78,7c-.26-.33-.71-.46-1.11-.32-.4.14-.67.52-.67.94v16.38c0,.23.08.45.22.62,3.19,3.99,8.71,6.38,14.78,6.38s11.6-2.38,14.78-6.38c.14-.18.22-.4.22-.62V7.62c0-.42-.27-.8-.67-.94Zm-1.33,16.96c-2.81,3.31-7.75,5.36-13,5.36s-10.19-2.05-13-5.36v-13.54c3.26,2.86,7.94,4.52,13,4.52s9.74-1.65,13-4.52v13.54Z"/>
    <path class="cls-2" d="m25.9,16.03c.14,0,.28-.03.42-.09.21-.1.42-.2.63-.3.5-.25.7-.85.45-1.34-.24-.49-.85-.7-1.34-.45-.19.09-.38.19-.57.27-.5.23-.72.82-.49,1.33.17.37.53.58.91.58Z"/>
    <path class="cls-2" d="m22.95,17.13c.09,0,.19-.01.29-.04.18-.06.37-.11.55-.17.53-.17.81-.73.64-1.26-.17-.53-.73-.81-1.26-.64-.17.05-.34.11-.51.16-.53.16-.83.72-.67,1.24.13.43.53.71.96.71Z"/>
    <path class="cls-2" d="m12.82,17.47c-.94.58-1.5,1.58-1.5,2.69v3.69c0,1.1.56,2.11,1.5,2.69.51.32,1.08.47,1.66.47.48,0,.96-.11,1.41-.34l3.69-1.84c1.08-.54,1.75-1.62,1.75-2.82s-.67-2.29-1.75-2.82l-3.69-1.84c-.99-.49-2.13-.44-3.07.14Zm6.5,4.53c0,.44-.25.84-.64,1.04h0l-3.69,1.84c-.37.18-.78.17-1.13-.05-.35-.22-.55-.57-.55-.98v-3.69c0-.41.2-.77.55-.98.19-.12.4-.18.61-.18.18,0,.35.04.52.13l3.69,1.84c.4.2.64.59.64,1.04Z"/>
  </g>
  <g>
    <path class="cls-1" d="m11.87,1.02c-3.24.61-6.1,1.91-8.35,3.72,2.41,2.96,5.77,4.94,9.53,5.62V2c0-.3-.13-.58-.36-.77-.23-.19-.53-.27-.82-.21Z"/>
    <path class="cls-1" d="m20.24,1.03c-.29-.06-.6.02-.83.21-.23.19-.36.47-.36.77v8.32c3.72-.7,7.04-2.67,9.43-5.6-2.23-1.79-5.05-3.08-8.24-3.7Z"/>
  </g>
</svg>