<?xml version="1.0" encoding="UTF-8"?>
<svg id="OBJECT" xmlns="http://www.w3.org/2000/svg" viewBox="0 0 32 32">
  <defs>
    <style>
      .cls-1 {
        fill: #FD4360;
      }

      .cls-1, .cls-2 {
        stroke-width: 0px;
      }

      .cls-2 {
        fill: #dadada;
      }
    </style>
  </defs>
  <g>
    <path class="cls-2" d="m8.32,12.25c2.31-1.47,4.96-2.25,7.68-2.25s5.37.78,7.68,2.25c.17.11.35.16.54.16.33,0,.65-.16.84-.46.3-.47.16-1.08-.3-1.38-2.63-1.68-5.66-2.57-8.76-2.57s-6.13.89-8.76,2.57c-.47.3-.6.92-.3,1.38.3.47.92.6,1.38.3Z"/>
    <path class="cls-2" d="m23.68,23.75c-2.31,1.47-4.96,2.25-7.68,2.25s-5.37-.78-7.68-2.25c-.46-.3-1.08-.16-1.38.3-.3.46-.16,1.08.3,1.38,2.63,1.68,5.66,2.57,8.76,2.57s6.13-.89,8.76-2.57c.47-.3.6-.92.3-1.38s-.92-.6-1.38-.3Z"/>
    <path class="cls-2" d="m16,7c.55,0,1-.45,1-1v-1c0-.55-.45-1-1-1s-1,.45-1,1v1c0,.55.45,1,1,1Z"/>
    <path class="cls-2" d="m20.99,7.88c.11.04.23.06.34.06.41,0,.79-.25.94-.66l.34-.94c.19-.52-.08-1.09-.6-1.28-.52-.19-1.09.08-1.28.6l-.34.94c-.19.52.08,1.09.6,1.28Z"/>
    <path class="cls-2" d="m9.73,7.28c.15.41.53.66.94.66.11,0,.23-.02.34-.06.52-.19.79-.76.6-1.28l-.34-.94c-.19-.52-.76-.79-1.28-.6-.52.19-.79.76-.6,1.28l.34.94Z"/>
    <path class="cls-2" d="m16,23.8c.55,0,1-.45,1-1v-7.19l1.29,1.29c.2.2.45.29.71.29s.51-.1.71-.29c.39-.39.39-1.02,0-1.41l-3-3c-.39-.39-1.02-.39-1.41,0l-3,3c-.39.39-.39,1.02,0,1.41s1.02.39,1.41,0l1.29-1.29v7.19c0,.55.45,1,1,1Z"/>
  </g>
  <g>
    <path class="cls-1" d="m4.45,12.8c-1.35,1.35-2.49,2.95-3.36,4.77-.13.27-.13.59,0,.86.86,1.82,2.01,3.42,3.36,4.77-.28-1.69-.44-3.44-.44-5.2s.16-3.51.44-5.2Z"/>
    <path class="cls-1" d="m30.9,17.57c-.86-1.82-2.01-3.42-3.36-4.77.28,1.69.44,3.43.44,5.2s-.16,3.51-.44,5.2c1.35-1.35,2.49-2.95,3.36-4.77.13-.27.13-.59,0-.86Z"/>
  </g>
</svg>