<?xml version="1.0" encoding="UTF-8"?>
<svg id="OBJECT" xmlns="http://www.w3.org/2000/svg" viewBox="0 0 32 32">
  <defs>
    <style>
      .cls-1 {
        fill: #FD4360;
      }

      .cls-1, .cls-2 {
        stroke-width: 0px;
      }

      .cls-2 {
        fill: #dadada;
      }
    </style>
  </defs>
  <g>
    <path class="cls-2" d="m30.9,15.56c-3.06-6.2-8.77-10.06-14.9-10.06S4.16,9.35,1.1,15.56c-.14.28-.14.61,0,.88,3.06,6.2,8.77,10.06,14.9,10.06s11.84-3.85,14.9-10.06c.14-.28.14-.61,0-.88Zm-14.9,8.94c-5.22,0-10.11-3.24-12.88-8.5,2.77-5.26,7.66-8.5,12.88-8.5s10.11,3.24,12.88,8.5c-2.77,5.26-7.66,8.5-12.88,8.5Z"/>
    <path class="cls-2" d="m16,4c.55,0,1-.45,1-1v-1c0-.55-.45-1-1-1s-1,.45-1,1v1c0,.55.45,1,1,1Z"/>
    <path class="cls-2" d="m8.35,4.47c.2.26.5.4.8.4.21,0,.42-.07.6-.2.44-.33.53-.96.2-1.4l-.65-.87c-.33-.44-.96-.53-1.4-.2-.44.33-.53.96-.2,1.4l.65.87Z"/>
    <path class="cls-2" d="m22.85,4.87c.3,0,.6-.14.8-.4l.65-.87c.33-.44.24-1.07-.2-1.4-.44-.33-1.07-.24-1.4.2l-.65.87c-.33.44-.24,1.07.2,1.4.18.14.39.2.6.2Z"/>
    <path class="cls-2" d="m16,28c-.55,0-1,.45-1,1v1c0,.55.45,1,1,1s1-.45,1-1v-1c0-.55-.45-1-1-1Z"/>
    <path class="cls-2" d="m8.35,27.53l-.65.87c-.33.44-.24,1.07.2,1.4.18.14.39.2.6.2.3,0,.6-.14.8-.4l.65-.87c.33-.44.24-1.07-.2-1.4-.44-.33-1.07-.24-1.4.2Z"/>
    <path class="cls-2" d="m23.65,27.53c-.33-.44-.96-.53-1.4-.2-.44.33-.53.96-.2,1.4l.65.87c.2.26.5.4.8.4.21,0,.42-.07.6-.2.44-.33.53-.96.2-1.4l-.65-.87Z"/>
  </g>
  <path class="cls-1" d="m16,9c-3.86,0-7,3.14-7,7s3.14,7,7,7,7-3.14,7-7-3.14-7-7-7Zm2.42,9.42c-.2.2-.45.29-.71.29s-.51-.1-.71-.29l-1.71-1.71c-.19-.19-.29-.44-.29-.71v-2.57c0-.55.45-1,1-1s1,.45,1,1v2.16l1.42,1.42c.39.39.39,1.02,0,1.41Z"/>
</svg>