<?xml version="1.0" encoding="UTF-8"?>
<svg id="OBJECT" xmlns="http://www.w3.org/2000/svg" viewBox="0 0 512 512">
  <defs>
    <style>
      .cls-1 {
        fill: #FD4360;
      }

      .cls-2 {
        fill: #dadada;
      }
    </style>
  </defs>
  <g>
    <path class="cls-2" d="M511.24,266.14l-44.77-167.09c-3.13-11.67-15.17-18.62-26.84-15.5l-32.49,8.71c-1.92,.52-3.56,1.77-4.55,3.49s-1.26,3.77-.75,5.69l5.52,20.61-252.67,67.7c-14.23,3.81-22.71,18.49-18.89,32.73l1.79,6.68-84.83,22.73-.55-2.04c-2.44-9.11-11.84-14.54-20.96-12.1l-18.57,4.97c-4.41,1.18-8.1,4.01-10.39,7.97-2.29,3.96-2.89,8.57-1.71,12.98l24.87,92.83c2.05,7.64,8.98,12.68,16.53,12.68,1.46,0,2.95-.19,4.42-.58l18.57-4.97c9.11-2.44,14.54-11.84,12.1-20.96l-.55-2.04,84.83-22.73,1.79,6.68c3.2,11.92,14.02,19.81,25.82,19.81,2.28,0,4.6-.29,6.91-.91l11.87-3.18c1.19,2.77,2.62,5.41,4.25,7.91l-80.48,148.79h-15.53c-4.14,0-7.5,3.36-7.5,7.5s3.36,7.5,7.5,7.5h90c4.14,0,7.5-3.36,7.5-7.5s-3.36-7.5-7.5-7.5h-8.58l25.31-58.5h66.54l25.31,58.5h-8.58c-4.14,0-7.5,3.36-7.5,7.5s3.36,7.5,7.5,7.5h90c4.14,0,7.5-3.36,7.5-7.5s-3.36-7.5-7.5-7.5h-15.53l-80.48-148.79c5.37-8.23,8.51-18.05,8.51-28.6,0-2.1-.14-4.17-.38-6.2l140.43-37.63,5.52,20.6c.9,3.35,3.93,5.56,7.24,5.56,.64,0,1.3-.08,1.95-.26l32.49-8.71h0c5.65-1.52,10.38-5.14,13.31-10.21,2.93-5.07,3.7-10.98,2.19-16.63ZM61.1,349.15l-18.57,4.97c-1.12,.3-2.28-.37-2.58-1.49l-24.87-92.83c-.19-.7,.01-1.26,.21-1.6s.58-.8,1.28-.98l18.57-4.97c.2-.05,.38-.08,.56-.08,.44,0,.8,.14,1.05,.29,.35,.2,.8,.58,.98,1.28l24.87,92.83c.3,1.12-.37,2.28-1.49,2.58Zm11.55-23l-16.02-59.77,84.83-22.73,16.02,59.77-84.83,22.73Zm183.35,30.96c-20.68,0-37.5-16.82-37.5-37.5s16.82-37.5,37.5-37.5,37.5,16.82,37.5,37.5-16.82,37.5-37.5,37.5Zm-107.42,139.89l74.04-136.89c4.2,3.46,8.95,6.28,14.08,8.32l-55.63,128.58h-32.49Zm80.64-73.5l22.32-51.59c1.47,.12,2.95,.2,4.46,.2s2.99-.08,4.46-.2l22.32,51.59h-53.56Zm101.71,73.5l-55.63-128.58c5.14-2.04,9.89-4.85,14.08-8.32l74.04,136.89h-32.49Zm-74.93-229.89c-28.95,0-52.5,23.55-52.5,52.5,0,2.1,.14,4.17,.38,6.2l-11.88,3.18c-6.24,1.67-12.68-2.05-14.35-8.29l-27.36-102.11c-1.67-6.24,2.05-12.68,8.29-14.35l206.26-55.27,33.43,124.75-94.02,25.19c-8.05-18.69-26.64-31.81-48.24-31.81Zm156.75,2.73l-33.43-124.75,31.92-8.55,33.43,124.75-31.92,8.55Zm83.31,5.43c-.92,1.6-2.42,2.74-4.2,3.22l-25.25,6.76-48.35-180.45,25.25-6.76c3.68-.99,7.48,1.21,8.47,4.89l44.77,167.09c.48,1.78,.23,3.65-.69,5.25Z"/>
    <path class="cls-2" d="M355.43,174.79c-1.07-4-5.19-6.38-9.19-5.3l-4.31,1.15c-4,1.07-6.38,5.18-5.3,9.19,.9,3.35,3.93,5.56,7.24,5.56,.64,0,1.3-.08,1.95-.26l4.31-1.15c4-1.07,6.38-5.18,5.3-9.19Z"/>
    <path class="cls-2" d="M318.8,176.84l-94.84,25.41c-4,1.07-6.38,5.18-5.3,9.19,.9,3.35,3.93,5.56,7.24,5.56,.64,0,1.3-.08,1.95-.26l94.84-25.41c4-1.07,6.38-5.18,5.3-9.19-1.07-4-5.19-6.37-9.19-5.3Z"/>
    <path class="cls-2" d="M273.8,301.81c-2.93-2.93-7.68-2.93-10.61,0l-7.2,7.2-7.2-7.2c-2.93-2.93-7.68-2.93-10.61,0-2.93,2.93-2.93,7.68,0,10.61l7.2,7.2-7.2,7.2c-2.93,2.93-2.93,7.68,0,10.61,1.46,1.46,3.38,2.2,5.3,2.2s3.84-.73,5.3-2.2l7.2-7.2,7.2,7.2c1.46,1.46,3.38,2.2,5.3,2.2s3.84-.73,5.3-2.2c2.93-2.93,2.93-7.68,0-10.61l-7.2-7.2,7.2-7.2c2.93-2.93,2.93-7.68,0-10.61Z"/>
  </g>
  <path class="cls-1" d="M22.5,125h63.98c4.14,0,7.5,3.36,7.5,7.5s-3.36,7.5-7.5,7.5h-9.82c17.04,32.26,52.98,49.25,54.8,50.09,1.01,.47,2.09,.7,3.15,.7,2.03,0,4.02-.82,5.47-2.37,2.21-2.36,2.66-5.87,1.12-8.71-11.01-20.22-8.48-38.65-4.08-54.7h65.38c12.41,0,22.5-10.09,22.5-22.5V22.5c0-12.41-10.09-22.5-22.5-22.5H22.5C10.09,0,0,10.09,0,22.5V102.5c0,12.41,10.09,22.5,22.5,22.5Zm165-35h-5c-4.14,0-7.5-3.36-7.5-7.5s3.36-7.5,7.5-7.5h5c4.14,0,7.5,3.36,7.5,7.5s-3.36,7.5-7.5,7.5ZM67.5,35h120c4.14,0,7.5,3.36,7.5,7.5s-3.36,7.5-7.5,7.5H67.5c-4.14,0-7.5-3.36-7.5-7.5s3.36-7.5,7.5-7.5Zm-30,0h5c4.14,0,7.5,3.36,7.5,7.5s-3.36,7.5-7.5,7.5h-5c-4.14,0-7.5-3.36-7.5-7.5s3.36-7.5,7.5-7.5Zm0,40h120c4.14,0,7.5,3.36,7.5,7.5s-3.36,7.5-7.5,7.5H37.5c-4.14,0-7.5-3.36-7.5-7.5s3.36-7.5,7.5-7.5Z"/>
</svg>