<?xml version="1.0" encoding="UTF-8"?>
<svg id="OBJECT" xmlns="http://www.w3.org/2000/svg" viewBox="0 0 32 32">
  <defs>
    <style>
      .cls-1 {
        fill: #FD4360;
      }

      .cls-2 {
        fill: #dadada;
      }
    </style>
  </defs>
  <g>
    <path class="cls-2" d="m30.92,15.61c-2.47-5.84-8.32-9.61-14.92-9.61S3.54,9.77,1.08,15.61c-.11.25-.11.53,0,.78,2.47,5.84,8.32,9.61,14.92,9.61s12.46-3.77,14.92-9.61c.11-.25.11-.53,0-.78Zm-14.92,8.39c-5.64,0-10.66-3.13-12.91-8,2.25-4.87,7.26-8,12.91-8s10.66,3.13,12.91,8c-2.25,4.87-7.26,8-12.91,8Z"/>
    <path class="cls-2" d="m16,4.67c.55,0,1-.45,1-1v-1.67c0-.55-.45-1-1-1s-1,.45-1,1v1.67c0,.55.45,1,1,1Z"/>
    <path class="cls-2" d="m8.75,5.21c.19.19.45.29.7.29s.51-.1.71-.3c.39-.39.39-1.03,0-1.41l-1.45-1.44c-.39-.39-1.02-.39-1.41,0-.39.39-.39,1.03,0,1.41l1.45,1.44Z"/>
    <path class="cls-2" d="m22.55,5.5c.25,0,.51-.1.7-.29l1.45-1.44c.39-.39.39-1.02,0-1.41-.39-.39-1.02-.39-1.41,0l-1.45,1.44c-.39.39-.39,1.02,0,1.41.2.2.45.3.71.3Z"/>
    <path class="cls-2" d="m16,27.33c-.55,0-1,.45-1,1v1.67c0,.55.45,1,1,1s1-.45,1-1v-1.67c0-.55-.45-1-1-1Z"/>
    <path class="cls-2" d="m8.75,26.79l-1.45,1.44c-.39.39-.39,1.02,0,1.41.2.2.45.3.71.3s.51-.1.7-.29l1.45-1.44c.39-.39.39-1.02,0-1.41-.39-.39-1.02-.39-1.41,0Z"/>
    <path class="cls-2" d="m23.25,26.79c-.39-.39-1.02-.39-1.41,0-.39.39-.39,1.03,0,1.41l1.45,1.44c.19.19.45.29.7.29s.51-.1.71-.3c.39-.39.39-1.03,0-1.41l-1.45-1.44Z"/>
  </g>
  <path class="cls-1" d="m22,15h-1.1c-.4-1.96-1.94-3.5-3.9-3.9v-1.1c0-.55-.45-1-1-1s-1,.45-1,1v1.1c-1.96.4-3.5,1.94-3.9,3.9h-1.1c-.55,0-1,.45-1,1s.45,1,1,1h1.1c.4,1.96,1.94,3.5,3.9,3.9v1.1c0,.55.45,1,1,1s1-.45,1-1v-1.1c1.96-.4,3.5-1.94,3.9-3.9h1.1c.55,0,1-.45,1-1s-.45-1-1-1Z"/>
</svg>