<?xml version="1.0" encoding="UTF-8"?>
<svg id="OBJECT" xmlns="http://www.w3.org/2000/svg" viewBox="0 0 32 32">
  <defs>
    <style>
      .cls-1 {
        fill: #FD4360;
      }

      .cls-1, .cls-2 {
        stroke-width: 0px;
      }

      .cls-2 {
        fill: #dadada;
      }
    </style>
  </defs>
  <g>
    <path class="cls-2" d="m30.89,15.55c-2.12-4.27-5.71-7.36-9.89-8.74v-1.21c0-.47.33-.87.79-.97l3.62-.8c.54-.12.88-.65.76-1.19-.12-.54-.65-.88-1.19-.76l-3.63.8c-1.38.32-2.35,1.52-2.35,2.93v.69c-.66-.13-1.32-.22-2-.26V2c0-.55-.45-1-1-1s-1,.45-1,1v4.04c-.68.04-1.34.13-2,.26v-.69c0-1.41-.97-2.61-2.35-2.93l-3.62-.8c-.54-.12-1.07.22-1.19.76-.12.54.22,1.07.76,1.19l3.61.8c.47.11.79.51.79.98v1.21c-4.19,1.38-7.77,4.47-9.89,8.74-.14.28-.14.61,0,.89,2.12,4.27,5.71,7.36,9.89,8.74v1.21c0,.47-.33.87-.79.97l-3.62.8c-.54.12-.88.65-.76,1.19.1.47.52.78.98.78.07,0,.14,0,.22-.02l3.63-.8c1.38-.32,2.35-1.52,2.35-2.93v-.69c.66.13,1.32.22,2,.26v4.04c0,.55.45,1,1,1s1-.45,1-1v-4.04c.68-.04,1.34-.13,2-.26v.69c0,1.41.97,2.61,2.35,2.93l3.62.8c.07.02.15.02.22.02.46,0,.87-.32.98-.78.12-.54-.22-1.07-.76-1.19l-3.61-.8c-.47-.11-.79-.51-.79-.98v-1.21c4.19-1.38,7.77-4.47,9.89-8.74.14-.28.14-.61,0-.89Zm-9.89,7.51v-.57c0-.55-.45-1-1-1s-1,.45-1,1v1.17c-.66.14-1.32.24-2,.29v-.46c0-.55-.45-1-1-1s-1,.45-1,1v.46c-.68-.05-1.34-.15-2-.29v-1.17c0-.55-.45-1-1-1s-1,.45-1,1v.57c-3.28-1.26-6.08-3.73-7.87-7.07,1.79-3.34,4.6-5.81,7.87-7.07v.57c0,.55.45,1,1,1s1-.45,1-1v-1.17c.66-.14,1.32-.24,2-.29v.47c0,.55.45,1,1,1s1-.45,1-1v-.47c.68.05,1.34.15,2,.29v1.17c0,.55.45,1,1,1s1-.45,1-1v-.57c3.28,1.26,6.08,3.73,7.87,7.07-1.79,3.34-4.6,5.81-7.87,7.07Z"/>
    <path class="cls-2" d="m28.44,3.13c.07,0,.14,0,.22-.02l.56-.12c.54-.12.88-.65.76-1.19s-.65-.88-1.19-.76l-.56.12c-.54.12-.88.65-.76,1.19.1.47.52.78.98.78Z"/>
    <path class="cls-2" d="m2.78,2.98l.56.12c.07.02.15.02.22.02.46,0,.87-.32.98-.78.12-.54-.22-1.07-.76-1.19l-.56-.12c-.54-.12-1.07.22-1.19.76-.12.54.22,1.07.76,1.19Z"/>
    <path class="cls-2" d="m29.22,29.02l-.56-.12c-.54-.12-1.07.22-1.19.76-.12.54.22,1.07.76,1.19l.56.12c.07.02.15.02.22.02.46,0,.87-.32.98-.78.12-.54-.22-1.07-.76-1.19Z"/>
    <path class="cls-2" d="m3.35,28.9l-.56.12c-.54.12-.88.65-.76,1.19.1.47.52.78.98.78.07,0,.14,0,.22-.02l.56-.12c.54-.12.88-.65.76-1.19-.12-.54-.65-.88-1.19-.76Z"/>
    <path class="cls-2" d="m24.5,15.5v1c0,.55.45,1,1,1s1-.45,1-1v-1c0-.55-.45-1-1-1s-1,.45-1,1Z"/>
    <path class="cls-2" d="m6.5,14.5c-.55,0-1,.45-1,1v1c0,.55.45,1,1,1s1-.45,1-1v-1c0-.55-.45-1-1-1Z"/>
  </g>
  <path class="cls-1" d="m16,10c-3.31,0-6,2.69-6,6s2.69,6,6,6,6-2.69,6-6-2.69-6-6-6Zm2.62,7.2c.39.39.39,1.02,0,1.41-.2.2-.45.29-.71.29s-.51-.1-.71-.29l-1.2-1.2-1.2,1.2c-.2.2-.45.29-.71.29s-.51-.1-.71-.29c-.39-.39-.39-1.02,0-1.41l1.2-1.2-1.2-1.2c-.39-.39-.39-1.02,0-1.41s1.02-.39,1.41,0l1.2,1.2,1.2-1.2c.39-.39,1.02-.39,1.41,0s.39,1.02,0,1.41l-1.2,1.2,1.2,1.2Z"/>
</svg>