<?xml version="1.0" encoding="UTF-8"?>
<svg id="OBJECT" xmlns="http://www.w3.org/2000/svg" viewBox="0 0 32 32">
  <defs>
    <style>
      .cls-1 {
        fill: #FD4360;
      }

      .cls-1, .cls-2 {
        stroke-width: 0px;
      }

      .cls-2 {
        fill: #dadada;
      }
    </style>
  </defs>
  <g>
    <path class="cls-2" d="m30.93,15.64c-2.35-6.06-8.35-10.14-14.93-10.14S3.42,9.57,1.07,15.64c-.09.23-.09.49,0,.72,2.35,6.06,8.35,10.14,14.93,10.14s12.58-4.07,14.93-10.14c.09-.23.09-.49,0-.72Zm-14.93,8.86c-5.63,0-10.77-3.4-12.92-8.5,2.15-5.1,7.29-8.5,12.92-8.5s10.77,3.4,12.92,8.5c-2.15,5.1-7.29,8.5-12.92,8.5Z"/>
    <path class="cls-2" d="m16,4c.55,0,1-.45,1-1v-1c0-.55-.45-1-1-1s-1,.45-1,1v1c0,.55.45,1,1,1Z"/>
    <path class="cls-2" d="m6.96,4.36c.16.39.53.62.93.62.12,0,.25-.02.38-.07.51-.21.76-.79.55-1.3l-.39-.97c-.21-.51-.79-.76-1.3-.55-.51.21-.76.79-.55,1.3l.39.97Z"/>
    <path class="cls-2" d="m23.73,4.91c.12.05.25.07.38.07.4,0,.77-.24.93-.62l.39-.97c.21-.51-.04-1.1-.55-1.3-.51-.21-1.09.04-1.3.55l-.39.97c-.21.51.04,1.1.55,1.3Z"/>
    <path class="cls-2" d="m16,28c-.55,0-1,.45-1,1v1c0,.55.45,1,1,1s1-.45,1-1v-1c0-.55-.45-1-1-1Z"/>
    <path class="cls-2" d="m8.27,27.09c-.51-.21-1.09.04-1.3.55l-.39.97c-.21.51.04,1.1.55,1.3.12.05.25.07.38.07.4,0,.77-.24.93-.62l.39-.97c.21-.51-.04-1.1-.55-1.3Z"/>
    <path class="cls-2" d="m25.04,27.64c-.21-.51-.79-.76-1.3-.55-.51.21-.76.79-.55,1.3l.39.97c.16.39.53.62.93.62.12,0,.25-.02.38-.07.51-.21.76-.79.55-1.3l-.39-.97Z"/>
  </g>
  <g>
    <path class="cls-1" d="m16,20c-3.13,0-5.67-1.15-7-2.97v.97c0,2.28,3.01,4,7,4s7-1.72,7-4v-.97c-1.33,1.82-3.87,2.97-7,2.97Z"/>
    <path class="cls-1" d="m16,18c3.99,0,7-1.72,7-4s-3.01-4-7-4-7,1.72-7,4,3.01,4,7,4Zm1.56-5h.44c.55,0,1,.45,1,1s-.45,1-1,1h-.44c-.55,0-1-.45-1-1s.45-1,1-1Zm-3.56,0h.44c.55,0,1,.45,1,1s-.45,1-1,1h-.44c-.55,0-1-.45-1-1s.45-1,1-1Z"/>
  </g>
</svg>