<?xml version="1.0" encoding="UTF-8"?>
<svg id="OBJECT" xmlns="http://www.w3.org/2000/svg" viewBox="0 0 32 32">
  <defs>
    <style>
      .cls-1 {
        fill: #FD4360;
      }

      .cls-1, .cls-2 {
        stroke-width: 0px;
      }

      .cls-2 {
        fill: #dadada;
      }
    </style>
  </defs>
  <g>
    <path class="cls-2" d="m9.76,23.6c-.55,0-1,.45-1,1,0,.4.24.75.59.92,2.1.99,4.34,1.48,6.65,1.48s4.55-.5,6.65-1.48c.34-.16.59-.51.59-.92,0-.55-.45-1-1-1-.19,0-.37.05-.52.14-3.62,1.67-7.82,1.67-11.45,0-.15-.09-.33-.14-.52-.14Z"/>
    <path class="cls-2" d="m22.65,6.48c-4.21-1.97-9.1-1.97-13.31,0-.34.16-.59.51-.59.92,0,.55.45,1,1,1,.19,0,.37-.05.52-.14,3.62-1.67,7.82-1.67,11.45,0,.15.09.33.14.52.14.55,0,1-.45,1-1,0-.4-.24-.75-.59-.92Z"/>
    <path class="cls-2" d="m16,4c.55,0,1-.45,1-1v-1c0-.55-.45-1-1-1s-1,.45-1,1v1c0,.55.45,1,1,1Z"/>
    <path class="cls-2" d="m7.43,4.34c.15.4.53.64.93.64.12,0,.24-.02.36-.07.52-.2.78-.77.58-1.29l-.37-.97c-.2-.52-.78-.78-1.29-.58-.52.2-.78.77-.58,1.29l.37.97Z"/>
    <path class="cls-2" d="m23.28,4.92c.12.04.24.07.36.07.4,0,.78-.25.93-.64l.37-.97c.2-.52-.06-1.09-.58-1.29-.52-.2-1.09.06-1.29.58l-.37.97c-.2.52.06,1.09.58,1.29Z"/>
    <path class="cls-2" d="m16,28c-.55,0-1,.45-1,1v1c0,.55.45,1,1,1s1-.45,1-1v-1c0-.55-.45-1-1-1Z"/>
    <path class="cls-2" d="m8.72,27.08c-.52-.2-1.09.06-1.29.58l-.37.97c-.2.52.06,1.09.58,1.29.12.04.24.07.36.07.4,0,.78-.25.93-.64l.37-.97c.2-.52-.06-1.09-.58-1.29Z"/>
    <path class="cls-2" d="m24.57,27.66c-.2-.52-.78-.78-1.29-.58-.52.2-.78.77-.58,1.29l.37.97c.15.4.53.64.93.64.12,0,.24-.02.36-.07.52-.2.78-.77.58-1.29l-.37-.97Z"/>
    <path class="cls-2" d="m18.25,18.19c.25,0,.5-.09.7-.29.39-.39.4-1.02.02-1.41-.79-.81-1.84-1.25-2.96-1.25s-2.17.45-2.96,1.25c-.39.4-.38,1.03.02,1.41.4.39,1.03.38,1.41-.02.82-.84,2.25-.84,3.07,0,.2.2.46.3.71.3Z"/>
    <path class="cls-2" d="m20.5,14.86c.25,0,.5-.09.7-.29.39-.39.4-1.02.02-1.41-1.39-1.42-3.24-2.21-5.21-2.21s-3.82.78-5.21,2.21c-.39.39-.38,1.03.02,1.41.4.39,1.03.38,1.41-.02,1.01-1.04,2.36-1.6,3.79-1.6s2.77.57,3.79,1.6c.2.2.46.3.71.3Z"/>
    <path class="cls-2" d="m15.75,19.05c-.55,0-1,.45-1,1s.45,1,1,1h.5c.55,0,1-.45,1-1s-.45-1-1-1h-.5Z"/>
  </g>
  <g>
    <path class="cls-1" d="m1.06,15.65c-.08.22-.08.47,0,.69.95,2.58,2.51,4.82,4.46,6.57-.81-2.11-1.25-4.46-1.25-6.91s.44-4.8,1.25-6.91c-1.95,1.75-3.51,3.98-4.46,6.57Z"/>
    <path class="cls-1" d="m30.94,15.65c-.95-2.58-2.51-4.82-4.46-6.57.81,2.11,1.25,4.46,1.25,6.91s-.44,4.8-1.25,6.91c1.95-1.75,3.51-3.98,4.46-6.57.08-.22.08-.47,0-.69Z"/>
  </g>
</svg>