<?xml version="1.0" encoding="UTF-8"?>
<svg id="OBJECT" xmlns="http://www.w3.org/2000/svg" viewBox="0 0 32 32">
  <defs>
    <style>
      .cls-1 {
        fill: #FD4360;
      }

      .cls-1, .cls-2 {
        stroke-width: 0px;
      }

      .cls-2 {
        fill: #dadada;
      }
    </style>
  </defs>
  <g>
    <path class="cls-2" d="m30.92,15.62c-2.83-6.86-8.55-11.12-14.92-11.12S3.91,8.76,1.08,15.62c-.1.24-.1.52,0,.76,2.83,6.86,8.55,11.12,14.92,11.12s12.09-4.26,14.92-11.12c.1-.24.1-.52,0-.76Zm-14.92,9.88c-5.43,0-10.35-3.63-12.91-9.5,2.57-5.87,7.48-9.5,12.91-9.5s10.35,3.63,12.91,9.5c-2.57,5.87-7.48,9.5-12.91,9.5Z"/>
    <path class="cls-2" d="m16,4.1c.55,0,1-.45,1-1v-1.1c0-.55-.45-1-1-1s-1,.45-1,1v1.1c0,.55.45,1,1,1Z"/>
    <path class="cls-2" d="m8.55,3.93c.17.36.53.57.9.57.14,0,.29-.03.43-.1.5-.24.71-.83.47-1.33l-.45-.95c-.24-.5-.84-.71-1.33-.47-.5.24-.71.83-.47,1.33l.45.95Z"/>
    <path class="cls-2" d="m22.12,4.4c.14.07.29.1.43.1.37,0,.73-.21.9-.57l.45-.95c.24-.5.03-1.1-.47-1.33-.5-.24-1.1-.03-1.33.47l-.45.95c-.24.5-.03,1.1.47,1.33Z"/>
    <path class="cls-2" d="m16,27.9c-.55,0-1,.45-1,1v1.1c0,.55.45,1,1,1s1-.45,1-1v-1.1c0-.55-.45-1-1-1Z"/>
    <path class="cls-2" d="m9.88,27.6c-.5-.24-1.09-.03-1.33.47l-.45.95c-.24.5-.03,1.1.47,1.33.14.07.29.1.43.1.37,0,.73-.21.9-.57l.45-.95c.24-.5.03-1.1-.47-1.33Z"/>
    <path class="cls-2" d="m23.45,28.07c-.24-.5-.84-.71-1.33-.47-.5.24-.71.83-.47,1.33l.45.95c.17.36.53.57.9.57.14,0,.29-.03.43-.1.5-.24.71-.83.47-1.33l-.45-.95Z"/>
  </g>
  <g>
    <path class="cls-1" d="m17.19,15.56v-1.31c0-.41-.34-.75-.75-.75h-.87c-.41,0-.75.34-.75.75v1.31c0,.65.53,1.19,1.19,1.19s1.19-.53,1.19-1.19Z"/>
    <path class="cls-1" d="m19.38,20.38c0-.98-.43-1.89-1.17-2.52-.57.55-1.35.9-2.21.9s-1.64-.34-2.21-.9c-.73.63-1.17,1.54-1.17,2.52v2.87c1.03.48,2.17.76,3.38.76s2.35-.28,3.38-.76v-2.87Z"/>
    <path class="cls-1" d="m16,8c-4.41,0-8,3.59-8,8,0,2.34,1.02,4.44,2.62,5.91v-1.53c0-1.74.84-3.33,2.24-4.34-.02-.16-.05-.31-.05-.48v-1.31c0-1.52,1.23-2.75,2.75-2.75h.87c1.52,0,2.75,1.23,2.75,2.75v1.31c0,.16-.02.32-.05.48,1.39,1,2.24,2.6,2.24,4.34v1.53c1.61-1.46,2.62-3.57,2.62-5.91,0-4.41-3.59-8-8-8Z"/>
  </g>
</svg>