<?xml version="1.0" encoding="UTF-8"?>
<svg id="OBJECT" xmlns="http://www.w3.org/2000/svg" viewBox="0 0 32 32">
  <defs>
    <style>
      .cls-1 {
        fill: #FD4360;
      }

      .cls-2 {
        fill: #dadada;
      }
    </style>
  </defs>
  <path class="cls-2" d="M30.92,15.61c-2.48-5.84-8.34-9.61-14.92-9.61S3.56,9.77,1.08,15.61c-.11,.25-.11,.53,0,.78,2.48,5.84,8.34,9.61,14.92,9.61s12.44-3.77,14.92-9.61c.11-.25,.11-.53,0-.78Zm-27.83,.39c.84-1.82,2.07-3.4,3.58-4.66-.44,1.47-.67,3.04-.67,4.66s.23,3.18,.67,4.66c-1.5-1.26-2.73-2.84-3.58-4.66Zm6.52,6.55c-.41-.76-.74-1.57-.99-2.42,.75-.75,1.57-1.38,2.45-1.86,.49-.26,.67-.87,.41-1.35s-.87-.67-1.35-.41c-.71,.38-1.38,.84-2.01,1.36-.08-.61-.12-1.24-.12-1.87,0-2.38,.56-4.63,1.61-6.55,1.94-.93,4.11-1.45,6.39-1.45s4.45,.52,6.39,1.45c1.05,1.92,1.61,4.17,1.61,6.55,0,.63-.04,1.26-.12,1.87-.63-.52-1.3-.99-2.01-1.36-.49-.26-1.09-.08-1.35,.41-.26,.49-.08,1.09,.41,1.35,.89,.47,1.71,1.1,2.45,1.86-.26,.85-.58,1.66-.99,2.42-1.94,.93-4.11,1.45-6.39,1.45s-4.45-.52-6.39-1.45Zm15.72-1.89c.44-1.47,.67-3.04,.67-4.66s-.23-3.18-.67-4.66c1.5,1.26,2.73,2.84,3.58,4.66-.84,1.82-2.07,3.4-3.58,4.66Z"/>
  <g>
    <path class="cls-1" d="M16,3.83c.55,0,1-.45,1-1v-.83c0-.55-.45-1-1-1s-1,.45-1,1v.83c0,.55,.45,1,1,1Z"/>
    <path class="cls-1" d="M9.44,3.38c-.19-.52-.76-.79-1.28-.61s-.79,.76-.61,1.28l.28,.78c.15,.41,.53,.66,.94,.66,.11,0,.23-.02,.34-.06,.52-.19,.79-.76,.61-1.28l-.28-.78Z"/>
    <path class="cls-1" d="M22.88,5.44c.11,.04,.22,.06,.34,.06,.41,0,.8-.25,.94-.66l.28-.78c.19-.52-.09-1.09-.61-1.28-.52-.19-1.09,.08-1.28,.61l-.28,.78c-.19,.52,.09,1.09,.61,1.28Z"/>
    <path class="cls-1" d="M16,28.17c-.55,0-1,.45-1,1v.83c0,.55,.45,1,1,1s1-.45,1-1v-.83c0-.55-.45-1-1-1Z"/>
    <path class="cls-1" d="M9.12,26.56c-.52-.19-1.09,.08-1.28,.61l-.28,.78c-.19,.52,.09,1.09,.61,1.28,.11,.04,.22,.06,.34,.06,.41,0,.8-.25,.94-.66l.28-.78c.19-.52-.09-1.09-.61-1.28Z"/>
    <path class="cls-1" d="M24.16,27.16c-.19-.52-.76-.79-1.28-.61-.52,.19-.79,.76-.61,1.28l.28,.78c.15,.41,.53,.66,.94,.66,.11,0,.23-.02,.34-.06,.52-.19,.79-.76,.61-1.28l-.28-.78Z"/>
    <circle class="cls-1" cx="16" cy="14.25" r="4"/>
  </g>
</svg>