<?xml version="1.0" encoding="UTF-8"?>
<svg id="OBJECT" xmlns="http://www.w3.org/2000/svg" viewBox="0 0 32 32">
  <defs>
    <style>
      .cls-1 {
        fill: #FD4360;
      }

      .cls-2 {
        fill: #dadada;
      }
    </style>
  </defs>
  <g>
    <path class="cls-2" d="M28.5,5h-7.5v-1.5c0-1.38-1.12-2.5-2.5-2.5h-5c-1.38,0-2.5,1.12-2.5,2.5v1.5H3.5c-1.38,0-2.5,1.12-2.5,2.5v11c0,1.38,1.12,2.5,2.5,2.5H28.5c1.38,0,2.5-1.12,2.5-2.5V7.5c0-1.38-1.12-2.5-2.5-2.5Zm-15.5-1.5c0-.28,.22-.5,.5-.5h5c.28,0,.5,.22,.5,.5v1.5h-6v-1.5ZM3,18.5V7.5c0-.28,.22-.5,.5-.5H25v12H3.5c-.28,0-.5-.22-.5-.5Zm26,0c0,.28-.22,.5-.5,.5h-1.5V7h1.5c.28,0,.5,.22,.5,.5v11Z"/>
    <path class="cls-2" d="M5,11.5c-.55,0-1,.45-1,1v1c0,.55,.45,1,1,1s1-.45,1-1v-1c0-.55-.45-1-1-1Z"/>
  </g>
  <g>
    <path class="cls-1" d="M11,26h10c.46,0,.86-.31,.97-.76l.56-2.24H9.47l.56,2.24c.11,.45,.51,.76,.97,.76Z"/>
    <path class="cls-1" d="M21,29h-2v-1h-6v1h-2c-.55,0-1,.45-1,1s.45,1,1,1h10c.55,0,1-.45,1-1s-.45-1-1-1Z"/>
  </g>
</svg>