<?xml version="1.0" encoding="UTF-8"?>
<svg id="OBJECT" xmlns="http://www.w3.org/2000/svg" viewBox="0 0 512 512">
  <defs>
    <style>
      .cls-1 {
        fill: #FD4360;
      }

      .cls-2 {
        fill: #dadada;
      }
    </style>
  </defs>
  <g>
    <path class="cls-2" d="M469.5,60h-46v-17.5c0-12.41-10.09-22.5-22.5-22.5h-52.93l-1.54-4.62c-3.07-9.2-11.65-15.38-21.35-15.38H186.81c-9.7,0-18.28,6.18-21.35,15.38l-1.54,4.62h-52.93c-12.41,0-22.5,10.09-22.5,22.5v17.5H42.5C19.07,60,0,79.07,0,102.5v190c0,23.43,19.07,42.5,42.5,42.5h88.09l14.87,44.62c3.07,9.2,11.65,15.38,21.35,15.38h16.69v39.5c0,2.84,1.6,5.44,4.15,6.71l35.85,17.93v45.36c0,4.14,3.36,7.5,7.5,7.5h50c4.14,0,7.5-3.36,7.5-7.5v-45.36l35.85-17.93c2.54-1.27,4.15-3.87,4.15-6.71v-39.5h16.69c9.7,0,18.28-6.18,21.35-15.38l14.87-44.62h88.09c23.43,0,42.5-19.07,42.5-42.5V102.5c0-23.43-19.07-42.5-42.5-42.5Zm-68.5-25c4.14,0,7.5,3.36,7.5,7.5v17.5h-47.09l-8.33-25h47.93Zm-221.3-14.87c1.02-3.07,3.88-5.13,7.12-5.13h138.38c3.23,0,6.09,2.06,7.12,5.13l13.29,39.87H166.41l13.29-39.87Zm-76.2,22.37c0-4.14,3.36-7.5,7.5-7.5h47.93l-8.33,25h-47.09v-17.5Zm95,387.36v-34.86h25v47.36l-25-12.5Zm40,67.14v-102h35v102h-35Zm75-67.14l-25,12.5v-47.36h25v34.86Zm38.8-54.99c-1.02,3.07-3.88,5.13-7.12,5.13H166.81c-3.23,0-6.09-2.06-7.12-5.13l-13.29-39.87h219.19l-13.29,39.87Zm144.7-82.37c0,15.16-12.34,27.5-27.5,27.5H42.5c-15.16,0-27.5-12.34-27.5-27.5V102.5c0-15.16,12.34-27.5,27.5-27.5H469.5c15.16,0,27.5,12.34,27.5,27.5v190Z"/>
    <path class="cls-2" d="M37.5,160c-4.14,0-7.5,3.36-7.5,7.5v30c0,4.14,3.36,7.5,7.5,7.5s7.5-3.36,7.5-7.5v-30c0-4.14-3.36-7.5-7.5-7.5Z"/>
    <path class="cls-2" d="M37.5,215c-4.14,0-7.5,3.36-7.5,7.5v5c0,4.14,3.36,7.5,7.5,7.5s7.5-3.36,7.5-7.5v-5c0-4.14-3.36-7.5-7.5-7.5Z"/>
    <path class="cls-2" d="M241,45h30c4.14,0,7.5-3.36,7.5-7.5s-3.36-7.5-7.5-7.5h-30c-4.14,0-7.5,3.36-7.5,7.5s3.36,7.5,7.5,7.5Z"/>
    <path class="cls-2" d="M211,365h10c4.14,0,7.5-3.36,7.5-7.5s-3.36-7.5-7.5-7.5h-10c-4.14,0-7.5,3.36-7.5,7.5s3.36,7.5,7.5,7.5Z"/>
    <path class="cls-2" d="M251,365h10c4.14,0,7.5-3.36,7.5-7.5s-3.36-7.5-7.5-7.5h-10c-4.14,0-7.5,3.36-7.5,7.5s3.36,7.5,7.5,7.5Z"/>
    <path class="cls-2" d="M291,365h10c4.14,0,7.5-3.36,7.5-7.5s-3.36-7.5-7.5-7.5h-10c-4.14,0-7.5,3.36-7.5,7.5s3.36,7.5,7.5,7.5Z"/>
  </g>
  <g>
    <path class="cls-1" d="M459.5,90H52.5c-12.41,0-22.5,10.09-22.5,22.5v14.19c0,9.7,6.18,18.28,15.38,21.35h0l9.49,3.16c3.07,1.02,5.13,3.88,5.13,7.12v78.38c0,3.23-2.06,6.09-5.13,7.12l-9.49,3.16c-9.2,3.07-15.38,11.65-15.38,21.35v14.19c0,12.41,10.09,22.5,22.5,22.5H459.5c12.41,0,22.5-10.09,22.5-22.5V112.5c0-12.41-10.09-22.5-22.5-22.5Zm-313.5,30h10c4.14,0,7.5,3.36,7.5,7.5s-3.36,7.5-7.5,7.5h-10c-4.14,0-7.5-3.36-7.5-7.5s3.36-7.5,7.5-7.5Zm-40,0h10c4.14,0,7.5,3.36,7.5,7.5s-3.36,7.5-7.5,7.5h-10c-4.14,0-7.5-3.36-7.5-7.5s3.36-7.5,7.5-7.5Zm250,137.5h-24.5v10c0,4.14-3.36,7.5-7.5,7.5s-7.5-3.36-7.5-7.5v-10H106c-4.14,0-7.5-3.36-7.5-7.5s3.36-7.5,7.5-7.5h210.5v-10c0-4.14,3.36-7.5,7.5-7.5s7.5,3.36,7.5,7.5v10h24.5c4.14,0,7.5,3.36,7.5,7.5s-3.36,7.5-7.5,7.5Zm86-10c0,12.41-10.09,22.5-22.5,22.5h-10c-12.41,0-22.5-10.09-22.5-22.5v-100c0-12.41,10.09-22.5,22.5-22.5h10c12.41,0,22.5,10.09,22.5,22.5v100Z"/>
    <rect class="cls-1" x="402" y="140" width="25" height="115" rx="7.5" ry="7.5"/>
  </g>
</svg>