<?xml version="1.0" encoding="UTF-8" standalone="no"?>
<svg
   id="OBJECT"
   viewBox="0 0 32 32"
   version="1.1"
   sodipodi:docname="Vocabulary.svg"
   xml:space="preserve"
   inkscape:version="1.2.2 (732a01da63, 2022-12-09)"
   xmlns:inkscape="http://www.inkscape.org/namespaces/inkscape"
   xmlns:sodipodi="http://sodipodi.sourceforge.net/DTD/sodipodi-0.dtd"
   xmlns="http://www.w3.org/2000/svg"
   xmlns:svg="http://www.w3.org/2000/svg"><sodipodi:namedview
     id="namedview13"
     pagecolor="#505050"
     bordercolor="#ffffff"
     borderopacity="1"
     inkscape:showpageshadow="0"
     inkscape:pageopacity="0"
     inkscape:pagecheckerboard="1"
     inkscape:deskcolor="#505050"
     showgrid="false"
     inkscape:zoom="12.953125"
     inkscape:cx="5.2496984"
     inkscape:cy="16.984318"
     inkscape:window-width="1920"
     inkscape:window-height="1009"
     inkscape:window-x="-8"
     inkscape:window-y="-8"
     inkscape:window-maximized="1"
     inkscape:current-layer="OBJECT" /><defs
     id="defs4"><style
       id="style2">
      .cls-1 {
        fill: #FD4360;
      }

      .cls-1, .cls-2 {
        stroke-width: 0px;
      }

      .cls-2 {
        fill: #dadada;
      }
    </style></defs><path
     style="fill:#fd4360;fill-opacity:1;stroke-width:0.13832"
     d="m 9.0147892,26.122025 c -0.314063,-0.219981 -0.338634,-0.830666 -0.04415,-1.097179 0.182787,-0.165417 0.644029,-0.185504 4.2594368,-0.185504 3.904995,0 4.062714,0.0082 4.278632,0.224182 0.123301,0.123294 0.224181,0.35028 0.224181,0.504403 0,0.154122 -0.100883,0.381108 -0.224181,0.504409 -0.215829,0.215823 -0.373637,0.224181 -4.234495,0.224181 -3.4482298,0 -4.0452318,-0.02446 -4.2594318,-0.174492 z"
     id="path389" /><path
     style="fill:#dadada;stroke-width:0.13832"
     d="M 5.7471965,29.799165 C 5.5358007,29.691373 5.2583774,29.460783 5.1306996,29.286737 4.8995189,28.971611 4.8984309,28.917105 4.8699294,16.22821 4.8430757,4.2658657 4.8533267,3.4626078 5.0380638,3.1017797 5.1462774,2.8903881 5.3772317,2.6129648 5.5512903,2.4852827 5.8657678,2.2545937 5.9304055,2.2531334 15.82736,2.2531334 c 9.83736,0 9.963346,0.00277 10.264698,0.2277886 0.167802,0.1252835 0.398485,0.40192 0.51263,0.6147474 0.19844,0.3700194 0.207528,0.9371211 0.207528,12.9532216 v 12.566265 l -0.254997,0.482203 c -0.508403,0.961406 0.24718,0.898159 -10.728111,0.897963 C 6.8180932,29.995209 6.1043319,29.981303 5.7471965,29.799165 Z M 25.355041,24.278887 V 20.131545 H 15.82736 6.2996784 v 4.147342 4.147343 h 9.5276816 9.527681 z m -0.1393,-5.697417 c 0.11132,-0.07068 0.134866,-1.641834 0.112087,-7.480316 l -0.0288,-7.3908456 H 15.827391 6.3557568 l -0.028804,7.3908456 c -0.022766,5.838482 6.29e-4,7.409638 0.1120875,7.480316 0.1841901,0.116935 18.5925737,0.116935 18.7767637,0 z"
     id="path377" /><path
     style="fill:#fd4360;fill-opacity:1;stroke-width:0.13832"
     d="m 17.76636,15.98874 c -0.540048,-0.329284 -0.7383,-0.804226 -0.685021,-1.641029 0.07434,-1.167463 0.728963,-1.608375 2.527645,-1.702457 l 1.038257,-0.0543 v -0.329621 c 0,-0.214864 -0.114068,-0.443691 -0.327646,-0.657269 -0.401579,-0.401581 -1.043843,-0.437898 -1.786287,-0.101003 -0.268745,0.121946 -0.557614,0.221719 -0.641936,0.221719 -0.247607,0 -0.513227,-0.512515 -0.474417,-0.915405 0.05553,-0.576575 0.75118,-0.9097441 2.026882,-0.9707355 1.531787,-0.073238 2.353039,0.3235365 2.841669,1.3728935 0.24711,0.530699 0.26516,0.703738 0.266178,2.55254 0.0013,1.922971 -0.0065,1.98855 -0.248023,2.157738 -0.567512,0.397498 -1.544326,0.08247 -1.544326,-0.49805 0,-0.301395 -0.130942,-0.282205 -0.456846,0.06696 -0.65737,0.704284 -1.822593,0.933105 -2.536129,0.498036 z m 2.533003,-1.633747 c 0.191334,-0.21792 0.347878,-0.501406 0.347878,-0.629969 0,-0.216946 -0.04943,-0.230177 -0.687599,-0.184016 -0.731497,0.0529 -0.993751,0.238911 -0.993751,0.7048 0,0.334656 0.211925,0.505401 0.627301,0.505401 0.269801,0 0.4442,-0.09785 0.706171,-0.396216 z"
     id="path379" /><path
     style="fill:#dadada;stroke-width:1.07782"
     d=""
     id="path381" /><path
     style="fill:#fd4360;fill-opacity:1;stroke-width:0.13832"
     d="m 8.9898472,23.494257 c -0.123301,-0.123299 -0.223407,-0.362893 -0.222464,-0.53243 0.0038,-0.732953 0.276725,-0.81293 2.7651508,-0.811124 1.159986,8.17e-4 2.224575,0.03247 2.365755,0.07029 0.585015,0.156712 0.685568,1.091031 0.148356,1.378537 -0.135948,0.07276 -1.116851,0.118906 -2.527393,0.118906 -2.1557738,0 -2.3197568,-0.01453 -2.5294048,-0.224181 z"
     id="path383" /><path
     style="fill:#fd4360;fill-opacity:1;stroke-width:0.13832"
     d="m 9.3578122,15.913385 c -0.64032,-0.315711 -0.704208,0.0251 1.0794238,-5.757881 0.723786,-2.3467175 1.087085,-3.3625729 1.251408,-3.4992451 0.294793,-0.2451799 0.88921,-0.3575945 1.392059,-0.26326 0.741805,0.1391632 0.866382,0.3675386 1.716135,3.1460083 1.432818,4.6849228 1.703066,5.6156118 1.703066,5.8651718 0,0.511954 -1.314064,0.931306 -1.70216,0.543207 -0.0819,-0.08191 -0.245268,-0.535866 -0.363042,-1.008814 l -0.21413,-0.859905 h -1.486903 c -1.319568,0 -1.493349,0.02207 -1.544157,0.196158 -0.03151,0.107887 -0.14186,0.498802 -0.245269,0.8687 -0.103411,0.369898 -0.238545,0.735593 -0.300296,0.812654 -0.155556,0.194109 -0.8526968,0.170912 -1.2861348,-0.04279 z m 4.3398288,-3.450038 c 0,-0.149974 -0.381203,-1.673912 -0.738514,-2.9523621 -0.09046,-0.3236615 -0.206001,-0.5884744 -0.256765,-0.5884744 -0.08565,0 -1.022346,3.2661935 -1.022346,3.5648405 0,0.09419 0.30044,0.134141 1.008813,0.134141 0.793674,0 1.008812,-0.03373 1.008812,-0.158145 z"
     id="path385" /><path
     style="fill:#fd4360;fill-opacity:1;stroke-width:0.13832"
     d="m 19.663371,26.122025 c -0.314064,-0.219981 -0.338628,-0.830666 -0.04415,-1.097179 0.166091,-0.150311 0.453193,-0.185504 1.513222,-0.185504 1.158778,0 1.333843,0.0256 1.532416,0.224182 0.29756,0.29756 0.283593,0.689737 -0.03522,0.989272 -0.233791,0.219635 -0.380858,0.243721 -1.48828,0.243721 -0.930792,0 -1.289273,-0.04232 -1.477972,-0.174492 z"
     id="path387" /></svg>
