<?xml version="1.0" encoding="UTF-8"?>
<svg id="OBJECT" xmlns="http://www.w3.org/2000/svg" viewBox="0 0 32 32">
  <defs>
    <style>
      .cls-1 {
        fill: #FD4360;
      }

      .cls-1, .cls-2 {
        stroke-width: 0px;
      }

      .cls-2 {
        fill: #dadada;
      }
    </style>
  </defs>
  <path class="cls-1" d="m15.16,7.52c.1.1.18.22.22.36,0,.01,0,.02,0,.04,1.7,3.15,1.76,6.18,1.67,7.51.94.5,3.11,1.43,5.94,1.29-.09-2.37-1-9.32-8.05-15.72-1.8.13-3.51.56-5.08,1.27,2.54,1.56,4.2,3.41,5.28,5.25Z"/>
  <path class="cls-1" d="m30.78,13.51c-1.08-6.5-6.32-11.6-12.88-12.43,5.95,6.24,6.95,12.7,7.09,15.36,1.79-.41,3.76-1.28,5.79-2.93Z"/>
  <path class="cls-2" d="m29.96,17.45c-.54-.1-1.06.27-1.16.81-.33,1.86-1.09,3.64-2.18,5.2-9.88,1.76-13.53-1.98-15.5-4.01-.1-.1-.18-.18-.27-.27,1.69-1.25,3.37-1.79,4.35-2.02.54-.12.87-.66.75-1.2-.12-.54-.66-.88-1.2-.75-2.1.48-6.97,2.21-9.58,8-.91-1.35-1.55-2.87-1.89-4.45,3.66-5.68,8.56-8.3,10.53-9.17.5-.22.73-.81.51-1.32-.22-.51-.81-.74-1.32-.51-1.89.84-6.28,3.16-10,7.94.11-4.42,2.51-8.56,6.33-10.85.47-.28.63-.9.34-1.37-.28-.47-.9-.63-1.37-.34C3.8,5.83,1,10.76,1,16c0,.91.08,1.82.25,2.73,0,.01,0,.03,0,.04,0,0,0,0,0,0,.5,2.62,1.69,5.07,3.46,7.09,2.83,3.26,6.94,5.13,11.29,5.13,4.77,0,9.15-2.2,12.02-6.03,1.39-1.87,2.35-4.07,2.75-6.36.1-.54-.27-1.06-.81-1.16Zm-13.96,11.55c-3.57,0-6.94-1.47-9.37-4.03.71-1.91,1.68-3.37,2.74-4.47.1.11.21.22.33.33,1.71,1.77,4.93,5.09,12.17,5.09.84,0,1.74-.05,2.7-.14-2.35,2.07-5.34,3.23-8.55,3.23Z"/>
</svg>