<?xml version="1.0" encoding="UTF-8"?>
<svg id="OBJECT" xmlns="http://www.w3.org/2000/svg" viewBox="0 0 32 32">
  <defs>
    <style>
      .cls-1 {
        fill: #FD4360;
      }

      .cls-1, .cls-2 {
        stroke-width: 0px;
      }

      .cls-2 {
        fill: #dadada;
      }
    </style>
  </defs>
  <g>
    <path class="cls-2" d="m17,20v-.5c0-.55-.45-1-1-1s-1,.45-1,1v.5c0,.55.45,1,1,1s1-.45,1-1Z"/>
    <path class="cls-2" d="m30,15h-4c-.55,0-1,.45-1,1s.45,1,1,1h4c.55,0,1-.45,1-1s-.45-1-1-1Z"/>
    <path class="cls-2" d="m26,12c.17,0,.34-.04.5-.13l3-1.73c.48-.28.64-.89.37-1.37-.28-.48-.89-.64-1.37-.37l-3,1.73c-.48.28-.64.89-.37,1.37.19.32.52.5.87.5Z"/>
    <path class="cls-2" d="m29.5,21.87l-3-1.73c-.48-.28-1.09-.11-1.37.37-.28.48-.11,1.09.37,1.37l3,1.73c.16.09.33.13.5.13.35,0,.68-.18.87-.5.28-.48.11-1.09-.37-1.37Z"/>
    <path class="cls-2" d="m22,1c-.55,0-1,.45-1,1v1.33l-9.38,3.91c-.51.21-.75.8-.54,1.31.16.38.53.62.92.62.13,0,.26-.02.38-.08l2.62-1.09v8c0,.55.45,1,1,1s1-.45,1-1V7.17l4-1.67v21l-8.62-3.59c-.51-.21-1.1.03-1.31.54-.21.51.03,1.09.54,1.31l9.38,3.91v1.33c0,.55.45,1,1,1s1-.45,1-1V2c0-.55-.45-1-1-1Z"/>
  </g>
  <path class="cls-1" d="m1,10v12c0,1.1.9,2,2,2h6V8H3c-1.1,0-2,.9-2,2Zm3.5,1.5h1c.55,0,1,.45,1,1s-.45,1-1,1h-1c-.55,0-1-.45-1-1s.45-1,1-1Zm0,3.5h1c.55,0,1,.45,1,1s-.45,1-1,1h-1c-.55,0-1-.45-1-1s.45-1,1-1Zm0,3.5h1c.55,0,1,.45,1,1s-.45,1-1,1h-1c-.55,0-1-.45-1-1s.45-1,1-1Z"/>
</svg>