<?xml version="1.0" encoding="UTF-8"?>
<svg id="OBJECT" xmlns="http://www.w3.org/2000/svg" viewBox="0 0 32 32">
  <defs>
    <style>
      .cls-1 {
        fill: #FD4360;
      }

      .cls-1, .cls-2 {
        stroke-width: 0px;
      }

      .cls-2 {
        fill: #dadada;
      }
    </style>
  </defs>
  <g>
    <path class="cls-2" d="m30,7H2c-.35,0-.67.18-.85.47s-.2.66-.04.97l1.78,3.56-1.78,3.56c-.14.28-.14.61,0,.89l1.78,3.55-1.78,3.55c-.16.31-.14.68.04.97s.5.47.85.47h28c.55,0,1-.45,1-1V8c0-.55-.45-1-1-1Zm-1,16H10v-1.25c0-.55-.45-1-1-1s-1,.45-1,1v1.25H3.62l1.28-2.55c.14-.28.14-.61,0-.89l-1.78-3.55,1.78-3.56c.14-.28.14-.61,0-.89l-1.28-2.56h4.38v1.25c0,.55.45,1,1,1s1-.45,1-1v-1.25h19v14Z"/>
    <path class="cls-2" d="m9,12.58c-.55,0-1,.45-1,1v.5c0,.55.45,1,1,1s1-.45,1-1v-.5c0-.55-.45-1-1-1Z"/>
    <path class="cls-2" d="m9,16.92c-.55,0-1,.45-1,1v.5c0,.55.45,1,1,1s1-.45,1-1v-.5c0-.55-.45-1-1-1Z"/>
  </g>
  <g>
    <rect class="cls-1" x="21.5" y="11.5" width="6" height="6" rx="2.5" ry="2.5"/>
    <path class="cls-1" d="m26.5,18.5h-4c-.55,0-1,.45-1,1s.45,1,1,1h4c.55,0,1-.45,1-1s-.45-1-1-1Z"/>
    <path class="cls-1" d="m15.17,13.67h3.33c.55,0,1-.45,1-1s-.45-1-1-1h-1.5v-.67c0-.55-.45-1-1-1s-1,.45-1,1v.68c-1.39.09-2.5,1.24-2.5,2.65s1.2,2.67,2.67,2.67h1.67c.37,0,.67.3.67.67s-.3.67-.67.67h-3.33c-.55,0-1,.45-1,1s.45,1,1,1h1.5v.67c0,.55.45,1,1,1s1-.45,1-1v-.68c1.39-.09,2.5-1.24,2.5-2.65s-1.2-2.67-2.67-2.67h-1.67c-.37,0-.67-.3-.67-.67s.3-.67.67-.67Z"/>
  </g>
</svg>