<?xml version="1.0" encoding="UTF-8"?>
<svg id="OBJECT" xmlns="http://www.w3.org/2000/svg" viewBox="0 0 32 32">
  <defs>
    <style>
      .cls-1 {
        fill: #FD4360;
      }

      .cls-1, .cls-2 {
        stroke-width: 0px;
      }

      .cls-2 {
        fill: #dadada;
      }
    </style>
  </defs>
  <g>
    <path class="cls-2" d="m18,10.66c.25,0,.5-.09.7-.29.4-.39.4-1.02.02-1.41-1.45-1.48-3.98-1.48-5.43,0-.39.4-.38,1.03.02,1.41.4.39,1.03.38,1.41-.02.69-.7,1.88-.7,2.57,0,.2.2.46.3.71.3Z"/>
    <path class="cls-2" d="m12.71,7.39c.88-.9,2.05-1.39,3.29-1.39s2.41.49,3.29,1.39c.2.2.46.3.71.3s.5-.09.7-.29c.4-.39.4-1.02.02-1.41-1.26-1.29-2.93-2-4.71-2s-3.46.71-4.71,2c-.39.4-.38,1.03.02,1.41.4.39,1.03.38,1.41-.02Z"/>
    <path class="cls-2" d="m15.78,11.2c-.55,0-1,.45-1,1s.45,1,1,1h.44c.55,0,1-.45,1-1s-.45-1-1-1h-.44Z"/>
    <path class="cls-2" d="m24,15H8c-1.65,0-3,1.35-3,3v7c0,1.65,1.35,3,3,3h4.65c1.23,0,2.33-.74,2.79-1.89l.1-.26c.11-.28.36-.31.46-.31s.35.03.46.31l.1.26c.46,1.15,1.55,1.89,2.79,1.89h4.65c1.65,0,3-1.35,3-3v-7c0-1.65-1.35-3-3-3Zm1,10c0,.55-.45,1-1,1h-4.65c-.41,0-.78-.25-.93-.63l-.1-.26c-.38-.95-1.29-1.57-2.32-1.57s-1.94.62-2.32,1.57l-.1.26c-.15.38-.52.63-.93.63h-4.65c-.55,0-1-.45-1-1v-7c0-.55.45-1,1-1h16c.55,0,1,.45,1,1v7Z"/>
    <path class="cls-2" d="m20,18h-.5c-.55,0-1,.45-1,1s.45,1,1,1h.5c.55,0,1-.45,1-1s-.45-1-1-1Z"/>
    <path class="cls-2" d="m23,18h-.5c-.55,0-1,.45-1,1s.45,1,1,1h.5c.55,0,1-.45,1-1s-.45-1-1-1Z"/>
  </g>
  <g>
    <path class="cls-1" d="m30,17.5h-1v8h1c.55,0,1-.45,1-1v-6c0-.55-.45-1-1-1Z"/>
    <path class="cls-1" d="m1,18.5v6c0,.55.45,1,1,1h1v-8h-1c-.55,0-1,.45-1,1Z"/>
  </g>
</svg>