<?xml version="1.0" encoding="UTF-8"?>
<svg id="OBJECT" xmlns="http://www.w3.org/2000/svg" viewBox="0 0 512 512">
  <defs>
    <style>
      .cls-1 {
        fill: #FD4360;
      }

      .cls-2 {
        fill: #dadada;
      }
    </style>
  </defs>
  <g>
    <path class="cls-2" d="M363.72,91.73c-3.19,2.64-3.63,7.37-.99,10.56,1.48,1.79,3.62,2.72,5.78,2.72,1.69,0,3.38-.57,4.78-1.72,11.42-9.46,17.72-22.17,17.72-35.78s-6.29-26.31-17.72-35.78c-3.19-2.64-7.92-2.2-10.56,.99-2.64,3.19-2.2,7.92,.99,10.56,7.92,6.56,12.28,15.17,12.28,24.22s-4.36,17.66-12.28,24.22Z"/>
    <path class="cls-2" d="M328.72,71.73c-3.19,2.64-3.63,7.37-.99,10.56,1.48,1.79,3.62,2.72,5.78,2.72,1.69,0,3.38-.57,4.78-1.72,4.9-4.06,7.72-9.81,7.72-15.78s-2.81-11.71-7.72-15.78c-3.19-2.64-7.92-2.2-10.56,.99-2.64,3.19-2.2,7.92,.99,10.56,1.47,1.22,2.28,2.72,2.28,4.22s-.81,3-2.28,4.22Z"/>
    <path class="cls-2" d="M405.78,1.73c-3.19-2.64-7.92-2.2-10.56,.99-2.64,3.19-2.2,7.92,.99,10.56,17.59,14.58,27.28,33.83,27.28,54.22s-9.69,39.65-27.28,54.22c-3.19,2.64-3.63,7.37-.99,10.56,1.48,1.79,3.62,2.72,5.78,2.72,1.69,0,3.38-.57,4.78-1.72,21.1-17.48,32.72-40.84,32.72-65.78s-11.62-48.3-32.72-65.78Z"/>
    <path class="cls-2" d="M384.36,263.76l-35.86-14.34v-89.92c0-12.41-10.09-22.5-22.5-22.5H168.5V22.5c0-12.41-10.09-22.5-22.5-22.5h-10c-12.41,0-22.5,10.09-22.5,22.5V197h-17.5c-12.41,0-22.5,10.09-22.5,22.5v50c0,12.41,10.09,22.5,22.5,22.5h17.5v25h-17.5c-12.41,0-22.5,10.09-22.5,22.5v50c0,12.41,10.09,22.5,22.5,22.5h17.5v77.5c0,12.41,10.09,22.5,22.5,22.5h190c12.41,0,22.5-10.09,22.5-22.5v-87.5h27.5c12.41,0,22.5-10.09,22.5-22.5v-94.84c0-9.25-5.55-17.45-14.14-20.89Zm-255.86-126.76V62h25v75h-25Zm7.5-122h10c4.14,0,7.5,3.36,7.5,7.5v24.5h-25V22.5c0-4.14,3.36-7.5,7.5-7.5Zm-40,262c-4.14,0-7.5-3.36-7.5-7.5v-50c0-4.14,3.36-7.5,7.5-7.5h17.5v65h-17.5Zm0,120c-4.14,0-7.5-3.36-7.5-7.5v-50c0-4.14,3.36-7.5,7.5-7.5h17.5v65h-17.5Zm237.5,92.5c0,4.14-3.36,7.5-7.5,7.5H136c-4.14,0-7.5-3.36-7.5-7.5V152h197.5c4.14,0,7.5,3.36,7.5,7.5V489.5Zm50-110c0,4.14-3.36,7.5-7.5,7.5h-27.5v-121.42l30.29,12.11c2.86,1.15,4.71,3.88,4.71,6.96v94.84Z"/>
  </g>
  <g>
    <rect class="cls-1" x="148.5" y="172" width="165" height="65" rx="7.5" ry="7.5"/>
    <rect class="cls-1" x="148.5" y="318.67" width="45" height="45" rx="7.5" ry="7.5"/>
    <rect class="cls-1" x="208.5" y="318.67" width="45" height="45" rx="7.5" ry="7.5"/>
    <rect class="cls-1" x="268.5" y="318.67" width="45" height="45" rx="7.5" ry="7.5"/>
    <rect class="cls-1" x="148.5" y="375.33" width="45" height="45" rx="7.5" ry="7.5"/>
    <rect class="cls-1" x="208.5" y="375.33" width="45" height="45" rx="7.5" ry="7.5"/>
    <rect class="cls-1" x="268.5" y="375.33" width="45" height="45" rx="7.5" ry="7.5"/>
    <rect class="cls-1" x="148.5" y="262" width="45" height="45" rx="7.5" ry="7.5"/>
    <rect class="cls-1" x="208.5" y="262" width="45" height="45" rx="7.5" ry="7.5"/>
    <rect class="cls-1" x="268.5" y="262" width="45" height="45" rx="7.5" ry="7.5"/>
    <rect class="cls-1" x="148.5" y="432" width="45" height="45" rx="7.5" ry="7.5"/>
    <rect class="cls-1" x="208.5" y="432" width="45" height="45" rx="7.5" ry="7.5"/>
    <rect class="cls-1" x="268.5" y="432" width="45" height="45" rx="7.5" ry="7.5"/>
  </g>
</svg>