<?xml version="1.0" encoding="UTF-8"?>
<svg id="OBJECT" xmlns="http://www.w3.org/2000/svg" viewBox="0 0 512 512">
  <defs>
    <style>
      .cls-1 {
        fill: #FD4360;
      }

      .cls-2 {
        fill: #dadada;
      }
    </style>
  </defs>
  <g>
    <path class="cls-2" d="M484.5,147H27.5c-15.16,0-27.5,12.34-27.5,27.5V484.5c0,15.16,12.34,27.5,27.5,27.5H484.5c15.16,0,27.5-12.34,27.5-27.5V174.5c0-15.16-12.34-27.5-27.5-27.5Zm0,350H27.5c-6.89,0-12.5-5.61-12.5-12.5V174.5c0-6.89,5.61-12.5,12.5-12.5H484.5c6.89,0,12.5,5.61,12.5,12.5v87.5h-152.5c-37.22,0-67.5,30.28-67.5,67.5s30.28,67.5,67.5,67.5h152.5v87.5c0,6.89-5.61,12.5-12.5,12.5Zm-140-115c-28.95,0-52.5-23.55-52.5-52.5s23.55-52.5,52.5-52.5h112.5v105h-112.5Zm127.5-105h25v105h-25v-105Z"/>
    <path class="cls-2" d="M369.5,302h-30c-12.41,0-22.5,10.09-22.5,22.5v10c0,12.41,10.09,22.5,22.5,22.5h30c12.41,0,22.5-10.09,22.5-22.5v-10c0-12.41-10.09-22.5-22.5-22.5Zm7.5,32.5c0,4.14-3.36,7.5-7.5,7.5h-30c-4.14,0-7.5-3.36-7.5-7.5v-10c0-4.14,3.36-7.5,7.5-7.5h30c4.14,0,7.5,3.36,7.5,7.5v10Z"/>
    <path class="cls-2" d="M192.5,337H62.5c-12.41,0-22.5,10.09-22.5,22.5v50c0,12.41,10.09,22.5,22.5,22.5H192.5c12.41,0,22.5-10.09,22.5-22.5v-50c0-12.41-10.09-22.5-22.5-22.5Zm7.5,72.5c0,4.14-3.36,7.5-7.5,7.5H62.5c-4.14,0-7.5-3.36-7.5-7.5v-50c0-4.14,3.36-7.5,7.5-7.5H192.5c4.14,0,7.5,3.36,7.5,7.5v50Z"/>
    <path class="cls-2" d="M77.5,367c-4.14,0-7.5,3.36-7.5,7.5v20c0,4.14,3.36,7.5,7.5,7.5s7.5-3.36,7.5-7.5v-20c0-4.14-3.36-7.5-7.5-7.5Z"/>
    <path class="cls-2" d="M110.83,367c-4.14,0-7.5,3.36-7.5,7.5v20c0,4.14,3.36,7.5,7.5,7.5s7.5-3.36,7.5-7.5v-20c0-4.14-3.36-7.5-7.5-7.5Z"/>
    <path class="cls-2" d="M144.17,367c-4.14,0-7.5,3.36-7.5,7.5v20c0,4.14,3.36,7.5,7.5,7.5s7.5-3.36,7.5-7.5v-20c0-4.14-3.36-7.5-7.5-7.5Z"/>
    <path class="cls-2" d="M177.5,367c-4.14,0-7.5,3.36-7.5,7.5v20c0,4.14,3.36,7.5,7.5,7.5s7.5-3.36,7.5-7.5v-20c0-4.14-3.36-7.5-7.5-7.5Z"/>
    <path class="cls-2" d="M197.5,457h-60c-4.14,0-7.5,3.36-7.5,7.5s3.36,7.5,7.5,7.5h60c4.14,0,7.5-3.36,7.5-7.5s-3.36-7.5-7.5-7.5Z"/>
    <path class="cls-2" d="M67.5,457h-10c-4.14,0-7.5,3.36-7.5,7.5s3.36,7.5,7.5,7.5h10c4.14,0,7.5-3.36,7.5-7.5s-3.36-7.5-7.5-7.5Z"/>
    <path class="cls-2" d="M107.5,457h-10c-4.14,0-7.5,3.36-7.5,7.5s3.36,7.5,7.5,7.5h10c4.14,0,7.5-3.36,7.5-7.5s-3.36-7.5-7.5-7.5Z"/>
  </g>
  <g>
    <path class="cls-1" d="M331.43,2.33c-1.42-1.49-3.38-2.33-5.43-2.33s-4.02,.84-5.43,2.33l-123.5,129.67H454.93L331.43,2.33Zm23.14,71.17c-1.98,0-3.96-.78-5.43-2.33l-17.71-18.59c-1.43-1.5-3.36-2.33-5.43-2.33s-4,.83-5.43,2.33l-17.71,18.59c-2.86,3-7.6,3.12-10.6,.26-3-2.86-3.12-7.6-.26-10.6l17.71-18.59c4.29-4.5,10.07-6.98,16.29-6.98s12.01,2.48,16.29,6.98l17.71,18.59c2.86,3,2.74,7.75-.26,10.6-1.45,1.38-3.31,2.07-5.17,2.07Z"/>
    <path class="cls-1" d="M191.43,2.33c-1.42-1.49-3.38-2.33-5.43-2.33s-4.02,.84-5.43,2.33L57.07,132h119.29L245.64,59.25,191.43,2.33Zm23.14,71.17c-1.98,0-3.96-.78-5.43-2.33l-17.71-18.59c-1.43-1.5-3.36-2.33-5.43-2.33s-4,.83-5.43,2.33l-17.71,18.59c-2.86,3-7.6,3.12-10.6,.26-3-2.86-3.12-7.6-.26-10.6l17.71-18.59c4.29-4.5,10.07-6.98,16.29-6.98s12.01,2.48,16.29,6.98l17.71,18.59c2.86,3,2.74,7.75-.26,10.6-1.45,1.38-3.31,2.07-5.17,2.07Z"/>
  </g>
</svg>