<?xml version="1.0" encoding="UTF-8"?>
<svg id="OBJECT" xmlns="http://www.w3.org/2000/svg" viewBox="0 0 32 32">
  <defs>
    <style>
      .cls-1 {
        fill: #FD4360;
      }

      .cls-1, .cls-2 {
        stroke-width: 0px;
      }

      .cls-2 {
        fill: #dadada;
      }
    </style>
  </defs>
  <g>
    <path class="cls-2" d="m28.5,9H3.5c-1.38,0-2.5,1.12-2.5,2.5v17c0,1.38,1.12,2.5,2.5,2.5h25c1.38,0,2.5-1.12,2.5-2.5V11.5c0-1.38-1.12-2.5-2.5-2.5Zm0,20H3.5c-.28,0-.5-.22-.5-.5V11.5c0-.28.22-.5.5-.5h25c.28,0,.5.22.5.5v4.5h-8c-2.21,0-4,1.79-4,4s1.79,4,4,4h8v4.5c0,.28-.22.5-.5.5Zm.5-11v4h-8c-1.1,0-2-.9-2-2s.9-2,2-2h8Z"/>
    <path class="cls-2" d="m20,20c0,.55.45,1,1,1h1c.55,0,1-.45,1-1s-.45-1-1-1h-1c-.55,0-1,.45-1,1Z"/>
    <path class="cls-2" d="m6,13.5c-.55,0-1,.45-1,1v1c0,.55.45,1,1,1s1-.45,1-1v-1c0-.55-.45-1-1-1Z"/>
    <path class="cls-2" d="m6,18.5c-.55,0-1,.45-1,1v1c0,.55.45,1,1,1s1-.45,1-1v-1c0-.55-.45-1-1-1Z"/>
    <path class="cls-2" d="m6,23.5c-.55,0-1,.45-1,1v1c0,.55.45,1,1,1s1-.45,1-1v-1c0-.55-.45-1-1-1Z"/>
  </g>
  <g>
    <path class="cls-1" d="m21.91,1.97c-1.18-1.18-3.15-1.27-4.46-.29l5.29,5.29h4.17l-5-5Z"/>
    <path class="cls-1" d="m10.09,1.97l-5,5h14.83L14.91,1.97c-1.29-1.29-3.54-1.29-4.83,0Z"/>
  </g>
</svg>