<?xml version="1.0" encoding="UTF-8"?>
<svg id="OBJECT" xmlns="http://www.w3.org/2000/svg" viewBox="0 0 32 32">
  <defs>
    <style>
      .cls-1 {
        fill: #FD4360;
      }

      .cls-1, .cls-2 {
        stroke-width: 0px;
      }

      .cls-2 {
        fill: #dadada;
      }
    </style>
  </defs>
  <g>
    <path class="cls-2" d="m24,5h-6v-3c0-.55-.45-1-1-1H4c-1.65,0-3,1.35-3,3v17c0,1.65,1.35,3,3,3h10c.55,0,1-.45,1-1s-.45-1-1-1H4c-.55,0-1-.45-1-1V6.83c.31.11.65.17,1,.17h19v7c0,.55.45,1,1,1s1-.45,1-1V6c0-.55-.45-1-1-1ZM3,4c0-.55.45-1,1-1h12v2H4c-.55,0-1-.45-1-1Z"/>
    <path class="cls-2" d="m6,15c-.55,0-1,.45-1,1v3c0,.55.45,1,1,1s1-.45,1-1v-3c0-.55-.45-1-1-1Z"/>
    <path class="cls-2" d="m7,12c0-.55-.45-1-1-1s-1,.45-1,1v1c0,.55.45,1,1,1s1-.45,1-1v-1Z"/>
  </g>
  <path class="cls-1" d="m24,17c-3.86,0-7,3.14-7,7s3.14,7,7,7,7-3.14,7-7-3.14-7-7-7Zm3,8h-2v2c0,.55-.45,1-1,1s-1-.45-1-1v-2h-2c-.55,0-1-.45-1-1s.45-1,1-1h2v-2c0-.55.45-1,1-1s1,.45,1,1v2h2c.55,0,1,.45,1,1s-.45,1-1,1Z"/>
</svg>