<?xml version="1.0" encoding="UTF-8"?>
<svg id="OBJECT" xmlns="http://www.w3.org/2000/svg" viewBox="0 0 32 32">
  <defs>
    <style>
      .cls-1 {
        fill: #FD4360;
      }

      .cls-1, .cls-2 {
        stroke-width: 0px;
      }

      .cls-2 {
        fill: #dadada;
      }
    </style>
  </defs>
  <g>
    <path class="cls-2" d="m28,7h-6V2c0-.55-.45-1-1-1H4c-1.65,0-3,1.35-3,3v9c0,.55.45,1,1,1s1-.45,1-1V4c0-.55.45-1,1-1h11v4h-5c-.55,0-1,.45-1,1s.45,1,1,1h18c.55,0,1,.45,1,1v5h-9c-1.65,0-3,1.35-3,3v2c0,1.65,1.35,3,3,3h9v5c0,.55-.45,1-1,1h-15c-.55,0-1,.45-1,1s.45,1,1,1h15c1.65,0,3-1.35,3-3V10c0-1.65-1.35-3-3-3Zm-11-4h3v4h-3V3Zm2,17v-2c0-.55.45-1,1-1h2v4h-2c-.55,0-1-.45-1-1Zm5,1v-4h5v4h-5Z"/>
    <path class="cls-2" d="m6.5,7h-.5c-.55,0-1,.45-1,1s.45,1,1,1h.5c.55,0,1-.45,1-1s-.45-1-1-1Z"/>
  </g>
  <path class="cls-1" d="m9,16H1v12c0,1.66,1.34,3,3,3h6v-14c0-.55-.45-1-1-1Zm-2.5,12c0,.55-.45,1-1,1s-1-.45-1-1v-1c0-.55.45-1,1-1s1,.45,1,1v1Zm0-4c0,.55-.45,1-1,1s-1-.45-1-1v-1c0-.55.45-1,1-1s1,.45,1,1v1Zm0-4c0,.55-.45,1-1,1s-1-.45-1-1v-1c0-.55.45-1,1-1s1,.45,1,1v1Z"/>
</svg>