<?xml version="1.0" encoding="UTF-8"?>
<svg id="OBJECT" xmlns="http://www.w3.org/2000/svg" viewBox="0 0 32 32">
  <defs>
    <style>
      .cls-1 {
        fill: #FD4360;
      }

      .cls-1, .cls-2 {
        stroke-width: 0px;
      }

      .cls-2 {
        fill: #dadada;
      }
    </style>
  </defs>
  <g>
    <path class="cls-2" d="m7,12v.5c0,.55.45,1,1,1s1-.45,1-1v-.5c0-.55-.45-1-1-1s-1,.45-1,1Z"/>
    <path class="cls-2" d="m27,15c.55,0,1-.45,1-1v-6c0-.55-.45-1-1-1h-4V2c0-.55-.45-1-1-1H5C2.79,1,1,2.79,1,5v22c0,2.21,1.79,4,4,4h22c.55,0,1-.45,1-1v-4c0-.55-.45-1-1-1s-1,.45-1,1v3H9v-13c0-.55-.45-1-1-1s-1,.45-1,1v13h-2c-1.1,0-2-.9-2-2V8.46c.59.34,1.27.54,2,.54h21v5c0,.55.45,1,1,1Zm-6-8h-4V3h4v4ZM3,5c0-1.1.9-2,2-2h10v4H5c-1.1,0-2-.9-2-2Z"/>
  </g>
  <g>
    <path class="cls-1" d="m18,20c0,2.21,1.79,4,4,4h1v-8h-1c-2.21,0-4,1.79-4,4Z"/>
    <path class="cls-1" d="m30,16h-5v8h5c.55,0,1-.45,1-1v-6c0-.55-.45-1-1-1Z"/>
  </g>
</svg>