<?xml version="1.0" encoding="UTF-8"?>
<svg id="OBJECT" xmlns="http://www.w3.org/2000/svg" viewBox="0 0 32 32">
  <defs>
    <style>
      .cls-1 {
        fill: #FD4360;
      }

      .cls-1, .cls-2 {
        stroke-width: 0px;
      }

      .cls-2 {
        fill: #dadada;
      }
    </style>
  </defs>
  <path class="cls-1" d="m1,22.89v3.11c0,1.1.9,2,2,2h26c1.1,0,2-.9,2-2v-3.11H1Z"/>
  <g>
    <path class="cls-2" d="m28,4H4c-1.65,0-3,1.35-3,3v11c0,1.65,1.35,3,3,3h24c1.65,0,3-1.35,3-3V7c0-1.65-1.35-3-3-3Zm1,14c0,.55-.45,1-1,1H4c-.55,0-1-.45-1-1V7c0-.55.45-1,1-1h24c.55,0,1,.45,1,1v11Z"/>
    <path class="cls-2" d="m10,8h-4c-.55,0-1,.45-1,1s.45,1,1,1h4c.55,0,1-.45,1-1s-.45-1-1-1Z"/>
    <path class="cls-2" d="m14.5,8h-1c-.55,0-1,.45-1,1s.45,1,1,1h1c.55,0,1-.45,1-1s-.45-1-1-1Z"/>
    <path class="cls-2" d="m26,15h-3c-.55,0-1,.45-1,1s.45,1,1,1h3c.55,0,1-.45,1-1s-.45-1-1-1Z"/>
  </g>
</svg>