<?xml version="1.0" encoding="UTF-8"?>
<svg id="OBJECT" xmlns="http://www.w3.org/2000/svg" viewBox="0 0 32 32">
  <defs>
    <style>
      .cls-1 {
        fill: #FD4360;
      }

      .cls-1, .cls-2 {
        stroke-width: 0px;
      }

      .cls-2 {
        fill: #dadada;
      }
    </style>
  </defs>
  <g>
    <path class="cls-2" d="m27,15H5c-.55,0-1,.45-1,1v14c0,.55.45,1,1,1h22c.55,0,1-.45,1-1v-14c0-.55-.45-1-1-1Zm-17,14v-5c0-.55-.45-1-1-1s-1,.45-1,1v5h-2v-12h20v3h-5.5c-1.38,0-2.5,1.12-2.5,2.5v1c0,1.38,1.12,2.5,2.5,2.5h5.5v3H10Zm10.5-5c-.28,0-.5-.22-.5-.5v-1c0-.28.22-.5.5-.5h1.5v2h-1.5Zm3.5-2h2v2h-2v-2Z"/>
    <path class="cls-2" d="m9,19c-.55,0-1,.45-1,1v.5c0,.55.45,1,1,1s1-.45,1-1v-.5c0-.55-.45-1-1-1Z"/>
  </g>
  <g>
    <path class="cls-1" d="m16,10c-1.65,0-3,1.35-3,3h6c0-1.65-1.35-3-3-3Z"/>
    <path class="cls-1" d="m19,4V1h-6v3c0,1.65-1.35,3-3,3h-3v6h4c0-2.76,2.24-5,5-5s5,2.24,5,5h4v-6h-3c-1.65,0-3-1.35-3-3Z"/>
    <path class="cls-1" d="m24,1h-3v3c0,.55.45,1,1,1h3v-3c0-.55-.45-1-1-1Z"/>
    <path class="cls-1" d="m11,4V1h-3c-.55,0-1,.45-1,1v3h3c.55,0,1-.45,1-1Z"/>
  </g>
</svg>