<?xml version="1.0" encoding="UTF-8"?>
<svg id="OBJECT" xmlns="http://www.w3.org/2000/svg" viewBox="0 0 32 32">
  <defs>
    <style>
      .cls-1 {
        fill: #FD4360;
      }

      .cls-1, .cls-2 {
        stroke-width: 0px;
      }

      .cls-2 {
        fill: #dadada;
      }
    </style>
  </defs>
  <g>
    <path class="cls-2" d="m30,19.64h-1.86v-3.78c0-.55-.45-1-1-1h-1.37v-4.29c0-.55-.45-1-1-1s-1,.45-1,1v4.29H7.52s-.01,0-.02,0-.01,0-.02,0h-2.84c-.9,0-1.64-.74-1.64-1.65s.74-1.64,1.64-1.64c.55,0,1-.45,1-1s-.45-1-1-1h-.14c-.05,0-.1,0-.15.01-1.87.15-3.35,1.72-3.35,3.63v12.22c0,3.07,2.5,5.57,5.57,5.57h20.57c.55,0,1-.45,1-1v-3.79h1.86c.55,0,1-.45,1-1v-4.57c0-.55-.45-1-1-1Zm-3.86,9.36H6.57c-1.97,0-3.57-1.6-3.57-3.57v-8.96s.07.02.1.04c.16.07.32.13.49.18.08.03.16.06.25.08.26.06.52.1.8.1h1.86v4.25c0,.55.45,1,1,1s1-.45,1-1v-4.25h17.64v2.78h-2.35c-1.38,0-2.5,1.12-2.5,2.5v1.57c0,1.38,1.12,2.5,2.5,2.5h2.35v2.79Zm2.86-4.79h-5.21c-.28,0-.5-.22-.5-.5v-1.57c0-.28.22-.5.5-.5h5.21v2.57Z"/>
    <path class="cls-2" d="m7.5,23.42c-.55,0-1,.45-1,1v1.08c0,.55.45,1,1,1s1-.45,1-1v-1.08c0-.55-.45-1-1-1Z"/>
  </g>
  <path class="cls-1" d="m22.15,2.5c0-.83-.67-1.5-1.5-1.5h-12.15c-.83,0-1.5.67-1.5,1.5v10.18h15.15V2.5Zm-8.17,3.43h1.82c.45,0,.88.19,1.16.54,1.48,1.84.37,3.85-1.31,4.09v.37c0,.55-.45,1-1,1s-1-.45-1-1v-.33h-1c-.55,0-1-.45-1-1s.45-1,1-1h2.67c.18,0,.33-.15.33-.33s-.15-.33-.33-.33h-1.82c-.45,0-.88-.19-1.16-.54-1.48-1.84-.37-3.85,1.31-4.09v-.37c0-.55.45-1,1-1s1,.45,1,1v.33h1c.55,0,1,.45,1,1s-.45,1-1,1h-2.67c-.18,0-.33.15-.33.33s.15.33.33.33Z"/>
</svg>