<?xml version="1.0" encoding="UTF-8"?>
<svg id="OBJECT" xmlns="http://www.w3.org/2000/svg" viewBox="0 0 32 32">
  <defs>
    <style>
      .cls-1 {
        fill: #FD4360;
      }

      .cls-1, .cls-2 {
        stroke-width: 0px;
      }

      .cls-2 {
        fill: #dadada;
      }
    </style>
  </defs>
  <path class="cls-1" d="m30.34,6.06L16.34,1.06c-.22-.08-.46-.08-.67,0L1.66,6.06c-.4.14-.66.52-.66.94v3c0,.33.16.63.42.82.27.19.61.23.91.12l13.66-4.88,13.66,4.88c.11.04.22.06.34.06.2,0,.41-.06.58-.18.27-.19.42-.49.42-.82v-3c0-.42-.27-.8-.66-.94Z"/>
  <g>
    <path class="cls-2" d="m30,29h-.5v-15.41c0-.55-.45-1-1-1s-1,.45-1,1v15.41h-2v-14.41c0-.55-.45-1-1-1H7.5c-.55,0-1,.45-1,1v14.41h-2v-15.41c0-.55-.45-1-1-1s-1,.45-1,1v15.41h-.5c-.55,0-1,.45-1,1s.45,1,1,1h28c.55,0,1-.45,1-1s-.45-1-1-1Zm-6.5-4.2h-15v-4h15v4Zm0-9.2v3.2h-15v-3.2h15Zm-15,11.2h15v2.2h-15v-2.2Z"/>
    <path class="cls-2" d="m15.5,11.13h1c.55,0,1-.45,1-1s-.45-1-1-1h-1c-.55,0-1,.45-1,1s.45,1,1,1Z"/>
  </g>
</svg>