<?xml version="1.0" encoding="UTF-8"?>
<svg id="OBJECT" xmlns="http://www.w3.org/2000/svg" viewBox="0 0 32 32">
  <defs>
    <style>
      .cls-1 {
        fill: #FD4360;
      }

      .cls-1, .cls-2 {
        stroke-width: 0px;
      }

      .cls-2 {
        fill: #dadada;
      }
    </style>
  </defs>
  <path class="cls-2" d="m30,29h-.5v-15.64c0-.55-.45-1-1-1s-1,.45-1,1v15.64h-2.5v-14c0-.55-.45-1-1-1H8c-.55,0-1,.45-1,1v14h-2.5v-15.64c0-.55-.45-1-1-1s-1,.45-1,1v15.64h-.5c-.55,0-1,.45-1,1s.45,1,1,1h28c.55,0,1-.45,1-1s-.45-1-1-1Zm-7-11h-3.5v-2h3.5v2Zm-8.5-2h3v5.52l-1.13-.45c-.24-.1-.5-.1-.74,0l-1.13.45v-5.52Zm-2,0v2h-3.5v-2h3.5Zm-3.5,4h3.5v3c0,.33.17.64.44.83.28.19.63.22.93.1l2.13-.85,2.13.85c.12.05.25.07.37.07.2,0,.39-.06.56-.17.27-.19.44-.5.44-.83v-3h3.5v9h-14v-9Z"/>
  <path class="cls-1" d="m30.39,7.08L16.39,1.08c-.25-.11-.54-.11-.79,0L1.61,7.08c-.37.16-.61.52-.61.92v3.34l14.61-6.26c.25-.11.54-.11.79,0l14.61,6.26v-3.34c0-.4-.24-.76-.61-.92Z"/>
</svg>