<?xml version="1.0" encoding="UTF-8"?>
<svg id="OBJECT" xmlns="http://www.w3.org/2000/svg" viewBox="0 0 32 32">
  <defs>
    <style>
      .cls-1 {
        fill: #FD4360;
      }

      .cls-1, .cls-2 {
        stroke-width: 0px;
      }

      .cls-2 {
        fill: #dadada;
      }
    </style>
  </defs>
  <g>
    <path class="cls-2" d="m28,1H4c-1.65,0-3,1.35-3,3v24c0,1.65,1.35,3,3,3h24c1.65,0,3-1.35,3-3V4c0-1.65-1.35-3-3-3Zm1,3v3h-9V3h8c.55,0,1,.45,1,1ZM4,3h14v4H3v-3c0-.55.45-1,1-1Zm24,26H4c-.55,0-1-.45-1-1V9h26v19c0,.55-.45,1-1,1Z"/>
    <path class="cls-2" d="m5,6h1c.55,0,1-.45,1-1s-.45-1-1-1h-1c-.55,0-1,.45-1,1s.45,1,1,1Z"/>
    <path class="cls-2" d="m10,6h1c.55,0,1-.45,1-1s-.45-1-1-1h-1c-.55,0-1,.45-1,1s.45,1,1,1Z"/>
  </g>
  <path class="cls-1" d="m16,10c-4.96,0-9,4.04-9,9s4.04,9,9,9,9-4.04,9-9-4.04-9-9-9Zm.22,13.56h-.44c-.55,0-1-.45-1-1s.45-1,1-1h.44c.55,0,1,.45,1,1s-.45,1-1,1Zm2.48-2.8c-.19.19-.45.29-.7.29s-.52-.1-.71-.3c-.69-.7-1.89-.7-2.58,0-.39.39-1.02.39-1.41,0-.39-.39-.4-1.02,0-1.42,1.45-1.46,3.97-1.46,5.42,0,.39.39.39,1.03,0,1.42Zm2-2.93c-.19.19-.45.29-.7.29s-.52-.1-.71-.3c-.88-.89-2.05-1.38-3.29-1.38s-2.41.49-3.29,1.38c-.39.39-1.02.39-1.41,0-.39-.39-.4-1.02,0-1.42,1.26-1.27,2.93-1.97,4.71-1.97s3.45.7,4.71,1.97c.39.39.39,1.03,0,1.42Z"/>
</svg>