<?xml version="1.0" encoding="UTF-8"?>
<svg id="OBJECT" xmlns="http://www.w3.org/2000/svg" viewBox="0 0 32 32">
  <defs>
    <style>
      .cls-1 {
        fill: #FD4360;
      }

      .cls-1, .cls-2 {
        stroke-width: 0px;
      }

      .cls-2 {
        fill: #dadada;
      }
    </style>
  </defs>
  <g>
    <path class="cls-2" d="m26.45,21.2l-.18.18-1.06-1.06,2-2c.62-.62.96-1.45.96-2.32s-.34-1.7-.96-2.32l-8.89-8.89c-1.24-1.24-3.41-1.24-4.65,0L4.79,13.68c-.62.62-.96,1.45-.96,2.32s.34,1.7.96,2.32l8.89,8.89c.62.62,1.45.96,2.32.96s1.7-.34,2.32-.96l3-3,1.06,1.06-.18.18c-.39.39-.39,1.02,0,1.41.2.2.45.29.71.29s.51-.1.71-.29l4.24-4.24c.39-.39.39-1.02,0-1.41s-1.02-.39-1.41,0Zm-9.54,4.59c-.48.49-1.33.49-1.82,0h0l-8.89-8.89c-.24-.24-.38-.56-.38-.91s.13-.67.38-.91L15.09,6.2c.24-.24.56-.38.91-.38s.67.13.91.38l8.89,8.89c.24.24.38.56.38.91s-.13.67-.38.91l-8.89,8.89Zm5.83-3l1.06-1.06,1.06,1.06-1.06,1.06-1.06-1.06Z"/>
    <path class="cls-2" d="m18.12,12.47l-2.83,2.83c-.19.19-.29.44-.29.71v4.85c0,.55.45,1,1,1s1-.45,1-1v-4.43s2.54-2.53,2.54-2.53c.39-.39.39-1.02,0-1.41s-1.02-.39-1.41,0Z"/>
  </g>
  <g>
    <path class="cls-1" d="m30.04,5.97l-4.04-4.04c-1.24-1.24-3.41-1.24-4.65,0l-1.53,1.53,8.68,8.69,1.53-1.53c.62-.62.96-1.45.96-2.32s-.34-1.7-.96-2.32Zm-3.24,1.46c-.2.2-.45.29-.71.29s-.51-.1-.71-.29l-.81-.81c-.39-.39-.39-1.02,0-1.41s1.02-.39,1.41,0l.81.81c.39.39.39,1.02,0,1.41Z"/>
    <path class="cls-1" d="m1.96,21.38c-.62.62-.96,1.45-.96,2.32s.34,1.7.96,2.32l4.04,4.04c1.24,1.24,3.41,1.24,4.65,0l1.53-1.53L3.49,19.85l-1.53,1.53Zm3.24,3.19c.2-.2.45-.29.71-.29s.51.1.71.29l.81.81c.39.39.39,1.02,0,1.41s-1.02.39-1.41,0l-.81-.81c-.39-.39-.39-1.02,0-1.41Z"/>
  </g>
</svg>