<?xml version="1.0" encoding="UTF-8"?>
<svg id="OBJECT" xmlns="http://www.w3.org/2000/svg" viewBox="0 0 32 32">
  <defs>
    <style>
      .cls-1 {
        fill: #FD4360;
      }

      .cls-1, .cls-2 {
        stroke-width: 0px;
      }

      .cls-2 {
        fill: #dadada;
      }
    </style>
  </defs>
  <path class="cls-1" d="m8.5,13.04h15c.55,0,1-.45,1-1v-3.54c0-1.1-.9-2-2-2h-13c-1.1,0-2,.9-2,2v3.54c0,.55.45,1,1,1Z"/>
  <path class="cls-1" d="m20.5,3.5c0-1.38-1.12-2.5-2.5-2.5h-4c-1.38,0-2.5,1.12-2.5,2.5v1h9v-1Z"/>
  <g>
    <path class="cls-2" d="m22,17.09v-2.04c0-.55-.45-1-1-1s-1,.45-1,1v1.99h-8v-1.99c0-.55-.45-1-1-1s-1,.45-1,1v2.04c-1.69.25-3,1.69-3,3.45v7.96c0,1.38,1.12,2.5,2.5,2.5h13c1.38,0,2.5-1.12,2.5-2.5v-7.96c0-1.76-1.31-3.2-3-3.45Zm-11.5,1.95h11c.83,0,1.5.67,1.5,1.5v.64h-14v-.64c0-.83.67-1.5,1.5-1.5Zm12,9.96h-13c-.28,0-.5-.22-.5-.5v-1.64h7c.55,0,1-.45,1-1s-.45-1-1-1h-7v-1.69h14v5.33c0,.28-.22.5-.5.5Z"/>
    <path class="cls-2" d="m20.64,24.86h-1.5c-.55,0-1,.45-1,1s.45,1,1,1h1.5c.55,0,1-.45,1-1s-.45-1-1-1Z"/>
  </g>
</svg>