<?xml version="1.0" encoding="UTF-8"?>
<svg id="OBJECT" xmlns="http://www.w3.org/2000/svg" viewBox="0 0 32 32">
  <defs>
    <style>
      .cls-1 {
        fill: #FD4360;
      }

      .cls-1, .cls-2 {
        stroke-width: 0px;
      }

      .cls-2 {
        fill: #dadada;
      }
    </style>
  </defs>
  <path class="cls-2" d="m28.5,2.75h-9.63c-.32-1.01-1.26-1.75-2.37-1.75H5C2.79,1,1,2.79,1,5v8c0,1.65,1.35,3,3,3s3-1.35,3-3v-3h2v8c0,1.65,1.35,3,3,3s3-1.35,3-3v-8h1.5c1.12,0,2.05-.74,2.37-1.75h9.63c1.38,0,2.5-1.12,2.5-2.5v-.5c0-1.38-1.12-2.5-2.5-2.5Zm-3.5,2v1.5h-6v-1.5h6Zm-8,2.75c0,.28-.22.5-.5.5h-1.5v-2c0-.55-.45-1-1-1s-1,.45-1,1v12c0,.55-.45,1-1,1s-1-.45-1-1V6c0-.55-.45-1-1-1s-1,.45-1,1v2h-2v-2c0-.55-.45-1-1-1s-1,.45-1,1v7c0,.55-.45,1-1,1s-1-.45-1-1V5c0-1.1.9-2,2-2h11.5c.28,0,.5.22.5.5v4Zm12-1.75c0,.28-.22.5-.5.5h-1.5v-1.5h1.5c.28,0,.5.22.5.5v.5Z"/>
  <path class="cls-1" d="m1,27c0,2.21,1.79,4,4,4h22c2.21,0,4-1.79,4-4v-3H1v3Z"/>
</svg>