<?xml version="1.0" encoding="UTF-8"?>
<svg id="OBJECT" xmlns="http://www.w3.org/2000/svg" viewBox="0 0 32 32">
  <defs>
    <style>
      .cls-1 {
        fill: #FD4360;
      }

      .cls-1, .cls-2 {
        stroke-width: 0px;
      }

      .cls-2 {
        fill: #dadada;
      }
    </style>
  </defs>
  <path class="cls-1" d="m28,1H4c-1.65,0-3,1.35-3,3v4h30v-4c0-1.65-1.35-3-3-3ZM6,5.5h-1c-.55,0-1-.45-1-1s.45-1,1-1h1c.55,0,1,.45,1,1s-.45,1-1,1Zm4,0h-1c-.55,0-1-.45-1-1s.45-1,1-1h1c.55,0,1,.45,1,1s-.45,1-1,1Zm4,0h-1c-.55,0-1-.45-1-1s.45-1,1-1h1c.55,0,1,.45,1,1s-.45,1-1,1Z"/>
  <g>
    <path class="cls-2" d="m30,10c-.55,0-1,.45-1,1v12c0,.55-.45,1-1,1H4c-.55,0-1-.45-1-1v-12c0-.55-.45-1-1-1s-1,.45-1,1v12c0,1.65,1.35,3,3,3h8v3h-5c-.55,0-1,.45-1,1s.45,1,1,1h18c.55,0,1-.45,1-1s-.45-1-1-1h-5v-3h8c1.65,0,3-1.35,3-3v-12c0-.55-.45-1-1-1Zm-12,19h-4v-3h4v3Z"/>
    <path class="cls-2" d="m6,21.5h8c.55,0,1-.45,1-1v-7c0-.55-.45-1-1-1H6c-.55,0-1,.45-1,1v7c0,.55.45,1,1,1Zm1-7h6v5h-6v-5Z"/>
    <path class="cls-2" d="m18,16h8c.55,0,1-.45,1-1s-.45-1-1-1h-8c-.55,0-1,.45-1,1s.45,1,1,1Z"/>
    <path class="cls-2" d="m18,20h8c.55,0,1-.45,1-1s-.45-1-1-1h-8c-.55,0-1,.45-1,1s.45,1,1,1Z"/>
  </g>
</svg>