<?xml version="1.0" encoding="UTF-8" standalone="no"?>
<svg
   id="OBJECT"
   viewBox="0 0 32 32"
   version="1.1"
   sodipodi:docname="Web-site.svg"
   inkscape:version="1.2.2 (732a01da63, 2022-12-09)"
   xml:space="preserve"
   xmlns:inkscape="http://www.inkscape.org/namespaces/inkscape"
   xmlns:sodipodi="http://sodipodi.sourceforge.net/DTD/sodipodi-0.dtd"
   xmlns="http://www.w3.org/2000/svg"
   xmlns:svg="http://www.w3.org/2000/svg"><sodipodi:namedview
     id="namedview153"
     pagecolor="#505050"
     bordercolor="#ffffff"
     borderopacity="1"
     inkscape:showpageshadow="0"
     inkscape:pageopacity="0"
     inkscape:pagecheckerboard="1"
     inkscape:deskcolor="#505050"
     showgrid="false"
     inkscape:zoom="6.4765625"
     inkscape:cx="13.510253"
     inkscape:cy="41.07117"
     inkscape:window-width="1920"
     inkscape:window-height="1009"
     inkscape:window-x="-8"
     inkscape:window-y="-8"
     inkscape:window-maximized="1"
     inkscape:current-layer="OBJECT" /><defs
     id="defs140"><rect
       x="-141.74186"
       y="40.453559"
       width="139.58022"
       height="97.273824"
       id="rect550" /><style
       id="style138">
      .cls-1 {
        fill: #FD4360;
      }

      .cls-1, .cls-2 {
        stroke-width: 0px;
      }

      .cls-2 {
        fill: #dadada;
      }
    </style></defs><text
     xml:space="preserve"
     id="text548"
     style="font-size:14.6667px;font-family:Verdana;-inkscape-font-specification:Verdana;text-align:justify;white-space:pre;shape-inside:url(#rect550);fill:#fd4360;fill-opacity:1;stroke-width:4.023"
     transform="matrix(0.34380817,0,0,0.34380817,57.738945,-0.4001717)"><tspan
       x="-141.74219"
       y="53.834"
       id="tspan2610">WWW</tspan></text><path
     style="fill:#dadada;fill-opacity:1;stroke-width:0.196726"
     d="m 15.448113,28.478198 c -0.02009,-0.0201 -0.206821,-0.05229 -0.414933,-0.07152 -0.692151,-0.06398 -1.331943,-0.160519 -1.331943,-0.200985 0,-0.02198 -0.07572,-0.03996 -0.168264,-0.03996 -0.09255,0 -0.181865,-0.02201 -0.198487,-0.0489 -0.01663,-0.0269 -0.07548,-0.0489 -0.130799,-0.0489 -0.10318,0 -0.535879,-0.127425 -0.687617,-0.202495 -0.0467,-0.0231 -0.127922,-0.04201 -0.18049,-0.04201 -0.05256,0 -0.109179,-0.02201 -0.1258,-0.0489 -0.01663,-0.02689 -0.06411,-0.0489 -0.105521,-0.0489 -0.07302,0 -0.128607,-0.02212 -0.701333,-0.279025 -0.366874,-0.164568 -0.996954,-0.473428 -1.026904,-0.50338 -0.04591,-0.04591 -0.4154501,-0.250718 -0.5012282,-0.277795 -0.047066,-0.01486 -0.085576,-0.04645 -0.085576,-0.07021 0,-0.02376 -0.031174,-0.0432 -0.069275,-0.0432 -0.038099,0 -0.07661,-0.0165 -0.085576,-0.03668 -0.00896,-0.02018 -0.172688,-0.141397 -0.3638295,-0.26938 C 9.0793943,26.117973 8.8765193,25.974939 8.819704,25.928106 8.7628869,25.881275 8.6332797,25.776937 8.5316887,25.696252 7.7167816,25.049037 6.7007192,23.954579 6.1451254,23.125544 6.0112132,22.925725 5.8851449,22.754902 5.8649729,22.745936 c -0.020169,-0.009 -0.036671,-0.04747 -0.036671,-0.08558 0,-0.0381 -0.022008,-0.06927 -0.048903,-0.06927 -0.026895,0 -0.048903,-0.03143 -0.048903,-0.06986 0,-0.03843 -0.027505,-0.09893 -0.061127,-0.134476 -0.033621,-0.03554 -0.094098,-0.130633 -0.1343968,-0.211319 -0.040297,-0.08069 -0.084427,-0.157703 -0.098062,-0.17115 -0.023753,-0.02342 -0.1563377,-0.291107 -0.484058,-0.977274 -0.083301,-0.174418 -0.1514614,-0.336131 -0.1514614,-0.359361 0,-0.04299 -0.1184317,-0.330141 -0.1997128,-0.484233 -0.024631,-0.0467 -0.044784,-0.127923 -0.044784,-0.18049 0,-0.05257 -0.020729,-0.108392 -0.046071,-0.124055 -0.025341,-0.01567 -0.060884,-0.127256 -0.07899,-0.247988 -0.018106,-0.120731 -0.052387,-0.231543 -0.076174,-0.246247 -0.023796,-0.01471 -0.043263,-0.08778 -0.043263,-0.1624 0,-0.07461 -0.016477,-0.152139 -0.036613,-0.172274 -0.034766,-0.03477 -0.089032,-0.291989 -0.2123466,-1.006596 -0.2123333,-1.230469 -0.2131521,-3.028066 -0.00192,-4.205421 0.026536,-0.147923 0.076216,-0.439491 0.1103998,-0.647928 0.034181,-0.208437 0.079767,-0.378977 0.1013093,-0.378977 0.02154,0 0.039161,-0.06472 0.039161,-0.143815 0,-0.0791 0.019944,-0.15614 0.044316,-0.171205 0.024381,-0.01506 0.059447,-0.137392 0.077937,-0.271838 0.01849,-0.134445 0.053557,-0.244446 0.077929,-0.244446 0.024372,0 0.044316,-0.04431 0.044316,-0.09846 0,-0.05416 0.022008,-0.142175 0.048903,-0.195601 0.026895,-0.05342 0.069398,-0.138438 0.094456,-0.188917 0.025057,-0.05048 0.060508,-0.171507 0.07879,-0.268951 0.018281,-0.09744 0.047424,-0.177172 0.064761,-0.177172 0.017337,0 0.062071,-0.07152 0.099415,-0.158926 0.1593839,-0.373085 0.5673241,-1.1871567 0.6023993,-1.2021297 0.021005,-0.009 0.038183,-0.04748 0.038183,-0.08558 0,-0.0381 0.02159,-0.06927 0.047967,-0.06927 0.026377,0 0.061778,-0.05501 0.078656,-0.12225 0.016869,-0.06723 0.050298,-0.122251 0.074278,-0.122251 0.023979,0 0.043598,-0.02103 0.043598,-0.04672 0,-0.04087 0.1725399,-0.32722 0.2812186,-0.466724 0.020946,-0.0269 0.1253364,-0.169929 0.231963,-0.317852 0.1066274,-0.147923 0.2163229,-0.292836 0.2437697,-0.32203 0.027447,-0.02919 0.1268947,-0.150221 0.2209948,-0.268951 0.2038332,-0.257184 1.5543097,-1.6095301 1.607304,-1.6095301 0.020309,0 0.07958,-0.039178 0.1317177,-0.087055 0.052135,-0.047884 0.1827994,-0.1524048 0.290357,-0.2322772 0.1075596,-0.079867 0.2379681,-0.1834777 0.2897968,-0.2302368 0.051833,-0.046756 0.134367,-0.097752 0.1834166,-0.1133208 0.049049,-0.015566 0.08918,-0.048828 0.08918,-0.07391 0,-0.025082 0.033009,-0.045611 0.07335,-0.045611 0.040342,0 0.07335,-0.018473 0.07335,-0.041049 0,-0.022576 0.049511,-0.066207 0.1100254,-0.096946 0.060512,-0.030743 0.2420548,-0.1334084 0.4034257,-0.228143 0.161371,-0.094735 0.480445,-0.2656595 0.709053,-0.3798325 0.228609,-0.1141731 0.422987,-0.2240908 0.431953,-0.2442619 0.009,-0.02017 0.05078,-0.036671 0.09293,-0.036671 0.04214,0 0.188844,-0.052922 0.326002,-0.117607 0.137155,-0.064686 0.3594,-0.1546548 0.493874,-0.1999358 0.134477,-0.045277 0.282713,-0.1023847 0.329414,-0.1268947 0.0467,-0.024506 0.12482,-0.044567 0.173596,-0.044567 0.04878,0 0.109589,-0.017847 0.135139,-0.039671 0.02555,-0.021815 0.222496,-0.07889 0.437657,-0.1268278 0.215162,-0.047934 0.429412,-0.1071062 0.476115,-0.1314834 0.0467,-0.02438 0.157827,-0.044324 0.246946,-0.044324 0.08912,0 0.182939,-0.018874 0.208489,-0.041935 0.09233,-0.083352 1.339846,-0.1781137 2.344768,-0.1781137 1.00492,0 2.252437,0.094764 2.344766,0.1781137 0.02555,0.023069 0.101006,0.041935 0.167679,0.041935 0.06668,0 0.1888,0.020286 0.271395,0.045085 0.4536,0.1361697 0.708095,0.1994194 0.8024,0.1994194 0.05815,0 0.105727,0.022008 0.105727,0.048903 0,0.026895 0.03777,0.048903 0.08394,0.048903 0.04617,0 0.183699,0.035334 0.305627,0.078522 0.33574,0.1189221 0.37182,0.1330307 0.857389,0.3352784 0.349209,0.1454515 1.363763,0.6709261 1.573619,0.815035 0.112426,0.077202 0.224586,0.1403708 0.249244,0.1403708 0.02466,0 0.09672,0.045001 0.160148,0.1000134 0.06343,0.055011 0.19332,0.1473674 0.288658,0.2052447 0.09534,0.057876 0.184345,0.117521 0.197793,0.1325411 0.01344,0.015023 0.11247,0.09283 0.220051,0.1729126 0.510696,0.3801559 1.274588,1.1024336 1.809309,1.7107456 0.161371,0.183579 0.353915,0.399768 0.427877,0.480421 0.07396,0.08065 0.134528,0.159881 0.134591,0.176063 4.9e-5,0.01618 0.06618,0.106441 0.146936,0.200574 0.08075,0.09413 0.159201,0.209659 0.174331,0.256727 0.01513,0.04706 0.04803,0.08558 0.07312,0.08558 0.02508,0 0.04561,0.02157 0.04561,0.04795 0,0.04625 0.32859,0.586821 0.386995,0.636653 0.01576,0.01344 0.07727,0.123473 0.136691,0.244501 0.05942,0.121029 0.140598,0.2750637 0.180399,0.3423017 0.142807,0.241252 0.469521,0.966166 0.469521,1.041776 0,0.04244 0.02201,0.09076 0.0489,0.10738 0.02689,0.01663 0.0489,0.07293 0.0489,0.125137 0,0.0522 0.02201,0.09491 0.0489,0.09491 0.02689,0 0.0489,0.03935 0.0489,0.08745 0,0.09844 0.162096,0.579946 0.212052,0.629902 0.01785,0.01785 0.03245,0.0948 0.03245,0.171001 0,0.0762 0.01837,0.13855 0.04082,0.13855 0.02245,0 0.06705,0.148534 0.09911,0.330077 0.03206,0.181542 0.07021,0.396092 0.08477,0.476776 0.01456,0.08069 0.04583,0.190712 0.06949,0.244502 0.09308,0.211639 0.190072,1.421837 0.190072,2.371662 0,1.068254 -0.06702,1.793438 -0.234989,2.542813 -0.02713,0.121028 -0.07475,0.352082 -0.105824,0.513453 -0.03107,0.16137 -0.07606,0.314306 -0.09997,0.339856 -0.02391,0.02555 -0.04347,0.08636 -0.04347,0.135139 0,0.04877 -0.01935,0.126895 -0.043,0.173596 -0.07131,0.14083 -0.202006,0.568062 -0.201748,0.659491 1.47e-4,0.04706 -0.02176,0.08557 -0.04865,0.08557 -0.02689,0 -0.0489,0.04271 -0.0489,0.09491 0,0.0522 -0.01951,0.106973 -0.04336,0.121712 -0.02384,0.01474 -0.05785,0.104057 -0.07556,0.198485 -0.01771,0.09443 -0.05321,0.171693 -0.07889,0.171693 -0.02567,0 -0.04669,0.03077 -0.04669,0.06839 0,0.09948 -0.496087,1.050043 -0.8112,1.554357 -0.145485,0.232839 -0.707478,1.028051 -0.753907,1.066771 -0.01613,0.01344 -0.09359,0.112469 -0.172143,0.22005 -0.195987,0.268411 -1.448319,1.516397 -1.808017,1.801742 -0.161371,0.128013 -0.33017,0.262899 -0.375108,0.299744 -0.04494,0.03685 -0.125744,0.09056 -0.179564,0.119363 -0.05382,0.0288 -0.127078,0.08137 -0.162793,0.116814 -0.104978,0.104175 -0.851957,0.571902 -0.913353,0.571902 -0.03093,0 -0.05641,0.0165 -0.05662,0.03667 -1.9e-4,0.02017 -0.04972,0.06036 -0.110025,0.0893 -0.124837,0.05992 -0.897329,0.447192 -1.025861,0.514296 -0.0467,0.02438 -0.118218,0.04433 -0.158926,0.04433 -0.04071,0 -0.07401,0.02201 -0.07401,0.0489 0,0.02689 -0.02704,0.0489 -0.06009,0.0489 -0.05179,0 -0.541378,0.169226 -0.844566,0.291922 -0.05379,0.02176 -0.240834,0.07709 -0.415652,0.122922 -0.174819,0.04584 -0.356062,0.103283 -0.402764,0.127652 -0.0467,0.02437 -0.140521,0.04431 -0.20849,0.04431 -0.06797,0 -0.161788,0.02037 -0.208489,0.04526 -0.08247,0.04396 -0.53194,0.117132 -1.282968,0.208882 -0.485049,0.05926 -2.411902,0.104973 -2.458545,0.05833 z m 0.600337,-4.397564 v -2.86259 l -0.990231,0.02248 c -1.093667,0.02482 -1.828009,0.07905 -2.677289,0.197693 -0.894721,0.12499 -0.935155,0.133747 -0.96395,0.208787 -0.0372,0.09694 0.07369,0.482282 0.229935,0.799 0.02034,0.04123 0.05247,0.145498 0.07141,0.231714 0.01893,0.08622 0.05474,0.169315 0.07957,0.184658 0.02482,0.01535 0.04514,0.07061 0.04514,0.122811 0,0.0522 0.02201,0.09492 0.0489,0.09492 0.02689,0 0.0489,0.03281 0.0489,0.07291 0,0.08534 0.501889,1.067547 0.648617,1.269356 0.132985,0.182907 0.280486,0.429659 0.280486,0.469214 0,0.0257 0.01726,0.04673 0.03836,0.04673 0.0211,0 0.07964,0.06989 0.130101,0.155311 0.05046,0.08542 0.11971,0.189945 0.153891,0.232276 0.375183,0.464647 0.688123,0.820105 0.977068,1.10982 0.273044,0.273769 0.388243,0.355497 0.538635,0.382131 0.240381,0.04257 0.858781,0.106602 1.132636,0.117273 l 0.207828,0.0081 z m 1.96502,2.758187 c 0.0453,-0.02326 0.150169,-0.0423 0.233046,-0.0423 0.338939,0 0.534552,-0.111092 0.947154,-0.537904 0.220996,-0.228607 0.46743,-0.503653 0.54763,-0.611213 0.0802,-0.107557 0.184327,-0.238237 0.231394,-0.290396 0.04706,-0.05216 0.08558,-0.111121 0.08558,-0.131023 0,-0.01991 0.02751,-0.06526 0.06113,-0.100804 0.124084,-0.131174 0.330077,-0.42632 0.330077,-0.472933 0,-0.02645 0.02063,-0.05542 0.04584,-0.06439 0.06037,-0.02147 0.638768,-1.060075 0.638768,-1.147022 0,-0.03703 0.01758,-0.06733 0.03908,-0.06733 0.02149,0 0.06804,-0.08252 0.103429,-0.183375 0.0701,-0.199763 0.133695,-0.354183 0.290902,-0.706384 0.05636,-0.126283 0.116753,-0.318827 0.134191,-0.427877 0.01744,-0.10905 0.05089,-0.198272 0.07435,-0.198272 0.02346,0 0.04265,-0.06335 0.04265,-0.140767 0,-0.180268 -0.111758,-0.22492 -0.757954,-0.302838 -1.001237,-0.120728 -1.501076,-0.151172 -2.848441,-0.1735 l -1.381431,-0.02289 v 2.830211 c 0,1.556616 0.01509,2.845311 0.03355,2.863765 0.04458,0.04458 1.043799,-0.0187 1.149061,-0.07276 z m -5.20206,-0.660182 c 0.0082,-0.05688 -0.01475,-0.133679 -0.0509,-0.170651 -0.03615,-0.03697 -0.11316,-0.168991 -0.171128,-0.293377 -0.05797,-0.124388 -0.134475,-0.256419 -0.170014,-0.293403 -0.03554,-0.03699 -0.107631,-0.166266 -0.160202,-0.287294 -0.05257,-0.121027 -0.107734,-0.231054 -0.122585,-0.244502 -0.02298,-0.0208 -0.426106,-0.837021 -0.603795,-1.222505 -0.031,-0.06723 -0.06739,-0.133253 -0.08088,-0.146701 -0.03335,-0.03325 -0.150851,-0.341255 -0.181886,-0.476778 -0.01385,-0.06052 -0.04464,-0.110025 -0.0684,-0.110025 -0.02376,0 -0.0432,-0.04271 -0.0432,-0.09492 0,-0.0522 -0.02201,-0.108514 -0.0489,-0.125136 -0.02689,-0.01663 -0.0489,-0.06411 -0.0489,-0.105522 0,-0.04142 -0.03525,-0.155641 -0.07834,-0.253839 -0.04308,-0.09819 -0.100646,-0.23355 -0.127916,-0.300788 -0.101212,-0.249554 -0.122894,-0.269062 -0.289481,-0.260462 -0.167259,0.0086 -0.494498,0.09235 -0.6308509,0.161382 -0.041376,0.02096 -0.1677903,0.05372 -0.2809193,0.07284 -0.1131306,0.01912 -0.2181073,0.05484 -0.2332823,0.0794 -0.015171,0.02456 -0.081306,0.04465 -0.1469574,0.04465 -0.06565,0 -0.1193649,0.02201 -0.1193649,0.0489 0,0.0269 -0.055011,0.0489 -0.12225,0.0489 -0.067239,0 -0.1222516,0.02201 -0.1222516,0.0489 0,0.02689 -0.038507,0.04904 -0.085575,0.0492 -0.047066,1.48e-4 -0.1486045,0.03317 -0.2256402,0.07335 -0.077035,0.04018 -0.1705583,0.07305 -0.2078272,0.07305 -0.037267,0 -0.067761,0.01759 -0.067761,0.03908 0,0.02149 -0.074857,0.06615 -0.166348,0.09923 -0.2353201,0.08509 -0.304902,0.179834 -0.2052602,0.279475 0.043015,0.04301 0.078208,0.09614 0.078208,0.118067 0,0.04997 1.0373496,1.103178 1.2797827,1.299346 0.098741,0.07989 0.2407409,0.189277 0.3155543,0.243066 0.074816,0.05379 0.2059808,0.158315 0.29148,0.232277 0.085499,0.07396 0.178221,0.134476 0.206049,0.134476 0.02783,0 0.05793,0.01705 0.06689,0.03791 0.02226,0.05175 0.805945,0.548901 0.865274,0.548901 0.02614,0 0.05487,0.0165 0.06383,0.03667 0.01653,0.0372 0.607821,0.337389 0.920955,0.467555 0.09413,0.03913 0.270174,0.116908 0.391202,0.17284 0.262998,0.12154 0.361652,0.115453 0.38158,-0.02355 z m 7.980364,-0.110178 c 0,-0.0239 0.07702,-0.05791 0.17115,-0.07557 0.09413,-0.01765 0.171151,-0.05311 0.171151,-0.07879 0,-0.02568 0.04218,-0.04668 0.09373,-0.04668 0.05154,0 0.101059,-0.01651 0.110025,-0.03668 0.009,-0.02017 0.15347,-0.10269 0.321122,-0.183376 0.167652,-0.08069 0.305184,-0.163204 0.305627,-0.183376 4.43e-4,-0.02017 0.02678,-0.03668 0.05852,-0.03668 0.05125,0 0.662578,-0.371718 0.724688,-0.440645 0.01344,-0.01491 0.145478,-0.113702 0.293402,-0.219507 0.147923,-0.105806 0.279953,-0.20424 0.2934,-0.218742 0.01344,-0.0145 0.167267,-0.147259 0.341821,-0.295015 0.339643,-0.287501 1.125188,-1.074055 1.125188,-1.126634 0,-0.01744 0.04401,-0.08245 0.0978,-0.144469 0.05379,-0.06202 0.0978,-0.130546 0.0978,-0.152276 0,-0.06205 -0.200169,-0.232751 -0.351487,-0.299729 -0.07563,-0.03348 -0.137516,-0.07266 -0.137516,-0.08707 0,-0.0144 -0.110025,-0.0689 -0.2445,-0.121078 -0.134476,-0.05218 -0.244502,-0.112043 -0.244502,-0.133017 0,-0.02097 -0.04271,-0.03813 -0.09491,-0.03813 -0.0522,0 -0.106973,-0.01951 -0.121711,-0.04336 -0.01474,-0.02384 -0.106766,-0.05836 -0.204507,-0.07669 -0.09774,-0.01834 -0.213511,-0.05127 -0.257266,-0.07319 -0.162143,-0.08122 -0.330167,-0.141563 -0.556002,-0.199688 -0.272962,-0.07026 -0.354263,-0.02802 -0.406833,0.211326 -0.0186,0.08467 -0.05122,0.187673 -0.0725,0.228899 -0.109931,0.212991 -0.24949,0.563335 -0.274784,0.689807 -0.01574,0.07871 -0.04788,0.143102 -0.07141,0.143102 -0.02354,0 -0.04279,0.0333 -0.04279,0.07401 0,0.04071 -0.0202,0.112225 -0.0449,0.158926 -0.0247,0.0467 -0.137204,0.282958 -0.250026,0.525015 -0.11282,0.242056 -0.235688,0.495115 -0.273037,0.562352 -0.03735,0.06724 -0.138983,0.265284 -0.225852,0.440102 -0.08687,0.174819 -0.174852,0.325187 -0.195519,0.334152 -0.02066,0.009 -0.03757,0.04336 -0.03757,0.07644 0,0.03307 -0.08802,0.206077 -0.1956,0.384448 -0.241932,0.40113 -0.253489,0.52527 -0.0489,0.52527 0.08069,0 0.146701,-0.01956 0.146701,-0.04346 z m 4.827697,-4.003037 c 0.01782,-0.04706 0.06114,-0.114654 0.09626,-0.150194 0.03513,-0.03553 0.06386,-0.09605 0.06386,-0.134477 0,-0.03843 0.01931,-0.06986 0.0429,-0.06986 0.0236,0 0.106117,-0.126529 0.183376,-0.281176 0.07726,-0.154647 0.151695,-0.292178 0.165415,-0.305627 0.05072,-0.04971 0.292907,-0.565815 0.292907,-0.624178 0,-0.03323 0.02201,-0.06043 0.0489,-0.06043 0.02689,0 0.0489,-0.04271 0.0489,-0.09491 0,-0.0522 0.02031,-0.107468 0.04514,-0.122811 0.02482,-0.01535 0.06063,-0.09844 0.07957,-0.184658 0.01893,-0.08622 0.05107,-0.190488 0.0714,-0.231715 0.147904,-0.299813 0.292889,-0.749272 0.292889,-0.907969 0,-0.0663 0.02201,-0.120541 0.0489,-0.120541 0.0269,0 0.0489,-0.06631 0.0489,-0.147364 0,-0.08105 0.02004,-0.185574 0.04453,-0.232276 0.06077,-0.115892 0.15435,-0.67778 0.201464,-1.209617 0.02145,-0.242057 0.05448,-0.500744 0.07341,-0.57486 0.07086,-0.277455 0.0522,-0.280895 -1.523436,-0.280895 h -1.436569 v -0.391198 -0.391202 h 1.432778 c 1.049181,0 1.448487,-0.01571 1.491457,-0.05868 0.07109,-0.07109 0.07777,-0.314953 0.0098,-0.356972 -0.0269,-0.01663 -0.05032,-0.177458 -0.05204,-0.357413 -0.0033,-0.346259 -0.145061,-1.24964 -0.205566,-1.310145 -0.01969,-0.01968 -0.0358,-0.107852 -0.0358,-0.195915 0,-0.08806 -0.02201,-0.173715 -0.0489,-0.190337 -0.02689,-0.01663 -0.0489,-0.07216 -0.0489,-0.123428 0,-0.105859 -0.125824,-0.518221 -0.197142,-0.646087 -0.02604,-0.0467 -0.04736,-0.129221 -0.04736,-0.183376 0,-0.05416 -0.0165,-0.09865 -0.03667,-0.09888 -0.02017,-2.37e-4 -0.07778,-0.13226 -0.128012,-0.2934 -0.05024,-0.161142 -0.11075,-0.292985 -0.134476,-0.292985 -0.02372,0 -0.04314,-0.03098 -0.04314,-0.06884 0,-0.08226 -0.252176,-0.584331 -0.30519,-0.607616 -0.02041,-0.009 -0.03711,-0.04688 -0.03711,-0.08426 0,-0.09361 -0.435652,-0.7919247 -0.512435,-0.8213897 -0.03421,-0.01313 -0.125452,0.01052 -0.20276,0.05255 -0.417212,0.2268407 -0.971728,0.4765877 -1.289716,0.5808707 -0.147923,0.04851 -0.289856,0.105768 -0.315406,0.127236 -0.02555,0.02147 -0.09577,0.03904 -0.15604,0.03904 -0.06028,0 -0.121615,0.01947 -0.136319,0.04326 -0.01471,0.02379 -0.13124,0.05893 -0.258968,0.07809 -0.33148,0.04971 -0.502473,0.149309 -0.502473,0.292681 0,0.06496 0.02201,0.131709 0.0489,0.14833 0.0269,0.01663 0.0489,0.09524 0.0489,0.174701 0,0.07947 0.01968,0.182689 0.04374,0.229391 0.04113,0.07984 0.128682,0.559433 0.187363,1.026241 l 0.02613,0.207826 h -0.389875 -0.389858 l -0.05484,-0.501228 c -0.08166,-0.74626 -0.112686,-0.936462 -0.161177,-0.987784 -0.02415,-0.02555 -0.04389,-0.09894 -0.04389,-0.163098 0,-0.115817 -0.0027,-0.116402 -0.378977,-0.08262 -0.208437,0.01871 -0.399882,0.0536 -0.425432,0.07752 -0.02555,0.02393 -0.152379,0.0435 -0.28184,0.0435 -0.129461,0 -0.273595,0.0203 -0.320297,0.0451 -0.07902,0.04197 -0.870686,0.114551 -2.212072,0.202805 -0.309293,0.02035 -0.798907,0.05307 -1.088031,0.07272 l -0.525677,0.03573 v 0.62868 0.628681 h -0.391212 -0.391202 v -0.630377 -0.630372 l -0.72128,-0.02917 c -1.272009,-0.05143 -3.153255,-0.208674 -3.31299,-0.27691 -0.09012,-0.03849 -0.373841,-0.08067 -0.732127,-0.108817 -0.133005,-0.01045 -0.148806,0.0052 -0.18639,0.184183 -0.06983,0.332595 -0.136282,0.76714 -0.171998,1.124706 l -0.03419,0.342302 -0.391203,0.01403 -0.391201,0.01403 0.01458,-0.258528 c 0.008,-0.142191 0.03416,-0.302539 0.05809,-0.35633 0.02393,-0.05379 0.05429,-0.174818 0.06746,-0.26895 0.01318,-0.09413 0.04801,-0.270175 0.0774,-0.391204 0.122194,-0.503025 0.119773,-0.556881 -0.02803,-0.623476 -0.07461,-0.03362 -0.184988,-0.06113 -0.245276,-0.06113 -0.060289,0 -0.1216464,-0.01947 -0.136351,-0.04325 -0.014709,-0.0238 -0.1205273,-0.05741 -0.2351622,-0.0747 -0.2257838,-0.03406 -0.5529912,-0.136953 -0.6068662,-0.190828 -0.018432,-0.01843 -0.083559,-0.03351 -0.1447276,-0.03351 -0.061167,0 -0.1236308,-0.0201 -0.1388059,-0.04465 -0.01517,-0.02456 -0.1154976,-0.0595 -0.2229384,-0.07765 -0.1074393,-0.01815 -0.1953443,-0.05307 -0.1953443,-0.0776 0,-0.02453 -0.033306,-0.0446 -0.074014,-0.0446 -0.074448,0 -0.1148884,-0.01668 -0.398083,-0.164168 -0.084836,-0.04418 -0.1893598,-0.08033 -0.2322764,-0.08033 -0.042919,0 -0.07803,-0.01663 -0.07803,-0.03696 0,-0.06573 -0.2982546,-0.1733447 -0.3465566,-0.1250427 -0.092215,0.09222 -0.4865278,0.7633237 -0.5148904,0.8763267 -0.016146,0.06434 -0.043608,0.116984 -0.061023,0.116984 -0.017414,0 -0.062632,0.07152 -0.1004834,0.158926 -0.037849,0.08741 -0.1228833,0.279955 -0.1889604,0.427878 -0.1890465,0.423203 -0.2395278,0.548596 -0.3051429,0.757953 -0.066599,0.212489 -0.1048169,0.31986 -0.1864188,0.523709 -0.029176,0.07288 -0.067819,0.243913 -0.085885,0.380074 -0.018064,0.136162 -0.051944,0.259376 -0.075297,0.273807 -0.023344,0.01443 -0.042453,0.108559 -0.042453,0.209173 0,0.100614 -0.019877,0.20384 -0.044157,0.22939 -0.024289,0.02555 -0.055044,0.145478 -0.068354,0.266506 -0.1324726,1.204819 -0.1369326,1.279879 -0.08011,1.348347 0.04785,0.05766 0.3198564,0.06976 1.5678158,0.06976 H 8.56671 V 15.940698 16.3319 H 7.0248189 c -1.2713729,0 -1.5464696,0.01192 -1.5679809,0.06799 -0.022659,0.05904 -7.955e-4,0.322186 0.1122454,1.350122 0.013302,0.121029 0.044065,0.240957 0.068354,0.266506 0.024289,0.02555 0.044157,0.130075 0.044157,0.232277 0,0.102201 0.019167,0.185821 0.042587,0.185821 0.02342,0 0.057442,0.13136 0.075606,0.291911 0.018164,0.160552 0.054016,0.304884 0.079667,0.320738 0.02565,0.01586 0.046639,0.07184 0.046639,0.124403 0,0.05257 0.0193,0.133789 0.042896,0.180491 0.023595,0.0467 0.070134,0.172933 0.1034282,0.280513 0.066616,0.215263 0.1209658,0.349506 0.3123526,0.771515 0.070468,0.155382 0.1281246,0.303917 0.1281246,0.330076 0,0.02616 0.022008,0.04757 0.048903,0.04757 0.026895,0 0.048901,0.04218 0.048901,0.09373 0,0.05154 0.016502,0.10106 0.036678,0.110026 0.020171,0.009 0.080294,0.10432 0.1336071,0.2119 0.053312,0.107581 0.1907008,0.344135 0.3053054,0.525678 0.1803703,0.285716 0.2277448,0.330076 0.3525093,0.330076 0.079274,0 0.1566883,-0.02031 0.172033,-0.04513 0.015346,-0.02482 0.093659,-0.05958 0.1740357,-0.07724 0.080377,-0.01765 0.1461403,-0.05235 0.1461403,-0.07711 0,-0.02476 0.03961,-0.04501 0.088021,-0.04501 0.048412,0 0.1089245,-0.01757 0.1344746,-0.03904 0.025554,-0.02146 0.1674833,-0.07955 0.3154069,-0.129081 0.1479241,-0.04953 0.2898568,-0.108978 0.3154074,-0.132117 0.025548,-0.02313 0.095768,-0.04207 0.1560393,-0.04207 0.060272,0 0.1216434,-0.01952 0.1363808,-0.04336 0.014741,-0.02385 0.1095582,-0.05819 0.2107123,-0.07631 0.2177781,-0.03901 0.4925119,-0.119817 0.611129,-0.179743 0.0467,-0.02359 0.1221571,-0.0429 0.1676801,-0.0429 0.04552,0 0.157661,-0.02708 0.249196,-0.06018 0.147802,-0.05345 0.164057,-0.07671 0.145226,-0.207824 -0.03024,-0.210534 -0.137479,-0.621613 -0.188238,-0.721559 -0.02372,-0.0467 -0.04313,-0.160931 -0.04313,-0.253841 0,-0.09291 -0.02201,-0.182529 -0.0489,-0.199151 -0.02689,-0.01663 -0.0489,-0.116943 -0.0489,-0.222937 v -0.192768 h 0.391201 0.391203 v 0.217164 c 0,0.119443 0.02201,0.230766 0.0489,0.247388 0.02689,0.01663 0.0489,0.148652 0.0489,0.293401 0,0.144749 0.02201,0.27678 0.0489,0.293402 0.02689,0.01663 0.0489,0.107389 0.0489,0.201701 0,0.09432 0.02278,0.214045 0.05062,0.266067 0.0533,0.09959 0.264,0.130036 0.316132,0.04569 0.01663,-0.02689 0.112903,-0.0489 0.213956,-0.0489 0.101054,0 0.311911,-0.0237 0.468573,-0.05266 0.533793,-0.09868 1.86985,-0.212916 3.143915,-0.268817 l 0.745736,-0.03272 v -0.580857 -0.580858 h 0.391203 0.391201 v 0.580265 0.580265 l 0.501227,0.03459 c 0.275675,0.01902 0.787294,0.05417 1.136932,0.07809 1.232954,0.08436 2.495493,0.22016 2.741885,0.294926 0.0826,0.02507 0.20584,0.04557 0.273879,0.04557 0.06804,0 0.193465,0.02431 0.278726,0.05404 0.198151,0.06908 0.299677,-0.0059 0.299677,-0.221397 0,-0.08546 0.01975,-0.17629 0.04389,-0.20184 0.02415,-0.02555 0.05631,-0.134474 0.0715,-0.242057 0.01519,-0.107579 0.04932,-0.349636 0.07585,-0.537902 0.02653,-0.188265 0.04937,-0.369807 0.05075,-0.403426 0.0018,-0.04368 0.115914,-0.06113 0.399826,-0.06113 h 0.397314 l -0.03455,0.158925 c -0.01901,0.08741 -0.06055,0.305912 -0.09232,0.485562 -0.03177,0.179649 -0.07399,0.342854 -0.09381,0.362676 -0.01982,0.01982 -0.03637,0.08189 -0.03678,0.137918 -3.95e-4,0.05603 -0.03244,0.189895 -0.0712,0.297476 -0.09915,0.27521 -0.09467,0.415651 0.01326,0.415651 0.04841,0 0.108926,0.01793 0.134476,0.03984 0.02555,0.02191 0.211494,0.07883 0.413207,0.126485 0.351987,0.08316 0.410748,0.101402 0.684603,0.212486 0.06724,0.02727 0.221274,0.0879 0.342302,0.134734 0.121028,0.04683 0.407094,0.179056 0.635703,0.293834 0.466435,0.234187 0.575437,0.257651 0.622276,0.133956 z M 19.642617,10.757188 c 0.0269,-0.0196 0.354218,-0.05031 0.727385,-0.06825 0.373167,-0.01793 0.7183,-0.05391 0.766964,-0.07995 0.04866,-0.02604 0.17356,-0.04735 0.277546,-0.04735 0.103987,0 0.248743,-0.02751 0.321678,-0.06113 0.112963,-0.05207 0.128474,-0.08286 0.104701,-0.207826 -0.01535,-0.08069 -0.0452,-0.190711 -0.06633,-0.244501 -0.02113,-0.05379 -0.07607,-0.2188287 -0.122103,-0.3667517 -0.04602,-0.147923 -0.123799,-0.356972 -0.172833,-0.464553 -0.04903,-0.10758 -0.12973,-0.294623 -0.179326,-0.415652 -0.0496,-0.121028 -0.101783,-0.231053 -0.115973,-0.244502 -0.01419,-0.01345 -0.09099,-0.15648 -0.170659,-0.317851 -0.07967,-0.16137 -0.156689,-0.304404 -0.17115,-0.317851 -0.01446,-0.01345 -0.06772,-0.10595 -0.118348,-0.205562 -0.05063,-0.09961 -0.127996,-0.22064 -0.171923,-0.268952 -0.04393,-0.04831 -0.151642,-0.200737 -0.239371,-0.338725 -0.08773,-0.137988 -0.219411,-0.314518 -0.29263,-0.392287 -0.07322,-0.07777 -0.192041,-0.2179297 -0.264049,-0.3114662 -0.189119,-0.2456572 -0.702246,-0.7651169 -1.049542,-1.0624953 -0.239806,-0.2053391 -0.33462,-0.256727 -0.473671,-0.256727 -0.09562,0 -0.18745,-0.022008 -0.204073,-0.048903 -0.01663,-0.026895 -0.162211,-0.048903 -0.323533,-0.048903 -0.161321,0 -0.391151,-0.024639 -0.510735,-0.054743 -0.388898,-0.097926 -0.363787,-0.3026747 -0.363787,2.9662245 0,2.2742347 0.01318,2.9046637 0.06113,2.9234387 0.09418,0.03688 2.695206,-0.02434 2.750638,-0.06474 z M 16.04845,7.8730593 V 4.9399764 l -0.111935,-0.02809 c -0.06156,-0.015449 -0.173023,-0.00485 -0.247684,0.02352 -0.07466,0.028383 -0.268453,0.05161 -0.430646,0.05161 -0.381939,0 -0.421777,0.026135 -1.214647,0.7967296 -0.469114,0.4559384 -0.721953,0.740464 -1.051901,1.1837303 -0.08008,0.10758 -0.156931,0.206604 -0.170784,0.220051 -0.141719,0.137579 -0.865827,1.451882 -1.023768,1.858209 -0.06174,0.158813 -0.149985,0.374755 -0.249812,0.611254 -0.102326,0.242419 -0.205216,0.6562307 -0.179699,0.7227277 0.01544,0.04024 0.112231,0.08599 0.215089,0.10167 0.102858,0.01568 0.330048,0.05095 0.504867,0.07837 0.586934,0.09208 1.097577,0.142405 1.476345,0.145503 0.20685,0.0017 0.389691,0.02508 0.406313,0.05198 0.01859,0.03008 0.424312,0.0489 1.054242,0.0489 h 1.02402 z m 6.793661,2.3891767 c 0.09604,-0.0302 0.212833,-0.07421 0.259535,-0.0978 0.0467,-0.02359 0.120394,-0.04289 0.163761,-0.04289 0.07353,0 0.325115,-0.09647 0.520842,-0.1997127 0.0467,-0.02464 0.118219,-0.04479 0.158926,-0.04479 0.04071,0 0.07401,-0.02201 0.07401,-0.0489 0,-0.0269 0.03512,-0.0489 0.07803,-0.0489 0.0701,0 0.349274,-0.133191 0.410971,-0.19607 0.01344,-0.01371 0.108453,-0.06872 0.211125,-0.12225 0.20436,-0.106554 0.375678,-0.249245 0.375678,-0.312901 0,-0.167119 -1.202923,-1.406885 -1.784858,-1.839524 -0.107575,-0.07998 -0.250384,-0.194927 -0.317347,-0.255441 -0.06696,-0.06052 -0.147648,-0.110026 -0.179301,-0.110026 -0.03165,0 -0.06489,-0.01823 -0.07385,-0.04051 -0.0223,-0.0554 -0.795649,-0.5462956 -0.860639,-0.5462956 -0.02869,0 -0.0595,-0.016502 -0.06846,-0.036671 -0.02456,-0.055278 -0.518291,-0.3056266 -0.602744,-0.3056266 -0.04054,0 -0.07371,-0.016819 -0.07371,-0.037364 0,-0.042311 -0.292784,-0.1759397 -0.586018,-0.2674575 -0.108012,-0.033713 -0.196386,-0.077937 -0.196386,-0.098287 0,-0.020345 -0.06602,-0.036997 -0.146701,-0.036997 -0.122531,0 -0.1467,0.019468 -0.1467,0.118176 0,0.064995 0.0165,0.1255102 0.03667,0.1344753 0.102964,0.045761 0.89243,1.1220844 0.89243,1.2166994 0,0.02561 0.01944,0.04655 0.0432,0.04655 0.02376,0 0.05613,0.03851 0.07193,0.08558 0.02821,0.084 0.129646,0.257453 0.178742,0.305626 0.01371,0.01344 0.06872,0.112471 0.12225,0.220051 0.05353,0.107581 0.109179,0.206604 0.123658,0.220051 0.03885,0.03609 0.488366,0.947551 0.487698,0.988894 -5.23e-4,0.03249 0.200912,0.500285 0.290801,0.67532 0.02117,0.04122 0.05509,0.150529 0.07538,0.242896 0.02029,0.09237 0.05448,0.2016697 0.076,0.2428957 0.02151,0.04123 0.05103,0.113465 0.0656,0.160531 0.03099,0.100134 0.08275,0.105103 0.319485,0.03067 z m -12.201138,-0.02368 c 0.04254,-0.01633 0.07735,-0.07004 0.07735,-0.119364 0,-0.04933 0.02201,-0.103283 0.0489,-0.1199057 0.02689,-0.01663 0.0489,-0.0688 0.0489,-0.115952 0,-0.04715 0.04458,-0.178012 0.09908,-0.290802 0.05449,-0.11279 0.112257,-0.270959 0.128364,-0.351486 0.0161,-0.08053 0.04854,-0.146414 0.07207,-0.146414 0.02353,0 0.04279,-0.02889 0.04279,-0.0642 0,-0.03531 0.05501,-0.178234 0.122249,-0.317611 0.06723,-0.139378 0.122252,-0.275527 0.122252,-0.302553 0,-0.02703 0.02201,-0.04914 0.0489,-0.04914 0.02689,0 0.0489,-0.04218 0.0489,-0.09373 0,-0.05154 0.0165,-0.10106 0.03667,-0.110025 0.02017,-0.009 0.08029,-0.104321 0.133609,-0.211901 0.05331,-0.107581 0.186735,-0.338634 0.296496,-0.513453 0.109759,-0.174818 0.214533,-0.350859 0.232833,-0.391202 0.04045,-0.08916 0.14644,-0.25985 0.182207,-0.293401 0.01433,-0.01344 0.112905,-0.1454785 0.219047,-0.2934016 0.106143,-0.147923 0.215441,-0.2940196 0.242887,-0.3246581 0.02745,-0.030639 0.09254,-0.1145515 0.144655,-0.1864731 0.05211,-0.071922 0.134632,-0.1767501 0.183375,-0.2329522 0.04874,-0.056205 0.08863,-0.1428289 0.08863,-0.1925031 0,-0.1417268 -0.120804,-0.1241291 -0.709055,0.1032879 -0.171602,0.06634 -0.331937,0.1372367 -0.771124,0.3409708 -0.235853,0.1094097 -0.450402,0.1989265 -0.476778,0.1989265 -0.02638,0 -0.04795,0.022008 -0.04795,0.048903 0,0.026895 -0.03301,0.048903 -0.07335,0.048903 -0.04034,0 -0.07356,0.016502 -0.07381,0.036679 -3.17e-4,0.020169 -0.09928,0.080118 -0.220052,0.1332095 -0.120773,0.053097 -0.219588,0.1136082 -0.219588,0.1344761 0,0.020863 -0.03301,0.037941 -0.07335,0.037941 -0.04034,0 -0.07335,0.017003 -0.07335,0.037782 0,0.02078 -0.07702,0.07926 -0.17115,0.129951 -0.09413,0.05069 -0.171151,0.110711 -0.171151,0.133371 0,0.02266 -0.02773,0.0412 -0.06162,0.0412 -0.03389,0 -0.1209529,0.05501 -0.193466,0.12225 -0.072514,0.06724 -0.1453773,0.122251 -0.1619188,0.122251 -0.016544,0 -0.057622,0.02751 -0.091285,0.06113 -0.033666,0.03362 -0.1476197,0.126716 -0.2532349,0.206882 -0.379324,0.287927 -1.6320687,1.590118 -1.6339687,1.698464 -9.525e-4,0.05772 0.3578596,0.28294 0.4508413,0.28294 0.047549,0 0.086448,0.02201 0.086448,0.0489 0,0.0269 0.021353,0.0489 0.047453,0.0489 0.026099,0 0.1677209,0.05501 0.3147181,0.122251 0.1469957,0.06723 0.3126867,0.122251 0.3682002,0.122251 0.055514,0 0.100934,0.02201 0.100934,0.0489 0,0.02689 0.055013,0.0489 0.1222516,0.0489 0.067237,0 0.12225,0.01951 0.12225,0.04335 0,0.02384 0.060514,0.05495 0.1344763,0.06914 0.2161373,0.04145 0.5665119,0.136838 0.6723779,0.183051 0.05379,0.02348 0.152812,0.05162 0.220051,0.06251 0.06724,0.0109 0.125952,0.02283 0.130476,0.02649 0.0045,0.0037 0.04304,-0.0067 0.08558,-0.02303 z"
     id="path391" /></svg>
