<?xml version="1.0" encoding="UTF-8"?>
<svg id="OBJECT" xmlns="http://www.w3.org/2000/svg" viewBox="0 0 32 32">
  <defs>
    <style>
      .cls-1 {
        fill: #FD4360;
      }

      .cls-1, .cls-2 {
        stroke-width: 0px;
      }

      .cls-2 {
        fill: #dadada;
      }
    </style>
  </defs>
  <g>
    <path class="cls-2" d="m28.25,25.5h-5.51l-1.38-4.5h.65c2.21,0,4-1.79,4-4V5c0-2.21-1.79-4-4-4h-12c-2.21,0-4,1.79-4,4v12c0,2.21,1.79,4,4,4h.65l-1.38,4.5H3.75c-1.52,0-2.75,1.23-2.75,2.75s1.23,2.75,2.75,2.75h24.5c1.52,0,2.75-1.23,2.75-2.75s-1.23-2.75-2.75-2.75Zm-20.25-8.5V5c0-1.1.9-2,2-2h12c1.1,0,2,.9,2,2v12c0,1.1-.9,2-2,2h-12c-1.1,0-2-.9-2-2Zm4.74,4h6.52l1.38,4.5h-9.29l1.38-4.5Zm15.51,8H3.75c-.41,0-.75-.34-.75-.75s.34-.75.75-.75h24.5c.41,0,.75.34.75.75s-.34.75-.75.75Z"/>
    <path class="cls-2" d="m17,22.25h-2c-.55,0-1,.45-1,1s.45,1,1,1h2c.55,0,1-.45,1-1s-.45-1-1-1Z"/>
  </g>
  <g>
    <path class="cls-1" d="m16,4.25c-3.72,0-6.75,3.03-6.75,6.75s3.03,6.75,6.75,6.75,6.75-3.03,6.75-6.75-3.03-6.75-6.75-6.75Zm0,11.5c-2.62,0-4.75-2.13-4.75-4.75s2.13-4.75,4.75-4.75,4.75,2.13,4.75,4.75-2.13,4.75-4.75,4.75Z"/>
    <path class="cls-1" d="m18.41,9.51c-.46-.11-.82-.47-.93-.93-.09-.37-.38-.66-.74-.75-.26-.06-.51-.09-.74-.09-1.79,0-3.25,1.46-3.25,3.25s1.46,3.25,3.25,3.25,3.25-1.46,3.25-3.25c0-.24-.03-.48-.09-.74-.09-.37-.38-.66-.75-.74Z"/>
  </g>
</svg>