<?xml version="1.0" encoding="UTF-8"?>
<svg id="OBJECT" xmlns="http://www.w3.org/2000/svg" viewBox="0 0 32 32">
  <defs>
    <style>
      .cls-1 {
        fill: #FD4360;
      }

      .cls-1, .cls-2 {
        stroke-width: 0px;
      }

      .cls-2 {
        fill: #dadada;
      }
    </style>
  </defs>
  <path class="cls-2" d="m27.62,28H4.38c-1.86,0-3.38-1.51-3.38-3.38V7.38c0-1.86,1.51-3.38,3.38-3.38h23.25c1.86,0,3.38,1.51,3.38,3.38v17.25c0,1.86-1.51,3.38-3.38,3.38ZM4.38,6c-.76,0-1.38.62-1.38,1.38v17.25c0,.76.62,1.38,1.38,1.38h23.25c.76,0,1.38-.62,1.38-1.38V7.38c0-.76-.62-1.38-1.38-1.38H4.38Z"/>
  <g>
    <path class="cls-1" d="m25.73,10.94c-.79-.5-1.78-.55-2.63-.14l-2.1,1.01v8.38l2.1,1.01c.38.18.78.27,1.19.27.5,0,1-.14,1.44-.42.8-.5,1.27-1.36,1.27-2.3v-5.52c0-.94-.48-1.8-1.27-2.3Z"/>
    <path class="cls-1" d="m17,9H7c-1.1,0-2,.9-2,2v10c0,1.1.9,2,2,2h10c1.1,0,2-.9,2-2v-10c0-1.1-.9-2-2-2Zm-1,4h-1.5c-.55,0-1-.45-1-1s.45-1,1-1h1.5c.55,0,1,.45,1,1s-.45,1-1,1Z"/>
  </g>
</svg>