<?xml version="1.0" encoding="UTF-8"?>
<svg id="OBJECT" xmlns="http://www.w3.org/2000/svg" viewBox="0 0 512 512">
  <defs>
    <style>
      .cls-1 {
        fill: #FD4360;
      }

      .cls-2 {
        fill: #dadada;
      }
    </style>
  </defs>
  <g>
    <path class="cls-2" d="M454.5,0H57.5C25.79,0,0,25.79,0,57.5v110c0,31.71,25.79,57.5,57.5,57.5h63.86l23.78,47.56c3.84,7.67,11.55,12.44,20.12,12.44h58.23v67.42l-35.86,14.34c-8.59,3.44-14.14,11.64-14.14,20.89v59.34H96c-12.41,0-22.5,10.09-22.5,22.5v20c0,12.41,10.09,22.5,22.5,22.5H416c12.41,0,22.5-10.09,22.5-22.5v-20c0-12.41-10.09-22.5-22.5-22.5h-77.5v-59.34c0-9.25-5.55-17.45-14.14-20.89l-35.86-14.34v-67.42h58.23c8.58,0,16.29-4.77,20.12-12.44l23.78-47.56h63.86c31.71,0,57.5-25.79,57.5-57.5V57.5c0-31.71-25.79-57.5-57.5-57.5ZM188.5,387.66c0-3.08,1.85-5.82,4.71-6.96l30.29-12.11v78.42h-35v-59.34Zm235,81.84v20c0,4.14-3.36,7.5-7.5,7.5H96c-4.14,0-7.5-3.36-7.5-7.5v-20c0-4.14,3.36-7.5,7.5-7.5H416c4.14,0,7.5,3.36,7.5,7.5Zm-104.71-88.81c2.86,1.15,4.71,3.88,4.71,6.96v59.34h-35v-78.42l30.29,12.11Zm-45.29,66.31h-35v-162h35v162Zm79.94-181.15c-1.28,2.56-3.85,4.15-6.71,4.15H165.27c-2.86,0-5.43-1.59-6.71-4.15l-20.43-40.85h235.73l-20.43,40.85Zm143.56-98.35c0,23.43-19.07,42.5-42.5,42.5H57.5c-23.43,0-42.5-19.07-42.5-42.5V57.5c0-23.43,19.07-42.5,42.5-42.5H454.5c23.43,0,42.5,19.07,42.5,42.5v110Z"/>
    <path class="cls-2" d="M62.5,85c-15.16,0-27.5,12.34-27.5,27.5s12.34,27.5,27.5,27.5,27.5-12.34,27.5-27.5-12.34-27.5-27.5-27.5Zm0,40c-6.89,0-12.5-5.61-12.5-12.5s5.61-12.5,12.5-12.5,12.5,5.61,12.5,12.5-5.61,12.5-12.5,12.5Z"/>
    <path class="cls-2" d="M132.5,85c-15.16,0-27.5,12.34-27.5,27.5s12.34,27.5,27.5,27.5,27.5-12.34,27.5-27.5-12.34-27.5-27.5-27.5Zm0,40c-6.89,0-12.5-5.61-12.5-12.5s5.61-12.5,12.5-12.5,12.5,5.61,12.5,12.5-5.61,12.5-12.5,12.5Z"/>
    <path class="cls-2" d="M201,255h10c4.14,0,7.5-3.36,7.5-7.5s-3.36-7.5-7.5-7.5h-10c-4.14,0-7.5,3.36-7.5,7.5s3.36,7.5,7.5,7.5Z"/>
    <path class="cls-2" d="M251,255h10c4.14,0,7.5-3.36,7.5-7.5s-3.36-7.5-7.5-7.5h-10c-4.14,0-7.5,3.36-7.5,7.5s3.36,7.5,7.5,7.5Z"/>
    <path class="cls-2" d="M301,255h10c4.14,0,7.5-3.36,7.5-7.5s-3.36-7.5-7.5-7.5h-10c-4.14,0-7.5,3.36-7.5,7.5s3.36,7.5,7.5,7.5Z"/>
    <path class="cls-2" d="M62.5,55h10c4.14,0,7.5-3.36,7.5-7.5s-3.36-7.5-7.5-7.5h-10c-4.14,0-7.5,3.36-7.5,7.5s3.36,7.5,7.5,7.5Z"/>
    <path class="cls-2" d="M102.5,55h20c4.14,0,7.5-3.36,7.5-7.5s-3.36-7.5-7.5-7.5h-20c-4.14,0-7.5,3.36-7.5,7.5s3.36,7.5,7.5,7.5Z"/>
    <path class="cls-2" d="M72.5,170h-10c-4.14,0-7.5,3.36-7.5,7.5s3.36,7.5,7.5,7.5h10c4.14,0,7.5-3.36,7.5-7.5s-3.36-7.5-7.5-7.5Z"/>
    <path class="cls-2" d="M122.5,170h-20c-4.14,0-7.5,3.36-7.5,7.5s3.36,7.5,7.5,7.5h20c4.14,0,7.5-3.36,7.5-7.5s-3.36-7.5-7.5-7.5Z"/>
  </g>
  <g>
    <rect class="cls-1" x="427" y="55" width="50" height="115" rx="20" ry="20"/>
    <rect class="cls-1" x="367" y="55" width="50" height="115" rx="20" ry="20"/>
    <path class="cls-1" d="M256,32.5c-44.11,0-80,35.89-80,80s35.89,80,80,80,80-35.89,80-80-35.89-80-80-80Zm0,127.5c-26.19,0-47.5-21.31-47.5-47.5s21.31-47.5,47.5-47.5c4.75,0,9.44,.7,13.96,2.09,2.38,.73,4.24,2.59,4.97,4.97,3.17,10.3,11.21,18.35,21.51,21.51,2.38,.73,4.24,2.59,4.97,4.97,1.39,4.52,2.09,9.21,2.09,13.96,0,26.19-21.31,47.5-47.5,47.5Z"/>
    <path class="cls-1" d="M262.06,80.57c-1.99-.38-4.02-.57-6.06-.57-17.92,0-32.5,14.58-32.5,32.5s14.58,32.5,32.5,32.5,32.5-14.58,32.5-32.5c0-2.04-.19-4.07-.57-6.06-11.74-4.82-21.06-14.13-25.88-25.88Z"/>
  </g>
</svg>