<?xml version="1.0" encoding="UTF-8"?>
<svg id="OBJECT" xmlns="http://www.w3.org/2000/svg" viewBox="0 0 32 32">
  <defs>
    <style>
      .cls-1 {
        fill: #FD4360;
      }

      .cls-1, .cls-2 {
        stroke-width: 0px;
      }

      .cls-2 {
        fill: #dadada;
      }
    </style>
  </defs>
  <g>
    <path class="cls-2" d="m27,4h-8c-.55,0-1,.45-1,1s.45,1,1,1h8c1.1,0,2,.9,2,2v2c0,1.1-.9,2-2,2h-8c-.55,0-1,.45-1,1s.45,1,1,1v4c0,.55.45,1,1,1s1-.45,1-1v-4h2v6c0,.55-.45,1-1,1h-12c-.55,0-1-.45-1-1v-1c0-.55-.45-1-1-1s-1,.45-1,1v1c0,1.65,1.35,3,3,3h2.5v6h-5.5c-.55,0-1,.45-1,1s.45,1,1,1h18c.55,0,1-.45,1-1s-.45-1-1-1h-5.5v-6h2.5c1.65,0,3-1.35,3-3v-6h2c2.21,0,4-1.79,4-4v-2c0-2.21-1.79-4-4-4Zm-9.5,25h-3v-6h3v6Z"/>
    <path class="cls-2" d="m21,10c.55,0,1-.45,1-1s-.45-1-1-1h-1c-.55,0-1,.45-1,1s.45,1,1,1h1Z"/>
    <path class="cls-2" d="m26,10c.55,0,1-.45,1-1s-.45-1-1-1h-1c-.55,0-1,.45-1,1s.45,1,1,1h1Z"/>
  </g>
  <g>
    <path class="cls-1" d="m8.13,6.13c-1.23.37-2.13,1.52-2.13,2.87,0,1.65,1.35,3,3,3,1.35,0,2.5-.9,2.87-2.13-1.85-.43-3.31-1.89-3.74-3.74Z"/>
    <path class="cls-1" d="m14,1H4c-1.65,0-3,1.35-3,3v10c0,1.65,1.35,3,3,3h10c1.65,0,3-1.35,3-3V4c0-1.65-1.35-3-3-3Zm-5,13c-2.76,0-5-2.24-5-5s2.24-5,5-5c.55,0,1,.45,1,1,0,1.65,1.35,3,3,3,.55,0,1,.45,1,1,0,2.76-2.24,5-5,5Z"/>
  </g>
</svg>