<?xml version="1.0" encoding="UTF-8"?>
<svg id="OBJECT" xmlns="http://www.w3.org/2000/svg" viewBox="0 0 512 512">
  <defs>
    <style>
      .cls-1 {
        fill: #FD4360;
      }

      .cls-2 {
        fill: #dadada;
      }
    </style>
  </defs>
  <g>
    <path class="cls-2" d="M489.5,70h-107.5v-2.5c0-12.41-10.09-22.5-22.5-22.5h-20.8c-4.14,0-7.5,3.36-7.5,7.5s3.36,7.5,7.5,7.5h20.8c4.14,0,7.5,3.36,7.5,7.5v80c0,4.14-3.36,7.5-7.5,7.5h-20.8c-4.14,0-7.5,3.36-7.5,7.5s3.36,7.5,7.5,7.5h20.8c12.41,0,22.5-10.09,22.5-22.5v-2.5h107.5c12.41,0,22.5-10.09,22.5-22.5v-30c0-12.41-10.09-22.5-22.5-22.5Zm7.5,52.5c0,4.14-3.36,7.5-7.5,7.5h-107.5v-45h107.5c4.14,0,7.5,3.36,7.5,7.5v30Z"/>
    <path class="cls-2" d="M444.5,100h-5c-4.14,0-7.5,3.36-7.5,7.5s3.36,7.5,7.5,7.5h5c4.14,0,7.5-3.36,7.5-7.5s-3.36-7.5-7.5-7.5Z"/>
    <path class="cls-2" d="M414.5,100h-5c-4.14,0-7.5,3.36-7.5,7.5s3.36,7.5,7.5,7.5h5c4.14,0,7.5-3.36,7.5-7.5s-3.36-7.5-7.5-7.5Z"/>
    <path class="cls-2" d="M474.5,100h-5c-4.14,0-7.5,3.36-7.5,7.5s3.36,7.5,7.5,7.5h5c4.14,0,7.5-3.36,7.5-7.5s-3.36-7.5-7.5-7.5Z"/>
    <path class="cls-2" d="M390.08,256.12c-6.97-11.79-19.81-19.12-33.5-19.12h-4.15c-13.7,0-26.53,7.32-33.5,19.12h0s-31.84,53.88-31.84,53.88h-23.58v-30.79c0-10.34-7.01-19.32-17.04-21.83l-22.96-5.74v-44.14h-15v102.5h-35v-102.5h-15v44.14l-22.96,5.74c-10.04,2.51-17.04,11.49-17.04,21.83v30.79h-42.5c-12.41,0-22.5,10.09-22.5,22.5v15c0,12.41,10.09,22.5,22.5,22.5H251.63l-49.22,83.29c-3.54,5.99-5.41,12.84-5.41,19.79,0,21.46,17.46,38.91,38.91,38.91h237.18c21.46,0,38.91-17.46,38.91-38.91,0-6.96-1.87-13.8-5.41-19.8l-116.51-197.18Zm-166.58,10.99l19.32,4.83c3.34,.84,5.68,3.83,5.68,7.28v30.79h-25v-42.89Zm-90,12.11c0-3.45,2.34-6.44,5.68-7.28l19.32-4.83v42.89h-25v-30.79Zm-57.5,75.79c-4.14,0-7.5-3.36-7.5-7.5v-15c0-4.14,3.36-7.5,7.5-7.5h202.22l-17.73,30H76Zm397.09,142H235.91c-13.19,0-23.91-10.73-23.91-23.91,0-4.28,1.15-8.48,3.33-12.17l116.51-197.18c4.28-7.25,12.17-11.75,20.59-11.75h4.15c8.42,0,16.3,4.5,20.59,11.75l116.51,197.18c2.18,3.68,3.33,7.89,3.33,12.17,0,13.19-10.73,23.91-23.91,23.91Z"/>
    <path class="cls-2" d="M354.5,297c-9.8,0-19.25,4.11-25.93,11.29-6.68,7.17-10.11,16.89-9.41,26.67l7.86,110.08c.28,3.92,3.55,6.97,7.48,6.97h40c3.93,0,7.2-3.04,7.48-6.97l7.86-110.08c.7-9.78-2.73-19.5-9.41-26.67-6.68-7.17-16.13-11.29-25.93-11.29Zm20.38,36.89l-7.37,103.11h-26.03l-7.37-103.11c-.41-5.72,1.52-11.18,5.43-15.38,3.91-4.2,9.22-6.51,14.95-6.51s11.05,2.31,14.95,6.51c3.91,4.2,5.84,9.66,5.43,15.38Z"/>
    <path class="cls-2" d="M374.5,467h-40c-4.14,0-7.5,3.36-7.5,7.5s3.36,7.5,7.5,7.5h40c4.14,0,7.5-3.36,7.5-7.5s-3.36-7.5-7.5-7.5Z"/>
    <path class="cls-2" d="M22.5,60h20.8c4.14,0,7.5-3.36,7.5-7.5s-3.36-7.5-7.5-7.5H22.5C10.09,45,0,55.09,0,67.5v80c0,12.41,10.09,22.5,22.5,22.5h20.8c4.14,0,7.5-3.36,7.5-7.5s-3.36-7.5-7.5-7.5H22.5c-4.14,0-7.5-3.36-7.5-7.5V67.5c0-4.14,3.36-7.5,7.5-7.5Z"/>
  </g>
  <g>
    <path class="cls-1" d="M283.1,5.84c-4.19-3.77-9.56-5.84-15.13-5.84H114.03c-5.56,0-10.94,2.07-15.13,5.84-28.85,25.93-45.4,62.98-45.4,101.66s16.55,75.73,45.4,101.66c4.19,3.77,9.56,5.84,15.13,5.84h153.94c5.56,0,10.94-2.07,15.13-5.84,28.85-25.93,45.4-62.98,45.4-101.66s-16.55-75.73-45.4-101.66ZM98.5,112.5c0,4.14-3.36,7.5-7.5,7.5s-7.5-3.36-7.5-7.5v-10c0-4.14,3.36-7.5,7.5-7.5s7.5,3.36,7.5,7.5v10Zm92.5,70c-41.36,0-75-33.65-75-75s33.64-75,75-75,75,33.65,75,75-33.64,75-75,75Zm100-62.5c-4.14,0-7.5-3.36-7.5-7.5v-10c0-4.14,3.36-7.5,7.5-7.5s7.5,3.36,7.5,7.5v10c0,4.14-3.36,7.5-7.5,7.5Z"/>
    <path class="cls-1" d="M191,47.5c-33.08,0-60,26.92-60,60s26.92,60,60,60,60-26.92,60-60-26.92-60-60-60Zm.02,102.5c-23.43,0-42.5-19.07-42.5-42.5s19.07-42.5,42.5-42.5c6.39,0,12.53,1.39,18.27,4.12,2.72,1.3,4.4,4.09,4.27,7.1-.02,.42-.03,.85-.03,1.28,0,10.55,6.16,20.3,15.69,24.84,2.72,1.3,4.4,4.1,4.26,7.11-1.03,22.74-19.68,40.55-42.45,40.55Z"/>
    <path class="cls-1" d="M198.67,81.08c-2.47-.72-5.03-1.08-7.65-1.08-15.16,0-27.5,12.34-27.5,27.5s12.34,27.5,27.5,27.5c13.23,0,24.3-9.28,26.91-21.82-10.95-7.12-18.14-19.04-19.26-32.1Z"/>
  </g>
</svg>