<?xml version="1.0" encoding="UTF-8"?>
<svg id="OBJECT" xmlns="http://www.w3.org/2000/svg" viewBox="0 0 32 32">
  <defs>
    <style>
      .cls-1 {
        fill: #FD4360;
      }

      .cls-1, .cls-2 {
        stroke-width: 0px;
      }

      .cls-2 {
        fill: #dadada;
      }
    </style>
  </defs>
  <g>
    <path class="cls-2" d="m25,1H7C3.69,1,1,3.69,1,7v4c0,3.31,2.69,6,6,6h18c3.31,0,6-2.69,6-6v-4c0-3.31-2.69-6-6-6ZM7,15c-2.21,0-4-1.79-4-4v-4c0-2.21,1.79-4,4-4h4c2.21,0,4,1.79,4,4v4c0,2.21-1.79,4-4,4h-4Zm22-4c0,2.21-1.79,4-4,4h-9.54c.95-1.06,1.54-2.46,1.54-4v-4c0-1.54-.59-2.94-1.54-4h9.54c2.21,0,4,1.79,4,4v4Z"/>
    <path class="cls-2" d="m12.6,7.46c-1.06-.17-1.89-1-2.06-2.06-.07-.43-.4-.76-.83-.83-.23-.04-.47-.07-.71-.07-2.48,0-4.5,2.02-4.5,4.5s2.02,4.5,4.5,4.5,4.5-2.02,4.5-4.5c0-.24-.03-.48-.07-.71-.07-.43-.4-.76-.83-.83Zm-3.6,4.04c-1.38,0-2.5-1.12-2.5-2.5,0-1.3,1-2.37,2.27-2.49.45,1.27,1.45,2.27,2.72,2.72-.12,1.27-1.19,2.27-2.49,2.27Z"/>
    <path class="cls-2" d="m26,8h-3c-.55,0-1,.45-1,1s.45,1,1,1h3c.55,0,1-.45,1-1s-.45-1-1-1Z"/>
    <path class="cls-2" d="m19.5,8h-.5c-.55,0-1,.45-1,1s.45,1,1,1h.5c.55,0,1-.45,1-1s-.45-1-1-1Z"/>
  </g>
  <g>
    <path class="cls-1" d="m3,27v2c0,1.1.9,2,2,2h22c1.1,0,2-.9,2-2v-2H3Z"/>
    <rect class="cls-1" x="13" y="19" width="6" height="6"/>
    <path class="cls-1" d="m24,23c0-.46-.31-.86-.76-.97l-2.24-.56v3.53h3v-2Z"/>
    <path class="cls-1" d="m11,21.47l-2.24.56c-.44.11-.76.51-.76.97v2h3v-3.53Z"/>
  </g>
</svg>