<?xml version="1.0" encoding="UTF-8"?>
<svg id="OBJECT" xmlns="http://www.w3.org/2000/svg" viewBox="0 0 32 32">
  <defs>
    <style>
      .cls-1 {
        fill: #FD4360;
      }

      .cls-1, .cls-2 {
        stroke-width: 0px;
      }

      .cls-2 {
        fill: #dadada;
      }
    </style>
  </defs>
  <path class="cls-1" d="m28.76,1h-11.53c-1.23,0-2.24,1-2.24,2.24v11.12c0,.39.23.75.58.91.13.06.28.09.42.09.23,0,.47-.08.65-.24l2.6-2.23h9.51c1.23,0,2.24-1,2.24-2.24V3.24c0-1.23-1-2.24-2.24-2.24Zm-8.83,6.86h-.88c-.55,0-1-.45-1-1s.45-1,1-1h.88c.55,0,1,.45,1,1s-.45,1-1,1Zm3.5,0h-.88c-.55,0-1-.45-1-1s.45-1,1-1h.88c.55,0,1,.45,1,1s-.45,1-1,1Zm3.5,0h-.88c-.55,0-1-.45-1-1s.45-1,1-1h.88c.55,0,1,.45,1,1s-.45,1-1,1Z"/>
  <g>
    <path class="cls-2" d="m30,24.92h-.75v-10.03c0-.55-.45-1-1-1s-1,.45-1,1v10.03H4.75v-13.25c0-.41.34-.75.75-.75h7.5c.55,0,1-.45,1-1s-.45-1-1-1h-7.5c-1.52,0-2.75,1.23-2.75,2.75v13.25h-.75c-.55,0-1,.45-1,1v2.33c0,1.52,1.23,2.75,2.75,2.75h24.5c1.52,0,2.75-1.23,2.75-2.75v-2.33c0-.55-.45-1-1-1Zm-1,3.33c0,.41-.34.75-.75.75H3.75c-.41,0-.75-.34-.75-.75v-1.33h26v1.33Z"/>
    <path class="cls-2" d="m18,21.92h3c.55,0,1-.45,1-1s-.45-1-1-1h-3c-.55,0-1,.45-1,1s.45,1,1,1Z"/>
    <path class="cls-2" d="m25,19.92h-1c-.55,0-1,.45-1,1s.45,1,1,1h1c.55,0,1-.45,1-1s-.45-1-1-1Z"/>
    <path class="cls-2" d="m18,17.92h7c.55,0,1-.45,1-1s-.45-1-1-1h-7c-.55,0-1,.45-1,1s.45,1,1,1Z"/>
    <path class="cls-2" d="m6,20.76c0,1.32,1.08,2.4,2.4,2.4h4.2c1.32,0,2.4-1.08,2.4-2.4,0-1.42-.71-2.69-1.82-3.46.26-.45.42-.97.42-1.52,0-1.71-1.39-3.1-3.1-3.1s-3.1,1.39-3.1,3.1c0,.56.16,1.07.42,1.52-1.11.77-1.82,2.04-1.82,3.46Zm6.6.4h-4.2c-.22,0-.4-.18-.4-.4,0-.94.59-1.76,1.45-2.08.33.12.68.19,1.05.19s.72-.08,1.05-.19c.87.32,1.45,1.14,1.45,2.08,0,.22-.18.4-.4.4Zm-2.1-6.49c.61,0,1.1.49,1.1,1.1s-.49,1.1-1.1,1.1-1.1-.49-1.1-1.1.49-1.1,1.1-1.1Z"/>
  </g>
</svg>