<?xml version="1.0" encoding="UTF-8"?>
<svg id="OBJECT" xmlns="http://www.w3.org/2000/svg" viewBox="0 0 32 32">
  <defs>
    <style>
      .cls-1 {
        fill: #FD4360;
      }

      .cls-1, .cls-2 {
        stroke-width: 0px;
      }

      .cls-2 {
        fill: #dadada;
      }
    </style>
  </defs>
  <g>
    <path class="cls-2" d="m30,9c-.55,0-1,.45-1,1v19H3V10c0-.55-.45-1-1-1s-1,.45-1,1v20c0,.55.45,1,1,1h28c.55,0,1-.45,1-1V10c0-.55-.45-1-1-1Z"/>
    <path class="cls-2" d="m6.25,27.5h6c.55,0,1-.45,1-1s-.45-1-1-1h-6c-.55,0-1,.45-1,1s.45,1,1,1Z"/>
    <path class="cls-2" d="m6.25,24.5h3c.55,0,1-.45,1-1s-.45-1-1-1h-3c-.55,0-1,.45-1,1s.45,1,1,1Z"/>
    <path class="cls-2" d="m9.75,21h3v.5c0,.49.35.91.84.99l1.16.19v2.32c0,1.38,1.12,2.5,2.5,2.5h.61c.91,0,1.75-.5,2.19-1.3l1.33-2.42,3.37.56v.15c0,.55.45,1,1,1s1-.45,1-1v-13c0-.55-.45-1-1-1s-1,.45-1,1v.15l-11.16,1.86c-.48.08-.84.5-.84.99v.5h-3c-.55,0-1,.45-1,1v4c0,.55.45,1,1,1Zm8.55,4.24c-.09.16-.26.26-.44.26h-.61c-.28,0-.5-.22-.5-.5v-1.99l2.54.42-.99,1.8Zm-3.55-9.89l4.09-.68v3.84c0,.55.45,1,1,1s1-.45,1-1v-4.17l3.91-.65v8.64l-10-1.67v-5.31Zm-4,1.65h2v2h-2v-2Z"/>
  </g>
  <path class="cls-1" d="m30,1H2c-.55,0-1,.45-1,1v5h30V2c0-.55-.45-1-1-1ZM5.5,5h-.5c-.55,0-1-.45-1-1s.45-1,1-1h.5c.55,0,1,.45,1,1s-.45,1-1,1Zm4,0h-.5c-.55,0-1-.45-1-1s.45-1,1-1h.5c.55,0,1,.45,1,1s-.45,1-1,1Zm4,0h-.5c-.55,0-1-.45-1-1s.45-1,1-1h.5c.55,0,1,.45,1,1s-.45,1-1,1Z"/>
</svg>