<?xml version="1.0" encoding="UTF-8"?>
<svg id="OBJECT" xmlns="http://www.w3.org/2000/svg" viewBox="0 0 32 32">
  <defs>
    <style>
      .cls-1 {
        fill: #FD4360;
      }

      .cls-1, .cls-2 {
        stroke-width: 0px;
      }

      .cls-2 {
        fill: #dadada;
      }
    </style>
  </defs>
  <g>
    <path class="cls-2" d="m30,1H2c-.55,0-1,.45-1,1v28c0,.55.45,1,1,1h28c.55,0,1-.45,1-1V2c0-.55-.45-1-1-1Zm-1,28H3V3h26v26Z"/>
    <path class="cls-2" d="m6,26.5h8c.55,0,1-.45,1-1v-12c0-.55-.45-1-1-1H6c-.55,0-1,.45-1,1v12c0,.55.45,1,1,1Zm1-12h6v10h-6v-10Z"/>
    <path class="cls-2" d="m18,18.5h8c.55,0,1-.45,1-1v-4c0-.55-.45-1-1-1h-8c-.55,0-1,.45-1,1v4c0,.55.45,1,1,1Zm1-4h6v2h-6v-2Z"/>
    <path class="cls-2" d="m18,22.5h8c.55,0,1-.45,1-1s-.45-1-1-1h-8c-.55,0-1,.45-1,1s.45,1,1,1Z"/>
    <path class="cls-2" d="m18,26.5h8c.55,0,1-.45,1-1s-.45-1-1-1h-8c-.55,0-1,.45-1,1s.45,1,1,1Z"/>
  </g>
  <path class="cls-1" d="m30,1H2c-.55,0-1,.45-1,1v6h30V2c0-.55-.45-1-1-1ZM6,5.5h-1c-.55,0-1-.45-1-1s.45-1,1-1h1c.55,0,1,.45,1,1s-.45,1-1,1Zm4,0h-1c-.55,0-1-.45-1-1s.45-1,1-1h1c.55,0,1,.45,1,1s-.45,1-1,1Zm4,0h-1c-.55,0-1-.45-1-1s.45-1,1-1h1c.55,0,1,.45,1,1s-.45,1-1,1Z"/>
</svg>