<?xml version="1.0" encoding="UTF-8"?>
<svg id="OBJECT" xmlns="http://www.w3.org/2000/svg" viewBox="0 0 32 32">
  <defs>
    <style>
      .cls-1 {
        fill: #FD4360;
      }

      .cls-1, .cls-2 {
        stroke-width: 0px;
      }

      .cls-2 {
        fill: #dadada;
      }
    </style>
  </defs>
  <g>
    <path class="cls-2" d="m25,24H7c-.55,0-1,.45-1,1s.45,1,1,1h18c.55,0,1-.45,1-1s-.45-1-1-1Z"/>
    <path class="cls-2" d="m7,8h18c.55,0,1-.45,1-1s-.45-1-1-1H7c-.55,0-1,.45-1,1s.45,1,1,1Z"/>
    <path class="cls-2" d="m13,12c-2.21,0-4,1.79-4,4s1.79,4,4,4h6c2.21,0,4-1.79,4-4s-1.79-4-4-4h-6Zm0,6c-1.1,0-2-.9-2-2s.9-2,2-2h2c1.1,0,2,.9,2,2s-.9,2-2,2h-2Zm8-2c0,1.1-.9,2-2,2h-.56c.34-.59.56-1.27.56-2s-.21-1.41-.56-2h.56c1.1,0,2,.9,2,2Z"/>
  </g>
  <g>
    <path class="cls-1" d="m30.53,4.15c-.3-.18-.66-.2-.97-.04l-2.55,1.28v21.24l2.55,1.28c.14.07.29.11.45.11.18,0,.37-.05.53-.15.29-.18.47-.5.47-.85V5c0-.35-.18-.67-.47-.85Z"/>
    <path class="cls-1" d="m1.47,4.15c-.29.18-.47.5-.47.85v22c0,.35.18.67.47.85.29.18.66.2.97.04l2.55-1.28V5.38l-2.55-1.28c-.31-.15-.68-.14-.97.04Z"/>
  </g>
</svg>