<?xml version="1.0" encoding="UTF-8" standalone="no"?>
<svg
   id="OBJECT"
   viewBox="0 0 32 32"
   version="1.1"
   sodipodi:docname="Whtasapp.svg"
   xml:space="preserve"
   inkscape:version="1.2.2 (732a01da63, 2022-12-09)"
   xmlns:inkscape="http://www.inkscape.org/namespaces/inkscape"
   xmlns:sodipodi="http://sodipodi.sourceforge.net/DTD/sodipodi-0.dtd"
   xmlns="http://www.w3.org/2000/svg"
   xmlns:svg="http://www.w3.org/2000/svg"><sodipodi:namedview
     id="namedview17"
     pagecolor="#505050"
     bordercolor="#ffffff"
     borderopacity="1"
     inkscape:showpageshadow="0"
     inkscape:pageopacity="0"
     inkscape:pagecheckerboard="1"
     inkscape:deskcolor="#505050"
     showgrid="false"
     inkscape:zoom="3.2382813"
     inkscape:cx="-88.009649"
     inkscape:cy="15.749095"
     inkscape:window-width="1920"
     inkscape:window-height="1009"
     inkscape:window-x="-8"
     inkscape:window-y="-8"
     inkscape:window-maximized="1"
     inkscape:current-layer="OBJECT" /><defs
     id="defs4"><style
       id="style2">
      .cls-1 {
        fill: #FD4360;
      }

      .cls-1, .cls-2 {
        stroke-width: 0px;
      }

      .cls-2 {
        fill: #dadada;
      }
    </style></defs><g
     id="g446"
     style="fill:#fd4360;fill-opacity:1"
     transform="matrix(0.70141976,0,0,0.70141976,62.81849,11.791813)"><path
       style="fill:#fd4360;fill-opacity:1;stroke-width:0.0819937;stroke-opacity:0.976471"
       d="m -62.996475,14.039827 c -2.757057,-0.839537 -5.086531,-2.180226 -7.017547,-4.038831 -2.023843,-1.9479503 -4.185356,-5.0143841 -4.83705,-6.8620902 -0.07942,-0.2251824 -0.179067,-0.4094225 -0.221431,-0.4094225 -0.04236,0 -0.05133,-0.098261 -0.01992,-0.2183587 0.03141,-0.1200972 0.01452,-0.2183545 -0.03752,-0.2183493 -0.142274,1.39e-5 -0.09176,-2.05756906 0.06429,-2.61848498 0.118125,-0.42460738 0.40992,-1.04191752 0.8334,-1.76311102 0.214706,-0.3656475 0.528751,-0.6590821 1.002532,-0.9367362 0.408748,-0.2395424 0.566694,-0.2683875 1.274015,-0.2326694 0.707502,0.035727 0.840892,0.076888 1.077886,0.3326092 0.148756,0.16051 0.244317,0.3179847 0.212358,0.3499439 -0.06906,0.069061 1.037861,3.08054496 1.246611,3.39151642 0.07951,0.11844636 0.144565,0.32348858 0.144565,0.45564948 0,0.2557008 -0.532977,1.0122074 -1.219488,1.7309389 -0.229426,0.2401946 -0.394355,0.4981307 -0.366508,0.5731915 0.02785,0.075061 0.003,0.1364742 -0.05512,0.1364742 -0.192107,0 -0.110427,0.3427925 0.236997,0.9946262 0.188512,0.3536851 0.408058,0.6430638 0.48788,0.6430638 0.07982,0 0.121485,0.061622 0.09258,0.136937 -0.05616,0.1463575 0.864832,1.173215 1.052263,1.173215 0.0615,0 0.08007,0.051376 0.04126,0.1141689 -0.07065,0.1143173 1.303786,1.5225756 2.106513,2.1583465 0.537842,0.4259795 2.491825,1.3710193 2.642369,1.2779773 0.06198,-0.0383 0.112682,-0.01761 0.112682,0.04598 0,0.278198 0.397299,0.06678 1.047109,-0.557194 0.385368,-0.3700503 0.684429,-0.6890581 0.664582,-0.7089058 -0.01985,-0.019849 0.175342,-0.2631277 0.433755,-0.54062 0.553085,-0.5939203 0.655644,-0.5905936 1.778421,0.057695 0.39394,0.2274587 1.207562,0.6724311 1.808048,0.9888252 0.600486,0.316394 1.155399,0.6551706 1.233138,0.7528366 0.162886,0.204639 0.102754,0.70759 -0.202782,1.696101 -0.2581,0.835043 -0.894612,1.437086 -2.017852,1.908582 -1.169255,0.49081 -2.389994,0.553948 -3.598036,0.186095 z"
       id="path440" /><path
       style="fill:#fd4360;fill-opacity:1;stroke-width:0.0819937;stroke-opacity:0.976471"
       d="m -84.886931,24.156133 c 0,-0.146621 0.787661,-2.449599 0.934821,-2.733253 0.07884,-0.151966 0.617721,-1.692688 1.19751,-3.423823 l 1.05416,-3.147519 -0.600307,-1.175252 c -0.618178,-1.21024 -1.254128,-2.9037 -1.486857,-3.9593254 -0.07281,-0.3302675 -0.176343,-0.6987477 -0.230068,-0.818845 -0.18204,-0.4069387 -0.323362,-1.9199557 -0.323362,-3.4619696 0,-1.5814987 0.189,-3.470918 0.347198,-3.470918 0.04923,0 0.08952,-0.093776 0.08952,-0.2083917 0,-0.5013395 0.827198,-3.0071646 1.361528,-4.1244684 0.700717,-1.4652244 1.378108,-2.5355368 2.301971,-3.6372312 2.538367,-3.0269681 5.532184,-4.9460107 9.220428,-5.9103137 0.750187,-0.196138 1.388541,-0.383629 1.418566,-0.416646 0.03002,-0.03302 0.447531,-0.07467 0.927792,-0.09255 0.480263,-0.01789 0.90765,-0.06702 0.949748,-0.109179 0.0421,-0.04216 0.85286,-0.04139 1.801691,0.0017 0.94883,0.04311 1.786559,0.05693 1.86162,0.03072 0.07506,-0.02621 0.136474,-0.0096 0.136474,0.03681 0,0.111441 1.604027,0.379094 1.746008,0.291345 0.06052,-0.03741 0.11004,-0.01025 0.11004,0.06035 0,0.07355 0.091,0.104561 0.213124,0.07262 0.117218,-0.03065 0.228738,-0.0089 0.247822,0.04836 0.01908,0.05725 0.35307,0.191291 0.742194,0.297868 0.389124,0.106577 0.845806,0.251043 1.01485,0.321035 0.169042,0.06999 0.330989,0.127259 0.359881,0.127259 0.259949,0 2.291399,1.11753 3.243153,1.7841062 0.356582,0.2497385 0.801758,0.5590408 0.989278,0.6873386 0.473663,0.3240719 2.434522,2.2723706 2.951971,2.933063 0.235092,0.3001711 0.481344,0.5948963 0.547228,0.6549449 0.06588,0.060049 0.180563,0.2320061 0.254843,0.3821277 0.07428,0.1501216 0.380018,0.6659939 0.679418,1.146383 0.588869,0.9448423 1.291037,2.540127 1.597847,3.63021277 0.105631,0.37530395 0.219607,0.68259137 0.253279,0.68285995 0.03367,2.1836e-4 0.07081,0.18361016 0.08252,0.40742338 0.01171,0.2238133 0.07037,0.4232905 0.13034,0.4432812 0.05997,0.019992 0.08008,0.1118291 0.04468,0.2040824 -0.0354,0.092254 0.0042,0.2119062 0.08802,0.2658943 0.128174,0.082566 0.128738,0.1134067 0.0036,0.1941241 -0.111866,0.07213 -0.115608,0.1070361 -0.01507,0.1405509 0.418218,0.1394056 0.403049,5.9925217 -0.01684,6.4984587 -0.05948,0.071669 -0.09688,0.2192135 -0.08311,0.3278786 0.01377,0.1086662 -0.03178,0.3358815 -0.101213,0.504925 -0.06943,0.1690423 -0.126245,0.3447916 -0.126245,0.3905543 0,0.04576 -0.153593,0.545258 -0.341317,1.109992 -0.435272,1.30944 -1.118966,2.771455 -1.783964,3.814839 -0.791077,1.241199 -2.588534,3.493738 -2.787896,3.493738 -0.04481,0 -0.296491,0.199551 -0.559287,0.443445 -1.583578,1.469686 -4.052168,2.88327 -6.264315,3.587123 -0.42034,0.133744 -0.862516,0.288275 -0.982614,0.343404 -1.000921,0.459464 -4.175809,0.744635 -6.212895,0.558048 -1.372096,-0.125676 -2.605018,-0.348882 -3.067348,-0.555306 -0.120097,-0.05362 -0.6851,-0.253968 -1.255562,-0.445213 -0.570462,-0.191245 -1.452834,-0.541576 -1.960828,-0.778514 -0.696903,-0.32505 -1.005104,-0.41464 -1.255562,-0.364979 -0.590958,0.117177 -2.732778,0.844706 -2.770504,0.94108 -0.02014,0.05145 -0.08272,0.06506 -0.139059,0.03024 -0.103318,-0.06385 -1.292406,0.289484 -1.898731,0.564205 -0.363275,0.164597 -4.398297,1.462974 -4.546546,1.462974 -0.05147,0 -0.09358,-0.03676 -0.09358,-0.08168 z m 18.123769,-3.41206 c 0,-0.141155 0.843634,-0.143276 0.891632,-0.0022 0.05023,0.147597 2.084828,-0.08688 2.190126,-0.252403 0.05566,-0.0875 0.08162,-0.08951 0.08277,-0.0064 0.0023,0.168026 1.556996,-0.209354 2.738604,-0.664765 1.117178,-0.430576 2.066958,-0.900147 2.066958,-1.021899 0,-0.04839 0.233371,-0.203461 0.518602,-0.344597 1.760564,-0.871141 4.099423,-3.278556 5.189026,-5.341123 0.177122,-0.335283 0.392032,-0.689244 0.477578,-0.786582 0.546141,-0.62141 1.346808,-3.2938453 1.575924,-5.2600603 0.187888,-1.612403 -0.04114,-4.9895894 -0.338379,-4.9895894 -0.04801,0 -0.0616,-0.098261 -0.03019,-0.2183586 0.03319,-0.1269156 0.0034,-0.2183587 -0.07125,-0.2183587 -0.0706,0 -0.09869,-0.047997 -0.06244,-0.1066606 0.07985,-0.1292006 -0.09127,-0.82678122 -0.40236,-1.64020873 -0.126307,-0.33026748 -0.676665,-1.35586867 -1.223018,-2.27911447 -0.763257,-1.2897773 -1.214445,-1.9128855 -1.947733,-2.6898925 -0.836865,-0.8867607 -2.42223,-2.236829 -2.626674,-2.236829 -0.03973,0 -0.331119,-0.1654519 -0.647541,-0.3676708 -2.370869,-1.5151784 -4.956419,-2.2760098 -7.781148,-2.289703 -1.601502,-0.00776 -2.343851,0.066841 -3.602917,0.3620867 -1.624202,0.3808681 -2.534138,0.7764962 -5.016686,2.1811888 -1.266938,0.7168681 -3.367747,2.7330489 -4.059613,3.8960782 -0.11217,0.1885569 -0.372535,0.6307332 -0.578589,0.9826139 -0.206055,0.3518808 -0.483954,0.7871753 -0.617553,0.9673212 -0.440691,0.59422815 -0.926239,1.95458298 -1.354178,3.7939818 -0.138533,0.5954553 -0.159753,0.8466355 -0.07162,0.8478113 0.06888,8.735e-4 0.05154,0.048282 -0.03854,0.1052511 -0.13675,0.08649 -0.163769,0.4674808 -0.163769,2.3093132 0,1.4737856 0.03888,2.2186889 0.117174,2.2447697 0.06445,0.02147 0.09572,0.1852282 0.06949,0.3639089 -0.02623,0.1786796 -0.0053,0.325017 0.04659,0.3251939 0.05185,2.184e-4 0.09783,0.169002 0.102177,0.3751664 0.0111,0.5266451 0.377342,1.726653 0.576822,1.889984 0.09167,0.07506 0.120439,0.137226 0.06393,0.138145 -0.05651,9.2e-4 -0.02906,0.0493 0.06102,0.107508 0.101649,0.06569 0.113734,0.10647 0.03186,0.107508 -0.141398,0.0018 0.442385,1.418423 0.633092,1.536286 0.05819,0.03597 0.239451,0.311112 0.402796,0.61144 0.163346,0.300326 0.385943,0.705158 0.494661,0.899625 l 0.197668,0.353579 -0.512543,1.548455 c -0.281899,0.851651 -0.560586,1.609245 -0.619306,1.683541 -0.05872,0.0743 -0.07824,0.209405 -0.04338,0.300243 0.03486,0.09084 0.01982,0.165159 -0.03341,0.165159 -0.05323,0 -0.229305,0.397917 -0.391272,0.88426 -0.271095,0.814025 -0.280479,0.898265 -0.118145,1.060599 0.10914,0.109141 0.17634,0.127124 0.17634,0.04719 0,-0.07103 0.0737,-0.100868 0.163769,-0.0663 0.09007,0.03457 0.163769,0.0056 0.163769,-0.06446 0,-0.07002 0.0477,-0.09782 0.106005,-0.06179 0.106569,0.06586 3.565783,-0.986761 3.769861,-1.147152 0.06005,-0.04719 0.39444,-0.168437 0.743093,-0.269428 0.597328,-0.173021 0.657189,-0.172684 1.037204,0.0058 0.221809,0.104191 0.427855,0.224864 0.457879,0.26816 0.103287,0.148946 1.209263,0.661019 1.302806,0.603206 0.0515,-0.03183 0.119373,0.0092 0.150818,0.09111 0.06996,0.18231 2.117028,0.866276 2.383867,0.796497 0.105421,-0.02757 0.206313,-0.0079 0.224204,0.0438 0.05371,0.155085 1.506157,0.423767 1.508123,0.278982 0.0012,-0.08601 0.0265,-0.0841 0.084,0.0063 0.04528,0.0712 0.327027,0.148327 0.626109,0.171384 0.299083,0.02306 0.629765,0.05078 0.73485,0.0616 0.105085,0.01083 0.191064,-0.02945 0.191064,-0.0895 z"
       id="path442" /></g></svg>
