<?xml version="1.0" encoding="UTF-8"?>
<svg id="OBJECT" xmlns="http://www.w3.org/2000/svg" viewBox="0 0 32 32">
  <defs>
    <style>
      .cls-1 {
        fill: #FD4360;
      }

      .cls-1, .cls-2 {
        stroke-width: 0px;
      }

      .cls-2 {
        fill: #dadada;
      }
    </style>
  </defs>
  <g>
    <path class="cls-2" d="m30,18H2c-.55,0-1,.45-1,1v11c0,.55.45,1,1,1s1-.45,1-1v-2h26v2c0,.55.45,1,1,1s1-.45,1-1v-11c0-.55-.45-1-1-1ZM3,26v-6h26v6H3Z"/>
    <path class="cls-2" d="m6,21.5c-.55,0-1,.45-1,1v1c0,.55.45,1,1,1s1-.45,1-1v-1c0-.55-.45-1-1-1Z"/>
    <path class="cls-2" d="m9,21.5c-.55,0-1,.45-1,1v1c0,.55.45,1,1,1s1-.45,1-1v-1c0-.55-.45-1-1-1Z"/>
    <path class="cls-2" d="m12,21.5c-.55,0-1,.45-1,1v1c0,.55.45,1,1,1s1-.45,1-1v-1c0-.55-.45-1-1-1Z"/>
    <path class="cls-2" d="m26,22h-10c-.55,0-1,.45-1,1s.45,1,1,1h10c.55,0,1-.45,1-1s-.45-1-1-1Z"/>
  </g>
  <g>
    <path class="cls-1" d="m7.5,1h-1c-.83,0-1.5.67-1.5,1.5v1.5h4v-1.5c0-.83-.67-1.5-1.5-1.5Z"/>
    <rect class="cls-1" x="5" y="6" width="4" height="10"/>
    <path class="cls-1" d="m16.46,5.8c-.39.4-.38,1.03.02,1.41.49.48.76,1.11.76,1.79s-.27,1.31-.76,1.79c-.4.39-.4,1.02-.02,1.41.2.2.46.3.71.3s.5-.09.7-.29c.88-.86,1.36-2,1.36-3.21s-.48-2.36-1.36-3.21c-.39-.39-1.03-.38-1.41.02Z"/>
    <path class="cls-1" d="m21.58,3.29c-.4-.39-1.03-.38-1.41.02-.39.4-.38,1.03.02,1.41,1.17,1.15,1.82,2.67,1.82,4.29s-.65,3.14-1.82,4.29c-.4.39-.4,1.02-.02,1.41.2.2.46.3.71.3s.5-.09.7-.29c1.56-1.52,2.42-3.55,2.42-5.71s-.86-4.19-2.42-5.71Z"/>
    <path class="cls-1" d="m14,7.72c-.55,0-1,.45-1,1v.56c0,.55.45,1,1,1s1-.45,1-1v-.56c0-.55-.45-1-1-1Z"/>
  </g>
</svg>