<?xml version="1.0" encoding="UTF-8"?>
<svg id="OBJECT" xmlns="http://www.w3.org/2000/svg" viewBox="0 0 512 512">
  <defs>
    <style>
      .cls-1 {
        fill: #FD4360;
      }

      .cls-2 {
        fill: #dadada;
      }
    </style>
  </defs>
  <g>
    <path class="cls-2" d="M231,238.5c0,13.79,11.21,25,25,25s25-11.21,25-25-11.21-25-25-25-25,11.21-25,25Zm35,0c0,5.51-4.49,10-10,10s-10-4.49-10-10,4.49-10,10-10,10,4.49,10,10Z"/>
    <path class="cls-2" d="M301.45,203.5c1.94,0,3.88-.75,5.35-2.24,2.9-2.95,2.86-7.7-.09-10.61-27.96-27.48-73.46-27.48-101.42,0-2.95,2.9-3,7.65-.09,10.61,2.9,2.95,7.65,3,10.61,.09,22.17-21.78,58.23-21.78,80.4,0,1.46,1.44,3.36,2.15,5.26,2.15Z"/>
    <path class="cls-2" d="M328.73,168.85c1.94,0,3.88-.75,5.35-2.24,2.9-2.95,2.86-7.7-.09-10.61-43-42.25-112.97-42.25-155.97,0-2.95,2.9-3,7.65-.09,10.61,2.9,2.95,7.65,3,10.61,.09,37.2-36.56,97.74-36.56,134.94,0,1.46,1.44,3.36,2.15,5.26,2.15Z"/>
    <path class="cls-2" d="M161.26,132.05c52.24-51.33,137.25-51.33,189.49,0,1.46,1.44,3.36,2.15,5.26,2.15s3.88-.75,5.35-2.24c2.9-2.95,2.86-7.7-.09-10.61-58.04-57.03-152.47-57.03-210.51,0-2.95,2.9-3,7.65-.09,10.61,2.9,2.96,7.65,3,10.61,.09Z"/>
    <path class="cls-2" d="M489.5,317H22.5c-12.41,0-22.5,10.09-22.5,22.5v110c0,12.41,10.09,22.5,22.5,22.5h7.5v32.5c0,4.14,3.36,7.5,7.5,7.5h100c4.14,0,7.5-3.36,7.5-7.5v-32.5h222v32.5c0,4.14,3.36,7.5,7.5,7.5h100c4.14,0,7.5-3.36,7.5-7.5v-32.5h7.5c12.41,0,22.5-10.09,22.5-22.5v-110c0-12.41-10.09-22.5-22.5-22.5ZM130,497H45v-25h85v25Zm337,0h-85v-25h85v25Zm30-47.5c0,4.14-3.36,7.5-7.5,7.5H22.5c-4.14,0-7.5-3.36-7.5-7.5v-110c0-4.14,3.36-7.5,7.5-7.5H489.5c4.14,0,7.5,3.36,7.5,7.5v110Z"/>
    <path class="cls-2" d="M337.5,362h-10c-9.65,0-17.5,7.85-17.5,17.5v30c0,9.65,7.85,17.5,17.5,17.5h10c9.65,0,17.5-7.85,17.5-17.5v-30c0-9.65-7.85-17.5-17.5-17.5Zm2.5,47.5c0,1.38-1.12,2.5-2.5,2.5h-10c-1.38,0-2.5-1.12-2.5-2.5v-30c0-1.38,1.12-2.5,2.5-2.5h10c1.38,0,2.5,1.12,2.5,2.5v30Z"/>
    <path class="cls-2" d="M401,362h-10c-9.65,0-17.5,7.85-17.5,17.5v30c0,9.65,7.85,17.5,17.5,17.5h10c9.65,0,17.5-7.85,17.5-17.5v-30c0-9.65-7.85-17.5-17.5-17.5Zm2.5,47.5c0,1.38-1.12,2.5-2.5,2.5h-10c-1.38,0-2.5-1.12-2.5-2.5v-30c0-1.38,1.12-2.5,2.5-2.5h10c1.38,0,2.5,1.12,2.5,2.5v30Z"/>
    <path class="cls-2" d="M464.5,362h-10c-9.65,0-17.5,7.85-17.5,17.5v30c0,9.65,7.85,17.5,17.5,17.5h10c9.65,0,17.5-7.85,17.5-17.5v-30c0-9.65-7.85-17.5-17.5-17.5Zm2.5,47.5c0,1.38-1.12,2.5-2.5,2.5h-10c-1.38,0-2.5-1.12-2.5-2.5v-30c0-1.38,1.12-2.5,2.5-2.5h10c1.38,0,2.5,1.12,2.5,2.5v30Z"/>
    <path class="cls-2" d="M267.5,357H47.5c-9.65,0-17.5,7.85-17.5,17.5v40c0,9.65,7.85,17.5,17.5,17.5h220c9.65,0,17.5-7.85,17.5-17.5v-40c0-9.65-7.85-17.5-17.5-17.5Zm2.5,57.5c0,1.38-1.12,2.5-2.5,2.5H47.5c-1.38,0-2.5-1.12-2.5-2.5v-40c0-1.38,1.12-2.5,2.5-2.5h220c1.38,0,2.5,1.12,2.5,2.5v40Z"/>
    <path class="cls-2" d="M247.5,387H127.5c-4.14,0-7.5,3.36-7.5,7.5s3.36,7.5,7.5,7.5h120c4.14,0,7.5-3.36,7.5-7.5s-3.36-7.5-7.5-7.5Z"/>
    <path class="cls-2" d="M72.5,387h-5c-4.14,0-7.5,3.36-7.5,7.5s3.36,7.5,7.5,7.5h5c4.14,0,7.5-3.36,7.5-7.5s-3.36-7.5-7.5-7.5Z"/>
    <path class="cls-2" d="M102.5,387h-5c-4.14,0-7.5,3.36-7.5,7.5s3.36,7.5,7.5,7.5h5c4.14,0,7.5-3.36,7.5-7.5s-3.36-7.5-7.5-7.5Z"/>
  </g>
  <g>
    <rect class="cls-1" x="387" y="267" width="75" height="35"/>
    <path class="cls-1" d="M444.5,15c0-8.28-6.72-15-15-15h-10c-8.28,0-15,6.72-15,15V50h40V15Z"/>
    <rect class="cls-1" x="404.5" y="65" width="40" height="187"/>
    <rect class="cls-1" x="50" y="267" width="75" height="35"/>
    <path class="cls-1" d="M107.5,15c0-8.28-6.72-15-15-15h-10c-8.28,0-15,6.72-15,15V50h40V15Z"/>
    <rect class="cls-1" x="67.5" y="65" width="40" height="187"/>
  </g>
</svg>