<?xml version="1.0" encoding="UTF-8"?>
<svg id="OBJECT" xmlns="http://www.w3.org/2000/svg" viewBox="0 0 32 32">
  <defs>
    <style>
      .cls-1 {
        fill: #FD4360;
      }

      .cls-1, .cls-2 {
        stroke-width: 0px;
      }

      .cls-2 {
        fill: #dadada;
      }
    </style>
  </defs>
  <g>
    <path class="cls-2" d="m24.5,8.82c.25,0,.5-.09.7-.29.39-.39.4-1.02.02-1.41-.86-.88-2-1.36-3.21-1.36s-2.36.48-3.21,1.36c-.39.4-.38,1.03.02,1.41.4.39,1.03.38,1.41-.02.96-.98,2.61-.98,3.57,0,.2.2.46.3.71.3Z"/>
    <path class="cls-2" d="m17.71,4.82c1.15-1.17,2.67-1.82,4.29-1.82s3.14.65,4.29,1.82c.2.2.46.3.71.3s.5-.09.7-.29c.39-.39.4-1.02.02-1.41-1.53-1.56-3.55-2.42-5.71-2.42s-4.19.86-5.71,2.42c-.39.4-.38,1.03.02,1.41.4.39,1.03.38,1.41-.02Z"/>
    <path class="cls-2" d="m21.72,10c-.55,0-1,.45-1,1s.45,1,1,1h.55c.55,0,1-.45,1-1s-.45-1-1-1h-.55Z"/>
    <path class="cls-2" d="m28,15H4c-1.65,0-3,1.35-3,3v10c0,1.65,1.35,3,3,3h24c1.65,0,3-1.35,3-3v-10c0-1.65-1.35-3-3-3Zm1,13c0,.55-.45,1-1,1H4c-.55,0-1-.45-1-1v-10c0-.55.45-1,1-1h24c.55,0,1,.45,1,1v10Z"/>
    <path class="cls-2" d="m20.25,24h1c.55,0,1-.45,1-1s-.45-1-1-1h-1c-.55,0-1,.45-1,1s.45,1,1,1Z"/>
    <path class="cls-2" d="m15.5,24h1c.55,0,1-.45,1-1s-.45-1-1-1h-1c-.55,0-1,.45-1,1s.45,1,1,1Z"/>
    <path class="cls-2" d="m11.75,22h-1c-.55,0-1,.45-1,1s.45,1,1,1h1c.55,0,1-.45,1-1s-.45-1-1-1Z"/>
    <path class="cls-2" d="m7,22h-1c-.55,0-1,.45-1,1s.45,1,1,1h1c.55,0,1-.45,1-1s-.45-1-1-1Z"/>
    <path class="cls-2" d="m26,22h-1c-.55,0-1,.45-1,1s.45,1,1,1h1c.55,0,1-.45,1-1s-.45-1-1-1Z"/>
    <path class="cls-2" d="m20.25,20.5h1c.55,0,1-.45,1-1s-.45-1-1-1h-1c-.55,0-1,.45-1,1s.45,1,1,1Z"/>
    <path class="cls-2" d="m15.5,20.5h1c.55,0,1-.45,1-1s-.45-1-1-1h-1c-.55,0-1,.45-1,1s.45,1,1,1Z"/>
    <path class="cls-2" d="m11.75,18.5h-1c-.55,0-1,.45-1,1s.45,1,1,1h1c.55,0,1-.45,1-1s-.45-1-1-1Z"/>
    <path class="cls-2" d="m7,18.5h-1c-.55,0-1,.45-1,1s.45,1,1,1h1c.55,0,1-.45,1-1s-.45-1-1-1Z"/>
    <path class="cls-2" d="m26,18.5h-1c-.55,0-1,.45-1,1s.45,1,1,1h1c.55,0,1-.45,1-1s-.45-1-1-1Z"/>
    <path class="cls-2" d="m11.75,25.5h-1c-.55,0-1,.45-1,1s.45,1,1,1h1c.55,0,1-.45,1-1s-.45-1-1-1Z"/>
    <path class="cls-2" d="m7,25.5h-1c-.55,0-1,.45-1,1s.45,1,1,1h1c.55,0,1-.45,1-1s-.45-1-1-1Z"/>
    <path class="cls-2" d="m26,25.5h-10.5c-.55,0-1,.45-1,1s.45,1,1,1h10.5c.55,0,1-.45,1-1s-.45-1-1-1Z"/>
  </g>
  <g>
    <path class="cls-1" d="m4,9v2c0,1.1.9,2,2,2h8c1.1,0,2-.9,2-2v-2H4Z"/>
    <path class="cls-1" d="m14,1H6v6h8V1Zm-3,3.25c0,.55-.45,1-1,1s-1-.45-1-1v-.5c0-.55.45-1,1-1s1,.45,1,1v.5Z"/>
  </g>
</svg>