<?xml version="1.0" encoding="UTF-8"?>
<svg id="OBJECT" xmlns="http://www.w3.org/2000/svg" viewBox="0 0 32 32">
  <defs>
    <style>
      .cls-1 {
        fill: #FD4360;
      }

      .cls-1, .cls-2 {
        stroke-width: 0px;
      }

      .cls-2 {
        fill: #dadada;
      }
    </style>
  </defs>
  <g>
    <path class="cls-2" d="m28,1H4c-1.65,0-3,1.35-3,3v24c0,1.65,1.35,3,3,3h24c1.65,0,3-1.35,3-3V4c0-1.65-1.35-3-3-3ZM4,3h24c.55,0,1,.45,1,1v3H3v-3c0-.55.45-1,1-1Zm24,26H4c-.55,0-1-.45-1-1V9h26v19c0,.55-.45,1-1,1Z"/>
    <path class="cls-2" d="m5,6h1c.55,0,1-.45,1-1s-.45-1-1-1h-1c-.55,0-1,.45-1,1s.45,1,1,1Z"/>
    <path class="cls-2" d="m9,6h1c.55,0,1-.45,1-1s-.45-1-1-1h-1c-.55,0-1,.45-1,1s.45,1,1,1Z"/>
    <path class="cls-2" d="m13,6h1c.55,0,1-.45,1-1s-.45-1-1-1h-1c-.55,0-1,.45-1,1s.45,1,1,1Z"/>
    <path class="cls-2" d="m26.5,10.5H5.5c-.55,0-1,.45-1,1v5c0,.55.45,1,1,1h21c.55,0,1-.45,1-1v-5c0-.55-.45-1-1-1Zm-20,2h8.5v3H6.5v-3Zm19,3h-8.5v-3h8.5v3Z"/>
  </g>
  <g>
    <path class="cls-1" d="m11.5,19.5h-5.59l6.59,6.59v-5.59c0-.55-.45-1-1-1Z"/>
    <path class="cls-1" d="m4.5,26.5c0,.55.45,1,1,1h5.59l-6.59-6.59v5.59Z"/>
    <path class="cls-1" d="m14.5,26.5c0,.55.45,1,1,1h10.75l-11.75-6.41v5.41Z"/>
    <path class="cls-1" d="m26.5,19.5h-10.75l11.75,6.41v-5.41c0-.55-.45-1-1-1Z"/>
  </g>
</svg>