<?xml version="1.0" encoding="UTF-8"?>
<svg id="OBJECT" xmlns="http://www.w3.org/2000/svg" viewBox="0 0 32 32">
  <defs>
    <style>
      .cls-1 {
        fill: #FD4360;
      }

      .cls-1, .cls-2 {
        stroke-width: 0px;
      }

      .cls-2 {
        fill: #dadada;
      }
    </style>
  </defs>
  <path class="cls-2" d="m13,7H5c-2.21,0-4,1.79-4,4v12c0,4.41,3.59,8,8,8s8-3.59,8-8v-12c0-2.21-1.79-4-4-4Zm-4.5,7h1c.55,0,1,.45,1,1v4c0,.55-.45,1-1,1h-1c-.55,0-1-.45-1-1v-4c0-.55.45-1,1-1Zm6.5,9c0,3.31-2.69,6-6,6s-6-2.69-6-6v-12c0-1.1.9-2,2-2h3v3.05c-1.42.24-2.5,1.47-2.5,2.95v4c0,1.65,1.35,3,3,3h1c1.65,0,3-1.35,3-3v-4c0-1.48-1.08-2.71-2.5-2.95v-3.05h3c1.1,0,2,.9,2,2v12Z"/>
  <g>
    <path class="cls-1" d="m21,10v4c0,.55.45,1,1,1h8c.55,0,1-.45,1-1v-4h-10Z"/>
    <path class="cls-1" d="m30,2c0-.55-.45-1-1-1h-6c-.55,0-1,.45-1,1v6h8V2Zm-3.5,3.5h-1c-.55,0-1-.45-1-1s.45-1,1-1h1c.55,0,1,.45,1,1s-.45,1-1,1Z"/>
  </g>
</svg>