<?xml version="1.0" encoding="UTF-8"?>
<svg id="OBJECT" xmlns="http://www.w3.org/2000/svg" viewBox="0 0 32 32">
  <defs>
    <style>
      .cls-1 {
        fill: #FD4360;
      }

      .cls-1, .cls-2 {
        stroke-width: 0px;
      }

      .cls-2 {
        fill: #dadada;
      }
    </style>
  </defs>
  <path class="cls-2" d="m28,15h-15v-3c0-.55-.45-1-1-1h-6c-.55,0-1,.45-1,1v3h-1c-1.65,0-3,1.35-3,3v10c0,1.65,1.35,3,3,3h24c1.65,0,3-1.35,3-3v-10c0-1.65-1.35-3-3-3Zm-21-2h4v2h-4v-2Zm22,15c0,.55-.45,1-1,1H4c-.55,0-1-.45-1-1v-10c0-.55.45-1,1-1h24c.55,0,1,.45,1,1v10Z"/>
  <path class="cls-2" d="m20.5,20.5h1c.55,0,1-.45,1-1s-.45-1-1-1h-1c-.55,0-1,.45-1,1s.45,1,1,1Z"/>
  <path class="cls-2" d="m15.5,20.5h1c.55,0,1-.45,1-1s-.45-1-1-1h-1c-.55,0-1,.45-1,1s.45,1,1,1Z"/>
  <path class="cls-2" d="m11.5,18.5h-1c-.55,0-1,.45-1,1s.45,1,1,1h1c.55,0,1-.45,1-1s-.45-1-1-1Z"/>
  <path class="cls-2" d="m6.5,18.5h-1c-.55,0-1,.45-1,1s.45,1,1,1h1c.55,0,1-.45,1-1s-.45-1-1-1Z"/>
  <path class="cls-2" d="m26.5,18.5h-1c-.55,0-1,.45-1,1s.45,1,1,1h1c.55,0,1-.45,1-1s-.45-1-1-1Z"/>
  <path class="cls-2" d="m20.5,24h1c.55,0,1-.45,1-1s-.45-1-1-1h-1c-.55,0-1,.45-1,1s.45,1,1,1Z"/>
  <path class="cls-2" d="m15.5,24h1c.55,0,1-.45,1-1s-.45-1-1-1h-1c-.55,0-1,.45-1,1s.45,1,1,1Z"/>
  <path class="cls-2" d="m11.5,22h-1c-.55,0-1,.45-1,1s.45,1,1,1h1c.55,0,1-.45,1-1s-.45-1-1-1Z"/>
  <path class="cls-2" d="m6.5,22h-1c-.55,0-1,.45-1,1s.45,1,1,1h1c.55,0,1-.45,1-1s-.45-1-1-1Z"/>
  <path class="cls-2" d="m26.5,22h-1c-.55,0-1,.45-1,1s.45,1,1,1h1c.55,0,1-.45,1-1s-.45-1-1-1Z"/>
  <path class="cls-2" d="m11.5,25.5h-1c-.55,0-1,.45-1,1s.45,1,1,1h1c.55,0,1-.45,1-1s-.45-1-1-1Z"/>
  <path class="cls-2" d="m6.5,25.5h-1c-.55,0-1,.45-1,1s.45,1,1,1h1c.55,0,1-.45,1-1s-.45-1-1-1Z"/>
  <path class="cls-2" d="m26.5,25.5h-11c-.55,0-1,.45-1,1s.45,1,1,1h11c.55,0,1-.45,1-1s-.45-1-1-1Z"/>
  <g>
    <path class="cls-1" d="m21,9v3c0,.55.45,1,1,1h8c.55,0,1-.45,1-1v-3h-10Z"/>
    <path class="cls-1" d="m30,2c0-.55-.45-1-1-1h-6c-.55,0-1,.45-1,1v5h8V2Zm-3.75,3h-.5c-.55,0-1-.45-1-1s.45-1,1-1h.5c.55,0,1,.45,1,1s-.45,1-1,1Z"/>
  </g>
</svg>