<?xml version="1.0" encoding="UTF-8"?>
<svg id="OBJECT" xmlns="http://www.w3.org/2000/svg" viewBox="0 0 32 32">
  <defs>
    <style>
      .cls-1 {
        fill: #FD4360;
      }

      .cls-1, .cls-2 {
        stroke-width: 0px;
      }

      .cls-2 {
        fill: #dadada;
      }
    </style>
  </defs>
  <g>
    <path class="cls-2" d="m25,5.76c-1.22,0-2.36.48-3.21,1.36-.39.4-.38,1.03.02,1.41.39.39,1.03.38,1.41-.02.96-.98,2.61-.98,3.57,0,.2.2.46.3.71.3s.5-.09.7-.29c.39-.39.4-1.02.02-1.41-.86-.88-2-1.36-3.21-1.36Z"/>
    <path class="cls-2" d="m30.71,3.42c-1.53-1.56-3.55-2.42-5.71-2.42s-4.19.86-5.71,2.42c-.39.4-.38,1.03.02,1.41.4.39,1.03.38,1.41-.02,1.15-1.17,2.67-1.82,4.29-1.82s3.14.65,4.29,1.82c.2.2.46.3.71.3s.5-.09.7-.29c.39-.39.4-1.02.02-1.41Z"/>
    <path class="cls-2" d="m25.28,10h-.55c-.55,0-1,.45-1,1s.45,1,1,1h.55c.55,0,1-.45,1-1s-.45-1-1-1Z"/>
    <path class="cls-2" d="m12,7h-6c-2.76,0-5,2.24-5,5v11c0,4.41,3.59,8,8,8s8-3.59,8-8v-11c0-2.76-2.24-5-5-5Zm-2,8v3c0,.55-.45,1-1,1s-1-.45-1-1v-3c0-.55.45-1,1-1s1,.45,1,1Zm5,8c0,3.31-2.69,6-6,6s-6-2.69-6-6v-11c0-1.65,1.35-3,3-3h2v3.18c-1.16.41-2,1.51-2,2.82v3c0,1.65,1.35,3,3,3s3-1.35,3-3v-3c0-1.3-.84-2.4-2-2.82v-3.18h2c1.65,0,3,1.35,3,3v11Z"/>
  </g>
  <g>
    <path class="cls-1" d="m19,22v2c0,1.1.9,2,2,2h8c1.1,0,2-.9,2-2v-2h-12Z"/>
    <path class="cls-1" d="m29,14h-8v6h8v-6Zm-3,3.25c0,.55-.45,1-1,1s-1-.45-1-1v-.5c0-.55.45-1,1-1s1,.45,1,1v.5Z"/>
  </g>
</svg>