<?xml version="1.0" encoding="UTF-8"?>
<svg id="OBJECT" xmlns="http://www.w3.org/2000/svg" viewBox="0 0 32 32">
  <defs>
    <style>
      .cls-1 {
        fill: #FD4360;
      }

      .cls-1, .cls-2 {
        stroke-width: 0px;
      }

      .cls-2 {
        fill: #dadada;
      }
    </style>
  </defs>
  <path class="cls-2" d="m30,25h-14c-.55,0-1,.45-1,1v1h-2c-.55,0-1-.45-1-1v-3.05c0-1.65-1.35-3-3-3h-1c-1.65,0-3,1.35-3,3v3.05c0,.55-.45,1-1,1s-1-.45-1-1v-12c0-.55.45-1,1-1h5.05c.51,5.6,5.22,10,10.95,10,6.07,0,11-4.93,11-11S26.07,1,20,1c-5.73,0-10.44,4.4-10.95,10h-5.05c-1.65,0-3,1.35-3,3v12c0,1.65,1.35,3,3,3s3-1.35,3-3v-3.05c0-.55.45-1,1-1h1c.55,0,1,.45,1,1v3.05c0,1.65,1.35,3,3,3h2v1c0,.55.45,1,1,1h14c.55,0,1-.45,1-1v-4c0-.55-.45-1-1-1ZM20,3c4.96,0,9,4.04,9,9s-4.04,9-9,9-9-4.04-9-9S15.04,3,20,3Zm-3,24h8v2h-8v-2Zm12,2h-2v-2h2v2Z"/>
  <path class="cls-1" d="m20,4.5c-4.14,0-7.5,3.36-7.5,7.5s3.36,7.5,7.5,7.5,7.5-3.36,7.5-7.5-3.36-7.5-7.5-7.5Zm3.31,8.08l-2.67,3.75c-.19.27-.5.42-.82.42-.2,0-.4-.06-.58-.19-.45-.32-.56-.94-.24-1.39l1.54-2.17h-3.06c-.37,0-.72-.21-.89-.54s-.14-.73.07-1.04l2.67-3.75c.32-.45.94-.56,1.39-.24.45.32.56.94.24,1.39l-1.54,2.17h3.06c.37,0,.72.21.89.54s.14.73-.07,1.04Z"/>
</svg>