<?xml version="1.0" encoding="UTF-8"?>
<svg id="OBJECT" xmlns="http://www.w3.org/2000/svg" viewBox="0 0 32 32">
  <defs>
    <style>
      .cls-1 {
        fill: #FD4360;
      }

      .cls-1, .cls-2 {
        stroke-width: 0px;
      }

      .cls-2 {
        fill: #dadada;
      }
    </style>
  </defs>
  <path class="cls-1" d="m25.11,21.66c-.3-.02-.62.12-.91.41-.39.39-1.02.39-1.41,0-.27-.27-.56-.41-.86-.41-.02,0-.03,0-.05,0-.28.01-.56.15-.78.37-.21.22-.34.49-.35.76-.01.31.12.6.41.88l2.34,2.33,2.34-2.33c.28-.28.42-.58.41-.88-.01-.27-.14-.55-.35-.76-.22-.22-.5-.36-.78-.37Z"/>
  <path class="cls-1" d="m23.5,16c-4.14,0-7.5,3.36-7.5,7.5s3.36,7.5,7.5,7.5,7.5-3.36,7.5-7.5-3.36-7.5-7.5-7.5Zm3.75,9.09l-3.05,3.03c-.2.19-.45.29-.71.29s-.51-.1-.71-.29l-3.05-3.03c-1.49-1.48-1.16-3.37-.06-4.47.94-.95,2.46-1.35,3.82-.52.53-.31,1.12-.47,1.7-.43.78.04,1.53.38,2.1.96.57.58.9,1.32.93,2.09.03.61-.13,1.52-.99,2.38Z"/>
  <g>
    <path class="cls-2" d="m6.5,12.55h11c.55,0,1-.45,1-1s-.45-1-1-1H6.5c-.55,0-1,.45-1,1s.45,1,1,1Z"/>
    <path class="cls-2" d="m6.32,16.18h.91c.55,0,1-.45,1-1s-.45-1-1-1h-.91c-.55,0-1,.45-1,1s.45,1,1,1Z"/>
    <path class="cls-2" d="m17.68,14.18h-7.27c-.55,0-1,.45-1,1s.45,1,1,1h7.27c.55,0,1-.45,1-1s-.45-1-1-1Z"/>
    <path class="cls-2" d="m6.32,23.45h7.36c.55,0,1-.45,1-1s-.45-1-1-1h-7.36c-.55,0-1,.45-1,1s.45,1,1,1Z"/>
    <path class="cls-2" d="m6.32,19.82h2.73c.55,0,1-.45,1-1s-.45-1-1-1h-2.73c-.55,0-1,.45-1,1s.45,1,1,1Z"/>
    <path class="cls-2" d="m14.68,17.82h-2.45c-.55,0-1,.45-1,1s.45,1,1,1h2.45c.55,0,1-.45,1-1s-.45-1-1-1Z"/>
    <path class="cls-2" d="m20.18,1H3.82c-1.55,0-2.82,1.26-2.82,2.82v21.82c0,1.55,1.26,2.82,2.82,2.82h10.06c.55,0,1-.45,1-1s-.45-1-1-1H3.82c-.45,0-.82-.37-.82-.82V7.55h18v5.48c0,.55.45,1,1,1s1-.45,1-1V3.82c0-1.55-1.26-2.82-2.82-2.82ZM3,5.55v-1.73c0-.45.37-.82.82-.82h16.36c.45,0,.82.37.82.82v1.73H3Z"/>
  </g>
</svg>