<?xml version="1.0" encoding="UTF-8"?>
<svg id="OBJECT" xmlns="http://www.w3.org/2000/svg" viewBox="0 0 512 512">
  <defs>
    <style>
      .cls-1 {
        fill: #FD4360;
      }

      .cls-2 {
        fill: #dadada;
      }
    </style>
  </defs>
  <g>
    <path class="cls-2" d="M504.5,237H184.5c-4.14,0-7.5,3.36-7.5,7.5v82.5h-52.5c-4.14,0-7.5,3.36-7.5,7.5v140c0,20.68,16.82,37.5,37.5,37.5H474.5c20.68,0,37.5-16.82,37.5-37.5V244.5c0-4.14-3.36-7.5-7.5-7.5ZM154.5,497c-12.41,0-22.5-10.09-22.5-22.5v-132.5h83.23c2.86,0,5.43,1.59,6.71,4.15l10.43,20.85h-44.86c-4.14,0-7.5,3.36-7.5,7.5s3.36,7.5,7.5,7.5h242c4.14,0,7.5,3.36,7.5,7.5v85c0,8.43,2.8,16.23,7.52,22.5H154.5Zm252.5-130H249.14l-13.78-27.56c-.91-1.82-2.05-3.47-3.35-4.94v-42.49h175v75Zm90,107.5c0,12.41-10.09,22.5-22.5,22.5s-22.5-10.09-22.5-22.5v-85c0-12.41-10.09-22.5-22.5-22.5h-7.5v-82.5c0-4.14-3.36-7.5-7.5-7.5H224.5c-4.14,0-7.5,3.36-7.5,7.5v42.57c-.59-.05-1.18-.07-1.77-.07h-23.23v-75H497v222.5Z"/>
    <path class="cls-2" d="M214.5,417h-40c-9.65,0-17.5,7.85-17.5,17.5v20c0,9.65,7.85,17.5,17.5,17.5h40c9.65,0,17.5-7.85,17.5-17.5v-20c0-9.65-7.85-17.5-17.5-17.5Zm2.5,37.5c0,1.38-1.12,2.5-2.5,2.5h-40c-1.38,0-2.5-1.12-2.5-2.5v-20c0-1.38,1.12-2.5,2.5-2.5h40c1.38,0,2.5,1.12,2.5,2.5v20Z"/>
    <path class="cls-2" d="M284.5,417h-20c-9.65,0-17.5,7.85-17.5,17.5v20c0,9.65,7.85,17.5,17.5,17.5h20c9.65,0,17.5-7.85,17.5-17.5v-20c0-9.65-7.85-17.5-17.5-17.5Zm2.5,37.5c0,1.38-1.12,2.5-2.5,2.5h-20c-1.38,0-2.5-1.12-2.5-2.5v-20c0-1.38,1.12-2.5,2.5-2.5h20c1.38,0,2.5,1.12,2.5,2.5v20Z"/>
    <path class="cls-2" d="M259.5,352h85.38c4.14,0,7.5-3.36,7.5-7.5s-3.36-7.5-7.5-7.5h-85.38c-4.14,0-7.5,3.36-7.5,7.5s3.36,7.5,7.5,7.5Z"/>
    <path class="cls-2" d="M379.5,337h-5.77c-4.14,0-7.5,3.36-7.5,7.5s3.36,7.5,7.5,7.5h5.77c4.14,0,7.5-3.36,7.5-7.5s-3.36-7.5-7.5-7.5Z"/>
    <path class="cls-2" d="M294.12,322h85.38c4.14,0,7.5-3.36,7.5-7.5s-3.36-7.5-7.5-7.5h-85.38c-4.14,0-7.5,3.36-7.5,7.5s3.36,7.5,7.5,7.5Z"/>
    <path class="cls-2" d="M259.5,322h5.77c4.14,0,7.5-3.36,7.5-7.5s-3.36-7.5-7.5-7.5h-5.77c-4.14,0-7.5,3.36-7.5,7.5s3.36,7.5,7.5,7.5Z"/>
  </g>
  <g>
    <path class="cls-1" d="M122.5,185c4.14,0,7.5-3.36,7.5-7.5v-17.5h-25v17.5c0,4.14,3.36,7.5,7.5,7.5h10Z"/>
    <path class="cls-1" d="M166.14,160h-21.14v17.5c0,12.41-10.09,22.5-22.5,22.5h-10c-12.41,0-22.5-10.09-22.5-22.5v-17.5h-21.14c-5.62,0-11.27-1.29-16.33-3.74l-42.54-20.56v56.8c0,12.41,10.09,22.5,22.5,22.5H202.5c12.41,0,22.5-10.09,22.5-22.5v-56.8l-42.54,20.56c-5.05,2.44-10.7,3.74-16.32,3.74Z"/>
    <path class="cls-1" d="M212.5,40h-47.5V22.5c0-12.41-10.09-22.5-22.5-22.5h-50c-12.41,0-22.5,10.09-22.5,22.5v17.5H22.5C10.09,40,0,50.09,0,62.5v47c0,2.88,1.65,5.5,4.24,6.75l54.83,26.5c3.03,1.47,6.42,2.24,9.79,2.24h97.28c3.37,0,6.76-.78,9.79-2.24l54.83-26.5c2.59-1.25,4.24-3.88,4.24-6.75V62.5c0-12.41-10.09-22.5-22.5-22.5ZM47.5,95h-10c-4.14,0-7.5-3.36-7.5-7.5s3.36-7.5,7.5-7.5h10c4.14,0,7.5,3.36,7.5,7.5s-3.36,7.5-7.5,7.5ZM85,22.5c0-4.14,3.36-7.5,7.5-7.5h50c4.14,0,7.5,3.36,7.5,7.5v17.5H85V22.5Zm77.5,72.5H72.5c-4.14,0-7.5-3.36-7.5-7.5s3.36-7.5,7.5-7.5h90c4.14,0,7.5,3.36,7.5,7.5s-3.36,7.5-7.5,7.5Zm35,0h-10c-4.14,0-7.5-3.36-7.5-7.5s3.36-7.5,7.5-7.5h10c4.14,0,7.5,3.36,7.5,7.5s-3.36,7.5-7.5,7.5Z"/>
  </g>
</svg>