<?xml version="1.0" encoding="UTF-8"?>
<svg id="OBJECT" xmlns="http://www.w3.org/2000/svg" viewBox="0 0 512 512">
  <defs>
    <style>
      .cls-1 {
        fill: #FD4360;
      }

      .cls-2 {
        fill: #dadada;
      }
    </style>
  </defs>
  <g>
    <path class="cls-2" d="M256,357c-42.73,0-77.5,34.77-77.5,77.5s34.77,77.5,77.5,77.5,77.5-34.77,77.5-77.5-34.77-77.5-77.5-77.5Zm0,140c-21.91,0-41.22-11.35-52.38-28.46,7.38-11.29,18.34-20.01,30.95-24.63,5.73,5.03,13.22,8.09,21.43,8.09s15.7-3.06,21.43-8.09c12.61,4.62,23.57,13.35,30.95,24.63-11.16,17.12-30.46,28.46-52.38,28.46Zm0-60c-9.65,0-17.5-7.85-17.5-17.5s7.85-17.5,17.5-17.5,17.5,7.85,17.5,17.5-7.85,17.5-17.5,17.5Zm59.65,16.18c-7.9-9.49-18.02-17.04-29.37-21.89,1.43-3.66,2.22-7.63,2.22-11.79,0-17.92-14.58-32.5-32.5-32.5s-32.5,14.58-32.5,32.5c0,4.16,.79,8.13,2.22,11.79-11.35,4.85-21.47,12.4-29.37,21.89-1.85-5.9-2.85-12.18-2.85-18.68,0-34.46,28.04-62.5,62.5-62.5s62.5,28.04,62.5,62.5c0,6.51-1,12.78-2.85,18.68Z"/>
    <path class="cls-2" d="M176,220h10c4.14,0,7.5-3.36,7.5-7.5s-3.36-7.5-7.5-7.5h-10c-4.14,0-7.5,3.36-7.5,7.5s3.36,7.5,7.5,7.5Z"/>
    <path class="cls-2" d="M226,220h10c4.14,0,7.5-3.36,7.5-7.5s-3.36-7.5-7.5-7.5h-10c-4.14,0-7.5,3.36-7.5,7.5s3.36,7.5,7.5,7.5Z"/>
    <path class="cls-2" d="M276,220h10c4.14,0,7.5-3.36,7.5-7.5s-3.36-7.5-7.5-7.5h-10c-4.14,0-7.5,3.36-7.5,7.5s3.36,7.5,7.5,7.5Z"/>
    <path class="cls-2" d="M326,220h10c4.14,0,7.5-3.36,7.5-7.5s-3.36-7.5-7.5-7.5h-10c-4.14,0-7.5,3.36-7.5,7.5s3.36,7.5,7.5,7.5Z"/>
    <path class="cls-2" d="M414.5,290h-151v-12.5c0-4.14-3.36-7.5-7.5-7.5s-7.5,3.36-7.5,7.5v12.5H97.5c-15.16,0-27.5,12.34-27.5,27.5v17c0,4.14,3.36,7.5,7.5,7.5s7.5-3.36,7.5-7.5v-17c0-6.89,5.61-12.5,12.5-12.5H248.5v29.5c0,4.14,3.36,7.5,7.5,7.5s7.5-3.36,7.5-7.5v-29.5h151c6.89,0,12.5,5.61,12.5,12.5v17c0,4.14,3.36,7.5,7.5,7.5s7.5-3.36,7.5-7.5v-17c0-15.16-12.34-27.5-27.5-27.5Z"/>
    <path class="cls-2" d="M126,185h12.5v62.5c0,4.14,3.36,7.5,7.5,7.5h220c4.14,0,7.5-3.36,7.5-7.5v-62.5h12.5c4.14,0,7.5-3.36,7.5-7.5v-15c0-12.41-10.09-22.5-22.5-22.5h-42.5v-17.5c0-25.7-13.33-49.03-35.12-62.11,.07-.95,.12-1.91,.12-2.89V27.5c0-15.16-12.34-27.5-27.5-27.5h-20c-15.16,0-27.5,12.34-27.5,27.5v30c0,.97,.05,1.93,.12,2.89-21.8,13.09-35.12,36.41-35.12,62.11v17.5h-42.5c-12.41,0-22.5,10.09-22.5,22.5v15c0,4.14,3.36,7.5,7.5,7.5Zm232.5,55H153.5v-55h205v55ZM233.5,27.5c0-6.89,5.61-12.5,12.5-12.5h20c6.89,0,12.5,5.61,12.5,12.5v30c0,12.41-10.09,22.5-22.5,22.5s-22.5-10.09-22.5-22.5V27.5Zm-35,95c0-19.05,9.23-36.45,24.55-47.12,6.36,11.68,18.75,19.62,32.95,19.62s26.59-7.94,32.95-19.62c15.32,10.67,24.55,28.07,24.55,47.12v17.5h-20v-17.5c0-4.14-3.36-7.5-7.5-7.5s-7.5,3.36-7.5,7.5v17.5h-45v-17.5c0-4.14-3.36-7.5-7.5-7.5s-7.5,3.36-7.5,7.5v17.5h-20v-17.5Zm-65,40c0-4.14,3.36-7.5,7.5-7.5h230c4.14,0,7.5,3.36,7.5,7.5v7.5H133.5v-7.5Z"/>
  </g>
  <g>
    <path class="cls-1" d="M98.92,443.91c-5.72,5.03-13.22,8.09-21.42,8.09s-15.7-3.06-21.42-8.09c-18.41,6.73-32.42,21.78-38.19,40.05,14.23,17.12,35.67,28.04,59.61,28.04s45.38-10.92,59.61-28.04c-5.77-18.27-19.78-33.33-38.19-40.05Z"/>
    <path class="cls-1" d="M77.5,357C34.77,357,0,391.77,0,434.5c0,12.24,2.86,23.82,7.94,34.12,8.11-16.51,21.96-29.96,39.28-37.34-1.43-3.65-2.22-7.62-2.22-11.78,0-17.92,14.58-32.5,32.5-32.5s32.5,14.58,32.5,32.5c0,4.15-.79,8.12-2.22,11.78,17.32,7.38,31.17,20.83,39.28,37.34,5.07-10.3,7.94-21.88,7.94-34.12,0-42.73-34.77-77.5-77.5-77.5Z"/>
    <circle class="cls-1" cx="77.5" cy="419.5" r="17.5"/>
    <path class="cls-1" d="M455.92,443.91c-5.72,5.03-13.22,8.09-21.42,8.09s-15.7-3.06-21.42-8.09c-18.41,6.73-32.42,21.78-38.19,40.05,14.23,17.12,35.67,28.04,59.61,28.04s45.38-10.92,59.61-28.04c-5.77-18.27-19.78-33.33-38.19-40.05Z"/>
    <path class="cls-1" d="M434.5,357c-42.73,0-77.5,34.77-77.5,77.5,0,12.24,2.86,23.82,7.94,34.12,8.11-16.51,21.96-29.96,39.28-37.34-1.43-3.65-2.22-7.62-2.22-11.78,0-17.92,14.58-32.5,32.5-32.5s32.5,14.58,32.5,32.5c0,4.15-.79,8.12-2.22,11.78,17.32,7.38,31.17,20.83,39.28,37.34,5.07-10.3,7.94-21.88,7.94-34.12,0-42.73-34.77-77.5-77.5-77.5Z"/>
    <circle class="cls-1" cx="434.5" cy="419.5" r="17.5"/>
  </g>
</svg>