<?xml version="1.0" encoding="UTF-8"?>
<svg id="OBJECT" xmlns="http://www.w3.org/2000/svg" viewBox="0 0 512 512">
  <defs>
    <style>
      .cls-1 {
        fill: #FD4360;
      }

      .cls-2 {
        fill: #dadada;
      }
    </style>
  </defs>
  <g>
    <path class="cls-2" d="M311.47,381.14l11.16-28.69c33.22-13.02,61.67-35.3,82.41-64.6,21.89-30.91,33.46-67.34,33.46-105.35C438.5,81.87,356.63,0,256,0S73.5,81.87,73.5,182.5c0,38.01,11.57,74.44,33.46,105.35,20.75,29.3,49.19,51.58,82.41,64.6l11.16,28.69c-62.32,9.62-102.03,34.05-102.03,63.36,0,19.3,17.28,36.84,48.65,49.39,29.2,11.68,67.85,18.11,108.85,18.11s79.66-6.43,108.85-18.11c31.37-12.55,48.65-30.09,48.65-49.39,0-29.31-39.72-53.74-102.03-63.36Zm-113.7-41.55c-65.36-24.24-109.27-87.37-109.27-157.09,0-92.36,75.14-167.5,167.5-167.5s167.5,75.14,167.5,167.5c0,69.73-43.91,132.86-109.27,157.09-18.62,6.9-38.21,10.41-58.23,10.41-4.14,0-7.5,3.36-7.5,7.5s3.36,7.5,7.5,7.5c16.39,0,32.53-2.16,48.15-6.42l-34.7,89.23c-2.17,5.59-7.45,9.2-13.45,9.2s-11.27-3.61-13.45-9.2l-40.4-103.89c-.78-2-2.37-3.57-4.38-4.31Zm161.51,140.37c-27.47,10.99-64.15,17.04-103.28,17.04s-75.81-6.05-103.28-17.04c-24.92-9.97-39.22-22.9-39.22-35.46,0-20.95,38.6-41.2,92.61-49.02l22.46,57.76c4.43,11.4,15.2,18.76,27.43,18.76s23-7.36,27.43-18.76l22.46-57.76c54.01,7.82,92.61,28.07,92.61,49.02,0,12.57-14.29,25.49-39.22,35.46Z"/>
    <path class="cls-2" d="M348.5,419.5c-13.79,0-25,11.21-25,25s11.21,25,25,25,25-11.21,25-25-11.21-25-25-25Zm0,35c-5.51,0-10-4.49-10-10s4.49-10,10-10,10,4.49,10,10-4.49,10-10,10Z"/>
    <path class="cls-2" d="M163.5,419.5c-13.79,0-25,11.21-25,25s11.21,25,25,25,25-11.21,25-25-11.21-25-25-25Zm0,35c-5.51,0-10-4.49-10-10s4.49-10,10-10,10,4.49,10,10-4.49,10-10,10Z"/>
  </g>
  <g>
    <path class="cls-1" d="M268.5,247.5v-12.5h-25v12.5c0,6.89,5.61,12.5,12.5,12.5s12.5-5.61,12.5-12.5Z"/>
    <path class="cls-1" d="M304.64,235h-21.14v12.5c0,15.16-12.34,27.5-27.5,27.5s-27.5-12.34-27.5-27.5v-12.5h-21.14c-5.62,0-11.26-1.29-16.32-3.74l-42.54-20.56v56.8c0,12.41,10.09,22.5,22.5,22.5h170c12.41,0,22.5-10.09,22.5-22.5v-56.8l-42.54,20.56c-5.05,2.44-10.7,3.74-16.32,3.74Z"/>
    <path class="cls-1" d="M366,115h-42.5v-17.5c0-12.41-10.09-22.5-22.5-22.5h-90c-12.41,0-22.5,10.09-22.5,22.5v17.5h-42.5c-4.14,0-7.5,3.36-7.5,7.5v52.59c0,8.57,4.99,16.53,12.71,20.26l46.36,22.41c3.04,1.47,6.42,2.24,9.79,2.24h97.28c3.37,0,6.76-.78,9.79-2.24l46.36-22.41s0,0,0,0c7.72-3.73,12.71-11.68,12.71-20.26v-52.59c0-4.14-3.36-7.5-7.5-7.5Zm-180,55h-10c-4.14,0-7.5-3.36-7.5-7.5s3.36-7.5,7.5-7.5h10c4.14,0,7.5,3.36,7.5,7.5s-3.36,7.5-7.5,7.5Zm115,0h-90c-4.14,0-7.5-3.36-7.5-7.5s3.36-7.5,7.5-7.5h90c4.14,0,7.5,3.36,7.5,7.5s-3.36,7.5-7.5,7.5Zm7.5-55h-105v-17.5c0-4.14,3.36-7.5,7.5-7.5h90c4.14,0,7.5,3.36,7.5,7.5v17.5Zm27.5,55h-10c-4.14,0-7.5-3.36-7.5-7.5s3.36-7.5,7.5-7.5h10c4.14,0,7.5,3.36,7.5,7.5s-3.36,7.5-7.5,7.5Z"/>
  </g>
</svg>