<?xml version="1.0" encoding="UTF-8"?>
<svg id="OBJECT" xmlns="http://www.w3.org/2000/svg" viewBox="0 0 32 32">
  <defs>
    <style>
      .cls-1 {
        fill: #FD4360;
      }

      .cls-1, .cls-2 {
        stroke-width: 0px;
      }

      .cls-2 {
        fill: #dadada;
      }
    </style>
  </defs>
  <g>
    <path class="cls-2" d="m16.71,22.29c-.39-.39-1.02-.39-1.41,0s-.39,1.02,0,1.41l1.29,1.29H5c-1.1,0-2-.9-2-2v-14c0-1.1.9-2,2-2h13c.55,0,1-.45,1-1s-.45-1-1-1H5c-2.21,0-4,1.79-4,4v14c0,2.21,1.79,4,4,4h11.59l-1.29,1.29c-.39.39-.39,1.02,0,1.41.2.2.45.29.71.29s.51-.1.71-.29l3-3c.39-.39.39-1.02,0-1.41l-3-3Z"/>
    <path class="cls-2" d="m28,1h-4c-1.65,0-3,1.35-3,3v4c0,1.65,1.35,3,3,3h4c1.65,0,3-1.35,3-3v-4c0-1.65-1.35-3-3-3Zm1,7c0,.55-.45,1-1,1h-4c-.55,0-1-.45-1-1v-4c0-.55.45-1,1-1h4c.55,0,1,.45,1,1v4Z"/>
    <path class="cls-2" d="m28,21h-4c-1.65,0-3,1.35-3,3v4c0,1.65,1.35,3,3,3h4c1.65,0,3-1.35,3-3v-4c0-1.65-1.35-3-3-3Zm1,7c0,.55-.45,1-1,1h-4c-.55,0-1-.45-1-1v-4c0-.55.45-1,1-1h4c.55,0,1,.45,1,1v4Z"/>
  </g>
  <path class="cls-1" d="m18,9h-8c-1.1,0-2,.9-2,2v8c0,1.1.9,2,2,2h8c1.1,0,2-.9,2-2v-8c0-1.1-.9-2-2-2Zm-1.29,7.29c.39.39.39,1.02,0,1.41-.2.2-.45.29-.71.29s-.51-.1-.71-.29l-1.29-1.29-1.29,1.29c-.2.2-.45.29-.71.29s-.51-.1-.71-.29c-.39-.39-.39-1.02,0-1.41l1.29-1.29-1.29-1.29c-.39-.39-.39-1.02,0-1.41s1.02-.39,1.41,0l1.29,1.29,1.29-1.29c.39-.39,1.02-.39,1.41,0s.39,1.02,0,1.41l-1.29,1.29,1.29,1.29Z"/>
</svg>