<?xml version="1.0" encoding="UTF-8"?>
<svg id="OBJECT" xmlns="http://www.w3.org/2000/svg" viewBox="0 0 32 32">
  <defs>
    <style>
      .cls-1 {
        fill: #FD4360;
      }

      .cls-2 {
        fill: #dadada;
      }
    </style>
  </defs>
  <g>
    <path class="cls-2" d="m26,19h-2c-.55,0-1,.45-1,1s.45,1,1,1h2c.55,0,1-.45,1-1s-.45-1-1-1Z"/>
    <path class="cls-2" d="m26,25h-2c-.55,0-1,.45-1,1s.45,1,1,1h2c.55,0,1-.45,1-1s-.45-1-1-1Z"/>
    <path class="cls-2" d="m30,13H2c-.55,0-1,.45-1,1v16c0,.55.45,1,1,1s1-.45,1-1v-3h16v3c0,.55.45,1,1,1s1-.45,1-1h8c0,.55.45,1,1,1s1-.45,1-1V14c0-.55-.45-1-1-1Zm-9,5h8v4h-8v-4ZM3,15h26v1H3v-1Zm0,10v-7h16v7H3Zm18,3v-4h8v4h-8Z"/>
  </g>
  <g>
    <path class="cls-1" d="m18,1H4c-.55,0-1,.45-1,1v6.5c0,.55.45,1,1,1h4v1.5h2v-1.5h2v1.5h2v-1.5h4c.55,0,1-.45,1-1V2c0-.55-.45-1-1-1Z"/>
    <path class="cls-1" d="m30,1h-3c-1.65,0-3,1.35-3,3v4h-2v3h6v-3h-2v-2h2c1.65,0,3-1.35,3-3v-1c0-.55-.45-1-1-1Z"/>
  </g>
</svg>