<?xml version="1.0" encoding="UTF-8"?>
<svg id="OBJECT" xmlns="http://www.w3.org/2000/svg" viewBox="0 0 32 32">
  <defs>
    <style>
      .cls-1 {
        fill: #FD4360;
      }

      .cls-1, .cls-2 {
        stroke-width: 0px;
      }

      .cls-2 {
        fill: #dadada;
      }
    </style>
  </defs>
  <path class="cls-2" d="m12.64,19.87c.07-.3.11-.6.11-.92v-1.95c0-1.98-1.62-3.6-3.6-3.6h-1.3c-1.98,0-3.6,1.62-3.6,3.6v1.95c0,.32.04.62.11.92-2.08,1.38-3.36,3.69-3.36,6.23v1.95c0,1.63,1.32,2.95,2.95,2.95h9.1c1.63,0,2.95-1.32,2.95-2.95v-1.95c0-2.54-1.27-4.85-3.36-6.23Zm-6.39-2.87c0-.88.72-1.6,1.6-1.6h1.3c.88,0,1.6.72,1.6,1.6v1.95c0,1.24-1.01,2.25-2.25,2.25s-2.25-1.01-2.25-2.25v-1.95Zm7.75,11.05c0,.52-.43.95-.95.95H3.95c-.52,0-.95-.43-.95-.95v-1.95c0-1.78.85-3.41,2.26-4.43.78.93,1.94,1.53,3.24,1.53s2.46-.6,3.24-1.53c1.41,1.03,2.26,2.65,2.26,4.43v1.95Z"/>
  <path class="cls-1" d="m22.5,1c-4.69,0-8.5,3.81-8.5,8.5s3.81,8.5,8.5,8.5,8.5-3.81,8.5-8.5S27.19,1,22.5,1Zm3.21,11.71c-.2.2-.45.29-.71.29s-.51-.1-.71-.29l-2.5-2.5c-.19-.19-.29-.44-.29-.71v-3.5c0-.55.45-1,1-1s1,.45,1,1v3.09l2.21,2.21c.39.39.39,1.02,0,1.41Z"/>
</svg>