<?xml version="1.0" encoding="UTF-8"?>
<svg id="OBJECT" xmlns="http://www.w3.org/2000/svg" viewBox="0 0 32 32">
  <defs>
    <style>
      .cls-1 {
        fill: #FD4360;
      }

      .cls-1, .cls-2 {
        stroke-width: 0px;
      }

      .cls-2 {
        fill: #dadada;
      }
    </style>
  </defs>
  <g>
    <path class="cls-2" d="m27.5,22.5c-1.58,0-2.9,1.06-3.34,2.5h-3.26c-.4-1.96-1.94-3.5-3.9-3.9v-1.1c0-.55-.45-1-1-1s-1,.45-1,1v1.1c-1.96.4-3.5,1.94-3.9,3.9h-3.26c-.43-1.44-1.76-2.5-3.34-2.5-1.93,0-3.5,1.57-3.5,3.5s1.57,3.5,3.5,3.5c1.58,0,2.9-1.06,3.34-2.5h3.26c.46,2.28,2.48,4,4.9,4s4.43-1.72,4.9-4h3.26c.43,1.44,1.76,2.5,3.34,2.5,1.93,0,3.5-1.57,3.5-3.5s-1.57-3.5-3.5-3.5Zm-23,5c-.83,0-1.5-.67-1.5-1.5s.67-1.5,1.5-1.5,1.5.67,1.5,1.5-.67,1.5-1.5,1.5Zm11.5,1.5c-1.65,0-3-1.35-3-3s1.32-2.96,2.94-2.99c.02,0,.04.01.06.01s.04-.01.06-.01c1.63.03,2.94,1.36,2.94,2.99s-1.35,3-3,3Zm11.5-1.5c-.83,0-1.5-.67-1.5-1.5s.67-1.5,1.5-1.5,1.5.67,1.5,1.5-.67,1.5-1.5,1.5Z"/>
    <path class="cls-2" d="m26.09,9.51c0,.55.45.99,1,.99h.01l2.91-.04c.55,0,.99-.46.99-1.01,0-.55-.45-.99-1-.99h-.01l-2.91.04c-.55,0-.99.46-.99,1.01Z"/>
    <path class="cls-2" d="m26.3,15.71c.19.19.45.28.7.28s.52-.1.72-.3c.38-.4.38-1.03-.02-1.41l-1.01-.99c-.4-.39-1.03-.38-1.41.02-.38.4-.38,1.03.02,1.41l1.01.99Z"/>
    <path class="cls-2" d="m25.99,5.99c.25,0,.5-.09.7-.28l1.01-.99c.4-.38.4-1.02.02-1.41s-1.02-.41-1.41-.02l-1.01.99c-.4.38-.4,1.02-.02,1.41.2.2.46.3.72.3Z"/>
    <path class="cls-2" d="m1.99,10.46l2.91.04h.01c.55,0,.99-.44,1-.99,0-.55-.43-1.01-.99-1.01l-2.91-.04c-.59-.03-1.01.43-1.01.99,0,.55.43,1.01.99,1.01Z"/>
    <path class="cls-2" d="m5.32,13.29l-1.01.99c-.4.38-.4,1.02-.02,1.41.2.2.46.3.72.3s.5-.09.7-.28l1.01-.99c.4-.38.4-1.02.02-1.41-.39-.39-1.02-.41-1.41-.02Z"/>
    <path class="cls-2" d="m5.32,5.71c.19.19.45.28.7.28s.52-.1.72-.3c.38-.4.38-1.03-.02-1.41l-1.01-.99c-.4-.39-1.03-.38-1.41.02-.38.4-.38,1.03.02,1.41l1.01.99Z"/>
  </g>
  <path class="cls-1" d="m16,1c-4.69,0-8.5,3.81-8.5,8.5s3.81,8.5,8.5,8.5,8.5-3.81,8.5-8.5S20.69,1,16,1Zm-2.79,9.79c.39.39.39,1.02,0,1.41-.2.2-.45.29-.71.29s-.51-.1-.71-.29l-2-2c-.39-.39-.39-1.02,0-1.41l2-2c.39-.39,1.02-.39,1.41,0s.39,1.02,0,1.41l-1.29,1.29,1.29,1.29Zm4.75-4.52l-2,7c-.13.44-.53.73-.96.73-.09,0-.18-.01-.28-.04-.53-.15-.84-.71-.69-1.24l2-7c.15-.53.71-.83,1.24-.69.53.15.84.71.69,1.24Zm2.25,5.93c-.2.2-.45.29-.71.29s-.51-.1-.71-.29c-.39-.39-.39-1.02,0-1.41l1.29-1.29-1.29-1.29c-.39-.39-.39-1.02,0-1.41s1.02-.39,1.41,0l2,2c.39.39.39,1.02,0,1.41l-2,2Z"/>
</svg>