<?xml version="1.0" encoding="UTF-8"?>
<svg id="OBJECT" xmlns="http://www.w3.org/2000/svg" viewBox="0 0 32 32">
  <defs>
    <style>
      .cls-1 {
        fill: #FD4360;
      }

      .cls-1, .cls-2 {
        stroke-width: 0px;
      }

      .cls-2 {
        fill: #dadada;
      }
    </style>
  </defs>
  <g>
    <path class="cls-2" d="m27,5h-6.5v-1c0-1.65-1.35-3-3-3h-6c-1.65,0-3,1.35-3,3v1H2c-.55,0-1,.45-1,1v8c0,.46.32.86.77.97l.23.06v7.47c0,1.38,1.12,2.5,2.5,2.5h12.53c.55,0,1-.45,1-1s-.45-1-1-1H4.5c-.28,0-.5-.22-.5-.5v-6.99l10.27,2.46c.08.02.16.03.23.03s.16,0,.23-.03l10.27-2.46v1.7c0,.55.45,1,1,1s1-.45,1-1v-2.18l.23-.06c.45-.11.77-.51.77-.97V6c0-.55-.45-1-1-1Zm-16.5-1c0-.55.45-1,1-1h6c.55,0,1,.45,1,1v1h-8v-1Zm4,11.97l-11.5-2.76v-6.21h23v6.21l-11.5,2.76Z"/>
    <path class="cls-2" d="m8.5,9h-1c-.55,0-1,.45-1,1s.45,1,1,1h1c.55,0,1-.45,1-1s-.45-1-1-1Z"/>
    <path class="cls-2" d="m16.5,9h-4c-.55,0-1,.45-1,1s.45,1,1,1h4c.55,0,1-.45,1-1s-.45-1-1-1Z"/>
    <path class="cls-2" d="m21.5,9h-1c-.55,0-1,.45-1,1s.45,1,1,1h1c.55,0,1-.45,1-1s-.45-1-1-1Z"/>
  </g>
  <path class="cls-1" d="m25,19c-3.31,0-6,2.69-6,6s2.69,6,6,6,6-2.69,6-6-2.69-6-6-6Zm1.99,7.99c-.2.2-.45.29-.71.29s-.51-.1-.71-.29l-1.28-1.28c-.19-.19-.29-.44-.29-.71v-2.02c0-.55.45-1,1-1s1,.45,1,1v1.6l.99.99c.39.39.39,1.02,0,1.41Z"/>
</svg>