<?xml version="1.0" encoding="UTF-8"?>
<svg id="OBJECT" xmlns="http://www.w3.org/2000/svg" viewBox="0 0 32 32">
  <defs>
    <style>
      .cls-1 {
        fill: #FD4360;
      }

      .cls-1, .cls-2 {
        stroke-width: 0px;
      }

      .cls-2 {
        fill: #dadada;
      }
    </style>
  </defs>
  <g>
    <path class="cls-2" d="m30.64,26.04l-2.07-4.15c-.58-1.17-1.76-1.89-3.07-1.89s-2.48.73-3.07,1.89l-1.32,2.63s-.08-.02-.12-.02h-4.59l1.29-1.29c.39-.39.39-1.02,0-1.41s-1.02-.39-1.41,0l-3,3c-.39.39-.39,1.02,0,1.41l3,3c.2.2.45.29.71.29s.51-.1.71-.29c.39-.39.39-1.02,0-1.41l-1.29-1.29h3.78c-.11.35-.2.71-.2,1.07,0,1.89,1.54,3.43,3.43,3.43h4.15c1.89,0,3.43-1.54,3.43-3.43,0-.53-.12-1.06-.36-1.53Zm-3.07,2.96h-4.15c-.79,0-1.43-.64-1.43-1.43,0-.22.05-.44.15-.64l2.07-4.15c.24-.49.73-.79,1.28-.79s1.03.3,1.28.79l2.07,4.14c.1.2.15.42.15.64,0,.79-.64,1.43-1.43,1.43Z"/>
    <path class="cls-2" d="m9.51,20.73c-.47-.47-1.1-.73-1.77-.73h-2.48c-.67,0-1.3.26-1.77.73l-1.76,1.76c-.47.47-.73,1.1-.73,1.77v2.49c0,.67.26,1.3.73,1.77l1.76,1.76c.47.47,1.1.73,1.77.73h2.48c.67,0,1.3-.26,1.77-.73l1.76-1.76c.47-.47.73-1.1.73-1.77v-2.49c0-.67-.26-1.3-.73-1.77l-1.76-1.76Zm.49,6.01c0,.13-.05.26-.15.35l-1.76,1.76c-.09.09-.22.15-.35.15h-2.48c-.13,0-.26-.05-.35-.15l-1.76-1.76c-.09-.09-.15-.22-.15-.35v-2.49c0-.13.05-.26.15-.35l1.76-1.76c.09-.09.22-.15.35-.15h2.48c.13,0,.26.05.35.15l1.76,1.76c.09.09.15.22.15.35v2.49Z"/>
    <path class="cls-2" d="m15.59,7.5l-1.29,1.29c-.39.39-.39,1.02,0,1.41.2.2.45.29.71.29s.51-.1.71-.29l3-3c.39-.39.39-1.02,0-1.41l-3-3c-.39-.39-1.02-.39-1.41,0s-.39,1.02,0,1.41l1.29,1.29h-3.59v-2c0-1.38-1.12-2.5-2.5-2.5H3.5c-1.38,0-2.5,1.12-2.5,2.5v6c0,1.38,1.12,2.5,2.5,2.5h6c1.38,0,2.5-1.12,2.5-2.5v-2h3.59Zm-5.59,2c0,.28-.22.5-.5.5H3.5c-.28,0-.5-.22-.5-.5V3.5c0-.28.22-.5.5-.5h6c.28,0,.5.22.5.5v6Z"/>
  </g>
  <path class="cls-1" d="m24.5,11.9v3.68l-1.29-1.29c-.39-.39-1.02-.39-1.41,0s-.39,1.02,0,1.41l3,3c.2.2.45.29.71.29s.51-.1.71-.29l3-3c.39-.39.39-1.02,0-1.41s-1.02-.39-1.41,0l-1.29,1.29v-3.68c2.56-.47,4.5-2.71,4.5-5.4,0-3.03-2.47-5.5-5.5-5.5s-5.5,2.47-5.5,5.5c0,2.69,1.94,4.93,4.5,5.4Z"/>
</svg>