<?xml version="1.0" encoding="UTF-8"?>
<svg id="OBJECT" xmlns="http://www.w3.org/2000/svg" viewBox="0 0 32 32">
  <defs>
    <style>
      .cls-1 {
        fill: #FD4360;
      }

      .cls-1, .cls-2 {
        stroke-width: 0px;
      }

      .cls-2 {
        fill: #dadada;
      }
    </style>
  </defs>
  <path class="cls-2" d="m16,6.5c-5.24,0-9.5,4.26-9.5,9.5s4.26,9.5,9.5,9.5,9.5-4.26,9.5-9.5-4.26-9.5-9.5-9.5Zm-7.5,9.5c0-.46.05-.91.13-1.35.95-.26,2.04-.46,3.24-.6-.03.64-.05,1.29-.05,1.95s.02,1.31.05,1.95c-1.19-.14-2.29-.34-3.24-.6-.08-.44-.13-.89-.13-1.35Zm5.31,0c0-.72.02-1.43.06-2.13.7-.04,1.41-.06,2.13-.06s1.43.02,2.13.06c.04.69.06,1.41.06,2.13s-.02,1.43-.06,2.13c-.7.04-1.41.06-2.13.06s-1.43-.02-2.13-.06c-.04-.7-.06-1.41-.06-2.13Zm6.32-1.95c1.19.14,2.29.34,3.24.6.08.44.13.89.13,1.35s-.05.91-.13,1.35c-.95.26-2.04.46-3.24.6.03-.64.05-1.29.05-1.95s-.02-1.31-.05-1.95Zm2.45-1.64c-.81-.16-1.69-.29-2.6-.39-.1-.92-.23-1.79-.39-2.6,1.26.69,2.3,1.73,2.99,2.99Zm-5.23-3.78c.26.95.46,2.04.6,3.24-.64-.03-1.29-.05-1.95-.05s-1.31.02-1.95.05c.14-1.19.34-2.29.6-3.24.44-.08.89-.13,1.35-.13s.91.05,1.35.13Zm-4.94.79c-.16.81-.29,1.69-.39,2.6-.92.1-1.79.23-2.6.39.69-1.26,1.73-2.3,2.99-2.99Zm-2.99,10.17c.81.16,1.69.29,2.6.39.1.92.23,1.79.39,2.6-1.26-.69-2.3-1.73-2.99-2.99Zm5.23,3.78c-.26-.95-.46-2.04-.6-3.24.64.03,1.29.05,1.95.05s1.31-.02,1.95-.05c-.14,1.19-.34,2.29-.6,3.24-.44.08-.89.13-1.35.13s-.91-.05-1.35-.13Zm4.94-.79c.16-.81.29-1.69.39-2.6.92-.1,1.79-.23,2.6-.39-.69,1.26-1.73,2.3-2.99,2.99Z"/>
  <g>
    <path class="cls-1" d="m30.55,15.17l-1.5-1c-.31-.21-.7-.22-1.03-.05-.33.17-.53.51-.53.88v2.5c0,6.34-5.16,11.5-11.5,11.5-5.17,0-9.73-3.48-11.09-8.45-.15-.53-.69-.84-1.23-.7-.53.15-.85.7-.7,1.23,1.6,5.84,6.96,9.92,13.02,9.92,7.44,0,13.5-6.06,13.5-13.5v-.63c.45.26,1.04.13,1.33-.31.31-.46.18-1.08-.28-1.39Z"/>
    <path class="cls-1" d="m3.82,17.95c.41-.14.68-.52.68-.95v-2.5c0-6.34,5.16-11.5,11.5-11.5,5.17,0,9.73,3.48,11.09,8.45.15.53.7.85,1.23.7.53-.15.85-.7.7-1.23-1.6-5.84-6.96-9.92-13.02-9.92C8.68,1,2.7,6.86,2.51,14.14c-.34-.2-.77-.19-1.1.06-.44.33-.53.96-.2,1.4l1.5,2c.19.26.49.4.8.4.11,0,.21-.02.32-.05Z"/>
  </g>
</svg>