<?xml version="1.0" encoding="UTF-8"?>
<svg id="OBJECT" xmlns="http://www.w3.org/2000/svg" viewBox="0 0 32 32">
  <defs>
    <style>
      .cls-1 {
        fill: #FD4360;
      }

      .cls-1, .cls-2 {
        stroke-width: 0px;
      }

      .cls-2 {
        fill: #dadada;
      }
    </style>
  </defs>
  <path class="cls-1" d="m24.12,21.66s-.08,0-.12,0-.09,0-.13,0c-.44.04-.69.32-.81.48-.21.3-.27.69-.17,1.04.02.08.07.18.15.3l.96,1.77.94-1.73c.1-.16.15-.26.17-.34.1-.35.04-.74-.17-1.04-.11-.16-.36-.44-.81-.48Z"/>
  <path class="cls-1" d="m24,17c-3.86,0-7,3.14-7,7s3.14,7,7,7,7-3.14,7-7-3.14-7-7-7Zm3.03,6.73c-.07.25-.19.5-.35.78l-1.8,3.31c-.17.32-.51.52-.88.52s-.7-.2-.88-.52l-1.82-3.35c-.15-.24-.26-.49-.33-.74-.27-.93-.1-1.92.44-2.72.53-.77,1.36-1.26,2.28-1.34.21-.02.4-.02.6,0,.93.08,1.76.57,2.29,1.34.55.8.71,1.79.44,2.72Z"/>
  <path class="cls-2" d="m14.5,1C7.06,1,1,7.06,1,14.5s6.06,13.5,13.5,13.5c.3,0,.7,0,1.12-.06.55-.07.94-.57.87-1.11-.07-.55-.56-.94-1.11-.87-.29.04-.58.04-.88.04-1.54,0-3-.31-4.35-.86l3.32-5.29c.89-1.43.74-3.31-.37-4.57-.94-1.07-2.38-1.53-3.76-1.2l-1.85.44-.16-.42c-.63-1.62-2.27-2.58-3.96-2.42,1.07-4.2,4.44-7.49,8.69-8.41l1.12,4.47c.1.41.45.71.86.75l2.55.28c.56.06,1.02.47,1.15,1.01.35,1.5,1.7,2.57,3.24,2.57.02,0,.05,0,.07,0l4.74-.1c.15.73.22,1.48.22,2.25,0,.3,0,.59-.04.88-.07.55.32,1.05.87,1.11.55.07,1.05-.32,1.11-.87.05-.42.06-.82.06-1.12,0-7.44-6.06-13.5-13.5-13.5ZM3.31,13.7c.9-.22,1.82.26,2.15,1.12l.48,1.23c.18.47.68.73,1.16.61l2.7-.64c.66-.16,1.35.06,1.8.57.53.6.6,1.5.18,2.19l-3.4,5.43c-3.22-2.04-5.37-5.63-5.37-9.71,0-.25.02-.49.04-.74l.27-.07Zm17.69-3.35c-.6,0-1.18-.42-1.32-1.02-.32-1.37-1.48-2.4-2.88-2.55l-1.86-.2-.89-3.56c.15,0,.29-.02.44-.02,4.84,0,8.99,3.01,10.68,7.26l-4.18.09Z"/>
</svg>