<?xml version="1.0" encoding="UTF-8"?>
<svg id="OBJECT" xmlns="http://www.w3.org/2000/svg" viewBox="0 0 32 32">
  <defs>
    <style>
      .cls-1 {
        fill: #FD4360;
      }

      .cls-1, .cls-2 {
        stroke-width: 0px;
      }

      .cls-2 {
        fill: #dadada;
      }
    </style>
  </defs>
  <path class="cls-1" d="m27.02,21h3.98c-.38-3.43-2.7-6.28-5.83-7.44,1.08,2.11,1.72,4.68,1.85,7.44Z"/>
  <path class="cls-1" d="m22.06,13c-.15,0-.29.02-.43.02-1.45,2-2.36,4.87-2.53,7.98h5.93c-.16-3.11-1.08-5.97-2.53-7.98-.14,0-.29-.02-.43-.02Z"/>
  <path class="cls-1" d="m21.62,30.98c.14,0,.29.02.43.02s.29-.02.43-.02c1.45-2,2.36-4.87,2.53-7.98h-5.93c.16,3.11,1.08,5.97,2.53,7.98Z"/>
  <path class="cls-1" d="m25.17,30.44c3.13-1.16,5.45-4,5.83-7.44h-3.98c-.13,2.76-.77,5.33-1.85,7.44Z"/>
  <path class="cls-1" d="m13.12,21h3.98c.13-2.76.77-5.33,1.85-7.44-3.13,1.16-5.45,4-5.83,7.44Z"/>
  <path class="cls-1" d="m13.12,23c.38,3.43,2.7,6.28,5.83,7.44-1.08-2.11-1.72-4.68-1.85-7.44h-3.98Z"/>
  <g>
    <path class="cls-2" d="m24.29,1H3.71c-1.5,0-2.71,1.22-2.71,2.71v3.43c0,.55.45,1,1,1h.71v15.14c0,1.5,1.22,2.71,2.71,2.71h5.16c.55,0,1-.45,1-1s-.45-1-1-1h-5.16c-.39,0-.71-.32-.71-.71v-15.14h4.86v2.12c0,.38.21.72.55.89.34.17.75.13,1.05-.09l2.83-2.12,2.83,2.12c.18.13.39.2.6.2.15,0,.31-.04.45-.11.34-.17.55-.52.55-.89v-2.12h4.86v2.19c0,.55.45,1,1,1s1-.45,1-1v-2.19h.71c.55,0,1-.45,1-1v-3.43c0-1.5-1.22-2.71-2.71-2.71ZM3,6.14v-2.43c0-.39.32-.71.71-.71h5.86v3.14H3Zm13.43,2.12l-1.83-1.37c-.18-.13-.39-.2-.6-.2s-.42.07-.6.2l-1.83,1.37V3h4.86v5.26Zm2-5.26h5.86c.39,0,.71.32.71.71v2.43h-6.57v-3.14Z"/>
    <path class="cls-2" d="m7.55,20.16c-.55,0-1,.45-1,1s.45,1,1,1h1.92c.55,0,1-.45,1-1s-.45-1-1-1h-1.92Z"/>
    <path class="cls-2" d="m11.47,17.16c0-.55-.45-1-1-1h-2.92c-.55,0-1,.45-1,1s.45,1,1,1h2.92c.55,0,1-.45,1-1Z"/>
  </g>
</svg>