<?xml version="1.0" encoding="UTF-8"?>
<svg id="OBJECT" xmlns="http://www.w3.org/2000/svg" viewBox="0 0 32 32">
  <defs>
    <style>
      .cls-1 {
        fill: #FD4360;
      }

      .cls-2 {
        fill: #dadada;
      }
    </style>
  </defs>
  <g>
    <path class="cls-2" d="M12.5,7h6c.55,0,1-.45,1-1s-.45-1-1-1h-6c-.55,0-1,.45-1,1s.45,1,1,1Z"/>
    <path class="cls-2" d="M8.5,7h.5c.55,0,1-.45,1-1s-.45-1-1-1h-.5c-.55,0-1,.45-1,1s.45,1,1,1Z"/>
    <path class="cls-2" d="M8.5,11h10c.55,0,1-.45,1-1s-.45-1-1-1H8.5c-.55,0-1,.45-1,1s.45,1,1,1Z"/>
    <path class="cls-2" d="M18.5,14h-6c-.55,0-1,.45-1,1s.45,1,1,1h6c.55,0,1-.45,1-1s-.45-1-1-1Z"/>
    <path class="cls-2" d="M8.5,16h.5c.55,0,1-.45,1-1s-.45-1-1-1h-.5c-.55,0-1,.45-1,1s.45,1,1,1Z"/>
    <path class="cls-2" d="M8.5,20h10c.55,0,1-.45,1-1s-.45-1-1-1H8.5c-.55,0-1,.45-1,1s.45,1,1,1Z"/>
    <path class="cls-2" d="M22,1H5c-.55,0-1,.45-1,1V23H2c-.55,0-1,.45-1,1v3.5c0,1.93,1.57,3.5,3.5,3.5h15c1.93,0,3.5-1.57,3.5-3.5V2c0-.55-.45-1-1-1ZM4.5,29c-.83,0-1.5-.67-1.5-1.5v-2.5H15.5c.28,0,.5,.22,.5,.5v2c0,.54,.12,1.04,.34,1.5H4.5Zm16.5-1.5c0,.83-.67,1.5-1.5,1.5s-1.5-.67-1.5-1.5v-2c0-1.38-1.12-2.5-2.5-2.5H6V3h15V27.5Z"/>
  </g>
  <g>
    <path class="cls-1" d="M26,26c0,.22,.07,.43,.2,.6l1.3,1.73v1.67c0,.55,.45,1,1,1s1-.45,1-1v-1.67l1.3-1.73c.13-.17,.2-.38,.2-.6V7h-5V26Z"/>
    <path class="cls-1" d="M29,1h-1c-1.1,0-2,.9-2,2v2h5V3c0-1.1-.9-2-2-2Z"/>
  </g>
</svg>