<?xml version="1.0" encoding="UTF-8"?>
<svg id="OBJECT" xmlns="http://www.w3.org/2000/svg" viewBox="0 0 32 32">
  <defs>
    <style>
      .cls-1 {
        fill: #FD4360;
      }

      .cls-1, .cls-2 {
        stroke-width: 0px;
      }

      .cls-2 {
        fill: #dadada;
      }
    </style>
  </defs>
  <path class="cls-2" d="m13.41,7.35c.05-.28.09-.56.09-.85v-2c0-1.93-1.57-3.5-3.5-3.5h-2c-1.93,0-3.5,1.57-3.5,3.5v2c0,.29.03.57.09.85-2.23,1.47-3.59,3.95-3.59,6.65v2c0,1.65,1.35,3,3,3h10c1.65,0,3-1.35,3-3v-2c0-2.7-1.36-5.18-3.59-6.65Zm-6.91-2.85c0-.83.67-1.5,1.5-1.5h2c.83,0,1.5.67,1.5,1.5v2c0,1.38-1.12,2.5-2.5,2.5s-2.5-1.12-2.5-2.5v-2Zm8.5,11.5c0,.55-.45,1-1,1h-1v-2c0-.55-.45-1-1-1s-1,.45-1,1v2h-4v-2c0-.55-.45-1-1-1s-1,.45-1,1v2h-1c-.55,0-1-.45-1-1v-2c0-1.92.91-3.68,2.42-4.8.82,1.09,2.11,1.8,3.58,1.8s2.76-.71,3.58-1.8c1.51,1.12,2.42,2.89,2.42,4.8v2Z"/>
  <g>
    <path class="cls-1" d="m31,15.5c0-.81-.32-1.58-.89-2.16l-1.45-1.45c-1.15-1.15-3.16-1.15-4.31,0l-1.47,1.47-.02-.02c-.39-.39-1.02-.39-1.41,0s-.39,1.02,0,1.41l5.8,5.8c.2.2.45.29.71.29s.51-.1.71-.29c.39-.39.39-1.02,0-1.41l-.02-.02,1.47-1.47c.58-.58.89-1.34.89-2.16Z"/>
    <path class="cls-1" d="m20.26,23.15c.68.86,1.18,1.84,1.48,2.87l4.07-4.07-2.18-2.18-3.37,3.37Z"/>
    <path class="cls-1" d="m14.34,21.95c-.74.87-1.24,1.94-1.4,3.07l-.44,3.05-1.21,1.21c-.39.39-.39,1.02,0,1.41.2.2.45.29.71.29s.51-.1.71-.29l1.21-1.21,3.05-.44c1.13-.16,2.2-.66,3.07-1.4-.17-1.44-.81-2.78-1.86-3.84-1.06-1.06-2.4-1.7-3.84-1.87Z"/>
    <path class="cls-1" d="m22.22,18.36l-2.18-2.18-4.07,4.07c1.03.3,2.01.8,2.87,1.48l3.37-3.37Z"/>
  </g>
</svg>