<?xml version="1.0" encoding="UTF-8"?>
<svg id="OBJECT" xmlns="http://www.w3.org/2000/svg" viewBox="0 0 32 32">
  <defs>
    <style>
      .cls-1 {
        fill: #FD4360;
      }

      .cls-1, .cls-2 {
        stroke-width: 0px;
      }

      .cls-2 {
        fill: #dadada;
      }
    </style>
  </defs>
  <g>
    <path class="cls-2" d="m16,18.17h10.5c.55,0,1-.45,1-1s-.45-1-1-1h-10.5c-.55,0-1,.45-1,1s.45,1,1,1Z"/>
    <path class="cls-2" d="m9.5,21.83c0,.55.45,1,1,1h16c.55,0,1-.45,1-1s-.45-1-1-1H10.5c-.55,0-1,.45-1,1Z"/>
    <path class="cls-2" d="m5.5,22.83h1c.55,0,1-.45,1-1s-.45-1-1-1h-1c-.55,0-1,.45-1,1s.45,1,1,1Z"/>
    <path class="cls-2" d="m5.5,27.5h21c.55,0,1-.45,1-1s-.45-1-1-1H5.5c-.55,0-1,.45-1,1s.45,1,1,1Z"/>
    <path class="cls-2" d="m30,8h-4.57c-.55,0-1,.45-1,1s.45,1,1,1h3.57v19H3V10h6.46c.55,0,1-.45,1-1s-.45-1-1-1H2c-.55,0-1,.45-1,1v21c0,.55.45,1,1,1h28c.55,0,1-.45,1-1V9c0-.55-.45-1-1-1Z"/>
  </g>
  <g>
    <path class="cls-1" d="m9.46,10.96c-.63.44-1.05,1.1-1.18,1.86l-.25,1.44-1.2.84c-.45.32-.56.94-.25,1.39.19.28.5.43.82.43.2,0,.4-.06.57-.18l1.2-.84,1.44.25c.16.03.33.04.49.04.59,0,1.17-.18,1.66-.52l10.86-7.6-3.3-4.72-10.86,7.6Z"/>
    <path class="cls-1" d="m26.96,2.79l-.54-.77c-.76-1.09-2.27-1.35-3.36-.59l-1.11.77,3.3,4.72,1.11-.77c.53-.37.88-.92.99-1.56s-.03-1.27-.4-1.8Z"/>
  </g>
</svg>