<?xml version="1.0" encoding="UTF-8"?>
<svg id="OBJECT" xmlns="http://www.w3.org/2000/svg" viewBox="0 0 32 32">
  <defs>
    <style>
      .cls-1 {
        fill: #FD4360;
      }

      .cls-1, .cls-2 {
        stroke-width: 0px;
      }

      .cls-2 {
        fill: #dadada;
      }
    </style>
  </defs>
  <g>
    <path class="cls-2" d="m27,10h-2v-1c0-.55-.45-1-1-1H8c-.55,0-1,.45-1,1v14c0,.55.45,1,1,1s1-.45,1-1v-13h14v13c0,.55.45,1,1,1s1-.45,1-1v-3h2c1.65,0,3-1.35,3-3v-4c0-1.65-1.35-3-3-3Zm1,7c0,.55-.45,1-1,1h-2v-6h2c.55,0,1,.45,1,1v4Z"/>
    <path class="cls-2" d="m11,6c.55,0,1-.45,1-1v-3c0-.55-.45-1-1-1s-1,.45-1,1v3c0,.55.45,1,1,1Z"/>
    <path class="cls-2" d="m16,6c.55,0,1-.45,1-1v-3c0-.55-.45-1-1-1s-1,.45-1,1v3c0,.55.45,1,1,1Z"/>
    <path class="cls-2" d="m21,6c.55,0,1-.45,1-1v-3c0-.55-.45-1-1-1s-1,.45-1,1v3c0,.55.45,1,1,1Z"/>
    <path class="cls-2" d="m11.5,11h-.5c-.55,0-1,.45-1,1s.45,1,1,1h.5c.55,0,1-.45,1-1s-.45-1-1-1Z"/>
    <path class="cls-2" d="m15.5,11h-.5c-.55,0-1,.45-1,1s.45,1,1,1h.5c.55,0,1-.45,1-1s-.45-1-1-1Z"/>
  </g>
  <path class="cls-1" d="m30,25H2c-.55,0-1,.45-1,1s.45,1,1,1h1.38l1.17,2.34c.51,1.02,1.54,1.66,2.68,1.66h17.53c1.14,0,2.17-.64,2.68-1.66l1.17-2.34h1.38c.55,0,1-.45,1-1s-.45-1-1-1Z"/>
</svg>