<?xml version="1.0" encoding="UTF-8" standalone="no"?>
<svg
   id="OBJECT"
   viewBox="0 0 32 32"
   version="1.1"
   sodipodi:docname="Youtube Tickret.svg"
   inkscape:version="1.2.2 (732a01da63, 2022-12-09)"
   xmlns:inkscape="http://www.inkscape.org/namespaces/inkscape"
   xmlns:sodipodi="http://sodipodi.sourceforge.net/DTD/sodipodi-0.dtd"
   xmlns="http://www.w3.org/2000/svg"
   xmlns:svg="http://www.w3.org/2000/svg">
  <sodipodi:namedview
     id="namedview25"
     pagecolor="#505050"
     bordercolor="#ffffff"
     borderopacity="1"
     inkscape:showpageshadow="0"
     inkscape:pageopacity="0"
     inkscape:pagecheckerboard="1"
     inkscape:deskcolor="#505050"
     showgrid="false"
     inkscape:zoom="3.2382813"
     inkscape:cx="-31.961399"
     inkscape:cy="15.749095"
     inkscape:window-width="1920"
     inkscape:window-height="1009"
     inkscape:window-x="-8"
     inkscape:window-y="-8"
     inkscape:window-maximized="1"
     inkscape:current-layer="g22" />
  <defs
     id="defs4">
    <style
       id="style2">
      .cls-1 {
        fill: #FD4360;
      }

      .cls-1, .cls-2 {
        stroke-width: 0px;
      }

      .cls-2 {
        fill: #dadada;
      }
    </style>
  </defs>
  <path
     class="cls-1"
     d="m28,1H4c-1.65,0-3,1.35-3,3v6c0,.55.45,1,1,1h1v-4.92c0-1.65,1.35-3,3-3h20c1.65,0,3,1.35,3,3v4.92h1c.55,0,1-.45,1-1v-6c0-1.65-1.35-3-3-3Z"
     id="path6" />
  <g
     id="g22">
    <path
       class="cls-2"
       d="m26,5.08H6c-.55,0-1,.45-1,1v23.92c0,.55.45,1,1,1h20c.55,0,1-.45,1-1V6.08c0-.55-.45-1-1-1Zm-1,23.92H7V7.08h18v21.92Z"
       id="path8" />
    <path
       class="cls-2"
       d="m10,22.63h12c.55,0,1-.45,1-1s-.45-1-1-1h-12c-.55,0-1,.45-1,1s.45,1,1,1Z"
       id="path14" />
    <path
       class="cls-2"
       d="m10,26.63h8c.55,0,1-.45,1-1s-.45-1-1-1h-8c-.55,0-1,.45-1,1s.45,1,1,1Z"
       id="path16" />
    <path
       class="cls-2"
       d="m22,24.63h-1c-.55,0-1,.45-1,1s.45,1,1,1h1c.55,0,1-.45,1-1s-.45-1-1-1Z"
       id="path18" />
  </g>
  <path
     style="fill:#dadada;fill-opacity:1;stroke-width:0.189054"
     d="m 14.44165,13.488853 c 0,-1.346308 0.07967,-2.414703 0.177049,-2.374212 0.642493,0.267158 4.019231,2.277567 4.019231,2.39293 0,0.130008 -3.881518,2.429111 -4.101007,2.429111 -0.05239,0 -0.09528,-1.101523 -0.09528,-2.447829 z"
     id="path807" />
  <path
     style="fill:#fd4360;fill-opacity:1;stroke-width:0.03607"
     d="M 13.202861,18.719849 C 11.647813,18.649559 10.572557,18.541905 10.222479,18.421459 9.728699,18.251573 9.357858,17.933569 9.1452986,17.497746 8.7101565,16.605557 8.567024,13.475996 8.8465817,10.96637 8.9549806,9.993265 9.0853651,9.6131383 9.441244,9.2326737 9.828248,8.8189376 10.293122,8.6584679 11.36986,8.5669401 c 0.301286,-0.025616 0.784819,-0.069651 1.074518,-0.09787 0.744229,-0.07248 6.518576,-0.07059 7.437343,0.0025 1.543854,0.1227095 1.72633,0.1436212 2.035841,0.233322 0.360705,0.1045397 0.743694,0.3373086 0.937902,0.5700375 0.333419,0.399548 0.508016,1.0208724 0.636219,2.2640684 0.0696,0.674963 0.06985,3.289877 4.21e-4,3.999396 -0.0824,0.84152 -0.211769,1.574535 -0.32804,1.858694 -0.183667,0.448856 -0.602483,0.840632 -1.080993,1.011188 -0.283751,0.101149 -0.539026,0.139923 -1.5271,0.232009 -0.804182,0.07494 -1.303969,0.08816 -3.771345,0.09967 -1.56437,0.0073 -3.176146,-0.0018 -3.581724,-0.02006 z m 2.465068,-3.426061 c 2.325367,-1.325401 2.904541,-1.663802 2.918313,-1.705119 0.0081,-0.02438 -0.332291,-0.24232 -0.756491,-0.484303 -0.424197,-0.241983 -1.22636,-0.700908 -1.782581,-1.019832 -0.556221,-0.318924 -1.0919,-0.625932 -1.190395,-0.682238 l -0.179086,-0.102374 v 2.27971 c 0,1.253841 0.01423,2.271348 0.03161,2.261128 0.01738,-0.01026 0.44877,-0.256359 0.95864,-0.546971 z"
     id="path460" />
</svg>
