<?xml version="1.0" encoding="UTF-8"?>
<svg id="OBJECT" xmlns="http://www.w3.org/2000/svg" viewBox="0 0 32 32">
  <defs>
    <style>
      .cls-1 {
        fill: #FD4360;
      }

      .cls-1, .cls-2 {
        stroke-width: 0px;
      }

      .cls-2 {
        fill: #dadada;
      }
    </style>
  </defs>
  <g>
    <path class="cls-2" d="m24.96,16.96l-3.3-2.55c-.54-.42-.91-.99-1.07-1.65-.13-.54-.67-.87-1.21-.74-.54.13-.87.67-.74,1.21.27,1.1.88,2.05,1.79,2.76l3.3,2.55c1.44,1.12,2.26,2.8,2.26,4.62,0,3.22-2.62,5.84-5.84,5.84h-8.32c-3.22,0-5.84-2.62-5.84-5.84,0-1.82.83-3.5,2.26-4.62l3.3-2.55c.9-.7,1.52-1.66,1.79-2.75.13-.54-.2-1.08-.74-1.21-.53-.13-1.08.2-1.21.74-.16.65-.53,1.22-1.07,1.64l-3.3,2.55c-1.93,1.5-3.04,3.76-3.04,6.2,0,4.32,3.52,7.84,7.84,7.84h8.32c4.32,0,7.84-3.52,7.84-7.84,0-2.44-1.11-4.7-3.04-6.2Z"/>
    <path class="cls-2" d="m11.17,18.05c-.65.07-1.23.45-1.56,1.02-.32.56-.35,1.22-.08,1.8.81,1.78,1.94,2.84,3.24,3.08.19.03.37.05.56.05.55,0,1.1-.14,1.67-.43v2.43c0,.55.45,1,1,1s1-.45,1-1v-2.43c.56.28,1.12.43,1.67.43.19,0,.38-.02.56-.05,1.31-.24,2.43-1.3,3.24-3.08.27-.58.24-1.24-.08-1.8-.32-.57-.9-.95-1.56-1.02-2.41-.26-3.94.56-4.83,1.54-.89-.98-2.43-1.8-4.83-1.54Zm1.96,3.93c-.62-.11-1.27-.82-1.75-1.94.24-.03.46-.04.67-.04,1.67,0,2.42.77,2.75,1.32-.52.42-1.13.77-1.68.67Zm7.52-1.94c-.51,1.12-1.16,1.83-1.78,1.94-.55.1-1.16-.24-1.68-.66.37-.61,1.29-1.52,3.46-1.28Z"/>
  </g>
  <path class="cls-1" d="m23.25,3.56c-.33-.87-1.03-1.53-1.93-1.81l-1.02-.31-5.18,7.56h-2.42l3.3-4.81-1.89-2.76c-.25-.36-.7-.52-1.12-.39l-2.32.71c-.89.27-1.6.93-1.93,1.81-.33.87-.24,1.83.25,2.63l1.72,2.81h-.22c-.55,0-1,.45-1,1s.45,1,1,1h11c.55,0,1-.45,1-1s-.45-1-1-1h-.22l1.72-2.81c.49-.8.58-1.76.25-2.63Z"/>
</svg>