<?xml version="1.0" encoding="UTF-8"?>
<svg id="OBJECT" xmlns="http://www.w3.org/2000/svg" viewBox="0 0 32 32">
  <defs>
    <style>
      .cls-1 {
        fill: #FD4360;
      }

      .cls-2 {
        fill: #dadada;
      }
    </style>
  </defs>
  <g>
    <path class="cls-2" d="M24.5,1H3.5c-1.38,0-2.5,1.12-2.5,2.5V24.5c0,1.38,1.12,2.5,2.5,2.5H24.5c1.38,0,2.5-1.12,2.5-2.5V3.5c0-1.38-1.12-2.5-2.5-2.5Zm.5,23.5c0,.28-.22,.5-.5,.5H3.5c-.28,0-.5-.22-.5-.5V3.5c0-.28,.22-.5,.5-.5H24.5c.28,0,.5,.22,.5,.5V24.5Z"/>
    <path class="cls-2" d="M18.66,14.41c-.38-.51-1.24-.51-1.61,0l-3.05,4.15-3.05-4.15c-.19-.26-.49-.41-.81-.41s-.62,.15-.81,.41l-5.14,7c-.33,.45-.23,1.07,.21,1.4,.18,.13,.39,.19,.59,.19,.31,0,.61-.14,.81-.41l4.34-5.9,2.62,3.56-.85,1.16c-.33,.45-.23,1.07,.21,1.4,.18,.13,.39,.19,.59,.19,.31,0,.61-.14,.81-.41l4.34-5.9,4.34,5.9c.33,.44,.95,.54,1.4,.21,.44-.33,.54-.95,.21-1.4l-5.14-7Z"/>
  </g>
  <g>
    <path class="cls-1" d="M29,5V25c0,2.21-1.79,4-4,4H5c0,1.1,.9,2,2,2H29c1.1,0,2-.9,2-2V7c0-1.1-.9-2-2-2Z"/>
    <circle class="cls-1" cx="14" cy="8.5" r="4"/>
  </g>
</svg>