<?xml version="1.0" encoding="UTF-8"?>
<svg id="OBJECT" xmlns="http://www.w3.org/2000/svg" viewBox="0 0 32 32">
  <defs>
    <style>
      .cls-1 {
        fill: #FD4360;
      }

      .cls-2 {
        fill: #dadada;
      }
    </style>
  </defs>
  <path class="cls-2" d="m22.5,1c-4.69,0-8.5,3.81-8.5,8.5s3.81,8.5,8.5,8.5,8.5-3.81,8.5-8.5S27.19,1,22.5,1Zm0,2c3.58,0,6.5,2.92,6.5,6.5,0,.48-.06.95-.15,1.4-.84-.95-1.9-1.69-3.07-2.18.14-.38.23-.78.23-1.21,0-1.93-1.57-3.5-3.5-3.5s-3.5,1.57-3.5,3.5c0,.43.09.83.23,1.21-1.18.49-2.23,1.24-3.07,2.18-.1-.45-.15-.92-.15-1.4,0-3.58,2.92-6.5,6.5-6.5Zm1.5,4.5c0,.83-.67,1.5-1.5,1.5s-1.5-.67-1.5-1.5.67-1.5,1.5-1.5,1.5.67,1.5,1.5Zm-1.5,8.5c-2.29,0-4.3-1.19-5.46-2.98.81-1.25,2.03-2.19,3.46-2.65.57.4,1.25.63,2,.63s1.43-.24,2-.63c1.43.46,2.65,1.4,3.46,2.65-1.16,1.79-3.17,2.98-5.46,2.98Z"/>
  <g>
    <path class="cls-1" d="m21.71,21.82l-1.98-1.98c-.39-.39-1.02-.39-1.41,0l-2.01,2.01,3.39,3.39,2.01-2c.39-.39.39-1.02,0-1.41Z"/>
    <path class="cls-1" d="m12.16,13.68c.39-.39.39-1.02,0-1.41l-1.98-1.98c-.39-.39-1.02-.39-1.41,0l-2.01,2.01,3.39,3.39,2.01-2.01Z"/>
    <path class="cls-1" d="m13.23,24.93c-.85.85-1.96,1.27-3.08,1.27s-2.23-.42-3.08-1.27c-.82-.82-1.28-1.92-1.28-3.08s.45-2.26,1.28-3.08l1.67-1.67-3.39-3.39-1.44,1.44c-1.64,1.64-2.74,3.79-2.89,6.11-.17,2.66.79,5.2,2.66,7.06,1.87,1.87,4.4,2.83,7.06,2.66,2.32-.14,4.47-1.25,6.11-2.89l1.44-1.44-3.39-3.39-1.67,1.67Z"/>
  </g>
</svg>