<?xml version="1.0" encoding="UTF-8"?>
<svg id="OBJECT" xmlns="http://www.w3.org/2000/svg" viewBox="0 0 32 32">
  <defs>
    <style>
      .cls-1 {
        fill: #FD4360;
      }

      .cls-1, .cls-2 {
        stroke-width: 0px;
      }

      .cls-2 {
        fill: #dadada;
      }
    </style>
  </defs>
  <path class="cls-2" d="m26.21,8.11l-2.79-6.51c-.12-.28-.36-.49-.64-.57-.29-.08-.6-.03-.85.14l-2.86,2c-.45.32-.56.94-.25,1.39.32.45.94.56,1.39.25l1.86-1.3,1.92,4.48h-15.97l1.92-4.48,1.86,1.3c.45.31,1.07.2,1.39-.25.32-.45.21-1.08-.25-1.39l-2.86-2c-.25-.17-.56-.22-.85-.14-.29.08-.53.29-.64.57l-2.79,6.51c-1.03.31-1.79,1.25-1.79,2.39v5c0,1.38,1.12,2.5,2.5,2.5h5.88c.66,0,1.3-.27,1.77-.73l1.85-1.85,1.85,1.85c.47.47,1.11.73,1.77.73h5.88c1.38,0,2.5-1.12,2.5-2.5v-5c0-1.13-.76-2.08-1.79-2.39Zm-13.48,7.74c-.09.09-.22.15-.35.15h-5.88c-.28,0-.5-.22-.5-.5v-5c0-.28.22-.5.5-.5h8.5v3.59l-2.27,2.27Zm13.27-.35c0,.28-.22.5-.5.5h-5.88c-.13,0-.26-.05-.35-.15l-2.27-2.27v-3.59h8.5c.28,0,.5.22.5.5v5Z"/>
  <path class="cls-1" d="m23.5,22h-6.12c-.55,0-1-.45-1-1s.45-1,1-1h1.01l-.52-.92c-.38-.67-1.1-1.08-1.87-1.08s-1.49.42-1.87,1.08l-1.67,2.92h-3.97c-1.38,0-2.5,1.12-2.5,2.5v4c0,1.38,1.12,2.5,2.5,2.5h15c1.38,0,2.5-1.12,2.5-2.5v-4c0-1.38-1.12-2.5-2.5-2.5Zm-13.2,5.5h-.3c-.55,0-1-.45-1-1s.45-1,1-1h.3c.55,0,1,.45,1,1s-.45,1-1,1Zm11.7,0h-8.7c-.55,0-1-.45-1-1s.45-1,1-1h8.7c.55,0,1,.45,1,1s-.45,1-1,1Z"/>
</svg>