<?xml version="1.0" encoding="UTF-8"?>
<svg id="OBJECT" xmlns="http://www.w3.org/2000/svg" viewBox="0 0 32 32">
  <defs>
    <style>
      .cls-1 {
        fill: #FD4360;
      }

      .cls-1, .cls-2 {
        stroke-width: 0px;
      }

      .cls-2 {
        fill: #dadada;
      }
    </style>
  </defs>
  <g>
    <path class="cls-2" d="m30,16.5h-2v-1.5c0-.55-.45-1-1-1H5c-.55,0-1,.45-1,1v1.5h-2c-.55,0-1,.45-1,1v7c0,.55.45,1,1,1h2v1.5c0,.55.45,1,1,1h8c.35,0,.68-.18.86-.49l1.29-2.14c.26-.44.69-.49.86-.49s.59.05.86.49l1.29,2.14c.18.3.51.49.86.49h8c.55,0,1-.45,1-1v-1.5h2c.55,0,1-.45,1-1v-7c0-.55-.45-1-1-1ZM3,23.5v-5h1v5h-1Zm23,2.5h-6.43l-.99-1.66c-.55-.91-1.51-1.46-2.57-1.46s-2.02.54-2.57,1.46l-.99,1.66h-6.43v-10h20v10Zm3-2.5h-1v-5h1v5Z"/>
    <path class="cls-2" d="m23.14,19h.86c.55,0,1-.45,1-1s-.45-1-1-1h-.86c-.55,0-1,.45-1,1s.45,1,1,1Z"/>
    <path class="cls-2" d="m19.14,19h.86c.55,0,1-.45,1-1s-.45-1-1-1h-.86c-.55,0-1,.45-1,1s.45,1,1,1Z"/>
  </g>
  <g>
    <polygon class="cls-1" points="23.12 10 8.88 10 7.88 12 24.12 12 23.12 10"/>
    <path class="cls-1" d="m19.5,6c0-1.1-.9-2-2-2h-3c-1.1,0-2,.9-2,2v2h7v-2Z"/>
  </g>
</svg>