<?xml version="1.0" encoding="UTF-8" standalone="no"?>
<!-- Generator: Adobe Illustrator 27.3.1, SVG Export Plug-In . SVG Version: 6.00 Build 0)  -->

<svg
   version="1.1"
   id="Camada_3"
   x="0px"
   y="0px"
   viewBox="0 0 310 65"
   style="enable-background:new 0 0 310 65;"
   xml:space="preserve"
   sodipodi:docname="ss3a-dashboard-dark-nerdgpt-logo.svg"
   inkscape:version="1.3.2 (091e20e, 2023-11-25, custom)"
   xmlns:inkscape="http://www.inkscape.org/namespaces/inkscape"
   xmlns:sodipodi="http://sodipodi.sourceforge.net/DTD/sodipodi-0.dtd"
   xmlns="http://www.w3.org/2000/svg"
   xmlns:svg="http://www.w3.org/2000/svg"><defs
   id="defs55"><rect
   x="46.754098"
   y="90.967213"
   width="249.52459"
   height="35.065574"
   id="rect56" />
	
	
	
	
	
	
	
</defs><sodipodi:namedview
   id="namedview55"
   pagecolor="#ffffff"
   bordercolor="#000000"
   borderopacity="0.25"
   inkscape:showpageshadow="2"
   inkscape:pageopacity="0.0"
   inkscape:pagecheckerboard="0"
   inkscape:deskcolor="#d1d1d1"
   inkscape:zoom="1.9677419"
   inkscape:cx="108.2459"
   inkscape:cy="141.02459"
   inkscape:window-width="1920"
   inkscape:window-height="1009"
   inkscape:window-x="-8"
   inkscape:window-y="-8"
   inkscape:window-maximized="1"
   inkscape:current-layer="Camada_3" />
<style
   type="text/css"
   id="style1">
	.st0{fill:#B9AFA4;}
	.st1{fill:#FD4360;}
	.st2{fill:#1F1F1F;}
	.st3{fill:#020201;}
	.st4{fill:#FFFFFF;}
	.st5{fill:#FFFFFF;stroke:#FFFFFF;stroke-width:0.08;stroke-linecap:round;stroke-linejoin:round;stroke-miterlimit:10;}
</style>
<g
   id="g11">
		<path
   class="st0"
   d="m 76.611816,27.028013 -31.714954,0.02019 -31.715334,-0.02019 c 0,0 -4.2210168,0.255219 -4.5078525,5.375979 0,5.03886 0.7667999,11.473041 0.7667999,11.473041 0,0 0.7028046,3.775337 4.1551156,3.989796 4.581371,-0.01942 16.966729,0 16.966729,0 0,0 2.256212,-0.129131 2.412771,-0.152371 0.156177,-0.02323 3.588302,-0.429679 4.529945,-3.893802 0.941643,-3.464119 2.428009,-10.926415 2.356774,-13.192532 0.454063,-1.144295 1.953758,-1.016304 2.153743,-1.018209 0.187035,-0.0023 2.567429,-0.0069 2.88131,-0.0076 0.313881,7.61e-4 2.694271,0.0053 2.881306,0.0076 0.199985,0.0019 1.699684,-0.126086 2.153362,1.018209 -0.07085,2.266117 1.415512,9.728413 2.357159,13.192532 0.941261,3.464123 4.373764,3.870567 4.529945,3.893802 0.156559,0.02324 2.412769,0.152371 2.412769,0.152371 0,0 12.385357,-0.01942 16.966343,0 3.452698,-0.214459 4.155121,-3.989796 4.155121,-3.989796 0,0 0.767181,-6.434181 0.767181,-11.473041 -0.286835,-5.12076 -4.508233,-5.375979 -4.508233,-5.375979 z"
   id="path1" />
		<path
   class="st1"
   d="m 11.373487,29.449045 c 0.489835,-0.577679 1.083814,-1.036259 1.773531,-1.378032 0.282831,-0.140097 0.591605,-0.136216 0.892522,-0.146273 2.17567,-0.07199 4.352069,-0.01429 6.528287,-0.018 4.825829,-0.0085 9.654398,0.119982 14.476206,-0.05858 2.518429,-0.09334 4.016071,1.614997 4.580269,3.290163 0.07199,0.21385 0.0018,0.44605 0.134476,0.641374 0.02759,1.135597 -0.0038,2.270313 -0.06176,3.404148 -0.01992,0.389058 -0.06139,0.780941 -0.139771,1.16259 -0.1268,0.618439 -0.145069,1.256817 -0.365047,1.857788 -0.204083,0.289544 -0.231854,0.640671 -0.355912,0.958622 -0.387707,0.992325 -0.903301,1.932244 -1.295025,2.920865 -0.367424,0.92757 -0.768829,1.832904 -1.297035,2.687072 -0.580276,0.937981 -1.40757,1.514428 -2.51532,1.746804 -0.270042,0.05664 -0.530033,0.07499 -0.800071,0.07728 -5.91951,0.04976 -11.838837,0.0028 -17.758347,0.0085 -0.680217,7.06e-4 -1.331383,-0.09634 -1.901427,-0.510277 -0.687343,-0.49916 -1.532391,-1.218704 -1.711626,-1.976356 -0.202987,-0.856991 -0.412186,-1.714512 -0.561275,-2.581032 -0.171561,-0.996559 -0.599064,-8.042168 -0.64876,-8.763824 -0.08441,-1.225409 0.206093,-2.355713 1.026081,-3.322806 z"
   id="path2" />
		<path
   class="st2"
   d="m 27.949299,31.475939 c 2.738201,9.93e-4 5.228336,1.91601 5.012554,4.090803 -0.253384,2.553932 -1.777382,4.367588 -5.373465,4.445785 -1.843971,0.0401 -4.58291,-2.686294 -4.493383,-4.511287 0.106703,-2.175003 1.906206,-4.162154 4.854294,-4.025301 z"
   id="path3" />
		<path
   class="st1"
   d="m 78.565483,29.449045 c -0.489838,-0.577679 -1.083816,-1.036259 -1.773529,-1.378032 -0.282829,-0.140097 -0.591606,-0.136216 -0.892525,-0.146273 -2.175667,-0.07199 -4.352066,-0.01429 -6.52829,-0.018 -4.825828,-0.0085 -9.654396,0.119982 -14.476203,-0.05858 -2.518425,-0.09334 -4.016072,1.614997 -4.580269,3.290163 -0.07199,0.21385 -0.0018,0.44605 -0.134472,0.641374 -0.02759,1.135597 0.0038,2.270313 0.06175,3.404148 0.01992,0.389058 0.06139,0.780941 0.139771,1.16259 0.1268,0.618439 0.145069,1.256817 0.365047,1.857788 0.204086,0.289544 0.231857,0.640671 0.355915,0.958622 0.387703,0.992325 0.903301,1.932244 1.295025,2.920865 0.36742,0.92757 0.768829,1.832904 1.297031,2.687072 0.580277,0.937981 1.407574,1.514428 2.515324,1.746804 0.270039,0.05664 0.530029,0.07499 0.800072,0.07728 5.91951,0.04976 11.838836,0.0028 17.758346,0.0085 0.680214,7.06e-4 1.331383,-0.09634 1.901429,-0.510277 0.687339,-0.49916 1.532386,-1.218704 1.711624,-1.976356 0.202987,-0.856991 0.412185,-1.714512 0.561271,-2.581032 0.171563,-0.996559 0.599068,-8.042168 0.648758,-8.763824 0.08441,-1.225409 -0.206092,-2.355713 -1.026077,-3.322806 z"
   id="path4" />
		<path
   class="st2"
   d="m 61.98967,31.475939 c -2.738201,9.93e-4 -5.228337,1.91601 -5.012554,4.090803 0.253383,2.553932 1.777382,4.367588 5.373466,4.445785 1.843968,0.0401 4.582913,-2.686294 4.493382,-4.511287 -0.106697,-2.175003 -1.906205,-4.162154 -4.854294,-4.025301 z"
   id="path5" />
		<path
   class="st3"
   d="m 22.67444,60.12265 c -9.23e-4,-0.0043 -0.0018,-0.0086 -0.0028,-0.01285 0.0044,0.0047 0.0088,0.0095 0.01402,0.01434 8.83e-4,1.56e-4 -0.01125,-0.0015 -0.01125,-0.0015 z"
   id="path6" />
		<path
   class="st4"
   d="m 73.151886,22.973682 c -0.241173,0.335085 -0.291229,0.333805 -0.561455,0.04641 -1.130951,-1.203304 -2.179321,-2.477135 -3.208511,-3.766861 -0.123322,-0.154386 -0.216507,-0.159685 -0.365776,-0.08204 -0.65226,0.339287 -1.296852,0.694834 -1.960808,1.009819 -2.613068,1.238751 -5.355858,2.040833 -8.229832,2.369886 -4.245552,0.486184 -8.37381,-0.07747 -12.415825,-1.411773 C 45.166908,20.72895 43.952823,20.247885 42.761211,19.713102 41.79451,19.279356 40.865082,18.763027 39.899296,18.326908 37.017284,17.025671 34.24197,15.500437 31.33383,14.254561 31.069637,14.141466 30.793932,14.055045 30.498314,14.02161 c 0.507923,0.242634 1.018772,0.478691 1.522857,0.728816 1.301968,0.645503 2.499428,1.459094 3.668019,2.314893 1.703006,1.246971 3.269352,2.675554 5.061702,3.804132 0.325036,0.204632 0.642762,0.420773 0.965237,0.629059 0.07838,0.05079 0.162426,0.09245 0.215229,0.25177 -0.49696,0 -0.972729,0.0026 -1.448498,-3.66e-4 -1.056591,-0.0066 -2.105693,-0.07454 -3.148582,-0.268944 -0.838989,-0.15658 -1.691315,-0.239712 -2.532494,-0.385511 -0.701595,-0.1215 -1.391128,-0.317543 -2.094547,-0.425705 -1.28516,-0.197506 -2.52665,-0.583201 -3.796095,-0.850317 -1.534004,-0.322661 -3.038776,-0.783993 -4.557432,-1.181746 -0.264195,-0.06925 -0.532408,-0.122961 -0.799891,-0.178505 -0.09647,-0.0201 -0.165167,0.002 -0.228382,0.10524 -1.119077,1.830902 -2.215683,3.673863 -3.09779,5.634671 -0.143425,0.318456 -0.133741,0.32686 0.232037,0.32686 4.56328,3.66e-4 9.126558,-0.0051 13.69002,1.83e-4 6.308674,0.0073 12.61753,0.03234 18.926204,0.03143 7.19188,-7.31e-4 14.383938,-0.01334 21.576001,-0.03471 v -3.967291 c -0.0068,0.0137 -0.0106,0.0285 -0.01754,0.04221 -0.419495,0.837526 -0.936188,1.61677 -1.482483,2.375915 z"
   id="path7" />
		<path
   class="st4"
   d="M 71.751442,2.1915438 H 18.267023 c -1.601788,0 -2.900284,1.2986782 -2.900284,2.9004662 v 8.543177 c 0.9086,-1.132598 1.937786,-2.148995 3.078606,-3.054306 2.653082,-2.1055101 5.638689,-3.4856756 8.953535,-4.1655267 0.953911,-0.1954961 1.910379,-0.3599319 2.882378,-0.4443421 0.982231,-0.085324 1.96574,-0.1353855 2.9487,-0.096104 1.118896,0.044946 2.242542,0.09519 3.351387,0.2400761 1.271637,0.1660805 2.539074,0.3723559 3.796825,0.6498876 0.777233,0.1715612 1.553921,0.3480558 2.328594,0.5329547 0.781071,0.1867261 1.552822,0.4070702 2.325123,0.6279626 2.212761,0.6330786 4.374546,1.412322 6.52573,2.2229908 2.306488,0.869318 4.57753,1.8267 6.83944,2.805825 1.655136,0.716574 3.335125,1.372308 5.022419,2.006848 0.553966,0.208285 1.102634,0.442699 1.682727,0.580093 0.074,0.01772 0.164437,0.04476 0.208466,-0.01133 0.06176,-0.07856 -0.0093,-0.162243 -0.06175,-0.222903 C 65.049767,15.076741 64.853355,14.842877 64.63868,14.627101 63.260155,13.241454 61.926033,11.811593 60.487217,10.486056 59.712727,9.7724044 58.851994,9.1676462 58.032375,8.5108163 57.739311,8.2760379 57.436386,8.0529534 57.116283,7.8081267 c 0.79057,0.1342893 1.533089,0.348969 2.271775,0.5853915 3.167034,1.0134735 6.12688,2.4959548 9.073024,4.0076688 1.40976,0.723517 2.853508,1.374501 4.282273,2.057641 0.113464,0.05426 0.213585,0.241172 0.351715,0.138126 0.158951,-0.118212 -0.0486,-0.229845 -0.06706,-0.35171 C 72.94799,13.713751 72.621669,13.286217 72.399867,12.814651 71.705765,11.338017 70.794975,10.01175 69.627663,8.8669107 68.304138,7.5687811 66.786758,6.547817 65.139107,5.7066357 63.850479,5.0488922 62.527866,4.4653275 61.193562,3.9111786 60.245132,3.5174458 59.325024,3.0568428 58.33987,2.7157295 c 0.126431,-0.053168 0.236969,-0.034531 0.346592,-0.00512 0.897091,0.2408073 1.821587,0.3453155 2.726349,0.5495813 3.598404,0.8123136 6.948509,2.163063 9.76091,4.6188216 1.493263,1.3036118 2.714661,2.8367026 3.478188,4.6875196 V 5.09201 c 0,-1.601788 -1.298676,-2.9004662 -2.900467,-2.9004662 z"
   id="path8" />
		<path
   class="st4"
   d="m 60.22266,50.6413 c -1.187958,-0.0051 -2.37537,0.0069 -3.563328,-0.05444 -1.428215,-0.07363 -2.727443,-0.555065 -3.989212,-1.176998 -0.753483,-0.371441 -1.515186,-0.730828 -2.12104,-1.336682 -0.672909,-0.673092 -1.041794,-1.486499 -1.176632,-2.428169 -0.125153,-0.875164 -0.422417,-1.709404 -0.677841,-2.554054 -0.270588,-0.894898 -0.467362,-1.812084 -0.72498,-2.711182 -0.388618,-1.356781 -0.644222,-2.742428 -0.941486,-4.119305 -0.159138,-0.736671 -0.460056,-1.376327 -1.141918,-1.786686 -0.4511,-0.271865 -0.927052,-0.267665 -1.379067,-0.100853 -0.7723,0.285023 -1.399532,0.754944 -1.688942,1.581871 -0.407249,1.16293 -0.697025,2.359475 -1.020961,3.545788 -0.206643,0.757683 -0.39684,1.521397 -0.600193,2.279263 -0.17503,0.65208 -0.427716,1.290642 -0.582467,1.948932 -0.150184,0.63728 -0.350978,1.261952 -0.565296,1.870182 -0.29105,0.826565 -0.739048,1.599415 -1.390213,2.222081 -1.561592,1.493259 -3.376781,2.473846 -5.543316,2.754299 -0.804824,0.104141 -1.611837,0.05682 -2.41739,0.06121 -2.461606,0.0137 -4.923394,0.01115 -7.384999,0.01133 h -7.94664 v 7.928551 c 0,1.601788 1.298496,2.900284 2.900284,2.900284 h 53.484419 c 1.601791,0 2.900467,-1.298496 2.900467,-2.900284 v -7.921429 h -7.94043 c -2.16288,7.33e-4 -4.325939,-0.0044 -6.488819,-0.0137 z m -13.074299,8.511753 c -1.018772,0.354813 -2.079384,0.436119 -3.112408,0.285202 -1.118709,-0.163704 -2.195949,-0.571506 -3.261676,-0.971996 -1.598133,-0.600742 -3.106739,-1.377609 -4.565651,-2.260449 -0.268215,-0.162242 -0.260357,-0.303474 -0.110173,-0.523452 0.775773,-1.138081 1.4432,-2.343579 2.150456,-3.523129 1.225594,-2.044304 2.392723,-4.123871 3.589634,-6.185531 0.893253,-1.538208 1.942901,-2.970993 3.004974,-4.393727 0.08788,-0.117847 0.06541,-0.25579 0.169918,-0.380214 0.144158,0.297996 0.185997,0.604393 0.227654,0.900562 0.216324,1.535648 0.419311,3.073124 0.614807,4.611511 0.104691,0.82291 0.178322,1.649475 0.278442,2.472935 0.09702,0.79861 0.20847,1.595577 0.316449,2.392906 0.15932,1.175716 0.309139,2.352714 0.449459,3.530987 0.07326,0.616272 0.169185,1.236744 0.37656,1.829441 0.105785,0.30238 0.274605,0.491299 0.642029,0.46645 0.5293,-0.03599 1.046726,-0.128258 1.565613,-0.227467 0.28009,-0.05354 0.567302,-0.07071 0.928695,-0.113464 -0.967247,0.991916 -2.034069,1.660621 -3.264782,2.089435 z"
   id="path9" />
		<path
   class="st0"
   d="m 83.68116,27.029848 c 0.610794,0.0022 1.176117,0.522368 1.133392,1.089434 -0.06029,0.799999 -0.557548,1.262094 -1.190445,1.284965 -0.430213,0.01555 -1.106865,-0.63455 -1.076118,-1.20961 0.03629,-0.678758 0.539604,-1.264875 1.133171,-1.164789 z"
   id="path10" />
		<path
   class="st0"
   d="m 6.1023083,27.029737 c 0.6215138,2.73e-4 1.1867218,0.527186 1.1377439,1.125575 -0.057513,0.702707 -0.4034281,1.20173 -1.2196631,1.223245 -0.4185424,0.01103 -1.0402236,-0.739126 -1.0199032,-1.241268 0.024219,-0.598448 0.4326687,-1.145206 1.1018224,-1.107552 z"
   id="path11" />
	</g><g
   id="g15">
		<path
   class="st4"
   d="m 118.64177,46.466392 h -8.10754 L 100.29346,28.541241 v 17.925151 h -7.6822 V 16.592594 h 8.10754 l 10.24295,17.925152 V 16.592594 h 7.68002 z"
   id="path12" />
		<path
   class="st4"
   d="M 147.44678,46.466392 H 123.76324 V 16.592594 h 23.68354 v 5.976505 h -16.00133 v 5.758383 h 12.58774 v 5.976504 h -12.58774 v 6.185901 h 16.00133 z"
   id="path13" />
		<path
   class="st4"
   d="m 150.86255,16.592594 h 17.92296 c 2.98825,0 5.15637,0.676174 6.50873,2.028523 1.35015,1.352346 2.02633,3.520466 2.02633,6.508718 v 3.838923 c 0,2.364425 -0.39044,4.19664 -1.17349,5.505363 -0.78305,1.308724 -2.02634,2.176842 -3.73422,2.604359 l 5.33523,9.387913 h -8.3213 l -4.90772,-8.960396 h -5.97432 v 8.960396 h -7.6822 z m 18.77582,8.537241 c 0,-1.710066 -0.85286,-2.560736 -2.55857,-2.560736 h -8.53505 v 8.960394 h 8.53505 c 1.70571,0 2.55857,-0.850671 2.55857,-2.560735 z"
   id="path14" />
		<path
   class="st4"
   d="m 198.22961,16.592594 c 3.21509,0 5.65587,0.833221 7.32013,2.499662 1.66426,1.662079 2.4953,4.100668 2.4953,7.315766 v 10.242941 c 0,3.215099 -0.83104,5.653686 -2.4953,7.320129 -1.66426,1.662079 -4.10504,2.4953 -7.32013,2.4953 h -16.6426 V 16.592594 Z m 2.13321,9.815428 c 0,-2.560736 -1.28036,-3.838923 -3.83891,-3.838923 h -7.2547 v 17.920788 h 7.2547 c 2.55855,0 3.83891,-1.278187 3.83891,-3.838924 z"
   id="path15" />
	</g><path
   class="st1"
   d="m 237.46297,45.811413 c -6.65705,0.711075 -12.77533,1.06879 -18.3505,1.06879 -2.78976,0 -4.8379,-0.654362 -6.14445,-1.963085 -1.3109,-1.308723 -1.96309,-3.359055 -1.96309,-6.146637 V 25.116133 c 0,-2.988253 0.67399,-5.15637 2.02635,-6.508719 1.35016,-1.352348 3.52046,-2.02852 6.50871,-2.02852 h 15.36223 v 5.976503 H 221.2457 c -1.70571,0 -2.56075,0.85067 -2.56075,2.560736 v 13.654348 c 0,0.654362 0.19196,1.173489 0.57585,1.557381 0.38388,0.383892 0.90302,0.57584 1.55956,0.57584 3.26962,0 6.25787,-0.0698 8.96039,-0.213761 v -6.185897 h -5.5468 v -5.121472 h 13.22902 z"
   id="path16" /><path
   class="st1"
   d="m 241.7294,16.578894 h 17.92297 c 2.98825,0 5.15638,0.676172 6.5087,2.02852 1.35019,1.352349 2.02637,3.520466 2.02637,6.508719 v 4.266439 c 0,2.988251 -0.67618,5.156368 -2.02637,6.508717 -1.35232,1.352348 -3.52045,2.028522 -6.5087,2.028522 h -10.24076 v 8.532879 h -7.68221 z m 18.77582,8.537239 c 0,-1.710066 -0.85285,-2.560736 -2.55856,-2.560736 h -8.53505 v 9.387911 h 8.53505 c 1.70571,0 2.55856,-0.855034 2.55856,-2.560736 z"
   id="path17" /><path
   class="st1"
   d="m 286.5379,46.55912 h -7.68219 V 22.661827 h -8.96039 v -5.976505 h 25.60517 v 5.976505 h -8.96259 z"
   id="path18" /><g
   id="g54">
		<path
   class="st5"
   d="m 299.24042,28.323536 h 3.83972 c 0.63995,0 1.10315,0.146274 1.39572,0.432728 0.28644,0.292551 0.43271,0.755752 0.43271,1.395706 v 0.822794 c 0,0.505867 -0.0853,0.895933 -0.24988,1.176294 -0.17065,0.280358 -0.43274,0.469296 -0.7984,0.560719 L 305,34.723053 h -1.77966 L 302.16592,32.8032 h -1.2799 v 1.919853 h -1.6456 z m 4.02258,1.828434 c 0,-0.365688 -0.18286,-0.548531 -0.54855,-0.548531 h -1.82843 v 1.919855 h 1.82843 c 0.36569,0 0.54855,-0.182842 0.54855,-0.54853 z"
   id="path52" />
		<path
   class="st5"
   d="m 305,44.419849 c 0,0.639954 -0.14627,1.103157 -0.43274,1.395707 -0.29254,0.286453 -0.75574,0.432727 -1.39569,0.432727 h -2.28555 c -0.63996,0 -1.10315,-0.146274 -1.39569,-0.432727 -0.28647,-0.29255 -0.43274,-0.755753 -0.43274,-1.395707 v -2.925495 c 0,-0.63995 0.14627,-1.103153 0.43274,-1.395702 0.29254,-0.286457 0.75573,-0.432732 1.39569,-0.432732 h 2.28555 c 0.63995,0 1.10315,0.146275 1.39569,0.432732 C 304.85373,40.391201 305,40.854404 305,41.494354 Z m -1.6456,-2.785671 c 0,-0.33073 -0.18283,-0.496094 -0.54852,-0.496094 h -1.55417 c -0.36569,0 -0.54852,0.165364 -0.54852,0.496094 v 2.645847 c 0,0.330731 0.18283,0.496098 0.54852,0.496098 h 1.55417 c 0.36569,0 0.54852,-0.165367 0.54852,-0.496098 z"
   id="path53" />
		<path
   class="st5"
   d="m 299.24042,16.889727 h 3.83972 c 0.63995,0 1.10315,0.146274 1.39572,0.432729 0.28644,0.292549 0.43271,0.755753 0.43271,1.395705 v 0.914217 c 0,0.639951 -0.14627,1.103155 -0.43271,1.395704 -0.29257,0.286455 -0.75577,0.43273 -1.39572,0.43273 h -2.19412 v 1.828434 h -1.6456 z m 4.02258,1.828434 c 0,-0.365687 -0.18286,-0.548531 -0.54855,-0.548531 h -1.82843 v 2.011278 h 1.82843 c 0.36569,0 0.54855,-0.182844 0.54855,-0.54853 z"
   id="path54" />
	</g>
<text
   xml:space="preserve"
   id="text55"
   style="white-space:pre;shape-inside:url(#rect56);fill:#ffffff;fill-opacity:1"
   transform="matrix(1.0360546,0,0,1.0360546,44.61248,-43.649394)"><tspan
     x="46.753906"
     y="101.91476"
     id="tspan2"><tspan
       style="font-family:Poppins;-inkscape-font-specification:Poppins"
       id="tspan1">biblioteca de ícones</tspan></tspan></text></svg>
